<?xml version="1.0" encoding="utf-8"?>
<svg xmlns="http://www.w3.org/2000/svg" xmlns:xlink="http://www.w3.org/1999/xlink" width="672" height="480" viewBox="0 0 2688 1920">
<defs>
  <clipPath id="clip460">
    <rect x="0" y="0" width="2688" height="1920"/>
  </clipPath>
</defs>
<path clip-path="url(#clip460)" d="M0 1920 L2688 1920 L2688 0 L0 0  Z" fill="#ffffff" fill-rule="evenodd" fill-opacity="1"/>
<defs>
  <clipPath id="clip461">
    <rect x="537" y="0" width="1883" height="1883"/>
  </clipPath>
</defs>
<path clip-path="url(#clip460)" d="M187.071 1800.78 L2640.76 1800.78 L2640.76 47.2441 L187.071 47.2441  Z" fill="#ffffff" fill-rule="evenodd" fill-opacity="1"/>
<defs>
  <clipPath id="clip462">
    <rect x="187" y="47" width="2455" height="1755"/>
  </clipPath>
</defs>
<polyline clip-path="url(#clip462)" style="stroke:#000000; stroke-linecap:round; stroke-linejoin:round; stroke-width:2; stroke-opacity:0.1; fill:none" points="256.515,1800.78 256.515,47.2441 "/>
<polyline clip-path="url(#clip462)" style="stroke:#000000; stroke-linecap:round; stroke-linejoin:round; stroke-width:2; stroke-opacity:0.1; fill:none" points="835.214,1800.78 835.214,47.2441 "/>
<polyline clip-path="url(#clip462)" style="stroke:#000000; stroke-linecap:round; stroke-linejoin:round; stroke-width:2; stroke-opacity:0.1; fill:none" points="1413.91,1800.78 1413.91,47.2441 "/>
<polyline clip-path="url(#clip462)" style="stroke:#000000; stroke-linecap:round; stroke-linejoin:round; stroke-width:2; stroke-opacity:0.1; fill:none" points="1992.61,1800.78 1992.61,47.2441 "/>
<polyline clip-path="url(#clip462)" style="stroke:#000000; stroke-linecap:round; stroke-linejoin:round; stroke-width:2; stroke-opacity:0.1; fill:none" points="2571.31,1800.78 2571.31,47.2441 "/>
<polyline clip-path="url(#clip460)" style="stroke:#000000; stroke-linecap:round; stroke-linejoin:round; stroke-width:4; stroke-opacity:1; fill:none" points="187.071,1800.78 2640.76,1800.78 "/>
<polyline clip-path="url(#clip460)" style="stroke:#000000; stroke-linecap:round; stroke-linejoin:round; stroke-width:4; stroke-opacity:1; fill:none" points="256.515,1800.78 256.515,1781.88 "/>
<polyline clip-path="url(#clip460)" style="stroke:#000000; stroke-linecap:round; stroke-linejoin:round; stroke-width:4; stroke-opacity:1; fill:none" points="835.214,1800.78 835.214,1781.88 "/>
<polyline clip-path="url(#clip460)" style="stroke:#000000; stroke-linecap:round; stroke-linejoin:round; stroke-width:4; stroke-opacity:1; fill:none" points="1413.91,1800.78 1413.91,1781.88 "/>
<polyline clip-path="url(#clip460)" style="stroke:#000000; stroke-linecap:round; stroke-linejoin:round; stroke-width:4; stroke-opacity:1; fill:none" points="1992.61,1800.78 1992.61,1781.88 "/>
<polyline clip-path="url(#clip460)" style="stroke:#000000; stroke-linecap:round; stroke-linejoin:round; stroke-width:4; stroke-opacity:1; fill:none" points="2571.31,1800.78 2571.31,1781.88 "/>
<path clip-path="url(#clip460)" d="M233.899 1834 Q230.288 1834 228.459 1837.57 Q226.654 1841.11 226.654 1848.24 Q226.654 1855.34 228.459 1858.91 Q230.288 1862.45 233.899 1862.45 Q237.533 1862.45 239.339 1858.91 Q241.167 1855.34 241.167 1848.24 Q241.167 1841.11 239.339 1837.57 Q237.533 1834 233.899 1834 M233.899 1830.3 Q239.709 1830.3 242.765 1834.9 Q245.843 1839.49 245.843 1848.24 Q245.843 1856.96 242.765 1861.57 Q239.709 1866.15 233.899 1866.15 Q228.089 1866.15 225.01 1861.57 Q221.955 1856.96 221.955 1848.24 Q221.955 1839.49 225.01 1834.9 Q228.089 1830.3 233.899 1830.3 Z" fill="#000000" fill-rule="nonzero" fill-opacity="1" /><path clip-path="url(#clip460)" d="M254.061 1859.6 L258.945 1859.6 L258.945 1865.48 L254.061 1865.48 L254.061 1859.6 Z" fill="#000000" fill-rule="nonzero" fill-opacity="1" /><path clip-path="url(#clip460)" d="M279.13 1834 Q275.519 1834 273.69 1837.57 Q271.885 1841.11 271.885 1848.24 Q271.885 1855.34 273.69 1858.91 Q275.519 1862.45 279.13 1862.45 Q282.764 1862.45 284.57 1858.91 Q286.399 1855.34 286.399 1848.24 Q286.399 1841.11 284.57 1837.57 Q282.764 1834 279.13 1834 M279.13 1830.3 Q284.94 1830.3 287.996 1834.9 Q291.075 1839.49 291.075 1848.24 Q291.075 1856.96 287.996 1861.57 Q284.94 1866.15 279.13 1866.15 Q273.32 1866.15 270.241 1861.57 Q267.186 1856.96 267.186 1848.24 Q267.186 1839.49 270.241 1834.9 Q273.32 1830.3 279.13 1830.3 Z" fill="#000000" fill-rule="nonzero" fill-opacity="1" /><path clip-path="url(#clip460)" d="M813.096 1834 Q809.485 1834 807.656 1837.57 Q805.851 1841.11 805.851 1848.24 Q805.851 1855.34 807.656 1858.91 Q809.485 1862.45 813.096 1862.45 Q816.73 1862.45 818.536 1858.91 Q820.364 1855.34 820.364 1848.24 Q820.364 1841.11 818.536 1837.57 Q816.73 1834 813.096 1834 M813.096 1830.3 Q818.906 1830.3 821.962 1834.9 Q825.04 1839.49 825.04 1848.24 Q825.04 1856.96 821.962 1861.57 Q818.906 1866.15 813.096 1866.15 Q807.286 1866.15 804.207 1861.57 Q801.152 1856.96 801.152 1848.24 Q801.152 1839.49 804.207 1834.9 Q807.286 1830.3 813.096 1830.3 Z" fill="#000000" fill-rule="nonzero" fill-opacity="1" /><path clip-path="url(#clip460)" d="M833.258 1859.6 L838.142 1859.6 L838.142 1865.48 L833.258 1865.48 L833.258 1859.6 Z" fill="#000000" fill-rule="nonzero" fill-opacity="1" /><path clip-path="url(#clip460)" d="M848.374 1830.92 L866.73 1830.92 L866.73 1834.86 L852.656 1834.86 L852.656 1843.33 Q853.674 1842.98 854.693 1842.82 Q855.712 1842.64 856.73 1842.64 Q862.517 1842.64 865.897 1845.81 Q869.276 1848.98 869.276 1854.4 Q869.276 1859.97 865.804 1863.08 Q862.332 1866.15 856.012 1866.15 Q853.837 1866.15 851.568 1865.78 Q849.323 1865.41 846.915 1864.67 L846.915 1859.97 Q848.999 1861.11 851.221 1861.66 Q853.443 1862.22 855.92 1862.22 Q859.924 1862.22 862.262 1860.11 Q864.6 1858.01 864.6 1854.4 Q864.6 1850.78 862.262 1848.68 Q859.924 1846.57 855.92 1846.57 Q854.045 1846.57 852.17 1846.99 Q850.318 1847.4 848.374 1848.28 L848.374 1830.92 Z" fill="#000000" fill-rule="nonzero" fill-opacity="1" /><path clip-path="url(#clip460)" d="M1381.07 1861.55 L1388.71 1861.55 L1388.71 1835.18 L1380.39 1836.85 L1380.39 1832.59 L1388.66 1830.92 L1393.33 1830.92 L1393.33 1861.55 L1400.97 1861.55 L1400.97 1865.48 L1381.07 1865.48 L1381.07 1861.55 Z" fill="#000000" fill-rule="nonzero" fill-opacity="1" /><path clip-path="url(#clip460)" d="M1410.42 1859.6 L1415.3 1859.6 L1415.3 1865.48 L1410.42 1865.48 L1410.42 1859.6 Z" fill="#000000" fill-rule="nonzero" fill-opacity="1" /><path clip-path="url(#clip460)" d="M1435.49 1834 Q1431.88 1834 1430.05 1837.57 Q1428.24 1841.11 1428.24 1848.24 Q1428.24 1855.34 1430.05 1858.91 Q1431.88 1862.45 1435.49 1862.45 Q1439.12 1862.45 1440.93 1858.91 Q1442.76 1855.34 1442.76 1848.24 Q1442.76 1841.11 1440.93 1837.57 Q1439.12 1834 1435.49 1834 M1435.49 1830.3 Q1441.3 1830.3 1444.35 1834.9 Q1447.43 1839.49 1447.43 1848.24 Q1447.43 1856.96 1444.35 1861.57 Q1441.3 1866.15 1435.49 1866.15 Q1429.68 1866.15 1426.6 1861.57 Q1423.54 1856.96 1423.54 1848.24 Q1423.54 1839.49 1426.6 1834.9 Q1429.68 1830.3 1435.49 1830.3 Z" fill="#000000" fill-rule="nonzero" fill-opacity="1" /><path clip-path="url(#clip460)" d="M1960.26 1861.55 L1967.9 1861.55 L1967.9 1835.18 L1959.59 1836.85 L1959.59 1832.59 L1967.86 1830.92 L1972.53 1830.92 L1972.53 1861.55 L1980.17 1861.55 L1980.17 1865.48 L1960.26 1865.48 L1960.26 1861.55 Z" fill="#000000" fill-rule="nonzero" fill-opacity="1" /><path clip-path="url(#clip460)" d="M1989.61 1859.6 L1994.5 1859.6 L1994.5 1865.48 L1989.61 1865.48 L1989.61 1859.6 Z" fill="#000000" fill-rule="nonzero" fill-opacity="1" /><path clip-path="url(#clip460)" d="M2004.73 1830.92 L2023.09 1830.92 L2023.09 1834.86 L2009.01 1834.86 L2009.01 1843.33 Q2010.03 1842.98 2011.05 1842.82 Q2012.07 1842.64 2013.09 1842.64 Q2018.87 1842.64 2022.25 1845.81 Q2025.63 1848.98 2025.63 1854.4 Q2025.63 1859.97 2022.16 1863.08 Q2018.69 1866.15 2012.37 1866.15 Q2010.19 1866.15 2007.93 1865.78 Q2005.68 1865.41 2003.27 1864.67 L2003.27 1859.97 Q2005.36 1861.11 2007.58 1861.66 Q2009.8 1862.22 2012.28 1862.22 Q2016.28 1862.22 2018.62 1860.11 Q2020.96 1858.01 2020.96 1854.4 Q2020.96 1850.78 2018.62 1848.68 Q2016.28 1846.57 2012.28 1846.57 Q2010.4 1846.57 2008.53 1846.99 Q2006.68 1847.4 2004.73 1848.28 L2004.73 1830.92 Z" fill="#000000" fill-rule="nonzero" fill-opacity="1" /><path clip-path="url(#clip460)" d="M2542.55 1861.55 L2558.87 1861.55 L2558.87 1865.48 L2536.93 1865.48 L2536.93 1861.55 Q2539.59 1858.79 2544.17 1854.16 Q2548.78 1849.51 2549.96 1848.17 Q2552.2 1845.65 2553.08 1843.91 Q2553.99 1842.15 2553.99 1840.46 Q2553.99 1837.71 2552.04 1835.97 Q2550.12 1834.23 2547.02 1834.23 Q2544.82 1834.23 2542.37 1835 Q2539.93 1835.76 2537.16 1837.31 L2537.16 1832.59 Q2539.98 1831.46 2542.43 1830.88 Q2544.89 1830.3 2546.93 1830.3 Q2552.3 1830.3 2555.49 1832.98 Q2558.68 1835.67 2558.68 1840.16 Q2558.68 1842.29 2557.87 1844.21 Q2557.09 1846.11 2554.98 1848.7 Q2554.4 1849.37 2551.3 1852.59 Q2548.2 1855.78 2542.55 1861.55 Z" fill="#000000" fill-rule="nonzero" fill-opacity="1" /><path clip-path="url(#clip460)" d="M2568.68 1859.6 L2573.57 1859.6 L2573.57 1865.48 L2568.68 1865.48 L2568.68 1859.6 Z" fill="#000000" fill-rule="nonzero" fill-opacity="1" /><path clip-path="url(#clip460)" d="M2593.75 1834 Q2590.14 1834 2588.31 1837.57 Q2586.51 1841.11 2586.51 1848.24 Q2586.51 1855.34 2588.31 1858.91 Q2590.14 1862.45 2593.75 1862.45 Q2597.39 1862.45 2599.19 1858.91 Q2601.02 1855.34 2601.02 1848.24 Q2601.02 1841.11 2599.19 1837.57 Q2597.39 1834 2593.75 1834 M2593.75 1830.3 Q2599.56 1830.3 2602.62 1834.9 Q2605.7 1839.49 2605.7 1848.24 Q2605.7 1856.96 2602.62 1861.57 Q2599.56 1866.15 2593.75 1866.15 Q2587.94 1866.15 2584.87 1861.57 Q2581.81 1856.96 2581.81 1848.24 Q2581.81 1839.49 2584.87 1834.9 Q2587.94 1830.3 2593.75 1830.3 Z" fill="#000000" fill-rule="nonzero" fill-opacity="1" /><polyline clip-path="url(#clip462)" style="stroke:#000000; stroke-linecap:round; stroke-linejoin:round; stroke-width:2; stroke-opacity:0.1; fill:none" points="187.071,1552.06 2640.76,1552.06 "/>
<polyline clip-path="url(#clip462)" style="stroke:#000000; stroke-linecap:round; stroke-linejoin:round; stroke-width:2; stroke-opacity:0.1; fill:none" points="187.071,1220.24 2640.76,1220.24 "/>
<polyline clip-path="url(#clip462)" style="stroke:#000000; stroke-linecap:round; stroke-linejoin:round; stroke-width:2; stroke-opacity:0.1; fill:none" points="187.071,888.423 2640.76,888.423 "/>
<polyline clip-path="url(#clip462)" style="stroke:#000000; stroke-linecap:round; stroke-linejoin:round; stroke-width:2; stroke-opacity:0.1; fill:none" points="187.071,556.605 2640.76,556.605 "/>
<polyline clip-path="url(#clip462)" style="stroke:#000000; stroke-linecap:round; stroke-linejoin:round; stroke-width:2; stroke-opacity:0.1; fill:none" points="187.071,224.787 2640.76,224.787 "/>
<polyline clip-path="url(#clip460)" style="stroke:#000000; stroke-linecap:round; stroke-linejoin:round; stroke-width:4; stroke-opacity:1; fill:none" points="187.071,1800.78 187.071,47.2441 "/>
<polyline clip-path="url(#clip460)" style="stroke:#000000; stroke-linecap:round; stroke-linejoin:round; stroke-width:4; stroke-opacity:1; fill:none" points="187.071,1552.06 205.968,1552.06 "/>
<polyline clip-path="url(#clip460)" style="stroke:#000000; stroke-linecap:round; stroke-linejoin:round; stroke-width:4; stroke-opacity:1; fill:none" points="187.071,1220.24 205.968,1220.24 "/>
<polyline clip-path="url(#clip460)" style="stroke:#000000; stroke-linecap:round; stroke-linejoin:round; stroke-width:4; stroke-opacity:1; fill:none" points="187.071,888.423 205.968,888.423 "/>
<polyline clip-path="url(#clip460)" style="stroke:#000000; stroke-linecap:round; stroke-linejoin:round; stroke-width:4; stroke-opacity:1; fill:none" points="187.071,556.605 205.968,556.605 "/>
<polyline clip-path="url(#clip460)" style="stroke:#000000; stroke-linecap:round; stroke-linejoin:round; stroke-width:4; stroke-opacity:1; fill:none" points="187.071,224.787 205.968,224.787 "/>
<path clip-path="url(#clip460)" d="M84.5982 1565.4 L100.918 1565.4 L100.918 1569.34 L78.9733 1569.34 L78.9733 1565.4 Q81.6353 1562.65 86.2186 1558.02 Q90.8251 1553.37 92.0056 1552.03 Q94.251 1549.5 95.1306 1547.77 Q96.0334 1546.01 96.0334 1544.32 Q96.0334 1541.56 94.0889 1539.83 Q92.1676 1538.09 89.0658 1538.09 Q86.8667 1538.09 84.4131 1538.85 Q81.9825 1539.62 79.2047 1541.17 L79.2047 1536.45 Q82.0288 1535.31 84.4825 1534.73 Q86.9362 1534.15 88.9732 1534.15 Q94.3436 1534.15 97.538 1536.84 Q100.732 1539.53 100.732 1544.02 Q100.732 1546.15 99.9222 1548.07 Q99.1352 1549.97 97.0287 1552.56 Q96.45 1553.23 93.3482 1556.45 Q90.2464 1559.64 84.5982 1565.4 Z" fill="#000000" fill-rule="nonzero" fill-opacity="1" /><path clip-path="url(#clip460)" d="M110.732 1563.46 L115.617 1563.46 L115.617 1569.34 L110.732 1569.34 L110.732 1563.46 Z" fill="#000000" fill-rule="nonzero" fill-opacity="1" /><path clip-path="url(#clip460)" d="M125.848 1534.78 L144.204 1534.78 L144.204 1538.72 L130.13 1538.72 L130.13 1547.19 Q131.149 1546.84 132.167 1546.68 Q133.186 1546.49 134.204 1546.49 Q139.991 1546.49 143.371 1549.66 Q146.751 1552.84 146.751 1558.25 Q146.751 1563.83 143.278 1566.93 Q139.806 1570.01 133.487 1570.01 Q131.311 1570.01 129.042 1569.64 Q126.797 1569.27 124.39 1568.53 L124.39 1563.83 Q126.473 1564.96 128.695 1565.52 Q130.917 1566.08 133.394 1566.08 Q137.399 1566.08 139.737 1563.97 Q142.075 1561.86 142.075 1558.25 Q142.075 1554.64 139.737 1552.53 Q137.399 1550.43 133.394 1550.43 Q131.519 1550.43 129.644 1550.84 Q127.792 1551.26 125.848 1552.14 L125.848 1534.78 Z" fill="#000000" fill-rule="nonzero" fill-opacity="1" /><path clip-path="url(#clip460)" d="M79.6214 1202.96 L97.9778 1202.96 L97.9778 1206.9 L83.9038 1206.9 L83.9038 1215.37 Q84.9223 1215.02 85.9408 1214.86 Q86.9593 1214.67 87.9778 1214.67 Q93.7649 1214.67 97.1445 1217.85 Q100.524 1221.02 100.524 1226.43 Q100.524 1232.01 97.0519 1235.11 Q93.5797 1238.19 87.2603 1238.19 Q85.0843 1238.19 82.8158 1237.82 Q80.5705 1237.45 78.1631 1236.71 L78.1631 1232.01 Q80.2464 1233.15 82.4686 1233.7 Q84.6908 1234.26 87.1677 1234.26 Q91.1723 1234.26 93.5102 1232.15 Q95.8482 1230.04 95.8482 1226.43 Q95.8482 1222.82 93.5102 1220.72 Q91.1723 1218.61 87.1677 1218.61 Q85.2927 1218.61 83.4177 1219.03 Q81.5658 1219.44 79.6214 1220.32 L79.6214 1202.96 Z" fill="#000000" fill-rule="nonzero" fill-opacity="1" /><path clip-path="url(#clip460)" d="M109.737 1231.64 L114.621 1231.64 L114.621 1237.52 L109.737 1237.52 L109.737 1231.64 Z" fill="#000000" fill-rule="nonzero" fill-opacity="1" /><path clip-path="url(#clip460)" d="M134.806 1206.04 Q131.195 1206.04 129.367 1209.61 Q127.561 1213.15 127.561 1220.28 Q127.561 1227.38 129.367 1230.95 Q131.195 1234.49 134.806 1234.49 Q138.441 1234.49 140.246 1230.95 Q142.075 1227.38 142.075 1220.28 Q142.075 1213.15 140.246 1209.61 Q138.441 1206.04 134.806 1206.04 M134.806 1202.34 Q140.616 1202.34 143.672 1206.94 Q146.751 1211.53 146.751 1220.28 Q146.751 1229 143.672 1233.61 Q140.616 1238.19 134.806 1238.19 Q128.996 1238.19 125.917 1233.61 Q122.862 1229 122.862 1220.28 Q122.862 1211.53 125.917 1206.94 Q128.996 1202.34 134.806 1202.34 Z" fill="#000000" fill-rule="nonzero" fill-opacity="1" /><path clip-path="url(#clip460)" d="M79.3899 871.143 L101.612 871.143 L101.612 873.134 L89.0658 905.703 L84.1816 905.703 L95.9871 875.079 L79.3899 875.079 L79.3899 871.143 Z" fill="#000000" fill-rule="nonzero" fill-opacity="1" /><path clip-path="url(#clip460)" d="M110.732 899.824 L115.617 899.824 L115.617 905.703 L110.732 905.703 L110.732 899.824 Z" fill="#000000" fill-rule="nonzero" fill-opacity="1" /><path clip-path="url(#clip460)" d="M125.848 871.143 L144.204 871.143 L144.204 875.079 L130.13 875.079 L130.13 883.551 Q131.149 883.204 132.167 883.041 Q133.186 882.856 134.204 882.856 Q139.991 882.856 143.371 886.028 Q146.751 889.199 146.751 894.615 Q146.751 900.194 143.278 903.296 Q139.806 906.375 133.487 906.375 Q131.311 906.375 129.042 906.004 Q126.797 905.634 124.39 904.893 L124.39 900.194 Q126.473 901.328 128.695 901.884 Q130.917 902.44 133.394 902.44 Q137.399 902.44 139.737 900.333 Q142.075 898.227 142.075 894.615 Q142.075 891.004 139.737 888.898 Q137.399 886.791 133.394 886.791 Q131.519 886.791 129.644 887.208 Q127.792 887.625 125.848 888.504 L125.848 871.143 Z" fill="#000000" fill-rule="nonzero" fill-opacity="1" /><path clip-path="url(#clip460)" d="M50.2234 569.95 L57.8623 569.95 L57.8623 543.584 L49.5521 545.251 L49.5521 540.992 L57.816 539.325 L62.4919 539.325 L62.4919 569.95 L70.1307 569.95 L70.1307 573.885 L50.2234 573.885 L50.2234 569.95 Z" fill="#000000" fill-rule="nonzero" fill-opacity="1" /><path clip-path="url(#clip460)" d="M89.5751 542.404 Q85.964 542.404 84.1353 545.969 Q82.3297 549.51 82.3297 556.64 Q82.3297 563.746 84.1353 567.311 Q85.964 570.853 89.5751 570.853 Q93.2093 570.853 95.0148 567.311 Q96.8435 563.746 96.8435 556.64 Q96.8435 549.51 95.0148 545.969 Q93.2093 542.404 89.5751 542.404 M89.5751 538.7 Q95.3852 538.7 98.4408 543.307 Q101.519 547.89 101.519 556.64 Q101.519 565.367 98.4408 569.973 Q95.3852 574.556 89.5751 574.556 Q83.7649 574.556 80.6862 569.973 Q77.6307 565.367 77.6307 556.64 Q77.6307 547.89 80.6862 543.307 Q83.7649 538.7 89.5751 538.7 Z" fill="#000000" fill-rule="nonzero" fill-opacity="1" /><path clip-path="url(#clip460)" d="M109.737 568.006 L114.621 568.006 L114.621 573.885 L109.737 573.885 L109.737 568.006 Z" fill="#000000" fill-rule="nonzero" fill-opacity="1" /><path clip-path="url(#clip460)" d="M134.806 542.404 Q131.195 542.404 129.367 545.969 Q127.561 549.51 127.561 556.64 Q127.561 563.746 129.367 567.311 Q131.195 570.853 134.806 570.853 Q138.441 570.853 140.246 567.311 Q142.075 563.746 142.075 556.64 Q142.075 549.51 140.246 545.969 Q138.441 542.404 134.806 542.404 M134.806 538.7 Q140.616 538.7 143.672 543.307 Q146.751 547.89 146.751 556.64 Q146.751 565.367 143.672 569.973 Q140.616 574.556 134.806 574.556 Q128.996 574.556 125.917 569.973 Q122.862 565.367 122.862 556.64 Q122.862 547.89 125.917 543.307 Q128.996 538.7 134.806 538.7 Z" fill="#000000" fill-rule="nonzero" fill-opacity="1" /><path clip-path="url(#clip460)" d="M51.2188 238.132 L58.8576 238.132 L58.8576 211.766 L50.5475 213.433 L50.5475 209.173 L58.8113 207.507 L63.4872 207.507 L63.4872 238.132 L71.1261 238.132 L71.1261 242.067 L51.2188 242.067 L51.2188 238.132 Z" fill="#000000" fill-rule="nonzero" fill-opacity="1" /><path clip-path="url(#clip460)" d="M84.5982 238.132 L100.918 238.132 L100.918 242.067 L78.9733 242.067 L78.9733 238.132 Q81.6353 235.377 86.2186 230.747 Q90.8251 226.095 92.0056 224.752 Q94.251 222.229 95.1306 220.493 Q96.0334 218.734 96.0334 217.044 Q96.0334 214.289 94.0889 212.553 Q92.1676 210.817 89.0658 210.817 Q86.8667 210.817 84.4131 211.581 Q81.9825 212.345 79.2047 213.896 L79.2047 209.173 Q82.0288 208.039 84.4825 207.461 Q86.9362 206.882 88.9732 206.882 Q94.3436 206.882 97.538 209.567 Q100.732 212.252 100.732 216.743 Q100.732 218.872 99.9222 220.794 Q99.1352 222.692 97.0287 225.284 Q96.45 225.956 93.3482 229.173 Q90.2464 232.368 84.5982 238.132 Z" fill="#000000" fill-rule="nonzero" fill-opacity="1" /><path clip-path="url(#clip460)" d="M110.732 236.187 L115.617 236.187 L115.617 242.067 L110.732 242.067 L110.732 236.187 Z" fill="#000000" fill-rule="nonzero" fill-opacity="1" /><path clip-path="url(#clip460)" d="M125.848 207.507 L144.204 207.507 L144.204 211.442 L130.13 211.442 L130.13 219.914 Q131.149 219.567 132.167 219.405 Q133.186 219.22 134.204 219.22 Q139.991 219.22 143.371 222.391 Q146.751 225.562 146.751 230.979 Q146.751 236.558 143.278 239.659 Q139.806 242.738 133.487 242.738 Q131.311 242.738 129.042 242.368 Q126.797 241.997 124.39 241.257 L124.39 236.558 Q126.473 237.692 128.695 238.247 Q130.917 238.803 133.394 238.803 Q137.399 238.803 139.737 236.696 Q142.075 234.59 142.075 230.979 Q142.075 227.368 139.737 225.261 Q137.399 223.155 133.394 223.155 Q131.519 223.155 129.644 223.572 Q127.792 223.988 125.848 224.868 L125.848 207.507 Z" fill="#000000" fill-rule="nonzero" fill-opacity="1" /><path clip-path="url(#clip462)" d="M256.515 1751.15 L279.896 1748.44 L303.278 1745.68 L326.66 1742.86 L350.042 1739.98 L373.424 1737.04 L396.805 1734.05 L420.187 1730.99 L443.569 1727.87 L466.951 1724.69 L490.333 1721.44 L513.714 1718.12 L537.096 1714.74 L560.478 1711.29 L583.86 1707.77 L607.241 1704.17 L630.623 1700.5 L654.005 1696.76 L677.387 1692.94 L700.769 1689.05 L724.15 1685.07 L747.532 1681.01 L770.914 1676.87 L794.296 1672.65 L817.678 1668.34 L841.059 1663.94 L864.441 1659.45 L887.823 1654.87 L911.205 1650.2 L934.587 1645.43 L957.968 1640.56 L981.35 1635.6 L1004.73 1630.53 L1028.11 1625.36 L1051.5 1620.09 L1074.88 1614.7 L1098.26 1609.21 L1121.64 1603.6 L1145.02 1597.88 L1168.4 1592.05 L1191.79 1586.09 L1215.17 1580.01 L1238.55 1573.81 L1261.93 1567.49 L1285.31 1561.03 L1308.7 1554.44 L1332.08 1547.72 L1355.46 1540.86 L1378.84 1533.86 L1402.22 1526.71 L1425.6 1519.43 L1448.99 1511.99 L1472.37 1504.4 L1495.75 1496.65 L1519.13 1488.75 L1542.51 1480.69 L1565.89 1472.46 L1589.28 1464.06 L1612.66 1455.5 L1636.04 1446.75 L1659.42 1437.83 L1682.8 1428.73 L1706.19 1419.44 L1729.57 1409.97 L1752.95 1400.29 L1776.33 1390.43 L1799.71 1380.35 L1823.09 1370.08 L1846.48 1359.59 L1869.86 1348.89 L1893.24 1337.98 L1916.62 1326.84 L1940 1315.47 L1963.39 1303.87 L1986.77 1292.03 L2010.15 1279.95 L2033.53 1267.63 L2056.91 1255.05 L2080.29 1242.22 L2103.68 1229.13 L2127.06 1215.76 L2150.44 1202.13 L2173.82 1188.22 L2197.2 1174.02 L2220.59 1159.53 L2243.97 1144.75 L2267.35 1129.67 L2290.73 1114.28 L2314.11 1098.57 L2337.49 1082.55 L2360.88 1066.19 L2384.26 1049.51 L2407.64 1032.48 L2431.02 1015.1 L2454.4 997.373 L2477.78 979.282 L2501.17 960.822 L2524.55 941.984 L2547.93 922.763 L2571.31 903.149 L2571.31 96.8724 L2547.93 143.193 L2524.55 188.313 L2501.17 232.263 L2477.78 275.074 L2454.4 316.776 L2431.02 357.396 L2407.64 396.964 L2384.26 435.506 L2360.88 473.049 L2337.49 509.619 L2314.11 545.24 L2290.73 579.939 L2267.35 613.738 L2243.97 646.661 L2220.59 678.731 L2197.2 709.969 L2173.82 740.398 L2150.44 770.037 L2127.06 798.909 L2103.68 827.032 L2080.29 854.427 L2056.91 881.111 L2033.53 907.103 L2010.15 932.422 L1986.77 957.084 L1963.39 981.108 L1940 1004.51 L1916.62 1027.3 L1893.24 1049.51 L1869.86 1071.13 L1846.48 1092.2 L1823.09 1112.72 L1799.71 1132.71 L1776.33 1152.18 L1752.95 1171.15 L1729.57 1189.62 L1706.19 1207.62 L1682.8 1225.15 L1659.42 1242.22 L1636.04 1258.85 L1612.66 1275.05 L1589.28 1290.84 L1565.89 1306.21 L1542.51 1321.18 L1519.13 1335.77 L1495.75 1349.97 L1472.37 1363.81 L1448.99 1377.29 L1425.6 1390.43 L1402.22 1403.22 L1378.84 1415.67 L1355.46 1427.81 L1332.08 1439.63 L1308.7 1451.15 L1285.31 1462.36 L1261.93 1473.29 L1238.55 1483.93 L1215.17 1494.3 L1191.79 1504.4 L1168.4 1514.23 L1145.02 1523.82 L1121.64 1533.15 L1098.26 1542.24 L1074.88 1551.1 L1051.5 1559.72 L1028.11 1568.12 L1004.73 1576.31 L981.35 1584.28 L957.968 1592.05 L934.587 1599.61 L911.205 1606.98 L887.823 1614.16 L864.441 1621.15 L841.059 1627.96 L817.678 1634.59 L794.296 1641.05 L770.914 1647.35 L747.532 1653.48 L724.15 1659.45 L700.769 1665.27 L677.387 1670.94 L654.005 1676.46 L630.623 1681.83 L607.241 1687.07 L583.86 1692.17 L560.478 1697.14 L537.096 1701.98 L513.714 1706.69 L490.333 1711.29 L466.951 1715.76 L443.569 1720.12 L420.187 1724.36 L396.805 1728.5 L373.424 1732.53 L350.042 1736.45 L326.66 1740.27 L303.278 1743.99 L279.896 1747.62 L256.515 1751.15  Z" fill="#009af9" fill-rule="evenodd" fill-opacity="0.35"/>
<polyline clip-path="url(#clip462)" style="stroke:#009af9; stroke-linecap:round; stroke-linejoin:round; stroke-width:4; stroke-opacity:1; fill:none" points="256.515,1751.15 279.896,1748.44 303.278,1745.68 326.66,1742.86 350.042,1739.98 373.424,1737.04 396.805,1734.05 420.187,1730.99 443.569,1727.87 466.951,1724.69 490.333,1721.44 513.714,1718.12 537.096,1714.74 560.478,1711.29 583.86,1707.77 607.241,1704.17 630.623,1700.5 654.005,1696.76 677.387,1692.94 700.769,1689.05 724.15,1685.07 747.532,1681.01 770.914,1676.87 794.296,1672.65 817.678,1668.34 841.059,1663.94 864.441,1659.45 887.823,1654.87 911.205,1650.2 934.587,1645.43 957.968,1640.56 981.35,1635.6 1004.73,1630.53 1028.11,1625.36 1051.5,1620.09 1074.88,1614.7 1098.26,1609.21 1121.64,1603.6 1145.02,1597.88 1168.4,1592.05 1191.79,1586.09 1215.17,1580.01 1238.55,1573.81 1261.93,1567.49 1285.31,1561.03 1308.7,1554.44 1332.08,1547.72 1355.46,1540.86 1378.84,1533.86 1402.22,1526.71 1425.6,1519.43 1448.99,1511.99 1472.37,1504.4 1495.75,1496.65 1519.13,1488.75 1542.51,1480.69 1565.89,1472.46 1589.28,1464.06 1612.66,1455.5 1636.04,1446.75 1659.42,1437.83 1682.8,1428.73 1706.19,1419.44 1729.57,1409.97 1752.95,1400.29 1776.33,1390.43 1799.71,1380.35 1823.09,1370.08 1846.48,1359.59 1869.86,1348.89 1893.24,1337.98 1916.62,1326.84 1940,1315.47 1963.39,1303.87 1986.77,1292.03 2010.15,1279.95 2033.53,1267.63 2056.91,1255.05 2080.29,1242.22 2103.68,1229.13 2127.06,1215.76 2150.44,1202.13 2173.82,1188.22 2197.2,1174.02 2220.59,1159.53 2243.97,1144.75 2267.35,1129.67 2290.73,1114.28 2314.11,1098.57 2337.49,1082.55 2360.88,1066.19 2384.26,1049.51 2407.64,1032.48 2431.02,1015.1 2454.4,997.373 2477.78,979.282 2501.17,960.822 2524.55,941.984 2547.93,922.763 2571.31,903.149 "/>
<path clip-path="url(#clip460)" d="M268.86 209.375 L908.162 209.375 L908.162 105.695 L268.86 105.695  Z" fill="#ffffff" fill-rule="evenodd" fill-opacity="1"/>
<polyline clip-path="url(#clip460)" style="stroke:#000000; stroke-linecap:round; stroke-linejoin:round; stroke-width:4; stroke-opacity:1; fill:none" points="268.86,209.375 908.162,209.375 908.162,105.695 268.86,105.695 268.86,209.375 "/>
<path clip-path="url(#clip460)" d="M296.123 178.271 L459.702 178.271 L459.702 136.799 L296.123 136.799 L296.123 178.271  Z" fill="#009af9" fill-rule="evenodd" fill-opacity="0.35"/>
<polyline clip-path="url(#clip460)" style="stroke:#009af9; stroke-linecap:round; stroke-linejoin:round; stroke-width:4; stroke-opacity:1; fill:none" points="296.123,136.799 459.702,136.799 "/>
<path clip-path="url(#clip460)" d="M514.836 142.917 L514.836 147.848 Q512.475 145.649 509.789 144.561 Q507.127 143.473 504.118 143.473 Q498.192 143.473 495.044 147.107 Q491.896 150.718 491.896 157.57 Q491.896 164.399 495.044 168.033 Q498.192 171.644 504.118 171.644 Q507.127 171.644 509.789 170.556 Q512.475 169.468 514.836 167.269 L514.836 172.153 Q512.382 173.82 509.627 174.653 Q506.896 175.487 503.84 175.487 Q495.993 175.487 491.479 170.695 Q486.966 165.88 486.966 157.57 Q486.966 149.237 491.479 144.445 Q495.993 139.63 503.84 139.63 Q506.942 139.63 509.674 140.464 Q512.428 141.274 514.836 142.917 Z" fill="#000000" fill-rule="nonzero" fill-opacity="1" /><path clip-path="url(#clip460)" d="M531.919 151.876 Q528.493 151.876 526.502 154.561 Q524.512 157.223 524.512 161.876 Q524.512 166.528 526.479 169.213 Q528.47 171.875 531.919 171.875 Q535.322 171.875 537.312 169.19 Q539.303 166.505 539.303 161.876 Q539.303 157.269 537.312 154.584 Q535.322 151.876 531.919 151.876 M531.919 148.264 Q537.475 148.264 540.646 151.876 Q543.817 155.487 543.817 161.876 Q543.817 168.241 540.646 171.875 Q537.475 175.487 531.919 175.487 Q526.34 175.487 523.169 171.875 Q520.021 168.241 520.021 161.876 Q520.021 155.487 523.169 151.876 Q526.34 148.264 531.919 148.264 Z" fill="#000000" fill-rule="nonzero" fill-opacity="1" /><path clip-path="url(#clip460)" d="M572.428 159.167 L572.428 174.815 L568.169 174.815 L568.169 159.306 Q568.169 155.626 566.734 153.797 Q565.298 151.968 562.428 151.968 Q558.979 151.968 556.988 154.167 Q554.998 156.366 554.998 160.163 L554.998 174.815 L550.715 174.815 L550.715 148.889 L554.998 148.889 L554.998 152.917 Q556.525 150.579 558.586 149.422 Q560.669 148.264 563.377 148.264 Q567.845 148.264 570.136 151.042 Q572.428 153.797 572.428 159.167 Z" fill="#000000" fill-rule="nonzero" fill-opacity="1" /><path clip-path="url(#clip460)" d="M594.048 138.797 L594.048 142.339 L589.974 142.339 Q587.683 142.339 586.78 143.265 Q585.9 144.19 585.9 146.598 L585.9 148.889 L592.914 148.889 L592.914 152.2 L585.9 152.2 L585.9 174.815 L581.618 174.815 L581.618 152.2 L577.544 152.2 L577.544 148.889 L581.618 148.889 L581.618 147.084 Q581.618 142.755 583.632 140.788 Q585.646 138.797 590.021 138.797 L594.048 138.797 Z" fill="#000000" fill-rule="nonzero" fill-opacity="1" /><path clip-path="url(#clip460)" d="M597.613 148.889 L601.872 148.889 L601.872 174.815 L597.613 174.815 L597.613 148.889 M597.613 138.797 L601.872 138.797 L601.872 144.19 L597.613 144.19 L597.613 138.797 Z" fill="#000000" fill-rule="nonzero" fill-opacity="1" /><path clip-path="url(#clip460)" d="M627.844 152.825 L627.844 138.797 L632.104 138.797 L632.104 174.815 L627.844 174.815 L627.844 170.926 Q626.502 173.241 624.442 174.375 Q622.405 175.487 619.534 175.487 Q614.835 175.487 611.872 171.737 Q608.932 167.987 608.932 161.876 Q608.932 155.764 611.872 152.014 Q614.835 148.264 619.534 148.264 Q622.405 148.264 624.442 149.399 Q626.502 150.51 627.844 152.825 M613.331 161.876 Q613.331 166.575 615.252 169.26 Q617.196 171.922 620.576 171.922 Q623.956 171.922 625.9 169.26 Q627.844 166.575 627.844 161.876 Q627.844 157.176 625.9 154.514 Q623.956 151.829 620.576 151.829 Q617.196 151.829 615.252 154.514 Q613.331 157.176 613.331 161.876 Z" fill="#000000" fill-rule="nonzero" fill-opacity="1" /><path clip-path="url(#clip460)" d="M663.053 160.788 L663.053 162.871 L643.469 162.871 Q643.747 167.269 646.108 169.584 Q648.492 171.875 652.729 171.875 Q655.182 171.875 657.474 171.274 Q659.789 170.672 662.057 169.468 L662.057 173.496 Q659.766 174.468 657.358 174.977 Q654.951 175.487 652.474 175.487 Q646.27 175.487 642.636 171.875 Q639.025 168.264 639.025 162.107 Q639.025 155.741 642.451 152.014 Q645.9 148.264 651.733 148.264 Q656.965 148.264 659.997 151.644 Q663.053 155.001 663.053 160.788 M658.793 159.538 Q658.747 156.042 656.826 153.959 Q654.928 151.876 651.779 151.876 Q648.215 151.876 646.062 153.889 Q643.932 155.903 643.608 159.561 L658.793 159.538 Z" fill="#000000" fill-rule="nonzero" fill-opacity="1" /><path clip-path="url(#clip460)" d="M691.594 159.167 L691.594 174.815 L687.335 174.815 L687.335 159.306 Q687.335 155.626 685.9 153.797 Q684.464 151.968 681.594 151.968 Q678.145 151.968 676.154 154.167 Q674.164 156.366 674.164 160.163 L674.164 174.815 L669.881 174.815 L669.881 148.889 L674.164 148.889 L674.164 152.917 Q675.691 150.579 677.752 149.422 Q679.835 148.264 682.543 148.264 Q687.011 148.264 689.302 151.042 Q691.594 153.797 691.594 159.167 Z" fill="#000000" fill-rule="nonzero" fill-opacity="1" /><path clip-path="url(#clip460)" d="M718.747 149.885 L718.747 153.866 Q716.941 152.871 715.112 152.385 Q713.307 151.876 711.455 151.876 Q707.312 151.876 705.02 154.514 Q702.728 157.13 702.728 161.876 Q702.728 166.621 705.02 169.26 Q707.312 171.875 711.455 171.875 Q713.307 171.875 715.112 171.389 Q716.941 170.88 718.747 169.885 L718.747 173.82 Q716.964 174.653 715.043 175.07 Q713.145 175.487 710.992 175.487 Q705.136 175.487 701.687 171.806 Q698.238 168.125 698.238 161.876 Q698.238 155.533 701.71 151.899 Q705.205 148.264 711.27 148.264 Q713.237 148.264 715.112 148.681 Q716.987 149.075 718.747 149.885 Z" fill="#000000" fill-rule="nonzero" fill-opacity="1" /><path clip-path="url(#clip460)" d="M748.33 160.788 L748.33 162.871 L728.747 162.871 Q729.024 167.269 731.386 169.584 Q733.77 171.875 738.006 171.875 Q740.46 171.875 742.751 171.274 Q745.066 170.672 747.335 169.468 L747.335 173.496 Q745.043 174.468 742.635 174.977 Q740.228 175.487 737.751 175.487 Q731.548 175.487 727.913 171.875 Q724.302 168.264 724.302 162.107 Q724.302 155.741 727.728 152.014 Q731.177 148.264 737.01 148.264 Q742.242 148.264 745.274 151.644 Q748.33 155.001 748.33 160.788 M744.071 159.538 Q744.024 156.042 742.103 153.959 Q740.205 151.876 737.057 151.876 Q733.492 151.876 731.339 153.889 Q729.21 155.903 728.886 159.561 L744.071 159.538 Z" fill="#000000" fill-rule="nonzero" fill-opacity="1" /><path clip-path="url(#clip460)" d="M789.001 161.876 Q789.001 157.176 787.057 154.514 Q785.135 151.829 781.756 151.829 Q778.376 151.829 776.432 154.514 Q774.51 157.176 774.51 161.876 Q774.51 166.575 776.432 169.26 Q778.376 171.922 781.756 171.922 Q785.135 171.922 787.057 169.26 Q789.001 166.575 789.001 161.876 M774.51 152.825 Q775.853 150.51 777.89 149.399 Q779.95 148.264 782.797 148.264 Q787.519 148.264 790.459 152.014 Q793.422 155.764 793.422 161.876 Q793.422 167.987 790.459 171.737 Q787.519 175.487 782.797 175.487 Q779.95 175.487 777.89 174.375 Q775.853 173.241 774.51 170.926 L774.51 174.815 L770.228 174.815 L770.228 138.797 L774.51 138.797 L774.51 152.825 Z" fill="#000000" fill-rule="nonzero" fill-opacity="1" /><path clip-path="url(#clip460)" d="M812.265 161.783 Q807.103 161.783 805.112 162.963 Q803.121 164.144 803.121 166.991 Q803.121 169.26 804.603 170.602 Q806.107 171.922 808.677 171.922 Q812.218 171.922 814.348 169.422 Q816.501 166.899 816.501 162.732 L816.501 161.783 L812.265 161.783 M820.76 160.024 L820.76 174.815 L816.501 174.815 L816.501 170.88 Q815.042 173.241 812.867 174.375 Q810.691 175.487 807.543 175.487 Q803.561 175.487 801.2 173.264 Q798.862 171.019 798.862 167.269 Q798.862 162.894 801.779 160.672 Q804.718 158.45 810.529 158.45 L816.501 158.45 L816.501 158.033 Q816.501 155.093 814.556 153.496 Q812.635 151.876 809.14 151.876 Q806.918 151.876 804.811 152.408 Q802.705 152.94 800.76 154.005 L800.76 150.07 Q803.098 149.167 805.297 148.727 Q807.496 148.264 809.58 148.264 Q815.205 148.264 817.982 151.181 Q820.76 154.098 820.76 160.024 Z" fill="#000000" fill-rule="nonzero" fill-opacity="1" /><path clip-path="url(#clip460)" d="M851.084 159.167 L851.084 174.815 L846.825 174.815 L846.825 159.306 Q846.825 155.626 845.39 153.797 Q843.954 151.968 841.084 151.968 Q837.635 151.968 835.644 154.167 Q833.653 156.366 833.653 160.163 L833.653 174.815 L829.371 174.815 L829.371 148.889 L833.653 148.889 L833.653 152.917 Q835.181 150.579 837.241 149.422 Q839.325 148.264 842.033 148.264 Q846.501 148.264 848.792 151.042 Q851.084 153.797 851.084 159.167 Z" fill="#000000" fill-rule="nonzero" fill-opacity="1" /><path clip-path="url(#clip460)" d="M876.639 152.825 L876.639 138.797 L880.899 138.797 L880.899 174.815 L876.639 174.815 L876.639 170.926 Q875.297 173.241 873.237 174.375 Q871.2 175.487 868.329 175.487 Q863.63 175.487 860.667 171.737 Q857.727 167.987 857.727 161.876 Q857.727 155.764 860.667 152.014 Q863.63 148.264 868.329 148.264 Q871.2 148.264 873.237 149.399 Q875.297 150.51 876.639 152.825 M862.126 161.876 Q862.126 166.575 864.047 169.26 Q865.991 171.922 869.371 171.922 Q872.751 171.922 874.695 169.26 Q876.639 166.575 876.639 161.876 Q876.639 157.176 874.695 154.514 Q872.751 151.829 869.371 151.829 Q865.991 151.829 864.047 154.514 Q862.126 157.176 862.126 161.876 Z" fill="#000000" fill-rule="nonzero" fill-opacity="1" /></svg>
