<?xml version="1.0" encoding="utf-8"?>
<svg xmlns="http://www.w3.org/2000/svg" xmlns:xlink="http://www.w3.org/1999/xlink" width="528" height="336" viewBox="0 0 2112 1344">
<defs>
  <clipPath id="clip090">
    <rect x="0" y="0" width="2112" height="1344"/>
  </clipPath>
</defs>
<path clip-path="url(#clip090)" d="M0 1344 L2112 1344 L2112 2.13163e-14 L0 2.13163e-14  Z" fill="#ffffff" fill-rule="evenodd" fill-opacity="1"/>
<defs>
  <clipPath id="clip091">
    <rect x="422" y="0" width="1479" height="1344"/>
  </clipPath>
</defs>
<path clip-path="url(#clip090)" d="M214.34 1173.47 L2064.76 1173.47 L2064.76 47.2441 L214.34 47.2441  Z" fill="#ffffff" fill-rule="evenodd" fill-opacity="1"/>
<defs>
  <clipPath id="clip092">
    <rect x="214" y="47" width="1851" height="1127"/>
  </clipPath>
</defs>
<polyline clip-path="url(#clip092)" style="stroke:#000000; stroke-linecap:round; stroke-linejoin:round; stroke-width:2; stroke-opacity:0.1; fill:none" points="507.493,1173.47 507.493,47.2441 "/>
<polyline clip-path="url(#clip092)" style="stroke:#000000; stroke-linecap:round; stroke-linejoin:round; stroke-width:2; stroke-opacity:0.1; fill:none" points="808.472,1173.47 808.472,47.2441 "/>
<polyline clip-path="url(#clip092)" style="stroke:#000000; stroke-linecap:round; stroke-linejoin:round; stroke-width:2; stroke-opacity:0.1; fill:none" points="1109.45,1173.47 1109.45,47.2441 "/>
<polyline clip-path="url(#clip092)" style="stroke:#000000; stroke-linecap:round; stroke-linejoin:round; stroke-width:2; stroke-opacity:0.1; fill:none" points="1410.43,1173.47 1410.43,47.2441 "/>
<polyline clip-path="url(#clip092)" style="stroke:#000000; stroke-linecap:round; stroke-linejoin:round; stroke-width:2; stroke-opacity:0.1; fill:none" points="1711.41,1173.47 1711.41,47.2441 "/>
<polyline clip-path="url(#clip092)" style="stroke:#000000; stroke-linecap:round; stroke-linejoin:round; stroke-width:2; stroke-opacity:0.1; fill:none" points="2012.39,1173.47 2012.39,47.2441 "/>
<polyline clip-path="url(#clip090)" style="stroke:#000000; stroke-linecap:round; stroke-linejoin:round; stroke-width:4; stroke-opacity:1; fill:none" points="214.34,1173.47 2064.76,1173.47 "/>
<polyline clip-path="url(#clip090)" style="stroke:#000000; stroke-linecap:round; stroke-linejoin:round; stroke-width:4; stroke-opacity:1; fill:none" points="507.493,1173.47 507.493,1154.57 "/>
<polyline clip-path="url(#clip090)" style="stroke:#000000; stroke-linecap:round; stroke-linejoin:round; stroke-width:4; stroke-opacity:1; fill:none" points="808.472,1173.47 808.472,1154.57 "/>
<polyline clip-path="url(#clip090)" style="stroke:#000000; stroke-linecap:round; stroke-linejoin:round; stroke-width:4; stroke-opacity:1; fill:none" points="1109.45,1173.47 1109.45,1154.57 "/>
<polyline clip-path="url(#clip090)" style="stroke:#000000; stroke-linecap:round; stroke-linejoin:round; stroke-width:4; stroke-opacity:1; fill:none" points="1410.43,1173.47 1410.43,1154.57 "/>
<polyline clip-path="url(#clip090)" style="stroke:#000000; stroke-linecap:round; stroke-linejoin:round; stroke-width:4; stroke-opacity:1; fill:none" points="1711.41,1173.47 1711.41,1154.57 "/>
<polyline clip-path="url(#clip090)" style="stroke:#000000; stroke-linecap:round; stroke-linejoin:round; stroke-width:4; stroke-opacity:1; fill:none" points="2012.39,1173.47 2012.39,1154.57 "/>
<path clip-path="url(#clip090)" d="M497.771 1199.01 L516.127 1199.01 L516.127 1202.94 L502.053 1202.94 L502.053 1211.41 Q503.072 1211.07 504.09 1210.9 Q505.109 1210.72 506.127 1210.72 Q511.914 1210.72 515.294 1213.89 Q518.674 1217.06 518.674 1222.48 Q518.674 1228.06 515.201 1231.16 Q511.729 1234.24 505.41 1234.24 Q503.234 1234.24 500.965 1233.87 Q498.72 1233.5 496.313 1232.76 L496.313 1228.06 Q498.396 1229.19 500.618 1229.75 Q502.84 1230.3 505.317 1230.3 Q509.322 1230.3 511.66 1228.2 Q513.998 1226.09 513.998 1222.48 Q513.998 1218.87 511.66 1216.76 Q509.322 1214.65 505.317 1214.65 Q503.442 1214.65 501.567 1215.07 Q499.715 1215.49 497.771 1216.37 L497.771 1199.01 Z" fill="#000000" fill-rule="nonzero" fill-opacity="1" /><path clip-path="url(#clip090)" d="M783.159 1229.63 L790.798 1229.63 L790.798 1203.27 L782.488 1204.93 L782.488 1200.67 L790.752 1199.01 L795.428 1199.01 L795.428 1229.63 L803.067 1229.63 L803.067 1233.57 L783.159 1233.57 L783.159 1229.63 Z" fill="#000000" fill-rule="nonzero" fill-opacity="1" /><path clip-path="url(#clip090)" d="M822.511 1202.09 Q818.9 1202.09 817.071 1205.65 Q815.266 1209.19 815.266 1216.32 Q815.266 1223.43 817.071 1226.99 Q818.9 1230.53 822.511 1230.53 Q826.145 1230.53 827.951 1226.99 Q829.779 1223.43 829.779 1216.32 Q829.779 1209.19 827.951 1205.65 Q826.145 1202.09 822.511 1202.09 M822.511 1198.38 Q828.321 1198.38 831.377 1202.99 Q834.455 1207.57 834.455 1216.32 Q834.455 1225.05 831.377 1229.65 Q828.321 1234.24 822.511 1234.24 Q816.701 1234.24 813.622 1229.65 Q810.567 1225.05 810.567 1216.32 Q810.567 1207.57 813.622 1202.99 Q816.701 1198.38 822.511 1198.38 Z" fill="#000000" fill-rule="nonzero" fill-opacity="1" /><path clip-path="url(#clip090)" d="M1084.64 1229.63 L1092.27 1229.63 L1092.27 1203.27 L1083.96 1204.93 L1083.96 1200.67 L1092.23 1199.01 L1096.9 1199.01 L1096.9 1229.63 L1104.54 1229.63 L1104.54 1233.57 L1084.64 1233.57 L1084.64 1229.63 Z" fill="#000000" fill-rule="nonzero" fill-opacity="1" /><path clip-path="url(#clip090)" d="M1114.03 1199.01 L1132.39 1199.01 L1132.39 1202.94 L1118.32 1202.94 L1118.32 1211.41 Q1119.33 1211.07 1120.35 1210.9 Q1121.37 1210.72 1122.39 1210.72 Q1128.18 1210.72 1131.56 1213.89 Q1134.94 1217.06 1134.94 1222.48 Q1134.94 1228.06 1131.46 1231.16 Q1127.99 1234.24 1121.67 1234.24 Q1119.5 1234.24 1117.23 1233.87 Q1114.98 1233.5 1112.58 1232.76 L1112.58 1228.06 Q1114.66 1229.19 1116.88 1229.75 Q1119.1 1230.3 1121.58 1230.3 Q1125.58 1230.3 1127.92 1228.2 Q1130.26 1226.09 1130.26 1222.48 Q1130.26 1218.87 1127.92 1216.76 Q1125.58 1214.65 1121.58 1214.65 Q1119.7 1214.65 1117.83 1215.07 Q1115.98 1215.49 1114.03 1216.37 L1114.03 1199.01 Z" fill="#000000" fill-rule="nonzero" fill-opacity="1" /><path clip-path="url(#clip090)" d="M1389.2 1229.63 L1405.52 1229.63 L1405.52 1233.57 L1383.58 1233.57 L1383.58 1229.63 Q1386.24 1226.88 1390.82 1222.25 Q1395.43 1217.59 1396.61 1216.25 Q1398.85 1213.73 1399.73 1211.99 Q1400.64 1210.23 1400.64 1208.54 Q1400.64 1205.79 1398.69 1204.05 Q1396.77 1202.32 1393.67 1202.32 Q1391.47 1202.32 1389.02 1203.08 Q1386.59 1203.84 1383.81 1205.4 L1383.81 1200.67 Q1386.63 1199.54 1389.09 1198.96 Q1391.54 1198.38 1393.58 1198.38 Q1398.95 1198.38 1402.14 1201.07 Q1405.34 1203.75 1405.34 1208.24 Q1405.34 1210.37 1404.53 1212.29 Q1403.74 1214.19 1401.63 1216.78 Q1401.05 1217.46 1397.95 1220.67 Q1394.85 1223.87 1389.2 1229.63 Z" fill="#000000" fill-rule="nonzero" fill-opacity="1" /><path clip-path="url(#clip090)" d="M1425.34 1202.09 Q1421.72 1202.09 1419.9 1205.65 Q1418.09 1209.19 1418.09 1216.32 Q1418.09 1223.43 1419.9 1226.99 Q1421.72 1230.53 1425.34 1230.53 Q1428.97 1230.53 1430.78 1226.99 Q1432.6 1223.43 1432.6 1216.32 Q1432.6 1209.19 1430.78 1205.65 Q1428.97 1202.09 1425.34 1202.09 M1425.34 1198.38 Q1431.15 1198.38 1434.2 1202.99 Q1437.28 1207.57 1437.28 1216.32 Q1437.28 1225.05 1434.2 1229.65 Q1431.15 1234.24 1425.34 1234.24 Q1419.53 1234.24 1416.45 1229.65 Q1413.39 1225.05 1413.39 1216.32 Q1413.39 1207.57 1416.45 1202.99 Q1419.53 1198.38 1425.34 1198.38 Z" fill="#000000" fill-rule="nonzero" fill-opacity="1" /><path clip-path="url(#clip090)" d="M1690.68 1229.63 L1707 1229.63 L1707 1233.57 L1685.05 1233.57 L1685.05 1229.63 Q1687.72 1226.88 1692.3 1222.25 Q1696.9 1217.59 1698.09 1216.25 Q1700.33 1213.73 1701.21 1211.99 Q1702.11 1210.23 1702.11 1208.54 Q1702.11 1205.79 1700.17 1204.05 Q1698.25 1202.32 1695.15 1202.32 Q1692.95 1202.32 1690.49 1203.08 Q1688.06 1203.84 1685.28 1205.4 L1685.28 1200.67 Q1688.11 1199.54 1690.56 1198.96 Q1693.02 1198.38 1695.05 1198.38 Q1700.42 1198.38 1703.62 1201.07 Q1706.81 1203.75 1706.81 1208.24 Q1706.81 1210.37 1706 1212.29 Q1705.22 1214.19 1703.11 1216.78 Q1702.53 1217.46 1699.43 1220.67 Q1696.33 1223.87 1690.68 1229.63 Z" fill="#000000" fill-rule="nonzero" fill-opacity="1" /><path clip-path="url(#clip090)" d="M1716.86 1199.01 L1735.21 1199.01 L1735.21 1202.94 L1721.14 1202.94 L1721.14 1211.41 Q1722.16 1211.07 1723.18 1210.9 Q1724.2 1210.72 1725.21 1210.72 Q1731 1210.72 1734.38 1213.89 Q1737.76 1217.06 1737.76 1222.48 Q1737.76 1228.06 1734.29 1231.16 Q1730.82 1234.24 1724.5 1234.24 Q1722.32 1234.24 1720.05 1233.87 Q1717.81 1233.5 1715.4 1232.76 L1715.4 1228.06 Q1717.48 1229.19 1719.71 1229.75 Q1721.93 1230.3 1724.4 1230.3 Q1728.41 1230.3 1730.75 1228.2 Q1733.09 1226.09 1733.09 1222.48 Q1733.09 1218.87 1730.75 1216.76 Q1728.41 1214.65 1724.4 1214.65 Q1722.53 1214.65 1720.65 1215.07 Q1718.8 1215.49 1716.86 1216.37 L1716.86 1199.01 Z" fill="#000000" fill-rule="nonzero" fill-opacity="1" /><path clip-path="url(#clip090)" d="M2001.23 1214.93 Q2004.58 1215.65 2006.46 1217.92 Q2008.36 1220.19 2008.36 1223.52 Q2008.36 1228.64 2004.84 1231.44 Q2001.32 1234.24 1994.84 1234.24 Q1992.66 1234.24 1990.35 1233.8 Q1988.06 1233.38 1985.6 1232.53 L1985.6 1228.01 Q1987.55 1229.15 1989.86 1229.72 Q1992.18 1230.3 1994.7 1230.3 Q1999.1 1230.3 2001.39 1228.57 Q2003.71 1226.83 2003.71 1223.52 Q2003.71 1220.46 2001.55 1218.75 Q1999.42 1217.02 1995.6 1217.02 L1991.58 1217.02 L1991.58 1213.17 L1995.79 1213.17 Q1999.24 1213.17 2001.07 1211.81 Q2002.89 1210.42 2002.89 1207.83 Q2002.89 1205.16 2001 1203.75 Q1999.12 1202.32 1995.6 1202.32 Q1993.68 1202.32 1991.48 1202.73 Q1989.28 1203.15 1986.65 1204.03 L1986.65 1199.86 Q1989.31 1199.12 1991.62 1198.75 Q1993.96 1198.38 1996.02 1198.38 Q2001.34 1198.38 2004.45 1200.81 Q2007.55 1203.22 2007.55 1207.34 Q2007.55 1210.21 2005.9 1212.2 Q2004.26 1214.17 2001.23 1214.93 Z" fill="#000000" fill-rule="nonzero" fill-opacity="1" /><path clip-path="url(#clip090)" d="M2027.22 1202.09 Q2023.61 1202.09 2021.78 1205.65 Q2019.98 1209.19 2019.98 1216.32 Q2019.98 1223.43 2021.78 1226.99 Q2023.61 1230.53 2027.22 1230.53 Q2030.86 1230.53 2032.66 1226.99 Q2034.49 1223.43 2034.49 1216.32 Q2034.49 1209.19 2032.66 1205.65 Q2030.86 1202.09 2027.22 1202.09 M2027.22 1198.38 Q2033.03 1198.38 2036.09 1202.99 Q2039.17 1207.57 2039.17 1216.32 Q2039.17 1225.05 2036.09 1229.65 Q2033.03 1234.24 2027.22 1234.24 Q2021.41 1234.24 2018.33 1229.65 Q2015.28 1225.05 2015.28 1216.32 Q2015.28 1207.57 2018.33 1202.99 Q2021.41 1198.38 2027.22 1198.38 Z" fill="#000000" fill-rule="nonzero" fill-opacity="1" /><path clip-path="url(#clip090)" d="M1061.42 1266.49 L1101.62 1266.49 L1101.62 1271.91 L1084.76 1271.91 L1084.76 1314.01 L1078.29 1314.01 L1078.29 1271.91 L1061.42 1271.91 L1061.42 1266.49 Z" fill="#000000" fill-rule="nonzero" fill-opacity="1" /><path clip-path="url(#clip090)" d="M1105.57 1278.37 L1111.43 1278.37 L1111.43 1314.01 L1105.57 1314.01 L1105.57 1278.37 M1105.57 1264.49 L1111.43 1264.49 L1111.43 1271.91 L1105.57 1271.91 L1105.57 1264.49 Z" fill="#000000" fill-rule="nonzero" fill-opacity="1" /><path clip-path="url(#clip090)" d="M1151.44 1285.21 Q1153.63 1281.26 1156.69 1279.39 Q1159.74 1277.51 1163.88 1277.51 Q1169.45 1277.51 1172.47 1281.42 Q1175.5 1285.31 1175.5 1292.5 L1175.5 1314.01 L1169.61 1314.01 L1169.61 1292.69 Q1169.61 1287.57 1167.8 1285.08 Q1165.98 1282.6 1162.26 1282.6 Q1157.71 1282.6 1155.06 1285.62 Q1152.42 1288.65 1152.42 1293.87 L1152.42 1314.01 L1146.53 1314.01 L1146.53 1292.69 Q1146.53 1287.53 1144.72 1285.08 Q1142.91 1282.6 1139.12 1282.6 Q1134.63 1282.6 1131.99 1285.66 Q1129.35 1288.68 1129.35 1293.87 L1129.35 1314.01 L1123.46 1314.01 L1123.46 1278.37 L1129.35 1278.37 L1129.35 1283.9 Q1131.35 1280.63 1134.15 1279.07 Q1136.95 1277.51 1140.81 1277.51 Q1144.69 1277.51 1147.39 1279.48 Q1150.13 1281.45 1151.44 1285.21 Z" fill="#000000" fill-rule="nonzero" fill-opacity="1" /><path clip-path="url(#clip090)" d="M1217.67 1294.73 L1217.67 1297.59 L1190.74 1297.59 Q1191.13 1303.64 1194.37 1306.82 Q1197.65 1309.97 1203.48 1309.97 Q1206.85 1309.97 1210 1309.14 Q1213.18 1308.32 1216.3 1306.66 L1216.3 1312.2 Q1213.15 1313.54 1209.84 1314.24 Q1206.53 1314.94 1203.13 1314.94 Q1194.6 1314.94 1189.6 1309.97 Q1184.63 1305.01 1184.63 1296.54 Q1184.63 1287.79 1189.34 1282.66 Q1194.09 1277.51 1202.11 1277.51 Q1209.3 1277.51 1213.47 1282.15 Q1217.67 1286.77 1217.67 1294.73 M1211.81 1293.01 Q1211.75 1288.2 1209.11 1285.34 Q1206.5 1282.47 1202.17 1282.47 Q1197.27 1282.47 1194.31 1285.24 Q1191.38 1288.01 1190.94 1293.04 L1211.81 1293.01 Z" fill="#000000" fill-rule="nonzero" fill-opacity="1" /><polyline clip-path="url(#clip092)" style="stroke:#000000; stroke-linecap:round; stroke-linejoin:round; stroke-width:2; stroke-opacity:0.1; fill:none" points="214.34,1141.6 2064.76,1141.6 "/>
<polyline clip-path="url(#clip092)" style="stroke:#000000; stroke-linecap:round; stroke-linejoin:round; stroke-width:2; stroke-opacity:0.1; fill:none" points="214.34,929.101 2064.76,929.101 "/>
<polyline clip-path="url(#clip092)" style="stroke:#000000; stroke-linecap:round; stroke-linejoin:round; stroke-width:2; stroke-opacity:0.1; fill:none" points="214.34,716.605 2064.76,716.605 "/>
<polyline clip-path="url(#clip092)" style="stroke:#000000; stroke-linecap:round; stroke-linejoin:round; stroke-width:2; stroke-opacity:0.1; fill:none" points="214.34,504.11 2064.76,504.11 "/>
<polyline clip-path="url(#clip092)" style="stroke:#000000; stroke-linecap:round; stroke-linejoin:round; stroke-width:2; stroke-opacity:0.1; fill:none" points="214.34,291.614 2064.76,291.614 "/>
<polyline clip-path="url(#clip092)" style="stroke:#000000; stroke-linecap:round; stroke-linejoin:round; stroke-width:2; stroke-opacity:0.1; fill:none" points="214.34,79.1184 2064.76,79.1184 "/>
<polyline clip-path="url(#clip090)" style="stroke:#000000; stroke-linecap:round; stroke-linejoin:round; stroke-width:4; stroke-opacity:1; fill:none" points="214.34,1173.47 214.34,47.2441 "/>
<polyline clip-path="url(#clip090)" style="stroke:#000000; stroke-linecap:round; stroke-linejoin:round; stroke-width:4; stroke-opacity:1; fill:none" points="214.34,1141.6 233.238,1141.6 "/>
<polyline clip-path="url(#clip090)" style="stroke:#000000; stroke-linecap:round; stroke-linejoin:round; stroke-width:4; stroke-opacity:1; fill:none" points="214.34,929.101 233.238,929.101 "/>
<polyline clip-path="url(#clip090)" style="stroke:#000000; stroke-linecap:round; stroke-linejoin:round; stroke-width:4; stroke-opacity:1; fill:none" points="214.34,716.605 233.238,716.605 "/>
<polyline clip-path="url(#clip090)" style="stroke:#000000; stroke-linecap:round; stroke-linejoin:round; stroke-width:4; stroke-opacity:1; fill:none" points="214.34,504.11 233.238,504.11 "/>
<polyline clip-path="url(#clip090)" style="stroke:#000000; stroke-linecap:round; stroke-linejoin:round; stroke-width:4; stroke-opacity:1; fill:none" points="214.34,291.614 233.238,291.614 "/>
<polyline clip-path="url(#clip090)" style="stroke:#000000; stroke-linecap:round; stroke-linejoin:round; stroke-width:4; stroke-opacity:1; fill:none" points="214.34,79.1184 233.238,79.1184 "/>
<path clip-path="url(#clip090)" d="M125.485 1127.4 Q121.873 1127.4 120.045 1130.96 Q118.239 1134.5 118.239 1141.63 Q118.239 1148.74 120.045 1152.3 Q121.873 1155.84 125.485 1155.84 Q129.119 1155.84 130.924 1152.3 Q132.753 1148.74 132.753 1141.63 Q132.753 1134.5 130.924 1130.96 Q129.119 1127.4 125.485 1127.4 M125.485 1123.69 Q131.295 1123.69 134.35 1128.3 Q137.429 1132.88 137.429 1141.63 Q137.429 1150.36 134.35 1154.96 Q131.295 1159.55 125.485 1159.55 Q119.674 1159.55 116.596 1154.96 Q113.54 1150.36 113.54 1141.63 Q113.54 1132.88 116.596 1128.3 Q119.674 1123.69 125.485 1123.69 Z" fill="#000000" fill-rule="nonzero" fill-opacity="1" /><path clip-path="url(#clip090)" d="M145.646 1153 L150.531 1153 L150.531 1158.88 L145.646 1158.88 L145.646 1153 Z" fill="#000000" fill-rule="nonzero" fill-opacity="1" /><path clip-path="url(#clip090)" d="M170.716 1127.4 Q167.105 1127.4 165.276 1130.96 Q163.47 1134.5 163.47 1141.63 Q163.47 1148.74 165.276 1152.3 Q167.105 1155.84 170.716 1155.84 Q174.35 1155.84 176.156 1152.3 Q177.984 1148.74 177.984 1141.63 Q177.984 1134.5 176.156 1130.96 Q174.35 1127.4 170.716 1127.4 M170.716 1123.69 Q176.526 1123.69 179.581 1128.3 Q182.66 1132.88 182.66 1141.63 Q182.66 1150.36 179.581 1154.96 Q176.526 1159.55 170.716 1159.55 Q164.906 1159.55 161.827 1154.96 Q158.771 1150.36 158.771 1141.63 Q158.771 1132.88 161.827 1128.3 Q164.906 1123.69 170.716 1123.69 Z" fill="#000000" fill-rule="nonzero" fill-opacity="1" /><path clip-path="url(#clip090)" d="M126.48 914.9 Q122.869 914.9 121.04 918.464 Q119.235 922.006 119.235 929.136 Q119.235 936.242 121.04 939.807 Q122.869 943.348 126.48 943.348 Q130.114 943.348 131.92 939.807 Q133.748 936.242 133.748 929.136 Q133.748 922.006 131.92 918.464 Q130.114 914.9 126.48 914.9 M126.48 911.196 Q132.29 911.196 135.346 915.802 Q138.424 920.386 138.424 929.136 Q138.424 937.862 135.346 942.469 Q132.29 947.052 126.48 947.052 Q120.67 947.052 117.591 942.469 Q114.536 937.862 114.536 929.136 Q114.536 920.386 117.591 915.802 Q120.67 911.196 126.48 911.196 Z" fill="#000000" fill-rule="nonzero" fill-opacity="1" /><path clip-path="url(#clip090)" d="M146.642 940.501 L151.526 940.501 L151.526 946.381 L146.642 946.381 L146.642 940.501 Z" fill="#000000" fill-rule="nonzero" fill-opacity="1" /><path clip-path="url(#clip090)" d="M161.757 911.821 L180.114 911.821 L180.114 915.756 L166.04 915.756 L166.04 924.228 Q167.058 923.881 168.077 923.719 Q169.095 923.534 170.114 923.534 Q175.901 923.534 179.281 926.705 Q182.66 929.876 182.66 935.293 Q182.66 940.872 179.188 943.973 Q175.716 947.052 169.396 947.052 Q167.22 947.052 164.952 946.682 Q162.707 946.311 160.299 945.571 L160.299 940.872 Q162.382 942.006 164.605 942.561 Q166.827 943.117 169.304 943.117 Q173.308 943.117 175.646 941.01 Q177.984 938.904 177.984 935.293 Q177.984 931.682 175.646 929.575 Q173.308 927.469 169.304 927.469 Q167.429 927.469 165.554 927.886 Q163.702 928.302 161.757 929.182 L161.757 911.821 Z" fill="#000000" fill-rule="nonzero" fill-opacity="1" /><path clip-path="url(#clip090)" d="M116.295 729.95 L123.934 729.95 L123.934 703.584 L115.623 705.251 L115.623 700.992 L123.887 699.325 L128.563 699.325 L128.563 729.95 L136.202 729.95 L136.202 733.885 L116.295 733.885 L116.295 729.95 Z" fill="#000000" fill-rule="nonzero" fill-opacity="1" /><path clip-path="url(#clip090)" d="M145.646 728.006 L150.531 728.006 L150.531 733.885 L145.646 733.885 L145.646 728.006 Z" fill="#000000" fill-rule="nonzero" fill-opacity="1" /><path clip-path="url(#clip090)" d="M170.716 702.404 Q167.105 702.404 165.276 705.969 Q163.47 709.51 163.47 716.64 Q163.47 723.746 165.276 727.311 Q167.105 730.853 170.716 730.853 Q174.35 730.853 176.156 727.311 Q177.984 723.746 177.984 716.64 Q177.984 709.51 176.156 705.969 Q174.35 702.404 170.716 702.404 M170.716 698.7 Q176.526 698.7 179.581 703.307 Q182.66 707.89 182.66 716.64 Q182.66 725.367 179.581 729.973 Q176.526 734.557 170.716 734.557 Q164.906 734.557 161.827 729.973 Q158.771 725.367 158.771 716.64 Q158.771 707.89 161.827 703.307 Q164.906 698.7 170.716 698.7 Z" fill="#000000" fill-rule="nonzero" fill-opacity="1" /><path clip-path="url(#clip090)" d="M117.29 517.454 L124.929 517.454 L124.929 491.089 L116.619 492.756 L116.619 488.496 L124.883 486.83 L129.559 486.83 L129.559 517.454 L137.197 517.454 L137.197 521.39 L117.29 521.39 L117.29 517.454 Z" fill="#000000" fill-rule="nonzero" fill-opacity="1" /><path clip-path="url(#clip090)" d="M146.642 515.51 L151.526 515.51 L151.526 521.39 L146.642 521.39 L146.642 515.51 Z" fill="#000000" fill-rule="nonzero" fill-opacity="1" /><path clip-path="url(#clip090)" d="M161.757 486.83 L180.114 486.83 L180.114 490.765 L166.04 490.765 L166.04 499.237 Q167.058 498.89 168.077 498.728 Q169.095 498.543 170.114 498.543 Q175.901 498.543 179.281 501.714 Q182.66 504.885 182.66 510.302 Q182.66 515.88 179.188 518.982 Q175.716 522.061 169.396 522.061 Q167.22 522.061 164.952 521.691 Q162.707 521.32 160.299 520.579 L160.299 515.88 Q162.382 517.015 164.605 517.57 Q166.827 518.126 169.304 518.126 Q173.308 518.126 175.646 516.019 Q177.984 513.913 177.984 510.302 Q177.984 506.691 175.646 504.584 Q173.308 502.478 169.304 502.478 Q167.429 502.478 165.554 502.894 Q163.702 503.311 161.757 504.191 L161.757 486.83 Z" fill="#000000" fill-rule="nonzero" fill-opacity="1" /><path clip-path="url(#clip090)" d="M119.512 304.959 L135.832 304.959 L135.832 308.894 L113.887 308.894 L113.887 304.959 Q116.549 302.204 121.133 297.575 Q125.739 292.922 126.92 291.579 Q129.165 289.056 130.045 287.32 Q130.947 285.561 130.947 283.871 Q130.947 281.116 129.003 279.38 Q127.082 277.644 123.98 277.644 Q121.781 277.644 119.327 278.408 Q116.897 279.172 114.119 280.723 L114.119 276.001 Q116.943 274.866 119.397 274.288 Q121.85 273.709 123.887 273.709 Q129.258 273.709 132.452 276.394 Q135.647 279.079 135.647 283.57 Q135.647 285.7 134.836 287.621 Q134.049 289.519 131.943 292.112 Q131.364 292.783 128.262 296.001 Q125.16 299.195 119.512 304.959 Z" fill="#000000" fill-rule="nonzero" fill-opacity="1" /><path clip-path="url(#clip090)" d="M145.646 303.014 L150.531 303.014 L150.531 308.894 L145.646 308.894 L145.646 303.014 Z" fill="#000000" fill-rule="nonzero" fill-opacity="1" /><path clip-path="url(#clip090)" d="M170.716 277.413 Q167.105 277.413 165.276 280.978 Q163.47 284.519 163.47 291.649 Q163.47 298.755 165.276 302.32 Q167.105 305.862 170.716 305.862 Q174.35 305.862 176.156 302.32 Q177.984 298.755 177.984 291.649 Q177.984 284.519 176.156 280.978 Q174.35 277.413 170.716 277.413 M170.716 273.709 Q176.526 273.709 179.581 278.315 Q182.66 282.899 182.66 291.649 Q182.66 300.376 179.581 304.982 Q176.526 309.565 170.716 309.565 Q164.906 309.565 161.827 304.982 Q158.771 300.376 158.771 291.649 Q158.771 282.899 161.827 278.315 Q164.906 273.709 170.716 273.709 Z" fill="#000000" fill-rule="nonzero" fill-opacity="1" /><path clip-path="url(#clip090)" d="M120.508 92.4633 L136.827 92.4633 L136.827 96.3984 L114.883 96.3984 L114.883 92.4633 Q117.545 89.7087 122.128 85.0791 Q126.735 80.4263 127.915 79.0837 Q130.16 76.5606 131.04 74.8245 Q131.943 73.0652 131.943 71.3754 Q131.943 68.6208 129.998 66.8847 Q128.077 65.1486 124.975 65.1486 Q122.776 65.1486 120.323 65.9125 Q117.892 66.6764 115.114 68.2273 L115.114 63.5051 Q117.938 62.3708 120.392 61.7921 Q122.846 61.2134 124.883 61.2134 Q130.253 61.2134 133.447 63.8986 Q136.642 66.5838 136.642 71.0745 Q136.642 73.2041 135.832 75.1254 Q135.045 77.0235 132.938 79.6161 Q132.36 80.2874 129.258 83.505 Q126.156 86.6994 120.508 92.4633 Z" fill="#000000" fill-rule="nonzero" fill-opacity="1" /><path clip-path="url(#clip090)" d="M146.642 90.5188 L151.526 90.5188 L151.526 96.3984 L146.642 96.3984 L146.642 90.5188 Z" fill="#000000" fill-rule="nonzero" fill-opacity="1" /><path clip-path="url(#clip090)" d="M161.757 61.8384 L180.114 61.8384 L180.114 65.7736 L166.04 65.7736 L166.04 74.2458 Q167.058 73.8986 168.077 73.7365 Q169.095 73.5513 170.114 73.5513 Q175.901 73.5513 179.281 76.7226 Q182.66 79.8939 182.66 85.3105 Q182.66 90.8892 179.188 93.991 Q175.716 97.0697 169.396 97.0697 Q167.22 97.0697 164.952 96.6994 Q162.707 96.329 160.299 95.5883 L160.299 90.8892 Q162.382 92.0235 164.605 92.579 Q166.827 93.1346 169.304 93.1346 Q173.308 93.1346 175.646 91.0281 Q177.984 88.9216 177.984 85.3105 Q177.984 81.6994 175.646 79.593 Q173.308 77.4865 169.304 77.4865 Q167.429 77.4865 165.554 77.9032 Q163.702 78.3198 161.757 79.1995 L161.757 61.8384 Z" fill="#000000" fill-rule="nonzero" fill-opacity="1" /><path clip-path="url(#clip090)" d="M22.4998 596.971 Q23.0795 596.971 23.4015 597.196 Q23.6914 597.39 23.7558 597.615 Q23.788 597.841 23.8202 598.42 Q24.0457 603.026 27.1696 606.794 Q27.9748 607.728 30.4868 610.079 Q32.9989 612.398 36.3483 615.489 Q39.6977 618.549 41.5012 620.32 L61.8553 611.818 Q62.6605 611.464 63.0148 611.335 Q63.3368 611.174 63.7555 610.852 Q64.1742 610.497 64.303 610.24 Q64.4318 609.95 64.5928 609.338 Q64.7217 608.694 64.7539 608.05 Q64.7539 607.373 64.7861 606.15 Q64.7861 605.763 64.8183 605.602 Q64.8183 605.409 65.0115 605.183 Q65.1725 604.958 65.559 604.958 Q66.1387 604.958 66.4608 605.216 Q66.7506 605.441 66.7828 605.667 Q66.815 605.86 66.815 606.214 Q66.815 607.051 66.7184 609.886 Q66.6218 612.72 66.6218 613.525 L66.815 621.834 Q66.815 622.832 66.0099 622.832 Q65.5912 622.832 65.3658 622.768 Q65.1081 622.671 65.0115 622.446 Q64.8827 622.22 64.8505 622.059 Q64.8183 621.898 64.7861 621.512 Q64.6573 620.32 64.303 619.418 Q63.9165 618.485 63.53 618.098 Q63.1436 617.679 62.8537 617.679 L61.9198 618.001 L46.1711 624.668 L52.6445 630.626 L59.762 637.357 Q61.6621 639.128 62.7249 639.128 Q64.4962 639.128 64.7861 636.488 Q64.8505 635.682 65.4946 635.682 Q66.1065 635.682 66.4286 635.94 Q66.7184 636.166 66.7828 636.391 Q66.815 636.584 66.815 636.874 Q66.815 638.066 66.7184 640.578 Q66.6218 643.058 66.6218 644.281 Q66.6218 645.312 66.7184 647.405 Q66.815 649.499 66.815 650.465 Q66.815 650.851 66.6218 651.077 Q66.4286 651.302 66.2353 651.302 L66.0743 651.334 Q65.6234 651.334 65.3658 651.27 Q65.1081 651.173 64.9793 650.916 Q64.8505 650.626 64.8505 650.497 Q64.8183 650.368 64.7861 649.885 Q64.625 647.148 63.5623 644.829 Q62.4995 642.478 60.0196 640.191 Q59.8586 639.998 59.6653 639.773 Q59.4721 639.515 59.3111 639.322 L44.3354 625.409 L25.9136 633.203 Q25.0762 633.557 24.722 633.879 Q24.3355 634.201 24.0779 635.199 Q23.8202 636.198 23.8202 638.13 Q23.8202 638.678 23.788 638.935 Q23.7558 639.193 23.5948 639.418 Q23.4337 639.644 23.0795 639.644 Q22.4676 639.644 22.1777 639.418 Q21.8557 639.161 21.8235 638.967 Q21.759 638.742 21.759 638.452 Q21.759 637.647 21.8557 634.781 Q21.9523 631.914 21.9523 631.077 Q21.9523 629.692 21.8557 626.922 Q21.759 624.121 21.759 622.768 Q21.759 621.77 22.5642 621.77 Q23.0795 621.77 23.3693 621.995 Q23.6592 622.22 23.7236 622.446 Q23.788 622.671 23.8202 623.09 Q23.949 624.346 24.3677 625.312 Q24.7542 626.246 25.1407 626.633 Q25.4949 626.987 25.7204 626.987 L26.5899 626.665 L39.6977 621.125 L28.2324 610.433 Q26.8154 609.177 25.8492 609.177 Q24.1101 609.177 23.8202 611.818 Q23.6914 612.623 23.0795 612.623 Q22.4676 612.623 22.1777 612.365 Q21.8557 612.108 21.8235 611.915 Q21.759 611.689 21.759 611.367 Q21.759 610.175 21.8557 607.728 Q21.9523 605.248 21.9523 604.024 Q21.9523 602.993 21.8557 600.9 Q21.759 598.807 21.759 597.841 Q21.759 597.454 21.9523 597.229 Q22.1133 597.003 22.3065 597.003 L22.4998 596.971 Z" fill="#000000" fill-rule="nonzero" fill-opacity="1" /><path clip-path="url(#clip090)" d="M64.602 576.283 Q65.2332 576.283 65.391 576.576 Q65.5263 576.869 65.5263 577.681 L65.5263 582.009 L79.1429 585.436 Q80.3378 585.706 81.3522 585.706 Q82.4794 585.706 82.9754 585.368 Q83.4714 585.008 83.4714 584.264 Q83.4714 582.798 82.1413 581.22 Q80.8112 579.62 77.5648 578.267 Q77.1365 578.087 77.0463 577.996 Q76.9336 577.884 76.9336 577.591 Q76.9336 577.027 77.3845 577.027 Q77.5423 577.027 78.2637 577.343 Q78.9851 577.636 80.0447 578.289 Q81.1042 578.921 82.0962 579.755 Q83.0881 580.566 83.8095 581.806 Q84.5084 583.046 84.5084 584.376 Q84.5084 586.247 83.3136 587.442 Q82.1187 588.615 80.2476 588.615 Q79.6389 588.615 77.7001 588.141 Q75.7388 587.668 65.5263 585.098 L65.5263 589.178 Q65.5263 589.742 65.5037 589.967 Q65.4812 590.17 65.3685 590.328 Q65.2332 590.463 64.9627 590.463 Q64.5343 590.463 64.354 590.283 Q64.1511 590.103 64.1285 589.877 Q64.0835 589.629 64.0835 589.066 L64.0835 584.737 L56.7566 582.934 Q56.0352 582.753 55.6294 582.302 Q55.2011 581.829 55.156 581.558 Q55.0884 581.288 55.0884 581.085 Q55.0884 580.476 55.4265 580.115 Q55.7421 579.755 56.3283 579.755 Q56.6439 579.755 64.0835 581.648 L64.0835 577.591 Q64.0835 577.072 64.106 576.869 Q64.1285 576.644 64.2413 576.463 Q64.354 576.283 64.602 576.283 Z" fill="#000000" fill-rule="nonzero" fill-opacity="1" /><polyline clip-path="url(#clip092)" style="stroke:#009af9; stroke-linecap:round; stroke-linejoin:round; stroke-width:4; stroke-opacity:1; fill:none" points="266.71,1141.6 326.906,1133.1 387.102,1127.65 447.298,1123.61 507.493,1120.44 567.689,1117.85 627.885,1115.68 688.08,1113.83 748.276,1112.24 808.472,1110.84 868.667,1109.6 928.863,1108.5 989.059,1107.51 1049.25,1106.61 1109.45,1105.8 1169.65,1105.05 1229.84,1104.37 1290.04,1103.75 1350.23,1103.17 1410.43,1102.63 1470.62,1102.14 1530.82,1101.67 1591.02,1101.24 1651.21,1100.84 1711.41,1100.46 1771.6,1100.1 1831.8,1099.77 1891.99,1099.45 1952.19,1099.16 2012.39,1098.88 "/>
<polyline clip-path="url(#clip092)" style="stroke:#e26f46; stroke-linecap:round; stroke-linejoin:round; stroke-width:4; stroke-opacity:1; fill:none" points="266.71,1120.35 326.906,1117.77 387.102,1115.62 447.298,1113.78 507.493,1112.19 567.689,1110.8 627.885,1109.56 688.08,1108.46 748.276,1107.48 808.472,1106.58 868.667,1105.77 928.863,1105.03 989.059,1104.35 1049.25,1103.73 1109.45,1103.15 1169.65,1102.62 1229.84,1102.12 1290.04,1101.66 1350.23,1101.23 1410.43,1100.83 1470.62,1100.45 1530.82,1100.09 1591.02,1099.76 1651.21,1099.44 1711.41,1099.15 1771.6,1098.87 1831.8,1098.6 1891.99,1098.35 1952.19,1098.11 2012.39,1097.89 "/>
<polyline clip-path="url(#clip092)" style="stroke:#3da44d; stroke-linecap:round; stroke-linejoin:round; stroke-width:4; stroke-opacity:1; fill:none" points="266.71,1099.1 326.906,1098.82 387.102,1098.56 447.298,1098.31 507.493,1098.07 567.689,1097.85 627.885,1097.63 688.08,1097.43 748.276,1097.24 808.472,1097.05 868.667,1096.88 928.863,1096.71 989.059,1096.55 1049.25,1096.4 1109.45,1096.25 1169.65,1096.11 1229.84,1095.98 1290.04,1095.85 1350.23,1095.72 1410.43,1095.61 1470.62,1095.49 1530.82,1095.38 1591.02,1095.28 1651.21,1095.18 1711.41,1095.08 1771.6,1094.99 1831.8,1094.9 1891.99,1094.81 1952.19,1094.73 2012.39,1094.65 "/>
<polyline clip-path="url(#clip092)" style="stroke:#c271d2; stroke-linecap:round; stroke-linejoin:round; stroke-width:4; stroke-opacity:1; fill:none" points="266.71,1077.85 326.906,1077.89 387.102,1077.93 447.298,1077.97 507.493,1078.01 567.689,1078.06 627.885,1078.1 688.08,1078.15 748.276,1078.19 808.472,1078.24 868.667,1078.29 928.863,1078.34 989.059,1078.38 1049.25,1078.43 1109.45,1078.49 1169.65,1078.54 1229.84,1078.59 1290.04,1078.64 1350.23,1078.7 1410.43,1078.75 1470.62,1078.81 1530.82,1078.87 1591.02,1078.93 1651.21,1078.98 1711.41,1079.04 1771.6,1079.11 1831.8,1079.17 1891.99,1079.23 1952.19,1079.29 2012.39,1079.36 "/>
<polyline clip-path="url(#clip092)" style="stroke:#ac8d18; stroke-linecap:round; stroke-linejoin:round; stroke-width:4; stroke-opacity:1; fill:none" points="266.71,1056.6 326.906,1055.71 387.102,1054.75 447.298,1053.74 507.493,1052.65 567.689,1051.49 627.885,1050.25 688.08,1048.91 748.276,1047.47 808.472,1045.91 868.667,1044.24 928.863,1042.42 989.059,1040.45 1049.25,1038.32 1109.45,1035.99 1169.65,1033.45 1229.84,1030.68 1290.04,1027.64 1350.23,1024.3 1410.43,1020.63 1470.62,1016.59 1530.82,1012.12 1591.02,1007.18 1651.21,1001.71 1711.41,995.65 1771.6,988.925 1831.8,981.467 1891.99,973.203 1952.19,964.061 2012.39,953.978 "/>
<polyline clip-path="url(#clip092)" style="stroke:#00a9ad; stroke-linecap:round; stroke-linejoin:round; stroke-width:4; stroke-opacity:1; fill:none" points="266.71,1035.35 326.906,1032.75 387.102,1029.91 447.298,1026.8 507.493,1023.38 567.689,1019.61 627.885,1015.46 688.08,1010.88 748.276,1005.81 808.472,1000.19 868.667,993.958 928.863,987.048 989.059,979.386 1049.25,970.9 1109.45,961.518 1169.65,951.178 1229.84,939.835 1290.04,927.464 1350.23,914.075 1410.43,899.718 1470.62,884.495 1530.82,868.56 1591.02,852.12 1651.21,835.423 1711.41,818.746 1771.6,802.374 1831.8,786.575 1891.99,771.587 1952.19,757.597 2012.39,744.735 "/>
<polyline clip-path="url(#clip092)" style="stroke:#ed5d92; stroke-linecap:round; stroke-linejoin:round; stroke-width:4; stroke-opacity:1; fill:none" points="266.71,1014.1 326.906,1009.37 387.102,1004.14 447.298,998.336 507.493,991.904 567.689,984.771 627.885,976.863 688.08,968.107 748.276,958.436 808.472,947.792 868.667,936.133 928.863,923.445 989.059,909.75 1049.25,895.113 1109.45,879.652 1169.65,863.537 1229.84,846.99 1290.04,830.269 1350.23,813.655 1410.43,797.432 1470.62,781.861 1530.82,767.163 1591.02,753.509 1651.21,741.012 1711.41,729.728 1771.6,719.665 1831.8,710.786 1891.99,703.029 1952.19,696.307 2012.39,690.523 "/>
<polyline clip-path="url(#clip092)" style="stroke:#c68125; stroke-linecap:round; stroke-linejoin:round; stroke-width:4; stroke-opacity:1; fill:none" points="266.71,992.849 326.906,985.819 387.102,978.024 447.298,969.392 507.493,959.854 567.689,949.349 627.885,937.835 688.08,925.291 748.276,911.735 808.472,897.225 868.667,881.87 928.863,865.835 989.059,849.333 1049.25,832.62 1109.45,815.974 1169.65,799.68 1229.84,784.002 1290.04,769.17 1350.23,755.361 1410.43,742.696 1470.62,731.241 1530.82,721.007 1591.02,711.965 1651.21,704.055 1711.41,697.193 1771.6,691.284 1831.8,686.227 1891.99,681.923 1952.19,678.276 2012.39,675.198 "/>
<polyline clip-path="url(#clip092)" style="stroke:#00a98d; stroke-linecap:round; stroke-linejoin:round; stroke-width:4; stroke-opacity:1; fill:none" points="266.71,971.6 326.906,962.291 387.102,952.029 447.298,940.766 507.493,928.476 567.689,915.166 627.885,900.882 688.08,885.723 748.276,869.837 808.472,853.428 868.667,836.742 928.863,820.053 989.059,803.646 1049.25,787.794 1109.45,772.734 1169.65,758.66 1229.84,745.705 1290.04,733.949 1350.23,723.415 1410.43,714.085 1470.62,705.903 1530.82,698.791 1591.02,692.656 1651.21,687.399 1711.41,682.919 1771.6,679.118 1831.8,675.908 1891.99,673.206 1952.19,670.937 2012.39,669.036 "/>
<polyline clip-path="url(#clip092)" style="stroke:#8e971d; stroke-linecap:round; stroke-linejoin:round; stroke-width:4; stroke-opacity:1; fill:none" points="266.71,950.35 326.906,938.929 387.102,926.48 447.298,913.014 507.493,898.587 567.689,883.304 627.885,867.323 688.08,850.854 748.276,834.148 808.472,817.485 868.667,801.147 928.863,785.403 989.059,770.485 1049.25,756.576 1109.45,743.804 1169.65,732.237 1229.84,721.892 1290.04,712.743 1350.23,704.733 1410.43,697.779 1470.62,691.787 1530.82,686.656 1591.02,682.287 1651.21,678.585 1711.41,675.458 1771.6,672.827 1831.8,670.619 1891.99,668.771 1952.19,667.226 2012.39,665.937 "/>
<polyline clip-path="url(#clip092)" style="stroke:#00a8cb; stroke-linecap:round; stroke-linejoin:round; stroke-width:4; stroke-opacity:1; fill:none" points="266.71,929.101 326.906,915.839 387.102,901.602 447.298,886.482 507.493,870.628 567.689,854.239 627.885,837.559 688.08,820.864 748.276,804.437 808.472,788.552 868.667,773.449 928.863,759.322 989.059,746.311 1049.25,734.495 1109.45,723.902 1169.65,714.513 1229.84,706.277 1290.04,699.115 1350.23,692.935 1410.43,687.637 1470.62,683.121 1530.82,679.29 1591.02,676.053 1651.21,673.327 1711.41,671.038 1771.6,669.121 1831.8,667.519 1891.99,666.181 1952.19,665.067 2012.39,664.139 "/>
<polyline clip-path="url(#clip092)" style="stroke:#9b7fe8; stroke-linecap:round; stroke-linejoin:round; stroke-width:4; stroke-opacity:1; fill:none" points="266.71,907.851 326.906,893.097 387.102,877.537 447.298,861.351 507.493,844.764 567.689,828.041 627.885,811.464 688.08,795.314 748.276,779.847 808.472,765.279 868.667,751.774 928.863,739.437 989.059,728.316 1049.25,718.414 1109.45,709.689 1169.65,702.075 1229.84,695.484 1290.04,689.818 1350.23,684.977 1410.43,680.862 1470.62,677.38 1530.82,674.444 1591.02,671.975 1651.21,669.906 1711.41,668.174 1771.6,666.728 1831.8,665.522 1891.99,664.518 1952.19,663.682 2012.39,662.988 "/>
<polyline clip-path="url(#clip092)" style="stroke:#608cf6; stroke-linecap:round; stroke-linejoin:round; stroke-width:4; stroke-opacity:1; fill:none" points="266.71,886.602 326.906,870.752 387.102,854.367 447.298,837.689 507.493,820.992 567.689,804.562 627.885,788.672 688.08,773.562 748.276,759.427 808.472,746.407 868.667,734.581 928.863,723.979 989.059,714.582 1049.25,706.336 1109.45,699.166 1169.65,692.979 1229.84,687.675 1290.04,683.153 1350.23,679.317 1410.43,676.076 1470.62,673.346 1530.82,671.055 1591.02,669.135 1651.21,667.53 1711.41,666.191 1771.6,665.075 1831.8,664.145 1891.99,663.373 1952.19,662.731 2012.39,662.197 "/>
<polyline clip-path="url(#clip092)" style="stroke:#f05f73; stroke-linecap:round; stroke-linejoin:round; stroke-width:4; stroke-opacity:1; fill:none" points="266.71,865.352 326.906,848.84 387.102,832.125 447.298,815.486 507.493,799.206 567.689,783.55 627.885,768.746 688.08,754.969 748.276,742.34 808.472,730.92 868.667,720.722 928.863,711.715 989.059,703.837 1049.25,697.005 1109.45,691.122 1169.65,686.089 1229.84,681.806 1290.04,678.177 1350.23,675.115 1410.43,672.539 1470.62,670.378 1530.82,668.569 1591.02,667.057 1651.21,665.797 1711.41,664.746 1771.6,663.872 1831.8,663.146 1891.99,662.542 1952.19,662.041 2012.39,661.625 "/>
<polyline clip-path="url(#clip092)" style="stroke:#dd64b5; stroke-linecap:round; stroke-linejoin:round; stroke-width:4; stroke-opacity:1; fill:none" points="266.71,844.103 326.906,827.38 387.102,810.814 447.298,794.686 507.493,779.251 567.689,764.723 627.885,751.262 688.08,738.973 748.276,727.901 808.472,718.046 868.667,709.367 928.863,701.795 989.059,695.242 1049.25,689.611 1109.45,684.801 1169.65,680.713 1229.84,677.254 1290.04,674.337 1350.23,671.886 1410.43,669.831 1470.62,668.112 1530.82,666.676 1591.02,665.479 1651.21,664.482 1711.41,663.652 1771.6,662.963 1831.8,662.39 1891.99,661.915 1952.19,661.521 2012.39,661.193 "/>
<polyline clip-path="url(#clip092)" style="stroke:#6b9e32; stroke-linecap:round; stroke-linejoin:round; stroke-width:4; stroke-opacity:1; fill:none" points="266.71,822.853 326.906,806.379 387.102,790.415 447.298,775.208 507.493,760.956 567.689,747.806 627.885,735.844 688.08,725.105 748.276,715.575 808.472,707.204 868.667,699.918 928.863,693.626 989.059,688.228 1049.25,683.623 1109.45,679.715 1169.65,676.412 1229.84,673.629 1290.04,671.291 1350.23,669.333 1410.43,667.696 1470.62,666.329 1530.82,665.19 1591.02,664.241 1651.21,663.452 1711.41,662.797 1771.6,662.252 1831.8,661.8 1891.99,661.426 1952.19,661.115 2012.39,660.857 "/>
<polyline clip-path="url(#clip092)" style="stroke:#009af9; stroke-linecap:round; stroke-linejoin:round; stroke-width:4; stroke-opacity:1; fill:none" points="266.71,801.603 326.906,785.839 387.102,770.895 447.298,756.956 507.493,744.15 567.689,732.548 627.885,722.169 688.08,712.987 748.276,704.945 808.472,697.962 868.667,691.944 928.863,686.791 989.059,682.402 1049.25,678.681 1109.45,675.54 1169.65,672.896 1229.84,670.677 1290.04,668.819 1350.23,667.266 1410.43,665.971 1470.62,664.891 1530.82,663.993 1591.02,663.246 1651.21,662.625 1711.41,662.11 1771.6,661.682 1831.8,661.328 1891.99,661.034 1952.19,660.79 2012.39,660.588 "/>
<polyline clip-path="url(#clip092)" style="stroke:#e26f46; stroke-linecap:round; stroke-linejoin:round; stroke-width:4; stroke-opacity:1; fill:none" points="266.71,780.354 326.906,765.753 387.102,752.21 447.298,739.832 507.493,728.671 567.689,718.728 627.885,709.965 688.08,702.314 748.276,695.69 808.472,689.995 868.667,685.128 928.863,680.99 989.059,677.488 1049.25,674.535 1109.45,672.052 1169.65,669.969 1229.84,668.227 1290.04,666.772 1350.23,665.559 1410.43,664.549 1470.62,663.708 1530.82,663.009 1591.02,662.429 1651.21,661.947 1711.41,661.547 1771.6,661.215 1831.8,660.94 1891.99,660.713 1952.19,660.524 2012.39,660.367 "/>
<polyline clip-path="url(#clip092)" style="stroke:#3da44d; stroke-linecap:round; stroke-linejoin:round; stroke-width:4; stroke-opacity:1; fill:none" points="266.71,759.104 326.906,746.112 387.102,734.315 447.298,723.742 507.493,714.372 567.689,706.154 627.885,699.008 688.08,692.843 748.276,687.558 808.472,683.054 868.667,679.233 928.863,676.005 989.059,673.287 1049.25,671.005 1109.45,669.093 1169.65,667.495 1229.84,666.162 1290.04,665.05 1350.23,664.125 1410.43,663.356 1470.62,662.717 1530.82,662.186 1591.02,661.745 1651.21,661.38 1711.41,661.077 1771.6,660.826 1831.8,660.617 1891.99,660.445 1952.19,660.302 2012.39,660.183 "/>
<polyline clip-path="url(#clip092)" style="stroke:#c271d2; stroke-linecap:round; stroke-linejoin:round; stroke-width:4; stroke-opacity:1; fill:none" points="266.71,737.855 326.906,726.901 387.102,717.161 447.298,708.592 507.493,701.122 567.689,694.662 627.885,689.114 688.08,684.378 748.276,680.355 808.472,676.951 868.667,674.083 928.863,671.672 989.059,669.652 1049.25,667.962 1109.45,666.551 1169.65,665.375 1229.84,664.395 1290.04,663.58 1350.23,662.903 1410.43,662.341 1470.62,661.874 1530.82,661.486 1591.02,661.165 1651.21,660.899 1711.41,660.678 1771.6,660.495 1831.8,660.343 1891.99,660.218 1952.19,660.114 2012.39,660.028 "/>
<polyline clip-path="url(#clip092)" style="stroke:#ac8d18; stroke-linecap:round; stroke-linejoin:round; stroke-width:4; stroke-opacity:1; fill:none" points="266.71,716.605 326.906,708.105 387.102,700.7 447.298,694.298 507.493,688.803 567.689,684.113 627.885,680.13 688.08,676.762 748.276,673.923 808.472,671.538 868.667,669.54 928.863,667.868 989.059,666.473 1049.25,665.31 1109.45,664.341 1169.65,663.535 1229.84,662.866 1290.04,662.31 1350.23,661.848 1410.43,661.465 1470.62,661.147 1530.82,660.884 1591.02,660.666 1651.21,660.485 1711.41,660.335 1771.6,660.211 1831.8,660.108 1891.99,660.023 1952.19,659.953 2012.39,659.894 "/>
<polyline clip-path="url(#clip092)" style="stroke:#00a9ad; stroke-linecap:round; stroke-linejoin:round; stroke-width:4; stroke-opacity:1; fill:none" points="266.71,695.356 326.906,689.708 387.102,684.884 447.298,680.783 507.493,677.313 567.689,674.387 627.885,671.928 688.08,669.866 748.276,668.141 808.472,666.7 868.667,665.499 928.863,664.499 989.059,663.666 1049.25,662.975 1109.45,662.4 1169.65,661.923 1229.84,661.527 1290.04,661.199 1350.23,660.927 1410.43,660.701 1470.62,660.514 1530.82,660.359 1591.02,660.231 1651.21,660.125 1711.41,660.037 1771.6,659.964 1831.8,659.904 1891.99,659.854 1952.19,659.812 2012.39,659.778 "/>
<polyline clip-path="url(#clip092)" style="stroke:#ed5d92; stroke-linecap:round; stroke-linejoin:round; stroke-width:4; stroke-opacity:1; fill:none" points="266.71,674.106 326.906,671.692 387.102,669.668 447.298,667.976 507.493,666.562 567.689,665.384 627.885,664.403 688.08,663.587 748.276,662.909 808.472,662.345 868.667,661.877 928.863,661.489 989.059,661.168 1049.25,660.901 1109.45,660.68 1169.65,660.497 1229.84,660.345 1290.04,660.219 1350.23,660.115 1410.43,660.029 1470.62,659.957 1530.82,659.898 1591.02,659.849 1651.21,659.808 1711.41,659.775 1771.6,659.747 1831.8,659.724 1891.99,659.705 1952.19,659.689 2012.39,659.676 "/>
<polyline clip-path="url(#clip092)" style="stroke:#c68125; stroke-linecap:round; stroke-linejoin:round; stroke-width:4; stroke-opacity:1; fill:none" points="266.71,652.857 326.906,654.038 387.102,655.011 447.298,655.812 507.493,656.472 567.689,657.017 627.885,657.467 688.08,657.839 748.276,658.146 808.472,658.399 868.667,658.609 928.863,658.783 989.059,658.926 1049.25,659.045 1109.45,659.143 1169.65,659.224 1229.84,659.291 1290.04,659.347 1350.23,659.393 1410.43,659.431 1470.62,659.462 1530.82,659.488 1591.02,659.51 1651.21,659.528 1711.41,659.543 1771.6,659.555 1831.8,659.565 1891.99,659.573 1952.19,659.58 2012.39,659.586 "/>
<polyline clip-path="url(#clip092)" style="stroke:#00a98d; stroke-linecap:round; stroke-linejoin:round; stroke-width:4; stroke-opacity:1; fill:none" points="266.71,631.607 326.906,636.729 387.102,640.871 447.298,644.234 507.493,646.974 567.689,649.213 627.885,651.046 688.08,652.55 748.276,653.786 808.472,654.803 868.667,655.641 928.863,656.331 989.059,656.901 1049.25,657.371 1109.45,657.759 1169.65,658.08 1229.84,658.345 1290.04,658.564 1350.23,658.745 1410.43,658.895 1470.62,659.019 1530.82,659.122 1591.02,659.207 1651.21,659.277 1711.41,659.335 1771.6,659.383 1831.8,659.423 1891.99,659.456 1952.19,659.483 2012.39,659.505 "/>
<polyline clip-path="url(#clip092)" style="stroke:#8e971d; stroke-linecap:round; stroke-linejoin:round; stroke-width:4; stroke-opacity:1; fill:none" points="266.71,610.357 326.906,619.747 387.102,627.212 447.298,633.19 507.493,638.007 567.689,641.907 627.885,645.078 688.08,647.663 748.276,649.776 808.472,651.508 868.667,652.93 928.863,654.098 989.059,655.06 1049.25,655.853 1109.45,656.506 1169.65,657.045 1229.84,657.49 1290.04,657.858 1350.23,658.161 1410.43,658.412 1470.62,658.62 1530.82,658.791 1591.02,658.933 1651.21,659.051 1711.41,659.148 1771.6,659.228 1831.8,659.295 1891.99,659.35 1952.19,659.395 2012.39,659.433 "/>
<polyline clip-path="url(#clip092)" style="stroke:#00a8cb; stroke-linecap:round; stroke-linejoin:round; stroke-width:4; stroke-opacity:1; fill:none" points="266.71,589.108 326.906,603.075 387.102,613.999 447.298,622.635 507.493,629.52 567.689,635.047 627.885,639.509 688.08,643.126 748.276,646.071 808.472,648.474 868.667,650.441 928.863,652.053 989.059,653.378 1049.25,654.467 1109.45,655.364 1169.65,656.103 1229.84,656.712 1290.04,657.215 1350.23,657.631 1410.43,657.974 1470.62,658.257 1530.82,658.492 1591.02,658.685 1651.21,658.846 1711.41,658.978 1771.6,659.088 1831.8,659.178 1891.99,659.253 1952.19,659.316 2012.39,659.367 "/>
<polyline clip-path="url(#clip092)" style="stroke:#9b7fe8; stroke-linecap:round; stroke-linejoin:round; stroke-width:4; stroke-opacity:1; fill:none" points="266.71,567.858 326.906,586.695 387.102,601.201 447.298,612.526 507.493,621.465 567.689,628.585 627.885,634.294 688.08,638.9 748.276,642.632 808.472,645.668 868.667,648.145 928.863,650.171 989.059,651.832 1049.25,653.196 1109.45,654.317 1169.65,655.24 1229.84,656.001 1290.04,656.629 1350.23,657.146 1410.43,657.574 1470.62,657.927 1530.82,658.218 1591.02,658.459 1651.21,658.659 1711.41,658.824 1771.6,658.96 1831.8,659.073 1891.99,659.166 1952.19,659.243 2012.39,659.307 "/>
<polyline clip-path="url(#clip092)" style="stroke:#608cf6; stroke-linecap:round; stroke-linejoin:round; stroke-width:4; stroke-opacity:1; fill:none" points="266.71,546.609 326.906,570.593 387.102,588.787 447.298,602.826 507.493,613.803 567.689,622.479 627.885,629.395 688.08,634.947 748.276,639.428 808.472,643.061 868.667,646.017 928.863,648.43 989.059,650.405 1049.25,652.024 1109.45,653.354 1169.65,654.447 1229.84,655.347 1290.04,656.089 1350.23,656.701 1410.43,657.206 1470.62,657.623 1530.82,657.968 1591.02,658.252 1651.21,658.487 1711.41,658.682 1771.6,658.843 1831.8,658.976 1891.99,659.086 1952.19,659.177 2012.39,659.252 "/>
<polyline clip-path="url(#clip092)" style="stroke:#f05f73; stroke-linecap:round; stroke-linejoin:round; stroke-width:4; stroke-opacity:1; fill:none" points="266.71,525.359 326.906,554.752 387.102,576.732 447.298,593.501 507.493,606.497 567.689,616.696 627.885,624.779 688.08,631.238 748.276,636.431 808.472,640.63 868.667,644.038 928.863,646.814 989.059,649.082 1049.25,650.939 1109.45,652.462 1169.65,653.714 1229.84,654.744 1290.04,655.592 1350.23,656.291 1410.43,656.867 1470.62,657.343 1530.82,657.737 1591.02,658.061 1651.21,658.33 1711.41,658.551 1771.6,658.735 1831.8,658.886 1891.99,659.012 1952.19,659.116 2012.39,659.202 "/>
<polyline clip-path="url(#clip092)" style="stroke:#dd64b5; stroke-linecap:round; stroke-linejoin:round; stroke-width:4; stroke-opacity:1; fill:none" points="266.71,504.11 326.906,539.159 387.102,565.01 447.298,584.522 507.493,599.515 567.689,611.203 627.885,620.417 688.08,627.746 748.276,633.62 808.472,638.355 868.667,642.189 928.863,645.307 989.059,647.85 1049.25,649.93 1109.45,651.634 1169.65,653.033 1229.84,654.184 1290.04,655.13 1350.23,655.91 1410.43,656.554 1470.62,657.084 1530.82,657.523 1591.02,657.884 1651.21,658.184 1711.41,658.431 1771.6,658.635 1831.8,658.804 1891.99,658.944 1952.19,659.059 2012.39,659.155 "/>
<polyline clip-path="url(#clip092)" style="stroke:#6b9e32; stroke-linecap:round; stroke-linejoin:round; stroke-width:4; stroke-opacity:1; fill:none" points="266.71,482.86 326.906,523.799 387.102,553.599 447.298,575.86 507.493,592.83 567.689,605.974 627.885,616.283 688.08,624.451 748.276,630.974 808.472,636.219 868.667,640.457 928.863,643.898 989.059,646.7 1049.25,648.988 1109.45,650.862 1169.65,652.399 1229.84,653.662 1290.04,654.701 1350.23,655.557 1410.43,656.262 1470.62,656.844 1530.82,657.324 1591.02,657.72 1651.21,658.048 1711.41,658.318 1771.6,658.542 1831.8,658.727 1891.99,658.88 1952.19,659.007 2012.39,659.111 "/>
<polyline clip-path="url(#clip092)" style="stroke:#009af9; stroke-linecap:round; stroke-linejoin:round; stroke-width:4; stroke-opacity:1; fill:none" points="266.71,461.611 326.906,508.658 387.102,542.477 447.298,567.493 507.493,586.416 567.689,600.984 627.885,612.356 688.08,621.33 748.276,628.477 808.472,634.207 868.667,638.829 928.863,642.575 989.059,645.621 1049.25,648.107 1109.45,650.14 1169.65,651.806 1229.84,653.175 1290.04,654.3 1350.23,655.226 1410.43,655.99 1470.62,656.619 1530.82,657.138 1591.02,657.567 1651.21,657.921 1711.41,658.214 1771.6,658.456 1831.8,658.656 1891.99,658.821 1952.19,658.958 2012.39,659.071 "/>
<polyline clip-path="url(#clip092)" style="stroke:#e26f46; stroke-linecap:round; stroke-linejoin:round; stroke-width:4; stroke-opacity:1; fill:none" points="266.71,440.361 326.906,493.726 387.102,531.625 447.298,559.397 507.493,580.251 567.689,596.213 627.885,608.616 688.08,618.369 748.276,626.113 808.472,632.308 868.667,637.295 928.863,641.329 989.059,644.607 1049.25,647.278 1109.45,649.462 1169.65,651.25 1229.84,652.718 1290.04,653.924 1350.23,654.917 1410.43,655.734 1470.62,656.409 1530.82,656.965 1591.02,657.424 1651.21,657.803 1711.41,658.116 1771.6,658.375 1831.8,658.589 1891.99,658.766 1952.19,658.912 2012.39,659.033 "/>
<polyline clip-path="url(#clip092)" style="stroke:#3da44d; stroke-linecap:round; stroke-linejoin:round; stroke-width:4; stroke-opacity:1; fill:none" points="266.71,419.111 326.906,478.99 387.102,521.025 447.298,551.552 507.493,574.315 567.689,591.642 627.885,605.048 688.08,615.553 748.276,623.87 808.472,630.509 868.667,635.844 928.863,640.154 989.059,643.651 1049.25,646.498 1109.45,648.823 1169.65,650.727 1229.84,652.288 1290.04,653.571 1350.23,654.626 1410.43,655.495 1470.62,656.211 1530.82,656.802 1591.02,657.289 1651.21,657.692 1711.41,658.024 1771.6,658.299 1831.8,658.526 1891.99,658.714 1952.19,658.869 2012.39,658.998 "/>
<polyline clip-path="url(#clip092)" style="stroke:#c271d2; stroke-linecap:round; stroke-linejoin:round; stroke-width:4; stroke-opacity:1; fill:none" points="266.71,397.862 326.906,464.439 387.102,510.662 447.298,543.941 507.493,568.591 567.689,587.255 627.885,601.635 688.08,612.867 748.276,621.736 808.472,628.801 868.667,634.468 928.863,639.041 989.059,642.746 1049.25,645.761 1109.45,648.221 1169.65,650.233 1229.84,651.883 1290.04,653.238 1350.23,654.352 1410.43,655.269 1470.62,656.025 1530.82,656.648 1591.02,657.162 1651.21,657.587 1711.41,657.938 1771.6,658.227 1831.8,658.467 1891.99,658.665 1952.19,658.829 2012.39,658.964 "/>
<polyline clip-path="url(#clip092)" style="stroke:#ac8d18; stroke-linecap:round; stroke-linejoin:round; stroke-width:4; stroke-opacity:1; fill:none" points="266.71,376.612 326.906,450.063 387.102,500.519 447.298,536.547 507.493,563.061 567.689,583.037 627.885,598.366 688.08,610.301 748.276,619.703 808.472,627.176 868.667,633.162 928.863,637.984 989.059,641.889 1049.25,645.062 1109.45,647.65 1169.65,649.766 1229.84,651.5 1290.04,652.923 1350.23,654.093 1410.43,655.056 1470.62,655.849 1530.82,656.503 1591.02,657.043 1651.21,657.488 1711.41,657.856 1771.6,658.16 1831.8,658.411 1891.99,658.619 1952.19,658.791 2012.39,658.933 "/>
<polyline clip-path="url(#clip092)" style="stroke:#00a9ad; stroke-linecap:round; stroke-linejoin:round; stroke-width:4; stroke-opacity:1; fill:none" points="266.71,355.363 326.906,435.853 387.102,490.584 447.298,529.356 507.493,557.712 567.689,578.973 627.885,595.227 688.08,607.845 748.276,617.76 808.472,625.627 868.667,631.918 928.863,636.98 989.059,641.074 1049.25,644.399 1109.45,647.109 1169.65,649.323 1229.84,651.137 1290.04,652.625 1350.23,653.847 1410.43,654.854 1470.62,655.682 1530.82,656.366 1591.02,656.929 1651.21,657.394 1711.41,657.779 1771.6,658.096 1831.8,658.358 1891.99,658.575 1952.19,658.754 2012.39,658.903 "/>
<polyline clip-path="url(#clip092)" style="stroke:#ed5d92; stroke-linecap:round; stroke-linejoin:round; stroke-width:4; stroke-opacity:1; fill:none" points="266.71,334.113 326.906,421.798 387.102,480.843 447.298,522.352 507.493,552.531 567.689,575.054 627.885,592.21 688.08,605.49 748.276,615.901 808.472,624.147 868.667,630.731 928.863,636.023 989.059,640.299 1049.25,643.768 1109.45,646.594 1169.65,648.902 1229.84,650.792 1290.04,652.341 1350.23,653.614 1410.43,654.662 1470.62,655.524 1530.82,656.235 1591.02,656.822 1651.21,657.306 1711.41,657.705 1771.6,658.035 1831.8,658.308 1891.99,658.534 1952.19,658.72 2012.39,658.874 "/>
<polyline clip-path="url(#clip092)" style="stroke:#c68125; stroke-linecap:round; stroke-linejoin:round; stroke-width:4; stroke-opacity:1; fill:none" points="266.71,312.864 326.906,407.891 387.102,471.285 447.298,515.525 507.493,547.506 567.689,571.267 627.885,589.304 688.08,603.227 748.276,614.119 808.472,622.73 868.667,629.596 928.863,635.109 989.059,639.558 1049.25,643.167 1109.45,646.104 1169.65,648.501 1229.84,650.463 1290.04,652.071 1350.23,653.393 1410.43,654.479 1470.62,655.374 1530.82,656.111 1591.02,656.719 1651.21,657.221 1711.41,657.636 1771.6,657.978 1831.8,658.261 1891.99,658.494 1952.19,658.688 2012.39,658.847 "/>
<polyline clip-path="url(#clip092)" style="stroke:#00a98d; stroke-linecap:round; stroke-linejoin:round; stroke-width:4; stroke-opacity:1; fill:none" points="266.71,291.614 326.906,394.124 387.102,461.898 447.298,508.862 507.493,542.625 567.689,567.604 627.885,586.501 688.08,601.05 748.276,612.407 808.472,621.372 868.667,628.51 928.863,634.234 989.059,638.851 1049.25,642.592 1109.45,645.635 1169.65,648.118 1229.84,650.149 1290.04,651.814 1350.23,653.181 1410.43,654.305 1470.62,655.231 1530.82,655.993 1591.02,656.622 1651.21,657.141 1711.41,657.569 1771.6,657.923 1831.8,658.215 1891.99,658.457 1952.19,658.657 2012.39,658.822 "/>
<polyline clip-path="url(#clip092)" style="stroke:#8e971d; stroke-linecap:round; stroke-linejoin:round; stroke-width:4; stroke-opacity:1; fill:none" points="266.71,270.364 326.906,380.488 387.102,452.673 447.298,502.353 507.493,537.881 567.689,564.056 627.885,583.794 688.08,598.952 748.276,610.761 808.472,620.067 868.667,627.467 928.863,633.395 989.059,638.173 1049.25,642.042 1109.45,645.187 1169.65,647.752 1229.84,649.85 1290.04,651.568 1350.23,652.979 1410.43,654.139 1470.62,655.094 1530.82,655.88 1591.02,656.529 1651.21,657.064 1711.41,657.506 1771.6,657.87 1831.8,658.172 1891.99,658.421 1952.19,658.627 2012.39,658.797 "/>
<polyline clip-path="url(#clip092)" style="stroke:#00a8cb; stroke-linecap:round; stroke-linejoin:round; stroke-width:4; stroke-opacity:1; fill:none" points="266.71,249.115 326.906,366.978 387.102,443.6 447.298,495.99 507.493,533.262 567.689,560.614 627.885,581.176 688.08,596.927 748.276,609.175 808.472,618.811 868.667,626.465 928.863,632.591 989.059,637.523 1049.25,641.514 1109.45,644.758 1169.65,647.401 1229.84,649.563 1290.04,651.333 1350.23,652.786 1410.43,653.98 1470.62,654.963 1530.82,655.772 1591.02,656.44 1651.21,656.99 1711.41,657.445 1771.6,657.82 1831.8,658.13 1891.99,658.387 1952.19,658.599 2012.39,658.774 "/>
<polyline clip-path="url(#clip092)" style="stroke:#9b7fe8; stroke-linecap:round; stroke-linejoin:round; stroke-width:4; stroke-opacity:1; fill:none" points="266.71,227.865 326.906,353.585 387.102,434.671 447.298,489.762 507.493,528.763 567.689,557.273 627.885,578.64 688.08,594.971 748.276,607.645 808.472,617.602 868.667,625.501 928.863,631.817 989.059,636.898 1049.25,641.008 1109.45,644.345 1169.65,647.065 1229.84,649.287 1290.04,651.107 1350.23,652.6 1410.43,653.828 1470.62,654.837 1530.82,655.669 1591.02,656.354 1651.21,656.92 1711.41,657.387 1771.6,657.772 1831.8,658.091 1891.99,658.354 1952.19,658.572 2012.39,658.752 "/>
<polyline clip-path="url(#clip092)" style="stroke:#608cf6; stroke-linecap:round; stroke-linejoin:round; stroke-width:4; stroke-opacity:1; fill:none" points="266.71,206.616 326.906,340.305 387.102,425.878 447.298,483.662 507.493,524.374 567.689,554.024 627.885,576.182 688.08,593.077 748.276,606.166 808.472,616.435 868.667,624.572 928.863,631.071 989.059,636.297 1049.25,640.521 1109.45,643.949 1169.65,646.742 1229.84,649.023 1290.04,650.89 1350.23,652.422 1410.43,653.681 1470.62,654.717 1530.82,655.57 1591.02,656.273 1651.21,656.852 1711.41,657.331 1771.6,657.726 1831.8,658.053 1891.99,658.323 1952.19,658.546 2012.39,658.73 "/>
<polyline clip-path="url(#clip092)" style="stroke:#f05f73; stroke-linecap:round; stroke-linejoin:round; stroke-width:4; stroke-opacity:1; fill:none" points="266.71,185.366 326.906,327.131 387.102,417.213 447.298,477.683 507.493,520.09 567.689,550.863 627.885,573.795 688.08,591.243 748.276,604.737 808.472,615.308 868.667,623.675 928.863,630.353 989.059,635.718 1049.25,640.052 1109.45,643.568 1169.65,646.43 1229.84,648.768 1290.04,650.682 1350.23,652.251 1410.43,653.54 1470.62,654.601 1530.82,655.474 1591.02,656.194 1651.21,656.787 1711.41,657.277 1771.6,657.682 1831.8,658.016 1891.99,658.292 1952.19,658.521 2012.39,658.709 "/>
<polyline clip-path="url(#clip092)" style="stroke:#dd64b5; stroke-linecap:round; stroke-linejoin:round; stroke-width:4; stroke-opacity:1; fill:none" points="266.71,164.117 326.906,314.058 387.102,408.669 447.298,471.817 507.493,515.904 567.689,547.784 627.885,571.477 688.08,589.465 748.276,603.352 808.472,614.217 868.667,622.808 928.863,629.659 989.059,635.159 1049.25,639.599 1109.45,643.2 1169.65,646.131 1229.84,648.523 1290.04,650.481 1350.23,652.086 1410.43,653.405 1470.62,654.489 1530.82,655.382 1591.02,656.118 1651.21,656.725 1711.41,657.226 1771.6,657.639 1831.8,657.981 1891.99,658.263 1952.19,658.497 2012.39,658.689 "/>
<polyline clip-path="url(#clip092)" style="stroke:#6b9e32; stroke-linecap:round; stroke-linejoin:round; stroke-width:4; stroke-opacity:1; fill:none" points="266.71,142.867 326.906,301.08 387.102,400.24 447.298,466.059 507.493,511.81 567.689,544.782 627.885,569.221 688.08,587.738 748.276,602.01 808.472,613.162 868.667,621.97 928.863,628.988 989.059,634.619 1049.25,639.162 1109.45,642.845 1169.65,645.841 1229.84,648.287 1290.04,650.287 1350.23,651.927 1410.43,653.274 1470.62,654.382 1530.82,655.294 1591.02,656.045 1651.21,656.665 1711.41,657.176 1771.6,657.598 1831.8,657.947 1891.99,658.235 1952.19,658.473 2012.39,658.67 "/>
<polyline clip-path="url(#clip092)" style="stroke:#009af9; stroke-linecap:round; stroke-linejoin:round; stroke-width:4; stroke-opacity:1; fill:none" points="266.71,121.618 326.906,288.193 387.102,391.92 447.298,460.402 507.493,507.804 567.689,541.853 627.885,567.025 688.08,586.059 748.276,600.707 808.472,612.138 868.667,621.158 928.863,628.339 989.059,634.096 1049.25,638.74 1109.45,642.502 1169.65,645.562 1229.84,648.058 1290.04,650.1 1350.23,651.774 1410.43,653.148 1470.62,654.278 1530.82,655.208 1591.02,655.975 1651.21,656.607 1711.41,657.128 1771.6,657.559 1831.8,657.914 1891.99,658.208 1952.19,658.451 2012.39,658.652 "/>
<polyline clip-path="url(#clip092)" style="stroke:#e26f46; stroke-linecap:round; stroke-linejoin:round; stroke-width:4; stroke-opacity:1; fill:none" points="266.71,100.368 326.906,275.393 387.102,383.703 447.298,454.842 507.493,503.88 567.689,538.992 627.885,564.885 688.08,584.426 748.276,599.442 808.472,611.145 868.667,620.371 928.863,627.71 989.059,633.591 1049.25,638.331 1109.45,642.17 1169.65,645.291 1229.84,647.837 1290.04,649.919 1350.23,651.625 1410.43,653.026 1470.62,654.178 1530.82,655.126 1591.02,655.906 1651.21,656.55 1711.41,657.082 1771.6,657.52 1831.8,657.883 1891.99,658.182 1952.19,658.429 2012.39,658.634 "/>
<polyline clip-path="url(#clip092)" style="stroke:#3da44d; stroke-linecap:round; stroke-linejoin:round; stroke-width:4; stroke-opacity:1; fill:none" points="266.71,79.1184 326.906,262.674 387.102,375.584 447.298,449.372 507.493,500.034 567.689,536.195 627.885,562.798 688.08,582.836 748.276,598.211 808.472,610.18 868.667,619.607 928.863,627.1 989.059,633.1 1049.25,637.935 1109.45,641.848 1169.65,645.03 1229.84,647.623 1290.04,649.744 1350.23,651.482 1410.43,652.908 1470.62,654.081 1530.82,655.046 1591.02,655.841 1651.21,656.496 1711.41,657.037 1771.6,657.483 1831.8,657.852 1891.99,658.157 1952.19,658.408 2012.39,658.617 "/>
</svg>
