<?xml version="1.0" encoding="utf-8"?>
<svg xmlns="http://www.w3.org/2000/svg" xmlns:xlink="http://www.w3.org/1999/xlink" width="600" height="400" viewBox="0 0 2400 1600">
<defs>
  <clipPath id="clip450">
    <rect x="0" y="0" width="2400" height="1600"/>
  </clipPath>
</defs>
<path clip-path="url(#clip450)" d="M0 1600 L2400 1600 L2400 0 L0 0  Z" fill="#ffffff" fill-rule="evenodd" fill-opacity="1"/>
<defs>
  <clipPath id="clip451">
    <rect x="480" y="0" width="1681" height="1600"/>
  </clipPath>
</defs>
<path clip-path="url(#clip450)" d="M156.598 1486.45 L2352.76 1486.45 L2352.76 47.2441 L156.598 47.2441  Z" fill="#ffffff" fill-rule="evenodd" fill-opacity="1"/>
<defs>
  <clipPath id="clip452">
    <rect x="156" y="47" width="2197" height="1440"/>
  </clipPath>
</defs>
<polyline clip-path="url(#clip452)" style="stroke:#000000; stroke-linecap:round; stroke-linejoin:round; stroke-width:2; stroke-opacity:0.1; fill:none" points="218.754,1486.45 218.754,47.2441 "/>
<polyline clip-path="url(#clip452)" style="stroke:#000000; stroke-linecap:round; stroke-linejoin:round; stroke-width:2; stroke-opacity:0.1; fill:none" points="564.061,1486.45 564.061,47.2441 "/>
<polyline clip-path="url(#clip452)" style="stroke:#000000; stroke-linecap:round; stroke-linejoin:round; stroke-width:2; stroke-opacity:0.1; fill:none" points="909.369,1486.45 909.369,47.2441 "/>
<polyline clip-path="url(#clip452)" style="stroke:#000000; stroke-linecap:round; stroke-linejoin:round; stroke-width:2; stroke-opacity:0.1; fill:none" points="1254.68,1486.45 1254.68,47.2441 "/>
<polyline clip-path="url(#clip452)" style="stroke:#000000; stroke-linecap:round; stroke-linejoin:round; stroke-width:2; stroke-opacity:0.1; fill:none" points="1599.98,1486.45 1599.98,47.2441 "/>
<polyline clip-path="url(#clip452)" style="stroke:#000000; stroke-linecap:round; stroke-linejoin:round; stroke-width:2; stroke-opacity:0.1; fill:none" points="1945.29,1486.45 1945.29,47.2441 "/>
<polyline clip-path="url(#clip452)" style="stroke:#000000; stroke-linecap:round; stroke-linejoin:round; stroke-width:2; stroke-opacity:0.1; fill:none" points="2290.6,1486.45 2290.6,47.2441 "/>
<polyline clip-path="url(#clip450)" style="stroke:#000000; stroke-linecap:round; stroke-linejoin:round; stroke-width:4; stroke-opacity:1; fill:none" points="156.598,1486.45 2352.76,1486.45 "/>
<polyline clip-path="url(#clip450)" style="stroke:#000000; stroke-linecap:round; stroke-linejoin:round; stroke-width:4; stroke-opacity:1; fill:none" points="218.754,1486.45 218.754,1467.55 "/>
<polyline clip-path="url(#clip450)" style="stroke:#000000; stroke-linecap:round; stroke-linejoin:round; stroke-width:4; stroke-opacity:1; fill:none" points="564.061,1486.45 564.061,1467.55 "/>
<polyline clip-path="url(#clip450)" style="stroke:#000000; stroke-linecap:round; stroke-linejoin:round; stroke-width:4; stroke-opacity:1; fill:none" points="909.369,1486.45 909.369,1467.55 "/>
<polyline clip-path="url(#clip450)" style="stroke:#000000; stroke-linecap:round; stroke-linejoin:round; stroke-width:4; stroke-opacity:1; fill:none" points="1254.68,1486.45 1254.68,1467.55 "/>
<polyline clip-path="url(#clip450)" style="stroke:#000000; stroke-linecap:round; stroke-linejoin:round; stroke-width:4; stroke-opacity:1; fill:none" points="1599.98,1486.45 1599.98,1467.55 "/>
<polyline clip-path="url(#clip450)" style="stroke:#000000; stroke-linecap:round; stroke-linejoin:round; stroke-width:4; stroke-opacity:1; fill:none" points="1945.29,1486.45 1945.29,1467.55 "/>
<polyline clip-path="url(#clip450)" style="stroke:#000000; stroke-linecap:round; stroke-linejoin:round; stroke-width:4; stroke-opacity:1; fill:none" points="2290.6,1486.45 2290.6,1467.55 "/>
<path clip-path="url(#clip450)" d="M188.221 1532.02 L217.897 1532.02 L217.897 1535.95 L188.221 1535.95 L188.221 1532.02 Z" fill="#000000" fill-rule="nonzero" fill-opacity="1" /><path clip-path="url(#clip450)" d="M242.156 1530.21 Q245.513 1530.93 247.388 1533.2 Q249.286 1535.47 249.286 1538.8 Q249.286 1543.92 245.767 1546.72 Q242.249 1549.52 235.767 1549.52 Q233.592 1549.52 231.277 1549.08 Q228.985 1548.66 226.531 1547.81 L226.531 1543.29 Q228.476 1544.43 230.791 1545.01 Q233.105 1545.58 235.629 1545.58 Q240.027 1545.58 242.318 1543.85 Q244.633 1542.11 244.633 1538.8 Q244.633 1535.75 242.48 1534.03 Q240.351 1532.3 236.531 1532.3 L232.504 1532.3 L232.504 1528.45 L236.717 1528.45 Q240.166 1528.45 241.994 1527.09 Q243.823 1525.7 243.823 1523.11 Q243.823 1520.45 241.925 1519.03 Q240.05 1517.6 236.531 1517.6 Q234.61 1517.6 232.411 1518.01 Q230.212 1518.43 227.573 1519.31 L227.573 1515.14 Q230.235 1514.4 232.55 1514.03 Q234.888 1513.66 236.948 1513.66 Q242.272 1513.66 245.374 1516.09 Q248.476 1518.5 248.476 1522.62 Q248.476 1525.49 246.832 1527.48 Q245.189 1529.45 242.156 1530.21 Z" fill="#000000" fill-rule="nonzero" fill-opacity="1" /><path clip-path="url(#clip450)" d="M534.004 1532.02 L563.68 1532.02 L563.68 1535.95 L534.004 1535.95 L534.004 1532.02 Z" fill="#000000" fill-rule="nonzero" fill-opacity="1" /><path clip-path="url(#clip450)" d="M577.8 1544.91 L594.119 1544.91 L594.119 1548.85 L572.175 1548.85 L572.175 1544.91 Q574.837 1542.16 579.42 1537.53 Q584.027 1532.88 585.207 1531.53 Q587.453 1529.01 588.332 1527.27 Q589.235 1525.51 589.235 1523.82 Q589.235 1521.07 587.29 1519.33 Q585.369 1517.6 582.267 1517.6 Q580.068 1517.6 577.615 1518.36 Q575.184 1519.13 572.406 1520.68 L572.406 1515.95 Q575.23 1514.82 577.684 1514.24 Q580.138 1513.66 582.175 1513.66 Q587.545 1513.66 590.74 1516.35 Q593.934 1519.03 593.934 1523.52 Q593.934 1525.65 593.124 1527.57 Q592.337 1529.47 590.23 1532.07 Q589.652 1532.74 586.55 1535.95 Q583.448 1539.15 577.8 1544.91 Z" fill="#000000" fill-rule="nonzero" fill-opacity="1" /><path clip-path="url(#clip450)" d="M879.126 1532.02 L908.802 1532.02 L908.802 1535.95 L879.126 1535.95 L879.126 1532.02 Z" fill="#000000" fill-rule="nonzero" fill-opacity="1" /><path clip-path="url(#clip450)" d="M919.705 1544.91 L927.344 1544.91 L927.344 1518.55 L919.034 1520.21 L919.034 1515.95 L927.297 1514.29 L931.973 1514.29 L931.973 1544.91 L939.612 1544.91 L939.612 1548.85 L919.705 1548.85 L919.705 1544.91 Z" fill="#000000" fill-rule="nonzero" fill-opacity="1" /><path clip-path="url(#clip450)" d="M1254.68 1517.37 Q1251.07 1517.37 1249.24 1520.93 Q1247.43 1524.47 1247.43 1531.6 Q1247.43 1538.71 1249.24 1542.27 Q1251.07 1545.82 1254.68 1545.82 Q1258.31 1545.82 1260.12 1542.27 Q1261.95 1538.71 1261.95 1531.6 Q1261.95 1524.47 1260.12 1520.93 Q1258.31 1517.37 1254.68 1517.37 M1254.68 1513.66 Q1260.49 1513.66 1263.54 1518.27 Q1266.62 1522.85 1266.62 1531.6 Q1266.62 1540.33 1263.54 1544.94 Q1260.49 1549.52 1254.68 1549.52 Q1248.87 1549.52 1245.79 1544.94 Q1242.73 1540.33 1242.73 1531.6 Q1242.73 1522.85 1245.79 1518.27 Q1248.87 1513.66 1254.68 1513.66 Z" fill="#000000" fill-rule="nonzero" fill-opacity="1" /><path clip-path="url(#clip450)" d="M1590.37 1544.91 L1598.01 1544.91 L1598.01 1518.55 L1589.7 1520.21 L1589.7 1515.95 L1597.96 1514.29 L1602.64 1514.29 L1602.64 1544.91 L1610.27 1544.91 L1610.27 1548.85 L1590.37 1548.85 L1590.37 1544.91 Z" fill="#000000" fill-rule="nonzero" fill-opacity="1" /><path clip-path="url(#clip450)" d="M1939.95 1544.91 L1956.26 1544.91 L1956.26 1548.85 L1934.32 1548.85 L1934.32 1544.91 Q1936.98 1542.16 1941.57 1537.53 Q1946.17 1532.88 1947.35 1531.53 Q1949.6 1529.01 1950.48 1527.27 Q1951.38 1525.51 1951.38 1523.82 Q1951.38 1521.07 1949.44 1519.33 Q1947.51 1517.6 1944.41 1517.6 Q1942.21 1517.6 1939.76 1518.36 Q1937.33 1519.13 1934.55 1520.68 L1934.55 1515.95 Q1937.38 1514.82 1939.83 1514.24 Q1942.28 1513.66 1944.32 1513.66 Q1949.69 1513.66 1952.89 1516.35 Q1956.08 1519.03 1956.08 1523.52 Q1956.08 1525.65 1955.27 1527.57 Q1954.48 1529.47 1952.38 1532.07 Q1951.8 1532.74 1948.7 1535.95 Q1945.59 1539.15 1939.95 1544.91 Z" fill="#000000" fill-rule="nonzero" fill-opacity="1" /><path clip-path="url(#clip450)" d="M2294.85 1530.21 Q2298.2 1530.93 2300.08 1533.2 Q2301.98 1535.47 2301.98 1538.8 Q2301.98 1543.92 2298.46 1546.72 Q2294.94 1549.52 2288.46 1549.52 Q2286.28 1549.52 2283.97 1549.08 Q2281.68 1548.66 2279.22 1547.81 L2279.22 1543.29 Q2281.17 1544.43 2283.48 1545.01 Q2285.8 1545.58 2288.32 1545.58 Q2292.72 1545.58 2295.01 1543.85 Q2297.33 1542.11 2297.33 1538.8 Q2297.33 1535.75 2295.17 1534.03 Q2293.04 1532.3 2289.22 1532.3 L2285.2 1532.3 L2285.2 1528.45 L2289.41 1528.45 Q2292.86 1528.45 2294.69 1527.09 Q2296.51 1525.7 2296.51 1523.11 Q2296.51 1520.45 2294.62 1519.03 Q2292.74 1517.6 2289.22 1517.6 Q2287.3 1517.6 2285.1 1518.01 Q2282.9 1518.43 2280.26 1519.31 L2280.26 1515.14 Q2282.93 1514.4 2285.24 1514.03 Q2287.58 1513.66 2289.64 1513.66 Q2294.96 1513.66 2298.07 1516.09 Q2301.17 1518.5 2301.17 1522.62 Q2301.17 1525.49 2299.52 1527.48 Q2297.88 1529.45 2294.85 1530.21 Z" fill="#000000" fill-rule="nonzero" fill-opacity="1" /><polyline clip-path="url(#clip452)" style="stroke:#000000; stroke-linecap:round; stroke-linejoin:round; stroke-width:2; stroke-opacity:0.1; fill:none" points="156.598,1445.72 2352.76,1445.72 "/>
<polyline clip-path="url(#clip452)" style="stroke:#000000; stroke-linecap:round; stroke-linejoin:round; stroke-width:2; stroke-opacity:0.1; fill:none" points="156.598,1105.38 2352.76,1105.38 "/>
<polyline clip-path="url(#clip452)" style="stroke:#000000; stroke-linecap:round; stroke-linejoin:round; stroke-width:2; stroke-opacity:0.1; fill:none" points="156.598,765.046 2352.76,765.046 "/>
<polyline clip-path="url(#clip452)" style="stroke:#000000; stroke-linecap:round; stroke-linejoin:round; stroke-width:2; stroke-opacity:0.1; fill:none" points="156.598,424.711 2352.76,424.711 "/>
<polyline clip-path="url(#clip452)" style="stroke:#000000; stroke-linecap:round; stroke-linejoin:round; stroke-width:2; stroke-opacity:0.1; fill:none" points="156.598,84.3765 2352.76,84.3765 "/>
<polyline clip-path="url(#clip450)" style="stroke:#000000; stroke-linecap:round; stroke-linejoin:round; stroke-width:4; stroke-opacity:1; fill:none" points="156.598,1486.45 156.598,47.2441 "/>
<polyline clip-path="url(#clip450)" style="stroke:#000000; stroke-linecap:round; stroke-linejoin:round; stroke-width:4; stroke-opacity:1; fill:none" points="156.598,1445.72 175.496,1445.72 "/>
<polyline clip-path="url(#clip450)" style="stroke:#000000; stroke-linecap:round; stroke-linejoin:round; stroke-width:4; stroke-opacity:1; fill:none" points="156.598,1105.38 175.496,1105.38 "/>
<polyline clip-path="url(#clip450)" style="stroke:#000000; stroke-linecap:round; stroke-linejoin:round; stroke-width:4; stroke-opacity:1; fill:none" points="156.598,765.046 175.496,765.046 "/>
<polyline clip-path="url(#clip450)" style="stroke:#000000; stroke-linecap:round; stroke-linejoin:round; stroke-width:4; stroke-opacity:1; fill:none" points="156.598,424.711 175.496,424.711 "/>
<polyline clip-path="url(#clip450)" style="stroke:#000000; stroke-linecap:round; stroke-linejoin:round; stroke-width:4; stroke-opacity:1; fill:none" points="156.598,84.3765 175.496,84.3765 "/>
<path clip-path="url(#clip450)" d="M63.4226 1431.51 Q59.8115 1431.51 57.9828 1435.08 Q56.1773 1438.62 56.1773 1445.75 Q56.1773 1452.86 57.9828 1456.42 Q59.8115 1459.96 63.4226 1459.96 Q67.0569 1459.96 68.8624 1456.42 Q70.6911 1452.86 70.6911 1445.75 Q70.6911 1438.62 68.8624 1435.08 Q67.0569 1431.51 63.4226 1431.51 M63.4226 1427.81 Q69.2328 1427.81 72.2883 1432.42 Q75.367 1437 75.367 1445.75 Q75.367 1454.48 72.2883 1459.08 Q69.2328 1463.67 63.4226 1463.67 Q57.6125 1463.67 54.5338 1459.08 Q51.4782 1454.48 51.4782 1445.75 Q51.4782 1437 54.5338 1432.42 Q57.6125 1427.81 63.4226 1427.81 Z" fill="#000000" fill-rule="nonzero" fill-opacity="1" /><path clip-path="url(#clip450)" d="M83.5845 1457.12 L88.4688 1457.12 L88.4688 1463 L83.5845 1463 L83.5845 1457.12 Z" fill="#000000" fill-rule="nonzero" fill-opacity="1" /><path clip-path="url(#clip450)" d="M108.654 1431.51 Q105.043 1431.51 103.214 1435.08 Q101.409 1438.62 101.409 1445.75 Q101.409 1452.86 103.214 1456.42 Q105.043 1459.96 108.654 1459.96 Q112.288 1459.96 114.094 1456.42 Q115.922 1452.86 115.922 1445.75 Q115.922 1438.62 114.094 1435.08 Q112.288 1431.51 108.654 1431.51 M108.654 1427.81 Q114.464 1427.81 117.52 1432.42 Q120.598 1437 120.598 1445.75 Q120.598 1454.48 117.52 1459.08 Q114.464 1463.67 108.654 1463.67 Q102.844 1463.67 99.765 1459.08 Q96.7095 1454.48 96.7095 1445.75 Q96.7095 1437 99.765 1432.42 Q102.844 1427.81 108.654 1427.81 Z" fill="#000000" fill-rule="nonzero" fill-opacity="1" /><path clip-path="url(#clip450)" d="M64.6495 1091.18 Q61.0384 1091.18 59.2097 1094.74 Q57.4041 1098.29 57.4041 1105.42 Q57.4041 1112.52 59.2097 1116.09 Q61.0384 1119.63 64.6495 1119.63 Q68.2837 1119.63 70.0892 1116.09 Q71.9179 1112.52 71.9179 1105.42 Q71.9179 1098.29 70.0892 1094.74 Q68.2837 1091.18 64.6495 1091.18 M64.6495 1087.48 Q70.4596 1087.48 73.5152 1092.08 Q76.5938 1096.67 76.5938 1105.42 Q76.5938 1114.14 73.5152 1118.75 Q70.4596 1123.33 64.6495 1123.33 Q58.8393 1123.33 55.7606 1118.75 Q52.7051 1114.14 52.7051 1105.42 Q52.7051 1096.67 55.7606 1092.08 Q58.8393 1087.48 64.6495 1087.48 Z" fill="#000000" fill-rule="nonzero" fill-opacity="1" /><path clip-path="url(#clip450)" d="M84.8114 1116.78 L89.6956 1116.78 L89.6956 1122.66 L84.8114 1122.66 L84.8114 1116.78 Z" fill="#000000" fill-rule="nonzero" fill-opacity="1" /><path clip-path="url(#clip450)" d="M100.691 1118.73 L108.33 1118.73 L108.33 1092.36 L100.02 1094.03 L100.02 1089.77 L108.283 1088.1 L112.959 1088.1 L112.959 1118.73 L120.598 1118.73 L120.598 1122.66 L100.691 1122.66 L100.691 1118.73 Z" fill="#000000" fill-rule="nonzero" fill-opacity="1" /><path clip-path="url(#clip450)" d="M65.0198 750.845 Q61.4087 750.845 59.58 754.41 Q57.7745 757.951 57.7745 765.081 Q57.7745 772.187 59.58 775.752 Q61.4087 779.294 65.0198 779.294 Q68.6541 779.294 70.4596 775.752 Q72.2883 772.187 72.2883 765.081 Q72.2883 757.951 70.4596 754.41 Q68.6541 750.845 65.0198 750.845 M65.0198 747.141 Q70.83 747.141 73.8855 751.748 Q76.9642 756.331 76.9642 765.081 Q76.9642 773.808 73.8855 778.414 Q70.83 782.997 65.0198 782.997 Q59.2097 782.997 56.131 778.414 Q53.0754 773.808 53.0754 765.081 Q53.0754 756.331 56.131 751.748 Q59.2097 747.141 65.0198 747.141 Z" fill="#000000" fill-rule="nonzero" fill-opacity="1" /><path clip-path="url(#clip450)" d="M85.1818 776.446 L90.066 776.446 L90.066 782.326 L85.1818 782.326 L85.1818 776.446 Z" fill="#000000" fill-rule="nonzero" fill-opacity="1" /><path clip-path="url(#clip450)" d="M104.279 778.391 L120.598 778.391 L120.598 782.326 L98.6539 782.326 L98.6539 778.391 Q101.316 775.636 105.899 771.007 Q110.506 766.354 111.686 765.011 Q113.932 762.488 114.811 760.752 Q115.714 758.993 115.714 757.303 Q115.714 754.548 113.77 752.812 Q111.848 751.076 108.746 751.076 Q106.547 751.076 104.094 751.84 Q101.663 752.604 98.8854 754.155 L98.8854 749.433 Q101.709 748.298 104.163 747.72 Q106.617 747.141 108.654 747.141 Q114.024 747.141 117.219 749.826 Q120.413 752.511 120.413 757.002 Q120.413 759.132 119.603 761.053 Q118.816 762.951 116.709 765.544 Q116.131 766.215 113.029 769.433 Q109.927 772.627 104.279 778.391 Z" fill="#000000" fill-rule="nonzero" fill-opacity="1" /><path clip-path="url(#clip450)" d="M64.0708 410.51 Q60.4597 410.51 58.631 414.075 Q56.8254 417.616 56.8254 424.746 Q56.8254 431.852 58.631 435.417 Q60.4597 438.959 64.0708 438.959 Q67.705 438.959 69.5105 435.417 Q71.3392 431.852 71.3392 424.746 Q71.3392 417.616 69.5105 414.075 Q67.705 410.51 64.0708 410.51 M64.0708 406.806 Q69.8809 406.806 72.9365 411.413 Q76.0151 415.996 76.0151 424.746 Q76.0151 433.473 72.9365 438.079 Q69.8809 442.663 64.0708 442.663 Q58.2606 442.663 55.1819 438.079 Q52.1264 433.473 52.1264 424.746 Q52.1264 415.996 55.1819 411.413 Q58.2606 406.806 64.0708 406.806 Z" fill="#000000" fill-rule="nonzero" fill-opacity="1" /><path clip-path="url(#clip450)" d="M84.2327 436.112 L89.1169 436.112 L89.1169 441.991 L84.2327 441.991 L84.2327 436.112 Z" fill="#000000" fill-rule="nonzero" fill-opacity="1" /><path clip-path="url(#clip450)" d="M113.469 423.357 Q116.825 424.075 118.7 426.343 Q120.598 428.612 120.598 431.945 Q120.598 437.061 117.08 439.862 Q113.561 442.663 107.08 442.663 Q104.904 442.663 102.589 442.223 Q100.297 441.806 97.8437 440.95 L97.8437 436.436 Q99.7882 437.57 102.103 438.149 Q104.418 438.727 106.941 438.727 Q111.339 438.727 113.631 436.991 Q115.945 435.255 115.945 431.945 Q115.945 428.89 113.793 427.177 Q111.663 425.44 107.844 425.44 L103.816 425.44 L103.816 421.598 L108.029 421.598 Q111.478 421.598 113.307 420.232 Q115.135 418.843 115.135 416.251 Q115.135 413.589 113.237 412.177 Q111.362 410.741 107.844 410.741 Q105.922 410.741 103.723 411.158 Q101.524 411.575 98.8854 412.454 L98.8854 408.288 Q101.547 407.547 103.862 407.177 Q106.2 406.806 108.26 406.806 Q113.584 406.806 116.686 409.237 Q119.788 411.644 119.788 415.765 Q119.788 418.635 118.145 420.626 Q116.501 422.593 113.469 423.357 Z" fill="#000000" fill-rule="nonzero" fill-opacity="1" /><path clip-path="url(#clip450)" d="M62.9365 70.1752 Q59.3254 70.1752 57.4967 73.74 Q55.6912 77.2816 55.6912 84.4112 Q55.6912 91.5177 57.4967 95.0825 Q59.3254 98.6241 62.9365 98.6241 Q66.5707 98.6241 68.3763 95.0825 Q70.205 91.5177 70.205 84.4112 Q70.205 77.2816 68.3763 73.74 Q66.5707 70.1752 62.9365 70.1752 M62.9365 66.4715 Q68.7467 66.4715 71.8022 71.0779 Q74.8809 75.6613 74.8809 84.4112 Q74.8809 93.138 71.8022 97.7445 Q68.7467 102.328 62.9365 102.328 Q57.1264 102.328 54.0477 97.7445 Q50.9921 93.138 50.9921 84.4112 Q50.9921 75.6613 54.0477 71.0779 Q57.1264 66.4715 62.9365 66.4715 Z" fill="#000000" fill-rule="nonzero" fill-opacity="1" /><path clip-path="url(#clip450)" d="M83.0984 95.7769 L87.9827 95.7769 L87.9827 101.656 L83.0984 101.656 L83.0984 95.7769 Z" fill="#000000" fill-rule="nonzero" fill-opacity="1" /><path clip-path="url(#clip450)" d="M111.015 71.1705 L99.2095 89.6195 L111.015 89.6195 L111.015 71.1705 M109.788 67.0965 L115.668 67.0965 L115.668 89.6195 L120.598 89.6195 L120.598 93.5084 L115.668 93.5084 L115.668 101.656 L111.015 101.656 L111.015 93.5084 L95.4132 93.5084 L95.4132 88.9945 L109.788 67.0965 Z" fill="#000000" fill-rule="nonzero" fill-opacity="1" /><path clip-path="url(#clip452)" d="M218.754 1430.63 L222.207 1430.17 L225.66 1429.7 L229.113 1429.22 L232.566 1428.72 L236.019 1428.21 L239.472 1427.69 L242.925 1427.15 L246.378 1426.6 L249.831 1426.04 L253.284 1425.46 L256.737 1424.86 L260.191 1424.25 L263.644 1423.63 L267.097 1422.98 L270.55 1422.33 L274.003 1421.65 L277.456 1420.96 L280.909 1420.25 L284.362 1419.52 L287.815 1418.78 L291.268 1418.01 L294.721 1417.23 L298.174 1416.43 L301.628 1415.61 L305.081 1414.77 L308.534 1413.91 L311.987 1413.02 L315.44 1412.12 L318.893 1411.2 L322.346 1410.25 L325.799 1409.28 L329.252 1408.29 L332.705 1407.27 L336.158 1406.24 L339.611 1405.17 L343.064 1404.09 L346.518 1402.98 L349.971 1401.84 L353.424 1400.68 L356.877 1399.49 L360.33 1398.27 L363.783 1397.03 L367.236 1395.76 L370.689 1394.46 L374.142 1393.14 L377.595 1391.78 L381.048 1390.4 L384.501 1388.98 L387.954 1387.54 L391.408 1386.06 L394.861 1384.55 L398.314 1383.01 L401.767 1381.44 L405.22 1379.84 L408.673 1378.2 L412.126 1376.53 L415.579 1374.83 L419.032 1373.09 L422.485 1371.31 L425.938 1369.5 L429.391 1367.65 L432.844 1365.77 L436.298 1363.85 L439.751 1361.89 L443.204 1359.89 L446.657 1357.85 L450.11 1355.78 L453.563 1353.66 L457.016 1351.51 L460.469 1349.31 L463.922 1347.07 L467.375 1344.79 L470.828 1342.47 L474.281 1340.1 L477.734 1337.69 L481.188 1335.24 L484.641 1332.75 L488.094 1330.2 L491.547 1327.62 L495 1324.98 L498.453 1322.3 L501.906 1319.58 L505.359 1316.8 L508.812 1313.98 L512.265 1311.11 L515.718 1308.19 L519.171 1305.23 L522.625 1302.21 L526.078 1299.14 L529.531 1296.02 L532.984 1292.86 L536.437 1289.63 L539.89 1286.36 L543.343 1283.04 L546.796 1279.66 L550.249 1276.23 L553.702 1272.74 L557.155 1269.21 L560.608 1265.61 L564.061 1261.97 L567.515 1258.26 L570.968 1254.5 L574.421 1250.69 L577.874 1246.82 L581.327 1242.89 L584.78 1238.91 L588.233 1234.87 L591.686 1230.77 L595.139 1226.62 L598.592 1222.4 L602.045 1218.13 L605.498 1213.8 L608.951 1209.41 L612.405 1204.96 L615.858 1200.45 L619.311 1195.89 L622.764 1191.26 L626.217 1186.57 L629.67 1181.83 L633.123 1177.02 L636.576 1172.15 L640.029 1167.23 L643.482 1162.24 L646.935 1157.19 L650.388 1152.08 L653.841 1146.92 L657.295 1141.69 L660.748 1136.4 L664.201 1131.05 L667.654 1125.63 L671.107 1120.16 L674.56 1114.63 L678.013 1109.04 L681.466 1103.39 L684.919 1097.67 L688.372 1091.9 L691.825 1086.07 L695.278 1080.18 L698.731 1074.22 L702.185 1068.21 L705.638 1062.14 L709.091 1056.02 L712.544 1049.83 L715.997 1043.59 L719.45 1037.28 L722.903 1030.92 L726.356 1024.51 L729.809 1018.04 L733.262 1011.51 L736.715 1004.92 L740.168 998.283 L743.622 991.589 L747.075 984.841 L750.528 978.039 L753.981 971.185 L757.434 964.278 L760.887 957.32 L764.34 950.31 L767.793 943.25 L771.246 936.141 L774.699 928.983 L778.152 921.776 L781.605 914.522 L785.058 907.222 L788.512 899.875 L791.965 892.484 L795.418 885.049 L798.871 877.571 L802.324 870.05 L805.777 862.489 L809.23 854.887 L812.683 847.246 L816.136 839.566 L819.589 831.85 L823.042 824.097 L826.495 816.31 L829.948 808.488 L833.402 800.634 L836.855 792.749 L840.308 784.833 L843.761 776.888 L847.214 768.915 L850.667 760.916 L854.12 752.891 L857.573 744.843 L861.026 736.772 L864.479 728.679 L867.932 720.567 L871.385 712.437 L874.838 704.289 L878.292 696.126 L881.745 687.948 L885.198 679.758 L888.651 671.557 L892.104 663.347 L895.557 655.128 L899.01 646.903 L902.463 638.673 L905.916 630.44 L909.369 622.205 L912.822 613.97 L916.275 605.737 L919.728 597.507 L923.182 589.282 L926.635 581.064 L930.088 572.855 L933.541 564.655 L936.994 556.467 L940.447 548.294 L943.9 540.135 L947.353 531.994 L950.806 523.871 L954.259 515.77 L957.712 507.691 L961.165 499.636 L964.619 491.608 L968.072 483.608 L971.525 475.638 L974.978 467.699 L978.431 459.795 L981.884 451.925 L985.337 444.093 L988.79 436.301 L992.243 428.549 L995.696 420.84 L999.149 413.176 L1002.6 405.559 L1006.06 397.991 L1009.51 390.473 L1012.96 383.007 L1016.41 375.595 L1019.87 368.24 L1023.32 360.942 L1026.77 353.705 L1030.23 346.528 L1033.68 339.416 L1037.13 332.368 L1040.59 325.388 L1044.04 318.477 L1047.49 311.636 L1050.95 304.869 L1054.4 298.175 L1057.85 291.558 L1061.3 285.018 L1064.76 278.558 L1068.21 272.18 L1071.66 265.885 L1075.12 259.674 L1078.57 253.551 L1082.02 247.515 L1085.48 241.569 L1088.93 235.715 L1092.38 229.954 L1095.84 224.287 L1099.29 218.717 L1102.74 213.245 L1106.19 207.872 L1109.65 202.6 L1113.1 197.43 L1116.55 192.364 L1120.01 187.404 L1123.46 182.55 L1126.91 177.804 L1130.37 173.168 L1133.82 168.642 L1137.27 164.229 L1140.73 159.929 L1144.18 155.743 L1147.63 151.673 L1151.08 147.72 L1154.54 143.885 L1157.99 140.17 L1161.44 136.575 L1164.9 133.101 L1168.35 129.75 L1171.8 126.521 L1175.26 123.418 L1178.71 120.439 L1182.16 117.587 L1185.62 114.861 L1189.07 112.264 L1192.52 109.794 L1195.97 107.455 L1199.43 105.245 L1202.88 103.165 L1206.33 101.217 L1209.79 99.4008 L1213.24 97.7169 L1216.69 96.1658 L1220.15 94.748 L1223.6 93.464 L1227.05 92.3141 L1230.51 91.2987 L1233.96 90.418 L1237.41 89.6724 L1240.86 89.062 L1244.32 88.5871 L1247.77 88.2478 L1251.22 88.0442 L1254.68 87.9763 L1258.13 88.0442 L1261.58 88.2478 L1265.04 88.5871 L1268.49 89.062 L1271.94 89.6724 L1275.4 90.418 L1278.85 91.2987 L1282.3 92.3141 L1285.75 93.464 L1289.21 94.748 L1292.66 96.1658 L1296.11 97.7169 L1299.57 99.4008 L1303.02 101.217 L1306.47 103.165 L1309.93 105.245 L1313.38 107.455 L1316.83 109.794 L1320.29 112.264 L1323.74 114.861 L1327.19 117.587 L1330.64 120.439 L1334.1 123.418 L1337.55 126.521 L1341 129.75 L1344.46 133.101 L1347.91 136.575 L1351.36 140.17 L1354.82 143.885 L1358.27 147.72 L1361.72 151.673 L1365.18 155.743 L1368.63 159.929 L1372.08 164.229 L1375.53 168.642 L1378.99 173.168 L1382.44 177.804 L1385.89 182.55 L1389.35 187.404 L1392.8 192.364 L1396.25 197.43 L1399.71 202.6 L1403.16 207.872 L1406.61 213.245 L1410.07 218.717 L1413.52 224.287 L1416.97 229.954 L1420.42 235.715 L1423.88 241.569 L1427.33 247.515 L1430.78 253.551 L1434.24 259.674 L1437.69 265.885 L1441.14 272.18 L1444.6 278.558 L1448.05 285.018 L1451.5 291.558 L1454.96 298.175 L1458.41 304.869 L1461.86 311.636 L1465.31 318.477 L1468.77 325.388 L1472.22 332.368 L1475.67 339.416 L1479.13 346.528 L1482.58 353.705 L1486.03 360.942 L1489.49 368.24 L1492.94 375.595 L1496.39 383.007 L1499.85 390.473 L1503.3 397.991 L1506.75 405.559 L1510.2 413.176 L1513.66 420.84 L1517.11 428.549 L1520.56 436.301 L1524.02 444.093 L1527.47 451.925 L1530.92 459.795 L1534.38 467.699 L1537.83 475.638 L1541.28 483.608 L1544.74 491.608 L1548.19 499.636 L1551.64 507.691 L1555.09 515.77 L1558.55 523.871 L1562 531.994 L1565.45 540.135 L1568.91 548.294 L1572.36 556.467 L1575.81 564.655 L1579.27 572.855 L1582.72 581.064 L1586.17 589.282 L1589.63 597.507 L1593.08 605.737 L1596.53 613.97 L1599.98 622.205 L1603.44 630.44 L1606.89 638.673 L1610.34 646.903 L1613.8 655.128 L1617.25 663.347 L1620.7 671.557 L1624.16 679.758 L1627.61 687.948 L1631.06 696.126 L1634.52 704.289 L1637.97 712.437 L1641.42 720.567 L1644.87 728.679 L1648.33 736.772 L1651.78 744.843 L1655.23 752.891 L1658.69 760.916 L1662.14 768.915 L1665.59 776.888 L1669.05 784.833 L1672.5 792.749 L1675.95 800.634 L1679.41 808.488 L1682.86 816.31 L1686.31 824.097 L1689.76 831.85 L1693.22 839.566 L1696.67 847.246 L1700.12 854.887 L1703.58 862.489 L1707.03 870.05 L1710.48 877.571 L1713.94 885.049 L1717.39 892.484 L1720.84 899.875 L1724.3 907.222 L1727.75 914.522 L1731.2 921.776 L1734.65 928.983 L1738.11 936.141 L1741.56 943.25 L1745.01 950.31 L1748.47 957.32 L1751.92 964.278 L1755.37 971.185 L1758.83 978.039 L1762.28 984.841 L1765.73 991.589 L1769.19 998.283 L1772.64 1004.92 L1776.09 1011.51 L1779.54 1018.04 L1783 1024.51 L1786.45 1030.92 L1789.9 1037.28 L1793.36 1043.59 L1796.81 1049.83 L1800.26 1056.02 L1803.72 1062.14 L1807.17 1068.21 L1810.62 1074.22 L1814.08 1080.18 L1817.53 1086.07 L1820.98 1091.9 L1824.43 1097.67 L1827.89 1103.39 L1831.34 1109.04 L1834.79 1114.63 L1838.25 1120.16 L1841.7 1125.63 L1845.15 1131.05 L1848.61 1136.4 L1852.06 1141.69 L1855.51 1146.92 L1858.97 1152.08 L1862.42 1157.19 L1865.87 1162.24 L1869.32 1167.23 L1872.78 1172.15 L1876.23 1177.02 L1879.68 1181.83 L1883.14 1186.57 L1886.59 1191.26 L1890.04 1195.89 L1893.5 1200.45 L1896.95 1204.96 L1900.4 1209.41 L1903.86 1213.8 L1907.31 1218.13 L1910.76 1222.4 L1914.21 1226.62 L1917.67 1230.77 L1921.12 1234.87 L1924.57 1238.91 L1928.03 1242.89 L1931.48 1246.82 L1934.93 1250.69 L1938.39 1254.5 L1941.84 1258.26 L1945.29 1261.97 L1948.75 1265.61 L1952.2 1269.21 L1955.65 1272.74 L1959.11 1276.23 L1962.56 1279.66 L1966.01 1283.04 L1969.46 1286.36 L1972.92 1289.63 L1976.37 1292.86 L1979.82 1296.02 L1983.28 1299.14 L1986.73 1302.21 L1990.18 1305.23 L1993.64 1308.19 L1997.09 1311.11 L2000.54 1313.98 L2004 1316.8 L2007.45 1319.58 L2010.9 1322.3 L2014.35 1324.98 L2017.81 1327.62 L2021.26 1330.2 L2024.71 1332.75 L2028.17 1335.24 L2031.62 1337.69 L2035.07 1340.1 L2038.53 1342.47 L2041.98 1344.79 L2045.43 1347.07 L2048.89 1349.31 L2052.34 1351.51 L2055.79 1353.66 L2059.24 1355.78 L2062.7 1357.85 L2066.15 1359.89 L2069.6 1361.89 L2073.06 1363.85 L2076.51 1365.77 L2079.96 1367.65 L2083.42 1369.5 L2086.87 1371.31 L2090.32 1373.09 L2093.78 1374.83 L2097.23 1376.53 L2100.68 1378.2 L2104.13 1379.84 L2107.59 1381.44 L2111.04 1383.01 L2114.49 1384.55 L2117.95 1386.06 L2121.4 1387.54 L2124.85 1388.98 L2128.31 1390.4 L2131.76 1391.78 L2135.21 1393.14 L2138.67 1394.46 L2142.12 1395.76 L2145.57 1397.03 L2149.02 1398.27 L2152.48 1399.49 L2155.93 1400.68 L2159.38 1401.84 L2162.84 1402.98 L2166.29 1404.09 L2169.74 1405.17 L2173.2 1406.24 L2176.65 1407.27 L2180.1 1408.29 L2183.56 1409.28 L2187.01 1410.25 L2190.46 1411.2 L2193.91 1412.12 L2197.37 1413.02 L2200.82 1413.91 L2204.27 1414.77 L2207.73 1415.61 L2211.18 1416.43 L2214.63 1417.23 L2218.09 1418.01 L2221.54 1418.78 L2224.99 1419.52 L2228.45 1420.25 L2231.9 1420.96 L2235.35 1421.65 L2238.8 1422.33 L2242.26 1422.98 L2245.71 1423.63 L2249.16 1424.25 L2252.62 1424.86 L2256.07 1425.46 L2259.52 1426.04 L2262.98 1426.6 L2266.43 1427.15 L2269.88 1427.69 L2273.34 1428.21 L2276.79 1428.72 L2280.24 1429.22 L2283.69 1429.7 L2287.15 1430.17 L2290.6 1430.63 L2290.6 1445.72 L2287.15 1445.72 L2283.69 1445.72 L2280.24 1445.72 L2276.79 1445.72 L2273.34 1445.72 L2269.88 1445.72 L2266.43 1445.72 L2262.98 1445.72 L2259.52 1445.72 L2256.07 1445.72 L2252.62 1445.72 L2249.16 1445.72 L2245.71 1445.72 L2242.26 1445.72 L2238.8 1445.72 L2235.35 1445.72 L2231.9 1445.72 L2228.45 1445.72 L2224.99 1445.72 L2221.54 1445.72 L2218.09 1445.72 L2214.63 1445.72 L2211.18 1445.72 L2207.73 1445.72 L2204.27 1445.72 L2200.82 1445.72 L2197.37 1445.72 L2193.91 1445.72 L2190.46 1445.72 L2187.01 1445.72 L2183.56 1445.72 L2180.1 1445.72 L2176.65 1445.72 L2173.2 1445.72 L2169.74 1445.72 L2166.29 1445.72 L2162.84 1445.72 L2159.38 1445.72 L2155.93 1445.72 L2152.48 1445.72 L2149.02 1445.72 L2145.57 1445.72 L2142.12 1445.72 L2138.67 1445.72 L2135.21 1445.72 L2131.76 1445.72 L2128.31 1445.72 L2124.85 1445.72 L2121.4 1445.72 L2117.95 1445.72 L2114.49 1445.72 L2111.04 1445.72 L2107.59 1445.72 L2104.13 1445.72 L2100.68 1445.72 L2097.23 1445.72 L2093.78 1445.72 L2090.32 1445.72 L2086.87 1445.72 L2083.42 1445.72 L2079.96 1445.72 L2076.51 1445.72 L2073.06 1445.72 L2069.6 1445.72 L2066.15 1445.72 L2062.7 1445.72 L2059.24 1445.72 L2055.79 1445.72 L2052.34 1445.72 L2048.89 1445.72 L2045.43 1445.72 L2041.98 1445.72 L2038.53 1445.72 L2035.07 1445.72 L2031.62 1445.72 L2028.17 1445.72 L2024.71 1445.72 L2021.26 1445.72 L2017.81 1445.72 L2014.35 1445.72 L2010.9 1445.72 L2007.45 1445.72 L2004 1445.72 L2000.54 1445.72 L1997.09 1445.72 L1993.64 1445.72 L1990.18 1445.72 L1986.73 1445.72 L1983.28 1445.72 L1979.82 1445.72 L1976.37 1445.72 L1972.92 1445.72 L1969.46 1445.72 L1966.01 1445.72 L1962.56 1445.72 L1959.11 1445.72 L1955.65 1445.72 L1952.2 1445.72 L1948.75 1445.72 L1945.29 1445.72 L1941.84 1445.72 L1938.39 1445.72 L1934.93 1445.72 L1931.48 1445.72 L1928.03 1445.72 L1924.57 1445.72 L1921.12 1445.72 L1917.67 1445.72 L1914.21 1445.72 L1910.76 1445.72 L1907.31 1445.72 L1903.86 1445.72 L1900.4 1445.72 L1896.95 1445.72 L1893.5 1445.72 L1890.04 1445.72 L1886.59 1445.72 L1883.14 1445.72 L1879.68 1445.72 L1876.23 1445.72 L1872.78 1445.72 L1869.32 1445.72 L1865.87 1445.72 L1862.42 1445.72 L1858.97 1445.72 L1855.51 1445.72 L1852.06 1445.72 L1848.61 1445.72 L1845.15 1445.72 L1841.7 1445.72 L1838.25 1445.72 L1834.79 1445.72 L1831.34 1445.72 L1827.89 1445.72 L1824.43 1445.72 L1820.98 1445.72 L1817.53 1445.72 L1814.08 1445.72 L1810.62 1445.72 L1807.17 1445.72 L1803.72 1445.72 L1800.26 1445.72 L1796.81 1445.72 L1793.36 1445.72 L1789.9 1445.72 L1786.45 1445.72 L1783 1445.72 L1779.54 1445.72 L1776.09 1445.72 L1772.64 1445.72 L1769.19 1445.72 L1765.73 1445.72 L1762.28 1445.72 L1758.83 1445.72 L1755.37 1445.72 L1751.92 1445.72 L1748.47 1445.72 L1745.01 1445.72 L1741.56 1445.72 L1738.11 1445.72 L1734.65 1445.72 L1731.2 1445.72 L1727.75 1445.72 L1724.3 1445.72 L1720.84 1445.72 L1717.39 1445.72 L1713.94 1445.72 L1710.48 1445.72 L1707.03 1445.72 L1703.58 1445.72 L1700.12 1445.72 L1696.67 1445.72 L1693.22 1445.72 L1689.76 1445.72 L1686.31 1445.72 L1682.86 1445.72 L1679.41 1445.72 L1675.95 1445.72 L1672.5 1445.72 L1669.05 1445.72 L1665.59 1445.72 L1662.14 1445.72 L1658.69 1445.72 L1655.23 1445.72 L1651.78 1445.72 L1648.33 1445.72 L1644.87 1445.72 L1641.42 1445.72 L1637.97 1445.72 L1634.52 1445.72 L1631.06 1445.72 L1627.61 1445.72 L1624.16 1445.72 L1620.7 1445.72 L1617.25 1445.72 L1613.8 1445.72 L1610.34 1445.72 L1606.89 1445.72 L1603.44 1445.72 L1599.98 1445.72 L1596.53 1445.72 L1593.08 1445.72 L1589.63 1445.72 L1586.17 1445.72 L1582.72 1445.72 L1579.27 1445.72 L1575.81 1445.72 L1572.36 1445.72 L1568.91 1445.72 L1565.45 1445.72 L1562 1445.72 L1558.55 1445.72 L1555.09 1445.72 L1551.64 1445.72 L1548.19 1445.72 L1544.74 1445.72 L1541.28 1445.72 L1537.83 1445.72 L1534.38 1445.72 L1530.92 1445.72 L1527.47 1445.72 L1524.02 1445.72 L1520.56 1445.72 L1517.11 1445.72 L1513.66 1445.72 L1510.2 1445.72 L1506.75 1445.72 L1503.3 1445.72 L1499.85 1445.72 L1496.39 1445.72 L1492.94 1445.72 L1489.49 1445.72 L1486.03 1445.72 L1482.58 1445.72 L1479.13 1445.72 L1475.67 1445.72 L1472.22 1445.72 L1468.77 1445.72 L1465.31 1445.72 L1461.86 1445.72 L1458.41 1445.72 L1454.96 1445.72 L1451.5 1445.72 L1448.05 1445.72 L1444.6 1445.72 L1441.14 1445.72 L1437.69 1445.72 L1434.24 1445.72 L1430.78 1445.72 L1427.33 1445.72 L1423.88 1445.72 L1420.42 1445.72 L1416.97 1445.72 L1413.52 1445.72 L1410.07 1445.72 L1406.61 1445.72 L1403.16 1445.72 L1399.71 1445.72 L1396.25 1445.72 L1392.8 1445.72 L1389.35 1445.72 L1385.89 1445.72 L1382.44 1445.72 L1378.99 1445.72 L1375.53 1445.72 L1372.08 1445.72 L1368.63 1445.72 L1365.18 1445.72 L1361.72 1445.72 L1358.27 1445.72 L1354.82 1445.72 L1351.36 1445.72 L1347.91 1445.72 L1344.46 1445.72 L1341 1445.72 L1337.55 1445.72 L1334.1 1445.72 L1330.64 1445.72 L1327.19 1445.72 L1323.74 1445.72 L1320.29 1445.72 L1316.83 1445.72 L1313.38 1445.72 L1309.93 1445.72 L1306.47 1445.72 L1303.02 1445.72 L1299.57 1445.72 L1296.11 1445.72 L1292.66 1445.72 L1289.21 1445.72 L1285.75 1445.72 L1282.3 1445.72 L1278.85 1445.72 L1275.4 1445.72 L1271.94 1445.72 L1268.49 1445.72 L1265.04 1445.72 L1261.58 1445.72 L1258.13 1445.72 L1254.68 1445.72 L1251.22 1445.72 L1247.77 1445.72 L1244.32 1445.72 L1240.86 1445.72 L1237.41 1445.72 L1233.96 1445.72 L1230.51 1445.72 L1227.05 1445.72 L1223.6 1445.72 L1220.15 1445.72 L1216.69 1445.72 L1213.24 1445.72 L1209.79 1445.72 L1206.33 1445.72 L1202.88 1445.72 L1199.43 1445.72 L1195.97 1445.72 L1192.52 1445.72 L1189.07 1445.72 L1185.62 1445.72 L1182.16 1445.72 L1178.71 1445.72 L1175.26 1445.72 L1171.8 1445.72 L1168.35 1445.72 L1164.9 1445.72 L1161.44 1445.72 L1157.99 1445.72 L1154.54 1445.72 L1151.08 1445.72 L1147.63 1445.72 L1144.18 1445.72 L1140.73 1445.72 L1137.27 1445.72 L1133.82 1445.72 L1130.37 1445.72 L1126.91 1445.72 L1123.46 1445.72 L1120.01 1445.72 L1116.55 1445.72 L1113.1 1445.72 L1109.65 1445.72 L1106.19 1445.72 L1102.74 1445.72 L1099.29 1445.72 L1095.84 1445.72 L1092.38 1445.72 L1088.93 1445.72 L1085.48 1445.72 L1082.02 1445.72 L1078.57 1445.72 L1075.12 1445.72 L1071.66 1445.72 L1068.21 1445.72 L1064.76 1445.72 L1061.3 1445.72 L1057.85 1445.72 L1054.4 1445.72 L1050.95 1445.72 L1047.49 1445.72 L1044.04 1445.72 L1040.59 1445.72 L1037.13 1445.72 L1033.68 1445.72 L1030.23 1445.72 L1026.77 1445.72 L1023.32 1445.72 L1019.87 1445.72 L1016.41 1445.72 L1012.96 1445.72 L1009.51 1445.72 L1006.06 1445.72 L1002.6 1445.72 L999.149 1445.72 L995.696 1445.72 L992.243 1445.72 L988.79 1445.72 L985.337 1445.72 L981.884 1445.72 L978.431 1445.72 L974.978 1445.72 L971.525 1445.72 L968.072 1445.72 L964.619 1445.72 L961.165 1445.72 L957.712 1445.72 L954.259 1445.72 L950.806 1445.72 L947.353 1445.72 L943.9 1445.72 L940.447 1445.72 L936.994 1445.72 L933.541 1445.72 L930.088 1445.72 L926.635 1445.72 L923.182 1445.72 L919.728 1445.72 L916.275 1445.72 L912.822 1445.72 L909.369 1445.72 L905.916 1445.72 L902.463 1445.72 L899.01 1445.72 L895.557 1445.72 L892.104 1445.72 L888.651 1445.72 L885.198 1445.72 L881.745 1445.72 L878.292 1445.72 L874.838 1445.72 L871.385 1445.72 L867.932 1445.72 L864.479 1445.72 L861.026 1445.72 L857.573 1445.72 L854.12 1445.72 L850.667 1445.72 L847.214 1445.72 L843.761 1445.72 L840.308 1445.72 L836.855 1445.72 L833.402 1445.72 L829.948 1445.72 L826.495 1445.72 L823.042 1445.72 L819.589 1445.72 L816.136 1445.72 L812.683 1445.72 L809.23 1445.72 L805.777 1445.72 L802.324 1445.72 L798.871 1445.72 L795.418 1445.72 L791.965 1445.72 L788.512 1445.72 L785.058 1445.72 L781.605 1445.72 L778.152 1445.72 L774.699 1445.72 L771.246 1445.72 L767.793 1445.72 L764.34 1445.72 L760.887 1445.72 L757.434 1445.72 L753.981 1445.72 L750.528 1445.72 L747.075 1445.72 L743.622 1445.72 L740.168 1445.72 L736.715 1445.72 L733.262 1445.72 L729.809 1445.72 L726.356 1445.72 L722.903 1445.72 L719.45 1445.72 L715.997 1445.72 L712.544 1445.72 L709.091 1445.72 L705.638 1445.72 L702.185 1445.72 L698.731 1445.72 L695.278 1445.72 L691.825 1445.72 L688.372 1445.72 L684.919 1445.72 L681.466 1445.72 L678.013 1445.72 L674.56 1445.72 L671.107 1445.72 L667.654 1445.72 L664.201 1445.72 L660.748 1445.72 L657.295 1445.72 L653.841 1445.72 L650.388 1445.72 L646.935 1445.72 L643.482 1445.72 L640.029 1445.72 L636.576 1445.72 L633.123 1445.72 L629.67 1445.72 L626.217 1445.72 L622.764 1445.72 L619.311 1445.72 L615.858 1445.72 L612.405 1445.72 L608.951 1445.72 L605.498 1445.72 L602.045 1445.72 L598.592 1445.72 L595.139 1445.72 L591.686 1445.72 L588.233 1445.72 L584.78 1445.72 L581.327 1445.72 L577.874 1445.72 L574.421 1445.72 L570.968 1445.72 L567.515 1445.72 L564.061 1445.72 L560.608 1445.72 L557.155 1445.72 L553.702 1445.72 L550.249 1445.72 L546.796 1445.72 L543.343 1445.72 L539.89 1445.72 L536.437 1445.72 L532.984 1445.72 L529.531 1445.72 L526.078 1445.72 L522.625 1445.72 L519.171 1445.72 L515.718 1445.72 L512.265 1445.72 L508.812 1445.72 L505.359 1445.72 L501.906 1445.72 L498.453 1445.72 L495 1445.72 L491.547 1445.72 L488.094 1445.72 L484.641 1445.72 L481.188 1445.72 L477.734 1445.72 L474.281 1445.72 L470.828 1445.72 L467.375 1445.72 L463.922 1445.72 L460.469 1445.72 L457.016 1445.72 L453.563 1445.72 L450.11 1445.72 L446.657 1445.72 L443.204 1445.72 L439.751 1445.72 L436.298 1445.72 L432.844 1445.72 L429.391 1445.72 L425.938 1445.72 L422.485 1445.72 L419.032 1445.72 L415.579 1445.72 L412.126 1445.72 L408.673 1445.72 L405.22 1445.72 L401.767 1445.72 L398.314 1445.72 L394.861 1445.72 L391.408 1445.72 L387.954 1445.72 L384.501 1445.72 L381.048 1445.72 L377.595 1445.72 L374.142 1445.72 L370.689 1445.72 L367.236 1445.72 L363.783 1445.72 L360.33 1445.72 L356.877 1445.72 L353.424 1445.72 L349.971 1445.72 L346.518 1445.72 L343.064 1445.72 L339.611 1445.72 L336.158 1445.72 L332.705 1445.72 L329.252 1445.72 L325.799 1445.72 L322.346 1445.72 L318.893 1445.72 L315.44 1445.72 L311.987 1445.72 L308.534 1445.72 L305.081 1445.72 L301.628 1445.72 L298.174 1445.72 L294.721 1445.72 L291.268 1445.72 L287.815 1445.72 L284.362 1445.72 L280.909 1445.72 L277.456 1445.72 L274.003 1445.72 L270.55 1445.72 L267.097 1445.72 L263.644 1445.72 L260.191 1445.72 L256.737 1445.72 L253.284 1445.72 L249.831 1445.72 L246.378 1445.72 L242.925 1445.72 L239.472 1445.72 L236.019 1445.72 L232.566 1445.72 L229.113 1445.72 L225.66 1445.72 L222.207 1445.72 L218.754 1445.72  Z" fill="#009af9" fill-rule="evenodd" fill-opacity="0.25"/>
<polyline clip-path="url(#clip452)" style="stroke:#009af9; stroke-linecap:round; stroke-linejoin:round; stroke-width:4; stroke-opacity:0.25; fill:none" points="218.754,1430.63 222.207,1430.17 225.66,1429.7 229.113,1429.22 232.566,1428.72 236.019,1428.21 239.472,1427.69 242.925,1427.15 246.378,1426.6 249.831,1426.04 253.284,1425.46 256.737,1424.86 260.191,1424.25 263.644,1423.63 267.097,1422.98 270.55,1422.33 274.003,1421.65 277.456,1420.96 280.909,1420.25 284.362,1419.52 287.815,1418.78 291.268,1418.01 294.721,1417.23 298.174,1416.43 301.628,1415.61 305.081,1414.77 308.534,1413.91 311.987,1413.02 315.44,1412.12 318.893,1411.2 322.346,1410.25 325.799,1409.28 329.252,1408.29 332.705,1407.27 336.158,1406.24 339.611,1405.17 343.064,1404.09 346.518,1402.98 349.971,1401.84 353.424,1400.68 356.877,1399.49 360.33,1398.27 363.783,1397.03 367.236,1395.76 370.689,1394.46 374.142,1393.14 377.595,1391.78 381.048,1390.4 384.501,1388.98 387.954,1387.54 391.408,1386.06 394.861,1384.55 398.314,1383.01 401.767,1381.44 405.22,1379.84 408.673,1378.2 412.126,1376.53 415.579,1374.83 419.032,1373.09 422.485,1371.31 425.938,1369.5 429.391,1367.65 432.844,1365.77 436.298,1363.85 439.751,1361.89 443.204,1359.89 446.657,1357.85 450.11,1355.78 453.563,1353.66 457.016,1351.51 460.469,1349.31 463.922,1347.07 467.375,1344.79 470.828,1342.47 474.281,1340.1 477.734,1337.69 481.188,1335.24 484.641,1332.75 488.094,1330.2 491.547,1327.62 495,1324.98 498.453,1322.3 501.906,1319.58 505.359,1316.8 508.812,1313.98 512.265,1311.11 515.718,1308.19 519.171,1305.23 522.625,1302.21 526.078,1299.14 529.531,1296.02 532.984,1292.86 536.437,1289.63 539.89,1286.36 543.343,1283.04 546.796,1279.66 550.249,1276.23 553.702,1272.74 557.155,1269.21 560.608,1265.61 564.061,1261.97 567.515,1258.26 570.968,1254.5 574.421,1250.69 577.874,1246.82 581.327,1242.89 584.78,1238.91 588.233,1234.87 591.686,1230.77 595.139,1226.62 598.592,1222.4 602.045,1218.13 605.498,1213.8 608.951,1209.41 612.405,1204.96 615.858,1200.45 619.311,1195.89 622.764,1191.26 626.217,1186.57 629.67,1181.83 633.123,1177.02 636.576,1172.15 640.029,1167.23 643.482,1162.24 646.935,1157.19 650.388,1152.08 653.841,1146.92 657.295,1141.69 660.748,1136.4 664.201,1131.05 667.654,1125.63 671.107,1120.16 674.56,1114.63 678.013,1109.04 681.466,1103.39 684.919,1097.67 688.372,1091.9 691.825,1086.07 695.278,1080.18 698.731,1074.22 702.185,1068.21 705.638,1062.14 709.091,1056.02 712.544,1049.83 715.997,1043.59 719.45,1037.28 722.903,1030.92 726.356,1024.51 729.809,1018.04 733.262,1011.51 736.715,1004.92 740.168,998.283 743.622,991.589 747.075,984.841 750.528,978.039 753.981,971.185 757.434,964.278 760.887,957.32 764.34,950.31 767.793,943.25 771.246,936.141 774.699,928.983 778.152,921.776 781.605,914.522 785.058,907.222 788.512,899.875 791.965,892.484 795.418,885.049 798.871,877.571 802.324,870.05 805.777,862.489 809.23,854.887 812.683,847.246 816.136,839.566 819.589,831.85 823.042,824.097 826.495,816.31 829.948,808.488 833.402,800.634 836.855,792.749 840.308,784.833 843.761,776.888 847.214,768.915 850.667,760.916 854.12,752.891 857.573,744.843 861.026,736.772 864.479,728.679 867.932,720.567 871.385,712.437 874.838,704.289 878.292,696.126 881.745,687.948 885.198,679.758 888.651,671.557 892.104,663.347 895.557,655.128 899.01,646.903 902.463,638.673 905.916,630.44 909.369,622.205 912.822,613.97 916.275,605.737 919.728,597.507 923.182,589.282 926.635,581.064 930.088,572.855 933.541,564.655 936.994,556.467 940.447,548.294 943.9,540.135 947.353,531.994 950.806,523.871 954.259,515.77 957.712,507.691 961.165,499.636 964.619,491.608 968.072,483.608 971.525,475.638 974.978,467.699 978.431,459.795 981.884,451.925 985.337,444.093 988.79,436.301 992.243,428.549 995.696,420.84 999.149,413.176 1002.6,405.559 1006.06,397.991 1009.51,390.473 1012.96,383.007 1016.41,375.595 1019.87,368.24 1023.32,360.942 1026.77,353.705 1030.23,346.528 1033.68,339.416 1037.13,332.368 1040.59,325.388 1044.04,318.477 1047.49,311.636 1050.95,304.869 1054.4,298.175 1057.85,291.558 1061.3,285.018 1064.76,278.558 1068.21,272.18 1071.66,265.885 1075.12,259.674 1078.57,253.551 1082.02,247.515 1085.48,241.569 1088.93,235.715 1092.38,229.954 1095.84,224.287 1099.29,218.717 1102.74,213.245 1106.19,207.872 1109.65,202.6 1113.1,197.43 1116.55,192.364 1120.01,187.404 1123.46,182.55 1126.91,177.804 1130.37,173.168 1133.82,168.642 1137.27,164.229 1140.73,159.929 1144.18,155.743 1147.63,151.673 1151.08,147.72 1154.54,143.885 1157.99,140.17 1161.44,136.575 1164.9,133.101 1168.35,129.75 1171.8,126.521 1175.26,123.418 1178.71,120.439 1182.16,117.587 1185.62,114.861 1189.07,112.264 1192.52,109.794 1195.97,107.455 1199.43,105.245 1202.88,103.165 1206.33,101.217 1209.79,99.4008 1213.24,97.7169 1216.69,96.1658 1220.15,94.748 1223.6,93.464 1227.05,92.3141 1230.51,91.2987 1233.96,90.418 1237.41,89.6724 1240.86,89.062 1244.32,88.5871 1247.77,88.2478 1251.22,88.0442 1254.68,87.9763 1258.13,88.0442 1261.58,88.2478 1265.04,88.5871 1268.49,89.062 1271.94,89.6724 1275.4,90.418 1278.85,91.2987 1282.3,92.3141 1285.75,93.464 1289.21,94.748 1292.66,96.1658 1296.11,97.7169 1299.57,99.4008 1303.02,101.217 1306.47,103.165 1309.93,105.245 1313.38,107.455 1316.83,109.794 1320.29,112.264 1323.74,114.861 1327.19,117.587 1330.64,120.439 1334.1,123.418 1337.55,126.521 1341,129.75 1344.46,133.101 1347.91,136.575 1351.36,140.17 1354.82,143.885 1358.27,147.72 1361.72,151.673 1365.18,155.743 1368.63,159.929 1372.08,164.229 1375.53,168.642 1378.99,173.168 1382.44,177.804 1385.89,182.55 1389.35,187.404 1392.8,192.364 1396.25,197.43 1399.71,202.6 1403.16,207.872 1406.61,213.245 1410.07,218.717 1413.52,224.287 1416.97,229.954 1420.42,235.715 1423.88,241.569 1427.33,247.515 1430.78,253.551 1434.24,259.674 1437.69,265.885 1441.14,272.18 1444.6,278.558 1448.05,285.018 1451.5,291.558 1454.96,298.175 1458.41,304.869 1461.86,311.636 1465.31,318.477 1468.77,325.388 1472.22,332.368 1475.67,339.416 1479.13,346.528 1482.58,353.705 1486.03,360.942 1489.49,368.24 1492.94,375.595 1496.39,383.007 1499.85,390.473 1503.3,397.991 1506.75,405.559 1510.2,413.176 1513.66,420.84 1517.11,428.549 1520.56,436.301 1524.02,444.093 1527.47,451.925 1530.92,459.795 1534.38,467.699 1537.83,475.638 1541.28,483.608 1544.74,491.608 1548.19,499.636 1551.64,507.691 1555.09,515.77 1558.55,523.871 1562,531.994 1565.45,540.135 1568.91,548.294 1572.36,556.467 1575.81,564.655 1579.27,572.855 1582.72,581.064 1586.17,589.282 1589.63,597.507 1593.08,605.737 1596.53,613.97 1599.98,622.205 1603.44,630.44 1606.89,638.673 1610.34,646.903 1613.8,655.128 1617.25,663.347 1620.7,671.557 1624.16,679.758 1627.61,687.948 1631.06,696.126 1634.52,704.289 1637.97,712.437 1641.42,720.567 1644.87,728.679 1648.33,736.772 1651.78,744.843 1655.23,752.891 1658.69,760.916 1662.14,768.915 1665.59,776.888 1669.05,784.833 1672.5,792.749 1675.95,800.634 1679.41,808.488 1682.86,816.31 1686.31,824.097 1689.76,831.85 1693.22,839.566 1696.67,847.246 1700.12,854.887 1703.58,862.489 1707.03,870.05 1710.48,877.571 1713.94,885.049 1717.39,892.484 1720.84,899.875 1724.3,907.222 1727.75,914.522 1731.2,921.776 1734.65,928.983 1738.11,936.141 1741.56,943.25 1745.01,950.31 1748.47,957.32 1751.92,964.278 1755.37,971.185 1758.83,978.039 1762.28,984.841 1765.73,991.589 1769.19,998.283 1772.64,1004.92 1776.09,1011.51 1779.54,1018.04 1783,1024.51 1786.45,1030.92 1789.9,1037.28 1793.36,1043.59 1796.81,1049.83 1800.26,1056.02 1803.72,1062.14 1807.17,1068.21 1810.62,1074.22 1814.08,1080.18 1817.53,1086.07 1820.98,1091.9 1824.43,1097.67 1827.89,1103.39 1831.34,1109.04 1834.79,1114.63 1838.25,1120.16 1841.7,1125.63 1845.15,1131.05 1848.61,1136.4 1852.06,1141.69 1855.51,1146.92 1858.97,1152.08 1862.42,1157.19 1865.87,1162.24 1869.32,1167.23 1872.78,1172.15 1876.23,1177.02 1879.68,1181.83 1883.14,1186.57 1886.59,1191.26 1890.04,1195.89 1893.5,1200.45 1896.95,1204.96 1900.4,1209.41 1903.86,1213.8 1907.31,1218.13 1910.76,1222.4 1914.21,1226.62 1917.67,1230.77 1921.12,1234.87 1924.57,1238.91 1928.03,1242.89 1931.48,1246.82 1934.93,1250.69 1938.39,1254.5 1941.84,1258.26 1945.29,1261.97 1948.75,1265.61 1952.2,1269.21 1955.65,1272.74 1959.11,1276.23 1962.56,1279.66 1966.01,1283.04 1969.46,1286.36 1972.92,1289.63 1976.37,1292.86 1979.82,1296.02 1983.28,1299.14 1986.73,1302.21 1990.18,1305.23 1993.64,1308.19 1997.09,1311.11 2000.54,1313.98 2004,1316.8 2007.45,1319.58 2010.9,1322.3 2014.35,1324.98 2017.81,1327.62 2021.26,1330.2 2024.71,1332.75 2028.17,1335.24 2031.62,1337.69 2035.07,1340.1 2038.53,1342.47 2041.98,1344.79 2045.43,1347.07 2048.89,1349.31 2052.34,1351.51 2055.79,1353.66 2059.24,1355.78 2062.7,1357.85 2066.15,1359.89 2069.6,1361.89 2073.06,1363.85 2076.51,1365.77 2079.96,1367.65 2083.42,1369.5 2086.87,1371.31 2090.32,1373.09 2093.78,1374.83 2097.23,1376.53 2100.68,1378.2 2104.13,1379.84 2107.59,1381.44 2111.04,1383.01 2114.49,1384.55 2117.95,1386.06 2121.4,1387.54 2124.85,1388.98 2128.31,1390.4 2131.76,1391.78 2135.21,1393.14 2138.67,1394.46 2142.12,1395.76 2145.57,1397.03 2149.02,1398.27 2152.48,1399.49 2155.93,1400.68 2159.38,1401.84 2162.84,1402.98 2166.29,1404.09 2169.74,1405.17 2173.2,1406.24 2176.65,1407.27 2180.1,1408.29 2183.56,1409.28 2187.01,1410.25 2190.46,1411.2 2193.91,1412.12 2197.37,1413.02 2200.82,1413.91 2204.27,1414.77 2207.73,1415.61 2211.18,1416.43 2214.63,1417.23 2218.09,1418.01 2221.54,1418.78 2224.99,1419.52 2228.45,1420.25 2231.9,1420.96 2235.35,1421.65 2238.8,1422.33 2242.26,1422.98 2245.71,1423.63 2249.16,1424.25 2252.62,1424.86 2256.07,1425.46 2259.52,1426.04 2262.98,1426.6 2266.43,1427.15 2269.88,1427.69 2273.34,1428.21 2276.79,1428.72 2280.24,1429.22 2283.69,1429.7 2287.15,1430.17 2290.6,1430.63 "/>
</svg>
