<?xml version="1.0" encoding="utf-8"?>
<svg xmlns="http://www.w3.org/2000/svg" xmlns:xlink="http://www.w3.org/1999/xlink" width="672" height="480" viewBox="0 0 2688 1920">
<defs>
  <clipPath id="clip030">
    <rect x="0" y="0" width="2688" height="1920"/>
  </clipPath>
</defs>
<path clip-path="url(#clip030)" d="M0 1920 L2688 1920 L2688 0 L0 0  Z" fill="#ffffff" fill-rule="evenodd" fill-opacity="1"/>
<defs>
  <clipPath id="clip031">
    <rect x="537" y="0" width="1883" height="1883"/>
  </clipPath>
</defs>
<path clip-path="url(#clip030)" d="M159.478 1800.78 L2640.76 1800.78 L2640.76 47.2441 L159.478 47.2441  Z" fill="#ffffff" fill-rule="evenodd" fill-opacity="1"/>
<defs>
  <clipPath id="clip032">
    <rect x="159" y="47" width="2482" height="1755"/>
  </clipPath>
</defs>
<polyline clip-path="url(#clip032)" style="stroke:#000000; stroke-linecap:round; stroke-linejoin:round; stroke-width:2; stroke-opacity:0.1; fill:none" points="229.703,1800.78 229.703,47.2441 "/>
<polyline clip-path="url(#clip032)" style="stroke:#000000; stroke-linecap:round; stroke-linejoin:round; stroke-width:2; stroke-opacity:0.1; fill:none" points="814.91,1800.78 814.91,47.2441 "/>
<polyline clip-path="url(#clip032)" style="stroke:#000000; stroke-linecap:round; stroke-linejoin:round; stroke-width:2; stroke-opacity:0.1; fill:none" points="1400.12,1800.78 1400.12,47.2441 "/>
<polyline clip-path="url(#clip032)" style="stroke:#000000; stroke-linecap:round; stroke-linejoin:round; stroke-width:2; stroke-opacity:0.1; fill:none" points="1985.32,1800.78 1985.32,47.2441 "/>
<polyline clip-path="url(#clip032)" style="stroke:#000000; stroke-linecap:round; stroke-linejoin:round; stroke-width:2; stroke-opacity:0.1; fill:none" points="2570.53,1800.78 2570.53,47.2441 "/>
<polyline clip-path="url(#clip030)" style="stroke:#000000; stroke-linecap:round; stroke-linejoin:round; stroke-width:4; stroke-opacity:1; fill:none" points="159.478,1800.78 2640.76,1800.78 "/>
<polyline clip-path="url(#clip030)" style="stroke:#000000; stroke-linecap:round; stroke-linejoin:round; stroke-width:4; stroke-opacity:1; fill:none" points="229.703,1800.78 229.703,1781.88 "/>
<polyline clip-path="url(#clip030)" style="stroke:#000000; stroke-linecap:round; stroke-linejoin:round; stroke-width:4; stroke-opacity:1; fill:none" points="814.91,1800.78 814.91,1781.88 "/>
<polyline clip-path="url(#clip030)" style="stroke:#000000; stroke-linecap:round; stroke-linejoin:round; stroke-width:4; stroke-opacity:1; fill:none" points="1400.12,1800.78 1400.12,1781.88 "/>
<polyline clip-path="url(#clip030)" style="stroke:#000000; stroke-linecap:round; stroke-linejoin:round; stroke-width:4; stroke-opacity:1; fill:none" points="1985.32,1800.78 1985.32,1781.88 "/>
<polyline clip-path="url(#clip030)" style="stroke:#000000; stroke-linecap:round; stroke-linejoin:round; stroke-width:4; stroke-opacity:1; fill:none" points="2570.53,1800.78 2570.53,1781.88 "/>
<path clip-path="url(#clip030)" d="M220.085 1861.55 L227.724 1861.55 L227.724 1835.18 L219.414 1836.85 L219.414 1832.59 L227.678 1830.92 L232.354 1830.92 L232.354 1861.55 L239.992 1861.55 L239.992 1865.48 L220.085 1865.48 L220.085 1861.55 Z" fill="#000000" fill-rule="nonzero" fill-opacity="1" /><path clip-path="url(#clip030)" d="M809.563 1861.55 L825.882 1861.55 L825.882 1865.48 L803.938 1865.48 L803.938 1861.55 Q806.6 1858.79 811.183 1854.16 Q815.79 1849.51 816.97 1848.17 Q819.216 1845.65 820.095 1843.91 Q820.998 1842.15 820.998 1840.46 Q820.998 1837.71 819.054 1835.97 Q817.132 1834.23 814.03 1834.23 Q811.831 1834.23 809.378 1835 Q806.947 1835.76 804.169 1837.31 L804.169 1832.59 Q806.993 1831.46 809.447 1830.88 Q811.901 1830.3 813.938 1830.3 Q819.308 1830.3 822.503 1832.98 Q825.697 1835.67 825.697 1840.16 Q825.697 1842.29 824.887 1844.21 Q824.1 1846.11 821.993 1848.7 Q821.415 1849.37 818.313 1852.59 Q815.211 1855.78 809.563 1861.55 Z" fill="#000000" fill-rule="nonzero" fill-opacity="1" /><path clip-path="url(#clip030)" d="M1404.36 1846.85 Q1407.72 1847.57 1409.6 1849.84 Q1411.49 1852.1 1411.49 1855.44 Q1411.49 1860.55 1407.98 1863.35 Q1404.46 1866.15 1397.98 1866.15 Q1395.8 1866.15 1393.49 1865.71 Q1391.19 1865.3 1388.74 1864.44 L1388.74 1859.93 Q1390.68 1861.06 1393 1861.64 Q1395.31 1862.22 1397.84 1862.22 Q1402.24 1862.22 1404.53 1860.48 Q1406.84 1858.75 1406.84 1855.44 Q1406.84 1852.38 1404.69 1850.67 Q1402.56 1848.93 1398.74 1848.93 L1394.71 1848.93 L1394.71 1845.09 L1398.92 1845.09 Q1402.37 1845.09 1404.2 1843.72 Q1406.03 1842.34 1406.03 1839.74 Q1406.03 1837.08 1404.13 1835.67 Q1402.26 1834.23 1398.74 1834.23 Q1396.82 1834.23 1394.62 1834.65 Q1392.42 1835.07 1389.78 1835.95 L1389.78 1831.78 Q1392.44 1831.04 1394.76 1830.67 Q1397.1 1830.3 1399.16 1830.3 Q1404.48 1830.3 1407.58 1832.73 Q1410.68 1835.14 1410.68 1839.26 Q1410.68 1842.13 1409.04 1844.12 Q1407.4 1846.09 1404.36 1846.85 Z" fill="#000000" fill-rule="nonzero" fill-opacity="1" /><path clip-path="url(#clip030)" d="M1988.33 1835 L1976.53 1853.45 L1988.33 1853.45 L1988.33 1835 M1987.11 1830.92 L1992.99 1830.92 L1992.99 1853.45 L1997.92 1853.45 L1997.92 1857.34 L1992.99 1857.34 L1992.99 1865.48 L1988.33 1865.48 L1988.33 1857.34 L1972.73 1857.34 L1972.73 1852.82 L1987.11 1830.92 Z" fill="#000000" fill-rule="nonzero" fill-opacity="1" /><path clip-path="url(#clip030)" d="M2560.81 1830.92 L2579.17 1830.92 L2579.17 1834.86 L2565.09 1834.86 L2565.09 1843.33 Q2566.11 1842.98 2567.13 1842.82 Q2568.15 1842.64 2569.17 1842.64 Q2574.95 1842.64 2578.33 1845.81 Q2581.71 1848.98 2581.71 1854.4 Q2581.71 1859.97 2578.24 1863.08 Q2574.77 1866.15 2568.45 1866.15 Q2566.27 1866.15 2564 1865.78 Q2561.76 1865.41 2559.35 1864.67 L2559.35 1859.97 Q2561.43 1861.11 2563.66 1861.66 Q2565.88 1862.22 2568.36 1862.22 Q2572.36 1862.22 2574.7 1860.11 Q2577.04 1858.01 2577.04 1854.4 Q2577.04 1850.78 2574.7 1848.68 Q2572.36 1846.57 2568.36 1846.57 Q2566.48 1846.57 2564.61 1846.99 Q2562.75 1847.4 2560.81 1848.28 L2560.81 1830.92 Z" fill="#000000" fill-rule="nonzero" fill-opacity="1" /><polyline clip-path="url(#clip032)" style="stroke:#000000; stroke-linecap:round; stroke-linejoin:round; stroke-width:2; stroke-opacity:0.1; fill:none" points="159.478,1753.6 2640.76,1753.6 "/>
<polyline clip-path="url(#clip032)" style="stroke:#000000; stroke-linecap:round; stroke-linejoin:round; stroke-width:2; stroke-opacity:0.1; fill:none" points="159.478,1391.44 2640.76,1391.44 "/>
<polyline clip-path="url(#clip032)" style="stroke:#000000; stroke-linecap:round; stroke-linejoin:round; stroke-width:2; stroke-opacity:0.1; fill:none" points="159.478,1029.29 2640.76,1029.29 "/>
<polyline clip-path="url(#clip032)" style="stroke:#000000; stroke-linecap:round; stroke-linejoin:round; stroke-width:2; stroke-opacity:0.1; fill:none" points="159.478,667.136 2640.76,667.136 "/>
<polyline clip-path="url(#clip032)" style="stroke:#000000; stroke-linecap:round; stroke-linejoin:round; stroke-width:2; stroke-opacity:0.1; fill:none" points="159.478,304.982 2640.76,304.982 "/>
<polyline clip-path="url(#clip030)" style="stroke:#000000; stroke-linecap:round; stroke-linejoin:round; stroke-width:4; stroke-opacity:1; fill:none" points="159.478,1800.78 159.478,47.2441 "/>
<polyline clip-path="url(#clip030)" style="stroke:#000000; stroke-linecap:round; stroke-linejoin:round; stroke-width:4; stroke-opacity:1; fill:none" points="159.478,1753.6 178.376,1753.6 "/>
<polyline clip-path="url(#clip030)" style="stroke:#000000; stroke-linecap:round; stroke-linejoin:round; stroke-width:4; stroke-opacity:1; fill:none" points="159.478,1391.44 178.376,1391.44 "/>
<polyline clip-path="url(#clip030)" style="stroke:#000000; stroke-linecap:round; stroke-linejoin:round; stroke-width:4; stroke-opacity:1; fill:none" points="159.478,1029.29 178.376,1029.29 "/>
<polyline clip-path="url(#clip030)" style="stroke:#000000; stroke-linecap:round; stroke-linejoin:round; stroke-width:4; stroke-opacity:1; fill:none" points="159.478,667.136 178.376,667.136 "/>
<polyline clip-path="url(#clip030)" style="stroke:#000000; stroke-linecap:round; stroke-linejoin:round; stroke-width:4; stroke-opacity:1; fill:none" points="159.478,304.982 178.376,304.982 "/>
<path clip-path="url(#clip030)" d="M61.9826 1739.39 Q58.3715 1739.39 56.5428 1742.96 Q54.7373 1746.5 54.7373 1753.63 Q54.7373 1760.74 56.5428 1764.3 Q58.3715 1767.84 61.9826 1767.84 Q65.6169 1767.84 67.4224 1764.3 Q69.2511 1760.74 69.2511 1753.63 Q69.2511 1746.5 67.4224 1742.96 Q65.6169 1739.39 61.9826 1739.39 M61.9826 1735.69 Q67.7928 1735.69 70.8483 1740.3 Q73.927 1744.88 73.927 1753.63 Q73.927 1762.36 70.8483 1766.96 Q67.7928 1771.55 61.9826 1771.55 Q56.1725 1771.55 53.0938 1766.96 Q50.0382 1762.36 50.0382 1753.63 Q50.0382 1744.88 53.0938 1740.3 Q56.1725 1735.69 61.9826 1735.69 Z" fill="#000000" fill-rule="nonzero" fill-opacity="1" /><path clip-path="url(#clip030)" d="M82.1445 1765 L87.0288 1765 L87.0288 1770.88 L82.1445 1770.88 L82.1445 1765 Z" fill="#000000" fill-rule="nonzero" fill-opacity="1" /><path clip-path="url(#clip030)" d="M107.214 1739.39 Q103.603 1739.39 101.774 1742.96 Q99.9685 1746.5 99.9685 1753.63 Q99.9685 1760.74 101.774 1764.3 Q103.603 1767.84 107.214 1767.84 Q110.848 1767.84 112.654 1764.3 Q114.482 1760.74 114.482 1753.63 Q114.482 1746.5 112.654 1742.96 Q110.848 1739.39 107.214 1739.39 M107.214 1735.69 Q113.024 1735.69 116.08 1740.3 Q119.158 1744.88 119.158 1753.63 Q119.158 1762.36 116.08 1766.96 Q113.024 1771.55 107.214 1771.55 Q101.404 1771.55 98.325 1766.96 Q95.2695 1762.36 95.2695 1753.63 Q95.2695 1744.88 98.325 1740.3 Q101.404 1735.69 107.214 1735.69 Z" fill="#000000" fill-rule="nonzero" fill-opacity="1" /><path clip-path="url(#clip030)" d="M63.5798 1377.24 Q59.9687 1377.24 58.14 1380.81 Q56.3345 1384.35 56.3345 1391.48 Q56.3345 1398.58 58.14 1402.15 Q59.9687 1405.69 63.5798 1405.69 Q67.2141 1405.69 69.0196 1402.15 Q70.8483 1398.58 70.8483 1391.48 Q70.8483 1384.35 69.0196 1380.81 Q67.2141 1377.24 63.5798 1377.24 M63.5798 1373.54 Q69.39 1373.54 72.4455 1378.14 Q75.5242 1382.73 75.5242 1391.48 Q75.5242 1400.2 72.4455 1404.81 Q69.39 1409.39 63.5798 1409.39 Q57.7697 1409.39 54.691 1404.81 Q51.6354 1400.2 51.6354 1391.48 Q51.6354 1382.73 54.691 1378.14 Q57.7697 1373.54 63.5798 1373.54 Z" fill="#000000" fill-rule="nonzero" fill-opacity="1" /><path clip-path="url(#clip030)" d="M83.7418 1402.84 L88.626 1402.84 L88.626 1408.72 L83.7418 1408.72 L83.7418 1402.84 Z" fill="#000000" fill-rule="nonzero" fill-opacity="1" /><path clip-path="url(#clip030)" d="M102.839 1404.79 L119.158 1404.79 L119.158 1408.72 L97.2139 1408.72 L97.2139 1404.79 Q99.8759 1402.03 104.459 1397.4 Q109.066 1392.75 110.246 1391.41 Q112.492 1388.88 113.371 1387.15 Q114.274 1385.39 114.274 1383.7 Q114.274 1380.94 112.33 1379.21 Q110.408 1377.47 107.306 1377.47 Q105.107 1377.47 102.654 1378.24 Q100.223 1379 97.4454 1380.55 L97.4454 1375.83 Q100.269 1374.69 102.723 1374.12 Q105.177 1373.54 107.214 1373.54 Q112.584 1373.54 115.779 1376.22 Q118.973 1378.91 118.973 1383.4 Q118.973 1385.53 118.163 1387.45 Q117.376 1389.35 115.269 1391.94 Q114.691 1392.61 111.589 1395.83 Q108.487 1399.02 102.839 1404.79 Z" fill="#000000" fill-rule="nonzero" fill-opacity="1" /><path clip-path="url(#clip030)" d="M61.4965 1015.09 Q57.8854 1015.09 56.0567 1018.65 Q54.2512 1022.19 54.2512 1029.32 Q54.2512 1036.43 56.0567 1040 Q57.8854 1043.54 61.4965 1043.54 Q65.1307 1043.54 66.9363 1040 Q68.765 1036.43 68.765 1029.32 Q68.765 1022.19 66.9363 1018.65 Q65.1307 1015.09 61.4965 1015.09 M61.4965 1011.38 Q67.3067 1011.38 70.3622 1015.99 Q73.4409 1020.57 73.4409 1029.32 Q73.4409 1038.05 70.3622 1042.66 Q67.3067 1047.24 61.4965 1047.24 Q55.6864 1047.24 52.6077 1042.66 Q49.5521 1038.05 49.5521 1029.32 Q49.5521 1020.57 52.6077 1015.99 Q55.6864 1011.38 61.4965 1011.38 Z" fill="#000000" fill-rule="nonzero" fill-opacity="1" /><path clip-path="url(#clip030)" d="M81.6584 1040.69 L86.5427 1040.69 L86.5427 1046.57 L81.6584 1046.57 L81.6584 1040.69 Z" fill="#000000" fill-rule="nonzero" fill-opacity="1" /><path clip-path="url(#clip030)" d="M109.575 1016.08 L97.7695 1034.53 L109.575 1034.53 L109.575 1016.08 M108.348 1012.01 L114.228 1012.01 L114.228 1034.53 L119.158 1034.53 L119.158 1038.42 L114.228 1038.42 L114.228 1046.57 L109.575 1046.57 L109.575 1038.42 L93.9732 1038.42 L93.9732 1033.91 L108.348 1012.01 Z" fill="#000000" fill-rule="nonzero" fill-opacity="1" /><path clip-path="url(#clip030)" d="M61.8206 652.934 Q58.2095 652.934 56.3808 656.499 Q54.5752 660.041 54.5752 667.17 Q54.5752 674.277 56.3808 677.842 Q58.2095 681.383 61.8206 681.383 Q65.4548 681.383 67.2604 677.842 Q69.0891 674.277 69.0891 667.17 Q69.0891 660.041 67.2604 656.499 Q65.4548 652.934 61.8206 652.934 M61.8206 649.231 Q67.6307 649.231 70.6863 653.837 Q73.765 658.42 73.765 667.17 Q73.765 675.897 70.6863 680.504 Q67.6307 685.087 61.8206 685.087 Q56.0104 685.087 52.9317 680.504 Q49.8762 675.897 49.8762 667.17 Q49.8762 658.42 52.9317 653.837 Q56.0104 649.231 61.8206 649.231 Z" fill="#000000" fill-rule="nonzero" fill-opacity="1" /><path clip-path="url(#clip030)" d="M81.9825 678.536 L86.8667 678.536 L86.8667 684.416 L81.9825 684.416 L81.9825 678.536 Z" fill="#000000" fill-rule="nonzero" fill-opacity="1" /><path clip-path="url(#clip030)" d="M107.631 665.272 Q104.482 665.272 102.631 667.425 Q100.802 669.578 100.802 673.328 Q100.802 677.055 102.631 679.23 Q104.482 681.383 107.631 681.383 Q110.779 681.383 112.607 679.23 Q114.459 677.055 114.459 673.328 Q114.459 669.578 112.607 667.425 Q110.779 665.272 107.631 665.272 M116.913 650.619 L116.913 654.879 Q115.154 654.045 113.348 653.606 Q111.566 653.166 109.806 653.166 Q105.177 653.166 102.723 656.291 Q100.293 659.416 99.9454 665.735 Q101.311 663.721 103.371 662.656 Q105.431 661.568 107.908 661.568 Q113.117 661.568 116.126 664.74 Q119.158 667.888 119.158 673.328 Q119.158 678.652 116.01 681.869 Q112.862 685.087 107.631 685.087 Q101.635 685.087 98.4639 680.504 Q95.2926 675.897 95.2926 667.17 Q95.2926 658.976 99.1815 654.115 Q103.07 649.231 109.621 649.231 Q111.38 649.231 113.163 649.578 Q114.968 649.925 116.913 650.619 Z" fill="#000000" fill-rule="nonzero" fill-opacity="1" /><path clip-path="url(#clip030)" d="M62.0752 290.781 Q58.4641 290.781 56.6354 294.346 Q54.8299 297.887 54.8299 305.017 Q54.8299 312.123 56.6354 315.688 Q58.4641 319.23 62.0752 319.23 Q65.7094 319.23 67.515 315.688 Q69.3437 312.123 69.3437 305.017 Q69.3437 297.887 67.515 294.346 Q65.7094 290.781 62.0752 290.781 M62.0752 287.077 Q67.8854 287.077 70.9409 291.684 Q74.0196 296.267 74.0196 305.017 Q74.0196 313.744 70.9409 318.35 Q67.8854 322.933 62.0752 322.933 Q56.2651 322.933 53.1864 318.35 Q50.1308 313.744 50.1308 305.017 Q50.1308 296.267 53.1864 291.684 Q56.2651 287.077 62.0752 287.077 Z" fill="#000000" fill-rule="nonzero" fill-opacity="1" /><path clip-path="url(#clip030)" d="M82.2371 316.383 L87.1214 316.383 L87.1214 322.262 L82.2371 322.262 L82.2371 316.383 Z" fill="#000000" fill-rule="nonzero" fill-opacity="1" /><path clip-path="url(#clip030)" d="M107.306 305.85 Q103.973 305.85 102.052 307.633 Q100.154 309.415 100.154 312.54 Q100.154 315.665 102.052 317.447 Q103.973 319.23 107.306 319.23 Q110.64 319.23 112.561 317.447 Q114.482 315.642 114.482 312.54 Q114.482 309.415 112.561 307.633 Q110.663 305.85 107.306 305.85 M102.631 303.859 Q99.6213 303.119 97.9315 301.059 Q96.2648 298.998 96.2648 296.035 Q96.2648 291.892 99.2046 289.485 Q102.168 287.077 107.306 287.077 Q112.468 287.077 115.408 289.485 Q118.348 291.892 118.348 296.035 Q118.348 298.998 116.658 301.059 Q114.992 303.119 112.005 303.859 Q115.385 304.646 117.26 306.938 Q119.158 309.23 119.158 312.54 Q119.158 317.563 116.08 320.248 Q113.024 322.933 107.306 322.933 Q101.589 322.933 98.5102 320.248 Q95.4547 317.563 95.4547 312.54 Q95.4547 309.23 97.3528 306.938 Q99.2509 304.646 102.631 303.859 M100.918 296.475 Q100.918 299.16 102.584 300.665 Q104.274 302.17 107.306 302.17 Q110.316 302.17 112.005 300.665 Q113.718 299.16 113.718 296.475 Q113.718 293.79 112.005 292.285 Q110.316 290.781 107.306 290.781 Q104.274 290.781 102.584 292.285 Q100.918 293.79 100.918 296.475 Z" fill="#000000" fill-rule="nonzero" fill-opacity="1" /><polyline clip-path="url(#clip032)" style="stroke:#009af9; stroke-linecap:round; stroke-linejoin:round; stroke-width:4; stroke-opacity:1; fill:none" points="229.703,1620.75 814.91,1121.2 1400.12,488.183 1985.32,615.955 2570.53,96.8724 "/>
<polyline clip-path="url(#clip032)" style="stroke:#e26f46; stroke-linecap:round; stroke-linejoin:round; stroke-width:4; stroke-opacity:1; fill:none" points="229.703,1404.47 814.91,358.979 1400.12,340.257 1985.32,539.904 2570.53,1449.91 "/>
<circle clip-path="url(#clip032)" cx="229.703" cy="719.489" r="14.4" fill="#3da44d" fill-rule="evenodd" fill-opacity="1" stroke="#000000" stroke-opacity="1" stroke-width="3.84"/>
<circle clip-path="url(#clip032)" cx="814.91" cy="933.665" r="14.4" fill="#3da44d" fill-rule="evenodd" fill-opacity="1" stroke="#000000" stroke-opacity="1" stroke-width="3.84"/>
<circle clip-path="url(#clip032)" cx="1400.12" cy="1206.15" r="14.4" fill="#3da44d" fill-rule="evenodd" fill-opacity="1" stroke="#000000" stroke-opacity="1" stroke-width="3.84"/>
<circle clip-path="url(#clip032)" cx="1985.32" cy="1751.15" r="14.4" fill="#3da44d" fill-rule="evenodd" fill-opacity="1" stroke="#000000" stroke-opacity="1" stroke-width="3.84"/>
<circle clip-path="url(#clip032)" cx="2570.53" cy="726.848" r="14.4" fill="#3da44d" fill-rule="evenodd" fill-opacity="1" stroke="#000000" stroke-opacity="1" stroke-width="3.84"/>
<path clip-path="url(#clip030)" d="M1940.68 313.055 L2558.05 313.055 L2558.05 105.695 L1940.68 105.695  Z" fill="#ffffff" fill-rule="evenodd" fill-opacity="1"/>
<polyline clip-path="url(#clip030)" style="stroke:#000000; stroke-linecap:round; stroke-linejoin:round; stroke-width:4; stroke-opacity:1; fill:none" points="1940.68,313.055 2558.05,313.055 2558.05,105.695 1940.68,105.695 1940.68,313.055 "/>
<polyline clip-path="url(#clip030)" style="stroke:#009af9; stroke-linecap:round; stroke-linejoin:round; stroke-width:4; stroke-opacity:1; fill:none" points="1968.25,157.535 2133.67,157.535 "/>
<path clip-path="url(#clip030)" d="M2173.14 151.876 Q2169.71 151.876 2167.72 154.561 Q2165.73 157.223 2165.73 161.876 Q2165.73 166.528 2167.7 169.213 Q2169.69 171.875 2173.14 171.875 Q2176.54 171.875 2178.53 169.19 Q2180.53 166.505 2180.53 161.876 Q2180.53 157.269 2178.53 154.584 Q2176.54 151.876 2173.14 151.876 M2173.14 148.264 Q2178.7 148.264 2181.87 151.876 Q2185.04 155.487 2185.04 161.876 Q2185.04 168.241 2181.87 171.875 Q2178.7 175.487 2173.14 175.487 Q2167.56 175.487 2164.39 171.875 Q2161.24 168.241 2161.24 161.876 Q2161.24 155.487 2164.39 151.876 Q2167.56 148.264 2173.14 148.264 Z" fill="#000000" fill-rule="nonzero" fill-opacity="1" /><path clip-path="url(#clip030)" d="M2207.12 152.871 Q2206.4 152.454 2205.55 152.269 Q2204.71 152.061 2203.7 152.061 Q2200.09 152.061 2198.14 154.422 Q2196.22 156.76 2196.22 161.158 L2196.22 174.815 L2191.94 174.815 L2191.94 148.889 L2196.22 148.889 L2196.22 152.917 Q2197.56 150.556 2199.71 149.422 Q2201.87 148.264 2204.95 148.264 Q2205.39 148.264 2205.92 148.334 Q2206.45 148.38 2207.1 148.496 L2207.12 152.871 Z" fill="#000000" fill-rule="nonzero" fill-opacity="1" /><path clip-path="url(#clip030)" d="M2211.59 148.889 L2215.85 148.889 L2215.85 174.815 L2211.59 174.815 L2211.59 148.889 M2211.59 138.797 L2215.85 138.797 L2215.85 144.19 L2211.59 144.19 L2211.59 138.797 Z" fill="#000000" fill-rule="nonzero" fill-opacity="1" /><path clip-path="url(#clip030)" d="M2241.82 161.551 Q2241.82 156.922 2239.9 154.376 Q2238 151.829 2234.55 151.829 Q2231.13 151.829 2229.21 154.376 Q2227.31 156.922 2227.31 161.551 Q2227.31 166.158 2229.21 168.704 Q2231.13 171.25 2234.55 171.25 Q2238 171.25 2239.9 168.704 Q2241.82 166.158 2241.82 161.551 M2246.08 171.598 Q2246.08 178.218 2243.14 181.436 Q2240.2 184.676 2234.14 184.676 Q2231.89 184.676 2229.9 184.329 Q2227.91 184.005 2226.03 183.311 L2226.03 179.167 Q2227.91 180.186 2229.74 180.672 Q2231.57 181.158 2233.46 181.158 Q2237.65 181.158 2239.74 178.959 Q2241.82 176.783 2241.82 172.362 L2241.82 170.255 Q2240.5 172.547 2238.44 173.681 Q2236.38 174.815 2233.51 174.815 Q2228.74 174.815 2225.83 171.181 Q2222.91 167.547 2222.91 161.551 Q2222.91 155.533 2225.83 151.899 Q2228.74 148.264 2233.51 148.264 Q2236.38 148.264 2238.44 149.399 Q2240.5 150.533 2241.82 152.825 L2241.82 148.889 L2246.08 148.889 L2246.08 171.598 Z" fill="#000000" fill-rule="nonzero" fill-opacity="1" /><path clip-path="url(#clip030)" d="M2254.85 148.889 L2259.11 148.889 L2259.11 174.815 L2254.85 174.815 L2254.85 148.889 M2254.85 138.797 L2259.11 138.797 L2259.11 144.19 L2254.85 144.19 L2254.85 138.797 Z" fill="#000000" fill-rule="nonzero" fill-opacity="1" /><path clip-path="url(#clip030)" d="M2289.58 159.167 L2289.58 174.815 L2285.32 174.815 L2285.32 159.306 Q2285.32 155.626 2283.88 153.797 Q2282.45 151.968 2279.58 151.968 Q2276.13 151.968 2274.14 154.167 Q2272.14 156.366 2272.14 160.163 L2272.14 174.815 L2267.86 174.815 L2267.86 148.889 L2272.14 148.889 L2272.14 152.917 Q2273.67 150.579 2275.73 149.422 Q2277.82 148.264 2280.52 148.264 Q2284.99 148.264 2287.28 151.042 Q2289.58 153.797 2289.58 159.167 Z" fill="#000000" fill-rule="nonzero" fill-opacity="1" /><path clip-path="url(#clip030)" d="M2309.85 161.783 Q2304.69 161.783 2302.7 162.963 Q2300.71 164.144 2300.71 166.991 Q2300.71 169.26 2302.19 170.602 Q2303.7 171.922 2306.27 171.922 Q2309.81 171.922 2311.94 169.422 Q2314.09 166.899 2314.09 162.732 L2314.09 161.783 L2309.85 161.783 M2318.35 160.024 L2318.35 174.815 L2314.09 174.815 L2314.09 170.88 Q2312.63 173.241 2310.45 174.375 Q2308.28 175.487 2305.13 175.487 Q2301.15 175.487 2298.79 173.264 Q2296.45 171.019 2296.45 167.269 Q2296.45 162.894 2299.37 160.672 Q2302.31 158.45 2308.12 158.45 L2314.09 158.45 L2314.09 158.033 Q2314.09 155.093 2312.14 153.496 Q2310.22 151.876 2306.73 151.876 Q2304.51 151.876 2302.4 152.408 Q2300.29 152.94 2298.35 154.005 L2298.35 150.07 Q2300.69 149.167 2302.89 148.727 Q2305.08 148.264 2307.17 148.264 Q2312.79 148.264 2315.57 151.181 Q2318.35 154.098 2318.35 160.024 Z" fill="#000000" fill-rule="nonzero" fill-opacity="1" /><path clip-path="url(#clip030)" d="M2327.12 138.797 L2331.38 138.797 L2331.38 174.815 L2327.12 174.815 L2327.12 138.797 Z" fill="#000000" fill-rule="nonzero" fill-opacity="1" /><path clip-path="url(#clip030)" d="M2372.42 152.825 L2372.42 138.797 L2376.68 138.797 L2376.68 174.815 L2372.42 174.815 L2372.42 170.926 Q2371.08 173.241 2369.02 174.375 Q2366.98 175.487 2364.11 175.487 Q2359.41 175.487 2356.45 171.737 Q2353.51 167.987 2353.51 161.876 Q2353.51 155.764 2356.45 152.014 Q2359.41 148.264 2364.11 148.264 Q2366.98 148.264 2369.02 149.399 Q2371.08 150.51 2372.42 152.825 M2357.91 161.876 Q2357.91 166.575 2359.83 169.26 Q2361.77 171.922 2365.15 171.922 Q2368.53 171.922 2370.48 169.26 Q2372.42 166.575 2372.42 161.876 Q2372.42 157.176 2370.48 154.514 Q2368.53 151.829 2365.15 151.829 Q2361.77 151.829 2359.83 154.514 Q2357.91 157.176 2357.91 161.876 Z" fill="#000000" fill-rule="nonzero" fill-opacity="1" /><path clip-path="url(#clip030)" d="M2397.24 161.783 Q2392.07 161.783 2390.08 162.963 Q2388.09 164.144 2388.09 166.991 Q2388.09 169.26 2389.57 170.602 Q2391.08 171.922 2393.65 171.922 Q2397.19 171.922 2399.32 169.422 Q2401.47 166.899 2401.47 162.732 L2401.47 161.783 L2397.24 161.783 M2405.73 160.024 L2405.73 174.815 L2401.47 174.815 L2401.47 170.88 Q2400.01 173.241 2397.84 174.375 Q2395.66 175.487 2392.51 175.487 Q2388.53 175.487 2386.17 173.264 Q2383.83 171.019 2383.83 167.269 Q2383.83 162.894 2386.75 160.672 Q2389.69 158.45 2395.5 158.45 L2401.47 158.45 L2401.47 158.033 Q2401.47 155.093 2399.53 153.496 Q2397.61 151.876 2394.11 151.876 Q2391.89 151.876 2389.78 152.408 Q2387.68 152.94 2385.73 154.005 L2385.73 150.07 Q2388.07 149.167 2390.27 148.727 Q2392.47 148.264 2394.55 148.264 Q2400.18 148.264 2402.95 151.181 Q2405.73 154.098 2405.73 160.024 Z" fill="#000000" fill-rule="nonzero" fill-opacity="1" /><path clip-path="url(#clip030)" d="M2418.72 141.528 L2418.72 148.889 L2427.49 148.889 L2427.49 152.2 L2418.72 152.2 L2418.72 166.274 Q2418.72 169.445 2419.57 170.348 Q2420.45 171.25 2423.12 171.25 L2427.49 171.25 L2427.49 174.815 L2423.12 174.815 Q2418.19 174.815 2416.31 172.987 Q2414.44 171.135 2414.44 166.274 L2414.44 152.2 L2411.31 152.2 L2411.31 148.889 L2414.44 148.889 L2414.44 141.528 L2418.72 141.528 Z" fill="#000000" fill-rule="nonzero" fill-opacity="1" /><path clip-path="url(#clip030)" d="M2444.88 161.783 Q2439.71 161.783 2437.72 162.963 Q2435.73 164.144 2435.73 166.991 Q2435.73 169.26 2437.21 170.602 Q2438.72 171.922 2441.29 171.922 Q2444.83 171.922 2446.96 169.422 Q2449.11 166.899 2449.11 162.732 L2449.11 161.783 L2444.88 161.783 M2453.37 160.024 L2453.37 174.815 L2449.11 174.815 L2449.11 170.88 Q2447.65 173.241 2445.48 174.375 Q2443.3 175.487 2440.15 175.487 Q2436.17 175.487 2433.81 173.264 Q2431.47 171.019 2431.47 167.269 Q2431.47 162.894 2434.39 160.672 Q2437.33 158.45 2443.14 158.45 L2449.11 158.45 L2449.11 158.033 Q2449.11 155.093 2447.17 153.496 Q2445.25 151.876 2441.75 151.876 Q2439.53 151.876 2437.42 152.408 Q2435.32 152.94 2433.37 154.005 L2433.37 150.07 Q2435.71 149.167 2437.91 148.727 Q2440.11 148.264 2442.19 148.264 Q2447.82 148.264 2450.59 151.181 Q2453.37 154.098 2453.37 160.024 Z" fill="#000000" fill-rule="nonzero" fill-opacity="1" /><polyline clip-path="url(#clip030)" style="stroke:#e26f46; stroke-linecap:round; stroke-linejoin:round; stroke-width:4; stroke-opacity:1; fill:none" points="1968.25,209.375 2133.67,209.375 "/>
<path clip-path="url(#clip030)" d="M2182.96 211.007 L2182.96 226.655 L2178.7 226.655 L2178.7 211.146 Q2178.7 207.466 2177.26 205.637 Q2175.83 203.808 2172.96 203.808 Q2169.51 203.808 2167.52 206.007 Q2165.53 208.206 2165.53 212.003 L2165.53 226.655 L2161.24 226.655 L2161.24 200.729 L2165.53 200.729 L2165.53 204.757 Q2167.05 202.419 2169.11 201.262 Q2171.2 200.104 2173.9 200.104 Q2178.37 200.104 2180.66 202.882 Q2182.96 205.637 2182.96 211.007 Z" fill="#000000" fill-rule="nonzero" fill-opacity="1" /><path clip-path="url(#clip030)" d="M2213.63 212.628 L2213.63 214.711 L2194.04 214.711 Q2194.32 219.109 2196.68 221.424 Q2199.07 223.715 2203.3 223.715 Q2205.76 223.715 2208.05 223.114 Q2210.36 222.512 2212.63 221.308 L2212.63 225.336 Q2210.34 226.308 2207.93 226.817 Q2205.52 227.327 2203.05 227.327 Q2196.84 227.327 2193.21 223.715 Q2189.6 220.104 2189.6 213.947 Q2189.6 207.581 2193.03 203.854 Q2196.47 200.104 2202.31 200.104 Q2207.54 200.104 2210.57 203.484 Q2213.63 206.841 2213.63 212.628 M2209.37 211.378 Q2209.32 207.882 2207.4 205.799 Q2205.5 203.716 2202.35 203.716 Q2198.79 203.716 2196.64 205.729 Q2194.51 207.743 2194.18 211.401 L2209.37 211.378 Z" fill="#000000" fill-rule="nonzero" fill-opacity="1" /><path clip-path="url(#clip030)" d="M2218.14 200.729 L2222.4 200.729 L2227.72 220.961 L2233.02 200.729 L2238.05 200.729 L2243.37 220.961 L2248.67 200.729 L2252.93 200.729 L2246.15 226.655 L2241.13 226.655 L2235.55 205.405 L2229.95 226.655 L2224.92 226.655 L2218.14 200.729 Z" fill="#000000" fill-rule="nonzero" fill-opacity="1" /><path clip-path="url(#clip030)" d="M2291.52 204.665 L2291.52 190.637 L2295.78 190.637 L2295.78 226.655 L2291.52 226.655 L2291.52 222.766 Q2290.18 225.081 2288.12 226.215 Q2286.08 227.327 2283.21 227.327 Q2278.51 227.327 2275.55 223.577 Q2272.61 219.827 2272.61 213.716 Q2272.61 207.604 2275.55 203.854 Q2278.51 200.104 2283.21 200.104 Q2286.08 200.104 2288.12 201.239 Q2290.18 202.35 2291.52 204.665 M2277.01 213.716 Q2277.01 218.415 2278.93 221.1 Q2280.87 223.762 2284.25 223.762 Q2287.63 223.762 2289.58 221.1 Q2291.52 218.415 2291.52 213.716 Q2291.52 209.016 2289.58 206.354 Q2287.63 203.669 2284.25 203.669 Q2280.87 203.669 2278.93 206.354 Q2277.01 209.016 2277.01 213.716 Z" fill="#000000" fill-rule="nonzero" fill-opacity="1" /><path clip-path="url(#clip030)" d="M2316.33 213.623 Q2311.17 213.623 2309.18 214.803 Q2307.19 215.984 2307.19 218.831 Q2307.19 221.1 2308.67 222.442 Q2310.18 223.762 2312.75 223.762 Q2316.29 223.762 2318.42 221.262 Q2320.57 218.739 2320.57 214.572 L2320.57 213.623 L2316.33 213.623 M2324.83 211.864 L2324.83 226.655 L2320.57 226.655 L2320.57 222.72 Q2319.11 225.081 2316.94 226.215 Q2314.76 227.327 2311.61 227.327 Q2307.63 227.327 2305.27 225.104 Q2302.93 222.859 2302.93 219.109 Q2302.93 214.734 2305.85 212.512 Q2308.79 210.29 2314.6 210.29 L2320.57 210.29 L2320.57 209.873 Q2320.57 206.933 2318.63 205.336 Q2316.7 203.716 2313.21 203.716 Q2310.99 203.716 2308.88 204.248 Q2306.77 204.78 2304.83 205.845 L2304.83 201.91 Q2307.17 201.007 2309.37 200.567 Q2311.57 200.104 2313.65 200.104 Q2319.27 200.104 2322.05 203.021 Q2324.83 205.938 2324.83 211.864 Z" fill="#000000" fill-rule="nonzero" fill-opacity="1" /><path clip-path="url(#clip030)" d="M2337.82 193.368 L2337.82 200.729 L2346.59 200.729 L2346.59 204.04 L2337.82 204.04 L2337.82 218.114 Q2337.82 221.285 2338.67 222.188 Q2339.55 223.09 2342.21 223.09 L2346.59 223.09 L2346.59 226.655 L2342.21 226.655 Q2337.28 226.655 2335.41 224.827 Q2333.53 222.975 2333.53 218.114 L2333.53 204.04 L2330.41 204.04 L2330.41 200.729 L2333.53 200.729 L2333.53 193.368 L2337.82 193.368 Z" fill="#000000" fill-rule="nonzero" fill-opacity="1" /><path clip-path="url(#clip030)" d="M2363.97 213.623 Q2358.81 213.623 2356.82 214.803 Q2354.83 215.984 2354.83 218.831 Q2354.83 221.1 2356.31 222.442 Q2357.82 223.762 2360.39 223.762 Q2363.93 223.762 2366.06 221.262 Q2368.21 218.739 2368.21 214.572 L2368.21 213.623 L2363.97 213.623 M2372.47 211.864 L2372.47 226.655 L2368.21 226.655 L2368.21 222.72 Q2366.75 225.081 2364.58 226.215 Q2362.4 227.327 2359.25 227.327 Q2355.27 227.327 2352.91 225.104 Q2350.57 222.859 2350.57 219.109 Q2350.57 214.734 2353.49 212.512 Q2356.43 210.29 2362.24 210.29 L2368.21 210.29 L2368.21 209.873 Q2368.21 206.933 2366.26 205.336 Q2364.34 203.716 2360.85 203.716 Q2358.63 203.716 2356.52 204.248 Q2354.41 204.78 2352.47 205.845 L2352.47 201.91 Q2354.81 201.007 2357.01 200.567 Q2359.2 200.104 2361.29 200.104 Q2366.91 200.104 2369.69 203.021 Q2372.47 205.938 2372.47 211.864 Z" fill="#000000" fill-rule="nonzero" fill-opacity="1" /><circle clip-path="url(#clip030)" cx="2050.96" cy="261.215" r="23.04" fill="#3da44d" fill-rule="evenodd" fill-opacity="1" stroke="#000000" stroke-opacity="1" stroke-width="6.144"/>
<path clip-path="url(#clip030)" d="M2185.27 264.468 L2185.27 266.551 L2165.69 266.551 Q2165.96 270.949 2168.33 273.264 Q2170.71 275.555 2174.95 275.555 Q2177.4 275.555 2179.69 274.954 Q2182.01 274.352 2184.28 273.148 L2184.28 277.176 Q2181.98 278.148 2179.58 278.657 Q2177.17 279.167 2174.69 279.167 Q2168.49 279.167 2164.85 275.555 Q2161.24 271.944 2161.24 265.787 Q2161.24 259.421 2164.67 255.694 Q2168.12 251.944 2173.95 251.944 Q2179.18 251.944 2182.21 255.324 Q2185.27 258.681 2185.27 264.468 M2181.01 263.218 Q2180.96 259.722 2179.04 257.639 Q2177.15 255.556 2174 255.556 Q2170.43 255.556 2168.28 257.569 Q2166.15 259.583 2165.83 263.241 L2181.01 263.218 Z" fill="#000000" fill-rule="nonzero" fill-opacity="1" /><path clip-path="url(#clip030)" d="M2189.21 252.569 L2193.72 252.569 L2201.82 274.329 L2209.92 252.569 L2214.44 252.569 L2204.71 278.495 L2198.93 278.495 L2189.21 252.569 Z" fill="#000000" fill-rule="nonzero" fill-opacity="1" /><path clip-path="url(#clip030)" d="M2242.49 264.468 L2242.49 266.551 L2222.91 266.551 Q2223.19 270.949 2225.55 273.264 Q2227.93 275.555 2232.17 275.555 Q2234.62 275.555 2236.91 274.954 Q2239.23 274.352 2241.5 273.148 L2241.5 277.176 Q2239.21 278.148 2236.8 278.657 Q2234.39 279.167 2231.91 279.167 Q2225.71 279.167 2222.08 275.555 Q2218.46 271.944 2218.46 265.787 Q2218.46 259.421 2221.89 255.694 Q2225.34 251.944 2231.17 251.944 Q2236.4 251.944 2239.44 255.324 Q2242.49 258.681 2242.49 264.468 M2238.23 263.218 Q2238.19 259.722 2236.27 257.639 Q2234.37 255.556 2231.22 255.556 Q2227.65 255.556 2225.5 257.569 Q2223.37 259.583 2223.05 263.241 L2238.23 263.218 Z" fill="#000000" fill-rule="nonzero" fill-opacity="1" /><path clip-path="url(#clip030)" d="M2271.03 262.847 L2271.03 278.495 L2266.77 278.495 L2266.77 262.986 Q2266.77 259.306 2265.34 257.477 Q2263.9 255.648 2261.03 255.648 Q2257.58 255.648 2255.59 257.847 Q2253.6 260.046 2253.6 263.843 L2253.6 278.495 L2249.32 278.495 L2249.32 252.569 L2253.6 252.569 L2253.6 256.597 Q2255.13 254.259 2257.19 253.102 Q2259.27 251.944 2261.98 251.944 Q2266.45 251.944 2268.74 254.722 Q2271.03 257.477 2271.03 262.847 Z" fill="#000000" fill-rule="nonzero" fill-opacity="1" /><path clip-path="url(#clip030)" d="M2314.78 257.546 Q2316.38 254.676 2318.6 253.31 Q2320.83 251.944 2323.83 251.944 Q2327.89 251.944 2330.08 254.792 Q2332.28 257.616 2332.28 262.847 L2332.28 278.495 L2328 278.495 L2328 262.986 Q2328 259.259 2326.68 257.454 Q2325.36 255.648 2322.65 255.648 Q2319.34 255.648 2317.42 257.847 Q2315.5 260.046 2315.5 263.843 L2315.5 278.495 L2311.22 278.495 L2311.22 262.986 Q2311.22 259.236 2309.9 257.454 Q2308.58 255.648 2305.83 255.648 Q2302.56 255.648 2300.64 257.87 Q2298.72 260.069 2298.72 263.843 L2298.72 278.495 L2294.44 278.495 L2294.44 252.569 L2298.72 252.569 L2298.72 256.597 Q2300.18 254.213 2302.21 253.079 Q2304.25 251.944 2307.05 251.944 Q2309.88 251.944 2311.84 253.38 Q2313.83 254.815 2314.78 257.546 Z" fill="#000000" fill-rule="nonzero" fill-opacity="1" /><path clip-path="url(#clip030)" d="M2350.83 255.556 Q2347.4 255.556 2345.41 258.241 Q2343.42 260.903 2343.42 265.556 Q2343.42 270.208 2345.39 272.893 Q2347.38 275.555 2350.83 275.555 Q2354.23 275.555 2356.22 272.87 Q2358.21 270.185 2358.21 265.556 Q2358.21 260.949 2356.22 258.264 Q2354.23 255.556 2350.83 255.556 M2350.83 251.944 Q2356.38 251.944 2359.55 255.556 Q2362.72 259.167 2362.72 265.556 Q2362.72 271.921 2359.55 275.555 Q2356.38 279.167 2350.83 279.167 Q2345.25 279.167 2342.08 275.555 Q2338.93 271.921 2338.93 265.556 Q2338.93 259.167 2342.08 255.556 Q2345.25 251.944 2350.83 251.944 Z" fill="#000000" fill-rule="nonzero" fill-opacity="1" /><path clip-path="url(#clip030)" d="M2384.81 256.551 Q2384.09 256.134 2383.23 255.949 Q2382.4 255.741 2381.38 255.741 Q2377.77 255.741 2375.82 258.102 Q2373.9 260.44 2373.9 264.838 L2373.9 278.495 L2369.62 278.495 L2369.62 252.569 L2373.9 252.569 L2373.9 256.597 Q2375.25 254.236 2377.4 253.102 Q2379.55 251.944 2382.63 251.944 Q2383.07 251.944 2383.6 252.014 Q2384.14 252.06 2384.78 252.176 L2384.81 256.551 Z" fill="#000000" fill-rule="nonzero" fill-opacity="1" /><path clip-path="url(#clip030)" d="M2410.41 264.468 L2410.41 266.551 L2390.82 266.551 Q2391.1 270.949 2393.46 273.264 Q2395.85 275.555 2400.08 275.555 Q2402.54 275.555 2404.83 274.954 Q2407.14 274.352 2409.41 273.148 L2409.41 277.176 Q2407.12 278.148 2404.71 278.657 Q2402.31 279.167 2399.83 279.167 Q2393.63 279.167 2389.99 275.555 Q2386.38 271.944 2386.38 265.787 Q2386.38 259.421 2389.81 255.694 Q2393.26 251.944 2399.09 251.944 Q2404.32 251.944 2407.35 255.324 Q2410.41 258.681 2410.41 264.468 M2406.15 263.218 Q2406.1 259.722 2404.18 257.639 Q2402.28 255.556 2399.14 255.556 Q2395.57 255.556 2393.42 257.569 Q2391.29 259.583 2390.96 263.241 L2406.15 263.218 Z" fill="#000000" fill-rule="nonzero" fill-opacity="1" /><path clip-path="url(#clip030)" d="M2449.53 256.505 L2449.53 242.477 L2453.79 242.477 L2453.79 278.495 L2449.53 278.495 L2449.53 274.606 Q2448.19 276.921 2446.13 278.055 Q2444.09 279.167 2441.22 279.167 Q2436.52 279.167 2433.56 275.417 Q2430.62 271.667 2430.62 265.556 Q2430.62 259.444 2433.56 255.694 Q2436.52 251.944 2441.22 251.944 Q2444.09 251.944 2446.13 253.079 Q2448.19 254.19 2449.53 256.505 M2435.01 265.556 Q2435.01 270.255 2436.94 272.94 Q2438.88 275.602 2442.26 275.602 Q2445.64 275.602 2447.58 272.94 Q2449.53 270.255 2449.53 265.556 Q2449.53 260.856 2447.58 258.194 Q2445.64 255.509 2442.26 255.509 Q2438.88 255.509 2436.94 258.194 Q2435.01 260.856 2435.01 265.556 Z" fill="#000000" fill-rule="nonzero" fill-opacity="1" /><path clip-path="url(#clip030)" d="M2474.34 265.463 Q2469.18 265.463 2467.19 266.643 Q2465.2 267.824 2465.2 270.671 Q2465.2 272.94 2466.68 274.282 Q2468.19 275.602 2470.75 275.602 Q2474.3 275.602 2476.43 273.102 Q2478.58 270.579 2478.58 266.412 L2478.58 265.463 L2474.34 265.463 M2482.84 263.704 L2482.84 278.495 L2478.58 278.495 L2478.58 274.56 Q2477.12 276.921 2474.94 278.055 Q2472.77 279.167 2469.62 279.167 Q2465.64 279.167 2463.28 276.944 Q2460.94 274.699 2460.94 270.949 Q2460.94 266.574 2463.86 264.352 Q2466.8 262.13 2472.61 262.13 L2478.58 262.13 L2478.58 261.713 Q2478.58 258.773 2476.63 257.176 Q2474.71 255.556 2471.22 255.556 Q2469 255.556 2466.89 256.088 Q2464.78 256.62 2462.84 257.685 L2462.84 253.75 Q2465.18 252.847 2467.38 252.407 Q2469.57 251.944 2471.66 251.944 Q2477.28 251.944 2480.06 254.861 Q2482.84 257.778 2482.84 263.704 Z" fill="#000000" fill-rule="nonzero" fill-opacity="1" /><path clip-path="url(#clip030)" d="M2495.82 245.208 L2495.82 252.569 L2504.6 252.569 L2504.6 255.88 L2495.82 255.88 L2495.82 269.954 Q2495.82 273.125 2496.68 274.028 Q2497.56 274.93 2500.22 274.93 L2504.6 274.93 L2504.6 278.495 L2500.22 278.495 Q2495.29 278.495 2493.42 276.667 Q2491.54 274.815 2491.54 269.954 L2491.54 255.88 L2488.42 255.88 L2488.42 252.569 L2491.54 252.569 L2491.54 245.208 L2495.82 245.208 Z" fill="#000000" fill-rule="nonzero" fill-opacity="1" /><path clip-path="url(#clip030)" d="M2521.98 265.463 Q2516.82 265.463 2514.83 266.643 Q2512.84 267.824 2512.84 270.671 Q2512.84 272.94 2514.32 274.282 Q2515.82 275.602 2518.39 275.602 Q2521.94 275.602 2524.06 273.102 Q2526.22 270.579 2526.22 266.412 L2526.22 265.463 L2521.98 265.463 M2530.48 263.704 L2530.48 278.495 L2526.22 278.495 L2526.22 274.56 Q2524.76 276.921 2522.58 278.055 Q2520.41 279.167 2517.26 279.167 Q2513.28 279.167 2510.92 276.944 Q2508.58 274.699 2508.58 270.949 Q2508.58 266.574 2511.5 264.352 Q2514.44 262.13 2520.25 262.13 L2526.22 262.13 L2526.22 261.713 Q2526.22 258.773 2524.27 257.176 Q2522.35 255.556 2518.86 255.556 Q2516.63 255.556 2514.53 256.088 Q2512.42 256.62 2510.48 257.685 L2510.48 253.75 Q2512.81 252.847 2515.01 252.407 Q2517.21 251.944 2519.3 251.944 Q2524.92 251.944 2527.7 254.861 Q2530.48 257.778 2530.48 263.704 Z" fill="#000000" fill-rule="nonzero" fill-opacity="1" /></svg>
