<?xml version="1.0" encoding="utf-8"?>
<svg xmlns="http://www.w3.org/2000/svg" xmlns:xlink="http://www.w3.org/1999/xlink" width="600" height="400" viewBox="0 0 2400 1600">
<defs>
  <clipPath id="clip730">
    <rect x="0" y="0" width="2400" height="1600"/>
  </clipPath>
</defs>
<path clip-path="url(#clip730)" d="M0 1600 L2400 1600 L2400 0 L0 0  Z" fill="#ffffff" fill-rule="evenodd" fill-opacity="1"/>
<defs>
  <clipPath id="clip731">
    <rect x="480" y="0" width="1681" height="1600"/>
  </clipPath>
</defs>
<path clip-path="url(#clip730)" d="M137.964 1486.45 L2352.76 1486.45 L2352.76 47.2441 L137.964 47.2441  Z" fill="#ffffff" fill-rule="evenodd" fill-opacity="1"/>
<defs>
  <clipPath id="clip732">
    <rect x="137" y="47" width="2216" height="1440"/>
  </clipPath>
</defs>
<polyline clip-path="url(#clip732)" style="stroke:#000000; stroke-linecap:round; stroke-linejoin:round; stroke-width:2; stroke-opacity:0.1; fill:none" points="200.647,1486.45 200.647,47.2441 "/>
<polyline clip-path="url(#clip732)" style="stroke:#000000; stroke-linecap:round; stroke-linejoin:round; stroke-width:2; stroke-opacity:0.1; fill:none" points="897.122,1486.45 897.122,47.2441 "/>
<polyline clip-path="url(#clip732)" style="stroke:#000000; stroke-linecap:round; stroke-linejoin:round; stroke-width:2; stroke-opacity:0.1; fill:none" points="1593.6,1486.45 1593.6,47.2441 "/>
<polyline clip-path="url(#clip732)" style="stroke:#000000; stroke-linecap:round; stroke-linejoin:round; stroke-width:2; stroke-opacity:0.1; fill:none" points="2290.07,1486.45 2290.07,47.2441 "/>
<polyline clip-path="url(#clip730)" style="stroke:#000000; stroke-linecap:round; stroke-linejoin:round; stroke-width:4; stroke-opacity:1; fill:none" points="137.964,1486.45 2352.76,1486.45 "/>
<polyline clip-path="url(#clip730)" style="stroke:#000000; stroke-linecap:round; stroke-linejoin:round; stroke-width:4; stroke-opacity:1; fill:none" points="200.647,1486.45 200.647,1467.55 "/>
<polyline clip-path="url(#clip730)" style="stroke:#000000; stroke-linecap:round; stroke-linejoin:round; stroke-width:4; stroke-opacity:1; fill:none" points="897.122,1486.45 897.122,1467.55 "/>
<polyline clip-path="url(#clip730)" style="stroke:#000000; stroke-linecap:round; stroke-linejoin:round; stroke-width:4; stroke-opacity:1; fill:none" points="1593.6,1486.45 1593.6,1467.55 "/>
<polyline clip-path="url(#clip730)" style="stroke:#000000; stroke-linecap:round; stroke-linejoin:round; stroke-width:4; stroke-opacity:1; fill:none" points="2290.07,1486.45 2290.07,1467.55 "/>
<path clip-path="url(#clip730)" d="M191.029 1544.91 L198.668 1544.91 L198.668 1518.55 L190.358 1520.21 L190.358 1515.95 L198.621 1514.29 L203.297 1514.29 L203.297 1544.91 L210.936 1544.91 L210.936 1548.85 L191.029 1548.85 L191.029 1544.91 Z" fill="#000000" fill-rule="nonzero" fill-opacity="1" /><path clip-path="url(#clip730)" d="M891.775 1544.91 L908.094 1544.91 L908.094 1548.85 L886.15 1548.85 L886.15 1544.91 Q888.812 1542.16 893.395 1537.53 Q898.002 1532.88 899.182 1531.53 Q901.428 1529.01 902.307 1527.27 Q903.21 1525.51 903.21 1523.82 Q903.21 1521.07 901.266 1519.33 Q899.344 1517.6 896.243 1517.6 Q894.044 1517.6 891.59 1518.36 Q889.159 1519.13 886.382 1520.68 L886.382 1515.95 Q889.206 1514.82 891.659 1514.24 Q894.113 1513.66 896.15 1513.66 Q901.52 1513.66 904.715 1516.35 Q907.909 1519.03 907.909 1523.52 Q907.909 1525.65 907.099 1527.57 Q906.312 1529.47 904.206 1532.07 Q903.627 1532.74 900.525 1535.95 Q897.423 1539.15 891.775 1544.91 Z" fill="#000000" fill-rule="nonzero" fill-opacity="1" /><path clip-path="url(#clip730)" d="M1597.85 1530.21 Q1601.2 1530.93 1603.08 1533.2 Q1604.97 1535.47 1604.97 1538.8 Q1604.97 1543.92 1601.46 1546.72 Q1597.94 1549.52 1591.46 1549.52 Q1589.28 1549.52 1586.97 1549.08 Q1584.67 1548.66 1582.22 1547.81 L1582.22 1543.29 Q1584.16 1544.43 1586.48 1545.01 Q1588.79 1545.58 1591.32 1545.58 Q1595.72 1545.58 1598.01 1543.85 Q1600.32 1542.11 1600.32 1538.8 Q1600.32 1535.75 1598.17 1534.03 Q1596.04 1532.3 1592.22 1532.3 L1588.19 1532.3 L1588.19 1528.45 L1592.41 1528.45 Q1595.85 1528.45 1597.68 1527.09 Q1599.51 1525.7 1599.51 1523.11 Q1599.51 1520.45 1597.61 1519.03 Q1595.74 1517.6 1592.22 1517.6 Q1590.3 1517.6 1588.1 1518.01 Q1585.9 1518.43 1583.26 1519.31 L1583.26 1515.14 Q1585.92 1514.4 1588.24 1514.03 Q1590.58 1513.66 1592.64 1513.66 Q1597.96 1513.66 1601.06 1516.09 Q1604.16 1518.5 1604.16 1522.62 Q1604.16 1525.49 1602.52 1527.48 Q1600.88 1529.45 1597.85 1530.21 Z" fill="#000000" fill-rule="nonzero" fill-opacity="1" /><path clip-path="url(#clip730)" d="M2293.08 1518.36 L2281.28 1536.81 L2293.08 1536.81 L2293.08 1518.36 M2291.86 1514.29 L2297.74 1514.29 L2297.74 1536.81 L2302.67 1536.81 L2302.67 1540.7 L2297.74 1540.7 L2297.74 1548.85 L2293.08 1548.85 L2293.08 1540.7 L2277.48 1540.7 L2277.48 1536.19 L2291.86 1514.29 Z" fill="#000000" fill-rule="nonzero" fill-opacity="1" /><polyline clip-path="url(#clip732)" style="stroke:#000000; stroke-linecap:round; stroke-linejoin:round; stroke-width:2; stroke-opacity:0.1; fill:none" points="137.964,1264.68 2352.76,1264.68 "/>
<polyline clip-path="url(#clip732)" style="stroke:#000000; stroke-linecap:round; stroke-linejoin:round; stroke-width:2; stroke-opacity:0.1; fill:none" points="137.964,993.136 2352.76,993.136 "/>
<polyline clip-path="url(#clip732)" style="stroke:#000000; stroke-linecap:round; stroke-linejoin:round; stroke-width:2; stroke-opacity:0.1; fill:none" points="137.964,721.588 2352.76,721.588 "/>
<polyline clip-path="url(#clip732)" style="stroke:#000000; stroke-linecap:round; stroke-linejoin:round; stroke-width:2; stroke-opacity:0.1; fill:none" points="137.964,450.04 2352.76,450.04 "/>
<polyline clip-path="url(#clip732)" style="stroke:#000000; stroke-linecap:round; stroke-linejoin:round; stroke-width:2; stroke-opacity:0.1; fill:none" points="137.964,178.492 2352.76,178.492 "/>
<polyline clip-path="url(#clip730)" style="stroke:#000000; stroke-linecap:round; stroke-linejoin:round; stroke-width:4; stroke-opacity:1; fill:none" points="137.964,1486.45 137.964,47.2441 "/>
<polyline clip-path="url(#clip730)" style="stroke:#000000; stroke-linecap:round; stroke-linejoin:round; stroke-width:4; stroke-opacity:1; fill:none" points="137.964,1264.68 156.862,1264.68 "/>
<polyline clip-path="url(#clip730)" style="stroke:#000000; stroke-linecap:round; stroke-linejoin:round; stroke-width:4; stroke-opacity:1; fill:none" points="137.964,993.136 156.862,993.136 "/>
<polyline clip-path="url(#clip730)" style="stroke:#000000; stroke-linecap:round; stroke-linejoin:round; stroke-width:4; stroke-opacity:1; fill:none" points="137.964,721.588 156.862,721.588 "/>
<polyline clip-path="url(#clip730)" style="stroke:#000000; stroke-linecap:round; stroke-linejoin:round; stroke-width:4; stroke-opacity:1; fill:none" points="137.964,450.04 156.862,450.04 "/>
<polyline clip-path="url(#clip730)" style="stroke:#000000; stroke-linecap:round; stroke-linejoin:round; stroke-width:4; stroke-opacity:1; fill:none" points="137.964,178.492 156.862,178.492 "/>
<path clip-path="url(#clip730)" d="M94.8345 1263.33 Q98.1909 1264.05 100.066 1266.32 Q101.964 1268.58 101.964 1271.92 Q101.964 1277.03 98.4456 1279.83 Q94.9271 1282.64 88.4456 1282.64 Q86.2697 1282.64 83.9549 1282.2 Q81.6633 1281.78 79.2096 1280.92 L79.2096 1276.41 Q81.154 1277.54 83.4688 1278.12 Q85.7836 1278.7 88.3067 1278.7 Q92.7049 1278.7 94.9965 1276.96 Q97.3113 1275.23 97.3113 1271.92 Q97.3113 1268.86 95.1586 1267.15 Q93.0289 1265.41 89.2095 1265.41 L85.1818 1265.41 L85.1818 1261.57 L89.3947 1261.57 Q92.8438 1261.57 94.6724 1260.2 Q96.5011 1258.82 96.5011 1256.22 Q96.5011 1253.56 94.603 1252.15 Q92.728 1250.71 89.2095 1250.71 Q87.2882 1250.71 85.0892 1251.13 Q82.8901 1251.55 80.2512 1252.43 L80.2512 1248.26 Q82.9133 1247.52 85.2281 1247.15 Q87.566 1246.78 89.6262 1246.78 Q94.9502 1246.78 98.0521 1249.21 Q101.154 1251.62 101.154 1255.74 Q101.154 1258.61 99.5104 1260.6 Q97.8669 1262.57 94.8345 1263.33 Z" fill="#000000" fill-rule="nonzero" fill-opacity="1" /><path clip-path="url(#clip730)" d="M90.4364 991.272 Q87.2882 991.272 85.4364 993.425 Q83.6077 995.578 83.6077 999.328 Q83.6077 1003.05 85.4364 1005.23 Q87.2882 1007.38 90.4364 1007.38 Q93.5845 1007.38 95.4132 1005.23 Q97.265 1003.05 97.265 999.328 Q97.265 995.578 95.4132 993.425 Q93.5845 991.272 90.4364 991.272 M99.7187 976.62 L99.7187 980.879 Q97.9595 980.046 96.1539 979.606 Q94.3715 979.166 92.6123 979.166 Q87.9827 979.166 85.529 982.291 Q83.0984 985.416 82.7512 991.735 Q84.1169 989.722 86.1771 988.657 Q88.2373 987.569 90.7141 987.569 Q95.9224 987.569 98.9317 990.74 Q101.964 993.888 101.964 999.328 Q101.964 1004.65 98.8159 1007.87 Q95.6678 1011.09 90.4364 1011.09 Q84.441 1011.09 81.2697 1006.5 Q78.0985 1001.9 78.0985 993.171 Q78.0985 984.976 81.9873 980.115 Q85.8762 975.231 92.4271 975.231 Q94.1863 975.231 95.9687 975.578 Q97.7743 975.925 99.7187 976.62 Z" fill="#000000" fill-rule="nonzero" fill-opacity="1" /><path clip-path="url(#clip730)" d="M80.3438 738.15 L80.3438 733.891 Q82.1031 734.725 83.9086 735.164 Q85.7142 735.604 87.4503 735.604 Q92.0799 735.604 94.5104 732.502 Q96.9641 729.377 97.3113 723.035 Q95.9687 725.025 93.9086 726.09 Q91.8484 727.155 89.3484 727.155 Q84.1632 727.155 81.1309 724.03 Q78.1216 720.882 78.1216 715.442 Q78.1216 710.118 81.2697 706.901 Q84.4179 703.683 89.6493 703.683 Q95.6447 703.683 98.7928 708.289 Q101.964 712.873 101.964 721.623 Q101.964 729.794 98.0752 734.678 Q94.2095 739.539 87.6586 739.539 Q85.8993 739.539 84.0938 739.192 Q82.2883 738.845 80.3438 738.15 M89.6493 723.498 Q92.7975 723.498 94.6262 721.345 Q96.478 719.192 96.478 715.442 Q96.478 711.715 94.6262 709.563 Q92.7975 707.387 89.6493 707.387 Q86.5012 707.387 84.6494 709.563 Q82.8207 711.715 82.8207 715.442 Q82.8207 719.192 84.6494 721.345 Q86.5012 723.498 89.6493 723.498 Z" fill="#000000" fill-rule="nonzero" fill-opacity="1" /><path clip-path="url(#clip730)" d="M52.2653 463.385 L59.9041 463.385 L59.9041 437.019 L51.594 438.686 L51.594 434.427 L59.8578 432.76 L64.5337 432.76 L64.5337 463.385 L72.1726 463.385 L72.1726 467.32 L52.2653 467.32 L52.2653 463.385 Z" fill="#000000" fill-rule="nonzero" fill-opacity="1" /><path clip-path="url(#clip730)" d="M85.6447 463.385 L101.964 463.385 L101.964 467.32 L80.0197 467.32 L80.0197 463.385 Q82.6818 460.63 87.2651 456.001 Q91.8715 451.348 93.0521 450.005 Q95.2974 447.482 96.1771 445.746 Q97.0798 443.987 97.0798 442.297 Q97.0798 439.542 95.1354 437.806 Q93.2141 436.07 90.1123 436.07 Q87.9132 436.07 85.4595 436.834 Q83.029 437.598 80.2512 439.149 L80.2512 434.427 Q83.0753 433.293 85.529 432.714 Q87.9827 432.135 90.0197 432.135 Q95.39 432.135 98.5845 434.82 Q101.779 437.505 101.779 441.996 Q101.779 444.126 100.969 446.047 Q100.182 447.945 98.0752 450.538 Q97.4965 451.209 94.3947 454.427 Q91.2928 457.621 85.6447 463.385 Z" fill="#000000" fill-rule="nonzero" fill-opacity="1" /><path clip-path="url(#clip730)" d="M51.6634 191.837 L59.3023 191.837 L59.3023 165.471 L50.9921 167.138 L50.9921 162.879 L59.256 161.212 L63.9319 161.212 L63.9319 191.837 L71.5707 191.837 L71.5707 195.772 L51.6634 195.772 L51.6634 191.837 Z" fill="#000000" fill-rule="nonzero" fill-opacity="1" /><path clip-path="url(#clip730)" d="M81.0614 161.212 L99.4178 161.212 L99.4178 165.147 L85.3438 165.147 L85.3438 173.62 Q86.3623 173.272 87.3808 173.11 Q88.3993 172.925 89.4178 172.925 Q95.2049 172.925 98.5845 176.096 Q101.964 179.268 101.964 184.684 Q101.964 190.263 98.4919 193.365 Q95.0197 196.444 88.7003 196.444 Q86.5243 196.444 84.2558 196.073 Q82.0105 195.703 79.6031 194.962 L79.6031 190.263 Q81.6864 191.397 83.9086 191.953 Q86.1308 192.508 88.6077 192.508 Q92.6123 192.508 94.9502 190.402 Q97.2882 188.295 97.2882 184.684 Q97.2882 181.073 94.9502 178.967 Q92.6123 176.86 88.6077 176.86 Q86.7327 176.86 84.8577 177.277 Q83.0058 177.694 81.0614 178.573 L81.0614 161.212 Z" fill="#000000" fill-rule="nonzero" fill-opacity="1" /><polyline clip-path="url(#clip732)" style="stroke:#009af9; stroke-linecap:round; stroke-linejoin:round; stroke-width:4; stroke-opacity:1; fill:none" points="200.647,1445.72 897.122,1174.17 1593.6,721.588 2290.07,87.9763 "/>
<path clip-path="url(#clip730)" d="M211.79 198.898 L485.7 198.898 L485.7 95.2176 L211.79 95.2176  Z" fill="#ffffff" fill-rule="evenodd" fill-opacity="1"/>
<polyline clip-path="url(#clip730)" style="stroke:#000000; stroke-linecap:round; stroke-linejoin:round; stroke-width:4; stroke-opacity:1; fill:none" points="211.79,198.898 485.7,198.898 485.7,95.2176 211.79,95.2176 211.79,198.898 "/>
<polyline clip-path="url(#clip730)" style="stroke:#009af9; stroke-linecap:round; stroke-linejoin:round; stroke-width:4; stroke-opacity:1; fill:none" points="236.399,147.058 384.052,147.058 "/>
<path clip-path="url(#clip730)" d="M422.503 166.745 Q420.698 171.375 418.985 172.787 Q417.272 174.199 414.402 174.199 L410.999 174.199 L410.999 170.634 L413.499 170.634 Q415.258 170.634 416.23 169.8 Q417.202 168.967 418.383 165.865 L419.147 163.921 L408.661 138.412 L413.175 138.412 L421.277 158.689 L429.378 138.412 L433.892 138.412 L422.503 166.745 Z" fill="#000000" fill-rule="nonzero" fill-opacity="1" /><path clip-path="url(#clip730)" d="M441.184 160.402 L448.823 160.402 L448.823 134.037 L440.513 135.703 L440.513 131.444 L448.776 129.778 L453.452 129.778 L453.452 160.402 L461.091 160.402 L461.091 164.338 L441.184 164.338 L441.184 160.402 Z" fill="#000000" fill-rule="nonzero" fill-opacity="1" /></svg>
