<?xml version="1.0" encoding="utf-8"?>
<svg xmlns="http://www.w3.org/2000/svg" xmlns:xlink="http://www.w3.org/1999/xlink" width="600" height="400" viewBox="0 0 2400 1600">
<defs>
  <clipPath id="clip570">
    <rect x="0" y="0" width="2400" height="1600"/>
  </clipPath>
</defs>
<path clip-path="url(#clip570)" d="M0 1600 L2400 1600 L2400 0 L0 0  Z" fill="#ffffff" fill-rule="evenodd" fill-opacity="1"/>
<defs>
  <clipPath id="clip571">
    <rect x="480" y="0" width="1681" height="1600"/>
  </clipPath>
</defs>
<path clip-path="url(#clip570)" d="M149.191 1486.45 L2352.76 1486.45 L2352.76 47.2441 L149.191 47.2441  Z" fill="#ffffff" fill-rule="evenodd" fill-opacity="1"/>
<defs>
  <clipPath id="clip572">
    <rect x="149" y="47" width="2205" height="1440"/>
  </clipPath>
</defs>
<polyline clip-path="url(#clip572)" style="stroke:#000000; stroke-linecap:round; stroke-linejoin:round; stroke-width:2; stroke-opacity:0.1; fill:none" points="436.319,1486.45 436.319,47.2441 "/>
<polyline clip-path="url(#clip572)" style="stroke:#000000; stroke-linecap:round; stroke-linejoin:round; stroke-width:2; stroke-opacity:0.1; fill:none" points="843.643,1486.45 843.643,47.2441 "/>
<polyline clip-path="url(#clip572)" style="stroke:#000000; stroke-linecap:round; stroke-linejoin:round; stroke-width:2; stroke-opacity:0.1; fill:none" points="1250.97,1486.45 1250.97,47.2441 "/>
<polyline clip-path="url(#clip572)" style="stroke:#000000; stroke-linecap:round; stroke-linejoin:round; stroke-width:2; stroke-opacity:0.1; fill:none" points="1658.29,1486.45 1658.29,47.2441 "/>
<polyline clip-path="url(#clip572)" style="stroke:#000000; stroke-linecap:round; stroke-linejoin:round; stroke-width:2; stroke-opacity:0.1; fill:none" points="2065.61,1486.45 2065.61,47.2441 "/>
<polyline clip-path="url(#clip570)" style="stroke:#000000; stroke-linecap:round; stroke-linejoin:round; stroke-width:4; stroke-opacity:1; fill:none" points="149.191,1486.45 2352.76,1486.45 "/>
<polyline clip-path="url(#clip570)" style="stroke:#000000; stroke-linecap:round; stroke-linejoin:round; stroke-width:4; stroke-opacity:1; fill:none" points="436.319,1486.45 436.319,1467.55 "/>
<polyline clip-path="url(#clip570)" style="stroke:#000000; stroke-linecap:round; stroke-linejoin:round; stroke-width:4; stroke-opacity:1; fill:none" points="843.643,1486.45 843.643,1467.55 "/>
<polyline clip-path="url(#clip570)" style="stroke:#000000; stroke-linecap:round; stroke-linejoin:round; stroke-width:4; stroke-opacity:1; fill:none" points="1250.97,1486.45 1250.97,1467.55 "/>
<polyline clip-path="url(#clip570)" style="stroke:#000000; stroke-linecap:round; stroke-linejoin:round; stroke-width:4; stroke-opacity:1; fill:none" points="1658.29,1486.45 1658.29,1467.55 "/>
<polyline clip-path="url(#clip570)" style="stroke:#000000; stroke-linecap:round; stroke-linejoin:round; stroke-width:4; stroke-opacity:1; fill:none" points="2065.61,1486.45 2065.61,1467.55 "/>
<path clip-path="url(#clip570)" d="M405.382 1532.02 L435.057 1532.02 L435.057 1535.95 L405.382 1535.95 L405.382 1532.02 Z" fill="#000000" fill-rule="nonzero" fill-opacity="1" /><path clip-path="url(#clip570)" d="M455.729 1529.7 Q452.58 1529.7 450.729 1531.86 Q448.9 1534.01 448.9 1537.76 Q448.9 1541.49 450.729 1543.66 Q452.58 1545.82 455.729 1545.82 Q458.877 1545.82 460.705 1543.66 Q462.557 1541.49 462.557 1537.76 Q462.557 1534.01 460.705 1531.86 Q458.877 1529.7 455.729 1529.7 M465.011 1515.05 L465.011 1519.31 Q463.252 1518.48 461.446 1518.04 Q459.664 1517.6 457.905 1517.6 Q453.275 1517.6 450.821 1520.72 Q448.391 1523.85 448.043 1530.17 Q449.409 1528.15 451.469 1527.09 Q453.53 1526 456.006 1526 Q461.215 1526 464.224 1529.17 Q467.256 1532.32 467.256 1537.76 Q467.256 1543.08 464.108 1546.3 Q460.96 1549.52 455.729 1549.52 Q449.733 1549.52 446.562 1544.94 Q443.391 1540.33 443.391 1531.6 Q443.391 1523.41 447.28 1518.55 Q451.168 1513.66 457.719 1513.66 Q459.479 1513.66 461.261 1514.01 Q463.067 1514.36 465.011 1515.05 Z" fill="#000000" fill-rule="nonzero" fill-opacity="1" /><path clip-path="url(#clip570)" d="M813.111 1532.02 L842.786 1532.02 L842.786 1535.95 L813.111 1535.95 L813.111 1532.02 Z" fill="#000000" fill-rule="nonzero" fill-opacity="1" /><path clip-path="url(#clip570)" d="M867.045 1530.21 Q870.402 1530.93 872.277 1533.2 Q874.175 1535.47 874.175 1538.8 Q874.175 1543.92 870.657 1546.72 Q867.138 1549.52 860.657 1549.52 Q858.481 1549.52 856.166 1549.08 Q853.874 1548.66 851.421 1547.81 L851.421 1543.29 Q853.365 1544.43 855.68 1545.01 Q857.995 1545.58 860.518 1545.58 Q864.916 1545.58 867.208 1543.85 Q869.522 1542.11 869.522 1538.8 Q869.522 1535.75 867.37 1534.03 Q865.24 1532.3 861.42 1532.3 L857.393 1532.3 L857.393 1528.45 L861.606 1528.45 Q865.055 1528.45 866.883 1527.09 Q868.712 1525.7 868.712 1523.11 Q868.712 1520.45 866.814 1519.03 Q864.939 1517.6 861.42 1517.6 Q859.499 1517.6 857.3 1518.01 Q855.101 1518.43 852.462 1519.31 L852.462 1515.14 Q855.124 1514.4 857.439 1514.03 Q859.777 1513.66 861.837 1513.66 Q867.161 1513.66 870.263 1516.09 Q873.365 1518.5 873.365 1522.62 Q873.365 1525.49 871.721 1527.48 Q870.078 1529.45 867.045 1530.21 Z" fill="#000000" fill-rule="nonzero" fill-opacity="1" /><path clip-path="url(#clip570)" d="M1250.97 1517.37 Q1247.36 1517.37 1245.53 1520.93 Q1243.72 1524.47 1243.72 1531.6 Q1243.72 1538.71 1245.53 1542.27 Q1247.36 1545.82 1250.97 1545.82 Q1254.6 1545.82 1256.41 1542.27 Q1258.24 1538.71 1258.24 1531.6 Q1258.24 1524.47 1256.41 1520.93 Q1254.6 1517.37 1250.97 1517.37 M1250.97 1513.66 Q1256.78 1513.66 1259.83 1518.27 Q1262.91 1522.85 1262.91 1531.6 Q1262.91 1540.33 1259.83 1544.94 Q1256.78 1549.52 1250.97 1549.52 Q1245.16 1549.52 1242.08 1544.94 Q1239.02 1540.33 1239.02 1531.6 Q1239.02 1522.85 1242.08 1518.27 Q1245.16 1513.66 1250.97 1513.66 Z" fill="#000000" fill-rule="nonzero" fill-opacity="1" /><path clip-path="url(#clip570)" d="M1662.54 1530.21 Q1665.89 1530.93 1667.77 1533.2 Q1669.67 1535.47 1669.67 1538.8 Q1669.67 1543.92 1666.15 1546.72 Q1662.63 1549.52 1656.15 1549.52 Q1653.97 1549.52 1651.66 1549.08 Q1649.37 1548.66 1646.91 1547.81 L1646.91 1543.29 Q1648.86 1544.43 1651.17 1545.01 Q1653.49 1545.58 1656.01 1545.58 Q1660.41 1545.58 1662.7 1543.85 Q1665.02 1542.11 1665.02 1538.8 Q1665.02 1535.75 1662.86 1534.03 Q1660.73 1532.3 1656.91 1532.3 L1652.89 1532.3 L1652.89 1528.45 L1657.1 1528.45 Q1660.55 1528.45 1662.38 1527.09 Q1664.2 1525.7 1664.2 1523.11 Q1664.2 1520.45 1662.31 1519.03 Q1660.43 1517.6 1656.91 1517.6 Q1654.99 1517.6 1652.79 1518.01 Q1650.59 1518.43 1647.95 1519.31 L1647.95 1515.14 Q1650.62 1514.4 1652.93 1514.03 Q1655.27 1513.66 1657.33 1513.66 Q1662.65 1513.66 1665.76 1516.09 Q1668.86 1518.5 1668.86 1522.62 Q1668.86 1525.49 1667.21 1527.48 Q1665.57 1529.45 1662.54 1530.21 Z" fill="#000000" fill-rule="nonzero" fill-opacity="1" /><path clip-path="url(#clip570)" d="M2066.02 1529.7 Q2062.87 1529.7 2061.02 1531.86 Q2059.19 1534.01 2059.19 1537.76 Q2059.19 1541.49 2061.02 1543.66 Q2062.87 1545.82 2066.02 1545.82 Q2069.17 1545.82 2071 1543.66 Q2072.85 1541.49 2072.85 1537.76 Q2072.85 1534.01 2071 1531.86 Q2069.17 1529.7 2066.02 1529.7 M2075.3 1515.05 L2075.3 1519.31 Q2073.54 1518.48 2071.74 1518.04 Q2069.95 1517.6 2068.2 1517.6 Q2063.57 1517.6 2061.11 1520.72 Q2058.68 1523.85 2058.33 1530.17 Q2059.7 1528.15 2061.76 1527.09 Q2063.82 1526 2066.3 1526 Q2071.51 1526 2074.51 1529.17 Q2077.55 1532.32 2077.55 1537.76 Q2077.55 1543.08 2074.4 1546.3 Q2071.25 1549.52 2066.02 1549.52 Q2060.02 1549.52 2056.85 1544.94 Q2053.68 1540.33 2053.68 1531.6 Q2053.68 1523.41 2057.57 1518.55 Q2061.46 1513.66 2068.01 1513.66 Q2069.77 1513.66 2071.55 1514.01 Q2073.36 1514.36 2075.3 1515.05 Z" fill="#000000" fill-rule="nonzero" fill-opacity="1" /><polyline clip-path="url(#clip572)" style="stroke:#000000; stroke-linecap:round; stroke-linejoin:round; stroke-width:2; stroke-opacity:0.1; fill:none" points="149.191,1309.94 2352.76,1309.94 "/>
<polyline clip-path="url(#clip572)" style="stroke:#000000; stroke-linecap:round; stroke-linejoin:round; stroke-width:2; stroke-opacity:0.1; fill:none" points="149.191,1038.4 2352.76,1038.4 "/>
<polyline clip-path="url(#clip572)" style="stroke:#000000; stroke-linecap:round; stroke-linejoin:round; stroke-width:2; stroke-opacity:0.1; fill:none" points="149.191,766.846 2352.76,766.846 "/>
<polyline clip-path="url(#clip572)" style="stroke:#000000; stroke-linecap:round; stroke-linejoin:round; stroke-width:2; stroke-opacity:0.1; fill:none" points="149.191,495.297 2352.76,495.297 "/>
<polyline clip-path="url(#clip572)" style="stroke:#000000; stroke-linecap:round; stroke-linejoin:round; stroke-width:2; stroke-opacity:0.1; fill:none" points="149.191,223.748 2352.76,223.748 "/>
<polyline clip-path="url(#clip570)" style="stroke:#000000; stroke-linecap:round; stroke-linejoin:round; stroke-width:4; stroke-opacity:1; fill:none" points="149.191,1486.45 149.191,47.2441 "/>
<polyline clip-path="url(#clip570)" style="stroke:#000000; stroke-linecap:round; stroke-linejoin:round; stroke-width:4; stroke-opacity:1; fill:none" points="149.191,1309.94 168.089,1309.94 "/>
<polyline clip-path="url(#clip570)" style="stroke:#000000; stroke-linecap:round; stroke-linejoin:round; stroke-width:4; stroke-opacity:1; fill:none" points="149.191,1038.4 168.089,1038.4 "/>
<polyline clip-path="url(#clip570)" style="stroke:#000000; stroke-linecap:round; stroke-linejoin:round; stroke-width:4; stroke-opacity:1; fill:none" points="149.191,766.846 168.089,766.846 "/>
<polyline clip-path="url(#clip570)" style="stroke:#000000; stroke-linecap:round; stroke-linejoin:round; stroke-width:4; stroke-opacity:1; fill:none" points="149.191,495.297 168.089,495.297 "/>
<polyline clip-path="url(#clip570)" style="stroke:#000000; stroke-linecap:round; stroke-linejoin:round; stroke-width:4; stroke-opacity:1; fill:none" points="149.191,223.748 168.089,223.748 "/>
<path clip-path="url(#clip570)" d="M50.9921 1310.4 L80.6679 1310.4 L80.6679 1314.33 L50.9921 1314.33 L50.9921 1310.4 Z" fill="#000000" fill-rule="nonzero" fill-opacity="1" /><path clip-path="url(#clip570)" d="M103.608 1296.74 L91.8021 1315.19 L103.608 1315.19 L103.608 1296.74 M102.381 1292.66 L108.26 1292.66 L108.26 1315.19 L113.191 1315.19 L113.191 1319.08 L108.26 1319.08 L108.26 1327.22 L103.608 1327.22 L103.608 1319.08 L88.0058 1319.08 L88.0058 1314.56 L102.381 1292.66 Z" fill="#000000" fill-rule="nonzero" fill-opacity="1" /><path clip-path="url(#clip570)" d="M53.0754 1038.85 L82.7512 1038.85 L82.7512 1042.78 L53.0754 1042.78 L53.0754 1038.85 Z" fill="#000000" fill-rule="nonzero" fill-opacity="1" /><path clip-path="url(#clip570)" d="M96.8715 1051.74 L113.191 1051.74 L113.191 1055.68 L91.2465 1055.68 L91.2465 1051.74 Q93.9086 1048.99 98.4919 1044.36 Q103.098 1039.7 104.279 1038.36 Q106.524 1035.84 107.404 1034.1 Q108.307 1032.34 108.307 1030.65 Q108.307 1027.9 106.362 1026.16 Q104.441 1024.43 101.339 1024.43 Q99.14 1024.43 96.6863 1025.19 Q94.2558 1025.95 91.478 1027.5 L91.478 1022.78 Q94.3021 1021.65 96.7558 1021.07 Q99.2095 1020.49 101.246 1020.49 Q106.617 1020.49 109.811 1023.18 Q113.006 1025.86 113.006 1030.35 Q113.006 1032.48 112.196 1034.4 Q111.408 1036.3 109.302 1038.89 Q108.723 1039.56 105.621 1042.78 Q102.52 1045.98 96.8715 1051.74 Z" fill="#000000" fill-rule="nonzero" fill-opacity="1" /><path clip-path="url(#clip570)" d="M101.246 752.645 Q97.6354 752.645 95.8067 756.209 Q94.0012 759.751 94.0012 766.881 Q94.0012 773.987 95.8067 777.552 Q97.6354 781.094 101.246 781.094 Q104.881 781.094 106.686 777.552 Q108.515 773.987 108.515 766.881 Q108.515 759.751 106.686 756.209 Q104.881 752.645 101.246 752.645 M101.246 748.941 Q107.057 748.941 110.112 753.547 Q113.191 758.131 113.191 766.881 Q113.191 775.608 110.112 780.214 Q107.057 784.797 101.246 784.797 Q95.4363 784.797 92.3576 780.214 Q89.3021 775.608 89.3021 766.881 Q89.3021 758.131 92.3576 753.547 Q95.4363 748.941 101.246 748.941 Z" fill="#000000" fill-rule="nonzero" fill-opacity="1" /><path clip-path="url(#clip570)" d="M96.8715 508.642 L113.191 508.642 L113.191 512.577 L91.2465 512.577 L91.2465 508.642 Q93.9086 505.887 98.4919 501.257 Q103.098 496.605 104.279 495.262 Q106.524 492.739 107.404 491.003 Q108.307 489.244 108.307 487.554 Q108.307 484.799 106.362 483.063 Q104.441 481.327 101.339 481.327 Q99.14 481.327 96.6863 482.091 Q94.2558 482.855 91.478 484.406 L91.478 479.683 Q94.3021 478.549 96.7558 477.97 Q99.2095 477.392 101.246 477.392 Q106.617 477.392 109.811 480.077 Q113.006 482.762 113.006 487.253 Q113.006 489.382 112.196 491.304 Q111.408 493.202 109.302 495.794 Q108.723 496.466 105.621 499.683 Q102.52 502.878 96.8715 508.642 Z" fill="#000000" fill-rule="nonzero" fill-opacity="1" /><path clip-path="url(#clip570)" d="M103.608 210.542 L91.8021 228.991 L103.608 228.991 L103.608 210.542 M102.381 206.468 L108.26 206.468 L108.26 228.991 L113.191 228.991 L113.191 232.879 L108.26 232.879 L108.26 241.028 L103.608 241.028 L103.608 232.879 L88.0058 232.879 L88.0058 228.366 L102.381 206.468 Z" fill="#000000" fill-rule="nonzero" fill-opacity="1" /><path clip-path="url(#clip572)" d="M1929.84 766.846 L1929.79 758.298 L1929.62 749.752 L1929.36 741.208 L1928.98 732.668 L1928.49 724.134 L1927.9 715.606 L1927.2 707.087 L1926.4 698.577 L1925.49 690.078 L1924.47 681.591 L1923.34 673.118 L1922.1 664.659 L1920.76 656.217 L1919.32 647.792 L1917.77 639.386 L1916.11 631 L1914.35 622.636 L1912.48 614.295 L1910.5 605.978 L1908.43 597.686 L1906.24 589.421 L1903.96 581.184 L1901.57 572.977 L1899.08 564.801 L1896.48 556.656 L1893.78 548.545 L1890.98 540.469 L1888.08 532.428 L1885.08 524.424 L1881.98 516.459 L1878.78 508.534 L1875.47 500.65 L1872.07 492.807 L1868.57 485.009 L1864.97 477.255 L1861.28 469.546 L1857.49 461.885 L1853.6 454.273 L1849.62 446.71 L1845.54 439.197 L1841.37 431.737 L1837.1 424.33 L1832.74 416.977 L1828.29 409.679 L1823.75 402.438 L1819.11 395.255 L1814.39 388.131 L1809.57 381.067 L1804.67 374.064 L1799.68 367.123 L1794.61 360.246 L1789.44 353.433 L1784.2 346.686 L1778.86 340.005 L1773.45 333.392 L1767.95 326.848 L1762.37 320.373 L1756.71 313.969 L1750.96 307.637 L1745.14 301.378 L1739.24 295.193 L1733.26 289.082 L1727.21 283.047 L1721.08 277.089 L1714.88 271.209 L1708.6 265.407 L1702.25 259.684 L1695.83 254.042 L1689.34 248.482 L1682.77 243.003 L1676.14 237.608 L1669.45 232.296 L1662.68 227.069 L1655.85 221.928 L1648.96 216.873 L1642 211.906 L1634.99 207.026 L1627.91 202.235 L1620.77 197.534 L1613.57 192.923 L1606.31 188.403 L1599 183.974 L1591.64 179.638 L1584.22 175.395 L1576.74 171.246 L1569.22 167.192 L1561.64 163.232 L1554.02 159.368 L1546.34 155.6 L1538.62 151.93 L1530.86 148.357 L1523.05 144.881 L1515.2 141.505 L1507.3 138.227 L1499.37 135.05 L1491.39 131.972 L1483.38 128.995 L1475.33 126.119 L1467.24 123.345 L1459.12 120.673 L1450.97 118.103 L1442.79 115.636 L1434.57 113.273 L1426.33 111.013 L1418.06 108.857 L1409.76 106.805 L1401.43 104.858 L1393.09 103.016 L1384.72 101.279 L1376.33 99.6478 L1367.92 98.1222 L1359.49 96.7027 L1351.04 95.3894 L1342.58 94.1826 L1334.1 93.0824 L1325.61 92.0891 L1317.11 91.2027 L1308.6 90.4235 L1300.08 89.7515 L1291.55 89.1868 L1283.01 88.7296 L1274.47 88.3799 L1265.92 88.1377 L1257.38 88.0032 L1248.83 87.9763 L1240.28 88.057 L1231.74 88.2453 L1223.19 88.5413 L1214.65 88.9447 L1206.12 89.4557 L1197.6 90.074 L1189.08 90.7997 L1180.57 91.6325 L1172.08 92.5724 L1163.59 93.6192 L1155.12 94.7727 L1146.67 96.0328 L1138.23 97.3992 L1129.81 98.8718 L1121.41 100.45 L1113.03 102.134 L1104.67 103.924 L1096.33 105.819 L1088.02 107.818 L1079.74 109.922 L1071.48 112.13 L1063.25 114.442 L1055.05 116.857 L1046.88 119.375 L1038.75 121.996 L1030.64 124.72 L1022.58 127.545 L1014.54 130.471 L1006.55 133.498 L998.595 136.626 L990.68 139.854 L982.806 143.181 L974.974 146.607 L967.187 150.131 L959.444 153.753 L951.747 157.472 L944.098 161.288 L936.498 165.2 L928.947 169.207 L921.448 173.309 L914.001 177.505 L906.607 181.795 L899.268 186.177 L891.984 190.651 L884.758 195.217 L877.589 199.873 L870.48 204.62 L863.431 209.455 L856.443 214.379 L849.519 219.39 L842.657 224.488 L835.861 229.672 L829.13 234.942 L822.466 240.295 L815.87 245.732 L809.343 251.252 L802.886 256.853 L796.5 262.536 L790.186 268.298 L783.946 274.139 L777.779 280.059 L771.687 286.055 L765.671 292.128 L759.732 298.276 L753.872 304.499 L748.089 310.794 L742.387 317.162 L736.765 323.602 L731.225 330.111 L725.767 336.69 L720.393 343.337 L715.102 350.051 L709.897 356.831 L704.777 363.677 L699.744 370.586 L694.798 377.558 L689.941 384.591 L685.172 391.686 L680.493 398.839 L675.905 406.052 L671.408 413.321 L667.002 420.646 L662.689 428.027 L658.47 435.461 L654.344 442.947 L650.313 450.485 L646.378 458.073 L642.538 465.71 L638.794 473.395 L635.148 481.126 L631.599 488.903 L628.149 496.723 L624.797 504.587 L621.544 512.492 L618.392 520.437 L615.339 528.421 L612.387 536.444 L609.537 544.502 L606.788 552.596 L604.142 560.724 L601.598 568.885 L599.157 577.077 L596.819 585.299 L594.585 593.55 L592.455 601.829 L590.429 610.133 L588.508 618.462 L586.693 626.815 L584.982 635.19 L583.377 643.586 L581.878 652.002 L580.485 660.436 L579.198 668.886 L578.018 677.353 L576.945 685.833 L575.978 694.326 L575.119 702.831 L574.366 711.346 L573.721 719.869 L573.183 728.4 L572.753 736.937 L572.43 745.479 L572.215 754.025 L572.107 762.572 L572.107 771.12 L572.215 779.667 L572.43 788.213 L572.753 796.755 L573.183 805.292 L573.721 813.823 L574.366 822.346 L575.119 830.861 L575.978 839.366 L576.945 847.859 L578.018 856.339 L579.198 864.806 L580.485 873.256 L581.878 881.69 L583.377 890.105 L584.982 898.501 L586.693 906.877 L588.508 915.23 L590.429 923.559 L592.455 931.863 L594.585 940.142 L596.819 948.393 L599.157 956.615 L601.598 964.807 L604.142 972.968 L606.788 981.096 L609.537 989.19 L612.387 997.248 L615.339 1005.27 L618.392 1013.25 L621.544 1021.2 L624.797 1029.11 L628.149 1036.97 L631.599 1044.79 L635.148 1052.57 L638.794 1060.3 L642.538 1067.98 L646.378 1075.62 L650.313 1083.21 L654.344 1090.74 L658.47 1098.23 L662.689 1105.67 L667.002 1113.05 L671.408 1120.37 L675.905 1127.64 L680.493 1134.85 L685.172 1142.01 L689.941 1149.1 L694.798 1156.13 L699.744 1163.11 L704.777 1170.02 L709.897 1176.86 L715.102 1183.64 L720.393 1190.36 L725.767 1197 L731.225 1203.58 L736.765 1210.09 L742.387 1216.53 L748.089 1222.9 L753.872 1229.19 L759.732 1235.42 L765.671 1241.56 L771.687 1247.64 L777.779 1253.63 L783.946 1259.55 L790.186 1265.39 L796.5 1271.16 L802.886 1276.84 L809.343 1282.44 L815.87 1287.96 L822.466 1293.4 L829.13 1298.75 L835.861 1304.02 L842.657 1309.2 L849.519 1314.3 L856.443 1319.31 L863.431 1324.24 L870.48 1329.07 L877.589 1333.82 L884.758 1338.47 L891.984 1343.04 L899.268 1347.51 L906.607 1351.9 L914.001 1356.19 L921.448 1360.38 L928.947 1364.48 L936.498 1368.49 L944.098 1372.4 L951.747 1376.22 L959.444 1379.94 L967.187 1383.56 L974.974 1387.09 L982.806 1390.51 L990.68 1393.84 L998.595 1397.07 L1006.55 1400.19 L1014.54 1403.22 L1022.58 1406.15 L1030.64 1408.97 L1038.75 1411.7 L1046.88 1414.32 L1055.05 1416.83 L1063.25 1419.25 L1071.48 1421.56 L1079.74 1423.77 L1088.02 1425.87 L1096.33 1427.87 L1104.67 1429.77 L1113.03 1431.56 L1121.41 1433.24 L1129.81 1434.82 L1138.23 1436.29 L1146.67 1437.66 L1155.12 1438.92 L1163.59 1440.07 L1172.08 1441.12 L1180.57 1442.06 L1189.08 1442.89 L1197.6 1443.62 L1206.12 1444.24 L1214.65 1444.75 L1223.19 1445.15 L1231.74 1445.45 L1240.28 1445.63 L1248.83 1445.72 L1257.38 1445.69 L1265.92 1445.55 L1274.47 1445.31 L1283.01 1444.96 L1291.55 1444.51 L1300.08 1443.94 L1308.6 1443.27 L1317.11 1442.49 L1325.61 1441.6 L1334.1 1440.61 L1342.58 1439.51 L1351.04 1438.3 L1359.49 1436.99 L1367.92 1435.57 L1376.33 1434.04 L1384.72 1432.41 L1393.09 1430.68 L1401.43 1428.83 L1409.76 1426.89 L1418.06 1424.84 L1426.33 1422.68 L1434.57 1420.42 L1442.79 1418.06 L1450.97 1415.59 L1459.12 1413.02 L1467.24 1410.35 L1475.33 1407.57 L1483.38 1404.7 L1491.39 1401.72 L1499.37 1398.64 L1507.3 1395.46 L1515.2 1392.19 L1523.05 1388.81 L1530.86 1385.34 L1538.62 1381.76 L1546.34 1378.09 L1554.02 1374.32 L1561.64 1370.46 L1569.22 1366.5 L1576.74 1362.45 L1584.22 1358.3 L1591.64 1354.05 L1599 1349.72 L1606.31 1345.29 L1613.57 1340.77 L1620.77 1336.16 L1627.91 1331.46 L1634.99 1326.67 L1642 1321.79 L1648.96 1316.82 L1655.85 1311.76 L1662.68 1306.62 L1669.45 1301.4 L1676.14 1296.08 L1682.77 1290.69 L1689.34 1285.21 L1695.83 1279.65 L1702.25 1274.01 L1708.6 1268.29 L1714.88 1262.48 L1721.08 1256.6 L1727.21 1250.64 L1733.26 1244.61 L1739.24 1238.5 L1745.14 1232.31 L1750.96 1226.05 L1756.71 1219.72 L1762.37 1213.32 L1767.95 1206.84 L1773.45 1200.3 L1778.86 1193.69 L1784.2 1187.01 L1789.44 1180.26 L1794.61 1173.45 L1799.68 1166.57 L1804.67 1159.63 L1809.57 1152.63 L1814.39 1145.56 L1819.11 1138.44 L1823.75 1131.25 L1828.29 1124.01 L1832.74 1116.72 L1837.1 1109.36 L1841.37 1101.96 L1845.54 1094.49 L1849.62 1086.98 L1853.6 1079.42 L1857.49 1071.81 L1861.28 1064.15 L1864.97 1056.44 L1868.57 1048.68 L1872.07 1040.88 L1875.47 1033.04 L1878.78 1025.16 L1881.98 1017.23 L1885.08 1009.27 L1888.08 1001.26 L1890.98 993.223 L1893.78 985.147 L1896.48 977.036 L1899.08 968.891 L1901.57 960.715 L1903.96 952.508 L1906.24 944.271 L1908.43 936.006 L1910.5 927.714 L1912.48 919.397 L1914.35 911.056 L1916.11 902.692 L1917.77 894.306 L1919.32 885.9 L1920.76 877.475 L1922.1 869.033 L1923.34 860.574 L1924.47 852.101 L1925.49 843.614 L1926.4 835.115 L1927.2 826.605 L1927.9 818.086 L1928.49 809.558 L1928.98 801.024 L1929.36 792.484 L1929.62 783.94 L1929.79 775.394 L1929.84 766.846 L1929.84 766.846 L1929.79 766.846 L1929.62 766.846 L1929.36 766.846 L1928.98 766.846 L1928.49 766.846 L1927.9 766.846 L1927.2 766.846 L1926.4 766.846 L1925.49 766.846 L1924.47 766.846 L1923.34 766.846 L1922.1 766.846 L1920.76 766.846 L1919.32 766.846 L1917.77 766.846 L1916.11 766.846 L1914.35 766.846 L1912.48 766.846 L1910.5 766.846 L1908.43 766.846 L1906.24 766.846 L1903.96 766.846 L1901.57 766.846 L1899.08 766.846 L1896.48 766.846 L1893.78 766.846 L1890.98 766.846 L1888.08 766.846 L1885.08 766.846 L1881.98 766.846 L1878.78 766.846 L1875.47 766.846 L1872.07 766.846 L1868.57 766.846 L1864.97 766.846 L1861.28 766.846 L1857.49 766.846 L1853.6 766.846 L1849.62 766.846 L1845.54 766.846 L1841.37 766.846 L1837.1 766.846 L1832.74 766.846 L1828.29 766.846 L1823.75 766.846 L1819.11 766.846 L1814.39 766.846 L1809.57 766.846 L1804.67 766.846 L1799.68 766.846 L1794.61 766.846 L1789.44 766.846 L1784.2 766.846 L1778.86 766.846 L1773.45 766.846 L1767.95 766.846 L1762.37 766.846 L1756.71 766.846 L1750.96 766.846 L1745.14 766.846 L1739.24 766.846 L1733.26 766.846 L1727.21 766.846 L1721.08 766.846 L1714.88 766.846 L1708.6 766.846 L1702.25 766.846 L1695.83 766.846 L1689.34 766.846 L1682.77 766.846 L1676.14 766.846 L1669.45 766.846 L1662.68 766.846 L1655.85 766.846 L1648.96 766.846 L1642 766.846 L1634.99 766.846 L1627.91 766.846 L1620.77 766.846 L1613.57 766.846 L1606.31 766.846 L1599 766.846 L1591.64 766.846 L1584.22 766.846 L1576.74 766.846 L1569.22 766.846 L1561.64 766.846 L1554.02 766.846 L1546.34 766.846 L1538.62 766.846 L1530.86 766.846 L1523.05 766.846 L1515.2 766.846 L1507.3 766.846 L1499.37 766.846 L1491.39 766.846 L1483.38 766.846 L1475.33 766.846 L1467.24 766.846 L1459.12 766.846 L1450.97 766.846 L1442.79 766.846 L1434.57 766.846 L1426.33 766.846 L1418.06 766.846 L1409.76 766.846 L1401.43 766.846 L1393.09 766.846 L1384.72 766.846 L1376.33 766.846 L1367.92 766.846 L1359.49 766.846 L1351.04 766.846 L1342.58 766.846 L1334.1 766.846 L1325.61 766.846 L1317.11 766.846 L1308.6 766.846 L1300.08 766.846 L1291.55 766.846 L1283.01 766.846 L1274.47 766.846 L1265.92 766.846 L1257.38 766.846 L1248.83 766.846 L1240.28 766.846 L1231.74 766.846 L1223.19 766.846 L1214.65 766.846 L1206.12 766.846 L1197.6 766.846 L1189.08 766.846 L1180.57 766.846 L1172.08 766.846 L1163.59 766.846 L1155.12 766.846 L1146.67 766.846 L1138.23 766.846 L1129.81 766.846 L1121.41 766.846 L1113.03 766.846 L1104.67 766.846 L1096.33 766.846 L1088.02 766.846 L1079.74 766.846 L1071.48 766.846 L1063.25 766.846 L1055.05 766.846 L1046.88 766.846 L1038.75 766.846 L1030.64 766.846 L1022.58 766.846 L1014.54 766.846 L1006.55 766.846 L998.595 766.846 L990.68 766.846 L982.806 766.846 L974.974 766.846 L967.187 766.846 L959.444 766.846 L951.747 766.846 L944.098 766.846 L936.498 766.846 L928.947 766.846 L921.448 766.846 L914.001 766.846 L906.607 766.846 L899.268 766.846 L891.984 766.846 L884.758 766.846 L877.589 766.846 L870.48 766.846 L863.431 766.846 L856.443 766.846 L849.519 766.846 L842.657 766.846 L835.861 766.846 L829.13 766.846 L822.466 766.846 L815.87 766.846 L809.343 766.846 L802.886 766.846 L796.5 766.846 L790.186 766.846 L783.946 766.846 L777.779 766.846 L771.687 766.846 L765.671 766.846 L759.732 766.846 L753.872 766.846 L748.089 766.846 L742.387 766.846 L736.765 766.846 L731.225 766.846 L725.767 766.846 L720.393 766.846 L715.102 766.846 L709.897 766.846 L704.777 766.846 L699.744 766.846 L694.798 766.846 L689.941 766.846 L685.172 766.846 L680.493 766.846 L675.905 766.846 L671.408 766.846 L667.002 766.846 L662.689 766.846 L658.47 766.846 L654.344 766.846 L650.313 766.846 L646.378 766.846 L642.538 766.846 L638.794 766.846 L635.148 766.846 L631.599 766.846 L628.149 766.846 L624.797 766.846 L621.544 766.846 L618.392 766.846 L615.339 766.846 L612.387 766.846 L609.537 766.846 L606.788 766.846 L604.142 766.846 L601.598 766.846 L599.157 766.846 L596.819 766.846 L594.585 766.846 L592.455 766.846 L590.429 766.846 L588.508 766.846 L586.693 766.846 L584.982 766.846 L583.377 766.846 L581.878 766.846 L580.485 766.846 L579.198 766.846 L578.018 766.846 L576.945 766.846 L575.978 766.846 L575.119 766.846 L574.366 766.846 L573.721 766.846 L573.183 766.846 L572.753 766.846 L572.43 766.846 L572.215 766.846 L572.107 766.846 L572.107 766.846 L572.215 766.846 L572.43 766.846 L572.753 766.846 L573.183 766.846 L573.721 766.846 L574.366 766.846 L575.119 766.846 L575.978 766.846 L576.945 766.846 L578.018 766.846 L579.198 766.846 L580.485 766.846 L581.878 766.846 L583.377 766.846 L584.982 766.846 L586.693 766.846 L588.508 766.846 L590.429 766.846 L592.455 766.846 L594.585 766.846 L596.819 766.846 L599.157 766.846 L601.598 766.846 L604.142 766.846 L606.788 766.846 L609.537 766.846 L612.387 766.846 L615.339 766.846 L618.392 766.846 L621.544 766.846 L624.797 766.846 L628.149 766.846 L631.599 766.846 L635.148 766.846 L638.794 766.846 L642.538 766.846 L646.378 766.846 L650.313 766.846 L654.344 766.846 L658.47 766.846 L662.689 766.846 L667.002 766.846 L671.408 766.846 L675.905 766.846 L680.493 766.846 L685.172 766.846 L689.941 766.846 L694.798 766.846 L699.744 766.846 L704.777 766.846 L709.897 766.846 L715.102 766.846 L720.393 766.846 L725.767 766.846 L731.225 766.846 L736.765 766.846 L742.387 766.846 L748.089 766.846 L753.872 766.846 L759.732 766.846 L765.671 766.846 L771.687 766.846 L777.779 766.846 L783.946 766.846 L790.186 766.846 L796.5 766.846 L802.886 766.846 L809.343 766.846 L815.87 766.846 L822.466 766.846 L829.13 766.846 L835.861 766.846 L842.657 766.846 L849.519 766.846 L856.443 766.846 L863.431 766.846 L870.48 766.846 L877.589 766.846 L884.758 766.846 L891.984 766.846 L899.268 766.846 L906.607 766.846 L914.001 766.846 L921.448 766.846 L928.947 766.846 L936.498 766.846 L944.098 766.846 L951.747 766.846 L959.444 766.846 L967.187 766.846 L974.974 766.846 L982.806 766.846 L990.68 766.846 L998.595 766.846 L1006.55 766.846 L1014.54 766.846 L1022.58 766.846 L1030.64 766.846 L1038.75 766.846 L1046.88 766.846 L1055.05 766.846 L1063.25 766.846 L1071.48 766.846 L1079.74 766.846 L1088.02 766.846 L1096.33 766.846 L1104.67 766.846 L1113.03 766.846 L1121.41 766.846 L1129.81 766.846 L1138.23 766.846 L1146.67 766.846 L1155.12 766.846 L1163.59 766.846 L1172.08 766.846 L1180.57 766.846 L1189.08 766.846 L1197.6 766.846 L1206.12 766.846 L1214.65 766.846 L1223.19 766.846 L1231.74 766.846 L1240.28 766.846 L1248.83 766.846 L1257.38 766.846 L1265.92 766.846 L1274.47 766.846 L1283.01 766.846 L1291.55 766.846 L1300.08 766.846 L1308.6 766.846 L1317.11 766.846 L1325.61 766.846 L1334.1 766.846 L1342.58 766.846 L1351.04 766.846 L1359.49 766.846 L1367.92 766.846 L1376.33 766.846 L1384.72 766.846 L1393.09 766.846 L1401.43 766.846 L1409.76 766.846 L1418.06 766.846 L1426.33 766.846 L1434.57 766.846 L1442.79 766.846 L1450.97 766.846 L1459.12 766.846 L1467.24 766.846 L1475.33 766.846 L1483.38 766.846 L1491.39 766.846 L1499.37 766.846 L1507.3 766.846 L1515.2 766.846 L1523.05 766.846 L1530.86 766.846 L1538.62 766.846 L1546.34 766.846 L1554.02 766.846 L1561.64 766.846 L1569.22 766.846 L1576.74 766.846 L1584.22 766.846 L1591.64 766.846 L1599 766.846 L1606.31 766.846 L1613.57 766.846 L1620.77 766.846 L1627.91 766.846 L1634.99 766.846 L1642 766.846 L1648.96 766.846 L1655.85 766.846 L1662.68 766.846 L1669.45 766.846 L1676.14 766.846 L1682.77 766.846 L1689.34 766.846 L1695.83 766.846 L1702.25 766.846 L1708.6 766.846 L1714.88 766.846 L1721.08 766.846 L1727.21 766.846 L1733.26 766.846 L1739.24 766.846 L1745.14 766.846 L1750.96 766.846 L1756.71 766.846 L1762.37 766.846 L1767.95 766.846 L1773.45 766.846 L1778.86 766.846 L1784.2 766.846 L1789.44 766.846 L1794.61 766.846 L1799.68 766.846 L1804.67 766.846 L1809.57 766.846 L1814.39 766.846 L1819.11 766.846 L1823.75 766.846 L1828.29 766.846 L1832.74 766.846 L1837.1 766.846 L1841.37 766.846 L1845.54 766.846 L1849.62 766.846 L1853.6 766.846 L1857.49 766.846 L1861.28 766.846 L1864.97 766.846 L1868.57 766.846 L1872.07 766.846 L1875.47 766.846 L1878.78 766.846 L1881.98 766.846 L1885.08 766.846 L1888.08 766.846 L1890.98 766.846 L1893.78 766.846 L1896.48 766.846 L1899.08 766.846 L1901.57 766.846 L1903.96 766.846 L1906.24 766.846 L1908.43 766.846 L1910.5 766.846 L1912.48 766.846 L1914.35 766.846 L1916.11 766.846 L1917.77 766.846 L1919.32 766.846 L1920.76 766.846 L1922.1 766.846 L1923.34 766.846 L1924.47 766.846 L1925.49 766.846 L1926.4 766.846 L1927.2 766.846 L1927.9 766.846 L1928.49 766.846 L1928.98 766.846 L1929.36 766.846 L1929.62 766.846 L1929.79 766.846 L1929.84 766.846  Z" fill="#ff0000" fill-rule="evenodd" fill-opacity="1"/>
<polyline clip-path="url(#clip572)" style="stroke:#ff0000; stroke-linecap:round; stroke-linejoin:round; stroke-width:4; stroke-opacity:1; fill:none" points="1929.84,766.846 1929.79,758.298 1929.62,749.752 1929.36,741.208 1928.98,732.668 1928.49,724.134 1927.9,715.606 1927.2,707.087 1926.4,698.577 1925.49,690.078 1924.47,681.591 1923.34,673.118 1922.1,664.659 1920.76,656.217 1919.32,647.792 1917.77,639.386 1916.11,631 1914.35,622.636 1912.48,614.295 1910.5,605.978 1908.43,597.686 1906.24,589.421 1903.96,581.184 1901.57,572.977 1899.08,564.801 1896.48,556.656 1893.78,548.545 1890.98,540.469 1888.08,532.428 1885.08,524.424 1881.98,516.459 1878.78,508.534 1875.47,500.65 1872.07,492.807 1868.57,485.009 1864.97,477.255 1861.28,469.546 1857.49,461.885 1853.6,454.273 1849.62,446.71 1845.54,439.197 1841.37,431.737 1837.1,424.33 1832.74,416.977 1828.29,409.679 1823.75,402.438 1819.11,395.255 1814.39,388.131 1809.57,381.067 1804.67,374.064 1799.68,367.123 1794.61,360.246 1789.44,353.433 1784.2,346.686 1778.86,340.005 1773.45,333.392 1767.95,326.848 1762.37,320.373 1756.71,313.969 1750.96,307.637 1745.14,301.378 1739.24,295.193 1733.26,289.082 1727.21,283.047 1721.08,277.089 1714.88,271.209 1708.6,265.407 1702.25,259.684 1695.83,254.042 1689.34,248.482 1682.77,243.003 1676.14,237.608 1669.45,232.296 1662.68,227.069 1655.85,221.928 1648.96,216.873 1642,211.906 1634.99,207.026 1627.91,202.235 1620.77,197.534 1613.57,192.923 1606.31,188.403 1599,183.974 1591.64,179.638 1584.22,175.395 1576.74,171.246 1569.22,167.192 1561.64,163.232 1554.02,159.368 1546.34,155.6 1538.62,151.93 1530.86,148.357 1523.05,144.881 1515.2,141.505 1507.3,138.227 1499.37,135.05 1491.39,131.972 1483.38,128.995 1475.33,126.119 1467.24,123.345 1459.12,120.673 1450.97,118.103 1442.79,115.636 1434.57,113.273 1426.33,111.013 1418.06,108.857 1409.76,106.805 1401.43,104.858 1393.09,103.016 1384.72,101.279 1376.33,99.6478 1367.92,98.1222 1359.49,96.7027 1351.04,95.3894 1342.58,94.1826 1334.1,93.0824 1325.61,92.0891 1317.11,91.2027 1308.6,90.4235 1300.08,89.7515 1291.55,89.1868 1283.01,88.7296 1274.47,88.3799 1265.92,88.1377 1257.38,88.0032 1248.83,87.9763 1240.28,88.057 1231.74,88.2453 1223.19,88.5413 1214.65,88.9447 1206.12,89.4557 1197.6,90.074 1189.08,90.7997 1180.57,91.6325 1172.08,92.5724 1163.59,93.6192 1155.12,94.7727 1146.67,96.0328 1138.23,97.3992 1129.81,98.8718 1121.41,100.45 1113.03,102.134 1104.67,103.924 1096.33,105.819 1088.02,107.818 1079.74,109.922 1071.48,112.13 1063.25,114.442 1055.05,116.857 1046.88,119.375 1038.75,121.996 1030.64,124.72 1022.58,127.545 1014.54,130.471 1006.55,133.498 998.595,136.626 990.68,139.854 982.806,143.181 974.974,146.607 967.187,150.131 959.444,153.753 951.747,157.472 944.098,161.288 936.498,165.2 928.947,169.207 921.448,173.309 914.001,177.505 906.607,181.795 899.268,186.177 891.984,190.651 884.758,195.217 877.589,199.873 870.48,204.62 863.431,209.455 856.443,214.379 849.519,219.39 842.657,224.488 835.861,229.672 829.13,234.942 822.466,240.295 815.87,245.732 809.343,251.252 802.886,256.853 796.5,262.536 790.186,268.298 783.946,274.139 777.779,280.059 771.687,286.055 765.671,292.128 759.732,298.276 753.872,304.499 748.089,310.794 742.387,317.162 736.765,323.602 731.225,330.111 725.767,336.69 720.393,343.337 715.102,350.051 709.897,356.831 704.777,363.677 699.744,370.586 694.798,377.558 689.941,384.591 685.172,391.686 680.493,398.839 675.905,406.052 671.408,413.321 667.002,420.646 662.689,428.027 658.47,435.461 654.344,442.947 650.313,450.485 646.378,458.073 642.538,465.71 638.794,473.395 635.148,481.126 631.599,488.903 628.149,496.723 624.797,504.587 621.544,512.492 618.392,520.437 615.339,528.421 612.387,536.444 609.537,544.502 606.788,552.596 604.142,560.724 601.598,568.885 599.157,577.077 596.819,585.299 594.585,593.55 592.455,601.829 590.429,610.133 588.508,618.462 586.693,626.815 584.982,635.19 583.377,643.586 581.878,652.002 580.485,660.436 579.198,668.886 578.018,677.353 576.945,685.833 575.978,694.326 575.119,702.831 574.366,711.346 573.721,719.869 573.183,728.4 572.753,736.937 572.43,745.479 572.215,754.025 572.107,762.572 572.107,771.12 572.215,779.667 572.43,788.213 572.753,796.755 573.183,805.292 573.721,813.823 574.366,822.346 575.119,830.861 575.978,839.366 576.945,847.859 578.018,856.339 579.198,864.806 580.485,873.256 581.878,881.69 583.377,890.105 584.982,898.501 586.693,906.877 588.508,915.23 590.429,923.559 592.455,931.863 594.585,940.142 596.819,948.393 599.157,956.615 601.598,964.807 604.142,972.968 606.788,981.096 609.537,989.19 612.387,997.248 615.339,1005.27 618.392,1013.25 621.544,1021.2 624.797,1029.11 628.149,1036.97 631.599,1044.79 635.148,1052.57 638.794,1060.3 642.538,1067.98 646.378,1075.62 650.313,1083.21 654.344,1090.74 658.47,1098.23 662.689,1105.67 667.002,1113.05 671.408,1120.37 675.905,1127.64 680.493,1134.85 685.172,1142.01 689.941,1149.1 694.798,1156.13 699.744,1163.11 704.777,1170.02 709.897,1176.86 715.102,1183.64 720.393,1190.36 725.767,1197 731.225,1203.58 736.765,1210.09 742.387,1216.53 748.089,1222.9 753.872,1229.19 759.732,1235.42 765.671,1241.56 771.687,1247.64 777.779,1253.63 783.946,1259.55 790.186,1265.39 796.5,1271.16 802.886,1276.84 809.343,1282.44 815.87,1287.96 822.466,1293.4 829.13,1298.75 835.861,1304.02 842.657,1309.2 849.519,1314.3 856.443,1319.31 863.431,1324.24 870.48,1329.07 877.589,1333.82 884.758,1338.47 891.984,1343.04 899.268,1347.51 906.607,1351.9 914.001,1356.19 921.448,1360.38 928.947,1364.48 936.498,1368.49 944.098,1372.4 951.747,1376.22 959.444,1379.94 967.187,1383.56 974.974,1387.09 982.806,1390.51 990.68,1393.84 998.595,1397.07 1006.55,1400.19 1014.54,1403.22 1022.58,1406.15 1030.64,1408.97 1038.75,1411.7 1046.88,1414.32 1055.05,1416.83 1063.25,1419.25 1071.48,1421.56 1079.74,1423.77 1088.02,1425.87 1096.33,1427.87 1104.67,1429.77 1113.03,1431.56 1121.41,1433.24 1129.81,1434.82 1138.23,1436.29 1146.67,1437.66 1155.12,1438.92 1163.59,1440.07 1172.08,1441.12 1180.57,1442.06 1189.08,1442.89 1197.6,1443.62 1206.12,1444.24 1214.65,1444.75 1223.19,1445.15 1231.74,1445.45 1240.28,1445.63 1248.83,1445.72 1257.38,1445.69 1265.92,1445.55 1274.47,1445.31 1283.01,1444.96 1291.55,1444.51 1300.08,1443.94 1308.6,1443.27 1317.11,1442.49 1325.61,1441.6 1334.1,1440.61 1342.58,1439.51 1351.04,1438.3 1359.49,1436.99 1367.92,1435.57 1376.33,1434.04 1384.72,1432.41 1393.09,1430.68 1401.43,1428.83 1409.76,1426.89 1418.06,1424.84 1426.33,1422.68 1434.57,1420.42 1442.79,1418.06 1450.97,1415.59 1459.12,1413.02 1467.24,1410.35 1475.33,1407.57 1483.38,1404.7 1491.39,1401.72 1499.37,1398.64 1507.3,1395.46 1515.2,1392.19 1523.05,1388.81 1530.86,1385.34 1538.62,1381.76 1546.34,1378.09 1554.02,1374.32 1561.64,1370.46 1569.22,1366.5 1576.74,1362.45 1584.22,1358.3 1591.64,1354.05 1599,1349.72 1606.31,1345.29 1613.57,1340.77 1620.77,1336.16 1627.91,1331.46 1634.99,1326.67 1642,1321.79 1648.96,1316.82 1655.85,1311.76 1662.68,1306.62 1669.45,1301.4 1676.14,1296.08 1682.77,1290.69 1689.34,1285.21 1695.83,1279.65 1702.25,1274.01 1708.6,1268.29 1714.88,1262.48 1721.08,1256.6 1727.21,1250.64 1733.26,1244.61 1739.24,1238.5 1745.14,1232.31 1750.96,1226.05 1756.71,1219.72 1762.37,1213.32 1767.95,1206.84 1773.45,1200.3 1778.86,1193.69 1784.2,1187.01 1789.44,1180.26 1794.61,1173.45 1799.68,1166.57 1804.67,1159.63 1809.57,1152.63 1814.39,1145.56 1819.11,1138.44 1823.75,1131.25 1828.29,1124.01 1832.74,1116.72 1837.1,1109.36 1841.37,1101.96 1845.54,1094.49 1849.62,1086.98 1853.6,1079.42 1857.49,1071.81 1861.28,1064.15 1864.97,1056.44 1868.57,1048.68 1872.07,1040.88 1875.47,1033.04 1878.78,1025.16 1881.98,1017.23 1885.08,1009.27 1888.08,1001.26 1890.98,993.223 1893.78,985.147 1896.48,977.036 1899.08,968.891 1901.57,960.715 1903.96,952.508 1906.24,944.271 1908.43,936.006 1910.5,927.714 1912.48,919.397 1914.35,911.056 1916.11,902.692 1917.77,894.306 1919.32,885.9 1920.76,877.475 1922.1,869.033 1923.34,860.574 1924.47,852.101 1925.49,843.614 1926.4,835.115 1927.2,826.605 1927.9,818.086 1928.49,809.558 1928.98,801.024 1929.36,792.484 1929.62,783.94 1929.79,775.394 1929.84,766.846 "/>
<path clip-path="url(#clip572)" d="M770.931 1246.88 L1731 1246.88 L1731 286.81 L770.931 286.81 L770.931 1246.88  Z" fill="#ffffff" fill-rule="evenodd" fill-opacity="1"/>
<polyline clip-path="url(#clip572)" style="stroke:#000000; stroke-linecap:round; stroke-linejoin:round; stroke-width:4; stroke-opacity:1; fill:none" points="770.931,1246.88 1731,1246.88 1731,286.81 770.931,286.81 770.931,1246.88 "/>
</svg>
