<?xml version="1.0" encoding="utf-8"?>
<svg xmlns="http://www.w3.org/2000/svg" xmlns:xlink="http://www.w3.org/1999/xlink" width="600" height="400" viewBox="0 0 2400 1600">
<defs>
  <clipPath id="clip850">
    <rect x="0" y="0" width="2400" height="1600"/>
  </clipPath>
</defs>
<path clip-path="url(#clip850)" d="M0 1600 L2400 1600 L2400 0 L0 0  Z" fill="#ffffff" fill-rule="evenodd" fill-opacity="1"/>
<defs>
  <clipPath id="clip851">
    <rect x="480" y="0" width="1681" height="1600"/>
  </clipPath>
</defs>
<path clip-path="url(#clip850)" d="M188.104 1486.45 L2352.76 1486.45 L2352.76 47.2441 L188.104 47.2441  Z" fill="#ffffff" fill-rule="evenodd" fill-opacity="1"/>
<defs>
  <clipPath id="clip852">
    <rect x="188" y="47" width="2166" height="1440"/>
  </clipPath>
</defs>
<polyline clip-path="url(#clip852)" style="stroke:#000000; stroke-linecap:round; stroke-linejoin:round; stroke-width:2; stroke-opacity:0.1; fill:none" points="228.74,1486.45 228.74,47.2441 "/>
<polyline clip-path="url(#clip852)" style="stroke:#000000; stroke-linecap:round; stroke-linejoin:round; stroke-width:2; stroke-opacity:0.1; fill:none" points="744.428,1486.45 744.428,47.2441 "/>
<polyline clip-path="url(#clip852)" style="stroke:#000000; stroke-linecap:round; stroke-linejoin:round; stroke-width:2; stroke-opacity:0.1; fill:none" points="1260.12,1486.45 1260.12,47.2441 "/>
<polyline clip-path="url(#clip852)" style="stroke:#000000; stroke-linecap:round; stroke-linejoin:round; stroke-width:2; stroke-opacity:0.1; fill:none" points="1775.8,1486.45 1775.8,47.2441 "/>
<polyline clip-path="url(#clip852)" style="stroke:#000000; stroke-linecap:round; stroke-linejoin:round; stroke-width:2; stroke-opacity:0.1; fill:none" points="2291.49,1486.45 2291.49,47.2441 "/>
<polyline clip-path="url(#clip850)" style="stroke:#000000; stroke-linecap:round; stroke-linejoin:round; stroke-width:4; stroke-opacity:1; fill:none" points="188.104,1486.45 2352.76,1486.45 "/>
<polyline clip-path="url(#clip850)" style="stroke:#000000; stroke-linecap:round; stroke-linejoin:round; stroke-width:4; stroke-opacity:1; fill:none" points="228.74,1486.45 228.74,1467.55 "/>
<polyline clip-path="url(#clip850)" style="stroke:#000000; stroke-linecap:round; stroke-linejoin:round; stroke-width:4; stroke-opacity:1; fill:none" points="744.428,1486.45 744.428,1467.55 "/>
<polyline clip-path="url(#clip850)" style="stroke:#000000; stroke-linecap:round; stroke-linejoin:round; stroke-width:4; stroke-opacity:1; fill:none" points="1260.12,1486.45 1260.12,1467.55 "/>
<polyline clip-path="url(#clip850)" style="stroke:#000000; stroke-linecap:round; stroke-linejoin:round; stroke-width:4; stroke-opacity:1; fill:none" points="1775.8,1486.45 1775.8,1467.55 "/>
<polyline clip-path="url(#clip850)" style="stroke:#000000; stroke-linecap:round; stroke-linejoin:round; stroke-width:4; stroke-opacity:1; fill:none" points="2291.49,1486.45 2291.49,1467.55 "/>
<path clip-path="url(#clip850)" d="M228.74 1517.37 Q225.129 1517.37 223.301 1520.93 Q221.495 1524.47 221.495 1531.6 Q221.495 1538.71 223.301 1542.27 Q225.129 1545.82 228.74 1545.82 Q232.375 1545.82 234.18 1542.27 Q236.009 1538.71 236.009 1531.6 Q236.009 1524.47 234.18 1520.93 Q232.375 1517.37 228.74 1517.37 M228.74 1513.66 Q234.551 1513.66 237.606 1518.27 Q240.685 1522.85 240.685 1531.6 Q240.685 1540.33 237.606 1544.94 Q234.551 1549.52 228.74 1549.52 Q222.93 1549.52 219.852 1544.94 Q216.796 1540.33 216.796 1531.6 Q216.796 1522.85 219.852 1518.27 Q222.93 1513.66 228.74 1513.66 Z" fill="#000000" fill-rule="nonzero" fill-opacity="1" /><path clip-path="url(#clip850)" d="M723.699 1544.91 L740.019 1544.91 L740.019 1548.85 L718.074 1548.85 L718.074 1544.91 Q720.736 1542.16 725.32 1537.53 Q729.926 1532.88 731.107 1531.53 Q733.352 1529.01 734.232 1527.27 Q735.134 1525.51 735.134 1523.82 Q735.134 1521.07 733.19 1519.33 Q731.269 1517.6 728.167 1517.6 Q725.968 1517.6 723.514 1518.36 Q721.084 1519.13 718.306 1520.68 L718.306 1515.95 Q721.13 1514.82 723.584 1514.24 Q726.037 1513.66 728.074 1513.66 Q733.445 1513.66 736.639 1516.35 Q739.833 1519.03 739.833 1523.52 Q739.833 1525.65 739.023 1527.57 Q738.236 1529.47 736.13 1532.07 Q735.551 1532.74 732.449 1535.95 Q729.347 1539.15 723.699 1544.91 Z" fill="#000000" fill-rule="nonzero" fill-opacity="1" /><path clip-path="url(#clip850)" d="M749.88 1514.29 L768.236 1514.29 L768.236 1518.22 L754.162 1518.22 L754.162 1526.7 Q755.181 1526.35 756.199 1526.19 Q757.218 1526 758.236 1526 Q764.023 1526 767.403 1529.17 Q770.782 1532.34 770.782 1537.76 Q770.782 1543.34 767.31 1546.44 Q763.838 1549.52 757.519 1549.52 Q755.343 1549.52 753.074 1549.15 Q750.829 1548.78 748.421 1548.04 L748.421 1543.34 Q750.505 1544.47 752.727 1545.03 Q754.949 1545.58 757.426 1545.58 Q761.431 1545.58 763.768 1543.48 Q766.106 1541.37 766.106 1537.76 Q766.106 1534.15 763.768 1532.04 Q761.431 1529.94 757.426 1529.94 Q755.551 1529.94 753.676 1530.35 Q751.824 1530.77 749.88 1531.65 L749.88 1514.29 Z" fill="#000000" fill-rule="nonzero" fill-opacity="1" /><path clip-path="url(#clip850)" d="M1234.82 1514.29 L1253.17 1514.29 L1253.17 1518.22 L1239.1 1518.22 L1239.1 1526.7 Q1240.12 1526.35 1241.13 1526.19 Q1242.15 1526 1243.17 1526 Q1248.96 1526 1252.34 1529.17 Q1255.72 1532.34 1255.72 1537.76 Q1255.72 1543.34 1252.25 1546.44 Q1248.77 1549.52 1242.45 1549.52 Q1240.28 1549.52 1238.01 1549.15 Q1235.76 1548.78 1233.36 1548.04 L1233.36 1543.34 Q1235.44 1544.47 1237.66 1545.03 Q1239.88 1545.58 1242.36 1545.58 Q1246.37 1545.58 1248.7 1543.48 Q1251.04 1541.37 1251.04 1537.76 Q1251.04 1534.15 1248.7 1532.04 Q1246.37 1529.94 1242.36 1529.94 Q1240.49 1529.94 1238.61 1530.35 Q1236.76 1530.77 1234.82 1531.65 L1234.82 1514.29 Z" fill="#000000" fill-rule="nonzero" fill-opacity="1" /><path clip-path="url(#clip850)" d="M1274.93 1517.37 Q1271.32 1517.37 1269.49 1520.93 Q1267.69 1524.47 1267.69 1531.6 Q1267.69 1538.71 1269.49 1542.27 Q1271.32 1545.82 1274.93 1545.82 Q1278.57 1545.82 1280.37 1542.27 Q1282.2 1538.71 1282.2 1531.6 Q1282.2 1524.47 1280.37 1520.93 Q1278.57 1517.37 1274.93 1517.37 M1274.93 1513.66 Q1280.74 1513.66 1283.8 1518.27 Q1286.88 1522.85 1286.88 1531.6 Q1286.88 1540.33 1283.8 1544.94 Q1280.74 1549.52 1274.93 1549.52 Q1269.12 1549.52 1266.04 1544.94 Q1262.99 1540.33 1262.99 1531.6 Q1262.99 1522.85 1266.04 1518.27 Q1269.12 1513.66 1274.93 1513.66 Z" fill="#000000" fill-rule="nonzero" fill-opacity="1" /><path clip-path="url(#clip850)" d="M1749.66 1514.29 L1771.88 1514.29 L1771.88 1516.28 L1759.33 1548.85 L1754.45 1548.85 L1766.26 1518.22 L1749.66 1518.22 L1749.66 1514.29 Z" fill="#000000" fill-rule="nonzero" fill-opacity="1" /><path clip-path="url(#clip850)" d="M1781.05 1514.29 L1799.4 1514.29 L1799.4 1518.22 L1785.33 1518.22 L1785.33 1526.7 Q1786.35 1526.35 1787.37 1526.19 Q1788.39 1526 1789.4 1526 Q1795.19 1526 1798.57 1529.17 Q1801.95 1532.34 1801.95 1537.76 Q1801.95 1543.34 1798.48 1546.44 Q1795.01 1549.52 1788.69 1549.52 Q1786.51 1549.52 1784.24 1549.15 Q1782 1548.78 1779.59 1548.04 L1779.59 1543.34 Q1781.67 1544.47 1783.89 1545.03 Q1786.12 1545.58 1788.59 1545.58 Q1792.6 1545.58 1794.94 1543.48 Q1797.27 1541.37 1797.27 1537.76 Q1797.27 1534.15 1794.94 1532.04 Q1792.6 1529.94 1788.59 1529.94 Q1786.72 1529.94 1784.84 1530.35 Q1782.99 1530.77 1781.05 1531.65 L1781.05 1514.29 Z" fill="#000000" fill-rule="nonzero" fill-opacity="1" /><path clip-path="url(#clip850)" d="M2251.1 1544.91 L2258.74 1544.91 L2258.74 1518.55 L2250.43 1520.21 L2250.43 1515.95 L2258.69 1514.29 L2263.37 1514.29 L2263.37 1544.91 L2271.01 1544.91 L2271.01 1548.85 L2251.1 1548.85 L2251.1 1544.91 Z" fill="#000000" fill-rule="nonzero" fill-opacity="1" /><path clip-path="url(#clip850)" d="M2290.45 1517.37 Q2286.84 1517.37 2285.01 1520.93 Q2283.21 1524.47 2283.21 1531.6 Q2283.21 1538.71 2285.01 1542.27 Q2286.84 1545.82 2290.45 1545.82 Q2294.08 1545.82 2295.89 1542.27 Q2297.72 1538.71 2297.72 1531.6 Q2297.72 1524.47 2295.89 1520.93 Q2294.08 1517.37 2290.45 1517.37 M2290.45 1513.66 Q2296.26 1513.66 2299.32 1518.27 Q2302.39 1522.85 2302.39 1531.6 Q2302.39 1540.33 2299.32 1544.94 Q2296.26 1549.52 2290.45 1549.52 Q2284.64 1549.52 2281.56 1544.94 Q2278.51 1540.33 2278.51 1531.6 Q2278.51 1522.85 2281.56 1518.27 Q2284.64 1513.66 2290.45 1513.66 Z" fill="#000000" fill-rule="nonzero" fill-opacity="1" /><path clip-path="url(#clip850)" d="M2320.61 1517.37 Q2317 1517.37 2315.17 1520.93 Q2313.37 1524.47 2313.37 1531.6 Q2313.37 1538.71 2315.17 1542.27 Q2317 1545.82 2320.61 1545.82 Q2324.25 1545.82 2326.05 1542.27 Q2327.88 1538.71 2327.88 1531.6 Q2327.88 1524.47 2326.05 1520.93 Q2324.25 1517.37 2320.61 1517.37 M2320.61 1513.66 Q2326.42 1513.66 2329.48 1518.27 Q2332.56 1522.85 2332.56 1531.6 Q2332.56 1540.33 2329.48 1544.94 Q2326.42 1549.52 2320.61 1549.52 Q2314.8 1549.52 2311.72 1544.94 Q2308.67 1540.33 2308.67 1531.6 Q2308.67 1522.85 2311.72 1518.27 Q2314.8 1513.66 2320.61 1513.66 Z" fill="#000000" fill-rule="nonzero" fill-opacity="1" /><polyline clip-path="url(#clip852)" style="stroke:#000000; stroke-linecap:round; stroke-linejoin:round; stroke-width:2; stroke-opacity:0.1; fill:none" points="188.104,1373.7 2352.76,1373.7 "/>
<polyline clip-path="url(#clip852)" style="stroke:#000000; stroke-linecap:round; stroke-linejoin:round; stroke-width:2; stroke-opacity:0.1; fill:none" points="188.104,766.846 2352.76,766.846 "/>
<polyline clip-path="url(#clip852)" style="stroke:#000000; stroke-linecap:round; stroke-linejoin:round; stroke-width:2; stroke-opacity:0.1; fill:none" points="188.104,159.991 2352.76,159.991 "/>
<polyline clip-path="url(#clip850)" style="stroke:#000000; stroke-linecap:round; stroke-linejoin:round; stroke-width:4; stroke-opacity:1; fill:none" points="188.104,1486.45 188.104,47.2441 "/>
<polyline clip-path="url(#clip850)" style="stroke:#000000; stroke-linecap:round; stroke-linejoin:round; stroke-width:4; stroke-opacity:1; fill:none" points="188.104,1373.7 207.002,1373.7 "/>
<polyline clip-path="url(#clip850)" style="stroke:#000000; stroke-linecap:round; stroke-linejoin:round; stroke-width:4; stroke-opacity:1; fill:none" points="188.104,766.846 207.002,766.846 "/>
<polyline clip-path="url(#clip850)" style="stroke:#000000; stroke-linecap:round; stroke-linejoin:round; stroke-width:4; stroke-opacity:1; fill:none" points="188.104,159.991 207.002,159.991 "/>
<path clip-path="url(#clip850)" d="M51.6634 1393.49 L59.3023 1393.49 L59.3023 1367.13 L50.9921 1368.79 L50.9921 1364.54 L59.256 1362.87 L63.9319 1362.87 L63.9319 1393.49 L71.5707 1393.49 L71.5707 1397.43 L51.6634 1397.43 L51.6634 1393.49 Z" fill="#000000" fill-rule="nonzero" fill-opacity="1" /><path clip-path="url(#clip850)" d="M91.0151 1365.95 Q87.404 1365.95 85.5753 1369.51 Q83.7697 1373.05 83.7697 1380.18 Q83.7697 1387.29 85.5753 1390.85 Q87.404 1394.4 91.0151 1394.4 Q94.6493 1394.4 96.4548 1390.85 Q98.2835 1387.29 98.2835 1380.18 Q98.2835 1373.05 96.4548 1369.51 Q94.6493 1365.95 91.0151 1365.95 M91.0151 1362.24 Q96.8252 1362.24 99.8808 1366.85 Q102.959 1371.43 102.959 1380.18 Q102.959 1388.91 99.8808 1393.52 Q96.8252 1398.1 91.0151 1398.1 Q85.2049 1398.1 82.1262 1393.52 Q79.0707 1388.91 79.0707 1380.18 Q79.0707 1371.43 82.1262 1366.85 Q85.2049 1362.24 91.0151 1362.24 Z" fill="#000000" fill-rule="nonzero" fill-opacity="1" /><path clip-path="url(#clip850)" d="M102.959 1356.35 L127.071 1356.35 L127.071 1359.54 L102.959 1359.54 L102.959 1356.35 Z" fill="#000000" fill-rule="nonzero" fill-opacity="1" /><path clip-path="url(#clip850)" d="M135.929 1366.82 L142.136 1366.82 L142.136 1345.4 L135.384 1346.75 L135.384 1343.29 L142.098 1341.94 L145.898 1341.94 L145.898 1366.82 L152.104 1366.82 L152.104 1370.02 L135.929 1370.02 L135.929 1366.82 Z" fill="#000000" fill-rule="nonzero" fill-opacity="1" /><path clip-path="url(#clip850)" d="M81.3985 786.638 L89.0374 786.638 L89.0374 760.273 L80.7272 761.939 L80.7272 757.68 L88.9911 756.014 L93.667 756.014 L93.667 786.638 L101.306 786.638 L101.306 790.574 L81.3985 790.574 L81.3985 786.638 Z" fill="#000000" fill-rule="nonzero" fill-opacity="1" /><path clip-path="url(#clip850)" d="M120.75 759.092 Q117.139 759.092 115.31 762.657 Q113.505 766.199 113.505 773.328 Q113.505 780.435 115.31 784 Q117.139 787.541 120.75 787.541 Q124.384 787.541 126.19 784 Q128.019 780.435 128.019 773.328 Q128.019 766.199 126.19 762.657 Q124.384 759.092 120.75 759.092 M120.75 755.389 Q126.56 755.389 129.616 759.995 Q132.695 764.578 132.695 773.328 Q132.695 782.055 129.616 786.662 Q126.56 791.245 120.75 791.245 Q114.94 791.245 111.861 786.662 Q108.806 782.055 108.806 773.328 Q108.806 764.578 111.861 759.995 Q114.94 755.389 120.75 755.389 Z" fill="#000000" fill-rule="nonzero" fill-opacity="1" /><path clip-path="url(#clip850)" d="M142.399 737.585 Q139.465 737.585 137.98 740.481 Q136.513 743.359 136.513 749.151 Q136.513 754.925 137.98 757.822 Q139.465 760.699 142.399 760.699 Q145.352 760.699 146.819 757.822 Q148.305 754.925 148.305 749.151 Q148.305 743.359 146.819 740.481 Q145.352 737.585 142.399 737.585 M142.399 734.575 Q147.12 734.575 149.603 738.318 Q152.104 742.042 152.104 749.151 Q152.104 756.242 149.603 759.985 Q147.12 763.709 142.399 763.709 Q137.679 763.709 135.177 759.985 Q132.695 756.242 132.695 749.151 Q132.695 742.042 135.177 738.318 Q137.679 734.575 142.399 734.575 Z" fill="#000000" fill-rule="nonzero" fill-opacity="1" /><path clip-path="url(#clip850)" d="M84.088 179.783 L91.7269 179.783 L91.7269 153.418 L83.4167 155.084 L83.4167 150.825 L91.6806 149.158 L96.3565 149.158 L96.3565 179.783 L103.995 179.783 L103.995 183.718 L84.088 183.718 L84.088 179.783 Z" fill="#000000" fill-rule="nonzero" fill-opacity="1" /><path clip-path="url(#clip850)" d="M123.44 152.237 Q119.829 152.237 118 155.802 Q116.194 159.344 116.194 166.473 Q116.194 173.58 118 177.144 Q119.829 180.686 123.44 180.686 Q127.074 180.686 128.879 177.144 Q130.708 173.58 130.708 166.473 Q130.708 159.344 128.879 155.802 Q127.074 152.237 123.44 152.237 M123.44 148.533 Q129.25 148.533 132.305 153.14 Q135.384 157.723 135.384 166.473 Q135.384 175.2 132.305 179.806 Q129.25 184.39 123.44 184.39 Q117.63 184.39 114.551 179.806 Q111.495 175.2 111.495 166.473 Q111.495 157.723 114.551 153.14 Q117.63 148.533 123.44 148.533 Z" fill="#000000" fill-rule="nonzero" fill-opacity="1" /><path clip-path="url(#clip850)" d="M135.929 153.111 L142.136 153.111 L142.136 131.689 L135.384 133.043 L135.384 129.582 L142.098 128.228 L145.898 128.228 L145.898 153.111 L152.104 153.111 L152.104 156.308 L135.929 156.308 L135.929 153.111 Z" fill="#000000" fill-rule="nonzero" fill-opacity="1" /><polyline clip-path="url(#clip852)" style="stroke:#009af9; stroke-linecap:round; stroke-linejoin:round; stroke-width:4; stroke-opacity:1; fill:none" points="249.368,1445.72 269.995,1338.78 290.623,1283.4 311.25,1244.38 331.878,1213.67 352.505,1188.06 373.133,1165.89 393.76,1146.24 414.388,1128.5 435.016,1112.25 455.643,1097.23 476.271,1083.21 496.898,1070.02 517.526,1057.56 538.153,1045.72 558.781,1034.41 579.408,1023.58 600.036,1013.16 620.663,1003.11 641.291,993.401 661.918,983.986 682.546,974.84 703.173,965.939 723.801,957.258 744.428,948.78 765.056,940.485 785.683,932.359 806.311,924.388 826.938,916.558 847.566,908.858 868.193,901.278 888.821,893.807 909.448,886.437 930.076,879.159 950.703,871.966 971.331,864.85 991.959,857.805 1012.59,850.825 1033.21,843.903 1053.84,837.033 1074.47,830.211 1095.1,823.431 1115.72,816.689 1136.35,809.979 1156.98,803.297 1177.61,796.638 1198.23,789.998 1218.86,783.373 1239.49,776.758 1260.12,770.149 1280.74,763.543 1301.37,756.934 1322,750.319 1342.63,743.694 1363.25,737.054 1383.88,730.395 1404.51,723.713 1425.14,717.003 1445.76,710.261 1466.39,703.481 1487.02,696.659 1507.65,689.789 1528.27,682.867 1548.9,675.887 1569.53,668.842 1590.16,661.726 1610.78,654.533 1631.41,647.255 1652.04,639.885 1672.67,632.414 1693.29,624.834 1713.92,617.134 1734.55,609.304 1755.18,601.333 1775.8,593.207 1796.43,584.912 1817.06,576.434 1837.69,567.753 1858.31,558.851 1878.94,549.706 1899.57,540.291 1920.2,530.577 1940.82,520.531 1961.45,510.115 1982.08,499.28 2002.71,487.974 2023.33,476.13 2043.96,463.667 2064.59,450.487 2085.22,436.464 2105.84,421.438 2126.47,405.196 2147.1,387.452 2167.73,367.799 2188.35,345.636 2208.98,320.017 2229.61,289.31 2250.24,250.29 2270.86,194.91 2291.49,87.9763 "/>
<path clip-path="url(#clip850)" d="M260.259 198.898 L529.155 198.898 L529.155 95.2176 L260.259 95.2176  Z" fill="#ffffff" fill-rule="evenodd" fill-opacity="1"/>
<polyline clip-path="url(#clip850)" style="stroke:#000000; stroke-linecap:round; stroke-linejoin:round; stroke-width:4; stroke-opacity:1; fill:none" points="260.259,198.898 529.155,198.898 529.155,95.2176 260.259,95.2176 260.259,198.898 "/>
<polyline clip-path="url(#clip850)" style="stroke:#009af9; stroke-linecap:round; stroke-linejoin:round; stroke-width:4; stroke-opacity:1; fill:none" points="284.311,147.058 428.621,147.058 "/>
<path clip-path="url(#clip850)" d="M466.515 166.745 Q464.71 171.375 462.997 172.787 Q461.284 174.199 458.413 174.199 L455.011 174.199 L455.011 170.634 L457.511 170.634 Q459.27 170.634 460.242 169.8 Q461.214 168.967 462.395 165.865 L463.159 163.921 L452.673 138.412 L457.187 138.412 L465.288 158.689 L473.39 138.412 L477.904 138.412 L466.515 166.745 Z" fill="#000000" fill-rule="nonzero" fill-opacity="1" /><path clip-path="url(#clip850)" d="M485.196 160.402 L492.835 160.402 L492.835 134.037 L484.524 135.703 L484.524 131.444 L492.788 129.778 L497.464 129.778 L497.464 160.402 L505.103 160.402 L505.103 164.338 L485.196 164.338 L485.196 160.402 Z" fill="#000000" fill-rule="nonzero" fill-opacity="1" /></svg>
