<?xml version="1.0" encoding="utf-8"?>
<svg xmlns="http://www.w3.org/2000/svg" xmlns:xlink="http://www.w3.org/1999/xlink" width="600" height="400" viewBox="0 0 2400 1600">
<defs>
  <clipPath id="clip150">
    <rect x="0" y="0" width="2400" height="1600"/>
  </clipPath>
</defs>
<path clip-path="url(#clip150)" d="M0 1600 L2400 1600 L2400 0 L0 0  Z" fill="#ffffff" fill-rule="evenodd" fill-opacity="1"/>
<defs>
  <clipPath id="clip151">
    <rect x="480" y="0" width="1681" height="1600"/>
  </clipPath>
</defs>
<path clip-path="url(#clip150)" d="M156.598 1486.45 L2352.76 1486.45 L2352.76 47.2441 L156.598 47.2441  Z" fill="#ffffff" fill-rule="evenodd" fill-opacity="1"/>
<defs>
  <clipPath id="clip152">
    <rect x="156" y="47" width="2197" height="1440"/>
  </clipPath>
</defs>
<polyline clip-path="url(#clip152)" style="stroke:#000000; stroke-linecap:round; stroke-linejoin:round; stroke-width:2; stroke-opacity:0.1; fill:none" points="218.754,1486.45 218.754,47.2441 "/>
<polyline clip-path="url(#clip152)" style="stroke:#000000; stroke-linecap:round; stroke-linejoin:round; stroke-width:2; stroke-opacity:0.1; fill:none" points="736.715,1486.45 736.715,47.2441 "/>
<polyline clip-path="url(#clip152)" style="stroke:#000000; stroke-linecap:round; stroke-linejoin:round; stroke-width:2; stroke-opacity:0.1; fill:none" points="1254.68,1486.45 1254.68,47.2441 "/>
<polyline clip-path="url(#clip152)" style="stroke:#000000; stroke-linecap:round; stroke-linejoin:round; stroke-width:2; stroke-opacity:0.1; fill:none" points="1772.64,1486.45 1772.64,47.2441 "/>
<polyline clip-path="url(#clip152)" style="stroke:#000000; stroke-linecap:round; stroke-linejoin:round; stroke-width:2; stroke-opacity:0.1; fill:none" points="2290.6,1486.45 2290.6,47.2441 "/>
<polyline clip-path="url(#clip150)" style="stroke:#000000; stroke-linecap:round; stroke-linejoin:round; stroke-width:4; stroke-opacity:1; fill:none" points="156.598,1486.45 2352.76,1486.45 "/>
<polyline clip-path="url(#clip150)" style="stroke:#000000; stroke-linecap:round; stroke-linejoin:round; stroke-width:4; stroke-opacity:1; fill:none" points="218.754,1486.45 218.754,1467.55 "/>
<polyline clip-path="url(#clip150)" style="stroke:#000000; stroke-linecap:round; stroke-linejoin:round; stroke-width:4; stroke-opacity:1; fill:none" points="736.715,1486.45 736.715,1467.55 "/>
<polyline clip-path="url(#clip150)" style="stroke:#000000; stroke-linecap:round; stroke-linejoin:round; stroke-width:4; stroke-opacity:1; fill:none" points="1254.68,1486.45 1254.68,1467.55 "/>
<polyline clip-path="url(#clip150)" style="stroke:#000000; stroke-linecap:round; stroke-linejoin:round; stroke-width:4; stroke-opacity:1; fill:none" points="1772.64,1486.45 1772.64,1467.55 "/>
<polyline clip-path="url(#clip150)" style="stroke:#000000; stroke-linecap:round; stroke-linejoin:round; stroke-width:4; stroke-opacity:1; fill:none" points="2290.6,1486.45 2290.6,1467.55 "/>
<path clip-path="url(#clip150)" d="M209.136 1544.91 L216.774 1544.91 L216.774 1518.55 L208.464 1520.21 L208.464 1515.95 L216.728 1514.29 L221.404 1514.29 L221.404 1544.91 L229.043 1544.91 L229.043 1548.85 L209.136 1548.85 L209.136 1544.91 Z" fill="#000000" fill-rule="nonzero" fill-opacity="1" /><path clip-path="url(#clip150)" d="M731.368 1544.91 L747.688 1544.91 L747.688 1548.85 L725.743 1548.85 L725.743 1544.91 Q728.405 1542.16 732.989 1537.53 Q737.595 1532.88 738.776 1531.53 Q741.021 1529.01 741.901 1527.27 Q742.803 1525.51 742.803 1523.82 Q742.803 1521.07 740.859 1519.33 Q738.938 1517.6 735.836 1517.6 Q733.637 1517.6 731.183 1518.36 Q728.752 1519.13 725.975 1520.68 L725.975 1515.95 Q728.799 1514.82 731.252 1514.24 Q733.706 1513.66 735.743 1513.66 Q741.113 1513.66 744.308 1516.35 Q747.502 1519.03 747.502 1523.52 Q747.502 1525.65 746.692 1527.57 Q745.905 1529.47 743.799 1532.07 Q743.22 1532.74 740.118 1535.95 Q737.016 1539.15 731.368 1544.91 Z" fill="#000000" fill-rule="nonzero" fill-opacity="1" /><path clip-path="url(#clip150)" d="M1258.92 1530.21 Q1262.28 1530.93 1264.16 1533.2 Q1266.05 1535.47 1266.05 1538.8 Q1266.05 1543.92 1262.54 1546.72 Q1259.02 1549.52 1252.54 1549.52 Q1250.36 1549.52 1248.05 1549.08 Q1245.75 1548.66 1243.3 1547.81 L1243.3 1543.29 Q1245.24 1544.43 1247.56 1545.01 Q1249.87 1545.58 1252.4 1545.58 Q1256.8 1545.58 1259.09 1543.85 Q1261.4 1542.11 1261.4 1538.8 Q1261.4 1535.75 1259.25 1534.03 Q1257.12 1532.3 1253.3 1532.3 L1249.27 1532.3 L1249.27 1528.45 L1253.48 1528.45 Q1256.93 1528.45 1258.76 1527.09 Q1260.59 1525.7 1260.59 1523.11 Q1260.59 1520.45 1258.69 1519.03 Q1256.82 1517.6 1253.3 1517.6 Q1251.38 1517.6 1249.18 1518.01 Q1246.98 1518.43 1244.34 1519.31 L1244.34 1515.14 Q1247 1514.4 1249.32 1514.03 Q1251.66 1513.66 1253.72 1513.66 Q1259.04 1513.66 1262.14 1516.09 Q1265.24 1518.5 1265.24 1522.62 Q1265.24 1525.49 1263.6 1527.48 Q1261.96 1529.45 1258.92 1530.21 Z" fill="#000000" fill-rule="nonzero" fill-opacity="1" /><path clip-path="url(#clip150)" d="M1775.65 1518.36 L1763.84 1536.81 L1775.65 1536.81 L1775.65 1518.36 M1774.42 1514.29 L1780.3 1514.29 L1780.3 1536.81 L1785.23 1536.81 L1785.23 1540.7 L1780.3 1540.7 L1780.3 1548.85 L1775.65 1548.85 L1775.65 1540.7 L1760.05 1540.7 L1760.05 1536.19 L1774.42 1514.29 Z" fill="#000000" fill-rule="nonzero" fill-opacity="1" /><path clip-path="url(#clip150)" d="M2280.88 1514.29 L2299.23 1514.29 L2299.23 1518.22 L2285.16 1518.22 L2285.16 1526.7 Q2286.18 1526.35 2287.2 1526.19 Q2288.22 1526 2289.23 1526 Q2295.02 1526 2298.4 1529.17 Q2301.78 1532.34 2301.78 1537.76 Q2301.78 1543.34 2298.31 1546.44 Q2294.84 1549.52 2288.52 1549.52 Q2286.34 1549.52 2284.07 1549.15 Q2281.83 1548.78 2279.42 1548.04 L2279.42 1543.34 Q2281.5 1544.47 2283.73 1545.03 Q2285.95 1545.58 2288.42 1545.58 Q2292.43 1545.58 2294.77 1543.48 Q2297.11 1541.37 2297.11 1537.76 Q2297.11 1534.15 2294.77 1532.04 Q2292.43 1529.94 2288.42 1529.94 Q2286.55 1529.94 2284.67 1530.35 Q2282.82 1530.77 2280.88 1531.65 L2280.88 1514.29 Z" fill="#000000" fill-rule="nonzero" fill-opacity="1" /><polyline clip-path="url(#clip152)" style="stroke:#000000; stroke-linecap:round; stroke-linejoin:round; stroke-width:2; stroke-opacity:0.1; fill:none" points="156.598,1447.72 2352.76,1447.72 "/>
<polyline clip-path="url(#clip152)" style="stroke:#000000; stroke-linecap:round; stroke-linejoin:round; stroke-width:2; stroke-opacity:0.1; fill:none" points="156.598,1150.49 2352.76,1150.49 "/>
<polyline clip-path="url(#clip152)" style="stroke:#000000; stroke-linecap:round; stroke-linejoin:round; stroke-width:2; stroke-opacity:0.1; fill:none" points="156.598,853.252 2352.76,853.252 "/>
<polyline clip-path="url(#clip152)" style="stroke:#000000; stroke-linecap:round; stroke-linejoin:round; stroke-width:2; stroke-opacity:0.1; fill:none" points="156.598,556.016 2352.76,556.016 "/>
<polyline clip-path="url(#clip152)" style="stroke:#000000; stroke-linecap:round; stroke-linejoin:round; stroke-width:2; stroke-opacity:0.1; fill:none" points="156.598,258.781 2352.76,258.781 "/>
<polyline clip-path="url(#clip150)" style="stroke:#000000; stroke-linecap:round; stroke-linejoin:round; stroke-width:4; stroke-opacity:1; fill:none" points="156.598,1486.45 156.598,47.2441 "/>
<polyline clip-path="url(#clip150)" style="stroke:#000000; stroke-linecap:round; stroke-linejoin:round; stroke-width:4; stroke-opacity:1; fill:none" points="156.598,1447.72 175.496,1447.72 "/>
<polyline clip-path="url(#clip150)" style="stroke:#000000; stroke-linecap:round; stroke-linejoin:round; stroke-width:4; stroke-opacity:1; fill:none" points="156.598,1150.49 175.496,1150.49 "/>
<polyline clip-path="url(#clip150)" style="stroke:#000000; stroke-linecap:round; stroke-linejoin:round; stroke-width:4; stroke-opacity:1; fill:none" points="156.598,853.252 175.496,853.252 "/>
<polyline clip-path="url(#clip150)" style="stroke:#000000; stroke-linecap:round; stroke-linejoin:round; stroke-width:4; stroke-opacity:1; fill:none" points="156.598,556.016 175.496,556.016 "/>
<polyline clip-path="url(#clip150)" style="stroke:#000000; stroke-linecap:round; stroke-linejoin:round; stroke-width:4; stroke-opacity:1; fill:none" points="156.598,258.781 175.496,258.781 "/>
<path clip-path="url(#clip150)" d="M63.4226 1433.52 Q59.8115 1433.52 57.9828 1437.09 Q56.1773 1440.63 56.1773 1447.76 Q56.1773 1454.86 57.9828 1458.43 Q59.8115 1461.97 63.4226 1461.97 Q67.0569 1461.97 68.8624 1458.43 Q70.6911 1454.86 70.6911 1447.76 Q70.6911 1440.63 68.8624 1437.09 Q67.0569 1433.52 63.4226 1433.52 M63.4226 1429.82 Q69.2328 1429.82 72.2883 1434.42 Q75.367 1439.01 75.367 1447.76 Q75.367 1456.48 72.2883 1461.09 Q69.2328 1465.67 63.4226 1465.67 Q57.6125 1465.67 54.5338 1461.09 Q51.4782 1456.48 51.4782 1447.76 Q51.4782 1439.01 54.5338 1434.42 Q57.6125 1429.82 63.4226 1429.82 Z" fill="#000000" fill-rule="nonzero" fill-opacity="1" /><path clip-path="url(#clip150)" d="M83.5845 1459.12 L88.4688 1459.12 L88.4688 1465 L83.5845 1465 L83.5845 1459.12 Z" fill="#000000" fill-rule="nonzero" fill-opacity="1" /><path clip-path="url(#clip150)" d="M108.654 1433.52 Q105.043 1433.52 103.214 1437.09 Q101.409 1440.63 101.409 1447.76 Q101.409 1454.86 103.214 1458.43 Q105.043 1461.97 108.654 1461.97 Q112.288 1461.97 114.094 1458.43 Q115.922 1454.86 115.922 1447.76 Q115.922 1440.63 114.094 1437.09 Q112.288 1433.52 108.654 1433.52 M108.654 1429.82 Q114.464 1429.82 117.52 1434.42 Q120.598 1439.01 120.598 1447.76 Q120.598 1456.48 117.52 1461.09 Q114.464 1465.67 108.654 1465.67 Q102.844 1465.67 99.765 1461.09 Q96.7095 1456.48 96.7095 1447.76 Q96.7095 1439.01 99.765 1434.42 Q102.844 1429.82 108.654 1429.82 Z" fill="#000000" fill-rule="nonzero" fill-opacity="1" /><path clip-path="url(#clip150)" d="M65.0198 1136.29 Q61.4087 1136.29 59.58 1139.85 Q57.7745 1143.39 57.7745 1150.52 Q57.7745 1157.63 59.58 1161.19 Q61.4087 1164.73 65.0198 1164.73 Q68.6541 1164.73 70.4596 1161.19 Q72.2883 1157.63 72.2883 1150.52 Q72.2883 1143.39 70.4596 1139.85 Q68.6541 1136.29 65.0198 1136.29 M65.0198 1132.58 Q70.83 1132.58 73.8855 1137.19 Q76.9642 1141.77 76.9642 1150.52 Q76.9642 1159.25 73.8855 1163.86 Q70.83 1168.44 65.0198 1168.44 Q59.2097 1168.44 56.131 1163.86 Q53.0754 1159.25 53.0754 1150.52 Q53.0754 1141.77 56.131 1137.19 Q59.2097 1132.58 65.0198 1132.58 Z" fill="#000000" fill-rule="nonzero" fill-opacity="1" /><path clip-path="url(#clip150)" d="M85.1818 1161.89 L90.066 1161.89 L90.066 1167.77 L85.1818 1167.77 L85.1818 1161.89 Z" fill="#000000" fill-rule="nonzero" fill-opacity="1" /><path clip-path="url(#clip150)" d="M104.279 1163.83 L120.598 1163.83 L120.598 1167.77 L98.6539 1167.77 L98.6539 1163.83 Q101.316 1161.08 105.899 1156.45 Q110.506 1151.79 111.686 1150.45 Q113.932 1147.93 114.811 1146.19 Q115.714 1144.43 115.714 1142.74 Q115.714 1139.99 113.77 1138.25 Q111.848 1136.52 108.746 1136.52 Q106.547 1136.52 104.094 1137.28 Q101.663 1138.05 98.8854 1139.6 L98.8854 1134.87 Q101.709 1133.74 104.163 1133.16 Q106.617 1132.58 108.654 1132.58 Q114.024 1132.58 117.219 1135.27 Q120.413 1137.95 120.413 1142.44 Q120.413 1144.57 119.603 1146.49 Q118.816 1148.39 116.709 1150.98 Q116.131 1151.66 113.029 1154.87 Q109.927 1158.07 104.279 1163.83 Z" fill="#000000" fill-rule="nonzero" fill-opacity="1" /><path clip-path="url(#clip150)" d="M62.9365 839.05 Q59.3254 839.05 57.4967 842.615 Q55.6912 846.157 55.6912 853.286 Q55.6912 860.393 57.4967 863.958 Q59.3254 867.499 62.9365 867.499 Q66.5707 867.499 68.3763 863.958 Q70.205 860.393 70.205 853.286 Q70.205 846.157 68.3763 842.615 Q66.5707 839.05 62.9365 839.05 M62.9365 835.347 Q68.7467 835.347 71.8022 839.953 Q74.8809 844.537 74.8809 853.286 Q74.8809 862.013 71.8022 866.62 Q68.7467 871.203 62.9365 871.203 Q57.1264 871.203 54.0477 866.62 Q50.9921 862.013 50.9921 853.286 Q50.9921 844.537 54.0477 839.953 Q57.1264 835.347 62.9365 835.347 Z" fill="#000000" fill-rule="nonzero" fill-opacity="1" /><path clip-path="url(#clip150)" d="M83.0984 864.652 L87.9827 864.652 L87.9827 870.532 L83.0984 870.532 L83.0984 864.652 Z" fill="#000000" fill-rule="nonzero" fill-opacity="1" /><path clip-path="url(#clip150)" d="M111.015 840.046 L99.2095 858.495 L111.015 858.495 L111.015 840.046 M109.788 835.972 L115.668 835.972 L115.668 858.495 L120.598 858.495 L120.598 862.384 L115.668 862.384 L115.668 870.532 L111.015 870.532 L111.015 862.384 L95.4132 862.384 L95.4132 857.87 L109.788 835.972 Z" fill="#000000" fill-rule="nonzero" fill-opacity="1" /><path clip-path="url(#clip150)" d="M63.2606 541.815 Q59.6495 541.815 57.8208 545.38 Q56.0152 548.922 56.0152 556.051 Q56.0152 563.158 57.8208 566.722 Q59.6495 570.264 63.2606 570.264 Q66.8948 570.264 68.7004 566.722 Q70.5291 563.158 70.5291 556.051 Q70.5291 548.922 68.7004 545.38 Q66.8948 541.815 63.2606 541.815 M63.2606 538.111 Q69.0707 538.111 72.1263 542.718 Q75.205 547.301 75.205 556.051 Q75.205 564.778 72.1263 569.384 Q69.0707 573.968 63.2606 573.968 Q57.4504 573.968 54.3717 569.384 Q51.3162 564.778 51.3162 556.051 Q51.3162 547.301 54.3717 542.718 Q57.4504 538.111 63.2606 538.111 Z" fill="#000000" fill-rule="nonzero" fill-opacity="1" /><path clip-path="url(#clip150)" d="M83.4225 567.417 L88.3067 567.417 L88.3067 573.296 L83.4225 573.296 L83.4225 567.417 Z" fill="#000000" fill-rule="nonzero" fill-opacity="1" /><path clip-path="url(#clip150)" d="M109.071 554.153 Q105.922 554.153 104.071 556.306 Q102.242 558.459 102.242 562.209 Q102.242 565.935 104.071 568.111 Q105.922 570.264 109.071 570.264 Q112.219 570.264 114.047 568.111 Q115.899 565.935 115.899 562.209 Q115.899 558.459 114.047 556.306 Q112.219 554.153 109.071 554.153 M118.353 539.5 L118.353 543.76 Q116.594 542.926 114.788 542.486 Q113.006 542.047 111.246 542.047 Q106.617 542.047 104.163 545.172 Q101.733 548.297 101.385 554.616 Q102.751 552.602 104.811 551.537 Q106.871 550.449 109.348 550.449 Q114.557 550.449 117.566 553.621 Q120.598 556.769 120.598 562.209 Q120.598 567.533 117.45 570.75 Q114.302 573.968 109.071 573.968 Q103.075 573.968 99.9039 569.384 Q96.7326 564.778 96.7326 556.051 Q96.7326 547.857 100.621 542.996 Q104.51 538.111 111.061 538.111 Q112.82 538.111 114.603 538.459 Q116.408 538.806 118.353 539.5 Z" fill="#000000" fill-rule="nonzero" fill-opacity="1" /><path clip-path="url(#clip150)" d="M63.5152 244.58 Q59.9041 244.58 58.0754 248.145 Q56.2699 251.686 56.2699 258.816 Q56.2699 265.922 58.0754 269.487 Q59.9041 273.029 63.5152 273.029 Q67.1494 273.029 68.955 269.487 Q70.7837 265.922 70.7837 258.816 Q70.7837 251.686 68.955 248.145 Q67.1494 244.58 63.5152 244.58 M63.5152 240.876 Q69.3254 240.876 72.3809 245.483 Q75.4596 250.066 75.4596 258.816 Q75.4596 267.543 72.3809 272.149 Q69.3254 276.732 63.5152 276.732 Q57.7051 276.732 54.6264 272.149 Q51.5708 267.543 51.5708 258.816 Q51.5708 250.066 54.6264 245.483 Q57.7051 240.876 63.5152 240.876 Z" fill="#000000" fill-rule="nonzero" fill-opacity="1" /><path clip-path="url(#clip150)" d="M83.6771 270.181 L88.5614 270.181 L88.5614 276.061 L83.6771 276.061 L83.6771 270.181 Z" fill="#000000" fill-rule="nonzero" fill-opacity="1" /><path clip-path="url(#clip150)" d="M108.746 259.649 Q105.413 259.649 103.492 261.432 Q101.594 263.214 101.594 266.339 Q101.594 269.464 103.492 271.246 Q105.413 273.029 108.746 273.029 Q112.08 273.029 114.001 271.246 Q115.922 269.441 115.922 266.339 Q115.922 263.214 114.001 261.432 Q112.103 259.649 108.746 259.649 M104.071 257.658 Q101.061 256.918 99.3715 254.857 Q97.7048 252.797 97.7048 249.834 Q97.7048 245.691 100.645 243.283 Q103.608 240.876 108.746 240.876 Q113.908 240.876 116.848 243.283 Q119.788 245.691 119.788 249.834 Q119.788 252.797 118.098 254.857 Q116.432 256.918 113.445 257.658 Q116.825 258.445 118.7 260.737 Q120.598 263.029 120.598 266.339 Q120.598 271.362 117.52 274.047 Q114.464 276.732 108.746 276.732 Q103.029 276.732 99.9502 274.047 Q96.8947 271.362 96.8947 266.339 Q96.8947 263.029 98.7928 260.737 Q100.691 258.445 104.071 257.658 M102.358 250.274 Q102.358 252.959 104.024 254.464 Q105.714 255.969 108.746 255.969 Q111.756 255.969 113.445 254.464 Q115.158 252.959 115.158 250.274 Q115.158 247.589 113.445 246.084 Q111.756 244.58 108.746 244.58 Q105.714 244.58 104.024 246.084 Q102.358 247.589 102.358 250.274 Z" fill="#000000" fill-rule="nonzero" fill-opacity="1" /><polyline clip-path="url(#clip152)" style="stroke:#009af9; stroke-linecap:round; stroke-linejoin:round; stroke-width:4; stroke-opacity:1; fill:none" points="218.754,1338.69 736.715,928.688 1254.68,409.143 1772.64,514.01 2290.6,87.9763 "/>
<polyline clip-path="url(#clip152)" style="stroke:#e26f46; stroke-linecap:round; stroke-linejoin:round; stroke-width:4; stroke-opacity:1; fill:none" points="218.754,1161.18 736.715,303.098 1254.68,287.733 1772.64,451.592 2290.6,1198.47 "/>
<circle clip-path="url(#clip152)" cx="218.754" cy="598.986" r="14.4" fill="#3da44d" fill-rule="evenodd" fill-opacity="1" stroke="#000000" stroke-opacity="1" stroke-width="3.2"/>
<circle clip-path="url(#clip152)" cx="736.715" cy="774.769" r="14.4" fill="#3da44d" fill-rule="evenodd" fill-opacity="1" stroke="#000000" stroke-opacity="1" stroke-width="3.2"/>
<circle clip-path="url(#clip152)" cx="1254.68" cy="998.413" r="14.4" fill="#3da44d" fill-rule="evenodd" fill-opacity="1" stroke="#000000" stroke-opacity="1" stroke-width="3.2"/>
<circle clip-path="url(#clip152)" cx="1772.64" cy="1445.72" r="14.4" fill="#3da44d" fill-rule="evenodd" fill-opacity="1" stroke="#000000" stroke-opacity="1" stroke-width="3.2"/>
<circle clip-path="url(#clip152)" cx="2290.6" cy="605.025" r="14.4" fill="#3da44d" fill-rule="evenodd" fill-opacity="1" stroke="#000000" stroke-opacity="1" stroke-width="3.2"/>
<path clip-path="url(#clip150)" d="M1690.7 302.578 L2279.55 302.578 L2279.55 95.2176 L1690.7 95.2176  Z" fill="#ffffff" fill-rule="evenodd" fill-opacity="1"/>
<polyline clip-path="url(#clip150)" style="stroke:#000000; stroke-linecap:round; stroke-linejoin:round; stroke-width:4; stroke-opacity:1; fill:none" points="1690.7,302.578 2279.55,302.578 2279.55,95.2176 1690.7,95.2176 1690.7,302.578 "/>
<polyline clip-path="url(#clip150)" style="stroke:#009af9; stroke-linecap:round; stroke-linejoin:round; stroke-width:4; stroke-opacity:1; fill:none" points="1715.1,147.058 1861.51,147.058 "/>
<path clip-path="url(#clip150)" d="M1897.81 141.398 Q1894.39 141.398 1892.4 144.083 Q1890.41 146.745 1890.41 151.398 Q1890.41 156.051 1892.37 158.736 Q1894.36 161.398 1897.81 161.398 Q1901.22 161.398 1903.21 158.713 Q1905.2 156.027 1905.2 151.398 Q1905.2 146.791 1903.21 144.106 Q1901.22 141.398 1897.81 141.398 M1897.81 137.787 Q1903.37 137.787 1906.54 141.398 Q1909.71 145.009 1909.71 151.398 Q1909.71 157.764 1906.54 161.398 Q1903.37 165.009 1897.81 165.009 Q1892.23 165.009 1889.06 161.398 Q1885.91 157.764 1885.91 151.398 Q1885.91 145.009 1889.06 141.398 Q1892.23 137.787 1897.81 137.787 Z" fill="#000000" fill-rule="nonzero" fill-opacity="1" /><path clip-path="url(#clip150)" d="M1931.79 142.393 Q1931.08 141.977 1930.22 141.791 Q1929.39 141.583 1928.37 141.583 Q1924.76 141.583 1922.81 143.944 Q1920.89 146.282 1920.89 150.68 L1920.89 164.338 L1916.61 164.338 L1916.61 138.412 L1920.89 138.412 L1920.89 142.44 Q1922.23 140.078 1924.39 138.944 Q1926.54 137.787 1929.62 137.787 Q1930.06 137.787 1930.59 137.856 Q1931.12 137.903 1931.77 138.018 L1931.79 142.393 Z" fill="#000000" fill-rule="nonzero" fill-opacity="1" /><path clip-path="url(#clip150)" d="M1936.26 138.412 L1940.52 138.412 L1940.52 164.338 L1936.26 164.338 L1936.26 138.412 M1936.26 128.319 L1940.52 128.319 L1940.52 133.713 L1936.26 133.713 L1936.26 128.319 Z" fill="#000000" fill-rule="nonzero" fill-opacity="1" /><path clip-path="url(#clip150)" d="M1966.49 151.074 Q1966.49 146.444 1964.57 143.898 Q1962.67 141.352 1959.22 141.352 Q1955.8 141.352 1953.88 143.898 Q1951.98 146.444 1951.98 151.074 Q1951.98 155.68 1953.88 158.226 Q1955.8 160.773 1959.22 160.773 Q1962.67 160.773 1964.57 158.226 Q1966.49 155.68 1966.49 151.074 M1970.75 161.12 Q1970.75 167.74 1967.81 170.958 Q1964.87 174.199 1958.81 174.199 Q1956.56 174.199 1954.57 173.851 Q1952.58 173.527 1950.71 172.833 L1950.71 168.689 Q1952.58 169.708 1954.41 170.194 Q1956.24 170.68 1958.14 170.68 Q1962.33 170.68 1964.41 168.481 Q1966.49 166.305 1966.49 161.884 L1966.49 159.777 Q1965.17 162.069 1963.11 163.203 Q1961.05 164.338 1958.18 164.338 Q1953.41 164.338 1950.5 160.703 Q1947.58 157.069 1947.58 151.074 Q1947.58 145.055 1950.5 141.421 Q1953.41 137.787 1958.18 137.787 Q1961.05 137.787 1963.11 138.921 Q1965.17 140.055 1966.49 142.347 L1966.49 138.412 L1970.75 138.412 L1970.75 161.12 Z" fill="#000000" fill-rule="nonzero" fill-opacity="1" /><path clip-path="url(#clip150)" d="M1979.53 138.412 L1983.78 138.412 L1983.78 164.338 L1979.53 164.338 L1979.53 138.412 M1979.53 128.319 L1983.78 128.319 L1983.78 133.713 L1979.53 133.713 L1979.53 128.319 Z" fill="#000000" fill-rule="nonzero" fill-opacity="1" /><path clip-path="url(#clip150)" d="M2014.25 148.689 L2014.25 164.338 L2009.99 164.338 L2009.99 148.828 Q2009.99 145.148 2008.55 143.319 Q2007.12 141.49 2004.25 141.49 Q2000.8 141.49 1998.81 143.69 Q1996.82 145.889 1996.82 149.685 L1996.82 164.338 L1992.53 164.338 L1992.53 138.412 L1996.82 138.412 L1996.82 142.44 Q1998.34 140.102 2000.4 138.944 Q2002.49 137.787 2005.2 137.787 Q2009.66 137.787 2011.96 140.565 Q2014.25 143.319 2014.25 148.689 Z" fill="#000000" fill-rule="nonzero" fill-opacity="1" /><path clip-path="url(#clip150)" d="M2034.53 151.305 Q2029.36 151.305 2027.37 152.486 Q2025.38 153.666 2025.38 156.514 Q2025.38 158.782 2026.86 160.125 Q2028.37 161.444 2030.94 161.444 Q2034.48 161.444 2036.61 158.944 Q2038.76 156.421 2038.76 152.254 L2038.76 151.305 L2034.53 151.305 M2043.02 149.546 L2043.02 164.338 L2038.76 164.338 L2038.76 160.402 Q2037.3 162.763 2035.13 163.898 Q2032.95 165.009 2029.8 165.009 Q2025.82 165.009 2023.46 162.787 Q2021.12 160.541 2021.12 156.791 Q2021.12 152.416 2024.04 150.194 Q2026.98 147.972 2032.79 147.972 L2038.76 147.972 L2038.76 147.555 Q2038.76 144.615 2036.82 143.018 Q2034.9 141.398 2031.4 141.398 Q2029.18 141.398 2027.07 141.93 Q2024.96 142.463 2023.02 143.527 L2023.02 139.592 Q2025.36 138.69 2027.56 138.25 Q2029.76 137.787 2031.84 137.787 Q2037.46 137.787 2040.24 140.703 Q2043.02 143.62 2043.02 149.546 Z" fill="#000000" fill-rule="nonzero" fill-opacity="1" /><path clip-path="url(#clip150)" d="M2051.79 128.319 L2056.05 128.319 L2056.05 164.338 L2051.79 164.338 L2051.79 128.319 Z" fill="#000000" fill-rule="nonzero" fill-opacity="1" /><path clip-path="url(#clip150)" d="M2097.09 142.347 L2097.09 128.319 L2101.35 128.319 L2101.35 164.338 L2097.09 164.338 L2097.09 160.449 Q2095.75 162.763 2093.69 163.898 Q2091.65 165.009 2088.78 165.009 Q2084.08 165.009 2081.12 161.259 Q2078.18 157.509 2078.18 151.398 Q2078.18 145.287 2081.12 141.537 Q2084.08 137.787 2088.78 137.787 Q2091.65 137.787 2093.69 138.921 Q2095.75 140.032 2097.09 142.347 M2082.58 151.398 Q2082.58 156.097 2084.5 158.782 Q2086.45 161.444 2089.83 161.444 Q2093.21 161.444 2095.15 158.782 Q2097.09 156.097 2097.09 151.398 Q2097.09 146.699 2095.15 144.037 Q2093.21 141.352 2089.83 141.352 Q2086.45 141.352 2084.5 144.037 Q2082.58 146.699 2082.58 151.398 Z" fill="#000000" fill-rule="nonzero" fill-opacity="1" /><path clip-path="url(#clip150)" d="M2121.91 151.305 Q2116.75 151.305 2114.76 152.486 Q2112.77 153.666 2112.77 156.514 Q2112.77 158.782 2114.25 160.125 Q2115.75 161.444 2118.32 161.444 Q2121.86 161.444 2123.99 158.944 Q2126.14 156.421 2126.14 152.254 L2126.14 151.305 L2121.91 151.305 M2130.4 149.546 L2130.4 164.338 L2126.14 164.338 L2126.14 160.402 Q2124.69 162.763 2122.51 163.898 Q2120.33 165.009 2117.19 165.009 Q2113.21 165.009 2110.84 162.787 Q2108.51 160.541 2108.51 156.791 Q2108.51 152.416 2111.42 150.194 Q2114.36 147.972 2120.17 147.972 L2126.14 147.972 L2126.14 147.555 Q2126.14 144.615 2124.2 143.018 Q2122.28 141.398 2118.78 141.398 Q2116.56 141.398 2114.46 141.93 Q2112.35 142.463 2110.4 143.527 L2110.4 139.592 Q2112.74 138.69 2114.94 138.25 Q2117.14 137.787 2119.22 137.787 Q2124.85 137.787 2127.63 140.703 Q2130.4 143.62 2130.4 149.546 Z" fill="#000000" fill-rule="nonzero" fill-opacity="1" /><path clip-path="url(#clip150)" d="M2143.39 131.051 L2143.39 138.412 L2152.16 138.412 L2152.16 141.722 L2143.39 141.722 L2143.39 155.796 Q2143.39 158.967 2144.25 159.87 Q2145.13 160.773 2147.79 160.773 L2152.16 160.773 L2152.16 164.338 L2147.79 164.338 Q2142.86 164.338 2140.98 162.509 Q2139.11 160.657 2139.11 155.796 L2139.11 141.722 L2135.98 141.722 L2135.98 138.412 L2139.11 138.412 L2139.11 131.051 L2143.39 131.051 Z" fill="#000000" fill-rule="nonzero" fill-opacity="1" /><path clip-path="url(#clip150)" d="M2169.55 151.305 Q2164.39 151.305 2162.39 152.486 Q2160.4 153.666 2160.4 156.514 Q2160.4 158.782 2161.89 160.125 Q2163.39 161.444 2165.96 161.444 Q2169.5 161.444 2171.63 158.944 Q2173.78 156.421 2173.78 152.254 L2173.78 151.305 L2169.55 151.305 M2178.04 149.546 L2178.04 164.338 L2173.78 164.338 L2173.78 160.402 Q2172.33 162.763 2170.15 163.898 Q2167.97 165.009 2164.83 165.009 Q2160.84 165.009 2158.48 162.787 Q2156.14 160.541 2156.14 156.791 Q2156.14 152.416 2159.06 150.194 Q2162 147.972 2167.81 147.972 L2173.78 147.972 L2173.78 147.555 Q2173.78 144.615 2171.84 143.018 Q2169.92 141.398 2166.42 141.398 Q2164.2 141.398 2162.09 141.93 Q2159.99 142.463 2158.04 143.527 L2158.04 139.592 Q2160.38 138.69 2162.58 138.25 Q2164.78 137.787 2166.86 137.787 Q2172.49 137.787 2175.27 140.703 Q2178.04 143.62 2178.04 149.546 Z" fill="#000000" fill-rule="nonzero" fill-opacity="1" /><polyline clip-path="url(#clip150)" style="stroke:#e26f46; stroke-linecap:round; stroke-linejoin:round; stroke-width:4; stroke-opacity:1; fill:none" points="1715.1,198.898 1861.51,198.898 "/>
<path clip-path="url(#clip150)" d="M1907.63 200.529 L1907.63 216.178 L1903.37 216.178 L1903.37 200.668 Q1903.37 196.988 1901.93 195.159 Q1900.5 193.33 1897.63 193.33 Q1894.18 193.33 1892.19 195.53 Q1890.2 197.729 1890.2 201.525 L1890.2 216.178 L1885.91 216.178 L1885.91 190.252 L1890.2 190.252 L1890.2 194.28 Q1891.72 191.942 1893.79 190.784 Q1895.87 189.627 1898.58 189.627 Q1903.04 189.627 1905.34 192.405 Q1907.63 195.159 1907.63 200.529 Z" fill="#000000" fill-rule="nonzero" fill-opacity="1" /><path clip-path="url(#clip150)" d="M1938.3 202.15 L1938.3 204.233 L1918.72 204.233 Q1918.99 208.631 1921.35 210.946 Q1923.74 213.238 1927.97 213.238 Q1930.43 213.238 1932.72 212.636 Q1935.03 212.034 1937.3 210.83 L1937.3 214.858 Q1935.01 215.83 1932.6 216.34 Q1930.2 216.849 1927.72 216.849 Q1921.52 216.849 1917.88 213.238 Q1914.27 209.627 1914.27 203.469 Q1914.27 197.104 1917.7 193.377 Q1921.15 189.627 1926.98 189.627 Q1932.21 189.627 1935.24 193.006 Q1938.3 196.363 1938.3 202.15 M1934.04 200.9 Q1933.99 197.405 1932.07 195.321 Q1930.17 193.238 1927.03 193.238 Q1923.46 193.238 1921.31 195.252 Q1919.18 197.266 1918.85 200.923 L1934.04 200.9 Z" fill="#000000" fill-rule="nonzero" fill-opacity="1" /><path clip-path="url(#clip150)" d="M1942.81 190.252 L1947.07 190.252 L1952.4 210.483 L1957.7 190.252 L1962.72 190.252 L1968.04 210.483 L1973.34 190.252 L1977.6 190.252 L1970.82 216.178 L1965.8 216.178 L1960.22 194.928 L1954.62 216.178 L1949.59 216.178 L1942.81 190.252 Z" fill="#000000" fill-rule="nonzero" fill-opacity="1" /><path clip-path="url(#clip150)" d="M2016.19 194.187 L2016.19 180.159 L2020.45 180.159 L2020.45 216.178 L2016.19 216.178 L2016.19 212.289 Q2014.85 214.603 2012.79 215.738 Q2010.75 216.849 2007.88 216.849 Q2003.18 216.849 2000.22 213.099 Q1997.28 209.349 1997.28 203.238 Q1997.28 197.127 2000.22 193.377 Q2003.18 189.627 2007.88 189.627 Q2010.75 189.627 2012.79 190.761 Q2014.85 191.872 2016.19 194.187 M2001.68 203.238 Q2001.68 207.937 2003.6 210.622 Q2005.54 213.284 2008.92 213.284 Q2012.3 213.284 2014.25 210.622 Q2016.19 207.937 2016.19 203.238 Q2016.19 198.539 2014.25 195.877 Q2012.3 193.192 2008.92 193.192 Q2005.54 193.192 2003.6 195.877 Q2001.68 198.539 2001.68 203.238 Z" fill="#000000" fill-rule="nonzero" fill-opacity="1" /><path clip-path="url(#clip150)" d="M2041.01 203.145 Q2035.84 203.145 2033.85 204.326 Q2031.86 205.506 2031.86 208.354 Q2031.86 210.622 2033.34 211.965 Q2034.85 213.284 2037.42 213.284 Q2040.96 213.284 2043.09 210.784 Q2045.24 208.261 2045.24 204.094 L2045.24 203.145 L2041.01 203.145 M2049.5 201.386 L2049.5 216.178 L2045.24 216.178 L2045.24 212.242 Q2043.78 214.603 2041.61 215.738 Q2039.43 216.849 2036.28 216.849 Q2032.3 216.849 2029.94 214.627 Q2027.6 212.381 2027.6 208.631 Q2027.6 204.256 2030.52 202.034 Q2033.46 199.812 2039.27 199.812 L2045.24 199.812 L2045.24 199.395 Q2045.24 196.455 2043.3 194.858 Q2041.38 193.238 2037.88 193.238 Q2035.66 193.238 2033.55 193.77 Q2031.45 194.303 2029.5 195.367 L2029.5 191.432 Q2031.84 190.53 2034.04 190.09 Q2036.24 189.627 2038.32 189.627 Q2043.95 189.627 2046.72 192.543 Q2049.5 195.46 2049.5 201.386 Z" fill="#000000" fill-rule="nonzero" fill-opacity="1" /><path clip-path="url(#clip150)" d="M2062.49 182.891 L2062.49 190.252 L2071.26 190.252 L2071.26 193.562 L2062.49 193.562 L2062.49 207.636 Q2062.49 210.807 2063.34 211.71 Q2064.22 212.613 2066.89 212.613 L2071.26 212.613 L2071.26 216.178 L2066.89 216.178 Q2061.96 216.178 2060.08 214.349 Q2058.21 212.497 2058.21 207.636 L2058.21 193.562 L2055.08 193.562 L2055.08 190.252 L2058.21 190.252 L2058.21 182.891 L2062.49 182.891 Z" fill="#000000" fill-rule="nonzero" fill-opacity="1" /><path clip-path="url(#clip150)" d="M2088.65 203.145 Q2083.48 203.145 2081.49 204.326 Q2079.5 205.506 2079.5 208.354 Q2079.5 210.622 2080.98 211.965 Q2082.49 213.284 2085.06 213.284 Q2088.6 213.284 2090.73 210.784 Q2092.88 208.261 2092.88 204.094 L2092.88 203.145 L2088.65 203.145 M2097.14 201.386 L2097.14 216.178 L2092.88 216.178 L2092.88 212.242 Q2091.42 214.603 2089.25 215.738 Q2087.07 216.849 2083.92 216.849 Q2079.94 216.849 2077.58 214.627 Q2075.24 212.381 2075.24 208.631 Q2075.24 204.256 2078.16 202.034 Q2081.1 199.812 2086.91 199.812 L2092.88 199.812 L2092.88 199.395 Q2092.88 196.455 2090.94 194.858 Q2089.02 193.238 2085.52 193.238 Q2083.3 193.238 2081.19 193.77 Q2079.09 194.303 2077.14 195.367 L2077.14 191.432 Q2079.48 190.53 2081.68 190.09 Q2083.88 189.627 2085.96 189.627 Q2091.58 189.627 2094.36 192.543 Q2097.14 195.46 2097.14 201.386 Z" fill="#000000" fill-rule="nonzero" fill-opacity="1" /><circle clip-path="url(#clip150)" cx="1788.31" cy="250.738" r="23.04" fill="#3da44d" fill-rule="evenodd" fill-opacity="1" stroke="#000000" stroke-opacity="1" stroke-width="5.12"/>
<path clip-path="url(#clip150)" d="M1909.94 253.99 L1909.94 256.073 L1890.36 256.073 Q1890.64 260.471 1893 262.786 Q1895.38 265.078 1899.62 265.078 Q1902.07 265.078 1904.36 264.476 Q1906.68 263.874 1908.95 262.67 L1908.95 266.698 Q1906.66 267.67 1904.25 268.18 Q1901.84 268.689 1899.36 268.689 Q1893.16 268.689 1889.53 265.078 Q1885.91 261.467 1885.91 255.309 Q1885.91 248.944 1889.34 245.217 Q1892.79 241.467 1898.62 241.467 Q1903.85 241.467 1906.89 244.846 Q1909.94 248.203 1909.94 253.99 M1905.68 252.74 Q1905.64 249.245 1903.72 247.161 Q1901.82 245.078 1898.67 245.078 Q1895.1 245.078 1892.95 247.092 Q1890.82 249.106 1890.5 252.763 L1905.68 252.74 Z" fill="#000000" fill-rule="nonzero" fill-opacity="1" /><path clip-path="url(#clip150)" d="M1913.88 242.092 L1918.39 242.092 L1926.49 263.851 L1934.6 242.092 L1939.11 242.092 L1929.39 268.018 L1923.6 268.018 L1913.88 242.092 Z" fill="#000000" fill-rule="nonzero" fill-opacity="1" /><path clip-path="url(#clip150)" d="M1967.16 253.99 L1967.16 256.073 L1947.58 256.073 Q1947.86 260.471 1950.22 262.786 Q1952.6 265.078 1956.84 265.078 Q1959.29 265.078 1961.59 264.476 Q1963.9 263.874 1966.17 262.67 L1966.17 266.698 Q1963.88 267.67 1961.47 268.18 Q1959.06 268.689 1956.59 268.689 Q1950.38 268.689 1946.75 265.078 Q1943.14 261.467 1943.14 255.309 Q1943.14 248.944 1946.56 245.217 Q1950.01 241.467 1955.84 241.467 Q1961.08 241.467 1964.11 244.846 Q1967.16 248.203 1967.16 253.99 M1962.91 252.74 Q1962.86 249.245 1960.94 247.161 Q1959.04 245.078 1955.89 245.078 Q1952.33 245.078 1950.17 247.092 Q1948.04 249.106 1947.72 252.763 L1962.91 252.74 Z" fill="#000000" fill-rule="nonzero" fill-opacity="1" /><path clip-path="url(#clip150)" d="M1995.71 252.369 L1995.71 268.018 L1991.45 268.018 L1991.45 252.508 Q1991.45 248.828 1990.01 246.999 Q1988.58 245.17 1985.71 245.17 Q1982.26 245.17 1980.27 247.37 Q1978.28 249.569 1978.28 253.365 L1978.28 268.018 L1973.99 268.018 L1973.99 242.092 L1978.28 242.092 L1978.28 246.12 Q1979.8 243.782 1981.86 242.624 Q1983.95 241.467 1986.65 241.467 Q1991.12 241.467 1993.41 244.245 Q1995.71 246.999 1995.71 252.369 Z" fill="#000000" fill-rule="nonzero" fill-opacity="1" /><path clip-path="url(#clip150)" d="M2039.46 247.069 Q2041.05 244.198 2043.28 242.833 Q2045.5 241.467 2048.51 241.467 Q2052.56 241.467 2054.76 244.314 Q2056.96 247.138 2056.96 252.369 L2056.96 268.018 L2052.67 268.018 L2052.67 252.508 Q2052.67 248.782 2051.35 246.976 Q2050.03 245.17 2047.33 245.17 Q2044.02 245.17 2042.09 247.37 Q2040.17 249.569 2040.17 253.365 L2040.17 268.018 L2035.89 268.018 L2035.89 252.508 Q2035.89 248.758 2034.57 246.976 Q2033.25 245.17 2030.5 245.17 Q2027.23 245.17 2025.31 247.393 Q2023.39 249.592 2023.39 253.365 L2023.39 268.018 L2019.11 268.018 L2019.11 242.092 L2023.39 242.092 L2023.39 246.12 Q2024.85 243.735 2026.89 242.601 Q2028.92 241.467 2031.72 241.467 Q2034.55 241.467 2036.52 242.902 Q2038.51 244.337 2039.46 247.069 Z" fill="#000000" fill-rule="nonzero" fill-opacity="1" /><path clip-path="url(#clip150)" d="M2075.5 245.078 Q2072.07 245.078 2070.08 247.763 Q2068.09 250.425 2068.09 255.078 Q2068.09 259.731 2070.06 262.416 Q2072.05 265.078 2075.5 265.078 Q2078.9 265.078 2080.89 262.393 Q2082.88 259.707 2082.88 255.078 Q2082.88 250.471 2080.89 247.786 Q2078.9 245.078 2075.5 245.078 M2075.5 241.467 Q2081.05 241.467 2084.22 245.078 Q2087.4 248.689 2087.4 255.078 Q2087.4 261.444 2084.22 265.078 Q2081.05 268.689 2075.5 268.689 Q2069.92 268.689 2066.75 265.078 Q2063.6 261.444 2063.6 255.078 Q2063.6 248.689 2066.75 245.078 Q2069.92 241.467 2075.5 241.467 Z" fill="#000000" fill-rule="nonzero" fill-opacity="1" /><path clip-path="url(#clip150)" d="M2109.48 246.073 Q2108.76 245.657 2107.9 245.471 Q2107.07 245.263 2106.05 245.263 Q2102.44 245.263 2100.5 247.624 Q2098.58 249.962 2098.58 254.36 L2098.58 268.018 L2094.29 268.018 L2094.29 242.092 L2098.58 242.092 L2098.58 246.12 Q2099.92 243.758 2102.07 242.624 Q2104.22 241.467 2107.3 241.467 Q2107.74 241.467 2108.27 241.536 Q2108.81 241.583 2109.46 241.698 L2109.48 246.073 Z" fill="#000000" fill-rule="nonzero" fill-opacity="1" /><path clip-path="url(#clip150)" d="M2135.08 253.99 L2135.08 256.073 L2115.5 256.073 Q2115.77 260.471 2118.14 262.786 Q2120.52 265.078 2124.76 265.078 Q2127.21 265.078 2129.5 264.476 Q2131.82 263.874 2134.08 262.67 L2134.08 266.698 Q2131.79 267.67 2129.39 268.18 Q2126.98 268.689 2124.5 268.689 Q2118.3 268.689 2114.66 265.078 Q2111.05 261.467 2111.05 255.309 Q2111.05 248.944 2114.48 245.217 Q2117.93 241.467 2123.76 241.467 Q2128.99 241.467 2132.02 244.846 Q2135.08 248.203 2135.08 253.99 M2130.82 252.74 Q2130.77 249.245 2128.85 247.161 Q2126.96 245.078 2123.81 245.078 Q2120.24 245.078 2118.09 247.092 Q2115.96 249.106 2115.64 252.763 L2130.82 252.74 Z" fill="#000000" fill-rule="nonzero" fill-opacity="1" /><path clip-path="url(#clip150)" d="M2174.2 246.027 L2174.2 231.999 L2178.46 231.999 L2178.46 268.018 L2174.2 268.018 L2174.2 264.129 Q2172.86 266.443 2170.8 267.578 Q2168.76 268.689 2165.89 268.689 Q2161.19 268.689 2158.23 264.939 Q2155.29 261.189 2155.29 255.078 Q2155.29 248.967 2158.23 245.217 Q2161.19 241.467 2165.89 241.467 Q2168.76 241.467 2170.8 242.601 Q2172.86 243.712 2174.2 246.027 M2159.69 255.078 Q2159.69 259.777 2161.61 262.462 Q2163.55 265.124 2166.93 265.124 Q2170.31 265.124 2172.26 262.462 Q2174.2 259.777 2174.2 255.078 Q2174.2 250.379 2172.26 247.717 Q2170.31 245.032 2166.93 245.032 Q2163.55 245.032 2161.61 247.717 Q2159.69 250.379 2159.69 255.078 Z" fill="#000000" fill-rule="nonzero" fill-opacity="1" /><path clip-path="url(#clip150)" d="M2199.01 254.985 Q2193.85 254.985 2191.86 256.166 Q2189.87 257.346 2189.87 260.194 Q2189.87 262.462 2191.35 263.805 Q2192.86 265.124 2195.43 265.124 Q2198.97 265.124 2201.1 262.624 Q2203.25 260.101 2203.25 255.934 L2203.25 254.985 L2199.01 254.985 M2207.51 253.226 L2207.51 268.018 L2203.25 268.018 L2203.25 264.082 Q2201.79 266.443 2199.62 267.578 Q2197.44 268.689 2194.29 268.689 Q2190.31 268.689 2187.95 266.467 Q2185.61 264.221 2185.61 260.471 Q2185.61 256.096 2188.53 253.874 Q2191.47 251.652 2197.28 251.652 L2203.25 251.652 L2203.25 251.235 Q2203.25 248.295 2201.31 246.698 Q2199.39 245.078 2195.89 245.078 Q2193.67 245.078 2191.56 245.61 Q2189.45 246.143 2187.51 247.207 L2187.51 243.272 Q2189.85 242.37 2192.05 241.93 Q2194.25 241.467 2196.33 241.467 Q2201.95 241.467 2204.73 244.383 Q2207.51 247.3 2207.51 253.226 Z" fill="#000000" fill-rule="nonzero" fill-opacity="1" /><path clip-path="url(#clip150)" d="M2220.5 234.731 L2220.5 242.092 L2229.27 242.092 L2229.27 245.402 L2220.5 245.402 L2220.5 259.476 Q2220.5 262.647 2221.35 263.55 Q2222.23 264.453 2224.89 264.453 L2229.27 264.453 L2229.27 268.018 L2224.89 268.018 Q2219.96 268.018 2218.09 266.189 Q2216.21 264.337 2216.21 259.476 L2216.21 245.402 L2213.09 245.402 L2213.09 242.092 L2216.21 242.092 L2216.21 234.731 L2220.5 234.731 Z" fill="#000000" fill-rule="nonzero" fill-opacity="1" /><path clip-path="url(#clip150)" d="M2246.65 254.985 Q2241.49 254.985 2239.5 256.166 Q2237.51 257.346 2237.51 260.194 Q2237.51 262.462 2238.99 263.805 Q2240.5 265.124 2243.07 265.124 Q2246.61 265.124 2248.74 262.624 Q2250.89 260.101 2250.89 255.934 L2250.89 254.985 L2246.65 254.985 M2255.15 253.226 L2255.15 268.018 L2250.89 268.018 L2250.89 264.082 Q2249.43 266.443 2247.26 267.578 Q2245.08 268.689 2241.93 268.689 Q2237.95 268.689 2235.59 266.467 Q2233.25 264.221 2233.25 260.471 Q2233.25 256.096 2236.17 253.874 Q2239.11 251.652 2244.92 251.652 L2250.89 251.652 L2250.89 251.235 Q2250.89 248.295 2248.95 246.698 Q2247.02 245.078 2243.53 245.078 Q2241.31 245.078 2239.2 245.61 Q2237.09 246.143 2235.15 247.207 L2235.15 243.272 Q2237.49 242.37 2239.69 241.93 Q2241.89 241.467 2243.97 241.467 Q2249.59 241.467 2252.37 244.383 Q2255.15 247.3 2255.15 253.226 Z" fill="#000000" fill-rule="nonzero" fill-opacity="1" /></svg>
