<?xml version="1.0" encoding="utf-8"?>
<svg xmlns="http://www.w3.org/2000/svg" xmlns:xlink="http://www.w3.org/1999/xlink" width="600" height="400" viewBox="0 0 2400 1600">
<defs>
  <clipPath id="clip790">
    <rect x="0" y="0" width="2400" height="1600"/>
  </clipPath>
</defs>
<path clip-path="url(#clip790)" d="M0 1600 L2400 1600 L2400 0 L0 0  Z" fill="#ffffff" fill-rule="evenodd" fill-opacity="1"/>
<defs>
  <clipPath id="clip791">
    <rect x="480" y="0" width="1681" height="1600"/>
  </clipPath>
</defs>
<path clip-path="url(#clip790)" d="M156.112 1486.45 L2352.76 1486.45 L2352.76 47.2441 L156.112 47.2441  Z" fill="#ffffff" fill-rule="evenodd" fill-opacity="1"/>
<defs>
  <clipPath id="clip792">
    <rect x="156" y="47" width="2198" height="1440"/>
  </clipPath>
</defs>
<polyline clip-path="url(#clip792)" style="stroke:#000000; stroke-linecap:round; stroke-linejoin:round; stroke-width:2; stroke-opacity:0.1; fill:none" points="218.281,1486.45 218.281,47.2441 "/>
<polyline clip-path="url(#clip792)" style="stroke:#000000; stroke-linecap:round; stroke-linejoin:round; stroke-width:2; stroke-opacity:0.1; fill:none" points="570.081,1486.45 570.081,47.2441 "/>
<polyline clip-path="url(#clip792)" style="stroke:#000000; stroke-linecap:round; stroke-linejoin:round; stroke-width:2; stroke-opacity:0.1; fill:none" points="921.881,1486.45 921.881,47.2441 "/>
<polyline clip-path="url(#clip792)" style="stroke:#000000; stroke-linecap:round; stroke-linejoin:round; stroke-width:2; stroke-opacity:0.1; fill:none" points="1273.68,1486.45 1273.68,47.2441 "/>
<polyline clip-path="url(#clip792)" style="stroke:#000000; stroke-linecap:round; stroke-linejoin:round; stroke-width:2; stroke-opacity:0.1; fill:none" points="1625.48,1486.45 1625.48,47.2441 "/>
<polyline clip-path="url(#clip792)" style="stroke:#000000; stroke-linecap:round; stroke-linejoin:round; stroke-width:2; stroke-opacity:0.1; fill:none" points="1977.28,1486.45 1977.28,47.2441 "/>
<polyline clip-path="url(#clip792)" style="stroke:#000000; stroke-linecap:round; stroke-linejoin:round; stroke-width:2; stroke-opacity:0.1; fill:none" points="2329.08,1486.45 2329.08,47.2441 "/>
<polyline clip-path="url(#clip790)" style="stroke:#000000; stroke-linecap:round; stroke-linejoin:round; stroke-width:4; stroke-opacity:1; fill:none" points="156.112,1486.45 2352.76,1486.45 "/>
<polyline clip-path="url(#clip790)" style="stroke:#000000; stroke-linecap:round; stroke-linejoin:round; stroke-width:4; stroke-opacity:1; fill:none" points="218.281,1486.45 218.281,1467.55 "/>
<polyline clip-path="url(#clip790)" style="stroke:#000000; stroke-linecap:round; stroke-linejoin:round; stroke-width:4; stroke-opacity:1; fill:none" points="570.081,1486.45 570.081,1467.55 "/>
<polyline clip-path="url(#clip790)" style="stroke:#000000; stroke-linecap:round; stroke-linejoin:round; stroke-width:4; stroke-opacity:1; fill:none" points="921.881,1486.45 921.881,1467.55 "/>
<polyline clip-path="url(#clip790)" style="stroke:#000000; stroke-linecap:round; stroke-linejoin:round; stroke-width:4; stroke-opacity:1; fill:none" points="1273.68,1486.45 1273.68,1467.55 "/>
<polyline clip-path="url(#clip790)" style="stroke:#000000; stroke-linecap:round; stroke-linejoin:round; stroke-width:4; stroke-opacity:1; fill:none" points="1625.48,1486.45 1625.48,1467.55 "/>
<polyline clip-path="url(#clip790)" style="stroke:#000000; stroke-linecap:round; stroke-linejoin:round; stroke-width:4; stroke-opacity:1; fill:none" points="1977.28,1486.45 1977.28,1467.55 "/>
<polyline clip-path="url(#clip790)" style="stroke:#000000; stroke-linecap:round; stroke-linejoin:round; stroke-width:4; stroke-opacity:1; fill:none" points="2329.08,1486.45 2329.08,1467.55 "/>
<path clip-path="url(#clip790)" d="M218.281 1517.37 Q214.67 1517.37 212.842 1520.93 Q211.036 1524.47 211.036 1531.6 Q211.036 1538.71 212.842 1542.27 Q214.67 1545.82 218.281 1545.82 Q221.916 1545.82 223.721 1542.27 Q225.55 1538.71 225.55 1531.6 Q225.55 1524.47 223.721 1520.93 Q221.916 1517.37 218.281 1517.37 M218.281 1513.66 Q224.091 1513.66 227.147 1518.27 Q230.226 1522.85 230.226 1531.6 Q230.226 1540.33 227.147 1544.94 Q224.091 1549.52 218.281 1549.52 Q212.471 1549.52 209.392 1544.94 Q206.337 1540.33 206.337 1531.6 Q206.337 1522.85 209.392 1518.27 Q212.471 1513.66 218.281 1513.66 Z" fill="#000000" fill-rule="nonzero" fill-opacity="1" /><path clip-path="url(#clip790)" d="M529.688 1544.91 L537.327 1544.91 L537.327 1518.55 L529.017 1520.21 L529.017 1515.95 L537.28 1514.29 L541.956 1514.29 L541.956 1544.91 L549.595 1544.91 L549.595 1548.85 L529.688 1548.85 L529.688 1544.91 Z" fill="#000000" fill-rule="nonzero" fill-opacity="1" /><path clip-path="url(#clip790)" d="M569.04 1517.37 Q565.428 1517.37 563.6 1520.93 Q561.794 1524.47 561.794 1531.6 Q561.794 1538.71 563.6 1542.27 Q565.428 1545.82 569.04 1545.82 Q572.674 1545.82 574.479 1542.27 Q576.308 1538.71 576.308 1531.6 Q576.308 1524.47 574.479 1520.93 Q572.674 1517.37 569.04 1517.37 M569.04 1513.66 Q574.85 1513.66 577.905 1518.27 Q580.984 1522.85 580.984 1531.6 Q580.984 1540.33 577.905 1544.94 Q574.85 1549.52 569.04 1549.52 Q563.229 1549.52 560.151 1544.94 Q557.095 1540.33 557.095 1531.6 Q557.095 1522.85 560.151 1518.27 Q563.229 1513.66 569.04 1513.66 Z" fill="#000000" fill-rule="nonzero" fill-opacity="1" /><path clip-path="url(#clip790)" d="M599.201 1517.37 Q595.59 1517.37 593.762 1520.93 Q591.956 1524.47 591.956 1531.6 Q591.956 1538.71 593.762 1542.27 Q595.59 1545.82 599.201 1545.82 Q602.836 1545.82 604.641 1542.27 Q606.47 1538.71 606.47 1531.6 Q606.47 1524.47 604.641 1520.93 Q602.836 1517.37 599.201 1517.37 M599.201 1513.66 Q605.012 1513.66 608.067 1518.27 Q611.146 1522.85 611.146 1531.6 Q611.146 1540.33 608.067 1544.94 Q605.012 1549.52 599.201 1549.52 Q593.391 1549.52 590.313 1544.94 Q587.257 1540.33 587.257 1531.6 Q587.257 1522.85 590.313 1518.27 Q593.391 1513.66 599.201 1513.66 Z" fill="#000000" fill-rule="nonzero" fill-opacity="1" /><path clip-path="url(#clip790)" d="M885.573 1544.91 L901.893 1544.91 L901.893 1548.85 L879.948 1548.85 L879.948 1544.91 Q882.61 1542.16 887.194 1537.53 Q891.8 1532.88 892.981 1531.53 Q895.226 1529.01 896.106 1527.27 Q897.008 1525.51 897.008 1523.82 Q897.008 1521.07 895.064 1519.33 Q893.143 1517.6 890.041 1517.6 Q887.842 1517.6 885.388 1518.36 Q882.958 1519.13 880.18 1520.68 L880.18 1515.95 Q883.004 1514.82 885.458 1514.24 Q887.911 1513.66 889.948 1513.66 Q895.319 1513.66 898.513 1516.35 Q901.708 1519.03 901.708 1523.52 Q901.708 1525.65 900.897 1527.57 Q900.11 1529.47 898.004 1532.07 Q897.425 1532.74 894.323 1535.95 Q891.221 1539.15 885.573 1544.91 Z" fill="#000000" fill-rule="nonzero" fill-opacity="1" /><path clip-path="url(#clip790)" d="M921.707 1517.37 Q918.096 1517.37 916.268 1520.93 Q914.462 1524.47 914.462 1531.6 Q914.462 1538.71 916.268 1542.27 Q918.096 1545.82 921.707 1545.82 Q925.342 1545.82 927.147 1542.27 Q928.976 1538.71 928.976 1531.6 Q928.976 1524.47 927.147 1520.93 Q925.342 1517.37 921.707 1517.37 M921.707 1513.66 Q927.518 1513.66 930.573 1518.27 Q933.652 1522.85 933.652 1531.6 Q933.652 1540.33 930.573 1544.94 Q927.518 1549.52 921.707 1549.52 Q915.897 1549.52 912.819 1544.94 Q909.763 1540.33 909.763 1531.6 Q909.763 1522.85 912.819 1518.27 Q915.897 1513.66 921.707 1513.66 Z" fill="#000000" fill-rule="nonzero" fill-opacity="1" /><path clip-path="url(#clip790)" d="M951.869 1517.37 Q948.258 1517.37 946.43 1520.93 Q944.624 1524.47 944.624 1531.6 Q944.624 1538.71 946.43 1542.27 Q948.258 1545.82 951.869 1545.82 Q955.504 1545.82 957.309 1542.27 Q959.138 1538.71 959.138 1531.6 Q959.138 1524.47 957.309 1520.93 Q955.504 1517.37 951.869 1517.37 M951.869 1513.66 Q957.679 1513.66 960.735 1518.27 Q963.814 1522.85 963.814 1531.6 Q963.814 1540.33 960.735 1544.94 Q957.679 1549.52 951.869 1549.52 Q946.059 1549.52 942.98 1544.94 Q939.925 1540.33 939.925 1531.6 Q939.925 1522.85 942.98 1518.27 Q946.059 1513.66 951.869 1513.66 Z" fill="#000000" fill-rule="nonzero" fill-opacity="1" /><path clip-path="url(#clip790)" d="M1247.44 1530.21 Q1250.8 1530.93 1252.67 1533.2 Q1254.57 1535.47 1254.57 1538.8 Q1254.57 1543.92 1251.05 1546.72 Q1247.54 1549.52 1241.05 1549.52 Q1238.88 1549.52 1236.56 1549.08 Q1234.27 1548.66 1231.82 1547.81 L1231.82 1543.29 Q1233.76 1544.43 1236.08 1545.01 Q1238.39 1545.58 1240.91 1545.58 Q1245.31 1545.58 1247.6 1543.85 Q1249.92 1542.11 1249.92 1538.8 Q1249.92 1535.75 1247.77 1534.03 Q1245.64 1532.3 1241.82 1532.3 L1237.79 1532.3 L1237.79 1528.45 L1242 1528.45 Q1245.45 1528.45 1247.28 1527.09 Q1249.11 1525.7 1249.11 1523.11 Q1249.11 1520.45 1247.21 1519.03 Q1245.34 1517.6 1241.82 1517.6 Q1239.9 1517.6 1237.7 1518.01 Q1235.5 1518.43 1232.86 1519.31 L1232.86 1515.14 Q1235.52 1514.4 1237.84 1514.03 Q1240.17 1513.66 1242.23 1513.66 Q1247.56 1513.66 1250.66 1516.09 Q1253.76 1518.5 1253.76 1522.62 Q1253.76 1525.49 1252.12 1527.48 Q1250.48 1529.45 1247.44 1530.21 Z" fill="#000000" fill-rule="nonzero" fill-opacity="1" /><path clip-path="url(#clip790)" d="M1273.44 1517.37 Q1269.83 1517.37 1268 1520.93 Q1266.19 1524.47 1266.19 1531.6 Q1266.19 1538.71 1268 1542.27 Q1269.83 1545.82 1273.44 1545.82 Q1277.07 1545.82 1278.88 1542.27 Q1280.71 1538.71 1280.71 1531.6 Q1280.71 1524.47 1278.88 1520.93 Q1277.07 1517.37 1273.44 1517.37 M1273.44 1513.66 Q1279.25 1513.66 1282.3 1518.27 Q1285.38 1522.85 1285.38 1531.6 Q1285.38 1540.33 1282.3 1544.94 Q1279.25 1549.52 1273.44 1549.52 Q1267.63 1549.52 1264.55 1544.94 Q1261.49 1540.33 1261.49 1531.6 Q1261.49 1522.85 1264.55 1518.27 Q1267.63 1513.66 1273.44 1513.66 Z" fill="#000000" fill-rule="nonzero" fill-opacity="1" /><path clip-path="url(#clip790)" d="M1303.6 1517.37 Q1299.99 1517.37 1298.16 1520.93 Q1296.35 1524.47 1296.35 1531.6 Q1296.35 1538.71 1298.16 1542.27 Q1299.99 1545.82 1303.6 1545.82 Q1307.23 1545.82 1309.04 1542.27 Q1310.87 1538.71 1310.87 1531.6 Q1310.87 1524.47 1309.04 1520.93 Q1307.23 1517.37 1303.6 1517.37 M1303.6 1513.66 Q1309.41 1513.66 1312.47 1518.27 Q1315.54 1522.85 1315.54 1531.6 Q1315.54 1540.33 1312.47 1544.94 Q1309.41 1549.52 1303.6 1549.52 Q1297.79 1549.52 1294.71 1544.94 Q1291.66 1540.33 1291.66 1531.6 Q1291.66 1522.85 1294.71 1518.27 Q1297.79 1513.66 1303.6 1513.66 Z" fill="#000000" fill-rule="nonzero" fill-opacity="1" /><path clip-path="url(#clip790)" d="M1598.57 1518.36 L1586.77 1536.81 L1598.57 1536.81 L1598.57 1518.36 M1597.34 1514.29 L1603.22 1514.29 L1603.22 1536.81 L1608.15 1536.81 L1608.15 1540.7 L1603.22 1540.7 L1603.22 1548.85 L1598.57 1548.85 L1598.57 1540.7 L1582.97 1540.7 L1582.97 1536.19 L1597.34 1514.29 Z" fill="#000000" fill-rule="nonzero" fill-opacity="1" /><path clip-path="url(#clip790)" d="M1625.89 1517.37 Q1622.27 1517.37 1620.45 1520.93 Q1618.64 1524.47 1618.64 1531.6 Q1618.64 1538.71 1620.45 1542.27 Q1622.27 1545.82 1625.89 1545.82 Q1629.52 1545.82 1631.33 1542.27 Q1633.15 1538.71 1633.15 1531.6 Q1633.15 1524.47 1631.33 1520.93 Q1629.52 1517.37 1625.89 1517.37 M1625.89 1513.66 Q1631.7 1513.66 1634.75 1518.27 Q1637.83 1522.85 1637.83 1531.6 Q1637.83 1540.33 1634.75 1544.94 Q1631.7 1549.52 1625.89 1549.52 Q1620.08 1549.52 1617 1544.94 Q1613.94 1540.33 1613.94 1531.6 Q1613.94 1522.85 1617 1518.27 Q1620.08 1513.66 1625.89 1513.66 Z" fill="#000000" fill-rule="nonzero" fill-opacity="1" /><path clip-path="url(#clip790)" d="M1656.05 1517.37 Q1652.44 1517.37 1650.61 1520.93 Q1648.8 1524.47 1648.8 1531.6 Q1648.8 1538.71 1650.61 1542.27 Q1652.44 1545.82 1656.05 1545.82 Q1659.68 1545.82 1661.49 1542.27 Q1663.32 1538.71 1663.32 1531.6 Q1663.32 1524.47 1661.49 1520.93 Q1659.68 1517.37 1656.05 1517.37 M1656.05 1513.66 Q1661.86 1513.66 1664.91 1518.27 Q1667.99 1522.85 1667.99 1531.6 Q1667.99 1540.33 1664.91 1544.94 Q1661.86 1549.52 1656.05 1549.52 Q1650.24 1549.52 1647.16 1544.94 Q1644.1 1540.33 1644.1 1531.6 Q1644.1 1522.85 1647.16 1518.27 Q1650.24 1513.66 1656.05 1513.66 Z" fill="#000000" fill-rule="nonzero" fill-opacity="1" /><path clip-path="url(#clip790)" d="M1936.9 1514.29 L1955.26 1514.29 L1955.26 1518.22 L1941.18 1518.22 L1941.18 1526.7 Q1942.2 1526.35 1943.22 1526.19 Q1944.24 1526 1945.26 1526 Q1951.04 1526 1954.42 1529.17 Q1957.8 1532.34 1957.8 1537.76 Q1957.8 1543.34 1954.33 1546.44 Q1950.86 1549.52 1944.54 1549.52 Q1942.36 1549.52 1940.09 1549.15 Q1937.85 1548.78 1935.44 1548.04 L1935.44 1543.34 Q1937.52 1544.47 1939.75 1545.03 Q1941.97 1545.58 1944.45 1545.58 Q1948.45 1545.58 1950.79 1543.48 Q1953.13 1541.37 1953.13 1537.76 Q1953.13 1534.15 1950.79 1532.04 Q1948.45 1529.94 1944.45 1529.94 Q1942.57 1529.94 1940.7 1530.35 Q1938.84 1530.77 1936.9 1531.65 L1936.9 1514.29 Z" fill="#000000" fill-rule="nonzero" fill-opacity="1" /><path clip-path="url(#clip790)" d="M1977.01 1517.37 Q1973.4 1517.37 1971.57 1520.93 Q1969.77 1524.47 1969.77 1531.6 Q1969.77 1538.71 1971.57 1542.27 Q1973.4 1545.82 1977.01 1545.82 Q1980.65 1545.82 1982.45 1542.27 Q1984.28 1538.71 1984.28 1531.6 Q1984.28 1524.47 1982.45 1520.93 Q1980.65 1517.37 1977.01 1517.37 M1977.01 1513.66 Q1982.82 1513.66 1985.88 1518.27 Q1988.96 1522.85 1988.96 1531.6 Q1988.96 1540.33 1985.88 1544.94 Q1982.82 1549.52 1977.01 1549.52 Q1971.2 1549.52 1968.13 1544.94 Q1965.07 1540.33 1965.07 1531.6 Q1965.07 1522.85 1968.13 1518.27 Q1971.2 1513.66 1977.01 1513.66 Z" fill="#000000" fill-rule="nonzero" fill-opacity="1" /><path clip-path="url(#clip790)" d="M2007.18 1517.37 Q2003.57 1517.37 2001.74 1520.93 Q1999.93 1524.47 1999.93 1531.6 Q1999.93 1538.71 2001.74 1542.27 Q2003.57 1545.82 2007.18 1545.82 Q2010.81 1545.82 2012.62 1542.27 Q2014.44 1538.71 2014.44 1531.6 Q2014.44 1524.47 2012.62 1520.93 Q2010.81 1517.37 2007.18 1517.37 M2007.18 1513.66 Q2012.99 1513.66 2016.04 1518.27 Q2019.12 1522.85 2019.12 1531.6 Q2019.12 1540.33 2016.04 1544.94 Q2012.99 1549.52 2007.18 1549.52 Q2001.37 1549.52 1998.29 1544.94 Q1995.23 1540.33 1995.23 1531.6 Q1995.23 1522.85 1998.29 1518.27 Q2001.37 1513.66 2007.18 1513.66 Z" fill="#000000" fill-rule="nonzero" fill-opacity="1" /><path clip-path="url(#clip790)" d="M2299.4 1529.7 Q2296.26 1529.7 2294.4 1531.86 Q2292.58 1534.01 2292.58 1537.76 Q2292.58 1541.49 2294.4 1543.66 Q2296.26 1545.82 2299.4 1545.82 Q2302.55 1545.82 2304.38 1543.66 Q2306.23 1541.49 2306.23 1537.76 Q2306.23 1534.01 2304.38 1531.86 Q2302.55 1529.7 2299.4 1529.7 M2308.69 1515.05 L2308.69 1519.31 Q2306.93 1518.48 2305.12 1518.04 Q2303.34 1517.6 2301.58 1517.6 Q2296.95 1517.6 2294.5 1520.72 Q2292.07 1523.85 2291.72 1530.17 Q2293.09 1528.15 2295.15 1527.09 Q2297.21 1526 2299.68 1526 Q2304.89 1526 2307.9 1529.17 Q2310.93 1532.32 2310.93 1537.76 Q2310.93 1543.08 2307.78 1546.3 Q2304.64 1549.52 2299.4 1549.52 Q2293.41 1549.52 2290.24 1544.94 Q2287.07 1540.33 2287.07 1531.6 Q2287.07 1523.41 2290.96 1518.55 Q2294.84 1513.66 2301.4 1513.66 Q2303.15 1513.66 2304.94 1514.01 Q2306.74 1514.36 2308.69 1515.05 Z" fill="#000000" fill-rule="nonzero" fill-opacity="1" /><path clip-path="url(#clip790)" d="M2328.99 1517.37 Q2325.38 1517.37 2323.55 1520.93 Q2321.74 1524.47 2321.74 1531.6 Q2321.74 1538.71 2323.55 1542.27 Q2325.38 1545.82 2328.99 1545.82 Q2332.62 1545.82 2334.43 1542.27 Q2336.26 1538.71 2336.26 1531.6 Q2336.26 1524.47 2334.43 1520.93 Q2332.62 1517.37 2328.99 1517.37 M2328.99 1513.66 Q2334.8 1513.66 2337.85 1518.27 Q2340.93 1522.85 2340.93 1531.6 Q2340.93 1540.33 2337.85 1544.94 Q2334.8 1549.52 2328.99 1549.52 Q2323.18 1549.52 2320.1 1544.94 Q2317.04 1540.33 2317.04 1531.6 Q2317.04 1522.85 2320.1 1518.27 Q2323.18 1513.66 2328.99 1513.66 Z" fill="#000000" fill-rule="nonzero" fill-opacity="1" /><path clip-path="url(#clip790)" d="M2359.15 1517.37 Q2355.54 1517.37 2353.71 1520.93 Q2351.9 1524.47 2351.9 1531.6 Q2351.9 1538.71 2353.71 1542.27 Q2355.54 1545.82 2359.15 1545.82 Q2362.78 1545.82 2364.59 1542.27 Q2366.42 1538.71 2366.42 1531.6 Q2366.42 1524.47 2364.59 1520.93 Q2362.78 1517.37 2359.15 1517.37 M2359.15 1513.66 Q2364.96 1513.66 2368.02 1518.27 Q2371.09 1522.85 2371.09 1531.6 Q2371.09 1540.33 2368.02 1544.94 Q2364.96 1549.52 2359.15 1549.52 Q2353.34 1549.52 2350.26 1544.94 Q2347.21 1540.33 2347.21 1531.6 Q2347.21 1522.85 2350.26 1518.27 Q2353.34 1513.66 2359.15 1513.66 Z" fill="#000000" fill-rule="nonzero" fill-opacity="1" /><polyline clip-path="url(#clip792)" style="stroke:#000000; stroke-linecap:round; stroke-linejoin:round; stroke-width:2; stroke-opacity:0.1; fill:none" points="156.112,1445.72 2352.76,1445.72 "/>
<polyline clip-path="url(#clip792)" style="stroke:#000000; stroke-linecap:round; stroke-linejoin:round; stroke-width:2; stroke-opacity:0.1; fill:none" points="156.112,1076.83 2352.76,1076.83 "/>
<polyline clip-path="url(#clip792)" style="stroke:#000000; stroke-linecap:round; stroke-linejoin:round; stroke-width:2; stroke-opacity:0.1; fill:none" points="156.112,707.936 2352.76,707.936 "/>
<polyline clip-path="url(#clip792)" style="stroke:#000000; stroke-linecap:round; stroke-linejoin:round; stroke-width:2; stroke-opacity:0.1; fill:none" points="156.112,339.046 2352.76,339.046 "/>
<polyline clip-path="url(#clip790)" style="stroke:#000000; stroke-linecap:round; stroke-linejoin:round; stroke-width:4; stroke-opacity:1; fill:none" points="156.112,1486.45 156.112,47.2441 "/>
<polyline clip-path="url(#clip790)" style="stroke:#000000; stroke-linecap:round; stroke-linejoin:round; stroke-width:4; stroke-opacity:1; fill:none" points="156.112,1445.72 175.01,1445.72 "/>
<polyline clip-path="url(#clip790)" style="stroke:#000000; stroke-linecap:round; stroke-linejoin:round; stroke-width:4; stroke-opacity:1; fill:none" points="156.112,1076.83 175.01,1076.83 "/>
<polyline clip-path="url(#clip790)" style="stroke:#000000; stroke-linecap:round; stroke-linejoin:round; stroke-width:4; stroke-opacity:1; fill:none" points="156.112,707.936 175.01,707.936 "/>
<polyline clip-path="url(#clip790)" style="stroke:#000000; stroke-linecap:round; stroke-linejoin:round; stroke-width:4; stroke-opacity:1; fill:none" points="156.112,339.046 175.01,339.046 "/>
<path clip-path="url(#clip790)" d="M62.9365 1431.51 Q59.3254 1431.51 57.4967 1435.08 Q55.6912 1438.62 55.6912 1445.75 Q55.6912 1452.86 57.4967 1456.42 Q59.3254 1459.96 62.9365 1459.96 Q66.5707 1459.96 68.3763 1456.42 Q70.205 1452.86 70.205 1445.75 Q70.205 1438.62 68.3763 1435.08 Q66.5707 1431.51 62.9365 1431.51 M62.9365 1427.81 Q68.7467 1427.81 71.8022 1432.42 Q74.8809 1437 74.8809 1445.75 Q74.8809 1454.48 71.8022 1459.08 Q68.7467 1463.67 62.9365 1463.67 Q57.1264 1463.67 54.0477 1459.08 Q50.9921 1454.48 50.9921 1445.75 Q50.9921 1437 54.0477 1432.42 Q57.1264 1427.81 62.9365 1427.81 Z" fill="#000000" fill-rule="nonzero" fill-opacity="1" /><path clip-path="url(#clip790)" d="M83.0984 1457.12 L87.9827 1457.12 L87.9827 1463 L83.0984 1463 L83.0984 1457.12 Z" fill="#000000" fill-rule="nonzero" fill-opacity="1" /><path clip-path="url(#clip790)" d="M108.168 1431.51 Q104.557 1431.51 102.728 1435.08 Q100.922 1438.62 100.922 1445.75 Q100.922 1452.86 102.728 1456.42 Q104.557 1459.96 108.168 1459.96 Q111.802 1459.96 113.608 1456.42 Q115.436 1452.86 115.436 1445.75 Q115.436 1438.62 113.608 1435.08 Q111.802 1431.51 108.168 1431.51 M108.168 1427.81 Q113.978 1427.81 117.033 1432.42 Q120.112 1437 120.112 1445.75 Q120.112 1454.48 117.033 1459.08 Q113.978 1463.67 108.168 1463.67 Q102.358 1463.67 99.2789 1459.08 Q96.2234 1454.48 96.2234 1445.75 Q96.2234 1437 99.2789 1432.42 Q102.358 1427.81 108.168 1427.81 Z" fill="#000000" fill-rule="nonzero" fill-opacity="1" /><path clip-path="url(#clip790)" d="M64.1634 1062.62 Q60.5523 1062.62 58.7236 1066.19 Q56.918 1069.73 56.918 1076.86 Q56.918 1083.97 58.7236 1087.53 Q60.5523 1091.07 64.1634 1091.07 Q67.7976 1091.07 69.6031 1087.53 Q71.4318 1083.97 71.4318 1076.86 Q71.4318 1069.73 69.6031 1066.19 Q67.7976 1062.62 64.1634 1062.62 M64.1634 1058.92 Q69.9735 1058.92 73.029 1063.53 Q76.1077 1068.11 76.1077 1076.86 Q76.1077 1085.59 73.029 1090.19 Q69.9735 1094.78 64.1634 1094.78 Q58.3532 1094.78 55.2745 1090.19 Q52.219 1085.59 52.219 1076.86 Q52.219 1068.11 55.2745 1063.53 Q58.3532 1058.92 64.1634 1058.92 Z" fill="#000000" fill-rule="nonzero" fill-opacity="1" /><path clip-path="url(#clip790)" d="M84.3253 1088.23 L89.2095 1088.23 L89.2095 1094.11 L84.3253 1094.11 L84.3253 1088.23 Z" fill="#000000" fill-rule="nonzero" fill-opacity="1" /><path clip-path="url(#clip790)" d="M100.205 1090.17 L107.844 1090.17 L107.844 1063.8 L99.5335 1065.47 L99.5335 1061.21 L107.797 1059.55 L112.473 1059.55 L112.473 1090.17 L120.112 1090.17 L120.112 1094.11 L100.205 1094.11 L100.205 1090.17 Z" fill="#000000" fill-rule="nonzero" fill-opacity="1" /><path clip-path="url(#clip790)" d="M64.5337 693.734 Q60.9226 693.734 59.0939 697.299 Q57.2884 700.841 57.2884 707.97 Q57.2884 715.077 59.0939 718.642 Q60.9226 722.183 64.5337 722.183 Q68.168 722.183 69.9735 718.642 Q71.8022 715.077 71.8022 707.97 Q71.8022 700.841 69.9735 697.299 Q68.168 693.734 64.5337 693.734 M64.5337 690.031 Q70.3439 690.031 73.3994 694.637 Q76.4781 699.22 76.4781 707.97 Q76.4781 716.697 73.3994 721.304 Q70.3439 725.887 64.5337 725.887 Q58.7236 725.887 55.6449 721.304 Q52.5893 716.697 52.5893 707.97 Q52.5893 699.22 55.6449 694.637 Q58.7236 690.031 64.5337 690.031 Z" fill="#000000" fill-rule="nonzero" fill-opacity="1" /><path clip-path="url(#clip790)" d="M84.6956 719.336 L89.5799 719.336 L89.5799 725.216 L84.6956 725.216 L84.6956 719.336 Z" fill="#000000" fill-rule="nonzero" fill-opacity="1" /><path clip-path="url(#clip790)" d="M103.793 721.28 L120.112 721.28 L120.112 725.216 L98.1678 725.216 L98.1678 721.28 Q100.83 718.526 105.413 713.896 Q110.02 709.243 111.2 707.901 Q113.445 705.378 114.325 703.642 Q115.228 701.882 115.228 700.193 Q115.228 697.438 113.283 695.702 Q111.362 693.966 108.26 693.966 Q106.061 693.966 103.608 694.73 Q101.177 695.494 98.3993 697.044 L98.3993 692.322 Q101.223 691.188 103.677 690.609 Q106.131 690.031 108.168 690.031 Q113.538 690.031 116.733 692.716 Q119.927 695.401 119.927 699.892 Q119.927 702.021 119.117 703.943 Q118.33 705.841 116.223 708.433 Q115.645 709.105 112.543 712.322 Q109.441 715.517 103.793 721.28 Z" fill="#000000" fill-rule="nonzero" fill-opacity="1" /><path clip-path="url(#clip790)" d="M63.5847 324.844 Q59.9736 324.844 58.1449 328.409 Q56.3393 331.951 56.3393 339.08 Q56.3393 346.187 58.1449 349.751 Q59.9736 353.293 63.5847 353.293 Q67.2189 353.293 69.0244 349.751 Q70.8531 346.187 70.8531 339.08 Q70.8531 331.951 69.0244 328.409 Q67.2189 324.844 63.5847 324.844 M63.5847 321.141 Q69.3948 321.141 72.4503 325.747 Q75.529 330.33 75.529 339.08 Q75.529 347.807 72.4503 352.413 Q69.3948 356.997 63.5847 356.997 Q57.7745 356.997 54.6958 352.413 Q51.6403 347.807 51.6403 339.08 Q51.6403 330.33 54.6958 325.747 Q57.7745 321.141 63.5847 321.141 Z" fill="#000000" fill-rule="nonzero" fill-opacity="1" /><path clip-path="url(#clip790)" d="M83.7466 350.446 L88.6308 350.446 L88.6308 356.326 L83.7466 356.326 L83.7466 350.446 Z" fill="#000000" fill-rule="nonzero" fill-opacity="1" /><path clip-path="url(#clip790)" d="M112.983 337.691 Q116.339 338.409 118.214 340.677 Q120.112 342.946 120.112 346.279 Q120.112 351.395 116.594 354.196 Q113.075 356.997 106.594 356.997 Q104.418 356.997 102.103 356.557 Q99.8113 356.14 97.3576 355.284 L97.3576 350.77 Q99.3021 351.904 101.617 352.483 Q103.932 353.062 106.455 353.062 Q110.853 353.062 113.145 351.326 Q115.459 349.589 115.459 346.279 Q115.459 343.224 113.307 341.511 Q111.177 339.775 107.358 339.775 L103.33 339.775 L103.33 335.932 L107.543 335.932 Q110.992 335.932 112.82 334.566 Q114.649 333.177 114.649 330.585 Q114.649 327.923 112.751 326.511 Q110.876 325.076 107.358 325.076 Q105.436 325.076 103.237 325.492 Q101.038 325.909 98.3993 326.789 L98.3993 322.622 Q101.061 321.881 103.376 321.511 Q105.714 321.141 107.774 321.141 Q113.098 321.141 116.2 323.571 Q119.302 325.978 119.302 330.099 Q119.302 332.969 117.658 334.96 Q116.015 336.927 112.983 337.691 Z" fill="#000000" fill-rule="nonzero" fill-opacity="1" /><circle clip-path="url(#clip792)" cx="218.281" cy="1445.72" r="14.4" fill="#009af9" fill-rule="evenodd" fill-opacity="1" stroke="#000000" stroke-opacity="1" stroke-width="3.2"/>
<circle clip-path="url(#clip792)" cx="218.387" cy="915.843" r="14.4" fill="#009af9" fill-rule="evenodd" fill-opacity="1" stroke="#000000" stroke-opacity="1" stroke-width="3.2"/>
<circle clip-path="url(#clip792)" cx="218.492" cy="548.032" r="14.4" fill="#009af9" fill-rule="evenodd" fill-opacity="1" stroke="#000000" stroke-opacity="1" stroke-width="3.2"/>
<circle clip-path="url(#clip792)" cx="218.598" cy="338.935" r="14.4" fill="#009af9" fill-rule="evenodd" fill-opacity="1" stroke="#000000" stroke-opacity="1" stroke-width="3.2"/>
<circle clip-path="url(#clip792)" cx="218.703" cy="217.32" r="14.4" fill="#009af9" fill-rule="evenodd" fill-opacity="1" stroke="#000000" stroke-opacity="1" stroke-width="3.2"/>
<circle clip-path="url(#clip792)" cx="218.808" cy="147.171" r="14.4" fill="#009af9" fill-rule="evenodd" fill-opacity="1" stroke="#000000" stroke-opacity="1" stroke-width="3.2"/>
<circle clip-path="url(#clip792)" cx="218.914" cy="109.032" r="14.4" fill="#009af9" fill-rule="evenodd" fill-opacity="1" stroke="#000000" stroke-opacity="1" stroke-width="3.2"/>
<circle clip-path="url(#clip792)" cx="219.019" cy="91.6104" r="14.4" fill="#009af9" fill-rule="evenodd" fill-opacity="1" stroke="#000000" stroke-opacity="1" stroke-width="3.2"/>
<circle clip-path="url(#clip792)" cx="219.125" cy="87.9763" r="14.4" fill="#009af9" fill-rule="evenodd" fill-opacity="1" stroke="#000000" stroke-opacity="1" stroke-width="3.2"/>
<circle clip-path="url(#clip792)" cx="219.23" cy="93.6855" r="14.4" fill="#009af9" fill-rule="evenodd" fill-opacity="1" stroke="#000000" stroke-opacity="1" stroke-width="3.2"/>
<circle clip-path="url(#clip792)" cx="219.335" cy="105.791" r="14.4" fill="#009af9" fill-rule="evenodd" fill-opacity="1" stroke="#000000" stroke-opacity="1" stroke-width="3.2"/>
<circle clip-path="url(#clip792)" cx="219.441" cy="122.285" r="14.4" fill="#009af9" fill-rule="evenodd" fill-opacity="1" stroke="#000000" stroke-opacity="1" stroke-width="3.2"/>
<circle clip-path="url(#clip792)" cx="219.546" cy="141.771" r="14.4" fill="#009af9" fill-rule="evenodd" fill-opacity="1" stroke="#000000" stroke-opacity="1" stroke-width="3.2"/>
<circle clip-path="url(#clip792)" cx="219.652" cy="163.259" r="14.4" fill="#009af9" fill-rule="evenodd" fill-opacity="1" stroke="#000000" stroke-opacity="1" stroke-width="3.2"/>
<circle clip-path="url(#clip792)" cx="219.757" cy="186.04" r="14.4" fill="#009af9" fill-rule="evenodd" fill-opacity="1" stroke="#000000" stroke-opacity="1" stroke-width="3.2"/>
<circle clip-path="url(#clip792)" cx="219.862" cy="209.599" r="14.4" fill="#009af9" fill-rule="evenodd" fill-opacity="1" stroke="#000000" stroke-opacity="1" stroke-width="3.2"/>
<circle clip-path="url(#clip792)" cx="219.968" cy="233.562" r="14.4" fill="#009af9" fill-rule="evenodd" fill-opacity="1" stroke="#000000" stroke-opacity="1" stroke-width="3.2"/>
<circle clip-path="url(#clip792)" cx="220.179" cy="281.672" r="14.4" fill="#009af9" fill-rule="evenodd" fill-opacity="1" stroke="#000000" stroke-opacity="1" stroke-width="3.2"/>
<circle clip-path="url(#clip792)" cx="220.389" cy="328.938" r="14.4" fill="#009af9" fill-rule="evenodd" fill-opacity="1" stroke="#000000" stroke-opacity="1" stroke-width="3.2"/>
<circle clip-path="url(#clip792)" cx="220.6" cy="374.601" r="14.4" fill="#009af9" fill-rule="evenodd" fill-opacity="1" stroke="#000000" stroke-opacity="1" stroke-width="3.2"/>
<circle clip-path="url(#clip792)" cx="220.811" cy="418.285" r="14.4" fill="#009af9" fill-rule="evenodd" fill-opacity="1" stroke="#000000" stroke-opacity="1" stroke-width="3.2"/>
<circle clip-path="url(#clip792)" cx="221.022" cy="459.828" r="14.4" fill="#009af9" fill-rule="evenodd" fill-opacity="1" stroke="#000000" stroke-opacity="1" stroke-width="3.2"/>
<circle clip-path="url(#clip792)" cx="221.233" cy="499.199" r="14.4" fill="#009af9" fill-rule="evenodd" fill-opacity="1" stroke="#000000" stroke-opacity="1" stroke-width="3.2"/>
<circle clip-path="url(#clip792)" cx="221.443" cy="536.435" r="14.4" fill="#009af9" fill-rule="evenodd" fill-opacity="1" stroke="#000000" stroke-opacity="1" stroke-width="3.2"/>
<circle clip-path="url(#clip792)" cx="221.654" cy="571.615" r="14.4" fill="#009af9" fill-rule="evenodd" fill-opacity="1" stroke="#000000" stroke-opacity="1" stroke-width="3.2"/>
<circle clip-path="url(#clip792)" cx="221.865" cy="604.839" r="14.4" fill="#009af9" fill-rule="evenodd" fill-opacity="1" stroke="#000000" stroke-opacity="1" stroke-width="3.2"/>
<circle clip-path="url(#clip792)" cx="222.076" cy="636.219" r="14.4" fill="#009af9" fill-rule="evenodd" fill-opacity="1" stroke="#000000" stroke-opacity="1" stroke-width="3.2"/>
<circle clip-path="url(#clip792)" cx="222.287" cy="665.866" r="14.4" fill="#009af9" fill-rule="evenodd" fill-opacity="1" stroke="#000000" stroke-opacity="1" stroke-width="3.2"/>
<circle clip-path="url(#clip792)" cx="222.497" cy="693.891" r="14.4" fill="#009af9" fill-rule="evenodd" fill-opacity="1" stroke="#000000" stroke-opacity="1" stroke-width="3.2"/>
<circle clip-path="url(#clip792)" cx="222.708" cy="720.401" r="14.4" fill="#009af9" fill-rule="evenodd" fill-opacity="1" stroke="#000000" stroke-opacity="1" stroke-width="3.2"/>
<circle clip-path="url(#clip792)" cx="222.919" cy="745.497" r="14.4" fill="#009af9" fill-rule="evenodd" fill-opacity="1" stroke="#000000" stroke-opacity="1" stroke-width="3.2"/>
<circle clip-path="url(#clip792)" cx="223.13" cy="769.273" r="14.4" fill="#009af9" fill-rule="evenodd" fill-opacity="1" stroke="#000000" stroke-opacity="1" stroke-width="3.2"/>
<circle clip-path="url(#clip792)" cx="223.341" cy="791.819" r="14.4" fill="#009af9" fill-rule="evenodd" fill-opacity="1" stroke="#000000" stroke-opacity="1" stroke-width="3.2"/>
<circle clip-path="url(#clip792)" cx="223.552" cy="813.216" r="14.4" fill="#009af9" fill-rule="evenodd" fill-opacity="1" stroke="#000000" stroke-opacity="1" stroke-width="3.2"/>
<circle clip-path="url(#clip792)" cx="223.762" cy="833.542" r="14.4" fill="#009af9" fill-rule="evenodd" fill-opacity="1" stroke="#000000" stroke-opacity="1" stroke-width="3.2"/>
<circle clip-path="url(#clip792)" cx="223.973" cy="852.866" r="14.4" fill="#009af9" fill-rule="evenodd" fill-opacity="1" stroke="#000000" stroke-opacity="1" stroke-width="3.2"/>
<circle clip-path="url(#clip792)" cx="224.184" cy="871.254" r="14.4" fill="#009af9" fill-rule="evenodd" fill-opacity="1" stroke="#000000" stroke-opacity="1" stroke-width="3.2"/>
<circle clip-path="url(#clip792)" cx="224.606" cy="905.459" r="14.4" fill="#009af9" fill-rule="evenodd" fill-opacity="1" stroke="#000000" stroke-opacity="1" stroke-width="3.2"/>
<circle clip-path="url(#clip792)" cx="225.027" cy="936.585" r="14.4" fill="#009af9" fill-rule="evenodd" fill-opacity="1" stroke="#000000" stroke-opacity="1" stroke-width="3.2"/>
<circle clip-path="url(#clip792)" cx="225.449" cy="965" r="14.4" fill="#009af9" fill-rule="evenodd" fill-opacity="1" stroke="#000000" stroke-opacity="1" stroke-width="3.2"/>
<circle clip-path="url(#clip792)" cx="225.87" cy="991.017" r="14.4" fill="#009af9" fill-rule="evenodd" fill-opacity="1" stroke="#000000" stroke-opacity="1" stroke-width="3.2"/>
<circle clip-path="url(#clip792)" cx="226.292" cy="1014.91" r="14.4" fill="#009af9" fill-rule="evenodd" fill-opacity="1" stroke="#000000" stroke-opacity="1" stroke-width="3.2"/>
<circle clip-path="url(#clip792)" cx="226.714" cy="1036.9" r="14.4" fill="#009af9" fill-rule="evenodd" fill-opacity="1" stroke="#000000" stroke-opacity="1" stroke-width="3.2"/>
<circle clip-path="url(#clip792)" cx="227.135" cy="1057.2" r="14.4" fill="#009af9" fill-rule="evenodd" fill-opacity="1" stroke="#000000" stroke-opacity="1" stroke-width="3.2"/>
<circle clip-path="url(#clip792)" cx="227.557" cy="1075.98" r="14.4" fill="#009af9" fill-rule="evenodd" fill-opacity="1" stroke="#000000" stroke-opacity="1" stroke-width="3.2"/>
<circle clip-path="url(#clip792)" cx="227.979" cy="1093.39" r="14.4" fill="#009af9" fill-rule="evenodd" fill-opacity="1" stroke="#000000" stroke-opacity="1" stroke-width="3.2"/>
<circle clip-path="url(#clip792)" cx="228.4" cy="1109.57" r="14.4" fill="#009af9" fill-rule="evenodd" fill-opacity="1" stroke="#000000" stroke-opacity="1" stroke-width="3.2"/>
<circle clip-path="url(#clip792)" cx="228.822" cy="1124.63" r="14.4" fill="#009af9" fill-rule="evenodd" fill-opacity="1" stroke="#000000" stroke-opacity="1" stroke-width="3.2"/>
<circle clip-path="url(#clip792)" cx="229.243" cy="1138.68" r="14.4" fill="#009af9" fill-rule="evenodd" fill-opacity="1" stroke="#000000" stroke-opacity="1" stroke-width="3.2"/>
<circle clip-path="url(#clip792)" cx="229.665" cy="1151.81" r="14.4" fill="#009af9" fill-rule="evenodd" fill-opacity="1" stroke="#000000" stroke-opacity="1" stroke-width="3.2"/>
<circle clip-path="url(#clip792)" cx="230.087" cy="1164.1" r="14.4" fill="#009af9" fill-rule="evenodd" fill-opacity="1" stroke="#000000" stroke-opacity="1" stroke-width="3.2"/>
<circle clip-path="url(#clip792)" cx="230.508" cy="1175.62" r="14.4" fill="#009af9" fill-rule="evenodd" fill-opacity="1" stroke="#000000" stroke-opacity="1" stroke-width="3.2"/>
<circle clip-path="url(#clip792)" cx="230.93" cy="1186.44" r="14.4" fill="#009af9" fill-rule="evenodd" fill-opacity="1" stroke="#000000" stroke-opacity="1" stroke-width="3.2"/>
<circle clip-path="url(#clip792)" cx="231.141" cy="1191.6" r="14.4" fill="#009af9" fill-rule="evenodd" fill-opacity="1" stroke="#000000" stroke-opacity="1" stroke-width="3.2"/>
<circle clip-path="url(#clip792)" cx="231.352" cy="1196.61" r="14.4" fill="#009af9" fill-rule="evenodd" fill-opacity="1" stroke="#000000" stroke-opacity="1" stroke-width="3.2"/>
<circle clip-path="url(#clip792)" cx="231.562" cy="1201.47" r="14.4" fill="#009af9" fill-rule="evenodd" fill-opacity="1" stroke="#000000" stroke-opacity="1" stroke-width="3.2"/>
<circle clip-path="url(#clip792)" cx="231.773" cy="1206.19" r="14.4" fill="#009af9" fill-rule="evenodd" fill-opacity="1" stroke="#000000" stroke-opacity="1" stroke-width="3.2"/>
<circle clip-path="url(#clip792)" cx="232.748" cy="1226.3" r="14.4" fill="#009af9" fill-rule="evenodd" fill-opacity="1" stroke="#000000" stroke-opacity="1" stroke-width="3.2"/>
<circle clip-path="url(#clip792)" cx="233.722" cy="1243.96" r="14.4" fill="#009af9" fill-rule="evenodd" fill-opacity="1" stroke="#000000" stroke-opacity="1" stroke-width="3.2"/>
<circle clip-path="url(#clip792)" cx="234.697" cy="1259.57" r="14.4" fill="#009af9" fill-rule="evenodd" fill-opacity="1" stroke="#000000" stroke-opacity="1" stroke-width="3.2"/>
<circle clip-path="url(#clip792)" cx="235.672" cy="1273.43" r="14.4" fill="#009af9" fill-rule="evenodd" fill-opacity="1" stroke="#000000" stroke-opacity="1" stroke-width="3.2"/>
<circle clip-path="url(#clip792)" cx="236.646" cy="1285.81" r="14.4" fill="#009af9" fill-rule="evenodd" fill-opacity="1" stroke="#000000" stroke-opacity="1" stroke-width="3.2"/>
<circle clip-path="url(#clip792)" cx="237.621" cy="1296.9" r="14.4" fill="#009af9" fill-rule="evenodd" fill-opacity="1" stroke="#000000" stroke-opacity="1" stroke-width="3.2"/>
<circle clip-path="url(#clip792)" cx="238.595" cy="1306.89" r="14.4" fill="#009af9" fill-rule="evenodd" fill-opacity="1" stroke="#000000" stroke-opacity="1" stroke-width="3.2"/>
<circle clip-path="url(#clip792)" cx="239.57" cy="1315.91" r="14.4" fill="#009af9" fill-rule="evenodd" fill-opacity="1" stroke="#000000" stroke-opacity="1" stroke-width="3.2"/>
<circle clip-path="url(#clip792)" cx="241.519" cy="1331.54" r="14.4" fill="#009af9" fill-rule="evenodd" fill-opacity="1" stroke="#000000" stroke-opacity="1" stroke-width="3.2"/>
<circle clip-path="url(#clip792)" cx="243.469" cy="1344.54" r="14.4" fill="#009af9" fill-rule="evenodd" fill-opacity="1" stroke="#000000" stroke-opacity="1" stroke-width="3.2"/>
<circle clip-path="url(#clip792)" cx="245.418" cy="1355.49" r="14.4" fill="#009af9" fill-rule="evenodd" fill-opacity="1" stroke="#000000" stroke-opacity="1" stroke-width="3.2"/>
<circle clip-path="url(#clip792)" cx="247.367" cy="1364.78" r="14.4" fill="#009af9" fill-rule="evenodd" fill-opacity="1" stroke="#000000" stroke-opacity="1" stroke-width="3.2"/>
<circle clip-path="url(#clip792)" cx="249.316" cy="1372.75" r="14.4" fill="#009af9" fill-rule="evenodd" fill-opacity="1" stroke="#000000" stroke-opacity="1" stroke-width="3.2"/>
<circle clip-path="url(#clip792)" cx="251.266" cy="1379.63" r="14.4" fill="#009af9" fill-rule="evenodd" fill-opacity="1" stroke="#000000" stroke-opacity="1" stroke-width="3.2"/>
<circle clip-path="url(#clip792)" cx="253.215" cy="1385.61" r="14.4" fill="#009af9" fill-rule="evenodd" fill-opacity="1" stroke="#000000" stroke-opacity="1" stroke-width="3.2"/>
<circle clip-path="url(#clip792)" cx="255.164" cy="1390.84" r="14.4" fill="#009af9" fill-rule="evenodd" fill-opacity="1" stroke="#000000" stroke-opacity="1" stroke-width="3.2"/>
<circle clip-path="url(#clip792)" cx="259.063" cy="1399.51" r="14.4" fill="#009af9" fill-rule="evenodd" fill-opacity="1" stroke="#000000" stroke-opacity="1" stroke-width="3.2"/>
<circle clip-path="url(#clip792)" cx="262.961" cy="1406.35" r="14.4" fill="#009af9" fill-rule="evenodd" fill-opacity="1" stroke="#000000" stroke-opacity="1" stroke-width="3.2"/>
<circle clip-path="url(#clip792)" cx="266.86" cy="1411.83" r="14.4" fill="#009af9" fill-rule="evenodd" fill-opacity="1" stroke="#000000" stroke-opacity="1" stroke-width="3.2"/>
<circle clip-path="url(#clip792)" cx="270.758" cy="1416.29" r="14.4" fill="#009af9" fill-rule="evenodd" fill-opacity="1" stroke="#000000" stroke-opacity="1" stroke-width="3.2"/>
<circle clip-path="url(#clip792)" cx="274.656" cy="1419.96" r="14.4" fill="#009af9" fill-rule="evenodd" fill-opacity="1" stroke="#000000" stroke-opacity="1" stroke-width="3.2"/>
<circle clip-path="url(#clip792)" cx="278.555" cy="1423.02" r="14.4" fill="#009af9" fill-rule="evenodd" fill-opacity="1" stroke="#000000" stroke-opacity="1" stroke-width="3.2"/>
<circle clip-path="url(#clip792)" cx="286.352" cy="1427.78" r="14.4" fill="#009af9" fill-rule="evenodd" fill-opacity="1" stroke="#000000" stroke-opacity="1" stroke-width="3.2"/>
<circle clip-path="url(#clip792)" cx="294.149" cy="1431.26" r="14.4" fill="#009af9" fill-rule="evenodd" fill-opacity="1" stroke="#000000" stroke-opacity="1" stroke-width="3.2"/>
<circle clip-path="url(#clip792)" cx="309.743" cy="1435.86" r="14.4" fill="#009af9" fill-rule="evenodd" fill-opacity="1" stroke="#000000" stroke-opacity="1" stroke-width="3.2"/>
<circle clip-path="url(#clip792)" cx="325.337" cy="1438.67" r="14.4" fill="#009af9" fill-rule="evenodd" fill-opacity="1" stroke="#000000" stroke-opacity="1" stroke-width="3.2"/>
<circle clip-path="url(#clip792)" cx="340.931" cy="1440.48" r="14.4" fill="#009af9" fill-rule="evenodd" fill-opacity="1" stroke="#000000" stroke-opacity="1" stroke-width="3.2"/>
<circle clip-path="url(#clip792)" cx="356.525" cy="1441.72" r="14.4" fill="#009af9" fill-rule="evenodd" fill-opacity="1" stroke="#000000" stroke-opacity="1" stroke-width="3.2"/>
<circle clip-path="url(#clip792)" cx="375.267" cy="1442.73" r="14.4" fill="#009af9" fill-rule="evenodd" fill-opacity="1" stroke="#000000" stroke-opacity="1" stroke-width="3.2"/>
<circle clip-path="url(#clip792)" cx="394.01" cy="1443.43" r="14.4" fill="#009af9" fill-rule="evenodd" fill-opacity="1" stroke="#000000" stroke-opacity="1" stroke-width="3.2"/>
<circle clip-path="url(#clip792)" cx="412.753" cy="1443.92" r="14.4" fill="#009af9" fill-rule="evenodd" fill-opacity="1" stroke="#000000" stroke-opacity="1" stroke-width="3.2"/>
<circle clip-path="url(#clip792)" cx="431.495" cy="1444.29" r="14.4" fill="#009af9" fill-rule="evenodd" fill-opacity="1" stroke="#000000" stroke-opacity="1" stroke-width="3.2"/>
<circle clip-path="url(#clip792)" cx="463.188" cy="1444.7" r="14.4" fill="#009af9" fill-rule="evenodd" fill-opacity="1" stroke="#000000" stroke-opacity="1" stroke-width="3.2"/>
<circle clip-path="url(#clip792)" cx="494.882" cy="1444.97" r="14.4" fill="#009af9" fill-rule="evenodd" fill-opacity="1" stroke="#000000" stroke-opacity="1" stroke-width="3.2"/>
<circle clip-path="url(#clip792)" cx="563.737" cy="1445.3" r="14.4" fill="#009af9" fill-rule="evenodd" fill-opacity="1" stroke="#000000" stroke-opacity="1" stroke-width="3.2"/>
<circle clip-path="url(#clip792)" cx="627.216" cy="1445.45" r="14.4" fill="#009af9" fill-rule="evenodd" fill-opacity="1" stroke="#000000" stroke-opacity="1" stroke-width="3.2"/>
<circle clip-path="url(#clip792)" cx="695.272" cy="1445.55" r="14.4" fill="#009af9" fill-rule="evenodd" fill-opacity="1" stroke="#000000" stroke-opacity="1" stroke-width="3.2"/>
<circle clip-path="url(#clip792)" cx="774.122" cy="1445.61" r="14.4" fill="#009af9" fill-rule="evenodd" fill-opacity="1" stroke="#000000" stroke-opacity="1" stroke-width="3.2"/>
<circle clip-path="url(#clip792)" cx="844.194" cy="1445.64" r="14.4" fill="#009af9" fill-rule="evenodd" fill-opacity="1" stroke="#000000" stroke-opacity="1" stroke-width="3.2"/>
<circle clip-path="url(#clip792)" cx="905.641" cy="1445.66" r="14.4" fill="#009af9" fill-rule="evenodd" fill-opacity="1" stroke="#000000" stroke-opacity="1" stroke-width="3.2"/>
<circle clip-path="url(#clip792)" cx="972.634" cy="1445.67" r="14.4" fill="#009af9" fill-rule="evenodd" fill-opacity="1" stroke="#000000" stroke-opacity="1" stroke-width="3.2"/>
<circle clip-path="url(#clip792)" cx="1040.03" cy="1445.68" r="14.4" fill="#009af9" fill-rule="evenodd" fill-opacity="1" stroke="#000000" stroke-opacity="1" stroke-width="3.2"/>
<circle clip-path="url(#clip792)" cx="1114.54" cy="1445.69" r="14.4" fill="#009af9" fill-rule="evenodd" fill-opacity="1" stroke="#000000" stroke-opacity="1" stroke-width="3.2"/>
<circle clip-path="url(#clip792)" cx="1185.43" cy="1445.7" r="14.4" fill="#009af9" fill-rule="evenodd" fill-opacity="1" stroke="#000000" stroke-opacity="1" stroke-width="3.2"/>
<circle clip-path="url(#clip792)" cx="1259.14" cy="1445.7" r="14.4" fill="#009af9" fill-rule="evenodd" fill-opacity="1" stroke="#000000" stroke-opacity="1" stroke-width="3.2"/>
<circle clip-path="url(#clip792)" cx="1321.2" cy="1445.7" r="14.4" fill="#009af9" fill-rule="evenodd" fill-opacity="1" stroke="#000000" stroke-opacity="1" stroke-width="3.2"/>
<circle clip-path="url(#clip792)" cx="1396.95" cy="1445.7" r="14.4" fill="#009af9" fill-rule="evenodd" fill-opacity="1" stroke="#000000" stroke-opacity="1" stroke-width="3.2"/>
<circle clip-path="url(#clip792)" cx="1466.35" cy="1445.71" r="14.4" fill="#009af9" fill-rule="evenodd" fill-opacity="1" stroke="#000000" stroke-opacity="1" stroke-width="3.2"/>
<circle clip-path="url(#clip792)" cx="1530.45" cy="1445.71" r="14.4" fill="#009af9" fill-rule="evenodd" fill-opacity="1" stroke="#000000" stroke-opacity="1" stroke-width="3.2"/>
<circle clip-path="url(#clip792)" cx="1595.38" cy="1445.71" r="14.4" fill="#009af9" fill-rule="evenodd" fill-opacity="1" stroke="#000000" stroke-opacity="1" stroke-width="3.2"/>
<circle clip-path="url(#clip792)" cx="1668.14" cy="1445.71" r="14.4" fill="#009af9" fill-rule="evenodd" fill-opacity="1" stroke="#000000" stroke-opacity="1" stroke-width="3.2"/>
<circle clip-path="url(#clip792)" cx="1734.08" cy="1445.71" r="14.4" fill="#009af9" fill-rule="evenodd" fill-opacity="1" stroke="#000000" stroke-opacity="1" stroke-width="3.2"/>
<circle clip-path="url(#clip792)" cx="1809.57" cy="1445.71" r="14.4" fill="#009af9" fill-rule="evenodd" fill-opacity="1" stroke="#000000" stroke-opacity="1" stroke-width="3.2"/>
<circle clip-path="url(#clip792)" cx="1879.47" cy="1445.71" r="14.4" fill="#009af9" fill-rule="evenodd" fill-opacity="1" stroke="#000000" stroke-opacity="1" stroke-width="3.2"/>
<circle clip-path="url(#clip792)" cx="1948.38" cy="1445.71" r="14.4" fill="#009af9" fill-rule="evenodd" fill-opacity="1" stroke="#000000" stroke-opacity="1" stroke-width="3.2"/>
<circle clip-path="url(#clip792)" cx="2015.29" cy="1445.71" r="14.4" fill="#009af9" fill-rule="evenodd" fill-opacity="1" stroke="#000000" stroke-opacity="1" stroke-width="3.2"/>
<circle clip-path="url(#clip792)" cx="2083.88" cy="1445.71" r="14.4" fill="#009af9" fill-rule="evenodd" fill-opacity="1" stroke="#000000" stroke-opacity="1" stroke-width="3.2"/>
<circle clip-path="url(#clip792)" cx="2159.03" cy="1445.71" r="14.4" fill="#009af9" fill-rule="evenodd" fill-opacity="1" stroke="#000000" stroke-opacity="1" stroke-width="3.2"/>
<circle clip-path="url(#clip792)" cx="2268.19" cy="1445.71" r="14.4" fill="#009af9" fill-rule="evenodd" fill-opacity="1" stroke="#000000" stroke-opacity="1" stroke-width="3.2"/>
<circle clip-path="url(#clip792)" cx="2290.59" cy="1445.71" r="14.4" fill="#009af9" fill-rule="evenodd" fill-opacity="1" stroke="#000000" stroke-opacity="1" stroke-width="3.2"/>
<path clip-path="url(#clip790)" d="M2007.44 198.898 L2279.53 198.898 L2279.53 95.2176 L2007.44 95.2176  Z" fill="#ffffff" fill-rule="evenodd" fill-opacity="1"/>
<polyline clip-path="url(#clip790)" style="stroke:#000000; stroke-linecap:round; stroke-linejoin:round; stroke-width:4; stroke-opacity:1; fill:none" points="2007.44,198.898 2279.53,198.898 2279.53,95.2176 2007.44,95.2176 2007.44,198.898 "/>
<circle clip-path="url(#clip790)" cx="2105.07" cy="147.058" r="23.04" fill="#009af9" fill-rule="evenodd" fill-opacity="1" stroke="#000000" stroke-opacity="1" stroke-width="5.12"/>
<path clip-path="url(#clip790)" d="M2216.54 166.745 Q2214.73 171.375 2213.02 172.787 Q2211.31 174.199 2208.44 174.199 L2205.03 174.199 L2205.03 170.634 L2207.53 170.634 Q2209.29 170.634 2210.27 169.8 Q2211.24 168.967 2212.42 165.865 L2213.18 163.921 L2202.7 138.412 L2207.21 138.412 L2215.31 158.689 L2223.41 138.412 L2227.93 138.412 L2216.54 166.745 Z" fill="#000000" fill-rule="nonzero" fill-opacity="1" /><path clip-path="url(#clip790)" d="M2235.22 160.402 L2242.86 160.402 L2242.86 134.037 L2234.55 135.703 L2234.55 131.444 L2242.81 129.778 L2247.49 129.778 L2247.49 160.402 L2255.13 160.402 L2255.13 164.338 L2235.22 164.338 L2235.22 160.402 Z" fill="#000000" fill-rule="nonzero" fill-opacity="1" /></svg>
