<?xml version="1.0" encoding="utf-8"?>
<svg xmlns="http://www.w3.org/2000/svg" xmlns:xlink="http://www.w3.org/1999/xlink" width="600" height="400" viewBox="0 0 2400 1600">
<defs>
  <clipPath id="clip690">
    <rect x="0" y="0" width="2400" height="1600"/>
  </clipPath>
</defs>
<path clip-path="url(#clip690)" d="M0 1600 L2400 1600 L2400 0 L0 0  Z" fill="#ffffff" fill-rule="evenodd" fill-opacity="1"/>
<defs>
  <clipPath id="clip691">
    <rect x="480" y="0" width="1681" height="1600"/>
  </clipPath>
</defs>
<path clip-path="url(#clip690)" d="M156.274 1486.45 L2352.76 1486.45 L2352.76 47.2441 L156.274 47.2441  Z" fill="#ffffff" fill-rule="evenodd" fill-opacity="1"/>
<defs>
  <clipPath id="clip692">
    <rect x="156" y="47" width="2197" height="1440"/>
  </clipPath>
</defs>
<polyline clip-path="url(#clip692)" style="stroke:#000000; stroke-linecap:round; stroke-linejoin:round; stroke-width:2; stroke-opacity:0.1; fill:none" points="291.17,1486.45 291.17,47.2441 "/>
<polyline clip-path="url(#clip692)" style="stroke:#000000; stroke-linecap:round; stroke-linejoin:round; stroke-width:2; stroke-opacity:0.1; fill:none" points="758.918,1486.45 758.918,47.2441 "/>
<polyline clip-path="url(#clip692)" style="stroke:#000000; stroke-linecap:round; stroke-linejoin:round; stroke-width:2; stroke-opacity:0.1; fill:none" points="1226.67,1486.45 1226.67,47.2441 "/>
<polyline clip-path="url(#clip692)" style="stroke:#000000; stroke-linecap:round; stroke-linejoin:round; stroke-width:2; stroke-opacity:0.1; fill:none" points="1694.41,1486.45 1694.41,47.2441 "/>
<polyline clip-path="url(#clip692)" style="stroke:#000000; stroke-linecap:round; stroke-linejoin:round; stroke-width:2; stroke-opacity:0.1; fill:none" points="2162.16,1486.45 2162.16,47.2441 "/>
<polyline clip-path="url(#clip690)" style="stroke:#000000; stroke-linecap:round; stroke-linejoin:round; stroke-width:4; stroke-opacity:1; fill:none" points="156.274,1486.45 2352.76,1486.45 "/>
<polyline clip-path="url(#clip690)" style="stroke:#000000; stroke-linecap:round; stroke-linejoin:round; stroke-width:4; stroke-opacity:1; fill:none" points="291.17,1486.45 291.17,1467.55 "/>
<polyline clip-path="url(#clip690)" style="stroke:#000000; stroke-linecap:round; stroke-linejoin:round; stroke-width:4; stroke-opacity:1; fill:none" points="758.918,1486.45 758.918,1467.55 "/>
<polyline clip-path="url(#clip690)" style="stroke:#000000; stroke-linecap:round; stroke-linejoin:round; stroke-width:4; stroke-opacity:1; fill:none" points="1226.67,1486.45 1226.67,1467.55 "/>
<polyline clip-path="url(#clip690)" style="stroke:#000000; stroke-linecap:round; stroke-linejoin:round; stroke-width:4; stroke-opacity:1; fill:none" points="1694.41,1486.45 1694.41,1467.55 "/>
<polyline clip-path="url(#clip690)" style="stroke:#000000; stroke-linecap:round; stroke-linejoin:round; stroke-width:4; stroke-opacity:1; fill:none" points="2162.16,1486.45 2162.16,1467.55 "/>
<path clip-path="url(#clip690)" d="M260.811 1532.02 L290.487 1532.02 L290.487 1535.95 L260.811 1535.95 L260.811 1532.02 Z" fill="#000000" fill-rule="nonzero" fill-opacity="1" /><path clip-path="url(#clip690)" d="M300.626 1514.29 L318.982 1514.29 L318.982 1518.22 L304.908 1518.22 L304.908 1526.7 Q305.926 1526.35 306.945 1526.19 Q307.963 1526 308.982 1526 Q314.769 1526 318.149 1529.17 Q321.528 1532.34 321.528 1537.76 Q321.528 1543.34 318.056 1546.44 Q314.584 1549.52 308.264 1549.52 Q306.088 1549.52 303.82 1549.15 Q301.575 1548.78 299.167 1548.04 L299.167 1543.34 Q301.251 1544.47 303.473 1545.03 Q305.695 1545.58 308.172 1545.58 Q312.176 1545.58 314.514 1543.48 Q316.852 1541.37 316.852 1537.76 Q316.852 1534.15 314.514 1532.04 Q312.176 1529.94 308.172 1529.94 Q306.297 1529.94 304.422 1530.35 Q302.57 1530.77 300.626 1531.65 L300.626 1514.29 Z" fill="#000000" fill-rule="nonzero" fill-opacity="1" /><path clip-path="url(#clip690)" d="M758.918 1517.37 Q755.306 1517.37 753.478 1520.93 Q751.672 1524.47 751.672 1531.6 Q751.672 1538.71 753.478 1542.27 Q755.306 1545.82 758.918 1545.82 Q762.552 1545.82 764.357 1542.27 Q766.186 1538.71 766.186 1531.6 Q766.186 1524.47 764.357 1520.93 Q762.552 1517.37 758.918 1517.37 M758.918 1513.66 Q764.728 1513.66 767.783 1518.27 Q770.862 1522.85 770.862 1531.6 Q770.862 1540.33 767.783 1544.94 Q764.728 1549.52 758.918 1549.52 Q753.107 1549.52 750.029 1544.94 Q746.973 1540.33 746.973 1531.6 Q746.973 1522.85 750.029 1518.27 Q753.107 1513.66 758.918 1513.66 Z" fill="#000000" fill-rule="nonzero" fill-opacity="1" /><path clip-path="url(#clip690)" d="M1216.94 1514.29 L1235.3 1514.29 L1235.3 1518.22 L1221.23 1518.22 L1221.23 1526.7 Q1222.24 1526.35 1223.26 1526.19 Q1224.28 1526 1225.3 1526 Q1231.09 1526 1234.47 1529.17 Q1237.85 1532.34 1237.85 1537.76 Q1237.85 1543.34 1234.37 1546.44 Q1230.9 1549.52 1224.58 1549.52 Q1222.41 1549.52 1220.14 1549.15 Q1217.89 1548.78 1215.48 1548.04 L1215.48 1543.34 Q1217.57 1544.47 1219.79 1545.03 Q1222.01 1545.58 1224.49 1545.58 Q1228.49 1545.58 1230.83 1543.48 Q1233.17 1541.37 1233.17 1537.76 Q1233.17 1534.15 1230.83 1532.04 Q1228.49 1529.94 1224.49 1529.94 Q1222.61 1529.94 1220.74 1530.35 Q1218.89 1530.77 1216.94 1531.65 L1216.94 1514.29 Z" fill="#000000" fill-rule="nonzero" fill-opacity="1" /><path clip-path="url(#clip690)" d="M1669.1 1544.91 L1676.74 1544.91 L1676.74 1518.55 L1668.43 1520.21 L1668.43 1515.95 L1676.69 1514.29 L1681.37 1514.29 L1681.37 1544.91 L1689.01 1544.91 L1689.01 1548.85 L1669.1 1548.85 L1669.1 1544.91 Z" fill="#000000" fill-rule="nonzero" fill-opacity="1" /><path clip-path="url(#clip690)" d="M1708.45 1517.37 Q1704.84 1517.37 1703.01 1520.93 Q1701.21 1524.47 1701.21 1531.6 Q1701.21 1538.71 1703.01 1542.27 Q1704.84 1545.82 1708.45 1545.82 Q1712.09 1545.82 1713.89 1542.27 Q1715.72 1538.71 1715.72 1531.6 Q1715.72 1524.47 1713.89 1520.93 Q1712.09 1517.37 1708.45 1517.37 M1708.45 1513.66 Q1714.26 1513.66 1717.32 1518.27 Q1720.4 1522.85 1720.4 1531.6 Q1720.4 1540.33 1717.32 1544.94 Q1714.26 1549.52 1708.45 1549.52 Q1702.64 1549.52 1699.56 1544.94 Q1696.51 1540.33 1696.51 1531.6 Q1696.51 1522.85 1699.56 1518.27 Q1702.64 1513.66 1708.45 1513.66 Z" fill="#000000" fill-rule="nonzero" fill-opacity="1" /><path clip-path="url(#clip690)" d="M2137.35 1544.91 L2144.99 1544.91 L2144.99 1518.55 L2136.68 1520.21 L2136.68 1515.95 L2144.94 1514.29 L2149.62 1514.29 L2149.62 1544.91 L2157.25 1544.91 L2157.25 1548.85 L2137.35 1548.85 L2137.35 1544.91 Z" fill="#000000" fill-rule="nonzero" fill-opacity="1" /><path clip-path="url(#clip690)" d="M2166.74 1514.29 L2185.1 1514.29 L2185.1 1518.22 L2171.03 1518.22 L2171.03 1526.7 Q2172.05 1526.35 2173.06 1526.19 Q2174.08 1526 2175.1 1526 Q2180.89 1526 2184.27 1529.17 Q2187.65 1532.34 2187.65 1537.76 Q2187.65 1543.34 2184.18 1546.44 Q2180.7 1549.52 2174.38 1549.52 Q2172.21 1549.52 2169.94 1549.15 Q2167.69 1548.78 2165.29 1548.04 L2165.29 1543.34 Q2167.37 1544.47 2169.59 1545.03 Q2171.81 1545.58 2174.29 1545.58 Q2178.3 1545.58 2180.63 1543.48 Q2182.97 1541.37 2182.97 1537.76 Q2182.97 1534.15 2180.63 1532.04 Q2178.3 1529.94 2174.29 1529.94 Q2172.42 1529.94 2170.54 1530.35 Q2168.69 1530.77 2166.74 1531.65 L2166.74 1514.29 Z" fill="#000000" fill-rule="nonzero" fill-opacity="1" /><polyline clip-path="url(#clip692)" style="stroke:#000000; stroke-linecap:round; stroke-linejoin:round; stroke-width:2; stroke-opacity:0.1; fill:none" points="156.274,1445.73 2352.76,1445.73 "/>
<polyline clip-path="url(#clip692)" style="stroke:#000000; stroke-linecap:round; stroke-linejoin:round; stroke-width:2; stroke-opacity:0.1; fill:none" points="156.274,1164.62 2352.76,1164.62 "/>
<polyline clip-path="url(#clip692)" style="stroke:#000000; stroke-linecap:round; stroke-linejoin:round; stroke-width:2; stroke-opacity:0.1; fill:none" points="156.274,883.508 2352.76,883.508 "/>
<polyline clip-path="url(#clip692)" style="stroke:#000000; stroke-linecap:round; stroke-linejoin:round; stroke-width:2; stroke-opacity:0.1; fill:none" points="156.274,602.395 2352.76,602.395 "/>
<polyline clip-path="url(#clip692)" style="stroke:#000000; stroke-linecap:round; stroke-linejoin:round; stroke-width:2; stroke-opacity:0.1; fill:none" points="156.274,321.281 2352.76,321.281 "/>
<polyline clip-path="url(#clip690)" style="stroke:#000000; stroke-linecap:round; stroke-linejoin:round; stroke-width:4; stroke-opacity:1; fill:none" points="156.274,1486.45 156.274,47.2441 "/>
<polyline clip-path="url(#clip690)" style="stroke:#000000; stroke-linecap:round; stroke-linejoin:round; stroke-width:4; stroke-opacity:1; fill:none" points="156.274,1445.73 175.172,1445.73 "/>
<polyline clip-path="url(#clip690)" style="stroke:#000000; stroke-linecap:round; stroke-linejoin:round; stroke-width:4; stroke-opacity:1; fill:none" points="156.274,1164.62 175.172,1164.62 "/>
<polyline clip-path="url(#clip690)" style="stroke:#000000; stroke-linecap:round; stroke-linejoin:round; stroke-width:4; stroke-opacity:1; fill:none" points="156.274,883.508 175.172,883.508 "/>
<polyline clip-path="url(#clip690)" style="stroke:#000000; stroke-linecap:round; stroke-linejoin:round; stroke-width:4; stroke-opacity:1; fill:none" points="156.274,602.395 175.172,602.395 "/>
<polyline clip-path="url(#clip690)" style="stroke:#000000; stroke-linecap:round; stroke-linejoin:round; stroke-width:4; stroke-opacity:1; fill:none" points="156.274,321.281 175.172,321.281 "/>
<path clip-path="url(#clip690)" d="M63.0985 1431.53 Q59.4875 1431.53 57.6588 1435.1 Q55.8532 1438.64 55.8532 1445.77 Q55.8532 1452.88 57.6588 1456.44 Q59.4875 1459.98 63.0985 1459.98 Q66.7328 1459.98 68.5383 1456.44 Q70.367 1452.88 70.367 1445.77 Q70.367 1438.64 68.5383 1435.1 Q66.7328 1431.53 63.0985 1431.53 M63.0985 1427.83 Q68.9087 1427.83 71.9642 1432.44 Q75.0429 1437.02 75.0429 1445.77 Q75.0429 1454.5 71.9642 1459.1 Q68.9087 1463.69 63.0985 1463.69 Q57.2884 1463.69 54.2097 1459.1 Q51.1542 1454.5 51.1542 1445.77 Q51.1542 1437.02 54.2097 1432.44 Q57.2884 1427.83 63.0985 1427.83 Z" fill="#000000" fill-rule="nonzero" fill-opacity="1" /><path clip-path="url(#clip690)" d="M83.2605 1457.13 L88.1447 1457.13 L88.1447 1463.01 L83.2605 1463.01 L83.2605 1457.13 Z" fill="#000000" fill-rule="nonzero" fill-opacity="1" /><path clip-path="url(#clip690)" d="M108.33 1431.53 Q104.719 1431.53 102.89 1435.1 Q101.084 1438.64 101.084 1445.77 Q101.084 1452.88 102.89 1456.44 Q104.719 1459.98 108.33 1459.98 Q111.964 1459.98 113.77 1456.44 Q115.598 1452.88 115.598 1445.77 Q115.598 1438.64 113.77 1435.1 Q111.964 1431.53 108.33 1431.53 M108.33 1427.83 Q114.14 1427.83 117.195 1432.44 Q120.274 1437.02 120.274 1445.77 Q120.274 1454.5 117.195 1459.1 Q114.14 1463.69 108.33 1463.69 Q102.52 1463.69 99.4409 1459.1 Q96.3854 1454.5 96.3854 1445.77 Q96.3854 1437.02 99.4409 1432.44 Q102.52 1427.83 108.33 1427.83 Z" fill="#000000" fill-rule="nonzero" fill-opacity="1" /><path clip-path="url(#clip690)" d="M63.7467 1150.42 Q60.1356 1150.42 58.3069 1153.98 Q56.5014 1157.53 56.5014 1164.66 Q56.5014 1171.76 58.3069 1175.33 Q60.1356 1178.87 63.7467 1178.87 Q67.3809 1178.87 69.1865 1175.33 Q71.0152 1171.76 71.0152 1164.66 Q71.0152 1157.53 69.1865 1153.98 Q67.3809 1150.42 63.7467 1150.42 M63.7467 1146.72 Q69.5568 1146.72 72.6124 1151.32 Q75.6911 1155.91 75.6911 1164.66 Q75.6911 1173.38 72.6124 1177.99 Q69.5568 1182.57 63.7467 1182.57 Q57.9365 1182.57 54.8578 1177.99 Q51.8023 1173.38 51.8023 1164.66 Q51.8023 1155.91 54.8578 1151.32 Q57.9365 1146.72 63.7467 1146.72 Z" fill="#000000" fill-rule="nonzero" fill-opacity="1" /><path clip-path="url(#clip690)" d="M83.9086 1176.02 L88.7928 1176.02 L88.7928 1181.9 L83.9086 1181.9 L83.9086 1176.02 Z" fill="#000000" fill-rule="nonzero" fill-opacity="1" /><path clip-path="url(#clip690)" d="M113.145 1163.27 Q116.501 1163.98 118.376 1166.25 Q120.274 1168.52 120.274 1171.85 Q120.274 1176.97 116.756 1179.77 Q113.237 1182.57 106.756 1182.57 Q104.58 1182.57 102.265 1182.13 Q99.9733 1181.72 97.5197 1180.86 L97.5197 1176.35 Q99.4641 1177.48 101.779 1178.06 Q104.094 1178.64 106.617 1178.64 Q111.015 1178.64 113.307 1176.9 Q115.621 1175.16 115.621 1171.85 Q115.621 1168.8 113.469 1167.09 Q111.339 1165.35 107.52 1165.35 L103.492 1165.35 L103.492 1161.51 L107.705 1161.51 Q111.154 1161.51 112.983 1160.14 Q114.811 1158.75 114.811 1156.16 Q114.811 1153.5 112.913 1152.09 Q111.038 1150.65 107.52 1150.65 Q105.598 1150.65 103.399 1151.07 Q101.2 1151.48 98.5613 1152.36 L98.5613 1148.2 Q101.223 1147.46 103.538 1147.09 Q105.876 1146.72 107.936 1146.72 Q113.26 1146.72 116.362 1149.15 Q119.464 1151.55 119.464 1155.67 Q119.464 1158.54 117.82 1160.54 Q116.177 1162.5 113.145 1163.27 Z" fill="#000000" fill-rule="nonzero" fill-opacity="1" /><path clip-path="url(#clip690)" d="M62.9365 869.306 Q59.3254 869.306 57.4967 872.871 Q55.6912 876.413 55.6912 883.543 Q55.6912 890.649 57.4967 894.214 Q59.3254 897.755 62.9365 897.755 Q66.5707 897.755 68.3763 894.214 Q70.205 890.649 70.205 883.543 Q70.205 876.413 68.3763 872.871 Q66.5707 869.306 62.9365 869.306 M62.9365 865.603 Q68.7467 865.603 71.8022 870.209 Q74.8809 874.793 74.8809 883.543 Q74.8809 892.269 71.8022 896.876 Q68.7467 901.459 62.9365 901.459 Q57.1264 901.459 54.0477 896.876 Q50.9921 892.269 50.9921 883.543 Q50.9921 874.793 54.0477 870.209 Q57.1264 865.603 62.9365 865.603 Z" fill="#000000" fill-rule="nonzero" fill-opacity="1" /><path clip-path="url(#clip690)" d="M83.0984 894.908 L87.9827 894.908 L87.9827 900.788 L83.0984 900.788 L83.0984 894.908 Z" fill="#000000" fill-rule="nonzero" fill-opacity="1" /><path clip-path="url(#clip690)" d="M108.746 881.644 Q105.598 881.644 103.746 883.797 Q101.918 885.95 101.918 889.7 Q101.918 893.427 103.746 895.603 Q105.598 897.755 108.746 897.755 Q111.895 897.755 113.723 895.603 Q115.575 893.427 115.575 889.7 Q115.575 885.95 113.723 883.797 Q111.895 881.644 108.746 881.644 M118.029 866.992 L118.029 871.251 Q116.27 870.418 114.464 869.978 Q112.682 869.538 110.922 869.538 Q106.293 869.538 103.839 872.663 Q101.409 875.788 101.061 882.107 Q102.427 880.093 104.487 879.029 Q106.547 877.941 109.024 877.941 Q114.233 877.941 117.242 881.112 Q120.274 884.26 120.274 889.7 Q120.274 895.024 117.126 898.242 Q113.978 901.459 108.746 901.459 Q102.751 901.459 99.5798 896.876 Q96.4085 892.269 96.4085 883.543 Q96.4085 875.348 100.297 870.487 Q104.186 865.603 110.737 865.603 Q112.496 865.603 114.279 865.95 Q116.084 866.297 118.029 866.992 Z" fill="#000000" fill-rule="nonzero" fill-opacity="1" /><path clip-path="url(#clip690)" d="M63.2837 588.193 Q59.6726 588.193 57.8439 591.758 Q56.0384 595.3 56.0384 602.429 Q56.0384 609.536 57.8439 613.101 Q59.6726 616.642 63.2837 616.642 Q66.918 616.642 68.7235 613.101 Q70.5522 609.536 70.5522 602.429 Q70.5522 595.3 68.7235 591.758 Q66.918 588.193 63.2837 588.193 M63.2837 584.49 Q69.0939 584.49 72.1494 589.096 Q75.2281 593.679 75.2281 602.429 Q75.2281 611.156 72.1494 615.763 Q69.0939 620.346 63.2837 620.346 Q57.4736 620.346 54.3949 615.763 Q51.3393 611.156 51.3393 602.429 Q51.3393 593.679 54.3949 589.096 Q57.4736 584.49 63.2837 584.49 Z" fill="#000000" fill-rule="nonzero" fill-opacity="1" /><path clip-path="url(#clip690)" d="M83.4457 613.795 L88.3299 613.795 L88.3299 619.675 L83.4457 619.675 L83.4457 613.795 Z" fill="#000000" fill-rule="nonzero" fill-opacity="1" /><path clip-path="url(#clip690)" d="M98.6539 618.957 L98.6539 614.698 Q100.413 615.531 102.219 615.971 Q104.024 616.411 105.76 616.411 Q110.39 616.411 112.82 613.309 Q115.274 610.184 115.621 603.841 Q114.279 605.832 112.219 606.897 Q110.158 607.962 107.658 607.962 Q102.473 607.962 99.4409 604.837 Q96.4317 601.689 96.4317 596.249 Q96.4317 590.925 99.5798 587.707 Q102.728 584.49 107.959 584.49 Q113.955 584.49 117.103 589.096 Q120.274 593.679 120.274 602.429 Q120.274 610.601 116.385 615.485 Q112.52 620.346 105.969 620.346 Q104.209 620.346 102.404 619.999 Q100.598 619.651 98.6539 618.957 M107.959 604.304 Q111.108 604.304 112.936 602.152 Q114.788 599.999 114.788 596.249 Q114.788 592.522 112.936 590.369 Q111.108 588.193 107.959 588.193 Q104.811 588.193 102.959 590.369 Q101.131 592.522 101.131 596.249 Q101.131 599.999 102.959 602.152 Q104.811 604.304 107.959 604.304 Z" fill="#000000" fill-rule="nonzero" fill-opacity="1" /><path clip-path="url(#clip690)" d="M55.506 334.626 L63.1448 334.626 L63.1448 308.261 L54.8347 309.927 L54.8347 305.668 L63.0985 304.001 L67.7744 304.001 L67.7744 334.626 L75.4133 334.626 L75.4133 338.561 L55.506 338.561 L55.506 334.626 Z" fill="#000000" fill-rule="nonzero" fill-opacity="1" /><path clip-path="url(#clip690)" d="M84.8577 332.682 L89.7419 332.682 L89.7419 338.561 L84.8577 338.561 L84.8577 332.682 Z" fill="#000000" fill-rule="nonzero" fill-opacity="1" /><path clip-path="url(#clip690)" d="M103.955 334.626 L120.274 334.626 L120.274 338.561 L98.3298 338.561 L98.3298 334.626 Q100.992 331.872 105.575 327.242 Q110.182 322.589 111.362 321.247 Q113.608 318.724 114.487 316.987 Q115.39 315.228 115.39 313.538 Q115.39 310.784 113.445 309.048 Q111.524 307.312 108.422 307.312 Q106.223 307.312 103.77 308.076 Q101.339 308.839 98.5613 310.39 L98.5613 305.668 Q101.385 304.534 103.839 303.955 Q106.293 303.376 108.33 303.376 Q113.7 303.376 116.895 306.062 Q120.089 308.747 120.089 313.238 Q120.089 315.367 119.279 317.288 Q118.492 319.187 116.385 321.779 Q115.807 322.45 112.705 325.668 Q109.603 328.862 103.955 334.626 Z" fill="#000000" fill-rule="nonzero" fill-opacity="1" /><polyline clip-path="url(#clip692)" style="stroke:#000000; stroke-linecap:round; stroke-linejoin:round; stroke-width:4; stroke-opacity:1; fill:none" points="1651.53,1445.51 1652.35,1445.51 1653.18,1445.49 1654,1445.46 1654.83,1445.4 1655.66,1445.32 1656.48,1445.22 1657.31,1445.09 1658.13,1444.92 1658.96,1444.71 1659.78,1444.44 1660.61,1444.11 1661.43,1443.7 1662.26,1443.21 1663.08,1442.6 1663.91,1441.87 1664.73,1440.98 1665.56,1439.93 1666.39,1438.66 1667.21,1437.17 1668.04,1435.4 1668.86,1433.32 1669.69,1430.9 1670.51,1428.08 1671.34,1424.82 1672.16,1421.06 1672.99,1416.77 1673.81,1411.87 1674.64,1406.33 1675.46,1400.08 1676.29,1393.08 1677.11,1385.26 1677.94,1376.59 1678.77,1367.02 1679.59,1356.52 1680.42,1345.05 1681.24,1332.59 1682.07,1319.14 1682.89,1304.69 1683.72,1289.26 1684.54,1272.87 1685.37,1255.57 1686.19,1237.4 1687.02,1218.44 1687.84,1198.77 1688.67,1178.5 1689.5,1157.72 1690.32,1136.57 1691.15,1115.18 1691.97,1093.69 1692.8,1072.25 1693.62,1051.02 1694.45,1030.14 1695.27,1009.76 1696.1,990.032 1696.92,971.086 1697.75,953.044 1698.57,936.011 1699.4,920.075 1700.22,905.301 1701.05,891.729 1701.88,879.373 1702.7,868.22 1703.53,858.23 1704.35,849.33 1705.18,841.422 1706,834.38 1706.83,828.052 1707.65,822.263 1708.48,816.818 1709.3,811.507 1710.13,806.107 1710.95,800.387 1711.78,794.117 1712.61,787.068 1713.43,779.019 1714.26,769.766 1715.08,759.12 1715.91,746.919 1716.73,733.029 1717.56,717.348 1718.38,699.809 1719.21,680.386 1720.03,659.088 1720.86,635.969 1721.68,611.12 1722.51,584.674 1723.33,556.797 1724.16,527.694 1724.99,497.596 1725.81,466.763 1726.64,435.475 1727.46,404.027 1728.29,372.722 1729.11,341.868 1729.94,311.771 1730.76,282.723 1731.59,255.007 1732.41,228.879 1733.24,204.575 1734.06,182.295 1734.89,162.21 1735.72,144.45 1736.54,129.107 1737.37,116.235 1738.19,105.844 1739.02,97.906 1739.84,92.3552 1740.67,89.0898 1741.49,87.9763 1742.32,88.8533 1743.14,91.5368 1743.97,95.8252 1744.79,101.506 1745.62,108.36 1746.45,116.171 1747.27,124.727 1748.1,133.833 1748.92,143.309 1749.75,153.001 1750.57,162.783 1751.4,172.559 1752.22,182.269 1753.05,191.888 1753.87,201.428 1754.7,210.936 1755.52,220.493 1756.35,230.211 1757.17,240.229 1758,250.708 1758.83,261.827 1759.65,273.775 1760.48,286.746 1761.3,300.93 1762.13,316.51 1762.95,333.655 1763.78,352.509 1764.6,373.193 1765.43,395.795 1766.25,420.37 1767.08,446.935 1767.9,475.47 1768.73,505.914 1769.56,538.17 1770.38,572.104 1771.21,607.551 1772.03,644.313 1772.86,682.171 1773.68,720.883 1774.51,760.196 1775.33,799.845 1776.16,839.564 1776.98,879.089 1777.81,918.163 1778.63,956.542 1779.46,994 1780.28,1030.33 1781.11,1065.34 1781.94,1098.89 1782.76,1130.83 1783.59,1161.07 1784.41,1189.52 1785.24,1216.13 1786.06,1240.89 1786.89,1263.78 1787.71,1284.83 1788.54,1304.08 1789.36,1321.58 1790.19,1337.41 1791.01,1351.65 1791.84,1364.38 1792.67,1375.71 1793.49,1385.74 1794.32,1394.56 1795.14,1402.28 1795.97,1409.01 1796.79,1414.84 1797.62,1419.86 1798.44,1424.16 1799.27,1427.83 1800.09,1430.95 1800.92,1433.58 1801.74,1435.79 1802.57,1437.63 1803.4,1439.16 1804.22,1440.43 1805.05,1441.47 1805.87,1442.32 1806.7,1443.02 1807.52,1443.58 1808.35,1444.03 1809.17,1444.4 1810,1444.69 1810.82,1444.91 1811.65,1445.09 1812.47,1445.23 1813.3,1445.33 1814.12,1445.41 1814.95,1445.46 1815.78,1445.5 "/>
<polyline clip-path="url(#clip692)" style="stroke:#ff0000; stroke-linecap:round; stroke-linejoin:round; stroke-width:4; stroke-opacity:1; fill:none" points="218.439,1445.71 228.852,1445.71 239.264,1445.71 249.677,1445.7 260.09,1445.7 270.503,1445.69 280.916,1445.67 291.329,1445.66 301.741,1445.64 312.154,1445.62 322.567,1445.59 332.98,1445.55 343.393,1445.51 353.805,1445.46 364.218,1445.39 374.631,1445.32 385.044,1445.23 395.457,1445.12 405.87,1444.99 416.282,1444.84 426.695,1444.66 437.108,1444.45 447.521,1444.2 457.934,1443.91 468.347,1443.58 478.759,1443.2 489.172,1442.76 499.585,1442.26 509.998,1441.7 520.411,1441.05 530.824,1440.33 541.236,1439.51 551.649,1438.6 562.062,1437.59 572.475,1436.47 582.888,1435.23 593.301,1433.87 603.713,1432.39 614.126,1430.78 624.539,1429.03 634.952,1427.15 645.365,1425.14 655.777,1422.98 666.19,1420.7 676.603,1418.28 687.016,1415.74 697.429,1413.07 707.842,1410.29 718.254,1407.42 728.667,1404.45 739.08,1401.4 749.493,1398.28 759.906,1395.12 770.319,1391.92 780.731,1388.71 791.144,1385.5 801.557,1382.3 811.97,1379.15 822.383,1376.05 832.796,1373.03 843.208,1370.1 853.621,1367.28 864.034,1364.59 874.447,1362.04 884.86,1359.63 895.272,1357.4 905.685,1355.34 916.098,1353.47 926.511,1351.78 936.924,1350.3 947.337,1349.01 957.749,1347.93 968.162,1347.05 978.575,1346.37 988.988,1345.88 999.401,1345.6 1009.81,1345.49 1020.23,1345.57 1030.64,1345.82 1041.05,1346.24 1051.46,1346.81 1061.88,1347.52 1072.29,1348.36 1082.7,1349.32 1093.12,1350.38 1103.53,1351.54 1113.94,1352.77 1124.35,1354.06 1134.77,1355.4 1145.18,1356.76 1155.59,1358.15 1166.01,1359.53 1176.42,1360.89 1186.83,1362.23 1197.24,1363.51 1207.66,1364.73 1218.07,1365.88 1228.48,1366.93 1238.9,1367.88 1249.31,1368.72 1259.72,1369.44 1270.13,1370.04 1280.55,1370.49 1290.96,1370.82 1301.37,1371 1311.79,1371.06 1322.2,1370.98 1332.61,1370.78 1343.02,1370.46 1353.44,1370.04 1363.85,1369.52 1374.26,1368.93 1384.68,1368.29 1395.09,1367.6 1405.5,1366.89 1415.91,1366.18 1426.33,1365.49 1436.74,1364.84 1447.15,1364.26 1457.57,1363.76 1467.98,1363.36 1478.39,1363.08 1488.8,1362.93 1499.22,1362.94 1509.63,1363.12 1520.04,1363.46 1530.45,1364 1540.87,1364.72 1551.28,1365.63 1561.69,1366.74 1572.11,1368.04 1582.52,1369.52 1592.93,1371.18 1603.34,1373.02 1613.76,1375.01 1624.17,1377.16 1634.58,1379.43 1645,1381.83 1655.41,1384.32 1665.82,1386.9 1676.23,1389.55 1686.65,1392.25 1697.06,1394.98 1707.47,1397.72 1717.89,1400.46 1728.3,1403.18 1738.71,1405.87 1749.12,1408.5 1759.54,1411.08 1769.95,1413.59 1780.36,1416.01 1790.78,1418.34 1801.19,1420.58 1811.6,1422.71 1822.01,1424.73 1832.43,1426.63 1842.84,1428.43 1853.25,1430.11 1863.67,1431.67 1874.08,1433.12 1884.49,1434.46 1894.9,1435.69 1905.32,1436.82 1915.73,1437.85 1926.14,1438.79 1936.56,1439.64 1946.97,1440.4 1957.38,1441.08 1967.79,1441.69 1978.21,1442.23 1988.62,1442.71 1999.03,1443.14 2009.44,1443.51 2019.86,1443.84 2030.27,1444.12 2040.68,1444.37 2051.1,1444.58 2061.51,1444.76 2071.92,1444.92 2082.33,1445.06 2092.75,1445.17 2103.16,1445.27 2113.57,1445.35 2123.99,1445.42 2134.4,1445.47 2144.81,1445.52 2155.22,1445.56 2165.64,1445.59 2176.05,1445.62 2186.46,1445.64 2196.88,1445.66 2207.29,1445.68 2217.7,1445.69 2228.11,1445.7 2238.53,1445.7 2248.94,1445.71 2259.35,1445.71 2269.77,1445.71 2280.18,1445.72 2290.59,1445.72 "/>
<path clip-path="url(#clip690)" d="M2036.7 250.738 L2279.54 250.738 L2279.54 95.2176 L2036.7 95.2176  Z" fill="#ffffff" fill-rule="evenodd" fill-opacity="1"/>
<polyline clip-path="url(#clip690)" style="stroke:#000000; stroke-linecap:round; stroke-linejoin:round; stroke-width:4; stroke-opacity:1; fill:none" points="2036.7,250.738 2279.54,250.738 2279.54,95.2176 2036.7,95.2176 2036.7,250.738 "/>
<polyline clip-path="url(#clip690)" style="stroke:#000000; stroke-linecap:round; stroke-linejoin:round; stroke-width:4; stroke-opacity:1; fill:none" points="2061.1,147.058 2207.53,147.058 "/>
<path clip-path="url(#clip690)" d="M2250.71 151.398 Q2250.71 146.699 2248.77 144.037 Q2246.85 141.352 2243.47 141.352 Q2240.09 141.352 2238.14 144.037 Q2236.22 146.699 2236.22 151.398 Q2236.22 156.097 2238.14 158.782 Q2240.09 161.444 2243.47 161.444 Q2246.85 161.444 2248.77 158.782 Q2250.71 156.097 2250.71 151.398 M2236.22 142.347 Q2237.57 140.032 2239.6 138.921 Q2241.66 137.787 2244.51 137.787 Q2249.23 137.787 2252.17 141.537 Q2255.13 145.287 2255.13 151.398 Q2255.13 157.509 2252.17 161.259 Q2249.23 165.009 2244.51 165.009 Q2241.66 165.009 2239.6 163.898 Q2237.57 162.763 2236.22 160.449 L2236.22 164.338 L2231.94 164.338 L2231.94 128.319 L2236.22 128.319 L2236.22 142.347 Z" fill="#000000" fill-rule="nonzero" fill-opacity="1" /><polyline clip-path="url(#clip690)" style="stroke:#ff0000; stroke-linecap:round; stroke-linejoin:round; stroke-width:4; stroke-opacity:1; fill:none" points="2061.1,198.898 2207.53,198.898 "/>
<path clip-path="url(#clip690)" d="M2252.45 191.247 L2252.45 195.229 Q2250.64 194.233 2248.82 193.747 Q2247.01 193.238 2245.16 193.238 Q2241.01 193.238 2238.72 195.877 Q2236.43 198.492 2236.43 203.238 Q2236.43 207.983 2238.72 210.622 Q2241.01 213.238 2245.16 213.238 Q2247.01 213.238 2248.82 212.752 Q2250.64 212.242 2252.45 211.247 L2252.45 215.182 Q2250.67 216.016 2248.75 216.432 Q2246.85 216.849 2244.69 216.849 Q2238.84 216.849 2235.39 213.168 Q2231.94 209.488 2231.94 203.238 Q2231.94 196.895 2235.41 193.261 Q2238.91 189.627 2244.97 189.627 Q2246.94 189.627 2248.82 190.043 Q2250.69 190.437 2252.45 191.247 Z" fill="#000000" fill-rule="nonzero" fill-opacity="1" /></svg>
