<?xml version="1.0" encoding="utf-8"?>
<svg xmlns="http://www.w3.org/2000/svg" xmlns:xlink="http://www.w3.org/1999/xlink" width="600" height="400" viewBox="0 0 2400 1600">
<defs>
  <clipPath id="clip510">
    <rect x="0" y="0" width="2400" height="1600"/>
  </clipPath>
</defs>
<path clip-path="url(#clip510)" d="M0 1600 L2400 1600 L2400 0 L0 0  Z" fill="#ffffff" fill-rule="evenodd" fill-opacity="1"/>
<defs>
  <clipPath id="clip511">
    <rect x="480" y="0" width="1681" height="1600"/>
  </clipPath>
</defs>
<path clip-path="url(#clip510)" d="M156.598 1486.45 L2352.76 1486.45 L2352.76 47.2441 L156.598 47.2441  Z" fill="#ffffff" fill-rule="evenodd" fill-opacity="1"/>
<defs>
  <clipPath id="clip512">
    <rect x="156" y="47" width="2197" height="1440"/>
  </clipPath>
</defs>
<polyline clip-path="url(#clip512)" style="stroke:#000000; stroke-linecap:round; stroke-linejoin:round; stroke-width:2; stroke-opacity:0.1; fill:none" points="448.959,1486.45 448.959,47.2441 "/>
<polyline clip-path="url(#clip512)" style="stroke:#000000; stroke-linecap:round; stroke-linejoin:round; stroke-width:2; stroke-opacity:0.1; fill:none" points="909.369,1486.45 909.369,47.2441 "/>
<polyline clip-path="url(#clip512)" style="stroke:#000000; stroke-linecap:round; stroke-linejoin:round; stroke-width:2; stroke-opacity:0.1; fill:none" points="1369.78,1486.45 1369.78,47.2441 "/>
<polyline clip-path="url(#clip512)" style="stroke:#000000; stroke-linecap:round; stroke-linejoin:round; stroke-width:2; stroke-opacity:0.1; fill:none" points="1830.19,1486.45 1830.19,47.2441 "/>
<polyline clip-path="url(#clip512)" style="stroke:#000000; stroke-linecap:round; stroke-linejoin:round; stroke-width:2; stroke-opacity:0.1; fill:none" points="2290.6,1486.45 2290.6,47.2441 "/>
<polyline clip-path="url(#clip510)" style="stroke:#000000; stroke-linecap:round; stroke-linejoin:round; stroke-width:4; stroke-opacity:1; fill:none" points="156.598,1486.45 2352.76,1486.45 "/>
<polyline clip-path="url(#clip510)" style="stroke:#000000; stroke-linecap:round; stroke-linejoin:round; stroke-width:4; stroke-opacity:1; fill:none" points="448.959,1486.45 448.959,1467.55 "/>
<polyline clip-path="url(#clip510)" style="stroke:#000000; stroke-linecap:round; stroke-linejoin:round; stroke-width:4; stroke-opacity:1; fill:none" points="909.369,1486.45 909.369,1467.55 "/>
<polyline clip-path="url(#clip510)" style="stroke:#000000; stroke-linecap:round; stroke-linejoin:round; stroke-width:4; stroke-opacity:1; fill:none" points="1369.78,1486.45 1369.78,1467.55 "/>
<polyline clip-path="url(#clip510)" style="stroke:#000000; stroke-linecap:round; stroke-linejoin:round; stroke-width:4; stroke-opacity:1; fill:none" points="1830.19,1486.45 1830.19,1467.55 "/>
<polyline clip-path="url(#clip510)" style="stroke:#000000; stroke-linecap:round; stroke-linejoin:round; stroke-width:4; stroke-opacity:1; fill:none" points="2290.6,1486.45 2290.6,1467.55 "/>
<path clip-path="url(#clip510)" d="M443.612 1544.91 L459.931 1544.91 L459.931 1548.85 L437.987 1548.85 L437.987 1544.91 Q440.649 1542.16 445.232 1537.53 Q449.838 1532.88 451.019 1531.53 Q453.264 1529.01 454.144 1527.27 Q455.047 1525.51 455.047 1523.82 Q455.047 1521.07 453.102 1519.33 Q451.181 1517.6 448.079 1517.6 Q445.88 1517.6 443.426 1518.36 Q440.996 1519.13 438.218 1520.68 L438.218 1515.95 Q441.042 1514.82 443.496 1514.24 Q445.95 1513.66 447.987 1513.66 Q453.357 1513.66 456.551 1516.35 Q459.746 1519.03 459.746 1523.52 Q459.746 1525.65 458.936 1527.57 Q458.149 1529.47 456.042 1532.07 Q455.463 1532.74 452.362 1535.95 Q449.26 1539.15 443.612 1544.91 Z" fill="#000000" fill-rule="nonzero" fill-opacity="1" /><path clip-path="url(#clip510)" d="M912.379 1518.36 L900.573 1536.81 L912.379 1536.81 L912.379 1518.36 M911.152 1514.29 L917.031 1514.29 L917.031 1536.81 L921.962 1536.81 L921.962 1540.7 L917.031 1540.7 L917.031 1548.85 L912.379 1548.85 L912.379 1540.7 L896.777 1540.7 L896.777 1536.19 L911.152 1514.29 Z" fill="#000000" fill-rule="nonzero" fill-opacity="1" /><path clip-path="url(#clip510)" d="M1370.18 1529.7 Q1367.04 1529.7 1365.18 1531.86 Q1363.36 1534.01 1363.36 1537.76 Q1363.36 1541.49 1365.18 1543.66 Q1367.04 1545.82 1370.18 1545.82 Q1373.33 1545.82 1375.16 1543.66 Q1377.01 1541.49 1377.01 1537.76 Q1377.01 1534.01 1375.16 1531.86 Q1373.33 1529.7 1370.18 1529.7 M1379.47 1515.05 L1379.47 1519.31 Q1377.71 1518.48 1375.9 1518.04 Q1374.12 1517.6 1372.36 1517.6 Q1367.73 1517.6 1365.28 1520.72 Q1362.85 1523.85 1362.5 1530.17 Q1363.87 1528.15 1365.93 1527.09 Q1367.99 1526 1370.46 1526 Q1375.67 1526 1378.68 1529.17 Q1381.71 1532.32 1381.71 1537.76 Q1381.71 1543.08 1378.56 1546.3 Q1375.42 1549.52 1370.18 1549.52 Q1364.19 1549.52 1361.02 1544.94 Q1357.85 1540.33 1357.85 1531.6 Q1357.85 1523.41 1361.74 1518.55 Q1365.62 1513.66 1372.18 1513.66 Q1373.93 1513.66 1375.72 1514.01 Q1377.52 1514.36 1379.47 1515.05 Z" fill="#000000" fill-rule="nonzero" fill-opacity="1" /><path clip-path="url(#clip510)" d="M1830.19 1532.44 Q1826.86 1532.44 1824.94 1534.22 Q1823.04 1536 1823.04 1539.13 Q1823.04 1542.25 1824.94 1544.03 Q1826.86 1545.82 1830.19 1545.82 Q1833.52 1545.82 1835.44 1544.03 Q1837.37 1542.23 1837.37 1539.13 Q1837.37 1536 1835.44 1534.22 Q1833.55 1532.44 1830.19 1532.44 M1825.51 1530.45 Q1822.5 1529.7 1820.82 1527.64 Q1819.15 1525.58 1819.15 1522.62 Q1819.15 1518.48 1822.09 1516.07 Q1825.05 1513.66 1830.19 1513.66 Q1835.35 1513.66 1838.29 1516.07 Q1841.23 1518.48 1841.23 1522.62 Q1841.23 1525.58 1839.54 1527.64 Q1837.88 1529.7 1834.89 1530.45 Q1838.27 1531.23 1840.14 1533.52 Q1842.04 1535.82 1842.04 1539.13 Q1842.04 1544.15 1838.96 1546.83 Q1835.91 1549.52 1830.19 1549.52 Q1824.47 1549.52 1821.39 1546.83 Q1818.34 1544.15 1818.34 1539.13 Q1818.34 1535.82 1820.24 1533.52 Q1822.13 1531.23 1825.51 1530.45 M1823.8 1523.06 Q1823.8 1525.75 1825.47 1527.25 Q1827.16 1528.76 1830.19 1528.76 Q1833.2 1528.76 1834.89 1527.25 Q1836.6 1525.75 1836.6 1523.06 Q1836.6 1520.38 1834.89 1518.87 Q1833.2 1517.37 1830.19 1517.37 Q1827.16 1517.37 1825.47 1518.87 Q1823.8 1520.38 1823.8 1523.06 Z" fill="#000000" fill-rule="nonzero" fill-opacity="1" /><path clip-path="url(#clip510)" d="M2265.29 1544.91 L2272.93 1544.91 L2272.93 1518.55 L2264.62 1520.21 L2264.62 1515.95 L2272.88 1514.29 L2277.56 1514.29 L2277.56 1544.91 L2285.2 1544.91 L2285.2 1548.85 L2265.29 1548.85 L2265.29 1544.91 Z" fill="#000000" fill-rule="nonzero" fill-opacity="1" /><path clip-path="url(#clip510)" d="M2304.64 1517.37 Q2301.03 1517.37 2299.2 1520.93 Q2297.39 1524.47 2297.39 1531.6 Q2297.39 1538.71 2299.2 1542.27 Q2301.03 1545.82 2304.64 1545.82 Q2308.27 1545.82 2310.08 1542.27 Q2311.91 1538.71 2311.91 1531.6 Q2311.91 1524.47 2310.08 1520.93 Q2308.27 1517.37 2304.64 1517.37 M2304.64 1513.66 Q2310.45 1513.66 2313.51 1518.27 Q2316.58 1522.85 2316.58 1531.6 Q2316.58 1540.33 2313.51 1544.94 Q2310.45 1549.52 2304.64 1549.52 Q2298.83 1549.52 2295.75 1544.94 Q2292.7 1540.33 2292.7 1531.6 Q2292.7 1522.85 2295.75 1518.27 Q2298.83 1513.66 2304.64 1513.66 Z" fill="#000000" fill-rule="nonzero" fill-opacity="1" /><polyline clip-path="url(#clip512)" style="stroke:#000000; stroke-linecap:round; stroke-linejoin:round; stroke-width:2; stroke-opacity:0.1; fill:none" points="156.598,1342.78 2352.76,1342.78 "/>
<polyline clip-path="url(#clip512)" style="stroke:#000000; stroke-linecap:round; stroke-linejoin:round; stroke-width:2; stroke-opacity:0.1; fill:none" points="156.598,1119.25 2352.76,1119.25 "/>
<polyline clip-path="url(#clip512)" style="stroke:#000000; stroke-linecap:round; stroke-linejoin:round; stroke-width:2; stroke-opacity:0.1; fill:none" points="156.598,895.71 2352.76,895.71 "/>
<polyline clip-path="url(#clip512)" style="stroke:#000000; stroke-linecap:round; stroke-linejoin:round; stroke-width:2; stroke-opacity:0.1; fill:none" points="156.598,672.174 2352.76,672.174 "/>
<polyline clip-path="url(#clip512)" style="stroke:#000000; stroke-linecap:round; stroke-linejoin:round; stroke-width:2; stroke-opacity:0.1; fill:none" points="156.598,448.639 2352.76,448.639 "/>
<polyline clip-path="url(#clip512)" style="stroke:#000000; stroke-linecap:round; stroke-linejoin:round; stroke-width:2; stroke-opacity:0.1; fill:none" points="156.598,225.103 2352.76,225.103 "/>
<polyline clip-path="url(#clip510)" style="stroke:#000000; stroke-linecap:round; stroke-linejoin:round; stroke-width:4; stroke-opacity:1; fill:none" points="156.598,1486.45 156.598,47.2441 "/>
<polyline clip-path="url(#clip510)" style="stroke:#000000; stroke-linecap:round; stroke-linejoin:round; stroke-width:4; stroke-opacity:1; fill:none" points="156.598,1342.78 175.496,1342.78 "/>
<polyline clip-path="url(#clip510)" style="stroke:#000000; stroke-linecap:round; stroke-linejoin:round; stroke-width:4; stroke-opacity:1; fill:none" points="156.598,1119.25 175.496,1119.25 "/>
<polyline clip-path="url(#clip510)" style="stroke:#000000; stroke-linecap:round; stroke-linejoin:round; stroke-width:4; stroke-opacity:1; fill:none" points="156.598,895.71 175.496,895.71 "/>
<polyline clip-path="url(#clip510)" style="stroke:#000000; stroke-linecap:round; stroke-linejoin:round; stroke-width:4; stroke-opacity:1; fill:none" points="156.598,672.174 175.496,672.174 "/>
<polyline clip-path="url(#clip510)" style="stroke:#000000; stroke-linecap:round; stroke-linejoin:round; stroke-width:4; stroke-opacity:1; fill:none" points="156.598,448.639 175.496,448.639 "/>
<polyline clip-path="url(#clip510)" style="stroke:#000000; stroke-linecap:round; stroke-linejoin:round; stroke-width:4; stroke-opacity:1; fill:none" points="156.598,225.103 175.496,225.103 "/>
<path clip-path="url(#clip510)" d="M65.0198 1328.58 Q61.4087 1328.58 59.58 1332.15 Q57.7745 1335.69 57.7745 1342.82 Q57.7745 1349.92 59.58 1353.49 Q61.4087 1357.03 65.0198 1357.03 Q68.6541 1357.03 70.4596 1353.49 Q72.2883 1349.92 72.2883 1342.82 Q72.2883 1335.69 70.4596 1332.15 Q68.6541 1328.58 65.0198 1328.58 M65.0198 1324.88 Q70.83 1324.88 73.8855 1329.48 Q76.9642 1334.07 76.9642 1342.82 Q76.9642 1351.54 73.8855 1356.15 Q70.83 1360.73 65.0198 1360.73 Q59.2097 1360.73 56.131 1356.15 Q53.0754 1351.54 53.0754 1342.82 Q53.0754 1334.07 56.131 1329.48 Q59.2097 1324.88 65.0198 1324.88 Z" fill="#000000" fill-rule="nonzero" fill-opacity="1" /><path clip-path="url(#clip510)" d="M85.1818 1354.18 L90.066 1354.18 L90.066 1360.06 L85.1818 1360.06 L85.1818 1354.18 Z" fill="#000000" fill-rule="nonzero" fill-opacity="1" /><path clip-path="url(#clip510)" d="M104.279 1356.13 L120.598 1356.13 L120.598 1360.06 L98.6539 1360.06 L98.6539 1356.13 Q101.316 1353.37 105.899 1348.74 Q110.506 1344.09 111.686 1342.75 Q113.932 1340.22 114.811 1338.49 Q115.714 1336.73 115.714 1335.04 Q115.714 1332.28 113.77 1330.55 Q111.848 1328.81 108.746 1328.81 Q106.547 1328.81 104.094 1329.58 Q101.663 1330.34 98.8854 1331.89 L98.8854 1327.17 Q101.709 1326.03 104.163 1325.46 Q106.617 1324.88 108.654 1324.88 Q114.024 1324.88 117.219 1327.56 Q120.413 1330.25 120.413 1334.74 Q120.413 1336.87 119.603 1338.79 Q118.816 1340.69 116.709 1343.28 Q116.131 1343.95 113.029 1347.17 Q109.927 1350.36 104.279 1356.13 Z" fill="#000000" fill-rule="nonzero" fill-opacity="1" /><path clip-path="url(#clip510)" d="M64.0708 1105.05 Q60.4597 1105.05 58.631 1108.61 Q56.8254 1112.15 56.8254 1119.28 Q56.8254 1126.39 58.631 1129.95 Q60.4597 1133.49 64.0708 1133.49 Q67.705 1133.49 69.5105 1129.95 Q71.3392 1126.39 71.3392 1119.28 Q71.3392 1112.15 69.5105 1108.61 Q67.705 1105.05 64.0708 1105.05 M64.0708 1101.34 Q69.8809 1101.34 72.9365 1105.95 Q76.0151 1110.53 76.0151 1119.28 Q76.0151 1128.01 72.9365 1132.61 Q69.8809 1137.2 64.0708 1137.2 Q58.2606 1137.2 55.1819 1132.61 Q52.1264 1128.01 52.1264 1119.28 Q52.1264 1110.53 55.1819 1105.95 Q58.2606 1101.34 64.0708 1101.34 Z" fill="#000000" fill-rule="nonzero" fill-opacity="1" /><path clip-path="url(#clip510)" d="M84.2327 1130.65 L89.1169 1130.65 L89.1169 1136.53 L84.2327 1136.53 L84.2327 1130.65 Z" fill="#000000" fill-rule="nonzero" fill-opacity="1" /><path clip-path="url(#clip510)" d="M113.469 1117.89 Q116.825 1118.61 118.7 1120.88 Q120.598 1123.15 120.598 1126.48 Q120.598 1131.6 117.08 1134.4 Q113.561 1137.2 107.08 1137.2 Q104.904 1137.2 102.589 1136.76 Q100.297 1136.34 97.8437 1135.48 L97.8437 1130.97 Q99.7882 1132.11 102.103 1132.68 Q104.418 1133.26 106.941 1133.26 Q111.339 1133.26 113.631 1131.53 Q115.945 1129.79 115.945 1126.48 Q115.945 1123.42 113.793 1121.71 Q111.663 1119.98 107.844 1119.98 L103.816 1119.98 L103.816 1116.13 L108.029 1116.13 Q111.478 1116.13 113.307 1114.77 Q115.135 1113.38 115.135 1110.79 Q115.135 1108.12 113.237 1106.71 Q111.362 1105.28 107.844 1105.28 Q105.922 1105.28 103.723 1105.69 Q101.524 1106.11 98.8854 1106.99 L98.8854 1102.82 Q101.547 1102.08 103.862 1101.71 Q106.2 1101.34 108.26 1101.34 Q113.584 1101.34 116.686 1103.77 Q119.788 1106.18 119.788 1110.3 Q119.788 1113.17 118.145 1115.16 Q116.501 1117.13 113.469 1117.89 Z" fill="#000000" fill-rule="nonzero" fill-opacity="1" /><path clip-path="url(#clip510)" d="M62.9365 881.509 Q59.3254 881.509 57.4967 885.074 Q55.6912 888.616 55.6912 895.745 Q55.6912 902.852 57.4967 906.416 Q59.3254 909.958 62.9365 909.958 Q66.5707 909.958 68.3763 906.416 Q70.205 902.852 70.205 895.745 Q70.205 888.616 68.3763 885.074 Q66.5707 881.509 62.9365 881.509 M62.9365 877.805 Q68.7467 877.805 71.8022 882.412 Q74.8809 886.995 74.8809 895.745 Q74.8809 904.472 71.8022 909.078 Q68.7467 913.662 62.9365 913.662 Q57.1264 913.662 54.0477 909.078 Q50.9921 904.472 50.9921 895.745 Q50.9921 886.995 54.0477 882.412 Q57.1264 877.805 62.9365 877.805 Z" fill="#000000" fill-rule="nonzero" fill-opacity="1" /><path clip-path="url(#clip510)" d="M83.0984 907.111 L87.9827 907.111 L87.9827 912.99 L83.0984 912.99 L83.0984 907.111 Z" fill="#000000" fill-rule="nonzero" fill-opacity="1" /><path clip-path="url(#clip510)" d="M111.015 882.504 L99.2095 900.953 L111.015 900.953 L111.015 882.504 M109.788 878.43 L115.668 878.43 L115.668 900.953 L120.598 900.953 L120.598 904.842 L115.668 904.842 L115.668 912.99 L111.015 912.99 L111.015 904.842 L95.4132 904.842 L95.4132 900.328 L109.788 878.43 Z" fill="#000000" fill-rule="nonzero" fill-opacity="1" /><path clip-path="url(#clip510)" d="M64.418 657.973 Q60.8069 657.973 58.9782 661.538 Q57.1726 665.08 57.1726 672.209 Q57.1726 679.316 58.9782 682.88 Q60.8069 686.422 64.418 686.422 Q68.0522 686.422 69.8578 682.88 Q71.6865 679.316 71.6865 672.209 Q71.6865 665.08 69.8578 661.538 Q68.0522 657.973 64.418 657.973 M64.418 654.27 Q70.2281 654.27 73.2837 658.876 Q76.3624 663.459 76.3624 672.209 Q76.3624 680.936 73.2837 685.542 Q70.2281 690.126 64.418 690.126 Q58.6078 690.126 55.5291 685.542 Q52.4736 680.936 52.4736 672.209 Q52.4736 663.459 55.5291 658.876 Q58.6078 654.27 64.418 654.27 Z" fill="#000000" fill-rule="nonzero" fill-opacity="1" /><path clip-path="url(#clip510)" d="M84.5799 683.575 L89.4641 683.575 L89.4641 689.454 L84.5799 689.454 L84.5799 683.575 Z" fill="#000000" fill-rule="nonzero" fill-opacity="1" /><path clip-path="url(#clip510)" d="M99.6956 654.894 L118.052 654.894 L118.052 658.83 L103.978 658.83 L103.978 667.302 Q104.996 666.955 106.015 666.793 Q107.033 666.607 108.052 666.607 Q113.839 666.607 117.219 669.779 Q120.598 672.95 120.598 678.367 Q120.598 683.945 117.126 687.047 Q113.654 690.126 107.334 690.126 Q105.159 690.126 102.89 689.755 Q100.645 689.385 98.2372 688.644 L98.2372 683.945 Q100.321 685.08 102.543 685.635 Q104.765 686.191 107.242 686.191 Q111.246 686.191 113.584 684.084 Q115.922 681.978 115.922 678.367 Q115.922 674.756 113.584 672.649 Q111.246 670.543 107.242 670.543 Q105.367 670.543 103.492 670.959 Q101.64 671.376 99.6956 672.256 L99.6956 654.894 Z" fill="#000000" fill-rule="nonzero" fill-opacity="1" /><path clip-path="url(#clip510)" d="M63.2606 434.437 Q59.6495 434.437 57.8208 438.002 Q56.0152 441.544 56.0152 448.673 Q56.0152 455.78 57.8208 459.345 Q59.6495 462.886 63.2606 462.886 Q66.8948 462.886 68.7004 459.345 Q70.5291 455.78 70.5291 448.673 Q70.5291 441.544 68.7004 438.002 Q66.8948 434.437 63.2606 434.437 M63.2606 430.734 Q69.0707 430.734 72.1263 435.34 Q75.205 439.923 75.205 448.673 Q75.205 457.4 72.1263 462.007 Q69.0707 466.59 63.2606 466.59 Q57.4504 466.59 54.3717 462.007 Q51.3162 457.4 51.3162 448.673 Q51.3162 439.923 54.3717 435.34 Q57.4504 430.734 63.2606 430.734 Z" fill="#000000" fill-rule="nonzero" fill-opacity="1" /><path clip-path="url(#clip510)" d="M83.4225 460.039 L88.3067 460.039 L88.3067 465.919 L83.4225 465.919 L83.4225 460.039 Z" fill="#000000" fill-rule="nonzero" fill-opacity="1" /><path clip-path="url(#clip510)" d="M109.071 446.775 Q105.922 446.775 104.071 448.928 Q102.242 451.081 102.242 454.831 Q102.242 458.558 104.071 460.733 Q105.922 462.886 109.071 462.886 Q112.219 462.886 114.047 460.733 Q115.899 458.558 115.899 454.831 Q115.899 451.081 114.047 448.928 Q112.219 446.775 109.071 446.775 M118.353 432.122 L118.353 436.382 Q116.594 435.548 114.788 435.109 Q113.006 434.669 111.246 434.669 Q106.617 434.669 104.163 437.794 Q101.733 440.919 101.385 447.238 Q102.751 445.224 104.811 444.159 Q106.871 443.071 109.348 443.071 Q114.557 443.071 117.566 446.243 Q120.598 449.391 120.598 454.831 Q120.598 460.155 117.45 463.372 Q114.302 466.59 109.071 466.59 Q103.075 466.59 99.9039 462.007 Q96.7326 457.4 96.7326 448.673 Q96.7326 440.479 100.621 435.618 Q104.51 430.734 111.061 430.734 Q112.82 430.734 114.603 431.081 Q116.408 431.428 118.353 432.122 Z" fill="#000000" fill-rule="nonzero" fill-opacity="1" /><path clip-path="url(#clip510)" d="M64.3254 210.901 Q60.7143 210.901 58.8856 214.466 Q57.0801 218.008 57.0801 225.137 Q57.0801 232.244 58.8856 235.809 Q60.7143 239.35 64.3254 239.35 Q67.9596 239.35 69.7652 235.809 Q71.5939 232.244 71.5939 225.137 Q71.5939 218.008 69.7652 214.466 Q67.9596 210.901 64.3254 210.901 M64.3254 207.198 Q70.1355 207.198 73.1911 211.804 Q76.2698 216.387 76.2698 225.137 Q76.2698 233.864 73.1911 238.471 Q70.1355 243.054 64.3254 243.054 Q58.5152 243.054 55.4365 238.471 Q52.381 233.864 52.381 225.137 Q52.381 216.387 55.4365 211.804 Q58.5152 207.198 64.3254 207.198 Z" fill="#000000" fill-rule="nonzero" fill-opacity="1" /><path clip-path="url(#clip510)" d="M84.4873 236.503 L89.3715 236.503 L89.3715 242.383 L84.4873 242.383 L84.4873 236.503 Z" fill="#000000" fill-rule="nonzero" fill-opacity="1" /><path clip-path="url(#clip510)" d="M98.3761 207.823 L120.598 207.823 L120.598 209.813 L108.052 242.383 L103.168 242.383 L114.973 211.758 L98.3761 211.758 L98.3761 207.823 Z" fill="#000000" fill-rule="nonzero" fill-opacity="1" /><path clip-path="url(#clip512)" d="M218.754 87.9763 L448.959 392.244 L679.164 91.6542 L909.369 1445.72 L1139.57 381.367 L1369.78 1383.04 L1599.98 605.516 L1830.19 752.64 L2060.4 1239.07 L2290.6 838.42 L2290.6 672.174 L2060.4 672.174 L1830.19 672.174 L1599.98 672.174 L1369.78 672.174 L1139.57 672.174 L909.369 672.174 L679.164 672.174 L448.959 672.174 L218.754 672.174  Z" fill="#009af9" fill-rule="evenodd" fill-opacity="1"/>
<polyline clip-path="url(#clip512)" style="stroke:#009af9; stroke-linecap:round; stroke-linejoin:round; stroke-width:4; stroke-opacity:1; fill:none" points="218.754,87.9763 448.959,392.244 679.164,91.6542 909.369,1445.72 1139.57,381.367 1369.78,1383.04 1599.98,605.516 1830.19,752.64 2060.4,1239.07 2290.6,838.42 "/>
<path clip-path="url(#clip510)" d="M952.208 198.898 L1557.15 198.898 L1557.15 95.2176 L952.208 95.2176  Z" fill="#ffffff" fill-rule="evenodd" fill-opacity="1"/>
<polyline clip-path="url(#clip510)" style="stroke:#000000; stroke-linecap:round; stroke-linejoin:round; stroke-width:4; stroke-opacity:1; fill:none" points="952.208,198.898 1557.15,198.898 1557.15,95.2176 952.208,95.2176 952.208,198.898 "/>
<path clip-path="url(#clip510)" d="M976.61 167.794 L1123.02 167.794 L1123.02 126.322 L976.61 126.322 L976.61 167.794  Z" fill="#009af9" fill-rule="evenodd" fill-opacity="1"/>
<polyline clip-path="url(#clip510)" style="stroke:#009af9; stroke-linecap:round; stroke-linejoin:round; stroke-width:4; stroke-opacity:1; fill:none" points="976.61,126.322 1123.02,126.322 "/>
<path clip-path="url(#clip510)" d="M1160.82 151.305 Q1155.66 151.305 1153.67 152.486 Q1151.68 153.666 1151.68 156.514 Q1151.68 158.782 1153.16 160.125 Q1154.67 161.444 1157.24 161.444 Q1160.78 161.444 1162.91 158.944 Q1165.06 156.421 1165.06 152.254 L1165.06 151.305 L1160.82 151.305 M1169.32 149.546 L1169.32 164.338 L1165.06 164.338 L1165.06 160.402 Q1163.6 162.763 1161.43 163.898 Q1159.25 165.009 1156.1 165.009 Q1152.12 165.009 1149.76 162.787 Q1147.42 160.541 1147.42 156.791 Q1147.42 152.416 1150.34 150.194 Q1153.28 147.972 1159.09 147.972 L1165.06 147.972 L1165.06 147.555 Q1165.06 144.615 1163.12 143.018 Q1161.2 141.398 1157.7 141.398 Q1155.48 141.398 1153.37 141.93 Q1151.26 142.463 1149.32 143.527 L1149.32 139.592 Q1151.66 138.69 1153.86 138.25 Q1156.06 137.787 1158.14 137.787 Q1163.76 137.787 1166.54 140.703 Q1169.32 143.62 1169.32 149.546 Z" fill="#000000" fill-rule="nonzero" fill-opacity="1" /><path clip-path="url(#clip510)" d="M1196.7 151.398 Q1196.7 146.699 1194.76 144.037 Q1192.84 141.352 1189.46 141.352 Q1186.08 141.352 1184.13 144.037 Q1182.21 146.699 1182.21 151.398 Q1182.21 156.097 1184.13 158.782 Q1186.08 161.444 1189.46 161.444 Q1192.84 161.444 1194.76 158.782 Q1196.7 156.097 1196.7 151.398 M1182.21 142.347 Q1183.56 140.032 1185.59 138.921 Q1187.65 137.787 1190.5 137.787 Q1195.22 137.787 1198.16 141.537 Q1201.13 145.287 1201.13 151.398 Q1201.13 157.509 1198.16 161.259 Q1195.22 165.009 1190.5 165.009 Q1187.65 165.009 1185.59 163.898 Q1183.56 162.763 1182.21 160.449 L1182.21 164.338 L1177.93 164.338 L1177.93 128.319 L1182.21 128.319 L1182.21 142.347 Z" fill="#000000" fill-rule="nonzero" fill-opacity="1" /><path clip-path="url(#clip510)" d="M1218.23 141.398 Q1214.81 141.398 1212.82 144.083 Q1210.82 146.745 1210.82 151.398 Q1210.82 156.051 1212.79 158.736 Q1214.78 161.398 1218.23 161.398 Q1221.63 161.398 1223.63 158.713 Q1225.62 156.027 1225.62 151.398 Q1225.62 146.791 1223.63 144.106 Q1221.63 141.398 1218.23 141.398 M1218.23 137.787 Q1223.79 137.787 1226.96 141.398 Q1230.13 145.009 1230.13 151.398 Q1230.13 157.764 1226.96 161.398 Q1223.79 165.009 1218.23 165.009 Q1212.65 165.009 1209.48 161.398 Q1206.33 157.764 1206.33 151.398 Q1206.33 145.009 1209.48 141.398 Q1212.65 137.787 1218.23 137.787 Z" fill="#000000" fill-rule="nonzero" fill-opacity="1" /><path clip-path="url(#clip510)" d="M1234.13 138.412 L1238.65 138.412 L1246.75 160.171 L1254.85 138.412 L1259.37 138.412 L1249.64 164.338 L1243.86 164.338 L1234.13 138.412 Z" fill="#000000" fill-rule="nonzero" fill-opacity="1" /><path clip-path="url(#clip510)" d="M1287.42 150.31 L1287.42 152.393 L1267.84 152.393 Q1268.12 156.791 1270.48 159.106 Q1272.86 161.398 1277.1 161.398 Q1279.55 161.398 1281.84 160.796 Q1284.16 160.194 1286.43 158.99 L1286.43 163.018 Q1284.13 163.99 1281.73 164.5 Q1279.32 165.009 1276.84 165.009 Q1270.64 165.009 1267 161.398 Q1263.39 157.787 1263.39 151.629 Q1263.39 145.264 1266.82 141.537 Q1270.27 137.787 1276.1 137.787 Q1281.33 137.787 1284.37 141.166 Q1287.42 144.523 1287.42 150.31 M1283.16 149.06 Q1283.12 145.565 1281.19 143.481 Q1279.3 141.398 1276.15 141.398 Q1272.58 141.398 1270.43 143.412 Q1268.3 145.426 1267.98 149.083 L1283.16 149.06 Z" fill="#000000" fill-rule="nonzero" fill-opacity="1" /><path clip-path="url(#clip510)" d="M1301.98 129.778 L1305.92 129.778 L1293.88 168.736 L1289.94 168.736 L1301.98 129.778 Z" fill="#000000" fill-rule="nonzero" fill-opacity="1" /><path clip-path="url(#clip510)" d="M1329 151.398 Q1329 146.699 1327.05 144.037 Q1325.13 141.352 1321.75 141.352 Q1318.37 141.352 1316.43 144.037 Q1314.5 146.699 1314.5 151.398 Q1314.5 156.097 1316.43 158.782 Q1318.37 161.444 1321.75 161.444 Q1325.13 161.444 1327.05 158.782 Q1329 156.097 1329 151.398 M1314.5 142.347 Q1315.85 140.032 1317.88 138.921 Q1319.94 137.787 1322.79 137.787 Q1327.51 137.787 1330.45 141.537 Q1333.42 145.287 1333.42 151.398 Q1333.42 157.509 1330.45 161.259 Q1327.51 165.009 1322.79 165.009 Q1319.94 165.009 1317.88 163.898 Q1315.85 162.763 1314.5 160.449 L1314.5 164.338 L1310.22 164.338 L1310.22 128.319 L1314.5 128.319 L1314.5 142.347 Z" fill="#000000" fill-rule="nonzero" fill-opacity="1" /><path clip-path="url(#clip510)" d="M1362.65 150.31 L1362.65 152.393 L1343.07 152.393 Q1343.35 156.791 1345.71 159.106 Q1348.09 161.398 1352.33 161.398 Q1354.78 161.398 1357.07 160.796 Q1359.39 160.194 1361.66 158.99 L1361.66 163.018 Q1359.37 163.99 1356.96 164.5 Q1354.55 165.009 1352.07 165.009 Q1345.87 165.009 1342.24 161.398 Q1338.62 157.787 1338.62 151.629 Q1338.62 145.264 1342.05 141.537 Q1345.5 137.787 1351.33 137.787 Q1356.56 137.787 1359.6 141.166 Q1362.65 144.523 1362.65 150.31 M1358.39 149.06 Q1358.35 145.565 1356.43 143.481 Q1354.53 141.398 1351.38 141.398 Q1347.81 141.398 1345.66 143.412 Q1343.53 145.426 1343.21 149.083 L1358.39 149.06 Z" fill="#000000" fill-rule="nonzero" fill-opacity="1" /><path clip-path="url(#clip510)" d="M1369.64 128.319 L1373.9 128.319 L1373.9 164.338 L1369.64 164.338 L1369.64 128.319 Z" fill="#000000" fill-rule="nonzero" fill-opacity="1" /><path clip-path="url(#clip510)" d="M1392.86 141.398 Q1389.43 141.398 1387.44 144.083 Q1385.45 146.745 1385.45 151.398 Q1385.45 156.051 1387.42 158.736 Q1389.41 161.398 1392.86 161.398 Q1396.26 161.398 1398.25 158.713 Q1400.24 156.027 1400.24 151.398 Q1400.24 146.791 1398.25 144.106 Q1396.26 141.398 1392.86 141.398 M1392.86 137.787 Q1398.42 137.787 1401.59 141.398 Q1404.76 145.009 1404.76 151.398 Q1404.76 157.764 1401.59 161.398 Q1398.42 165.009 1392.86 165.009 Q1387.28 165.009 1384.11 161.398 Q1380.96 157.764 1380.96 151.398 Q1380.96 145.009 1384.11 141.398 Q1387.28 137.787 1392.86 137.787 Z" fill="#000000" fill-rule="nonzero" fill-opacity="1" /><path clip-path="url(#clip510)" d="M1409.34 138.412 L1413.6 138.412 L1418.93 158.643 L1424.23 138.412 L1429.25 138.412 L1434.57 158.643 L1439.87 138.412 L1444.13 138.412 L1437.35 164.338 L1432.33 164.338 L1426.75 143.088 L1421.15 164.338 L1416.12 164.338 L1409.34 138.412 Z" fill="#000000" fill-rule="nonzero" fill-opacity="1" /><path clip-path="url(#clip510)" d="M1467.07 160.402 L1474.71 160.402 L1474.71 134.037 L1466.4 135.703 L1466.4 131.444 L1474.67 129.778 L1479.34 129.778 L1479.34 160.402 L1486.98 160.402 L1486.98 164.338 L1467.07 164.338 L1467.07 160.402 Z" fill="#000000" fill-rule="nonzero" fill-opacity="1" /><path clip-path="url(#clip510)" d="M1503.39 129.778 L1507.33 129.778 L1495.29 168.736 L1491.36 168.736 L1503.39 129.778 Z" fill="#000000" fill-rule="nonzero" fill-opacity="1" /><path clip-path="url(#clip510)" d="M1516.42 160.402 L1532.74 160.402 L1532.74 164.338 L1510.8 164.338 L1510.8 160.402 Q1513.46 157.648 1518.05 153.018 Q1522.65 148.365 1523.83 147.023 Q1526.08 144.5 1526.96 142.764 Q1527.86 141.004 1527.86 139.315 Q1527.86 136.56 1525.92 134.824 Q1523.99 133.088 1520.89 133.088 Q1518.69 133.088 1516.24 133.852 Q1513.81 134.615 1511.03 136.166 L1511.03 131.444 Q1513.86 130.31 1516.31 129.731 Q1518.76 129.153 1520.8 129.153 Q1526.17 129.153 1529.36 131.838 Q1532.56 134.523 1532.56 139.014 Q1532.56 141.143 1531.75 143.065 Q1530.96 144.963 1528.86 147.555 Q1528.28 148.227 1525.17 151.444 Q1522.07 154.639 1516.42 160.402 Z" fill="#000000" fill-rule="nonzero" fill-opacity="1" /></svg>
