<?xml version="1.0" encoding="utf-8"?>
<svg xmlns="http://www.w3.org/2000/svg" xmlns:xlink="http://www.w3.org/1999/xlink" width="672" height="480" viewBox="0 0 2688 1920">
<defs>
  <clipPath id="clip450">
    <rect x="0" y="0" width="2688" height="1920"/>
  </clipPath>
</defs>
<path clip-path="url(#clip450)" d="M0 1920 L2688 1920 L2688 0 L0 0  Z" fill="#ffffff" fill-rule="evenodd" fill-opacity="1"/>
<defs>
  <clipPath id="clip451">
    <rect x="537" y="0" width="1883" height="1883"/>
  </clipPath>
</defs>
<path clip-path="url(#clip450)" d="M152.071 1800.78 L2640.76 1800.78 L2640.76 47.2441 L152.071 47.2441  Z" fill="#ffffff" fill-rule="evenodd" fill-opacity="1"/>
<defs>
  <clipPath id="clip452">
    <rect x="152" y="47" width="2490" height="1755"/>
  </clipPath>
</defs>
<polyline clip-path="url(#clip452)" style="stroke:#000000; stroke-linecap:round; stroke-linejoin:round; stroke-width:2; stroke-opacity:0.1; fill:none" points="403.833,1800.78 403.833,47.2441 "/>
<polyline clip-path="url(#clip452)" style="stroke:#000000; stroke-linecap:round; stroke-linejoin:round; stroke-width:2; stroke-opacity:0.1; fill:none" points="734.691,1800.78 734.691,47.2441 "/>
<polyline clip-path="url(#clip452)" style="stroke:#000000; stroke-linecap:round; stroke-linejoin:round; stroke-width:2; stroke-opacity:0.1; fill:none" points="1065.55,1800.78 1065.55,47.2441 "/>
<polyline clip-path="url(#clip452)" style="stroke:#000000; stroke-linecap:round; stroke-linejoin:round; stroke-width:2; stroke-opacity:0.1; fill:none" points="1396.41,1800.78 1396.41,47.2441 "/>
<polyline clip-path="url(#clip452)" style="stroke:#000000; stroke-linecap:round; stroke-linejoin:round; stroke-width:2; stroke-opacity:0.1; fill:none" points="1727.26,1800.78 1727.26,47.2441 "/>
<polyline clip-path="url(#clip452)" style="stroke:#000000; stroke-linecap:round; stroke-linejoin:round; stroke-width:2; stroke-opacity:0.1; fill:none" points="2058.12,1800.78 2058.12,47.2441 "/>
<polyline clip-path="url(#clip452)" style="stroke:#000000; stroke-linecap:round; stroke-linejoin:round; stroke-width:2; stroke-opacity:0.1; fill:none" points="2388.98,1800.78 2388.98,47.2441 "/>
<polyline clip-path="url(#clip450)" style="stroke:#000000; stroke-linecap:round; stroke-linejoin:round; stroke-width:4; stroke-opacity:1; fill:none" points="152.071,1800.78 2640.76,1800.78 "/>
<polyline clip-path="url(#clip450)" style="stroke:#000000; stroke-linecap:round; stroke-linejoin:round; stroke-width:4; stroke-opacity:1; fill:none" points="403.833,1800.78 403.833,1781.88 "/>
<polyline clip-path="url(#clip450)" style="stroke:#000000; stroke-linecap:round; stroke-linejoin:round; stroke-width:4; stroke-opacity:1; fill:none" points="734.691,1800.78 734.691,1781.88 "/>
<polyline clip-path="url(#clip450)" style="stroke:#000000; stroke-linecap:round; stroke-linejoin:round; stroke-width:4; stroke-opacity:1; fill:none" points="1065.55,1800.78 1065.55,1781.88 "/>
<polyline clip-path="url(#clip450)" style="stroke:#000000; stroke-linecap:round; stroke-linejoin:round; stroke-width:4; stroke-opacity:1; fill:none" points="1396.41,1800.78 1396.41,1781.88 "/>
<polyline clip-path="url(#clip450)" style="stroke:#000000; stroke-linecap:round; stroke-linejoin:round; stroke-width:4; stroke-opacity:1; fill:none" points="1727.26,1800.78 1727.26,1781.88 "/>
<polyline clip-path="url(#clip450)" style="stroke:#000000; stroke-linecap:round; stroke-linejoin:round; stroke-width:4; stroke-opacity:1; fill:none" points="2058.12,1800.78 2058.12,1781.88 "/>
<polyline clip-path="url(#clip450)" style="stroke:#000000; stroke-linecap:round; stroke-linejoin:round; stroke-width:4; stroke-opacity:1; fill:none" points="2388.98,1800.78 2388.98,1781.88 "/>
<path clip-path="url(#clip450)" d="M372.896 1848.65 L402.572 1848.65 L402.572 1852.59 L372.896 1852.59 L372.896 1848.65 Z" fill="#000000" fill-rule="nonzero" fill-opacity="1" /><path clip-path="url(#clip450)" d="M423.243 1846.34 Q420.095 1846.34 418.243 1848.49 Q416.414 1850.65 416.414 1854.4 Q416.414 1858.12 418.243 1860.3 Q420.095 1862.45 423.243 1862.45 Q426.391 1862.45 428.22 1860.3 Q430.071 1858.12 430.071 1854.4 Q430.071 1850.65 428.22 1848.49 Q426.391 1846.34 423.243 1846.34 M432.525 1831.69 L432.525 1835.95 Q430.766 1835.11 428.96 1834.67 Q427.178 1834.23 425.419 1834.23 Q420.789 1834.23 418.335 1837.36 Q415.905 1840.48 415.558 1846.8 Q416.923 1844.79 418.984 1843.72 Q421.044 1842.64 423.521 1842.64 Q428.729 1842.64 431.738 1845.81 Q434.771 1848.96 434.771 1854.4 Q434.771 1859.72 431.622 1862.94 Q428.474 1866.15 423.243 1866.15 Q417.247 1866.15 414.076 1861.57 Q410.905 1856.96 410.905 1848.24 Q410.905 1840.04 414.794 1835.18 Q418.683 1830.3 425.234 1830.3 Q426.993 1830.3 428.775 1830.65 Q430.581 1830.99 432.525 1831.69 Z" fill="#000000" fill-rule="nonzero" fill-opacity="1" /><path clip-path="url(#clip450)" d="M703.591 1848.65 L733.267 1848.65 L733.267 1852.59 L703.591 1852.59 L703.591 1848.65 Z" fill="#000000" fill-rule="nonzero" fill-opacity="1" /><path clip-path="url(#clip450)" d="M756.207 1835 L744.401 1853.45 L756.207 1853.45 L756.207 1835 M754.98 1830.92 L760.859 1830.92 L760.859 1853.45 L765.79 1853.45 L765.79 1857.34 L760.859 1857.34 L760.859 1865.48 L756.207 1865.48 L756.207 1857.34 L740.605 1857.34 L740.605 1852.82 L754.98 1830.92 Z" fill="#000000" fill-rule="nonzero" fill-opacity="1" /><path clip-path="url(#clip450)" d="M1035.49 1848.65 L1065.17 1848.65 L1065.17 1852.59 L1035.49 1852.59 L1035.49 1848.65 Z" fill="#000000" fill-rule="nonzero" fill-opacity="1" /><path clip-path="url(#clip450)" d="M1079.29 1861.55 L1095.61 1861.55 L1095.61 1865.48 L1073.66 1865.48 L1073.66 1861.55 Q1076.32 1858.79 1080.91 1854.16 Q1085.51 1849.51 1086.69 1848.17 Q1088.94 1845.65 1089.82 1843.91 Q1090.72 1842.15 1090.72 1840.46 Q1090.72 1837.71 1088.78 1835.97 Q1086.86 1834.23 1083.75 1834.23 Q1081.55 1834.23 1079.1 1835 Q1076.67 1835.76 1073.89 1837.31 L1073.89 1832.59 Q1076.72 1831.46 1079.17 1830.88 Q1081.62 1830.3 1083.66 1830.3 Q1089.03 1830.3 1092.23 1832.98 Q1095.42 1835.67 1095.42 1840.16 Q1095.42 1842.29 1094.61 1844.21 Q1093.82 1846.11 1091.72 1848.7 Q1091.14 1849.37 1088.04 1852.59 Q1084.93 1855.78 1079.29 1861.55 Z" fill="#000000" fill-rule="nonzero" fill-opacity="1" /><path clip-path="url(#clip450)" d="M1396.41 1834 Q1392.79 1834 1390.97 1837.57 Q1389.16 1841.11 1389.16 1848.24 Q1389.16 1855.34 1390.97 1858.91 Q1392.79 1862.45 1396.41 1862.45 Q1400.04 1862.45 1401.84 1858.91 Q1403.67 1855.34 1403.67 1848.24 Q1403.67 1841.11 1401.84 1837.57 Q1400.04 1834 1396.41 1834 M1396.41 1830.3 Q1402.22 1830.3 1405.27 1834.9 Q1408.35 1839.49 1408.35 1848.24 Q1408.35 1856.96 1405.27 1861.57 Q1402.22 1866.15 1396.41 1866.15 Q1390.6 1866.15 1387.52 1861.57 Q1384.46 1856.96 1384.46 1848.24 Q1384.46 1839.49 1387.52 1834.9 Q1390.6 1830.3 1396.41 1830.3 Z" fill="#000000" fill-rule="nonzero" fill-opacity="1" /><path clip-path="url(#clip450)" d="M1721.92 1861.55 L1738.23 1861.55 L1738.23 1865.48 L1716.29 1865.48 L1716.29 1861.55 Q1718.95 1858.79 1723.54 1854.16 Q1728.14 1849.51 1729.32 1848.17 Q1731.57 1845.65 1732.45 1843.91 Q1733.35 1842.15 1733.35 1840.46 Q1733.35 1837.71 1731.41 1835.97 Q1729.48 1834.23 1726.38 1834.23 Q1724.18 1834.23 1721.73 1835 Q1719.3 1835.76 1716.52 1837.31 L1716.52 1832.59 Q1719.35 1831.46 1721.8 1830.88 Q1724.25 1830.3 1726.29 1830.3 Q1731.66 1830.3 1734.86 1832.98 Q1738.05 1835.67 1738.05 1840.16 Q1738.05 1842.29 1737.24 1844.21 Q1736.45 1846.11 1734.35 1848.7 Q1733.77 1849.37 1730.67 1852.59 Q1727.56 1855.78 1721.92 1861.55 Z" fill="#000000" fill-rule="nonzero" fill-opacity="1" /><path clip-path="url(#clip450)" d="M2061.13 1835 L2049.32 1853.45 L2061.13 1853.45 L2061.13 1835 M2059.9 1830.92 L2065.78 1830.92 L2065.78 1853.45 L2070.71 1853.45 L2070.71 1857.34 L2065.78 1857.34 L2065.78 1865.48 L2061.13 1865.48 L2061.13 1857.34 L2045.53 1857.34 L2045.53 1852.82 L2059.9 1830.92 Z" fill="#000000" fill-rule="nonzero" fill-opacity="1" /><path clip-path="url(#clip450)" d="M2389.38 1846.34 Q2386.23 1846.34 2384.38 1848.49 Q2382.55 1850.65 2382.55 1854.4 Q2382.55 1858.12 2384.38 1860.3 Q2386.23 1862.45 2389.38 1862.45 Q2392.53 1862.45 2394.36 1860.3 Q2396.21 1858.12 2396.21 1854.4 Q2396.21 1850.65 2394.36 1848.49 Q2392.53 1846.34 2389.38 1846.34 M2398.66 1831.69 L2398.66 1835.95 Q2396.91 1835.11 2395.1 1834.67 Q2393.32 1834.23 2391.56 1834.23 Q2386.93 1834.23 2384.47 1837.36 Q2382.04 1840.48 2381.7 1846.8 Q2383.06 1844.79 2385.12 1843.72 Q2387.18 1842.64 2389.66 1842.64 Q2394.87 1842.64 2397.88 1845.81 Q2400.91 1848.96 2400.91 1854.4 Q2400.91 1859.72 2397.76 1862.94 Q2394.61 1866.15 2389.38 1866.15 Q2383.39 1866.15 2380.22 1861.57 Q2377.04 1856.96 2377.04 1848.24 Q2377.04 1840.04 2380.93 1835.18 Q2384.82 1830.3 2391.37 1830.3 Q2393.13 1830.3 2394.91 1830.65 Q2396.72 1830.99 2398.66 1831.69 Z" fill="#000000" fill-rule="nonzero" fill-opacity="1" /><polyline clip-path="url(#clip452)" style="stroke:#000000; stroke-linecap:round; stroke-linejoin:round; stroke-width:2; stroke-opacity:0.1; fill:none" points="152.071,1585.73 2640.76,1585.73 "/>
<polyline clip-path="url(#clip452)" style="stroke:#000000; stroke-linecap:round; stroke-linejoin:round; stroke-width:2; stroke-opacity:0.1; fill:none" points="152.071,1254.87 2640.76,1254.87 "/>
<polyline clip-path="url(#clip452)" style="stroke:#000000; stroke-linecap:round; stroke-linejoin:round; stroke-width:2; stroke-opacity:0.1; fill:none" points="152.071,924.012 2640.76,924.012 "/>
<polyline clip-path="url(#clip452)" style="stroke:#000000; stroke-linecap:round; stroke-linejoin:round; stroke-width:2; stroke-opacity:0.1; fill:none" points="152.071,593.154 2640.76,593.154 "/>
<polyline clip-path="url(#clip452)" style="stroke:#000000; stroke-linecap:round; stroke-linejoin:round; stroke-width:2; stroke-opacity:0.1; fill:none" points="152.071,262.297 2640.76,262.297 "/>
<polyline clip-path="url(#clip450)" style="stroke:#000000; stroke-linecap:round; stroke-linejoin:round; stroke-width:4; stroke-opacity:1; fill:none" points="152.071,1800.78 152.071,47.2441 "/>
<polyline clip-path="url(#clip450)" style="stroke:#000000; stroke-linecap:round; stroke-linejoin:round; stroke-width:4; stroke-opacity:1; fill:none" points="152.071,1585.73 170.969,1585.73 "/>
<polyline clip-path="url(#clip450)" style="stroke:#000000; stroke-linecap:round; stroke-linejoin:round; stroke-width:4; stroke-opacity:1; fill:none" points="152.071,1254.87 170.969,1254.87 "/>
<polyline clip-path="url(#clip450)" style="stroke:#000000; stroke-linecap:round; stroke-linejoin:round; stroke-width:4; stroke-opacity:1; fill:none" points="152.071,924.012 170.969,924.012 "/>
<polyline clip-path="url(#clip450)" style="stroke:#000000; stroke-linecap:round; stroke-linejoin:round; stroke-width:4; stroke-opacity:1; fill:none" points="152.071,593.154 170.969,593.154 "/>
<polyline clip-path="url(#clip450)" style="stroke:#000000; stroke-linecap:round; stroke-linejoin:round; stroke-width:4; stroke-opacity:1; fill:none" points="152.071,262.297 170.969,262.297 "/>
<path clip-path="url(#clip450)" d="M49.5521 1586.18 L79.2279 1586.18 L79.2279 1590.11 L49.5521 1590.11 L49.5521 1586.18 Z" fill="#000000" fill-rule="nonzero" fill-opacity="1" /><path clip-path="url(#clip450)" d="M102.168 1572.52 L90.3621 1590.97 L102.168 1590.97 L102.168 1572.52 M100.941 1568.45 L106.82 1568.45 L106.82 1590.97 L111.751 1590.97 L111.751 1594.86 L106.82 1594.86 L106.82 1603.01 L102.168 1603.01 L102.168 1594.86 L86.5658 1594.86 L86.5658 1590.34 L100.941 1568.45 Z" fill="#000000" fill-rule="nonzero" fill-opacity="1" /><path clip-path="url(#clip450)" d="M51.6354 1255.32 L81.3112 1255.32 L81.3112 1259.26 L51.6354 1259.26 L51.6354 1255.32 Z" fill="#000000" fill-rule="nonzero" fill-opacity="1" /><path clip-path="url(#clip450)" d="M95.4315 1268.21 L111.751 1268.21 L111.751 1272.15 L89.8065 1272.15 L89.8065 1268.21 Q92.4686 1265.46 97.0519 1260.83 Q101.658 1256.18 102.839 1254.83 Q105.084 1252.31 105.964 1250.58 Q106.867 1248.82 106.867 1247.13 Q106.867 1244.37 104.922 1242.64 Q103.001 1240.9 99.8991 1240.9 Q97.7 1240.9 95.2463 1241.66 Q92.8158 1242.43 90.038 1243.98 L90.038 1239.26 Q92.8621 1238.12 95.3158 1237.54 Q97.7695 1236.96 99.8065 1236.96 Q105.177 1236.96 108.371 1239.65 Q111.566 1242.33 111.566 1246.83 Q111.566 1248.95 110.756 1250.88 Q109.968 1252.77 107.862 1255.37 Q107.283 1256.04 104.181 1259.26 Q101.08 1262.45 95.4315 1268.21 Z" fill="#000000" fill-rule="nonzero" fill-opacity="1" /><path clip-path="url(#clip450)" d="M99.8065 909.81 Q96.1954 909.81 94.3667 913.375 Q92.5612 916.917 92.5612 924.046 Q92.5612 931.153 94.3667 934.718 Q96.1954 938.259 99.8065 938.259 Q103.441 938.259 105.246 934.718 Q107.075 931.153 107.075 924.046 Q107.075 916.917 105.246 913.375 Q103.441 909.81 99.8065 909.81 M99.8065 906.107 Q105.617 906.107 108.672 910.713 Q111.751 915.296 111.751 924.046 Q111.751 932.773 108.672 937.38 Q105.617 941.963 99.8065 941.963 Q93.9963 941.963 90.9176 937.38 Q87.8621 932.773 87.8621 924.046 Q87.8621 915.296 90.9176 910.713 Q93.9963 906.107 99.8065 906.107 Z" fill="#000000" fill-rule="nonzero" fill-opacity="1" /><path clip-path="url(#clip450)" d="M95.4315 606.499 L111.751 606.499 L111.751 610.434 L89.8065 610.434 L89.8065 606.499 Q92.4686 603.745 97.0519 599.115 Q101.658 594.462 102.839 593.12 Q105.084 590.597 105.964 588.86 Q106.867 587.101 106.867 585.411 Q106.867 582.657 104.922 580.921 Q103.001 579.185 99.8991 579.185 Q97.7 579.185 95.2463 579.948 Q92.8158 580.712 90.038 582.263 L90.038 577.541 Q92.8621 576.407 95.3158 575.828 Q97.7695 575.249 99.8065 575.249 Q105.177 575.249 108.371 577.935 Q111.566 580.62 111.566 585.11 Q111.566 587.24 110.756 589.161 Q109.968 591.059 107.862 593.652 Q107.283 594.323 104.181 597.541 Q101.08 600.735 95.4315 606.499 Z" fill="#000000" fill-rule="nonzero" fill-opacity="1" /><path clip-path="url(#clip450)" d="M102.168 249.091 L90.3621 267.54 L102.168 267.54 L102.168 249.091 M100.941 245.017 L106.82 245.017 L106.82 267.54 L111.751 267.54 L111.751 271.429 L106.82 271.429 L106.82 279.577 L102.168 279.577 L102.168 271.429 L86.5658 271.429 L86.5658 266.915 L100.941 245.017 Z" fill="#000000" fill-rule="nonzero" fill-opacity="1" /><path clip-path="url(#clip452)" d="M2223.55 924.012 L2223.48 913.597 L2223.29 903.184 L2222.96 892.774 L2222.5 882.369 L2221.91 871.971 L2221.19 861.581 L2220.34 851.201 L2219.36 840.832 L2218.24 830.477 L2217 820.136 L2215.63 809.812 L2214.12 799.506 L2212.49 789.22 L2210.73 778.955 L2208.84 768.714 L2206.82 758.496 L2204.67 748.305 L2202.39 738.142 L2199.99 728.009 L2197.46 717.906 L2194.8 707.836 L2192.01 697.8 L2189.1 687.801 L2186.07 677.838 L2182.9 667.915 L2179.62 658.032 L2176.21 648.192 L2172.67 638.395 L2169.01 628.644 L2165.23 618.939 L2161.33 609.283 L2157.31 599.676 L2153.16 590.121 L2148.9 580.619 L2144.52 571.172 L2140.01 561.78 L2135.39 552.446 L2130.66 543.17 L2125.8 533.956 L2120.83 524.802 L2115.75 515.713 L2110.55 506.688 L2105.24 497.729 L2099.82 488.837 L2094.28 480.015 L2088.64 471.263 L2082.88 462.583 L2077.02 453.976 L2071.04 445.443 L2064.97 436.987 L2058.78 428.607 L2052.49 420.307 L2046.1 412.086 L2039.6 403.946 L2033 395.888 L2026.3 387.915 L2019.5 380.026 L2012.6 372.224 L2005.6 364.509 L1998.51 356.883 L1991.32 349.346 L1984.04 341.901 L1976.66 334.548 L1969.19 327.289 L1961.64 320.124 L1953.99 313.055 L1946.25 306.083 L1938.43 299.209 L1930.52 292.433 L1922.52 285.758 L1914.44 279.185 L1906.28 272.713 L1898.04 266.345 L1889.72 260.08 L1881.32 253.922 L1872.85 247.869 L1864.3 241.924 L1855.67 236.086 L1846.97 230.358 L1838.2 224.74 L1829.36 219.233 L1820.45 213.837 L1811.48 208.554 L1802.44 203.384 L1793.33 198.329 L1784.16 193.389 L1774.93 188.564 L1765.64 183.857 L1756.29 179.266 L1746.89 174.794 L1737.43 170.44 L1727.91 166.206 L1718.34 162.092 L1708.72 158.099 L1699.06 154.227 L1689.34 150.477 L1679.58 146.85 L1669.77 143.346 L1659.92 139.966 L1650.02 136.71 L1640.09 133.579 L1630.12 130.574 L1620.11 127.694 L1610.07 124.94 L1599.99 122.313 L1589.88 119.814 L1579.74 117.441 L1569.57 115.197 L1559.37 113.081 L1549.15 111.093 L1538.9 109.234 L1528.63 107.505 L1518.34 105.905 L1508.03 104.434 L1497.7 103.094 L1487.35 101.884 L1476.99 100.804 L1466.62 99.8541 L1456.24 99.0353 L1445.85 98.3473 L1435.45 97.7903 L1425.04 97.3642 L1414.63 97.0692 L1404.22 96.9052 L1393.8 96.8724 L1383.39 96.9708 L1372.97 97.2003 L1362.57 97.5608 L1352.16 98.0524 L1341.77 98.675 L1331.38 99.4284 L1321 100.313 L1310.64 101.327 L1300.28 102.472 L1289.95 103.748 L1279.63 105.153 L1269.33 106.689 L1259.05 108.353 L1248.79 110.148 L1238.55 112.071 L1228.34 114.123 L1218.16 116.303 L1208 118.612 L1197.87 121.048 L1187.78 123.611 L1177.72 126.301 L1167.69 129.118 L1157.7 132.061 L1147.75 135.129 L1137.83 138.323 L1127.96 141.641 L1118.13 145.083 L1108.35 148.648 L1098.61 152.337 L1088.91 156.148 L1079.27 160.08 L1069.68 164.134 L1060.13 168.308 L1050.65 172.602 L1041.21 177.015 L1031.83 181.547 L1022.51 186.196 L1013.25 190.962 L1004.05 195.845 L994.917 200.842 L985.844 205.955 L976.835 211.181 L967.893 216.521 L959.019 221.972 L950.214 227.535 L941.48 233.209 L932.818 238.991 L924.229 244.883 L915.716 250.882 L907.278 256.988 L898.918 263.199 L890.637 269.516 L882.437 275.936 L874.317 282.459 L866.281 289.083 L858.328 295.809 L850.461 302.633 L842.68 309.557 L834.987 316.578 L827.384 323.695 L819.87 330.907 L812.448 338.213 L805.118 345.612 L797.882 353.103 L790.741 360.685 L783.696 368.355 L776.749 376.114 L769.899 383.96 L763.149 391.891 L756.499 399.907 L749.95 408.005 L743.505 416.186 L737.162 424.447 L730.924 432.787 L724.792 441.206 L718.766 449.7 L712.848 458.27 L707.038 466.914 L701.337 475.63 L695.746 484.417 L690.267 493.274 L684.899 502.2 L679.644 511.192 L674.503 520.25 L669.477 529.371 L664.565 538.555 L659.77 547.801 L655.091 557.106 L650.53 566.469 L646.088 575.889 L641.764 585.364 L637.56 594.892 L633.476 604.473 L629.513 614.105 L625.672 623.785 L621.952 633.514 L618.356 643.288 L614.883 653.107 L611.534 662.969 L608.309 672.872 L605.21 682.815 L602.236 692.796 L599.387 702.814 L596.665 712.867 L594.07 722.953 L591.602 733.072 L589.262 743.22 L587.049 753.397 L584.965 763.602 L583.01 773.832 L581.183 784.085 L579.486 794.361 L577.918 804.657 L576.48 814.972 L575.173 825.305 L573.995 835.653 L572.947 846.015 L572.031 856.39 L571.245 866.775 L570.589 877.169 L570.065 887.571 L569.672 897.978 L569.409 908.39 L569.278 918.804 L569.278 929.219 L569.409 939.633 L569.672 950.045 L570.065 960.452 L570.589 970.854 L571.245 981.249 L572.031 991.634 L572.947 1002.01 L573.995 1012.37 L575.173 1022.72 L576.48 1033.05 L577.918 1043.37 L579.486 1053.66 L581.183 1063.94 L583.01 1074.19 L584.965 1084.42 L587.049 1094.63 L589.262 1104.8 L591.602 1114.95 L594.07 1125.07 L596.665 1135.16 L599.387 1145.21 L602.236 1155.23 L605.21 1165.21 L608.309 1175.15 L611.534 1185.05 L614.883 1194.92 L618.356 1204.74 L621.952 1214.51 L625.672 1224.24 L629.513 1233.92 L633.476 1243.55 L637.56 1253.13 L641.764 1262.66 L646.088 1272.13 L650.53 1281.55 L655.091 1290.92 L659.77 1300.22 L664.565 1309.47 L669.477 1318.65 L674.503 1327.77 L679.644 1336.83 L684.899 1345.82 L690.267 1354.75 L695.746 1363.61 L701.337 1372.39 L707.038 1381.11 L712.848 1389.75 L718.766 1398.32 L724.792 1406.82 L730.924 1415.24 L737.162 1423.58 L743.505 1431.84 L749.95 1440.02 L756.499 1448.12 L763.149 1456.13 L769.899 1464.06 L776.749 1471.91 L783.696 1479.67 L790.741 1487.34 L797.882 1494.92 L805.118 1502.41 L812.448 1509.81 L819.87 1517.12 L827.384 1524.33 L834.987 1531.45 L842.68 1538.47 L850.461 1545.39 L858.328 1552.21 L866.281 1558.94 L874.317 1565.56 L882.437 1572.09 L890.637 1578.51 L898.918 1584.82 L907.278 1591.04 L915.716 1597.14 L924.229 1603.14 L932.818 1609.03 L941.48 1614.81 L950.214 1620.49 L959.019 1626.05 L967.893 1631.5 L976.835 1636.84 L985.844 1642.07 L994.917 1647.18 L1004.05 1652.18 L1013.25 1657.06 L1022.51 1661.83 L1031.83 1666.48 L1041.21 1671.01 L1050.65 1675.42 L1060.13 1679.72 L1069.68 1683.89 L1079.27 1687.94 L1088.91 1691.88 L1098.61 1695.69 L1108.35 1699.38 L1118.13 1702.94 L1127.96 1706.38 L1137.83 1709.7 L1147.75 1712.89 L1157.7 1715.96 L1167.69 1718.91 L1177.72 1721.72 L1187.78 1724.41 L1197.87 1726.98 L1208 1729.41 L1218.16 1731.72 L1228.34 1733.9 L1238.55 1735.95 L1248.79 1737.88 L1259.05 1739.67 L1269.33 1741.33 L1279.63 1742.87 L1289.95 1744.28 L1300.28 1745.55 L1310.64 1746.7 L1321 1747.71 L1331.38 1748.6 L1341.77 1749.35 L1352.16 1749.97 L1362.57 1750.46 L1372.97 1750.82 L1383.39 1751.05 L1393.8 1751.15 L1404.22 1751.12 L1414.63 1750.95 L1425.04 1750.66 L1435.45 1750.23 L1445.85 1749.68 L1456.24 1748.99 L1466.62 1748.17 L1476.99 1747.22 L1487.35 1746.14 L1497.7 1744.93 L1508.03 1743.59 L1518.34 1742.12 L1528.63 1740.52 L1538.9 1738.79 L1549.15 1736.93 L1559.37 1734.94 L1569.57 1732.83 L1579.74 1730.58 L1589.88 1728.21 L1599.99 1725.71 L1610.07 1723.08 L1620.11 1720.33 L1630.12 1717.45 L1640.09 1714.44 L1650.02 1711.31 L1659.92 1708.06 L1669.77 1704.68 L1679.58 1701.17 L1689.34 1697.55 L1699.06 1693.8 L1708.72 1689.92 L1718.34 1685.93 L1727.91 1681.82 L1737.43 1677.58 L1746.89 1673.23 L1756.29 1668.76 L1765.64 1664.17 L1774.93 1659.46 L1784.16 1654.63 L1793.33 1649.69 L1802.44 1644.64 L1811.48 1639.47 L1820.45 1634.19 L1829.36 1628.79 L1838.2 1623.28 L1846.97 1617.67 L1855.67 1611.94 L1864.3 1606.1 L1872.85 1600.15 L1881.32 1594.1 L1889.72 1587.94 L1898.04 1581.68 L1906.28 1575.31 L1914.44 1568.84 L1922.52 1562.27 L1930.52 1555.59 L1938.43 1548.81 L1946.25 1541.94 L1953.99 1534.97 L1961.64 1527.9 L1969.19 1520.73 L1976.66 1513.48 L1984.04 1506.12 L1991.32 1498.68 L1998.51 1491.14 L2005.6 1483.51 L2012.6 1475.8 L2019.5 1468 L2026.3 1460.11 L2033 1452.13 L2039.6 1444.08 L2046.1 1435.94 L2052.49 1427.72 L2058.78 1419.42 L2064.97 1411.04 L2071.04 1402.58 L2077.02 1394.05 L2082.88 1385.44 L2088.64 1376.76 L2094.28 1368.01 L2099.82 1359.19 L2105.24 1350.29 L2110.55 1341.34 L2115.75 1332.31 L2120.83 1323.22 L2125.8 1314.07 L2130.66 1304.85 L2135.39 1295.58 L2140.01 1286.24 L2144.52 1276.85 L2148.9 1267.4 L2153.16 1257.9 L2157.31 1248.35 L2161.33 1238.74 L2165.23 1229.08 L2169.01 1219.38 L2172.67 1209.63 L2176.21 1199.83 L2179.62 1189.99 L2182.9 1180.11 L2186.07 1170.18 L2189.1 1160.22 L2192.01 1150.22 L2194.8 1140.19 L2197.46 1130.12 L2199.99 1120.01 L2202.39 1109.88 L2204.67 1099.72 L2206.82 1089.53 L2208.84 1079.31 L2210.73 1069.07 L2212.49 1058.8 L2214.12 1048.52 L2215.63 1038.21 L2217 1027.89 L2218.24 1017.55 L2219.36 1007.19 L2220.34 996.822 L2221.19 986.442 L2221.91 976.052 L2222.5 965.654 L2222.96 955.249 L2223.29 944.84 L2223.48 934.426 L2223.55 924.012 L2223.55 924.012 L2223.48 924.012 L2223.29 924.012 L2222.96 924.012 L2222.5 924.012 L2221.91 924.012 L2221.19 924.012 L2220.34 924.012 L2219.36 924.012 L2218.24 924.012 L2217 924.012 L2215.63 924.012 L2214.12 924.012 L2212.49 924.012 L2210.73 924.012 L2208.84 924.012 L2206.82 924.012 L2204.67 924.012 L2202.39 924.012 L2199.99 924.012 L2197.46 924.012 L2194.8 924.012 L2192.01 924.012 L2189.1 924.012 L2186.07 924.012 L2182.9 924.012 L2179.62 924.012 L2176.21 924.012 L2172.67 924.012 L2169.01 924.012 L2165.23 924.012 L2161.33 924.012 L2157.31 924.012 L2153.16 924.012 L2148.9 924.012 L2144.52 924.012 L2140.01 924.012 L2135.39 924.012 L2130.66 924.012 L2125.8 924.012 L2120.83 924.012 L2115.75 924.012 L2110.55 924.012 L2105.24 924.012 L2099.82 924.012 L2094.28 924.012 L2088.64 924.012 L2082.88 924.012 L2077.02 924.012 L2071.04 924.012 L2064.97 924.012 L2058.78 924.012 L2052.49 924.012 L2046.1 924.012 L2039.6 924.012 L2033 924.012 L2026.3 924.012 L2019.5 924.012 L2012.6 924.012 L2005.6 924.012 L1998.51 924.012 L1991.32 924.012 L1984.04 924.012 L1976.66 924.012 L1969.19 924.012 L1961.64 924.012 L1953.99 924.012 L1946.25 924.012 L1938.43 924.012 L1930.52 924.012 L1922.52 924.012 L1914.44 924.012 L1906.28 924.012 L1898.04 924.012 L1889.72 924.012 L1881.32 924.012 L1872.85 924.012 L1864.3 924.012 L1855.67 924.012 L1846.97 924.012 L1838.2 924.012 L1829.36 924.012 L1820.45 924.012 L1811.48 924.012 L1802.44 924.012 L1793.33 924.012 L1784.16 924.012 L1774.93 924.012 L1765.64 924.012 L1756.29 924.012 L1746.89 924.012 L1737.43 924.012 L1727.91 924.012 L1718.34 924.012 L1708.72 924.012 L1699.06 924.012 L1689.34 924.012 L1679.58 924.012 L1669.77 924.012 L1659.92 924.012 L1650.02 924.012 L1640.09 924.012 L1630.12 924.012 L1620.11 924.012 L1610.07 924.012 L1599.99 924.012 L1589.88 924.012 L1579.74 924.012 L1569.57 924.012 L1559.37 924.012 L1549.15 924.012 L1538.9 924.012 L1528.63 924.012 L1518.34 924.012 L1508.03 924.012 L1497.7 924.012 L1487.35 924.012 L1476.99 924.012 L1466.62 924.012 L1456.24 924.012 L1445.85 924.012 L1435.45 924.012 L1425.04 924.012 L1414.63 924.012 L1404.22 924.012 L1393.8 924.012 L1383.39 924.012 L1372.97 924.012 L1362.57 924.012 L1352.16 924.012 L1341.77 924.012 L1331.38 924.012 L1321 924.012 L1310.64 924.012 L1300.28 924.012 L1289.95 924.012 L1279.63 924.012 L1269.33 924.012 L1259.05 924.012 L1248.79 924.012 L1238.55 924.012 L1228.34 924.012 L1218.16 924.012 L1208 924.012 L1197.87 924.012 L1187.78 924.012 L1177.72 924.012 L1167.69 924.012 L1157.7 924.012 L1147.75 924.012 L1137.83 924.012 L1127.96 924.012 L1118.13 924.012 L1108.35 924.012 L1098.61 924.012 L1088.91 924.012 L1079.27 924.012 L1069.68 924.012 L1060.13 924.012 L1050.65 924.012 L1041.21 924.012 L1031.83 924.012 L1022.51 924.012 L1013.25 924.012 L1004.05 924.012 L994.917 924.012 L985.844 924.012 L976.835 924.012 L967.893 924.012 L959.019 924.012 L950.214 924.012 L941.48 924.012 L932.818 924.012 L924.229 924.012 L915.716 924.012 L907.278 924.012 L898.918 924.012 L890.637 924.012 L882.437 924.012 L874.317 924.012 L866.281 924.012 L858.328 924.012 L850.461 924.012 L842.68 924.012 L834.987 924.012 L827.384 924.012 L819.87 924.012 L812.448 924.012 L805.118 924.012 L797.882 924.012 L790.741 924.012 L783.696 924.012 L776.749 924.012 L769.899 924.012 L763.149 924.012 L756.499 924.012 L749.95 924.012 L743.505 924.012 L737.162 924.012 L730.924 924.012 L724.792 924.012 L718.766 924.012 L712.848 924.012 L707.038 924.012 L701.337 924.012 L695.746 924.012 L690.267 924.012 L684.899 924.012 L679.644 924.012 L674.503 924.012 L669.477 924.012 L664.565 924.012 L659.77 924.012 L655.091 924.012 L650.53 924.012 L646.088 924.012 L641.764 924.012 L637.56 924.012 L633.476 924.012 L629.513 924.012 L625.672 924.012 L621.952 924.012 L618.356 924.012 L614.883 924.012 L611.534 924.012 L608.309 924.012 L605.21 924.012 L602.236 924.012 L599.387 924.012 L596.665 924.012 L594.07 924.012 L591.602 924.012 L589.262 924.012 L587.049 924.012 L584.965 924.012 L583.01 924.012 L581.183 924.012 L579.486 924.012 L577.918 924.012 L576.48 924.012 L575.173 924.012 L573.995 924.012 L572.947 924.012 L572.031 924.012 L571.245 924.012 L570.589 924.012 L570.065 924.012 L569.672 924.012 L569.409 924.012 L569.278 924.012 L569.278 924.012 L569.409 924.012 L569.672 924.012 L570.065 924.012 L570.589 924.012 L571.245 924.012 L572.031 924.012 L572.947 924.012 L573.995 924.012 L575.173 924.012 L576.48 924.012 L577.918 924.012 L579.486 924.012 L581.183 924.012 L583.01 924.012 L584.965 924.012 L587.049 924.012 L589.262 924.012 L591.602 924.012 L594.07 924.012 L596.665 924.012 L599.387 924.012 L602.236 924.012 L605.21 924.012 L608.309 924.012 L611.534 924.012 L614.883 924.012 L618.356 924.012 L621.952 924.012 L625.672 924.012 L629.513 924.012 L633.476 924.012 L637.56 924.012 L641.764 924.012 L646.088 924.012 L650.53 924.012 L655.091 924.012 L659.77 924.012 L664.565 924.012 L669.477 924.012 L674.503 924.012 L679.644 924.012 L684.899 924.012 L690.267 924.012 L695.746 924.012 L701.337 924.012 L707.038 924.012 L712.848 924.012 L718.766 924.012 L724.792 924.012 L730.924 924.012 L737.162 924.012 L743.505 924.012 L749.95 924.012 L756.499 924.012 L763.149 924.012 L769.899 924.012 L776.749 924.012 L783.696 924.012 L790.741 924.012 L797.882 924.012 L805.118 924.012 L812.448 924.012 L819.87 924.012 L827.384 924.012 L834.987 924.012 L842.68 924.012 L850.461 924.012 L858.328 924.012 L866.281 924.012 L874.317 924.012 L882.437 924.012 L890.637 924.012 L898.918 924.012 L907.278 924.012 L915.716 924.012 L924.229 924.012 L932.818 924.012 L941.48 924.012 L950.214 924.012 L959.019 924.012 L967.893 924.012 L976.835 924.012 L985.844 924.012 L994.917 924.012 L1004.05 924.012 L1013.25 924.012 L1022.51 924.012 L1031.83 924.012 L1041.21 924.012 L1050.65 924.012 L1060.13 924.012 L1069.68 924.012 L1079.27 924.012 L1088.91 924.012 L1098.61 924.012 L1108.35 924.012 L1118.13 924.012 L1127.96 924.012 L1137.83 924.012 L1147.75 924.012 L1157.7 924.012 L1167.69 924.012 L1177.72 924.012 L1187.78 924.012 L1197.87 924.012 L1208 924.012 L1218.16 924.012 L1228.34 924.012 L1238.55 924.012 L1248.79 924.012 L1259.05 924.012 L1269.33 924.012 L1279.63 924.012 L1289.95 924.012 L1300.28 924.012 L1310.64 924.012 L1321 924.012 L1331.38 924.012 L1341.77 924.012 L1352.16 924.012 L1362.57 924.012 L1372.97 924.012 L1383.39 924.012 L1393.8 924.012 L1404.22 924.012 L1414.63 924.012 L1425.04 924.012 L1435.45 924.012 L1445.85 924.012 L1456.24 924.012 L1466.62 924.012 L1476.99 924.012 L1487.35 924.012 L1497.7 924.012 L1508.03 924.012 L1518.34 924.012 L1528.63 924.012 L1538.9 924.012 L1549.15 924.012 L1559.37 924.012 L1569.57 924.012 L1579.74 924.012 L1589.88 924.012 L1599.99 924.012 L1610.07 924.012 L1620.11 924.012 L1630.12 924.012 L1640.09 924.012 L1650.02 924.012 L1659.92 924.012 L1669.77 924.012 L1679.58 924.012 L1689.34 924.012 L1699.06 924.012 L1708.72 924.012 L1718.34 924.012 L1727.91 924.012 L1737.43 924.012 L1746.89 924.012 L1756.29 924.012 L1765.64 924.012 L1774.93 924.012 L1784.16 924.012 L1793.33 924.012 L1802.44 924.012 L1811.48 924.012 L1820.45 924.012 L1829.36 924.012 L1838.2 924.012 L1846.97 924.012 L1855.67 924.012 L1864.3 924.012 L1872.85 924.012 L1881.32 924.012 L1889.72 924.012 L1898.04 924.012 L1906.28 924.012 L1914.44 924.012 L1922.52 924.012 L1930.52 924.012 L1938.43 924.012 L1946.25 924.012 L1953.99 924.012 L1961.64 924.012 L1969.19 924.012 L1976.66 924.012 L1984.04 924.012 L1991.32 924.012 L1998.51 924.012 L2005.6 924.012 L2012.6 924.012 L2019.5 924.012 L2026.3 924.012 L2033 924.012 L2039.6 924.012 L2046.1 924.012 L2052.49 924.012 L2058.78 924.012 L2064.97 924.012 L2071.04 924.012 L2077.02 924.012 L2082.88 924.012 L2088.64 924.012 L2094.28 924.012 L2099.82 924.012 L2105.24 924.012 L2110.55 924.012 L2115.75 924.012 L2120.83 924.012 L2125.8 924.012 L2130.66 924.012 L2135.39 924.012 L2140.01 924.012 L2144.52 924.012 L2148.9 924.012 L2153.16 924.012 L2157.31 924.012 L2161.33 924.012 L2165.23 924.012 L2169.01 924.012 L2172.67 924.012 L2176.21 924.012 L2179.62 924.012 L2182.9 924.012 L2186.07 924.012 L2189.1 924.012 L2192.01 924.012 L2194.8 924.012 L2197.46 924.012 L2199.99 924.012 L2202.39 924.012 L2204.67 924.012 L2206.82 924.012 L2208.84 924.012 L2210.73 924.012 L2212.49 924.012 L2214.12 924.012 L2215.63 924.012 L2217 924.012 L2218.24 924.012 L2219.36 924.012 L2220.34 924.012 L2221.19 924.012 L2221.91 924.012 L2222.5 924.012 L2222.96 924.012 L2223.29 924.012 L2223.48 924.012 L2223.55 924.012  Z" fill="#ff0000" fill-rule="evenodd" fill-opacity="1"/>
<polyline clip-path="url(#clip452)" style="stroke:#ff0000; stroke-linecap:round; stroke-linejoin:round; stroke-width:4; stroke-opacity:1; fill:none" points="2223.55,924.012 2223.48,913.597 2223.29,903.184 2222.96,892.774 2222.5,882.369 2221.91,871.971 2221.19,861.581 2220.34,851.201 2219.36,840.832 2218.24,830.477 2217,820.136 2215.63,809.812 2214.12,799.506 2212.49,789.22 2210.73,778.955 2208.84,768.714 2206.82,758.496 2204.67,748.305 2202.39,738.142 2199.99,728.009 2197.46,717.906 2194.8,707.836 2192.01,697.8 2189.1,687.801 2186.07,677.838 2182.9,667.915 2179.62,658.032 2176.21,648.192 2172.67,638.395 2169.01,628.644 2165.23,618.939 2161.33,609.283 2157.31,599.676 2153.16,590.121 2148.9,580.619 2144.52,571.172 2140.01,561.78 2135.39,552.446 2130.66,543.17 2125.8,533.956 2120.83,524.802 2115.75,515.713 2110.55,506.688 2105.24,497.729 2099.82,488.837 2094.28,480.015 2088.64,471.263 2082.88,462.583 2077.02,453.976 2071.04,445.443 2064.97,436.987 2058.78,428.607 2052.49,420.307 2046.1,412.086 2039.6,403.946 2033,395.888 2026.3,387.915 2019.5,380.026 2012.6,372.224 2005.6,364.509 1998.51,356.883 1991.32,349.346 1984.04,341.901 1976.66,334.548 1969.19,327.289 1961.64,320.124 1953.99,313.055 1946.25,306.083 1938.43,299.209 1930.52,292.433 1922.52,285.758 1914.44,279.185 1906.28,272.713 1898.04,266.345 1889.72,260.08 1881.32,253.922 1872.85,247.869 1864.3,241.924 1855.67,236.086 1846.97,230.358 1838.2,224.74 1829.36,219.233 1820.45,213.837 1811.48,208.554 1802.44,203.384 1793.33,198.329 1784.16,193.389 1774.93,188.564 1765.64,183.857 1756.29,179.266 1746.89,174.794 1737.43,170.44 1727.91,166.206 1718.34,162.092 1708.72,158.099 1699.06,154.227 1689.34,150.477 1679.58,146.85 1669.77,143.346 1659.92,139.966 1650.02,136.71 1640.09,133.579 1630.12,130.574 1620.11,127.694 1610.07,124.94 1599.99,122.313 1589.88,119.814 1579.74,117.441 1569.57,115.197 1559.37,113.081 1549.15,111.093 1538.9,109.234 1528.63,107.505 1518.34,105.905 1508.03,104.434 1497.7,103.094 1487.35,101.884 1476.99,100.804 1466.62,99.8541 1456.24,99.0353 1445.85,98.3473 1435.45,97.7903 1425.04,97.3642 1414.63,97.0692 1404.22,96.9052 1393.8,96.8724 1383.39,96.9708 1372.97,97.2003 1362.57,97.5608 1352.16,98.0524 1341.77,98.675 1331.38,99.4284 1321,100.313 1310.64,101.327 1300.28,102.472 1289.95,103.748 1279.63,105.153 1269.33,106.689 1259.05,108.353 1248.79,110.148 1238.55,112.071 1228.34,114.123 1218.16,116.303 1208,118.612 1197.87,121.048 1187.78,123.611 1177.72,126.301 1167.69,129.118 1157.7,132.061 1147.75,135.129 1137.83,138.323 1127.96,141.641 1118.13,145.083 1108.35,148.648 1098.61,152.337 1088.91,156.148 1079.27,160.08 1069.68,164.134 1060.13,168.308 1050.65,172.602 1041.21,177.015 1031.83,181.547 1022.51,186.196 1013.25,190.962 1004.05,195.845 994.917,200.842 985.844,205.955 976.835,211.181 967.893,216.521 959.019,221.972 950.214,227.535 941.48,233.209 932.818,238.991 924.229,244.883 915.716,250.882 907.278,256.988 898.918,263.199 890.637,269.516 882.437,275.936 874.317,282.459 866.281,289.083 858.328,295.809 850.461,302.633 842.68,309.557 834.987,316.578 827.384,323.695 819.87,330.907 812.448,338.213 805.118,345.612 797.882,353.103 790.741,360.685 783.696,368.355 776.749,376.114 769.899,383.96 763.149,391.891 756.499,399.907 749.95,408.005 743.505,416.186 737.162,424.447 730.924,432.787 724.792,441.206 718.766,449.7 712.848,458.27 707.038,466.914 701.337,475.63 695.746,484.417 690.267,493.274 684.899,502.2 679.644,511.192 674.503,520.25 669.477,529.371 664.565,538.555 659.77,547.801 655.091,557.106 650.53,566.469 646.088,575.889 641.764,585.364 637.56,594.892 633.476,604.473 629.513,614.105 625.672,623.785 621.952,633.514 618.356,643.288 614.883,653.107 611.534,662.969 608.309,672.872 605.21,682.815 602.236,692.796 599.387,702.814 596.665,712.867 594.07,722.953 591.602,733.072 589.262,743.22 587.049,753.397 584.965,763.602 583.01,773.832 581.183,784.085 579.486,794.361 577.918,804.657 576.48,814.972 575.173,825.305 573.995,835.653 572.947,846.015 572.031,856.39 571.245,866.775 570.589,877.169 570.065,887.571 569.672,897.978 569.409,908.39 569.278,918.804 569.278,929.219 569.409,939.633 569.672,950.045 570.065,960.452 570.589,970.854 571.245,981.249 572.031,991.634 572.947,1002.01 573.995,1012.37 575.173,1022.72 576.48,1033.05 577.918,1043.37 579.486,1053.66 581.183,1063.94 583.01,1074.19 584.965,1084.42 587.049,1094.63 589.262,1104.8 591.602,1114.95 594.07,1125.07 596.665,1135.16 599.387,1145.21 602.236,1155.23 605.21,1165.21 608.309,1175.15 611.534,1185.05 614.883,1194.92 618.356,1204.74 621.952,1214.51 625.672,1224.24 629.513,1233.92 633.476,1243.55 637.56,1253.13 641.764,1262.66 646.088,1272.13 650.53,1281.55 655.091,1290.92 659.77,1300.22 664.565,1309.47 669.477,1318.65 674.503,1327.77 679.644,1336.83 684.899,1345.82 690.267,1354.75 695.746,1363.61 701.337,1372.39 707.038,1381.11 712.848,1389.75 718.766,1398.32 724.792,1406.82 730.924,1415.24 737.162,1423.58 743.505,1431.84 749.95,1440.02 756.499,1448.12 763.149,1456.13 769.899,1464.06 776.749,1471.91 783.696,1479.67 790.741,1487.34 797.882,1494.92 805.118,1502.41 812.448,1509.81 819.87,1517.12 827.384,1524.33 834.987,1531.45 842.68,1538.47 850.461,1545.39 858.328,1552.21 866.281,1558.94 874.317,1565.56 882.437,1572.09 890.637,1578.51 898.918,1584.82 907.278,1591.04 915.716,1597.14 924.229,1603.14 932.818,1609.03 941.48,1614.81 950.214,1620.49 959.019,1626.05 967.893,1631.5 976.835,1636.84 985.844,1642.07 994.917,1647.18 1004.05,1652.18 1013.25,1657.06 1022.51,1661.83 1031.83,1666.48 1041.21,1671.01 1050.65,1675.42 1060.13,1679.72 1069.68,1683.89 1079.27,1687.94 1088.91,1691.88 1098.61,1695.69 1108.35,1699.38 1118.13,1702.94 1127.96,1706.38 1137.83,1709.7 1147.75,1712.89 1157.7,1715.96 1167.69,1718.91 1177.72,1721.72 1187.78,1724.41 1197.87,1726.98 1208,1729.41 1218.16,1731.72 1228.34,1733.9 1238.55,1735.95 1248.79,1737.88 1259.05,1739.67 1269.33,1741.33 1279.63,1742.87 1289.95,1744.28 1300.28,1745.55 1310.64,1746.7 1321,1747.71 1331.38,1748.6 1341.77,1749.35 1352.16,1749.97 1362.57,1750.46 1372.97,1750.82 1383.39,1751.05 1393.8,1751.15 1404.22,1751.12 1414.63,1750.95 1425.04,1750.66 1435.45,1750.23 1445.85,1749.68 1456.24,1748.99 1466.62,1748.17 1476.99,1747.22 1487.35,1746.14 1497.7,1744.93 1508.03,1743.59 1518.34,1742.12 1528.63,1740.52 1538.9,1738.79 1549.15,1736.93 1559.37,1734.94 1569.57,1732.83 1579.74,1730.58 1589.88,1728.21 1599.99,1725.71 1610.07,1723.08 1620.11,1720.33 1630.12,1717.45 1640.09,1714.44 1650.02,1711.31 1659.92,1708.06 1669.77,1704.68 1679.58,1701.17 1689.34,1697.55 1699.06,1693.8 1708.72,1689.92 1718.34,1685.93 1727.91,1681.82 1737.43,1677.58 1746.89,1673.23 1756.29,1668.76 1765.64,1664.17 1774.93,1659.46 1784.16,1654.63 1793.33,1649.69 1802.44,1644.64 1811.48,1639.47 1820.45,1634.19 1829.36,1628.79 1838.2,1623.28 1846.97,1617.67 1855.67,1611.94 1864.3,1606.1 1872.85,1600.15 1881.32,1594.1 1889.72,1587.94 1898.04,1581.68 1906.28,1575.31 1914.44,1568.84 1922.52,1562.27 1930.52,1555.59 1938.43,1548.81 1946.25,1541.94 1953.99,1534.97 1961.64,1527.9 1969.19,1520.73 1976.66,1513.48 1984.04,1506.12 1991.32,1498.68 1998.51,1491.14 2005.6,1483.51 2012.6,1475.8 2019.5,1468 2026.3,1460.11 2033,1452.13 2039.6,1444.08 2046.1,1435.94 2052.49,1427.72 2058.78,1419.42 2064.97,1411.04 2071.04,1402.58 2077.02,1394.05 2082.88,1385.44 2088.64,1376.76 2094.28,1368.01 2099.82,1359.19 2105.24,1350.29 2110.55,1341.34 2115.75,1332.31 2120.83,1323.22 2125.8,1314.07 2130.66,1304.85 2135.39,1295.58 2140.01,1286.24 2144.52,1276.85 2148.9,1267.4 2153.16,1257.9 2157.31,1248.35 2161.33,1238.74 2165.23,1229.08 2169.01,1219.38 2172.67,1209.63 2176.21,1199.83 2179.62,1189.99 2182.9,1180.11 2186.07,1170.18 2189.1,1160.22 2192.01,1150.22 2194.8,1140.19 2197.46,1130.12 2199.99,1120.01 2202.39,1109.88 2204.67,1099.72 2206.82,1089.53 2208.84,1079.31 2210.73,1069.07 2212.49,1058.8 2214.12,1048.52 2215.63,1038.21 2217,1027.89 2218.24,1017.55 2219.36,1007.19 2220.34,996.822 2221.19,986.442 2221.91,976.052 2222.5,965.654 2222.96,955.249 2223.29,944.84 2223.48,934.426 2223.55,924.012 "/>
<path clip-path="url(#clip452)" d="M811.527 1508.89 L1981.28 1508.89 L1981.28 339.133 L811.527 339.133 L811.527 1508.89  Z" fill="#ffffff" fill-rule="evenodd" fill-opacity="1"/>
<polyline clip-path="url(#clip452)" style="stroke:#000000; stroke-linecap:round; stroke-linejoin:round; stroke-width:4; stroke-opacity:1; fill:none" points="811.527,1508.89 1981.28,1508.89 1981.28,339.133 811.527,339.133 811.527,1508.89 "/>
</svg>
