<?xml version="1.0" encoding="utf-8"?>
<svg xmlns="http://www.w3.org/2000/svg" xmlns:xlink="http://www.w3.org/1999/xlink" width="600" height="400" viewBox="0 0 2400 1600">
<defs>
  <clipPath id="clip220">
    <rect x="0" y="0" width="2400" height="1600"/>
  </clipPath>
</defs>
<path clip-path="url(#clip220)" d="M0 1600 L2400 1600 L2400 0 L0 0  Z" fill="#ffffff" fill-rule="evenodd" fill-opacity="1"/>
<defs>
  <clipPath id="clip221">
    <rect x="480" y="0" width="1681" height="1600"/>
  </clipPath>
</defs>
<path clip-path="url(#clip220)" d="M156.598 1486.45 L2352.76 1486.45 L2352.76 47.2441 L156.598 47.2441  Z" fill="#ffffff" fill-rule="evenodd" fill-opacity="1"/>
<defs>
  <clipPath id="clip222">
    <rect x="156" y="47" width="2197" height="1440"/>
  </clipPath>
</defs>
<polyline clip-path="url(#clip222)" style="stroke:#000000; stroke-linecap:round; stroke-linejoin:round; stroke-width:2; stroke-opacity:0.1; fill:none" points="218.754,1486.45 218.754,47.2441 "/>
<polyline clip-path="url(#clip222)" style="stroke:#000000; stroke-linecap:round; stroke-linejoin:round; stroke-width:2; stroke-opacity:0.1; fill:none" points="736.715,1486.45 736.715,47.2441 "/>
<polyline clip-path="url(#clip222)" style="stroke:#000000; stroke-linecap:round; stroke-linejoin:round; stroke-width:2; stroke-opacity:0.1; fill:none" points="1254.68,1486.45 1254.68,47.2441 "/>
<polyline clip-path="url(#clip222)" style="stroke:#000000; stroke-linecap:round; stroke-linejoin:round; stroke-width:2; stroke-opacity:0.1; fill:none" points="1772.64,1486.45 1772.64,47.2441 "/>
<polyline clip-path="url(#clip222)" style="stroke:#000000; stroke-linecap:round; stroke-linejoin:round; stroke-width:2; stroke-opacity:0.1; fill:none" points="2290.6,1486.45 2290.6,47.2441 "/>
<polyline clip-path="url(#clip220)" style="stroke:#000000; stroke-linecap:round; stroke-linejoin:round; stroke-width:4; stroke-opacity:1; fill:none" points="156.598,1486.45 2352.76,1486.45 "/>
<polyline clip-path="url(#clip220)" style="stroke:#000000; stroke-linecap:round; stroke-linejoin:round; stroke-width:4; stroke-opacity:1; fill:none" points="218.754,1486.45 218.754,1467.55 "/>
<polyline clip-path="url(#clip220)" style="stroke:#000000; stroke-linecap:round; stroke-linejoin:round; stroke-width:4; stroke-opacity:1; fill:none" points="736.715,1486.45 736.715,1467.55 "/>
<polyline clip-path="url(#clip220)" style="stroke:#000000; stroke-linecap:round; stroke-linejoin:round; stroke-width:4; stroke-opacity:1; fill:none" points="1254.68,1486.45 1254.68,1467.55 "/>
<polyline clip-path="url(#clip220)" style="stroke:#000000; stroke-linecap:round; stroke-linejoin:round; stroke-width:4; stroke-opacity:1; fill:none" points="1772.64,1486.45 1772.64,1467.55 "/>
<polyline clip-path="url(#clip220)" style="stroke:#000000; stroke-linecap:round; stroke-linejoin:round; stroke-width:4; stroke-opacity:1; fill:none" points="2290.6,1486.45 2290.6,1467.55 "/>
<path clip-path="url(#clip220)" d="M209.136 1544.91 L216.774 1544.91 L216.774 1518.55 L208.464 1520.21 L208.464 1515.95 L216.728 1514.29 L221.404 1514.29 L221.404 1544.91 L229.043 1544.91 L229.043 1548.85 L209.136 1548.85 L209.136 1544.91 Z" fill="#000000" fill-rule="nonzero" fill-opacity="1" /><path clip-path="url(#clip220)" d="M731.368 1544.91 L747.688 1544.91 L747.688 1548.85 L725.743 1548.85 L725.743 1544.91 Q728.405 1542.16 732.989 1537.53 Q737.595 1532.88 738.776 1531.53 Q741.021 1529.01 741.901 1527.27 Q742.803 1525.51 742.803 1523.82 Q742.803 1521.07 740.859 1519.33 Q738.938 1517.6 735.836 1517.6 Q733.637 1517.6 731.183 1518.36 Q728.752 1519.13 725.975 1520.68 L725.975 1515.95 Q728.799 1514.82 731.252 1514.24 Q733.706 1513.66 735.743 1513.66 Q741.113 1513.66 744.308 1516.35 Q747.502 1519.03 747.502 1523.52 Q747.502 1525.65 746.692 1527.57 Q745.905 1529.47 743.799 1532.07 Q743.22 1532.74 740.118 1535.95 Q737.016 1539.15 731.368 1544.91 Z" fill="#000000" fill-rule="nonzero" fill-opacity="1" /><path clip-path="url(#clip220)" d="M1258.92 1530.21 Q1262.28 1530.93 1264.16 1533.2 Q1266.05 1535.47 1266.05 1538.8 Q1266.05 1543.92 1262.54 1546.72 Q1259.02 1549.52 1252.54 1549.52 Q1250.36 1549.52 1248.05 1549.08 Q1245.75 1548.66 1243.3 1547.81 L1243.3 1543.29 Q1245.24 1544.43 1247.56 1545.01 Q1249.87 1545.58 1252.4 1545.58 Q1256.8 1545.58 1259.09 1543.85 Q1261.4 1542.11 1261.4 1538.8 Q1261.4 1535.75 1259.25 1534.03 Q1257.12 1532.3 1253.3 1532.3 L1249.27 1532.3 L1249.27 1528.45 L1253.48 1528.45 Q1256.93 1528.45 1258.76 1527.09 Q1260.59 1525.7 1260.59 1523.11 Q1260.59 1520.45 1258.69 1519.03 Q1256.82 1517.6 1253.3 1517.6 Q1251.38 1517.6 1249.18 1518.01 Q1246.98 1518.43 1244.34 1519.31 L1244.34 1515.14 Q1247 1514.4 1249.32 1514.03 Q1251.66 1513.66 1253.72 1513.66 Q1259.04 1513.66 1262.14 1516.09 Q1265.24 1518.5 1265.24 1522.62 Q1265.24 1525.49 1263.6 1527.48 Q1261.96 1529.45 1258.92 1530.21 Z" fill="#000000" fill-rule="nonzero" fill-opacity="1" /><path clip-path="url(#clip220)" d="M1775.65 1518.36 L1763.84 1536.81 L1775.65 1536.81 L1775.65 1518.36 M1774.42 1514.29 L1780.3 1514.29 L1780.3 1536.81 L1785.23 1536.81 L1785.23 1540.7 L1780.3 1540.7 L1780.3 1548.85 L1775.65 1548.85 L1775.65 1540.7 L1760.05 1540.7 L1760.05 1536.19 L1774.42 1514.29 Z" fill="#000000" fill-rule="nonzero" fill-opacity="1" /><path clip-path="url(#clip220)" d="M2280.88 1514.29 L2299.23 1514.29 L2299.23 1518.22 L2285.16 1518.22 L2285.16 1526.7 Q2286.18 1526.35 2287.2 1526.19 Q2288.22 1526 2289.23 1526 Q2295.02 1526 2298.4 1529.17 Q2301.78 1532.34 2301.78 1537.76 Q2301.78 1543.34 2298.31 1546.44 Q2294.84 1549.52 2288.52 1549.52 Q2286.34 1549.52 2284.07 1549.15 Q2281.83 1548.78 2279.42 1548.04 L2279.42 1543.34 Q2281.5 1544.47 2283.73 1545.03 Q2285.95 1545.58 2288.42 1545.58 Q2292.43 1545.58 2294.77 1543.48 Q2297.11 1541.37 2297.11 1537.76 Q2297.11 1534.15 2294.77 1532.04 Q2292.43 1529.94 2288.42 1529.94 Q2286.55 1529.94 2284.67 1530.35 Q2282.82 1530.77 2280.88 1531.65 L2280.88 1514.29 Z" fill="#000000" fill-rule="nonzero" fill-opacity="1" /><polyline clip-path="url(#clip222)" style="stroke:#000000; stroke-linecap:round; stroke-linejoin:round; stroke-width:2; stroke-opacity:0.1; fill:none" points="156.598,1447.55 2352.76,1447.55 "/>
<polyline clip-path="url(#clip222)" style="stroke:#000000; stroke-linecap:round; stroke-linejoin:round; stroke-width:2; stroke-opacity:0.1; fill:none" points="156.598,1188.57 2352.76,1188.57 "/>
<polyline clip-path="url(#clip222)" style="stroke:#000000; stroke-linecap:round; stroke-linejoin:round; stroke-width:2; stroke-opacity:0.1; fill:none" points="156.598,929.59 2352.76,929.59 "/>
<polyline clip-path="url(#clip222)" style="stroke:#000000; stroke-linecap:round; stroke-linejoin:round; stroke-width:2; stroke-opacity:0.1; fill:none" points="156.598,670.609 2352.76,670.609 "/>
<polyline clip-path="url(#clip222)" style="stroke:#000000; stroke-linecap:round; stroke-linejoin:round; stroke-width:2; stroke-opacity:0.1; fill:none" points="156.598,411.628 2352.76,411.628 "/>
<polyline clip-path="url(#clip222)" style="stroke:#000000; stroke-linecap:round; stroke-linejoin:round; stroke-width:2; stroke-opacity:0.1; fill:none" points="156.598,152.647 2352.76,152.647 "/>
<polyline clip-path="url(#clip220)" style="stroke:#000000; stroke-linecap:round; stroke-linejoin:round; stroke-width:4; stroke-opacity:1; fill:none" points="156.598,1486.45 156.598,47.2441 "/>
<polyline clip-path="url(#clip220)" style="stroke:#000000; stroke-linecap:round; stroke-linejoin:round; stroke-width:4; stroke-opacity:1; fill:none" points="156.598,1447.55 175.496,1447.55 "/>
<polyline clip-path="url(#clip220)" style="stroke:#000000; stroke-linecap:round; stroke-linejoin:round; stroke-width:4; stroke-opacity:1; fill:none" points="156.598,1188.57 175.496,1188.57 "/>
<polyline clip-path="url(#clip220)" style="stroke:#000000; stroke-linecap:round; stroke-linejoin:round; stroke-width:4; stroke-opacity:1; fill:none" points="156.598,929.59 175.496,929.59 "/>
<polyline clip-path="url(#clip220)" style="stroke:#000000; stroke-linecap:round; stroke-linejoin:round; stroke-width:4; stroke-opacity:1; fill:none" points="156.598,670.609 175.496,670.609 "/>
<polyline clip-path="url(#clip220)" style="stroke:#000000; stroke-linecap:round; stroke-linejoin:round; stroke-width:4; stroke-opacity:1; fill:none" points="156.598,411.628 175.496,411.628 "/>
<polyline clip-path="url(#clip220)" style="stroke:#000000; stroke-linecap:round; stroke-linejoin:round; stroke-width:4; stroke-opacity:1; fill:none" points="156.598,152.647 175.496,152.647 "/>
<path clip-path="url(#clip220)" d="M13.6544 1448 L43.3301 1448 L43.3301 1451.94 L13.6544 1451.94 L13.6544 1448 Z" fill="#000000" fill-rule="nonzero" fill-opacity="1" /><path clip-path="url(#clip220)" d="M54.2328 1460.9 L61.8717 1460.9 L61.8717 1434.53 L53.5616 1436.2 L53.5616 1431.94 L61.8254 1430.27 L66.5013 1430.27 L66.5013 1460.9 L74.1402 1460.9 L74.1402 1464.83 L54.2328 1464.83 L54.2328 1460.9 Z" fill="#000000" fill-rule="nonzero" fill-opacity="1" /><path clip-path="url(#clip220)" d="M83.5845 1458.95 L88.4688 1458.95 L88.4688 1464.83 L83.5845 1464.83 L83.5845 1458.95 Z" fill="#000000" fill-rule="nonzero" fill-opacity="1" /><path clip-path="url(#clip220)" d="M108.654 1433.35 Q105.043 1433.35 103.214 1436.91 Q101.409 1440.46 101.409 1447.59 Q101.409 1454.69 103.214 1458.26 Q105.043 1461.8 108.654 1461.8 Q112.288 1461.8 114.094 1458.26 Q115.922 1454.69 115.922 1447.59 Q115.922 1440.46 114.094 1436.91 Q112.288 1433.35 108.654 1433.35 M108.654 1429.65 Q114.464 1429.65 117.52 1434.25 Q120.598 1438.84 120.598 1447.59 Q120.598 1456.31 117.52 1460.92 Q114.464 1465.5 108.654 1465.5 Q102.844 1465.5 99.765 1460.92 Q96.7095 1456.31 96.7095 1447.59 Q96.7095 1438.84 99.765 1434.25 Q102.844 1429.65 108.654 1429.65 Z" fill="#000000" fill-rule="nonzero" fill-opacity="1" /><path clip-path="url(#clip220)" d="M14.6497 1189.02 L44.3255 1189.02 L44.3255 1192.96 L14.6497 1192.96 L14.6497 1189.02 Z" fill="#000000" fill-rule="nonzero" fill-opacity="1" /><path clip-path="url(#clip220)" d="M64.418 1174.37 Q60.8069 1174.37 58.9782 1177.93 Q57.1726 1181.48 57.1726 1188.61 Q57.1726 1195.71 58.9782 1199.28 Q60.8069 1202.82 64.418 1202.82 Q68.0522 1202.82 69.8578 1199.28 Q71.6865 1195.71 71.6865 1188.61 Q71.6865 1181.48 69.8578 1177.93 Q68.0522 1174.37 64.418 1174.37 M64.418 1170.67 Q70.2281 1170.67 73.2837 1175.27 Q76.3624 1179.86 76.3624 1188.61 Q76.3624 1197.33 73.2837 1201.94 Q70.2281 1206.52 64.418 1206.52 Q58.6078 1206.52 55.5291 1201.94 Q52.4736 1197.33 52.4736 1188.61 Q52.4736 1179.86 55.5291 1175.27 Q58.6078 1170.67 64.418 1170.67 Z" fill="#000000" fill-rule="nonzero" fill-opacity="1" /><path clip-path="url(#clip220)" d="M84.5799 1199.97 L89.4641 1199.97 L89.4641 1205.85 L84.5799 1205.85 L84.5799 1199.97 Z" fill="#000000" fill-rule="nonzero" fill-opacity="1" /><path clip-path="url(#clip220)" d="M99.6956 1171.29 L118.052 1171.29 L118.052 1175.23 L103.978 1175.23 L103.978 1183.7 Q104.996 1183.35 106.015 1183.19 Q107.033 1183 108.052 1183 Q113.839 1183 117.219 1186.17 Q120.598 1189.35 120.598 1194.76 Q120.598 1200.34 117.126 1203.44 Q113.654 1206.52 107.334 1206.52 Q105.159 1206.52 102.89 1206.15 Q100.645 1205.78 98.2372 1205.04 L98.2372 1200.34 Q100.321 1201.48 102.543 1202.03 Q104.765 1202.59 107.242 1202.59 Q111.246 1202.59 113.584 1200.48 Q115.922 1198.37 115.922 1194.76 Q115.922 1191.15 113.584 1189.04 Q111.246 1186.94 107.242 1186.94 Q105.367 1186.94 103.492 1187.36 Q101.64 1187.77 99.6956 1188.65 L99.6956 1171.29 Z" fill="#000000" fill-rule="nonzero" fill-opacity="1" /><path clip-path="url(#clip220)" d="M63.4226 915.388 Q59.8115 915.388 57.9828 918.953 Q56.1773 922.495 56.1773 929.624 Q56.1773 936.731 57.9828 940.295 Q59.8115 943.837 63.4226 943.837 Q67.0569 943.837 68.8624 940.295 Q70.6911 936.731 70.6911 929.624 Q70.6911 922.495 68.8624 918.953 Q67.0569 915.388 63.4226 915.388 M63.4226 911.685 Q69.2328 911.685 72.2883 916.291 Q75.367 920.874 75.367 929.624 Q75.367 938.351 72.2883 942.958 Q69.2328 947.541 63.4226 947.541 Q57.6125 947.541 54.5338 942.958 Q51.4782 938.351 51.4782 929.624 Q51.4782 920.874 54.5338 916.291 Q57.6125 911.685 63.4226 911.685 Z" fill="#000000" fill-rule="nonzero" fill-opacity="1" /><path clip-path="url(#clip220)" d="M83.5845 940.99 L88.4688 940.99 L88.4688 946.87 L83.5845 946.87 L83.5845 940.99 Z" fill="#000000" fill-rule="nonzero" fill-opacity="1" /><path clip-path="url(#clip220)" d="M108.654 915.388 Q105.043 915.388 103.214 918.953 Q101.409 922.495 101.409 929.624 Q101.409 936.731 103.214 940.295 Q105.043 943.837 108.654 943.837 Q112.288 943.837 114.094 940.295 Q115.922 936.731 115.922 929.624 Q115.922 922.495 114.094 918.953 Q112.288 915.388 108.654 915.388 M108.654 911.685 Q114.464 911.685 117.52 916.291 Q120.598 920.874 120.598 929.624 Q120.598 938.351 117.52 942.958 Q114.464 947.541 108.654 947.541 Q102.844 947.541 99.765 942.958 Q96.7095 938.351 96.7095 929.624 Q96.7095 920.874 99.765 916.291 Q102.844 911.685 108.654 911.685 Z" fill="#000000" fill-rule="nonzero" fill-opacity="1" /><path clip-path="url(#clip220)" d="M64.418 656.407 Q60.8069 656.407 58.9782 659.972 Q57.1726 663.514 57.1726 670.643 Q57.1726 677.75 58.9782 681.315 Q60.8069 684.856 64.418 684.856 Q68.0522 684.856 69.8578 681.315 Q71.6865 677.75 71.6865 670.643 Q71.6865 663.514 69.8578 659.972 Q68.0522 656.407 64.418 656.407 M64.418 652.704 Q70.2281 652.704 73.2837 657.31 Q76.3624 661.893 76.3624 670.643 Q76.3624 679.37 73.2837 683.977 Q70.2281 688.56 64.418 688.56 Q58.6078 688.56 55.5291 683.977 Q52.4736 679.37 52.4736 670.643 Q52.4736 661.893 55.5291 657.31 Q58.6078 652.704 64.418 652.704 Z" fill="#000000" fill-rule="nonzero" fill-opacity="1" /><path clip-path="url(#clip220)" d="M84.5799 682.009 L89.4641 682.009 L89.4641 687.889 L84.5799 687.889 L84.5799 682.009 Z" fill="#000000" fill-rule="nonzero" fill-opacity="1" /><path clip-path="url(#clip220)" d="M99.6956 653.329 L118.052 653.329 L118.052 657.264 L103.978 657.264 L103.978 665.736 Q104.996 665.389 106.015 665.227 Q107.033 665.042 108.052 665.042 Q113.839 665.042 117.219 668.213 Q120.598 671.384 120.598 676.801 Q120.598 682.379 117.126 685.481 Q113.654 688.56 107.334 688.56 Q105.159 688.56 102.89 688.19 Q100.645 687.819 98.2372 687.078 L98.2372 682.379 Q100.321 683.514 102.543 684.069 Q104.765 684.625 107.242 684.625 Q111.246 684.625 113.584 682.518 Q115.922 680.412 115.922 676.801 Q115.922 673.19 113.584 671.083 Q111.246 668.977 107.242 668.977 Q105.367 668.977 103.492 669.393 Q101.64 669.81 99.6956 670.69 L99.6956 653.329 Z" fill="#000000" fill-rule="nonzero" fill-opacity="1" /><path clip-path="url(#clip220)" d="M54.2328 424.973 L61.8717 424.973 L61.8717 398.607 L53.5616 400.274 L53.5616 396.014 L61.8254 394.348 L66.5013 394.348 L66.5013 424.973 L74.1402 424.973 L74.1402 428.908 L54.2328 428.908 L54.2328 424.973 Z" fill="#000000" fill-rule="nonzero" fill-opacity="1" /><path clip-path="url(#clip220)" d="M83.5845 423.028 L88.4688 423.028 L88.4688 428.908 L83.5845 428.908 L83.5845 423.028 Z" fill="#000000" fill-rule="nonzero" fill-opacity="1" /><path clip-path="url(#clip220)" d="M108.654 397.426 Q105.043 397.426 103.214 400.991 Q101.409 404.533 101.409 411.663 Q101.409 418.769 103.214 422.334 Q105.043 425.875 108.654 425.875 Q112.288 425.875 114.094 422.334 Q115.922 418.769 115.922 411.663 Q115.922 404.533 114.094 400.991 Q112.288 397.426 108.654 397.426 M108.654 393.723 Q114.464 393.723 117.52 398.329 Q120.598 402.913 120.598 411.663 Q120.598 420.389 117.52 424.996 Q114.464 429.579 108.654 429.579 Q102.844 429.579 99.765 424.996 Q96.7095 420.389 96.7095 411.663 Q96.7095 402.913 99.765 398.329 Q102.844 393.723 108.654 393.723 Z" fill="#000000" fill-rule="nonzero" fill-opacity="1" /><path clip-path="url(#clip220)" d="M55.2282 165.992 L62.8671 165.992 L62.8671 139.626 L54.5569 141.293 L54.5569 137.034 L62.8208 135.367 L67.4967 135.367 L67.4967 165.992 L75.1355 165.992 L75.1355 169.927 L55.2282 169.927 L55.2282 165.992 Z" fill="#000000" fill-rule="nonzero" fill-opacity="1" /><path clip-path="url(#clip220)" d="M84.5799 164.047 L89.4641 164.047 L89.4641 169.927 L84.5799 169.927 L84.5799 164.047 Z" fill="#000000" fill-rule="nonzero" fill-opacity="1" /><path clip-path="url(#clip220)" d="M99.6956 135.367 L118.052 135.367 L118.052 139.302 L103.978 139.302 L103.978 147.774 Q104.996 147.427 106.015 147.265 Q107.033 147.08 108.052 147.08 Q113.839 147.08 117.219 150.251 Q120.598 153.422 120.598 158.839 Q120.598 164.418 117.126 167.52 Q113.654 170.598 107.334 170.598 Q105.159 170.598 102.89 170.228 Q100.645 169.858 98.2372 169.117 L98.2372 164.418 Q100.321 165.552 102.543 166.108 Q104.765 166.663 107.242 166.663 Q111.246 166.663 113.584 164.557 Q115.922 162.45 115.922 158.839 Q115.922 155.228 113.584 153.121 Q111.246 151.015 107.242 151.015 Q105.367 151.015 103.492 151.432 Q101.64 151.848 99.6956 152.728 L99.6956 135.367 Z" fill="#000000" fill-rule="nonzero" fill-opacity="1" /><polyline clip-path="url(#clip222)" style="stroke:#009af9; stroke-linecap:round; stroke-linejoin:round; stroke-width:4; stroke-opacity:1; fill:none" points="218.754,610.557 736.715,828.204 1254.68,923.135 1772.64,767.989 2290.6,870.128 "/>
<circle clip-path="url(#clip222)" cx="218.754" cy="610.557" r="14.4" fill="#e26f46" fill-rule="evenodd" fill-opacity="1" stroke="#000000" stroke-opacity="1" stroke-width="3.2"/>
<circle clip-path="url(#clip222)" cx="736.715" cy="828.204" r="14.4" fill="#e26f46" fill-rule="evenodd" fill-opacity="1" stroke="#000000" stroke-opacity="1" stroke-width="3.2"/>
<circle clip-path="url(#clip222)" cx="1254.68" cy="923.135" r="14.4" fill="#e26f46" fill-rule="evenodd" fill-opacity="1" stroke="#000000" stroke-opacity="1" stroke-width="3.2"/>
<circle clip-path="url(#clip222)" cx="1772.64" cy="767.989" r="14.4" fill="#e26f46" fill-rule="evenodd" fill-opacity="1" stroke="#000000" stroke-opacity="1" stroke-width="3.2"/>
<circle clip-path="url(#clip222)" cx="2290.6" cy="870.128" r="14.4" fill="#e26f46" fill-rule="evenodd" fill-opacity="1" stroke="#000000" stroke-opacity="1" stroke-width="3.2"/>
</svg>
