<?xml version="1.0" encoding="utf-8"?>
<svg xmlns="http://www.w3.org/2000/svg" xmlns:xlink="http://www.w3.org/1999/xlink" width="500" height="400" viewBox="0 0 2000 1600">
<defs>
  <clipPath id="clip250">
    <rect x="0" y="0" width="2000" height="1600"/>
  </clipPath>
</defs>
<path clip-path="url(#clip250)" d="
M0 1600 L2000 1600 L2000 0 L0 0  Z
  " fill="#ffffff" fill-rule="evenodd" fill-opacity="1"/>
<defs>
  <clipPath id="clip251">
    <rect x="400" y="0" width="1401" height="1401"/>
  </clipPath>
</defs>
<path clip-path="url(#clip250)" d="
M47.2441 1406.76 L1952.76 1406.76 L1952.76 47.2441 L47.2441 47.2441  Z
  " fill="#ffffff" fill-rule="evenodd" fill-opacity="1"/>
<defs>
  <clipPath id="clip252">
    <rect x="47" y="47" width="1907" height="1361"/>
  </clipPath>
</defs>
<polyline clip-path="url(#clip250)" style="stroke:#000000; stroke-linecap:butt; stroke-linejoin:round; stroke-width:4; stroke-opacity:1; fill:none" points="
  47.2441,1406.76 1952.76,1406.76 
  "/>
<polyline clip-path="url(#clip250)" style="stroke:#000000; stroke-linecap:butt; stroke-linejoin:round; stroke-width:4; stroke-opacity:1; fill:none" points="
  101.174,1406.76 101.174,1387.87 
  "/>
<polyline clip-path="url(#clip250)" style="stroke:#000000; stroke-linecap:butt; stroke-linejoin:round; stroke-width:4; stroke-opacity:1; fill:none" points="
  550.587,1406.76 550.587,1387.87 
  "/>
<polyline clip-path="url(#clip250)" style="stroke:#000000; stroke-linecap:butt; stroke-linejoin:round; stroke-width:4; stroke-opacity:1; fill:none" points="
  1000,1406.76 1000,1387.87 
  "/>
<polyline clip-path="url(#clip250)" style="stroke:#000000; stroke-linecap:butt; stroke-linejoin:round; stroke-width:4; stroke-opacity:1; fill:none" points="
  1449.41,1406.76 1449.41,1387.87 
  "/>
<polyline clip-path="url(#clip250)" style="stroke:#000000; stroke-linecap:butt; stroke-linejoin:round; stroke-width:4; stroke-opacity:1; fill:none" points="
  1898.83,1406.76 1898.83,1387.87 
  "/>
<path clip-path="url(#clip250)" d="M55.2364 1449.14 L84.9122 1449.14 L84.9122 1453.07 L55.2364 1453.07 L55.2364 1449.14 Z" fill="#000000" fill-rule="evenodd" fill-opacity="1" /><path clip-path="url(#clip250)" d="M95.8149 1462.03 L103.454 1462.03 L103.454 1435.66 L95.1436 1437.33 L95.1436 1433.07 L103.407 1431.4 L108.083 1431.4 L108.083 1462.03 L115.722 1462.03 L115.722 1465.96 L95.8149 1465.96 L95.8149 1462.03 Z" fill="#000000" fill-rule="evenodd" fill-opacity="1" /><path clip-path="url(#clip250)" d="M135.167 1434.48 Q131.555 1434.48 129.727 1438.05 Q127.921 1441.59 127.921 1448.72 Q127.921 1455.83 129.727 1459.39 Q131.555 1462.93 135.167 1462.93 Q138.801 1462.93 140.606 1459.39 Q142.435 1455.83 142.435 1448.72 Q142.435 1441.59 140.606 1438.05 Q138.801 1434.48 135.167 1434.48 M135.167 1430.78 Q140.977 1430.78 144.032 1435.39 Q147.111 1439.97 147.111 1448.72 Q147.111 1457.45 144.032 1462.05 Q140.977 1466.64 135.167 1466.64 Q129.356 1466.64 126.278 1462.05 Q123.222 1457.45 123.222 1448.72 Q123.222 1439.97 126.278 1435.39 Q129.356 1430.78 135.167 1430.78 Z" fill="#000000" fill-rule="evenodd" fill-opacity="1" /><path clip-path="url(#clip250)" d="M520.228 1449.14 L549.904 1449.14 L549.904 1453.07 L520.228 1453.07 L520.228 1449.14 Z" fill="#000000" fill-rule="evenodd" fill-opacity="1" /><path clip-path="url(#clip250)" d="M560.043 1431.4 L578.399 1431.4 L578.399 1435.34 L564.325 1435.34 L564.325 1443.81 Q565.344 1443.46 566.362 1443.3 Q567.381 1443.12 568.399 1443.12 Q574.186 1443.12 577.566 1446.29 Q580.945 1449.46 580.945 1454.88 Q580.945 1460.45 577.473 1463.56 Q574.001 1466.64 567.682 1466.64 Q565.506 1466.64 563.237 1466.26 Q560.992 1465.89 558.584 1465.15 L558.584 1460.45 Q560.668 1461.59 562.89 1462.14 Q565.112 1462.7 567.589 1462.7 Q571.594 1462.7 573.932 1460.59 Q576.27 1458.49 576.27 1454.88 Q576.27 1451.26 573.932 1449.16 Q571.594 1447.05 567.589 1447.05 Q565.714 1447.05 563.839 1447.47 Q561.987 1447.89 560.043 1448.76 L560.043 1431.4 Z" fill="#000000" fill-rule="evenodd" fill-opacity="1" /><path clip-path="url(#clip250)" d="M1000 1434.48 Q996.389 1434.48 994.56 1438.05 Q992.755 1441.59 992.755 1448.72 Q992.755 1455.83 994.56 1459.39 Q996.389 1462.93 1000 1462.93 Q1003.63 1462.93 1005.44 1459.39 Q1007.27 1455.83 1007.27 1448.72 Q1007.27 1441.59 1005.44 1438.05 Q1003.63 1434.48 1000 1434.48 M1000 1430.78 Q1005.81 1430.78 1008.87 1435.39 Q1011.94 1439.97 1011.94 1448.72 Q1011.94 1457.45 1008.87 1462.05 Q1005.81 1466.64 1000 1466.64 Q994.19 1466.64 991.111 1462.05 Q988.056 1457.45 988.056 1448.72 Q988.056 1439.97 991.111 1435.39 Q994.19 1430.78 1000 1430.78 Z" fill="#000000" fill-rule="evenodd" fill-opacity="1" /><path clip-path="url(#clip250)" d="M1439.69 1431.4 L1458.05 1431.4 L1458.05 1435.34 L1443.97 1435.34 L1443.97 1443.81 Q1444.99 1443.46 1446.01 1443.3 Q1447.03 1443.12 1448.05 1443.12 Q1453.83 1443.12 1457.21 1446.29 Q1460.59 1449.46 1460.59 1454.88 Q1460.59 1460.45 1457.12 1463.56 Q1453.65 1466.64 1447.33 1466.64 Q1445.15 1466.64 1442.89 1466.26 Q1440.64 1465.89 1438.23 1465.15 L1438.23 1460.45 Q1440.32 1461.59 1442.54 1462.14 Q1444.76 1462.7 1447.24 1462.7 Q1451.24 1462.7 1453.58 1460.59 Q1455.92 1458.49 1455.92 1454.88 Q1455.92 1451.26 1453.58 1449.16 Q1451.24 1447.05 1447.24 1447.05 Q1445.36 1447.05 1443.49 1447.47 Q1441.64 1447.89 1439.69 1448.76 L1439.69 1431.4 Z" fill="#000000" fill-rule="evenodd" fill-opacity="1" /><path clip-path="url(#clip250)" d="M1873.51 1462.03 L1881.15 1462.03 L1881.15 1435.66 L1872.84 1437.33 L1872.84 1433.07 L1881.11 1431.4 L1885.78 1431.4 L1885.78 1462.03 L1893.42 1462.03 L1893.42 1465.96 L1873.51 1465.96 L1873.51 1462.03 Z" fill="#000000" fill-rule="evenodd" fill-opacity="1" /><path clip-path="url(#clip250)" d="M1912.87 1434.48 Q1909.25 1434.48 1907.43 1438.05 Q1905.62 1441.59 1905.62 1448.72 Q1905.62 1455.83 1907.43 1459.39 Q1909.25 1462.93 1912.87 1462.93 Q1916.5 1462.93 1918.31 1459.39 Q1920.13 1455.83 1920.13 1448.72 Q1920.13 1441.59 1918.31 1438.05 Q1916.5 1434.48 1912.87 1434.48 M1912.87 1430.78 Q1918.68 1430.78 1921.73 1435.39 Q1924.81 1439.97 1924.81 1448.72 Q1924.81 1457.45 1921.73 1462.05 Q1918.68 1466.64 1912.87 1466.64 Q1907.06 1466.64 1903.98 1462.05 Q1900.92 1457.45 1900.92 1448.72 Q1900.92 1439.97 1903.98 1435.39 Q1907.06 1430.78 1912.87 1430.78 Z" fill="#000000" fill-rule="evenodd" fill-opacity="1" /><path clip-path="url(#clip250)" d="M930.63 1545.63 L912.487 1498.11 L919.203 1498.11 L934.258 1538.12 L949.345 1498.11 L956.029 1498.11 L937.918 1545.63 L930.63 1545.63 Z" fill="#000000" fill-rule="evenodd" fill-opacity="1" /><path clip-path="url(#clip250)" d="M973.853 1527.71 Q966.755 1527.71 964.018 1529.33 Q961.281 1530.95 961.281 1534.87 Q961.281 1537.99 963.318 1539.84 Q965.386 1541.65 968.919 1541.65 Q973.789 1541.65 976.717 1538.21 Q979.677 1534.74 979.677 1529.01 L979.677 1527.71 L973.853 1527.71 M985.534 1525.29 L985.534 1545.63 L979.677 1545.63 L979.677 1540.22 Q977.672 1543.46 974.68 1545.02 Q971.689 1546.55 967.36 1546.55 Q961.885 1546.55 958.639 1543.5 Q955.424 1540.41 955.424 1535.25 Q955.424 1529.24 959.435 1526.18 Q963.477 1523.13 971.466 1523.13 L979.677 1523.13 L979.677 1522.55 Q979.677 1518.51 977.004 1516.31 Q974.362 1514.09 969.556 1514.09 Q966.5 1514.09 963.604 1514.82 Q960.708 1515.55 958.034 1517.01 L958.034 1511.6 Q961.249 1510.36 964.272 1509.76 Q967.296 1509.12 970.161 1509.12 Q977.895 1509.12 981.715 1513.13 Q985.534 1517.14 985.534 1525.29 Z" fill="#000000" fill-rule="evenodd" fill-opacity="1" /><path clip-path="url(#clip250)" d="M997.597 1496.1 L1003.45 1496.1 L1003.45 1545.63 L997.597 1545.63 L997.597 1496.1 Z" fill="#000000" fill-rule="evenodd" fill-opacity="1" /><path clip-path="url(#clip250)" d="M1015.1 1531.56 L1015.1 1509.98 L1020.96 1509.98 L1020.96 1531.34 Q1020.96 1536.4 1022.93 1538.94 Q1024.91 1541.46 1028.85 1541.46 Q1033.6 1541.46 1036.33 1538.43 Q1039.1 1535.41 1039.1 1530.19 L1039.1 1509.98 L1044.96 1509.98 L1044.96 1545.63 L1039.1 1545.63 L1039.1 1540.15 Q1036.97 1543.4 1034.14 1544.99 Q1031.34 1546.55 1027.61 1546.55 Q1021.47 1546.55 1018.29 1542.73 Q1015.1 1538.91 1015.1 1531.56 M1029.84 1509.12 L1029.84 1509.12 Z" fill="#000000" fill-rule="evenodd" fill-opacity="1" /><path clip-path="url(#clip250)" d="M1087.51 1526.34 L1087.51 1529.2 L1060.59 1529.2 Q1060.97 1535.25 1064.21 1538.43 Q1067.49 1541.59 1073.32 1541.59 Q1076.69 1541.59 1079.84 1540.76 Q1083.02 1539.93 1086.14 1538.28 L1086.14 1543.81 Q1082.99 1545.15 1079.68 1545.85 Q1076.37 1546.55 1072.97 1546.55 Q1064.44 1546.55 1059.44 1541.59 Q1054.47 1536.62 1054.47 1528.15 Q1054.47 1519.4 1059.19 1514.28 Q1063.93 1509.12 1071.95 1509.12 Q1079.14 1509.12 1083.31 1513.77 Q1087.51 1518.38 1087.51 1526.34 M1081.66 1524.62 Q1081.59 1519.81 1078.95 1516.95 Q1076.34 1514.09 1072.01 1514.09 Q1067.11 1514.09 1064.15 1516.85 Q1061.22 1519.62 1060.78 1524.65 L1081.66 1524.62 Z" fill="#000000" fill-rule="evenodd" fill-opacity="1" /><polyline clip-path="url(#clip252)" style="stroke:#ff0000; stroke-linecap:butt; stroke-linejoin:round; stroke-width:4; stroke-opacity:1; fill:none" stroke-dasharray="16, 10" points="
  101.174,1358.1 119.332,1357.68 137.49,1357.24 155.648,1356.76 173.806,1356.26 191.964,1355.72 210.122,1355.14 228.28,1354.52 246.439,1353.86 264.597,1353.15 
  282.755,1352.38 300.913,1351.56 319.071,1350.67 337.229,1349.71 355.387,1348.67 373.545,1347.54 391.703,1346.31 409.862,1344.97 428.02,1343.5 446.178,1341.89 
  464.336,1340.12 482.494,1338.17 500.652,1336.01 518.81,1333.61 536.968,1330.94 555.126,1327.95 573.284,1324.59 591.443,1320.8 609.601,1316.51 627.759,1311.62 
  645.917,1306.02 664.075,1299.57 682.233,1292.09 700.391,1283.36 718.549,1273.09 736.707,1260.93 754.866,1246.39 773.024,1228.86 791.182,1207.51 809.34,1181.26 
  827.498,1148.66 845.656,1107.8 863.814,1056.19 881.972,990.734 900.13,907.986 918.289,805.131 936.447,682.548 954.605,548.756 972.763,426.221 990.921,350.102 
  1009.08,350.102 1027.24,426.221 1045.4,548.756 1063.55,682.548 1081.71,805.131 1099.87,907.986 1118.03,990.734 1136.19,1056.19 1154.34,1107.8 1172.5,1148.66 
  1190.66,1181.26 1208.82,1207.51 1226.98,1228.86 1245.13,1246.39 1263.29,1260.93 1281.45,1273.09 1299.61,1283.36 1317.77,1292.09 1335.92,1299.57 1354.08,1306.02 
  1372.24,1311.62 1390.4,1316.51 1408.56,1320.8 1426.72,1324.59 1444.87,1327.95 1463.03,1330.94 1481.19,1333.61 1499.35,1336.01 1517.51,1338.17 1535.66,1340.12 
  1553.82,1341.89 1571.98,1343.5 1590.14,1344.97 1608.3,1346.31 1626.45,1347.54 1644.61,1348.67 1662.77,1349.71 1680.93,1350.67 1699.09,1351.56 1717.25,1352.38 
  1735.4,1353.15 1753.56,1353.86 1771.72,1354.52 1789.88,1355.14 1808.04,1355.72 1826.19,1356.26 1844.35,1356.76 1862.51,1357.24 1880.67,1357.68 1898.83,1358.1 
  
  "/>
<polyline clip-path="url(#clip252)" style="stroke:#0000ff; stroke-linecap:butt; stroke-linejoin:round; stroke-width:4; stroke-opacity:1; fill:none" points="
  101.174,1368.29 119.332,1368.29 137.49,1368.29 155.648,1368.29 173.806,1368.29 191.964,1368.29 210.122,1368.29 228.28,1368.29 246.439,1368.29 264.597,1368.29 
  282.755,1368.29 300.913,1368.29 319.071,1368.29 337.229,1368.29 355.387,1368.29 373.545,1368.29 391.703,1368.29 409.862,1368.29 428.02,1368.29 446.178,1368.29 
  464.336,1368.29 482.494,1368.29 500.652,1368.29 518.81,1368.29 536.968,1368.28 555.126,1368.28 573.284,1368.27 591.443,1368.24 609.601,1368.18 627.759,1368.04 
  645.917,1367.74 664.075,1367.09 682.233,1365.8 700.391,1363.3 718.549,1358.71 736.707,1350.63 754.866,1337.02 773.024,1315.13 791.182,1281.54 809.34,1232.38 
  827.498,1163.89 845.656,1073.17 863.814,959.221 881.972,823.953 900.13,672.923 918.289,515.511 936.447,364.289 954.605,233.521 972.763,137.012 990.921,85.7211 
  1009.08,85.7211 1027.24,137.012 1045.4,233.521 1063.55,364.289 1081.71,515.511 1099.87,672.923 1118.03,823.953 1136.19,959.221 1154.34,1073.17 1172.5,1163.89 
  1190.66,1232.38 1208.82,1281.54 1226.98,1315.13 1245.13,1337.02 1263.29,1350.63 1281.45,1358.71 1299.61,1363.3 1317.77,1365.8 1335.92,1367.09 1354.08,1367.74 
  1372.24,1368.04 1390.4,1368.18 1408.56,1368.24 1426.72,1368.27 1444.87,1368.28 1463.03,1368.28 1481.19,1368.29 1499.35,1368.29 1517.51,1368.29 1535.66,1368.29 
  1553.82,1368.29 1571.98,1368.29 1590.14,1368.29 1608.3,1368.29 1626.45,1368.29 1644.61,1368.29 1662.77,1368.29 1680.93,1368.29 1699.09,1368.29 1717.25,1368.29 
  1735.4,1368.29 1753.56,1368.29 1771.72,1368.29 1789.88,1368.29 1808.04,1368.29 1826.19,1368.29 1844.35,1368.29 1862.51,1368.29 1880.67,1368.29 1898.83,1368.29 
  
  "/>
<path clip-path="url(#clip252)" d="
M1172.5 1148.66 L1190.66 1181.26 L1208.82 1207.51 L1226.98 1228.86 L1245.13 1246.39 L1263.29 1260.93 L1281.45 1273.09 L1299.61 1283.36 L1317.77 1292.09 L1335.92 1299.57 
  L1354.08 1306.02 L1372.24 1311.62 L1390.4 1316.51 L1408.56 1320.8 L1426.72 1324.59 L1444.87 1327.95 L1463.03 1330.94 L1481.19 1333.61 L1499.35 1336.01 L1517.51 1338.17 
  L1535.66 1340.12 L1553.82 1341.89 L1571.98 1343.5 L1590.14 1344.97 L1608.3 1346.31 L1626.45 1347.54 L1644.61 1348.67 L1662.77 1349.71 L1680.93 1350.67 L1699.09 1351.56 
  L1717.25 1352.38 L1735.4 1353.15 L1753.56 1353.86 L1771.72 1354.52 L1789.88 1355.14 L1808.04 1355.72 L1826.19 1356.26 L1844.35 1356.76 L1862.51 1357.24 L1880.67 1357.68 
  L1898.83 1358.1 L1898.83 1368.29 L1880.67 1368.29 L1862.51 1368.29 L1844.35 1368.29 L1826.19 1368.29 L1808.04 1368.29 L1789.88 1368.29 L1771.72 1368.29 L1753.56 1368.29 
  L1735.4 1368.29 L1717.25 1368.29 L1699.09 1368.29 L1680.93 1368.29 L1662.77 1368.29 L1644.61 1368.29 L1626.45 1368.29 L1608.3 1368.29 L1590.14 1368.29 L1571.98 1368.29 
  L1553.82 1368.29 L1535.66 1368.29 L1517.51 1368.29 L1499.35 1368.29 L1481.19 1368.29 L1463.03 1368.28 L1444.87 1368.28 L1426.72 1368.27 L1408.56 1368.24 L1390.4 1368.18 
  L1372.24 1368.04 L1354.08 1367.74 L1335.92 1367.09 L1317.77 1365.8 L1299.61 1363.3 L1281.45 1358.71 L1263.29 1350.63 L1245.13 1337.02 L1226.98 1315.13 L1208.82 1281.54 
  L1190.66 1232.38 L1172.5 1163.89  Z
  " fill="#ff0000" fill-rule="evenodd" fill-opacity="0.2"/>
<polyline clip-path="url(#clip252)" style="stroke:#000000; stroke-linecap:butt; stroke-linejoin:round; stroke-width:4; stroke-opacity:0; fill:none" points="
  1172.5,1148.66 1190.66,1181.26 1208.82,1207.51 1226.98,1228.86 1245.13,1246.39 1263.29,1260.93 1281.45,1273.09 1299.61,1283.36 1317.77,1292.09 1335.92,1299.57 
  1354.08,1306.02 1372.24,1311.62 1390.4,1316.51 1408.56,1320.8 1426.72,1324.59 1444.87,1327.95 1463.03,1330.94 1481.19,1333.61 1499.35,1336.01 1517.51,1338.17 
  1535.66,1340.12 1553.82,1341.89 1571.98,1343.5 1590.14,1344.97 1608.3,1346.31 1626.45,1347.54 1644.61,1348.67 1662.77,1349.71 1680.93,1350.67 1699.09,1351.56 
  1717.25,1352.38 1735.4,1353.15 1753.56,1353.86 1771.72,1354.52 1789.88,1355.14 1808.04,1355.72 1826.19,1356.26 1844.35,1356.76 1862.51,1357.24 1880.67,1357.68 
  1898.83,1358.1 
  "/>
<path clip-path="url(#clip250)" d="
M1216.2 248.081 L1889.24 248.081 L1889.24 92.5614 L1216.2 92.5614  Z
  " fill="#ffffff" fill-rule="evenodd" fill-opacity="1"/>
<polyline clip-path="url(#clip250)" style="stroke:#000000; stroke-linecap:butt; stroke-linejoin:round; stroke-width:4; stroke-opacity:1; fill:none" points="
  1216.2,248.081 1889.24,248.081 1889.24,92.5614 1216.2,92.5614 1216.2,248.081 
  "/>
<polyline clip-path="url(#clip250)" style="stroke:#ff0000; stroke-linecap:butt; stroke-linejoin:round; stroke-width:4; stroke-opacity:1; fill:none" stroke-dasharray="16, 10" points="
  1237.37,144.401 1364.4,144.401 
  "/>
<path clip-path="url(#clip250)" d="M1413.45 129.783 L1413.45 134.714 Q1411.09 132.515 1408.4 131.427 Q1405.74 130.339 1402.73 130.339 Q1396.8 130.339 1393.66 133.973 Q1390.51 137.584 1390.51 144.436 Q1390.51 151.265 1393.66 154.899 Q1396.8 158.51 1402.73 158.51 Q1405.74 158.51 1408.4 157.422 Q1411.09 156.334 1413.45 154.135 L1413.45 159.019 Q1410.99 160.686 1408.24 161.519 Q1405.51 162.353 1402.45 162.353 Q1394.6 162.353 1390.09 157.561 Q1385.58 152.746 1385.58 144.436 Q1385.58 136.103 1390.09 131.311 Q1394.6 126.496 1402.45 126.496 Q1405.55 126.496 1408.29 127.33 Q1411.04 128.14 1413.45 129.783 Z" fill="#000000" fill-rule="evenodd" fill-opacity="1" /><path clip-path="url(#clip250)" d="M1432.27 148.649 Q1427.1 148.649 1425.11 149.83 Q1423.12 151.01 1423.12 153.857 Q1423.12 156.126 1424.6 157.468 Q1426.11 158.788 1428.68 158.788 Q1432.22 158.788 1434.35 156.288 Q1436.5 153.765 1436.5 149.598 L1436.5 148.649 L1432.27 148.649 M1440.76 146.89 L1440.76 161.681 L1436.5 161.681 L1436.5 157.746 Q1435.04 160.107 1432.87 161.242 Q1430.69 162.353 1427.54 162.353 Q1423.56 162.353 1421.2 160.131 Q1418.86 157.885 1418.86 154.135 Q1418.86 149.76 1421.78 147.538 Q1424.72 145.316 1430.53 145.316 L1436.5 145.316 L1436.5 144.899 Q1436.5 141.959 1434.56 140.362 Q1432.64 138.742 1429.14 138.742 Q1426.92 138.742 1424.81 139.274 Q1422.71 139.807 1420.76 140.871 L1420.76 136.936 Q1423.1 136.033 1425.3 135.594 Q1427.5 135.131 1429.58 135.131 Q1435.21 135.131 1437.98 138.047 Q1440.76 140.964 1440.76 146.89 Z" fill="#000000" fill-rule="evenodd" fill-opacity="1" /><path clip-path="url(#clip250)" d="M1449.1 151.45 L1449.1 135.756 L1453.35 135.756 L1453.35 151.288 Q1453.35 154.968 1454.79 156.82 Q1456.22 158.649 1459.1 158.649 Q1462.54 158.649 1464.54 156.45 Q1466.55 154.251 1466.55 150.455 L1466.55 135.756 L1470.81 135.756 L1470.81 161.681 L1466.55 161.681 L1466.55 157.7 Q1465 160.061 1462.94 161.218 Q1460.9 162.353 1458.19 162.353 Q1453.72 162.353 1451.41 159.575 Q1449.1 156.797 1449.1 151.45 M1459.81 135.131 L1459.81 135.131 Z" fill="#000000" fill-rule="evenodd" fill-opacity="1" /><path clip-path="url(#clip250)" d="M1498.24 136.751 L1498.24 140.732 Q1496.43 139.737 1494.6 139.251 Q1492.8 138.742 1490.95 138.742 Q1486.8 138.742 1484.51 141.381 Q1482.22 143.996 1482.22 148.742 Q1482.22 153.487 1484.51 156.126 Q1486.8 158.742 1490.95 158.742 Q1492.8 158.742 1494.6 158.256 Q1496.43 157.746 1498.24 156.751 L1498.24 160.686 Q1496.46 161.519 1494.53 161.936 Q1492.64 162.353 1490.48 162.353 Q1484.63 162.353 1481.18 158.672 Q1477.73 154.992 1477.73 148.742 Q1477.73 142.399 1481.2 138.765 Q1484.7 135.131 1490.76 135.131 Q1492.73 135.131 1494.6 135.547 Q1496.48 135.941 1498.24 136.751 Z" fill="#000000" fill-rule="evenodd" fill-opacity="1" /><path clip-path="url(#clip250)" d="M1527.2 146.033 L1527.2 161.681 L1522.94 161.681 L1522.94 146.172 Q1522.94 142.492 1521.5 140.663 Q1520.07 138.834 1517.2 138.834 Q1513.75 138.834 1511.76 141.033 Q1509.77 143.232 1509.77 147.029 L1509.77 161.681 L1505.48 161.681 L1505.48 125.663 L1509.77 125.663 L1509.77 139.783 Q1511.29 137.445 1513.35 136.288 Q1515.44 135.131 1518.15 135.131 Q1522.61 135.131 1524.91 137.908 Q1527.2 140.663 1527.2 146.033 Z" fill="#000000" fill-rule="evenodd" fill-opacity="1" /><path clip-path="url(#clip250)" d="M1546.48 164.089 Q1544.67 168.718 1542.96 170.13 Q1541.25 171.542 1538.38 171.542 L1534.97 171.542 L1534.97 167.978 L1537.47 167.978 Q1539.23 167.978 1540.21 167.144 Q1541.18 166.311 1542.36 163.209 L1543.12 161.265 L1532.64 135.756 L1537.15 135.756 L1545.25 156.033 L1553.35 135.756 L1557.87 135.756 L1546.48 164.089 Z" fill="#000000" fill-rule="evenodd" fill-opacity="1" /><path clip-path="url(#clip250)" d="M1583.68 130.964 L1583.68 157.839 L1589.33 157.839 Q1596.48 157.839 1599.79 154.598 Q1603.12 151.357 1603.12 144.367 Q1603.12 137.422 1599.79 134.205 Q1596.48 130.964 1589.33 130.964 L1583.68 130.964 M1579 127.121 L1588.61 127.121 Q1598.65 127.121 1603.35 131.311 Q1608.05 135.478 1608.05 144.367 Q1608.05 153.302 1603.33 157.492 Q1598.61 161.681 1588.61 161.681 L1579 161.681 L1579 127.121 Z" fill="#000000" fill-rule="evenodd" fill-opacity="1" /><path clip-path="url(#clip250)" d="M1615.32 135.756 L1619.58 135.756 L1619.58 161.681 L1615.32 161.681 L1615.32 135.756 M1615.32 125.663 L1619.58 125.663 L1619.58 131.057 L1615.32 131.057 L1615.32 125.663 Z" fill="#000000" fill-rule="evenodd" fill-opacity="1" /><path clip-path="url(#clip250)" d="M1645.02 136.52 L1645.02 140.547 Q1643.21 139.621 1641.27 139.158 Q1639.33 138.695 1637.24 138.695 Q1634.07 138.695 1632.47 139.668 Q1630.9 140.64 1630.9 142.584 Q1630.9 144.066 1632.03 144.922 Q1633.17 145.756 1636.59 146.519 L1638.05 146.844 Q1642.59 147.816 1644.49 149.598 Q1646.41 151.357 1646.41 154.529 Q1646.41 158.14 1643.54 160.246 Q1640.69 162.353 1635.69 162.353 Q1633.61 162.353 1631.34 161.936 Q1629.09 161.543 1626.59 160.732 L1626.59 156.334 Q1628.96 157.561 1631.25 158.186 Q1633.54 158.788 1635.78 158.788 Q1638.79 158.788 1640.41 157.769 Q1642.03 156.728 1642.03 154.853 Q1642.03 153.117 1640.85 152.191 Q1639.7 151.265 1635.74 150.408 L1634.26 150.061 Q1630.3 149.228 1628.54 147.515 Q1626.78 145.779 1626.78 142.769 Q1626.78 139.112 1629.37 137.121 Q1631.96 135.131 1636.73 135.131 Q1639.09 135.131 1641.18 135.478 Q1643.26 135.825 1645.02 136.52 Z" fill="#000000" fill-rule="evenodd" fill-opacity="1" /><path clip-path="url(#clip250)" d="M1657.4 128.395 L1657.4 135.756 L1666.18 135.756 L1666.18 139.066 L1657.4 139.066 L1657.4 153.14 Q1657.4 156.311 1658.26 157.214 Q1659.14 158.117 1661.8 158.117 L1666.18 158.117 L1666.18 161.681 L1661.8 161.681 Q1656.87 161.681 1655 159.853 Q1653.12 158.001 1653.12 153.14 L1653.12 139.066 L1650 139.066 L1650 135.756 L1653.12 135.756 L1653.12 128.395 L1657.4 128.395 Z" fill="#000000" fill-rule="evenodd" fill-opacity="1" /><path clip-path="url(#clip250)" d="M1686.8 139.737 Q1686.08 139.32 1685.23 139.135 Q1684.4 138.927 1683.38 138.927 Q1679.77 138.927 1677.82 141.288 Q1675.9 143.626 1675.9 148.024 L1675.9 161.681 L1671.62 161.681 L1671.62 135.756 L1675.9 135.756 L1675.9 139.783 Q1677.24 137.422 1679.4 136.288 Q1681.55 135.131 1684.63 135.131 Q1685.07 135.131 1685.6 135.2 Q1686.13 135.246 1686.78 135.362 L1686.8 139.737 Z" fill="#000000" fill-rule="evenodd" fill-opacity="1" /><path clip-path="url(#clip250)" d="M1691.27 135.756 L1695.53 135.756 L1695.53 161.681 L1691.27 161.681 L1691.27 135.756 M1691.27 125.663 L1695.53 125.663 L1695.53 131.057 L1691.27 131.057 L1691.27 125.663 Z" fill="#000000" fill-rule="evenodd" fill-opacity="1" /><path clip-path="url(#clip250)" d="M1723.05 148.742 Q1723.05 144.043 1721.11 141.381 Q1719.19 138.695 1715.81 138.695 Q1712.43 138.695 1710.48 141.381 Q1708.56 144.043 1708.56 148.742 Q1708.56 153.441 1710.48 156.126 Q1712.43 158.788 1715.81 158.788 Q1719.19 158.788 1721.11 156.126 Q1723.05 153.441 1723.05 148.742 M1708.56 139.691 Q1709.9 137.376 1711.94 136.265 Q1714 135.131 1716.85 135.131 Q1721.57 135.131 1724.51 138.881 Q1727.47 142.631 1727.47 148.742 Q1727.47 154.853 1724.51 158.603 Q1721.57 162.353 1716.85 162.353 Q1714 162.353 1711.94 161.242 Q1709.9 160.107 1708.56 157.793 L1708.56 161.681 L1704.28 161.681 L1704.28 125.663 L1708.56 125.663 L1708.56 139.691 Z" fill="#000000" fill-rule="evenodd" fill-opacity="1" /><path clip-path="url(#clip250)" d="M1734.09 151.45 L1734.09 135.756 L1738.35 135.756 L1738.35 151.288 Q1738.35 154.968 1739.79 156.82 Q1741.22 158.649 1744.09 158.649 Q1747.54 158.649 1749.53 156.45 Q1751.55 154.251 1751.55 150.455 L1751.55 135.756 L1755.81 135.756 L1755.81 161.681 L1751.55 161.681 L1751.55 157.7 Q1750 160.061 1747.94 161.218 Q1745.9 162.353 1743.19 162.353 Q1738.72 162.353 1736.41 159.575 Q1734.09 156.797 1734.09 151.45 M1744.81 135.131 L1744.81 135.131 Z" fill="#000000" fill-rule="evenodd" fill-opacity="1" /><path clip-path="url(#clip250)" d="M1768.79 128.395 L1768.79 135.756 L1777.57 135.756 L1777.57 139.066 L1768.79 139.066 L1768.79 153.14 Q1768.79 156.311 1769.65 157.214 Q1770.53 158.117 1773.19 158.117 L1777.57 158.117 L1777.57 161.681 L1773.19 161.681 Q1768.26 161.681 1766.39 159.853 Q1764.51 158.001 1764.51 153.14 L1764.51 139.066 L1761.39 139.066 L1761.39 135.756 L1764.51 135.756 L1764.51 128.395 L1768.79 128.395 Z" fill="#000000" fill-rule="evenodd" fill-opacity="1" /><path clip-path="url(#clip250)" d="M1783.17 135.756 L1787.43 135.756 L1787.43 161.681 L1783.17 161.681 L1783.17 135.756 M1783.17 125.663 L1787.43 125.663 L1787.43 131.057 L1783.17 131.057 L1783.17 125.663 Z" fill="#000000" fill-rule="evenodd" fill-opacity="1" /><path clip-path="url(#clip250)" d="M1806.39 138.742 Q1802.96 138.742 1800.97 141.427 Q1798.98 144.089 1798.98 148.742 Q1798.98 153.394 1800.95 156.08 Q1802.94 158.742 1806.39 158.742 Q1809.79 158.742 1811.78 156.056 Q1813.77 153.371 1813.77 148.742 Q1813.77 144.135 1811.78 141.45 Q1809.79 138.742 1806.39 138.742 M1806.39 135.131 Q1811.94 135.131 1815.11 138.742 Q1818.28 142.353 1818.28 148.742 Q1818.28 155.107 1815.11 158.742 Q1811.94 162.353 1806.39 162.353 Q1800.81 162.353 1797.64 158.742 Q1794.49 155.107 1794.49 148.742 Q1794.49 142.353 1797.64 138.742 Q1800.81 135.131 1806.39 135.131 Z" fill="#000000" fill-rule="evenodd" fill-opacity="1" /><path clip-path="url(#clip250)" d="M1846.89 146.033 L1846.89 161.681 L1842.63 161.681 L1842.63 146.172 Q1842.63 142.492 1841.2 140.663 Q1839.76 138.834 1836.89 138.834 Q1833.45 138.834 1831.45 141.033 Q1829.46 143.232 1829.46 147.029 L1829.46 161.681 L1825.18 161.681 L1825.18 135.756 L1829.46 135.756 L1829.46 139.783 Q1830.99 137.445 1833.05 136.288 Q1835.13 135.131 1837.84 135.131 Q1842.31 135.131 1844.6 137.908 Q1846.89 140.663 1846.89 146.033 Z" fill="#000000" fill-rule="evenodd" fill-opacity="1" /><polyline clip-path="url(#clip250)" style="stroke:#0000ff; stroke-linecap:butt; stroke-linejoin:round; stroke-width:4; stroke-opacity:1; fill:none" points="
  1237.37,196.241 1364.4,196.241 
  "/>
<path clip-path="url(#clip250)" d="M1385.58 178.961 L1391.87 178.961 L1407.2 207.873 L1407.2 178.961 L1411.73 178.961 L1411.73 213.521 L1405.44 213.521 L1390.11 184.61 L1390.11 213.521 L1385.58 213.521 L1385.58 178.961 Z" fill="#000000" fill-rule="evenodd" fill-opacity="1" /><path clip-path="url(#clip250)" d="M1430.9 190.582 Q1427.48 190.582 1425.48 193.267 Q1423.49 195.929 1423.49 200.582 Q1423.49 205.234 1425.46 207.92 Q1427.45 210.582 1430.9 210.582 Q1434.3 210.582 1436.29 207.896 Q1438.29 205.211 1438.29 200.582 Q1438.29 195.975 1436.29 193.29 Q1434.3 190.582 1430.9 190.582 M1430.9 186.971 Q1436.46 186.971 1439.63 190.582 Q1442.8 194.193 1442.8 200.582 Q1442.8 206.947 1439.63 210.582 Q1436.46 214.193 1430.9 214.193 Q1425.32 214.193 1422.15 210.582 Q1419 206.947 1419 200.582 Q1419 194.193 1422.15 190.582 Q1425.32 186.971 1430.9 186.971 Z" fill="#000000" fill-rule="evenodd" fill-opacity="1" /><path clip-path="url(#clip250)" d="M1464.88 191.577 Q1464.16 191.16 1463.31 190.975 Q1462.47 190.767 1461.46 190.767 Q1457.85 190.767 1455.9 193.128 Q1453.98 195.466 1453.98 199.864 L1453.98 213.521 L1449.7 213.521 L1449.7 187.596 L1453.98 187.596 L1453.98 191.623 Q1455.32 189.262 1457.47 188.128 Q1459.63 186.971 1462.71 186.971 Q1463.15 186.971 1463.68 187.04 Q1464.21 187.086 1464.86 187.202 L1464.88 191.577 Z" fill="#000000" fill-rule="evenodd" fill-opacity="1" /><path clip-path="url(#clip250)" d="M1488.7 192.572 Q1490.3 189.702 1492.52 188.336 Q1494.74 186.971 1497.75 186.971 Q1501.8 186.971 1504 189.818 Q1506.2 192.642 1506.2 197.873 L1506.2 213.521 L1501.92 213.521 L1501.92 198.012 Q1501.92 194.285 1500.6 192.48 Q1499.28 190.674 1496.57 190.674 Q1493.26 190.674 1491.34 192.873 Q1489.42 195.072 1489.42 198.869 L1489.42 213.521 L1485.14 213.521 L1485.14 198.012 Q1485.14 194.262 1483.82 192.48 Q1482.5 190.674 1479.74 190.674 Q1476.48 190.674 1474.56 192.897 Q1472.64 195.096 1472.64 198.869 L1472.64 213.521 L1468.35 213.521 L1468.35 187.596 L1472.64 187.596 L1472.64 191.623 Q1474.1 189.239 1476.13 188.105 Q1478.17 186.971 1480.97 186.971 Q1483.79 186.971 1485.76 188.406 Q1487.75 189.841 1488.7 192.572 Z" fill="#000000" fill-rule="evenodd" fill-opacity="1" /><path clip-path="url(#clip250)" d="M1526.48 200.489 Q1521.32 200.489 1519.33 201.67 Q1517.34 202.85 1517.34 205.697 Q1517.34 207.966 1518.82 209.308 Q1520.32 210.628 1522.89 210.628 Q1526.43 210.628 1528.56 208.128 Q1530.72 205.605 1530.72 201.438 L1530.72 200.489 L1526.48 200.489 M1534.97 198.73 L1534.97 213.521 L1530.72 213.521 L1530.72 209.586 Q1529.26 211.947 1527.08 213.082 Q1524.91 214.193 1521.76 214.193 Q1517.78 214.193 1515.41 211.971 Q1513.08 209.725 1513.08 205.975 Q1513.08 201.6 1515.99 199.378 Q1518.93 197.156 1524.74 197.156 L1530.72 197.156 L1530.72 196.739 Q1530.72 193.799 1528.77 192.202 Q1526.85 190.582 1523.35 190.582 Q1521.13 190.582 1519.03 191.114 Q1516.92 191.647 1514.97 192.711 L1514.97 188.776 Q1517.31 187.873 1519.51 187.434 Q1521.71 186.971 1523.79 186.971 Q1529.42 186.971 1532.2 189.887 Q1534.97 192.804 1534.97 198.73 Z" fill="#000000" fill-rule="evenodd" fill-opacity="1" /><path clip-path="url(#clip250)" d="M1543.75 177.503 L1548.01 177.503 L1548.01 213.521 L1543.75 213.521 L1543.75 177.503 Z" fill="#000000" fill-rule="evenodd" fill-opacity="1" /><path clip-path="url(#clip250)" d="M1576.85 182.804 L1576.85 209.679 L1582.5 209.679 Q1589.65 209.679 1592.96 206.438 Q1596.29 203.197 1596.29 196.207 Q1596.29 189.262 1592.96 186.045 Q1589.65 182.804 1582.5 182.804 L1576.85 182.804 M1572.17 178.961 L1581.78 178.961 Q1591.83 178.961 1596.53 183.151 Q1601.22 187.318 1601.22 196.207 Q1601.22 205.142 1596.5 209.332 Q1591.78 213.521 1581.78 213.521 L1572.17 213.521 L1572.17 178.961 Z" fill="#000000" fill-rule="evenodd" fill-opacity="1" /><path clip-path="url(#clip250)" d="M1608.49 187.596 L1612.75 187.596 L1612.75 213.521 L1608.49 213.521 L1608.49 187.596 M1608.49 177.503 L1612.75 177.503 L1612.75 182.897 L1608.49 182.897 L1608.49 177.503 Z" fill="#000000" fill-rule="evenodd" fill-opacity="1" /><path clip-path="url(#clip250)" d="M1638.19 188.36 L1638.19 192.387 Q1636.39 191.461 1634.44 190.998 Q1632.5 190.535 1630.41 190.535 Q1627.24 190.535 1625.65 191.508 Q1624.07 192.48 1624.07 194.424 Q1624.07 195.906 1625.21 196.762 Q1626.34 197.596 1629.77 198.359 L1631.22 198.684 Q1635.76 199.656 1637.66 201.438 Q1639.58 203.197 1639.58 206.369 Q1639.58 209.98 1636.71 212.086 Q1633.86 214.193 1628.86 214.193 Q1626.78 214.193 1624.51 213.776 Q1622.27 213.383 1619.77 212.572 L1619.77 208.174 Q1622.13 209.401 1624.42 210.026 Q1626.71 210.628 1628.96 210.628 Q1631.96 210.628 1633.59 209.609 Q1635.21 208.568 1635.21 206.693 Q1635.21 204.957 1634.02 204.031 Q1632.87 203.105 1628.91 202.248 L1627.43 201.901 Q1623.47 201.068 1621.71 199.355 Q1619.95 197.619 1619.95 194.609 Q1619.95 190.952 1622.54 188.961 Q1625.14 186.971 1629.9 186.971 Q1632.27 186.971 1634.35 187.318 Q1636.43 187.665 1638.19 188.36 Z" fill="#000000" fill-rule="evenodd" fill-opacity="1" /><path clip-path="url(#clip250)" d="M1650.58 180.235 L1650.58 187.596 L1659.35 187.596 L1659.35 190.906 L1650.58 190.906 L1650.58 204.98 Q1650.58 208.151 1651.43 209.054 Q1652.31 209.957 1654.97 209.957 L1659.35 209.957 L1659.35 213.521 L1654.97 213.521 Q1650.04 213.521 1648.17 211.693 Q1646.29 209.841 1646.29 204.98 L1646.29 190.906 L1643.17 190.906 L1643.17 187.596 L1646.29 187.596 L1646.29 180.235 L1650.58 180.235 Z" fill="#000000" fill-rule="evenodd" fill-opacity="1" /><path clip-path="url(#clip250)" d="M1679.97 191.577 Q1679.26 191.16 1678.4 190.975 Q1677.57 190.767 1676.55 190.767 Q1672.94 190.767 1670.99 193.128 Q1669.07 195.466 1669.07 199.864 L1669.07 213.521 L1664.79 213.521 L1664.79 187.596 L1669.07 187.596 L1669.07 191.623 Q1670.41 189.262 1672.57 188.128 Q1674.72 186.971 1677.8 186.971 Q1678.24 186.971 1678.77 187.04 Q1679.3 187.086 1679.95 187.202 L1679.97 191.577 Z" fill="#000000" fill-rule="evenodd" fill-opacity="1" /><path clip-path="url(#clip250)" d="M1684.44 187.596 L1688.7 187.596 L1688.7 213.521 L1684.44 213.521 L1684.44 187.596 M1684.44 177.503 L1688.7 177.503 L1688.7 182.897 L1684.44 182.897 L1684.44 177.503 Z" fill="#000000" fill-rule="evenodd" fill-opacity="1" /><path clip-path="url(#clip250)" d="M1716.22 200.582 Q1716.22 195.883 1714.28 193.221 Q1712.36 190.535 1708.98 190.535 Q1705.6 190.535 1703.65 193.221 Q1701.73 195.883 1701.73 200.582 Q1701.73 205.281 1703.65 207.966 Q1705.6 210.628 1708.98 210.628 Q1712.36 210.628 1714.28 207.966 Q1716.22 205.281 1716.22 200.582 M1701.73 191.531 Q1703.08 189.216 1705.11 188.105 Q1707.17 186.971 1710.02 186.971 Q1714.74 186.971 1717.68 190.721 Q1720.64 194.471 1720.64 200.582 Q1720.64 206.693 1717.68 210.443 Q1714.74 214.193 1710.02 214.193 Q1707.17 214.193 1705.11 213.082 Q1703.08 211.947 1701.73 209.633 L1701.73 213.521 L1697.45 213.521 L1697.45 177.503 L1701.73 177.503 L1701.73 191.531 Z" fill="#000000" fill-rule="evenodd" fill-opacity="1" /><path clip-path="url(#clip250)" d="M1727.27 203.29 L1727.27 187.596 L1731.52 187.596 L1731.52 203.128 Q1731.52 206.808 1732.96 208.66 Q1734.39 210.489 1737.27 210.489 Q1740.71 210.489 1742.7 208.29 Q1744.72 206.091 1744.72 202.295 L1744.72 187.596 L1748.98 187.596 L1748.98 213.521 L1744.72 213.521 L1744.72 209.54 Q1743.17 211.901 1741.11 213.058 Q1739.07 214.193 1736.36 214.193 Q1731.89 214.193 1729.58 211.415 Q1727.27 208.637 1727.27 203.29 M1737.98 186.971 L1737.98 186.971 Z" fill="#000000" fill-rule="evenodd" fill-opacity="1" /><path clip-path="url(#clip250)" d="M1761.96 180.235 L1761.96 187.596 L1770.74 187.596 L1770.74 190.906 L1761.96 190.906 L1761.96 204.98 Q1761.96 208.151 1762.82 209.054 Q1763.7 209.957 1766.36 209.957 L1770.74 209.957 L1770.74 213.521 L1766.36 213.521 Q1761.43 213.521 1759.56 211.693 Q1757.68 209.841 1757.68 204.98 L1757.68 190.906 L1754.56 190.906 L1754.56 187.596 L1757.68 187.596 L1757.68 180.235 L1761.96 180.235 Z" fill="#000000" fill-rule="evenodd" fill-opacity="1" /><path clip-path="url(#clip250)" d="M1776.34 187.596 L1780.6 187.596 L1780.6 213.521 L1776.34 213.521 L1776.34 187.596 M1776.34 177.503 L1780.6 177.503 L1780.6 182.897 L1776.34 182.897 L1776.34 177.503 Z" fill="#000000" fill-rule="evenodd" fill-opacity="1" /><path clip-path="url(#clip250)" d="M1799.56 190.582 Q1796.13 190.582 1794.14 193.267 Q1792.15 195.929 1792.15 200.582 Q1792.15 205.234 1794.12 207.92 Q1796.11 210.582 1799.56 210.582 Q1802.96 210.582 1804.95 207.896 Q1806.94 205.211 1806.94 200.582 Q1806.94 195.975 1804.95 193.29 Q1802.96 190.582 1799.56 190.582 M1799.56 186.971 Q1805.11 186.971 1808.28 190.582 Q1811.45 194.193 1811.45 200.582 Q1811.45 206.947 1808.28 210.582 Q1805.11 214.193 1799.56 214.193 Q1793.98 214.193 1790.81 210.582 Q1787.66 206.947 1787.66 200.582 Q1787.66 194.193 1790.81 190.582 Q1793.98 186.971 1799.56 186.971 Z" fill="#000000" fill-rule="evenodd" fill-opacity="1" /><path clip-path="url(#clip250)" d="M1840.07 197.873 L1840.07 213.521 L1835.81 213.521 L1835.81 198.012 Q1835.81 194.332 1834.37 192.503 Q1832.94 190.674 1830.07 190.674 Q1826.62 190.674 1824.63 192.873 Q1822.64 195.072 1822.64 198.869 L1822.64 213.521 L1818.35 213.521 L1818.35 187.596 L1822.64 187.596 L1822.64 191.623 Q1824.16 189.285 1826.22 188.128 Q1828.31 186.971 1831.01 186.971 Q1835.48 186.971 1837.77 189.748 Q1840.07 192.503 1840.07 197.873 Z" fill="#000000" fill-rule="evenodd" fill-opacity="1" /></svg>
