<?xml version="1.0" encoding="utf-8"?>
<svg xmlns="http://www.w3.org/2000/svg" xmlns:xlink="http://www.w3.org/1999/xlink" width="500" height="400" viewBox="0 0 2000 1600">
<defs>
  <clipPath id="clip410">
    <rect x="0" y="0" width="2000" height="1600"/>
  </clipPath>
</defs>
<path clip-path="url(#clip410)" d="
M0 1600 L2000 1600 L2000 0 L0 0  Z
  " fill="#ffffff" fill-rule="evenodd" fill-opacity="1"/>
<defs>
  <clipPath id="clip411">
    <rect x="400" y="0" width="1401" height="1401"/>
  </clipPath>
</defs>
<path clip-path="url(#clip410)" d="
M344 1334.19 L1952.76 1334.19 L1952.76 47.2441 L344 47.2441  Z
  " fill="#ffffff" fill-rule="evenodd" fill-opacity="1"/>
<defs>
  <clipPath id="clip412">
    <rect x="344" y="47" width="1610" height="1288"/>
  </clipPath>
</defs>
<polyline clip-path="url(#clip410)" style="stroke:#000000; stroke-linecap:butt; stroke-linejoin:round; stroke-width:4; stroke-opacity:1; fill:none" points="
  344,1334.19 1952.76,1334.19 
  "/>
<polyline clip-path="url(#clip410)" style="stroke:#000000; stroke-linecap:butt; stroke-linejoin:round; stroke-width:4; stroke-opacity:1; fill:none" points="
  432.485,1334.19 432.485,1315.29 
  "/>
<polyline clip-path="url(#clip410)" style="stroke:#000000; stroke-linecap:butt; stroke-linejoin:round; stroke-width:4; stroke-opacity:1; fill:none" points="
  814.295,1334.19 814.295,1315.29 
  "/>
<polyline clip-path="url(#clip410)" style="stroke:#000000; stroke-linecap:butt; stroke-linejoin:round; stroke-width:4; stroke-opacity:1; fill:none" points="
  1196.1,1334.19 1196.1,1315.29 
  "/>
<polyline clip-path="url(#clip410)" style="stroke:#000000; stroke-linecap:butt; stroke-linejoin:round; stroke-width:4; stroke-opacity:1; fill:none" points="
  1577.91,1334.19 1577.91,1315.29 
  "/>
<path clip-path="url(#clip410)" d="M378.061 1396.34 L429.994 1396.34 L429.994 1403.22 L378.061 1403.22 L378.061 1396.34 Z" fill="#000000" fill-rule="evenodd" fill-opacity="1" /><path clip-path="url(#clip410)" d="M470.138 1372.44 L449.478 1404.72 L470.138 1404.72 L470.138 1372.44 M467.991 1365.31 L478.28 1365.31 L478.28 1404.72 L486.909 1404.72 L486.909 1411.53 L478.28 1411.53 L478.28 1425.79 L470.138 1425.79 L470.138 1411.53 L442.835 1411.53 L442.835 1403.63 L467.991 1365.31 Z" fill="#000000" fill-rule="evenodd" fill-opacity="1" /><path clip-path="url(#clip410)" d="M761.694 1396.34 L813.626 1396.34 L813.626 1403.22 L761.694 1403.22 L761.694 1396.34 Z" fill="#000000" fill-rule="evenodd" fill-opacity="1" /><path clip-path="url(#clip410)" d="M838.337 1418.9 L866.896 1418.9 L866.896 1425.79 L828.493 1425.79 L828.493 1418.9 Q833.152 1414.08 841.172 1405.98 Q849.234 1397.84 851.3 1395.49 Q855.229 1391.07 856.768 1388.03 Q858.348 1384.95 858.348 1382 Q858.348 1377.18 854.945 1374.14 Q851.583 1371.1 846.155 1371.1 Q842.307 1371.1 838.013 1372.44 Q833.759 1373.77 828.898 1376.49 L828.898 1368.22 Q833.84 1366.24 838.134 1365.23 Q842.428 1364.21 845.993 1364.21 Q855.391 1364.21 860.981 1368.91 Q866.572 1373.61 866.572 1381.47 Q866.572 1385.2 865.154 1388.56 Q863.776 1391.88 860.09 1396.42 Q859.077 1397.59 853.649 1403.22 Q848.221 1408.81 838.337 1418.9 Z" fill="#000000" fill-rule="evenodd" fill-opacity="1" /><path clip-path="url(#clip410)" d="M1196.1 1370.7 Q1189.78 1370.7 1186.58 1376.93 Q1183.43 1383.13 1183.43 1395.61 Q1183.43 1408.04 1186.58 1414.28 Q1189.78 1420.48 1196.1 1420.48 Q1202.46 1420.48 1205.62 1414.28 Q1208.82 1408.04 1208.82 1395.61 Q1208.82 1383.13 1205.62 1376.93 Q1202.46 1370.7 1196.1 1370.7 M1196.1 1364.21 Q1206.27 1364.21 1211.62 1372.28 Q1217.01 1380.3 1217.01 1395.61 Q1217.01 1410.88 1211.62 1418.94 Q1206.27 1426.96 1196.1 1426.96 Q1185.94 1426.96 1180.55 1418.94 Q1175.2 1410.88 1175.2 1395.61 Q1175.2 1380.3 1180.55 1372.28 Q1185.94 1364.21 1196.1 1364.21 Z" fill="#000000" fill-rule="evenodd" fill-opacity="1" /><path clip-path="url(#clip410)" d="M1568.56 1418.9 L1597.12 1418.9 L1597.12 1425.79 L1558.71 1425.79 L1558.71 1418.9 Q1563.37 1414.08 1571.39 1405.98 Q1579.45 1397.84 1581.52 1395.49 Q1585.45 1391.07 1586.99 1388.03 Q1588.57 1384.95 1588.57 1382 Q1588.57 1377.18 1585.17 1374.14 Q1581.8 1371.1 1576.37 1371.1 Q1572.53 1371.1 1568.23 1372.44 Q1563.98 1373.77 1559.12 1376.49 L1559.12 1368.22 Q1564.06 1366.24 1568.35 1365.23 Q1572.65 1364.21 1576.21 1364.21 Q1585.61 1364.21 1591.2 1368.91 Q1596.79 1373.61 1596.79 1381.47 Q1596.79 1385.2 1595.37 1388.56 Q1594 1391.88 1590.31 1396.42 Q1589.3 1397.59 1583.87 1403.22 Q1578.44 1408.81 1568.56 1418.9 Z" fill="#000000" fill-rule="evenodd" fill-opacity="1" /><path clip-path="url(#clip410)" d="M1028.56 1553.4 L997.22 1471.32 L1008.82 1471.32 L1034.82 1540.43 L1060.88 1471.32 L1072.43 1471.32 L1041.15 1553.4 L1028.56 1553.4 Z" fill="#000000" fill-rule="evenodd" fill-opacity="1" /><path clip-path="url(#clip410)" d="M1103.21 1522.45 Q1090.96 1522.45 1086.23 1525.26 Q1081.5 1528.06 1081.5 1534.82 Q1081.5 1540.21 1085.02 1543.4 Q1088.59 1546.53 1094.69 1546.53 Q1103.1 1546.53 1108.16 1540.59 Q1113.28 1534.6 1113.28 1524.71 L1113.28 1522.45 L1103.21 1522.45 M1123.39 1518.27 L1123.39 1553.4 L1113.28 1553.4 L1113.28 1544.06 Q1109.81 1549.67 1104.64 1552.36 Q1099.48 1555 1092 1555 Q1082.54 1555 1076.94 1549.72 Q1071.38 1544.39 1071.38 1535.48 Q1071.38 1525.09 1078.31 1519.81 Q1085.29 1514.54 1099.09 1514.54 L1113.28 1514.54 L1113.28 1513.55 Q1113.28 1506.56 1108.66 1502.77 Q1104.09 1498.92 1095.79 1498.92 Q1090.52 1498.92 1085.51 1500.19 Q1080.51 1501.45 1075.89 1503.98 L1075.89 1494.63 Q1081.44 1492.49 1086.67 1491.45 Q1091.89 1490.35 1096.84 1490.35 Q1110.2 1490.35 1116.79 1497.27 Q1123.39 1504.2 1123.39 1518.27 Z" fill="#000000" fill-rule="evenodd" fill-opacity="1" /><path clip-path="url(#clip410)" d="M1144.23 1467.86 L1154.34 1467.86 L1154.34 1553.4 L1144.23 1553.4 L1144.23 1467.86 Z" fill="#000000" fill-rule="evenodd" fill-opacity="1" /><path clip-path="url(#clip410)" d="M1174.46 1529.1 L1174.46 1491.83 L1184.58 1491.83 L1184.58 1528.72 Q1184.58 1537.46 1187.99 1541.86 Q1191.4 1546.2 1198.21 1546.2 Q1206.41 1546.2 1211.13 1540.98 Q1215.92 1535.76 1215.92 1526.74 L1215.92 1491.83 L1226.03 1491.83 L1226.03 1553.4 L1215.92 1553.4 L1215.92 1543.95 Q1212.23 1549.56 1207.34 1552.3 Q1202.5 1555 1196.07 1555 Q1185.46 1555 1179.96 1548.4 Q1174.46 1541.8 1174.46 1529.1 M1199.92 1490.35 L1199.92 1490.35 Z" fill="#000000" fill-rule="evenodd" fill-opacity="1" /><path clip-path="url(#clip410)" d="M1299.54 1520.09 L1299.54 1525.04 L1253.03 1525.04 Q1253.69 1535.48 1259.29 1540.98 Q1264.96 1546.42 1275.02 1546.42 Q1280.84 1546.42 1286.29 1544.99 Q1291.78 1543.56 1297.17 1540.7 L1297.17 1550.27 Q1291.73 1552.58 1286.01 1553.79 Q1280.29 1555 1274.41 1555 Q1259.68 1555 1251.05 1546.42 Q1242.47 1537.85 1242.47 1523.22 Q1242.47 1508.1 1250.61 1499.25 Q1258.8 1490.35 1272.65 1490.35 Q1285.08 1490.35 1292.28 1498.37 Q1299.54 1506.34 1299.54 1520.09 M1289.42 1517.12 Q1289.31 1508.82 1284.75 1503.87 Q1280.24 1498.92 1272.76 1498.92 Q1264.3 1498.92 1259.18 1503.71 Q1254.13 1508.49 1253.36 1517.17 L1289.42 1517.12 Z" fill="#000000" fill-rule="evenodd" fill-opacity="1" /><polyline clip-path="url(#clip410)" style="stroke:#000000; stroke-linecap:butt; stroke-linejoin:round; stroke-width:4; stroke-opacity:1; fill:none" points="
  344,1334.19 344,47.2441 
  "/>
<polyline clip-path="url(#clip410)" style="stroke:#000000; stroke-linecap:butt; stroke-linejoin:round; stroke-width:4; stroke-opacity:1; fill:none" points="
  344,1297.76 362.898,1297.76 
  "/>
<polyline clip-path="url(#clip410)" style="stroke:#000000; stroke-linecap:butt; stroke-linejoin:round; stroke-width:4; stroke-opacity:1; fill:none" points="
  344,1008.69 362.898,1008.69 
  "/>
<polyline clip-path="url(#clip410)" style="stroke:#000000; stroke-linecap:butt; stroke-linejoin:round; stroke-width:4; stroke-opacity:1; fill:none" points="
  344,719.623 362.898,719.623 
  "/>
<polyline clip-path="url(#clip410)" style="stroke:#000000; stroke-linecap:butt; stroke-linejoin:round; stroke-width:4; stroke-opacity:1; fill:none" points="
  344,430.552 362.898,430.552 
  "/>
<polyline clip-path="url(#clip410)" style="stroke:#000000; stroke-linecap:butt; stroke-linejoin:round; stroke-width:4; stroke-opacity:1; fill:none" points="
  344,141.481 362.898,141.481 
  "/>
<path clip-path="url(#clip410)" d="M293.098 1272.91 Q286.778 1272.91 283.578 1279.15 Q280.418 1285.35 280.418 1297.83 Q280.418 1310.26 283.578 1316.5 Q286.778 1322.7 293.098 1322.7 Q299.458 1322.7 302.617 1316.5 Q305.818 1310.26 305.818 1297.83 Q305.818 1285.35 302.617 1279.15 Q299.458 1272.91 293.098 1272.91 M293.098 1266.43 Q303.266 1266.43 308.613 1274.49 Q314 1282.51 314 1297.83 Q314 1313.1 308.613 1321.16 Q303.266 1329.18 293.098 1329.18 Q282.93 1329.18 277.542 1321.16 Q272.195 1313.1 272.195 1297.83 Q272.195 1282.51 277.542 1274.49 Q282.93 1266.43 293.098 1266.43 Z" fill="#000000" fill-rule="evenodd" fill-opacity="1" /><path clip-path="url(#clip410)" d="M222.896 978.454 L255.019 978.454 L255.019 985.341 L230.39 985.341 L230.39 1000.17 Q232.172 999.559 233.955 999.276 Q235.737 998.952 237.519 998.952 Q247.647 998.952 253.561 1004.5 Q259.475 1010.05 259.475 1019.53 Q259.475 1029.29 253.399 1034.72 Q247.323 1040.11 236.264 1040.11 Q232.456 1040.11 228.486 1039.46 Q224.556 1038.81 220.344 1037.52 L220.344 1029.29 Q223.989 1031.28 227.878 1032.25 Q231.767 1033.22 236.102 1033.22 Q243.11 1033.22 247.201 1029.54 Q251.292 1025.85 251.292 1019.53 Q251.292 1013.21 247.201 1009.52 Q243.11 1005.84 236.102 1005.84 Q232.82 1005.84 229.539 1006.57 Q226.298 1007.3 222.896 1008.84 L222.896 978.454 Z" fill="#000000" fill-rule="evenodd" fill-opacity="1" /><path clip-path="url(#clip410)" d="M293.098 983.842 Q286.778 983.842 283.578 990.08 Q280.418 996.278 280.418 1008.75 Q280.418 1021.19 283.578 1027.43 Q286.778 1033.63 293.098 1033.63 Q299.458 1033.63 302.617 1027.43 Q305.818 1021.19 305.818 1008.75 Q305.818 996.278 302.617 990.08 Q299.458 983.842 293.098 983.842 M293.098 977.36 Q303.266 977.36 308.613 985.422 Q314 993.442 314 1008.75 Q314 1024.03 308.613 1032.09 Q303.266 1040.11 293.098 1040.11 Q282.93 1040.11 277.542 1032.09 Q272.195 1024.03 272.195 1008.75 Q272.195 993.442 277.542 985.422 Q282.93 977.36 293.098 977.36 Z" fill="#000000" fill-rule="evenodd" fill-opacity="1" /><path clip-path="url(#clip410)" d="M171.449 742.977 L184.817 742.977 L184.817 696.837 L170.274 699.753 L170.274 692.3 L184.736 689.383 L192.919 689.383 L192.919 742.977 L206.287 742.977 L206.287 749.863 L171.449 749.863 L171.449 742.977 Z" fill="#000000" fill-rule="evenodd" fill-opacity="1" /><path clip-path="url(#clip410)" d="M240.314 694.771 Q233.995 694.771 230.795 701.009 Q227.635 707.207 227.635 719.684 Q227.635 732.12 230.795 738.358 Q233.995 744.556 240.314 744.556 Q246.674 744.556 249.834 738.358 Q253.034 732.12 253.034 719.684 Q253.034 707.207 249.834 701.009 Q246.674 694.771 240.314 694.771 M240.314 688.289 Q250.482 688.289 255.829 696.351 Q261.217 704.371 261.217 719.684 Q261.217 734.956 255.829 743.017 Q250.482 751.038 240.314 751.038 Q230.147 751.038 224.759 743.017 Q219.412 734.956 219.412 719.684 Q219.412 704.371 224.759 696.351 Q230.147 688.289 240.314 688.289 Z" fill="#000000" fill-rule="evenodd" fill-opacity="1" /><path clip-path="url(#clip410)" d="M293.098 694.771 Q286.778 694.771 283.578 701.009 Q280.418 707.207 280.418 719.684 Q280.418 732.12 283.578 738.358 Q286.778 744.556 293.098 744.556 Q299.458 744.556 302.617 738.358 Q305.818 732.12 305.818 719.684 Q305.818 707.207 302.617 701.009 Q299.458 694.771 293.098 694.771 M293.098 688.289 Q303.266 688.289 308.613 696.351 Q314 704.371 314 719.684 Q314 734.956 308.613 743.017 Q303.266 751.038 293.098 751.038 Q282.93 751.038 277.542 743.017 Q272.195 734.956 272.195 719.684 Q272.195 704.371 277.542 696.351 Q282.93 688.289 293.098 688.289 Z" fill="#000000" fill-rule="evenodd" fill-opacity="1" /><path clip-path="url(#clip410)" d="M171.449 453.906 L184.817 453.906 L184.817 407.766 L170.274 410.682 L170.274 403.229 L184.736 400.312 L192.919 400.312 L192.919 453.906 L206.287 453.906 L206.287 460.792 L171.449 460.792 L171.449 453.906 Z" fill="#000000" fill-rule="evenodd" fill-opacity="1" /><path clip-path="url(#clip410)" d="M222.896 400.312 L255.019 400.312 L255.019 407.199 L230.39 407.199 L230.39 422.025 Q232.172 421.417 233.955 421.134 Q235.737 420.81 237.519 420.81 Q247.647 420.81 253.561 426.359 Q259.475 431.909 259.475 441.388 Q259.475 451.151 253.399 456.579 Q247.323 461.967 236.264 461.967 Q232.456 461.967 228.486 461.319 Q224.556 460.671 220.344 459.374 L220.344 451.151 Q223.989 453.136 227.878 454.108 Q231.767 455.08 236.102 455.08 Q243.11 455.08 247.201 451.394 Q251.292 447.708 251.292 441.388 Q251.292 435.069 247.201 431.383 Q243.11 427.696 236.102 427.696 Q232.82 427.696 229.539 428.425 Q226.298 429.155 222.896 430.694 L222.896 400.312 Z" fill="#000000" fill-rule="evenodd" fill-opacity="1" /><path clip-path="url(#clip410)" d="M293.098 405.7 Q286.778 405.7 283.578 411.938 Q280.418 418.136 280.418 430.613 Q280.418 443.049 283.578 449.288 Q286.778 455.485 293.098 455.485 Q299.458 455.485 302.617 449.288 Q305.818 443.049 305.818 430.613 Q305.818 418.136 302.617 411.938 Q299.458 405.7 293.098 405.7 M293.098 399.218 Q303.266 399.218 308.613 407.28 Q314 415.3 314 430.613 Q314 445.885 308.613 453.946 Q303.266 461.967 293.098 461.967 Q282.93 461.967 277.542 453.946 Q272.195 445.885 272.195 430.613 Q272.195 415.3 277.542 407.28 Q282.93 399.218 293.098 399.218 Z" fill="#000000" fill-rule="evenodd" fill-opacity="1" /><path clip-path="url(#clip410)" d="M177.08 164.835 L205.639 164.835 L205.639 171.721 L167.236 171.721 L167.236 164.835 Q171.895 160.014 179.915 151.912 Q187.977 143.77 190.043 141.42 Q193.972 137.005 195.511 133.967 Q197.091 130.888 197.091 127.931 Q197.091 123.11 193.689 120.072 Q190.326 117.034 184.898 117.034 Q181.05 117.034 176.756 118.371 Q172.502 119.708 167.641 122.422 L167.641 114.158 Q172.583 112.173 176.877 111.16 Q181.171 110.147 184.736 110.147 Q194.134 110.147 199.724 114.847 Q205.315 119.546 205.315 127.404 Q205.315 131.131 203.897 134.493 Q202.52 137.815 198.833 142.352 Q197.82 143.527 192.392 149.158 Q186.964 154.748 177.08 164.835 Z" fill="#000000" fill-rule="evenodd" fill-opacity="1" /><path clip-path="url(#clip410)" d="M240.314 116.629 Q233.995 116.629 230.795 122.867 Q227.635 129.065 227.635 141.542 Q227.635 153.978 230.795 160.217 Q233.995 166.415 240.314 166.415 Q246.674 166.415 249.834 160.217 Q253.034 153.978 253.034 141.542 Q253.034 129.065 249.834 122.867 Q246.674 116.629 240.314 116.629 M240.314 110.147 Q250.482 110.147 255.829 118.209 Q261.217 126.23 261.217 141.542 Q261.217 156.814 255.829 164.875 Q250.482 172.896 240.314 172.896 Q230.147 172.896 224.759 164.875 Q219.412 156.814 219.412 141.542 Q219.412 126.23 224.759 118.209 Q230.147 110.147 240.314 110.147 Z" fill="#000000" fill-rule="evenodd" fill-opacity="1" /><path clip-path="url(#clip410)" d="M293.098 116.629 Q286.778 116.629 283.578 122.867 Q280.418 129.065 280.418 141.542 Q280.418 153.978 283.578 160.217 Q286.778 166.415 293.098 166.415 Q299.458 166.415 302.617 160.217 Q305.818 153.978 305.818 141.542 Q305.818 129.065 302.617 122.867 Q299.458 116.629 293.098 116.629 M293.098 110.147 Q303.266 110.147 308.613 118.209 Q314 126.23 314 141.542 Q314 156.814 308.613 164.875 Q303.266 172.896 293.098 172.896 Q282.93 172.896 277.542 164.875 Q272.195 156.814 272.195 141.542 Q272.195 126.23 277.542 118.209 Q282.93 110.147 293.098 110.147 Z" fill="#000000" fill-rule="evenodd" fill-opacity="1" /><path clip-path="url(#clip410)" d="M36.8545 787.2 L48.5645 787.2 Q43.3417 792.807 40.7578 799.185 Q38.1739 805.507 38.1739 812.654 Q38.1739 826.728 46.8052 834.205 Q55.3816 841.682 71.6546 841.682 Q87.8727 841.682 96.504 834.205 Q105.08 826.728 105.08 812.654 Q105.08 805.507 102.496 799.185 Q99.9126 792.807 94.6898 787.2 L106.29 787.2 Q110.248 793.027 112.227 799.57 Q114.206 806.057 114.206 813.314 Q114.206 831.951 102.826 842.671 Q91.3912 853.392 71.6546 853.392 Q51.8631 853.392 40.4829 842.671 Q29.0478 831.951 29.0478 813.314 Q29.0478 805.947 31.0269 799.46 Q32.9511 792.917 36.8545 787.2 Z" fill="#000000" fill-rule="evenodd" fill-opacity="1" /><path clip-path="url(#clip410)" d="M58.1304 746.627 Q58.1304 754.764 64.5077 759.492 Q70.83 764.22 81.8803 764.22 Q92.9305 764.22 99.3078 759.547 Q105.63 754.819 105.63 746.627 Q105.63 738.546 99.2529 733.818 Q92.8756 729.09 81.8803 729.09 Q70.9399 729.09 64.5626 733.818 Q58.1304 738.546 58.1304 746.627 M49.554 746.627 Q49.554 733.433 58.1304 725.901 Q66.7067 718.369 81.8803 718.369 Q96.9988 718.369 105.63 725.901 Q114.206 733.433 114.206 746.627 Q114.206 759.876 105.63 767.408 Q96.9988 774.885 81.8803 774.885 Q66.7067 774.885 58.1304 767.408 Q49.554 759.876 49.554 746.627 Z" fill="#000000" fill-rule="evenodd" fill-opacity="1" /><path clip-path="url(#clip410)" d="M88.3125 702.646 L51.0384 702.646 L51.0384 692.53 L87.9277 692.53 Q96.669 692.53 101.067 689.122 Q105.41 685.713 105.41 678.896 Q105.41 670.705 100.187 665.977 Q94.9647 661.194 85.9485 661.194 L51.0384 661.194 L51.0384 651.078 L112.612 651.078 L112.612 661.194 L103.156 661.194 Q108.764 664.877 111.513 669.77 Q114.206 674.608 114.206 681.04 Q114.206 691.651 107.609 697.148 Q101.012 702.646 88.3125 702.646 M49.554 677.192 L49.554 677.192 Z" fill="#000000" fill-rule="evenodd" fill-opacity="1" /><path clip-path="url(#clip410)" d="M75.448 579.059 L112.612 579.059 L112.612 589.174 L75.7779 589.174 Q67.0366 589.174 62.6934 592.583 Q58.3503 595.991 58.3503 602.808 Q58.3503 611 63.5731 615.728 Q68.7958 620.456 77.812 620.456 L112.612 620.456 L112.612 630.627 L51.0384 630.627 L51.0384 620.456 L60.6043 620.456 Q55.0517 616.827 52.3029 611.935 Q49.554 606.987 49.554 600.554 Q49.554 589.944 56.1512 584.501 Q62.6934 579.059 75.448 579.059 Z" fill="#000000" fill-rule="evenodd" fill-opacity="1" /><path clip-path="url(#clip410)" d="M33.5559 548.876 L51.0384 548.876 L51.0384 528.04 L58.9001 528.04 L58.9001 548.876 L92.3258 548.876 Q99.8576 548.876 102.002 546.842 Q104.146 544.753 104.146 538.431 L104.146 528.04 L112.612 528.04 L112.612 538.431 Q112.612 550.141 108.269 554.594 Q103.871 559.047 92.3258 559.047 L58.9001 559.047 L58.9001 566.469 L51.0384 566.469 L51.0384 559.047 L33.5559 559.047 L33.5559 548.876 Z" fill="#000000" fill-rule="evenodd" fill-opacity="1" /><path clip-path="url(#clip412)" d="
M432.485 1291.98 L432.485 1297.76 L527.937 1297.76 L527.937 1291.98 L432.485 1291.98 L432.485 1291.98  Z
  " fill="#009af9" fill-rule="evenodd" fill-opacity="1"/>
<polyline clip-path="url(#clip412)" style="stroke:#000000; stroke-linecap:butt; stroke-linejoin:round; stroke-width:4; stroke-opacity:1; fill:none" points="
  432.485,1291.98 432.485,1297.76 527.937,1297.76 527.937,1291.98 432.485,1291.98 
  "/>
<path clip-path="url(#clip412)" d="
M527.937 1291.98 L527.937 1297.76 L623.39 1297.76 L623.39 1291.98 L527.937 1291.98 L527.937 1291.98  Z
  " fill="#009af9" fill-rule="evenodd" fill-opacity="1"/>
<polyline clip-path="url(#clip412)" style="stroke:#000000; stroke-linecap:butt; stroke-linejoin:round; stroke-width:4; stroke-opacity:1; fill:none" points="
  527.937,1291.98 527.937,1297.76 623.39,1297.76 623.39,1291.98 527.937,1291.98 
  "/>
<path clip-path="url(#clip412)" d="
M623.39 1257.29 L623.39 1297.76 L718.842 1297.76 L718.842 1257.29 L623.39 1257.29 L623.39 1257.29  Z
  " fill="#009af9" fill-rule="evenodd" fill-opacity="1"/>
<polyline clip-path="url(#clip412)" style="stroke:#000000; stroke-linecap:butt; stroke-linejoin:round; stroke-width:4; stroke-opacity:1; fill:none" points="
  623.39,1257.29 623.39,1297.76 718.842,1297.76 718.842,1257.29 623.39,1257.29 
  "/>
<path clip-path="url(#clip412)" d="
M718.842 1228.39 L718.842 1297.76 L814.295 1297.76 L814.295 1228.39 L718.842 1228.39 L718.842 1228.39  Z
  " fill="#009af9" fill-rule="evenodd" fill-opacity="1"/>
<polyline clip-path="url(#clip412)" style="stroke:#000000; stroke-linecap:butt; stroke-linejoin:round; stroke-width:4; stroke-opacity:1; fill:none" points="
  718.842,1228.39 718.842,1297.76 814.295,1297.76 814.295,1228.39 718.842,1228.39 
  "/>
<path clip-path="url(#clip412)" d="
M814.295 1002.91 L814.295 1297.76 L909.747 1297.76 L909.747 1002.91 L814.295 1002.91 L814.295 1002.91  Z
  " fill="#009af9" fill-rule="evenodd" fill-opacity="1"/>
<polyline clip-path="url(#clip412)" style="stroke:#000000; stroke-linecap:butt; stroke-linejoin:round; stroke-width:4; stroke-opacity:1; fill:none" points="
  814.295,1002.91 814.295,1297.76 909.747,1297.76 909.747,1002.91 814.295,1002.91 
  "/>
<path clip-path="url(#clip412)" d="
M909.747 731.186 L909.747 1297.76 L1005.2 1297.76 L1005.2 731.186 L909.747 731.186 L909.747 731.186  Z
  " fill="#009af9" fill-rule="evenodd" fill-opacity="1"/>
<polyline clip-path="url(#clip412)" style="stroke:#000000; stroke-linecap:butt; stroke-linejoin:round; stroke-width:4; stroke-opacity:1; fill:none" points="
  909.747,731.186 909.747,1297.76 1005.2,1297.76 1005.2,731.186 909.747,731.186 
  "/>
<path clip-path="url(#clip412)" d="
M1005.2 459.459 L1005.2 1297.76 L1100.65 1297.76 L1100.65 459.459 L1005.2 459.459 L1005.2 459.459  Z
  " fill="#009af9" fill-rule="evenodd" fill-opacity="1"/>
<polyline clip-path="url(#clip412)" style="stroke:#000000; stroke-linecap:butt; stroke-linejoin:round; stroke-width:4; stroke-opacity:1; fill:none" points="
  1005.2,459.459 1005.2,1297.76 1100.65,1297.76 1100.65,459.459 1005.2,459.459 
  "/>
<path clip-path="url(#clip412)" d="
M1100.65 239.765 L1100.65 1297.76 L1196.1 1297.76 L1196.1 239.765 L1100.65 239.765 L1100.65 239.765  Z
  " fill="#009af9" fill-rule="evenodd" fill-opacity="1"/>
<polyline clip-path="url(#clip412)" style="stroke:#000000; stroke-linecap:butt; stroke-linejoin:round; stroke-width:4; stroke-opacity:1; fill:none" points="
  1100.65,239.765 1100.65,1297.76 1196.1,1297.76 1196.1,239.765 1100.65,239.765 
  "/>
<path clip-path="url(#clip412)" d="
M1196.1 83.667 L1196.1 1297.76 L1291.56 1297.76 L1291.56 83.667 L1196.1 83.667 L1196.1 83.667  Z
  " fill="#009af9" fill-rule="evenodd" fill-opacity="1"/>
<polyline clip-path="url(#clip412)" style="stroke:#000000; stroke-linecap:butt; stroke-linejoin:round; stroke-width:4; stroke-opacity:1; fill:none" points="
  1196.1,83.667 1196.1,1297.76 1291.56,1297.76 1291.56,83.667 1196.1,83.667 
  "/>
<path clip-path="url(#clip412)" d="
M1291.56 453.678 L1291.56 1297.76 L1387.01 1297.76 L1387.01 453.678 L1291.56 453.678 L1291.56 453.678  Z
  " fill="#009af9" fill-rule="evenodd" fill-opacity="1"/>
<polyline clip-path="url(#clip412)" style="stroke:#000000; stroke-linecap:butt; stroke-linejoin:round; stroke-width:4; stroke-opacity:1; fill:none" points="
  1291.56,453.678 1291.56,1297.76 1387.01,1297.76 1387.01,453.678 1291.56,453.678 
  "/>
<path clip-path="url(#clip412)" d="
M1387.01 812.126 L1387.01 1297.76 L1482.46 1297.76 L1482.46 812.126 L1387.01 812.126 L1387.01 812.126  Z
  " fill="#009af9" fill-rule="evenodd" fill-opacity="1"/>
<polyline clip-path="url(#clip412)" style="stroke:#000000; stroke-linecap:butt; stroke-linejoin:round; stroke-width:4; stroke-opacity:1; fill:none" points="
  1387.01,812.126 1387.01,1297.76 1482.46,1297.76 1482.46,812.126 1387.01,812.126 
  "/>
<path clip-path="url(#clip412)" d="
M1482.46 1078.07 L1482.46 1297.76 L1577.91 1297.76 L1577.91 1078.07 L1482.46 1078.07 L1482.46 1078.07  Z
  " fill="#009af9" fill-rule="evenodd" fill-opacity="1"/>
<polyline clip-path="url(#clip412)" style="stroke:#000000; stroke-linecap:butt; stroke-linejoin:round; stroke-width:4; stroke-opacity:1; fill:none" points="
  1482.46,1078.07 1482.46,1297.76 1577.91,1297.76 1577.91,1078.07 1482.46,1078.07 
  "/>
<path clip-path="url(#clip412)" d="
M1577.91 1187.92 L1577.91 1297.76 L1673.37 1297.76 L1673.37 1187.92 L1577.91 1187.92 L1577.91 1187.92  Z
  " fill="#009af9" fill-rule="evenodd" fill-opacity="1"/>
<polyline clip-path="url(#clip412)" style="stroke:#000000; stroke-linecap:butt; stroke-linejoin:round; stroke-width:4; stroke-opacity:1; fill:none" points="
  1577.91,1187.92 1577.91,1297.76 1673.37,1297.76 1673.37,1187.92 1577.91,1187.92 
  "/>
<path clip-path="url(#clip412)" d="
M1673.37 1274.64 L1673.37 1297.76 L1768.82 1297.76 L1768.82 1274.64 L1673.37 1274.64 L1673.37 1274.64  Z
  " fill="#009af9" fill-rule="evenodd" fill-opacity="1"/>
<polyline clip-path="url(#clip412)" style="stroke:#000000; stroke-linecap:butt; stroke-linejoin:round; stroke-width:4; stroke-opacity:1; fill:none" points="
  1673.37,1274.64 1673.37,1297.76 1768.82,1297.76 1768.82,1274.64 1673.37,1274.64 
  "/>
<path clip-path="url(#clip412)" d="
M1768.82 1291.98 L1768.82 1297.76 L1864.27 1297.76 L1864.27 1291.98 L1768.82 1291.98 L1768.82 1291.98  Z
  " fill="#009af9" fill-rule="evenodd" fill-opacity="1"/>
<polyline clip-path="url(#clip412)" style="stroke:#000000; stroke-linecap:butt; stroke-linejoin:round; stroke-width:4; stroke-opacity:1; fill:none" points="
  1768.82,1291.98 1768.82,1297.76 1864.27,1297.76 1864.27,1291.98 1768.82,1291.98 
  "/>
<circle clip-path="url(#clip412)" style="fill:#009af9; stroke:none; fill-opacity:0" cx="480.211" cy="1291.98" r="2"/>
<circle clip-path="url(#clip412)" style="fill:#009af9; stroke:none; fill-opacity:0" cx="575.663" cy="1291.98" r="2"/>
<circle clip-path="url(#clip412)" style="fill:#009af9; stroke:none; fill-opacity:0" cx="671.116" cy="1257.29" r="2"/>
<circle clip-path="url(#clip412)" style="fill:#009af9; stroke:none; fill-opacity:0" cx="766.568" cy="1228.39" r="2"/>
<circle clip-path="url(#clip412)" style="fill:#009af9; stroke:none; fill-opacity:0" cx="862.021" cy="1002.91" r="2"/>
<circle clip-path="url(#clip412)" style="fill:#009af9; stroke:none; fill-opacity:0" cx="957.473" cy="731.186" r="2"/>
<circle clip-path="url(#clip412)" style="fill:#009af9; stroke:none; fill-opacity:0" cx="1052.93" cy="459.459" r="2"/>
<circle clip-path="url(#clip412)" style="fill:#009af9; stroke:none; fill-opacity:0" cx="1148.38" cy="239.765" r="2"/>
<circle clip-path="url(#clip412)" style="fill:#009af9; stroke:none; fill-opacity:0" cx="1243.83" cy="83.667" r="2"/>
<circle clip-path="url(#clip412)" style="fill:#009af9; stroke:none; fill-opacity:0" cx="1339.28" cy="453.678" r="2"/>
<circle clip-path="url(#clip412)" style="fill:#009af9; stroke:none; fill-opacity:0" cx="1434.74" cy="812.126" r="2"/>
<circle clip-path="url(#clip412)" style="fill:#009af9; stroke:none; fill-opacity:0" cx="1530.19" cy="1078.07" r="2"/>
<circle clip-path="url(#clip412)" style="fill:#009af9; stroke:none; fill-opacity:0" cx="1625.64" cy="1187.92" r="2"/>
<circle clip-path="url(#clip412)" style="fill:#009af9; stroke:none; fill-opacity:0" cx="1721.09" cy="1274.64" r="2"/>
<circle clip-path="url(#clip412)" style="fill:#009af9; stroke:none; fill-opacity:0" cx="1816.55" cy="1291.98" r="2"/>
</svg>
