<?xml version="1.0" encoding="utf-8"?>
<svg xmlns="http://www.w3.org/2000/svg" xmlns:xlink="http://www.w3.org/1999/xlink" width="672" height="480" viewBox="0 0 2688 1920">
<defs>
  <clipPath id="clip860">
    <rect x="0" y="0" width="2688" height="1920"/>
  </clipPath>
</defs>
<path clip-path="url(#clip860)" d="M0 1920 L2688 1920 L2688 0 L0 0  Z" fill="#ffffff" fill-rule="evenodd" fill-opacity="1"/>
<defs>
  <clipPath id="clip861">
    <rect x="537" y="0" width="1883" height="1883"/>
  </clipPath>
</defs>
<path clip-path="url(#clip860)" d="M211.395 1734.12 L2640.76 1734.12 L2640.76 47.2441 L211.395 47.2441  Z" fill="#ffffff" fill-rule="evenodd" fill-opacity="1"/>
<defs>
  <clipPath id="clip862">
    <rect x="211" y="47" width="2430" height="1688"/>
  </clipPath>
</defs>
<polyline clip-path="url(#clip862)" style="stroke:#000000; stroke-linecap:round; stroke-linejoin:round; stroke-width:2; stroke-opacity:0.1; fill:none" points="213.75,1734.12 213.75,47.2441 "/>
<polyline clip-path="url(#clip862)" style="stroke:#000000; stroke-linecap:round; stroke-linejoin:round; stroke-width:2; stroke-opacity:0.1; fill:none" points="902.718,1734.12 902.718,47.2441 "/>
<polyline clip-path="url(#clip862)" style="stroke:#000000; stroke-linecap:round; stroke-linejoin:round; stroke-width:2; stroke-opacity:0.1; fill:none" points="1591.69,1734.12 1591.69,47.2441 "/>
<polyline clip-path="url(#clip862)" style="stroke:#000000; stroke-linecap:round; stroke-linejoin:round; stroke-width:2; stroke-opacity:0.1; fill:none" points="2280.66,1734.12 2280.66,47.2441 "/>
<polyline clip-path="url(#clip860)" style="stroke:#000000; stroke-linecap:round; stroke-linejoin:round; stroke-width:4; stroke-opacity:1; fill:none" points="211.395,1734.12 2640.76,1734.12 "/>
<polyline clip-path="url(#clip860)" style="stroke:#000000; stroke-linecap:round; stroke-linejoin:round; stroke-width:4; stroke-opacity:1; fill:none" points="213.75,1734.12 213.75,1715.22 "/>
<polyline clip-path="url(#clip860)" style="stroke:#000000; stroke-linecap:round; stroke-linejoin:round; stroke-width:4; stroke-opacity:1; fill:none" points="902.718,1734.12 902.718,1715.22 "/>
<polyline clip-path="url(#clip860)" style="stroke:#000000; stroke-linecap:round; stroke-linejoin:round; stroke-width:4; stroke-opacity:1; fill:none" points="1591.69,1734.12 1591.69,1715.22 "/>
<polyline clip-path="url(#clip860)" style="stroke:#000000; stroke-linecap:round; stroke-linejoin:round; stroke-width:4; stroke-opacity:1; fill:none" points="2280.66,1734.12 2280.66,1715.22 "/>
<path clip-path="url(#clip860)" d="M213.75 1767.34 Q210.139 1767.34 208.31 1770.9 Q206.505 1774.45 206.505 1781.58 Q206.505 1788.68 208.31 1792.25 Q210.139 1795.79 213.75 1795.79 Q217.384 1795.79 219.19 1792.25 Q221.018 1788.68 221.018 1781.58 Q221.018 1774.45 219.19 1770.9 Q217.384 1767.34 213.75 1767.34 M213.75 1763.64 Q219.56 1763.64 222.616 1768.24 Q225.694 1772.83 225.694 1781.58 Q225.694 1790.3 222.616 1794.91 Q219.56 1799.49 213.75 1799.49 Q207.94 1799.49 204.861 1794.91 Q201.805 1790.3 201.805 1781.58 Q201.805 1772.83 204.861 1768.24 Q207.94 1763.64 213.75 1763.64 Z" fill="#000000" fill-rule="evenodd" fill-opacity="1" /><path clip-path="url(#clip860)" d="M892.996 1764.26 L911.353 1764.26 L911.353 1768.2 L897.279 1768.2 L897.279 1776.67 Q898.297 1776.32 899.316 1776.16 Q900.334 1775.97 901.353 1775.97 Q907.14 1775.97 910.519 1779.15 Q913.899 1782.32 913.899 1787.73 Q913.899 1793.31 910.427 1796.41 Q906.955 1799.49 900.635 1799.49 Q898.459 1799.49 896.191 1799.12 Q893.945 1798.75 891.538 1798.01 L891.538 1793.31 Q893.621 1794.45 895.844 1795 Q898.066 1795.56 900.543 1795.56 Q904.547 1795.56 906.885 1793.45 Q909.223 1791.34 909.223 1787.73 Q909.223 1784.12 906.885 1782.02 Q904.547 1779.91 900.543 1779.91 Q898.668 1779.91 896.793 1780.33 Q894.941 1780.74 892.996 1781.62 L892.996 1764.26 Z" fill="#000000" fill-rule="evenodd" fill-opacity="1" /><path clip-path="url(#clip860)" d="M1566.37 1794.89 L1574.01 1794.89 L1574.01 1768.52 L1565.7 1770.19 L1565.7 1765.93 L1573.97 1764.26 L1578.64 1764.26 L1578.64 1794.89 L1586.28 1794.89 L1586.28 1798.82 L1566.37 1798.82 L1566.37 1794.89 Z" fill="#000000" fill-rule="evenodd" fill-opacity="1" /><path clip-path="url(#clip860)" d="M1605.73 1767.34 Q1602.12 1767.34 1600.29 1770.9 Q1598.48 1774.45 1598.48 1781.58 Q1598.48 1788.68 1600.29 1792.25 Q1602.12 1795.79 1605.73 1795.79 Q1609.36 1795.79 1611.17 1792.25 Q1612.99 1788.68 1612.99 1781.58 Q1612.99 1774.45 1611.17 1770.9 Q1609.36 1767.34 1605.73 1767.34 M1605.73 1763.64 Q1611.54 1763.64 1614.59 1768.24 Q1617.67 1772.83 1617.67 1781.58 Q1617.67 1790.3 1614.59 1794.91 Q1611.54 1799.49 1605.73 1799.49 Q1599.92 1799.49 1596.84 1794.91 Q1593.78 1790.3 1593.78 1781.58 Q1593.78 1772.83 1596.84 1768.24 Q1599.92 1763.64 1605.73 1763.64 Z" fill="#000000" fill-rule="evenodd" fill-opacity="1" /><path clip-path="url(#clip860)" d="M2255.84 1794.89 L2263.48 1794.89 L2263.48 1768.52 L2255.17 1770.19 L2255.17 1765.93 L2263.43 1764.26 L2268.11 1764.26 L2268.11 1794.89 L2275.75 1794.89 L2275.75 1798.82 L2255.84 1798.82 L2255.84 1794.89 Z" fill="#000000" fill-rule="evenodd" fill-opacity="1" /><path clip-path="url(#clip860)" d="M2285.24 1764.26 L2303.6 1764.26 L2303.6 1768.2 L2289.52 1768.2 L2289.52 1776.67 Q2290.54 1776.32 2291.56 1776.16 Q2292.58 1775.97 2293.6 1775.97 Q2299.38 1775.97 2302.76 1779.15 Q2306.14 1782.32 2306.14 1787.73 Q2306.14 1793.31 2302.67 1796.41 Q2299.2 1799.49 2292.88 1799.49 Q2290.7 1799.49 2288.43 1799.12 Q2286.19 1798.75 2283.78 1798.01 L2283.78 1793.31 Q2285.86 1794.45 2288.09 1795 Q2290.31 1795.56 2292.79 1795.56 Q2296.79 1795.56 2299.13 1793.45 Q2301.47 1791.34 2301.47 1787.73 Q2301.47 1784.12 2299.13 1782.02 Q2296.79 1779.91 2292.79 1779.91 Q2290.91 1779.91 2289.04 1780.33 Q2287.18 1780.74 2285.24 1781.62 L2285.24 1764.26 Z" fill="#000000" fill-rule="evenodd" fill-opacity="1" /><path clip-path="url(#clip860)" d="M1440.25 1844.06 Q1440.25 1845.86 1439.12 1846.89 Q1437.99 1847.89 1436.71 1847.89 Q1435.48 1847.89 1434.84 1847.18 Q1434.19 1846.48 1434.19 1845.57 Q1434.19 1844.35 1435.1 1843.29 Q1436 1842.22 1437.35 1842 Q1436.03 1841.16 1434.07 1841.16 Q1432.78 1841.16 1431.65 1841.84 Q1430.56 1842.51 1429.88 1843.38 Q1429.23 1844.25 1428.66 1845.51 Q1428.11 1846.73 1427.88 1847.47 Q1427.69 1848.18 1427.53 1848.96 L1425.27 1857.97 Q1424.18 1862.26 1424.18 1863.77 Q1424.18 1865.64 1425.08 1866.89 Q1425.98 1868.12 1427.79 1868.12 Q1428.49 1868.12 1429.3 1867.93 Q1430.1 1867.7 1431.13 1867.12 Q1432.2 1866.51 1433.13 1865.61 Q1434.1 1864.67 1435.03 1863.09 Q1435.97 1861.52 1436.58 1859.49 Q1436.77 1858.78 1437.42 1858.78 Q1438.22 1858.78 1438.22 1859.42 Q1438.22 1859.97 1437.77 1861.13 Q1437.35 1862.26 1436.42 1863.74 Q1435.51 1865.19 1434.32 1866.51 Q1433.13 1867.8 1431.36 1868.7 Q1429.59 1869.6 1427.66 1869.6 Q1424.89 1869.6 1423.05 1868.12 Q1421.22 1866.64 1420.54 1864.58 Q1420.38 1864.87 1420.15 1865.25 Q1419.93 1865.64 1419.25 1866.51 Q1418.61 1867.35 1417.87 1867.99 Q1417.13 1868.6 1415.97 1869.08 Q1414.84 1869.6 1413.61 1869.6 Q1412.07 1869.6 1410.68 1869.15 Q1409.33 1868.7 1408.37 1867.67 Q1407.4 1866.64 1407.4 1865.22 Q1407.4 1863.64 1408.46 1862.55 Q1409.56 1861.42 1411.04 1861.42 Q1411.97 1861.42 1412.71 1861.97 Q1413.49 1862.51 1413.49 1863.71 Q1413.49 1865.03 1412.58 1866.02 Q1411.68 1867.02 1410.39 1867.28 Q1411.71 1868.12 1413.68 1868.12 Q1415.8 1868.12 1417.48 1866.25 Q1419.15 1864.38 1419.96 1861.26 Q1421.96 1853.75 1422.73 1850.41 Q1423.5 1847.02 1423.5 1845.57 Q1423.5 1844.22 1423.15 1843.29 Q1422.79 1842.35 1422.18 1841.93 Q1421.6 1841.48 1421.05 1841.32 Q1420.54 1841.16 1419.96 1841.16 Q1418.99 1841.16 1417.9 1841.55 Q1416.84 1841.93 1415.55 1842.84 Q1414.29 1843.71 1413.1 1845.51 Q1411.91 1847.31 1411.1 1849.79 Q1410.94 1850.53 1410.23 1850.53 Q1409.46 1850.5 1409.46 1849.86 Q1409.46 1849.31 1409.88 1848.18 Q1410.33 1847.02 1411.23 1845.57 Q1412.17 1844.12 1413.36 1842.84 Q1414.58 1841.52 1416.35 1840.61 Q1418.16 1839.71 1420.09 1839.71 Q1420.96 1839.71 1421.8 1839.91 Q1422.66 1840.07 1423.7 1840.55 Q1424.76 1841.03 1425.69 1842.1 Q1426.63 1843.16 1427.21 1844.7 Q1427.59 1843.96 1428.11 1843.26 Q1428.66 1842.55 1429.49 1841.68 Q1430.36 1840.78 1431.55 1840.26 Q1432.78 1839.71 1434.13 1839.71 Q1435.45 1839.71 1436.74 1840.07 Q1438.03 1840.39 1439.12 1841.45 Q1440.25 1842.48 1440.25 1844.06 Z" fill="#000000" fill-rule="evenodd" fill-opacity="1" /><polyline clip-path="url(#clip862)" style="stroke:#000000; stroke-linecap:round; stroke-linejoin:round; stroke-width:2; stroke-opacity:0.1; fill:none" points="211.395,1360.03 2640.76,1360.03 "/>
<polyline clip-path="url(#clip862)" style="stroke:#000000; stroke-linecap:round; stroke-linejoin:round; stroke-width:2; stroke-opacity:0.1; fill:none" points="211.395,974.016 2640.76,974.016 "/>
<polyline clip-path="url(#clip862)" style="stroke:#000000; stroke-linecap:round; stroke-linejoin:round; stroke-width:2; stroke-opacity:0.1; fill:none" points="211.395,587.999 2640.76,587.999 "/>
<polyline clip-path="url(#clip862)" style="stroke:#000000; stroke-linecap:round; stroke-linejoin:round; stroke-width:2; stroke-opacity:0.1; fill:none" points="211.395,201.982 2640.76,201.982 "/>
<polyline clip-path="url(#clip860)" style="stroke:#000000; stroke-linecap:round; stroke-linejoin:round; stroke-width:4; stroke-opacity:1; fill:none" points="211.395,1734.12 211.395,47.2441 "/>
<polyline clip-path="url(#clip860)" style="stroke:#000000; stroke-linecap:round; stroke-linejoin:round; stroke-width:4; stroke-opacity:1; fill:none" points="211.395,1360.03 230.293,1360.03 "/>
<polyline clip-path="url(#clip860)" style="stroke:#000000; stroke-linecap:round; stroke-linejoin:round; stroke-width:4; stroke-opacity:1; fill:none" points="211.395,974.016 230.293,974.016 "/>
<polyline clip-path="url(#clip860)" style="stroke:#000000; stroke-linecap:round; stroke-linejoin:round; stroke-width:4; stroke-opacity:1; fill:none" points="211.395,587.999 230.293,587.999 "/>
<polyline clip-path="url(#clip860)" style="stroke:#000000; stroke-linecap:round; stroke-linejoin:round; stroke-width:4; stroke-opacity:1; fill:none" points="211.395,201.982 230.293,201.982 "/>
<path clip-path="url(#clip860)" d="M122.997 1373.38 L139.316 1373.38 L139.316 1377.31 L117.372 1377.31 L117.372 1373.38 Q120.034 1370.62 124.617 1365.99 Q129.224 1361.34 130.404 1360 Q132.65 1357.47 133.529 1355.74 Q134.432 1353.98 134.432 1352.29 Q134.432 1349.53 132.488 1347.8 Q130.566 1346.06 127.464 1346.06 Q125.265 1346.06 122.812 1346.83 Q120.381 1347.59 117.603 1349.14 L117.603 1344.42 Q120.427 1343.28 122.881 1342.71 Q125.335 1342.13 127.372 1342.13 Q132.742 1342.13 135.937 1344.81 Q139.131 1347.5 139.131 1351.99 Q139.131 1354.12 138.321 1356.04 Q137.534 1357.94 135.427 1360.53 Q134.849 1361.2 131.747 1364.42 Q128.645 1367.61 122.997 1373.38 Z" fill="#000000" fill-rule="evenodd" fill-opacity="1" /><path clip-path="url(#clip860)" d="M159.131 1345.83 Q155.52 1345.83 153.691 1349.4 Q151.886 1352.94 151.886 1360.07 Q151.886 1367.17 153.691 1370.74 Q155.52 1374.28 159.131 1374.28 Q162.765 1374.28 164.571 1370.74 Q166.399 1367.17 166.399 1360.07 Q166.399 1352.94 164.571 1349.4 Q162.765 1345.83 159.131 1345.83 M159.131 1342.13 Q164.941 1342.13 167.997 1346.73 Q171.075 1351.32 171.075 1360.07 Q171.075 1368.79 167.997 1373.4 Q164.941 1377.98 159.131 1377.98 Q153.321 1377.98 150.242 1373.4 Q147.186 1368.79 147.186 1360.07 Q147.186 1351.32 150.242 1346.73 Q153.321 1342.13 159.131 1342.13 Z" fill="#000000" fill-rule="evenodd" fill-opacity="1" /><path clip-path="url(#clip860)" d="M131.816 960.81 L120.011 979.259 L131.816 979.259 L131.816 960.81 M130.589 956.736 L136.469 956.736 L136.469 979.259 L141.399 979.259 L141.399 983.147 L136.469 983.147 L136.469 991.296 L131.816 991.296 L131.816 983.147 L116.214 983.147 L116.214 978.634 L130.589 956.736 Z" fill="#000000" fill-rule="evenodd" fill-opacity="1" /><path clip-path="url(#clip860)" d="M159.131 959.814 Q155.52 959.814 153.691 963.379 Q151.886 966.921 151.886 974.05 Q151.886 981.157 153.691 984.722 Q155.52 988.263 159.131 988.263 Q162.765 988.263 164.571 984.722 Q166.399 981.157 166.399 974.05 Q166.399 966.921 164.571 963.379 Q162.765 959.814 159.131 959.814 M159.131 956.111 Q164.941 956.111 167.997 960.717 Q171.075 965.3 171.075 974.05 Q171.075 982.777 167.997 987.384 Q164.941 991.967 159.131 991.967 Q153.321 991.967 150.242 987.384 Q147.186 982.777 147.186 974.05 Q147.186 965.3 150.242 960.717 Q153.321 956.111 159.131 956.111 Z" fill="#000000" fill-rule="evenodd" fill-opacity="1" /><path clip-path="url(#clip860)" d="M129.548 586.135 Q126.4 586.135 124.548 588.288 Q122.719 590.441 122.719 594.191 Q122.719 597.918 124.548 600.094 Q126.4 602.246 129.548 602.246 Q132.696 602.246 134.525 600.094 Q136.376 597.918 136.376 594.191 Q136.376 590.441 134.525 588.288 Q132.696 586.135 129.548 586.135 M138.83 571.483 L138.83 575.742 Q137.071 574.909 135.265 574.469 Q133.483 574.029 131.724 574.029 Q127.094 574.029 124.64 577.154 Q122.21 580.279 121.863 586.598 Q123.228 584.585 125.288 583.52 Q127.349 582.432 129.825 582.432 Q135.034 582.432 138.043 585.603 Q141.075 588.751 141.075 594.191 Q141.075 599.515 137.927 602.733 Q134.779 605.95 129.548 605.95 Q123.552 605.95 120.381 601.367 Q117.21 596.76 117.21 588.034 Q117.21 579.839 121.099 574.978 Q124.988 570.094 131.538 570.094 Q133.298 570.094 135.08 570.441 Q136.886 570.788 138.83 571.483 Z" fill="#000000" fill-rule="evenodd" fill-opacity="1" /><path clip-path="url(#clip860)" d="M159.131 573.798 Q155.52 573.798 153.691 577.362 Q151.886 580.904 151.886 588.034 Q151.886 595.14 153.691 598.705 Q155.52 602.246 159.131 602.246 Q162.765 602.246 164.571 598.705 Q166.399 595.14 166.399 588.034 Q166.399 580.904 164.571 577.362 Q162.765 573.798 159.131 573.798 M159.131 570.094 Q164.941 570.094 167.997 574.7 Q171.075 579.284 171.075 588.034 Q171.075 596.76 167.997 601.367 Q164.941 605.95 159.131 605.95 Q153.321 605.95 150.242 601.367 Q147.186 596.76 147.186 588.034 Q147.186 579.284 150.242 574.7 Q153.321 570.094 159.131 570.094 Z" fill="#000000" fill-rule="evenodd" fill-opacity="1" /><path clip-path="url(#clip860)" d="M128.969 202.85 Q125.636 202.85 123.714 204.633 Q121.816 206.415 121.816 209.54 Q121.816 212.665 123.714 214.447 Q125.636 216.23 128.969 216.23 Q132.302 216.23 134.224 214.447 Q136.145 212.642 136.145 209.54 Q136.145 206.415 134.224 204.633 Q132.325 202.85 128.969 202.85 M124.293 200.859 Q121.284 200.119 119.594 198.059 Q117.927 195.998 117.927 193.035 Q117.927 188.892 120.867 186.485 Q123.83 184.077 128.969 184.077 Q134.131 184.077 137.071 186.485 Q140.011 188.892 140.011 193.035 Q140.011 195.998 138.321 198.059 Q136.654 200.119 133.668 200.859 Q137.048 201.647 138.923 203.938 Q140.821 206.23 140.821 209.54 Q140.821 214.563 137.742 217.248 Q134.687 219.933 128.969 219.933 Q123.251 219.933 120.173 217.248 Q117.117 214.563 117.117 209.54 Q117.117 206.23 119.015 203.938 Q120.913 201.647 124.293 200.859 M122.58 193.475 Q122.58 196.16 124.247 197.665 Q125.937 199.17 128.969 199.17 Q131.978 199.17 133.668 197.665 Q135.381 196.16 135.381 193.475 Q135.381 190.79 133.668 189.285 Q131.978 187.781 128.969 187.781 Q125.937 187.781 124.247 189.285 Q122.58 190.79 122.58 193.475 Z" fill="#000000" fill-rule="evenodd" fill-opacity="1" /><path clip-path="url(#clip860)" d="M159.131 187.781 Q155.52 187.781 153.691 191.346 Q151.886 194.887 151.886 202.017 Q151.886 209.123 153.691 212.688 Q155.52 216.23 159.131 216.23 Q162.765 216.23 164.571 212.688 Q166.399 209.123 166.399 202.017 Q166.399 194.887 164.571 191.346 Q162.765 187.781 159.131 187.781 M159.131 184.077 Q164.941 184.077 167.997 188.684 Q171.075 193.267 171.075 202.017 Q171.075 210.744 167.997 215.35 Q164.941 219.933 159.131 219.933 Q153.321 219.933 150.242 215.35 Q147.186 210.744 147.186 202.017 Q147.186 193.267 150.242 188.684 Q153.321 184.077 159.131 184.077 Z" fill="#000000" fill-rule="evenodd" fill-opacity="1" /><path clip-path="url(#clip860)" d="M28.4832 876.243 Q28.9341 876.243 29.9969 876.533 L55.1819 882.845 Q60.7857 884.23 64.7148 888.739 Q68.6439 893.215 68.6439 898.304 Q68.6439 901.364 67.0014 903.328 Q65.3911 905.293 62.9113 905.293 Q60.7213 905.293 59.6585 904.133 Q58.6279 902.974 58.6279 901.589 Q58.6279 901.138 58.7567 900.655 Q58.8855 900.172 59.433 899.657 Q59.9805 899.141 60.9145 899.141 Q62.4282 899.141 63.6198 900.462 Q64.1673 901.106 64.2961 901.718 Q64.4249 902.297 64.4249 903.296 Q65.3267 902.909 65.9386 902.201 Q66.5505 901.492 66.776 900.687 Q67.0336 899.882 67.098 899.367 Q67.1946 898.819 67.1946 898.304 Q67.1946 894.182 63.0401 891.025 Q61.7841 890.091 60.528 889.415 Q59.3042 888.707 57.7905 888.191 Q56.3091 887.676 55.5039 887.451 Q54.6988 887.193 52.863 886.742 Q55.8582 889.737 55.8582 893.409 Q55.8582 894.955 55.4395 896.339 Q55.0208 897.692 54.1513 898.884 Q53.2495 900.075 51.6714 900.784 Q50.0933 901.46 47.9999 901.46 Q45.7777 901.46 42.7504 900.591 Q39.723 899.721 34.1514 897.628 Q31.0275 896.5 29.5138 896.5 Q28.773 896.5 28.3222 896.661 Q27.8391 896.822 27.678 897.145 Q27.4848 897.467 27.4526 897.66 Q27.4204 897.821 27.4204 898.143 Q27.4204 900.043 29.3528 901.814 Q31.2851 903.586 35.6007 904.81 Q36.4058 905.067 36.5991 905.228 Q36.7923 905.389 36.7923 905.872 Q36.7601 906.677 36.116 906.677 Q35.8583 906.677 34.86 906.388 Q33.8294 906.098 32.3157 905.421 Q30.7698 904.713 29.385 903.747 Q27.9679 902.781 26.9695 901.267 Q25.9711 899.721 25.9711 897.95 Q25.9711 895.534 27.5492 894.053 Q29.0951 892.539 31.3817 892.539 Q32.3157 892.539 33.153 892.797 Q33.9582 893.022 36.116 893.86 Q44.8116 897.241 49.0627 897.241 Q50.0933 897.241 50.9629 897.08 Q51.8002 896.887 52.6376 896.468 Q53.4427 896.05 53.9258 895.212 Q54.3767 894.343 54.3767 893.151 Q54.3767 891.637 53.6682 890.22 Q52.9274 888.771 51.9291 887.869 Q50.9307 886.935 50.0933 886.388 Q49.2238 885.808 48.7729 885.679 L36.9211 882.716 L31.6394 881.396 Q28.773 880.784 28.0645 880.494 Q27.3882 880.108 27.0339 879.431 Q26.6797 878.755 26.6797 878.175 Q26.6797 877.37 27.1628 876.823 Q27.6458 876.243 28.4832 876.243 Z" fill="#000000" fill-rule="evenodd" fill-opacity="1" /><circle clip-path="url(#clip862)" cx="349.261" cy="1686.38" r="14.4" fill="#009af9" fill-rule="evenodd" fill-opacity="1" stroke="#000000" stroke-opacity="1" stroke-width="3.84"/>
<circle clip-path="url(#clip862)" cx="541.916" cy="1375.4" r="14.4" fill="#009af9" fill-rule="evenodd" fill-opacity="1" stroke="#000000" stroke-opacity="1" stroke-width="3.84"/>
<circle clip-path="url(#clip862)" cx="1297.56" cy="1117.87" r="14.4" fill="#009af9" fill-rule="evenodd" fill-opacity="1" stroke="#000000" stroke-opacity="1" stroke-width="3.84"/>
<circle clip-path="url(#clip862)" cx="280.151" cy="1499.55" r="14.4" fill="#009af9" fill-rule="evenodd" fill-opacity="1" stroke="#000000" stroke-opacity="1" stroke-width="3.84"/>
<circle clip-path="url(#clip862)" cx="2120.42" cy="587.315" r="14.4" fill="#009af9" fill-rule="evenodd" fill-opacity="1" stroke="#000000" stroke-opacity="1" stroke-width="3.84"/>
<circle clip-path="url(#clip862)" cx="2328.93" cy="772.968" r="14.4" fill="#009af9" fill-rule="evenodd" fill-opacity="1" stroke="#000000" stroke-opacity="1" stroke-width="3.84"/>
<circle clip-path="url(#clip862)" cx="454.208" cy="1662.65" r="14.4" fill="#009af9" fill-rule="evenodd" fill-opacity="1" stroke="#000000" stroke-opacity="1" stroke-width="3.84"/>
<circle clip-path="url(#clip862)" cx="2572" cy="94.9858" r="14.4" fill="#009af9" fill-rule="evenodd" fill-opacity="1" stroke="#000000" stroke-opacity="1" stroke-width="3.84"/>
<circle clip-path="url(#clip862)" cx="2425.51" cy="555.699" r="14.4" fill="#009af9" fill-rule="evenodd" fill-opacity="1" stroke="#000000" stroke-opacity="1" stroke-width="3.84"/>
<circle clip-path="url(#clip862)" cx="2036.56" cy="743.657" r="14.4" fill="#009af9" fill-rule="evenodd" fill-opacity="1" stroke="#000000" stroke-opacity="1" stroke-width="3.84"/>
<path clip-path="url(#clip860)" d="M292.374 207.153 L639.546 207.153 L639.546 103.473 L292.374 103.473  Z" fill="#ffffff" fill-rule="evenodd" fill-opacity="1"/>
<polyline clip-path="url(#clip860)" style="stroke:#000000; stroke-linecap:round; stroke-linejoin:round; stroke-width:4; stroke-opacity:1; fill:none" points="292.374,207.153 639.546,207.153 639.546,103.473 292.374,103.473 292.374,207.153 "/>
<circle clip-path="url(#clip860)" cx="400.346" cy="155.313" r="23.04" fill="#009af9" fill-rule="evenodd" fill-opacity="1" stroke="#000000" stroke-opacity="1" stroke-width="6.144"/>
<path clip-path="url(#clip860)" d="M512.993 141.876 L512.993 168.751 L518.641 168.751 Q525.794 168.751 529.104 165.51 Q532.437 162.269 532.437 155.278 Q532.437 148.334 529.104 145.116 Q525.794 141.876 518.641 141.876 L512.993 141.876 M508.317 138.033 L517.924 138.033 Q527.97 138.033 532.669 142.223 Q537.368 146.39 537.368 155.278 Q537.368 164.214 532.646 168.403 Q527.923 172.593 517.924 172.593 L508.317 172.593 L508.317 138.033 Z" fill="#000000" fill-rule="evenodd" fill-opacity="1" /><path clip-path="url(#clip860)" d="M556.419 159.561 Q551.257 159.561 549.266 160.741 Q547.275 161.922 547.275 164.769 Q547.275 167.038 548.757 168.38 Q550.261 169.7 552.831 169.7 Q556.372 169.7 558.502 167.2 Q560.655 164.677 560.655 160.51 L560.655 159.561 L556.419 159.561 M564.914 157.802 L564.914 172.593 L560.655 172.593 L560.655 168.658 Q559.196 171.019 557.021 172.153 Q554.845 173.264 551.697 173.264 Q547.715 173.264 545.354 171.042 Q543.016 168.797 543.016 165.047 Q543.016 160.672 545.933 158.45 Q548.872 156.228 554.683 156.228 L560.655 156.228 L560.655 155.811 Q560.655 152.871 558.71 151.274 Q556.789 149.653 553.294 149.653 Q551.072 149.653 548.965 150.186 Q546.859 150.718 544.914 151.783 L544.914 147.848 Q547.252 146.945 549.451 146.505 Q551.65 146.042 553.734 146.042 Q559.359 146.042 562.136 148.959 Q564.914 151.876 564.914 157.802 Z" fill="#000000" fill-rule="evenodd" fill-opacity="1" /><path clip-path="url(#clip860)" d="M577.9 139.306 L577.9 146.667 L586.673 146.667 L586.673 149.978 L577.9 149.978 L577.9 164.052 Q577.9 167.223 578.757 168.126 Q579.636 169.028 582.298 169.028 L586.673 169.028 L586.673 172.593 L582.298 172.593 Q577.368 172.593 575.493 170.764 Q573.618 168.913 573.618 164.052 L573.618 149.978 L570.493 149.978 L570.493 146.667 L573.618 146.667 L573.618 139.306 L577.9 139.306 Z" fill="#000000" fill-rule="evenodd" fill-opacity="1" /><path clip-path="url(#clip860)" d="M604.057 159.561 Q598.895 159.561 596.905 160.741 Q594.914 161.922 594.914 164.769 Q594.914 167.038 596.395 168.38 Q597.9 169.7 600.469 169.7 Q604.011 169.7 606.141 167.2 Q608.293 164.677 608.293 160.51 L608.293 159.561 L604.057 159.561 M612.553 157.802 L612.553 172.593 L608.293 172.593 L608.293 168.658 Q606.835 171.019 604.659 172.153 Q602.483 173.264 599.335 173.264 Q595.354 173.264 592.993 171.042 Q590.655 168.797 590.655 165.047 Q590.655 160.672 593.571 158.45 Q596.511 156.228 602.321 156.228 L608.293 156.228 L608.293 155.811 Q608.293 152.871 606.349 151.274 Q604.428 149.653 600.932 149.653 Q598.71 149.653 596.604 150.186 Q594.497 150.718 592.553 151.783 L592.553 147.848 Q594.891 146.945 597.09 146.505 Q599.289 146.042 601.372 146.042 Q606.997 146.042 609.775 148.959 Q612.553 151.876 612.553 157.802 Z" fill="#000000" fill-rule="evenodd" fill-opacity="1" /></svg>
