<?xml version="1.0" encoding="utf-8"?>
<svg xmlns="http://www.w3.org/2000/svg" xmlns:xlink="http://www.w3.org/1999/xlink" width="600" height="400" viewBox="0 0 2400 1600">
<defs>
  <clipPath id="clip980">
    <rect x="0" y="0" width="2400" height="1600"/>
  </clipPath>
</defs>
<path clip-path="url(#clip980)" d="
M0 1600 L2400 1600 L2400 0 L0 0  Z
  " fill="#ffffff" fill-rule="evenodd" fill-opacity="1"/>
<defs>
  <clipPath id="clip981">
    <rect x="480" y="0" width="1681" height="1600"/>
  </clipPath>
</defs>
<defs>
  <clipPath id="clip982">
    <rect x="292" y="47" width="2062" height="1347"/>
  </clipPath>
</defs>
<path clip-path="url(#clip980)" d="
M292.155 1392.94 L2352.76 1392.94 L2352.76 47.2441 L292.155 47.2441  Z
  " fill="#ffffff" fill-rule="evenodd" fill-opacity="1"/>
<polyline clip-path="url(#clip982)" style="stroke:#000000; stroke-linecap:round; stroke-linejoin:round; stroke-width:2; stroke-opacity:0.1; fill:none" points="
  813.031,1392.94 813.031,47.2441 
  "/>
<polyline clip-path="url(#clip982)" style="stroke:#000000; stroke-linecap:round; stroke-linejoin:round; stroke-width:2; stroke-opacity:0.1; fill:none" points="
  1831.88,1392.94 1831.88,47.2441 
  "/>
<polyline clip-path="url(#clip980)" style="stroke:#000000; stroke-linecap:round; stroke-linejoin:round; stroke-width:4; stroke-opacity:1; fill:none" points="
  292.155,1392.94 2352.76,1392.94 
  "/>
<polyline clip-path="url(#clip980)" style="stroke:#000000; stroke-linecap:round; stroke-linejoin:round; stroke-width:4; stroke-opacity:1; fill:none" points="
  813.031,1392.94 813.031,1374.04 
  "/>
<polyline clip-path="url(#clip980)" style="stroke:#000000; stroke-linecap:round; stroke-linejoin:round; stroke-width:4; stroke-opacity:1; fill:none" points="
  1831.88,1392.94 1831.88,1374.04 
  "/>
<path clip-path="url(#clip980)" d="M822.273 1442.71 Q822.273 1443.69 821.816 1443.94 Q821.359 1444.15 820.095 1444.15 L813.349 1444.15 L808.009 1465.37 Q807.587 1467.23 807.587 1468.82 Q807.587 1470.57 808.114 1471.35 Q808.676 1472.12 809.836 1472.12 Q812.119 1472.12 814.579 1470.05 Q817.073 1467.97 819.181 1462.91 Q819.462 1462.25 819.603 1462.1 Q819.778 1461.93 820.235 1461.93 Q821.113 1461.93 821.113 1462.63 Q821.113 1462.88 820.622 1464 Q820.165 1465.13 819.146 1466.78 Q818.162 1468.43 816.862 1469.97 Q815.597 1471.52 813.665 1472.65 Q811.733 1473.73 809.66 1473.73 Q806.744 1473.73 804.882 1471.87 Q803.055 1470.01 803.055 1467.09 Q803.055 1466.15 803.793 1463.12 Q804.53 1460.07 808.536 1444.15 L802.176 1444.15 Q801.298 1444.15 800.947 1444.12 Q800.63 1444.08 800.385 1443.91 Q800.174 1443.69 800.174 1443.27 Q800.174 1442.61 800.455 1442.32 Q800.736 1442.01 801.087 1441.97 Q801.474 1441.9 802.352 1441.9 L809.098 1441.9 L811.908 1430.48 Q812.189 1429.36 812.892 1428.73 Q813.63 1428.06 814.052 1427.99 Q814.473 1427.88 814.789 1427.88 Q815.738 1427.88 816.3 1428.41 Q816.862 1428.9 816.862 1429.82 Q816.862 1430.31 813.911 1441.9 L820.235 1441.9 Q821.043 1441.9 821.359 1441.94 Q821.711 1441.97 821.992 1442.15 Q822.273 1442.32 822.273 1442.71 Z" fill="#000000" fill-rule="evenodd" fill-opacity="1" /><path clip-path="url(#clip980)" d="M1775.63 1441.65 Q1775.63 1442.63 1775.17 1442.88 Q1774.71 1443.09 1773.45 1443.09 L1766.7 1443.09 L1761.36 1464.31 Q1760.94 1466.17 1760.94 1467.75 Q1760.94 1469.51 1761.47 1470.28 Q1762.03 1471.06 1763.19 1471.06 Q1765.47 1471.06 1767.93 1468.98 Q1770.43 1466.91 1772.54 1461.85 Q1772.82 1461.18 1772.96 1461.04 Q1773.13 1460.87 1773.59 1460.87 Q1774.47 1460.87 1774.47 1461.57 Q1774.47 1461.82 1773.98 1462.94 Q1773.52 1464.06 1772.5 1465.72 Q1771.52 1467.37 1770.22 1468.91 Q1768.95 1470.46 1767.02 1471.58 Q1765.09 1472.67 1763.01 1472.67 Q1760.1 1472.67 1758.24 1470.81 Q1756.41 1468.95 1756.41 1466.03 Q1756.41 1465.08 1757.15 1462.06 Q1757.88 1459 1761.89 1443.09 L1755.53 1443.09 Q1754.65 1443.09 1754.3 1443.05 Q1753.98 1443.02 1753.74 1442.84 Q1753.53 1442.63 1753.53 1442.21 Q1753.53 1441.54 1753.81 1441.26 Q1754.09 1440.95 1754.44 1440.91 Q1754.83 1440.84 1755.71 1440.84 L1762.45 1440.84 L1765.26 1429.42 Q1765.54 1428.3 1766.25 1427.67 Q1766.98 1427 1767.41 1426.93 Q1767.83 1426.82 1768.14 1426.82 Q1769.09 1426.82 1769.65 1427.35 Q1770.22 1427.84 1770.22 1428.75 Q1770.22 1429.25 1767.27 1440.84 L1773.59 1440.84 Q1774.4 1440.84 1774.71 1440.88 Q1775.06 1440.91 1775.35 1441.09 Q1775.63 1441.26 1775.63 1441.65 Z" fill="#000000" fill-rule="evenodd" fill-opacity="1" /><path clip-path="url(#clip980)" d="M1800.86 1454.75 Q1799.2 1454.75 1799.2 1453.88 Q1799.2 1453 1800.93 1453 Q1801.14 1453 1801.49 1453.03 Q1801.88 1453.07 1801.95 1453.07 L1822.22 1453.07 L1822.22 1432.72 Q1822.22 1432.65 1822.18 1432.34 Q1822.15 1431.99 1822.15 1431.78 Q1822.15 1430.05 1822.99 1430.05 Q1823.87 1430.05 1823.87 1431.78 L1823.87 1453.07 L1844.18 1453.07 Q1844.25 1453.07 1844.6 1453.03 Q1844.95 1453 1845.16 1453 Q1846.81 1453 1846.81 1453.88 Q1846.85 1454.75 1845.09 1454.75 Q1844.88 1454.75 1844.56 1454.72 Q1844.25 1454.68 1844.18 1454.68 L1823.87 1454.68 L1823.87 1476.04 Q1823.87 1477.7 1822.99 1477.7 Q1822.15 1477.7 1822.15 1475.97 Q1822.15 1475.76 1822.18 1475.41 Q1822.22 1475.1 1822.22 1475.03 L1822.22 1454.68 L1801.95 1454.68 Q1801.88 1454.68 1801.45 1454.72 Q1801.07 1454.75 1800.86 1454.75 Z" fill="#000000" fill-rule="evenodd" fill-opacity="1" /><path clip-path="url(#clip980)" d="M1874.6 1430.79 L1874.6 1428.54 Q1883.24 1428.54 1887.7 1423.94 Q1888.93 1423.94 1889.14 1424.22 Q1889.36 1424.5 1889.36 1425.8 L1889.36 1466.17 Q1889.36 1468.32 1890.41 1468.98 Q1891.46 1469.65 1896.07 1469.65 L1898.35 1469.65 L1898.35 1471.86 Q1895.82 1471.65 1886.69 1471.65 Q1877.55 1471.65 1875.06 1471.86 L1875.06 1469.65 L1877.34 1469.65 Q1881.87 1469.65 1882.96 1469.02 Q1884.05 1468.35 1884.05 1466.17 L1884.05 1428.9 Q1880.29 1430.79 1874.6 1430.79 Z" fill="#000000" fill-rule="evenodd" fill-opacity="1" /><path clip-path="url(#clip980)" d="M1223.03 1518.8 L1274.19 1518.8 L1274.19 1525.68 L1252.72 1525.68 L1252.72 1579.28 L1244.5 1579.28 L1244.5 1525.68 L1223.03 1525.68 L1223.03 1518.8 Z" fill="#000000" fill-rule="evenodd" fill-opacity="1" /><path clip-path="url(#clip980)" d="M1279.21 1533.91 L1286.67 1533.91 L1286.67 1579.28 L1279.21 1579.28 L1279.21 1533.91 M1279.21 1516.24 L1286.67 1516.24 L1286.67 1525.68 L1279.21 1525.68 L1279.21 1516.24 Z" fill="#000000" fill-rule="evenodd" fill-opacity="1" /><path clip-path="url(#clip980)" d="M1337.59 1542.62 Q1340.38 1537.59 1344.27 1535.2 Q1348.16 1532.81 1353.42 1532.81 Q1360.51 1532.81 1364.36 1537.79 Q1368.21 1542.74 1368.21 1551.89 L1368.21 1579.28 L1360.72 1579.28 L1360.72 1552.13 Q1360.72 1545.61 1358.41 1542.45 Q1356.1 1539.29 1351.36 1539.29 Q1345.57 1539.29 1342.2 1543.14 Q1338.84 1546.99 1338.84 1553.63 L1338.84 1579.28 L1331.35 1579.28 L1331.35 1552.13 Q1331.35 1545.57 1329.04 1542.45 Q1326.73 1539.29 1321.91 1539.29 Q1316.2 1539.29 1312.83 1543.18 Q1309.47 1547.03 1309.47 1553.63 L1309.47 1579.28 L1301.98 1579.28 L1301.98 1533.91 L1309.47 1533.91 L1309.47 1540.95 Q1312.02 1536.78 1315.59 1534.8 Q1319.15 1532.81 1324.06 1532.81 Q1329 1532.81 1332.44 1535.32 Q1335.92 1537.84 1337.59 1542.62 Z" fill="#000000" fill-rule="evenodd" fill-opacity="1" /><path clip-path="url(#clip980)" d="M1421.89 1554.73 L1421.89 1558.37 L1387.61 1558.37 Q1388.1 1566.07 1392.23 1570.12 Q1396.4 1574.13 1403.82 1574.13 Q1408.11 1574.13 1412.12 1573.08 Q1416.17 1572.02 1420.14 1569.92 L1420.14 1576.97 Q1416.13 1578.67 1411.92 1579.56 Q1407.71 1580.45 1403.37 1580.45 Q1392.52 1580.45 1386.16 1574.13 Q1379.84 1567.81 1379.84 1557.04 Q1379.84 1545.9 1385.83 1539.37 Q1391.87 1532.81 1402.08 1532.81 Q1411.23 1532.81 1416.54 1538.73 Q1421.89 1544.6 1421.89 1554.73 M1414.43 1552.54 Q1414.35 1546.42 1410.99 1542.78 Q1407.67 1539.13 1402.16 1539.13 Q1395.92 1539.13 1392.15 1542.66 Q1388.42 1546.18 1387.86 1552.58 L1414.43 1552.54 Z" fill="#000000" fill-rule="evenodd" fill-opacity="1" /><polyline clip-path="url(#clip982)" style="stroke:#000000; stroke-linecap:round; stroke-linejoin:round; stroke-width:2; stroke-opacity:0.1; fill:none" points="
  292.155,1392.94 2352.76,1392.94 
  "/>
<polyline clip-path="url(#clip982)" style="stroke:#000000; stroke-linecap:round; stroke-linejoin:round; stroke-width:2; stroke-opacity:0.1; fill:none" points="
  292.155,1123.8 2352.76,1123.8 
  "/>
<polyline clip-path="url(#clip982)" style="stroke:#000000; stroke-linecap:round; stroke-linejoin:round; stroke-width:2; stroke-opacity:0.1; fill:none" points="
  292.155,854.662 2352.76,854.662 
  "/>
<polyline clip-path="url(#clip982)" style="stroke:#000000; stroke-linecap:round; stroke-linejoin:round; stroke-width:2; stroke-opacity:0.1; fill:none" points="
  292.155,585.522 2352.76,585.522 
  "/>
<polyline clip-path="url(#clip982)" style="stroke:#000000; stroke-linecap:round; stroke-linejoin:round; stroke-width:2; stroke-opacity:0.1; fill:none" points="
  292.155,316.383 2352.76,316.383 
  "/>
<polyline clip-path="url(#clip982)" style="stroke:#000000; stroke-linecap:round; stroke-linejoin:round; stroke-width:2; stroke-opacity:0.1; fill:none" points="
  292.155,47.2441 2352.76,47.2441 
  "/>
<polyline clip-path="url(#clip980)" style="stroke:#000000; stroke-linecap:round; stroke-linejoin:round; stroke-width:4; stroke-opacity:1; fill:none" points="
  292.155,1392.94 292.155,47.2441 
  "/>
<polyline clip-path="url(#clip980)" style="stroke:#000000; stroke-linecap:round; stroke-linejoin:round; stroke-width:4; stroke-opacity:1; fill:none" points="
  292.155,1392.94 311.053,1392.94 
  "/>
<polyline clip-path="url(#clip980)" style="stroke:#000000; stroke-linecap:round; stroke-linejoin:round; stroke-width:4; stroke-opacity:1; fill:none" points="
  292.155,1123.8 311.053,1123.8 
  "/>
<polyline clip-path="url(#clip980)" style="stroke:#000000; stroke-linecap:round; stroke-linejoin:round; stroke-width:4; stroke-opacity:1; fill:none" points="
  292.155,854.662 311.053,854.662 
  "/>
<polyline clip-path="url(#clip980)" style="stroke:#000000; stroke-linecap:round; stroke-linejoin:round; stroke-width:4; stroke-opacity:1; fill:none" points="
  292.155,585.522 311.053,585.522 
  "/>
<polyline clip-path="url(#clip980)" style="stroke:#000000; stroke-linecap:round; stroke-linejoin:round; stroke-width:4; stroke-opacity:1; fill:none" points="
  292.155,316.383 311.053,316.383 
  "/>
<polyline clip-path="url(#clip980)" style="stroke:#000000; stroke-linecap:round; stroke-linejoin:round; stroke-width:4; stroke-opacity:1; fill:none" points="
  292.155,47.2441 311.053,47.2441 
  "/>
<path clip-path="url(#clip980)" d="M238.239 1371.64 Q232.822 1371.64 230.079 1376.99 Q227.371 1382.3 227.371 1392.99 Q227.371 1403.65 230.079 1409 Q232.822 1414.31 238.239 1414.31 Q243.69 1414.31 246.399 1409 Q249.142 1403.65 249.142 1392.99 Q249.142 1382.3 246.399 1376.99 Q243.69 1371.64 238.239 1371.64 M238.239 1366.08 Q246.954 1366.08 251.537 1372.99 Q256.155 1379.87 256.155 1392.99 Q256.155 1406.08 251.537 1412.99 Q246.954 1419.87 238.239 1419.87 Q229.524 1419.87 224.906 1412.99 Q220.322 1406.08 220.322 1392.99 Q220.322 1379.87 224.906 1372.99 Q229.524 1366.08 238.239 1366.08 Z" fill="#000000" fill-rule="evenodd" fill-opacity="1" /><path clip-path="url(#clip980)" d="M133.969 1143.82 L145.427 1143.82 L145.427 1104.27 L132.962 1106.77 L132.962 1100.38 L145.357 1097.88 L152.371 1097.88 L152.371 1143.82 L163.83 1143.82 L163.83 1149.72 L133.969 1149.72 L133.969 1143.82 Z" fill="#000000" fill-rule="evenodd" fill-opacity="1" /><path clip-path="url(#clip980)" d="M192.996 1102.5 Q187.579 1102.5 184.836 1107.85 Q182.128 1113.16 182.128 1123.85 Q182.128 1134.51 184.836 1139.86 Q187.579 1145.17 192.996 1145.17 Q198.447 1145.17 201.156 1139.86 Q203.899 1134.51 203.899 1123.85 Q203.899 1113.16 201.156 1107.85 Q198.447 1102.5 192.996 1102.5 M192.996 1096.94 Q201.711 1096.94 206.295 1103.85 Q210.913 1110.73 210.913 1123.85 Q210.913 1136.94 206.295 1143.85 Q201.711 1150.73 192.996 1150.73 Q184.281 1150.73 179.663 1143.85 Q175.079 1136.94 175.079 1123.85 Q175.079 1110.73 179.663 1103.85 Q184.281 1096.94 192.996 1096.94 Z" fill="#000000" fill-rule="evenodd" fill-opacity="1" /><path clip-path="url(#clip980)" d="M238.239 1102.5 Q232.822 1102.5 230.079 1107.85 Q227.371 1113.16 227.371 1123.85 Q227.371 1134.51 230.079 1139.86 Q232.822 1145.17 238.239 1145.17 Q243.69 1145.17 246.399 1139.86 Q249.142 1134.51 249.142 1123.85 Q249.142 1113.16 246.399 1107.85 Q243.69 1102.5 238.239 1102.5 M238.239 1096.94 Q246.954 1096.94 251.537 1103.85 Q256.155 1110.73 256.155 1123.85 Q256.155 1136.94 251.537 1143.85 Q246.954 1150.73 238.239 1150.73 Q229.524 1150.73 224.906 1143.85 Q220.322 1136.94 220.322 1123.85 Q220.322 1110.73 224.906 1103.85 Q229.524 1096.94 238.239 1096.94 Z" fill="#000000" fill-rule="evenodd" fill-opacity="1" /><path clip-path="url(#clip980)" d="M138.795 874.679 L163.274 874.679 L163.274 880.582 L130.358 880.582 L130.358 874.679 Q134.351 870.547 141.226 863.602 Q148.135 856.623 149.906 854.609 Q153.274 850.825 154.593 848.221 Q155.948 845.582 155.948 843.047 Q155.948 838.915 153.031 836.311 Q150.149 833.707 145.496 833.707 Q142.198 833.707 138.517 834.853 Q134.871 835.998 130.705 838.325 L130.705 831.242 Q134.941 829.54 138.621 828.672 Q142.302 827.804 145.357 827.804 Q153.413 827.804 158.205 831.832 Q162.996 835.86 162.996 842.596 Q162.996 845.79 161.781 848.672 Q160.6 851.519 157.441 855.408 Q156.573 856.415 151.92 861.241 Q147.267 866.033 138.795 874.679 Z" fill="#000000" fill-rule="evenodd" fill-opacity="1" /><path clip-path="url(#clip980)" d="M192.996 833.36 Q187.579 833.36 184.836 838.707 Q182.128 844.019 182.128 854.714 Q182.128 865.373 184.836 870.72 Q187.579 876.033 192.996 876.033 Q198.447 876.033 201.156 870.72 Q203.899 865.373 203.899 854.714 Q203.899 844.019 201.156 838.707 Q198.447 833.36 192.996 833.36 M192.996 827.804 Q201.711 827.804 206.295 834.714 Q210.913 841.589 210.913 854.714 Q210.913 867.804 206.295 874.714 Q201.711 881.588 192.996 881.588 Q184.281 881.588 179.663 874.714 Q175.079 867.804 175.079 854.714 Q175.079 841.589 179.663 834.714 Q184.281 827.804 192.996 827.804 Z" fill="#000000" fill-rule="evenodd" fill-opacity="1" /><path clip-path="url(#clip980)" d="M238.239 833.36 Q232.822 833.36 230.079 838.707 Q227.371 844.019 227.371 854.714 Q227.371 865.373 230.079 870.72 Q232.822 876.033 238.239 876.033 Q243.69 876.033 246.399 870.72 Q249.142 865.373 249.142 854.714 Q249.142 844.019 246.399 838.707 Q243.69 833.36 238.239 833.36 M238.239 827.804 Q246.954 827.804 251.537 834.714 Q256.155 841.589 256.155 854.714 Q256.155 867.804 251.537 874.714 Q246.954 881.588 238.239 881.588 Q229.524 881.588 224.906 874.714 Q220.322 867.804 220.322 854.714 Q220.322 841.589 224.906 834.714 Q229.524 827.804 238.239 827.804 Z" fill="#000000" fill-rule="evenodd" fill-opacity="1" /><path clip-path="url(#clip980)" d="M154.003 583.491 Q159.038 584.568 161.85 587.97 Q164.698 591.373 164.698 596.373 Q164.698 604.047 159.42 608.248 Q154.142 612.449 144.42 612.449 Q141.156 612.449 137.684 611.79 Q134.246 611.165 130.566 609.88 L130.566 603.109 Q133.482 604.81 136.955 605.679 Q140.427 606.547 144.212 606.547 Q150.809 606.547 154.246 603.942 Q157.718 601.338 157.718 596.373 Q157.718 591.79 154.489 589.22 Q151.295 586.616 145.566 586.616 L139.524 586.616 L139.524 580.852 L145.844 580.852 Q151.017 580.852 153.76 578.804 Q156.503 576.72 156.503 572.831 Q156.503 568.838 153.656 566.72 Q150.844 564.568 145.566 564.568 Q142.684 564.568 139.385 565.193 Q136.087 565.818 132.128 567.137 L132.128 560.887 Q136.121 559.776 139.594 559.22 Q143.1 558.665 146.191 558.665 Q154.177 558.665 158.83 562.311 Q163.482 565.922 163.482 572.102 Q163.482 576.408 161.017 579.394 Q158.552 582.345 154.003 583.491 Z" fill="#000000" fill-rule="evenodd" fill-opacity="1" /><path clip-path="url(#clip980)" d="M192.996 564.22 Q187.579 564.22 184.836 569.568 Q182.128 574.88 182.128 585.574 Q182.128 596.234 184.836 601.581 Q187.579 606.894 192.996 606.894 Q198.447 606.894 201.156 601.581 Q203.899 596.234 203.899 585.574 Q203.899 574.88 201.156 569.568 Q198.447 564.22 192.996 564.22 M192.996 558.665 Q201.711 558.665 206.295 565.575 Q210.913 572.45 210.913 585.574 Q210.913 598.665 206.295 605.574 Q201.711 612.449 192.996 612.449 Q184.281 612.449 179.663 605.574 Q175.079 598.665 175.079 585.574 Q175.079 572.45 179.663 565.575 Q184.281 558.665 192.996 558.665 Z" fill="#000000" fill-rule="evenodd" fill-opacity="1" /><path clip-path="url(#clip980)" d="M238.239 564.22 Q232.822 564.22 230.079 569.568 Q227.371 574.88 227.371 585.574 Q227.371 596.234 230.079 601.581 Q232.822 606.894 238.239 606.894 Q243.69 606.894 246.399 601.581 Q249.142 596.234 249.142 585.574 Q249.142 574.88 246.399 569.568 Q243.69 564.22 238.239 564.22 M238.239 558.665 Q246.954 558.665 251.537 565.575 Q256.155 572.45 256.155 585.574 Q256.155 598.665 251.537 605.574 Q246.954 612.449 238.239 612.449 Q229.524 612.449 224.906 605.574 Q220.322 598.665 220.322 585.574 Q220.322 572.45 224.906 565.575 Q229.524 558.665 238.239 558.665 Z" fill="#000000" fill-rule="evenodd" fill-opacity="1" /><path clip-path="url(#clip980)" d="M152.024 296.574 L134.316 324.248 L152.024 324.248 L152.024 296.574 M150.184 290.463 L159.003 290.463 L159.003 324.248 L166.399 324.248 L166.399 330.081 L159.003 330.081 L159.003 342.303 L152.024 342.303 L152.024 330.081 L128.621 330.081 L128.621 323.31 L150.184 290.463 Z" fill="#000000" fill-rule="evenodd" fill-opacity="1" /><path clip-path="url(#clip980)" d="M192.996 295.081 Q187.579 295.081 184.836 300.428 Q182.128 305.741 182.128 316.435 Q182.128 327.095 184.836 332.442 Q187.579 337.755 192.996 337.755 Q198.447 337.755 201.156 332.442 Q203.899 327.095 203.899 316.435 Q203.899 305.741 201.156 300.428 Q198.447 295.081 192.996 295.081 M192.996 289.526 Q201.711 289.526 206.295 296.435 Q210.913 303.31 210.913 316.435 Q210.913 329.526 206.295 336.435 Q201.711 343.31 192.996 343.31 Q184.281 343.31 179.663 336.435 Q175.079 329.526 175.079 316.435 Q175.079 303.31 179.663 296.435 Q184.281 289.526 192.996 289.526 Z" fill="#000000" fill-rule="evenodd" fill-opacity="1" /><path clip-path="url(#clip980)" d="M238.239 295.081 Q232.822 295.081 230.079 300.428 Q227.371 305.741 227.371 316.435 Q227.371 327.095 230.079 332.442 Q232.822 337.755 238.239 337.755 Q243.69 337.755 246.399 332.442 Q249.142 327.095 249.142 316.435 Q249.142 305.741 246.399 300.428 Q243.69 295.081 238.239 295.081 M238.239 289.526 Q246.954 289.526 251.537 296.435 Q256.155 303.31 256.155 316.435 Q256.155 329.526 251.537 336.435 Q246.954 343.31 238.239 343.31 Q229.524 343.31 224.906 336.435 Q220.322 329.526 220.322 316.435 Q220.322 303.31 224.906 296.435 Q229.524 289.526 238.239 289.526 Z" fill="#000000" fill-rule="evenodd" fill-opacity="1" /><path clip-path="url(#clip980)" d="M132.823 21.3241 L160.357 21.3241 L160.357 27.2268 L139.246 27.2268 L139.246 39.9351 Q140.774 39.4143 142.302 39.1712 Q143.83 38.8934 145.357 38.8934 Q154.038 38.8934 159.107 43.6504 Q164.177 48.4073 164.177 56.5322 Q164.177 64.9002 158.968 69.553 Q153.76 74.171 144.281 74.171 Q141.017 74.171 137.614 73.6155 Q134.246 73.0599 130.635 71.9488 L130.635 64.9002 Q133.76 66.6016 137.094 67.435 Q140.427 68.2683 144.142 68.2683 Q150.149 68.2683 153.656 65.1086 Q157.163 61.9489 157.163 56.5322 Q157.163 51.1156 153.656 47.9559 Q150.149 44.7962 144.142 44.7962 Q141.33 44.7962 138.517 45.4212 Q135.739 46.0462 132.823 47.3656 L132.823 21.3241 Z" fill="#000000" fill-rule="evenodd" fill-opacity="1" /><path clip-path="url(#clip980)" d="M192.996 25.9421 Q187.579 25.9421 184.836 31.2893 Q182.128 36.6018 182.128 47.2962 Q182.128 57.9558 184.836 63.303 Q187.579 68.6155 192.996 68.6155 Q198.447 68.6155 201.156 63.303 Q203.899 57.9558 203.899 47.2962 Q203.899 36.6018 201.156 31.2893 Q198.447 25.9421 192.996 25.9421 M192.996 20.3866 Q201.711 20.3866 206.295 27.2963 Q210.913 34.1712 210.913 47.2962 Q210.913 60.3864 206.295 67.2961 Q201.711 74.171 192.996 74.171 Q184.281 74.171 179.663 67.2961 Q175.079 60.3864 175.079 47.2962 Q175.079 34.1712 179.663 27.2963 Q184.281 20.3866 192.996 20.3866 Z" fill="#000000" fill-rule="evenodd" fill-opacity="1" /><path clip-path="url(#clip980)" d="M238.239 25.9421 Q232.822 25.9421 230.079 31.2893 Q227.371 36.6018 227.371 47.2962 Q227.371 57.9558 230.079 63.303 Q232.822 68.6155 238.239 68.6155 Q243.69 68.6155 246.399 63.303 Q249.142 57.9558 249.142 47.2962 Q249.142 36.6018 246.399 31.2893 Q243.69 25.9421 238.239 25.9421 M238.239 20.3866 Q246.954 20.3866 251.537 27.2963 Q256.155 34.1712 256.155 47.2962 Q256.155 60.3864 251.537 67.2961 Q246.954 74.171 238.239 74.171 Q229.524 74.171 224.906 67.2961 Q220.322 60.3864 220.322 47.2962 Q220.322 34.1712 224.906 27.2963 Q229.524 20.3866 238.239 20.3866 Z" fill="#000000" fill-rule="evenodd" fill-opacity="1" /><path clip-path="url(#clip980)" d="M40.6442 961.725 Q41.2181 961.725 42.5707 962.094 L74.6243 970.128 Q81.7565 971.891 86.7571 977.629 Q91.7578 983.327 91.7578 989.803 Q91.7578 993.697 89.6674 996.197 Q87.6179 998.698 84.4618 998.698 Q81.6745 998.698 80.3218 997.222 Q79.0102 995.746 79.0102 993.984 Q79.0102 993.41 79.1741 992.795 Q79.3381 992.18 80.0349 991.524 Q80.7317 990.869 81.9204 990.869 Q83.8469 990.869 85.3635 992.549 Q86.0603 993.369 86.2243 994.148 Q86.3882 994.886 86.3882 996.156 Q87.5359 995.664 88.3147 994.763 Q89.0935 993.861 89.3805 992.836 Q89.7084 991.811 89.7904 991.155 Q89.9133 990.459 89.9133 989.803 Q89.9133 984.556 84.6257 980.539 Q83.0271 979.351 81.4285 978.49 Q79.871 977.588 77.9445 976.932 Q76.0589 976.276 75.0342 975.989 Q74.0095 975.662 71.6731 975.088 Q75.4851 978.9 75.4851 983.572 Q75.4851 985.54 74.9522 987.303 Q74.4194 989.024 73.3127 990.541 Q72.165 992.057 70.1565 992.959 Q68.148 993.82 65.4837 993.82 Q62.6555 993.82 58.8025 992.713 Q54.9495 991.606 47.8583 988.942 Q43.8824 987.507 41.9559 987.507 Q41.0131 987.507 40.4393 987.712 Q39.8244 987.917 39.6195 988.327 Q39.3735 988.737 39.3326 988.983 Q39.2916 989.188 39.2916 989.598 Q39.2916 992.016 41.7509 994.271 Q44.2103 996.525 49.7028 998.083 Q50.7276 998.411 50.9735 998.616 Q51.2194 998.82 51.2194 999.435 Q51.1785 1000.46 50.3587 1000.46 Q50.0308 1000.46 48.7601 1000.09 Q47.4484 999.722 45.5219 998.861 Q43.5545 997.96 41.7919 996.73 Q39.9884 995.5 38.7177 993.574 Q37.447 991.606 37.447 989.352 Q37.447 986.278 39.4555 984.392 Q41.423 982.466 44.3332 982.466 Q45.5219 982.466 46.5877 982.794 Q47.6124 983.081 50.3587 984.146 Q61.4258 988.45 66.8364 988.45 Q68.148 988.45 69.2547 988.245 Q70.3204 987.999 71.3862 987.466 Q72.4109 986.934 73.0257 985.868 Q73.5996 984.761 73.5996 983.245 Q73.5996 981.318 72.6978 979.515 Q71.7551 977.67 70.4844 976.522 Q69.2137 975.334 68.148 974.637 Q67.0413 973.899 66.4675 973.735 L51.3834 969.964 L44.6612 968.283 Q41.0131 967.505 40.1114 967.136 Q39.2506 966.644 38.7997 965.783 Q38.3488 964.922 38.3488 964.185 Q38.3488 963.16 38.9637 962.463 Q39.5785 961.725 40.6442 961.725 Z" fill="#000000" fill-rule="evenodd" fill-opacity="1" /><path clip-path="url(#clip980)" d="M16.5203 953.141 Q13.4789 953.141 11.0974 950.415 Q8.68726 947.689 8.68726 943.156 Q8.68726 937.216 11.0974 934.634 Q13.5076 932.052 16.6351 932.052 Q20.279 932.052 22.3736 934.864 Q28.1408 942.611 35.486 942.639 L37.5519 942.639 Q38.2118 942.639 38.4701 942.668 Q38.7283 942.697 38.9291 942.869 Q39.13 943.041 39.13 943.385 Q39.13 943.844 38.8718 943.988 Q38.6135 944.103 37.7241 944.103 L35.0844 944.103 Q31.9569 944.103 28.3703 942.869 Q24.7837 941.635 21.8571 938.938 Q21.1972 938.278 20.7094 937.934 Q20.2216 937.589 19.0739 937.274 Q17.9262 936.929 16.2621 936.929 Q15.2578 936.929 14.684 936.958 Q14.1101 936.987 13.1059 937.36 Q12.1017 937.704 11.5278 938.335 Q10.9253 938.938 10.4662 940.229 Q9.97842 941.52 9.97842 943.328 Q9.97842 948.665 13.9667 951.046 Q13.9667 947.746 16.6351 947.746 Q17.8115 947.746 18.5862 948.493 Q19.3322 949.21 19.3322 950.444 Q19.3322 951.563 18.6436 952.366 Q17.9262 953.141 16.5203 953.141 M49.2298 945.595 Q48.3116 946.513 47.0204 946.513 Q45.7006 946.513 44.8111 945.595 Q43.8929 944.676 43.8929 943.385 Q43.8929 942.094 44.8111 941.205 Q45.7006 940.286 47.0204 940.286 Q48.3116 940.286 49.2298 941.205 Q50.1192 942.094 50.1192 943.385 Q50.1192 944.676 49.2298 945.595 Z" fill="#000000" fill-rule="evenodd" fill-opacity="1" /><path clip-path="url(#clip980)" d="M62.5325 884.853 Q67.8201 885.96 70.8533 887.394 Q75.4851 889.69 75.4851 893.584 Q75.4851 896.535 73.6816 898.625 Q71.878 900.716 69.1727 901.208 Q75.4851 906.577 75.4851 912.152 Q75.4851 917.071 71.7551 920.186 Q67.9841 923.301 62.0406 923.301 Q56.0562 923.301 50.3177 920.35 Q44.5792 917.358 41.0131 912.644 Q37.447 907.93 37.447 903.093 Q37.447 897.97 42.8166 895.346 Q41.341 895.141 40.2343 894.199 Q39.1276 893.256 39.1276 891.821 Q39.1276 890.715 39.7424 890.059 Q40.3163 889.403 41.382 889.403 Q41.9149 889.403 44.2513 889.977 L55.9742 893.01 L63.5572 894.854 Q66.3445 895.551 67.3692 895.756 Q68.394 895.92 69.7466 895.92 Q73.5996 895.92 73.5996 893.42 Q73.5996 892.19 72.8208 891.206 Q72.042 890.223 70.4024 889.444 Q68.7629 888.665 67.2463 888.173 Q65.6887 887.681 63.2293 887.025 Q62.2456 886.821 61.9996 886.657 Q61.7127 886.452 61.7127 885.878 Q61.7127 884.853 62.5325 884.853 M46.6696 896.371 Q46.3007 896.371 45.276 896.658 Q44.2513 896.945 42.8166 897.601 Q41.382 898.257 40.3573 899.691 Q39.2916 901.085 39.2916 902.97 Q39.2916 905.512 41.464 908.176 Q43.6364 910.799 47.3255 912.726 Q50.2767 914.201 56.4661 915.8 Q62.6555 917.358 65.7297 917.358 Q67.6152 917.358 69.2957 916.948 Q70.9353 916.497 72.2879 915.226 Q73.5996 913.955 73.5996 911.988 Q73.5996 907.192 67.6561 902.478 Q66.6314 901.577 66.2215 901.372 Q65.7706 901.126 64.541 900.798 L48.1043 896.617 Q46.8746 896.371 46.6696 896.371 Z" fill="#000000" fill-rule="evenodd" fill-opacity="1" /><path clip-path="url(#clip980)" d="M62.5325 838.19 Q67.8201 839.256 70.8533 840.69 Q75.4851 843.027 75.4851 846.921 Q75.4851 849.626 73.9685 851.675 Q72.4109 853.684 69.8286 854.381 Q70.8533 855.159 71.5501 855.856 Q72.2469 856.512 73.3127 857.783 Q74.3374 859.053 74.9112 860.775 Q75.4851 862.455 75.4851 864.382 Q75.4851 865.858 75.1982 867.21 Q74.9522 868.563 74.2554 869.998 Q73.5176 871.391 72.4109 872.416 Q71.3042 873.4 69.5007 874.055 Q67.6971 874.711 65.4017 874.711 Q62.5325 874.711 58.6385 873.605 Q54.7445 872.457 47.7763 869.834 Q44.0873 868.399 42.0378 868.399 Q41.0951 868.399 40.4803 868.604 Q39.8654 868.809 39.6605 869.219 Q39.4145 869.588 39.3735 869.834 Q39.2916 870.079 39.2916 870.489 Q39.2916 873.031 41.8739 875.244 Q44.4562 877.458 49.7028 878.974 Q50.7276 879.302 50.9735 879.507 Q51.2194 879.712 51.2194 880.327 Q51.1785 881.352 50.3587 881.352 Q50.0308 881.352 48.7601 880.983 Q47.4484 880.614 45.5219 879.753 Q43.5545 878.851 41.7919 877.622 Q39.9884 876.392 38.7177 874.465 Q37.447 872.498 37.447 870.243 Q37.447 867.169 39.4555 865.284 Q41.423 863.357 44.3332 863.357 Q46.1368 863.357 49.6209 864.792 Q61.7127 869.342 66.7544 869.342 Q73.5996 869.342 73.5996 864.136 Q73.5996 862.414 72.9028 860.816 Q72.206 859.176 71.2222 858.111 Q70.2385 857.045 69.1727 856.225 Q68.107 855.364 67.4102 854.995 Q66.7134 854.586 66.5494 854.545 L41.3 848.273 Q40.3163 848.027 39.6605 847.576 Q38.9637 847.084 38.7177 846.511 Q38.4718 845.937 38.4308 845.609 Q38.3488 845.281 38.3488 844.994 Q38.3488 843.969 38.9637 843.272 Q39.5785 842.535 40.6442 842.535 Q40.8492 842.535 41.8329 842.781 Q42.7757 842.986 44.1693 843.313 Q45.5219 843.641 46.2597 843.805 Q51.4244 845.117 51.9573 845.24 L61.0159 847.576 Q61.5487 847.699 63.2703 848.109 Q64.9918 848.478 65.8936 848.683 Q66.7544 848.888 67.9431 849.093 Q69.0908 849.257 69.7466 849.257 Q71.7961 849.257 72.6978 848.642 Q73.5996 848.027 73.5996 846.675 Q73.5996 845.404 72.7388 844.42 Q71.8371 843.395 70.1155 842.617 Q68.353 841.838 66.9183 841.387 Q65.4837 840.936 63.2293 840.362 Q62.2456 840.157 61.9996 839.993 Q61.7127 839.788 61.7127 839.215 Q61.7127 838.19 62.5325 838.19 Z" fill="#000000" fill-rule="evenodd" fill-opacity="1" /><path clip-path="url(#clip980)" d="M42.9806 793.013 Q45.276 793.013 46.5877 794.447 Q47.8583 795.882 47.8583 797.521 Q47.8583 799.079 46.9566 799.899 Q46.0548 800.719 44.9071 800.719 Q43.3495 800.719 41.9969 799.571 Q40.6442 798.423 40.3573 796.702 Q39.2916 798.382 39.2916 800.882 Q39.2916 802.522 40.1523 803.957 Q41.0131 805.35 42.1198 806.211 Q43.2265 807.031 44.8251 807.769 Q46.3827 808.466 47.3255 808.752 Q48.2272 808.998 49.211 809.203 L60.688 812.073 Q66.1395 813.466 68.066 813.466 Q70.4434 813.466 72.042 812.318 Q73.5996 811.171 73.5996 808.875 Q73.5996 807.974 73.3537 806.949 Q73.0667 805.924 72.3289 804.613 Q71.5501 803.26 70.4024 802.071 Q69.2137 800.842 67.2053 799.653 Q65.1968 798.464 62.6145 797.685 Q61.7127 797.439 61.7127 796.62 Q61.7127 795.595 62.5325 795.595 Q63.2293 795.595 64.7049 796.169 Q66.1395 796.702 68.025 797.89 Q69.8696 799.038 71.5501 800.555 Q73.1897 802.071 74.3374 804.326 Q75.4851 806.58 75.4851 809.039 Q75.4851 812.564 73.5996 814.901 Q71.7141 817.237 69.0908 818.098 Q69.4597 818.303 69.9515 818.59 Q70.4434 818.877 71.5501 819.738 Q72.6158 820.557 73.4356 821.5 Q74.2144 822.443 74.8293 823.918 Q75.4851 825.353 75.4851 826.911 Q75.4851 828.878 74.9112 830.641 Q74.3374 832.362 73.0257 833.592 Q71.7141 834.822 69.9106 834.822 Q67.9021 834.822 66.5084 833.469 Q65.0738 832.075 65.0738 830.19 Q65.0738 829.001 65.7706 828.058 Q66.4675 827.075 67.9841 827.075 Q69.6646 827.075 70.9353 828.222 Q72.206 829.37 72.5339 831.01 Q73.5996 829.329 73.5996 826.829 Q73.5996 824.123 71.2222 821.992 Q68.8448 819.861 64.8689 818.836 Q55.3184 816.294 51.0555 815.311 Q46.7516 814.327 44.9071 814.327 Q43.1855 814.327 41.9969 814.778 Q40.8082 815.229 40.2753 816.008 Q39.7015 816.745 39.4965 817.442 Q39.2916 818.098 39.2916 818.836 Q39.2916 820.065 39.7834 821.459 Q40.2753 822.812 41.423 824.451 Q42.5297 826.05 44.8251 827.567 Q47.1205 829.083 50.2767 830.108 Q51.2194 830.313 51.2194 831.215 Q51.1785 832.198 50.3587 832.198 Q49.6619 832.198 48.2272 831.665 Q46.7516 831.092 44.9071 829.944 Q43.0626 828.755 41.423 827.239 Q39.7424 825.681 38.5947 823.427 Q37.447 821.131 37.447 818.672 Q37.447 817.565 37.693 816.499 Q37.8979 815.393 38.5128 814.081 Q39.1276 812.728 40.4803 811.54 Q41.8329 810.351 43.8004 809.613 Q42.8576 809.121 41.9559 808.466 Q41.0541 807.769 39.9474 806.703 Q38.7997 805.596 38.1439 804.08 Q37.447 802.522 37.447 800.801 Q37.447 799.12 37.8979 797.48 Q38.3078 795.841 39.6605 794.447 Q40.9721 793.013 42.9806 793.013 Z" fill="#000000" fill-rule="evenodd" fill-opacity="1" /><path clip-path="url(#clip980)" d="M66.7586 757.484 Q66.7872 757.484 67.8202 757.657 L93.9017 764.198 Q95.2789 764.543 96.6561 765.518 Q98.0621 766.465 99.2672 767.986 Q100.501 769.478 101.247 771.773 Q102.022 774.04 102.022 776.651 Q102.022 780.811 101.132 782.648 Q100.271 784.455 98.4351 784.455 Q96.8283 784.455 95.9101 783.451 Q95.0207 782.447 95.0207 781.299 Q95.0207 780.209 95.6519 779.635 Q96.2831 779.061 97.0865 779.061 Q97.976 779.061 98.8655 779.664 Q99.7836 780.266 100.128 781.471 Q100.73 779.549 100.73 776.766 Q100.73 770.884 94.5042 768.359 Q94.4181 768.301 94.3894 768.301 L86.6138 766.35 L86.5564 766.436 Q87.1302 766.924 87.7902 767.699 Q88.4214 768.445 89.1961 770.052 Q89.9708 771.659 89.9708 773.237 Q89.9708 776.536 87.4458 778.803 Q84.8922 781.041 80.6744 781.041 Q77.6043 781.041 74.5342 779.807 Q71.4354 778.545 69.1687 776.594 Q66.8733 774.614 65.4387 772.089 Q64.0041 769.535 64.0041 767.068 Q64.0041 765.346 65.037 763.883 Q66.0412 762.42 67.7054 761.616 Q66.3282 761.473 65.7543 760.698 Q65.1805 759.895 65.1805 759.206 Q65.1805 758.431 65.6109 757.972 Q66.0125 757.484 66.7586 757.484 M70.3451 762.305 Q70.173 762.305 69.7139 762.42 Q69.2261 762.534 68.4514 762.879 Q67.6767 763.194 66.9881 763.682 Q66.2995 764.17 65.8117 765.059 Q65.2952 765.92 65.2952 767.01 Q65.2952 768.789 66.7872 770.568 Q68.2506 772.347 70.5173 773.581 Q72.6979 774.729 76.9157 775.819 Q81.1335 776.881 83.2854 776.881 Q85.4087 776.881 87.0441 775.962 Q88.6796 775.044 88.6796 773.064 Q88.6796 770.769 86.5564 768.301 Q84.3471 765.748 82.4533 765.317 L71.2346 762.477 Q70.546 762.305 70.3451 762.305 Z" fill="#000000" fill-rule="evenodd" fill-opacity="1" /><path clip-path="url(#clip980)" d="M53.5558 726.605 Q39.3735 726.605 27.9375 721.317 Q23.1418 719.063 19.1248 715.907 Q15.1079 712.75 13.3454 710.66 Q11.5828 708.569 11.5828 707.996 Q11.5828 707.176 12.4026 707.135 Q12.8125 707.135 13.8372 708.242 Q27.6096 721.768 53.5558 721.727 Q79.584 721.727 92.8236 708.569 Q94.2582 707.135 94.7091 707.135 Q95.5289 707.135 95.5289 707.996 Q95.5289 708.569 93.8483 710.578 Q92.1677 712.586 88.3147 715.702 Q84.4618 718.817 79.748 721.071 Q68.312 726.605 53.5558 726.605 Z" fill="#000000" fill-rule="evenodd" fill-opacity="1" /><path clip-path="url(#clip980)" d="M18.1411 614.966 Q19.3298 614.966 19.5757 615.498 Q19.8217 615.99 19.8217 617.63 Q19.8217 619.556 19.9856 620.745 Q20.1086 621.934 20.3135 622.672 Q20.4775 623.409 21.0513 623.86 Q21.6252 624.27 22.1171 624.434 Q22.5679 624.598 23.6747 624.885 L68.394 636.034 Q69.9106 636.444 70.4434 636.444 Q70.9763 636.444 71.3042 636.116 Q71.6321 635.747 71.7961 634.845 Q71.919 633.944 71.96 633.247 Q71.96 632.509 71.96 630.992 Q71.96 629.107 72.2879 628.82 Q72.4929 628.656 72.8618 628.656 Q73.6406 628.656 74.0505 628.984 Q74.4194 629.312 74.5014 629.599 Q74.5423 629.845 74.5423 630.255 Q74.5423 631.976 74.4194 635.501 Q74.2964 639.026 74.2964 640.748 L74.5423 651.159 Q74.5423 652.389 73.5176 652.389 Q72.7388 652.389 72.4109 652.061 Q72.042 651.733 72.001 651.364 Q71.96 650.995 71.96 650.052 Q71.96 646.691 71.5911 645.257 Q71.2222 643.781 70.5664 643.371 Q69.8696 642.92 67.9841 642.428 L19.9036 630.419 L19.9036 630.5 L73.0257 664.399 L73.3946 664.645 Q73.7226 664.89 73.8455 664.972 Q73.9275 665.054 74.1734 665.3 Q74.3784 665.505 74.4604 665.751 Q74.5423 665.956 74.5423 666.243 Q74.5423 666.735 74.2144 667.022 Q73.8865 667.268 73.6406 667.35 Q73.3537 667.391 72.6158 667.514 L20.5595 674.728 L20.5595 674.81 L66.3035 686.246 Q67.5742 686.574 68.23 686.574 Q69.9106 686.574 70.9353 685.385 Q71.919 684.155 71.96 680.876 Q71.96 679.36 72.8618 679.36 Q74.5423 679.36 74.5423 680.876 Q74.5423 682.27 74.4194 685.18 Q74.2964 688.09 74.2964 689.525 Q74.2964 690.919 74.4194 693.747 Q74.5423 696.534 74.5423 697.887 Q74.5423 699.076 73.5176 699.076 Q71.96 699.076 71.96 697.559 Q71.878 695.1 71.3862 693.419 Q70.8943 691.738 69.9515 690.796 Q69.0088 689.812 68.066 689.361 Q67.0823 688.869 65.6477 688.5 L22.8959 677.843 Q21.5432 677.515 21.3383 677.515 Q20.6414 677.515 20.3955 677.925 Q20.1086 678.294 19.9856 679.36 Q19.8217 681.409 19.8217 682.967 Q19.8217 683.991 19.7807 684.401 Q19.7397 684.77 19.5347 685.098 Q19.2888 685.385 18.7969 685.385 Q18.0181 685.385 17.6902 685.057 Q17.3213 684.688 17.2803 684.278 Q17.1983 683.869 17.1983 682.885 L17.1983 671.367 Q17.1983 669.686 17.4853 669.317 Q17.7312 668.948 19.1248 668.784 L66.6314 662.226 L18.7969 631.566 Q17.6082 630.787 17.4033 630.378 Q17.1983 629.968 17.1983 628.328 L17.1983 617.22 Q17.1983 616.318 17.2393 615.949 Q17.2803 615.58 17.4853 615.293 Q17.6902 614.966 18.1411 614.966 Z" fill="#000000" fill-rule="evenodd" fill-opacity="1" /><path clip-path="url(#clip980)" d="M18.1411 527.057 Q18.8789 527.057 19.2888 527.344 Q19.6577 527.631 19.6987 527.876 Q19.7397 528.081 19.8217 528.655 Q19.9856 530.541 20.5595 532.016 Q21.1333 533.492 22.24 534.599 Q23.3057 535.705 24.2895 536.402 Q25.2732 537.099 26.9538 538.042 L74.7883 565.587 Q75.2802 565.874 75.5261 566.078 Q75.813 566.242 76.0999 566.652 Q76.3869 567.062 76.3869 567.595 Q76.3869 568.333 75.977 568.579 Q75.5671 568.825 74.2144 568.948 L31.8315 572.022 L74.6243 596.738 Q75.4031 597.189 75.6491 597.394 Q75.936 597.558 76.1409 597.927 Q76.3869 598.255 76.3869 598.747 Q76.3869 599.321 76.0999 599.608 Q75.854 599.895 75.4851 599.977 Q75.1162 600.018 74.2144 600.059 L22.8959 603.871 Q20.9694 603.994 20.3955 604.69 Q19.8217 605.346 19.8217 608.297 Q19.8217 609.117 19.7807 609.486 Q19.7397 609.814 19.5347 610.101 Q19.2888 610.388 18.7969 610.388 Q17.1983 610.388 17.1983 608.871 Q17.1983 607.437 17.3213 604.485 Q17.4443 601.534 17.4443 600.059 Q17.4443 598.337 17.3213 594.894 Q17.1983 591.451 17.1983 589.77 Q17.1983 588.582 18.1411 588.582 Q18.9199 588.582 19.3298 588.909 Q19.6987 589.196 19.7807 589.483 Q19.8217 589.77 19.8217 590.344 Q19.8626 592.599 20.1496 594.033 Q20.4365 595.427 21.0103 595.96 Q21.5432 596.493 21.9121 596.615 Q22.24 596.738 22.8139 596.738 L65.4017 593.541 L28.3884 572.309 L21.9121 572.801 Q20.6414 572.924 20.2316 573.743 Q19.8217 574.563 19.8217 577.228 Q19.8217 577.965 19.7807 578.334 Q19.7397 578.662 19.5347 578.99 Q19.3298 579.277 18.8789 579.277 Q18.1001 579.277 17.7312 578.949 Q17.3213 578.621 17.2803 578.375 Q17.1983 578.088 17.1983 577.678 Q17.1983 576.736 17.3213 573.293 Q17.4443 569.849 17.4443 568.866 Q17.4443 567.185 17.3213 563.742 Q17.1983 560.299 17.1983 558.618 Q17.1983 557.348 18.1411 557.348 Q19.2888 557.348 19.5757 557.84 Q19.8217 558.331 19.8217 559.602 Q19.8626 561.775 20.1906 563.127 Q20.5185 564.439 21.2563 564.931 Q21.9531 565.382 22.404 565.464 Q22.8549 565.546 23.7566 565.505 L65.4017 562.389 L25.8471 539.722 Q25.6831 539.64 25.2322 539.394 Q24.7404 539.108 24.6174 539.067 Q24.4944 538.985 24.1665 538.862 Q23.8386 538.698 23.6337 538.657 Q23.3877 538.616 23.1008 538.616 Q21.4202 538.616 20.6824 540.132 Q19.9036 541.649 19.8217 543.575 Q19.8217 544.846 18.7969 544.846 Q18.0591 544.846 17.6902 544.518 Q17.2803 544.19 17.2393 543.944 Q17.1983 543.657 17.1983 543.247 Q17.1983 541.854 17.3213 538.903 Q17.4443 535.951 17.4443 534.517 Q17.4443 533.451 17.3213 531.238 Q17.1983 529.024 17.1983 528.04 Q17.1983 527.59 17.5263 527.344 Q17.8542 527.057 18.1411 527.057 Z" fill="#000000" fill-rule="evenodd" fill-opacity="1" /><path clip-path="url(#clip980)" d="M62.5325 478.962 Q62.8604 478.962 64.1311 479.33 Q65.4017 479.699 67.3692 480.601 Q69.3367 481.462 71.1402 482.651 Q72.9028 483.839 74.2144 485.807 Q75.4851 487.733 75.4851 489.947 Q75.4851 492.898 73.5176 494.865 Q71.5501 496.833 68.5989 496.833 Q68.189 496.833 67.7791 496.792 Q67.3692 496.751 67.1233 496.71 Q66.8364 496.669 66.3855 496.546 Q65.8936 496.382 65.6887 496.341 Q65.4837 496.259 64.8689 496.054 Q64.213 495.808 63.9671 495.726 Q50.6866 490.521 45.153 490.521 Q39.2916 490.521 39.2916 495.07 Q39.2916 499.128 42.2428 503.145 Q43.7184 504.99 46.3417 506.752 Q48.965 508.515 49.9488 508.843 Q52.0802 509.212 53.7198 509.745 Q54.8675 509.99 59.3353 511.179 L66.9183 513.024 L73.2717 514.622 Q74.1734 514.95 74.8293 515.852 Q75.4851 516.754 75.4851 517.737 Q75.4851 518.557 74.9112 519.377 Q74.3784 520.156 73.1077 520.156 Q72.4519 520.156 71.2632 519.828 L22.8959 507.654 L21.2563 507.408 Q20.7644 507.408 20.5185 507.613 Q20.2316 507.777 20.0266 508.761 Q19.8217 509.704 19.8217 511.589 Q19.8217 512.368 19.7807 512.737 Q19.7397 513.065 19.5347 513.352 Q19.2888 513.638 18.7969 513.638 Q18.1001 513.638 17.7312 513.352 Q17.3213 513.024 17.2393 512.778 Q17.1574 512.532 17.1164 512.04 Q17.0754 511.343 16.8704 509.007 Q16.6245 506.67 16.4605 504.662 Q16.2966 502.653 16.2966 501.793 Q16.2966 501.301 16.5425 501.055 Q16.7475 500.768 16.9934 500.727 L17.1983 500.686 L43.8824 507.244 Q37.447 502.039 37.447 494.824 Q37.447 490.152 39.8654 487.651 Q42.2428 485.151 46.4237 485.151 Q51.2194 485.151 64.8689 490.275 Q68.6809 491.791 70.8533 491.791 Q72.2879 491.791 72.9438 491.34 Q73.5996 490.848 73.5996 489.783 Q73.5996 488.143 72.6568 486.709 Q71.6731 485.233 70.0745 484.208 Q68.4349 483.183 66.7954 482.487 Q65.1148 481.749 63.2293 481.216 Q62.2046 480.888 61.9586 480.724 Q61.7127 480.519 61.7127 479.945 Q61.7127 478.962 62.5325 478.962 Z" fill="#000000" fill-rule="evenodd" fill-opacity="1" /><path clip-path="url(#clip980)" d="M94.7091 471.957 Q94.2992 471.957 93.2744 470.891 Q79.502 457.365 53.5558 457.365 Q27.5276 457.365 14.3701 470.359 Q12.8535 471.957 12.4026 471.957 Q11.5828 471.957 11.5828 471.137 Q11.5828 470.563 13.2634 468.555 Q14.9439 466.506 18.7969 463.431 Q22.6499 460.316 27.3637 458.021 Q38.7997 452.487 53.5558 452.487 Q67.7381 452.487 79.1741 457.775 Q83.9699 460.029 87.9868 463.185 Q92.0038 466.342 93.7663 468.432 Q95.5289 470.522 95.5289 471.137 Q95.5289 471.957 94.7091 471.957 Z" fill="#000000" fill-rule="evenodd" fill-opacity="1" /><path clip-path="url(#clip982)" d="
M405.492 1392.94 L405.492 1392.94 L1220.57 1392.94 L1220.57 1392.94 L405.492 1392.94 L405.492 1392.94  Z
  " fill="#009af9" fill-rule="evenodd" fill-opacity="1"/>
<polyline clip-path="url(#clip982)" style="stroke:#000000; stroke-linecap:round; stroke-linejoin:round; stroke-width:4; stroke-opacity:1; fill:none" points="
  405.492,1392.94 405.492,1392.94 1220.57,1392.94 405.492,1392.94 
  "/>
<path clip-path="url(#clip982)" d="
M1424.34 1258.37 L1424.34 1392.94 L2239.42 1392.94 L2239.42 1258.37 L1424.34 1258.37 L1424.34 1258.37  Z
  " fill="#009af9" fill-rule="evenodd" fill-opacity="1"/>
<polyline clip-path="url(#clip982)" style="stroke:#000000; stroke-linecap:round; stroke-linejoin:round; stroke-width:4; stroke-opacity:1; fill:none" points="
  1424.34,1258.37 1424.34,1392.94 2239.42,1392.94 2239.42,1258.37 1424.34,1258.37 
  "/>
<circle clip-path="url(#clip982)" style="fill:#009af9; stroke:none; fill-opacity:0" cx="813.031" cy="1392.94" r="2"/>
<circle clip-path="url(#clip982)" style="fill:#009af9; stroke:none; fill-opacity:0" cx="1831.88" cy="1258.37" r="2"/>
<polyline clip-path="url(#clip982)" style="stroke:#ff0000; stroke-linecap:round; stroke-linejoin:round; stroke-width:4; stroke-opacity:1; fill:none" stroke-dasharray="16, 10" points="
  -1768.45,1392.94 4413.36,1392.94 
  "/>
<polyline clip-path="url(#clip982)" style="stroke:#a52a2a; stroke-linecap:round; stroke-linejoin:round; stroke-width:4; stroke-opacity:1; fill:none" stroke-dasharray="2, 4" points="
  -1768.45,1123.8 4413.36,1123.8 
  "/>
<polyline clip-path="url(#clip982)" style="stroke:#a52a2a; stroke-linecap:round; stroke-linejoin:round; stroke-width:32; stroke-opacity:1; fill:none" points="
  1067.74,1392.94 1067.74,1123.8 
  "/>
<path clip-path="url(#clip980)" d="M1217.99 1242.25 Q1217.99 1239.35 1217.2 1236.98 Q1216.49 1234.52 1215.35 1232.85 Q1214.3 1231.09 1212.28 1229.77 Q1210.26 1228.37 1208.59 1227.49 Q1206.92 1226.61 1204.11 1226.09 Q1201.3 1225.47 1199.45 1225.21 Q1197.61 1224.86 1194.45 1224.68 Q1191.28 1224.5 1189.7 1224.5 Q1188.21 1224.5 1185.22 1224.5 Q1175.83 1224.5 1174.24 1224.68 Q1171.87 1225.03 1170.99 1226.44 Q1170.12 1227.75 1169.24 1231.36 L1157.56 1278.26 L1177.67 1278.26 Q1188.65 1278.26 1196.2 1275.18 Q1203.76 1272.11 1208.06 1267.81 Q1212.8 1263.06 1215.35 1255.42 Q1217.99 1247.78 1217.99 1242.25 M1237.57 1325.07 Q1237.57 1326.04 1236.78 1328.24 Q1236.08 1330.43 1234.32 1333.51 Q1232.57 1336.49 1230.19 1339.22 Q1227.82 1341.94 1224.05 1343.78 Q1220.27 1345.72 1215.97 1345.72 Q1214.91 1345.72 1213.86 1345.63 Q1212.8 1345.63 1210.17 1345.19 Q1207.62 1344.84 1205.51 1344.13 Q1203.41 1343.52 1200.77 1342.03 Q1198.14 1340.62 1196.29 1338.69 Q1194.53 1336.67 1193.3 1333.51 Q1192.07 1330.26 1192.07 1326.3 Q1192.07 1322.79 1194.97 1311.02 Q1197.52 1301.01 1197.52 1298.55 Q1197.52 1295.83 1196.64 1293.28 Q1195.85 1290.73 1193.83 1288.1 Q1191.9 1285.46 1187.77 1283.88 Q1183.64 1282.21 1177.85 1282.21 L1156.5 1282.21 L1144.56 1329.91 Q1144.56 1329.99 1144.29 1331.22 Q1144.03 1332.36 1144.03 1332.98 Q1144.03 1334.12 1144.73 1334.82 Q1145.52 1335.53 1147.45 1335.88 Q1149.39 1336.14 1150.88 1336.23 Q1152.46 1336.23 1155.71 1336.23 Q1159.75 1336.23 1160.45 1336.93 Q1160.81 1337.37 1160.81 1338.16 Q1160.81 1339.39 1160.45 1340.27 Q1160.19 1341.06 1159.49 1341.32 Q1158.87 1341.59 1158.43 1341.68 Q1157.99 1341.76 1157.2 1341.76 L1134.37 1341.24 L1111.71 1341.76 Q1109.16 1341.76 1109.16 1339.74 Q1109.16 1337.99 1109.77 1337.28 Q1110.39 1336.49 1111.18 1336.41 Q1111.97 1336.23 1113.99 1336.23 Q1118.38 1336.23 1121.02 1335.97 Q1123.65 1335.7 1125.32 1335.35 Q1127.08 1334.91 1127.96 1333.68 Q1128.92 1332.45 1129.36 1331.4 Q1129.8 1330.26 1130.41 1327.71 L1154.48 1231.09 Q1155.18 1228.19 1155.18 1227.75 Q1155.18 1226.09 1154.13 1225.65 Q1153.16 1225.12 1150.35 1224.86 L1143.5 1224.5 Q1141.39 1224.5 1140.52 1224.42 Q1139.73 1224.33 1139.11 1223.89 Q1138.5 1223.45 1138.5 1222.48 Q1138.5 1220.02 1139.55 1219.5 Q1140.6 1218.88 1143.68 1218.88 L1194.97 1218.88 Q1212.45 1218.88 1223.52 1226.52 Q1234.67 1234.17 1234.67 1245.85 Q1234.67 1251.12 1232.3 1256.04 Q1229.93 1260.96 1225.98 1264.82 Q1222.11 1268.69 1216.93 1271.93 Q1211.75 1275.1 1206.22 1277.29 Q1200.77 1279.4 1195.15 1280.63 Q1197.61 1281.51 1199.89 1282.83 Q1202.26 1284.14 1205.25 1286.6 Q1208.32 1289.06 1210.17 1293.02 Q1212.01 1296.97 1212.01 1301.8 Q1212.01 1305.22 1211.31 1310.32 Q1209.55 1324.81 1209.55 1330.78 Q1209.55 1336.49 1211.05 1339.13 Q1212.54 1341.76 1216.76 1341.76 Q1220.88 1341.76 1225.45 1338.07 Q1230.11 1334.3 1233.09 1325.43 Q1233.8 1322.88 1235.46 1322.88 Q1235.55 1322.88 1235.64 1322.88 Q1235.82 1322.88 1236.17 1323.05 Q1236.52 1323.14 1236.78 1323.41 Q1237.13 1323.58 1237.31 1324.02 Q1237.57 1324.46 1237.57 1325.07 Z" fill="#a52a2a" fill-rule="evenodd" fill-opacity="1" /><path clip-path="url(#clip980)" d="M1313.34 1329.01 Q1313.34 1329.07 1312.97 1331.29 L1298.95 1387.18 Q1298.22 1390.13 1296.13 1393.08 Q1294.1 1396.09 1290.84 1398.67 Q1287.64 1401.32 1282.72 1402.92 Q1277.87 1404.58 1272.27 1404.58 Q1263.36 1404.58 1259.42 1402.67 Q1255.55 1400.83 1255.55 1396.89 Q1255.55 1393.45 1257.7 1391.48 Q1259.85 1389.57 1262.31 1389.57 Q1264.65 1389.57 1265.88 1390.93 Q1267.11 1392.28 1267.11 1394 Q1267.11 1395.91 1265.81 1397.81 Q1264.52 1399.78 1261.94 1400.52 Q1266.06 1401.81 1272.02 1401.81 Q1284.63 1401.81 1290.04 1388.47 Q1290.16 1388.28 1290.16 1388.22 L1294.34 1371.56 L1294.16 1371.44 Q1293.11 1372.67 1291.45 1374.08 Q1289.85 1375.43 1286.41 1377.09 Q1282.97 1378.75 1279.59 1378.75 Q1272.52 1378.75 1267.66 1373.34 Q1262.86 1367.87 1262.86 1358.83 Q1262.86 1352.25 1265.51 1345.68 Q1268.21 1339.03 1272.39 1334.18 Q1276.64 1329.26 1282.05 1326.18 Q1287.52 1323.11 1292.81 1323.11 Q1296.49 1323.11 1299.63 1325.32 Q1302.77 1327.48 1304.49 1331.04 Q1304.8 1328.09 1306.46 1326.86 Q1308.18 1325.63 1309.65 1325.63 Q1311.31 1325.63 1312.3 1326.55 Q1313.34 1327.41 1313.34 1329.01 M1303.01 1336.7 Q1303.01 1336.33 1302.77 1335.35 Q1302.52 1334.3 1301.78 1332.64 Q1301.11 1330.98 1300.06 1329.5 Q1299.02 1328.03 1297.11 1326.98 Q1295.27 1325.88 1292.93 1325.88 Q1289.12 1325.88 1285.3 1329.07 Q1281.49 1332.21 1278.85 1337.07 Q1276.39 1341.74 1274.05 1350.78 Q1271.78 1359.82 1271.78 1364.43 Q1271.78 1368.98 1273.75 1372.48 Q1275.71 1375.99 1279.96 1375.99 Q1284.87 1375.99 1290.16 1371.44 Q1295.63 1366.7 1296.56 1362.64 L1302.64 1338.6 Q1303.01 1337.13 1303.01 1336.7 Z" fill="#a52a2a" fill-rule="evenodd" fill-opacity="1" /></svg>
