<?xml version="1.0" encoding="UTF-8" standalone="no"?>
<!-- Created with Inkscape (http://www.inkscape.org/) -->

<svg
   width="8in"
   height="2.5in"
   viewBox="0 0 203.2 63.5"
   version="1.1"
   id="svg5"
   inkscape:version="1.2.1 (9c6d41e4, 2022-07-14)"
   sodipodi:docname="crud-baseline.svg"
   xmlns:inkscape="http://www.inkscape.org/namespaces/inkscape"
   xmlns:sodipodi="http://sodipodi.sourceforge.net/DTD/sodipodi-0.dtd"
   xmlns="http://www.w3.org/2000/svg"
   xmlns:svg="http://www.w3.org/2000/svg"
   xmlns:ns13="http://www.iki.fi/pav/software/textext/">
  <sodipodi:namedview
     id="namedview7"
     pagecolor="#ffffff"
     bordercolor="#000000"
     borderopacity="0.25"
     inkscape:showpageshadow="2"
     inkscape:pageopacity="0.0"
     inkscape:pagecheckerboard="0"
     inkscape:deskcolor="#d1d1d1"
     inkscape:document-units="mm"
     showgrid="true"
     showguides="true"
     inkscape:zoom="1"
     inkscape:cx="390.5"
     inkscape:cy="172"
     inkscape:window-width="1424"
     inkscape:window-height="788"
     inkscape:window-x="0"
     inkscape:window-y="25"
     inkscape:window-maximized="0"
     inkscape:current-layer="layer1">
    <sodipodi:guide
       position="53.517992,31.228851"
       orientation="0,-1"
       id="guide902"
       inkscape:locked="false" />
    <inkscape:grid
       type="xygrid"
       id="grid1267"
       units="in"
       spacingx="3.175"
       spacingy="3.175"
       empcolor="#2600e5"
       empopacity="0.30196078"
       empspacing="4"
       originx="0"
       originy="0" />
  </sodipodi:namedview>
  <defs
     id="defs2">
    <rect
       x="778"
       y="215"
       width="763"
       height="204"
       id="rect16282" />
    <rect
       x="14"
       y="-32"
       width="690"
       height="249"
       id="rect16270" />
    <marker
       style="overflow:visible"
       id="TriangleStart"
       refX="0"
       refY="0"
       orient="auto-start-reverse"
       inkscape:stockid="TriangleStart"
       markerWidth="3.3239999"
       markerHeight="3.8427744"
       viewBox="0 0 5.3244081 6.1553851"
       inkscape:isstock="true"
       inkscape:collect="always"
       preserveAspectRatio="xMidYMid">
      <path
         transform="scale(0.5)"
         style="fill:context-stroke;fill-rule:evenodd;stroke:context-stroke;stroke-width:1pt"
         d="M 5.77,0 -2.88,5 V -5 Z"
         id="path135" />
    </marker>
  </defs>
  <g
     inkscape:label="Layer 1"
     inkscape:groupmode="layer"
     id="layer1">
    <ellipse
       style="fill:none;stroke:#d40000;stroke-width:1.442;stroke-dasharray:none"
       id="path111"
       cx="44.317707"
       cy="42.333344"
       rx="9.6572914"
       ry="9.260416" />
    <ellipse
       style="opacity:1;fill:none;stroke:#d40000;stroke-width:1.442;stroke-dasharray:none"
       id="ellipse900"
       cx="152.26738"
       cy="42.333344"
       rx="9.6572914"
       ry="9.260416" />
    <path
       style="fill:none;stroke:#000000;stroke-width:1.0099;stroke-dasharray:none;marker-end:url(#TriangleStart)"
       d="M 2.4217026,42.914014 31.008511,42.863205"
       id="path2155"
       sodipodi:nodetypes="cc" />
    <path
       style="fill:none;stroke:#000000;stroke-width:1.18397;stroke-dasharray:none;marker-end:url(#TriangleStart)"
       d="m 55.014995,42.687553 84.145015,-0.02372"
       id="path2271"
       sodipodi:nodetypes="cc" />
    <path
       style="opacity:1;fill:none;stroke:#000000;stroke-width:1.04805;stroke-dasharray:none;marker-end:url(#TriangleStart)"
       d="m 163.07747,42.980199 35.09711,-0.04457"
       id="path2293"
       sodipodi:nodetypes="cc" />
    <path
       style="fill:none;stroke:#000000;stroke-width:0.946889;stroke-dasharray:none;marker-end:url(#TriangleStart)"
       d="m 44.415507,9.7007113 0.06375,20.0291747"
       id="path2321"
       sodipodi:nodetypes="cc" />
    <path
       style="opacity:1;fill:none;stroke:#000000;stroke-width:0.946889;stroke-dasharray:none;marker-end:url(#TriangleStart)"
       d="m 152.0772,9.5002693 0.0637,20.0291747"
       id="path2325"
       sodipodi:nodetypes="cc" />
    <text
       xml:space="preserve"
       style="font-size:7.05556px;opacity:0.98;fill:#000000;fill-opacity:1;stroke:none;stroke-width:0.944999"
       x="31.629734"
       y="7.929482"
       id="text2581"><tspan
         sodipodi:role="line"
         id="tspan2579"
         style="font-style:normal;font-variant:normal;font-weight:500;font-stretch:normal;font-size:7.05556px;font-family:Avenir;-inkscape-font-specification:'Avenir Medium';fill:#000000;fill-opacity:1;stroke:none;stroke-width:0.945"
         x="31.629734"
         y="7.929482">Factory 1</tspan></text>
    <text
       xml:space="preserve"
       style="font-size:7.05556px;opacity:1;fill:#000000;fill-opacity:1;stroke:none;stroke-width:0.944999"
       x="138.1765"
       y="7.5285983"
       id="text3051"><tspan
         sodipodi:role="line"
         id="tspan3049"
         style="font-style:normal;font-variant:normal;font-weight:500;font-stretch:normal;font-size:7.05556px;font-family:Avenir;-inkscape-font-specification:'Avenir Medium';fill:#000000;fill-opacity:1;stroke:none;stroke-width:0.945"
         x="138.1765"
         y="7.5285983">Factory 2</tspan></text>
    <text
       xml:space="preserve"
       transform="scale(0.26458333)"
       id="text16268"
       style="font-style:normal;font-variant:normal;font-weight:500;font-stretch:normal;font-size:26.6667px;font-family:Avenir;-inkscape-font-specification:'Avenir Medium';white-space:pre;shape-inside:url(#rect16270);display:inline;opacity:1;fill:#000000;fill-opacity:1;stroke:none;stroke-width:3.57165" />
    <g
       transform="matrix(0.705556,0,0,0.705556,2.3736,47.54235)"
       ns13:version="1.8.1"
       ns13:texconverter="pdflatex"
       ns13:pdfconverter="inkscape"
       ns13:text="\\color{blue} $\\mathbf{100}$ \\textbf{kg/d}"
       ns13:preamble="/Users/vs498/Library/Application Support/org.inkscape.Inkscape/config/inkscape/extensions/textext/default_packages.tex"
       ns13:scale="2.0"
       ns13:alignment="middle center"
       ns13:stroke-to-path="0"
       ns13:inkscapeversion="1.2.1"
       ns13:jacobian_sqrt="0.705556"
       id="g22955">
      <defs
         id="id-f1ecc864-6db8-46f6-9565-399315da66eb">
        <g
           id="id-aa79c6c7-f229-4b09-b130-1633e03b20de">
          <g
             id="id-e3be5700-a0b4-4550-9e1d-e4740959aab4" />
          <g
             id="id-31dde05c-c23e-4ee7-a302-9a15b5447ea1">
            <path
               d="m 3.53125,-6.203125 c 0,-0.234375 0,-0.328125 -0.265625,-0.328125 -0.109375,0 -0.125,0 -0.21875,0.078125 -0.765625,0.5625 -1.796875,0.5625 -2,0.5625 H 0.84375 v 0.46875 H 1.046875 C 1.203125,-5.421875 1.75,-5.4375 2.34375,-5.625 v 5.15625 H 0.953125 V 0 c 0.4375,-0.03125 1.5,-0.03125 1.984375,-0.03125 0.484375,0 1.546875,0 1.984375,0.03125 V -0.46875 H 3.53125 Z m 0,0"
               id="id-2e2a4f6f-5410-4b3c-826d-4883dc6ed4cf" />
          </g>
          <g
             id="id-23aca7cc-5e0d-4cd9-b180-c55ead38e02b">
            <path
               d="m 5.28125,-3.1875 c 0,-0.953125 -0.015625,-3.34375 -2.421875,-3.34375 -2.40625,0 -2.40625,2.375 -2.40625,3.34375 0,1 0,3.296875 2.40625,3.296875 C 5.25,0.109375 5.28125,-2.1875 5.28125,-3.1875 Z M 2.859375,-0.25 C 2.5,-0.25 1.9375,-0.46875 1.8125,-1.203125 1.71875,-1.71875 1.71875,-2.75 1.71875,-3.296875 c 0,-0.71875 0,-1.375 0.078125,-1.890625 0.125,-0.890625 0.828125,-0.984375 1.0625,-0.984375 0.375,0 0.78125,0.1875 0.96875,0.625 C 4,-5.171875 4,-4.109375 4,-3.296875 4,-2.734375 4,-1.828125 3.921875,-1.3125 3.78125,-0.390625 3.15625,-0.25 2.859375,-0.25 Z m 0,0"
               id="id-d6d494c7-4636-468d-a982-eaca4e067f62" />
          </g>
          <g
             id="id-d850946b-0927-4f5f-9dee-587b50772a5a">
            <path
               d="m 2.140625,-2.359375 v -4.5625 L 0.375,-6.84375 V -6.375 c 0.609375,0 0.6875,0 0.6875,0.390625 V -0.46875 H 0.375 V 0 c 0.359375,-0.015625 0.828125,-0.03125 1.1875,-0.03125 0.375,0 0.84375,0.015625 1.203125,0.03125 v -0.46875 h -0.6875 V -1.734375 C 2.375,-1.96875 2.453125,-2.03125 2.65625,-2.15625 l 1,1.25 c 0.09375,0.125 0.25,0.3125 0.25,0.34375 0,0.09375 -0.171875,0.09375 -0.3125,0.09375 V 0 c 0.296875,-0.015625 1.171875,-0.03125 1.21875,-0.03125 0.359375,0 0.703125,0.015625 1.046875,0.03125 V -0.46875 H 5.6875 c -0.4375,0 -0.46875,-0.046875 -0.59375,-0.203125 L 3.40625,-2.765625 4.703125,-3.78125 C 4.84375,-3.890625 4.9375,-3.953125 5.609375,-3.953125 v -0.46875 c -0.28125,0.03125 -0.53125,0.03125 -0.78125,0.03125 -0.265625,0 -0.921875,-0.03125 -1.15625,-0.03125 v 0.46875 c 0.234375,0 0.265625,0.03125 0.34375,0.109375 z m 0,0"
               id="id-cd43f90f-71ac-4056-a69f-d5cfdd8e0e26" />
          </g>
          <g
             id="id-543ce88b-d694-4c4a-896e-782af70ae5b2">
            <path
               d="m 2.546875,-1.890625 c -0.875,0 -0.875,-0.671875 -0.875,-1.125 0,-0.4375 0,-1.109375 0.875,-1.109375 0.875,0 0.875,0.671875 0.875,1.109375 0,0.453125 0,1.125 -0.875,1.125 z m -1.21875,0.09375 c 0.453125,0.234375 0.96875,0.265625 1.21875,0.265625 1.4375,0 1.984375,-0.78125 1.984375,-1.484375 0,-0.46875 -0.25,-0.796875 -0.40625,-0.953125 0.296875,-0.15625 0.515625,-0.171875 0.625,-0.1875 -0.03125,0.046875 -0.046875,0.140625 -0.046875,0.203125 0,0.25 0.171875,0.421875 0.4375,0.421875 0.25,0 0.421875,-0.1875 0.421875,-0.421875 0,-0.234375 -0.171875,-0.578125 -0.625,-0.578125 -0.15625,0 -0.625,0.03125 -1.0625,0.375 -0.171875,-0.125 -0.59375,-0.328125 -1.328125,-0.328125 -1.4375,0 -1.984375,0.78125 -1.984375,1.46875 0,0.40625 0.1875,0.828125 0.515625,1.046875 -0.28125,0.359375 -0.34375,0.6875 -0.34375,0.890625 0,0.15625 0.046875,0.640625 0.4375,0.953125 C 1.046875,-0.09375 0.3125,0.125 0.3125,0.75 0.3125,1.25 0.875,2 2.859375,2 4.625,2 5.40625,1.421875 5.40625,0.71875 c 0,-0.296875 -0.078125,-0.921875 -0.75,-1.265625 -0.5625,-0.28125 -1.15625,-0.28125 -2.109375,-0.28125 -0.265625,0 -0.71875,0 -0.765625,-0.015625 -0.453125,-0.0625 -0.5625,-0.4375 -0.5625,-0.625 0,-0.09375 0.046875,-0.25 0.109375,-0.328125 z M 1.9375,0.125 h 1.171875 c 0.3125,0 1.4375,0 1.4375,0.625 0,0.359375 -0.390625,0.890625 -1.6875,0.890625 -1.1875,0 -1.6875,-0.453125 -1.6875,-0.90625 C 1.171875,0.125 1.796875,0.125 1.9375,0.125 Z m 0,0"
               id="id-8c5dd36e-74ca-4b82-ad96-aef185ac6a49" />
          </g>
          <g
             id="id-330a7d15-2b0c-41c5-b65d-f0dcaa8bbd35">
            <path
               d="m 5.03125,-6.984375 c 0.046875,-0.109375 0.046875,-0.171875 0.046875,-0.1875 0,-0.1875 -0.15625,-0.3125 -0.296875,-0.3125 -0.203125,0 -0.25,0.140625 -0.3125,0.28125 L 0.6875,2 C 0.640625,2.109375 0.640625,2.171875 0.640625,2.1875 0.640625,2.375 0.796875,2.5 0.9375,2.5 1.140625,2.5 1.203125,2.359375 1.25,2.21875 Z m 0,0"
               id="id-d15c455a-b07f-4567-a393-01cf8ada3494" />
          </g>
          <g
             id="id-51f8abcf-ab28-4dee-b3d9-737345b34c0e">
            <path
               d="M 4.171875,-0.421875 V 0.0625 L 5.984375,0 v -0.46875 c -0.609375,0 -0.6875,0 -0.6875,-0.390625 v -6.0625 L 3.53125,-6.84375 V -6.375 c 0.625,0 0.703125,0 0.703125,0.390625 v 1.953125 c -0.5,-0.390625 -1.03125,-0.453125 -1.359375,-0.453125 -1.453125,0 -2.5,0.875 -2.5,2.28125 0,1.3125 0.921875,2.265625 2.390625,2.265625 0.609375,0 1.09375,-0.234375 1.40625,-0.484375 z m 0,-3.09375 V -1.03125 C 4.03125,-0.84375 3.625,-0.296875 2.875,-0.296875 c -1.21875,0 -1.21875,-1.203125 -1.21875,-1.90625 0,-0.484375 0,-1.015625 0.25,-1.40625 C 2.203125,-4.03125 2.671875,-4.125 2.984375,-4.125 c 0.5625,0 0.96875,0.3125 1.1875,0.609375 z m 0,0"
               id="id-e17d4a8b-68f3-4bbe-b248-d9865c84345f" />
          </g>
        </g>
      </defs>
      <g
         fill="#0000ff"
         fill-opacity="1"
         id="id-bfdb65b6-737b-4263-a17b-bc388727eb12"
         transform="translate(-149.556,-127.281)">
        <g
           transform="translate(148.712,134.765)"
           id="g22933">
          <path
             d="m 3.53125,-6.203125 c 0,-0.234375 0,-0.328125 -0.265625,-0.328125 -0.109375,0 -0.125,0 -0.21875,0.078125 -0.765625,0.5625 -1.796875,0.5625 -2,0.5625 H 0.84375 v 0.46875 H 1.046875 C 1.203125,-5.421875 1.75,-5.4375 2.34375,-5.625 v 5.15625 H 0.953125 V 0 c 0.4375,-0.03125 1.5,-0.03125 1.984375,-0.03125 0.484375,0 1.546875,0 1.984375,0.03125 V -0.46875 H 3.53125 Z m 0,0"
             id="id-e6f519aa-368e-4e98-bbae-0311d03a41fd" />
        </g>
        <g
           transform="translate(154.44,134.765)"
           id="g22936">
          <path
             d="m 5.28125,-3.1875 c 0,-0.953125 -0.015625,-3.34375 -2.421875,-3.34375 -2.40625,0 -2.40625,2.375 -2.40625,3.34375 0,1 0,3.296875 2.40625,3.296875 C 5.25,0.109375 5.28125,-2.1875 5.28125,-3.1875 Z M 2.859375,-0.25 C 2.5,-0.25 1.9375,-0.46875 1.8125,-1.203125 1.71875,-1.71875 1.71875,-2.75 1.71875,-3.296875 c 0,-0.71875 0,-1.375 0.078125,-1.890625 0.125,-0.890625 0.828125,-0.984375 1.0625,-0.984375 0.375,0 0.78125,0.1875 0.96875,0.625 C 4,-5.171875 4,-4.109375 4,-3.296875 4,-2.734375 4,-1.828125 3.921875,-1.3125 3.78125,-0.390625 3.15625,-0.25 2.859375,-0.25 Z m 0,0"
             id="id-3ffc3eee-41e9-4b8d-b00a-f501015b107d" />
        </g>
        <g
           transform="translate(160.169,134.765)"
           id="g22939">
          <path
             d="m 5.28125,-3.1875 c 0,-0.953125 -0.015625,-3.34375 -2.421875,-3.34375 -2.40625,0 -2.40625,2.375 -2.40625,3.34375 0,1 0,3.296875 2.40625,3.296875 C 5.25,0.109375 5.28125,-2.1875 5.28125,-3.1875 Z M 2.859375,-0.25 C 2.5,-0.25 1.9375,-0.46875 1.8125,-1.203125 1.71875,-1.71875 1.71875,-2.75 1.71875,-3.296875 c 0,-0.71875 0,-1.375 0.078125,-1.890625 0.125,-0.890625 0.828125,-0.984375 1.0625,-0.984375 0.375,0 0.78125,0.1875 0.96875,0.625 C 4,-5.171875 4,-4.109375 4,-3.296875 4,-2.734375 4,-1.828125 3.921875,-1.3125 3.78125,-0.390625 3.15625,-0.25 2.859375,-0.25 Z m 0,0"
             id="id-8e1ba8c0-02dc-4496-afc9-d74c24df154c" />
        </g>
      </g>
      <g
         fill="#0000ff"
         fill-opacity="1"
         id="id-bc3697d0-290f-4cf7-bc4c-45afb99fcd45"
         transform="translate(-149.556,-127.281)">
        <g
           transform="translate(169.215,134.765)"
           id="g22943">
          <path
             d="m 2.140625,-2.359375 v -4.5625 L 0.375,-6.84375 V -6.375 c 0.609375,0 0.6875,0 0.6875,0.390625 V -0.46875 H 0.375 V 0 c 0.359375,-0.015625 0.828125,-0.03125 1.1875,-0.03125 0.375,0 0.84375,0.015625 1.203125,0.03125 v -0.46875 h -0.6875 V -1.734375 C 2.375,-1.96875 2.453125,-2.03125 2.65625,-2.15625 l 1,1.25 c 0.09375,0.125 0.25,0.3125 0.25,0.34375 0,0.09375 -0.171875,0.09375 -0.3125,0.09375 V 0 c 0.296875,-0.015625 1.171875,-0.03125 1.21875,-0.03125 0.359375,0 0.703125,0.015625 1.046875,0.03125 V -0.46875 H 5.6875 c -0.4375,0 -0.46875,-0.046875 -0.59375,-0.203125 L 3.40625,-2.765625 4.703125,-3.78125 C 4.84375,-3.890625 4.9375,-3.953125 5.609375,-3.953125 v -0.46875 c -0.28125,0.03125 -0.53125,0.03125 -0.78125,0.03125 -0.265625,0 -0.921875,-0.03125 -1.15625,-0.03125 v 0.46875 c 0.234375,0 0.265625,0.03125 0.34375,0.109375 z m 0,0"
             id="id-a8ba591e-12d7-46a0-b0bd-86d1a9affce2" />
        </g>
        <g
           transform="translate(175.261,134.765)"
           id="g22946">
          <path
             d="m 2.546875,-1.890625 c -0.875,0 -0.875,-0.671875 -0.875,-1.125 0,-0.4375 0,-1.109375 0.875,-1.109375 0.875,0 0.875,0.671875 0.875,1.109375 0,0.453125 0,1.125 -0.875,1.125 z m -1.21875,0.09375 c 0.453125,0.234375 0.96875,0.265625 1.21875,0.265625 1.4375,0 1.984375,-0.78125 1.984375,-1.484375 0,-0.46875 -0.25,-0.796875 -0.40625,-0.953125 0.296875,-0.15625 0.515625,-0.171875 0.625,-0.1875 -0.03125,0.046875 -0.046875,0.140625 -0.046875,0.203125 0,0.25 0.171875,0.421875 0.4375,0.421875 0.25,0 0.421875,-0.1875 0.421875,-0.421875 0,-0.234375 -0.171875,-0.578125 -0.625,-0.578125 -0.15625,0 -0.625,0.03125 -1.0625,0.375 -0.171875,-0.125 -0.59375,-0.328125 -1.328125,-0.328125 -1.4375,0 -1.984375,0.78125 -1.984375,1.46875 0,0.40625 0.1875,0.828125 0.515625,1.046875 -0.28125,0.359375 -0.34375,0.6875 -0.34375,0.890625 0,0.15625 0.046875,0.640625 0.4375,0.953125 C 1.046875,-0.09375 0.3125,0.125 0.3125,0.75 0.3125,1.25 0.875,2 2.859375,2 4.625,2 5.40625,1.421875 5.40625,0.71875 c 0,-0.296875 -0.078125,-0.921875 -0.75,-1.265625 -0.5625,-0.28125 -1.15625,-0.28125 -2.109375,-0.28125 -0.265625,0 -0.71875,0 -0.765625,-0.015625 -0.453125,-0.0625 -0.5625,-0.4375 -0.5625,-0.625 0,-0.09375 0.046875,-0.25 0.109375,-0.328125 z M 1.9375,0.125 h 1.171875 c 0.3125,0 1.4375,0 1.4375,0.625 0,0.359375 -0.390625,0.890625 -1.6875,0.890625 -1.1875,0 -1.6875,-0.453125 -1.6875,-0.90625 C 1.171875,0.125 1.796875,0.125 1.9375,0.125 Z m 0,0"
             id="id-7b60ab61-4fb7-4702-963d-0a03f9b64134" />
        </g>
        <g
           transform="translate(180.99,134.765)"
           id="g22949">
          <path
             d="m 5.03125,-6.984375 c 0.046875,-0.109375 0.046875,-0.171875 0.046875,-0.1875 0,-0.1875 -0.15625,-0.3125 -0.296875,-0.3125 -0.203125,0 -0.25,0.140625 -0.3125,0.28125 L 0.6875,2 C 0.640625,2.109375 0.640625,2.171875 0.640625,2.1875 0.640625,2.375 0.796875,2.5 0.9375,2.5 1.140625,2.5 1.203125,2.359375 1.25,2.21875 Z m 0,0"
             id="id-10ab71e0-8cb2-4da7-a739-4dfad4b7dd6c" />
        </g>
        <g
           transform="translate(186.718,134.765)"
           id="g22952">
          <path
             d="M 4.171875,-0.421875 V 0.0625 L 5.984375,0 v -0.46875 c -0.609375,0 -0.6875,0 -0.6875,-0.390625 v -6.0625 L 3.53125,-6.84375 V -6.375 c 0.625,0 0.703125,0 0.703125,0.390625 v 1.953125 c -0.5,-0.390625 -1.03125,-0.453125 -1.359375,-0.453125 -1.453125,0 -2.5,0.875 -2.5,2.28125 0,1.3125 0.921875,2.265625 2.390625,2.265625 0.609375,0 1.09375,-0.234375 1.40625,-0.484375 z m 0,-3.09375 V -1.03125 C 4.03125,-0.84375 3.625,-0.296875 2.875,-0.296875 c -1.21875,0 -1.21875,-1.203125 -1.21875,-1.90625 0,-0.484375 0,-1.015625 0.25,-1.40625 C 2.203125,-4.03125 2.671875,-4.125 2.984375,-4.125 c 0.5625,0 0.96875,0.3125 1.1875,0.609375 z m 0,0"
             id="id-d4007e95-8cbe-4421-b254-ed9c3c6f1ba9" />
        </g>
      </g>
    </g>
  </g>
</svg>
