<?xml version="1.0" encoding="utf-8"?>
<svg xmlns="http://www.w3.org/2000/svg" xmlns:xlink="http://www.w3.org/1999/xlink" width="600" height="400" viewBox="0 0 2400 1600">
<defs>
  <clipPath id="clip850">
    <rect x="0" y="0" width="2400" height="1600"/>
  </clipPath>
</defs>
<path clip-path="url(#clip850)" d="
M0 1600 L2400 1600 L2400 0 L0 0  Z
  " fill="#ffffff" fill-rule="evenodd" fill-opacity="1"/>
<defs>
  <clipPath id="clip851">
    <rect x="480" y="0" width="1681" height="1600"/>
  </clipPath>
</defs>
<path clip-path="url(#clip850)" d="
M157.756 1423.18 L2352.76 1423.18 L2352.76 47.2441 L157.756 47.2441  Z
  " fill="#ffffff" fill-rule="evenodd" fill-opacity="1"/>
<defs>
  <clipPath id="clip852">
    <rect x="157" y="47" width="2196" height="1377"/>
  </clipPath>
</defs>
<polyline clip-path="url(#clip852)" style="stroke:#000000; stroke-linecap:round; stroke-linejoin:round; stroke-width:2; stroke-opacity:1; fill:none" points="
  219.879,1423.18 219.879,47.2441 
  "/>
<polyline clip-path="url(#clip852)" style="stroke:#000000; stroke-linecap:round; stroke-linejoin:round; stroke-width:2; stroke-opacity:1; fill:none" points="
  2290.63,1423.18 2290.63,47.2441 
  "/>
<path clip-path="url(#clip850)" d="M219.196 1452.29 L219.196 1459.65 L227.969 1459.65 L227.969 1462.96 L219.196 1462.96 L219.196 1477.04 Q219.196 1480.21 220.052 1481.11 Q220.932 1482.02 223.594 1482.02 L227.969 1482.02 L227.969 1485.58 L223.594 1485.58 Q218.664 1485.58 216.789 1483.75 Q214.914 1481.9 214.914 1477.04 L214.914 1462.96 L211.789 1462.96 L211.789 1459.65 L214.914 1459.65 L214.914 1452.29 L219.196 1452.29 Z" fill="#000000" fill-rule="evenodd" fill-opacity="1" /><path clip-path="url(#clip850)" d="M2256.63 1452.29 L2256.63 1459.65 L2265.4 1459.65 L2265.4 1462.96 L2256.63 1462.96 L2256.63 1477.04 Q2256.63 1480.21 2257.49 1481.11 Q2258.36 1482.02 2261.03 1482.02 L2265.4 1482.02 L2265.4 1485.58 L2261.03 1485.58 Q2256.1 1485.58 2254.22 1483.75 Q2252.35 1481.9 2252.35 1477.04 L2252.35 1462.96 L2249.22 1462.96 L2249.22 1459.65 L2252.35 1459.65 L2252.35 1452.29 L2256.63 1452.29 Z" fill="#000000" fill-rule="evenodd" fill-opacity="1" /><path clip-path="url(#clip850)" d="M2288.34 1455.86 L2288.34 1468.75 L2301.24 1468.75 L2301.24 1472.69 L2288.34 1472.69 L2288.34 1485.58 L2284.45 1485.58 L2284.45 1472.69 L2271.56 1472.69 L2271.56 1468.75 L2284.45 1468.75 L2284.45 1455.86 L2288.34 1455.86 Z" fill="#000000" fill-rule="evenodd" fill-opacity="1" /><path clip-path="url(#clip850)" d="M2312.14 1481.64 L2319.78 1481.64 L2319.78 1455.28 L2311.47 1456.95 L2311.47 1452.69 L2319.73 1451.02 L2324.41 1451.02 L2324.41 1481.64 L2332.05 1481.64 L2332.05 1485.58 L2312.14 1485.58 L2312.14 1481.64 Z" fill="#000000" fill-rule="evenodd" fill-opacity="1" /><path clip-path="url(#clip850)" d="M1177.13 1520.52 L1217.33 1520.52 L1217.33 1525.93 L1200.46 1525.93 L1200.46 1568.04 L1194 1568.04 L1194 1525.93 L1177.13 1525.93 L1177.13 1520.52 Z" fill="#000000" fill-rule="evenodd" fill-opacity="1" /><path clip-path="url(#clip850)" d="M1221.28 1532.4 L1227.14 1532.4 L1227.14 1568.04 L1221.28 1568.04 L1221.28 1532.4 M1221.28 1518.52 L1227.14 1518.52 L1227.14 1525.93 L1221.28 1525.93 L1221.28 1518.52 Z" fill="#000000" fill-rule="evenodd" fill-opacity="1" /><path clip-path="url(#clip850)" d="M1267.14 1539.24 Q1269.34 1535.29 1272.4 1533.41 Q1275.45 1531.54 1279.59 1531.54 Q1285.16 1531.54 1288.18 1535.45 Q1291.21 1539.33 1291.21 1546.53 L1291.21 1568.04 L1285.32 1568.04 L1285.32 1546.72 Q1285.32 1541.59 1283.5 1539.11 Q1281.69 1536.63 1277.97 1536.63 Q1273.41 1536.63 1270.77 1539.65 Q1268.13 1542.68 1268.13 1547.9 L1268.13 1568.04 L1262.24 1568.04 L1262.24 1546.72 Q1262.24 1541.56 1260.43 1539.11 Q1258.61 1536.63 1254.83 1536.63 Q1250.34 1536.63 1247.7 1539.68 Q1245.06 1542.71 1245.06 1547.9 L1245.06 1568.04 L1239.17 1568.04 L1239.17 1532.4 L1245.06 1532.4 L1245.06 1537.93 Q1247.06 1534.66 1249.86 1533.1 Q1252.66 1531.54 1256.51 1531.54 Q1260.4 1531.54 1263.1 1533.51 Q1265.84 1535.48 1267.14 1539.24 Z" fill="#000000" fill-rule="evenodd" fill-opacity="1" /><path clip-path="url(#clip850)" d="M1333.38 1548.76 L1333.38 1551.62 L1306.45 1551.62 Q1306.83 1557.67 1310.08 1560.85 Q1313.36 1564 1319.18 1564 Q1322.56 1564 1325.71 1563.17 Q1328.89 1562.35 1332.01 1560.69 L1332.01 1566.23 Q1328.86 1567.57 1325.55 1568.27 Q1322.24 1568.97 1318.83 1568.97 Q1310.3 1568.97 1305.31 1564 Q1300.34 1559.04 1300.34 1550.57 Q1300.34 1541.82 1305.05 1536.69 Q1309.79 1531.54 1317.82 1531.54 Q1325.01 1531.54 1329.18 1536.18 Q1333.38 1540.8 1333.38 1548.76 M1327.52 1547.04 Q1327.46 1542.23 1324.82 1539.37 Q1322.21 1536.5 1317.88 1536.5 Q1312.98 1536.5 1310.02 1539.27 Q1307.09 1542.04 1306.64 1547.07 L1327.52 1547.04 Z" fill="#000000" fill-rule="evenodd" fill-opacity="1" /><path clip-path="url(#clip850)" d="M25.5398 787.013 L31.81 787.013 Q30.0595 790.673 29.2001 793.92 Q28.3407 797.166 28.3407 800.19 Q28.3407 805.442 30.3778 808.306 Q32.4148 811.139 36.1705 811.139 Q39.3216 811.139 40.9448 809.261 Q42.5363 807.351 43.5229 802.068 L44.3187 798.185 Q45.6873 790.991 49.1566 787.586 Q52.5941 784.148 58.3869 784.148 Q65.2937 784.148 68.8585 788.795 Q72.4232 793.41 72.4232 802.354 Q72.4232 805.728 71.6594 809.548 Q70.8955 813.335 69.3995 817.409 L62.7792 817.409 Q64.9754 813.494 66.0894 809.738 Q67.2034 805.983 67.2034 802.354 Q67.2034 796.848 65.039 793.856 Q62.8747 790.864 58.8643 790.864 Q55.3632 790.864 53.3898 793.028 Q51.4164 795.161 50.4297 800.063 L49.6658 803.978 Q48.2336 811.171 45.178 814.385 Q42.1225 817.6 36.6798 817.6 Q30.3778 817.6 26.7493 813.176 Q23.1209 808.72 23.1209 800.922 Q23.1209 797.58 23.7256 794.111 Q24.3303 790.641 25.5398 787.013 Z" fill="#000000" fill-rule="evenodd" fill-opacity="1" /><path clip-path="url(#clip850)" d="M25.7308 768.584 L35.8523 768.584 L35.8523 756.521 L40.4037 756.521 L40.4037 768.584 L59.7555 768.584 Q64.116 768.584 65.3573 767.407 Q66.5986 766.197 66.5986 762.537 L66.5986 756.521 L71.5002 756.521 L71.5002 762.537 Q71.5002 769.316 68.9858 771.894 Q66.4395 774.472 59.7555 774.472 L40.4037 774.472 L40.4037 778.769 L35.8523 778.769 L35.8523 774.472 L25.7308 774.472 L25.7308 768.584 Z" fill="#000000" fill-rule="evenodd" fill-opacity="1" /><path clip-path="url(#clip850)" d="M53.5808 732.618 Q53.5808 739.716 55.204 742.453 Q56.8273 745.19 60.7422 745.19 Q63.8614 745.19 65.7074 743.153 Q67.5217 741.084 67.5217 737.551 Q67.5217 732.682 64.0842 729.753 Q60.6149 726.793 54.8857 726.793 L53.5808 726.793 L53.5808 732.618 M51.1618 720.937 L71.5002 720.937 L71.5002 726.793 L66.0894 726.793 Q69.3359 728.799 70.8955 731.79 Q72.4232 734.782 72.4232 739.111 Q72.4232 744.585 69.3677 747.832 Q66.2803 751.047 61.1241 751.047 Q55.1085 751.047 52.053 747.036 Q48.9974 742.994 48.9974 735.005 L48.9974 726.793 L48.4245 726.793 Q44.3823 726.793 42.1861 729.467 Q39.9581 732.109 39.9581 736.915 Q39.9581 739.97 40.6902 742.867 Q41.4223 745.763 42.8864 748.437 L37.4755 748.437 Q36.2342 745.222 35.6295 742.198 Q34.9929 739.175 34.9929 736.31 Q34.9929 728.576 39.0033 724.756 Q43.0137 720.937 51.1618 720.937 Z" fill="#000000" fill-rule="evenodd" fill-opacity="1" /><path clip-path="url(#clip850)" d="M25.7308 703.081 L35.8523 703.081 L35.8523 691.018 L40.4037 691.018 L40.4037 703.081 L59.7555 703.081 Q64.116 703.081 65.3573 701.903 Q66.5986 700.694 66.5986 697.034 L66.5986 691.018 L71.5002 691.018 L71.5002 697.034 Q71.5002 703.813 68.9858 706.391 Q66.4395 708.969 59.7555 708.969 L40.4037 708.969 L40.4037 713.266 L35.8523 713.266 L35.8523 708.969 L25.7308 708.969 L25.7308 703.081 Z" fill="#000000" fill-rule="evenodd" fill-opacity="1" /><path clip-path="url(#clip850)" d="M52.2121 652.824 L55.0767 652.824 L55.0767 679.751 Q61.1241 679.369 64.307 676.122 Q67.458 672.844 67.458 667.019 Q67.458 663.646 66.6305 660.494 Q65.8029 657.312 64.1478 654.192 L69.686 654.192 Q71.0228 657.343 71.723 660.654 Q72.4232 663.964 72.4232 667.369 Q72.4232 675.899 67.458 680.897 Q62.4927 685.862 54.0264 685.862 Q45.2735 685.862 40.1491 681.151 Q34.9929 676.409 34.9929 668.388 Q34.9929 661.195 39.6399 657.025 Q44.255 652.824 52.2121 652.824 M50.4934 658.68 Q45.6873 658.744 42.8227 661.386 Q39.9581 663.996 39.9581 668.324 Q39.9581 673.226 42.7272 676.186 Q45.4963 679.114 50.5252 679.56 L50.4934 658.68 Z" fill="#000000" fill-rule="evenodd" fill-opacity="1" /><polyline clip-path="url(#clip852)" style="stroke:#000000; stroke-linecap:round; stroke-linejoin:round; stroke-width:4; stroke-opacity:1; fill:none" points="
  219.879,1079.2 2290.63,391.228 
  "/>
<circle clip-path="url(#clip852)" cx="219.879" cy="1079.2" r="14.4" fill="#000000" fill-rule="evenodd" fill-opacity="1" stroke="none"/>
<circle clip-path="url(#clip852)" cx="2290.63" cy="391.228" r="14.4" fill="#000000" fill-rule="evenodd" fill-opacity="1" stroke="none"/>
</svg>
