<?xml version="1.0" encoding="UTF-8" standalone="no"?>
<!-- Created with Inkscape (http://www.inkscape.org/) -->

<svg
   width="237.218mm"
   height="123.22691mm"
   viewBox="0 0 237.218 123.2269"
   version="1.1"
   id="svg486"
   xml:space="preserve"
   inkscape:version="1.2.1 (9c6d41e4, 2022-07-14)"
   sodipodi:docname="do-processes.svg"
   xmlns:inkscape="http://www.inkscape.org/namespaces/inkscape"
   xmlns:sodipodi="http://sodipodi.sourceforge.net/DTD/sodipodi-0.dtd"
   xmlns="http://www.w3.org/2000/svg"
   xmlns:svg="http://www.w3.org/2000/svg"><sodipodi:namedview
     id="namedview488"
     pagecolor="#ffffff"
     bordercolor="#000000"
     borderopacity="0.25"
     inkscape:showpageshadow="2"
     inkscape:pageopacity="0.0"
     inkscape:pagecheckerboard="0"
     inkscape:deskcolor="#d1d1d1"
     inkscape:document-units="mm"
     showgrid="true"
     inkscape:zoom="0.81454783"
     inkscape:cx="329.0169"
     inkscape:cy="243.69349"
     inkscape:window-width="1440"
     inkscape:window-height="789"
     inkscape:window-x="0"
     inkscape:window-y="25"
     inkscape:window-maximized="0"
     inkscape:current-layer="layer1"><inkscape:grid
       type="xygrid"
       id="grid8512"
       units="in"
       spacingx="6.35"
       spacingy="6.35"
       originx="2.6208777"
       originy="-36.517729" /><sodipodi:guide
       position="2.6208782,159.74466"
       orientation="0,793.70079"
       id="guide8906"
       inkscape:locked="false" /><sodipodi:guide
       position="212.62088,159.74466"
       orientation="1122.5197,0"
       id="guide8908"
       inkscape:locked="false" /><sodipodi:guide
       position="212.62088,-137.25534"
       orientation="0,-793.70079"
       id="guide8910"
       inkscape:locked="false" /><sodipodi:guide
       position="2.6208781,-137.25535"
       orientation="-1122.5197,0"
       id="guide8912"
       inkscape:locked="false" /></sodipodi:namedview><defs
     id="defs483"><rect
       x="507.02979"
       y="401.44971"
       width="77.343521"
       height="104.35237"
       id="rect10119" /><marker
       style="overflow:visible"
       id="TriangleStart"
       refX="0"
       refY="0"
       orient="auto-start-reverse"
       inkscape:stockid="TriangleStart"
       markerWidth="5.3244081"
       markerHeight="6.155385"
       viewBox="0 0 5.3244081 6.1553851"
       inkscape:isstock="true"
       inkscape:collect="always"
       preserveAspectRatio="xMidYMid"><path
         transform="scale(0.5)"
         style="fill:context-stroke;fill-rule:evenodd;stroke:context-stroke;stroke-width:1pt"
         d="M 5.77,0 -2.88,5 V -5 Z"
         id="path135" /></marker><marker
       style="overflow:visible"
       id="TriangleStart-0"
       refX="0"
       refY="0"
       orient="auto-start-reverse"
       inkscape:stockid="TriangleStart"
       markerWidth="5.3244081"
       markerHeight="6.155385"
       viewBox="0 0 5.3244081 6.1553851"
       inkscape:isstock="true"
       inkscape:collect="always"
       preserveAspectRatio="xMidYMid"><path
         transform="scale(0.5)"
         style="fill:context-stroke;fill-rule:evenodd;stroke:context-stroke;stroke-width:1pt"
         d="M 5.77,0 -2.88,5 V -5 Z"
         id="path135-8" /></marker><marker
       style="overflow:visible"
       id="TriangleStart-0-7"
       refX="0"
       refY="0"
       orient="auto-start-reverse"
       inkscape:stockid="TriangleStart"
       markerWidth="5.3244081"
       markerHeight="6.155385"
       viewBox="0 0 5.3244081 6.1553851"
       inkscape:isstock="true"
       inkscape:collect="always"
       preserveAspectRatio="xMidYMid"><path
         transform="scale(0.5)"
         style="fill:context-stroke;fill-rule:evenodd;stroke:context-stroke;stroke-width:1pt"
         d="M 5.77,0 -2.88,5 V -5 Z"
         id="path135-8-1" /></marker></defs><g
     inkscape:label="Layer 1"
     inkscape:groupmode="layer"
     id="layer1"
     transform="translate(2.6208782,-36.517743)"><rect
       style="fill:none;stroke:#000000;stroke-width:1.62904;stroke-linejoin:round;stroke-dasharray:3.25809, 1.62904;stroke-dashoffset:0"
       id="rect542"
       width="165.41039"
       height="87.454369"
       x="31.422413"
       y="71.475761" /><path
       d="m 163.55655,135.52103 c 0,1.95915 -1.51885,3.54597 -3.39406,3.54597 h -0.44547 -0.23335 c -1.49763,0 -2.71524,1.27211 -2.71524,2.83677 0,0.8466 0.35637,1.60898 0.92063,2.12757 h -0.58123 c -1.68854,0 -3.05465,1.42725 -3.05465,3.19137 0,1.13471 0.5685,2.13644 1.4255,2.69937 -1.61642,0.56292 -2.78313,2.1586 -2.78313,4.03796 v 2.12758 h 21.72199 v -2.12758 c 0,-1.87936 -1.16671,-3.47504 -2.78313,-4.03796 0.857,-0.56293 1.42551,-1.56466 1.42551,-2.69937 0,-1.76412 -1.36611,-3.19137 -3.05466,-3.19137 h -0.58123 c 0.56426,-0.51859 0.92064,-1.28097 0.92064,-2.12757 0,-1.56466 -1.21762,-2.83677 -2.71525,-2.83677 h -0.23334 c 0.14849,-0.44325 0.23334,-0.92195 0.23334,-1.41839 0,-2.3492 -1.82431,-4.25515 -4.07287,-4.25515 -0.21638,0 -0.43275,0.0177 -0.64063,0.0532 0.40304,0.58066 0.64063,1.29871 0.64063,2.07439 z m -2.71525,12.05628 c -0.75094,0 -1.35763,-0.63384 -1.35763,-1.41839 0,-0.78454 0.60669,-1.41838 1.35763,-1.41838 0.75093,0 1.35762,0.63384 1.35762,1.41838 0,0.78455 -0.60669,1.41839 -1.35762,1.41839 z m 6.78812,-1.41839 c 0,0.78455 -0.60669,1.41839 -1.35763,1.41839 -0.75093,0 -1.35762,-0.63384 -1.35762,-1.41839 0,-0.78454 0.60669,-1.41838 1.35762,-1.41838 0.75094,0 1.35763,0.63384 1.35763,1.41838 z m -4.07287,7.09193 c -2.71525,0 -4.07288,-2.83677 -4.07288,-2.83677 h 8.14575 c 0,0 -1.35763,2.83677 -4.07287,2.83677 z"
       id="path3799"
       style="fill:#483737;stroke-width:0.0433647" /><path
       d="m 63.260909,137.04135 c 0,-1.22295 1.01722,-2.21635 2.26951,-2.21635 1.25228,0 2.26951,0.9934 2.26951,2.21635 v 0.51451 c -1.18744,0.39577 -1.9453,1.36542 -1.9453,2.77438 0,1.15963 1.45087,3.14246 3.24216,4.62662 1.79129,-1.48416 3.24216,-3.48282 3.24216,-4.62662 0,-1.40896 -0.75785,-2.38257 -1.94529,-2.77438 v -0.51451 c 0,-2.624 -2.1763,-4.74931 -4.86324,-4.74931 -2.68694,0 -4.86324,2.12531 -4.86324,4.74931 v 0.86279 c -0.6768,-0.34828 -1.45086,-0.54617 -2.26951,-0.54617 -2.68694,0 -4.86324,2.12531 -4.86324,4.74931 v 0.51451 c -1.18744,0.39577 -1.94529,1.36542 -1.94529,2.77438 0,1.15963 1.45087,3.14247 3.24216,4.62662 1.79129,-1.48415 3.24216,-3.48282 3.24216,-4.62662 0,-1.40896 -0.75786,-2.38257 -1.9453,-2.77438 v -0.51451 c 0,-1.22295 1.01723,-2.21635 2.26951,-2.21635 1.25228,0 2.26951,0.9934 2.26951,2.21635 v 1.26648 7.91552 1.26648 h 2.59373 v -1.26648 -7.91552 -1.26648 z"
       id="path5380"
       style="fill:#008000;stroke:#008000;stroke-width:0.0400494" /><path
       d="m 88.78055,137.48435 c 0,-1.22295 1.01722,-2.21635 2.26951,-2.21635 1.25228,0 2.26951,0.9934 2.26951,2.21635 v 0.51451 c -1.18744,0.39577 -1.9453,1.36542 -1.9453,2.77438 0,1.15963 1.45087,3.14246 3.242163,4.62662 1.791288,-1.48416 3.242152,-3.48282 3.242152,-4.62662 0,-1.40896 -0.757847,-2.38257 -1.945281,-2.77438 v -0.51451 c 0,-2.624 -2.176304,-4.74931 -4.863244,-4.74931 -2.68694,0 -4.86324,2.12531 -4.86324,4.74931 v 0.86279 c -0.6768,-0.34828 -1.45086,-0.54617 -2.26951,-0.54617 -2.68694,0 -4.86324,2.12531 -4.86324,4.74931 v 0.51451 c -1.18744,0.39577 -1.94529,1.36542 -1.94529,2.77438 0,1.15963 1.45087,3.14247 3.24216,4.62662 1.79129,-1.48415 3.24216,-3.48282 3.24216,-4.62662 0,-1.40896 -0.75786,-2.38257 -1.9453,-2.77438 v -0.51451 c 0,-1.22295 1.01723,-2.21635 2.26951,-2.21635 1.25228,0 2.26951,0.9934 2.26951,2.21635 v 1.26648 7.91552 1.26648 h 2.59373 v -1.26648 -7.91552 -1.26648 z"
       id="path5380-9"
       style="fill:#008000;stroke:#008000;stroke-width:0.0400494" /><path
       style="fill:#000000;stroke:#000000;stroke-width:1.5875;stroke-linejoin:round;stroke-dasharray:none;stroke-dashoffset:0;marker-end:url(#TriangleStart)"
       d="m 113.83006,61.251715 -0.48609,32.567922"
       id="path7393" /><path
       style="fill:#000000;stroke:#000000;stroke-width:1.5875;stroke-linejoin:round;stroke-dasharray:none;stroke-dashoffset:0;marker-end:url(#TriangleStart-0)"
       d="m 8.3472892,95.161342 32.5679258,0.48608"
       id="path7393-4" /><path
       style="fill:#000000;stroke:#000000;stroke-width:1.5875;stroke-linejoin:round;stroke-dasharray:none;stroke-dashoffset:0;marker-end:url(#TriangleStart-0-7)"
       d="m 187.46469,96.195911 32.56792,0.48608"
       id="path7393-4-5" /><text
       xml:space="preserve"
       style="font-style:oblique;font-weight:500;font-size:4.9389px;font-family:Avenir;-inkscape-font-specification:'Avenir Medium Oblique';text-align:center;text-anchor:middle;fill:#000000;stroke:none;stroke-width:1.5875;stroke-linejoin:round;stroke-dasharray:none;stroke-dashoffset:0"
       x="145.16954"
       y="84.128983"
       id="text9341"><tspan
         sodipodi:role="line"
         id="tspan9339"
         style="font-style:normal;font-variant:normal;font-weight:500;font-stretch:normal;font-size:8.46667px;font-family:Avenir;-inkscape-font-specification:'Avenir, Medium';font-variant-ligatures:normal;font-variant-caps:normal;font-variant-numeric:normal;font-variant-east-asian:normal;fill:#008000;stroke:none;stroke-width:1.5875"
         x="145.16954"
         y="84.128983">Reaeration (+)</tspan></text><text
       xml:space="preserve"
       style="font-style:oblique;font-weight:500;font-size:4.9389px;font-family:Avenir;-inkscape-font-specification:'Avenir Medium Oblique';text-align:center;text-anchor:middle;fill:#000000;stroke:none;stroke-width:1.5875;stroke-linejoin:round;stroke-dasharray:none;stroke-dashoffset:0"
       x="71.577744"
       y="127.78595"
       id="text9341-0"><tspan
         sodipodi:role="line"
         id="tspan9339-6"
         style="font-style:normal;font-variant:normal;font-weight:500;font-stretch:normal;font-size:8.46667px;font-family:Avenir;-inkscape-font-specification:'Avenir, Medium';font-variant-ligatures:normal;font-variant-caps:normal;font-variant-numeric:normal;font-variant-east-asian:normal;fill:#008000;stroke:none;stroke-width:1.5875"
         x="71.577744"
         y="127.78595">Photosynthesis (+)</tspan></text><text
       xml:space="preserve"
       style="font-style:oblique;font-weight:500;font-size:4.9389px;font-family:Avenir;-inkscape-font-specification:'Avenir Medium Oblique';text-align:center;text-anchor:middle;fill:#aa0000;stroke:none;stroke-width:1.5875;stroke-linejoin:round;stroke-dasharray:none;stroke-dashoffset:0"
       x="71.902573"
       y="117.39163"
       id="text9341-6"><tspan
         sodipodi:role="line"
         id="tspan9339-8"
         style="font-style:normal;font-variant:normal;font-weight:500;font-stretch:normal;font-size:8.46667px;font-family:Avenir;-inkscape-font-specification:'Avenir, Medium';font-variant-ligatures:normal;font-variant-caps:normal;font-variant-numeric:normal;font-variant-east-asian:normal;fill:#ff0000;stroke:none;stroke-width:1.5875"
         x="71.902573"
         y="117.39163">Respiration (-)</tspan></text><text
       xml:space="preserve"
       style="font-style:oblique;font-weight:500;font-size:4.9389px;font-family:Avenir;-inkscape-font-specification:'Avenir Medium Oblique';text-align:center;text-anchor:middle;fill:#000000;stroke:none;stroke-width:1.5875;stroke-linejoin:round;stroke-dasharray:none;stroke-dashoffset:0"
       x="159.68916"
       y="107.54765"
       id="text9341-8"><tspan
         sodipodi:role="line"
         id="tspan9420"
         style="font-style:normal;font-variant:normal;font-weight:500;font-stretch:normal;font-size:8.46667px;font-family:Avenir;-inkscape-font-specification:'Avenir, Medium';font-variant-ligatures:normal;font-variant-caps:normal;font-variant-numeric:normal;font-variant-east-asian:normal;fill:#ff0000"
         x="159.68916"
         y="107.54765">Waste</tspan><tspan
         sodipodi:role="line"
         style="font-style:normal;font-variant:normal;font-weight:500;font-stretch:normal;font-size:8.46667px;font-family:Avenir;-inkscape-font-specification:'Avenir, Medium';font-variant-ligatures:normal;font-variant-caps:normal;font-variant-numeric:normal;font-variant-east-asian:normal;fill:#ff0000"
         x="159.68916"
         y="118.13098"
         id="tspan9730">Decomposition (-)</tspan></text><text
       xml:space="preserve"
       style="font-style:oblique;font-weight:500;font-size:4.9389px;font-family:Avenir;-inkscape-font-specification:'Avenir Medium Oblique';text-align:center;text-anchor:middle;fill:#000000;stroke:none;stroke-width:1.5875;stroke-linejoin:round;stroke-dasharray:none;stroke-dashoffset:0"
       x="15.535867"
       y="113.86973"
       id="text9341-8-0"><tspan
         sodipodi:role="line"
         style="font-style:normal;font-variant:normal;font-weight:500;font-stretch:normal;font-size:8.46667px;font-family:Avenir;-inkscape-font-specification:'Avenir, Medium';font-variant-ligatures:normal;font-variant-caps:normal;font-variant-numeric:normal;font-variant-east-asian:normal;fill:#000000"
         x="15.535867"
         y="113.86973"
         id="tspan9730-4">Water,</tspan><tspan
         sodipodi:role="line"
         style="font-style:normal;font-variant:normal;font-weight:500;font-stretch:normal;font-size:8.46667px;font-family:Avenir;-inkscape-font-specification:'Avenir, Medium';font-variant-ligatures:normal;font-variant-caps:normal;font-variant-numeric:normal;font-variant-east-asian:normal;fill:#000000"
         x="15.535867"
         y="124.45306"
         id="tspan9830">Waste</tspan><tspan
         sodipodi:role="line"
         style="font-style:normal;font-variant:normal;font-weight:500;font-stretch:normal;font-size:8.46667px;font-family:Avenir;-inkscape-font-specification:'Avenir, Medium';font-variant-ligatures:normal;font-variant-caps:normal;font-variant-numeric:normal;font-variant-east-asian:normal;fill:#000000"
         x="15.535867"
         y="135.03641"
         id="tspan9832">inflow</tspan></text><text
       xml:space="preserve"
       style="font-style:oblique;font-weight:500;font-size:4.9389px;font-family:Avenir;-inkscape-font-specification:'Avenir Medium Oblique';text-align:center;text-anchor:middle;fill:#000000;stroke:none;stroke-width:1.5875;stroke-linejoin:round;stroke-dasharray:none;stroke-dashoffset:0"
       x="215.92268"
       y="111.24804"
       id="text9341-8-0-4"><tspan
         sodipodi:role="line"
         style="font-style:normal;font-variant:normal;font-weight:500;font-stretch:normal;font-size:8.46667px;font-family:Avenir;-inkscape-font-specification:'Avenir, Medium';font-variant-ligatures:normal;font-variant-caps:normal;font-variant-numeric:normal;font-variant-east-asian:normal;fill:#000000"
         x="215.92268"
         y="111.24804"
         id="tspan9730-4-4">Water,</tspan><tspan
         sodipodi:role="line"
         style="font-style:normal;font-variant:normal;font-weight:500;font-stretch:normal;font-size:8.46667px;font-family:Avenir;-inkscape-font-specification:'Avenir, Medium';font-variant-ligatures:normal;font-variant-caps:normal;font-variant-numeric:normal;font-variant-east-asian:normal;fill:#000000"
         x="215.92268"
         y="121.83138"
         id="tspan9830-5">Waste</tspan><tspan
         sodipodi:role="line"
         style="font-style:normal;font-variant:normal;font-weight:500;font-stretch:normal;font-size:8.46667px;font-family:Avenir;-inkscape-font-specification:'Avenir, Medium';font-variant-ligatures:normal;font-variant-caps:normal;font-variant-numeric:normal;font-variant-east-asian:normal;fill:#000000"
         x="215.92268"
         y="132.41472"
         id="tspan9832-9">outflow</tspan></text><text
       xml:space="preserve"
       transform="scale(0.26458333)"
       id="text10117"
       style="font-style:normal;font-variant:normal;font-weight:500;font-stretch:normal;font-size:32px;font-family:Avenir;-inkscape-font-specification:'Avenir, Medium';font-variant-ligatures:normal;font-variant-caps:normal;font-variant-numeric:normal;font-variant-east-asian:normal;text-align:center;white-space:pre;shape-inside:url(#rect10119);display:inline;fill:#aa0000;stroke:none;stroke-width:6;stroke-linejoin:round;stroke-dasharray:none;stroke-dashoffset:0" /><path
       d="m 106.26097,39.056978 -4.0342,-2.539235 -0.80873,4.30799 -4.889929,0.712479 2.882235,3.549935 -2.882235,3.554092 4.889929,0.712479 0.80873,4.307979 1.95597,-1.234404 c 0.43257,-1.536793 1.62214,-2.808473 3.20196,-3.487811 -2.14404,0.488797 -4.42444,-0.47636 -5.29429,-2.327967 -0.95448,-2.029723 0.14106,-4.353545 2.44497,-5.194429 2.30391,-0.840896 4.94165,0.12426 5.89612,2.153984 0.2398,0.513646 0.35264,1.048008 0.34324,1.574079 0.84633,-0.430806 1.82431,-0.687629 2.86812,-0.708333 l 2.35092,-2.891324 -4.89462,-0.720759 -0.80871,-4.30799 z m -2.78351,7.046037 c 0.63475,1.35453 2.39796,1.996583 3.93076,1.433237 1.53279,-0.563357 2.26628,-2.112575 1.62684,-3.462961 -0.63946,-1.350385 -2.39795,-1.996583 -3.93075,-1.433237 -1.53282,0.563357 -2.2663,2.112575 -1.62685,3.462961 z m 23.09547,11.577709 v -3.313839 c 0,-1.627913 -1.33532,-2.986589 -3.09381,-3.259982 0.0564,-0.231962 0.0893,-0.468081 0.0893,-0.712468 0,-1.830902 -1.68325,-3.313839 -3.76147,-3.313839 -0.79931,0 -1.54221,0.219537 -2.15345,0.596487 -0.7946,-1.151553 -2.22867,-1.922023 -3.86491,-1.922023 -2.49198,0 -4.51377,1.781192 -4.51377,3.976607 v 0.05389 c -2.13464,0.314814 -3.76148,1.951018 -3.76148,3.918605 v 3.976607 h 4.51377 12.78432 z"
       id="path15269"
       style="fill:#0000ff;stroke-width:0.044132" /><path
       d="m 183.74704,131.49435 -1.22675,-0.31708 -0.21649,0.44919 -0.0541,0.11098 c -0.28864,-0.0132 -0.5845,0.002 -0.88038,0.0529 -0.32471,0.0555 -0.64223,0.11626 -0.94531,0.18497 l -0.15876,-0.27215 -0.25256,-0.43599 -1.19427,0.37257 0.25616,0.43598 0.12989,0.2246 c -0.59534,0.1876 -1.13654,0.39898 -1.63086,0.63151 l -0.17679,-0.19554 -0.36081,-0.39634 -1.08242,0.52845 0.3608,0.39635 0.20927,0.22989 c -0.48708,0.29593 -0.91285,0.61037 -1.28087,0.93273 l -0.36442,-0.21402 -0.50513,-0.29594 -0.81182,0.74248 0.50874,0.29594 0.4041,0.23782 c -0.0578,0.0634 -0.11179,0.12682 -0.16236,0.19287 -0.25617,0.31181 -0.46183,0.61302 -0.6278,0.89839 l -0.26701,-0.0793 -0.60255,-0.17703 -0.48348,0.88255 0.60255,0.17703 0.3139,0.0924 c -0.008,0.0211 -0.0143,0.0423 -0.0252,0.0607 -0.0938,0.24838 -0.15154,0.45977 -0.19122,0.62095 -0.018,0.0819 -0.0326,0.15061 -0.0432,0.20346 -0.003,0.0264 -0.008,0.0529 -0.0103,0.0713 l -0.003,0.029 v 0.0132 0.005 0.002 c 0,0 0,0.002 1.06438,0.074 v 0 l -1.06438,-0.0713 c -0.0144,0.11626 -0.018,0.23252 -0.008,0.34878 l -0.15154,0.037 -0.61338,0.15853 0.43297,0.89838 0.61337,-0.15853 0.0794,-0.0211 c 0.28865,0.38842 0.73245,0.70814 1.27727,0.91423 l -0.10467,0.26951 -0.17681,0.45713 1.2484,0.26159 0.17681,-0.45713 0.11178,-0.29064 c 0.64225,0.0211 1.25202,-0.10834 1.76075,-0.34878 l 0.28865,0.21137 0.46184,0.33822 0.92006,-0.6738 -0.45823,-0.33555 -0.28865,-0.21139 c 0.24536,-0.28008 0.40772,-0.60509 0.45823,-0.95653 l 0.003,-0.0158 c 0.008,-0.0344 0.0252,-0.10042 0.0613,-0.19553 l 0.008,-0.0159 0.33916,0.10571 0.59535,0.1876 0.51234,-0.87459 -0.59533,-0.18761 -0.30669,-0.0951 c 0.2706,-0.2933 0.67471,-0.62623 1.31695,-0.9116 l 0.0578,0.14796 0.17681,0.45712 1.2484,-0.26159 -0.17681,-0.45711 -0.10823,-0.28009 c 0.18763,-0.045 0.38607,-0.0846 0.59895,-0.12155 0.34998,-0.0581 0.6675,-0.15853 0.95254,-0.29329 l 0.28865,0.21138 0.45822,0.33822 0.91646,-0.67379 -0.45822,-0.33557 -0.28866,-0.21139 c 0.32834,-0.37785 0.50513,-0.82439 0.47627,-1.28944 l 0.39688,-0.082 0.6242,-0.12948 -0.35719,-0.91424 -0.62419,0.12683 -0.37164,0.0766 c -0.28143,-0.40163 -0.72163,-0.72663 -1.24841,-0.93537 l 0.0326,-0.0581 z m -7.82235,6.89113 -1.16902,-0.0766 v 0 l 1.16902,0.0793 z m 0.78657,-0.52317 c -0.63863,0 -1.15459,-0.37785 -1.15459,-0.84554 0,-0.46769 0.51596,-0.84554 1.15459,-0.84554 0.63863,0 1.15458,0.37785 1.15458,0.84554 0,0.46769 -0.51595,0.84554 -1.15458,0.84554 z m 3.46377,-2.95938 c 0,0.23252 -0.25979,0.42276 -0.5773,0.42276 -0.31751,0 -0.57729,-0.19024 -0.57729,-0.42276 0,-0.23253 0.25978,-0.42277 0.57729,-0.42277 0.31751,0 0.5773,0.19024 0.5773,0.42277 z m 3.57201,8.87815 -0.21648,0.44919 1.22674,0.31708 0.2165,-0.44919 0.0541,-0.11098 c 0.28865,0.0132 0.58452,-0.002 0.88038,-0.0529 0.32473,-0.0556 0.64224,-0.11627 0.94532,-0.18497 l 0.15876,0.27215 0.25618,0.43599 1.19427,-0.37522 -0.25617,-0.43597 -0.12989,-0.22459 c 0.59533,-0.18761 1.13654,-0.39899 1.63085,-0.63152 l 0.18041,0.19553 0.3608,0.39635 1.08243,-0.52846 -0.3608,-0.39635 -0.20927,-0.22988 c 0.48708,-0.29594 0.91285,-0.61038 1.28087,-0.93273 l 0.36442,0.21403 0.50875,0.29593 0.8118,-0.74249 -0.50873,-0.29593 -0.41494,-0.23517 c 0.0578,-0.0634 0.1119,-0.12683 0.16237,-0.19289 0.25618,-0.31179 0.46184,-0.61302 0.62781,-0.89839 l 0.267,0.0793 0.60255,0.17704 0.48349,-0.88254 -0.60256,-0.17704 -0.3139,-0.0924 c 0.008,-0.0211 0.0144,-0.0423 0.0252,-0.0607 0.0938,-0.24838 0.15155,-0.45976 0.19124,-0.62094 0.018,-0.082 0.0326,-0.15062 0.0432,-0.20347 0.003,-0.0264 0.008,-0.0529 0.0103,-0.0713 l 0.003,-0.029 v -0.0132 -0.005 -0.002 c 0,0 0,-0.002 -1.06438,-0.074 v 0 l 1.06438,0.0713 c 0.0145,-0.11626 0.018,-0.23252 0.008,-0.34879 l 0.15153,-0.037 0.61338,-0.15854 -0.43297,-0.89838 -0.61338,0.15853 -0.0794,0.0211 c -0.28865,-0.38841 -0.73246,-0.70813 -1.27728,-0.91424 l 0.10468,-0.27215 0.17678,-0.45712 -1.2484,-0.26158 -0.17678,0.45711 -0.1119,0.29066 c -0.64224,-0.0211 -1.25201,0.10833 -1.76075,0.34878 l -0.28865,-0.21139 -0.46184,-0.33557 -0.92006,0.67379 0.45823,0.33558 0.28865,0.21138 c -0.24536,0.28009 -0.40772,0.60508 -0.45823,0.95651 l -0.003,0.0159 c -0.008,0.0344 -0.0252,0.10041 -0.0613,0.19554 l -0.008,0.0159 -0.33916,-0.1057 -0.59533,-0.1876 -0.51235,0.8746 0.59533,0.1876 0.30669,0.0951 c -0.2706,0.29329 -0.67471,0.62623 -1.31694,0.9116 l -0.0578,-0.14798 -0.17679,-0.45711 -1.2484,0.26158 0.1768,0.45712 0.10823,0.28009 c -0.18761,0.045 -0.38607,0.0846 -0.59893,0.12155 -0.34999,0.0581 -0.6675,0.15854 -0.95254,0.29329 l -0.28865,-0.21138 -0.45823,-0.33822 -0.92006,0.67379 0.45822,0.33558 0.28865,0.21139 c -0.32833,0.3752 -0.50513,0.82439 -0.47627,1.28944 l -0.39688,0.082 -0.62421,0.12948 0.35721,0.91424 0.6242,-0.12948 0.37162,-0.0767 c 0.28144,0.40164 0.72164,0.72664 1.2484,0.93539 z m 8.77487,-6.36532 v 0 l -1.16901,-0.0793 1.16901,0.0766 z m -6.57394,3.8287 c 0,-0.46769 0.51596,-0.84554 1.1546,-0.84554 0.63863,0 1.15459,0.37785 1.15459,0.84554 0,0.46769 -0.51596,0.84555 -1.15459,0.84555 -0.63864,0 -1.1546,-0.37786 -1.1546,-0.84555 z"
       id="path17014"
       style="fill:#808000;stroke-width:0.0308766" /><path
       d="m 122.54395,141.56385 -1.22675,-0.31708 -0.21649,0.44919 -0.0541,0.11098 c -0.28864,-0.0132 -0.5845,0.002 -0.88038,0.0529 -0.32471,0.0555 -0.64223,0.11626 -0.94531,0.18497 l -0.15876,-0.27215 -0.25256,-0.43599 -1.19427,0.37257 0.25616,0.43598 0.12989,0.2246 c -0.59534,0.1876 -1.13654,0.39898 -1.63086,0.63151 l -0.17679,-0.19554 -0.36081,-0.39634 -1.08242,0.52845 0.3608,0.39635 0.20927,0.22989 c -0.48708,0.29593 -0.91285,0.61037 -1.28087,0.93273 l -0.36442,-0.21402 -0.50513,-0.29594 -0.81182,0.74248 0.50874,0.29594 0.4041,0.23782 c -0.0578,0.0634 -0.11179,0.12682 -0.16236,0.19287 -0.25617,0.31181 -0.46183,0.61302 -0.6278,0.89839 l -0.26701,-0.0793 -0.60255,-0.17703 -0.48348,0.88255 0.60255,0.17703 0.3139,0.0924 c -0.008,0.0211 -0.0143,0.0423 -0.0252,0.0607 -0.0938,0.24838 -0.15154,0.45977 -0.19122,0.62095 -0.018,0.0819 -0.0326,0.15061 -0.0432,0.20346 -0.003,0.0264 -0.008,0.0529 -0.0103,0.0713 l -0.003,0.029 v 0.0132 0.005 0.002 c 0,0 0,0.002 1.06438,0.074 v 0 l -1.06438,-0.0713 c -0.0144,0.11626 -0.018,0.23252 -0.008,0.34878 l -0.15154,0.037 -0.61338,0.15853 0.43297,0.89838 0.61337,-0.15853 0.0794,-0.0211 c 0.28865,0.38842 0.73245,0.70814 1.27727,0.91423 l -0.10467,0.26951 -0.17681,0.45713 1.2484,0.26159 0.17681,-0.45713 0.11178,-0.29064 c 0.64225,0.0211 1.25202,-0.10834 1.76075,-0.34878 l 0.28865,0.21137 0.46184,0.33822 0.92006,-0.6738 -0.45823,-0.33555 -0.28865,-0.21139 c 0.24536,-0.28008 0.40772,-0.60509 0.45823,-0.95653 l 0.003,-0.0158 c 0.008,-0.0344 0.0252,-0.10042 0.0613,-0.19553 l 0.008,-0.0159 0.33916,0.10571 0.59535,0.1876 0.51234,-0.87459 -0.59533,-0.18761 -0.30669,-0.0951 c 0.2706,-0.2933 0.67471,-0.62623 1.31695,-0.9116 l 0.0578,0.14796 0.17681,0.45712 1.2484,-0.26159 -0.17681,-0.45711 -0.10823,-0.28009 c 0.18763,-0.045 0.38607,-0.0846 0.59895,-0.12155 0.34998,-0.0581 0.6675,-0.15853 0.95254,-0.29329 l 0.28865,0.21138 0.45822,0.33822 0.91646,-0.67379 -0.45822,-0.33557 -0.28866,-0.21139 c 0.32834,-0.37785 0.50513,-0.82439 0.47627,-1.28944 l 0.39688,-0.082 0.6242,-0.12948 -0.35719,-0.91424 -0.62419,0.12683 -0.37164,0.0766 c -0.28143,-0.40163 -0.72163,-0.72663 -1.24841,-0.93537 l 0.0326,-0.0581 z m -7.82235,6.89113 -1.16902,-0.0766 v 0 l 1.16902,0.0793 z m 0.78657,-0.52317 c -0.63863,0 -1.15459,-0.37785 -1.15459,-0.84554 0,-0.46769 0.51596,-0.84554 1.15459,-0.84554 0.63863,0 1.15458,0.37785 1.15458,0.84554 0,0.46769 -0.51595,0.84554 -1.15458,0.84554 z m 3.46377,-2.95938 c 0,0.23252 -0.25979,0.42276 -0.5773,0.42276 -0.31751,0 -0.57729,-0.19024 -0.57729,-0.42276 0,-0.23253 0.25978,-0.42277 0.57729,-0.42277 0.31751,0 0.5773,0.19024 0.5773,0.42277 z m 3.57201,8.87815 -0.21648,0.44919 1.22674,0.31708 0.2165,-0.44919 0.0541,-0.11098 c 0.28865,0.0132 0.58452,-0.002 0.88038,-0.0529 0.32473,-0.0556 0.64224,-0.11627 0.94532,-0.18497 l 0.15876,0.27215 0.25618,0.43599 1.19427,-0.37522 -0.25617,-0.43597 -0.12989,-0.22459 c 0.59533,-0.18761 1.13654,-0.39899 1.63085,-0.63152 l 0.18041,0.19553 0.3608,0.39635 1.08243,-0.52846 -0.3608,-0.39635 -0.20927,-0.22988 c 0.48708,-0.29594 0.91285,-0.61038 1.28087,-0.93273 l 0.36442,0.21403 0.50875,0.29593 0.8118,-0.74249 -0.50873,-0.29593 -0.41494,-0.23517 c 0.0578,-0.0634 0.1119,-0.12683 0.16237,-0.19289 0.25618,-0.31179 0.46184,-0.61302 0.62781,-0.89839 l 0.267,0.0793 0.60255,0.17704 0.48349,-0.88254 -0.60256,-0.17704 -0.3139,-0.0924 c 0.008,-0.0211 0.0144,-0.0423 0.0252,-0.0607 0.0938,-0.24838 0.15155,-0.45976 0.19124,-0.62094 0.018,-0.082 0.0326,-0.15062 0.0432,-0.20347 0.003,-0.0264 0.008,-0.0529 0.0103,-0.0713 l 0.003,-0.029 v -0.0132 -0.005 -0.002 c 0,0 0,-0.002 -1.06438,-0.074 v 0 l 1.06438,0.0713 c 0.0145,-0.11626 0.018,-0.23252 0.008,-0.34879 l 0.15153,-0.037 0.61338,-0.15854 -0.43297,-0.89838 -0.61338,0.15853 -0.0794,0.0211 c -0.28865,-0.38841 -0.73246,-0.70813 -1.27728,-0.91424 l 0.10468,-0.27215 0.17678,-0.45712 -1.2484,-0.26158 -0.17678,0.45711 -0.1119,0.29066 c -0.64224,-0.0211 -1.25201,0.10833 -1.76075,0.34878 l -0.28865,-0.21139 -0.46184,-0.33557 -0.92006,0.67379 0.45823,0.33558 0.28865,0.21138 c -0.24536,0.28009 -0.40772,0.60508 -0.45823,0.95651 l -0.003,0.0159 c -0.008,0.0344 -0.0252,0.10041 -0.0613,0.19554 l -0.008,0.0159 -0.33916,-0.1057 -0.59533,-0.1876 -0.51235,0.8746 0.59533,0.1876 0.30669,0.0951 c -0.2706,0.29329 -0.67471,0.62623 -1.31694,0.9116 l -0.0578,-0.14798 -0.17679,-0.45711 -1.2484,0.26158 0.1768,0.45712 0.10823,0.28009 c -0.18761,0.045 -0.38607,0.0846 -0.59893,0.12155 -0.34999,0.0581 -0.6675,0.15854 -0.95254,0.29329 l -0.28865,-0.21138 -0.45823,-0.33822 -0.92006,0.67379 0.45822,0.33558 0.28865,0.21139 c -0.32833,0.3752 -0.50513,0.82439 -0.47627,1.28944 l -0.39688,0.082 -0.62421,0.12948 0.35721,0.91424 0.6242,-0.12948 0.37162,-0.0767 c 0.28144,0.40164 0.72164,0.72664 1.2484,0.93539 z m 8.77487,-6.36532 v 0 l -1.16901,-0.0793 1.16901,0.0766 z m -6.57394,3.8287 c 0,-0.46769 0.51596,-0.84554 1.1546,-0.84554 0.63863,0 1.15459,0.37785 1.15459,0.84554 0,0.46769 -0.51596,0.84555 -1.15459,0.84555 -0.63864,0 -1.1546,-0.37786 -1.1546,-0.84555 z"
       id="path17014-5"
       style="fill:#808000;stroke-width:0.0308766" /><text
       xml:space="preserve"
       style="font-style:oblique;font-weight:500;font-size:4.9389px;font-family:Avenir;-inkscape-font-specification:'Avenir Medium Oblique';text-align:center;text-anchor:middle;fill:#000000;stroke:none;stroke-width:1.5875;stroke-linejoin:round;stroke-dasharray:none;stroke-dashoffset:0"
       x="137.70937"
       y="131.42731"
       id="text9341-8-03"><tspan
         sodipodi:role="line"
         style="font-style:normal;font-variant:normal;font-weight:500;font-stretch:normal;font-size:8.46667px;font-family:Avenir;-inkscape-font-specification:'Avenir, Medium';font-variant-ligatures:normal;font-variant-caps:normal;font-variant-numeric:normal;font-variant-east-asian:normal;fill:#ff0000"
         x="137.70937"
         y="131.42731"
         id="tspan9422-0">Benthal Uptake</tspan><tspan
         sodipodi:role="line"
         style="font-style:normal;font-variant:normal;font-weight:500;font-stretch:normal;font-size:8.46667px;font-family:Avenir;-inkscape-font-specification:'Avenir, Medium';font-variant-ligatures:normal;font-variant-caps:normal;font-variant-numeric:normal;font-variant-east-asian:normal;fill:#ff0000"
         x="137.70937"
         y="142.01065"
         id="tspan9730-3">(-)</tspan></text></g></svg>
