<?xml version="1.0" encoding="utf-8"?>
<svg xmlns="http://www.w3.org/2000/svg" xmlns:xlink="http://www.w3.org/1999/xlink" width="528" height="336" viewBox="0 0 2112 1344">
<defs>
  <clipPath id="clip800">
    <rect x="0" y="0" width="2112" height="1344"/>
  </clipPath>
</defs>
<path clip-path="url(#clip800)" d="M0 1344 L2112 1344 L2112 2.13163e-14 L0 2.13163e-14  Z" fill="#ffffff" fill-rule="evenodd" fill-opacity="1"/>
<defs>
  <clipPath id="clip801">
    <rect x="422" y="0" width="1479" height="1344"/>
  </clipPath>
</defs>
<path clip-path="url(#clip800)" d="M275.055 1296.76 L1836.94 1296.76 L1836.94 47.2441 L275.055 47.2441  Z" fill="#ffffff" fill-rule="evenodd" fill-opacity="1"/>
<defs>
  <clipPath id="clip802">
    <rect x="275" y="47" width="1563" height="1251"/>
  </clipPath>
</defs>
<polyline clip-path="url(#clip802)" style="stroke:#000000; stroke-linecap:round; stroke-linejoin:round; stroke-width:4; stroke-opacity:1; fill:none" points="1167.56,225.746 1154.12,236.31 1140.67,246.867 1127.23,257.41 1113.8,267.932 1100.38,278.426 1086.98,288.885 1073.59,299.302 1060.23,309.67 1046.88,319.982 1033.57,330.231 1020.28,340.41 1007.03,350.512 993.808,360.53 980.626,370.457 967.485,380.287 954.388,390.011 941.338,399.623 928.338,409.116 915.39,418.483 902.498,427.718 889.665,436.812 876.892,445.759 864.185,454.552 851.544,463.185 838.973,471.649 826.473,479.946 814.04,488.082 801.671,496.064 789.363,503.899 777.114,511.594 764.921,519.156 752.78,526.592 740.689,533.909 728.644,541.114 716.644,548.215 704.684,555.217 692.763,562.128 680.876,568.955 669.022,575.705 657.197,582.385 645.398,589.003 633.623,595.564 621.868,602.076 610.131,608.546 598.408,614.981 586.697,621.389 574.995,627.775 563.299,634.147 551.605,640.512 "/>
<polyline clip-path="url(#clip802)" style="stroke:#000000; stroke-linecap:round; stroke-linejoin:round; stroke-width:4; stroke-opacity:1; fill:none" points="587.003,639.278 551.605,640.512 571.857,611.454 "/>
<polyline clip-path="url(#clip802)" style="stroke:#000000; stroke-linecap:round; stroke-linejoin:round; stroke-width:4; stroke-opacity:1; fill:none" points="551.605,640.512 563.299,634.147 "/>
<polyline clip-path="url(#clip802)" style="stroke:#000000; stroke-linecap:round; stroke-linejoin:round; stroke-width:4; stroke-opacity:1; fill:none" points="1167.56,225.746 1166.5,235.505 1165.43,245.26 1164.35,255.006 1163.27,264.739 1162.17,274.455 1161.05,284.15 1159.92,293.818 1158.76,303.456 1157.57,313.06 1156.36,322.625 1155.11,332.147 1153.83,341.621 1152.51,351.044 1151.15,360.41 1149.74,369.716 1148.28,378.957 1146.76,388.13 1145.2,397.228 1143.57,406.25 1141.88,415.189 1140.13,424.042 1138.31,432.804 1136.41,441.471 1134.44,450.039 1132.39,458.504 1130.27,466.865 1128.07,475.127 1125.79,483.294 1123.45,491.37 1121.04,499.36 1118.57,507.268 1116.04,515.099 1113.46,522.856 1110.82,530.544 1108.13,538.167 1105.4,545.73 1102.62,553.237 1099.81,560.692 1096.96,568.099 1094.08,575.463 1091.17,582.789 1088.23,590.08 1085.27,597.341 1082.28,604.575 1079.29,611.789 1076.28,618.985 1073.26,626.168 1070.23,633.342 1067.2,640.512 "/>
<polyline clip-path="url(#clip802)" style="stroke:#000000; stroke-linecap:round; stroke-linejoin:round; stroke-width:4; stroke-opacity:1; fill:none" points="1094.12,617.497 1067.2,640.512 1064.94,605.165 "/>
<polyline clip-path="url(#clip802)" style="stroke:#000000; stroke-linecap:round; stroke-linejoin:round; stroke-width:4; stroke-opacity:1; fill:none" points="1067.2,640.512 1070.23,633.342 "/>
<polyline clip-path="url(#clip802)" style="stroke:#000000; stroke-linecap:round; stroke-linejoin:round; stroke-width:4; stroke-opacity:1; fill:none" points="1167.56,225.746 1176.25,246.005 1184.93,266.247 1193.6,286.457 1202.26,306.617 1210.91,326.712 1219.54,346.725 1228.14,366.64 1236.71,386.44 1245.26,406.109 1253.77,425.63 1262.23,444.987 1270.66,464.164 1279.04,483.145 1287.37,501.912 1295.64,520.45 1303.85,538.742 1312,556.771 1320.09,574.522 1328.1,591.978 1336.04,609.122 1343.9,625.939 1351.68,642.411 1359.37,658.523 1366.97,674.258 1374.47,689.6 1381.89,704.549 1389.21,719.121 1396.45,733.333 1403.6,747.2 1410.67,760.74 1417.67,773.968 1424.6,786.901 1431.47,799.555 1438.27,811.947 1445.01,824.093 1451.69,836.01 1458.33,847.714 1464.92,859.221 1471.46,870.547 1477.97,881.71 1484.44,892.725 1490.87,903.609 1497.29,914.378 1503.67,925.049 1510.04,935.638 1516.39,946.162 1522.73,956.636 1529.07,967.077 1535.39,977.502 "/>
<polyline clip-path="url(#clip802)" style="stroke:#000000; stroke-linecap:round; stroke-linejoin:round; stroke-width:4; stroke-opacity:1; fill:none" points="1532.49,942.202 1535.39,977.502 1505.41,958.641 "/>
<polyline clip-path="url(#clip802)" style="stroke:#000000; stroke-linecap:round; stroke-linejoin:round; stroke-width:4; stroke-opacity:1; fill:none" points="1535.39,977.502 1529.07,967.077 "/>
<polyline clip-path="url(#clip802)" style="stroke:#000000; stroke-linecap:round; stroke-linejoin:round; stroke-width:4; stroke-opacity:1; fill:none" points="498.182,672 521.816,682.866 545.437,693.722 569.034,704.56 592.595,715.371 616.108,726.145 639.561,736.874 662.941,747.547 686.237,758.157 709.437,768.694 732.528,779.148 755.498,789.511 778.336,799.773 801.03,809.926 823.566,819.96 845.935,829.866 868.122,839.635 890.116,849.257 911.906,858.725 933.479,868.028 954.823,877.157 975.925,886.103 996.775,894.857 1017.36,903.411 1037.67,911.754 1057.69,919.878 1077.42,927.784 1096.87,935.479 1116.06,942.973 1134.99,950.275 1153.69,957.394 1172.15,964.34 1190.4,971.121 1208.44,977.746 1226.29,984.226 1243.96,990.568 1261.46,996.783 1278.81,1002.88 1296,1008.86 1313.07,1014.75 1330.02,1020.54 1346.86,1026.26 1363.6,1031.89 1380.25,1037.47 1396.84,1042.99 1413.36,1048.46 1429.84,1053.9 1446.28,1059.31 1462.7,1064.7 1479.1,1070.09 "/>
<polyline clip-path="url(#clip802)" style="stroke:#000000; stroke-linecap:round; stroke-linejoin:round; stroke-width:4; stroke-opacity:1; fill:none" points="1453.94,1045.16 1479.1,1070.09 1444.06,1075.26 "/>
<polyline clip-path="url(#clip802)" style="stroke:#000000; stroke-linecap:round; stroke-linejoin:round; stroke-width:4; stroke-opacity:1; fill:none" points="1479.1,1070.09 1462.7,1064.7 "/>
<polyline clip-path="url(#clip802)" style="stroke:#000000; stroke-linecap:round; stroke-linejoin:round; stroke-width:4; stroke-opacity:1; fill:none" points="1056,672 1067.71,683.001 1079.41,693.99 1091.09,704.955 1102.75,715.885 1114.37,726.767 1125.94,737.59 1137.46,748.343 1148.92,759.012 1160.31,769.586 1171.61,780.055 1182.83,790.404 1193.95,800.624 1204.96,810.701 1215.85,820.624 1226.62,830.382 1237.26,839.962 1247.75,849.353 1258.09,858.542 1268.27,867.519 1278.28,876.27 1288.11,884.785 1297.75,893.051 1307.19,901.056 1316.43,908.79 1325.46,916.239 1334.26,923.405 1342.87,930.299 1351.28,936.932 1359.49,943.317 1367.53,949.465 1375.4,955.387 1383.11,961.097 1390.67,966.606 1398.08,971.925 1405.36,977.066 1412.52,982.042 1419.55,986.864 1426.48,991.544 1433.32,996.093 1440.06,1000.52 1446.72,1004.85 1453.31,1009.08 1459.84,1013.23 1466.31,1017.3 1472.74,1021.32 1479.13,1025.29 1485.5,1029.22 1491.85,1033.13 1498.19,1037.03 "/>
<polyline clip-path="url(#clip802)" style="stroke:#000000; stroke-linecap:round; stroke-linejoin:round; stroke-width:4; stroke-opacity:1; fill:none" points="1479.5,1006.94 1498.19,1037.03 1462.9,1033.93 "/>
<polyline clip-path="url(#clip802)" style="stroke:#000000; stroke-linecap:round; stroke-linejoin:round; stroke-width:4; stroke-opacity:1; fill:none" points="1498.19,1037.03 1491.85,1033.13 "/>
<path clip-path="url(#clip802)" d="M811.289 482.432 L879.211 482.432 L879.211 452.444 L811.289 452.444 L811.289 482.432 L811.289 482.432  Z" fill="#ffffff" fill-rule="evenodd" fill-opacity="1"/>
<polyline clip-path="url(#clip802)" style="stroke:#000000; stroke-linecap:round; stroke-linejoin:round; stroke-width:0; stroke-opacity:0; fill:none" points="811.289,482.432 879.211,482.432 879.211,452.444 811.289,452.444 811.289,482.432 "/>
<path clip-path="url(#clip802)" d="M1099.47 469.279 L1167.39 469.279 L1167.39 439.29 L1099.47 439.29 L1099.47 469.279 L1099.47 469.279  Z" fill="#ffffff" fill-rule="evenodd" fill-opacity="1"/>
<polyline clip-path="url(#clip802)" style="stroke:#000000; stroke-linecap:round; stroke-linejoin:round; stroke-width:0; stroke-opacity:0; fill:none" points="1099.47,469.279 1167.39,469.279 1167.39,439.29 1099.47,439.29 1099.47,469.279 "/>
<path clip-path="url(#clip802)" d="M1280.34 696.973 L1461.13 696.973 L1461.13 666.984 L1280.34 666.984 L1280.34 696.973 L1280.34 696.973  Z" fill="#ffffff" fill-rule="evenodd" fill-opacity="1"/>
<polyline clip-path="url(#clip802)" style="stroke:#000000; stroke-linecap:round; stroke-linejoin:round; stroke-width:0; stroke-opacity:0; fill:none" points="1280.34,696.973 1461.13,696.973 1461.13,666.984 1280.34,666.984 1280.34,696.973 "/>
<path clip-path="url(#clip802)" d="M998.251 930.838 L1097.18 930.838 L1097.18 900.85 L998.251 900.85 L998.251 930.838 L998.251 930.838  Z" fill="#ffffff" fill-rule="evenodd" fill-opacity="1"/>
<polyline clip-path="url(#clip802)" style="stroke:#000000; stroke-linecap:round; stroke-linejoin:round; stroke-width:0; stroke-opacity:0; fill:none" points="998.251,930.838 1097.18,930.838 1097.18,900.85 998.251,900.85 998.251,930.838 "/>
<path clip-path="url(#clip802)" d="M1252.56 927.545 L1389.38 927.545 L1389.38 897.556 L1252.56 897.556 L1252.56 927.545 L1252.56 927.545  Z" fill="#ffffff" fill-rule="evenodd" fill-opacity="1"/>
<polyline clip-path="url(#clip802)" style="stroke:#000000; stroke-linecap:round; stroke-linejoin:round; stroke-width:0; stroke-opacity:0; fill:none" points="1252.56,927.545 1389.38,927.545 1389.38,897.556 1252.56,897.556 1252.56,927.545 "/>
<path clip-path="url(#clip802)" d="M1238.88 225.746 L1203.22 163.983 L1131.9 163.983 L1096.25 225.746 L1131.9 287.509 L1203.22 287.509 L1238.88 225.746 L1238.88 225.746  Z" fill="#ffffff" fill-rule="evenodd" fill-opacity="1"/>
<polyline clip-path="url(#clip802)" style="stroke:#000000; stroke-linecap:round; stroke-linejoin:round; stroke-width:4; stroke-opacity:1; fill:none" points="1238.88,225.746 1203.22,163.983 1131.9,163.983 1096.25,225.746 1131.9,287.509 1203.22,287.509 1238.88,225.746 "/>
<path clip-path="url(#clip802)" d="M335.656 703.488 L660.708 703.488 L660.708 640.512 L335.656 640.512 L335.656 703.488 L335.656 703.488  Z" fill="#ffffff" fill-rule="evenodd" fill-opacity="1"/>
<polyline clip-path="url(#clip802)" style="stroke:#000000; stroke-linecap:round; stroke-linejoin:round; stroke-width:4; stroke-opacity:1; fill:none" points="335.656,703.488 660.708,703.488 660.708,640.512 335.656,640.512 335.656,703.488 "/>
<path clip-path="url(#clip802)" d="M893.474 703.488 L1218.53 703.488 L1218.53 640.512 L893.474 640.512 L893.474 703.488 L893.474 703.488  Z" fill="#ffffff" fill-rule="evenodd" fill-opacity="1"/>
<polyline clip-path="url(#clip802)" style="stroke:#000000; stroke-linecap:round; stroke-linejoin:round; stroke-width:4; stroke-opacity:1; fill:none" points="893.474,703.488 1218.53,703.488 1218.53,640.512 893.474,640.512 893.474,703.488 "/>
<path clip-path="url(#clip802)" d="M1776.34 1118.25 L1695.08 977.502 L1532.55 977.502 L1451.29 1118.25 L1532.55 1259.01 L1695.08 1259.01 L1776.34 1118.25 L1776.34 1118.25  Z" fill="#ffffff" fill-rule="evenodd" fill-opacity="1"/>
<polyline clip-path="url(#clip802)" style="stroke:#000000; stroke-linecap:round; stroke-linejoin:round; stroke-width:4; stroke-opacity:1; fill:none" points="1776.34,1118.25 1695.08,977.502 1532.55,977.502 1451.29,1118.25 1532.55,1259.01 1695.08,1259.01 1776.34,1118.25 "/>
<circle clip-path="url(#clip802)" style="fill:#ffffff; stroke:none; fill-opacity:0" cx="1167.56" cy="225.746" r="2"/>
<circle clip-path="url(#clip802)" style="fill:#ffffff; stroke:none; fill-opacity:0" cx="498.182" cy="672" r="2"/>
<circle clip-path="url(#clip802)" style="fill:#ffffff; stroke:none; fill-opacity:0" cx="1056" cy="672" r="2"/>
<circle clip-path="url(#clip802)" style="fill:#ffffff; stroke:none; fill-opacity:0" cx="1613.82" cy="1118.25" r="2"/>
<path clip-path="url(#clip800)" d="M853.441 447.622 Q853.441 447.991 853.298 448.196 Q853.175 448.38 853.031 448.421 Q852.888 448.442 852.519 448.462 Q849.588 448.606 847.19 450.594 Q846.596 451.106 845.1 452.705 Q843.624 454.303 841.657 456.435 Q839.71 458.566 838.582 459.714 L843.993 472.666 Q844.218 473.179 844.3 473.404 Q844.403 473.609 844.608 473.876 Q844.833 474.142 844.997 474.224 Q845.182 474.306 845.571 474.408 Q845.981 474.49 846.391 474.511 Q846.821 474.511 847.6 474.531 Q847.846 474.531 847.948 474.552 Q848.071 474.552 848.215 474.675 Q848.358 474.777 848.358 475.023 Q848.358 475.392 848.194 475.597 Q848.051 475.782 847.907 475.802 Q847.784 475.823 847.559 475.823 Q847.026 475.823 845.223 475.761 Q843.419 475.7 842.907 475.7 L837.619 475.823 Q836.984 475.823 836.984 475.31 Q836.984 475.044 837.025 474.9 Q837.086 474.736 837.23 474.675 Q837.373 474.593 837.476 474.572 Q837.578 474.552 837.824 474.531 Q838.582 474.449 839.156 474.224 Q839.751 473.978 839.997 473.732 Q840.263 473.486 840.263 473.302 L840.058 472.707 L835.816 462.685 L832.024 466.805 L827.741 471.334 Q826.614 472.543 826.614 473.22 Q826.614 474.347 828.294 474.531 Q828.806 474.572 828.806 474.982 Q828.806 475.372 828.643 475.577 Q828.499 475.761 828.356 475.802 Q828.233 475.823 828.048 475.823 Q827.29 475.823 825.691 475.761 Q824.113 475.7 823.334 475.7 Q822.679 475.7 821.346 475.761 Q820.014 475.823 819.399 475.823 Q819.153 475.823 819.01 475.7 Q818.867 475.577 818.867 475.454 L818.846 475.351 Q818.846 475.064 818.887 474.9 Q818.949 474.736 819.112 474.654 Q819.297 474.572 819.379 474.572 Q819.461 474.552 819.768 474.531 Q821.51 474.429 822.986 473.753 Q824.482 473.076 825.937 471.498 Q826.06 471.396 826.204 471.273 Q826.368 471.15 826.491 471.047 L835.344 461.517 L830.385 449.794 Q830.159 449.261 829.954 449.036 Q829.749 448.79 829.114 448.626 Q828.479 448.462 827.249 448.462 Q826.9 448.462 826.737 448.442 Q826.573 448.421 826.429 448.319 Q826.286 448.216 826.286 447.991 Q826.286 447.601 826.429 447.417 Q826.593 447.212 826.716 447.192 Q826.859 447.151 827.044 447.151 Q827.556 447.151 829.38 447.212 Q831.204 447.273 831.737 447.273 Q832.618 447.273 834.381 447.212 Q836.164 447.151 837.025 447.151 Q837.66 447.151 837.66 447.663 Q837.66 447.991 837.517 448.175 Q837.373 448.36 837.23 448.401 Q837.086 448.442 836.82 448.462 Q836.021 448.544 835.406 448.811 Q834.811 449.057 834.565 449.302 Q834.34 449.528 834.34 449.671 L834.545 450.225 L838.07 458.566 L844.874 451.27 Q845.674 450.368 845.674 449.753 Q845.674 448.647 843.993 448.462 Q843.481 448.38 843.481 447.991 Q843.481 447.601 843.645 447.417 Q843.809 447.212 843.932 447.192 Q844.075 447.151 844.28 447.151 Q845.038 447.151 846.596 447.212 Q848.174 447.273 848.953 447.273 Q849.609 447.273 850.941 447.212 Q852.273 447.151 852.888 447.151 Q853.134 447.151 853.277 447.273 Q853.421 447.376 853.421 447.499 L853.441 447.622 Z" fill="#000000" fill-rule="nonzero" fill-opacity="1" /><path clip-path="url(#clip800)" d="M857.577 470.677 L857.577 469.759 Q861.106 469.759 862.928 467.879 Q863.431 467.879 863.517 467.994 Q863.603 468.109 863.603 468.64 L863.603 485.124 Q863.603 485.999 864.033 486.271 Q864.464 486.544 866.343 486.544 L867.275 486.544 L867.275 487.448 Q866.242 487.362 862.512 487.362 Q858.782 487.362 857.764 487.448 L857.764 486.544 L858.696 486.544 Q860.547 486.544 860.992 486.286 Q861.436 486.013 861.436 485.124 L861.436 469.902 Q859.901 470.677 857.577 470.677 Z" fill="#000000" fill-rule="nonzero" fill-opacity="1" /><path clip-path="url(#clip800)" d="M1140.61 434.468 Q1140.61 434.837 1140.47 435.042 Q1140.34 435.227 1140.2 435.268 Q1140.06 435.288 1139.69 435.309 Q1136.76 435.452 1134.36 437.44 Q1133.76 437.952 1132.27 439.551 Q1130.79 441.149 1128.82 443.281 Q1126.88 445.412 1125.75 446.56 L1131.16 459.513 Q1131.39 460.025 1131.47 460.25 Q1131.57 460.455 1131.78 460.722 Q1132 460.988 1132.17 461.07 Q1132.35 461.152 1132.74 461.255 Q1133.15 461.337 1133.56 461.357 Q1133.99 461.357 1134.77 461.378 Q1135.01 461.378 1135.12 461.398 Q1135.24 461.398 1135.38 461.521 Q1135.53 461.624 1135.53 461.87 Q1135.53 462.238 1135.36 462.443 Q1135.22 462.628 1135.08 462.648 Q1134.95 462.669 1134.73 462.669 Q1134.19 462.669 1132.39 462.607 Q1130.59 462.546 1130.07 462.546 L1124.79 462.669 Q1124.15 462.669 1124.15 462.156 Q1124.15 461.89 1124.19 461.747 Q1124.25 461.583 1124.4 461.521 Q1124.54 461.439 1124.64 461.419 Q1124.75 461.398 1124.99 461.378 Q1125.75 461.296 1126.32 461.07 Q1126.92 460.824 1127.16 460.578 Q1127.43 460.332 1127.43 460.148 L1127.23 459.554 L1122.98 449.532 L1119.19 453.651 L1114.91 458.181 Q1113.78 459.39 1113.78 460.066 Q1113.78 461.193 1115.46 461.378 Q1115.97 461.419 1115.97 461.829 Q1115.97 462.218 1115.81 462.423 Q1115.67 462.607 1115.52 462.648 Q1115.4 462.669 1115.22 462.669 Q1114.46 462.669 1112.86 462.607 Q1111.28 462.546 1110.5 462.546 Q1109.85 462.546 1108.51 462.607 Q1107.18 462.669 1106.57 462.669 Q1106.32 462.669 1106.18 462.546 Q1106.03 462.423 1106.03 462.3 L1106.01 462.197 Q1106.01 461.911 1106.05 461.747 Q1106.12 461.583 1106.28 461.501 Q1106.46 461.419 1106.55 461.419 Q1106.63 461.398 1106.94 461.378 Q1108.68 461.275 1110.15 460.599 Q1111.65 459.923 1113.11 458.344 Q1113.23 458.242 1113.37 458.119 Q1113.54 457.996 1113.66 457.894 L1122.51 448.364 L1117.55 436.641 Q1117.33 436.108 1117.12 435.882 Q1116.92 435.636 1116.28 435.472 Q1115.65 435.309 1114.42 435.309 Q1114.07 435.309 1113.9 435.288 Q1113.74 435.268 1113.6 435.165 Q1113.45 435.063 1113.45 434.837 Q1113.45 434.448 1113.6 434.263 Q1113.76 434.058 1113.88 434.038 Q1114.03 433.997 1114.21 433.997 Q1114.72 433.997 1116.55 434.058 Q1118.37 434.12 1118.91 434.12 Q1119.79 434.12 1121.55 434.058 Q1123.33 433.997 1124.19 433.997 Q1124.83 433.997 1124.83 434.509 Q1124.83 434.837 1124.68 435.022 Q1124.54 435.206 1124.4 435.247 Q1124.25 435.288 1123.99 435.309 Q1123.19 435.39 1122.57 435.657 Q1121.98 435.903 1121.73 436.149 Q1121.51 436.374 1121.51 436.518 L1121.71 437.071 L1125.24 445.412 L1132.04 438.116 Q1132.84 437.215 1132.84 436.6 Q1132.84 435.493 1131.16 435.309 Q1130.65 435.227 1130.65 434.837 Q1130.65 434.448 1130.81 434.263 Q1130.98 434.058 1131.1 434.038 Q1131.24 433.997 1131.45 433.997 Q1132.21 433.997 1133.76 434.058 Q1135.34 434.12 1136.12 434.12 Q1136.78 434.12 1138.11 434.058 Q1139.44 433.997 1140.06 433.997 Q1140.3 433.997 1140.44 434.12 Q1140.59 434.222 1140.59 434.345 L1140.61 434.468 Z" fill="#000000" fill-rule="nonzero" fill-opacity="1" /><path clip-path="url(#clip800)" d="M1144.75 474.294 Q1144.75 473.763 1144.79 473.605 Q1144.85 473.448 1145.08 473.204 L1150.71 466.92 Q1153.8 463.448 1153.8 460.421 Q1153.8 458.456 1152.76 457.05 Q1151.75 455.644 1149.87 455.644 Q1148.58 455.644 1147.49 456.433 Q1146.4 457.222 1145.89 458.628 Q1145.98 458.599 1146.28 458.599 Q1147.01 458.599 1147.41 459.058 Q1147.83 459.517 1147.83 460.134 Q1147.83 460.923 1147.31 461.311 Q1146.81 461.684 1146.31 461.684 Q1146.11 461.684 1145.84 461.641 Q1145.58 461.598 1145.16 461.196 Q1144.75 460.78 1144.75 460.048 Q1144.75 457.997 1146.29 456.361 Q1147.86 454.726 1150.24 454.726 Q1152.94 454.726 1154.7 456.332 Q1156.48 457.925 1156.48 460.421 Q1156.48 461.296 1156.21 462.1 Q1155.95 462.889 1155.59 463.506 Q1155.25 464.122 1154.3 465.112 Q1153.35 466.102 1152.59 466.805 Q1151.83 467.508 1150.13 469 L1147.01 472.027 L1152.31 472.027 Q1154.89 472.027 1155.09 471.798 Q1155.38 471.382 1155.73 469.187 L1156.48 469.187 L1155.65 474.294 L1144.75 474.294 Z" fill="#000000" fill-rule="nonzero" fill-opacity="1" /><path clip-path="url(#clip800)" d="M1232.5 666.405 L1232.5 665.093 Q1237.54 665.093 1240.14 662.408 Q1240.86 662.408 1240.98 662.572 Q1241.1 662.736 1241.1 663.494 L1241.1 687.043 Q1241.1 688.293 1241.72 688.682 Q1242.33 689.072 1245.02 689.072 L1246.35 689.072 L1246.35 690.363 Q1244.88 690.24 1239.55 690.24 Q1234.22 690.24 1232.76 690.363 L1232.76 689.072 L1234.1 689.072 Q1236.74 689.072 1237.37 688.703 Q1238.01 688.313 1238.01 687.043 L1238.01 665.298 Q1235.82 666.405 1232.5 666.405 Z" fill="#000000" fill-rule="nonzero" fill-opacity="1" /><path clip-path="url(#clip800)" d="M1248.36 676.939 Q1248.36 670.77 1249.92 667.409 Q1252.09 662.408 1257.21 662.408 Q1258.3 662.408 1259.42 662.716 Q1260.57 663.003 1262.01 664.13 Q1263.46 665.257 1264.34 667.101 Q1266.02 670.668 1266.02 676.939 Q1266.02 683.067 1264.47 686.407 Q1262.19 691.285 1257.17 691.285 Q1255.28 691.285 1253.36 690.322 Q1251.45 689.359 1250.24 687.043 Q1248.36 683.579 1248.36 676.939 M1251.84 676.427 Q1251.84 682.759 1252.29 685.28 Q1252.81 688.006 1254.2 689.195 Q1255.61 690.363 1257.17 690.363 Q1258.85 690.363 1260.24 689.113 Q1261.66 687.842 1262.09 685.116 Q1262.56 682.431 1262.54 676.427 Q1262.54 670.586 1262.13 668.249 Q1261.58 665.523 1260.1 664.437 Q1258.65 663.33 1257.17 663.33 Q1256.62 663.33 1256.02 663.494 Q1255.45 663.658 1254.61 664.13 Q1253.77 664.601 1253.11 665.769 Q1252.48 666.938 1252.17 668.7 Q1251.84 670.975 1251.84 676.427 Z" fill="#000000" fill-rule="nonzero" fill-opacity="1" /><path clip-path="url(#clip800)" d="M1269.31 676.939 Q1269.31 670.77 1270.87 667.409 Q1273.04 662.408 1278.16 662.408 Q1279.25 662.408 1280.38 662.716 Q1281.52 663.003 1282.96 664.13 Q1284.41 665.257 1285.29 667.101 Q1286.98 670.668 1286.98 676.939 Q1286.98 683.067 1285.42 686.407 Q1283.14 691.285 1278.12 691.285 Q1276.24 691.285 1274.31 690.322 Q1272.4 689.359 1271.19 687.043 Q1269.31 683.579 1269.31 676.939 M1272.79 676.427 Q1272.79 682.759 1273.24 685.28 Q1273.76 688.006 1275.15 689.195 Q1276.56 690.363 1278.12 690.363 Q1279.8 690.363 1281.2 689.113 Q1282.61 687.842 1283.04 685.116 Q1283.51 682.431 1283.49 676.427 Q1283.49 670.586 1283.08 668.249 Q1282.53 665.523 1281.05 664.437 Q1279.6 663.33 1278.12 663.33 Q1277.57 663.33 1276.97 663.494 Q1276.4 663.658 1275.56 664.13 Q1274.72 664.601 1274.06 665.769 Q1273.43 666.938 1273.12 668.7 Q1272.79 670.975 1272.79 676.427 Z" fill="#000000" fill-rule="nonzero" fill-opacity="1" /><path clip-path="url(#clip800)" d="M1329.45 679.275 Q1329.69 679.521 1329.69 679.87 Q1329.69 680.218 1329.45 680.464 Q1329.2 680.71 1328.85 680.71 L1302.58 680.71 Q1302.23 680.71 1301.98 680.464 Q1301.74 680.218 1301.74 679.87 Q1301.74 679.521 1301.98 679.275 Q1302.23 679.029 1302.58 679.029 L1328.85 679.029 Q1329.2 679.029 1329.45 679.275 Z" fill="#000000" fill-rule="nonzero" fill-opacity="1" /><path clip-path="url(#clip800)" d="M1380.31 662.162 Q1380.31 662.531 1380.16 662.736 Q1380.04 662.921 1379.9 662.962 Q1379.75 662.982 1379.39 663.003 Q1376.46 663.146 1374.06 665.134 Q1373.46 665.646 1371.97 667.245 Q1370.49 668.844 1368.52 670.975 Q1366.58 673.106 1365.45 674.254 L1370.86 687.207 Q1371.09 687.719 1371.17 687.945 Q1371.27 688.149 1371.48 688.416 Q1371.7 688.682 1371.86 688.764 Q1372.05 688.846 1372.44 688.949 Q1372.85 689.031 1373.26 689.051 Q1373.69 689.051 1374.47 689.072 Q1374.71 689.072 1374.82 689.092 Q1374.94 689.092 1375.08 689.215 Q1375.23 689.318 1375.23 689.564 Q1375.23 689.932 1375.06 690.137 Q1374.92 690.322 1374.77 690.342 Q1374.65 690.363 1374.43 690.363 Q1373.89 690.363 1372.09 690.301 Q1370.29 690.24 1369.77 690.24 L1364.49 690.363 Q1363.85 690.363 1363.85 689.851 Q1363.85 689.584 1363.89 689.441 Q1363.95 689.277 1364.1 689.215 Q1364.24 689.133 1364.34 689.113 Q1364.45 689.092 1364.69 689.072 Q1365.45 688.99 1366.02 688.764 Q1366.62 688.518 1366.86 688.272 Q1367.13 688.026 1367.13 687.842 L1366.93 687.248 L1362.68 677.226 L1358.89 681.345 L1354.61 685.875 Q1353.48 687.084 1353.48 687.76 Q1353.48 688.887 1355.16 689.072 Q1355.67 689.113 1355.67 689.523 Q1355.67 689.912 1355.51 690.117 Q1355.37 690.301 1355.22 690.342 Q1355.1 690.363 1354.92 690.363 Q1354.16 690.363 1352.56 690.301 Q1350.98 690.24 1350.2 690.24 Q1349.55 690.24 1348.21 690.301 Q1346.88 690.363 1346.27 690.363 Q1346.02 690.363 1345.88 690.24 Q1345.73 690.117 1345.73 689.994 L1345.71 689.892 Q1345.71 689.605 1345.75 689.441 Q1345.82 689.277 1345.98 689.195 Q1346.16 689.113 1346.25 689.113 Q1346.33 689.092 1346.64 689.072 Q1348.38 688.969 1349.85 688.293 Q1351.35 687.617 1352.8 686.039 Q1352.93 685.936 1353.07 685.813 Q1353.23 685.69 1353.36 685.588 L1362.21 676.058 L1357.25 664.335 Q1357.03 663.802 1356.82 663.576 Q1356.62 663.33 1355.98 663.166 Q1355.35 663.003 1354.12 663.003 Q1353.77 663.003 1353.6 662.982 Q1353.44 662.962 1353.3 662.859 Q1353.15 662.757 1353.15 662.531 Q1353.15 662.142 1353.3 661.957 Q1353.46 661.752 1353.58 661.732 Q1353.73 661.691 1353.91 661.691 Q1354.42 661.691 1356.25 661.752 Q1358.07 661.814 1358.6 661.814 Q1359.49 661.814 1361.25 661.752 Q1363.03 661.691 1363.89 661.691 Q1364.53 661.691 1364.53 662.203 Q1364.53 662.531 1364.38 662.716 Q1364.24 662.9 1364.1 662.941 Q1363.95 662.982 1363.69 663.003 Q1362.89 663.085 1362.27 663.351 Q1361.68 663.597 1361.43 663.843 Q1361.21 664.068 1361.21 664.212 L1361.41 664.765 L1364.94 673.106 L1371.74 665.81 Q1372.54 664.909 1372.54 664.294 Q1372.54 663.187 1370.86 663.003 Q1370.35 662.921 1370.35 662.531 Q1370.35 662.142 1370.51 661.957 Q1370.68 661.752 1370.8 661.732 Q1370.94 661.691 1371.15 661.691 Q1371.91 661.691 1373.46 661.752 Q1375.04 661.814 1375.82 661.814 Q1376.48 661.814 1377.81 661.752 Q1379.14 661.691 1379.75 661.691 Q1380 661.691 1380.14 661.814 Q1380.29 661.916 1380.29 662.039 L1380.31 662.162 Z" fill="#000000" fill-rule="nonzero" fill-opacity="1" /><path clip-path="url(#clip800)" d="M1384.44 685.217 L1384.44 684.299 Q1387.97 684.299 1389.8 682.42 Q1390.3 682.42 1390.38 682.534 Q1390.47 682.649 1390.47 683.18 L1390.47 699.664 Q1390.47 700.539 1390.9 700.812 Q1391.33 701.084 1393.21 701.084 L1394.14 701.084 L1394.14 701.988 Q1393.11 701.902 1389.38 701.902 Q1385.65 701.902 1384.63 701.988 L1384.63 701.084 L1385.56 701.084 Q1387.41 701.084 1387.86 700.826 Q1388.3 700.553 1388.3 699.664 L1388.3 684.442 Q1386.77 685.217 1384.44 685.217 Z" fill="#000000" fill-rule="nonzero" fill-opacity="1" /><path clip-path="url(#clip800)" d="M1437.87 679.275 Q1438.12 679.521 1438.12 679.87 Q1438.12 680.218 1437.87 680.464 Q1437.63 680.71 1437.28 680.71 L1411.01 680.71 Q1410.66 680.71 1410.41 680.464 Q1410.17 680.218 1410.17 679.87 Q1410.17 679.521 1410.41 679.275 Q1410.66 679.029 1411.01 679.029 L1437.28 679.029 Q1437.63 679.029 1437.87 679.275 Z" fill="#000000" fill-rule="nonzero" fill-opacity="1" /><path clip-path="url(#clip800)" d="M1488.74 662.162 Q1488.74 662.531 1488.59 662.736 Q1488.47 662.921 1488.33 662.962 Q1488.18 662.982 1487.81 663.003 Q1484.88 663.146 1482.49 665.134 Q1481.89 665.646 1480.4 667.245 Q1478.92 668.844 1476.95 670.975 Q1475.01 673.106 1473.88 674.254 L1479.29 687.207 Q1479.51 687.719 1479.6 687.945 Q1479.7 688.149 1479.9 688.416 Q1480.13 688.682 1480.29 688.764 Q1480.48 688.846 1480.87 688.949 Q1481.28 689.031 1481.69 689.051 Q1482.12 689.051 1482.9 689.072 Q1483.14 689.072 1483.24 689.092 Q1483.37 689.092 1483.51 689.215 Q1483.65 689.318 1483.65 689.564 Q1483.65 689.932 1483.49 690.137 Q1483.35 690.322 1483.2 690.342 Q1483.08 690.363 1482.85 690.363 Q1482.32 690.363 1480.52 690.301 Q1478.71 690.24 1478.2 690.24 L1472.91 690.363 Q1472.28 690.363 1472.28 689.851 Q1472.28 689.584 1472.32 689.441 Q1472.38 689.277 1472.53 689.215 Q1472.67 689.133 1472.77 689.113 Q1472.87 689.092 1473.12 689.072 Q1473.88 688.99 1474.45 688.764 Q1475.05 688.518 1475.29 688.272 Q1475.56 688.026 1475.56 687.842 L1475.35 687.248 L1471.11 677.226 L1467.32 681.345 L1463.04 685.875 Q1461.91 687.084 1461.91 687.76 Q1461.91 688.887 1463.59 689.072 Q1464.1 689.113 1464.1 689.523 Q1464.1 689.912 1463.94 690.117 Q1463.79 690.301 1463.65 690.342 Q1463.53 690.363 1463.34 690.363 Q1462.59 690.363 1460.99 690.301 Q1459.41 690.24 1458.63 690.24 Q1457.97 690.24 1456.64 690.301 Q1455.31 690.363 1454.7 690.363 Q1454.45 690.363 1454.31 690.24 Q1454.16 690.117 1454.16 689.994 L1454.14 689.892 Q1454.14 689.605 1454.18 689.441 Q1454.24 689.277 1454.41 689.195 Q1454.59 689.113 1454.67 689.113 Q1454.76 689.092 1455.06 689.072 Q1456.81 688.969 1458.28 688.293 Q1459.78 687.617 1461.23 686.039 Q1461.36 685.936 1461.5 685.813 Q1461.66 685.69 1461.79 685.588 L1470.64 676.058 L1465.68 664.335 Q1465.45 663.802 1465.25 663.576 Q1465.05 663.33 1464.41 663.166 Q1463.77 663.003 1462.54 663.003 Q1462.2 663.003 1462.03 662.982 Q1461.87 662.962 1461.72 662.859 Q1461.58 662.757 1461.58 662.531 Q1461.58 662.142 1461.72 661.957 Q1461.89 661.752 1462.01 661.732 Q1462.16 661.691 1462.34 661.691 Q1462.85 661.691 1464.68 661.752 Q1466.5 661.814 1467.03 661.814 Q1467.91 661.814 1469.68 661.752 Q1471.46 661.691 1472.32 661.691 Q1472.96 661.691 1472.96 662.203 Q1472.96 662.531 1472.81 662.716 Q1472.67 662.9 1472.53 662.941 Q1472.38 662.982 1472.12 663.003 Q1471.32 663.085 1470.7 663.351 Q1470.11 663.597 1469.86 663.843 Q1469.64 664.068 1469.64 664.212 L1469.84 664.765 L1473.37 673.106 L1480.17 665.81 Q1480.97 664.909 1480.97 664.294 Q1480.97 663.187 1479.29 663.003 Q1478.78 662.921 1478.78 662.531 Q1478.78 662.142 1478.94 661.957 Q1479.1 661.752 1479.23 661.732 Q1479.37 661.691 1479.58 661.691 Q1480.33 661.691 1481.89 661.752 Q1483.47 661.814 1484.25 661.814 Q1484.9 661.814 1486.24 661.752 Q1487.57 661.691 1488.18 661.691 Q1488.43 661.691 1488.57 661.814 Q1488.72 661.916 1488.72 662.039 L1488.74 662.162 Z" fill="#000000" fill-rule="nonzero" fill-opacity="1" /><path clip-path="url(#clip800)" d="M1492.87 701.988 Q1492.87 701.457 1492.92 701.299 Q1492.97 701.142 1493.2 700.898 L1498.84 694.614 Q1501.93 691.142 1501.93 688.115 Q1501.93 686.15 1500.89 684.744 Q1499.87 683.338 1497.99 683.338 Q1496.7 683.338 1495.61 684.127 Q1494.52 684.916 1494.02 686.322 Q1494.11 686.293 1494.41 686.293 Q1495.14 686.293 1495.54 686.752 Q1495.96 687.211 1495.96 687.828 Q1495.96 688.617 1495.44 689.005 Q1494.94 689.378 1494.44 689.378 Q1494.24 689.378 1493.96 689.335 Q1493.71 689.292 1493.29 688.89 Q1492.87 688.474 1492.87 687.742 Q1492.87 685.691 1494.42 684.055 Q1495.99 682.42 1498.37 682.42 Q1501.06 682.42 1502.83 684.026 Q1504.61 685.619 1504.61 688.115 Q1504.61 688.99 1504.34 689.794 Q1504.08 690.583 1503.72 691.2 Q1503.37 691.816 1502.43 692.806 Q1501.48 693.796 1500.72 694.499 Q1499.96 695.202 1498.25 696.694 L1495.14 699.721 L1500.43 699.721 Q1503.02 699.721 1503.22 699.492 Q1503.5 699.076 1503.86 696.881 L1504.61 696.881 L1503.78 701.988 L1492.87 701.988 Z" fill="#000000" fill-rule="nonzero" fill-opacity="1" /><path clip-path="url(#clip800)" d="M994.752 910.804 Q994.752 904.635 996.31 901.274 Q998.482 896.274 1003.61 896.274 Q1004.69 896.274 1005.82 896.581 Q1006.97 896.868 1008.4 897.995 Q1009.86 899.122 1010.74 900.967 Q1012.42 904.533 1012.42 910.804 Q1012.42 916.932 1010.86 920.273 Q1008.59 925.151 1003.56 925.151 Q1001.68 925.151 999.753 924.187 Q997.847 923.224 996.638 920.908 Q994.752 917.445 994.752 910.804 M998.236 910.292 Q998.236 916.625 998.687 919.146 Q999.2 921.871 1000.59 923.06 Q1002.01 924.228 1003.56 924.228 Q1005.25 924.228 1006.64 922.978 Q1008.05 921.707 1008.48 918.982 Q1008.96 916.297 1008.93 910.292 Q1008.93 904.451 1008.52 902.115 Q1007.97 899.389 1006.5 898.303 Q1005.04 897.196 1003.56 897.196 Q1003.01 897.196 1002.42 897.36 Q1001.84 897.524 1001 897.995 Q1000.16 898.467 999.507 899.635 Q998.872 900.803 998.564 902.565 Q998.236 904.84 998.236 910.292 Z" fill="#000000" fill-rule="nonzero" fill-opacity="1" /><path clip-path="url(#clip800)" d="M1016.17 923.552 Q1015.54 922.876 1015.54 921.994 Q1015.54 921.113 1016.17 920.478 Q1016.81 919.822 1017.77 919.822 Q1018.69 919.822 1019.31 920.437 Q1019.94 921.031 1019.94 922.015 Q1019.94 922.978 1019.27 923.613 Q1018.61 924.228 1017.77 924.228 Q1016.81 924.228 1016.17 923.552 Z" fill="#000000" fill-rule="nonzero" fill-opacity="1" /><path clip-path="url(#clip800)" d="M1027.08 924.228 Q1027.08 923.47 1027.15 923.245 Q1027.23 923.019 1027.56 922.671 L1035.61 913.694 Q1040.02 908.734 1040.02 904.41 Q1040.02 901.602 1038.54 899.594 Q1037.09 897.585 1034.4 897.585 Q1032.56 897.585 1031 898.712 Q1029.44 899.84 1028.72 901.848 Q1028.85 901.807 1029.28 901.807 Q1030.32 901.807 1030.9 902.463 Q1031.49 903.119 1031.49 904 Q1031.49 905.127 1030.75 905.681 Q1030.04 906.213 1029.32 906.213 Q1029.03 906.213 1028.64 906.152 Q1028.27 906.091 1027.68 905.517 Q1027.08 904.922 1027.08 903.877 Q1027.08 900.946 1029.3 898.61 Q1031.53 896.274 1034.93 896.274 Q1038.79 896.274 1041.31 898.569 Q1043.85 900.844 1043.85 904.41 Q1043.85 905.66 1043.46 906.808 Q1043.09 907.935 1042.58 908.816 Q1042.09 909.698 1040.73 911.112 Q1039.38 912.526 1038.29 913.53 Q1037.21 914.534 1034.77 916.666 L1030.32 920.99 L1037.88 920.99 Q1041.57 920.99 1041.86 920.662 Q1042.27 920.068 1042.78 916.932 L1043.85 916.932 L1042.66 924.228 L1027.08 924.228 Z" fill="#000000" fill-rule="nonzero" fill-opacity="1" /><path clip-path="url(#clip800)" d="M1082.46 896.028 Q1082.46 896.397 1082.32 896.602 Q1082.2 896.786 1082.05 896.827 Q1081.91 896.847 1081.54 896.868 Q1078.61 897.011 1076.21 898.999 Q1075.62 899.512 1074.12 901.11 Q1072.64 902.709 1070.68 904.84 Q1068.73 906.972 1067.6 908.119 L1073.01 921.072 Q1073.24 921.584 1073.32 921.81 Q1073.42 922.015 1073.63 922.281 Q1073.85 922.548 1074.02 922.63 Q1074.2 922.712 1074.59 922.814 Q1075 922.896 1075.41 922.917 Q1075.84 922.917 1076.62 922.937 Q1076.87 922.937 1076.97 922.958 Q1077.09 922.958 1077.24 923.081 Q1077.38 923.183 1077.38 923.429 Q1077.38 923.798 1077.22 924.003 Q1077.07 924.187 1076.93 924.208 Q1076.81 924.228 1076.58 924.228 Q1076.05 924.228 1074.24 924.167 Q1072.44 924.105 1071.93 924.105 L1066.64 924.228 Q1066 924.228 1066 923.716 Q1066 923.449 1066.05 923.306 Q1066.11 923.142 1066.25 923.081 Q1066.39 922.999 1066.5 922.978 Q1066.6 922.958 1066.84 922.937 Q1067.6 922.855 1068.18 922.63 Q1068.77 922.384 1069.02 922.138 Q1069.28 921.892 1069.28 921.707 L1069.08 921.113 L1064.84 911.091 L1061.04 915.211 L1056.76 919.74 Q1055.63 920.949 1055.63 921.625 Q1055.63 922.753 1057.31 922.937 Q1057.83 922.978 1057.83 923.388 Q1057.83 923.777 1057.66 923.982 Q1057.52 924.167 1057.38 924.208 Q1057.25 924.228 1057.07 924.228 Q1056.31 924.228 1054.71 924.167 Q1053.13 924.105 1052.36 924.105 Q1051.7 924.105 1050.37 924.167 Q1049.04 924.228 1048.42 924.228 Q1048.17 924.228 1048.03 924.105 Q1047.89 923.982 1047.89 923.859 L1047.87 923.757 Q1047.87 923.47 1047.91 923.306 Q1047.97 923.142 1048.13 923.06 Q1048.32 922.978 1048.4 922.978 Q1048.48 922.958 1048.79 922.937 Q1050.53 922.835 1052.01 922.158 Q1053.5 921.482 1054.96 919.904 Q1055.08 919.801 1055.22 919.678 Q1055.39 919.556 1055.51 919.453 L1064.37 909.923 L1059.41 898.2 Q1059.18 897.667 1058.98 897.442 Q1058.77 897.196 1058.13 897.032 Q1057.5 896.868 1056.27 896.868 Q1055.92 896.868 1055.76 896.847 Q1055.59 896.827 1055.45 896.724 Q1055.31 896.622 1055.31 896.397 Q1055.31 896.007 1055.45 895.823 Q1055.61 895.618 1055.74 895.597 Q1055.88 895.556 1056.06 895.556 Q1056.58 895.556 1058.4 895.618 Q1060.23 895.679 1060.76 895.679 Q1061.64 895.679 1063.4 895.618 Q1065.18 895.556 1066.05 895.556 Q1066.68 895.556 1066.68 896.069 Q1066.68 896.397 1066.54 896.581 Q1066.39 896.765 1066.25 896.806 Q1066.11 896.847 1065.84 896.868 Q1065.04 896.95 1064.43 897.216 Q1063.83 897.462 1063.59 897.708 Q1063.36 897.934 1063.36 898.077 L1063.57 898.63 L1067.09 906.972 L1073.9 899.676 Q1074.69 898.774 1074.69 898.159 Q1074.69 897.052 1073.01 896.868 Q1072.5 896.786 1072.5 896.397 Q1072.5 896.007 1072.67 895.823 Q1072.83 895.618 1072.95 895.597 Q1073.1 895.556 1073.3 895.556 Q1074.06 895.556 1075.62 895.618 Q1077.19 895.679 1077.97 895.679 Q1078.63 895.679 1079.96 895.618 Q1081.29 895.556 1081.91 895.556 Q1082.15 895.556 1082.3 895.679 Q1082.44 895.782 1082.44 895.905 L1082.46 896.028 Z" fill="#000000" fill-rule="nonzero" fill-opacity="1" /><path clip-path="url(#clip800)" d="M1086.6 919.083 L1086.6 918.164 Q1090.13 918.164 1091.95 916.285 Q1092.45 916.285 1092.54 916.4 Q1092.62 916.515 1092.62 917.045 L1092.62 933.529 Q1092.62 934.404 1093.05 934.677 Q1093.48 934.95 1095.36 934.95 L1096.3 934.95 L1096.3 935.853 Q1095.26 935.767 1091.53 935.767 Q1087.8 935.767 1086.78 935.853 L1086.78 934.95 L1087.72 934.95 Q1089.57 934.95 1090.01 934.691 Q1090.46 934.419 1090.46 933.529 L1090.46 918.308 Q1088.92 919.083 1086.6 919.083 Z" fill="#000000" fill-rule="nonzero" fill-opacity="1" /><path clip-path="url(#clip800)" d="M1243.81 914.292 Q1243.81 908.123 1245.37 904.762 Q1247.54 899.761 1252.66 899.761 Q1253.75 899.761 1254.87 900.069 Q1256.02 900.356 1257.46 901.483 Q1258.91 902.61 1259.79 904.455 Q1261.47 908.021 1261.47 914.292 Q1261.47 920.42 1259.92 923.761 Q1257.64 928.638 1252.62 928.638 Q1250.73 928.638 1248.81 927.675 Q1246.9 926.712 1245.69 924.396 Q1243.81 920.932 1243.81 914.292 M1247.29 913.78 Q1247.29 920.113 1247.74 922.633 Q1248.25 925.359 1249.65 926.548 Q1251.06 927.716 1252.62 927.716 Q1254.3 927.716 1255.69 926.466 Q1257.11 925.195 1257.54 922.469 Q1258.01 919.785 1257.99 913.78 Q1257.99 907.939 1257.58 905.602 Q1257.03 902.877 1255.55 901.79 Q1254.1 900.684 1252.62 900.684 Q1252.07 900.684 1251.47 900.848 Q1250.9 901.012 1250.06 901.483 Q1249.22 901.954 1248.56 903.122 Q1247.93 904.291 1247.62 906.053 Q1247.29 908.328 1247.29 913.78 Z" fill="#000000" fill-rule="nonzero" fill-opacity="1" /><path clip-path="url(#clip800)" d="M1265.23 927.04 Q1264.59 926.363 1264.59 925.482 Q1264.59 924.601 1265.23 923.966 Q1265.86 923.31 1266.82 923.31 Q1267.75 923.31 1268.36 923.925 Q1269 924.519 1269 925.503 Q1269 926.466 1268.32 927.101 Q1267.66 927.716 1266.82 927.716 Q1265.86 927.716 1265.23 927.04 Z" fill="#000000" fill-rule="nonzero" fill-opacity="1" /><path clip-path="url(#clip800)" d="M1276.14 914.292 Q1276.14 908.123 1277.7 904.762 Q1279.87 899.761 1284.99 899.761 Q1286.08 899.761 1287.21 900.069 Q1288.35 900.356 1289.79 901.483 Q1291.24 902.61 1292.12 904.455 Q1293.81 908.021 1293.81 914.292 Q1293.81 920.42 1292.25 923.761 Q1289.97 928.638 1284.95 928.638 Q1283.07 928.638 1281.14 927.675 Q1279.23 926.712 1278.02 924.396 Q1276.14 920.932 1276.14 914.292 M1279.62 913.78 Q1279.62 920.113 1280.07 922.633 Q1280.59 925.359 1281.98 926.548 Q1283.39 927.716 1284.95 927.716 Q1286.63 927.716 1288.03 926.466 Q1289.44 925.195 1289.87 922.469 Q1290.34 919.785 1290.32 913.78 Q1290.32 907.939 1289.91 905.602 Q1289.36 902.877 1287.88 901.79 Q1286.43 900.684 1284.95 900.684 Q1284.4 900.684 1283.8 900.848 Q1283.23 901.012 1282.39 901.483 Q1281.55 901.954 1280.89 903.122 Q1280.26 904.291 1279.95 906.053 Q1279.62 908.328 1279.62 913.78 Z" fill="#000000" fill-rule="nonzero" fill-opacity="1" /><path clip-path="url(#clip800)" d="M1297.09 914.292 Q1297.09 908.123 1298.65 904.762 Q1300.82 899.761 1305.94 899.761 Q1307.03 899.761 1308.16 900.069 Q1309.3 900.356 1310.74 901.483 Q1312.19 902.61 1313.08 904.455 Q1314.76 908.021 1314.76 914.292 Q1314.76 920.42 1313.2 923.761 Q1310.92 928.638 1305.9 928.638 Q1304.02 928.638 1302.09 927.675 Q1300.18 926.712 1298.98 924.396 Q1297.09 920.932 1297.09 914.292 M1300.57 913.78 Q1300.57 920.113 1301.03 922.633 Q1301.54 925.359 1302.93 926.548 Q1304.35 927.716 1305.9 927.716 Q1307.58 927.716 1308.98 926.466 Q1310.39 925.195 1310.82 922.469 Q1311.29 919.785 1311.27 913.78 Q1311.27 907.939 1310.86 905.602 Q1310.31 902.877 1308.83 901.79 Q1307.38 900.684 1305.9 900.684 Q1305.35 900.684 1304.76 900.848 Q1304.18 901.012 1303.34 901.483 Q1302.5 901.954 1301.84 903.122 Q1301.21 904.291 1300.9 906.053 Q1300.57 908.328 1300.57 913.78 Z" fill="#000000" fill-rule="nonzero" fill-opacity="1" /><path clip-path="url(#clip800)" d="M1318.04 920.953 Q1318.04 919.703 1318.72 919.231 Q1319.39 918.739 1320.11 918.739 Q1321.07 918.739 1321.63 919.354 Q1322.2 919.949 1322.2 920.789 Q1322.2 921.629 1321.63 922.244 Q1321.07 922.838 1320.11 922.838 Q1319.64 922.838 1319.39 922.756 Q1319.95 924.683 1321.63 926.076 Q1323.33 927.47 1325.56 927.47 Q1328.37 927.47 1330.05 924.744 Q1331.06 922.982 1331.06 918.985 Q1331.06 915.46 1330.3 913.698 Q1329.13 911.013 1326.73 911.013 Q1323.33 911.013 1321.32 913.944 Q1321.07 914.313 1320.79 914.333 Q1320.38 914.333 1320.28 914.108 Q1320.19 913.862 1320.19 913.226 L1320.19 900.807 Q1320.19 899.802 1320.6 899.802 Q1320.77 899.802 1321.12 899.925 Q1323.76 901.094 1326.69 901.114 Q1329.7 901.114 1332.41 899.884 Q1332.61 899.761 1332.74 899.761 Q1333.15 899.761 1333.17 900.233 Q1333.17 900.397 1332.82 900.889 Q1332.49 901.36 1331.77 901.995 Q1331.06 902.61 1330.13 903.204 Q1329.21 903.799 1327.86 904.209 Q1326.53 904.598 1325.05 904.598 Q1323.29 904.598 1321.48 904.045 L1321.48 912.222 Q1323.66 910.091 1326.81 910.091 Q1330.17 910.091 1332.49 912.796 Q1334.81 915.501 1334.81 919.272 Q1334.81 923.228 1332.06 925.933 Q1329.33 928.638 1325.64 928.638 Q1322.28 928.638 1320.15 926.24 Q1318.04 923.843 1318.04 920.953 Z" fill="#000000" fill-rule="nonzero" fill-opacity="1" /><path clip-path="url(#clip800)" d="M1373.42 899.515 Q1373.42 899.884 1373.28 900.089 Q1373.15 900.274 1373.01 900.315 Q1372.87 900.335 1372.5 900.356 Q1369.57 900.499 1367.17 902.487 Q1366.57 903 1365.08 904.598 Q1363.6 906.197 1361.63 908.328 Q1359.69 910.46 1358.56 911.607 L1363.97 924.56 Q1364.2 925.072 1364.28 925.298 Q1364.38 925.503 1364.59 925.769 Q1364.81 926.035 1364.98 926.117 Q1365.16 926.199 1365.55 926.302 Q1365.96 926.384 1366.37 926.404 Q1366.8 926.404 1367.58 926.425 Q1367.82 926.425 1367.93 926.445 Q1368.05 926.445 1368.19 926.568 Q1368.34 926.671 1368.34 926.917 Q1368.34 927.286 1368.17 927.491 Q1368.03 927.675 1367.89 927.696 Q1367.76 927.716 1367.54 927.716 Q1367 927.716 1365.2 927.655 Q1363.4 927.593 1362.89 927.593 L1357.6 927.716 Q1356.96 927.716 1356.96 927.204 Q1356.96 926.937 1357 926.794 Q1357.06 926.63 1357.21 926.568 Q1357.35 926.486 1357.45 926.466 Q1357.56 926.445 1357.8 926.425 Q1358.56 926.343 1359.13 926.117 Q1359.73 925.872 1359.97 925.626 Q1360.24 925.38 1360.24 925.195 L1360.04 924.601 L1355.79 914.579 L1352 918.698 L1347.72 923.228 Q1346.59 924.437 1346.59 925.113 Q1346.59 926.24 1348.27 926.425 Q1348.78 926.466 1348.78 926.876 Q1348.78 927.265 1348.62 927.47 Q1348.48 927.655 1348.33 927.696 Q1348.21 927.716 1348.03 927.716 Q1347.27 927.716 1345.67 927.655 Q1344.09 927.593 1343.31 927.593 Q1342.66 927.593 1341.32 927.655 Q1339.99 927.716 1339.38 927.716 Q1339.13 927.716 1338.99 927.593 Q1338.84 927.47 1338.84 927.347 L1338.82 927.245 Q1338.82 926.958 1338.87 926.794 Q1338.93 926.63 1339.09 926.548 Q1339.28 926.466 1339.36 926.466 Q1339.44 926.445 1339.75 926.425 Q1341.49 926.322 1342.96 925.646 Q1344.46 924.97 1345.92 923.392 Q1346.04 923.289 1346.18 923.166 Q1346.35 923.043 1346.47 922.941 L1355.32 913.411 L1350.36 901.688 Q1350.14 901.155 1349.93 900.93 Q1349.73 900.684 1349.09 900.52 Q1348.46 900.356 1347.23 900.356 Q1346.88 900.356 1346.71 900.335 Q1346.55 900.315 1346.41 900.212 Q1346.26 900.11 1346.26 899.884 Q1346.26 899.495 1346.41 899.31 Q1346.57 899.106 1346.69 899.085 Q1346.84 899.044 1347.02 899.044 Q1347.53 899.044 1349.36 899.106 Q1351.18 899.167 1351.72 899.167 Q1352.6 899.167 1354.36 899.106 Q1356.14 899.044 1357 899.044 Q1357.64 899.044 1357.64 899.556 Q1357.64 899.884 1357.5 900.069 Q1357.35 900.253 1357.21 900.294 Q1357.06 900.335 1356.8 900.356 Q1356 900.438 1355.38 900.704 Q1354.79 900.95 1354.54 901.196 Q1354.32 901.421 1354.32 901.565 L1354.52 902.118 L1358.05 910.46 L1364.85 903.163 Q1365.65 902.262 1365.65 901.647 Q1365.65 900.54 1363.97 900.356 Q1363.46 900.274 1363.46 899.884 Q1363.46 899.495 1363.62 899.31 Q1363.79 899.106 1363.91 899.085 Q1364.05 899.044 1364.26 899.044 Q1365.02 899.044 1366.57 899.106 Q1368.15 899.167 1368.93 899.167 Q1369.59 899.167 1370.92 899.106 Q1372.25 899.044 1372.87 899.044 Q1373.11 899.044 1373.26 899.167 Q1373.4 899.269 1373.4 899.392 L1373.42 899.515 Z" fill="#000000" fill-rule="nonzero" fill-opacity="1" /><path clip-path="url(#clip800)" d="M1377.56 939.341 Q1377.56 938.81 1377.6 938.652 Q1377.66 938.495 1377.89 938.251 L1383.52 931.967 Q1386.61 928.495 1386.61 925.468 Q1386.61 923.503 1385.58 922.097 Q1384.56 920.691 1382.68 920.691 Q1381.39 920.691 1380.3 921.48 Q1379.21 922.269 1378.7 923.675 Q1378.79 923.646 1379.09 923.646 Q1379.82 923.646 1380.22 924.105 Q1380.64 924.564 1380.64 925.181 Q1380.64 925.97 1380.12 926.358 Q1379.62 926.731 1379.12 926.731 Q1378.92 926.731 1378.65 926.688 Q1378.39 926.645 1377.97 926.243 Q1377.56 925.827 1377.56 925.095 Q1377.56 923.044 1379.11 921.408 Q1380.67 919.773 1383.05 919.773 Q1385.75 919.773 1387.51 921.38 Q1389.29 922.972 1389.29 925.468 Q1389.29 926.343 1389.02 927.147 Q1388.76 927.936 1388.4 928.553 Q1388.06 929.17 1387.11 930.16 Q1386.16 931.149 1385.4 931.852 Q1384.64 932.555 1382.94 934.047 L1379.82 937.074 L1385.12 937.074 Q1387.7 937.074 1387.9 936.845 Q1388.19 936.429 1388.54 934.234 L1389.29 934.234 L1388.46 939.341 L1377.56 939.341 Z" fill="#000000" fill-rule="nonzero" fill-opacity="1" /><path clip-path="url(#clip800)" d="M1377.56 905.135 Q1377.56 904.604 1377.6 904.446 Q1377.66 904.288 1377.89 904.045 L1383.52 897.761 Q1386.61 894.289 1386.61 891.262 Q1386.61 889.297 1385.58 887.891 Q1384.56 886.485 1382.68 886.485 Q1381.39 886.485 1380.3 887.274 Q1379.21 888.063 1378.7 889.469 Q1378.79 889.44 1379.09 889.44 Q1379.82 889.44 1380.22 889.899 Q1380.64 890.358 1380.64 890.975 Q1380.64 891.764 1380.12 892.151 Q1379.62 892.524 1379.12 892.524 Q1378.92 892.524 1378.65 892.481 Q1378.39 892.438 1377.97 892.037 Q1377.56 891.621 1377.56 890.889 Q1377.56 888.837 1379.11 887.202 Q1380.67 885.567 1383.05 885.567 Q1385.75 885.567 1387.51 887.173 Q1389.29 888.766 1389.29 891.262 Q1389.29 892.137 1389.02 892.941 Q1388.76 893.73 1388.4 894.346 Q1388.06 894.963 1387.11 895.953 Q1386.16 896.943 1385.4 897.646 Q1384.64 898.349 1382.94 899.841 L1379.82 902.868 L1385.12 902.868 Q1387.7 902.868 1387.9 902.639 Q1388.19 902.223 1388.54 900.028 L1389.29 900.028 L1388.46 905.135 L1377.56 905.135 Z" fill="#000000" fill-rule="nonzero" fill-opacity="1" /><path clip-path="url(#clip800)" d="M1121.93 213.988 L1121.93 225.351 L1127.07 225.351 Q1129.93 225.351 1131.49 223.872 Q1133.05 222.394 1133.05 219.659 Q1133.05 216.945 1131.49 215.467 Q1129.93 213.988 1127.07 213.988 L1121.93 213.988 M1117.84 210.626 L1127.07 210.626 Q1132.16 210.626 1134.75 212.935 Q1137.36 215.224 1137.36 219.659 Q1137.36 224.136 1134.75 226.424 Q1132.16 228.713 1127.07 228.713 L1121.93 228.713 L1121.93 240.866 L1117.84 240.866 L1117.84 210.626 Z" fill="#000000" fill-rule="nonzero" fill-opacity="1" /><path clip-path="url(#clip800)" d="M1142.69 209.35 L1146.42 209.35 L1146.42 240.866 L1142.69 240.866 L1142.69 209.35 Z" fill="#000000" fill-rule="nonzero" fill-opacity="1" /><path clip-path="url(#clip800)" d="M1164.53 229.462 Q1160.01 229.462 1158.27 230.495 Q1156.52 231.528 1156.52 234.02 Q1156.52 236.005 1157.82 237.179 Q1159.14 238.334 1161.39 238.334 Q1164.48 238.334 1166.35 236.146 Q1168.23 233.939 1168.23 230.293 L1168.23 229.462 L1164.53 229.462 M1171.96 227.923 L1171.96 240.866 L1168.23 240.866 L1168.23 237.423 Q1166.96 239.488 1165.05 240.481 Q1163.15 241.453 1160.39 241.453 Q1156.91 241.453 1154.84 239.509 Q1152.8 237.544 1152.8 234.263 Q1152.8 230.435 1155.35 228.49 Q1157.92 226.546 1163.01 226.546 L1168.23 226.546 L1168.23 226.181 Q1168.23 223.609 1166.53 222.211 Q1164.85 220.794 1161.79 220.794 Q1159.85 220.794 1158 221.259 Q1156.16 221.725 1154.46 222.657 L1154.46 219.214 Q1156.5 218.424 1158.43 218.039 Q1160.35 217.634 1162.18 217.634 Q1167.1 217.634 1169.53 220.186 Q1171.96 222.738 1171.96 227.923 Z" fill="#000000" fill-rule="nonzero" fill-opacity="1" /><path clip-path="url(#clip800)" d="M1198.49 227.174 L1198.49 240.866 L1194.77 240.866 L1194.77 227.295 Q1194.77 224.075 1193.51 222.475 Q1192.25 220.875 1189.74 220.875 Q1186.72 220.875 1184.98 222.799 Q1183.24 224.723 1183.24 228.045 L1183.24 240.866 L1179.49 240.866 L1179.49 218.181 L1183.24 218.181 L1183.24 221.705 Q1184.58 219.659 1186.38 218.647 Q1188.2 217.634 1190.57 217.634 Q1194.48 217.634 1196.49 220.064 Q1198.49 222.475 1198.49 227.174 Z" fill="#000000" fill-rule="nonzero" fill-opacity="1" /><path clip-path="url(#clip800)" d="M1209.61 211.74 L1209.61 218.181 L1217.29 218.181 L1217.29 221.077 L1209.61 221.077 L1209.61 233.392 Q1209.61 236.167 1210.36 236.957 Q1211.13 237.747 1213.46 237.747 L1217.29 237.747 L1217.29 240.866 L1213.46 240.866 Q1209.15 240.866 1207.51 239.266 Q1205.86 237.645 1205.86 233.392 L1205.86 221.077 L1203.13 221.077 L1203.13 218.181 L1205.86 218.181 L1205.86 211.74 L1209.61 211.74 Z" fill="#000000" fill-rule="nonzero" fill-opacity="1" /><path clip-path="url(#clip800)" d="M338.009 656.88 L342.101 656.88 L342.101 683.677 L356.826 683.677 L356.826 687.12 L338.009 687.12 L338.009 656.88 Z" fill="#000000" fill-rule="nonzero" fill-opacity="1" /><path clip-path="url(#clip800)" d="M371.267 675.717 Q366.751 675.717 365.009 676.75 Q363.267 677.783 363.267 680.274 Q363.267 682.259 364.563 683.434 Q365.88 684.588 368.128 684.588 Q371.227 684.588 373.09 682.401 Q374.974 680.193 374.974 676.547 L374.974 675.717 L371.267 675.717 M378.701 674.177 L378.701 687.12 L374.974 687.12 L374.974 683.677 Q373.698 685.743 371.794 686.735 Q369.89 687.707 367.135 687.707 Q363.652 687.707 361.586 685.763 Q359.54 683.798 359.54 680.517 Q359.54 676.689 362.092 674.744 Q364.664 672.8 369.748 672.8 L374.974 672.8 L374.974 672.435 Q374.974 669.863 373.273 668.466 Q371.591 667.048 368.533 667.048 Q366.589 667.048 364.745 667.514 Q362.902 667.979 361.201 668.911 L361.201 665.468 Q363.247 664.678 365.171 664.293 Q367.095 663.888 368.918 663.888 Q373.84 663.888 376.27 666.44 Q378.701 668.992 378.701 674.177 Z" fill="#000000" fill-rule="nonzero" fill-opacity="1" /><path clip-path="url(#clip800)" d="M405.234 673.428 L405.234 687.12 L401.507 687.12 L401.507 673.549 Q401.507 670.329 400.252 668.729 Q398.996 667.129 396.484 667.129 Q393.466 667.129 391.724 669.053 Q389.983 670.977 389.983 674.299 L389.983 687.12 L386.235 687.12 L386.235 664.435 L389.983 664.435 L389.983 667.959 Q391.319 665.914 393.122 664.901 Q394.945 663.888 397.315 663.888 Q401.224 663.888 403.229 666.319 Q405.234 668.729 405.234 673.428 Z" fill="#000000" fill-rule="nonzero" fill-opacity="1" /><path clip-path="url(#clip800)" d="M427.595 667.878 L427.595 655.604 L431.322 655.604 L431.322 687.12 L427.595 687.12 L427.595 683.717 Q426.42 685.743 424.618 686.735 Q422.835 687.707 420.324 687.707 Q416.212 687.707 413.62 684.426 Q411.047 681.145 411.047 675.798 Q411.047 670.451 413.62 667.169 Q416.212 663.888 420.324 663.888 Q422.835 663.888 424.618 664.881 Q426.42 665.853 427.595 667.878 M414.896 675.798 Q414.896 679.909 416.577 682.259 Q418.278 684.588 421.235 684.588 Q424.192 684.588 425.894 682.259 Q427.595 679.909 427.595 675.798 Q427.595 671.686 425.894 669.357 Q424.192 667.007 421.235 667.007 Q418.278 667.007 416.577 669.357 Q414.896 671.686 414.896 675.798 Z" fill="#000000" fill-rule="nonzero" fill-opacity="1" /><path clip-path="url(#clip800)" d="M448.154 656.88 L473.735 656.88 L473.735 660.323 L463 660.323 L463 687.12 L458.888 687.12 L458.888 660.323 L448.154 660.323 L448.154 656.88 Z" fill="#000000" fill-rule="nonzero" fill-opacity="1" /><path clip-path="url(#clip800)" d="M484.571 667.919 Q483.943 667.554 483.194 667.392 Q482.465 667.21 481.574 667.21 Q478.414 667.21 476.712 669.276 Q475.031 671.321 475.031 675.17 L475.031 687.12 L471.284 687.12 L471.284 664.435 L475.031 664.435 L475.031 667.959 Q476.206 665.893 478.09 664.901 Q479.973 663.888 482.667 663.888 Q483.052 663.888 483.518 663.949 Q483.984 663.989 484.551 664.091 L484.571 667.919 Z" fill="#000000" fill-rule="nonzero" fill-opacity="1" /><path clip-path="url(#clip800)" d="M506.973 674.846 L506.973 676.669 L489.837 676.669 Q490.08 680.517 492.146 682.542 Q494.233 684.548 497.939 684.548 Q500.086 684.548 502.091 684.021 Q504.117 683.494 506.102 682.441 L506.102 685.965 Q504.097 686.816 501.99 687.262 Q499.884 687.707 497.716 687.707 Q492.288 687.707 489.108 684.548 Q485.948 681.388 485.948 676 Q485.948 670.43 488.946 667.169 Q491.964 663.888 497.068 663.888 Q501.646 663.888 504.299 666.845 Q506.973 669.782 506.973 674.846 M503.246 673.752 Q503.205 670.694 501.524 668.871 Q499.863 667.048 497.109 667.048 Q493.99 667.048 492.106 668.81 Q490.242 670.572 489.959 673.772 L503.246 673.752 Z" fill="#000000" fill-rule="nonzero" fill-opacity="1" /><path clip-path="url(#clip800)" d="M523.399 675.717 Q518.882 675.717 517.14 676.75 Q515.399 677.783 515.399 680.274 Q515.399 682.259 516.695 683.434 Q518.011 684.588 520.26 684.588 Q523.359 684.588 525.222 682.401 Q527.106 680.193 527.106 676.547 L527.106 675.717 L523.399 675.717 M530.833 674.177 L530.833 687.12 L527.106 687.12 L527.106 683.677 Q525.83 685.743 523.926 686.735 Q522.022 687.707 519.267 687.707 Q515.783 687.707 513.717 685.763 Q511.672 683.798 511.672 680.517 Q511.672 676.689 514.224 674.744 Q516.796 672.8 521.88 672.8 L527.106 672.8 L527.106 672.435 Q527.106 669.863 525.404 668.466 Q523.723 667.048 520.665 667.048 Q518.72 667.048 516.877 667.514 Q515.034 667.979 513.333 668.911 L513.333 665.468 Q515.378 664.678 517.302 664.293 Q519.227 663.888 521.05 663.888 Q525.971 663.888 528.402 666.44 Q530.833 668.992 530.833 674.177 Z" fill="#000000" fill-rule="nonzero" fill-opacity="1" /><path clip-path="url(#clip800)" d="M542.195 657.994 L542.195 664.435 L549.872 664.435 L549.872 667.331 L542.195 667.331 L542.195 679.646 Q542.195 682.421 542.945 683.211 Q543.714 684.001 546.044 684.001 L549.872 684.001 L549.872 687.12 L546.044 687.12 Q541.729 687.12 540.089 685.52 Q538.448 683.9 538.448 679.646 L538.448 667.331 L535.714 667.331 L535.714 664.435 L538.448 664.435 L538.448 657.994 L542.195 657.994 Z" fill="#000000" fill-rule="nonzero" fill-opacity="1" /><path clip-path="url(#clip800)" d="M572.435 668.79 Q573.833 666.278 575.777 665.083 Q577.722 663.888 580.355 663.888 Q583.899 663.888 585.824 666.379 Q587.748 668.85 587.748 673.428 L587.748 687.12 L584.001 687.12 L584.001 673.549 Q584.001 670.288 582.846 668.709 Q581.692 667.129 579.322 667.129 Q576.425 667.129 574.744 669.053 Q573.063 670.977 573.063 674.299 L573.063 687.12 L569.316 687.12 L569.316 673.549 Q569.316 670.268 568.162 668.709 Q567.007 667.129 564.597 667.129 Q561.741 667.129 560.06 669.073 Q558.379 670.997 558.379 674.299 L558.379 687.12 L554.632 687.12 L554.632 664.435 L558.379 664.435 L558.379 667.959 Q559.655 665.873 561.437 664.881 Q563.219 663.888 565.67 663.888 Q568.141 663.888 569.863 665.144 Q571.605 666.4 572.435 668.79 Z" fill="#000000" fill-rule="nonzero" fill-opacity="1" /><path clip-path="url(#clip800)" d="M614.585 674.846 L614.585 676.669 L597.45 676.669 Q597.693 680.517 599.759 682.542 Q601.845 684.548 605.551 684.548 Q607.698 684.548 609.704 684.021 Q611.729 683.494 613.714 682.441 L613.714 685.965 Q611.709 686.816 609.602 687.262 Q607.496 687.707 605.329 687.707 Q599.9 687.707 596.72 684.548 Q593.561 681.388 593.561 676 Q593.561 670.43 596.558 667.169 Q599.576 663.888 604.68 663.888 Q609.258 663.888 611.911 666.845 Q614.585 669.782 614.585 674.846 M610.858 673.752 Q610.818 670.694 609.136 668.871 Q607.476 667.048 604.721 667.048 Q601.602 667.048 599.718 668.81 Q597.855 670.572 597.571 673.772 L610.858 673.752 Z" fill="#000000" fill-rule="nonzero" fill-opacity="1" /><path clip-path="url(#clip800)" d="M639.559 673.428 L639.559 687.12 L635.832 687.12 L635.832 673.549 Q635.832 670.329 634.576 668.729 Q633.32 667.129 630.809 667.129 Q627.791 667.129 626.049 669.053 Q624.307 670.977 624.307 674.299 L624.307 687.12 L620.56 687.12 L620.56 664.435 L624.307 664.435 L624.307 667.959 Q625.644 665.914 627.447 664.901 Q629.269 663.888 631.639 663.888 Q635.548 663.888 637.554 666.319 Q639.559 668.729 639.559 673.428 Z" fill="#000000" fill-rule="nonzero" fill-opacity="1" /><path clip-path="url(#clip800)" d="M650.679 657.994 L650.679 664.435 L658.355 664.435 L658.355 667.331 L650.679 667.331 L650.679 679.646 Q650.679 682.421 651.428 683.211 Q652.198 684.001 654.527 684.001 L658.355 684.001 L658.355 687.12 L654.527 687.12 Q650.213 687.12 648.572 685.52 Q646.931 683.9 646.931 679.646 L646.931 667.331 L644.197 667.331 L644.197 664.435 L646.931 664.435 L646.931 657.994 L650.679 657.994 Z" fill="#000000" fill-rule="nonzero" fill-opacity="1" /><path clip-path="url(#clip800)" d="M909.327 659.209 L909.327 663.523 Q907.261 661.599 904.911 660.647 Q902.582 659.695 899.949 659.695 Q894.764 659.695 892.009 662.875 Q889.255 666.035 889.255 672.03 Q889.255 678.005 892.009 681.185 Q894.764 684.345 899.949 684.345 Q902.582 684.345 904.911 683.393 Q907.261 682.441 909.327 680.517 L909.327 684.791 Q907.18 686.249 904.77 686.978 Q902.38 687.707 899.706 687.707 Q892.84 687.707 888.89 683.515 Q884.94 679.302 884.94 672.03 Q884.94 664.739 888.89 660.546 Q892.84 656.333 899.706 656.333 Q902.42 656.333 904.81 657.062 Q907.22 657.771 909.327 659.209 Z" fill="#000000" fill-rule="nonzero" fill-opacity="1" /><path clip-path="url(#clip800)" d="M934.341 673.428 L934.341 687.12 L930.614 687.12 L930.614 673.549 Q930.614 670.329 929.359 668.729 Q928.103 667.129 925.591 667.129 Q922.573 667.129 920.831 669.053 Q919.09 670.977 919.09 674.299 L919.09 687.12 L915.342 687.12 L915.342 655.604 L919.09 655.604 L919.09 667.959 Q920.426 665.914 922.229 664.901 Q924.052 663.888 926.422 663.888 Q930.331 663.888 932.336 666.319 Q934.341 668.729 934.341 673.428 Z" fill="#000000" fill-rule="nonzero" fill-opacity="1" /><path clip-path="url(#clip800)" d="M961.178 674.846 L961.178 676.669 L944.043 676.669 Q944.286 680.517 946.352 682.542 Q948.438 684.548 952.145 684.548 Q954.292 684.548 956.297 684.021 Q958.323 683.494 960.308 682.441 L960.308 685.965 Q958.302 686.816 956.196 687.262 Q954.089 687.707 951.922 687.707 Q946.494 687.707 943.314 684.548 Q940.154 681.388 940.154 676 Q940.154 670.43 943.152 667.169 Q946.17 663.888 951.274 663.888 Q955.852 663.888 958.505 666.845 Q961.178 669.782 961.178 674.846 M957.452 673.752 Q957.411 670.694 955.73 668.871 Q954.069 667.048 951.315 667.048 Q948.195 667.048 946.312 668.81 Q944.448 670.572 944.165 673.772 L957.452 673.752 Z" fill="#000000" fill-rule="nonzero" fill-opacity="1" /><path clip-path="url(#clip800)" d="M984.957 668.79 Q986.355 666.278 988.299 665.083 Q990.244 663.888 992.877 663.888 Q996.421 663.888 998.346 666.379 Q1000.27 668.85 1000.27 673.428 L1000.27 687.12 L996.523 687.12 L996.523 673.549 Q996.523 670.288 995.368 668.709 Q994.214 667.129 991.844 667.129 Q988.947 667.129 987.266 669.053 Q985.585 670.977 985.585 674.299 L985.585 687.12 L981.838 687.12 L981.838 673.549 Q981.838 670.268 980.684 668.709 Q979.529 667.129 977.119 667.129 Q974.263 667.129 972.582 669.073 Q970.901 670.997 970.901 674.299 L970.901 687.12 L967.154 687.12 L967.154 664.435 L970.901 664.435 L970.901 667.959 Q972.177 665.873 973.959 664.881 Q975.741 663.888 978.192 663.888 Q980.663 663.888 982.385 665.144 Q984.127 666.4 984.957 668.79 Z" fill="#000000" fill-rule="nonzero" fill-opacity="1" /><path clip-path="url(#clip800)" d="M1016.86 656.88 L1042.44 656.88 L1042.44 660.323 L1031.7 660.323 L1031.7 687.12 L1027.59 687.12 L1027.59 660.323 L1016.86 660.323 L1016.86 656.88 Z" fill="#000000" fill-rule="nonzero" fill-opacity="1" /><path clip-path="url(#clip800)" d="M1053.28 667.919 Q1052.65 667.554 1051.9 667.392 Q1051.17 667.21 1050.28 667.21 Q1047.12 667.21 1045.42 669.276 Q1043.74 671.321 1043.74 675.17 L1043.74 687.12 L1039.99 687.12 L1039.99 664.435 L1043.74 664.435 L1043.74 667.959 Q1044.91 665.893 1046.79 664.901 Q1048.68 663.888 1051.37 663.888 Q1051.76 663.888 1052.22 663.949 Q1052.69 663.989 1053.26 664.091 L1053.28 667.919 Z" fill="#000000" fill-rule="nonzero" fill-opacity="1" /><path clip-path="url(#clip800)" d="M1075.68 674.846 L1075.68 676.669 L1058.54 676.669 Q1058.78 680.517 1060.85 682.542 Q1062.94 684.548 1066.64 684.548 Q1068.79 684.548 1070.8 684.021 Q1072.82 683.494 1074.81 682.441 L1074.81 685.965 Q1072.8 686.816 1070.69 687.262 Q1068.59 687.707 1066.42 687.707 Q1060.99 687.707 1057.81 684.548 Q1054.65 681.388 1054.65 676 Q1054.65 670.43 1057.65 667.169 Q1060.67 663.888 1065.77 663.888 Q1070.35 663.888 1073 666.845 Q1075.68 669.782 1075.68 674.846 M1071.95 673.752 Q1071.91 670.694 1070.23 668.871 Q1068.57 667.048 1065.81 667.048 Q1062.69 667.048 1060.81 668.81 Q1058.95 670.572 1058.66 673.772 L1071.95 673.752 Z" fill="#000000" fill-rule="nonzero" fill-opacity="1" /><path clip-path="url(#clip800)" d="M1092.1 675.717 Q1087.59 675.717 1085.85 676.75 Q1084.1 677.783 1084.1 680.274 Q1084.1 682.259 1085.4 683.434 Q1086.72 684.588 1088.96 684.588 Q1092.06 684.588 1093.93 682.401 Q1095.81 680.193 1095.81 676.547 L1095.81 675.717 L1092.1 675.717 M1099.54 674.177 L1099.54 687.12 L1095.81 687.12 L1095.81 683.677 Q1094.53 685.743 1092.63 686.735 Q1090.73 687.707 1087.97 687.707 Q1084.49 687.707 1082.42 685.763 Q1080.38 683.798 1080.38 680.517 Q1080.38 676.689 1082.93 674.744 Q1085.5 672.8 1090.58 672.8 L1095.81 672.8 L1095.81 672.435 Q1095.81 669.863 1094.11 668.466 Q1092.43 667.048 1089.37 667.048 Q1087.42 667.048 1085.58 667.514 Q1083.74 667.979 1082.04 668.911 L1082.04 665.468 Q1084.08 664.678 1086.01 664.293 Q1087.93 663.888 1089.75 663.888 Q1094.68 663.888 1097.11 666.44 Q1099.54 668.992 1099.54 674.177 Z" fill="#000000" fill-rule="nonzero" fill-opacity="1" /><path clip-path="url(#clip800)" d="M1110.9 657.994 L1110.9 664.435 L1118.58 664.435 L1118.58 667.331 L1110.9 667.331 L1110.9 679.646 Q1110.9 682.421 1111.65 683.211 Q1112.42 684.001 1114.75 684.001 L1118.58 684.001 L1118.58 687.12 L1114.75 687.12 Q1110.43 687.12 1108.79 685.52 Q1107.15 683.9 1107.15 679.646 L1107.15 667.331 L1104.42 667.331 L1104.42 664.435 L1107.15 664.435 L1107.15 657.994 L1110.9 657.994 Z" fill="#000000" fill-rule="nonzero" fill-opacity="1" /><path clip-path="url(#clip800)" d="M1141.14 668.79 Q1142.54 666.278 1144.48 665.083 Q1146.43 663.888 1149.06 663.888 Q1152.6 663.888 1154.53 666.379 Q1156.45 668.85 1156.45 673.428 L1156.45 687.12 L1152.71 687.12 L1152.71 673.549 Q1152.71 670.288 1151.55 668.709 Q1150.4 667.129 1148.03 667.129 Q1145.13 667.129 1143.45 669.053 Q1141.77 670.977 1141.77 674.299 L1141.77 687.12 L1138.02 687.12 L1138.02 673.549 Q1138.02 670.268 1136.87 668.709 Q1135.71 667.129 1133.3 667.129 Q1130.45 667.129 1128.76 669.073 Q1127.08 670.997 1127.08 674.299 L1127.08 687.12 L1123.34 687.12 L1123.34 664.435 L1127.08 664.435 L1127.08 667.959 Q1128.36 665.873 1130.14 664.881 Q1131.92 663.888 1134.37 663.888 Q1136.85 663.888 1138.57 665.144 Q1140.31 666.4 1141.14 668.79 Z" fill="#000000" fill-rule="nonzero" fill-opacity="1" /><path clip-path="url(#clip800)" d="M1183.29 674.846 L1183.29 676.669 L1166.15 676.669 Q1166.4 680.517 1168.46 682.542 Q1170.55 684.548 1174.26 684.548 Q1176.4 684.548 1178.41 684.021 Q1180.43 683.494 1182.42 682.441 L1182.42 685.965 Q1180.41 686.816 1178.31 687.262 Q1176.2 687.707 1174.03 687.707 Q1168.61 687.707 1165.43 684.548 Q1162.27 681.388 1162.27 676 Q1162.27 670.43 1165.26 667.169 Q1168.28 663.888 1173.39 663.888 Q1177.96 663.888 1180.62 666.845 Q1183.29 669.782 1183.29 674.846 M1179.56 673.752 Q1179.52 670.694 1177.84 668.871 Q1176.18 667.048 1173.43 667.048 Q1170.31 667.048 1168.42 668.81 Q1166.56 670.572 1166.28 673.772 L1179.56 673.752 Z" fill="#000000" fill-rule="nonzero" fill-opacity="1" /><path clip-path="url(#clip800)" d="M1208.26 673.428 L1208.26 687.12 L1204.54 687.12 L1204.54 673.549 Q1204.54 670.329 1203.28 668.729 Q1202.02 667.129 1199.51 667.129 Q1196.5 667.129 1194.75 669.053 Q1193.01 670.977 1193.01 674.299 L1193.01 687.12 L1189.26 687.12 L1189.26 664.435 L1193.01 664.435 L1193.01 667.959 Q1194.35 665.914 1196.15 664.901 Q1197.97 663.888 1200.34 663.888 Q1204.25 663.888 1206.26 666.319 Q1208.26 668.729 1208.26 673.428 Z" fill="#000000" fill-rule="nonzero" fill-opacity="1" /><path clip-path="url(#clip800)" d="M1219.38 657.994 L1219.38 664.435 L1227.06 664.435 L1227.06 667.331 L1219.38 667.331 L1219.38 679.646 Q1219.38 682.421 1220.13 683.211 Q1220.9 684.001 1223.23 684.001 L1227.06 684.001 L1227.06 687.12 L1223.23 687.12 Q1218.92 687.12 1217.28 685.52 Q1215.64 683.9 1215.64 679.646 L1215.64 667.331 L1212.9 667.331 L1212.9 664.435 L1215.64 664.435 L1215.64 657.994 L1219.38 657.994 Z" fill="#000000" fill-rule="nonzero" fill-opacity="1" /><path clip-path="url(#clip800)" d="M1476.68 1106.5 L1476.68 1117.86 L1481.83 1117.86 Q1484.69 1117.86 1486.24 1116.38 Q1487.8 1114.9 1487.8 1112.17 Q1487.8 1109.45 1486.24 1107.98 Q1484.69 1106.5 1481.83 1106.5 L1476.68 1106.5 M1472.59 1103.13 L1481.83 1103.13 Q1486.91 1103.13 1489.51 1105.44 Q1492.12 1107.73 1492.12 1112.17 Q1492.12 1116.64 1489.51 1118.93 Q1486.91 1121.22 1481.83 1121.22 L1476.68 1121.22 L1476.68 1133.37 L1472.59 1133.37 L1472.59 1103.13 Z" fill="#000000" fill-rule="nonzero" fill-opacity="1" /><path clip-path="url(#clip800)" d="M1509.86 1114.17 Q1509.23 1113.81 1508.48 1113.65 Q1507.75 1113.46 1506.86 1113.46 Q1503.7 1113.46 1502 1115.53 Q1500.32 1117.58 1500.32 1121.42 L1500.32 1133.37 L1496.57 1133.37 L1496.57 1110.69 L1500.32 1110.69 L1500.32 1114.21 Q1501.5 1112.15 1503.38 1111.16 Q1505.26 1110.14 1507.96 1110.14 Q1508.34 1110.14 1508.81 1110.2 Q1509.27 1110.24 1509.84 1110.34 L1509.86 1114.17 Z" fill="#000000" fill-rule="nonzero" fill-opacity="1" /><path clip-path="url(#clip800)" d="M1513.77 1110.69 L1517.5 1110.69 L1517.5 1133.37 L1513.77 1133.37 L1513.77 1110.69 M1513.77 1101.86 L1517.5 1101.86 L1517.5 1106.58 L1513.77 1106.58 L1513.77 1101.86 Z" fill="#000000" fill-rule="nonzero" fill-opacity="1" /><path clip-path="url(#clip800)" d="M1539.76 1111.36 L1539.76 1114.88 Q1538.18 1114.07 1536.48 1113.67 Q1534.77 1113.26 1532.95 1113.26 Q1530.18 1113.26 1528.78 1114.11 Q1527.4 1114.96 1527.4 1116.66 Q1527.4 1117.96 1528.39 1118.71 Q1529.39 1119.44 1532.38 1120.11 L1533.66 1120.39 Q1537.63 1121.24 1539.29 1122.8 Q1540.97 1124.34 1540.97 1127.12 Q1540.97 1130.28 1538.46 1132.12 Q1535.97 1133.96 1531.59 1133.96 Q1529.77 1133.96 1527.79 1133.6 Q1525.82 1133.25 1523.63 1132.54 L1523.63 1128.7 Q1525.7 1129.77 1527.71 1130.32 Q1529.71 1130.84 1531.68 1130.84 Q1534.31 1130.84 1535.73 1129.95 Q1537.14 1129.04 1537.14 1127.4 Q1537.14 1125.88 1536.11 1125.07 Q1535.1 1124.26 1531.64 1123.51 L1530.34 1123.21 Q1526.88 1122.48 1525.34 1120.98 Q1523.8 1119.46 1523.8 1116.83 Q1523.8 1113.63 1526.07 1111.88 Q1528.33 1110.14 1532.51 1110.14 Q1534.57 1110.14 1536.39 1110.45 Q1538.22 1110.75 1539.76 1111.36 Z" fill="#000000" fill-rule="nonzero" fill-opacity="1" /><path clip-path="url(#clip800)" d="M1550.59 1104.25 L1550.59 1110.69 L1558.27 1110.69 L1558.27 1113.59 L1550.59 1113.59 L1550.59 1125.9 Q1550.59 1128.68 1551.34 1129.47 Q1552.11 1130.26 1554.44 1130.26 L1558.27 1130.26 L1558.27 1133.37 L1554.44 1133.37 Q1550.13 1133.37 1548.49 1131.77 Q1546.85 1130.15 1546.85 1125.9 L1546.85 1113.59 L1544.11 1113.59 L1544.11 1110.69 L1546.85 1110.69 L1546.85 1104.25 L1550.59 1104.25 Z" fill="#000000" fill-rule="nonzero" fill-opacity="1" /><path clip-path="url(#clip800)" d="M1563.17 1110.69 L1566.9 1110.69 L1566.9 1133.37 L1563.17 1133.37 L1563.17 1110.69 M1563.17 1101.86 L1566.9 1101.86 L1566.9 1106.58 L1563.17 1106.58 L1563.17 1101.86 Z" fill="#000000" fill-rule="nonzero" fill-opacity="1" /><path clip-path="url(#clip800)" d="M1593.55 1119.68 L1593.55 1133.37 L1589.83 1133.37 L1589.83 1119.8 Q1589.83 1116.58 1588.57 1114.98 Q1587.31 1113.38 1584.8 1113.38 Q1581.79 1113.38 1580.04 1115.31 Q1578.3 1117.23 1578.3 1120.55 L1578.3 1133.37 L1574.55 1133.37 L1574.55 1110.69 L1578.3 1110.69 L1578.3 1114.21 Q1579.64 1112.17 1581.44 1111.16 Q1583.26 1110.14 1585.63 1110.14 Q1589.54 1110.14 1591.55 1112.57 Q1593.55 1114.98 1593.55 1119.68 Z" fill="#000000" fill-rule="nonzero" fill-opacity="1" /><path clip-path="url(#clip800)" d="M1620.39 1121.1 L1620.39 1122.92 L1603.26 1122.92 Q1603.5 1126.77 1605.56 1128.8 Q1607.65 1130.8 1611.36 1130.8 Q1613.5 1130.8 1615.51 1130.28 Q1617.53 1129.75 1619.52 1128.7 L1619.52 1132.22 Q1617.51 1133.07 1615.41 1133.52 Q1613.3 1133.96 1611.13 1133.96 Q1605.71 1133.96 1602.53 1130.8 Q1599.37 1127.64 1599.37 1122.25 Q1599.37 1116.68 1602.36 1113.42 Q1605.38 1110.14 1610.49 1110.14 Q1615.06 1110.14 1617.72 1113.1 Q1620.39 1116.04 1620.39 1121.1 M1616.66 1120.01 Q1616.62 1116.95 1614.94 1115.12 Q1613.28 1113.3 1610.53 1113.3 Q1607.41 1113.3 1605.52 1115.06 Q1603.66 1116.83 1603.38 1120.03 L1616.66 1120.01 Z" fill="#000000" fill-rule="nonzero" fill-opacity="1" /><path clip-path="url(#clip800)" d="M1643.95 1118.93 L1643.95 1130.01 L1650.51 1130.01 Q1653.81 1130.01 1655.39 1128.65 Q1656.99 1127.28 1656.99 1124.46 Q1656.99 1121.63 1655.39 1120.29 Q1653.81 1118.93 1650.51 1118.93 L1643.95 1118.93 M1643.95 1106.5 L1643.95 1115.61 L1650 1115.61 Q1653 1115.61 1654.46 1114.5 Q1655.94 1113.36 1655.94 1111.05 Q1655.94 1108.76 1654.46 1107.63 Q1653 1106.5 1650 1106.5 L1643.95 1106.5 M1639.85 1103.13 L1650.31 1103.13 Q1654.99 1103.13 1657.52 1105.08 Q1660.05 1107.02 1660.05 1110.61 Q1660.05 1113.38 1658.75 1115.02 Q1657.46 1116.66 1654.94 1117.07 Q1657.96 1117.72 1659.62 1119.78 Q1661.3 1121.83 1661.3 1124.91 Q1661.3 1128.96 1658.55 1131.17 Q1655.8 1133.37 1650.71 1133.37 L1639.85 1133.37 L1639.85 1103.13 Z" fill="#000000" fill-rule="nonzero" fill-opacity="1" /><path clip-path="url(#clip800)" d="M1681.3 1114.17 Q1680.67 1113.81 1679.92 1113.65 Q1679.19 1113.46 1678.3 1113.46 Q1675.14 1113.46 1673.44 1115.53 Q1671.76 1117.58 1671.76 1121.42 L1671.76 1133.37 L1668.01 1133.37 L1668.01 1110.69 L1671.76 1110.69 L1671.76 1114.21 Q1672.93 1112.15 1674.81 1111.16 Q1676.7 1110.14 1679.39 1110.14 Q1679.78 1110.14 1680.24 1110.2 Q1680.71 1110.24 1681.28 1110.34 L1681.3 1114.17 Z" fill="#000000" fill-rule="nonzero" fill-opacity="1" /><path clip-path="url(#clip800)" d="M1693.08 1113.3 Q1690.09 1113.3 1688.34 1115.65 Q1686.6 1117.98 1686.6 1122.05 Q1686.6 1126.12 1688.32 1128.47 Q1690.07 1130.8 1693.08 1130.8 Q1696.06 1130.8 1697.8 1128.45 Q1699.55 1126.1 1699.55 1122.05 Q1699.55 1118.02 1697.8 1115.67 Q1696.06 1113.3 1693.08 1113.3 M1693.08 1110.14 Q1697.94 1110.14 1700.72 1113.3 Q1703.49 1116.46 1703.49 1122.05 Q1703.49 1127.62 1700.72 1130.8 Q1697.94 1133.96 1693.08 1133.96 Q1688.2 1133.96 1685.43 1130.8 Q1682.67 1127.62 1682.67 1122.05 Q1682.67 1116.46 1685.43 1113.3 Q1688.2 1110.14 1693.08 1110.14 Z" fill="#000000" fill-rule="nonzero" fill-opacity="1" /><path clip-path="url(#clip800)" d="M1718.46 1113.3 Q1715.47 1113.3 1713.72 1115.65 Q1711.98 1117.98 1711.98 1122.05 Q1711.98 1126.12 1713.7 1128.47 Q1715.44 1130.8 1718.46 1130.8 Q1721.44 1130.8 1723.18 1128.45 Q1724.92 1126.1 1724.92 1122.05 Q1724.92 1118.02 1723.18 1115.67 Q1721.44 1113.3 1718.46 1113.3 M1718.46 1110.14 Q1723.32 1110.14 1726.1 1113.3 Q1728.87 1116.46 1728.87 1122.05 Q1728.87 1127.62 1726.1 1130.8 Q1723.32 1133.96 1718.46 1133.96 Q1713.58 1133.96 1710.81 1130.8 Q1708.05 1127.62 1708.05 1122.05 Q1708.05 1116.46 1710.81 1113.3 Q1713.58 1110.14 1718.46 1110.14 Z" fill="#000000" fill-rule="nonzero" fill-opacity="1" /><path clip-path="url(#clip800)" d="M1734.91 1101.86 L1738.66 1101.86 L1738.66 1120.47 L1749.78 1110.69 L1754.54 1110.69 L1742.5 1121.3 L1755.04 1133.37 L1750.18 1133.37 L1738.66 1122.29 L1738.66 1133.37 L1734.91 1133.37 L1734.91 1101.86 Z" fill="#000000" fill-rule="nonzero" fill-opacity="1" /></svg>
