<?xml version="1.0" encoding="UTF-8"?>
<svg id="Layer_1" data-name="Layer 1" xmlns="http://www.w3.org/2000/svg" xmlns:xlink="http://www.w3.org/1999/xlink" viewBox="0 0 767.98 407.77">
  <defs>
    <style>
      .cls-1, .cls-2, .cls-3, .cls-4, .cls-5, .cls-6 {
        fill: none;
      }

      .cls-7, .cls-8 {
        fill: #006838;
      }

      .cls-9, .cls-10 {
        fill: #be1e2d;
      }

      .cls-11 {
        fill: #cb2026;
      }

      .cls-12 {
        fill: #176535;
      }

      .cls-13 {
        fill: #35459c;
      }

      .cls-14 {
        fill: #2e3192;
      }

      .cls-2 {
        stroke: #231f20;
      }

      .cls-2, .cls-3, .cls-4, .cls-5 {
        stroke-width: 5px;
      }

      .cls-2, .cls-3, .cls-4, .cls-5, .cls-8, .cls-10, .cls-6 {
        stroke-miterlimit: 10;
      }

      .cls-3, .cls-8 {
        stroke: #006838;
      }

      .cls-4 {
        stroke: #be1e2d;
      }

      .cls-5 {
        stroke: #2e3192;
      }

      .cls-15 {
        clip-path: url(#clippath-4);
      }

      .cls-16 {
        clip-path: url(#clippath-3);
      }

      .cls-17 {
        clip-path: url(#clippath-6);
      }

      .cls-18 {
        clip-path: url(#clippath-13);
      }

      .cls-19 {
        clip-path: url(#clippath-15);
      }

      .cls-20 {
        clip-path: url(#clippath-17);
      }

      .cls-21 {
        clip-path: url(#clippath-11);
      }

      .cls-22 {
        clip-path: url(#clippath-18);
      }

      .cls-10 {
        stroke: #ed1c24;
      }

      .cls-6 {
        opacity: 0;
        stroke: #000;
        stroke-width: 0px;
      }
    </style>
    <clipPath id="clippath-3">
      <rect class="cls-1" x="348.04" y="382.77" width="22" height="25"/>
    </clipPath>
    <clipPath id="clippath-4">
      <rect class="cls-1" x="552.13" y="130.72" width="31" height="25"/>
    </clipPath>
    <clipPath id="clippath-6">
      <rect class="cls-1" x="598.19" y="315.44" width="36.87" height="25.82"/>
    </clipPath>
    <clipPath id="clippath-11">
      <rect class="cls-1" x="37.87" y="154.31" width="94.06" height="31.82"/>
    </clipPath>
    <clipPath id="clippath-13">
      <rect class="cls-1" x="658.72" y="154.15" width="73.06" height="26.82"/>
    </clipPath>
    <clipPath id="clippath-15">
      <rect class="cls-1" x="464.33" y="138.15" width="48.3" height="47.98"/>
    </clipPath>
    <clipPath id="clippath-17">
      <rect class="cls-1" x="376.09" y="157.82" width="22.4" height="26.82"/>
    </clipPath>
    <clipPath id="clippath-18">
      <rect class="cls-1" x="212.15" y="158.84" width="28" height="25"/>
    </clipPath>
  </defs>
  <rect class="cls-2" x="187.95" y="120.57" width="354.22" height="236.14"/>
  <line class="cls-2" x1="542.17" y1="356.72" x2="654.22" y2="238.64"/>
  <line class="cls-2" x1="542.17" y1="120.57" x2="654.22" y2="2.5"/>
  <line class="cls-2" x1="654.22" y1="2.5" x2="654.22" y2="238.64"/>
  <line class="cls-2" x1="187.95" y1="120.57" x2="300" y2="2.5"/>
  <line class="cls-2" x1="654.22" y1="2.5" x2="300" y2="2.5"/>
  <g>
    <line class="cls-5" x1="153.61" y1="207.32" y2="207.32"/>
    <polygon class="cls-14" points="137.05 186.87 133.64 190.53 151.69 207.31 133.64 224.1 137.05 227.76 159.04 207.31 137.05 186.87"/>
  </g>
  <polygon class="cls-6" points="71.4 233.08 71.4 233.08 71.4 233.08 71.4 233.08 71.4 233.08 71.4 233.08 71.4 233.08 71.4 233.08 71.4 233.08 71.4 233.08 71.4 233.08 71.4 233.08 71.4 233.08 71.4 233.08 71.4 233.08 71.4 233.08 71.4 233.08 71.4 233.08 71.4 233.08 71.4 233.08 71.4 233.08 71.4 233.08 71.4 233.08 71.4 233.08 71.4 233.08 71.4 233.08 71.4 233.08 71.4 233.08 71.4 233.08 71.4 233.08 71.4 233.08 71.4 233.08 71.4 233.08 71.4 233.08 71.4 233.08 71.4 233.08 71.4 233.08 71.4 233.08 71.4 233.08 71.4 233.08 71.4 233.08 71.4 233.08 71.4 233.08 71.4 233.08 71.4 233.08 71.4 233.08 71.4 233.08 71.4 233.08 71.4 233.08 71.4 233.08 71.4 233.08 71.4 233.08 71.4 233.08 71.4 233.08 71.4 233.08 71.4 233.08 71.4 233.08 71.4 233.08 71.4 233.08 71.4 233.08 71.4 233.08 71.4 233.08 71.4 233.08 71.4 233.08 71.4 233.08 71.4 233.08 71.4 233.08 71.4 233.08 71.4 233.08 71.4 233.08 71.4 233.08 71.4 233.08 71.4 233.08 71.4 233.08 71.4 233.08 71.4 233.08 71.4 233.08 71.4 233.08 71.4 233.08 71.4 233.08 71.4 233.08 71.4 233.08 71.4 233.08 71.4 233.08 71.4 233.08 71.4 233.08 71.4 233.08 71.4 233.08 71.4 233.08"/>
  <polygon class="cls-6" points="66.77 182.72 66.77 182.72 66.77 182.72 66.77 182.72 66.77 182.72 66.77 182.72 66.77 182.72 66.77 182.72 66.77 182.72 66.77 182.72 66.77 182.72 66.77 182.72 66.77 182.72 66.77 182.72 66.77 182.72 66.77 182.72 66.77 182.72 66.77 182.72 66.77 182.72 66.77 182.72 66.77 182.72 66.77 182.72 66.77 182.72 66.77 182.72 66.77 182.72 66.77 182.72 66.77 182.72 66.77 182.72 66.77 182.72 66.77 182.72 66.77 182.72 66.77 182.72 66.77 182.72 66.77 182.72 66.77 182.72 66.77 182.72 66.77 182.72 66.77 182.72 66.77 182.72 66.77 182.72 66.77 182.72 66.77 182.72 66.77 182.72 66.77 182.72 66.77 182.72 66.77 182.72 66.77 182.72 66.77 182.72 66.77 182.72 66.77 182.72 66.77 182.72 66.77 182.72 66.77 182.72 66.77 182.72 66.77 182.72 66.77 182.72 66.77 182.72 66.77 182.72 66.77 182.72 66.77 182.72 66.77 182.72 66.77 182.72 66.77 182.72 66.77 182.72 66.77 182.72 66.77 182.72 66.77 182.72 66.77 182.72 66.77 182.72 66.77 182.72 66.77 182.72 66.77 182.72 66.77 182.72 66.77 182.72 66.77 182.72 66.77 182.72 66.77 182.72 66.77 182.72 66.77 182.72 66.77 182.72 66.77 182.72 66.77 182.72 66.77 182.72 66.77 182.72 66.77 182.72 66.77 182.72 66.77 182.72 66.77 182.72 66.77 182.72"/>
  <g>
    <line class="cls-5" x1="736.75" y1="207.32" x2="583.13" y2="207.32"/>
    <polygon class="cls-14" points="720.18 186.87 716.77 190.53 734.83 207.31 716.77 224.1 720.18 227.76 742.17 207.31 720.18 186.87"/>
  </g>
  <polygon class="cls-6" points="708.69 156.77 708.69 156.77 708.69 156.77 708.69 156.77 708.69 156.77 708.69 156.77 708.69 156.77 708.69 156.77 708.69 156.77 708.69 156.77 708.69 156.77 708.69 156.77 708.69 156.77 708.69 156.77 708.69 156.77 708.69 156.77 708.69 156.77 708.69 156.77 708.69 156.77 708.69 156.77 708.69 156.77 708.69 156.77 708.69 156.77 708.69 156.77 708.69 156.77 708.69 156.77 708.69 156.77 708.69 156.77 708.69 156.77 708.69 156.77 708.69 156.77 708.69 156.77 708.69 156.77 708.69 156.77 708.69 156.77 708.69 156.77 708.69 156.77 708.69 156.77 708.69 156.77 708.69 156.77 708.69 156.77 708.69 156.77 708.69 156.77 708.69 156.77 708.69 156.77 708.69 156.77 708.69 156.77 708.69 156.77 708.69 156.77 708.69 156.77 708.69 156.77 708.69 156.77 708.69 156.77 708.69 156.77 708.69 156.77 708.69 156.77 708.69 156.77 708.69 156.77 708.69 156.77 708.69 156.77 708.69 156.77 708.69 156.77 708.69 156.77 708.69 156.77 708.69 156.77 708.69 156.77 708.69 156.77 708.69 156.77 708.69 156.77 708.69 156.77 708.69 156.77 708.69 156.77 708.69 156.77 708.69 156.77 708.69 156.77 708.69 156.77 708.69 156.77 708.69 156.77 708.69 156.77 708.69 156.77 708.69 156.77 708.69 156.77 708.69 156.77 708.69 156.77 708.69 156.77 708.69 156.77 708.69 156.77"/>
  <polygon class="cls-6" points="358.74 395.44 358.74 395.44 358.74 395.44 358.74 395.44 358.74 395.44 358.74 395.44 358.74 395.44 358.74 395.44 358.74 395.44 358.74 395.44 358.74 395.44 358.74 395.44 358.74 395.44 358.74 395.44 358.74 395.44 358.74 395.44 358.74 395.44 358.74 395.44 358.74 395.44 358.74 395.44 358.74 395.44 358.74 395.44 358.74 395.44 358.74 395.44 358.74 395.44 358.74 395.44 358.74 395.44 358.74 395.44 358.74 395.44 358.74 395.44 358.74 395.44 358.74 395.44 358.74 395.44 358.74 395.44 358.74 395.44 358.74 395.44 358.74 395.44 358.74 395.44 358.74 395.44 358.74 395.44 358.74 395.44 358.74 395.44 358.74 395.44 358.74 395.44 358.74 395.44 358.74 395.44 358.74 395.44 358.74 395.44 358.74 395.44 358.74 395.44 358.74 395.44 358.74 395.44 358.74 395.44 358.74 395.44 358.74 395.44 358.74 395.44 358.74 395.44 358.74 395.44 358.74 395.44 358.74 395.44 358.74 395.44 358.74 395.44 358.74 395.44 358.74 395.44 358.74 395.44 358.74 395.44 358.74 395.44 358.74 395.44 358.74 395.44 358.74 395.44 358.74 395.44 358.74 395.44 358.74 395.44 358.74 395.44 358.74 395.44 358.74 395.44 358.74 395.44 358.74 395.44 358.74 395.44 358.74 395.44 358.74 395.44 358.74 395.44 358.74 395.44 358.74 395.44 358.74 395.44 358.74 395.44"/>
  <g class="cls-16">
    <path d="m360.34,385.89c.32-1.29.43-1.68,3.8-1.68,1.07,0,1.36,0,1.36-.68,0-.43-.39-.43-.57-.43-1.18,0-4.12.11-5.3.11-1.08,0-3.69-.11-4.77-.11-.25,0-.68,0-.68.72,0,.4.32.4,1,.4.07,0,.75,0,1.36.07.65.07.97.11.97.58,0,.14-.04.25-.14.68l-4.8,19.25c-.36,1.4-.43,1.68-3.26,1.68-.61,0-.97,0-.97.72,0,.39.32.39.97.39h16.6c.86,0,.9,0,1.11-.61l2.83-7.74c.14-.4.14-.47.14-.5,0-.14-.11-.4-.43-.4s-.36.18-.61.75c-1.22,3.3-2.8,7.38-9,7.38h-3.37c-.5,0-.57,0-.79-.04-.36-.04-.47-.07-.47-.36,0-.11,0-.18.18-.82l4.84-19.36"/>
  </g>
  <polygon class="cls-6" points="567.33 143.39 567.33 143.39 567.33 143.39 567.33 143.39 567.33 143.39 567.33 143.39 567.33 143.39 567.33 143.39 567.33 143.39 567.33 143.39 567.33 143.39 567.33 143.39 567.33 143.39 567.33 143.39 567.33 143.39 567.33 143.39 567.33 143.39 567.33 143.39 567.33 143.39 567.33 143.39 567.33 143.39 567.33 143.39 567.33 143.39 567.33 143.39 567.33 143.39 567.33 143.39 567.33 143.39 567.33 143.39 567.33 143.39 567.33 143.39 567.33 143.39 567.33 143.39 567.33 143.39 567.33 143.39 567.33 143.39 567.33 143.39 567.33 143.39 567.33 143.39 567.33 143.39 567.33 143.39 567.33 143.39 567.33 143.39 567.33 143.39 567.33 143.39 567.33 143.39 567.33 143.39 567.33 143.39 567.33 143.39 567.33 143.39 567.33 143.39 567.33 143.39 567.33 143.39 567.33 143.39 567.33 143.39 567.33 143.39 567.33 143.39 567.33 143.39 567.33 143.39 567.33 143.39 567.33 143.39 567.33 143.39 567.33 143.39 567.33 143.39 567.33 143.39 567.33 143.39 567.33 143.39 567.33 143.39 567.33 143.39 567.33 143.39 567.33 143.39 567.33 143.39 567.33 143.39 567.33 143.39 567.33 143.39 567.33 143.39 567.33 143.39 567.33 143.39 567.33 143.39 567.33 143.39 567.33 143.39 567.33 143.39 567.33 143.39 567.33 143.39 567.33 143.39 567.33 143.39 567.33 143.39"/>
  <g class="cls-15">
    <path d="m578.38,133.79c.32-1.29.39-1.65,3.01-1.65.93,0,1.22,0,1.22-.72,0-.4-.39-.4-.5-.4-1,0-3.58.11-4.59.11s-3.58-.11-4.62-.11c-.29,0-.68,0-.68.72,0,.4.32.4,1,.4.07,0,.75,0,1.36.07.65.07.97.11.97.58,0,.14-.04.21-.14.68l-2.15,8.75h-10.93l2.12-8.42c.32-1.29.43-1.65,3.01-1.65.93,0,1.22,0,1.22-.72,0-.4-.39-.4-.5-.4-1,0-3.58.11-4.59.11s-3.58-.11-4.62-.11c-.29,0-.68,0-.68.72,0,.4.32.4,1,.4.07,0,.75,0,1.36.07.65.07.97.11.97.58,0,.14-.04.25-.14.68l-4.8,19.25c-.36,1.4-.43,1.68-3.26,1.68-.65,0-.97,0-.97.72,0,.39.43.39.5.39,1,0,3.55-.11,4.55-.11.75,0,1.54.04,2.3.04s1.58.07,2.33.07c.29,0,.72,0,.72-.72,0-.39-.32-.39-1-.39-1.33,0-2.33,0-2.33-.65,0-.22.07-.39.11-.61l2.44-9.82h10.93c-1.51,5.95-2.33,9.36-2.47,9.89-.36,1.15-1.04,1.18-3.26,1.18-.54,0-.86,0-.86.72,0,.39.43.39.5.39,1,0,3.55-.11,4.55-.11.75,0,1.54.04,2.3.04s1.58.07,2.33.07c.29,0,.72,0,.72-.72,0-.39-.32-.39-1-.39-1.33,0-2.33,0-2.33-.65,0-.22.07-.39.11-.61l4.84-19.36"/>
  </g>
  <polygon class="cls-6" points="615.82 328.5 615.82 328.5 615.82 328.5 615.82 328.5 615.82 328.5 615.82 328.5 615.82 328.5 615.82 328.5 615.82 328.5 615.82 328.5 615.82 328.5 615.82 328.5 615.82 328.5 615.82 328.5 615.82 328.5 615.82 328.5 615.82 328.5 615.82 328.5 615.82 328.5 615.82 328.5 615.82 328.5 615.82 328.5 615.82 328.5 615.82 328.5 615.82 328.5 615.82 328.5 615.82 328.5 615.82 328.5 615.82 328.5 615.82 328.5 615.82 328.5 615.82 328.5 615.82 328.5 615.82 328.5 615.82 328.5 615.82 328.5 615.82 328.5 615.82 328.5 615.82 328.5 615.82 328.5 615.82 328.5 615.82 328.5 615.82 328.5 615.82 328.5 615.82 328.5 615.82 328.5 615.82 328.5 615.82 328.5 615.82 328.5 615.82 328.5 615.82 328.5 615.82 328.5 615.82 328.5 615.82 328.5 615.82 328.5 615.82 328.5 615.82 328.5 615.82 328.5 615.82 328.5 615.82 328.5 615.82 328.5 615.82 328.5 615.82 328.5 615.82 328.5 615.82 328.5 615.82 328.5 615.82 328.5 615.82 328.5 615.82 328.5 615.82 328.5 615.82 328.5 615.82 328.5 615.82 328.5 615.82 328.5 615.82 328.5 615.82 328.5 615.82 328.5 615.82 328.5 615.82 328.5 615.82 328.5 615.82 328.5 615.82 328.5 615.82 328.5 615.82 328.5 615.82 328.5 615.82 328.5"/>
  <g class="cls-17">
    <path d="m629.96,319.82c.9-1.58,1.76-2.87,4.01-3.05.32-.04.68-.04.68-.72,0-.14-.14-.4-.43-.4-.86,0-1.86.11-2.76.11-1.22,0-2.55-.11-3.73-.11-.21,0-.68,0-.68.68,0,.4.32.43.54.43.86.04,2.11.32,2.11,1.4,0,.4-.18.68-.47,1.18l-9.68,16.88-1.33-17.78c-.04-.72-.11-1.65,2.51-1.68.61,0,.97,0,.97-.72,0-.36-.39-.4-.54-.4-1.43,0-2.94.11-4.37.11-.82,0-2.94-.11-3.76-.11-.22,0-.68,0-.68.72,0,.4.36.4.86.4,1.58,0,1.83.21,1.9.9l.22,2.76-9.07,15.81-1.36-18.17c0-.43,0-1.25,2.72-1.29.36,0,.75,0,.75-.72,0-.4-.43-.4-.5-.4-1.43,0-2.94.11-4.41.11-1.25,0-2.54-.11-3.76-.11-.18,0-.65,0-.65.68,0,.43.32.43.9.43,1.79,0,1.83.32,1.9,1.33l1.61,21.9c.04.65.07.93.58.93.43,0,.54-.22.86-.75l10.54-18.28,1.33,18.1c.07.75.14.93.57.93.47,0,.68-.36.86-.68l11.76-20.43"/>
  </g>
  <polygon class="cls-6" points="705.07 167.62 705.07 167.62 705.07 167.62 705.07 167.62 705.07 167.62 705.07 167.62 705.07 167.62 705.07 167.62 705.07 167.62 705.07 167.62 705.07 167.62 705.07 167.62 705.07 167.62 705.07 167.62 705.07 167.62 705.07 167.62 705.07 167.62 705.07 167.62 705.07 167.62 705.07 167.62 705.07 167.62 705.07 167.62 705.07 167.62 705.07 167.62 705.07 167.62 705.07 167.62 705.07 167.62 705.07 167.62 705.07 167.62 705.07 167.62 705.07 167.62 705.07 167.62 705.07 167.62 705.07 167.62 705.07 167.62 705.07 167.62 705.07 167.62 705.07 167.62 705.07 167.62 705.07 167.62 705.07 167.62 705.07 167.62 705.07 167.62 705.07 167.62 705.07 167.62 705.07 167.62 705.07 167.62 705.07 167.62 705.07 167.62 705.07 167.62 705.07 167.62 705.07 167.62 705.07 167.62 705.07 167.62 705.07 167.62 705.07 167.62 705.07 167.62 705.07 167.62 705.07 167.62 705.07 167.62 705.07 167.62 705.07 167.62 705.07 167.62 705.07 167.62 705.07 167.62 705.07 167.62 705.07 167.62 705.07 167.62 705.07 167.62 705.07 167.62 705.07 167.62 705.07 167.62 705.07 167.62 705.07 167.62 705.07 167.62 705.07 167.62 705.07 167.62 705.07 167.62 705.07 167.62 705.07 167.62 705.07 167.62 705.07 167.62 705.07 167.62 705.07 167.62 705.07 167.62 705.07 167.62 705.07 167.62 705.07 167.62 705.07 167.62"/>
  <polygon class="cls-6" points="701.46 162.8 701.46 162.8 701.46 162.8 701.46 162.8 701.46 162.8 701.46 162.8 701.46 162.8 701.46 162.8 701.46 162.8 701.46 162.8 701.46 162.8 701.46 162.8 701.46 162.8 701.46 162.8 701.46 162.8 701.46 162.8 701.46 162.8 701.46 162.8 701.46 162.8 701.46 162.8 701.46 162.8 701.46 162.8 701.46 162.8 701.46 162.8 701.46 162.8 701.46 162.8 701.46 162.8 701.46 162.8 701.46 162.8 701.46 162.8 701.46 162.8 701.46 162.8 701.46 162.8 701.46 162.8 701.46 162.8 701.46 162.8 701.46 162.8 701.46 162.8 701.46 162.8 701.46 162.8 701.46 162.8 701.46 162.8 701.46 162.8 701.46 162.8 701.46 162.8 701.46 162.8 701.46 162.8 701.46 162.8 701.46 162.8 701.46 162.8 701.46 162.8 701.46 162.8 701.46 162.8 701.46 162.8 701.46 162.8 701.46 162.8 701.46 162.8 701.46 162.8 701.46 162.8 701.46 162.8 701.46 162.8 701.46 162.8 701.46 162.8 701.46 162.8 701.46 162.8 701.46 162.8 701.46 162.8 701.46 162.8 701.46 162.8 701.46 162.8 701.46 162.8 701.46 162.8 701.46 162.8 701.46 162.8 701.46 162.8 701.46 162.8 701.46 162.8 701.46 162.8 701.46 162.8 701.46 162.8 701.46 162.8 701.46 162.8 701.46 162.8 701.46 162.8 701.46 162.8 701.46 162.8 701.46 162.8 701.46 162.8 701.46 162.8 701.46 162.8"/>
  <polygon class="cls-6" points="74.95 168.03 74.95 168.03 74.95 168.03 74.95 168.03 74.95 168.03 74.95 168.03 74.95 168.03 74.95 168.03 74.95 168.03 74.95 168.03 74.95 168.03 74.95 168.03 74.95 168.03 74.95 168.03 74.95 168.03 74.95 168.03 74.95 168.03 74.95 168.03 74.95 168.03 74.95 168.03 74.95 168.03 74.95 168.03 74.95 168.03 74.95 168.03 74.95 168.03 74.95 168.03 74.95 168.03 74.95 168.03 74.95 168.03 74.95 168.03 74.95 168.03 74.95 168.03 74.95 168.03 74.95 168.03 74.95 168.03 74.95 168.03 74.95 168.03 74.95 168.03 74.95 168.03 74.95 168.03 74.95 168.03 74.95 168.03 74.95 168.03 74.95 168.03 74.95 168.03 74.95 168.03 74.95 168.03 74.95 168.03 74.95 168.03 74.95 168.03 74.95 168.03 74.95 168.03 74.95 168.03 74.95 168.03 74.95 168.03 74.95 168.03 74.95 168.03 74.95 168.03 74.95 168.03 74.95 168.03 74.95 168.03 74.95 168.03 74.95 168.03 74.95 168.03 74.95 168.03 74.95 168.03 74.95 168.03 74.95 168.03 74.95 168.03 74.95 168.03 74.95 168.03 74.95 168.03 74.95 168.03 74.95 168.03 74.95 168.03 74.95 168.03 74.95 168.03 74.95 168.03 74.95 168.03 74.95 168.03 74.95 168.03 74.95 168.03 74.95 168.03 74.95 168.03 74.95 168.03 74.95 168.03 74.95 168.03 74.95 168.03 74.95 168.03 74.95 168.03 74.95 168.03 74.95 168.03 74.95 168.03"/>
  <polygon class="cls-6" points="719.53 160.8 719.53 160.8 719.53 160.8 719.53 160.8 719.53 160.8 719.53 160.8 719.53 160.8 719.53 160.8 719.53 160.8 719.53 160.8 719.53 160.8 719.53 160.8 719.53 160.8 719.53 160.8 719.53 160.8 719.53 160.8 719.53 160.8 719.53 160.8 719.53 160.8 719.53 160.8 719.53 160.8 719.53 160.8 719.53 160.8 719.53 160.8 719.53 160.8 719.53 160.8 719.53 160.8 719.53 160.8 719.53 160.8 719.53 160.8 719.53 160.8 719.53 160.8 719.53 160.8 719.53 160.8 719.53 160.8 719.53 160.8 719.53 160.8 719.53 160.8 719.53 160.8 719.53 160.8 719.53 160.8 719.53 160.8 719.53 160.8 719.53 160.8 719.53 160.8 719.53 160.8 719.53 160.8 719.53 160.8 719.53 160.8 719.53 160.8 719.53 160.8 719.53 160.8 719.53 160.8 719.53 160.8 719.53 160.8 719.53 160.8 719.53 160.8 719.53 160.8 719.53 160.8 719.53 160.8 719.53 160.8 719.53 160.8 719.53 160.8 719.53 160.8 719.53 160.8 719.53 160.8 719.53 160.8 719.53 160.8 719.53 160.8 719.53 160.8 719.53 160.8 719.53 160.8 719.53 160.8 719.53 160.8 719.53 160.8 719.53 160.8 719.53 160.8 719.53 160.8 719.53 160.8 719.53 160.8 719.53 160.8 719.53 160.8 719.53 160.8 719.53 160.8 719.53 160.8 719.53 160.8 719.53 160.8 719.53 160.8 719.53 160.8 719.53 160.8"/>
  <g class="cls-21">
    <path class="cls-13" d="m49.37,178c.4,1.47,1.65,2.4,3.19,2.4,1.25,0,2.08-.82,2.65-1.97.61-1.29,1.07-3.48,1.07-3.55,0-.36-.32-.36-.43-.36-.36,0-.4.14-.5.65-.5,2.01-1.18,4.45-2.69,4.45-.75,0-1.11-.47-1.11-1.65,0-.79.43-2.47.72-3.73l1-3.87c.11-.54.47-1.9.61-2.44.18-.83.54-2.19.54-2.4,0-.65-.5-.97-1.04-.97-.18,0-1.11.03-1.4,1.25-.68,2.62-2.26,8.89-2.69,10.79-.04.14-1.47,3.01-4.09,3.01-1.86,0-2.22-1.61-2.22-2.94,0-2.01,1-4.84,1.94-7.31.43-1.08.61-1.58.61-2.26,0-1.61-1.15-2.94-2.94-2.94-3.4,0-4.73,5.2-4.73,5.52,0,.36.36.36.43.36.36,0,.39-.07.57-.64.9-3.12,2.26-4.45,3.62-4.45.32,0,.9.04.9,1.18,0,.86-.39,1.9-.61,2.44-1.33,3.55-2.08,5.77-2.08,7.53,0,3.41,2.47,4.3,4.41,4.3,2.37,0,3.66-1.61,4.27-2.4"/>
    <path class="cls-13" d="m72.21,171.05c0-1.04-.86-1.9-1.9-1.9s-1.9.86-1.9,1.9.86,1.9,1.9,1.9,1.9-.86,1.9-1.9"/>
    <path class="cls-13" d="m110.47,155.09c0-.11-.07-.36-.39-.36-.11,0-.14.04-.54.43l-2.51,2.76c-.32-.5-1.97-3.19-5.95-3.19-7.99,0-16.06,7.92-16.06,16.24,0,5.91,4.23,9.82,9.71,9.82,3.12,0,5.84-1.43,7.74-3.08,3.33-2.94,3.94-6.2,3.94-6.31,0-.36-.36-.36-.43-.36-.21,0-.39.07-.47.36-.32,1.04-1.15,3.58-3.62,5.66-2.47,2.01-4.73,2.62-6.6,2.62-3.23,0-7.03-1.86-7.03-7.46,0-2.04.75-7.85,4.34-12.04,2.19-2.55,5.56-4.34,8.75-4.34,3.66,0,5.77,2.76,5.77,6.92,0,1.43-.11,1.47-.11,1.83s.39.36.54.36c.47,0,.47-.07.65-.72l2.26-9.14"/>
    <path class="cls-13" d="m110.41,174.52v.9c1.58,0,1.81.15,1.81,1.38v6.52c0,1.08-.25,1.08-1.88,1.08v.9s1.81-.1,2.81-.1c.88,0,1.78.03,2.66.1v-.9c-1.46,0-1.71,0-1.71-1.05v-9.11l-3.69.28m3.81-4.69c0-.73-.6-1.43-1.45-1.43-.75,0-1.43.6-1.43,1.43,0,.9.73,1.46,1.43,1.46.8,0,1.45-.63,1.45-1.46Z"/>
    <path class="cls-13" d="m129.95,177.71c0-2.18-1.08-3.46-3.76-3.46-2.06,0-3.39,1.13-4.09,2.43h-.03v-2.43l-3.69.28v.9c1.68,0,1.88.18,1.88,1.41v6.5c0,1.08-.25,1.08-1.88,1.08v.9c.05,0,1.81-.1,2.86-.1.93,0,2.66.08,2.88.1v-.9c-1.63,0-1.88,0-1.88-1.08v-4.52c0-2.63,2.08-3.86,3.74-3.86,1.76,0,1.98,1.38,1.98,2.66v5.72c0,1.08-.25,1.08-1.88,1.08v.9c.05,0,1.81-.1,2.86-.1.93,0,2.66.08,2.89.1v-.9c-1.63,0-1.88,0-1.88-1.08v-5.62"/>
  </g>
  <polygon class="cls-6" points="705.07 323.04 705.07 323.04 705.07 323.04 705.07 323.04 705.07 323.04 705.07 323.04 705.07 323.04 705.07 323.04 705.07 323.04 705.07 323.04 705.07 323.04 705.07 323.04 705.07 323.04 705.07 323.04 705.07 323.04 705.07 323.04 705.07 323.04 705.07 323.04 705.07 323.04 705.07 323.04 705.07 323.04 705.07 323.04 705.07 323.04 705.07 323.04 705.07 323.04 705.07 323.04 705.07 323.04 705.07 323.04 705.07 323.04 705.07 323.04 705.07 323.04 705.07 323.04 705.07 323.04 705.07 323.04 705.07 323.04 705.07 323.04 705.07 323.04 705.07 323.04 705.07 323.04 705.07 323.04 705.07 323.04 705.07 323.04 705.07 323.04 705.07 323.04 705.07 323.04 705.07 323.04 705.07 323.04 705.07 323.04 705.07 323.04 705.07 323.04 705.07 323.04 705.07 323.04 705.07 323.04 705.07 323.04 705.07 323.04 705.07 323.04 705.07 323.04 705.07 323.04 705.07 323.04 705.07 323.04 705.07 323.04 705.07 323.04 705.07 323.04 705.07 323.04 705.07 323.04 705.07 323.04 705.07 323.04 705.07 323.04 705.07 323.04 705.07 323.04 705.07 323.04 705.07 323.04 705.07 323.04 705.07 323.04 705.07 323.04 705.07 323.04 705.07 323.04 705.07 323.04 705.07 323.04 705.07 323.04 705.07 323.04 705.07 323.04 705.07 323.04 705.07 323.04 705.07 323.04 705.07 323.04 705.07 323.04"/>
  <g class="cls-18">
    <path class="cls-13" d="m670.22,177.84c.4,1.47,1.65,2.4,3.19,2.4,1.25,0,2.08-.82,2.65-1.97.61-1.29,1.07-3.48,1.07-3.55,0-.36-.32-.36-.43-.36-.36,0-.4.14-.5.65-.5,2.01-1.18,4.45-2.69,4.45-.75,0-1.11-.47-1.11-1.65,0-.79.43-2.47.72-3.73l1-3.87c.11-.54.47-1.9.61-2.44.18-.82.54-2.19.54-2.4,0-.65-.5-.97-1.04-.97-.18,0-1.11.03-1.4,1.25-.68,2.62-2.26,8.89-2.69,10.79-.04.14-1.47,3.01-4.09,3.01-1.86,0-2.22-1.61-2.22-2.94,0-2.01,1-4.84,1.94-7.31.43-1.08.61-1.58.61-2.26,0-1.61-1.15-2.94-2.94-2.94-3.4,0-4.73,5.2-4.73,5.52,0,.36.36.36.43.36.36,0,.39-.07.57-.64.9-3.12,2.26-4.45,3.62-4.45.32,0,.9.04.9,1.18,0,.86-.39,1.9-.61,2.44-1.33,3.55-2.08,5.77-2.08,7.53,0,3.41,2.47,4.3,4.41,4.3,2.37,0,3.66-1.61,4.27-2.4"/>
    <path class="cls-13" d="m693.06,170.89c0-1.04-.86-1.9-1.9-1.9s-1.9.86-1.9,1.9.86,1.9,1.9,1.9,1.9-.86,1.9-1.9"/>
    <path class="cls-13" d="m731.32,154.94c0-.11-.07-.36-.39-.36-.11,0-.14.04-.54.43l-2.51,2.76c-.32-.5-1.97-3.19-5.95-3.19-7.99,0-16.06,7.92-16.06,16.24,0,5.91,4.23,9.82,9.71,9.82,3.12,0,5.84-1.43,7.74-3.08,3.33-2.94,3.94-6.2,3.94-6.31,0-.36-.36-.36-.43-.36-.21,0-.39.07-.47.36-.32,1.04-1.15,3.58-3.62,5.66-2.47,2.01-4.73,2.62-6.6,2.62-3.23,0-7.03-1.86-7.03-7.46,0-2.04.75-7.85,4.34-12.04,2.19-2.55,5.56-4.34,8.75-4.34,3.66,0,5.77,2.76,5.77,6.92,0,1.43-.11,1.47-.11,1.83s.39.36.54.36c.47,0,.47-.07.65-.72l2.26-9.14"/>
  </g>
  <polygon class="cls-6" points="501.72 154.37 501.72 154.37 501.72 154.37 501.72 154.37 501.72 154.37 501.72 154.37 501.72 154.37 501.72 154.37 501.72 154.37 501.72 154.37 501.72 154.37 501.72 154.37 501.72 154.37 501.72 154.37 501.72 154.37 501.72 154.37 501.72 154.37 501.72 154.37 501.72 154.37 501.72 154.37 501.72 154.37 501.72 154.37 501.72 154.37 501.72 154.37 501.72 154.37 501.72 154.37 501.72 154.37 501.72 154.37 501.72 154.37 501.72 154.37 501.72 154.37 501.72 154.37 501.72 154.37 501.72 154.37 501.72 154.37 501.72 154.37 501.72 154.37 501.72 154.37 501.72 154.37 501.72 154.37 501.72 154.37 501.72 154.37 501.72 154.37 501.72 154.37 501.72 154.37 501.72 154.37 501.72 154.37 501.72 154.37 501.72 154.37 501.72 154.37 501.72 154.37 501.72 154.37 501.72 154.37 501.72 154.37 501.72 154.37 501.72 154.37 501.72 154.37 501.72 154.37 501.72 154.37 501.72 154.37 501.72 154.37 501.72 154.37 501.72 154.37 501.72 154.37 501.72 154.37 501.72 154.37 501.72 154.37 501.72 154.37 501.72 154.37 501.72 154.37 501.72 154.37 501.72 154.37 501.72 154.37 501.72 154.37 501.72 154.37 501.72 154.37 501.72 154.37 501.72 154.37 501.72 154.37 501.72 154.37 501.72 154.37 501.72 154.37 501.72 154.37 501.72 154.37 501.72 154.37 501.72 154.37 501.72 154.37"/>
  <g class="cls-19">
    <path class="cls-13" d="m511.09,139.56c0-.19-.13-.64-.7-.64-.19,0-.26.06-.96.77l-4.49,4.94c-.58-.9-3.53-5.7-10.64-5.7-14.3,0-28.73,14.17-28.73,29.05,0,10.58,7.57,17.57,17.38,17.57,5.58,0,10.45-2.57,13.85-5.51,5.96-5.26,7.05-11.09,7.05-11.29,0-.64-.64-.64-.77-.64-.38,0-.7.13-.83.64-.58,1.86-2.05,6.41-6.48,10.13-4.42,3.59-8.46,4.68-11.8,4.68-5.77,0-12.57-3.33-12.57-13.34,0-3.66,1.34-14.04,7.76-21.54,3.91-4.55,9.94-7.76,15.65-7.76,6.54,0,10.33,4.94,10.33,12.37,0,2.57-.19,2.63-.19,3.27s.7.64.96.64c.83,0,.83-.13,1.15-1.28l4.04-16.35"/>
  </g>
  <polygon class="cls-6" points="337.09 170.14 337.09 170.14 337.09 170.14 337.09 170.14 337.09 170.14 337.09 170.14 337.09 170.14 337.09 170.14 337.09 170.14 337.09 170.14 337.09 170.14 337.09 170.14 337.09 170.14 337.09 170.14 337.09 170.14 337.09 170.14 337.09 170.14 337.09 170.14 337.09 170.14 337.09 170.14 337.09 170.14 337.09 170.14 337.09 170.14 337.09 170.14 337.09 170.14 337.09 170.14 337.09 170.14 337.09 170.14 337.09 170.14 337.09 170.14 337.09 170.14 337.09 170.14 337.09 170.14 337.09 170.14 337.09 170.14 337.09 170.14 337.09 170.14 337.09 170.14 337.09 170.14 337.09 170.14 337.09 170.14 337.09 170.14 337.09 170.14 337.09 170.14 337.09 170.14 337.09 170.14 337.09 170.14 337.09 170.14 337.09 170.14 337.09 170.14 337.09 170.14 337.09 170.14 337.09 170.14 337.09 170.14 337.09 170.14 337.09 170.14 337.09 170.14 337.09 170.14 337.09 170.14 337.09 170.14 337.09 170.14 337.09 170.14 337.09 170.14 337.09 170.14 337.09 170.14 337.09 170.14 337.09 170.14 337.09 170.14 337.09 170.14 337.09 170.14 337.09 170.14 337.09 170.14 337.09 170.14 337.09 170.14 337.09 170.14 337.09 170.14 337.09 170.14 337.09 170.14 337.09 170.14 337.09 170.14 337.09 170.14 337.09 170.14 337.09 170.14 337.09 170.14 337.09 170.14 337.09 170.14 337.09 170.14"/>
  <path class="cls-10" d="m391.88,239.04v-27.82h-48.75v136.5h156v-117l-14.62,6.64-24.37,11.09-14.63,6.64v-24.38l-14.62,6.64-24.38,11.09-14.62,6.64v-16.06Zm39,14.41v24.34l20.69-9.38,32.94-14.99v79.68h-126.75v-107.25h19.5v51.95l20.69-9.38,32.94-14.99v.03Z"/>
  <polygon class="cls-6" points="356.36 155.68 356.36 155.68 356.36 155.68 356.36 155.68 356.36 155.68 356.36 155.68 356.36 155.68 356.36 155.68 356.36 155.68 356.36 155.68 356.36 155.68 356.36 155.68 356.36 155.68 356.36 155.68 356.36 155.68 356.36 155.68 356.36 155.68 356.36 155.68 356.36 155.68 356.36 155.68 356.36 155.68 356.36 155.68 356.36 155.68 356.36 155.68 356.36 155.68 356.36 155.68 356.36 155.68 356.36 155.68 356.36 155.68 356.36 155.68 356.36 155.68 356.36 155.68 356.36 155.68 356.36 155.68 356.36 155.68 356.36 155.68 356.36 155.68 356.36 155.68 356.36 155.68 356.36 155.68 356.36 155.68 356.36 155.68 356.36 155.68 356.36 155.68 356.36 155.68 356.36 155.68 356.36 155.68 356.36 155.68 356.36 155.68 356.36 155.68 356.36 155.68 356.36 155.68 356.36 155.68 356.36 155.68 356.36 155.68 356.36 155.68 356.36 155.68 356.36 155.68 356.36 155.68 356.36 155.68 356.36 155.68 356.36 155.68 356.36 155.68 356.36 155.68 356.36 155.68 356.36 155.68 356.36 155.68 356.36 155.68 356.36 155.68 356.36 155.68 356.36 155.68 356.36 155.68 356.36 155.68 356.36 155.68 356.36 155.68 356.36 155.68 356.36 155.68 356.36 155.68 356.36 155.68 356.36 155.68 356.36 155.68 356.36 155.68 356.36 155.68 356.36 155.68 356.36 155.68 356.36 155.68 356.36 155.68"/>
  <g>
    <line class="cls-4" x1="365.06" y1="190.45" x2="365.04" y2="157.27"/>
    <polygon class="cls-9" points="373.52 167.23 365.04 158.75 356.57 167.24 356.56 160.04 365.04 151.56 373.52 160.03 373.52 167.23"/>
  </g>
  <g>
    <line class="cls-3" x1="254.28" y1="156.8" x2="254.3" y2="189.97"/>
    <polygon class="cls-7" points="245.82 180.02 254.3 188.49 262.77 180.01 262.77 187.2 254.3 195.69 245.82 187.22 245.82 180.02"/>
  </g>
  <path class="cls-8" d="m240.6,266.15l-1.07,4.59-4.57-1.09c-.8-.2-1.66-.29-2.54-.29-6.04,0-10.94,4.9-10.94,10.94,0,1.05.16,2.07.43,3.01l1.13,3.93-3.77,1.66c-3.32,1.45-5.61,4.77-5.61,8.6v14.07h35.94v-40.63h9.38v40.63h35.94v-14.07c0-3.83-2.31-7.13-5.61-8.6l-3.75-1.64,1.13-3.93c.27-.96.43-1.97.43-3.01,0-6.04-4.9-10.94-10.94-10.94-.88,0-1.72.1-2.54.29l-4.57,1.07-1.07-4.59c-1.47-6.23-7.05-10.86-13.71-10.86s-12.25,4.63-13.69,10.86Zm9.01,54.78h-45.32v-23.44c0-6.31,3.13-11.9,7.89-15.3-.06-.63-.08-1.25-.08-1.89,0-11.21,9.1-20.32,20.32-20.32h.39c3.61-8.28,11.88-14.07,21.49-14.07s17.87,5.78,21.49,14.07h.39c11.21,0,20.32,9.1,20.32,20.32,0,.64-.04,1.27-.08,1.89,4.77,3.4,7.89,8.99,7.89,15.3v23.44h-45.32v25h-9.38v-25Z"/>
  <polygon class="cls-6" points="398.03 171.23 398.03 171.23 398.03 171.23 398.03 171.23 398.03 171.23 398.03 171.23 398.03 171.23 398.03 171.23 398.03 171.23 398.03 171.23 398.03 171.23 398.03 171.23 398.03 171.23 398.03 171.23 398.03 171.23 398.03 171.23 398.03 171.23 398.03 171.23 398.03 171.23 398.03 171.23 398.03 171.23 398.03 171.23 398.03 171.23 398.03 171.23 398.03 171.23 398.03 171.23 398.03 171.23 398.03 171.23 398.03 171.23 398.03 171.23 398.03 171.23 398.03 171.23 398.03 171.23 398.03 171.23 398.03 171.23 398.03 171.23 398.03 171.23 398.03 171.23 398.03 171.23 398.03 171.23 398.03 171.23 398.03 171.23 398.03 171.23 398.03 171.23 398.03 171.23 398.03 171.23 398.03 171.23 398.03 171.23 398.03 171.23 398.03 171.23 398.03 171.23 398.03 171.23 398.03 171.23 398.03 171.23 398.03 171.23 398.03 171.23 398.03 171.23 398.03 171.23 398.03 171.23 398.03 171.23 398.03 171.23 398.03 171.23 398.03 171.23 398.03 171.23 398.03 171.23 398.03 171.23 398.03 171.23 398.03 171.23 398.03 171.23 398.03 171.23 398.03 171.23 398.03 171.23 398.03 171.23 398.03 171.23 398.03 171.23 398.03 171.23 398.03 171.23 398.03 171.23 398.03 171.23 398.03 171.23 398.03 171.23 398.03 171.23 398.03 171.23 398.03 171.23 398.03 171.23 398.03 171.23 398.03 171.23"/>
  <g class="cls-20">
    <path class="cls-11" d="m398.12,158.61c0-.11-.07-.36-.4-.36-.18,0-.21.04-.64.54l-1.72,2.04c-.93-1.68-2.8-2.58-5.12-2.58-4.55,0-8.85,4.12-8.85,8.46,0,2.9,1.9,4.55,3.73,5.09l3.84,1c1.33.32,3.3.86,3.3,3.8,0,3.23-2.94,6.6-6.45,6.6-2.29,0-6.27-.79-6.27-5.23,0-.86.18-1.72.21-1.94.04-.14.07-.18.07-.25,0-.36-.25-.4-.43-.4s-.25.04-.36.14c-.14.14-2.15,8.32-2.15,8.42,0,.22.18.36.39.36.18,0,.22-.04.65-.54l1.76-2.04c1.54,2.08,3.98,2.58,6.06,2.58,4.88,0,9.1-4.77,9.1-9.21,0-2.47-1.22-3.69-1.76-4.19-.82-.83-1.36-.97-4.55-1.79-.79-.22-2.08-.57-2.4-.65-.97-.32-2.19-1.36-2.19-3.26,0-2.9,2.87-5.95,6.27-5.95,2.98,0,5.16,1.54,5.16,5.56,0,1.15-.14,1.79-.14,2.01,0,.04,0,.36.43.36.36,0,.39-.11.54-.72l1.94-7.85"/>
  </g>
  <polygon class="cls-6" points="228.62 171.34 228.62 171.34 228.62 171.34 228.62 171.34 228.62 171.34 228.62 171.34 228.62 171.34 228.62 171.34 228.62 171.34 228.62 171.34 228.62 171.34 228.62 171.34 228.62 171.34 228.62 171.34 228.62 171.34 228.62 171.34 228.62 171.34 228.62 171.34 228.62 171.34 228.62 171.34 228.62 171.34 228.62 171.34 228.62 171.34 228.62 171.34 228.62 171.34 228.62 171.34 228.62 171.34 228.62 171.34 228.62 171.34 228.62 171.34 228.62 171.34 228.62 171.34 228.62 171.34 228.62 171.34 228.62 171.34 228.62 171.34 228.62 171.34 228.62 171.34 228.62 171.34 228.62 171.34 228.62 171.34 228.62 171.34 228.62 171.34 228.62 171.34 228.62 171.34 228.62 171.34 228.62 171.34 228.62 171.34 228.62 171.34 228.62 171.34 228.62 171.34 228.62 171.34 228.62 171.34 228.62 171.34 228.62 171.34 228.62 171.34 228.62 171.34 228.62 171.34 228.62 171.34 228.62 171.34 228.62 171.34 228.62 171.34 228.62 171.34 228.62 171.34 228.62 171.34 228.62 171.34 228.62 171.34 228.62 171.34 228.62 171.34 228.62 171.34 228.62 171.34 228.62 171.34 228.62 171.34 228.62 171.34 228.62 171.34 228.62 171.34 228.62 171.34 228.62 171.34 228.62 171.34 228.62 171.34 228.62 171.34 228.62 171.34 228.62 171.34 228.62 171.34 228.62 171.34 228.62 171.34 228.62 171.34 228.62 171.34 228.62 171.34 228.62 171.34"/>
  <polygon class="cls-6" points="308.1 153.66 308.1 153.66 308.1 153.66 308.1 153.66 308.1 153.66 308.1 153.66 308.1 153.66 308.1 153.66 308.1 153.66 308.1 153.66 308.1 153.66 308.1 153.66 308.1 153.66 308.1 153.66 308.1 153.66 308.1 153.66 308.1 153.66 308.1 153.66 308.1 153.66 308.1 153.66 308.1 153.66 308.1 153.66 308.1 153.66 308.1 153.66 308.1 153.66 308.1 153.66 308.1 153.66 308.1 153.66 308.1 153.66 308.1 153.66 308.1 153.66 308.1 153.66 308.1 153.66 308.1 153.66 308.1 153.66 308.1 153.66 308.1 153.66 308.1 153.66 308.1 153.66 308.1 153.66 308.1 153.66 308.1 153.66 308.1 153.66 308.1 153.66 308.1 153.66 308.1 153.66 308.1 153.66 308.1 153.66 308.1 153.66 308.1 153.66 308.1 153.66 308.1 153.66 308.1 153.66 308.1 153.66 308.1 153.66 308.1 153.66 308.1 153.66 308.1 153.66 308.1 153.66 308.1 153.66 308.1 153.66 308.1 153.66 308.1 153.66 308.1 153.66 308.1 153.66 308.1 153.66 308.1 153.66 308.1 153.66 308.1 153.66 308.1 153.66 308.1 153.66 308.1 153.66 308.1 153.66 308.1 153.66 308.1 153.66 308.1 153.66 308.1 153.66 308.1 153.66 308.1 153.66 308.1 153.66 308.1 153.66 308.1 153.66 308.1 153.66 308.1 153.66 308.1 153.66 308.1 153.66 308.1 153.66 308.1 153.66 308.1 153.66"/>
  <g class="cls-22">
    <path class="cls-12" d="m224.5,161.64c.32-1.25.39-1.36,1.94-1.36h3.83c3.51,0,6.49,1.9,6.49,6.63,0,1.76-.72,7.63-3.76,11.58-1.04,1.33-3.87,4.05-8.28,4.05h-4.05c-.5,0-.57,0-.79-.04-.36-.04-.47-.07-.47-.36,0-.11,0-.18.18-.82l4.91-19.68m-7.74,19.21c-.36,1.4-.43,1.68-3.26,1.68-.61,0-1,0-1,.68,0,.43.32.43,1,.43h11.86c7.46,0,14.52-7.56,14.52-15.41,0-5.05-3.05-9.07-8.42-9.07h-12.04c-.68,0-1.07,0-1.07.68,0,.43.32.43,1.04.43.47,0,1.11.04,1.54.07.57.07.79.18.79.58,0,.14-.04.25-.14.68l-4.8,19.25Z"/>
  </g>
</svg>