<?xml version="1.0" encoding="UTF-8" standalone="no"?>
<!-- Created with Inkscape (http://www.inkscape.org/) -->

<svg
   width="8in"
   height="2.5in"
   viewBox="0 0 203.2 63.5"
   version="1.1"
   id="svg5"
   inkscape:version="1.2.1 (9c6d41e4, 2022-07-14)"
   sodipodi:docname="crud-release-1-total.svg"
   xmlns:inkscape="http://www.inkscape.org/namespaces/inkscape"
   xmlns:sodipodi="http://sodipodi.sourceforge.net/DTD/sodipodi-0.dtd"
   xmlns="http://www.w3.org/2000/svg"
   xmlns:svg="http://www.w3.org/2000/svg"
   xmlns:ns13="http://www.iki.fi/pav/software/textext/">
  <sodipodi:namedview
     id="namedview7"
     pagecolor="#ffffff"
     bordercolor="#000000"
     borderopacity="0.25"
     inkscape:showpageshadow="2"
     inkscape:pageopacity="0.0"
     inkscape:pagecheckerboard="0"
     inkscape:deskcolor="#d1d1d1"
     inkscape:document-units="mm"
     showgrid="true"
     showguides="true"
     inkscape:zoom="1"
     inkscape:cx="390.5"
     inkscape:cy="172"
     inkscape:window-width="1424"
     inkscape:window-height="788"
     inkscape:window-x="0"
     inkscape:window-y="25"
     inkscape:window-maximized="0"
     inkscape:current-layer="g27827">
    <sodipodi:guide
       position="53.517992,31.228851"
       orientation="0,-1"
       id="guide902"
       inkscape:locked="false" />
    <inkscape:grid
       type="xygrid"
       id="grid1267"
       units="in"
       spacingx="3.175"
       spacingy="3.175"
       empcolor="#2600e5"
       empopacity="0.30196078"
       empspacing="4"
       originx="0"
       originy="0" />
  </sodipodi:namedview>
  <defs
     id="defs2">
    <rect
       x="778"
       y="215"
       width="763"
       height="204"
       id="rect16282" />
    <rect
       x="14"
       y="-32"
       width="690"
       height="249"
       id="rect16270" />
    <marker
       style="overflow:visible"
       id="TriangleStart"
       refX="0"
       refY="0"
       orient="auto-start-reverse"
       inkscape:stockid="TriangleStart"
       markerWidth="3.3239999"
       markerHeight="3.8427744"
       viewBox="0 0 5.3244081 6.1553851"
       inkscape:isstock="true"
       inkscape:collect="always"
       preserveAspectRatio="xMidYMid">
      <path
         transform="scale(0.5)"
         style="fill:context-stroke;fill-rule:evenodd;stroke:context-stroke;stroke-width:1pt"
         d="M 5.77,0 -2.88,5 V -5 Z"
         id="path135" />
    </marker>
  </defs>
  <g
     inkscape:label="Layer 1"
     inkscape:groupmode="layer"
     id="layer1">
    <ellipse
       style="fill:none;stroke:#d40000;stroke-width:1.442;stroke-dasharray:none"
       id="path111"
       cx="44.317707"
       cy="42.333344"
       rx="9.6572914"
       ry="9.260416" />
    <ellipse
       style="opacity:0.3;fill:none;stroke:#d40000;stroke-width:1.442;stroke-dasharray:none"
       id="ellipse900"
       cx="152.26738"
       cy="42.333344"
       rx="9.6572914"
       ry="9.260416" />
    <path
       style="fill:none;stroke:#000000;stroke-width:1.0099;stroke-dasharray:none;marker-end:url(#TriangleStart)"
       d="M 2.4217026,42.914014 31.008511,42.863205"
       id="path2155"
       sodipodi:nodetypes="cc" />
    <path
       style="fill:none;stroke:#000000;stroke-width:1.18397;stroke-dasharray:none;marker-end:url(#TriangleStart)"
       d="m 55.014995,42.687553 84.145015,-0.02372"
       id="path2271"
       sodipodi:nodetypes="cc" />
    <path
       style="opacity:0.3;fill:none;stroke:#000000;stroke-width:1.04805;stroke-dasharray:none;marker-end:url(#TriangleStart)"
       d="m 163.07747,42.980199 35.09711,-0.04457"
       id="path2293"
       sodipodi:nodetypes="cc" />
    <path
       style="fill:none;stroke:#000000;stroke-width:0.946889;stroke-dasharray:none;marker-end:url(#TriangleStart)"
       d="m 44.415507,9.7007113 0.06375,20.0291747"
       id="path2321"
       sodipodi:nodetypes="cc" />
    <path
       style="opacity:0.3;fill:none;stroke:#000000;stroke-width:0.946889;stroke-dasharray:none;marker-end:url(#TriangleStart)"
       d="m 152.0772,9.5002693 0.0637,20.0291747"
       id="path2325"
       sodipodi:nodetypes="cc" />
    <text
       xml:space="preserve"
       style="font-size:7.05556px;opacity:0.98;fill:#000000;fill-opacity:1;stroke:none;stroke-width:0.944999"
       x="31.629734"
       y="7.929482"
       id="text2581"><tspan
         sodipodi:role="line"
         id="tspan2579"
         style="font-style:normal;font-variant:normal;font-weight:500;font-stretch:normal;font-size:7.05556px;font-family:Avenir;-inkscape-font-specification:'Avenir Medium';fill:#000000;fill-opacity:1;stroke:none;stroke-width:0.945"
         x="31.629734"
         y="7.929482">Factory 1</tspan></text>
    <text
       xml:space="preserve"
       style="font-size:7.05556px;opacity:0.3;fill:#000000;fill-opacity:1;stroke:none;stroke-width:0.944999"
       x="138.1765"
       y="7.5285983"
       id="text3051"><tspan
         sodipodi:role="line"
         id="tspan3049"
         style="font-style:normal;font-variant:normal;font-weight:500;font-stretch:normal;font-size:7.05556px;font-family:Avenir;-inkscape-font-specification:'Avenir Medium';fill:#000000;fill-opacity:1;stroke:none;stroke-width:0.945"
         x="138.1765"
         y="7.5285983">Factory 2</tspan></text>
    <text
       xml:space="preserve"
       transform="scale(0.26458333)"
       id="text16268"
       style="font-style:normal;font-variant:normal;font-weight:500;font-stretch:normal;font-size:26.6667px;font-family:Avenir;-inkscape-font-specification:'Avenir Medium';white-space:pre;shape-inside:url(#rect16270);display:inline;opacity:1;fill:#000000;fill-opacity:1;stroke:none;stroke-width:3.57165" />
    <g
       transform="matrix(0.705556,0,0,0.705556,2.3736,47.54235)"
       ns13:version="1.8.1"
       ns13:texconverter="pdflatex"
       ns13:pdfconverter="inkscape"
       ns13:text="\\color{blue} $\\mathbf{100}$ \\textbf{kg/d}"
       ns13:preamble="/Users/vs498/Library/Application Support/org.inkscape.Inkscape/config/inkscape/extensions/textext/default_packages.tex"
       ns13:scale="2.0"
       ns13:alignment="middle center"
       ns13:stroke-to-path="0"
       ns13:inkscapeversion="1.2.1"
       ns13:jacobian_sqrt="0.705556"
       id="g22955">
      <defs
         id="id-f1ecc864-6db8-46f6-9565-399315da66eb">
        <g
           id="id-aa79c6c7-f229-4b09-b130-1633e03b20de">
          <g
             id="id-e3be5700-a0b4-4550-9e1d-e4740959aab4" />
          <g
             id="id-31dde05c-c23e-4ee7-a302-9a15b5447ea1">
            <path
               d="m 3.53125,-6.203125 c 0,-0.234375 0,-0.328125 -0.265625,-0.328125 -0.109375,0 -0.125,0 -0.21875,0.078125 -0.765625,0.5625 -1.796875,0.5625 -2,0.5625 H 0.84375 v 0.46875 H 1.046875 C 1.203125,-5.421875 1.75,-5.4375 2.34375,-5.625 v 5.15625 H 0.953125 V 0 c 0.4375,-0.03125 1.5,-0.03125 1.984375,-0.03125 0.484375,0 1.546875,0 1.984375,0.03125 V -0.46875 H 3.53125 Z m 0,0"
               id="id-2e2a4f6f-5410-4b3c-826d-4883dc6ed4cf" />
          </g>
          <g
             id="id-23aca7cc-5e0d-4cd9-b180-c55ead38e02b">
            <path
               d="m 5.28125,-3.1875 c 0,-0.953125 -0.015625,-3.34375 -2.421875,-3.34375 -2.40625,0 -2.40625,2.375 -2.40625,3.34375 0,1 0,3.296875 2.40625,3.296875 C 5.25,0.109375 5.28125,-2.1875 5.28125,-3.1875 Z M 2.859375,-0.25 C 2.5,-0.25 1.9375,-0.46875 1.8125,-1.203125 1.71875,-1.71875 1.71875,-2.75 1.71875,-3.296875 c 0,-0.71875 0,-1.375 0.078125,-1.890625 0.125,-0.890625 0.828125,-0.984375 1.0625,-0.984375 0.375,0 0.78125,0.1875 0.96875,0.625 C 4,-5.171875 4,-4.109375 4,-3.296875 4,-2.734375 4,-1.828125 3.921875,-1.3125 3.78125,-0.390625 3.15625,-0.25 2.859375,-0.25 Z m 0,0"
               id="id-d6d494c7-4636-468d-a982-eaca4e067f62" />
          </g>
          <g
             id="id-d850946b-0927-4f5f-9dee-587b50772a5a">
            <path
               d="m 2.140625,-2.359375 v -4.5625 L 0.375,-6.84375 V -6.375 c 0.609375,0 0.6875,0 0.6875,0.390625 V -0.46875 H 0.375 V 0 c 0.359375,-0.015625 0.828125,-0.03125 1.1875,-0.03125 0.375,0 0.84375,0.015625 1.203125,0.03125 v -0.46875 h -0.6875 V -1.734375 C 2.375,-1.96875 2.453125,-2.03125 2.65625,-2.15625 l 1,1.25 c 0.09375,0.125 0.25,0.3125 0.25,0.34375 0,0.09375 -0.171875,0.09375 -0.3125,0.09375 V 0 c 0.296875,-0.015625 1.171875,-0.03125 1.21875,-0.03125 0.359375,0 0.703125,0.015625 1.046875,0.03125 V -0.46875 H 5.6875 c -0.4375,0 -0.46875,-0.046875 -0.59375,-0.203125 L 3.40625,-2.765625 4.703125,-3.78125 C 4.84375,-3.890625 4.9375,-3.953125 5.609375,-3.953125 v -0.46875 c -0.28125,0.03125 -0.53125,0.03125 -0.78125,0.03125 -0.265625,0 -0.921875,-0.03125 -1.15625,-0.03125 v 0.46875 c 0.234375,0 0.265625,0.03125 0.34375,0.109375 z m 0,0"
               id="id-cd43f90f-71ac-4056-a69f-d5cfdd8e0e26" />
          </g>
          <g
             id="id-543ce88b-d694-4c4a-896e-782af70ae5b2">
            <path
               d="m 2.546875,-1.890625 c -0.875,0 -0.875,-0.671875 -0.875,-1.125 0,-0.4375 0,-1.109375 0.875,-1.109375 0.875,0 0.875,0.671875 0.875,1.109375 0,0.453125 0,1.125 -0.875,1.125 z m -1.21875,0.09375 c 0.453125,0.234375 0.96875,0.265625 1.21875,0.265625 1.4375,0 1.984375,-0.78125 1.984375,-1.484375 0,-0.46875 -0.25,-0.796875 -0.40625,-0.953125 0.296875,-0.15625 0.515625,-0.171875 0.625,-0.1875 -0.03125,0.046875 -0.046875,0.140625 -0.046875,0.203125 0,0.25 0.171875,0.421875 0.4375,0.421875 0.25,0 0.421875,-0.1875 0.421875,-0.421875 0,-0.234375 -0.171875,-0.578125 -0.625,-0.578125 -0.15625,0 -0.625,0.03125 -1.0625,0.375 -0.171875,-0.125 -0.59375,-0.328125 -1.328125,-0.328125 -1.4375,0 -1.984375,0.78125 -1.984375,1.46875 0,0.40625 0.1875,0.828125 0.515625,1.046875 -0.28125,0.359375 -0.34375,0.6875 -0.34375,0.890625 0,0.15625 0.046875,0.640625 0.4375,0.953125 C 1.046875,-0.09375 0.3125,0.125 0.3125,0.75 0.3125,1.25 0.875,2 2.859375,2 4.625,2 5.40625,1.421875 5.40625,0.71875 c 0,-0.296875 -0.078125,-0.921875 -0.75,-1.265625 -0.5625,-0.28125 -1.15625,-0.28125 -2.109375,-0.28125 -0.265625,0 -0.71875,0 -0.765625,-0.015625 -0.453125,-0.0625 -0.5625,-0.4375 -0.5625,-0.625 0,-0.09375 0.046875,-0.25 0.109375,-0.328125 z M 1.9375,0.125 h 1.171875 c 0.3125,0 1.4375,0 1.4375,0.625 0,0.359375 -0.390625,0.890625 -1.6875,0.890625 -1.1875,0 -1.6875,-0.453125 -1.6875,-0.90625 C 1.171875,0.125 1.796875,0.125 1.9375,0.125 Z m 0,0"
               id="id-8c5dd36e-74ca-4b82-ad96-aef185ac6a49" />
          </g>
          <g
             id="id-330a7d15-2b0c-41c5-b65d-f0dcaa8bbd35">
            <path
               d="m 5.03125,-6.984375 c 0.046875,-0.109375 0.046875,-0.171875 0.046875,-0.1875 0,-0.1875 -0.15625,-0.3125 -0.296875,-0.3125 -0.203125,0 -0.25,0.140625 -0.3125,0.28125 L 0.6875,2 C 0.640625,2.109375 0.640625,2.171875 0.640625,2.1875 0.640625,2.375 0.796875,2.5 0.9375,2.5 1.140625,2.5 1.203125,2.359375 1.25,2.21875 Z m 0,0"
               id="id-d15c455a-b07f-4567-a393-01cf8ada3494" />
          </g>
          <g
             id="id-51f8abcf-ab28-4dee-b3d9-737345b34c0e">
            <path
               d="M 4.171875,-0.421875 V 0.0625 L 5.984375,0 v -0.46875 c -0.609375,0 -0.6875,0 -0.6875,-0.390625 v -6.0625 L 3.53125,-6.84375 V -6.375 c 0.625,0 0.703125,0 0.703125,0.390625 v 1.953125 c -0.5,-0.390625 -1.03125,-0.453125 -1.359375,-0.453125 -1.453125,0 -2.5,0.875 -2.5,2.28125 0,1.3125 0.921875,2.265625 2.390625,2.265625 0.609375,0 1.09375,-0.234375 1.40625,-0.484375 z m 0,-3.09375 V -1.03125 C 4.03125,-0.84375 3.625,-0.296875 2.875,-0.296875 c -1.21875,0 -1.21875,-1.203125 -1.21875,-1.90625 0,-0.484375 0,-1.015625 0.25,-1.40625 C 2.203125,-4.03125 2.671875,-4.125 2.984375,-4.125 c 0.5625,0 0.96875,0.3125 1.1875,0.609375 z m 0,0"
               id="id-e17d4a8b-68f3-4bbe-b248-d9865c84345f" />
          </g>
        </g>
      </defs>
      <g
         fill="#0000ff"
         fill-opacity="1"
         id="id-bfdb65b6-737b-4263-a17b-bc388727eb12"
         transform="translate(-149.556,-127.281)">
        <g
           transform="translate(148.712,134.765)"
           id="g22933">
          <path
             d="m 3.53125,-6.203125 c 0,-0.234375 0,-0.328125 -0.265625,-0.328125 -0.109375,0 -0.125,0 -0.21875,0.078125 -0.765625,0.5625 -1.796875,0.5625 -2,0.5625 H 0.84375 v 0.46875 H 1.046875 C 1.203125,-5.421875 1.75,-5.4375 2.34375,-5.625 v 5.15625 H 0.953125 V 0 c 0.4375,-0.03125 1.5,-0.03125 1.984375,-0.03125 0.484375,0 1.546875,0 1.984375,0.03125 V -0.46875 H 3.53125 Z m 0,0"
             id="id-e6f519aa-368e-4e98-bbae-0311d03a41fd" />
        </g>
        <g
           transform="translate(154.44,134.765)"
           id="g22936">
          <path
             d="m 5.28125,-3.1875 c 0,-0.953125 -0.015625,-3.34375 -2.421875,-3.34375 -2.40625,0 -2.40625,2.375 -2.40625,3.34375 0,1 0,3.296875 2.40625,3.296875 C 5.25,0.109375 5.28125,-2.1875 5.28125,-3.1875 Z M 2.859375,-0.25 C 2.5,-0.25 1.9375,-0.46875 1.8125,-1.203125 1.71875,-1.71875 1.71875,-2.75 1.71875,-3.296875 c 0,-0.71875 0,-1.375 0.078125,-1.890625 0.125,-0.890625 0.828125,-0.984375 1.0625,-0.984375 0.375,0 0.78125,0.1875 0.96875,0.625 C 4,-5.171875 4,-4.109375 4,-3.296875 4,-2.734375 4,-1.828125 3.921875,-1.3125 3.78125,-0.390625 3.15625,-0.25 2.859375,-0.25 Z m 0,0"
             id="id-3ffc3eee-41e9-4b8d-b00a-f501015b107d" />
        </g>
        <g
           transform="translate(160.169,134.765)"
           id="g22939">
          <path
             d="m 5.28125,-3.1875 c 0,-0.953125 -0.015625,-3.34375 -2.421875,-3.34375 -2.40625,0 -2.40625,2.375 -2.40625,3.34375 0,1 0,3.296875 2.40625,3.296875 C 5.25,0.109375 5.28125,-2.1875 5.28125,-3.1875 Z M 2.859375,-0.25 C 2.5,-0.25 1.9375,-0.46875 1.8125,-1.203125 1.71875,-1.71875 1.71875,-2.75 1.71875,-3.296875 c 0,-0.71875 0,-1.375 0.078125,-1.890625 0.125,-0.890625 0.828125,-0.984375 1.0625,-0.984375 0.375,0 0.78125,0.1875 0.96875,0.625 C 4,-5.171875 4,-4.109375 4,-3.296875 4,-2.734375 4,-1.828125 3.921875,-1.3125 3.78125,-0.390625 3.15625,-0.25 2.859375,-0.25 Z m 0,0"
             id="id-8e1ba8c0-02dc-4496-afc9-d74c24df154c" />
        </g>
      </g>
      <g
         fill="#0000ff"
         fill-opacity="1"
         id="id-bc3697d0-290f-4cf7-bc4c-45afb99fcd45"
         transform="translate(-149.556,-127.281)">
        <g
           transform="translate(169.215,134.765)"
           id="g22943">
          <path
             d="m 2.140625,-2.359375 v -4.5625 L 0.375,-6.84375 V -6.375 c 0.609375,0 0.6875,0 0.6875,0.390625 V -0.46875 H 0.375 V 0 c 0.359375,-0.015625 0.828125,-0.03125 1.1875,-0.03125 0.375,0 0.84375,0.015625 1.203125,0.03125 v -0.46875 h -0.6875 V -1.734375 C 2.375,-1.96875 2.453125,-2.03125 2.65625,-2.15625 l 1,1.25 c 0.09375,0.125 0.25,0.3125 0.25,0.34375 0,0.09375 -0.171875,0.09375 -0.3125,0.09375 V 0 c 0.296875,-0.015625 1.171875,-0.03125 1.21875,-0.03125 0.359375,0 0.703125,0.015625 1.046875,0.03125 V -0.46875 H 5.6875 c -0.4375,0 -0.46875,-0.046875 -0.59375,-0.203125 L 3.40625,-2.765625 4.703125,-3.78125 C 4.84375,-3.890625 4.9375,-3.953125 5.609375,-3.953125 v -0.46875 c -0.28125,0.03125 -0.53125,0.03125 -0.78125,0.03125 -0.265625,0 -0.921875,-0.03125 -1.15625,-0.03125 v 0.46875 c 0.234375,0 0.265625,0.03125 0.34375,0.109375 z m 0,0"
             id="id-a8ba591e-12d7-46a0-b0bd-86d1a9affce2" />
        </g>
        <g
           transform="translate(175.261,134.765)"
           id="g22946">
          <path
             d="m 2.546875,-1.890625 c -0.875,0 -0.875,-0.671875 -0.875,-1.125 0,-0.4375 0,-1.109375 0.875,-1.109375 0.875,0 0.875,0.671875 0.875,1.109375 0,0.453125 0,1.125 -0.875,1.125 z m -1.21875,0.09375 c 0.453125,0.234375 0.96875,0.265625 1.21875,0.265625 1.4375,0 1.984375,-0.78125 1.984375,-1.484375 0,-0.46875 -0.25,-0.796875 -0.40625,-0.953125 0.296875,-0.15625 0.515625,-0.171875 0.625,-0.1875 -0.03125,0.046875 -0.046875,0.140625 -0.046875,0.203125 0,0.25 0.171875,0.421875 0.4375,0.421875 0.25,0 0.421875,-0.1875 0.421875,-0.421875 0,-0.234375 -0.171875,-0.578125 -0.625,-0.578125 -0.15625,0 -0.625,0.03125 -1.0625,0.375 -0.171875,-0.125 -0.59375,-0.328125 -1.328125,-0.328125 -1.4375,0 -1.984375,0.78125 -1.984375,1.46875 0,0.40625 0.1875,0.828125 0.515625,1.046875 -0.28125,0.359375 -0.34375,0.6875 -0.34375,0.890625 0,0.15625 0.046875,0.640625 0.4375,0.953125 C 1.046875,-0.09375 0.3125,0.125 0.3125,0.75 0.3125,1.25 0.875,2 2.859375,2 4.625,2 5.40625,1.421875 5.40625,0.71875 c 0,-0.296875 -0.078125,-0.921875 -0.75,-1.265625 -0.5625,-0.28125 -1.15625,-0.28125 -2.109375,-0.28125 -0.265625,0 -0.71875,0 -0.765625,-0.015625 -0.453125,-0.0625 -0.5625,-0.4375 -0.5625,-0.625 0,-0.09375 0.046875,-0.25 0.109375,-0.328125 z M 1.9375,0.125 h 1.171875 c 0.3125,0 1.4375,0 1.4375,0.625 0,0.359375 -0.390625,0.890625 -1.6875,0.890625 -1.1875,0 -1.6875,-0.453125 -1.6875,-0.90625 C 1.171875,0.125 1.796875,0.125 1.9375,0.125 Z m 0,0"
             id="id-7b60ab61-4fb7-4702-963d-0a03f9b64134" />
        </g>
        <g
           transform="translate(180.99,134.765)"
           id="g22949">
          <path
             d="m 5.03125,-6.984375 c 0.046875,-0.109375 0.046875,-0.171875 0.046875,-0.1875 0,-0.1875 -0.15625,-0.3125 -0.296875,-0.3125 -0.203125,0 -0.25,0.140625 -0.3125,0.28125 L 0.6875,2 C 0.640625,2.109375 0.640625,2.171875 0.640625,2.1875 0.640625,2.375 0.796875,2.5 0.9375,2.5 1.140625,2.5 1.203125,2.359375 1.25,2.21875 Z m 0,0"
             id="id-10ab71e0-8cb2-4da7-a739-4dfad4b7dd6c" />
        </g>
        <g
           transform="translate(186.718,134.765)"
           id="g22952">
          <path
             d="M 4.171875,-0.421875 V 0.0625 L 5.984375,0 v -0.46875 c -0.609375,0 -0.6875,0 -0.6875,-0.390625 v -6.0625 L 3.53125,-6.84375 V -6.375 c 0.625,0 0.703125,0 0.703125,0.390625 v 1.953125 c -0.5,-0.390625 -1.03125,-0.453125 -1.359375,-0.453125 -1.453125,0 -2.5,0.875 -2.5,2.28125 0,1.3125 0.921875,2.265625 2.390625,2.265625 0.609375,0 1.09375,-0.234375 1.40625,-0.484375 z m 0,-3.09375 V -1.03125 C 4.03125,-0.84375 3.625,-0.296875 2.875,-0.296875 c -1.21875,0 -1.21875,-1.203125 -1.21875,-1.90625 0,-0.484375 0,-1.015625 0.25,-1.40625 C 2.203125,-4.03125 2.671875,-4.125 2.984375,-4.125 c 0.5625,0 0.96875,0.3125 1.1875,0.609375 z m 0,0"
             id="id-d4007e95-8cbe-4421-b254-ed9c3c6f1ba9" />
        </g>
      </g>
    </g>
    <g
       transform="matrix(0.705556 0 0 0.705556 47.6925 16.3215)"
       ns13:version="1.8.1"
       ns13:texconverter="pdflatex"
       ns13:pdfconverter="inkscape"
       ns13:text="\\color{red} $\\mathbf{100 + 1000(1-E_1)}$ \\textbf{kg/d}"
       ns13:preamble="/Users/vs498/Library/Application Support/org.inkscape.Inkscape/config/inkscape/extensions/textext/default_packages.tex"
       ns13:scale="2.0"
       ns13:alignment="middle center"
       ns13:stroke-to-path="0"
       ns13:inkscapeversion="1.2.1"
       ns13:jacobian_sqrt="0.705556"
       id="g27827">
      <defs
         id="id-35c45a38-48ee-4ee9-80f9-2a8dc26024f4">
        <g
           id="id-52bcf315-063c-4565-87bb-e65835ff75a1">
          <g
             id="id-04391db0-ee2c-4c73-a1c4-ffa18b5b55b4" />
          <g
             id="id-b33c4b6e-4790-4830-815c-4d9017ec3455">
            <path
               d="m 3.53125,-6.203125 c 0,-0.234375 0,-0.328125 -0.265625,-0.328125 -0.109375,0 -0.125,0 -0.21875,0.078125 -0.765625,0.5625 -1.796875,0.5625 -2,0.5625 H 0.84375 v 0.46875 H 1.046875 C 1.203125,-5.421875 1.75,-5.4375 2.34375,-5.625 v 5.15625 H 0.953125 V 0 c 0.4375,-0.03125 1.5,-0.03125 1.984375,-0.03125 0.484375,0 1.546875,0 1.984375,0.03125 V -0.46875 H 3.53125 Z m 0,0"
               id="id-5f562ad8-05aa-40c5-bd65-3b14dec156be" />
          </g>
          <g
             id="id-a9b55a60-c60f-47b4-8d38-2cff51d7e567">
            <path
               d="m 5.28125,-3.1875 c 0,-0.953125 -0.015625,-3.34375 -2.421875,-3.34375 -2.40625,0 -2.40625,2.375 -2.40625,3.34375 0,1 0,3.296875 2.40625,3.296875 C 5.25,0.109375 5.28125,-2.1875 5.28125,-3.1875 Z M 2.859375,-0.25 C 2.5,-0.25 1.9375,-0.46875 1.8125,-1.203125 1.71875,-1.71875 1.71875,-2.75 1.71875,-3.296875 c 0,-0.71875 0,-1.375 0.078125,-1.890625 0.125,-0.890625 0.828125,-0.984375 1.0625,-0.984375 0.375,0 0.78125,0.1875 0.96875,0.625 C 4,-5.171875 4,-4.109375 4,-3.296875 4,-2.734375 4,-1.828125 3.921875,-1.3125 3.78125,-0.390625 3.15625,-0.25 2.859375,-0.25 Z m 0,0"
               id="id-33dfa41f-1ce5-416f-8c62-fffb9d391aa3" />
          </g>
          <g
             id="id-3e27a181-be2a-4c1c-9cf4-422ec6f6638a">
            <path
               d="m 7.203125,-2.734375 h -0.46875 c -0.21875,1.375 -0.5,2.265625 -2.34375,2.265625 H 2.875 v -2.8125 h 0.546875 c 0.96875,0 1.0625,0.4375 1.0625,1.171875 h 0.46875 v -2.8125 h -0.46875 c 0,0.75 -0.09375,1.171875 -1.0625,1.171875 H 2.875 v -2.5625 h 1.515625 c 1.609375,0 1.875,0.734375 2.03125,1.9375 h 0.46875 l -0.3125,-2.40625 h -6.1875 V -6.3125 H 1.46875 v 5.84375 H 0.390625 V 0 H 6.75 Z m 0,0"
               id="id-c8167dc5-63ea-4c25-aa57-4f6396c8b28e" />
          </g>
          <g
             id="id-6d41b7e9-eb08-489e-ab52-d00aa20b681d">
            <path
               d="m 2.140625,-2.359375 v -4.5625 L 0.375,-6.84375 V -6.375 c 0.609375,0 0.6875,0 0.6875,0.390625 V -0.46875 H 0.375 V 0 c 0.359375,-0.015625 0.828125,-0.03125 1.1875,-0.03125 0.375,0 0.84375,0.015625 1.203125,0.03125 v -0.46875 h -0.6875 V -1.734375 C 2.375,-1.96875 2.453125,-2.03125 2.65625,-2.15625 l 1,1.25 c 0.09375,0.125 0.25,0.3125 0.25,0.34375 0,0.09375 -0.171875,0.09375 -0.3125,0.09375 V 0 c 0.296875,-0.015625 1.171875,-0.03125 1.21875,-0.03125 0.359375,0 0.703125,0.015625 1.046875,0.03125 V -0.46875 H 5.6875 c -0.4375,0 -0.46875,-0.046875 -0.59375,-0.203125 L 3.40625,-2.765625 4.703125,-3.78125 C 4.84375,-3.890625 4.9375,-3.953125 5.609375,-3.953125 v -0.46875 c -0.28125,0.03125 -0.53125,0.03125 -0.78125,0.03125 -0.265625,0 -0.921875,-0.03125 -1.15625,-0.03125 v 0.46875 c 0.234375,0 0.265625,0.03125 0.34375,0.109375 z m 0,0"
               id="id-72b036a0-62de-4b72-8ccf-bd6c6a6170ee" />
          </g>
          <g
             id="id-cbb36342-8e04-4fe9-922d-e4fcd6e6aba9">
            <path
               d="m 2.546875,-1.890625 c -0.875,0 -0.875,-0.671875 -0.875,-1.125 0,-0.4375 0,-1.109375 0.875,-1.109375 0.875,0 0.875,0.671875 0.875,1.109375 0,0.453125 0,1.125 -0.875,1.125 z m -1.21875,0.09375 c 0.453125,0.234375 0.96875,0.265625 1.21875,0.265625 1.4375,0 1.984375,-0.78125 1.984375,-1.484375 0,-0.46875 -0.25,-0.796875 -0.40625,-0.953125 0.296875,-0.15625 0.515625,-0.171875 0.625,-0.1875 -0.03125,0.046875 -0.046875,0.140625 -0.046875,0.203125 0,0.25 0.171875,0.421875 0.4375,0.421875 0.25,0 0.421875,-0.1875 0.421875,-0.421875 0,-0.234375 -0.171875,-0.578125 -0.625,-0.578125 -0.15625,0 -0.625,0.03125 -1.0625,0.375 -0.171875,-0.125 -0.59375,-0.328125 -1.328125,-0.328125 -1.4375,0 -1.984375,0.78125 -1.984375,1.46875 0,0.40625 0.1875,0.828125 0.515625,1.046875 -0.28125,0.359375 -0.34375,0.6875 -0.34375,0.890625 0,0.15625 0.046875,0.640625 0.4375,0.953125 C 1.046875,-0.09375 0.3125,0.125 0.3125,0.75 0.3125,1.25 0.875,2 2.859375,2 4.625,2 5.40625,1.421875 5.40625,0.71875 c 0,-0.296875 -0.078125,-0.921875 -0.75,-1.265625 -0.5625,-0.28125 -1.15625,-0.28125 -2.109375,-0.28125 -0.265625,0 -0.71875,0 -0.765625,-0.015625 -0.453125,-0.0625 -0.5625,-0.4375 -0.5625,-0.625 0,-0.09375 0.046875,-0.25 0.109375,-0.328125 z M 1.9375,0.125 h 1.171875 c 0.3125,0 1.4375,0 1.4375,0.625 0,0.359375 -0.390625,0.890625 -1.6875,0.890625 -1.1875,0 -1.6875,-0.453125 -1.6875,-0.90625 C 1.171875,0.125 1.796875,0.125 1.9375,0.125 Z m 0,0"
               id="id-ed6ada81-b5e3-41f0-8956-2d61eec939bc" />
          </g>
          <g
             id="id-5a1d0a71-0489-4852-aaec-ccddd2dfaa52">
            <path
               d="m 5.03125,-6.984375 c 0.046875,-0.109375 0.046875,-0.171875 0.046875,-0.1875 0,-0.1875 -0.15625,-0.3125 -0.296875,-0.3125 -0.203125,0 -0.25,0.140625 -0.3125,0.28125 L 0.6875,2 C 0.640625,2.109375 0.640625,2.171875 0.640625,2.1875 0.640625,2.375 0.796875,2.5 0.9375,2.5 1.140625,2.5 1.203125,2.359375 1.25,2.21875 Z m 0,0"
               id="id-322244f5-8107-4d2a-85b1-bb91e0b7a4a6" />
          </g>
          <g
             id="id-0e4ca3f3-1b35-474b-b674-5d4ce817eeb8">
            <path
               d="M 4.171875,-0.421875 V 0.0625 L 5.984375,0 v -0.46875 c -0.609375,0 -0.6875,0 -0.6875,-0.390625 v -6.0625 L 3.53125,-6.84375 V -6.375 c 0.625,0 0.703125,0 0.703125,0.390625 v 1.953125 c -0.5,-0.390625 -1.03125,-0.453125 -1.359375,-0.453125 -1.453125,0 -2.5,0.875 -2.5,2.28125 0,1.3125 0.921875,2.265625 2.390625,2.265625 0.609375,0 1.09375,-0.234375 1.40625,-0.484375 z m 0,-3.09375 V -1.03125 C 4.03125,-0.84375 3.625,-0.296875 2.875,-0.296875 c -1.21875,0 -1.21875,-1.203125 -1.21875,-1.90625 0,-0.484375 0,-1.015625 0.25,-1.40625 C 2.203125,-4.03125 2.671875,-4.125 2.984375,-4.125 c 0.5625,0 0.96875,0.3125 1.1875,0.609375 z m 0,0"
               id="id-a1af40ac-d3c9-405f-a7c0-ad6376778890" />
          </g>
          <g
             id="id-0c2603ce-5842-47e0-82b2-a3ab7e7fc89a" />
          <g
             id="id-237e267c-6595-4a60-a8a4-a6c585acde1f">
            <path
               d="m 4.078125,-2.296875 h 2.78125 C 7,-2.296875 7.1875,-2.296875 7.1875,-2.5 7.1875,-2.6875 7,-2.6875 6.859375,-2.6875 h -2.78125 v -2.796875 c 0,-0.140625 0,-0.328125 -0.203125,-0.328125 -0.203125,0 -0.203125,0.1875 -0.203125,0.328125 V -2.6875 h -2.78125 c -0.140625,0 -0.328125,0 -0.328125,0.1875 0,0.203125 0.1875,0.203125 0.328125,0.203125 h 2.78125 V 0.5 c 0,0.140625 0,0.328125 0.203125,0.328125 0.203125,0 0.203125,-0.1875 0.203125,-0.328125 z m 0,0"
               id="id-08e23978-607e-44e6-ad76-b7bd1c77eee2" />
          </g>
          <g
             id="id-de8b2310-c327-4645-8b59-c46f0b05761a">
            <path
               d="m 3.296875,2.390625 c 0,-0.03125 0,-0.046875 -0.171875,-0.21875 C 1.890625,0.921875 1.5625,-0.96875 1.5625,-2.5 c 0,-1.734375 0.375,-3.46875 1.609375,-4.703125 0.125,-0.125 0.125,-0.140625 0.125,-0.171875 0,-0.078125 -0.03125,-0.109375 -0.09375,-0.109375 -0.109375,0 -1,0.6875 -1.59375,1.953125 -0.5,1.09375 -0.625,2.203125 -0.625,3.03125 0,0.78125 0.109375,1.984375 0.65625,3.125 C 2.25,1.84375 3.09375,2.5 3.203125,2.5 c 0.0625,0 0.09375,-0.03125 0.09375,-0.109375 z m 0,0"
               id="id-792aa0df-fa5a-4fa8-a8c7-253046a46ba9" />
          </g>
          <g
             id="id-8723a740-7e21-4853-b13a-4b5ee2d17d11">
            <path
               d="m 2.875,-2.5 c 0,-0.765625 -0.109375,-1.96875 -0.65625,-3.109375 -0.59375,-1.21875 -1.453125,-1.875 -1.546875,-1.875 -0.0625,0 -0.109375,0.046875 -0.109375,0.109375 0,0.03125 0,0.046875 0.1875,0.234375 0.984375,0.984375 1.546875,2.5625 1.546875,4.640625 0,1.71875 -0.359375,3.46875 -1.59375,4.71875 C 0.5625,2.34375 0.5625,2.359375 0.5625,2.390625 0.5625,2.453125 0.609375,2.5 0.671875,2.5 0.765625,2.5 1.671875,1.8125 2.25,0.546875 2.765625,-0.546875 2.875,-1.65625 2.875,-2.5 Z m 0,0"
               id="id-8120b76a-b37e-4e3a-bd73-e33b113641ed" />
          </g>
          <g
             id="id-b9cee6fa-b9a7-426c-a129-d5484743809d" />
          <g
             id="id-c3f24a2d-f782-4d3e-993f-1fd826a4b116">
            <path
               d="m 6.5625,-2.296875 c 0.171875,0 0.359375,0 0.359375,-0.203125 0,-0.1875 -0.1875,-0.1875 -0.359375,-0.1875 H 1.171875 c -0.171875,0 -0.34375,0 -0.34375,0.1875 0,0.203125 0.171875,0.203125 0.34375,0.203125 z m 0,0"
               id="id-3949d9f4-184f-456b-8016-c31eb220910a" />
          </g>
          <g
             id="id-9a616891-2f51-48ae-be1d-3aea9f11a129" />
          <g
             id="id-e02ac7d8-20f3-4d62-9366-6d8f85b91b4b">
            <path
               d="m 2.78125,-4.328125 c 0,-0.25 -0.046875,-0.25 -0.34375,-0.25 C 2,-4.21875 1.4375,-4.125 0.875,-4.125 H 0.703125 v 0.390625 H 0.875 c 0.28125,0 0.703125,-0.046875 1,-0.140625 v 3.484375 H 0.78125 V 0 c 0.328125,-0.03125 1.171875,-0.03125 1.546875,-0.03125 0.25,0 0.5,0.015625 0.75,0.015625 0.21875,0 0.578125,0 0.78125,0.015625 V -0.390625 H 2.78125 Z m 0,0"
               id="id-452fc827-388c-4840-9fbb-aebfc041de68" />
          </g>
        </g>
      </defs>
      <g
         fill="#ff0000"
         fill-opacity="1"
         id="id-6c45fcc8-16e4-4db5-826c-aea789069227"
         transform="translate(-178.80598,-127.656)">
        <g
           transform="translate(178.074,134.765)"
           id="g27778">
          <path
             d="m 3.53125,-6.203125 c 0,-0.234375 0,-0.328125 -0.265625,-0.328125 -0.109375,0 -0.125,0 -0.21875,0.078125 -0.765625,0.5625 -1.796875,0.5625 -2,0.5625 H 0.84375 v 0.46875 H 1.046875 C 1.203125,-5.421875 1.75,-5.4375 2.34375,-5.625 v 5.15625 H 0.953125 V 0 c 0.4375,-0.03125 1.5,-0.03125 1.984375,-0.03125 0.484375,0 1.546875,0 1.984375,0.03125 V -0.46875 H 3.53125 Z m 0,0"
             id="id-fef660bd-198b-4984-b8ba-a58e45dcd5e7" />
        </g>
        <g
           transform="translate(183.802,134.765)"
           id="g27781">
          <path
             d="m 5.28125,-3.1875 c 0,-0.953125 -0.015625,-3.34375 -2.421875,-3.34375 -2.40625,0 -2.40625,2.375 -2.40625,3.34375 0,1 0,3.296875 2.40625,3.296875 C 5.25,0.109375 5.28125,-2.1875 5.28125,-3.1875 Z M 2.859375,-0.25 C 2.5,-0.25 1.9375,-0.46875 1.8125,-1.203125 1.71875,-1.71875 1.71875,-2.75 1.71875,-3.296875 c 0,-0.71875 0,-1.375 0.078125,-1.890625 0.125,-0.890625 0.828125,-0.984375 1.0625,-0.984375 0.375,0 0.78125,0.1875 0.96875,0.625 C 4,-5.171875 4,-4.109375 4,-3.296875 4,-2.734375 4,-1.828125 3.921875,-1.3125 3.78125,-0.390625 3.15625,-0.25 2.859375,-0.25 Z m 0,0"
             id="id-6753b589-5807-462b-bf14-de6ef9c5d843" />
        </g>
        <g
           transform="translate(189.531,134.765)"
           id="g27784">
          <path
             d="m 5.28125,-3.1875 c 0,-0.953125 -0.015625,-3.34375 -2.421875,-3.34375 -2.40625,0 -2.40625,2.375 -2.40625,3.34375 0,1 0,3.296875 2.40625,3.296875 C 5.25,0.109375 5.28125,-2.1875 5.28125,-3.1875 Z M 2.859375,-0.25 C 2.5,-0.25 1.9375,-0.46875 1.8125,-1.203125 1.71875,-1.71875 1.71875,-2.75 1.71875,-3.296875 c 0,-0.71875 0,-1.375 0.078125,-1.890625 0.125,-0.890625 0.828125,-0.984375 1.0625,-0.984375 0.375,0 0.78125,0.1875 0.96875,0.625 C 4,-5.171875 4,-4.109375 4,-3.296875 4,-2.734375 4,-1.828125 3.921875,-1.3125 3.78125,-0.390625 3.15625,-0.25 2.859375,-0.25 Z m 0,0"
             id="id-21624e59-fb26-40e8-97cc-9a893d2661d3" />
        </g>
        <g
           transform="translate(195.259,134.765)"
           id="g27787">
          <path
             d="m 5.28125,-3.1875 c 0,-0.953125 -0.015625,-3.34375 -2.421875,-3.34375 -2.40625,0 -2.40625,2.375 -2.40625,3.34375 0,1 0,3.296875 2.40625,3.296875 C 5.25,0.109375 5.28125,-2.1875 5.28125,-3.1875 Z M 2.859375,-0.25 C 2.5,-0.25 1.9375,-0.46875 1.8125,-1.203125 1.71875,-1.71875 1.71875,-2.75 1.71875,-3.296875 c 0,-0.71875 0,-1.375 0.078125,-1.890625 0.125,-0.890625 0.828125,-0.984375 1.0625,-0.984375 0.375,0 0.78125,0.1875 0.96875,0.625 C 4,-5.171875 4,-4.109375 4,-3.296875 4,-2.734375 4,-1.828125 3.921875,-1.3125 3.78125,-0.390625 3.15625,-0.25 2.859375,-0.25 Z m 0,0"
             id="id-d9514f47-45c8-47b1-9895-762fa5ca49d2" />
        </g>
      </g>
      <g
         fill="#ff0000"
         fill-opacity="1"
         id="id-8ff92d2c-da29-43fc-871c-2693cbc7558a"
         transform="translate(-178.80598,-127.656)">
        <g
           transform="translate(200.988,134.765)"
           id="g27791">
          <path
             d="m 3.296875,2.390625 c 0,-0.03125 0,-0.046875 -0.171875,-0.21875 C 1.890625,0.921875 1.5625,-0.96875 1.5625,-2.5 c 0,-1.734375 0.375,-3.46875 1.609375,-4.703125 0.125,-0.125 0.125,-0.140625 0.125,-0.171875 0,-0.078125 -0.03125,-0.109375 -0.09375,-0.109375 -0.109375,0 -1,0.6875 -1.59375,1.953125 -0.5,1.09375 -0.625,2.203125 -0.625,3.03125 0,0.78125 0.109375,1.984375 0.65625,3.125 C 2.25,1.84375 3.09375,2.5 3.203125,2.5 c 0.0625,0 0.09375,-0.03125 0.09375,-0.109375 z m 0,0"
             id="id-ef88a87b-5759-473a-9e20-e2d9af11eccd" />
        </g>
      </g>
      <g
         fill="#ff0000"
         fill-opacity="1"
         id="id-5ddfaf46-063b-4450-b4b6-2e5eafe0a22f"
         transform="translate(-178.80598,-127.656)">
        <g
           transform="translate(204.863,134.765)"
           id="g27795">
          <path
             d="m 3.53125,-6.203125 c 0,-0.234375 0,-0.328125 -0.265625,-0.328125 -0.109375,0 -0.125,0 -0.21875,0.078125 -0.765625,0.5625 -1.796875,0.5625 -2,0.5625 H 0.84375 v 0.46875 H 1.046875 C 1.203125,-5.421875 1.75,-5.4375 2.34375,-5.625 v 5.15625 H 0.953125 V 0 c 0.4375,-0.03125 1.5,-0.03125 1.984375,-0.03125 0.484375,0 1.546875,0 1.984375,0.03125 V -0.46875 H 3.53125 Z m 0,0"
             id="id-3eef4c3d-0165-416d-a8c2-ea4325ca960f" />
        </g>
      </g>
      <g
         fill="#ff0000"
         fill-opacity="1"
         id="id-05a606ae-f186-4fff-a0f3-6c379f1b63bd"
         transform="translate(-178.80598,-127.656)">
        <g
           transform="translate(212.805,134.765)"
           id="g27799">
          <path
             d="m 6.5625,-2.296875 c 0.171875,0 0.359375,0 0.359375,-0.203125 0,-0.1875 -0.1875,-0.1875 -0.359375,-0.1875 H 1.171875 c -0.171875,0 -0.34375,0 -0.34375,0.1875 0,0.203125 0.171875,0.203125 0.34375,0.203125 z m 0,0"
             id="id-d2584701-f893-4939-a164-5c85856fb990" />
        </g>
      </g>
      <g
         fill="#ff0000"
         fill-opacity="1"
         id="id-c8bd5773-2a24-496e-b78b-86fa71ef167f"
         transform="translate(-178.80598,-127.656)">
        <g
           transform="translate(222.768,134.765)"
           id="g27803">
          <path
             d="m 7.203125,-2.734375 h -0.46875 c -0.21875,1.375 -0.5,2.265625 -2.34375,2.265625 H 2.875 v -2.8125 h 0.546875 c 0.96875,0 1.0625,0.4375 1.0625,1.171875 h 0.46875 v -2.8125 h -0.46875 c 0,0.75 -0.09375,1.171875 -1.0625,1.171875 H 2.875 v -2.5625 h 1.515625 c 1.609375,0 1.875,0.734375 2.03125,1.9375 h 0.46875 l -0.3125,-2.40625 h -6.1875 V -6.3125 H 1.46875 v 5.84375 H 0.390625 V 0 H 6.75 Z m 0,0"
             id="id-0a849044-1d37-4d88-af58-892e104f6895" />
        </g>
      </g>
      <g
         fill="#ff0000"
         fill-opacity="1"
         id="id-f433523b-18eb-4351-9b2a-2ee5bb697868"
         transform="translate(-178.80598,-127.656)">
        <g
           transform="translate(230.295,136.259)"
           id="g27807">
          <path
             d="m 2.78125,-4.328125 c 0,-0.25 -0.046875,-0.25 -0.34375,-0.25 C 2,-4.21875 1.4375,-4.125 0.875,-4.125 H 0.703125 v 0.390625 H 0.875 c 0.28125,0 0.703125,-0.046875 1,-0.140625 v 3.484375 H 0.78125 V 0 c 0.328125,-0.03125 1.171875,-0.03125 1.546875,-0.03125 0.25,0 0.5,0.015625 0.75,0.015625 0.21875,0 0.578125,0 0.78125,0.015625 V -0.390625 H 2.78125 Z m 0,0"
             id="id-4e153d54-8a4c-4d55-985a-cd6d73db628d" />
        </g>
      </g>
      <g
         fill="#ff0000"
         fill-opacity="1"
         id="id-487af52d-e2df-427e-b3e7-a99cc33eddac"
         transform="translate(-178.80598,-127.656)">
        <g
           transform="translate(235.307,134.765)"
           id="g27811">
          <path
             d="m 2.875,-2.5 c 0,-0.765625 -0.109375,-1.96875 -0.65625,-3.109375 -0.59375,-1.21875 -1.453125,-1.875 -1.546875,-1.875 -0.0625,0 -0.109375,0.046875 -0.109375,0.109375 0,0.03125 0,0.046875 0.1875,0.234375 0.984375,0.984375 1.546875,2.5625 1.546875,4.640625 0,1.71875 -0.359375,3.46875 -1.59375,4.71875 C 0.5625,2.34375 0.5625,2.359375 0.5625,2.390625 0.5625,2.453125 0.609375,2.5 0.671875,2.5 0.765625,2.5 1.671875,1.8125 2.25,0.546875 2.765625,-0.546875 2.875,-1.65625 2.875,-2.5 Z m 0,0"
             id="id-2bc3e860-b63e-42fa-b245-fd145efb45dd" />
        </g>
      </g>
      <g
         fill="#ff0000"
         fill-opacity="1"
         id="id-e968bf93-3407-4089-8f5d-3a1ac7f6c9a0"
         transform="translate(-178.80598,-127.656)">
        <g
           transform="translate(242.502,134.765)"
           id="g27815">
          <path
             d="m 2.140625,-2.359375 v -4.5625 L 0.375,-6.84375 V -6.375 c 0.609375,0 0.6875,0 0.6875,0.390625 V -0.46875 H 0.375 V 0 c 0.359375,-0.015625 0.828125,-0.03125 1.1875,-0.03125 0.375,0 0.84375,0.015625 1.203125,0.03125 v -0.46875 h -0.6875 V -1.734375 C 2.375,-1.96875 2.453125,-2.03125 2.65625,-2.15625 l 1,1.25 c 0.09375,0.125 0.25,0.3125 0.25,0.34375 0,0.09375 -0.171875,0.09375 -0.3125,0.09375 V 0 c 0.296875,-0.015625 1.171875,-0.03125 1.21875,-0.03125 0.359375,0 0.703125,0.015625 1.046875,0.03125 V -0.46875 H 5.6875 c -0.4375,0 -0.46875,-0.046875 -0.59375,-0.203125 L 3.40625,-2.765625 4.703125,-3.78125 C 4.84375,-3.890625 4.9375,-3.953125 5.609375,-3.953125 v -0.46875 c -0.28125,0.03125 -0.53125,0.03125 -0.78125,0.03125 -0.265625,0 -0.921875,-0.03125 -1.15625,-0.03125 v 0.46875 c 0.234375,0 0.265625,0.03125 0.34375,0.109375 z m 0,0"
             id="id-79f8b2a8-e470-4c51-9e37-f676991a3f74" />
        </g>
        <g
           transform="translate(248.548,134.765)"
           id="g27818">
          <path
             d="m 2.546875,-1.890625 c -0.875,0 -0.875,-0.671875 -0.875,-1.125 0,-0.4375 0,-1.109375 0.875,-1.109375 0.875,0 0.875,0.671875 0.875,1.109375 0,0.453125 0,1.125 -0.875,1.125 z m -1.21875,0.09375 c 0.453125,0.234375 0.96875,0.265625 1.21875,0.265625 1.4375,0 1.984375,-0.78125 1.984375,-1.484375 0,-0.46875 -0.25,-0.796875 -0.40625,-0.953125 0.296875,-0.15625 0.515625,-0.171875 0.625,-0.1875 -0.03125,0.046875 -0.046875,0.140625 -0.046875,0.203125 0,0.25 0.171875,0.421875 0.4375,0.421875 0.25,0 0.421875,-0.1875 0.421875,-0.421875 0,-0.234375 -0.171875,-0.578125 -0.625,-0.578125 -0.15625,0 -0.625,0.03125 -1.0625,0.375 -0.171875,-0.125 -0.59375,-0.328125 -1.328125,-0.328125 -1.4375,0 -1.984375,0.78125 -1.984375,1.46875 0,0.40625 0.1875,0.828125 0.515625,1.046875 -0.28125,0.359375 -0.34375,0.6875 -0.34375,0.890625 0,0.15625 0.046875,0.640625 0.4375,0.953125 C 1.046875,-0.09375 0.3125,0.125 0.3125,0.75 0.3125,1.25 0.875,2 2.859375,2 4.625,2 5.40625,1.421875 5.40625,0.71875 c 0,-0.296875 -0.078125,-0.921875 -0.75,-1.265625 -0.5625,-0.28125 -1.15625,-0.28125 -2.109375,-0.28125 -0.265625,0 -0.71875,0 -0.765625,-0.015625 -0.453125,-0.0625 -0.5625,-0.4375 -0.5625,-0.625 0,-0.09375 0.046875,-0.25 0.109375,-0.328125 z M 1.9375,0.125 h 1.171875 c 0.3125,0 1.4375,0 1.4375,0.625 0,0.359375 -0.390625,0.890625 -1.6875,0.890625 -1.1875,0 -1.6875,-0.453125 -1.6875,-0.90625 C 1.171875,0.125 1.796875,0.125 1.9375,0.125 Z m 0,0"
             id="id-6ee37bce-c8a1-4b78-ac78-1dc2646a00b2" />
        </g>
        <g
           transform="translate(254.277,134.765)"
           id="g27821">
          <path
             d="m 5.03125,-6.984375 c 0.046875,-0.109375 0.046875,-0.171875 0.046875,-0.1875 0,-0.1875 -0.15625,-0.3125 -0.296875,-0.3125 -0.203125,0 -0.25,0.140625 -0.3125,0.28125 L 0.6875,2 C 0.640625,2.109375 0.640625,2.171875 0.640625,2.1875 0.640625,2.375 0.796875,2.5 0.9375,2.5 1.140625,2.5 1.203125,2.359375 1.25,2.21875 Z m 0,0"
             id="id-a788fd28-2747-4319-8387-7d87e54b3c96" />
        </g>
        <g
           transform="translate(260.005,134.765)"
           id="g27824">
          <path
             d="M 4.171875,-0.421875 V 0.0625 L 5.984375,0 v -0.46875 c -0.609375,0 -0.6875,0 -0.6875,-0.390625 v -6.0625 L 3.53125,-6.84375 V -6.375 c 0.625,0 0.703125,0 0.703125,0.390625 v 1.953125 c -0.5,-0.390625 -1.03125,-0.453125 -1.359375,-0.453125 -1.453125,0 -2.5,0.875 -2.5,2.28125 0,1.3125 0.921875,2.265625 2.390625,2.265625 0.609375,0 1.09375,-0.234375 1.40625,-0.484375 z m 0,-3.09375 V -1.03125 C 4.03125,-0.84375 3.625,-0.296875 2.875,-0.296875 c -1.21875,0 -1.21875,-1.203125 -1.21875,-1.90625 0,-0.484375 0,-1.015625 0.25,-1.40625 C 2.203125,-4.03125 2.671875,-4.125 2.984375,-4.125 c 0.5625,0 0.96875,0.3125 1.1875,0.609375 z m 0,0"
             id="id-6b323d07-ba26-4443-a196-2536942ac27a" />
        </g>
      </g>
      <g
         transform="translate(-5.9999831,52.49989)"
         ns13:version="1.8.1"
         ns13:texconverter="pdflatex"
         ns13:pdfconverter="inkscape"
         ns13:text="$\\mathbf{100 + 1000(1-E_1)}$ \\textbf{kg/d}"
         ns13:preamble="/Users/vs498/Library/Application Support/org.inkscape.Inkscape/config/inkscape/extensions/textext/default_packages.tex"
         ns13:scale="2.0"
         ns13:alignment="middle center"
         ns13:stroke-to-path="0"
         ns13:inkscapeversion="1.2.1"
         ns13:jacobian_sqrt="1.0"
         id="g32855">
        <defs
           id="id-359493ba-0caa-4c40-bfd4-db1438c05d77">
          <g
             id="id-73447ad2-ef3c-43fc-ba0b-8ba1dd6bfe26">
            <g
               id="id-9840ca68-0963-470e-97af-59a3f9eb51d1" />
            <g
               id="id-fc85c659-0810-479b-826d-9616fc638a7f">
              <path
                 d="m 3.53125,-6.203125 c 0,-0.234375 0,-0.328125 -0.265625,-0.328125 -0.109375,0 -0.125,0 -0.21875,0.078125 -0.765625,0.5625 -1.796875,0.5625 -2,0.5625 H 0.84375 v 0.46875 H 1.046875 C 1.203125,-5.421875 1.75,-5.4375 2.34375,-5.625 v 5.15625 H 0.953125 V 0 c 0.4375,-0.03125 1.5,-0.03125 1.984375,-0.03125 0.484375,0 1.546875,0 1.984375,0.03125 V -0.46875 H 3.53125 Z m 0,0"
                 id="id-f758f281-6123-4a0f-8ade-fd078e44822d" />
            </g>
            <g
               id="id-7c517db8-4fab-49f8-86c0-ae0b5bf341f6">
              <path
                 d="m 5.28125,-3.1875 c 0,-0.953125 -0.015625,-3.34375 -2.421875,-3.34375 -2.40625,0 -2.40625,2.375 -2.40625,3.34375 0,1 0,3.296875 2.40625,3.296875 C 5.25,0.109375 5.28125,-2.1875 5.28125,-3.1875 Z M 2.859375,-0.25 C 2.5,-0.25 1.9375,-0.46875 1.8125,-1.203125 1.71875,-1.71875 1.71875,-2.75 1.71875,-3.296875 c 0,-0.71875 0,-1.375 0.078125,-1.890625 0.125,-0.890625 0.828125,-0.984375 1.0625,-0.984375 0.375,0 0.78125,0.1875 0.96875,0.625 C 4,-5.171875 4,-4.109375 4,-3.296875 4,-2.734375 4,-1.828125 3.921875,-1.3125 3.78125,-0.390625 3.15625,-0.25 2.859375,-0.25 Z m 0,0"
                 id="id-2d3eae30-389e-4a1d-9679-37f7fff979b2" />
            </g>
            <g
               id="id-00fc7a2c-e22b-4fd6-b405-327b905ee1a4">
              <path
                 d="m 7.203125,-2.734375 h -0.46875 c -0.21875,1.375 -0.5,2.265625 -2.34375,2.265625 H 2.875 v -2.8125 h 0.546875 c 0.96875,0 1.0625,0.4375 1.0625,1.171875 h 0.46875 v -2.8125 h -0.46875 c 0,0.75 -0.09375,1.171875 -1.0625,1.171875 H 2.875 v -2.5625 h 1.515625 c 1.609375,0 1.875,0.734375 2.03125,1.9375 h 0.46875 l -0.3125,-2.40625 h -6.1875 V -6.3125 H 1.46875 v 5.84375 H 0.390625 V 0 H 6.75 Z m 0,0"
                 id="id-b6333f19-306e-46c9-8def-10f924d4536d" />
            </g>
            <g
               id="id-d90f3df5-ee5e-4c54-8b20-667aa57fb214">
              <path
                 d="m 2.140625,-2.359375 v -4.5625 L 0.375,-6.84375 V -6.375 c 0.609375,0 0.6875,0 0.6875,0.390625 V -0.46875 H 0.375 V 0 c 0.359375,-0.015625 0.828125,-0.03125 1.1875,-0.03125 0.375,0 0.84375,0.015625 1.203125,0.03125 v -0.46875 h -0.6875 V -1.734375 C 2.375,-1.96875 2.453125,-2.03125 2.65625,-2.15625 l 1,1.25 c 0.09375,0.125 0.25,0.3125 0.25,0.34375 0,0.09375 -0.171875,0.09375 -0.3125,0.09375 V 0 c 0.296875,-0.015625 1.171875,-0.03125 1.21875,-0.03125 0.359375,0 0.703125,0.015625 1.046875,0.03125 V -0.46875 H 5.6875 c -0.4375,0 -0.46875,-0.046875 -0.59375,-0.203125 L 3.40625,-2.765625 4.703125,-3.78125 C 4.84375,-3.890625 4.9375,-3.953125 5.609375,-3.953125 v -0.46875 c -0.28125,0.03125 -0.53125,0.03125 -0.78125,0.03125 -0.265625,0 -0.921875,-0.03125 -1.15625,-0.03125 v 0.46875 c 0.234375,0 0.265625,0.03125 0.34375,0.109375 z m 0,0"
                 id="id-98fb6726-a21f-44b9-b872-6aad470b6963" />
            </g>
            <g
               id="id-54604784-83d2-4e55-8675-81f95caf5eb9">
              <path
                 d="m 2.546875,-1.890625 c -0.875,0 -0.875,-0.671875 -0.875,-1.125 0,-0.4375 0,-1.109375 0.875,-1.109375 0.875,0 0.875,0.671875 0.875,1.109375 0,0.453125 0,1.125 -0.875,1.125 z m -1.21875,0.09375 c 0.453125,0.234375 0.96875,0.265625 1.21875,0.265625 1.4375,0 1.984375,-0.78125 1.984375,-1.484375 0,-0.46875 -0.25,-0.796875 -0.40625,-0.953125 0.296875,-0.15625 0.515625,-0.171875 0.625,-0.1875 -0.03125,0.046875 -0.046875,0.140625 -0.046875,0.203125 0,0.25 0.171875,0.421875 0.4375,0.421875 0.25,0 0.421875,-0.1875 0.421875,-0.421875 0,-0.234375 -0.171875,-0.578125 -0.625,-0.578125 -0.15625,0 -0.625,0.03125 -1.0625,0.375 -0.171875,-0.125 -0.59375,-0.328125 -1.328125,-0.328125 -1.4375,0 -1.984375,0.78125 -1.984375,1.46875 0,0.40625 0.1875,0.828125 0.515625,1.046875 -0.28125,0.359375 -0.34375,0.6875 -0.34375,0.890625 0,0.15625 0.046875,0.640625 0.4375,0.953125 C 1.046875,-0.09375 0.3125,0.125 0.3125,0.75 0.3125,1.25 0.875,2 2.859375,2 4.625,2 5.40625,1.421875 5.40625,0.71875 c 0,-0.296875 -0.078125,-0.921875 -0.75,-1.265625 -0.5625,-0.28125 -1.15625,-0.28125 -2.109375,-0.28125 -0.265625,0 -0.71875,0 -0.765625,-0.015625 -0.453125,-0.0625 -0.5625,-0.4375 -0.5625,-0.625 0,-0.09375 0.046875,-0.25 0.109375,-0.328125 z M 1.9375,0.125 h 1.171875 c 0.3125,0 1.4375,0 1.4375,0.625 0,0.359375 -0.390625,0.890625 -1.6875,0.890625 -1.1875,0 -1.6875,-0.453125 -1.6875,-0.90625 C 1.171875,0.125 1.796875,0.125 1.9375,0.125 Z m 0,0"
                 id="id-ab706e01-4479-43f6-ba26-4fe7c78654f5" />
            </g>
            <g
               id="id-3176495c-88d6-431e-877e-f7c728685e99">
              <path
                 d="m 5.03125,-6.984375 c 0.046875,-0.109375 0.046875,-0.171875 0.046875,-0.1875 0,-0.1875 -0.15625,-0.3125 -0.296875,-0.3125 -0.203125,0 -0.25,0.140625 -0.3125,0.28125 L 0.6875,2 C 0.640625,2.109375 0.640625,2.171875 0.640625,2.1875 0.640625,2.375 0.796875,2.5 0.9375,2.5 1.140625,2.5 1.203125,2.359375 1.25,2.21875 Z m 0,0"
                 id="id-a2a259d6-450f-41f1-95f9-5225e52f29be" />
            </g>
            <g
               id="id-66a7ba82-492e-41e0-a9d2-ba09c6592fcc">
              <path
                 d="M 4.171875,-0.421875 V 0.0625 L 5.984375,0 v -0.46875 c -0.609375,0 -0.6875,0 -0.6875,-0.390625 v -6.0625 L 3.53125,-6.84375 V -6.375 c 0.625,0 0.703125,0 0.703125,0.390625 v 1.953125 c -0.5,-0.390625 -1.03125,-0.453125 -1.359375,-0.453125 -1.453125,0 -2.5,0.875 -2.5,2.28125 0,1.3125 0.921875,2.265625 2.390625,2.265625 0.609375,0 1.09375,-0.234375 1.40625,-0.484375 z m 0,-3.09375 V -1.03125 C 4.03125,-0.84375 3.625,-0.296875 2.875,-0.296875 c -1.21875,0 -1.21875,-1.203125 -1.21875,-1.90625 0,-0.484375 0,-1.015625 0.25,-1.40625 C 2.203125,-4.03125 2.671875,-4.125 2.984375,-4.125 c 0.5625,0 0.96875,0.3125 1.1875,0.609375 z m 0,0"
                 id="id-5c290b13-68d2-4b50-a335-1420633116b8" />
            </g>
            <g
               id="id-32ad4039-e6ec-481f-9334-a4b42989ee98" />
            <g
               id="id-341a1193-9643-4af8-aeef-cb78bf3d19f8">
              <path
                 d="m 4.078125,-2.296875 h 2.78125 C 7,-2.296875 7.1875,-2.296875 7.1875,-2.5 7.1875,-2.6875 7,-2.6875 6.859375,-2.6875 h -2.78125 v -2.796875 c 0,-0.140625 0,-0.328125 -0.203125,-0.328125 -0.203125,0 -0.203125,0.1875 -0.203125,0.328125 V -2.6875 h -2.78125 c -0.140625,0 -0.328125,0 -0.328125,0.1875 0,0.203125 0.1875,0.203125 0.328125,0.203125 h 2.78125 V 0.5 c 0,0.140625 0,0.328125 0.203125,0.328125 0.203125,0 0.203125,-0.1875 0.203125,-0.328125 z m 0,0"
                 id="id-f0aa1d35-048e-4124-818b-10d0bbf37e29" />
            </g>
            <g
               id="id-c8c5474c-519f-4842-8390-08e8fe293591">
              <path
                 d="m 3.296875,2.390625 c 0,-0.03125 0,-0.046875 -0.171875,-0.21875 C 1.890625,0.921875 1.5625,-0.96875 1.5625,-2.5 c 0,-1.734375 0.375,-3.46875 1.609375,-4.703125 0.125,-0.125 0.125,-0.140625 0.125,-0.171875 0,-0.078125 -0.03125,-0.109375 -0.09375,-0.109375 -0.109375,0 -1,0.6875 -1.59375,1.953125 -0.5,1.09375 -0.625,2.203125 -0.625,3.03125 0,0.78125 0.109375,1.984375 0.65625,3.125 C 2.25,1.84375 3.09375,2.5 3.203125,2.5 c 0.0625,0 0.09375,-0.03125 0.09375,-0.109375 z m 0,0"
                 id="id-8574c37b-ffd2-4bc7-aec9-f3bf7cedfb8b" />
            </g>
            <g
               id="id-60eb392a-929c-4023-80cf-984233074047">
              <path
                 d="m 2.875,-2.5 c 0,-0.765625 -0.109375,-1.96875 -0.65625,-3.109375 -0.59375,-1.21875 -1.453125,-1.875 -1.546875,-1.875 -0.0625,0 -0.109375,0.046875 -0.109375,0.109375 0,0.03125 0,0.046875 0.1875,0.234375 0.984375,0.984375 1.546875,2.5625 1.546875,4.640625 0,1.71875 -0.359375,3.46875 -1.59375,4.71875 C 0.5625,2.34375 0.5625,2.359375 0.5625,2.390625 0.5625,2.453125 0.609375,2.5 0.671875,2.5 0.765625,2.5 1.671875,1.8125 2.25,0.546875 2.765625,-0.546875 2.875,-1.65625 2.875,-2.5 Z m 0,0"
                 id="id-3138cf1f-3287-41e2-805d-2e7cd5304154" />
            </g>
            <g
               id="id-a45a9821-2113-4142-ab21-0b209bebd7d5" />
            <g
               id="id-9128ba9b-464a-497d-8be2-e2e4d6583284">
              <path
                 d="m 6.5625,-2.296875 c 0.171875,0 0.359375,0 0.359375,-0.203125 0,-0.1875 -0.1875,-0.1875 -0.359375,-0.1875 H 1.171875 c -0.171875,0 -0.34375,0 -0.34375,0.1875 0,0.203125 0.171875,0.203125 0.34375,0.203125 z m 0,0"
                 id="id-c4c6f941-8f09-4fd2-8266-a05669e3f641" />
            </g>
            <g
               id="id-49fe8fdb-ca6a-4f0b-a821-05dc9040ca8e" />
            <g
               id="id-9d87ede6-8441-4497-bbcc-622ec3cbedb6">
              <path
                 d="m 2.78125,-4.328125 c 0,-0.25 -0.046875,-0.25 -0.34375,-0.25 C 2,-4.21875 1.4375,-4.125 0.875,-4.125 H 0.703125 v 0.390625 H 0.875 c 0.28125,0 0.703125,-0.046875 1,-0.140625 v 3.484375 H 0.78125 V 0 c 0.328125,-0.03125 1.171875,-0.03125 1.546875,-0.03125 0.25,0 0.5,0.015625 0.75,0.015625 0.21875,0 0.578125,0 0.78125,0.015625 V -0.390625 H 2.78125 Z m 0,0"
                 id="id-c0d00b36-4d7f-4336-a10c-46835c154074" />
            </g>
          </g>
        </defs>
        <g
           fill="#000000"
           fill-opacity="1"
           id="id-7f9d2499-2bb8-4e96-ab82-f7840f276e98"
           transform="translate(-149.556,-127.281)">
          <g
             transform="translate(148.712,134.765)"
             id="g32792">
            <path
               d="m 3.53125,-6.203125 c 0,-0.234375 0,-0.328125 -0.265625,-0.328125 -0.109375,0 -0.125,0 -0.21875,0.078125 -0.765625,0.5625 -1.796875,0.5625 -2,0.5625 H 0.84375 v 0.46875 H 1.046875 C 1.203125,-5.421875 1.75,-5.4375 2.34375,-5.625 v 5.15625 H 0.953125 V 0 c 0.4375,-0.03125 1.5,-0.03125 1.984375,-0.03125 0.484375,0 1.546875,0 1.984375,0.03125 V -0.46875 H 3.53125 Z m 0,0"
               id="id-3fdca212-dd6d-48d0-9075-753689419786" />
          </g>
          <g
             transform="translate(154.44,134.765)"
             id="g32795">
            <path
               d="m 5.28125,-3.1875 c 0,-0.953125 -0.015625,-3.34375 -2.421875,-3.34375 -2.40625,0 -2.40625,2.375 -2.40625,3.34375 0,1 0,3.296875 2.40625,3.296875 C 5.25,0.109375 5.28125,-2.1875 5.28125,-3.1875 Z M 2.859375,-0.25 C 2.5,-0.25 1.9375,-0.46875 1.8125,-1.203125 1.71875,-1.71875 1.71875,-2.75 1.71875,-3.296875 c 0,-0.71875 0,-1.375 0.078125,-1.890625 0.125,-0.890625 0.828125,-0.984375 1.0625,-0.984375 0.375,0 0.78125,0.1875 0.96875,0.625 C 4,-5.171875 4,-4.109375 4,-3.296875 4,-2.734375 4,-1.828125 3.921875,-1.3125 3.78125,-0.390625 3.15625,-0.25 2.859375,-0.25 Z m 0,0"
               id="id-5728aeb3-a83a-4d06-bf3d-b091f5d668d2" />
          </g>
          <g
             transform="translate(160.169,134.765)"
             id="g32798">
            <path
               d="m 5.28125,-3.1875 c 0,-0.953125 -0.015625,-3.34375 -2.421875,-3.34375 -2.40625,0 -2.40625,2.375 -2.40625,3.34375 0,1 0,3.296875 2.40625,3.296875 C 5.25,0.109375 5.28125,-2.1875 5.28125,-3.1875 Z M 2.859375,-0.25 C 2.5,-0.25 1.9375,-0.46875 1.8125,-1.203125 1.71875,-1.71875 1.71875,-2.75 1.71875,-3.296875 c 0,-0.71875 0,-1.375 0.078125,-1.890625 0.125,-0.890625 0.828125,-0.984375 1.0625,-0.984375 0.375,0 0.78125,0.1875 0.96875,0.625 C 4,-5.171875 4,-4.109375 4,-3.296875 4,-2.734375 4,-1.828125 3.921875,-1.3125 3.78125,-0.390625 3.15625,-0.25 2.859375,-0.25 Z m 0,0"
               id="id-1ccce2f7-6afb-4488-bcb9-baed5e05c144" />
          </g>
        </g>
        <g
           fill="#000000"
           fill-opacity="1"
           id="id-d93ff3c1-c580-4407-9b1a-531b86aad944"
           transform="translate(-149.556,-127.281)">
          <g
             transform="translate(168.112,134.765)"
             id="g32802">
            <path
               d="m 4.078125,-2.296875 h 2.78125 C 7,-2.296875 7.1875,-2.296875 7.1875,-2.5 7.1875,-2.6875 7,-2.6875 6.859375,-2.6875 h -2.78125 v -2.796875 c 0,-0.140625 0,-0.328125 -0.203125,-0.328125 -0.203125,0 -0.203125,0.1875 -0.203125,0.328125 V -2.6875 h -2.78125 c -0.140625,0 -0.328125,0 -0.328125,0.1875 0,0.203125 0.1875,0.203125 0.328125,0.203125 h 2.78125 V 0.5 c 0,0.140625 0,0.328125 0.203125,0.328125 0.203125,0 0.203125,-0.1875 0.203125,-0.328125 z m 0,0"
               id="id-8df308d0-9f64-4cde-aaee-4f107f8c49a9" />
          </g>
        </g>
        <g
           fill="#000000"
           fill-opacity="1"
           id="id-7ce03a23-0d2f-4219-ab82-b11d659b59bc"
           transform="translate(-149.556,-127.281)">
          <g
             transform="translate(178.074,134.765)"
             id="g32806">
            <path
               d="m 3.53125,-6.203125 c 0,-0.234375 0,-0.328125 -0.265625,-0.328125 -0.109375,0 -0.125,0 -0.21875,0.078125 -0.765625,0.5625 -1.796875,0.5625 -2,0.5625 H 0.84375 v 0.46875 H 1.046875 C 1.203125,-5.421875 1.75,-5.4375 2.34375,-5.625 v 5.15625 H 0.953125 V 0 c 0.4375,-0.03125 1.5,-0.03125 1.984375,-0.03125 0.484375,0 1.546875,0 1.984375,0.03125 V -0.46875 H 3.53125 Z m 0,0"
               id="id-4db5989d-d6c7-4182-bc28-a8561399d800" />
          </g>
          <g
             transform="translate(183.802,134.765)"
             id="g32809">
            <path
               d="m 5.28125,-3.1875 c 0,-0.953125 -0.015625,-3.34375 -2.421875,-3.34375 -2.40625,0 -2.40625,2.375 -2.40625,3.34375 0,1 0,3.296875 2.40625,3.296875 C 5.25,0.109375 5.28125,-2.1875 5.28125,-3.1875 Z M 2.859375,-0.25 C 2.5,-0.25 1.9375,-0.46875 1.8125,-1.203125 1.71875,-1.71875 1.71875,-2.75 1.71875,-3.296875 c 0,-0.71875 0,-1.375 0.078125,-1.890625 0.125,-0.890625 0.828125,-0.984375 1.0625,-0.984375 0.375,0 0.78125,0.1875 0.96875,0.625 C 4,-5.171875 4,-4.109375 4,-3.296875 4,-2.734375 4,-1.828125 3.921875,-1.3125 3.78125,-0.390625 3.15625,-0.25 2.859375,-0.25 Z m 0,0"
               id="id-0eae704a-c378-457d-80d6-1a0cfae9a663" />
          </g>
          <g
             transform="translate(189.531,134.765)"
             id="g32812">
            <path
               d="m 5.28125,-3.1875 c 0,-0.953125 -0.015625,-3.34375 -2.421875,-3.34375 -2.40625,0 -2.40625,2.375 -2.40625,3.34375 0,1 0,3.296875 2.40625,3.296875 C 5.25,0.109375 5.28125,-2.1875 5.28125,-3.1875 Z M 2.859375,-0.25 C 2.5,-0.25 1.9375,-0.46875 1.8125,-1.203125 1.71875,-1.71875 1.71875,-2.75 1.71875,-3.296875 c 0,-0.71875 0,-1.375 0.078125,-1.890625 0.125,-0.890625 0.828125,-0.984375 1.0625,-0.984375 0.375,0 0.78125,0.1875 0.96875,0.625 C 4,-5.171875 4,-4.109375 4,-3.296875 4,-2.734375 4,-1.828125 3.921875,-1.3125 3.78125,-0.390625 3.15625,-0.25 2.859375,-0.25 Z m 0,0"
               id="id-1f0de49d-5891-4e54-9954-738f4e672be0" />
          </g>
          <g
             transform="translate(195.259,134.765)"
             id="g32815">
            <path
               d="m 5.28125,-3.1875 c 0,-0.953125 -0.015625,-3.34375 -2.421875,-3.34375 -2.40625,0 -2.40625,2.375 -2.40625,3.34375 0,1 0,3.296875 2.40625,3.296875 C 5.25,0.109375 5.28125,-2.1875 5.28125,-3.1875 Z M 2.859375,-0.25 C 2.5,-0.25 1.9375,-0.46875 1.8125,-1.203125 1.71875,-1.71875 1.71875,-2.75 1.71875,-3.296875 c 0,-0.71875 0,-1.375 0.078125,-1.890625 0.125,-0.890625 0.828125,-0.984375 1.0625,-0.984375 0.375,0 0.78125,0.1875 0.96875,0.625 C 4,-5.171875 4,-4.109375 4,-3.296875 4,-2.734375 4,-1.828125 3.921875,-1.3125 3.78125,-0.390625 3.15625,-0.25 2.859375,-0.25 Z m 0,0"
               id="id-1f1d9976-e274-4e84-912c-abbac40a81d3" />
          </g>
        </g>
        <g
           fill="#000000"
           fill-opacity="1"
           id="id-d7f27e4c-562f-4178-a6ec-32d97b96d56c"
           transform="translate(-149.556,-127.281)">
          <g
             transform="translate(200.988,134.765)"
             id="g32819">
            <path
               d="m 3.296875,2.390625 c 0,-0.03125 0,-0.046875 -0.171875,-0.21875 C 1.890625,0.921875 1.5625,-0.96875 1.5625,-2.5 c 0,-1.734375 0.375,-3.46875 1.609375,-4.703125 0.125,-0.125 0.125,-0.140625 0.125,-0.171875 0,-0.078125 -0.03125,-0.109375 -0.09375,-0.109375 -0.109375,0 -1,0.6875 -1.59375,1.953125 -0.5,1.09375 -0.625,2.203125 -0.625,3.03125 0,0.78125 0.109375,1.984375 0.65625,3.125 C 2.25,1.84375 3.09375,2.5 3.203125,2.5 c 0.0625,0 0.09375,-0.03125 0.09375,-0.109375 z m 0,0"
               id="id-d967e5b3-8206-45f1-a389-d0212227a8d5" />
          </g>
        </g>
        <g
           fill="#000000"
           fill-opacity="1"
           id="id-e4ed3d36-a6a3-42ea-bd71-77b63ce16eb1"
           transform="translate(-149.556,-127.281)">
          <g
             transform="translate(204.863,134.765)"
             id="g32823">
            <path
               d="m 3.53125,-6.203125 c 0,-0.234375 0,-0.328125 -0.265625,-0.328125 -0.109375,0 -0.125,0 -0.21875,0.078125 -0.765625,0.5625 -1.796875,0.5625 -2,0.5625 H 0.84375 v 0.46875 H 1.046875 C 1.203125,-5.421875 1.75,-5.4375 2.34375,-5.625 v 5.15625 H 0.953125 V 0 c 0.4375,-0.03125 1.5,-0.03125 1.984375,-0.03125 0.484375,0 1.546875,0 1.984375,0.03125 V -0.46875 H 3.53125 Z m 0,0"
               id="id-90b296a5-258d-40dc-ba6e-2bef8e476ae2" />
          </g>
        </g>
        <g
           fill="#000000"
           fill-opacity="1"
           id="id-78d49c4e-cebe-4d6b-a82c-d023da58671c"
           transform="translate(-149.556,-127.281)">
          <g
             transform="translate(212.805,134.765)"
             id="g32827">
            <path
               d="m 6.5625,-2.296875 c 0.171875,0 0.359375,0 0.359375,-0.203125 0,-0.1875 -0.1875,-0.1875 -0.359375,-0.1875 H 1.171875 c -0.171875,0 -0.34375,0 -0.34375,0.1875 0,0.203125 0.171875,0.203125 0.34375,0.203125 z m 0,0"
               id="id-e77aa209-3cd2-456a-9ca1-a9f10c69fdfa" />
          </g>
        </g>
        <g
           fill="#000000"
           fill-opacity="1"
           id="id-8feffc26-98a3-4cc1-bff4-769fa49592d1"
           transform="translate(-149.556,-127.281)">
          <g
             transform="translate(222.768,134.765)"
             id="g32831">
            <path
               d="m 7.203125,-2.734375 h -0.46875 c -0.21875,1.375 -0.5,2.265625 -2.34375,2.265625 H 2.875 v -2.8125 h 0.546875 c 0.96875,0 1.0625,0.4375 1.0625,1.171875 h 0.46875 v -2.8125 h -0.46875 c 0,0.75 -0.09375,1.171875 -1.0625,1.171875 H 2.875 v -2.5625 h 1.515625 c 1.609375,0 1.875,0.734375 2.03125,1.9375 h 0.46875 l -0.3125,-2.40625 h -6.1875 V -6.3125 H 1.46875 v 5.84375 H 0.390625 V 0 H 6.75 Z m 0,0"
               id="id-387fa340-07f6-48ef-951a-7c2a0b7cc939" />
          </g>
        </g>
        <g
           fill="#000000"
           fill-opacity="1"
           id="id-785b9c78-ae97-4e30-851a-0fb233f9202a"
           transform="translate(-149.556,-127.281)">
          <g
             transform="translate(230.295,136.259)"
             id="g32835">
            <path
               d="m 2.78125,-4.328125 c 0,-0.25 -0.046875,-0.25 -0.34375,-0.25 C 2,-4.21875 1.4375,-4.125 0.875,-4.125 H 0.703125 v 0.390625 H 0.875 c 0.28125,0 0.703125,-0.046875 1,-0.140625 v 3.484375 H 0.78125 V 0 c 0.328125,-0.03125 1.171875,-0.03125 1.546875,-0.03125 0.25,0 0.5,0.015625 0.75,0.015625 0.21875,0 0.578125,0 0.78125,0.015625 V -0.390625 H 2.78125 Z m 0,0"
               id="id-1fe44dd8-3cbf-4607-9a4f-7437276dc3dc" />
          </g>
        </g>
        <g
           fill="#000000"
           fill-opacity="1"
           id="id-64fbe20c-5f17-4ec6-9c98-ee00ddffd3bf"
           transform="translate(-149.556,-127.281)">
          <g
             transform="translate(235.307,134.765)"
             id="g32839">
            <path
               d="m 2.875,-2.5 c 0,-0.765625 -0.109375,-1.96875 -0.65625,-3.109375 -0.59375,-1.21875 -1.453125,-1.875 -1.546875,-1.875 -0.0625,0 -0.109375,0.046875 -0.109375,0.109375 0,0.03125 0,0.046875 0.1875,0.234375 0.984375,0.984375 1.546875,2.5625 1.546875,4.640625 0,1.71875 -0.359375,3.46875 -1.59375,4.71875 C 0.5625,2.34375 0.5625,2.359375 0.5625,2.390625 0.5625,2.453125 0.609375,2.5 0.671875,2.5 0.765625,2.5 1.671875,1.8125 2.25,0.546875 2.765625,-0.546875 2.875,-1.65625 2.875,-2.5 Z m 0,0"
               id="id-21f0dd1e-74bb-4464-996f-5a85ea95b7de" />
          </g>
        </g>
        <g
           fill="#000000"
           fill-opacity="1"
           id="id-230ab1c6-a339-4377-8c96-b24c4ade3c79"
           transform="translate(-149.556,-127.281)">
          <g
             transform="translate(242.502,134.765)"
             id="g32843">
            <path
               d="m 2.140625,-2.359375 v -4.5625 L 0.375,-6.84375 V -6.375 c 0.609375,0 0.6875,0 0.6875,0.390625 V -0.46875 H 0.375 V 0 c 0.359375,-0.015625 0.828125,-0.03125 1.1875,-0.03125 0.375,0 0.84375,0.015625 1.203125,0.03125 v -0.46875 h -0.6875 V -1.734375 C 2.375,-1.96875 2.453125,-2.03125 2.65625,-2.15625 l 1,1.25 c 0.09375,0.125 0.25,0.3125 0.25,0.34375 0,0.09375 -0.171875,0.09375 -0.3125,0.09375 V 0 c 0.296875,-0.015625 1.171875,-0.03125 1.21875,-0.03125 0.359375,0 0.703125,0.015625 1.046875,0.03125 V -0.46875 H 5.6875 c -0.4375,0 -0.46875,-0.046875 -0.59375,-0.203125 L 3.40625,-2.765625 4.703125,-3.78125 C 4.84375,-3.890625 4.9375,-3.953125 5.609375,-3.953125 v -0.46875 c -0.28125,0.03125 -0.53125,0.03125 -0.78125,0.03125 -0.265625,0 -0.921875,-0.03125 -1.15625,-0.03125 v 0.46875 c 0.234375,0 0.265625,0.03125 0.34375,0.109375 z m 0,0"
               id="id-9c2c9fde-e496-4a15-816a-ef8cadf9db9a" />
          </g>
          <g
             transform="translate(248.548,134.765)"
             id="g32846">
            <path
               d="m 2.546875,-1.890625 c -0.875,0 -0.875,-0.671875 -0.875,-1.125 0,-0.4375 0,-1.109375 0.875,-1.109375 0.875,0 0.875,0.671875 0.875,1.109375 0,0.453125 0,1.125 -0.875,1.125 z m -1.21875,0.09375 c 0.453125,0.234375 0.96875,0.265625 1.21875,0.265625 1.4375,0 1.984375,-0.78125 1.984375,-1.484375 0,-0.46875 -0.25,-0.796875 -0.40625,-0.953125 0.296875,-0.15625 0.515625,-0.171875 0.625,-0.1875 -0.03125,0.046875 -0.046875,0.140625 -0.046875,0.203125 0,0.25 0.171875,0.421875 0.4375,0.421875 0.25,0 0.421875,-0.1875 0.421875,-0.421875 0,-0.234375 -0.171875,-0.578125 -0.625,-0.578125 -0.15625,0 -0.625,0.03125 -1.0625,0.375 -0.171875,-0.125 -0.59375,-0.328125 -1.328125,-0.328125 -1.4375,0 -1.984375,0.78125 -1.984375,1.46875 0,0.40625 0.1875,0.828125 0.515625,1.046875 -0.28125,0.359375 -0.34375,0.6875 -0.34375,0.890625 0,0.15625 0.046875,0.640625 0.4375,0.953125 C 1.046875,-0.09375 0.3125,0.125 0.3125,0.75 0.3125,1.25 0.875,2 2.859375,2 4.625,2 5.40625,1.421875 5.40625,0.71875 c 0,-0.296875 -0.078125,-0.921875 -0.75,-1.265625 -0.5625,-0.28125 -1.15625,-0.28125 -2.109375,-0.28125 -0.265625,0 -0.71875,0 -0.765625,-0.015625 -0.453125,-0.0625 -0.5625,-0.4375 -0.5625,-0.625 0,-0.09375 0.046875,-0.25 0.109375,-0.328125 z M 1.9375,0.125 h 1.171875 c 0.3125,0 1.4375,0 1.4375,0.625 0,0.359375 -0.390625,0.890625 -1.6875,0.890625 -1.1875,0 -1.6875,-0.453125 -1.6875,-0.90625 C 1.171875,0.125 1.796875,0.125 1.9375,0.125 Z m 0,0"
               id="id-6aeddbb1-daec-4022-832a-6812a4811ec3" />
          </g>
          <g
             transform="translate(254.277,134.765)"
             id="g32849">
            <path
               d="m 5.03125,-6.984375 c 0.046875,-0.109375 0.046875,-0.171875 0.046875,-0.1875 0,-0.1875 -0.15625,-0.3125 -0.296875,-0.3125 -0.203125,0 -0.25,0.140625 -0.3125,0.28125 L 0.6875,2 C 0.640625,2.109375 0.640625,2.171875 0.640625,2.1875 0.640625,2.375 0.796875,2.5 0.9375,2.5 1.140625,2.5 1.203125,2.359375 1.25,2.21875 Z m 0,0"
               id="id-ff1a3a57-1bf3-4732-91df-f6d2c55dfba0" />
          </g>
          <g
             transform="translate(260.005,134.765)"
             id="g32852">
            <path
               d="M 4.171875,-0.421875 V 0.0625 L 5.984375,0 v -0.46875 c -0.609375,0 -0.6875,0 -0.6875,-0.390625 v -6.0625 L 3.53125,-6.84375 V -6.375 c 0.625,0 0.703125,0 0.703125,0.390625 v 1.953125 c -0.5,-0.390625 -1.03125,-0.453125 -1.359375,-0.453125 -1.453125,0 -2.5,0.875 -2.5,2.28125 0,1.3125 0.921875,2.265625 2.390625,2.265625 0.609375,0 1.09375,-0.234375 1.40625,-0.484375 z m 0,-3.09375 V -1.03125 C 4.03125,-0.84375 3.625,-0.296875 2.875,-0.296875 c -1.21875,0 -1.21875,-1.203125 -1.21875,-1.90625 0,-0.484375 0,-1.015625 0.25,-1.40625 C 2.203125,-4.03125 2.671875,-4.125 2.984375,-4.125 c 0.5625,0 0.96875,0.3125 1.1875,0.609375 z m 0,0"
               id="id-28e85f15-1972-47eb-b06f-ea22a6d42e4f" />
          </g>
        </g>
      </g>
    </g>
  </g>
</svg>
