<?xml version="1.0" encoding="UTF-8"?>
<svg id="Layer_1" data-name="Layer 1" xmlns="http://www.w3.org/2000/svg" viewBox="0 0 958.85 404.35">
  <defs>
    <style>
      .cls-1, .cls-2, .cls-3, .cls-4 {
        stroke-width: 3px;
      }

      .cls-1, .cls-2, .cls-3, .cls-4, .cls-5, .cls-6, .cls-7, .cls-8 {
        fill: none;
        stroke-miterlimit: 10;
      }

      .cls-1, .cls-4, .cls-6 {
        stroke: #009444;
      }

      .cls-2, .cls-3, .cls-7 {
        stroke: #006838;
      }

      .cls-9, .cls-10 {
        fill: #006838;
      }

      .cls-11, .cls-12 {
        fill: #009444;
      }

      .cls-13, .cls-14 {
        fill: #ed1c24;
      }

      .cls-15 {
        letter-spacing: -.01em;
      }

      .cls-3, .cls-4 {
        stroke-dasharray: 0 0 12.53 12.53;
      }

      .cls-16 {
        letter-spacing: 0em;
      }

      .cls-5 {
        stroke: #ed1c24;
      }

      .cls-5, .cls-6, .cls-7 {
        stroke-width: 4px;
      }

      .cls-17 {
        letter-spacing: 0em;
      }

      .cls-18 {
        letter-spacing: 0em;
      }

      .cls-19 {
        letter-spacing: -.02em;
      }

      .cls-12, .cls-10, .cls-14 {
        font-family: IBMPlexSans-Regular, 'IBM Plex Sans';
        font-size: 36px;
      }

      .cls-20 {
        letter-spacing: 0em;
      }

      .cls-8 {
        opacity: 0;
        stroke: #000;
        stroke-width: 0px;
      }
    </style>
  </defs>
  <line class="cls-6" x1="774.51" y1="201.92" x2="958.85" y2="201.92"/>
  <polyline class="cls-7" points="174.34 201.92 553.16 201.92 670.73 201.92"/>
  <g>
    <line class="cls-5" x1="724.94" y1="43.7" x2="724.94" y2="183.09"/>
    <path class="cls-13" d="m724.94,201.92c-3.29-8.86-8.9-19.85-14.84-26.67l14.84,5.37,14.84-5.37c-5.94,6.81-11.55,17.81-14.84,26.67Z"/>
  </g>
  <text class="cls-14" transform="translate(585.87 30.56)"><tspan class="cls-20" x="0" y="0">W</tspan><tspan x="31.72" y="0">a</tspan><tspan class="cls-18" x="50.94" y="0">s</tspan><tspan class="cls-17" x="68.22" y="0">t</tspan><tspan x="80.71" y="0">e </tspan><tspan class="cls-19" x="108.97" y="0">R</tspan><tspan x="131.47" y="0">elease 2</tspan></text>
  <g>
    <line class="cls-5" x1="139.07" y1="44.13" x2="139.07" y2="183.52"/>
    <path class="cls-13" d="m139.07,202.35c-3.29-8.86-8.9-19.85-14.84-26.67l14.84,5.37,14.84-5.37c-5.94,6.81-11.55,17.81-14.84,26.67Z"/>
  </g>
  <text class="cls-14" transform="translate(0 31)"><tspan class="cls-20" x="0" y="0">W</tspan><tspan x="31.72" y="0">a</tspan><tspan class="cls-18" x="50.94" y="0">s</tspan><tspan class="cls-17" x="68.22" y="0">t</tspan><tspan x="80.71" y="0">e </tspan><tspan class="cls-19" x="108.97" y="0">R</tspan><tspan x="131.47" y="0">elease 1</tspan></text>
  <polygon class="cls-8" points="593.53 95.75 593.53 95.75 593.53 95.75 593.53 95.75 593.53 95.75 593.53 95.75 593.53 95.75 593.53 95.75 593.53 95.75 593.53 95.75 593.53 95.75 593.53 95.75 593.53 95.75 593.53 95.75 593.53 95.75 593.53 95.75 593.53 95.75 593.53 95.75 593.53 95.75 593.53 95.75 593.53 95.75 593.53 95.75 593.53 95.75 593.53 95.75 593.53 95.75 593.53 95.75 593.53 95.75 593.53 95.75 593.53 95.75 593.53 95.75 593.53 95.75 593.53 95.75 593.53 95.75 593.53 95.75 593.53 95.75 593.53 95.75 593.53 95.75 593.53 95.75 593.53 95.75 593.53 95.75 593.53 95.75 593.53 95.75 593.53 95.75 593.53 95.75 593.53 95.75 593.53 95.75 593.53 95.75 593.53 95.75 593.53 95.75 593.53 95.75 593.53 95.75 593.53 95.75 593.53 95.75 593.53 95.75 593.53 95.75 593.53 95.75 593.53 95.75 593.53 95.75 593.53 95.75 593.53 95.75 593.53 95.75 593.53 95.75 593.53 95.75 593.53 95.75 593.53 95.75 593.53 95.75 593.53 95.75 593.53 95.75 593.53 95.75 593.53 95.75 593.53 95.75 593.53 95.75 593.53 95.75 593.53 95.75 593.53 95.75 593.53 95.75 593.53 95.75 593.53 95.75 593.53 95.75 593.53 95.75 593.53 95.75 593.53 95.75 593.53 95.75 593.53 95.75 593.53 95.75 593.53 95.75 593.53 95.75 593.53 95.75 593.53 95.75 593.53 95.75 593.53 95.75"/>
  <g>
    <line class="cls-2" x1="174.34" y1="201.92" x2="174.34" y2="207.92"/>
    <line class="cls-3" x1="174.34" y1="220.45" x2="174.34" y2="389.65"/>
    <line class="cls-2" x1="174.34" y1="395.92" x2="174.34" y2="401.92"/>
  </g>
  <g>
    <line class="cls-2" x1="670.73" y1="202.35" x2="670.73" y2="208.35"/>
    <line class="cls-3" x1="670.73" y1="220.88" x2="670.73" y2="390.08"/>
    <line class="cls-2" x1="670.73" y1="396.35" x2="670.73" y2="402.35"/>
  </g>
  <g>
    <line class="cls-1" x1="774.51" y1="202.35" x2="774.51" y2="208.35"/>
    <line class="cls-4" x1="774.51" y1="220.88" x2="774.51" y2="390.08"/>
    <line class="cls-1" x1="774.51" y1="396.35" x2="774.51" y2="402.35"/>
  </g>
  <g>
    <line class="cls-2" x1="615.93" y1="301.92" x2="684.82" y2="301.92"/>
    <path class="cls-9" d="m699.85,301.92c-7.07,2.62-15.84,7.1-21.28,11.84l4.28-11.84-4.28-11.84c5.44,4.74,14.21,9.22,21.28,11.84Z"/>
  </g>
  <g>
    <line class="cls-2" x1="132.38" y1="301.92" x2="201.27" y2="301.92"/>
    <path class="cls-9" d="m216.3,301.92c-7.07,2.62-15.84,7.1-21.28,11.84l4.28-11.84-4.28-11.84c5.44,4.74,14.21,9.22,21.28,11.84Z"/>
  </g>
  <g>
    <line class="cls-1" x1="732.55" y1="302.35" x2="801.44" y2="302.35"/>
    <path class="cls-11" d="m816.47,302.35c-7.07,2.62-15.84,7.1-21.28,11.84l4.28-11.84-4.28-11.84c5.44,4.74,14.21,9.22,21.28,11.84Z"/>
  </g>
  <polyline class="cls-7" points="174.34 402.35 553.16 402.35 670.73 402.35"/>
  <line class="cls-6" x1="774.51" y1="400.78" x2="958.85" y2="400.78"/>
  <text class="cls-12" transform="translate(845.42 187.46)"><tspan x="0" y="0">B</tspan><tspan class="cls-15" x="23.51" y="0">o</tspan><tspan class="cls-16" x="43.24" y="0">x 2</tspan></text>
  <text class="cls-10" transform="translate(354.21 187.89)"><tspan x="0" y="0">B</tspan><tspan class="cls-15" x="23.51" y="0">o</tspan><tspan class="cls-16" x="43.24" y="0">x 1</tspan></text>
</svg>