<?xml version="1.0" encoding="utf-8"?>
<svg xmlns="http://www.w3.org/2000/svg" xmlns:xlink="http://www.w3.org/1999/xlink" width="600" height="400" viewBox="0 0 2400 1600">
<defs>
  <clipPath id="clip180">
    <rect x="0" y="0" width="2400" height="1600"/>
  </clipPath>
</defs>
<path clip-path="url(#clip180)" d="
M0 1600 L2400 1600 L2400 0 L0 0  Z
  " fill="#ffffff" fill-rule="evenodd" fill-opacity="1"/>
<defs>
  <clipPath id="clip181">
    <rect x="480" y="0" width="1681" height="1600"/>
  </clipPath>
</defs>
<path clip-path="url(#clip180)" d="
M276.908 1433.33 L2352.76 1433.33 L2352.76 47.2441 L276.908 47.2441  Z
  " fill="#ffffff" fill-rule="evenodd" fill-opacity="1"/>
<defs>
  <clipPath id="clip182">
    <rect x="276" y="47" width="2077" height="1387"/>
  </clipPath>
</defs>
<polyline clip-path="url(#clip180)" style="stroke:#000000; stroke-linecap:round; stroke-linejoin:round; stroke-width:4; stroke-opacity:1; fill:none" points="
  276.908,1433.33 2352.76,1433.33 
  "/>
<path clip-path="url(#clip180)" d="M726.363 1501.59 L726.363 1582.22 L743.307 1582.22 Q764.766 1582.22 774.696 1572.49 Q784.696 1562.77 784.696 1541.8 Q784.696 1520.97 774.696 1511.31 Q764.766 1501.59 743.307 1501.59 L726.363 1501.59 M712.335 1490.06 L741.155 1490.06 Q771.293 1490.06 785.391 1502.63 Q799.488 1515.13 799.488 1541.8 Q799.488 1568.61 785.321 1581.17 Q771.154 1593.74 741.155 1593.74 L712.335 1593.74 L712.335 1490.06 Z" fill="#000000" fill-rule="evenodd" fill-opacity="1" /><path clip-path="url(#clip180)" d="M887.821 1551.66 L887.821 1557.91 L829.071 1557.91 Q829.904 1571.11 836.987 1578.05 Q844.14 1584.92 856.848 1584.92 Q864.21 1584.92 871.085 1583.12 Q878.029 1581.31 884.834 1577.7 L884.834 1589.79 Q877.959 1592.7 870.737 1594.23 Q863.515 1595.76 856.085 1595.76 Q837.474 1595.76 826.571 1584.92 Q815.738 1574.09 815.738 1555.62 Q815.738 1536.52 826.015 1525.34 Q836.362 1514.09 853.862 1514.09 Q869.557 1514.09 878.654 1524.23 Q887.821 1534.3 887.821 1551.66 M875.043 1547.91 Q874.904 1537.42 869.14 1531.17 Q863.446 1524.92 854.001 1524.92 Q843.307 1524.92 836.849 1530.97 Q830.46 1537.01 829.488 1547.98 L875.043 1547.91 Z" fill="#000000" fill-rule="evenodd" fill-opacity="1" /><path clip-path="url(#clip180)" d="M964.765 1518.95 L964.765 1530.9 Q959.348 1527.91 953.862 1526.45 Q948.445 1524.92 942.89 1524.92 Q930.459 1524.92 923.584 1532.84 Q916.709 1540.69 916.709 1554.92 Q916.709 1569.16 923.584 1577.08 Q930.459 1584.92 942.89 1584.92 Q948.445 1584.92 953.862 1583.47 Q959.348 1581.94 964.765 1578.95 L964.765 1590.76 Q959.417 1593.26 953.654 1594.51 Q947.959 1595.76 941.501 1595.76 Q923.931 1595.76 913.584 1584.72 Q903.237 1573.67 903.237 1554.92 Q903.237 1535.9 913.654 1524.99 Q924.14 1514.09 942.334 1514.09 Q948.237 1514.09 953.862 1515.34 Q959.487 1516.52 964.765 1518.95 Z" fill="#000000" fill-rule="evenodd" fill-opacity="1" /><path clip-path="url(#clip180)" d="M986.987 1515.97 L999.764 1515.97 L999.764 1593.74 L986.987 1593.74 L986.987 1515.97 M986.987 1485.69 L999.764 1485.69 L999.764 1501.87 L986.987 1501.87 L986.987 1485.69 Z" fill="#000000" fill-rule="evenodd" fill-opacity="1" /><path clip-path="url(#clip180)" d="M1076.08 1518.26 L1076.08 1530.34 Q1070.67 1527.56 1064.83 1526.17 Q1059 1524.79 1052.75 1524.79 Q1043.24 1524.79 1038.44 1527.7 Q1033.72 1530.62 1033.72 1536.45 Q1033.72 1540.9 1037.13 1543.47 Q1040.53 1545.97 1050.81 1548.26 L1055.18 1549.23 Q1068.79 1552.15 1074.49 1557.49 Q1080.25 1562.77 1080.25 1572.29 Q1080.25 1583.12 1071.64 1589.44 Q1063.1 1595.76 1048.1 1595.76 Q1041.85 1595.76 1035.04 1594.51 Q1028.31 1593.33 1020.81 1590.9 L1020.81 1577.7 Q1027.89 1581.38 1034.76 1583.26 Q1041.64 1585.06 1048.38 1585.06 Q1057.4 1585.06 1062.26 1582.01 Q1067.13 1578.88 1067.13 1573.26 Q1067.13 1568.05 1063.58 1565.27 Q1060.11 1562.49 1048.24 1559.92 L1043.79 1558.88 Q1031.92 1556.38 1026.64 1551.24 Q1021.36 1546.04 1021.36 1537.01 Q1021.36 1526.04 1029.14 1520.06 Q1036.92 1514.09 1051.22 1514.09 Q1058.31 1514.09 1064.56 1515.13 Q1070.81 1516.17 1076.08 1518.26 Z" fill="#000000" fill-rule="evenodd" fill-opacity="1" /><path clip-path="url(#clip180)" d="M1100.6 1515.97 L1113.37 1515.97 L1113.37 1593.74 L1100.6 1593.74 L1100.6 1515.97 M1100.6 1485.69 L1113.37 1485.69 L1113.37 1501.87 L1100.6 1501.87 L1100.6 1485.69 Z" fill="#000000" fill-rule="evenodd" fill-opacity="1" /><path clip-path="url(#clip180)" d="M1170.25 1524.92 Q1159.97 1524.92 1154 1532.98 Q1148.03 1540.97 1148.03 1554.92 Q1148.03 1568.88 1153.93 1576.94 Q1159.9 1584.92 1170.25 1584.92 Q1180.46 1584.92 1186.43 1576.87 Q1192.4 1568.81 1192.4 1554.92 Q1192.4 1541.11 1186.43 1533.05 Q1180.46 1524.92 1170.25 1524.92 M1170.25 1514.09 Q1186.92 1514.09 1196.43 1524.92 Q1205.94 1535.76 1205.94 1554.92 Q1205.94 1574.02 1196.43 1584.92 Q1186.92 1595.76 1170.25 1595.76 Q1153.51 1595.76 1144 1584.92 Q1134.56 1574.02 1134.56 1554.92 Q1134.56 1535.76 1144 1524.92 Q1153.51 1514.09 1170.25 1514.09 Z" fill="#000000" fill-rule="evenodd" fill-opacity="1" /><path clip-path="url(#clip180)" d="M1291.78 1546.8 L1291.78 1593.74 L1279 1593.74 L1279 1547.22 Q1279 1536.17 1274.69 1530.69 Q1270.39 1525.2 1261.78 1525.2 Q1251.43 1525.2 1245.46 1531.8 Q1239.49 1538.4 1239.49 1549.79 L1239.49 1593.74 L1226.64 1593.74 L1226.64 1515.97 L1239.49 1515.97 L1239.49 1528.05 Q1244.07 1521.04 1250.25 1517.56 Q1256.5 1514.09 1264.62 1514.09 Q1278.03 1514.09 1284.9 1522.42 Q1291.78 1530.69 1291.78 1546.8 Z" fill="#000000" fill-rule="evenodd" fill-opacity="1" /><path clip-path="url(#clip180)" d="M1389.76 1593.74 L1350.18 1490.06 L1364.83 1490.06 L1397.68 1577.36 L1430.6 1490.06 L1445.18 1490.06 L1405.66 1593.74 L1389.76 1593.74 Z" fill="#000000" fill-rule="evenodd" fill-opacity="1" /><path clip-path="url(#clip180)" d="M1484.07 1554.65 Q1468.58 1554.65 1462.61 1558.19 Q1456.64 1561.73 1456.64 1570.27 Q1456.64 1577.08 1461.08 1581.11 Q1465.6 1585.06 1473.3 1585.06 Q1483.93 1585.06 1490.32 1577.56 Q1496.78 1569.99 1496.78 1557.49 L1496.78 1554.65 L1484.07 1554.65 M1509.55 1549.37 L1509.55 1593.74 L1496.78 1593.74 L1496.78 1581.94 Q1492.4 1589.02 1485.87 1592.42 Q1479.35 1595.76 1469.9 1595.76 Q1457.96 1595.76 1450.87 1589.09 Q1443.86 1582.36 1443.86 1571.11 Q1443.86 1557.98 1452.61 1551.31 Q1461.43 1544.65 1478.86 1544.65 L1496.78 1544.65 L1496.78 1543.4 Q1496.78 1534.58 1490.94 1529.79 Q1485.18 1524.92 1474.69 1524.92 Q1468.03 1524.92 1461.71 1526.52 Q1455.39 1528.12 1449.55 1531.31 L1449.55 1519.51 Q1456.57 1516.8 1463.16 1515.48 Q1469.76 1514.09 1476.01 1514.09 Q1492.89 1514.09 1501.22 1522.84 Q1509.55 1531.59 1509.55 1549.37 Z" fill="#000000" fill-rule="evenodd" fill-opacity="1" /><path clip-path="url(#clip180)" d="M1580.94 1527.91 Q1578.79 1526.66 1576.22 1526.11 Q1573.72 1525.48 1570.66 1525.48 Q1559.83 1525.48 1554 1532.56 Q1548.23 1539.58 1548.23 1552.77 L1548.23 1593.74 L1535.39 1593.74 L1535.39 1515.97 L1548.23 1515.97 L1548.23 1528.05 Q1552.26 1520.97 1558.72 1517.56 Q1565.18 1514.09 1574.41 1514.09 Q1575.73 1514.09 1577.33 1514.3 Q1578.93 1514.44 1580.87 1514.79 L1580.94 1527.91 Z" fill="#000000" fill-rule="evenodd" fill-opacity="1" /><path clip-path="url(#clip180)" d="M1594.34 1515.97 L1607.12 1515.97 L1607.12 1593.74 L1594.34 1593.74 L1594.34 1515.97 M1594.34 1485.69 L1607.12 1485.69 L1607.12 1501.87 L1594.34 1501.87 L1594.34 1485.69 Z" fill="#000000" fill-rule="evenodd" fill-opacity="1" /><path clip-path="url(#clip180)" d="M1669.21 1554.65 Q1653.72 1554.65 1647.75 1558.19 Q1641.77 1561.73 1641.77 1570.27 Q1641.77 1577.08 1646.22 1581.11 Q1650.73 1585.06 1658.44 1585.06 Q1669.07 1585.06 1675.46 1577.56 Q1681.91 1569.99 1681.91 1557.49 L1681.91 1554.65 L1669.21 1554.65 M1694.69 1549.37 L1694.69 1593.74 L1681.91 1593.74 L1681.91 1581.94 Q1677.54 1589.02 1671.01 1592.42 Q1664.48 1595.76 1655.04 1595.76 Q1643.09 1595.76 1636.01 1589.09 Q1629 1582.36 1629 1571.11 Q1629 1557.98 1637.75 1551.31 Q1646.57 1544.65 1664 1544.65 L1681.91 1544.65 L1681.91 1543.4 Q1681.91 1534.58 1676.08 1529.79 Q1670.32 1524.92 1659.83 1524.92 Q1653.16 1524.92 1646.84 1526.52 Q1640.52 1528.12 1634.69 1531.31 L1634.69 1519.51 Q1641.71 1516.8 1648.3 1515.48 Q1654.9 1514.09 1661.15 1514.09 Q1678.02 1514.09 1686.36 1522.84 Q1694.69 1531.59 1694.69 1549.37 Z" fill="#000000" fill-rule="evenodd" fill-opacity="1" /><path clip-path="url(#clip180)" d="M1776.84 1554.92 Q1776.84 1540.83 1771.01 1532.84 Q1765.25 1524.79 1755.11 1524.79 Q1744.97 1524.79 1739.14 1532.84 Q1733.37 1540.83 1733.37 1554.92 Q1733.37 1569.02 1739.14 1577.08 Q1744.97 1585.06 1755.11 1585.06 Q1765.25 1585.06 1771.01 1577.08 Q1776.84 1569.02 1776.84 1554.92 M1733.37 1527.77 Q1737.4 1520.83 1743.51 1517.49 Q1749.69 1514.09 1758.23 1514.09 Q1772.4 1514.09 1781.22 1525.34 Q1790.11 1536.59 1790.11 1554.92 Q1790.11 1573.26 1781.22 1584.51 Q1772.4 1595.76 1758.23 1595.76 Q1749.69 1595.76 1743.51 1592.42 Q1737.4 1589.02 1733.37 1582.08 L1733.37 1593.74 L1720.52 1593.74 L1720.52 1485.69 L1733.37 1485.69 L1733.37 1527.77 Z" fill="#000000" fill-rule="evenodd" fill-opacity="1" /><path clip-path="url(#clip180)" d="M1811.29 1485.69 L1824.07 1485.69 L1824.07 1593.74 L1811.29 1593.74 L1811.29 1485.69 Z" fill="#000000" fill-rule="evenodd" fill-opacity="1" /><path clip-path="url(#clip180)" d="M1917.33 1551.66 L1917.33 1557.91 L1858.58 1557.91 Q1859.41 1571.11 1866.5 1578.05 Q1873.65 1584.92 1886.36 1584.92 Q1893.72 1584.92 1900.59 1583.12 Q1907.54 1581.31 1914.34 1577.7 L1914.34 1589.79 Q1907.47 1592.7 1900.25 1594.23 Q1893.02 1595.76 1885.59 1595.76 Q1866.98 1595.76 1856.08 1584.92 Q1845.25 1574.09 1845.25 1555.62 Q1845.25 1536.52 1855.52 1525.34 Q1865.87 1514.09 1883.37 1514.09 Q1899.07 1514.09 1908.16 1524.23 Q1917.33 1534.3 1917.33 1551.66 M1904.55 1547.91 Q1904.41 1537.42 1898.65 1531.17 Q1892.95 1524.92 1883.51 1524.92 Q1872.82 1524.92 1866.36 1530.97 Q1859.97 1537.01 1859 1547.98 L1904.55 1547.91 Z" fill="#000000" fill-rule="evenodd" fill-opacity="1" /><polyline clip-path="url(#clip180)" style="stroke:#000000; stroke-linecap:round; stroke-linejoin:round; stroke-width:4; stroke-opacity:1; fill:none" points="
  276.908,1433.33 276.908,47.2441 
  "/>
<path clip-path="url(#clip180)" d="M79.6382 1021.64 Q79.6382 1036.92 91.027 1045.94 Q102.416 1054.9 122.069 1054.9 Q141.652 1054.9 153.041 1045.94 Q164.429 1036.92 164.429 1021.64 Q164.429 1006.36 153.041 997.472 Q141.652 988.514 122.069 988.514 Q102.416 988.514 91.027 997.472 Q79.6382 1006.36 79.6382 1021.64 M68.2494 1021.64 Q68.2494 999.833 82.9021 986.778 Q97.4853 973.722 122.069 973.722 Q146.582 973.722 161.235 986.778 Q175.818 999.833 175.818 1021.64 Q175.818 1043.51 161.235 1056.64 Q146.652 1069.69 122.069 1069.69 Q97.4853 1069.69 82.9021 1056.64 Q68.2494 1043.51 68.2494 1021.64 Z" fill="#000000" fill-rule="evenodd" fill-opacity="1" /><path clip-path="url(#clip180)" d="M134.985 896.5 Q120.888 896.5 112.902 902.334 Q104.846 908.098 104.846 918.236 Q104.846 928.375 112.902 934.209 Q120.888 939.972 134.985 939.972 Q149.082 939.972 157.138 934.209 Q165.124 928.375 165.124 918.236 Q165.124 908.098 157.138 902.334 Q149.082 896.5 134.985 896.5 M107.832 939.972 Q100.888 935.945 97.5548 929.834 Q94.152 923.653 94.152 915.111 Q94.152 900.945 105.402 892.125 Q116.652 883.237 134.985 883.237 Q153.318 883.237 164.568 892.125 Q175.818 900.945 175.818 915.111 Q175.818 923.653 172.485 929.834 Q169.082 935.945 162.138 939.972 L173.804 939.972 L173.804 952.82 L65.7494 952.82 L65.7494 939.972 L107.832 939.972 Z" fill="#000000" fill-rule="evenodd" fill-opacity="1" /><path clip-path="url(#clip180)" d="M96.027 862.056 L96.027 849.278 L175.193 849.278 Q190.054 849.278 196.721 854.973 Q203.388 860.598 203.388 873.167 L203.388 878.028 L192.554 878.028 L192.554 874.626 Q192.554 867.334 189.151 864.695 Q185.818 862.056 175.193 862.056 L96.027 862.056 M65.7494 862.056 L65.7494 849.278 L81.9298 849.278 L81.9298 862.056 L65.7494 862.056 Z" fill="#000000" fill-rule="evenodd" fill-opacity="1" /><path clip-path="url(#clip180)" d="M131.721 756.015 L137.971 756.015 L137.971 814.765 Q151.166 813.931 158.11 806.848 Q164.985 799.695 164.985 786.987 Q164.985 779.626 163.179 772.751 Q161.374 765.807 157.763 759.001 L169.846 759.001 Q172.763 765.876 174.29 773.098 Q175.818 780.32 175.818 787.751 Q175.818 806.362 164.985 817.265 Q154.152 828.098 135.68 828.098 Q116.582 828.098 105.402 817.82 Q94.152 807.473 94.152 789.973 Q94.152 774.279 104.291 765.182 Q114.36 756.015 131.721 756.015 M127.971 768.793 Q117.485 768.932 111.235 774.696 Q104.985 780.39 104.985 789.834 Q104.985 800.529 111.027 806.987 Q117.069 813.376 128.041 814.348 L127.971 768.793 Z" fill="#000000" fill-rule="evenodd" fill-opacity="1" /><path clip-path="url(#clip180)" d="M99.0131 679.071 L110.957 679.071 Q107.971 684.488 106.513 689.974 Q104.985 695.39 104.985 700.946 Q104.985 713.376 112.902 720.251 Q120.749 727.126 134.985 727.126 Q149.221 727.126 157.138 720.251 Q164.985 713.376 164.985 700.946 Q164.985 695.39 163.527 689.974 Q161.999 684.488 159.013 679.071 L170.818 679.071 Q173.318 684.418 174.568 690.182 Q175.818 695.876 175.818 702.335 Q175.818 719.904 164.777 730.251 Q153.735 740.598 134.985 740.598 Q115.957 740.598 105.055 730.182 Q94.152 719.696 94.152 701.501 Q94.152 695.599 95.402 689.974 Q96.5825 684.349 99.0131 679.071 Z" fill="#000000" fill-rule="evenodd" fill-opacity="1" /><path clip-path="url(#clip180)" d="M73.9438 644.21 L96.027 644.21 L96.027 617.891 L105.957 617.891 L105.957 644.21 L148.179 644.21 Q157.693 644.21 160.402 641.641 Q163.11 639.002 163.11 631.016 L163.11 617.891 L173.804 617.891 L173.804 631.016 Q173.804 645.807 168.318 651.432 Q162.763 657.057 148.179 657.057 L105.957 657.057 L105.957 666.432 L96.027 666.432 L96.027 657.057 L73.9438 657.057 L73.9438 644.21 Z" fill="#000000" fill-rule="evenodd" fill-opacity="1" /><path clip-path="url(#clip180)" d="M96.027 601.085 L96.027 588.308 L173.804 588.308 L173.804 601.085 L96.027 601.085 M65.7494 601.085 L65.7494 588.308 L81.9298 588.308 L81.9298 601.085 L65.7494 601.085 Z" fill="#000000" fill-rule="evenodd" fill-opacity="1" /><path clip-path="url(#clip180)" d="M96.027 570.738 L96.027 557.197 L161.304 532.891 L96.027 508.586 L96.027 495.044 L173.804 524.211 L173.804 541.572 L96.027 570.738 Z" fill="#000000" fill-rule="evenodd" fill-opacity="1" /><path clip-path="url(#clip180)" d="M131.721 410.878 L137.971 410.878 L137.971 469.628 Q151.166 468.794 158.11 461.711 Q164.985 454.558 164.985 441.85 Q164.985 434.489 163.179 427.614 Q161.374 420.67 157.763 413.864 L169.846 413.864 Q172.763 420.739 174.29 427.961 Q175.818 435.183 175.818 442.614 Q175.818 461.225 164.985 472.128 Q154.152 482.961 135.68 482.961 Q116.582 482.961 105.402 472.683 Q94.152 462.336 94.152 444.836 Q94.152 429.142 104.291 420.045 Q114.36 410.878 131.721 410.878 M127.971 423.656 Q117.485 423.795 111.235 429.558 Q104.985 435.253 104.985 444.697 Q104.985 455.392 111.027 461.85 Q117.069 468.239 128.041 469.211 L127.971 423.656 Z" fill="#000000" fill-rule="evenodd" fill-opacity="1" /><polyline clip-path="url(#clip182)" style="stroke:#009af9; stroke-linecap:round; stroke-linejoin:round; stroke-width:12; stroke-opacity:1; fill:none" points="
  276.908,-28.0005 279.215,-9.94954 281.521,7.92801 283.828,25.6331 286.134,43.1665 288.441,60.5292 290.747,77.722 293.054,94.7458 295.36,111.601 297.667,128.29 
  299.973,144.812 302.28,161.168 304.586,177.36 306.893,193.388 309.199,209.253 311.506,224.955 313.812,240.497 316.119,255.878 318.425,271.099 320.732,286.162 
  323.038,301.067 325.345,315.815 327.651,330.406 329.958,344.843 332.264,359.124 334.571,373.252 336.877,387.227 339.184,401.05 341.49,414.722 343.797,428.244 
  346.103,441.616 348.41,454.839 350.716,467.914 353.023,480.843 355.329,493.625 357.636,506.261 359.942,518.753 362.249,531.101 364.555,543.306 366.862,555.369 
  369.168,567.29 371.475,579.071 373.781,590.712 376.088,602.214 378.394,613.578 380.701,624.804 383.007,635.894 385.314,646.848 387.62,657.666 389.927,668.351 
  392.233,678.902 394.54,689.321 396.846,699.607 399.153,709.763 401.459,719.788 403.766,729.684 406.072,739.451 408.379,749.09 410.685,758.601 412.992,767.987 
  415.298,777.246 417.605,786.381 419.911,795.391 422.218,804.278 424.524,813.043 426.831,821.685 429.137,830.207 431.444,838.608 433.75,846.889 436.057,855.052 
  438.363,863.096 440.67,871.023 442.976,878.834 445.283,886.528 447.589,894.108 449.896,901.573 452.202,908.924 454.509,916.163 456.815,923.289 459.122,930.304 
  461.428,937.208 463.735,944.002 466.041,950.687 468.348,957.263 470.654,963.732 472.961,970.093 475.267,976.348 477.574,982.497 479.88,988.542 482.187,994.482 
  484.493,1000.32 486.8,1006.05 489.106,1011.68 491.413,1017.21 493.719,1022.64 496.026,1027.97 498.332,1033.2 500.639,1038.33 502.945,1043.37 505.252,1048.3 
  507.558,1053.14 509.865,1057.89 512.171,1062.54 514.478,1067.09 516.784,1071.55 519.091,1075.92 521.397,1080.2 523.704,1084.38 526.01,1088.47 528.317,1092.47 
  530.623,1096.39 532.93,1100.21 535.236,1103.94 537.543,1107.59 539.849,1111.15 542.156,1114.63 544.462,1118.01 546.769,1121.32 549.075,1124.53 551.382,1127.67 
  553.688,1130.72 555.995,1133.69 558.301,1136.58 560.608,1139.38 562.914,1142.11 565.221,1144.76 567.527,1147.32 569.834,1149.81 572.14,1152.22 574.446,1154.55 
  576.753,1156.81 579.059,1158.99 581.366,1161.1 583.672,1163.13 585.979,1165.08 588.285,1166.97 590.592,1168.78 592.898,1170.51 595.205,1172.18 597.511,1173.77 
  599.818,1175.3 602.124,1176.75 604.431,1178.14 606.737,1179.45 609.044,1180.7 611.35,1181.88 613.657,1183 615.963,1184.05 618.27,1185.03 620.576,1185.95 
  622.883,1186.8 625.189,1187.59 627.496,1188.32 629.802,1188.98 632.109,1189.59 634.415,1190.13 636.722,1190.61 639.028,1191.03 641.335,1191.39 643.641,1191.69 
  645.948,1191.93 648.254,1192.12 650.561,1192.24 652.867,1192.31 655.174,1192.33 657.48,1192.29 659.787,1192.19 662.093,1192.04 664.4,1191.83 666.706,1191.58 
  669.013,1191.27 671.319,1190.9 673.626,1190.49 675.932,1190.02 678.239,1189.5 680.545,1188.94 682.852,1188.32 685.158,1187.66 687.465,1186.94 689.771,1186.18 
  692.078,1185.37 694.384,1184.52 696.691,1183.62 698.997,1182.67 701.304,1181.67 703.61,1180.64 705.917,1179.56 708.223,1178.43 710.53,1177.26 712.836,1176.05 
  715.143,1174.8 717.449,1173.5 719.756,1172.17 722.062,1170.79 724.369,1169.38 726.675,1167.92 728.982,1166.43 731.288,1164.9 733.595,1163.32 735.901,1161.72 
  738.208,1160.07 740.514,1158.39 742.821,1156.67 745.127,1154.92 747.434,1153.13 749.74,1151.31 752.047,1149.45 754.353,1147.56 756.66,1145.64 758.966,1143.69 
  761.273,1141.7 763.579,1139.68 765.886,1137.63 768.192,1135.55 770.499,1133.44 772.805,1131.3 775.112,1129.13 777.418,1126.93 779.725,1124.71 782.031,1122.45 
  784.338,1120.17 786.644,1117.86 788.951,1115.53 791.257,1113.17 793.564,1110.78 795.87,1108.37 798.177,1105.94 800.483,1103.48 802.79,1100.99 805.096,1098.49 
  807.403,1095.96 809.709,1093.41 812.016,1090.83 814.322,1088.24 816.629,1085.62 818.935,1082.99 821.242,1080.33 823.548,1077.65 825.855,1074.96 828.161,1072.24 
  830.468,1069.51 832.774,1066.76 835.081,1063.99 837.387,1061.21 839.694,1058.41 842,1055.59 844.307,1052.75 846.613,1049.9 848.92,1047.04 851.226,1044.16 
  853.533,1041.26 855.839,1038.36 858.146,1035.44 860.452,1032.5 862.759,1029.55 865.065,1026.59 867.372,1023.62 869.678,1020.64 871.985,1017.65 874.291,1014.64 
  876.598,1011.63 878.904,1008.6 881.211,1005.57 883.517,1002.53 885.824,999.475 888.13,996.415 890.437,993.347 892.743,990.271 895.05,987.187 897.356,984.097 
  899.663,981 901.969,977.898 904.276,974.789 906.582,971.675 908.889,968.556 911.195,965.432 913.502,962.304 915.808,959.171 918.115,956.035 920.421,952.896 
  922.728,949.754 925.034,946.609 927.341,943.462 929.647,940.314 931.954,937.163 934.26,934.011 936.567,930.859 938.873,927.706 941.18,924.552 943.486,921.399 
  945.793,918.246 948.099,915.094 950.406,911.944 952.712,908.794 955.019,905.646 957.325,902.501 959.632,899.358 961.938,896.217 964.245,893.08 966.551,889.945 
  968.858,886.815 971.164,883.688 973.471,880.566 975.777,877.448 978.084,874.335 980.39,871.228 982.697,868.126 985.003,865.029 987.31,861.939 989.616,858.855 
  991.923,855.778 994.229,852.707 996.536,849.644 998.842,846.589 1001.15,843.541 1003.45,840.501 1005.76,837.47 1008.07,834.447 1010.37,831.434 1012.68,828.429 
  1014.99,825.434 1017.29,822.449 1019.6,819.474 1021.91,816.509 1024.21,813.555 1026.52,810.611 1028.83,807.679 1031.13,804.758 1033.44,801.848 1035.75,798.951 
  1038.05,796.065 1040.36,793.192 1042.67,790.332 1044.97,787.484 1047.28,784.649 1049.58,781.828 1051.89,779.021 1054.2,776.227 1056.5,773.448 1058.81,770.682 
  1061.12,767.932 1063.42,765.196 1065.73,762.475 1068.04,759.769 1070.34,757.079 1072.65,754.405 1074.96,751.746 1077.26,749.104 1079.57,746.478 1081.88,743.869 
  1084.18,741.276 1086.49,738.701 1088.8,736.142 1091.1,733.601 1093.41,731.078 1095.71,728.573 1098.02,726.086 1100.33,723.617 1102.63,721.166 1104.94,718.735 
  1107.25,716.322 1109.55,713.928 1111.86,711.553 1114.17,709.198 1116.47,706.863 1118.78,704.547 1121.09,702.252 1123.39,699.976 1125.7,697.721 1128.01,695.487 
  1130.31,693.273 1132.62,691.08 1134.93,688.909 1137.23,686.758 1139.54,684.629 1141.84,682.522 1144.15,680.437 1146.46,678.373 1148.76,676.332 1151.07,674.312 
  1153.38,672.316 1155.68,670.341 1157.99,668.39 1160.3,666.461 1162.6,664.556 1164.91,662.674 1167.22,660.815 1169.52,658.979 1171.83,657.167 1174.14,655.379 
  1176.44,653.615 1178.75,651.875 1181.06,650.159 1183.36,648.468 1185.67,646.801 1187.97,645.159 1190.28,643.541 1192.59,641.948 1194.89,640.38 1197.2,638.837 
  1199.51,637.32 1201.81,635.828 1204.12,634.361 1206.43,632.92 1208.73,631.504 1211.04,630.115 1213.35,628.751 1215.65,627.413 1217.96,626.102 1220.27,624.816 
  1222.57,623.557 1224.88,622.325 1227.19,621.119 1229.49,619.939 1231.8,618.786 1234.1,617.661 1236.41,616.562 1238.72,615.49 1241.02,614.445 1243.33,613.427 
  1245.64,612.437 1247.94,611.474 1250.25,610.538 1252.56,609.63 1254.86,608.749 1257.17,607.896 1259.48,607.071 1261.78,606.274 1264.09,605.504 1266.4,604.763 
  1268.7,604.049 1271.01,603.363 1273.32,602.706 1275.62,602.077 1277.93,601.476 1280.23,600.903 1282.54,600.358 1284.85,599.842 1287.15,599.355 1289.46,598.896 
  1291.77,598.465 1294.07,598.063 1296.38,597.69 1298.69,597.345 1300.99,597.029 1303.3,596.742 1305.61,596.483 1307.91,596.253 1310.22,596.052 1312.53,595.88 
  1314.83,595.737 1317.14,595.623 1319.45,595.538 1321.75,595.481 1324.06,595.454 1326.36,595.456 1328.67,595.486 1330.98,595.546 1333.28,595.634 1335.59,595.752 
  1337.9,595.899 1340.2,596.075 1342.51,596.279 1344.82,596.513 1347.12,596.776 1349.43,597.068 1351.74,597.389 1354.04,597.74 1356.35,598.119 1358.66,598.527 
  1360.96,598.964 1363.27,599.43 1365.58,599.925 1367.88,600.45 1370.19,601.003 1372.49,601.585 1374.8,602.196 1377.11,602.836 1379.41,603.504 1381.72,604.202 
  1384.03,604.928 1386.33,605.683 1388.64,606.467 1390.95,607.28 1393.25,608.121 1395.56,608.991 1397.87,609.889 1400.17,610.816 1402.48,611.771 1404.79,612.755 
  1407.09,613.767 1409.4,614.808 1411.71,615.877 1414.01,616.974 1416.32,618.099 1418.62,619.253 1420.93,620.434 1423.24,621.643 1425.54,622.881 1427.85,624.146 
  1430.16,625.439 1432.46,626.76 1434.77,628.108 1437.08,629.484 1439.38,630.888 1441.69,632.318 1444,633.777 1446.3,635.262 1448.61,636.775 1450.92,638.315 
  1453.22,639.881 1455.53,641.475 1457.83,643.095 1460.14,644.743 1462.45,646.416 1464.75,648.117 1467.06,649.844 1469.37,651.597 1471.67,653.376 1473.98,655.182 
  1476.29,657.013 1478.59,658.871 1480.9,660.754 1483.21,662.663 1485.51,664.597 1487.82,666.557 1490.13,668.543 1492.43,670.553 1494.74,672.589 1497.05,674.65 
  1499.35,676.735 1501.66,678.845 1503.96,680.98 1506.27,683.14 1508.58,685.323 1510.88,687.531 1513.19,689.763 1515.5,692.019 1517.8,694.298 1520.11,696.602 
  1522.42,698.928 1524.72,701.279 1527.03,703.652 1529.34,706.048 1531.64,708.467 1533.95,710.909 1536.26,713.374 1538.56,715.861 1540.87,718.37 1543.18,720.902 
  1545.48,723.455 1547.79,726.03 1550.09,728.627 1552.4,731.245 1554.71,733.884 1557.01,736.545 1559.32,739.226 1561.63,741.929 1563.93,744.651 1566.24,747.395 
  1568.55,750.158 1570.85,752.941 1573.16,755.745 1575.47,758.568 1577.77,761.41 1580.08,764.272 1582.39,767.152 1584.69,770.052 1587,772.97 1589.31,775.907 
  1591.61,778.862 1593.92,781.835 1596.22,784.826 1598.53,787.835 1600.84,790.861 1603.14,793.904 1605.45,796.964 1607.76,800.041 1610.06,803.135 1612.37,806.245 
  1614.68,809.372 1616.98,812.514 1619.29,815.672 1621.6,818.845 1623.9,822.034 1626.21,825.238 1628.52,828.456 1630.82,831.689 1633.13,834.936 1635.44,838.198 
  1637.74,841.473 1640.05,844.762 1642.35,848.064 1644.66,851.38 1646.97,854.708 1649.27,858.049 1651.58,861.402 1653.89,864.768 1656.19,868.145 1658.5,871.534 
  1660.81,874.934 1663.11,878.345 1665.42,881.768 1667.73,885.2 1670.03,888.643 1672.34,892.096 1674.65,895.559 1676.95,899.031 1679.26,902.513 1681.57,906.003 
  1683.87,909.502 1686.18,913.01 1688.48,916.525 1690.79,920.049 1693.1,923.58 1695.4,927.118 1697.71,930.663 1700.02,934.214 1702.32,937.773 1704.63,941.337 
  1706.94,944.907 1709.24,948.482 1711.55,952.063 1713.86,955.648 1716.16,959.239 1718.47,962.833 1720.78,966.431 1723.08,970.033 1725.39,973.638 1727.7,977.247 
  1730,980.858 1732.31,984.471 1734.61,988.087 1736.92,991.704 1739.23,995.323 1741.53,998.943 1743.84,1002.56 1746.15,1006.18 1748.45,1009.81 1750.76,1013.43 
  1753.07,1017.05 1755.37,1020.67 1757.68,1024.28 1759.99,1027.9 1762.29,1031.52 1764.6,1035.13 1766.91,1038.74 1769.21,1042.35 1771.52,1045.95 1773.83,1049.55 
  1776.13,1053.14 1778.44,1056.74 1780.74,1060.32 1783.05,1063.91 1785.36,1067.48 1787.66,1071.05 1789.97,1074.62 1792.28,1078.18 1794.58,1081.73 1796.89,1085.27 
  1799.2,1088.81 1801.5,1092.33 1803.81,1095.85 1806.12,1099.36 1808.42,1102.87 1810.73,1106.36 1813.04,1109.84 1815.34,1113.31 1817.65,1116.77 1819.96,1120.23 
  1822.26,1123.66 1824.57,1127.09 1826.87,1130.51 1829.18,1133.91 1831.49,1137.3 1833.79,1140.67 1836.1,1144.03 1838.41,1147.38 1840.71,1150.71 1843.02,1154.03 
  1845.33,1157.33 1847.63,1160.62 1849.94,1163.89 1852.25,1167.14 1854.55,1170.38 1856.86,1173.6 1859.17,1176.8 1861.47,1179.98 1863.78,1183.14 1866.08,1186.29 
  1868.39,1189.41 1870.7,1192.52 1873,1195.6 1875.31,1198.66 1877.62,1201.7 1879.92,1204.72 1882.23,1207.72 1884.54,1210.69 1886.84,1213.64 1889.15,1216.57 
  1891.46,1219.47 1893.76,1222.35 1896.07,1225.21 1898.38,1228.04 1900.68,1230.84 1902.99,1233.61 1905.3,1236.36 1907.6,1239.08 1909.91,1241.78 1912.21,1244.44 
  1914.52,1247.08 
  "/>
<polyline clip-path="url(#clip182)" style="stroke:#800080; stroke-linecap:round; stroke-linejoin:round; stroke-width:12; stroke-opacity:1; fill:none" stroke-dasharray="48, 30" points="
  1914.52,1247.08 1916.83,1249.69 1919.13,1252.27 1921.44,1254.82 1923.75,1257.33 1926.05,1259.82 1928.36,1262.27 1930.67,1264.7 1932.97,1267.09 1935.28,1269.45 
  1937.59,1271.77 1939.89,1274.06 1942.2,1276.31 1944.51,1278.54 1946.81,1280.72 1949.12,1282.87 1951.43,1284.98 1953.73,1287.06 1956.04,1289.1 1958.34,1291.1 
  1960.65,1293.06 1962.96,1294.98 1965.26,1296.87 1967.57,1298.71 1969.88,1300.51 1972.18,1302.28 1974.49,1304 1976.8,1305.67 1979.1,1307.31 1981.41,1308.9 
  1983.72,1310.45 1986.02,1311.96 1988.33,1313.42 1990.64,1314.83 1992.94,1316.2 1995.25,1317.53 1997.56,1318.8 1999.86,1320.03 2002.17,1321.21 2004.47,1322.35 
  2006.78,1323.43 2009.09,1324.47 2011.39,1325.45 2013.7,1326.38 2016.01,1327.27 2018.31,1328.1 2020.62,1328.88 2022.93,1329.6 2025.23,1330.28 2027.54,1330.89 
  2029.85,1331.46 2032.15,1331.97 2034.46,1332.42 2036.77,1332.82 2039.07,1333.16 2041.38,1333.44 2043.69,1333.67 2045.99,1333.83 2048.3,1333.94 2050.6,1333.99 
  2052.91,1333.98 2055.22,1333.9 2057.52,1333.77 2059.83,1333.57 2062.14,1333.31 2064.44,1332.99 2066.75,1332.61 2069.06,1332.16 2071.36,1331.64 2073.67,1331.06 
  2075.98,1330.41 2078.28,1329.7 2080.59,1328.92 2082.9,1328.07 2085.2,1327.15 2087.51,1326.16 2089.82,1325.11 2092.12,1323.98 2094.43,1322.78 2096.73,1321.51 
  2099.04,1320.17 2101.35,1318.76 2103.65,1317.27 2105.96,1315.71 2108.27,1314.07 2110.57,1312.36 2112.88,1310.57 2115.19,1308.7 2117.49,1306.76 2119.8,1304.74 
  2122.11,1302.64 2124.41,1300.46 2126.72,1298.2 2129.03,1295.87 2131.33,1293.45 2133.64,1290.94 2135.95,1288.36 2138.25,1285.69 2140.56,1282.94 2142.86,1280.11 
  2145.17,1277.19 2147.48,1274.18 2149.78,1271.09 2152.09,1267.91 2154.4,1264.64 2156.7,1261.29 2159.01,1257.84 2161.32,1254.31 2163.62,1250.68 2165.93,1246.97 
  2168.24,1243.16 2170.54,1239.26 2172.85,1235.27 2175.16,1231.18 2177.46,1227 2179.77,1222.72 2182.08,1218.35 2184.38,1213.88 2186.69,1209.32 2188.99,1204.65 
  2191.3,1199.89 2193.61,1195.03 2195.91,1190.07 2198.22,1185 2200.53,1179.84 2202.83,1174.58 2205.14,1169.21 2207.45,1163.73 2209.75,1158.16 2212.06,1152.48 
  2214.37,1146.69 2216.67,1140.8 2218.98,1134.79 2221.29,1128.69 2223.59,1122.47 2225.9,1116.14 2228.21,1109.71 2230.51,1103.16 2232.82,1096.5 2235.12,1089.73 
  2237.43,1082.85 2239.74,1075.85 2242.04,1068.74 2244.35,1061.51 2246.66,1054.17 2248.96,1046.71 2251.27,1039.13 2253.58,1031.44 2255.88,1023.62 2258.19,1015.69 
  2260.5,1007.64 2262.8,999.462 2265.11,991.166 2267.42,982.746 2269.72,974.204 2272.03,965.537 2274.33,956.745 2276.64,947.828 2278.95,938.784 2281.25,929.613 
  2283.56,920.314 2285.87,910.886 2288.17,901.328 2290.48,891.641 2292.79,881.822 2295.09,871.871 2297.4,861.788 2299.71,851.571 2302.01,841.22 2304.32,830.734 
  2306.63,820.112 2308.93,809.353 2311.24,798.457 2313.55,787.423 2315.85,776.25 2318.16,764.937 2320.46,753.483 2322.77,741.888 2325.08,730.151 2327.38,718.271 
  2329.69,706.247 2332,694.078 2334.3,681.764 2336.61,669.304 2338.92,656.696 2341.22,643.941 2343.53,631.037 2345.84,617.983 2348.14,604.779 2350.45,591.423 
  2352.76,577.916 
  "/>
<polyline clip-path="url(#clip182)" style="stroke:#ffa500; stroke-linecap:round; stroke-linejoin:round; stroke-width:20; stroke-opacity:1; fill:none" points="
  1914.52,2819.41 1914.52,-1338.84 
  "/>
<circle clip-path="url(#clip182)" cx="655.174" cy="1192.33" r="28.8" fill="#0000ff" fill-rule="evenodd" fill-opacity="1" stroke="#000000" stroke-opacity="1" stroke-width="3.2"/>
<circle clip-path="url(#clip182)" cx="1914.52" cy="1247.08" r="43.2" fill="#ff0000" fill-rule="evenodd" fill-opacity="1" stroke="#000000" stroke-opacity="1" stroke-width="3.2"/>
<path clip-path="url(#clip180)" d="
M914.055 443.367 L2283.56 443.367 L2283.56 93.4469 L914.055 93.4469  Z
  " fill="#ffffff" fill-rule="evenodd" fill-opacity="1"/>
<polyline clip-path="url(#clip180)" style="stroke:#000000; stroke-linecap:round; stroke-linejoin:round; stroke-width:4; stroke-opacity:1; fill:none" points="
  914.055,443.367 2283.56,443.367 2283.56,93.4469 914.055,93.4469 914.055,443.367 
  "/>
<circle clip-path="url(#clip180)" cx="1006.32" cy="210.087" r="51.84" fill="#0000ff" fill-rule="evenodd" fill-opacity="1" stroke="#000000" stroke-opacity="1" stroke-width="5.76"/>
<path clip-path="url(#clip180)" d="M1098.58 171.207 L1109.1 171.207 L1109.1 240.113 L1146.96 240.113 L1146.96 248.967 L1098.58 248.967 L1098.58 171.207 Z" fill="#000000" fill-rule="evenodd" fill-opacity="1" /><path clip-path="url(#clip180)" d="M1178.31 197.353 Q1170.61 197.353 1166.13 203.394 Q1161.65 209.384 1161.65 219.852 Q1161.65 230.321 1166.07 236.363 Q1170.55 242.352 1178.31 242.352 Q1185.97 242.352 1190.45 236.311 Q1194.93 230.269 1194.93 219.852 Q1194.93 209.488 1190.45 203.446 Q1185.97 197.353 1178.31 197.353 M1178.31 189.228 Q1190.81 189.228 1197.95 197.353 Q1205.09 205.478 1205.09 219.852 Q1205.09 234.175 1197.95 242.352 Q1190.81 250.477 1178.31 250.477 Q1165.76 250.477 1158.63 242.352 Q1151.54 234.175 1151.54 219.852 Q1151.54 205.478 1158.63 197.353 Q1165.76 189.228 1178.31 189.228 Z" fill="#000000" fill-rule="evenodd" fill-opacity="1" /><path clip-path="url(#clip180)" d="M1262.95 192.873 L1262.95 201.832 Q1258.89 199.592 1254.77 198.498 Q1250.71 197.353 1246.54 197.353 Q1237.22 197.353 1232.06 203.29 Q1226.91 209.175 1226.91 219.852 Q1226.91 230.529 1232.06 236.467 Q1237.22 242.352 1246.54 242.352 Q1250.71 242.352 1254.77 241.259 Q1258.89 240.113 1262.95 237.873 L1262.95 246.727 Q1258.94 248.602 1254.62 249.54 Q1250.35 250.477 1245.5 250.477 Q1232.32 250.477 1224.56 242.196 Q1216.8 233.915 1216.8 219.852 Q1216.8 205.582 1224.62 197.405 Q1232.48 189.228 1246.13 189.228 Q1250.55 189.228 1254.77 190.165 Q1258.99 191.051 1262.95 192.873 Z" fill="#000000" fill-rule="evenodd" fill-opacity="1" /><path clip-path="url(#clip180)" d="M1306.13 219.644 Q1294.51 219.644 1290.03 222.3 Q1285.55 224.957 1285.55 231.363 Q1285.55 236.467 1288.89 239.488 Q1292.27 242.457 1298.05 242.457 Q1306.02 242.457 1310.81 236.832 Q1315.66 231.154 1315.66 221.78 L1315.66 219.644 L1306.13 219.644 M1325.24 215.686 L1325.24 248.967 L1315.66 248.967 L1315.66 240.113 Q1312.38 245.425 1307.48 247.977 Q1302.58 250.477 1295.5 250.477 Q1286.54 250.477 1281.23 245.477 Q1275.97 240.425 1275.97 231.988 Q1275.97 222.144 1282.53 217.144 Q1289.15 212.144 1302.22 212.144 L1315.66 212.144 L1315.66 211.207 Q1315.66 204.592 1311.28 200.998 Q1306.96 197.353 1299.09 197.353 Q1294.09 197.353 1289.36 198.55 Q1284.62 199.748 1280.24 202.144 L1280.24 193.29 Q1285.5 191.259 1290.45 190.269 Q1295.4 189.228 1300.08 189.228 Q1312.74 189.228 1318.99 195.79 Q1325.24 202.353 1325.24 215.686 Z" fill="#000000" fill-rule="evenodd" fill-opacity="1" /><path clip-path="url(#clip180)" d="M1344.98 167.926 L1354.56 167.926 L1354.56 248.967 L1344.98 248.967 L1344.98 167.926 Z" fill="#000000" fill-rule="evenodd" fill-opacity="1" /><path clip-path="url(#clip180)" d="M1440.5 178.342 Q1429.04 178.342 1422.27 186.884 Q1415.55 195.426 1415.55 210.165 Q1415.55 224.852 1422.27 233.394 Q1429.04 241.936 1440.5 241.936 Q1451.96 241.936 1458.63 233.394 Q1465.34 224.852 1465.34 210.165 Q1465.34 195.426 1458.63 186.884 Q1451.96 178.342 1440.5 178.342 M1440.5 169.801 Q1456.85 169.801 1466.65 180.79 Q1476.44 191.728 1476.44 210.165 Q1476.44 228.55 1466.65 239.54 Q1456.85 250.477 1440.5 250.477 Q1424.09 250.477 1414.25 239.54 Q1404.46 228.602 1404.46 210.165 Q1404.46 191.728 1414.25 180.79 Q1424.09 169.801 1440.5 169.801 Z" fill="#000000" fill-rule="evenodd" fill-opacity="1" /><path clip-path="url(#clip180)" d="M1501.75 240.217 L1501.75 271.154 L1492.11 271.154 L1492.11 190.634 L1501.75 190.634 L1501.75 199.488 Q1504.77 194.28 1509.35 191.78 Q1513.99 189.228 1520.4 189.228 Q1531.02 189.228 1537.64 197.665 Q1544.3 206.103 1544.3 219.852 Q1544.3 233.602 1537.64 242.04 Q1531.02 250.477 1520.4 250.477 Q1513.99 250.477 1509.35 247.977 Q1504.77 245.425 1501.75 240.217 M1534.35 219.852 Q1534.35 209.28 1529.98 203.29 Q1525.66 197.248 1518.05 197.248 Q1510.45 197.248 1506.07 203.29 Q1501.75 209.28 1501.75 219.852 Q1501.75 230.425 1506.07 236.467 Q1510.45 242.457 1518.05 242.457 Q1525.66 242.457 1529.98 236.467 Q1534.35 230.425 1534.35 219.852 Z" fill="#000000" fill-rule="evenodd" fill-opacity="1" /><path clip-path="url(#clip180)" d="M1569.67 174.071 L1569.67 190.634 L1589.41 190.634 L1589.41 198.082 L1569.67 198.082 L1569.67 229.748 Q1569.67 236.884 1571.59 238.915 Q1573.57 240.946 1579.56 240.946 L1589.41 240.946 L1589.41 248.967 L1579.56 248.967 Q1568.47 248.967 1564.25 244.852 Q1560.03 240.686 1560.03 229.748 L1560.03 198.082 L1553 198.082 L1553 190.634 L1560.03 190.634 L1560.03 174.071 L1569.67 174.071 Z" fill="#000000" fill-rule="evenodd" fill-opacity="1" /><path clip-path="url(#clip180)" d="M1602.01 190.634 L1611.59 190.634 L1611.59 248.967 L1602.01 248.967 L1602.01 190.634 M1602.01 167.926 L1611.59 167.926 L1611.59 180.061 L1602.01 180.061 L1602.01 167.926 Z" fill="#000000" fill-rule="evenodd" fill-opacity="1" /><path clip-path="url(#clip180)" d="M1677.06 201.832 Q1680.66 195.373 1685.66 192.301 Q1690.66 189.228 1697.43 189.228 Q1706.54 189.228 1711.49 195.634 Q1716.44 201.988 1716.44 213.759 L1716.44 248.967 L1706.8 248.967 L1706.8 214.071 Q1706.8 205.686 1703.83 201.623 Q1700.86 197.561 1694.77 197.561 Q1687.32 197.561 1683 202.509 Q1678.68 207.457 1678.68 215.998 L1678.68 248.967 L1669.04 248.967 L1669.04 214.071 Q1669.04 205.634 1666.07 201.623 Q1663.1 197.561 1656.91 197.561 Q1649.56 197.561 1645.24 202.561 Q1640.92 207.509 1640.92 215.998 L1640.92 248.967 L1631.28 248.967 L1631.28 190.634 L1640.92 190.634 L1640.92 199.696 Q1644.2 194.332 1648.78 191.78 Q1653.36 189.228 1659.67 189.228 Q1666.02 189.228 1670.45 192.457 Q1674.93 195.686 1677.06 201.832 Z" fill="#000000" fill-rule="evenodd" fill-opacity="1" /><path clip-path="url(#clip180)" d="M1734.56 225.946 L1734.56 190.634 L1744.14 190.634 L1744.14 225.582 Q1744.14 233.863 1747.37 238.029 Q1750.6 242.144 1757.06 242.144 Q1764.82 242.144 1769.3 237.196 Q1773.83 232.248 1773.83 223.707 L1773.83 190.634 L1783.42 190.634 L1783.42 248.967 L1773.83 248.967 L1773.83 240.009 Q1770.34 245.321 1765.71 247.925 Q1761.12 250.477 1755.03 250.477 Q1744.98 250.477 1739.77 244.227 Q1734.56 237.977 1734.56 225.946 M1758.68 189.228 L1758.68 189.228 Z" fill="#000000" fill-rule="evenodd" fill-opacity="1" /><path clip-path="url(#clip180)" d="M1848.57 201.832 Q1852.16 195.373 1857.16 192.301 Q1862.16 189.228 1868.94 189.228 Q1878.05 189.228 1883 195.634 Q1887.95 201.988 1887.95 213.759 L1887.95 248.967 L1878.31 248.967 L1878.31 214.071 Q1878.31 205.686 1875.34 201.623 Q1872.37 197.561 1866.28 197.561 Q1858.83 197.561 1854.51 202.509 Q1850.19 207.457 1850.19 215.998 L1850.19 248.967 L1840.55 248.967 L1840.55 214.071 Q1840.55 205.634 1837.58 201.623 Q1834.61 197.561 1828.41 197.561 Q1821.07 197.561 1816.75 202.561 Q1812.43 207.509 1812.43 215.998 L1812.43 248.967 L1802.79 248.967 L1802.79 190.634 L1812.43 190.634 L1812.43 199.696 Q1815.71 194.332 1820.29 191.78 Q1824.87 189.228 1831.18 189.228 Q1837.53 189.228 1841.96 192.457 Q1846.44 195.686 1848.57 201.832 Z" fill="#000000" fill-rule="evenodd" fill-opacity="1" /><circle clip-path="url(#clip180)" cx="1006.32" cy="326.727" r="51.84" fill="#ff0000" fill-rule="evenodd" fill-opacity="1" stroke="#000000" stroke-opacity="1" stroke-width="3.84"/>
<path clip-path="url(#clip180)" d="M1161.28 293.836 L1161.28 304.93 Q1155.97 299.982 1149.93 297.534 Q1143.94 295.086 1137.17 295.086 Q1123.84 295.086 1116.75 303.263 Q1109.67 311.388 1109.67 326.805 Q1109.67 342.17 1116.75 350.347 Q1123.84 358.472 1137.17 358.472 Q1143.94 358.472 1149.93 356.024 Q1155.97 353.576 1161.28 348.628 L1161.28 359.617 Q1155.76 363.367 1149.56 365.242 Q1143.42 367.117 1136.54 367.117 Q1118.89 367.117 1108.73 356.336 Q1098.58 345.503 1098.58 326.805 Q1098.58 308.055 1108.73 297.274 Q1118.89 286.441 1136.54 286.441 Q1143.52 286.441 1149.67 288.316 Q1155.87 290.139 1161.28 293.836 Z" fill="#000000" fill-rule="evenodd" fill-opacity="1" /><path clip-path="url(#clip180)" d="M1199.72 313.993 Q1192.01 313.993 1187.53 320.034 Q1183.05 326.024 1183.05 336.492 Q1183.05 346.961 1187.48 353.003 Q1191.96 358.992 1199.72 358.992 Q1207.38 358.992 1211.86 352.951 Q1216.33 346.909 1216.33 336.492 Q1216.33 326.128 1211.86 320.086 Q1207.38 313.993 1199.72 313.993 M1199.72 305.868 Q1212.22 305.868 1219.36 313.993 Q1226.49 322.118 1226.49 336.492 Q1226.49 350.815 1219.36 358.992 Q1212.22 367.117 1199.72 367.117 Q1187.17 367.117 1180.03 358.992 Q1172.95 350.815 1172.95 336.492 Q1172.95 322.118 1180.03 313.993 Q1187.17 305.868 1199.72 305.868 Z" fill="#000000" fill-rule="evenodd" fill-opacity="1" /><path clip-path="url(#clip180)" d="M1290.87 330.399 L1290.87 365.607 L1281.28 365.607 L1281.28 330.711 Q1281.28 322.43 1278.05 318.315 Q1274.82 314.201 1268.37 314.201 Q1260.61 314.201 1256.13 319.149 Q1251.65 324.097 1251.65 332.638 L1251.65 365.607 L1242.01 365.607 L1242.01 307.274 L1251.65 307.274 L1251.65 316.336 Q1255.08 311.076 1259.72 308.472 Q1264.41 305.868 1270.5 305.868 Q1280.55 305.868 1285.71 312.118 Q1290.87 318.315 1290.87 330.399 Z" fill="#000000" fill-rule="evenodd" fill-opacity="1" /><path clip-path="url(#clip180)" d="M1347.17 308.993 L1347.17 318.055 Q1343.11 315.972 1338.73 314.93 Q1334.36 313.888 1329.67 313.888 Q1322.53 313.888 1318.94 316.076 Q1315.4 318.263 1315.4 322.638 Q1315.4 325.972 1317.95 327.899 Q1320.5 329.774 1328.21 331.492 L1331.49 332.222 Q1341.7 334.409 1345.97 338.42 Q1350.29 342.378 1350.29 349.513 Q1350.29 357.638 1343.83 362.378 Q1337.43 367.117 1326.18 367.117 Q1321.49 367.117 1316.39 366.18 Q1311.33 365.294 1305.71 363.471 L1305.71 353.576 Q1311.02 356.336 1316.18 357.742 Q1321.33 359.097 1326.39 359.097 Q1333.16 359.097 1336.8 356.805 Q1340.45 354.461 1340.45 350.242 Q1340.45 346.336 1337.79 344.253 Q1335.19 342.17 1326.28 340.242 L1322.95 339.461 Q1314.04 337.586 1310.08 333.732 Q1306.13 329.826 1306.13 323.055 Q1306.13 314.826 1311.96 310.347 Q1317.79 305.868 1328.52 305.868 Q1333.83 305.868 1338.52 306.649 Q1343.21 307.43 1347.17 308.993 Z" fill="#000000" fill-rule="evenodd" fill-opacity="1" /><path clip-path="url(#clip180)" d="M1375.03 290.711 L1375.03 307.274 L1394.77 307.274 L1394.77 314.722 L1375.03 314.722 L1375.03 346.388 Q1375.03 353.524 1376.96 355.555 Q1378.94 357.586 1384.93 357.586 L1394.77 357.586 L1394.77 365.607 L1384.93 365.607 Q1373.83 365.607 1369.62 361.492 Q1365.4 357.326 1365.4 346.388 L1365.4 314.722 L1358.37 314.722 L1358.37 307.274 L1365.4 307.274 L1365.4 290.711 L1375.03 290.711 Z" fill="#000000" fill-rule="evenodd" fill-opacity="1" /><path clip-path="url(#clip180)" d="M1441.18 316.232 Q1439.56 315.295 1437.64 314.878 Q1435.76 314.409 1433.47 314.409 Q1425.34 314.409 1420.97 319.722 Q1416.65 324.982 1416.65 334.878 L1416.65 365.607 L1407.01 365.607 L1407.01 307.274 L1416.65 307.274 L1416.65 316.336 Q1419.67 311.024 1424.51 308.472 Q1429.35 305.868 1436.28 305.868 Q1437.27 305.868 1438.47 306.024 Q1439.67 306.128 1441.13 306.388 L1441.18 316.232 Z" fill="#000000" fill-rule="evenodd" fill-opacity="1" /><path clip-path="url(#clip180)" d="M1477.74 336.284 Q1466.13 336.284 1461.65 338.94 Q1457.17 341.597 1457.17 348.003 Q1457.17 353.107 1460.5 356.128 Q1463.89 359.097 1469.67 359.097 Q1477.64 359.097 1482.43 353.472 Q1487.27 347.794 1487.27 338.42 L1487.27 336.284 L1477.74 336.284 M1496.85 332.326 L1496.85 365.607 L1487.27 365.607 L1487.27 356.753 Q1483.99 362.065 1479.09 364.617 Q1474.2 367.117 1467.11 367.117 Q1458.16 367.117 1452.84 362.117 Q1447.58 357.065 1447.58 348.628 Q1447.58 338.784 1454.15 333.784 Q1460.76 328.784 1473.83 328.784 L1487.27 328.784 L1487.27 327.847 Q1487.27 321.232 1482.9 317.638 Q1478.57 313.993 1470.71 313.993 Q1465.71 313.993 1460.97 315.19 Q1456.23 316.388 1451.85 318.784 L1451.85 309.93 Q1457.11 307.899 1462.06 306.909 Q1467.01 305.868 1471.7 305.868 Q1484.35 305.868 1490.6 312.43 Q1496.85 318.993 1496.85 332.326 Z" fill="#000000" fill-rule="evenodd" fill-opacity="1" /><path clip-path="url(#clip180)" d="M1516.59 307.274 L1526.18 307.274 L1526.18 365.607 L1516.59 365.607 L1516.59 307.274 M1516.59 284.566 L1526.18 284.566 L1526.18 296.701 L1516.59 296.701 L1516.59 284.566 Z" fill="#000000" fill-rule="evenodd" fill-opacity="1" /><path clip-path="url(#clip180)" d="M1594.72 330.399 L1594.72 365.607 L1585.14 365.607 L1585.14 330.711 Q1585.14 322.43 1581.91 318.315 Q1578.68 314.201 1572.22 314.201 Q1564.46 314.201 1559.98 319.149 Q1555.5 324.097 1555.5 332.638 L1555.5 365.607 L1545.86 365.607 L1545.86 307.274 L1555.5 307.274 L1555.5 316.336 Q1558.94 311.076 1563.57 308.472 Q1568.26 305.868 1574.35 305.868 Q1584.41 305.868 1589.56 312.118 Q1594.72 318.315 1594.72 330.399 Z" fill="#000000" fill-rule="evenodd" fill-opacity="1" /><path clip-path="url(#clip180)" d="M1663.73 334.045 L1663.73 338.732 L1619.67 338.732 Q1620.29 348.628 1625.6 353.836 Q1630.97 358.992 1640.5 358.992 Q1646.02 358.992 1651.18 357.638 Q1656.38 356.284 1661.49 353.576 L1661.49 362.638 Q1656.33 364.826 1650.92 365.971 Q1645.5 367.117 1639.93 367.117 Q1625.97 367.117 1617.79 358.992 Q1609.67 350.867 1609.67 337.013 Q1609.67 322.69 1617.37 314.305 Q1625.13 305.868 1638.26 305.868 Q1650.03 305.868 1656.85 313.472 Q1663.73 321.024 1663.73 334.045 M1654.15 331.232 Q1654.04 323.368 1649.72 318.68 Q1645.45 313.993 1638.36 313.993 Q1630.34 313.993 1625.5 318.524 Q1620.71 323.055 1619.98 331.284 L1654.15 331.232 Z" fill="#000000" fill-rule="evenodd" fill-opacity="1" /><path clip-path="url(#clip180)" d="M1717.84 316.128 L1717.84 284.566 L1727.43 284.566 L1727.43 365.607 L1717.84 365.607 L1717.84 356.857 Q1714.82 362.065 1710.19 364.617 Q1705.6 367.117 1699.14 367.117 Q1688.57 367.117 1681.91 358.68 Q1675.29 350.242 1675.29 336.492 Q1675.29 322.743 1681.91 314.305 Q1688.57 305.868 1699.14 305.868 Q1705.6 305.868 1710.19 308.42 Q1714.82 310.92 1717.84 316.128 M1685.19 336.492 Q1685.19 347.065 1689.51 353.107 Q1693.88 359.097 1701.49 359.097 Q1709.09 359.097 1713.47 353.107 Q1717.84 347.065 1717.84 336.492 Q1717.84 325.92 1713.47 319.93 Q1709.09 313.888 1701.49 313.888 Q1693.88 313.888 1689.51 319.93 Q1685.19 325.92 1685.19 336.492 Z" fill="#000000" fill-rule="evenodd" fill-opacity="1" /><path clip-path="url(#clip180)" d="M1813.05 294.982 Q1801.59 294.982 1794.82 303.524 Q1788.1 312.066 1788.1 326.805 Q1788.1 341.492 1794.82 350.034 Q1801.59 358.576 1813.05 358.576 Q1824.51 358.576 1831.18 350.034 Q1837.89 341.492 1837.89 326.805 Q1837.89 312.066 1831.18 303.524 Q1824.51 294.982 1813.05 294.982 M1813.05 286.441 Q1829.4 286.441 1839.2 297.43 Q1848.99 308.368 1848.99 326.805 Q1848.99 345.19 1839.2 356.18 Q1829.4 367.117 1813.05 367.117 Q1796.64 367.117 1786.8 356.18 Q1777.01 345.242 1777.01 326.805 Q1777.01 308.368 1786.8 297.43 Q1796.64 286.441 1813.05 286.441 Z" fill="#000000" fill-rule="evenodd" fill-opacity="1" /><path clip-path="url(#clip180)" d="M1874.3 356.857 L1874.3 387.794 L1864.66 387.794 L1864.66 307.274 L1874.3 307.274 L1874.3 316.128 Q1877.32 310.92 1881.9 308.42 Q1886.54 305.868 1892.95 305.868 Q1903.57 305.868 1910.19 314.305 Q1916.85 322.743 1916.85 336.492 Q1916.85 350.242 1910.19 358.68 Q1903.57 367.117 1892.95 367.117 Q1886.54 367.117 1881.9 364.617 Q1877.32 362.065 1874.3 356.857 M1906.9 336.492 Q1906.9 325.92 1902.53 319.93 Q1898.21 313.888 1890.6 313.888 Q1883 313.888 1878.62 319.93 Q1874.3 325.92 1874.3 336.492 Q1874.3 347.065 1878.62 353.107 Q1883 359.097 1890.6 359.097 Q1898.21 359.097 1902.53 353.107 Q1906.9 347.065 1906.9 336.492 Z" fill="#000000" fill-rule="evenodd" fill-opacity="1" /><path clip-path="url(#clip180)" d="M1942.22 290.711 L1942.22 307.274 L1961.96 307.274 L1961.96 314.722 L1942.22 314.722 L1942.22 346.388 Q1942.22 353.524 1944.14 355.555 Q1946.12 357.586 1952.11 357.586 L1961.96 357.586 L1961.96 365.607 L1952.11 365.607 Q1941.02 365.607 1936.8 361.492 Q1932.58 357.326 1932.58 346.388 L1932.58 314.722 L1925.55 314.722 L1925.55 307.274 L1932.58 307.274 L1932.58 290.711 L1942.22 290.711 Z" fill="#000000" fill-rule="evenodd" fill-opacity="1" /><path clip-path="url(#clip180)" d="M1974.56 307.274 L1984.14 307.274 L1984.14 365.607 L1974.56 365.607 L1974.56 307.274 M1974.56 284.566 L1984.14 284.566 L1984.14 296.701 L1974.56 296.701 L1974.56 284.566 Z" fill="#000000" fill-rule="evenodd" fill-opacity="1" /><path clip-path="url(#clip180)" d="M2049.61 318.472 Q2053.21 312.013 2058.21 308.941 Q2063.21 305.868 2069.98 305.868 Q2079.09 305.868 2084.04 312.274 Q2088.99 318.628 2088.99 330.399 L2088.99 365.607 L2079.35 365.607 L2079.35 330.711 Q2079.35 322.326 2076.38 318.263 Q2073.41 314.201 2067.32 314.201 Q2059.87 314.201 2055.55 319.149 Q2051.23 324.097 2051.23 332.638 L2051.23 365.607 L2041.59 365.607 L2041.59 330.711 Q2041.59 322.274 2038.62 318.263 Q2035.65 314.201 2029.46 314.201 Q2022.11 314.201 2017.79 319.201 Q2013.47 324.149 2013.47 332.638 L2013.47 365.607 L2003.83 365.607 L2003.83 307.274 L2013.47 307.274 L2013.47 316.336 Q2016.75 310.972 2021.33 308.42 Q2025.91 305.868 2032.22 305.868 Q2038.57 305.868 2043 309.097 Q2047.48 312.326 2049.61 318.472 Z" fill="#000000" fill-rule="evenodd" fill-opacity="1" /><path clip-path="url(#clip180)" d="M2107.11 342.586 L2107.11 307.274 L2116.69 307.274 L2116.69 342.222 Q2116.69 350.503 2119.92 354.669 Q2123.15 358.784 2129.61 358.784 Q2137.37 358.784 2141.85 353.836 Q2146.38 348.888 2146.38 340.347 L2146.38 307.274 L2155.97 307.274 L2155.97 365.607 L2146.38 365.607 L2146.38 356.649 Q2142.89 361.961 2138.26 364.565 Q2133.67 367.117 2127.58 367.117 Q2117.53 367.117 2112.32 360.867 Q2107.11 354.617 2107.11 342.586 M2131.23 305.868 L2131.23 305.868 Z" fill="#000000" fill-rule="evenodd" fill-opacity="1" /><path clip-path="url(#clip180)" d="M2221.12 318.472 Q2224.71 312.013 2229.71 308.941 Q2234.71 305.868 2241.49 305.868 Q2250.6 305.868 2255.55 312.274 Q2260.5 318.628 2260.5 330.399 L2260.5 365.607 L2250.86 365.607 L2250.86 330.711 Q2250.86 322.326 2247.89 318.263 Q2244.92 314.201 2238.83 314.201 Q2231.38 314.201 2227.06 319.149 Q2222.74 324.097 2222.74 332.638 L2222.74 365.607 L2213.1 365.607 L2213.1 330.711 Q2213.1 322.274 2210.13 318.263 Q2207.16 314.201 2200.97 314.201 Q2193.62 314.201 2189.3 319.201 Q2184.98 324.149 2184.98 332.638 L2184.98 365.607 L2175.34 365.607 L2175.34 307.274 L2184.98 307.274 L2184.98 316.336 Q2188.26 310.972 2192.84 308.42 Q2197.42 305.868 2203.73 305.868 Q2210.08 305.868 2214.51 309.097 Q2218.99 312.326 2221.12 318.472 Z" fill="#000000" fill-rule="evenodd" fill-opacity="1" /></svg>
