<?xml version="1.0" encoding="utf-8"?>
<svg xmlns="http://www.w3.org/2000/svg" xmlns:xlink="http://www.w3.org/1999/xlink" width="672" height="480" viewBox="0 0 2688 1920">
<defs>
  <clipPath id="clip610">
    <rect x="0" y="0" width="2688" height="1920"/>
  </clipPath>
</defs>
<path clip-path="url(#clip610)" d="
M0 1920 L2688 1920 L2688 0 L0 0  Z
  " fill="#ffffff" fill-rule="evenodd" fill-opacity="1"/>
<defs>
  <clipPath id="clip611">
    <rect x="537" y="0" width="1883" height="1883"/>
  </clipPath>
</defs>
<path clip-path="url(#clip610)" d="
M140.844 1800.78 L2640.76 1800.78 L2640.76 47.2441 L140.844 47.2441  Z
  " fill="#ffffff" fill-rule="evenodd" fill-opacity="1"/>
<defs>
  <clipPath id="clip612">
    <rect x="140" y="47" width="2501" height="1755"/>
  </clipPath>
</defs>
<polyline clip-path="url(#clip612)" style="stroke:#000000; stroke-linecap:butt; stroke-linejoin:round; stroke-width:2; stroke-opacity:0.1; fill:none" points="
  211.596,1800.78 211.596,47.2441 
  "/>
<polyline clip-path="url(#clip612)" style="stroke:#000000; stroke-linecap:butt; stroke-linejoin:round; stroke-width:2; stroke-opacity:0.1; fill:none" points="
  997.732,1800.78 997.732,47.2441 
  "/>
<polyline clip-path="url(#clip612)" style="stroke:#000000; stroke-linecap:butt; stroke-linejoin:round; stroke-width:2; stroke-opacity:0.1; fill:none" points="
  1783.87,1800.78 1783.87,47.2441 
  "/>
<polyline clip-path="url(#clip612)" style="stroke:#000000; stroke-linecap:butt; stroke-linejoin:round; stroke-width:2; stroke-opacity:0.1; fill:none" points="
  2570,1800.78 2570,47.2441 
  "/>
<polyline clip-path="url(#clip610)" style="stroke:#000000; stroke-linecap:butt; stroke-linejoin:round; stroke-width:4; stroke-opacity:1; fill:none" points="
  140.844,1800.78 2640.76,1800.78 
  "/>
<polyline clip-path="url(#clip610)" style="stroke:#000000; stroke-linecap:butt; stroke-linejoin:round; stroke-width:4; stroke-opacity:1; fill:none" points="
  211.596,1800.78 211.596,1781.88 
  "/>
<polyline clip-path="url(#clip610)" style="stroke:#000000; stroke-linecap:butt; stroke-linejoin:round; stroke-width:4; stroke-opacity:1; fill:none" points="
  997.732,1800.78 997.732,1781.88 
  "/>
<polyline clip-path="url(#clip610)" style="stroke:#000000; stroke-linecap:butt; stroke-linejoin:round; stroke-width:4; stroke-opacity:1; fill:none" points="
  1783.87,1800.78 1783.87,1781.88 
  "/>
<polyline clip-path="url(#clip610)" style="stroke:#000000; stroke-linecap:butt; stroke-linejoin:round; stroke-width:4; stroke-opacity:1; fill:none" points="
  2570,1800.78 2570,1781.88 
  "/>
<path clip-path="url(#clip610)" d="M201.978 1861.55 L209.617 1861.55 L209.617 1835.18 L201.307 1836.85 L201.307 1832.59 L209.571 1830.92 L214.247 1830.92 L214.247 1861.55 L221.886 1861.55 L221.886 1865.48 L201.978 1865.48 L201.978 1861.55 Z" fill="#000000" fill-rule="evenodd" fill-opacity="1" /><path clip-path="url(#clip610)" d="M992.385 1861.55 L1008.7 1861.55 L1008.7 1865.48 L986.76 1865.48 L986.76 1861.55 Q989.422 1858.79 994.005 1854.16 Q998.612 1849.51 999.792 1848.17 Q1002.04 1845.65 1002.92 1843.91 Q1003.82 1842.15 1003.82 1840.46 Q1003.82 1837.71 1001.88 1835.97 Q999.954 1834.23 996.852 1834.23 Q994.653 1834.23 992.2 1835 Q989.769 1835.76 986.991 1837.31 L986.991 1832.59 Q989.815 1831.46 992.269 1830.88 Q994.723 1830.3 996.76 1830.3 Q1002.13 1830.3 1005.32 1832.98 Q1008.52 1835.67 1008.52 1840.16 Q1008.52 1842.29 1007.71 1844.21 Q1006.92 1846.11 1004.82 1848.7 Q1004.24 1849.37 1001.13 1852.59 Q998.033 1855.78 992.385 1861.55 Z" fill="#000000" fill-rule="evenodd" fill-opacity="1" /><path clip-path="url(#clip610)" d="M1788.12 1846.85 Q1791.47 1847.57 1793.35 1849.84 Q1795.25 1852.1 1795.25 1855.44 Q1795.25 1860.55 1791.73 1863.35 Q1788.21 1866.15 1781.73 1866.15 Q1779.55 1866.15 1777.24 1865.71 Q1774.94 1865.3 1772.49 1864.44 L1772.49 1859.93 Q1774.44 1861.06 1776.75 1861.64 Q1779.06 1862.22 1781.59 1862.22 Q1785.99 1862.22 1788.28 1860.48 Q1790.59 1858.75 1790.59 1855.44 Q1790.59 1852.38 1788.44 1850.67 Q1786.31 1848.93 1782.49 1848.93 L1778.46 1848.93 L1778.46 1845.09 L1782.68 1845.09 Q1786.12 1845.09 1787.95 1843.72 Q1789.78 1842.34 1789.78 1839.74 Q1789.78 1837.08 1787.88 1835.67 Q1786.01 1834.23 1782.49 1834.23 Q1780.57 1834.23 1778.37 1834.65 Q1776.17 1835.07 1773.53 1835.95 L1773.53 1831.78 Q1776.19 1831.04 1778.51 1830.67 Q1780.85 1830.3 1782.91 1830.3 Q1788.23 1830.3 1791.33 1832.73 Q1794.43 1835.14 1794.43 1839.26 Q1794.43 1842.13 1792.79 1844.12 Q1791.15 1846.09 1788.12 1846.85 Z" fill="#000000" fill-rule="evenodd" fill-opacity="1" /><path clip-path="url(#clip610)" d="M2573.01 1835 L2561.21 1853.45 L2573.01 1853.45 L2573.01 1835 M2571.79 1830.92 L2577.67 1830.92 L2577.67 1853.45 L2582.6 1853.45 L2582.6 1857.34 L2577.67 1857.34 L2577.67 1865.48 L2573.01 1865.48 L2573.01 1857.34 L2557.41 1857.34 L2557.41 1852.82 L2571.79 1830.92 Z" fill="#000000" fill-rule="evenodd" fill-opacity="1" /><polyline clip-path="url(#clip612)" style="stroke:#000000; stroke-linecap:butt; stroke-linejoin:round; stroke-width:2; stroke-opacity:0.1; fill:none" points="
  140.844,1530.58 2640.76,1530.58 
  "/>
<polyline clip-path="url(#clip612)" style="stroke:#000000; stroke-linecap:butt; stroke-linejoin:round; stroke-width:2; stroke-opacity:0.1; fill:none" points="
  140.844,1199.72 2640.76,1199.72 
  "/>
<polyline clip-path="url(#clip612)" style="stroke:#000000; stroke-linecap:butt; stroke-linejoin:round; stroke-width:2; stroke-opacity:0.1; fill:none" points="
  140.844,868.869 2640.76,868.869 
  "/>
<polyline clip-path="url(#clip612)" style="stroke:#000000; stroke-linecap:butt; stroke-linejoin:round; stroke-width:2; stroke-opacity:0.1; fill:none" points="
  140.844,538.013 2640.76,538.013 
  "/>
<polyline clip-path="url(#clip612)" style="stroke:#000000; stroke-linecap:butt; stroke-linejoin:round; stroke-width:2; stroke-opacity:0.1; fill:none" points="
  140.844,207.158 2640.76,207.158 
  "/>
<polyline clip-path="url(#clip610)" style="stroke:#000000; stroke-linecap:butt; stroke-linejoin:round; stroke-width:4; stroke-opacity:1; fill:none" points="
  140.844,1800.78 140.844,47.2441 
  "/>
<polyline clip-path="url(#clip610)" style="stroke:#000000; stroke-linecap:butt; stroke-linejoin:round; stroke-width:4; stroke-opacity:1; fill:none" points="
  140.844,1530.58 159.742,1530.58 
  "/>
<polyline clip-path="url(#clip610)" style="stroke:#000000; stroke-linecap:butt; stroke-linejoin:round; stroke-width:4; stroke-opacity:1; fill:none" points="
  140.844,1199.72 159.742,1199.72 
  "/>
<polyline clip-path="url(#clip610)" style="stroke:#000000; stroke-linecap:butt; stroke-linejoin:round; stroke-width:4; stroke-opacity:1; fill:none" points="
  140.844,868.869 159.742,868.869 
  "/>
<polyline clip-path="url(#clip610)" style="stroke:#000000; stroke-linecap:butt; stroke-linejoin:round; stroke-width:4; stroke-opacity:1; fill:none" points="
  140.844,538.013 159.742,538.013 
  "/>
<polyline clip-path="url(#clip610)" style="stroke:#000000; stroke-linecap:butt; stroke-linejoin:round; stroke-width:4; stroke-opacity:1; fill:none" points="
  140.844,207.158 159.742,207.158 
  "/>
<path clip-path="url(#clip610)" d="M93.3945 1529.23 Q96.7509 1529.94 98.6259 1532.21 Q100.524 1534.48 100.524 1537.81 Q100.524 1542.93 97.0056 1545.73 Q93.4871 1548.53 87.0056 1548.53 Q84.8297 1548.53 82.5149 1548.09 Q80.2233 1547.68 77.7696 1546.82 L77.7696 1542.3 Q79.714 1543.44 82.0288 1544.02 Q84.3436 1544.6 86.8667 1544.6 Q91.2649 1544.6 93.5565 1542.86 Q95.8713 1541.12 95.8713 1537.81 Q95.8713 1534.76 93.7186 1533.05 Q91.5889 1531.31 87.7695 1531.31 L83.7418 1531.31 L83.7418 1527.47 L87.9547 1527.47 Q91.4038 1527.47 93.2324 1526.1 Q95.0611 1524.71 95.0611 1522.12 Q95.0611 1519.46 93.163 1518.05 Q91.288 1516.61 87.7695 1516.61 Q85.8482 1516.61 83.6492 1517.03 Q81.4501 1517.44 78.8112 1518.32 L78.8112 1514.16 Q81.4733 1513.42 83.7881 1513.05 Q86.126 1512.68 88.1862 1512.68 Q93.5102 1512.68 96.6121 1515.11 Q99.7139 1517.51 99.7139 1521.63 Q99.7139 1524.5 98.0704 1526.49 Q96.4269 1528.46 93.3945 1529.23 Z" fill="#000000" fill-rule="evenodd" fill-opacity="1" /><path clip-path="url(#clip610)" d="M88.9964 1197.86 Q85.8482 1197.86 83.9964 1200.01 Q82.1677 1202.17 82.1677 1205.92 Q82.1677 1209.64 83.9964 1211.82 Q85.8482 1213.97 88.9964 1213.97 Q92.1445 1213.97 93.9732 1211.82 Q95.825 1209.64 95.825 1205.92 Q95.825 1202.17 93.9732 1200.01 Q92.1445 1197.86 88.9964 1197.86 M98.2787 1183.21 L98.2787 1187.47 Q96.5195 1186.63 94.7139 1186.19 Q92.9315 1185.75 91.1723 1185.75 Q86.5427 1185.75 84.089 1188.88 Q81.6584 1192 81.3112 1198.32 Q82.6769 1196.31 84.7371 1195.25 Q86.7973 1194.16 89.2741 1194.16 Q94.4824 1194.16 97.4917 1197.33 Q100.524 1200.48 100.524 1205.92 Q100.524 1211.24 97.3759 1214.46 Q94.2278 1217.68 88.9964 1217.68 Q83.001 1217.68 79.8297 1213.09 Q76.6585 1208.49 76.6585 1199.76 Q76.6585 1191.57 80.5473 1186.7 Q84.4362 1181.82 90.9871 1181.82 Q92.7463 1181.82 94.5287 1182.17 Q96.3343 1182.51 98.2787 1183.21 Z" fill="#000000" fill-rule="evenodd" fill-opacity="1" /><path clip-path="url(#clip610)" d="M78.9038 885.431 L78.9038 881.172 Q80.6631 882.006 82.4686 882.445 Q84.2742 882.885 86.0103 882.885 Q90.6399 882.885 93.0704 879.783 Q95.5241 876.658 95.8713 870.316 Q94.5287 872.307 92.4686 873.371 Q90.4084 874.436 87.9084 874.436 Q82.7232 874.436 79.6909 871.311 Q76.6816 868.163 76.6816 862.723 Q76.6816 857.399 79.8297 854.182 Q82.9779 850.964 88.2093 850.964 Q94.2047 850.964 97.3528 855.571 Q100.524 860.154 100.524 868.904 Q100.524 877.075 96.6352 881.959 Q92.7695 886.82 86.2186 886.82 Q84.4593 886.82 82.6538 886.473 Q80.8483 886.126 78.9038 885.431 M88.2093 870.779 Q91.3575 870.779 93.1862 868.626 Q95.038 866.473 95.038 862.723 Q95.038 858.996 93.1862 856.844 Q91.3575 854.668 88.2093 854.668 Q85.0612 854.668 83.2094 856.844 Q81.3807 858.996 81.3807 862.723 Q81.3807 866.473 83.2094 868.626 Q85.0612 870.779 88.2093 870.779 Z" fill="#000000" fill-rule="evenodd" fill-opacity="1" /><path clip-path="url(#clip610)" d="M50.8253 551.358 L58.4641 551.358 L58.4641 524.993 L50.154 526.659 L50.154 522.4 L58.4178 520.733 L63.0937 520.733 L63.0937 551.358 L70.7326 551.358 L70.7326 555.293 L50.8253 555.293 L50.8253 551.358 Z" fill="#000000" fill-rule="evenodd" fill-opacity="1" /><path clip-path="url(#clip610)" d="M84.2047 551.358 L100.524 551.358 L100.524 555.293 L78.5797 555.293 L78.5797 551.358 Q81.2418 548.604 85.8251 543.974 Q90.4315 539.321 91.6121 537.979 Q93.8574 535.456 94.7371 533.719 Q95.6398 531.96 95.6398 530.27 Q95.6398 527.516 93.6954 525.78 Q91.7741 524.044 88.6723 524.044 Q86.4732 524.044 84.0195 524.807 Q81.589 525.571 78.8112 527.122 L78.8112 522.4 Q81.6353 521.266 84.089 520.687 Q86.5427 520.108 88.5797 520.108 Q93.95 520.108 97.1445 522.794 Q100.339 525.479 100.339 529.969 Q100.339 532.099 99.5287 534.02 Q98.7417 535.918 96.6352 538.511 Q96.0565 539.182 92.9547 542.4 Q89.8528 545.594 84.2047 551.358 Z" fill="#000000" fill-rule="evenodd" fill-opacity="1" /><path clip-path="url(#clip610)" d="M50.2234 220.503 L57.8623 220.503 L57.8623 194.137 L49.5521 195.804 L49.5521 191.544 L57.816 189.878 L62.4919 189.878 L62.4919 220.503 L70.1307 220.503 L70.1307 224.438 L50.2234 224.438 L50.2234 220.503 Z" fill="#000000" fill-rule="evenodd" fill-opacity="1" /><path clip-path="url(#clip610)" d="M79.6214 189.878 L97.9778 189.878 L97.9778 193.813 L83.9038 193.813 L83.9038 202.285 Q84.9223 201.938 85.9408 201.776 Q86.9593 201.591 87.9778 201.591 Q93.7649 201.591 97.1445 204.762 Q100.524 207.933 100.524 213.35 Q100.524 218.928 97.0519 222.03 Q93.5797 225.109 87.2603 225.109 Q85.0843 225.109 82.8158 224.739 Q80.5705 224.368 78.1631 223.628 L78.1631 218.928 Q80.2464 220.063 82.4686 220.618 Q84.6908 221.174 87.1677 221.174 Q91.1723 221.174 93.5102 219.067 Q95.8482 216.961 95.8482 213.35 Q95.8482 209.739 93.5102 207.632 Q91.1723 205.526 87.1677 205.526 Q85.2927 205.526 83.4177 205.942 Q81.5658 206.359 79.6214 207.239 L79.6214 189.878 Z" fill="#000000" fill-rule="evenodd" fill-opacity="1" /><polyline clip-path="url(#clip612)" style="stroke:#009af9; stroke-linecap:butt; stroke-linejoin:round; stroke-width:4; stroke-opacity:1; fill:none" points="
  211.596,1751.15 997.732,1420.3 1783.87,868.869 2570,96.8724 
  "/>
<path clip-path="url(#clip610)" d="
M2227.23 209.375 L2557.43 209.375 L2557.43 105.695 L2227.23 105.695  Z
  " fill="#ffffff" fill-rule="evenodd" fill-opacity="1"/>
<polyline clip-path="url(#clip610)" style="stroke:#000000; stroke-linecap:butt; stroke-linejoin:round; stroke-width:4; stroke-opacity:1; fill:none" points="
  2227.23,209.375 2557.43,209.375 2557.43,105.695 2227.23,105.695 2227.23,209.375 
  "/>
<polyline clip-path="url(#clip610)" style="stroke:#009af9; stroke-linecap:butt; stroke-linejoin:round; stroke-width:4; stroke-opacity:1; fill:none" points="
  2255,157.535 2421.66,157.535 
  "/>
<path clip-path="url(#clip610)" d="M2463.28 177.223 Q2461.48 181.852 2459.77 183.264 Q2458.05 184.676 2455.18 184.676 L2451.78 184.676 L2451.78 181.112 L2454.28 181.112 Q2456.04 181.112 2457.01 180.278 Q2457.98 179.445 2459.16 176.343 L2459.93 174.399 L2449.44 148.889 L2453.96 148.889 L2462.06 169.167 L2470.16 148.889 L2474.67 148.889 L2463.28 177.223 Z" fill="#000000" fill-rule="evenodd" fill-opacity="1" /><path clip-path="url(#clip610)" d="M2481.96 170.88 L2489.6 170.88 L2489.6 144.515 L2481.29 146.181 L2481.29 141.922 L2489.56 140.255 L2494.23 140.255 L2494.23 170.88 L2501.87 170.88 L2501.87 174.815 L2481.96 174.815 L2481.96 170.88 Z" fill="#000000" fill-rule="evenodd" fill-opacity="1" /></svg>
