<?xml version="1.0" encoding="utf-8"?>
<svg xmlns="http://www.w3.org/2000/svg" xmlns:xlink="http://www.w3.org/1999/xlink" width="672" height="480" viewBox="0 0 2688 1920">
<defs>
  <clipPath id="clip730">
    <rect x="0" y="0" width="2688" height="1920"/>
  </clipPath>
</defs>
<path clip-path="url(#clip730)" d="
M0 1920 L2688 1920 L2688 0 L0 0  Z
  " fill="#ffffff" fill-rule="evenodd" fill-opacity="1"/>
<defs>
  <clipPath id="clip731">
    <rect x="537" y="0" width="1883" height="1883"/>
  </clipPath>
</defs>
<path clip-path="url(#clip730)" d="
M190.984 1800.78 L2640.76 1800.78 L2640.76 47.2441 L190.984 47.2441  Z
  " fill="#ffffff" fill-rule="evenodd" fill-opacity="1"/>
<defs>
  <clipPath id="clip732">
    <rect x="190" y="47" width="2451" height="1755"/>
  </clipPath>
</defs>
<polyline clip-path="url(#clip732)" style="stroke:#000000; stroke-linecap:butt; stroke-linejoin:round; stroke-width:2; stroke-opacity:0.1; fill:none" points="
  236.973,1800.78 236.973,47.2441 
  "/>
<polyline clip-path="url(#clip732)" style="stroke:#000000; stroke-linecap:butt; stroke-linejoin:round; stroke-width:2; stroke-opacity:0.1; fill:none" points="
  820.585,1800.78 820.585,47.2441 
  "/>
<polyline clip-path="url(#clip732)" style="stroke:#000000; stroke-linecap:butt; stroke-linejoin:round; stroke-width:2; stroke-opacity:0.1; fill:none" points="
  1404.2,1800.78 1404.2,47.2441 
  "/>
<polyline clip-path="url(#clip732)" style="stroke:#000000; stroke-linecap:butt; stroke-linejoin:round; stroke-width:2; stroke-opacity:0.1; fill:none" points="
  1987.81,1800.78 1987.81,47.2441 
  "/>
<polyline clip-path="url(#clip732)" style="stroke:#000000; stroke-linecap:butt; stroke-linejoin:round; stroke-width:2; stroke-opacity:0.1; fill:none" points="
  2571.42,1800.78 2571.42,47.2441 
  "/>
<polyline clip-path="url(#clip730)" style="stroke:#000000; stroke-linecap:butt; stroke-linejoin:round; stroke-width:4; stroke-opacity:1; fill:none" points="
  190.984,1800.78 2640.76,1800.78 
  "/>
<polyline clip-path="url(#clip730)" style="stroke:#000000; stroke-linecap:butt; stroke-linejoin:round; stroke-width:4; stroke-opacity:1; fill:none" points="
  236.973,1800.78 236.973,1781.88 
  "/>
<polyline clip-path="url(#clip730)" style="stroke:#000000; stroke-linecap:butt; stroke-linejoin:round; stroke-width:4; stroke-opacity:1; fill:none" points="
  820.585,1800.78 820.585,1781.88 
  "/>
<polyline clip-path="url(#clip730)" style="stroke:#000000; stroke-linecap:butt; stroke-linejoin:round; stroke-width:4; stroke-opacity:1; fill:none" points="
  1404.2,1800.78 1404.2,1781.88 
  "/>
<polyline clip-path="url(#clip730)" style="stroke:#000000; stroke-linecap:butt; stroke-linejoin:round; stroke-width:4; stroke-opacity:1; fill:none" points="
  1987.81,1800.78 1987.81,1781.88 
  "/>
<polyline clip-path="url(#clip730)" style="stroke:#000000; stroke-linecap:butt; stroke-linejoin:round; stroke-width:4; stroke-opacity:1; fill:none" points="
  2571.42,1800.78 2571.42,1781.88 
  "/>
<path clip-path="url(#clip730)" d="M236.973 1834 Q233.362 1834 231.533 1837.57 Q229.727 1841.11 229.727 1848.24 Q229.727 1855.34 231.533 1858.91 Q233.362 1862.45 236.973 1862.45 Q240.607 1862.45 242.413 1858.91 Q244.241 1855.34 244.241 1848.24 Q244.241 1841.11 242.413 1837.57 Q240.607 1834 236.973 1834 M236.973 1830.3 Q242.783 1830.3 245.838 1834.9 Q248.917 1839.49 248.917 1848.24 Q248.917 1856.96 245.838 1861.57 Q242.783 1866.15 236.973 1866.15 Q231.163 1866.15 228.084 1861.57 Q225.028 1856.96 225.028 1848.24 Q225.028 1839.49 228.084 1834.9 Q231.163 1830.3 236.973 1830.3 Z" fill="#000000" fill-rule="evenodd" fill-opacity="1" /><path clip-path="url(#clip730)" d="M799.856 1861.55 L816.176 1861.55 L816.176 1865.48 L794.231 1865.48 L794.231 1861.55 Q796.893 1858.79 801.477 1854.16 Q806.083 1849.51 807.264 1848.17 Q809.509 1845.65 810.389 1843.91 Q811.291 1842.15 811.291 1840.46 Q811.291 1837.71 809.347 1835.97 Q807.426 1834.23 804.324 1834.23 Q802.125 1834.23 799.671 1835 Q797.241 1835.76 794.463 1837.31 L794.463 1832.59 Q797.287 1831.46 799.74 1830.88 Q802.194 1830.3 804.231 1830.3 Q809.602 1830.3 812.796 1832.98 Q815.99 1835.67 815.99 1840.16 Q815.99 1842.29 815.18 1844.21 Q814.393 1846.11 812.287 1848.7 Q811.708 1849.37 808.606 1852.59 Q805.504 1855.78 799.856 1861.55 Z" fill="#000000" fill-rule="evenodd" fill-opacity="1" /><path clip-path="url(#clip730)" d="M826.037 1830.92 L844.393 1830.92 L844.393 1834.86 L830.319 1834.86 L830.319 1843.33 Q831.338 1842.98 832.356 1842.82 Q833.375 1842.64 834.393 1842.64 Q840.18 1842.64 843.56 1845.81 Q846.939 1848.98 846.939 1854.4 Q846.939 1859.97 843.467 1863.08 Q839.995 1866.15 833.675 1866.15 Q831.5 1866.15 829.231 1865.78 Q826.986 1865.41 824.578 1864.67 L824.578 1859.97 Q826.662 1861.11 828.884 1861.66 Q831.106 1862.22 833.583 1862.22 Q837.588 1862.22 839.925 1860.11 Q842.263 1858.01 842.263 1854.4 Q842.263 1850.78 839.925 1848.68 Q837.588 1846.57 833.583 1846.57 Q831.708 1846.57 829.833 1846.99 Q827.981 1847.4 826.037 1848.28 L826.037 1830.92 Z" fill="#000000" fill-rule="evenodd" fill-opacity="1" /><path clip-path="url(#clip730)" d="M1378.9 1830.92 L1397.25 1830.92 L1397.25 1834.86 L1383.18 1834.86 L1383.18 1843.33 Q1384.2 1842.98 1385.22 1842.82 Q1386.23 1842.64 1387.25 1842.64 Q1393.04 1842.64 1396.42 1845.81 Q1399.8 1848.98 1399.8 1854.4 Q1399.8 1859.97 1396.33 1863.08 Q1392.86 1866.15 1386.54 1866.15 Q1384.36 1866.15 1382.09 1865.78 Q1379.85 1865.41 1377.44 1864.67 L1377.44 1859.97 Q1379.52 1861.11 1381.74 1861.66 Q1383.97 1862.22 1386.44 1862.22 Q1390.45 1862.22 1392.79 1860.11 Q1395.12 1858.01 1395.12 1854.4 Q1395.12 1850.78 1392.79 1848.68 Q1390.45 1846.57 1386.44 1846.57 Q1384.57 1846.57 1382.69 1846.99 Q1380.84 1847.4 1378.9 1848.28 L1378.9 1830.92 Z" fill="#000000" fill-rule="evenodd" fill-opacity="1" /><path clip-path="url(#clip730)" d="M1419.01 1834 Q1415.4 1834 1413.57 1837.57 Q1411.77 1841.11 1411.77 1848.24 Q1411.77 1855.34 1413.57 1858.91 Q1415.4 1862.45 1419.01 1862.45 Q1422.65 1862.45 1424.45 1858.91 Q1426.28 1855.34 1426.28 1848.24 Q1426.28 1841.11 1424.45 1837.57 Q1422.65 1834 1419.01 1834 M1419.01 1830.3 Q1424.82 1830.3 1427.88 1834.9 Q1430.96 1839.49 1430.96 1848.24 Q1430.96 1856.96 1427.88 1861.57 Q1424.82 1866.15 1419.01 1866.15 Q1413.2 1866.15 1410.12 1861.57 Q1407.07 1856.96 1407.07 1848.24 Q1407.07 1839.49 1410.12 1834.9 Q1413.2 1830.3 1419.01 1830.3 Z" fill="#000000" fill-rule="evenodd" fill-opacity="1" /><path clip-path="url(#clip730)" d="M1961.66 1830.92 L1983.89 1830.92 L1983.89 1832.91 L1971.34 1865.48 L1966.46 1865.48 L1978.26 1834.86 L1961.66 1834.86 L1961.66 1830.92 Z" fill="#000000" fill-rule="evenodd" fill-opacity="1" /><path clip-path="url(#clip730)" d="M1993.05 1830.92 L2011.41 1830.92 L2011.41 1834.86 L1997.34 1834.86 L1997.34 1843.33 Q1998.35 1842.98 1999.37 1842.82 Q2000.39 1842.64 2001.41 1842.64 Q2007.2 1842.64 2010.58 1845.81 Q2013.96 1848.98 2013.96 1854.4 Q2013.96 1859.97 2010.48 1863.08 Q2007.01 1866.15 2000.69 1866.15 Q1998.52 1866.15 1996.25 1865.78 Q1994 1865.41 1991.59 1864.67 L1991.59 1859.97 Q1993.68 1861.11 1995.9 1861.66 Q1998.12 1862.22 2000.6 1862.22 Q2004.6 1862.22 2006.94 1860.11 Q2009.28 1858.01 2009.28 1854.4 Q2009.28 1850.78 2006.94 1848.68 Q2004.6 1846.57 2000.6 1846.57 Q1998.72 1846.57 1996.85 1846.99 Q1995 1847.4 1993.05 1848.28 L1993.05 1830.92 Z" fill="#000000" fill-rule="evenodd" fill-opacity="1" /><path clip-path="url(#clip730)" d="M2531.03 1861.55 L2538.67 1861.55 L2538.67 1835.18 L2530.36 1836.85 L2530.36 1832.59 L2538.62 1830.92 L2543.3 1830.92 L2543.3 1861.55 L2550.94 1861.55 L2550.94 1865.48 L2531.03 1865.48 L2531.03 1861.55 Z" fill="#000000" fill-rule="evenodd" fill-opacity="1" /><path clip-path="url(#clip730)" d="M2570.38 1834 Q2566.77 1834 2564.94 1837.57 Q2563.14 1841.11 2563.14 1848.24 Q2563.14 1855.34 2564.94 1858.91 Q2566.77 1862.45 2570.38 1862.45 Q2574.02 1862.45 2575.82 1858.91 Q2577.65 1855.34 2577.65 1848.24 Q2577.65 1841.11 2575.82 1837.57 Q2574.02 1834 2570.38 1834 M2570.38 1830.3 Q2576.19 1830.3 2579.25 1834.9 Q2582.33 1839.49 2582.33 1848.24 Q2582.33 1856.96 2579.25 1861.57 Q2576.19 1866.15 2570.38 1866.15 Q2564.57 1866.15 2561.49 1861.57 Q2558.44 1856.96 2558.44 1848.24 Q2558.44 1839.49 2561.49 1834.9 Q2564.57 1830.3 2570.38 1830.3 Z" fill="#000000" fill-rule="evenodd" fill-opacity="1" /><path clip-path="url(#clip730)" d="M2600.54 1834 Q2596.93 1834 2595.1 1837.57 Q2593.3 1841.11 2593.3 1848.24 Q2593.3 1855.34 2595.1 1858.91 Q2596.93 1862.45 2600.54 1862.45 Q2604.18 1862.45 2605.98 1858.91 Q2607.81 1855.34 2607.81 1848.24 Q2607.81 1841.11 2605.98 1837.57 Q2604.18 1834 2600.54 1834 M2600.54 1830.3 Q2606.35 1830.3 2609.41 1834.9 Q2612.49 1839.49 2612.49 1848.24 Q2612.49 1856.96 2609.41 1861.57 Q2606.35 1866.15 2600.54 1866.15 Q2594.73 1866.15 2591.65 1861.57 Q2588.6 1856.96 2588.6 1848.24 Q2588.6 1839.49 2591.65 1834.9 Q2594.73 1830.3 2600.54 1830.3 Z" fill="#000000" fill-rule="evenodd" fill-opacity="1" /><polyline clip-path="url(#clip732)" style="stroke:#000000; stroke-linecap:butt; stroke-linejoin:round; stroke-width:2; stroke-opacity:0.1; fill:none" points="
  190.984,1663.41 2640.76,1663.41 
  "/>
<polyline clip-path="url(#clip732)" style="stroke:#000000; stroke-linecap:butt; stroke-linejoin:round; stroke-width:2; stroke-opacity:0.1; fill:none" points="
  190.984,924.012 2640.76,924.012 
  "/>
<polyline clip-path="url(#clip732)" style="stroke:#000000; stroke-linecap:butt; stroke-linejoin:round; stroke-width:2; stroke-opacity:0.1; fill:none" points="
  190.984,184.615 2640.76,184.615 
  "/>
<polyline clip-path="url(#clip730)" style="stroke:#000000; stroke-linecap:butt; stroke-linejoin:round; stroke-width:4; stroke-opacity:1; fill:none" points="
  190.984,1800.78 190.984,47.2441 
  "/>
<polyline clip-path="url(#clip730)" style="stroke:#000000; stroke-linecap:butt; stroke-linejoin:round; stroke-width:4; stroke-opacity:1; fill:none" points="
  190.984,1663.41 209.882,1663.41 
  "/>
<polyline clip-path="url(#clip730)" style="stroke:#000000; stroke-linecap:butt; stroke-linejoin:round; stroke-width:4; stroke-opacity:1; fill:none" points="
  190.984,924.012 209.882,924.012 
  "/>
<polyline clip-path="url(#clip730)" style="stroke:#000000; stroke-linecap:butt; stroke-linejoin:round; stroke-width:4; stroke-opacity:1; fill:none" points="
  190.984,184.615 209.882,184.615 
  "/>
<path clip-path="url(#clip730)" d="M50.2234 1683.2 L57.8623 1683.2 L57.8623 1656.83 L49.5521 1658.5 L49.5521 1654.24 L57.816 1652.58 L62.4919 1652.58 L62.4919 1683.2 L70.1307 1683.2 L70.1307 1687.14 L50.2234 1687.14 L50.2234 1683.2 Z" fill="#000000" fill-rule="evenodd" fill-opacity="1" /><path clip-path="url(#clip730)" d="M89.5751 1655.65 Q85.964 1655.65 84.1353 1659.22 Q82.3297 1662.76 82.3297 1669.89 Q82.3297 1677 84.1353 1680.56 Q85.964 1684.1 89.5751 1684.1 Q93.2093 1684.1 95.0148 1680.56 Q96.8435 1677 96.8435 1669.89 Q96.8435 1662.76 95.0148 1659.22 Q93.2093 1655.65 89.5751 1655.65 M89.5751 1651.95 Q95.3852 1651.95 98.4408 1656.56 Q101.519 1661.14 101.519 1669.89 Q101.519 1678.62 98.4408 1683.22 Q95.3852 1687.81 89.5751 1687.81 Q83.7649 1687.81 80.6862 1683.22 Q77.6307 1678.62 77.6307 1669.89 Q77.6307 1661.14 80.6862 1656.56 Q83.7649 1651.95 89.5751 1651.95 Z" fill="#000000" fill-rule="evenodd" fill-opacity="1" /><path clip-path="url(#clip730)" d="M101.519 1646.05 L125.631 1646.05 L125.631 1649.25 L101.519 1649.25 L101.519 1646.05 Z" fill="#000000" fill-rule="evenodd" fill-opacity="1" /><path clip-path="url(#clip730)" d="M134.489 1656.53 L140.696 1656.53 L140.696 1635.11 L133.944 1636.46 L133.944 1633 L140.658 1631.65 L144.458 1631.65 L144.458 1656.53 L150.664 1656.53 L150.664 1659.73 L134.489 1659.73 L134.489 1656.53 Z" fill="#000000" fill-rule="evenodd" fill-opacity="1" /><path clip-path="url(#clip730)" d="M79.9585 943.804 L87.5974 943.804 L87.5974 917.439 L79.2872 919.105 L79.2872 914.846 L87.5511 913.179 L92.227 913.179 L92.227 943.804 L99.8658 943.804 L99.8658 947.739 L79.9585 947.739 L79.9585 943.804 Z" fill="#000000" fill-rule="evenodd" fill-opacity="1" /><path clip-path="url(#clip730)" d="M119.31 916.258 Q115.699 916.258 113.87 919.823 Q112.065 923.364 112.065 930.494 Q112.065 937.6 113.87 941.165 Q115.699 944.707 119.31 944.707 Q122.944 944.707 124.75 941.165 Q126.579 937.6 126.579 930.494 Q126.579 923.364 124.75 919.823 Q122.944 916.258 119.31 916.258 M119.31 912.554 Q125.12 912.554 128.176 917.161 Q131.255 921.744 131.255 930.494 Q131.255 939.221 128.176 943.827 Q125.12 948.411 119.31 948.411 Q113.5 948.411 110.421 943.827 Q107.366 939.221 107.366 930.494 Q107.366 921.744 110.421 917.161 Q113.5 912.554 119.31 912.554 Z" fill="#000000" fill-rule="evenodd" fill-opacity="1" /><path clip-path="url(#clip730)" d="M140.959 894.75 Q138.025 894.75 136.54 897.647 Q135.073 900.524 135.073 906.317 Q135.073 912.091 136.54 914.987 Q138.025 917.865 140.959 917.865 Q143.912 917.865 145.379 914.987 Q146.865 912.091 146.865 906.317 Q146.865 900.524 145.379 897.647 Q143.912 894.75 140.959 894.75 M140.959 891.741 Q145.68 891.741 148.163 895.484 Q150.664 899.208 150.664 906.317 Q150.664 913.408 148.163 917.15 Q145.68 920.874 140.959 920.874 Q136.239 920.874 133.737 917.15 Q131.255 913.408 131.255 906.317 Q131.255 899.208 133.737 895.484 Q136.239 891.741 140.959 891.741 Z" fill="#000000" fill-rule="evenodd" fill-opacity="1" /><path clip-path="url(#clip730)" d="M82.648 204.408 L90.2869 204.408 L90.2869 178.042 L81.9767 179.709 L81.9767 175.45 L90.2406 173.783 L94.9165 173.783 L94.9165 204.408 L102.555 204.408 L102.555 208.343 L82.648 208.343 L82.648 204.408 Z" fill="#000000" fill-rule="evenodd" fill-opacity="1" /><path clip-path="url(#clip730)" d="M122 176.862 Q118.389 176.862 116.56 180.427 Q114.754 183.968 114.754 191.098 Q114.754 198.204 116.56 201.769 Q118.389 205.311 122 205.311 Q125.634 205.311 127.439 201.769 Q129.268 198.204 129.268 191.098 Q129.268 183.968 127.439 180.427 Q125.634 176.862 122 176.862 M122 173.158 Q127.81 173.158 130.865 177.765 Q133.944 182.348 133.944 191.098 Q133.944 199.825 130.865 204.431 Q127.81 209.014 122 209.014 Q116.19 209.014 113.111 204.431 Q110.055 199.825 110.055 191.098 Q110.055 182.348 113.111 177.765 Q116.19 173.158 122 173.158 Z" fill="#000000" fill-rule="evenodd" fill-opacity="1" /><path clip-path="url(#clip730)" d="M134.489 177.735 L140.696 177.735 L140.696 156.313 L133.944 157.667 L133.944 154.207 L140.658 152.853 L144.458 152.853 L144.458 177.735 L150.664 177.735 L150.664 180.933 L134.489 180.933 L134.489 177.735 Z" fill="#000000" fill-rule="evenodd" fill-opacity="1" /><polyline clip-path="url(#clip732)" style="stroke:#009af9; stroke-linecap:butt; stroke-linejoin:round; stroke-width:4; stroke-opacity:1; fill:none" points="
  260.317,1751.15 283.662,1620.86 307.006,1553.39 330.351,1505.84 353.695,1468.43 377.04,1437.22 400.384,1410.21 423.729,1386.27 447.073,1364.65 470.418,1344.86 
  493.762,1326.55 517.107,1309.47 540.451,1293.41 563.796,1278.22 587.14,1263.79 610.485,1250.02 633.829,1236.81 657.174,1224.12 680.518,1211.88 703.863,1200.05 
  727.207,1188.58 750.552,1177.43 773.896,1166.59 797.241,1156.01 820.585,1145.68 843.93,1135.57 867.274,1125.67 890.619,1115.96 913.963,1106.42 937.308,1097.04 
  960.652,1087.8 983.997,1078.7 1007.34,1069.72 1030.69,1060.85 1054.03,1052.09 1077.37,1043.42 1100.72,1034.84 1124.06,1026.33 1147.41,1017.9 1170.75,1009.53 
  1194.1,1001.22 1217.44,992.956 1240.79,984.741 1264.13,976.565 1287.48,968.423 1310.82,960.31 1334.16,952.22 1357.51,944.148 1380.85,936.088 1404.2,928.036 
  1427.54,919.987 1450.89,911.935 1474.23,903.876 1497.58,895.803 1520.92,887.713 1544.26,879.6 1567.61,871.458 1590.95,863.283 1614.3,855.068 1637.64,846.807 
  1660.99,838.495 1684.33,830.126 1707.68,821.692 1731.02,813.186 1754.37,804.603 1777.71,795.933 1801.05,787.169 1824.4,778.302 1847.74,769.322 1871.09,760.219 
  1894.43,750.983 1917.78,741.601 1941.12,732.062 1964.47,722.349 1987.81,712.449 2011.15,702.343 2034.5,692.012 2057.84,681.436 2081.19,670.59 2104.53,659.447 
  2127.88,647.975 2151.22,636.14 2174.57,623.9 2197.91,611.208 2221.26,598.008 2244.6,584.232 2267.94,569.801 2291.29,554.616 2314.63,538.558 2337.98,521.472 
  2361.32,503.164 2384.67,483.376 2408.01,461.756 2431.36,437.81 2454.7,410.807 2478.04,379.593 2501.39,342.179 2524.73,294.636 2548.08,227.162 2571.42,96.8724 
  
  "/>
<path clip-path="url(#clip730)" d="
M2234.47 209.375 L2559.1 209.375 L2559.1 105.695 L2234.47 105.695  Z
  " fill="#ffffff" fill-rule="evenodd" fill-opacity="1"/>
<polyline clip-path="url(#clip730)" style="stroke:#000000; stroke-linecap:butt; stroke-linejoin:round; stroke-width:4; stroke-opacity:1; fill:none" points="
  2234.47,209.375 2559.1,209.375 2559.1,105.695 2234.47,105.695 2234.47,209.375 
  "/>
<polyline clip-path="url(#clip730)" style="stroke:#009af9; stroke-linecap:butt; stroke-linejoin:round; stroke-width:4; stroke-opacity:1; fill:none" points="
  2261.69,157.535 2425.01,157.535 
  "/>
<path clip-path="url(#clip730)" d="M2466.07 177.223 Q2464.26 181.852 2462.55 183.264 Q2460.84 184.676 2457.97 184.676 L2454.57 184.676 L2454.57 181.112 L2457.07 181.112 Q2458.82 181.112 2459.8 180.278 Q2460.77 179.445 2461.95 176.343 L2462.71 174.399 L2452.23 148.889 L2456.74 148.889 L2464.84 169.167 L2472.94 148.889 L2477.46 148.889 L2466.07 177.223 Z" fill="#000000" fill-rule="evenodd" fill-opacity="1" /><path clip-path="url(#clip730)" d="M2484.75 170.88 L2492.39 170.88 L2492.39 144.515 L2484.08 146.181 L2484.08 141.922 L2492.34 140.255 L2497.02 140.255 L2497.02 170.88 L2504.66 170.88 L2504.66 174.815 L2484.75 174.815 L2484.75 170.88 Z" fill="#000000" fill-rule="evenodd" fill-opacity="1" /></svg>
