<?xml version="1.0" encoding="utf-8"?>
<svg xmlns="http://www.w3.org/2000/svg" xmlns:xlink="http://www.w3.org/1999/xlink" width="672" height="480" viewBox="0 0 2688 1920">
<defs>
  <clipPath id="clip370">
    <rect x="0" y="0" width="2688" height="1920"/>
  </clipPath>
</defs>
<path clip-path="url(#clip370)" d="
M0 1920 L2688 1920 L2688 0 L0 0  Z
  " fill="#ffffff" fill-rule="evenodd" fill-opacity="1"/>
<defs>
  <clipPath id="clip371">
    <rect x="537" y="0" width="1883" height="1883"/>
  </clipPath>
</defs>
<path clip-path="url(#clip370)" d="
M143.576 1800.78 L2640.76 1800.78 L2640.76 47.2441 L143.576 47.2441  Z
  " fill="#ffffff" fill-rule="evenodd" fill-opacity="1"/>
<defs>
  <clipPath id="clip372">
    <rect x="143" y="47" width="2498" height="1755"/>
  </clipPath>
</defs>
<polyline clip-path="url(#clip372)" style="stroke:#000000; stroke-linecap:butt; stroke-linejoin:round; stroke-width:2; stroke-opacity:0.1; fill:none" points="
  214.25,1800.78 214.25,47.2441 
  "/>
<polyline clip-path="url(#clip372)" style="stroke:#000000; stroke-linecap:butt; stroke-linejoin:round; stroke-width:2; stroke-opacity:0.1; fill:none" points="
  803.208,1800.78 803.208,47.2441 
  "/>
<polyline clip-path="url(#clip372)" style="stroke:#000000; stroke-linecap:butt; stroke-linejoin:round; stroke-width:2; stroke-opacity:0.1; fill:none" points="
  1392.17,1800.78 1392.17,47.2441 
  "/>
<polyline clip-path="url(#clip372)" style="stroke:#000000; stroke-linecap:butt; stroke-linejoin:round; stroke-width:2; stroke-opacity:0.1; fill:none" points="
  1981.12,1800.78 1981.12,47.2441 
  "/>
<polyline clip-path="url(#clip372)" style="stroke:#000000; stroke-linecap:butt; stroke-linejoin:round; stroke-width:2; stroke-opacity:0.1; fill:none" points="
  2570.08,1800.78 2570.08,47.2441 
  "/>
<polyline clip-path="url(#clip370)" style="stroke:#000000; stroke-linecap:butt; stroke-linejoin:round; stroke-width:4; stroke-opacity:1; fill:none" points="
  143.576,1800.78 2640.76,1800.78 
  "/>
<polyline clip-path="url(#clip370)" style="stroke:#000000; stroke-linecap:butt; stroke-linejoin:round; stroke-width:4; stroke-opacity:1; fill:none" points="
  214.25,1800.78 214.25,1781.88 
  "/>
<polyline clip-path="url(#clip370)" style="stroke:#000000; stroke-linecap:butt; stroke-linejoin:round; stroke-width:4; stroke-opacity:1; fill:none" points="
  803.208,1800.78 803.208,1781.88 
  "/>
<polyline clip-path="url(#clip370)" style="stroke:#000000; stroke-linecap:butt; stroke-linejoin:round; stroke-width:4; stroke-opacity:1; fill:none" points="
  1392.17,1800.78 1392.17,1781.88 
  "/>
<polyline clip-path="url(#clip370)" style="stroke:#000000; stroke-linecap:butt; stroke-linejoin:round; stroke-width:4; stroke-opacity:1; fill:none" points="
  1981.12,1800.78 1981.12,1781.88 
  "/>
<polyline clip-path="url(#clip370)" style="stroke:#000000; stroke-linecap:butt; stroke-linejoin:round; stroke-width:4; stroke-opacity:1; fill:none" points="
  2570.08,1800.78 2570.08,1781.88 
  "/>
<path clip-path="url(#clip370)" d="M181.403 1861.55 L189.042 1861.55 L189.042 1835.18 L180.732 1836.85 L180.732 1832.59 L188.996 1830.92 L193.672 1830.92 L193.672 1861.55 L201.311 1861.55 L201.311 1865.48 L181.403 1865.48 L181.403 1861.55 Z" fill="#000000" fill-rule="evenodd" fill-opacity="1" /><path clip-path="url(#clip370)" d="M210.755 1859.6 L215.639 1859.6 L215.639 1865.48 L210.755 1865.48 L210.755 1859.6 Z" fill="#000000" fill-rule="evenodd" fill-opacity="1" /><path clip-path="url(#clip370)" d="M235.824 1834 Q232.213 1834 230.385 1837.57 Q228.579 1841.11 228.579 1848.24 Q228.579 1855.34 230.385 1858.91 Q232.213 1862.45 235.824 1862.45 Q239.459 1862.45 241.264 1858.91 Q243.093 1855.34 243.093 1848.24 Q243.093 1841.11 241.264 1837.57 Q239.459 1834 235.824 1834 M235.824 1830.3 Q241.635 1830.3 244.69 1834.9 Q247.769 1839.49 247.769 1848.24 Q247.769 1856.96 244.69 1861.57 Q241.635 1866.15 235.824 1866.15 Q230.014 1866.15 226.936 1861.57 Q223.88 1856.96 223.88 1848.24 Q223.88 1839.49 226.936 1834.9 Q230.014 1830.3 235.824 1830.3 Z" fill="#000000" fill-rule="evenodd" fill-opacity="1" /><path clip-path="url(#clip370)" d="M770.859 1861.55 L778.498 1861.55 L778.498 1835.18 L770.187 1836.85 L770.187 1832.59 L778.451 1830.92 L783.127 1830.92 L783.127 1861.55 L790.766 1861.55 L790.766 1865.48 L770.859 1865.48 L770.859 1861.55 Z" fill="#000000" fill-rule="evenodd" fill-opacity="1" /><path clip-path="url(#clip370)" d="M800.21 1859.6 L805.095 1859.6 L805.095 1865.48 L800.21 1865.48 L800.21 1859.6 Z" fill="#000000" fill-rule="evenodd" fill-opacity="1" /><path clip-path="url(#clip370)" d="M815.326 1830.92 L833.682 1830.92 L833.682 1834.86 L819.608 1834.86 L819.608 1843.33 Q820.627 1842.98 821.645 1842.82 Q822.664 1842.64 823.683 1842.64 Q829.47 1842.64 832.849 1845.81 Q836.229 1848.98 836.229 1854.4 Q836.229 1859.97 832.757 1863.08 Q829.284 1866.15 822.965 1866.15 Q820.789 1866.15 818.521 1865.78 Q816.275 1865.41 813.868 1864.67 L813.868 1859.97 Q815.951 1861.11 818.173 1861.66 Q820.395 1862.22 822.872 1862.22 Q826.877 1862.22 829.215 1860.11 Q831.553 1858.01 831.553 1854.4 Q831.553 1850.78 829.215 1848.68 Q826.877 1846.57 822.872 1846.57 Q820.997 1846.57 819.122 1846.99 Q817.271 1847.4 815.326 1848.28 L815.326 1830.92 Z" fill="#000000" fill-rule="evenodd" fill-opacity="1" /><path clip-path="url(#clip370)" d="M1363.4 1861.55 L1379.72 1861.55 L1379.72 1865.48 L1357.78 1865.48 L1357.78 1861.55 Q1360.44 1858.79 1365.02 1854.16 Q1369.63 1849.51 1370.81 1848.17 Q1373.06 1845.65 1373.94 1843.91 Q1374.84 1842.15 1374.84 1840.46 Q1374.84 1837.71 1372.89 1835.97 Q1370.97 1834.23 1367.87 1834.23 Q1365.67 1834.23 1363.22 1835 Q1360.79 1835.76 1358.01 1837.31 L1358.01 1832.59 Q1360.83 1831.46 1363.29 1830.88 Q1365.74 1830.3 1367.78 1830.3 Q1373.15 1830.3 1376.34 1832.98 Q1379.54 1835.67 1379.54 1840.16 Q1379.54 1842.29 1378.73 1844.21 Q1377.94 1846.11 1375.83 1848.7 Q1375.26 1849.37 1372.15 1852.59 Q1369.05 1855.78 1363.4 1861.55 Z" fill="#000000" fill-rule="evenodd" fill-opacity="1" /><path clip-path="url(#clip370)" d="M1389.54 1859.6 L1394.42 1859.6 L1394.42 1865.48 L1389.54 1865.48 L1389.54 1859.6 Z" fill="#000000" fill-rule="evenodd" fill-opacity="1" /><path clip-path="url(#clip370)" d="M1414.61 1834 Q1411 1834 1409.17 1837.57 Q1407.36 1841.11 1407.36 1848.24 Q1407.36 1855.34 1409.17 1858.91 Q1411 1862.45 1414.61 1862.45 Q1418.24 1862.45 1420.05 1858.91 Q1421.88 1855.34 1421.88 1848.24 Q1421.88 1841.11 1420.05 1837.57 Q1418.24 1834 1414.61 1834 M1414.61 1830.3 Q1420.42 1830.3 1423.47 1834.9 Q1426.55 1839.49 1426.55 1848.24 Q1426.55 1856.96 1423.47 1861.57 Q1420.42 1866.15 1414.61 1866.15 Q1408.8 1866.15 1405.72 1861.57 Q1402.66 1856.96 1402.66 1848.24 Q1402.66 1839.49 1405.72 1834.9 Q1408.8 1830.3 1414.61 1830.3 Z" fill="#000000" fill-rule="evenodd" fill-opacity="1" /><path clip-path="url(#clip370)" d="M1952.86 1861.55 L1969.18 1861.55 L1969.18 1865.48 L1947.23 1865.48 L1947.23 1861.55 Q1949.9 1858.79 1954.48 1854.16 Q1959.09 1849.51 1960.27 1848.17 Q1962.51 1845.65 1963.39 1843.91 Q1964.29 1842.15 1964.29 1840.46 Q1964.29 1837.71 1962.35 1835.97 Q1960.43 1834.23 1957.33 1834.23 Q1955.13 1834.23 1952.67 1835 Q1950.24 1835.76 1947.47 1837.31 L1947.47 1832.59 Q1950.29 1831.46 1952.74 1830.88 Q1955.2 1830.3 1957.23 1830.3 Q1962.6 1830.3 1965.8 1832.98 Q1968.99 1835.67 1968.99 1840.16 Q1968.99 1842.29 1968.18 1844.21 Q1967.4 1846.11 1965.29 1848.7 Q1964.71 1849.37 1961.61 1852.59 Q1958.51 1855.78 1952.86 1861.55 Z" fill="#000000" fill-rule="evenodd" fill-opacity="1" /><path clip-path="url(#clip370)" d="M1978.99 1859.6 L1983.88 1859.6 L1983.88 1865.48 L1978.99 1865.48 L1978.99 1859.6 Z" fill="#000000" fill-rule="evenodd" fill-opacity="1" /><path clip-path="url(#clip370)" d="M1994.11 1830.92 L2012.47 1830.92 L2012.47 1834.86 L1998.39 1834.86 L1998.39 1843.33 Q1999.41 1842.98 2000.43 1842.82 Q2001.45 1842.64 2002.47 1842.64 Q2008.25 1842.64 2011.63 1845.81 Q2015.01 1848.98 2015.01 1854.4 Q2015.01 1859.97 2011.54 1863.08 Q2008.07 1866.15 2001.75 1866.15 Q1999.57 1866.15 1997.3 1865.78 Q1995.06 1865.41 1992.65 1864.67 L1992.65 1859.97 Q1994.73 1861.11 1996.96 1861.66 Q1999.18 1862.22 2001.66 1862.22 Q2005.66 1862.22 2008 1860.11 Q2010.34 1858.01 2010.34 1854.4 Q2010.34 1850.78 2008 1848.68 Q2005.66 1846.57 2001.66 1846.57 Q1999.78 1846.57 1997.91 1846.99 Q1996.05 1847.4 1994.11 1848.28 L1994.11 1830.92 Z" fill="#000000" fill-rule="evenodd" fill-opacity="1" /><path clip-path="url(#clip370)" d="M2551.39 1846.85 Q2554.75 1847.57 2556.62 1849.84 Q2558.52 1852.1 2558.52 1855.44 Q2558.52 1860.55 2555 1863.35 Q2551.48 1866.15 2545 1866.15 Q2542.82 1866.15 2540.51 1865.71 Q2538.22 1865.3 2535.76 1864.44 L2535.76 1859.93 Q2537.71 1861.06 2540.02 1861.64 Q2542.34 1862.22 2544.86 1862.22 Q2549.26 1862.22 2551.55 1860.48 Q2553.87 1858.75 2553.87 1855.44 Q2553.87 1852.38 2551.71 1850.67 Q2549.58 1848.93 2545.76 1848.93 L2541.74 1848.93 L2541.74 1845.09 L2545.95 1845.09 Q2549.4 1845.09 2551.23 1843.72 Q2553.06 1842.34 2553.06 1839.74 Q2553.06 1837.08 2551.16 1835.67 Q2549.28 1834.23 2545.76 1834.23 Q2543.84 1834.23 2541.64 1834.65 Q2539.44 1835.07 2536.81 1835.95 L2536.81 1831.78 Q2539.47 1831.04 2541.78 1830.67 Q2544.12 1830.3 2546.18 1830.3 Q2551.5 1830.3 2554.61 1832.73 Q2557.71 1835.14 2557.71 1839.26 Q2557.71 1842.13 2556.06 1844.12 Q2554.42 1846.09 2551.39 1846.85 Z" fill="#000000" fill-rule="evenodd" fill-opacity="1" /><path clip-path="url(#clip370)" d="M2567.38 1859.6 L2572.27 1859.6 L2572.27 1865.48 L2567.38 1865.48 L2567.38 1859.6 Z" fill="#000000" fill-rule="evenodd" fill-opacity="1" /><path clip-path="url(#clip370)" d="M2592.45 1834 Q2588.84 1834 2587.01 1837.57 Q2585.21 1841.11 2585.21 1848.24 Q2585.21 1855.34 2587.01 1858.91 Q2588.84 1862.45 2592.45 1862.45 Q2596.09 1862.45 2597.89 1858.91 Q2599.72 1855.34 2599.72 1848.24 Q2599.72 1841.11 2597.89 1837.57 Q2596.09 1834 2592.45 1834 M2592.45 1830.3 Q2598.26 1830.3 2601.32 1834.9 Q2604.4 1839.49 2604.4 1848.24 Q2604.4 1856.96 2601.32 1861.57 Q2598.26 1866.15 2592.45 1866.15 Q2586.64 1866.15 2583.56 1861.57 Q2580.51 1856.96 2580.51 1848.24 Q2580.51 1839.49 2583.56 1834.9 Q2586.64 1830.3 2592.45 1830.3 Z" fill="#000000" fill-rule="evenodd" fill-opacity="1" /><polyline clip-path="url(#clip372)" style="stroke:#000000; stroke-linecap:butt; stroke-linejoin:round; stroke-width:2; stroke-opacity:0.1; fill:none" points="
  143.576,1751.15 2640.76,1751.15 
  "/>
<polyline clip-path="url(#clip372)" style="stroke:#000000; stroke-linecap:butt; stroke-linejoin:round; stroke-width:2; stroke-opacity:0.1; fill:none" points="
  143.576,1406.51 2640.76,1406.51 
  "/>
<polyline clip-path="url(#clip372)" style="stroke:#000000; stroke-linecap:butt; stroke-linejoin:round; stroke-width:2; stroke-opacity:0.1; fill:none" points="
  143.576,1061.87 2640.76,1061.87 
  "/>
<polyline clip-path="url(#clip372)" style="stroke:#000000; stroke-linecap:butt; stroke-linejoin:round; stroke-width:2; stroke-opacity:0.1; fill:none" points="
  143.576,717.227 2640.76,717.227 
  "/>
<polyline clip-path="url(#clip372)" style="stroke:#000000; stroke-linecap:butt; stroke-linejoin:round; stroke-width:2; stroke-opacity:0.1; fill:none" points="
  143.576,372.586 2640.76,372.586 
  "/>
<polyline clip-path="url(#clip370)" style="stroke:#000000; stroke-linecap:butt; stroke-linejoin:round; stroke-width:4; stroke-opacity:1; fill:none" points="
  143.576,1800.78 143.576,47.2441 
  "/>
<polyline clip-path="url(#clip370)" style="stroke:#000000; stroke-linecap:butt; stroke-linejoin:round; stroke-width:4; stroke-opacity:1; fill:none" points="
  143.576,1751.15 162.473,1751.15 
  "/>
<polyline clip-path="url(#clip370)" style="stroke:#000000; stroke-linecap:butt; stroke-linejoin:round; stroke-width:4; stroke-opacity:1; fill:none" points="
  143.576,1406.51 162.473,1406.51 
  "/>
<polyline clip-path="url(#clip370)" style="stroke:#000000; stroke-linecap:butt; stroke-linejoin:round; stroke-width:4; stroke-opacity:1; fill:none" points="
  143.576,1061.87 162.473,1061.87 
  "/>
<polyline clip-path="url(#clip370)" style="stroke:#000000; stroke-linecap:butt; stroke-linejoin:round; stroke-width:4; stroke-opacity:1; fill:none" points="
  143.576,717.227 162.473,717.227 
  "/>
<polyline clip-path="url(#clip370)" style="stroke:#000000; stroke-linecap:butt; stroke-linejoin:round; stroke-width:4; stroke-opacity:1; fill:none" points="
  143.576,372.586 162.473,372.586 
  "/>
<path clip-path="url(#clip370)" d="M91.3112 1736.95 Q87.7001 1736.95 85.8714 1740.51 Q84.0658 1744.06 84.0658 1751.19 Q84.0658 1758.29 85.8714 1761.86 Q87.7001 1765.4 91.3112 1765.4 Q94.9454 1765.4 96.7509 1761.86 Q98.5796 1758.29 98.5796 1751.19 Q98.5796 1744.06 96.7509 1740.51 Q94.9454 1736.95 91.3112 1736.95 M91.3112 1733.25 Q97.1213 1733.25 100.177 1737.85 Q103.256 1742.44 103.256 1751.19 Q103.256 1759.91 100.177 1764.52 Q97.1213 1769.1 91.3112 1769.1 Q85.501 1769.1 82.4223 1764.52 Q79.3668 1759.91 79.3668 1751.19 Q79.3668 1742.44 82.4223 1737.85 Q85.501 1733.25 91.3112 1733.25 Z" fill="#000000" fill-rule="evenodd" fill-opacity="1" /><path clip-path="url(#clip370)" d="M82.3529 1389.23 L100.709 1389.23 L100.709 1393.16 L86.6353 1393.16 L86.6353 1401.64 Q87.6538 1401.29 88.6723 1401.13 Q89.6908 1400.94 90.7093 1400.94 Q96.4963 1400.94 99.8759 1404.11 Q103.256 1407.29 103.256 1412.7 Q103.256 1418.28 99.7833 1421.38 Q96.3111 1424.46 89.9917 1424.46 Q87.8158 1424.46 85.5473 1424.09 Q83.3019 1423.72 80.8946 1422.98 L80.8946 1418.28 Q82.9779 1419.41 85.2001 1419.97 Q87.4223 1420.53 89.8991 1420.53 Q93.9037 1420.53 96.2417 1418.42 Q98.5796 1416.31 98.5796 1412.7 Q98.5796 1409.09 96.2417 1406.98 Q93.9037 1404.88 89.8991 1404.88 Q88.0241 1404.88 86.1492 1405.29 Q84.2973 1405.71 82.3529 1406.59 L82.3529 1389.23 Z" fill="#000000" fill-rule="evenodd" fill-opacity="1" /><path clip-path="url(#clip370)" d="M51.9595 1075.21 L59.5984 1075.21 L59.5984 1048.85 L51.2882 1050.51 L51.2882 1046.25 L59.5521 1044.59 L64.228 1044.59 L64.228 1075.21 L71.8668 1075.21 L71.8668 1079.15 L51.9595 1079.15 L51.9595 1075.21 Z" fill="#000000" fill-rule="evenodd" fill-opacity="1" /><path clip-path="url(#clip370)" d="M91.3112 1047.67 Q87.7001 1047.67 85.8714 1051.23 Q84.0658 1054.77 84.0658 1061.9 Q84.0658 1069.01 85.8714 1072.57 Q87.7001 1076.12 91.3112 1076.12 Q94.9454 1076.12 96.7509 1072.57 Q98.5796 1069.01 98.5796 1061.9 Q98.5796 1054.77 96.7509 1051.23 Q94.9454 1047.67 91.3112 1047.67 M91.3112 1043.96 Q97.1213 1043.96 100.177 1048.57 Q103.256 1053.15 103.256 1061.9 Q103.256 1070.63 100.177 1075.24 Q97.1213 1079.82 91.3112 1079.82 Q85.501 1079.82 82.4223 1075.24 Q79.3668 1070.63 79.3668 1061.9 Q79.3668 1053.15 82.4223 1048.57 Q85.501 1043.96 91.3112 1043.96 Z" fill="#000000" fill-rule="evenodd" fill-opacity="1" /><path clip-path="url(#clip370)" d="M52.9549 730.572 L60.5937 730.572 L60.5937 704.206 L52.2836 705.873 L52.2836 701.614 L60.5474 699.947 L65.2233 699.947 L65.2233 730.572 L72.8622 730.572 L72.8622 734.507 L52.9549 734.507 L52.9549 730.572 Z" fill="#000000" fill-rule="evenodd" fill-opacity="1" /><path clip-path="url(#clip370)" d="M82.3529 699.947 L100.709 699.947 L100.709 703.882 L86.6353 703.882 L86.6353 712.354 Q87.6538 712.007 88.6723 711.845 Q89.6908 711.66 90.7093 711.66 Q96.4963 711.66 99.8759 714.831 Q103.256 718.002 103.256 723.419 Q103.256 728.998 99.7833 732.099 Q96.3111 735.178 89.9917 735.178 Q87.8158 735.178 85.5473 734.808 Q83.3019 734.437 80.8946 733.697 L80.8946 728.998 Q82.9779 730.132 85.2001 730.687 Q87.4223 731.243 89.8991 731.243 Q93.9037 731.243 96.2417 729.137 Q98.5796 727.03 98.5796 723.419 Q98.5796 719.808 96.2417 717.701 Q93.9037 715.595 89.8991 715.595 Q88.0241 715.595 86.1492 716.012 Q84.2973 716.428 82.3529 717.308 L82.3529 699.947 Z" fill="#000000" fill-rule="evenodd" fill-opacity="1" /><path clip-path="url(#clip370)" d="M55.1771 385.93 L71.4965 385.93 L71.4965 389.866 L49.5521 389.866 L49.5521 385.93 Q52.2141 383.176 56.7975 378.546 Q61.4039 373.893 62.5845 372.551 Q64.8298 370.028 65.7094 368.292 Q66.6122 366.532 66.6122 364.843 Q66.6122 362.088 64.6678 360.352 Q62.7465 358.616 59.6447 358.616 Q57.4456 358.616 54.9919 359.38 Q52.5614 360.143 49.7836 361.694 L49.7836 356.972 Q52.6077 355.838 55.0614 355.259 Q57.515 354.681 59.5521 354.681 Q64.9224 354.681 68.1168 357.366 Q71.3113 360.051 71.3113 364.542 Q71.3113 366.671 70.5011 368.592 Q69.7141 370.491 67.6076 373.083 Q67.0289 373.755 63.927 376.972 Q60.8252 380.167 55.1771 385.93 Z" fill="#000000" fill-rule="evenodd" fill-opacity="1" /><path clip-path="url(#clip370)" d="M91.3112 358.384 Q87.7001 358.384 85.8714 361.949 Q84.0658 365.491 84.0658 372.62 Q84.0658 379.727 85.8714 383.291 Q87.7001 386.833 91.3112 386.833 Q94.9454 386.833 96.7509 383.291 Q98.5796 379.727 98.5796 372.62 Q98.5796 365.491 96.7509 361.949 Q94.9454 358.384 91.3112 358.384 M91.3112 354.681 Q97.1213 354.681 100.177 359.287 Q103.256 363.87 103.256 372.62 Q103.256 381.347 100.177 385.954 Q97.1213 390.537 91.3112 390.537 Q85.501 390.537 82.4223 385.954 Q79.3668 381.347 79.3668 372.62 Q79.3668 363.87 82.4223 359.287 Q85.501 354.681 91.3112 354.681 Z" fill="#000000" fill-rule="evenodd" fill-opacity="1" /><path clip-path="url(#clip372)" d="
M214.25 1682.22 L1392.17 1268.65 L2570.08 1475.44 L2570.08 1751.15 L1392.17 1751.15 L214.25 1751.15  Z
  " fill="#ff0000" fill-rule="evenodd" fill-opacity="0.2"/>
<polyline clip-path="url(#clip372)" style="stroke:#ff0000; stroke-linecap:butt; stroke-linejoin:round; stroke-width:4; stroke-opacity:1; fill:none" points="
  214.25,1682.22 1392.17,1268.65 2570.08,1475.44 
  "/>
<path clip-path="url(#clip372)" d="
M214.25 1544.37 L1392.17 717.227 L2570.08 1130.8 L2570.08 1475.44 L1392.17 1268.65 L214.25 1682.22  Z
  " fill="#008000" fill-rule="evenodd" fill-opacity="0.3"/>
<polyline clip-path="url(#clip372)" style="stroke:#008000; stroke-linecap:butt; stroke-linejoin:round; stroke-width:4; stroke-opacity:1; fill:none" points="
  214.25,1544.37 1392.17,717.227 2570.08,1130.8 
  "/>
<path clip-path="url(#clip372)" d="
M214.25 1337.58 L1392.17 96.8724 L2570.08 717.227 L2570.08 1130.8 L1392.17 717.227 L214.25 1544.37  Z
  " fill="#0000ff" fill-rule="evenodd" fill-opacity="0.4"/>
<polyline clip-path="url(#clip372)" style="stroke:#0000ff; stroke-linecap:butt; stroke-linejoin:round; stroke-width:4; stroke-opacity:1; fill:none" points="
  214.25,1337.58 1392.17,96.8724 2570.08,717.227 
  "/>
<path clip-path="url(#clip370)" d="
M2227.04 313.055 L2557.52 313.055 L2557.52 105.695 L2227.04 105.695  Z
  " fill="#ffffff" fill-rule="evenodd" fill-opacity="1"/>
<polyline clip-path="url(#clip370)" style="stroke:#000000; stroke-linecap:butt; stroke-linejoin:round; stroke-width:4; stroke-opacity:1; fill:none" points="
  2227.04,313.055 2557.52,313.055 2557.52,105.695 2227.04,105.695 2227.04,313.055 
  "/>
<path clip-path="url(#clip370)" d="
M2254.79 178.271 L2421.27 178.271 L2421.27 136.799 L2254.79 136.799 L2254.79 178.271  Z
  " fill="#ff0000" fill-rule="evenodd" fill-opacity="0.2"/>
<polyline clip-path="url(#clip370)" style="stroke:#ff0000; stroke-linecap:butt; stroke-linejoin:round; stroke-width:4; stroke-opacity:1; fill:none" points="
  2254.79,136.799 2421.27,136.799 
  "/>
<path clip-path="url(#clip370)" d="M2462.86 177.223 Q2461.05 181.852 2459.34 183.264 Q2457.63 184.676 2454.76 184.676 L2451.35 184.676 L2451.35 181.112 L2453.85 181.112 Q2455.61 181.112 2456.58 180.278 Q2457.56 179.445 2458.74 176.343 L2459.5 174.399 L2449.01 148.889 L2453.53 148.889 L2461.63 169.167 L2469.73 148.889 L2474.25 148.889 L2462.86 177.223 Z" fill="#000000" fill-rule="evenodd" fill-opacity="1" /><path clip-path="url(#clip370)" d="M2481.54 170.88 L2489.18 170.88 L2489.18 144.515 L2480.87 146.181 L2480.87 141.922 L2489.13 140.255 L2493.81 140.255 L2493.81 170.88 L2501.44 170.88 L2501.44 174.815 L2481.54 174.815 L2481.54 170.88 Z" fill="#000000" fill-rule="evenodd" fill-opacity="1" /><path clip-path="url(#clip370)" d="
M2254.79 230.111 L2421.27 230.111 L2421.27 188.639 L2254.79 188.639 L2254.79 230.111  Z
  " fill="#008000" fill-rule="evenodd" fill-opacity="0.3"/>
<polyline clip-path="url(#clip370)" style="stroke:#008000; stroke-linecap:butt; stroke-linejoin:round; stroke-width:4; stroke-opacity:1; fill:none" points="
  2254.79,188.639 2421.27,188.639 
  "/>
<path clip-path="url(#clip370)" d="M2462.86 229.063 Q2461.05 233.692 2459.34 235.104 Q2457.63 236.516 2454.76 236.516 L2451.35 236.516 L2451.35 232.952 L2453.85 232.952 Q2455.61 232.952 2456.58 232.118 Q2457.56 231.285 2458.74 228.183 L2459.5 226.239 L2449.01 200.729 L2453.53 200.729 L2461.63 221.007 L2469.73 200.729 L2474.25 200.729 L2462.86 229.063 Z" fill="#000000" fill-rule="evenodd" fill-opacity="1" /><path clip-path="url(#clip370)" d="M2484.76 222.72 L2501.07 222.72 L2501.07 226.655 L2479.13 226.655 L2479.13 222.72 Q2481.79 219.965 2486.38 215.336 Q2490.98 210.683 2492.16 209.341 Q2494.41 206.817 2495.29 205.081 Q2496.19 203.322 2496.19 201.632 Q2496.19 198.878 2494.25 197.142 Q2492.32 195.405 2489.22 195.405 Q2487.02 195.405 2484.57 196.169 Q2482.14 196.933 2479.36 198.484 L2479.36 193.762 Q2482.19 192.628 2484.64 192.049 Q2487.09 191.47 2489.13 191.47 Q2494.5 191.47 2497.69 194.155 Q2500.89 196.841 2500.89 201.331 Q2500.89 203.461 2500.08 205.382 Q2499.29 207.28 2497.19 209.873 Q2496.61 210.544 2493.51 213.762 Q2490.4 216.956 2484.76 222.72 Z" fill="#000000" fill-rule="evenodd" fill-opacity="1" /><path clip-path="url(#clip370)" d="
M2254.79 281.951 L2421.27 281.951 L2421.27 240.479 L2254.79 240.479 L2254.79 281.951  Z
  " fill="#0000ff" fill-rule="evenodd" fill-opacity="0.4"/>
<polyline clip-path="url(#clip370)" style="stroke:#0000ff; stroke-linecap:butt; stroke-linejoin:round; stroke-width:4; stroke-opacity:1; fill:none" points="
  2254.79,240.479 2421.27,240.479 
  "/>
<path clip-path="url(#clip370)" d="M2462.86 280.903 Q2461.05 285.532 2459.34 286.944 Q2457.63 288.356 2454.76 288.356 L2451.35 288.356 L2451.35 284.792 L2453.85 284.792 Q2455.61 284.792 2456.58 283.958 Q2457.56 283.125 2458.74 280.023 L2459.5 278.079 L2449.01 252.569 L2453.53 252.569 L2461.63 272.847 L2469.73 252.569 L2474.25 252.569 L2462.86 280.903 Z" fill="#000000" fill-rule="evenodd" fill-opacity="1" /><path clip-path="url(#clip370)" d="M2494.89 259.861 Q2498.25 260.579 2500.13 262.847 Q2502.02 265.116 2502.02 268.449 Q2502.02 273.565 2498.51 276.366 Q2494.99 279.167 2488.51 279.167 Q2486.33 279.167 2484.01 278.727 Q2481.72 278.31 2479.27 277.454 L2479.27 272.94 Q2481.21 274.074 2483.53 274.653 Q2485.84 275.231 2488.37 275.231 Q2492.76 275.231 2495.06 273.495 Q2497.37 271.759 2497.37 268.449 Q2497.37 265.393 2495.22 263.681 Q2493.09 261.944 2489.27 261.944 L2485.24 261.944 L2485.24 258.102 L2489.45 258.102 Q2492.9 258.102 2494.73 256.736 Q2496.56 255.347 2496.56 252.755 Q2496.56 250.093 2494.66 248.681 Q2492.79 247.245 2489.27 247.245 Q2487.35 247.245 2485.15 247.662 Q2482.95 248.079 2480.31 248.958 L2480.31 244.792 Q2482.97 244.051 2485.29 243.681 Q2487.63 243.31 2489.69 243.31 Q2495.01 243.31 2498.11 245.741 Q2501.21 248.148 2501.21 252.269 Q2501.21 255.139 2499.57 257.13 Q2497.93 259.097 2494.89 259.861 Z" fill="#000000" fill-rule="evenodd" fill-opacity="1" /></svg>
