<?xml version="1.0" encoding="utf-8"?>
<svg xmlns="http://www.w3.org/2000/svg" xmlns:xlink="http://www.w3.org/1999/xlink" width="528" height="336" viewBox="0 0 2112 1344">
<defs>
  <clipPath id="clip450">
    <rect x="0" y="0" width="2112" height="1344"/>
  </clipPath>
</defs>
<path clip-path="url(#clip450)" d="M0 1344 L2112 1344 L2112 0 L0 0  Z" fill="#ffffff" fill-rule="evenodd" fill-opacity="1"/>
<defs>
  <clipPath id="clip451">
    <rect x="422" y="0" width="1479" height="1344"/>
  </clipPath>
</defs>
<path clip-path="url(#clip450)" d="M170.405 1173.47 L2064.76 1173.47 L2064.76 47.2441 L170.405 47.2441  Z" fill="#ffffff" fill-rule="evenodd" fill-opacity="1"/>
<defs>
  <clipPath id="clip452">
    <rect x="170" y="47" width="1895" height="1127"/>
  </clipPath>
</defs>
<polyline clip-path="url(#clip450)" style="stroke:#000000; stroke-linecap:round; stroke-linejoin:round; stroke-width:4; stroke-opacity:1; fill:none" points="170.405,1173.47 2064.76,1173.47 "/>
<polyline clip-path="url(#clip450)" style="stroke:#000000; stroke-linecap:round; stroke-linejoin:round; stroke-width:4; stroke-opacity:1; fill:none" points="224.019,1173.47 224.019,1154.57 "/>
<polyline clip-path="url(#clip450)" style="stroke:#000000; stroke-linecap:round; stroke-linejoin:round; stroke-width:4; stroke-opacity:1; fill:none" points="581.444,1173.47 581.444,1154.57 "/>
<polyline clip-path="url(#clip450)" style="stroke:#000000; stroke-linecap:round; stroke-linejoin:round; stroke-width:4; stroke-opacity:1; fill:none" points="938.868,1173.47 938.868,1154.57 "/>
<polyline clip-path="url(#clip450)" style="stroke:#000000; stroke-linecap:round; stroke-linejoin:round; stroke-width:4; stroke-opacity:1; fill:none" points="1296.29,1173.47 1296.29,1154.57 "/>
<polyline clip-path="url(#clip450)" style="stroke:#000000; stroke-linecap:round; stroke-linejoin:round; stroke-width:4; stroke-opacity:1; fill:none" points="1653.72,1173.47 1653.72,1154.57 "/>
<polyline clip-path="url(#clip450)" style="stroke:#000000; stroke-linecap:round; stroke-linejoin:round; stroke-width:4; stroke-opacity:1; fill:none" points="2011.14,1173.47 2011.14,1154.57 "/>
<path clip-path="url(#clip450)" d="M224.019 1202.09 Q220.408 1202.09 218.579 1205.65 Q216.774 1209.19 216.774 1216.32 Q216.774 1223.43 218.579 1226.99 Q220.408 1230.53 224.019 1230.53 Q227.653 1230.53 229.459 1226.99 Q231.287 1223.43 231.287 1216.32 Q231.287 1209.19 229.459 1205.65 Q227.653 1202.09 224.019 1202.09 M224.019 1198.38 Q229.829 1198.38 232.885 1202.99 Q235.963 1207.57 235.963 1216.32 Q235.963 1225.05 232.885 1229.65 Q229.829 1234.24 224.019 1234.24 Q218.209 1234.24 215.13 1229.65 Q212.075 1225.05 212.075 1216.32 Q212.075 1207.57 215.13 1202.99 Q218.209 1198.38 224.019 1198.38 Z" fill="#000000" fill-rule="nonzero" fill-opacity="1" /><path clip-path="url(#clip450)" d="M556.131 1229.63 L563.77 1229.63 L563.77 1203.27 L555.46 1204.93 L555.46 1200.67 L563.724 1199.01 L568.4 1199.01 L568.4 1229.63 L576.039 1229.63 L576.039 1233.57 L556.131 1233.57 L556.131 1229.63 Z" fill="#000000" fill-rule="nonzero" fill-opacity="1" /><path clip-path="url(#clip450)" d="M595.483 1202.09 Q591.872 1202.09 590.043 1205.65 Q588.238 1209.19 588.238 1216.32 Q588.238 1223.43 590.043 1226.99 Q591.872 1230.53 595.483 1230.53 Q599.117 1230.53 600.923 1226.99 Q602.751 1223.43 602.751 1216.32 Q602.751 1209.19 600.923 1205.65 Q599.117 1202.09 595.483 1202.09 M595.483 1198.38 Q601.293 1198.38 604.349 1202.99 Q607.427 1207.57 607.427 1216.32 Q607.427 1225.05 604.349 1229.65 Q601.293 1234.24 595.483 1234.24 Q589.673 1234.24 586.594 1229.65 Q583.538 1225.05 583.538 1216.32 Q583.538 1207.57 586.594 1202.99 Q589.673 1198.38 595.483 1198.38 Z" fill="#000000" fill-rule="nonzero" fill-opacity="1" /><path clip-path="url(#clip450)" d="M917.641 1229.63 L933.961 1229.63 L933.961 1233.57 L912.017 1233.57 L912.017 1229.63 Q914.679 1226.88 919.262 1222.25 Q923.868 1217.59 925.049 1216.25 Q927.294 1213.73 928.174 1211.99 Q929.077 1210.23 929.077 1208.54 Q929.077 1205.79 927.132 1204.05 Q925.211 1202.32 922.109 1202.32 Q919.91 1202.32 917.456 1203.08 Q915.026 1203.84 912.248 1205.4 L912.248 1200.67 Q915.072 1199.54 917.526 1198.96 Q919.979 1198.38 922.016 1198.38 Q927.387 1198.38 930.581 1201.07 Q933.776 1203.75 933.776 1208.24 Q933.776 1210.37 932.965 1212.29 Q932.178 1214.19 930.072 1216.78 Q929.493 1217.46 926.391 1220.67 Q923.29 1223.87 917.641 1229.63 Z" fill="#000000" fill-rule="nonzero" fill-opacity="1" /><path clip-path="url(#clip450)" d="M953.776 1202.09 Q950.164 1202.09 948.336 1205.65 Q946.53 1209.19 946.53 1216.32 Q946.53 1223.43 948.336 1226.99 Q950.164 1230.53 953.776 1230.53 Q957.41 1230.53 959.215 1226.99 Q961.044 1223.43 961.044 1216.32 Q961.044 1209.19 959.215 1205.65 Q957.41 1202.09 953.776 1202.09 M953.776 1198.38 Q959.586 1198.38 962.641 1202.99 Q965.72 1207.57 965.72 1216.32 Q965.72 1225.05 962.641 1229.65 Q959.586 1234.24 953.776 1234.24 Q947.965 1234.24 944.887 1229.65 Q941.831 1225.05 941.831 1216.32 Q941.831 1207.57 944.887 1202.99 Q947.965 1198.38 953.776 1198.38 Z" fill="#000000" fill-rule="nonzero" fill-opacity="1" /><path clip-path="url(#clip450)" d="M1285.14 1214.93 Q1288.49 1215.65 1290.37 1217.92 Q1292.27 1220.19 1292.27 1223.52 Q1292.27 1228.64 1288.75 1231.44 Q1285.23 1234.24 1278.75 1234.24 Q1276.57 1234.24 1274.26 1233.8 Q1271.96 1233.38 1269.51 1232.53 L1269.51 1228.01 Q1271.46 1229.15 1273.77 1229.72 Q1276.08 1230.3 1278.61 1230.3 Q1283.01 1230.3 1285.3 1228.57 Q1287.61 1226.83 1287.61 1223.52 Q1287.61 1220.46 1285.46 1218.75 Q1283.33 1217.02 1279.51 1217.02 L1275.48 1217.02 L1275.48 1213.17 L1279.7 1213.17 Q1283.14 1213.17 1284.97 1211.81 Q1286.8 1210.42 1286.8 1207.83 Q1286.8 1205.16 1284.9 1203.75 Q1283.03 1202.32 1279.51 1202.32 Q1277.59 1202.32 1275.39 1202.73 Q1273.19 1203.15 1270.55 1204.03 L1270.55 1199.86 Q1273.21 1199.12 1275.53 1198.75 Q1277.87 1198.38 1279.93 1198.38 Q1285.25 1198.38 1288.35 1200.81 Q1291.45 1203.22 1291.45 1207.34 Q1291.45 1210.21 1289.81 1212.2 Q1288.17 1214.17 1285.14 1214.93 Z" fill="#000000" fill-rule="nonzero" fill-opacity="1" /><path clip-path="url(#clip450)" d="M1311.13 1202.09 Q1307.52 1202.09 1305.69 1205.65 Q1303.89 1209.19 1303.89 1216.32 Q1303.89 1223.43 1305.69 1226.99 Q1307.52 1230.53 1311.13 1230.53 Q1314.77 1230.53 1316.57 1226.99 Q1318.4 1223.43 1318.4 1216.32 Q1318.4 1209.19 1316.57 1205.65 Q1314.77 1202.09 1311.13 1202.09 M1311.13 1198.38 Q1316.94 1198.38 1320 1202.99 Q1323.08 1207.57 1323.08 1216.32 Q1323.08 1225.05 1320 1229.65 Q1316.94 1234.24 1311.13 1234.24 Q1305.32 1234.24 1302.24 1229.65 Q1299.19 1225.05 1299.19 1216.32 Q1299.19 1207.57 1302.24 1202.99 Q1305.32 1198.38 1311.13 1198.38 Z" fill="#000000" fill-rule="nonzero" fill-opacity="1" /><path clip-path="url(#clip450)" d="M1641.89 1203.08 L1630.08 1221.53 L1641.89 1221.53 L1641.89 1203.08 M1640.66 1199.01 L1646.54 1199.01 L1646.54 1221.53 L1651.47 1221.53 L1651.47 1225.42 L1646.54 1225.42 L1646.54 1233.57 L1641.89 1233.57 L1641.89 1225.42 L1626.29 1225.42 L1626.29 1220.9 L1640.66 1199.01 Z" fill="#000000" fill-rule="nonzero" fill-opacity="1" /><path clip-path="url(#clip450)" d="M1669.2 1202.09 Q1665.59 1202.09 1663.76 1205.65 Q1661.96 1209.19 1661.96 1216.32 Q1661.96 1223.43 1663.76 1226.99 Q1665.59 1230.53 1669.2 1230.53 Q1672.84 1230.53 1674.64 1226.99 Q1676.47 1223.43 1676.47 1216.32 Q1676.47 1209.19 1674.64 1205.65 Q1672.84 1202.09 1669.2 1202.09 M1669.2 1198.38 Q1675.01 1198.38 1678.07 1202.99 Q1681.15 1207.57 1681.15 1216.32 Q1681.15 1225.05 1678.07 1229.65 Q1675.01 1234.24 1669.2 1234.24 Q1663.39 1234.24 1660.31 1229.65 Q1657.26 1225.05 1657.26 1216.32 Q1657.26 1207.57 1660.31 1202.99 Q1663.39 1198.38 1669.2 1198.38 Z" fill="#000000" fill-rule="nonzero" fill-opacity="1" /><path clip-path="url(#clip450)" d="M1985.84 1199.01 L2004.2 1199.01 L2004.2 1202.94 L1990.12 1202.94 L1990.12 1211.41 Q1991.14 1211.07 1992.16 1210.9 Q1993.18 1210.72 1994.2 1210.72 Q1999.98 1210.72 2003.36 1213.89 Q2006.74 1217.06 2006.74 1222.48 Q2006.74 1228.06 2003.27 1231.16 Q1999.8 1234.24 1993.48 1234.24 Q1991.3 1234.24 1989.04 1233.87 Q1986.79 1233.5 1984.38 1232.76 L1984.38 1228.06 Q1986.47 1229.19 1988.69 1229.75 Q1990.91 1230.3 1993.39 1230.3 Q1997.39 1230.3 1999.73 1228.2 Q2002.07 1226.09 2002.07 1222.48 Q2002.07 1218.87 1999.73 1216.76 Q1997.39 1214.65 1993.39 1214.65 Q1991.51 1214.65 1989.64 1215.07 Q1987.79 1215.49 1985.84 1216.37 L1985.84 1199.01 Z" fill="#000000" fill-rule="nonzero" fill-opacity="1" /><path clip-path="url(#clip450)" d="M2025.96 1202.09 Q2022.35 1202.09 2020.52 1205.65 Q2018.71 1209.19 2018.71 1216.32 Q2018.71 1223.43 2020.52 1226.99 Q2022.35 1230.53 2025.96 1230.53 Q2029.59 1230.53 2031.4 1226.99 Q2033.23 1223.43 2033.23 1216.32 Q2033.23 1209.19 2031.4 1205.65 Q2029.59 1202.09 2025.96 1202.09 M2025.96 1198.38 Q2031.77 1198.38 2034.82 1202.99 Q2037.9 1207.57 2037.9 1216.32 Q2037.9 1225.05 2034.82 1229.65 Q2031.77 1234.24 2025.96 1234.24 Q2020.15 1234.24 2017.07 1229.65 Q2014.01 1225.05 2014.01 1216.32 Q2014.01 1207.57 2017.07 1202.99 Q2020.15 1198.38 2025.96 1198.38 Z" fill="#000000" fill-rule="nonzero" fill-opacity="1" /><path clip-path="url(#clip450)" d="M684.156 1271.78 L684.156 1308.73 L691.922 1308.73 Q701.757 1308.73 706.308 1304.28 Q710.891 1299.82 710.891 1290.21 Q710.891 1280.66 706.308 1276.23 Q701.757 1271.78 691.922 1271.78 L684.156 1271.78 M677.726 1266.49 L690.935 1266.49 Q704.749 1266.49 711.21 1272.26 Q717.671 1277.98 717.671 1290.21 Q717.671 1302.49 711.178 1308.25 Q704.685 1314.01 690.935 1314.01 L677.726 1314.01 L677.726 1266.49 Z" fill="#000000" fill-rule="nonzero" fill-opacity="1" /><path clip-path="url(#clip450)" d="M741.479 1282.47 Q736.768 1282.47 734.031 1286.16 Q731.294 1289.83 731.294 1296.22 Q731.294 1302.62 733.999 1306.31 Q736.736 1309.97 741.479 1309.97 Q746.157 1309.97 748.895 1306.28 Q751.632 1302.59 751.632 1296.22 Q751.632 1289.89 748.895 1286.2 Q746.157 1282.47 741.479 1282.47 M741.479 1277.51 Q749.118 1277.51 753.478 1282.47 Q757.839 1287.44 757.839 1296.22 Q757.839 1304.98 753.478 1309.97 Q749.118 1314.94 741.479 1314.94 Q733.808 1314.94 729.448 1309.97 Q725.119 1304.98 725.119 1296.22 Q725.119 1287.44 729.448 1282.47 Q733.808 1277.51 741.479 1277.51 Z" fill="#000000" fill-rule="nonzero" fill-opacity="1" /><path clip-path="url(#clip450)" d="M764.141 1278.37 L769.997 1278.37 L777.318 1306.18 L784.606 1278.37 L791.513 1278.37 L798.834 1306.18 L806.122 1278.37 L811.979 1278.37 L802.653 1314.01 L795.746 1314.01 L788.076 1284.8 L780.373 1314.01 L773.466 1314.01 L764.141 1278.37 Z" fill="#000000" fill-rule="nonzero" fill-opacity="1" /><path clip-path="url(#clip450)" d="M850.491 1292.5 L850.491 1314.01 L844.635 1314.01 L844.635 1292.69 Q844.635 1287.63 842.662 1285.11 Q840.688 1282.6 836.741 1282.6 Q831.999 1282.6 829.262 1285.62 Q826.525 1288.65 826.525 1293.87 L826.525 1314.01 L820.636 1314.01 L820.636 1278.37 L826.525 1278.37 L826.525 1283.9 Q828.625 1280.69 831.458 1279.1 Q834.323 1277.51 838.046 1277.51 Q844.189 1277.51 847.34 1281.33 Q850.491 1285.11 850.491 1292.5 Z" fill="#000000" fill-rule="nonzero" fill-opacity="1" /><path clip-path="url(#clip450)" d="M884.898 1279.42 L884.898 1284.96 Q882.415 1283.68 879.742 1283.05 Q877.068 1282.41 874.204 1282.41 Q869.843 1282.41 867.647 1283.75 Q865.483 1285.08 865.483 1287.76 Q865.483 1289.79 867.042 1290.97 Q868.602 1292.12 873.312 1293.17 L875.318 1293.61 Q881.556 1294.95 884.166 1297.4 Q886.808 1299.82 886.808 1304.18 Q886.808 1309.14 882.861 1312.04 Q878.946 1314.94 872.071 1314.94 Q869.207 1314.94 866.087 1314.36 Q863 1313.82 859.563 1312.71 L859.563 1306.66 Q862.809 1308.35 865.96 1309.21 Q869.111 1310.04 872.198 1310.04 Q876.336 1310.04 878.564 1308.64 Q880.792 1307.2 880.792 1304.63 Q880.792 1302.24 879.169 1300.97 Q877.578 1299.69 872.135 1298.51 L870.098 1298.04 Q864.655 1296.89 862.236 1294.54 Q859.817 1292.15 859.817 1288.01 Q859.817 1282.98 863.382 1280.24 Q866.947 1277.51 873.503 1277.51 Q876.75 1277.51 879.615 1277.98 Q882.479 1278.46 884.898 1279.42 Z" fill="#000000" fill-rule="nonzero" fill-opacity="1" /><path clip-path="url(#clip450)" d="M901.926 1268.25 L901.926 1278.37 L913.989 1278.37 L913.989 1282.92 L901.926 1282.92 L901.926 1302.27 Q901.926 1306.63 903.104 1307.87 Q904.313 1309.11 907.974 1309.11 L913.989 1309.11 L913.989 1314.01 L907.974 1314.01 Q901.194 1314.01 898.616 1311.5 Q896.038 1308.95 896.038 1302.27 L896.038 1282.92 L891.741 1282.92 L891.741 1278.37 L896.038 1278.37 L896.038 1268.25 L901.926 1268.25 Z" fill="#000000" fill-rule="nonzero" fill-opacity="1" /><path clip-path="url(#clip450)" d="M942.349 1283.84 Q941.362 1283.27 940.184 1283.01 Q939.038 1282.73 937.638 1282.73 Q932.673 1282.73 929.999 1285.97 Q927.357 1289.19 927.357 1295.24 L927.357 1314.01 L921.469 1314.01 L921.469 1278.37 L927.357 1278.37 L927.357 1283.9 Q929.203 1280.66 932.163 1279.1 Q935.123 1277.51 939.357 1277.51 Q939.961 1277.51 940.693 1277.6 Q941.426 1277.67 942.317 1277.83 L942.349 1283.84 Z" fill="#000000" fill-rule="nonzero" fill-opacity="1" /><path clip-path="url(#clip450)" d="M977.551 1294.73 L977.551 1297.59 L950.624 1297.59 Q951.006 1303.64 954.252 1306.82 Q957.531 1309.97 963.355 1309.97 Q966.729 1309.97 969.88 1309.14 Q973.063 1308.32 976.182 1306.66 L976.182 1312.2 Q973.031 1313.54 969.721 1314.24 Q966.411 1314.94 963.005 1314.94 Q954.475 1314.94 949.478 1309.97 Q944.513 1305.01 944.513 1296.54 Q944.513 1287.79 949.224 1282.66 Q953.966 1277.51 961.987 1277.51 Q969.18 1277.51 973.35 1282.15 Q977.551 1286.77 977.551 1294.73 M971.694 1293.01 Q971.631 1288.2 968.989 1285.34 Q966.379 1282.47 962.05 1282.47 Q957.149 1282.47 954.189 1285.24 Q951.261 1288.01 950.815 1293.04 L971.694 1293.01 Z" fill="#000000" fill-rule="nonzero" fill-opacity="1" /><path clip-path="url(#clip450)" d="M1003.36 1296.1 Q996.266 1296.1 993.529 1297.72 Q990.792 1299.34 990.792 1303.26 Q990.792 1306.38 992.829 1308.22 Q994.897 1310.04 998.43 1310.04 Q1003.3 1310.04 1006.23 1306.6 Q1009.19 1303.13 1009.19 1297.4 L1009.19 1296.1 L1003.36 1296.1 M1015.04 1293.68 L1015.04 1314.01 L1009.19 1314.01 L1009.19 1308.6 Q1007.18 1311.85 1004.19 1313.41 Q1001.2 1314.94 996.871 1314.94 Q991.396 1314.94 988.15 1311.88 Q984.935 1308.79 984.935 1303.64 Q984.935 1297.62 988.946 1294.57 Q992.988 1291.51 1000.98 1291.51 L1009.19 1291.51 L1009.19 1290.94 Q1009.19 1286.9 1006.51 1284.7 Q1003.87 1282.47 999.067 1282.47 Q996.011 1282.47 993.115 1283.2 Q990.219 1283.94 987.545 1285.4 L987.545 1279.99 Q990.76 1278.75 993.783 1278.14 Q996.807 1277.51 999.672 1277.51 Q1007.41 1277.51 1011.23 1281.52 Q1015.04 1285.53 1015.04 1293.68 Z" fill="#000000" fill-rule="nonzero" fill-opacity="1" /><path clip-path="url(#clip450)" d="M1054.86 1285.21 Q1057.06 1281.26 1060.11 1279.39 Q1063.17 1277.51 1067.31 1277.51 Q1072.88 1277.51 1075.9 1281.42 Q1078.92 1285.31 1078.92 1292.5 L1078.92 1314.01 L1073.04 1314.01 L1073.04 1292.69 Q1073.04 1287.57 1071.22 1285.08 Q1069.41 1282.6 1065.68 1282.6 Q1061.13 1282.6 1058.49 1285.62 Q1055.85 1288.65 1055.85 1293.87 L1055.85 1314.01 L1049.96 1314.01 L1049.96 1292.69 Q1049.96 1287.53 1048.15 1285.08 Q1046.33 1282.6 1042.54 1282.6 Q1038.06 1282.6 1035.42 1285.66 Q1032.77 1288.68 1032.77 1293.87 L1032.77 1314.01 L1026.89 1314.01 L1026.89 1278.37 L1032.77 1278.37 L1032.77 1283.9 Q1034.78 1280.63 1037.58 1279.07 Q1040.38 1277.51 1044.23 1277.51 Q1048.11 1277.51 1050.82 1279.48 Q1053.56 1281.45 1054.86 1285.21 Z" fill="#000000" fill-rule="nonzero" fill-opacity="1" /><path clip-path="url(#clip450)" d="M1118.01 1271.78 L1118.01 1308.73 L1125.78 1308.73 Q1135.61 1308.73 1140.16 1304.28 Q1144.75 1299.82 1144.75 1290.21 Q1144.75 1280.66 1140.16 1276.23 Q1135.61 1271.78 1125.78 1271.78 L1118.01 1271.78 M1111.58 1266.49 L1124.79 1266.49 Q1138.6 1266.49 1145.06 1272.26 Q1151.53 1277.98 1151.53 1290.21 Q1151.53 1302.49 1145.03 1308.25 Q1138.54 1314.01 1124.79 1314.01 L1111.58 1314.01 L1111.58 1266.49 Z" fill="#000000" fill-rule="nonzero" fill-opacity="1" /><path clip-path="url(#clip450)" d="M1161.52 1278.37 L1167.38 1278.37 L1167.38 1314.01 L1161.52 1314.01 L1161.52 1278.37 M1161.52 1264.49 L1167.38 1264.49 L1167.38 1271.91 L1161.52 1271.91 L1161.52 1264.49 Z" fill="#000000" fill-rule="nonzero" fill-opacity="1" /><path clip-path="url(#clip450)" d="M1202.36 1279.42 L1202.36 1284.96 Q1199.87 1283.68 1197.2 1283.05 Q1194.53 1282.41 1191.66 1282.41 Q1187.3 1282.41 1185.1 1283.75 Q1182.94 1285.08 1182.94 1287.76 Q1182.94 1289.79 1184.5 1290.97 Q1186.06 1292.12 1190.77 1293.17 L1192.78 1293.61 Q1199.01 1294.95 1201.62 1297.4 Q1204.27 1299.82 1204.27 1304.18 Q1204.27 1309.14 1200.32 1312.04 Q1196.4 1314.94 1189.53 1314.94 Q1186.66 1314.94 1183.55 1314.36 Q1180.46 1313.82 1177.02 1312.71 L1177.02 1306.66 Q1180.27 1308.35 1183.42 1309.21 Q1186.57 1310.04 1189.66 1310.04 Q1193.79 1310.04 1196.02 1308.64 Q1198.25 1307.2 1198.25 1304.63 Q1198.25 1302.24 1196.63 1300.97 Q1195.04 1299.69 1189.59 1298.51 L1187.56 1298.04 Q1182.11 1296.89 1179.69 1294.54 Q1177.27 1292.15 1177.27 1288.01 Q1177.27 1282.98 1180.84 1280.24 Q1184.4 1277.51 1190.96 1277.51 Q1194.21 1277.51 1197.07 1277.98 Q1199.94 1278.46 1202.36 1279.42 Z" fill="#000000" fill-rule="nonzero" fill-opacity="1" /><path clip-path="url(#clip450)" d="M1219.38 1268.25 L1219.38 1278.37 L1231.45 1278.37 L1231.45 1282.92 L1219.38 1282.92 L1219.38 1302.27 Q1219.38 1306.63 1220.56 1307.87 Q1221.77 1309.11 1225.43 1309.11 L1231.45 1309.11 L1231.45 1314.01 L1225.43 1314.01 Q1218.65 1314.01 1216.07 1311.5 Q1213.5 1308.95 1213.5 1302.27 L1213.5 1282.92 L1209.2 1282.92 L1209.2 1278.37 L1213.5 1278.37 L1213.5 1268.25 L1219.38 1268.25 Z" fill="#000000" fill-rule="nonzero" fill-opacity="1" /><path clip-path="url(#clip450)" d="M1255.35 1296.1 Q1248.25 1296.1 1245.52 1297.72 Q1242.78 1299.34 1242.78 1303.26 Q1242.78 1306.38 1244.82 1308.22 Q1246.88 1310.04 1250.42 1310.04 Q1255.29 1310.04 1258.21 1306.6 Q1261.17 1303.13 1261.17 1297.4 L1261.17 1296.1 L1255.35 1296.1 M1267.03 1293.68 L1267.03 1314.01 L1261.17 1314.01 L1261.17 1308.6 Q1259.17 1311.85 1256.18 1313.41 Q1253.19 1314.94 1248.86 1314.94 Q1243.38 1314.94 1240.14 1311.88 Q1236.92 1308.79 1236.92 1303.64 Q1236.92 1297.62 1240.93 1294.57 Q1244.97 1291.51 1252.96 1291.51 L1261.17 1291.51 L1261.17 1290.94 Q1261.17 1286.9 1258.5 1284.7 Q1255.86 1282.47 1251.05 1282.47 Q1248 1282.47 1245.1 1283.2 Q1242.21 1283.94 1239.53 1285.4 L1239.53 1279.99 Q1242.75 1278.75 1245.77 1278.14 Q1248.79 1277.51 1251.66 1277.51 Q1259.39 1277.51 1263.21 1281.52 Q1267.03 1285.53 1267.03 1293.68 Z" fill="#000000" fill-rule="nonzero" fill-opacity="1" /><path clip-path="url(#clip450)" d="M1308.73 1292.5 L1308.73 1314.01 L1302.87 1314.01 L1302.87 1292.69 Q1302.87 1287.63 1300.9 1285.11 Q1298.92 1282.6 1294.98 1282.6 Q1290.23 1282.6 1287.5 1285.62 Q1284.76 1288.65 1284.76 1293.87 L1284.76 1314.01 L1278.87 1314.01 L1278.87 1278.37 L1284.76 1278.37 L1284.76 1283.9 Q1286.86 1280.69 1289.69 1279.1 Q1292.56 1277.51 1296.28 1277.51 Q1302.42 1277.51 1305.58 1281.33 Q1308.73 1285.11 1308.73 1292.5 Z" fill="#000000" fill-rule="nonzero" fill-opacity="1" /><path clip-path="url(#clip450)" d="M1346.06 1279.74 L1346.06 1285.21 Q1343.58 1283.84 1341.06 1283.17 Q1338.58 1282.47 1336.04 1282.47 Q1330.34 1282.47 1327.19 1286.1 Q1324.04 1289.7 1324.04 1296.22 Q1324.04 1302.75 1327.19 1306.38 Q1330.34 1309.97 1336.04 1309.97 Q1338.58 1309.97 1341.06 1309.3 Q1343.58 1308.6 1346.06 1307.24 L1346.06 1312.65 Q1343.61 1313.79 1340.97 1314.36 Q1338.36 1314.94 1335.4 1314.94 Q1327.35 1314.94 1322.6 1309.88 Q1317.86 1304.82 1317.86 1296.22 Q1317.86 1287.5 1322.64 1282.5 Q1327.44 1277.51 1335.78 1277.51 Q1338.49 1277.51 1341.06 1278.08 Q1343.64 1278.62 1346.06 1279.74 Z" fill="#000000" fill-rule="nonzero" fill-opacity="1" /><path clip-path="url(#clip450)" d="M1386.74 1294.73 L1386.74 1297.59 L1359.81 1297.59 Q1360.19 1303.64 1363.44 1306.82 Q1366.72 1309.97 1372.54 1309.97 Q1375.92 1309.97 1379.07 1309.14 Q1382.25 1308.32 1385.37 1306.66 L1385.37 1312.2 Q1382.22 1313.54 1378.91 1314.24 Q1375.6 1314.94 1372.19 1314.94 Q1363.66 1314.94 1358.67 1309.97 Q1353.7 1305.01 1353.7 1296.54 Q1353.7 1287.79 1358.41 1282.66 Q1363.15 1277.51 1371.17 1277.51 Q1378.37 1277.51 1382.54 1282.15 Q1386.74 1286.77 1386.74 1294.73 M1380.88 1293.01 Q1380.82 1288.2 1378.18 1285.34 Q1375.57 1282.47 1371.24 1282.47 Q1366.34 1282.47 1363.38 1285.24 Q1360.45 1288.01 1360 1293.04 L1380.88 1293.01 Z" fill="#000000" fill-rule="nonzero" fill-opacity="1" /><path clip-path="url(#clip450)" d="M1431.14 1264.55 Q1426.87 1271.87 1424.81 1279.04 Q1422.74 1286.2 1422.74 1293.55 Q1422.74 1300.9 1424.81 1308.13 Q1426.91 1315.32 1431.14 1322.61 L1426.05 1322.61 Q1421.27 1315.13 1418.89 1307.9 Q1416.53 1300.68 1416.53 1293.55 Q1416.53 1286.45 1418.89 1279.26 Q1421.24 1272.06 1426.05 1264.55 L1431.14 1264.55 Z" fill="#000000" fill-rule="nonzero" fill-opacity="1" /><path clip-path="url(#clip450)" d="M1442.28 1264.49 L1448.17 1264.49 L1448.17 1293.74 L1465.64 1278.37 L1473.12 1278.37 L1454.22 1295.04 L1473.92 1314.01 L1466.28 1314.01 L1448.17 1296.6 L1448.17 1314.01 L1442.28 1314.01 L1442.28 1264.49 Z" fill="#000000" fill-rule="nonzero" fill-opacity="1" /><path clip-path="url(#clip450)" d="M1508.01 1285.21 Q1510.2 1281.26 1513.26 1279.39 Q1516.31 1277.51 1520.45 1277.51 Q1526.02 1277.51 1529.04 1281.42 Q1532.07 1285.31 1532.07 1292.5 L1532.07 1314.01 L1526.18 1314.01 L1526.18 1292.69 Q1526.18 1287.57 1524.37 1285.08 Q1522.55 1282.6 1518.83 1282.6 Q1514.28 1282.6 1511.63 1285.62 Q1508.99 1288.65 1508.99 1293.87 L1508.99 1314.01 L1503.1 1314.01 L1503.1 1292.69 Q1503.1 1287.53 1501.29 1285.08 Q1499.48 1282.6 1495.69 1282.6 Q1491.2 1282.6 1488.56 1285.66 Q1485.92 1288.68 1485.92 1293.87 L1485.92 1314.01 L1480.03 1314.01 L1480.03 1278.37 L1485.92 1278.37 L1485.92 1283.9 Q1487.92 1280.63 1490.72 1279.07 Q1493.52 1277.51 1497.37 1277.51 Q1501.26 1277.51 1503.96 1279.48 Q1506.7 1281.45 1508.01 1285.21 Z" fill="#000000" fill-rule="nonzero" fill-opacity="1" /><path clip-path="url(#clip450)" d="M1542.83 1264.55 L1547.92 1264.55 Q1552.69 1272.06 1555.05 1279.26 Q1557.43 1286.45 1557.43 1293.55 Q1557.43 1300.68 1555.05 1307.9 Q1552.69 1315.13 1547.92 1322.61 L1542.83 1322.61 Q1547.06 1315.32 1549.13 1308.13 Q1551.23 1300.9 1551.23 1293.55 Q1551.23 1286.2 1549.13 1279.04 Q1547.06 1271.87 1542.83 1264.55 Z" fill="#000000" fill-rule="nonzero" fill-opacity="1" /><polyline clip-path="url(#clip450)" style="stroke:#000000; stroke-linecap:round; stroke-linejoin:round; stroke-width:4; stroke-opacity:1; fill:none" points="170.405,1173.47 170.405,47.2441 "/>
<polyline clip-path="url(#clip450)" style="stroke:#000000; stroke-linecap:round; stroke-linejoin:round; stroke-width:4; stroke-opacity:1; fill:none" points="170.405,1025.95 189.303,1025.95 "/>
<polyline clip-path="url(#clip450)" style="stroke:#000000; stroke-linecap:round; stroke-linejoin:round; stroke-width:4; stroke-opacity:1; fill:none" points="170.405,758.893 189.303,758.893 "/>
<polyline clip-path="url(#clip450)" style="stroke:#000000; stroke-linecap:round; stroke-linejoin:round; stroke-width:4; stroke-opacity:1; fill:none" points="170.405,491.839 189.303,491.839 "/>
<polyline clip-path="url(#clip450)" style="stroke:#000000; stroke-linecap:round; stroke-linejoin:round; stroke-width:4; stroke-opacity:1; fill:none" points="170.405,224.785 189.303,224.785 "/>
<path clip-path="url(#clip450)" d="M122.406 1039.29 L138.725 1039.29 L138.725 1043.23 L116.781 1043.23 L116.781 1039.29 Q119.443 1036.54 124.026 1031.91 Q128.633 1027.26 129.813 1025.91 Q132.059 1023.39 132.938 1021.65 Q133.841 1019.89 133.841 1018.2 Q133.841 1015.45 131.897 1013.71 Q129.975 1011.98 126.873 1011.98 Q124.674 1011.98 122.221 1012.74 Q119.79 1013.51 117.012 1015.06 L117.012 1010.33 Q119.836 1009.2 122.29 1008.62 Q124.744 1008.04 126.781 1008.04 Q132.151 1008.04 135.346 1010.73 Q138.54 1013.41 138.54 1017.9 Q138.54 1020.03 137.73 1021.95 Q136.943 1023.85 134.836 1026.45 Q134.258 1027.12 131.156 1030.33 Q128.054 1033.53 122.406 1039.29 Z" fill="#000000" fill-rule="nonzero" fill-opacity="1" /><path clip-path="url(#clip450)" d="M129.142 745.688 L117.336 764.136 L129.142 764.136 L129.142 745.688 M127.915 741.613 L133.795 741.613 L133.795 764.136 L138.725 764.136 L138.725 768.025 L133.795 768.025 L133.795 776.173 L129.142 776.173 L129.142 768.025 L113.54 768.025 L113.54 763.511 L127.915 741.613 Z" fill="#000000" fill-rule="nonzero" fill-opacity="1" /><path clip-path="url(#clip450)" d="M127.197 489.976 Q124.049 489.976 122.198 492.128 Q120.369 494.281 120.369 498.031 Q120.369 501.758 122.198 503.934 Q124.049 506.087 127.197 506.087 Q130.346 506.087 132.174 503.934 Q134.026 501.758 134.026 498.031 Q134.026 494.281 132.174 492.128 Q130.346 489.976 127.197 489.976 M136.48 475.323 L136.48 479.582 Q134.721 478.749 132.915 478.309 Q131.133 477.869 129.373 477.869 Q124.744 477.869 122.29 480.994 Q119.86 484.119 119.512 490.439 Q120.878 488.425 122.938 487.36 Q124.998 486.272 127.475 486.272 Q132.684 486.272 135.693 489.443 Q138.725 492.591 138.725 498.031 Q138.725 503.355 135.577 506.573 Q132.429 509.79 127.197 509.79 Q121.202 509.79 118.031 505.207 Q114.86 500.601 114.86 491.874 Q114.86 483.679 118.748 478.818 Q122.637 473.934 129.188 473.934 Q130.947 473.934 132.73 474.281 Q134.535 474.628 136.48 475.323 Z" fill="#000000" fill-rule="nonzero" fill-opacity="1" /><path clip-path="url(#clip450)" d="M126.873 225.653 Q123.54 225.653 121.619 227.435 Q119.721 229.217 119.721 232.342 Q119.721 235.467 121.619 237.25 Q123.54 239.032 126.873 239.032 Q130.207 239.032 132.128 237.25 Q134.049 235.444 134.049 232.342 Q134.049 229.217 132.128 227.435 Q130.23 225.653 126.873 225.653 M122.198 223.662 Q119.188 222.921 117.498 220.861 Q115.832 218.801 115.832 215.838 Q115.832 211.694 118.772 209.287 Q121.735 206.88 126.873 206.88 Q132.035 206.88 134.975 209.287 Q137.915 211.694 137.915 215.838 Q137.915 218.801 136.225 220.861 Q134.559 222.921 131.572 223.662 Q134.952 224.449 136.827 226.741 Q138.725 229.032 138.725 232.342 Q138.725 237.365 135.647 240.051 Q132.591 242.736 126.873 242.736 Q121.156 242.736 118.077 240.051 Q115.022 237.365 115.022 232.342 Q115.022 229.032 116.92 226.741 Q118.818 224.449 122.198 223.662 M120.485 216.278 Q120.485 218.963 122.151 220.467 Q123.841 221.972 126.873 221.972 Q129.883 221.972 131.572 220.467 Q133.285 218.963 133.285 216.278 Q133.285 213.592 131.572 212.088 Q129.883 210.583 126.873 210.583 Q123.841 210.583 122.151 212.088 Q120.485 213.592 120.485 216.278 Z" fill="#000000" fill-rule="nonzero" fill-opacity="1" /><path clip-path="url(#clip450)" d="M23.7444 915.338 L30.5239 915.338 Q27.5002 918.585 26.0043 922.277 Q24.5083 925.937 24.5083 930.075 Q24.5083 938.223 29.5054 942.552 Q34.4707 946.881 43.8919 946.881 Q53.2813 946.881 58.2784 942.552 Q63.2436 938.223 63.2436 930.075 Q63.2436 925.937 61.7477 922.277 Q60.2518 918.585 57.2281 915.338 L63.9439 915.338 Q66.2355 918.712 67.3814 922.5 Q68.5272 926.256 68.5272 930.457 Q68.5272 941.247 61.9387 947.453 Q55.3183 953.66 43.8919 953.66 Q32.4336 953.66 25.8451 947.453 Q19.2248 941.247 19.2248 930.457 Q19.2248 926.192 20.3706 922.436 Q21.4846 918.649 23.7444 915.338 Z" fill="#000000" fill-rule="nonzero" fill-opacity="1" /><path clip-path="url(#clip450)" d="M36.0621 891.849 Q36.0621 896.56 39.7542 899.297 Q43.4145 902.034 49.812 902.034 Q56.2095 902.034 59.9017 899.329 Q63.5619 896.591 63.5619 891.849 Q63.5619 887.17 59.8698 884.433 Q56.1777 881.696 49.812 881.696 Q43.4781 881.696 39.786 884.433 Q36.0621 887.17 36.0621 891.849 M31.0968 891.849 Q31.0968 884.21 36.0621 879.85 Q41.0273 875.489 49.812 875.489 Q58.5649 875.489 63.5619 879.85 Q68.5272 884.21 68.5272 891.849 Q68.5272 899.52 63.5619 903.88 Q58.5649 908.209 49.812 908.209 Q41.0273 908.209 36.0621 903.88 Q31.0968 899.52 31.0968 891.849 Z" fill="#000000" fill-rule="nonzero" fill-opacity="1" /><path clip-path="url(#clip450)" d="M46.0881 836.149 L67.6042 836.149 L67.6042 842.005 L46.279 842.005 Q41.2183 842.005 38.7038 843.979 Q36.1894 845.952 36.1894 849.899 Q36.1894 854.641 39.2131 857.379 Q42.2368 860.116 47.4567 860.116 L67.6042 860.116 L67.6042 866.004 L31.9562 866.004 L31.9562 860.116 L37.4944 860.116 Q34.2797 858.015 32.6883 855.183 Q31.0968 852.318 31.0968 848.594 Q31.0968 842.451 34.9163 839.3 Q38.7038 836.149 46.0881 836.149 Z" fill="#000000" fill-rule="nonzero" fill-opacity="1" /><path clip-path="url(#clip450)" d="M33.3248 798.814 L38.7993 798.814 Q37.4307 801.297 36.7623 803.811 Q36.0621 806.294 36.0621 808.84 Q36.0621 814.537 39.6905 817.688 Q43.2872 820.84 49.812 820.84 Q56.3369 820.84 59.9653 817.688 Q63.5619 814.537 63.5619 808.84 Q63.5619 806.294 62.8935 803.811 Q62.1933 801.297 60.8247 798.814 L66.2355 798.814 Q67.3814 801.265 67.9543 803.907 Q68.5272 806.517 68.5272 809.477 Q68.5272 817.529 63.4664 822.272 Q58.4057 827.014 49.812 827.014 Q41.091 827.014 36.0939 822.24 Q31.0968 817.434 31.0968 809.095 Q31.0968 806.389 31.6697 803.811 Q32.2108 801.233 33.3248 798.814 Z" fill="#000000" fill-rule="nonzero" fill-opacity="1" /><path clip-path="url(#clip450)" d="M48.3161 758.137 L51.1806 758.137 L51.1806 785.064 Q57.2281 784.682 60.4109 781.436 Q63.5619 778.157 63.5619 772.333 Q63.5619 768.959 62.7344 765.808 Q61.9069 762.625 60.2518 759.506 L65.7899 759.506 Q67.1267 762.657 67.827 765.967 Q68.5272 769.277 68.5272 772.683 Q68.5272 781.213 63.5619 786.21 Q58.5967 791.175 50.1303 791.175 Q41.3774 791.175 36.2531 786.465 Q31.0968 781.722 31.0968 773.701 Q31.0968 766.508 35.7438 762.339 Q40.3589 758.137 48.3161 758.137 M46.5973 763.994 Q41.7912 764.057 38.9266 766.699 Q36.0621 769.309 36.0621 773.638 Q36.0621 778.539 38.8312 781.499 Q41.6002 784.428 46.6292 784.873 L46.5973 763.994 Z" fill="#000000" fill-rule="nonzero" fill-opacity="1" /><path clip-path="url(#clip450)" d="M46.0881 718.893 L67.6042 718.893 L67.6042 724.749 L46.279 724.749 Q41.2183 724.749 38.7038 726.723 Q36.1894 728.696 36.1894 732.643 Q36.1894 737.385 39.2131 740.122 Q42.2368 742.86 47.4567 742.86 L67.6042 742.86 L67.6042 748.748 L31.9562 748.748 L31.9562 742.86 L37.4944 742.86 Q34.2797 740.759 32.6883 737.926 Q31.0968 735.062 31.0968 731.338 Q31.0968 725.195 34.9163 722.044 Q38.7038 718.893 46.0881 718.893 Z" fill="#000000" fill-rule="nonzero" fill-opacity="1" /><path clip-path="url(#clip450)" d="M21.8347 701.419 L31.9562 701.419 L31.9562 689.356 L36.5077 689.356 L36.5077 701.419 L55.8594 701.419 Q60.2199 701.419 61.4613 700.241 Q62.7026 699.032 62.7026 695.371 L62.7026 689.356 L67.6042 689.356 L67.6042 695.371 Q67.6042 702.151 65.0897 704.729 Q62.5434 707.307 55.8594 707.307 L36.5077 707.307 L36.5077 711.604 L31.9562 711.604 L31.9562 707.307 L21.8347 707.307 L21.8347 701.419 Z" fill="#000000" fill-rule="nonzero" fill-opacity="1" /><path clip-path="url(#clip450)" d="M37.4307 660.997 Q36.8578 661.983 36.6032 663.161 Q36.3167 664.307 36.3167 665.707 Q36.3167 670.672 39.5632 673.346 Q42.7779 675.988 48.8253 675.988 L67.6042 675.988 L67.6042 681.876 L31.9562 681.876 L31.9562 675.988 L37.4944 675.988 Q34.2479 674.142 32.6883 671.182 Q31.0968 668.222 31.0968 663.989 Q31.0968 663.384 31.1923 662.652 Q31.256 661.92 31.4151 661.028 L37.4307 660.997 Z" fill="#000000" fill-rule="nonzero" fill-opacity="1" /><path clip-path="url(#clip450)" d="M49.6847 638.653 Q49.6847 645.751 51.3079 648.488 Q52.9312 651.225 56.8461 651.225 Q59.9653 651.225 61.8114 649.188 Q63.6256 647.119 63.6256 643.586 Q63.6256 638.717 60.1881 635.788 Q56.7188 632.828 50.9897 632.828 L49.6847 632.828 L49.6847 638.653 M47.2657 626.972 L67.6042 626.972 L67.6042 632.828 L62.1933 632.828 Q65.4398 634.834 66.9994 637.825 Q68.5272 640.817 68.5272 645.146 Q68.5272 650.621 65.4716 653.867 Q62.3843 657.082 57.2281 657.082 Q51.2125 657.082 48.1569 653.071 Q45.1014 649.029 45.1014 641.04 L45.1014 632.828 L44.5285 632.828 Q40.4862 632.828 38.2901 635.502 Q36.0621 638.144 36.0621 642.95 Q36.0621 646.005 36.7941 648.902 Q37.5262 651.798 38.9903 654.472 L33.5795 654.472 Q32.3381 651.257 31.7334 648.233 Q31.0968 645.21 31.0968 642.345 Q31.0968 634.611 35.1072 630.791 Q39.1176 626.972 47.2657 626.972 Z" fill="#000000" fill-rule="nonzero" fill-opacity="1" /><path clip-path="url(#clip450)" d="M21.8347 609.116 L31.9562 609.116 L31.9562 597.053 L36.5077 597.053 L36.5077 609.116 L55.8594 609.116 Q60.2199 609.116 61.4613 607.938 Q62.7026 606.729 62.7026 603.069 L62.7026 597.053 L67.6042 597.053 L67.6042 603.069 Q67.6042 609.848 65.0897 612.426 Q62.5434 615.004 55.8594 615.004 L36.5077 615.004 L36.5077 619.301 L31.9562 619.301 L31.9562 615.004 L21.8347 615.004 L21.8347 609.116 Z" fill="#000000" fill-rule="nonzero" fill-opacity="1" /><path clip-path="url(#clip450)" d="M31.9562 589.351 L31.9562 583.494 L67.6042 583.494 L67.6042 589.351 L31.9562 589.351 M18.079 589.351 L18.079 583.494 L25.495 583.494 L25.495 589.351 L18.079 589.351 Z" fill="#000000" fill-rule="nonzero" fill-opacity="1" /><path clip-path="url(#clip450)" d="M36.0621 557.427 Q36.0621 562.137 39.7542 564.874 Q43.4145 567.612 49.812 567.612 Q56.2095 567.612 59.9017 564.906 Q63.5619 562.169 63.5619 557.427 Q63.5619 552.748 59.8698 550.011 Q56.1777 547.273 49.812 547.273 Q43.4781 547.273 39.786 550.011 Q36.0621 552.748 36.0621 557.427 M31.0968 557.427 Q31.0968 549.788 36.0621 545.427 Q41.0273 541.067 49.812 541.067 Q58.5649 541.067 63.5619 545.427 Q68.5272 549.788 68.5272 557.427 Q68.5272 565.097 63.5619 569.458 Q58.5649 573.786 49.812 573.786 Q41.0273 573.786 36.0621 569.458 Q31.0968 565.097 31.0968 557.427 Z" fill="#000000" fill-rule="nonzero" fill-opacity="1" /><path clip-path="url(#clip450)" d="M46.0881 501.727 L67.6042 501.727 L67.6042 507.583 L46.279 507.583 Q41.2183 507.583 38.7038 509.556 Q36.1894 511.53 36.1894 515.477 Q36.1894 520.219 39.2131 522.956 Q42.2368 525.694 47.4567 525.694 L67.6042 525.694 L67.6042 531.582 L31.9562 531.582 L31.9562 525.694 L37.4944 525.694 Q34.2797 523.593 32.6883 520.76 Q31.0968 517.896 31.0968 514.172 Q31.0968 508.029 34.9163 504.878 Q38.7038 501.727 46.0881 501.727 Z" fill="#000000" fill-rule="nonzero" fill-opacity="1" /><path clip-path="url(#clip450)" d="M18.1426 455.257 Q25.4632 459.522 32.6246 461.591 Q39.786 463.66 47.1384 463.66 Q54.4908 463.66 61.7159 461.591 Q68.9091 459.49 76.1979 455.257 L76.1979 460.35 Q68.7182 465.124 61.4931 467.511 Q54.268 469.866 47.1384 469.866 Q40.0406 469.866 32.8474 467.511 Q25.6542 465.156 18.1426 460.35 L18.1426 455.257 Z" fill="#000000" fill-rule="nonzero" fill-opacity="1" /><path clip-path="url(#clip450)" d="M38.7993 416.14 Q34.8526 413.944 32.9747 410.888 Q31.0968 407.832 31.0968 403.695 Q31.0968 398.125 35.0117 395.101 Q38.8948 392.077 46.0881 392.077 L67.6042 392.077 L67.6042 397.966 L46.279 397.966 Q41.1546 397.966 38.672 399.78 Q36.1894 401.594 36.1894 405.318 Q36.1894 409.869 39.2131 412.511 Q42.2368 415.153 47.4567 415.153 L67.6042 415.153 L67.6042 421.041 L46.279 421.041 Q41.1228 421.041 38.672 422.856 Q36.1894 424.67 36.1894 428.457 Q36.1894 432.945 39.2449 435.587 Q42.2686 438.229 47.4567 438.229 L67.6042 438.229 L67.6042 444.117 L31.9562 444.117 L31.9562 438.229 L37.4944 438.229 Q34.216 436.224 32.6564 433.423 Q31.0968 430.622 31.0968 426.77 Q31.0968 422.887 33.0702 420.182 Q35.0436 417.445 38.7993 416.14 Z" fill="#000000" fill-rule="nonzero" fill-opacity="1" /><path clip-path="url(#clip450)" d="M49.3664 356.939 Q43.0007 356.939 39.4996 359.58 Q35.9984 362.19 35.9984 366.933 Q35.9984 371.643 39.4996 374.285 Q43.0007 376.895 49.3664 376.895 Q55.7003 376.895 59.2014 374.285 Q62.7026 371.643 62.7026 366.933 Q62.7026 362.19 59.2014 359.58 Q55.7003 356.939 49.3664 356.939 M63.18 351.082 Q72.283 351.082 76.7071 355.124 Q81.1631 359.167 81.1631 367.506 Q81.1631 370.593 80.6857 373.33 Q80.2401 376.068 79.2852 378.646 L73.5879 378.646 Q74.9884 376.068 75.6568 373.553 Q76.3252 371.039 76.3252 368.429 Q76.3252 362.668 73.3015 359.803 Q70.3096 356.939 64.2303 356.939 L61.3339 356.939 Q64.485 358.753 66.0446 361.586 Q67.6042 364.418 67.6042 368.365 Q67.6042 374.922 62.6071 378.932 Q57.61 382.943 49.3664 382.943 Q41.091 382.943 36.0939 378.932 Q31.0968 374.922 31.0968 368.365 Q31.0968 364.418 32.6564 361.586 Q34.216 358.753 37.3671 356.939 L31.9562 356.939 L31.9562 351.082 L63.18 351.082 Z" fill="#000000" fill-rule="nonzero" fill-opacity="1" /><path clip-path="url(#clip450)" d="M20.0842 328.611 L20.0842 323.2 L73.6516 339.751 L73.6516 345.162 L20.0842 328.611 Z" fill="#000000" fill-rule="nonzero" fill-opacity="1" /><path clip-path="url(#clip450)" d="M20.0842 316.803 L20.0842 310.373 L62.1933 310.373 L62.1933 287.234 L67.6042 287.234 L67.6042 316.803 L20.0842 316.803 Z" fill="#000000" fill-rule="nonzero" fill-opacity="1" /><path clip-path="url(#clip450)" d="M18.1426 281.664 L18.1426 276.572 Q25.6542 271.797 32.8474 269.442 Q40.0406 267.055 47.1384 267.055 Q54.268 267.055 61.4931 269.442 Q68.7182 271.797 76.1979 276.572 L76.1979 281.664 Q68.9091 277.431 61.7159 275.362 Q54.4908 273.261 47.1384 273.261 Q39.786 273.261 32.6246 275.362 Q25.4632 277.431 18.1426 281.664 Z" fill="#000000" fill-rule="nonzero" fill-opacity="1" /><polyline clip-path="url(#clip452)" style="stroke:#000000; stroke-linecap:round; stroke-linejoin:round; stroke-width:8; stroke-opacity:1; fill:none" points="224.019,321.895 259.761,395.917 295.504,458.092 331.246,509.734 366.989,552.03 402.731,586.047 438.474,612.748 474.216,632.995 509.959,647.568 545.701,657.163 581.444,662.408 617.186,663.862 652.928,662.03 688.671,657.36 724.413,650.255 760.156,639.189 795.898,681.845 831.641,715.587 867.383,741.464 903.126,760.419 938.868,773.299 974.611,780.863 1010.35,783.792 1046.1,782.698 1081.84,778.126 1117.58,770.565 1153.32,760.45 1189.07,748.17 1224.81,734.07 1260.55,718.459 1296.29,701.607 1332.04,683.758 1367.78,665.125 1403.52,645.895 1439.26,626.235 1475.01,606.289 1510.75,586.184 1546.49,566.03 1582.23,545.924 1617.98,525.947 1653.72,506.172 1689.46,486.658 1725.2,467.456 1760.94,448.609 1796.69,430.153 1832.43,412.117 1868.17,394.523 1903.91,377.39 1939.66,360.732 1975.4,344.558 2011.14,328.874 "/>
<polyline clip-path="url(#clip452)" style="stroke:#0000ff; stroke-linecap:round; stroke-linejoin:round; stroke-width:4; stroke-opacity:1; fill:none" stroke-dasharray="16, 10" points="224.019,79.1184 259.761,147.903 295.504,212.789 331.246,273.999 366.989,331.74 402.731,386.21 438.474,437.593 474.216,486.064 509.959,531.789 545.701,574.923 581.444,615.612 617.186,653.996 652.928,690.205 688.671,724.363 724.413,756.584 760.156,126.656 795.898,192.746 831.641,255.092 867.383,313.905 903.126,369.385 938.868,421.721 974.611,471.092 1010.35,517.665 1046.1,561.599 1081.84,603.044 1117.58,642.14 1153.32,679.021 1189.07,713.812 1224.81,746.631 1260.55,777.591 1296.29,806.797 1332.04,834.347 1367.78,860.337 1403.52,884.854 1439.26,907.981 1475.01,929.798 1510.75,950.379 1546.49,969.794 1582.23,988.108 1617.98,1005.38 1653.72,1021.68 1689.46,1037.06 1725.2,1051.56 1760.94,1065.24 1796.69,1078.15 1832.43,1090.32 1868.17,1101.81 1903.91,1112.64 1939.66,1122.86 1975.4,1132.5 2011.14,1141.6 "/>
<polyline clip-path="url(#clip452)" style="stroke:#ff0000; stroke-linecap:round; stroke-linejoin:round; stroke-width:4; stroke-opacity:1; fill:none" stroke-dasharray="16, 10" points="224.019,261.201 259.761,303.309 295.504,343.699 331.246,382.441 366.989,419.601 402.731,455.245 438.474,489.435 474.216,522.229 509.959,553.684 545.701,583.856 581.444,612.797 617.186,640.557 652.928,667.183 688.671,692.723 724.413,717.221 760.156,286.889 795.898,327.949 831.641,367.333 867.383,405.11 903.126,441.345 938.868,476.102 974.611,509.44 1010.35,541.418 1046.1,572.09 1081.84,601.511 1117.58,629.731 1153.32,656.8 1189.07,682.763 1224.81,707.668 1260.55,731.556 1296.29,754.468 1332.04,776.446 1367.78,797.527 1403.52,817.748 1439.26,837.143 1475.01,855.747 1510.75,873.592 1546.49,890.708 1582.23,907.126 1617.98,922.874 1653.72,937.979 1689.46,952.468 1725.2,966.365 1760.94,979.695 1796.69,992.482 1832.43,1004.75 1868.17,1016.51 1903.91,1027.79 1939.66,1038.62 1975.4,1049 2011.14,1058.96 "/>
<path clip-path="url(#clip450)" d="M1678.66 292.145 L2001.61 292.145 L2001.61 84.785 L1678.66 84.785  Z" fill="#ffffff" fill-rule="evenodd" fill-opacity="1"/>
<polyline clip-path="url(#clip450)" style="stroke:#000000; stroke-linecap:round; stroke-linejoin:round; stroke-width:4; stroke-opacity:1; fill:none" points="1678.66,292.145 2001.61,292.145 2001.61,84.785 1678.66,84.785 1678.66,292.145 "/>
<polyline clip-path="url(#clip450)" style="stroke:#000000; stroke-linecap:round; stroke-linejoin:round; stroke-width:8; stroke-opacity:1; fill:none" points="1699.71,136.625 1826,136.625 "/>
<path clip-path="url(#clip450)" d="M1851.72 123.188 L1851.72 150.062 L1857.37 150.062 Q1864.52 150.062 1867.83 146.822 Q1871.16 143.581 1871.16 136.59 Q1871.16 129.646 1867.83 126.428 Q1864.52 123.188 1857.37 123.188 L1851.72 123.188 M1847.04 119.345 L1856.65 119.345 Q1866.7 119.345 1871.4 123.535 Q1876.1 127.701 1876.1 136.59 Q1876.1 145.525 1871.37 149.715 Q1866.65 153.905 1856.65 153.905 L1847.04 153.905 L1847.04 119.345 Z" fill="#000000" fill-rule="nonzero" fill-opacity="1" /><path clip-path="url(#clip450)" d="M1897.58 122.516 Q1892.48 122.516 1889.48 126.313 Q1886.49 130.109 1886.49 136.66 Q1886.49 143.187 1889.48 146.984 Q1892.48 150.78 1897.58 150.78 Q1902.67 150.78 1905.63 146.984 Q1908.62 143.187 1908.62 136.66 Q1908.62 130.109 1905.63 126.313 Q1902.67 122.516 1897.58 122.516 M1897.58 118.72 Q1904.85 118.72 1909.2 123.604 Q1913.55 128.465 1913.55 136.66 Q1913.55 144.831 1909.2 149.715 Q1904.85 154.576 1897.58 154.576 Q1890.29 154.576 1885.91 149.715 Q1881.56 144.854 1881.56 136.66 Q1881.56 128.465 1885.91 123.604 Q1890.29 118.72 1897.58 118.72 Z" fill="#000000" fill-rule="nonzero" fill-opacity="1" /><polyline clip-path="url(#clip450)" style="stroke:#0000ff; stroke-linecap:round; stroke-linejoin:round; stroke-width:4; stroke-opacity:1; fill:none" stroke-dasharray="16, 10" points="1699.71,188.465 1826,188.465 "/>
<path clip-path="url(#clip450)" d="M1874.91 173.847 L1874.91 178.778 Q1872.55 176.578 1869.87 175.491 Q1867.21 174.403 1864.2 174.403 Q1858.27 174.403 1855.12 178.037 Q1851.98 181.648 1851.98 188.5 Q1851.98 195.328 1855.12 198.963 Q1858.27 202.574 1864.2 202.574 Q1867.21 202.574 1869.87 201.486 Q1872.55 200.398 1874.91 198.199 L1874.91 203.083 Q1872.46 204.75 1869.71 205.583 Q1866.98 206.416 1863.92 206.416 Q1856.07 206.416 1851.56 201.625 Q1847.04 196.81 1847.04 188.5 Q1847.04 180.166 1851.56 175.375 Q1856.07 170.56 1863.92 170.56 Q1867.02 170.56 1869.75 171.393 Q1872.51 172.203 1874.91 173.847 Z" fill="#000000" fill-rule="nonzero" fill-opacity="1" /><path clip-path="url(#clip450)" d="M1886.81 189.24 L1886.81 201.902 L1894.31 201.902 Q1898.09 201.902 1899.89 200.351 Q1901.72 198.777 1901.72 195.56 Q1901.72 192.319 1899.89 190.791 Q1898.09 189.24 1894.31 189.24 L1886.81 189.24 M1886.81 175.028 L1886.81 185.444 L1893.73 185.444 Q1897.16 185.444 1898.83 184.171 Q1900.52 182.875 1900.52 180.236 Q1900.52 177.62 1898.83 176.324 Q1897.16 175.028 1893.73 175.028 L1886.81 175.028 M1882.14 171.185 L1894.08 171.185 Q1899.43 171.185 1902.32 173.407 Q1905.22 175.629 1905.22 179.727 Q1905.22 182.898 1903.73 184.773 Q1902.25 186.648 1899.38 187.111 Q1902.83 187.852 1904.73 190.213 Q1906.65 192.551 1906.65 196.069 Q1906.65 200.699 1903.5 203.222 Q1900.35 205.745 1894.54 205.745 L1882.14 205.745 L1882.14 171.185 Z" fill="#000000" fill-rule="nonzero" fill-opacity="1" /><path clip-path="url(#clip450)" d="M1927.85 174.356 Q1922.76 174.356 1919.75 178.153 Q1916.77 181.949 1916.77 188.5 Q1916.77 195.027 1919.75 198.824 Q1922.76 202.62 1927.85 202.62 Q1932.95 202.62 1935.91 198.824 Q1938.9 195.027 1938.9 188.5 Q1938.9 181.949 1935.91 178.153 Q1932.95 174.356 1927.85 174.356 M1927.85 170.56 Q1935.12 170.56 1939.47 175.444 Q1943.83 180.305 1943.83 188.5 Q1943.83 196.671 1939.47 201.555 Q1935.12 206.416 1927.85 206.416 Q1920.56 206.416 1916.19 201.555 Q1911.84 196.694 1911.84 188.5 Q1911.84 180.305 1916.19 175.444 Q1920.56 170.56 1927.85 170.56 Z" fill="#000000" fill-rule="nonzero" fill-opacity="1" /><path clip-path="url(#clip450)" d="M1955.82 175.028 L1955.82 201.902 L1961.47 201.902 Q1968.62 201.902 1971.93 198.662 Q1975.26 195.421 1975.26 188.43 Q1975.26 181.486 1971.93 178.268 Q1968.62 175.028 1961.47 175.028 L1955.82 175.028 M1951.14 171.185 L1960.75 171.185 Q1970.79 171.185 1975.49 175.375 Q1980.19 179.541 1980.19 188.43 Q1980.19 197.365 1975.47 201.555 Q1970.75 205.745 1960.75 205.745 L1951.14 205.745 L1951.14 171.185 Z" fill="#000000" fill-rule="nonzero" fill-opacity="1" /><polyline clip-path="url(#clip450)" style="stroke:#ff0000; stroke-linecap:round; stroke-linejoin:round; stroke-width:4; stroke-opacity:1; fill:none" stroke-dasharray="16, 10" points="1699.71,240.305 1826,240.305 "/>
<path clip-path="url(#clip450)" d="M1847.04 223.025 L1853.34 223.025 L1868.66 251.937 L1868.66 223.025 L1873.2 223.025 L1873.2 257.585 L1866.91 257.585 L1851.58 228.673 L1851.58 257.585 L1847.04 257.585 L1847.04 223.025 Z" fill="#000000" fill-rule="nonzero" fill-opacity="1" /><path clip-path="url(#clip450)" d="M1887.18 241.08 L1887.18 253.742 L1894.68 253.742 Q1898.46 253.742 1900.26 252.191 Q1902.09 250.617 1902.09 247.4 Q1902.09 244.159 1900.26 242.631 Q1898.46 241.08 1894.68 241.08 L1887.18 241.08 M1887.18 226.868 L1887.18 237.284 L1894.1 237.284 Q1897.53 237.284 1899.2 236.011 Q1900.89 234.715 1900.89 232.076 Q1900.89 229.46 1899.2 228.164 Q1897.53 226.868 1894.1 226.868 L1887.18 226.868 M1882.51 223.025 L1894.45 223.025 Q1899.8 223.025 1902.69 225.247 Q1905.59 227.469 1905.59 231.567 Q1905.59 234.738 1904.1 236.613 Q1902.62 238.488 1899.75 238.951 Q1903.2 239.692 1905.1 242.053 Q1907.02 244.391 1907.02 247.909 Q1907.02 252.539 1903.87 255.062 Q1900.73 257.585 1894.91 257.585 L1882.51 257.585 L1882.51 223.025 Z" fill="#000000" fill-rule="nonzero" fill-opacity="1" /><path clip-path="url(#clip450)" d="M1928.22 226.196 Q1923.13 226.196 1920.12 229.993 Q1917.14 233.789 1917.14 240.34 Q1917.14 246.867 1920.12 250.664 Q1923.13 254.46 1928.22 254.46 Q1933.32 254.46 1936.28 250.664 Q1939.27 246.867 1939.27 240.34 Q1939.27 233.789 1936.28 229.993 Q1933.32 226.196 1928.22 226.196 M1928.22 222.4 Q1935.49 222.4 1939.85 227.284 Q1944.2 232.145 1944.2 240.34 Q1944.2 248.511 1939.85 253.395 Q1935.49 258.256 1928.22 258.256 Q1920.93 258.256 1916.56 253.395 Q1912.21 248.534 1912.21 240.34 Q1912.21 232.145 1916.56 227.284 Q1920.93 222.4 1928.22 222.4 Z" fill="#000000" fill-rule="nonzero" fill-opacity="1" /><path clip-path="url(#clip450)" d="M1956.19 226.868 L1956.19 253.742 L1961.84 253.742 Q1968.99 253.742 1972.3 250.502 Q1975.63 247.261 1975.63 240.27 Q1975.63 233.326 1972.3 230.108 Q1968.99 226.868 1961.84 226.868 L1956.19 226.868 M1951.51 223.025 L1961.12 223.025 Q1971.16 223.025 1975.86 227.215 Q1980.56 231.381 1980.56 240.27 Q1980.56 249.205 1975.84 253.395 Q1971.12 257.585 1961.12 257.585 L1951.51 257.585 L1951.51 223.025 Z" fill="#000000" fill-rule="nonzero" fill-opacity="1" /></svg>
