<?xml version="1.0" encoding="utf-8"?>
<svg xmlns="http://www.w3.org/2000/svg" xmlns:xlink="http://www.w3.org/1999/xlink" width="528" height="336" viewBox="0 0 2112 1344">
<defs>
  <clipPath id="clip460">
    <rect x="0" y="0" width="2112" height="1344"/>
  </clipPath>
</defs>
<path clip-path="url(#clip460)" d="M0 1344 L2112 1344 L2112 0 L0 0  Z" fill="#ffffff" fill-rule="evenodd" fill-opacity="1"/>
<defs>
  <clipPath id="clip461">
    <rect x="422" y="0" width="1479" height="1344"/>
  </clipPath>
</defs>
<path clip-path="url(#clip460)" d="M244.502 1173.47 L2064.76 1173.47 L2064.76 47.2441 L244.502 47.2441  Z" fill="#ffffff" fill-rule="evenodd" fill-opacity="1"/>
<defs>
  <clipPath id="clip462">
    <rect x="244" y="47" width="1821" height="1127"/>
  </clipPath>
</defs>
<polyline clip-path="url(#clip462)" style="stroke:#000000; stroke-linecap:round; stroke-linejoin:round; stroke-width:2; stroke-opacity:0.1; fill:none" points="293.707,1173.47 293.707,47.2441 "/>
<polyline clip-path="url(#clip462)" style="stroke:#000000; stroke-linecap:round; stroke-linejoin:round; stroke-width:2; stroke-opacity:0.1; fill:none" points="755.947,1173.47 755.947,47.2441 "/>
<polyline clip-path="url(#clip462)" style="stroke:#000000; stroke-linecap:round; stroke-linejoin:round; stroke-width:2; stroke-opacity:0.1; fill:none" points="1218.19,1173.47 1218.19,47.2441 "/>
<polyline clip-path="url(#clip462)" style="stroke:#000000; stroke-linecap:round; stroke-linejoin:round; stroke-width:2; stroke-opacity:0.1; fill:none" points="1680.43,1173.47 1680.43,47.2441 "/>
<polyline clip-path="url(#clip460)" style="stroke:#000000; stroke-linecap:round; stroke-linejoin:round; stroke-width:4; stroke-opacity:1; fill:none" points="244.502,1173.47 2064.76,1173.47 "/>
<polyline clip-path="url(#clip460)" style="stroke:#000000; stroke-linecap:round; stroke-linejoin:round; stroke-width:4; stroke-opacity:1; fill:none" points="293.707,1173.47 293.707,1154.57 "/>
<polyline clip-path="url(#clip460)" style="stroke:#000000; stroke-linecap:round; stroke-linejoin:round; stroke-width:4; stroke-opacity:1; fill:none" points="755.947,1173.47 755.947,1154.57 "/>
<polyline clip-path="url(#clip460)" style="stroke:#000000; stroke-linecap:round; stroke-linejoin:round; stroke-width:4; stroke-opacity:1; fill:none" points="1218.19,1173.47 1218.19,1154.57 "/>
<polyline clip-path="url(#clip460)" style="stroke:#000000; stroke-linecap:round; stroke-linejoin:round; stroke-width:4; stroke-opacity:1; fill:none" points="1680.43,1173.47 1680.43,1154.57 "/>
<path clip-path="url(#clip460)" d="M293.707 1202.09 Q290.096 1202.09 288.268 1205.65 Q286.462 1209.19 286.462 1216.32 Q286.462 1223.43 288.268 1226.99 Q290.096 1230.53 293.707 1230.53 Q297.342 1230.53 299.147 1226.99 Q300.976 1223.43 300.976 1216.32 Q300.976 1209.19 299.147 1205.65 Q297.342 1202.09 293.707 1202.09 M293.707 1198.38 Q299.518 1198.38 302.573 1202.99 Q305.652 1207.57 305.652 1216.32 Q305.652 1225.05 302.573 1229.65 Q299.518 1234.24 293.707 1234.24 Q287.897 1234.24 284.819 1229.65 Q281.763 1225.05 281.763 1216.32 Q281.763 1207.57 284.819 1202.99 Q287.897 1198.38 293.707 1198.38 Z" fill="#000000" fill-rule="nonzero" fill-opacity="1" /><path clip-path="url(#clip460)" d="M719.64 1229.63 L735.959 1229.63 L735.959 1233.57 L714.015 1233.57 L714.015 1229.63 Q716.677 1226.88 721.26 1222.25 Q725.866 1217.59 727.047 1216.25 Q729.292 1213.73 730.172 1211.99 Q731.075 1210.23 731.075 1208.54 Q731.075 1205.79 729.13 1204.05 Q727.209 1202.32 724.107 1202.32 Q721.908 1202.32 719.454 1203.08 Q717.024 1203.84 714.246 1205.4 L714.246 1200.67 Q717.07 1199.54 719.524 1198.96 Q721.977 1198.38 724.014 1198.38 Q729.385 1198.38 732.579 1201.07 Q735.774 1203.75 735.774 1208.24 Q735.774 1210.37 734.964 1212.29 Q734.176 1214.19 732.07 1216.78 Q731.491 1217.46 728.389 1220.67 Q725.288 1223.87 719.64 1229.63 Z" fill="#000000" fill-rule="nonzero" fill-opacity="1" /><path clip-path="url(#clip460)" d="M755.774 1202.09 Q752.162 1202.09 750.334 1205.65 Q748.528 1209.19 748.528 1216.32 Q748.528 1223.43 750.334 1226.99 Q752.162 1230.53 755.774 1230.53 Q759.408 1230.53 761.213 1226.99 Q763.042 1223.43 763.042 1216.32 Q763.042 1209.19 761.213 1205.65 Q759.408 1202.09 755.774 1202.09 M755.774 1198.38 Q761.584 1198.38 764.639 1202.99 Q767.718 1207.57 767.718 1216.32 Q767.718 1225.05 764.639 1229.65 Q761.584 1234.24 755.774 1234.24 Q749.963 1234.24 746.885 1229.65 Q743.829 1225.05 743.829 1216.32 Q743.829 1207.57 746.885 1202.99 Q749.963 1198.38 755.774 1198.38 Z" fill="#000000" fill-rule="nonzero" fill-opacity="1" /><path clip-path="url(#clip460)" d="M785.935 1202.09 Q782.324 1202.09 780.496 1205.65 Q778.69 1209.19 778.69 1216.32 Q778.69 1223.43 780.496 1226.99 Q782.324 1230.53 785.935 1230.53 Q789.57 1230.53 791.375 1226.99 Q793.204 1223.43 793.204 1216.32 Q793.204 1209.19 791.375 1205.65 Q789.57 1202.09 785.935 1202.09 M785.935 1198.38 Q791.746 1198.38 794.801 1202.99 Q797.88 1207.57 797.88 1216.32 Q797.88 1225.05 794.801 1229.65 Q791.746 1234.24 785.935 1234.24 Q780.125 1234.24 777.047 1229.65 Q773.991 1225.05 773.991 1216.32 Q773.991 1207.57 777.047 1202.99 Q780.125 1198.38 785.935 1198.38 Z" fill="#000000" fill-rule="nonzero" fill-opacity="1" /><path clip-path="url(#clip460)" d="M1191.28 1203.08 L1179.47 1221.53 L1191.28 1221.53 L1191.28 1203.08 M1190.05 1199.01 L1195.93 1199.01 L1195.93 1221.53 L1200.86 1221.53 L1200.86 1225.42 L1195.93 1225.42 L1195.93 1233.57 L1191.28 1233.57 L1191.28 1225.42 L1175.68 1225.42 L1175.68 1220.9 L1190.05 1199.01 Z" fill="#000000" fill-rule="nonzero" fill-opacity="1" /><path clip-path="url(#clip460)" d="M1218.59 1202.09 Q1214.98 1202.09 1213.15 1205.65 Q1211.35 1209.19 1211.35 1216.32 Q1211.35 1223.43 1213.15 1226.99 Q1214.98 1230.53 1218.59 1230.53 Q1222.23 1230.53 1224.03 1226.99 Q1225.86 1223.43 1225.86 1216.32 Q1225.86 1209.19 1224.03 1205.65 Q1222.23 1202.09 1218.59 1202.09 M1218.59 1198.38 Q1224.4 1198.38 1227.46 1202.99 Q1230.54 1207.57 1230.54 1216.32 Q1230.54 1225.05 1227.46 1229.65 Q1224.4 1234.24 1218.59 1234.24 Q1212.78 1234.24 1209.7 1229.65 Q1206.65 1225.05 1206.65 1216.32 Q1206.65 1207.57 1209.7 1202.99 Q1212.78 1198.38 1218.59 1198.38 Z" fill="#000000" fill-rule="nonzero" fill-opacity="1" /><path clip-path="url(#clip460)" d="M1248.75 1202.09 Q1245.14 1202.09 1243.31 1205.65 Q1241.51 1209.19 1241.51 1216.32 Q1241.51 1223.43 1243.31 1226.99 Q1245.14 1230.53 1248.75 1230.53 Q1252.39 1230.53 1254.19 1226.99 Q1256.02 1223.43 1256.02 1216.32 Q1256.02 1209.19 1254.19 1205.65 Q1252.39 1202.09 1248.75 1202.09 M1248.75 1198.38 Q1254.56 1198.38 1257.62 1202.99 Q1260.7 1207.57 1260.7 1216.32 Q1260.7 1225.05 1257.62 1229.65 Q1254.56 1234.24 1248.75 1234.24 Q1242.94 1234.24 1239.87 1229.65 Q1236.81 1225.05 1236.81 1216.32 Q1236.81 1207.57 1239.87 1202.99 Q1242.94 1198.38 1248.75 1198.38 Z" fill="#000000" fill-rule="nonzero" fill-opacity="1" /><path clip-path="url(#clip460)" d="M1650.75 1214.42 Q1647.6 1214.42 1645.75 1216.58 Q1643.92 1218.73 1643.92 1222.48 Q1643.92 1226.21 1645.75 1228.38 Q1647.6 1230.53 1650.75 1230.53 Q1653.9 1230.53 1655.73 1228.38 Q1657.58 1226.21 1657.58 1222.48 Q1657.58 1218.73 1655.73 1216.58 Q1653.9 1214.42 1650.75 1214.42 M1660.03 1199.77 L1660.03 1204.03 Q1658.27 1203.2 1656.47 1202.76 Q1654.69 1202.32 1652.93 1202.32 Q1648.3 1202.32 1645.84 1205.44 Q1643.41 1208.57 1643.07 1214.89 Q1644.43 1212.87 1646.49 1211.81 Q1648.55 1210.72 1651.03 1210.72 Q1656.24 1210.72 1659.25 1213.89 Q1662.28 1217.04 1662.28 1222.48 Q1662.28 1227.8 1659.13 1231.02 Q1655.98 1234.24 1650.75 1234.24 Q1644.76 1234.24 1641.58 1229.65 Q1638.41 1225.05 1638.41 1216.32 Q1638.41 1208.13 1642.3 1203.27 Q1646.19 1198.38 1652.74 1198.38 Q1654.5 1198.38 1656.28 1198.73 Q1658.09 1199.08 1660.03 1199.77 Z" fill="#000000" fill-rule="nonzero" fill-opacity="1" /><path clip-path="url(#clip460)" d="M1680.33 1202.09 Q1676.72 1202.09 1674.89 1205.65 Q1673.09 1209.19 1673.09 1216.32 Q1673.09 1223.43 1674.89 1226.99 Q1676.72 1230.53 1680.33 1230.53 Q1683.97 1230.53 1685.77 1226.99 Q1687.6 1223.43 1687.6 1216.32 Q1687.6 1209.19 1685.77 1205.65 Q1683.97 1202.09 1680.33 1202.09 M1680.33 1198.38 Q1686.14 1198.38 1689.2 1202.99 Q1692.28 1207.57 1692.28 1216.32 Q1692.28 1225.05 1689.2 1229.65 Q1686.14 1234.24 1680.33 1234.24 Q1674.52 1234.24 1671.45 1229.65 Q1668.39 1225.05 1668.39 1216.32 Q1668.39 1207.57 1671.45 1202.99 Q1674.52 1198.38 1680.33 1198.38 Z" fill="#000000" fill-rule="nonzero" fill-opacity="1" /><path clip-path="url(#clip460)" d="M1710.5 1202.09 Q1706.88 1202.09 1705.06 1205.65 Q1703.25 1209.19 1703.25 1216.32 Q1703.25 1223.43 1705.06 1226.99 Q1706.88 1230.53 1710.5 1230.53 Q1714.13 1230.53 1715.94 1226.99 Q1717.76 1223.43 1717.76 1216.32 Q1717.76 1209.19 1715.94 1205.65 Q1714.13 1202.09 1710.5 1202.09 M1710.5 1198.38 Q1716.31 1198.38 1719.36 1202.99 Q1722.44 1207.57 1722.44 1216.32 Q1722.44 1225.05 1719.36 1229.65 Q1716.31 1234.24 1710.5 1234.24 Q1704.69 1234.24 1701.61 1229.65 Q1698.55 1225.05 1698.55 1216.32 Q1698.55 1207.57 1701.61 1202.99 Q1704.69 1198.38 1710.5 1198.38 Z" fill="#000000" fill-rule="nonzero" fill-opacity="1" /><path clip-path="url(#clip460)" d="M863.955 1266.49 L870.384 1266.49 L870.384 1285.97 L893.746 1285.97 L893.746 1266.49 L900.176 1266.49 L900.176 1314.01 L893.746 1314.01 L893.746 1291.38 L870.384 1291.38 L870.384 1314.01 L863.955 1314.01 L863.955 1266.49 Z" fill="#000000" fill-rule="nonzero" fill-opacity="1" /><path clip-path="url(#clip460)" d="M926.53 1282.47 Q921.819 1282.47 919.082 1286.16 Q916.345 1289.83 916.345 1296.22 Q916.345 1302.62 919.05 1306.31 Q921.787 1309.97 926.53 1309.97 Q931.209 1309.97 933.946 1306.28 Q936.683 1302.59 936.683 1296.22 Q936.683 1289.89 933.946 1286.2 Q931.209 1282.47 926.53 1282.47 M926.53 1277.51 Q934.169 1277.51 938.529 1282.47 Q942.89 1287.44 942.89 1296.22 Q942.89 1304.98 938.529 1309.97 Q934.169 1314.94 926.53 1314.94 Q918.859 1314.94 914.499 1309.97 Q910.17 1304.98 910.17 1296.22 Q910.17 1287.44 914.499 1282.47 Q918.859 1277.51 926.53 1277.51 Z" fill="#000000" fill-rule="nonzero" fill-opacity="1" /><path clip-path="url(#clip460)" d="M951.993 1299.95 L951.993 1278.37 L957.849 1278.37 L957.849 1299.72 Q957.849 1304.78 959.822 1307.33 Q961.796 1309.85 965.743 1309.85 Q970.485 1309.85 973.222 1306.82 Q975.991 1303.8 975.991 1298.58 L975.991 1278.37 L981.848 1278.37 L981.848 1314.01 L975.991 1314.01 L975.991 1308.54 Q973.859 1311.79 971.026 1313.38 Q968.225 1314.94 964.501 1314.94 Q958.358 1314.94 955.175 1311.12 Q951.993 1307.3 951.993 1299.95 M966.729 1277.51 L966.729 1277.51 Z" fill="#000000" fill-rule="nonzero" fill-opacity="1" /><path clip-path="url(#clip460)" d="M1014.57 1283.84 Q1013.58 1283.27 1012.4 1283.01 Q1011.26 1282.73 1009.86 1282.73 Q1004.89 1282.73 1002.22 1285.97 Q999.576 1289.19 999.576 1295.24 L999.576 1314.01 L993.688 1314.01 L993.688 1278.37 L999.576 1278.37 L999.576 1283.9 Q1001.42 1280.66 1004.38 1279.1 Q1007.34 1277.51 1011.58 1277.51 Q1012.18 1277.51 1012.91 1277.6 Q1013.64 1277.67 1014.54 1277.83 L1014.57 1283.84 Z" fill="#000000" fill-rule="nonzero" fill-opacity="1" /><path clip-path="url(#clip460)" d="M1055.24 1282.47 Q1050.53 1282.47 1047.8 1286.16 Q1045.06 1289.83 1045.06 1296.22 Q1045.06 1302.62 1047.76 1306.31 Q1050.5 1309.97 1055.24 1309.97 Q1059.92 1309.97 1062.66 1306.28 Q1065.4 1302.59 1065.4 1296.22 Q1065.4 1289.89 1062.66 1286.2 Q1059.92 1282.47 1055.24 1282.47 M1055.24 1277.51 Q1062.88 1277.51 1067.24 1282.47 Q1071.6 1287.44 1071.6 1296.22 Q1071.6 1304.98 1067.24 1309.97 Q1062.88 1314.94 1055.24 1314.94 Q1047.57 1314.94 1043.21 1309.97 Q1038.88 1304.98 1038.88 1296.22 Q1038.88 1287.44 1043.21 1282.47 Q1047.57 1277.51 1055.24 1277.51 Z" fill="#000000" fill-rule="nonzero" fill-opacity="1" /><path clip-path="url(#clip460)" d="M1099.36 1264.49 L1099.36 1269.36 L1093.76 1269.36 Q1090.61 1269.36 1089.36 1270.63 Q1088.16 1271.91 1088.16 1275.22 L1088.16 1278.37 L1097.8 1278.37 L1097.8 1282.92 L1088.16 1282.92 L1088.16 1314.01 L1082.27 1314.01 L1082.27 1282.92 L1076.66 1282.92 L1076.66 1278.37 L1082.27 1278.37 L1082.27 1275.88 Q1082.27 1269.93 1085.04 1267.23 Q1087.8 1264.49 1093.82 1264.49 L1099.36 1264.49 Z" fill="#000000" fill-rule="nonzero" fill-opacity="1" /><path clip-path="url(#clip460)" d="M1130.77 1268.25 L1130.77 1278.37 L1142.84 1278.37 L1142.84 1282.92 L1130.77 1282.92 L1130.77 1302.27 Q1130.77 1306.63 1131.95 1307.87 Q1133.16 1309.11 1136.82 1309.11 L1142.84 1309.11 L1142.84 1314.01 L1136.82 1314.01 Q1130.04 1314.01 1127.46 1311.5 Q1124.89 1308.95 1124.89 1302.27 L1124.89 1282.92 L1120.59 1282.92 L1120.59 1278.37 L1124.89 1278.37 L1124.89 1268.25 L1130.77 1268.25 Z" fill="#000000" fill-rule="nonzero" fill-opacity="1" /><path clip-path="url(#clip460)" d="M1180.17 1292.5 L1180.17 1314.01 L1174.31 1314.01 L1174.31 1292.69 Q1174.31 1287.63 1172.34 1285.11 Q1170.37 1282.6 1166.42 1282.6 Q1161.68 1282.6 1158.94 1285.62 Q1156.2 1288.65 1156.2 1293.87 L1156.2 1314.01 L1150.32 1314.01 L1150.32 1264.49 L1156.2 1264.49 L1156.2 1283.9 Q1158.31 1280.69 1161.14 1279.1 Q1164 1277.51 1167.73 1277.51 Q1173.87 1277.51 1177.02 1281.33 Q1180.17 1285.11 1180.17 1292.5 Z" fill="#000000" fill-rule="nonzero" fill-opacity="1" /><path clip-path="url(#clip460)" d="M1222.34 1294.73 L1222.34 1297.59 L1195.42 1297.59 Q1195.8 1303.64 1199.05 1306.82 Q1202.32 1309.97 1208.15 1309.97 Q1211.52 1309.97 1214.67 1309.14 Q1217.86 1308.32 1220.98 1306.66 L1220.98 1312.2 Q1217.82 1313.54 1214.51 1314.24 Q1211.2 1314.94 1207.8 1314.94 Q1199.27 1314.94 1194.27 1309.97 Q1189.31 1305.01 1189.31 1296.54 Q1189.31 1287.79 1194.02 1282.66 Q1198.76 1277.51 1206.78 1277.51 Q1213.97 1277.51 1218.14 1282.15 Q1222.34 1286.77 1222.34 1294.73 M1216.49 1293.01 Q1216.42 1288.2 1213.78 1285.34 Q1211.17 1282.47 1206.84 1282.47 Q1201.94 1282.47 1198.98 1285.24 Q1196.05 1288.01 1195.61 1293.04 L1216.49 1293.01 Z" fill="#000000" fill-rule="nonzero" fill-opacity="1" /><path clip-path="url(#clip460)" d="M1252.93 1266.49 L1262.51 1266.49 L1274.64 1298.83 L1286.83 1266.49 L1296.41 1266.49 L1296.41 1314.01 L1290.14 1314.01 L1290.14 1272.29 L1277.88 1304.88 L1271.42 1304.88 L1259.17 1272.29 L1259.17 1314.01 L1252.93 1314.01 L1252.93 1266.49 Z" fill="#000000" fill-rule="nonzero" fill-opacity="1" /><path clip-path="url(#clip460)" d="M1322.73 1282.47 Q1318.02 1282.47 1315.28 1286.16 Q1312.55 1289.83 1312.55 1296.22 Q1312.55 1302.62 1315.25 1306.31 Q1317.99 1309.97 1322.73 1309.97 Q1327.41 1309.97 1330.15 1306.28 Q1332.88 1302.59 1332.88 1296.22 Q1332.88 1289.89 1330.15 1286.2 Q1327.41 1282.47 1322.73 1282.47 M1322.73 1277.51 Q1330.37 1277.51 1334.73 1282.47 Q1339.09 1287.44 1339.09 1296.22 Q1339.09 1304.98 1334.73 1309.97 Q1330.37 1314.94 1322.73 1314.94 Q1315.06 1314.94 1310.7 1309.97 Q1306.37 1304.98 1306.37 1296.22 Q1306.37 1287.44 1310.7 1282.47 Q1315.06 1277.51 1322.73 1277.51 Z" fill="#000000" fill-rule="nonzero" fill-opacity="1" /><path clip-path="url(#clip460)" d="M1378.43 1292.5 L1378.43 1314.01 L1372.57 1314.01 L1372.57 1292.69 Q1372.57 1287.63 1370.6 1285.11 Q1368.63 1282.6 1364.68 1282.6 Q1359.94 1282.6 1357.2 1285.62 Q1354.46 1288.65 1354.46 1293.87 L1354.46 1314.01 L1348.58 1314.01 L1348.58 1278.37 L1354.46 1278.37 L1354.46 1283.9 Q1356.57 1280.69 1359.4 1279.1 Q1362.26 1277.51 1365.99 1277.51 Q1372.13 1277.51 1375.28 1281.33 Q1378.43 1285.11 1378.43 1292.5 Z" fill="#000000" fill-rule="nonzero" fill-opacity="1" /><path clip-path="url(#clip460)" d="M1395.91 1268.25 L1395.91 1278.37 L1407.97 1278.37 L1407.97 1282.92 L1395.91 1282.92 L1395.91 1302.27 Q1395.91 1306.63 1397.08 1307.87 Q1398.29 1309.11 1401.95 1309.11 L1407.97 1309.11 L1407.97 1314.01 L1401.95 1314.01 Q1395.17 1314.01 1392.59 1311.5 Q1390.02 1308.95 1390.02 1302.27 L1390.02 1282.92 L1385.72 1282.92 L1385.72 1278.37 L1390.02 1278.37 L1390.02 1268.25 L1395.91 1268.25 Z" fill="#000000" fill-rule="nonzero" fill-opacity="1" /><path clip-path="url(#clip460)" d="M1445.3 1292.5 L1445.3 1314.01 L1439.45 1314.01 L1439.45 1292.69 Q1439.45 1287.63 1437.47 1285.11 Q1435.5 1282.6 1431.55 1282.6 Q1426.81 1282.6 1424.07 1285.62 Q1421.34 1288.65 1421.34 1293.87 L1421.34 1314.01 L1415.45 1314.01 L1415.45 1264.49 L1421.34 1264.49 L1421.34 1283.9 Q1423.44 1280.69 1426.27 1279.1 Q1429.13 1277.51 1432.86 1277.51 Q1439 1277.51 1442.15 1281.33 Q1445.3 1285.11 1445.3 1292.5 Z" fill="#000000" fill-rule="nonzero" fill-opacity="1" /><polyline clip-path="url(#clip462)" style="stroke:#000000; stroke-linecap:round; stroke-linejoin:round; stroke-width:2; stroke-opacity:0.1; fill:none" points="244.502,1141.6 2064.76,1141.6 "/>
<polyline clip-path="url(#clip462)" style="stroke:#000000; stroke-linecap:round; stroke-linejoin:round; stroke-width:2; stroke-opacity:0.1; fill:none" points="244.502,875.977 2064.76,875.977 "/>
<polyline clip-path="url(#clip462)" style="stroke:#000000; stroke-linecap:round; stroke-linejoin:round; stroke-width:2; stroke-opacity:0.1; fill:none" points="244.502,610.357 2064.76,610.357 "/>
<polyline clip-path="url(#clip462)" style="stroke:#000000; stroke-linecap:round; stroke-linejoin:round; stroke-width:2; stroke-opacity:0.1; fill:none" points="244.502,344.738 2064.76,344.738 "/>
<polyline clip-path="url(#clip462)" style="stroke:#000000; stroke-linecap:round; stroke-linejoin:round; stroke-width:2; stroke-opacity:0.1; fill:none" points="244.502,79.1184 2064.76,79.1184 "/>
<polyline clip-path="url(#clip460)" style="stroke:#000000; stroke-linecap:round; stroke-linejoin:round; stroke-width:4; stroke-opacity:1; fill:none" points="244.502,1173.47 244.502,47.2441 "/>
<polyline clip-path="url(#clip460)" style="stroke:#000000; stroke-linecap:round; stroke-linejoin:round; stroke-width:4; stroke-opacity:1; fill:none" points="244.502,1141.6 263.4,1141.6 "/>
<polyline clip-path="url(#clip460)" style="stroke:#000000; stroke-linecap:round; stroke-linejoin:round; stroke-width:4; stroke-opacity:1; fill:none" points="244.502,875.977 263.4,875.977 "/>
<polyline clip-path="url(#clip460)" style="stroke:#000000; stroke-linecap:round; stroke-linejoin:round; stroke-width:4; stroke-opacity:1; fill:none" points="244.502,610.357 263.4,610.357 "/>
<polyline clip-path="url(#clip460)" style="stroke:#000000; stroke-linecap:round; stroke-linejoin:round; stroke-width:4; stroke-opacity:1; fill:none" points="244.502,344.738 263.4,344.738 "/>
<polyline clip-path="url(#clip460)" style="stroke:#000000; stroke-linecap:round; stroke-linejoin:round; stroke-width:4; stroke-opacity:1; fill:none" points="244.502,79.1184 263.4,79.1184 "/>
<path clip-path="url(#clip460)" d="M125.485 1127.4 Q121.873 1127.4 120.045 1130.96 Q118.239 1134.5 118.239 1141.63 Q118.239 1148.74 120.045 1152.3 Q121.873 1155.84 125.485 1155.84 Q129.119 1155.84 130.924 1152.3 Q132.753 1148.74 132.753 1141.63 Q132.753 1134.5 130.924 1130.96 Q129.119 1127.4 125.485 1127.4 M125.485 1123.69 Q131.295 1123.69 134.35 1128.3 Q137.429 1132.88 137.429 1141.63 Q137.429 1150.36 134.35 1154.96 Q131.295 1159.55 125.485 1159.55 Q119.674 1159.55 116.596 1154.96 Q113.54 1150.36 113.54 1141.63 Q113.54 1132.88 116.596 1128.3 Q119.674 1123.69 125.485 1123.69 Z" fill="#000000" fill-rule="nonzero" fill-opacity="1" /><path clip-path="url(#clip460)" d="M145.646 1153 L150.531 1153 L150.531 1158.88 L145.646 1158.88 L145.646 1153 Z" fill="#000000" fill-rule="nonzero" fill-opacity="1" /><path clip-path="url(#clip460)" d="M170.716 1127.4 Q167.105 1127.4 165.276 1130.96 Q163.47 1134.5 163.47 1141.63 Q163.47 1148.74 165.276 1152.3 Q167.105 1155.84 170.716 1155.84 Q174.35 1155.84 176.156 1152.3 Q177.984 1148.74 177.984 1141.63 Q177.984 1134.5 176.156 1130.96 Q174.35 1127.4 170.716 1127.4 M170.716 1123.69 Q176.526 1123.69 179.581 1128.3 Q182.66 1132.88 182.66 1141.63 Q182.66 1150.36 179.581 1154.96 Q176.526 1159.55 170.716 1159.55 Q164.906 1159.55 161.827 1154.96 Q158.771 1150.36 158.771 1141.63 Q158.771 1132.88 161.827 1128.3 Q164.906 1123.69 170.716 1123.69 Z" fill="#000000" fill-rule="nonzero" fill-opacity="1" /><path clip-path="url(#clip460)" d="M200.878 1127.4 Q197.267 1127.4 195.438 1130.96 Q193.632 1134.5 193.632 1141.63 Q193.632 1148.74 195.438 1152.3 Q197.267 1155.84 200.878 1155.84 Q204.512 1155.84 206.317 1152.3 Q208.146 1148.74 208.146 1141.63 Q208.146 1134.5 206.317 1130.96 Q204.512 1127.4 200.878 1127.4 M200.878 1123.69 Q206.688 1123.69 209.743 1128.3 Q212.822 1132.88 212.822 1141.63 Q212.822 1150.36 209.743 1154.96 Q206.688 1159.55 200.878 1159.55 Q195.067 1159.55 191.989 1154.96 Q188.933 1150.36 188.933 1141.63 Q188.933 1132.88 191.989 1128.3 Q195.067 1123.69 200.878 1123.69 Z" fill="#000000" fill-rule="nonzero" fill-opacity="1" /><path clip-path="url(#clip460)" d="M126.48 861.776 Q122.869 861.776 121.04 865.34 Q119.235 868.882 119.235 876.012 Q119.235 883.118 121.04 886.683 Q122.869 890.225 126.48 890.225 Q130.114 890.225 131.92 886.683 Q133.748 883.118 133.748 876.012 Q133.748 868.882 131.92 865.34 Q130.114 861.776 126.48 861.776 M126.48 858.072 Q132.29 858.072 135.346 862.678 Q138.424 867.262 138.424 876.012 Q138.424 884.738 135.346 889.345 Q132.29 893.928 126.48 893.928 Q120.67 893.928 117.591 889.345 Q114.536 884.738 114.536 876.012 Q114.536 867.262 117.591 862.678 Q120.67 858.072 126.48 858.072 Z" fill="#000000" fill-rule="nonzero" fill-opacity="1" /><path clip-path="url(#clip460)" d="M146.642 887.377 L151.526 887.377 L151.526 893.257 L146.642 893.257 L146.642 887.377 Z" fill="#000000" fill-rule="nonzero" fill-opacity="1" /><path clip-path="url(#clip460)" d="M165.739 889.322 L182.058 889.322 L182.058 893.257 L160.114 893.257 L160.114 889.322 Q162.776 886.567 167.359 881.938 Q171.966 877.285 173.146 875.942 Q175.392 873.419 176.271 871.683 Q177.174 869.924 177.174 868.234 Q177.174 865.479 175.23 863.743 Q173.308 862.007 170.207 862.007 Q168.007 862.007 165.554 862.771 Q163.123 863.535 160.345 865.086 L160.345 860.364 Q163.17 859.229 165.623 858.651 Q168.077 858.072 170.114 858.072 Q175.484 858.072 178.679 860.757 Q181.873 863.442 181.873 867.933 Q181.873 870.063 181.063 871.984 Q180.276 873.882 178.169 876.475 Q177.591 877.146 174.489 880.363 Q171.387 883.558 165.739 889.322 Z" fill="#000000" fill-rule="nonzero" fill-opacity="1" /><path clip-path="url(#clip460)" d="M191.919 858.697 L210.276 858.697 L210.276 862.632 L196.202 862.632 L196.202 871.104 Q197.22 870.757 198.239 870.595 Q199.257 870.41 200.276 870.41 Q206.063 870.41 209.442 873.581 Q212.822 876.752 212.822 882.169 Q212.822 887.748 209.35 890.85 Q205.878 893.928 199.558 893.928 Q197.382 893.928 195.114 893.558 Q192.868 893.187 190.461 892.447 L190.461 887.748 Q192.544 888.882 194.767 889.437 Q196.989 889.993 199.466 889.993 Q203.47 889.993 205.808 887.887 Q208.146 885.78 208.146 882.169 Q208.146 878.558 205.808 876.451 Q203.47 874.345 199.466 874.345 Q197.591 874.345 195.716 874.762 Q193.864 875.178 191.919 876.058 L191.919 858.697 Z" fill="#000000" fill-rule="nonzero" fill-opacity="1" /><path clip-path="url(#clip460)" d="M125.485 596.156 Q121.873 596.156 120.045 599.721 Q118.239 603.263 118.239 610.392 Q118.239 617.499 120.045 621.063 Q121.873 624.605 125.485 624.605 Q129.119 624.605 130.924 621.063 Q132.753 617.499 132.753 610.392 Q132.753 603.263 130.924 599.721 Q129.119 596.156 125.485 596.156 M125.485 592.452 Q131.295 592.452 134.35 597.059 Q137.429 601.642 137.429 610.392 Q137.429 619.119 134.35 623.725 Q131.295 628.309 125.485 628.309 Q119.674 628.309 116.596 623.725 Q113.54 619.119 113.54 610.392 Q113.54 601.642 116.596 597.059 Q119.674 592.452 125.485 592.452 Z" fill="#000000" fill-rule="nonzero" fill-opacity="1" /><path clip-path="url(#clip460)" d="M145.646 621.758 L150.531 621.758 L150.531 627.637 L145.646 627.637 L145.646 621.758 Z" fill="#000000" fill-rule="nonzero" fill-opacity="1" /><path clip-path="url(#clip460)" d="M160.762 593.077 L179.119 593.077 L179.119 597.013 L165.045 597.013 L165.045 605.485 Q166.063 605.138 167.082 604.976 Q168.1 604.79 169.119 604.79 Q174.906 604.79 178.285 607.962 Q181.665 611.133 181.665 616.55 Q181.665 622.128 178.193 625.23 Q174.72 628.309 168.401 628.309 Q166.225 628.309 163.957 627.938 Q161.711 627.568 159.304 626.827 L159.304 622.128 Q161.387 623.262 163.609 623.818 Q165.832 624.374 168.308 624.374 Q172.313 624.374 174.651 622.267 Q176.989 620.161 176.989 616.55 Q176.989 612.938 174.651 610.832 Q172.313 608.725 168.308 608.725 Q166.433 608.725 164.558 609.142 Q162.707 609.559 160.762 610.438 L160.762 593.077 Z" fill="#000000" fill-rule="nonzero" fill-opacity="1" /><path clip-path="url(#clip460)" d="M200.878 596.156 Q197.267 596.156 195.438 599.721 Q193.632 603.263 193.632 610.392 Q193.632 617.499 195.438 621.063 Q197.267 624.605 200.878 624.605 Q204.512 624.605 206.317 621.063 Q208.146 617.499 208.146 610.392 Q208.146 603.263 206.317 599.721 Q204.512 596.156 200.878 596.156 M200.878 592.452 Q206.688 592.452 209.743 597.059 Q212.822 601.642 212.822 610.392 Q212.822 619.119 209.743 623.725 Q206.688 628.309 200.878 628.309 Q195.067 628.309 191.989 623.725 Q188.933 619.119 188.933 610.392 Q188.933 601.642 191.989 597.059 Q195.067 592.452 200.878 592.452 Z" fill="#000000" fill-rule="nonzero" fill-opacity="1" /><path clip-path="url(#clip460)" d="M126.48 330.537 Q122.869 330.537 121.04 334.101 Q119.235 337.643 119.235 344.773 Q119.235 351.879 121.04 355.444 Q122.869 358.986 126.48 358.986 Q130.114 358.986 131.92 355.444 Q133.748 351.879 133.748 344.773 Q133.748 337.643 131.92 334.101 Q130.114 330.537 126.48 330.537 M126.48 326.833 Q132.29 326.833 135.346 331.439 Q138.424 336.023 138.424 344.773 Q138.424 353.499 135.346 358.106 Q132.29 362.689 126.48 362.689 Q120.67 362.689 117.591 358.106 Q114.536 353.499 114.536 344.773 Q114.536 336.023 117.591 331.439 Q120.67 326.833 126.48 326.833 Z" fill="#000000" fill-rule="nonzero" fill-opacity="1" /><path clip-path="url(#clip460)" d="M146.642 356.138 L151.526 356.138 L151.526 362.018 L146.642 362.018 L146.642 356.138 Z" fill="#000000" fill-rule="nonzero" fill-opacity="1" /><path clip-path="url(#clip460)" d="M160.531 327.458 L182.753 327.458 L182.753 329.449 L170.207 362.018 L165.322 362.018 L177.128 331.393 L160.531 331.393 L160.531 327.458 Z" fill="#000000" fill-rule="nonzero" fill-opacity="1" /><path clip-path="url(#clip460)" d="M191.919 327.458 L210.276 327.458 L210.276 331.393 L196.202 331.393 L196.202 339.865 Q197.22 339.518 198.239 339.356 Q199.257 339.171 200.276 339.171 Q206.063 339.171 209.442 342.342 Q212.822 345.513 212.822 350.93 Q212.822 356.509 209.35 359.611 Q205.878 362.689 199.558 362.689 Q197.382 362.689 195.114 362.319 Q192.868 361.948 190.461 361.208 L190.461 356.509 Q192.544 357.643 194.767 358.199 Q196.989 358.754 199.466 358.754 Q203.47 358.754 205.808 356.648 Q208.146 354.541 208.146 350.93 Q208.146 347.319 205.808 345.212 Q203.47 343.106 199.466 343.106 Q197.591 343.106 195.716 343.523 Q193.864 343.939 191.919 344.819 L191.919 327.458 Z" fill="#000000" fill-rule="nonzero" fill-opacity="1" /><path clip-path="url(#clip460)" d="M116.295 92.4633 L123.934 92.4633 L123.934 66.0977 L115.623 67.7643 L115.623 63.5051 L123.887 61.8384 L128.563 61.8384 L128.563 92.4633 L136.202 92.4633 L136.202 96.3984 L116.295 96.3984 L116.295 92.4633 Z" fill="#000000" fill-rule="nonzero" fill-opacity="1" /><path clip-path="url(#clip460)" d="M145.646 90.5188 L150.531 90.5188 L150.531 96.3984 L145.646 96.3984 L145.646 90.5188 Z" fill="#000000" fill-rule="nonzero" fill-opacity="1" /><path clip-path="url(#clip460)" d="M170.716 64.9171 Q167.105 64.9171 165.276 68.4819 Q163.47 72.0236 163.47 79.1532 Q163.47 86.2596 165.276 89.8244 Q167.105 93.366 170.716 93.366 Q174.35 93.366 176.156 89.8244 Q177.984 86.2596 177.984 79.1532 Q177.984 72.0236 176.156 68.4819 Q174.35 64.9171 170.716 64.9171 M170.716 61.2134 Q176.526 61.2134 179.581 65.8199 Q182.66 70.4032 182.66 79.1532 Q182.66 87.88 179.581 92.4864 Q176.526 97.0697 170.716 97.0697 Q164.906 97.0697 161.827 92.4864 Q158.771 87.88 158.771 79.1532 Q158.771 70.4032 161.827 65.8199 Q164.906 61.2134 170.716 61.2134 Z" fill="#000000" fill-rule="nonzero" fill-opacity="1" /><path clip-path="url(#clip460)" d="M200.878 64.9171 Q197.267 64.9171 195.438 68.4819 Q193.632 72.0236 193.632 79.1532 Q193.632 86.2596 195.438 89.8244 Q197.267 93.366 200.878 93.366 Q204.512 93.366 206.317 89.8244 Q208.146 86.2596 208.146 79.1532 Q208.146 72.0236 206.317 68.4819 Q204.512 64.9171 200.878 64.9171 M200.878 61.2134 Q206.688 61.2134 209.743 65.8199 Q212.822 70.4032 212.822 79.1532 Q212.822 87.88 209.743 92.4864 Q206.688 97.0697 200.878 97.0697 Q195.067 97.0697 191.989 92.4864 Q188.933 87.88 188.933 79.1532 Q188.933 70.4032 191.989 65.8199 Q195.067 61.2134 200.878 61.2134 Z" fill="#000000" fill-rule="nonzero" fill-opacity="1" /><path clip-path="url(#clip460)" d="M23.7444 822.765 L30.5239 822.765 Q27.5002 826.012 26.0043 829.704 Q24.5083 833.364 24.5083 837.502 Q24.5083 845.65 29.5054 849.979 Q34.4707 854.307 43.8919 854.307 Q53.2813 854.307 58.2784 849.979 Q63.2436 845.65 63.2436 837.502 Q63.2436 833.364 61.7477 829.704 Q60.2518 826.012 57.2281 822.765 L63.9439 822.765 Q66.2355 826.139 67.3814 829.927 Q68.5272 833.682 68.5272 837.884 Q68.5272 848.674 61.9387 854.88 Q55.3183 861.087 43.8919 861.087 Q32.4336 861.087 25.8451 854.88 Q19.2248 848.674 19.2248 837.884 Q19.2248 833.619 20.3706 829.863 Q21.4846 826.075 23.7444 822.765 Z" fill="#000000" fill-rule="nonzero" fill-opacity="1" /><path clip-path="url(#clip460)" d="M49.6847 796.889 Q49.6847 803.986 51.3079 806.724 Q52.9312 809.461 56.8461 809.461 Q59.9653 809.461 61.8114 807.424 Q63.6256 805.355 63.6256 801.822 Q63.6256 796.952 60.1881 794.024 Q56.7188 791.064 50.9897 791.064 L49.6847 791.064 L49.6847 796.889 M47.2657 785.207 L67.6042 785.207 L67.6042 791.064 L62.1933 791.064 Q65.4398 793.069 66.9994 796.061 Q68.5272 799.053 68.5272 803.382 Q68.5272 808.856 65.4716 812.103 Q62.3843 815.317 57.2281 815.317 Q51.2125 815.317 48.1569 811.307 Q45.1014 807.265 45.1014 799.276 L45.1014 791.064 L44.5285 791.064 Q40.4862 791.064 38.2901 793.738 Q36.0621 796.379 36.0621 801.185 Q36.0621 804.241 36.7941 807.137 Q37.5262 810.034 38.9903 812.707 L33.5795 812.707 Q32.3381 809.493 31.7334 806.469 Q31.0968 803.445 31.0968 800.581 Q31.0968 792.846 35.1072 789.027 Q39.1176 785.207 47.2657 785.207 Z" fill="#000000" fill-rule="nonzero" fill-opacity="1" /><path clip-path="url(#clip460)" d="M62.257 767.479 L81.1631 767.479 L81.1631 773.367 L31.9562 773.367 L31.9562 767.479 L37.3671 767.479 Q34.1842 765.633 32.6564 762.832 Q31.0968 759.999 31.0968 756.084 Q31.0968 749.591 36.2531 745.549 Q41.4093 741.475 49.812 741.475 Q58.2147 741.475 63.371 745.549 Q68.5272 749.591 68.5272 756.084 Q68.5272 759.999 66.9994 762.832 Q65.4398 765.633 62.257 767.479 M49.812 747.554 Q43.3508 747.554 39.6905 750.228 Q35.9984 752.87 35.9984 757.517 Q35.9984 762.164 39.6905 764.837 Q43.3508 767.479 49.812 767.479 Q56.2732 767.479 59.9653 764.837 Q63.6256 762.164 63.6256 757.517 Q63.6256 752.87 59.9653 750.228 Q56.2732 747.554 49.812 747.554 Z" fill="#000000" fill-rule="nonzero" fill-opacity="1" /><path clip-path="url(#clip460)" d="M49.6847 715.567 Q49.6847 722.664 51.3079 725.402 Q52.9312 728.139 56.8461 728.139 Q59.9653 728.139 61.8114 726.102 Q63.6256 724.033 63.6256 720.5 Q63.6256 715.63 60.1881 712.702 Q56.7188 709.742 50.9897 709.742 L49.6847 709.742 L49.6847 715.567 M47.2657 703.886 L67.6042 703.886 L67.6042 709.742 L62.1933 709.742 Q65.4398 711.747 66.9994 714.739 Q68.5272 717.731 68.5272 722.06 Q68.5272 727.534 65.4716 730.781 Q62.3843 733.995 57.2281 733.995 Q51.2125 733.995 48.1569 729.985 Q45.1014 725.943 45.1014 717.954 L45.1014 709.742 L44.5285 709.742 Q40.4862 709.742 38.2901 712.416 Q36.0621 715.057 36.0621 719.863 Q36.0621 722.919 36.7941 725.815 Q37.5262 728.712 38.9903 731.385 L33.5795 731.385 Q32.3381 728.171 31.7334 725.147 Q31.0968 722.123 31.0968 719.259 Q31.0968 711.524 35.1072 707.705 Q39.1176 703.886 47.2657 703.886 Z" fill="#000000" fill-rule="nonzero" fill-opacity="1" /><path clip-path="url(#clip460)" d="M33.3248 666.169 L38.7993 666.169 Q37.4307 668.651 36.7623 671.166 Q36.0621 673.648 36.0621 676.195 Q36.0621 681.892 39.6905 685.043 Q43.2872 688.194 49.812 688.194 Q56.3369 688.194 59.9653 685.043 Q63.5619 681.892 63.5619 676.195 Q63.5619 673.648 62.8935 671.166 Q62.1933 668.651 60.8247 666.169 L66.2355 666.169 Q67.3814 668.62 67.9543 671.261 Q68.5272 673.871 68.5272 676.831 Q68.5272 684.884 63.4664 689.626 Q58.4057 694.369 49.812 694.369 Q41.091 694.369 36.0939 689.595 Q31.0968 684.788 31.0968 676.449 Q31.0968 673.744 31.6697 671.166 Q32.2108 668.588 33.3248 666.169 Z" fill="#000000" fill-rule="nonzero" fill-opacity="1" /><path clip-path="url(#clip460)" d="M31.9562 655.984 L31.9562 650.127 L67.6042 650.127 L67.6042 655.984 L31.9562 655.984 M18.079 655.984 L18.079 650.127 L25.495 650.127 L25.495 655.984 L18.079 655.984 Z" fill="#000000" fill-rule="nonzero" fill-opacity="1" /><path clip-path="url(#clip460)" d="M21.8347 632.08 L31.9562 632.08 L31.9562 620.017 L36.5077 620.017 L36.5077 632.08 L55.8594 632.08 Q60.2199 632.08 61.4613 630.903 Q62.7026 629.693 62.7026 626.033 L62.7026 620.017 L67.6042 620.017 L67.6042 626.033 Q67.6042 632.812 65.0897 635.391 Q62.5434 637.969 55.8594 637.969 L36.5077 637.969 L36.5077 642.266 L31.9562 642.266 L31.9562 637.969 L21.8347 637.969 L21.8347 632.08 Z" fill="#000000" fill-rule="nonzero" fill-opacity="1" /><path clip-path="url(#clip460)" d="M70.9143 597.483 Q77.28 599.965 79.2216 602.321 Q81.1631 604.676 81.1631 608.623 L81.1631 613.302 L76.2615 613.302 L76.2615 609.864 Q76.2615 607.445 75.1157 606.108 Q73.9699 604.772 69.7048 603.148 L67.0312 602.098 L31.9562 616.516 L31.9562 610.31 L59.838 599.17 L31.9562 588.03 L31.9562 581.823 L70.9143 597.483 Z" fill="#000000" fill-rule="nonzero" fill-opacity="1" /><path clip-path="url(#clip460)" d="M20.0842 552.764 L20.0842 525.455 L25.495 525.455 L25.495 546.334 L39.4996 546.334 L39.4996 527.492 L44.9104 527.492 L44.9104 546.334 L67.6042 546.334 L67.6042 552.764 L20.0842 552.764 Z" fill="#000000" fill-rule="nonzero" fill-opacity="1" /><path clip-path="url(#clip460)" d="M49.6847 505.307 Q49.6847 512.405 51.3079 515.142 Q52.9312 517.88 56.8461 517.88 Q59.9653 517.88 61.8114 515.843 Q63.6256 513.774 63.6256 510.241 Q63.6256 505.371 60.1881 502.443 Q56.7188 499.483 50.9897 499.483 L49.6847 499.483 L49.6847 505.307 M47.2657 493.626 L67.6042 493.626 L67.6042 499.483 L62.1933 499.483 Q65.4398 501.488 66.9994 504.48 Q68.5272 507.472 68.5272 511.8 Q68.5272 517.275 65.4716 520.521 Q62.3843 523.736 57.2281 523.736 Q51.2125 523.736 48.1569 519.726 Q45.1014 515.683 45.1014 507.694 L45.1014 499.483 L44.5285 499.483 Q40.4862 499.483 38.2901 502.156 Q36.0621 504.798 36.0621 509.604 Q36.0621 512.66 36.7941 515.556 Q37.5262 518.453 38.9903 521.126 L33.5795 521.126 Q32.3381 517.911 31.7334 514.888 Q31.0968 511.864 31.0968 508.999 Q31.0968 501.265 35.1072 497.446 Q39.1176 493.626 47.2657 493.626 Z" fill="#000000" fill-rule="nonzero" fill-opacity="1" /><path clip-path="url(#clip460)" d="M33.3248 455.909 L38.7993 455.909 Q37.4307 458.392 36.7623 460.907 Q36.0621 463.389 36.0621 465.935 Q36.0621 471.633 39.6905 474.784 Q43.2872 477.935 49.812 477.935 Q56.3369 477.935 59.9653 474.784 Q63.5619 471.633 63.5619 465.935 Q63.5619 463.389 62.8935 460.907 Q62.1933 458.392 60.8247 455.909 L66.2355 455.909 Q67.3814 458.36 67.9543 461.002 Q68.5272 463.612 68.5272 466.572 Q68.5272 474.625 63.4664 479.367 Q58.4057 484.11 49.812 484.11 Q41.091 484.11 36.0939 479.335 Q31.0968 474.529 31.0968 466.19 Q31.0968 463.485 31.6697 460.907 Q32.2108 458.328 33.3248 455.909 Z" fill="#000000" fill-rule="nonzero" fill-opacity="1" /><path clip-path="url(#clip460)" d="M21.8347 439.932 L31.9562 439.932 L31.9562 427.869 L36.5077 427.869 L36.5077 439.932 L55.8594 439.932 Q60.2199 439.932 61.4613 438.754 Q62.7026 437.544 62.7026 433.884 L62.7026 427.869 L67.6042 427.869 L67.6042 433.884 Q67.6042 440.664 65.0897 443.242 Q62.5434 445.82 55.8594 445.82 L36.5077 445.82 L36.5077 450.117 L31.9562 450.117 L31.9562 445.82 L21.8347 445.82 L21.8347 439.932 Z" fill="#000000" fill-rule="nonzero" fill-opacity="1" /><path clip-path="url(#clip460)" d="M36.0621 406.352 Q36.0621 411.063 39.7542 413.8 Q43.4145 416.538 49.812 416.538 Q56.2095 416.538 59.9017 413.832 Q63.5619 411.095 63.5619 406.352 Q63.5619 401.674 59.8698 398.936 Q56.1777 396.199 49.812 396.199 Q43.4781 396.199 39.786 398.936 Q36.0621 401.674 36.0621 406.352 M31.0968 406.352 Q31.0968 398.714 36.0621 394.353 Q41.0273 389.993 49.812 389.993 Q58.5649 389.993 63.5619 394.353 Q68.5272 398.714 68.5272 406.352 Q68.5272 414.023 63.5619 418.384 Q58.5649 422.712 49.812 422.712 Q41.0273 422.712 36.0621 418.384 Q31.0968 414.023 31.0968 406.352 Z" fill="#000000" fill-rule="nonzero" fill-opacity="1" /><path clip-path="url(#clip460)" d="M37.4307 359.628 Q36.8578 360.615 36.6032 361.792 Q36.3167 362.938 36.3167 364.339 Q36.3167 369.304 39.5632 371.978 Q42.7779 374.619 48.8253 374.619 L67.6042 374.619 L67.6042 380.508 L31.9562 380.508 L31.9562 374.619 L37.4944 374.619 Q34.2479 372.773 32.6883 369.813 Q31.0968 366.853 31.0968 362.62 Q31.0968 362.015 31.1923 361.283 Q31.256 360.551 31.4151 359.66 L37.4307 359.628 Z" fill="#000000" fill-rule="nonzero" fill-opacity="1" /><polyline clip-path="url(#clip462)" style="stroke:#009af9; stroke-linecap:round; stroke-linejoin:round; stroke-width:4; stroke-opacity:1; fill:none" points="296.019,1093.12 298.33,1045.12 300.641,952.981 302.952,933.238 305.263,967.902 307.575,1004.21 309.886,1001.94 312.197,968.634 314.508,778.323 316.819,904.825 319.131,1109.49 321.442,1126.37 323.753,1101.5 326.064,1082.92 328.375,1132.89 330.687,1140.89 332.998,1138.88 335.309,1110.1 337.62,1084.86 339.931,847.945 342.243,826.743 344.554,845.173 346.865,836.697 349.176,789.387 351.487,1098.23 353.799,751.513 356.11,657.223 358.421,961.416 360.732,1018.58 363.043,1074.05 365.355,1063.34 367.666,937.896 369.977,991.187 372.288,957.854 374.599,1034.51 376.911,1097.64 379.222,1077.67 381.533,993.617 383.844,972.462 386.155,989.343 388.467,862.021 390.778,963.938 393.089,1098.65 395.4,1123.85 397.711,980.027 400.023,900.95 402.334,853.882 404.645,824.759 406.956,853.258 409.267,934.986 411.579,793.852 413.89,849.656 416.201,1012.58 418.512,1087.63 420.823,1026.42 423.135,1032.95 425.446,943.823 427.757,947.974 430.068,928.93 432.379,1069.23 434.691,1001.74 437.002,984.042 439.313,948.126 441.624,1039.16 443.935,1060.45 446.247,986.794 448.558,1021.85 450.869,1036.61 453.18,1033.25 455.491,1005.83 457.803,1054.94 460.114,1044.04 462.425,1066.55 464.736,1039.98 467.047,995.956 469.359,945.65 471.67,1056.52 473.981,1090.93 476.292,1060.73 478.603,1049 480.915,967.026 483.226,1056.51 485.537,1075.62 487.848,1130.19 490.159,1101.71 492.471,1076.19 494.782,1077.33 497.093,1057.85 499.404,1135.27 501.715,1138.69 504.027,1092.51 506.338,1115.3 508.649,1083.26 510.96,1089.5 513.271,1115.72 515.583,1072.59 517.894,1084.25 520.205,1084.99 522.516,1043.77 524.827,1091.51 527.139,1123.99 529.45,1070.45 531.761,1080.18 534.072,1082.48 536.383,1092.87 538.695,1020.32 541.006,1107.42 543.317,1138.64 545.628,1072.34 547.939,989.295 550.251,954.478 552.562,1025.19 554.873,1084.14 557.184,1125.73 559.495,1138.69 561.807,1074.94 564.118,995.262 566.429,1078.33 568.74,1042.76 571.051,1082.99 573.362,1101.63 575.674,1070.31 577.985,1031.26 580.296,1089.78 582.607,1093.67 584.918,1103.12 587.23,1084.47 589.541,1093.14 591.852,1123 594.163,1113.77 596.474,1043.54 598.786,1065.17 601.097,1074.89 603.408,973.659 605.719,1037.21 608.03,1036.45 610.342,1017.49 612.653,1085.06 614.964,1116.36 617.275,1112.39 619.586,1140.36 621.898,1090.67 624.209,1089.58 626.52,1139.27 628.831,1141.31 631.142,1110.21 633.454,1074.15 635.765,1133.48 638.076,1137.98 640.387,1134.37 642.698,1127.42 645.01,1128.3 647.321,1123.07 649.632,1141.13 651.943,1140.85 654.254,1141.01 656.566,1126.22 658.877,1089.52 661.188,1026.26 663.499,1097.67 665.81,1135.13 668.122,1138.54 670.433,1115.69 672.744,1135.34 675.055,1082.02 677.366,1119.01 679.678,1085.3 681.989,995.891 684.3,1064.35 686.611,1024.02 688.922,1093.19 691.234,1082.91 693.545,1060.85 695.856,952.061 698.167,938.915 700.478,909.407 702.79,781.92 705.101,904.311 707.412,930.584 709.723,1064.1 712.034,1132.45 714.346,1126.39 716.657,1119.56 718.968,1122.23 721.279,1131.66 723.59,1137.72 725.902,1121.39 728.213,1056.84 730.524,915.099 732.835,682.21 735.146,555.518 737.458,518.6 739.769,591.958 742.08,821.795 744.391,772.178 746.702,731.446 749.014,547.969 751.325,681.846 753.636,328.706 755.947,294.625 758.258,367.12 760.57,394.634 762.881,372.219 765.192,549.449 767.503,402.123 769.814,595.003 772.126,855.706 774.437,897.486 776.748,925.935 779.059,1004.87 781.37,1093.84 783.682,1090.59 785.993,850.14 788.304,665.371 790.615,920.254 792.926,882.305 795.238,901.699 797.549,801.659 799.86,861.833 802.171,1095.75 804.482,1060.52 806.794,1022.79 809.105,1077.37 811.416,1020.55 813.727,1057.55 816.038,1069.1 818.35,1129.52 820.661,1116.08 822.972,1023.46 825.283,1088.54 827.594,962.836 829.906,1040.34 832.217,1027.85 834.528,1042.21 836.839,1031.82 839.15,1088.97 841.462,1120.79 843.773,1109.96 846.084,1083 848.395,1100.89 850.706,1111.52 853.018,1141.23 855.329,1133.16 857.64,1141.17 859.951,1117.72 862.262,1084.28 864.574,1062.82 866.885,1111.94 869.196,1112.82 871.507,1103.24 873.818,1130.24 876.13,1141.29 878.441,1128.02 880.752,1111.33 883.063,1072.59 885.374,1011.09 887.686,1076.92 889.997,1122.56 892.308,1133.94 894.619,1141.54 896.93,1089.76 899.242,930.898 901.553,876.02 903.864,917.597 906.175,855.835 908.486,884.853 910.798,917.869 913.109,1009.71 915.42,1003.9 917.731,1028.69 920.042,1078.66 922.353,1119.76 924.665,1121.05 926.976,1126.84 929.287,1112.51 931.598,1131.12 933.909,1141.13 936.221,1053.86 938.532,1004.14 940.843,896.215 943.154,1065.62 945.465,1139.9 947.777,1119.02 950.088,1073.6 952.399,1084.01 954.71,961.345 957.021,848.277 959.333,1042.32 961.644,1095.66 963.955,1130.88 966.266,1075.51 968.577,981.624 970.889,985.214 973.2,1072.43 975.511,1086.23 977.822,1054.91 980.133,1035.11 982.445,995.842 984.756,944.104 987.067,1068.72 989.378,1080.08 991.689,1058.61 994.001,1039.93 996.312,1014.72 998.623,1019.05 1000.93,1072.73 1003.25,1126.12 1005.56,1098.46 1007.87,1100.95 1010.18,987.172 1012.49,951.426 1014.8,999.737 1017.11,993.714 1019.42,942.726 1021.74,865.481 1024.05,778.886 1026.36,909.081 1028.67,934.226 1030.98,807.423 1033.29,816.488 1035.6,933.116 1037.91,834.07 1040.22,801.705 1042.54,906.223 1044.85,927.266 1047.16,796.944 1049.47,798.604 1051.78,880.447 1054.09,1065.85 1056.4,909.686 1058.71,1065.77 1061.03,962.317 1063.34,867.996 1065.65,1021.58 1067.96,1073.18 1070.27,1101.94 1072.58,1123.94 1074.89,1084.86 1077.2,1097.73 1079.52,1114.52 1081.83,1114.26 1084.14,1106.33 1086.45,1070.23 1088.76,1058.75 1091.07,1042.96 1093.38,1044.39 1095.69,1011.37 1098,1107.74 1100.32,1040.41 1102.63,1064.98 1104.94,1091.14 1107.25,1115.86 1109.56,1141.45 1111.87,1141.38 1114.18,1139.75 1116.49,1092.41 1118.81,915.929 1121.12,886.557 1123.43,1031.58 1125.74,998.285 1128.05,690.163 1130.36,908.331 1132.67,491.766 1134.98,393.914 1137.29,390.386 1139.61,292.979 1141.92,301.012 1144.23,234.475 1146.54,259.177 1148.85,317.482 1151.16,371.009 1153.47,547.952 1155.78,754.721 1158.1,817.524 1160.41,886.216 1162.72,854.721 1165.03,808.269 1167.34,836.76 1169.65,909.163 1171.96,1014.18 1174.27,876.618 1176.59,771.357 1178.9,575.83 1181.21,469.904 1183.52,361.556 1185.83,426.885 1188.14,303.038 1190.45,365.04 1192.76,411.956 1195.07,344.392 1197.39,303.832 1199.7,294.963 1202.01,343.821 1204.32,431.145 1206.63,278.82 1208.94,327.407 1211.25,289.1 1213.56,210.182 1215.88,489.153 1218.19,256.965 1220.5,360.298 1222.81,242.565 1225.12,571.811 1227.43,407.112 1229.74,315.119 1232.05,299.242 1234.37,324.614 1236.68,497.264 1238.99,333.404 1241.3,350.75 1243.61,515.799 1245.92,556.224 1248.23,644.667 1250.54,824.367 1252.85,575.534 1255.17,651.3 1257.48,815.984 1259.79,1064.68 1262.1,1137.61 1264.41,1127.87 1266.72,1134.04 1269.03,1125.93 1271.34,1117.63 1273.66,1129.68 1275.97,1123.26 1278.28,1111.12 1280.59,1122.87 1282.9,1138.67 1285.21,1139.3 1287.52,1119.3 1289.83,1111.89 1292.15,1106.38 1294.46,1128.41 1296.77,1138.56 1299.08,1140.48 1301.39,1127.18 1303.7,1137.84 1306.01,1115.76 1308.32,1141.42 1310.63,1123.07 1312.95,1116.35 1315.26,1129.54 1317.57,1131.61 1319.88,1141.43 1322.19,1140.72 1324.5,1104.41 1326.81,1093.92 1329.12,1079.02 1331.44,1130.97 1333.75,1141.48 1336.06,1138.67 1338.37,1113.34 1340.68,1114.11 1342.99,1097.66 1345.3,1133.87 1347.61,1141.38 1349.93,1141.22 1352.24,1140.43 1354.55,1120.38 1356.86,1130.86 1359.17,1042.89 1361.48,970.719 1363.79,922.817 1366.1,907.387 1368.41,860.069 1370.73,827.177 1373.04,992.38 1375.35,1063.84 1377.66,1061.99 1379.97,1136.23 1382.28,1093.47 1384.59,996.766 1386.9,1046.16 1389.22,1078.04 1391.53,904.879 1393.84,867.581 1396.15,758.507 1398.46,635.678 1400.77,541.848 1403.08,415.069 1405.39,677.261 1407.71,519.394 1410.02,485.333 1412.33,392.712 1414.64,449.058 1416.95,471.585 1419.26,375.75 1421.57,296.032 1423.88,230.753 1426.19,327.277 1428.51,701.696 1430.82,834.745 1433.13,858.229 1435.44,978.963 1437.75,982.543 1440.06,879.35 1442.37,960.416 1444.68,1071.68 1447,1110.39 1449.31,1033.93 1451.62,905.97 1453.93,624.409 1456.24,447.128 1458.55,369.731 1460.86,377.659 1463.17,234.051 1465.49,241.292 1467.8,231.527 1470.11,247.054 1472.42,215.202 1474.73,218.425 1477.04,230.697 1479.35,193.79 1481.66,192.516 1483.97,199.239 1486.29,184.694 1488.6,183.754 1490.91,186.591 1493.22,208.173 1495.53,217.531 1497.84,201.504 1500.15,200.906 1502.46,181.177 1504.78,203.242 1507.09,207.417 1509.4,239.313 1511.71,196.42 1514.02,317.167 1516.33,297.197 1518.64,339.175 1520.95,426.005 1523.27,604.217 1525.58,535.989 1527.89,430.888 1530.2,534.935 1532.51,814.658 1534.82,950.371 1537.13,1056.34 1539.44,1085.38 1541.75,1138.9 1544.07,1139.3 1546.38,1132.26 1548.69,1114.92 1551,1102.04 1553.31,1063.58 1555.62,1116.47 1557.93,1105.98 1560.24,1117.4 1562.56,1090.48 1564.87,948.226 1567.18,951.014 1569.49,704.709 1571.8,599.45 1574.11,697.044 1576.42,681.616 1578.73,682.473 1581.05,714.018 1583.36,663.37 1585.67,552.196 1587.98,654.921 1590.29,574.466 1592.6,604.503 1594.91,778.599 1597.22,724.978 1599.53,605.334 1601.85,604.654 1604.16,786.252 1606.47,426.59 1608.78,458.448 1611.09,431.791 1613.4,293.035 1615.71,435.348 1618.02,363.648 1620.34,372.511 1622.65,423.07 1624.96,533.317 1627.27,622.102 1629.58,843.702 1631.89,907.692 1634.2,918.019 1636.51,763.49 1638.83,741.443 1641.14,917.86 1643.45,983.035 1645.76,1010.95 1648.07,1013.21 1650.38,1113.08 1652.69,1074.67 1655,987.529 1657.31,998.812 1659.63,1044.19 1661.94,1024.54 1664.25,1079.57 1666.56,1001.56 1668.87,1096.47 1671.18,1046.57 1673.49,858.422 1675.8,677.185 1678.12,507.637 1680.43,774.629 1682.74,888.102 1685.05,863.744 1687.36,918.285 1689.67,986.925 1691.98,918.982 1694.29,903.263 1696.61,1001.49 1698.92,989.061 1701.23,967.621 1703.54,1087.53 1705.85,1102.57 1708.16,1016.04 1710.47,908.39 1712.78,812.847 1715.09,986.24 1717.41,1014.09 1719.72,1036.28 1722.03,1030.54 1724.34,1043.99 1726.65,925.624 1728.96,1085.84 1731.27,911.189 1733.58,976.313 1735.9,976.385 1738.21,985.341 1740.52,825.856 1742.83,1056.56 1745.14,1053.53 1747.45,1060.17 1749.76,1053.59 1752.07,1068.26 1754.39,1129.03 1756.7,1114.32 1759.01,1103.51 1761.32,1124.14 1763.63,1135.15 1765.94,1098.87 1768.25,1094.31 1770.56,1127.72 1772.87,1133.95 1775.19,1141.19 1777.5,1137.09 1779.81,1001.97 1782.12,815.389 1784.43,664.118 1786.74,673.924 1789.05,533.807 1791.36,560.722 1793.68,525.961 1795.99,578.953 1798.3,686.133 1800.61,921.582 1802.92,934.575 1805.23,928.944 1807.54,985.763 1809.85,845.326 1812.16,703.474 1814.48,910.61 1816.79,987.985 1819.1,902.289 1821.41,775.313 1823.72,662.312 1826.03,705.856 1828.34,603.81 1830.65,482.216 1832.97,787.21 1835.28,927.518 1837.59,889.241 1839.9,664.26 1842.21,502.422 1844.52,562.877 1846.83,548.76 1849.14,641.284 1851.46,592.889 1853.77,579.662 1856.08,547.38 1858.39,593.387 1860.7,607.99 1863.01,664.794 1865.32,582.621 1867.63,676.489 1869.94,780.345 1872.26,736.032 1874.57,641.066 1876.88,811.495 1879.19,781.354 1881.5,853.332 1883.81,796.333 1886.12,928.323 1888.43,965.89 1890.75,996.803 1893.06,973.977 1895.37,780.305 1897.68,612.354 1899.99,620.272 1902.3,734.682 1904.61,681.864 1906.92,737.374 1909.24,683.106 1911.55,832.457 1913.86,1038.52 1916.17,1087.54 1918.48,1073.66 1920.79,1036.38 1923.1,1010.2 1925.41,1089.76 1927.72,1132.6 1930.04,1134.59 1932.35,1020.47 1934.66,992.784 1936.97,990.243 1939.28,1048.47 1941.59,1033.1 1943.9,1113 1946.21,1134.84 1948.53,1106.04 1950.84,1069.13 1953.15,936.581 1955.46,918.4 1957.77,1032.32 1960.08,1128.3 1962.39,1102.82 1964.7,1102.48 1967.02,1122.68 1969.33,866.867 1971.64,863.382 1973.95,739.647 1976.26,741.244 1978.57,718.677 1980.88,927.589 1983.19,1020.85 1985.5,1129.69 1987.82,1128.03 1990.13,1127.01 1992.44,1055.7 1994.75,1020.32 1997.06,995.917 1999.37,1102.35 2001.68,920.782 2003.99,775.053 2006.31,721.677 2008.62,680.936 2010.93,854.976 2013.24,771.668 "/>
<polyline clip-path="url(#clip462)" style="stroke:#e26f46; stroke-linecap:round; stroke-linejoin:round; stroke-width:4; stroke-opacity:1; fill:none" points="296.019,1141.6 298.33,1141.6 300.641,1141.6 302.952,1141.6 305.263,1141.6 307.575,1141.6 309.886,1141.6 312.197,1141.6 314.508,1018.82 316.819,577.853 319.131,347.805 321.442,212.148 323.753,139.478 326.064,119.493 328.375,134.234 330.687,235.423 332.998,411.657 335.309,673.887 337.62,1141.6 339.931,1141.6 342.243,1141.6 344.554,1141.6 346.865,1141.6 349.176,1141.6 351.487,1141.6 353.799,1141.6 356.11,1141.6 358.421,1141.6 360.732,1141.6 363.043,1141.6 365.355,1141.6 367.666,1141.6 369.977,971.223 372.288,578.149 374.599,358.482 376.911,247.835 379.222,188.095 381.533,167.882 383.844,189.304 386.155,237.491 388.467,399.562 390.778,663.098 393.089,1141.6 395.4,1141.6 397.711,1141.6 400.023,1141.6 402.334,1141.6 404.645,1141.6 406.956,1141.6 409.267,1141.6 411.579,1141.6 413.89,1141.6 416.201,1141.6 418.512,1141.6 420.823,1141.6 423.135,1141.6 425.446,943.841 427.757,543.521 430.068,334.47 432.379,213.528 434.691,140.559 437.002,113.063 439.313,100.707 441.624,226.042 443.935,394.945 446.247,673.085 448.558,1141.6 450.869,1141.6 453.18,1141.6 455.491,1141.6 457.803,1141.6 460.114,1141.6 462.425,1141.6 464.736,1141.6 467.047,1141.6 469.359,1141.6 471.67,1141.6 473.981,1141.6 476.292,1141.6 478.603,1141.6 480.915,1099 483.226,623.342 485.537,368.122 487.848,219.001 490.159,142.197 492.471,132.134 494.782,170.927 497.093,254.268 499.404,421.157 501.715,687.534 504.027,1141.6 506.338,1141.6 508.649,1141.6 510.96,1141.6 513.271,1141.6 515.583,1141.6 517.894,1141.6 520.205,1141.6 522.516,1141.6 524.827,1141.6 527.139,1141.6 529.45,1141.6 531.761,1141.6 534.072,1141.6 536.383,965.235 538.695,589.825 541.006,385.187 543.317,265.658 545.628,188.978 547.939,164.945 550.251,184.502 552.562,234.198 554.873,394.218 557.184,673.551 559.495,1141.6 561.807,1141.6 564.118,1141.6 566.429,1141.6 568.74,1141.6 571.051,1141.6 573.362,1141.6 575.674,1141.6 577.985,1141.6 580.296,1141.6 582.607,1141.6 584.918,1141.6 587.23,1141.6 589.541,1141.6 591.852,1104.67 594.163,701.03 596.474,385.169 598.786,226.876 601.097,148.206 603.408,137.441 605.719,218.808 608.03,236.847 610.342,394.368 612.653,649.875 614.964,1141.6 617.275,1141.6 619.586,1141.6 621.898,1141.6 624.209,1141.6 626.52,1141.6 628.831,1141.6 631.142,1141.6 633.454,1141.6 635.765,1141.6 638.076,1141.6 640.387,1141.6 642.698,1141.6 645.01,1141.6 647.321,984.165 649.632,578.031 651.943,356.511 654.254,231.656 656.566,157.104 658.877,131.276 661.188,149.029 663.499,229.582 665.81,389.437 668.122,656.463 670.433,1141.6 672.744,1141.6 675.055,1141.6 677.366,1141.6 679.678,1141.6 681.989,1141.6 684.3,1141.6 686.611,1141.6 688.922,1141.6 691.234,1141.6 693.545,1141.6 695.856,1141.6 698.167,1141.6 700.478,1141.6 702.79,942.908 705.101,528.047 707.412,306.551 709.723,185.472 712.034,122.09 714.346,110.938 716.657,127.352 718.968,199.336 721.279,356.463 723.59,642.066 725.902,1141.6 728.213,1141.6 730.524,1141.6 732.835,1141.6 735.146,1141.6 737.458,1141.6 739.769,1141.6 742.08,1141.6 744.391,1141.6 746.702,1141.6 749.014,1141.6 751.325,1141.6 753.636,1141.6 755.947,1141.6 758.258,968.071 760.57,559.513 762.881,315.285 765.192,178.103 767.503,97.4238 769.814,85.3462 772.126,115.717 774.437,201.594 776.748,364.487 779.059,625.4 781.37,1141.6 783.682,1141.6 785.993,1141.6 788.304,1141.6 790.615,1141.6 792.926,1141.6 795.238,1141.6 797.549,1141.6 799.86,1141.6 802.171,1141.6 804.482,1141.6 806.794,1141.6 809.105,1141.6 811.416,1141.6 813.727,1007.29 816.038,604.15 818.35,353.924 820.661,221.047 822.972,135.15 825.283,120.309 827.594,137.899 829.906,218.176 832.217,376.771 834.528,635.749 836.839,1141.6 839.15,1141.6 841.462,1141.6 843.773,1141.6 846.084,1141.6 848.395,1141.6 850.706,1141.6 853.018,1141.6 855.329,1141.6 857.64,1141.6 859.951,1141.6 862.262,1141.6 864.574,1141.6 866.885,1141.6 869.196,987.885 871.507,577.544 873.818,347.832 876.13,216.7 878.441,142.141 880.752,120.142 883.063,141.056 885.374,223.096 887.686,382.461 889.997,753.719 892.308,1141.6 894.619,1141.6 896.93,1141.6 899.242,1141.6 901.553,1141.6 903.864,1141.6 906.175,1141.6 908.486,1141.6 910.798,1141.6 913.109,1141.6 915.42,1141.6 917.731,1141.6 920.042,1141.6 922.353,1141.6 924.665,1141.6 926.976,845.681 929.287,628.011 931.598,504.758 933.909,503.505 936.221,548.077 938.532,373.227 940.843,342.363 943.154,454.442 945.465,824.875 947.777,1141.6 950.088,1141.6 952.399,1141.6 954.71,1141.6 957.021,1141.6 959.333,1141.6 961.644,1141.6 963.955,1141.6 966.266,1141.6 968.577,1141.6 970.889,1141.6 973.2,1141.6 975.511,1141.6 977.822,1141.6 980.133,1141.6 982.445,797.047 984.756,635.745 987.067,538.741 989.378,475.45 991.689,377.01 994.001,261.118 996.312,230.083 998.623,361.386 1000.93,612.315 1003.25,1141.6 1005.56,1141.6 1007.87,1141.6 1010.18,1141.6 1012.49,1141.6 1014.8,1141.6 1017.11,1141.6 1019.42,1141.6 1021.74,1141.6 1024.05,1141.6 1026.36,1141.6 1028.67,1141.6 1030.98,1141.6 1033.29,1141.6 1035.6,947.412 1037.91,567.686 1040.22,313.193 1042.54,165.313 1044.85,91.3389 1047.16,79.496 1049.47,96.155 1051.78,175.093 1054.09,336.955 1056.4,602.758 1058.71,1141.6 1061.03,1141.6 1063.34,1141.6 1065.65,1141.6 1067.96,1141.6 1070.27,1141.6 1072.58,1141.6 1074.89,1141.6 1077.2,1141.6 1079.52,1141.6 1081.83,1141.6 1084.14,1141.6 1086.45,1141.6 1088.76,1141.6 1091.07,1097.82 1093.38,880.395 1095.69,880.632 1098,666.225 1100.32,711.096 1102.63,591.067 1104.94,543.624 1107.25,536.898 1109.56,620.572 1111.87,867.531 1114.18,1141.6 1116.49,1141.6 1118.81,1141.6 1121.12,1141.6 1123.43,1141.6 1125.74,1141.6 1128.05,1141.6 1130.36,1141.6 1132.67,1141.6 1134.98,1141.6 1137.29,1141.6 1139.61,1141.6 1141.92,1141.6 1144.23,1141.6 1146.54,1141.6 1148.85,777.636 1151.16,587.885 1153.47,437.562 1155.78,265.469 1158.1,390.012 1160.41,385.747 1162.72,482.589 1165.03,608.9 1167.34,948.257 1169.65,1141.6 1171.96,1141.6 1174.27,1141.6 1176.59,1141.6 1178.9,1141.6 1181.21,1141.6 1183.52,1141.6 1185.83,1141.6 1188.14,1141.6 1190.45,1141.6 1192.76,1141.6 1195.07,1141.6 1197.39,1141.6 1199.7,1141.6 1202.01,1141.6 1204.32,918.004 1206.63,488.075 1208.94,481.434 1211.25,454.19 1213.56,555.743 1215.88,486.73 1218.19,717.702 1220.5,885.865 1222.81,1059.87 1225.12,1141.6 1227.43,1141.6 1229.74,1141.6 1232.05,1141.6 1234.37,1141.6 1236.68,1141.6 1238.99,1141.6 1241.3,1141.6 1243.61,1141.6 1245.92,1141.6 1248.23,1141.6 1250.54,1141.6 1252.85,1141.6 1255.17,1141.6 1257.48,1118.88 1259.79,574.267 1262.1,330.727 1264.41,200.303 1266.72,122.158 1269.03,98.7966 1271.34,118.133 1273.66,188.077 1275.97,336.68 1278.28,597.603 1280.59,1141.6 1282.9,1141.6 1285.21,1141.6 1287.52,1141.6 1289.83,1141.6 1292.15,1141.6 1294.46,1141.6 1296.77,1141.6 1299.08,1141.6 1301.39,1141.6 1303.7,1141.6 1306.01,1141.6 1308.32,1141.6 1310.63,1141.6 1312.95,946.947 1315.26,548.178 1317.57,312.917 1319.88,183.271 1322.19,101.698 1324.5,79.298 1326.81,83.6116 1329.12,154.963 1331.44,314.196 1333.75,576.406 1336.06,1141.6 1338.37,1141.6 1340.68,1141.6 1342.99,1141.6 1345.3,1141.6 1347.61,1141.6 1349.93,1141.6 1352.24,1141.6 1354.55,1141.6 1356.86,1141.6 1359.17,1141.6 1361.48,1141.6 1363.79,1141.6 1366.1,1141.6 1368.41,975.34 1370.73,551.484 1373.04,315.53 1375.35,183.531 1377.66,108.249 1379.97,88.8617 1382.28,94.2252 1384.59,159.456 1386.9,332.626 1389.22,622.529 1391.53,1141.6 1393.84,1141.6 1396.15,1141.6 1398.46,1141.6 1400.77,1141.6 1403.08,1141.6 1405.39,1141.6 1407.71,1141.6 1410.02,1141.6 1412.33,1141.6 1414.64,1141.6 1416.95,1141.6 1419.26,1141.6 1421.57,1141.6 1423.88,1139.02 1426.19,695.043 1428.51,305.222 1430.82,153.191 1433.13,112.623 1435.44,102.844 1437.75,107.794 1440.06,185.885 1442.37,357.73 1444.68,676.86 1447,1141.6 1449.31,1141.6 1451.62,1141.6 1453.93,1141.6 1456.24,1141.6 1458.55,1141.6 1460.86,1141.6 1463.17,1141.6 1465.49,1141.6 1467.8,1141.6 1470.11,1141.6 1472.42,1141.6 1474.73,1141.6 1477.04,1141.6 1479.35,1141.6 1481.66,1111.73 1483.97,1097.16 1486.29,1012.71 1488.6,875.507 1490.91,783.053 1493.22,652.603 1495.53,505.161 1497.84,855.37 1500.15,759.291 1502.46,1141.6 1504.78,1141.6 1507.09,1141.6 1509.4,1141.6 1511.71,1141.6 1514.02,1141.6 1516.33,1141.6 1518.64,1141.6 1520.95,1141.6 1523.27,1141.6 1525.58,1141.6 1527.89,1141.6 1530.2,1141.6 1532.51,1141.6 1534.82,1091.93 1537.13,850.682 1539.44,551.667 1541.75,342.504 1544.07,306.063 1546.38,368.032 1548.69,365.407 1551,379.948 1553.31,393.284 1555.62,584.768 1557.93,1141.6 1560.24,1141.6 1562.56,1141.6 1564.87,1141.6 1567.18,1141.6 1569.49,1141.6 1571.8,1141.6 1574.11,1141.6 1576.42,1141.6 1578.73,1141.6 1581.05,1141.6 1583.36,1141.6 1585.67,1141.6 1587.98,1141.6 1590.29,1137.9 1592.6,867.349 1594.91,494.991 1597.22,411.806 1599.53,510.297 1601.85,646.102 1604.16,948.258 1606.47,1024.34 1608.78,1100.35 1611.09,1126.58 1613.4,1141.6 1615.71,1141.6 1618.02,1141.6 1620.34,1141.6 1622.65,1141.6 1624.96,1141.6 1627.27,1141.6 1629.58,1141.6 1631.89,1141.6 1634.2,1141.6 1636.51,1141.6 1638.83,1141.6 1641.14,1141.6 1643.45,1141.6 1645.76,1125.41 1648.07,690.426 1650.38,743.176 1652.69,299.186 1655,150.488 1657.31,81.9738 1659.63,84.2933 1661.94,429.897 1664.25,594.835 1666.56,663.347 1668.87,1141.6 1671.18,1141.6 1673.49,1141.6 1675.8,1141.6 1678.12,1141.6 1680.43,1141.6 1682.74,1141.6 1685.05,1141.6 1687.36,1141.6 1689.67,1141.6 1691.98,1141.6 1694.29,1141.6 1696.61,1141.6 1698.92,1141.6 1701.23,1019.89 1703.54,544.96 1705.85,292.412 1708.16,152.413 1710.47,86.7972 1712.78,79.1184 1715.09,80.9688 1717.41,134 1719.72,289.616 1722.03,560.098 1724.34,1076.07 1726.65,1141.6 1728.96,1141.6 1731.27,1141.6 1733.58,1141.6 1735.9,1141.6 1738.21,1141.6 1740.52,1141.6 1742.83,1141.6 1745.14,1141.6 1747.45,1141.6 1749.76,1141.6 1752.07,1141.6 1754.39,1141.6 1756.7,931.144 1759.01,534.657 1761.32,293.034 1763.63,150.553 1765.94,85.6364 1768.25,83.8842 1770.56,81.6534 1772.87,136.933 1775.19,285.597 1777.5,559.134 1779.81,1018.55 1782.12,1141.6 1784.43,1141.6 1786.74,1141.6 1789.05,1141.6 1791.36,1141.6 1793.68,1141.6 1795.99,1141.6 1798.3,1141.6 1800.61,1141.6 1802.92,1141.6 1805.23,1141.6 1807.54,1141.6 1809.85,1141.6 1812.16,994.322 1814.48,603.261 1816.79,516.694 1819.1,170.742 1821.41,154.036 1823.72,157.095 1826.03,160.556 1828.34,227.139 1830.65,417.106 1832.97,551.051 1835.28,1033 1837.59,1141.6 1839.9,1141.6 1842.21,1141.6 1844.52,1141.6 1846.83,1141.6 1849.14,1141.6 1851.46,1141.6 1853.77,1141.6 1856.08,1141.6 1858.39,1141.6 1860.7,1141.6 1863.01,1141.6 1865.32,1141.6 1867.63,904.879 1869.94,503.344 1872.26,252.922 1874.57,103.843 1876.88,79.1184 1879.19,79.1184 1881.5,79.1184 1883.81,81.9799 1886.12,229.788 1888.43,497.739 1890.75,915.922 1893.06,1141.6 1895.37,1141.6 1897.68,1141.6 1899.99,1141.6 1902.3,1141.6 1904.61,1141.6 1906.92,1141.6 1909.24,1141.6 1911.55,1141.6 1913.86,1141.6 1916.17,1141.6 1918.48,1141.6 1920.79,1141.6 1923.1,893.56 1925.41,491.711 1927.72,266.276 1930.04,121.516 1932.35,79.1184 1934.66,79.1184 1936.97,79.1184 1939.28,110.657 1941.59,236.474 1943.9,578.646 1946.21,920.234 1948.53,1141.6 1950.84,1141.6 1953.15,1141.6 1955.46,1141.6 1957.77,1141.6 1960.08,1141.6 1962.39,1141.6 1964.7,1141.6 1967.02,1141.6 1969.33,1141.6 1971.64,1141.6 1973.95,1141.6 1976.26,1141.6 1978.57,917.328 1980.88,542.091 1983.19,356.751 1985.5,266.162 1987.82,220.168 1990.13,211.452 1992.44,207.143 1994.75,255.257 1997.06,379.865 1999.37,593.527 2001.68,898.639 2003.99,1141.6 2006.31,1141.6 2008.62,1141.6 2010.93,1141.6 2013.24,1141.6 "/>
<path clip-path="url(#clip460)" d="M305.177 240.305 L604.887 240.305 L604.887 84.785 L305.177 84.785  Z" fill="#ffffff" fill-rule="evenodd" fill-opacity="1"/>
<polyline clip-path="url(#clip460)" style="stroke:#000000; stroke-linecap:round; stroke-linejoin:round; stroke-width:4; stroke-opacity:1; fill:none" points="305.177,240.305 604.887,240.305 604.887,84.785 305.177,84.785 305.177,240.305 "/>
<polyline clip-path="url(#clip460)" style="stroke:#009af9; stroke-linecap:round; stroke-linejoin:round; stroke-width:4; stroke-opacity:1; fill:none" points="325.402,136.625 446.752,136.625 "/>
<path clip-path="url(#clip460)" d="M466.978 119.345 L471.7 119.345 L478.968 148.558 L486.214 119.345 L491.468 119.345 L498.737 148.558 L505.982 119.345 L510.727 119.345 L502.047 153.905 L496.167 153.905 L488.876 123.905 L481.514 153.905 L475.635 153.905 L466.978 119.345 Z" fill="#000000" fill-rule="nonzero" fill-opacity="1" /><path clip-path="url(#clip460)" d="M515.704 127.979 L519.963 127.979 L519.963 153.905 L515.704 153.905 L515.704 127.979 M515.704 117.887 L519.963 117.887 L519.963 123.28 L515.704 123.28 L515.704 117.887 Z" fill="#000000" fill-rule="nonzero" fill-opacity="1" /><path clip-path="url(#clip460)" d="M550.426 138.257 L550.426 153.905 L546.167 153.905 L546.167 138.396 Q546.167 134.715 544.732 132.887 Q543.297 131.058 540.426 131.058 Q536.977 131.058 534.986 133.257 Q532.996 135.456 532.996 139.252 L532.996 153.905 L528.713 153.905 L528.713 127.979 L532.996 127.979 L532.996 132.007 Q534.523 129.669 536.584 128.512 Q538.667 127.354 541.375 127.354 Q545.843 127.354 548.134 130.132 Q550.426 132.887 550.426 138.257 Z" fill="#000000" fill-rule="nonzero" fill-opacity="1" /><path clip-path="url(#clip460)" d="M575.982 131.914 L575.982 117.887 L580.241 117.887 L580.241 153.905 L575.982 153.905 L575.982 150.016 Q574.639 152.331 572.579 153.465 Q570.542 154.576 567.671 154.576 Q562.972 154.576 560.009 150.826 Q557.07 147.076 557.07 140.965 Q557.07 134.854 560.009 131.104 Q562.972 127.354 567.671 127.354 Q570.542 127.354 572.579 128.488 Q574.639 129.6 575.982 131.914 M561.468 140.965 Q561.468 145.664 563.389 148.349 Q565.333 151.011 568.713 151.011 Q572.093 151.011 574.037 148.349 Q575.982 145.664 575.982 140.965 Q575.982 136.266 574.037 133.604 Q572.093 130.919 568.713 130.919 Q565.333 130.919 563.389 133.604 Q561.468 136.266 561.468 140.965 Z" fill="#000000" fill-rule="nonzero" fill-opacity="1" /><polyline clip-path="url(#clip460)" style="stroke:#e26f46; stroke-linecap:round; stroke-linejoin:round; stroke-width:4; stroke-opacity:1; fill:none" points="325.402,188.465 446.752,188.465 "/>
<path clip-path="url(#clip460)" d="M489.223 172.319 L489.223 176.879 Q486.561 175.606 484.2 174.981 Q481.839 174.356 479.639 174.356 Q475.82 174.356 473.737 175.838 Q471.677 177.319 471.677 180.051 Q471.677 182.342 473.042 183.523 Q474.431 184.68 478.274 185.398 L481.098 185.977 Q486.329 186.972 488.806 189.495 Q491.306 191.995 491.306 196.208 Q491.306 201.231 487.926 203.824 Q484.57 206.416 478.065 206.416 Q475.612 206.416 472.834 205.861 Q470.079 205.305 467.116 204.217 L467.116 199.402 Q469.964 201 472.695 201.81 Q475.427 202.62 478.065 202.62 Q482.07 202.62 484.246 201.046 Q486.422 199.472 486.422 196.555 Q486.422 194.009 484.848 192.574 Q483.297 191.139 479.732 190.421 L476.885 189.865 Q471.653 188.824 469.315 186.602 Q466.978 184.379 466.978 180.421 Q466.978 175.838 470.195 173.199 Q473.436 170.56 479.107 170.56 Q481.538 170.56 484.061 171 Q486.584 171.44 489.223 172.319 Z" fill="#000000" fill-rule="nonzero" fill-opacity="1" /><path clip-path="url(#clip460)" d="M508.459 182.805 Q505.033 182.805 503.042 185.49 Q501.051 188.152 501.051 192.805 Q501.051 197.458 503.019 200.143 Q505.01 202.805 508.459 202.805 Q511.862 202.805 513.852 200.12 Q515.843 197.435 515.843 192.805 Q515.843 188.199 513.852 185.514 Q511.862 182.805 508.459 182.805 M508.459 179.194 Q514.014 179.194 517.186 182.805 Q520.357 186.416 520.357 192.805 Q520.357 199.171 517.186 202.805 Q514.014 206.416 508.459 206.416 Q502.88 206.416 499.709 202.805 Q496.561 199.171 496.561 192.805 Q496.561 186.416 499.709 182.805 Q502.88 179.194 508.459 179.194 Z" fill="#000000" fill-rule="nonzero" fill-opacity="1" /><path clip-path="url(#clip460)" d="M527.417 169.727 L531.676 169.727 L531.676 205.745 L527.417 205.745 L527.417 169.727 Z" fill="#000000" fill-rule="nonzero" fill-opacity="1" /><path clip-path="url(#clip460)" d="M552.371 192.713 Q547.209 192.713 545.218 193.893 Q543.227 195.074 543.227 197.921 Q543.227 200.189 544.709 201.532 Q546.213 202.851 548.783 202.851 Q552.324 202.851 554.454 200.351 Q556.607 197.828 556.607 193.662 L556.607 192.713 L552.371 192.713 M560.866 190.953 L560.866 205.745 L556.607 205.745 L556.607 201.81 Q555.148 204.171 552.972 205.305 Q550.797 206.416 547.648 206.416 Q543.667 206.416 541.306 204.194 Q538.968 201.949 538.968 198.199 Q538.968 193.824 541.885 191.602 Q544.824 189.379 550.634 189.379 L556.607 189.379 L556.607 188.963 Q556.607 186.023 554.662 184.426 Q552.741 182.805 549.246 182.805 Q547.023 182.805 544.917 183.338 Q542.81 183.87 540.866 184.935 L540.866 181 Q543.204 180.097 545.403 179.657 Q547.602 179.194 549.685 179.194 Q555.31 179.194 558.088 182.111 Q560.866 185.028 560.866 190.953 Z" fill="#000000" fill-rule="nonzero" fill-opacity="1" /><path clip-path="url(#clip460)" d="M584.662 183.801 Q583.944 183.384 583.088 183.199 Q582.255 182.99 581.236 182.99 Q577.625 182.99 575.681 185.352 Q573.759 187.69 573.759 192.088 L573.759 205.745 L569.477 205.745 L569.477 179.819 L573.759 179.819 L573.759 183.847 Q575.102 181.486 577.255 180.352 Q579.407 179.194 582.486 179.194 Q582.926 179.194 583.458 179.264 Q583.991 179.31 584.639 179.426 L584.662 183.801 Z" fill="#000000" fill-rule="nonzero" fill-opacity="1" /></svg>
