<?xml version="1.0" encoding="utf-8"?>
<svg xmlns="http://www.w3.org/2000/svg" xmlns:xlink="http://www.w3.org/1999/xlink" width="528" height="336" viewBox="0 0 2112 1344">
<defs>
  <clipPath id="clip400">
    <rect x="0" y="0" width="2112" height="1344"/>
  </clipPath>
</defs>
<path clip-path="url(#clip400)" d="M0 1344 L2112 1344 L2112 2.13163e-14 L0 2.13163e-14  Z" fill="#ffffff" fill-rule="evenodd" fill-opacity="1"/>
<defs>
  <clipPath id="clip401">
    <rect x="422" y="0" width="1479" height="1344"/>
  </clipPath>
</defs>
<path clip-path="url(#clip400)" d="M170.405 1173.47 L2064.76 1173.47 L2064.76 47.2441 L170.405 47.2441  Z" fill="#ffffff" fill-rule="evenodd" fill-opacity="1"/>
<defs>
  <clipPath id="clip402">
    <rect x="170" y="47" width="1895" height="1127"/>
  </clipPath>
</defs>
<polyline clip-path="url(#clip402)" style="stroke:#000000; stroke-linecap:round; stroke-linejoin:round; stroke-width:2; stroke-opacity:0.1; fill:none" points="224.019,1173.47 224.019,47.2441 "/>
<polyline clip-path="url(#clip402)" style="stroke:#000000; stroke-linecap:round; stroke-linejoin:round; stroke-width:2; stroke-opacity:0.1; fill:none" points="581.444,1173.47 581.444,47.2441 "/>
<polyline clip-path="url(#clip402)" style="stroke:#000000; stroke-linecap:round; stroke-linejoin:round; stroke-width:2; stroke-opacity:0.1; fill:none" points="938.868,1173.47 938.868,47.2441 "/>
<polyline clip-path="url(#clip402)" style="stroke:#000000; stroke-linecap:round; stroke-linejoin:round; stroke-width:2; stroke-opacity:0.1; fill:none" points="1296.29,1173.47 1296.29,47.2441 "/>
<polyline clip-path="url(#clip402)" style="stroke:#000000; stroke-linecap:round; stroke-linejoin:round; stroke-width:2; stroke-opacity:0.1; fill:none" points="1653.72,1173.47 1653.72,47.2441 "/>
<polyline clip-path="url(#clip402)" style="stroke:#000000; stroke-linecap:round; stroke-linejoin:round; stroke-width:2; stroke-opacity:0.1; fill:none" points="2011.14,1173.47 2011.14,47.2441 "/>
<polyline clip-path="url(#clip400)" style="stroke:#000000; stroke-linecap:round; stroke-linejoin:round; stroke-width:4; stroke-opacity:1; fill:none" points="170.405,1173.47 2064.76,1173.47 "/>
<polyline clip-path="url(#clip400)" style="stroke:#000000; stroke-linecap:round; stroke-linejoin:round; stroke-width:4; stroke-opacity:1; fill:none" points="224.019,1173.47 224.019,1154.57 "/>
<polyline clip-path="url(#clip400)" style="stroke:#000000; stroke-linecap:round; stroke-linejoin:round; stroke-width:4; stroke-opacity:1; fill:none" points="581.444,1173.47 581.444,1154.57 "/>
<polyline clip-path="url(#clip400)" style="stroke:#000000; stroke-linecap:round; stroke-linejoin:round; stroke-width:4; stroke-opacity:1; fill:none" points="938.868,1173.47 938.868,1154.57 "/>
<polyline clip-path="url(#clip400)" style="stroke:#000000; stroke-linecap:round; stroke-linejoin:round; stroke-width:4; stroke-opacity:1; fill:none" points="1296.29,1173.47 1296.29,1154.57 "/>
<polyline clip-path="url(#clip400)" style="stroke:#000000; stroke-linecap:round; stroke-linejoin:round; stroke-width:4; stroke-opacity:1; fill:none" points="1653.72,1173.47 1653.72,1154.57 "/>
<polyline clip-path="url(#clip400)" style="stroke:#000000; stroke-linecap:round; stroke-linejoin:round; stroke-width:4; stroke-opacity:1; fill:none" points="2011.14,1173.47 2011.14,1154.57 "/>
<path clip-path="url(#clip400)" d="M224.019 1202.09 Q220.408 1202.09 218.579 1205.65 Q216.774 1209.19 216.774 1216.32 Q216.774 1223.43 218.579 1226.99 Q220.408 1230.53 224.019 1230.53 Q227.653 1230.53 229.459 1226.99 Q231.287 1223.43 231.287 1216.32 Q231.287 1209.19 229.459 1205.65 Q227.653 1202.09 224.019 1202.09 M224.019 1198.38 Q229.829 1198.38 232.885 1202.99 Q235.963 1207.57 235.963 1216.32 Q235.963 1225.05 232.885 1229.65 Q229.829 1234.24 224.019 1234.24 Q218.209 1234.24 215.13 1229.65 Q212.075 1225.05 212.075 1216.32 Q212.075 1207.57 215.13 1202.99 Q218.209 1198.38 224.019 1198.38 Z" fill="#000000" fill-rule="nonzero" fill-opacity="1" /><path clip-path="url(#clip400)" d="M556.131 1229.63 L563.77 1229.63 L563.77 1203.27 L555.46 1204.93 L555.46 1200.67 L563.724 1199.01 L568.4 1199.01 L568.4 1229.63 L576.039 1229.63 L576.039 1233.57 L556.131 1233.57 L556.131 1229.63 Z" fill="#000000" fill-rule="nonzero" fill-opacity="1" /><path clip-path="url(#clip400)" d="M595.483 1202.09 Q591.872 1202.09 590.043 1205.65 Q588.238 1209.19 588.238 1216.32 Q588.238 1223.43 590.043 1226.99 Q591.872 1230.53 595.483 1230.53 Q599.117 1230.53 600.923 1226.99 Q602.751 1223.43 602.751 1216.32 Q602.751 1209.19 600.923 1205.65 Q599.117 1202.09 595.483 1202.09 M595.483 1198.38 Q601.293 1198.38 604.349 1202.99 Q607.427 1207.57 607.427 1216.32 Q607.427 1225.05 604.349 1229.65 Q601.293 1234.24 595.483 1234.24 Q589.673 1234.24 586.594 1229.65 Q583.538 1225.05 583.538 1216.32 Q583.538 1207.57 586.594 1202.99 Q589.673 1198.38 595.483 1198.38 Z" fill="#000000" fill-rule="nonzero" fill-opacity="1" /><path clip-path="url(#clip400)" d="M917.641 1229.63 L933.961 1229.63 L933.961 1233.57 L912.017 1233.57 L912.017 1229.63 Q914.679 1226.88 919.262 1222.25 Q923.868 1217.59 925.049 1216.25 Q927.294 1213.73 928.174 1211.99 Q929.077 1210.23 929.077 1208.54 Q929.077 1205.79 927.132 1204.05 Q925.211 1202.32 922.109 1202.32 Q919.91 1202.32 917.456 1203.08 Q915.026 1203.84 912.248 1205.4 L912.248 1200.67 Q915.072 1199.54 917.526 1198.96 Q919.979 1198.38 922.016 1198.38 Q927.387 1198.38 930.581 1201.07 Q933.776 1203.75 933.776 1208.24 Q933.776 1210.37 932.965 1212.29 Q932.178 1214.19 930.072 1216.78 Q929.493 1217.46 926.391 1220.67 Q923.29 1223.87 917.641 1229.63 Z" fill="#000000" fill-rule="nonzero" fill-opacity="1" /><path clip-path="url(#clip400)" d="M953.776 1202.09 Q950.164 1202.09 948.336 1205.65 Q946.53 1209.19 946.53 1216.32 Q946.53 1223.43 948.336 1226.99 Q950.164 1230.53 953.776 1230.53 Q957.41 1230.53 959.215 1226.99 Q961.044 1223.43 961.044 1216.32 Q961.044 1209.19 959.215 1205.65 Q957.41 1202.09 953.776 1202.09 M953.776 1198.38 Q959.586 1198.38 962.641 1202.99 Q965.72 1207.57 965.72 1216.32 Q965.72 1225.05 962.641 1229.65 Q959.586 1234.24 953.776 1234.24 Q947.965 1234.24 944.887 1229.65 Q941.831 1225.05 941.831 1216.32 Q941.831 1207.57 944.887 1202.99 Q947.965 1198.38 953.776 1198.38 Z" fill="#000000" fill-rule="nonzero" fill-opacity="1" /><path clip-path="url(#clip400)" d="M1285.14 1214.93 Q1288.49 1215.65 1290.37 1217.92 Q1292.27 1220.19 1292.27 1223.52 Q1292.27 1228.64 1288.75 1231.44 Q1285.23 1234.24 1278.75 1234.24 Q1276.57 1234.24 1274.26 1233.8 Q1271.96 1233.38 1269.51 1232.53 L1269.51 1228.01 Q1271.46 1229.15 1273.77 1229.72 Q1276.08 1230.3 1278.61 1230.3 Q1283.01 1230.3 1285.3 1228.57 Q1287.61 1226.83 1287.61 1223.52 Q1287.61 1220.46 1285.46 1218.75 Q1283.33 1217.02 1279.51 1217.02 L1275.48 1217.02 L1275.48 1213.17 L1279.7 1213.17 Q1283.14 1213.17 1284.97 1211.81 Q1286.8 1210.42 1286.8 1207.83 Q1286.8 1205.16 1284.9 1203.75 Q1283.03 1202.32 1279.51 1202.32 Q1277.59 1202.32 1275.39 1202.73 Q1273.19 1203.15 1270.55 1204.03 L1270.55 1199.86 Q1273.21 1199.12 1275.53 1198.75 Q1277.87 1198.38 1279.93 1198.38 Q1285.25 1198.38 1288.35 1200.81 Q1291.45 1203.22 1291.45 1207.34 Q1291.45 1210.21 1289.81 1212.2 Q1288.17 1214.17 1285.14 1214.93 Z" fill="#000000" fill-rule="nonzero" fill-opacity="1" /><path clip-path="url(#clip400)" d="M1311.13 1202.09 Q1307.52 1202.09 1305.69 1205.65 Q1303.89 1209.19 1303.89 1216.32 Q1303.89 1223.43 1305.69 1226.99 Q1307.52 1230.53 1311.13 1230.53 Q1314.77 1230.53 1316.57 1226.99 Q1318.4 1223.43 1318.4 1216.32 Q1318.4 1209.19 1316.57 1205.65 Q1314.77 1202.09 1311.13 1202.09 M1311.13 1198.38 Q1316.94 1198.38 1320 1202.99 Q1323.08 1207.57 1323.08 1216.32 Q1323.08 1225.05 1320 1229.65 Q1316.94 1234.24 1311.13 1234.24 Q1305.32 1234.24 1302.24 1229.65 Q1299.19 1225.05 1299.19 1216.32 Q1299.19 1207.57 1302.24 1202.99 Q1305.32 1198.38 1311.13 1198.38 Z" fill="#000000" fill-rule="nonzero" fill-opacity="1" /><path clip-path="url(#clip400)" d="M1641.89 1203.08 L1630.08 1221.53 L1641.89 1221.53 L1641.89 1203.08 M1640.66 1199.01 L1646.54 1199.01 L1646.54 1221.53 L1651.47 1221.53 L1651.47 1225.42 L1646.54 1225.42 L1646.54 1233.57 L1641.89 1233.57 L1641.89 1225.42 L1626.29 1225.42 L1626.29 1220.9 L1640.66 1199.01 Z" fill="#000000" fill-rule="nonzero" fill-opacity="1" /><path clip-path="url(#clip400)" d="M1669.2 1202.09 Q1665.59 1202.09 1663.76 1205.65 Q1661.96 1209.19 1661.96 1216.32 Q1661.96 1223.43 1663.76 1226.99 Q1665.59 1230.53 1669.2 1230.53 Q1672.84 1230.53 1674.64 1226.99 Q1676.47 1223.43 1676.47 1216.32 Q1676.47 1209.19 1674.64 1205.65 Q1672.84 1202.09 1669.2 1202.09 M1669.2 1198.38 Q1675.01 1198.38 1678.07 1202.99 Q1681.15 1207.57 1681.15 1216.32 Q1681.15 1225.05 1678.07 1229.65 Q1675.01 1234.24 1669.2 1234.24 Q1663.39 1234.24 1660.31 1229.65 Q1657.26 1225.05 1657.26 1216.32 Q1657.26 1207.57 1660.31 1202.99 Q1663.39 1198.38 1669.2 1198.38 Z" fill="#000000" fill-rule="nonzero" fill-opacity="1" /><path clip-path="url(#clip400)" d="M1985.84 1199.01 L2004.2 1199.01 L2004.2 1202.94 L1990.12 1202.94 L1990.12 1211.41 Q1991.14 1211.07 1992.16 1210.9 Q1993.18 1210.72 1994.2 1210.72 Q1999.98 1210.72 2003.36 1213.89 Q2006.74 1217.06 2006.74 1222.48 Q2006.74 1228.06 2003.27 1231.16 Q1999.8 1234.24 1993.48 1234.24 Q1991.3 1234.24 1989.04 1233.87 Q1986.79 1233.5 1984.38 1232.76 L1984.38 1228.06 Q1986.47 1229.19 1988.69 1229.75 Q1990.91 1230.3 1993.39 1230.3 Q1997.39 1230.3 1999.73 1228.2 Q2002.07 1226.09 2002.07 1222.48 Q2002.07 1218.87 1999.73 1216.76 Q1997.39 1214.65 1993.39 1214.65 Q1991.51 1214.65 1989.64 1215.07 Q1987.79 1215.49 1985.84 1216.37 L1985.84 1199.01 Z" fill="#000000" fill-rule="nonzero" fill-opacity="1" /><path clip-path="url(#clip400)" d="M2025.96 1202.09 Q2022.35 1202.09 2020.52 1205.65 Q2018.71 1209.19 2018.71 1216.32 Q2018.71 1223.43 2020.52 1226.99 Q2022.35 1230.53 2025.96 1230.53 Q2029.59 1230.53 2031.4 1226.99 Q2033.23 1223.43 2033.23 1216.32 Q2033.23 1209.19 2031.4 1205.65 Q2029.59 1202.09 2025.96 1202.09 M2025.96 1198.38 Q2031.77 1198.38 2034.82 1202.99 Q2037.9 1207.57 2037.9 1216.32 Q2037.9 1225.05 2034.82 1229.65 Q2031.77 1234.24 2025.96 1234.24 Q2020.15 1234.24 2017.07 1229.65 Q2014.01 1225.05 2014.01 1216.32 Q2014.01 1207.57 2017.07 1202.99 Q2020.15 1198.38 2025.96 1198.38 Z" fill="#000000" fill-rule="nonzero" fill-opacity="1" /><path clip-path="url(#clip400)" d="M723.177 1271.78 L723.177 1308.73 L730.943 1308.73 Q740.778 1308.73 745.33 1304.28 Q749.913 1299.82 749.913 1290.21 Q749.913 1280.66 745.33 1276.23 Q740.778 1271.78 730.943 1271.78 L723.177 1271.78 M716.748 1266.49 L729.957 1266.49 Q743.77 1266.49 750.232 1272.26 Q756.693 1277.98 756.693 1290.21 Q756.693 1302.49 750.2 1308.25 Q743.707 1314.01 729.957 1314.01 L716.748 1314.01 L716.748 1266.49 Z" fill="#000000" fill-rule="nonzero" fill-opacity="1" /><path clip-path="url(#clip400)" d="M766.687 1278.37 L772.543 1278.37 L772.543 1314.01 L766.687 1314.01 L766.687 1278.37 M766.687 1264.49 L772.543 1264.49 L772.543 1271.91 L766.687 1271.91 L766.687 1264.49 Z" fill="#000000" fill-rule="nonzero" fill-opacity="1" /><path clip-path="url(#clip400)" d="M807.523 1279.42 L807.523 1284.96 Q805.04 1283.68 802.367 1283.05 Q799.693 1282.41 796.829 1282.41 Q792.468 1282.41 790.272 1283.75 Q788.107 1285.08 788.107 1287.76 Q788.107 1289.79 789.667 1290.97 Q791.227 1292.12 795.937 1293.17 L797.943 1293.61 Q804.181 1294.95 806.791 1297.4 Q809.433 1299.82 809.433 1304.18 Q809.433 1309.14 805.486 1312.04 Q801.571 1314.94 794.696 1314.94 Q791.831 1314.94 788.712 1314.36 Q785.625 1313.82 782.187 1312.71 L782.187 1306.66 Q785.434 1308.35 788.585 1309.21 Q791.736 1310.04 794.823 1310.04 Q798.961 1310.04 801.189 1308.64 Q803.417 1307.2 803.417 1304.63 Q803.417 1302.24 801.794 1300.97 Q800.202 1299.69 794.76 1298.51 L792.723 1298.04 Q787.28 1296.89 784.861 1294.54 Q782.442 1292.15 782.442 1288.01 Q782.442 1282.98 786.007 1280.24 Q789.572 1277.51 796.128 1277.51 Q799.375 1277.51 802.239 1277.98 Q805.104 1278.46 807.523 1279.42 Z" fill="#000000" fill-rule="nonzero" fill-opacity="1" /><path clip-path="url(#clip400)" d="M824.551 1268.25 L824.551 1278.37 L836.614 1278.37 L836.614 1282.92 L824.551 1282.92 L824.551 1302.27 Q824.551 1306.63 825.729 1307.87 Q826.938 1309.11 830.599 1309.11 L836.614 1309.11 L836.614 1314.01 L830.599 1314.01 Q823.819 1314.01 821.241 1311.5 Q818.663 1308.95 818.663 1302.27 L818.663 1282.92 L814.366 1282.92 L814.366 1278.37 L818.663 1278.37 L818.663 1268.25 L824.551 1268.25 Z" fill="#000000" fill-rule="nonzero" fill-opacity="1" /><path clip-path="url(#clip400)" d="M860.517 1296.1 Q853.42 1296.1 850.682 1297.72 Q847.945 1299.34 847.945 1303.26 Q847.945 1306.38 849.982 1308.22 Q852.051 1310.04 855.584 1310.04 Q860.454 1310.04 863.382 1306.6 Q866.342 1303.13 866.342 1297.4 L866.342 1296.1 L860.517 1296.1 M872.198 1293.68 L872.198 1314.01 L866.342 1314.01 L866.342 1308.6 Q864.337 1311.85 861.345 1313.41 Q858.353 1314.94 854.024 1314.94 Q848.55 1314.94 845.303 1311.88 Q842.089 1308.79 842.089 1303.64 Q842.089 1297.62 846.099 1294.57 Q850.141 1291.51 858.13 1291.51 L866.342 1291.51 L866.342 1290.94 Q866.342 1286.9 863.668 1284.7 Q861.027 1282.47 856.221 1282.47 Q853.165 1282.47 850.269 1283.2 Q847.372 1283.94 844.699 1285.4 L844.699 1279.99 Q847.913 1278.75 850.937 1278.14 Q853.961 1277.51 856.825 1277.51 Q864.56 1277.51 868.379 1281.52 Q872.198 1285.53 872.198 1293.68 Z" fill="#000000" fill-rule="nonzero" fill-opacity="1" /><path clip-path="url(#clip400)" d="M913.894 1292.5 L913.894 1314.01 L908.037 1314.01 L908.037 1292.69 Q908.037 1287.63 906.064 1285.11 Q904.091 1282.6 900.144 1282.6 Q895.401 1282.6 892.664 1285.62 Q889.927 1288.65 889.927 1293.87 L889.927 1314.01 L884.039 1314.01 L884.039 1278.37 L889.927 1278.37 L889.927 1283.9 Q892.028 1280.69 894.86 1279.1 Q897.725 1277.51 901.449 1277.51 Q907.592 1277.51 910.743 1281.33 Q913.894 1285.11 913.894 1292.5 Z" fill="#000000" fill-rule="nonzero" fill-opacity="1" /><path clip-path="url(#clip400)" d="M951.229 1279.74 L951.229 1285.21 Q948.746 1283.84 946.232 1283.17 Q943.749 1282.47 941.203 1282.47 Q935.505 1282.47 932.354 1286.1 Q929.203 1289.7 929.203 1296.22 Q929.203 1302.75 932.354 1306.38 Q935.505 1309.97 941.203 1309.97 Q943.749 1309.97 946.232 1309.3 Q948.746 1308.6 951.229 1307.24 L951.229 1312.65 Q948.778 1313.79 946.136 1314.36 Q943.526 1314.94 940.566 1314.94 Q932.514 1314.94 927.771 1309.88 Q923.029 1304.82 923.029 1296.22 Q923.029 1287.5 927.803 1282.5 Q932.609 1277.51 940.948 1277.51 Q943.654 1277.51 946.232 1278.08 Q948.81 1278.62 951.229 1279.74 Z" fill="#000000" fill-rule="nonzero" fill-opacity="1" /><path clip-path="url(#clip400)" d="M991.906 1294.73 L991.906 1297.59 L964.979 1297.59 Q965.361 1303.64 968.607 1306.82 Q971.885 1309.97 977.71 1309.97 Q981.084 1309.97 984.235 1309.14 Q987.418 1308.32 990.537 1306.66 L990.537 1312.2 Q987.386 1313.54 984.076 1314.24 Q980.766 1314.94 977.36 1314.94 Q968.83 1314.94 963.833 1309.97 Q958.868 1305.01 958.868 1296.54 Q958.868 1287.79 963.578 1282.66 Q968.321 1277.51 976.341 1277.51 Q983.535 1277.51 987.704 1282.15 Q991.906 1286.77 991.906 1294.73 M986.049 1293.01 Q985.985 1288.2 983.344 1285.34 Q980.734 1282.47 976.405 1282.47 Q971.504 1282.47 968.543 1285.24 Q965.615 1288.01 965.17 1293.04 L986.049 1293.01 Z" fill="#000000" fill-rule="nonzero" fill-opacity="1" /><path clip-path="url(#clip400)" d="M1028.92 1271.78 L1028.92 1308.73 L1036.69 1308.73 Q1046.52 1308.73 1051.07 1304.28 Q1055.66 1299.82 1055.66 1290.21 Q1055.66 1280.66 1051.07 1276.23 Q1046.52 1271.78 1036.69 1271.78 L1028.92 1271.78 M1022.49 1266.49 L1035.7 1266.49 Q1049.52 1266.49 1055.98 1272.26 Q1062.44 1277.98 1062.44 1290.21 Q1062.44 1302.49 1055.94 1308.25 Q1049.45 1314.01 1035.7 1314.01 L1022.49 1314.01 L1022.49 1266.49 Z" fill="#000000" fill-rule="nonzero" fill-opacity="1" /><path clip-path="url(#clip400)" d="M1086.25 1282.47 Q1081.53 1282.47 1078.8 1286.16 Q1076.06 1289.83 1076.06 1296.22 Q1076.06 1302.62 1078.77 1306.31 Q1081.5 1309.97 1086.25 1309.97 Q1090.92 1309.97 1093.66 1306.28 Q1096.4 1302.59 1096.4 1296.22 Q1096.4 1289.89 1093.66 1286.2 Q1090.92 1282.47 1086.25 1282.47 M1086.25 1277.51 Q1093.88 1277.51 1098.24 1282.47 Q1102.61 1287.44 1102.61 1296.22 Q1102.61 1304.98 1098.24 1309.97 Q1093.88 1314.94 1086.25 1314.94 Q1078.57 1314.94 1074.21 1309.97 Q1069.89 1304.98 1069.89 1296.22 Q1069.89 1287.44 1074.21 1282.47 Q1078.57 1277.51 1086.25 1277.51 Z" fill="#000000" fill-rule="nonzero" fill-opacity="1" /><path clip-path="url(#clip400)" d="M1108.91 1278.37 L1114.76 1278.37 L1122.08 1306.18 L1129.37 1278.37 L1136.28 1278.37 L1143.6 1306.18 L1150.89 1278.37 L1156.75 1278.37 L1147.42 1314.01 L1140.51 1314.01 L1132.84 1284.8 L1125.14 1314.01 L1118.23 1314.01 L1108.91 1278.37 Z" fill="#000000" fill-rule="nonzero" fill-opacity="1" /><path clip-path="url(#clip400)" d="M1195.26 1292.5 L1195.26 1314.01 L1189.4 1314.01 L1189.4 1292.69 Q1189.4 1287.63 1187.43 1285.11 Q1185.45 1282.6 1181.51 1282.6 Q1176.77 1282.6 1174.03 1285.62 Q1171.29 1288.65 1171.29 1293.87 L1171.29 1314.01 L1165.4 1314.01 L1165.4 1278.37 L1171.29 1278.37 L1171.29 1283.9 Q1173.39 1280.69 1176.22 1279.1 Q1179.09 1277.51 1182.81 1277.51 Q1188.96 1277.51 1192.11 1281.33 Q1195.26 1285.11 1195.26 1292.5 Z" fill="#000000" fill-rule="nonzero" fill-opacity="1" /><path clip-path="url(#clip400)" d="M1227.6 1283.84 Q1226.61 1283.27 1225.43 1283.01 Q1224.29 1282.73 1222.89 1282.73 Q1217.92 1282.73 1215.25 1285.97 Q1212.6 1289.19 1212.6 1295.24 L1212.6 1314.01 L1206.72 1314.01 L1206.72 1278.37 L1212.6 1278.37 L1212.6 1283.9 Q1214.45 1280.66 1217.41 1279.1 Q1220.37 1277.51 1224.6 1277.51 Q1225.21 1277.51 1225.94 1277.6 Q1226.67 1277.67 1227.56 1277.83 L1227.6 1283.84 Z" fill="#000000" fill-rule="nonzero" fill-opacity="1" /><path clip-path="url(#clip400)" d="M1233.74 1278.37 L1239.6 1278.37 L1239.6 1314.01 L1233.74 1314.01 L1233.74 1278.37 M1233.74 1264.49 L1239.6 1264.49 L1239.6 1271.91 L1233.74 1271.91 L1233.74 1264.49 Z" fill="#000000" fill-rule="nonzero" fill-opacity="1" /><path clip-path="url(#clip400)" d="M1247.65 1278.37 L1253.85 1278.37 L1264.99 1308.29 L1276.13 1278.37 L1282.34 1278.37 L1268.97 1314.01 L1261.02 1314.01 L1247.65 1278.37 Z" fill="#000000" fill-rule="nonzero" fill-opacity="1" /><path clip-path="url(#clip400)" d="M1320.92 1294.73 L1320.92 1297.59 L1293.99 1297.59 Q1294.37 1303.64 1297.62 1306.82 Q1300.9 1309.97 1306.72 1309.97 Q1310.1 1309.97 1313.25 1309.14 Q1316.43 1308.32 1319.55 1306.66 L1319.55 1312.2 Q1316.4 1313.54 1313.09 1314.24 Q1309.78 1314.94 1306.37 1314.94 Q1297.84 1314.94 1292.84 1309.97 Q1287.88 1305.01 1287.88 1296.54 Q1287.88 1287.79 1292.59 1282.66 Q1297.33 1277.51 1305.35 1277.51 Q1312.55 1277.51 1316.72 1282.15 Q1320.92 1286.77 1320.92 1294.73 M1315.06 1293.01 Q1315 1288.2 1312.36 1285.34 Q1309.75 1282.47 1305.42 1282.47 Q1300.52 1282.47 1297.55 1285.24 Q1294.63 1288.01 1294.18 1293.04 L1315.06 1293.01 Z" fill="#000000" fill-rule="nonzero" fill-opacity="1" /><path clip-path="url(#clip400)" d="M1351.19 1283.84 Q1350.2 1283.27 1349.02 1283.01 Q1347.88 1282.73 1346.48 1282.73 Q1341.51 1282.73 1338.84 1285.97 Q1336.19 1289.19 1336.19 1295.24 L1336.19 1314.01 L1330.31 1314.01 L1330.31 1278.37 L1336.19 1278.37 L1336.19 1283.9 Q1338.04 1280.66 1341 1279.1 Q1343.96 1277.51 1348.19 1277.51 Q1348.8 1277.51 1349.53 1277.6 Q1350.26 1277.67 1351.15 1277.83 L1351.19 1283.84 Z" fill="#000000" fill-rule="nonzero" fill-opacity="1" /><path clip-path="url(#clip400)" d="M1392.12 1264.55 Q1387.85 1271.87 1385.78 1279.04 Q1383.71 1286.2 1383.71 1293.55 Q1383.71 1300.9 1385.78 1308.13 Q1387.88 1315.32 1392.12 1322.61 L1387.03 1322.61 Q1382.25 1315.13 1379.86 1307.9 Q1377.51 1300.68 1377.51 1293.55 Q1377.51 1286.45 1379.86 1279.26 Q1382.22 1272.06 1387.03 1264.55 L1392.12 1264.55 Z" fill="#000000" fill-rule="nonzero" fill-opacity="1" /><path clip-path="url(#clip400)" d="M1403.26 1264.49 L1409.15 1264.49 L1409.15 1293.74 L1426.62 1278.37 L1434.1 1278.37 L1415.19 1295.04 L1434.9 1314.01 L1427.26 1314.01 L1409.15 1296.6 L1409.15 1314.01 L1403.26 1314.01 L1403.26 1264.49 Z" fill="#000000" fill-rule="nonzero" fill-opacity="1" /><path clip-path="url(#clip400)" d="M1468.98 1285.21 Q1471.18 1281.26 1474.24 1279.39 Q1477.29 1277.51 1481.43 1277.51 Q1487 1277.51 1490.02 1281.42 Q1493.05 1285.31 1493.05 1292.5 L1493.05 1314.01 L1487.16 1314.01 L1487.16 1292.69 Q1487.16 1287.57 1485.34 1285.08 Q1483.53 1282.6 1479.81 1282.6 Q1475.25 1282.6 1472.61 1285.62 Q1469.97 1288.65 1469.97 1293.87 L1469.97 1314.01 L1464.08 1314.01 L1464.08 1292.69 Q1464.08 1287.53 1462.27 1285.08 Q1460.45 1282.6 1456.67 1282.6 Q1452.18 1282.6 1449.54 1285.66 Q1446.89 1288.68 1446.89 1293.87 L1446.89 1314.01 L1441.01 1314.01 L1441.01 1278.37 L1446.89 1278.37 L1446.89 1283.9 Q1448.9 1280.63 1451.7 1279.07 Q1454.5 1277.51 1458.35 1277.51 Q1462.24 1277.51 1464.94 1279.48 Q1467.68 1281.45 1468.98 1285.21 Z" fill="#000000" fill-rule="nonzero" fill-opacity="1" /><path clip-path="url(#clip400)" d="M1503.8 1264.55 L1508.9 1264.55 Q1513.67 1272.06 1516.03 1279.26 Q1518.41 1286.45 1518.41 1293.55 Q1518.41 1300.68 1516.03 1307.9 Q1513.67 1315.13 1508.9 1322.61 L1503.8 1322.61 Q1508.04 1315.32 1510.11 1308.13 Q1512.21 1300.9 1512.21 1293.55 Q1512.21 1286.2 1510.11 1279.04 Q1508.04 1271.87 1503.8 1264.55 Z" fill="#000000" fill-rule="nonzero" fill-opacity="1" /><polyline clip-path="url(#clip402)" style="stroke:#000000; stroke-linecap:round; stroke-linejoin:round; stroke-width:2; stroke-opacity:0.1; fill:none" points="170.405,1093.08 2064.76,1093.08 "/>
<polyline clip-path="url(#clip402)" style="stroke:#000000; stroke-linecap:round; stroke-linejoin:round; stroke-width:2; stroke-opacity:0.1; fill:none" points="170.405,785.425 2064.76,785.425 "/>
<polyline clip-path="url(#clip402)" style="stroke:#000000; stroke-linecap:round; stroke-linejoin:round; stroke-width:2; stroke-opacity:0.1; fill:none" points="170.405,477.764 2064.76,477.764 "/>
<polyline clip-path="url(#clip402)" style="stroke:#000000; stroke-linecap:round; stroke-linejoin:round; stroke-width:2; stroke-opacity:0.1; fill:none" points="170.405,170.104 2064.76,170.104 "/>
<polyline clip-path="url(#clip400)" style="stroke:#000000; stroke-linecap:round; stroke-linejoin:round; stroke-width:4; stroke-opacity:1; fill:none" points="170.405,1173.47 170.405,47.2441 "/>
<polyline clip-path="url(#clip400)" style="stroke:#000000; stroke-linecap:round; stroke-linejoin:round; stroke-width:4; stroke-opacity:1; fill:none" points="170.405,1093.08 189.303,1093.08 "/>
<polyline clip-path="url(#clip400)" style="stroke:#000000; stroke-linecap:round; stroke-linejoin:round; stroke-width:4; stroke-opacity:1; fill:none" points="170.405,785.425 189.303,785.425 "/>
<polyline clip-path="url(#clip400)" style="stroke:#000000; stroke-linecap:round; stroke-linejoin:round; stroke-width:4; stroke-opacity:1; fill:none" points="170.405,477.764 189.303,477.764 "/>
<polyline clip-path="url(#clip400)" style="stroke:#000000; stroke-linecap:round; stroke-linejoin:round; stroke-width:4; stroke-opacity:1; fill:none" points="170.405,170.104 189.303,170.104 "/>
<path clip-path="url(#clip400)" d="M129.142 1079.88 L117.336 1098.33 L129.142 1098.33 L129.142 1079.88 M127.915 1075.8 L133.795 1075.8 L133.795 1098.33 L138.725 1098.33 L138.725 1102.22 L133.795 1102.22 L133.795 1110.36 L129.142 1110.36 L129.142 1102.22 L113.54 1102.22 L113.54 1097.7 L127.915 1075.8 Z" fill="#000000" fill-rule="nonzero" fill-opacity="1" /><path clip-path="url(#clip400)" d="M117.823 768.145 L136.179 768.145 L136.179 772.08 L122.105 772.08 L122.105 780.552 Q123.123 780.205 124.142 780.043 Q125.16 779.857 126.179 779.857 Q131.966 779.857 135.346 783.029 Q138.725 786.2 138.725 791.617 Q138.725 797.195 135.253 800.297 Q131.781 803.376 125.461 803.376 Q123.285 803.376 121.017 803.005 Q118.772 802.635 116.364 801.894 L116.364 797.195 Q118.448 798.33 120.67 798.885 Q122.892 799.441 125.369 799.441 Q129.373 799.441 131.711 797.334 Q134.049 795.228 134.049 791.617 Q134.049 788.006 131.711 785.899 Q129.373 783.793 125.369 783.793 Q123.494 783.793 121.619 784.209 Q119.767 784.626 117.823 785.506 L117.823 768.145 Z" fill="#000000" fill-rule="nonzero" fill-opacity="1" /><path clip-path="url(#clip400)" d="M127.197 475.901 Q124.049 475.901 122.198 478.054 Q120.369 480.206 120.369 483.956 Q120.369 487.683 122.198 489.859 Q124.049 492.012 127.197 492.012 Q130.346 492.012 132.174 489.859 Q134.026 487.683 134.026 483.956 Q134.026 480.206 132.174 478.054 Q130.346 475.901 127.197 475.901 M136.48 461.248 L136.48 465.507 Q134.721 464.674 132.915 464.234 Q131.133 463.794 129.373 463.794 Q124.744 463.794 122.29 466.919 Q119.86 470.044 119.512 476.364 Q120.878 474.35 122.938 473.285 Q124.998 472.197 127.475 472.197 Q132.684 472.197 135.693 475.368 Q138.725 478.517 138.725 483.956 Q138.725 489.28 135.577 492.498 Q132.429 495.715 127.197 495.715 Q121.202 495.715 118.031 491.132 Q114.86 486.526 114.86 477.799 Q114.86 469.605 118.748 464.743 Q122.637 459.859 129.188 459.859 Q130.947 459.859 132.73 460.206 Q134.535 460.554 136.48 461.248 Z" fill="#000000" fill-rule="nonzero" fill-opacity="1" /><path clip-path="url(#clip400)" d="M116.503 152.824 L138.725 152.824 L138.725 154.815 L126.179 187.384 L121.295 187.384 L133.1 156.759 L116.503 156.759 L116.503 152.824 Z" fill="#000000" fill-rule="nonzero" fill-opacity="1" /><path clip-path="url(#clip400)" d="M25.3677 1249.35 L62.3206 1249.35 L62.3206 1241.58 Q62.3206 1231.75 57.8646 1227.19 Q53.4086 1222.61 43.7964 1222.61 Q34.2479 1222.61 29.8237 1227.19 Q25.3677 1231.75 25.3677 1241.58 L25.3677 1249.35 M20.0842 1255.78 L20.0842 1242.57 Q20.0842 1228.75 25.8451 1222.29 Q31.5743 1215.83 43.7964 1215.83 Q56.0822 1215.83 61.8432 1222.32 Q67.6042 1228.82 67.6042 1242.57 L67.6042 1255.78 L20.0842 1255.78 Z" fill="#000000" fill-rule="nonzero" fill-opacity="1" /><path clip-path="url(#clip400)" d="M31.9562 1205.84 L31.9562 1199.98 L67.6042 1199.98 L67.6042 1205.84 L31.9562 1205.84 M18.079 1205.84 L18.079 1199.98 L25.495 1199.98 L25.495 1205.84 L18.079 1205.84 Z" fill="#000000" fill-rule="nonzero" fill-opacity="1" /><path clip-path="url(#clip400)" d="M33.0065 1165 L38.5447 1165 Q37.2716 1167.48 36.635 1170.16 Q35.9984 1172.83 35.9984 1175.7 Q35.9984 1180.06 37.3352 1182.25 Q38.672 1184.42 41.3456 1184.42 Q43.3826 1184.42 44.5603 1182.86 Q45.7061 1181.3 46.7565 1176.59 L47.2021 1174.58 Q48.5389 1168.34 50.9897 1165.73 Q53.4086 1163.09 57.7691 1163.09 Q62.7344 1163.09 65.6308 1167.04 Q68.5272 1170.95 68.5272 1177.83 Q68.5272 1180.69 67.9543 1183.81 Q67.4132 1186.9 66.2992 1190.34 L60.2518 1190.34 Q61.9387 1187.09 62.798 1183.94 Q63.6256 1180.79 63.6256 1177.7 Q63.6256 1173.56 62.2251 1171.34 Q60.7929 1169.11 58.2147 1169.11 Q55.8276 1169.11 54.5545 1170.73 Q53.2813 1172.32 52.1037 1177.76 L51.6262 1179.8 Q50.4804 1185.24 48.1251 1187.66 Q45.738 1190.08 41.6002 1190.08 Q36.5713 1190.08 33.8341 1186.52 Q31.0968 1182.95 31.0968 1176.4 Q31.0968 1173.15 31.5743 1170.28 Q32.0517 1167.42 33.0065 1165 Z" fill="#000000" fill-rule="nonzero" fill-opacity="1" /><path clip-path="url(#clip400)" d="M33.0065 1131.04 L38.5447 1131.04 Q37.2716 1133.52 36.635 1136.2 Q35.9984 1138.87 35.9984 1141.73 Q35.9984 1146.1 37.3352 1148.29 Q38.672 1150.46 41.3456 1150.46 Q43.3826 1150.46 44.5603 1148.9 Q45.7061 1147.34 46.7565 1142.63 L47.2021 1140.62 Q48.5389 1134.38 50.9897 1131.77 Q53.4086 1129.13 57.7691 1129.13 Q62.7344 1129.13 65.6308 1133.08 Q68.5272 1136.99 68.5272 1143.87 Q68.5272 1146.73 67.9543 1149.85 Q67.4132 1152.94 66.2992 1156.38 L60.2518 1156.38 Q61.9387 1153.13 62.798 1149.98 Q63.6256 1146.83 63.6256 1143.74 Q63.6256 1139.6 62.2251 1137.37 Q60.7929 1135.15 58.2147 1135.15 Q55.8276 1135.15 54.5545 1136.77 Q53.2813 1138.36 52.1037 1143.8 L51.6262 1145.84 Q50.4804 1151.28 48.1251 1153.7 Q45.738 1156.12 41.6002 1156.12 Q36.5713 1156.12 33.8341 1152.56 Q31.0968 1148.99 31.0968 1142.44 Q31.0968 1139.19 31.5743 1136.32 Q32.0517 1133.46 33.0065 1131.04 Z" fill="#000000" fill-rule="nonzero" fill-opacity="1" /><path clip-path="url(#clip400)" d="M36.0621 1105.99 Q36.0621 1110.7 39.7542 1113.44 Q43.4145 1116.18 49.812 1116.18 Q56.2095 1116.18 59.9017 1113.47 Q63.5619 1110.73 63.5619 1105.99 Q63.5619 1101.31 59.8698 1098.58 Q56.1777 1095.84 49.812 1095.84 Q43.4781 1095.84 39.786 1098.58 Q36.0621 1101.31 36.0621 1105.99 M31.0968 1105.99 Q31.0968 1098.35 36.0621 1093.99 Q41.0273 1089.63 49.812 1089.63 Q58.5649 1089.63 63.5619 1093.99 Q68.5272 1098.35 68.5272 1105.99 Q68.5272 1113.66 63.5619 1118.02 Q58.5649 1122.35 49.812 1122.35 Q41.0273 1122.35 36.0621 1118.02 Q31.0968 1113.66 31.0968 1105.99 Z" fill="#000000" fill-rule="nonzero" fill-opacity="1" /><path clip-path="url(#clip400)" d="M18.079 1079.92 L18.079 1074.07 L67.6042 1074.07 L67.6042 1079.92 L18.079 1079.92 Z" fill="#000000" fill-rule="nonzero" fill-opacity="1" /><path clip-path="url(#clip400)" d="M31.9562 1066.01 L31.9562 1059.81 L61.875 1048.67 L31.9562 1037.53 L31.9562 1031.32 L67.6042 1044.69 L67.6042 1052.65 L31.9562 1066.01 Z" fill="#000000" fill-rule="nonzero" fill-opacity="1" /><path clip-path="url(#clip400)" d="M48.3161 992.745 L51.1806 992.745 L51.1806 1019.67 Q57.2281 1019.29 60.4109 1016.04 Q63.5619 1012.77 63.5619 1006.94 Q63.5619 1003.57 62.7344 1000.42 Q61.9069 997.233 60.2518 994.114 L65.7899 994.114 Q67.1267 997.265 67.827 1000.58 Q68.5272 1003.89 68.5272 1007.29 Q68.5272 1015.82 63.5619 1020.82 Q58.5967 1025.78 50.1303 1025.78 Q41.3774 1025.78 36.2531 1021.07 Q31.0968 1016.33 31.0968 1008.31 Q31.0968 1001.12 35.7438 996.947 Q40.3589 992.745 48.3161 992.745 M46.5973 998.602 Q41.7912 998.666 38.9266 1001.31 Q36.0621 1003.92 36.0621 1008.25 Q36.0621 1013.15 38.8312 1016.11 Q41.6002 1019.04 46.6292 1019.48 L46.5973 998.602 Z" fill="#000000" fill-rule="nonzero" fill-opacity="1" /><path clip-path="url(#clip400)" d="M37.3671 959.676 L18.079 959.676 L18.079 953.819 L67.6042 953.819 L67.6042 959.676 L62.257 959.676 Q65.4398 961.522 66.9994 964.354 Q68.5272 967.155 68.5272 971.102 Q68.5272 977.563 63.371 981.637 Q58.2147 985.679 49.812 985.679 Q41.4093 985.679 36.2531 981.637 Q31.0968 977.563 31.0968 971.102 Q31.0968 967.155 32.6564 964.354 Q34.1842 961.522 37.3671 959.676 M49.812 979.632 Q56.2732 979.632 59.9653 976.99 Q63.6256 974.317 63.6256 969.67 Q63.6256 965.023 59.9653 962.349 Q56.2732 959.676 49.812 959.676 Q43.3508 959.676 39.6905 962.349 Q35.9984 965.023 35.9984 969.67 Q35.9984 974.317 39.6905 976.99 Q43.3508 979.632 49.812 979.632 Z" fill="#000000" fill-rule="nonzero" fill-opacity="1" /><path clip-path="url(#clip400)" d="M24.4447 901.493 Q24.4447 908.495 29.6645 912.633 Q34.8844 916.739 43.8919 916.739 Q52.8675 916.739 58.0874 912.633 Q63.3073 908.495 63.3073 901.493 Q63.3073 894.491 58.0874 890.417 Q52.8675 886.311 43.8919 886.311 Q34.8844 886.311 29.6645 890.417 Q24.4447 894.491 24.4447 901.493 M19.2248 901.493 Q19.2248 891.499 25.9406 885.515 Q32.6246 879.531 43.8919 879.531 Q55.1274 879.531 61.8432 885.515 Q68.5272 891.499 68.5272 901.493 Q68.5272 911.519 61.8432 917.535 Q55.1592 923.518 43.8919 923.518 Q32.6246 923.518 25.9406 917.535 Q19.2248 911.519 19.2248 901.493 Z" fill="#000000" fill-rule="nonzero" fill-opacity="1" /><path clip-path="url(#clip400)" d="M31.9562 840.096 L49.3028 852.986 L67.6042 839.427 L67.6042 846.334 L53.5996 856.71 L67.6042 867.086 L67.6042 873.993 L48.9526 860.148 L31.9562 872.816 L31.9562 865.909 L44.6558 856.456 L31.9562 847.003 L31.9562 840.096 Z" fill="#000000" fill-rule="nonzero" fill-opacity="1" /><path clip-path="url(#clip400)" d="M70.9143 816.32 Q77.28 818.802 79.2216 821.158 Q81.1631 823.513 81.1631 827.46 L81.1631 832.139 L76.2615 832.139 L76.2615 828.701 Q76.2615 826.282 75.1157 824.945 Q73.9699 823.609 69.7048 821.985 L67.0312 820.935 L31.9562 835.353 L31.9562 829.147 L59.838 818.007 L31.9562 806.867 L31.9562 800.66 L70.9143 816.32 Z" fill="#000000" fill-rule="nonzero" fill-opacity="1" /><path clip-path="url(#clip400)" d="M49.3664 769.118 Q43.0007 769.118 39.4996 771.76 Q35.9984 774.37 35.9984 779.112 Q35.9984 783.823 39.4996 786.465 Q43.0007 789.075 49.3664 789.075 Q55.7003 789.075 59.2014 786.465 Q62.7026 783.823 62.7026 779.112 Q62.7026 774.37 59.2014 771.76 Q55.7003 769.118 49.3664 769.118 M63.18 763.262 Q72.283 763.262 76.7071 767.304 Q81.1631 771.346 81.1631 779.685 Q81.1631 782.773 80.6857 785.51 Q80.2401 788.247 79.2852 790.825 L73.5879 790.825 Q74.9884 788.247 75.6568 785.733 Q76.3252 783.218 76.3252 780.608 Q76.3252 774.847 73.3015 771.983 Q70.3096 769.118 64.2303 769.118 L61.3339 769.118 Q64.485 770.932 66.0446 773.765 Q67.6042 776.598 67.6042 780.545 Q67.6042 787.101 62.6071 791.112 Q57.61 795.122 49.3664 795.122 Q41.091 795.122 36.0939 791.112 Q31.0968 787.101 31.0968 780.545 Q31.0968 776.598 32.6564 773.765 Q34.216 770.932 37.3671 769.118 L31.9562 769.118 L31.9562 763.262 L63.18 763.262 Z" fill="#000000" fill-rule="nonzero" fill-opacity="1" /><path clip-path="url(#clip400)" d="M48.3161 720.707 L51.1806 720.707 L51.1806 747.634 Q57.2281 747.252 60.4109 744.005 Q63.5619 740.727 63.5619 734.902 Q63.5619 731.529 62.7344 728.378 Q61.9069 725.195 60.2518 722.076 L65.7899 722.076 Q67.1267 725.227 67.827 728.537 Q68.5272 731.847 68.5272 735.253 Q68.5272 743.783 63.5619 748.78 Q58.5967 753.745 50.1303 753.745 Q41.3774 753.745 36.2531 749.034 Q31.0968 744.292 31.0968 736.271 Q31.0968 729.078 35.7438 724.908 Q40.3589 720.707 48.3161 720.707 M46.5973 726.563 Q41.7912 726.627 38.9266 729.269 Q36.0621 731.879 36.0621 736.207 Q36.0621 741.109 38.8312 744.069 Q41.6002 746.997 46.6292 747.443 L46.5973 726.563 Z" fill="#000000" fill-rule="nonzero" fill-opacity="1" /><path clip-path="url(#clip400)" d="M46.0881 681.462 L67.6042 681.462 L67.6042 687.319 L46.279 687.319 Q41.2183 687.319 38.7038 689.292 Q36.1894 691.266 36.1894 695.212 Q36.1894 699.955 39.2131 702.692 Q42.2368 705.429 47.4567 705.429 L67.6042 705.429 L67.6042 711.318 L31.9562 711.318 L31.9562 705.429 L37.4944 705.429 Q34.2797 703.329 32.6883 700.496 Q31.0968 697.631 31.0968 693.907 Q31.0968 687.764 34.9163 684.613 Q38.7038 681.462 46.0881 681.462 Z" fill="#000000" fill-rule="nonzero" fill-opacity="1" /><path clip-path="url(#clip400)" d="M23.7444 613.222 L30.5239 613.222 Q27.5002 616.469 26.0043 620.161 Q24.5083 623.821 24.5083 627.959 Q24.5083 636.107 29.5054 640.435 Q34.4707 644.764 43.8919 644.764 Q53.2813 644.764 58.2784 640.435 Q63.2436 636.107 63.2436 627.959 Q63.2436 623.821 61.7477 620.161 Q60.2518 616.469 57.2281 613.222 L63.9439 613.222 Q66.2355 616.596 67.3814 620.383 Q68.5272 624.139 68.5272 628.341 Q68.5272 639.13 61.9387 645.337 Q55.3183 651.544 43.8919 651.544 Q32.4336 651.544 25.8451 645.337 Q19.2248 639.13 19.2248 628.341 Q19.2248 624.076 20.3706 620.32 Q21.4846 616.532 23.7444 613.222 Z" fill="#000000" fill-rule="nonzero" fill-opacity="1" /><path clip-path="url(#clip400)" d="M36.0621 589.733 Q36.0621 594.443 39.7542 597.18 Q43.4145 599.918 49.812 599.918 Q56.2095 599.918 59.9017 597.212 Q63.5619 594.475 63.5619 589.733 Q63.5619 585.054 59.8698 582.316 Q56.1777 579.579 49.812 579.579 Q43.4781 579.579 39.786 582.316 Q36.0621 585.054 36.0621 589.733 M31.0968 589.733 Q31.0968 582.094 36.0621 577.733 Q41.0273 573.373 49.812 573.373 Q58.5649 573.373 63.5619 577.733 Q68.5272 582.094 68.5272 589.733 Q68.5272 597.403 63.5619 601.764 Q58.5649 606.092 49.812 606.092 Q41.0273 606.092 36.0621 601.764 Q31.0968 597.403 31.0968 589.733 Z" fill="#000000" fill-rule="nonzero" fill-opacity="1" /><path clip-path="url(#clip400)" d="M46.0881 534.033 L67.6042 534.033 L67.6042 539.889 L46.279 539.889 Q41.2183 539.889 38.7038 541.862 Q36.1894 543.836 36.1894 547.783 Q36.1894 552.525 39.2131 555.262 Q42.2368 557.999 47.4567 557.999 L67.6042 557.999 L67.6042 563.888 L31.9562 563.888 L31.9562 557.999 L37.4944 557.999 Q34.2797 555.899 32.6883 553.066 Q31.0968 550.201 31.0968 546.478 Q31.0968 540.335 34.9163 537.184 Q38.7038 534.033 46.0881 534.033 Z" fill="#000000" fill-rule="nonzero" fill-opacity="1" /><path clip-path="url(#clip400)" d="M33.3248 496.698 L38.7993 496.698 Q37.4307 499.18 36.7623 501.695 Q36.0621 504.177 36.0621 506.724 Q36.0621 512.421 39.6905 515.572 Q43.2872 518.723 49.812 518.723 Q56.3369 518.723 59.9653 515.572 Q63.5619 512.421 63.5619 506.724 Q63.5619 504.177 62.8935 501.695 Q62.1933 499.18 60.8247 496.698 L66.2355 496.698 Q67.3814 499.149 67.9543 501.79 Q68.5272 504.4 68.5272 507.36 Q68.5272 515.413 63.4664 520.155 Q58.4057 524.898 49.812 524.898 Q41.091 524.898 36.0939 520.124 Q31.0968 515.317 31.0968 506.978 Q31.0968 504.273 31.6697 501.695 Q32.2108 499.117 33.3248 496.698 Z" fill="#000000" fill-rule="nonzero" fill-opacity="1" /><path clip-path="url(#clip400)" d="M48.3161 456.021 L51.1806 456.021 L51.1806 482.948 Q57.2281 482.566 60.4109 479.319 Q63.5619 476.041 63.5619 470.216 Q63.5619 466.843 62.7344 463.692 Q61.9069 460.509 60.2518 457.389 L65.7899 457.389 Q67.1267 460.541 67.827 463.851 Q68.5272 467.161 68.5272 470.567 Q68.5272 479.097 63.5619 484.094 Q58.5967 489.059 50.1303 489.059 Q41.3774 489.059 36.2531 484.348 Q31.0968 479.606 31.0968 471.585 Q31.0968 464.392 35.7438 460.222 Q40.3589 456.021 48.3161 456.021 M46.5973 461.877 Q41.7912 461.941 38.9266 464.583 Q36.0621 467.193 36.0621 471.521 Q36.0621 476.423 38.8312 479.383 Q41.6002 482.311 46.6292 482.757 L46.5973 461.877 Z" fill="#000000" fill-rule="nonzero" fill-opacity="1" /><path clip-path="url(#clip400)" d="M46.0881 416.776 L67.6042 416.776 L67.6042 422.633 L46.279 422.633 Q41.2183 422.633 38.7038 424.606 Q36.1894 426.579 36.1894 430.526 Q36.1894 435.269 39.2131 438.006 Q42.2368 440.743 47.4567 440.743 L67.6042 440.743 L67.6042 446.631 L31.9562 446.631 L31.9562 440.743 L37.4944 440.743 Q34.2797 438.642 32.6883 435.81 Q31.0968 432.945 31.0968 429.221 Q31.0968 423.078 34.9163 419.927 Q38.7038 416.776 46.0881 416.776 Z" fill="#000000" fill-rule="nonzero" fill-opacity="1" /><path clip-path="url(#clip400)" d="M21.8347 399.302 L31.9562 399.302 L31.9562 387.239 L36.5077 387.239 L36.5077 399.302 L55.8594 399.302 Q60.2199 399.302 61.4613 398.125 Q62.7026 396.915 62.7026 393.255 L62.7026 387.239 L67.6042 387.239 L67.6042 393.255 Q67.6042 400.034 65.0897 402.613 Q62.5434 405.191 55.8594 405.191 L36.5077 405.191 L36.5077 409.488 L31.9562 409.488 L31.9562 405.191 L21.8347 405.191 L21.8347 399.302 Z" fill="#000000" fill-rule="nonzero" fill-opacity="1" /><path clip-path="url(#clip400)" d="M37.4307 358.88 Q36.8578 359.867 36.6032 361.045 Q36.3167 362.19 36.3167 363.591 Q36.3167 368.556 39.5632 371.23 Q42.7779 373.871 48.8253 373.871 L67.6042 373.871 L67.6042 379.76 L31.9562 379.76 L31.9562 373.871 L37.4944 373.871 Q34.2479 372.025 32.6883 369.065 Q31.0968 366.105 31.0968 361.872 Q31.0968 361.267 31.1923 360.535 Q31.256 359.803 31.4151 358.912 L37.4307 358.88 Z" fill="#000000" fill-rule="nonzero" fill-opacity="1" /><path clip-path="url(#clip400)" d="M49.6847 336.537 Q49.6847 343.634 51.3079 346.372 Q52.9312 349.109 56.8461 349.109 Q59.9653 349.109 61.8114 347.072 Q63.6256 345.003 63.6256 341.47 Q63.6256 336.6 60.1881 333.672 Q56.7188 330.712 50.9897 330.712 L49.6847 330.712 L49.6847 336.537 M47.2657 324.855 L67.6042 324.855 L67.6042 330.712 L62.1933 330.712 Q65.4398 332.717 66.9994 335.709 Q68.5272 338.701 68.5272 343.03 Q68.5272 348.504 65.4716 351.751 Q62.3843 354.965 57.2281 354.965 Q51.2125 354.965 48.1569 350.955 Q45.1014 346.913 45.1014 338.924 L45.1014 330.712 L44.5285 330.712 Q40.4862 330.712 38.2901 333.386 Q36.0621 336.027 36.0621 340.833 Q36.0621 343.889 36.7941 346.785 Q37.5262 349.682 38.9903 352.355 L33.5795 352.355 Q32.3381 349.141 31.7334 346.117 Q31.0968 343.093 31.0968 340.229 Q31.0968 332.494 35.1072 328.675 Q39.1176 324.855 47.2657 324.855 Z" fill="#000000" fill-rule="nonzero" fill-opacity="1" /><path clip-path="url(#clip400)" d="M21.8347 307 L31.9562 307 L31.9562 294.937 L36.5077 294.937 L36.5077 307 L55.8594 307 Q60.2199 307 61.4613 305.822 Q62.7026 304.613 62.7026 300.952 L62.7026 294.937 L67.6042 294.937 L67.6042 300.952 Q67.6042 307.732 65.0897 310.31 Q62.5434 312.888 55.8594 312.888 L36.5077 312.888 L36.5077 317.185 L31.9562 317.185 L31.9562 312.888 L21.8347 312.888 L21.8347 307 Z" fill="#000000" fill-rule="nonzero" fill-opacity="1" /><path clip-path="url(#clip400)" d="M31.9562 287.234 L31.9562 281.378 L67.6042 281.378 L67.6042 287.234 L31.9562 287.234 M18.079 287.234 L18.079 281.378 L25.495 281.378 L25.495 287.234 L18.079 287.234 Z" fill="#000000" fill-rule="nonzero" fill-opacity="1" /><path clip-path="url(#clip400)" d="M36.0621 255.31 Q36.0621 260.021 39.7542 262.758 Q43.4145 265.495 49.812 265.495 Q56.2095 265.495 59.9017 262.79 Q63.5619 260.053 63.5619 255.31 Q63.5619 250.631 59.8698 247.894 Q56.1777 245.157 49.812 245.157 Q43.4781 245.157 39.786 247.894 Q36.0621 250.631 36.0621 255.31 M31.0968 255.31 Q31.0968 247.671 36.0621 243.311 Q41.0273 238.95 49.812 238.95 Q58.5649 238.95 63.5619 243.311 Q68.5272 247.671 68.5272 255.31 Q68.5272 262.981 63.5619 267.341 Q58.5649 271.67 49.812 271.67 Q41.0273 271.67 36.0621 267.341 Q31.0968 262.981 31.0968 255.31 Z" fill="#000000" fill-rule="nonzero" fill-opacity="1" /><path clip-path="url(#clip400)" d="M46.0881 199.61 L67.6042 199.61 L67.6042 205.467 L46.279 205.467 Q41.2183 205.467 38.7038 207.44 Q36.1894 209.413 36.1894 213.36 Q36.1894 218.103 39.2131 220.84 Q42.2368 223.577 47.4567 223.577 L67.6042 223.577 L67.6042 229.465 L31.9562 229.465 L31.9562 223.577 L37.4944 223.577 Q34.2797 221.476 32.6883 218.644 Q31.0968 215.779 31.0968 212.055 Q31.0968 205.912 34.9163 202.761 Q38.7038 199.61 46.0881 199.61 Z" fill="#000000" fill-rule="nonzero" fill-opacity="1" /><path clip-path="url(#clip400)" d="M18.1426 153.141 Q25.4632 157.406 32.6246 159.474 Q39.786 161.543 47.1384 161.543 Q54.4908 161.543 61.7159 159.474 Q68.9091 157.374 76.1979 153.141 L76.1979 158.233 Q68.7182 163.007 61.4931 165.395 Q54.268 167.75 47.1384 167.75 Q40.0406 167.75 32.8474 165.395 Q25.6542 163.039 18.1426 158.233 L18.1426 153.141 Z" fill="#000000" fill-rule="nonzero" fill-opacity="1" /><path clip-path="url(#clip400)" d="M38.7993 114.023 Q34.8526 111.827 32.9747 108.772 Q31.0968 105.716 31.0968 101.578 Q31.0968 96.0083 35.0117 92.9846 Q38.8948 89.9609 46.0881 89.9609 L67.6042 89.9609 L67.6042 95.8492 L46.279 95.8492 Q41.1546 95.8492 38.672 97.6634 Q36.1894 99.4776 36.1894 103.202 Q36.1894 107.753 39.2131 110.395 Q42.2368 113.037 47.4567 113.037 L67.6042 113.037 L67.6042 118.925 L46.279 118.925 Q41.1228 118.925 38.672 120.739 Q36.1894 122.553 36.1894 126.341 Q36.1894 130.829 39.2449 133.471 Q42.2686 136.112 47.4567 136.112 L67.6042 136.112 L67.6042 142.001 L31.9562 142.001 L31.9562 136.112 L37.4944 136.112 Q34.216 134.107 32.6564 131.306 Q31.0968 128.505 31.0968 124.654 Q31.0968 120.771 33.0702 118.066 Q35.0436 115.328 38.7993 114.023 Z" fill="#000000" fill-rule="nonzero" fill-opacity="1" /><path clip-path="url(#clip400)" d="M49.3664 54.8222 Q43.0007 54.8222 39.4996 57.464 Q35.9984 60.0739 35.9984 64.8164 Q35.9984 69.527 39.4996 72.1688 Q43.0007 74.7787 49.3664 74.7787 Q55.7003 74.7787 59.2014 72.1688 Q62.7026 69.527 62.7026 64.8164 Q62.7026 60.0739 59.2014 57.464 Q55.7003 54.8222 49.3664 54.8222 M63.18 48.9658 Q72.283 48.9658 76.7071 53.008 Q81.1631 57.0502 81.1631 65.3893 Q81.1631 68.4766 80.6857 71.2139 Q80.2401 73.9512 79.2852 76.5293 L73.5879 76.5293 Q74.9884 73.9512 75.6568 71.4367 Q76.3252 68.9222 76.3252 66.3123 Q76.3252 60.5513 73.3015 57.6868 Q70.3096 54.8222 64.2303 54.8222 L61.3339 54.8222 Q64.485 56.6364 66.0446 59.4692 Q67.6042 62.3019 67.6042 66.2486 Q67.6042 72.8053 62.6071 76.8157 Q57.61 80.8261 49.3664 80.8261 Q41.091 80.8261 36.0939 76.8157 Q31.0968 72.8053 31.0968 66.2486 Q31.0968 62.3019 32.6564 59.4692 Q34.216 56.6364 37.3671 54.8222 L31.9562 54.8222 L31.9562 48.9658 L63.18 48.9658 Z" fill="#000000" fill-rule="nonzero" fill-opacity="1" /><path clip-path="url(#clip400)" d="M20.0842 26.4948 L20.0842 21.084 L73.6516 37.6348 L73.6516 43.0456 L20.0842 26.4948 Z" fill="#000000" fill-rule="nonzero" fill-opacity="1" /><path clip-path="url(#clip400)" d="M20.0842 14.6864 L20.0842 8.25706 L62.1933 8.25706 L62.1933 -14.8823 L67.6042 -14.8823 L67.6042 14.6864 L20.0842 14.6864 Z" fill="#000000" fill-rule="nonzero" fill-opacity="1" /><path clip-path="url(#clip400)" d="M18.1426 -20.4523 L18.1426 -25.5448 Q25.6542 -30.3191 32.8474 -32.6744 Q40.0406 -35.0616 47.1384 -35.0616 Q54.268 -35.0616 61.4931 -32.6744 Q68.7182 -30.3191 76.1979 -25.5448 L76.1979 -20.4523 Q68.9091 -24.6855 61.7159 -26.7543 Q54.4908 -28.855 47.1384 -28.855 Q39.786 -28.855 32.6246 -26.7543 Q25.4632 -24.6855 18.1426 -20.4523 Z" fill="#000000" fill-rule="nonzero" fill-opacity="1" /><polyline clip-path="url(#clip402)" style="stroke:#009af9; stroke-linecap:round; stroke-linejoin:round; stroke-width:4; stroke-opacity:1; fill:none" points="224.019,86.1965 259.761,256.751 295.504,400.007 331.246,518.996 366.989,616.45 402.731,694.83 438.474,756.35 474.216,803.003 509.959,836.58 545.701,858.689 581.444,870.772 617.186,874.123 652.928,869.901 688.671,859.142 724.413,842.771 760.156,854.193 795.898,943.243 831.641,1012.81 867.383,1065.2 903.126,1102.51 938.868,1126.59 974.611,1139.12 1010.35,1141.6 1046.1,1135.37 1081.84,1121.64 1117.58,1101.47 1153.32,1075.83 1189.07,1045.57 1224.81,1011.44 1260.55,974.121 1296.29,934.206 1332.04,892.223 1367.78,848.64 1403.52,803.865 1439.26,758.259 1475.01,712.138 1510.75,665.775 1546.49,619.411 1582.23,573.251 1617.98,527.474 1653.72,482.231 1689.46,437.653 1725.2,393.846 1760.94,350.903 1796.69,308.898 1832.43,267.89 1868.17,227.927 1903.91,189.046 1939.66,151.274 1975.4,114.628 2011.14,79.1184 "/>
<polyline clip-path="url(#clip402)" style="stroke:#e26f46; stroke-linecap:round; stroke-linejoin:round; stroke-width:4; stroke-opacity:1; fill:none" points="-1723.95,1093.08 3959.11,1093.08 "/>
<path clip-path="url(#clip400)" d="M783.235 240.305 L1451.93 240.305 L1451.93 84.785 L783.235 84.785  Z" fill="#ffffff" fill-rule="evenodd" fill-opacity="1"/>
<polyline clip-path="url(#clip400)" style="stroke:#000000; stroke-linecap:round; stroke-linejoin:round; stroke-width:4; stroke-opacity:1; fill:none" points="783.235,240.305 1451.93,240.305 1451.93,84.785 783.235,84.785 783.235,240.305 "/>
<polyline clip-path="url(#clip400)" style="stroke:#009af9; stroke-linecap:round; stroke-linejoin:round; stroke-width:4; stroke-opacity:1; fill:none" points="804.283,136.625 930.573,136.625 "/>
<path clip-path="url(#clip400)" d="M973.867 120.479 L973.867 125.039 Q971.205 123.766 968.844 123.141 Q966.482 122.516 964.283 122.516 Q960.464 122.516 958.381 123.998 Q956.32 125.479 956.32 128.211 Q956.32 130.502 957.686 131.683 Q959.075 132.84 962.918 133.558 L965.742 134.137 Q970.973 135.132 973.45 137.655 Q975.95 140.155 975.95 144.368 Q975.95 149.391 972.57 151.984 Q969.214 154.576 962.709 154.576 Q960.256 154.576 957.478 154.021 Q954.723 153.465 951.76 152.377 L951.76 147.562 Q954.607 149.16 957.339 149.97 Q960.07 150.78 962.709 150.78 Q966.714 150.78 968.89 149.206 Q971.066 147.632 971.066 144.715 Q971.066 142.169 969.492 140.734 Q967.941 139.299 964.376 138.581 L961.529 138.025 Q956.297 136.984 953.959 134.762 Q951.621 132.539 951.621 128.581 Q951.621 123.998 954.839 121.359 Q958.08 118.72 963.751 118.72 Q966.182 118.72 968.705 119.16 Q971.228 119.6 973.867 120.479 Z" fill="#000000" fill-rule="nonzero" fill-opacity="1" /><path clip-path="url(#clip400)" d="M983.056 127.979 L987.316 127.979 L987.316 153.905 L983.056 153.905 L983.056 127.979 M983.056 117.887 L987.316 117.887 L987.316 123.28 L983.056 123.28 L983.056 117.887 Z" fill="#000000" fill-rule="nonzero" fill-opacity="1" /><path clip-path="url(#clip400)" d="M1016.41 132.956 Q1018.01 130.086 1020.23 128.72 Q1022.45 127.354 1025.46 127.354 Q1029.51 127.354 1031.71 130.201 Q1033.91 133.025 1033.91 138.257 L1033.91 153.905 L1029.63 153.905 L1029.63 138.396 Q1029.63 134.669 1028.31 132.863 Q1026.99 131.058 1024.28 131.058 Q1020.97 131.058 1019.05 133.257 Q1017.13 135.456 1017.13 139.252 L1017.13 153.905 L1012.85 153.905 L1012.85 138.396 Q1012.85 134.646 1011.53 132.863 Q1010.21 131.058 1007.45 131.058 Q1004.19 131.058 1002.27 133.28 Q1000.35 135.479 1000.35 139.252 L1000.35 153.905 L996.066 153.905 L996.066 127.979 L1000.35 127.979 L1000.35 132.007 Q1001.81 129.623 1003.84 128.488 Q1005.88 127.354 1008.68 127.354 Q1011.51 127.354 1013.47 128.789 Q1015.46 130.225 1016.41 132.956 Z" fill="#000000" fill-rule="nonzero" fill-opacity="1" /><path clip-path="url(#clip400)" d="M1041.97 143.674 L1041.97 127.979 L1046.23 127.979 L1046.23 143.512 Q1046.23 147.192 1047.66 149.044 Q1049.1 150.873 1051.97 150.873 Q1055.42 150.873 1057.41 148.674 Q1059.42 146.474 1059.42 142.678 L1059.42 127.979 L1063.68 127.979 L1063.68 153.905 L1059.42 153.905 L1059.42 149.924 Q1057.87 152.285 1055.81 153.442 Q1053.77 154.576 1051.07 154.576 Q1046.6 154.576 1044.28 151.799 Q1041.97 149.021 1041.97 143.674 M1052.69 127.354 L1052.69 127.354 Z" fill="#000000" fill-rule="nonzero" fill-opacity="1" /><path clip-path="url(#clip400)" d="M1072.45 117.887 L1076.71 117.887 L1076.71 153.905 L1072.45 153.905 L1072.45 117.887 Z" fill="#000000" fill-rule="nonzero" fill-opacity="1" /><path clip-path="url(#clip400)" d="M1097.41 140.873 Q1092.25 140.873 1090.25 142.053 Q1088.26 143.234 1088.26 146.081 Q1088.26 148.349 1089.75 149.692 Q1091.25 151.011 1093.82 151.011 Q1097.36 151.011 1099.49 148.511 Q1101.64 145.988 1101.64 141.822 L1101.64 140.873 L1097.41 140.873 M1105.9 139.113 L1105.9 153.905 L1101.64 153.905 L1101.64 149.97 Q1100.19 152.331 1098.01 153.465 Q1095.83 154.576 1092.69 154.576 Q1088.7 154.576 1086.34 152.354 Q1084 150.109 1084 146.359 Q1084 141.984 1086.92 139.762 Q1089.86 137.539 1095.67 137.539 L1101.64 137.539 L1101.64 137.123 Q1101.64 134.183 1099.7 132.586 Q1097.78 130.965 1094.28 130.965 Q1092.06 130.965 1089.95 131.498 Q1087.85 132.03 1085.9 133.095 L1085.9 129.16 Q1088.24 128.257 1090.44 127.817 Q1092.64 127.354 1094.72 127.354 Q1100.35 127.354 1103.13 130.271 Q1105.9 133.188 1105.9 139.113 Z" fill="#000000" fill-rule="nonzero" fill-opacity="1" /><path clip-path="url(#clip400)" d="M1118.89 120.618 L1118.89 127.979 L1127.66 127.979 L1127.66 131.289 L1118.89 131.289 L1118.89 145.363 Q1118.89 148.535 1119.75 149.437 Q1120.63 150.34 1123.29 150.34 L1127.66 150.34 L1127.66 153.905 L1123.29 153.905 Q1118.36 153.905 1116.48 152.076 Q1114.61 150.224 1114.61 145.363 L1114.61 131.289 L1111.48 131.289 L1111.48 127.979 L1114.61 127.979 L1114.61 120.618 L1118.89 120.618 Z" fill="#000000" fill-rule="nonzero" fill-opacity="1" /><path clip-path="url(#clip400)" d="M1155.44 139.877 L1155.44 141.961 L1135.86 141.961 Q1136.13 146.359 1138.5 148.674 Q1140.88 150.965 1145.12 150.965 Q1147.57 150.965 1149.86 150.363 Q1152.18 149.761 1154.44 148.558 L1154.44 152.586 Q1152.15 153.558 1149.75 154.067 Q1147.34 154.576 1144.86 154.576 Q1138.66 154.576 1135.02 150.965 Q1131.41 147.354 1131.41 141.197 Q1131.41 134.831 1134.84 131.104 Q1138.29 127.354 1144.12 127.354 Q1149.35 127.354 1152.38 130.734 Q1155.44 134.09 1155.44 139.877 M1151.18 138.627 Q1151.13 135.132 1149.21 133.049 Q1147.31 130.965 1144.17 130.965 Q1140.6 130.965 1138.45 132.979 Q1136.32 134.993 1136 138.65 L1151.18 138.627 Z" fill="#000000" fill-rule="nonzero" fill-opacity="1" /><path clip-path="url(#clip400)" d="M1179.49 131.914 L1179.49 117.887 L1183.75 117.887 L1183.75 153.905 L1179.49 153.905 L1179.49 150.016 Q1178.15 152.331 1176.09 153.465 Q1174.05 154.576 1171.18 154.576 Q1166.48 154.576 1163.52 150.826 Q1160.58 147.076 1160.58 140.965 Q1160.58 134.854 1163.52 131.104 Q1166.48 127.354 1171.18 127.354 Q1174.05 127.354 1176.09 128.488 Q1178.15 129.6 1179.49 131.914 M1164.98 140.965 Q1164.98 145.664 1166.9 148.349 Q1168.84 151.011 1172.22 151.011 Q1175.6 151.011 1177.55 148.349 Q1179.49 145.664 1179.49 140.965 Q1179.49 136.266 1177.55 133.604 Q1175.6 130.919 1172.22 130.919 Q1168.84 130.919 1166.9 133.604 Q1164.98 136.266 1164.98 140.965 Z" fill="#000000" fill-rule="nonzero" fill-opacity="1" /><path clip-path="url(#clip400)" d="M1212.45 123.188 L1212.45 150.062 L1218.1 150.062 Q1225.25 150.062 1228.56 146.822 Q1231.9 143.581 1231.9 136.59 Q1231.9 129.646 1228.56 126.428 Q1225.25 123.188 1218.1 123.188 L1212.45 123.188 M1207.78 119.345 L1217.38 119.345 Q1227.43 119.345 1232.13 123.535 Q1236.83 127.701 1236.83 136.59 Q1236.83 145.525 1232.11 149.715 Q1227.38 153.905 1217.38 153.905 L1207.78 153.905 L1207.78 119.345 Z" fill="#000000" fill-rule="nonzero" fill-opacity="1" /><path clip-path="url(#clip400)" d="M1258.31 122.516 Q1253.22 122.516 1250.21 126.313 Q1247.22 130.109 1247.22 136.66 Q1247.22 143.187 1250.21 146.984 Q1253.22 150.78 1258.31 150.78 Q1263.4 150.78 1266.37 146.984 Q1269.35 143.187 1269.35 136.66 Q1269.35 130.109 1266.37 126.313 Q1263.4 122.516 1258.31 122.516 M1258.31 118.72 Q1265.58 118.72 1269.93 123.604 Q1274.28 128.465 1274.28 136.66 Q1274.28 144.831 1269.93 149.715 Q1265.58 154.576 1258.31 154.576 Q1251.02 154.576 1246.64 149.715 Q1242.29 144.854 1242.29 136.66 Q1242.29 128.465 1246.64 123.604 Q1251.02 118.72 1258.31 118.72 Z" fill="#000000" fill-rule="nonzero" fill-opacity="1" /><polyline clip-path="url(#clip400)" style="stroke:#e26f46; stroke-linecap:round; stroke-linejoin:round; stroke-width:4; stroke-opacity:1; fill:none" points="804.283,188.465 930.573,188.465 "/>
<path clip-path="url(#clip400)" d="M968.01 189.541 Q969.515 190.051 970.927 191.717 Q972.362 193.384 973.797 196.301 L978.543 205.745 L973.519 205.745 L969.098 196.879 Q967.385 193.407 965.765 192.273 Q964.168 191.139 961.39 191.139 L956.297 191.139 L956.297 205.745 L951.621 205.745 L951.621 171.185 L962.177 171.185 Q968.103 171.185 971.019 173.662 Q973.936 176.139 973.936 181.139 Q973.936 184.403 972.408 186.555 Q970.904 188.708 968.01 189.541 M956.297 175.028 L956.297 187.296 L962.177 187.296 Q965.557 187.296 967.269 185.745 Q969.006 184.171 969.006 181.139 Q969.006 178.106 967.269 176.578 Q965.557 175.028 962.177 175.028 L956.297 175.028 Z" fill="#000000" fill-rule="nonzero" fill-opacity="1" /><path clip-path="url(#clip400)" d="M1004.42 191.717 L1004.42 193.801 L984.839 193.801 Q985.117 198.199 987.478 200.514 Q989.862 202.805 994.098 202.805 Q996.552 202.805 998.843 202.203 Q1001.16 201.601 1003.43 200.398 L1003.43 204.426 Q1001.14 205.398 998.728 205.907 Q996.32 206.416 993.843 206.416 Q987.64 206.416 984.005 202.805 Q980.394 199.194 980.394 193.037 Q980.394 186.671 983.82 182.944 Q987.269 179.194 993.103 179.194 Q998.334 179.194 1001.37 182.574 Q1004.42 185.93 1004.42 191.717 M1000.16 190.467 Q1000.12 186.972 998.195 184.889 Q996.297 182.805 993.149 182.805 Q989.584 182.805 987.431 184.819 Q985.302 186.833 984.978 190.49 L1000.16 190.467 Z" fill="#000000" fill-rule="nonzero" fill-opacity="1" /><path clip-path="url(#clip400)" d="M1028.47 192.481 Q1028.47 187.852 1026.55 185.305 Q1024.65 182.759 1021.2 182.759 Q1017.78 182.759 1015.86 185.305 Q1013.96 187.852 1013.96 192.481 Q1013.96 197.088 1015.86 199.634 Q1017.78 202.18 1021.2 202.18 Q1024.65 202.18 1026.55 199.634 Q1028.47 197.088 1028.47 192.481 M1032.73 202.527 Q1032.73 209.148 1029.79 212.365 Q1026.85 215.606 1020.79 215.606 Q1018.54 215.606 1016.55 215.259 Q1014.56 214.935 1012.69 214.24 L1012.69 210.097 Q1014.56 211.115 1016.39 211.601 Q1018.22 212.088 1020.12 212.088 Q1024.31 212.088 1026.39 209.888 Q1028.47 207.713 1028.47 203.291 L1028.47 201.185 Q1027.15 203.476 1025.09 204.611 Q1023.03 205.745 1020.16 205.745 Q1015.39 205.745 1012.48 202.111 Q1009.56 198.477 1009.56 192.481 Q1009.56 186.463 1012.48 182.828 Q1015.39 179.194 1020.16 179.194 Q1023.03 179.194 1025.09 180.328 Q1027.15 181.463 1028.47 183.754 L1028.47 179.819 L1032.73 179.819 L1032.73 202.527 Z" fill="#000000" fill-rule="nonzero" fill-opacity="1" /><path clip-path="url(#clip400)" d="M1041.07 195.514 L1041.07 179.819 L1045.32 179.819 L1045.32 195.352 Q1045.32 199.032 1046.76 200.884 Q1048.19 202.713 1051.07 202.713 Q1054.51 202.713 1056.51 200.514 Q1058.52 198.314 1058.52 194.518 L1058.52 179.819 L1062.78 179.819 L1062.78 205.745 L1058.52 205.745 L1058.52 201.764 Q1056.97 204.125 1054.91 205.282 Q1052.87 206.416 1050.16 206.416 Q1045.69 206.416 1043.38 203.639 Q1041.07 200.861 1041.07 195.514 M1051.78 179.194 L1051.78 179.194 Z" fill="#000000" fill-rule="nonzero" fill-opacity="1" /><path clip-path="url(#clip400)" d="M1071.55 169.727 L1075.81 169.727 L1075.81 205.745 L1071.55 205.745 L1071.55 169.727 Z" fill="#000000" fill-rule="nonzero" fill-opacity="1" /><path clip-path="url(#clip400)" d="M1096.5 192.713 Q1091.34 192.713 1089.35 193.893 Q1087.36 195.074 1087.36 197.921 Q1087.36 200.189 1088.84 201.532 Q1090.35 202.851 1092.92 202.851 Q1096.46 202.851 1098.59 200.351 Q1100.74 197.828 1100.74 193.662 L1100.74 192.713 L1096.5 192.713 M1105 190.953 L1105 205.745 L1100.74 205.745 L1100.74 201.81 Q1099.28 204.171 1097.11 205.305 Q1094.93 206.416 1091.78 206.416 Q1087.8 206.416 1085.44 204.194 Q1083.1 201.949 1083.1 198.199 Q1083.1 193.824 1086.02 191.602 Q1088.96 189.379 1094.77 189.379 L1100.74 189.379 L1100.74 188.963 Q1100.74 186.023 1098.8 184.426 Q1096.88 182.805 1093.38 182.805 Q1091.16 182.805 1089.05 183.338 Q1086.94 183.87 1085 184.935 L1085 181 Q1087.34 180.097 1089.54 179.657 Q1091.74 179.194 1093.82 179.194 Q1099.44 179.194 1102.22 182.111 Q1105 185.028 1105 190.953 Z" fill="#000000" fill-rule="nonzero" fill-opacity="1" /><path clip-path="url(#clip400)" d="M1117.99 172.458 L1117.99 179.819 L1126.76 179.819 L1126.76 183.129 L1117.99 183.129 L1117.99 197.203 Q1117.99 200.375 1118.84 201.277 Q1119.72 202.18 1122.38 202.18 L1126.76 202.18 L1126.76 205.745 L1122.38 205.745 Q1117.45 205.745 1115.58 203.916 Q1113.7 202.064 1113.7 197.203 L1113.7 183.129 L1110.58 183.129 L1110.58 179.819 L1113.7 179.819 L1113.7 172.458 L1117.99 172.458 Z" fill="#000000" fill-rule="nonzero" fill-opacity="1" /><path clip-path="url(#clip400)" d="M1142.41 182.805 Q1138.98 182.805 1136.99 185.49 Q1135 188.152 1135 192.805 Q1135 197.458 1136.97 200.143 Q1138.96 202.805 1142.41 202.805 Q1145.81 202.805 1147.8 200.12 Q1149.79 197.435 1149.79 192.805 Q1149.79 188.199 1147.8 185.514 Q1145.81 182.805 1142.41 182.805 M1142.41 179.194 Q1147.96 179.194 1151.13 182.805 Q1154.31 186.416 1154.31 192.805 Q1154.31 199.171 1151.13 202.805 Q1147.96 206.416 1142.41 206.416 Q1136.83 206.416 1133.66 202.805 Q1130.51 199.171 1130.51 192.805 Q1130.51 186.416 1133.66 182.805 Q1136.83 179.194 1142.41 179.194 Z" fill="#000000" fill-rule="nonzero" fill-opacity="1" /><path clip-path="url(#clip400)" d="M1176.39 183.801 Q1175.67 183.384 1174.81 183.199 Q1173.98 182.99 1172.96 182.99 Q1169.35 182.99 1167.41 185.352 Q1165.49 187.69 1165.49 192.088 L1165.49 205.745 L1161.2 205.745 L1161.2 179.819 L1165.49 179.819 L1165.49 183.847 Q1166.83 181.486 1168.98 180.352 Q1171.13 179.194 1174.21 179.194 Q1174.65 179.194 1175.19 179.264 Q1175.72 179.31 1176.37 179.426 L1176.39 183.801 Z" fill="#000000" fill-rule="nonzero" fill-opacity="1" /><path clip-path="url(#clip400)" d="M1191.64 208.152 Q1189.84 212.782 1188.12 214.194 Q1186.41 215.606 1183.54 215.606 L1180.14 215.606 L1180.14 212.041 L1182.64 212.041 Q1184.4 212.041 1185.37 211.208 Q1186.34 210.375 1187.52 207.273 L1188.29 205.328 L1177.8 179.819 L1182.31 179.819 L1190.42 200.097 L1198.52 179.819 L1203.03 179.819 L1191.64 208.152 Z" fill="#000000" fill-rule="nonzero" fill-opacity="1" /><path clip-path="url(#clip400)" d="M1244.88 172.319 L1244.88 176.879 Q1242.22 175.606 1239.86 174.981 Q1237.5 174.356 1235.3 174.356 Q1231.48 174.356 1229.4 175.838 Q1227.34 177.319 1227.34 180.051 Q1227.34 182.342 1228.7 183.523 Q1230.09 184.68 1233.93 185.398 L1236.76 185.977 Q1241.99 186.972 1244.47 189.495 Q1246.97 191.995 1246.97 196.208 Q1246.97 201.231 1243.59 203.824 Q1240.23 206.416 1233.73 206.416 Q1231.27 206.416 1228.49 205.861 Q1225.74 205.305 1222.78 204.217 L1222.78 199.402 Q1225.62 201 1228.36 201.81 Q1231.09 202.62 1233.73 202.62 Q1237.73 202.62 1239.91 201.046 Q1242.08 199.472 1242.08 196.555 Q1242.08 194.009 1240.51 192.574 Q1238.96 191.139 1235.39 190.421 L1232.55 189.865 Q1227.31 188.824 1224.98 186.602 Q1222.64 184.379 1222.64 180.421 Q1222.64 175.838 1225.86 173.199 Q1229.1 170.56 1234.77 170.56 Q1237.2 170.56 1239.72 171 Q1242.24 171.44 1244.88 172.319 Z" fill="#000000" fill-rule="nonzero" fill-opacity="1" /><path clip-path="url(#clip400)" d="M1258.29 172.458 L1258.29 179.819 L1267.06 179.819 L1267.06 183.129 L1258.29 183.129 L1258.29 197.203 Q1258.29 200.375 1259.14 201.277 Q1260.02 202.18 1262.68 202.18 L1267.06 202.18 L1267.06 205.745 L1262.68 205.745 Q1257.75 205.745 1255.88 203.916 Q1254 202.064 1254 197.203 L1254 183.129 L1250.88 183.129 L1250.88 179.819 L1254 179.819 L1254 172.458 L1258.29 172.458 Z" fill="#000000" fill-rule="nonzero" fill-opacity="1" /><path clip-path="url(#clip400)" d="M1284.44 192.713 Q1279.28 192.713 1277.29 193.893 Q1275.3 195.074 1275.3 197.921 Q1275.3 200.189 1276.78 201.532 Q1278.29 202.851 1280.86 202.851 Q1284.4 202.851 1286.53 200.351 Q1288.68 197.828 1288.68 193.662 L1288.68 192.713 L1284.44 192.713 M1292.94 190.953 L1292.94 205.745 L1288.68 205.745 L1288.68 201.81 Q1287.22 204.171 1285.05 205.305 Q1282.87 206.416 1279.72 206.416 Q1275.74 206.416 1273.38 204.194 Q1271.04 201.949 1271.04 198.199 Q1271.04 193.824 1273.96 191.602 Q1276.9 189.379 1282.71 189.379 L1288.68 189.379 L1288.68 188.963 Q1288.68 186.023 1286.74 184.426 Q1284.81 182.805 1281.32 182.805 Q1279.1 182.805 1276.99 183.338 Q1274.88 183.87 1272.94 184.935 L1272.94 181 Q1275.28 180.097 1277.48 179.657 Q1279.68 179.194 1281.76 179.194 Q1287.38 179.194 1290.16 182.111 Q1292.94 185.028 1292.94 190.953 Z" fill="#000000" fill-rule="nonzero" fill-opacity="1" /><path clip-path="url(#clip400)" d="M1323.26 190.097 L1323.26 205.745 L1319 205.745 L1319 190.236 Q1319 186.555 1317.57 184.727 Q1316.13 182.898 1313.26 182.898 Q1309.81 182.898 1307.82 185.097 Q1305.83 187.296 1305.83 191.092 L1305.83 205.745 L1301.55 205.745 L1301.55 179.819 L1305.83 179.819 L1305.83 183.847 Q1307.36 181.509 1309.42 180.352 Q1311.5 179.194 1314.21 179.194 Q1318.68 179.194 1320.97 181.972 Q1323.26 184.727 1323.26 190.097 Z" fill="#000000" fill-rule="nonzero" fill-opacity="1" /><path clip-path="url(#clip400)" d="M1348.82 183.754 L1348.82 169.727 L1353.08 169.727 L1353.08 205.745 L1348.82 205.745 L1348.82 201.856 Q1347.48 204.171 1345.42 205.305 Q1343.38 206.416 1340.51 206.416 Q1335.81 206.416 1332.85 202.666 Q1329.91 198.916 1329.91 192.805 Q1329.91 186.694 1332.85 182.944 Q1335.81 179.194 1340.51 179.194 Q1343.38 179.194 1345.42 180.328 Q1347.48 181.44 1348.82 183.754 M1334.3 192.805 Q1334.3 197.504 1336.23 200.189 Q1338.17 202.851 1341.55 202.851 Q1344.93 202.851 1346.87 200.189 Q1348.82 197.504 1348.82 192.805 Q1348.82 188.106 1346.87 185.444 Q1344.93 182.759 1341.55 182.759 Q1338.17 182.759 1336.23 185.444 Q1334.3 188.106 1334.3 192.805 Z" fill="#000000" fill-rule="nonzero" fill-opacity="1" /><path clip-path="url(#clip400)" d="M1373.63 192.713 Q1368.47 192.713 1366.48 193.893 Q1364.49 195.074 1364.49 197.921 Q1364.49 200.189 1365.97 201.532 Q1367.48 202.851 1370.05 202.851 Q1373.59 202.851 1375.72 200.351 Q1377.87 197.828 1377.87 193.662 L1377.87 192.713 L1373.63 192.713 M1382.13 190.953 L1382.13 205.745 L1377.87 205.745 L1377.87 201.81 Q1376.41 204.171 1374.23 205.305 Q1372.06 206.416 1368.91 206.416 Q1364.93 206.416 1362.57 204.194 Q1360.23 201.949 1360.23 198.199 Q1360.23 193.824 1363.15 191.602 Q1366.09 189.379 1371.9 189.379 L1377.87 189.379 L1377.87 188.963 Q1377.87 186.023 1375.92 184.426 Q1374 182.805 1370.51 182.805 Q1368.29 182.805 1366.18 183.338 Q1364.07 183.87 1362.13 184.935 L1362.13 181 Q1364.47 180.097 1366.67 179.657 Q1368.86 179.194 1370.95 179.194 Q1376.57 179.194 1379.35 182.111 Q1382.13 185.028 1382.13 190.953 Z" fill="#000000" fill-rule="nonzero" fill-opacity="1" /><path clip-path="url(#clip400)" d="M1405.92 183.801 Q1405.21 183.384 1404.35 183.199 Q1403.52 182.99 1402.5 182.99 Q1398.89 182.99 1396.94 185.352 Q1395.02 187.69 1395.02 192.088 L1395.02 205.745 L1390.74 205.745 L1390.74 179.819 L1395.02 179.819 L1395.02 183.847 Q1396.36 181.486 1398.52 180.352 Q1400.67 179.194 1403.75 179.194 Q1404.19 179.194 1404.72 179.264 Q1405.25 179.31 1405.9 179.426 L1405.92 183.801 Z" fill="#000000" fill-rule="nonzero" fill-opacity="1" /><path clip-path="url(#clip400)" d="M1426.62 183.754 L1426.62 169.727 L1430.88 169.727 L1430.88 205.745 L1426.62 205.745 L1426.62 201.856 Q1425.28 204.171 1423.22 205.305 Q1421.18 206.416 1418.31 206.416 Q1413.61 206.416 1410.65 202.666 Q1407.71 198.916 1407.71 192.805 Q1407.71 186.694 1410.65 182.944 Q1413.61 179.194 1418.31 179.194 Q1421.18 179.194 1423.22 180.328 Q1425.28 181.44 1426.62 183.754 M1412.11 192.805 Q1412.11 197.504 1414.03 200.189 Q1415.97 202.851 1419.35 202.851 Q1422.73 202.851 1424.67 200.189 Q1426.62 197.504 1426.62 192.805 Q1426.62 188.106 1424.67 185.444 Q1422.73 182.759 1419.35 182.759 Q1415.97 182.759 1414.03 185.444 Q1412.11 188.106 1412.11 192.805 Z" fill="#000000" fill-rule="nonzero" fill-opacity="1" /></svg>
