<?xml version="1.0" encoding="utf-8"?>
<svg xmlns="http://www.w3.org/2000/svg" xmlns:xlink="http://www.w3.org/1999/xlink" width="600" height="400" viewBox="0 0 2400 1600">
<defs>
  <clipPath id="clip030">
    <rect x="0" y="0" width="2400" height="1600"/>
  </clipPath>
</defs>
<path clip-path="url(#clip030)" d="
M0 1600 L2400 1600 L2400 0 L0 0  Z
  " fill="#ffffff" fill-rule="evenodd" fill-opacity="1"/>
<defs>
  <clipPath id="clip031">
    <rect x="480" y="0" width="1681" height="1600"/>
  </clipPath>
</defs>
<path clip-path="url(#clip030)" d="
M339.9 1433.33 L2352.76 1433.33 L2352.76 188.976 L339.9 188.976  Z
  " fill="#ffffff" fill-rule="evenodd" fill-opacity="1"/>
<defs>
  <clipPath id="clip032">
    <rect x="339" y="188" width="2014" height="1245"/>
  </clipPath>
</defs>
<polyline clip-path="url(#clip030)" style="stroke:#000000; stroke-linecap:round; stroke-linejoin:round; stroke-width:4; stroke-opacity:1; fill:none" points="
  339.9,1433.33 2352.76,1433.33 
  "/>
<path clip-path="url(#clip030)" d="M873.97 1501.59 L873.97 1582.22 L890.914 1582.22 Q912.372 1582.22 922.303 1572.49 Q932.303 1562.77 932.303 1541.8 Q932.303 1520.97 922.303 1511.31 Q912.372 1501.59 890.914 1501.59 L873.97 1501.59 M859.942 1490.06 L888.761 1490.06 Q918.9 1490.06 932.997 1502.63 Q947.094 1515.13 947.094 1541.8 Q947.094 1568.61 932.928 1581.17 Q918.761 1593.74 888.761 1593.74 L859.942 1593.74 L859.942 1490.06 Z" fill="#000000" fill-rule="evenodd" fill-opacity="1" /><path clip-path="url(#clip030)" d="M968.9 1515.97 L981.677 1515.97 L981.677 1593.74 L968.9 1593.74 L968.9 1515.97 M968.9 1485.69 L981.677 1485.69 L981.677 1501.87 L968.9 1501.87 L968.9 1485.69 Z" fill="#000000" fill-rule="evenodd" fill-opacity="1" /><path clip-path="url(#clip030)" d="M1058 1518.26 L1058 1530.34 Q1052.58 1527.56 1046.75 1526.17 Q1040.91 1524.79 1034.66 1524.79 Q1025.15 1524.79 1020.36 1527.7 Q1015.64 1530.62 1015.64 1536.45 Q1015.64 1540.9 1019.04 1543.47 Q1022.44 1545.97 1032.72 1548.26 L1037.09 1549.23 Q1050.7 1552.15 1056.4 1557.49 Q1062.16 1562.77 1062.16 1572.29 Q1062.16 1583.12 1053.55 1589.44 Q1045.01 1595.76 1030.01 1595.76 Q1023.76 1595.76 1016.95 1594.51 Q1010.22 1593.33 1002.72 1590.9 L1002.72 1577.7 Q1009.8 1581.38 1016.68 1583.26 Q1023.55 1585.06 1030.29 1585.06 Q1039.32 1585.06 1044.18 1582.01 Q1049.04 1578.88 1049.04 1573.26 Q1049.04 1568.05 1045.5 1565.27 Q1042.02 1562.49 1030.15 1559.92 L1025.7 1558.88 Q1013.83 1556.38 1008.55 1551.24 Q1003.27 1546.04 1003.27 1537.01 Q1003.27 1526.04 1011.05 1520.06 Q1018.83 1514.09 1033.14 1514.09 Q1040.22 1514.09 1046.47 1515.13 Q1052.72 1516.17 1058 1518.26 Z" fill="#000000" fill-rule="evenodd" fill-opacity="1" /><path clip-path="url(#clip030)" d="M1095.15 1493.88 L1095.15 1515.97 L1121.47 1515.97 L1121.47 1525.9 L1095.15 1525.9 L1095.15 1568.12 Q1095.15 1577.63 1097.72 1580.34 Q1100.36 1583.05 1108.34 1583.05 L1121.47 1583.05 L1121.47 1593.74 L1108.34 1593.74 Q1093.55 1593.74 1087.93 1588.26 Q1082.3 1582.7 1082.3 1568.12 L1082.3 1525.9 L1072.93 1525.9 L1072.93 1515.97 L1082.3 1515.97 L1082.3 1493.88 L1095.15 1493.88 Z" fill="#000000" fill-rule="evenodd" fill-opacity="1" /><path clip-path="url(#clip030)" d="M1173.62 1554.65 Q1158.13 1554.65 1152.16 1558.19 Q1146.19 1561.73 1146.19 1570.27 Q1146.19 1577.08 1150.63 1581.11 Q1155.15 1585.06 1162.86 1585.06 Q1173.48 1585.06 1179.87 1577.56 Q1186.33 1569.99 1186.33 1557.49 L1186.33 1554.65 L1173.62 1554.65 M1199.11 1549.37 L1199.11 1593.74 L1186.33 1593.74 L1186.33 1581.94 Q1181.95 1589.02 1175.43 1592.42 Q1168.9 1595.76 1159.45 1595.76 Q1147.51 1595.76 1140.43 1589.09 Q1133.41 1582.36 1133.41 1571.11 Q1133.41 1557.98 1142.16 1551.31 Q1150.98 1544.65 1168.41 1544.65 L1186.33 1544.65 L1186.33 1543.4 Q1186.33 1534.58 1180.5 1529.79 Q1174.73 1524.92 1164.25 1524.92 Q1157.58 1524.92 1151.26 1526.52 Q1144.94 1528.12 1139.11 1531.31 L1139.11 1519.51 Q1146.12 1516.8 1152.72 1515.48 Q1159.32 1514.09 1165.57 1514.09 Q1182.44 1514.09 1190.77 1522.84 Q1199.11 1531.59 1199.11 1549.37 Z" fill="#000000" fill-rule="evenodd" fill-opacity="1" /><path clip-path="url(#clip030)" d="M1290.08 1546.8 L1290.08 1593.74 L1277.3 1593.74 L1277.3 1547.22 Q1277.3 1536.17 1273 1530.69 Q1268.69 1525.2 1260.08 1525.2 Q1249.73 1525.2 1243.76 1531.8 Q1237.79 1538.4 1237.79 1549.79 L1237.79 1593.74 L1224.94 1593.74 L1224.94 1515.97 L1237.79 1515.97 L1237.79 1528.05 Q1242.37 1521.04 1248.55 1517.56 Q1254.8 1514.09 1262.93 1514.09 Q1276.33 1514.09 1283.2 1522.42 Q1290.08 1530.69 1290.08 1546.8 Z" fill="#000000" fill-rule="evenodd" fill-opacity="1" /><path clip-path="url(#clip030)" d="M1371.54 1518.95 L1371.54 1530.9 Q1366.12 1527.91 1360.63 1526.45 Q1355.22 1524.92 1349.66 1524.92 Q1337.23 1524.92 1330.36 1532.84 Q1323.48 1540.69 1323.48 1554.92 Q1323.48 1569.16 1330.36 1577.08 Q1337.23 1584.92 1349.66 1584.92 Q1355.22 1584.92 1360.63 1583.47 Q1366.12 1581.94 1371.54 1578.95 L1371.54 1590.76 Q1366.19 1593.26 1360.43 1594.51 Q1354.73 1595.76 1348.27 1595.76 Q1330.7 1595.76 1320.36 1584.72 Q1310.01 1573.67 1310.01 1554.92 Q1310.01 1535.9 1320.43 1524.99 Q1330.91 1514.09 1349.11 1514.09 Q1355.01 1514.09 1360.63 1515.34 Q1366.26 1516.52 1371.54 1518.95 Z" fill="#000000" fill-rule="evenodd" fill-opacity="1" /><path clip-path="url(#clip030)" d="M1460.29 1551.66 L1460.29 1557.91 L1401.54 1557.91 Q1402.37 1571.11 1409.45 1578.05 Q1416.61 1584.92 1429.31 1584.92 Q1436.67 1584.92 1443.55 1583.12 Q1450.49 1581.31 1457.3 1577.7 L1457.3 1589.79 Q1450.42 1592.7 1443.2 1594.23 Q1435.98 1595.76 1428.55 1595.76 Q1409.94 1595.76 1399.04 1584.92 Q1388.2 1574.09 1388.2 1555.62 Q1388.2 1536.52 1398.48 1525.34 Q1408.83 1514.09 1426.33 1514.09 Q1442.02 1514.09 1451.12 1524.23 Q1460.29 1534.3 1460.29 1551.66 M1447.51 1547.91 Q1447.37 1537.42 1441.61 1531.17 Q1435.91 1524.92 1426.47 1524.92 Q1415.77 1524.92 1409.31 1530.97 Q1402.93 1537.01 1401.95 1547.98 L1447.51 1547.91 Z" fill="#000000" fill-rule="evenodd" fill-opacity="1" /><path clip-path="url(#clip030)" d="M1557.16 1485.83 Q1547.85 1501.8 1543.34 1517.42 Q1538.83 1533.05 1538.83 1549.09 Q1538.83 1565.13 1543.34 1580.9 Q1547.92 1596.59 1557.16 1612.49 L1546.05 1612.49 Q1535.63 1596.17 1530.42 1580.41 Q1525.29 1564.65 1525.29 1549.09 Q1525.29 1533.61 1530.42 1517.91 Q1535.56 1502.22 1546.05 1485.83 L1557.16 1485.83 Z" fill="#000000" fill-rule="evenodd" fill-opacity="1" /><path clip-path="url(#clip030)" d="M1581.47 1485.69 L1594.31 1485.69 L1594.31 1549.51 L1632.44 1515.97 L1648.76 1515.97 L1607.51 1552.36 L1650.49 1593.74 L1633.83 1593.74 L1594.31 1555.76 L1594.31 1593.74 L1581.47 1593.74 L1581.47 1485.69 Z" fill="#000000" fill-rule="evenodd" fill-opacity="1" /><path clip-path="url(#clip030)" d="M1724.87 1530.9 Q1729.66 1522.29 1736.33 1518.19 Q1742.99 1514.09 1752.02 1514.09 Q1764.17 1514.09 1770.77 1522.63 Q1777.37 1531.11 1777.37 1546.8 L1777.37 1593.74 L1764.52 1593.74 L1764.52 1547.22 Q1764.52 1536.04 1760.56 1530.62 Q1756.6 1525.2 1748.48 1525.2 Q1738.55 1525.2 1732.78 1531.8 Q1727.02 1538.4 1727.02 1549.79 L1727.02 1593.74 L1714.17 1593.74 L1714.17 1547.22 Q1714.17 1535.97 1710.22 1530.62 Q1706.26 1525.2 1697.99 1525.2 Q1688.2 1525.2 1682.44 1531.87 Q1676.67 1538.47 1676.67 1549.79 L1676.67 1593.74 L1663.83 1593.74 L1663.83 1515.97 L1676.67 1515.97 L1676.67 1528.05 Q1681.05 1520.9 1687.16 1517.49 Q1693.27 1514.09 1701.67 1514.09 Q1710.15 1514.09 1716.05 1518.4 Q1722.02 1522.7 1724.87 1530.9 Z" fill="#000000" fill-rule="evenodd" fill-opacity="1" /><path clip-path="url(#clip030)" d="M1800.84 1485.83 L1811.95 1485.83 Q1822.37 1502.22 1827.51 1517.91 Q1832.71 1533.61 1832.71 1549.09 Q1832.71 1564.65 1827.51 1580.41 Q1822.37 1596.17 1811.95 1612.49 L1800.84 1612.49 Q1810.08 1596.59 1814.59 1580.9 Q1819.17 1565.13 1819.17 1549.09 Q1819.17 1533.05 1814.59 1517.42 Q1810.08 1501.8 1800.84 1485.83 Z" fill="#000000" fill-rule="evenodd" fill-opacity="1" /><polyline clip-path="url(#clip030)" style="stroke:#000000; stroke-linecap:round; stroke-linejoin:round; stroke-width:4; stroke-opacity:1; fill:none" points="
  339.9,1433.33 339.9,188.976 
  "/>
<path clip-path="url(#clip030)" d="M144.644 1265.66 L225.269 1265.66 L225.269 1248.72 Q225.269 1227.26 215.547 1217.33 Q205.824 1207.33 184.852 1207.33 Q164.019 1207.33 154.366 1217.33 Q144.644 1227.26 144.644 1248.72 L144.644 1265.66 M133.116 1279.69 L133.116 1250.87 Q133.116 1220.73 145.686 1206.64 Q158.186 1192.54 184.852 1192.54 Q211.658 1192.54 224.227 1206.71 Q236.796 1220.87 236.796 1250.87 L236.796 1279.69 L133.116 1279.69 Z" fill="#000000" fill-rule="evenodd" fill-opacity="1" /><path clip-path="url(#clip030)" d="M142.63 1128.09 Q142.63 1143.37 154.019 1152.4 Q165.408 1161.36 185.061 1161.36 Q204.644 1161.36 216.033 1152.4 Q227.422 1143.37 227.422 1128.09 Q227.422 1112.82 216.033 1103.93 Q204.644 1094.97 185.061 1094.97 Q165.408 1094.97 154.019 1103.93 Q142.63 1112.82 142.63 1128.09 M131.241 1128.09 Q131.241 1106.29 145.894 1093.23 Q160.477 1080.18 185.061 1080.18 Q209.574 1080.18 224.227 1093.23 Q238.81 1106.29 238.81 1128.09 Q238.81 1149.97 224.227 1163.09 Q209.644 1176.15 185.061 1176.15 Q160.477 1176.15 145.894 1163.09 Q131.241 1149.97 131.241 1128.09 Z" fill="#000000" fill-rule="evenodd" fill-opacity="1" /><path clip-path="url(#clip030)" d="M133.116 1036.08 L133.116 1024.28 L249.991 1060.39 L249.991 1072.19 L133.116 1036.08 Z" fill="#000000" fill-rule="evenodd" fill-opacity="1" /><path clip-path="url(#clip030)" d="M142.63 968.235 Q142.63 983.512 154.019 992.54 Q165.408 1001.5 185.061 1001.5 Q204.644 1001.5 216.033 992.54 Q227.422 983.512 227.422 968.235 Q227.422 952.957 216.033 944.068 Q204.644 935.11 185.061 935.11 Q165.408 935.11 154.019 944.068 Q142.63 952.957 142.63 968.235 M131.241 968.235 Q131.241 946.429 145.894 933.374 Q160.477 920.318 185.061 920.318 Q209.574 920.318 224.227 933.374 Q238.81 946.429 238.81 968.235 Q238.81 990.11 224.227 1003.23 Q209.644 1016.29 185.061 1016.29 Q160.477 1016.29 145.894 1003.23 Q131.241 990.11 131.241 968.235 Z" fill="#000000" fill-rule="evenodd" fill-opacity="1" /><path clip-path="url(#clip030)" d="M144.644 884.346 L225.269 884.346 L225.269 867.402 Q225.269 845.944 215.547 836.013 Q205.824 826.013 184.852 826.013 Q164.019 826.013 154.366 836.013 Q144.644 845.944 144.644 867.402 L144.644 884.346 M133.116 898.374 L133.116 869.555 Q133.116 839.416 145.686 825.319 Q158.186 811.222 184.852 811.222 Q211.658 811.222 224.227 825.388 Q236.796 839.555 236.796 869.555 L236.796 898.374 L133.116 898.374 Z" fill="#000000" fill-rule="evenodd" fill-opacity="1" /><path clip-path="url(#clip030)" d="M128.88 713.514 Q144.853 722.819 160.477 727.333 Q176.102 731.847 192.144 731.847 Q208.186 731.847 223.949 727.333 Q239.644 722.75 255.546 713.514 L255.546 724.625 Q239.227 735.041 223.463 740.25 Q207.699 745.389 192.144 745.389 Q176.658 745.389 160.964 740.25 Q145.269 735.111 128.88 724.625 L128.88 713.514 Z" fill="#000000" fill-rule="evenodd" fill-opacity="1" /><path clip-path="url(#clip030)" d="M173.95 628.167 Q165.339 623.375 161.241 616.709 Q157.144 610.042 157.144 601.014 Q157.144 588.862 165.686 582.264 Q174.158 575.667 189.852 575.667 L236.796 575.667 L236.796 588.514 L190.269 588.514 Q179.088 588.514 173.672 592.473 Q168.255 596.431 168.255 604.556 Q168.255 614.487 174.852 620.25 Q181.45 626.014 192.838 626.014 L236.796 626.014 L236.796 638.861 L190.269 638.861 Q179.019 638.861 173.672 642.82 Q168.255 646.778 168.255 655.042 Q168.255 664.833 174.922 670.597 Q181.519 676.361 192.838 676.361 L236.796 676.361 L236.796 689.208 L159.019 689.208 L159.019 676.361 L171.102 676.361 Q163.95 671.986 160.547 665.875 Q157.144 659.764 157.144 651.361 Q157.144 642.889 161.45 636.986 Q165.755 631.014 173.95 628.167 Z" fill="#000000" fill-rule="evenodd" fill-opacity="1" /><path clip-path="url(#clip030)" d="M197.005 499.001 Q183.116 499.001 175.477 504.765 Q167.839 510.459 167.839 520.806 Q167.839 531.084 175.477 536.848 Q183.116 542.542 197.005 542.542 Q210.824 542.542 218.463 536.848 Q226.102 531.084 226.102 520.806 Q226.102 510.459 218.463 504.765 Q210.824 499.001 197.005 499.001 M227.144 486.223 Q247.005 486.223 256.657 495.043 Q266.38 503.862 266.38 522.056 Q266.38 528.793 265.338 534.765 Q264.366 540.737 262.282 546.362 L249.852 546.362 Q252.907 540.737 254.366 535.251 Q255.824 529.765 255.824 524.07 Q255.824 511.501 249.227 505.251 Q242.699 499.001 229.435 499.001 L223.116 499.001 Q229.991 502.959 233.394 509.14 Q236.796 515.32 236.796 523.931 Q236.796 538.237 225.894 546.987 Q214.991 555.737 197.005 555.737 Q178.95 555.737 168.047 546.987 Q157.144 538.237 157.144 523.931 Q157.144 515.32 160.547 509.14 Q163.95 502.959 170.825 499.001 L159.019 499.001 L159.019 486.223 L227.144 486.223 Z" fill="#000000" fill-rule="evenodd" fill-opacity="1" /><path clip-path="url(#clip030)" d="M133.116 437.196 L133.116 425.39 L249.991 461.501 L249.991 473.307 L133.116 437.196 Z" fill="#000000" fill-rule="evenodd" fill-opacity="1" /><path clip-path="url(#clip030)" d="M128.741 411.988 L128.741 399.21 L236.796 399.21 L236.796 411.988 L128.741 411.988 Z" fill="#000000" fill-rule="evenodd" fill-opacity="1" /><path clip-path="url(#clip030)" d="M128.88 374.488 L128.88 363.377 Q145.269 352.96 160.964 347.821 Q176.658 342.613 192.144 342.613 Q207.699 342.613 223.463 347.821 Q239.227 352.96 255.546 363.377 L255.546 374.488 Q239.644 365.252 223.949 360.738 Q208.186 356.155 192.144 356.155 Q176.102 356.155 160.477 360.738 Q144.853 365.252 128.88 374.488 Z" fill="#000000" fill-rule="evenodd" fill-opacity="1" /><polyline clip-path="url(#clip032)" style="stroke:#000000; stroke-linecap:round; stroke-linejoin:round; stroke-width:12; stroke-opacity:1; fill:none" points="
  396.868,224.194 491.814,328.134 586.76,419.267 681.706,498.864 776.652,568.081 871.598,627.967 966.544,679.475 1061.49,723.471 1156.44,760.74 1251.38,791.993 
  1346.33,817.876 1441.27,838.972 1536.22,855.81 1631.17,868.868 1726.11,878.579 1821.06,885.332 1916,889.48 2010.95,891.341 2105.9,891.202 2200.84,889.318 
  2295.79,885.923 
  "/>
<polyline clip-path="url(#clip032)" style="stroke:#008000; stroke-linecap:round; stroke-linejoin:round; stroke-width:12; stroke-opacity:1; fill:none" stroke-dasharray="48, 24, 6, 24, 6, 24" points="
  396.868,449.548 491.814,495.532 586.76,539.64 681.706,581.947 776.652,622.528 871.598,661.453 966.544,698.789 1061.49,734.601 1156.44,768.952 1251.38,801.901 
  1346.33,833.506 1441.27,863.82 1536.22,892.898 1631.17,920.788 1726.11,947.541 1821.06,973.202 1916,997.815 2010.95,1021.42 2105.9,1044.07 2200.84,1065.79 
  2295.79,1086.63 
  "/>
<polyline clip-path="url(#clip032)" style="stroke:#0000ff; stroke-linecap:round; stroke-linejoin:round; stroke-width:12; stroke-opacity:1; fill:none" stroke-dasharray="48, 30" points="
  396.868,900.256 491.814,943.857 586.76,984.647 681.706,1022.81 776.652,1058.5 871.598,1091.9 966.544,1123.14 1061.49,1152.37 1156.44,1179.71 1251.38,1205.29 
  1346.33,1229.22 1441.27,1251.6 1536.22,1272.54 1631.17,1292.14 1726.11,1310.46 1821.06,1327.61 1916,1343.65 2010.95,1358.65 2105.9,1372.69 2200.84,1385.82 
  2295.79,1398.11 
  "/>
<polyline clip-path="url(#clip032)" style="stroke:#ff0000; stroke-linecap:round; stroke-linejoin:round; stroke-width:8; stroke-opacity:1; fill:none" points="
  396.868,2677.68 396.868,-1055.38 
  "/>
<path clip-path="url(#clip030)" d="
M1783.96 697.015 L2285.66 697.015 L2285.66 230.455 L1783.96 230.455  Z
  " fill="#ffffff" fill-rule="evenodd" fill-opacity="1"/>
<polyline clip-path="url(#clip030)" style="stroke:#000000; stroke-linecap:round; stroke-linejoin:round; stroke-width:4; stroke-opacity:1; fill:none" points="
  1783.96,697.015 2285.66,697.015 2285.66,230.455 1783.96,230.455 1783.96,697.015 
  "/>
<polyline clip-path="url(#clip030)" style="stroke:#000000; stroke-linecap:round; stroke-linejoin:round; stroke-width:9; stroke-opacity:1; fill:none" points="
  1806.33,347.095 1940.52,347.095 
  "/>
<path clip-path="url(#clip030)" d="M1973.4 316.861 L1973.4 377.329 L1986.11 377.329 Q2002.2 377.329 2009.65 370.037 Q2017.15 362.746 2017.15 347.017 Q2017.15 331.392 2009.65 324.152 Q2002.2 316.861 1986.11 316.861 L1973.4 316.861 M1962.88 308.215 L1984.5 308.215 Q2007.1 308.215 2017.67 317.642 Q2028.24 327.017 2028.24 347.017 Q2028.24 367.121 2017.62 376.548 Q2006.99 385.975 1984.5 385.975 L1962.88 385.975 L1962.88 308.215 Z" fill="#000000" fill-rule="evenodd" fill-opacity="1" /><path clip-path="url(#clip030)" d="M2076.58 315.35 Q2065.12 315.35 2058.35 323.892 Q2051.63 332.433 2051.63 347.173 Q2051.63 361.86 2058.35 370.402 Q2065.12 378.944 2076.58 378.944 Q2088.04 378.944 2094.7 370.402 Q2101.42 361.86 2101.42 347.173 Q2101.42 332.433 2094.7 323.892 Q2088.04 315.35 2076.58 315.35 M2076.58 306.809 Q2092.93 306.809 2102.72 317.798 Q2112.52 328.735 2112.52 347.173 Q2112.52 365.558 2102.72 376.548 Q2092.93 387.485 2076.58 387.485 Q2060.17 387.485 2050.33 376.548 Q2040.54 365.61 2040.54 347.173 Q2040.54 328.735 2050.33 317.798 Q2060.17 306.809 2076.58 306.809 Z" fill="#000000" fill-rule="evenodd" fill-opacity="1" /><polyline clip-path="url(#clip030)" style="stroke:#008000; stroke-linecap:round; stroke-linejoin:round; stroke-width:9; stroke-opacity:1; fill:none" stroke-dasharray="36, 18, 5, 18, 5, 18" points="
  1806.33,463.735 1940.52,463.735 
  "/>
<path clip-path="url(#clip030)" d="M2025.59 430.844 L2025.59 441.938 Q2020.28 436.99 2014.23 434.542 Q2008.24 432.094 2001.47 432.094 Q1988.14 432.094 1981.06 440.271 Q1973.97 448.396 1973.97 463.813 Q1973.97 479.177 1981.06 487.354 Q1988.14 495.479 2001.47 495.479 Q2008.24 495.479 2014.23 493.031 Q2020.28 490.584 2025.59 485.636 L2025.59 496.625 Q2020.07 500.375 2013.87 502.25 Q2007.72 504.125 2000.85 504.125 Q1983.19 504.125 1973.04 493.344 Q1962.88 482.511 1962.88 463.813 Q1962.88 445.063 1973.04 434.282 Q1983.19 423.449 2000.85 423.449 Q2007.83 423.449 2013.97 425.324 Q2020.17 427.146 2025.59 430.844 Z" fill="#000000" fill-rule="evenodd" fill-opacity="1" /><path clip-path="url(#clip030)" d="M2052.36 465.48 L2052.36 493.969 L2069.23 493.969 Q2077.72 493.969 2081.79 490.479 Q2085.9 486.938 2085.9 479.698 Q2085.9 472.407 2081.79 468.969 Q2077.72 465.48 2069.23 465.48 L2052.36 465.48 M2052.36 433.501 L2052.36 456.938 L2067.93 456.938 Q2075.64 456.938 2079.39 454.073 Q2083.19 451.157 2083.19 445.219 Q2083.19 439.334 2079.39 436.417 Q2075.64 433.501 2067.93 433.501 L2052.36 433.501 M2041.84 424.855 L2068.71 424.855 Q2080.74 424.855 2087.25 429.855 Q2093.77 434.855 2093.77 444.073 Q2093.77 451.209 2090.43 455.428 Q2087.1 459.646 2080.64 460.688 Q2088.4 462.355 2092.67 467.667 Q2096.99 472.927 2096.99 480.844 Q2096.99 491.261 2089.91 496.938 Q2082.83 502.615 2069.76 502.615 L2041.84 502.615 L2041.84 424.855 Z" fill="#000000" fill-rule="evenodd" fill-opacity="1" /><path clip-path="url(#clip030)" d="M2144.7 431.99 Q2133.24 431.99 2126.47 440.532 Q2119.75 449.073 2119.75 463.813 Q2119.75 478.5 2126.47 487.042 Q2133.24 495.584 2144.7 495.584 Q2156.16 495.584 2162.83 487.042 Q2169.55 478.5 2169.55 463.813 Q2169.55 449.073 2162.83 440.532 Q2156.16 431.99 2144.7 431.99 M2144.7 423.449 Q2161.06 423.449 2170.85 434.438 Q2180.64 445.375 2180.64 463.813 Q2180.64 482.198 2170.85 493.188 Q2161.06 504.125 2144.7 504.125 Q2128.3 504.125 2118.45 493.188 Q2108.66 482.25 2108.66 463.813 Q2108.66 445.375 2118.45 434.438 Q2128.3 423.449 2144.7 423.449 Z" fill="#000000" fill-rule="evenodd" fill-opacity="1" /><path clip-path="url(#clip030)" d="M2207.62 433.501 L2207.62 493.969 L2220.33 493.969 Q2236.42 493.969 2243.87 486.677 Q2251.37 479.386 2251.37 463.657 Q2251.37 448.032 2243.87 440.792 Q2236.42 433.501 2220.33 433.501 L2207.62 433.501 M2197.1 424.855 L2218.71 424.855 Q2241.32 424.855 2251.89 434.282 Q2262.46 443.657 2262.46 463.657 Q2262.46 483.761 2251.84 493.188 Q2241.21 502.615 2218.71 502.615 L2197.1 502.615 L2197.1 424.855 Z" fill="#000000" fill-rule="evenodd" fill-opacity="1" /><polyline clip-path="url(#clip030)" style="stroke:#0000ff; stroke-linecap:round; stroke-linejoin:round; stroke-width:9; stroke-opacity:1; fill:none" stroke-dasharray="36, 23" points="
  1806.33,580.375 1940.52,580.375 
  "/>
<path clip-path="url(#clip030)" d="M1962.88 541.495 L1977.05 541.495 L2011.53 606.546 L2011.53 541.495 L2021.73 541.495 L2021.73 619.255 L2007.57 619.255 L1973.09 554.203 L1973.09 619.255 L1962.88 619.255 L1962.88 541.495 Z" fill="#000000" fill-rule="evenodd" fill-opacity="1" /><path clip-path="url(#clip030)" d="M2053.19 582.12 L2053.19 610.609 L2070.07 610.609 Q2078.56 610.609 2082.62 607.119 Q2086.73 603.578 2086.73 596.338 Q2086.73 589.047 2082.62 585.609 Q2078.56 582.12 2070.07 582.12 L2053.19 582.12 M2053.19 550.141 L2053.19 573.578 L2068.77 573.578 Q2076.47 573.578 2080.22 570.713 Q2084.03 567.797 2084.03 561.859 Q2084.03 555.974 2080.22 553.057 Q2076.47 550.141 2068.77 550.141 L2053.19 550.141 M2042.67 541.495 L2069.55 541.495 Q2081.58 541.495 2088.09 546.495 Q2094.6 551.495 2094.6 560.713 Q2094.6 567.849 2091.27 572.068 Q2087.93 576.286 2081.47 577.328 Q2089.23 578.995 2093.5 584.307 Q2097.83 589.567 2097.83 597.484 Q2097.83 607.901 2090.74 613.578 Q2083.66 619.255 2070.59 619.255 L2042.67 619.255 L2042.67 541.495 Z" fill="#000000" fill-rule="evenodd" fill-opacity="1" /><path clip-path="url(#clip030)" d="M2145.54 548.63 Q2134.08 548.63 2127.31 557.172 Q2120.59 565.713 2120.59 580.453 Q2120.59 595.14 2127.31 603.682 Q2134.08 612.224 2145.54 612.224 Q2156.99 612.224 2163.66 603.682 Q2170.38 595.14 2170.38 580.453 Q2170.38 565.713 2163.66 557.172 Q2156.99 548.63 2145.54 548.63 M2145.54 540.089 Q2161.89 540.089 2171.68 551.078 Q2181.47 562.015 2181.47 580.453 Q2181.47 598.838 2171.68 609.828 Q2161.89 620.765 2145.54 620.765 Q2129.13 620.765 2119.29 609.828 Q2109.49 598.89 2109.49 580.453 Q2109.49 562.015 2119.29 551.078 Q2129.13 540.089 2145.54 540.089 Z" fill="#000000" fill-rule="evenodd" fill-opacity="1" /><path clip-path="url(#clip030)" d="M2208.45 550.141 L2208.45 610.609 L2221.16 610.609 Q2237.25 610.609 2244.7 603.317 Q2252.2 596.026 2252.2 580.297 Q2252.2 564.672 2244.7 557.432 Q2237.25 550.141 2221.16 550.141 L2208.45 550.141 M2197.93 541.495 L2219.55 541.495 Q2242.15 541.495 2252.72 550.922 Q2263.3 560.297 2263.3 580.297 Q2263.3 600.401 2252.67 609.828 Q2242.05 619.255 2219.55 619.255 L2197.93 619.255 L2197.93 541.495 Z" fill="#000000" fill-rule="evenodd" fill-opacity="1" /><path clip-path="url(#clip030)" d="M74.3065 76.9568 L83.7509 76.9568 L98.2879 135.382 L112.779 76.9568 L123.288 76.9568 L137.825 135.382 L152.315 76.9568 L161.806 76.9568 L144.445 146.077 L132.686 146.077 L118.103 86.0771 L103.38 146.077 L91.6213 146.077 L74.3065 76.9568 Z" fill="#ff0000" fill-rule="evenodd" fill-opacity="1" /><path clip-path="url(#clip030)" d="M191.343 120.012 Q181.019 120.012 177.037 122.373 Q173.056 124.734 173.056 130.429 Q173.056 134.966 176.019 137.651 Q179.028 140.29 184.167 140.29 Q191.25 140.29 195.51 135.29 Q199.815 130.244 199.815 121.91 L199.815 120.012 L191.343 120.012 M208.334 116.494 L208.334 146.077 L199.815 146.077 L199.815 138.206 Q196.898 142.929 192.547 145.197 Q188.195 147.419 181.899 147.419 Q173.936 147.419 169.213 142.975 Q164.538 138.484 164.538 130.984 Q164.538 122.234 170.371 117.79 Q176.25 113.346 187.871 113.346 L199.815 113.346 L199.815 112.512 Q199.815 106.633 195.926 103.438 Q192.084 100.197 185.093 100.197 Q180.649 100.197 176.436 101.262 Q172.223 102.327 168.334 104.457 L168.334 96.5863 Q173.01 94.7808 177.408 93.9012 Q181.806 92.9753 185.973 92.9753 Q197.223 92.9753 202.778 98.8086 Q208.334 104.642 208.334 116.494 Z" fill="#ff0000" fill-rule="evenodd" fill-opacity="1" /><path clip-path="url(#clip030)" d="M258.935 95.753 L258.935 103.809 Q255.324 101.957 251.435 101.031 Q247.546 100.105 243.38 100.105 Q237.037 100.105 233.843 102.049 Q230.695 103.994 230.695 107.883 Q230.695 110.846 232.963 112.558 Q235.232 114.225 242.083 115.753 L245 116.401 Q254.074 118.345 257.87 121.91 Q261.713 125.429 261.713 131.771 Q261.713 138.994 255.972 143.206 Q250.278 147.419 240.278 147.419 Q236.111 147.419 231.574 146.586 Q227.084 145.799 222.084 144.179 L222.084 135.382 Q226.806 137.836 231.389 139.086 Q235.972 140.29 240.463 140.29 Q246.482 140.29 249.722 138.253 Q252.963 136.169 252.963 132.419 Q252.963 128.947 250.602 127.095 Q248.287 125.244 240.37 123.531 L237.408 122.836 Q229.491 121.17 225.972 117.744 Q222.454 114.271 222.454 108.253 Q222.454 100.938 227.639 96.9567 Q232.824 92.9753 242.361 92.9753 Q247.083 92.9753 251.25 93.6697 Q255.417 94.3641 258.935 95.753 Z" fill="#ff0000" fill-rule="evenodd" fill-opacity="1" /><path clip-path="url(#clip030)" d="M283.704 79.5031 L283.704 94.2252 L301.25 94.2252 L301.25 100.846 L283.704 100.846 L283.704 128.994 Q283.704 135.336 285.417 137.142 Q287.176 138.947 292.5 138.947 L301.25 138.947 L301.25 146.077 L292.5 146.077 Q282.639 146.077 278.889 142.419 Q275.139 138.716 275.139 128.994 L275.139 100.846 L268.889 100.846 L268.889 94.2252 L275.139 94.2252 L275.139 79.5031 L283.704 79.5031 Z" fill="#ff0000" fill-rule="evenodd" fill-opacity="1" /><path clip-path="url(#clip030)" d="M356.805 118.021 L356.805 122.188 L317.639 122.188 Q318.194 130.984 322.916 135.614 Q327.685 140.197 336.157 140.197 Q341.064 140.197 345.648 138.994 Q350.277 137.79 354.814 135.382 L354.814 143.438 Q350.231 145.382 345.416 146.401 Q340.601 147.419 335.648 147.419 Q323.24 147.419 315.972 140.197 Q308.75 132.975 308.75 120.66 Q308.75 107.929 315.602 100.475 Q322.5 92.9753 334.166 92.9753 Q344.629 92.9753 350.694 99.7345 Q356.805 106.447 356.805 118.021 M348.287 115.521 Q348.194 108.531 344.351 104.364 Q340.555 100.197 334.259 100.197 Q327.129 100.197 322.824 104.225 Q318.564 108.253 317.916 115.568 L348.287 115.521 Z" fill="#ff0000" fill-rule="evenodd" fill-opacity="1" /><path clip-path="url(#clip030)" d="M410.647 84.642 L410.647 138.392 L421.944 138.392 Q436.249 138.392 442.869 131.91 Q449.536 125.429 449.536 111.447 Q449.536 97.5586 442.869 91.1234 Q436.249 84.642 421.944 84.642 L410.647 84.642 M401.296 76.9568 L420.508 76.9568 Q440.601 76.9568 449.999 85.3364 Q459.397 93.6697 459.397 111.447 Q459.397 129.318 449.953 137.697 Q440.508 146.077 420.508 146.077 L401.296 146.077 L401.296 76.9568 Z" fill="#ff0000" fill-rule="evenodd" fill-opacity="1" /><path clip-path="url(#clip030)" d="M473.934 94.2252 L482.453 94.2252 L482.453 146.077 L473.934 146.077 L473.934 94.2252 M473.934 74.0402 L482.453 74.0402 L482.453 84.8272 L473.934 84.8272 L473.934 74.0402 Z" fill="#ff0000" fill-rule="evenodd" fill-opacity="1" /><path clip-path="url(#clip030)" d="M533.332 95.753 L533.332 103.809 Q529.721 101.957 525.832 101.031 Q521.943 100.105 517.776 100.105 Q511.434 100.105 508.239 102.049 Q505.091 103.994 505.091 107.883 Q505.091 110.846 507.36 112.558 Q509.628 114.225 516.48 115.753 L519.397 116.401 Q528.471 118.345 532.267 121.91 Q536.11 125.429 536.11 131.771 Q536.11 138.994 530.369 143.206 Q524.675 147.419 514.675 147.419 Q510.508 147.419 505.971 146.586 Q501.48 145.799 496.48 144.179 L496.48 135.382 Q501.202 137.836 505.786 139.086 Q510.369 140.29 514.86 140.29 Q520.878 140.29 524.119 138.253 Q527.36 136.169 527.36 132.419 Q527.36 128.947 524.999 127.095 Q522.684 125.244 514.767 123.531 L511.804 122.836 Q503.888 121.17 500.369 117.744 Q496.851 114.271 496.851 108.253 Q496.851 100.938 502.036 96.9567 Q507.221 92.9753 516.758 92.9753 Q521.48 92.9753 525.647 93.6697 Q529.813 94.3641 533.332 95.753 Z" fill="#ff0000" fill-rule="evenodd" fill-opacity="1" /><path clip-path="url(#clip030)" d="M586.989 96.216 L586.989 104.179 Q583.378 102.188 579.721 101.216 Q576.109 100.197 572.406 100.197 Q564.119 100.197 559.535 105.475 Q554.952 110.707 554.952 120.197 Q554.952 129.688 559.535 134.966 Q564.119 140.197 572.406 140.197 Q576.109 140.197 579.721 139.225 Q583.378 138.206 586.989 136.216 L586.989 144.086 Q583.424 145.753 579.582 146.586 Q575.785 147.419 571.48 147.419 Q559.767 147.419 552.869 140.058 Q545.971 132.697 545.971 120.197 Q545.971 107.512 552.915 100.244 Q559.906 92.9753 572.035 92.9753 Q575.971 92.9753 579.721 93.8086 Q583.47 94.5956 586.989 96.216 Z" fill="#ff0000" fill-rule="evenodd" fill-opacity="1" /><path clip-path="url(#clip030)" d="M644.905 114.781 L644.905 146.077 L636.387 146.077 L636.387 115.058 Q636.387 107.697 633.517 104.04 Q630.646 100.383 624.905 100.383 Q618.007 100.383 614.026 104.781 Q610.044 109.179 610.044 116.771 L610.044 146.077 L601.48 146.077 L601.48 74.0402 L610.044 74.0402 L610.044 102.281 Q613.1 97.6049 617.22 95.2901 Q621.387 92.9753 626.804 92.9753 Q635.739 92.9753 640.322 98.5308 Q644.905 104.04 644.905 114.781 Z" fill="#ff0000" fill-rule="evenodd" fill-opacity="1" /><path clip-path="url(#clip030)" d="M685.461 120.012 Q675.137 120.012 671.155 122.373 Q667.174 124.734 667.174 130.429 Q667.174 134.966 670.137 137.651 Q673.146 140.29 678.285 140.29 Q685.368 140.29 689.627 135.29 Q693.933 130.244 693.933 121.91 L693.933 120.012 L685.461 120.012 M702.451 116.494 L702.451 146.077 L693.933 146.077 L693.933 138.206 Q691.016 142.929 686.664 145.197 Q682.313 147.419 676.016 147.419 Q668.053 147.419 663.331 142.975 Q658.655 138.484 658.655 130.984 Q658.655 122.234 664.489 117.79 Q670.368 113.346 681.988 113.346 L693.933 113.346 L693.933 112.512 Q693.933 106.633 690.044 103.438 Q686.201 100.197 679.211 100.197 Q674.766 100.197 670.553 101.262 Q666.34 102.327 662.452 104.457 L662.452 96.5863 Q667.127 94.7808 671.526 93.9012 Q675.924 92.9753 680.09 92.9753 Q691.34 92.9753 696.896 98.8086 Q702.451 104.642 702.451 116.494 Z" fill="#ff0000" fill-rule="evenodd" fill-opacity="1" /><path clip-path="url(#clip030)" d="M750.044 102.188 Q748.608 101.355 746.896 100.984 Q745.229 100.568 743.192 100.568 Q735.97 100.568 732.081 105.29 Q728.238 109.966 728.238 118.762 L728.238 146.077 L719.673 146.077 L719.673 94.2252 L728.238 94.2252 L728.238 102.281 Q730.923 97.5586 735.229 95.2901 Q739.534 92.9753 745.692 92.9753 Q746.571 92.9753 747.636 93.1141 Q748.701 93.2067 749.997 93.4382 L750.044 102.188 Z" fill="#ff0000" fill-rule="evenodd" fill-opacity="1" /><path clip-path="url(#clip030)" d="M791.432 119.549 Q791.432 110.29 787.59 105.197 Q783.793 100.105 776.895 100.105 Q770.044 100.105 766.201 105.197 Q762.405 110.29 762.405 119.549 Q762.405 128.762 766.201 133.855 Q770.044 138.947 776.895 138.947 Q783.793 138.947 787.59 133.855 Q791.432 128.762 791.432 119.549 M799.951 139.642 Q799.951 152.882 794.071 159.317 Q788.192 165.799 776.062 165.799 Q771.571 165.799 767.59 165.104 Q763.608 164.456 759.858 163.067 L759.858 154.78 Q763.608 156.818 767.266 157.79 Q770.923 158.762 774.719 158.762 Q783.099 158.762 787.266 154.364 Q791.432 150.012 791.432 141.169 L791.432 136.957 Q788.793 141.54 784.673 143.808 Q780.553 146.077 774.812 146.077 Q765.275 146.077 759.442 138.808 Q753.608 131.54 753.608 119.549 Q753.608 107.512 759.442 100.244 Q765.275 92.9753 774.812 92.9753 Q780.553 92.9753 784.673 95.2438 Q788.793 97.5123 791.432 102.096 L791.432 94.2252 L799.951 94.2252 L799.951 139.642 Z" fill="#ff0000" fill-rule="evenodd" fill-opacity="1" /><path clip-path="url(#clip030)" d="M861.849 118.021 L861.849 122.188 L822.682 122.188 Q823.238 130.984 827.96 135.614 Q832.728 140.197 841.201 140.197 Q846.108 140.197 850.691 138.994 Q855.321 137.79 859.858 135.382 L859.858 143.438 Q855.275 145.382 850.46 146.401 Q845.645 147.419 840.691 147.419 Q828.284 147.419 821.016 140.197 Q813.793 132.975 813.793 120.66 Q813.793 107.929 820.645 100.475 Q827.543 92.9753 839.21 92.9753 Q849.673 92.9753 855.738 99.7345 Q861.849 106.447 861.849 118.021 M853.33 115.521 Q853.238 108.531 849.395 104.364 Q845.599 100.197 839.302 100.197 Q832.173 100.197 827.867 104.225 Q823.608 108.253 822.96 115.568 L853.33 115.521 Z" fill="#ff0000" fill-rule="evenodd" fill-opacity="1" /></svg>
