<?xml version="1.0" encoding="utf-8"?>
<svg xmlns="http://www.w3.org/2000/svg" xmlns:xlink="http://www.w3.org/1999/xlink" width="600" height="400" viewBox="0 0 2400 1600">
<defs>
  <clipPath id="clip250">
    <rect x="0" y="0" width="2400" height="1600"/>
  </clipPath>
</defs>
<path clip-path="url(#clip250)" d="
M0 1600 L2400 1600 L2400 0 L0 0  Z
  " fill="#ffffff" fill-rule="evenodd" fill-opacity="1"/>
<defs>
  <clipPath id="clip251">
    <rect x="480" y="0" width="1681" height="1600"/>
  </clipPath>
</defs>
<path clip-path="url(#clip250)" d="
M378.78 1394.45 L2352.76 1394.45 L2352.76 188.976 L378.78 188.976  Z
  " fill="#ffffff" fill-rule="evenodd" fill-opacity="1"/>
<defs>
  <clipPath id="clip252">
    <rect x="378" y="188" width="1975" height="1206"/>
  </clipPath>
</defs>
<polyline clip-path="url(#clip250)" style="stroke:#000000; stroke-linecap:butt; stroke-linejoin:round; stroke-width:4; stroke-opacity:1; fill:none" points="
  378.78,1394.45 2352.76,1394.45 
  "/>
<path clip-path="url(#clip250)" d="M716.275 1474.81 L716.275 1585.67 L739.574 1585.67 Q769.079 1585.67 782.733 1572.3 Q796.483 1558.93 796.483 1530.1 Q796.483 1501.45 782.733 1488.18 Q769.079 1474.81 739.574 1474.81 L716.275 1474.81 M696.987 1458.96 L736.614 1458.96 Q778.054 1458.96 797.438 1476.24 Q816.821 1493.43 816.821 1530.1 Q816.821 1566.95 797.342 1584.24 Q777.863 1601.52 736.614 1601.52 L696.987 1601.52 L696.987 1458.96 Z" fill="#000000" fill-rule="evenodd" fill-opacity="1" /><path clip-path="url(#clip250)" d="M846.804 1494.58 L864.373 1494.58 L864.373 1601.52 L846.804 1601.52 L846.804 1494.58 M846.804 1452.94 L864.373 1452.94 L864.373 1475.19 L846.804 1475.19 L846.804 1452.94 Z" fill="#000000" fill-rule="evenodd" fill-opacity="1" /><path clip-path="url(#clip250)" d="M969.312 1497.73 L969.312 1514.34 Q961.864 1510.52 953.843 1508.61 Q945.823 1506.7 937.229 1506.7 Q924.147 1506.7 917.559 1510.71 Q911.066 1514.72 911.066 1522.74 Q911.066 1528.86 915.745 1532.39 Q920.423 1535.83 934.555 1538.98 L940.571 1540.31 Q959.286 1544.32 967.116 1551.68 Q975.041 1558.93 975.041 1572.01 Q975.041 1586.91 963.201 1595.6 Q951.456 1604.29 930.831 1604.29 Q922.238 1604.29 912.88 1602.57 Q903.618 1600.95 893.305 1597.6 L893.305 1579.46 Q903.045 1584.52 912.498 1587.1 Q921.951 1589.58 931.213 1589.58 Q943.626 1589.58 950.31 1585.38 Q956.994 1581.09 956.994 1573.35 Q956.994 1566.19 952.125 1562.37 Q947.35 1558.55 931.022 1555.02 L924.911 1553.59 Q908.583 1550.15 901.326 1543.08 Q894.069 1535.92 894.069 1523.51 Q894.069 1508.42 904.764 1500.21 Q915.458 1492 935.128 1492 Q944.868 1492 953.461 1493.43 Q962.055 1494.86 969.312 1497.73 Z" fill="#000000" fill-rule="evenodd" fill-opacity="1" /><path clip-path="url(#clip250)" d="M1020.4 1464.21 L1020.4 1494.58 L1056.59 1494.58 L1056.59 1508.23 L1020.4 1508.23 L1020.4 1566.29 Q1020.4 1579.37 1023.93 1583.09 Q1027.56 1586.82 1038.54 1586.82 L1056.59 1586.82 L1056.59 1601.52 L1038.54 1601.52 Q1018.2 1601.52 1010.47 1593.98 Q1002.73 1586.34 1002.73 1566.29 L1002.73 1508.23 L989.841 1508.23 L989.841 1494.58 L1002.73 1494.58 L1002.73 1464.21 L1020.4 1464.21 Z" fill="#000000" fill-rule="evenodd" fill-opacity="1" /><path clip-path="url(#clip250)" d="M1128.3 1547.76 Q1107 1547.76 1098.79 1552.63 Q1090.58 1557.5 1090.58 1569.25 Q1090.58 1578.6 1096.69 1584.14 Q1102.9 1589.58 1113.5 1589.58 Q1128.1 1589.58 1136.89 1579.27 Q1145.77 1568.86 1145.77 1551.68 L1145.77 1547.76 L1128.3 1547.76 M1163.34 1540.5 L1163.34 1601.52 L1145.77 1601.52 L1145.77 1585.29 Q1139.75 1595.03 1130.78 1599.71 Q1121.8 1604.29 1108.82 1604.29 Q1092.39 1604.29 1082.65 1595.12 Q1073.01 1585.86 1073.01 1570.39 Q1073.01 1552.34 1085.04 1543.18 Q1097.17 1534.01 1121.13 1534.01 L1145.77 1534.01 L1145.77 1532.29 Q1145.77 1520.17 1137.75 1513.58 Q1129.82 1506.89 1115.4 1506.89 Q1106.24 1506.89 1097.55 1509.09 Q1088.86 1511.29 1080.84 1515.68 L1080.84 1499.45 Q1090.48 1495.72 1099.55 1493.91 Q1108.63 1492 1117.22 1492 Q1140.42 1492 1151.88 1504.03 Q1163.34 1516.06 1163.34 1540.5 Z" fill="#000000" fill-rule="evenodd" fill-opacity="1" /><path clip-path="url(#clip250)" d="M1288.42 1536.97 L1288.42 1601.52 L1270.86 1601.52 L1270.86 1537.54 Q1270.86 1522.36 1264.94 1514.82 Q1259.02 1507.28 1247.18 1507.28 Q1232.95 1507.28 1224.74 1516.35 Q1216.52 1525.42 1216.52 1541.08 L1216.52 1601.52 L1198.86 1601.52 L1198.86 1494.58 L1216.52 1494.58 L1216.52 1511.19 Q1222.83 1501.55 1231.32 1496.77 Q1239.92 1492 1251.09 1492 Q1269.52 1492 1278.97 1503.46 Q1288.42 1514.82 1288.42 1536.97 Z" fill="#000000" fill-rule="evenodd" fill-opacity="1" /><path clip-path="url(#clip250)" d="M1400.43 1498.68 L1400.43 1515.11 Q1392.98 1511 1385.44 1508.99 Q1377.99 1506.89 1370.35 1506.89 Q1353.26 1506.89 1343.81 1517.78 Q1334.35 1528.57 1334.35 1548.14 Q1334.35 1567.72 1343.81 1578.6 Q1353.26 1589.39 1370.35 1589.39 Q1377.99 1589.39 1385.44 1587.39 Q1392.98 1585.29 1400.43 1581.18 L1400.43 1597.41 Q1393.08 1600.85 1385.15 1602.57 Q1377.32 1604.29 1368.44 1604.29 Q1344.28 1604.29 1330.06 1589.11 Q1315.83 1573.92 1315.83 1548.14 Q1315.83 1521.98 1330.15 1506.99 Q1344.57 1492 1369.59 1492 Q1377.7 1492 1385.44 1493.72 Q1393.17 1495.34 1400.43 1498.68 Z" fill="#000000" fill-rule="evenodd" fill-opacity="1" /><path clip-path="url(#clip250)" d="M1522.46 1543.66 L1522.46 1552.25 L1441.68 1552.25 Q1442.83 1570.39 1452.56 1579.94 Q1462.4 1589.39 1479.87 1589.39 Q1489.99 1589.39 1499.45 1586.91 Q1509 1584.43 1518.35 1579.46 L1518.35 1596.08 Q1508.9 1600.09 1498.97 1602.19 Q1489.04 1604.29 1478.82 1604.29 Q1453.23 1604.29 1438.24 1589.39 Q1423.35 1574.5 1423.35 1549.1 Q1423.35 1522.84 1437.48 1507.47 Q1451.71 1492 1475.77 1492 Q1497.35 1492 1509.86 1505.94 Q1522.46 1519.78 1522.46 1543.66 M1504.89 1538.5 Q1504.7 1524.08 1496.77 1515.49 Q1488.94 1506.89 1475.96 1506.89 Q1461.25 1506.89 1452.37 1515.2 Q1443.59 1523.51 1442.25 1538.59 L1504.89 1538.5 Z" fill="#000000" fill-rule="evenodd" fill-opacity="1" /><path clip-path="url(#clip250)" d="M1655.66 1453.14 Q1642.87 1475.1 1636.66 1496.58 Q1630.45 1518.07 1630.45 1540.12 Q1630.45 1562.18 1636.66 1583.86 Q1642.96 1605.43 1655.66 1627.3 L1640.38 1627.3 Q1626.06 1604.86 1618.9 1583.19 Q1611.83 1561.51 1611.83 1540.12 Q1611.83 1518.83 1618.9 1497.25 Q1625.97 1475.67 1640.38 1453.14 L1655.66 1453.14 Z" fill="#000000" fill-rule="evenodd" fill-opacity="1" /><path clip-path="url(#clip250)" d="M1689.08 1452.94 L1706.75 1452.94 L1706.75 1540.7 L1759.17 1494.58 L1781.61 1494.58 L1724.89 1544.61 L1784 1601.52 L1761.08 1601.52 L1706.75 1549.29 L1706.75 1601.52 L1689.08 1601.52 L1689.08 1452.94 Z" fill="#000000" fill-rule="evenodd" fill-opacity="1" /><path clip-path="url(#clip250)" d="M1886.26 1515.11 Q1892.85 1503.27 1902.02 1497.63 Q1911.18 1492 1923.6 1492 Q1940.31 1492 1949.38 1503.74 Q1958.45 1515.39 1958.45 1536.97 L1958.45 1601.52 L1940.78 1601.52 L1940.78 1537.54 Q1940.78 1522.17 1935.34 1514.72 Q1929.9 1507.28 1918.73 1507.28 Q1905.07 1507.28 1897.15 1516.35 Q1889.22 1525.42 1889.22 1541.08 L1889.22 1601.52 L1871.56 1601.52 L1871.56 1537.54 Q1871.56 1522.08 1866.11 1514.72 Q1860.67 1507.28 1849.31 1507.28 Q1835.84 1507.28 1827.92 1516.44 Q1819.99 1525.51 1819.99 1541.08 L1819.99 1601.52 L1802.33 1601.52 L1802.33 1494.58 L1819.99 1494.58 L1819.99 1511.19 Q1826.01 1501.36 1834.41 1496.68 Q1842.81 1492 1854.37 1492 Q1866.02 1492 1874.13 1497.92 Q1882.35 1503.84 1886.26 1515.11 Z" fill="#000000" fill-rule="evenodd" fill-opacity="1" /><path clip-path="url(#clip250)" d="M1990.72 1453.14 L2006 1453.14 Q2020.32 1475.67 2027.39 1497.25 Q2034.55 1518.83 2034.55 1540.12 Q2034.55 1561.51 2027.39 1583.19 Q2020.32 1604.86 2006 1627.3 L1990.72 1627.3 Q2003.42 1605.43 2009.63 1583.86 Q2015.93 1562.18 2015.93 1540.12 Q2015.93 1518.07 2009.63 1496.58 Q2003.42 1475.1 1990.72 1453.14 Z" fill="#000000" fill-rule="evenodd" fill-opacity="1" /><polyline clip-path="url(#clip250)" style="stroke:#000000; stroke-linecap:butt; stroke-linejoin:round; stroke-width:4; stroke-opacity:1; fill:none" points="
  378.78,1394.45 378.78,188.976 
  "/>
<path clip-path="url(#clip250)" d="M137.303 1416.67 L248.162 1416.67 L248.162 1393.37 Q248.162 1363.86 234.794 1350.21 Q221.426 1336.46 192.589 1336.46 Q163.944 1336.46 150.671 1350.21 Q137.303 1363.86 137.303 1393.37 L137.303 1416.67 M121.452 1435.95 L121.452 1396.33 Q121.452 1354.89 138.735 1335.5 Q155.923 1316.12 192.589 1316.12 Q229.447 1316.12 246.73 1335.6 Q264.012 1355.08 264.012 1396.33 L264.012 1435.95 L121.452 1435.95 Z" fill="#000000" fill-rule="evenodd" fill-opacity="1" /><path clip-path="url(#clip250)" d="M134.534 1227.51 Q134.534 1248.52 150.194 1260.93 Q165.853 1273.25 192.876 1273.25 Q219.803 1273.25 235.462 1260.93 Q251.122 1248.52 251.122 1227.51 Q251.122 1206.5 235.462 1194.28 Q219.803 1181.96 192.876 1181.96 Q165.853 1181.96 150.194 1194.28 Q134.534 1206.5 134.534 1227.51 M118.874 1227.51 Q118.874 1197.53 139.022 1179.57 Q159.074 1161.62 192.876 1161.62 Q226.582 1161.62 246.73 1179.57 Q266.782 1197.53 266.782 1227.51 Q266.782 1257.59 246.73 1275.63 Q226.678 1293.58 192.876 1293.58 Q159.074 1293.58 139.022 1275.63 Q118.874 1257.59 118.874 1227.51 Z" fill="#000000" fill-rule="evenodd" fill-opacity="1" /><path clip-path="url(#clip250)" d="M121.452 1100.99 L121.452 1084.76 L282.155 1134.41 L282.155 1150.64 L121.452 1100.99 Z" fill="#000000" fill-rule="evenodd" fill-opacity="1" /><path clip-path="url(#clip250)" d="M134.534 1007.7 Q134.534 1028.71 150.194 1041.12 Q165.853 1053.44 192.876 1053.44 Q219.803 1053.44 235.462 1041.12 Q251.122 1028.71 251.122 1007.7 Q251.122 986.694 235.462 974.472 Q219.803 962.154 192.876 962.154 Q165.853 962.154 150.194 974.472 Q134.534 986.694 134.534 1007.7 M118.874 1007.7 Q118.874 977.718 139.022 959.767 Q159.074 941.815 192.876 941.815 Q226.582 941.815 246.73 959.767 Q266.782 977.718 266.782 1007.7 Q266.782 1037.78 246.73 1055.83 Q226.678 1073.78 192.876 1073.78 Q159.074 1073.78 139.022 1055.83 Q118.874 1037.78 118.874 1007.7 Z" fill="#000000" fill-rule="evenodd" fill-opacity="1" /><path clip-path="url(#clip250)" d="M137.303 892.354 L248.162 892.354 L248.162 869.055 Q248.162 839.55 234.794 825.896 Q221.426 812.146 192.589 812.146 Q163.944 812.146 150.671 825.896 Q137.303 839.55 137.303 869.055 L137.303 892.354 M121.452 911.642 L121.452 872.016 Q121.452 830.575 138.735 811.191 Q155.923 791.808 192.589 791.808 Q229.447 791.808 246.73 811.287 Q264.012 830.766 264.012 872.016 L264.012 911.642 L121.452 911.642 Z" fill="#000000" fill-rule="evenodd" fill-opacity="1" /><path clip-path="url(#clip250)" d="M115.628 657.459 Q137.59 670.254 159.074 676.461 Q180.558 682.668 202.615 682.668 Q224.672 682.668 246.348 676.461 Q267.927 670.159 289.794 657.459 L289.794 672.737 Q267.354 687.06 245.679 694.221 Q224.004 701.287 202.615 701.287 Q181.322 701.287 159.742 694.221 Q138.162 687.155 115.628 672.737 L115.628 657.459 Z" fill="#000000" fill-rule="evenodd" fill-opacity="1" /><path clip-path="url(#clip250)" d="M177.598 540.108 Q165.758 533.519 160.124 524.352 Q154.49 515.186 154.49 502.773 Q154.49 486.063 166.235 476.992 Q177.884 467.92 199.464 467.92 L264.012 467.92 L264.012 485.585 L200.037 485.585 Q184.664 485.585 177.216 491.028 Q169.768 496.471 169.768 507.642 Q169.768 521.297 178.839 529.222 Q187.91 537.148 203.57 537.148 L264.012 537.148 L264.012 554.812 L200.037 554.812 Q184.568 554.812 177.216 560.255 Q169.768 565.698 169.768 577.06 Q169.768 590.524 178.935 598.449 Q188.006 606.375 203.57 606.375 L264.012 606.375 L264.012 624.039 L157.069 624.039 L157.069 606.375 L173.683 606.375 Q163.848 600.359 159.169 591.956 Q154.49 583.554 154.49 572 Q154.49 560.351 160.411 552.234 Q166.331 544.022 177.598 540.108 Z" fill="#000000" fill-rule="evenodd" fill-opacity="1" /><path clip-path="url(#clip250)" d="M209.299 362.504 Q190.202 362.504 179.699 370.43 Q169.195 378.259 169.195 392.487 Q169.195 406.619 179.699 414.544 Q190.202 422.374 209.299 422.374 Q228.301 422.374 238.804 414.544 Q249.308 406.619 249.308 392.487 Q249.308 378.259 238.804 370.43 Q228.301 362.504 209.299 362.504 M250.74 344.935 Q278.049 344.935 291.321 357.062 Q304.689 369.188 304.689 394.206 Q304.689 403.468 303.257 411.679 Q301.92 419.891 299.056 427.626 L281.964 427.626 Q286.165 419.891 288.17 412.348 Q290.176 404.804 290.176 396.975 Q290.176 379.692 281.104 371.098 Q272.129 362.504 253.891 362.504 L245.202 362.504 Q254.655 367.947 259.334 376.445 Q264.012 384.943 264.012 396.784 Q264.012 416.454 249.021 428.485 Q234.03 440.516 209.299 440.516 Q184.473 440.516 169.482 428.485 Q154.49 416.454 154.49 396.784 Q154.49 384.943 159.169 376.445 Q163.848 367.947 173.301 362.504 L157.069 362.504 L157.069 344.935 L250.74 344.935 Z" fill="#000000" fill-rule="evenodd" fill-opacity="1" /><path clip-path="url(#clip250)" d="M121.452 277.522 L121.452 261.29 L282.155 310.942 L282.155 327.175 L121.452 277.522 Z" fill="#000000" fill-rule="evenodd" fill-opacity="1" /><path clip-path="url(#clip250)" d="M115.437 242.861 L115.437 225.292 L264.012 225.292 L264.012 242.861 L115.437 242.861 Z" fill="#000000" fill-rule="evenodd" fill-opacity="1" /><path clip-path="url(#clip250)" d="M115.628 191.299 L115.628 176.021 Q138.162 161.698 159.742 154.632 Q181.322 147.471 202.615 147.471 Q224.004 147.471 245.679 154.632 Q267.354 161.698 289.794 176.021 L289.794 191.299 Q267.927 178.599 246.348 172.393 Q224.672 166.09 202.615 166.09 Q180.558 166.09 159.074 172.393 Q137.59 178.599 115.628 191.299 Z" fill="#000000" fill-rule="evenodd" fill-opacity="1" /><polyline clip-path="url(#clip252)" style="stroke:#000000; stroke-linecap:butt; stroke-linejoin:round; stroke-width:12; stroke-opacity:1; fill:none" points="
  434.648,223.093 527.76,323.786 620.872,412.072 713.984,489.182 807.096,556.236 900.208,614.25 993.32,664.149 1086.43,706.771 1179.54,742.875 1272.66,773.152 
  1365.77,798.226 1458.88,818.663 1551.99,834.974 1645.1,847.625 1738.22,857.032 1831.33,863.574 1924.44,867.593 2017.55,869.396 2110.66,869.26 2203.78,867.436 
  2296.89,864.146 
  "/>
<polyline clip-path="url(#clip252)" style="stroke:#008000; stroke-linecap:butt; stroke-linejoin:round; stroke-width:12; stroke-opacity:1; fill:none" stroke-dasharray="48, 24, 6, 24, 6, 24" points="
  434.648,441.406 527.76,485.954 620.872,528.683 713.984,569.669 807.096,608.981 900.208,646.69 993.32,682.86 1086.43,717.553 1179.54,750.831 1272.66,782.75 
  1365.77,813.367 1458.88,842.735 1551.99,870.903 1645.1,897.923 1738.22,923.839 1831.33,948.698 1924.44,972.543 2017.55,995.414 2110.66,1017.35 2203.78,1038.39 
  2296.89,1058.58 
  "/>
<polyline clip-path="url(#clip252)" style="stroke:#0000ff; stroke-linecap:butt; stroke-linejoin:round; stroke-width:12; stroke-opacity:1; fill:none" stroke-dasharray="48, 30" points="
  434.648,878.032 527.76,920.271 620.872,959.786 713.984,996.752 807.096,1031.33 900.208,1063.69 993.32,1093.95 1086.43,1122.27 1179.54,1148.75 1272.66,1173.53 
  1365.77,1196.71 1458.88,1218.4 1551.99,1238.69 1645.1,1257.67 1738.22,1275.42 1831.33,1292.03 1924.44,1307.57 2017.55,1322.11 2110.66,1335.71 2203.78,1348.43 
  2296.89,1360.33 
  "/>
<polyline clip-path="url(#clip252)" style="stroke:#ff0000; stroke-linecap:butt; stroke-linejoin:round; stroke-width:8; stroke-opacity:1; fill:none" points="
  434.648,2599.92 434.648,-1016.5 
  "/>
<path clip-path="url(#clip250)" d="
M1667.07 851.239 L2286.96 851.239 L2286.96 229.159 L1667.07 229.159  Z
  " fill="#ffffff" fill-rule="evenodd" fill-opacity="1"/>
<polyline clip-path="url(#clip250)" style="stroke:#000000; stroke-linecap:butt; stroke-linejoin:round; stroke-width:4; stroke-opacity:1; fill:none" points="
  1667.07,851.239 2286.96,851.239 2286.96,229.159 1667.07,229.159 1667.07,851.239 
  "/>
<polyline clip-path="url(#clip250)" style="stroke:#000000; stroke-linecap:butt; stroke-linejoin:round; stroke-width:12; stroke-opacity:1; fill:none" points="
  1689.01,384.679 1820.6,384.679 
  "/>
<path clip-path="url(#clip250)" d="M1856.56 344.366 L1856.56 424.991 L1873.51 424.991 Q1894.97 424.991 1904.9 415.269 Q1914.9 405.547 1914.9 384.575 Q1914.9 363.741 1904.9 354.089 Q1894.97 344.366 1873.51 344.366 L1856.56 344.366 M1842.54 332.839 L1871.36 332.839 Q1901.5 332.839 1915.59 345.408 Q1929.69 357.908 1929.69 384.575 Q1929.69 411.38 1915.52 423.949 Q1901.36 436.519 1871.36 436.519 L1842.54 436.519 L1842.54 332.839 Z" fill="#000000" fill-rule="evenodd" fill-opacity="1" /><path clip-path="url(#clip250)" d="M1994.13 342.353 Q1978.86 342.353 1969.83 353.741 Q1960.87 365.13 1960.87 384.783 Q1960.87 404.366 1969.83 415.755 Q1978.86 427.144 1994.13 427.144 Q2009.41 427.144 2018.3 415.755 Q2027.26 404.366 2027.26 384.783 Q2027.26 365.13 2018.3 353.741 Q2009.41 342.353 1994.13 342.353 M1994.13 330.964 Q2015.94 330.964 2028.99 345.616 Q2042.05 360.2 2042.05 384.783 Q2042.05 409.297 2028.99 423.949 Q2015.94 438.533 1994.13 438.533 Q1972.26 438.533 1959.13 423.949 Q1946.08 409.366 1946.08 384.783 Q1946.08 360.2 1959.13 345.616 Q1972.26 330.964 1994.13 330.964 Z" fill="#000000" fill-rule="evenodd" fill-opacity="1" /><polyline clip-path="url(#clip250)" style="stroke:#008000; stroke-linecap:butt; stroke-linejoin:round; stroke-width:12; stroke-opacity:1; fill:none" stroke-dasharray="48, 24, 6, 24, 6, 24" points="
  1689.01,540.199 1820.6,540.199 
  "/>
<path clip-path="url(#clip250)" d="M1926.15 496.345 L1926.15 511.136 Q1919.06 504.539 1911.01 501.275 Q1903.02 498.011 1894 498.011 Q1876.22 498.011 1866.77 508.914 Q1857.33 519.747 1857.33 540.303 Q1857.33 560.789 1866.77 571.692 Q1876.22 582.525 1894 582.525 Q1903.02 582.525 1911.01 579.261 Q1919.06 575.997 1926.15 569.4 L1926.15 584.053 Q1918.79 589.053 1910.52 591.553 Q1902.33 594.053 1893.16 594.053 Q1869.62 594.053 1856.08 579.678 Q1842.54 565.233 1842.54 540.303 Q1842.54 515.303 1856.08 500.928 Q1869.62 486.484 1893.16 486.484 Q1902.47 486.484 1910.66 488.984 Q1918.93 491.414 1926.15 496.345 Z" fill="#000000" fill-rule="evenodd" fill-opacity="1" /><path clip-path="url(#clip250)" d="M1961.84 542.525 L1961.84 580.511 L1984.34 580.511 Q1995.66 580.511 2001.08 575.858 Q2006.56 571.136 2006.56 561.483 Q2006.56 551.761 2001.08 547.178 Q1995.66 542.525 1984.34 542.525 L1961.84 542.525 M1961.84 499.886 L1961.84 531.136 L1982.61 531.136 Q1992.88 531.136 1997.88 527.317 Q2002.95 523.428 2002.95 515.511 Q2002.95 507.664 1997.88 503.775 Q1992.88 499.886 1982.61 499.886 L1961.84 499.886 M1947.81 488.359 L1983.65 488.359 Q1999.69 488.359 2008.37 495.025 Q2017.05 501.692 2017.05 513.984 Q2017.05 523.497 2012.61 529.122 Q2008.16 534.747 1999.55 536.136 Q2009.9 538.358 2015.59 545.442 Q2021.36 552.456 2021.36 563.011 Q2021.36 576.9 2011.91 584.469 Q2002.47 592.039 1985.04 592.039 L1947.81 592.039 L1947.81 488.359 Z" fill="#000000" fill-rule="evenodd" fill-opacity="1" /><path clip-path="url(#clip250)" d="M2084.97 497.873 Q2069.69 497.873 2060.66 509.261 Q2051.7 520.65 2051.7 540.303 Q2051.7 559.886 2060.66 571.275 Q2069.69 582.664 2084.97 582.664 Q2100.24 582.664 2109.13 571.275 Q2118.09 559.886 2118.09 540.303 Q2118.09 520.65 2109.13 509.261 Q2100.24 497.873 2084.97 497.873 M2084.97 486.484 Q2106.77 486.484 2119.83 501.136 Q2132.88 515.72 2132.88 540.303 Q2132.88 564.817 2119.83 579.469 Q2106.77 594.053 2084.97 594.053 Q2063.09 594.053 2049.97 579.469 Q2036.91 564.886 2036.91 540.303 Q2036.91 515.72 2049.97 501.136 Q2063.09 486.484 2084.97 486.484 Z" fill="#000000" fill-rule="evenodd" fill-opacity="1" /><path clip-path="url(#clip250)" d="M2168.85 499.886 L2168.85 580.511 L2185.8 580.511 Q2207.26 580.511 2217.19 570.789 Q2227.19 561.067 2227.19 540.095 Q2227.19 519.261 2217.19 509.609 Q2207.26 499.886 2185.8 499.886 L2168.85 499.886 M2154.83 488.359 L2183.65 488.359 Q2213.79 488.359 2227.88 500.928 Q2241.98 513.428 2241.98 540.095 Q2241.98 566.9 2227.81 579.469 Q2213.65 592.039 2183.65 592.039 L2154.83 592.039 L2154.83 488.359 Z" fill="#000000" fill-rule="evenodd" fill-opacity="1" /><polyline clip-path="url(#clip250)" style="stroke:#0000ff; stroke-linecap:butt; stroke-linejoin:round; stroke-width:12; stroke-opacity:1; fill:none" stroke-dasharray="48, 30" points="
  1689.01,695.719 1820.6,695.719 
  "/>
<path clip-path="url(#clip250)" d="M1842.54 643.879 L1861.43 643.879 L1907.4 730.614 L1907.4 643.879 L1921.01 643.879 L1921.01 747.559 L1902.12 747.559 L1856.15 660.823 L1856.15 747.559 L1842.54 747.559 L1842.54 643.879 Z" fill="#000000" fill-rule="evenodd" fill-opacity="1" /><path clip-path="url(#clip250)" d="M1962.95 698.045 L1962.95 736.031 L1985.45 736.031 Q1996.77 736.031 2002.19 731.378 Q2007.68 726.656 2007.68 717.003 Q2007.68 707.281 2002.19 702.698 Q1996.77 698.045 1985.45 698.045 L1962.95 698.045 M1962.95 655.406 L1962.95 686.656 L1983.72 686.656 Q1993.99 686.656 1998.99 682.837 Q2004.06 678.948 2004.06 671.031 Q2004.06 663.184 1998.99 659.295 Q1993.99 655.406 1983.72 655.406 L1962.95 655.406 M1948.93 643.879 L1984.76 643.879 Q2000.8 643.879 2009.48 650.545 Q2018.16 657.212 2018.16 669.504 Q2018.16 679.017 2013.72 684.642 Q2009.27 690.267 2000.66 691.656 Q2011.01 693.878 2016.7 700.962 Q2022.47 707.976 2022.47 718.531 Q2022.47 732.42 2013.02 739.989 Q2003.58 747.559 1986.15 747.559 L1948.93 747.559 L1948.93 643.879 Z" fill="#000000" fill-rule="evenodd" fill-opacity="1" /><path clip-path="url(#clip250)" d="M2086.08 653.393 Q2070.8 653.393 2061.77 664.781 Q2052.81 676.17 2052.81 695.823 Q2052.81 715.406 2061.77 726.795 Q2070.8 738.184 2086.08 738.184 Q2101.36 738.184 2110.24 726.795 Q2119.2 715.406 2119.2 695.823 Q2119.2 676.17 2110.24 664.781 Q2101.36 653.393 2086.08 653.393 M2086.08 642.004 Q2107.88 642.004 2120.94 656.656 Q2133.99 671.24 2133.99 695.823 Q2133.99 720.337 2120.94 734.989 Q2107.88 749.573 2086.08 749.573 Q2064.2 749.573 2051.08 734.989 Q2038.02 720.406 2038.02 695.823 Q2038.02 671.24 2051.08 656.656 Q2064.2 642.004 2086.08 642.004 Z" fill="#000000" fill-rule="evenodd" fill-opacity="1" /><path clip-path="url(#clip250)" d="M2169.97 655.406 L2169.97 736.031 L2186.91 736.031 Q2208.37 736.031 2218.3 726.309 Q2228.3 716.587 2228.3 695.615 Q2228.3 674.781 2218.3 665.129 Q2208.37 655.406 2186.91 655.406 L2169.97 655.406 M2155.94 643.879 L2184.76 643.879 Q2214.9 643.879 2228.99 656.448 Q2243.09 668.948 2243.09 695.615 Q2243.09 722.42 2228.92 734.989 Q2214.76 747.559 2184.76 747.559 L2155.94 747.559 L2155.94 643.879 Z" fill="#000000" fill-rule="evenodd" fill-opacity="1" /><path clip-path="url(#clip250)" d="M110.711 79.3771 L120.155 79.3771 L134.692 137.803 L149.183 79.3771 L159.692 79.3771 L174.229 137.803 L188.72 79.3771 L198.21 79.3771 L180.849 148.497 L169.09 148.497 L154.507 88.4974 L139.785 148.497 L128.025 148.497 L110.711 79.3771 Z" fill="#ff0000" fill-rule="evenodd" fill-opacity="1" /><path clip-path="url(#clip250)" d="M227.747 122.432 Q217.423 122.432 213.442 124.793 Q209.46 127.155 209.46 132.849 Q209.46 137.386 212.423 140.071 Q215.432 142.71 220.571 142.71 Q227.655 142.71 231.914 137.71 Q236.219 132.664 236.219 124.331 L236.219 122.432 L227.747 122.432 M244.738 118.914 L244.738 148.497 L236.219 148.497 L236.219 140.627 Q233.303 145.349 228.951 147.617 Q224.599 149.84 218.303 149.84 Q210.34 149.84 205.618 145.395 Q200.942 140.905 200.942 133.405 Q200.942 124.655 206.775 120.21 Q212.655 115.766 224.275 115.766 L236.219 115.766 L236.219 114.932 Q236.219 109.053 232.33 105.858 Q228.488 102.618 221.497 102.618 Q217.053 102.618 212.84 103.682 Q208.627 104.747 204.738 106.877 L204.738 99.0066 Q209.414 97.201 213.812 96.3214 Q218.21 95.3955 222.377 95.3955 Q233.627 95.3955 239.182 101.229 Q244.738 107.062 244.738 118.914 Z" fill="#ff0000" fill-rule="evenodd" fill-opacity="1" /><path clip-path="url(#clip250)" d="M295.339 98.1733 L295.339 106.229 Q291.728 104.377 287.839 103.451 Q283.951 102.525 279.784 102.525 Q273.441 102.525 270.247 104.47 Q267.099 106.414 267.099 110.303 Q267.099 113.266 269.367 114.979 Q271.636 116.645 278.488 118.173 L281.404 118.821 Q290.478 120.766 294.275 124.331 Q298.117 127.849 298.117 134.192 Q298.117 141.414 292.376 145.627 Q286.682 149.84 276.682 149.84 Q272.515 149.84 267.978 149.006 Q263.488 148.219 258.488 146.599 L258.488 137.803 Q263.21 140.256 267.793 141.506 Q272.377 142.71 276.867 142.71 Q282.886 142.71 286.126 140.673 Q289.367 138.59 289.367 134.84 Q289.367 131.368 287.006 129.516 Q284.691 127.664 276.775 125.951 L273.812 125.256 Q265.895 123.59 262.377 120.164 Q258.858 116.692 258.858 110.673 Q258.858 103.358 264.043 99.377 Q269.228 95.3955 278.765 95.3955 Q283.488 95.3955 287.654 96.0899 Q291.821 96.7844 295.339 98.1733 Z" fill="#ff0000" fill-rule="evenodd" fill-opacity="1" /><path clip-path="url(#clip250)" d="M320.108 81.9233 L320.108 96.6455 L337.654 96.6455 L337.654 103.266 L320.108 103.266 L320.108 131.414 Q320.108 137.756 321.821 139.562 Q323.58 141.367 328.904 141.367 L337.654 141.367 L337.654 148.497 L328.904 148.497 Q319.043 148.497 315.293 144.84 Q311.543 141.136 311.543 131.414 L311.543 103.266 L305.293 103.266 L305.293 96.6455 L311.543 96.6455 L311.543 81.9233 L320.108 81.9233 Z" fill="#ff0000" fill-rule="evenodd" fill-opacity="1" /><path clip-path="url(#clip250)" d="M393.209 120.442 L393.209 124.608 L354.043 124.608 Q354.598 133.405 359.32 138.034 Q364.089 142.617 372.561 142.617 Q377.469 142.617 382.052 141.414 Q386.681 140.21 391.218 137.803 L391.218 145.858 Q386.635 147.803 381.82 148.821 Q377.006 149.84 372.052 149.84 Q359.645 149.84 352.376 142.617 Q345.154 135.395 345.154 123.081 Q345.154 110.349 352.006 102.895 Q358.904 95.3955 370.57 95.3955 Q381.033 95.3955 387.098 102.155 Q393.209 108.868 393.209 120.442 M384.691 117.942 Q384.598 110.951 380.756 106.784 Q376.959 102.618 370.663 102.618 Q363.533 102.618 359.228 106.645 Q354.969 110.673 354.321 117.988 L384.691 117.942 Z" fill="#ff0000" fill-rule="evenodd" fill-opacity="1" /><path clip-path="url(#clip250)" d="M447.051 87.0622 L447.051 140.812 L458.348 140.812 Q472.653 140.812 479.274 134.33 Q485.94 127.849 485.94 113.868 Q485.94 99.9788 479.274 93.5437 Q472.653 87.0622 458.348 87.0622 L447.051 87.0622 M437.7 79.3771 L456.913 79.3771 Q477.005 79.3771 486.403 87.7566 Q495.801 96.0899 495.801 113.868 Q495.801 131.738 486.357 140.117 Q476.912 148.497 456.913 148.497 L437.7 148.497 L437.7 79.3771 Z" fill="#ff0000" fill-rule="evenodd" fill-opacity="1" /><path clip-path="url(#clip250)" d="M510.338 96.6455 L518.857 96.6455 L518.857 148.497 L510.338 148.497 L510.338 96.6455 M510.338 76.4604 L518.857 76.4604 L518.857 87.2474 L510.338 87.2474 L510.338 76.4604 Z" fill="#ff0000" fill-rule="evenodd" fill-opacity="1" /><path clip-path="url(#clip250)" d="M569.736 98.1733 L569.736 106.229 Q566.125 104.377 562.236 103.451 Q558.347 102.525 554.181 102.525 Q547.838 102.525 544.644 104.47 Q541.495 106.414 541.495 110.303 Q541.495 113.266 543.764 114.979 Q546.032 116.645 552.884 118.173 L555.801 118.821 Q564.875 120.766 568.671 124.331 Q572.514 127.849 572.514 134.192 Q572.514 141.414 566.773 145.627 Q561.079 149.84 551.079 149.84 Q546.912 149.84 542.375 149.006 Q537.884 148.219 532.884 146.599 L532.884 137.803 Q537.607 140.256 542.19 141.506 Q546.773 142.71 551.264 142.71 Q557.282 142.71 560.523 140.673 Q563.764 138.59 563.764 134.84 Q563.764 131.368 561.403 129.516 Q559.088 127.664 551.171 125.951 L548.208 125.256 Q540.292 123.59 536.773 120.164 Q533.255 116.692 533.255 110.673 Q533.255 103.358 538.44 99.377 Q543.625 95.3955 553.162 95.3955 Q557.884 95.3955 562.051 96.0899 Q566.218 96.7844 569.736 98.1733 Z" fill="#ff0000" fill-rule="evenodd" fill-opacity="1" /><path clip-path="url(#clip250)" d="M623.393 98.6362 L623.393 106.599 Q619.782 104.608 616.125 103.636 Q612.514 102.618 608.81 102.618 Q600.523 102.618 595.94 107.895 Q591.356 113.127 591.356 122.618 Q591.356 132.108 595.94 137.386 Q600.523 142.617 608.81 142.617 Q612.514 142.617 616.125 141.645 Q619.782 140.627 623.393 138.636 L623.393 146.506 Q619.828 148.173 615.986 149.006 Q612.189 149.84 607.884 149.84 Q596.171 149.84 589.273 142.479 Q582.375 135.118 582.375 122.618 Q582.375 109.932 589.319 102.664 Q596.31 95.3955 608.44 95.3955 Q612.375 95.3955 616.125 96.2288 Q619.875 97.0159 623.393 98.6362 Z" fill="#ff0000" fill-rule="evenodd" fill-opacity="1" /><path clip-path="url(#clip250)" d="M681.309 117.201 L681.309 148.497 L672.791 148.497 L672.791 117.479 Q672.791 110.118 669.921 106.46 Q667.05 102.803 661.31 102.803 Q654.411 102.803 650.43 107.201 Q646.449 111.599 646.449 119.192 L646.449 148.497 L637.884 148.497 L637.884 76.4604 L646.449 76.4604 L646.449 104.701 Q649.504 100.025 653.624 97.7103 Q657.791 95.3955 663.208 95.3955 Q672.143 95.3955 676.726 100.951 Q681.309 106.46 681.309 117.201 Z" fill="#ff0000" fill-rule="evenodd" fill-opacity="1" /><path clip-path="url(#clip250)" d="M721.865 122.432 Q711.541 122.432 707.559 124.793 Q703.578 127.155 703.578 132.849 Q703.578 137.386 706.541 140.071 Q709.55 142.71 714.689 142.71 Q721.772 142.71 726.031 137.71 Q730.337 132.664 730.337 124.331 L730.337 122.432 L721.865 122.432 M738.855 118.914 L738.855 148.497 L730.337 148.497 L730.337 140.627 Q727.42 145.349 723.069 147.617 Q718.717 149.84 712.42 149.84 Q704.458 149.84 699.735 145.395 Q695.059 140.905 695.059 133.405 Q695.059 124.655 700.893 120.21 Q706.772 115.766 718.393 115.766 L730.337 115.766 L730.337 114.932 Q730.337 109.053 726.448 105.858 Q722.606 102.618 715.615 102.618 Q711.17 102.618 706.958 103.682 Q702.745 104.747 698.856 106.877 L698.856 99.0066 Q703.532 97.201 707.93 96.3214 Q712.328 95.3955 716.494 95.3955 Q727.744 95.3955 733.3 101.229 Q738.855 107.062 738.855 118.914 Z" fill="#ff0000" fill-rule="evenodd" fill-opacity="1" /><path clip-path="url(#clip250)" d="M786.448 104.608 Q785.013 103.775 783.3 103.405 Q781.633 102.988 779.596 102.988 Q772.374 102.988 768.485 107.71 Q764.642 112.386 764.642 121.182 L764.642 148.497 L756.078 148.497 L756.078 96.6455 L764.642 96.6455 L764.642 104.701 Q767.328 99.9788 771.633 97.7103 Q775.939 95.3955 782.096 95.3955 Q782.976 95.3955 784.04 95.5344 Q785.105 95.627 786.402 95.8585 L786.448 104.608 Z" fill="#ff0000" fill-rule="evenodd" fill-opacity="1" /><path clip-path="url(#clip250)" d="M827.836 121.969 Q827.836 112.71 823.994 107.618 Q820.198 102.525 813.3 102.525 Q806.448 102.525 802.605 107.618 Q798.809 112.71 798.809 121.969 Q798.809 131.182 802.605 136.275 Q806.448 141.367 813.3 141.367 Q820.198 141.367 823.994 136.275 Q827.836 131.182 827.836 121.969 M836.355 142.062 Q836.355 155.303 830.475 161.738 Q824.596 168.219 812.466 168.219 Q807.975 168.219 803.994 167.525 Q800.013 166.877 796.263 165.488 L796.263 157.201 Q800.013 159.238 803.67 160.21 Q807.327 161.182 811.124 161.182 Q819.503 161.182 823.67 156.784 Q827.836 152.432 827.836 143.59 L827.836 139.377 Q825.198 143.96 821.077 146.229 Q816.957 148.497 811.216 148.497 Q801.679 148.497 795.846 141.229 Q790.013 133.96 790.013 121.969 Q790.013 109.932 795.846 102.664 Q801.679 95.3955 811.216 95.3955 Q816.957 95.3955 821.077 97.664 Q825.198 99.9325 827.836 104.516 L827.836 96.6455 L836.355 96.6455 L836.355 142.062 Z" fill="#ff0000" fill-rule="evenodd" fill-opacity="1" /><path clip-path="url(#clip250)" d="M898.253 120.442 L898.253 124.608 L859.086 124.608 Q859.642 133.405 864.364 138.034 Q869.133 142.617 877.605 142.617 Q882.512 142.617 887.095 141.414 Q891.725 140.21 896.262 137.803 L896.262 145.858 Q891.679 147.803 886.864 148.821 Q882.049 149.84 877.095 149.84 Q864.688 149.84 857.42 142.617 Q850.197 135.395 850.197 123.081 Q850.197 110.349 857.049 102.895 Q863.947 95.3955 875.614 95.3955 Q886.077 95.3955 892.142 102.155 Q898.253 108.868 898.253 120.442 M889.734 117.942 Q889.642 110.951 885.799 106.784 Q882.003 102.618 875.707 102.618 Q868.577 102.618 864.271 106.645 Q860.012 110.673 859.364 117.988 L889.734 117.942 Z" fill="#ff0000" fill-rule="evenodd" fill-opacity="1" /></svg>
