<?xml version="1.0" encoding="utf-8"?>
<svg xmlns="http://www.w3.org/2000/svg" xmlns:xlink="http://www.w3.org/1999/xlink" width="400" height="450" viewBox="0 0 1600 1800">
<defs>
  <clipPath id="clip840">
    <rect x="0" y="0" width="1600" height="1800"/>
  </clipPath>
</defs>
<path clip-path="url(#clip840)" d="
M0 1800 L1600 1800 L1600 0 L0 0  Z
  " fill="#ffffff" fill-rule="evenodd" fill-opacity="1"/>
<defs>
  <clipPath id="clip841">
    <rect x="360" y="180" width="1261" height="1261"/>
  </clipPath>
</defs>
<defs>
  <clipPath id="clip842">
    <rect x="255" y="829" width="1108" height="834"/>
  </clipPath>
</defs>
<path clip-path="url(#clip840)" d="
M219.04 1534.78 L1552.76 1534.78 L1552.76 47.2441 L219.04 47.2441  Z
  " fill="#ffffff" fill-rule="evenodd" fill-opacity="1"/>
<defs>
  <clipPath id="clip843">
    <rect x="219" y="47" width="1335" height="1489"/>
  </clipPath>
</defs>
<polyline clip-path="url(#clip843)" style="stroke:#000000; stroke-linecap:round; stroke-linejoin:round; stroke-width:2; stroke-opacity:0.1; fill:none" points="
  256.787,1534.78 256.787,47.2441 
  "/>
<polyline clip-path="url(#clip843)" style="stroke:#000000; stroke-linecap:round; stroke-linejoin:round; stroke-width:2; stroke-opacity:0.1; fill:none" points="
  571.342,1534.78 571.342,47.2441 
  "/>
<polyline clip-path="url(#clip843)" style="stroke:#000000; stroke-linecap:round; stroke-linejoin:round; stroke-width:2; stroke-opacity:0.1; fill:none" points="
  885.898,1534.78 885.898,47.2441 
  "/>
<polyline clip-path="url(#clip843)" style="stroke:#000000; stroke-linecap:round; stroke-linejoin:round; stroke-width:2; stroke-opacity:0.1; fill:none" points="
  1200.45,1534.78 1200.45,47.2441 
  "/>
<polyline clip-path="url(#clip843)" style="stroke:#000000; stroke-linecap:round; stroke-linejoin:round; stroke-width:2; stroke-opacity:0.1; fill:none" points="
  1515.01,1534.78 1515.01,47.2441 
  "/>
<polyline clip-path="url(#clip840)" style="stroke:#000000; stroke-linecap:round; stroke-linejoin:round; stroke-width:4; stroke-opacity:1; fill:none" points="
  219.04,1534.78 1552.76,1534.78 
  "/>
<polyline clip-path="url(#clip840)" style="stroke:#000000; stroke-linecap:round; stroke-linejoin:round; stroke-width:4; stroke-opacity:1; fill:none" points="
  256.787,1534.78 256.787,1515.88 
  "/>
<polyline clip-path="url(#clip840)" style="stroke:#000000; stroke-linecap:round; stroke-linejoin:round; stroke-width:4; stroke-opacity:1; fill:none" points="
  571.342,1534.78 571.342,1515.88 
  "/>
<polyline clip-path="url(#clip840)" style="stroke:#000000; stroke-linecap:round; stroke-linejoin:round; stroke-width:4; stroke-opacity:1; fill:none" points="
  885.898,1534.78 885.898,1515.88 
  "/>
<polyline clip-path="url(#clip840)" style="stroke:#000000; stroke-linecap:round; stroke-linejoin:round; stroke-width:4; stroke-opacity:1; fill:none" points="
  1200.45,1534.78 1200.45,1515.88 
  "/>
<polyline clip-path="url(#clip840)" style="stroke:#000000; stroke-linecap:round; stroke-linejoin:round; stroke-width:4; stroke-opacity:1; fill:none" points="
  1515.01,1534.78 1515.01,1515.88 
  "/>
<path clip-path="url(#clip840)" d="M222.863 1566.76 Q217.447 1566.76 214.704 1572.11 Q211.995 1577.42 211.995 1588.11 Q211.995 1598.77 214.704 1604.12 Q217.447 1609.43 222.863 1609.43 Q228.315 1609.43 231.023 1604.12 Q233.766 1598.77 233.766 1588.11 Q233.766 1577.42 231.023 1572.11 Q228.315 1566.76 222.863 1566.76 M222.863 1561.2 Q231.579 1561.2 236.162 1568.11 Q240.78 1574.99 240.78 1588.11 Q240.78 1601.2 236.162 1608.11 Q231.579 1614.99 222.863 1614.99 Q214.148 1614.99 209.53 1608.11 Q204.947 1601.2 204.947 1588.11 Q204.947 1574.99 209.53 1568.11 Q214.148 1561.2 222.863 1561.2 Z" fill="#000000" fill-rule="evenodd" fill-opacity="1" /><path clip-path="url(#clip840)" d="M253.106 1605.16 L260.433 1605.16 L260.433 1613.98 L253.106 1613.98 L253.106 1605.16 Z" fill="#000000" fill-rule="evenodd" fill-opacity="1" /><path clip-path="url(#clip840)" d="M290.71 1566.76 Q285.294 1566.76 282.551 1572.11 Q279.842 1577.42 279.842 1588.11 Q279.842 1598.77 282.551 1604.12 Q285.294 1609.43 290.71 1609.43 Q296.162 1609.43 298.87 1604.12 Q301.613 1598.77 301.613 1588.11 Q301.613 1577.42 298.87 1572.11 Q296.162 1566.76 290.71 1566.76 M290.71 1561.2 Q299.426 1561.2 304.009 1568.11 Q308.627 1574.99 308.627 1588.11 Q308.627 1601.2 304.009 1608.11 Q299.426 1614.99 290.71 1614.99 Q281.995 1614.99 277.377 1608.11 Q272.794 1601.2 272.794 1588.11 Q272.794 1574.99 277.377 1568.11 Q281.995 1561.2 290.71 1561.2 Z" fill="#000000" fill-rule="evenodd" fill-opacity="1" /><path clip-path="url(#clip840)" d="M528.947 1608.08 L553.426 1608.08 L553.426 1613.98 L520.509 1613.98 L520.509 1608.08 Q524.502 1603.95 531.377 1597 Q538.287 1590.02 540.058 1588.01 Q543.426 1584.22 544.745 1581.62 Q546.1 1578.98 546.1 1576.45 Q546.1 1572.31 543.183 1569.71 Q540.301 1567.11 535.648 1567.11 Q532.35 1567.11 528.669 1568.25 Q525.023 1569.4 520.857 1571.72 L520.857 1564.64 Q525.093 1562.94 528.773 1562.07 Q532.454 1561.2 535.509 1561.2 Q543.565 1561.2 548.356 1565.23 Q553.148 1569.26 553.148 1575.99 Q553.148 1579.19 551.933 1582.07 Q550.752 1584.92 547.593 1588.81 Q546.725 1589.81 542.072 1594.64 Q537.419 1599.43 528.947 1608.08 Z" fill="#000000" fill-rule="evenodd" fill-opacity="1" /><path clip-path="url(#clip840)" d="M568.148 1605.16 L575.474 1605.16 L575.474 1613.98 L568.148 1613.98 L568.148 1605.16 Z" fill="#000000" fill-rule="evenodd" fill-opacity="1" /><path clip-path="url(#clip840)" d="M590.822 1562.14 L618.356 1562.14 L618.356 1568.04 L597.245 1568.04 L597.245 1580.75 Q598.773 1580.23 600.301 1579.99 Q601.828 1579.71 603.356 1579.71 Q612.037 1579.71 617.106 1584.47 Q622.176 1589.22 622.176 1597.35 Q622.176 1605.72 616.967 1610.37 Q611.759 1614.99 602.28 1614.99 Q599.016 1614.99 595.613 1614.43 Q592.245 1613.88 588.634 1612.76 L588.634 1605.72 Q591.759 1607.42 595.092 1608.25 Q598.426 1609.08 602.141 1609.08 Q608.148 1609.08 611.655 1605.92 Q615.162 1602.76 615.162 1597.35 Q615.162 1591.93 611.655 1588.77 Q608.148 1585.61 602.141 1585.61 Q599.328 1585.61 596.516 1586.24 Q593.738 1586.86 590.822 1588.18 L590.822 1562.14 Z" fill="#000000" fill-rule="evenodd" fill-opacity="1" /><path clip-path="url(#clip840)" d="M836.645 1562.14 L864.179 1562.14 L864.179 1568.04 L843.068 1568.04 L843.068 1580.75 Q844.596 1580.23 846.124 1579.99 Q847.652 1579.71 849.18 1579.71 Q857.86 1579.71 862.929 1584.47 Q867.999 1589.22 867.999 1597.35 Q867.999 1605.72 862.791 1610.37 Q857.582 1614.99 848.103 1614.99 Q844.839 1614.99 841.436 1614.43 Q838.068 1613.88 834.457 1612.76 L834.457 1605.72 Q837.582 1607.42 840.916 1608.25 Q844.249 1609.08 847.964 1609.08 Q853.971 1609.08 857.478 1605.92 Q860.985 1602.76 860.985 1597.35 Q860.985 1591.93 857.478 1588.77 Q853.971 1585.61 847.964 1585.61 Q845.152 1585.61 842.339 1586.24 Q839.562 1586.86 836.645 1588.18 L836.645 1562.14 Z" fill="#000000" fill-rule="evenodd" fill-opacity="1" /><path clip-path="url(#clip840)" d="M881.818 1605.16 L889.145 1605.16 L889.145 1613.98 L881.818 1613.98 L881.818 1605.16 Z" fill="#000000" fill-rule="evenodd" fill-opacity="1" /><path clip-path="url(#clip840)" d="M919.422 1566.76 Q914.006 1566.76 911.263 1572.11 Q908.554 1577.42 908.554 1588.11 Q908.554 1598.77 911.263 1604.12 Q914.006 1609.43 919.422 1609.43 Q924.874 1609.43 927.582 1604.12 Q930.325 1598.77 930.325 1588.11 Q930.325 1577.42 927.582 1572.11 Q924.874 1566.76 919.422 1566.76 M919.422 1561.2 Q928.137 1561.2 932.721 1568.11 Q937.339 1574.99 937.339 1588.11 Q937.339 1601.2 932.721 1608.11 Q928.137 1614.99 919.422 1614.99 Q910.707 1614.99 906.089 1608.11 Q901.506 1601.2 901.506 1588.11 Q901.506 1574.99 906.089 1568.11 Q910.707 1561.2 919.422 1561.2 Z" fill="#000000" fill-rule="evenodd" fill-opacity="1" /><path clip-path="url(#clip840)" d="M1149.93 1562.14 L1183.27 1562.14 L1183.27 1565.13 L1164.45 1613.98 L1157.12 1613.98 L1174.83 1568.04 L1149.93 1568.04 L1149.93 1562.14 Z" fill="#000000" fill-rule="evenodd" fill-opacity="1" /><path clip-path="url(#clip840)" d="M1196.95 1605.16 L1204.27 1605.16 L1204.27 1613.98 L1196.95 1613.98 L1196.95 1605.16 Z" fill="#000000" fill-rule="evenodd" fill-opacity="1" /><path clip-path="url(#clip840)" d="M1219.62 1562.14 L1247.15 1562.14 L1247.15 1568.04 L1226.04 1568.04 L1226.04 1580.75 Q1227.57 1580.23 1229.1 1579.99 Q1230.63 1579.71 1232.15 1579.71 Q1240.84 1579.71 1245.9 1584.47 Q1250.97 1589.22 1250.97 1597.35 Q1250.97 1605.72 1245.77 1610.37 Q1240.56 1614.99 1231.08 1614.99 Q1227.81 1614.99 1224.41 1614.43 Q1221.04 1613.88 1217.43 1612.76 L1217.43 1605.72 Q1220.56 1607.42 1223.89 1608.25 Q1227.22 1609.08 1230.94 1609.08 Q1236.95 1609.08 1240.45 1605.92 Q1243.96 1602.76 1243.96 1597.35 Q1243.96 1591.93 1240.45 1588.77 Q1236.95 1585.61 1230.94 1585.61 Q1228.13 1585.61 1225.31 1586.24 Q1222.54 1586.86 1219.62 1588.18 L1219.62 1562.14 Z" fill="#000000" fill-rule="evenodd" fill-opacity="1" /><path clip-path="url(#clip840)" d="M1443.12 1608.08 L1454.58 1608.08 L1454.58 1568.53 L1442.11 1571.03 L1442.11 1564.64 L1454.51 1562.14 L1461.52 1562.14 L1461.52 1608.08 L1472.98 1608.08 L1472.98 1613.98 L1443.12 1613.98 L1443.12 1608.08 Z" fill="#000000" fill-rule="evenodd" fill-opacity="1" /><path clip-path="url(#clip840)" d="M1502.14 1566.76 Q1496.73 1566.76 1493.99 1572.11 Q1491.28 1577.42 1491.28 1588.11 Q1491.28 1598.77 1493.99 1604.12 Q1496.73 1609.43 1502.14 1609.43 Q1507.6 1609.43 1510.3 1604.12 Q1513.05 1598.77 1513.05 1588.11 Q1513.05 1577.42 1510.3 1572.11 Q1507.6 1566.76 1502.14 1566.76 M1502.14 1561.2 Q1510.86 1561.2 1515.44 1568.11 Q1520.06 1574.99 1520.06 1588.11 Q1520.06 1601.2 1515.44 1608.11 Q1510.86 1614.99 1502.14 1614.99 Q1493.43 1614.99 1488.81 1608.11 Q1484.23 1601.2 1484.23 1588.11 Q1484.23 1574.99 1488.81 1568.11 Q1493.43 1561.2 1502.14 1561.2 Z" fill="#000000" fill-rule="evenodd" fill-opacity="1" /><path clip-path="url(#clip840)" d="M1532.39 1605.16 L1539.71 1605.16 L1539.71 1613.98 L1532.39 1613.98 L1532.39 1605.16 Z" fill="#000000" fill-rule="evenodd" fill-opacity="1" /><path clip-path="url(#clip840)" d="M1569.99 1566.76 Q1564.57 1566.76 1561.83 1572.11 Q1559.12 1577.42 1559.12 1588.11 Q1559.12 1598.77 1561.83 1604.12 Q1564.57 1609.43 1569.99 1609.43 Q1575.44 1609.43 1578.15 1604.12 Q1580.89 1598.77 1580.89 1588.11 Q1580.89 1577.42 1578.15 1572.11 Q1575.44 1566.76 1569.99 1566.76 M1569.99 1561.2 Q1578.71 1561.2 1583.29 1568.11 Q1587.91 1574.99 1587.91 1588.11 Q1587.91 1601.2 1583.29 1608.11 Q1578.71 1614.99 1569.99 1614.99 Q1561.28 1614.99 1556.66 1608.11 Q1552.08 1601.2 1552.08 1588.11 Q1552.08 1574.99 1556.66 1568.11 Q1561.28 1561.2 1569.99 1561.2 Z" fill="#000000" fill-rule="evenodd" fill-opacity="1" /><path clip-path="url(#clip840)" d="M797.52 1662.17 Q797.52 1664.46 796.085 1665.77 Q794.651 1667.04 793.011 1667.04 Q791.453 1667.04 790.634 1666.14 Q789.814 1665.24 789.814 1664.09 Q789.814 1662.54 790.962 1661.18 Q792.109 1659.83 793.831 1659.54 Q792.15 1658.48 789.65 1658.48 Q788.01 1658.48 786.576 1659.34 Q785.182 1660.2 784.321 1661.31 Q783.501 1662.41 782.764 1664.01 Q782.067 1665.57 781.78 1666.51 Q781.534 1667.41 781.329 1668.4 L778.46 1679.87 Q777.066 1685.33 777.066 1687.25 Q777.066 1689.63 778.214 1691.23 Q779.362 1692.79 781.657 1692.79 Q782.559 1692.79 783.583 1692.54 Q784.608 1692.25 785.92 1691.51 Q787.272 1690.74 788.461 1689.59 Q789.691 1688.4 790.88 1686.39 Q792.068 1684.38 792.847 1681.8 Q793.093 1680.9 793.913 1680.9 Q794.937 1680.9 794.937 1681.72 Q794.937 1682.42 794.364 1683.89 Q793.831 1685.33 792.642 1687.21 Q791.494 1689.06 789.978 1690.74 Q788.461 1692.38 786.207 1693.52 Q783.952 1694.67 781.493 1694.67 Q777.968 1694.67 775.632 1692.79 Q773.295 1690.9 772.434 1688.28 Q772.229 1688.65 771.942 1689.14 Q771.656 1689.63 770.795 1690.74 Q769.975 1691.8 769.032 1692.62 Q768.089 1693.4 766.614 1694.02 Q765.179 1694.67 763.622 1694.67 Q761.654 1694.67 759.892 1694.1 Q758.17 1693.52 756.94 1692.21 Q755.711 1690.9 755.711 1689.1 Q755.711 1687.09 757.063 1685.69 Q758.457 1684.26 760.343 1684.26 Q761.531 1684.26 762.474 1684.96 Q763.458 1685.65 763.458 1687.17 Q763.458 1688.85 762.31 1690.12 Q761.162 1691.39 759.523 1691.72 Q761.203 1692.79 763.704 1692.79 Q766.409 1692.79 768.54 1690.41 Q770.672 1688.03 771.697 1684.05 Q774.238 1674.5 775.222 1670.24 Q776.205 1665.94 776.205 1664.09 Q776.205 1662.37 775.754 1661.18 Q775.304 1659.99 774.525 1659.46 Q773.787 1658.89 773.09 1658.68 Q772.434 1658.48 771.697 1658.48 Q770.467 1658.48 769.073 1658.97 Q767.721 1659.46 766.081 1660.61 Q764.482 1661.72 762.966 1664.01 Q761.449 1666.31 760.425 1669.46 Q760.22 1670.41 759.318 1670.41 Q758.334 1670.36 758.334 1669.54 Q758.334 1668.85 758.867 1667.41 Q759.441 1665.94 760.588 1664.09 Q761.777 1662.25 763.294 1660.61 Q764.851 1658.93 767.106 1657.78 Q769.401 1656.63 771.861 1656.63 Q772.967 1656.63 774.033 1656.88 Q775.14 1657.08 776.451 1657.7 Q777.804 1658.31 778.993 1659.67 Q780.181 1661.02 780.919 1662.99 Q781.411 1662.04 782.067 1661.14 Q782.764 1660.24 783.829 1659.13 Q784.936 1657.99 786.453 1657.33 Q788.01 1656.63 789.732 1656.63 Q791.412 1656.63 793.052 1657.08 Q794.692 1657.49 796.085 1658.85 Q797.52 1660.16 797.52 1662.17 Z" fill="#000000" fill-rule="evenodd" fill-opacity="1" /><path clip-path="url(#clip840)" d="M855.346 1630.78 Q849.917 1640.09 847.284 1649.21 Q844.651 1658.32 844.651 1667.68 Q844.651 1677.04 847.284 1686.23 Q849.958 1695.39 855.346 1704.67 L848.864 1704.67 Q842.788 1695.15 839.75 1685.95 Q836.752 1676.75 836.752 1667.68 Q836.752 1658.65 839.75 1649.49 Q842.747 1640.34 848.864 1630.78 L855.346 1630.78 Z" fill="#000000" fill-rule="evenodd" fill-opacity="1" /><path clip-path="url(#clip840)" d="M869.524 1630.7 L877.018 1630.7 L877.018 1667.92 L899.257 1648.36 L908.777 1648.36 L884.715 1669.58 L909.79 1693.73 L900.067 1693.73 L877.018 1671.57 L877.018 1693.73 L869.524 1693.73 L869.524 1630.7 Z" fill="#000000" fill-rule="evenodd" fill-opacity="1" /><path clip-path="url(#clip840)" d="M953.175 1657.07 Q955.97 1652.04 959.859 1649.65 Q963.748 1647.26 969.014 1647.26 Q976.103 1647.26 979.951 1652.25 Q983.8 1657.19 983.8 1666.34 L983.8 1693.73 L976.306 1693.73 L976.306 1666.59 Q976.306 1660.07 973.997 1656.91 Q971.687 1653.75 966.948 1653.75 Q961.155 1653.75 957.793 1657.59 Q954.431 1661.44 954.431 1668.09 L954.431 1693.73 L946.936 1693.73 L946.936 1666.59 Q946.936 1660.02 944.627 1656.91 Q942.318 1653.75 937.498 1653.75 Q931.786 1653.75 928.424 1657.63 Q925.062 1661.48 925.062 1668.09 L925.062 1693.73 L917.567 1693.73 L917.567 1648.36 L925.062 1648.36 L925.062 1655.41 Q927.614 1651.23 931.178 1649.25 Q934.743 1647.26 939.645 1647.26 Q944.587 1647.26 948.03 1649.78 Q951.514 1652.29 953.175 1657.07 Z" fill="#000000" fill-rule="evenodd" fill-opacity="1" /><path clip-path="url(#clip840)" d="M997.492 1630.78 L1003.97 1630.78 Q1010.05 1640.34 1013.05 1649.49 Q1016.09 1658.65 1016.09 1667.68 Q1016.09 1676.75 1013.05 1685.95 Q1010.05 1695.15 1003.97 1704.67 L997.492 1704.67 Q1002.88 1695.39 1005.51 1686.23 Q1008.19 1677.04 1008.19 1667.68 Q1008.19 1658.32 1005.51 1649.21 Q1002.88 1640.09 997.492 1630.78 Z" fill="#000000" fill-rule="evenodd" fill-opacity="1" /><polyline clip-path="url(#clip843)" style="stroke:#000000; stroke-linecap:round; stroke-linejoin:round; stroke-width:2; stroke-opacity:0.1; fill:none" points="
  219.04,1365.1 1552.76,1365.1 
  "/>
<polyline clip-path="url(#clip843)" style="stroke:#000000; stroke-linecap:round; stroke-linejoin:round; stroke-width:2; stroke-opacity:0.1; fill:none" points="
  219.04,1109.95 1552.76,1109.95 
  "/>
<polyline clip-path="url(#clip843)" style="stroke:#000000; stroke-linecap:round; stroke-linejoin:round; stroke-width:2; stroke-opacity:0.1; fill:none" points="
  219.04,854.8 1552.76,854.8 
  "/>
<polyline clip-path="url(#clip843)" style="stroke:#000000; stroke-linecap:round; stroke-linejoin:round; stroke-width:2; stroke-opacity:0.1; fill:none" points="
  219.04,599.648 1552.76,599.648 
  "/>
<polyline clip-path="url(#clip843)" style="stroke:#000000; stroke-linecap:round; stroke-linejoin:round; stroke-width:2; stroke-opacity:0.1; fill:none" points="
  219.04,344.496 1552.76,344.496 
  "/>
<polyline clip-path="url(#clip843)" style="stroke:#000000; stroke-linecap:round; stroke-linejoin:round; stroke-width:2; stroke-opacity:0.1; fill:none" points="
  219.04,89.3442 1552.76,89.3442 
  "/>
<polyline clip-path="url(#clip840)" style="stroke:#000000; stroke-linecap:round; stroke-linejoin:round; stroke-width:4; stroke-opacity:1; fill:none" points="
  219.04,1534.78 219.04,47.2441 
  "/>
<polyline clip-path="url(#clip840)" style="stroke:#000000; stroke-linecap:round; stroke-linejoin:round; stroke-width:4; stroke-opacity:1; fill:none" points="
  219.04,1365.1 237.938,1365.1 
  "/>
<polyline clip-path="url(#clip840)" style="stroke:#000000; stroke-linecap:round; stroke-linejoin:round; stroke-width:4; stroke-opacity:1; fill:none" points="
  219.04,1109.95 237.938,1109.95 
  "/>
<polyline clip-path="url(#clip840)" style="stroke:#000000; stroke-linecap:round; stroke-linejoin:round; stroke-width:4; stroke-opacity:1; fill:none" points="
  219.04,854.8 237.938,854.8 
  "/>
<polyline clip-path="url(#clip840)" style="stroke:#000000; stroke-linecap:round; stroke-linejoin:round; stroke-width:4; stroke-opacity:1; fill:none" points="
  219.04,599.648 237.938,599.648 
  "/>
<polyline clip-path="url(#clip840)" style="stroke:#000000; stroke-linecap:round; stroke-linejoin:round; stroke-width:4; stroke-opacity:1; fill:none" points="
  219.04,344.496 237.938,344.496 
  "/>
<polyline clip-path="url(#clip840)" style="stroke:#000000; stroke-linecap:round; stroke-linejoin:round; stroke-width:4; stroke-opacity:1; fill:none" points="
  219.04,89.3442 237.938,89.3442 
  "/>
<path clip-path="url(#clip840)" d="M167.561 1385.12 L192.04 1385.12 L192.04 1391.02 L159.124 1391.02 L159.124 1385.12 Q163.117 1380.99 169.992 1374.04 Q176.901 1367.07 178.672 1365.05 Q182.04 1361.27 183.36 1358.66 Q184.714 1356.02 184.714 1353.49 Q184.714 1349.36 181.797 1346.75 Q178.915 1344.15 174.263 1344.15 Q170.964 1344.15 167.283 1345.29 Q163.638 1346.44 159.471 1348.77 L159.471 1341.68 Q163.707 1339.98 167.388 1339.11 Q171.068 1338.25 174.124 1338.25 Q182.179 1338.25 186.971 1342.27 Q191.762 1346.3 191.762 1353.04 Q191.762 1356.23 190.547 1359.11 Q189.367 1361.96 186.207 1365.85 Q185.339 1366.86 180.686 1371.68 Q176.033 1376.48 167.561 1385.12 Z" fill="#000000" fill-rule="evenodd" fill-opacity="1" /><path clip-path="url(#clip840)" d="M181.346 1107.92 Q186.381 1109 189.193 1112.4 Q192.04 1115.8 192.04 1120.8 Q192.04 1128.48 186.762 1132.68 Q181.485 1136.88 171.763 1136.88 Q168.499 1136.88 165.026 1136.22 Q161.589 1135.59 157.908 1134.31 L157.908 1127.54 Q160.825 1129.24 164.297 1130.11 Q167.77 1130.98 171.554 1130.98 Q178.151 1130.98 181.589 1128.37 Q185.061 1125.77 185.061 1120.8 Q185.061 1116.22 181.832 1113.65 Q178.638 1111.05 172.908 1111.05 L166.867 1111.05 L166.867 1105.28 L173.186 1105.28 Q178.36 1105.28 181.103 1103.23 Q183.846 1101.15 183.846 1097.26 Q183.846 1093.27 180.999 1091.15 Q178.186 1089 172.908 1089 Q170.026 1089 166.728 1089.62 Q163.429 1090.25 159.471 1091.57 L159.471 1085.32 Q163.464 1084.21 166.936 1083.65 Q170.443 1083.09 173.533 1083.09 Q181.519 1083.09 186.172 1086.74 Q190.825 1090.35 190.825 1096.53 Q190.825 1100.84 188.36 1103.82 Q185.894 1106.77 181.346 1107.92 Z" fill="#000000" fill-rule="evenodd" fill-opacity="1" /><path clip-path="url(#clip840)" d="M177.665 834.991 L159.957 862.664 L177.665 862.664 L177.665 834.991 M175.825 828.88 L184.644 828.88 L184.644 862.664 L192.04 862.664 L192.04 868.498 L184.644 868.498 L184.644 880.72 L177.665 880.72 L177.665 868.498 L154.263 868.498 L154.263 861.727 L175.825 828.88 Z" fill="#000000" fill-rule="evenodd" fill-opacity="1" /><path clip-path="url(#clip840)" d="M160.686 573.728 L188.221 573.728 L188.221 579.631 L167.11 579.631 L167.11 592.339 Q168.638 591.818 170.165 591.575 Q171.693 591.297 173.221 591.297 Q181.901 591.297 186.971 596.054 Q192.04 600.811 192.04 608.936 Q192.04 617.304 186.832 621.957 Q181.624 626.575 172.144 626.575 Q168.881 626.575 165.478 626.019 Q162.11 625.464 158.499 624.353 L158.499 617.304 Q161.624 619.006 164.957 619.839 Q168.29 620.672 172.006 620.672 Q178.013 620.672 181.519 617.513 Q185.026 614.353 185.026 608.936 Q185.026 603.52 181.519 600.36 Q178.013 597.2 172.006 597.2 Q169.193 597.2 166.381 597.825 Q163.603 598.45 160.686 599.77 L160.686 573.728 Z" fill="#000000" fill-rule="evenodd" fill-opacity="1" /><path clip-path="url(#clip840)" d="M174.749 341.701 Q170.026 341.701 167.249 344.93 Q164.506 348.159 164.506 353.784 Q164.506 359.374 167.249 362.638 Q170.026 365.868 174.749 365.868 Q179.471 365.868 182.214 362.638 Q184.992 359.374 184.992 353.784 Q184.992 348.159 182.214 344.93 Q179.471 341.701 174.749 341.701 M188.672 319.722 L188.672 326.111 Q186.033 324.861 183.325 324.201 Q180.651 323.541 178.013 323.541 Q171.068 323.541 167.388 328.229 Q163.742 332.916 163.221 342.395 Q165.27 339.375 168.36 337.777 Q171.45 336.145 175.165 336.145 Q182.978 336.145 187.492 340.902 Q192.04 345.625 192.04 353.784 Q192.04 361.77 187.318 366.597 Q182.596 371.423 174.749 371.423 Q165.756 371.423 160.999 364.548 Q156.242 357.638 156.242 344.548 Q156.242 332.257 162.075 324.965 Q167.908 317.639 177.735 317.639 Q180.374 317.639 183.047 318.159 Q185.756 318.68 188.672 319.722 Z" fill="#000000" fill-rule="evenodd" fill-opacity="1" /><path clip-path="url(#clip840)" d="M158.707 63.4242 L192.04 63.4242 L192.04 66.4103 L173.221 115.264 L165.895 115.264 L183.603 69.3269 L158.707 69.3269 L158.707 63.4242 Z" fill="#000000" fill-rule="evenodd" fill-opacity="1" /><path clip-path="url(#clip840)" d="M66.9203 879.054 Q67.4941 879.054 68.8468 879.423 L100.9 887.457 Q108.033 889.22 113.033 894.958 Q118.034 900.656 118.034 907.132 Q118.034 911.026 115.943 913.526 Q113.894 916.027 110.738 916.027 Q107.951 916.027 106.598 914.551 Q105.286 913.075 105.286 911.313 Q105.286 910.739 105.45 910.124 Q105.614 909.509 106.311 908.853 Q107.008 908.198 108.196 908.198 Q110.123 908.198 111.64 909.878 Q112.336 910.698 112.5 911.477 Q112.664 912.215 112.664 913.485 Q113.812 912.993 114.591 912.092 Q115.37 911.19 115.657 910.165 Q115.984 909.14 116.066 908.485 Q116.189 907.788 116.189 907.132 Q116.189 901.885 110.902 897.868 Q109.303 896.68 107.705 895.819 Q106.147 894.917 104.221 894.261 Q102.335 893.605 101.31 893.318 Q100.286 892.991 97.9491 892.417 Q101.761 896.229 101.761 900.901 Q101.761 902.869 101.228 904.632 Q100.695 906.353 99.5887 907.87 Q98.441 909.386 96.4325 910.288 Q94.4241 911.149 91.7598 911.149 Q88.9315 911.149 85.0785 910.042 Q81.2255 908.935 74.1344 906.271 Q70.1584 904.836 68.2319 904.836 Q67.2892 904.836 66.7153 905.041 Q66.1005 905.246 65.8955 905.656 Q65.6496 906.066 65.6086 906.312 Q65.5676 906.517 65.5676 906.927 Q65.5676 909.345 68.027 911.6 Q70.4863 913.854 75.9789 915.412 Q77.0036 915.74 77.2496 915.945 Q77.4955 916.15 77.4955 916.764 Q77.4545 917.789 76.6347 917.789 Q76.3068 917.789 75.0361 917.42 Q73.7245 917.051 71.798 916.19 Q69.8305 915.289 68.068 914.059 Q66.2644 912.829 64.9938 910.903 Q63.7231 908.935 63.7231 906.681 Q63.7231 903.607 65.7316 901.721 Q67.6991 899.795 70.6093 899.795 Q71.798 899.795 72.8637 900.123 Q73.8884 900.41 76.6347 901.475 Q87.7018 905.779 93.1124 905.779 Q94.4241 905.779 95.5308 905.574 Q96.5965 905.328 97.6622 904.795 Q98.687 904.263 99.3018 903.197 Q99.8756 902.09 99.8756 900.574 Q99.8756 898.647 98.9739 896.844 Q98.0311 894.999 96.7605 893.851 Q95.4898 892.663 94.4241 891.966 Q93.3174 891.228 92.7435 891.064 L77.6595 887.293 L70.9372 885.612 Q67.2892 884.834 66.3874 884.465 Q65.5266 883.973 65.0757 883.112 Q64.6249 882.251 64.6249 881.514 Q64.6249 880.489 65.2397 879.792 Q65.8545 879.054 66.9203 879.054 Z" fill="#000000" fill-rule="evenodd" fill-opacity="1" /><path clip-path="url(#clip840)" d="M37.8673 824.975 Q47.1844 830.403 56.299 833.036 Q65.4135 835.669 74.7711 835.669 Q84.1287 835.669 93.3242 833.036 Q102.479 830.362 111.756 824.975 L111.756 831.456 Q102.236 837.533 93.0407 840.571 Q83.8451 843.568 74.7711 843.568 Q65.7376 843.568 56.5825 840.571 Q47.4275 837.573 37.8673 831.456 L37.8673 824.975 Z" fill="#000000" fill-rule="evenodd" fill-opacity="1" /><path clip-path="url(#clip840)" d="M37.7863 810.797 L37.7863 803.302 L75.0141 803.302 L55.4483 781.063 L55.4483 771.543 L76.675 795.606 L100.818 770.531 L100.818 780.253 L78.66 803.302 L100.818 803.302 L100.818 810.797 L37.7863 810.797 Z" fill="#000000" fill-rule="evenodd" fill-opacity="1" /><path clip-path="url(#clip840)" d="M64.1577 727.145 Q59.1346 724.35 56.7446 720.461 Q54.3545 716.573 54.3545 711.306 Q54.3545 704.217 59.3371 700.369 Q64.2792 696.521 73.4343 696.521 L100.818 696.521 L100.818 704.015 L73.6773 704.015 Q67.1554 704.015 63.9957 706.324 Q60.836 708.633 60.836 713.372 Q60.836 719.165 64.6843 722.527 Q68.5327 725.89 75.1762 725.89 L100.818 725.89 L100.818 733.384 L73.6773 733.384 Q67.1149 733.384 63.9957 735.693 Q60.836 738.002 60.836 742.822 Q60.836 748.534 64.7248 751.896 Q68.5732 755.259 75.1762 755.259 L100.818 755.259 L100.818 762.753 L55.4483 762.753 L55.4483 755.259 L62.4968 755.259 Q58.3244 752.707 56.3395 749.142 Q54.3545 745.577 54.3545 740.675 Q54.3545 735.733 56.8661 732.29 Q59.3776 728.806 64.1577 727.145 Z" fill="#000000" fill-rule="evenodd" fill-opacity="1" /><path clip-path="url(#clip840)" d="M37.8673 682.829 L37.8673 676.347 Q47.4275 670.271 56.5825 667.273 Q65.7376 664.235 74.7711 664.235 Q83.8451 664.235 93.0407 667.273 Q102.236 670.271 111.756 676.347 L111.756 682.829 Q102.479 677.441 93.3242 674.808 Q84.1287 672.134 74.7711 672.134 Q65.4135 672.134 56.299 674.808 Q47.1844 677.441 37.8673 682.829 Z" fill="#000000" fill-rule="evenodd" fill-opacity="1" /><circle clip-path="url(#clip843)" cx="256.787" cy="89.3442" r="21.6" fill="#ff0000" fill-rule="evenodd" fill-opacity="1" stroke="#000000" stroke-opacity="1" stroke-width="3.2"/>
<circle clip-path="url(#clip843)" cx="508.431" cy="599.648" r="21.6" fill="#ff0000" fill-rule="evenodd" fill-opacity="1" stroke="#000000" stroke-opacity="1" stroke-width="3.2"/>
<circle clip-path="url(#clip843)" cx="634.254" cy="599.648" r="21.6" fill="#ff0000" fill-rule="evenodd" fill-opacity="1" stroke="#000000" stroke-opacity="1" stroke-width="3.2"/>
<circle clip-path="url(#clip843)" cx="382.609" cy="1492.68" r="21.6" fill="#000000" fill-rule="evenodd" fill-opacity="1" stroke="none"/>
<circle clip-path="url(#clip843)" cx="634.254" cy="89.3442" r="21.6" fill="#000000" fill-rule="evenodd" fill-opacity="1" stroke="none"/>
<circle clip-path="url(#clip843)" cx="885.898" cy="1109.95" r="21.6" fill="#000000" fill-rule="evenodd" fill-opacity="1" stroke="none"/>
<circle clip-path="url(#clip843)" cx="1200.45" cy="344.496" r="21.6" fill="#000000" fill-rule="evenodd" fill-opacity="1" stroke="none"/>
<circle clip-path="url(#clip843)" cx="1515.01" cy="599.648" r="21.6" fill="#000000" fill-rule="evenodd" fill-opacity="1" stroke="none"/>
<path clip-path="url(#clip840)" d="
M1063.33 1485.2 L1508.3 1485.2 L1508.3 1251.92 L1063.33 1251.92  Z
  " fill="#ffffff" fill-rule="evenodd" fill-opacity="1"/>
<polyline clip-path="url(#clip840)" style="stroke:#000000; stroke-linecap:round; stroke-linejoin:round; stroke-width:4; stroke-opacity:1; fill:none" points="
  1063.33,1485.2 1508.3,1485.2 1508.3,1251.92 1063.33,1251.92 1063.33,1485.2 
  "/>
<circle clip-path="url(#clip840)" cx="1122.61" cy="1329.68" r="34.56" fill="#ff0000" fill-rule="evenodd" fill-opacity="1" stroke="#000000" stroke-opacity="1" stroke-width="5.12"/>
<path clip-path="url(#clip840)" d="M1215.25 1305.46 L1215.25 1312.3 Q1211.26 1310.39 1207.72 1309.45 Q1204.18 1308.51 1200.88 1308.51 Q1195.15 1308.51 1192.02 1310.73 Q1188.93 1312.96 1188.93 1317.05 Q1188.93 1320.49 1190.98 1322.26 Q1193.06 1324 1198.83 1325.07 L1203.06 1325.94 Q1210.91 1327.44 1214.63 1331.22 Q1218.38 1334.97 1218.38 1341.29 Q1218.38 1348.82 1213.31 1352.71 Q1208.27 1356.6 1198.52 1356.6 Q1194.84 1356.6 1190.67 1355.77 Q1186.54 1354.94 1182.09 1353.3 L1182.09 1346.08 Q1186.36 1348.48 1190.46 1349.69 Q1194.56 1350.91 1198.52 1350.91 Q1204.52 1350.91 1207.79 1348.55 Q1211.05 1346.19 1211.05 1341.81 Q1211.05 1337.99 1208.69 1335.84 Q1206.36 1333.69 1201.02 1332.61 L1196.75 1331.78 Q1188.9 1330.21 1185.39 1326.88 Q1181.88 1323.55 1181.88 1317.61 Q1181.88 1310.73 1186.71 1306.78 Q1191.57 1302.82 1200.08 1302.82 Q1203.72 1302.82 1207.51 1303.48 Q1211.29 1304.14 1215.25 1305.46 Z" fill="#000000" fill-rule="evenodd" fill-opacity="1" /><path clip-path="url(#clip840)" d="M1244.11 1321.19 Q1238.97 1321.19 1235.98 1325.21 Q1232.99 1329.21 1232.99 1336.19 Q1232.99 1343.16 1235.95 1347.19 Q1238.93 1351.19 1244.11 1351.19 Q1249.21 1351.19 1252.2 1347.16 Q1255.18 1343.13 1255.18 1336.19 Q1255.18 1329.28 1252.2 1325.25 Q1249.21 1321.19 1244.11 1321.19 M1244.11 1315.77 Q1252.44 1315.77 1257.2 1321.19 Q1261.95 1326.6 1261.95 1336.19 Q1261.95 1345.73 1257.2 1351.19 Q1252.44 1356.6 1244.11 1356.6 Q1235.74 1356.6 1230.98 1351.19 Q1226.26 1345.73 1226.26 1336.19 Q1226.26 1326.6 1230.98 1321.19 Q1235.74 1315.77 1244.11 1315.77 Z" fill="#000000" fill-rule="evenodd" fill-opacity="1" /><path clip-path="url(#clip840)" d="M1271.88 1340.25 L1271.88 1316.71 L1278.27 1316.71 L1278.27 1340.01 Q1278.27 1345.53 1280.43 1348.3 Q1282.58 1351.05 1286.88 1351.05 Q1292.06 1351.05 1295.04 1347.75 Q1298.06 1344.45 1298.06 1338.76 L1298.06 1316.71 L1304.45 1316.71 L1304.45 1355.6 L1298.06 1355.6 L1298.06 1349.62 Q1295.74 1353.16 1292.65 1354.9 Q1289.59 1356.6 1285.53 1356.6 Q1278.83 1356.6 1275.36 1352.44 Q1271.88 1348.27 1271.88 1340.25 M1287.96 1315.77 L1287.96 1315.77 Z" fill="#000000" fill-rule="evenodd" fill-opacity="1" /><path clip-path="url(#clip840)" d="M1340.15 1322.68 Q1339.07 1322.05 1337.79 1321.78 Q1336.54 1321.46 1335.01 1321.46 Q1329.59 1321.46 1326.67 1325.01 Q1323.79 1328.51 1323.79 1335.11 L1323.79 1355.6 L1317.37 1355.6 L1317.37 1316.71 L1323.79 1316.71 L1323.79 1322.75 Q1325.81 1319.21 1329.04 1317.51 Q1332.27 1315.77 1336.88 1315.77 Q1337.54 1315.77 1338.34 1315.87 Q1339.14 1315.94 1340.11 1316.12 L1340.15 1322.68 Z" fill="#000000" fill-rule="evenodd" fill-opacity="1" /><path clip-path="url(#clip840)" d="M1373.27 1318.2 L1373.27 1324.17 Q1370.56 1322.68 1367.82 1321.95 Q1365.11 1321.19 1362.33 1321.19 Q1356.12 1321.19 1352.68 1325.14 Q1349.24 1329.07 1349.24 1336.19 Q1349.24 1343.3 1352.68 1347.26 Q1356.12 1351.19 1362.33 1351.19 Q1365.11 1351.19 1367.82 1350.46 Q1370.56 1349.69 1373.27 1348.2 L1373.27 1354.1 Q1370.6 1355.35 1367.72 1355.98 Q1364.87 1356.6 1361.64 1356.6 Q1352.86 1356.6 1347.68 1351.08 Q1342.51 1345.56 1342.51 1336.19 Q1342.51 1326.67 1347.72 1321.22 Q1352.96 1315.77 1362.06 1315.77 Q1365.01 1315.77 1367.82 1316.39 Q1370.63 1316.98 1373.27 1318.2 Z" fill="#000000" fill-rule="evenodd" fill-opacity="1" /><path clip-path="url(#clip840)" d="M1417.65 1334.55 L1417.65 1337.68 L1388.27 1337.68 Q1388.69 1344.28 1392.23 1347.75 Q1395.81 1351.19 1402.16 1351.19 Q1405.84 1351.19 1409.28 1350.28 Q1412.75 1349.38 1416.15 1347.57 L1416.15 1353.62 Q1412.72 1355.07 1409.11 1355.84 Q1405.49 1356.6 1401.78 1356.6 Q1392.47 1356.6 1387.02 1351.19 Q1381.61 1345.77 1381.61 1336.53 Q1381.61 1326.98 1386.74 1321.39 Q1391.92 1315.77 1400.67 1315.77 Q1408.51 1315.77 1413.06 1320.84 Q1417.65 1325.87 1417.65 1334.55 M1411.26 1332.68 Q1411.19 1327.44 1408.31 1324.31 Q1405.46 1321.19 1400.74 1321.19 Q1395.39 1321.19 1392.16 1324.21 Q1388.97 1327.23 1388.48 1332.71 L1411.26 1332.68 Z" fill="#000000" fill-rule="evenodd" fill-opacity="1" /><circle clip-path="url(#clip840)" cx="1122.61" cy="1407.44" r="34.56" fill="#000000" fill-rule="evenodd" fill-opacity="1" stroke="none"/>
<path clip-path="url(#clip840)" d="M1206.47 1409.05 Q1208.72 1409.81 1210.84 1412.31 Q1213 1414.81 1215.15 1419.19 L1222.27 1433.36 L1214.73 1433.36 L1208.1 1420.06 Q1205.53 1414.85 1203.1 1413.15 Q1200.7 1411.45 1196.54 1411.45 L1188.9 1411.45 L1188.9 1433.36 L1181.88 1433.36 L1181.88 1381.52 L1197.72 1381.52 Q1206.61 1381.52 1210.98 1385.23 Q1215.36 1388.95 1215.36 1396.45 Q1215.36 1401.34 1213.06 1404.57 Q1210.81 1407.8 1206.47 1409.05 M1188.9 1387.28 L1188.9 1405.68 L1197.72 1405.68 Q1202.79 1405.68 1205.36 1403.36 Q1207.96 1400.99 1207.96 1396.45 Q1207.96 1391.9 1205.36 1389.61 Q1202.79 1387.28 1197.72 1387.28 L1188.9 1387.28 Z" fill="#000000" fill-rule="evenodd" fill-opacity="1" /><path clip-path="url(#clip840)" d="M1261.09 1412.31 L1261.09 1415.44 L1231.71 1415.44 Q1232.13 1422.04 1235.67 1425.51 Q1239.24 1428.95 1245.6 1428.95 Q1249.28 1428.95 1252.72 1428.04 Q1256.19 1427.14 1259.59 1425.33 L1259.59 1431.38 Q1256.15 1432.83 1252.54 1433.6 Q1248.93 1434.36 1245.22 1434.36 Q1235.91 1434.36 1230.46 1428.95 Q1225.04 1423.53 1225.04 1414.29 Q1225.04 1404.74 1230.18 1399.15 Q1235.36 1393.53 1244.11 1393.53 Q1251.95 1393.53 1256.5 1398.6 Q1261.09 1403.63 1261.09 1412.31 M1254.7 1410.44 Q1254.63 1405.2 1251.74 1402.07 Q1248.9 1398.95 1244.18 1398.95 Q1238.83 1398.95 1235.6 1401.97 Q1232.4 1404.99 1231.92 1410.47 L1254.7 1410.44 Z" fill="#000000" fill-rule="evenodd" fill-opacity="1" /><path clip-path="url(#clip840)" d="M1299.56 1395.96 L1299.56 1401.93 Q1296.85 1400.44 1294.11 1399.71 Q1291.4 1398.95 1288.62 1398.95 Q1282.4 1398.95 1278.97 1402.9 Q1275.53 1406.83 1275.53 1413.95 Q1275.53 1421.06 1278.97 1425.02 Q1282.4 1428.95 1288.62 1428.95 Q1291.4 1428.95 1294.11 1428.22 Q1296.85 1427.45 1299.56 1425.96 L1299.56 1431.86 Q1296.88 1433.11 1294 1433.74 Q1291.15 1434.36 1287.93 1434.36 Q1279.14 1434.36 1273.97 1428.84 Q1268.79 1423.32 1268.79 1413.95 Q1268.79 1404.43 1274 1398.98 Q1279.24 1393.53 1288.34 1393.53 Q1291.29 1393.53 1294.11 1394.15 Q1296.92 1394.74 1299.56 1395.96 Z" fill="#000000" fill-rule="evenodd" fill-opacity="1" /><path clip-path="url(#clip840)" d="M1343.93 1412.31 L1343.93 1415.44 L1314.56 1415.44 Q1314.97 1422.04 1318.52 1425.51 Q1322.09 1428.95 1328.45 1428.95 Q1332.13 1428.95 1335.56 1428.04 Q1339.04 1427.14 1342.44 1425.33 L1342.44 1431.38 Q1339 1432.83 1335.39 1433.6 Q1331.78 1434.36 1328.06 1434.36 Q1318.76 1434.36 1313.31 1428.95 Q1307.89 1423.53 1307.89 1414.29 Q1307.89 1404.74 1313.03 1399.15 Q1318.2 1393.53 1326.95 1393.53 Q1334.8 1393.53 1339.35 1398.6 Q1343.93 1403.63 1343.93 1412.31 M1337.54 1410.44 Q1337.47 1405.2 1334.59 1402.07 Q1331.74 1398.95 1327.02 1398.95 Q1321.68 1398.95 1318.45 1401.97 Q1315.25 1404.99 1314.77 1410.47 L1337.54 1410.44 Z" fill="#000000" fill-rule="evenodd" fill-opacity="1" /><path clip-path="url(#clip840)" d="M1360.6 1427.52 L1360.6 1448.15 L1354.17 1448.15 L1354.17 1394.47 L1360.6 1394.47 L1360.6 1400.37 Q1362.61 1396.9 1365.67 1395.23 Q1368.76 1393.53 1373.03 1393.53 Q1380.11 1393.53 1384.52 1399.15 Q1388.97 1404.78 1388.97 1413.95 Q1388.97 1423.11 1384.52 1428.74 Q1380.11 1434.36 1373.03 1434.36 Q1368.76 1434.36 1365.67 1432.7 Q1362.61 1430.99 1360.6 1427.52 M1382.33 1413.95 Q1382.33 1406.9 1379.42 1402.9 Q1376.54 1398.88 1371.47 1398.88 Q1366.4 1398.88 1363.48 1402.9 Q1360.6 1406.9 1360.6 1413.95 Q1360.6 1420.99 1363.48 1425.02 Q1366.4 1429.02 1371.47 1429.02 Q1376.54 1429.02 1379.42 1425.02 Q1382.33 1420.99 1382.33 1413.95 Z" fill="#000000" fill-rule="evenodd" fill-opacity="1" /><path clip-path="url(#clip840)" d="M1405.88 1383.43 L1405.88 1394.47 L1419.04 1394.47 L1419.04 1399.43 L1405.88 1399.43 L1405.88 1420.54 Q1405.88 1425.3 1407.16 1426.65 Q1408.48 1428.01 1412.47 1428.01 L1419.04 1428.01 L1419.04 1433.36 L1412.47 1433.36 Q1405.08 1433.36 1402.26 1430.61 Q1399.45 1427.83 1399.45 1420.54 L1399.45 1399.43 L1394.76 1399.43 L1394.76 1394.47 L1399.45 1394.47 L1399.45 1383.43 L1405.88 1383.43 Z" fill="#000000" fill-rule="evenodd" fill-opacity="1" /><path clip-path="url(#clip840)" d="M1442.51 1398.95 Q1437.37 1398.95 1434.38 1402.97 Q1431.4 1406.97 1431.4 1413.95 Q1431.4 1420.92 1434.35 1424.95 Q1437.33 1428.95 1442.51 1428.95 Q1447.61 1428.95 1450.6 1424.92 Q1453.58 1420.89 1453.58 1413.95 Q1453.58 1407.04 1450.6 1403.01 Q1447.61 1398.95 1442.51 1398.95 M1442.51 1393.53 Q1450.84 1393.53 1455.6 1398.95 Q1460.35 1404.36 1460.35 1413.95 Q1460.35 1423.49 1455.6 1428.95 Q1450.84 1434.36 1442.51 1434.36 Q1434.14 1434.36 1429.38 1428.95 Q1424.66 1423.49 1424.66 1413.95 Q1424.66 1404.36 1429.38 1398.95 Q1434.14 1393.53 1442.51 1393.53 Z" fill="#000000" fill-rule="evenodd" fill-opacity="1" /><path clip-path="url(#clip840)" d="M1493.48 1400.44 Q1492.4 1399.81 1491.12 1399.54 Q1489.87 1399.22 1488.34 1399.22 Q1482.92 1399.22 1480.01 1402.77 Q1477.13 1406.27 1477.13 1412.87 L1477.13 1433.36 L1470.7 1433.36 L1470.7 1394.47 L1477.13 1394.47 L1477.13 1400.51 Q1479.14 1396.97 1482.37 1395.27 Q1485.6 1393.53 1490.22 1393.53 Q1490.88 1393.53 1491.67 1393.63 Q1492.47 1393.7 1493.44 1393.88 L1493.48 1400.44 Z" fill="#000000" fill-rule="evenodd" fill-opacity="1" /></svg>
