<?xml version="1.0" encoding="utf-8"?>
<svg xmlns="http://www.w3.org/2000/svg" xmlns:xlink="http://www.w3.org/1999/xlink" width="600" height="400" viewBox="0 0 2400 1600">
<defs>
  <clipPath id="clip160">
    <rect x="0" y="0" width="2400" height="1600"/>
  </clipPath>
</defs>
<path clip-path="url(#clip160)" d="
M0 1600 L2400 1600 L2400 0 L0 0  Z
  " fill="#ffffff" fill-rule="evenodd" fill-opacity="1"/>
<defs>
  <clipPath id="clip161">
    <rect x="480" y="0" width="1681" height="1600"/>
  </clipPath>
</defs>
<path clip-path="url(#clip160)" d="
M110.236 1505.26 L2352.76 1505.26 L2352.76 47.2441 L110.236 47.2441  Z
  " fill="#ffffff" fill-rule="evenodd" fill-opacity="1"/>
<defs>
  <clipPath id="clip162">
    <rect x="110" y="47" width="2244" height="1459"/>
  </clipPath>
</defs>
<polyline clip-path="url(#clip162)" style="stroke:#000000; stroke-linecap:butt; stroke-linejoin:round; stroke-width:2; stroke-opacity:1; fill:none" points="
  173.704,1505.26 173.704,47.2441 
  "/>
<polyline clip-path="url(#clip162)" style="stroke:#000000; stroke-linecap:butt; stroke-linejoin:round; stroke-width:2; stroke-opacity:1; fill:none" points="
  2289.29,1505.26 2289.29,47.2441 
  "/>
<path clip-path="url(#clip160)" d="M173.021 1534.37 L173.021 1541.73 L181.794 1541.73 L181.794 1545.04 L173.021 1545.04 L173.021 1559.12 Q173.021 1562.29 173.877 1563.19 Q174.757 1564.1 177.419 1564.1 L181.794 1564.1 L181.794 1567.66 L177.419 1567.66 Q172.488 1567.66 170.613 1565.83 Q168.739 1563.98 168.739 1559.12 L168.739 1545.04 L165.614 1545.04 L165.614 1541.73 L168.739 1541.73 L168.739 1534.37 L173.021 1534.37 Z" fill="#000000" fill-rule="evenodd" fill-opacity="1" /><path clip-path="url(#clip160)" d="M2255.28 1534.37 L2255.28 1541.73 L2264.06 1541.73 L2264.06 1545.04 L2255.28 1545.04 L2255.28 1559.12 Q2255.28 1562.29 2256.14 1563.19 Q2257.02 1564.1 2259.68 1564.1 L2264.06 1564.1 L2264.06 1567.66 L2259.68 1567.66 Q2254.75 1567.66 2252.88 1565.83 Q2251 1563.98 2251 1559.12 L2251 1545.04 L2247.88 1545.04 L2247.88 1541.73 L2251 1541.73 L2251 1534.37 L2255.28 1534.37 Z" fill="#000000" fill-rule="evenodd" fill-opacity="1" /><path clip-path="url(#clip160)" d="M2287 1537.94 L2287 1550.83 L2299.89 1550.83 L2299.89 1554.77 L2287 1554.77 L2287 1567.66 L2283.11 1567.66 L2283.11 1554.77 L2270.21 1554.77 L2270.21 1550.83 L2283.11 1550.83 L2283.11 1537.94 L2287 1537.94 Z" fill="#000000" fill-rule="evenodd" fill-opacity="1" /><path clip-path="url(#clip160)" d="M2310.79 1563.72 L2318.43 1563.72 L2318.43 1537.36 L2310.12 1539.03 L2310.12 1534.77 L2318.39 1533.1 L2323.06 1533.1 L2323.06 1563.72 L2330.7 1563.72 L2330.7 1567.66 L2310.79 1567.66 L2310.79 1563.72 Z" fill="#000000" fill-rule="evenodd" fill-opacity="1" /><path clip-path="url(#clip160)" d="M1153.37 1602.6 L1193.57 1602.6 L1193.57 1608.01 L1176.7 1608.01 L1176.7 1650.12 L1170.24 1650.12 L1170.24 1608.01 L1153.37 1608.01 L1153.37 1602.6 Z" fill="#000000" fill-rule="evenodd" fill-opacity="1" /><path clip-path="url(#clip160)" d="M1197.52 1614.48 L1203.38 1614.48 L1203.38 1650.12 L1197.52 1650.12 L1197.52 1614.48 M1197.52 1600.6 L1203.38 1600.6 L1203.38 1608.01 L1197.52 1608.01 L1197.52 1600.6 Z" fill="#000000" fill-rule="evenodd" fill-opacity="1" /><path clip-path="url(#clip160)" d="M1243.38 1621.32 Q1245.58 1617.37 1248.64 1615.49 Q1251.69 1613.62 1255.83 1613.62 Q1261.4 1613.62 1264.42 1617.53 Q1267.45 1621.41 1267.45 1628.61 L1267.45 1650.12 L1261.56 1650.12 L1261.56 1628.8 Q1261.56 1623.67 1259.74 1621.19 Q1257.93 1618.71 1254.21 1618.71 Q1249.65 1618.71 1247.01 1621.73 Q1244.37 1624.76 1244.37 1629.98 L1244.37 1650.12 L1238.48 1650.12 L1238.48 1628.8 Q1238.48 1623.64 1236.67 1621.19 Q1234.85 1618.71 1231.07 1618.71 Q1226.58 1618.71 1223.94 1621.76 Q1221.3 1624.79 1221.3 1629.98 L1221.3 1650.12 L1215.41 1650.12 L1215.41 1614.48 L1221.3 1614.48 L1221.3 1620.01 Q1223.3 1616.74 1226.1 1615.18 Q1228.9 1613.62 1232.75 1613.62 Q1236.64 1613.62 1239.34 1615.59 Q1242.08 1617.56 1243.38 1621.32 Z" fill="#000000" fill-rule="evenodd" fill-opacity="1" /><path clip-path="url(#clip160)" d="M1309.62 1630.84 L1309.62 1633.7 L1282.69 1633.7 Q1283.07 1639.75 1286.32 1642.93 Q1289.6 1646.08 1295.42 1646.08 Q1298.8 1646.08 1301.95 1645.25 Q1305.13 1644.43 1308.25 1642.77 L1308.25 1648.31 Q1305.1 1649.65 1301.79 1650.35 Q1298.48 1651.05 1295.07 1651.05 Q1286.54 1651.05 1281.55 1646.08 Q1276.58 1641.12 1276.58 1632.65 Q1276.58 1623.9 1281.29 1618.77 Q1286.03 1613.62 1294.06 1613.62 Q1301.25 1613.62 1305.42 1618.26 Q1309.62 1622.88 1309.62 1630.84 M1303.76 1629.12 Q1303.7 1624.31 1301.06 1621.45 Q1298.45 1618.58 1294.12 1618.58 Q1289.22 1618.58 1286.26 1621.35 Q1283.33 1624.12 1282.88 1629.15 L1303.76 1629.12 Z" fill="#000000" fill-rule="evenodd" fill-opacity="1" /><path clip-path="url(#clip160)" d="M-21.9802 828.053 L-15.71 828.053 Q-17.4605 831.713 -18.3199 834.96 Q-19.1793 838.206 -19.1793 841.23 Q-19.1793 846.482 -17.1422 849.346 Q-15.1052 852.179 -11.3495 852.179 Q-8.19843 852.179 -6.57517 850.301 Q-4.98374 848.391 -3.99706 843.108 L-3.20135 839.225 Q-1.83272 832.031 1.63659 828.626 Q5.07407 825.188 10.8669 825.188 Q17.7737 825.188 21.3385 829.835 Q24.9032 834.45 24.9032 843.394 Q24.9032 846.768 24.1394 850.588 Q23.3755 854.375 21.8795 858.449 L15.2592 858.449 Q17.4554 854.534 18.5694 850.778 Q19.6834 847.023 19.6834 843.394 Q19.6834 837.888 17.519 834.896 Q15.3547 831.904 11.3443 831.904 Q7.84315 831.904 5.86979 834.068 Q3.89642 836.201 2.90973 841.103 L2.14585 845.018 Q0.713563 852.211 -2.34198 855.425 Q-5.39752 858.64 -10.8402 858.64 Q-17.1422 858.64 -20.7707 854.216 Q-24.3991 849.76 -24.3991 841.962 Q-24.3991 838.62 -23.7944 835.151 Q-23.1897 831.681 -21.9802 828.053 Z" fill="#000000" fill-rule="evenodd" fill-opacity="1" /><path clip-path="url(#clip160)" d="M-21.7892 809.624 L-11.6677 809.624 L-11.6677 797.561 L-7.11626 797.561 L-7.11626 809.624 L12.2355 809.624 Q16.596 809.624 17.8373 808.447 Q19.0786 807.237 19.0786 803.577 L19.0786 797.561 L23.9802 797.561 L23.9802 803.577 Q23.9802 810.356 21.4658 812.934 Q18.9195 815.512 12.2355 815.512 L-7.11626 815.512 L-7.11626 819.809 L-11.6677 819.809 L-11.6677 815.512 L-21.7892 815.512 L-21.7892 809.624 Z" fill="#000000" fill-rule="evenodd" fill-opacity="1" /><path clip-path="url(#clip160)" d="M6.06076 773.658 Q6.06076 780.756 7.68401 783.493 Q9.30727 786.23 13.2222 786.23 Q16.3414 786.23 18.1874 784.193 Q20.0017 782.124 20.0017 778.591 Q20.0017 773.722 16.5642 770.793 Q13.0949 767.833 7.36573 767.833 L6.06076 767.833 L6.06076 773.658 M3.64179 761.977 L23.9802 761.977 L23.9802 767.833 L18.5694 767.833 Q21.8159 769.839 23.3755 772.83 Q24.9032 775.822 24.9032 780.151 Q24.9032 785.625 21.8477 788.872 Q18.7603 792.087 13.6041 792.087 Q7.58853 792.087 4.53299 788.076 Q1.47745 784.034 1.47745 776.045 L1.47745 767.833 L0.904534 767.833 Q-3.13769 767.833 -5.33386 770.507 Q-7.56186 773.149 -7.56186 777.955 Q-7.56186 781.01 -6.8298 783.907 Q-6.09774 786.803 -4.63363 789.477 L-10.0445 789.477 Q-11.2858 786.262 -11.8905 783.238 Q-12.5271 780.215 -12.5271 777.35 Q-12.5271 769.616 -8.51671 765.796 Q-4.50632 761.977 3.64179 761.977 Z" fill="#000000" fill-rule="evenodd" fill-opacity="1" /><path clip-path="url(#clip160)" d="M-21.7892 744.121 L-11.6677 744.121 L-11.6677 732.058 L-7.11626 732.058 L-7.11626 744.121 L12.2355 744.121 Q16.596 744.121 17.8373 742.943 Q19.0786 741.734 19.0786 738.074 L19.0786 732.058 L23.9802 732.058 L23.9802 738.074 Q23.9802 744.853 21.4658 747.431 Q18.9195 750.009 12.2355 750.009 L-7.11626 750.009 L-7.11626 754.306 L-11.6677 754.306 L-11.6677 750.009 L-21.7892 750.009 L-21.7892 744.121 Z" fill="#000000" fill-rule="evenodd" fill-opacity="1" /><path clip-path="url(#clip160)" d="M4.69213 693.864 L7.5567 693.864 L7.5567 720.791 Q13.6041 720.409 16.787 717.162 Q19.938 713.884 19.938 708.059 Q19.938 704.686 19.1105 701.534 Q18.2829 698.352 16.6278 695.232 L22.166 695.232 Q23.5028 698.383 24.203 701.694 Q24.9032 705.004 24.9032 708.409 Q24.9032 716.939 19.938 721.937 Q14.9727 726.902 6.50636 726.902 Q-2.24649 726.902 -7.37088 722.191 Q-12.5271 717.449 -12.5271 709.428 Q-12.5271 702.235 -7.88014 698.065 Q-3.265 693.864 4.69213 693.864 M2.97339 699.72 Q-1.83272 699.784 -4.69729 702.426 Q-7.56186 705.036 -7.56186 709.364 Q-7.56186 714.266 -4.79277 717.226 Q-2.02369 720.154 3.00522 720.6 L2.97339 699.72 Z" fill="#000000" fill-rule="evenodd" fill-opacity="1" /><polyline clip-path="url(#clip162)" style="stroke:#000000; stroke-linecap:butt; stroke-linejoin:round; stroke-width:4; stroke-opacity:1; fill:none" points="
  173.704,1140.76 2289.29,411.748 
  "/>
<circle clip-path="url(#clip162)" cx="173.704" cy="1140.76" r="14.4" fill="#000000" fill-rule="evenodd" fill-opacity="1" stroke="none"/>
<circle clip-path="url(#clip162)" cx="2289.29" cy="411.748" r="14.4" fill="#000000" fill-rule="evenodd" fill-opacity="1" stroke="none"/>
</svg>
