<?xml version="1.0" encoding="utf-8"?>
<svg xmlns="http://www.w3.org/2000/svg" xmlns:xlink="http://www.w3.org/1999/xlink" width="400" height="400" viewBox="0 0 1600 1600">
<defs>
  <clipPath id="clip170">
    <rect x="0" y="0" width="1600" height="1600"/>
  </clipPath>
</defs>
<path clip-path="url(#clip170)" d="
M0 1600 L1600 1600 L1600 0 L0 0  Z
  " fill="#ffffff" fill-rule="evenodd" fill-opacity="1"/>
<defs>
  <clipPath id="clip171">
    <rect x="320" y="160" width="1121" height="1121"/>
  </clipPath>
</defs>
<defs>
  <clipPath id="clip172">
    <rect x="289" y="47" width="1264" height="1291"/>
  </clipPath>
</defs>
<path clip-path="url(#clip170)" d="
M289.869 1336.78 L1552.76 1336.78 L1552.76 47.2441 L289.869 47.2441  Z
  " fill="#ffffff" fill-rule="evenodd" fill-opacity="1"/>
<polyline clip-path="url(#clip170)" style="stroke:#000000; stroke-linecap:round; stroke-linejoin:round; stroke-width:4; stroke-opacity:1; fill:none" points="
  289.869,1336.78 1552.76,1336.78 
  "/>
<polyline clip-path="url(#clip170)" style="stroke:#000000; stroke-linecap:round; stroke-linejoin:round; stroke-width:4; stroke-opacity:1; fill:none" points="
  563.892,1355.68 563.892,1317.88 
  "/>
<polyline clip-path="url(#clip170)" style="stroke:#000000; stroke-linecap:round; stroke-linejoin:round; stroke-width:4; stroke-opacity:1; fill:none" points="
  802.172,1355.68 802.172,1317.88 
  "/>
<polyline clip-path="url(#clip170)" style="stroke:#000000; stroke-linecap:round; stroke-linejoin:round; stroke-width:4; stroke-opacity:1; fill:none" points="
  1040.45,1355.68 1040.45,1317.88 
  "/>
<polyline clip-path="url(#clip170)" style="stroke:#000000; stroke-linecap:round; stroke-linejoin:round; stroke-width:4; stroke-opacity:1; fill:none" points="
  1278.73,1355.68 1278.73,1317.88 
  "/>
<polyline clip-path="url(#clip170)" style="stroke:#000000; stroke-linecap:round; stroke-linejoin:round; stroke-width:4; stroke-opacity:1; fill:none" points="
  1517.01,1355.68 1517.01,1317.88 
  "/>
<path clip-path="url(#clip170)" d="M530.715 1367.16 Q525.298 1367.16 522.555 1372.51 Q519.847 1377.82 519.847 1388.51 Q519.847 1399.17 522.555 1404.52 Q525.298 1409.83 530.715 1409.83 Q536.166 1409.83 538.875 1404.52 Q541.618 1399.17 541.618 1388.51 Q541.618 1377.82 538.875 1372.51 Q536.166 1367.16 530.715 1367.16 M530.715 1361.6 Q539.43 1361.6 544.014 1368.51 Q548.632 1375.39 548.632 1388.51 Q548.632 1401.6 544.014 1408.51 Q539.43 1415.39 530.715 1415.39 Q522 1415.39 517.382 1408.51 Q512.798 1401.6 512.798 1388.51 Q512.798 1375.39 517.382 1368.51 Q522 1361.6 530.715 1361.6 Z" fill="#000000" fill-rule="evenodd" fill-opacity="1" /><path clip-path="url(#clip170)" d="M560.958 1405.56 L568.284 1405.56 L568.284 1414.38 L560.958 1414.38 L560.958 1405.56 Z" fill="#000000" fill-rule="evenodd" fill-opacity="1" /><path clip-path="url(#clip170)" d="M583.631 1362.54 L611.166 1362.54 L611.166 1368.44 L590.055 1368.44 L590.055 1381.15 Q591.583 1380.63 593.11 1380.39 Q594.638 1380.11 596.166 1380.11 Q604.847 1380.11 609.916 1384.87 Q614.985 1389.62 614.985 1397.75 Q614.985 1406.12 609.777 1410.77 Q604.569 1415.39 595.09 1415.39 Q591.826 1415.39 588.423 1414.83 Q585.055 1414.28 581.444 1413.16 L581.444 1406.12 Q584.569 1407.82 587.902 1408.65 Q591.235 1409.48 594.951 1409.48 Q600.958 1409.48 604.465 1406.32 Q607.972 1403.16 607.972 1397.75 Q607.972 1392.33 604.465 1389.17 Q600.958 1386.01 594.951 1386.01 Q592.138 1386.01 589.326 1386.64 Q586.548 1387.26 583.631 1388.58 L583.631 1362.54 Z" fill="#000000" fill-rule="evenodd" fill-opacity="1" /><path clip-path="url(#clip170)" d="M752.902 1408.48 L764.36 1408.48 L764.36 1368.93 L751.895 1371.43 L751.895 1365.04 L764.291 1362.54 L771.304 1362.54 L771.304 1408.48 L782.763 1408.48 L782.763 1414.38 L752.902 1414.38 L752.902 1408.48 Z" fill="#000000" fill-rule="evenodd" fill-opacity="1" /><path clip-path="url(#clip170)" d="M796.929 1405.56 L804.256 1405.56 L804.256 1414.38 L796.929 1414.38 L796.929 1405.56 Z" fill="#000000" fill-rule="evenodd" fill-opacity="1" /><path clip-path="url(#clip170)" d="M834.533 1367.16 Q829.117 1367.16 826.374 1372.51 Q823.665 1377.82 823.665 1388.51 Q823.665 1399.17 826.374 1404.52 Q829.117 1409.83 834.533 1409.83 Q839.985 1409.83 842.693 1404.52 Q845.436 1399.17 845.436 1388.51 Q845.436 1377.82 842.693 1372.51 Q839.985 1367.16 834.533 1367.16 M834.533 1361.6 Q843.249 1361.6 847.832 1368.51 Q852.45 1375.39 852.45 1388.51 Q852.45 1401.6 847.832 1408.51 Q843.249 1415.39 834.533 1415.39 Q825.818 1415.39 821.2 1408.51 Q816.617 1401.6 816.617 1388.51 Q816.617 1375.39 821.2 1368.51 Q825.818 1361.6 834.533 1361.6 Z" fill="#000000" fill-rule="evenodd" fill-opacity="1" /><path clip-path="url(#clip170)" d="M991.929 1408.48 L1003.39 1408.48 L1003.39 1368.93 L990.922 1371.43 L990.922 1365.04 L1003.32 1362.54 L1010.33 1362.54 L1010.33 1408.48 L1021.79 1408.48 L1021.79 1414.38 L991.929 1414.38 L991.929 1408.48 Z" fill="#000000" fill-rule="evenodd" fill-opacity="1" /><path clip-path="url(#clip170)" d="M1035.96 1405.56 L1043.28 1405.56 L1043.28 1414.38 L1035.96 1414.38 L1035.96 1405.56 Z" fill="#000000" fill-rule="evenodd" fill-opacity="1" /><path clip-path="url(#clip170)" d="M1058.63 1362.54 L1086.16 1362.54 L1086.16 1368.44 L1065.05 1368.44 L1065.05 1381.15 Q1066.58 1380.63 1068.11 1380.39 Q1069.64 1380.11 1071.16 1380.11 Q1079.85 1380.11 1084.91 1384.87 Q1089.98 1389.62 1089.98 1397.75 Q1089.98 1406.12 1084.78 1410.77 Q1079.57 1415.39 1070.09 1415.39 Q1066.82 1415.39 1063.42 1414.83 Q1060.05 1414.28 1056.44 1413.16 L1056.44 1406.12 Q1059.57 1407.82 1062.9 1408.65 Q1066.23 1409.48 1069.95 1409.48 Q1075.96 1409.48 1079.46 1406.32 Q1082.97 1403.16 1082.97 1397.75 Q1082.97 1392.33 1079.46 1389.17 Q1075.96 1386.01 1069.95 1386.01 Q1067.14 1386.01 1064.32 1386.64 Q1061.55 1387.26 1058.63 1388.58 L1058.63 1362.54 Z" fill="#000000" fill-rule="evenodd" fill-opacity="1" /><path clip-path="url(#clip170)" d="M1235.59 1408.48 L1260.07 1408.48 L1260.07 1414.38 L1227.15 1414.38 L1227.15 1408.48 Q1231.15 1404.35 1238.02 1397.4 Q1244.93 1390.42 1246.7 1388.41 Q1250.07 1384.62 1251.39 1382.02 Q1252.74 1379.38 1252.74 1376.85 Q1252.74 1372.71 1249.83 1370.11 Q1246.95 1367.51 1242.29 1367.51 Q1238.99 1367.51 1235.31 1368.65 Q1231.67 1369.8 1227.5 1372.12 L1227.5 1365.04 Q1231.74 1363.34 1235.42 1362.47 Q1239.1 1361.6 1242.15 1361.6 Q1250.21 1361.6 1255 1365.63 Q1259.79 1369.66 1259.79 1376.39 Q1259.79 1379.59 1258.58 1382.47 Q1257.4 1385.32 1254.24 1389.21 Q1253.37 1390.21 1248.72 1395.04 Q1244.06 1399.83 1235.59 1408.48 Z" fill="#000000" fill-rule="evenodd" fill-opacity="1" /><path clip-path="url(#clip170)" d="M1274.79 1405.56 L1282.12 1405.56 L1282.12 1414.38 L1274.79 1414.38 L1274.79 1405.56 Z" fill="#000000" fill-rule="evenodd" fill-opacity="1" /><path clip-path="url(#clip170)" d="M1312.4 1367.16 Q1306.98 1367.16 1304.24 1372.51 Q1301.53 1377.82 1301.53 1388.51 Q1301.53 1399.17 1304.24 1404.52 Q1306.98 1409.83 1312.4 1409.83 Q1317.85 1409.83 1320.56 1404.52 Q1323.3 1399.17 1323.3 1388.51 Q1323.3 1377.82 1320.56 1372.51 Q1317.85 1367.16 1312.4 1367.16 M1312.4 1361.6 Q1321.11 1361.6 1325.69 1368.51 Q1330.31 1375.39 1330.31 1388.51 Q1330.31 1401.6 1325.69 1408.51 Q1321.11 1415.39 1312.4 1415.39 Q1303.68 1415.39 1299.06 1408.51 Q1294.48 1401.6 1294.48 1388.51 Q1294.48 1375.39 1299.06 1368.51 Q1303.68 1361.6 1312.4 1361.6 Z" fill="#000000" fill-rule="evenodd" fill-opacity="1" /><path clip-path="url(#clip170)" d="M1474.62 1408.48 L1499.1 1408.48 L1499.1 1414.38 L1466.18 1414.38 L1466.18 1408.48 Q1470.17 1404.35 1477.05 1397.4 Q1483.96 1390.42 1485.73 1388.41 Q1489.1 1384.62 1490.42 1382.02 Q1491.77 1379.38 1491.77 1376.85 Q1491.77 1372.71 1488.85 1370.11 Q1485.97 1367.51 1481.32 1367.51 Q1478.02 1367.51 1474.34 1368.65 Q1470.69 1369.8 1466.53 1372.12 L1466.53 1365.04 Q1470.76 1363.34 1474.44 1362.47 Q1478.13 1361.6 1481.18 1361.6 Q1489.24 1361.6 1494.03 1365.63 Q1498.82 1369.66 1498.82 1376.39 Q1498.82 1379.59 1497.6 1382.47 Q1496.42 1385.32 1493.26 1389.21 Q1492.4 1390.21 1487.74 1395.04 Q1483.09 1399.83 1474.62 1408.48 Z" fill="#000000" fill-rule="evenodd" fill-opacity="1" /><path clip-path="url(#clip170)" d="M1513.82 1405.56 L1521.15 1405.56 L1521.15 1414.38 L1513.82 1414.38 L1513.82 1405.56 Z" fill="#000000" fill-rule="evenodd" fill-opacity="1" /><path clip-path="url(#clip170)" d="M1536.49 1362.54 L1564.03 1362.54 L1564.03 1368.44 L1542.92 1368.44 L1542.92 1381.15 Q1544.44 1380.63 1545.97 1380.39 Q1547.5 1380.11 1549.03 1380.11 Q1557.71 1380.11 1562.78 1384.87 Q1567.85 1389.62 1567.85 1397.75 Q1567.85 1406.12 1562.64 1410.77 Q1557.43 1415.39 1547.95 1415.39 Q1544.69 1415.39 1541.28 1414.83 Q1537.92 1414.28 1534.31 1413.16 L1534.31 1406.12 Q1537.43 1407.82 1540.76 1408.65 Q1544.1 1409.48 1547.81 1409.48 Q1553.82 1409.48 1557.33 1406.32 Q1560.83 1403.16 1560.83 1397.75 Q1560.83 1392.33 1557.33 1389.17 Q1553.82 1386.01 1547.81 1386.01 Q1545 1386.01 1542.19 1386.64 Q1539.41 1387.26 1536.49 1388.58 L1536.49 1362.54 Z" fill="#000000" fill-rule="evenodd" fill-opacity="1" /><path clip-path="url(#clip170)" d="M938.346 1435.57 Q938.346 1436.31 938.059 1436.72 Q937.813 1437.09 937.526 1437.17 Q937.239 1437.21 936.502 1437.25 Q930.64 1437.54 925.844 1441.51 Q924.656 1442.54 921.664 1445.73 Q918.712 1448.93 914.777 1453.19 Q910.883 1457.46 908.629 1459.75 L919.45 1485.66 Q919.901 1486.68 920.065 1487.13 Q920.27 1487.54 920.68 1488.08 Q921.131 1488.61 921.459 1488.77 Q921.827 1488.94 922.606 1489.14 Q923.426 1489.31 924.246 1489.35 Q925.107 1489.35 926.664 1489.39 Q927.156 1489.39 927.361 1489.43 Q927.607 1489.43 927.894 1489.67 Q928.181 1489.88 928.181 1490.37 Q928.181 1491.11 927.853 1491.52 Q927.566 1491.89 927.279 1491.93 Q927.033 1491.97 926.582 1491.97 Q925.517 1491.97 921.909 1491.85 Q918.302 1491.72 917.278 1491.72 L906.702 1491.97 Q905.432 1491.97 905.432 1490.95 Q905.432 1490.41 905.514 1490.13 Q905.637 1489.8 905.924 1489.67 Q906.211 1489.51 906.416 1489.47 Q906.62 1489.43 907.112 1489.39 Q908.629 1489.22 909.777 1488.77 Q910.965 1488.28 911.457 1487.79 Q911.99 1487.3 911.99 1486.93 L911.58 1485.74 L903.095 1465.7 L895.512 1473.93 L886.946 1482.99 Q884.691 1485.41 884.691 1486.76 Q884.691 1489.02 888.052 1489.39 Q889.077 1489.47 889.077 1490.29 Q889.077 1491.07 888.749 1491.48 Q888.462 1491.85 888.175 1491.93 Q887.929 1491.97 887.56 1491.97 Q886.044 1491.97 882.847 1491.85 Q879.691 1491.72 878.133 1491.72 Q876.821 1491.72 874.157 1491.85 Q871.493 1491.97 870.263 1491.97 Q869.771 1491.97 869.484 1491.72 Q869.197 1491.48 869.197 1491.23 L869.156 1491.03 Q869.156 1490.45 869.238 1490.13 Q869.361 1489.8 869.689 1489.63 Q870.058 1489.47 870.222 1489.47 Q870.386 1489.43 871.001 1489.39 Q874.485 1489.18 877.436 1487.83 Q880.428 1486.48 883.339 1483.32 Q883.584 1483.12 883.871 1482.87 Q884.199 1482.62 884.445 1482.42 L902.153 1463.36 L892.233 1439.91 Q891.782 1438.85 891.372 1438.4 Q890.963 1437.9 889.692 1437.58 Q888.421 1437.25 885.962 1437.25 Q885.265 1437.25 884.937 1437.21 Q884.609 1437.17 884.322 1436.96 Q884.035 1436.76 884.035 1436.31 Q884.035 1435.53 884.322 1435.16 Q884.65 1434.75 884.896 1434.71 Q885.183 1434.63 885.552 1434.63 Q886.577 1434.63 890.225 1434.75 Q893.873 1434.87 894.939 1434.87 Q896.701 1434.87 900.226 1434.75 Q903.792 1434.63 905.514 1434.63 Q906.784 1434.63 906.784 1435.65 Q906.784 1436.31 906.497 1436.68 Q906.211 1437.04 905.924 1437.13 Q905.637 1437.21 905.104 1437.25 Q903.505 1437.41 902.276 1437.95 Q901.087 1438.44 900.595 1438.93 Q900.144 1439.38 900.144 1439.67 L900.554 1440.77 L907.604 1457.46 L921.213 1442.86 Q922.811 1441.06 922.811 1439.83 Q922.811 1437.62 919.45 1437.25 Q918.425 1437.09 918.425 1436.31 Q918.425 1435.53 918.753 1435.16 Q919.081 1434.75 919.327 1434.71 Q919.614 1434.63 920.024 1434.63 Q921.541 1434.63 924.656 1434.75 Q927.812 1434.87 929.37 1434.87 Q930.681 1434.87 933.345 1434.75 Q936.01 1434.63 937.239 1434.63 Q937.731 1434.63 938.018 1434.87 Q938.305 1435.08 938.305 1435.32 L938.346 1435.57 Z" fill="#000000" fill-rule="evenodd" fill-opacity="1" /><path clip-path="url(#clip170)" d="M964.685 1489.16 Q964.685 1489.96 964.312 1490.16 Q963.939 1490.33 962.906 1490.33 L957.397 1490.33 L953.036 1507.66 Q952.691 1509.18 952.691 1510.47 Q952.691 1511.91 953.122 1512.54 Q953.581 1513.17 954.528 1513.17 Q956.393 1513.17 958.401 1511.48 Q960.438 1509.79 962.16 1505.65 Q962.389 1505.11 962.504 1504.99 Q962.648 1504.85 963.021 1504.85 Q963.738 1504.85 963.738 1505.42 Q963.738 1505.63 963.336 1506.54 Q962.963 1507.46 962.131 1508.81 Q961.328 1510.16 960.266 1511.42 Q959.233 1512.68 957.655 1513.6 Q956.077 1514.49 954.384 1514.49 Q952.003 1514.49 950.482 1512.97 Q948.99 1511.45 948.99 1509.07 Q948.99 1508.29 949.592 1505.83 Q950.195 1503.33 953.466 1490.33 L948.273 1490.33 Q947.555 1490.33 947.268 1490.3 Q947.01 1490.28 946.809 1490.13 Q946.637 1489.96 946.637 1489.62 Q946.637 1489.07 946.867 1488.84 Q947.096 1488.58 947.383 1488.55 Q947.699 1488.5 948.416 1488.5 L953.925 1488.5 L956.22 1479.17 Q956.45 1478.25 957.024 1477.74 Q957.626 1477.19 957.971 1477.13 Q958.315 1477.05 958.573 1477.05 Q959.348 1477.05 959.807 1477.48 Q960.266 1477.88 960.266 1478.63 Q960.266 1479.03 957.856 1488.5 L963.021 1488.5 Q963.68 1488.5 963.939 1488.52 Q964.226 1488.55 964.455 1488.7 Q964.685 1488.84 964.685 1489.16 Z" fill="#000000" fill-rule="evenodd" fill-opacity="1" /><polyline clip-path="url(#clip170)" style="stroke:#000000; stroke-linecap:round; stroke-linejoin:round; stroke-width:4; stroke-opacity:1; fill:none" points="
  325.611,1336.78 325.611,47.2441 
  "/>
<polyline clip-path="url(#clip170)" style="stroke:#000000; stroke-linecap:round; stroke-linejoin:round; stroke-width:4; stroke-opacity:1; fill:none" points="
  306.714,1078.87 344.509,1078.87 
  "/>
<polyline clip-path="url(#clip170)" style="stroke:#000000; stroke-linecap:round; stroke-linejoin:round; stroke-width:4; stroke-opacity:1; fill:none" points="
  306.714,820.966 344.509,820.966 
  "/>
<polyline clip-path="url(#clip170)" style="stroke:#000000; stroke-linecap:round; stroke-linejoin:round; stroke-width:4; stroke-opacity:1; fill:none" points="
  306.714,563.058 344.509,563.058 
  "/>
<polyline clip-path="url(#clip170)" style="stroke:#000000; stroke-linecap:round; stroke-linejoin:round; stroke-width:4; stroke-opacity:1; fill:none" points="
  306.714,305.151 344.509,305.151 
  "/>
<polyline clip-path="url(#clip170)" style="stroke:#000000; stroke-linecap:round; stroke-linejoin:round; stroke-width:4; stroke-opacity:1; fill:none" points="
  306.714,47.2441 344.509,47.2441 
  "/>
<path clip-path="url(#clip170)" d="M218.244 1057.57 Q212.827 1057.57 210.084 1062.92 Q207.376 1068.23 207.376 1078.92 Q207.376 1089.58 210.084 1094.93 Q212.827 1100.24 218.244 1100.24 Q223.695 1100.24 226.403 1094.93 Q229.147 1089.58 229.147 1078.92 Q229.147 1068.23 226.403 1062.92 Q223.695 1057.57 218.244 1057.57 M218.244 1052.02 Q226.959 1052.02 231.542 1058.92 Q236.16 1065.8 236.16 1078.92 Q236.16 1092.01 231.542 1098.92 Q226.959 1105.8 218.244 1105.8 Q209.529 1105.8 204.911 1098.92 Q200.327 1092.01 200.327 1078.92 Q200.327 1065.8 204.911 1058.92 Q209.529 1052.02 218.244 1052.02 Z" fill="#000000" fill-rule="evenodd" fill-opacity="1" /><path clip-path="url(#clip170)" d="M248.487 1095.97 L255.813 1095.97 L255.813 1104.79 L248.487 1104.79 L248.487 1095.97 Z" fill="#000000" fill-rule="evenodd" fill-opacity="1" /><path clip-path="url(#clip170)" d="M277.132 1098.89 L301.611 1098.89 L301.611 1104.79 L268.695 1104.79 L268.695 1098.89 Q272.688 1094.76 279.563 1087.81 Q286.473 1080.83 288.243 1078.82 Q291.611 1075.04 292.931 1072.43 Q294.285 1069.79 294.285 1067.26 Q294.285 1063.13 291.368 1060.52 Q288.486 1057.92 283.834 1057.92 Q280.535 1057.92 276.855 1059.06 Q273.209 1060.21 269.042 1062.54 L269.042 1055.45 Q273.278 1053.75 276.959 1052.88 Q280.639 1052.02 283.695 1052.02 Q291.75 1052.02 296.542 1056.04 Q301.334 1060.07 301.334 1066.81 Q301.334 1070 300.118 1072.88 Q298.938 1075.73 295.778 1079.62 Q294.91 1080.63 290.257 1085.45 Q285.605 1090.24 277.132 1098.89 Z" fill="#000000" fill-rule="evenodd" fill-opacity="1" /><path clip-path="url(#clip170)" d="M215.119 799.664 Q209.702 799.664 206.959 805.011 Q204.251 810.323 204.251 821.018 Q204.251 831.677 206.959 837.024 Q209.702 842.337 215.119 842.337 Q220.57 842.337 223.278 837.024 Q226.022 831.677 226.022 821.018 Q226.022 810.323 223.278 805.011 Q220.57 799.664 215.119 799.664 M215.119 794.108 Q223.834 794.108 228.417 801.018 Q233.035 807.893 233.035 821.018 Q233.035 834.108 228.417 841.018 Q223.834 847.892 215.119 847.892 Q206.404 847.892 201.786 841.018 Q197.202 834.108 197.202 821.018 Q197.202 807.893 201.786 801.018 Q206.404 794.108 215.119 794.108 Z" fill="#000000" fill-rule="evenodd" fill-opacity="1" /><path clip-path="url(#clip170)" d="M245.362 838.066 L252.688 838.066 L252.688 846.886 L245.362 846.886 L245.362 838.066 Z" fill="#000000" fill-rule="evenodd" fill-opacity="1" /><path clip-path="url(#clip170)" d="M287.236 801.157 L269.528 828.83 L287.236 828.83 L287.236 801.157 M285.396 795.046 L294.216 795.046 L294.216 828.83 L301.611 828.83 L301.611 834.663 L294.216 834.663 L294.216 846.886 L287.236 846.886 L287.236 834.663 L263.834 834.663 L263.834 827.893 L285.396 795.046 Z" fill="#000000" fill-rule="evenodd" fill-opacity="1" /><path clip-path="url(#clip170)" d="M215.605 541.756 Q210.188 541.756 207.445 547.104 Q204.737 552.416 204.737 563.11 Q204.737 573.77 207.445 579.117 Q210.188 584.43 215.605 584.43 Q221.056 584.43 223.765 579.117 Q226.508 573.77 226.508 563.11 Q226.508 552.416 223.765 547.104 Q221.056 541.756 215.605 541.756 M215.605 536.201 Q224.32 536.201 228.903 543.111 Q233.521 549.986 233.521 563.11 Q233.521 576.201 228.903 583.11 Q224.32 589.985 215.605 589.985 Q206.89 589.985 202.272 583.11 Q197.688 576.201 197.688 563.11 Q197.688 549.986 202.272 543.111 Q206.89 536.201 215.605 536.201 Z" fill="#000000" fill-rule="evenodd" fill-opacity="1" /><path clip-path="url(#clip170)" d="M245.848 580.159 L253.174 580.159 L253.174 588.978 L245.848 588.978 L245.848 580.159 Z" fill="#000000" fill-rule="evenodd" fill-opacity="1" /><path clip-path="url(#clip170)" d="M284.32 560.263 Q279.598 560.263 276.82 563.492 Q274.077 566.722 274.077 572.347 Q274.077 577.937 276.82 581.201 Q279.598 584.43 284.32 584.43 Q289.042 584.43 291.785 581.201 Q294.563 577.937 294.563 572.347 Q294.563 566.722 291.785 563.492 Q289.042 560.263 284.32 560.263 M298.243 538.284 L298.243 544.673 Q295.604 543.423 292.896 542.763 Q290.223 542.104 287.584 542.104 Q280.639 542.104 276.959 546.791 Q273.313 551.479 272.792 560.958 Q274.841 557.937 277.931 556.34 Q281.021 554.708 284.736 554.708 Q292.549 554.708 297.063 559.465 Q301.611 564.187 301.611 572.347 Q301.611 580.333 296.889 585.159 Q292.167 589.985 284.32 589.985 Q275.327 589.985 270.57 583.11 Q265.813 576.201 265.813 563.11 Q265.813 550.819 271.646 543.527 Q277.48 536.201 287.306 536.201 Q289.945 536.201 292.618 536.722 Q295.327 537.243 298.243 538.284 Z" fill="#000000" fill-rule="evenodd" fill-opacity="1" /><path clip-path="url(#clip170)" d="M215.987 283.849 Q210.57 283.849 207.827 289.196 Q205.119 294.509 205.119 305.203 Q205.119 315.863 207.827 321.21 Q210.57 326.523 215.987 326.523 Q221.438 326.523 224.147 321.21 Q226.89 315.863 226.89 305.203 Q226.89 294.509 224.147 289.196 Q221.438 283.849 215.987 283.849 M215.987 278.294 Q224.702 278.294 229.285 285.203 Q233.903 292.078 233.903 305.203 Q233.903 318.294 229.285 325.203 Q224.702 332.078 215.987 332.078 Q207.272 332.078 202.654 325.203 Q198.07 318.294 198.07 305.203 Q198.07 292.078 202.654 285.203 Q207.272 278.294 215.987 278.294 Z" fill="#000000" fill-rule="evenodd" fill-opacity="1" /><path clip-path="url(#clip170)" d="M246.23 322.252 L253.556 322.252 L253.556 331.071 L246.23 331.071 L246.23 322.252 Z" fill="#000000" fill-rule="evenodd" fill-opacity="1" /><path clip-path="url(#clip170)" d="M283.834 306.453 Q278.834 306.453 275.952 309.127 Q273.105 311.801 273.105 316.488 Q273.105 321.175 275.952 323.849 Q278.834 326.523 283.834 326.523 Q288.834 326.523 291.716 323.849 Q294.598 321.141 294.598 316.488 Q294.598 311.801 291.716 309.127 Q288.868 306.453 283.834 306.453 M276.82 303.467 Q272.306 302.356 269.771 299.266 Q267.271 296.176 267.271 291.731 Q267.271 285.516 271.681 281.905 Q276.125 278.294 283.834 278.294 Q291.577 278.294 295.986 281.905 Q300.396 285.516 300.396 291.731 Q300.396 296.176 297.861 299.266 Q295.361 302.356 290.882 303.467 Q295.952 304.648 298.764 308.085 Q301.611 311.523 301.611 316.488 Q301.611 324.023 296.993 328.05 Q292.41 332.078 283.834 332.078 Q275.257 332.078 270.639 328.05 Q266.056 324.023 266.056 316.488 Q266.056 311.523 268.903 308.085 Q271.75 304.648 276.82 303.467 M274.25 292.391 Q274.25 296.419 276.75 298.676 Q279.285 300.933 283.834 300.933 Q288.348 300.933 290.882 298.676 Q293.452 296.419 293.452 292.391 Q293.452 288.363 290.882 286.106 Q288.348 283.849 283.834 283.849 Q279.285 283.849 276.75 286.106 Q274.25 288.363 274.25 292.391 Z" fill="#000000" fill-rule="evenodd" fill-opacity="1" /><path clip-path="url(#clip170)" d="M202.063 67.2613 L213.522 67.2613 L213.522 27.7129 L201.056 30.2129 L201.056 23.8241 L213.452 21.3241 L220.466 21.3241 L220.466 67.2613 L231.924 67.2613 L231.924 73.1641 L202.063 73.1641 L202.063 67.2613 Z" fill="#000000" fill-rule="evenodd" fill-opacity="1" /><path clip-path="url(#clip170)" d="M246.091 64.3447 L253.417 64.3447 L253.417 73.1641 L246.091 73.1641 L246.091 64.3447 Z" fill="#000000" fill-rule="evenodd" fill-opacity="1" /><path clip-path="url(#clip170)" d="M283.695 25.9421 Q278.278 25.9421 275.535 31.2893 Q272.827 36.6018 272.827 47.2962 Q272.827 57.9558 275.535 63.303 Q278.278 68.6155 283.695 68.6155 Q289.146 68.6155 291.855 63.303 Q294.598 57.9558 294.598 47.2962 Q294.598 36.6018 291.855 31.2893 Q289.146 25.9421 283.695 25.9421 M283.695 20.3866 Q292.41 20.3866 296.993 27.2963 Q301.611 34.1712 301.611 47.2962 Q301.611 60.3864 296.993 67.2961 Q292.41 74.171 283.695 74.171 Q274.98 74.171 270.362 67.2961 Q265.778 60.3864 265.778 47.2962 Q265.778 34.1712 270.362 27.2963 Q274.98 20.3866 283.695 20.3866 Z" fill="#000000" fill-rule="evenodd" fill-opacity="1" /><path clip-path="url(#clip170)" d="M65.5607 802.824 L88.2862 802.824 L88.2862 792.535 Q88.2862 786.823 85.3291 783.704 Q82.3719 780.585 76.9032 780.585 Q71.475 780.585 68.5178 783.704 Q65.5607 786.823 65.5607 792.535 L65.5607 802.824 M58.8362 811.007 L58.8362 792.535 Q58.8362 782.367 63.4542 777.182 Q68.0317 771.957 76.9032 771.957 Q85.8557 771.957 90.4332 777.182 Q95.0107 782.367 95.0107 792.535 L95.0107 802.824 L119.316 802.824 L119.316 811.007 L58.8362 811.007 Z" fill="#000000" fill-rule="evenodd" fill-opacity="1" /><path clip-path="url(#clip170)" d="M58.8362 734.607 L58.8362 699.85 L65.7227 699.85 L65.7227 726.424 L83.5467 726.424 L83.5467 702.443 L90.4332 702.443 L90.4332 726.424 L119.316 726.424 L119.316 734.607 L58.8362 734.607 Z" fill="#000000" fill-rule="evenodd" fill-opacity="1" /><path clip-path="url(#clip170)" d="M56.2841 687.212 L56.2841 679.758 L119.316 679.758 L119.316 687.212 L56.2841 687.212 Z" fill="#000000" fill-rule="evenodd" fill-opacity="1" /><path clip-path="url(#clip170)" d="M101.411 664.932 L73.946 664.932 L73.946 657.478 L101.128 657.478 Q107.569 657.478 110.809 654.966 Q114.009 652.455 114.009 647.432 Q114.009 641.396 110.161 637.912 Q106.313 634.388 99.6693 634.388 L73.946 634.388 L73.946 626.934 L119.316 626.934 L119.316 634.388 L112.349 634.388 Q116.481 637.102 118.506 640.707 Q120.491 644.272 120.491 649.012 Q120.491 656.83 115.63 660.881 Q110.769 664.932 101.411 664.932 M72.8523 646.176 L72.8523 646.176 Z" fill="#000000" fill-rule="evenodd" fill-opacity="1" /><path clip-path="url(#clip170)" d="M73.946 573.867 L96.0235 590.274 L119.316 573.017 L119.316 581.807 L101.492 595.013 L119.316 608.219 L119.316 617.009 L95.5779 599.388 L73.946 615.511 L73.946 606.72 L90.1091 594.689 L73.946 582.658 L73.946 573.867 Z" fill="#000000" fill-rule="evenodd" fill-opacity="1" /><polyline clip-path="url(#clip172)" style="stroke:#000000; stroke-linecap:round; stroke-linejoin:round; stroke-width:20; stroke-opacity:1; fill:none" points="
  325.611,1336.78 349.439,1275.37 373.267,1219.55 397.096,1168.58 420.924,1121.86 444.752,1078.87 468.58,1039.19 492.408,1002.46 516.236,968.341 540.064,936.579 
  563.892,906.935 587.72,879.203 611.548,853.204 635.376,828.781 659.204,805.795 683.032,784.122 706.86,763.653 730.688,744.29 754.516,725.947 778.344,708.544 
  802.172,692.012 826,676.286 849.828,661.309 873.657,647.028 897.485,633.397 921.313,620.371 945.141,607.912 968.969,595.983 992.797,584.551 1016.62,573.585 
  1040.45,563.058 1064.28,552.944 1088.11,543.219 1111.94,533.861 1135.77,524.85 1159.59,516.166 1183.42,507.793 1207.25,499.713 1231.08,491.912 1254.91,484.375 
  1278.73,477.089 1302.56,470.043 1326.39,463.223 1350.22,456.621 1374.05,450.224 1397.87,444.024 1421.7,438.013 1445.53,432.18 1469.36,426.519 1493.19,421.023 
  1517.01,415.683 
  "/>
<polyline clip-path="url(#clip172)" style="stroke:#44aa99; stroke-linecap:round; stroke-linejoin:round; stroke-width:12; stroke-opacity:1; fill:none" stroke-dasharray="48, 30" points="
  325.611,1336.78 349.439,1298.09 373.267,1259.41 397.096,1220.72 420.924,1182.04 444.752,1143.35 468.58,1104.66 492.408,1065.98 516.236,1027.29 540.064,988.605 
  563.892,949.919 587.72,911.233 611.548,872.547 635.376,833.861 659.204,795.175 683.032,756.489 706.86,717.803 730.688,679.117 754.516,640.431 778.344,601.744 
  802.172,563.058 826,524.372 849.828,485.686 873.657,447 897.485,408.314 921.313,369.628 945.141,330.942 968.969,292.256 992.797,253.57 1016.62,214.884 
  1040.45,176.198 1064.28,137.512 1088.11,98.8255 1111.94,60.1395 1135.77,21.4534 1159.59,-17.2327 1183.42,-55.9188 1207.25,-94.6048 1231.08,-133.291 1254.91,-171.977 
  1278.73,-210.663 1302.56,-249.349 1326.39,-288.035 1350.22,-326.721 1374.05,-365.407 1397.87,-404.093 1421.7,-442.779 1445.53,-481.466 1469.36,-520.152 1493.19,-558.838 
  1517.01,-597.524 
  "/>
<polyline clip-path="url(#clip172)" style="stroke:#117733; stroke-linecap:round; stroke-linejoin:round; stroke-width:12; stroke-opacity:1; fill:none" stroke-dasharray="48, 30" points="
  325.611,1336.78 349.439,1310.99 373.267,1285.2 397.096,1259.41 420.924,1233.62 444.752,1207.83 468.58,1182.04 492.408,1156.24 516.236,1130.45 540.064,1104.66 
  563.892,1078.87 587.72,1053.08 611.548,1027.29 635.376,1001.5 659.204,975.71 683.032,949.919 706.86,924.128 730.688,898.338 754.516,872.547 778.344,846.756 
  802.172,820.966 826,795.175 849.828,769.384 873.657,743.593 897.485,717.803 921.313,692.012 945.141,666.221 968.969,640.431 992.797,614.64 1016.62,588.849 
  1040.45,563.058 1064.28,537.268 1088.11,511.477 1111.94,485.686 1135.77,459.896 1159.59,434.105 1183.42,408.314 1207.25,382.523 1231.08,356.733 1254.91,330.942 
  1278.73,305.151 1302.56,279.361 1326.39,253.57 1350.22,227.779 1374.05,201.988 1397.87,176.198 1421.7,150.407 1445.53,124.616 1469.36,98.8255 1493.19,73.0348 
  1517.01,47.2441 
  "/>
<polyline clip-path="url(#clip172)" style="stroke:#332288; stroke-linecap:round; stroke-linejoin:round; stroke-width:12; stroke-opacity:1; fill:none" stroke-dasharray="48, 30" points="
  325.611,1336.78 349.439,1323.88 373.267,1310.99 397.096,1298.09 420.924,1285.2 444.752,1272.3 468.58,1259.41 492.408,1246.51 516.236,1233.62 540.064,1220.72 
  563.892,1207.83 587.72,1194.93 611.548,1182.04 635.376,1169.14 659.204,1156.24 683.032,1143.35 706.86,1130.45 730.688,1117.56 754.516,1104.66 778.344,1091.77 
  802.172,1078.87 826,1065.98 849.828,1053.08 873.657,1040.19 897.485,1027.29 921.313,1014.4 945.141,1001.5 968.969,988.605 992.797,975.71 1016.62,962.814 
  1040.45,949.919 1064.28,937.024 1088.11,924.128 1111.94,911.233 1135.77,898.338 1159.59,885.442 1183.42,872.547 1207.25,859.652 1231.08,846.756 1254.91,833.861 
  1278.73,820.966 1302.56,808.07 1326.39,795.175 1350.22,782.279 1374.05,769.384 1397.87,756.489 1421.7,743.593 1445.53,730.698 1469.36,717.803 1493.19,704.907 
  1517.01,692.012 
  "/>
<polyline clip-path="url(#clip172)" style="stroke:#ff0000; stroke-linecap:round; stroke-linejoin:round; stroke-width:8; stroke-opacity:1; fill:none" points="
  516.236,1207.83 992.797,692.012 
  "/>
<polyline clip-path="url(#clip172)" style="stroke:#ff0000; stroke-linecap:round; stroke-linejoin:round; stroke-width:8; stroke-opacity:1; fill:none" points="
  967.696,701.497 992.797,692.012 985.324,717.783 
  "/>
<polyline clip-path="url(#clip172)" style="stroke:#ff0000; stroke-linecap:round; stroke-linejoin:round; stroke-width:8; stroke-opacity:1; fill:none" points="
  992.797,692.012 516.236,1207.83 
  "/>
<polyline clip-path="url(#clip172)" style="stroke:#ff0000; stroke-linecap:round; stroke-linejoin:round; stroke-width:8; stroke-opacity:1; fill:none" points="
  1421.7,214.884 1183.42,472.791 
  "/>
<polyline clip-path="url(#clip172)" style="stroke:#ff0000; stroke-linecap:round; stroke-linejoin:round; stroke-width:8; stroke-opacity:1; fill:none" points="
  1208.52,463.306 1183.42,472.791 1190.89,447.02 
  "/>
<polyline clip-path="url(#clip172)" style="stroke:#ff0000; stroke-linecap:round; stroke-linejoin:round; stroke-width:8; stroke-opacity:1; fill:none" points="
  1183.42,472.791 1421.7,214.884 
  "/>
<path clip-path="url(#clip172)" d="M644.907 951.184 L635.507 978.224 L606.867 978.824 L629.707 996.144 L621.387 1023.54 L644.907 1007.18 L668.427 1023.54 L660.107 996.144 L682.947 978.824 L654.307 978.224 L644.907 951.184 Z" fill="#ffd700" fill-rule="evenodd" fill-opacity="1" stroke="#000000" stroke-opacity="1" stroke-width="3.2"/>
<path clip-path="url(#clip170)" d="
M331.966 401.269 L675.216 401.269 L675.216 90.2286 L331.966 90.2286  Z
  " fill="#ffffff" fill-rule="evenodd" fill-opacity="1"/>
<polyline clip-path="url(#clip170)" style="stroke:#000000; stroke-linecap:round; stroke-linejoin:round; stroke-width:4; stroke-opacity:1; fill:none" points="
  331.966,401.269 675.216,401.269 675.216,90.2286 331.966,90.2286 331.966,401.269 
  "/>
<polyline clip-path="url(#clip170)" style="stroke:#44aa99; stroke-linecap:round; stroke-linejoin:round; stroke-width:6; stroke-opacity:1; fill:none" stroke-dasharray="24, 15" points="
  345.998,167.989 430.19,167.989 
  "/>
<path clip-path="url(#clip170)" d="M470.713 171.624 Q470.713 176.683 468.148 181.637 Q465.619 186.556 461.543 189.648 Q457.503 192.739 453.357 192.739 Q449.317 192.739 446.752 189.648 Q444.222 186.521 444.222 181.426 Q444.222 179.635 444.433 178.37 Q444.644 177.105 445.382 174.154 L451.284 150.684 Q452.303 146.293 452.303 146.258 Q452.303 145.836 452.127 145.625 Q451.987 145.379 451.143 145.204 Q450.3 145.028 448.684 145.028 Q448.017 145.028 447.7 144.993 Q447.419 144.958 447.173 144.782 Q446.963 144.571 446.963 144.15 Q446.963 143.552 447.208 143.236 Q447.49 142.885 447.7 142.814 Q447.911 142.744 448.333 142.709 Q448.93 142.674 450.933 142.498 Q452.935 142.287 454.657 142.147 Q456.378 142.006 457.116 142.006 Q457.538 142.006 457.749 142.217 Q457.995 142.393 457.995 142.604 L458.03 142.779 L452.724 164.457 Q456.905 160.135 461.157 160.135 Q465.408 160.135 468.043 163.403 Q470.713 166.67 470.713 171.624 M465.513 168.462 Q465.513 165.124 464.248 163.438 Q463.019 161.716 460.981 161.716 Q459.259 161.716 457.011 163.016 Q454.762 164.316 452.373 167.478 Q451.916 168.076 451.741 168.427 Q451.6 168.778 451.284 169.973 L449.703 176.613 Q448.544 181.145 448.544 183.886 Q448.544 187.61 449.914 189.367 Q451.284 191.123 453.357 191.123 Q455.535 191.123 457.819 189.191 Q460.103 187.259 461.859 183.745 Q462.948 181.426 464.213 176.437 Q465.513 171.413 465.513 168.462 Z" fill="#000000" fill-rule="evenodd" fill-opacity="1" /><path clip-path="url(#clip170)" d="M494.734 181.005 Q494.804 180.126 496.175 180.126 L540.267 180.126 Q542.34 180.126 542.375 180.934 Q542.375 181.813 540.408 181.778 L496.667 181.778 Q494.734 181.813 494.734 181.005 M494.734 166.951 Q494.734 166.073 496.245 166.108 L540.197 166.108 Q542.34 166.108 542.375 166.951 Q542.375 167.759 540.548 167.759 L496.175 167.759 Q494.734 167.759 494.734 166.951 Z" fill="#000000" fill-rule="evenodd" fill-opacity="1" /><path clip-path="url(#clip170)" d="M570.125 168.919 Q570.125 158.344 572.795 152.582 Q576.519 144.009 585.302 144.009 Q587.165 144.009 589.097 144.536 Q591.064 145.028 593.524 146.96 Q596.018 148.893 597.529 152.055 Q600.41 158.168 600.41 168.919 Q600.41 179.424 597.74 185.151 Q593.84 193.512 585.232 193.512 Q582 193.512 578.697 191.861 Q575.43 190.21 573.357 186.24 Q570.125 180.302 570.125 168.919 M576.097 168.04 Q576.097 178.897 576.87 183.218 Q577.749 187.891 580.138 189.929 Q582.562 191.931 585.232 191.931 Q588.113 191.931 590.502 189.788 Q592.926 187.61 593.664 182.937 Q594.472 178.335 594.437 168.04 Q594.437 158.027 593.735 154.022 Q592.786 149.349 590.256 147.487 Q587.762 145.59 585.232 145.59 Q584.284 145.59 583.265 145.871 Q582.281 146.152 580.84 146.96 Q579.4 147.768 578.276 149.771 Q577.187 151.774 576.66 154.795 Q576.097 158.695 576.097 168.04 Z" fill="#000000" fill-rule="evenodd" fill-opacity="1" /><path clip-path="url(#clip170)" d="M606.844 190.772 Q605.755 189.613 605.755 188.102 Q605.755 186.591 606.844 185.502 Q607.933 184.378 609.584 184.378 Q611.165 184.378 612.219 185.432 Q613.309 186.45 613.309 188.137 Q613.309 189.788 612.149 190.877 Q611.025 191.931 609.584 191.931 Q607.933 191.931 606.844 190.772 Z" fill="#000000" fill-rule="evenodd" fill-opacity="1" /><path clip-path="url(#clip170)" d="M625.553 169.2 Q625.553 157.887 631.315 150.965 Q637.077 144.009 644.49 144.009 Q648.812 144.009 651.201 146.222 Q653.625 148.401 653.625 151.774 Q653.625 153.636 652.536 154.444 Q651.447 155.252 650.323 155.252 Q649.023 155.252 648.004 154.373 Q646.985 153.495 646.985 151.914 Q646.985 148.682 650.955 148.682 Q649.093 145.801 644.631 145.801 Q643.261 145.801 641.855 146.222 Q640.45 146.609 638.623 147.944 Q636.796 149.279 635.391 151.387 Q633.985 153.495 633.002 157.465 Q632.018 161.435 632.018 166.6 L632.018 168.322 Q634.969 161.189 641.012 161.225 Q647.055 161.225 651.236 165.827 Q655.417 170.43 655.417 177.245 Q655.417 184.237 651.06 188.875 Q646.704 193.512 640.591 193.512 Q637.85 193.512 635.356 192.353 Q632.896 191.229 630.577 188.629 Q628.294 186.029 626.924 181.04 Q625.553 176.051 625.553 169.2 M632.158 175.664 Q632.158 182.726 633.458 186.099 Q633.669 186.661 634.126 187.434 Q634.618 188.207 635.426 189.226 Q636.269 190.21 637.639 190.877 Q639.01 191.51 640.591 191.51 Q645.404 191.51 647.723 186.837 Q648.952 184.237 648.952 177.175 Q648.952 169.973 647.652 167.338 Q645.439 162.876 640.942 162.876 Q637.92 162.876 635.812 164.949 Q633.739 167.022 632.931 169.797 Q632.158 172.573 632.158 175.664 Z" fill="#000000" fill-rule="evenodd" fill-opacity="1" /><polyline clip-path="url(#clip170)" style="stroke:#117733; stroke-linecap:round; stroke-linejoin:round; stroke-width:6; stroke-opacity:1; fill:none" stroke-dasharray="24, 15" points="
  345.998,245.749 430.19,245.749 
  "/>
<path clip-path="url(#clip170)" d="M470.713 249.384 Q470.713 254.443 468.148 259.397 Q465.619 264.316 461.543 267.408 Q457.503 270.499 453.357 270.499 Q449.317 270.499 446.752 267.408 Q444.222 264.281 444.222 259.186 Q444.222 257.395 444.433 256.13 Q444.644 254.865 445.382 251.914 L451.284 228.444 Q452.303 224.053 452.303 224.018 Q452.303 223.596 452.127 223.385 Q451.987 223.139 451.143 222.964 Q450.3 222.788 448.684 222.788 Q448.017 222.788 447.7 222.753 Q447.419 222.718 447.173 222.542 Q446.963 222.331 446.963 221.91 Q446.963 221.312 447.208 220.996 Q447.49 220.645 447.7 220.574 Q447.911 220.504 448.333 220.469 Q448.93 220.434 450.933 220.258 Q452.935 220.047 454.657 219.907 Q456.378 219.766 457.116 219.766 Q457.538 219.766 457.749 219.977 Q457.995 220.153 457.995 220.364 L458.03 220.539 L452.724 242.217 Q456.905 237.895 461.157 237.895 Q465.408 237.895 468.043 241.163 Q470.713 244.43 470.713 249.384 M465.513 246.222 Q465.513 242.884 464.248 241.198 Q463.019 239.476 460.981 239.476 Q459.259 239.476 457.011 240.776 Q454.762 242.076 452.373 245.238 Q451.916 245.836 451.741 246.187 Q451.6 246.538 451.284 247.733 L449.703 254.373 Q448.544 258.905 448.544 261.646 Q448.544 265.37 449.914 267.127 Q451.284 268.883 453.357 268.883 Q455.535 268.883 457.819 266.951 Q460.103 265.019 461.859 261.505 Q462.948 259.186 464.213 254.197 Q465.513 249.173 465.513 246.222 Z" fill="#000000" fill-rule="evenodd" fill-opacity="1" /><path clip-path="url(#clip170)" d="M494.734 258.765 Q494.804 257.886 496.175 257.886 L540.267 257.886 Q542.34 257.886 542.375 258.694 Q542.375 259.573 540.408 259.538 L496.667 259.538 Q494.734 259.573 494.734 258.765 M494.734 244.711 Q494.734 243.833 496.245 243.868 L540.197 243.868 Q542.34 243.868 542.375 244.711 Q542.375 245.519 540.548 245.519 L496.175 245.519 Q494.734 245.519 494.734 244.711 Z" fill="#000000" fill-rule="evenodd" fill-opacity="1" /><path clip-path="url(#clip170)" d="M570.125 246.679 Q570.125 236.104 572.795 230.342 Q576.519 221.769 585.302 221.769 Q587.165 221.769 589.097 222.296 Q591.064 222.788 593.524 224.72 Q596.018 226.653 597.529 229.815 Q600.41 235.928 600.41 246.679 Q600.41 257.184 597.74 262.911 Q593.84 271.272 585.232 271.272 Q582 271.272 578.697 269.621 Q575.43 267.97 573.357 264 Q570.125 258.062 570.125 246.679 M576.097 245.8 Q576.097 256.657 576.87 260.978 Q577.749 265.651 580.138 267.689 Q582.562 269.691 585.232 269.691 Q588.113 269.691 590.502 267.548 Q592.926 265.37 593.664 260.697 Q594.472 256.095 594.437 245.8 Q594.437 235.787 593.735 231.782 Q592.786 227.109 590.256 225.247 Q587.762 223.35 585.232 223.35 Q584.284 223.35 583.265 223.631 Q582.281 223.912 580.84 224.72 Q579.4 225.528 578.276 227.531 Q577.187 229.534 576.66 232.555 Q576.097 236.455 576.097 245.8 Z" fill="#000000" fill-rule="evenodd" fill-opacity="1" /><path clip-path="url(#clip170)" d="M606.844 268.532 Q605.755 267.373 605.755 265.862 Q605.755 264.351 606.844 263.262 Q607.933 262.138 609.584 262.138 Q611.165 262.138 612.219 263.192 Q613.309 264.21 613.309 265.897 Q613.309 267.548 612.149 268.637 Q611.025 269.691 609.584 269.691 Q607.933 269.691 606.844 268.532 Z" fill="#000000" fill-rule="evenodd" fill-opacity="1" /><path clip-path="url(#clip170)" d="M625.553 257.816 L625.553 255.603 L647.652 221.839 Q648.215 220.961 649.093 220.996 Q649.901 220.996 650.077 221.312 Q650.252 221.628 650.252 222.858 L650.252 255.603 L657.455 255.603 L657.455 257.816 L650.252 257.816 L650.252 264.07 Q650.252 266.143 651.095 266.81 Q651.974 267.478 655.698 267.478 L657.209 267.478 L657.209 269.691 Q654.258 269.481 647.442 269.481 Q640.661 269.481 637.71 269.691 L637.71 267.478 L639.22 267.478 Q642.944 267.478 643.823 266.846 Q644.701 266.178 644.701 264.07 L644.701 257.816 L625.553 257.816 M627.591 255.603 L645.123 255.603 L645.123 228.761 L627.591 255.603 Z" fill="#000000" fill-rule="evenodd" fill-opacity="1" /><polyline clip-path="url(#clip170)" style="stroke:#332288; stroke-linecap:round; stroke-linejoin:round; stroke-width:6; stroke-opacity:1; fill:none" stroke-dasharray="24, 15" points="
  345.998,323.509 430.19,323.509 
  "/>
<path clip-path="url(#clip170)" d="M470.713 327.144 Q470.713 332.203 468.148 337.157 Q465.619 342.076 461.543 345.168 Q457.503 348.259 453.357 348.259 Q449.317 348.259 446.752 345.168 Q444.222 342.041 444.222 336.946 Q444.222 335.155 444.433 333.89 Q444.644 332.625 445.382 329.674 L451.284 306.204 Q452.303 301.813 452.303 301.778 Q452.303 301.356 452.127 301.145 Q451.987 300.899 451.143 300.724 Q450.3 300.548 448.684 300.548 Q448.017 300.548 447.7 300.513 Q447.419 300.478 447.173 300.302 Q446.963 300.091 446.963 299.67 Q446.963 299.072 447.208 298.756 Q447.49 298.405 447.7 298.334 Q447.911 298.264 448.333 298.229 Q448.93 298.194 450.933 298.018 Q452.935 297.807 454.657 297.667 Q456.378 297.526 457.116 297.526 Q457.538 297.526 457.749 297.737 Q457.995 297.913 457.995 298.124 L458.03 298.299 L452.724 319.977 Q456.905 315.655 461.157 315.655 Q465.408 315.655 468.043 318.923 Q470.713 322.19 470.713 327.144 M465.513 323.982 Q465.513 320.644 464.248 318.958 Q463.019 317.236 460.981 317.236 Q459.259 317.236 457.011 318.536 Q454.762 319.836 452.373 322.998 Q451.916 323.596 451.741 323.947 Q451.6 324.298 451.284 325.493 L449.703 332.133 Q448.544 336.665 448.544 339.406 Q448.544 343.13 449.914 344.887 Q451.284 346.643 453.357 346.643 Q455.535 346.643 457.819 344.711 Q460.103 342.779 461.859 339.265 Q462.948 336.946 464.213 331.957 Q465.513 326.933 465.513 323.982 Z" fill="#000000" fill-rule="evenodd" fill-opacity="1" /><path clip-path="url(#clip170)" d="M494.734 336.525 Q494.804 335.646 496.175 335.646 L540.267 335.646 Q542.34 335.646 542.375 336.454 Q542.375 337.333 540.408 337.298 L496.667 337.298 Q494.734 337.333 494.734 336.525 M494.734 322.471 Q494.734 321.593 496.245 321.628 L540.197 321.628 Q542.34 321.628 542.375 322.471 Q542.375 323.279 540.548 323.279 L496.175 323.279 Q494.734 323.279 494.734 322.471 Z" fill="#000000" fill-rule="evenodd" fill-opacity="1" /><path clip-path="url(#clip170)" d="M570.125 324.439 Q570.125 313.864 572.795 308.102 Q576.519 299.529 585.302 299.529 Q587.165 299.529 589.097 300.056 Q591.064 300.548 593.524 302.48 Q596.018 304.413 597.529 307.575 Q600.41 313.688 600.41 324.439 Q600.41 334.944 597.74 340.671 Q593.84 349.032 585.232 349.032 Q582 349.032 578.697 347.381 Q575.43 345.73 573.357 341.76 Q570.125 335.822 570.125 324.439 M576.097 323.56 Q576.097 334.417 576.87 338.738 Q577.749 343.411 580.138 345.449 Q582.562 347.451 585.232 347.451 Q588.113 347.451 590.502 345.308 Q592.926 343.13 593.664 338.457 Q594.472 333.855 594.437 323.56 Q594.437 313.547 593.735 309.542 Q592.786 304.869 590.256 303.007 Q587.762 301.11 585.232 301.11 Q584.284 301.11 583.265 301.391 Q582.281 301.672 580.84 302.48 Q579.4 303.288 578.276 305.291 Q577.187 307.294 576.66 310.315 Q576.097 314.215 576.097 323.56 Z" fill="#000000" fill-rule="evenodd" fill-opacity="1" /><path clip-path="url(#clip170)" d="M606.844 346.292 Q605.755 345.133 605.755 343.622 Q605.755 342.111 606.844 341.022 Q607.933 339.898 609.584 339.898 Q611.165 339.898 612.219 340.952 Q613.309 341.97 613.309 343.657 Q613.309 345.308 612.149 346.397 Q611.025 347.451 609.584 347.451 Q607.933 347.451 606.844 346.292 Z" fill="#000000" fill-rule="evenodd" fill-opacity="1" /><path clip-path="url(#clip170)" d="M625.553 347.451 Q625.553 346.151 625.659 345.765 Q625.799 345.378 626.361 344.781 L640.169 329.393 Q647.723 320.89 647.723 313.477 Q647.723 308.664 645.193 305.221 Q642.699 301.778 638.096 301.778 Q634.934 301.778 632.264 303.71 Q629.594 305.642 628.364 309.085 Q628.575 309.015 629.313 309.015 Q631.104 309.015 632.088 310.139 Q633.107 311.264 633.107 312.774 Q633.107 314.707 631.842 315.655 Q630.613 316.569 629.383 316.569 Q628.891 316.569 628.223 316.463 Q627.591 316.358 626.572 315.374 Q625.553 314.355 625.553 312.564 Q625.553 307.539 629.348 303.534 Q633.177 299.529 639.01 299.529 Q645.615 299.529 649.936 303.464 Q654.293 307.364 654.293 313.477 Q654.293 315.62 653.625 317.588 Q652.993 319.52 652.114 321.031 Q651.271 322.542 648.952 324.966 Q646.634 327.39 644.771 329.112 Q642.909 330.833 638.728 334.487 L631.104 341.9 L644.069 341.9 Q650.393 341.9 650.885 341.338 Q651.587 340.319 652.466 334.944 L654.293 334.944 L652.255 347.451 L625.553 347.451 Z" fill="#000000" fill-rule="evenodd" fill-opacity="1" /></svg>
