<?xml version="1.0" encoding="utf-8"?>
<svg xmlns="http://www.w3.org/2000/svg" xmlns:xlink="http://www.w3.org/1999/xlink" width="528" height="336" viewBox="0 0 2112 1344">
<defs>
  <clipPath id="clip200">
    <rect x="0" y="0" width="2112" height="1344"/>
  </clipPath>
</defs>
<path clip-path="url(#clip200)" d="M0 1344 L2112 1344 L2112 2.13163e-14 L0 2.13163e-14  Z" fill="#ffffff" fill-rule="evenodd" fill-opacity="1"/>
<defs>
  <clipPath id="clip201">
    <rect x="422" y="0" width="1479" height="1344"/>
  </clipPath>
</defs>
<path clip-path="url(#clip200)" d="M287.673 1173.47 L2064.76 1173.47 L2064.76 47.2441 L287.673 47.2441  Z" fill="#ffffff" fill-rule="evenodd" fill-opacity="1"/>
<defs>
  <clipPath id="clip202">
    <rect x="287" y="47" width="1778" height="1127"/>
  </clipPath>
</defs>
<polyline clip-path="url(#clip202)" style="stroke:#000000; stroke-linecap:round; stroke-linejoin:round; stroke-width:2; stroke-opacity:0.1; fill:none" points="336.29,1173.47 336.29,47.2441 "/>
<polyline clip-path="url(#clip202)" style="stroke:#000000; stroke-linecap:round; stroke-linejoin:round; stroke-width:2; stroke-opacity:0.1; fill:none" points="755.833,1173.47 755.833,47.2441 "/>
<polyline clip-path="url(#clip202)" style="stroke:#000000; stroke-linecap:round; stroke-linejoin:round; stroke-width:2; stroke-opacity:0.1; fill:none" points="1175.38,1173.47 1175.38,47.2441 "/>
<polyline clip-path="url(#clip202)" style="stroke:#000000; stroke-linecap:round; stroke-linejoin:round; stroke-width:2; stroke-opacity:0.1; fill:none" points="1594.92,1173.47 1594.92,47.2441 "/>
<polyline clip-path="url(#clip202)" style="stroke:#000000; stroke-linecap:round; stroke-linejoin:round; stroke-width:2; stroke-opacity:0.1; fill:none" points="2014.46,1173.47 2014.46,47.2441 "/>
<polyline clip-path="url(#clip202)" style="stroke:#000000; stroke-linecap:round; stroke-linejoin:round; stroke-width:2; stroke-opacity:0.1; fill:none" points="287.673,1141.6 2064.76,1141.6 "/>
<polyline clip-path="url(#clip202)" style="stroke:#000000; stroke-linecap:round; stroke-linejoin:round; stroke-width:2; stroke-opacity:0.1; fill:none" points="287.673,913.923 2064.76,913.923 "/>
<polyline clip-path="url(#clip202)" style="stroke:#000000; stroke-linecap:round; stroke-linejoin:round; stroke-width:2; stroke-opacity:0.1; fill:none" points="287.673,686.249 2064.76,686.249 "/>
<polyline clip-path="url(#clip202)" style="stroke:#000000; stroke-linecap:round; stroke-linejoin:round; stroke-width:2; stroke-opacity:0.1; fill:none" points="287.673,458.575 2064.76,458.575 "/>
<polyline clip-path="url(#clip202)" style="stroke:#000000; stroke-linecap:round; stroke-linejoin:round; stroke-width:2; stroke-opacity:0.1; fill:none" points="287.673,230.901 2064.76,230.901 "/>
<polyline clip-path="url(#clip200)" style="stroke:#000000; stroke-linecap:round; stroke-linejoin:round; stroke-width:4; stroke-opacity:1; fill:none" points="287.673,1173.47 2064.76,1173.47 "/>
<polyline clip-path="url(#clip200)" style="stroke:#000000; stroke-linecap:round; stroke-linejoin:round; stroke-width:4; stroke-opacity:1; fill:none" points="336.29,1173.47 336.29,1154.57 "/>
<polyline clip-path="url(#clip200)" style="stroke:#000000; stroke-linecap:round; stroke-linejoin:round; stroke-width:4; stroke-opacity:1; fill:none" points="755.833,1173.47 755.833,1154.57 "/>
<polyline clip-path="url(#clip200)" style="stroke:#000000; stroke-linecap:round; stroke-linejoin:round; stroke-width:4; stroke-opacity:1; fill:none" points="1175.38,1173.47 1175.38,1154.57 "/>
<polyline clip-path="url(#clip200)" style="stroke:#000000; stroke-linecap:round; stroke-linejoin:round; stroke-width:4; stroke-opacity:1; fill:none" points="1594.92,1173.47 1594.92,1154.57 "/>
<polyline clip-path="url(#clip200)" style="stroke:#000000; stroke-linecap:round; stroke-linejoin:round; stroke-width:4; stroke-opacity:1; fill:none" points="2014.46,1173.47 2014.46,1154.57 "/>
<path clip-path="url(#clip200)" d="M336.29 1202.09 Q332.679 1202.09 330.85 1205.65 Q329.044 1209.19 329.044 1216.32 Q329.044 1223.43 330.85 1226.99 Q332.679 1230.53 336.29 1230.53 Q339.924 1230.53 341.73 1226.99 Q343.558 1223.43 343.558 1216.32 Q343.558 1209.19 341.73 1205.65 Q339.924 1202.09 336.29 1202.09 M336.29 1198.38 Q342.1 1198.38 345.155 1202.99 Q348.234 1207.57 348.234 1216.32 Q348.234 1225.05 345.155 1229.65 Q342.1 1234.24 336.29 1234.24 Q330.48 1234.24 327.401 1229.65 Q324.345 1225.05 324.345 1216.32 Q324.345 1207.57 327.401 1202.99 Q330.48 1198.38 336.29 1198.38 Z" fill="#000000" fill-rule="nonzero" fill-opacity="1" /><path clip-path="url(#clip200)" d="M719.525 1229.63 L735.844 1229.63 L735.844 1233.57 L713.9 1233.57 L713.9 1229.63 Q716.562 1226.88 721.145 1222.25 Q725.752 1217.59 726.932 1216.25 Q729.178 1213.73 730.057 1211.99 Q730.96 1210.23 730.96 1208.54 Q730.96 1205.79 729.016 1204.05 Q727.094 1202.32 723.992 1202.32 Q721.793 1202.32 719.34 1203.08 Q716.909 1203.84 714.131 1205.4 L714.131 1200.67 Q716.955 1199.54 719.409 1198.96 Q721.863 1198.38 723.9 1198.38 Q729.27 1198.38 732.465 1201.07 Q735.659 1203.75 735.659 1208.24 Q735.659 1210.37 734.849 1212.29 Q734.062 1214.19 731.955 1216.78 Q731.377 1217.46 728.275 1220.67 Q725.173 1223.87 719.525 1229.63 Z" fill="#000000" fill-rule="nonzero" fill-opacity="1" /><path clip-path="url(#clip200)" d="M745.705 1199.01 L764.062 1199.01 L764.062 1202.94 L749.988 1202.94 L749.988 1211.41 Q751.006 1211.07 752.025 1210.9 Q753.043 1210.72 754.062 1210.72 Q759.849 1210.72 763.228 1213.89 Q766.608 1217.06 766.608 1222.48 Q766.608 1228.06 763.136 1231.16 Q759.664 1234.24 753.344 1234.24 Q751.168 1234.24 748.9 1233.87 Q746.654 1233.5 744.247 1232.76 L744.247 1228.06 Q746.33 1229.19 748.553 1229.75 Q750.775 1230.3 753.252 1230.3 Q757.256 1230.3 759.594 1228.2 Q761.932 1226.09 761.932 1222.48 Q761.932 1218.87 759.594 1216.76 Q757.256 1214.65 753.252 1214.65 Q751.377 1214.65 749.502 1215.07 Q747.65 1215.49 745.705 1216.37 L745.705 1199.01 Z" fill="#000000" fill-rule="nonzero" fill-opacity="1" /><path clip-path="url(#clip200)" d="M785.821 1202.09 Q782.21 1202.09 780.381 1205.65 Q778.576 1209.19 778.576 1216.32 Q778.576 1223.43 780.381 1226.99 Q782.21 1230.53 785.821 1230.53 Q789.455 1230.53 791.261 1226.99 Q793.089 1223.43 793.089 1216.32 Q793.089 1209.19 791.261 1205.65 Q789.455 1202.09 785.821 1202.09 M785.821 1198.38 Q791.631 1198.38 794.687 1202.99 Q797.765 1207.57 797.765 1216.32 Q797.765 1225.05 794.687 1229.65 Q791.631 1234.24 785.821 1234.24 Q780.011 1234.24 776.932 1229.65 Q773.876 1225.05 773.876 1216.32 Q773.876 1207.57 776.932 1202.99 Q780.011 1198.38 785.821 1198.38 Z" fill="#000000" fill-rule="nonzero" fill-opacity="1" /><path clip-path="url(#clip200)" d="M1134.99 1199.01 L1153.35 1199.01 L1153.35 1202.94 L1139.28 1202.94 L1139.28 1211.41 Q1140.29 1211.07 1141.31 1210.9 Q1142.33 1210.72 1143.35 1210.72 Q1149.14 1210.72 1152.52 1213.89 Q1155.9 1217.06 1155.9 1222.48 Q1155.9 1228.06 1152.42 1231.16 Q1148.95 1234.24 1142.63 1234.24 Q1140.46 1234.24 1138.19 1233.87 Q1135.94 1233.5 1133.54 1232.76 L1133.54 1228.06 Q1135.62 1229.19 1137.84 1229.75 Q1140.06 1230.3 1142.54 1230.3 Q1146.54 1230.3 1148.88 1228.2 Q1151.22 1226.09 1151.22 1222.48 Q1151.22 1218.87 1148.88 1216.76 Q1146.54 1214.65 1142.54 1214.65 Q1140.66 1214.65 1138.79 1215.07 Q1136.94 1215.49 1134.99 1216.37 L1134.99 1199.01 Z" fill="#000000" fill-rule="nonzero" fill-opacity="1" /><path clip-path="url(#clip200)" d="M1175.11 1202.09 Q1171.5 1202.09 1169.67 1205.65 Q1167.86 1209.19 1167.86 1216.32 Q1167.86 1223.43 1169.67 1226.99 Q1171.5 1230.53 1175.11 1230.53 Q1178.74 1230.53 1180.55 1226.99 Q1182.38 1223.43 1182.38 1216.32 Q1182.38 1209.19 1180.55 1205.65 Q1178.74 1202.09 1175.11 1202.09 M1175.11 1198.38 Q1180.92 1198.38 1183.97 1202.99 Q1187.05 1207.57 1187.05 1216.32 Q1187.05 1225.05 1183.97 1229.65 Q1180.92 1234.24 1175.11 1234.24 Q1169.3 1234.24 1166.22 1229.65 Q1163.16 1225.05 1163.16 1216.32 Q1163.16 1207.57 1166.22 1202.99 Q1169.3 1198.38 1175.11 1198.38 Z" fill="#000000" fill-rule="nonzero" fill-opacity="1" /><path clip-path="url(#clip200)" d="M1205.27 1202.09 Q1201.66 1202.09 1199.83 1205.65 Q1198.03 1209.19 1198.03 1216.32 Q1198.03 1223.43 1199.83 1226.99 Q1201.66 1230.53 1205.27 1230.53 Q1208.91 1230.53 1210.71 1226.99 Q1212.54 1223.43 1212.54 1216.32 Q1212.54 1209.19 1210.71 1205.65 Q1208.91 1202.09 1205.27 1202.09 M1205.27 1198.38 Q1211.08 1198.38 1214.14 1202.99 Q1217.22 1207.57 1217.22 1216.32 Q1217.22 1225.05 1214.14 1229.65 Q1211.08 1234.24 1205.27 1234.24 Q1199.46 1234.24 1196.38 1229.65 Q1193.33 1225.05 1193.33 1216.32 Q1193.33 1207.57 1196.38 1202.99 Q1199.46 1198.38 1205.27 1198.38 Z" fill="#000000" fill-rule="nonzero" fill-opacity="1" /><path clip-path="url(#clip200)" d="M1553.19 1199.01 L1575.42 1199.01 L1575.42 1201 L1562.87 1233.57 L1557.99 1233.57 L1569.79 1202.94 L1553.19 1202.94 L1553.19 1199.01 Z" fill="#000000" fill-rule="nonzero" fill-opacity="1" /><path clip-path="url(#clip200)" d="M1584.58 1199.01 L1602.94 1199.01 L1602.94 1202.94 L1588.87 1202.94 L1588.87 1211.41 Q1589.88 1211.07 1590.9 1210.9 Q1591.92 1210.72 1592.94 1210.72 Q1598.73 1210.72 1602.11 1213.89 Q1605.49 1217.06 1605.49 1222.48 Q1605.49 1228.06 1602.01 1231.16 Q1598.54 1234.24 1592.22 1234.24 Q1590.05 1234.24 1587.78 1233.87 Q1585.53 1233.5 1583.12 1232.76 L1583.12 1228.06 Q1585.21 1229.19 1587.43 1229.75 Q1589.65 1230.3 1592.13 1230.3 Q1596.13 1230.3 1598.47 1228.2 Q1600.81 1226.09 1600.81 1222.48 Q1600.81 1218.87 1598.47 1216.76 Q1596.13 1214.65 1592.13 1214.65 Q1590.25 1214.65 1588.38 1215.07 Q1586.53 1215.49 1584.58 1216.37 L1584.58 1199.01 Z" fill="#000000" fill-rule="nonzero" fill-opacity="1" /><path clip-path="url(#clip200)" d="M1624.7 1202.09 Q1621.09 1202.09 1619.26 1205.65 Q1617.45 1209.19 1617.45 1216.32 Q1617.45 1223.43 1619.26 1226.99 Q1621.09 1230.53 1624.7 1230.53 Q1628.33 1230.53 1630.14 1226.99 Q1631.97 1223.43 1631.97 1216.32 Q1631.97 1209.19 1630.14 1205.65 Q1628.33 1202.09 1624.7 1202.09 M1624.7 1198.38 Q1630.51 1198.38 1633.56 1202.99 Q1636.64 1207.57 1636.64 1216.32 Q1636.64 1225.05 1633.56 1229.65 Q1630.51 1234.24 1624.7 1234.24 Q1618.89 1234.24 1615.81 1229.65 Q1612.75 1225.05 1612.75 1216.32 Q1612.75 1207.57 1615.81 1202.99 Q1618.89 1198.38 1624.7 1198.38 Z" fill="#000000" fill-rule="nonzero" fill-opacity="1" /><path clip-path="url(#clip200)" d="M1958.99 1229.63 L1966.63 1229.63 L1966.63 1203.27 L1958.32 1204.93 L1958.32 1200.67 L1966.58 1199.01 L1971.26 1199.01 L1971.26 1229.63 L1978.89 1229.63 L1978.89 1233.57 L1958.99 1233.57 L1958.99 1229.63 Z" fill="#000000" fill-rule="nonzero" fill-opacity="1" /><path clip-path="url(#clip200)" d="M1998.34 1202.09 Q1994.73 1202.09 1992.9 1205.65 Q1991.09 1209.19 1991.09 1216.32 Q1991.09 1223.43 1992.9 1226.99 Q1994.73 1230.53 1998.34 1230.53 Q2001.97 1230.53 2003.78 1226.99 Q2005.61 1223.43 2005.61 1216.32 Q2005.61 1209.19 2003.78 1205.65 Q2001.97 1202.09 1998.34 1202.09 M1998.34 1198.38 Q2004.15 1198.38 2007.2 1202.99 Q2010.28 1207.57 2010.28 1216.32 Q2010.28 1225.05 2007.2 1229.65 Q2004.15 1234.24 1998.34 1234.24 Q1992.53 1234.24 1989.45 1229.65 Q1986.39 1225.05 1986.39 1216.32 Q1986.39 1207.57 1989.45 1202.99 Q1992.53 1198.38 1998.34 1198.38 Z" fill="#000000" fill-rule="nonzero" fill-opacity="1" /><path clip-path="url(#clip200)" d="M2028.5 1202.09 Q2024.89 1202.09 2023.06 1205.65 Q2021.26 1209.19 2021.26 1216.32 Q2021.26 1223.43 2023.06 1226.99 Q2024.89 1230.53 2028.5 1230.53 Q2032.13 1230.53 2033.94 1226.99 Q2035.77 1223.43 2035.77 1216.32 Q2035.77 1209.19 2033.94 1205.65 Q2032.13 1202.09 2028.5 1202.09 M2028.5 1198.38 Q2034.31 1198.38 2037.37 1202.99 Q2040.44 1207.57 2040.44 1216.32 Q2040.44 1225.05 2037.37 1229.65 Q2034.31 1234.24 2028.5 1234.24 Q2022.69 1234.24 2019.61 1229.65 Q2016.56 1225.05 2016.56 1216.32 Q2016.56 1207.57 2019.61 1202.99 Q2022.69 1198.38 2028.5 1198.38 Z" fill="#000000" fill-rule="nonzero" fill-opacity="1" /><path clip-path="url(#clip200)" d="M2058.66 1202.09 Q2055.05 1202.09 2053.22 1205.65 Q2051.42 1209.19 2051.42 1216.32 Q2051.42 1223.43 2053.22 1226.99 Q2055.05 1230.53 2058.66 1230.53 Q2062.3 1230.53 2064.1 1226.99 Q2065.93 1223.43 2065.93 1216.32 Q2065.93 1209.19 2064.1 1205.65 Q2062.3 1202.09 2058.66 1202.09 M2058.66 1198.38 Q2064.47 1198.38 2067.53 1202.99 Q2070.61 1207.57 2070.61 1216.32 Q2070.61 1225.05 2067.53 1229.65 Q2064.47 1234.24 2058.66 1234.24 Q2052.85 1234.24 2049.77 1229.65 Q2046.72 1225.05 2046.72 1216.32 Q2046.72 1207.57 2049.77 1202.99 Q2052.85 1198.38 2058.66 1198.38 Z" fill="#000000" fill-rule="nonzero" fill-opacity="1" /><path clip-path="url(#clip200)" d="M836.54 1266.49 L846.121 1266.49 L858.247 1298.83 L870.438 1266.49 L880.018 1266.49 L880.018 1314.01 L873.748 1314.01 L873.748 1272.29 L861.494 1304.88 L855.033 1304.88 L842.779 1272.29 L842.779 1314.01 L836.54 1314.01 L836.54 1266.49 Z" fill="#000000" fill-rule="nonzero" fill-opacity="1" /><path clip-path="url(#clip200)" d="M906.34 1282.47 Q901.63 1282.47 898.892 1286.16 Q896.155 1289.83 896.155 1296.22 Q896.155 1302.62 898.861 1306.31 Q901.598 1309.97 906.34 1309.97 Q911.019 1309.97 913.756 1306.28 Q916.494 1302.59 916.494 1296.22 Q916.494 1289.89 913.756 1286.2 Q911.019 1282.47 906.34 1282.47 M906.34 1277.51 Q913.979 1277.51 918.34 1282.47 Q922.7 1287.44 922.7 1296.22 Q922.7 1304.98 918.34 1309.97 Q913.979 1314.94 906.34 1314.94 Q898.67 1314.94 894.309 1309.97 Q889.981 1304.98 889.981 1296.22 Q889.981 1287.44 894.309 1282.47 Q898.67 1277.51 906.34 1277.51 Z" fill="#000000" fill-rule="nonzero" fill-opacity="1" /><path clip-path="url(#clip200)" d="M962.04 1292.5 L962.04 1314.01 L956.184 1314.01 L956.184 1292.69 Q956.184 1287.63 954.21 1285.11 Q952.237 1282.6 948.29 1282.6 Q943.548 1282.6 940.811 1285.62 Q938.073 1288.65 938.073 1293.87 L938.073 1314.01 L932.185 1314.01 L932.185 1278.37 L938.073 1278.37 L938.073 1283.9 Q940.174 1280.69 943.007 1279.1 Q945.871 1277.51 949.595 1277.51 Q955.738 1277.51 958.889 1281.33 Q962.04 1285.11 962.04 1292.5 Z" fill="#000000" fill-rule="nonzero" fill-opacity="1" /><path clip-path="url(#clip200)" d="M979.514 1268.25 L979.514 1278.37 L991.577 1278.37 L991.577 1282.92 L979.514 1282.92 L979.514 1302.27 Q979.514 1306.63 980.692 1307.87 Q981.901 1309.11 985.562 1309.11 L991.577 1309.11 L991.577 1314.01 L985.562 1314.01 Q978.782 1314.01 976.204 1311.5 Q973.626 1308.95 973.626 1302.27 L973.626 1282.92 L969.329 1282.92 L969.329 1278.37 L973.626 1278.37 L973.626 1268.25 L979.514 1268.25 Z" fill="#000000" fill-rule="nonzero" fill-opacity="1" /><path clip-path="url(#clip200)" d="M1029.77 1294.73 L1029.77 1297.59 L1002.84 1297.59 Q1003.23 1303.64 1006.47 1306.82 Q1009.75 1309.97 1015.58 1309.97 Q1018.95 1309.97 1022.1 1309.14 Q1025.28 1308.32 1028.4 1306.66 L1028.4 1312.2 Q1025.25 1313.54 1021.94 1314.24 Q1018.63 1314.94 1015.23 1314.94 Q1006.7 1314.94 1001.7 1309.97 Q996.733 1305.01 996.733 1296.54 Q996.733 1287.79 1001.44 1282.66 Q1006.19 1277.51 1014.21 1277.51 Q1021.4 1277.51 1025.57 1282.15 Q1029.77 1286.77 1029.77 1294.73 M1023.91 1293.01 Q1023.85 1288.2 1021.21 1285.34 Q1018.6 1282.47 1014.27 1282.47 Q1009.37 1282.47 1006.41 1285.24 Q1003.48 1288.01 1003.04 1293.04 L1023.91 1293.01 Z" fill="#000000" fill-rule="nonzero" fill-opacity="1" /><path clip-path="url(#clip200)" d="M1095.94 1270.16 L1095.94 1276.93 Q1092.7 1273.91 1089 1272.41 Q1085.34 1270.92 1081.21 1270.92 Q1073.06 1270.92 1068.73 1275.92 Q1064.4 1280.88 1064.4 1290.3 Q1064.4 1299.69 1068.73 1304.69 Q1073.06 1309.65 1081.21 1309.65 Q1085.34 1309.65 1089 1308.16 Q1092.7 1306.66 1095.94 1303.64 L1095.94 1310.35 Q1092.57 1312.65 1088.78 1313.79 Q1085.03 1314.94 1080.82 1314.94 Q1070.03 1314.94 1063.83 1308.35 Q1057.62 1301.73 1057.62 1290.3 Q1057.62 1278.84 1063.83 1272.26 Q1070.03 1265.64 1080.82 1265.64 Q1085.09 1265.64 1088.85 1266.78 Q1092.63 1267.9 1095.94 1270.16 Z" fill="#000000" fill-rule="nonzero" fill-opacity="1" /><path clip-path="url(#clip200)" d="M1121.82 1296.1 Q1114.72 1296.1 1111.98 1297.72 Q1109.25 1299.34 1109.25 1303.26 Q1109.25 1306.38 1111.28 1308.22 Q1113.35 1310.04 1116.89 1310.04 Q1121.76 1310.04 1124.68 1306.6 Q1127.64 1303.13 1127.64 1297.4 L1127.64 1296.1 L1121.82 1296.1 M1133.5 1293.68 L1133.5 1314.01 L1127.64 1314.01 L1127.64 1308.6 Q1125.64 1311.85 1122.65 1313.41 Q1119.66 1314.94 1115.33 1314.94 Q1109.85 1314.94 1106.61 1311.88 Q1103.39 1308.79 1103.39 1303.64 Q1103.39 1297.62 1107.4 1294.57 Q1111.44 1291.51 1119.43 1291.51 L1127.64 1291.51 L1127.64 1290.94 Q1127.64 1286.9 1124.97 1284.7 Q1122.33 1282.47 1117.52 1282.47 Q1114.47 1282.47 1111.57 1283.2 Q1108.67 1283.94 1106 1285.4 L1106 1279.99 Q1109.22 1278.75 1112.24 1278.14 Q1115.26 1277.51 1118.13 1277.51 Q1125.86 1277.51 1129.68 1281.52 Q1133.5 1285.53 1133.5 1293.68 Z" fill="#000000" fill-rule="nonzero" fill-opacity="1" /><path clip-path="url(#clip200)" d="M1166.22 1283.84 Q1165.23 1283.27 1164.06 1283.01 Q1162.91 1282.73 1161.51 1282.73 Q1156.54 1282.73 1153.87 1285.97 Q1151.23 1289.19 1151.23 1295.24 L1151.23 1314.01 L1145.34 1314.01 L1145.34 1278.37 L1151.23 1278.37 L1151.23 1283.9 Q1153.08 1280.66 1156.04 1279.1 Q1159 1277.51 1163.23 1277.51 Q1163.83 1277.51 1164.57 1277.6 Q1165.3 1277.67 1166.19 1277.83 L1166.22 1283.84 Z" fill="#000000" fill-rule="nonzero" fill-opacity="1" /><path clip-path="url(#clip200)" d="M1172.36 1264.49 L1178.22 1264.49 L1178.22 1314.01 L1172.36 1314.01 L1172.36 1264.49 Z" fill="#000000" fill-rule="nonzero" fill-opacity="1" /><path clip-path="url(#clip200)" d="M1204.29 1282.47 Q1199.58 1282.47 1196.84 1286.16 Q1194.1 1289.83 1194.1 1296.22 Q1194.1 1302.62 1196.81 1306.31 Q1199.54 1309.97 1204.29 1309.97 Q1208.97 1309.97 1211.7 1306.28 Q1214.44 1302.59 1214.44 1296.22 Q1214.44 1289.89 1211.7 1286.2 Q1208.97 1282.47 1204.29 1282.47 M1204.29 1277.51 Q1211.93 1277.51 1216.29 1282.47 Q1220.65 1287.44 1220.65 1296.22 Q1220.65 1304.98 1216.29 1309.97 Q1211.93 1314.94 1204.29 1314.94 Q1196.62 1314.94 1192.26 1309.97 Q1187.93 1304.98 1187.93 1296.22 Q1187.93 1287.44 1192.26 1282.47 Q1196.62 1277.51 1204.29 1277.51 Z" fill="#000000" fill-rule="nonzero" fill-opacity="1" /><path clip-path="url(#clip200)" d="M1251.33 1266.49 L1257.76 1266.49 L1257.76 1314.01 L1251.33 1314.01 L1251.33 1266.49 Z" fill="#000000" fill-rule="nonzero" fill-opacity="1" /><path clip-path="url(#clip200)" d="M1276.09 1268.25 L1276.09 1278.37 L1288.16 1278.37 L1288.16 1282.92 L1276.09 1282.92 L1276.09 1302.27 Q1276.09 1306.63 1277.27 1307.87 Q1278.48 1309.11 1282.14 1309.11 L1288.16 1309.11 L1288.16 1314.01 L1282.14 1314.01 Q1275.36 1314.01 1272.78 1311.5 Q1270.2 1308.95 1270.2 1302.27 L1270.2 1282.92 L1265.91 1282.92 L1265.91 1278.37 L1270.2 1278.37 L1270.2 1268.25 L1276.09 1268.25 Z" fill="#000000" fill-rule="nonzero" fill-opacity="1" /><path clip-path="url(#clip200)" d="M1326.35 1294.73 L1326.35 1297.59 L1299.42 1297.59 Q1299.8 1303.64 1303.05 1306.82 Q1306.33 1309.97 1312.15 1309.97 Q1315.53 1309.97 1318.68 1309.14 Q1321.86 1308.32 1324.98 1306.66 L1324.98 1312.2 Q1321.83 1313.54 1318.52 1314.24 Q1315.21 1314.94 1311.8 1314.94 Q1303.27 1314.94 1298.28 1309.97 Q1293.31 1305.01 1293.31 1296.54 Q1293.31 1287.79 1298.02 1282.66 Q1302.76 1277.51 1310.79 1277.51 Q1317.98 1277.51 1322.15 1282.15 Q1326.35 1286.77 1326.35 1294.73 M1320.49 1293.01 Q1320.43 1288.2 1317.79 1285.34 Q1315.18 1282.47 1310.85 1282.47 Q1305.95 1282.47 1302.99 1285.24 Q1300.06 1288.01 1299.61 1293.04 L1320.49 1293.01 Z" fill="#000000" fill-rule="nonzero" fill-opacity="1" /><path clip-path="url(#clip200)" d="M1356.62 1283.84 Q1355.63 1283.27 1354.45 1283.01 Q1353.31 1282.73 1351.91 1282.73 Q1346.94 1282.73 1344.27 1285.97 Q1341.63 1289.19 1341.63 1295.24 L1341.63 1314.01 L1335.74 1314.01 L1335.74 1278.37 L1341.63 1278.37 L1341.63 1283.9 Q1343.47 1280.66 1346.43 1279.1 Q1349.39 1277.51 1353.63 1277.51 Q1354.23 1277.51 1354.96 1277.6 Q1355.7 1277.67 1356.59 1277.83 L1356.62 1283.84 Z" fill="#000000" fill-rule="nonzero" fill-opacity="1" /><path clip-path="url(#clip200)" d="M1378.96 1296.1 Q1371.86 1296.1 1369.13 1297.72 Q1366.39 1299.34 1366.39 1303.26 Q1366.39 1306.38 1368.43 1308.22 Q1370.5 1310.04 1374.03 1310.04 Q1378.9 1310.04 1381.83 1306.6 Q1384.79 1303.13 1384.79 1297.4 L1384.79 1296.1 L1378.96 1296.1 M1390.64 1293.68 L1390.64 1314.01 L1384.79 1314.01 L1384.79 1308.6 Q1382.78 1311.85 1379.79 1313.41 Q1376.8 1314.94 1372.47 1314.94 Q1366.99 1314.94 1363.75 1311.88 Q1360.53 1308.79 1360.53 1303.64 Q1360.53 1297.62 1364.54 1294.57 Q1368.59 1291.51 1376.58 1291.51 L1384.79 1291.51 L1384.79 1290.94 Q1384.79 1286.9 1382.11 1284.7 Q1379.47 1282.47 1374.67 1282.47 Q1371.61 1282.47 1368.71 1283.2 Q1365.82 1283.94 1363.14 1285.4 L1363.14 1279.99 Q1366.36 1278.75 1369.38 1278.14 Q1372.41 1277.51 1375.27 1277.51 Q1383 1277.51 1386.82 1281.52 Q1390.64 1285.53 1390.64 1293.68 Z" fill="#000000" fill-rule="nonzero" fill-opacity="1" /><path clip-path="url(#clip200)" d="M1408.5 1268.25 L1408.5 1278.37 L1420.56 1278.37 L1420.56 1282.92 L1408.5 1282.92 L1408.5 1302.27 Q1408.5 1306.63 1409.68 1307.87 Q1410.89 1309.11 1414.55 1309.11 L1420.56 1309.11 L1420.56 1314.01 L1414.55 1314.01 Q1407.77 1314.01 1405.19 1311.5 Q1402.61 1308.95 1402.61 1302.27 L1402.61 1282.92 L1398.31 1282.92 L1398.31 1278.37 L1402.61 1278.37 L1402.61 1268.25 L1408.5 1268.25 Z" fill="#000000" fill-rule="nonzero" fill-opacity="1" /><path clip-path="url(#clip200)" d="M1428.26 1278.37 L1434.12 1278.37 L1434.12 1314.01 L1428.26 1314.01 L1428.26 1278.37 M1428.26 1264.49 L1434.12 1264.49 L1434.12 1271.91 L1428.26 1271.91 L1428.26 1264.49 Z" fill="#000000" fill-rule="nonzero" fill-opacity="1" /><path clip-path="url(#clip200)" d="M1460.19 1282.47 Q1455.48 1282.47 1452.74 1286.16 Q1450 1289.83 1450 1296.22 Q1450 1302.62 1452.71 1306.31 Q1455.45 1309.97 1460.19 1309.97 Q1464.87 1309.97 1467.6 1306.28 Q1470.34 1302.59 1470.34 1296.22 Q1470.34 1289.89 1467.6 1286.2 Q1464.87 1282.47 1460.19 1282.47 M1460.19 1277.51 Q1467.83 1277.51 1472.19 1282.47 Q1476.55 1287.44 1476.55 1296.22 Q1476.55 1304.98 1472.19 1309.97 Q1467.83 1314.94 1460.19 1314.94 Q1452.52 1314.94 1448.16 1309.97 Q1443.83 1304.98 1443.83 1296.22 Q1443.83 1287.44 1448.16 1282.47 Q1452.52 1277.51 1460.19 1277.51 Z" fill="#000000" fill-rule="nonzero" fill-opacity="1" /><path clip-path="url(#clip200)" d="M1515.89 1292.5 L1515.89 1314.01 L1510.03 1314.01 L1510.03 1292.69 Q1510.03 1287.63 1508.06 1285.11 Q1506.09 1282.6 1502.14 1282.6 Q1497.4 1282.6 1494.66 1285.62 Q1491.92 1288.65 1491.92 1293.87 L1491.92 1314.01 L1486.03 1314.01 L1486.03 1278.37 L1491.92 1278.37 L1491.92 1283.9 Q1494.02 1280.69 1496.86 1279.1 Q1499.72 1277.51 1503.44 1277.51 Q1509.59 1277.51 1512.74 1281.33 Q1515.89 1285.11 1515.89 1292.5 Z" fill="#000000" fill-rule="nonzero" fill-opacity="1" /><polyline clip-path="url(#clip200)" style="stroke:#000000; stroke-linecap:round; stroke-linejoin:round; stroke-width:4; stroke-opacity:1; fill:none" points="287.673,1173.47 287.673,47.2441 "/>
<polyline clip-path="url(#clip200)" style="stroke:#000000; stroke-linecap:round; stroke-linejoin:round; stroke-width:4; stroke-opacity:1; fill:none" points="287.673,1141.6 306.571,1141.6 "/>
<polyline clip-path="url(#clip200)" style="stroke:#000000; stroke-linecap:round; stroke-linejoin:round; stroke-width:4; stroke-opacity:1; fill:none" points="287.673,913.923 306.571,913.923 "/>
<polyline clip-path="url(#clip200)" style="stroke:#000000; stroke-linecap:round; stroke-linejoin:round; stroke-width:4; stroke-opacity:1; fill:none" points="287.673,686.249 306.571,686.249 "/>
<polyline clip-path="url(#clip200)" style="stroke:#000000; stroke-linecap:round; stroke-linejoin:round; stroke-width:4; stroke-opacity:1; fill:none" points="287.673,458.575 306.571,458.575 "/>
<polyline clip-path="url(#clip200)" style="stroke:#000000; stroke-linecap:round; stroke-linejoin:round; stroke-width:4; stroke-opacity:1; fill:none" points="287.673,230.901 306.571,230.901 "/>
<path clip-path="url(#clip200)" d="M244.049 1127.4 Q240.438 1127.4 238.609 1130.96 Q236.803 1134.5 236.803 1141.63 Q236.803 1148.74 238.609 1152.3 Q240.438 1155.84 244.049 1155.84 Q247.683 1155.84 249.489 1152.3 Q251.317 1148.74 251.317 1141.63 Q251.317 1134.5 249.489 1130.96 Q247.683 1127.4 244.049 1127.4 M244.049 1123.69 Q249.859 1123.69 252.914 1128.3 Q255.993 1132.88 255.993 1141.63 Q255.993 1150.36 252.914 1154.96 Q249.859 1159.55 244.049 1159.55 Q238.239 1159.55 235.16 1154.96 Q232.104 1150.36 232.104 1141.63 Q232.104 1132.88 235.16 1128.3 Q238.239 1123.69 244.049 1123.69 Z" fill="#000000" fill-rule="nonzero" fill-opacity="1" /><path clip-path="url(#clip200)" d="M147.591 927.267 L163.91 927.267 L163.91 931.203 L141.966 931.203 L141.966 927.267 Q144.628 924.513 149.211 919.883 Q153.818 915.23 154.998 913.888 Q157.244 911.365 158.123 909.629 Q159.026 907.869 159.026 906.18 Q159.026 903.425 157.082 901.689 Q155.16 899.953 152.058 899.953 Q149.859 899.953 147.406 900.717 Q144.975 901.48 142.197 903.031 L142.197 898.309 Q145.021 897.175 147.475 896.596 Q149.929 896.018 151.966 896.018 Q157.336 896.018 160.531 898.703 Q163.725 901.388 163.725 905.879 Q163.725 908.008 162.915 909.93 Q162.128 911.828 160.021 914.42 Q159.443 915.092 156.341 918.309 Q153.239 921.504 147.591 927.267 Z" fill="#000000" fill-rule="nonzero" fill-opacity="1" /><path clip-path="url(#clip200)" d="M173.771 896.643 L192.128 896.643 L192.128 900.578 L178.054 900.578 L178.054 909.05 Q179.072 908.703 180.091 908.541 Q181.109 908.355 182.128 908.355 Q187.915 908.355 191.294 911.527 Q194.674 914.698 194.674 920.115 Q194.674 925.693 191.202 928.795 Q187.73 931.874 181.41 931.874 Q179.234 931.874 176.966 931.503 Q174.72 931.133 172.313 930.392 L172.313 925.693 Q174.396 926.828 176.619 927.383 Q178.841 927.939 181.318 927.939 Q185.322 927.939 187.66 925.832 Q189.998 923.726 189.998 920.115 Q189.998 916.504 187.66 914.397 Q185.322 912.291 181.318 912.291 Q179.443 912.291 177.568 912.707 Q175.716 913.124 173.771 914.004 L173.771 896.643 Z" fill="#000000" fill-rule="nonzero" fill-opacity="1" /><path clip-path="url(#clip200)" d="M213.887 899.721 Q210.276 899.721 208.447 903.286 Q206.642 906.828 206.642 913.957 Q206.642 921.064 208.447 924.629 Q210.276 928.17 213.887 928.17 Q217.521 928.17 219.327 924.629 Q221.155 921.064 221.155 913.957 Q221.155 906.828 219.327 903.286 Q217.521 899.721 213.887 899.721 M213.887 896.018 Q219.697 896.018 222.753 900.624 Q225.831 905.207 225.831 913.957 Q225.831 922.684 222.753 927.291 Q219.697 931.874 213.887 931.874 Q208.077 931.874 204.998 927.291 Q201.942 922.684 201.942 913.957 Q201.942 905.207 204.998 900.624 Q208.077 896.018 213.887 896.018 Z" fill="#000000" fill-rule="nonzero" fill-opacity="1" /><path clip-path="url(#clip200)" d="M244.049 899.721 Q240.438 899.721 238.609 903.286 Q236.803 906.828 236.803 913.957 Q236.803 921.064 238.609 924.629 Q240.438 928.17 244.049 928.17 Q247.683 928.17 249.489 924.629 Q251.317 921.064 251.317 913.957 Q251.317 906.828 249.489 903.286 Q247.683 899.721 244.049 899.721 M244.049 896.018 Q249.859 896.018 252.914 900.624 Q255.993 905.207 255.993 913.957 Q255.993 922.684 252.914 927.291 Q249.859 931.874 244.049 931.874 Q238.239 931.874 235.16 927.291 Q232.104 922.684 232.104 913.957 Q232.104 905.207 235.16 900.624 Q238.239 896.018 244.049 896.018 Z" fill="#000000" fill-rule="nonzero" fill-opacity="1" /><path clip-path="url(#clip200)" d="M143.609 668.969 L161.966 668.969 L161.966 672.904 L147.892 672.904 L147.892 681.376 Q148.91 681.029 149.929 680.867 Q150.947 680.682 151.966 680.682 Q157.753 680.682 161.132 683.853 Q164.512 687.024 164.512 692.441 Q164.512 698.019 161.04 701.121 Q157.568 704.2 151.248 704.2 Q149.072 704.2 146.804 703.83 Q144.559 703.459 142.151 702.719 L142.151 698.019 Q144.234 699.154 146.457 699.709 Q148.679 700.265 151.156 700.265 Q155.16 700.265 157.498 698.158 Q159.836 696.052 159.836 692.441 Q159.836 688.83 157.498 686.723 Q155.16 684.617 151.156 684.617 Q149.281 684.617 147.406 685.033 Q145.554 685.45 143.609 686.33 L143.609 668.969 Z" fill="#000000" fill-rule="nonzero" fill-opacity="1" /><path clip-path="url(#clip200)" d="M183.725 672.047 Q180.114 672.047 178.285 675.612 Q176.48 679.154 176.48 686.283 Q176.48 693.39 178.285 696.955 Q180.114 700.496 183.725 700.496 Q187.359 700.496 189.165 696.955 Q190.993 693.39 190.993 686.283 Q190.993 679.154 189.165 675.612 Q187.359 672.047 183.725 672.047 M183.725 668.344 Q189.535 668.344 192.591 672.95 Q195.669 677.533 195.669 686.283 Q195.669 695.01 192.591 699.617 Q189.535 704.2 183.725 704.2 Q177.915 704.2 174.836 699.617 Q171.781 695.01 171.781 686.283 Q171.781 677.533 174.836 672.95 Q177.915 668.344 183.725 668.344 Z" fill="#000000" fill-rule="nonzero" fill-opacity="1" /><path clip-path="url(#clip200)" d="M213.887 672.047 Q210.276 672.047 208.447 675.612 Q206.642 679.154 206.642 686.283 Q206.642 693.39 208.447 696.955 Q210.276 700.496 213.887 700.496 Q217.521 700.496 219.327 696.955 Q221.155 693.39 221.155 686.283 Q221.155 679.154 219.327 675.612 Q217.521 672.047 213.887 672.047 M213.887 668.344 Q219.697 668.344 222.753 672.95 Q225.831 677.533 225.831 686.283 Q225.831 695.01 222.753 699.617 Q219.697 704.2 213.887 704.2 Q208.077 704.2 204.998 699.617 Q201.942 695.01 201.942 686.283 Q201.942 677.533 204.998 672.95 Q208.077 668.344 213.887 668.344 Z" fill="#000000" fill-rule="nonzero" fill-opacity="1" /><path clip-path="url(#clip200)" d="M244.049 672.047 Q240.438 672.047 238.609 675.612 Q236.803 679.154 236.803 686.283 Q236.803 693.39 238.609 696.955 Q240.438 700.496 244.049 700.496 Q247.683 700.496 249.489 696.955 Q251.317 693.39 251.317 686.283 Q251.317 679.154 249.489 675.612 Q247.683 672.047 244.049 672.047 M244.049 668.344 Q249.859 668.344 252.914 672.95 Q255.993 677.533 255.993 686.283 Q255.993 695.01 252.914 699.617 Q249.859 704.2 244.049 704.2 Q238.239 704.2 235.16 699.617 Q232.104 695.01 232.104 686.283 Q232.104 677.533 235.16 672.95 Q238.239 668.344 244.049 668.344 Z" fill="#000000" fill-rule="nonzero" fill-opacity="1" /><path clip-path="url(#clip200)" d="M142.383 441.295 L164.605 441.295 L164.605 443.286 L152.058 475.855 L147.174 475.855 L158.98 445.23 L142.383 445.23 L142.383 441.295 Z" fill="#000000" fill-rule="nonzero" fill-opacity="1" /><path clip-path="url(#clip200)" d="M173.771 441.295 L192.128 441.295 L192.128 445.23 L178.054 445.23 L178.054 453.702 Q179.072 453.355 180.091 453.193 Q181.109 453.008 182.128 453.008 Q187.915 453.008 191.294 456.179 Q194.674 459.35 194.674 464.767 Q194.674 470.346 191.202 473.447 Q187.73 476.526 181.41 476.526 Q179.234 476.526 176.966 476.156 Q174.72 475.785 172.313 475.045 L172.313 470.346 Q174.396 471.48 176.619 472.035 Q178.841 472.591 181.318 472.591 Q185.322 472.591 187.66 470.485 Q189.998 468.378 189.998 464.767 Q189.998 461.156 187.66 459.049 Q185.322 456.943 181.318 456.943 Q179.443 456.943 177.568 457.36 Q175.716 457.776 173.771 458.656 L173.771 441.295 Z" fill="#000000" fill-rule="nonzero" fill-opacity="1" /><path clip-path="url(#clip200)" d="M213.887 444.374 Q210.276 444.374 208.447 447.938 Q206.642 451.48 206.642 458.61 Q206.642 465.716 208.447 469.281 Q210.276 472.822 213.887 472.822 Q217.521 472.822 219.327 469.281 Q221.155 465.716 221.155 458.61 Q221.155 451.48 219.327 447.938 Q217.521 444.374 213.887 444.374 M213.887 440.67 Q219.697 440.67 222.753 445.276 Q225.831 449.86 225.831 458.61 Q225.831 467.336 222.753 471.943 Q219.697 476.526 213.887 476.526 Q208.077 476.526 204.998 471.943 Q201.942 467.336 201.942 458.61 Q201.942 449.86 204.998 445.276 Q208.077 440.67 213.887 440.67 Z" fill="#000000" fill-rule="nonzero" fill-opacity="1" /><path clip-path="url(#clip200)" d="M244.049 444.374 Q240.438 444.374 238.609 447.938 Q236.803 451.48 236.803 458.61 Q236.803 465.716 238.609 469.281 Q240.438 472.822 244.049 472.822 Q247.683 472.822 249.489 469.281 Q251.317 465.716 251.317 458.61 Q251.317 451.48 249.489 447.938 Q247.683 444.374 244.049 444.374 M244.049 440.67 Q249.859 440.67 252.914 445.276 Q255.993 449.86 255.993 458.61 Q255.993 467.336 252.914 471.943 Q249.859 476.526 244.049 476.526 Q238.239 476.526 235.16 471.943 Q232.104 467.336 232.104 458.61 Q232.104 449.86 235.16 445.276 Q238.239 440.67 244.049 440.67 Z" fill="#000000" fill-rule="nonzero" fill-opacity="1" /><path clip-path="url(#clip200)" d="M114.211 244.246 L121.85 244.246 L121.85 217.88 L113.54 219.547 L113.54 215.288 L121.804 213.621 L126.48 213.621 L126.48 244.246 L134.119 244.246 L134.119 248.181 L114.211 248.181 L114.211 244.246 Z" fill="#000000" fill-rule="nonzero" fill-opacity="1" /><path clip-path="url(#clip200)" d="M153.563 216.7 Q149.952 216.7 148.123 220.264 Q146.318 223.806 146.318 230.936 Q146.318 238.042 148.123 241.607 Q149.952 245.149 153.563 245.149 Q157.197 245.149 159.003 241.607 Q160.832 238.042 160.832 230.936 Q160.832 223.806 159.003 220.264 Q157.197 216.7 153.563 216.7 M153.563 212.996 Q159.373 212.996 162.429 217.602 Q165.507 222.186 165.507 230.936 Q165.507 239.663 162.429 244.269 Q159.373 248.852 153.563 248.852 Q147.753 248.852 144.674 244.269 Q141.619 239.663 141.619 230.936 Q141.619 222.186 144.674 217.602 Q147.753 212.996 153.563 212.996 Z" fill="#000000" fill-rule="nonzero" fill-opacity="1" /><path clip-path="url(#clip200)" d="M183.725 216.7 Q180.114 216.7 178.285 220.264 Q176.48 223.806 176.48 230.936 Q176.48 238.042 178.285 241.607 Q180.114 245.149 183.725 245.149 Q187.359 245.149 189.165 241.607 Q190.993 238.042 190.993 230.936 Q190.993 223.806 189.165 220.264 Q187.359 216.7 183.725 216.7 M183.725 212.996 Q189.535 212.996 192.591 217.602 Q195.669 222.186 195.669 230.936 Q195.669 239.663 192.591 244.269 Q189.535 248.852 183.725 248.852 Q177.915 248.852 174.836 244.269 Q171.781 239.663 171.781 230.936 Q171.781 222.186 174.836 217.602 Q177.915 212.996 183.725 212.996 Z" fill="#000000" fill-rule="nonzero" fill-opacity="1" /><path clip-path="url(#clip200)" d="M213.887 216.7 Q210.276 216.7 208.447 220.264 Q206.642 223.806 206.642 230.936 Q206.642 238.042 208.447 241.607 Q210.276 245.149 213.887 245.149 Q217.521 245.149 219.327 241.607 Q221.155 238.042 221.155 230.936 Q221.155 223.806 219.327 220.264 Q217.521 216.7 213.887 216.7 M213.887 212.996 Q219.697 212.996 222.753 217.602 Q225.831 222.186 225.831 230.936 Q225.831 239.663 222.753 244.269 Q219.697 248.852 213.887 248.852 Q208.077 248.852 204.998 244.269 Q201.942 239.663 201.942 230.936 Q201.942 222.186 204.998 217.602 Q208.077 212.996 213.887 212.996 Z" fill="#000000" fill-rule="nonzero" fill-opacity="1" /><path clip-path="url(#clip200)" d="M244.049 216.7 Q240.438 216.7 238.609 220.264 Q236.803 223.806 236.803 230.936 Q236.803 238.042 238.609 241.607 Q240.438 245.149 244.049 245.149 Q247.683 245.149 249.489 241.607 Q251.317 238.042 251.317 230.936 Q251.317 223.806 249.489 220.264 Q247.683 216.7 244.049 216.7 M244.049 212.996 Q249.859 212.996 252.914 217.602 Q255.993 222.186 255.993 230.936 Q255.993 239.663 252.914 244.269 Q249.859 248.852 244.049 248.852 Q238.239 248.852 235.16 244.269 Q232.104 239.663 232.104 230.936 Q232.104 222.186 235.16 217.602 Q238.239 212.996 244.049 212.996 Z" fill="#000000" fill-rule="nonzero" fill-opacity="1" /><path clip-path="url(#clip200)" d="M20.0842 972.566 L20.0842 942.52 L25.495 942.52 L25.495 966.137 L39.5632 966.137 L39.5632 943.507 L44.9741 943.507 L44.9741 966.137 L62.1933 966.137 L62.1933 941.947 L67.6042 941.947 L67.6042 972.566 L20.0842 972.566 Z" fill="#000000" fill-rule="nonzero" fill-opacity="1" /><path clip-path="url(#clip200)" d="M31.9562 902.002 L49.3028 914.893 L67.6042 901.334 L67.6042 908.241 L53.5996 918.617 L67.6042 928.993 L67.6042 935.9 L48.9526 922.054 L31.9562 934.722 L31.9562 927.815 L44.6558 918.362 L31.9562 908.909 L31.9562 902.002 Z" fill="#000000" fill-rule="nonzero" fill-opacity="1" /><path clip-path="url(#clip200)" d="M62.257 887.393 L81.1631 887.393 L81.1631 893.281 L31.9562 893.281 L31.9562 887.393 L37.3671 887.393 Q34.1842 885.547 32.6564 882.746 Q31.0968 879.913 31.0968 875.998 Q31.0968 869.505 36.2531 865.463 Q41.4093 861.389 49.812 861.389 Q58.2147 861.389 63.371 865.463 Q68.5272 869.505 68.5272 875.998 Q68.5272 879.913 66.9994 882.746 Q65.4398 885.547 62.257 887.393 M49.812 867.468 Q43.3508 867.468 39.6905 870.142 Q35.9984 872.784 35.9984 877.431 Q35.9984 882.078 39.6905 884.751 Q43.3508 887.393 49.812 887.393 Q56.2732 887.393 59.9653 884.751 Q63.6256 882.078 63.6256 877.431 Q63.6256 872.784 59.9653 870.142 Q56.2732 867.468 49.812 867.468 Z" fill="#000000" fill-rule="nonzero" fill-opacity="1" /><path clip-path="url(#clip200)" d="M48.3161 821.19 L51.1806 821.19 L51.1806 848.117 Q57.2281 847.735 60.4109 844.488 Q63.5619 841.21 63.5619 835.385 Q63.5619 832.011 62.7344 828.86 Q61.9069 825.677 60.2518 822.558 L65.7899 822.558 Q67.1267 825.709 67.827 829.019 Q68.5272 832.33 68.5272 835.735 Q68.5272 844.265 63.5619 849.262 Q58.5967 854.228 50.1303 854.228 Q41.3774 854.228 36.2531 849.517 Q31.0968 844.775 31.0968 836.754 Q31.0968 829.561 35.7438 825.391 Q40.3589 821.19 48.3161 821.19 M46.5973 827.046 Q41.7912 827.11 38.9266 829.752 Q36.0621 832.361 36.0621 836.69 Q36.0621 841.592 38.8312 844.552 Q41.6002 847.48 46.6292 847.926 L46.5973 827.046 Z" fill="#000000" fill-rule="nonzero" fill-opacity="1" /><path clip-path="url(#clip200)" d="M33.3248 785.924 L38.7993 785.924 Q37.4307 788.406 36.7623 790.921 Q36.0621 793.403 36.0621 795.95 Q36.0621 801.647 39.6905 804.798 Q43.2872 807.949 49.812 807.949 Q56.3369 807.949 59.9653 804.798 Q63.5619 801.647 63.5619 795.95 Q63.5619 793.403 62.8935 790.921 Q62.1933 788.406 60.8247 785.924 L66.2355 785.924 Q67.3814 788.374 67.9543 791.016 Q68.5272 793.626 68.5272 796.586 Q68.5272 804.639 63.4664 809.381 Q58.4057 814.124 49.812 814.124 Q41.091 814.124 36.0939 809.349 Q31.0968 804.543 31.0968 796.204 Q31.0968 793.499 31.6697 790.921 Q32.2108 788.343 33.3248 785.924 Z" fill="#000000" fill-rule="nonzero" fill-opacity="1" /><path clip-path="url(#clip200)" d="M21.8347 769.946 L31.9562 769.946 L31.9562 757.883 L36.5077 757.883 L36.5077 769.946 L55.8594 769.946 Q60.2199 769.946 61.4613 768.768 Q62.7026 767.559 62.7026 763.898 L62.7026 757.883 L67.6042 757.883 L67.6042 763.898 Q67.6042 770.678 65.0897 773.256 Q62.5434 775.834 55.8594 775.834 L36.5077 775.834 L36.5077 780.131 L31.9562 780.131 L31.9562 775.834 L21.8347 775.834 L21.8347 769.946 Z" fill="#000000" fill-rule="nonzero" fill-opacity="1" /><path clip-path="url(#clip200)" d="M48.3161 719.688 L51.1806 719.688 L51.1806 746.615 Q57.2281 746.233 60.4109 742.987 Q63.5619 739.709 63.5619 733.884 Q63.5619 730.51 62.7344 727.359 Q61.9069 724.176 60.2518 721.057 L65.7899 721.057 Q67.1267 724.208 67.827 727.518 Q68.5272 730.828 68.5272 734.234 Q68.5272 742.764 63.5619 747.761 Q58.5967 752.726 50.1303 752.726 Q41.3774 752.726 36.2531 748.016 Q31.0968 743.273 31.0968 735.253 Q31.0968 728.059 35.7438 723.89 Q40.3589 719.688 48.3161 719.688 M46.5973 725.545 Q41.7912 725.609 38.9266 728.25 Q36.0621 730.86 36.0621 735.189 Q36.0621 740.091 38.8312 743.051 Q41.6002 745.979 46.6292 746.424 L46.5973 725.545 Z" fill="#000000" fill-rule="nonzero" fill-opacity="1" /><path clip-path="url(#clip200)" d="M37.3671 686.619 L18.079 686.619 L18.079 680.762 L67.6042 680.762 L67.6042 686.619 L62.257 686.619 Q65.4398 688.465 66.9994 691.297 Q68.5272 694.098 68.5272 698.045 Q68.5272 704.506 63.371 708.58 Q58.2147 712.623 49.812 712.623 Q41.4093 712.623 36.2531 708.58 Q31.0968 704.506 31.0968 698.045 Q31.0968 694.098 32.6564 691.297 Q34.1842 688.465 37.3671 686.619 M49.812 706.575 Q56.2732 706.575 59.9653 703.933 Q63.6256 701.26 63.6256 696.613 Q63.6256 691.966 59.9653 689.292 Q56.2732 686.619 49.812 686.619 Q43.3508 686.619 39.6905 689.292 Q35.9984 691.966 35.9984 696.613 Q35.9984 701.26 39.6905 703.933 Q43.3508 706.575 49.812 706.575 Z" fill="#000000" fill-rule="nonzero" fill-opacity="1" /><path clip-path="url(#clip200)" d="M20.0842 651.957 L20.0842 645.464 L60.2518 635.47 L20.0842 625.508 L20.0842 618.283 L60.2518 608.289 L20.0842 598.326 L20.0842 591.801 L67.6042 603.737 L67.6042 611.822 L26.3544 621.848 L67.6042 631.969 L67.6042 640.053 L20.0842 651.957 Z" fill="#000000" fill-rule="nonzero" fill-opacity="1" /><path clip-path="url(#clip200)" d="M31.9562 584.958 L31.9562 579.102 L67.6042 579.102 L67.6042 584.958 L31.9562 584.958 M18.079 584.958 L18.079 579.102 L25.495 579.102 L25.495 584.958 L18.079 584.958 Z" fill="#000000" fill-rule="nonzero" fill-opacity="1" /><path clip-path="url(#clip200)" d="M46.0881 537.215 L67.6042 537.215 L67.6042 543.072 L46.279 543.072 Q41.2183 543.072 38.7038 545.045 Q36.1894 547.019 36.1894 550.965 Q36.1894 555.708 39.2131 558.445 Q42.2368 561.182 47.4567 561.182 L67.6042 561.182 L67.6042 567.071 L31.9562 567.071 L31.9562 561.182 L37.4944 561.182 Q34.2797 559.082 32.6883 556.249 Q31.0968 553.384 31.0968 549.66 Q31.0968 543.518 34.9163 540.366 Q38.7038 537.215 46.0881 537.215 Z" fill="#000000" fill-rule="nonzero" fill-opacity="1" /><path clip-path="url(#clip200)" d="M46.0881 495.902 L67.6042 495.902 L67.6042 501.758 L46.279 501.758 Q41.2183 501.758 38.7038 503.732 Q36.1894 505.705 36.1894 509.652 Q36.1894 514.394 39.2131 517.132 Q42.2368 519.869 47.4567 519.869 L67.6042 519.869 L67.6042 525.757 L31.9562 525.757 L31.9562 519.869 L37.4944 519.869 Q34.2797 517.768 32.6883 514.935 Q31.0968 512.071 31.0968 508.347 Q31.0968 502.204 34.9163 499.053 Q38.7038 495.902 46.0881 495.902 Z" fill="#000000" fill-rule="nonzero" fill-opacity="1" /><path clip-path="url(#clip200)" d="M31.9562 484.221 L31.9562 478.364 L67.6042 478.364 L67.6042 484.221 L31.9562 484.221 M18.079 484.221 L18.079 478.364 L25.495 478.364 L25.495 484.221 L18.079 484.221 Z" fill="#000000" fill-rule="nonzero" fill-opacity="1" /><path clip-path="url(#clip200)" d="M46.0881 436.478 L67.6042 436.478 L67.6042 442.335 L46.279 442.335 Q41.2183 442.335 38.7038 444.308 Q36.1894 446.281 36.1894 450.228 Q36.1894 454.971 39.2131 457.708 Q42.2368 460.445 47.4567 460.445 L67.6042 460.445 L67.6042 466.333 L31.9562 466.333 L31.9562 460.445 L37.4944 460.445 Q34.2797 458.344 32.6883 455.512 Q31.0968 452.647 31.0968 448.923 Q31.0968 442.78 34.9163 439.629 Q38.7038 436.478 46.0881 436.478 Z" fill="#000000" fill-rule="nonzero" fill-opacity="1" /><path clip-path="url(#clip200)" d="M49.3664 401.339 Q43.0007 401.339 39.4996 403.981 Q35.9984 406.591 35.9984 411.334 Q35.9984 416.044 39.4996 418.686 Q43.0007 421.296 49.3664 421.296 Q55.7003 421.296 59.2014 418.686 Q62.7026 416.044 62.7026 411.334 Q62.7026 406.591 59.2014 403.981 Q55.7003 401.339 49.3664 401.339 M63.18 395.483 Q72.283 395.483 76.7071 399.525 Q81.1631 403.567 81.1631 411.907 Q81.1631 414.994 80.6857 417.731 Q80.2401 420.468 79.2852 423.047 L73.5879 423.047 Q74.9884 420.468 75.6568 417.954 Q76.3252 415.439 76.3252 412.83 Q76.3252 407.069 73.3015 404.204 Q70.3096 401.339 64.2303 401.339 L61.3339 401.339 Q64.485 403.154 66.0446 405.986 Q67.6042 408.819 67.6042 412.766 Q67.6042 419.323 62.6071 423.333 Q57.61 427.343 49.3664 427.343 Q41.091 427.343 36.0939 423.333 Q31.0968 419.323 31.0968 412.766 Q31.0968 408.819 32.6564 405.986 Q34.216 403.154 37.3671 401.339 L31.9562 401.339 L31.9562 395.483 L63.18 395.483 Z" fill="#000000" fill-rule="nonzero" fill-opacity="1" /><path clip-path="url(#clip200)" d="M33.0065 360.694 L38.5447 360.694 Q37.2716 363.177 36.635 365.851 Q35.9984 368.524 35.9984 371.389 Q35.9984 375.749 37.3352 377.945 Q38.672 380.11 41.3456 380.11 Q43.3826 380.11 44.5603 378.55 Q45.7061 376.991 46.7565 372.28 L47.2021 370.275 Q48.5389 364.036 50.9897 361.426 Q53.4086 358.785 57.7691 358.785 Q62.7344 358.785 65.6308 362.731 Q68.5272 366.646 68.5272 373.521 Q68.5272 376.386 67.9543 379.505 Q67.4132 382.592 66.2992 386.03 L60.2518 386.03 Q61.9387 382.783 62.798 379.632 Q63.6256 376.481 63.6256 373.394 Q63.6256 369.256 62.2251 367.028 Q60.7929 364.8 58.2147 364.8 Q55.8276 364.8 54.5545 366.424 Q53.2813 368.015 52.1037 373.458 L51.6262 375.495 Q50.4804 380.937 48.1251 383.356 Q45.738 385.775 41.6002 385.775 Q36.5713 385.775 33.8341 382.21 Q31.0968 378.646 31.0968 372.089 Q31.0968 368.843 31.5743 365.978 Q32.0517 363.113 33.0065 360.694 Z" fill="#000000" fill-rule="nonzero" fill-opacity="1" /><path clip-path="url(#clip200)" d="M18.1426 314.67 Q25.4632 318.935 32.6246 321.004 Q39.786 323.073 47.1384 323.073 Q54.4908 323.073 61.7159 321.004 Q68.9091 318.904 76.1979 314.67 L76.1979 319.763 Q68.7182 324.537 61.4931 326.924 Q54.268 329.28 47.1384 329.28 Q40.0406 329.28 32.8474 326.924 Q25.6542 324.569 18.1426 319.763 L18.1426 314.67 Z" fill="#000000" fill-rule="nonzero" fill-opacity="1" /><path clip-path="url(#clip200)" d="M77.1845 287.425 L77.1845 290.608 L67.6042 290.64 Q67.5405 293.982 66.8403 297.324 Q66.1082 300.666 64.6759 304.04 L58.9468 304.04 Q60.9838 300.793 62.0342 297.483 Q63.0527 294.141 63.0845 290.608 L48.5707 290.608 Q47.4249 297.642 44.6876 300.857 Q41.9504 304.04 37.1761 304.04 Q31.988 304.04 28.9961 300.57 Q26.0043 297.101 25.5587 290.608 L18.079 290.608 L18.079 287.425 L25.4632 287.425 Q25.5905 284.465 26.0998 281.696 Q26.5772 278.927 27.4365 276.285 L33.0065 276.285 Q31.6697 278.927 30.9377 281.728 Q30.2056 284.497 30.0783 287.425 L43.6691 287.425 Q44.7831 280.2 47.6477 276.794 Q50.5122 273.389 55.4775 273.389 Q60.8565 273.389 63.9757 277.017 Q67.0631 280.614 67.5405 287.425 L77.1845 287.425 M43.0962 290.608 L30.0465 290.608 Q30.4603 294.3 32.1472 296.242 Q33.8341 298.183 36.635 298.183 Q39.3722 298.183 40.9 296.401 Q42.4278 294.587 43.0962 290.608 M49.2073 287.425 L62.989 287.425 Q62.4479 283.383 60.6974 281.346 Q58.9468 279.277 56.0822 279.277 Q53.2813 279.277 51.6262 281.25 Q49.9712 283.192 49.2073 287.425 Z" fill="#000000" fill-rule="nonzero" fill-opacity="1" /><path clip-path="url(#clip200)" d="M18.1426 262.758 L18.1426 257.665 Q25.6542 252.891 32.8474 250.536 Q40.0406 248.149 47.1384 248.149 Q54.268 248.149 61.4931 250.536 Q68.7182 252.891 76.1979 257.665 L76.1979 262.758 Q68.9091 258.525 61.7159 256.456 Q54.4908 254.355 47.1384 254.355 Q39.786 254.355 32.6246 256.456 Q25.4632 258.525 18.1426 262.758 Z" fill="#000000" fill-rule="nonzero" fill-opacity="1" /><polyline clip-path="url(#clip202)" style="stroke:#009af9; stroke-linecap:round; stroke-linejoin:round; stroke-width:4; stroke-opacity:1; fill:none" points="337.968,1141.6 339.646,1141.6 341.324,1141.6 343.002,344.738 344.681,504.11 346.359,79.1184 348.037,230.901 349.715,344.738 351.393,433.278 353.071,504.11 354.75,272.296 356.428,344.738 358.106,406.035 359.784,230.901 361.462,291.614 363.14,344.738 364.819,391.612 366.497,433.278 368.175,470.558 369.853,504.11 371.531,534.466 373.209,562.063 374.888,587.26 376.566,610.357 378.244,504.11 379.922,528.628 381.6,433.278 383.279,458.575 384.957,482.127 386.635,504.11 388.313,524.674 389.991,444.345 391.669,368.885 393.348,391.612 395.026,413.04 396.704,433.278 398.382,452.422 400.06,470.558 401.738,487.764 403.417,504.11 405.095,441.916 406.773,458.575 408.451,474.459 410.129,489.621 411.807,504.11 413.486,448.676 415.164,463.419 416.842,477.548 418.52,491.1 420.198,504.11 421.876,516.609 423.555,528.628 425.233,540.194 426.911,551.331 428.589,562.063 430.267,458.186 431.945,414.255 433.624,426.796 435.302,438.911 436.98,450.622 438.658,461.95 440.336,472.912 442.015,483.526 443.693,493.808 445.371,503.774 447.049,513.438 448.727,475.24 450.405,485.039 452.084,494.555 453.762,503.798 455.44,512.781 457.118,477.245 458.796,486.346 460.474,452.127 462.153,461.32 463.831,470.271 465.509,478.989 467.187,487.484 468.865,495.764 470.543,503.837 472.222,511.711 473.9,519.392 475.578,526.889 477.256,534.207 478.934,541.352 480.612,548.332 482.291,555.151 483.969,525.594 485.647,532.516 487.325,503.867 489.003,510.875 490.681,483.085 492.36,490.166 494.038,497.096 495.716,503.88 497.394,510.523 499.072,517.029 500.751,490.877 502.429,497.45 504.107,472.017 505.785,478.647 507.463,485.146 509.141,491.52 510.82,497.77 512.498,503.902 514.176,479.848 515.854,456.243 517.532,462.589 519.21,468.819 520.889,474.935 522.567,480.941 524.245,486.839 525.923,492.634 527.601,498.326 529.279,503.92 530.958,509.417 532.636,514.821 534.314,493.12 535.992,498.569 537.67,503.928 539.348,482.856 541.027,488.255 542.705,493.567 544.383,473.088 546.061,478.436 547.739,483.699 549.417,488.879 551.096,493.979 552.774,498.999 554.452,503.942 556.13,508.81 557.808,489.456 559.487,494.359 561.165,499.19 562.843,503.948 564.521,485.2 566.199,466.725 567.877,471.615 569.556,453.504 571.234,458.419 572.912,463.264 574.59,468.041 576.268,472.752 577.946,477.396 579.625,481.977 581.303,486.495 582.981,490.951 584.659,495.348 586.337,499.685 588.015,503.964 589.694,508.187 591.372,491.384 593.05,474.801 594.728,479.131 596.406,483.405 598.084,487.624 599.763,491.79 601.441,495.902 603.119,499.963 604.797,503.973 606.475,507.934 608.153,511.845 609.832,515.709 611.51,500.09 613.188,503.978 614.866,488.617 616.544,492.527 618.223,496.391 619.901,500.209 621.579,503.981 623.257,489.07 624.935,474.332 626.613,478.189 628.292,482.002 629.97,485.771 631.648,471.387 633.326,475.174 635.004,478.917 636.682,464.813 638.361,468.573 640.039,472.291 641.717,458.455 643.395,444.77 645.073,448.558 646.751,435.074 648.43,438.873 650.108,442.631 651.786,446.349 653.464,450.027 655.142,436.891 656.82,440.581 658.499,427.63 660.177,398.112 661.855,401.944 663.533,405.737 665.211,409.492 666.889,413.208 668.568,416.887 670.246,404.511 671.924,392.259 673.602,395.987 675.28,383.899 676.959,371.93 678.637,375.703 680.315,379.439 681.993,383.139 683.671,371.405 685.349,375.107 687.028,378.775 688.706,382.407 690.384,386.005 692.062,359.482 693.74,363.154 695.418,366.791 697.097,370.395 698.775,373.966 700.453,377.503 702.131,381.008 703.809,384.481 705.487,387.922 707.166,391.333 708.844,380.355 710.522,383.768 712.2,387.151 713.878,390.504 715.556,393.828 717.235,397.122 718.913,372.404 720.591,375.763 722.269,379.093 723.947,382.394 725.625,385.666 727.304,375.23 728.982,378.506 730.66,381.753 732.338,371.466 734.016,374.716 735.695,377.938 737.373,381.133 739.051,384.302 740.729,387.444 742.407,390.56 744.085,393.651 745.764,396.717 747.442,399.757 749.12,402.772 750.798,405.764 752.476,408.731 754.154,411.674 755.833,414.594 757.511,417.49 759.189,420.364 760.867,423.214 762.545,426.043 764.223,428.849 765.902,419.182 767.58,409.59 769.258,412.428 770.936,415.243 772.614,418.037 774.292,420.809 775.971,411.394 777.649,414.171 779.327,416.926 781.005,419.661 782.683,422.375 784.361,413.13 786.04,415.849 787.718,418.546 789.396,421.224 791.074,423.883 792.752,426.521 794.431,429.141 796.109,431.741 797.787,434.322 799.465,436.885 801.143,439.429 802.821,441.955 804.5,444.462 806.178,446.952 807.856,449.424 809.534,451.879 811.212,454.316 812.89,445.512 814.569,447.955 816.247,450.38 817.925,452.789 819.603,455.18 821.281,457.555 822.959,459.914 824.638,462.257 826.316,464.583 827.994,466.894 829.672,469.189 831.35,460.663 833.028,462.964 834.707,465.249 836.385,467.518 838.063,459.112 839.741,450.763 841.419,442.468 843.097,434.229 844.776,436.563 846.454,438.882 848.132,441.186 849.81,433.059 851.488,435.367 853.167,437.66 854.845,439.938 856.523,442.201 858.201,444.45 859.879,446.685 861.557,448.905 863.236,451.111 864.914,443.184 866.592,445.394 868.27,447.59 869.948,449.773 871.626,451.942 873.305,444.136 874.983,446.309 876.661,428.578 878.339,430.786 880.017,432.98 881.695,435.16 883.374,437.327 885.052,439.481 886.73,441.621 888.408,443.749 890.086,445.863 891.764,438.336 893.443,440.454 895.121,442.559 896.799,444.652 898.477,437.218 900.155,439.314 901.833,441.398 903.512,443.47 905.19,445.529 906.868,447.577 908.546,440.265 910.224,442.315 911.903,444.354 913.581,446.381 915.259,448.396 916.937,450.399 918.615,452.391 920.293,454.372 921.972,456.341 923.65,458.299 925.328,451.164 927.006,453.126 928.684,455.076 930.362,457.016 932.041,458.944 933.719,460.862 935.397,462.768 937.075,464.665 938.753,457.671 940.431,459.571 942.11,461.461 943.788,463.339 945.466,465.208 947.144,458.309 948.822,460.181 950.5,462.043 952.179,463.895 953.857,465.736 955.535,467.568 957.213,469.39 958.891,471.202 960.569,473.004 962.248,474.796 963.926,476.579 965.604,478.352 967.282,480.116 968.96,481.871 970.639,483.616 972.317,485.352 973.995,487.079 975.673,488.797 977.351,490.506 979.029,492.206 980.708,493.897 982.386,487.301 984.064,480.738 985.742,482.446 987.42,484.144 989.098,485.835 990.777,479.343 992.455,481.037 994.133,482.722 995.811,484.398 997.489,486.067 999.167,471.555 1000.85,473.247 1002.52,474.93 1004.2,468.596 1005.88,470.283 1007.56,471.961 1009.24,473.631 1010.91,475.293 1012.59,476.946 1014.27,478.592 1015.95,480.229 1017.63,481.858 1019.31,483.479 1020.98,485.092 1022.66,478.903 1024.34,480.52 1026.02,482.128 1027.7,475.992 1029.37,477.604 1031.05,471.509 1032.73,465.443 1034.41,459.406 1036.09,453.398 1037.77,455.045 1039.44,456.683 1041.12,450.725 1042.8,452.366 1044.48,453.999 1046.16,455.625 1047.83,449.725 1049.51,451.353 1051.19,452.973 1052.87,447.121 1054.55,448.744 1056.23,450.359 1057.9,451.966 1059.58,453.567 1061.26,455.159 1062.94,456.744 1064.62,458.322 1066.29,459.893 1067.97,461.457 1069.65,463.013 1071.33,464.562 1073.01,466.105 1074.69,460.396 1076.36,461.94 1078.04,463.478 1079.72,465.009 1081.4,459.354 1083.08,460.887 1084.75,462.413 1086.43,463.933 1088.11,465.445 1089.79,466.951 1091.47,461.367 1093.15,462.875 1094.82,464.377 1096.5,465.872 1098.18,467.36 1099.86,454.756 1101.54,456.262 1103.21,450.787 1104.89,452.295 1106.57,453.797 1108.25,455.292 1109.93,456.781 1111.6,458.263 1113.28,459.739 1114.96,461.208 1116.64,462.672 1118.32,464.129 1120,465.579 1121.67,467.024 1123.35,468.462 1125.03,469.894 1126.71,471.32 1128.39,472.74 1130.06,474.155 1131.74,468.838 1133.42,463.544 1135.1,464.969 1136.78,466.387 1138.46,467.8 1140.13,469.206 1141.81,470.607 1143.49,465.375 1145.17,466.778 1146.85,468.176 1148.52,456.352 1150.2,457.765 1151.88,459.172 1153.56,454.028 1155.24,455.437 1156.92,456.841 1158.59,458.238 1160.27,459.63 1161.95,461.016 1163.63,462.396 1165.31,463.771 1166.98,465.141 1168.66,466.505 1170.34,467.863 1172.02,469.216 1173.7,470.563 1175.38,471.905 1177.05,473.242 1178.73,474.573 1180.41,475.899 1182.09,477.22 1183.77,478.536 1185.44,479.846 1187.12,481.151 1188.8,476.177 1190.48,471.222 1192.16,472.537 1193.84,473.846 1195.51,475.15 1197.19,476.449 1198.87,477.743 1200.55,479.032 1202.23,480.316 1203.9,475.43 1205.58,476.716 1207.26,477.997 1208.94,466.94 1210.62,468.235 1212.3,469.524 1213.97,470.81 1215.65,466.007 1217.33,467.294 1219.01,468.576 1220.69,463.804 1222.36,465.088 1224.04,466.367 1225.72,467.641 1227.4,468.91 1229.08,470.175 1230.76,471.434 1232.43,472.689 1234.11,473.94 1235.79,463.242 1237.47,464.505 1239.15,465.764 1240.82,467.018 1242.5,468.267 1244.18,469.512 1245.86,464.871 1247.54,460.247 1249.21,461.499 1250.89,462.747 1252.57,463.991 1254.25,465.229 1255.93,466.464 1257.61,467.693 1259.28,468.919 1260.96,470.14 1262.64,471.356 1264.32,472.568 1266,473.776 1267.67,474.979 1269.35,476.178 1271.03,477.372 1272.71,478.563 1274.39,479.749 1276.07,480.931 1277.74,482.108 1279.42,483.282 1281.1,484.451 1282.78,485.616 1284.46,481.136 1286.13,476.671 1287.81,477.844 1289.49,479.013 1291.17,480.177 1292.85,481.337 1294.53,482.494 1296.2,483.646 1297.88,484.794 1299.56,485.939 1301.24,481.535 1302.92,482.681 1304.59,478.299 1306.27,479.447 1307.95,475.085 1309.63,476.234 1311.31,471.894 1312.99,473.044 1314.66,468.724 1316.34,464.418 1318.02,460.127 1319.7,461.29 1321.38,457.019 1323.05,452.762 1324.73,453.932 1326.41,455.097 1328.09,456.259 1329.77,457.416 1331.45,447.769 1333.12,448.937 1334.8,450.101 1336.48,445.914 1338.16,447.079 1339.84,448.24 1341.51,444.077 1343.19,445.239 1344.87,441.094 1346.55,442.258 1348.23,438.132 1349.91,434.019 1351.58,435.189 1353.26,436.354 1354.94,437.516 1356.62,438.674 1358.3,434.595 1359.97,435.754 1361.65,436.909 1363.33,438.06 1365.01,439.208 1366.69,440.352 1368.37,441.492 1370.04,442.629 1371.72,443.762 1373.4,444.891 1375.08,446.016 1376.76,447.138 1378.43,448.256 1380.11,444.247 1381.79,445.366 1383.47,441.374 1385.15,442.494 1386.83,443.611 1388.5,444.724 1390.18,435.637 1391.86,431.692 1393.54,432.818 1395.22,428.89 1396.89,430.018 1398.57,426.107 1400.25,427.235 1401.93,428.36 1403.61,429.482 1405.28,430.599 1406.96,431.714 1408.64,427.837 1410.32,428.952 1412,430.064 1413.68,431.172 1415.35,432.277 1417.03,433.378 1418.71,434.476 1420.39,435.571 1422.07,436.662 1423.74,437.75 1425.42,438.834 1427.1,439.916 1428.78,436.097 1430.46,437.179 1432.14,438.258 1433.81,434.46 1435.49,435.539 1437.17,436.616 1438.85,432.837 1440.53,429.07 1442.2,430.151 1443.88,421.552 1445.56,417.819 1447.24,418.913 1448.92,420.003 1450.6,421.089 1452.27,422.173 1453.95,418.467 1455.63,419.551 1457.31,420.632 1458.99,421.71 1460.66,422.784 1462.34,423.856 1464.02,424.924 1465.7,425.989 1467.38,427.05 1469.06,423.387 1470.73,424.449 1472.41,420.8 1474.09,421.863 1475.77,418.229 1477.45,414.606 1479.12,406.289 1480.8,407.367 1482.48,408.442 1484.16,409.514 1485.84,410.583 1487.52,411.648 1489.19,408.071 1490.87,409.137 1492.55,405.574 1494.23,406.641 1495.91,407.705 1497.58,408.765 1499.26,409.823 1500.94,410.877 1502.62,407.342 1504.3,408.397 1505.98,409.449 1507.65,405.931 1509.33,406.984 1511.01,408.033 1512.69,409.08 1514.37,410.123 1516.04,406.63 1517.72,403.146 1519.4,404.194 1521.08,405.238 1522.76,406.28 1524.44,407.318 1526.11,403.858 1527.79,404.897 1529.47,405.933 1531.15,406.967 1532.83,403.526 1534.5,400.096 1536.18,401.133 1537.86,402.167 1539.54,403.199 1541.22,404.227 1542.89,405.252 1544.57,406.275 1546.25,407.295 1547.93,399.437 1549.61,396.055 1551.29,397.084 1552.96,398.111 1554.64,399.135 1556.32,400.157 1558,401.175 1559.68,402.191 1561.35,403.204 1563.03,404.214 1564.71,405.221 1566.39,406.226 1568.07,407.228 1569.75,408.227 1571.42,409.223 1573.1,405.892 1574.78,406.889 1576.46,407.883 1578.14,408.875 1579.81,409.863 1581.49,410.85 1583.17,411.833 1584.85,412.814 1586.53,413.792 1588.21,414.768 1589.88,415.741 1591.56,416.711 1593.24,417.679 1594.92,414.394 1596.6,415.363 1598.27,416.328 1599.95,417.291 1601.63,418.252 1603.31,419.21 1604.99,415.95 1606.67,416.908 1608.34,417.864 1610.02,418.818 1611.7,419.769 1613.38,420.717 1615.06,417.48 1616.73,418.429 1618.41,415.204 1620.09,411.987 1621.77,412.939 1623.45,413.889 1625.13,410.687 1626.8,411.637 1628.48,412.585 1630.16,413.531 1631.84,414.474 1633.52,415.414 1635.19,416.352 1636.87,417.288 1638.55,414.114 1640.23,415.05 1641.91,415.984 1643.59,416.916 1645.26,417.845 1646.94,418.772 1648.62,419.696 1650.3,420.618 1651.98,417.472 1653.65,418.394 1655.33,419.314 1657.01,420.232 1658.69,421.148 1660.37,422.061 1662.05,422.972 1663.72,423.88 1665.4,424.786 1667.08,425.69 1668.76,426.592 1670.44,427.491 1672.11,424.384 1673.79,425.284 1675.47,426.182 1677.15,427.077 1678.83,427.97 1680.51,428.861 1682.18,429.75 1683.86,430.636 1685.54,431.52 1687.22,432.403 1688.9,433.282 1690.57,434.16 1692.25,431.091 1693.93,428.029 1695.61,428.91 1697.29,429.789 1698.96,430.665 1700.64,431.54 1702.32,432.412 1704,429.371 1705.68,430.244 1707.36,431.115 1709.03,431.983 1710.71,428.958 1712.39,429.827 1714.07,430.694 1715.75,431.559 1717.42,432.422 1719.1,433.282 1720.78,430.277 1722.46,431.138 1724.14,428.143 1725.82,429.005 1727.49,426.02 1729.17,423.042 1730.85,423.906 1732.53,424.769 1734.21,425.629 1735.88,426.488 1737.56,427.344 1739.24,424.386 1740.92,425.243 1742.6,426.098 1744.28,426.95 1745.95,427.801 1747.63,428.65 1749.31,429.497 1750.99,430.341 1752.67,431.184 1754.34,432.025 1756.02,432.864 1757.7,429.937 1759.38,430.776 1761.06,431.614 1762.74,432.449 1764.41,433.282 1766.09,434.114 1767.77,434.943 1769.45,435.77 1771.13,436.596 1772.8,437.419 1774.48,438.241 1776.16,439.061 1777.84,439.879 1779.52,440.695 1781.2,441.509 1782.87,442.321 1784.55,443.131 1786.23,443.94 1787.91,444.746 1789.59,445.551 1791.26,446.354 1792.94,447.155 1794.62,447.954 1796.3,448.751 1797.98,449.547 1799.66,450.34 1801.33,447.481 1803.01,448.275 1804.69,449.067 1806.37,449.858 1808.05,450.647 1809.72,447.803 1811.4,448.593 1813.08,449.38 1814.76,450.166 1816.44,450.95 1818.12,451.732 1819.79,452.512 1821.47,453.291 1823.15,450.47 1824.83,451.249 1826.51,452.027 1828.18,452.803 1829.86,453.576 1831.54,454.349 1833.22,451.546 1834.9,452.319 1836.57,453.09 1838.25,453.859 1839.93,454.626 1841.61,455.392 1843.29,456.156 1844.97,449.811 1846.64,450.579 1848.32,451.346 1850,452.111 1851.68,452.875 1853.36,453.637 1855.03,454.397 1856.71,455.156 1858.39,455.912 1860.07,449.605 1861.75,450.366 1863.43,447.623 1865.1,448.385 1866.78,449.145 1868.46,449.903 1870.14,450.66 1871.82,451.415 1873.49,452.168 1875.17,452.92 1876.85,453.671 1878.53,454.419 1880.21,455.166 1881.89,455.911 1883.56,456.655 1885.24,457.397 1886.92,458.138 1888.6,458.876 1890.28,459.614 1891.95,460.349 1893.63,461.084 1895.31,461.816 1896.99,462.547 1898.67,463.276 1900.35,464.004 1902.02,464.73 1903.7,465.455 1905.38,462.769 1907.06,463.494 1908.74,460.816 1910.41,461.542 1912.09,462.266 1913.77,462.989 1915.45,463.71 1917.13,464.43 1918.81,465.148 1920.48,465.865 1922.16,466.58 1923.84,467.293 1925.52,464.639 1927.2,461.991 1928.87,462.707 1930.55,463.422 1932.23,460.783 1933.91,461.499 1935.59,462.212 1937.27,462.924 1938.94,463.635 1940.62,464.344 1942.3,461.721 1943.98,462.431 1945.66,463.139 1947.33,463.846 1949.01,464.551 1950.69,465.255 1952.37,465.957 1954.05,466.658 1955.73,467.357 1957.4,468.055 1959.08,468.752 1960.76,466.154 1962.44,460.25 1964.12,457.667 1965.79,458.371 1967.47,459.074 1969.15,459.775 1970.83,457.203 1972.51,457.905 1974.18,458.605 1975.86,459.304 1977.54,460.002 1979.22,460.698 1980.9,461.393 1982.58,462.086 1984.25,459.532 1985.93,460.226 1987.61,457.679 1989.29,458.374 1990.97,459.067 1992.64,459.758 1994.32,460.448 1996,457.914 1997.68,458.605 1999.36,459.294 2001.04,459.982 2002.71,454.216 2004.39,454.908 2006.07,455.598 2007.75,456.287 2009.43,456.974 2011.1,457.66 2012.78,458.345 2014.46,459.028 "/>
</svg>
