<?xml version="1.0" encoding="utf-8"?>
<svg xmlns="http://www.w3.org/2000/svg" xmlns:xlink="http://www.w3.org/1999/xlink" width="672" height="480" viewBox="0 0 2688 1920">
<defs>
  <clipPath id="clip170">
    <rect x="0" y="0" width="2688" height="1920"/>
  </clipPath>
</defs>
<path clip-path="url(#clip170)" d="
M0 1920 L2688 1920 L2688 0 L0 0  Z
  " fill="#ffffff" fill-rule="evenodd" fill-opacity="1"/>
<defs>
  <clipPath id="clip171">
    <rect x="537" y="0" width="1883" height="1883"/>
  </clipPath>
</defs>
<path clip-path="url(#clip170)" d="
M159.154 1800.78 L2640.76 1800.78 L2640.76 47.2441 L159.154 47.2441  Z
  " fill="#ffffff" fill-rule="evenodd" fill-opacity="1"/>
<defs>
  <clipPath id="clip172">
    <rect x="159" y="47" width="2483" height="1755"/>
  </clipPath>
</defs>
<polyline clip-path="url(#clip172)" style="stroke:#000000; stroke-linecap:butt; stroke-linejoin:round; stroke-width:2; stroke-opacity:0.1; fill:none" points="
  311.56,1800.78 311.56,47.2441 
  "/>
<polyline clip-path="url(#clip172)" style="stroke:#000000; stroke-linecap:butt; stroke-linejoin:round; stroke-width:2; stroke-opacity:0.1; fill:none" points="
  840.025,1800.78 840.025,47.2441 
  "/>
<polyline clip-path="url(#clip172)" style="stroke:#000000; stroke-linecap:butt; stroke-linejoin:round; stroke-width:2; stroke-opacity:0.1; fill:none" points="
  1368.49,1800.78 1368.49,47.2441 
  "/>
<polyline clip-path="url(#clip172)" style="stroke:#000000; stroke-linecap:butt; stroke-linejoin:round; stroke-width:2; stroke-opacity:0.1; fill:none" points="
  1896.96,1800.78 1896.96,47.2441 
  "/>
<polyline clip-path="url(#clip172)" style="stroke:#000000; stroke-linecap:butt; stroke-linejoin:round; stroke-width:2; stroke-opacity:0.1; fill:none" points="
  2425.42,1800.78 2425.42,47.2441 
  "/>
<polyline clip-path="url(#clip170)" style="stroke:#000000; stroke-linecap:butt; stroke-linejoin:round; stroke-width:4; stroke-opacity:1; fill:none" points="
  159.154,1800.78 2640.76,1800.78 
  "/>
<polyline clip-path="url(#clip170)" style="stroke:#000000; stroke-linecap:butt; stroke-linejoin:round; stroke-width:4; stroke-opacity:1; fill:none" points="
  311.56,1800.78 311.56,1781.88 
  "/>
<polyline clip-path="url(#clip170)" style="stroke:#000000; stroke-linecap:butt; stroke-linejoin:round; stroke-width:4; stroke-opacity:1; fill:none" points="
  840.025,1800.78 840.025,1781.88 
  "/>
<polyline clip-path="url(#clip170)" style="stroke:#000000; stroke-linecap:butt; stroke-linejoin:round; stroke-width:4; stroke-opacity:1; fill:none" points="
  1368.49,1800.78 1368.49,1781.88 
  "/>
<polyline clip-path="url(#clip170)" style="stroke:#000000; stroke-linecap:butt; stroke-linejoin:round; stroke-width:4; stroke-opacity:1; fill:none" points="
  1896.96,1800.78 1896.96,1781.88 
  "/>
<polyline clip-path="url(#clip170)" style="stroke:#000000; stroke-linecap:butt; stroke-linejoin:round; stroke-width:4; stroke-opacity:1; fill:none" points="
  2425.42,1800.78 2425.42,1781.88 
  "/>
<path clip-path="url(#clip170)" d="M281.201 1848.65 L310.877 1848.65 L310.877 1852.59 L281.201 1852.59 L281.201 1848.65 Z" fill="#000000" fill-rule="evenodd" fill-opacity="1" /><path clip-path="url(#clip170)" d="M321.016 1830.92 L339.372 1830.92 L339.372 1834.86 L325.298 1834.86 L325.298 1843.33 Q326.317 1842.98 327.335 1842.82 Q328.354 1842.64 329.372 1842.64 Q335.159 1842.64 338.539 1845.81 Q341.919 1848.98 341.919 1854.4 Q341.919 1859.97 338.446 1863.08 Q334.974 1866.15 328.655 1866.15 Q326.479 1866.15 324.21 1865.78 Q321.965 1865.41 319.558 1864.67 L319.558 1859.97 Q321.641 1861.11 323.863 1861.66 Q326.085 1862.22 328.562 1862.22 Q332.567 1862.22 334.905 1860.11 Q337.243 1858.01 337.243 1854.4 Q337.243 1850.78 334.905 1848.68 Q332.567 1846.57 328.562 1846.57 Q326.687 1846.57 324.812 1846.99 Q322.96 1847.4 321.016 1848.28 L321.016 1830.92 Z" fill="#000000" fill-rule="evenodd" fill-opacity="1" /><path clip-path="url(#clip170)" d="M840.025 1834 Q836.414 1834 834.585 1837.57 Q832.78 1841.11 832.78 1848.24 Q832.78 1855.34 834.585 1858.91 Q836.414 1862.45 840.025 1862.45 Q843.659 1862.45 845.465 1858.91 Q847.294 1855.34 847.294 1848.24 Q847.294 1841.11 845.465 1837.57 Q843.659 1834 840.025 1834 M840.025 1830.3 Q845.835 1830.3 848.891 1834.9 Q851.97 1839.49 851.97 1848.24 Q851.97 1856.96 848.891 1861.57 Q845.835 1866.15 840.025 1866.15 Q834.215 1866.15 831.136 1861.57 Q828.081 1856.96 828.081 1848.24 Q828.081 1839.49 831.136 1834.9 Q834.215 1830.3 840.025 1830.3 Z" fill="#000000" fill-rule="evenodd" fill-opacity="1" /><path clip-path="url(#clip170)" d="M1358.77 1830.92 L1377.12 1830.92 L1377.12 1834.86 L1363.05 1834.86 L1363.05 1843.33 Q1364.07 1842.98 1365.09 1842.82 Q1366.11 1842.64 1367.12 1842.64 Q1372.91 1842.64 1376.29 1845.81 Q1379.67 1848.98 1379.67 1854.4 Q1379.67 1859.97 1376.2 1863.08 Q1372.73 1866.15 1366.41 1866.15 Q1364.23 1866.15 1361.96 1865.78 Q1359.72 1865.41 1357.31 1864.67 L1357.31 1859.97 Q1359.39 1861.11 1361.62 1861.66 Q1363.84 1862.22 1366.31 1862.22 Q1370.32 1862.22 1372.66 1860.11 Q1374.99 1858.01 1374.99 1854.4 Q1374.99 1850.78 1372.66 1848.68 Q1370.32 1846.57 1366.31 1846.57 Q1364.44 1846.57 1362.56 1846.99 Q1360.71 1847.4 1358.77 1848.28 L1358.77 1830.92 Z" fill="#000000" fill-rule="evenodd" fill-opacity="1" /><path clip-path="url(#clip170)" d="M1871.64 1861.55 L1879.28 1861.55 L1879.28 1835.18 L1870.97 1836.85 L1870.97 1832.59 L1879.24 1830.92 L1883.91 1830.92 L1883.91 1861.55 L1891.55 1861.55 L1891.55 1865.48 L1871.64 1865.48 L1871.64 1861.55 Z" fill="#000000" fill-rule="evenodd" fill-opacity="1" /><path clip-path="url(#clip170)" d="M1910.99 1834 Q1907.38 1834 1905.55 1837.57 Q1903.75 1841.11 1903.75 1848.24 Q1903.75 1855.34 1905.55 1858.91 Q1907.38 1862.45 1910.99 1862.45 Q1914.63 1862.45 1916.43 1858.91 Q1918.26 1855.34 1918.26 1848.24 Q1918.26 1841.11 1916.43 1837.57 Q1914.63 1834 1910.99 1834 M1910.99 1830.3 Q1916.8 1830.3 1919.86 1834.9 Q1922.94 1839.49 1922.94 1848.24 Q1922.94 1856.96 1919.86 1861.57 Q1916.8 1866.15 1910.99 1866.15 Q1905.18 1866.15 1902.11 1861.57 Q1899.05 1856.96 1899.05 1848.24 Q1899.05 1839.49 1902.11 1834.9 Q1905.18 1830.3 1910.99 1830.3 Z" fill="#000000" fill-rule="evenodd" fill-opacity="1" /><path clip-path="url(#clip170)" d="M2400.61 1861.55 L2408.24 1861.55 L2408.24 1835.18 L2399.93 1836.85 L2399.93 1832.59 L2408.2 1830.92 L2412.87 1830.92 L2412.87 1861.55 L2420.51 1861.55 L2420.51 1865.48 L2400.61 1865.48 L2400.61 1861.55 Z" fill="#000000" fill-rule="evenodd" fill-opacity="1" /><path clip-path="url(#clip170)" d="M2430 1830.92 L2448.36 1830.92 L2448.36 1834.86 L2434.29 1834.86 L2434.29 1843.33 Q2435.3 1842.98 2436.32 1842.82 Q2437.34 1842.64 2438.36 1842.64 Q2444.15 1842.64 2447.53 1845.81 Q2450.91 1848.98 2450.91 1854.4 Q2450.91 1859.97 2447.43 1863.08 Q2443.96 1866.15 2437.64 1866.15 Q2435.47 1866.15 2433.2 1865.78 Q2430.95 1865.41 2428.55 1864.67 L2428.55 1859.97 Q2430.63 1861.11 2432.85 1861.66 Q2435.07 1862.22 2437.55 1862.22 Q2441.55 1862.22 2443.89 1860.11 Q2446.23 1858.01 2446.23 1854.4 Q2446.23 1850.78 2443.89 1848.68 Q2441.55 1846.57 2437.55 1846.57 Q2435.68 1846.57 2433.8 1846.99 Q2431.95 1847.4 2430 1848.28 L2430 1830.92 Z" fill="#000000" fill-rule="evenodd" fill-opacity="1" /><polyline clip-path="url(#clip172)" style="stroke:#000000; stroke-linecap:butt; stroke-linejoin:round; stroke-width:2; stroke-opacity:0.1; fill:none" points="
  159.154,1751.17 2640.76,1751.17 
  "/>
<polyline clip-path="url(#clip172)" style="stroke:#000000; stroke-linecap:butt; stroke-linejoin:round; stroke-width:2; stroke-opacity:0.1; fill:none" points="
  159.154,1408.66 2640.76,1408.66 
  "/>
<polyline clip-path="url(#clip172)" style="stroke:#000000; stroke-linecap:butt; stroke-linejoin:round; stroke-width:2; stroke-opacity:0.1; fill:none" points="
  159.154,1066.15 2640.76,1066.15 
  "/>
<polyline clip-path="url(#clip172)" style="stroke:#000000; stroke-linecap:butt; stroke-linejoin:round; stroke-width:2; stroke-opacity:0.1; fill:none" points="
  159.154,723.643 2640.76,723.643 
  "/>
<polyline clip-path="url(#clip172)" style="stroke:#000000; stroke-linecap:butt; stroke-linejoin:round; stroke-width:2; stroke-opacity:0.1; fill:none" points="
  159.154,381.133 2640.76,381.133 
  "/>
<polyline clip-path="url(#clip170)" style="stroke:#000000; stroke-linecap:butt; stroke-linejoin:round; stroke-width:4; stroke-opacity:1; fill:none" points="
  159.154,1800.78 159.154,47.2441 
  "/>
<polyline clip-path="url(#clip170)" style="stroke:#000000; stroke-linecap:butt; stroke-linejoin:round; stroke-width:4; stroke-opacity:1; fill:none" points="
  159.154,1751.17 178.052,1751.17 
  "/>
<polyline clip-path="url(#clip170)" style="stroke:#000000; stroke-linecap:butt; stroke-linejoin:round; stroke-width:4; stroke-opacity:1; fill:none" points="
  159.154,1408.66 178.052,1408.66 
  "/>
<polyline clip-path="url(#clip170)" style="stroke:#000000; stroke-linecap:butt; stroke-linejoin:round; stroke-width:4; stroke-opacity:1; fill:none" points="
  159.154,1066.15 178.052,1066.15 
  "/>
<polyline clip-path="url(#clip170)" style="stroke:#000000; stroke-linecap:butt; stroke-linejoin:round; stroke-width:4; stroke-opacity:1; fill:none" points="
  159.154,723.643 178.052,723.643 
  "/>
<polyline clip-path="url(#clip170)" style="stroke:#000000; stroke-linecap:butt; stroke-linejoin:round; stroke-width:4; stroke-opacity:1; fill:none" points="
  159.154,381.133 178.052,381.133 
  "/>
<path clip-path="url(#clip170)" d="M61.6585 1736.97 Q58.0475 1736.97 56.2188 1740.54 Q54.4132 1744.08 54.4132 1751.21 Q54.4132 1758.31 56.2188 1761.88 Q58.0475 1765.42 61.6585 1765.42 Q65.2928 1765.42 67.0983 1761.88 Q68.927 1758.31 68.927 1751.21 Q68.927 1744.08 67.0983 1740.54 Q65.2928 1736.97 61.6585 1736.97 M61.6585 1733.27 Q67.4687 1733.27 70.5242 1737.87 Q73.6029 1742.46 73.6029 1751.21 Q73.6029 1759.93 70.5242 1764.54 Q67.4687 1769.12 61.6585 1769.12 Q55.8484 1769.12 52.7697 1764.54 Q49.7142 1759.93 49.7142 1751.21 Q49.7142 1742.46 52.7697 1737.87 Q55.8484 1733.27 61.6585 1733.27 Z" fill="#000000" fill-rule="evenodd" fill-opacity="1" /><path clip-path="url(#clip170)" d="M81.8205 1762.57 L86.7047 1762.57 L86.7047 1768.45 L81.8205 1768.45 L81.8205 1762.57 Z" fill="#000000" fill-rule="evenodd" fill-opacity="1" /><path clip-path="url(#clip170)" d="M106.89 1736.97 Q103.279 1736.97 101.45 1740.54 Q99.6445 1744.08 99.6445 1751.21 Q99.6445 1758.31 101.45 1761.88 Q103.279 1765.42 106.89 1765.42 Q110.524 1765.42 112.33 1761.88 Q114.158 1758.31 114.158 1751.21 Q114.158 1744.08 112.33 1740.54 Q110.524 1736.97 106.89 1736.97 M106.89 1733.27 Q112.7 1733.27 115.755 1737.87 Q118.834 1742.46 118.834 1751.21 Q118.834 1759.93 115.755 1764.54 Q112.7 1769.12 106.89 1769.12 Q101.08 1769.12 98.0009 1764.54 Q94.9454 1759.93 94.9454 1751.21 Q94.9454 1742.46 98.0009 1737.87 Q101.08 1733.27 106.89 1733.27 Z" fill="#000000" fill-rule="evenodd" fill-opacity="1" /><path clip-path="url(#clip170)" d="M62.3067 1394.46 Q58.6956 1394.46 56.8669 1398.03 Q55.0614 1401.57 55.0614 1408.7 Q55.0614 1415.8 56.8669 1419.37 Q58.6956 1422.91 62.3067 1422.91 Q65.9409 1422.91 67.7465 1419.37 Q69.5752 1415.8 69.5752 1408.7 Q69.5752 1401.57 67.7465 1398.03 Q65.9409 1394.46 62.3067 1394.46 M62.3067 1390.76 Q68.1168 1390.76 71.1724 1395.36 Q74.2511 1399.95 74.2511 1408.7 Q74.2511 1417.42 71.1724 1422.03 Q68.1168 1426.61 62.3067 1426.61 Q56.4965 1426.61 53.4178 1422.03 Q50.3623 1417.42 50.3623 1408.7 Q50.3623 1399.95 53.4178 1395.36 Q56.4965 1390.76 62.3067 1390.76 Z" fill="#000000" fill-rule="evenodd" fill-opacity="1" /><path clip-path="url(#clip170)" d="M82.4686 1420.06 L87.3528 1420.06 L87.3528 1425.94 L82.4686 1425.94 L82.4686 1420.06 Z" fill="#000000" fill-rule="evenodd" fill-opacity="1" /><path clip-path="url(#clip170)" d="M111.705 1407.31 Q115.061 1408.03 116.936 1410.3 Q118.834 1412.56 118.834 1415.9 Q118.834 1421.01 115.316 1423.81 Q111.797 1426.61 105.316 1426.61 Q103.14 1426.61 100.825 1426.17 Q98.5333 1425.76 96.0797 1424.9 L96.0797 1420.39 Q98.0241 1421.52 100.339 1422.1 Q102.654 1422.68 105.177 1422.68 Q109.575 1422.68 111.867 1420.94 Q114.181 1419.21 114.181 1415.9 Q114.181 1412.84 112.029 1411.13 Q109.899 1409.39 106.08 1409.39 L102.052 1409.39 L102.052 1405.55 L106.265 1405.55 Q109.714 1405.55 111.543 1404.18 Q113.371 1402.8 113.371 1400.2 Q113.371 1397.54 111.473 1396.13 Q109.598 1394.69 106.08 1394.69 Q104.158 1394.69 101.959 1395.11 Q99.7602 1395.53 97.1213 1396.41 L97.1213 1392.24 Q99.7833 1391.5 102.098 1391.13 Q104.436 1390.76 106.496 1390.76 Q111.82 1390.76 114.922 1393.19 Q118.024 1395.6 118.024 1399.72 Q118.024 1402.59 116.38 1404.58 Q114.737 1406.55 111.705 1407.31 Z" fill="#000000" fill-rule="evenodd" fill-opacity="1" /><path clip-path="url(#clip170)" d="M61.4965 1051.95 Q57.8854 1051.95 56.0567 1055.52 Q54.2512 1059.06 54.2512 1066.19 Q54.2512 1073.29 56.0567 1076.86 Q57.8854 1080.4 61.4965 1080.4 Q65.1307 1080.4 66.9363 1076.86 Q68.765 1073.29 68.765 1066.19 Q68.765 1059.06 66.9363 1055.52 Q65.1307 1051.95 61.4965 1051.95 M61.4965 1048.25 Q67.3067 1048.25 70.3622 1052.85 Q73.4409 1057.44 73.4409 1066.19 Q73.4409 1074.91 70.3622 1079.52 Q67.3067 1084.1 61.4965 1084.1 Q55.6864 1084.1 52.6077 1079.52 Q49.5521 1074.91 49.5521 1066.19 Q49.5521 1057.44 52.6077 1052.85 Q55.6864 1048.25 61.4965 1048.25 Z" fill="#000000" fill-rule="evenodd" fill-opacity="1" /><path clip-path="url(#clip170)" d="M81.6584 1077.55 L86.5427 1077.55 L86.5427 1083.43 L81.6584 1083.43 L81.6584 1077.55 Z" fill="#000000" fill-rule="evenodd" fill-opacity="1" /><path clip-path="url(#clip170)" d="M107.306 1064.29 Q104.158 1064.29 102.306 1066.44 Q100.478 1068.6 100.478 1072.35 Q100.478 1076.07 102.306 1078.25 Q104.158 1080.4 107.306 1080.4 Q110.455 1080.4 112.283 1078.25 Q114.135 1076.07 114.135 1072.35 Q114.135 1068.6 112.283 1066.44 Q110.455 1064.29 107.306 1064.29 M116.589 1049.64 L116.589 1053.9 Q114.83 1053.06 113.024 1052.62 Q111.242 1052.18 109.482 1052.18 Q104.853 1052.18 102.399 1055.31 Q99.9685 1058.43 99.6213 1064.75 Q100.987 1062.74 103.047 1061.67 Q105.107 1060.59 107.584 1060.59 Q112.793 1060.59 115.802 1063.76 Q118.834 1066.91 118.834 1072.35 Q118.834 1077.67 115.686 1080.89 Q112.538 1084.1 107.306 1084.1 Q101.311 1084.1 98.1398 1079.52 Q94.9685 1074.91 94.9685 1066.19 Q94.9685 1057.99 98.8574 1053.13 Q102.746 1048.25 109.297 1048.25 Q111.056 1048.25 112.839 1048.6 Q114.644 1048.94 116.589 1049.64 Z" fill="#000000" fill-rule="evenodd" fill-opacity="1" /><path clip-path="url(#clip170)" d="M61.8437 709.442 Q58.2326 709.442 56.4039 713.007 Q54.5984 716.548 54.5984 723.678 Q54.5984 730.784 56.4039 734.349 Q58.2326 737.891 61.8437 737.891 Q65.478 737.891 67.2835 734.349 Q69.1122 730.784 69.1122 723.678 Q69.1122 716.548 67.2835 713.007 Q65.478 709.442 61.8437 709.442 M61.8437 705.738 Q67.6539 705.738 70.7094 710.345 Q73.7881 714.928 73.7881 723.678 Q73.7881 732.405 70.7094 737.011 Q67.6539 741.594 61.8437 741.594 Q56.0336 741.594 52.9549 737.011 Q49.8993 732.405 49.8993 723.678 Q49.8993 714.928 52.9549 710.345 Q56.0336 705.738 61.8437 705.738 Z" fill="#000000" fill-rule="evenodd" fill-opacity="1" /><path clip-path="url(#clip170)" d="M82.0057 735.043 L86.8899 735.043 L86.8899 740.923 L82.0057 740.923 L82.0057 735.043 Z" fill="#000000" fill-rule="evenodd" fill-opacity="1" /><path clip-path="url(#clip170)" d="M97.2139 740.206 L97.2139 735.946 Q98.9732 736.78 100.779 737.219 Q102.584 737.659 104.32 737.659 Q108.95 737.659 111.38 734.557 Q113.834 731.432 114.181 725.09 Q112.839 727.081 110.779 728.145 Q108.718 729.21 106.218 729.21 Q101.033 729.21 98.0009 726.085 Q94.9917 722.937 94.9917 717.497 Q94.9917 712.173 98.1398 708.956 Q101.288 705.738 106.519 705.738 Q112.515 705.738 115.663 710.345 Q118.834 714.928 118.834 723.678 Q118.834 731.849 114.945 736.733 Q111.08 741.594 104.529 741.594 Q102.769 741.594 100.964 741.247 Q99.1583 740.9 97.2139 740.206 M106.519 725.553 Q109.668 725.553 111.496 723.4 Q113.348 721.247 113.348 717.497 Q113.348 713.77 111.496 711.618 Q109.668 709.442 106.519 709.442 Q103.371 709.442 101.519 711.618 Q99.6907 713.77 99.6907 717.497 Q99.6907 721.247 101.519 723.4 Q103.371 725.553 106.519 725.553 Z" fill="#000000" fill-rule="evenodd" fill-opacity="1" /><path clip-path="url(#clip170)" d="M54.066 394.478 L61.7048 394.478 L61.7048 368.112 L53.3947 369.779 L53.3947 365.52 L61.6585 363.853 L66.3344 363.853 L66.3344 394.478 L73.9733 394.478 L73.9733 398.413 L54.066 398.413 L54.066 394.478 Z" fill="#000000" fill-rule="evenodd" fill-opacity="1" /><path clip-path="url(#clip170)" d="M83.4177 392.533 L88.3019 392.533 L88.3019 398.413 L83.4177 398.413 L83.4177 392.533 Z" fill="#000000" fill-rule="evenodd" fill-opacity="1" /><path clip-path="url(#clip170)" d="M102.515 394.478 L118.834 394.478 L118.834 398.413 L96.8898 398.413 L96.8898 394.478 Q99.5519 391.723 104.135 387.094 Q108.742 382.441 109.922 381.098 Q112.168 378.575 113.047 376.839 Q113.95 375.08 113.95 373.39 Q113.95 370.635 112.005 368.899 Q110.084 367.163 106.982 367.163 Q104.783 367.163 102.33 367.927 Q99.8991 368.691 97.1213 370.242 L97.1213 365.52 Q99.9454 364.385 102.399 363.807 Q104.853 363.228 106.89 363.228 Q112.26 363.228 115.455 365.913 Q118.649 368.598 118.649 373.089 Q118.649 375.219 117.839 377.14 Q117.052 379.038 114.945 381.631 Q114.367 382.302 111.265 385.52 Q108.163 388.714 102.515 394.478 Z" fill="#000000" fill-rule="evenodd" fill-opacity="1" /><polyline clip-path="url(#clip172)" style="stroke:#000000; stroke-linecap:butt; stroke-linejoin:round; stroke-width:4; stroke-opacity:1; fill:none" points="
  1848.5,1750.9 1849.44,1750.9 1850.37,1750.88 1851.3,1750.83 1852.23,1750.77 1853.17,1750.67 1854.1,1750.55 1855.03,1750.39 1855.96,1750.18 1856.9,1749.92 
  1857.83,1749.6 1858.76,1749.19 1859.69,1748.7 1860.63,1748.09 1861.56,1747.36 1862.49,1746.46 1863.42,1745.39 1864.36,1744.1 1865.29,1742.56 1866.22,1740.73 
  1867.15,1738.58 1868.09,1736.05 1869.02,1733.1 1869.95,1729.66 1870.88,1725.69 1871.82,1721.11 1872.75,1715.88 1873.68,1709.92 1874.61,1703.16 1875.55,1695.55 
  1876.48,1687.02 1877.41,1677.49 1878.34,1666.93 1879.28,1655.27 1880.21,1642.47 1881.14,1628.5 1882.07,1613.32 1883.01,1596.93 1883.94,1579.33 1884.87,1560.53 
  1885.8,1540.56 1886.74,1519.47 1887.67,1497.34 1888.6,1474.24 1889.53,1450.28 1890.47,1425.57 1891.4,1400.26 1892.33,1374.49 1893.26,1348.42 1894.2,1322.24 
  1895.13,1296.12 1896.06,1270.25 1896.99,1244.81 1897.93,1219.98 1898.86,1195.94 1899.79,1172.86 1900.72,1150.88 1901.66,1130.12 1902.59,1110.71 1903.52,1092.71 
  1904.45,1076.17 1905.39,1061.12 1906.32,1047.53 1907.25,1035.35 1908.18,1024.51 1909.12,1014.88 1910.05,1006.3 1910.98,998.586 1911.91,991.532 1912.85,984.898 
  1913.78,978.427 1914.71,971.847 1915.64,964.879 1916.58,957.239 1917.51,948.65 1918.44,938.844 1919.37,927.569 1920.31,914.598 1921.24,899.732 1922.17,882.808 
  1923.1,863.702 1924.04,842.334 1924.97,818.668 1925.9,792.719 1926.83,764.55 1927.77,734.274 1928.7,702.052 1929.63,668.087 1930.56,632.627 1931.5,595.956 
  1932.43,558.389 1933.36,520.267 1934.29,481.95 1935.23,443.808 1936.16,406.216 1937.09,369.545 1938.02,334.154 1938.96,300.383 1939.89,268.55 1940.82,238.937 
  1941.75,211.791 1942.69,187.319 1943.62,165.68 1944.55,146.987 1945.48,131.303 1946.42,118.642 1947.35,108.971 1948.28,102.208 1949.21,98.2292 1950.15,96.8724 
  1951.08,97.941 1952.01,101.211 1952.94,106.436 1953.88,113.357 1954.81,121.708 1955.74,131.225 1956.67,141.65 1957.61,152.745 1958.54,164.29 1959.47,176.099 
  1960.4,188.017 1961.34,199.928 1962.27,211.759 1963.2,223.479 1964.13,235.103 1965.07,246.688 1966,258.332 1966.93,270.172 1967.86,282.378 1968.8,295.146 
  1969.73,308.694 1970.66,323.251 1971.59,339.054 1972.53,356.336 1973.46,375.32 1974.39,396.209 1975.32,419.181 1976.26,444.382 1977.19,471.921 1978.12,501.863 
  1979.05,534.23 1979.99,568.997 1980.92,606.09 1981.85,645.391 1982.78,686.737 1983.72,729.925 1984.65,774.717 1985.58,820.843 1986.51,868.011 1987.45,915.909 
  1988.38,964.218 1989.31,1012.61 1990.24,1060.77 1991.18,1108.38 1992.11,1155.14 1993.04,1200.78 1993.97,1245.04 1994.91,1287.7 1995.84,1328.58 1996.77,1367.49 
  1997.7,1404.33 1998.64,1439 1999.57,1471.42 2000.5,1501.58 2001.43,1529.48 2002.37,1555.13 2003.3,1578.58 2004.23,1599.91 2005.16,1619.19 2006.1,1636.54 
  2007.03,1652.06 2007.96,1665.86 2008.89,1678.07 2009.83,1688.82 2010.76,1698.23 2011.69,1706.43 2012.62,1713.53 2013.56,1719.65 2014.49,1724.89 2015.42,1729.36 
  2016.35,1733.16 2017.29,1736.36 2018.22,1739.05 2019.15,1741.3 2020.08,1743.17 2021.02,1744.71 2021.95,1745.98 2022.88,1747.02 2023.81,1747.87 2024.75,1748.55 
  2025.68,1749.1 2026.61,1749.54 2027.54,1749.9 2028.48,1750.17 2029.41,1750.39 2030.34,1750.56 2031.27,1750.68 2032.21,1750.78 2033.14,1750.84 2034.07,1750.88 
  
  "/>
<polyline clip-path="url(#clip172)" style="stroke:#ff0000; stroke-linecap:butt; stroke-linejoin:round; stroke-width:4; stroke-opacity:1; fill:none" points="
  229.388,1751.15 241.153,1751.15 252.917,1751.14 264.682,1751.14 276.446,1751.13 288.211,1751.12 299.975,1751.1 311.74,1751.08 323.504,1751.06 335.269,1751.03 
  347.033,1751 358.798,1750.95 370.562,1750.9 382.327,1750.84 394.091,1750.76 405.856,1750.67 417.62,1750.56 429.385,1750.42 441.149,1750.27 452.914,1750.08 
  464.678,1749.86 476.442,1749.6 488.207,1749.31 499.971,1748.96 511.736,1748.55 523.5,1748.09 535.265,1747.55 547.029,1746.95 558.794,1746.25 570.558,1745.47 
  582.323,1744.58 594.087,1743.59 605.852,1742.48 617.616,1741.25 629.381,1739.88 641.145,1738.37 652.91,1736.72 664.674,1734.91 676.439,1732.95 688.203,1730.82 
  699.968,1728.53 711.732,1726.08 723.497,1723.45 735.261,1720.67 747.026,1717.72 758.79,1714.62 770.555,1711.38 782.319,1707.99 794.084,1704.49 805.848,1700.87 
  817.613,1697.15 829.377,1693.36 841.142,1689.5 852.906,1685.61 864.671,1681.69 876.435,1677.78 888.2,1673.89 899.964,1670.05 911.729,1666.27 923.493,1662.59 
  935.258,1659.02 947.022,1655.59 958.787,1652.31 970.551,1649.19 982.316,1646.27 994.08,1643.55 1005.84,1641.04 1017.61,1638.75 1029.37,1636.7 1041.14,1634.89 
  1052.9,1633.33 1064.67,1632.01 1076.43,1630.93 1088.2,1630.1 1099.96,1629.52 1111.73,1629.16 1123.49,1629.04 1135.25,1629.14 1147.02,1629.44 1158.78,1629.95 
  1170.55,1630.64 1182.31,1631.51 1194.08,1632.53 1205.84,1633.7 1217.61,1634.99 1229.37,1636.4 1241.13,1637.9 1252.9,1639.47 1264.66,1641.11 1276.43,1642.77 
  1288.19,1644.46 1299.96,1646.14 1311.72,1647.8 1323.49,1649.43 1335.25,1650.99 1347.01,1652.48 1358.78,1653.87 1370.54,1655.16 1382.31,1656.32 1394.07,1657.34 
  1405.84,1658.22 1417.6,1658.94 1429.37,1659.5 1441.13,1659.89 1452.9,1660.12 1464.66,1660.19 1476.42,1660.09 1488.19,1659.84 1499.95,1659.46 1511.72,1658.94 
  1523.48,1658.32 1535.25,1657.6 1547.01,1656.81 1558.78,1655.97 1570.54,1655.11 1582.3,1654.25 1594.07,1653.41 1605.83,1652.62 1617.6,1651.9 1629.36,1651.29 
  1641.13,1650.8 1652.89,1650.46 1664.66,1650.29 1676.42,1650.3 1688.19,1650.51 1699.95,1650.94 1711.71,1651.58 1723.48,1652.46 1735.24,1653.58 1747.01,1654.92 
  1758.77,1656.51 1770.54,1658.31 1782.3,1660.34 1794.07,1662.58 1805.83,1665.01 1817.59,1667.62 1829.36,1670.39 1841.12,1673.31 1852.89,1676.35 1864.65,1679.49 
  1876.42,1682.72 1888.18,1686.01 1899.95,1689.33 1911.71,1692.67 1923.47,1696.01 1935.24,1699.32 1947,1702.6 1958.77,1705.81 1970.53,1708.95 1982.3,1712.01 
  1994.06,1714.96 2005.83,1717.8 2017.59,1720.52 2029.36,1723.12 2041.12,1725.58 2052.88,1727.9 2064.65,1730.09 2076.41,1732.13 2088.18,1734.04 2099.94,1735.81 
  2111.71,1737.44 2123.47,1738.94 2135.24,1740.32 2147,1741.57 2158.76,1742.71 2170.53,1743.74 2182.29,1744.67 2194.06,1745.5 2205.82,1746.25 2217.59,1746.91 
  2229.35,1747.49 2241.12,1748.01 2252.88,1748.47 2264.65,1748.86 2276.41,1749.21 2288.17,1749.51 2299.94,1749.77 2311.7,1749.99 2323.47,1750.18 2335.23,1750.35 
  2347,1750.49 2358.76,1750.6 2370.53,1750.7 2382.29,1750.79 2394.05,1750.86 2405.82,1750.92 2417.58,1750.96 2429.35,1751 2441.11,1751.04 2452.88,1751.06 
  2464.64,1751.08 2476.41,1751.1 2488.17,1751.12 2499.93,1751.13 2511.7,1751.14 2523.46,1751.14 2535.23,1751.15 2546.99,1751.15 2558.76,1751.15 2570.52,1751.15 
  
  "/>
<path clip-path="url(#clip170)" d="
M2259.11 261.215 L2558.04 261.215 L2558.04 105.695 L2259.11 105.695  Z
  " fill="#ffffff" fill-rule="evenodd" fill-opacity="1"/>
<polyline clip-path="url(#clip170)" style="stroke:#000000; stroke-linecap:butt; stroke-linejoin:round; stroke-width:4; stroke-opacity:1; fill:none" points="
  2259.11,261.215 2558.04,261.215 2558.04,105.695 2259.11,105.695 2259.11,261.215 
  "/>
<polyline clip-path="url(#clip170)" style="stroke:#000000; stroke-linecap:butt; stroke-linejoin:round; stroke-width:4; stroke-opacity:1; fill:none" points="
  2286.68,157.535 2452.12,157.535 
  "/>
<path clip-path="url(#clip170)" d="M2498.47 161.876 Q2498.47 157.176 2496.52 154.514 Q2494.6 151.829 2491.22 151.829 Q2487.84 151.829 2485.9 154.514 Q2483.98 157.176 2483.98 161.876 Q2483.98 166.575 2485.9 169.26 Q2487.84 171.922 2491.22 171.922 Q2494.6 171.922 2496.52 169.26 Q2498.47 166.575 2498.47 161.876 M2483.98 152.825 Q2485.32 150.51 2487.36 149.399 Q2489.42 148.264 2492.26 148.264 Q2496.99 148.264 2499.93 152.014 Q2502.89 155.764 2502.89 161.876 Q2502.89 167.987 2499.93 171.737 Q2496.99 175.487 2492.26 175.487 Q2489.42 175.487 2487.36 174.375 Q2485.32 173.241 2483.98 170.926 L2483.98 174.815 L2479.69 174.815 L2479.69 138.797 L2483.98 138.797 L2483.98 152.825 Z" fill="#000000" fill-rule="evenodd" fill-opacity="1" /><polyline clip-path="url(#clip170)" style="stroke:#ff0000; stroke-linecap:butt; stroke-linejoin:round; stroke-width:4; stroke-opacity:1; fill:none" points="
  2286.68,209.375 2452.12,209.375 
  "/>
<path clip-path="url(#clip170)" d="M2500.2 201.725 L2500.2 205.706 Q2498.4 204.711 2496.57 204.225 Q2494.76 203.716 2492.91 203.716 Q2488.77 203.716 2486.48 206.354 Q2484.19 208.97 2484.19 213.716 Q2484.19 218.461 2486.48 221.1 Q2488.77 223.715 2492.91 223.715 Q2494.76 223.715 2496.57 223.229 Q2498.4 222.72 2500.2 221.725 L2500.2 225.66 Q2498.42 226.493 2496.5 226.91 Q2494.6 227.327 2492.45 227.327 Q2486.59 227.327 2483.14 223.646 Q2479.69 219.965 2479.69 213.716 Q2479.69 207.373 2483.17 203.739 Q2486.66 200.104 2492.73 200.104 Q2494.69 200.104 2496.57 200.521 Q2498.44 200.915 2500.2 201.725 Z" fill="#000000" fill-rule="evenodd" fill-opacity="1" /></svg>
