<?xml version="1.0" encoding="utf-8"?>
<svg xmlns="http://www.w3.org/2000/svg" xmlns:xlink="http://www.w3.org/1999/xlink" width="672" height="480" viewBox="0 0 2688 1920">
<defs>
  <clipPath id="clip850">
    <rect x="0" y="0" width="2688" height="1920"/>
  </clipPath>
</defs>
<path clip-path="url(#clip850)" d="
M0 1920 L2688 1920 L2688 0 L0 0  Z
  " fill="#ffffff" fill-rule="evenodd" fill-opacity="1"/>
<defs>
  <clipPath id="clip851">
    <rect x="537" y="0" width="1883" height="1883"/>
  </clipPath>
</defs>
<path clip-path="url(#clip850)" d="
M159.478 1800.78 L2640.76 1800.78 L2640.76 47.2441 L159.478 47.2441  Z
  " fill="#ffffff" fill-rule="evenodd" fill-opacity="1"/>
<defs>
  <clipPath id="clip852">
    <rect x="159" y="47" width="2482" height="1755"/>
  </clipPath>
</defs>
<polyline clip-path="url(#clip852)" style="stroke:#000000; stroke-linecap:butt; stroke-linejoin:round; stroke-width:2; stroke-opacity:0.1; fill:none" points="
  489.795,1800.78 489.795,47.2441 
  "/>
<polyline clip-path="url(#clip852)" style="stroke:#000000; stroke-linecap:butt; stroke-linejoin:round; stroke-width:2; stroke-opacity:0.1; fill:none" points="
  1009.98,1800.78 1009.98,47.2441 
  "/>
<polyline clip-path="url(#clip852)" style="stroke:#000000; stroke-linecap:butt; stroke-linejoin:round; stroke-width:2; stroke-opacity:0.1; fill:none" points="
  1530.16,1800.78 1530.16,47.2441 
  "/>
<polyline clip-path="url(#clip852)" style="stroke:#000000; stroke-linecap:butt; stroke-linejoin:round; stroke-width:2; stroke-opacity:0.1; fill:none" points="
  2050.35,1800.78 2050.35,47.2441 
  "/>
<polyline clip-path="url(#clip852)" style="stroke:#000000; stroke-linecap:butt; stroke-linejoin:round; stroke-width:2; stroke-opacity:0.1; fill:none" points="
  2570.53,1800.78 2570.53,47.2441 
  "/>
<polyline clip-path="url(#clip850)" style="stroke:#000000; stroke-linecap:butt; stroke-linejoin:round; stroke-width:4; stroke-opacity:1; fill:none" points="
  159.478,1800.78 2640.76,1800.78 
  "/>
<polyline clip-path="url(#clip850)" style="stroke:#000000; stroke-linecap:butt; stroke-linejoin:round; stroke-width:4; stroke-opacity:1; fill:none" points="
  489.795,1800.78 489.795,1781.88 
  "/>
<polyline clip-path="url(#clip850)" style="stroke:#000000; stroke-linecap:butt; stroke-linejoin:round; stroke-width:4; stroke-opacity:1; fill:none" points="
  1009.98,1800.78 1009.98,1781.88 
  "/>
<polyline clip-path="url(#clip850)" style="stroke:#000000; stroke-linecap:butt; stroke-linejoin:round; stroke-width:4; stroke-opacity:1; fill:none" points="
  1530.16,1800.78 1530.16,1781.88 
  "/>
<polyline clip-path="url(#clip850)" style="stroke:#000000; stroke-linecap:butt; stroke-linejoin:round; stroke-width:4; stroke-opacity:1; fill:none" points="
  2050.35,1800.78 2050.35,1781.88 
  "/>
<polyline clip-path="url(#clip850)" style="stroke:#000000; stroke-linecap:butt; stroke-linejoin:round; stroke-width:4; stroke-opacity:1; fill:none" points="
  2570.53,1800.78 2570.53,1781.88 
  "/>
<path clip-path="url(#clip850)" d="M484.448 1861.55 L500.767 1861.55 L500.767 1865.48 L478.823 1865.48 L478.823 1861.55 Q481.485 1858.79 486.068 1854.16 Q490.675 1849.51 491.855 1848.17 Q494.101 1845.65 494.98 1843.91 Q495.883 1842.15 495.883 1840.46 Q495.883 1837.71 493.939 1835.97 Q492.017 1834.23 488.915 1834.23 Q486.716 1834.23 484.263 1835 Q481.832 1835.76 479.054 1837.31 L479.054 1832.59 Q481.878 1831.46 484.332 1830.88 Q486.786 1830.3 488.823 1830.3 Q494.193 1830.3 497.388 1832.98 Q500.582 1835.67 500.582 1840.16 Q500.582 1842.29 499.772 1844.21 Q498.985 1846.11 496.878 1848.7 Q496.3 1849.37 493.198 1852.59 Q490.096 1855.78 484.448 1861.55 Z" fill="#000000" fill-rule="evenodd" fill-opacity="1" /><path clip-path="url(#clip850)" d="M1012.99 1835 L1001.18 1853.45 L1012.99 1853.45 L1012.99 1835 M1011.76 1830.92 L1017.64 1830.92 L1017.64 1853.45 L1022.57 1853.45 L1022.57 1857.34 L1017.64 1857.34 L1017.64 1865.48 L1012.99 1865.48 L1012.99 1857.34 L997.387 1857.34 L997.387 1852.82 L1011.76 1830.92 Z" fill="#000000" fill-rule="evenodd" fill-opacity="1" /><path clip-path="url(#clip850)" d="M1530.57 1846.34 Q1527.42 1846.34 1525.57 1848.49 Q1523.74 1850.65 1523.74 1854.4 Q1523.74 1858.12 1525.57 1860.3 Q1527.42 1862.45 1530.57 1862.45 Q1533.72 1862.45 1535.54 1860.3 Q1537.4 1858.12 1537.4 1854.4 Q1537.4 1850.65 1535.54 1848.49 Q1533.72 1846.34 1530.57 1846.34 M1539.85 1831.69 L1539.85 1835.95 Q1538.09 1835.11 1536.29 1834.67 Q1534.5 1834.23 1532.74 1834.23 Q1528.11 1834.23 1525.66 1837.36 Q1523.23 1840.48 1522.88 1846.8 Q1524.25 1844.79 1526.31 1843.72 Q1528.37 1842.64 1530.85 1842.64 Q1536.05 1842.64 1539.06 1845.81 Q1542.1 1848.96 1542.1 1854.4 Q1542.1 1859.72 1538.95 1862.94 Q1535.8 1866.15 1530.57 1866.15 Q1524.57 1866.15 1521.4 1861.57 Q1518.23 1856.96 1518.23 1848.24 Q1518.23 1840.04 1522.12 1835.18 Q1526.01 1830.3 1532.56 1830.3 Q1534.32 1830.3 1536.1 1830.65 Q1537.91 1830.99 1539.85 1831.69 Z" fill="#000000" fill-rule="evenodd" fill-opacity="1" /><path clip-path="url(#clip850)" d="M2050.35 1849.07 Q2047.01 1849.07 2045.09 1850.85 Q2043.19 1852.64 2043.19 1855.76 Q2043.19 1858.89 2045.09 1860.67 Q2047.01 1862.45 2050.35 1862.45 Q2053.68 1862.45 2055.6 1860.67 Q2057.52 1858.86 2057.52 1855.76 Q2057.52 1852.64 2055.6 1850.85 Q2053.7 1849.07 2050.35 1849.07 M2045.67 1847.08 Q2042.66 1846.34 2040.97 1844.28 Q2039.31 1842.22 2039.31 1839.26 Q2039.31 1835.11 2042.25 1832.71 Q2045.21 1830.3 2050.35 1830.3 Q2055.51 1830.3 2058.45 1832.71 Q2061.39 1835.11 2061.39 1839.26 Q2061.39 1842.22 2059.7 1844.28 Q2058.03 1846.34 2055.05 1847.08 Q2058.43 1847.87 2060.3 1850.16 Q2062.2 1852.45 2062.2 1855.76 Q2062.2 1860.78 2059.12 1863.47 Q2056.06 1866.15 2050.35 1866.15 Q2044.63 1866.15 2041.55 1863.47 Q2038.5 1860.78 2038.5 1855.76 Q2038.5 1852.45 2040.39 1850.16 Q2042.29 1847.87 2045.67 1847.08 M2043.96 1839.7 Q2043.96 1842.38 2045.62 1843.89 Q2047.31 1845.39 2050.35 1845.39 Q2053.36 1845.39 2055.05 1843.89 Q2056.76 1842.38 2056.76 1839.7 Q2056.76 1837.01 2055.05 1835.51 Q2053.36 1834 2050.35 1834 Q2047.31 1834 2045.62 1835.51 Q2043.96 1837.01 2043.96 1839.7 Z" fill="#000000" fill-rule="evenodd" fill-opacity="1" /><path clip-path="url(#clip850)" d="M2545.22 1861.55 L2552.86 1861.55 L2552.86 1835.18 L2544.55 1836.85 L2544.55 1832.59 L2552.81 1830.92 L2557.49 1830.92 L2557.49 1861.55 L2565.13 1861.55 L2565.13 1865.48 L2545.22 1865.48 L2545.22 1861.55 Z" fill="#000000" fill-rule="evenodd" fill-opacity="1" /><path clip-path="url(#clip850)" d="M2584.57 1834 Q2580.96 1834 2579.13 1837.57 Q2577.33 1841.11 2577.33 1848.24 Q2577.33 1855.34 2579.13 1858.91 Q2580.96 1862.45 2584.57 1862.45 Q2588.2 1862.45 2590.01 1858.91 Q2591.84 1855.34 2591.84 1848.24 Q2591.84 1841.11 2590.01 1837.57 Q2588.2 1834 2584.57 1834 M2584.57 1830.3 Q2590.38 1830.3 2593.44 1834.9 Q2596.51 1839.49 2596.51 1848.24 Q2596.51 1856.96 2593.44 1861.57 Q2590.38 1866.15 2584.57 1866.15 Q2578.76 1866.15 2575.68 1861.57 Q2572.63 1856.96 2572.63 1848.24 Q2572.63 1839.49 2575.68 1834.9 Q2578.76 1830.3 2584.57 1830.3 Z" fill="#000000" fill-rule="evenodd" fill-opacity="1" /><polyline clip-path="url(#clip852)" style="stroke:#000000; stroke-linecap:butt; stroke-linejoin:round; stroke-width:2; stroke-opacity:0.1; fill:none" points="
  159.478,1625.74 2640.76,1625.74 
  "/>
<polyline clip-path="url(#clip852)" style="stroke:#000000; stroke-linecap:butt; stroke-linejoin:round; stroke-width:2; stroke-opacity:0.1; fill:none" points="
  159.478,1353.38 2640.76,1353.38 
  "/>
<polyline clip-path="url(#clip852)" style="stroke:#000000; stroke-linecap:butt; stroke-linejoin:round; stroke-width:2; stroke-opacity:0.1; fill:none" points="
  159.478,1081.02 2640.76,1081.02 
  "/>
<polyline clip-path="url(#clip852)" style="stroke:#000000; stroke-linecap:butt; stroke-linejoin:round; stroke-width:2; stroke-opacity:0.1; fill:none" points="
  159.478,808.663 2640.76,808.663 
  "/>
<polyline clip-path="url(#clip852)" style="stroke:#000000; stroke-linecap:butt; stroke-linejoin:round; stroke-width:2; stroke-opacity:0.1; fill:none" points="
  159.478,536.306 2640.76,536.306 
  "/>
<polyline clip-path="url(#clip852)" style="stroke:#000000; stroke-linecap:butt; stroke-linejoin:round; stroke-width:2; stroke-opacity:0.1; fill:none" points="
  159.478,263.948 2640.76,263.948 
  "/>
<polyline clip-path="url(#clip850)" style="stroke:#000000; stroke-linecap:butt; stroke-linejoin:round; stroke-width:4; stroke-opacity:1; fill:none" points="
  159.478,1800.78 159.478,47.2441 
  "/>
<polyline clip-path="url(#clip850)" style="stroke:#000000; stroke-linecap:butt; stroke-linejoin:round; stroke-width:4; stroke-opacity:1; fill:none" points="
  159.478,1625.74 178.376,1625.74 
  "/>
<polyline clip-path="url(#clip850)" style="stroke:#000000; stroke-linecap:butt; stroke-linejoin:round; stroke-width:4; stroke-opacity:1; fill:none" points="
  159.478,1353.38 178.376,1353.38 
  "/>
<polyline clip-path="url(#clip850)" style="stroke:#000000; stroke-linecap:butt; stroke-linejoin:round; stroke-width:4; stroke-opacity:1; fill:none" points="
  159.478,1081.02 178.376,1081.02 
  "/>
<polyline clip-path="url(#clip850)" style="stroke:#000000; stroke-linecap:butt; stroke-linejoin:round; stroke-width:4; stroke-opacity:1; fill:none" points="
  159.478,808.663 178.376,808.663 
  "/>
<polyline clip-path="url(#clip850)" style="stroke:#000000; stroke-linecap:butt; stroke-linejoin:round; stroke-width:4; stroke-opacity:1; fill:none" points="
  159.478,536.306 178.376,536.306 
  "/>
<polyline clip-path="url(#clip850)" style="stroke:#000000; stroke-linecap:butt; stroke-linejoin:round; stroke-width:4; stroke-opacity:1; fill:none" points="
  159.478,263.948 178.376,263.948 
  "/>
<path clip-path="url(#clip850)" d="M63.5798 1611.53 Q59.9687 1611.53 58.14 1615.1 Q56.3345 1618.64 56.3345 1625.77 Q56.3345 1632.88 58.14 1636.44 Q59.9687 1639.98 63.5798 1639.98 Q67.2141 1639.98 69.0196 1636.44 Q70.8483 1632.88 70.8483 1625.77 Q70.8483 1618.64 69.0196 1615.1 Q67.2141 1611.53 63.5798 1611.53 M63.5798 1607.83 Q69.39 1607.83 72.4455 1612.44 Q75.5242 1617.02 75.5242 1625.77 Q75.5242 1634.5 72.4455 1639.1 Q69.39 1643.69 63.5798 1643.69 Q57.7697 1643.69 54.691 1639.1 Q51.6354 1634.5 51.6354 1625.77 Q51.6354 1617.02 54.691 1612.44 Q57.7697 1607.83 63.5798 1607.83 Z" fill="#000000" fill-rule="evenodd" fill-opacity="1" /><path clip-path="url(#clip850)" d="M83.7418 1637.14 L88.626 1637.14 L88.626 1643.02 L83.7418 1643.02 L83.7418 1637.14 Z" fill="#000000" fill-rule="evenodd" fill-opacity="1" /><path clip-path="url(#clip850)" d="M102.839 1639.08 L119.158 1639.08 L119.158 1643.02 L97.2139 1643.02 L97.2139 1639.08 Q99.8759 1636.33 104.459 1631.7 Q109.066 1627.04 110.246 1625.7 Q112.492 1623.18 113.371 1621.44 Q114.274 1619.68 114.274 1617.99 Q114.274 1615.24 112.33 1613.5 Q110.408 1611.77 107.306 1611.77 Q105.107 1611.77 102.654 1612.53 Q100.223 1613.29 97.4454 1614.85 L97.4454 1610.12 Q100.269 1608.99 102.723 1608.41 Q105.177 1607.83 107.214 1607.83 Q112.584 1607.83 115.779 1610.52 Q118.973 1613.2 118.973 1617.69 Q118.973 1619.82 118.163 1621.74 Q117.376 1623.64 115.269 1626.23 Q114.691 1626.91 111.589 1630.12 Q108.487 1633.32 102.839 1639.08 Z" fill="#000000" fill-rule="evenodd" fill-opacity="1" /><path clip-path="url(#clip850)" d="M62.6308 1339.18 Q59.0197 1339.18 57.191 1342.74 Q55.3854 1346.28 55.3854 1353.41 Q55.3854 1360.52 57.191 1364.08 Q59.0197 1367.63 62.6308 1367.63 Q66.265 1367.63 68.0705 1364.08 Q69.8992 1360.52 69.8992 1353.41 Q69.8992 1346.28 68.0705 1342.74 Q66.265 1339.18 62.6308 1339.18 M62.6308 1335.47 Q68.4409 1335.47 71.4965 1340.08 Q74.5751 1344.66 74.5751 1353.41 Q74.5751 1362.14 71.4965 1366.75 Q68.4409 1371.33 62.6308 1371.33 Q56.8206 1371.33 53.7419 1366.75 Q50.6864 1362.14 50.6864 1353.41 Q50.6864 1344.66 53.7419 1340.08 Q56.8206 1335.47 62.6308 1335.47 Z" fill="#000000" fill-rule="evenodd" fill-opacity="1" /><path clip-path="url(#clip850)" d="M82.7927 1364.78 L87.6769 1364.78 L87.6769 1370.66 L82.7927 1370.66 L82.7927 1364.78 Z" fill="#000000" fill-rule="evenodd" fill-opacity="1" /><path clip-path="url(#clip850)" d="M112.029 1352.02 Q115.385 1352.74 117.26 1355.01 Q119.158 1357.28 119.158 1360.61 Q119.158 1365.73 115.64 1368.53 Q112.121 1371.33 105.64 1371.33 Q103.464 1371.33 101.149 1370.89 Q98.8574 1370.47 96.4037 1369.62 L96.4037 1365.1 Q98.3482 1366.24 100.663 1366.82 Q102.978 1367.39 105.501 1367.39 Q109.899 1367.39 112.191 1365.66 Q114.505 1363.92 114.505 1360.61 Q114.505 1357.56 112.353 1355.84 Q110.223 1354.11 106.404 1354.11 L102.376 1354.11 L102.376 1350.27 L106.589 1350.27 Q110.038 1350.27 111.867 1348.9 Q113.695 1347.51 113.695 1344.92 Q113.695 1342.26 111.797 1340.84 Q109.922 1339.41 106.404 1339.41 Q104.482 1339.41 102.283 1339.83 Q100.084 1340.24 97.4454 1341.12 L97.4454 1336.96 Q100.107 1336.21 102.422 1335.84 Q104.76 1335.47 106.82 1335.47 Q112.144 1335.47 115.246 1337.9 Q118.348 1340.31 118.348 1344.43 Q118.348 1347.3 116.705 1349.29 Q115.061 1351.26 112.029 1352.02 Z" fill="#000000" fill-rule="evenodd" fill-opacity="1" /><path clip-path="url(#clip850)" d="M61.4965 1066.82 Q57.8854 1066.82 56.0567 1070.38 Q54.2512 1073.93 54.2512 1081.06 Q54.2512 1088.16 56.0567 1091.73 Q57.8854 1095.27 61.4965 1095.27 Q65.1307 1095.27 66.9363 1091.73 Q68.765 1088.16 68.765 1081.06 Q68.765 1073.93 66.9363 1070.38 Q65.1307 1066.82 61.4965 1066.82 M61.4965 1063.12 Q67.3067 1063.12 70.3622 1067.72 Q73.4409 1072.31 73.4409 1081.06 Q73.4409 1089.78 70.3622 1094.39 Q67.3067 1098.97 61.4965 1098.97 Q55.6864 1098.97 52.6077 1094.39 Q49.5521 1089.78 49.5521 1081.06 Q49.5521 1072.31 52.6077 1067.72 Q55.6864 1063.12 61.4965 1063.12 Z" fill="#000000" fill-rule="evenodd" fill-opacity="1" /><path clip-path="url(#clip850)" d="M81.6584 1092.42 L86.5427 1092.42 L86.5427 1098.3 L81.6584 1098.3 L81.6584 1092.42 Z" fill="#000000" fill-rule="evenodd" fill-opacity="1" /><path clip-path="url(#clip850)" d="M109.575 1067.81 L97.7695 1086.26 L109.575 1086.26 L109.575 1067.81 M108.348 1063.74 L114.228 1063.74 L114.228 1086.26 L119.158 1086.26 L119.158 1090.15 L114.228 1090.15 L114.228 1098.3 L109.575 1098.3 L109.575 1090.15 L93.9732 1090.15 L93.9732 1085.64 L108.348 1063.74 Z" fill="#000000" fill-rule="evenodd" fill-opacity="1" /><path clip-path="url(#clip850)" d="M62.978 794.462 Q59.3669 794.462 57.5382 798.027 Q55.7326 801.568 55.7326 808.698 Q55.7326 815.805 57.5382 819.369 Q59.3669 822.911 62.978 822.911 Q66.6122 822.911 68.4178 819.369 Q70.2465 815.805 70.2465 808.698 Q70.2465 801.568 68.4178 798.027 Q66.6122 794.462 62.978 794.462 M62.978 790.758 Q68.7881 790.758 71.8437 795.365 Q74.9224 799.948 74.9224 808.698 Q74.9224 817.425 71.8437 822.031 Q68.7881 826.615 62.978 826.615 Q57.1678 826.615 54.0891 822.031 Q51.0336 817.425 51.0336 808.698 Q51.0336 799.948 54.0891 795.365 Q57.1678 790.758 62.978 790.758 Z" fill="#000000" fill-rule="evenodd" fill-opacity="1" /><path clip-path="url(#clip850)" d="M83.1399 820.064 L88.0241 820.064 L88.0241 825.943 L83.1399 825.943 L83.1399 820.064 Z" fill="#000000" fill-rule="evenodd" fill-opacity="1" /><path clip-path="url(#clip850)" d="M98.2556 791.383 L116.612 791.383 L116.612 795.319 L102.538 795.319 L102.538 803.791 Q103.556 803.443 104.575 803.281 Q105.593 803.096 106.612 803.096 Q112.399 803.096 115.779 806.268 Q119.158 809.439 119.158 814.855 Q119.158 820.434 115.686 823.536 Q112.214 826.615 105.894 826.615 Q103.719 826.615 101.45 826.244 Q99.2046 825.874 96.7972 825.133 L96.7972 820.434 Q98.8806 821.568 101.103 822.124 Q103.325 822.679 105.802 822.679 Q109.806 822.679 112.144 820.573 Q114.482 818.467 114.482 814.855 Q114.482 811.244 112.144 809.138 Q109.806 807.031 105.802 807.031 Q103.927 807.031 102.052 807.448 Q100.2 807.865 98.2556 808.744 L98.2556 791.383 Z" fill="#000000" fill-rule="evenodd" fill-opacity="1" /><path clip-path="url(#clip850)" d="M61.8206 522.104 Q58.2095 522.104 56.3808 525.669 Q54.5752 529.211 54.5752 536.34 Q54.5752 543.447 56.3808 547.012 Q58.2095 550.553 61.8206 550.553 Q65.4548 550.553 67.2604 547.012 Q69.0891 543.447 69.0891 536.34 Q69.0891 529.211 67.2604 525.669 Q65.4548 522.104 61.8206 522.104 M61.8206 518.401 Q67.6307 518.401 70.6863 523.007 Q73.765 527.591 73.765 536.34 Q73.765 545.067 70.6863 549.674 Q67.6307 554.257 61.8206 554.257 Q56.0104 554.257 52.9317 549.674 Q49.8762 545.067 49.8762 536.34 Q49.8762 527.591 52.9317 523.007 Q56.0104 518.401 61.8206 518.401 Z" fill="#000000" fill-rule="evenodd" fill-opacity="1" /><path clip-path="url(#clip850)" d="M81.9825 547.706 L86.8667 547.706 L86.8667 553.586 L81.9825 553.586 L81.9825 547.706 Z" fill="#000000" fill-rule="evenodd" fill-opacity="1" /><path clip-path="url(#clip850)" d="M107.631 534.442 Q104.482 534.442 102.631 536.595 Q100.802 538.748 100.802 542.498 Q100.802 546.225 102.631 548.401 Q104.482 550.553 107.631 550.553 Q110.779 550.553 112.607 548.401 Q114.459 546.225 114.459 542.498 Q114.459 538.748 112.607 536.595 Q110.779 534.442 107.631 534.442 M116.913 519.79 L116.913 524.049 Q115.154 523.216 113.348 522.776 Q111.566 522.336 109.806 522.336 Q105.177 522.336 102.723 525.461 Q100.293 528.586 99.9454 534.905 Q101.311 532.891 103.371 531.827 Q105.431 530.739 107.908 530.739 Q113.117 530.739 116.126 533.91 Q119.158 537.058 119.158 542.498 Q119.158 547.822 116.01 551.039 Q112.862 554.257 107.631 554.257 Q101.635 554.257 98.4639 549.674 Q95.2926 545.067 95.2926 536.34 Q95.2926 528.146 99.1815 523.285 Q103.07 518.401 109.621 518.401 Q111.38 518.401 113.163 518.748 Q114.968 519.095 116.913 519.79 Z" fill="#000000" fill-rule="evenodd" fill-opacity="1" /><path clip-path="url(#clip850)" d="M62.8854 249.747 Q59.2743 249.747 57.4456 253.312 Q55.6401 256.853 55.6401 263.983 Q55.6401 271.089 57.4456 274.654 Q59.2743 278.196 62.8854 278.196 Q66.5196 278.196 68.3252 274.654 Q70.1539 271.089 70.1539 263.983 Q70.1539 256.853 68.3252 253.312 Q66.5196 249.747 62.8854 249.747 M62.8854 246.043 Q68.6955 246.043 71.7511 250.65 Q74.8298 255.233 74.8298 263.983 Q74.8298 272.71 71.7511 277.316 Q68.6955 281.899 62.8854 281.899 Q57.0752 281.899 53.9965 277.316 Q50.941 272.71 50.941 263.983 Q50.941 255.233 53.9965 250.65 Q57.0752 246.043 62.8854 246.043 Z" fill="#000000" fill-rule="evenodd" fill-opacity="1" /><path clip-path="url(#clip850)" d="M83.0473 275.349 L87.9315 275.349 L87.9315 281.228 L83.0473 281.228 L83.0473 275.349 Z" fill="#000000" fill-rule="evenodd" fill-opacity="1" /><path clip-path="url(#clip850)" d="M96.9361 246.668 L119.158 246.668 L119.158 248.659 L106.612 281.228 L101.728 281.228 L113.533 250.603 L96.9361 250.603 L96.9361 246.668 Z" fill="#000000" fill-rule="evenodd" fill-opacity="1" /><path clip-path="url(#clip852)" d="
M229.703 96.8724 L489.795 467.594 L749.887 101.354 L1009.98 1751.15 L1270.07 454.342 L1530.16 1674.79 L1790.26 727.447 L2050.35 906.703 L2310.44 1499.37 L2570.53 1011.22 
  L2570.53 808.663 L2310.44 808.663 L2050.35 808.663 L1790.26 808.663 L1530.16 808.663 L1270.07 808.663 L1009.98 808.663 L749.887 808.663 L489.795 808.663 L229.703 808.663 
   Z
  " fill="#009af9" fill-rule="evenodd" fill-opacity="1"/>
<polyline clip-path="url(#clip852)" style="stroke:#009af9; stroke-linecap:butt; stroke-linejoin:round; stroke-width:4; stroke-opacity:1; fill:none" points="
  229.703,96.8724 489.795,467.594 749.887,101.354 1009.98,1751.15 1270.07,454.342 1530.16,1674.79 1790.26,727.447 2050.35,906.703 2310.44,1499.37 2570.53,1011.22 
  
  "/>
<path clip-path="url(#clip850)" d="
M794.237 209.375 L1455.26 209.375 L1455.26 105.695 L794.237 105.695  Z
  " fill="#ffffff" fill-rule="evenodd" fill-opacity="1"/>
<polyline clip-path="url(#clip850)" style="stroke:#000000; stroke-linecap:butt; stroke-linejoin:round; stroke-width:4; stroke-opacity:1; fill:none" points="
  794.237,209.375 1455.26,209.375 1455.26,105.695 794.237,105.695 794.237,209.375 
  "/>
<path clip-path="url(#clip850)" d="
M821.807 178.271 L987.225 178.271 L987.225 136.799 L821.807 136.799 L821.807 178.271  Z
  " fill="#009af9" fill-rule="evenodd" fill-opacity="1"/>
<polyline clip-path="url(#clip850)" style="stroke:#009af9; stroke-linecap:butt; stroke-linejoin:round; stroke-width:4; stroke-opacity:1; fill:none" points="
  821.807,136.799 987.225,136.799 
  "/>
<path clip-path="url(#clip850)" d="M1028.2 161.783 Q1023.04 161.783 1021.05 162.963 Q1019.05 164.144 1019.05 166.991 Q1019.05 169.26 1020.54 170.602 Q1022.04 171.922 1024.61 171.922 Q1028.15 171.922 1030.28 169.422 Q1032.43 166.899 1032.43 162.732 L1032.43 161.783 L1028.2 161.783 M1036.69 160.024 L1036.69 174.815 L1032.43 174.815 L1032.43 170.88 Q1030.98 173.241 1028.8 174.375 Q1026.62 175.487 1023.48 175.487 Q1019.49 175.487 1017.13 173.264 Q1014.8 171.019 1014.8 167.269 Q1014.8 162.894 1017.71 160.672 Q1020.65 158.45 1026.46 158.45 L1032.43 158.45 L1032.43 158.033 Q1032.43 155.093 1030.49 153.496 Q1028.57 151.876 1025.07 151.876 Q1022.85 151.876 1020.74 152.408 Q1018.64 152.94 1016.69 154.005 L1016.69 150.07 Q1019.03 149.167 1021.23 148.727 Q1023.43 148.264 1025.51 148.264 Q1031.14 148.264 1033.92 151.181 Q1036.69 154.098 1036.69 160.024 Z" fill="#000000" fill-rule="evenodd" fill-opacity="1" /><path clip-path="url(#clip850)" d="M1064.08 161.876 Q1064.08 157.176 1062.13 154.514 Q1060.21 151.829 1056.83 151.829 Q1053.45 151.829 1051.51 154.514 Q1049.59 157.176 1049.59 161.876 Q1049.59 166.575 1051.51 169.26 Q1053.45 171.922 1056.83 171.922 Q1060.21 171.922 1062.13 169.26 Q1064.08 166.575 1064.08 161.876 M1049.59 152.825 Q1050.93 150.51 1052.97 149.399 Q1055.03 148.264 1057.87 148.264 Q1062.6 148.264 1065.54 152.014 Q1068.5 155.764 1068.5 161.876 Q1068.5 167.987 1065.54 171.737 Q1062.6 175.487 1057.87 175.487 Q1055.03 175.487 1052.97 174.375 Q1050.93 173.241 1049.59 170.926 L1049.59 174.815 L1045.3 174.815 L1045.3 138.797 L1049.59 138.797 L1049.59 152.825 Z" fill="#000000" fill-rule="evenodd" fill-opacity="1" /><path clip-path="url(#clip850)" d="M1085.6 151.876 Q1082.18 151.876 1080.19 154.561 Q1078.2 157.223 1078.2 161.876 Q1078.2 166.528 1080.17 169.213 Q1082.16 171.875 1085.6 171.875 Q1089.01 171.875 1091 169.19 Q1092.99 166.505 1092.99 161.876 Q1092.99 157.269 1091 154.584 Q1089.01 151.876 1085.6 151.876 M1085.6 148.264 Q1091.16 148.264 1094.33 151.876 Q1097.5 155.487 1097.5 161.876 Q1097.5 168.241 1094.33 171.875 Q1091.16 175.487 1085.6 175.487 Q1080.03 175.487 1076.85 171.875 Q1073.71 168.241 1073.71 161.876 Q1073.71 155.487 1076.85 151.876 Q1080.03 148.264 1085.6 148.264 Z" fill="#000000" fill-rule="evenodd" fill-opacity="1" /><path clip-path="url(#clip850)" d="M1101.51 148.889 L1106.02 148.889 L1114.12 170.649 L1122.23 148.889 L1126.74 148.889 L1117.02 174.815 L1111.23 174.815 L1101.51 148.889 Z" fill="#000000" fill-rule="evenodd" fill-opacity="1" /><path clip-path="url(#clip850)" d="M1154.79 160.788 L1154.79 162.871 L1135.21 162.871 Q1135.49 167.269 1137.85 169.584 Q1140.23 171.875 1144.47 171.875 Q1146.92 171.875 1149.22 171.274 Q1151.53 170.672 1153.8 169.468 L1153.8 173.496 Q1151.51 174.468 1149.1 174.977 Q1146.69 175.487 1144.22 175.487 Q1138.01 175.487 1134.38 171.875 Q1130.77 168.264 1130.77 162.107 Q1130.77 155.741 1134.19 152.014 Q1137.64 148.264 1143.47 148.264 Q1148.71 148.264 1151.74 151.644 Q1154.79 155.001 1154.79 160.788 M1150.54 159.538 Q1150.49 156.042 1148.57 153.959 Q1146.67 151.876 1143.52 151.876 Q1139.96 151.876 1137.8 153.889 Q1135.67 155.903 1135.35 159.561 L1150.54 159.538 Z" fill="#000000" fill-rule="evenodd" fill-opacity="1" /><path clip-path="url(#clip850)" d="M1169.35 140.255 L1173.29 140.255 L1161.25 179.213 L1157.32 179.213 L1169.35 140.255 Z" fill="#000000" fill-rule="evenodd" fill-opacity="1" /><path clip-path="url(#clip850)" d="M1196.37 161.876 Q1196.37 157.176 1194.42 154.514 Q1192.5 151.829 1189.12 151.829 Q1185.74 151.829 1183.8 154.514 Q1181.88 157.176 1181.88 161.876 Q1181.88 166.575 1183.8 169.26 Q1185.74 171.922 1189.12 171.922 Q1192.5 171.922 1194.42 169.26 Q1196.37 166.575 1196.37 161.876 M1181.88 152.825 Q1183.22 150.51 1185.26 149.399 Q1187.32 148.264 1190.16 148.264 Q1194.89 148.264 1197.83 152.014 Q1200.79 155.764 1200.79 161.876 Q1200.79 167.987 1197.83 171.737 Q1194.89 175.487 1190.16 175.487 Q1187.32 175.487 1185.26 174.375 Q1183.22 173.241 1181.88 170.926 L1181.88 174.815 L1177.6 174.815 L1177.6 138.797 L1181.88 138.797 L1181.88 152.825 Z" fill="#000000" fill-rule="evenodd" fill-opacity="1" /><path clip-path="url(#clip850)" d="M1230.03 160.788 L1230.03 162.871 L1210.44 162.871 Q1210.72 167.269 1213.08 169.584 Q1215.47 171.875 1219.7 171.875 Q1222.16 171.875 1224.45 171.274 Q1226.76 170.672 1229.03 169.468 L1229.03 173.496 Q1226.74 174.468 1224.33 174.977 Q1221.92 175.487 1219.45 175.487 Q1213.24 175.487 1209.61 171.875 Q1206 168.264 1206 162.107 Q1206 155.741 1209.42 152.014 Q1212.87 148.264 1218.71 148.264 Q1223.94 148.264 1226.97 151.644 Q1230.03 155.001 1230.03 160.788 M1225.77 159.538 Q1225.72 156.042 1223.8 153.959 Q1221.9 151.876 1218.75 151.876 Q1215.19 151.876 1213.03 153.889 Q1210.91 155.903 1210.58 159.561 L1225.77 159.538 Z" fill="#000000" fill-rule="evenodd" fill-opacity="1" /><path clip-path="url(#clip850)" d="M1237.02 138.797 L1241.28 138.797 L1241.28 174.815 L1237.02 174.815 L1237.02 138.797 Z" fill="#000000" fill-rule="evenodd" fill-opacity="1" /><path clip-path="url(#clip850)" d="M1260.23 151.876 Q1256.81 151.876 1254.82 154.561 Q1252.83 157.223 1252.83 161.876 Q1252.83 166.528 1254.79 169.213 Q1256.78 171.875 1260.23 171.875 Q1263.64 171.875 1265.63 169.19 Q1267.62 166.505 1267.62 161.876 Q1267.62 157.269 1265.63 154.584 Q1263.64 151.876 1260.23 151.876 M1260.23 148.264 Q1265.79 148.264 1268.96 151.876 Q1272.13 155.487 1272.13 161.876 Q1272.13 168.241 1268.96 171.875 Q1265.79 175.487 1260.23 175.487 Q1254.65 175.487 1251.48 171.875 Q1248.34 168.241 1248.34 161.876 Q1248.34 155.487 1251.48 151.876 Q1254.65 148.264 1260.23 148.264 Z" fill="#000000" fill-rule="evenodd" fill-opacity="1" /><path clip-path="url(#clip850)" d="M1276.71 148.889 L1280.97 148.889 L1286.3 169.121 L1291.6 148.889 L1296.62 148.889 L1301.95 169.121 L1307.25 148.889 L1311.51 148.889 L1304.72 174.815 L1299.7 174.815 L1294.12 153.565 L1288.52 174.815 L1283.5 174.815 L1276.71 148.889 Z" fill="#000000" fill-rule="evenodd" fill-opacity="1" /><path clip-path="url(#clip850)" d="M1334.45 170.88 L1342.08 170.88 L1342.08 144.515 L1333.77 146.181 L1333.77 141.922 L1342.04 140.255 L1346.71 140.255 L1346.71 170.88 L1354.35 170.88 L1354.35 174.815 L1334.45 174.815 L1334.45 170.88 Z" fill="#000000" fill-rule="evenodd" fill-opacity="1" /><path clip-path="url(#clip850)" d="M1370.77 140.255 L1374.7 140.255 L1362.66 179.213 L1358.73 179.213 L1370.77 140.255 Z" fill="#000000" fill-rule="evenodd" fill-opacity="1" /><path clip-path="url(#clip850)" d="M1383.8 170.88 L1400.12 170.88 L1400.12 174.815 L1378.17 174.815 L1378.17 170.88 Q1380.83 168.125 1385.42 163.496 Q1390.02 158.843 1391.21 157.501 Q1393.45 154.977 1394.33 153.241 Q1395.23 151.482 1395.23 149.792 Q1395.23 147.038 1393.29 145.302 Q1391.37 143.565 1388.27 143.565 Q1386.07 143.565 1383.61 144.329 Q1381.18 145.093 1378.4 146.644 L1378.4 141.922 Q1381.23 140.788 1383.68 140.209 Q1386.14 139.63 1388.17 139.63 Q1393.54 139.63 1396.74 142.315 Q1399.93 145.001 1399.93 149.491 Q1399.93 151.621 1399.12 153.542 Q1398.33 155.44 1396.23 158.033 Q1395.65 158.704 1392.55 161.922 Q1389.45 165.116 1383.8 170.88 Z" fill="#000000" fill-rule="evenodd" fill-opacity="1" /></svg>
