<?xml version="1.0" encoding="utf-8"?>
<svg xmlns="http://www.w3.org/2000/svg" xmlns:xlink="http://www.w3.org/1999/xlink" width="672" height="480" viewBox="0 0 2688 1920">
<defs>
  <clipPath id="clip130">
    <rect x="0" y="0" width="2688" height="1920"/>
  </clipPath>
</defs>
<path clip-path="url(#clip130)" d="
M0 1920 L2688 1920 L2688 0 L0 0  Z
  " fill="#ffffff" fill-rule="evenodd" fill-opacity="1"/>
<defs>
  <clipPath id="clip131">
    <rect x="537" y="0" width="1883" height="1883"/>
  </clipPath>
</defs>
<path clip-path="url(#clip130)" d="
M158.992 1800.78 L2640.76 1800.78 L2640.76 47.2441 L158.992 47.2441  Z
  " fill="#ffffff" fill-rule="evenodd" fill-opacity="1"/>
<defs>
  <clipPath id="clip132">
    <rect x="158" y="47" width="2483" height="1755"/>
  </clipPath>
</defs>
<polyline clip-path="url(#clip132)" style="stroke:#000000; stroke-linecap:butt; stroke-linejoin:round; stroke-width:2; stroke-opacity:0.1; fill:none" points="
  229.231,1800.78 229.231,47.2441 
  "/>
<polyline clip-path="url(#clip132)" style="stroke:#000000; stroke-linecap:butt; stroke-linejoin:round; stroke-width:2; stroke-opacity:0.1; fill:none" points="
  626.694,1800.78 626.694,47.2441 
  "/>
<polyline clip-path="url(#clip132)" style="stroke:#000000; stroke-linecap:butt; stroke-linejoin:round; stroke-width:2; stroke-opacity:0.1; fill:none" points="
  1024.16,1800.78 1024.16,47.2441 
  "/>
<polyline clip-path="url(#clip132)" style="stroke:#000000; stroke-linecap:butt; stroke-linejoin:round; stroke-width:2; stroke-opacity:0.1; fill:none" points="
  1421.62,1800.78 1421.62,47.2441 
  "/>
<polyline clip-path="url(#clip132)" style="stroke:#000000; stroke-linecap:butt; stroke-linejoin:round; stroke-width:2; stroke-opacity:0.1; fill:none" points="
  1819.08,1800.78 1819.08,47.2441 
  "/>
<polyline clip-path="url(#clip132)" style="stroke:#000000; stroke-linecap:butt; stroke-linejoin:round; stroke-width:2; stroke-opacity:0.1; fill:none" points="
  2216.54,1800.78 2216.54,47.2441 
  "/>
<polyline clip-path="url(#clip132)" style="stroke:#000000; stroke-linecap:butt; stroke-linejoin:round; stroke-width:2; stroke-opacity:0.1; fill:none" points="
  2614.01,1800.78 2614.01,47.2441 
  "/>
<polyline clip-path="url(#clip130)" style="stroke:#000000; stroke-linecap:butt; stroke-linejoin:round; stroke-width:4; stroke-opacity:1; fill:none" points="
  158.992,1800.78 2640.76,1800.78 
  "/>
<polyline clip-path="url(#clip130)" style="stroke:#000000; stroke-linecap:butt; stroke-linejoin:round; stroke-width:4; stroke-opacity:1; fill:none" points="
  229.231,1800.78 229.231,1781.88 
  "/>
<polyline clip-path="url(#clip130)" style="stroke:#000000; stroke-linecap:butt; stroke-linejoin:round; stroke-width:4; stroke-opacity:1; fill:none" points="
  626.694,1800.78 626.694,1781.88 
  "/>
<polyline clip-path="url(#clip130)" style="stroke:#000000; stroke-linecap:butt; stroke-linejoin:round; stroke-width:4; stroke-opacity:1; fill:none" points="
  1024.16,1800.78 1024.16,1781.88 
  "/>
<polyline clip-path="url(#clip130)" style="stroke:#000000; stroke-linecap:butt; stroke-linejoin:round; stroke-width:4; stroke-opacity:1; fill:none" points="
  1421.62,1800.78 1421.62,1781.88 
  "/>
<polyline clip-path="url(#clip130)" style="stroke:#000000; stroke-linecap:butt; stroke-linejoin:round; stroke-width:4; stroke-opacity:1; fill:none" points="
  1819.08,1800.78 1819.08,1781.88 
  "/>
<polyline clip-path="url(#clip130)" style="stroke:#000000; stroke-linecap:butt; stroke-linejoin:round; stroke-width:4; stroke-opacity:1; fill:none" points="
  2216.54,1800.78 2216.54,1781.88 
  "/>
<polyline clip-path="url(#clip130)" style="stroke:#000000; stroke-linecap:butt; stroke-linejoin:round; stroke-width:4; stroke-opacity:1; fill:none" points="
  2614.01,1800.78 2614.01,1781.88 
  "/>
<path clip-path="url(#clip130)" d="M229.231 1834 Q225.62 1834 223.791 1837.57 Q221.985 1841.11 221.985 1848.24 Q221.985 1855.34 223.791 1858.91 Q225.62 1862.45 229.231 1862.45 Q232.865 1862.45 234.671 1858.91 Q236.499 1855.34 236.499 1848.24 Q236.499 1841.11 234.671 1837.57 Q232.865 1834 229.231 1834 M229.231 1830.3 Q235.041 1830.3 238.096 1834.9 Q241.175 1839.49 241.175 1848.24 Q241.175 1856.96 238.096 1861.57 Q235.041 1866.15 229.231 1866.15 Q223.421 1866.15 220.342 1861.57 Q217.286 1856.96 217.286 1848.24 Q217.286 1839.49 220.342 1834.9 Q223.421 1830.3 229.231 1830.3 Z" fill="#000000" fill-rule="evenodd" fill-opacity="1" /><path clip-path="url(#clip130)" d="M586.3 1861.55 L593.939 1861.55 L593.939 1835.18 L585.629 1836.85 L585.629 1832.59 L593.893 1830.92 L598.569 1830.92 L598.569 1861.55 L606.208 1861.55 L606.208 1865.48 L586.3 1865.48 L586.3 1861.55 Z" fill="#000000" fill-rule="evenodd" fill-opacity="1" /><path clip-path="url(#clip130)" d="M625.652 1834 Q622.041 1834 620.212 1837.57 Q618.407 1841.11 618.407 1848.24 Q618.407 1855.34 620.212 1858.91 Q622.041 1862.45 625.652 1862.45 Q629.286 1862.45 631.092 1858.91 Q632.92 1855.34 632.92 1848.24 Q632.92 1841.11 631.092 1837.57 Q629.286 1834 625.652 1834 M625.652 1830.3 Q631.462 1830.3 634.518 1834.9 Q637.596 1839.49 637.596 1848.24 Q637.596 1856.96 634.518 1861.57 Q631.462 1866.15 625.652 1866.15 Q619.842 1866.15 616.763 1861.57 Q613.707 1856.96 613.707 1848.24 Q613.707 1839.49 616.763 1834.9 Q619.842 1830.3 625.652 1830.3 Z" fill="#000000" fill-rule="evenodd" fill-opacity="1" /><path clip-path="url(#clip130)" d="M655.814 1834 Q652.203 1834 650.374 1837.57 Q648.568 1841.11 648.568 1848.24 Q648.568 1855.34 650.374 1858.91 Q652.203 1862.45 655.814 1862.45 Q659.448 1862.45 661.254 1858.91 Q663.082 1855.34 663.082 1848.24 Q663.082 1841.11 661.254 1837.57 Q659.448 1834 655.814 1834 M655.814 1830.3 Q661.624 1830.3 664.679 1834.9 Q667.758 1839.49 667.758 1848.24 Q667.758 1856.96 664.679 1861.57 Q661.624 1866.15 655.814 1866.15 Q650.004 1866.15 646.925 1861.57 Q643.869 1856.96 643.869 1848.24 Q643.869 1839.49 646.925 1834.9 Q650.004 1830.3 655.814 1830.3 Z" fill="#000000" fill-rule="evenodd" fill-opacity="1" /><path clip-path="url(#clip130)" d="M987.849 1861.55 L1004.17 1861.55 L1004.17 1865.48 L982.224 1865.48 L982.224 1861.55 Q984.886 1858.79 989.469 1854.16 Q994.075 1849.51 995.256 1848.17 Q997.501 1845.65 998.381 1843.91 Q999.284 1842.15 999.284 1840.46 Q999.284 1837.71 997.339 1835.97 Q995.418 1834.23 992.316 1834.23 Q990.117 1834.23 987.663 1835 Q985.233 1835.76 982.455 1837.31 L982.455 1832.59 Q985.279 1831.46 987.733 1830.88 Q990.187 1830.3 992.224 1830.3 Q997.594 1830.3 1000.79 1832.98 Q1003.98 1835.67 1003.98 1840.16 Q1003.98 1842.29 1003.17 1844.21 Q1002.39 1846.11 1000.28 1848.7 Q999.7 1849.37 996.599 1852.59 Q993.497 1855.78 987.849 1861.55 Z" fill="#000000" fill-rule="evenodd" fill-opacity="1" /><path clip-path="url(#clip130)" d="M1023.98 1834 Q1020.37 1834 1018.54 1837.57 Q1016.74 1841.11 1016.74 1848.24 Q1016.74 1855.34 1018.54 1858.91 Q1020.37 1862.45 1023.98 1862.45 Q1027.62 1862.45 1029.42 1858.91 Q1031.25 1855.34 1031.25 1848.24 Q1031.25 1841.11 1029.42 1837.57 Q1027.62 1834 1023.98 1834 M1023.98 1830.3 Q1029.79 1830.3 1032.85 1834.9 Q1035.93 1839.49 1035.93 1848.24 Q1035.93 1856.96 1032.85 1861.57 Q1029.79 1866.15 1023.98 1866.15 Q1018.17 1866.15 1015.09 1861.57 Q1012.04 1856.96 1012.04 1848.24 Q1012.04 1839.49 1015.09 1834.9 Q1018.17 1830.3 1023.98 1830.3 Z" fill="#000000" fill-rule="evenodd" fill-opacity="1" /><path clip-path="url(#clip130)" d="M1054.14 1834 Q1050.53 1834 1048.7 1837.57 Q1046.9 1841.11 1046.9 1848.24 Q1046.9 1855.34 1048.7 1858.91 Q1050.53 1862.45 1054.14 1862.45 Q1057.78 1862.45 1059.58 1858.91 Q1061.41 1855.34 1061.41 1848.24 Q1061.41 1841.11 1059.58 1837.57 Q1057.78 1834 1054.14 1834 M1054.14 1830.3 Q1059.95 1830.3 1063.01 1834.9 Q1066.09 1839.49 1066.09 1848.24 Q1066.09 1856.96 1063.01 1861.57 Q1059.95 1866.15 1054.14 1866.15 Q1048.33 1866.15 1045.26 1861.57 Q1042.2 1856.96 1042.2 1848.24 Q1042.2 1839.49 1045.26 1834.9 Q1048.33 1830.3 1054.14 1830.3 Z" fill="#000000" fill-rule="evenodd" fill-opacity="1" /><path clip-path="url(#clip130)" d="M1395.38 1846.85 Q1398.74 1847.57 1400.61 1849.84 Q1402.51 1852.1 1402.51 1855.44 Q1402.51 1860.55 1398.99 1863.35 Q1395.47 1866.15 1388.99 1866.15 Q1386.82 1866.15 1384.5 1865.71 Q1382.21 1865.3 1379.76 1864.44 L1379.76 1859.93 Q1381.7 1861.06 1384.02 1861.64 Q1386.33 1862.22 1388.85 1862.22 Q1393.25 1862.22 1395.54 1860.48 Q1397.86 1858.75 1397.86 1855.44 Q1397.86 1852.38 1395.7 1850.67 Q1393.58 1848.93 1389.76 1848.93 L1385.73 1848.93 L1385.73 1845.09 L1389.94 1845.09 Q1393.39 1845.09 1395.22 1843.72 Q1397.05 1842.34 1397.05 1839.74 Q1397.05 1837.08 1395.15 1835.67 Q1393.27 1834.23 1389.76 1834.23 Q1387.83 1834.23 1385.64 1834.65 Q1383.44 1835.07 1380.8 1835.95 L1380.8 1831.78 Q1383.46 1831.04 1385.77 1830.67 Q1388.11 1830.3 1390.17 1830.3 Q1395.5 1830.3 1398.6 1832.73 Q1401.7 1835.14 1401.7 1839.26 Q1401.7 1842.13 1400.06 1844.12 Q1398.41 1846.09 1395.38 1846.85 Z" fill="#000000" fill-rule="evenodd" fill-opacity="1" /><path clip-path="url(#clip130)" d="M1421.38 1834 Q1417.76 1834 1415.94 1837.57 Q1414.13 1841.11 1414.13 1848.24 Q1414.13 1855.34 1415.94 1858.91 Q1417.76 1862.45 1421.38 1862.45 Q1425.01 1862.45 1426.82 1858.91 Q1428.64 1855.34 1428.64 1848.24 Q1428.64 1841.11 1426.82 1837.57 Q1425.01 1834 1421.38 1834 M1421.38 1830.3 Q1427.19 1830.3 1430.24 1834.9 Q1433.32 1839.49 1433.32 1848.24 Q1433.32 1856.96 1430.24 1861.57 Q1427.19 1866.15 1421.38 1866.15 Q1415.57 1866.15 1412.49 1861.57 Q1409.43 1856.96 1409.43 1848.24 Q1409.43 1839.49 1412.49 1834.9 Q1415.57 1830.3 1421.38 1830.3 Z" fill="#000000" fill-rule="evenodd" fill-opacity="1" /><path clip-path="url(#clip130)" d="M1451.54 1834 Q1447.93 1834 1446.1 1837.57 Q1444.29 1841.11 1444.29 1848.24 Q1444.29 1855.34 1446.1 1858.91 Q1447.93 1862.45 1451.54 1862.45 Q1455.17 1862.45 1456.98 1858.91 Q1458.81 1855.34 1458.81 1848.24 Q1458.81 1841.11 1456.98 1837.57 Q1455.17 1834 1451.54 1834 M1451.54 1830.3 Q1457.35 1830.3 1460.4 1834.9 Q1463.48 1839.49 1463.48 1848.24 Q1463.48 1856.96 1460.4 1861.57 Q1457.35 1866.15 1451.54 1866.15 Q1445.73 1866.15 1442.65 1861.57 Q1439.59 1856.96 1439.59 1848.24 Q1439.59 1839.49 1442.65 1834.9 Q1445.73 1830.3 1451.54 1830.3 Z" fill="#000000" fill-rule="evenodd" fill-opacity="1" /><path clip-path="url(#clip130)" d="M1792.17 1835 L1780.37 1853.45 L1792.17 1853.45 L1792.17 1835 M1790.95 1830.92 L1796.83 1830.92 L1796.83 1853.45 L1801.76 1853.45 L1801.76 1857.34 L1796.83 1857.34 L1796.83 1865.48 L1792.17 1865.48 L1792.17 1857.34 L1776.57 1857.34 L1776.57 1852.82 L1790.95 1830.92 Z" fill="#000000" fill-rule="evenodd" fill-opacity="1" /><path clip-path="url(#clip130)" d="M1819.49 1834 Q1815.88 1834 1814.05 1837.57 Q1812.24 1841.11 1812.24 1848.24 Q1812.24 1855.34 1814.05 1858.91 Q1815.88 1862.45 1819.49 1862.45 Q1823.12 1862.45 1824.93 1858.91 Q1826.76 1855.34 1826.76 1848.24 Q1826.76 1841.11 1824.93 1837.57 Q1823.12 1834 1819.49 1834 M1819.49 1830.3 Q1825.3 1830.3 1828.35 1834.9 Q1831.43 1839.49 1831.43 1848.24 Q1831.43 1856.96 1828.35 1861.57 Q1825.3 1866.15 1819.49 1866.15 Q1813.68 1866.15 1810.6 1861.57 Q1807.54 1856.96 1807.54 1848.24 Q1807.54 1839.49 1810.6 1834.9 Q1813.68 1830.3 1819.49 1830.3 Z" fill="#000000" fill-rule="evenodd" fill-opacity="1" /><path clip-path="url(#clip130)" d="M1849.65 1834 Q1846.04 1834 1844.21 1837.57 Q1842.4 1841.11 1842.4 1848.24 Q1842.4 1855.34 1844.21 1858.91 Q1846.04 1862.45 1849.65 1862.45 Q1853.28 1862.45 1855.09 1858.91 Q1856.92 1855.34 1856.92 1848.24 Q1856.92 1841.11 1855.09 1837.57 Q1853.28 1834 1849.65 1834 M1849.65 1830.3 Q1855.46 1830.3 1858.51 1834.9 Q1861.59 1839.49 1861.59 1848.24 Q1861.59 1856.96 1858.51 1861.57 Q1855.46 1866.15 1849.65 1866.15 Q1843.84 1866.15 1840.76 1861.57 Q1837.7 1856.96 1837.7 1848.24 Q1837.7 1839.49 1840.76 1834.9 Q1843.84 1830.3 1849.65 1830.3 Z" fill="#000000" fill-rule="evenodd" fill-opacity="1" /><path clip-path="url(#clip130)" d="M2176.16 1830.92 L2194.52 1830.92 L2194.52 1834.86 L2180.45 1834.86 L2180.45 1843.33 Q2181.46 1842.98 2182.48 1842.82 Q2183.5 1842.64 2184.52 1842.64 Q2190.31 1842.64 2193.69 1845.81 Q2197.07 1848.98 2197.07 1854.4 Q2197.07 1859.97 2193.59 1863.08 Q2190.12 1866.15 2183.8 1866.15 Q2181.63 1866.15 2179.36 1865.78 Q2177.11 1865.41 2174.7 1864.67 L2174.7 1859.97 Q2176.79 1861.11 2179.01 1861.66 Q2181.23 1862.22 2183.71 1862.22 Q2187.71 1862.22 2190.05 1860.11 Q2192.39 1858.01 2192.39 1854.4 Q2192.39 1850.78 2190.05 1848.68 Q2187.71 1846.57 2183.71 1846.57 Q2181.83 1846.57 2179.96 1846.99 Q2178.11 1847.4 2176.16 1848.28 L2176.16 1830.92 Z" fill="#000000" fill-rule="evenodd" fill-opacity="1" /><path clip-path="url(#clip130)" d="M2216.28 1834 Q2212.67 1834 2210.84 1837.57 Q2209.03 1841.11 2209.03 1848.24 Q2209.03 1855.34 2210.84 1858.91 Q2212.67 1862.45 2216.28 1862.45 Q2219.91 1862.45 2221.72 1858.91 Q2223.55 1855.34 2223.55 1848.24 Q2223.55 1841.11 2221.72 1837.57 Q2219.91 1834 2216.28 1834 M2216.28 1830.3 Q2222.09 1830.3 2225.14 1834.9 Q2228.22 1839.49 2228.22 1848.24 Q2228.22 1856.96 2225.14 1861.57 Q2222.09 1866.15 2216.28 1866.15 Q2210.47 1866.15 2207.39 1861.57 Q2204.33 1856.96 2204.33 1848.24 Q2204.33 1839.49 2207.39 1834.9 Q2210.47 1830.3 2216.28 1830.3 Z" fill="#000000" fill-rule="evenodd" fill-opacity="1" /><path clip-path="url(#clip130)" d="M2246.44 1834 Q2242.83 1834 2241 1837.57 Q2239.2 1841.11 2239.2 1848.24 Q2239.2 1855.34 2241 1858.91 Q2242.83 1862.45 2246.44 1862.45 Q2250.07 1862.45 2251.88 1858.91 Q2253.71 1855.34 2253.71 1848.24 Q2253.71 1841.11 2251.88 1837.57 Q2250.07 1834 2246.44 1834 M2246.44 1830.3 Q2252.25 1830.3 2255.31 1834.9 Q2258.38 1839.49 2258.38 1848.24 Q2258.38 1856.96 2255.31 1861.57 Q2252.25 1866.15 2246.44 1866.15 Q2240.63 1866.15 2237.55 1861.57 Q2234.5 1856.96 2234.5 1848.24 Q2234.5 1839.49 2237.55 1834.9 Q2240.63 1830.3 2246.44 1830.3 Z" fill="#000000" fill-rule="evenodd" fill-opacity="1" /><path clip-path="url(#clip130)" d="M2584.33 1846.34 Q2581.18 1846.34 2579.33 1848.49 Q2577.5 1850.65 2577.5 1854.4 Q2577.5 1858.12 2579.33 1860.3 Q2581.18 1862.45 2584.33 1862.45 Q2587.48 1862.45 2589.31 1860.3 Q2591.16 1858.12 2591.16 1854.4 Q2591.16 1850.65 2589.31 1848.49 Q2587.48 1846.34 2584.33 1846.34 M2593.61 1831.69 L2593.61 1835.95 Q2591.85 1835.11 2590.05 1834.67 Q2588.27 1834.23 2586.51 1834.23 Q2581.88 1834.23 2579.42 1837.36 Q2576.99 1840.48 2576.65 1846.8 Q2578.01 1844.79 2580.07 1843.72 Q2582.13 1842.64 2584.61 1842.64 Q2589.82 1842.64 2592.83 1845.81 Q2595.86 1848.96 2595.86 1854.4 Q2595.86 1859.72 2592.71 1862.94 Q2589.56 1866.15 2584.33 1866.15 Q2578.34 1866.15 2575.17 1861.57 Q2571.99 1856.96 2571.99 1848.24 Q2571.99 1840.04 2575.88 1835.18 Q2579.77 1830.3 2586.32 1830.3 Q2588.08 1830.3 2589.86 1830.65 Q2591.67 1830.99 2593.61 1831.69 Z" fill="#000000" fill-rule="evenodd" fill-opacity="1" /><path clip-path="url(#clip130)" d="M2613.91 1834 Q2610.3 1834 2608.48 1837.57 Q2606.67 1841.11 2606.67 1848.24 Q2606.67 1855.34 2608.48 1858.91 Q2610.3 1862.45 2613.91 1862.45 Q2617.55 1862.45 2619.35 1858.91 Q2621.18 1855.34 2621.18 1848.24 Q2621.18 1841.11 2619.35 1837.57 Q2617.55 1834 2613.91 1834 M2613.91 1830.3 Q2619.73 1830.3 2622.78 1834.9 Q2625.86 1839.49 2625.86 1848.24 Q2625.86 1856.96 2622.78 1861.57 Q2619.73 1866.15 2613.91 1866.15 Q2608.1 1866.15 2605.03 1861.57 Q2601.97 1856.96 2601.97 1848.24 Q2601.97 1839.49 2605.03 1834.9 Q2608.1 1830.3 2613.91 1830.3 Z" fill="#000000" fill-rule="evenodd" fill-opacity="1" /><path clip-path="url(#clip130)" d="M2644.08 1834 Q2640.47 1834 2638.64 1837.57 Q2636.83 1841.11 2636.83 1848.24 Q2636.83 1855.34 2638.64 1858.91 Q2640.47 1862.45 2644.08 1862.45 Q2647.71 1862.45 2649.52 1858.91 Q2651.35 1855.34 2651.35 1848.24 Q2651.35 1841.11 2649.52 1837.57 Q2647.71 1834 2644.08 1834 M2644.08 1830.3 Q2649.89 1830.3 2652.94 1834.9 Q2656.02 1839.49 2656.02 1848.24 Q2656.02 1856.96 2652.94 1861.57 Q2649.89 1866.15 2644.08 1866.15 Q2638.27 1866.15 2635.19 1861.57 Q2632.13 1856.96 2632.13 1848.24 Q2632.13 1839.49 2635.19 1834.9 Q2638.27 1830.3 2644.08 1830.3 Z" fill="#000000" fill-rule="evenodd" fill-opacity="1" /><polyline clip-path="url(#clip132)" style="stroke:#000000; stroke-linecap:butt; stroke-linejoin:round; stroke-width:2; stroke-opacity:0.1; fill:none" points="
  158.992,1751.15 2640.76,1751.15 
  "/>
<polyline clip-path="url(#clip132)" style="stroke:#000000; stroke-linecap:butt; stroke-linejoin:round; stroke-width:2; stroke-opacity:0.1; fill:none" points="
  158.992,1301.69 2640.76,1301.69 
  "/>
<polyline clip-path="url(#clip132)" style="stroke:#000000; stroke-linecap:butt; stroke-linejoin:round; stroke-width:2; stroke-opacity:0.1; fill:none" points="
  158.992,852.235 2640.76,852.235 
  "/>
<polyline clip-path="url(#clip132)" style="stroke:#000000; stroke-linecap:butt; stroke-linejoin:round; stroke-width:2; stroke-opacity:0.1; fill:none" points="
  158.992,402.777 2640.76,402.777 
  "/>
<polyline clip-path="url(#clip130)" style="stroke:#000000; stroke-linecap:butt; stroke-linejoin:round; stroke-width:4; stroke-opacity:1; fill:none" points="
  158.992,1800.78 158.992,47.2441 
  "/>
<polyline clip-path="url(#clip130)" style="stroke:#000000; stroke-linecap:butt; stroke-linejoin:round; stroke-width:4; stroke-opacity:1; fill:none" points="
  158.992,1751.15 177.89,1751.15 
  "/>
<polyline clip-path="url(#clip130)" style="stroke:#000000; stroke-linecap:butt; stroke-linejoin:round; stroke-width:4; stroke-opacity:1; fill:none" points="
  158.992,1301.69 177.89,1301.69 
  "/>
<polyline clip-path="url(#clip130)" style="stroke:#000000; stroke-linecap:butt; stroke-linejoin:round; stroke-width:4; stroke-opacity:1; fill:none" points="
  158.992,852.235 177.89,852.235 
  "/>
<polyline clip-path="url(#clip130)" style="stroke:#000000; stroke-linecap:butt; stroke-linejoin:round; stroke-width:4; stroke-opacity:1; fill:none" points="
  158.992,402.777 177.89,402.777 
  "/>
<path clip-path="url(#clip130)" d="M61.4965 1736.95 Q57.8854 1736.95 56.0567 1740.51 Q54.2512 1744.06 54.2512 1751.19 Q54.2512 1758.29 56.0567 1761.86 Q57.8854 1765.4 61.4965 1765.4 Q65.1307 1765.4 66.9363 1761.86 Q68.765 1758.29 68.765 1751.19 Q68.765 1744.06 66.9363 1740.51 Q65.1307 1736.95 61.4965 1736.95 M61.4965 1733.25 Q67.3067 1733.25 70.3622 1737.85 Q73.4409 1742.44 73.4409 1751.19 Q73.4409 1759.91 70.3622 1764.52 Q67.3067 1769.1 61.4965 1769.1 Q55.6864 1769.1 52.6077 1764.52 Q49.5521 1759.91 49.5521 1751.19 Q49.5521 1742.44 52.6077 1737.85 Q55.6864 1733.25 61.4965 1733.25 Z" fill="#000000" fill-rule="evenodd" fill-opacity="1" /><path clip-path="url(#clip130)" d="M81.6584 1762.55 L86.5427 1762.55 L86.5427 1768.43 L81.6584 1768.43 L81.6584 1762.55 Z" fill="#000000" fill-rule="evenodd" fill-opacity="1" /><path clip-path="url(#clip130)" d="M106.728 1736.95 Q103.117 1736.95 101.288 1740.51 Q99.4824 1744.06 99.4824 1751.19 Q99.4824 1758.29 101.288 1761.86 Q103.117 1765.4 106.728 1765.4 Q110.362 1765.4 112.168 1761.86 Q113.996 1758.29 113.996 1751.19 Q113.996 1744.06 112.168 1740.51 Q110.362 1736.95 106.728 1736.95 M106.728 1733.25 Q112.538 1733.25 115.593 1737.85 Q118.672 1742.44 118.672 1751.19 Q118.672 1759.91 115.593 1764.52 Q112.538 1769.1 106.728 1769.1 Q100.918 1769.1 97.8389 1764.52 Q94.7834 1759.91 94.7834 1751.19 Q94.7834 1742.44 97.8389 1737.85 Q100.918 1733.25 106.728 1733.25 Z" fill="#000000" fill-rule="evenodd" fill-opacity="1" /><path clip-path="url(#clip130)" d="M62.7234 1287.49 Q59.1123 1287.49 57.2836 1291.06 Q55.478 1294.6 55.478 1301.73 Q55.478 1308.83 57.2836 1312.4 Q59.1123 1315.94 62.7234 1315.94 Q66.3576 1315.94 68.1631 1312.4 Q69.9918 1308.83 69.9918 1301.73 Q69.9918 1294.6 68.1631 1291.06 Q66.3576 1287.49 62.7234 1287.49 M62.7234 1283.79 Q68.5335 1283.79 71.589 1288.39 Q74.6677 1292.98 74.6677 1301.73 Q74.6677 1310.45 71.589 1315.06 Q68.5335 1319.64 62.7234 1319.64 Q56.9132 1319.64 53.8345 1315.06 Q50.779 1310.45 50.779 1301.73 Q50.779 1292.98 53.8345 1288.39 Q56.9132 1283.79 62.7234 1283.79 Z" fill="#000000" fill-rule="evenodd" fill-opacity="1" /><path clip-path="url(#clip130)" d="M82.8853 1313.09 L87.7695 1313.09 L87.7695 1318.97 L82.8853 1318.97 L82.8853 1313.09 Z" fill="#000000" fill-rule="evenodd" fill-opacity="1" /><path clip-path="url(#clip130)" d="M98.7648 1315.04 L106.404 1315.04 L106.404 1288.67 L98.0935 1290.34 L98.0935 1286.08 L106.357 1284.41 L111.033 1284.41 L111.033 1315.04 L118.672 1315.04 L118.672 1318.97 L98.7648 1318.97 L98.7648 1315.04 Z" fill="#000000" fill-rule="evenodd" fill-opacity="1" /><path clip-path="url(#clip130)" d="M63.0937 838.034 Q59.4826 838.034 57.6539 841.598 Q55.8484 845.14 55.8484 852.27 Q55.8484 859.376 57.6539 862.941 Q59.4826 866.482 63.0937 866.482 Q66.728 866.482 68.5335 862.941 Q70.3622 859.376 70.3622 852.27 Q70.3622 845.14 68.5335 841.598 Q66.728 838.034 63.0937 838.034 M63.0937 834.33 Q68.9039 834.33 71.9594 838.936 Q75.0381 843.52 75.0381 852.27 Q75.0381 860.996 71.9594 865.603 Q68.9039 870.186 63.0937 870.186 Q57.2836 870.186 54.2049 865.603 Q51.1493 860.996 51.1493 852.27 Q51.1493 843.52 54.2049 838.936 Q57.2836 834.33 63.0937 834.33 Z" fill="#000000" fill-rule="evenodd" fill-opacity="1" /><path clip-path="url(#clip130)" d="M83.2556 863.635 L88.1399 863.635 L88.1399 869.515 L83.2556 869.515 L83.2556 863.635 Z" fill="#000000" fill-rule="evenodd" fill-opacity="1" /><path clip-path="url(#clip130)" d="M102.353 865.58 L118.672 865.58 L118.672 869.515 L96.7278 869.515 L96.7278 865.58 Q99.3898 862.825 103.973 858.195 Q108.58 853.543 109.76 852.2 Q112.005 849.677 112.885 847.941 Q113.788 846.182 113.788 844.492 Q113.788 841.737 111.843 840.001 Q109.922 838.265 106.82 838.265 Q104.621 838.265 102.168 839.029 Q99.737 839.793 96.9593 841.344 L96.9593 836.622 Q99.7833 835.487 102.237 834.909 Q104.691 834.33 106.728 834.33 Q112.098 834.33 115.293 837.015 Q118.487 839.7 118.487 844.191 Q118.487 846.321 117.677 848.242 Q116.89 850.14 114.783 852.733 Q114.205 853.404 111.103 856.621 Q108.001 859.816 102.353 865.58 Z" fill="#000000" fill-rule="evenodd" fill-opacity="1" /><path clip-path="url(#clip130)" d="M62.1447 388.576 Q58.5336 388.576 56.7049 392.14 Q54.8993 395.682 54.8993 402.812 Q54.8993 409.918 56.7049 413.483 Q58.5336 417.024 62.1447 417.024 Q65.7789 417.024 67.5844 413.483 Q69.4131 409.918 69.4131 402.812 Q69.4131 395.682 67.5844 392.14 Q65.7789 388.576 62.1447 388.576 M62.1447 384.872 Q67.9548 384.872 71.0103 389.478 Q74.089 394.062 74.089 402.812 Q74.089 411.538 71.0103 416.145 Q67.9548 420.728 62.1447 420.728 Q56.3345 420.728 53.2558 416.145 Q50.2003 411.538 50.2003 402.812 Q50.2003 394.062 53.2558 389.478 Q56.3345 384.872 62.1447 384.872 Z" fill="#000000" fill-rule="evenodd" fill-opacity="1" /><path clip-path="url(#clip130)" d="M82.3066 414.177 L87.1908 414.177 L87.1908 420.057 L82.3066 420.057 L82.3066 414.177 Z" fill="#000000" fill-rule="evenodd" fill-opacity="1" /><path clip-path="url(#clip130)" d="M111.543 401.423 Q114.899 402.14 116.774 404.409 Q118.672 406.677 118.672 410.011 Q118.672 415.126 115.154 417.927 Q111.635 420.728 105.154 420.728 Q102.978 420.728 100.663 420.288 Q98.3713 419.872 95.9176 419.015 L95.9176 414.501 Q97.8621 415.636 100.177 416.214 Q102.492 416.793 105.015 416.793 Q109.413 416.793 111.705 415.057 Q114.019 413.321 114.019 410.011 Q114.019 406.955 111.867 405.242 Q109.737 403.506 105.918 403.506 L101.89 403.506 L101.89 399.663 L106.103 399.663 Q109.552 399.663 111.38 398.298 Q113.209 396.909 113.209 394.316 Q113.209 391.654 111.311 390.242 Q109.436 388.807 105.918 388.807 Q103.996 388.807 101.797 389.224 Q99.5982 389.64 96.9593 390.52 L96.9593 386.353 Q99.6213 385.613 101.936 385.242 Q104.274 384.872 106.334 384.872 Q111.658 384.872 114.76 387.302 Q117.862 389.71 117.862 393.83 Q117.862 396.7 116.218 398.691 Q114.575 400.659 111.543 401.423 Z" fill="#000000" fill-rule="evenodd" fill-opacity="1" /><circle clip-path="url(#clip132)" cx="229.231" cy="1751.15" r="14" fill="#009af9" fill-rule="evenodd" fill-opacity="1" stroke="#000000" stroke-opacity="1" stroke-width="3.84"/>
<circle clip-path="url(#clip132)" cx="229.35" cy="1105.55" r="14" fill="#009af9" fill-rule="evenodd" fill-opacity="1" stroke="#000000" stroke-opacity="1" stroke-width="3.84"/>
<circle clip-path="url(#clip132)" cx="229.469" cy="657.407" r="14" fill="#009af9" fill-rule="evenodd" fill-opacity="1" stroke="#000000" stroke-opacity="1" stroke-width="3.84"/>
<circle clip-path="url(#clip132)" cx="229.588" cy="402.643" r="14" fill="#009af9" fill-rule="evenodd" fill-opacity="1" stroke="#000000" stroke-opacity="1" stroke-width="3.84"/>
<circle clip-path="url(#clip132)" cx="229.707" cy="254.465" r="14" fill="#009af9" fill-rule="evenodd" fill-opacity="1" stroke="#000000" stroke-opacity="1" stroke-width="3.84"/>
<circle clip-path="url(#clip132)" cx="229.826" cy="168.995" r="14" fill="#009af9" fill-rule="evenodd" fill-opacity="1" stroke="#000000" stroke-opacity="1" stroke-width="3.84"/>
<circle clip-path="url(#clip132)" cx="229.945" cy="122.526" r="14" fill="#009af9" fill-rule="evenodd" fill-opacity="1" stroke="#000000" stroke-opacity="1" stroke-width="3.84"/>
<circle clip-path="url(#clip132)" cx="230.064" cy="101.3" r="14" fill="#009af9" fill-rule="evenodd" fill-opacity="1" stroke="#000000" stroke-opacity="1" stroke-width="3.84"/>
<circle clip-path="url(#clip132)" cx="230.183" cy="96.8724" r="14" fill="#009af9" fill-rule="evenodd" fill-opacity="1" stroke="#000000" stroke-opacity="1" stroke-width="3.84"/>
<circle clip-path="url(#clip132)" cx="230.303" cy="103.829" r="14" fill="#009af9" fill-rule="evenodd" fill-opacity="1" stroke="#000000" stroke-opacity="1" stroke-width="3.84"/>
<circle clip-path="url(#clip132)" cx="230.422" cy="118.578" r="14" fill="#009af9" fill-rule="evenodd" fill-opacity="1" stroke="#000000" stroke-opacity="1" stroke-width="3.84"/>
<circle clip-path="url(#clip132)" cx="230.541" cy="138.675" r="14" fill="#009af9" fill-rule="evenodd" fill-opacity="1" stroke="#000000" stroke-opacity="1" stroke-width="3.84"/>
<circle clip-path="url(#clip132)" cx="230.66" cy="162.416" r="14" fill="#009af9" fill-rule="evenodd" fill-opacity="1" stroke="#000000" stroke-opacity="1" stroke-width="3.84"/>
<circle clip-path="url(#clip132)" cx="230.779" cy="188.597" r="14" fill="#009af9" fill-rule="evenodd" fill-opacity="1" stroke="#000000" stroke-opacity="1" stroke-width="3.84"/>
<circle clip-path="url(#clip132)" cx="230.898" cy="216.354" r="14" fill="#009af9" fill-rule="evenodd" fill-opacity="1" stroke="#000000" stroke-opacity="1" stroke-width="3.84"/>
<circle clip-path="url(#clip132)" cx="231.017" cy="245.059" r="14" fill="#009af9" fill-rule="evenodd" fill-opacity="1" stroke="#000000" stroke-opacity="1" stroke-width="3.84"/>
<circle clip-path="url(#clip132)" cx="231.136" cy="274.256" r="14" fill="#009af9" fill-rule="evenodd" fill-opacity="1" stroke="#000000" stroke-opacity="1" stroke-width="3.84"/>
<circle clip-path="url(#clip132)" cx="231.374" cy="332.873" r="14" fill="#009af9" fill-rule="evenodd" fill-opacity="1" stroke="#000000" stroke-opacity="1" stroke-width="3.84"/>
<circle clip-path="url(#clip132)" cx="231.612" cy="390.461" r="14" fill="#009af9" fill-rule="evenodd" fill-opacity="1" stroke="#000000" stroke-opacity="1" stroke-width="3.84"/>
<circle clip-path="url(#clip132)" cx="231.851" cy="446.098" r="14" fill="#009af9" fill-rule="evenodd" fill-opacity="1" stroke="#000000" stroke-opacity="1" stroke-width="3.84"/>
<circle clip-path="url(#clip132)" cx="232.089" cy="499.322" r="14" fill="#009af9" fill-rule="evenodd" fill-opacity="1" stroke="#000000" stroke-opacity="1" stroke-width="3.84"/>
<circle clip-path="url(#clip132)" cx="232.327" cy="549.94" r="14" fill="#009af9" fill-rule="evenodd" fill-opacity="1" stroke="#000000" stroke-opacity="1" stroke-width="3.84"/>
<circle clip-path="url(#clip132)" cx="232.565" cy="597.909" r="14" fill="#009af9" fill-rule="evenodd" fill-opacity="1" stroke="#000000" stroke-opacity="1" stroke-width="3.84"/>
<circle clip-path="url(#clip132)" cx="232.803" cy="643.277" r="14" fill="#009af9" fill-rule="evenodd" fill-opacity="1" stroke="#000000" stroke-opacity="1" stroke-width="3.84"/>
<circle clip-path="url(#clip132)" cx="233.041" cy="686.14" r="14" fill="#009af9" fill-rule="evenodd" fill-opacity="1" stroke="#000000" stroke-opacity="1" stroke-width="3.84"/>
<circle clip-path="url(#clip132)" cx="233.28" cy="726.622" r="14" fill="#009af9" fill-rule="evenodd" fill-opacity="1" stroke="#000000" stroke-opacity="1" stroke-width="3.84"/>
<circle clip-path="url(#clip132)" cx="233.518" cy="764.855" r="14" fill="#009af9" fill-rule="evenodd" fill-opacity="1" stroke="#000000" stroke-opacity="1" stroke-width="3.84"/>
<circle clip-path="url(#clip132)" cx="233.756" cy="800.977" r="14" fill="#009af9" fill-rule="evenodd" fill-opacity="1" stroke="#000000" stroke-opacity="1" stroke-width="3.84"/>
<circle clip-path="url(#clip132)" cx="233.994" cy="835.123" r="14" fill="#009af9" fill-rule="evenodd" fill-opacity="1" stroke="#000000" stroke-opacity="1" stroke-width="3.84"/>
<circle clip-path="url(#clip132)" cx="234.232" cy="867.423" r="14" fill="#009af9" fill-rule="evenodd" fill-opacity="1" stroke="#000000" stroke-opacity="1" stroke-width="3.84"/>
<circle clip-path="url(#clip132)" cx="234.471" cy="898" r="14" fill="#009af9" fill-rule="evenodd" fill-opacity="1" stroke="#000000" stroke-opacity="1" stroke-width="3.84"/>
<circle clip-path="url(#clip132)" cx="234.709" cy="926.969" r="14" fill="#009af9" fill-rule="evenodd" fill-opacity="1" stroke="#000000" stroke-opacity="1" stroke-width="3.84"/>
<circle clip-path="url(#clip132)" cx="234.947" cy="954.439" r="14" fill="#009af9" fill-rule="evenodd" fill-opacity="1" stroke="#000000" stroke-opacity="1" stroke-width="3.84"/>
<circle clip-path="url(#clip132)" cx="235.185" cy="980.51" r="14" fill="#009af9" fill-rule="evenodd" fill-opacity="1" stroke="#000000" stroke-opacity="1" stroke-width="3.84"/>
<circle clip-path="url(#clip132)" cx="235.423" cy="1005.27" r="14" fill="#009af9" fill-rule="evenodd" fill-opacity="1" stroke="#000000" stroke-opacity="1" stroke-width="3.84"/>
<circle clip-path="url(#clip132)" cx="235.661" cy="1028.82" r="14" fill="#009af9" fill-rule="evenodd" fill-opacity="1" stroke="#000000" stroke-opacity="1" stroke-width="3.84"/>
<circle clip-path="url(#clip132)" cx="235.9" cy="1051.22" r="14" fill="#009af9" fill-rule="evenodd" fill-opacity="1" stroke="#000000" stroke-opacity="1" stroke-width="3.84"/>
<circle clip-path="url(#clip132)" cx="236.376" cy="1092.9" r="14" fill="#009af9" fill-rule="evenodd" fill-opacity="1" stroke="#000000" stroke-opacity="1" stroke-width="3.84"/>
<circle clip-path="url(#clip132)" cx="236.852" cy="1130.82" r="14" fill="#009af9" fill-rule="evenodd" fill-opacity="1" stroke="#000000" stroke-opacity="1" stroke-width="3.84"/>
<circle clip-path="url(#clip132)" cx="237.329" cy="1165.44" r="14" fill="#009af9" fill-rule="evenodd" fill-opacity="1" stroke="#000000" stroke-opacity="1" stroke-width="3.84"/>
<circle clip-path="url(#clip132)" cx="237.805" cy="1197.14" r="14" fill="#009af9" fill-rule="evenodd" fill-opacity="1" stroke="#000000" stroke-opacity="1" stroke-width="3.84"/>
<circle clip-path="url(#clip132)" cx="238.281" cy="1226.25" r="14" fill="#009af9" fill-rule="evenodd" fill-opacity="1" stroke="#000000" stroke-opacity="1" stroke-width="3.84"/>
<circle clip-path="url(#clip132)" cx="238.758" cy="1253.05" r="14" fill="#009af9" fill-rule="evenodd" fill-opacity="1" stroke="#000000" stroke-opacity="1" stroke-width="3.84"/>
<circle clip-path="url(#clip132)" cx="239.234" cy="1277.78" r="14" fill="#009af9" fill-rule="evenodd" fill-opacity="1" stroke="#000000" stroke-opacity="1" stroke-width="3.84"/>
<circle clip-path="url(#clip132)" cx="239.71" cy="1300.66" r="14" fill="#009af9" fill-rule="evenodd" fill-opacity="1" stroke="#000000" stroke-opacity="1" stroke-width="3.84"/>
<circle clip-path="url(#clip132)" cx="240.187" cy="1321.87" r="14" fill="#009af9" fill-rule="evenodd" fill-opacity="1" stroke="#000000" stroke-opacity="1" stroke-width="3.84"/>
<circle clip-path="url(#clip132)" cx="240.663" cy="1341.59" r="14" fill="#009af9" fill-rule="evenodd" fill-opacity="1" stroke="#000000" stroke-opacity="1" stroke-width="3.84"/>
<circle clip-path="url(#clip132)" cx="241.139" cy="1359.94" r="14" fill="#009af9" fill-rule="evenodd" fill-opacity="1" stroke="#000000" stroke-opacity="1" stroke-width="3.84"/>
<circle clip-path="url(#clip132)" cx="241.616" cy="1377.06" r="14" fill="#009af9" fill-rule="evenodd" fill-opacity="1" stroke="#000000" stroke-opacity="1" stroke-width="3.84"/>
<circle clip-path="url(#clip132)" cx="242.092" cy="1393.06" r="14" fill="#009af9" fill-rule="evenodd" fill-opacity="1" stroke="#000000" stroke-opacity="1" stroke-width="3.84"/>
<circle clip-path="url(#clip132)" cx="242.568" cy="1408.03" r="14" fill="#009af9" fill-rule="evenodd" fill-opacity="1" stroke="#000000" stroke-opacity="1" stroke-width="3.84"/>
<circle clip-path="url(#clip132)" cx="243.045" cy="1422.07" r="14" fill="#009af9" fill-rule="evenodd" fill-opacity="1" stroke="#000000" stroke-opacity="1" stroke-width="3.84"/>
<circle clip-path="url(#clip132)" cx="243.521" cy="1435.25" r="14" fill="#009af9" fill-rule="evenodd" fill-opacity="1" stroke="#000000" stroke-opacity="1" stroke-width="3.84"/>
<circle clip-path="url(#clip132)" cx="243.759" cy="1441.54" r="14" fill="#009af9" fill-rule="evenodd" fill-opacity="1" stroke="#000000" stroke-opacity="1" stroke-width="3.84"/>
<circle clip-path="url(#clip132)" cx="243.997" cy="1447.64" r="14" fill="#009af9" fill-rule="evenodd" fill-opacity="1" stroke="#000000" stroke-opacity="1" stroke-width="3.84"/>
<circle clip-path="url(#clip132)" cx="244.236" cy="1453.56" r="14" fill="#009af9" fill-rule="evenodd" fill-opacity="1" stroke="#000000" stroke-opacity="1" stroke-width="3.84"/>
<circle clip-path="url(#clip132)" cx="244.474" cy="1459.31" r="14" fill="#009af9" fill-rule="evenodd" fill-opacity="1" stroke="#000000" stroke-opacity="1" stroke-width="3.84"/>
<circle clip-path="url(#clip132)" cx="245.575" cy="1483.81" r="14" fill="#009af9" fill-rule="evenodd" fill-opacity="1" stroke="#000000" stroke-opacity="1" stroke-width="3.84"/>
<circle clip-path="url(#clip132)" cx="246.676" cy="1505.33" r="14" fill="#009af9" fill-rule="evenodd" fill-opacity="1" stroke="#000000" stroke-opacity="1" stroke-width="3.84"/>
<circle clip-path="url(#clip132)" cx="247.777" cy="1524.35" r="14" fill="#009af9" fill-rule="evenodd" fill-opacity="1" stroke="#000000" stroke-opacity="1" stroke-width="3.84"/>
<circle clip-path="url(#clip132)" cx="248.878" cy="1541.24" r="14" fill="#009af9" fill-rule="evenodd" fill-opacity="1" stroke="#000000" stroke-opacity="1" stroke-width="3.84"/>
<circle clip-path="url(#clip132)" cx="249.979" cy="1556.32" r="14" fill="#009af9" fill-rule="evenodd" fill-opacity="1" stroke="#000000" stroke-opacity="1" stroke-width="3.84"/>
<circle clip-path="url(#clip132)" cx="251.081" cy="1569.83" r="14" fill="#009af9" fill-rule="evenodd" fill-opacity="1" stroke="#000000" stroke-opacity="1" stroke-width="3.84"/>
<circle clip-path="url(#clip132)" cx="252.182" cy="1582" r="14" fill="#009af9" fill-rule="evenodd" fill-opacity="1" stroke="#000000" stroke-opacity="1" stroke-width="3.84"/>
<circle clip-path="url(#clip132)" cx="253.283" cy="1592.99" r="14" fill="#009af9" fill-rule="evenodd" fill-opacity="1" stroke="#000000" stroke-opacity="1" stroke-width="3.84"/>
<circle clip-path="url(#clip132)" cx="255.485" cy="1612.03" r="14" fill="#009af9" fill-rule="evenodd" fill-opacity="1" stroke="#000000" stroke-opacity="1" stroke-width="3.84"/>
<circle clip-path="url(#clip132)" cx="257.687" cy="1627.88" r="14" fill="#009af9" fill-rule="evenodd" fill-opacity="1" stroke="#000000" stroke-opacity="1" stroke-width="3.84"/>
<circle clip-path="url(#clip132)" cx="259.89" cy="1641.22" r="14" fill="#009af9" fill-rule="evenodd" fill-opacity="1" stroke="#000000" stroke-opacity="1" stroke-width="3.84"/>
<circle clip-path="url(#clip132)" cx="262.092" cy="1652.54" r="14" fill="#009af9" fill-rule="evenodd" fill-opacity="1" stroke="#000000" stroke-opacity="1" stroke-width="3.84"/>
<circle clip-path="url(#clip132)" cx="264.294" cy="1662.25" r="14" fill="#009af9" fill-rule="evenodd" fill-opacity="1" stroke="#000000" stroke-opacity="1" stroke-width="3.84"/>
<circle clip-path="url(#clip132)" cx="266.496" cy="1670.63" r="14" fill="#009af9" fill-rule="evenodd" fill-opacity="1" stroke="#000000" stroke-opacity="1" stroke-width="3.84"/>
<circle clip-path="url(#clip132)" cx="268.699" cy="1677.92" r="14" fill="#009af9" fill-rule="evenodd" fill-opacity="1" stroke="#000000" stroke-opacity="1" stroke-width="3.84"/>
<circle clip-path="url(#clip132)" cx="270.901" cy="1684.29" r="14" fill="#009af9" fill-rule="evenodd" fill-opacity="1" stroke="#000000" stroke-opacity="1" stroke-width="3.84"/>
<circle clip-path="url(#clip132)" cx="275.305" cy="1694.85" r="14" fill="#009af9" fill-rule="evenodd" fill-opacity="1" stroke="#000000" stroke-opacity="1" stroke-width="3.84"/>
<circle clip-path="url(#clip132)" cx="279.71" cy="1703.18" r="14" fill="#009af9" fill-rule="evenodd" fill-opacity="1" stroke="#000000" stroke-opacity="1" stroke-width="3.84"/>
<circle clip-path="url(#clip132)" cx="284.114" cy="1709.86" r="14" fill="#009af9" fill-rule="evenodd" fill-opacity="1" stroke="#000000" stroke-opacity="1" stroke-width="3.84"/>
<circle clip-path="url(#clip132)" cx="288.519" cy="1715.3" r="14" fill="#009af9" fill-rule="evenodd" fill-opacity="1" stroke="#000000" stroke-opacity="1" stroke-width="3.84"/>
<circle clip-path="url(#clip132)" cx="292.923" cy="1719.78" r="14" fill="#009af9" fill-rule="evenodd" fill-opacity="1" stroke="#000000" stroke-opacity="1" stroke-width="3.84"/>
<circle clip-path="url(#clip132)" cx="297.328" cy="1723.5" r="14" fill="#009af9" fill-rule="evenodd" fill-opacity="1" stroke="#000000" stroke-opacity="1" stroke-width="3.84"/>
<circle clip-path="url(#clip132)" cx="306.137" cy="1729.3" r="14" fill="#009af9" fill-rule="evenodd" fill-opacity="1" stroke="#000000" stroke-opacity="1" stroke-width="3.84"/>
<circle clip-path="url(#clip132)" cx="314.946" cy="1733.53" r="14" fill="#009af9" fill-rule="evenodd" fill-opacity="1" stroke="#000000" stroke-opacity="1" stroke-width="3.84"/>
<circle clip-path="url(#clip132)" cx="332.564" cy="1739.14" r="14" fill="#009af9" fill-rule="evenodd" fill-opacity="1" stroke="#000000" stroke-opacity="1" stroke-width="3.84"/>
<circle clip-path="url(#clip132)" cx="350.182" cy="1742.56" r="14" fill="#009af9" fill-rule="evenodd" fill-opacity="1" stroke="#000000" stroke-opacity="1" stroke-width="3.84"/>
<circle clip-path="url(#clip132)" cx="367.8" cy="1744.78" r="14" fill="#009af9" fill-rule="evenodd" fill-opacity="1" stroke="#000000" stroke-opacity="1" stroke-width="3.84"/>
<circle clip-path="url(#clip132)" cx="385.418" cy="1746.28" r="14" fill="#009af9" fill-rule="evenodd" fill-opacity="1" stroke="#000000" stroke-opacity="1" stroke-width="3.84"/>
<circle clip-path="url(#clip132)" cx="406.593" cy="1747.52" r="14" fill="#009af9" fill-rule="evenodd" fill-opacity="1" stroke="#000000" stroke-opacity="1" stroke-width="3.84"/>
<circle clip-path="url(#clip132)" cx="427.769" cy="1748.37" r="14" fill="#009af9" fill-rule="evenodd" fill-opacity="1" stroke="#000000" stroke-opacity="1" stroke-width="3.84"/>
<circle clip-path="url(#clip132)" cx="448.944" cy="1748.97" r="14" fill="#009af9" fill-rule="evenodd" fill-opacity="1" stroke="#000000" stroke-opacity="1" stroke-width="3.84"/>
<circle clip-path="url(#clip132)" cx="470.119" cy="1749.41" r="14" fill="#009af9" fill-rule="evenodd" fill-opacity="1" stroke="#000000" stroke-opacity="1" stroke-width="3.84"/>
<circle clip-path="url(#clip132)" cx="505.926" cy="1749.92" r="14" fill="#009af9" fill-rule="evenodd" fill-opacity="1" stroke="#000000" stroke-opacity="1" stroke-width="3.84"/>
<circle clip-path="url(#clip132)" cx="541.733" cy="1750.25" r="14" fill="#009af9" fill-rule="evenodd" fill-opacity="1" stroke="#000000" stroke-opacity="1" stroke-width="3.84"/>
<circle clip-path="url(#clip132)" cx="619.526" cy="1750.65" r="14" fill="#009af9" fill-rule="evenodd" fill-opacity="1" stroke="#000000" stroke-opacity="1" stroke-width="3.84"/>
<circle clip-path="url(#clip132)" cx="691.244" cy="1750.83" r="14" fill="#009af9" fill-rule="evenodd" fill-opacity="1" stroke="#000000" stroke-opacity="1" stroke-width="3.84"/>
<circle clip-path="url(#clip132)" cx="768.134" cy="1750.94" r="14" fill="#009af9" fill-rule="evenodd" fill-opacity="1" stroke="#000000" stroke-opacity="1" stroke-width="3.84"/>
<circle clip-path="url(#clip132)" cx="857.218" cy="1751.02" r="14" fill="#009af9" fill-rule="evenodd" fill-opacity="1" stroke="#000000" stroke-opacity="1" stroke-width="3.84"/>
<circle clip-path="url(#clip132)" cx="936.385" cy="1751.06" r="14" fill="#009af9" fill-rule="evenodd" fill-opacity="1" stroke="#000000" stroke-opacity="1" stroke-width="3.84"/>
<circle clip-path="url(#clip132)" cx="1005.81" cy="1751.08" r="14" fill="#009af9" fill-rule="evenodd" fill-opacity="1" stroke="#000000" stroke-opacity="1" stroke-width="3.84"/>
<circle clip-path="url(#clip132)" cx="1081.5" cy="1751.1" r="14" fill="#009af9" fill-rule="evenodd" fill-opacity="1" stroke="#000000" stroke-opacity="1" stroke-width="3.84"/>
<circle clip-path="url(#clip132)" cx="1157.64" cy="1751.11" r="14" fill="#009af9" fill-rule="evenodd" fill-opacity="1" stroke="#000000" stroke-opacity="1" stroke-width="3.84"/>
<circle clip-path="url(#clip132)" cx="1241.82" cy="1751.12" r="14" fill="#009af9" fill-rule="evenodd" fill-opacity="1" stroke="#000000" stroke-opacity="1" stroke-width="3.84"/>
<circle clip-path="url(#clip132)" cx="1321.91" cy="1751.13" r="14" fill="#009af9" fill-rule="evenodd" fill-opacity="1" stroke="#000000" stroke-opacity="1" stroke-width="3.84"/>
<circle clip-path="url(#clip132)" cx="1405.2" cy="1751.13" r="14" fill="#009af9" fill-rule="evenodd" fill-opacity="1" stroke="#000000" stroke-opacity="1" stroke-width="3.84"/>
<circle clip-path="url(#clip132)" cx="1475.3" cy="1751.13" r="14" fill="#009af9" fill-rule="evenodd" fill-opacity="1" stroke="#000000" stroke-opacity="1" stroke-width="3.84"/>
<circle clip-path="url(#clip132)" cx="1560.89" cy="1751.14" r="14" fill="#009af9" fill-rule="evenodd" fill-opacity="1" stroke="#000000" stroke-opacity="1" stroke-width="3.84"/>
<circle clip-path="url(#clip132)" cx="1639.3" cy="1751.14" r="14" fill="#009af9" fill-rule="evenodd" fill-opacity="1" stroke="#000000" stroke-opacity="1" stroke-width="3.84"/>
<circle clip-path="url(#clip132)" cx="1711.71" cy="1751.14" r="14" fill="#009af9" fill-rule="evenodd" fill-opacity="1" stroke="#000000" stroke-opacity="1" stroke-width="3.84"/>
<circle clip-path="url(#clip132)" cx="1785.07" cy="1751.14" r="14" fill="#009af9" fill-rule="evenodd" fill-opacity="1" stroke="#000000" stroke-opacity="1" stroke-width="3.84"/>
<circle clip-path="url(#clip132)" cx="1867.28" cy="1751.14" r="14" fill="#009af9" fill-rule="evenodd" fill-opacity="1" stroke="#000000" stroke-opacity="1" stroke-width="3.84"/>
<circle clip-path="url(#clip132)" cx="1941.77" cy="1751.15" r="14" fill="#009af9" fill-rule="evenodd" fill-opacity="1" stroke="#000000" stroke-opacity="1" stroke-width="3.84"/>
<circle clip-path="url(#clip132)" cx="2027.06" cy="1751.15" r="14" fill="#009af9" fill-rule="evenodd" fill-opacity="1" stroke="#000000" stroke-opacity="1" stroke-width="3.84"/>
<circle clip-path="url(#clip132)" cx="2106.04" cy="1751.15" r="14" fill="#009af9" fill-rule="evenodd" fill-opacity="1" stroke="#000000" stroke-opacity="1" stroke-width="3.84"/>
<circle clip-path="url(#clip132)" cx="2183.89" cy="1751.15" r="14" fill="#009af9" fill-rule="evenodd" fill-opacity="1" stroke="#000000" stroke-opacity="1" stroke-width="3.84"/>
<circle clip-path="url(#clip132)" cx="2259.49" cy="1751.15" r="14" fill="#009af9" fill-rule="evenodd" fill-opacity="1" stroke="#000000" stroke-opacity="1" stroke-width="3.84"/>
<circle clip-path="url(#clip132)" cx="2336.98" cy="1751.15" r="14" fill="#009af9" fill-rule="evenodd" fill-opacity="1" stroke="#000000" stroke-opacity="1" stroke-width="3.84"/>
<circle clip-path="url(#clip132)" cx="2421.88" cy="1751.15" r="14" fill="#009af9" fill-rule="evenodd" fill-opacity="1" stroke="#000000" stroke-opacity="1" stroke-width="3.84"/>
<circle clip-path="url(#clip132)" cx="2545.21" cy="1751.15" r="14" fill="#009af9" fill-rule="evenodd" fill-opacity="1" stroke="#000000" stroke-opacity="1" stroke-width="3.84"/>
<circle clip-path="url(#clip132)" cx="2570.52" cy="1751.15" r="14" fill="#009af9" fill-rule="evenodd" fill-opacity="1" stroke="#000000" stroke-opacity="1" stroke-width="3.84"/>
<path clip-path="url(#clip130)" d="
M2229.85 209.375 L2558.03 209.375 L2558.03 105.695 L2229.85 105.695  Z
  " fill="#ffffff" fill-rule="evenodd" fill-opacity="1"/>
<polyline clip-path="url(#clip130)" style="stroke:#000000; stroke-linecap:butt; stroke-linejoin:round; stroke-width:4; stroke-opacity:1; fill:none" points="
  2229.85,209.375 2558.03,209.375 2558.03,105.695 2229.85,105.695 2229.85,209.375 
  "/>
<circle clip-path="url(#clip130)" cx="2340.15" cy="157.535" r="23" fill="#009af9" fill-rule="evenodd" fill-opacity="1" stroke="#000000" stroke-opacity="1" stroke-width="6.144"/>
<path clip-path="url(#clip130)" d="M2464.29 177.223 Q2462.49 181.852 2460.77 183.264 Q2459.06 184.676 2456.19 184.676 L2452.79 184.676 L2452.79 181.112 L2455.29 181.112 Q2457.05 181.112 2458.02 180.278 Q2458.99 179.445 2460.17 176.343 L2460.94 174.399 L2450.45 148.889 L2454.96 148.889 L2463.07 169.167 L2471.17 148.889 L2475.68 148.889 L2464.29 177.223 Z" fill="#000000" fill-rule="evenodd" fill-opacity="1" /><path clip-path="url(#clip130)" d="M2482.97 170.88 L2490.61 170.88 L2490.61 144.515 L2482.3 146.181 L2482.3 141.922 L2490.57 140.255 L2495.24 140.255 L2495.24 170.88 L2502.88 170.88 L2502.88 174.815 L2482.97 174.815 L2482.97 170.88 Z" fill="#000000" fill-rule="evenodd" fill-opacity="1" /></svg>
