<?xml version="1.0" encoding="utf-8"?>
<svg xmlns="http://www.w3.org/2000/svg" xmlns:xlink="http://www.w3.org/1999/xlink" width="672" height="480" viewBox="0 0 2688 1920">
<defs>
  <clipPath id="clip010">
    <rect x="0" y="0" width="2688" height="1920"/>
  </clipPath>
</defs>
<path clip-path="url(#clip010)" d="
M0 1920 L2688 1920 L2688 0 L0 0  Z
  " fill="#ffffff" fill-rule="evenodd" fill-opacity="1"/>
<defs>
  <clipPath id="clip011">
    <rect x="537" y="0" width="1883" height="1883"/>
  </clipPath>
</defs>
<path clip-path="url(#clip010)" d="
M159.478 1800.78 L2640.76 1800.78 L2640.76 47.2441 L159.478 47.2441  Z
  " fill="#ffffff" fill-rule="evenodd" fill-opacity="1"/>
<defs>
  <clipPath id="clip012">
    <rect x="159" y="47" width="2482" height="1755"/>
  </clipPath>
</defs>
<polyline clip-path="url(#clip012)" style="stroke:#000000; stroke-linecap:butt; stroke-linejoin:round; stroke-width:2; stroke-opacity:0.1; fill:none" points="
  491.35,1800.78 491.35,47.2441 
  "/>
<polyline clip-path="url(#clip012)" style="stroke:#000000; stroke-linecap:butt; stroke-linejoin:round; stroke-width:2; stroke-opacity:0.1; fill:none" points="
  945.734,1800.78 945.734,47.2441 
  "/>
<polyline clip-path="url(#clip012)" style="stroke:#000000; stroke-linecap:butt; stroke-linejoin:round; stroke-width:2; stroke-opacity:0.1; fill:none" points="
  1400.12,1800.78 1400.12,47.2441 
  "/>
<polyline clip-path="url(#clip012)" style="stroke:#000000; stroke-linecap:butt; stroke-linejoin:round; stroke-width:2; stroke-opacity:0.1; fill:none" points="
  1854.5,1800.78 1854.5,47.2441 
  "/>
<polyline clip-path="url(#clip012)" style="stroke:#000000; stroke-linecap:butt; stroke-linejoin:round; stroke-width:2; stroke-opacity:0.1; fill:none" points="
  2308.88,1800.78 2308.88,47.2441 
  "/>
<polyline clip-path="url(#clip010)" style="stroke:#000000; stroke-linecap:butt; stroke-linejoin:round; stroke-width:4; stroke-opacity:1; fill:none" points="
  159.478,1800.78 2640.76,1800.78 
  "/>
<polyline clip-path="url(#clip010)" style="stroke:#000000; stroke-linecap:butt; stroke-linejoin:round; stroke-width:4; stroke-opacity:1; fill:none" points="
  491.35,1800.78 491.35,1781.88 
  "/>
<polyline clip-path="url(#clip010)" style="stroke:#000000; stroke-linecap:butt; stroke-linejoin:round; stroke-width:4; stroke-opacity:1; fill:none" points="
  945.734,1800.78 945.734,1781.88 
  "/>
<polyline clip-path="url(#clip010)" style="stroke:#000000; stroke-linecap:butt; stroke-linejoin:round; stroke-width:4; stroke-opacity:1; fill:none" points="
  1400.12,1800.78 1400.12,1781.88 
  "/>
<polyline clip-path="url(#clip010)" style="stroke:#000000; stroke-linecap:butt; stroke-linejoin:round; stroke-width:4; stroke-opacity:1; fill:none" points="
  1854.5,1800.78 1854.5,1781.88 
  "/>
<polyline clip-path="url(#clip010)" style="stroke:#000000; stroke-linecap:butt; stroke-linejoin:round; stroke-width:4; stroke-opacity:1; fill:none" points="
  2308.88,1800.78 2308.88,1781.88 
  "/>
<path clip-path="url(#clip010)" d="M461.293 1848.65 L490.968 1848.65 L490.968 1852.59 L461.293 1852.59 L461.293 1848.65 Z" fill="#000000" fill-rule="evenodd" fill-opacity="1" /><path clip-path="url(#clip010)" d="M505.089 1861.55 L521.408 1861.55 L521.408 1865.48 L499.464 1865.48 L499.464 1861.55 Q502.126 1858.79 506.709 1854.16 Q511.316 1849.51 512.496 1848.17 Q514.741 1845.65 515.621 1843.91 Q516.524 1842.15 516.524 1840.46 Q516.524 1837.71 514.579 1835.97 Q512.658 1834.23 509.556 1834.23 Q507.357 1834.23 504.904 1835 Q502.473 1835.76 499.695 1837.31 L499.695 1832.59 Q502.519 1831.46 504.973 1830.88 Q507.427 1830.3 509.464 1830.3 Q514.834 1830.3 518.028 1832.98 Q521.223 1835.67 521.223 1840.16 Q521.223 1842.29 520.413 1844.21 Q519.626 1846.11 517.519 1848.7 Q516.94 1849.37 513.839 1852.59 Q510.737 1855.78 505.089 1861.55 Z" fill="#000000" fill-rule="evenodd" fill-opacity="1" /><path clip-path="url(#clip010)" d="M915.491 1848.65 L945.167 1848.65 L945.167 1852.59 L915.491 1852.59 L915.491 1848.65 Z" fill="#000000" fill-rule="evenodd" fill-opacity="1" /><path clip-path="url(#clip010)" d="M956.069 1861.55 L963.708 1861.55 L963.708 1835.18 L955.398 1836.85 L955.398 1832.59 L963.662 1830.92 L968.338 1830.92 L968.338 1861.55 L975.977 1861.55 L975.977 1865.48 L956.069 1865.48 L956.069 1861.55 Z" fill="#000000" fill-rule="evenodd" fill-opacity="1" /><path clip-path="url(#clip010)" d="M1400.12 1834 Q1396.51 1834 1394.68 1837.57 Q1392.87 1841.11 1392.87 1848.24 Q1392.87 1855.34 1394.68 1858.91 Q1396.51 1862.45 1400.12 1862.45 Q1403.75 1862.45 1405.56 1858.91 Q1407.39 1855.34 1407.39 1848.24 Q1407.39 1841.11 1405.56 1837.57 Q1403.75 1834 1400.12 1834 M1400.12 1830.3 Q1405.93 1830.3 1408.98 1834.9 Q1412.06 1839.49 1412.06 1848.24 Q1412.06 1856.96 1408.98 1861.57 Q1405.93 1866.15 1400.12 1866.15 Q1394.31 1866.15 1391.23 1861.57 Q1388.17 1856.96 1388.17 1848.24 Q1388.17 1839.49 1391.23 1834.9 Q1394.31 1830.3 1400.12 1830.3 Z" fill="#000000" fill-rule="evenodd" fill-opacity="1" /><path clip-path="url(#clip010)" d="M1844.88 1861.55 L1852.52 1861.55 L1852.52 1835.18 L1844.21 1836.85 L1844.21 1832.59 L1852.47 1830.92 L1857.15 1830.92 L1857.15 1861.55 L1864.79 1861.55 L1864.79 1865.48 L1844.88 1865.48 L1844.88 1861.55 Z" fill="#000000" fill-rule="evenodd" fill-opacity="1" /><path clip-path="url(#clip010)" d="M2303.54 1861.55 L2319.86 1861.55 L2319.86 1865.48 L2297.91 1865.48 L2297.91 1861.55 Q2300.57 1858.79 2305.16 1854.16 Q2309.76 1849.51 2310.94 1848.17 Q2313.19 1845.65 2314.07 1843.91 Q2314.97 1842.15 2314.97 1840.46 Q2314.97 1837.71 2313.03 1835.97 Q2311.11 1834.23 2308 1834.23 Q2305.81 1834.23 2303.35 1835 Q2300.92 1835.76 2298.14 1837.31 L2298.14 1832.59 Q2300.97 1831.46 2303.42 1830.88 Q2305.87 1830.3 2307.91 1830.3 Q2313.28 1830.3 2316.48 1832.98 Q2319.67 1835.67 2319.67 1840.16 Q2319.67 1842.29 2318.86 1844.21 Q2318.07 1846.11 2315.97 1848.7 Q2315.39 1849.37 2312.29 1852.59 Q2309.18 1855.78 2303.54 1861.55 Z" fill="#000000" fill-rule="evenodd" fill-opacity="1" /><polyline clip-path="url(#clip012)" style="stroke:#000000; stroke-linecap:butt; stroke-linejoin:round; stroke-width:2; stroke-opacity:0.1; fill:none" points="
  159.478,1751.15 2640.76,1751.15 
  "/>
<polyline clip-path="url(#clip012)" style="stroke:#000000; stroke-linecap:butt; stroke-linejoin:round; stroke-width:2; stroke-opacity:0.1; fill:none" points="
  159.478,1336.45 2640.76,1336.45 
  "/>
<polyline clip-path="url(#clip012)" style="stroke:#000000; stroke-linecap:butt; stroke-linejoin:round; stroke-width:2; stroke-opacity:0.1; fill:none" points="
  159.478,921.754 2640.76,921.754 
  "/>
<polyline clip-path="url(#clip012)" style="stroke:#000000; stroke-linecap:butt; stroke-linejoin:round; stroke-width:2; stroke-opacity:0.1; fill:none" points="
  159.478,507.055 2640.76,507.055 
  "/>
<polyline clip-path="url(#clip012)" style="stroke:#000000; stroke-linecap:butt; stroke-linejoin:round; stroke-width:2; stroke-opacity:0.1; fill:none" points="
  159.478,92.3562 2640.76,92.3562 
  "/>
<polyline clip-path="url(#clip010)" style="stroke:#000000; stroke-linecap:butt; stroke-linejoin:round; stroke-width:4; stroke-opacity:1; fill:none" points="
  159.478,1800.78 159.478,47.2441 
  "/>
<polyline clip-path="url(#clip010)" style="stroke:#000000; stroke-linecap:butt; stroke-linejoin:round; stroke-width:4; stroke-opacity:1; fill:none" points="
  159.478,1751.15 178.376,1751.15 
  "/>
<polyline clip-path="url(#clip010)" style="stroke:#000000; stroke-linecap:butt; stroke-linejoin:round; stroke-width:4; stroke-opacity:1; fill:none" points="
  159.478,1336.45 178.376,1336.45 
  "/>
<polyline clip-path="url(#clip010)" style="stroke:#000000; stroke-linecap:butt; stroke-linejoin:round; stroke-width:4; stroke-opacity:1; fill:none" points="
  159.478,921.754 178.376,921.754 
  "/>
<polyline clip-path="url(#clip010)" style="stroke:#000000; stroke-linecap:butt; stroke-linejoin:round; stroke-width:4; stroke-opacity:1; fill:none" points="
  159.478,507.055 178.376,507.055 
  "/>
<polyline clip-path="url(#clip010)" style="stroke:#000000; stroke-linecap:butt; stroke-linejoin:round; stroke-width:4; stroke-opacity:1; fill:none" points="
  159.478,92.3562 178.376,92.3562 
  "/>
<path clip-path="url(#clip010)" d="M61.9826 1736.95 Q58.3715 1736.95 56.5428 1740.51 Q54.7373 1744.06 54.7373 1751.19 Q54.7373 1758.29 56.5428 1761.86 Q58.3715 1765.4 61.9826 1765.4 Q65.6169 1765.4 67.4224 1761.86 Q69.2511 1758.29 69.2511 1751.19 Q69.2511 1744.06 67.4224 1740.51 Q65.6169 1736.95 61.9826 1736.95 M61.9826 1733.25 Q67.7928 1733.25 70.8483 1737.85 Q73.927 1742.44 73.927 1751.19 Q73.927 1759.91 70.8483 1764.52 Q67.7928 1769.1 61.9826 1769.1 Q56.1725 1769.1 53.0938 1764.52 Q50.0382 1759.91 50.0382 1751.19 Q50.0382 1742.44 53.0938 1737.85 Q56.1725 1733.25 61.9826 1733.25 Z" fill="#000000" fill-rule="evenodd" fill-opacity="1" /><path clip-path="url(#clip010)" d="M82.1445 1762.55 L87.0288 1762.55 L87.0288 1768.43 L82.1445 1768.43 L82.1445 1762.55 Z" fill="#000000" fill-rule="evenodd" fill-opacity="1" /><path clip-path="url(#clip010)" d="M107.214 1736.95 Q103.603 1736.95 101.774 1740.51 Q99.9685 1744.06 99.9685 1751.19 Q99.9685 1758.29 101.774 1761.86 Q103.603 1765.4 107.214 1765.4 Q110.848 1765.4 112.654 1761.86 Q114.482 1758.29 114.482 1751.19 Q114.482 1744.06 112.654 1740.51 Q110.848 1736.95 107.214 1736.95 M107.214 1733.25 Q113.024 1733.25 116.08 1737.85 Q119.158 1742.44 119.158 1751.19 Q119.158 1759.91 116.08 1764.52 Q113.024 1769.1 107.214 1769.1 Q101.404 1769.1 98.325 1764.52 Q95.2695 1759.91 95.2695 1751.19 Q95.2695 1742.44 98.325 1737.85 Q101.404 1733.25 107.214 1733.25 Z" fill="#000000" fill-rule="evenodd" fill-opacity="1" /><path clip-path="url(#clip010)" d="M63.2095 1322.25 Q59.5984 1322.25 57.7697 1325.82 Q55.9641 1329.36 55.9641 1336.49 Q55.9641 1343.59 57.7697 1347.16 Q59.5984 1350.7 63.2095 1350.7 Q66.8437 1350.7 68.6492 1347.16 Q70.4779 1343.59 70.4779 1336.49 Q70.4779 1329.36 68.6492 1325.82 Q66.8437 1322.25 63.2095 1322.25 M63.2095 1318.55 Q69.0196 1318.55 72.0752 1323.15 Q75.1538 1327.74 75.1538 1336.49 Q75.1538 1345.21 72.0752 1349.82 Q69.0196 1354.4 63.2095 1354.4 Q57.3993 1354.4 54.3206 1349.82 Q51.2651 1345.21 51.2651 1336.49 Q51.2651 1327.74 54.3206 1323.15 Q57.3993 1318.55 63.2095 1318.55 Z" fill="#000000" fill-rule="evenodd" fill-opacity="1" /><path clip-path="url(#clip010)" d="M83.3714 1347.85 L88.2556 1347.85 L88.2556 1353.73 L83.3714 1353.73 L83.3714 1347.85 Z" fill="#000000" fill-rule="evenodd" fill-opacity="1" /><path clip-path="url(#clip010)" d="M99.2509 1349.8 L106.89 1349.8 L106.89 1323.43 L98.5796 1325.1 L98.5796 1320.84 L106.843 1319.17 L111.519 1319.17 L111.519 1349.8 L119.158 1349.8 L119.158 1353.73 L99.2509 1353.73 L99.2509 1349.8 Z" fill="#000000" fill-rule="evenodd" fill-opacity="1" /><path clip-path="url(#clip010)" d="M63.5798 907.552 Q59.9687 907.552 58.14 911.117 Q56.3345 914.659 56.3345 921.788 Q56.3345 928.895 58.14 932.46 Q59.9687 936.001 63.5798 936.001 Q67.2141 936.001 69.0196 932.46 Q70.8483 928.895 70.8483 921.788 Q70.8483 914.659 69.0196 911.117 Q67.2141 907.552 63.5798 907.552 M63.5798 903.849 Q69.39 903.849 72.4455 908.455 Q75.5242 913.038 75.5242 921.788 Q75.5242 930.515 72.4455 935.122 Q69.39 939.705 63.5798 939.705 Q57.7697 939.705 54.691 935.122 Q51.6354 930.515 51.6354 921.788 Q51.6354 913.038 54.691 908.455 Q57.7697 903.849 63.5798 903.849 Z" fill="#000000" fill-rule="evenodd" fill-opacity="1" /><path clip-path="url(#clip010)" d="M83.7418 933.154 L88.626 933.154 L88.626 939.034 L83.7418 939.034 L83.7418 933.154 Z" fill="#000000" fill-rule="evenodd" fill-opacity="1" /><path clip-path="url(#clip010)" d="M102.839 935.098 L119.158 935.098 L119.158 939.034 L97.2139 939.034 L97.2139 935.098 Q99.8759 932.344 104.459 927.714 Q109.066 923.061 110.246 921.719 Q112.492 919.196 113.371 917.46 Q114.274 915.7 114.274 914.011 Q114.274 911.256 112.33 909.52 Q110.408 907.784 107.306 907.784 Q105.107 907.784 102.654 908.548 Q100.223 909.311 97.4454 910.862 L97.4454 906.14 Q100.269 905.006 102.723 904.427 Q105.177 903.849 107.214 903.849 Q112.584 903.849 115.779 906.534 Q118.973 909.219 118.973 913.71 Q118.973 915.839 118.163 917.761 Q117.376 919.659 115.269 922.251 Q114.691 922.923 111.589 926.14 Q108.487 929.335 102.839 935.098 Z" fill="#000000" fill-rule="evenodd" fill-opacity="1" /><path clip-path="url(#clip010)" d="M62.6308 492.854 Q59.0197 492.854 57.191 496.418 Q55.3854 499.96 55.3854 507.09 Q55.3854 514.196 57.191 517.761 Q59.0197 521.302 62.6308 521.302 Q66.265 521.302 68.0705 517.761 Q69.8992 514.196 69.8992 507.09 Q69.8992 499.96 68.0705 496.418 Q66.265 492.854 62.6308 492.854 M62.6308 489.15 Q68.4409 489.15 71.4965 493.756 Q74.5751 498.34 74.5751 507.09 Q74.5751 515.816 71.4965 520.423 Q68.4409 525.006 62.6308 525.006 Q56.8206 525.006 53.7419 520.423 Q50.6864 515.816 50.6864 507.09 Q50.6864 498.34 53.7419 493.756 Q56.8206 489.15 62.6308 489.15 Z" fill="#000000" fill-rule="evenodd" fill-opacity="1" /><path clip-path="url(#clip010)" d="M82.7927 518.455 L87.6769 518.455 L87.6769 524.335 L82.7927 524.335 L82.7927 518.455 Z" fill="#000000" fill-rule="evenodd" fill-opacity="1" /><path clip-path="url(#clip010)" d="M112.029 505.701 Q115.385 506.418 117.26 508.687 Q119.158 510.955 119.158 514.289 Q119.158 519.404 115.64 522.205 Q112.121 525.006 105.64 525.006 Q103.464 525.006 101.149 524.566 Q98.8574 524.15 96.4037 523.293 L96.4037 518.779 Q98.3482 519.914 100.663 520.492 Q102.978 521.071 105.501 521.071 Q109.899 521.071 112.191 519.335 Q114.505 517.599 114.505 514.289 Q114.505 511.233 112.353 509.52 Q110.223 507.784 106.404 507.784 L102.376 507.784 L102.376 503.941 L106.589 503.941 Q110.038 503.941 111.867 502.576 Q113.695 501.187 113.695 498.594 Q113.695 495.932 111.797 494.52 Q109.922 493.085 106.404 493.085 Q104.482 493.085 102.283 493.502 Q100.084 493.918 97.4454 494.798 L97.4454 490.631 Q100.107 489.891 102.422 489.52 Q104.76 489.15 106.82 489.15 Q112.144 489.15 115.246 491.58 Q118.348 493.988 118.348 498.108 Q118.348 500.979 116.705 502.969 Q115.061 504.937 112.029 505.701 Z" fill="#000000" fill-rule="evenodd" fill-opacity="1" /><path clip-path="url(#clip010)" d="M61.4965 78.1548 Q57.8854 78.1548 56.0567 81.7196 Q54.2512 85.2613 54.2512 92.3909 Q54.2512 99.4973 56.0567 103.062 Q57.8854 106.604 61.4965 106.604 Q65.1307 106.604 66.9363 103.062 Q68.765 99.4973 68.765 92.3909 Q68.765 85.2613 66.9363 81.7196 Q65.1307 78.1548 61.4965 78.1548 M61.4965 74.4512 Q67.3067 74.4512 70.3622 79.0576 Q73.4409 83.6409 73.4409 92.3909 Q73.4409 101.118 70.3622 105.724 Q67.3067 110.307 61.4965 110.307 Q55.6864 110.307 52.6077 105.724 Q49.5521 101.118 49.5521 92.3909 Q49.5521 83.6409 52.6077 79.0576 Q55.6864 74.4512 61.4965 74.4512 Z" fill="#000000" fill-rule="evenodd" fill-opacity="1" /><path clip-path="url(#clip010)" d="M81.6584 103.757 L86.5427 103.757 L86.5427 109.636 L81.6584 109.636 L81.6584 103.757 Z" fill="#000000" fill-rule="evenodd" fill-opacity="1" /><path clip-path="url(#clip010)" d="M109.575 79.1502 L97.7695 97.5992 L109.575 97.5992 L109.575 79.1502 M108.348 75.0762 L114.228 75.0762 L114.228 97.5992 L119.158 97.5992 L119.158 101.488 L114.228 101.488 L114.228 109.636 L109.575 109.636 L109.575 101.488 L93.9732 101.488 L93.9732 96.9742 L108.348 75.0762 Z" fill="#000000" fill-rule="evenodd" fill-opacity="1" /><path clip-path="url(#clip012)" d="
M229.703 1691.19 L414.064 1594.1 L414.064 1751.15 L229.703 1751.15  Z
  " fill="#ff0000" fill-rule="evenodd" fill-opacity="1"/>
<path clip-path="url(#clip012)" d="
M414.064 1594.1 L509.542 1508.78 L509.542 1751.15 L414.064 1751.15  Z
  " fill="#0000ff" fill-rule="evenodd" fill-opacity="1"/>
<path clip-path="url(#clip012)" d="
M509.542 1508.78 L576.815 1430.71 L576.815 1751.15 L509.542 1751.15  Z
  " fill="#ff0000" fill-rule="evenodd" fill-opacity="1"/>
<path clip-path="url(#clip012)" d="
M576.815 1430.71 L629.757 1358.07 L629.757 1751.15 L576.815 1751.15  Z
  " fill="#0000ff" fill-rule="evenodd" fill-opacity="1"/>
<path clip-path="url(#clip012)" d="
M629.757 1358.07 L673.925 1289.83 L673.925 1751.15 L629.757 1751.15  Z
  " fill="#ff0000" fill-rule="evenodd" fill-opacity="1"/>
<path clip-path="url(#clip012)" d="
M673.925 1289.83 L712.134 1225.34 L712.134 1751.15 L673.925 1751.15  Z
  " fill="#0000ff" fill-rule="evenodd" fill-opacity="1"/>
<path clip-path="url(#clip012)" d="
M712.134 1225.34 L746.018 1164.12 L746.018 1751.15 L712.134 1751.15  Z
  " fill="#ff0000" fill-rule="evenodd" fill-opacity="1"/>
<path clip-path="url(#clip012)" d="
M746.018 1164.12 L776.61 1105.84 L776.61 1751.15 L746.018 1751.15  Z
  " fill="#0000ff" fill-rule="evenodd" fill-opacity="1"/>
<path clip-path="url(#clip012)" d="
M776.61 1105.84 L804.612 1050.23 L804.612 1751.15 L776.61 1751.15  Z
  " fill="#ff0000" fill-rule="evenodd" fill-opacity="1"/>
<path clip-path="url(#clip012)" d="
M804.612 1050.23 L830.518 997.081 L830.518 1751.15 L804.612 1751.15  Z
  " fill="#0000ff" fill-rule="evenodd" fill-opacity="1"/>
<path clip-path="url(#clip012)" d="
M830.518 997.081 L854.694 946.211 L854.694 1751.15 L830.518 1751.15  Z
  " fill="#ff0000" fill-rule="evenodd" fill-opacity="1"/>
<path clip-path="url(#clip012)" d="
M854.694 946.211 L877.417 897.479 L877.417 1751.15 L854.694 1751.15  Z
  " fill="#0000ff" fill-rule="evenodd" fill-opacity="1"/>
<path clip-path="url(#clip012)" d="
M877.417 897.479 L898.904 850.763 L898.904 1751.15 L877.417 1751.15  Z
  " fill="#ff0000" fill-rule="evenodd" fill-opacity="1"/>
<path clip-path="url(#clip012)" d="
M898.904 850.763 L919.324 805.959 L919.324 1751.15 L898.904 1751.15  Z
  " fill="#0000ff" fill-rule="evenodd" fill-opacity="1"/>
<path clip-path="url(#clip012)" d="
M919.324 805.959 L938.817 762.975 L938.817 1751.15 L919.324 1751.15  Z
  " fill="#ff0000" fill-rule="evenodd" fill-opacity="1"/>
<path clip-path="url(#clip012)" d="
M938.817 762.975 L957.496 721.732 L957.496 1751.15 L938.817 1751.15  Z
  " fill="#0000ff" fill-rule="evenodd" fill-opacity="1"/>
<path clip-path="url(#clip012)" d="
M957.496 721.732 L975.455 682.16 L975.455 1751.15 L957.496 1751.15  Z
  " fill="#ff0000" fill-rule="evenodd" fill-opacity="1"/>
<path clip-path="url(#clip012)" d="
M975.455 682.16 L992.774 644.198 L992.774 1751.15 L975.455 1751.15  Z
  " fill="#0000ff" fill-rule="evenodd" fill-opacity="1"/>
<path clip-path="url(#clip012)" d="
M992.774 644.198 L1009.52 607.79 L1009.52 1751.15 L992.774 1751.15  Z
  " fill="#ff0000" fill-rule="evenodd" fill-opacity="1"/>
<path clip-path="url(#clip012)" d="
M1009.52 607.79 L1025.75 572.886 L1025.75 1751.15 L1009.52 1751.15  Z
  " fill="#0000ff" fill-rule="evenodd" fill-opacity="1"/>
<path clip-path="url(#clip012)" d="
M1025.75 572.886 L1041.52 539.442 L1041.52 1751.15 L1025.75 1751.15  Z
  " fill="#ff0000" fill-rule="evenodd" fill-opacity="1"/>
<path clip-path="url(#clip012)" d="
M1041.52 539.442 L1056.87 507.418 L1056.87 1751.15 L1041.52 1751.15  Z
  " fill="#0000ff" fill-rule="evenodd" fill-opacity="1"/>
<path clip-path="url(#clip012)" d="
M1056.87 507.418 L1071.83 476.776 L1071.83 1751.15 L1056.87 1751.15  Z
  " fill="#ff0000" fill-rule="evenodd" fill-opacity="1"/>
<path clip-path="url(#clip012)" d="
M1071.83 476.776 L1086.45 447.485 L1086.45 1751.15 L1071.83 1751.15  Z
  " fill="#0000ff" fill-rule="evenodd" fill-opacity="1"/>
<path clip-path="url(#clip012)" d="
M1086.45 447.485 L1100.75 419.513 L1100.75 1751.15 L1086.45 1751.15  Z
  " fill="#ff0000" fill-rule="evenodd" fill-opacity="1"/>
<path clip-path="url(#clip012)" d="
M1100.75 419.513 L1114.76 392.832 L1114.76 1751.15 L1100.75 1751.15  Z
  " fill="#0000ff" fill-rule="evenodd" fill-opacity="1"/>
<path clip-path="url(#clip012)" d="
M1114.76 392.832 L1128.5 367.418 L1128.5 1751.15 L1114.76 1751.15  Z
  " fill="#ff0000" fill-rule="evenodd" fill-opacity="1"/>
<path clip-path="url(#clip012)" d="
M1128.5 367.418 L1142 343.247 L1142 1751.15 L1128.5 1751.15  Z
  " fill="#0000ff" fill-rule="evenodd" fill-opacity="1"/>
<path clip-path="url(#clip012)" d="
M1142 343.247 L1155.28 320.297 L1155.28 1751.15 L1142 1751.15  Z
  " fill="#ff0000" fill-rule="evenodd" fill-opacity="1"/>
<path clip-path="url(#clip012)" d="
M1155.28 320.297 L1168.35 298.55 L1168.35 1751.15 L1155.28 1751.15  Z
  " fill="#0000ff" fill-rule="evenodd" fill-opacity="1"/>
<path clip-path="url(#clip012)" d="
M1168.35 298.55 L1181.23 277.986 L1181.23 1751.15 L1168.35 1751.15  Z
  " fill="#ff0000" fill-rule="evenodd" fill-opacity="1"/>
<path clip-path="url(#clip012)" d="
M1181.23 277.986 L1193.94 258.59 L1193.94 1751.15 L1181.23 1751.15  Z
  " fill="#0000ff" fill-rule="evenodd" fill-opacity="1"/>
<path clip-path="url(#clip012)" d="
M1193.94 258.59 L1206.48 240.346 L1206.48 1751.15 L1193.94 1751.15  Z
  " fill="#ff0000" fill-rule="evenodd" fill-opacity="1"/>
<path clip-path="url(#clip012)" d="
M1206.48 240.346 L1218.88 223.241 L1218.88 1751.15 L1206.48 1751.15  Z
  " fill="#0000ff" fill-rule="evenodd" fill-opacity="1"/>
<path clip-path="url(#clip012)" d="
M1218.88 223.241 L1231.15 207.261 L1231.15 1751.15 L1218.88 1751.15  Z
  " fill="#ff0000" fill-rule="evenodd" fill-opacity="1"/>
<path clip-path="url(#clip012)" d="
M1231.15 207.261 L1243.3 192.396 L1243.3 1751.15 L1231.15 1751.15  Z
  " fill="#0000ff" fill-rule="evenodd" fill-opacity="1"/>
<path clip-path="url(#clip012)" d="
M1243.3 192.396 L1255.33 178.633 L1255.33 1751.15 L1243.3 1751.15  Z
  " fill="#ff0000" fill-rule="evenodd" fill-opacity="1"/>
<path clip-path="url(#clip012)" d="
M1255.33 178.633 L1267.27 165.965 L1267.27 1751.15 L1255.33 1751.15  Z
  " fill="#0000ff" fill-rule="evenodd" fill-opacity="1"/>
<path clip-path="url(#clip012)" d="
M1267.27 165.965 L1279.11 154.381 L1279.11 1751.15 L1267.27 1751.15  Z
  " fill="#ff0000" fill-rule="evenodd" fill-opacity="1"/>
<path clip-path="url(#clip012)" d="
M1279.11 154.381 L1290.87 143.874 L1290.87 1751.15 L1279.11 1751.15  Z
  " fill="#0000ff" fill-rule="evenodd" fill-opacity="1"/>
<path clip-path="url(#clip012)" d="
M1290.87 143.874 L1302.56 134.438 L1302.56 1751.15 L1290.87 1751.15  Z
  " fill="#ff0000" fill-rule="evenodd" fill-opacity="1"/>
<path clip-path="url(#clip012)" d="
M1302.56 134.438 L1314.18 126.065 L1314.18 1751.15 L1302.56 1751.15  Z
  " fill="#0000ff" fill-rule="evenodd" fill-opacity="1"/>
<path clip-path="url(#clip012)" d="
M1314.18 126.065 L1325.75 118.751 L1325.75 1751.15 L1314.18 1751.15  Z
  " fill="#ff0000" fill-rule="evenodd" fill-opacity="1"/>
<path clip-path="url(#clip012)" d="
M1325.75 118.751 L1337.27 112.49 L1337.27 1751.15 L1325.75 1751.15  Z
  " fill="#0000ff" fill-rule="evenodd" fill-opacity="1"/>
<path clip-path="url(#clip012)" d="
M1337.27 112.49 L1348.75 107.279 L1348.75 1751.15 L1337.27 1751.15  Z
  " fill="#ff0000" fill-rule="evenodd" fill-opacity="1"/>
<path clip-path="url(#clip012)" d="
M1348.75 107.279 L1360.2 103.114 L1360.2 1751.15 L1348.75 1751.15  Z
  " fill="#0000ff" fill-rule="evenodd" fill-opacity="1"/>
<path clip-path="url(#clip012)" d="
M1360.2 103.114 L1371.62 99.992 L1371.62 1751.15 L1360.2 1751.15  Z
  " fill="#ff0000" fill-rule="evenodd" fill-opacity="1"/>
<path clip-path="url(#clip012)" d="
M1371.62 99.992 L1383.03 97.9121 L1383.03 1751.15 L1371.62 1751.15  Z
  " fill="#0000ff" fill-rule="evenodd" fill-opacity="1"/>
<path clip-path="url(#clip012)" d="
M1383.03 97.9121 L1394.42 96.8724 L1394.42 1751.15 L1383.03 1751.15  Z
  " fill="#ff0000" fill-rule="evenodd" fill-opacity="1"/>
<path clip-path="url(#clip012)" d="
M1394.42 96.8724 L1405.81 96.8724 L1405.81 1751.15 L1394.42 1751.15  Z
  " fill="#0000ff" fill-rule="evenodd" fill-opacity="1"/>
<path clip-path="url(#clip012)" d="
M1405.81 96.8724 L1417.21 97.9121 L1417.21 1751.15 L1405.81 1751.15  Z
  " fill="#ff0000" fill-rule="evenodd" fill-opacity="1"/>
<path clip-path="url(#clip012)" d="
M1417.21 97.9121 L1428.61 99.992 L1428.61 1751.15 L1417.21 1751.15  Z
  " fill="#0000ff" fill-rule="evenodd" fill-opacity="1"/>
<path clip-path="url(#clip012)" d="
M1428.61 99.992 L1440.03 103.114 L1440.03 1751.15 L1428.61 1751.15  Z
  " fill="#ff0000" fill-rule="evenodd" fill-opacity="1"/>
<path clip-path="url(#clip012)" d="
M1440.03 103.114 L1451.48 107.279 L1451.48 1751.15 L1440.03 1751.15  Z
  " fill="#0000ff" fill-rule="evenodd" fill-opacity="1"/>
<path clip-path="url(#clip012)" d="
M1451.48 107.279 L1462.96 112.49 L1462.96 1751.15 L1451.48 1751.15  Z
  " fill="#ff0000" fill-rule="evenodd" fill-opacity="1"/>
<path clip-path="url(#clip012)" d="
M1462.96 112.49 L1474.48 118.751 L1474.48 1751.15 L1462.96 1751.15  Z
  " fill="#0000ff" fill-rule="evenodd" fill-opacity="1"/>
<path clip-path="url(#clip012)" d="
M1474.48 118.751 L1486.05 126.065 L1486.05 1751.15 L1474.48 1751.15  Z
  " fill="#ff0000" fill-rule="evenodd" fill-opacity="1"/>
<path clip-path="url(#clip012)" d="
M1486.05 126.065 L1497.67 134.438 L1497.67 1751.15 L1486.05 1751.15  Z
  " fill="#0000ff" fill-rule="evenodd" fill-opacity="1"/>
<path clip-path="url(#clip012)" d="
M1497.67 134.438 L1509.36 143.874 L1509.36 1751.15 L1497.67 1751.15  Z
  " fill="#ff0000" fill-rule="evenodd" fill-opacity="1"/>
<path clip-path="url(#clip012)" d="
M1509.36 143.874 L1521.12 154.381 L1521.12 1751.15 L1509.36 1751.15  Z
  " fill="#0000ff" fill-rule="evenodd" fill-opacity="1"/>
<path clip-path="url(#clip012)" d="
M1521.12 154.381 L1532.97 165.965 L1532.97 1751.15 L1521.12 1751.15  Z
  " fill="#ff0000" fill-rule="evenodd" fill-opacity="1"/>
<path clip-path="url(#clip012)" d="
M1532.97 165.965 L1544.9 178.633 L1544.9 1751.15 L1532.97 1751.15  Z
  " fill="#0000ff" fill-rule="evenodd" fill-opacity="1"/>
<path clip-path="url(#clip012)" d="
M1544.9 178.633 L1556.94 192.396 L1556.94 1751.15 L1544.9 1751.15  Z
  " fill="#ff0000" fill-rule="evenodd" fill-opacity="1"/>
<path clip-path="url(#clip012)" d="
M1556.94 192.396 L1569.08 207.261 L1569.08 1751.15 L1556.94 1751.15  Z
  " fill="#0000ff" fill-rule="evenodd" fill-opacity="1"/>
<path clip-path="url(#clip012)" d="
M1569.08 207.261 L1581.35 223.241 L1581.35 1751.15 L1569.08 1751.15  Z
  " fill="#ff0000" fill-rule="evenodd" fill-opacity="1"/>
<path clip-path="url(#clip012)" d="
M1581.35 223.241 L1593.75 240.346 L1593.75 1751.15 L1581.35 1751.15  Z
  " fill="#0000ff" fill-rule="evenodd" fill-opacity="1"/>
<path clip-path="url(#clip012)" d="
M1593.75 240.346 L1606.3 258.59 L1606.3 1751.15 L1593.75 1751.15  Z
  " fill="#ff0000" fill-rule="evenodd" fill-opacity="1"/>
<path clip-path="url(#clip012)" d="
M1606.3 258.59 L1619.01 277.986 L1619.01 1751.15 L1606.3 1751.15  Z
  " fill="#0000ff" fill-rule="evenodd" fill-opacity="1"/>
<path clip-path="url(#clip012)" d="
M1619.01 277.986 L1631.89 298.55 L1631.89 1751.15 L1619.01 1751.15  Z
  " fill="#ff0000" fill-rule="evenodd" fill-opacity="1"/>
<path clip-path="url(#clip012)" d="
M1631.89 298.55 L1644.96 320.297 L1644.96 1751.15 L1631.89 1751.15  Z
  " fill="#0000ff" fill-rule="evenodd" fill-opacity="1"/>
<path clip-path="url(#clip012)" d="
M1644.96 320.297 L1658.23 343.247 L1658.23 1751.15 L1644.96 1751.15  Z
  " fill="#ff0000" fill-rule="evenodd" fill-opacity="1"/>
<path clip-path="url(#clip012)" d="
M1658.23 343.247 L1671.73 367.418 L1671.73 1751.15 L1658.23 1751.15  Z
  " fill="#0000ff" fill-rule="evenodd" fill-opacity="1"/>
<path clip-path="url(#clip012)" d="
M1671.73 367.418 L1685.47 392.832 L1685.47 1751.15 L1671.73 1751.15  Z
  " fill="#ff0000" fill-rule="evenodd" fill-opacity="1"/>
<path clip-path="url(#clip012)" d="
M1685.47 392.832 L1699.48 419.513 L1699.48 1751.15 L1685.47 1751.15  Z
  " fill="#0000ff" fill-rule="evenodd" fill-opacity="1"/>
<path clip-path="url(#clip012)" d="
M1699.48 419.513 L1713.78 447.485 L1713.78 1751.15 L1699.48 1751.15  Z
  " fill="#ff0000" fill-rule="evenodd" fill-opacity="1"/>
<path clip-path="url(#clip012)" d="
M1713.78 447.485 L1728.4 476.776 L1728.4 1751.15 L1713.78 1751.15  Z
  " fill="#0000ff" fill-rule="evenodd" fill-opacity="1"/>
<path clip-path="url(#clip012)" d="
M1728.4 476.776 L1743.37 507.418 L1743.37 1751.15 L1728.4 1751.15  Z
  " fill="#ff0000" fill-rule="evenodd" fill-opacity="1"/>
<path clip-path="url(#clip012)" d="
M1743.37 507.418 L1758.71 539.442 L1758.71 1751.15 L1743.37 1751.15  Z
  " fill="#0000ff" fill-rule="evenodd" fill-opacity="1"/>
<path clip-path="url(#clip012)" d="
M1758.71 539.442 L1774.48 572.886 L1774.48 1751.15 L1758.71 1751.15  Z
  " fill="#ff0000" fill-rule="evenodd" fill-opacity="1"/>
<path clip-path="url(#clip012)" d="
M1774.48 572.886 L1790.71 607.79 L1790.71 1751.15 L1774.48 1751.15  Z
  " fill="#0000ff" fill-rule="evenodd" fill-opacity="1"/>
<path clip-path="url(#clip012)" d="
M1790.71 607.79 L1807.46 644.198 L1807.46 1751.15 L1790.71 1751.15  Z
  " fill="#ff0000" fill-rule="evenodd" fill-opacity="1"/>
<path clip-path="url(#clip012)" d="
M1807.46 644.198 L1824.78 682.16 L1824.78 1751.15 L1807.46 1751.15  Z
  " fill="#0000ff" fill-rule="evenodd" fill-opacity="1"/>
<path clip-path="url(#clip012)" d="
M1824.78 682.16 L1842.74 721.732 L1842.74 1751.15 L1824.78 1751.15  Z
  " fill="#ff0000" fill-rule="evenodd" fill-opacity="1"/>
<path clip-path="url(#clip012)" d="
M1842.74 721.732 L1861.42 762.975 L1861.42 1751.15 L1842.74 1751.15  Z
  " fill="#0000ff" fill-rule="evenodd" fill-opacity="1"/>
<path clip-path="url(#clip012)" d="
M1861.42 762.975 L1880.91 805.959 L1880.91 1751.15 L1861.42 1751.15  Z
  " fill="#ff0000" fill-rule="evenodd" fill-opacity="1"/>
<path clip-path="url(#clip012)" d="
M1880.91 805.959 L1901.33 850.763 L1901.33 1751.15 L1880.91 1751.15  Z
  " fill="#0000ff" fill-rule="evenodd" fill-opacity="1"/>
<path clip-path="url(#clip012)" d="
M1901.33 850.763 L1922.82 897.479 L1922.82 1751.15 L1901.33 1751.15  Z
  " fill="#ff0000" fill-rule="evenodd" fill-opacity="1"/>
<path clip-path="url(#clip012)" d="
M1922.82 897.479 L1945.54 946.211 L1945.54 1751.15 L1922.82 1751.15  Z
  " fill="#0000ff" fill-rule="evenodd" fill-opacity="1"/>
<path clip-path="url(#clip012)" d="
M1945.54 946.211 L1969.72 997.081 L1969.72 1751.15 L1945.54 1751.15  Z
  " fill="#ff0000" fill-rule="evenodd" fill-opacity="1"/>
<path clip-path="url(#clip012)" d="
M1969.72 997.081 L1995.62 1050.23 L1995.62 1751.15 L1969.72 1751.15  Z
  " fill="#0000ff" fill-rule="evenodd" fill-opacity="1"/>
<path clip-path="url(#clip012)" d="
M1995.62 1050.23 L2023.62 1105.84 L2023.62 1751.15 L1995.62 1751.15  Z
  " fill="#ff0000" fill-rule="evenodd" fill-opacity="1"/>
<path clip-path="url(#clip012)" d="
M2023.62 1105.84 L2054.22 1164.12 L2054.22 1751.15 L2023.62 1751.15  Z
  " fill="#0000ff" fill-rule="evenodd" fill-opacity="1"/>
<path clip-path="url(#clip012)" d="
M2054.22 1164.12 L2088.1 1225.34 L2088.1 1751.15 L2054.22 1751.15  Z
  " fill="#ff0000" fill-rule="evenodd" fill-opacity="1"/>
<path clip-path="url(#clip012)" d="
M2088.1 1225.34 L2126.31 1289.83 L2126.31 1751.15 L2088.1 1751.15  Z
  " fill="#0000ff" fill-rule="evenodd" fill-opacity="1"/>
<path clip-path="url(#clip012)" d="
M2126.31 1289.83 L2170.48 1358.07 L2170.48 1751.15 L2126.31 1751.15  Z
  " fill="#ff0000" fill-rule="evenodd" fill-opacity="1"/>
<path clip-path="url(#clip012)" d="
M2170.48 1358.07 L2223.42 1430.71 L2223.42 1751.15 L2170.48 1751.15  Z
  " fill="#0000ff" fill-rule="evenodd" fill-opacity="1"/>
<path clip-path="url(#clip012)" d="
M2223.42 1430.71 L2290.69 1508.78 L2290.69 1751.15 L2223.42 1751.15  Z
  " fill="#ff0000" fill-rule="evenodd" fill-opacity="1"/>
<path clip-path="url(#clip012)" d="
M2290.69 1508.78 L2386.17 1594.1 L2386.17 1751.15 L2290.69 1751.15  Z
  " fill="#0000ff" fill-rule="evenodd" fill-opacity="1"/>
<path clip-path="url(#clip012)" d="
M2386.17 1594.1 L2570.53 1691.19 L2570.53 1751.15 L2386.17 1751.15  Z
  " fill="#ff0000" fill-rule="evenodd" fill-opacity="1"/>
<polyline clip-path="url(#clip012)" style="stroke:#ff0000; stroke-linecap:butt; stroke-linejoin:round; stroke-width:4; stroke-opacity:1; fill:none" points="
  229.703,1691.19 414.064,1594.1 
  "/>
<polyline clip-path="url(#clip012)" style="stroke:#0000ff; stroke-linecap:butt; stroke-linejoin:round; stroke-width:4; stroke-opacity:1; fill:none" points="
  414.064,1594.1 509.542,1508.78 
  "/>
<polyline clip-path="url(#clip012)" style="stroke:#ff0000; stroke-linecap:butt; stroke-linejoin:round; stroke-width:4; stroke-opacity:1; fill:none" points="
  509.542,1508.78 576.815,1430.71 
  "/>
<polyline clip-path="url(#clip012)" style="stroke:#0000ff; stroke-linecap:butt; stroke-linejoin:round; stroke-width:4; stroke-opacity:1; fill:none" points="
  576.815,1430.71 629.757,1358.07 
  "/>
<polyline clip-path="url(#clip012)" style="stroke:#ff0000; stroke-linecap:butt; stroke-linejoin:round; stroke-width:4; stroke-opacity:1; fill:none" points="
  629.757,1358.07 673.925,1289.83 
  "/>
<polyline clip-path="url(#clip012)" style="stroke:#0000ff; stroke-linecap:butt; stroke-linejoin:round; stroke-width:4; stroke-opacity:1; fill:none" points="
  673.925,1289.83 712.134,1225.34 
  "/>
<polyline clip-path="url(#clip012)" style="stroke:#ff0000; stroke-linecap:butt; stroke-linejoin:round; stroke-width:4; stroke-opacity:1; fill:none" points="
  712.134,1225.34 746.018,1164.12 
  "/>
<polyline clip-path="url(#clip012)" style="stroke:#0000ff; stroke-linecap:butt; stroke-linejoin:round; stroke-width:4; stroke-opacity:1; fill:none" points="
  746.018,1164.12 776.61,1105.84 
  "/>
<polyline clip-path="url(#clip012)" style="stroke:#ff0000; stroke-linecap:butt; stroke-linejoin:round; stroke-width:4; stroke-opacity:1; fill:none" points="
  776.61,1105.84 804.612,1050.23 
  "/>
<polyline clip-path="url(#clip012)" style="stroke:#0000ff; stroke-linecap:butt; stroke-linejoin:round; stroke-width:4; stroke-opacity:1; fill:none" points="
  804.612,1050.23 830.518,997.081 
  "/>
<polyline clip-path="url(#clip012)" style="stroke:#ff0000; stroke-linecap:butt; stroke-linejoin:round; stroke-width:4; stroke-opacity:1; fill:none" points="
  830.518,997.081 854.694,946.211 
  "/>
<polyline clip-path="url(#clip012)" style="stroke:#0000ff; stroke-linecap:butt; stroke-linejoin:round; stroke-width:4; stroke-opacity:1; fill:none" points="
  854.694,946.211 877.417,897.479 
  "/>
<polyline clip-path="url(#clip012)" style="stroke:#ff0000; stroke-linecap:butt; stroke-linejoin:round; stroke-width:4; stroke-opacity:1; fill:none" points="
  877.417,897.479 898.904,850.763 
  "/>
<polyline clip-path="url(#clip012)" style="stroke:#0000ff; stroke-linecap:butt; stroke-linejoin:round; stroke-width:4; stroke-opacity:1; fill:none" points="
  898.904,850.763 919.324,805.959 
  "/>
<polyline clip-path="url(#clip012)" style="stroke:#ff0000; stroke-linecap:butt; stroke-linejoin:round; stroke-width:4; stroke-opacity:1; fill:none" points="
  919.324,805.959 938.817,762.975 
  "/>
<polyline clip-path="url(#clip012)" style="stroke:#0000ff; stroke-linecap:butt; stroke-linejoin:round; stroke-width:4; stroke-opacity:1; fill:none" points="
  938.817,762.975 957.496,721.732 
  "/>
<polyline clip-path="url(#clip012)" style="stroke:#ff0000; stroke-linecap:butt; stroke-linejoin:round; stroke-width:4; stroke-opacity:1; fill:none" points="
  957.496,721.732 975.455,682.16 
  "/>
<polyline clip-path="url(#clip012)" style="stroke:#0000ff; stroke-linecap:butt; stroke-linejoin:round; stroke-width:4; stroke-opacity:1; fill:none" points="
  975.455,682.16 992.774,644.198 
  "/>
<polyline clip-path="url(#clip012)" style="stroke:#ff0000; stroke-linecap:butt; stroke-linejoin:round; stroke-width:4; stroke-opacity:1; fill:none" points="
  992.774,644.198 1009.52,607.79 
  "/>
<polyline clip-path="url(#clip012)" style="stroke:#0000ff; stroke-linecap:butt; stroke-linejoin:round; stroke-width:4; stroke-opacity:1; fill:none" points="
  1009.52,607.79 1025.75,572.886 
  "/>
<polyline clip-path="url(#clip012)" style="stroke:#ff0000; stroke-linecap:butt; stroke-linejoin:round; stroke-width:4; stroke-opacity:1; fill:none" points="
  1025.75,572.886 1041.52,539.442 
  "/>
<polyline clip-path="url(#clip012)" style="stroke:#0000ff; stroke-linecap:butt; stroke-linejoin:round; stroke-width:4; stroke-opacity:1; fill:none" points="
  1041.52,539.442 1056.87,507.418 
  "/>
<polyline clip-path="url(#clip012)" style="stroke:#ff0000; stroke-linecap:butt; stroke-linejoin:round; stroke-width:4; stroke-opacity:1; fill:none" points="
  1056.87,507.418 1071.83,476.776 
  "/>
<polyline clip-path="url(#clip012)" style="stroke:#0000ff; stroke-linecap:butt; stroke-linejoin:round; stroke-width:4; stroke-opacity:1; fill:none" points="
  1071.83,476.776 1086.45,447.485 
  "/>
<polyline clip-path="url(#clip012)" style="stroke:#ff0000; stroke-linecap:butt; stroke-linejoin:round; stroke-width:4; stroke-opacity:1; fill:none" points="
  1086.45,447.485 1100.75,419.513 
  "/>
<polyline clip-path="url(#clip012)" style="stroke:#0000ff; stroke-linecap:butt; stroke-linejoin:round; stroke-width:4; stroke-opacity:1; fill:none" points="
  1100.75,419.513 1114.76,392.832 
  "/>
<polyline clip-path="url(#clip012)" style="stroke:#ff0000; stroke-linecap:butt; stroke-linejoin:round; stroke-width:4; stroke-opacity:1; fill:none" points="
  1114.76,392.832 1128.5,367.418 
  "/>
<polyline clip-path="url(#clip012)" style="stroke:#0000ff; stroke-linecap:butt; stroke-linejoin:round; stroke-width:4; stroke-opacity:1; fill:none" points="
  1128.5,367.418 1142,343.247 
  "/>
<polyline clip-path="url(#clip012)" style="stroke:#ff0000; stroke-linecap:butt; stroke-linejoin:round; stroke-width:4; stroke-opacity:1; fill:none" points="
  1142,343.247 1155.28,320.297 
  "/>
<polyline clip-path="url(#clip012)" style="stroke:#0000ff; stroke-linecap:butt; stroke-linejoin:round; stroke-width:4; stroke-opacity:1; fill:none" points="
  1155.28,320.297 1168.35,298.55 
  "/>
<polyline clip-path="url(#clip012)" style="stroke:#ff0000; stroke-linecap:butt; stroke-linejoin:round; stroke-width:4; stroke-opacity:1; fill:none" points="
  1168.35,298.55 1181.23,277.986 
  "/>
<polyline clip-path="url(#clip012)" style="stroke:#0000ff; stroke-linecap:butt; stroke-linejoin:round; stroke-width:4; stroke-opacity:1; fill:none" points="
  1181.23,277.986 1193.94,258.59 
  "/>
<polyline clip-path="url(#clip012)" style="stroke:#ff0000; stroke-linecap:butt; stroke-linejoin:round; stroke-width:4; stroke-opacity:1; fill:none" points="
  1193.94,258.59 1206.48,240.346 
  "/>
<polyline clip-path="url(#clip012)" style="stroke:#0000ff; stroke-linecap:butt; stroke-linejoin:round; stroke-width:4; stroke-opacity:1; fill:none" points="
  1206.48,240.346 1218.88,223.241 
  "/>
<polyline clip-path="url(#clip012)" style="stroke:#ff0000; stroke-linecap:butt; stroke-linejoin:round; stroke-width:4; stroke-opacity:1; fill:none" points="
  1218.88,223.241 1231.15,207.261 
  "/>
<polyline clip-path="url(#clip012)" style="stroke:#0000ff; stroke-linecap:butt; stroke-linejoin:round; stroke-width:4; stroke-opacity:1; fill:none" points="
  1231.15,207.261 1243.3,192.396 
  "/>
<polyline clip-path="url(#clip012)" style="stroke:#ff0000; stroke-linecap:butt; stroke-linejoin:round; stroke-width:4; stroke-opacity:1; fill:none" points="
  1243.3,192.396 1255.33,178.633 
  "/>
<polyline clip-path="url(#clip012)" style="stroke:#0000ff; stroke-linecap:butt; stroke-linejoin:round; stroke-width:4; stroke-opacity:1; fill:none" points="
  1255.33,178.633 1267.27,165.965 
  "/>
<polyline clip-path="url(#clip012)" style="stroke:#ff0000; stroke-linecap:butt; stroke-linejoin:round; stroke-width:4; stroke-opacity:1; fill:none" points="
  1267.27,165.965 1279.11,154.381 
  "/>
<polyline clip-path="url(#clip012)" style="stroke:#0000ff; stroke-linecap:butt; stroke-linejoin:round; stroke-width:4; stroke-opacity:1; fill:none" points="
  1279.11,154.381 1290.87,143.874 
  "/>
<polyline clip-path="url(#clip012)" style="stroke:#ff0000; stroke-linecap:butt; stroke-linejoin:round; stroke-width:4; stroke-opacity:1; fill:none" points="
  1290.87,143.874 1302.56,134.438 
  "/>
<polyline clip-path="url(#clip012)" style="stroke:#0000ff; stroke-linecap:butt; stroke-linejoin:round; stroke-width:4; stroke-opacity:1; fill:none" points="
  1302.56,134.438 1314.18,126.065 
  "/>
<polyline clip-path="url(#clip012)" style="stroke:#ff0000; stroke-linecap:butt; stroke-linejoin:round; stroke-width:4; stroke-opacity:1; fill:none" points="
  1314.18,126.065 1325.75,118.751 
  "/>
<polyline clip-path="url(#clip012)" style="stroke:#0000ff; stroke-linecap:butt; stroke-linejoin:round; stroke-width:4; stroke-opacity:1; fill:none" points="
  1325.75,118.751 1337.27,112.49 
  "/>
<polyline clip-path="url(#clip012)" style="stroke:#ff0000; stroke-linecap:butt; stroke-linejoin:round; stroke-width:4; stroke-opacity:1; fill:none" points="
  1337.27,112.49 1348.75,107.279 
  "/>
<polyline clip-path="url(#clip012)" style="stroke:#0000ff; stroke-linecap:butt; stroke-linejoin:round; stroke-width:4; stroke-opacity:1; fill:none" points="
  1348.75,107.279 1360.2,103.114 
  "/>
<polyline clip-path="url(#clip012)" style="stroke:#ff0000; stroke-linecap:butt; stroke-linejoin:round; stroke-width:4; stroke-opacity:1; fill:none" points="
  1360.2,103.114 1371.62,99.992 
  "/>
<polyline clip-path="url(#clip012)" style="stroke:#0000ff; stroke-linecap:butt; stroke-linejoin:round; stroke-width:4; stroke-opacity:1; fill:none" points="
  1371.62,99.992 1383.03,97.9121 
  "/>
<polyline clip-path="url(#clip012)" style="stroke:#ff0000; stroke-linecap:butt; stroke-linejoin:round; stroke-width:4; stroke-opacity:1; fill:none" points="
  1383.03,97.9121 1394.42,96.8724 
  "/>
<polyline clip-path="url(#clip012)" style="stroke:#0000ff; stroke-linecap:butt; stroke-linejoin:round; stroke-width:4; stroke-opacity:1; fill:none" points="
  1394.42,96.8724 1405.81,96.8724 
  "/>
<polyline clip-path="url(#clip012)" style="stroke:#ff0000; stroke-linecap:butt; stroke-linejoin:round; stroke-width:4; stroke-opacity:1; fill:none" points="
  1405.81,96.8724 1417.21,97.9121 
  "/>
<polyline clip-path="url(#clip012)" style="stroke:#0000ff; stroke-linecap:butt; stroke-linejoin:round; stroke-width:4; stroke-opacity:1; fill:none" points="
  1417.21,97.9121 1428.61,99.992 
  "/>
<polyline clip-path="url(#clip012)" style="stroke:#ff0000; stroke-linecap:butt; stroke-linejoin:round; stroke-width:4; stroke-opacity:1; fill:none" points="
  1428.61,99.992 1440.03,103.114 
  "/>
<polyline clip-path="url(#clip012)" style="stroke:#0000ff; stroke-linecap:butt; stroke-linejoin:round; stroke-width:4; stroke-opacity:1; fill:none" points="
  1440.03,103.114 1451.48,107.279 
  "/>
<polyline clip-path="url(#clip012)" style="stroke:#ff0000; stroke-linecap:butt; stroke-linejoin:round; stroke-width:4; stroke-opacity:1; fill:none" points="
  1451.48,107.279 1462.96,112.49 
  "/>
<polyline clip-path="url(#clip012)" style="stroke:#0000ff; stroke-linecap:butt; stroke-linejoin:round; stroke-width:4; stroke-opacity:1; fill:none" points="
  1462.96,112.49 1474.48,118.751 
  "/>
<polyline clip-path="url(#clip012)" style="stroke:#ff0000; stroke-linecap:butt; stroke-linejoin:round; stroke-width:4; stroke-opacity:1; fill:none" points="
  1474.48,118.751 1486.05,126.065 
  "/>
<polyline clip-path="url(#clip012)" style="stroke:#0000ff; stroke-linecap:butt; stroke-linejoin:round; stroke-width:4; stroke-opacity:1; fill:none" points="
  1486.05,126.065 1497.67,134.438 
  "/>
<polyline clip-path="url(#clip012)" style="stroke:#ff0000; stroke-linecap:butt; stroke-linejoin:round; stroke-width:4; stroke-opacity:1; fill:none" points="
  1497.67,134.438 1509.36,143.874 
  "/>
<polyline clip-path="url(#clip012)" style="stroke:#0000ff; stroke-linecap:butt; stroke-linejoin:round; stroke-width:4; stroke-opacity:1; fill:none" points="
  1509.36,143.874 1521.12,154.381 
  "/>
<polyline clip-path="url(#clip012)" style="stroke:#ff0000; stroke-linecap:butt; stroke-linejoin:round; stroke-width:4; stroke-opacity:1; fill:none" points="
  1521.12,154.381 1532.97,165.965 
  "/>
<polyline clip-path="url(#clip012)" style="stroke:#0000ff; stroke-linecap:butt; stroke-linejoin:round; stroke-width:4; stroke-opacity:1; fill:none" points="
  1532.97,165.965 1544.9,178.633 
  "/>
<polyline clip-path="url(#clip012)" style="stroke:#ff0000; stroke-linecap:butt; stroke-linejoin:round; stroke-width:4; stroke-opacity:1; fill:none" points="
  1544.9,178.633 1556.94,192.396 
  "/>
<polyline clip-path="url(#clip012)" style="stroke:#0000ff; stroke-linecap:butt; stroke-linejoin:round; stroke-width:4; stroke-opacity:1; fill:none" points="
  1556.94,192.396 1569.08,207.261 
  "/>
<polyline clip-path="url(#clip012)" style="stroke:#ff0000; stroke-linecap:butt; stroke-linejoin:round; stroke-width:4; stroke-opacity:1; fill:none" points="
  1569.08,207.261 1581.35,223.241 
  "/>
<polyline clip-path="url(#clip012)" style="stroke:#0000ff; stroke-linecap:butt; stroke-linejoin:round; stroke-width:4; stroke-opacity:1; fill:none" points="
  1581.35,223.241 1593.75,240.346 
  "/>
<polyline clip-path="url(#clip012)" style="stroke:#ff0000; stroke-linecap:butt; stroke-linejoin:round; stroke-width:4; stroke-opacity:1; fill:none" points="
  1593.75,240.346 1606.3,258.59 
  "/>
<polyline clip-path="url(#clip012)" style="stroke:#0000ff; stroke-linecap:butt; stroke-linejoin:round; stroke-width:4; stroke-opacity:1; fill:none" points="
  1606.3,258.59 1619.01,277.986 
  "/>
<polyline clip-path="url(#clip012)" style="stroke:#ff0000; stroke-linecap:butt; stroke-linejoin:round; stroke-width:4; stroke-opacity:1; fill:none" points="
  1619.01,277.986 1631.89,298.55 
  "/>
<polyline clip-path="url(#clip012)" style="stroke:#0000ff; stroke-linecap:butt; stroke-linejoin:round; stroke-width:4; stroke-opacity:1; fill:none" points="
  1631.89,298.55 1644.96,320.297 
  "/>
<polyline clip-path="url(#clip012)" style="stroke:#ff0000; stroke-linecap:butt; stroke-linejoin:round; stroke-width:4; stroke-opacity:1; fill:none" points="
  1644.96,320.297 1658.23,343.247 
  "/>
<polyline clip-path="url(#clip012)" style="stroke:#0000ff; stroke-linecap:butt; stroke-linejoin:round; stroke-width:4; stroke-opacity:1; fill:none" points="
  1658.23,343.247 1671.73,367.418 
  "/>
<polyline clip-path="url(#clip012)" style="stroke:#ff0000; stroke-linecap:butt; stroke-linejoin:round; stroke-width:4; stroke-opacity:1; fill:none" points="
  1671.73,367.418 1685.47,392.832 
  "/>
<polyline clip-path="url(#clip012)" style="stroke:#0000ff; stroke-linecap:butt; stroke-linejoin:round; stroke-width:4; stroke-opacity:1; fill:none" points="
  1685.47,392.832 1699.48,419.513 
  "/>
<polyline clip-path="url(#clip012)" style="stroke:#ff0000; stroke-linecap:butt; stroke-linejoin:round; stroke-width:4; stroke-opacity:1; fill:none" points="
  1699.48,419.513 1713.78,447.485 
  "/>
<polyline clip-path="url(#clip012)" style="stroke:#0000ff; stroke-linecap:butt; stroke-linejoin:round; stroke-width:4; stroke-opacity:1; fill:none" points="
  1713.78,447.485 1728.4,476.776 
  "/>
<polyline clip-path="url(#clip012)" style="stroke:#ff0000; stroke-linecap:butt; stroke-linejoin:round; stroke-width:4; stroke-opacity:1; fill:none" points="
  1728.4,476.776 1743.37,507.418 
  "/>
<polyline clip-path="url(#clip012)" style="stroke:#0000ff; stroke-linecap:butt; stroke-linejoin:round; stroke-width:4; stroke-opacity:1; fill:none" points="
  1743.37,507.418 1758.71,539.442 
  "/>
<polyline clip-path="url(#clip012)" style="stroke:#ff0000; stroke-linecap:butt; stroke-linejoin:round; stroke-width:4; stroke-opacity:1; fill:none" points="
  1758.71,539.442 1774.48,572.886 
  "/>
<polyline clip-path="url(#clip012)" style="stroke:#0000ff; stroke-linecap:butt; stroke-linejoin:round; stroke-width:4; stroke-opacity:1; fill:none" points="
  1774.48,572.886 1790.71,607.79 
  "/>
<polyline clip-path="url(#clip012)" style="stroke:#ff0000; stroke-linecap:butt; stroke-linejoin:round; stroke-width:4; stroke-opacity:1; fill:none" points="
  1790.71,607.79 1807.46,644.198 
  "/>
<polyline clip-path="url(#clip012)" style="stroke:#0000ff; stroke-linecap:butt; stroke-linejoin:round; stroke-width:4; stroke-opacity:1; fill:none" points="
  1807.46,644.198 1824.78,682.16 
  "/>
<polyline clip-path="url(#clip012)" style="stroke:#ff0000; stroke-linecap:butt; stroke-linejoin:round; stroke-width:4; stroke-opacity:1; fill:none" points="
  1824.78,682.16 1842.74,721.732 
  "/>
<polyline clip-path="url(#clip012)" style="stroke:#0000ff; stroke-linecap:butt; stroke-linejoin:round; stroke-width:4; stroke-opacity:1; fill:none" points="
  1842.74,721.732 1861.42,762.975 
  "/>
<polyline clip-path="url(#clip012)" style="stroke:#ff0000; stroke-linecap:butt; stroke-linejoin:round; stroke-width:4; stroke-opacity:1; fill:none" points="
  1861.42,762.975 1880.91,805.959 
  "/>
<polyline clip-path="url(#clip012)" style="stroke:#0000ff; stroke-linecap:butt; stroke-linejoin:round; stroke-width:4; stroke-opacity:1; fill:none" points="
  1880.91,805.959 1901.33,850.763 
  "/>
<polyline clip-path="url(#clip012)" style="stroke:#ff0000; stroke-linecap:butt; stroke-linejoin:round; stroke-width:4; stroke-opacity:1; fill:none" points="
  1901.33,850.763 1922.82,897.479 
  "/>
<polyline clip-path="url(#clip012)" style="stroke:#0000ff; stroke-linecap:butt; stroke-linejoin:round; stroke-width:4; stroke-opacity:1; fill:none" points="
  1922.82,897.479 1945.54,946.211 
  "/>
<polyline clip-path="url(#clip012)" style="stroke:#ff0000; stroke-linecap:butt; stroke-linejoin:round; stroke-width:4; stroke-opacity:1; fill:none" points="
  1945.54,946.211 1969.72,997.081 
  "/>
<polyline clip-path="url(#clip012)" style="stroke:#0000ff; stroke-linecap:butt; stroke-linejoin:round; stroke-width:4; stroke-opacity:1; fill:none" points="
  1969.72,997.081 1995.62,1050.23 
  "/>
<polyline clip-path="url(#clip012)" style="stroke:#ff0000; stroke-linecap:butt; stroke-linejoin:round; stroke-width:4; stroke-opacity:1; fill:none" points="
  1995.62,1050.23 2023.62,1105.84 
  "/>
<polyline clip-path="url(#clip012)" style="stroke:#0000ff; stroke-linecap:butt; stroke-linejoin:round; stroke-width:4; stroke-opacity:1; fill:none" points="
  2023.62,1105.84 2054.22,1164.12 
  "/>
<polyline clip-path="url(#clip012)" style="stroke:#ff0000; stroke-linecap:butt; stroke-linejoin:round; stroke-width:4; stroke-opacity:1; fill:none" points="
  2054.22,1164.12 2088.1,1225.34 
  "/>
<polyline clip-path="url(#clip012)" style="stroke:#0000ff; stroke-linecap:butt; stroke-linejoin:round; stroke-width:4; stroke-opacity:1; fill:none" points="
  2088.1,1225.34 2126.31,1289.83 
  "/>
<polyline clip-path="url(#clip012)" style="stroke:#ff0000; stroke-linecap:butt; stroke-linejoin:round; stroke-width:4; stroke-opacity:1; fill:none" points="
  2126.31,1289.83 2170.48,1358.07 
  "/>
<polyline clip-path="url(#clip012)" style="stroke:#0000ff; stroke-linecap:butt; stroke-linejoin:round; stroke-width:4; stroke-opacity:1; fill:none" points="
  2170.48,1358.07 2223.42,1430.71 
  "/>
<polyline clip-path="url(#clip012)" style="stroke:#ff0000; stroke-linecap:butt; stroke-linejoin:round; stroke-width:4; stroke-opacity:1; fill:none" points="
  2223.42,1430.71 2290.69,1508.78 
  "/>
<polyline clip-path="url(#clip012)" style="stroke:#0000ff; stroke-linecap:butt; stroke-linejoin:round; stroke-width:4; stroke-opacity:1; fill:none" points="
  2290.69,1508.78 2386.17,1594.1 
  "/>
<polyline clip-path="url(#clip012)" style="stroke:#ff0000; stroke-linecap:butt; stroke-linejoin:round; stroke-width:4; stroke-opacity:1; fill:none" points="
  2386.17,1594.1 2570.53,1691.19 
  "/>
<polyline clip-path="url(#clip012)" style="stroke:#000000; stroke-linecap:butt; stroke-linejoin:round; stroke-width:4; stroke-opacity:1; fill:none" points="
  229.703,1691.19 414.064,1594.1 509.542,1508.78 576.815,1430.71 629.757,1358.07 673.925,1289.83 712.134,1225.34 746.018,1164.12 776.61,1105.84 804.612,1050.23 
  830.518,997.081 854.694,946.211 877.417,897.479 898.904,850.763 919.324,805.959 938.817,762.975 957.496,721.732 975.455,682.16 992.774,644.198 1009.52,607.79 
  1025.75,572.886 1041.52,539.442 1056.87,507.418 1071.83,476.776 1086.45,447.485 1100.75,419.513 1114.76,392.832 1128.5,367.418 1142,343.247 1155.28,320.297 
  1168.35,298.55 1181.23,277.986 1193.94,258.59 1206.48,240.346 1218.88,223.241 1231.15,207.261 1243.3,192.396 1255.33,178.633 1267.27,165.965 1279.11,154.381 
  1290.87,143.874 1302.56,134.438 1314.18,126.065 1325.75,118.751 1337.27,112.49 1348.75,107.279 1360.2,103.114 1371.62,99.992 1383.03,97.9121 1394.42,96.8724 
  1405.81,96.8724 1417.21,97.9121 1428.61,99.992 1440.03,103.114 1451.48,107.279 1462.96,112.49 1474.48,118.751 1486.05,126.065 1497.67,134.438 1509.36,143.874 
  1521.12,154.381 1532.97,165.965 1544.9,178.633 1556.94,192.396 1569.08,207.261 1581.35,223.241 1593.75,240.346 1606.3,258.59 1619.01,277.986 1631.89,298.55 
  1644.96,320.297 1658.23,343.247 1671.73,367.418 1685.47,392.832 1699.48,419.513 1713.78,447.485 1728.4,476.776 1743.37,507.418 1758.71,539.442 1774.48,572.886 
  1790.71,607.79 1807.46,644.198 1824.78,682.16 1842.74,721.732 1861.42,762.975 1880.91,805.959 1901.33,850.763 1922.82,897.479 1945.54,946.211 1969.72,997.081 
  1995.62,1050.23 2023.62,1105.84 2054.22,1164.12 2088.1,1225.34 2126.31,1289.83 2170.48,1358.07 2223.42,1430.71 2290.69,1508.78 2386.17,1594.1 2570.53,1691.19 
  
  "/>
</svg>
