<?xml version="1.0" encoding="utf-8"?>
<svg xmlns="http://www.w3.org/2000/svg" xmlns:xlink="http://www.w3.org/1999/xlink" width="528" height="336" viewBox="0 0 2112 1344">
<defs>
  <clipPath id="clip970">
    <rect x="0" y="0" width="2112" height="1344"/>
  </clipPath>
</defs>
<path clip-path="url(#clip970)" d="M0 1344 L2112 1344 L2112 0 L0 0  Z" fill="#ffffff" fill-rule="evenodd" fill-opacity="1"/>
<defs>
  <clipPath id="clip971">
    <rect x="422" y="0" width="1479" height="1344"/>
  </clipPath>
</defs>
<path clip-path="url(#clip970)" d="M197.187 1173.47 L2064.76 1173.47 L2064.76 47.2441 L197.187 47.2441  Z" fill="#ffffff" fill-rule="evenodd" fill-opacity="1"/>
<defs>
  <clipPath id="clip972">
    <rect x="197" y="47" width="1869" height="1127"/>
  </clipPath>
</defs>
<polyline clip-path="url(#clip972)" style="stroke:#000000; stroke-linecap:round; stroke-linejoin:round; stroke-width:2; stroke-opacity:0.1; fill:none" points="299.907,1173.47 299.907,47.2441 "/>
<polyline clip-path="url(#clip972)" style="stroke:#000000; stroke-linecap:round; stroke-linejoin:round; stroke-width:2; stroke-opacity:0.1; fill:none" points="576.929,1173.47 576.929,47.2441 "/>
<polyline clip-path="url(#clip972)" style="stroke:#000000; stroke-linecap:round; stroke-linejoin:round; stroke-width:2; stroke-opacity:0.1; fill:none" points="853.95,1173.47 853.95,47.2441 "/>
<polyline clip-path="url(#clip972)" style="stroke:#000000; stroke-linecap:round; stroke-linejoin:round; stroke-width:2; stroke-opacity:0.1; fill:none" points="1130.97,1173.47 1130.97,47.2441 "/>
<polyline clip-path="url(#clip972)" style="stroke:#000000; stroke-linecap:round; stroke-linejoin:round; stroke-width:2; stroke-opacity:0.1; fill:none" points="1407.99,1173.47 1407.99,47.2441 "/>
<polyline clip-path="url(#clip972)" style="stroke:#000000; stroke-linecap:round; stroke-linejoin:round; stroke-width:2; stroke-opacity:0.1; fill:none" points="1685.01,1173.47 1685.01,47.2441 "/>
<polyline clip-path="url(#clip972)" style="stroke:#000000; stroke-linecap:round; stroke-linejoin:round; stroke-width:2; stroke-opacity:0.1; fill:none" points="1962.04,1173.47 1962.04,47.2441 "/>
<polyline clip-path="url(#clip970)" style="stroke:#000000; stroke-linecap:round; stroke-linejoin:round; stroke-width:4; stroke-opacity:1; fill:none" points="197.187,1173.47 2064.76,1173.47 "/>
<polyline clip-path="url(#clip970)" style="stroke:#000000; stroke-linecap:round; stroke-linejoin:round; stroke-width:4; stroke-opacity:1; fill:none" points="299.907,1173.47 299.907,1154.57 "/>
<polyline clip-path="url(#clip970)" style="stroke:#000000; stroke-linecap:round; stroke-linejoin:round; stroke-width:4; stroke-opacity:1; fill:none" points="576.929,1173.47 576.929,1154.57 "/>
<polyline clip-path="url(#clip970)" style="stroke:#000000; stroke-linecap:round; stroke-linejoin:round; stroke-width:4; stroke-opacity:1; fill:none" points="853.95,1173.47 853.95,1154.57 "/>
<polyline clip-path="url(#clip970)" style="stroke:#000000; stroke-linecap:round; stroke-linejoin:round; stroke-width:4; stroke-opacity:1; fill:none" points="1130.97,1173.47 1130.97,1154.57 "/>
<polyline clip-path="url(#clip970)" style="stroke:#000000; stroke-linecap:round; stroke-linejoin:round; stroke-width:4; stroke-opacity:1; fill:none" points="1407.99,1173.47 1407.99,1154.57 "/>
<polyline clip-path="url(#clip970)" style="stroke:#000000; stroke-linecap:round; stroke-linejoin:round; stroke-width:4; stroke-opacity:1; fill:none" points="1685.01,1173.47 1685.01,1154.57 "/>
<polyline clip-path="url(#clip970)" style="stroke:#000000; stroke-linecap:round; stroke-linejoin:round; stroke-width:4; stroke-opacity:1; fill:none" points="1962.04,1173.47 1962.04,1154.57 "/>
<path clip-path="url(#clip970)" d="M290.289 1229.63 L297.928 1229.63 L297.928 1203.27 L289.618 1204.93 L289.618 1200.67 L297.882 1199.01 L302.558 1199.01 L302.558 1229.63 L310.196 1229.63 L310.196 1233.57 L290.289 1233.57 L290.289 1229.63 Z" fill="#000000" fill-rule="nonzero" fill-opacity="1" /><path clip-path="url(#clip970)" d="M571.581 1229.63 L587.901 1229.63 L587.901 1233.57 L565.956 1233.57 L565.956 1229.63 Q568.618 1226.88 573.202 1222.25 Q577.808 1217.59 578.989 1216.25 Q581.234 1213.73 582.114 1211.99 Q583.017 1210.23 583.017 1208.54 Q583.017 1205.79 581.072 1204.05 Q579.151 1202.32 576.049 1202.32 Q573.85 1202.32 571.396 1203.08 Q568.966 1203.84 566.188 1205.4 L566.188 1200.67 Q569.012 1199.54 571.466 1198.96 Q573.919 1198.38 575.956 1198.38 Q581.327 1198.38 584.521 1201.07 Q587.716 1203.75 587.716 1208.24 Q587.716 1210.37 586.905 1212.29 Q586.118 1214.19 584.012 1216.78 Q583.433 1217.46 580.331 1220.67 Q577.23 1223.87 571.581 1229.63 Z" fill="#000000" fill-rule="nonzero" fill-opacity="1" /><path clip-path="url(#clip970)" d="M858.198 1214.93 Q861.554 1215.65 863.429 1217.92 Q865.327 1220.19 865.327 1223.52 Q865.327 1228.64 861.809 1231.44 Q858.29 1234.24 851.809 1234.24 Q849.633 1234.24 847.318 1233.8 Q845.027 1233.38 842.573 1232.53 L842.573 1228.01 Q844.517 1229.15 846.832 1229.72 Q849.147 1230.3 851.67 1230.3 Q856.068 1230.3 858.36 1228.57 Q860.675 1226.83 860.675 1223.52 Q860.675 1220.46 858.522 1218.75 Q856.392 1217.02 852.573 1217.02 L848.545 1217.02 L848.545 1213.17 L852.758 1213.17 Q856.207 1213.17 858.036 1211.81 Q859.864 1210.42 859.864 1207.83 Q859.864 1205.16 857.966 1203.75 Q856.091 1202.32 852.573 1202.32 Q850.652 1202.32 848.452 1202.73 Q846.253 1203.15 843.615 1204.03 L843.615 1199.86 Q846.277 1199.12 848.591 1198.75 Q850.929 1198.38 852.99 1198.38 Q858.314 1198.38 861.415 1200.81 Q864.517 1203.22 864.517 1207.34 Q864.517 1210.21 862.874 1212.2 Q861.23 1214.17 858.198 1214.93 Z" fill="#000000" fill-rule="nonzero" fill-opacity="1" /><path clip-path="url(#clip970)" d="M1133.98 1203.08 L1122.18 1221.53 L1133.98 1221.53 L1133.98 1203.08 M1132.75 1199.01 L1138.63 1199.01 L1138.63 1221.53 L1143.56 1221.53 L1143.56 1225.42 L1138.63 1225.42 L1138.63 1233.57 L1133.98 1233.57 L1133.98 1225.42 L1118.38 1225.42 L1118.38 1220.9 L1132.75 1199.01 Z" fill="#000000" fill-rule="nonzero" fill-opacity="1" /><path clip-path="url(#clip970)" d="M1398.27 1199.01 L1416.63 1199.01 L1416.63 1202.94 L1402.55 1202.94 L1402.55 1211.41 Q1403.57 1211.07 1404.59 1210.9 Q1405.61 1210.72 1406.63 1210.72 Q1412.41 1210.72 1415.79 1213.89 Q1419.17 1217.06 1419.17 1222.48 Q1419.17 1228.06 1415.7 1231.16 Q1412.23 1234.24 1405.91 1234.24 Q1403.73 1234.24 1401.47 1233.87 Q1399.22 1233.5 1396.81 1232.76 L1396.81 1228.06 Q1398.9 1229.19 1401.12 1229.75 Q1403.34 1230.3 1405.82 1230.3 Q1409.82 1230.3 1412.16 1228.2 Q1414.5 1226.09 1414.5 1222.48 Q1414.5 1218.87 1412.16 1216.76 Q1409.82 1214.65 1405.82 1214.65 Q1403.94 1214.65 1402.07 1215.07 Q1400.22 1215.49 1398.27 1216.37 L1398.27 1199.01 Z" fill="#000000" fill-rule="nonzero" fill-opacity="1" /><path clip-path="url(#clip970)" d="M1685.42 1214.42 Q1682.27 1214.42 1680.42 1216.58 Q1678.59 1218.73 1678.59 1222.48 Q1678.59 1226.21 1680.42 1228.38 Q1682.27 1230.53 1685.42 1230.53 Q1688.57 1230.53 1690.4 1228.38 Q1692.25 1226.21 1692.25 1222.48 Q1692.25 1218.73 1690.4 1216.58 Q1688.57 1214.42 1685.42 1214.42 M1694.7 1199.77 L1694.7 1204.03 Q1692.94 1203.2 1691.14 1202.76 Q1689.36 1202.32 1687.6 1202.32 Q1682.97 1202.32 1680.51 1205.44 Q1678.08 1208.57 1677.73 1214.89 Q1679.1 1212.87 1681.16 1211.81 Q1683.22 1210.72 1685.7 1210.72 Q1690.91 1210.72 1693.92 1213.89 Q1696.95 1217.04 1696.95 1222.48 Q1696.95 1227.8 1693.8 1231.02 Q1690.65 1234.24 1685.42 1234.24 Q1679.42 1234.24 1676.25 1229.65 Q1673.08 1225.05 1673.08 1216.32 Q1673.08 1208.13 1676.97 1203.27 Q1680.86 1198.38 1687.41 1198.38 Q1689.17 1198.38 1690.95 1198.73 Q1692.76 1199.08 1694.7 1199.77 Z" fill="#000000" fill-rule="nonzero" fill-opacity="1" /><path clip-path="url(#clip970)" d="M1950.93 1199.01 L1973.15 1199.01 L1973.15 1201 L1960.6 1233.57 L1955.72 1233.57 L1967.52 1202.94 L1950.93 1202.94 L1950.93 1199.01 Z" fill="#000000" fill-rule="nonzero" fill-opacity="1" /><path clip-path="url(#clip970)" d="M970.349 1271.78 L970.349 1308.73 L978.115 1308.73 Q987.95 1308.73 992.502 1304.28 Q997.085 1299.82 997.085 1290.21 Q997.085 1280.66 992.502 1276.23 Q987.95 1271.78 978.115 1271.78 L970.349 1271.78 M963.92 1266.49 L977.128 1266.49 Q990.942 1266.49 997.403 1272.26 Q1003.86 1277.98 1003.86 1290.21 Q1003.86 1302.49 997.371 1308.25 Q990.878 1314.01 977.128 1314.01 L963.92 1314.01 L963.92 1266.49 Z" fill="#000000" fill-rule="nonzero" fill-opacity="1" /><path clip-path="url(#clip970)" d="M1013.86 1278.37 L1019.72 1278.37 L1019.72 1314.01 L1013.86 1314.01 L1013.86 1278.37 M1013.86 1264.49 L1019.72 1264.49 L1019.72 1271.91 L1013.86 1271.91 L1013.86 1264.49 Z" fill="#000000" fill-rule="nonzero" fill-opacity="1" /><path clip-path="url(#clip970)" d="M1057.62 1279.74 L1057.62 1285.21 Q1055.14 1283.84 1052.63 1283.17 Q1050.14 1282.47 1047.6 1282.47 Q1041.9 1282.47 1038.75 1286.1 Q1035.6 1289.7 1035.6 1296.22 Q1035.6 1302.75 1038.75 1306.38 Q1041.9 1309.97 1047.6 1309.97 Q1050.14 1309.97 1052.63 1309.3 Q1055.14 1308.6 1057.62 1307.24 L1057.62 1312.65 Q1055.17 1313.79 1052.53 1314.36 Q1049.92 1314.94 1046.96 1314.94 Q1038.91 1314.94 1034.17 1309.88 Q1029.42 1304.82 1029.42 1296.22 Q1029.42 1287.5 1034.2 1282.5 Q1039 1277.51 1047.34 1277.51 Q1050.05 1277.51 1052.63 1278.08 Q1055.2 1278.62 1057.62 1279.74 Z" fill="#000000" fill-rule="nonzero" fill-opacity="1" /><path clip-path="url(#clip970)" d="M1098.3 1294.73 L1098.3 1297.59 L1071.37 1297.59 Q1071.75 1303.64 1075 1306.82 Q1078.28 1309.97 1084.1 1309.97 Q1087.48 1309.97 1090.63 1309.14 Q1093.81 1308.32 1096.93 1306.66 L1096.93 1312.2 Q1093.78 1313.54 1090.47 1314.24 Q1087.16 1314.94 1083.75 1314.94 Q1075.22 1314.94 1070.23 1309.97 Q1065.26 1305.01 1065.26 1296.54 Q1065.26 1287.79 1069.97 1282.66 Q1074.71 1277.51 1082.74 1277.51 Q1089.93 1277.51 1094.1 1282.15 Q1098.3 1286.77 1098.3 1294.73 M1092.44 1293.01 Q1092.38 1288.2 1089.74 1285.34 Q1087.13 1282.47 1082.8 1282.47 Q1077.9 1282.47 1074.94 1285.24 Q1072.01 1288.01 1071.56 1293.04 L1092.44 1293.01 Z" fill="#000000" fill-rule="nonzero" fill-opacity="1" /><path clip-path="url(#clip970)" d="M1141.14 1314.01 L1123 1266.49 L1129.71 1266.49 L1144.77 1306.5 L1159.86 1266.49 L1166.54 1266.49 L1148.43 1314.01 L1141.14 1314.01 Z" fill="#000000" fill-rule="nonzero" fill-opacity="1" /><path clip-path="url(#clip970)" d="M1184.36 1296.1 Q1177.27 1296.1 1174.53 1297.72 Q1171.79 1299.34 1171.79 1303.26 Q1171.79 1306.38 1173.83 1308.22 Q1175.9 1310.04 1179.43 1310.04 Q1184.3 1310.04 1187.23 1306.6 Q1190.19 1303.13 1190.19 1297.4 L1190.19 1296.1 L1184.36 1296.1 M1196.05 1293.68 L1196.05 1314.01 L1190.19 1314.01 L1190.19 1308.6 Q1188.18 1311.85 1185.19 1313.41 Q1182.2 1314.94 1177.87 1314.94 Q1172.4 1314.94 1169.15 1311.88 Q1165.94 1308.79 1165.94 1303.64 Q1165.94 1297.62 1169.95 1294.57 Q1173.99 1291.51 1181.98 1291.51 L1190.19 1291.51 L1190.19 1290.94 Q1190.19 1286.9 1187.52 1284.7 Q1184.87 1282.47 1180.07 1282.47 Q1177.01 1282.47 1174.12 1283.2 Q1171.22 1283.94 1168.55 1285.4 L1168.55 1279.99 Q1171.76 1278.75 1174.78 1278.14 Q1177.81 1277.51 1180.67 1277.51 Q1188.41 1277.51 1192.23 1281.52 Q1196.05 1285.53 1196.05 1293.68 Z" fill="#000000" fill-rule="nonzero" fill-opacity="1" /><path clip-path="url(#clip970)" d="M1208.11 1264.49 L1213.96 1264.49 L1213.96 1314.01 L1208.11 1314.01 L1208.11 1264.49 Z" fill="#000000" fill-rule="nonzero" fill-opacity="1" /><path clip-path="url(#clip970)" d="M1225.61 1299.95 L1225.61 1278.37 L1231.47 1278.37 L1231.47 1299.72 Q1231.47 1304.78 1233.44 1307.33 Q1235.42 1309.85 1239.36 1309.85 Q1244.11 1309.85 1246.84 1306.82 Q1249.61 1303.8 1249.61 1298.58 L1249.61 1278.37 L1255.47 1278.37 L1255.47 1314.01 L1249.61 1314.01 L1249.61 1308.54 Q1247.48 1311.79 1244.65 1313.38 Q1241.85 1314.94 1238.12 1314.94 Q1231.98 1314.94 1228.8 1311.12 Q1225.61 1307.3 1225.61 1299.95 M1240.35 1277.51 L1240.35 1277.51 Z" fill="#000000" fill-rule="nonzero" fill-opacity="1" /><path clip-path="url(#clip970)" d="M1298.02 1294.73 L1298.02 1297.59 L1271.1 1297.59 Q1271.48 1303.64 1274.73 1306.82 Q1278 1309.97 1283.83 1309.97 Q1287.2 1309.97 1290.35 1309.14 Q1293.54 1308.32 1296.66 1306.66 L1296.66 1312.2 Q1293.5 1313.54 1290.19 1314.24 Q1286.88 1314.94 1283.48 1314.94 Q1274.95 1314.94 1269.95 1309.97 Q1264.99 1305.01 1264.99 1296.54 Q1264.99 1287.79 1269.7 1282.66 Q1274.44 1277.51 1282.46 1277.51 Q1289.65 1277.51 1293.82 1282.15 Q1298.02 1286.77 1298.02 1294.73 M1292.17 1293.01 Q1292.1 1288.2 1289.46 1285.34 Q1286.85 1282.47 1282.52 1282.47 Q1277.62 1282.47 1274.66 1285.24 Q1271.73 1288.01 1271.29 1293.04 L1292.17 1293.01 Z" fill="#000000" fill-rule="nonzero" fill-opacity="1" /><polyline clip-path="url(#clip972)" style="stroke:#000000; stroke-linecap:round; stroke-linejoin:round; stroke-width:2; stroke-opacity:0.1; fill:none" points="197.187,1173.47 2064.76,1173.47 "/>
<polyline clip-path="url(#clip972)" style="stroke:#000000; stroke-linecap:round; stroke-linejoin:round; stroke-width:2; stroke-opacity:0.1; fill:none" points="197.187,877.095 2064.76,877.095 "/>
<polyline clip-path="url(#clip972)" style="stroke:#000000; stroke-linecap:round; stroke-linejoin:round; stroke-width:2; stroke-opacity:0.1; fill:none" points="197.187,580.72 2064.76,580.72 "/>
<polyline clip-path="url(#clip972)" style="stroke:#000000; stroke-linecap:round; stroke-linejoin:round; stroke-width:2; stroke-opacity:0.1; fill:none" points="197.187,284.344 2064.76,284.344 "/>
<polyline clip-path="url(#clip970)" style="stroke:#000000; stroke-linecap:round; stroke-linejoin:round; stroke-width:4; stroke-opacity:1; fill:none" points="197.187,1173.47 197.187,47.2441 "/>
<polyline clip-path="url(#clip970)" style="stroke:#000000; stroke-linecap:round; stroke-linejoin:round; stroke-width:4; stroke-opacity:1; fill:none" points="197.187,1173.47 216.085,1173.47 "/>
<polyline clip-path="url(#clip970)" style="stroke:#000000; stroke-linecap:round; stroke-linejoin:round; stroke-width:4; stroke-opacity:1; fill:none" points="197.187,877.095 216.085,877.095 "/>
<polyline clip-path="url(#clip970)" style="stroke:#000000; stroke-linecap:round; stroke-linejoin:round; stroke-width:4; stroke-opacity:1; fill:none" points="197.187,580.72 216.085,580.72 "/>
<polyline clip-path="url(#clip970)" style="stroke:#000000; stroke-linecap:round; stroke-linejoin:round; stroke-width:4; stroke-opacity:1; fill:none" points="197.187,284.344 216.085,284.344 "/>
<path clip-path="url(#clip970)" d="M153.563 1159.27 Q149.952 1159.27 148.123 1162.83 Q146.318 1166.38 146.318 1173.51 Q146.318 1180.61 148.123 1184.18 Q149.952 1187.72 153.563 1187.72 Q157.197 1187.72 159.003 1184.18 Q160.832 1180.61 160.832 1173.51 Q160.832 1166.38 159.003 1162.83 Q157.197 1159.27 153.563 1159.27 M153.563 1155.57 Q159.373 1155.57 162.429 1160.17 Q165.507 1164.76 165.507 1173.51 Q165.507 1182.23 162.429 1186.84 Q159.373 1191.42 153.563 1191.42 Q147.753 1191.42 144.674 1186.84 Q141.619 1182.23 141.619 1173.51 Q141.619 1164.76 144.674 1160.17 Q147.753 1155.57 153.563 1155.57 Z" fill="#000000" fill-rule="nonzero" fill-opacity="1" /><path clip-path="url(#clip970)" d="M144.605 859.815 L162.961 859.815 L162.961 863.75 L148.887 863.75 L148.887 872.223 Q149.906 871.875 150.924 871.713 Q151.943 871.528 152.961 871.528 Q158.748 871.528 162.128 874.699 Q165.507 877.871 165.507 883.287 Q165.507 888.866 162.035 891.968 Q158.563 895.047 152.244 895.047 Q150.068 895.047 147.799 894.676 Q145.554 894.306 143.146 893.565 L143.146 888.866 Q145.23 890 147.452 890.556 Q149.674 891.111 152.151 891.111 Q156.156 891.111 158.494 889.005 Q160.832 886.899 160.832 883.287 Q160.832 879.676 158.494 877.57 Q156.156 875.463 152.151 875.463 Q150.276 875.463 148.401 875.88 Q146.549 876.297 144.605 877.176 L144.605 859.815 Z" fill="#000000" fill-rule="nonzero" fill-opacity="1" /><path clip-path="url(#clip970)" d="M114.211 594.065 L121.85 594.065 L121.85 567.699 L113.54 569.366 L113.54 565.107 L121.804 563.44 L126.48 563.44 L126.48 594.065 L134.119 594.065 L134.119 598 L114.211 598 L114.211 594.065 Z" fill="#000000" fill-rule="nonzero" fill-opacity="1" /><path clip-path="url(#clip970)" d="M153.563 566.519 Q149.952 566.519 148.123 570.083 Q146.318 573.625 146.318 580.755 Q146.318 587.861 148.123 591.426 Q149.952 594.967 153.563 594.967 Q157.197 594.967 159.003 591.426 Q160.832 587.861 160.832 580.755 Q160.832 573.625 159.003 570.083 Q157.197 566.519 153.563 566.519 M153.563 562.815 Q159.373 562.815 162.429 567.421 Q165.507 572.005 165.507 580.755 Q165.507 589.481 162.429 594.088 Q159.373 598.671 153.563 598.671 Q147.753 598.671 144.674 594.088 Q141.619 589.481 141.619 580.755 Q141.619 572.005 144.674 567.421 Q147.753 562.815 153.563 562.815 Z" fill="#000000" fill-rule="nonzero" fill-opacity="1" /><path clip-path="url(#clip970)" d="M115.207 297.689 L122.846 297.689 L122.846 271.324 L114.536 272.99 L114.536 268.731 L122.799 267.064 L127.475 267.064 L127.475 297.689 L135.114 297.689 L135.114 301.624 L115.207 301.624 L115.207 297.689 Z" fill="#000000" fill-rule="nonzero" fill-opacity="1" /><path clip-path="url(#clip970)" d="M144.605 267.064 L162.961 267.064 L162.961 271 L148.887 271 L148.887 279.472 Q149.906 279.125 150.924 278.963 Q151.943 278.777 152.961 278.777 Q158.748 278.777 162.128 281.949 Q165.507 285.12 165.507 290.537 Q165.507 296.115 162.035 299.217 Q158.563 302.296 152.244 302.296 Q150.068 302.296 147.799 301.925 Q145.554 301.555 143.146 300.814 L143.146 296.115 Q145.23 297.249 147.452 297.805 Q149.674 298.361 152.151 298.361 Q156.156 298.361 158.494 296.254 Q160.832 294.148 160.832 290.537 Q160.832 286.925 158.494 284.819 Q156.156 282.713 152.151 282.713 Q150.276 282.713 148.401 283.129 Q146.549 283.546 144.605 284.425 L144.605 267.064 Z" fill="#000000" fill-rule="nonzero" fill-opacity="1" /><path clip-path="url(#clip970)" d="M23.7444 666.216 L30.5239 666.216 Q27.5002 669.463 26.0043 673.155 Q24.5083 676.815 24.5083 680.953 Q24.5083 689.101 29.5054 693.43 Q34.4707 697.759 43.8919 697.759 Q53.2813 697.759 58.2784 693.43 Q63.2436 689.101 63.2436 680.953 Q63.2436 676.815 61.7477 673.155 Q60.2518 669.463 57.2281 666.216 L63.9439 666.216 Q66.2355 669.59 67.3814 673.378 Q68.5272 677.134 68.5272 681.335 Q68.5272 692.125 61.9387 698.331 Q55.3183 704.538 43.8919 704.538 Q32.4336 704.538 25.8451 698.331 Q19.2248 692.125 19.2248 681.335 Q19.2248 677.07 20.3706 673.314 Q21.4846 669.527 23.7444 666.216 Z" fill="#000000" fill-rule="nonzero" fill-opacity="1" /><path clip-path="url(#clip970)" d="M36.0621 642.727 Q36.0621 647.438 39.7542 650.175 Q43.4145 652.912 49.812 652.912 Q56.2095 652.912 59.9017 650.207 Q63.5619 647.469 63.5619 642.727 Q63.5619 638.048 59.8698 635.311 Q56.1777 632.574 49.812 632.574 Q43.4781 632.574 39.786 635.311 Q36.0621 638.048 36.0621 642.727 M31.0968 642.727 Q31.0968 635.088 36.0621 630.728 Q41.0273 626.367 49.812 626.367 Q58.5649 626.367 63.5619 630.728 Q68.5272 635.088 68.5272 642.727 Q68.5272 650.398 63.5619 654.758 Q58.5649 659.087 49.812 659.087 Q41.0273 659.087 36.0621 654.758 Q31.0968 650.398 31.0968 642.727 Z" fill="#000000" fill-rule="nonzero" fill-opacity="1" /><path clip-path="url(#clip970)" d="M53.5359 617.264 L31.9562 617.264 L31.9562 611.408 L53.3131 611.408 Q58.3739 611.408 60.9202 609.434 Q63.4346 607.461 63.4346 603.514 Q63.4346 598.772 60.4109 596.035 Q57.3872 593.266 52.1673 593.266 L31.9562 593.266 L31.9562 587.409 L67.6042 587.409 L67.6042 593.266 L62.1296 593.266 Q65.3762 595.398 66.9676 598.231 Q68.5272 601.032 68.5272 604.756 Q68.5272 610.899 64.7078 614.081 Q60.8883 617.264 53.5359 617.264 M31.0968 602.528 L31.0968 602.528 Z" fill="#000000" fill-rule="nonzero" fill-opacity="1" /><path clip-path="url(#clip970)" d="M46.0881 545.714 L67.6042 545.714 L67.6042 551.57 L46.279 551.57 Q41.2183 551.57 38.7038 553.543 Q36.1894 555.517 36.1894 559.464 Q36.1894 564.206 39.2131 566.943 Q42.2368 569.681 47.4567 569.681 L67.6042 569.681 L67.6042 575.569 L31.9562 575.569 L31.9562 569.681 L37.4944 569.681 Q34.2797 567.58 32.6883 564.747 Q31.0968 561.883 31.0968 558.159 Q31.0968 552.016 34.9163 548.865 Q38.7038 545.714 46.0881 545.714 Z" fill="#000000" fill-rule="nonzero" fill-opacity="1" /><path clip-path="url(#clip970)" d="M21.8347 528.24 L31.9562 528.24 L31.9562 516.177 L36.5077 516.177 L36.5077 528.24 L55.8594 528.24 Q60.2199 528.24 61.4613 527.062 Q62.7026 525.853 62.7026 522.192 L62.7026 516.177 L67.6042 516.177 L67.6042 522.192 Q67.6042 528.972 65.0897 531.55 Q62.5434 534.128 55.8594 534.128 L36.5077 534.128 L36.5077 538.425 L31.9562 538.425 L31.9562 534.128 L21.8347 534.128 L21.8347 528.24 Z" fill="#000000" fill-rule="nonzero" fill-opacity="1" /><path clip-path="url(#clip972)" d="M299.907 343.62 L299.907 1173.47 L576.929 1173.47 L576.929 343.62 L299.907 343.62 L299.907 343.62  Z" fill="#009af9" fill-rule="evenodd" fill-opacity="1"/>
<polyline clip-path="url(#clip972)" style="stroke:#000000; stroke-linecap:round; stroke-linejoin:round; stroke-width:4; stroke-opacity:1; fill:none" points="299.907,343.62 299.907,1173.47 576.929,1173.47 576.929,343.62 299.907,343.62 "/>
<path clip-path="url(#clip972)" d="M576.929 343.62 L576.929 1173.47 L853.95 1173.47 L853.95 343.62 L576.929 343.62 L576.929 343.62  Z" fill="#009af9" fill-rule="evenodd" fill-opacity="1"/>
<polyline clip-path="url(#clip972)" style="stroke:#000000; stroke-linecap:round; stroke-linejoin:round; stroke-width:4; stroke-opacity:1; fill:none" points="576.929,343.62 576.929,1173.47 853.95,1173.47 853.95,343.62 576.929,343.62 "/>
<path clip-path="url(#clip972)" d="M853.95 106.519 L853.95 1173.47 L1130.97 1173.47 L1130.97 106.519 L853.95 106.519 L853.95 106.519  Z" fill="#009af9" fill-rule="evenodd" fill-opacity="1"/>
<polyline clip-path="url(#clip972)" style="stroke:#000000; stroke-linecap:round; stroke-linejoin:round; stroke-width:4; stroke-opacity:1; fill:none" points="853.95,106.519 853.95,1173.47 1130.97,1173.47 1130.97,106.519 853.95,106.519 "/>
<path clip-path="url(#clip972)" d="M1130.97 47.2441 L1130.97 1173.47 L1407.99 1173.47 L1407.99 47.2441 L1130.97 47.2441 L1130.97 47.2441  Z" fill="#009af9" fill-rule="evenodd" fill-opacity="1"/>
<polyline clip-path="url(#clip972)" style="stroke:#000000; stroke-linecap:round; stroke-linejoin:round; stroke-width:4; stroke-opacity:1; fill:none" points="1130.97,47.2441 1130.97,1173.47 1407.99,1173.47 1407.99,47.2441 1130.97,47.2441 "/>
<path clip-path="url(#clip972)" d="M1407.99 225.069 L1407.99 1173.47 L1685.01 1173.47 L1685.01 225.069 L1407.99 225.069 L1407.99 225.069  Z" fill="#009af9" fill-rule="evenodd" fill-opacity="1"/>
<polyline clip-path="url(#clip972)" style="stroke:#000000; stroke-linecap:round; stroke-linejoin:round; stroke-width:4; stroke-opacity:1; fill:none" points="1407.99,225.069 1407.99,1173.47 1685.01,1173.47 1685.01,225.069 1407.99,225.069 "/>
<path clip-path="url(#clip972)" d="M1685.01 47.2441 L1685.01 1173.47 L1962.04 1173.47 L1962.04 47.2441 L1685.01 47.2441 L1685.01 47.2441  Z" fill="#009af9" fill-rule="evenodd" fill-opacity="1"/>
<polyline clip-path="url(#clip972)" style="stroke:#000000; stroke-linecap:round; stroke-linejoin:round; stroke-width:4; stroke-opacity:1; fill:none" points="1685.01,47.2441 1685.01,1173.47 1962.04,1173.47 1962.04,47.2441 1685.01,47.2441 "/>
<circle clip-path="url(#clip972)" style="fill:#009af9; stroke:none; fill-opacity:0" cx="438.418" cy="343.62" r="2"/>
<circle clip-path="url(#clip972)" style="fill:#009af9; stroke:none; fill-opacity:0" cx="715.439" cy="343.62" r="2"/>
<circle clip-path="url(#clip972)" style="fill:#009af9; stroke:none; fill-opacity:0" cx="992.461" cy="106.519" r="2"/>
<circle clip-path="url(#clip972)" style="fill:#009af9; stroke:none; fill-opacity:0" cx="1269.48" cy="47.2441" r="2"/>
<circle clip-path="url(#clip972)" style="fill:#009af9; stroke:none; fill-opacity:0" cx="1546.5" cy="225.069" r="2"/>
<circle clip-path="url(#clip972)" style="fill:#009af9; stroke:none; fill-opacity:0" cx="1823.53" cy="47.2441" r="2"/>
</svg>
