<?xml version="1.0" encoding="utf-8"?>
<svg xmlns="http://www.w3.org/2000/svg" xmlns:xlink="http://www.w3.org/1999/xlink" width="528" height="336" viewBox="0 0 2112 1344">
<defs>
  <clipPath id="clip800">
    <rect x="0" y="0" width="2112" height="1344"/>
  </clipPath>
</defs>
<path clip-path="url(#clip800)" d="M0 1344 L2112 1344 L2112 0 L0 0  Z" fill="#ffffff" fill-rule="evenodd" fill-opacity="1"/>
<defs>
  <clipPath id="clip801">
    <rect x="422" y="0" width="1479" height="1344"/>
  </clipPath>
</defs>
<path clip-path="url(#clip800)" d="M198.924 1173.47 L2064.76 1173.47 L2064.76 47.2441 L198.924 47.2441  Z" fill="#ffffff" fill-rule="evenodd" fill-opacity="1"/>
<defs>
  <clipPath id="clip802">
    <rect x="198" y="47" width="1867" height="1127"/>
  </clipPath>
</defs>
<polyline clip-path="url(#clip802)" style="stroke:#000000; stroke-linecap:round; stroke-linejoin:round; stroke-width:2; stroke-opacity:0.1; fill:none" points="301.548,1173.47 301.548,47.2441 "/>
<polyline clip-path="url(#clip802)" style="stroke:#000000; stroke-linecap:round; stroke-linejoin:round; stroke-width:2; stroke-opacity:0.1; fill:none" points="578.312,1173.47 578.312,47.2441 "/>
<polyline clip-path="url(#clip802)" style="stroke:#000000; stroke-linecap:round; stroke-linejoin:round; stroke-width:2; stroke-opacity:0.1; fill:none" points="855.076,1173.47 855.076,47.2441 "/>
<polyline clip-path="url(#clip802)" style="stroke:#000000; stroke-linecap:round; stroke-linejoin:round; stroke-width:2; stroke-opacity:0.1; fill:none" points="1131.84,1173.47 1131.84,47.2441 "/>
<polyline clip-path="url(#clip802)" style="stroke:#000000; stroke-linecap:round; stroke-linejoin:round; stroke-width:2; stroke-opacity:0.1; fill:none" points="1408.6,1173.47 1408.6,47.2441 "/>
<polyline clip-path="url(#clip802)" style="stroke:#000000; stroke-linecap:round; stroke-linejoin:round; stroke-width:2; stroke-opacity:0.1; fill:none" points="1685.37,1173.47 1685.37,47.2441 "/>
<polyline clip-path="url(#clip802)" style="stroke:#000000; stroke-linecap:round; stroke-linejoin:round; stroke-width:2; stroke-opacity:0.1; fill:none" points="1962.13,1173.47 1962.13,47.2441 "/>
<polyline clip-path="url(#clip800)" style="stroke:#000000; stroke-linecap:round; stroke-linejoin:round; stroke-width:4; stroke-opacity:1; fill:none" points="198.924,1173.47 2064.76,1173.47 "/>
<polyline clip-path="url(#clip800)" style="stroke:#000000; stroke-linecap:round; stroke-linejoin:round; stroke-width:4; stroke-opacity:1; fill:none" points="301.548,1173.47 301.548,1154.57 "/>
<polyline clip-path="url(#clip800)" style="stroke:#000000; stroke-linecap:round; stroke-linejoin:round; stroke-width:4; stroke-opacity:1; fill:none" points="578.312,1173.47 578.312,1154.57 "/>
<polyline clip-path="url(#clip800)" style="stroke:#000000; stroke-linecap:round; stroke-linejoin:round; stroke-width:4; stroke-opacity:1; fill:none" points="855.076,1173.47 855.076,1154.57 "/>
<polyline clip-path="url(#clip800)" style="stroke:#000000; stroke-linecap:round; stroke-linejoin:round; stroke-width:4; stroke-opacity:1; fill:none" points="1131.84,1173.47 1131.84,1154.57 "/>
<polyline clip-path="url(#clip800)" style="stroke:#000000; stroke-linecap:round; stroke-linejoin:round; stroke-width:4; stroke-opacity:1; fill:none" points="1408.6,1173.47 1408.6,1154.57 "/>
<polyline clip-path="url(#clip800)" style="stroke:#000000; stroke-linecap:round; stroke-linejoin:round; stroke-width:4; stroke-opacity:1; fill:none" points="1685.37,1173.47 1685.37,1154.57 "/>
<polyline clip-path="url(#clip800)" style="stroke:#000000; stroke-linecap:round; stroke-linejoin:round; stroke-width:4; stroke-opacity:1; fill:none" points="1962.13,1173.47 1962.13,1154.57 "/>
<path clip-path="url(#clip800)" d="M291.93 1229.63 L299.569 1229.63 L299.569 1203.27 L291.258 1204.93 L291.258 1200.67 L299.522 1199.01 L304.198 1199.01 L304.198 1229.63 L311.837 1229.63 L311.837 1233.57 L291.93 1233.57 L291.93 1229.63 Z" fill="#000000" fill-rule="nonzero" fill-opacity="1" /><path clip-path="url(#clip800)" d="M572.965 1229.63 L589.284 1229.63 L589.284 1233.57 L567.34 1233.57 L567.34 1229.63 Q570.002 1226.88 574.585 1222.25 Q579.191 1217.59 580.372 1216.25 Q582.617 1213.73 583.497 1211.99 Q584.4 1210.23 584.4 1208.54 Q584.4 1205.79 582.455 1204.05 Q580.534 1202.32 577.432 1202.32 Q575.233 1202.32 572.779 1203.08 Q570.349 1203.84 567.571 1205.4 L567.571 1200.67 Q570.395 1199.54 572.849 1198.96 Q575.302 1198.38 577.339 1198.38 Q582.71 1198.38 585.904 1201.07 Q589.099 1203.75 589.099 1208.24 Q589.099 1210.37 588.288 1212.29 Q587.501 1214.19 585.395 1216.78 Q584.816 1217.46 581.714 1220.67 Q578.613 1223.87 572.965 1229.63 Z" fill="#000000" fill-rule="nonzero" fill-opacity="1" /><path clip-path="url(#clip800)" d="M859.323 1214.93 Q862.68 1215.65 864.555 1217.92 Q866.453 1220.19 866.453 1223.52 Q866.453 1228.64 862.934 1231.44 Q859.416 1234.24 852.935 1234.24 Q850.759 1234.24 848.444 1233.8 Q846.152 1233.38 843.698 1232.53 L843.698 1228.01 Q845.643 1229.15 847.958 1229.72 Q850.273 1230.3 852.796 1230.3 Q857.194 1230.3 859.485 1228.57 Q861.8 1226.83 861.8 1223.52 Q861.8 1220.46 859.647 1218.75 Q857.518 1217.02 853.698 1217.02 L849.671 1217.02 L849.671 1213.17 L853.884 1213.17 Q857.333 1213.17 859.161 1211.81 Q860.99 1210.42 860.99 1207.83 Q860.99 1205.16 859.092 1203.75 Q857.217 1202.32 853.698 1202.32 Q851.777 1202.32 849.578 1202.73 Q847.379 1203.15 844.74 1204.03 L844.74 1199.86 Q847.402 1199.12 849.717 1198.75 Q852.055 1198.38 854.115 1198.38 Q859.439 1198.38 862.541 1200.81 Q865.643 1203.22 865.643 1207.34 Q865.643 1210.21 863.999 1212.2 Q862.356 1214.17 859.323 1214.93 Z" fill="#000000" fill-rule="nonzero" fill-opacity="1" /><path clip-path="url(#clip800)" d="M1134.85 1203.08 L1123.04 1221.53 L1134.85 1221.53 L1134.85 1203.08 M1133.62 1199.01 L1139.5 1199.01 L1139.5 1221.53 L1144.43 1221.53 L1144.43 1225.42 L1139.5 1225.42 L1139.5 1233.57 L1134.85 1233.57 L1134.85 1225.42 L1119.25 1225.42 L1119.25 1220.9 L1133.62 1199.01 Z" fill="#000000" fill-rule="nonzero" fill-opacity="1" /><path clip-path="url(#clip800)" d="M1398.88 1199.01 L1417.24 1199.01 L1417.24 1202.94 L1403.16 1202.94 L1403.16 1211.41 Q1404.18 1211.07 1405.2 1210.9 Q1406.22 1210.72 1407.24 1210.72 Q1413.03 1210.72 1416.4 1213.89 Q1419.78 1217.06 1419.78 1222.48 Q1419.78 1228.06 1416.31 1231.16 Q1412.84 1234.24 1406.52 1234.24 Q1404.34 1234.24 1402.08 1233.87 Q1399.83 1233.5 1397.42 1232.76 L1397.42 1228.06 Q1399.51 1229.19 1401.73 1229.75 Q1403.95 1230.3 1406.43 1230.3 Q1410.43 1230.3 1412.77 1228.2 Q1415.11 1226.09 1415.11 1222.48 Q1415.11 1218.87 1412.77 1216.76 Q1410.43 1214.65 1406.43 1214.65 Q1404.55 1214.65 1402.68 1215.07 Q1400.83 1215.49 1398.88 1216.37 L1398.88 1199.01 Z" fill="#000000" fill-rule="nonzero" fill-opacity="1" /><path clip-path="url(#clip800)" d="M1685.77 1214.42 Q1682.62 1214.42 1680.77 1216.58 Q1678.94 1218.73 1678.94 1222.48 Q1678.94 1226.21 1680.77 1228.38 Q1682.62 1230.53 1685.77 1230.53 Q1688.92 1230.53 1690.75 1228.38 Q1692.6 1226.21 1692.6 1222.48 Q1692.6 1218.73 1690.75 1216.58 Q1688.92 1214.42 1685.77 1214.42 M1695.06 1199.77 L1695.06 1204.03 Q1693.3 1203.2 1691.49 1202.76 Q1689.71 1202.32 1687.95 1202.32 Q1683.32 1202.32 1680.87 1205.44 Q1678.43 1208.57 1678.09 1214.89 Q1679.45 1212.87 1681.51 1211.81 Q1683.57 1210.72 1686.05 1210.72 Q1691.26 1210.72 1694.27 1213.89 Q1697.3 1217.04 1697.3 1222.48 Q1697.3 1227.8 1694.15 1231.02 Q1691 1234.24 1685.77 1234.24 Q1679.78 1234.24 1676.61 1229.65 Q1673.43 1225.05 1673.43 1216.32 Q1673.43 1208.13 1677.32 1203.27 Q1681.21 1198.38 1687.76 1198.38 Q1689.52 1198.38 1691.31 1198.73 Q1693.11 1199.08 1695.06 1199.77 Z" fill="#000000" fill-rule="nonzero" fill-opacity="1" /><path clip-path="url(#clip800)" d="M1951.02 1199.01 L1973.24 1199.01 L1973.24 1201 L1960.7 1233.57 L1955.81 1233.57 L1967.62 1202.94 L1951.02 1202.94 L1951.02 1199.01 Z" fill="#000000" fill-rule="nonzero" fill-opacity="1" /><path clip-path="url(#clip800)" d="M971.217 1271.78 L971.217 1308.73 L978.983 1308.73 Q988.818 1308.73 993.37 1304.28 Q997.953 1299.82 997.953 1290.21 Q997.953 1280.66 993.37 1276.23 Q988.818 1271.78 978.983 1271.78 L971.217 1271.78 M964.788 1266.49 L977.997 1266.49 Q991.81 1266.49 998.271 1272.26 Q1004.73 1277.98 1004.73 1290.21 Q1004.73 1302.49 998.239 1308.25 Q991.746 1314.01 977.997 1314.01 L964.788 1314.01 L964.788 1266.49 Z" fill="#000000" fill-rule="nonzero" fill-opacity="1" /><path clip-path="url(#clip800)" d="M1014.73 1278.37 L1020.58 1278.37 L1020.58 1314.01 L1014.73 1314.01 L1014.73 1278.37 M1014.73 1264.49 L1020.58 1264.49 L1020.58 1271.91 L1014.73 1271.91 L1014.73 1264.49 Z" fill="#000000" fill-rule="nonzero" fill-opacity="1" /><path clip-path="url(#clip800)" d="M1058.49 1279.74 L1058.49 1285.21 Q1056.01 1283.84 1053.49 1283.17 Q1051.01 1282.47 1048.46 1282.47 Q1042.77 1282.47 1039.62 1286.1 Q1036.47 1289.7 1036.47 1296.22 Q1036.47 1302.75 1039.62 1306.38 Q1042.77 1309.97 1048.46 1309.97 Q1051.01 1309.97 1053.49 1309.3 Q1056.01 1308.6 1058.49 1307.24 L1058.49 1312.65 Q1056.04 1313.79 1053.4 1314.36 Q1050.79 1314.94 1047.83 1314.94 Q1039.78 1314.94 1035.03 1309.88 Q1030.29 1304.82 1030.29 1296.22 Q1030.29 1287.5 1035.07 1282.5 Q1039.87 1277.51 1048.21 1277.51 Q1050.92 1277.51 1053.49 1278.08 Q1056.07 1278.62 1058.49 1279.74 Z" fill="#000000" fill-rule="nonzero" fill-opacity="1" /><path clip-path="url(#clip800)" d="M1099.17 1294.73 L1099.17 1297.59 L1072.24 1297.59 Q1072.62 1303.64 1075.87 1306.82 Q1079.15 1309.97 1084.97 1309.97 Q1088.35 1309.97 1091.5 1309.14 Q1094.68 1308.32 1097.8 1306.66 L1097.8 1312.2 Q1094.65 1313.54 1091.34 1314.24 Q1088.03 1314.94 1084.62 1314.94 Q1076.09 1314.94 1071.09 1309.97 Q1066.13 1305.01 1066.13 1296.54 Q1066.13 1287.79 1070.84 1282.66 Q1075.58 1277.51 1083.6 1277.51 Q1090.8 1277.51 1094.97 1282.15 Q1099.17 1286.77 1099.17 1294.73 M1093.31 1293.01 Q1093.25 1288.2 1090.61 1285.34 Q1088 1282.47 1083.67 1282.47 Q1078.77 1282.47 1075.81 1285.24 Q1072.88 1288.01 1072.43 1293.04 L1093.31 1293.01 Z" fill="#000000" fill-rule="nonzero" fill-opacity="1" /><path clip-path="url(#clip800)" d="M1142.01 1314.01 L1123.87 1266.49 L1130.58 1266.49 L1145.64 1306.5 L1160.72 1266.49 L1167.41 1266.49 L1149.3 1314.01 L1142.01 1314.01 Z" fill="#000000" fill-rule="nonzero" fill-opacity="1" /><path clip-path="url(#clip800)" d="M1185.23 1296.1 Q1178.13 1296.1 1175.4 1297.72 Q1172.66 1299.34 1172.66 1303.26 Q1172.66 1306.38 1174.7 1308.22 Q1176.77 1310.04 1180.3 1310.04 Q1185.17 1310.04 1188.1 1306.6 Q1191.06 1303.13 1191.06 1297.4 L1191.06 1296.1 L1185.23 1296.1 M1196.91 1293.68 L1196.91 1314.01 L1191.06 1314.01 L1191.06 1308.6 Q1189.05 1311.85 1186.06 1313.41 Q1183.07 1314.94 1178.74 1314.94 Q1173.26 1314.94 1170.02 1311.88 Q1166.8 1308.79 1166.8 1303.64 Q1166.8 1297.62 1170.81 1294.57 Q1174.86 1291.51 1182.84 1291.51 L1191.06 1291.51 L1191.06 1290.94 Q1191.06 1286.9 1188.38 1284.7 Q1185.74 1282.47 1180.94 1282.47 Q1177.88 1282.47 1174.98 1283.2 Q1172.09 1283.94 1169.41 1285.4 L1169.41 1279.99 Q1172.63 1278.75 1175.65 1278.14 Q1178.68 1277.51 1181.54 1277.51 Q1189.27 1277.51 1193.09 1281.52 Q1196.91 1285.53 1196.91 1293.68 Z" fill="#000000" fill-rule="nonzero" fill-opacity="1" /><path clip-path="url(#clip800)" d="M1208.98 1264.49 L1214.83 1264.49 L1214.83 1314.01 L1208.98 1314.01 L1208.98 1264.49 Z" fill="#000000" fill-rule="nonzero" fill-opacity="1" /><path clip-path="url(#clip800)" d="M1226.48 1299.95 L1226.48 1278.37 L1232.34 1278.37 L1232.34 1299.72 Q1232.34 1304.78 1234.31 1307.33 Q1236.29 1309.85 1240.23 1309.85 Q1244.97 1309.85 1247.71 1306.82 Q1250.48 1303.8 1250.48 1298.58 L1250.48 1278.37 L1256.34 1278.37 L1256.34 1314.01 L1250.48 1314.01 L1250.48 1308.54 Q1248.35 1311.79 1245.52 1313.38 Q1242.71 1314.94 1238.99 1314.94 Q1232.85 1314.94 1229.66 1311.12 Q1226.48 1307.3 1226.48 1299.95 M1241.22 1277.51 L1241.22 1277.51 Z" fill="#000000" fill-rule="nonzero" fill-opacity="1" /><path clip-path="url(#clip800)" d="M1298.89 1294.73 L1298.89 1297.59 L1271.96 1297.59 Q1272.35 1303.64 1275.59 1306.82 Q1278.87 1309.97 1284.7 1309.97 Q1288.07 1309.97 1291.22 1309.14 Q1294.4 1308.32 1297.52 1306.66 L1297.52 1312.2 Q1294.37 1313.54 1291.06 1314.24 Q1287.75 1314.94 1284.35 1314.94 Q1275.82 1314.94 1270.82 1309.97 Q1265.85 1305.01 1265.85 1296.54 Q1265.85 1287.79 1270.56 1282.66 Q1275.31 1277.51 1283.33 1277.51 Q1290.52 1277.51 1294.69 1282.15 Q1298.89 1286.77 1298.89 1294.73 M1293.04 1293.01 Q1292.97 1288.2 1290.33 1285.34 Q1287.72 1282.47 1283.39 1282.47 Q1278.49 1282.47 1275.53 1285.24 Q1272.6 1288.01 1272.16 1293.04 L1293.04 1293.01 Z" fill="#000000" fill-rule="nonzero" fill-opacity="1" /><polyline clip-path="url(#clip802)" style="stroke:#000000; stroke-linecap:round; stroke-linejoin:round; stroke-width:2; stroke-opacity:0.1; fill:none" points="198.924,1173.47 2064.76,1173.47 "/>
<polyline clip-path="url(#clip802)" style="stroke:#000000; stroke-linecap:round; stroke-linejoin:round; stroke-width:2; stroke-opacity:0.1; fill:none" points="198.924,891.914 2064.76,891.914 "/>
<polyline clip-path="url(#clip802)" style="stroke:#000000; stroke-linecap:round; stroke-linejoin:round; stroke-width:2; stroke-opacity:0.1; fill:none" points="198.924,610.357 2064.76,610.357 "/>
<polyline clip-path="url(#clip802)" style="stroke:#000000; stroke-linecap:round; stroke-linejoin:round; stroke-width:2; stroke-opacity:0.1; fill:none" points="198.924,328.801 2064.76,328.801 "/>
<polyline clip-path="url(#clip802)" style="stroke:#000000; stroke-linecap:round; stroke-linejoin:round; stroke-width:2; stroke-opacity:0.1; fill:none" points="198.924,47.2441 2064.76,47.2441 "/>
<polyline clip-path="url(#clip800)" style="stroke:#000000; stroke-linecap:round; stroke-linejoin:round; stroke-width:4; stroke-opacity:1; fill:none" points="198.924,1173.47 198.924,47.2441 "/>
<polyline clip-path="url(#clip800)" style="stroke:#000000; stroke-linecap:round; stroke-linejoin:round; stroke-width:4; stroke-opacity:1; fill:none" points="198.924,1173.47 217.821,1173.47 "/>
<polyline clip-path="url(#clip800)" style="stroke:#000000; stroke-linecap:round; stroke-linejoin:round; stroke-width:4; stroke-opacity:1; fill:none" points="198.924,891.914 217.821,891.914 "/>
<polyline clip-path="url(#clip800)" style="stroke:#000000; stroke-linecap:round; stroke-linejoin:round; stroke-width:4; stroke-opacity:1; fill:none" points="198.924,610.357 217.821,610.357 "/>
<polyline clip-path="url(#clip800)" style="stroke:#000000; stroke-linecap:round; stroke-linejoin:round; stroke-width:4; stroke-opacity:1; fill:none" points="198.924,328.801 217.821,328.801 "/>
<polyline clip-path="url(#clip800)" style="stroke:#000000; stroke-linecap:round; stroke-linejoin:round; stroke-width:4; stroke-opacity:1; fill:none" points="198.924,47.2441 217.821,47.2441 "/>
<path clip-path="url(#clip800)" d="M155.299 1159.27 Q151.688 1159.27 149.859 1162.83 Q148.054 1166.38 148.054 1173.51 Q148.054 1180.61 149.859 1184.18 Q151.688 1187.72 155.299 1187.72 Q158.933 1187.72 160.739 1184.18 Q162.568 1180.61 162.568 1173.51 Q162.568 1166.38 160.739 1162.83 Q158.933 1159.27 155.299 1159.27 M155.299 1155.57 Q161.109 1155.57 164.165 1160.17 Q167.244 1164.76 167.244 1173.51 Q167.244 1182.23 164.165 1186.84 Q161.109 1191.42 155.299 1191.42 Q149.489 1191.42 146.41 1186.84 Q143.355 1182.23 143.355 1173.51 Q143.355 1164.76 146.41 1160.17 Q149.489 1155.57 155.299 1155.57 Z" fill="#000000" fill-rule="nonzero" fill-opacity="1" /><path clip-path="url(#clip800)" d="M146.341 874.634 L164.697 874.634 L164.697 878.569 L150.623 878.569 L150.623 887.041 Q151.642 886.694 152.66 886.532 Q153.679 886.347 154.697 886.347 Q160.484 886.347 163.864 889.518 Q167.244 892.69 167.244 898.106 Q167.244 903.685 163.771 906.787 Q160.299 909.865 153.98 909.865 Q151.804 909.865 149.535 909.495 Q147.29 909.125 144.883 908.384 L144.883 903.685 Q146.966 904.819 149.188 905.375 Q151.41 905.93 153.887 905.93 Q157.892 905.93 160.23 903.824 Q162.568 901.717 162.568 898.106 Q162.568 894.495 160.23 892.389 Q157.892 890.282 153.887 890.282 Q152.012 890.282 150.137 890.699 Q148.285 891.115 146.341 891.995 L146.341 874.634 Z" fill="#000000" fill-rule="nonzero" fill-opacity="1" /><path clip-path="url(#clip800)" d="M115.948 623.702 L123.586 623.702 L123.586 597.337 L115.276 599.003 L115.276 594.744 L123.54 593.077 L128.216 593.077 L128.216 623.702 L135.855 623.702 L135.855 627.637 L115.948 627.637 L115.948 623.702 Z" fill="#000000" fill-rule="nonzero" fill-opacity="1" /><path clip-path="url(#clip800)" d="M155.299 596.156 Q151.688 596.156 149.859 599.721 Q148.054 603.263 148.054 610.392 Q148.054 617.499 149.859 621.063 Q151.688 624.605 155.299 624.605 Q158.933 624.605 160.739 621.063 Q162.568 617.499 162.568 610.392 Q162.568 603.263 160.739 599.721 Q158.933 596.156 155.299 596.156 M155.299 592.452 Q161.109 592.452 164.165 597.059 Q167.244 601.642 167.244 610.392 Q167.244 619.119 164.165 623.725 Q161.109 628.309 155.299 628.309 Q149.489 628.309 146.41 623.725 Q143.355 619.119 143.355 610.392 Q143.355 601.642 146.41 597.059 Q149.489 592.452 155.299 592.452 Z" fill="#000000" fill-rule="nonzero" fill-opacity="1" /><path clip-path="url(#clip800)" d="M116.943 342.146 L124.582 342.146 L124.582 315.78 L116.272 317.447 L116.272 313.187 L124.535 311.521 L129.211 311.521 L129.211 342.146 L136.85 342.146 L136.85 346.081 L116.943 346.081 L116.943 342.146 Z" fill="#000000" fill-rule="nonzero" fill-opacity="1" /><path clip-path="url(#clip800)" d="M146.341 311.521 L164.697 311.521 L164.697 315.456 L150.623 315.456 L150.623 323.928 Q151.642 323.581 152.66 323.419 Q153.679 323.234 154.697 323.234 Q160.484 323.234 163.864 326.405 Q167.244 329.576 167.244 334.993 Q167.244 340.572 163.771 343.673 Q160.299 346.752 153.98 346.752 Q151.804 346.752 149.535 346.382 Q147.29 346.011 144.883 345.271 L144.883 340.572 Q146.966 341.706 149.188 342.261 Q151.41 342.817 153.887 342.817 Q157.892 342.817 160.23 340.71 Q162.568 338.604 162.568 334.993 Q162.568 331.382 160.23 329.275 Q157.892 327.169 153.887 327.169 Q152.012 327.169 150.137 327.585 Q148.285 328.002 146.341 328.882 L146.341 311.521 Z" fill="#000000" fill-rule="nonzero" fill-opacity="1" /><path clip-path="url(#clip800)" d="M119.165 60.5889 L135.484 60.5889 L135.484 64.5241 L113.54 64.5241 L113.54 60.5889 Q116.202 57.8343 120.785 53.2047 Q125.392 48.552 126.572 47.2094 Q128.818 44.6862 129.697 42.9501 Q130.6 41.1909 130.6 39.5011 Q130.6 36.7465 128.656 35.0104 Q126.735 33.2743 123.633 33.2743 Q121.434 33.2743 118.98 34.0381 Q116.549 34.802 113.772 36.3529 L113.772 31.6308 Q116.596 30.4965 119.049 29.9178 Q121.503 29.3391 123.54 29.3391 Q128.91 29.3391 132.105 32.0243 Q135.299 34.7094 135.299 39.2002 Q135.299 41.3298 134.489 43.2511 Q133.702 45.1492 131.596 47.7418 Q131.017 48.4131 127.915 51.6306 Q124.813 54.8251 119.165 60.5889 Z" fill="#000000" fill-rule="nonzero" fill-opacity="1" /><path clip-path="url(#clip800)" d="M155.299 33.0428 Q151.688 33.0428 149.859 36.6076 Q148.054 40.1492 148.054 47.2788 Q148.054 54.3853 149.859 57.9501 Q151.688 61.4917 155.299 61.4917 Q158.933 61.4917 160.739 57.9501 Q162.568 54.3853 162.568 47.2788 Q162.568 40.1492 160.739 36.6076 Q158.933 33.0428 155.299 33.0428 M155.299 29.3391 Q161.109 29.3391 164.165 33.9456 Q167.244 38.5289 167.244 47.2788 Q167.244 56.0056 164.165 60.6121 Q161.109 65.1954 155.299 65.1954 Q149.489 65.1954 146.41 60.6121 Q143.355 56.0056 143.355 47.2788 Q143.355 38.5289 146.41 33.9456 Q149.489 29.3391 155.299 29.3391 Z" fill="#000000" fill-rule="nonzero" fill-opacity="1" /><path clip-path="url(#clip800)" d="M23.7444 666.216 L30.5239 666.216 Q27.5002 669.463 26.0043 673.155 Q24.5083 676.815 24.5083 680.953 Q24.5083 689.101 29.5054 693.43 Q34.4707 697.759 43.8919 697.759 Q53.2813 697.759 58.2784 693.43 Q63.2436 689.101 63.2436 680.953 Q63.2436 676.815 61.7477 673.155 Q60.2518 669.463 57.2281 666.216 L63.9439 666.216 Q66.2355 669.59 67.3814 673.378 Q68.5272 677.134 68.5272 681.335 Q68.5272 692.125 61.9387 698.331 Q55.3183 704.538 43.8919 704.538 Q32.4336 704.538 25.8451 698.331 Q19.2248 692.125 19.2248 681.335 Q19.2248 677.07 20.3706 673.314 Q21.4846 669.527 23.7444 666.216 Z" fill="#000000" fill-rule="nonzero" fill-opacity="1" /><path clip-path="url(#clip800)" d="M36.0621 642.727 Q36.0621 647.438 39.7542 650.175 Q43.4145 652.912 49.812 652.912 Q56.2095 652.912 59.9017 650.207 Q63.5619 647.469 63.5619 642.727 Q63.5619 638.048 59.8698 635.311 Q56.1777 632.574 49.812 632.574 Q43.4781 632.574 39.786 635.311 Q36.0621 638.048 36.0621 642.727 M31.0968 642.727 Q31.0968 635.088 36.0621 630.728 Q41.0273 626.367 49.812 626.367 Q58.5649 626.367 63.5619 630.728 Q68.5272 635.088 68.5272 642.727 Q68.5272 650.398 63.5619 654.758 Q58.5649 659.087 49.812 659.087 Q41.0273 659.087 36.0621 654.758 Q31.0968 650.398 31.0968 642.727 Z" fill="#000000" fill-rule="nonzero" fill-opacity="1" /><path clip-path="url(#clip800)" d="M53.5359 617.264 L31.9562 617.264 L31.9562 611.408 L53.3131 611.408 Q58.3739 611.408 60.9202 609.434 Q63.4346 607.461 63.4346 603.514 Q63.4346 598.772 60.4109 596.035 Q57.3872 593.266 52.1673 593.266 L31.9562 593.266 L31.9562 587.409 L67.6042 587.409 L67.6042 593.266 L62.1296 593.266 Q65.3762 595.398 66.9676 598.231 Q68.5272 601.032 68.5272 604.756 Q68.5272 610.899 64.7078 614.081 Q60.8883 617.264 53.5359 617.264 M31.0968 602.528 L31.0968 602.528 Z" fill="#000000" fill-rule="nonzero" fill-opacity="1" /><path clip-path="url(#clip800)" d="M46.0881 545.714 L67.6042 545.714 L67.6042 551.57 L46.279 551.57 Q41.2183 551.57 38.7038 553.543 Q36.1894 555.517 36.1894 559.464 Q36.1894 564.206 39.2131 566.943 Q42.2368 569.681 47.4567 569.681 L67.6042 569.681 L67.6042 575.569 L31.9562 575.569 L31.9562 569.681 L37.4944 569.681 Q34.2797 567.58 32.6883 564.747 Q31.0968 561.883 31.0968 558.159 Q31.0968 552.016 34.9163 548.865 Q38.7038 545.714 46.0881 545.714 Z" fill="#000000" fill-rule="nonzero" fill-opacity="1" /><path clip-path="url(#clip800)" d="M21.8347 528.24 L31.9562 528.24 L31.9562 516.177 L36.5077 516.177 L36.5077 528.24 L55.8594 528.24 Q60.2199 528.24 61.4613 527.062 Q62.7026 525.853 62.7026 522.192 L62.7026 516.177 L67.6042 516.177 L67.6042 522.192 Q67.6042 528.972 65.0897 531.55 Q62.5434 534.128 55.8594 534.128 L36.5077 534.128 L36.5077 538.425 L31.9562 538.425 L31.9562 534.128 L21.8347 534.128 L21.8347 528.24 Z" fill="#000000" fill-rule="nonzero" fill-opacity="1" /><path clip-path="url(#clip802)" d="M301.548 497.735 L301.548 1173.47 L578.312 1173.47 L578.312 497.735 L301.548 497.735 L301.548 497.735  Z" fill="#009af9" fill-rule="evenodd" fill-opacity="1"/>
<polyline clip-path="url(#clip802)" style="stroke:#000000; stroke-linecap:round; stroke-linejoin:round; stroke-width:4; stroke-opacity:1; fill:none" points="301.548,497.735 301.548,1173.47 578.312,1173.47 578.312,497.735 301.548,497.735 "/>
<path clip-path="url(#clip802)" d="M578.312 385.112 L578.312 1173.47 L855.076 1173.47 L855.076 385.112 L578.312 385.112 L578.312 385.112  Z" fill="#009af9" fill-rule="evenodd" fill-opacity="1"/>
<polyline clip-path="url(#clip802)" style="stroke:#000000; stroke-linecap:round; stroke-linejoin:round; stroke-width:4; stroke-opacity:1; fill:none" points="578.312,385.112 578.312,1173.47 855.076,1173.47 855.076,385.112 578.312,385.112 "/>
<path clip-path="url(#clip802)" d="M855.076 216.178 L855.076 1173.47 L1131.84 1173.47 L1131.84 216.178 L855.076 216.178 L855.076 216.178  Z" fill="#009af9" fill-rule="evenodd" fill-opacity="1"/>
<polyline clip-path="url(#clip802)" style="stroke:#000000; stroke-linecap:round; stroke-linejoin:round; stroke-width:4; stroke-opacity:1; fill:none" points="855.076,216.178 855.076,1173.47 1131.84,1173.47 1131.84,216.178 855.076,216.178 "/>
<path clip-path="url(#clip802)" d="M1131.84 159.867 L1131.84 1173.47 L1408.6 1173.47 L1408.6 159.867 L1131.84 159.867 L1131.84 159.867  Z" fill="#009af9" fill-rule="evenodd" fill-opacity="1"/>
<polyline clip-path="url(#clip802)" style="stroke:#000000; stroke-linecap:round; stroke-linejoin:round; stroke-width:4; stroke-opacity:1; fill:none" points="1131.84,159.867 1131.84,1173.47 1408.6,1173.47 1408.6,159.867 1131.84,159.867 "/>
<path clip-path="url(#clip802)" d="M1408.6 103.555 L1408.6 1173.47 L1685.37 1173.47 L1685.37 103.555 L1408.6 103.555 L1408.6 103.555  Z" fill="#009af9" fill-rule="evenodd" fill-opacity="1"/>
<polyline clip-path="url(#clip802)" style="stroke:#000000; stroke-linecap:round; stroke-linejoin:round; stroke-width:4; stroke-opacity:1; fill:none" points="1408.6,103.555 1408.6,1173.47 1685.37,1173.47 1685.37,103.555 1408.6,103.555 "/>
<path clip-path="url(#clip802)" d="M1685.37 47.2441 L1685.37 1173.47 L1962.13 1173.47 L1962.13 47.2441 L1685.37 47.2441 L1685.37 47.2441  Z" fill="#009af9" fill-rule="evenodd" fill-opacity="1"/>
<polyline clip-path="url(#clip802)" style="stroke:#000000; stroke-linecap:round; stroke-linejoin:round; stroke-width:4; stroke-opacity:1; fill:none" points="1685.37,47.2441 1685.37,1173.47 1962.13,1173.47 1962.13,47.2441 1685.37,47.2441 "/>
<circle clip-path="url(#clip802)" style="fill:#009af9; stroke:none; fill-opacity:0" cx="439.93" cy="497.735" r="2"/>
<circle clip-path="url(#clip802)" style="fill:#009af9; stroke:none; fill-opacity:0" cx="716.694" cy="385.112" r="2"/>
<circle clip-path="url(#clip802)" style="fill:#009af9; stroke:none; fill-opacity:0" cx="993.458" cy="216.178" r="2"/>
<circle clip-path="url(#clip802)" style="fill:#009af9; stroke:none; fill-opacity:0" cx="1270.22" cy="159.867" r="2"/>
<circle clip-path="url(#clip802)" style="fill:#009af9; stroke:none; fill-opacity:0" cx="1546.99" cy="103.555" r="2"/>
<circle clip-path="url(#clip802)" style="fill:#009af9; stroke:none; fill-opacity:0" cx="1823.75" cy="47.2441" r="2"/>
</svg>
