<?xml version="1.0" encoding="utf-8"?>
<svg xmlns="http://www.w3.org/2000/svg" xmlns:xlink="http://www.w3.org/1999/xlink" width="672" height="480" viewBox="0 0 2688 1920">
<defs>
  <clipPath id="clip670">
    <rect x="0" y="0" width="2688" height="1920"/>
  </clipPath>
</defs>
<path clip-path="url(#clip670)" d="M0 1920 L2688 1920 L2688 0 L0 0  Z" fill="#ffffff" fill-rule="evenodd" fill-opacity="1"/>
<defs>
  <clipPath id="clip671">
    <rect x="537" y="0" width="1883" height="1883"/>
  </clipPath>
</defs>
<path clip-path="url(#clip670)" d="M263.964 1734.12 L2640.76 1734.12 L2640.76 47.2441 L263.964 47.2441  Z" fill="#ffffff" fill-rule="evenodd" fill-opacity="1"/>
<defs>
  <clipPath id="clip672">
    <rect x="263" y="47" width="2378" height="1688"/>
  </clipPath>
</defs>
<polyline clip-path="url(#clip670)" style="stroke:#000000; stroke-linecap:round; stroke-linejoin:round; stroke-width:4; stroke-opacity:1; fill:none" points="263.964,1734.12 2640.76,1734.12 "/>
<polyline clip-path="url(#clip670)" style="stroke:#000000; stroke-linecap:round; stroke-linejoin:round; stroke-width:4; stroke-opacity:1; fill:none" points="331.232,1734.12 331.232,1715.22 "/>
<polyline clip-path="url(#clip670)" style="stroke:#000000; stroke-linecap:round; stroke-linejoin:round; stroke-width:4; stroke-opacity:1; fill:none" points="1078.65,1734.12 1078.65,1715.22 "/>
<polyline clip-path="url(#clip670)" style="stroke:#000000; stroke-linecap:round; stroke-linejoin:round; stroke-width:4; stroke-opacity:1; fill:none" points="1826.07,1734.12 1826.07,1715.22 "/>
<polyline clip-path="url(#clip670)" style="stroke:#000000; stroke-linecap:round; stroke-linejoin:round; stroke-width:4; stroke-opacity:1; fill:none" points="2573.49,1734.12 2573.49,1715.22 "/>
<path clip-path="url(#clip670)" d="M321.614 1794.89 L329.253 1794.89 L329.253 1768.52 L320.943 1770.19 L320.943 1765.93 L329.207 1764.26 L333.883 1764.26 L333.883 1794.89 L341.521 1794.89 L341.521 1798.82 L321.614 1798.82 L321.614 1794.89 Z" fill="#000000" fill-rule="evenodd" fill-opacity="1" /><path clip-path="url(#clip670)" d="M1073.3 1794.89 L1089.62 1794.89 L1089.62 1798.82 L1067.68 1798.82 L1067.68 1794.89 Q1070.34 1792.13 1074.92 1787.5 Q1079.53 1782.85 1080.71 1781.51 Q1082.96 1778.98 1083.84 1777.25 Q1084.74 1775.49 1084.74 1773.8 Q1084.74 1771.04 1082.79 1769.31 Q1080.87 1767.57 1077.77 1767.57 Q1075.57 1767.57 1073.12 1768.34 Q1070.69 1769.1 1067.91 1770.65 L1067.91 1765.93 Q1070.73 1764.79 1073.19 1764.21 Q1075.64 1763.64 1077.68 1763.64 Q1083.05 1763.64 1086.24 1766.32 Q1089.44 1769.01 1089.44 1773.5 Q1089.44 1775.63 1088.63 1777.55 Q1087.84 1779.45 1085.73 1782.04 Q1085.16 1782.71 1082.05 1785.93 Q1078.95 1789.12 1073.3 1794.89 Z" fill="#000000" fill-rule="evenodd" fill-opacity="1" /><path clip-path="url(#clip670)" d="M1830.32 1780.19 Q1833.67 1780.9 1835.55 1783.17 Q1837.45 1785.44 1837.45 1788.77 Q1837.45 1793.89 1833.93 1796.69 Q1830.41 1799.49 1823.93 1799.49 Q1821.75 1799.49 1819.44 1799.05 Q1817.15 1798.64 1814.69 1797.78 L1814.69 1793.27 Q1816.64 1794.4 1818.95 1794.98 Q1821.27 1795.56 1823.79 1795.56 Q1828.19 1795.56 1830.48 1793.82 Q1832.79 1792.08 1832.79 1788.77 Q1832.79 1785.72 1830.64 1784.01 Q1828.51 1782.27 1824.69 1782.27 L1820.66 1782.27 L1820.66 1778.43 L1824.88 1778.43 Q1828.33 1778.43 1830.16 1777.06 Q1831.98 1775.67 1831.98 1773.08 Q1831.98 1770.42 1830.09 1769.01 Q1828.21 1767.57 1824.69 1767.57 Q1822.77 1767.57 1820.57 1767.99 Q1818.37 1768.4 1815.73 1769.28 L1815.73 1765.12 Q1818.4 1764.38 1820.71 1764.01 Q1823.05 1763.64 1825.11 1763.64 Q1830.43 1763.64 1833.53 1766.07 Q1836.64 1768.47 1836.64 1772.59 Q1836.64 1775.46 1834.99 1777.46 Q1833.35 1779.42 1830.32 1780.19 Z" fill="#000000" fill-rule="evenodd" fill-opacity="1" /><path clip-path="url(#clip670)" d="M2576.5 1768.34 L2564.69 1786.78 L2576.5 1786.78 L2576.5 1768.34 M2575.27 1764.26 L2581.15 1764.26 L2581.15 1786.78 L2586.08 1786.78 L2586.08 1790.67 L2581.15 1790.67 L2581.15 1798.82 L2576.5 1798.82 L2576.5 1790.67 L2560.9 1790.67 L2560.9 1786.16 L2575.27 1764.26 Z" fill="#000000" fill-rule="evenodd" fill-opacity="1" /><path clip-path="url(#clip670)" d="M1399.7 1835.78 L1406.13 1835.78 L1406.13 1877.89 L1429.27 1877.89 L1429.27 1883.3 L1399.7 1883.3 L1399.7 1835.78 Z" fill="#000000" fill-rule="evenodd" fill-opacity="1" /><path clip-path="url(#clip670)" d="M1451.96 1865.38 Q1444.86 1865.38 1442.13 1867 Q1439.39 1868.63 1439.39 1872.54 Q1439.39 1875.66 1441.43 1877.51 Q1443.5 1879.32 1447.03 1879.32 Q1451.9 1879.32 1454.83 1875.88 Q1457.79 1872.42 1457.79 1866.69 L1457.79 1865.38 L1451.96 1865.38 M1463.64 1862.96 L1463.64 1883.3 L1457.79 1883.3 L1457.79 1877.89 Q1455.78 1881.14 1452.79 1882.7 Q1449.8 1884.22 1445.47 1884.22 Q1439.99 1884.22 1436.75 1881.17 Q1433.53 1878.08 1433.53 1872.92 Q1433.53 1866.91 1437.54 1863.85 Q1441.59 1860.8 1449.58 1860.8 L1457.79 1860.8 L1457.79 1860.23 Q1457.79 1856.18 1455.11 1853.99 Q1452.47 1851.76 1447.67 1851.76 Q1444.61 1851.76 1441.71 1852.49 Q1438.82 1853.22 1436.14 1854.69 L1436.14 1849.28 Q1439.36 1848.03 1442.38 1847.43 Q1445.41 1846.79 1448.27 1846.79 Q1456 1846.79 1459.82 1850.8 Q1463.64 1854.81 1463.64 1862.96 Z" fill="#000000" fill-rule="evenodd" fill-opacity="1" /><path clip-path="url(#clip670)" d="M1499.16 1865.06 Q1499.16 1858.7 1496.52 1855.2 Q1493.91 1851.7 1489.17 1851.7 Q1484.46 1851.7 1481.82 1855.2 Q1479.21 1858.7 1479.21 1865.06 Q1479.21 1871.4 1481.82 1874.9 Q1484.46 1878.4 1489.17 1878.4 Q1493.91 1878.4 1496.52 1874.9 Q1499.16 1871.4 1499.16 1865.06 M1505.02 1878.88 Q1505.02 1887.98 1500.98 1892.4 Q1496.94 1896.86 1488.6 1896.86 Q1485.51 1896.86 1482.77 1896.38 Q1480.04 1895.94 1477.46 1894.98 L1477.46 1889.28 Q1480.04 1890.69 1482.55 1891.35 Q1485.06 1892.02 1487.67 1892.02 Q1493.43 1892.02 1496.3 1889 Q1499.16 1886.01 1499.16 1879.93 L1499.16 1877.03 Q1497.35 1880.18 1494.52 1881.74 Q1491.68 1883.3 1487.74 1883.3 Q1481.18 1883.3 1477.17 1878.3 Q1473.16 1873.31 1473.16 1865.06 Q1473.16 1856.79 1477.17 1851.79 Q1481.18 1846.79 1487.74 1846.79 Q1491.68 1846.79 1494.52 1848.35 Q1497.35 1849.91 1499.16 1853.06 L1499.16 1847.65 L1505.02 1847.65 L1505.02 1878.88 Z" fill="#000000" fill-rule="evenodd" fill-opacity="1" /><polyline clip-path="url(#clip670)" style="stroke:#000000; stroke-linecap:round; stroke-linejoin:round; stroke-width:4; stroke-opacity:1; fill:none" points="263.964,1734.12 263.964,47.2441 "/>
<polyline clip-path="url(#clip670)" style="stroke:#000000; stroke-linecap:round; stroke-linejoin:round; stroke-width:4; stroke-opacity:1; fill:none" points="263.964,1368.63 282.862,1368.63 "/>
<polyline clip-path="url(#clip670)" style="stroke:#000000; stroke-linecap:round; stroke-linejoin:round; stroke-width:4; stroke-opacity:1; fill:none" points="263.964,944.085 282.862,944.085 "/>
<polyline clip-path="url(#clip670)" style="stroke:#000000; stroke-linecap:round; stroke-linejoin:round; stroke-width:4; stroke-opacity:1; fill:none" points="263.964,519.535 282.862,519.535 "/>
<polyline clip-path="url(#clip670)" style="stroke:#000000; stroke-linecap:round; stroke-linejoin:round; stroke-width:4; stroke-opacity:1; fill:none" points="263.964,94.9858 282.862,94.9858 "/>
<path clip-path="url(#clip670)" d="M116.539 1369.09 L146.214 1369.09 L146.214 1373.02 L116.539 1373.02 L116.539 1369.09 Z" fill="#000000" fill-rule="evenodd" fill-opacity="1" /><path clip-path="url(#clip670)" d="M166.307 1354.43 Q162.696 1354.43 160.867 1358 Q159.061 1361.54 159.061 1368.67 Q159.061 1375.78 160.867 1379.34 Q162.696 1382.88 166.307 1382.88 Q169.941 1382.88 171.747 1379.34 Q173.575 1375.78 173.575 1368.67 Q173.575 1361.54 171.747 1358 Q169.941 1354.43 166.307 1354.43 M166.307 1350.73 Q172.117 1350.73 175.172 1355.34 Q178.251 1359.92 178.251 1368.67 Q178.251 1377.4 175.172 1382 Q172.117 1386.59 166.307 1386.59 Q160.497 1386.59 157.418 1382 Q154.362 1377.4 154.362 1368.67 Q154.362 1359.92 157.418 1355.34 Q160.497 1350.73 166.307 1350.73 Z" fill="#000000" fill-rule="evenodd" fill-opacity="1" /><path clip-path="url(#clip670)" d="M186.469 1380.03 L191.353 1380.03 L191.353 1385.91 L186.469 1385.91 L186.469 1380.03 Z" fill="#000000" fill-rule="evenodd" fill-opacity="1" /><path clip-path="url(#clip670)" d="M212.117 1366.77 Q208.969 1366.77 207.117 1368.92 Q205.288 1371.08 205.288 1374.83 Q205.288 1378.55 207.117 1380.73 Q208.969 1382.88 212.117 1382.88 Q215.265 1382.88 217.094 1380.73 Q218.945 1378.55 218.945 1374.83 Q218.945 1371.08 217.094 1368.92 Q215.265 1366.77 212.117 1366.77 M221.399 1352.12 L221.399 1356.38 Q219.64 1355.54 217.834 1355.1 Q216.052 1354.66 214.293 1354.66 Q209.663 1354.66 207.209 1357.79 Q204.779 1360.91 204.432 1367.23 Q205.797 1365.22 207.857 1364.15 Q209.918 1363.07 212.394 1363.07 Q217.603 1363.07 220.612 1366.24 Q223.644 1369.39 223.644 1374.83 Q223.644 1380.15 220.496 1383.37 Q217.348 1386.59 212.117 1386.59 Q206.121 1386.59 202.95 1382 Q199.779 1377.4 199.779 1368.67 Q199.779 1360.47 203.668 1355.61 Q207.557 1350.73 214.107 1350.73 Q215.867 1350.73 217.649 1351.08 Q219.455 1351.42 221.399 1352.12 Z" fill="#000000" fill-rule="evenodd" fill-opacity="1" /><path clip-path="url(#clip670)" d="M116.214 944.536 L145.89 944.536 L145.89 948.471 L116.214 948.471 L116.214 944.536 Z" fill="#000000" fill-rule="evenodd" fill-opacity="1" /><path clip-path="url(#clip670)" d="M165.983 929.883 Q162.372 929.883 160.543 933.448 Q158.737 936.99 158.737 944.119 Q158.737 951.226 160.543 954.79 Q162.372 958.332 165.983 958.332 Q169.617 958.332 171.422 954.79 Q173.251 951.226 173.251 944.119 Q173.251 936.99 171.422 933.448 Q169.617 929.883 165.983 929.883 M165.983 926.18 Q171.793 926.18 174.848 930.786 Q177.927 935.369 177.927 944.119 Q177.927 952.846 174.848 957.453 Q171.793 962.036 165.983 962.036 Q160.173 962.036 157.094 957.453 Q154.038 952.846 154.038 944.119 Q154.038 935.369 157.094 930.786 Q160.173 926.18 165.983 926.18 Z" fill="#000000" fill-rule="evenodd" fill-opacity="1" /><path clip-path="url(#clip670)" d="M186.145 955.485 L191.029 955.485 L191.029 961.365 L186.145 961.365 L186.145 955.485 Z" fill="#000000" fill-rule="evenodd" fill-opacity="1" /><path clip-path="url(#clip670)" d="M214.061 930.879 L202.256 949.328 L214.061 949.328 L214.061 930.879 M212.834 926.805 L218.714 926.805 L218.714 949.328 L223.644 949.328 L223.644 953.216 L218.714 953.216 L218.714 961.365 L214.061 961.365 L214.061 953.216 L198.459 953.216 L198.459 948.703 L212.834 926.805 Z" fill="#000000" fill-rule="evenodd" fill-opacity="1" /><path clip-path="url(#clip670)" d="M118.298 519.987 L147.974 519.987 L147.974 523.922 L118.298 523.922 L118.298 519.987 Z" fill="#000000" fill-rule="evenodd" fill-opacity="1" /><path clip-path="url(#clip670)" d="M168.066 505.334 Q164.455 505.334 162.626 508.899 Q160.821 512.44 160.821 519.57 Q160.821 526.676 162.626 530.241 Q164.455 533.783 168.066 533.783 Q171.7 533.783 173.506 530.241 Q175.334 526.676 175.334 519.57 Q175.334 512.44 173.506 508.899 Q171.7 505.334 168.066 505.334 M168.066 501.63 Q173.876 501.63 176.932 506.237 Q180.01 510.82 180.01 519.57 Q180.01 528.297 176.932 532.903 Q173.876 537.486 168.066 537.486 Q162.256 537.486 159.177 532.903 Q156.122 528.297 156.122 519.57 Q156.122 510.82 159.177 506.237 Q162.256 501.63 168.066 501.63 Z" fill="#000000" fill-rule="evenodd" fill-opacity="1" /><path clip-path="url(#clip670)" d="M188.228 530.936 L193.112 530.936 L193.112 536.815 L188.228 536.815 L188.228 530.936 Z" fill="#000000" fill-rule="evenodd" fill-opacity="1" /><path clip-path="url(#clip670)" d="M207.325 532.88 L223.644 532.88 L223.644 536.815 L201.7 536.815 L201.7 532.88 Q204.362 530.125 208.945 525.496 Q213.552 520.843 214.732 519.5 Q216.978 516.977 217.857 515.241 Q218.76 513.482 218.76 511.792 Q218.76 509.038 216.816 507.301 Q214.894 505.565 211.793 505.565 Q209.594 505.565 207.14 506.329 Q204.709 507.093 201.932 508.644 L201.932 503.922 Q204.756 502.788 207.209 502.209 Q209.663 501.63 211.7 501.63 Q217.07 501.63 220.265 504.315 Q223.459 507 223.459 511.491 Q223.459 513.621 222.649 515.542 Q221.862 517.44 219.756 520.033 Q219.177 520.704 216.075 523.922 Q212.973 527.116 207.325 532.88 Z" fill="#000000" fill-rule="evenodd" fill-opacity="1" /><path clip-path="url(#clip670)" d="M166.469 80.7845 Q162.858 80.7845 161.029 84.3493 Q159.223 87.8909 159.223 95.0205 Q159.223 102.127 161.029 105.692 Q162.858 109.233 166.469 109.233 Q170.103 109.233 171.909 105.692 Q173.737 102.127 173.737 95.0205 Q173.737 87.8909 171.909 84.3493 Q170.103 80.7845 166.469 80.7845 M166.469 77.0808 Q172.279 77.0808 175.334 81.6872 Q178.413 86.2705 178.413 95.0205 Q178.413 103.747 175.334 108.354 Q172.279 112.937 166.469 112.937 Q160.659 112.937 157.58 108.354 Q154.524 103.747 154.524 95.0205 Q154.524 86.2705 157.58 81.6872 Q160.659 77.0808 166.469 77.0808 Z" fill="#000000" fill-rule="evenodd" fill-opacity="1" /><path clip-path="url(#clip670)" d="M186.631 106.386 L191.515 106.386 L191.515 112.266 L186.631 112.266 L186.631 106.386 Z" fill="#000000" fill-rule="evenodd" fill-opacity="1" /><path clip-path="url(#clip670)" d="M211.7 80.7845 Q208.089 80.7845 206.26 84.3493 Q204.455 87.8909 204.455 95.0205 Q204.455 102.127 206.26 105.692 Q208.089 109.233 211.7 109.233 Q215.334 109.233 217.14 105.692 Q218.969 102.127 218.969 95.0205 Q218.969 87.8909 217.14 84.3493 Q215.334 80.7845 211.7 80.7845 M211.7 77.0808 Q217.51 77.0808 220.566 81.6872 Q223.644 86.2705 223.644 95.0205 Q223.644 103.747 220.566 108.354 Q217.51 112.937 211.7 112.937 Q205.89 112.937 202.811 108.354 Q199.756 103.747 199.756 95.0205 Q199.756 86.2705 202.811 81.6872 Q205.89 77.0808 211.7 77.0808 Z" fill="#000000" fill-rule="evenodd" fill-opacity="1" /><path clip-path="url(#clip670)" d="M19.402 1241.62 L37.2578 1241.62 L37.2578 1233.54 Q37.2578 1229.05 34.9343 1226.6 Q32.6108 1224.15 28.314 1224.15 Q24.0489 1224.15 21.7255 1226.6 Q19.402 1229.05 19.402 1233.54 L19.402 1241.62 M14.1184 1248.05 L14.1184 1233.54 Q14.1184 1225.55 17.7469 1221.47 Q21.3435 1217.37 28.314 1217.37 Q35.3481 1217.37 38.9447 1221.47 Q42.5413 1225.55 42.5413 1233.54 L42.5413 1241.62 L61.6384 1241.62 L61.6384 1248.05 L14.1184 1248.05 Z" fill="#000000" fill-rule="evenodd" fill-opacity="1" /><path clip-path="url(#clip670)" d="M43.719 1195.73 Q43.719 1202.82 45.3422 1205.56 Q46.9655 1208.3 50.8804 1208.3 Q53.9996 1208.3 55.8457 1206.26 Q57.6599 1204.19 57.6599 1200.66 Q57.6599 1195.79 54.2224 1192.86 Q50.7531 1189.9 45.0239 1189.9 L43.719 1189.9 L43.719 1195.73 M41.3 1184.04 L61.6384 1184.04 L61.6384 1189.9 L56.2276 1189.9 Q59.4741 1191.91 61.0337 1194.9 Q62.5615 1197.89 62.5615 1202.22 Q62.5615 1207.69 59.5059 1210.94 Q56.4186 1214.15 51.2623 1214.15 Q45.2467 1214.15 42.1912 1210.14 Q39.1357 1206.1 39.1357 1198.11 L39.1357 1189.9 L38.5628 1189.9 Q34.5205 1189.9 32.3244 1192.57 Q30.0964 1195.22 30.0964 1200.02 Q30.0964 1203.08 30.8284 1205.97 Q31.5605 1208.87 33.0246 1211.54 L27.6137 1211.54 Q26.3724 1208.33 25.7677 1205.31 Q25.1311 1202.28 25.1311 1199.42 Q25.1311 1191.68 29.1415 1187.86 Q33.1519 1184.04 41.3 1184.04 Z" fill="#000000" fill-rule="evenodd" fill-opacity="1" /><path clip-path="url(#clip670)" d="M31.465 1151.32 Q30.8921 1152.31 30.6375 1153.49 Q30.351 1154.63 30.351 1156.04 Q30.351 1161 33.5975 1163.67 Q36.8122 1166.32 42.8596 1166.32 L61.6384 1166.32 L61.6384 1172.2 L25.9905 1172.2 L25.9905 1166.32 L31.5287 1166.32 Q28.2821 1164.47 26.7225 1161.51 Q25.1311 1158.55 25.1311 1154.32 Q25.1311 1153.71 25.2266 1152.98 Q25.2903 1152.25 25.4494 1151.36 L31.465 1151.32 Z" fill="#000000" fill-rule="evenodd" fill-opacity="1" /><path clip-path="url(#clip670)" d="M15.869 1139.39 L25.9905 1139.39 L25.9905 1127.33 L30.542 1127.33 L30.542 1139.39 L49.8937 1139.39 Q54.2542 1139.39 55.4955 1138.21 Q56.7368 1137 56.7368 1133.34 L56.7368 1127.33 L61.6384 1127.33 L61.6384 1133.34 Q61.6384 1140.12 59.124 1142.7 Q56.5777 1145.28 49.8937 1145.28 L30.542 1145.28 L30.542 1149.57 L25.9905 1149.57 L25.9905 1145.28 L15.869 1145.28 L15.869 1139.39 Z" fill="#000000" fill-rule="evenodd" fill-opacity="1" /><path clip-path="url(#clip670)" d="M25.9905 1119.62 L25.9905 1113.77 L61.6384 1113.77 L61.6384 1119.62 L25.9905 1119.62 M12.1132 1119.62 L12.1132 1113.77 L19.5293 1113.77 L19.5293 1119.62 L12.1132 1119.62 Z" fill="#000000" fill-rule="evenodd" fill-opacity="1" /><path clip-path="url(#clip670)" d="M43.719 1085.31 Q43.719 1092.41 45.3422 1095.15 Q46.9655 1097.88 50.8804 1097.88 Q53.9996 1097.88 55.8457 1095.85 Q57.6599 1093.78 57.6599 1090.25 Q57.6599 1085.38 54.2224 1082.45 Q50.7531 1079.49 45.0239 1079.49 L43.719 1079.49 L43.719 1085.31 M41.3 1073.63 L61.6384 1073.63 L61.6384 1079.49 L56.2276 1079.49 Q59.4741 1081.49 61.0337 1084.48 Q62.5615 1087.48 62.5615 1091.81 Q62.5615 1097.28 59.5059 1100.53 Q56.4186 1103.74 51.2623 1103.74 Q45.2467 1103.74 42.1912 1099.73 Q39.1357 1095.69 39.1357 1087.7 L39.1357 1079.49 L38.5628 1079.49 Q34.5205 1079.49 32.3244 1082.16 Q30.0964 1084.8 30.0964 1089.61 Q30.0964 1092.66 30.8284 1095.56 Q31.5605 1098.46 33.0246 1101.13 L27.6137 1101.13 Q26.3724 1097.92 25.7677 1094.89 Q25.1311 1091.87 25.1311 1089 Q25.1311 1081.27 29.1415 1077.45 Q33.1519 1073.63 41.3 1073.63 Z" fill="#000000" fill-rule="evenodd" fill-opacity="1" /><path clip-path="url(#clip670)" d="M12.1132 1061.57 L12.1132 1055.71 L61.6384 1055.71 L61.6384 1061.57 L12.1132 1061.57 Z" fill="#000000" fill-rule="evenodd" fill-opacity="1" /><path clip-path="url(#clip670)" d="M20.4523 1006.6 L44.1009 1015.32 L44.1009 997.847 L20.4523 1006.6 M14.1184 1010.23 L14.1184 1002.94 L61.6384 984.829 L61.6384 991.513 L49.4481 995.842 L49.4481 1017.26 L61.6384 1021.59 L61.6384 1028.37 L14.1184 1010.23 Z" fill="#000000" fill-rule="evenodd" fill-opacity="1" /><path clip-path="url(#clip670)" d="M47.5702 978.75 L25.9905 978.75 L25.9905 972.894 L47.3474 972.894 Q52.4082 972.894 54.9545 970.92 Q57.4689 968.947 57.4689 965 Q57.4689 960.258 54.4452 957.52 Q51.4215 954.751 46.2016 954.751 L25.9905 954.751 L25.9905 948.895 L61.6384 948.895 L61.6384 954.751 L56.1639 954.751 Q59.4104 956.884 61.0019 959.717 Q62.5615 962.518 62.5615 966.241 Q62.5615 972.384 58.742 975.567 Q54.9226 978.75 47.5702 978.75 M25.1311 964.013 L25.1311 964.013 Z" fill="#000000" fill-rule="evenodd" fill-opacity="1" /><path clip-path="url(#clip670)" d="M15.869 931.039 L25.9905 931.039 L25.9905 918.976 L30.542 918.976 L30.542 931.039 L49.8937 931.039 Q54.2542 931.039 55.4955 929.861 Q56.7368 928.652 56.7368 924.992 L56.7368 918.976 L61.6384 918.976 L61.6384 924.992 Q61.6384 931.771 59.124 934.349 Q56.5777 936.927 49.8937 936.927 L30.542 936.927 L30.542 941.224 L25.9905 941.224 L25.9905 936.927 L15.869 936.927 L15.869 931.039 Z" fill="#000000" fill-rule="evenodd" fill-opacity="1" /><path clip-path="url(#clip670)" d="M30.0964 897.46 Q30.0964 902.171 33.7885 904.908 Q37.4488 907.645 43.8463 907.645 Q50.2438 907.645 53.9359 904.94 Q57.5962 902.202 57.5962 897.46 Q57.5962 892.781 53.9041 890.044 Q50.212 887.307 43.8463 887.307 Q37.5124 887.307 33.8203 890.044 Q30.0964 892.781 30.0964 897.46 M25.1311 897.46 Q25.1311 889.821 30.0964 885.461 Q35.0616 881.1 43.8463 881.1 Q52.5991 881.1 57.5962 885.461 Q62.5615 889.821 62.5615 897.46 Q62.5615 905.131 57.5962 909.491 Q52.5991 913.82 43.8463 913.82 Q35.0616 913.82 30.0964 909.491 Q25.1311 905.131 25.1311 897.46 Z" fill="#000000" fill-rule="evenodd" fill-opacity="1" /><path clip-path="url(#clip670)" d="M27.3591 845.739 L32.8336 845.739 Q31.465 848.221 30.7966 850.736 Q30.0964 853.218 30.0964 855.765 Q30.0964 861.462 33.7248 864.613 Q37.3214 867.764 43.8463 867.764 Q50.3711 867.764 53.9996 864.613 Q57.5962 861.462 57.5962 855.765 Q57.5962 853.218 56.9278 850.736 Q56.2276 848.221 54.859 845.739 L60.2698 845.739 Q61.4156 848.189 61.9886 850.831 Q62.5615 853.441 62.5615 856.401 Q62.5615 864.454 57.5007 869.196 Q52.44 873.939 43.8463 873.939 Q35.1253 873.939 30.1282 869.164 Q25.1311 864.358 25.1311 856.019 Q25.1311 853.314 25.704 850.736 Q26.2451 848.158 27.3591 845.739 Z" fill="#000000" fill-rule="evenodd" fill-opacity="1" /><path clip-path="url(#clip670)" d="M30.0964 821.74 Q30.0964 826.451 33.7885 829.188 Q37.4488 831.925 43.8463 831.925 Q50.2438 831.925 53.9359 829.22 Q57.5962 826.482 57.5962 821.74 Q57.5962 817.061 53.9041 814.324 Q50.212 811.587 43.8463 811.587 Q37.5124 811.587 33.8203 814.324 Q30.0964 817.061 30.0964 821.74 M25.1311 821.74 Q25.1311 814.101 30.0964 809.741 Q35.0616 805.38 43.8463 805.38 Q52.5991 805.38 57.5962 809.741 Q62.5615 814.101 62.5615 821.74 Q62.5615 829.411 57.5962 833.771 Q52.5991 838.1 43.8463 838.1 Q35.0616 838.1 30.0964 833.771 Q25.1311 829.411 25.1311 821.74 Z" fill="#000000" fill-rule="evenodd" fill-opacity="1" /><path clip-path="url(#clip670)" d="M31.465 775.016 Q30.8921 776.002 30.6375 777.18 Q30.351 778.326 30.351 779.726 Q30.351 784.692 33.5975 787.365 Q36.8122 790.007 42.8596 790.007 L61.6384 790.007 L61.6384 795.895 L25.9905 795.895 L25.9905 790.007 L31.5287 790.007 Q28.2821 788.161 26.7225 785.201 Q25.1311 782.241 25.1311 778.008 Q25.1311 777.403 25.2266 776.671 Q25.2903 775.939 25.4494 775.047 L31.465 775.016 Z" fill="#000000" fill-rule="evenodd" fill-opacity="1" /><path clip-path="url(#clip670)" d="M31.465 749.362 Q30.8921 750.349 30.6375 751.526 Q30.351 752.672 30.351 754.072 Q30.351 759.038 33.5975 761.711 Q36.8122 764.353 42.8596 764.353 L61.6384 764.353 L61.6384 770.241 L25.9905 770.241 L25.9905 764.353 L31.5287 764.353 Q28.2821 762.507 26.7225 759.547 Q25.1311 756.587 25.1311 752.354 Q25.1311 751.749 25.2266 751.017 Q25.2903 750.285 25.4494 749.394 L31.465 749.362 Z" fill="#000000" fill-rule="evenodd" fill-opacity="1" /><path clip-path="url(#clip670)" d="M42.3504 714.159 L45.2149 714.159 L45.2149 741.086 Q51.2623 740.704 54.4452 737.458 Q57.5962 734.18 57.5962 728.355 Q57.5962 724.981 56.7687 721.83 Q55.9411 718.647 54.2861 715.528 L59.8242 715.528 Q61.161 718.679 61.8612 721.989 Q62.5615 725.299 62.5615 728.705 Q62.5615 737.235 57.5962 742.232 Q52.631 747.198 44.1646 747.198 Q35.4117 747.198 30.2873 742.487 Q25.1311 737.744 25.1311 729.724 Q25.1311 722.53 29.7781 718.361 Q34.3932 714.159 42.3504 714.159 M40.6316 720.016 Q35.8255 720.08 32.9609 722.721 Q30.0964 725.331 30.0964 729.66 Q30.0964 734.562 32.8654 737.522 Q35.6345 740.45 40.6634 740.895 L40.6316 720.016 Z" fill="#000000" fill-rule="evenodd" fill-opacity="1" /><path clip-path="url(#clip670)" d="M12.1132 704.547 L12.1132 698.691 L61.6384 698.691 L61.6384 704.547 L12.1132 704.547 Z" fill="#000000" fill-rule="evenodd" fill-opacity="1" /><path clip-path="url(#clip670)" d="M43.719 670.236 Q43.719 677.334 45.3422 680.071 Q46.9655 682.808 50.8804 682.808 Q53.9996 682.808 55.8457 680.771 Q57.6599 678.703 57.6599 675.17 Q57.6599 670.3 54.2224 667.372 Q50.7531 664.411 45.0239 664.411 L43.719 664.411 L43.719 670.236 M41.3 658.555 L61.6384 658.555 L61.6384 664.411 L56.2276 664.411 Q59.4741 666.417 61.0337 669.409 Q62.5615 672.4 62.5615 676.729 Q62.5615 682.204 59.5059 685.45 Q56.4186 688.665 51.2623 688.665 Q45.2467 688.665 42.1912 684.654 Q39.1357 680.612 39.1357 672.623 L39.1357 664.411 L38.5628 664.411 Q34.5205 664.411 32.3244 667.085 Q30.0964 669.727 30.0964 674.533 Q30.0964 677.589 30.8284 680.485 Q31.5605 683.381 33.0246 686.055 L27.6137 686.055 Q26.3724 682.84 25.7677 679.817 Q25.1311 676.793 25.1311 673.928 Q25.1311 666.194 29.1415 662.374 Q33.1519 658.555 41.3 658.555 Z" fill="#000000" fill-rule="evenodd" fill-opacity="1" /><path clip-path="url(#clip670)" d="M15.869 640.699 L25.9905 640.699 L25.9905 628.636 L30.542 628.636 L30.542 640.699 L49.8937 640.699 Q54.2542 640.699 55.4955 639.522 Q56.7368 638.312 56.7368 634.652 L56.7368 628.636 L61.6384 628.636 L61.6384 634.652 Q61.6384 641.431 59.124 644.009 Q56.5777 646.588 49.8937 646.588 L30.542 646.588 L30.542 650.884 L25.9905 650.884 L25.9905 646.588 L15.869 646.588 L15.869 640.699 Z" fill="#000000" fill-rule="evenodd" fill-opacity="1" /><path clip-path="url(#clip670)" d="M25.9905 620.934 L25.9905 615.077 L61.6384 615.077 L61.6384 620.934 L25.9905 620.934 M12.1132 620.934 L12.1132 615.077 L19.5293 615.077 L19.5293 620.934 L12.1132 620.934 Z" fill="#000000" fill-rule="evenodd" fill-opacity="1" /><path clip-path="url(#clip670)" d="M30.0964 589.01 Q30.0964 593.72 33.7885 596.458 Q37.4488 599.195 43.8463 599.195 Q50.2438 599.195 53.9359 596.489 Q57.5962 593.752 57.5962 589.01 Q57.5962 584.331 53.9041 581.594 Q50.212 578.856 43.8463 578.856 Q37.5124 578.856 33.8203 581.594 Q30.0964 584.331 30.0964 589.01 M25.1311 589.01 Q25.1311 581.371 30.0964 577.01 Q35.0616 572.65 43.8463 572.65 Q52.5991 572.65 57.5962 577.01 Q62.5615 581.371 62.5615 589.01 Q62.5615 596.68 57.5962 601.041 Q52.5991 605.37 43.8463 605.37 Q35.0616 605.37 30.0964 601.041 Q25.1311 596.68 25.1311 589.01 Z" fill="#000000" fill-rule="evenodd" fill-opacity="1" /><path clip-path="url(#clip670)" d="M40.1224 533.31 L61.6384 533.31 L61.6384 539.166 L40.3133 539.166 Q35.2526 539.166 32.7381 541.14 Q30.2237 543.113 30.2237 547.06 Q30.2237 551.802 33.2474 554.539 Q36.2711 557.277 41.491 557.277 L61.6384 557.277 L61.6384 563.165 L25.9905 563.165 L25.9905 557.277 L31.5287 557.277 Q28.314 555.176 26.7225 552.343 Q25.1311 549.479 25.1311 545.755 Q25.1311 539.612 28.9505 536.461 Q32.7381 533.31 40.1224 533.31 Z" fill="#000000" fill-rule="evenodd" fill-opacity="1" /><circle clip-path="url(#clip672)" cx="331.232" cy="570.511" r="14.4" fill="#009af9" fill-rule="evenodd" fill-opacity="1" stroke="#000000" stroke-opacity="1" stroke-width="3.84"/>
<circle clip-path="url(#clip672)" cx="1078.65" cy="1365.32" r="14.4" fill="#009af9" fill-rule="evenodd" fill-opacity="1" stroke="#000000" stroke-opacity="1" stroke-width="3.84"/>
<circle clip-path="url(#clip672)" cx="1826.07" cy="516.452" r="14.4" fill="#009af9" fill-rule="evenodd" fill-opacity="1" stroke="#000000" stroke-opacity="1" stroke-width="3.84"/>
<circle clip-path="url(#clip672)" cx="2573.49" cy="1686.38" r="14.4" fill="#009af9" fill-rule="evenodd" fill-opacity="1" stroke="#000000" stroke-opacity="1" stroke-width="3.84"/>
<polyline clip-path="url(#clip672)" style="stroke:#009af9; stroke-linecap:round; stroke-linejoin:round; stroke-width:8; stroke-opacity:1; fill:none" points="331.232,94.9858 331.232,570.511 "/>
<polyline clip-path="url(#clip672)" style="stroke:#009af9; stroke-linecap:round; stroke-linejoin:round; stroke-width:8; stroke-opacity:1; fill:none" points="1078.65,94.9858 1078.65,1365.32 "/>
<polyline clip-path="url(#clip672)" style="stroke:#009af9; stroke-linecap:round; stroke-linejoin:round; stroke-width:8; stroke-opacity:1; fill:none" points="1826.07,94.9858 1826.07,516.452 "/>
<polyline clip-path="url(#clip672)" style="stroke:#009af9; stroke-linecap:round; stroke-linejoin:round; stroke-width:8; stroke-opacity:1; fill:none" points="2573.49,94.9858 2573.49,1686.38 "/>
<polyline clip-path="url(#clip672)" style="stroke:#ff0000; stroke-linecap:round; stroke-linejoin:round; stroke-width:4; stroke-opacity:1; fill:none" stroke-dasharray="2, 4" points="-2112.83,94.9858 5017.55,94.9858 "/>
</svg>
