<?xml version="1.0" encoding="utf-8"?>
<svg xmlns="http://www.w3.org/2000/svg" xmlns:xlink="http://www.w3.org/1999/xlink" width="672" height="480" viewBox="0 0 2688 1920">
<defs>
  <clipPath id="clip630">
    <rect x="0" y="0" width="2688" height="1920"/>
  </clipPath>
</defs>
<path clip-path="url(#clip630)" d="M0 1920 L2688 1920 L2688 0 L0 0  Z" fill="#ffffff" fill-rule="evenodd" fill-opacity="1"/>
<defs>
  <clipPath id="clip631">
    <rect x="537" y="0" width="1883" height="1883"/>
  </clipPath>
</defs>
<defs>
  <clipPath id="clip632">
    <rect x="1524" y="1336" width="1133" height="450"/>
  </clipPath>
</defs>
<path clip-path="url(#clip630)" d="M238.664 1734.12 L2640.76 1734.12 L2640.76 47.2441 L238.664 47.2441  Z" fill="#ffffff" fill-rule="evenodd" fill-opacity="1"/>
<defs>
  <clipPath id="clip633">
    <rect x="238" y="47" width="2403" height="1688"/>
  </clipPath>
</defs>
<polyline clip-path="url(#clip633)" style="stroke:#000000; stroke-linecap:round; stroke-linejoin:round; stroke-width:2; stroke-opacity:0.1; fill:none" points="306.647,1734.12 306.647,47.2441 "/>
<polyline clip-path="url(#clip633)" style="stroke:#000000; stroke-linecap:round; stroke-linejoin:round; stroke-width:2; stroke-opacity:0.1; fill:none" points="873.179,1734.12 873.179,47.2441 "/>
<polyline clip-path="url(#clip633)" style="stroke:#000000; stroke-linecap:round; stroke-linejoin:round; stroke-width:2; stroke-opacity:0.1; fill:none" points="1439.71,1734.12 1439.71,47.2441 "/>
<polyline clip-path="url(#clip633)" style="stroke:#000000; stroke-linecap:round; stroke-linejoin:round; stroke-width:2; stroke-opacity:0.1; fill:none" points="2006.24,1734.12 2006.24,47.2441 "/>
<polyline clip-path="url(#clip633)" style="stroke:#000000; stroke-linecap:round; stroke-linejoin:round; stroke-width:2; stroke-opacity:0.1; fill:none" points="2572.77,1734.12 2572.77,47.2441 "/>
<polyline clip-path="url(#clip630)" style="stroke:#000000; stroke-linecap:round; stroke-linejoin:round; stroke-width:4; stroke-opacity:1; fill:none" points="238.664,1734.12 2640.76,1734.12 "/>
<polyline clip-path="url(#clip630)" style="stroke:#000000; stroke-linecap:round; stroke-linejoin:round; stroke-width:4; stroke-opacity:1; fill:none" points="306.647,1734.12 306.647,1715.22 "/>
<polyline clip-path="url(#clip630)" style="stroke:#000000; stroke-linecap:round; stroke-linejoin:round; stroke-width:4; stroke-opacity:1; fill:none" points="873.179,1734.12 873.179,1715.22 "/>
<polyline clip-path="url(#clip630)" style="stroke:#000000; stroke-linecap:round; stroke-linejoin:round; stroke-width:4; stroke-opacity:1; fill:none" points="1439.71,1734.12 1439.71,1715.22 "/>
<polyline clip-path="url(#clip630)" style="stroke:#000000; stroke-linecap:round; stroke-linejoin:round; stroke-width:4; stroke-opacity:1; fill:none" points="2006.24,1734.12 2006.24,1715.22 "/>
<polyline clip-path="url(#clip630)" style="stroke:#000000; stroke-linecap:round; stroke-linejoin:round; stroke-width:4; stroke-opacity:1; fill:none" points="2572.77,1734.12 2572.77,1715.22 "/>
<path clip-path="url(#clip630)" d="M306.647 1767.34 Q303.036 1767.34 301.208 1770.9 Q299.402 1774.45 299.402 1781.58 Q299.402 1788.68 301.208 1792.25 Q303.036 1795.79 306.647 1795.79 Q310.282 1795.79 312.087 1792.25 Q313.916 1788.68 313.916 1781.58 Q313.916 1774.45 312.087 1770.9 Q310.282 1767.34 306.647 1767.34 M306.647 1763.64 Q312.458 1763.64 315.513 1768.24 Q318.592 1772.83 318.592 1781.58 Q318.592 1790.3 315.513 1794.91 Q312.458 1799.49 306.647 1799.49 Q300.837 1799.49 297.759 1794.91 Q294.703 1790.3 294.703 1781.58 Q294.703 1772.83 297.759 1768.24 Q300.837 1763.64 306.647 1763.64 Z" fill="#000000" fill-rule="evenodd" fill-opacity="1" /><path clip-path="url(#clip630)" d="M863.456 1764.26 L881.813 1764.26 L881.813 1768.2 L867.739 1768.2 L867.739 1776.67 Q868.757 1776.32 869.776 1776.16 Q870.794 1775.97 871.813 1775.97 Q877.6 1775.97 880.979 1779.15 Q884.359 1782.32 884.359 1787.73 Q884.359 1793.31 880.887 1796.41 Q877.415 1799.49 871.095 1799.49 Q868.919 1799.49 866.651 1799.12 Q864.405 1798.75 861.998 1798.01 L861.998 1793.31 Q864.081 1794.45 866.304 1795 Q868.526 1795.56 871.003 1795.56 Q875.007 1795.56 877.345 1793.45 Q879.683 1791.34 879.683 1787.73 Q879.683 1784.12 877.345 1782.02 Q875.007 1779.91 871.003 1779.91 Q869.128 1779.91 867.253 1780.33 Q865.401 1780.74 863.456 1781.62 L863.456 1764.26 Z" fill="#000000" fill-rule="evenodd" fill-opacity="1" /><path clip-path="url(#clip630)" d="M1414.4 1794.89 L1422.04 1794.89 L1422.04 1768.52 L1413.73 1770.19 L1413.73 1765.93 L1421.99 1764.26 L1426.67 1764.26 L1426.67 1794.89 L1434.3 1794.89 L1434.3 1798.82 L1414.4 1798.82 L1414.4 1794.89 Z" fill="#000000" fill-rule="evenodd" fill-opacity="1" /><path clip-path="url(#clip630)" d="M1453.75 1767.34 Q1450.14 1767.34 1448.31 1770.9 Q1446.5 1774.45 1446.5 1781.58 Q1446.5 1788.68 1448.31 1792.25 Q1450.14 1795.79 1453.75 1795.79 Q1457.38 1795.79 1459.19 1792.25 Q1461.02 1788.68 1461.02 1781.58 Q1461.02 1774.45 1459.19 1770.9 Q1457.38 1767.34 1453.75 1767.34 M1453.75 1763.64 Q1459.56 1763.64 1462.61 1768.24 Q1465.69 1772.83 1465.69 1781.58 Q1465.69 1790.3 1462.61 1794.91 Q1459.56 1799.49 1453.75 1799.49 Q1447.94 1799.49 1444.86 1794.91 Q1441.8 1790.3 1441.8 1781.58 Q1441.8 1772.83 1444.86 1768.24 Q1447.94 1763.64 1453.75 1763.64 Z" fill="#000000" fill-rule="evenodd" fill-opacity="1" /><path clip-path="url(#clip630)" d="M1981.43 1794.89 L1989.07 1794.89 L1989.07 1768.52 L1980.75 1770.19 L1980.75 1765.93 L1989.02 1764.26 L1993.69 1764.26 L1993.69 1794.89 L2001.33 1794.89 L2001.33 1798.82 L1981.43 1798.82 L1981.43 1794.89 Z" fill="#000000" fill-rule="evenodd" fill-opacity="1" /><path clip-path="url(#clip630)" d="M2010.82 1764.26 L2029.18 1764.26 L2029.18 1768.2 L2015.11 1768.2 L2015.11 1776.67 Q2016.13 1776.32 2017.14 1776.16 Q2018.16 1775.97 2019.18 1775.97 Q2024.97 1775.97 2028.35 1779.15 Q2031.73 1782.32 2031.73 1787.73 Q2031.73 1793.31 2028.25 1796.41 Q2024.78 1799.49 2018.46 1799.49 Q2016.29 1799.49 2014.02 1799.12 Q2011.77 1798.75 2009.37 1798.01 L2009.37 1793.31 Q2011.45 1794.45 2013.67 1795 Q2015.89 1795.56 2018.37 1795.56 Q2022.38 1795.56 2024.71 1793.45 Q2027.05 1791.34 2027.05 1787.73 Q2027.05 1784.12 2024.71 1782.02 Q2022.38 1779.91 2018.37 1779.91 Q2016.5 1779.91 2014.62 1780.33 Q2012.77 1780.74 2010.82 1781.62 L2010.82 1764.26 Z" fill="#000000" fill-rule="evenodd" fill-opacity="1" /><path clip-path="url(#clip630)" d="M2551.55 1794.89 L2567.86 1794.89 L2567.86 1798.82 L2545.92 1798.82 L2545.92 1794.89 Q2548.58 1792.13 2553.17 1787.5 Q2557.77 1782.85 2558.95 1781.51 Q2561.2 1778.98 2562.08 1777.25 Q2562.98 1775.49 2562.98 1773.8 Q2562.98 1771.04 2561.04 1769.31 Q2559.11 1767.57 2556.01 1767.57 Q2553.81 1767.57 2551.36 1768.34 Q2548.93 1769.1 2546.15 1770.65 L2546.15 1765.93 Q2548.98 1764.79 2551.43 1764.21 Q2553.88 1763.64 2555.92 1763.64 Q2561.29 1763.64 2564.49 1766.32 Q2567.68 1769.01 2567.68 1773.5 Q2567.68 1775.63 2566.87 1777.55 Q2566.08 1779.45 2563.98 1782.04 Q2563.4 1782.71 2560.3 1785.93 Q2557.19 1789.12 2551.55 1794.89 Z" fill="#000000" fill-rule="evenodd" fill-opacity="1" /><path clip-path="url(#clip630)" d="M2587.68 1767.34 Q2584.07 1767.34 2582.24 1770.9 Q2580.43 1774.45 2580.43 1781.58 Q2580.43 1788.68 2582.24 1792.25 Q2584.07 1795.79 2587.68 1795.79 Q2591.31 1795.79 2593.12 1792.25 Q2594.95 1788.68 2594.95 1781.58 Q2594.95 1774.45 2593.12 1770.9 Q2591.31 1767.34 2587.68 1767.34 M2587.68 1763.64 Q2593.49 1763.64 2596.55 1768.24 Q2599.62 1772.83 2599.62 1781.58 Q2599.62 1790.3 2596.55 1794.91 Q2593.49 1799.49 2587.68 1799.49 Q2581.87 1799.49 2578.79 1794.91 Q2575.74 1790.3 2575.74 1781.58 Q2575.74 1772.83 2578.79 1768.24 Q2581.87 1763.64 2587.68 1763.64 Z" fill="#000000" fill-rule="evenodd" fill-opacity="1" /><path clip-path="url(#clip630)" d="M1453.88 1844.06 Q1453.88 1845.86 1452.76 1846.89 Q1451.63 1847.89 1450.34 1847.89 Q1449.12 1847.89 1448.47 1847.18 Q1447.83 1846.48 1447.83 1845.57 Q1447.83 1844.35 1448.73 1843.29 Q1449.63 1842.22 1450.98 1842 Q1449.66 1841.16 1447.7 1841.16 Q1446.41 1841.16 1445.28 1841.84 Q1444.19 1842.51 1443.51 1843.38 Q1442.87 1844.25 1442.29 1845.51 Q1441.74 1846.73 1441.52 1847.47 Q1441.32 1848.18 1441.16 1848.96 L1438.91 1857.97 Q1437.81 1862.26 1437.81 1863.77 Q1437.81 1865.64 1438.71 1866.89 Q1439.62 1868.12 1441.42 1868.12 Q1442.13 1868.12 1442.93 1867.93 Q1443.74 1867.7 1444.77 1867.12 Q1445.83 1866.51 1446.77 1865.61 Q1447.73 1864.67 1448.67 1863.09 Q1449.6 1861.52 1450.21 1859.49 Q1450.41 1858.78 1451.05 1858.78 Q1451.85 1858.78 1451.85 1859.42 Q1451.85 1859.97 1451.4 1861.13 Q1450.98 1862.26 1450.05 1863.74 Q1449.15 1865.19 1447.96 1866.51 Q1446.77 1867.8 1444.99 1868.7 Q1443.22 1869.6 1441.29 1869.6 Q1438.52 1869.6 1436.69 1868.12 Q1434.85 1866.64 1434.17 1864.58 Q1434.01 1864.87 1433.79 1865.25 Q1433.56 1865.64 1432.89 1866.51 Q1432.24 1867.35 1431.5 1867.99 Q1430.76 1868.6 1429.6 1869.08 Q1428.47 1869.6 1427.25 1869.6 Q1425.7 1869.6 1424.32 1869.15 Q1422.97 1868.7 1422 1867.67 Q1421.03 1866.64 1421.03 1865.22 Q1421.03 1863.64 1422.1 1862.55 Q1423.19 1861.42 1424.67 1861.42 Q1425.61 1861.42 1426.35 1861.97 Q1427.12 1862.51 1427.12 1863.71 Q1427.12 1865.03 1426.22 1866.02 Q1425.32 1867.02 1424.03 1867.28 Q1425.35 1868.12 1427.31 1868.12 Q1429.44 1868.12 1431.11 1866.25 Q1432.79 1864.38 1433.59 1861.26 Q1435.59 1853.75 1436.36 1850.41 Q1437.14 1847.02 1437.14 1845.57 Q1437.14 1844.22 1436.78 1843.29 Q1436.43 1842.35 1435.82 1841.93 Q1435.24 1841.48 1434.69 1841.32 Q1434.17 1841.16 1433.59 1841.16 Q1432.63 1841.16 1431.53 1841.55 Q1430.47 1841.93 1429.18 1842.84 Q1427.93 1843.71 1426.73 1845.51 Q1425.54 1847.31 1424.74 1849.79 Q1424.58 1850.53 1423.87 1850.53 Q1423.09 1850.5 1423.09 1849.86 Q1423.09 1849.31 1423.51 1848.18 Q1423.96 1847.02 1424.87 1845.57 Q1425.8 1844.12 1426.99 1842.84 Q1428.22 1841.52 1429.99 1840.61 Q1431.79 1839.71 1433.72 1839.71 Q1434.59 1839.71 1435.43 1839.91 Q1436.3 1840.07 1437.33 1840.55 Q1438.39 1841.03 1439.33 1842.1 Q1440.26 1843.16 1440.84 1844.7 Q1441.23 1843.96 1441.74 1843.26 Q1442.29 1842.55 1443.13 1841.68 Q1444 1840.78 1445.19 1840.26 Q1446.41 1839.71 1447.76 1839.71 Q1449.08 1839.71 1450.37 1840.07 Q1451.66 1840.39 1452.76 1841.45 Q1453.88 1842.48 1453.88 1844.06 Z" fill="#000000" fill-rule="evenodd" fill-opacity="1" /><polyline clip-path="url(#clip633)" style="stroke:#000000; stroke-linecap:round; stroke-linejoin:round; stroke-width:2; stroke-opacity:0.1; fill:none" points="238.664,1434.22 2640.76,1434.22 "/>
<polyline clip-path="url(#clip633)" style="stroke:#000000; stroke-linecap:round; stroke-linejoin:round; stroke-width:2; stroke-opacity:0.1; fill:none" points="238.664,1116.56 2640.76,1116.56 "/>
<polyline clip-path="url(#clip633)" style="stroke:#000000; stroke-linecap:round; stroke-linejoin:round; stroke-width:2; stroke-opacity:0.1; fill:none" points="238.664,798.897 2640.76,798.897 "/>
<polyline clip-path="url(#clip633)" style="stroke:#000000; stroke-linecap:round; stroke-linejoin:round; stroke-width:2; stroke-opacity:0.1; fill:none" points="238.664,481.235 2640.76,481.235 "/>
<polyline clip-path="url(#clip633)" style="stroke:#000000; stroke-linecap:round; stroke-linejoin:round; stroke-width:2; stroke-opacity:0.1; fill:none" points="238.664,163.573 2640.76,163.573 "/>
<polyline clip-path="url(#clip630)" style="stroke:#000000; stroke-linecap:round; stroke-linejoin:round; stroke-width:4; stroke-opacity:1; fill:none" points="238.664,1734.12 238.664,47.2441 "/>
<polyline clip-path="url(#clip630)" style="stroke:#000000; stroke-linecap:round; stroke-linejoin:round; stroke-width:4; stroke-opacity:1; fill:none" points="238.664,1434.22 257.561,1434.22 "/>
<polyline clip-path="url(#clip630)" style="stroke:#000000; stroke-linecap:round; stroke-linejoin:round; stroke-width:4; stroke-opacity:1; fill:none" points="238.664,1116.56 257.561,1116.56 "/>
<polyline clip-path="url(#clip630)" style="stroke:#000000; stroke-linecap:round; stroke-linejoin:round; stroke-width:4; stroke-opacity:1; fill:none" points="238.664,798.897 257.561,798.897 "/>
<polyline clip-path="url(#clip630)" style="stroke:#000000; stroke-linecap:round; stroke-linejoin:round; stroke-width:4; stroke-opacity:1; fill:none" points="238.664,481.235 257.561,481.235 "/>
<polyline clip-path="url(#clip630)" style="stroke:#000000; stroke-linecap:round; stroke-linejoin:round; stroke-width:4; stroke-opacity:1; fill:none" points="238.664,163.573 257.561,163.573 "/>
<path clip-path="url(#clip630)" d="M186.399 1420.02 Q182.788 1420.02 180.959 1423.58 Q179.154 1427.13 179.154 1434.25 Q179.154 1441.36 180.959 1444.93 Q182.788 1448.47 186.399 1448.47 Q190.033 1448.47 191.839 1444.93 Q193.668 1441.36 193.668 1434.25 Q193.668 1427.13 191.839 1423.58 Q190.033 1420.02 186.399 1420.02 M186.399 1416.32 Q192.209 1416.32 195.265 1420.92 Q198.344 1425.5 198.344 1434.25 Q198.344 1442.98 195.265 1447.59 Q192.209 1452.17 186.399 1452.17 Q180.589 1452.17 177.51 1447.59 Q174.455 1442.98 174.455 1434.25 Q174.455 1425.5 177.51 1420.92 Q180.589 1416.32 186.399 1416.32 Z" fill="#000000" fill-rule="evenodd" fill-opacity="1" /><path clip-path="url(#clip630)" d="M151.261 1129.9 L167.58 1129.9 L167.58 1133.84 L145.636 1133.84 L145.636 1129.9 Q148.298 1127.15 152.881 1122.52 Q157.487 1117.87 158.668 1116.52 Q160.913 1114 161.793 1112.26 Q162.696 1110.51 162.696 1108.82 Q162.696 1106.06 160.751 1104.32 Q158.83 1102.59 155.728 1102.59 Q153.529 1102.59 151.075 1103.35 Q148.645 1104.12 145.867 1105.67 L145.867 1100.95 Q148.691 1099.81 151.145 1099.23 Q153.599 1098.65 155.636 1098.65 Q161.006 1098.65 164.2 1101.34 Q167.395 1104.02 167.395 1108.51 Q167.395 1110.64 166.585 1112.57 Q165.798 1114.46 163.691 1117.06 Q163.112 1117.73 160.011 1120.94 Q156.909 1124.14 151.261 1129.9 Z" fill="#000000" fill-rule="evenodd" fill-opacity="1" /><path clip-path="url(#clip630)" d="M177.441 1099.28 L195.797 1099.28 L195.797 1103.21 L181.723 1103.21 L181.723 1111.69 Q182.742 1111.34 183.76 1111.18 Q184.779 1110.99 185.797 1110.99 Q191.584 1110.99 194.964 1114.16 Q198.344 1117.33 198.344 1122.75 Q198.344 1128.33 194.871 1131.43 Q191.399 1134.51 185.08 1134.51 Q182.904 1134.51 180.635 1134.14 Q178.39 1133.77 175.983 1133.03 L175.983 1128.33 Q178.066 1129.46 180.288 1130.02 Q182.51 1130.57 184.987 1130.57 Q188.992 1130.57 191.33 1128.47 Q193.668 1126.36 193.668 1122.75 Q193.668 1119.14 191.33 1117.03 Q188.992 1114.93 184.987 1114.93 Q183.112 1114.93 181.237 1115.34 Q179.385 1115.76 177.441 1116.64 L177.441 1099.28 Z" fill="#000000" fill-rule="evenodd" fill-opacity="1" /><path clip-path="url(#clip630)" d="M146.284 781.617 L164.64 781.617 L164.64 785.552 L150.566 785.552 L150.566 794.024 Q151.585 793.677 152.603 793.515 Q153.622 793.33 154.64 793.33 Q160.427 793.33 163.807 796.501 Q167.186 799.672 167.186 805.089 Q167.186 810.667 163.714 813.769 Q160.242 816.848 153.923 816.848 Q151.747 816.848 149.478 816.478 Q147.233 816.107 144.825 815.366 L144.825 810.667 Q146.909 811.802 149.131 812.357 Q151.353 812.913 153.83 812.913 Q157.835 812.913 160.173 810.806 Q162.51 808.7 162.51 805.089 Q162.51 801.478 160.173 799.371 Q157.835 797.265 153.83 797.265 Q151.955 797.265 150.08 797.681 Q148.228 798.098 146.284 798.978 L146.284 781.617 Z" fill="#000000" fill-rule="evenodd" fill-opacity="1" /><path clip-path="url(#clip630)" d="M186.399 784.695 Q182.788 784.695 180.959 788.26 Q179.154 791.802 179.154 798.931 Q179.154 806.038 180.959 809.603 Q182.788 813.144 186.399 813.144 Q190.033 813.144 191.839 809.603 Q193.668 806.038 193.668 798.931 Q193.668 791.802 191.839 788.26 Q190.033 784.695 186.399 784.695 M186.399 780.992 Q192.209 780.992 195.265 785.598 Q198.344 790.181 198.344 798.931 Q198.344 807.658 195.265 812.265 Q192.209 816.848 186.399 816.848 Q180.589 816.848 177.51 812.265 Q174.455 807.658 174.455 798.931 Q174.455 790.181 177.51 785.598 Q180.589 780.992 186.399 780.992 Z" fill="#000000" fill-rule="evenodd" fill-opacity="1" /><path clip-path="url(#clip630)" d="M146.052 463.955 L168.274 463.955 L168.274 465.946 L155.728 498.515 L150.844 498.515 L162.649 467.89 L146.052 467.89 L146.052 463.955 Z" fill="#000000" fill-rule="evenodd" fill-opacity="1" /><path clip-path="url(#clip630)" d="M177.441 463.955 L195.797 463.955 L195.797 467.89 L181.723 467.89 L181.723 476.362 Q182.742 476.015 183.76 475.853 Q184.779 475.668 185.797 475.668 Q191.584 475.668 194.964 478.839 Q198.344 482.01 198.344 487.427 Q198.344 493.006 194.871 496.108 Q191.399 499.186 185.08 499.186 Q182.904 499.186 180.635 498.816 Q178.39 498.446 175.983 497.705 L175.983 493.006 Q178.066 494.14 180.288 494.696 Q182.51 495.251 184.987 495.251 Q188.992 495.251 191.33 493.145 Q193.668 491.038 193.668 487.427 Q193.668 483.816 191.33 481.709 Q188.992 479.603 184.987 479.603 Q183.112 479.603 181.237 480.02 Q179.385 480.436 177.441 481.316 L177.441 463.955 Z" fill="#000000" fill-rule="evenodd" fill-opacity="1" /><path clip-path="url(#clip630)" d="M116.886 176.918 L124.525 176.918 L124.525 150.552 L116.214 152.219 L116.214 147.96 L124.478 146.293 L129.154 146.293 L129.154 176.918 L136.793 176.918 L136.793 180.853 L116.886 180.853 L116.886 176.918 Z" fill="#000000" fill-rule="evenodd" fill-opacity="1" /><path clip-path="url(#clip630)" d="M156.237 149.372 Q152.626 149.372 150.798 152.937 Q148.992 156.478 148.992 163.608 Q148.992 170.714 150.798 174.279 Q152.626 177.821 156.237 177.821 Q159.872 177.821 161.677 174.279 Q163.506 170.714 163.506 163.608 Q163.506 156.478 161.677 152.937 Q159.872 149.372 156.237 149.372 M156.237 145.668 Q162.048 145.668 165.103 150.275 Q168.182 154.858 168.182 163.608 Q168.182 172.335 165.103 176.941 Q162.048 181.525 156.237 181.525 Q150.427 181.525 147.349 176.941 Q144.293 172.335 144.293 163.608 Q144.293 154.858 147.349 150.275 Q150.427 145.668 156.237 145.668 Z" fill="#000000" fill-rule="evenodd" fill-opacity="1" /><path clip-path="url(#clip630)" d="M186.399 149.372 Q182.788 149.372 180.959 152.937 Q179.154 156.478 179.154 163.608 Q179.154 170.714 180.959 174.279 Q182.788 177.821 186.399 177.821 Q190.033 177.821 191.839 174.279 Q193.668 170.714 193.668 163.608 Q193.668 156.478 191.839 152.937 Q190.033 149.372 186.399 149.372 M186.399 145.668 Q192.209 145.668 195.265 150.275 Q198.344 154.858 198.344 163.608 Q198.344 172.335 195.265 176.941 Q192.209 181.525 186.399 181.525 Q180.589 181.525 177.51 176.941 Q174.455 172.335 174.455 163.608 Q174.455 154.858 177.51 150.275 Q180.589 145.668 186.399 145.668 Z" fill="#000000" fill-rule="evenodd" fill-opacity="1" /><path clip-path="url(#clip630)" d="M28.4832 876.243 Q28.9341 876.243 29.9969 876.533 L55.1819 882.845 Q60.7857 884.23 64.7148 888.739 Q68.6439 893.215 68.6439 898.304 Q68.6439 901.364 67.0014 903.328 Q65.3911 905.293 62.9113 905.293 Q60.7213 905.293 59.6585 904.133 Q58.6279 902.974 58.6279 901.589 Q58.6279 901.138 58.7567 900.655 Q58.8855 900.172 59.433 899.657 Q59.9805 899.141 60.9145 899.141 Q62.4282 899.141 63.6198 900.462 Q64.1673 901.106 64.2961 901.718 Q64.4249 902.297 64.4249 903.296 Q65.3267 902.909 65.9386 902.201 Q66.5505 901.492 66.776 900.687 Q67.0336 899.882 67.098 899.367 Q67.1946 898.819 67.1946 898.304 Q67.1946 894.182 63.0401 891.025 Q61.7841 890.091 60.528 889.415 Q59.3042 888.707 57.7905 888.191 Q56.3091 887.676 55.5039 887.451 Q54.6988 887.193 52.863 886.742 Q55.8582 889.737 55.8582 893.409 Q55.8582 894.955 55.4395 896.339 Q55.0208 897.692 54.1513 898.884 Q53.2495 900.075 51.6714 900.784 Q50.0933 901.46 47.9999 901.46 Q45.7777 901.46 42.7504 900.591 Q39.723 899.721 34.1514 897.628 Q31.0275 896.5 29.5138 896.5 Q28.773 896.5 28.3222 896.661 Q27.8391 896.822 27.678 897.145 Q27.4848 897.467 27.4526 897.66 Q27.4204 897.821 27.4204 898.143 Q27.4204 900.043 29.3528 901.814 Q31.2851 903.586 35.6007 904.81 Q36.4058 905.067 36.5991 905.228 Q36.7923 905.389 36.7923 905.872 Q36.7601 906.677 36.116 906.677 Q35.8583 906.677 34.86 906.388 Q33.8294 906.098 32.3157 905.421 Q30.7698 904.713 29.385 903.747 Q27.9679 902.781 26.9695 901.267 Q25.9711 899.721 25.9711 897.95 Q25.9711 895.534 27.5492 894.053 Q29.0951 892.539 31.3817 892.539 Q32.3157 892.539 33.153 892.797 Q33.9582 893.022 36.116 893.86 Q44.8116 897.241 49.0627 897.241 Q50.0933 897.241 50.9629 897.08 Q51.8002 896.887 52.6376 896.468 Q53.4427 896.05 53.9258 895.212 Q54.3767 894.343 54.3767 893.151 Q54.3767 891.637 53.6682 890.22 Q52.9274 888.771 51.9291 887.869 Q50.9307 886.935 50.0933 886.388 Q49.2238 885.808 48.7729 885.679 L36.9211 882.716 L31.6394 881.396 Q28.773 880.784 28.0645 880.494 Q27.3882 880.108 27.0339 879.431 Q26.6797 878.755 26.6797 878.175 Q26.6797 877.37 27.1628 876.823 Q27.6458 876.243 28.4832 876.243 Z" fill="#000000" fill-rule="evenodd" fill-opacity="1" /><path clip-path="url(#clip633)" d="M306.647 1686.38 L419.954 1635.79 L533.26 1584.1 L646.566 1524.8 L759.872 1477.31 L873.179 1424.56 L986.485 1378.43 L1099.79 1325.19 L1213.1 1269.64 L1326.4 1218.77 L1439.71 1182.02 L1553.02 1124.42 L1666.32 1071.53 L1779.63 1024.73 L1892.93 982.197 L2006.24 939.089 L2119.55 893.96 L2232.85 846.382 L2346.16 796.281 L2459.47 757.424 L2572.77 705.678 L2572.77 94.9858 L2459.47 148.662 L2346.16 201.671 L2232.85 257.766 L2119.55 314.8 L2006.24 371.674 L1892.93 421.053 L1779.63 467.589 L1666.32 521.834 L1553.02 578.13 L1439.71 625.523 L1326.4 677.324 L1213.1 722.722 L1099.79 765.241 L986.485 826.306 L873.179 868.905 L759.872 926.245 L646.566 969.507 L533.26 1019.52 L419.954 1063.77 L306.647 1109.22  Z" fill="#0000ff" fill-rule="evenodd" fill-opacity="0.3"/>
<polyline clip-path="url(#clip633)" style="stroke:#009af9; stroke-linecap:round; stroke-linejoin:round; stroke-width:4; stroke-opacity:0; fill:none" points="306.647,1686.38 419.954,1635.79 533.26,1584.1 646.566,1524.8 759.872,1477.31 873.179,1424.56 986.485,1378.43 1099.79,1325.19 1213.1,1269.64 1326.4,1218.77 1439.71,1182.02 1553.02,1124.42 1666.32,1071.53 1779.63,1024.73 1892.93,982.197 2006.24,939.089 2119.55,893.96 2232.85,846.382 2346.16,796.281 2459.47,757.424 2572.77,705.678 "/>
<polyline clip-path="url(#clip633)" style="stroke:#0000ff; stroke-linecap:round; stroke-linejoin:round; stroke-width:4; stroke-opacity:1; fill:none" points="306.647,1394.42 419.954,1343.4 533.26,1295.55 646.566,1246.52 759.872,1196.64 873.179,1146.75 986.485,1096.52 1099.79,1046.72 1213.1,999.377 1326.4,947.947 1439.71,898.673 1553.02,850.172 1666.32,797.685 1779.63,748.295 1892.93,700.34 2006.24,649.308 2119.55,599.855 2232.85,550.671 2346.16,500.38 2459.47,450.816 2572.77,400.159 "/>
<circle clip-path="url(#clip633)" cx="418.077" cy="1394.93" r="14.4" fill="#ff0000" fill-rule="evenodd" fill-opacity="1" stroke="#000000" stroke-opacity="1" stroke-width="3.84"/>
<circle clip-path="url(#clip633)" cx="576.495" cy="1190.21" r="14.4" fill="#ff0000" fill-rule="evenodd" fill-opacity="1" stroke="#000000" stroke-opacity="1" stroke-width="3.84"/>
<circle clip-path="url(#clip633)" cx="1197.85" cy="1020.67" r="14.4" fill="#ff0000" fill-rule="evenodd" fill-opacity="1" stroke="#000000" stroke-opacity="1" stroke-width="3.84"/>
<circle clip-path="url(#clip633)" cx="361.248" cy="1271.94" r="14.4" fill="#ff0000" fill-rule="evenodd" fill-opacity="1" stroke="#000000" stroke-opacity="1" stroke-width="3.84"/>
<circle clip-path="url(#clip633)" cx="1874.48" cy="671.382" r="14.4" fill="#ff0000" fill-rule="evenodd" fill-opacity="1" stroke="#000000" stroke-opacity="1" stroke-width="3.84"/>
<circle clip-path="url(#clip633)" cx="2045.94" cy="793.604" r="14.4" fill="#ff0000" fill-rule="evenodd" fill-opacity="1" stroke="#000000" stroke-opacity="1" stroke-width="3.84"/>
<circle clip-path="url(#clip633)" cx="504.374" cy="1379.32" r="14.4" fill="#ff0000" fill-rule="evenodd" fill-opacity="1" stroke="#000000" stroke-opacity="1" stroke-width="3.84"/>
<circle clip-path="url(#clip633)" cx="2245.81" cy="347.263" r="14.4" fill="#ff0000" fill-rule="evenodd" fill-opacity="1" stroke="#000000" stroke-opacity="1" stroke-width="3.84"/>
<circle clip-path="url(#clip633)" cx="2125.35" cy="650.567" r="14.4" fill="#ff0000" fill-rule="evenodd" fill-opacity="1" stroke="#000000" stroke-opacity="1" stroke-width="3.84"/>
<circle clip-path="url(#clip633)" cx="1805.52" cy="774.308" r="14.4" fill="#ff0000" fill-rule="evenodd" fill-opacity="1" stroke="#000000" stroke-opacity="1" stroke-width="3.84"/>
<path clip-path="url(#clip630)" d="M318.733 310.833 L1104.08 310.833 L1104.08 103.473 L318.733 103.473  Z" fill="#ffffff" fill-rule="evenodd" fill-opacity="1"/>
<polyline clip-path="url(#clip630)" style="stroke:#000000; stroke-linecap:round; stroke-linejoin:round; stroke-width:4; stroke-opacity:1; fill:none" points="318.733,310.833 1104.08,310.833 1104.08,103.473 318.733,103.473 318.733,310.833 "/>
<path clip-path="url(#clip630)" d="M345.423 176.049 L505.563 176.049 L505.563 134.577 L345.423 134.577 L345.423 176.049  Z" fill="#0000ff" fill-rule="evenodd" fill-opacity="0.3"/>
<polyline clip-path="url(#clip630)" style="stroke:#009af9; stroke-linecap:round; stroke-linejoin:round; stroke-width:4; stroke-opacity:0; fill:none" points="345.423,134.577 505.563,134.577 "/>
<path clip-path="url(#clip630)" d="M534.475 171.876 L534.475 167.616 Q536.234 168.45 538.04 168.89 Q539.845 169.329 541.581 169.329 Q546.211 169.329 548.641 166.227 Q551.095 163.103 551.442 156.76 Q550.1 158.751 548.04 159.815 Q545.979 160.88 543.479 160.88 Q538.294 160.88 535.262 157.755 Q532.253 154.607 532.253 149.167 Q532.253 143.843 535.401 140.626 Q538.549 137.408 543.78 137.408 Q549.776 137.408 552.924 142.015 Q556.095 146.598 556.095 155.348 Q556.095 163.519 552.206 168.403 Q548.341 173.264 541.79 173.264 Q540.03 173.264 538.225 172.917 Q536.419 172.57 534.475 171.876 M543.78 157.223 Q546.929 157.223 548.757 155.07 Q550.609 152.917 550.609 149.167 Q550.609 145.441 548.757 143.288 Q546.929 141.112 543.78 141.112 Q540.632 141.112 538.78 143.288 Q536.952 145.441 536.952 149.167 Q536.952 152.917 538.78 155.07 Q540.632 157.223 543.78 157.223 Z" fill="#000000" fill-rule="evenodd" fill-opacity="1" /><path clip-path="url(#clip630)" d="M564.544 138.033 L582.901 138.033 L582.901 141.968 L568.827 141.968 L568.827 150.441 Q569.845 150.093 570.864 149.931 Q571.882 149.746 572.901 149.746 Q578.688 149.746 582.067 152.917 Q585.447 156.089 585.447 161.505 Q585.447 167.084 581.975 170.186 Q578.502 173.264 572.183 173.264 Q570.007 173.264 567.739 172.894 Q565.493 172.524 563.086 171.783 L563.086 167.084 Q565.169 168.218 567.391 168.774 Q569.614 169.329 572.09 169.329 Q576.095 169.329 578.433 167.223 Q580.771 165.116 580.771 161.505 Q580.771 157.894 578.433 155.788 Q576.095 153.681 572.09 153.681 Q570.215 153.681 568.34 154.098 Q566.489 154.515 564.544 155.394 L564.544 138.033 Z" fill="#000000" fill-rule="evenodd" fill-opacity="1" /><path clip-path="url(#clip630)" d="M624.058 157.385 Q622.044 157.385 620.886 159.098 Q619.752 160.811 619.752 163.866 Q619.752 166.876 620.886 168.612 Q622.044 170.325 624.058 170.325 Q626.025 170.325 627.16 168.612 Q628.317 166.876 628.317 163.866 Q628.317 160.834 627.16 159.121 Q626.025 157.385 624.058 157.385 M624.058 154.445 Q627.715 154.445 629.868 156.991 Q632.021 159.538 632.021 163.866 Q632.021 168.195 629.845 170.741 Q627.692 173.264 624.058 173.264 Q620.354 173.264 618.201 170.741 Q616.049 168.195 616.049 163.866 Q616.049 159.515 618.201 156.991 Q620.377 154.445 624.058 154.445 M600.169 140.348 Q598.178 140.348 597.021 142.084 Q595.887 143.797 595.887 146.806 Q595.887 149.862 597.021 151.575 Q598.155 153.288 600.169 153.288 Q602.183 153.288 603.317 151.575 Q604.475 149.862 604.475 146.806 Q604.475 143.82 603.317 142.084 Q602.16 140.348 600.169 140.348 M621.072 137.408 L624.775 137.408 L603.155 173.264 L599.451 173.264 L621.072 137.408 M600.169 137.408 Q603.826 137.408 606.002 139.954 Q608.178 142.478 608.178 146.806 Q608.178 151.181 606.002 153.704 Q603.85 156.228 600.169 156.228 Q596.488 156.228 594.336 153.704 Q592.206 151.158 592.206 146.806 Q592.206 142.501 594.359 139.954 Q596.512 137.408 600.169 137.408 Z" fill="#000000" fill-rule="evenodd" fill-opacity="1" /><path clip-path="url(#clip630)" d="M659.034 141.876 L659.034 154.862 L664.914 154.862 Q668.178 154.862 669.96 153.172 Q671.743 151.482 671.743 148.357 Q671.743 145.255 669.96 143.566 Q668.178 141.876 664.914 141.876 L659.034 141.876 M654.359 138.033 L664.914 138.033 Q670.724 138.033 673.687 140.672 Q676.673 143.288 676.673 148.357 Q676.673 153.473 673.687 156.089 Q670.724 158.704 664.914 158.704 L659.034 158.704 L659.034 172.593 L654.359 172.593 L654.359 138.033 Z" fill="#000000" fill-rule="evenodd" fill-opacity="1" /><path clip-path="url(#clip630)" d="M696.951 150.649 Q696.233 150.232 695.377 150.047 Q694.543 149.839 693.525 149.839 Q689.914 149.839 687.969 152.2 Q686.048 154.538 686.048 158.936 L686.048 172.593 L681.766 172.593 L681.766 146.667 L686.048 146.667 L686.048 150.695 Q687.391 148.334 689.544 147.2 Q691.696 146.042 694.775 146.042 Q695.215 146.042 695.747 146.112 Q696.28 146.158 696.928 146.274 L696.951 150.649 Z" fill="#000000" fill-rule="evenodd" fill-opacity="1" /><path clip-path="url(#clip630)" d="M722.553 158.565 L722.553 160.649 L702.969 160.649 Q703.247 165.047 705.608 167.362 Q707.992 169.653 712.229 169.653 Q714.682 169.653 716.974 169.052 Q719.289 168.45 721.557 167.246 L721.557 171.274 Q719.266 172.246 716.858 172.755 Q714.451 173.264 711.974 173.264 Q705.77 173.264 702.136 169.653 Q698.525 166.042 698.525 159.885 Q698.525 153.519 701.951 149.792 Q705.4 146.042 711.233 146.042 Q716.465 146.042 719.497 149.422 Q722.553 152.778 722.553 158.565 M718.293 157.315 Q718.247 153.82 716.326 151.737 Q714.428 149.653 711.28 149.653 Q707.715 149.653 705.562 151.667 Q703.432 153.681 703.108 157.339 L718.293 157.315 Z" fill="#000000" fill-rule="evenodd" fill-opacity="1" /><path clip-path="url(#clip630)" d="M746.603 150.603 L746.603 136.575 L750.863 136.575 L750.863 172.593 L746.603 172.593 L746.603 168.704 Q745.261 171.019 743.201 172.153 Q741.164 173.264 738.293 173.264 Q733.594 173.264 730.631 169.515 Q727.691 165.765 727.691 159.653 Q727.691 153.542 730.631 149.792 Q733.594 146.042 738.293 146.042 Q741.164 146.042 743.201 147.177 Q745.261 148.288 746.603 150.603 M732.09 159.653 Q732.09 164.352 734.011 167.038 Q735.955 169.7 739.335 169.7 Q742.715 169.7 744.659 167.038 Q746.603 164.352 746.603 159.653 Q746.603 154.954 744.659 152.292 Q742.715 149.607 739.335 149.607 Q735.955 149.607 734.011 152.292 Q732.09 154.954 732.09 159.653 Z" fill="#000000" fill-rule="evenodd" fill-opacity="1" /><path clip-path="url(#clip630)" d="M759.636 146.667 L763.895 146.667 L763.895 172.593 L759.636 172.593 L759.636 146.667 M759.636 136.575 L763.895 136.575 L763.895 141.968 L759.636 141.968 L759.636 136.575 Z" fill="#000000" fill-rule="evenodd" fill-opacity="1" /><path clip-path="url(#clip630)" d="M791.464 147.663 L791.464 151.644 Q789.659 150.649 787.83 150.163 Q786.024 149.653 784.173 149.653 Q780.029 149.653 777.737 152.292 Q775.446 154.908 775.446 159.653 Q775.446 164.399 777.737 167.038 Q780.029 169.653 784.173 169.653 Q786.024 169.653 787.83 169.167 Q789.659 168.658 791.464 167.663 L791.464 171.598 Q789.682 172.431 787.761 172.848 Q785.862 173.264 783.71 173.264 Q777.853 173.264 774.404 169.584 Q770.955 165.903 770.955 159.653 Q770.955 153.311 774.427 149.677 Q777.923 146.042 783.987 146.042 Q785.955 146.042 787.83 146.459 Q789.705 146.853 791.464 147.663 Z" fill="#000000" fill-rule="evenodd" fill-opacity="1" /><path clip-path="url(#clip630)" d="M803.085 139.306 L803.085 146.667 L811.858 146.667 L811.858 149.978 L803.085 149.978 L803.085 164.052 Q803.085 167.223 803.941 168.126 Q804.821 169.028 807.483 169.028 L811.858 169.028 L811.858 172.593 L807.483 172.593 Q802.552 172.593 800.677 170.764 Q798.802 168.913 798.802 164.052 L798.802 149.978 L795.677 149.978 L795.677 146.667 L798.802 146.667 L798.802 139.306 L803.085 139.306 Z" fill="#000000" fill-rule="evenodd" fill-opacity="1" /><path clip-path="url(#clip630)" d="M817.459 146.667 L821.719 146.667 L821.719 172.593 L817.459 172.593 L817.459 146.667 M817.459 136.575 L821.719 136.575 L821.719 141.968 L817.459 141.968 L817.459 136.575 Z" fill="#000000" fill-rule="evenodd" fill-opacity="1" /><path clip-path="url(#clip630)" d="M840.677 149.653 Q837.251 149.653 835.26 152.339 Q833.27 155.001 833.27 159.653 Q833.27 164.306 835.237 166.991 Q837.228 169.653 840.677 169.653 Q844.08 169.653 846.07 166.968 Q848.061 164.283 848.061 159.653 Q848.061 155.047 846.07 152.362 Q844.08 149.653 840.677 149.653 M840.677 146.042 Q846.232 146.042 849.404 149.653 Q852.575 153.265 852.575 159.653 Q852.575 166.019 849.404 169.653 Q846.232 173.264 840.677 173.264 Q835.098 173.264 831.927 169.653 Q828.779 166.019 828.779 159.653 Q828.779 153.265 831.927 149.653 Q835.098 146.042 840.677 146.042 Z" fill="#000000" fill-rule="evenodd" fill-opacity="1" /><path clip-path="url(#clip630)" d="M881.186 156.945 L881.186 172.593 L876.927 172.593 L876.927 157.084 Q876.927 153.403 875.492 151.575 Q874.056 149.746 871.186 149.746 Q867.737 149.746 865.746 151.945 Q863.756 154.144 863.756 157.94 L863.756 172.593 L859.473 172.593 L859.473 146.667 L863.756 146.667 L863.756 150.695 Q865.283 148.357 867.343 147.2 Q869.427 146.042 872.135 146.042 Q876.603 146.042 878.894 148.82 Q881.186 151.575 881.186 156.945 Z" fill="#000000" fill-rule="evenodd" fill-opacity="1" /><path clip-path="url(#clip630)" d="M904.936 138.033 L909.612 138.033 L909.612 172.593 L904.936 172.593 L904.936 138.033 Z" fill="#000000" fill-rule="evenodd" fill-opacity="1" /><path clip-path="url(#clip630)" d="M940.283 156.945 L940.283 172.593 L936.024 172.593 L936.024 157.084 Q936.024 153.403 934.588 151.575 Q933.153 149.746 930.283 149.746 Q926.834 149.746 924.843 151.945 Q922.852 154.144 922.852 157.94 L922.852 172.593 L918.57 172.593 L918.57 146.667 L922.852 146.667 L922.852 150.695 Q924.38 148.357 926.44 147.2 Q928.524 146.042 931.232 146.042 Q935.7 146.042 937.991 148.82 Q940.283 151.575 940.283 156.945 Z" fill="#000000" fill-rule="evenodd" fill-opacity="1" /><path clip-path="url(#clip630)" d="M952.991 139.306 L952.991 146.667 L961.764 146.667 L961.764 149.978 L952.991 149.978 L952.991 164.052 Q952.991 167.223 953.848 168.126 Q954.727 169.028 957.389 169.028 L961.764 169.028 L961.764 172.593 L957.389 172.593 Q952.459 172.593 950.584 170.764 Q948.709 168.913 948.709 164.052 L948.709 149.978 L945.584 149.978 L945.584 146.667 L948.709 146.667 L948.709 139.306 L952.991 139.306 Z" fill="#000000" fill-rule="evenodd" fill-opacity="1" /><path clip-path="url(#clip630)" d="M989.542 158.565 L989.542 160.649 L969.959 160.649 Q970.236 165.047 972.598 167.362 Q974.982 169.653 979.218 169.653 Q981.672 169.653 983.963 169.052 Q986.278 168.45 988.547 167.246 L988.547 171.274 Q986.255 172.246 983.847 172.755 Q981.44 173.264 978.963 173.264 Q972.76 173.264 969.125 169.653 Q965.514 166.042 965.514 159.885 Q965.514 153.519 968.94 149.792 Q972.389 146.042 978.223 146.042 Q983.454 146.042 986.486 149.422 Q989.542 152.778 989.542 158.565 M985.283 157.315 Q985.236 153.82 983.315 151.737 Q981.417 149.653 978.269 149.653 Q974.704 149.653 972.551 151.667 Q970.422 153.681 970.098 157.339 L985.283 157.315 Z" fill="#000000" fill-rule="evenodd" fill-opacity="1" /><path clip-path="url(#clip630)" d="M1011.56 150.649 Q1010.84 150.232 1009.98 150.047 Q1009.15 149.839 1008.13 149.839 Q1004.52 149.839 1002.57 152.2 Q1000.65 154.538 1000.65 158.936 L1000.65 172.593 L996.371 172.593 L996.371 146.667 L1000.65 146.667 L1000.65 150.695 Q1002 148.334 1004.15 147.2 Q1006.3 146.042 1009.38 146.042 Q1009.82 146.042 1010.35 146.112 Q1010.88 146.158 1011.53 146.274 L1011.56 150.649 Z" fill="#000000" fill-rule="evenodd" fill-opacity="1" /><path clip-path="url(#clip630)" d="M1012.97 146.667 L1017.48 146.667 L1025.58 168.427 L1033.69 146.667 L1038.2 146.667 L1028.48 172.593 L1022.69 172.593 L1012.97 146.667 Z" fill="#000000" fill-rule="evenodd" fill-opacity="1" /><path clip-path="url(#clip630)" d="M1055.86 159.561 Q1050.7 159.561 1048.71 160.741 Q1046.72 161.922 1046.72 164.769 Q1046.72 167.038 1048.2 168.38 Q1049.7 169.7 1052.27 169.7 Q1055.81 169.7 1057.94 167.2 Q1060.1 164.677 1060.1 160.51 L1060.1 159.561 L1055.86 159.561 M1064.36 157.802 L1064.36 172.593 L1060.1 172.593 L1060.1 168.658 Q1058.64 171.019 1056.46 172.153 Q1054.29 173.264 1051.14 173.264 Q1047.16 173.264 1044.8 171.042 Q1042.46 168.797 1042.46 165.047 Q1042.46 160.672 1045.37 158.45 Q1048.31 156.228 1054.12 156.228 L1060.1 156.228 L1060.1 155.811 Q1060.1 152.871 1058.15 151.274 Q1056.23 149.653 1052.74 149.653 Q1050.51 149.653 1048.41 150.186 Q1046.3 150.718 1044.36 151.783 L1044.36 147.848 Q1046.69 146.945 1048.89 146.505 Q1051.09 146.042 1053.18 146.042 Q1058.8 146.042 1061.58 148.959 Q1064.36 151.876 1064.36 157.802 Z" fill="#000000" fill-rule="evenodd" fill-opacity="1" /><path clip-path="url(#clip630)" d="M1073.13 136.575 L1077.39 136.575 L1077.39 172.593 L1073.13 172.593 L1073.13 136.575 Z" fill="#000000" fill-rule="evenodd" fill-opacity="1" /><polyline clip-path="url(#clip630)" style="stroke:#0000ff; stroke-linecap:round; stroke-linejoin:round; stroke-width:4; stroke-opacity:1; fill:none" points="345.423,207.153 505.563,207.153 "/>
<path clip-path="url(#clip630)" d="M536.929 193.716 L536.929 206.702 L542.808 206.702 Q546.072 206.702 547.854 205.012 Q549.637 203.322 549.637 200.197 Q549.637 197.095 547.854 195.406 Q546.072 193.716 542.808 193.716 L536.929 193.716 M532.253 189.873 L542.808 189.873 Q548.618 189.873 551.581 192.512 Q554.567 195.128 554.567 200.197 Q554.567 205.313 551.581 207.929 Q548.618 210.544 542.808 210.544 L536.929 210.544 L536.929 224.433 L532.253 224.433 L532.253 189.873 Z" fill="#000000" fill-rule="evenodd" fill-opacity="1" /><path clip-path="url(#clip630)" d="M574.845 202.489 Q574.127 202.072 573.271 201.887 Q572.438 201.679 571.419 201.679 Q567.808 201.679 565.864 204.04 Q563.942 206.378 563.942 210.776 L563.942 224.433 L559.66 224.433 L559.66 198.507 L563.942 198.507 L563.942 202.535 Q565.285 200.174 567.438 199.04 Q569.59 197.882 572.669 197.882 Q573.109 197.882 573.641 197.952 Q574.174 197.998 574.822 198.114 L574.845 202.489 Z" fill="#000000" fill-rule="evenodd" fill-opacity="1" /><path clip-path="url(#clip630)" d="M600.447 210.405 L600.447 212.489 L580.864 212.489 Q581.141 216.887 583.502 219.202 Q585.887 221.493 590.123 221.493 Q592.576 221.493 594.868 220.892 Q597.183 220.29 599.451 219.086 L599.451 223.114 Q597.16 224.086 594.752 224.595 Q592.345 225.104 589.868 225.104 Q583.664 225.104 580.03 221.493 Q576.419 217.882 576.419 211.725 Q576.419 205.359 579.845 201.632 Q583.294 197.882 589.127 197.882 Q594.359 197.882 597.391 201.262 Q600.447 204.618 600.447 210.405 M596.188 209.155 Q596.141 205.66 594.22 203.577 Q592.322 201.493 589.174 201.493 Q585.609 201.493 583.456 203.507 Q581.326 205.521 581.002 209.179 L596.188 209.155 Z" fill="#000000" fill-rule="evenodd" fill-opacity="1" /><path clip-path="url(#clip630)" d="M624.498 202.443 L624.498 188.415 L628.757 188.415 L628.757 224.433 L624.498 224.433 L624.498 220.544 Q623.155 222.859 621.095 223.993 Q619.058 225.104 616.187 225.104 Q611.488 225.104 608.525 221.355 Q605.586 217.605 605.586 211.493 Q605.586 205.382 608.525 201.632 Q611.488 197.882 616.187 197.882 Q619.058 197.882 621.095 199.017 Q623.155 200.128 624.498 202.443 M609.984 211.493 Q609.984 216.192 611.905 218.878 Q613.849 221.54 617.229 221.54 Q620.609 221.54 622.553 218.878 Q624.498 216.192 624.498 211.493 Q624.498 206.794 622.553 204.132 Q620.609 201.447 617.229 201.447 Q613.849 201.447 611.905 204.132 Q609.984 206.794 609.984 211.493 Z" fill="#000000" fill-rule="evenodd" fill-opacity="1" /><path clip-path="url(#clip630)" d="M637.53 198.507 L641.789 198.507 L641.789 224.433 L637.53 224.433 L637.53 198.507 M637.53 188.415 L641.789 188.415 L641.789 193.808 L637.53 193.808 L637.53 188.415 Z" fill="#000000" fill-rule="evenodd" fill-opacity="1" /><path clip-path="url(#clip630)" d="M669.358 199.503 L669.358 203.484 Q667.553 202.489 665.724 202.003 Q663.919 201.493 662.067 201.493 Q657.923 201.493 655.632 204.132 Q653.34 206.748 653.34 211.493 Q653.34 216.239 655.632 218.878 Q657.923 221.493 662.067 221.493 Q663.919 221.493 665.724 221.007 Q667.553 220.498 669.358 219.503 L669.358 223.438 Q667.576 224.271 665.655 224.688 Q663.757 225.104 661.604 225.104 Q655.747 225.104 652.298 221.424 Q648.849 217.743 648.849 211.493 Q648.849 205.151 652.321 201.517 Q655.817 197.882 661.882 197.882 Q663.849 197.882 665.724 198.299 Q667.599 198.693 669.358 199.503 Z" fill="#000000" fill-rule="evenodd" fill-opacity="1" /><path clip-path="url(#clip630)" d="M680.979 191.146 L680.979 198.507 L689.752 198.507 L689.752 201.818 L680.979 201.818 L680.979 215.892 Q680.979 219.063 681.835 219.966 Q682.715 220.868 685.377 220.868 L689.752 220.868 L689.752 224.433 L685.377 224.433 Q680.446 224.433 678.571 222.604 Q676.696 220.753 676.696 215.892 L676.696 201.818 L673.571 201.818 L673.571 198.507 L676.696 198.507 L676.696 191.146 L680.979 191.146 Z" fill="#000000" fill-rule="evenodd" fill-opacity="1" /><path clip-path="url(#clip630)" d="M695.354 198.507 L699.613 198.507 L699.613 224.433 L695.354 224.433 L695.354 198.507 M695.354 188.415 L699.613 188.415 L699.613 193.808 L695.354 193.808 L695.354 188.415 Z" fill="#000000" fill-rule="evenodd" fill-opacity="1" /><path clip-path="url(#clip630)" d="M718.571 201.493 Q715.145 201.493 713.154 204.179 Q711.164 206.841 711.164 211.493 Q711.164 216.146 713.131 218.831 Q715.122 221.493 718.571 221.493 Q721.974 221.493 723.965 218.808 Q725.955 216.123 725.955 211.493 Q725.955 206.887 723.965 204.202 Q721.974 201.493 718.571 201.493 M718.571 197.882 Q724.127 197.882 727.298 201.493 Q730.469 205.105 730.469 211.493 Q730.469 217.859 727.298 221.493 Q724.127 225.104 718.571 225.104 Q712.992 225.104 709.821 221.493 Q706.673 217.859 706.673 211.493 Q706.673 205.105 709.821 201.493 Q712.992 197.882 718.571 197.882 Z" fill="#000000" fill-rule="evenodd" fill-opacity="1" /><path clip-path="url(#clip630)" d="M759.08 208.785 L759.08 224.433 L754.821 224.433 L754.821 208.924 Q754.821 205.243 753.386 203.415 Q751.951 201.586 749.08 201.586 Q745.631 201.586 743.64 203.785 Q741.65 205.984 741.65 209.78 L741.65 224.433 L737.367 224.433 L737.367 198.507 L741.65 198.507 L741.65 202.535 Q743.177 200.197 745.238 199.04 Q747.321 197.882 750.029 197.882 Q754.497 197.882 756.789 200.66 Q759.08 203.415 759.08 208.785 Z" fill="#000000" fill-rule="evenodd" fill-opacity="1" /><path clip-path="url(#clip630)" d="M782.83 189.873 L789.798 189.873 L798.617 213.392 L807.483 189.873 L814.45 189.873 L814.45 224.433 L809.89 224.433 L809.89 194.086 L800.978 217.79 L796.279 217.79 L787.367 194.086 L787.367 224.433 L782.83 224.433 L782.83 189.873 Z" fill="#000000" fill-rule="evenodd" fill-opacity="1" /><path clip-path="url(#clip630)" d="M845.723 210.405 L845.723 212.489 L826.14 212.489 Q826.418 216.887 828.779 219.202 Q831.163 221.493 835.399 221.493 Q837.853 221.493 840.145 220.892 Q842.459 220.29 844.728 219.086 L844.728 223.114 Q842.436 224.086 840.029 224.595 Q837.621 225.104 835.145 225.104 Q828.941 225.104 825.307 221.493 Q821.696 217.882 821.696 211.725 Q821.696 205.359 825.121 201.632 Q828.571 197.882 834.404 197.882 Q839.635 197.882 842.668 201.262 Q845.723 204.618 845.723 210.405 M841.464 209.155 Q841.418 205.66 839.496 203.577 Q837.598 201.493 834.45 201.493 Q830.885 201.493 828.733 203.507 Q826.603 205.521 826.279 209.179 L841.464 209.155 Z" fill="#000000" fill-rule="evenodd" fill-opacity="1" /><path clip-path="url(#clip630)" d="M869.774 202.443 L869.774 188.415 L874.033 188.415 L874.033 224.433 L869.774 224.433 L869.774 220.544 Q868.431 222.859 866.371 223.993 Q864.334 225.104 861.464 225.104 Q856.765 225.104 853.802 221.355 Q850.862 217.605 850.862 211.493 Q850.862 205.382 853.802 201.632 Q856.765 197.882 861.464 197.882 Q864.334 197.882 866.371 199.017 Q868.431 200.128 869.774 202.443 M855.26 211.493 Q855.26 216.192 857.182 218.878 Q859.126 221.54 862.506 221.54 Q865.885 221.54 867.83 218.878 Q869.774 216.192 869.774 211.493 Q869.774 206.794 867.83 204.132 Q865.885 201.447 862.506 201.447 Q859.126 201.447 857.182 204.132 Q855.26 206.794 855.26 211.493 Z" fill="#000000" fill-rule="evenodd" fill-opacity="1" /><path clip-path="url(#clip630)" d="M882.806 198.507 L887.066 198.507 L887.066 224.433 L882.806 224.433 L882.806 198.507 M882.806 188.415 L887.066 188.415 L887.066 193.808 L882.806 193.808 L882.806 188.415 Z" fill="#000000" fill-rule="evenodd" fill-opacity="1" /><path clip-path="url(#clip630)" d="M907.76 211.401 Q902.598 211.401 900.607 212.581 Q898.616 213.762 898.616 216.609 Q898.616 218.878 900.098 220.22 Q901.603 221.54 904.172 221.54 Q907.714 221.54 909.843 219.04 Q911.996 216.517 911.996 212.35 L911.996 211.401 L907.76 211.401 M916.255 209.642 L916.255 224.433 L911.996 224.433 L911.996 220.498 Q910.538 222.859 908.362 223.993 Q906.186 225.104 903.038 225.104 Q899.056 225.104 896.695 222.882 Q894.357 220.637 894.357 216.887 Q894.357 212.512 897.274 210.29 Q900.214 208.068 906.024 208.068 L911.996 208.068 L911.996 207.651 Q911.996 204.711 910.052 203.114 Q908.13 201.493 904.635 201.493 Q902.413 201.493 900.306 202.026 Q898.2 202.558 896.255 203.623 L896.255 199.688 Q898.593 198.785 900.792 198.345 Q902.991 197.882 905.075 197.882 Q910.7 197.882 913.477 200.799 Q916.255 203.716 916.255 209.642 Z" fill="#000000" fill-rule="evenodd" fill-opacity="1" /><path clip-path="url(#clip630)" d="M946.579 208.785 L946.579 224.433 L942.32 224.433 L942.32 208.924 Q942.32 205.243 940.885 203.415 Q939.45 201.586 936.579 201.586 Q933.13 201.586 931.139 203.785 Q929.149 205.984 929.149 209.78 L929.149 224.433 L924.866 224.433 L924.866 198.507 L929.149 198.507 L929.149 202.535 Q930.676 200.197 932.737 199.04 Q934.82 197.882 937.528 197.882 Q941.996 197.882 944.288 200.66 Q946.579 203.415 946.579 208.785 Z" fill="#000000" fill-rule="evenodd" fill-opacity="1" /><circle clip-path="url(#clip630)" cx="425.493" cy="258.993" r="23.04" fill="#ff0000" fill-rule="evenodd" fill-opacity="1" stroke="#000000" stroke-opacity="1" stroke-width="6.144"/>
<path clip-path="url(#clip630)" d="M536.929 245.556 L536.929 272.431 L542.577 272.431 Q549.729 272.431 553.04 269.19 Q556.373 265.949 556.373 258.958 Q556.373 252.014 553.04 248.796 Q549.729 245.556 542.577 245.556 L536.929 245.556 M532.253 241.713 L541.859 241.713 Q551.905 241.713 556.604 245.903 Q561.303 250.07 561.303 258.958 Q561.303 267.894 556.581 272.083 Q551.859 276.273 541.859 276.273 L532.253 276.273 L532.253 241.713 Z" fill="#000000" fill-rule="evenodd" fill-opacity="1" /><path clip-path="url(#clip630)" d="M580.354 263.241 Q575.192 263.241 573.202 264.421 Q571.211 265.602 571.211 268.449 Q571.211 270.718 572.692 272.06 Q574.197 273.38 576.766 273.38 Q580.308 273.38 582.438 270.88 Q584.59 268.357 584.59 264.19 L584.59 263.241 L580.354 263.241 M588.85 261.482 L588.85 276.273 L584.59 276.273 L584.59 272.338 Q583.132 274.699 580.956 275.833 Q578.78 276.944 575.632 276.944 Q571.651 276.944 569.29 274.722 Q566.952 272.477 566.952 268.727 Q566.952 264.352 569.868 262.13 Q572.808 259.908 578.618 259.908 L584.59 259.908 L584.59 259.491 Q584.59 256.551 582.646 254.954 Q580.725 253.333 577.229 253.333 Q575.007 253.333 572.901 253.866 Q570.794 254.398 568.85 255.463 L568.85 251.528 Q571.188 250.625 573.387 250.185 Q575.586 249.722 577.669 249.722 Q583.294 249.722 586.072 252.639 Q588.85 255.556 588.85 261.482 Z" fill="#000000" fill-rule="evenodd" fill-opacity="1" /><path clip-path="url(#clip630)" d="M601.836 242.986 L601.836 250.347 L610.609 250.347 L610.609 253.658 L601.836 253.658 L601.836 267.732 Q601.836 270.903 602.692 271.806 Q603.572 272.708 606.234 272.708 L610.609 272.708 L610.609 276.273 L606.234 276.273 Q601.303 276.273 599.428 274.444 Q597.553 272.593 597.553 267.732 L597.553 253.658 L594.428 253.658 L594.428 250.347 L597.553 250.347 L597.553 242.986 L601.836 242.986 Z" fill="#000000" fill-rule="evenodd" fill-opacity="1" /><path clip-path="url(#clip630)" d="M627.993 263.241 Q622.831 263.241 620.84 264.421 Q618.849 265.602 618.849 268.449 Q618.849 270.718 620.331 272.06 Q621.836 273.38 624.405 273.38 Q627.947 273.38 630.076 270.88 Q632.229 268.357 632.229 264.19 L632.229 263.241 L627.993 263.241 M636.488 261.482 L636.488 276.273 L632.229 276.273 L632.229 272.338 Q630.771 274.699 628.595 275.833 Q626.419 276.944 623.271 276.944 Q619.289 276.944 616.928 274.722 Q614.59 272.477 614.59 268.727 Q614.59 264.352 617.507 262.13 Q620.447 259.908 626.257 259.908 L632.229 259.908 L632.229 259.491 Q632.229 256.551 630.285 254.954 Q628.363 253.333 624.868 253.333 Q622.646 253.333 620.539 253.866 Q618.433 254.398 616.488 255.463 L616.488 251.528 Q618.826 250.625 621.025 250.185 Q623.224 249.722 625.308 249.722 Q630.933 249.722 633.71 252.639 Q636.488 255.556 636.488 261.482 Z" fill="#000000" fill-rule="evenodd" fill-opacity="1" /></svg>
