<?xml version="1.0" encoding="utf-8"?>
<svg xmlns="http://www.w3.org/2000/svg" xmlns:xlink="http://www.w3.org/1999/xlink" width="672" height="480" viewBox="0 0 2688 1920">
<defs>
  <clipPath id="clip440">
    <rect x="0" y="0" width="2688" height="1920"/>
  </clipPath>
</defs>
<path clip-path="url(#clip440)" d="M0 1920 L2688 1920 L2688 0 L0 0  Z" fill="#ffffff" fill-rule="evenodd" fill-opacity="1"/>
<defs>
  <clipPath id="clip441">
    <rect x="537" y="0" width="1883" height="1883"/>
  </clipPath>
</defs>
<path clip-path="url(#clip440)" d="M367.68 1683.2 L2640.76 1683.2 L2640.76 47.2441 L367.68 47.2441  Z" fill="#ffffff" fill-rule="evenodd" fill-opacity="1"/>
<defs>
  <clipPath id="clip442">
    <rect x="367" y="47" width="2274" height="1637"/>
  </clipPath>
</defs>
<polyline clip-path="url(#clip440)" style="stroke:#000000; stroke-linecap:round; stroke-linejoin:round; stroke-width:4; stroke-opacity:1; fill:none" points="367.68,1683.2 2640.76,1683.2 "/>
<polyline clip-path="url(#clip440)" style="stroke:#000000; stroke-linecap:round; stroke-linejoin:round; stroke-width:4; stroke-opacity:1; fill:none" points="432.012,1683.2 432.012,1664.31 "/>
<polyline clip-path="url(#clip440)" style="stroke:#000000; stroke-linecap:round; stroke-linejoin:round; stroke-width:4; stroke-opacity:1; fill:none" points="1146.82,1683.2 1146.82,1664.31 "/>
<polyline clip-path="url(#clip440)" style="stroke:#000000; stroke-linecap:round; stroke-linejoin:round; stroke-width:4; stroke-opacity:1; fill:none" points="1861.62,1683.2 1861.62,1664.31 "/>
<polyline clip-path="url(#clip440)" style="stroke:#000000; stroke-linecap:round; stroke-linejoin:round; stroke-width:4; stroke-opacity:1; fill:none" points="2576.42,1683.2 2576.42,1664.31 "/>
<path clip-path="url(#clip440)" d="M415.181 1773.42 L428.549 1773.42 L428.549 1727.28 L414.006 1730.2 L414.006 1722.74 L428.468 1719.83 L436.65 1719.83 L436.65 1773.42 L450.018 1773.42 L450.018 1780.31 L415.181 1780.31 L415.181 1773.42 Z" fill="#000000" fill-rule="evenodd" fill-opacity="1" /><path clip-path="url(#clip440)" d="M1137.46 1773.42 L1166.02 1773.42 L1166.02 1780.31 L1127.61 1780.31 L1127.61 1773.42 Q1132.27 1768.6 1140.29 1760.5 Q1148.36 1752.36 1150.42 1750.01 Q1154.35 1745.59 1155.89 1742.55 Q1157.47 1739.47 1157.47 1736.52 Q1157.47 1731.7 1154.07 1728.66 Q1150.7 1725.62 1145.28 1725.62 Q1141.43 1725.62 1137.13 1726.96 Q1132.88 1728.29 1128.02 1731.01 L1128.02 1722.74 Q1132.96 1720.76 1137.26 1719.75 Q1141.55 1718.73 1145.11 1718.73 Q1154.51 1718.73 1160.1 1723.43 Q1165.69 1728.13 1165.69 1735.99 Q1165.69 1739.72 1164.28 1743.08 Q1162.9 1746.4 1159.21 1750.94 Q1158.2 1752.11 1152.77 1757.74 Q1147.34 1763.33 1137.46 1773.42 Z" fill="#000000" fill-rule="evenodd" fill-opacity="1" /><path clip-path="url(#clip440)" d="M1869.05 1747.7 Q1874.93 1748.95 1878.21 1752.92 Q1881.53 1756.89 1881.53 1762.73 Q1881.53 1771.68 1875.37 1776.58 Q1869.22 1781.48 1857.87 1781.48 Q1854.06 1781.48 1850.01 1780.71 Q1846 1779.98 1841.71 1778.48 L1841.71 1770.58 Q1845.11 1772.57 1849.16 1773.58 Q1853.21 1774.59 1857.63 1774.59 Q1865.33 1774.59 1869.34 1771.56 Q1873.39 1768.52 1873.39 1762.73 Q1873.39 1757.38 1869.62 1754.38 Q1865.89 1751.34 1859.21 1751.34 L1852.16 1751.34 L1852.16 1744.62 L1859.53 1744.62 Q1865.57 1744.62 1868.77 1742.23 Q1871.97 1739.8 1871.97 1735.26 Q1871.97 1730.6 1868.65 1728.13 Q1865.37 1725.62 1859.21 1725.62 Q1855.85 1725.62 1852 1726.35 Q1848.15 1727.08 1843.53 1728.62 L1843.53 1721.33 Q1848.19 1720.03 1852.24 1719.38 Q1856.33 1718.73 1859.94 1718.73 Q1869.26 1718.73 1874.68 1722.99 Q1880.11 1727.2 1880.11 1734.41 Q1880.11 1739.43 1877.24 1742.92 Q1874.36 1746.36 1869.05 1747.7 Z" fill="#000000" fill-rule="evenodd" fill-opacity="1" /><path clip-path="url(#clip440)" d="M2581.69 1726.96 L2561.03 1759.24 L2581.69 1759.24 L2581.69 1726.96 M2579.54 1719.83 L2589.83 1719.83 L2589.83 1759.24 L2598.46 1759.24 L2598.46 1766.05 L2589.83 1766.05 L2589.83 1780.31 L2581.69 1780.31 L2581.69 1766.05 L2554.39 1766.05 L2554.39 1758.15 L2579.54 1719.83 Z" fill="#000000" fill-rule="evenodd" fill-opacity="1" /><path clip-path="url(#clip440)" d="M1427.62 1828.07 L1436.97 1828.07 L1436.97 1889.32 L1470.63 1889.32 L1470.63 1897.19 L1427.62 1897.19 L1427.62 1828.07 Z" fill="#000000" fill-rule="evenodd" fill-opacity="1" /><path clip-path="url(#clip440)" d="M1503.64 1871.12 Q1493.32 1871.12 1489.33 1873.48 Q1485.35 1875.84 1485.35 1881.54 Q1485.35 1886.08 1488.32 1888.76 Q1491.32 1891.4 1496.46 1891.4 Q1503.55 1891.4 1507.81 1886.4 Q1512.11 1881.35 1512.11 1873.02 L1512.11 1871.12 L1503.64 1871.12 M1520.63 1867.6 L1520.63 1897.19 L1512.11 1897.19 L1512.11 1889.32 Q1509.19 1894.04 1504.84 1896.31 Q1500.49 1898.53 1494.19 1898.53 Q1486.23 1898.53 1481.51 1894.08 Q1476.83 1889.59 1476.83 1882.09 Q1476.83 1873.34 1482.67 1868.9 Q1488.55 1864.46 1500.17 1864.46 L1512.11 1864.46 L1512.11 1863.62 Q1512.11 1857.74 1508.22 1854.55 Q1504.38 1851.31 1497.39 1851.31 Q1492.94 1851.31 1488.73 1852.37 Q1484.52 1853.44 1480.63 1855.57 L1480.63 1847.7 Q1485.31 1845.89 1489.7 1845.01 Q1494.1 1844.09 1498.27 1844.09 Q1509.52 1844.09 1515.07 1849.92 Q1520.63 1855.75 1520.63 1867.6 Z" fill="#000000" fill-rule="evenodd" fill-opacity="1" /><path clip-path="url(#clip440)" d="M1572.3 1870.66 Q1572.3 1861.4 1568.45 1856.31 Q1564.66 1851.21 1557.76 1851.21 Q1550.91 1851.21 1547.06 1856.31 Q1543.27 1861.4 1543.27 1870.66 Q1543.27 1879.87 1547.06 1884.96 Q1550.91 1890.06 1557.76 1890.06 Q1564.66 1890.06 1568.45 1884.96 Q1572.3 1879.87 1572.3 1870.66 M1580.81 1890.75 Q1580.81 1903.99 1574.94 1910.43 Q1569.06 1916.91 1556.93 1916.91 Q1552.44 1916.91 1548.45 1916.21 Q1544.47 1915.57 1540.72 1914.18 L1540.72 1905.89 Q1544.47 1907.93 1548.13 1908.9 Q1551.79 1909.87 1555.58 1909.87 Q1563.96 1909.87 1568.13 1905.47 Q1572.3 1901.12 1572.3 1892.28 L1572.3 1888.07 Q1569.66 1892.65 1565.54 1894.92 Q1561.42 1897.19 1555.68 1897.19 Q1546.14 1897.19 1540.31 1889.92 Q1534.47 1882.65 1534.47 1870.66 Q1534.47 1858.62 1540.31 1851.35 Q1546.14 1844.09 1555.68 1844.09 Q1561.42 1844.09 1565.54 1846.35 Q1569.66 1848.62 1572.3 1853.21 L1572.3 1845.34 L1580.81 1845.34 L1580.81 1890.75 Z" fill="#000000" fill-rule="evenodd" fill-opacity="1" /><polyline clip-path="url(#clip440)" style="stroke:#000000; stroke-linecap:round; stroke-linejoin:round; stroke-width:4; stroke-opacity:1; fill:none" points="367.68,1683.2 367.68,47.2441 "/>
<polyline clip-path="url(#clip440)" style="stroke:#000000; stroke-linecap:round; stroke-linejoin:round; stroke-width:4; stroke-opacity:1; fill:none" points="367.68,1328.75 386.577,1328.75 "/>
<polyline clip-path="url(#clip440)" style="stroke:#000000; stroke-linecap:round; stroke-linejoin:round; stroke-width:4; stroke-opacity:1; fill:none" points="367.68,917.016 386.577,917.016 "/>
<polyline clip-path="url(#clip440)" style="stroke:#000000; stroke-linecap:round; stroke-linejoin:round; stroke-width:4; stroke-opacity:1; fill:none" points="367.68,505.28 386.577,505.28 "/>
<polyline clip-path="url(#clip440)" style="stroke:#000000; stroke-linecap:round; stroke-linejoin:round; stroke-width:4; stroke-opacity:1; fill:none" points="367.68,93.5448 386.577,93.5448 "/>
<path clip-path="url(#clip440)" d="M139.924 1329.54 L191.857 1329.54 L191.857 1336.43 L139.924 1336.43 L139.924 1329.54 Z" fill="#000000" fill-rule="evenodd" fill-opacity="1" /><path clip-path="url(#clip440)" d="M227.019 1303.9 Q220.699 1303.9 217.499 1310.14 Q214.34 1316.33 214.34 1328.81 Q214.34 1341.25 217.499 1347.49 Q220.699 1353.68 227.019 1353.68 Q233.379 1353.68 236.538 1347.49 Q239.739 1341.25 239.739 1328.81 Q239.739 1316.33 236.538 1310.14 Q233.379 1303.9 227.019 1303.9 M227.019 1297.42 Q237.187 1297.42 242.534 1305.48 Q247.922 1313.5 247.922 1328.81 Q247.922 1344.08 242.534 1352.14 Q237.187 1360.17 227.019 1360.17 Q216.851 1360.17 211.463 1352.14 Q206.116 1344.08 206.116 1328.81 Q206.116 1313.5 211.463 1305.48 Q216.851 1297.42 227.019 1297.42 Z" fill="#000000" fill-rule="evenodd" fill-opacity="1" /><path clip-path="url(#clip440)" d="M262.302 1348.7 L270.85 1348.7 L270.85 1358.99 L262.302 1358.99 L262.302 1348.7 Z" fill="#000000" fill-rule="evenodd" fill-opacity="1" /><path clip-path="url(#clip440)" d="M307.186 1325.49 Q301.677 1325.49 298.436 1329.26 Q295.236 1333.02 295.236 1339.59 Q295.236 1346.11 298.436 1349.92 Q301.677 1353.68 307.186 1353.68 Q312.695 1353.68 315.896 1349.92 Q319.136 1346.11 319.136 1339.59 Q319.136 1333.02 315.896 1329.26 Q312.695 1325.49 307.186 1325.49 M323.43 1299.85 L323.43 1307.3 Q320.352 1305.84 317.192 1305.07 Q314.073 1304.3 310.994 1304.3 Q302.892 1304.3 298.598 1309.77 Q294.345 1315.24 293.737 1326.3 Q296.127 1322.78 299.733 1320.91 Q303.338 1319.01 307.672 1319.01 Q316.787 1319.01 322.053 1324.56 Q327.36 1330.07 327.36 1339.59 Q327.36 1348.9 321.851 1354.53 Q316.341 1360.17 307.186 1360.17 Q296.694 1360.17 291.145 1352.14 Q285.595 1344.08 285.595 1328.81 Q285.595 1314.47 292.4 1305.96 Q299.206 1297.42 310.67 1297.42 Q313.749 1297.42 316.868 1298.02 Q320.028 1298.63 323.43 1299.85 Z" fill="#000000" fill-rule="evenodd" fill-opacity="1" /><path clip-path="url(#clip440)" d="M139.357 917.805 L191.29 917.805 L191.29 924.692 L139.357 924.692 L139.357 917.805 Z" fill="#000000" fill-rule="evenodd" fill-opacity="1" /><path clip-path="url(#clip440)" d="M226.452 892.163 Q220.132 892.163 216.932 898.402 Q213.772 904.599 213.772 917.076 Q213.772 929.513 216.932 935.751 Q220.132 941.949 226.452 941.949 Q232.812 941.949 235.971 935.751 Q239.172 929.513 239.172 917.076 Q239.172 904.599 235.971 898.402 Q232.812 892.163 226.452 892.163 M226.452 885.682 Q236.62 885.682 241.967 893.743 Q247.354 901.764 247.354 917.076 Q247.354 932.348 241.967 940.409 Q236.62 948.43 226.452 948.43 Q216.284 948.43 210.896 940.409 Q205.549 932.348 205.549 917.076 Q205.549 901.764 210.896 893.743 Q216.284 885.682 226.452 885.682 Z" fill="#000000" fill-rule="evenodd" fill-opacity="1" /><path clip-path="url(#clip440)" d="M261.735 936.966 L270.283 936.966 L270.283 947.256 L261.735 947.256 L261.735 936.966 Z" fill="#000000" fill-rule="evenodd" fill-opacity="1" /><path clip-path="url(#clip440)" d="M310.589 893.905 L289.929 926.191 L310.589 926.191 L310.589 893.905 M308.442 886.776 L318.731 886.776 L318.731 926.191 L327.36 926.191 L327.36 932.996 L318.731 932.996 L318.731 947.256 L310.589 947.256 L310.589 932.996 L283.286 932.996 L283.286 925.097 L308.442 886.776 Z" fill="#000000" fill-rule="evenodd" fill-opacity="1" /><path clip-path="url(#clip440)" d="M143.003 506.07 L194.936 506.07 L194.936 512.957 L143.003 512.957 L143.003 506.07 Z" fill="#000000" fill-rule="evenodd" fill-opacity="1" /><path clip-path="url(#clip440)" d="M230.098 480.428 Q223.778 480.428 220.578 486.666 Q217.418 492.864 217.418 505.341 Q217.418 517.777 220.578 524.016 Q223.778 530.213 230.098 530.213 Q236.457 530.213 239.617 524.016 Q242.817 517.777 242.817 505.341 Q242.817 492.864 239.617 486.666 Q236.457 480.428 230.098 480.428 M230.098 473.946 Q240.265 473.946 245.613 482.008 Q251 490.029 251 505.341 Q251 520.613 245.613 528.674 Q240.265 536.695 230.098 536.695 Q219.93 536.695 214.542 528.674 Q209.195 520.613 209.195 505.341 Q209.195 490.029 214.542 482.008 Q219.93 473.946 230.098 473.946 Z" fill="#000000" fill-rule="evenodd" fill-opacity="1" /><path clip-path="url(#clip440)" d="M265.381 525.231 L273.928 525.231 L273.928 535.52 L265.381 535.52 L265.381 525.231 Z" fill="#000000" fill-rule="evenodd" fill-opacity="1" /><path clip-path="url(#clip440)" d="M298.801 528.634 L327.36 528.634 L327.36 535.52 L288.957 535.52 L288.957 528.634 Q293.616 523.813 301.637 515.711 Q309.698 507.569 311.764 505.219 Q315.693 500.804 317.233 497.766 Q318.812 494.687 318.812 491.73 Q318.812 486.909 315.41 483.871 Q312.047 480.833 306.619 480.833 Q302.771 480.833 298.477 482.17 Q294.223 483.507 289.362 486.221 L289.362 477.957 Q294.304 475.972 298.598 474.959 Q302.892 473.946 306.457 473.946 Q315.855 473.946 321.445 478.645 Q327.036 483.345 327.036 491.203 Q327.036 494.93 325.618 498.292 Q324.241 501.614 320.554 506.151 Q319.542 507.326 314.113 512.957 Q308.685 518.547 298.801 528.634 Z" fill="#000000" fill-rule="evenodd" fill-opacity="1" /><path clip-path="url(#clip440)" d="M227.302 68.6925 Q220.983 68.6925 217.783 74.9309 Q214.623 81.1288 214.623 93.6056 Q214.623 106.042 217.783 112.28 Q220.983 118.478 227.302 118.478 Q233.662 118.478 236.822 112.28 Q240.022 106.042 240.022 93.6056 Q240.022 81.1288 236.822 74.9309 Q233.662 68.6925 227.302 68.6925 M227.302 62.2111 Q237.47 62.2111 242.817 70.2724 Q248.205 78.2932 248.205 93.6056 Q248.205 108.877 242.817 116.939 Q237.47 124.96 227.302 124.96 Q217.135 124.96 211.747 116.939 Q206.4 108.877 206.4 93.6056 Q206.4 78.2932 211.747 70.2724 Q217.135 62.2111 227.302 62.2111 Z" fill="#000000" fill-rule="evenodd" fill-opacity="1" /><path clip-path="url(#clip440)" d="M262.586 113.496 L271.133 113.496 L271.133 123.785 L262.586 123.785 L262.586 113.496 Z" fill="#000000" fill-rule="evenodd" fill-opacity="1" /><path clip-path="url(#clip440)" d="M306.457 68.6925 Q300.138 68.6925 296.937 74.9309 Q293.778 81.1288 293.778 93.6056 Q293.778 106.042 296.937 112.28 Q300.138 118.478 306.457 118.478 Q312.817 118.478 315.977 112.28 Q319.177 106.042 319.177 93.6056 Q319.177 81.1288 315.977 74.9309 Q312.817 68.6925 306.457 68.6925 M306.457 62.2111 Q316.625 62.2111 321.972 70.2724 Q327.36 78.2932 327.36 93.6056 Q327.36 108.877 321.972 116.939 Q316.625 124.96 306.457 124.96 Q296.289 124.96 290.902 116.939 Q285.554 108.877 285.554 93.6056 Q285.554 78.2932 290.902 70.2724 Q296.289 62.2111 306.457 62.2111 Z" fill="#000000" fill-rule="evenodd" fill-opacity="1" /><path clip-path="url(#clip440)" d="M16.8664 1375.68 L42.8385 1375.68 L42.8385 1363.92 Q42.8385 1357.4 39.4589 1353.83 Q36.0793 1350.27 29.8293 1350.27 Q23.6257 1350.27 20.2461 1353.83 Q16.8664 1357.4 16.8664 1363.92 L16.8664 1375.68 M9.1813 1385.04 L9.1813 1363.92 Q9.1813 1352.3 14.459 1346.38 Q19.6905 1340.41 29.8293 1340.41 Q40.0608 1340.41 45.2922 1346.38 Q50.5237 1352.3 50.5237 1363.92 L50.5237 1375.68 L78.3013 1375.68 L78.3013 1385.04 L9.1813 1385.04 Z" fill="#000000" fill-rule="evenodd" fill-opacity="1" /><path clip-path="url(#clip440)" d="M52.2366 1308.92 Q52.2366 1319.25 54.5977 1323.23 Q56.9588 1327.21 62.6532 1327.21 Q67.1902 1327.21 69.8754 1324.25 Q72.5143 1321.24 72.5143 1316.1 Q72.5143 1309.02 67.5143 1304.76 Q62.4681 1300.45 54.1348 1300.45 L52.2366 1300.45 L52.2366 1308.92 M48.7181 1291.93 L78.3013 1291.93 L78.3013 1300.45 L70.431 1300.45 Q75.1532 1303.37 77.4217 1307.72 Q79.6439 1312.07 79.6439 1318.37 Q79.6439 1326.33 75.1995 1331.05 Q70.7087 1335.73 63.2088 1335.73 Q54.4588 1335.73 50.0144 1329.9 Q45.57 1324.02 45.57 1312.4 L45.57 1300.45 L44.7367 1300.45 Q38.8571 1300.45 35.6626 1304.34 Q32.4219 1308.18 32.4219 1315.17 Q32.4219 1319.62 33.4867 1323.83 Q34.5515 1328.04 36.6812 1331.93 L28.8108 1331.93 Q27.0053 1327.26 26.1257 1322.86 Q25.1997 1318.46 25.1997 1314.3 Q25.1997 1303.05 31.033 1297.49 Q36.8663 1291.93 48.7181 1291.93 Z" fill="#000000" fill-rule="evenodd" fill-opacity="1" /><path clip-path="url(#clip440)" d="M34.4126 1244.34 Q33.5793 1245.78 33.2089 1247.49 Q32.7923 1249.16 32.7923 1251.19 Q32.7923 1258.42 37.5145 1262.3 Q42.1904 1266.15 50.9866 1266.15 L78.3013 1266.15 L78.3013 1274.71 L26.4497 1274.71 L26.4497 1266.15 L34.5052 1266.15 Q29.783 1263.46 27.5145 1259.16 Q25.1997 1254.85 25.1997 1248.69 Q25.1997 1247.81 25.3386 1246.75 Q25.4312 1245.68 25.6627 1244.39 L34.4126 1244.34 Z" fill="#000000" fill-rule="evenodd" fill-opacity="1" /><path clip-path="url(#clip440)" d="M11.7276 1226.98 L26.4497 1226.98 L26.4497 1209.43 L33.0701 1209.43 L33.0701 1226.98 L61.2181 1226.98 Q67.5606 1226.98 69.3662 1225.27 Q71.1717 1223.51 71.1717 1218.18 L71.1717 1209.43 L78.3013 1209.43 L78.3013 1218.18 Q78.3013 1228.05 74.6439 1231.8 Q70.9402 1235.55 61.2181 1235.55 L33.0701 1235.55 L33.0701 1241.8 L26.4497 1241.8 L26.4497 1235.55 L11.7276 1235.55 L11.7276 1226.98 Z" fill="#000000" fill-rule="evenodd" fill-opacity="1" /><path clip-path="url(#clip440)" d="M26.4497 1198.23 L26.4497 1189.71 L78.3013 1189.71 L78.3013 1198.23 L26.4497 1198.23 M6.26465 1198.23 L6.26465 1189.71 L17.0516 1189.71 L17.0516 1198.23 L6.26465 1198.23 Z" fill="#000000" fill-rule="evenodd" fill-opacity="1" /><path clip-path="url(#clip440)" d="M52.2366 1148.32 Q52.2366 1158.65 54.5977 1162.63 Q56.9588 1166.61 62.6532 1166.61 Q67.1902 1166.61 69.8754 1163.65 Q72.5143 1160.64 72.5143 1155.5 Q72.5143 1148.42 67.5143 1144.16 Q62.4681 1139.85 54.1348 1139.85 L52.2366 1139.85 L52.2366 1148.32 M48.7181 1131.33 L78.3013 1131.33 L78.3013 1139.85 L70.431 1139.85 Q75.1532 1142.77 77.4217 1147.12 Q79.6439 1151.47 79.6439 1157.77 Q79.6439 1165.73 75.1995 1170.45 Q70.7087 1175.13 63.2088 1175.13 Q54.4588 1175.13 50.0144 1169.3 Q45.57 1163.42 45.57 1151.8 L45.57 1139.85 L44.7367 1139.85 Q38.8571 1139.85 35.6626 1143.74 Q32.4219 1147.58 32.4219 1154.57 Q32.4219 1159.02 33.4867 1163.23 Q34.5515 1167.44 36.6812 1171.33 L28.8108 1171.33 Q27.0053 1166.66 26.1257 1162.26 Q25.1997 1157.86 25.1997 1153.69 Q25.1997 1142.44 31.033 1136.89 Q36.8663 1131.33 48.7181 1131.33 Z" fill="#000000" fill-rule="evenodd" fill-opacity="1" /><path clip-path="url(#clip440)" d="M6.26465 1113.79 L6.26465 1105.27 L78.3013 1105.27 L78.3013 1113.79 L6.26465 1113.79 Z" fill="#000000" fill-rule="evenodd" fill-opacity="1" /><path clip-path="url(#clip440)" d="M18.3942 1033.83 L52.7922 1046.52 L52.7922 1021.1 L18.3942 1033.83 M9.1813 1039.11 L9.1813 1028.51 L78.3013 1002.17 L78.3013 1011.89 L60.5699 1018.19 L60.5699 1049.34 L78.3013 1055.64 L78.3013 1065.5 L9.1813 1039.11 Z" fill="#000000" fill-rule="evenodd" fill-opacity="1" /><path clip-path="url(#clip440)" d="M57.8384 993.325 L26.4497 993.325 L26.4497 984.806 L57.5144 984.806 Q64.8754 984.806 68.5791 981.936 Q72.2365 979.065 72.2365 973.325 Q72.2365 966.427 67.8384 962.445 Q63.4403 958.417 55.8477 958.417 L26.4497 958.417 L26.4497 949.899 L78.3013 949.899 L78.3013 958.417 L70.3384 958.417 Q75.0606 961.519 77.3754 965.64 Q79.6439 969.714 79.6439 975.13 Q79.6439 984.065 74.0884 988.695 Q68.5328 993.325 57.8384 993.325 M25.1997 971.889 L25.1997 971.889 Z" fill="#000000" fill-rule="evenodd" fill-opacity="1" /><path clip-path="url(#clip440)" d="M11.7276 923.927 L26.4497 923.927 L26.4497 906.381 L33.0701 906.381 L33.0701 923.927 L61.2181 923.927 Q67.5606 923.927 69.3662 922.214 Q71.1717 920.455 71.1717 915.131 L71.1717 906.381 L78.3013 906.381 L78.3013 915.131 Q78.3013 924.992 74.6439 928.742 Q70.9402 932.492 61.2181 932.492 L33.0701 932.492 L33.0701 938.742 L26.4497 938.742 L26.4497 932.492 L11.7276 932.492 L11.7276 923.927 Z" fill="#000000" fill-rule="evenodd" fill-opacity="1" /><path clip-path="url(#clip440)" d="M32.4219 875.084 Q32.4219 881.936 37.7923 885.918 Q43.1163 889.899 52.4218 889.899 Q61.7273 889.899 67.0977 885.964 Q72.4217 881.983 72.4217 875.084 Q72.4217 868.279 67.0514 864.297 Q61.681 860.316 52.4218 860.316 Q43.2089 860.316 37.8386 864.297 Q32.4219 868.279 32.4219 875.084 M25.1997 875.084 Q25.1997 863.973 32.4219 857.631 Q39.6441 851.288 52.4218 851.288 Q65.1532 851.288 72.4217 857.631 Q79.6439 863.973 79.6439 875.084 Q79.6439 886.242 72.4217 892.584 Q65.1532 898.881 52.4218 898.881 Q39.6441 898.881 32.4219 892.584 Q25.1997 886.242 25.1997 875.084 Z" fill="#000000" fill-rule="evenodd" fill-opacity="1" /><path clip-path="url(#clip440)" d="M28.4405 799.853 L36.4034 799.853 Q34.4126 803.464 33.4404 807.122 Q32.4219 810.733 32.4219 814.437 Q32.4219 822.724 37.6997 827.307 Q42.9311 831.89 52.4218 831.89 Q61.9125 831.89 67.1902 827.307 Q72.4217 822.724 72.4217 814.437 Q72.4217 810.733 71.4495 807.122 Q70.431 803.464 68.4402 799.853 L76.3106 799.853 Q77.9772 803.418 78.8106 807.261 Q79.6439 811.057 79.6439 815.363 Q79.6439 827.075 72.2828 833.974 Q64.9217 840.872 52.4218 840.872 Q39.7367 840.872 32.4682 833.927 Q25.1997 826.937 25.1997 814.807 Q25.1997 810.872 26.0331 807.122 Q26.8201 803.372 28.4405 799.853 Z" fill="#000000" fill-rule="evenodd" fill-opacity="1" /><path clip-path="url(#clip440)" d="M32.4219 764.946 Q32.4219 771.798 37.7923 775.779 Q43.1163 779.761 52.4218 779.761 Q61.7273 779.761 67.0977 775.826 Q72.4217 771.844 72.4217 764.946 Q72.4217 758.141 67.0514 754.159 Q61.681 750.178 52.4218 750.178 Q43.2089 750.178 37.8386 754.159 Q32.4219 758.141 32.4219 764.946 M25.1997 764.946 Q25.1997 753.835 32.4219 747.493 Q39.6441 741.15 52.4218 741.15 Q65.1532 741.15 72.4217 747.493 Q79.6439 753.835 79.6439 764.946 Q79.6439 776.104 72.4217 782.446 Q65.1532 788.742 52.4218 788.742 Q39.6441 788.742 32.4219 782.446 Q25.1997 776.104 25.1997 764.946 Z" fill="#000000" fill-rule="evenodd" fill-opacity="1" /><path clip-path="url(#clip440)" d="M34.4126 696.984 Q33.5793 698.419 33.2089 700.132 Q32.7923 701.798 32.7923 703.835 Q32.7923 711.058 37.5145 714.946 Q42.1904 718.789 50.9866 718.789 L78.3013 718.789 L78.3013 727.354 L26.4497 727.354 L26.4497 718.789 L34.5052 718.789 Q29.783 716.104 27.5145 711.798 Q25.1997 707.493 25.1997 701.335 Q25.1997 700.456 25.3386 699.391 Q25.4312 698.326 25.6627 697.03 L34.4126 696.984 Z" fill="#000000" fill-rule="evenodd" fill-opacity="1" /><path clip-path="url(#clip440)" d="M34.4126 659.669 Q33.5793 661.104 33.2089 662.817 Q32.7923 664.484 32.7923 666.521 Q32.7923 673.743 37.5145 677.632 Q42.1904 681.474 50.9866 681.474 L78.3013 681.474 L78.3013 690.039 L26.4497 690.039 L26.4497 681.474 L34.5052 681.474 Q29.783 678.789 27.5145 674.484 Q25.1997 670.178 25.1997 664.021 Q25.1997 663.141 25.3386 662.076 Q25.4312 661.012 25.6627 659.715 L34.4126 659.669 Z" fill="#000000" fill-rule="evenodd" fill-opacity="1" /><path clip-path="url(#clip440)" d="M50.2459 608.466 L54.4125 608.466 L54.4125 647.632 Q63.2088 647.076 67.8384 642.354 Q72.4217 637.586 72.4217 629.114 Q72.4217 624.206 71.218 619.623 Q70.0143 614.993 67.6069 610.456 L75.6624 610.456 Q77.6069 615.04 78.6254 619.854 Q79.6439 624.669 79.6439 629.623 Q79.6439 642.03 72.4217 649.299 Q65.1995 656.521 52.8848 656.521 Q40.1534 656.521 32.6997 649.669 Q25.1997 642.771 25.1997 631.104 Q25.1997 620.641 31.959 614.577 Q38.6719 608.466 50.2459 608.466 M47.7459 616.984 Q40.7552 617.077 36.5886 620.919 Q32.4219 624.715 32.4219 631.012 Q32.4219 638.141 36.4497 642.447 Q40.4774 646.706 47.7922 647.354 L47.7459 616.984 Z" fill="#000000" fill-rule="evenodd" fill-opacity="1" /><path clip-path="url(#clip440)" d="M6.26465 594.484 L6.26465 585.966 L78.3013 585.966 L78.3013 594.484 L6.26465 594.484 Z" fill="#000000" fill-rule="evenodd" fill-opacity="1" /><path clip-path="url(#clip440)" d="M52.2366 544.577 Q52.2366 554.901 54.5977 558.882 Q56.9588 562.864 62.6532 562.864 Q67.1902 562.864 69.8754 559.901 Q72.5143 556.892 72.5143 551.753 Q72.5143 544.67 67.5143 540.41 Q62.4681 536.105 54.1348 536.105 L52.2366 536.105 L52.2366 544.577 M48.7181 527.586 L78.3013 527.586 L78.3013 536.105 L70.431 536.105 Q75.1532 539.021 77.4217 543.373 Q79.6439 547.725 79.6439 554.021 Q79.6439 561.984 75.1995 566.706 Q70.7087 571.382 63.2088 571.382 Q54.4588 571.382 50.0144 565.549 Q45.57 559.669 45.57 548.049 L45.57 536.105 L44.7367 536.105 Q38.8571 536.105 35.6626 539.994 Q32.4219 543.836 32.4219 550.827 Q32.4219 555.271 33.4867 559.484 Q34.5515 563.697 36.6812 567.586 L28.8108 567.586 Q27.0053 562.91 26.1257 558.512 Q25.1997 554.114 25.1997 549.947 Q25.1997 538.697 31.033 533.142 Q36.8663 527.586 48.7181 527.586 Z" fill="#000000" fill-rule="evenodd" fill-opacity="1" /><path clip-path="url(#clip440)" d="M11.7276 501.614 L26.4497 501.614 L26.4497 484.068 L33.0701 484.068 L33.0701 501.614 L61.2181 501.614 Q67.5606 501.614 69.3662 499.901 Q71.1717 498.142 71.1717 492.818 L71.1717 484.068 L78.3013 484.068 L78.3013 492.818 Q78.3013 502.679 74.6439 506.429 Q70.9402 510.179 61.2181 510.179 L33.0701 510.179 L33.0701 516.429 L26.4497 516.429 L26.4497 510.179 L11.7276 510.179 L11.7276 501.614 Z" fill="#000000" fill-rule="evenodd" fill-opacity="1" /><path clip-path="url(#clip440)" d="M26.4497 472.864 L26.4497 464.346 L78.3013 464.346 L78.3013 472.864 L26.4497 472.864 M6.26465 472.864 L6.26465 464.346 L17.0516 464.346 L17.0516 472.864 L6.26465 472.864 Z" fill="#000000" fill-rule="evenodd" fill-opacity="1" /><path clip-path="url(#clip440)" d="M32.4219 426.429 Q32.4219 433.281 37.7923 437.263 Q43.1163 441.244 52.4218 441.244 Q61.7273 441.244 67.0977 437.309 Q72.4217 433.328 72.4217 426.429 Q72.4217 419.624 67.0514 415.642 Q61.681 411.661 52.4218 411.661 Q43.2089 411.661 37.8386 415.642 Q32.4219 419.624 32.4219 426.429 M25.1997 426.429 Q25.1997 415.318 32.4219 408.976 Q39.6441 402.633 52.4218 402.633 Q65.1532 402.633 72.4217 408.976 Q79.6439 415.318 79.6439 426.429 Q79.6439 437.587 72.4217 443.929 Q65.1532 450.226 52.4218 450.226 Q39.6441 450.226 32.4219 443.929 Q25.1997 437.587 25.1997 426.429 Z" fill="#000000" fill-rule="evenodd" fill-opacity="1" /><path clip-path="url(#clip440)" d="M47.0052 345.411 L78.3013 345.411 L78.3013 353.93 L47.2829 353.93 Q39.9219 353.93 36.2645 356.8 Q32.6071 359.671 32.6071 365.411 Q32.6071 372.309 37.0052 376.291 Q41.4033 380.272 48.9959 380.272 L78.3013 380.272 L78.3013 388.837 L26.4497 388.837 L26.4497 380.272 L34.5052 380.272 Q29.8293 377.217 27.5145 373.096 Q25.1997 368.93 25.1997 363.513 Q25.1997 354.578 30.7553 349.995 Q36.2645 345.411 47.0052 345.411 Z" fill="#000000" fill-rule="evenodd" fill-opacity="1" /><circle clip-path="url(#clip442)" cx="432.012" cy="554.718" r="28.8" fill="#009af9" fill-rule="evenodd" fill-opacity="1" stroke="#000000" stroke-opacity="1" stroke-width="3.84"/>
<circle clip-path="url(#clip442)" cx="1146.82" cy="1325.54" r="28.8" fill="#009af9" fill-rule="evenodd" fill-opacity="1" stroke="#000000" stroke-opacity="1" stroke-width="3.84"/>
<circle clip-path="url(#clip442)" cx="1861.62" cy="502.29" r="28.8" fill="#009af9" fill-rule="evenodd" fill-opacity="1" stroke="#000000" stroke-opacity="1" stroke-width="3.84"/>
<circle clip-path="url(#clip442)" cx="2576.42" cy="1636.9" r="28.8" fill="#009af9" fill-rule="evenodd" fill-opacity="1" stroke="#000000" stroke-opacity="1" stroke-width="3.84"/>
<polyline clip-path="url(#clip442)" style="stroke:#009af9; stroke-linecap:round; stroke-linejoin:round; stroke-width:8; stroke-opacity:1; fill:none" points="432.012,93.5448 432.012,554.718 "/>
<polyline clip-path="url(#clip442)" style="stroke:#009af9; stroke-linecap:round; stroke-linejoin:round; stroke-width:8; stroke-opacity:1; fill:none" points="1146.82,93.5448 1146.82,1325.54 "/>
<polyline clip-path="url(#clip442)" style="stroke:#009af9; stroke-linecap:round; stroke-linejoin:round; stroke-width:8; stroke-opacity:1; fill:none" points="1861.62,93.5448 1861.62,502.29 "/>
<polyline clip-path="url(#clip442)" style="stroke:#009af9; stroke-linecap:round; stroke-linejoin:round; stroke-width:8; stroke-opacity:1; fill:none" points="2576.42,93.5448 2576.42,1636.9 "/>
<polyline clip-path="url(#clip442)" style="stroke:#ff0000; stroke-linecap:round; stroke-linejoin:round; stroke-width:4; stroke-opacity:1; fill:none" stroke-dasharray="2, 4" points="-1905.4,93.5448 4913.83,93.5448 "/>
</svg>
