<?xml version="1.0" encoding="utf-8"?>
<svg xmlns="http://www.w3.org/2000/svg" xmlns:xlink="http://www.w3.org/1999/xlink" width="500" height="400" viewBox="0 0 2000 1600">
<defs>
  <clipPath id="clip870">
    <rect x="0" y="0" width="2000" height="1600"/>
  </clipPath>
</defs>
<path clip-path="url(#clip870)" d="
M0 1600 L2000 1600 L2000 0 L0 0  Z
  " fill="#ffffff" fill-rule="evenodd" fill-opacity="1"/>
<defs>
  <clipPath id="clip871">
    <rect x="400" y="0" width="1401" height="1401"/>
  </clipPath>
</defs>
<defs>
  <clipPath id="clip872">
    <rect x="243" y="0" width="1483" height="1600"/>
  </clipPath>
</defs>
<path clip-path="url(#clip870)" d="
M209.094 1370.48 L1952.76 1370.48 L1952.76 47.2441 L209.094 47.2441  Z
  " fill="#ffffff" fill-rule="evenodd" fill-opacity="1"/>
<defs>
  <clipPath id="clip873">
    <rect x="209" y="47" width="1745" height="1324"/>
  </clipPath>
</defs>
<polyline clip-path="url(#clip873)" style="stroke:#000000; stroke-linecap:round; stroke-linejoin:round; stroke-width:2; stroke-opacity:0.1; fill:none" points="
  288.351,1370.48 288.351,47.2441 
  "/>
<polyline clip-path="url(#clip873)" style="stroke:#000000; stroke-linecap:round; stroke-linejoin:round; stroke-width:2; stroke-opacity:0.1; fill:none" points="
  684.638,1370.48 684.638,47.2441 
  "/>
<polyline clip-path="url(#clip873)" style="stroke:#000000; stroke-linecap:round; stroke-linejoin:round; stroke-width:2; stroke-opacity:0.1; fill:none" points="
  1080.92,1370.48 1080.92,47.2441 
  "/>
<polyline clip-path="url(#clip873)" style="stroke:#000000; stroke-linecap:round; stroke-linejoin:round; stroke-width:2; stroke-opacity:0.1; fill:none" points="
  1477.21,1370.48 1477.21,47.2441 
  "/>
<polyline clip-path="url(#clip873)" style="stroke:#000000; stroke-linecap:round; stroke-linejoin:round; stroke-width:2; stroke-opacity:0.1; fill:none" points="
  1873.5,1370.48 1873.5,47.2441 
  "/>
<polyline clip-path="url(#clip870)" style="stroke:#000000; stroke-linecap:round; stroke-linejoin:round; stroke-width:4; stroke-opacity:1; fill:none" points="
  209.094,1370.48 1952.76,1370.48 
  "/>
<polyline clip-path="url(#clip870)" style="stroke:#000000; stroke-linecap:round; stroke-linejoin:round; stroke-width:4; stroke-opacity:1; fill:none" points="
  288.351,1370.48 288.351,1351.58 
  "/>
<polyline clip-path="url(#clip870)" style="stroke:#000000; stroke-linecap:round; stroke-linejoin:round; stroke-width:4; stroke-opacity:1; fill:none" points="
  684.638,1370.48 684.638,1351.58 
  "/>
<polyline clip-path="url(#clip870)" style="stroke:#000000; stroke-linecap:round; stroke-linejoin:round; stroke-width:4; stroke-opacity:1; fill:none" points="
  1080.92,1370.48 1080.92,1351.58 
  "/>
<polyline clip-path="url(#clip870)" style="stroke:#000000; stroke-linecap:round; stroke-linejoin:round; stroke-width:4; stroke-opacity:1; fill:none" points="
  1477.21,1370.48 1477.21,1351.58 
  "/>
<polyline clip-path="url(#clip870)" style="stroke:#000000; stroke-linecap:round; stroke-linejoin:round; stroke-width:4; stroke-opacity:1; fill:none" points="
  1873.5,1370.48 1873.5,1351.58 
  "/>
<path clip-path="url(#clip870)" d="M254.428 1404.05 Q249.011 1404.05 246.268 1409.4 Q243.56 1414.71 243.56 1425.41 Q243.56 1436.07 246.268 1441.41 Q249.011 1446.73 254.428 1446.73 Q259.879 1446.73 262.587 1441.41 Q265.33 1436.07 265.33 1425.41 Q265.33 1414.71 262.587 1409.4 Q259.879 1404.05 254.428 1404.05 M254.428 1398.5 Q263.143 1398.5 267.726 1405.41 Q272.344 1412.28 272.344 1425.41 Q272.344 1438.5 267.726 1445.41 Q263.143 1452.28 254.428 1452.28 Q245.712 1452.28 241.094 1445.41 Q236.511 1438.5 236.511 1425.41 Q236.511 1412.28 241.094 1405.41 Q245.712 1398.5 254.428 1398.5 Z" fill="#000000" fill-rule="evenodd" fill-opacity="1" /><path clip-path="url(#clip870)" d="M284.671 1442.46 L291.997 1442.46 L291.997 1451.28 L284.671 1451.28 L284.671 1442.46 Z" fill="#000000" fill-rule="evenodd" fill-opacity="1" /><path clip-path="url(#clip870)" d="M322.275 1404.05 Q316.858 1404.05 314.115 1409.4 Q311.407 1414.71 311.407 1425.41 Q311.407 1436.07 314.115 1441.41 Q316.858 1446.73 322.275 1446.73 Q327.726 1446.73 330.434 1441.41 Q333.177 1436.07 333.177 1425.41 Q333.177 1414.71 330.434 1409.4 Q327.726 1404.05 322.275 1404.05 M322.275 1398.5 Q330.99 1398.5 335.573 1405.41 Q340.191 1412.28 340.191 1425.41 Q340.191 1438.5 335.573 1445.41 Q330.99 1452.28 322.275 1452.28 Q313.559 1452.28 308.941 1445.41 Q304.358 1438.5 304.358 1425.41 Q304.358 1412.28 308.941 1405.41 Q313.559 1398.5 322.275 1398.5 Z" fill="#000000" fill-rule="evenodd" fill-opacity="1" /><path clip-path="url(#clip870)" d="M642.242 1445.37 L666.721 1445.37 L666.721 1451.28 L633.805 1451.28 L633.805 1445.37 Q637.798 1441.24 644.673 1434.3 Q651.583 1427.32 653.353 1425.3 Q656.721 1421.52 658.041 1418.91 Q659.395 1416.28 659.395 1413.74 Q659.395 1409.61 656.478 1407.01 Q653.596 1404.4 648.944 1404.4 Q645.645 1404.4 641.965 1405.55 Q638.319 1406.69 634.152 1409.02 L634.152 1401.94 Q638.388 1400.23 642.069 1399.37 Q645.749 1398.5 648.805 1398.5 Q656.86 1398.5 661.652 1402.53 Q666.444 1406.55 666.444 1413.29 Q666.444 1416.48 665.228 1419.37 Q664.048 1422.21 660.888 1426.1 Q660.02 1427.11 655.367 1431.94 Q650.715 1436.73 642.242 1445.37 Z" fill="#000000" fill-rule="evenodd" fill-opacity="1" /><path clip-path="url(#clip870)" d="M681.444 1442.46 L688.77 1442.46 L688.77 1451.28 L681.444 1451.28 L681.444 1442.46 Z" fill="#000000" fill-rule="evenodd" fill-opacity="1" /><path clip-path="url(#clip870)" d="M704.117 1399.44 L731.652 1399.44 L731.652 1405.34 L710.541 1405.34 L710.541 1418.05 Q712.068 1417.53 713.596 1417.28 Q715.124 1417.01 716.652 1417.01 Q725.332 1417.01 730.402 1421.76 Q735.471 1426.52 735.471 1434.64 Q735.471 1443.01 730.263 1447.66 Q725.054 1452.28 715.575 1452.28 Q712.311 1452.28 708.909 1451.73 Q705.541 1451.17 701.93 1450.06 L701.93 1443.01 Q705.055 1444.71 708.388 1445.55 Q711.721 1446.38 715.436 1446.38 Q721.443 1446.38 724.95 1443.22 Q728.457 1440.06 728.457 1434.64 Q728.457 1429.23 724.95 1426.07 Q721.443 1422.91 715.436 1422.91 Q712.624 1422.91 709.811 1423.53 Q707.034 1424.16 704.117 1425.48 L704.117 1399.44 Z" fill="#000000" fill-rule="evenodd" fill-opacity="1" /><path clip-path="url(#clip870)" d="M1031.67 1399.44 L1059.21 1399.44 L1059.21 1405.34 L1038.1 1405.34 L1038.1 1418.05 Q1039.62 1417.53 1041.15 1417.28 Q1042.68 1417.01 1044.21 1417.01 Q1052.89 1417.01 1057.96 1421.76 Q1063.03 1426.52 1063.03 1434.64 Q1063.03 1443.01 1057.82 1447.66 Q1052.61 1452.28 1043.13 1452.28 Q1039.87 1452.28 1036.46 1451.73 Q1033.1 1451.17 1029.48 1450.06 L1029.48 1443.01 Q1032.61 1444.71 1035.94 1445.55 Q1039.28 1446.38 1042.99 1446.38 Q1049 1446.38 1052.5 1443.22 Q1056.01 1440.06 1056.01 1434.64 Q1056.01 1429.23 1052.5 1426.07 Q1049 1422.91 1042.99 1422.91 Q1040.18 1422.91 1037.37 1423.53 Q1034.59 1424.16 1031.67 1425.48 L1031.67 1399.44 Z" fill="#000000" fill-rule="evenodd" fill-opacity="1" /><path clip-path="url(#clip870)" d="M1076.84 1442.46 L1084.17 1442.46 L1084.17 1451.28 L1076.84 1451.28 L1076.84 1442.46 Z" fill="#000000" fill-rule="evenodd" fill-opacity="1" /><path clip-path="url(#clip870)" d="M1114.45 1404.05 Q1109.03 1404.05 1106.29 1409.4 Q1103.58 1414.71 1103.58 1425.41 Q1103.58 1436.07 1106.29 1441.41 Q1109.03 1446.73 1114.45 1446.73 Q1119.9 1446.73 1122.61 1441.41 Q1125.35 1436.07 1125.35 1425.41 Q1125.35 1414.71 1122.61 1409.4 Q1119.9 1404.05 1114.45 1404.05 M1114.45 1398.5 Q1123.16 1398.5 1127.75 1405.41 Q1132.37 1412.28 1132.37 1425.41 Q1132.37 1438.5 1127.75 1445.41 Q1123.16 1452.28 1114.45 1452.28 Q1105.73 1452.28 1101.12 1445.41 Q1096.53 1438.5 1096.53 1425.41 Q1096.53 1412.28 1101.12 1405.41 Q1105.73 1398.5 1114.45 1398.5 Z" fill="#000000" fill-rule="evenodd" fill-opacity="1" /><path clip-path="url(#clip870)" d="M1426.69 1399.44 L1460.02 1399.44 L1460.02 1402.42 L1441.2 1451.28 L1433.88 1451.28 L1451.59 1405.34 L1426.69 1405.34 L1426.69 1399.44 Z" fill="#000000" fill-rule="evenodd" fill-opacity="1" /><path clip-path="url(#clip870)" d="M1473.7 1442.46 L1481.03 1442.46 L1481.03 1451.28 L1473.7 1451.28 L1473.7 1442.46 Z" fill="#000000" fill-rule="evenodd" fill-opacity="1" /><path clip-path="url(#clip870)" d="M1496.38 1399.44 L1523.91 1399.44 L1523.91 1405.34 L1502.8 1405.34 L1502.8 1418.05 Q1504.33 1417.53 1505.86 1417.28 Q1507.39 1417.01 1508.91 1417.01 Q1517.59 1417.01 1522.66 1421.76 Q1527.73 1426.52 1527.73 1434.64 Q1527.73 1443.01 1522.52 1447.66 Q1517.32 1452.28 1507.84 1452.28 Q1504.57 1452.28 1501.17 1451.73 Q1497.8 1451.17 1494.19 1450.06 L1494.19 1443.01 Q1497.32 1444.71 1500.65 1445.55 Q1503.98 1446.38 1507.7 1446.38 Q1513.7 1446.38 1517.21 1443.22 Q1520.72 1440.06 1520.72 1434.64 Q1520.72 1429.23 1517.21 1426.07 Q1513.7 1422.91 1507.7 1422.91 Q1504.89 1422.91 1502.07 1423.53 Q1499.29 1424.16 1496.38 1425.48 L1496.38 1399.44 Z" fill="#000000" fill-rule="evenodd" fill-opacity="1" /><path clip-path="url(#clip870)" d="M1801.61 1445.37 L1813.06 1445.37 L1813.06 1405.82 L1800.6 1408.32 L1800.6 1401.94 L1813 1399.44 L1820.01 1399.44 L1820.01 1445.37 L1831.47 1445.37 L1831.47 1451.28 L1801.61 1451.28 L1801.61 1445.37 Z" fill="#000000" fill-rule="evenodd" fill-opacity="1" /><path clip-path="url(#clip870)" d="M1860.63 1404.05 Q1855.22 1404.05 1852.47 1409.4 Q1849.77 1414.71 1849.77 1425.41 Q1849.77 1436.07 1852.47 1441.41 Q1855.22 1446.73 1860.63 1446.73 Q1866.09 1446.73 1868.79 1441.41 Q1871.54 1436.07 1871.54 1425.41 Q1871.54 1414.71 1868.79 1409.4 Q1866.09 1404.05 1860.63 1404.05 M1860.63 1398.5 Q1869.35 1398.5 1873.93 1405.41 Q1878.55 1412.28 1878.55 1425.41 Q1878.55 1438.5 1873.93 1445.41 Q1869.35 1452.28 1860.63 1452.28 Q1851.92 1452.28 1847.3 1445.41 Q1842.72 1438.5 1842.72 1425.41 Q1842.72 1412.28 1847.3 1405.41 Q1851.92 1398.5 1860.63 1398.5 Z" fill="#000000" fill-rule="evenodd" fill-opacity="1" /><path clip-path="url(#clip870)" d="M1890.88 1442.46 L1898.2 1442.46 L1898.2 1451.28 L1890.88 1451.28 L1890.88 1442.46 Z" fill="#000000" fill-rule="evenodd" fill-opacity="1" /><path clip-path="url(#clip870)" d="M1928.48 1404.05 Q1923.06 1404.05 1920.32 1409.4 Q1917.61 1414.71 1917.61 1425.41 Q1917.61 1436.07 1920.32 1441.41 Q1923.06 1446.73 1928.48 1446.73 Q1933.93 1446.73 1936.64 1441.41 Q1939.38 1436.07 1939.38 1425.41 Q1939.38 1414.71 1936.64 1409.4 Q1933.93 1404.05 1928.48 1404.05 M1928.48 1398.5 Q1937.2 1398.5 1941.78 1405.41 Q1946.4 1412.28 1946.4 1425.41 Q1946.4 1438.5 1941.78 1445.41 Q1937.2 1452.28 1928.48 1452.28 Q1919.77 1452.28 1915.15 1445.41 Q1910.56 1438.5 1910.56 1425.41 Q1910.56 1412.28 1915.15 1405.41 Q1919.77 1398.5 1928.48 1398.5 Z" fill="#000000" fill-rule="evenodd" fill-opacity="1" /><path clip-path="url(#clip870)" d="M992.548 1500.86 Q992.548 1503.15 991.114 1504.47 Q989.679 1505.74 988.04 1505.74 Q986.482 1505.74 985.662 1504.84 Q984.842 1503.93 984.842 1502.79 Q984.842 1501.23 985.99 1499.88 Q987.138 1498.52 988.859 1498.24 Q987.179 1497.17 984.678 1497.17 Q983.039 1497.17 981.604 1498.03 Q980.211 1498.89 979.35 1500 Q978.53 1501.11 977.792 1502.7 Q977.095 1504.26 976.809 1505.2 Q976.563 1506.11 976.358 1507.09 L973.488 1518.57 Q972.095 1524.02 972.095 1525.94 Q972.095 1528.32 973.242 1529.92 Q974.39 1531.48 976.686 1531.48 Q977.587 1531.48 978.612 1531.23 Q979.637 1530.95 980.948 1530.21 Q982.301 1529.43 983.49 1528.28 Q984.719 1527.09 985.908 1525.08 Q987.097 1523.08 987.876 1520.49 Q988.122 1519.59 988.941 1519.59 Q989.966 1519.59 989.966 1520.41 Q989.966 1521.11 989.392 1522.58 Q988.859 1524.02 987.671 1525.9 Q986.523 1527.75 985.006 1529.43 Q983.49 1531.07 981.235 1532.22 Q978.981 1533.36 976.522 1533.36 Q972.997 1533.36 970.66 1531.48 Q968.324 1529.59 967.463 1526.97 Q967.258 1527.34 966.971 1527.83 Q966.684 1528.32 965.823 1529.43 Q965.004 1530.49 964.061 1531.31 Q963.118 1532.09 961.642 1532.71 Q960.208 1533.36 958.65 1533.36 Q956.683 1533.36 954.92 1532.79 Q953.199 1532.22 951.969 1530.9 Q950.739 1529.59 950.739 1527.79 Q950.739 1525.78 952.092 1524.39 Q953.486 1522.95 955.371 1522.95 Q956.56 1522.95 957.503 1523.65 Q958.486 1524.35 958.486 1525.86 Q958.486 1527.54 957.339 1528.81 Q956.191 1530.08 954.551 1530.41 Q956.232 1531.48 958.732 1531.48 Q961.438 1531.48 963.569 1529.1 Q965.7 1526.72 966.725 1522.75 Q969.267 1513.2 970.25 1508.93 Q971.234 1504.63 971.234 1502.79 Q971.234 1501.06 970.783 1499.88 Q970.332 1498.69 969.553 1498.15 Q968.816 1497.58 968.119 1497.38 Q967.463 1497.17 966.725 1497.17 Q965.495 1497.17 964.102 1497.66 Q962.749 1498.15 961.11 1499.3 Q959.511 1500.41 957.994 1502.7 Q956.478 1505 955.453 1508.16 Q955.248 1509.1 954.346 1509.1 Q953.363 1509.06 953.363 1508.24 Q953.363 1507.54 953.896 1506.11 Q954.469 1504.63 955.617 1502.79 Q956.806 1500.94 958.322 1499.3 Q959.88 1497.62 962.134 1496.47 Q964.43 1495.33 966.889 1495.33 Q967.996 1495.33 969.062 1495.57 Q970.168 1495.78 971.48 1496.39 Q972.833 1497.01 974.021 1498.36 Q975.21 1499.71 975.948 1501.68 Q976.44 1500.74 977.095 1499.83 Q977.792 1498.93 978.858 1497.83 Q979.965 1496.68 981.481 1496.02 Q983.039 1495.33 984.76 1495.33 Q986.441 1495.33 988.081 1495.78 Q989.72 1496.19 991.114 1497.54 Q992.548 1498.85 992.548 1500.86 Z" fill="#000000" fill-rule="evenodd" fill-opacity="1" /><path clip-path="url(#clip870)" d="M1050.37 1469.47 Q1044.94 1478.79 1042.31 1487.9 Q1039.68 1497.02 1039.68 1506.37 Q1039.68 1515.73 1042.31 1524.93 Q1044.98 1534.08 1050.37 1543.36 L1043.89 1543.36 Q1037.81 1533.84 1034.77 1524.64 Q1031.78 1515.45 1031.78 1506.37 Q1031.78 1497.34 1034.77 1488.19 Q1037.77 1479.03 1043.89 1469.47 L1050.37 1469.47 Z" fill="#000000" fill-rule="evenodd" fill-opacity="1" /><path clip-path="url(#clip870)" d="M1064.55 1469.39 L1072.04 1469.39 L1072.04 1506.62 L1094.28 1487.05 L1103.8 1487.05 L1079.74 1508.28 L1104.81 1532.42 L1095.09 1532.42 L1072.04 1510.26 L1072.04 1532.42 L1064.55 1532.42 L1064.55 1469.39 Z" fill="#000000" fill-rule="evenodd" fill-opacity="1" /><path clip-path="url(#clip870)" d="M1148.2 1495.76 Q1150.99 1490.74 1154.88 1488.35 Q1158.77 1485.96 1164.04 1485.96 Q1171.13 1485.96 1174.98 1490.94 Q1178.82 1495.88 1178.82 1505.04 L1178.82 1532.42 L1171.33 1532.42 L1171.33 1505.28 Q1171.33 1498.76 1169.02 1495.6 Q1166.71 1492.44 1161.97 1492.44 Q1156.18 1492.44 1152.82 1496.29 Q1149.46 1500.14 1149.46 1506.78 L1149.46 1532.42 L1141.96 1532.42 L1141.96 1505.28 Q1141.96 1498.72 1139.65 1495.6 Q1137.34 1492.44 1132.52 1492.44 Q1126.81 1492.44 1123.45 1496.33 Q1120.09 1500.18 1120.09 1506.78 L1120.09 1532.42 L1112.59 1532.42 L1112.59 1487.05 L1120.09 1487.05 L1120.09 1494.1 Q1122.64 1489.93 1126.2 1487.94 Q1129.77 1485.96 1134.67 1485.96 Q1139.61 1485.96 1143.06 1488.47 Q1146.54 1490.98 1148.2 1495.76 Z" fill="#000000" fill-rule="evenodd" fill-opacity="1" /><path clip-path="url(#clip870)" d="M1192.52 1469.47 L1199 1469.47 Q1205.07 1479.03 1208.07 1488.19 Q1211.11 1497.34 1211.11 1506.37 Q1211.11 1515.45 1208.07 1524.64 Q1205.07 1533.84 1199 1543.36 L1192.52 1543.36 Q1197.9 1534.08 1200.54 1524.93 Q1203.21 1515.73 1203.21 1506.37 Q1203.21 1497.02 1200.54 1487.9 Q1197.9 1478.79 1192.52 1469.47 Z" fill="#000000" fill-rule="evenodd" fill-opacity="1" /><polyline clip-path="url(#clip873)" style="stroke:#000000; stroke-linecap:round; stroke-linejoin:round; stroke-width:2; stroke-opacity:0.1; fill:none" points="
  209.094,1370.48 1952.76,1370.48 
  "/>
<polyline clip-path="url(#clip873)" style="stroke:#000000; stroke-linecap:round; stroke-linejoin:round; stroke-width:2; stroke-opacity:0.1; fill:none" points="
  209.094,1039.67 1952.76,1039.67 
  "/>
<polyline clip-path="url(#clip873)" style="stroke:#000000; stroke-linecap:round; stroke-linejoin:round; stroke-width:2; stroke-opacity:0.1; fill:none" points="
  209.094,708.86 1952.76,708.86 
  "/>
<polyline clip-path="url(#clip873)" style="stroke:#000000; stroke-linecap:round; stroke-linejoin:round; stroke-width:2; stroke-opacity:0.1; fill:none" points="
  209.094,378.052 1952.76,378.052 
  "/>
<polyline clip-path="url(#clip873)" style="stroke:#000000; stroke-linecap:round; stroke-linejoin:round; stroke-width:2; stroke-opacity:0.1; fill:none" points="
  209.094,47.2441 1952.76,47.2441 
  "/>
<polyline clip-path="url(#clip870)" style="stroke:#000000; stroke-linecap:round; stroke-linejoin:round; stroke-width:4; stroke-opacity:1; fill:none" points="
  209.094,1370.48 209.094,47.2441 
  "/>
<polyline clip-path="url(#clip870)" style="stroke:#000000; stroke-linecap:round; stroke-linejoin:round; stroke-width:4; stroke-opacity:1; fill:none" points="
  209.094,1370.48 227.991,1370.48 
  "/>
<polyline clip-path="url(#clip870)" style="stroke:#000000; stroke-linecap:round; stroke-linejoin:round; stroke-width:4; stroke-opacity:1; fill:none" points="
  209.094,1039.67 227.991,1039.67 
  "/>
<polyline clip-path="url(#clip870)" style="stroke:#000000; stroke-linecap:round; stroke-linejoin:round; stroke-width:4; stroke-opacity:1; fill:none" points="
  209.094,708.86 227.991,708.86 
  "/>
<polyline clip-path="url(#clip870)" style="stroke:#000000; stroke-linecap:round; stroke-linejoin:round; stroke-width:4; stroke-opacity:1; fill:none" points="
  209.094,378.052 227.991,378.052 
  "/>
<polyline clip-path="url(#clip870)" style="stroke:#000000; stroke-linecap:round; stroke-linejoin:round; stroke-width:4; stroke-opacity:1; fill:none" points="
  209.094,47.2441 227.991,47.2441 
  "/>
<path clip-path="url(#clip870)" d="M161.177 1349.17 Q155.761 1349.17 153.017 1354.52 Q150.309 1359.83 150.309 1370.53 Q150.309 1381.19 153.017 1386.53 Q155.761 1391.85 161.177 1391.85 Q166.629 1391.85 169.337 1386.53 Q172.08 1381.19 172.08 1370.53 Q172.08 1359.83 169.337 1354.52 Q166.629 1349.17 161.177 1349.17 M161.177 1343.62 Q169.892 1343.62 174.476 1350.53 Q179.094 1357.4 179.094 1370.53 Q179.094 1383.62 174.476 1390.53 Q169.892 1397.4 161.177 1397.4 Q152.462 1397.4 147.844 1390.53 Q143.261 1383.62 143.261 1370.53 Q143.261 1357.4 147.844 1350.53 Q152.462 1343.62 161.177 1343.62 Z" fill="#000000" fill-rule="evenodd" fill-opacity="1" /><path clip-path="url(#clip870)" d="M154.615 1059.69 L179.094 1059.69 L179.094 1065.59 L146.177 1065.59 L146.177 1059.69 Q150.17 1055.55 157.045 1048.61 Q163.955 1041.63 165.726 1039.62 Q169.094 1035.83 170.413 1033.23 Q171.767 1030.59 171.767 1028.05 Q171.767 1023.92 168.851 1021.32 Q165.969 1018.71 161.316 1018.71 Q158.017 1018.71 154.337 1019.86 Q150.691 1021 146.524 1023.33 L146.524 1016.25 Q150.761 1014.55 154.441 1013.68 Q158.122 1012.81 161.177 1012.81 Q169.233 1012.81 174.024 1016.84 Q178.816 1020.87 178.816 1027.6 Q178.816 1030.8 177.601 1033.68 Q176.42 1036.53 173.26 1040.41 Q172.392 1041.42 167.74 1046.25 Q163.087 1051.04 154.615 1059.69 Z" fill="#000000" fill-rule="evenodd" fill-opacity="1" /><path clip-path="url(#clip870)" d="M164.719 689.051 L147.011 716.725 L164.719 716.725 L164.719 689.051 M162.879 682.94 L171.698 682.94 L171.698 716.725 L179.094 716.725 L179.094 722.558 L171.698 722.558 L171.698 734.78 L164.719 734.78 L164.719 722.558 L141.316 722.558 L141.316 715.787 L162.879 682.94 Z" fill="#000000" fill-rule="evenodd" fill-opacity="1" /><path clip-path="url(#clip870)" d="M161.802 375.257 Q157.08 375.257 154.302 378.486 Q151.559 381.715 151.559 387.34 Q151.559 392.93 154.302 396.194 Q157.08 399.423 161.802 399.423 Q166.524 399.423 169.267 396.194 Q172.045 392.93 172.045 387.34 Q172.045 381.715 169.267 378.486 Q166.524 375.257 161.802 375.257 M175.726 353.278 L175.726 359.667 Q173.087 358.417 170.379 357.757 Q167.705 357.097 165.066 357.097 Q158.122 357.097 154.441 361.785 Q150.795 366.472 150.274 375.951 Q152.323 372.931 155.413 371.333 Q158.504 369.701 162.219 369.701 Q170.031 369.701 174.545 374.458 Q179.094 379.18 179.094 387.34 Q179.094 395.326 174.372 400.153 Q169.649 404.979 161.802 404.979 Q152.809 404.979 148.052 398.104 Q143.295 391.194 143.295 378.104 Q143.295 365.813 149.129 358.521 Q154.962 351.195 164.788 351.195 Q167.427 351.195 170.101 351.715 Q172.809 352.236 175.726 353.278 Z" fill="#000000" fill-rule="evenodd" fill-opacity="1" /><path clip-path="url(#clip870)" d="M161.316 48.5462 Q156.316 48.5462 153.434 51.2198 Q150.587 53.8934 150.587 58.5808 Q150.587 63.2683 153.434 65.9419 Q156.316 68.6155 161.316 68.6155 Q166.316 68.6155 169.198 65.9419 Q172.08 63.2336 172.08 58.5808 Q172.08 53.8934 169.198 51.2198 Q166.351 48.5462 161.316 48.5462 M154.302 45.5601 Q149.788 44.449 147.254 41.3587 Q144.754 38.2684 144.754 33.824 Q144.754 27.6088 149.163 23.9977 Q153.608 20.3866 161.316 20.3866 Q169.059 20.3866 173.469 23.9977 Q177.878 27.6088 177.878 33.824 Q177.878 38.2684 175.344 41.3587 Q172.844 44.449 168.365 45.5601 Q173.434 46.7406 176.247 50.1781 Q179.094 53.6156 179.094 58.5808 Q179.094 66.1155 174.476 70.1433 Q169.892 74.171 161.316 74.171 Q152.74 74.171 148.122 70.1433 Q143.538 66.1155 143.538 58.5808 Q143.538 53.6156 146.386 50.1781 Q149.233 46.7406 154.302 45.5601 M151.733 34.4837 Q151.733 38.5115 154.233 40.7684 Q156.767 43.0254 161.316 43.0254 Q165.83 43.0254 168.365 40.7684 Q170.934 38.5115 170.934 34.4837 Q170.934 30.456 168.365 28.1991 Q165.83 25.9421 161.316 25.9421 Q156.767 25.9421 154.233 28.1991 Q151.733 30.456 151.733 34.4837 Z" fill="#000000" fill-rule="evenodd" fill-opacity="1" /><path clip-path="url(#clip870)" d="M50.9738 796.901 Q51.5476 796.901 52.9003 797.27 L84.9539 805.303 Q92.086 807.066 97.0867 812.804 Q102.087 818.502 102.087 824.978 Q102.087 828.872 99.997 831.373 Q97.9475 833.873 94.7913 833.873 Q92.004 833.873 90.6514 832.397 Q89.3397 830.922 89.3397 829.159 Q89.3397 828.585 89.5037 827.97 Q89.6677 827.356 90.3645 826.7 Q91.0613 826.044 92.25 826.044 Q94.1765 826.044 95.6931 827.725 Q96.3899 828.544 96.5539 829.323 Q96.7178 830.061 96.7178 831.332 Q97.8655 830.84 98.6443 829.938 Q99.4231 829.036 99.71 828.011 Q100.038 826.987 100.12 826.331 Q100.243 825.634 100.243 824.978 Q100.243 819.732 94.9553 815.715 Q93.3567 814.526 91.7581 813.665 Q90.2005 812.763 88.274 812.108 Q86.3885 811.452 85.3638 811.165 Q84.339 810.837 82.0027 810.263 Q85.8147 814.075 85.8147 818.748 Q85.8147 820.715 85.2818 822.478 Q84.7489 824.199 83.6422 825.716 Q82.4945 827.233 80.4861 828.134 Q78.4776 828.995 75.8133 828.995 Q72.985 828.995 69.132 827.889 Q65.279 826.782 58.1879 824.117 Q54.2119 822.683 52.2854 822.683 Q51.3427 822.683 50.7688 822.888 Q50.154 823.093 49.949 823.503 Q49.7031 823.913 49.6621 824.158 Q49.6211 824.363 49.6211 824.773 Q49.6211 827.192 52.0805 829.446 Q54.5398 831.701 60.0324 833.258 Q61.0571 833.586 61.3031 833.791 Q61.549 833.996 61.549 834.611 Q61.508 835.635 60.6882 835.635 Q60.3603 835.635 59.0897 835.267 Q57.778 834.898 55.8515 834.037 Q53.884 833.135 52.1215 831.905 Q50.3179 830.676 49.0473 828.749 Q47.7766 826.782 47.7766 824.527 Q47.7766 821.453 49.7851 819.568 Q51.7526 817.641 54.6628 817.641 Q55.8515 817.641 56.9172 817.969 Q57.942 818.256 60.6882 819.322 Q71.7553 823.626 77.1659 823.626 Q78.4776 823.626 79.5843 823.421 Q80.65 823.175 81.7157 822.642 Q82.7405 822.109 83.3553 821.043 Q83.9292 819.937 83.9292 818.42 Q83.9292 816.493 83.0274 814.69 Q82.0846 812.845 80.814 811.698 Q79.5433 810.509 78.4776 809.812 Q77.3709 809.074 76.797 808.91 L61.713 805.139 L54.9907 803.459 Q51.3427 802.68 50.4409 802.311 Q49.5801 801.819 49.1293 800.959 Q48.6784 800.098 48.6784 799.36 Q48.6784 798.335 49.2932 797.638 Q49.9081 796.901 50.9738 796.901 Z" fill="#000000" fill-rule="evenodd" fill-opacity="1" /><path clip-path="url(#clip870)" d="M21.9209 742.824 Q31.2379 748.253 40.3525 750.886 Q49.467 753.519 58.8246 753.519 Q68.1822 753.519 77.3777 750.886 Q86.5328 748.212 95.8093 742.824 L95.8093 749.306 Q86.2897 755.382 77.0942 758.42 Q67.8986 761.418 58.8246 761.418 Q49.7911 761.418 40.636 758.42 Q31.481 755.423 21.9209 749.306 L21.9209 742.824 Z" fill="#000000" fill-rule="evenodd" fill-opacity="1" /><path clip-path="url(#clip870)" d="M21.8398 728.646 L21.8398 721.152 L59.0676 721.152 L39.5018 698.913 L39.5018 689.393 L60.7285 713.455 L84.8719 688.38 L84.8719 698.102 L62.7135 721.152 L84.8719 721.152 L84.8719 728.646 L21.8398 728.646 Z" fill="#000000" fill-rule="evenodd" fill-opacity="1" /><path clip-path="url(#clip870)" d="M48.2112 644.995 Q43.1881 642.2 40.7981 638.311 Q38.408 634.422 38.408 629.156 Q38.408 622.067 43.3906 618.219 Q48.3328 614.37 57.4878 614.37 L84.8719 614.37 L84.8719 621.864 L57.7308 621.864 Q51.2089 621.864 48.0492 624.173 Q44.8895 626.482 44.8895 631.222 Q44.8895 637.015 48.7378 640.377 Q52.5862 643.739 59.2297 643.739 L84.8719 643.739 L84.8719 651.233 L57.7308 651.233 Q51.1684 651.233 48.0492 653.542 Q44.8895 655.851 44.8895 660.672 Q44.8895 666.384 48.7784 669.746 Q52.6267 673.108 59.2297 673.108 L84.8719 673.108 L84.8719 680.602 L39.5018 680.602 L39.5018 673.108 L46.5504 673.108 Q42.3779 670.556 40.393 666.991 Q38.408 663.427 38.408 658.525 Q38.408 653.583 40.9196 650.14 Q43.4312 646.656 48.2112 644.995 Z" fill="#000000" fill-rule="evenodd" fill-opacity="1" /><path clip-path="url(#clip870)" d="M21.9209 600.678 L21.9209 594.197 Q31.481 588.12 40.636 585.123 Q49.7911 582.084 58.8246 582.084 Q67.8986 582.084 77.0942 585.123 Q86.2897 588.12 95.8093 594.197 L95.8093 600.678 Q86.5328 595.29 77.3777 592.657 Q68.1822 589.984 58.8246 589.984 Q49.467 589.984 40.3525 592.657 Q31.2379 595.29 21.9209 600.678 Z" fill="#000000" fill-rule="evenodd" fill-opacity="1" /><circle clip-path="url(#clip873)" cx="288.351" cy="212.648" r="21.6" fill="#ff0000" fill-rule="evenodd" fill-opacity="1" stroke="#000000" stroke-opacity="1" stroke-width="3.2"/>
<circle clip-path="url(#clip873)" cx="605.381" cy="543.456" r="21.6" fill="#ff0000" fill-rule="evenodd" fill-opacity="1" stroke="#000000" stroke-opacity="1" stroke-width="3.2"/>
<circle clip-path="url(#clip873)" cx="763.895" cy="543.456" r="21.6" fill="#ff0000" fill-rule="evenodd" fill-opacity="1" stroke="#000000" stroke-opacity="1" stroke-width="3.2"/>
<circle clip-path="url(#clip873)" cx="446.866" cy="1122.37" r="21.6" fill="#000000" fill-rule="evenodd" fill-opacity="1" stroke="none"/>
<circle clip-path="url(#clip873)" cx="763.895" cy="212.648" r="21.6" fill="#000000" fill-rule="evenodd" fill-opacity="1" stroke="none"/>
<circle clip-path="url(#clip873)" cx="1080.92" cy="874.264" r="21.6" fill="#000000" fill-rule="evenodd" fill-opacity="1" stroke="none"/>
<circle clip-path="url(#clip873)" cx="1477.21" cy="378.052" r="21.6" fill="#000000" fill-rule="evenodd" fill-opacity="1" stroke="none"/>
<circle clip-path="url(#clip873)" cx="1873.5" cy="543.456" r="21.6" fill="#000000" fill-rule="evenodd" fill-opacity="1" stroke="none"/>
<polyline clip-path="url(#clip873)" style="stroke:#0000ff; stroke-linecap:round; stroke-linejoin:round; stroke-width:8; stroke-opacity:1; fill:none" points="
  288.351,88.5951 1873.5,88.5951 
  "/>
<polyline clip-path="url(#clip873)" style="stroke:#0000ff; stroke-linecap:round; stroke-linejoin:round; stroke-width:8; stroke-opacity:1; fill:none" points="
  1843.5,73.5951 1873.5,88.5951 1843.5,103.595 
  "/>
<polyline clip-path="url(#clip873)" style="stroke:#0000ff; stroke-linecap:round; stroke-linejoin:round; stroke-width:8; stroke-opacity:1; fill:none" points="
  1873.5,88.5951 288.351,88.5951 
  "/>
<path clip-path="url(#clip870)" d="
M1408.67 1326.37 L1894.63 1326.37 L1894.63 1093.09 L1408.67 1093.09  Z
  " fill="#ffffff" fill-rule="evenodd" fill-opacity="1"/>
<polyline clip-path="url(#clip870)" style="stroke:#000000; stroke-linecap:round; stroke-linejoin:round; stroke-width:4; stroke-opacity:1; fill:none" points="
  1408.67,1326.37 1894.63,1326.37 1894.63,1093.09 1408.67,1093.09 1408.67,1326.37 
  "/>
<circle clip-path="url(#clip870)" cx="1486.17" cy="1170.85" r="34.56" fill="#ff0000" fill-rule="evenodd" fill-opacity="1" stroke="#000000" stroke-opacity="1" stroke-width="5.12"/>
<path clip-path="url(#clip870)" d="M1597.03 1146.63 L1597.03 1153.47 Q1593.04 1151.56 1589.5 1150.62 Q1585.96 1149.69 1582.66 1149.69 Q1576.93 1149.69 1573.8 1151.91 Q1570.71 1154.13 1570.71 1158.23 Q1570.71 1161.66 1572.76 1163.43 Q1574.84 1165.17 1580.61 1166.25 L1584.84 1167.12 Q1592.69 1168.61 1596.41 1172.39 Q1600.16 1176.14 1600.16 1182.46 Q1600.16 1190 1595.09 1193.89 Q1590.05 1197.78 1580.3 1197.78 Q1576.62 1197.78 1572.45 1196.94 Q1568.32 1196.11 1563.87 1194.48 L1563.87 1187.25 Q1568.14 1189.65 1572.24 1190.87 Q1576.34 1192.08 1580.3 1192.08 Q1586.3 1192.08 1589.57 1189.72 Q1592.83 1187.36 1592.83 1182.98 Q1592.83 1179.16 1590.47 1177.01 Q1588.14 1174.86 1582.8 1173.78 L1578.53 1172.95 Q1570.68 1171.39 1567.17 1168.05 Q1563.66 1164.72 1563.66 1158.78 Q1563.66 1151.91 1568.49 1147.95 Q1573.35 1143.99 1581.86 1143.99 Q1585.5 1143.99 1589.29 1144.65 Q1593.07 1145.31 1597.03 1146.63 Z" fill="#000000" fill-rule="evenodd" fill-opacity="1" /><path clip-path="url(#clip870)" d="M1625.89 1162.36 Q1620.75 1162.36 1617.76 1166.39 Q1614.78 1170.38 1614.78 1177.36 Q1614.78 1184.34 1617.73 1188.37 Q1620.71 1192.36 1625.89 1192.36 Q1630.99 1192.36 1633.98 1188.33 Q1636.96 1184.3 1636.96 1177.36 Q1636.96 1170.45 1633.98 1166.42 Q1630.99 1162.36 1625.89 1162.36 M1625.89 1156.94 Q1634.22 1156.94 1638.98 1162.36 Q1643.73 1167.78 1643.73 1177.36 Q1643.73 1186.91 1638.98 1192.36 Q1634.22 1197.78 1625.89 1197.78 Q1617.52 1197.78 1612.76 1192.36 Q1608.04 1186.91 1608.04 1177.36 Q1608.04 1167.78 1612.76 1162.36 Q1617.52 1156.94 1625.89 1156.94 Z" fill="#000000" fill-rule="evenodd" fill-opacity="1" /><path clip-path="url(#clip870)" d="M1653.66 1181.42 L1653.66 1157.88 L1660.05 1157.88 L1660.05 1181.18 Q1660.05 1186.7 1662.21 1189.48 Q1664.36 1192.22 1668.66 1192.22 Q1673.84 1192.22 1676.82 1188.92 Q1679.84 1185.62 1679.84 1179.93 L1679.84 1157.88 L1686.23 1157.88 L1686.23 1196.77 L1679.84 1196.77 L1679.84 1190.8 Q1677.52 1194.34 1674.43 1196.07 Q1671.37 1197.78 1667.31 1197.78 Q1660.61 1197.78 1657.14 1193.61 Q1653.66 1189.44 1653.66 1181.42 M1669.74 1156.94 L1669.74 1156.94 Z" fill="#000000" fill-rule="evenodd" fill-opacity="1" /><path clip-path="url(#clip870)" d="M1721.93 1163.85 Q1720.85 1163.23 1719.57 1162.95 Q1718.32 1162.64 1716.79 1162.64 Q1711.37 1162.64 1708.46 1166.18 Q1705.57 1169.68 1705.57 1176.28 L1705.57 1196.77 L1699.15 1196.77 L1699.15 1157.88 L1705.57 1157.88 L1705.57 1163.92 Q1707.59 1160.38 1710.82 1158.68 Q1714.05 1156.94 1718.66 1156.94 Q1719.32 1156.94 1720.12 1157.05 Q1720.92 1157.12 1721.89 1157.29 L1721.93 1163.85 Z" fill="#000000" fill-rule="evenodd" fill-opacity="1" /><path clip-path="url(#clip870)" d="M1755.05 1159.37 L1755.05 1165.34 Q1752.34 1163.85 1749.6 1163.12 Q1746.89 1162.36 1744.11 1162.36 Q1737.9 1162.36 1734.46 1166.32 Q1731.02 1170.24 1731.02 1177.36 Q1731.02 1184.48 1734.46 1188.43 Q1737.9 1192.36 1744.11 1192.36 Q1746.89 1192.36 1749.6 1191.63 Q1752.34 1190.87 1755.05 1189.37 L1755.05 1195.28 Q1752.38 1196.53 1749.5 1197.15 Q1746.65 1197.78 1743.42 1197.78 Q1734.64 1197.78 1729.46 1192.25 Q1724.29 1186.73 1724.29 1177.36 Q1724.29 1167.84 1729.5 1162.39 Q1734.74 1156.94 1743.84 1156.94 Q1746.79 1156.94 1749.6 1157.57 Q1752.41 1158.16 1755.05 1159.37 Z" fill="#000000" fill-rule="evenodd" fill-opacity="1" /><path clip-path="url(#clip870)" d="M1799.43 1175.73 L1799.43 1178.85 L1770.05 1178.85 Q1770.47 1185.45 1774.01 1188.92 Q1777.59 1192.36 1783.94 1192.36 Q1787.62 1192.36 1791.06 1191.46 Q1794.53 1190.55 1797.93 1188.75 L1797.93 1194.79 Q1794.5 1196.25 1790.89 1197.01 Q1787.27 1197.78 1783.56 1197.78 Q1774.25 1197.78 1768.8 1192.36 Q1763.39 1186.94 1763.39 1177.71 Q1763.39 1168.16 1768.52 1162.57 Q1773.7 1156.94 1782.45 1156.94 Q1790.29 1156.94 1794.84 1162.01 Q1799.43 1167.05 1799.43 1175.73 M1793.04 1173.85 Q1792.97 1168.61 1790.09 1165.48 Q1787.24 1162.36 1782.52 1162.36 Q1777.17 1162.36 1773.94 1165.38 Q1770.75 1168.4 1770.26 1173.89 L1793.04 1173.85 Z" fill="#000000" fill-rule="evenodd" fill-opacity="1" /><circle clip-path="url(#clip870)" cx="1486.17" cy="1248.61" r="34.56" fill="#000000" fill-rule="evenodd" fill-opacity="1" stroke="none"/>
<path clip-path="url(#clip870)" d="M1588.25 1250.22 Q1590.5 1250.99 1592.62 1253.49 Q1594.78 1255.99 1596.93 1260.36 L1604.05 1274.53 L1596.51 1274.53 L1589.88 1261.23 Q1587.31 1256.02 1584.88 1254.32 Q1582.48 1252.62 1578.32 1252.62 L1570.68 1252.62 L1570.68 1274.53 L1563.66 1274.53 L1563.66 1222.69 L1579.5 1222.69 Q1588.39 1222.69 1592.76 1226.4 Q1597.14 1230.12 1597.14 1237.62 Q1597.14 1242.51 1594.84 1245.74 Q1592.59 1248.97 1588.25 1250.22 M1570.68 1228.45 L1570.68 1246.85 L1579.5 1246.85 Q1584.57 1246.85 1587.14 1244.53 Q1589.74 1242.17 1589.74 1237.62 Q1589.74 1233.07 1587.14 1230.78 Q1584.57 1228.45 1579.5 1228.45 L1570.68 1228.45 Z" fill="#000000" fill-rule="evenodd" fill-opacity="1" /><path clip-path="url(#clip870)" d="M1642.87 1253.49 L1642.87 1256.61 L1613.49 1256.61 Q1613.91 1263.21 1617.45 1266.68 Q1621.03 1270.12 1627.38 1270.12 Q1631.06 1270.12 1634.5 1269.22 Q1637.97 1268.31 1641.37 1266.51 L1641.37 1272.55 Q1637.93 1274.01 1634.32 1274.77 Q1630.71 1275.54 1627 1275.54 Q1617.69 1275.54 1612.24 1270.12 Q1606.82 1264.7 1606.82 1255.47 Q1606.82 1245.92 1611.96 1240.33 Q1617.14 1234.7 1625.89 1234.7 Q1633.73 1234.7 1638.28 1239.77 Q1642.87 1244.81 1642.87 1253.49 M1636.48 1251.61 Q1636.41 1246.37 1633.52 1243.24 Q1630.68 1240.12 1625.96 1240.12 Q1620.61 1240.12 1617.38 1243.14 Q1614.18 1246.16 1613.7 1251.65 L1636.48 1251.61 Z" fill="#000000" fill-rule="evenodd" fill-opacity="1" /><path clip-path="url(#clip870)" d="M1681.34 1237.13 L1681.34 1243.1 Q1678.63 1241.61 1675.89 1240.88 Q1673.18 1240.12 1670.4 1240.12 Q1664.18 1240.12 1660.75 1244.08 Q1657.31 1248 1657.31 1255.12 Q1657.31 1262.24 1660.75 1266.19 Q1664.18 1270.12 1670.4 1270.12 Q1673.18 1270.12 1675.89 1269.39 Q1678.63 1268.63 1681.34 1267.13 L1681.34 1273.04 Q1678.66 1274.29 1675.78 1274.91 Q1672.93 1275.54 1669.71 1275.54 Q1660.92 1275.54 1655.75 1270.01 Q1650.57 1264.49 1650.57 1255.12 Q1650.57 1245.6 1655.78 1240.15 Q1661.02 1234.7 1670.12 1234.7 Q1673.07 1234.7 1675.89 1235.33 Q1678.7 1235.92 1681.34 1237.13 Z" fill="#000000" fill-rule="evenodd" fill-opacity="1" /><path clip-path="url(#clip870)" d="M1725.71 1253.49 L1725.71 1256.61 L1696.34 1256.61 Q1696.75 1263.21 1700.3 1266.68 Q1703.87 1270.12 1710.23 1270.12 Q1713.91 1270.12 1717.34 1269.22 Q1720.82 1268.31 1724.22 1266.51 L1724.22 1272.55 Q1720.78 1274.01 1717.17 1274.77 Q1713.56 1275.54 1709.84 1275.54 Q1700.54 1275.54 1695.09 1270.12 Q1689.67 1264.7 1689.67 1255.47 Q1689.67 1245.92 1694.81 1240.33 Q1699.98 1234.7 1708.73 1234.7 Q1716.58 1234.7 1721.13 1239.77 Q1725.71 1244.81 1725.71 1253.49 M1719.32 1251.61 Q1719.25 1246.37 1716.37 1243.24 Q1713.52 1240.12 1708.8 1240.12 Q1703.46 1240.12 1700.23 1243.14 Q1697.03 1246.16 1696.55 1251.65 L1719.32 1251.61 Z" fill="#000000" fill-rule="evenodd" fill-opacity="1" /><path clip-path="url(#clip870)" d="M1742.38 1268.69 L1742.38 1289.32 L1735.95 1289.32 L1735.95 1235.64 L1742.38 1235.64 L1742.38 1241.54 Q1744.39 1238.07 1747.45 1236.4 Q1750.54 1234.7 1754.81 1234.7 Q1761.89 1234.7 1766.3 1240.33 Q1770.75 1245.95 1770.75 1255.12 Q1770.75 1264.29 1766.3 1269.91 Q1761.89 1275.54 1754.81 1275.54 Q1750.54 1275.54 1747.45 1273.87 Q1744.39 1272.17 1742.38 1268.69 M1764.11 1255.12 Q1764.11 1248.07 1761.2 1244.08 Q1758.32 1240.05 1753.25 1240.05 Q1748.18 1240.05 1745.26 1244.08 Q1742.38 1248.07 1742.38 1255.12 Q1742.38 1262.17 1745.26 1266.19 Q1748.18 1270.19 1753.25 1270.19 Q1758.32 1270.19 1761.2 1266.19 Q1764.11 1262.17 1764.11 1255.12 Z" fill="#000000" fill-rule="evenodd" fill-opacity="1" /><path clip-path="url(#clip870)" d="M1787.66 1224.6 L1787.66 1235.64 L1800.82 1235.64 L1800.82 1240.6 L1787.66 1240.6 L1787.66 1261.72 Q1787.66 1266.47 1788.94 1267.83 Q1790.26 1269.18 1794.25 1269.18 L1800.82 1269.18 L1800.82 1274.53 L1794.25 1274.53 Q1786.86 1274.53 1784.05 1271.79 Q1781.23 1269.01 1781.23 1261.72 L1781.23 1240.6 L1776.55 1240.6 L1776.55 1235.64 L1781.23 1235.64 L1781.23 1224.6 L1787.66 1224.6 Z" fill="#000000" fill-rule="evenodd" fill-opacity="1" /><path clip-path="url(#clip870)" d="M1824.29 1240.12 Q1819.15 1240.12 1816.16 1244.15 Q1813.18 1248.14 1813.18 1255.12 Q1813.18 1262.1 1816.13 1266.13 Q1819.11 1270.12 1824.29 1270.12 Q1829.39 1270.12 1832.38 1266.09 Q1835.36 1262.06 1835.36 1255.12 Q1835.36 1248.21 1832.38 1244.18 Q1829.39 1240.12 1824.29 1240.12 M1824.29 1234.7 Q1832.62 1234.7 1837.38 1240.12 Q1842.13 1245.54 1842.13 1255.12 Q1842.13 1264.67 1837.38 1270.12 Q1832.62 1275.54 1824.29 1275.54 Q1815.92 1275.54 1811.16 1270.12 Q1806.44 1264.67 1806.44 1255.12 Q1806.44 1245.54 1811.16 1240.12 Q1815.92 1234.7 1824.29 1234.7 Z" fill="#000000" fill-rule="evenodd" fill-opacity="1" /><path clip-path="url(#clip870)" d="M1875.26 1241.61 Q1874.18 1240.99 1872.9 1240.71 Q1871.65 1240.4 1870.12 1240.4 Q1864.7 1240.4 1861.79 1243.94 Q1858.91 1247.44 1858.91 1254.04 L1858.91 1274.53 L1852.48 1274.53 L1852.48 1235.64 L1858.91 1235.64 L1858.91 1241.68 Q1860.92 1238.14 1864.15 1236.44 Q1867.38 1234.7 1872 1234.7 Q1872.66 1234.7 1873.45 1234.81 Q1874.25 1234.88 1875.23 1235.05 L1875.26 1241.61 Z" fill="#000000" fill-rule="evenodd" fill-opacity="1" /><path clip-path="url(#clip870)" d="M276.329 179.708 L285.877 179.708 L285.877 146.751 L275.489 148.834 L275.489 143.51 L285.819 141.427 L291.664 141.427 L291.664 179.708 L301.213 179.708 L301.213 184.627 L276.329 184.627 L276.329 179.708 Z" fill="#ff0000" fill-rule="evenodd" fill-opacity="1" /><path clip-path="url(#clip870)" d="M227.067 238.904 Q223.189 245.559 221.309 252.07 Q219.428 258.58 219.428 265.264 Q219.428 271.948 221.309 278.516 Q223.218 285.056 227.067 291.682 L222.437 291.682 Q218.097 284.882 215.927 278.314 Q213.786 271.745 213.786 265.264 Q213.786 258.812 215.927 252.272 Q218.068 245.733 222.437 238.904 L227.067 238.904 Z" fill="#ff0000" fill-rule="evenodd" fill-opacity="1" /><path clip-path="url(#clip870)" d="M250.649 244.518 Q246.135 244.518 243.849 248.974 Q241.592 253.401 241.592 262.313 Q241.592 271.196 243.849 275.652 Q246.135 280.079 250.649 280.079 Q255.192 280.079 257.448 275.652 Q259.734 271.196 259.734 262.313 Q259.734 253.401 257.448 248.974 Q255.192 244.518 250.649 244.518 M250.649 239.888 Q257.911 239.888 261.731 245.646 Q265.579 251.375 265.579 262.313 Q265.579 273.221 261.731 278.979 Q257.911 284.708 250.649 284.708 Q243.386 284.708 239.538 278.979 Q235.718 273.221 235.718 262.313 Q235.718 251.375 239.538 245.646 Q243.386 239.888 250.649 239.888 Z" fill="#ff0000" fill-rule="evenodd" fill-opacity="1" /><path clip-path="url(#clip870)" d="M276.459 276.52 L282.564 276.52 L282.564 281.497 L277.819 290.756 L274.086 290.756 L276.459 281.497 L276.459 276.52 Z" fill="#ff0000" fill-rule="evenodd" fill-opacity="1" /><path clip-path="url(#clip870)" d="M312.049 240.669 L339.827 240.669 L339.827 243.158 L324.144 283.869 L318.038 283.869 L332.795 245.588 L312.049 245.588 L312.049 240.669 Z" fill="#ff0000" fill-rule="evenodd" fill-opacity="1" /><path clip-path="url(#clip870)" d="M349.635 238.904 L354.265 238.904 Q358.605 245.733 360.747 252.272 Q362.917 258.812 362.917 265.264 Q362.917 271.745 360.747 278.314 Q358.605 284.882 354.265 291.682 L349.635 291.682 Q353.484 285.056 355.365 278.516 Q357.274 271.948 357.274 265.264 Q357.274 258.58 355.365 252.07 Q353.484 245.559 349.635 238.904 Z" fill="#ff0000" fill-rule="evenodd" fill-opacity="1" /><path clip-path="url(#clip870)" d="M598.697 510.516 L619.096 510.516 L619.096 515.435 L591.665 515.435 L591.665 510.516 Q594.993 507.073 600.722 501.286 Q606.48 495.47 607.956 493.791 Q610.763 490.637 611.862 488.467 Q612.991 486.268 612.991 484.156 Q612.991 480.713 610.56 478.543 Q608.158 476.373 604.281 476.373 Q601.532 476.373 598.465 477.327 Q595.427 478.282 591.955 480.221 L591.955 474.318 Q595.485 472.9 598.552 472.177 Q601.619 471.454 604.165 471.454 Q610.878 471.454 614.871 474.81 Q618.864 478.166 618.864 483.78 Q618.864 486.442 617.852 488.844 Q616.868 491.216 614.235 494.457 Q613.511 495.296 609.634 499.318 Q605.757 503.311 598.697 510.516 Z" fill="#ff0000" fill-rule="evenodd" fill-opacity="1" /><path clip-path="url(#clip870)" d="M544.096 569.712 Q540.219 576.367 538.338 582.878 Q536.457 589.388 536.457 596.072 Q536.457 602.756 538.338 609.324 Q540.248 615.864 544.096 622.49 L539.467 622.49 Q535.126 615.69 532.956 609.122 Q530.815 602.553 530.815 596.072 Q530.815 589.619 532.956 583.08 Q535.097 576.541 539.467 569.712 L544.096 569.712 Z" fill="#ff0000" fill-rule="evenodd" fill-opacity="1" /><path clip-path="url(#clip870)" d="M560.213 609.758 L580.612 609.758 L580.612 614.677 L553.182 614.677 L553.182 609.758 Q556.509 606.315 562.238 600.528 Q567.997 594.712 569.472 593.034 Q572.279 589.88 573.378 587.71 Q574.507 585.511 574.507 583.398 Q574.507 579.955 572.076 577.785 Q569.675 575.615 565.797 575.615 Q563.049 575.615 559.982 576.57 Q556.943 577.525 553.471 579.463 L553.471 573.561 Q557.001 572.143 560.068 571.419 Q563.135 570.696 565.682 570.696 Q572.395 570.696 576.388 574.052 Q580.381 577.409 580.381 583.022 Q580.381 585.684 579.368 588.086 Q578.384 590.459 575.751 593.699 Q575.028 594.538 571.15 598.56 Q567.273 602.553 560.213 609.758 Z" fill="#ff0000" fill-rule="evenodd" fill-opacity="1" /><path clip-path="url(#clip870)" d="M593.488 607.328 L599.594 607.328 L599.594 612.305 L594.848 621.564 L591.116 621.564 L593.488 612.305 L593.488 607.328 Z" fill="#ff0000" fill-rule="evenodd" fill-opacity="1" /><path clip-path="url(#clip870)" d="M630.612 571.477 L653.557 571.477 L653.557 576.396 L635.965 576.396 L635.965 586.986 Q637.238 586.552 638.511 586.35 Q639.784 586.118 641.057 586.118 Q648.291 586.118 652.516 590.082 Q656.74 594.047 656.74 600.817 Q656.74 607.791 652.4 611.668 Q648.06 615.516 640.16 615.516 Q637.441 615.516 634.605 615.053 Q631.798 614.59 628.789 613.664 L628.789 607.791 Q631.393 609.208 634.171 609.903 Q636.949 610.597 640.045 610.597 Q645.051 610.597 647.973 607.964 Q650.895 605.331 650.895 600.817 Q650.895 596.303 647.973 593.67 Q645.051 591.037 640.045 591.037 Q637.701 591.037 635.357 591.558 Q633.042 592.079 630.612 593.178 L630.612 571.477 Z" fill="#ff0000" fill-rule="evenodd" fill-opacity="1" /><path clip-path="url(#clip870)" d="M666.665 569.712 L671.295 569.712 Q675.635 576.541 677.776 583.08 Q679.946 589.619 679.946 596.072 Q679.946 602.553 677.776 609.122 Q675.635 615.69 671.295 622.49 L666.665 622.49 Q670.513 615.864 672.394 609.324 Q674.304 602.756 674.304 596.072 Q674.304 589.388 672.394 582.878 Q670.513 576.367 666.665 569.712 Z" fill="#ff0000" fill-rule="evenodd" fill-opacity="1" /><path clip-path="url(#clip870)" d="M769.205 492.142 Q773.4 493.039 775.744 495.875 Q778.117 498.71 778.117 502.877 Q778.117 509.272 773.719 512.773 Q769.321 516.274 761.219 516.274 Q758.499 516.274 755.605 515.724 Q752.741 515.203 749.674 514.133 L749.674 508.49 Q752.104 509.908 754.998 510.632 Q757.891 511.355 761.045 511.355 Q766.543 511.355 769.407 509.185 Q772.301 507.015 772.301 502.877 Q772.301 499.058 769.61 496.916 Q766.948 494.746 762.174 494.746 L757.139 494.746 L757.139 489.943 L762.405 489.943 Q766.716 489.943 769.002 488.236 Q771.288 486.5 771.288 483.259 Q771.288 479.932 768.916 478.166 Q766.572 476.373 762.174 476.373 Q759.772 476.373 757.023 476.893 Q754.274 477.414 750.976 478.514 L750.976 473.305 Q754.303 472.379 757.197 471.917 Q760.119 471.454 762.695 471.454 Q769.35 471.454 773.227 474.492 Q777.104 477.501 777.104 482.651 Q777.104 486.239 775.05 488.728 Q772.995 491.187 769.205 492.142 Z" fill="#ff0000" fill-rule="evenodd" fill-opacity="1" /><path clip-path="url(#clip870)" d="M702.611 569.712 Q698.734 576.367 696.853 582.878 Q694.972 589.388 694.972 596.072 Q694.972 602.756 696.853 609.324 Q698.763 615.864 702.611 622.49 L697.981 622.49 Q693.641 615.69 691.471 609.122 Q689.33 602.553 689.33 596.072 Q689.33 589.619 691.471 583.08 Q693.612 576.541 697.981 569.712 L702.611 569.712 Z" fill="#ff0000" fill-rule="evenodd" fill-opacity="1" /><path clip-path="url(#clip870)" d="M731.401 591.384 Q735.597 592.281 737.941 595.117 Q740.313 597.953 740.313 602.119 Q740.313 608.514 735.915 612.015 Q731.517 615.516 723.415 615.516 Q720.695 615.516 717.802 614.967 Q714.937 614.446 711.87 613.375 L711.87 607.733 Q714.301 609.151 717.194 609.874 Q720.088 610.597 723.242 610.597 Q728.739 610.597 731.604 608.427 Q734.497 606.257 734.497 602.119 Q734.497 598.3 731.806 596.159 Q729.144 593.989 724.37 593.989 L719.335 593.989 L719.335 589.185 L724.602 589.185 Q728.913 589.185 731.199 587.478 Q733.485 585.742 733.485 582.501 Q733.485 579.174 731.112 577.409 Q728.768 575.615 724.37 575.615 Q721.968 575.615 719.22 576.136 Q716.471 576.657 713.172 577.756 L713.172 572.548 Q716.5 571.622 719.393 571.159 Q722.316 570.696 724.891 570.696 Q731.546 570.696 735.423 573.734 Q739.301 576.743 739.301 581.894 Q739.301 585.482 737.246 587.97 Q735.192 590.43 731.401 591.384 Z" fill="#ff0000" fill-rule="evenodd" fill-opacity="1" /><path clip-path="url(#clip870)" d="M752.003 607.328 L758.108 607.328 L758.108 612.305 L753.363 621.564 L749.63 621.564 L752.003 612.305 L752.003 607.328 Z" fill="#ff0000" fill-rule="evenodd" fill-opacity="1" /><path clip-path="url(#clip870)" d="M789.127 571.477 L812.072 571.477 L812.072 576.396 L794.48 576.396 L794.48 586.986 Q795.753 586.552 797.026 586.35 Q798.299 586.118 799.572 586.118 Q806.806 586.118 811.03 590.082 Q815.255 594.047 815.255 600.817 Q815.255 607.791 810.915 611.668 Q806.575 615.516 798.675 615.516 Q795.955 615.516 793.12 615.053 Q790.313 614.59 787.304 613.664 L787.304 607.791 Q789.908 609.208 792.686 609.903 Q795.463 610.597 798.559 610.597 Q803.565 610.597 806.488 607.964 Q809.41 605.331 809.41 600.817 Q809.41 596.303 806.488 593.67 Q803.565 591.037 798.559 591.037 Q796.216 591.037 793.872 591.558 Q791.557 592.079 789.127 593.178 L789.127 571.477 Z" fill="#ff0000" fill-rule="evenodd" fill-opacity="1" /><path clip-path="url(#clip870)" d="M825.18 569.712 L829.809 569.712 Q834.15 576.541 836.291 583.08 Q838.461 589.619 838.461 596.072 Q838.461 602.553 836.291 609.122 Q834.15 615.69 829.809 622.49 L825.18 622.49 Q829.028 615.864 830.909 609.324 Q832.819 602.756 832.819 596.072 Q832.819 589.388 830.909 582.878 Q829.028 576.367 825.18 569.712 Z" fill="#ff0000" fill-rule="evenodd" fill-opacity="1" /><path clip-path="url(#clip870)" d="M434.843 1089.43 L444.392 1089.43 L444.392 1056.47 L434.004 1058.56 L434.004 1053.23 L444.334 1051.15 L450.179 1051.15 L450.179 1089.43 L459.727 1089.43 L459.727 1094.35 L434.843 1094.35 L434.843 1089.43 Z" fill="#000000" fill-rule="evenodd" fill-opacity="1" /><path clip-path="url(#clip870)" d="M357.312 1148.63 Q353.435 1155.28 351.554 1161.79 Q349.673 1168.3 349.673 1174.99 Q349.673 1181.67 351.554 1188.24 Q353.464 1194.78 357.312 1201.4 L352.682 1201.4 Q348.342 1194.6 346.172 1188.04 Q344.031 1181.47 344.031 1174.99 Q344.031 1168.53 346.172 1161.99 Q348.313 1155.45 352.682 1148.63 L357.312 1148.63 Z" fill="#000000" fill-rule="evenodd" fill-opacity="1" /><path clip-path="url(#clip870)" d="M369.407 1188.67 L378.955 1188.67 L378.955 1155.72 L368.568 1157.8 L368.568 1152.47 L378.897 1150.39 L384.742 1150.39 L384.742 1188.67 L394.291 1188.67 L394.291 1193.59 L369.407 1193.59 L369.407 1188.67 Z" fill="#000000" fill-rule="evenodd" fill-opacity="1" /><path clip-path="url(#clip870)" d="M406.704 1186.24 L412.809 1186.24 L412.809 1191.22 L408.064 1200.48 L404.331 1200.48 L406.704 1191.22 L406.704 1186.24 Z" fill="#000000" fill-rule="evenodd" fill-opacity="1" /><path clip-path="url(#clip870)" d="M444.783 1188.67 L454.331 1188.67 L454.331 1155.72 L443.943 1157.8 L443.943 1152.47 L454.273 1150.39 L460.118 1150.39 L460.118 1188.67 L469.667 1188.67 L469.667 1193.59 L444.783 1193.59 L444.783 1188.67 Z" fill="#000000" fill-rule="evenodd" fill-opacity="1" /><path clip-path="url(#clip870)" d="M481.472 1186.24 L487.577 1186.24 L487.577 1193.59 L481.472 1193.59 L481.472 1186.24 Z" fill="#000000" fill-rule="evenodd" fill-opacity="1" /><path clip-path="url(#clip870)" d="M500.367 1150.39 L523.312 1150.39 L523.312 1155.31 L505.72 1155.31 L505.72 1165.9 Q506.993 1165.47 508.266 1165.26 Q509.539 1165.03 510.812 1165.03 Q518.046 1165.03 522.271 1169 Q526.495 1172.96 526.495 1179.73 Q526.495 1186.7 522.155 1190.58 Q517.815 1194.43 509.915 1194.43 Q507.195 1194.43 504.36 1193.97 Q501.553 1193.5 498.544 1192.58 L498.544 1186.7 Q501.148 1188.12 503.926 1188.82 Q506.703 1189.51 509.8 1189.51 Q514.805 1189.51 517.728 1186.88 Q520.65 1184.25 520.65 1179.73 Q520.65 1175.22 517.728 1172.58 Q514.805 1169.95 509.8 1169.95 Q507.456 1169.95 505.112 1170.47 Q502.797 1170.99 500.367 1172.09 L500.367 1150.39 Z" fill="#000000" fill-rule="evenodd" fill-opacity="1" /><path clip-path="url(#clip870)" d="M536.42 1148.63 L541.049 1148.63 Q545.39 1155.45 547.531 1161.99 Q549.701 1168.53 549.701 1174.99 Q549.701 1181.47 547.531 1188.04 Q545.39 1194.6 541.049 1201.4 L536.42 1201.4 Q540.268 1194.78 542.149 1188.24 Q544.059 1181.67 544.059 1174.99 Q544.059 1168.3 542.149 1161.79 Q540.268 1155.28 536.42 1148.63 Z" fill="#000000" fill-rule="evenodd" fill-opacity="1" /><path clip-path="url(#clip870)" d="M757.211 179.708 L777.611 179.708 L777.611 184.627 L750.18 184.627 L750.18 179.708 Q753.508 176.265 759.237 170.478 Q764.995 164.662 766.471 162.983 Q769.277 159.83 770.377 157.659 Q771.505 155.46 771.505 153.348 Q771.505 149.905 769.075 147.735 Q766.673 145.565 762.796 145.565 Q760.047 145.565 756.98 146.519 Q753.942 147.474 750.469 149.413 L750.469 143.51 Q754 142.092 757.067 141.369 Q760.134 140.646 762.68 140.646 Q769.393 140.646 773.386 144.002 Q777.379 147.359 777.379 152.972 Q777.379 155.634 776.366 158.036 Q775.383 160.408 772.749 163.649 Q772.026 164.488 768.149 168.51 Q764.271 172.503 757.211 179.708 Z" fill="#000000" fill-rule="evenodd" fill-opacity="1" /><path clip-path="url(#clip870)" d="M702.611 238.904 Q698.734 245.559 696.853 252.07 Q694.972 258.58 694.972 265.264 Q694.972 271.948 696.853 278.516 Q698.763 285.056 702.611 291.682 L697.981 291.682 Q693.641 284.882 691.471 278.314 Q689.33 271.745 689.33 265.264 Q689.33 258.812 691.471 252.272 Q693.612 245.733 697.981 238.904 L702.611 238.904 Z" fill="#000000" fill-rule="evenodd" fill-opacity="1" /><path clip-path="url(#clip870)" d="M731.401 260.577 Q735.597 261.474 737.941 264.309 Q740.313 267.145 740.313 271.311 Q740.313 277.706 735.915 281.207 Q731.517 284.708 723.415 284.708 Q720.695 284.708 717.802 284.159 Q714.937 283.638 711.87 282.567 L711.87 276.925 Q714.301 278.343 717.194 279.066 Q720.088 279.789 723.242 279.789 Q728.739 279.789 731.604 277.619 Q734.497 275.449 734.497 271.311 Q734.497 267.492 731.806 265.351 Q729.144 263.181 724.37 263.181 L719.335 263.181 L719.335 258.377 L724.602 258.377 Q728.913 258.377 731.199 256.67 Q733.485 254.934 733.485 251.694 Q733.485 248.366 731.112 246.601 Q728.768 244.807 724.37 244.807 Q721.968 244.807 719.22 245.328 Q716.471 245.849 713.172 246.948 L713.172 241.74 Q716.5 240.814 719.393 240.351 Q722.316 239.888 724.891 239.888 Q731.546 239.888 735.423 242.926 Q739.301 245.935 739.301 251.086 Q739.301 254.674 737.246 257.162 Q735.192 259.622 731.401 260.577 Z" fill="#000000" fill-rule="evenodd" fill-opacity="1" /><path clip-path="url(#clip870)" d="M752.003 276.52 L758.108 276.52 L758.108 281.497 L753.363 290.756 L749.63 290.756 L752.003 281.497 L752.003 276.52 Z" fill="#000000" fill-rule="evenodd" fill-opacity="1" /><path clip-path="url(#clip870)" d="M787.593 240.669 L815.371 240.669 L815.371 243.158 L799.688 283.869 L793.583 283.869 L808.34 245.588 L787.593 245.588 L787.593 240.669 Z" fill="#000000" fill-rule="evenodd" fill-opacity="1" /><path clip-path="url(#clip870)" d="M825.18 238.904 L829.809 238.904 Q834.15 245.733 836.291 252.272 Q838.461 258.812 838.461 265.264 Q838.461 271.745 836.291 278.314 Q834.15 284.882 829.809 291.682 L825.18 291.682 Q829.028 285.056 830.909 278.516 Q832.819 271.948 832.819 265.264 Q832.819 258.58 830.909 252.07 Q829.028 245.559 825.18 238.904 Z" fill="#000000" fill-rule="evenodd" fill-opacity="1" /><path clip-path="url(#clip870)" d="M1086.23 822.95 Q1090.43 823.847 1092.77 826.683 Q1095.15 829.518 1095.15 833.685 Q1095.15 840.08 1090.75 843.581 Q1086.35 847.082 1078.25 847.082 Q1075.53 847.082 1072.63 846.532 Q1069.77 846.011 1066.7 844.941 L1066.7 839.298 Q1069.13 840.716 1072.03 841.44 Q1074.92 842.163 1078.07 842.163 Q1083.57 842.163 1086.44 839.993 Q1089.33 837.823 1089.33 833.685 Q1089.33 829.866 1086.64 827.724 Q1083.98 825.554 1079.2 825.554 L1074.17 825.554 L1074.17 820.751 L1079.43 820.751 Q1083.75 820.751 1086.03 819.044 Q1088.32 817.308 1088.32 814.067 Q1088.32 810.739 1085.95 808.974 Q1083.6 807.18 1079.2 807.18 Q1076.8 807.18 1074.05 807.701 Q1071.3 808.222 1068.01 809.322 L1068.01 804.113 Q1071.33 803.187 1074.23 802.724 Q1077.15 802.262 1079.72 802.262 Q1086.38 802.262 1090.26 805.3 Q1094.13 808.309 1094.13 813.459 Q1094.13 817.047 1092.08 819.536 Q1090.02 821.995 1086.23 822.95 Z" fill="#000000" fill-rule="evenodd" fill-opacity="1" /><path clip-path="url(#clip870)" d="M1019.64 900.52 Q1015.76 907.175 1013.88 913.686 Q1012 920.196 1012 926.88 Q1012 933.564 1013.88 940.132 Q1015.79 946.671 1019.64 953.298 L1015.01 953.298 Q1010.67 946.498 1008.5 939.93 Q1006.36 933.361 1006.36 926.88 Q1006.36 920.427 1008.5 913.888 Q1010.64 907.349 1015.01 900.52 L1019.64 900.52 Z" fill="#000000" fill-rule="evenodd" fill-opacity="1" /><path clip-path="url(#clip870)" d="M1030.78 902.285 L1053.73 902.285 L1053.73 907.204 L1036.13 907.204 L1036.13 917.794 Q1037.41 917.36 1038.68 917.158 Q1039.95 916.926 1041.23 916.926 Q1048.46 916.926 1052.68 920.89 Q1056.91 924.854 1056.91 931.625 Q1056.91 938.599 1052.57 942.476 Q1048.23 946.324 1040.33 946.324 Q1037.61 946.324 1034.77 945.861 Q1031.97 945.398 1028.96 944.472 L1028.96 938.599 Q1031.56 940.016 1034.34 940.711 Q1037.12 941.405 1040.21 941.405 Q1045.22 941.405 1048.14 938.772 Q1051.06 936.139 1051.06 931.625 Q1051.06 927.111 1048.14 924.478 Q1045.22 921.845 1040.21 921.845 Q1037.87 921.845 1035.53 922.366 Q1033.21 922.887 1030.78 923.986 L1030.78 902.285 Z" fill="#000000" fill-rule="evenodd" fill-opacity="1" /><path clip-path="url(#clip870)" d="M1069.03 938.136 L1075.14 938.136 L1075.14 943.112 L1070.39 952.372 L1066.66 952.372 L1069.03 943.112 L1069.03 938.136 Z" fill="#000000" fill-rule="evenodd" fill-opacity="1" /><path clip-path="url(#clip870)" d="M1123.81 922.192 Q1128 923.089 1130.35 925.925 Q1132.72 928.761 1132.72 932.927 Q1132.72 939.322 1128.32 942.823 Q1123.92 946.324 1115.82 946.324 Q1113.1 946.324 1110.21 945.774 Q1107.34 945.254 1104.28 944.183 L1104.28 938.541 Q1106.71 939.959 1109.6 940.682 Q1112.49 941.405 1115.65 941.405 Q1121.14 941.405 1124.01 939.235 Q1126.9 937.065 1126.9 932.927 Q1126.9 929.108 1124.21 926.967 Q1121.55 924.797 1116.78 924.797 L1111.74 924.797 L1111.74 919.993 L1117.01 919.993 Q1121.32 919.993 1123.6 918.286 Q1125.89 916.55 1125.89 913.309 Q1125.89 909.982 1123.52 908.217 Q1121.17 906.423 1116.78 906.423 Q1114.37 906.423 1111.62 906.944 Q1108.88 907.464 1105.58 908.564 L1105.58 903.356 Q1108.9 902.43 1111.8 901.967 Q1114.72 901.504 1117.3 901.504 Q1123.95 901.504 1127.83 904.542 Q1131.71 907.551 1131.71 912.702 Q1131.71 916.29 1129.65 918.778 Q1127.6 921.238 1123.81 922.192 Z" fill="#000000" fill-rule="evenodd" fill-opacity="1" /><path clip-path="url(#clip870)" d="M1142.21 900.52 L1146.84 900.52 Q1151.18 907.349 1153.32 913.888 Q1155.49 920.427 1155.49 926.88 Q1155.49 933.361 1153.32 939.93 Q1151.18 946.498 1146.84 953.298 L1142.21 953.298 Q1146.06 946.671 1147.94 940.132 Q1149.85 933.564 1149.85 926.88 Q1149.85 920.196 1147.94 913.686 Q1146.06 907.175 1142.21 900.52 Z" fill="#000000" fill-rule="evenodd" fill-opacity="1" /><path clip-path="url(#clip870)" d="M1480.97 311.923 L1466.22 334.985 L1480.97 334.985 L1480.97 311.923 M1479.44 306.831 L1486.79 306.831 L1486.79 334.985 L1492.95 334.985 L1492.95 339.846 L1486.79 339.846 L1486.79 350.031 L1480.97 350.031 L1480.97 339.846 L1461.47 339.846 L1461.47 334.203 L1479.44 306.831 Z" fill="#000000" fill-rule="evenodd" fill-opacity="1" /><path clip-path="url(#clip870)" d="M1387.66 404.308 Q1383.78 410.963 1381.9 417.474 Q1380.02 423.984 1380.02 430.668 Q1380.02 437.352 1381.9 443.92 Q1383.81 450.46 1387.66 457.086 L1383.03 457.086 Q1378.69 450.286 1376.52 443.718 Q1374.38 437.149 1374.38 430.668 Q1374.38 424.215 1376.52 417.676 Q1378.66 411.137 1383.03 404.308 L1387.66 404.308 Z" fill="#000000" fill-rule="evenodd" fill-opacity="1" /><path clip-path="url(#clip870)" d="M1397.26 406.073 L1425.04 406.073 L1425.04 408.562 L1409.36 449.273 L1403.25 449.273 L1418.01 410.992 L1397.26 410.992 L1397.26 406.073 Z" fill="#000000" fill-rule="evenodd" fill-opacity="1" /><path clip-path="url(#clip870)" d="M1436.44 441.924 L1442.55 441.924 L1442.55 449.273 L1436.44 449.273 L1436.44 441.924 Z" fill="#000000" fill-rule="evenodd" fill-opacity="1" /><path clip-path="url(#clip870)" d="M1455.34 406.073 L1478.28 406.073 L1478.28 410.992 L1460.69 410.992 L1460.69 421.582 Q1461.96 421.148 1463.24 420.946 Q1464.51 420.714 1465.78 420.714 Q1473.02 420.714 1477.24 424.678 Q1481.47 428.643 1481.47 435.413 Q1481.47 442.387 1477.12 446.264 Q1472.78 450.112 1464.89 450.112 Q1462.17 450.112 1459.33 449.649 Q1456.52 449.186 1453.51 448.26 L1453.51 442.387 Q1456.12 443.805 1458.9 444.499 Q1461.67 445.193 1464.77 445.193 Q1469.78 445.193 1472.7 442.56 Q1475.62 439.927 1475.62 435.413 Q1475.62 430.899 1472.7 428.266 Q1469.78 425.633 1464.77 425.633 Q1462.43 425.633 1460.08 426.154 Q1457.77 426.675 1455.34 427.774 L1455.34 406.073 Z" fill="#000000" fill-rule="evenodd" fill-opacity="1" /><path clip-path="url(#clip870)" d="M1493.59 441.924 L1499.69 441.924 L1499.69 446.901 L1494.95 456.16 L1491.22 456.16 L1493.59 446.901 L1493.59 441.924 Z" fill="#000000" fill-rule="evenodd" fill-opacity="1" /><path clip-path="url(#clip870)" d="M1543.88 425.344 Q1539.94 425.344 1537.63 428.035 Q1535.34 430.726 1535.34 435.413 Q1535.34 440.072 1537.63 442.792 Q1539.94 445.483 1543.88 445.483 Q1547.81 445.483 1550.1 442.792 Q1552.41 440.072 1552.41 435.413 Q1552.41 430.726 1550.1 428.035 Q1547.81 425.344 1543.88 425.344 M1555.48 407.028 L1555.48 412.352 Q1553.28 411.31 1551.02 410.761 Q1548.8 410.211 1546.6 410.211 Q1540.81 410.211 1537.74 414.117 Q1534.71 418.023 1534.27 425.923 Q1535.98 423.405 1538.55 422.074 Q1541.13 420.714 1544.23 420.714 Q1550.74 420.714 1554.5 424.678 Q1558.29 428.614 1558.29 435.413 Q1558.29 442.068 1554.35 446.09 Q1550.42 450.112 1543.88 450.112 Q1536.38 450.112 1532.42 444.383 Q1528.46 438.625 1528.46 427.717 Q1528.46 417.474 1533.32 411.397 Q1538.18 405.292 1546.37 405.292 Q1548.57 405.292 1550.79 405.726 Q1553.05 406.16 1555.48 407.028 Z" fill="#000000" fill-rule="evenodd" fill-opacity="1" /><path clip-path="url(#clip870)" d="M1566.77 404.308 L1571.4 404.308 Q1575.74 411.137 1577.88 417.676 Q1580.05 424.215 1580.05 430.668 Q1580.05 437.149 1577.88 443.718 Q1575.74 450.286 1571.4 457.086 L1566.77 457.086 Q1570.61 450.46 1572.49 443.92 Q1574.4 437.352 1574.4 430.668 Q1574.4 423.984 1572.49 417.474 Q1570.61 410.963 1566.77 404.308 Z" fill="#000000" fill-rule="evenodd" fill-opacity="1" /><path clip-path="url(#clip870)" d="M1861.35 472.235 L1884.29 472.235 L1884.29 477.154 L1866.7 477.154 L1866.7 487.744 Q1867.97 487.31 1869.25 487.107 Q1870.52 486.876 1871.79 486.876 Q1879.03 486.876 1883.25 490.84 Q1887.47 494.804 1887.47 501.575 Q1887.47 508.548 1883.13 512.426 Q1878.79 516.274 1870.89 516.274 Q1868.17 516.274 1865.34 515.811 Q1862.53 515.348 1859.52 514.422 L1859.52 508.548 Q1862.13 509.966 1864.9 510.661 Q1867.68 511.355 1870.78 511.355 Q1875.78 511.355 1878.71 508.722 Q1881.63 506.089 1881.63 501.575 Q1881.63 497.061 1878.71 494.428 Q1875.78 491.795 1870.78 491.795 Q1868.43 491.795 1866.09 492.316 Q1863.78 492.837 1861.35 493.936 L1861.35 472.235 Z" fill="#000000" fill-rule="evenodd" fill-opacity="1" /><path clip-path="url(#clip870)" d="M1793.36 569.712 Q1789.49 576.367 1787.6 582.878 Q1785.72 589.388 1785.72 596.072 Q1785.72 602.756 1787.6 609.324 Q1789.51 615.864 1793.36 622.49 L1788.73 622.49 Q1784.39 615.69 1782.22 609.122 Q1780.08 602.553 1780.08 596.072 Q1780.08 589.619 1782.22 583.08 Q1784.36 576.541 1788.73 569.712 L1793.36 569.712 Z" fill="#000000" fill-rule="evenodd" fill-opacity="1" /><path clip-path="url(#clip870)" d="M1805.46 609.758 L1815.01 609.758 L1815.01 576.801 L1804.62 578.885 L1804.62 573.561 L1814.95 571.477 L1820.79 571.477 L1820.79 609.758 L1830.34 609.758 L1830.34 614.677 L1805.46 614.677 L1805.46 609.758 Z" fill="#000000" fill-rule="evenodd" fill-opacity="1" /><path clip-path="url(#clip870)" d="M1854.65 575.326 Q1850.13 575.326 1847.85 579.782 Q1845.59 584.209 1845.59 593.121 Q1845.59 602.004 1847.85 606.46 Q1850.13 610.887 1854.65 610.887 Q1859.19 610.887 1861.45 606.46 Q1863.73 602.004 1863.73 593.121 Q1863.73 584.209 1861.45 579.782 Q1859.19 575.326 1854.65 575.326 M1854.65 570.696 Q1861.91 570.696 1865.73 576.454 Q1869.58 582.183 1869.58 593.121 Q1869.58 604.029 1865.73 609.787 Q1861.91 615.516 1854.65 615.516 Q1847.38 615.516 1843.54 609.787 Q1839.72 604.029 1839.72 593.121 Q1839.72 582.183 1843.54 576.454 Q1847.38 570.696 1854.65 570.696 Z" fill="#000000" fill-rule="evenodd" fill-opacity="1" /><path clip-path="url(#clip870)" d="M1880.46 607.328 L1886.56 607.328 L1886.56 612.305 L1881.82 621.564 L1878.08 621.564 L1880.46 612.305 L1880.46 607.328 Z" fill="#000000" fill-rule="evenodd" fill-opacity="1" /><path clip-path="url(#clip870)" d="M1917.58 571.477 L1940.53 571.477 L1940.53 576.396 L1922.93 576.396 L1922.93 586.986 Q1924.21 586.552 1925.48 586.35 Q1926.75 586.118 1928.03 586.118 Q1935.26 586.118 1939.48 590.082 Q1943.71 594.047 1943.71 600.817 Q1943.71 607.791 1939.37 611.668 Q1935.03 615.516 1927.13 615.516 Q1924.41 615.516 1921.57 615.053 Q1918.77 614.59 1915.76 613.664 L1915.76 607.791 Q1918.36 609.208 1921.14 609.903 Q1923.92 610.597 1927.01 610.597 Q1932.02 610.597 1934.94 607.964 Q1937.86 605.331 1937.86 600.817 Q1937.86 596.303 1934.94 593.67 Q1932.02 591.037 1927.01 591.037 Q1924.67 591.037 1922.33 591.558 Q1920.01 592.079 1917.58 593.178 L1917.58 571.477 Z" fill="#000000" fill-rule="evenodd" fill-opacity="1" /><path clip-path="url(#clip870)" d="M1953.63 569.712 L1958.26 569.712 Q1962.6 576.541 1964.75 583.08 Q1966.92 589.619 1966.92 596.072 Q1966.92 602.553 1964.75 609.122 Q1962.6 615.69 1958.26 622.49 L1953.63 622.49 Q1957.48 615.864 1959.36 609.324 Q1961.27 602.756 1961.27 596.072 Q1961.27 589.388 1959.36 582.878 Q1957.48 576.367 1953.63 569.712 Z" fill="#000000" fill-rule="evenodd" fill-opacity="1" /><path clip-path="url(#clip870)" d="M1080.92 21.3241 L1088.01 21.3241 L1098.91 65.1433 L1109.78 21.3241 L1117.66 21.3241 L1128.56 65.1433 L1139.43 21.3241 L1146.55 21.3241 L1133.53 73.1641 L1124.71 73.1641 L1113.77 28.1643 L1102.73 73.1641 L1093.91 73.1641 L1080.92 21.3241 Z" fill="#0000ff" fill-rule="evenodd" fill-opacity="1" /><path clip-path="url(#clip870)" d="M1154.01 34.2754 L1160.4 34.2754 L1160.4 73.1641 L1154.01 73.1641 L1154.01 34.2754 M1154.01 19.1366 L1160.4 19.1366 L1160.4 27.2268 L1154.01 27.2268 L1154.01 19.1366 Z" fill="#0000ff" fill-rule="evenodd" fill-opacity="1" /><path clip-path="url(#clip870)" d="M1206.1 49.692 L1206.1 73.1641 L1199.71 73.1641 L1199.71 49.9003 Q1199.71 44.3795 1197.56 41.6365 Q1195.4 38.8934 1191.1 38.8934 Q1185.92 38.8934 1182.94 42.192 Q1179.95 45.4906 1179.95 51.185 L1179.95 73.1641 L1173.53 73.1641 L1173.53 34.2754 L1179.95 34.2754 L1179.95 40.317 Q1182.24 36.8101 1185.33 35.074 Q1188.46 33.3379 1192.52 33.3379 Q1199.22 33.3379 1202.66 37.5046 Q1206.1 41.6365 1206.1 49.692 Z" fill="#0000ff" fill-rule="evenodd" fill-opacity="1" /><path clip-path="url(#clip870)" d="M1244.43 40.1782 L1244.43 19.1366 L1250.82 19.1366 L1250.82 73.1641 L1244.43 73.1641 L1244.43 67.3308 Q1242.42 70.803 1239.33 72.5044 Q1236.27 74.171 1231.97 74.171 Q1224.92 74.171 1220.47 68.5461 Q1216.06 62.9211 1216.06 53.7545 Q1216.06 44.5879 1220.47 38.9629 Q1224.92 33.3379 1231.97 33.3379 Q1236.27 33.3379 1239.33 35.0393 Q1242.42 36.706 1244.43 40.1782 M1222.66 53.7545 Q1222.66 60.803 1225.54 64.8308 Q1228.46 68.8238 1233.53 68.8238 Q1238.6 68.8238 1241.51 64.8308 Q1244.43 60.803 1244.43 53.7545 Q1244.43 46.7059 1241.51 42.7129 Q1238.6 38.6851 1233.53 38.6851 Q1228.46 38.6851 1225.54 42.7129 Q1222.66 46.7059 1222.66 53.7545 Z" fill="#0000ff" fill-rule="evenodd" fill-opacity="1" /></svg>
