<?xml version="1.0" encoding="UTF-8" standalone="no"?>
<!-- Created with Inkscape (http://www.inkscape.org/) -->

<svg
   id="svg6653"
   version="1.1"
   viewBox="0 0 237.25467 93.541138"
   height="93.541138mm"
   width="237.25467mm"
   sodipodi:docname="reservoir-mass-balance.svg"
   inkscape:version="1.2.1 (9c6d41e4, 2022-07-14)"
   xmlns:inkscape="http://www.inkscape.org/namespaces/inkscape"
   xmlns:sodipodi="http://sodipodi.sourceforge.net/DTD/sodipodi-0.dtd"
   xmlns="http://www.w3.org/2000/svg"
   xmlns:svg="http://www.w3.org/2000/svg"
   xmlns:ns2="http://www.iki.fi/pav/software/textext/">
  <sodipodi:namedview
     id="namedview6655"
     pagecolor="#ffffff"
     bordercolor="#000000"
     borderopacity="0.25"
     inkscape:showpageshadow="2"
     inkscape:pageopacity="0.0"
     inkscape:pagecheckerboard="0"
     inkscape:deskcolor="#d1d1d1"
     inkscape:document-units="mm"
     showgrid="false"
     inkscape:zoom="0.41799165"
     inkscape:cx="316.99198"
     inkscape:cy="255.98597"
     inkscape:window-width="1309"
     inkscape:window-height="736"
     inkscape:window-x="0"
     inkscape:window-y="25"
     inkscape:window-maximized="0"
     inkscape:current-layer="layer1" />
  <defs
     id="defs6650">
    <marker
       style="overflow:visible"
       id="marker7997"
       refX="0"
       refY="0"
       orient="auto-start-reverse"
       inkscape:stockid="Arrow1"
       markerWidth="3.0610001"
       markerHeight="5.0559397"
       viewBox="0 0 4.0606602 6.7071068"
       inkscape:isstock="true"
       inkscape:collect="always"
       preserveAspectRatio="xMidYMid">
      <path
         style="fill:none;stroke:context-stroke;stroke-width:1;stroke-linecap:butt"
         d="M 3,-3 0,0 3,3"
         id="path7995"
         transform="rotate(180,0.125,0)"
         sodipodi:nodetypes="ccc" />
    </marker>
    <inkscape:path-effect
       effect="spiro"
       id="path-effect7981"
       is_visible="true"
       lpeversion="1" />
    <marker
       style="overflow:visible"
       id="Arrow1"
       refX="0"
       refY="0"
       orient="auto-start-reverse"
       inkscape:stockid="Arrow1"
       markerWidth="4.0606604"
       markerHeight="6.7071066"
       viewBox="0 0 4.0606602 6.7071068"
       inkscape:isstock="true"
       inkscape:collect="always"
       preserveAspectRatio="xMidYMid">
      <path
         style="fill:none;stroke:context-stroke;stroke-width:1;stroke-linecap:butt"
         d="M 3,-3 0,0 3,3"
         id="path5057"
         transform="rotate(180,0.125,0)"
         sodipodi:nodetypes="ccc" />
    </marker>
    <inkscape:path-effect
       effect="spiro"
       id="path-effect7193"
       is_visible="true"
       lpeversion="1" />
    <inkscape:path-effect
       effect="spiro"
       id="path-effect7028"
       is_visible="true"
       lpeversion="1" />
    <marker
       style="overflow:visible"
       id="Arrow1-8"
       refX="0"
       refY="0"
       orient="auto-start-reverse"
       inkscape:stockid="Arrow1"
       markerWidth="4.0606604"
       markerHeight="6.7071066"
       viewBox="0 0 4.0606602 6.7071068"
       inkscape:isstock="true"
       inkscape:collect="always"
       preserveAspectRatio="xMidYMid">
      <path
         style="fill:none;stroke:context-stroke;stroke-width:1;stroke-linecap:butt"
         d="M 3,-3 0,0 3,3"
         id="path5057-9"
         transform="rotate(180,0.125,0)"
         sodipodi:nodetypes="ccc" />
    </marker>
    <inkscape:path-effect
       effect="spiro"
       id="path-effect7193-4"
       is_visible="true"
       lpeversion="1" />
  </defs>
  <g
     inkscape:label="Layer 1"
     inkscape:groupmode="layer"
     id="layer1"
     transform="translate(19.167926,-25.561482)">
    <path
       style="fill:none;fill-rule:evenodd;stroke:#000000;stroke-width:4;stroke-linejoin:round"
       d="m 42.410137,37.34624 -10e-7,79.75638 113.937684,-0.63299 V 38.290689"
       id="path6970"
       sodipodi:nodetypes="cccc" />
    <path
       style="fill:none;fill-rule:evenodd;stroke:#0000ff;stroke-width:4;stroke-linejoin:round"
       d="M 43.883751,74.059493 154.87419,72.793518"
       id="path7026"
       inkscape:path-effect="#path-effect7028"
       inkscape:original-d="m 43.883751,74.059493 c 36.713516,2.65e-4 74.699439,-0.843719 110.990439,-1.265975"
       sodipodi:nodetypes="cc" />
    <text
       xml:space="preserve"
       style="font-weight:500;font-size:11.2889px;font-family:Avenir;-inkscape-font-specification:'Avenir, Medium';text-align:center;text-anchor:middle;fill:none;fill-rule:evenodd;stroke:none;stroke-width:4;stroke-linejoin:round"
       x="169.00755"
       y="67.729622"
       id="text7084"><tspan
         sodipodi:role="line"
         id="tspan7082"
         style="fill:none;stroke:none;stroke-width:4"
         x="169.00755"
         y="67.729622" /></text>
    <g
       transform="matrix(1.76389,0,0,1.76389,133.89421,53.192856)"
       ns2:version="1.8.2"
       ns2:texconverter="pdflatex"
       ns2:pdfconverter="inkscape"
       ns2:text="$$S_t$$"
       ns2:preamble="/Users/vs498/Library/Application Support/org.inkscape.Inkscape/config/inkscape/extensions/textext/default_packages.tex"
       ns2:scale="5.0"
       ns2:alignment="middle center"
       ns2:stroke-to-path="0"
       ns2:jacobian_sqrt="1.76389"
       id="g7118"
       style="fill:#0000ff">
      <defs
         id="id-553910d9-b82e-43fd-9981-b83926f085f3">
        <g
           id="id-8a673eda-5ce8-43f8-90e6-30dd82319214">
          <g
             id="id-89adeda7-27cf-4cd7-aef1-3340af88f383" />
          <g
             id="id-cc46005b-ac02-4b4b-b2ca-e15d68219a99">
            <path
               d="m 6.4375,-6.921875 c 0,-0.03125 -0.03125,-0.109375 -0.125,-0.109375 -0.046875,0 -0.046875,0.015625 -0.171875,0.15625 L 5.65625,-6.3125 c -0.25,-0.46875 -0.765625,-0.71875 -1.421875,-0.71875 -1.265625,0 -2.453125,1.15625 -2.453125,2.359375 0,0.796875 0.515625,1.265625 1.03125,1.40625 l 1.0625,0.28125 c 0.375,0.09375 0.921875,0.25 0.921875,1.0625 0,0.890625 -0.8125,1.828125 -1.796875,1.828125 -0.640625,0 -1.75,-0.21875 -1.75,-1.453125 0,-0.234375 0.0625,-0.484375 0.0625,-0.53125 0.015625,-0.046875 0.015625,-0.0625 0.015625,-0.078125 0,-0.09375 -0.0625,-0.109375 -0.109375,-0.109375 -0.046875,0 -0.078125,0.015625 -0.109375,0.046875 -0.03125,0.03125 -0.59375,2.3125 -0.59375,2.34375 0,0.046875 0.046875,0.09375 0.109375,0.09375 0.046875,0 0.0625,-0.015625 0.1875,-0.15625 L 1.296875,-0.5 c 0.421875,0.578125 1.109375,0.71875 1.6875,0.71875 1.359375,0 2.53125,-1.328125 2.53125,-2.5625 0,-0.6875 -0.34375,-1.03125 -0.484375,-1.171875 C 4.796875,-3.734375 4.640625,-3.78125 3.765625,-4 3.53125,-4.0625 3.1875,-4.171875 3.09375,-4.1875 2.828125,-4.28125 2.484375,-4.5625 2.484375,-5.09375 c 0,-0.8125 0.796875,-1.65625 1.75,-1.65625 0.8125,0 1.421875,0.4375 1.421875,1.546875 0,0.3125 -0.03125,0.5 -0.03125,0.5625 0,0 0,0.09375 0.109375,0.09375 0.109375,0 0.125,-0.03125 0.15625,-0.203125 z m 0,0"
               id="id-ad11533b-c70a-42b5-8fc5-9630b8804d7f" />
          </g>
          <g
             id="id-923cbd17-796e-4a8f-ad69-2ba56bc903f2" />
          <g
             id="id-45bf28bc-1fd8-4528-a66e-9aade0327ff8">
            <path
               d="m 1.71875,-2.75 h 0.703125 c 0.140625,0 0.21875,0 0.21875,-0.15625 C 2.640625,-3 2.5625,-3 2.4375,-3 H 1.78125 l 0.25,-1.03125 C 2.046875,-4.0625 2.0625,-4.109375 2.0625,-4.125 c 0,-0.140625 -0.109375,-0.234375 -0.25,-0.234375 -0.171875,0 -0.265625,0.125 -0.328125,0.296875 C 1.4375,-3.875 1.53125,-4.21875 1.21875,-3 H 0.515625 c -0.125,0 -0.21875,0 -0.21875,0.15625 C 0.296875,-2.75 0.375,-2.75 0.5,-2.75 H 1.15625 L 0.75,-1.109375 C 0.703125,-0.9375 0.640625,-0.6875 0.640625,-0.59375 c 0,0.40625 0.359375,0.65625 0.75,0.65625 0.78125,0 1.21875,-0.96875 1.21875,-1.0625 0,-0.09375 -0.09375,-0.09375 -0.109375,-0.09375 -0.09375,0 -0.09375,0.015625 -0.15625,0.140625 -0.1875,0.4375 -0.546875,0.828125 -0.921875,0.828125 -0.15625,0 -0.25,-0.09375 -0.25,-0.34375 0,-0.0625 0.03125,-0.21875 0.046875,-0.28125 z m 0,0"
               id="id-495e39d6-34a8-4625-a9ea-66a9da8050bc" />
          </g>
        </g>
      </defs>
      <g
         fill="#000000"
         fill-opacity="1"
         id="id-a337cdab-f16f-4000-b6d5-7f98e655396e"
         transform="translate(-301.332,-139.689)"
         style="fill:#0000ff">
        <g
           transform="translate(300.816,146.72)"
           id="g7111"
           style="fill:#0000ff">
          <path
             d="m 6.4375,-6.921875 c 0,-0.03125 -0.03125,-0.109375 -0.125,-0.109375 -0.046875,0 -0.046875,0.015625 -0.171875,0.15625 L 5.65625,-6.3125 c -0.25,-0.46875 -0.765625,-0.71875 -1.421875,-0.71875 -1.265625,0 -2.453125,1.15625 -2.453125,2.359375 0,0.796875 0.515625,1.265625 1.03125,1.40625 l 1.0625,0.28125 c 0.375,0.09375 0.921875,0.25 0.921875,1.0625 0,0.890625 -0.8125,1.828125 -1.796875,1.828125 -0.640625,0 -1.75,-0.21875 -1.75,-1.453125 0,-0.234375 0.0625,-0.484375 0.0625,-0.53125 0.015625,-0.046875 0.015625,-0.0625 0.015625,-0.078125 0,-0.09375 -0.0625,-0.109375 -0.109375,-0.109375 -0.046875,0 -0.078125,0.015625 -0.109375,0.046875 -0.03125,0.03125 -0.59375,2.3125 -0.59375,2.34375 0,0.046875 0.046875,0.09375 0.109375,0.09375 0.046875,0 0.0625,-0.015625 0.1875,-0.15625 L 1.296875,-0.5 c 0.421875,0.578125 1.109375,0.71875 1.6875,0.71875 1.359375,0 2.53125,-1.328125 2.53125,-2.5625 0,-0.6875 -0.34375,-1.03125 -0.484375,-1.171875 C 4.796875,-3.734375 4.640625,-3.78125 3.765625,-4 3.53125,-4.0625 3.1875,-4.171875 3.09375,-4.1875 2.828125,-4.28125 2.484375,-4.5625 2.484375,-5.09375 c 0,-0.8125 0.796875,-1.65625 1.75,-1.65625 0.8125,0 1.421875,0.4375 1.421875,1.546875 0,0.3125 -0.03125,0.5 -0.03125,0.5625 0,0 0,0.09375 0.109375,0.09375 0.109375,0 0.125,-0.03125 0.15625,-0.203125 z m 0,0"
             id="id-21df9e54-99f2-4f5b-9d0b-18a9c2131621"
             style="fill:#0000ff" />
        </g>
      </g>
      <g
         fill="#000000"
         fill-opacity="1"
         id="id-b7e94111-df86-4cd4-9a27-d5bf4bd09fb4"
         transform="translate(-301.332,-139.689)"
         style="fill:#0000ff">
        <g
           transform="translate(306.925,148.214)"
           id="g7115"
           style="fill:#0000ff">
          <path
             d="m 1.71875,-2.75 h 0.703125 c 0.140625,0 0.21875,0 0.21875,-0.15625 C 2.640625,-3 2.5625,-3 2.4375,-3 H 1.78125 l 0.25,-1.03125 C 2.046875,-4.0625 2.0625,-4.109375 2.0625,-4.125 c 0,-0.140625 -0.109375,-0.234375 -0.25,-0.234375 -0.171875,0 -0.265625,0.125 -0.328125,0.296875 C 1.4375,-3.875 1.53125,-4.21875 1.21875,-3 H 0.515625 c -0.125,0 -0.21875,0 -0.21875,0.15625 C 0.296875,-2.75 0.375,-2.75 0.5,-2.75 H 1.15625 L 0.75,-1.109375 C 0.703125,-0.9375 0.640625,-0.6875 0.640625,-0.59375 c 0,0.40625 0.359375,0.65625 0.75,0.65625 0.78125,0 1.21875,-0.96875 1.21875,-1.0625 0,-0.09375 -0.09375,-0.09375 -0.109375,-0.09375 -0.09375,0 -0.09375,0.015625 -0.15625,0.140625 -0.1875,0.4375 -0.546875,0.828125 -0.921875,0.828125 -0.15625,0 -0.25,-0.09375 -0.25,-0.34375 0,-0.0625 0.03125,-0.21875 0.046875,-0.28125 z m 0,0"
             id="id-be462f3c-5784-4d98-8279-ac1353280dcb"
             style="fill:#0000ff" />
        </g>
      </g>
    </g>
    <path
       style="fill:#0000ff;fill-rule:evenodd;stroke:#0000ff;stroke-width:3;stroke-linejoin:round;stroke-dasharray:none;marker-end:url(#Arrow1)"
       d="m 160.77873,96.006401 54.43689,-0.632987"
       id="path7191"
       inkscape:path-effect="#path-effect7193"
       inkscape:original-d="m 160.77873,96.006401 c 18.14589,-0.421727 36.29153,-0.421727 54.43689,-0.632987" />
    <path
       style="fill:#0000ff;fill-rule:evenodd;stroke:#0000ff;stroke-width:3;stroke-linejoin:round;stroke-dasharray:none;marker-end:url(#Arrow1-8)"
       d="m -19.150485,97.396425 54.43689,-0.63299"
       id="path7191-7"
       inkscape:path-effect="#path-effect7193-4"
       inkscape:original-d="m -19.150485,97.396425 c 18.1458898,-0.42173 36.29153,-0.42173 54.43689,-0.63299" />
    <g
       transform="matrix(1.76389,0,0,1.76389,3.9226201,76.173293)"
       ns2:version="1.8.2"
       ns2:texconverter="pdflatex"
       ns2:pdfconverter="inkscape"
       ns2:text="$$I_t$$"
       ns2:preamble="/Users/vs498/Library/Application Support/org.inkscape.Inkscape/config/inkscape/extensions/textext/default_packages.tex"
       ns2:scale="5.0"
       ns2:alignment="middle center"
       ns2:stroke-to-path="0"
       ns2:jacobian_sqrt="1.76389"
       id="g7805"
       style="fill:#0000ff">
      <defs
         id="id-4d6d3be7-a391-418d-b6b3-3434e979fca3">
        <g
           id="id-b9e6eba3-f27b-4d2f-8518-62528da03e2d">
          <g
             id="id-59601efb-d5f6-4616-9383-ec12564c41d7" />
          <g
             id="id-ed9b60d1-da5c-44e1-b2f2-6421151c41d2">
            <path
               d="M 3.734375,-6.046875 C 3.8125,-6.40625 3.84375,-6.5 4.640625,-6.5 c 0.234375,0 0.3125,0 0.3125,-0.1875 0,-0.125 -0.109375,-0.125 -0.140625,-0.125 -0.296875,0 -1.03125,0.03125 -1.328125,0.03125 -0.296875,0 -1.015625,-0.03125 -1.328125,-0.03125 -0.0625,0 -0.1875,0 -0.1875,0.203125 C 1.96875,-6.5 2.046875,-6.5 2.25,-6.5 c 0.40625,0 0.6875,0 0.6875,0.1875 0,0.046875 0,0.078125 -0.03125,0.15625 l -1.34375,5.375 c -0.09375,0.375 -0.109375,0.46875 -0.90625,0.46875 -0.234375,0 -0.3125,0 -0.3125,0.203125 C 0.34375,0 0.453125,0 0.484375,0 0.78125,0 1.5,-0.03125 1.796875,-0.03125 2.09375,-0.03125 2.828125,0 3.125,0 c 0.078125,0 0.203125,0 0.203125,-0.1875 0,-0.125 -0.078125,-0.125 -0.296875,-0.125 -0.1875,0 -0.234375,0 -0.421875,-0.015625 -0.21875,-0.015625 -0.25,-0.0625 -0.25,-0.171875 0,-0.078125 0.015625,-0.15625 0.03125,-0.234375 z m 0,0"
               id="id-ceed23a7-ea8f-48c6-b89b-a2352856ecaa" />
          </g>
          <g
             id="id-9008905c-22c8-4a50-91d4-0b1d75571106" />
          <g
             id="id-05fb2629-a5ae-49df-868e-257a64394d07">
            <path
               d="m 1.71875,-2.75 h 0.703125 c 0.140625,0 0.21875,0 0.21875,-0.15625 C 2.640625,-3 2.5625,-3 2.4375,-3 H 1.78125 l 0.25,-1.03125 C 2.046875,-4.0625 2.0625,-4.109375 2.0625,-4.125 c 0,-0.140625 -0.109375,-0.234375 -0.25,-0.234375 -0.171875,0 -0.265625,0.125 -0.328125,0.296875 C 1.4375,-3.875 1.53125,-4.21875 1.21875,-3 H 0.515625 c -0.125,0 -0.21875,0 -0.21875,0.15625 C 0.296875,-2.75 0.375,-2.75 0.5,-2.75 H 1.15625 L 0.75,-1.109375 C 0.703125,-0.9375 0.640625,-0.6875 0.640625,-0.59375 c 0,0.40625 0.359375,0.65625 0.75,0.65625 0.78125,0 1.21875,-0.96875 1.21875,-1.0625 0,-0.09375 -0.09375,-0.09375 -0.109375,-0.09375 -0.09375,0 -0.09375,0.015625 -0.15625,0.140625 -0.1875,0.4375 -0.546875,0.828125 -0.921875,0.828125 -0.15625,0 -0.25,-0.09375 -0.25,-0.34375 0,-0.0625 0.03125,-0.21875 0.046875,-0.28125 z m 0,0"
               id="id-fdfc9e81-26cb-4cd5-8b17-55905571b8e6" />
          </g>
        </g>
      </defs>
      <g
         fill="#000000"
         fill-opacity="1"
         id="id-fb598203-1e61-4e15-8c0f-24e321d54669"
         transform="translate(-302.024,-139.907)"
         style="fill:#0000ff">
        <g
           transform="translate(301.68,146.72)"
           id="g7798"
           style="fill:#0000ff">
          <path
             d="M 3.734375,-6.046875 C 3.8125,-6.40625 3.84375,-6.5 4.640625,-6.5 c 0.234375,0 0.3125,0 0.3125,-0.1875 0,-0.125 -0.109375,-0.125 -0.140625,-0.125 -0.296875,0 -1.03125,0.03125 -1.328125,0.03125 -0.296875,0 -1.015625,-0.03125 -1.328125,-0.03125 -0.0625,0 -0.1875,0 -0.1875,0.203125 C 1.96875,-6.5 2.046875,-6.5 2.25,-6.5 c 0.40625,0 0.6875,0 0.6875,0.1875 0,0.046875 0,0.078125 -0.03125,0.15625 l -1.34375,5.375 c -0.09375,0.375 -0.109375,0.46875 -0.90625,0.46875 -0.234375,0 -0.3125,0 -0.3125,0.203125 C 0.34375,0 0.453125,0 0.484375,0 0.78125,0 1.5,-0.03125 1.796875,-0.03125 2.09375,-0.03125 2.828125,0 3.125,0 c 0.078125,0 0.203125,0 0.203125,-0.1875 0,-0.125 -0.078125,-0.125 -0.296875,-0.125 -0.1875,0 -0.234375,0 -0.421875,-0.015625 -0.21875,-0.015625 -0.25,-0.0625 -0.25,-0.171875 0,-0.078125 0.015625,-0.15625 0.03125,-0.234375 z m 0,0"
             id="id-99a7b7fe-b88c-4cc8-a3c2-80acc19ba584"
             style="fill:#0000ff" />
        </g>
      </g>
      <g
         fill="#000000"
         fill-opacity="1"
         id="id-4469fb53-20e9-4727-8e4f-72743ded5bf2"
         transform="translate(-302.024,-139.907)"
         style="fill:#0000ff">
        <g
           transform="translate(306.06,148.214)"
           id="g7802"
           style="fill:#0000ff">
          <path
             d="m 1.71875,-2.75 h 0.703125 c 0.140625,0 0.21875,0 0.21875,-0.15625 C 2.640625,-3 2.5625,-3 2.4375,-3 H 1.78125 l 0.25,-1.03125 C 2.046875,-4.0625 2.0625,-4.109375 2.0625,-4.125 c 0,-0.140625 -0.109375,-0.234375 -0.25,-0.234375 -0.171875,0 -0.265625,0.125 -0.328125,0.296875 C 1.4375,-3.875 1.53125,-4.21875 1.21875,-3 H 0.515625 c -0.125,0 -0.21875,0 -0.21875,0.15625 C 0.296875,-2.75 0.375,-2.75 0.5,-2.75 H 1.15625 L 0.75,-1.109375 C 0.703125,-0.9375 0.640625,-0.6875 0.640625,-0.59375 c 0,0.40625 0.359375,0.65625 0.75,0.65625 0.78125,0 1.21875,-0.96875 1.21875,-1.0625 0,-0.09375 -0.09375,-0.09375 -0.109375,-0.09375 -0.09375,0 -0.09375,0.015625 -0.15625,0.140625 -0.1875,0.4375 -0.546875,0.828125 -0.921875,0.828125 -0.15625,0 -0.25,-0.09375 -0.25,-0.34375 0,-0.0625 0.03125,-0.21875 0.046875,-0.28125 z m 0,0"
             id="id-03e1725b-d313-4f25-8705-fa9bb1b7736d"
             style="fill:#0000ff" />
        </g>
      </g>
    </g>
    <g
       transform="matrix(1.76389,0,0,1.76389,176.50715,74.699679)"
       ns2:version="1.8.2"
       ns2:texconverter="pdflatex"
       ns2:pdfconverter="inkscape"
       ns2:text="$$R_t$$"
       ns2:preamble="/Users/vs498/Library/Application Support/org.inkscape.Inkscape/config/inkscape/extensions/textext/default_packages.tex"
       ns2:scale="5.0"
       ns2:alignment="middle center"
       ns2:stroke-to-path="0"
       ns2:jacobian_sqrt="1.76389"
       id="g7946"
       style="fill:#0000ff">
      <defs
         id="id-cc550022-1df1-4503-b9b4-9b23dd3c03f5">
        <g
           id="id-d33938df-ab3e-48a5-896f-9aae3479fb46">
          <g
             id="id-5ef4aca3-a5bd-4804-9cd0-40b314928aae" />
          <g
             id="id-5a14de1a-7414-44b4-bcfe-492f80f77cd3">
            <path
               d="m 3.734375,-6.125 c 0.0625,-0.234375 0.09375,-0.328125 0.28125,-0.359375 C 4.109375,-6.5 4.421875,-6.5 4.625,-6.5 c 0.703125,0 1.8125,0 1.8125,0.984375 0,0.34375 -0.15625,1.03125 -0.546875,1.421875 -0.265625,0.25 -0.78125,0.578125 -1.6875,0.578125 H 3.09375 Z m 1.4375,2.734375 c 1.015625,-0.21875 2.1875,-0.921875 2.1875,-1.921875 0,-0.859375 -0.890625,-1.5 -2.203125,-1.5 H 2.328125 c -0.203125,0 -0.296875,0 -0.296875,0.203125 C 2.03125,-6.5 2.125,-6.5 2.3125,-6.5 c 0.015625,0 0.203125,0 0.375,0.015625 0.1875,0.03125 0.265625,0.03125 0.265625,0.171875 0,0.03125 0,0.0625 -0.03125,0.1875 l -1.34375,5.34375 C 1.484375,-0.390625 1.46875,-0.3125 0.671875,-0.3125 0.5,-0.3125 0.40625,-0.3125 0.40625,-0.109375 0.40625,0 0.53125,0 0.546875,0 c 0.28125,0 0.984375,-0.03125 1.25,-0.03125 0.28125,0 1,0.03125 1.28125,0.03125 0.078125,0 0.1875,0 0.1875,-0.203125 0,-0.109375 -0.078125,-0.109375 -0.28125,-0.109375 -0.359375,0 -0.640625,0 -0.640625,-0.171875 0,-0.0625 0.015625,-0.109375 0.03125,-0.171875 l 0.65625,-2.640625 h 1.1875 c 0.90625,0 1.078125,0.5625 1.078125,0.90625 0,0.140625 -0.078125,0.453125 -0.140625,0.6875 C 5.09375,-1.421875 5,-1.0625 5,-0.859375 5,0.21875 6.203125,0.21875 6.328125,0.21875 c 0.84375,0 1.203125,-1 1.203125,-1.140625 0,-0.125 -0.109375,-0.125 -0.125,-0.125 -0.09375,0 -0.109375,0.0625 -0.125,0.140625 C 7.03125,-0.171875 6.59375,0 6.375,0 6.046875,0 5.96875,-0.21875 5.96875,-0.609375 c 0,-0.3125 0.0625,-0.8125 0.109375,-1.140625 0.015625,-0.140625 0.03125,-0.328125 0.03125,-0.46875 0,-0.765625 -0.671875,-1.078125 -0.9375,-1.171875 z m 0,0"
               id="id-5b707888-7630-4f23-8f47-4b0e922a77c2" />
          </g>
          <g
             id="id-1c8b3804-0808-49f0-88ed-4b3cc04362b4" />
          <g
             id="id-ff99ad75-ccd7-4eeb-bef9-05073d1488ea">
            <path
               d="m 1.71875,-2.75 h 0.703125 c 0.140625,0 0.21875,0 0.21875,-0.15625 C 2.640625,-3 2.5625,-3 2.4375,-3 H 1.78125 l 0.25,-1.03125 C 2.046875,-4.0625 2.0625,-4.109375 2.0625,-4.125 c 0,-0.140625 -0.109375,-0.234375 -0.25,-0.234375 -0.171875,0 -0.265625,0.125 -0.328125,0.296875 C 1.4375,-3.875 1.53125,-4.21875 1.21875,-3 H 0.515625 c -0.125,0 -0.21875,0 -0.21875,0.15625 C 0.296875,-2.75 0.375,-2.75 0.5,-2.75 H 1.15625 L 0.75,-1.109375 C 0.703125,-0.9375 0.640625,-0.6875 0.640625,-0.59375 c 0,0.40625 0.359375,0.65625 0.75,0.65625 0.78125,0 1.21875,-0.96875 1.21875,-1.0625 0,-0.09375 -0.09375,-0.09375 -0.109375,-0.09375 -0.09375,0 -0.09375,0.015625 -0.15625,0.140625 -0.1875,0.4375 -0.546875,0.828125 -0.921875,0.828125 -0.15625,0 -0.25,-0.09375 -0.25,-0.34375 0,-0.0625 0.03125,-0.21875 0.046875,-0.28125 z m 0,0"
               id="id-c09e5f2b-0083-4013-8955-1be48b04b498" />
          </g>
        </g>
      </defs>
      <g
         fill="#000000"
         fill-opacity="1"
         id="id-859b7d89-f61e-4d27-8654-3f9a8d6cb369"
         transform="translate(-300.494,-139.907)"
         style="fill:#0000ff">
        <g
           transform="translate(300.088,146.72)"
           id="g7939"
           style="fill:#0000ff">
          <path
             d="m 3.734375,-6.125 c 0.0625,-0.234375 0.09375,-0.328125 0.28125,-0.359375 C 4.109375,-6.5 4.421875,-6.5 4.625,-6.5 c 0.703125,0 1.8125,0 1.8125,0.984375 0,0.34375 -0.15625,1.03125 -0.546875,1.421875 -0.265625,0.25 -0.78125,0.578125 -1.6875,0.578125 H 3.09375 Z m 1.4375,2.734375 c 1.015625,-0.21875 2.1875,-0.921875 2.1875,-1.921875 0,-0.859375 -0.890625,-1.5 -2.203125,-1.5 H 2.328125 c -0.203125,0 -0.296875,0 -0.296875,0.203125 C 2.03125,-6.5 2.125,-6.5 2.3125,-6.5 c 0.015625,0 0.203125,0 0.375,0.015625 0.1875,0.03125 0.265625,0.03125 0.265625,0.171875 0,0.03125 0,0.0625 -0.03125,0.1875 l -1.34375,5.34375 C 1.484375,-0.390625 1.46875,-0.3125 0.671875,-0.3125 0.5,-0.3125 0.40625,-0.3125 0.40625,-0.109375 0.40625,0 0.53125,0 0.546875,0 c 0.28125,0 0.984375,-0.03125 1.25,-0.03125 0.28125,0 1,0.03125 1.28125,0.03125 0.078125,0 0.1875,0 0.1875,-0.203125 0,-0.109375 -0.078125,-0.109375 -0.28125,-0.109375 -0.359375,0 -0.640625,0 -0.640625,-0.171875 0,-0.0625 0.015625,-0.109375 0.03125,-0.171875 l 0.65625,-2.640625 h 1.1875 c 0.90625,0 1.078125,0.5625 1.078125,0.90625 0,0.140625 -0.078125,0.453125 -0.140625,0.6875 C 5.09375,-1.421875 5,-1.0625 5,-0.859375 5,0.21875 6.203125,0.21875 6.328125,0.21875 c 0.84375,0 1.203125,-1 1.203125,-1.140625 0,-0.125 -0.109375,-0.125 -0.125,-0.125 -0.09375,0 -0.109375,0.0625 -0.125,0.140625 C 7.03125,-0.171875 6.59375,0 6.375,0 6.046875,0 5.96875,-0.21875 5.96875,-0.609375 c 0,-0.3125 0.0625,-0.8125 0.109375,-1.140625 0.015625,-0.140625 0.03125,-0.328125 0.03125,-0.46875 0,-0.765625 -0.671875,-1.078125 -0.9375,-1.171875 z m 0,0"
             id="id-8b6338e5-8820-4fa8-9de9-8369bbca4bd3"
             style="fill:#0000ff" />
        </g>
      </g>
      <g
         fill="#000000"
         fill-opacity="1"
         id="id-b38fdf57-ea70-4f25-9aa9-856cea112669"
         transform="translate(-300.494,-139.907)"
         style="fill:#0000ff">
        <g
           transform="translate(307.652,148.214)"
           id="g7943"
           style="fill:#0000ff">
          <path
             d="m 1.71875,-2.75 h 0.703125 c 0.140625,0 0.21875,0 0.21875,-0.15625 C 2.640625,-3 2.5625,-3 2.4375,-3 H 1.78125 l 0.25,-1.03125 C 2.046875,-4.0625 2.0625,-4.109375 2.0625,-4.125 c 0,-0.140625 -0.109375,-0.234375 -0.25,-0.234375 -0.171875,0 -0.265625,0.125 -0.328125,0.296875 C 1.4375,-3.875 1.53125,-4.21875 1.21875,-3 H 0.515625 c -0.125,0 -0.21875,0 -0.21875,0.15625 C 0.296875,-2.75 0.375,-2.75 0.5,-2.75 H 1.15625 L 0.75,-1.109375 C 0.703125,-0.9375 0.640625,-0.6875 0.640625,-0.59375 c 0,0.40625 0.359375,0.65625 0.75,0.65625 0.78125,0 1.21875,-0.96875 1.21875,-1.0625 0,-0.09375 -0.09375,-0.09375 -0.109375,-0.09375 -0.09375,0 -0.09375,0.015625 -0.15625,0.140625 -0.1875,0.4375 -0.546875,0.828125 -0.921875,0.828125 -0.15625,0 -0.25,-0.09375 -0.25,-0.34375 0,-0.0625 0.03125,-0.21875 0.046875,-0.28125 z m 0,0"
             id="id-219cf122-2af0-49ad-9061-0fc06fb476c5"
             style="fill:#0000ff" />
        </g>
      </g>
    </g>
    <path
       style="fill:#ff0000;fill-rule:evenodd;stroke:#ff0000;stroke-width:3;stroke-linejoin:round;stroke-dasharray:none;marker-end:url(#marker7997)"
       d="M 93.049107,63.931699 V 46.20806"
       id="path7979"
       inkscape:path-effect="#path-effect7981"
       inkscape:original-d="m 93.049107,63.931699 c 2.65e-4,-5.907614 2.65e-4,-11.815495 0,-17.723639" />
    <g
       transform="matrix(1.76389,0,0,1.76389,83.511826,25.561923)"
       ns2:version="1.8.2"
       ns2:texconverter="pdflatex"
       ns2:pdfconverter="inkscape"
       ns2:text="$$E_t$$"
       ns2:preamble="/Users/vs498/Library/Application Support/org.inkscape.Inkscape/config/inkscape/extensions/textext/default_packages.tex"
       ns2:scale="5.0"
       ns2:alignment="middle center"
       ns2:stroke-to-path="0"
       ns2:jacobian_sqrt="1.76389"
       id="g8423"
       style="fill:#d40000">
      <defs
         id="id-4c14d446-b84f-453b-9975-e7c7b406aa76">
        <g
           id="id-f59aafee-2ece-4279-81d1-4c37b7b6d9a2">
          <g
             id="id-b7effa77-5b55-4a6a-80fc-ef7f528db289" />
          <g
             id="id-f3522cbc-8a85-43d5-a77e-80dc2134d348">
            <path
               d="M 7.0625,-2.328125 C 7.078125,-2.375 7.109375,-2.4375 7.109375,-2.46875 c 0,0 0,-0.109375 -0.125,-0.109375 -0.09375,0 -0.109375,0.0625 -0.125,0.125 C 6.203125,-0.984375 5.84375,-0.3125 4.140625,-0.3125 H 2.6875 c -0.140625,0 -0.171875,0 -0.21875,0 -0.109375,-0.015625 -0.140625,-0.03125 -0.140625,-0.109375 0,-0.03125 0,-0.046875 0.046875,-0.21875 L 3.0625,-3.375 h 0.984375 c 0.84375,0 0.84375,0.21875 0.84375,0.46875 0,0.0625 0,0.1875 -0.0625,0.484375 C 4.8125,-2.375 4.796875,-2.34375 4.796875,-2.3125 c 0,0.046875 0.03125,0.109375 0.125,0.109375 C 5,-2.203125 5.03125,-2.25 5.078125,-2.40625 l 0.5625,-2.328125 c 0,-0.0625 -0.046875,-0.109375 -0.125,-0.109375 -0.078125,0 -0.109375,0.0625 -0.125,0.171875 -0.21875,0.765625 -0.390625,1 -1.3125,1 h -0.9375 l 0.59375,-2.40625 C 3.828125,-6.4375 3.84375,-6.46875 4.28125,-6.46875 H 5.6875 c 1.203125,0 1.515625,0.28125 1.515625,1.109375 0,0.234375 0,0.25 -0.046875,0.53125 0,0.046875 -0.015625,0.125 -0.015625,0.171875 0,0.046875 0.03125,0.125 0.125,0.125 0.109375,0 0.125,-0.0625 0.140625,-0.25 L 7.609375,-6.515625 C 7.640625,-6.78125 7.59375,-6.78125 7.34375,-6.78125 H 2.296875 c -0.1875,0 -0.296875,0 -0.296875,0.203125 0,0.109375 0.09375,0.109375 0.28125,0.109375 0.375,0 0.65625,0 0.65625,0.171875 0,0.046875 0,0.0625 -0.0625,0.25 L 1.5625,-0.78125 c -0.09375,0.390625 -0.109375,0.46875 -0.90625,0.46875 -0.171875,0 -0.28125,0 -0.28125,0.1875 C 0.375,0 0.46875,0 0.65625,0 h 5.171875 c 0.234375,0 0.25,-0.015625 0.3125,-0.171875 z m 0,0"
               id="id-1558cd96-a984-4d48-b24a-3a3c5f92b3f2" />
          </g>
          <g
             id="id-864e18e8-f2de-4d79-b803-8d7161b203a4" />
          <g
             id="id-8402bb1d-53ec-4e31-83a2-9f1b51e543d0">
            <path
               d="m 1.71875,-2.75 h 0.703125 c 0.140625,0 0.21875,0 0.21875,-0.15625 C 2.640625,-3 2.5625,-3 2.4375,-3 H 1.78125 l 0.25,-1.03125 C 2.046875,-4.0625 2.0625,-4.109375 2.0625,-4.125 c 0,-0.140625 -0.109375,-0.234375 -0.25,-0.234375 -0.171875,0 -0.265625,0.125 -0.328125,0.296875 C 1.4375,-3.875 1.53125,-4.21875 1.21875,-3 H 0.515625 c -0.125,0 -0.21875,0 -0.21875,0.15625 C 0.296875,-2.75 0.375,-2.75 0.5,-2.75 H 1.15625 L 0.75,-1.109375 C 0.703125,-0.9375 0.640625,-0.6875 0.640625,-0.59375 c 0,0.40625 0.359375,0.65625 0.75,0.65625 0.78125,0 1.21875,-0.96875 1.21875,-1.0625 0,-0.09375 -0.09375,-0.09375 -0.109375,-0.09375 -0.09375,0 -0.09375,0.015625 -0.15625,0.140625 -0.1875,0.4375 -0.546875,0.828125 -0.921875,0.828125 -0.15625,0 -0.25,-0.09375 -0.25,-0.34375 0,-0.0625 0.03125,-0.21875 0.046875,-0.28125 z m 0,0"
               id="id-110f2bb3-fdc7-42a9-a764-369ee7326aec" />
          </g>
        </g>
      </defs>
      <g
         fill="#000000"
         fill-opacity="1"
         id="id-43102109-49ea-46ec-869e-4bf6b0453f9f"
         transform="translate(-300.568,-139.939)"
         style="fill:#d40000">
        <g
           transform="translate(300.193,146.72)"
           id="g8416"
           style="fill:#d40000">
          <path
             d="M 7.0625,-2.328125 C 7.078125,-2.375 7.109375,-2.4375 7.109375,-2.46875 c 0,0 0,-0.109375 -0.125,-0.109375 -0.09375,0 -0.109375,0.0625 -0.125,0.125 C 6.203125,-0.984375 5.84375,-0.3125 4.140625,-0.3125 H 2.6875 c -0.140625,0 -0.171875,0 -0.21875,0 -0.109375,-0.015625 -0.140625,-0.03125 -0.140625,-0.109375 0,-0.03125 0,-0.046875 0.046875,-0.21875 L 3.0625,-3.375 h 0.984375 c 0.84375,0 0.84375,0.21875 0.84375,0.46875 0,0.0625 0,0.1875 -0.0625,0.484375 C 4.8125,-2.375 4.796875,-2.34375 4.796875,-2.3125 c 0,0.046875 0.03125,0.109375 0.125,0.109375 C 5,-2.203125 5.03125,-2.25 5.078125,-2.40625 l 0.5625,-2.328125 c 0,-0.0625 -0.046875,-0.109375 -0.125,-0.109375 -0.078125,0 -0.109375,0.0625 -0.125,0.171875 -0.21875,0.765625 -0.390625,1 -1.3125,1 h -0.9375 l 0.59375,-2.40625 C 3.828125,-6.4375 3.84375,-6.46875 4.28125,-6.46875 H 5.6875 c 1.203125,0 1.515625,0.28125 1.515625,1.109375 0,0.234375 0,0.25 -0.046875,0.53125 0,0.046875 -0.015625,0.125 -0.015625,0.171875 0,0.046875 0.03125,0.125 0.125,0.125 0.109375,0 0.125,-0.0625 0.140625,-0.25 L 7.609375,-6.515625 C 7.640625,-6.78125 7.59375,-6.78125 7.34375,-6.78125 H 2.296875 c -0.1875,0 -0.296875,0 -0.296875,0.203125 0,0.109375 0.09375,0.109375 0.28125,0.109375 0.375,0 0.65625,0 0.65625,0.171875 0,0.046875 0,0.0625 -0.0625,0.25 L 1.5625,-0.78125 c -0.09375,0.390625 -0.109375,0.46875 -0.90625,0.46875 -0.171875,0 -0.28125,0 -0.28125,0.1875 C 0.375,0 0.46875,0 0.65625,0 h 5.171875 c 0.234375,0 0.25,-0.015625 0.3125,-0.171875 z m 0,0"
             id="id-79b87d5d-c0b8-4d79-8636-5aaa3001c5b8"
             style="fill:#d40000" />
        </g>
      </g>
      <g
         fill="#000000"
         fill-opacity="1"
         id="id-27564698-2478-4514-846f-75970b928222"
         transform="translate(-300.568,-139.939)"
         style="fill:#d40000">
        <g
           transform="translate(307.547,148.214)"
           id="g8420"
           style="fill:#d40000">
          <path
             d="m 1.71875,-2.75 h 0.703125 c 0.140625,0 0.21875,0 0.21875,-0.15625 C 2.640625,-3 2.5625,-3 2.4375,-3 H 1.78125 l 0.25,-1.03125 C 2.046875,-4.0625 2.0625,-4.109375 2.0625,-4.125 c 0,-0.140625 -0.109375,-0.234375 -0.25,-0.234375 -0.171875,0 -0.265625,0.125 -0.328125,0.296875 C 1.4375,-3.875 1.53125,-4.21875 1.21875,-3 H 0.515625 c -0.125,0 -0.21875,0 -0.21875,0.15625 C 0.296875,-2.75 0.375,-2.75 0.5,-2.75 H 1.15625 L 0.75,-1.109375 C 0.703125,-0.9375 0.640625,-0.6875 0.640625,-0.59375 c 0,0.40625 0.359375,0.65625 0.75,0.65625 0.78125,0 1.21875,-0.96875 1.21875,-1.0625 0,-0.09375 -0.09375,-0.09375 -0.109375,-0.09375 -0.09375,0 -0.09375,0.015625 -0.15625,0.140625 -0.1875,0.4375 -0.546875,0.828125 -0.921875,0.828125 -0.15625,0 -0.25,-0.09375 -0.25,-0.34375 0,-0.0625 0.03125,-0.21875 0.046875,-0.28125 z m 0,0"
             id="id-456700d5-2790-43ee-9acd-05a5576e5a5e"
             style="fill:#d40000" />
        </g>
      </g>
    </g>
  </g>
</svg>
