<?xml version="1.0" encoding="utf-8"?>
<svg xmlns="http://www.w3.org/2000/svg" xmlns:xlink="http://www.w3.org/1999/xlink" width="400" height="300" viewBox="0 0 1600 1200">
<defs>
  <clipPath id="clip690">
    <rect x="0" y="0" width="1600" height="1200"/>
  </clipPath>
</defs>
<path clip-path="url(#clip690)" d="
M0 1200 L1600 1200 L1600 0 L0 0  Z
  " fill="#ffffff" fill-rule="evenodd" fill-opacity="1"/>
<defs>
  <clipPath id="clip691">
    <rect x="320" y="0" width="1121" height="1121"/>
  </clipPath>
</defs>
<defs>
  <clipPath id="clip692">
    <rect x="302" y="47" width="1251" height="937"/>
  </clipPath>
</defs>
<path clip-path="url(#clip690)" d="
M302.362 982.9 L1552.76 982.9 L1552.76 47.2441 L302.362 47.2441  Z
  " fill="#ffffff" fill-rule="evenodd" fill-opacity="1"/>
<polyline clip-path="url(#clip692)" style="stroke:#000000; stroke-linecap:round; stroke-linejoin:round; stroke-width:2; stroke-opacity:0.1; fill:none" points="
  618.435,982.9 618.435,47.2441 
  "/>
<polyline clip-path="url(#clip692)" style="stroke:#000000; stroke-linecap:round; stroke-linejoin:round; stroke-width:2; stroke-opacity:0.1; fill:none" points="
  1236.68,982.9 1236.68,47.2441 
  "/>
<polyline clip-path="url(#clip690)" style="stroke:#000000; stroke-linecap:round; stroke-linejoin:round; stroke-width:4; stroke-opacity:1; fill:none" points="
  302.362,982.9 1552.76,982.9 
  "/>
<polyline clip-path="url(#clip690)" style="stroke:#000000; stroke-linecap:round; stroke-linejoin:round; stroke-width:4; stroke-opacity:1; fill:none" points="
  618.435,982.9 618.435,964.002 
  "/>
<polyline clip-path="url(#clip690)" style="stroke:#000000; stroke-linecap:round; stroke-linejoin:round; stroke-width:4; stroke-opacity:1; fill:none" points="
  1236.68,982.9 1236.68,964.002 
  "/>
<path clip-path="url(#clip690)" d="M627.677 1026.27 Q627.677 1027.25 627.221 1027.5 Q626.764 1027.71 625.499 1027.71 L618.753 1027.71 L613.413 1048.93 Q612.991 1050.79 612.991 1052.37 Q612.991 1054.13 613.518 1054.9 Q614.081 1055.67 615.24 1055.67 Q617.524 1055.67 619.983 1053.6 Q622.478 1051.53 624.586 1046.47 Q624.867 1045.8 625.007 1045.66 Q625.183 1045.48 625.64 1045.48 Q626.518 1045.48 626.518 1046.19 Q626.518 1046.43 626.026 1047.56 Q625.569 1048.68 624.55 1050.33 Q623.567 1051.98 622.267 1053.53 Q621.002 1055.08 619.07 1056.2 Q617.137 1057.29 615.064 1057.29 Q612.148 1057.29 610.286 1055.43 Q608.459 1053.56 608.459 1050.65 Q608.459 1049.7 609.197 1046.68 Q609.935 1043.62 613.94 1027.71 L607.581 1027.71 Q606.703 1027.71 606.351 1027.67 Q606.035 1027.64 605.789 1027.46 Q605.578 1027.25 605.578 1026.83 Q605.578 1026.16 605.859 1025.88 Q606.14 1025.56 606.492 1025.53 Q606.878 1025.46 607.757 1025.46 L614.502 1025.46 L617.313 1014.04 Q617.594 1012.92 618.297 1012.28 Q619.034 1011.62 619.456 1011.54 Q619.878 1011.44 620.194 1011.44 Q621.142 1011.44 621.705 1011.97 Q622.267 1012.46 622.267 1013.37 Q622.267 1013.86 619.316 1025.46 L625.64 1025.46 Q626.448 1025.46 626.764 1025.49 Q627.115 1025.53 627.396 1025.7 Q627.677 1025.88 627.677 1026.27 Z" fill="#000000" fill-rule="evenodd" fill-opacity="1" /><path clip-path="url(#clip690)" d="M1180.43 1025.21 Q1180.43 1026.19 1179.98 1026.44 Q1179.52 1026.65 1178.26 1026.65 L1171.51 1026.65 L1166.17 1047.87 Q1165.75 1049.73 1165.75 1051.31 Q1165.75 1053.07 1166.27 1053.84 Q1166.84 1054.62 1168 1054.62 Q1170.28 1054.62 1172.74 1052.54 Q1175.23 1050.47 1177.34 1045.41 Q1177.62 1044.74 1177.76 1044.6 Q1177.94 1044.43 1178.4 1044.43 Q1179.27 1044.43 1179.27 1045.13 Q1179.27 1045.38 1178.78 1046.5 Q1178.33 1047.62 1177.31 1049.28 Q1176.32 1050.93 1175.02 1052.47 Q1173.76 1054.02 1171.83 1055.14 Q1169.89 1056.23 1167.82 1056.23 Q1164.9 1056.23 1163.04 1054.37 Q1161.22 1052.51 1161.22 1049.59 Q1161.22 1048.64 1161.95 1045.62 Q1162.69 1042.56 1166.7 1026.65 L1160.34 1026.65 Q1159.46 1026.65 1159.11 1026.61 Q1158.79 1026.58 1158.55 1026.4 Q1158.33 1026.19 1158.33 1025.77 Q1158.33 1025.1 1158.62 1024.82 Q1158.9 1024.51 1159.25 1024.47 Q1159.63 1024.4 1160.51 1024.4 L1167.26 1024.4 L1170.07 1012.98 Q1170.35 1011.86 1171.05 1011.23 Q1171.79 1010.56 1172.21 1010.49 Q1172.63 1010.38 1172.95 1010.38 Q1173.9 1010.38 1174.46 1010.91 Q1175.02 1011.4 1175.02 1012.31 Q1175.02 1012.81 1172.07 1024.4 L1178.4 1024.4 Q1179.2 1024.4 1179.52 1024.44 Q1179.87 1024.47 1180.15 1024.65 Q1180.43 1024.82 1180.43 1025.21 Z" fill="#000000" fill-rule="evenodd" fill-opacity="1" /><path clip-path="url(#clip690)" d="M1205.66 1038.31 Q1204.01 1038.31 1204.01 1037.44 Q1204.01 1036.56 1205.73 1036.56 Q1205.94 1036.56 1206.29 1036.59 Q1206.68 1036.63 1206.75 1036.63 L1227.02 1036.63 L1227.02 1016.28 Q1227.02 1016.21 1226.99 1015.9 Q1226.95 1015.55 1226.95 1015.34 Q1226.95 1013.61 1227.8 1013.61 Q1228.67 1013.61 1228.67 1015.34 L1228.67 1036.63 L1248.98 1036.63 Q1249.05 1036.63 1249.4 1036.59 Q1249.75 1036.56 1249.97 1036.56 Q1251.62 1036.56 1251.62 1037.44 Q1251.65 1038.31 1249.89 1038.31 Q1249.68 1038.31 1249.37 1038.28 Q1249.05 1038.24 1248.98 1038.24 L1228.67 1038.24 L1228.67 1059.6 Q1228.67 1061.26 1227.8 1061.26 Q1226.95 1061.26 1226.95 1059.53 Q1226.95 1059.32 1226.99 1058.97 Q1227.02 1058.66 1227.02 1058.59 L1227.02 1038.24 L1206.75 1038.24 Q1206.68 1038.24 1206.26 1038.28 Q1205.87 1038.31 1205.66 1038.31 Z" fill="#000000" fill-rule="evenodd" fill-opacity="1" /><path clip-path="url(#clip690)" d="M1279.4 1014.35 L1279.4 1012.1 Q1288.04 1012.1 1292.51 1007.5 Q1293.74 1007.5 1293.95 1007.78 Q1294.16 1008.06 1294.16 1009.36 L1294.16 1049.73 Q1294.16 1051.88 1295.21 1052.54 Q1296.26 1053.21 1300.87 1053.21 L1303.15 1053.21 L1303.15 1055.42 Q1300.62 1055.21 1291.49 1055.21 Q1282.35 1055.21 1279.86 1055.42 L1279.86 1053.21 L1282.14 1053.21 Q1286.67 1053.21 1287.76 1052.58 Q1288.85 1051.91 1288.85 1049.73 L1288.85 1012.46 Q1285.09 1014.35 1279.4 1014.35 Z" fill="#000000" fill-rule="evenodd" fill-opacity="1" /><path clip-path="url(#clip690)" d="M828.13 1096.76 L879.292 1096.76 L879.292 1103.64 L857.823 1103.64 L857.823 1157.24 L849.599 1157.24 L849.599 1103.64 L828.13 1103.64 L828.13 1096.76 Z" fill="#000000" fill-rule="evenodd" fill-opacity="1" /><path clip-path="url(#clip690)" d="M884.316 1111.87 L891.769 1111.87 L891.769 1157.24 L884.316 1157.24 L884.316 1111.87 M884.316 1094.2 L891.769 1094.2 L891.769 1103.64 L884.316 1103.64 L884.316 1094.2 Z" fill="#000000" fill-rule="evenodd" fill-opacity="1" /><path clip-path="url(#clip690)" d="M942.689 1120.58 Q945.484 1115.55 949.373 1113.16 Q953.262 1110.77 958.528 1110.77 Q965.617 1110.77 969.466 1115.75 Q973.314 1120.7 973.314 1129.85 L973.314 1157.24 L965.82 1157.24 L965.82 1130.09 Q965.82 1123.57 963.511 1120.41 Q961.202 1117.25 956.462 1117.25 Q950.669 1117.25 947.307 1121.1 Q943.945 1124.95 943.945 1131.59 L943.945 1157.24 L936.451 1157.24 L936.451 1130.09 Q936.451 1123.53 934.142 1120.41 Q931.833 1117.25 927.012 1117.25 Q921.3 1117.25 917.938 1121.14 Q914.576 1124.99 914.576 1131.59 L914.576 1157.24 L907.082 1157.24 L907.082 1111.87 L914.576 1111.87 L914.576 1118.91 Q917.128 1114.74 920.693 1112.76 Q924.257 1110.77 929.159 1110.77 Q934.101 1110.77 937.544 1113.28 Q941.028 1115.8 942.689 1120.58 Z" fill="#000000" fill-rule="evenodd" fill-opacity="1" /><path clip-path="url(#clip690)" d="M1026.99 1132.69 L1026.99 1136.33 L992.718 1136.33 Q993.204 1144.03 997.336 1148.08 Q1001.51 1152.09 1008.92 1152.09 Q1013.22 1152.09 1017.23 1151.04 Q1021.28 1149.98 1025.25 1147.88 L1025.25 1154.93 Q1021.24 1156.63 1017.02 1157.52 Q1012.81 1158.41 1008.48 1158.41 Q997.619 1158.41 991.259 1152.09 Q984.94 1145.77 984.94 1135 Q984.94 1123.86 990.935 1117.33 Q996.971 1110.77 1007.18 1110.77 Q1016.33 1110.77 1021.64 1116.69 Q1026.99 1122.56 1026.99 1132.69 M1019.53 1130.5 Q1019.45 1124.38 1016.09 1120.74 Q1012.77 1117.09 1007.26 1117.09 Q1001.02 1117.09 997.255 1120.62 Q993.528 1124.14 992.961 1130.54 L1019.53 1130.5 Z" fill="#000000" fill-rule="evenodd" fill-opacity="1" /><polyline clip-path="url(#clip692)" style="stroke:#000000; stroke-linecap:round; stroke-linejoin:round; stroke-width:2; stroke-opacity:0.1; fill:none" points="
  302.362,982.9 1552.76,982.9 
  "/>
<polyline clip-path="url(#clip692)" style="stroke:#000000; stroke-linecap:round; stroke-linejoin:round; stroke-width:2; stroke-opacity:0.1; fill:none" points="
  302.362,795.769 1552.76,795.769 
  "/>
<polyline clip-path="url(#clip692)" style="stroke:#000000; stroke-linecap:round; stroke-linejoin:round; stroke-width:2; stroke-opacity:0.1; fill:none" points="
  302.362,608.638 1552.76,608.638 
  "/>
<polyline clip-path="url(#clip692)" style="stroke:#000000; stroke-linecap:round; stroke-linejoin:round; stroke-width:2; stroke-opacity:0.1; fill:none" points="
  302.362,421.506 1552.76,421.506 
  "/>
<polyline clip-path="url(#clip692)" style="stroke:#000000; stroke-linecap:round; stroke-linejoin:round; stroke-width:2; stroke-opacity:0.1; fill:none" points="
  302.362,234.375 1552.76,234.375 
  "/>
<polyline clip-path="url(#clip692)" style="stroke:#000000; stroke-linecap:round; stroke-linejoin:round; stroke-width:2; stroke-opacity:0.1; fill:none" points="
  302.362,47.2441 1552.76,47.2441 
  "/>
<polyline clip-path="url(#clip690)" style="stroke:#000000; stroke-linecap:round; stroke-linejoin:round; stroke-width:4; stroke-opacity:1; fill:none" points="
  302.362,982.9 302.362,47.2441 
  "/>
<polyline clip-path="url(#clip690)" style="stroke:#000000; stroke-linecap:round; stroke-linejoin:round; stroke-width:4; stroke-opacity:1; fill:none" points="
  302.362,982.9 321.26,982.9 
  "/>
<polyline clip-path="url(#clip690)" style="stroke:#000000; stroke-linecap:round; stroke-linejoin:round; stroke-width:4; stroke-opacity:1; fill:none" points="
  302.362,795.769 321.26,795.769 
  "/>
<polyline clip-path="url(#clip690)" style="stroke:#000000; stroke-linecap:round; stroke-linejoin:round; stroke-width:4; stroke-opacity:1; fill:none" points="
  302.362,608.638 321.26,608.638 
  "/>
<polyline clip-path="url(#clip690)" style="stroke:#000000; stroke-linecap:round; stroke-linejoin:round; stroke-width:4; stroke-opacity:1; fill:none" points="
  302.362,421.506 321.26,421.506 
  "/>
<polyline clip-path="url(#clip690)" style="stroke:#000000; stroke-linecap:round; stroke-linejoin:round; stroke-width:4; stroke-opacity:1; fill:none" points="
  302.362,234.375 321.26,234.375 
  "/>
<polyline clip-path="url(#clip690)" style="stroke:#000000; stroke-linecap:round; stroke-linejoin:round; stroke-width:4; stroke-opacity:1; fill:none" points="
  302.362,47.2441 321.26,47.2441 
  "/>
<path clip-path="url(#clip690)" d="M260.445 961.598 Q255.029 961.598 252.286 966.945 Q249.577 972.258 249.577 982.952 Q249.577 993.612 252.286 998.959 Q255.029 1004.27 260.445 1004.27 Q265.897 1004.27 268.605 998.959 Q271.348 993.612 271.348 982.952 Q271.348 972.258 268.605 966.945 Q265.897 961.598 260.445 961.598 M260.445 956.042 Q269.161 956.042 273.744 962.952 Q278.362 969.827 278.362 982.952 Q278.362 996.042 273.744 1002.95 Q269.161 1009.83 260.445 1009.83 Q251.73 1009.83 247.112 1002.95 Q242.529 996.042 242.529 982.952 Q242.529 969.827 247.112 962.952 Q251.73 956.042 260.445 956.042 Z" fill="#000000" fill-rule="evenodd" fill-opacity="1" /><path clip-path="url(#clip690)" d="M156.175 815.786 L167.633 815.786 L167.633 776.238 L155.168 778.738 L155.168 772.349 L167.564 769.849 L174.578 769.849 L174.578 815.786 L186.036 815.786 L186.036 821.689 L156.175 821.689 L156.175 815.786 Z" fill="#000000" fill-rule="evenodd" fill-opacity="1" /><path clip-path="url(#clip690)" d="M215.203 774.467 Q209.786 774.467 207.043 779.814 Q204.335 785.126 204.335 795.821 Q204.335 806.48 207.043 811.828 Q209.786 817.14 215.203 817.14 Q220.654 817.14 223.362 811.828 Q226.105 806.48 226.105 795.821 Q226.105 785.126 223.362 779.814 Q220.654 774.467 215.203 774.467 M215.203 768.911 Q223.918 768.911 228.501 775.821 Q233.119 782.696 233.119 795.821 Q233.119 808.911 228.501 815.821 Q223.918 822.696 215.203 822.696 Q206.487 822.696 201.869 815.821 Q197.286 808.911 197.286 795.821 Q197.286 782.696 201.869 775.821 Q206.487 768.911 215.203 768.911 Z" fill="#000000" fill-rule="evenodd" fill-opacity="1" /><path clip-path="url(#clip690)" d="M260.445 774.467 Q255.029 774.467 252.286 779.814 Q249.577 785.126 249.577 795.821 Q249.577 806.48 252.286 811.828 Q255.029 817.14 260.445 817.14 Q265.897 817.14 268.605 811.828 Q271.348 806.48 271.348 795.821 Q271.348 785.126 268.605 779.814 Q265.897 774.467 260.445 774.467 M260.445 768.911 Q269.161 768.911 273.744 775.821 Q278.362 782.696 278.362 795.821 Q278.362 808.911 273.744 815.821 Q269.161 822.696 260.445 822.696 Q251.73 822.696 247.112 815.821 Q242.529 808.911 242.529 795.821 Q242.529 782.696 247.112 775.821 Q251.73 768.911 260.445 768.911 Z" fill="#000000" fill-rule="evenodd" fill-opacity="1" /><path clip-path="url(#clip690)" d="M161.002 628.655 L185.481 628.655 L185.481 634.558 L152.564 634.558 L152.564 628.655 Q156.557 624.523 163.432 617.578 Q170.342 610.599 172.113 608.585 Q175.481 604.801 176.8 602.197 Q178.154 599.558 178.154 597.023 Q178.154 592.891 175.238 590.287 Q172.356 587.683 167.703 587.683 Q164.404 587.683 160.724 588.829 Q157.078 589.974 152.911 592.301 L152.911 585.218 Q157.147 583.516 160.828 582.648 Q164.508 581.78 167.564 581.78 Q175.62 581.78 180.411 585.808 Q185.203 589.836 185.203 596.572 Q185.203 599.766 183.988 602.648 Q182.807 605.495 179.647 609.384 Q178.779 610.391 174.126 615.217 Q169.474 620.009 161.002 628.655 Z" fill="#000000" fill-rule="evenodd" fill-opacity="1" /><path clip-path="url(#clip690)" d="M215.203 587.336 Q209.786 587.336 207.043 592.683 Q204.335 597.995 204.335 608.69 Q204.335 619.349 207.043 624.696 Q209.786 630.009 215.203 630.009 Q220.654 630.009 223.362 624.696 Q226.105 619.349 226.105 608.69 Q226.105 597.995 223.362 592.683 Q220.654 587.336 215.203 587.336 M215.203 581.78 Q223.918 581.78 228.501 588.69 Q233.119 595.565 233.119 608.69 Q233.119 621.78 228.501 628.69 Q223.918 635.564 215.203 635.564 Q206.487 635.564 201.869 628.69 Q197.286 621.78 197.286 608.69 Q197.286 595.565 201.869 588.69 Q206.487 581.78 215.203 581.78 Z" fill="#000000" fill-rule="evenodd" fill-opacity="1" /><path clip-path="url(#clip690)" d="M260.445 587.336 Q255.029 587.336 252.286 592.683 Q249.577 597.995 249.577 608.69 Q249.577 619.349 252.286 624.696 Q255.029 630.009 260.445 630.009 Q265.897 630.009 268.605 624.696 Q271.348 619.349 271.348 608.69 Q271.348 597.995 268.605 592.683 Q265.897 587.336 260.445 587.336 M260.445 581.78 Q269.161 581.78 273.744 588.69 Q278.362 595.565 278.362 608.69 Q278.362 621.78 273.744 628.69 Q269.161 635.564 260.445 635.564 Q251.73 635.564 247.112 628.69 Q242.529 621.78 242.529 608.69 Q242.529 595.565 247.112 588.69 Q251.73 581.78 260.445 581.78 Z" fill="#000000" fill-rule="evenodd" fill-opacity="1" /><path clip-path="url(#clip690)" d="M176.21 419.475 Q181.244 420.552 184.057 423.954 Q186.904 427.357 186.904 432.357 Q186.904 440.031 181.626 444.232 Q176.349 448.433 166.626 448.433 Q163.363 448.433 159.89 447.774 Q156.453 447.149 152.772 445.864 L152.772 439.093 Q155.689 440.794 159.161 441.663 Q162.633 442.531 166.418 442.531 Q173.015 442.531 176.453 439.926 Q179.925 437.322 179.925 432.357 Q179.925 427.774 176.696 425.204 Q173.501 422.6 167.772 422.6 L161.731 422.6 L161.731 416.836 L168.05 416.836 Q173.224 416.836 175.967 414.788 Q178.71 412.704 178.71 408.815 Q178.71 404.822 175.863 402.704 Q173.05 400.552 167.772 400.552 Q164.89 400.552 161.592 401.177 Q158.293 401.802 154.335 403.121 L154.335 396.871 Q158.328 395.76 161.8 395.204 Q165.307 394.649 168.397 394.649 Q176.383 394.649 181.036 398.295 Q185.689 401.906 185.689 408.086 Q185.689 412.392 183.224 415.378 Q180.758 418.329 176.21 419.475 Z" fill="#000000" fill-rule="evenodd" fill-opacity="1" /><path clip-path="url(#clip690)" d="M215.203 400.204 Q209.786 400.204 207.043 405.552 Q204.335 410.864 204.335 421.558 Q204.335 432.218 207.043 437.565 Q209.786 442.878 215.203 442.878 Q220.654 442.878 223.362 437.565 Q226.105 432.218 226.105 421.558 Q226.105 410.864 223.362 405.552 Q220.654 400.204 215.203 400.204 M215.203 394.649 Q223.918 394.649 228.501 401.559 Q233.119 408.434 233.119 421.558 Q233.119 434.649 228.501 441.558 Q223.918 448.433 215.203 448.433 Q206.487 448.433 201.869 441.558 Q197.286 434.649 197.286 421.558 Q197.286 408.434 201.869 401.559 Q206.487 394.649 215.203 394.649 Z" fill="#000000" fill-rule="evenodd" fill-opacity="1" /><path clip-path="url(#clip690)" d="M260.445 400.204 Q255.029 400.204 252.286 405.552 Q249.577 410.864 249.577 421.558 Q249.577 432.218 252.286 437.565 Q255.029 442.878 260.445 442.878 Q265.897 442.878 268.605 437.565 Q271.348 432.218 271.348 421.558 Q271.348 410.864 268.605 405.552 Q265.897 400.204 260.445 400.204 M260.445 394.649 Q269.161 394.649 273.744 401.559 Q278.362 408.434 278.362 421.558 Q278.362 434.649 273.744 441.558 Q269.161 448.433 260.445 448.433 Q251.73 448.433 247.112 441.558 Q242.529 434.649 242.529 421.558 Q242.529 408.434 247.112 401.559 Q251.73 394.649 260.445 394.649 Z" fill="#000000" fill-rule="evenodd" fill-opacity="1" /><path clip-path="url(#clip690)" d="M174.231 214.566 L156.522 242.24 L174.231 242.24 L174.231 214.566 M172.39 208.455 L181.21 208.455 L181.21 242.24 L188.606 242.24 L188.606 248.073 L181.21 248.073 L181.21 260.295 L174.231 260.295 L174.231 248.073 L150.828 248.073 L150.828 241.302 L172.39 208.455 Z" fill="#000000" fill-rule="evenodd" fill-opacity="1" /><path clip-path="url(#clip690)" d="M215.203 213.073 Q209.786 213.073 207.043 218.42 Q204.335 223.733 204.335 234.427 Q204.335 245.087 207.043 250.434 Q209.786 255.747 215.203 255.747 Q220.654 255.747 223.362 250.434 Q226.105 245.087 226.105 234.427 Q226.105 223.733 223.362 218.42 Q220.654 213.073 215.203 213.073 M215.203 207.518 Q223.918 207.518 228.501 214.427 Q233.119 221.302 233.119 234.427 Q233.119 247.518 228.501 254.427 Q223.918 261.302 215.203 261.302 Q206.487 261.302 201.869 254.427 Q197.286 247.518 197.286 234.427 Q197.286 221.302 201.869 214.427 Q206.487 207.518 215.203 207.518 Z" fill="#000000" fill-rule="evenodd" fill-opacity="1" /><path clip-path="url(#clip690)" d="M260.445 213.073 Q255.029 213.073 252.286 218.42 Q249.577 223.733 249.577 234.427 Q249.577 245.087 252.286 250.434 Q255.029 255.747 260.445 255.747 Q265.897 255.747 268.605 250.434 Q271.348 245.087 271.348 234.427 Q271.348 223.733 268.605 218.42 Q265.897 213.073 260.445 213.073 M260.445 207.518 Q269.161 207.518 273.744 214.427 Q278.362 221.302 278.362 234.427 Q278.362 247.518 273.744 254.427 Q269.161 261.302 260.445 261.302 Q251.73 261.302 247.112 254.427 Q242.529 247.518 242.529 234.427 Q242.529 221.302 247.112 214.427 Q251.73 207.518 260.445 207.518 Z" fill="#000000" fill-rule="evenodd" fill-opacity="1" /><path clip-path="url(#clip690)" d="M155.029 21.3241 L182.564 21.3241 L182.564 27.2268 L161.453 27.2268 L161.453 39.9351 Q162.981 39.4143 164.508 39.1712 Q166.036 38.8934 167.564 38.8934 Q176.245 38.8934 181.314 43.6504 Q186.383 48.4073 186.383 56.5322 Q186.383 64.9002 181.175 69.553 Q175.967 74.171 166.488 74.171 Q163.224 74.171 159.821 73.6155 Q156.453 73.0599 152.842 71.9488 L152.842 64.9002 Q155.967 66.6016 159.3 67.435 Q162.633 68.2683 166.349 68.2683 Q172.356 68.2683 175.863 65.1086 Q179.369 61.9489 179.369 56.5322 Q179.369 51.1156 175.863 47.9559 Q172.356 44.7962 166.349 44.7962 Q163.536 44.7962 160.724 45.4212 Q157.946 46.0462 155.029 47.3656 L155.029 21.3241 Z" fill="#000000" fill-rule="evenodd" fill-opacity="1" /><path clip-path="url(#clip690)" d="M215.203 25.9421 Q209.786 25.9421 207.043 31.2893 Q204.335 36.6018 204.335 47.2962 Q204.335 57.9558 207.043 63.303 Q209.786 68.6155 215.203 68.6155 Q220.654 68.6155 223.362 63.303 Q226.105 57.9558 226.105 47.2962 Q226.105 36.6018 223.362 31.2893 Q220.654 25.9421 215.203 25.9421 M215.203 20.3866 Q223.918 20.3866 228.501 27.2963 Q233.119 34.1712 233.119 47.2962 Q233.119 60.3864 228.501 67.2961 Q223.918 74.171 215.203 74.171 Q206.487 74.171 201.869 67.2961 Q197.286 60.3864 197.286 47.2962 Q197.286 34.1712 201.869 27.2963 Q206.487 20.3866 215.203 20.3866 Z" fill="#000000" fill-rule="evenodd" fill-opacity="1" /><path clip-path="url(#clip690)" d="M260.445 25.9421 Q255.029 25.9421 252.286 31.2893 Q249.577 36.6018 249.577 47.2962 Q249.577 57.9558 252.286 63.303 Q255.029 68.6155 260.445 68.6155 Q265.897 68.6155 268.605 63.303 Q271.348 57.9558 271.348 47.2962 Q271.348 36.6018 268.605 31.2893 Q265.897 25.9421 260.445 25.9421 M260.445 20.3866 Q269.161 20.3866 273.744 27.2963 Q278.362 34.1712 278.362 47.2962 Q278.362 60.3864 273.744 67.2961 Q269.161 74.171 260.445 74.171 Q251.73 74.171 247.112 67.2961 Q242.529 60.3864 242.529 47.2962 Q242.529 34.1712 247.112 27.2963 Q251.73 20.3866 260.445 20.3866 Z" fill="#000000" fill-rule="evenodd" fill-opacity="1" /><path clip-path="url(#clip690)" d="M59.189 711.108 Q59.7629 711.108 61.1155 711.477 L93.1692 719.511 Q100.301 721.273 105.302 727.012 Q110.303 732.709 110.303 739.186 Q110.303 743.08 108.212 745.58 Q106.163 748.08 103.007 748.08 Q100.219 748.08 98.8667 746.605 Q97.555 745.129 97.555 743.366 Q97.555 742.793 97.719 742.178 Q97.8829 741.563 98.5797 740.907 Q99.2766 740.251 100.465 740.251 Q102.392 740.251 103.908 741.932 Q104.605 742.752 104.769 743.53 Q104.933 744.268 104.933 745.539 Q106.081 745.047 106.86 744.145 Q107.638 743.244 107.925 742.219 Q108.253 741.194 108.335 740.538 Q108.458 739.841 108.458 739.186 Q108.458 733.939 103.171 729.922 Q101.572 728.733 99.9734 727.873 Q98.4158 726.971 96.4893 726.315 Q94.6038 725.659 93.579 725.372 Q92.5543 725.044 90.2179 724.47 Q94.0299 728.282 94.0299 732.955 Q94.0299 734.923 93.4971 736.685 Q92.9642 738.407 91.8575 739.923 Q90.7098 741.44 88.7013 742.342 Q86.6929 743.203 84.0285 743.203 Q81.2003 743.203 77.3473 742.096 Q73.4943 740.989 66.4032 738.325 Q62.4272 736.89 60.5007 736.89 Q59.5579 736.89 58.9841 737.095 Q58.3693 737.3 58.1643 737.71 Q57.9184 738.12 57.8774 738.366 Q57.8364 738.571 57.8364 738.981 Q57.8364 741.399 60.2958 743.653 Q62.7551 745.908 68.2477 747.465 Q69.2724 747.793 69.5183 747.998 Q69.7643 748.203 69.7643 748.818 Q69.7233 749.843 68.9035 749.843 Q68.5756 749.843 67.3049 749.474 Q65.9933 749.105 64.0668 748.244 Q62.0993 747.342 60.3367 746.113 Q58.5332 744.883 57.2625 742.957 Q55.9919 740.989 55.9919 738.735 Q55.9919 735.661 58.0004 733.775 Q59.9678 731.849 62.8781 731.849 Q64.0668 731.849 65.1325 732.176 Q66.1572 732.463 68.9035 733.529 Q79.9706 737.833 85.3812 737.833 Q86.6929 737.833 87.7996 737.628 Q88.8653 737.382 89.931 736.849 Q90.9557 736.316 91.5706 735.251 Q92.1444 734.144 92.1444 732.627 Q92.1444 730.701 91.2427 728.897 Q90.2999 727.053 89.0292 725.905 Q87.7586 724.716 86.6929 724.02 Q85.5861 723.282 85.0123 723.118 L69.9282 719.347 L63.206 717.666 Q59.5579 716.887 58.6562 716.519 Q57.7954 716.027 57.3445 715.166 Q56.8936 714.305 56.8936 713.567 Q56.8936 712.543 57.5085 711.846 Q58.1233 711.108 59.189 711.108 Z" fill="#000000" fill-rule="evenodd" fill-opacity="1" /><path clip-path="url(#clip690)" d="M54.9998 675.605 Q58.7011 676.379 60.8243 677.384 Q64.0666 678.99 64.0666 681.716 Q64.0666 683.782 62.8041 685.245 Q61.5416 686.709 59.6479 687.053 Q64.0666 690.812 64.0666 694.714 Q64.0666 698.157 61.4556 700.338 Q58.8159 702.518 54.6554 702.518 Q50.4663 702.518 46.4494 700.452 Q42.4324 698.358 39.9362 695.058 Q37.4399 691.759 37.4399 688.373 Q37.4399 684.786 41.1987 682.95 Q40.1657 682.806 39.391 682.147 Q38.6163 681.487 38.6163 680.482 Q38.6163 679.708 39.0467 679.249 Q39.4484 678.79 40.1944 678.79 Q40.5674 678.79 42.2029 679.191 L50.409 681.314 L55.7171 682.606 Q57.6682 683.093 58.3855 683.237 Q59.1028 683.352 60.0496 683.352 Q62.7467 683.352 62.7467 681.601 Q62.7467 680.741 62.2016 680.052 Q61.6564 679.363 60.5087 678.818 Q59.361 678.273 58.2994 677.929 Q57.2091 677.584 55.4875 677.125 Q54.7989 676.982 54.6268 676.867 Q54.4259 676.724 54.4259 676.322 Q54.4259 675.605 54.9998 675.605 M43.8958 683.667 Q43.6375 683.667 42.9202 683.868 Q42.2029 684.069 41.1987 684.528 Q40.1944 684.987 39.4771 685.991 Q38.7311 686.967 38.7311 688.287 Q38.7311 690.066 40.2518 691.931 Q41.7725 693.767 44.3548 695.116 Q46.4207 696.148 50.7533 697.267 Q55.0858 698.358 57.2378 698.358 Q58.5576 698.358 59.734 698.071 Q60.8817 697.755 61.8286 696.866 Q62.7467 695.976 62.7467 694.599 Q62.7467 691.242 58.5863 687.942 Q57.869 687.311 57.5821 687.168 Q57.2665 686.996 56.4057 686.766 L44.9 683.839 Q44.0392 683.667 43.8958 683.667 Z" fill="#000000" fill-rule="evenodd" fill-opacity="1" /><path clip-path="url(#clip690)" d="M54.9998 642.938 Q58.7011 643.684 60.8243 644.689 Q64.0666 646.324 64.0666 649.05 Q64.0666 650.944 63.005 652.378 Q61.9146 653.784 60.107 654.272 Q60.8243 654.817 61.3121 655.305 Q61.7999 655.764 62.5459 656.653 Q63.2632 657.543 63.6649 658.748 Q64.0666 659.924 64.0666 661.273 Q64.0666 662.306 63.8657 663.253 Q63.6936 664.2 63.2058 665.204 Q62.6893 666.179 61.9146 666.897 Q61.14 667.585 59.8775 668.044 Q58.615 668.503 57.0082 668.503 Q54.9998 668.503 52.274 667.729 Q49.5482 666.925 44.6705 665.089 Q42.0881 664.085 40.6535 664.085 Q39.9936 664.085 39.5632 664.228 Q39.1328 664.372 38.9893 664.659 Q38.8172 664.917 38.7885 665.089 Q38.7311 665.261 38.7311 665.548 Q38.7311 667.327 40.5387 668.876 Q42.3464 670.426 46.019 671.487 Q46.7363 671.717 46.9085 671.86 Q47.0806 672.004 47.0806 672.434 Q47.0519 673.152 46.4781 673.152 Q46.2485 673.152 45.3591 672.893 Q44.4409 672.635 43.0924 672.033 Q41.7151 671.401 40.4814 670.541 Q39.2189 669.68 38.3294 668.331 Q37.4399 666.954 37.4399 665.376 Q37.4399 663.224 38.8459 661.904 Q40.2231 660.556 42.2603 660.556 Q43.5228 660.556 45.9616 661.56 Q54.4259 664.745 57.9551 664.745 Q62.7467 664.745 62.7467 661.101 Q62.7467 659.896 62.259 658.777 Q61.7712 657.629 61.0826 656.883 Q60.3939 656.137 59.6479 655.563 Q58.9019 654.961 58.4142 654.702 Q57.9264 654.415 57.8116 654.387 L40.137 649.997 Q39.4484 649.825 38.9893 649.509 Q38.5016 649.165 38.3294 648.763 Q38.1573 648.361 38.1286 648.132 Q38.0712 647.902 38.0712 647.701 Q38.0712 646.984 38.5016 646.496 Q38.932 645.98 39.678 645.98 Q39.8214 645.98 40.51 646.152 Q41.17 646.295 42.1455 646.525 Q43.0924 646.755 43.6088 646.869 Q47.2241 647.787 47.5971 647.874 L53.9381 649.509 Q54.3111 649.595 55.5162 649.882 Q56.7213 650.14 57.3525 650.284 Q57.9551 650.427 58.7872 650.571 Q59.5906 650.685 60.0496 650.685 Q61.4843 650.685 62.1155 650.255 Q62.7467 649.825 62.7467 648.878 Q62.7467 647.988 62.1442 647.3 Q61.513 646.582 60.3079 646.037 Q59.0741 645.492 58.0699 645.176 Q57.0656 644.861 55.4875 644.459 Q54.7989 644.316 54.6268 644.201 Q54.4259 644.057 54.4259 643.656 Q54.4259 642.938 54.9998 642.938 Z" fill="#000000" fill-rule="evenodd" fill-opacity="1" /><path clip-path="url(#clip690)" d="M41.3134 611.312 Q42.9202 611.312 43.8384 612.317 Q44.7278 613.321 44.7278 614.468 Q44.7278 615.559 44.0966 616.133 Q43.4654 616.706 42.662 616.706 Q41.5717 616.706 40.6248 615.903 Q39.678 615.1 39.4771 613.895 Q38.7311 615.071 38.7311 616.821 Q38.7311 617.969 39.3337 618.973 Q39.9362 619.949 40.7109 620.551 Q41.4856 621.125 42.6046 621.642 Q43.6949 622.129 44.3548 622.33 Q44.9861 622.502 45.6747 622.646 L53.7086 624.654 Q57.5247 625.63 58.8732 625.63 Q60.5374 625.63 61.6564 624.826 Q62.7467 624.023 62.7467 622.416 Q62.7467 621.785 62.5746 621.068 Q62.3737 620.35 61.8573 619.432 Q61.3121 618.485 60.5087 617.653 Q59.6766 616.793 58.2707 615.96 Q56.8648 615.128 55.0571 614.583 Q54.4259 614.411 54.4259 613.837 Q54.4259 613.12 54.9998 613.12 Q55.4875 613.12 56.5205 613.522 Q57.5247 613.895 58.8446 614.727 Q60.1357 615.53 61.3121 616.592 Q62.4598 617.653 63.2632 619.231 Q64.0666 620.809 64.0666 622.531 Q64.0666 624.999 62.7467 626.634 Q61.4269 628.27 59.5906 628.872 Q59.8488 629.016 60.1931 629.216 Q60.5374 629.417 61.3121 630.02 Q62.0581 630.594 62.632 631.254 Q63.1771 631.913 63.6075 632.946 Q64.0666 633.951 64.0666 635.041 Q64.0666 636.418 63.6649 637.652 Q63.2632 638.857 62.345 639.718 Q61.4269 640.579 60.1644 640.579 Q58.7585 640.579 57.7829 639.632 Q56.7787 638.656 56.7787 637.336 Q56.7787 636.504 57.2665 635.844 Q57.7542 635.156 58.8159 635.156 Q59.9923 635.156 60.8817 635.959 Q61.7712 636.763 62.0007 637.91 Q62.7467 636.734 62.7467 634.984 Q62.7467 633.09 61.0826 631.598 Q59.4184 630.106 56.6352 629.389 Q49.9499 627.61 46.9659 626.921 Q43.9531 626.232 42.662 626.232 Q41.4569 626.232 40.6248 626.548 Q39.7927 626.864 39.4197 627.409 Q39.018 627.925 38.8746 628.413 Q38.7311 628.872 38.7311 629.389 Q38.7311 630.249 39.0754 631.225 Q39.4197 632.172 40.2231 633.319 Q40.9978 634.438 42.6046 635.5 Q44.2114 636.562 46.4207 637.279 Q47.0806 637.422 47.0806 638.054 Q47.0519 638.742 46.4781 638.742 Q45.9903 638.742 44.9861 638.369 Q43.9531 637.968 42.662 637.164 Q41.3708 636.332 40.2231 635.271 Q39.0467 634.18 38.2433 632.602 Q37.4399 630.995 37.4399 629.274 Q37.4399 628.499 37.6121 627.753 Q37.7556 626.978 38.186 626.06 Q38.6163 625.113 39.5632 624.281 Q40.51 623.449 41.8873 622.933 Q41.2274 622.588 40.5961 622.129 Q39.9649 621.642 39.1902 620.896 Q38.3868 620.121 37.9277 619.059 Q37.4399 617.969 37.4399 616.764 Q37.4399 615.587 37.7556 614.44 Q38.0425 613.292 38.9893 612.317 Q39.9075 611.312 41.3134 611.312 Z" fill="#000000" fill-rule="evenodd" fill-opacity="1" /><path clip-path="url(#clip690)" d="M102.358 675.547 Q102.386 675.547 103.419 675.719 L129.501 682.261 Q130.878 682.606 132.255 683.581 Q133.661 684.528 134.866 686.049 Q136.1 687.541 136.846 689.836 Q137.621 692.103 137.621 694.714 Q137.621 698.874 136.731 700.711 Q135.87 702.518 134.034 702.518 Q132.427 702.518 131.509 701.514 Q130.62 700.51 130.62 699.362 Q130.62 698.272 131.251 697.698 Q131.882 697.124 132.686 697.124 Q133.575 697.124 134.465 697.727 Q135.383 698.329 135.727 699.534 Q136.33 697.612 136.33 694.829 Q136.33 688.947 130.103 686.422 Q130.017 686.364 129.989 686.364 L122.213 684.413 L122.155 684.499 Q122.729 684.987 123.389 685.762 Q124.02 686.508 124.795 688.115 Q125.57 689.721 125.57 691.299 Q125.57 694.599 123.045 696.866 Q120.491 699.104 116.274 699.104 Q113.203 699.104 110.133 697.87 Q107.035 696.608 104.768 694.656 Q102.472 692.677 101.038 690.152 Q99.6032 687.598 99.6032 685.131 Q99.6032 683.409 100.636 681.946 Q101.64 680.482 103.305 679.679 Q101.927 679.536 101.353 678.761 Q100.78 677.957 100.78 677.269 Q100.78 676.494 101.21 676.035 Q101.612 675.547 102.358 675.547 M105.944 680.368 Q105.772 680.368 105.313 680.482 Q104.825 680.597 104.051 680.941 Q103.276 681.257 102.587 681.745 Q101.899 682.233 101.411 683.122 Q100.894 683.983 100.894 685.073 Q100.894 686.852 102.386 688.631 Q103.85 690.41 106.116 691.644 Q108.297 692.791 112.515 693.882 Q116.733 694.943 118.885 694.943 Q121.008 694.943 122.643 694.025 Q124.279 693.107 124.279 691.127 Q124.279 688.832 122.155 686.364 Q119.946 683.811 118.052 683.38 L106.834 680.54 Q106.145 680.368 105.944 680.368 Z" fill="#000000" fill-rule="evenodd" fill-opacity="1" /><path clip-path="url(#clip690)" d="M72.1007 567.199 Q57.9184 567.199 46.4824 561.911 Q41.6866 559.657 37.6697 556.501 Q33.6527 553.345 31.8902 551.254 Q30.1276 549.164 30.1276 548.59 Q30.1276 547.77 30.9474 547.729 Q31.3573 547.729 32.3821 548.836 Q46.1545 562.362 72.1007 562.321 Q98.1289 562.321 111.368 549.164 Q112.803 547.729 113.254 547.729 Q114.074 547.729 114.074 548.59 Q114.074 549.164 112.393 551.172 Q110.713 553.181 106.86 556.296 Q103.007 559.411 98.2928 561.666 Q86.8568 567.199 72.1007 567.199 Z" fill="#000000" fill-rule="evenodd" fill-opacity="1" /><path clip-path="url(#clip690)" d="M36.6859 455.558 Q37.8746 455.558 38.1206 456.091 Q38.3665 456.583 38.3665 458.222 Q38.3665 460.149 38.5304 461.337 Q38.6534 462.526 38.8584 463.264 Q39.0223 464.002 39.5962 464.452 Q40.17 464.862 40.6619 465.026 Q41.1128 465.19 42.2195 465.477 L86.9388 476.626 Q88.4554 477.036 88.9883 477.036 Q89.5211 477.036 89.849 476.708 Q90.1769 476.339 90.3409 475.438 Q90.4639 474.536 90.5049 473.839 Q90.5049 473.101 90.5049 471.585 Q90.5049 469.699 90.8328 469.412 Q91.0377 469.248 91.4066 469.248 Q92.1854 469.248 92.5953 469.576 Q92.9642 469.904 93.0462 470.191 Q93.0872 470.437 93.0872 470.847 Q93.0872 472.568 92.9642 476.093 Q92.8412 479.619 92.8412 481.34 L93.0872 491.751 Q93.0872 492.981 92.0624 492.981 Q91.2837 492.981 90.9557 492.653 Q90.5868 492.325 90.5458 491.956 Q90.5049 491.587 90.5049 490.645 Q90.5049 487.284 90.136 485.849 Q89.767 484.373 89.1112 483.963 Q88.4144 483.512 86.5289 483.021 L38.4485 471.011 L38.4485 471.093 L91.5706 504.991 L91.9395 505.237 Q92.2674 505.483 92.3904 505.565 Q92.4723 505.647 92.7183 505.893 Q92.9232 506.098 93.0052 506.344 Q93.0872 506.548 93.0872 506.835 Q93.0872 507.327 92.7593 507.614 Q92.4313 507.86 92.1854 507.942 Q91.8985 507.983 91.1607 508.106 L39.1043 515.32 L39.1043 515.402 L84.8483 526.838 Q86.119 527.166 86.7748 527.166 Q88.4554 527.166 89.4801 525.977 Q90.4639 524.748 90.5049 521.469 Q90.5049 519.952 91.4066 519.952 Q93.0872 519.952 93.0872 521.469 Q93.0872 522.862 92.9642 525.772 Q92.8412 528.683 92.8412 530.117 Q92.8412 531.511 92.9642 534.339 Q93.0872 537.126 93.0872 538.479 Q93.0872 539.668 92.0624 539.668 Q90.5049 539.668 90.5049 538.151 Q90.4229 535.692 89.931 534.011 Q89.4391 532.331 88.4964 531.388 Q87.5536 530.404 86.6109 529.953 Q85.6271 529.461 84.1925 529.093 L41.4407 518.435 Q40.088 518.107 39.8831 518.107 Q39.1863 518.107 38.9403 518.517 Q38.6534 518.886 38.5304 519.952 Q38.3665 522.001 38.3665 523.559 Q38.3665 524.584 38.3255 524.994 Q38.2845 525.363 38.0796 525.69 Q37.8336 525.977 37.3418 525.977 Q36.563 525.977 36.235 525.649 Q35.8661 525.281 35.8252 524.871 Q35.7432 524.461 35.7432 523.477 L35.7432 511.959 Q35.7432 510.278 36.0301 509.91 Q36.276 509.541 37.6697 509.377 L85.1762 502.818 L37.3418 472.158 Q36.1531 471.38 35.9481 470.97 Q35.7432 470.56 35.7432 468.92 L35.7432 457.812 Q35.7432 456.91 35.7842 456.542 Q35.8252 456.173 36.0301 455.886 Q36.235 455.558 36.6859 455.558 Z" fill="#000000" fill-rule="evenodd" fill-opacity="1" /><path clip-path="url(#clip690)" d="M36.6859 367.644 Q37.4237 367.644 37.8336 367.931 Q38.2025 368.218 38.2435 368.464 Q38.2845 368.669 38.3665 369.242 Q38.5304 371.128 39.1043 372.604 Q39.6781 374.079 40.7849 375.186 Q41.8506 376.293 42.8343 376.989 Q43.8181 377.686 45.4986 378.629 L93.3331 406.174 Q93.825 406.461 94.0709 406.666 Q94.3578 406.83 94.6448 407.24 Q94.9317 407.649 94.9317 408.182 Q94.9317 408.92 94.5218 409.166 Q94.1119 409.412 92.7593 409.535 L50.3764 412.609 L93.1692 437.326 Q93.948 437.777 94.1939 437.981 Q94.4808 438.145 94.6858 438.514 Q94.9317 438.842 94.9317 439.334 Q94.9317 439.908 94.6448 440.195 Q94.3988 440.482 94.0299 440.564 Q93.661 440.605 92.7593 440.646 L41.4407 444.458 Q39.5142 444.581 38.9403 445.278 Q38.3665 445.933 38.3665 448.885 Q38.3665 449.704 38.3255 450.073 Q38.2845 450.401 38.0796 450.688 Q37.8336 450.975 37.3418 450.975 Q35.7432 450.975 35.7432 449.458 Q35.7432 448.024 35.8661 445.073 Q35.9891 442.121 35.9891 440.646 Q35.9891 438.924 35.8661 435.481 Q35.7432 432.038 35.7432 430.357 Q35.7432 429.169 36.6859 429.169 Q37.4647 429.169 37.8746 429.497 Q38.2435 429.784 38.3255 430.071 Q38.3665 430.357 38.3665 430.931 Q38.4075 433.186 38.6944 434.62 Q38.9813 436.014 39.5552 436.547 Q40.088 437.08 40.4569 437.203 Q40.7849 437.326 41.3587 437.326 L83.9466 434.128 L46.9333 412.896 L40.4569 413.388 Q39.1863 413.511 38.7764 414.331 Q38.3665 415.15 38.3665 417.815 Q38.3665 418.553 38.3255 418.921 Q38.2845 419.249 38.0796 419.577 Q37.8746 419.864 37.4237 419.864 Q36.6449 419.864 36.276 419.536 Q35.8661 419.208 35.8252 418.962 Q35.7432 418.676 35.7432 418.266 Q35.7432 417.323 35.8661 413.88 Q35.9891 410.437 35.9891 409.453 Q35.9891 407.772 35.8661 404.329 Q35.7432 400.886 35.7432 399.206 Q35.7432 397.935 36.6859 397.935 Q37.8336 397.935 38.1206 398.427 Q38.3665 398.919 38.3665 400.189 Q38.4075 402.362 38.7354 403.714 Q39.0633 405.026 39.8011 405.518 Q40.4979 405.969 40.9488 406.051 Q41.3997 406.133 42.3015 406.092 L83.9466 402.977 L44.3919 380.31 Q44.228 380.228 43.7771 379.982 Q43.2852 379.695 43.1622 379.654 Q43.0393 379.572 42.7114 379.449 Q42.3834 379.285 42.1785 379.244 Q41.9326 379.203 41.6456 379.203 Q39.9651 379.203 39.2273 380.719 Q38.4485 382.236 38.3665 384.163 Q38.3665 385.433 37.3418 385.433 Q36.604 385.433 36.235 385.105 Q35.8252 384.777 35.7842 384.531 Q35.7432 384.245 35.7432 383.835 Q35.7432 382.441 35.8661 379.49 Q35.9891 376.539 35.9891 375.104 Q35.9891 374.038 35.8661 371.825 Q35.7432 369.611 35.7432 368.628 Q35.7432 368.177 36.0711 367.931 Q36.399 367.644 36.6859 367.644 Z" fill="#000000" fill-rule="evenodd" fill-opacity="1" /><path clip-path="url(#clip690)" d="M81.0773 319.544 Q81.4052 319.544 82.6759 319.913 Q83.9466 320.282 85.9141 321.183 Q87.8815 322.044 89.6851 323.233 Q91.4476 324.422 92.7593 326.389 Q94.0299 328.316 94.0299 330.529 Q94.0299 333.48 92.0624 335.448 Q90.095 337.415 87.1437 337.415 Q86.7338 337.415 86.3239 337.374 Q85.9141 337.333 85.6681 337.292 Q85.3812 337.251 84.9303 337.128 Q84.4384 336.964 84.2335 336.923 Q84.0285 336.841 83.4137 336.636 Q82.7579 336.39 82.5119 336.308 Q69.2314 331.103 63.6979 331.103 Q57.8364 331.103 57.8364 335.653 Q57.8364 339.711 60.7876 343.728 Q62.2632 345.572 64.8866 347.335 Q67.5099 349.097 68.4936 349.425 Q70.6251 349.794 72.2646 350.327 Q73.4123 350.573 77.8802 351.761 L85.4632 353.606 L91.8165 355.205 Q92.7183 355.532 93.3741 356.434 Q94.0299 357.336 94.0299 358.32 Q94.0299 359.14 93.4561 359.959 Q92.9232 360.738 91.6526 360.738 Q90.9967 360.738 89.808 360.41 L41.4407 348.236 L39.8011 347.99 Q39.3092 347.99 39.0633 348.195 Q38.7764 348.359 38.5714 349.343 Q38.3665 350.286 38.3665 352.171 Q38.3665 352.95 38.3255 353.319 Q38.2845 353.647 38.0796 353.934 Q37.8336 354.221 37.3418 354.221 Q36.6449 354.221 36.276 353.934 Q35.8661 353.606 35.7842 353.36 Q35.7022 353.114 35.6612 352.622 Q35.6202 351.925 35.4153 349.589 Q35.1693 347.253 35.0054 345.244 Q34.8414 343.236 34.8414 342.375 Q34.8414 341.883 35.0873 341.637 Q35.2923 341.35 35.5382 341.309 L35.7432 341.268 L62.4272 347.826 Q55.9919 342.621 55.9919 335.407 Q55.9919 330.734 58.4102 328.234 Q60.7876 325.733 64.9685 325.733 Q69.7643 325.733 83.4137 330.857 Q87.2257 332.374 89.3981 332.374 Q90.8328 332.374 91.4886 331.923 Q92.1444 331.431 92.1444 330.365 Q92.1444 328.725 91.2017 327.291 Q90.2179 325.815 88.6193 324.79 Q86.9798 323.766 85.3402 323.069 Q83.6596 322.331 81.7741 321.798 Q80.7494 321.47 80.5035 321.306 Q80.2575 321.101 80.2575 320.528 Q80.2575 319.544 81.0773 319.544 Z" fill="#000000" fill-rule="evenodd" fill-opacity="1" /><path clip-path="url(#clip690)" d="M113.254 312.536 Q112.844 312.536 111.819 311.471 Q98.0469 297.944 72.1007 297.944 Q46.0725 297.944 32.9149 310.938 Q31.3983 312.536 30.9474 312.536 Q30.1276 312.536 30.1276 311.717 Q30.1276 311.143 31.8082 309.134 Q33.4888 307.085 37.3418 304.011 Q41.1948 300.895 45.9085 298.6 Q57.3445 293.066 72.1007 293.066 Q86.283 293.066 97.719 298.354 Q102.515 300.609 106.532 303.765 Q110.549 306.921 112.311 309.011 Q114.074 311.102 114.074 311.717 Q114.074 312.536 113.254 312.536 Z" fill="#000000" fill-rule="evenodd" fill-opacity="1" /><path clip-path="url(#clip692)" d="
M371.136 982.9 L371.136 982.9 L865.734 982.9 L865.734 982.9 L371.136 982.9 L371.136 982.9  Z
  " fill="#009af9" fill-rule="evenodd" fill-opacity="1"/>
<polyline clip-path="url(#clip692)" style="stroke:#000000; stroke-linecap:round; stroke-linejoin:round; stroke-width:4; stroke-opacity:1; fill:none" points="
  371.136,982.9 371.136,982.9 865.734,982.9 371.136,982.9 
  "/>
<path clip-path="url(#clip692)" d="
M989.384 889.334 L989.384 982.9 L1483.98 982.9 L1483.98 889.334 L989.384 889.334 L989.384 889.334  Z
  " fill="#009af9" fill-rule="evenodd" fill-opacity="1"/>
<polyline clip-path="url(#clip692)" style="stroke:#000000; stroke-linecap:round; stroke-linejoin:round; stroke-width:4; stroke-opacity:1; fill:none" points="
  989.384,889.334 989.384,982.9 1483.98,982.9 1483.98,889.334 989.384,889.334 
  "/>
<circle clip-path="url(#clip692)" style="fill:#009af9; stroke:none; fill-opacity:0" cx="618.435" cy="982.9" r="2"/>
<circle clip-path="url(#clip692)" style="fill:#009af9; stroke:none; fill-opacity:0" cx="1236.68" cy="889.334" r="2"/>
<polyline clip-path="url(#clip692)" style="stroke:#ff0000; stroke-linecap:round; stroke-linejoin:round; stroke-width:4; stroke-opacity:1; fill:none" stroke-dasharray="16, 10" points="
  -948.032,982.9 2803.15,982.9 
  "/>
<polyline clip-path="url(#clip692)" style="stroke:#a52a2a; stroke-linecap:round; stroke-linejoin:round; stroke-width:4; stroke-opacity:1; fill:none" stroke-dasharray="2, 4" points="
  -948.032,795.769 2803.15,795.769 
  "/>
<polyline clip-path="url(#clip692)" style="stroke:#a52a2a; stroke-linecap:round; stroke-linejoin:round; stroke-width:32; stroke-opacity:1; fill:none" points="
  772.997,982.9 772.997,795.769 
  "/>
<path clip-path="url(#clip690)" d="M894.49 849.765 Q894.49 847.349 893.831 845.373 Q893.245 843.324 892.294 841.933 Q891.415 840.469 889.732 839.371 Q888.048 838.2 886.658 837.468 Q885.267 836.736 882.925 836.297 Q880.582 835.785 879.045 835.565 Q877.508 835.272 874.873 835.126 Q872.238 834.979 870.921 834.979 Q869.676 834.979 867.188 834.979 Q859.356 834.979 858.038 835.126 Q856.062 835.419 855.33 836.59 Q854.598 837.688 853.866 840.689 L844.131 879.775 L860.893 879.775 Q870.042 879.775 876.337 877.213 Q882.632 874.651 886.218 871.065 Q890.171 867.112 892.294 860.744 Q894.49 854.376 894.49 849.765 M910.812 918.788 Q910.812 919.593 910.153 921.423 Q909.568 923.253 908.104 925.815 Q906.64 928.303 904.664 930.572 Q902.687 932.841 899.54 934.378 Q896.393 935.989 892.806 935.989 Q891.928 935.989 891.049 935.915 Q890.171 935.915 887.975 935.549 Q885.852 935.257 884.096 934.671 Q882.339 934.159 880.143 932.914 Q877.947 931.743 876.41 930.133 Q874.946 928.45 873.922 925.815 Q872.897 923.106 872.897 919.813 Q872.897 916.885 875.312 907.077 Q877.435 898.732 877.435 896.683 Q877.435 894.414 876.703 892.291 Q876.044 890.169 874.361 887.973 Q872.751 885.777 869.31 884.459 Q865.87 883.069 861.039 883.069 L843.253 883.069 L833.298 922.814 Q833.298 922.887 833.079 923.911 Q832.859 924.863 832.859 925.375 Q832.859 926.327 833.445 926.912 Q834.104 927.498 835.714 927.791 Q837.324 928.01 838.568 928.084 Q839.886 928.084 842.594 928.084 Q845.961 928.084 846.547 928.669 Q846.839 929.035 846.839 929.694 Q846.839 930.719 846.547 931.451 Q846.327 932.109 845.742 932.329 Q845.229 932.548 844.863 932.622 Q844.497 932.695 843.838 932.695 L824.808 932.256 L805.923 932.695 Q803.801 932.695 803.801 931.011 Q803.801 929.547 804.313 928.962 Q804.825 928.303 805.484 928.23 Q806.143 928.084 807.826 928.084 Q811.486 928.084 813.682 927.864 Q815.878 927.644 817.269 927.352 Q818.733 926.986 819.464 925.961 Q820.27 924.936 820.636 924.058 Q821.002 923.106 821.514 920.984 L841.569 840.469 Q842.155 838.054 842.155 837.688 Q842.155 836.297 841.277 835.931 Q840.471 835.492 838.129 835.272 L832.42 834.979 Q830.663 834.979 829.931 834.906 Q829.273 834.833 828.76 834.467 Q828.248 834.101 828.248 833.296 Q828.248 831.246 829.126 830.807 Q830.005 830.295 832.566 830.295 L875.312 830.295 Q889.878 830.295 899.101 836.663 Q908.397 843.031 908.397 852.766 Q908.397 857.157 906.42 861.256 Q904.444 865.355 901.15 868.576 Q897.93 871.797 893.611 874.505 Q889.293 877.14 884.681 878.97 Q880.143 880.726 875.459 881.751 Q877.508 882.483 879.411 883.581 Q881.388 884.679 883.876 886.728 Q886.438 888.778 887.975 892.072 Q889.512 895.365 889.512 899.391 Q889.512 902.246 888.927 906.491 Q887.463 918.568 887.463 923.545 Q887.463 928.303 888.707 930.499 Q889.951 932.695 893.465 932.695 Q896.905 932.695 900.711 929.621 Q904.59 926.473 907.079 919.081 Q907.665 916.958 909.055 916.958 Q909.129 916.958 909.202 916.958 Q909.348 916.958 909.641 917.104 Q909.934 917.178 910.153 917.397 Q910.446 917.543 910.592 917.909 Q910.812 918.275 910.812 918.788 Z" fill="#a52a2a" fill-rule="evenodd" fill-opacity="1" /><path clip-path="url(#clip690)" d="M973.953 922.063 Q973.953 922.114 973.645 923.959 L961.963 970.533 Q961.349 972.992 959.606 975.452 Q957.916 977.962 955.2 980.114 Q952.536 982.317 948.437 983.649 Q944.389 985.033 939.727 985.033 Q932.297 985.033 929.018 983.444 Q925.79 981.907 925.79 978.628 Q925.79 975.759 927.584 974.119 Q929.377 972.531 931.426 972.531 Q933.373 972.531 934.398 973.658 Q935.423 974.785 935.423 976.22 Q935.423 977.808 934.347 979.397 Q933.271 981.036 931.119 981.651 Q934.552 982.727 939.522 982.727 Q950.025 982.727 954.534 971.609 Q954.637 971.455 954.637 971.404 L958.121 957.519 L957.967 957.416 Q957.096 958.441 955.712 959.619 Q954.38 960.747 951.511 962.13 Q948.642 963.513 945.824 963.513 Q939.932 963.513 935.884 959.005 Q931.887 954.445 931.887 946.913 Q931.887 941.43 934.091 935.948 Q936.345 930.415 939.829 926.367 Q943.364 922.268 947.873 919.706 Q952.433 917.144 956.84 917.144 Q959.914 917.144 962.527 918.989 Q965.14 920.782 966.575 923.754 Q966.831 921.294 968.214 920.27 Q969.649 919.245 970.879 919.245 Q972.262 919.245 973.082 920.014 Q973.953 920.731 973.953 922.063 M965.345 928.468 Q965.345 928.16 965.14 927.34 Q964.935 926.469 964.32 925.086 Q963.757 923.703 962.886 922.473 Q962.015 921.243 960.426 920.372 Q958.889 919.45 956.942 919.45 Q953.765 919.45 950.589 922.114 Q947.412 924.727 945.209 928.775 Q943.16 932.669 941.213 940.201 Q939.317 947.733 939.317 951.575 Q939.317 955.367 940.956 958.287 Q942.596 961.208 946.131 961.208 Q950.23 961.208 954.637 957.416 Q959.197 953.471 959.965 950.089 L965.038 930.056 Q965.345 928.826 965.345 928.468 Z" fill="#a52a2a" fill-rule="evenodd" fill-opacity="1" /></svg>
