<?xml version="1.0" encoding="utf-8"?>
<svg xmlns="http://www.w3.org/2000/svg" xmlns:xlink="http://www.w3.org/1999/xlink" width="500" height="400" viewBox="0 0 2000 1600">
<defs>
  <clipPath id="clip720">
    <rect x="0" y="0" width="2000" height="1600"/>
  </clipPath>
</defs>
<path clip-path="url(#clip720)" d="
M0 1600 L2000 1600 L2000 0 L0 0  Z
  " fill="#ffffff" fill-rule="evenodd" fill-opacity="1"/>
<defs>
  <clipPath id="clip721">
    <rect x="400" y="0" width="1401" height="1401"/>
  </clipPath>
</defs>
<path clip-path="url(#clip720)" d="
M347.541 1365.29 L1952.76 1365.29 L1952.76 47.2441 L347.541 47.2441  Z
  " fill="#ffffff" fill-rule="evenodd" fill-opacity="1"/>
<defs>
  <clipPath id="clip722">
    <rect x="347" y="47" width="1606" height="1319"/>
  </clipPath>
</defs>
<polyline clip-path="url(#clip722)" style="stroke:#000000; stroke-linecap:round; stroke-linejoin:round; stroke-width:2; stroke-opacity:0.1; fill:none" points="
  645.364,1365.29 645.364,47.2441 
  "/>
<polyline clip-path="url(#clip722)" style="stroke:#000000; stroke-linecap:round; stroke-linejoin:round; stroke-width:2; stroke-opacity:0.1; fill:none" points="
  897.756,1365.29 897.756,47.2441 
  "/>
<polyline clip-path="url(#clip722)" style="stroke:#000000; stroke-linecap:round; stroke-linejoin:round; stroke-width:2; stroke-opacity:0.1; fill:none" points="
  1150.15,1365.29 1150.15,47.2441 
  "/>
<polyline clip-path="url(#clip722)" style="stroke:#000000; stroke-linecap:round; stroke-linejoin:round; stroke-width:2; stroke-opacity:0.1; fill:none" points="
  1402.54,1365.29 1402.54,47.2441 
  "/>
<polyline clip-path="url(#clip722)" style="stroke:#000000; stroke-linecap:round; stroke-linejoin:round; stroke-width:2; stroke-opacity:0.1; fill:none" points="
  1654.93,1365.29 1654.93,47.2441 
  "/>
<polyline clip-path="url(#clip722)" style="stroke:#000000; stroke-linecap:round; stroke-linejoin:round; stroke-width:2; stroke-opacity:0.1; fill:none" points="
  1907.33,1365.29 1907.33,47.2441 
  "/>
<polyline clip-path="url(#clip722)" style="stroke:#000000; stroke-linecap:round; stroke-linejoin:round; stroke-width:2; stroke-opacity:0.05; fill:none" points="
  456.07,1365.29 456.07,47.2441 
  "/>
<polyline clip-path="url(#clip722)" style="stroke:#000000; stroke-linecap:round; stroke-linejoin:round; stroke-width:2; stroke-opacity:0.05; fill:none" points="
  519.168,1365.29 519.168,47.2441 
  "/>
<polyline clip-path="url(#clip722)" style="stroke:#000000; stroke-linecap:round; stroke-linejoin:round; stroke-width:2; stroke-opacity:0.05; fill:none" points="
  582.266,1365.29 582.266,47.2441 
  "/>
<polyline clip-path="url(#clip722)" style="stroke:#000000; stroke-linecap:round; stroke-linejoin:round; stroke-width:2; stroke-opacity:0.05; fill:none" points="
  708.462,1365.29 708.462,47.2441 
  "/>
<polyline clip-path="url(#clip722)" style="stroke:#000000; stroke-linecap:round; stroke-linejoin:round; stroke-width:2; stroke-opacity:0.05; fill:none" points="
  771.56,1365.29 771.56,47.2441 
  "/>
<polyline clip-path="url(#clip722)" style="stroke:#000000; stroke-linecap:round; stroke-linejoin:round; stroke-width:2; stroke-opacity:0.05; fill:none" points="
  834.658,1365.29 834.658,47.2441 
  "/>
<polyline clip-path="url(#clip722)" style="stroke:#000000; stroke-linecap:round; stroke-linejoin:round; stroke-width:2; stroke-opacity:0.05; fill:none" points="
  960.854,1365.29 960.854,47.2441 
  "/>
<polyline clip-path="url(#clip722)" style="stroke:#000000; stroke-linecap:round; stroke-linejoin:round; stroke-width:2; stroke-opacity:0.05; fill:none" points="
  1023.95,1365.29 1023.95,47.2441 
  "/>
<polyline clip-path="url(#clip722)" style="stroke:#000000; stroke-linecap:round; stroke-linejoin:round; stroke-width:2; stroke-opacity:0.05; fill:none" points="
  1087.05,1365.29 1087.05,47.2441 
  "/>
<polyline clip-path="url(#clip722)" style="stroke:#000000; stroke-linecap:round; stroke-linejoin:round; stroke-width:2; stroke-opacity:0.05; fill:none" points="
  1213.25,1365.29 1213.25,47.2441 
  "/>
<polyline clip-path="url(#clip722)" style="stroke:#000000; stroke-linecap:round; stroke-linejoin:round; stroke-width:2; stroke-opacity:0.05; fill:none" points="
  1276.34,1365.29 1276.34,47.2441 
  "/>
<polyline clip-path="url(#clip722)" style="stroke:#000000; stroke-linecap:round; stroke-linejoin:round; stroke-width:2; stroke-opacity:0.05; fill:none" points="
  1339.44,1365.29 1339.44,47.2441 
  "/>
<polyline clip-path="url(#clip722)" style="stroke:#000000; stroke-linecap:round; stroke-linejoin:round; stroke-width:2; stroke-opacity:0.05; fill:none" points="
  1465.64,1365.29 1465.64,47.2441 
  "/>
<polyline clip-path="url(#clip722)" style="stroke:#000000; stroke-linecap:round; stroke-linejoin:round; stroke-width:2; stroke-opacity:0.05; fill:none" points="
  1528.74,1365.29 1528.74,47.2441 
  "/>
<polyline clip-path="url(#clip722)" style="stroke:#000000; stroke-linecap:round; stroke-linejoin:round; stroke-width:2; stroke-opacity:0.05; fill:none" points="
  1591.83,1365.29 1591.83,47.2441 
  "/>
<polyline clip-path="url(#clip722)" style="stroke:#000000; stroke-linecap:round; stroke-linejoin:round; stroke-width:2; stroke-opacity:0.05; fill:none" points="
  1718.03,1365.29 1718.03,47.2441 
  "/>
<polyline clip-path="url(#clip722)" style="stroke:#000000; stroke-linecap:round; stroke-linejoin:round; stroke-width:2; stroke-opacity:0.05; fill:none" points="
  1781.13,1365.29 1781.13,47.2441 
  "/>
<polyline clip-path="url(#clip722)" style="stroke:#000000; stroke-linecap:round; stroke-linejoin:round; stroke-width:2; stroke-opacity:0.05; fill:none" points="
  1844.23,1365.29 1844.23,47.2441 
  "/>
<polyline clip-path="url(#clip720)" style="stroke:#000000; stroke-linecap:round; stroke-linejoin:round; stroke-width:4; stroke-opacity:1; fill:none" points="
  347.541,1327.99 1952.76,1327.99 
  "/>
<polyline clip-path="url(#clip720)" style="stroke:#000000; stroke-linecap:round; stroke-linejoin:round; stroke-width:4; stroke-opacity:1; fill:none" points="
  645.364,1346.89 645.364,1309.09 
  "/>
<polyline clip-path="url(#clip720)" style="stroke:#000000; stroke-linecap:round; stroke-linejoin:round; stroke-width:4; stroke-opacity:1; fill:none" points="
  897.756,1346.89 897.756,1309.09 
  "/>
<polyline clip-path="url(#clip720)" style="stroke:#000000; stroke-linecap:round; stroke-linejoin:round; stroke-width:4; stroke-opacity:1; fill:none" points="
  1150.15,1346.89 1150.15,1309.09 
  "/>
<polyline clip-path="url(#clip720)" style="stroke:#000000; stroke-linecap:round; stroke-linejoin:round; stroke-width:4; stroke-opacity:1; fill:none" points="
  1402.54,1346.89 1402.54,1309.09 
  "/>
<polyline clip-path="url(#clip720)" style="stroke:#000000; stroke-linecap:round; stroke-linejoin:round; stroke-width:4; stroke-opacity:1; fill:none" points="
  1654.93,1346.89 1654.93,1309.09 
  "/>
<polyline clip-path="url(#clip720)" style="stroke:#000000; stroke-linecap:round; stroke-linejoin:round; stroke-width:4; stroke-opacity:1; fill:none" points="
  1907.33,1346.89 1907.33,1309.09 
  "/>
<polyline clip-path="url(#clip720)" style="stroke:#000000; stroke-linecap:round; stroke-linejoin:round; stroke-width:4; stroke-opacity:1; fill:none" points="
  456.07,1337.44 456.07,1318.54 
  "/>
<polyline clip-path="url(#clip720)" style="stroke:#000000; stroke-linecap:round; stroke-linejoin:round; stroke-width:4; stroke-opacity:1; fill:none" points="
  519.168,1337.44 519.168,1318.54 
  "/>
<polyline clip-path="url(#clip720)" style="stroke:#000000; stroke-linecap:round; stroke-linejoin:round; stroke-width:4; stroke-opacity:1; fill:none" points="
  582.266,1337.44 582.266,1318.54 
  "/>
<polyline clip-path="url(#clip720)" style="stroke:#000000; stroke-linecap:round; stroke-linejoin:round; stroke-width:4; stroke-opacity:1; fill:none" points="
  708.462,1337.44 708.462,1318.54 
  "/>
<polyline clip-path="url(#clip720)" style="stroke:#000000; stroke-linecap:round; stroke-linejoin:round; stroke-width:4; stroke-opacity:1; fill:none" points="
  771.56,1337.44 771.56,1318.54 
  "/>
<polyline clip-path="url(#clip720)" style="stroke:#000000; stroke-linecap:round; stroke-linejoin:round; stroke-width:4; stroke-opacity:1; fill:none" points="
  834.658,1337.44 834.658,1318.54 
  "/>
<polyline clip-path="url(#clip720)" style="stroke:#000000; stroke-linecap:round; stroke-linejoin:round; stroke-width:4; stroke-opacity:1; fill:none" points="
  960.854,1337.44 960.854,1318.54 
  "/>
<polyline clip-path="url(#clip720)" style="stroke:#000000; stroke-linecap:round; stroke-linejoin:round; stroke-width:4; stroke-opacity:1; fill:none" points="
  1023.95,1337.44 1023.95,1318.54 
  "/>
<polyline clip-path="url(#clip720)" style="stroke:#000000; stroke-linecap:round; stroke-linejoin:round; stroke-width:4; stroke-opacity:1; fill:none" points="
  1087.05,1337.44 1087.05,1318.54 
  "/>
<polyline clip-path="url(#clip720)" style="stroke:#000000; stroke-linecap:round; stroke-linejoin:round; stroke-width:4; stroke-opacity:1; fill:none" points="
  1213.25,1337.44 1213.25,1318.54 
  "/>
<polyline clip-path="url(#clip720)" style="stroke:#000000; stroke-linecap:round; stroke-linejoin:round; stroke-width:4; stroke-opacity:1; fill:none" points="
  1276.34,1337.44 1276.34,1318.54 
  "/>
<polyline clip-path="url(#clip720)" style="stroke:#000000; stroke-linecap:round; stroke-linejoin:round; stroke-width:4; stroke-opacity:1; fill:none" points="
  1339.44,1337.44 1339.44,1318.54 
  "/>
<polyline clip-path="url(#clip720)" style="stroke:#000000; stroke-linecap:round; stroke-linejoin:round; stroke-width:4; stroke-opacity:1; fill:none" points="
  1465.64,1337.44 1465.64,1318.54 
  "/>
<polyline clip-path="url(#clip720)" style="stroke:#000000; stroke-linecap:round; stroke-linejoin:round; stroke-width:4; stroke-opacity:1; fill:none" points="
  1528.74,1337.44 1528.74,1318.54 
  "/>
<polyline clip-path="url(#clip720)" style="stroke:#000000; stroke-linecap:round; stroke-linejoin:round; stroke-width:4; stroke-opacity:1; fill:none" points="
  1591.83,1337.44 1591.83,1318.54 
  "/>
<polyline clip-path="url(#clip720)" style="stroke:#000000; stroke-linecap:round; stroke-linejoin:round; stroke-width:4; stroke-opacity:1; fill:none" points="
  1718.03,1337.44 1718.03,1318.54 
  "/>
<polyline clip-path="url(#clip720)" style="stroke:#000000; stroke-linecap:round; stroke-linejoin:round; stroke-width:4; stroke-opacity:1; fill:none" points="
  1781.13,1337.44 1781.13,1318.54 
  "/>
<polyline clip-path="url(#clip720)" style="stroke:#000000; stroke-linecap:round; stroke-linejoin:round; stroke-width:4; stroke-opacity:1; fill:none" points="
  1844.23,1337.44 1844.23,1318.54 
  "/>
<path clip-path="url(#clip720)" d="M649.878 1363.06 L632.169 1390.73 L649.878 1390.73 L649.878 1363.06 M648.037 1356.95 L656.857 1356.95 L656.857 1390.73 L664.253 1390.73 L664.253 1396.57 L656.857 1396.57 L656.857 1408.79 L649.878 1408.79 L649.878 1396.57 L626.475 1396.57 L626.475 1389.8 L648.037 1356.95 Z" fill="#000000" fill-rule="evenodd" fill-opacity="1" /><path clip-path="url(#clip720)" d="M897.756 1384.17 Q892.756 1384.17 889.874 1386.84 Q887.027 1389.52 887.027 1394.21 Q887.027 1398.89 889.874 1401.57 Q892.756 1404.24 897.756 1404.24 Q902.756 1404.24 905.638 1401.57 Q908.52 1398.86 908.52 1394.21 Q908.52 1389.52 905.638 1386.84 Q902.791 1384.17 897.756 1384.17 M890.742 1381.18 Q886.228 1380.07 883.694 1376.98 Q881.194 1373.89 881.194 1369.45 Q881.194 1363.23 885.603 1359.62 Q890.048 1356.01 897.756 1356.01 Q905.499 1356.01 909.909 1359.62 Q914.319 1363.23 914.319 1369.45 Q914.319 1373.89 911.784 1376.98 Q909.284 1380.07 904.805 1381.18 Q909.874 1382.37 912.687 1385.8 Q915.534 1389.24 915.534 1394.21 Q915.534 1401.74 910.916 1405.77 Q906.332 1409.8 897.756 1409.8 Q889.18 1409.8 884.562 1405.77 Q879.978 1401.74 879.978 1394.21 Q879.978 1389.24 882.826 1385.8 Q885.673 1382.37 890.742 1381.18 M888.173 1370.11 Q888.173 1374.14 890.673 1376.39 Q893.208 1378.65 897.756 1378.65 Q902.27 1378.65 904.805 1376.39 Q907.374 1374.14 907.374 1370.11 Q907.374 1366.08 904.805 1363.82 Q902.27 1361.57 897.756 1361.57 Q893.208 1361.57 890.673 1363.82 Q888.173 1366.08 888.173 1370.11 Z" fill="#000000" fill-rule="evenodd" fill-opacity="1" /><path clip-path="url(#clip720)" d="M1113.38 1402.89 L1124.84 1402.89 L1124.84 1363.34 L1112.37 1365.84 L1112.37 1359.45 L1124.77 1356.95 L1131.78 1356.95 L1131.78 1402.89 L1143.24 1402.89 L1143.24 1408.79 L1113.38 1408.79 L1113.38 1402.89 Z" fill="#000000" fill-rule="evenodd" fill-opacity="1" /><path clip-path="url(#clip720)" d="M1163.45 1402.89 L1187.93 1402.89 L1187.93 1408.79 L1155.01 1408.79 L1155.01 1402.89 Q1159 1398.75 1165.88 1391.81 Q1172.79 1384.83 1174.56 1382.82 Q1177.93 1379.03 1179.25 1376.43 Q1180.6 1373.79 1180.6 1371.25 Q1180.6 1367.12 1177.68 1364.52 Q1174.8 1361.91 1170.15 1361.91 Q1166.85 1361.91 1163.17 1363.06 Q1159.52 1364.21 1155.36 1366.53 L1155.36 1359.45 Q1159.59 1357.75 1163.27 1356.88 Q1166.95 1356.01 1170.01 1356.01 Q1178.06 1356.01 1182.86 1360.04 Q1187.65 1364.07 1187.65 1370.8 Q1187.65 1374 1186.43 1376.88 Q1185.25 1379.73 1182.09 1383.62 Q1181.22 1384.62 1176.57 1389.45 Q1171.92 1394.24 1163.45 1402.89 Z" fill="#000000" fill-rule="evenodd" fill-opacity="1" /><path clip-path="url(#clip720)" d="M1364.45 1402.89 L1375.91 1402.89 L1375.91 1363.34 L1363.44 1365.84 L1363.44 1359.45 L1375.84 1356.95 L1382.85 1356.95 L1382.85 1402.89 L1394.31 1402.89 L1394.31 1408.79 L1364.45 1408.79 L1364.45 1402.89 Z" fill="#000000" fill-rule="evenodd" fill-opacity="1" /><path clip-path="url(#clip720)" d="M1424.35 1380.07 Q1419.62 1380.07 1416.85 1383.3 Q1414.1 1386.53 1414.1 1392.16 Q1414.1 1397.75 1416.85 1401.01 Q1419.62 1404.24 1424.35 1404.24 Q1429.07 1404.24 1431.81 1401.01 Q1434.59 1397.75 1434.59 1392.16 Q1434.59 1386.53 1431.81 1383.3 Q1429.07 1380.07 1424.35 1380.07 M1438.27 1358.09 L1438.27 1364.48 Q1435.63 1363.23 1432.92 1362.57 Q1430.25 1361.91 1427.61 1361.91 Q1420.67 1361.91 1416.99 1366.6 Q1413.34 1371.29 1412.82 1380.77 Q1414.87 1377.75 1417.96 1376.15 Q1421.05 1374.52 1424.76 1374.52 Q1432.58 1374.52 1437.09 1379.27 Q1441.64 1384 1441.64 1392.16 Q1441.64 1400.14 1436.92 1404.97 Q1432.19 1409.8 1424.35 1409.8 Q1415.35 1409.8 1410.6 1402.92 Q1405.84 1396.01 1405.84 1382.92 Q1405.84 1370.63 1411.67 1363.34 Q1417.51 1356.01 1427.33 1356.01 Q1429.97 1356.01 1432.64 1356.53 Q1435.35 1357.05 1438.27 1358.09 Z" fill="#000000" fill-rule="evenodd" fill-opacity="1" /><path clip-path="url(#clip720)" d="M1623.09 1402.89 L1647.57 1402.89 L1647.57 1408.79 L1614.66 1408.79 L1614.66 1402.89 Q1618.65 1398.75 1625.52 1391.81 Q1632.43 1384.83 1634.2 1382.82 Q1637.57 1379.03 1638.89 1376.43 Q1640.25 1373.79 1640.25 1371.25 Q1640.25 1367.12 1637.33 1364.52 Q1634.45 1361.91 1629.79 1361.91 Q1626.5 1361.91 1622.82 1363.06 Q1619.17 1364.21 1615 1366.53 L1615 1359.45 Q1619.24 1357.75 1622.92 1356.88 Q1626.6 1356.01 1629.66 1356.01 Q1637.71 1356.01 1642.5 1360.04 Q1647.29 1364.07 1647.29 1370.8 Q1647.29 1374 1646.08 1376.88 Q1644.9 1379.73 1641.74 1383.62 Q1640.87 1384.62 1636.22 1389.45 Q1631.57 1394.24 1623.09 1402.89 Z" fill="#000000" fill-rule="evenodd" fill-opacity="1" /><path clip-path="url(#clip720)" d="M1677.29 1361.57 Q1671.88 1361.57 1669.13 1366.91 Q1666.43 1372.23 1666.43 1382.92 Q1666.43 1393.58 1669.13 1398.93 Q1671.88 1404.24 1677.29 1404.24 Q1682.75 1404.24 1685.45 1398.93 Q1688.2 1393.58 1688.2 1382.92 Q1688.2 1372.23 1685.45 1366.91 Q1682.75 1361.57 1677.29 1361.57 M1677.29 1356.01 Q1686.01 1356.01 1690.59 1362.92 Q1695.21 1369.8 1695.21 1382.92 Q1695.21 1396.01 1690.59 1402.92 Q1686.01 1409.8 1677.29 1409.8 Q1668.58 1409.8 1663.96 1402.92 Q1659.38 1396.01 1659.38 1382.92 Q1659.38 1369.8 1663.96 1362.92 Q1668.58 1356.01 1677.29 1356.01 Z" fill="#000000" fill-rule="evenodd" fill-opacity="1" /><path clip-path="url(#clip720)" d="M1875.12 1402.89 L1899.6 1402.89 L1899.6 1408.79 L1866.68 1408.79 L1866.68 1402.89 Q1870.68 1398.75 1877.55 1391.81 Q1884.46 1384.83 1886.23 1382.82 Q1889.6 1379.03 1890.92 1376.43 Q1892.27 1373.79 1892.27 1371.25 Q1892.27 1367.12 1889.36 1364.52 Q1886.47 1361.91 1881.82 1361.91 Q1878.52 1361.91 1874.84 1363.06 Q1871.2 1364.21 1867.03 1366.53 L1867.03 1359.45 Q1871.27 1357.75 1874.95 1356.88 Q1878.63 1356.01 1881.68 1356.01 Q1889.74 1356.01 1894.53 1360.04 Q1899.32 1364.07 1899.32 1370.8 Q1899.32 1374 1898.11 1376.88 Q1896.93 1379.73 1893.77 1383.62 Q1892.9 1384.62 1888.25 1389.45 Q1883.59 1394.24 1875.12 1402.89 Z" fill="#000000" fill-rule="evenodd" fill-opacity="1" /><path clip-path="url(#clip720)" d="M1933.59 1363.06 L1915.88 1390.73 L1933.59 1390.73 L1933.59 1363.06 M1931.75 1356.95 L1940.57 1356.95 L1940.57 1390.73 L1947.97 1390.73 L1947.97 1396.57 L1940.57 1396.57 L1940.57 1408.79 L1933.59 1408.79 L1933.59 1396.57 L1910.19 1396.57 L1910.19 1389.8 L1931.75 1356.95 Z" fill="#000000" fill-rule="evenodd" fill-opacity="1" /><path clip-path="url(#clip720)" d="M889.928 1486.01 L898.696 1486.01 L898.696 1512.57 L930.553 1512.57 L930.553 1486.01 L939.321 1486.01 L939.321 1550.81 L930.553 1550.81 L930.553 1519.95 L898.696 1519.95 L898.696 1550.81 L889.928 1550.81 L889.928 1486.01 Z" fill="#000000" fill-rule="evenodd" fill-opacity="1" /><path clip-path="url(#clip720)" d="M975.258 1507.8 Q968.834 1507.8 965.102 1512.83 Q961.369 1517.83 961.369 1526.55 Q961.369 1535.27 965.058 1540.31 Q968.791 1545.3 975.258 1545.3 Q981.638 1545.3 985.371 1540.27 Q989.103 1535.23 989.103 1526.55 Q989.103 1517.91 985.371 1512.88 Q981.638 1507.8 975.258 1507.8 M975.258 1501.03 Q985.674 1501.03 991.621 1507.8 Q997.567 1514.57 997.567 1526.55 Q997.567 1538.49 991.621 1545.3 Q985.674 1552.07 975.258 1552.07 Q964.798 1552.07 958.852 1545.3 Q952.949 1538.49 952.949 1526.55 Q952.949 1514.57 958.852 1507.8 Q964.798 1501.03 975.258 1501.03 Z" fill="#000000" fill-rule="evenodd" fill-opacity="1" /><path clip-path="url(#clip720)" d="M1009.98 1531.63 L1009.98 1502.2 L1017.97 1502.2 L1017.97 1531.32 Q1017.97 1538.23 1020.66 1541.7 Q1023.35 1545.13 1028.73 1545.13 Q1035.2 1545.13 1038.93 1541 Q1042.71 1536.88 1042.71 1529.76 L1042.71 1502.2 L1050.69 1502.2 L1050.69 1550.81 L1042.71 1550.81 L1042.71 1543.35 Q1039.8 1547.77 1035.93 1549.94 Q1032.12 1552.07 1027.04 1552.07 Q1018.66 1552.07 1014.32 1546.86 Q1009.98 1541.65 1009.98 1531.63 M1030.08 1501.03 L1030.08 1501.03 Z" fill="#000000" fill-rule="evenodd" fill-opacity="1" /><path clip-path="url(#clip720)" d="M1095.31 1509.67 Q1093.96 1508.88 1092.36 1508.54 Q1090.8 1508.15 1088.89 1508.15 Q1082.11 1508.15 1078.47 1512.57 Q1074.87 1516.96 1074.87 1525.2 L1074.87 1550.81 L1066.84 1550.81 L1066.84 1502.2 L1074.87 1502.2 L1074.87 1509.75 Q1077.38 1505.33 1081.42 1503.2 Q1085.46 1501.03 1091.23 1501.03 Q1092.05 1501.03 1093.05 1501.16 Q1094.05 1501.25 1095.27 1501.46 L1095.31 1509.67 Z" fill="#000000" fill-rule="evenodd" fill-opacity="1" /><path clip-path="url(#clip720)" d="M1150.78 1507.8 Q1144.35 1507.8 1140.62 1512.83 Q1136.89 1517.83 1136.89 1526.55 Q1136.89 1535.27 1140.58 1540.31 Q1144.31 1545.3 1150.78 1545.3 Q1157.16 1545.3 1160.89 1540.27 Q1164.62 1535.23 1164.62 1526.55 Q1164.62 1517.91 1160.89 1512.88 Q1157.16 1507.8 1150.78 1507.8 M1150.78 1501.03 Q1161.19 1501.03 1167.14 1507.8 Q1173.09 1514.57 1173.09 1526.55 Q1173.09 1538.49 1167.14 1545.3 Q1161.19 1552.07 1150.78 1552.07 Q1140.32 1552.07 1134.37 1545.3 Q1128.47 1538.49 1128.47 1526.55 Q1128.47 1514.57 1134.37 1507.8 Q1140.32 1501.03 1150.78 1501.03 Z" fill="#000000" fill-rule="evenodd" fill-opacity="1" /><path clip-path="url(#clip720)" d="M1210.93 1483.28 L1210.93 1489.92 L1203.29 1489.92 Q1199 1489.92 1197.31 1491.65 Q1195.66 1493.39 1195.66 1497.9 L1195.66 1502.2 L1208.81 1502.2 L1208.81 1508.41 L1195.66 1508.41 L1195.66 1550.81 L1187.63 1550.81 L1187.63 1508.41 L1179.99 1508.41 L1179.99 1502.2 L1187.63 1502.2 L1187.63 1498.82 Q1187.63 1490.7 1191.4 1487.01 Q1195.18 1483.28 1203.38 1483.28 L1210.93 1483.28 Z" fill="#000000" fill-rule="evenodd" fill-opacity="1" /><path clip-path="url(#clip720)" d="M1254.99 1493.22 L1254.99 1543.61 L1265.58 1543.61 Q1278.99 1543.61 1285.2 1537.53 Q1291.45 1531.45 1291.45 1518.35 Q1291.45 1505.33 1285.2 1499.29 Q1278.99 1493.22 1265.58 1493.22 L1254.99 1493.22 M1246.22 1486.01 L1264.23 1486.01 Q1283.07 1486.01 1291.88 1493.87 Q1300.69 1501.68 1300.69 1518.35 Q1300.69 1535.1 1291.84 1542.96 Q1282.98 1550.81 1264.23 1550.81 L1246.22 1550.81 L1246.22 1486.01 Z" fill="#000000" fill-rule="evenodd" fill-opacity="1" /><path clip-path="url(#clip720)" d="M1336.41 1526.38 Q1326.73 1526.38 1323 1528.59 Q1319.27 1530.8 1319.27 1536.14 Q1319.27 1540.4 1322.04 1542.91 Q1324.87 1545.39 1329.68 1545.39 Q1336.32 1545.39 1340.32 1540.7 Q1344.35 1535.97 1344.35 1528.16 L1344.35 1526.38 L1336.41 1526.38 M1352.34 1523.08 L1352.34 1550.81 L1344.35 1550.81 L1344.35 1543.43 Q1341.62 1547.86 1337.54 1549.99 Q1333.46 1552.07 1327.56 1552.07 Q1320.09 1552.07 1315.66 1547.9 Q1311.28 1543.69 1311.28 1536.66 Q1311.28 1528.46 1316.75 1524.29 Q1322.26 1520.13 1333.16 1520.13 L1344.35 1520.13 L1344.35 1519.34 Q1344.35 1513.83 1340.71 1510.84 Q1337.1 1507.8 1330.55 1507.8 Q1326.38 1507.8 1322.43 1508.8 Q1318.49 1509.8 1314.84 1511.79 L1314.84 1504.41 Q1319.22 1502.72 1323.35 1501.9 Q1327.47 1501.03 1331.38 1501.03 Q1341.92 1501.03 1347.13 1506.5 Q1352.34 1511.97 1352.34 1523.08 Z" fill="#000000" fill-rule="evenodd" fill-opacity="1" /><path clip-path="url(#clip720)" d="M1389.01 1555.33 Q1385.63 1564.01 1382.42 1566.65 Q1379.21 1569.3 1373.82 1569.3 L1367.44 1569.3 L1367.44 1562.62 L1372.13 1562.62 Q1375.43 1562.62 1377.25 1561.05 Q1379.08 1559.49 1381.29 1553.68 L1382.72 1550.03 L1363.06 1502.2 L1371.52 1502.2 L1386.71 1540.22 L1401.9 1502.2 L1410.37 1502.2 L1389.01 1555.33 Z" fill="#000000" fill-rule="evenodd" fill-opacity="1" /><polyline clip-path="url(#clip722)" style="stroke:#000000; stroke-linecap:round; stroke-linejoin:round; stroke-width:2; stroke-opacity:0.1; fill:none" points="
  347.541,1080.78 1952.76,1080.78 
  "/>
<polyline clip-path="url(#clip722)" style="stroke:#000000; stroke-linecap:round; stroke-linejoin:round; stroke-width:2; stroke-opacity:0.1; fill:none" points="
  347.541,833.579 1952.76,833.579 
  "/>
<polyline clip-path="url(#clip722)" style="stroke:#000000; stroke-linecap:round; stroke-linejoin:round; stroke-width:2; stroke-opacity:0.1; fill:none" points="
  347.541,586.374 1952.76,586.374 
  "/>
<polyline clip-path="url(#clip722)" style="stroke:#000000; stroke-linecap:round; stroke-linejoin:round; stroke-width:2; stroke-opacity:0.1; fill:none" points="
  347.541,339.169 1952.76,339.169 
  "/>
<polyline clip-path="url(#clip722)" style="stroke:#000000; stroke-linecap:round; stroke-linejoin:round; stroke-width:2; stroke-opacity:0.1; fill:none" points="
  347.541,91.9635 1952.76,91.9635 
  "/>
<polyline clip-path="url(#clip722)" style="stroke:#000000; stroke-linecap:round; stroke-linejoin:round; stroke-width:2; stroke-opacity:0.05; fill:none" points="
  347.541,1266.19 1952.76,1266.19 
  "/>
<polyline clip-path="url(#clip722)" style="stroke:#000000; stroke-linecap:round; stroke-linejoin:round; stroke-width:2; stroke-opacity:0.05; fill:none" points="
  347.541,1204.39 1952.76,1204.39 
  "/>
<polyline clip-path="url(#clip722)" style="stroke:#000000; stroke-linecap:round; stroke-linejoin:round; stroke-width:2; stroke-opacity:0.05; fill:none" points="
  347.541,1142.58 1952.76,1142.58 
  "/>
<polyline clip-path="url(#clip722)" style="stroke:#000000; stroke-linecap:round; stroke-linejoin:round; stroke-width:2; stroke-opacity:0.05; fill:none" points="
  347.541,1018.98 1952.76,1018.98 
  "/>
<polyline clip-path="url(#clip722)" style="stroke:#000000; stroke-linecap:round; stroke-linejoin:round; stroke-width:2; stroke-opacity:0.05; fill:none" points="
  347.541,957.181 1952.76,957.181 
  "/>
<polyline clip-path="url(#clip722)" style="stroke:#000000; stroke-linecap:round; stroke-linejoin:round; stroke-width:2; stroke-opacity:0.05; fill:none" points="
  347.541,895.38 1952.76,895.38 
  "/>
<polyline clip-path="url(#clip722)" style="stroke:#000000; stroke-linecap:round; stroke-linejoin:round; stroke-width:2; stroke-opacity:0.05; fill:none" points="
  347.541,771.777 1952.76,771.777 
  "/>
<polyline clip-path="url(#clip722)" style="stroke:#000000; stroke-linecap:round; stroke-linejoin:round; stroke-width:2; stroke-opacity:0.05; fill:none" points="
  347.541,709.976 1952.76,709.976 
  "/>
<polyline clip-path="url(#clip722)" style="stroke:#000000; stroke-linecap:round; stroke-linejoin:round; stroke-width:2; stroke-opacity:0.05; fill:none" points="
  347.541,648.175 1952.76,648.175 
  "/>
<polyline clip-path="url(#clip722)" style="stroke:#000000; stroke-linecap:round; stroke-linejoin:round; stroke-width:2; stroke-opacity:0.05; fill:none" points="
  347.541,524.572 1952.76,524.572 
  "/>
<polyline clip-path="url(#clip722)" style="stroke:#000000; stroke-linecap:round; stroke-linejoin:round; stroke-width:2; stroke-opacity:0.05; fill:none" points="
  347.541,462.771 1952.76,462.771 
  "/>
<polyline clip-path="url(#clip722)" style="stroke:#000000; stroke-linecap:round; stroke-linejoin:round; stroke-width:2; stroke-opacity:0.05; fill:none" points="
  347.541,400.97 1952.76,400.97 
  "/>
<polyline clip-path="url(#clip722)" style="stroke:#000000; stroke-linecap:round; stroke-linejoin:round; stroke-width:2; stroke-opacity:0.05; fill:none" points="
  347.541,277.367 1952.76,277.367 
  "/>
<polyline clip-path="url(#clip722)" style="stroke:#000000; stroke-linecap:round; stroke-linejoin:round; stroke-width:2; stroke-opacity:0.05; fill:none" points="
  347.541,215.566 1952.76,215.566 
  "/>
<polyline clip-path="url(#clip722)" style="stroke:#000000; stroke-linecap:round; stroke-linejoin:round; stroke-width:2; stroke-opacity:0.05; fill:none" points="
  347.541,153.765 1952.76,153.765 
  "/>
<polyline clip-path="url(#clip720)" style="stroke:#000000; stroke-linecap:round; stroke-linejoin:round; stroke-width:4; stroke-opacity:1; fill:none" points="
  392.972,1365.29 392.972,47.2441 
  "/>
<polyline clip-path="url(#clip720)" style="stroke:#000000; stroke-linecap:round; stroke-linejoin:round; stroke-width:4; stroke-opacity:1; fill:none" points="
  374.074,1080.78 411.869,1080.78 
  "/>
<polyline clip-path="url(#clip720)" style="stroke:#000000; stroke-linecap:round; stroke-linejoin:round; stroke-width:4; stroke-opacity:1; fill:none" points="
  374.074,833.579 411.869,833.579 
  "/>
<polyline clip-path="url(#clip720)" style="stroke:#000000; stroke-linecap:round; stroke-linejoin:round; stroke-width:4; stroke-opacity:1; fill:none" points="
  374.074,586.374 411.869,586.374 
  "/>
<polyline clip-path="url(#clip720)" style="stroke:#000000; stroke-linecap:round; stroke-linejoin:round; stroke-width:4; stroke-opacity:1; fill:none" points="
  374.074,339.169 411.869,339.169 
  "/>
<polyline clip-path="url(#clip720)" style="stroke:#000000; stroke-linecap:round; stroke-linejoin:round; stroke-width:4; stroke-opacity:1; fill:none" points="
  374.074,91.9635 411.869,91.9635 
  "/>
<polyline clip-path="url(#clip720)" style="stroke:#000000; stroke-linecap:round; stroke-linejoin:round; stroke-width:4; stroke-opacity:1; fill:none" points="
  383.523,1266.19 402.42,1266.19 
  "/>
<polyline clip-path="url(#clip720)" style="stroke:#000000; stroke-linecap:round; stroke-linejoin:round; stroke-width:4; stroke-opacity:1; fill:none" points="
  383.523,1204.39 402.42,1204.39 
  "/>
<polyline clip-path="url(#clip720)" style="stroke:#000000; stroke-linecap:round; stroke-linejoin:round; stroke-width:4; stroke-opacity:1; fill:none" points="
  383.523,1142.58 402.42,1142.58 
  "/>
<polyline clip-path="url(#clip720)" style="stroke:#000000; stroke-linecap:round; stroke-linejoin:round; stroke-width:4; stroke-opacity:1; fill:none" points="
  383.523,1018.98 402.42,1018.98 
  "/>
<polyline clip-path="url(#clip720)" style="stroke:#000000; stroke-linecap:round; stroke-linejoin:round; stroke-width:4; stroke-opacity:1; fill:none" points="
  383.523,957.181 402.42,957.181 
  "/>
<polyline clip-path="url(#clip720)" style="stroke:#000000; stroke-linecap:round; stroke-linejoin:round; stroke-width:4; stroke-opacity:1; fill:none" points="
  383.523,895.38 402.42,895.38 
  "/>
<polyline clip-path="url(#clip720)" style="stroke:#000000; stroke-linecap:round; stroke-linejoin:round; stroke-width:4; stroke-opacity:1; fill:none" points="
  383.523,771.777 402.42,771.777 
  "/>
<polyline clip-path="url(#clip720)" style="stroke:#000000; stroke-linecap:round; stroke-linejoin:round; stroke-width:4; stroke-opacity:1; fill:none" points="
  383.523,709.976 402.42,709.976 
  "/>
<polyline clip-path="url(#clip720)" style="stroke:#000000; stroke-linecap:round; stroke-linejoin:round; stroke-width:4; stroke-opacity:1; fill:none" points="
  383.523,648.175 402.42,648.175 
  "/>
<polyline clip-path="url(#clip720)" style="stroke:#000000; stroke-linecap:round; stroke-linejoin:round; stroke-width:4; stroke-opacity:1; fill:none" points="
  383.523,524.572 402.42,524.572 
  "/>
<polyline clip-path="url(#clip720)" style="stroke:#000000; stroke-linecap:round; stroke-linejoin:round; stroke-width:4; stroke-opacity:1; fill:none" points="
  383.523,462.771 402.42,462.771 
  "/>
<polyline clip-path="url(#clip720)" style="stroke:#000000; stroke-linecap:round; stroke-linejoin:round; stroke-width:4; stroke-opacity:1; fill:none" points="
  383.523,400.97 402.42,400.97 
  "/>
<polyline clip-path="url(#clip720)" style="stroke:#000000; stroke-linecap:round; stroke-linejoin:round; stroke-width:4; stroke-opacity:1; fill:none" points="
  383.523,277.367 402.42,277.367 
  "/>
<polyline clip-path="url(#clip720)" style="stroke:#000000; stroke-linecap:round; stroke-linejoin:round; stroke-width:4; stroke-opacity:1; fill:none" points="
  383.523,215.566 402.42,215.566 
  "/>
<polyline clip-path="url(#clip720)" style="stroke:#000000; stroke-linecap:round; stroke-linejoin:round; stroke-width:4; stroke-opacity:1; fill:none" points="
  383.523,153.765 402.42,153.765 
  "/>
<path clip-path="url(#clip720)" d="M239.639 1054.86 L267.173 1054.86 L267.173 1060.77 L246.062 1060.77 L246.062 1073.47 Q247.59 1072.95 249.118 1072.71 Q250.646 1072.43 252.174 1072.43 Q260.854 1072.43 265.923 1077.19 Q270.993 1081.95 270.993 1090.07 Q270.993 1098.44 265.785 1103.09 Q260.576 1107.71 251.097 1107.71 Q247.833 1107.71 244.43 1107.15 Q241.062 1106.6 237.451 1105.49 L237.451 1098.44 Q240.576 1100.14 243.91 1100.97 Q247.243 1101.81 250.958 1101.81 Q256.965 1101.81 260.472 1098.65 Q263.979 1095.49 263.979 1090.07 Q263.979 1084.66 260.472 1081.5 Q256.965 1078.34 250.958 1078.34 Q248.146 1078.34 245.333 1078.96 Q242.555 1079.59 239.639 1080.91 L239.639 1054.86 Z" fill="#000000" fill-rule="evenodd" fill-opacity="1" /><path clip-path="url(#clip720)" d="M299.812 1059.48 Q294.395 1059.48 291.652 1064.83 Q288.944 1070.14 288.944 1080.84 Q288.944 1091.5 291.652 1096.84 Q294.395 1102.15 299.812 1102.15 Q305.263 1102.15 307.972 1096.84 Q310.715 1091.5 310.715 1080.84 Q310.715 1070.14 307.972 1064.83 Q305.263 1059.48 299.812 1059.48 M299.812 1053.93 Q308.527 1053.93 313.111 1060.84 Q317.729 1067.71 317.729 1080.84 Q317.729 1093.93 313.111 1100.84 Q308.527 1107.71 299.812 1107.71 Q291.097 1107.71 286.479 1100.84 Q281.896 1093.93 281.896 1080.84 Q281.896 1067.71 286.479 1060.84 Q291.097 1053.93 299.812 1053.93 Z" fill="#000000" fill-rule="evenodd" fill-opacity="1" /><path clip-path="url(#clip720)" d="M345.055 1059.48 Q339.638 1059.48 336.895 1064.83 Q334.187 1070.14 334.187 1080.84 Q334.187 1091.5 336.895 1096.84 Q339.638 1102.15 345.055 1102.15 Q350.506 1102.15 353.215 1096.84 Q355.958 1091.5 355.958 1080.84 Q355.958 1070.14 353.215 1064.83 Q350.506 1059.48 345.055 1059.48 M345.055 1053.93 Q353.77 1053.93 358.353 1060.84 Q362.972 1067.71 362.972 1080.84 Q362.972 1093.93 358.353 1100.84 Q353.77 1107.71 345.055 1107.71 Q336.34 1107.71 331.722 1100.84 Q327.138 1093.93 327.138 1080.84 Q327.138 1067.71 331.722 1060.84 Q336.34 1053.93 345.055 1053.93 Z" fill="#000000" fill-rule="evenodd" fill-opacity="1" /><path clip-path="url(#clip720)" d="M195.542 853.596 L207 853.596 L207 814.047 L194.535 816.547 L194.535 810.159 L206.931 807.659 L213.945 807.659 L213.945 853.596 L225.403 853.596 L225.403 859.499 L195.542 859.499 L195.542 853.596 Z" fill="#000000" fill-rule="evenodd" fill-opacity="1" /><path clip-path="url(#clip720)" d="M254.569 812.277 Q249.153 812.277 246.41 817.624 Q243.701 822.936 243.701 833.631 Q243.701 844.29 246.41 849.637 Q249.153 854.95 254.569 854.95 Q260.021 854.95 262.729 849.637 Q265.472 844.29 265.472 833.631 Q265.472 822.936 262.729 817.624 Q260.021 812.277 254.569 812.277 M254.569 806.721 Q263.285 806.721 267.868 813.631 Q272.486 820.506 272.486 833.631 Q272.486 846.721 267.868 853.631 Q263.285 860.505 254.569 860.505 Q245.854 860.505 241.236 853.631 Q236.653 846.721 236.653 833.631 Q236.653 820.506 241.236 813.631 Q245.854 806.721 254.569 806.721 Z" fill="#000000" fill-rule="evenodd" fill-opacity="1" /><path clip-path="url(#clip720)" d="M299.812 812.277 Q294.395 812.277 291.652 817.624 Q288.944 822.936 288.944 833.631 Q288.944 844.29 291.652 849.637 Q294.395 854.95 299.812 854.95 Q305.263 854.95 307.972 849.637 Q310.715 844.29 310.715 833.631 Q310.715 822.936 307.972 817.624 Q305.263 812.277 299.812 812.277 M299.812 806.721 Q308.527 806.721 313.111 813.631 Q317.729 820.506 317.729 833.631 Q317.729 846.721 313.111 853.631 Q308.527 860.505 299.812 860.505 Q291.097 860.505 286.479 853.631 Q281.896 846.721 281.896 833.631 Q281.896 820.506 286.479 813.631 Q291.097 806.721 299.812 806.721 Z" fill="#000000" fill-rule="evenodd" fill-opacity="1" /><path clip-path="url(#clip720)" d="M345.055 812.277 Q339.638 812.277 336.895 817.624 Q334.187 822.936 334.187 833.631 Q334.187 844.29 336.895 849.637 Q339.638 854.95 345.055 854.95 Q350.506 854.95 353.215 849.637 Q355.958 844.29 355.958 833.631 Q355.958 822.936 353.215 817.624 Q350.506 812.277 345.055 812.277 M345.055 806.721 Q353.77 806.721 358.353 813.631 Q362.972 820.506 362.972 833.631 Q362.972 846.721 358.353 853.631 Q353.77 860.505 345.055 860.505 Q336.34 860.505 331.722 853.631 Q327.138 846.721 327.138 833.631 Q327.138 820.506 331.722 813.631 Q336.34 806.721 345.055 806.721 Z" fill="#000000" fill-rule="evenodd" fill-opacity="1" /><path clip-path="url(#clip720)" d="M195.542 606.391 L207 606.391 L207 566.842 L194.535 569.342 L194.535 562.954 L206.931 560.454 L213.945 560.454 L213.945 606.391 L225.403 606.391 L225.403 612.294 L195.542 612.294 L195.542 606.391 Z" fill="#000000" fill-rule="evenodd" fill-opacity="1" /><path clip-path="url(#clip720)" d="M239.639 560.454 L267.173 560.454 L267.173 566.356 L246.062 566.356 L246.062 579.065 Q247.59 578.544 249.118 578.301 Q250.646 578.023 252.174 578.023 Q260.854 578.023 265.923 582.78 Q270.993 587.537 270.993 595.662 Q270.993 604.03 265.785 608.682 Q260.576 613.3 251.097 613.3 Q247.833 613.3 244.43 612.745 Q241.062 612.189 237.451 611.078 L237.451 604.03 Q240.576 605.731 243.91 606.564 Q247.243 607.398 250.958 607.398 Q256.965 607.398 260.472 604.238 Q263.979 601.078 263.979 595.662 Q263.979 590.245 260.472 587.085 Q256.965 583.926 250.958 583.926 Q248.146 583.926 245.333 584.551 Q242.555 585.176 239.639 586.495 L239.639 560.454 Z" fill="#000000" fill-rule="evenodd" fill-opacity="1" /><path clip-path="url(#clip720)" d="M299.812 565.072 Q294.395 565.072 291.652 570.419 Q288.944 575.731 288.944 586.426 Q288.944 597.085 291.652 602.432 Q294.395 607.745 299.812 607.745 Q305.263 607.745 307.972 602.432 Q310.715 597.085 310.715 586.426 Q310.715 575.731 307.972 570.419 Q305.263 565.072 299.812 565.072 M299.812 559.516 Q308.527 559.516 313.111 566.426 Q317.729 573.301 317.729 586.426 Q317.729 599.516 313.111 606.426 Q308.527 613.3 299.812 613.3 Q291.097 613.3 286.479 606.426 Q281.896 599.516 281.896 586.426 Q281.896 573.301 286.479 566.426 Q291.097 559.516 299.812 559.516 Z" fill="#000000" fill-rule="evenodd" fill-opacity="1" /><path clip-path="url(#clip720)" d="M345.055 565.072 Q339.638 565.072 336.895 570.419 Q334.187 575.731 334.187 586.426 Q334.187 597.085 336.895 602.432 Q339.638 607.745 345.055 607.745 Q350.506 607.745 353.215 602.432 Q355.958 597.085 355.958 586.426 Q355.958 575.731 353.215 570.419 Q350.506 565.072 345.055 565.072 M345.055 559.516 Q353.77 559.516 358.353 566.426 Q362.972 573.301 362.972 586.426 Q362.972 599.516 358.353 606.426 Q353.77 613.3 345.055 613.3 Q336.34 613.3 331.722 606.426 Q327.138 599.516 327.138 586.426 Q327.138 573.301 331.722 566.426 Q336.34 559.516 345.055 559.516 Z" fill="#000000" fill-rule="evenodd" fill-opacity="1" /><path clip-path="url(#clip720)" d="M200.368 359.186 L224.847 359.186 L224.847 365.089 L191.931 365.089 L191.931 359.186 Q195.924 355.054 202.799 348.109 Q209.708 341.13 211.479 339.116 Q214.847 335.332 216.167 332.728 Q217.521 330.089 217.521 327.554 Q217.521 323.422 214.604 320.818 Q211.722 318.214 207.07 318.214 Q203.771 318.214 200.09 319.36 Q196.445 320.505 192.278 322.832 L192.278 315.748 Q196.514 314.047 200.195 313.179 Q203.875 312.311 206.931 312.311 Q214.986 312.311 219.778 316.339 Q224.569 320.367 224.569 327.103 Q224.569 330.297 223.354 333.179 Q222.174 336.026 219.014 339.915 Q218.146 340.922 213.493 345.748 Q208.84 350.54 200.368 359.186 Z" fill="#000000" fill-rule="evenodd" fill-opacity="1" /><path clip-path="url(#clip720)" d="M254.569 317.867 Q249.153 317.867 246.41 323.214 Q243.701 328.526 243.701 339.221 Q243.701 349.88 246.41 355.227 Q249.153 360.54 254.569 360.54 Q260.021 360.54 262.729 355.227 Q265.472 349.88 265.472 339.221 Q265.472 328.526 262.729 323.214 Q260.021 317.867 254.569 317.867 M254.569 312.311 Q263.285 312.311 267.868 319.221 Q272.486 326.096 272.486 339.221 Q272.486 352.311 267.868 359.22 Q263.285 366.095 254.569 366.095 Q245.854 366.095 241.236 359.22 Q236.653 352.311 236.653 339.221 Q236.653 326.096 241.236 319.221 Q245.854 312.311 254.569 312.311 Z" fill="#000000" fill-rule="evenodd" fill-opacity="1" /><path clip-path="url(#clip720)" d="M299.812 317.867 Q294.395 317.867 291.652 323.214 Q288.944 328.526 288.944 339.221 Q288.944 349.88 291.652 355.227 Q294.395 360.54 299.812 360.54 Q305.263 360.54 307.972 355.227 Q310.715 349.88 310.715 339.221 Q310.715 328.526 307.972 323.214 Q305.263 317.867 299.812 317.867 M299.812 312.311 Q308.527 312.311 313.111 319.221 Q317.729 326.096 317.729 339.221 Q317.729 352.311 313.111 359.22 Q308.527 366.095 299.812 366.095 Q291.097 366.095 286.479 359.22 Q281.896 352.311 281.896 339.221 Q281.896 326.096 286.479 319.221 Q291.097 312.311 299.812 312.311 Z" fill="#000000" fill-rule="evenodd" fill-opacity="1" /><path clip-path="url(#clip720)" d="M345.055 317.867 Q339.638 317.867 336.895 323.214 Q334.187 328.526 334.187 339.221 Q334.187 349.88 336.895 355.227 Q339.638 360.54 345.055 360.54 Q350.506 360.54 353.215 355.227 Q355.958 349.88 355.958 339.221 Q355.958 328.526 353.215 323.214 Q350.506 317.867 345.055 317.867 M345.055 312.311 Q353.77 312.311 358.353 319.221 Q362.972 326.096 362.972 339.221 Q362.972 352.311 358.353 359.22 Q353.77 366.095 345.055 366.095 Q336.34 366.095 331.722 359.22 Q327.138 352.311 327.138 339.221 Q327.138 326.096 331.722 319.221 Q336.34 312.311 345.055 312.311 Z" fill="#000000" fill-rule="evenodd" fill-opacity="1" /><path clip-path="url(#clip720)" d="M200.368 111.981 L224.847 111.981 L224.847 117.883 L191.931 117.883 L191.931 111.981 Q195.924 107.849 202.799 100.904 Q209.708 93.9253 211.479 91.9114 Q214.847 88.1267 216.167 85.5225 Q217.521 82.8837 217.521 80.349 Q217.521 76.217 214.604 73.6129 Q211.722 71.0087 207.07 71.0087 Q203.771 71.0087 200.09 72.1546 Q196.445 73.3004 192.278 75.6268 L192.278 68.5435 Q196.514 66.8421 200.195 65.974 Q203.875 65.106 206.931 65.106 Q214.986 65.106 219.778 69.1337 Q224.569 73.1615 224.569 79.8976 Q224.569 83.092 223.354 85.9739 Q222.174 88.8211 219.014 92.71 Q218.146 93.7169 213.493 98.5433 Q208.84 103.335 200.368 111.981 Z" fill="#000000" fill-rule="evenodd" fill-opacity="1" /><path clip-path="url(#clip720)" d="M239.639 66.0435 L267.173 66.0435 L267.173 71.9462 L246.062 71.9462 L246.062 84.6545 Q247.59 84.1337 249.118 83.8906 Q250.646 83.6128 252.174 83.6128 Q260.854 83.6128 265.923 88.3698 Q270.993 93.1267 270.993 101.252 Q270.993 109.62 265.785 114.272 Q260.576 118.89 251.097 118.89 Q247.833 118.89 244.43 118.335 Q241.062 117.779 237.451 116.668 L237.451 109.62 Q240.576 111.321 243.91 112.154 Q247.243 112.988 250.958 112.988 Q256.965 112.988 260.472 109.828 Q263.979 106.668 263.979 101.252 Q263.979 95.835 260.472 92.6753 Q256.965 89.5156 250.958 89.5156 Q248.146 89.5156 245.333 90.1406 Q242.555 90.7656 239.639 92.085 L239.639 66.0435 Z" fill="#000000" fill-rule="evenodd" fill-opacity="1" /><path clip-path="url(#clip720)" d="M299.812 70.6615 Q294.395 70.6615 291.652 76.0087 Q288.944 81.3212 288.944 92.0156 Q288.944 102.675 291.652 108.022 Q294.395 113.335 299.812 113.335 Q305.263 113.335 307.972 108.022 Q310.715 102.675 310.715 92.0156 Q310.715 81.3212 307.972 76.0087 Q305.263 70.6615 299.812 70.6615 M299.812 65.106 Q308.527 65.106 313.111 72.0157 Q317.729 78.8906 317.729 92.0156 Q317.729 105.106 313.111 112.015 Q308.527 118.89 299.812 118.89 Q291.097 118.89 286.479 112.015 Q281.896 105.106 281.896 92.0156 Q281.896 78.8906 286.479 72.0157 Q291.097 65.106 299.812 65.106 Z" fill="#000000" fill-rule="evenodd" fill-opacity="1" /><path clip-path="url(#clip720)" d="M345.055 70.6615 Q339.638 70.6615 336.895 76.0087 Q334.187 81.3212 334.187 92.0156 Q334.187 102.675 336.895 108.022 Q339.638 113.335 345.055 113.335 Q350.506 113.335 353.215 108.022 Q355.958 102.675 355.958 92.0156 Q355.958 81.3212 353.215 76.0087 Q350.506 70.6615 345.055 70.6615 M345.055 65.106 Q353.77 65.106 358.353 72.0157 Q362.972 78.8906 362.972 92.0156 Q362.972 105.106 358.353 112.015 Q353.77 118.89 345.055 118.89 Q336.34 118.89 331.722 112.015 Q327.138 105.106 327.138 92.0156 Q327.138 78.8906 331.722 72.0157 Q336.34 65.106 345.055 65.106 Z" fill="#000000" fill-rule="evenodd" fill-opacity="1" /><path clip-path="url(#clip720)" d="M39.465 1037.06 L89.8553 1037.06 L89.8553 1026.47 Q89.8553 1013.06 83.779 1006.85 Q77.7026 1000.6 64.5951 1000.6 Q51.5743 1000.6 45.5413 1006.85 Q39.465 1013.06 39.465 1026.47 L39.465 1037.06 M32.2602 1045.83 L32.2602 1027.82 Q32.2602 1008.98 40.116 1000.17 Q47.9285 991.358 64.5951 991.358 Q81.3484 991.358 89.2043 1000.21 Q97.0602 1009.07 97.0602 1027.82 L97.0602 1045.83 L32.2602 1045.83 Z" fill="#000000" fill-rule="evenodd" fill-opacity="1" /><path clip-path="url(#clip720)" d="M70.7582 936.15 L74.6644 936.15 L74.6644 972.868 Q82.9109 972.347 87.2512 967.92 Q91.548 963.45 91.548 955.507 Q91.548 950.906 90.4196 946.61 Q89.2911 942.269 87.0342 938.016 L94.5862 938.016 Q96.4091 942.313 97.364 946.827 Q98.3188 951.34 98.3188 955.985 Q98.3188 967.616 91.548 974.431 Q84.7772 981.201 73.2322 981.201 Q61.2965 981.201 54.3087 974.778 Q47.2774 968.311 47.2774 957.373 Q47.2774 947.564 53.6142 941.879 Q59.9076 936.15 70.7582 936.15 M68.4145 944.136 Q61.8607 944.222 57.9545 947.825 Q54.0482 951.384 54.0482 957.287 Q54.0482 963.971 57.8243 968.007 Q61.6003 972 68.4579 972.608 L68.4145 944.136 Z" fill="#000000" fill-rule="evenodd" fill-opacity="1" /><path clip-path="url(#clip720)" d="M57.7809 885.195 Q52.3989 882.2 49.8382 878.034 Q47.2774 873.867 47.2774 868.225 Q47.2774 860.629 52.616 856.506 Q57.9111 852.383 67.72 852.383 L97.0602 852.383 L97.0602 860.412 L67.9805 860.412 Q60.9926 860.412 57.6072 862.886 Q54.2218 865.36 54.2218 870.438 Q54.2218 876.645 58.3451 880.247 Q62.4683 883.849 69.5863 883.849 L97.0602 883.849 L97.0602 891.879 L67.9805 891.879 Q60.9492 891.879 57.6072 894.353 Q54.2218 896.827 54.2218 901.992 Q54.2218 908.112 58.3885 911.714 Q62.5117 915.316 69.5863 915.316 L97.0602 915.316 L97.0602 923.346 L48.4493 923.346 L48.4493 915.316 L56.0013 915.316 Q51.5309 912.582 49.4042 908.763 Q47.2774 904.943 47.2774 899.691 Q47.2774 894.396 49.9684 890.707 Q52.6594 886.974 57.7809 885.195 Z" fill="#000000" fill-rule="evenodd" fill-opacity="1" /><path clip-path="url(#clip720)" d="M72.6245 814.362 Q72.6245 824.041 74.8381 827.773 Q77.0516 831.506 82.3901 831.506 Q86.6435 831.506 89.1609 828.728 Q91.6348 825.907 91.6348 821.089 Q91.6348 814.449 86.9474 810.456 Q82.2165 806.419 74.404 806.419 L72.6245 806.419 L72.6245 814.362 M69.3259 798.433 L97.0602 798.433 L97.0602 806.419 L89.6817 806.419 Q94.1088 809.154 96.2355 813.234 Q98.3188 817.313 98.3188 823.216 Q98.3188 830.681 94.1522 835.108 Q89.9421 839.492 82.9109 839.492 Q74.7078 839.492 70.5412 834.023 Q66.3746 828.511 66.3746 817.617 L66.3746 806.419 L65.5933 806.419 Q60.0812 806.419 57.0864 810.065 Q54.0482 813.668 54.0482 820.221 Q54.0482 824.388 55.0465 828.338 Q56.0448 832.287 58.0413 835.933 L50.6628 835.933 Q48.9701 831.549 48.1455 827.426 Q47.2774 823.303 47.2774 819.397 Q47.2774 808.85 52.7462 803.642 Q58.2149 798.433 69.3259 798.433 Z" fill="#000000" fill-rule="evenodd" fill-opacity="1" /><path clip-path="url(#clip720)" d="M67.72 741.576 L97.0602 741.576 L97.0602 749.562 L67.9805 749.562 Q61.0794 749.562 57.6506 752.253 Q54.2218 754.944 54.2218 760.326 Q54.2218 766.793 58.3451 770.525 Q62.4683 774.258 69.5863 774.258 L97.0602 774.258 L97.0602 782.288 L48.4493 782.288 L48.4493 774.258 L56.0013 774.258 Q51.6177 771.393 49.4476 767.531 Q47.2774 763.624 47.2774 758.546 Q47.2774 750.17 52.4857 745.873 Q57.6506 741.576 67.72 741.576 Z" fill="#000000" fill-rule="evenodd" fill-opacity="1" /><path clip-path="url(#clip720)" d="M55.8277 693.66 L29.5258 693.66 L29.5258 685.673 L97.0602 685.673 L97.0602 693.66 L89.7685 693.66 Q94.1088 696.177 96.2355 700.04 Q98.3188 703.859 98.3188 709.241 Q98.3188 718.052 91.2876 723.607 Q84.2564 729.119 72.7981 729.119 Q61.3399 729.119 54.3087 723.607 Q47.2774 718.052 47.2774 709.241 Q47.2774 703.859 49.4042 700.04 Q51.4875 696.177 55.8277 693.66 M72.7981 720.873 Q81.6089 720.873 86.6435 717.271 Q91.6348 713.625 91.6348 707.288 Q91.6348 700.951 86.6435 697.305 Q81.6089 693.66 72.7981 693.66 Q63.9874 693.66 58.9961 697.305 Q53.9614 700.951 53.9614 707.288 Q53.9614 713.625 58.9961 717.271 Q63.9874 720.873 72.7981 720.873 Z" fill="#000000" fill-rule="evenodd" fill-opacity="1" /><path clip-path="url(#clip720)" d="M29.6126 621.785 Q39.5952 627.601 49.3608 630.422 Q59.1263 633.243 69.1523 633.243 Q79.1783 633.243 89.0307 630.422 Q98.8397 627.557 108.779 621.785 L108.779 628.729 Q98.5792 635.24 88.7269 638.495 Q78.8745 641.707 69.1523 641.707 Q59.4736 641.707 49.6646 638.495 Q39.8556 635.283 29.6126 628.729 L29.6126 621.785 Z" fill="#000000" fill-rule="evenodd" fill-opacity="1" /><path clip-path="url(#clip720)" d="M32.2602 605.943 L32.2602 592.879 L76.3571 576.342 L32.2602 559.719 L32.2602 546.655 L97.0602 546.655 L97.0602 555.205 L40.1594 555.205 L84.6036 571.915 L84.6036 580.726 L40.1594 597.436 L97.0602 597.436 L97.0602 605.943 L32.2602 605.943 Z" fill="#000000" fill-rule="evenodd" fill-opacity="1" /><path clip-path="url(#clip720)" d="M32.2602 535.023 L32.2602 526.169 L87.0342 512.541 L32.2602 498.956 L32.2602 489.103 L87.0342 475.475 L32.2602 461.89 L32.2602 452.992 L97.0602 469.268 L97.0602 480.293 L40.8105 493.964 L97.0602 507.766 L97.0602 518.791 L32.2602 535.023 Z" fill="#000000" fill-rule="evenodd" fill-opacity="1" /><path clip-path="url(#clip720)" d="M67.72 401.3 L97.0602 401.3 L97.0602 409.286 L67.9805 409.286 Q61.0794 409.286 57.6506 411.977 Q54.2218 414.668 54.2218 420.05 Q54.2218 426.517 58.3451 430.249 Q62.4683 433.982 69.5863 433.982 L97.0602 433.982 L97.0602 442.012 L29.5258 442.012 L29.5258 433.982 L56.0013 433.982 Q51.6177 431.118 49.4476 427.255 Q47.2774 423.348 47.2774 418.27 Q47.2774 409.894 52.4857 405.597 Q57.6506 401.3 67.72 401.3 Z" fill="#000000" fill-rule="evenodd" fill-opacity="1" /><path clip-path="url(#clip720)" d="M29.6126 386.63 L29.6126 379.686 Q39.8556 373.175 49.6646 369.963 Q59.4736 366.708 69.1523 366.708 Q78.8745 366.708 88.7269 369.963 Q98.5792 373.175 108.779 379.686 L108.779 386.63 Q98.8397 380.857 89.0307 378.036 Q79.1783 375.172 69.1523 375.172 Q59.1263 375.172 49.3608 378.036 Q39.5952 380.857 29.6126 386.63 Z" fill="#000000" fill-rule="evenodd" fill-opacity="1" /><circle clip-path="url(#clip722)" cx="456.07" cy="475.131" r="14.4" fill="#ffd700" fill-rule="evenodd" fill-opacity="1" stroke="#000000" stroke-opacity="1" stroke-width="3.2"/>
<circle clip-path="url(#clip722)" cx="519.168" cy="538.91" r="14.4" fill="#ffd700" fill-rule="evenodd" fill-opacity="1" stroke="#000000" stroke-opacity="1" stroke-width="3.2"/>
<circle clip-path="url(#clip722)" cx="582.266" cy="598.239" r="14.4" fill="#ffd700" fill-rule="evenodd" fill-opacity="1" stroke="#000000" stroke-opacity="1" stroke-width="3.2"/>
<circle clip-path="url(#clip722)" cx="645.364" cy="631.859" r="14.4" fill="#ffd700" fill-rule="evenodd" fill-opacity="1" stroke="#000000" stroke-opacity="1" stroke-width="3.2"/>
<circle clip-path="url(#clip722)" cx="708.462" cy="571.541" r="14.4" fill="#ffd700" fill-rule="evenodd" fill-opacity="1" stroke="#000000" stroke-opacity="1" stroke-width="3.2"/>
<circle clip-path="url(#clip722)" cx="771.56" cy="480.57" r="14.4" fill="#ffd700" fill-rule="evenodd" fill-opacity="1" stroke="#000000" stroke-opacity="1" stroke-width="3.2"/>
<circle clip-path="url(#clip722)" cx="834.658" cy="428.162" r="14.4" fill="#ffd700" fill-rule="evenodd" fill-opacity="1" stroke="#000000" stroke-opacity="1" stroke-width="3.2"/>
<circle clip-path="url(#clip722)" cx="897.756" cy="352.518" r="14.4" fill="#ffd700" fill-rule="evenodd" fill-opacity="1" stroke="#000000" stroke-opacity="1" stroke-width="3.2"/>
<circle clip-path="url(#clip722)" cx="960.854" cy="299.121" r="14.4" fill="#ffd700" fill-rule="evenodd" fill-opacity="1" stroke="#000000" stroke-opacity="1" stroke-width="3.2"/>
<circle clip-path="url(#clip722)" cx="1023.95" cy="239.298" r="14.4" fill="#ffd700" fill-rule="evenodd" fill-opacity="1" stroke="#000000" stroke-opacity="1" stroke-width="3.2"/>
<circle clip-path="url(#clip722)" cx="1087.05" cy="287.255" r="14.4" fill="#ffd700" fill-rule="evenodd" fill-opacity="1" stroke="#000000" stroke-opacity="1" stroke-width="3.2"/>
<circle clip-path="url(#clip722)" cx="1150.15" cy="307.032" r="14.4" fill="#ffd700" fill-rule="evenodd" fill-opacity="1" stroke="#000000" stroke-opacity="1" stroke-width="3.2"/>
<circle clip-path="url(#clip722)" cx="1213.25" cy="316.92" r="14.4" fill="#ffd700" fill-rule="evenodd" fill-opacity="1" stroke="#000000" stroke-opacity="1" stroke-width="3.2"/>
<circle clip-path="url(#clip722)" cx="1276.34" cy="242.759" r="14.4" fill="#ffd700" fill-rule="evenodd" fill-opacity="1" stroke="#000000" stroke-opacity="1" stroke-width="3.2"/>
<circle clip-path="url(#clip722)" cx="1339.44" cy="186.396" r="14.4" fill="#ffd700" fill-rule="evenodd" fill-opacity="1" stroke="#000000" stroke-opacity="1" stroke-width="3.2"/>
<circle clip-path="url(#clip722)" cx="1402.54" cy="146.349" r="14.4" fill="#ffd700" fill-rule="evenodd" fill-opacity="1" stroke="#000000" stroke-opacity="1" stroke-width="3.2"/>
<circle clip-path="url(#clip722)" cx="1465.64" cy="98.8852" r="14.4" fill="#ffd700" fill-rule="evenodd" fill-opacity="1" stroke="#000000" stroke-opacity="1" stroke-width="3.2"/>
<circle clip-path="url(#clip722)" cx="1528.74" cy="84.5473" r="14.4" fill="#ffd700" fill-rule="evenodd" fill-opacity="1" stroke="#000000" stroke-opacity="1" stroke-width="3.2"/>
<circle clip-path="url(#clip722)" cx="1591.83" cy="302.088" r="14.4" fill="#ffd700" fill-rule="evenodd" fill-opacity="1" stroke="#000000" stroke-opacity="1" stroke-width="3.2"/>
<circle clip-path="url(#clip722)" cx="1654.93" cy="336.202" r="14.4" fill="#ffd700" fill-rule="evenodd" fill-opacity="1" stroke="#000000" stroke-opacity="1" stroke-width="3.2"/>
<circle clip-path="url(#clip722)" cx="1718.03" cy="360.923" r="14.4" fill="#ffd700" fill-rule="evenodd" fill-opacity="1" stroke="#000000" stroke-opacity="1" stroke-width="3.2"/>
<circle clip-path="url(#clip722)" cx="1781.13" cy="387.621" r="14.4" fill="#ffd700" fill-rule="evenodd" fill-opacity="1" stroke="#000000" stroke-opacity="1" stroke-width="3.2"/>
<circle clip-path="url(#clip722)" cx="1844.23" cy="405.914" r="14.4" fill="#ffd700" fill-rule="evenodd" fill-opacity="1" stroke="#000000" stroke-opacity="1" stroke-width="3.2"/>
<circle clip-path="url(#clip722)" cx="1907.33" cy="428.162" r="14.4" fill="#ffd700" fill-rule="evenodd" fill-opacity="1" stroke="#000000" stroke-opacity="1" stroke-width="3.2"/>
</svg>
