<?xml version="1.0" encoding="utf-8"?>
<svg xmlns="http://www.w3.org/2000/svg" xmlns:xlink="http://www.w3.org/1999/xlink" width="900" height="500" viewBox="0 0 3600 2000">
<defs>
  <clipPath id="clip900">
    <rect x="0" y="0" width="3600" height="2000"/>
  </clipPath>
</defs>
<path clip-path="url(#clip900)" d="
M0 2000 L3600 2000 L3600 0 L0 0  Z
  " fill="#ffffff" fill-rule="evenodd" fill-opacity="1"/>
<defs>
  <clipPath id="clip901">
    <rect x="720" y="0" width="2521" height="2000"/>
  </clipPath>
</defs>
<path clip-path="url(#clip900)" d="
M511.697 1724.7 L2692.78 1724.7 L2692.78 59.0551 L511.697 59.0551  Z
  " fill="#ffffff" fill-rule="evenodd" fill-opacity="1"/>
<defs>
  <clipPath id="clip902">
    <rect x="511" y="59" width="2182" height="1667"/>
  </clipPath>
</defs>
<polyline clip-path="url(#clip900)" style="stroke:#000000; stroke-linecap:round; stroke-linejoin:round; stroke-width:5; stroke-opacity:1; fill:none" points="
  511.697,1724.7 2692.78,1724.7 
  "/>
<polyline clip-path="url(#clip900)" style="stroke:#000000; stroke-linecap:round; stroke-linejoin:round; stroke-width:5; stroke-opacity:1; fill:none" points="
  916.363,1743.6 916.363,1705.8 
  "/>
<polyline clip-path="url(#clip900)" style="stroke:#000000; stroke-linecap:round; stroke-linejoin:round; stroke-width:5; stroke-opacity:1; fill:none" points="
  1259.3,1743.6 1259.3,1705.8 
  "/>
<polyline clip-path="url(#clip900)" style="stroke:#000000; stroke-linecap:round; stroke-linejoin:round; stroke-width:5; stroke-opacity:1; fill:none" points="
  1602.24,1743.6 1602.24,1705.8 
  "/>
<polyline clip-path="url(#clip900)" style="stroke:#000000; stroke-linecap:round; stroke-linejoin:round; stroke-width:5; stroke-opacity:1; fill:none" points="
  1945.17,1743.6 1945.17,1705.8 
  "/>
<polyline clip-path="url(#clip900)" style="stroke:#000000; stroke-linecap:round; stroke-linejoin:round; stroke-width:5; stroke-opacity:1; fill:none" points="
  2288.11,1743.6 2288.11,1705.8 
  "/>
<polyline clip-path="url(#clip900)" style="stroke:#000000; stroke-linecap:round; stroke-linejoin:round; stroke-width:5; stroke-opacity:1; fill:none" points="
  2631.05,1743.6 2631.05,1705.8 
  "/>
<path clip-path="url(#clip900)" d="M922.476 1779.33 L898.496 1816.8 L922.476 1816.8 L922.476 1779.33 M919.984 1771.05 L931.926 1771.05 L931.926 1816.8 L941.942 1816.8 L941.942 1824.7 L931.926 1824.7 L931.926 1841.25 L922.476 1841.25 L922.476 1824.7 L890.784 1824.7 L890.784 1815.53 L919.984 1771.05 Z" fill="#000000" fill-rule="evenodd" fill-opacity="1" /><path clip-path="url(#clip900)" d="M1259.3 1807.91 Q1252.53 1807.91 1248.63 1811.53 Q1244.77 1815.15 1244.77 1821.5 Q1244.77 1827.85 1248.63 1831.47 Q1252.53 1835.09 1259.3 1835.09 Q1266.07 1835.09 1269.97 1831.47 Q1273.88 1827.8 1273.88 1821.5 Q1273.88 1815.15 1269.97 1811.53 Q1266.12 1807.91 1259.3 1807.91 M1249.8 1803.87 Q1243.69 1802.36 1240.26 1798.18 Q1236.87 1794 1236.87 1787.98 Q1236.87 1779.56 1242.84 1774.67 Q1248.86 1769.78 1259.3 1769.78 Q1269.79 1769.78 1275.76 1774.67 Q1281.73 1779.56 1281.73 1787.98 Q1281.73 1794 1278.3 1798.18 Q1274.91 1802.36 1268.85 1803.87 Q1275.71 1805.47 1279.52 1810.12 Q1283.37 1814.78 1283.37 1821.5 Q1283.37 1831.7 1277.12 1837.16 Q1270.91 1842.61 1259.3 1842.61 Q1247.69 1842.61 1241.43 1837.16 Q1235.23 1831.7 1235.23 1821.5 Q1235.23 1814.78 1239.08 1810.12 Q1242.94 1805.47 1249.8 1803.87 M1246.32 1788.87 Q1246.32 1794.32 1249.71 1797.38 Q1253.14 1800.44 1259.3 1800.44 Q1265.41 1800.44 1268.85 1797.38 Q1272.32 1794.32 1272.32 1788.87 Q1272.32 1783.42 1268.85 1780.36 Q1265.41 1777.3 1259.3 1777.3 Q1253.14 1777.3 1249.71 1780.36 Q1246.32 1783.42 1246.32 1788.87 Z" fill="#000000" fill-rule="evenodd" fill-opacity="1" /><path clip-path="url(#clip900)" d="M1552.44 1833.26 L1567.96 1833.26 L1567.96 1779.7 L1551.08 1783.09 L1551.08 1774.44 L1567.87 1771.05 L1577.36 1771.05 L1577.36 1833.26 L1592.88 1833.26 L1592.88 1841.25 L1552.44 1841.25 L1552.44 1833.26 Z" fill="#000000" fill-rule="evenodd" fill-opacity="1" /><path clip-path="url(#clip900)" d="M1620.25 1833.26 L1653.39 1833.26 L1653.39 1841.25 L1608.82 1841.25 L1608.82 1833.26 Q1614.23 1827.66 1623.54 1818.26 Q1632.89 1808.81 1635.29 1806.08 Q1639.85 1800.95 1641.64 1797.43 Q1643.47 1793.85 1643.47 1790.42 Q1643.47 1784.83 1639.52 1781.3 Q1635.62 1777.77 1629.32 1777.77 Q1624.85 1777.77 1619.87 1779.33 Q1614.93 1780.88 1609.29 1784.03 L1609.29 1774.44 Q1615.03 1772.13 1620.01 1770.96 Q1624.99 1769.78 1629.13 1769.78 Q1640.04 1769.78 1646.53 1775.23 Q1653.02 1780.69 1653.02 1789.81 Q1653.02 1794.14 1651.37 1798.04 Q1649.77 1801.89 1645.5 1807.16 Q1644.32 1808.52 1638.02 1815.06 Q1631.72 1821.55 1620.25 1833.26 Z" fill="#000000" fill-rule="evenodd" fill-opacity="1" /><path clip-path="url(#clip900)" d="M1893.59 1833.26 L1909.11 1833.26 L1909.11 1779.7 L1892.23 1783.09 L1892.23 1774.44 L1909.02 1771.05 L1918.51 1771.05 L1918.51 1833.26 L1934.03 1833.26 L1934.03 1841.25 L1893.59 1841.25 L1893.59 1833.26 Z" fill="#000000" fill-rule="evenodd" fill-opacity="1" /><path clip-path="url(#clip900)" d="M1974.7 1802.36 Q1968.31 1802.36 1964.55 1806.74 Q1960.83 1811.11 1960.83 1818.73 Q1960.83 1826.3 1964.55 1830.72 Q1968.31 1835.09 1974.7 1835.09 Q1981.1 1835.09 1984.81 1830.72 Q1988.57 1826.3 1988.57 1818.73 Q1988.57 1811.11 1984.81 1806.74 Q1981.1 1802.36 1974.7 1802.36 M1993.56 1772.6 L1993.56 1781.25 Q1989.98 1779.56 1986.32 1778.67 Q1982.7 1777.77 1979.12 1777.77 Q1969.72 1777.77 1964.73 1784.12 Q1959.8 1790.47 1959.09 1803.31 Q1961.87 1799.21 1966.05 1797.05 Q1970.24 1794.84 1975.27 1794.84 Q1985.85 1794.84 1991.96 1801.28 Q1998.12 1807.68 1998.12 1818.73 Q1998.12 1829.54 1991.72 1836.08 Q1985.33 1842.61 1974.7 1842.61 Q1962.52 1842.61 1956.08 1833.3 Q1949.64 1823.95 1949.64 1806.22 Q1949.64 1789.58 1957.54 1779.7 Q1965.44 1769.78 1978.75 1769.78 Q1982.32 1769.78 1985.94 1770.49 Q1989.61 1771.19 1993.56 1772.6 Z" fill="#000000" fill-rule="evenodd" fill-opacity="1" /><path clip-path="url(#clip900)" d="M2244.99 1833.26 L2278.14 1833.26 L2278.14 1841.25 L2233.57 1841.25 L2233.57 1833.26 Q2238.98 1827.66 2248.29 1818.26 Q2257.64 1808.81 2260.04 1806.08 Q2264.6 1800.95 2266.39 1797.43 Q2268.22 1793.85 2268.22 1790.42 Q2268.22 1784.83 2264.27 1781.3 Q2260.37 1777.77 2254.07 1777.77 Q2249.6 1777.77 2244.62 1779.33 Q2239.68 1780.88 2234.04 1784.03 L2234.04 1774.44 Q2239.78 1772.13 2244.76 1770.96 Q2249.74 1769.78 2253.88 1769.78 Q2264.79 1769.78 2271.28 1775.23 Q2277.77 1780.69 2277.77 1789.81 Q2277.77 1794.14 2276.12 1798.04 Q2274.52 1801.89 2270.24 1807.16 Q2269.07 1808.52 2262.77 1815.06 Q2256.47 1821.55 2244.99 1833.26 Z" fill="#000000" fill-rule="evenodd" fill-opacity="1" /><path clip-path="url(#clip900)" d="M2318.39 1777.3 Q2311.06 1777.3 2307.34 1784.54 Q2303.67 1791.74 2303.67 1806.22 Q2303.67 1820.66 2307.34 1827.9 Q2311.06 1835.09 2318.39 1835.09 Q2325.77 1835.09 2329.44 1827.9 Q2333.16 1820.66 2333.16 1806.22 Q2333.16 1791.74 2329.44 1784.54 Q2325.77 1777.3 2318.39 1777.3 M2318.39 1769.78 Q2330.19 1769.78 2336.4 1779.14 Q2342.65 1788.45 2342.65 1806.22 Q2342.65 1823.95 2336.4 1833.3 Q2330.19 1842.61 2318.39 1842.61 Q2306.59 1842.61 2300.34 1833.3 Q2294.13 1823.95 2294.13 1806.22 Q2294.13 1788.45 2300.34 1779.14 Q2306.59 1769.78 2318.39 1769.78 Z" fill="#000000" fill-rule="evenodd" fill-opacity="1" /><path clip-path="url(#clip900)" d="M2587.44 1833.26 L2620.59 1833.26 L2620.59 1841.25 L2576.01 1841.25 L2576.01 1833.26 Q2581.42 1827.66 2590.73 1818.26 Q2600.09 1808.81 2602.48 1806.08 Q2607.05 1800.95 2608.83 1797.43 Q2610.67 1793.85 2610.67 1790.42 Q2610.67 1784.83 2606.72 1781.3 Q2602.81 1777.77 2596.51 1777.77 Q2592.05 1777.77 2587.06 1779.33 Q2582.12 1780.88 2576.48 1784.03 L2576.48 1774.44 Q2582.22 1772.13 2587.2 1770.96 Q2592.19 1769.78 2596.32 1769.78 Q2607.23 1769.78 2613.72 1775.23 Q2620.21 1780.69 2620.21 1789.81 Q2620.21 1794.14 2618.56 1798.04 Q2616.97 1801.89 2612.69 1807.16 Q2611.51 1808.52 2605.21 1815.06 Q2598.91 1821.55 2587.44 1833.26 Z" fill="#000000" fill-rule="evenodd" fill-opacity="1" /><path clip-path="url(#clip900)" d="M2666.62 1779.33 L2642.64 1816.8 L2666.62 1816.8 L2666.62 1779.33 M2664.13 1771.05 L2676.07 1771.05 L2676.07 1816.8 L2686.08 1816.8 L2686.08 1824.7 L2676.07 1824.7 L2676.07 1841.25 L2666.62 1841.25 L2666.62 1824.7 L2634.93 1824.7 L2634.93 1815.53 L2664.13 1771.05 Z" fill="#000000" fill-rule="evenodd" fill-opacity="1" /><path clip-path="url(#clip900)" d="M1482.43 1899.12 L1492.66 1899.12 L1492.66 1930.11 L1529.83 1930.11 L1529.83 1899.12 L1540.06 1899.12 L1540.06 1974.72 L1529.83 1974.72 L1529.83 1938.72 L1492.66 1938.72 L1492.66 1974.72 L1482.43 1974.72 L1482.43 1899.12 Z" fill="#000000" fill-rule="evenodd" fill-opacity="1" /><path clip-path="url(#clip900)" d="M1581.98 1924.54 Q1574.49 1924.54 1570.13 1930.41 Q1565.78 1936.24 1565.78 1946.41 Q1565.78 1956.59 1570.08 1962.47 Q1574.44 1968.29 1581.98 1968.29 Q1589.43 1968.29 1593.78 1962.42 Q1598.14 1956.54 1598.14 1946.41 Q1598.14 1936.34 1593.78 1930.46 Q1589.43 1924.54 1581.98 1924.54 M1581.98 1916.64 Q1594.14 1916.64 1601.07 1924.54 Q1608.01 1932.44 1608.01 1946.41 Q1608.01 1960.34 1601.07 1968.29 Q1594.14 1976.19 1581.98 1976.19 Q1569.78 1976.19 1562.84 1968.29 Q1555.96 1960.34 1555.96 1946.41 Q1555.96 1932.44 1562.84 1924.54 Q1569.78 1916.64 1581.98 1916.64 Z" fill="#000000" fill-rule="evenodd" fill-opacity="1" /><path clip-path="url(#clip900)" d="M1622.49 1952.34 L1622.49 1918.01 L1631.81 1918.01 L1631.81 1951.98 Q1631.81 1960.04 1634.95 1964.09 Q1638.09 1968.09 1644.37 1968.09 Q1651.91 1968.09 1656.27 1963.28 Q1660.67 1958.47 1660.67 1950.16 L1660.67 1918.01 L1669.99 1918.01 L1669.99 1974.72 L1660.67 1974.72 L1660.67 1966.01 Q1657.28 1971.18 1652.77 1973.71 Q1648.32 1976.19 1642.39 1976.19 Q1632.62 1976.19 1627.56 1970.11 Q1622.49 1964.04 1622.49 1952.34 M1645.94 1916.64 L1645.94 1916.64 Z" fill="#000000" fill-rule="evenodd" fill-opacity="1" /><path clip-path="url(#clip900)" d="M1722.04 1926.72 Q1720.47 1925.81 1718.6 1925.4 Q1716.78 1924.94 1714.55 1924.94 Q1706.65 1924.94 1702.4 1930.11 Q1698.19 1935.22 1698.19 1944.84 L1698.19 1974.72 L1688.83 1974.72 L1688.83 1918.01 L1698.19 1918.01 L1698.19 1926.82 Q1701.13 1921.65 1705.84 1919.17 Q1710.55 1916.64 1717.28 1916.64 Q1718.24 1916.64 1719.41 1916.79 Q1720.57 1916.89 1721.99 1917.15 L1722.04 1926.72 Z" fill="#000000" fill-rule="evenodd" fill-opacity="1" /><polyline clip-path="url(#clip900)" style="stroke:#000000; stroke-linecap:round; stroke-linejoin:round; stroke-width:5; stroke-opacity:1; fill:none" points="
  573.426,1724.7 573.426,59.0551 
  "/>
<polyline clip-path="url(#clip900)" style="stroke:#000000; stroke-linecap:round; stroke-linejoin:round; stroke-width:5; stroke-opacity:1; fill:none" points="
  559.82,1427.26 587.032,1427.26 
  "/>
<polyline clip-path="url(#clip900)" style="stroke:#000000; stroke-linecap:round; stroke-linejoin:round; stroke-width:5; stroke-opacity:1; fill:none" points="
  559.82,1129.83 587.032,1129.83 
  "/>
<polyline clip-path="url(#clip900)" style="stroke:#000000; stroke-linecap:round; stroke-linejoin:round; stroke-width:5; stroke-opacity:1; fill:none" points="
  559.82,832.39 587.032,832.39 
  "/>
<polyline clip-path="url(#clip900)" style="stroke:#000000; stroke-linecap:round; stroke-linejoin:round; stroke-width:5; stroke-opacity:1; fill:none" points="
  559.82,534.954 587.032,534.954 
  "/>
<polyline clip-path="url(#clip900)" style="stroke:#000000; stroke-linecap:round; stroke-linejoin:round; stroke-width:5; stroke-opacity:1; fill:none" points="
  559.82,237.517 587.032,237.517 
  "/>
<path clip-path="url(#clip900)" d="M352.413 1392.16 L389.699 1392.16 L389.699 1400.16 L361.112 1400.16 L361.112 1417.37 Q363.18 1416.66 365.249 1416.33 Q367.318 1415.96 369.387 1415.96 Q381.142 1415.96 388.007 1422.4 Q394.872 1428.84 394.872 1439.84 Q394.872 1451.17 387.819 1457.47 Q380.766 1463.73 367.929 1463.73 Q363.51 1463.73 358.902 1462.97 Q354.341 1462.22 349.451 1460.72 L349.451 1451.17 Q353.683 1453.48 358.196 1454.61 Q362.71 1455.73 367.741 1455.73 Q375.876 1455.73 380.625 1451.45 Q385.374 1447.18 385.374 1439.84 Q385.374 1432.51 380.625 1428.23 Q375.876 1423.95 367.741 1423.95 Q363.933 1423.95 360.124 1424.79 Q356.363 1425.64 352.413 1427.43 L352.413 1392.16 Z" fill="#000000" fill-rule="evenodd" fill-opacity="1" /><path clip-path="url(#clip900)" d="M433.898 1398.42 Q426.563 1398.42 422.848 1405.66 Q419.181 1412.85 419.181 1427.33 Q419.181 1441.77 422.848 1449.01 Q426.563 1456.2 433.898 1456.2 Q441.28 1456.2 444.947 1449.01 Q448.662 1441.77 448.662 1427.33 Q448.662 1412.85 444.947 1405.66 Q441.28 1398.42 433.898 1398.42 M433.898 1390.89 Q445.7 1390.89 451.906 1400.25 Q458.16 1409.56 458.16 1427.33 Q458.16 1445.06 451.906 1454.42 Q445.7 1463.73 433.898 1463.73 Q422.096 1463.73 415.842 1454.42 Q409.636 1445.06 409.636 1427.33 Q409.636 1409.56 415.842 1400.25 Q422.096 1390.89 433.898 1390.89 Z" fill="#000000" fill-rule="evenodd" fill-opacity="1" /><path clip-path="url(#clip900)" d="M495.164 1398.42 Q487.829 1398.42 484.114 1405.66 Q480.447 1412.85 480.447 1427.33 Q480.447 1441.77 484.114 1449.01 Q487.829 1456.2 495.164 1456.2 Q502.546 1456.2 506.214 1449.01 Q509.928 1441.77 509.928 1427.33 Q509.928 1412.85 506.214 1405.66 Q502.546 1398.42 495.164 1398.42 M495.164 1390.89 Q506.966 1390.89 513.172 1400.25 Q519.426 1409.56 519.426 1427.33 Q519.426 1445.06 513.172 1454.42 Q506.966 1463.73 495.164 1463.73 Q483.362 1463.73 477.108 1454.42 Q470.902 1445.06 470.902 1427.33 Q470.902 1409.56 477.108 1400.25 Q483.362 1390.89 495.164 1390.89 Z" fill="#000000" fill-rule="evenodd" fill-opacity="1" /><path clip-path="url(#clip900)" d="M292.698 1156.93 L308.215 1156.93 L308.215 1103.38 L291.335 1106.76 L291.335 1098.11 L308.121 1094.73 L317.619 1094.73 L317.619 1156.93 L333.135 1156.93 L333.135 1164.93 L292.698 1164.93 L292.698 1156.93 Z" fill="#000000" fill-rule="evenodd" fill-opacity="1" /><path clip-path="url(#clip900)" d="M372.631 1100.98 Q365.296 1100.98 361.582 1108.22 Q357.914 1115.42 357.914 1129.9 Q357.914 1144.33 361.582 1151.57 Q365.296 1158.77 372.631 1158.77 Q380.013 1158.77 383.681 1151.57 Q387.395 1144.33 387.395 1129.9 Q387.395 1115.42 383.681 1108.22 Q380.013 1100.98 372.631 1100.98 M372.631 1093.46 Q384.433 1093.46 390.64 1102.81 Q396.893 1112.12 396.893 1129.9 Q396.893 1147.62 390.64 1156.98 Q384.433 1166.29 372.631 1166.29 Q360.829 1166.29 354.576 1156.98 Q348.369 1147.62 348.369 1129.9 Q348.369 1112.12 354.576 1102.81 Q360.829 1093.46 372.631 1093.46 Z" fill="#000000" fill-rule="evenodd" fill-opacity="1" /><path clip-path="url(#clip900)" d="M433.898 1100.98 Q426.563 1100.98 422.848 1108.22 Q419.181 1115.42 419.181 1129.9 Q419.181 1144.33 422.848 1151.57 Q426.563 1158.77 433.898 1158.77 Q441.28 1158.77 444.947 1151.57 Q448.662 1144.33 448.662 1129.9 Q448.662 1115.42 444.947 1108.22 Q441.28 1100.98 433.898 1100.98 M433.898 1093.46 Q445.7 1093.46 451.906 1102.81 Q458.16 1112.12 458.16 1129.9 Q458.16 1147.62 451.906 1156.98 Q445.7 1166.29 433.898 1166.29 Q422.096 1166.29 415.842 1156.98 Q409.636 1147.62 409.636 1129.9 Q409.636 1112.12 415.842 1102.81 Q422.096 1093.46 433.898 1093.46 Z" fill="#000000" fill-rule="evenodd" fill-opacity="1" /><path clip-path="url(#clip900)" d="M495.164 1100.98 Q487.829 1100.98 484.114 1108.22 Q480.447 1115.42 480.447 1129.9 Q480.447 1144.33 484.114 1151.57 Q487.829 1158.77 495.164 1158.77 Q502.546 1158.77 506.214 1151.57 Q509.928 1144.33 509.928 1129.9 Q509.928 1115.42 506.214 1108.22 Q502.546 1100.98 495.164 1100.98 M495.164 1093.46 Q506.966 1093.46 513.172 1102.81 Q519.426 1112.12 519.426 1129.9 Q519.426 1147.62 513.172 1156.98 Q506.966 1166.29 495.164 1166.29 Q483.362 1166.29 477.108 1156.98 Q470.902 1147.62 470.902 1129.9 Q470.902 1112.12 477.108 1102.81 Q483.362 1093.46 495.164 1093.46 Z" fill="#000000" fill-rule="evenodd" fill-opacity="1" /><path clip-path="url(#clip900)" d="M292.698 859.497 L308.215 859.497 L308.215 805.942 L291.335 809.327 L291.335 800.676 L308.121 797.29 L317.619 797.29 L317.619 859.497 L333.135 859.497 L333.135 867.49 L292.698 867.49 L292.698 859.497 Z" fill="#000000" fill-rule="evenodd" fill-opacity="1" /><path clip-path="url(#clip900)" d="M352.413 797.29 L389.699 797.29 L389.699 805.283 L361.112 805.283 L361.112 822.493 Q363.18 821.787 365.249 821.458 Q367.318 821.082 369.387 821.082 Q381.142 821.082 388.007 827.524 Q394.872 833.965 394.872 844.968 Q394.872 856.3 387.819 862.6 Q380.766 868.854 367.929 868.854 Q363.51 868.854 358.902 868.101 Q354.341 867.349 349.451 865.844 L349.451 856.3 Q353.683 858.603 358.196 859.732 Q362.71 860.86 367.741 860.86 Q375.876 860.86 380.625 856.582 Q385.374 852.303 385.374 844.968 Q385.374 837.633 380.625 833.354 Q375.876 829.075 367.741 829.075 Q363.933 829.075 360.124 829.922 Q356.363 830.768 352.413 832.555 L352.413 797.29 Z" fill="#000000" fill-rule="evenodd" fill-opacity="1" /><path clip-path="url(#clip900)" d="M433.898 803.544 Q426.563 803.544 422.848 810.785 Q419.181 817.979 419.181 832.461 Q419.181 846.896 422.848 854.137 Q426.563 861.331 433.898 861.331 Q441.28 861.331 444.947 854.137 Q448.662 846.896 448.662 832.461 Q448.662 817.979 444.947 810.785 Q441.28 803.544 433.898 803.544 M433.898 796.021 Q445.7 796.021 451.906 805.377 Q458.16 814.687 458.16 832.461 Q458.16 850.187 451.906 859.544 Q445.7 868.854 433.898 868.854 Q422.096 868.854 415.842 859.544 Q409.636 850.187 409.636 832.461 Q409.636 814.687 415.842 805.377 Q422.096 796.021 433.898 796.021 Z" fill="#000000" fill-rule="evenodd" fill-opacity="1" /><path clip-path="url(#clip900)" d="M495.164 803.544 Q487.829 803.544 484.114 810.785 Q480.447 817.979 480.447 832.461 Q480.447 846.896 484.114 854.137 Q487.829 861.331 495.164 861.331 Q502.546 861.331 506.214 854.137 Q509.928 846.896 509.928 832.461 Q509.928 817.979 506.214 810.785 Q502.546 803.544 495.164 803.544 M495.164 796.021 Q506.966 796.021 513.172 805.377 Q519.426 814.687 519.426 832.461 Q519.426 850.187 513.172 859.544 Q506.966 868.854 495.164 868.854 Q483.362 868.854 477.108 859.544 Q470.902 850.187 470.902 832.461 Q470.902 814.687 477.108 805.377 Q483.362 796.021 495.164 796.021 Z" fill="#000000" fill-rule="evenodd" fill-opacity="1" /><path clip-path="url(#clip900)" d="M299.234 562.06 L332.383 562.06 L332.383 570.054 L287.808 570.054 L287.808 562.06 Q293.216 556.465 302.525 547.061 Q311.882 537.61 314.28 534.883 Q318.841 529.758 320.628 526.231 Q322.462 522.658 322.462 519.226 Q322.462 513.63 318.512 510.104 Q314.609 506.577 308.309 506.577 Q303.842 506.577 298.858 508.129 Q293.921 509.681 288.278 512.831 L288.278 503.239 Q294.015 500.935 298.999 499.76 Q303.983 498.584 308.121 498.584 Q319.029 498.584 325.518 504.038 Q332.007 509.493 332.007 518.614 Q332.007 522.94 330.361 526.843 Q328.762 530.698 324.483 535.965 Q323.308 537.328 317.007 543.864 Q310.707 550.352 299.234 562.06 Z" fill="#000000" fill-rule="evenodd" fill-opacity="1" /><path clip-path="url(#clip900)" d="M372.631 506.107 Q365.296 506.107 361.582 513.348 Q357.914 520.542 357.914 535.024 Q357.914 549.459 361.582 556.7 Q365.296 563.894 372.631 563.894 Q380.013 563.894 383.681 556.7 Q387.395 549.459 387.395 535.024 Q387.395 520.542 383.681 513.348 Q380.013 506.107 372.631 506.107 M372.631 498.584 Q384.433 498.584 390.64 507.941 Q396.893 517.251 396.893 535.024 Q396.893 552.75 390.64 562.107 Q384.433 571.417 372.631 571.417 Q360.829 571.417 354.576 562.107 Q348.369 552.75 348.369 535.024 Q348.369 517.251 354.576 507.941 Q360.829 498.584 372.631 498.584 Z" fill="#000000" fill-rule="evenodd" fill-opacity="1" /><path clip-path="url(#clip900)" d="M433.898 506.107 Q426.563 506.107 422.848 513.348 Q419.181 520.542 419.181 535.024 Q419.181 549.459 422.848 556.7 Q426.563 563.894 433.898 563.894 Q441.28 563.894 444.947 556.7 Q448.662 549.459 448.662 535.024 Q448.662 520.542 444.947 513.348 Q441.28 506.107 433.898 506.107 M433.898 498.584 Q445.7 498.584 451.906 507.941 Q458.16 517.251 458.16 535.024 Q458.16 552.75 451.906 562.107 Q445.7 571.417 433.898 571.417 Q422.096 571.417 415.842 562.107 Q409.636 552.75 409.636 535.024 Q409.636 517.251 415.842 507.941 Q422.096 498.584 433.898 498.584 Z" fill="#000000" fill-rule="evenodd" fill-opacity="1" /><path clip-path="url(#clip900)" d="M495.164 506.107 Q487.829 506.107 484.114 513.348 Q480.447 520.542 480.447 535.024 Q480.447 549.459 484.114 556.7 Q487.829 563.894 495.164 563.894 Q502.546 563.894 506.214 556.7 Q509.928 549.459 509.928 535.024 Q509.928 520.542 506.214 513.348 Q502.546 506.107 495.164 506.107 M495.164 498.584 Q506.966 498.584 513.172 507.941 Q519.426 517.251 519.426 535.024 Q519.426 552.75 513.172 562.107 Q506.966 571.417 495.164 571.417 Q483.362 571.417 477.108 562.107 Q470.902 552.75 470.902 535.024 Q470.902 517.251 477.108 507.941 Q483.362 498.584 495.164 498.584 Z" fill="#000000" fill-rule="evenodd" fill-opacity="1" /><path clip-path="url(#clip900)" d="M299.234 264.624 L332.383 264.624 L332.383 272.617 L287.808 272.617 L287.808 264.624 Q293.216 259.028 302.525 249.625 Q311.882 240.174 314.28 237.447 Q318.841 232.321 320.628 228.795 Q322.462 225.221 322.462 221.789 Q322.462 216.194 318.512 212.667 Q314.609 209.141 308.309 209.141 Q303.842 209.141 298.858 210.692 Q293.921 212.244 288.278 215.394 L288.278 205.802 Q294.015 203.498 298.999 202.323 Q303.983 201.148 308.121 201.148 Q319.029 201.148 325.518 206.602 Q332.007 212.056 332.007 221.178 Q332.007 225.504 330.361 229.406 Q328.762 233.262 324.483 238.528 Q323.308 239.892 317.007 246.427 Q310.707 252.916 299.234 264.624 Z" fill="#000000" fill-rule="evenodd" fill-opacity="1" /><path clip-path="url(#clip900)" d="M352.413 202.417 L389.699 202.417 L389.699 210.41 L361.112 210.41 L361.112 227.619 Q363.18 226.914 365.249 226.585 Q367.318 226.209 369.387 226.209 Q381.142 226.209 388.007 232.651 Q394.872 239.092 394.872 250.095 Q394.872 261.426 387.819 267.727 Q380.766 273.981 367.929 273.981 Q363.51 273.981 358.902 273.228 Q354.341 272.476 349.451 270.971 L349.451 261.426 Q353.683 263.73 358.196 264.859 Q362.71 265.987 367.741 265.987 Q375.876 265.987 380.625 261.709 Q385.374 257.43 385.374 250.095 Q385.374 242.76 380.625 238.481 Q375.876 234.202 367.741 234.202 Q363.933 234.202 360.124 235.049 Q356.363 235.895 352.413 237.682 L352.413 202.417 Z" fill="#000000" fill-rule="evenodd" fill-opacity="1" /><path clip-path="url(#clip900)" d="M433.898 208.671 Q426.563 208.671 422.848 215.912 Q419.181 223.106 419.181 237.588 Q419.181 252.023 422.848 259.264 Q426.563 266.458 433.898 266.458 Q441.28 266.458 444.947 259.264 Q448.662 252.023 448.662 237.588 Q448.662 223.106 444.947 215.912 Q441.28 208.671 433.898 208.671 M433.898 201.148 Q445.7 201.148 451.906 210.504 Q458.16 219.814 458.16 237.588 Q458.16 255.314 451.906 264.671 Q445.7 273.981 433.898 273.981 Q422.096 273.981 415.842 264.671 Q409.636 255.314 409.636 237.588 Q409.636 219.814 415.842 210.504 Q422.096 201.148 433.898 201.148 Z" fill="#000000" fill-rule="evenodd" fill-opacity="1" /><path clip-path="url(#clip900)" d="M495.164 208.671 Q487.829 208.671 484.114 215.912 Q480.447 223.106 480.447 237.588 Q480.447 252.023 484.114 259.264 Q487.829 266.458 495.164 266.458 Q502.546 266.458 506.214 259.264 Q509.928 252.023 509.928 237.588 Q509.928 223.106 506.214 215.912 Q502.546 208.671 495.164 208.671 M495.164 201.148 Q506.966 201.148 513.172 210.504 Q519.426 219.814 519.426 237.588 Q519.426 255.314 513.172 264.671 Q506.966 273.981 495.164 273.981 Q483.362 273.981 477.108 264.671 Q470.902 255.314 470.902 237.588 Q470.902 219.814 477.108 210.504 Q483.362 201.148 495.164 201.148 Z" fill="#000000" fill-rule="evenodd" fill-opacity="1" /><path clip-path="url(#clip900)" d="M138.614 1563.54 L118.309 1563.54 L118.309 1580.25 L109.903 1580.25 L109.903 1553.42 L142.361 1553.42 Q146.564 1559.34 148.741 1566.48 Q150.868 1573.62 150.868 1581.72 Q150.868 1599.44 140.538 1609.47 Q130.158 1619.45 111.676 1619.45 Q93.1427 1619.45 82.8129 1609.47 Q72.4324 1599.44 72.4324 1581.72 Q72.4324 1574.33 74.2553 1567.69 Q76.0783 1561.01 79.6228 1555.39 L90.5096 1555.39 Q85.6991 1561.06 83.2686 1567.44 Q80.8381 1573.82 80.8381 1580.86 Q80.8381 1594.73 88.5854 1601.72 Q96.3328 1608.66 111.676 1608.66 Q126.968 1608.66 134.715 1601.72 Q142.462 1594.73 142.462 1580.86 Q142.462 1575.44 141.551 1571.19 Q140.589 1566.94 138.614 1563.54 Z" fill="#000000" fill-rule="evenodd" fill-opacity="1" /><path clip-path="url(#clip900)" d="M118.714 1486.63 L123.271 1486.63 L123.271 1529.46 Q132.892 1528.86 137.956 1523.69 Q142.969 1518.48 142.969 1509.21 Q142.969 1503.84 141.652 1498.83 Q140.336 1493.77 137.703 1488.8 L146.513 1488.8 Q148.64 1493.82 149.754 1499.08 Q150.868 1504.35 150.868 1509.77 Q150.868 1523.34 142.969 1531.29 Q135.07 1539.19 121.6 1539.19 Q107.675 1539.19 99.5229 1531.69 Q91.3198 1524.15 91.3198 1511.39 Q91.3198 1499.94 98.7127 1493.31 Q106.055 1486.63 118.714 1486.63 M115.98 1495.94 Q108.334 1496.04 103.776 1500.25 Q99.219 1504.4 99.219 1511.29 Q99.219 1519.08 103.624 1523.79 Q108.03 1528.45 116.03 1529.16 L115.98 1495.94 Z" fill="#000000" fill-rule="evenodd" fill-opacity="1" /><path clip-path="url(#clip900)" d="M115.169 1424.19 L149.4 1424.19 L149.4 1433.51 L115.473 1433.51 Q107.422 1433.51 103.422 1436.65 Q99.4216 1439.79 99.4216 1446.07 Q99.4216 1453.61 104.232 1457.97 Q109.042 1462.32 117.347 1462.32 L149.4 1462.32 L149.4 1471.69 L92.687 1471.69 L92.687 1462.32 L101.498 1462.32 Q96.3834 1458.98 93.8516 1454.47 Q91.3198 1449.91 91.3198 1443.99 Q91.3198 1434.22 97.3961 1429.2 Q103.422 1424.19 115.169 1424.19 Z" fill="#000000" fill-rule="evenodd" fill-opacity="1" /><path clip-path="url(#clip900)" d="M118.714 1357.1 L123.271 1357.1 L123.271 1399.94 Q132.892 1399.33 137.956 1394.16 Q142.969 1388.95 142.969 1379.68 Q142.969 1374.31 141.652 1369.3 Q140.336 1364.24 137.703 1359.28 L146.513 1359.28 Q148.64 1364.29 149.754 1369.56 Q150.868 1374.82 150.868 1380.24 Q150.868 1393.81 142.969 1401.76 Q135.07 1409.66 121.6 1409.66 Q107.675 1409.66 99.5229 1402.16 Q91.3198 1394.62 91.3198 1381.86 Q91.3198 1370.42 98.7127 1363.78 Q106.055 1357.1 118.714 1357.1 M115.98 1366.42 Q108.334 1366.52 103.776 1370.72 Q99.219 1374.87 99.219 1381.76 Q99.219 1389.56 103.624 1394.27 Q108.03 1398.92 116.03 1399.63 L115.98 1366.42 Z" fill="#000000" fill-rule="evenodd" fill-opacity="1" /><path clip-path="url(#clip900)" d="M101.396 1308.94 Q100.485 1310.51 100.08 1312.39 Q99.6241 1314.21 99.6241 1316.44 Q99.6241 1324.34 104.789 1328.59 Q109.903 1332.79 119.524 1332.79 L149.4 1332.79 L149.4 1342.16 L92.687 1342.16 L92.687 1332.79 L101.498 1332.79 Q96.3328 1329.86 93.8516 1325.15 Q91.3198 1320.44 91.3198 1313.7 Q91.3198 1312.74 91.4717 1311.58 Q91.573 1310.41 91.8261 1308.99 L101.396 1308.94 Z" fill="#000000" fill-rule="evenodd" fill-opacity="1" /><path clip-path="url(#clip900)" d="M120.891 1273.4 Q120.891 1284.69 123.474 1289.04 Q126.056 1293.4 132.285 1293.4 Q137.247 1293.4 140.184 1290.16 Q143.07 1286.87 143.07 1281.25 Q143.07 1273.5 137.601 1268.84 Q132.082 1264.13 122.967 1264.13 L120.891 1264.13 L120.891 1273.4 M117.043 1254.81 L149.4 1254.81 L149.4 1264.13 L140.791 1264.13 Q145.956 1267.32 148.438 1272.08 Q150.868 1276.84 150.868 1283.73 Q150.868 1292.44 146.007 1297.6 Q141.095 1302.72 132.892 1302.72 Q123.322 1302.72 118.461 1296.33 Q113.6 1289.9 113.6 1277.19 L113.6 1264.13 L112.688 1264.13 Q106.257 1264.13 102.764 1268.38 Q99.219 1272.59 99.219 1280.23 Q99.219 1285.09 100.384 1289.7 Q101.548 1294.31 103.878 1298.56 L95.2694 1298.56 Q93.2946 1293.45 92.3325 1288.64 Q91.3198 1283.83 91.3198 1279.27 Q91.3198 1266.97 97.7 1260.89 Q104.08 1254.81 117.043 1254.81 Z" fill="#000000" fill-rule="evenodd" fill-opacity="1" /><path clip-path="url(#clip900)" d="M76.5846 1226.41 L92.687 1226.41 L92.687 1207.22 L99.9279 1207.22 L99.9279 1226.41 L130.715 1226.41 Q137.652 1226.41 139.627 1224.53 Q141.602 1222.61 141.602 1216.79 L141.602 1207.22 L149.4 1207.22 L149.4 1216.79 Q149.4 1227.57 145.399 1231.67 Q141.348 1235.77 130.715 1235.77 L99.9279 1235.77 L99.9279 1242.61 L92.687 1242.61 L92.687 1235.77 L76.5846 1235.77 L76.5846 1226.41 Z" fill="#000000" fill-rule="evenodd" fill-opacity="1" /><path clip-path="url(#clip900)" d="M118.714 1146.45 L123.271 1146.45 L123.271 1189.29 Q132.892 1188.68 137.956 1183.52 Q142.969 1178.3 142.969 1169.04 Q142.969 1163.67 141.652 1158.65 Q140.336 1153.59 137.703 1148.63 L146.513 1148.63 Q148.64 1153.64 149.754 1158.91 Q150.868 1164.17 150.868 1169.59 Q150.868 1183.16 142.969 1191.11 Q135.07 1199.01 121.6 1199.01 Q107.675 1199.01 99.5229 1191.52 Q91.3198 1183.97 91.3198 1171.21 Q91.3198 1159.77 98.7127 1153.14 Q106.055 1146.45 118.714 1146.45 M115.98 1155.77 Q108.334 1155.87 103.776 1160.07 Q99.219 1164.22 99.219 1171.11 Q99.219 1178.91 103.624 1183.62 Q108.03 1188.28 116.03 1188.99 L115.98 1155.77 Z" fill="#000000" fill-rule="evenodd" fill-opacity="1" /><path clip-path="url(#clip900)" d="M101.295 1093.84 L70.6095 1093.84 L70.6095 1084.52 L149.4 1084.52 L149.4 1093.84 L140.893 1093.84 Q145.956 1096.78 148.438 1101.28 Q150.868 1105.74 150.868 1112.02 Q150.868 1122.3 142.665 1128.78 Q134.462 1135.21 121.094 1135.21 Q107.726 1135.21 99.5229 1128.78 Q91.3198 1122.3 91.3198 1112.02 Q91.3198 1105.74 93.801 1101.28 Q96.2315 1096.78 101.295 1093.84 M121.094 1125.59 Q131.373 1125.59 137.247 1121.39 Q143.07 1117.13 143.07 1109.74 Q143.07 1102.35 137.247 1098.09 Q131.373 1093.84 121.094 1093.84 Q110.815 1093.84 104.992 1098.09 Q99.1178 1102.35 99.1178 1109.74 Q99.1178 1117.13 104.992 1121.39 Q110.815 1125.59 121.094 1125.59 Z" fill="#000000" fill-rule="evenodd" fill-opacity="1" /><path clip-path="url(#clip900)" d="M73.7996 1031.96 L73.7996 984.162 L82.4078 984.162 L82.4078 1021.73 L104.789 1021.73 L104.789 985.732 L113.397 985.732 L113.397 1021.73 L140.791 1021.73 L140.791 983.251 L149.4 983.251 L149.4 1031.96 L73.7996 1031.96 Z" fill="#000000" fill-rule="evenodd" fill-opacity="1" /><path clip-path="url(#clip900)" d="M70.6095 966.845 L70.6095 957.527 L149.4 957.527 L149.4 966.845 L70.6095 966.845 Z" fill="#000000" fill-rule="evenodd" fill-opacity="1" /><path clip-path="url(#clip900)" d="M118.714 889.523 L123.271 889.523 L123.271 932.361 Q132.892 931.754 137.956 926.589 Q142.969 921.373 142.969 912.107 Q142.969 906.739 141.652 901.726 Q140.336 896.663 137.703 891.7 L146.513 891.7 Q148.64 896.713 149.754 901.979 Q150.868 907.246 150.868 912.664 Q150.868 926.234 142.969 934.184 Q135.07 942.083 121.6 942.083 Q107.675 942.083 99.5229 934.589 Q91.3198 927.044 91.3198 914.284 Q91.3198 902.84 98.7127 896.207 Q106.055 889.523 118.714 889.523 M115.98 898.84 Q108.334 898.941 103.776 903.144 Q99.219 907.296 99.219 914.183 Q99.219 921.981 103.624 926.69 Q108.03 931.348 116.03 932.057 L115.98 898.84 Z" fill="#000000" fill-rule="evenodd" fill-opacity="1" /><path clip-path="url(#clip900)" d="M94.8643 833.418 L103.574 833.418 Q101.396 837.367 100.333 841.368 Q99.219 845.317 99.219 849.368 Q99.219 858.432 104.992 863.445 Q110.713 868.458 121.094 868.458 Q131.474 868.458 137.247 863.445 Q142.969 858.432 142.969 849.368 Q142.969 845.317 141.905 841.368 Q140.791 837.367 138.614 833.418 L147.222 833.418 Q149.045 837.317 149.957 841.52 Q150.868 845.672 150.868 850.381 Q150.868 863.192 142.817 870.737 Q134.766 878.282 121.094 878.282 Q107.22 878.282 99.2697 870.686 Q91.3198 863.04 91.3198 849.773 Q91.3198 845.469 92.2312 841.368 Q93.092 837.266 94.8643 833.418 Z" fill="#000000" fill-rule="evenodd" fill-opacity="1" /><path clip-path="url(#clip900)" d="M76.5846 807.998 L92.687 807.998 L92.687 788.807 L99.9279 788.807 L99.9279 807.998 L130.715 807.998 Q137.652 807.998 139.627 806.125 Q141.602 804.201 141.602 798.378 L141.602 788.807 L149.4 788.807 L149.4 798.378 Q149.4 809.163 145.399 813.265 Q141.348 817.366 130.715 817.366 L99.9279 817.366 L99.9279 824.202 L92.687 824.202 L92.687 817.366 L76.5846 817.366 L76.5846 807.998 Z" fill="#000000" fill-rule="evenodd" fill-opacity="1" /><path clip-path="url(#clip900)" d="M101.396 743.69 Q100.485 745.26 100.08 747.134 Q99.6241 748.956 99.6241 751.184 Q99.6241 759.084 104.789 763.337 Q109.903 767.54 119.524 767.54 L149.4 767.54 L149.4 776.908 L92.687 776.908 L92.687 767.54 L101.498 767.54 Q96.3328 764.603 93.8516 759.894 Q91.3198 755.185 91.3198 748.45 Q91.3198 747.488 91.4717 746.323 Q91.573 745.159 91.8261 743.741 L101.396 743.69 Z" fill="#000000" fill-rule="evenodd" fill-opacity="1" /><path clip-path="url(#clip900)" d="M92.687 733.918 L92.687 724.6 L149.4 724.6 L149.4 733.918 L92.687 733.918 M70.6095 733.918 L70.6095 724.6 L82.4078 724.6 L82.4078 733.918 L70.6095 733.918 Z" fill="#000000" fill-rule="evenodd" fill-opacity="1" /><path clip-path="url(#clip900)" d="M94.8643 664.293 L103.574 664.293 Q101.396 668.242 100.333 672.242 Q99.219 676.192 99.219 680.243 Q99.219 689.307 104.992 694.32 Q110.713 699.333 121.094 699.333 Q131.474 699.333 137.247 694.32 Q142.969 689.307 142.969 680.243 Q142.969 676.192 141.905 672.242 Q140.791 668.242 138.614 664.293 L147.222 664.293 Q149.045 668.192 149.957 672.394 Q150.868 676.547 150.868 681.256 Q150.868 694.067 142.817 701.612 Q134.766 709.156 121.094 709.156 Q107.22 709.156 99.2697 701.561 Q91.3198 693.915 91.3198 680.648 Q91.3198 676.344 92.2312 672.242 Q93.092 668.141 94.8643 664.293 Z" fill="#000000" fill-rule="evenodd" fill-opacity="1" /><path clip-path="url(#clip900)" d="M92.687 648.089 L92.687 638.772 L149.4 638.772 L149.4 648.089 L92.687 648.089 M70.6095 648.089 L70.6095 638.772 L82.4078 638.772 L82.4078 648.089 L70.6095 648.089 Z" fill="#000000" fill-rule="evenodd" fill-opacity="1" /><path clip-path="url(#clip900)" d="M76.5846 610.061 L92.687 610.061 L92.687 590.87 L99.9279 590.87 L99.9279 610.061 L130.715 610.061 Q137.652 610.061 139.627 608.188 Q141.602 606.263 141.602 600.44 L141.602 590.87 L149.4 590.87 L149.4 600.44 Q149.4 611.226 145.399 615.327 Q141.348 619.429 130.715 619.429 L99.9279 619.429 L99.9279 626.265 L92.687 626.265 L92.687 619.429 L76.5846 619.429 L76.5846 610.061 Z" fill="#000000" fill-rule="evenodd" fill-opacity="1" /><path clip-path="url(#clip900)" d="M154.666 555.019 Q164.793 558.969 167.882 562.716 Q170.971 566.463 170.971 572.742 L170.971 580.186 L163.173 580.186 L163.173 574.717 Q163.173 570.869 161.35 568.742 Q159.527 566.615 152.742 564.033 L148.488 562.362 L92.687 585.3 L92.687 575.426 L137.044 557.703 L92.687 539.98 L92.687 530.106 L154.666 555.019 Z" fill="#000000" fill-rule="evenodd" fill-opacity="1" /><path clip-path="url(#clip900)" d="M70.7108 461.899 Q82.3572 468.685 93.7503 471.976 Q105.143 475.267 116.84 475.267 Q128.537 475.267 140.032 471.976 Q151.476 468.634 163.071 461.899 L163.071 470.001 Q151.172 477.597 139.677 481.394 Q128.183 485.141 116.84 485.141 Q105.549 485.141 94.1048 481.394 Q82.661 477.647 70.7108 470.001 L70.7108 461.899 Z" fill="#000000" fill-rule="evenodd" fill-opacity="1" /><path clip-path="url(#clip900)" d="M73.7996 443.417 L73.7996 428.176 L125.246 408.883 L73.7996 389.489 L73.7996 374.248 L149.4 374.248 L149.4 384.223 L83.0154 384.223 L134.867 403.718 L134.867 413.997 L83.0154 433.492 L149.4 433.492 L149.4 443.417 L73.7996 443.417 Z" fill="#000000" fill-rule="evenodd" fill-opacity="1" /><path clip-path="url(#clip900)" d="M73.7996 360.677 L73.7996 350.348 L137.703 334.448 L73.7996 318.599 L73.7996 307.104 L137.703 291.204 L73.7996 275.355 L73.7996 264.975 L149.4 283.963 L149.4 296.825 L83.775 312.775 L149.4 328.878 L149.4 341.739 L73.7996 360.677 Z" fill="#000000" fill-rule="evenodd" fill-opacity="1" /><path clip-path="url(#clip900)" d="M115.169 204.667 L149.4 204.667 L149.4 213.984 L115.473 213.984 Q107.422 213.984 103.422 217.123 Q99.4216 220.263 99.4216 226.542 Q99.4216 234.087 104.232 238.441 Q109.042 242.796 117.347 242.796 L149.4 242.796 L149.4 252.164 L70.6095 252.164 L70.6095 242.796 L101.498 242.796 Q96.3834 239.454 93.8516 234.947 Q91.3198 230.39 91.3198 224.466 Q91.3198 214.693 97.3961 209.68 Q103.422 204.667 115.169 204.667 Z" fill="#000000" fill-rule="evenodd" fill-opacity="1" /><path clip-path="url(#clip900)" d="M70.7108 187.552 L70.7108 179.45 Q82.661 171.855 94.1048 168.107 Q105.549 164.31 116.84 164.31 Q128.183 164.31 139.677 168.107 Q151.172 171.855 163.071 179.45 L163.071 187.552 Q151.476 180.817 140.032 177.526 Q128.537 174.184 116.84 174.184 Q105.143 174.184 93.7503 177.526 Q82.3572 180.817 70.7108 187.552 Z" fill="#000000" fill-rule="evenodd" fill-opacity="1" /><path clip-path="url(#clip902)" d="
M659.16 1338.03 L744.895 1338.03 L830.629 1338.03 L916.363 1338.03 L1002.1 1338.03 L1087.83 1338.03 L1173.57 1338.03 L1259.3 1338.03 L1345.03 1338.03 L1430.77 1338.03 
  L1516.5 1361.23 L1602.24 1338.03 L1687.97 1338.03 L1773.71 1338.03 L1859.44 1380.27 L1945.17 1338.03 L2030.91 1338.03 L2116.64 1338.03 L2202.38 1338.03 L2288.11 1338.03 
  L2373.85 1338.03 L2459.58 1338.03 L2545.31 1338.03 L2631.05 1338.03 L2631.05 1724.7 L2545.31 1724.7 L2459.58 1724.7 L2373.85 1724.7 L2288.11 1724.7 L2202.38 1724.7 
  L2116.64 1724.7 L2030.91 1724.7 L1945.17 1724.7 L1859.44 1724.7 L1773.71 1724.7 L1687.97 1724.7 L1602.24 1724.7 L1516.5 1724.7 L1430.77 1724.7 L1345.03 1724.7 
  L1259.3 1724.7 L1173.57 1724.7 L1087.83 1724.7 L1002.1 1724.7 L916.363 1724.7 L830.629 1724.7 L744.895 1724.7 L659.16 1724.7  Z
  " fill="#88ccee" fill-rule="evenodd" fill-opacity="1"/>
<polyline clip-path="url(#clip902)" style="stroke:#88ccee; stroke-linecap:round; stroke-linejoin:round; stroke-width:5; stroke-opacity:1; fill:none" points="
  659.16,1338.03 744.895,1338.03 830.629,1338.03 916.363,1338.03 1002.1,1338.03 1087.83,1338.03 1173.57,1338.03 1259.3,1338.03 1345.03,1338.03 1430.77,1338.03 
  1516.5,1361.23 1602.24,1338.03 1687.97,1338.03 1773.71,1338.03 1859.44,1380.27 1945.17,1338.03 2030.91,1338.03 2116.64,1338.03 2202.38,1338.03 2288.11,1338.03 
  2373.85,1338.03 2459.58,1338.03 2545.31,1338.03 2631.05,1338.03 
  "/>
<path clip-path="url(#clip902)" d="
M659.16 1062.01 L744.895 1079.26 L830.629 1184.56 L916.363 1284.49 L1002.1 1271.41 L1087.83 1244.04 L1173.57 1323.76 L1259.3 1319 L1345.03 1333.27 L1430.77 1319 
  L1516.5 1342.2 L1602.24 1333.27 L1687.97 1319 L1773.71 1319 L1859.44 1380.27 L1945.17 1333.27 L2030.91 1333.27 L2116.64 1276.17 L2202.38 1195.26 L2288.11 1176.82 
  L2373.85 1147.08 L2459.58 1066.77 L2545.31 1076.29 L2631.05 1062.01 L2631.05 1338.03 L2545.31 1338.03 L2459.58 1338.03 L2373.85 1338.03 L2288.11 1338.03 L2202.38 1338.03 
  L2116.64 1338.03 L2030.91 1338.03 L1945.17 1338.03 L1859.44 1380.27 L1773.71 1338.03 L1687.97 1338.03 L1602.24 1338.03 L1516.5 1361.23 L1430.77 1338.03 L1345.03 1338.03 
  L1259.3 1338.03 L1173.57 1338.03 L1087.83 1338.03 L1002.1 1338.03 L916.363 1338.03 L830.629 1338.03 L744.895 1338.03 L659.16 1338.03  Z
  " fill="#44aa99" fill-rule="evenodd" fill-opacity="1"/>
<polyline clip-path="url(#clip902)" style="stroke:#44aa99; stroke-linecap:round; stroke-linejoin:round; stroke-width:5; stroke-opacity:1; fill:none" points="
  659.16,1062.01 744.895,1079.26 830.629,1184.56 916.363,1284.49 1002.1,1271.41 1087.83,1244.04 1173.57,1323.76 1259.3,1319 1345.03,1333.27 1430.77,1319 
  1516.5,1342.2 1602.24,1333.27 1687.97,1319 1773.71,1319 1859.44,1380.27 1945.17,1333.27 2030.91,1333.27 2116.64,1276.17 2202.38,1195.26 2288.11,1176.82 
  2373.85,1147.08 2459.58,1066.77 2545.31,1076.29 2631.05,1062.01 
  "/>
<path clip-path="url(#clip902)" d="
M659.16 1062.01 L744.895 1079.26 L830.629 1184.56 L916.363 1284.49 L1002.1 1271.41 L1087.83 1244.04 L1173.57 1240.47 L1259.3 1081.64 L1345.03 1000.14 L1430.77 931.734 
  L1516.5 929.949 L1602.24 921.026 L1687.97 965.047 L1773.71 906.749 L1859.44 984.678 L1945.17 995.98 L2030.91 1104.25 L2116.64 1226.2 L2202.38 1195.26 L2288.11 1176.82 
  L2373.85 1147.08 L2459.58 1066.77 L2545.31 1076.29 L2631.05 1062.01 L2631.05 1062.01 L2545.31 1076.29 L2459.58 1066.77 L2373.85 1147.08 L2288.11 1176.82 L2202.38 1195.26 
  L2116.64 1276.17 L2030.91 1333.27 L1945.17 1333.27 L1859.44 1380.27 L1773.71 1319 L1687.97 1319 L1602.24 1333.27 L1516.5 1342.2 L1430.77 1319 L1345.03 1333.27 
  L1259.3 1319 L1173.57 1323.76 L1087.83 1244.04 L1002.1 1271.41 L916.363 1284.49 L830.629 1184.56 L744.895 1079.26 L659.16 1062.01  Z
  " fill="#117733" fill-rule="evenodd" fill-opacity="1"/>
<polyline clip-path="url(#clip902)" style="stroke:#117733; stroke-linecap:round; stroke-linejoin:round; stroke-width:5; stroke-opacity:1; fill:none" points="
  659.16,1062.01 744.895,1079.26 830.629,1184.56 916.363,1284.49 1002.1,1271.41 1087.83,1244.04 1173.57,1240.47 1259.3,1081.64 1345.03,1000.14 1430.77,931.734 
  1516.5,929.949 1602.24,921.026 1687.97,965.047 1773.71,906.749 1859.44,984.678 1945.17,995.98 2030.91,1104.25 2116.64,1226.2 2202.38,1195.26 2288.11,1176.82 
  2373.85,1147.08 2459.58,1066.77 2545.31,1076.29 2631.05,1062.01 
  "/>
<path clip-path="url(#clip902)" d="
M659.16 698.544 L744.895 775.282 L830.629 846.667 L916.363 887.118 L1002.1 814.544 L1087.83 740.78 L1173.57 677.723 L1259.3 551.015 L1345.03 486.769 L1430.77 414.789 
  L1516.5 472.492 L1602.24 496.287 L1687.97 508.184 L1773.71 418.953 L1859.44 470.112 L1945.17 421.928 L2030.91 509.374 L2116.64 631.323 L2202.38 609.313 L2288.11 650.359 
  L2373.85 680.103 L2459.58 593.251 L2545.31 615.261 L2631.05 642.031 L2631.05 1062.01 L2545.31 1076.29 L2459.58 1066.77 L2373.85 1147.08 L2288.11 1176.82 L2202.38 1195.26 
  L2116.64 1226.2 L2030.91 1104.25 L1945.17 995.98 L1859.44 984.678 L1773.71 906.749 L1687.97 965.047 L1602.24 921.026 L1516.5 929.949 L1430.77 931.734 L1345.03 1000.14 
  L1259.3 1081.64 L1173.57 1240.47 L1087.83 1244.04 L1002.1 1271.41 L916.363 1284.49 L830.629 1184.56 L744.895 1079.26 L659.16 1062.01  Z
  " fill="#332288" fill-rule="evenodd" fill-opacity="1"/>
<polyline clip-path="url(#clip902)" style="stroke:#332288; stroke-linecap:round; stroke-linejoin:round; stroke-width:5; stroke-opacity:1; fill:none" points="
  659.16,698.544 744.895,775.282 830.629,846.667 916.363,887.118 1002.1,814.544 1087.83,740.78 1173.57,677.723 1259.3,551.015 1345.03,486.769 1430.77,414.789 
  1516.5,472.492 1602.24,496.287 1687.97,508.184 1773.71,418.953 1859.44,470.112 1945.17,421.928 2030.91,509.374 2116.64,631.323 2202.38,609.313 2288.11,650.359 
  2373.85,680.103 2459.58,593.251 2545.31,615.261 2631.05,642.031 
  "/>
<path clip-path="url(#clip902)" d="
M659.16 698.544 L744.895 775.282 L830.629 846.667 L916.363 887.118 L1002.1 814.544 L1087.83 740.78 L1173.57 677.723 L1259.3 551.015 L1345.03 486.769 L1430.77 414.789 
  L1516.5 472.492 L1602.24 496.287 L1687.97 508.184 L1773.71 418.953 L1859.44 351.138 L1945.17 302.953 L2030.91 281.538 L2116.64 393.374 L2202.38 490.338 L2288.11 531.384 
  L2373.85 561.128 L2459.58 593.251 L2545.31 615.261 L2631.05 642.031 L2631.05 642.031 L2545.31 615.261 L2459.58 593.251 L2373.85 680.103 L2288.11 650.359 L2202.38 609.313 
  L2116.64 631.323 L2030.91 509.374 L1945.17 421.928 L1859.44 470.112 L1773.71 418.953 L1687.97 508.184 L1602.24 496.287 L1516.5 472.492 L1430.77 414.789 L1345.03 486.769 
  L1259.3 551.015 L1173.57 677.723 L1087.83 740.78 L1002.1 814.544 L916.363 887.118 L830.629 846.667 L744.895 775.282 L659.16 698.544  Z
  " fill="#ddcc77" fill-rule="evenodd" fill-opacity="1"/>
<polyline clip-path="url(#clip902)" style="stroke:#ddcc77; stroke-linecap:round; stroke-linejoin:round; stroke-width:5; stroke-opacity:1; fill:none" points="
  659.16,698.544 744.895,775.282 830.629,846.667 916.363,887.118 1002.1,814.544 1087.83,740.78 1173.57,677.723 1259.3,551.015 1345.03,486.769 1430.77,414.789 
  1516.5,472.492 1602.24,496.287 1687.97,508.184 1773.71,418.953 1859.44,351.138 1945.17,302.953 2030.91,281.538 2116.64,393.374 2202.38,490.338 2288.11,531.384 
  2373.85,561.128 2459.58,593.251 2545.31,615.261 2631.05,642.031 
  "/>
<path clip-path="url(#clip902)" d="
M659.16 698.544 L744.895 775.282 L830.629 846.667 L916.363 887.118 L1002.1 814.544 L1087.83 705.087 L1173.57 642.031 L1259.3 551.015 L1345.03 486.769 L1430.77 414.789 
  L1516.5 472.492 L1602.24 496.287 L1687.97 508.184 L1773.71 418.953 L1859.44 351.138 L1945.17 302.953 L2030.91 245.845 L2116.64 228.594 L2202.38 490.338 L2288.11 531.384 
  L2373.85 561.128 L2459.58 593.251 L2545.31 615.261 L2631.05 642.031 L2631.05 642.031 L2545.31 615.261 L2459.58 593.251 L2373.85 561.128 L2288.11 531.384 L2202.38 490.338 
  L2116.64 393.374 L2030.91 281.538 L1945.17 302.953 L1859.44 351.138 L1773.71 418.953 L1687.97 508.184 L1602.24 496.287 L1516.5 472.492 L1430.77 414.789 L1345.03 486.769 
  L1259.3 551.015 L1173.57 677.723 L1087.83 740.78 L1002.1 814.544 L916.363 887.118 L830.629 846.667 L744.895 775.282 L659.16 698.544  Z
  " fill="#999933" fill-rule="evenodd" fill-opacity="1"/>
<polyline clip-path="url(#clip902)" style="stroke:#999933; stroke-linecap:round; stroke-linejoin:round; stroke-width:5; stroke-opacity:1; fill:none" points="
  659.16,698.544 744.895,775.282 830.629,846.667 916.363,887.118 1002.1,814.544 1087.83,705.087 1173.57,642.031 1259.3,551.015 1345.03,486.769 1430.77,414.789 
  1516.5,472.492 1602.24,496.287 1687.97,508.184 1773.71,418.953 1859.44,351.138 1945.17,302.953 2030.91,245.845 2116.64,228.594 2202.38,490.338 2288.11,531.384 
  2373.85,561.128 2459.58,593.251 2545.31,615.261 2631.05,642.031 
  "/>
<polyline clip-path="url(#clip902)" style="stroke:#ff0000; stroke-linecap:round; stroke-linejoin:round; stroke-width:25; stroke-opacity:1; fill:none" stroke-dasharray="100, 63" points="
  659.16,698.544 744.895,775.282 830.629,846.667 916.363,887.118 1002.1,814.544 1087.83,705.087 1173.57,642.031 1259.3,551.015 1345.03,486.769 1430.77,414.789 
  1516.5,472.492 1602.24,496.287 1687.97,508.184 1773.71,418.953 1859.44,351.138 1945.17,302.953 2030.91,245.845 2116.64,228.594 2202.38,490.338 2288.11,531.384 
  2373.85,561.128 2459.58,593.251 2545.31,615.261 2631.05,642.031 
  "/>
<path clip-path="url(#clip900)" d="
M2793.75 1021.78 L3540.94 1021.78 L3540.94 114.577 L2793.75 114.577  Z
  " fill="#ffffff" fill-rule="evenodd" fill-opacity="1"/>
<polyline clip-path="url(#clip900)" style="stroke:#000000; stroke-linecap:round; stroke-linejoin:round; stroke-width:5; stroke-opacity:1; fill:none" points="
  2793.75,1021.78 3540.94,1021.78 3540.94,114.577 2793.75,114.577 2793.75,1021.78 
  "/>
<path clip-path="url(#clip900)" d="
M3029.36 273.337 L2827.41 273.337 L2827.41 182.617 L3029.36 182.617 L3029.36 273.337  Z
  " fill="#88ccee" fill-rule="evenodd" fill-opacity="1"/>
<polyline clip-path="url(#clip900)" style="stroke:#88ccee; stroke-linecap:round; stroke-linejoin:round; stroke-width:5; stroke-opacity:1; fill:none" points="
  2827.41,182.617 3029.36,182.617 
  "/>
<path clip-path="url(#clip900)" d="M3110.52 231.546 L3110.52 265.777 L3101.2 265.777 L3101.2 231.85 Q3101.2 223.799 3098.06 219.799 Q3094.92 215.799 3088.64 215.799 Q3081.1 215.799 3076.74 220.609 Q3072.39 225.419 3072.39 233.724 L3072.39 265.777 L3063.02 265.777 L3063.02 186.987 L3072.39 186.987 L3072.39 217.875 Q3075.73 212.76 3080.23 210.229 Q3084.79 207.697 3090.72 207.697 Q3100.49 207.697 3105.5 213.773 Q3110.52 219.799 3110.52 231.546 Z" fill="#000000" fill-rule="evenodd" fill-opacity="1" /><path clip-path="url(#clip900)" d="M3152.7 271.043 Q3148.75 281.17 3145 284.259 Q3141.25 287.348 3134.97 287.348 L3127.53 287.348 L3127.53 279.55 L3133 279.55 Q3136.85 279.55 3138.97 277.727 Q3141.1 275.904 3143.68 269.119 L3145.35 264.865 L3122.41 209.064 L3132.29 209.064 L3150.01 253.421 L3167.73 209.064 L3177.61 209.064 L3152.7 271.043 Z" fill="#000000" fill-rule="evenodd" fill-opacity="1" /><path clip-path="url(#clip900)" d="M3227.79 217.672 L3227.79 186.987 L3237.11 186.987 L3237.11 265.777 L3227.79 265.777 L3227.79 257.27 Q3224.85 262.333 3220.35 264.815 Q3215.89 267.245 3209.61 267.245 Q3199.33 267.245 3192.85 259.042 Q3186.42 250.839 3186.42 237.471 Q3186.42 224.103 3192.85 215.9 Q3199.33 207.697 3209.61 207.697 Q3215.89 207.697 3220.35 210.178 Q3224.85 212.608 3227.79 217.672 M3196.04 237.471 Q3196.04 247.75 3200.24 253.624 Q3204.5 259.447 3211.89 259.447 Q3219.28 259.447 3223.54 253.624 Q3227.79 247.75 3227.79 237.471 Q3227.79 227.192 3223.54 221.369 Q3219.28 215.495 3211.89 215.495 Q3204.5 215.495 3200.24 221.369 Q3196.04 227.192 3196.04 237.471 Z" fill="#000000" fill-rule="evenodd" fill-opacity="1" /><path clip-path="url(#clip900)" d="M3289.16 217.773 Q3287.59 216.862 3285.72 216.457 Q3283.89 216.001 3281.67 216.001 Q3273.77 216.001 3269.51 221.166 Q3265.31 226.28 3265.31 235.901 L3265.31 265.777 L3255.94 265.777 L3255.94 209.064 L3265.31 209.064 L3265.31 217.875 Q3268.25 212.71 3272.96 210.229 Q3277.67 207.697 3284.4 207.697 Q3285.36 207.697 3286.53 207.849 Q3287.69 207.95 3289.11 208.203 L3289.16 217.773 Z" fill="#000000" fill-rule="evenodd" fill-opacity="1" /><path clip-path="url(#clip900)" d="M3318.63 215.596 Q3311.14 215.596 3306.78 221.47 Q3302.43 227.293 3302.43 237.471 Q3302.43 247.649 3306.73 253.523 Q3311.09 259.346 3318.63 259.346 Q3326.07 259.346 3330.43 253.472 Q3334.78 247.598 3334.78 237.471 Q3334.78 227.394 3330.43 221.52 Q3326.07 215.596 3318.63 215.596 M3318.63 207.697 Q3330.78 207.697 3337.72 215.596 Q3344.66 223.495 3344.66 237.471 Q3344.66 251.396 3337.72 259.346 Q3330.78 267.245 3318.63 267.245 Q3306.43 267.245 3299.49 259.346 Q3292.6 251.396 3292.6 237.471 Q3292.6 223.495 3299.49 215.596 Q3306.43 207.697 3318.63 207.697 Z" fill="#000000" fill-rule="evenodd" fill-opacity="1" /><path clip-path="url(#clip900)" d="
M3029.36 386.737 L2827.41 386.737 L2827.41 296.017 L3029.36 296.017 L3029.36 386.737  Z
  " fill="#44aa99" fill-rule="evenodd" fill-opacity="1"/>
<polyline clip-path="url(#clip900)" style="stroke:#44aa99; stroke-linecap:round; stroke-linejoin:round; stroke-width:5; stroke-opacity:1; fill:none" points="
  2827.41,296.017 3029.36,296.017 
  "/>
<path clip-path="url(#clip900)" d="M3063.02 322.464 L3072.34 322.464 L3083.98 366.72 L3095.58 322.464 L3106.57 322.464 L3118.21 366.72 L3129.81 322.464 L3139.12 322.464 L3124.29 379.177 L3113.3 379.177 L3101.1 332.692 L3088.84 379.177 L3077.85 379.177 L3063.02 322.464 Z" fill="#000000" fill-rule="evenodd" fill-opacity="1" /><path clip-path="url(#clip900)" d="M3153.25 322.464 L3162.57 322.464 L3162.57 379.177 L3153.25 379.177 L3153.25 322.464 M3153.25 300.387 L3162.57 300.387 L3162.57 312.185 L3153.25 312.185 L3153.25 300.387 Z" fill="#000000" fill-rule="evenodd" fill-opacity="1" /><path clip-path="url(#clip900)" d="M3229.21 344.946 L3229.21 379.177 L3219.89 379.177 L3219.89 345.25 Q3219.89 337.199 3216.75 333.199 Q3213.61 329.199 3207.33 329.199 Q3199.79 329.199 3195.43 334.009 Q3191.08 338.819 3191.08 347.124 L3191.08 379.177 L3181.71 379.177 L3181.71 322.464 L3191.08 322.464 L3191.08 331.275 Q3194.42 326.16 3198.93 323.629 Q3203.48 321.097 3209.41 321.097 Q3219.18 321.097 3224.19 327.173 Q3229.21 333.199 3229.21 344.946 Z" fill="#000000" fill-rule="evenodd" fill-opacity="1" /><path clip-path="url(#clip900)" d="M3285.11 331.072 L3285.11 300.387 L3294.43 300.387 L3294.43 379.177 L3285.11 379.177 L3285.11 370.67 Q3282.17 375.733 3277.67 378.215 Q3273.21 380.645 3266.93 380.645 Q3256.65 380.645 3250.17 372.442 Q3243.74 364.239 3243.74 350.871 Q3243.74 337.503 3250.17 329.3 Q3256.65 321.097 3266.93 321.097 Q3273.21 321.097 3277.67 323.578 Q3282.17 326.008 3285.11 331.072 M3253.36 350.871 Q3253.36 361.15 3257.56 367.024 Q3261.82 372.847 3269.21 372.847 Q3276.6 372.847 3280.86 367.024 Q3285.11 361.15 3285.11 350.871 Q3285.11 340.592 3280.86 334.769 Q3276.6 328.895 3269.21 328.895 Q3261.82 328.895 3257.56 334.769 Q3253.36 340.592 3253.36 350.871 Z" fill="#000000" fill-rule="evenodd" fill-opacity="1" /><path clip-path="url(#clip900)" d="
M3029.36 500.137 L2827.41 500.137 L2827.41 409.417 L3029.36 409.417 L3029.36 500.137  Z
  " fill="#117733" fill-rule="evenodd" fill-opacity="1"/>
<polyline clip-path="url(#clip900)" style="stroke:#117733; stroke-linecap:round; stroke-linejoin:round; stroke-width:5; stroke-opacity:1; fill:none" points="
  2827.41,409.417 3029.36,409.417 
  "/>
<path clip-path="url(#clip900)" d="M3103.32 437.535 L3103.32 446.346 Q3099.38 444.32 3095.12 443.307 Q3090.87 442.295 3086.31 442.295 Q3079.37 442.295 3075.88 444.421 Q3072.44 446.548 3072.44 450.802 Q3072.44 454.042 3074.92 455.916 Q3077.4 457.739 3084.89 459.41 L3088.08 460.119 Q3098.01 462.245 3102.16 466.144 Q3106.36 469.993 3106.36 476.93 Q3106.36 484.829 3100.08 489.437 Q3093.86 494.045 3082.92 494.045 Q3078.36 494.045 3073.4 493.134 Q3068.49 492.273 3063.02 490.501 L3063.02 480.88 Q3068.18 483.563 3073.2 484.931 Q3078.21 486.247 3083.12 486.247 Q3089.7 486.247 3093.25 484.019 Q3096.79 481.74 3096.79 477.639 Q3096.79 473.841 3094.21 471.816 Q3091.68 469.79 3083.02 467.917 L3079.78 467.157 Q3071.12 465.334 3067.27 461.587 Q3063.42 457.789 3063.42 451.207 Q3063.42 443.206 3069.09 438.851 Q3074.77 434.497 3085.2 434.497 Q3090.36 434.497 3094.92 435.256 Q3099.48 436.016 3103.32 437.535 Z" fill="#000000" fill-rule="evenodd" fill-opacity="1" /><path clip-path="url(#clip900)" d="M3143.18 442.396 Q3135.68 442.396 3131.33 448.27 Q3126.97 454.093 3126.97 464.271 Q3126.97 474.449 3131.28 480.323 Q3135.63 486.146 3143.18 486.146 Q3150.62 486.146 3154.97 480.272 Q3159.33 474.398 3159.33 464.271 Q3159.33 454.194 3154.97 448.32 Q3150.62 442.396 3143.18 442.396 M3143.18 434.497 Q3155.33 434.497 3162.27 442.396 Q3169.2 450.295 3169.2 464.271 Q3169.2 478.196 3162.27 486.146 Q3155.33 494.045 3143.18 494.045 Q3130.97 494.045 3124.04 486.146 Q3117.15 478.196 3117.15 464.271 Q3117.15 450.295 3124.04 442.396 Q3130.97 434.497 3143.18 434.497 Z" fill="#000000" fill-rule="evenodd" fill-opacity="1" /><path clip-path="url(#clip900)" d="M3184.65 413.787 L3193.96 413.787 L3193.96 492.577 L3184.65 492.577 L3184.65 413.787 Z" fill="#000000" fill-rule="evenodd" fill-opacity="1" /><path clip-path="url(#clip900)" d="M3239.23 464.068 Q3227.94 464.068 3223.59 466.651 Q3219.23 469.233 3219.23 475.462 Q3219.23 480.424 3222.47 483.361 Q3225.76 486.247 3231.38 486.247 Q3239.13 486.247 3243.79 480.778 Q3248.5 475.259 3248.5 466.144 L3248.5 464.068 L3239.23 464.068 M3257.82 460.22 L3257.82 492.577 L3248.5 492.577 L3248.5 483.968 Q3245.31 489.133 3240.55 491.615 Q3235.79 494.045 3228.9 494.045 Q3220.19 494.045 3215.03 489.184 Q3209.91 484.272 3209.91 476.069 Q3209.91 466.499 3216.29 461.638 Q3222.73 456.777 3235.44 456.777 L3248.5 456.777 L3248.5 455.865 Q3248.5 449.434 3244.25 445.941 Q3240.04 442.396 3232.4 442.396 Q3227.54 442.396 3222.93 443.561 Q3218.32 444.725 3214.07 447.055 L3214.07 438.446 Q3219.18 436.472 3223.99 435.509 Q3228.8 434.497 3233.36 434.497 Q3245.66 434.497 3251.74 440.877 Q3257.82 447.257 3257.82 460.22 Z" fill="#000000" fill-rule="evenodd" fill-opacity="1" /><path clip-path="url(#clip900)" d="M3309.87 444.573 Q3308.3 443.662 3306.43 443.257 Q3304.6 442.801 3302.38 442.801 Q3294.48 442.801 3290.22 447.966 Q3286.02 453.08 3286.02 462.701 L3286.02 492.577 L3276.65 492.577 L3276.65 435.864 L3286.02 435.864 L3286.02 444.675 Q3288.96 439.51 3293.67 437.029 Q3298.38 434.497 3305.11 434.497 Q3306.07 434.497 3307.24 434.649 Q3308.4 434.75 3309.82 435.003 L3309.87 444.573 Z" fill="#000000" fill-rule="evenodd" fill-opacity="1" /><path clip-path="url(#clip900)" d="
M3029.36 613.537 L2827.41 613.537 L2827.41 522.817 L3029.36 522.817 L3029.36 613.537  Z
  " fill="#332288" fill-rule="evenodd" fill-opacity="1"/>
<polyline clip-path="url(#clip900)" style="stroke:#332288; stroke-linecap:round; stroke-linejoin:round; stroke-width:5; stroke-opacity:1; fill:none" points="
  2827.41,522.817 3029.36,522.817 
  "/>
<path clip-path="url(#clip900)" d="M3110.52 571.746 L3110.52 605.977 L3101.2 605.977 L3101.2 572.05 Q3101.2 563.999 3098.06 559.999 Q3094.92 555.999 3088.64 555.999 Q3081.1 555.999 3076.74 560.809 Q3072.39 565.619 3072.39 573.924 L3072.39 605.977 L3063.02 605.977 L3063.02 549.264 L3072.39 549.264 L3072.39 558.075 Q3075.73 552.96 3080.23 550.429 Q3084.79 547.897 3090.72 547.897 Q3100.49 547.897 3105.5 553.973 Q3110.52 559.999 3110.52 571.746 Z" fill="#000000" fill-rule="evenodd" fill-opacity="1" /><path clip-path="url(#clip900)" d="M3128.14 583.595 L3128.14 549.264 L3137.45 549.264 L3137.45 583.241 Q3137.45 591.292 3140.59 595.343 Q3143.73 599.343 3150.01 599.343 Q3157.56 599.343 3161.91 594.533 Q3166.32 589.722 3166.32 581.418 L3166.32 549.264 L3175.63 549.264 L3175.63 605.977 L3166.32 605.977 L3166.32 597.267 Q3162.92 602.432 3158.42 604.964 Q3153.96 607.445 3148.04 607.445 Q3138.26 607.445 3133.2 601.369 Q3128.14 595.292 3128.14 583.595 M3151.58 547.897 L3151.58 547.897 Z" fill="#000000" fill-rule="evenodd" fill-opacity="1" /><path clip-path="url(#clip900)" d="M3235.64 551.441 L3235.64 560.151 Q3231.69 557.973 3227.69 556.91 Q3223.74 555.796 3219.69 555.796 Q3210.62 555.796 3205.61 561.569 Q3200.6 567.29 3200.6 577.671 Q3200.6 588.051 3205.61 593.824 Q3210.62 599.546 3219.69 599.546 Q3223.74 599.546 3227.69 598.482 Q3231.69 597.368 3235.64 595.191 L3235.64 603.799 Q3231.74 605.622 3227.54 606.534 Q3223.38 607.445 3218.67 607.445 Q3205.86 607.445 3198.32 599.394 Q3190.77 591.343 3190.77 577.671 Q3190.77 563.797 3198.37 555.847 Q3206.02 547.897 3219.28 547.897 Q3223.59 547.897 3227.69 548.808 Q3231.79 549.669 3235.64 551.441 Z" fill="#000000" fill-rule="evenodd" fill-opacity="1" /><path clip-path="url(#clip900)" d="M3251.84 527.187 L3261.16 527.187 L3261.16 605.977 L3251.84 605.977 L3251.84 527.187 Z" fill="#000000" fill-rule="evenodd" fill-opacity="1" /><path clip-path="url(#clip900)" d="M3329.16 575.291 L3329.16 579.848 L3286.32 579.848 Q3286.93 589.469 3292.1 594.533 Q3297.31 599.546 3306.58 599.546 Q3311.95 599.546 3316.96 598.229 Q3322.02 596.913 3326.99 594.28 L3326.99 603.09 Q3321.97 605.217 3316.71 606.331 Q3311.44 607.445 3306.02 607.445 Q3292.45 607.445 3284.5 599.546 Q3276.6 591.647 3276.6 578.177 Q3276.6 564.252 3284.1 556.1 Q3291.64 547.897 3304.4 547.897 Q3315.85 547.897 3322.48 555.29 Q3329.16 562.632 3329.16 575.291 M3319.85 572.557 Q3319.74 564.911 3315.54 560.353 Q3311.39 555.796 3304.5 555.796 Q3296.71 555.796 3292 560.201 Q3287.34 564.607 3286.63 572.607 L3319.85 572.557 Z" fill="#000000" fill-rule="evenodd" fill-opacity="1" /><path clip-path="url(#clip900)" d="M3370.23 577.468 Q3358.94 577.468 3354.58 580.051 Q3350.23 582.633 3350.23 588.862 Q3350.23 593.824 3353.47 596.761 Q3356.76 599.647 3362.38 599.647 Q3370.13 599.647 3374.79 594.178 Q3379.5 588.659 3379.5 579.544 L3379.5 577.468 L3370.23 577.468 M3388.81 573.62 L3388.81 605.977 L3379.5 605.977 L3379.5 597.368 Q3376.31 602.533 3371.55 605.015 Q3366.79 607.445 3359.9 607.445 Q3351.19 607.445 3346.02 602.584 Q3340.91 597.672 3340.91 589.469 Q3340.91 579.899 3347.29 575.038 Q3353.72 570.177 3366.43 570.177 L3379.5 570.177 L3379.5 569.265 Q3379.5 562.834 3375.24 559.341 Q3371.04 555.796 3363.39 555.796 Q3358.53 555.796 3353.92 556.961 Q3349.32 558.125 3345.06 560.455 L3345.06 551.846 Q3350.18 549.872 3354.99 548.909 Q3359.8 547.897 3364.36 547.897 Q3376.66 547.897 3382.74 554.277 Q3388.81 560.657 3388.81 573.62 Z" fill="#000000" fill-rule="evenodd" fill-opacity="1" /><path clip-path="url(#clip900)" d="M3440.87 557.973 Q3439.3 557.062 3437.42 556.657 Q3435.6 556.201 3433.37 556.201 Q3425.47 556.201 3421.22 561.366 Q3417.02 566.48 3417.02 576.101 L3417.02 605.977 L3407.65 605.977 L3407.65 549.264 L3417.02 549.264 L3417.02 558.075 Q3419.95 552.91 3424.66 550.429 Q3429.37 547.897 3436.11 547.897 Q3437.07 547.897 3438.23 548.049 Q3439.4 548.15 3440.82 548.403 L3440.87 557.973 Z" fill="#000000" fill-rule="evenodd" fill-opacity="1" /><path clip-path="url(#clip900)" d="
M3029.36 726.937 L2827.41 726.937 L2827.41 636.217 L3029.36 636.217 L3029.36 726.937  Z
  " fill="#ddcc77" fill-rule="evenodd" fill-opacity="1"/>
<polyline clip-path="url(#clip900)" style="stroke:#ddcc77; stroke-linecap:round; stroke-linejoin:round; stroke-width:5; stroke-opacity:1; fill:none" points="
  2827.41,636.217 3029.36,636.217 
  "/>
<path clip-path="url(#clip900)" d="M3107.88 664.841 L3107.88 673.551 Q3103.93 671.373 3099.93 670.31 Q3095.98 669.196 3091.93 669.196 Q3082.87 669.196 3077.85 674.969 Q3072.84 680.69 3072.84 691.071 Q3072.84 701.451 3077.85 707.224 Q3082.87 712.946 3091.93 712.946 Q3095.98 712.946 3099.93 711.882 Q3103.93 710.768 3107.88 708.591 L3107.88 717.199 Q3103.98 719.022 3099.78 719.934 Q3095.63 720.845 3090.92 720.845 Q3078.11 720.845 3070.56 712.794 Q3063.02 704.743 3063.02 691.071 Q3063.02 677.197 3070.61 669.247 Q3078.26 661.297 3091.53 661.297 Q3095.83 661.297 3099.93 662.208 Q3104.03 663.069 3107.88 664.841 Z" fill="#000000" fill-rule="evenodd" fill-opacity="1" /><path clip-path="url(#clip900)" d="M3164.9 664.841 L3164.9 673.551 Q3160.95 671.373 3156.95 670.31 Q3153 669.196 3148.95 669.196 Q3139.88 669.196 3134.87 674.969 Q3129.86 680.69 3129.86 691.071 Q3129.86 701.451 3134.87 707.224 Q3139.88 712.946 3148.95 712.946 Q3153 712.946 3156.95 711.882 Q3160.95 710.768 3164.9 708.591 L3164.9 717.199 Q3161 719.022 3156.8 719.934 Q3152.64 720.845 3147.94 720.845 Q3135.12 720.845 3127.58 712.794 Q3120.03 704.743 3120.03 691.071 Q3120.03 677.197 3127.63 669.247 Q3135.28 661.297 3148.54 661.297 Q3152.85 661.297 3156.95 662.208 Q3161.05 663.069 3164.9 664.841 Z" fill="#000000" fill-rule="evenodd" fill-opacity="1" /><path clip-path="url(#clip900)" d="M3218.42 690.362 Q3218.42 680.235 3214.22 674.665 Q3210.07 669.095 3202.52 669.095 Q3195.03 669.095 3190.82 674.665 Q3186.67 680.235 3186.67 690.362 Q3186.67 700.439 3190.82 706.009 Q3195.03 711.579 3202.52 711.579 Q3210.07 711.579 3214.22 706.009 Q3218.42 700.439 3218.42 690.362 M3227.74 712.338 Q3227.74 726.82 3221.31 733.859 Q3214.88 740.948 3201.61 740.948 Q3196.7 740.948 3192.34 740.188 Q3187.99 739.479 3183.89 737.96 L3183.89 728.896 Q3187.99 731.124 3191.99 732.188 Q3195.99 733.251 3200.14 733.251 Q3209.31 733.251 3213.86 728.441 Q3218.42 723.681 3218.42 714.009 L3218.42 709.401 Q3215.54 714.414 3211.03 716.895 Q3206.52 719.377 3200.24 719.377 Q3189.81 719.377 3183.43 711.427 Q3177.05 703.477 3177.05 690.362 Q3177.05 677.197 3183.43 669.247 Q3189.81 661.297 3200.24 661.297 Q3206.52 661.297 3211.03 663.778 Q3215.54 666.259 3218.42 671.272 L3218.42 662.664 L3227.74 662.664 L3227.74 712.338 Z" fill="#000000" fill-rule="evenodd" fill-opacity="1" /><path clip-path="url(#clip900)" d="M3256.15 646.562 L3256.15 662.664 L3275.34 662.664 L3275.34 669.905 L3256.15 669.905 L3256.15 700.692 Q3256.15 707.629 3258.02 709.604 Q3259.94 711.579 3265.77 711.579 L3275.34 711.579 L3275.34 719.377 L3265.77 719.377 Q3254.98 719.377 3250.88 715.376 Q3246.78 711.325 3246.78 700.692 L3246.78 669.905 L3239.94 669.905 L3239.94 662.664 L3246.78 662.664 L3246.78 646.562 L3256.15 646.562 Z" fill="#000000" fill-rule="evenodd" fill-opacity="1" /><path clip-path="url(#clip900)" d="
M3029.36 840.337 L2827.41 840.337 L2827.41 749.617 L3029.36 749.617 L3029.36 840.337  Z
  " fill="#999933" fill-rule="evenodd" fill-opacity="1"/>
<polyline clip-path="url(#clip900)" style="stroke:#999933; stroke-linecap:round; stroke-linejoin:round; stroke-width:5; stroke-opacity:1; fill:none" points="
  2827.41,749.617 3029.36,749.617 
  "/>
<path clip-path="url(#clip900)" d="M3107.88 778.241 L3107.88 786.951 Q3103.93 784.773 3099.93 783.71 Q3095.98 782.596 3091.93 782.596 Q3082.87 782.596 3077.85 788.369 Q3072.84 794.09 3072.84 804.471 Q3072.84 814.851 3077.85 820.624 Q3082.87 826.346 3091.93 826.346 Q3095.98 826.346 3099.93 825.282 Q3103.93 824.168 3107.88 821.991 L3107.88 830.599 Q3103.98 832.422 3099.78 833.334 Q3095.63 834.245 3090.92 834.245 Q3078.11 834.245 3070.56 826.194 Q3063.02 818.143 3063.02 804.471 Q3063.02 790.597 3070.61 782.647 Q3078.26 774.697 3091.53 774.697 Q3095.83 774.697 3099.93 775.608 Q3104.03 776.469 3107.88 778.241 Z" fill="#000000" fill-rule="evenodd" fill-opacity="1" /><path clip-path="url(#clip900)" d="M3133.3 759.962 L3133.3 776.064 L3152.49 776.064 L3152.49 783.305 L3133.3 783.305 L3133.3 814.092 Q3133.3 821.029 3135.18 823.004 Q3137.1 824.979 3142.92 824.979 L3152.49 824.979 L3152.49 832.777 L3142.92 832.777 Q3132.14 832.777 3128.04 828.776 Q3123.93 824.725 3123.93 814.092 L3123.93 783.305 L3117.1 783.305 L3117.1 776.064 L3123.93 776.064 L3123.93 759.962 L3133.3 759.962 Z" fill="#000000" fill-rule="evenodd" fill-opacity="1" /><polyline clip-path="url(#clip900)" style="stroke:#ff0000; stroke-linecap:round; stroke-linejoin:round; stroke-width:8.75; stroke-opacity:1; fill:none" stroke-dasharray="35, 22" points="
  2827.41,908.377 3029.36,908.377 
  "/>
<path clip-path="url(#clip900)" d="M3104.39 898.072 L3104.39 867.387 L3113.71 867.387 L3113.71 946.177 L3104.39 946.177 L3104.39 937.67 Q3101.45 942.733 3096.94 945.215 Q3092.49 947.645 3086.21 947.645 Q3075.93 947.645 3069.45 939.442 Q3063.02 931.239 3063.02 917.871 Q3063.02 904.503 3069.45 896.3 Q3075.93 888.097 3086.21 888.097 Q3092.49 888.097 3096.94 890.578 Q3101.45 893.008 3104.39 898.072 M3072.64 917.871 Q3072.64 928.15 3076.84 934.024 Q3081.1 939.847 3088.49 939.847 Q3095.88 939.847 3100.13 934.024 Q3104.39 928.15 3104.39 917.871 Q3104.39 907.592 3100.13 901.769 Q3095.88 895.895 3088.49 895.895 Q3081.1 895.895 3076.84 901.769 Q3072.64 907.592 3072.64 917.871 Z" fill="#000000" fill-rule="evenodd" fill-opacity="1" /><path clip-path="url(#clip900)" d="M3181.41 915.491 L3181.41 920.048 L3138.57 920.048 Q3139.18 929.669 3144.34 934.733 Q3149.56 939.746 3158.82 939.746 Q3164.19 939.746 3169.2 938.429 Q3174.27 937.113 3179.23 934.48 L3179.23 943.29 Q3174.22 945.417 3168.95 946.531 Q3163.68 947.645 3158.27 947.645 Q3144.69 947.645 3136.74 939.746 Q3128.85 931.847 3128.85 918.377 Q3128.85 904.452 3136.34 896.3 Q3143.88 888.097 3156.65 888.097 Q3168.09 888.097 3174.72 895.49 Q3181.41 902.832 3181.41 915.491 M3172.09 912.757 Q3171.99 905.111 3167.79 900.553 Q3163.63 895.996 3156.75 895.996 Q3148.95 895.996 3144.24 900.401 Q3139.58 904.807 3138.87 912.807 L3172.09 912.757 Z" fill="#000000" fill-rule="evenodd" fill-opacity="1" /><path clip-path="url(#clip900)" d="M3240.85 900.351 Q3244.35 894.072 3249.21 891.084 Q3254.07 888.097 3260.65 888.097 Q3269.51 888.097 3274.32 894.325 Q3279.13 900.503 3279.13 911.946 L3279.13 946.177 L3269.77 946.177 L3269.77 912.25 Q3269.77 904.098 3266.88 900.148 Q3263.99 896.199 3258.07 896.199 Q3250.83 896.199 3246.63 901.009 Q3242.42 905.819 3242.42 914.124 L3242.42 946.177 L3233.06 946.177 L3233.06 912.25 Q3233.06 904.047 3230.17 900.148 Q3227.28 896.199 3221.26 896.199 Q3214.12 896.199 3209.91 901.06 Q3205.71 905.87 3205.71 914.124 L3205.71 946.177 L3196.34 946.177 L3196.34 889.464 L3205.71 889.464 L3205.71 898.275 Q3208.9 893.059 3213.36 890.578 Q3217.81 888.097 3223.94 888.097 Q3230.12 888.097 3234.42 891.236 Q3238.78 894.376 3240.85 900.351 Z" fill="#000000" fill-rule="evenodd" fill-opacity="1" /><path clip-path="url(#clip900)" d="M3323.49 917.668 Q3312.2 917.668 3307.85 920.251 Q3303.49 922.833 3303.49 929.062 Q3303.49 934.024 3306.73 936.961 Q3310.02 939.847 3315.64 939.847 Q3323.39 939.847 3328.05 934.378 Q3332.76 928.859 3332.76 919.744 L3332.76 917.668 L3323.49 917.668 M3342.08 913.82 L3342.08 946.177 L3332.76 946.177 L3332.76 937.568 Q3329.57 942.733 3324.81 945.215 Q3320.05 947.645 3313.16 947.645 Q3304.45 947.645 3299.29 942.784 Q3294.17 937.872 3294.17 929.669 Q3294.17 920.099 3300.55 915.238 Q3306.98 910.377 3319.69 910.377 L3332.76 910.377 L3332.76 909.465 Q3332.76 903.034 3328.5 899.541 Q3324.3 895.996 3316.66 895.996 Q3311.79 895.996 3307.19 897.161 Q3302.58 898.325 3298.33 900.655 L3298.33 892.046 Q3303.44 890.072 3308.25 889.109 Q3313.06 888.097 3317.62 888.097 Q3329.92 888.097 3336 894.477 Q3342.08 900.857 3342.08 913.82 Z" fill="#000000" fill-rule="evenodd" fill-opacity="1" /><path clip-path="url(#clip900)" d="M3408.41 911.946 L3408.41 946.177 L3399.09 946.177 L3399.09 912.25 Q3399.09 904.199 3395.95 900.199 Q3392.81 896.199 3386.53 896.199 Q3378.99 896.199 3374.63 901.009 Q3370.28 905.819 3370.28 914.124 L3370.28 946.177 L3360.91 946.177 L3360.91 889.464 L3370.28 889.464 L3370.28 898.275 Q3373.62 893.16 3378.13 890.629 Q3382.69 888.097 3388.61 888.097 Q3398.38 888.097 3403.4 894.173 Q3408.41 900.199 3408.41 911.946 Z" fill="#000000" fill-rule="evenodd" fill-opacity="1" /><path clip-path="url(#clip900)" d="M3464.31 898.072 L3464.31 867.387 L3473.63 867.387 L3473.63 946.177 L3464.31 946.177 L3464.31 937.67 Q3461.37 942.733 3456.87 945.215 Q3452.41 947.645 3446.13 947.645 Q3435.85 947.645 3429.37 939.442 Q3422.94 931.239 3422.94 917.871 Q3422.94 904.503 3429.37 896.3 Q3435.85 888.097 3446.13 888.097 Q3452.41 888.097 3456.87 890.578 Q3461.37 893.008 3464.31 898.072 M3432.56 917.871 Q3432.56 928.15 3436.77 934.024 Q3441.02 939.847 3448.41 939.847 Q3455.8 939.847 3460.06 934.024 Q3464.31 928.15 3464.31 917.871 Q3464.31 907.592 3460.06 901.769 Q3455.8 895.895 3448.41 895.895 Q3441.02 895.895 3436.77 901.769 Q3432.56 907.592 3432.56 917.871 Z" fill="#000000" fill-rule="evenodd" fill-opacity="1" /></svg>
