<?xml version="1.0" encoding="utf-8"?>
<svg xmlns="http://www.w3.org/2000/svg" xmlns:xlink="http://www.w3.org/1999/xlink" width="528" height="336" viewBox="0 0 2112 1344">
<defs>
  <clipPath id="clip140">
    <rect x="0" y="0" width="2112" height="1344"/>
  </clipPath>
</defs>
<path clip-path="url(#clip140)" d="M0 1344 L2112 1344 L2112 2.13163e-14 L0 2.13163e-14  Z" fill="#ffffff" fill-rule="evenodd" fill-opacity="1"/>
<defs>
  <clipPath id="clip141">
    <rect x="422" y="0" width="1479" height="1344"/>
  </clipPath>
</defs>
<path clip-path="url(#clip140)" d="M244.502 1173.47 L2064.76 1173.47 L2064.76 47.2441 L244.502 47.2441  Z" fill="#ffffff" fill-rule="evenodd" fill-opacity="1"/>
<defs>
  <clipPath id="clip142">
    <rect x="244" y="47" width="1821" height="1127"/>
  </clipPath>
</defs>
<polyline clip-path="url(#clip142)" style="stroke:#000000; stroke-linecap:round; stroke-linejoin:round; stroke-width:2; stroke-opacity:0.1; fill:none" points="293.711,1173.47 293.711,47.2441 "/>
<polyline clip-path="url(#clip142)" style="stroke:#000000; stroke-linecap:round; stroke-linejoin:round; stroke-width:2; stroke-opacity:0.1; fill:none" points="755.329,1173.47 755.329,47.2441 "/>
<polyline clip-path="url(#clip142)" style="stroke:#000000; stroke-linecap:round; stroke-linejoin:round; stroke-width:2; stroke-opacity:0.1; fill:none" points="1216.95,1173.47 1216.95,47.2441 "/>
<polyline clip-path="url(#clip142)" style="stroke:#000000; stroke-linecap:round; stroke-linejoin:round; stroke-width:2; stroke-opacity:0.1; fill:none" points="1678.57,1173.47 1678.57,47.2441 "/>
<polyline clip-path="url(#clip140)" style="stroke:#000000; stroke-linecap:round; stroke-linejoin:round; stroke-width:4; stroke-opacity:1; fill:none" points="244.502,1173.47 2064.76,1173.47 "/>
<polyline clip-path="url(#clip140)" style="stroke:#000000; stroke-linecap:round; stroke-linejoin:round; stroke-width:4; stroke-opacity:1; fill:none" points="293.711,1173.47 293.711,1154.57 "/>
<polyline clip-path="url(#clip140)" style="stroke:#000000; stroke-linecap:round; stroke-linejoin:round; stroke-width:4; stroke-opacity:1; fill:none" points="755.329,1173.47 755.329,1154.57 "/>
<polyline clip-path="url(#clip140)" style="stroke:#000000; stroke-linecap:round; stroke-linejoin:round; stroke-width:4; stroke-opacity:1; fill:none" points="1216.95,1173.47 1216.95,1154.57 "/>
<polyline clip-path="url(#clip140)" style="stroke:#000000; stroke-linecap:round; stroke-linejoin:round; stroke-width:4; stroke-opacity:1; fill:none" points="1678.57,1173.47 1678.57,1154.57 "/>
<path clip-path="url(#clip140)" d="M293.711 1202.09 Q290.099 1202.09 288.271 1205.65 Q286.465 1209.19 286.465 1216.32 Q286.465 1223.43 288.271 1226.99 Q290.099 1230.53 293.711 1230.53 Q297.345 1230.53 299.15 1226.99 Q300.979 1223.43 300.979 1216.32 Q300.979 1209.19 299.15 1205.65 Q297.345 1202.09 293.711 1202.09 M293.711 1198.38 Q299.521 1198.38 302.576 1202.99 Q305.655 1207.57 305.655 1216.32 Q305.655 1225.05 302.576 1229.65 Q299.521 1234.24 293.711 1234.24 Q287.9 1234.24 284.822 1229.65 Q281.766 1225.05 281.766 1216.32 Q281.766 1207.57 284.822 1202.99 Q287.9 1198.38 293.711 1198.38 Z" fill="#000000" fill-rule="nonzero" fill-opacity="1" /><path clip-path="url(#clip140)" d="M719.021 1229.63 L735.341 1229.63 L735.341 1233.57 L713.396 1233.57 L713.396 1229.63 Q716.058 1226.88 720.642 1222.25 Q725.248 1217.59 726.429 1216.25 Q728.674 1213.73 729.554 1211.99 Q730.456 1210.23 730.456 1208.54 Q730.456 1205.79 728.512 1204.05 Q726.591 1202.32 723.489 1202.32 Q721.29 1202.32 718.836 1203.08 Q716.406 1203.84 713.628 1205.4 L713.628 1200.67 Q716.452 1199.54 718.906 1198.96 Q721.359 1198.38 723.396 1198.38 Q728.767 1198.38 731.961 1201.07 Q735.156 1203.75 735.156 1208.24 Q735.156 1210.37 734.345 1212.29 Q733.558 1214.19 731.452 1216.78 Q730.873 1217.46 727.771 1220.67 Q724.669 1223.87 719.021 1229.63 Z" fill="#000000" fill-rule="nonzero" fill-opacity="1" /><path clip-path="url(#clip140)" d="M755.155 1202.09 Q751.544 1202.09 749.716 1205.65 Q747.91 1209.19 747.91 1216.32 Q747.91 1223.43 749.716 1226.99 Q751.544 1230.53 755.155 1230.53 Q758.79 1230.53 760.595 1226.99 Q762.424 1223.43 762.424 1216.32 Q762.424 1209.19 760.595 1205.65 Q758.79 1202.09 755.155 1202.09 M755.155 1198.38 Q760.966 1198.38 764.021 1202.99 Q767.1 1207.57 767.1 1216.32 Q767.1 1225.05 764.021 1229.65 Q760.966 1234.24 755.155 1234.24 Q749.345 1234.24 746.267 1229.65 Q743.211 1225.05 743.211 1216.32 Q743.211 1207.57 746.267 1202.99 Q749.345 1198.38 755.155 1198.38 Z" fill="#000000" fill-rule="nonzero" fill-opacity="1" /><path clip-path="url(#clip140)" d="M785.317 1202.09 Q781.706 1202.09 779.877 1205.65 Q778.072 1209.19 778.072 1216.32 Q778.072 1223.43 779.877 1226.99 Q781.706 1230.53 785.317 1230.53 Q788.952 1230.53 790.757 1226.99 Q792.586 1223.43 792.586 1216.32 Q792.586 1209.19 790.757 1205.65 Q788.952 1202.09 785.317 1202.09 M785.317 1198.38 Q791.127 1198.38 794.183 1202.99 Q797.262 1207.57 797.262 1216.32 Q797.262 1225.05 794.183 1229.65 Q791.127 1234.24 785.317 1234.24 Q779.507 1234.24 776.428 1229.65 Q773.373 1225.05 773.373 1216.32 Q773.373 1207.57 776.428 1202.99 Q779.507 1198.38 785.317 1198.38 Z" fill="#000000" fill-rule="nonzero" fill-opacity="1" /><path clip-path="url(#clip140)" d="M1190.04 1203.08 L1178.23 1221.53 L1190.04 1221.53 L1190.04 1203.08 M1188.81 1199.01 L1194.69 1199.01 L1194.69 1221.53 L1199.62 1221.53 L1199.62 1225.42 L1194.69 1225.42 L1194.69 1233.57 L1190.04 1233.57 L1190.04 1225.42 L1174.44 1225.42 L1174.44 1220.9 L1188.81 1199.01 Z" fill="#000000" fill-rule="nonzero" fill-opacity="1" /><path clip-path="url(#clip140)" d="M1217.35 1202.09 Q1213.74 1202.09 1211.91 1205.65 Q1210.11 1209.19 1210.11 1216.32 Q1210.11 1223.43 1211.91 1226.99 Q1213.74 1230.53 1217.35 1230.53 Q1220.99 1230.53 1222.79 1226.99 Q1224.62 1223.43 1224.62 1216.32 Q1224.62 1209.19 1222.79 1205.65 Q1220.99 1202.09 1217.35 1202.09 M1217.35 1198.38 Q1223.16 1198.38 1226.22 1202.99 Q1229.3 1207.57 1229.3 1216.32 Q1229.3 1225.05 1226.22 1229.65 Q1223.16 1234.24 1217.35 1234.24 Q1211.54 1234.24 1208.46 1229.65 Q1205.41 1225.05 1205.41 1216.32 Q1205.41 1207.57 1208.46 1202.99 Q1211.54 1198.38 1217.35 1198.38 Z" fill="#000000" fill-rule="nonzero" fill-opacity="1" /><path clip-path="url(#clip140)" d="M1247.51 1202.09 Q1243.9 1202.09 1242.07 1205.65 Q1240.27 1209.19 1240.27 1216.32 Q1240.27 1223.43 1242.07 1226.99 Q1243.9 1230.53 1247.51 1230.53 Q1251.15 1230.53 1252.95 1226.99 Q1254.78 1223.43 1254.78 1216.32 Q1254.78 1209.19 1252.95 1205.65 Q1251.15 1202.09 1247.51 1202.09 M1247.51 1198.38 Q1253.32 1198.38 1256.38 1202.99 Q1259.46 1207.57 1259.46 1216.32 Q1259.46 1225.05 1256.38 1229.65 Q1253.32 1234.24 1247.51 1234.24 Q1241.7 1234.24 1238.63 1229.65 Q1235.57 1225.05 1235.57 1216.32 Q1235.57 1207.57 1238.63 1202.99 Q1241.7 1198.38 1247.51 1198.38 Z" fill="#000000" fill-rule="nonzero" fill-opacity="1" /><path clip-path="url(#clip140)" d="M1648.89 1214.42 Q1645.74 1214.42 1643.89 1216.58 Q1642.06 1218.73 1642.06 1222.48 Q1642.06 1226.21 1643.89 1228.38 Q1645.74 1230.53 1648.89 1230.53 Q1652.04 1230.53 1653.87 1228.38 Q1655.72 1226.21 1655.72 1222.48 Q1655.72 1218.73 1653.87 1216.58 Q1652.04 1214.42 1648.89 1214.42 M1658.17 1199.77 L1658.17 1204.03 Q1656.41 1203.2 1654.61 1202.76 Q1652.83 1202.32 1651.07 1202.32 Q1646.44 1202.32 1643.98 1205.44 Q1641.55 1208.57 1641.2 1214.89 Q1642.57 1212.87 1644.63 1211.81 Q1646.69 1210.72 1649.17 1210.72 Q1654.38 1210.72 1657.39 1213.89 Q1660.42 1217.04 1660.42 1222.48 Q1660.42 1227.8 1657.27 1231.02 Q1654.12 1234.24 1648.89 1234.24 Q1642.89 1234.24 1639.72 1229.65 Q1636.55 1225.05 1636.55 1216.32 Q1636.55 1208.13 1640.44 1203.27 Q1644.33 1198.38 1650.88 1198.38 Q1652.64 1198.38 1654.42 1198.73 Q1656.23 1199.08 1658.17 1199.77 Z" fill="#000000" fill-rule="nonzero" fill-opacity="1" /><path clip-path="url(#clip140)" d="M1678.47 1202.09 Q1674.86 1202.09 1673.03 1205.65 Q1671.23 1209.19 1671.23 1216.32 Q1671.23 1223.43 1673.03 1226.99 Q1674.86 1230.53 1678.47 1230.53 Q1682.11 1230.53 1683.91 1226.99 Q1685.74 1223.43 1685.74 1216.32 Q1685.74 1209.19 1683.91 1205.65 Q1682.11 1202.09 1678.47 1202.09 M1678.47 1198.38 Q1684.28 1198.38 1687.34 1202.99 Q1690.42 1207.57 1690.42 1216.32 Q1690.42 1225.05 1687.34 1229.65 Q1684.28 1234.24 1678.47 1234.24 Q1672.66 1234.24 1669.58 1229.65 Q1666.53 1225.05 1666.53 1216.32 Q1666.53 1207.57 1669.58 1202.99 Q1672.66 1198.38 1678.47 1198.38 Z" fill="#000000" fill-rule="nonzero" fill-opacity="1" /><path clip-path="url(#clip140)" d="M1708.64 1202.09 Q1705.02 1202.09 1703.2 1205.65 Q1701.39 1209.19 1701.39 1216.32 Q1701.39 1223.43 1703.2 1226.99 Q1705.02 1230.53 1708.64 1230.53 Q1712.27 1230.53 1714.07 1226.99 Q1715.9 1223.43 1715.9 1216.32 Q1715.9 1209.19 1714.07 1205.65 Q1712.27 1202.09 1708.64 1202.09 M1708.64 1198.38 Q1714.45 1198.38 1717.5 1202.99 Q1720.58 1207.57 1720.58 1216.32 Q1720.58 1225.05 1717.5 1229.65 Q1714.45 1234.24 1708.64 1234.24 Q1702.83 1234.24 1699.75 1229.65 Q1696.69 1225.05 1696.69 1216.32 Q1696.69 1207.57 1699.75 1202.99 Q1702.83 1198.38 1708.64 1198.38 Z" fill="#000000" fill-rule="nonzero" fill-opacity="1" /><path clip-path="url(#clip140)" d="M863.955 1266.49 L870.384 1266.49 L870.384 1285.97 L893.746 1285.97 L893.746 1266.49 L900.176 1266.49 L900.176 1314.01 L893.746 1314.01 L893.746 1291.38 L870.384 1291.38 L870.384 1314.01 L863.955 1314.01 L863.955 1266.49 Z" fill="#000000" fill-rule="nonzero" fill-opacity="1" /><path clip-path="url(#clip140)" d="M926.53 1282.47 Q921.819 1282.47 919.082 1286.16 Q916.345 1289.83 916.345 1296.22 Q916.345 1302.62 919.05 1306.31 Q921.787 1309.97 926.53 1309.97 Q931.209 1309.97 933.946 1306.28 Q936.683 1302.59 936.683 1296.22 Q936.683 1289.89 933.946 1286.2 Q931.209 1282.47 926.53 1282.47 M926.53 1277.51 Q934.169 1277.51 938.529 1282.47 Q942.89 1287.44 942.89 1296.22 Q942.89 1304.98 938.529 1309.97 Q934.169 1314.94 926.53 1314.94 Q918.859 1314.94 914.499 1309.97 Q910.17 1304.98 910.17 1296.22 Q910.17 1287.44 914.499 1282.47 Q918.859 1277.51 926.53 1277.51 Z" fill="#000000" fill-rule="nonzero" fill-opacity="1" /><path clip-path="url(#clip140)" d="M951.993 1299.95 L951.993 1278.37 L957.849 1278.37 L957.849 1299.72 Q957.849 1304.78 959.822 1307.33 Q961.796 1309.85 965.743 1309.85 Q970.485 1309.85 973.222 1306.82 Q975.991 1303.8 975.991 1298.58 L975.991 1278.37 L981.848 1278.37 L981.848 1314.01 L975.991 1314.01 L975.991 1308.54 Q973.859 1311.79 971.026 1313.38 Q968.225 1314.94 964.501 1314.94 Q958.358 1314.94 955.175 1311.12 Q951.993 1307.3 951.993 1299.95 M966.729 1277.51 L966.729 1277.51 Z" fill="#000000" fill-rule="nonzero" fill-opacity="1" /><path clip-path="url(#clip140)" d="M1014.57 1283.84 Q1013.58 1283.27 1012.4 1283.01 Q1011.26 1282.73 1009.86 1282.73 Q1004.89 1282.73 1002.22 1285.97 Q999.576 1289.19 999.576 1295.24 L999.576 1314.01 L993.688 1314.01 L993.688 1278.37 L999.576 1278.37 L999.576 1283.9 Q1001.42 1280.66 1004.38 1279.1 Q1007.34 1277.51 1011.58 1277.51 Q1012.18 1277.51 1012.91 1277.6 Q1013.64 1277.67 1014.54 1277.83 L1014.57 1283.84 Z" fill="#000000" fill-rule="nonzero" fill-opacity="1" /><path clip-path="url(#clip140)" d="M1055.24 1282.47 Q1050.53 1282.47 1047.8 1286.16 Q1045.06 1289.83 1045.06 1296.22 Q1045.06 1302.62 1047.76 1306.31 Q1050.5 1309.97 1055.24 1309.97 Q1059.92 1309.97 1062.66 1306.28 Q1065.4 1302.59 1065.4 1296.22 Q1065.4 1289.89 1062.66 1286.2 Q1059.92 1282.47 1055.24 1282.47 M1055.24 1277.51 Q1062.88 1277.51 1067.24 1282.47 Q1071.6 1287.44 1071.6 1296.22 Q1071.6 1304.98 1067.24 1309.97 Q1062.88 1314.94 1055.24 1314.94 Q1047.57 1314.94 1043.21 1309.97 Q1038.88 1304.98 1038.88 1296.22 Q1038.88 1287.44 1043.21 1282.47 Q1047.57 1277.51 1055.24 1277.51 Z" fill="#000000" fill-rule="nonzero" fill-opacity="1" /><path clip-path="url(#clip140)" d="M1099.36 1264.49 L1099.36 1269.36 L1093.76 1269.36 Q1090.61 1269.36 1089.36 1270.63 Q1088.16 1271.91 1088.16 1275.22 L1088.16 1278.37 L1097.8 1278.37 L1097.8 1282.92 L1088.16 1282.92 L1088.16 1314.01 L1082.27 1314.01 L1082.27 1282.92 L1076.66 1282.92 L1076.66 1278.37 L1082.27 1278.37 L1082.27 1275.88 Q1082.27 1269.93 1085.04 1267.23 Q1087.8 1264.49 1093.82 1264.49 L1099.36 1264.49 Z" fill="#000000" fill-rule="nonzero" fill-opacity="1" /><path clip-path="url(#clip140)" d="M1130.77 1268.25 L1130.77 1278.37 L1142.84 1278.37 L1142.84 1282.92 L1130.77 1282.92 L1130.77 1302.27 Q1130.77 1306.63 1131.95 1307.87 Q1133.16 1309.11 1136.82 1309.11 L1142.84 1309.11 L1142.84 1314.01 L1136.82 1314.01 Q1130.04 1314.01 1127.46 1311.5 Q1124.89 1308.95 1124.89 1302.27 L1124.89 1282.92 L1120.59 1282.92 L1120.59 1278.37 L1124.89 1278.37 L1124.89 1268.25 L1130.77 1268.25 Z" fill="#000000" fill-rule="nonzero" fill-opacity="1" /><path clip-path="url(#clip140)" d="M1180.17 1292.5 L1180.17 1314.01 L1174.31 1314.01 L1174.31 1292.69 Q1174.31 1287.63 1172.34 1285.11 Q1170.37 1282.6 1166.42 1282.6 Q1161.68 1282.6 1158.94 1285.62 Q1156.2 1288.65 1156.2 1293.87 L1156.2 1314.01 L1150.32 1314.01 L1150.32 1264.49 L1156.2 1264.49 L1156.2 1283.9 Q1158.31 1280.69 1161.14 1279.1 Q1164 1277.51 1167.73 1277.51 Q1173.87 1277.51 1177.02 1281.33 Q1180.17 1285.11 1180.17 1292.5 Z" fill="#000000" fill-rule="nonzero" fill-opacity="1" /><path clip-path="url(#clip140)" d="M1222.34 1294.73 L1222.34 1297.59 L1195.42 1297.59 Q1195.8 1303.64 1199.05 1306.82 Q1202.32 1309.97 1208.15 1309.97 Q1211.52 1309.97 1214.67 1309.14 Q1217.86 1308.32 1220.98 1306.66 L1220.98 1312.2 Q1217.82 1313.54 1214.51 1314.24 Q1211.2 1314.94 1207.8 1314.94 Q1199.27 1314.94 1194.27 1309.97 Q1189.31 1305.01 1189.31 1296.54 Q1189.31 1287.79 1194.02 1282.66 Q1198.76 1277.51 1206.78 1277.51 Q1213.97 1277.51 1218.14 1282.15 Q1222.34 1286.77 1222.34 1294.73 M1216.49 1293.01 Q1216.42 1288.2 1213.78 1285.34 Q1211.17 1282.47 1206.84 1282.47 Q1201.94 1282.47 1198.98 1285.24 Q1196.05 1288.01 1195.61 1293.04 L1216.49 1293.01 Z" fill="#000000" fill-rule="nonzero" fill-opacity="1" /><path clip-path="url(#clip140)" d="M1252.93 1266.49 L1262.51 1266.49 L1274.64 1298.83 L1286.83 1266.49 L1296.41 1266.49 L1296.41 1314.01 L1290.14 1314.01 L1290.14 1272.29 L1277.88 1304.88 L1271.42 1304.88 L1259.17 1272.29 L1259.17 1314.01 L1252.93 1314.01 L1252.93 1266.49 Z" fill="#000000" fill-rule="nonzero" fill-opacity="1" /><path clip-path="url(#clip140)" d="M1322.73 1282.47 Q1318.02 1282.47 1315.28 1286.16 Q1312.55 1289.83 1312.55 1296.22 Q1312.55 1302.62 1315.25 1306.31 Q1317.99 1309.97 1322.73 1309.97 Q1327.41 1309.97 1330.15 1306.28 Q1332.88 1302.59 1332.88 1296.22 Q1332.88 1289.89 1330.15 1286.2 Q1327.41 1282.47 1322.73 1282.47 M1322.73 1277.51 Q1330.37 1277.51 1334.73 1282.47 Q1339.09 1287.44 1339.09 1296.22 Q1339.09 1304.98 1334.73 1309.97 Q1330.37 1314.94 1322.73 1314.94 Q1315.06 1314.94 1310.7 1309.97 Q1306.37 1304.98 1306.37 1296.22 Q1306.37 1287.44 1310.7 1282.47 Q1315.06 1277.51 1322.73 1277.51 Z" fill="#000000" fill-rule="nonzero" fill-opacity="1" /><path clip-path="url(#clip140)" d="M1378.43 1292.5 L1378.43 1314.01 L1372.57 1314.01 L1372.57 1292.69 Q1372.57 1287.63 1370.6 1285.11 Q1368.63 1282.6 1364.68 1282.6 Q1359.94 1282.6 1357.2 1285.62 Q1354.46 1288.65 1354.46 1293.87 L1354.46 1314.01 L1348.58 1314.01 L1348.58 1278.37 L1354.46 1278.37 L1354.46 1283.9 Q1356.57 1280.69 1359.4 1279.1 Q1362.26 1277.51 1365.99 1277.51 Q1372.13 1277.51 1375.28 1281.33 Q1378.43 1285.11 1378.43 1292.5 Z" fill="#000000" fill-rule="nonzero" fill-opacity="1" /><path clip-path="url(#clip140)" d="M1395.91 1268.25 L1395.91 1278.37 L1407.97 1278.37 L1407.97 1282.92 L1395.91 1282.92 L1395.91 1302.27 Q1395.91 1306.63 1397.08 1307.87 Q1398.29 1309.11 1401.95 1309.11 L1407.97 1309.11 L1407.97 1314.01 L1401.95 1314.01 Q1395.17 1314.01 1392.59 1311.5 Q1390.02 1308.95 1390.02 1302.27 L1390.02 1282.92 L1385.72 1282.92 L1385.72 1278.37 L1390.02 1278.37 L1390.02 1268.25 L1395.91 1268.25 Z" fill="#000000" fill-rule="nonzero" fill-opacity="1" /><path clip-path="url(#clip140)" d="M1445.3 1292.5 L1445.3 1314.01 L1439.45 1314.01 L1439.45 1292.69 Q1439.45 1287.63 1437.47 1285.11 Q1435.5 1282.6 1431.55 1282.6 Q1426.81 1282.6 1424.07 1285.62 Q1421.34 1288.65 1421.34 1293.87 L1421.34 1314.01 L1415.45 1314.01 L1415.45 1264.49 L1421.34 1264.49 L1421.34 1283.9 Q1423.44 1280.69 1426.27 1279.1 Q1429.13 1277.51 1432.86 1277.51 Q1439 1277.51 1442.15 1281.33 Q1445.3 1285.11 1445.3 1292.5 Z" fill="#000000" fill-rule="nonzero" fill-opacity="1" /><polyline clip-path="url(#clip142)" style="stroke:#000000; stroke-linecap:round; stroke-linejoin:round; stroke-width:2; stroke-opacity:0.1; fill:none" points="244.502,1141.6 2064.76,1141.6 "/>
<polyline clip-path="url(#clip142)" style="stroke:#000000; stroke-linecap:round; stroke-linejoin:round; stroke-width:2; stroke-opacity:0.1; fill:none" points="244.502,872.964 2064.76,872.964 "/>
<polyline clip-path="url(#clip142)" style="stroke:#000000; stroke-linecap:round; stroke-linejoin:round; stroke-width:2; stroke-opacity:0.1; fill:none" points="244.502,604.332 2064.76,604.332 "/>
<polyline clip-path="url(#clip142)" style="stroke:#000000; stroke-linecap:round; stroke-linejoin:round; stroke-width:2; stroke-opacity:0.1; fill:none" points="244.502,335.699 2064.76,335.699 "/>
<polyline clip-path="url(#clip142)" style="stroke:#000000; stroke-linecap:round; stroke-linejoin:round; stroke-width:2; stroke-opacity:0.1; fill:none" points="244.502,67.0669 2064.76,67.0669 "/>
<polyline clip-path="url(#clip140)" style="stroke:#000000; stroke-linecap:round; stroke-linejoin:round; stroke-width:4; stroke-opacity:1; fill:none" points="244.502,1173.47 244.502,47.2441 "/>
<polyline clip-path="url(#clip140)" style="stroke:#000000; stroke-linecap:round; stroke-linejoin:round; stroke-width:4; stroke-opacity:1; fill:none" points="244.502,1141.6 263.4,1141.6 "/>
<polyline clip-path="url(#clip140)" style="stroke:#000000; stroke-linecap:round; stroke-linejoin:round; stroke-width:4; stroke-opacity:1; fill:none" points="244.502,872.964 263.4,872.964 "/>
<polyline clip-path="url(#clip140)" style="stroke:#000000; stroke-linecap:round; stroke-linejoin:round; stroke-width:4; stroke-opacity:1; fill:none" points="244.502,604.332 263.4,604.332 "/>
<polyline clip-path="url(#clip140)" style="stroke:#000000; stroke-linecap:round; stroke-linejoin:round; stroke-width:4; stroke-opacity:1; fill:none" points="244.502,335.699 263.4,335.699 "/>
<polyline clip-path="url(#clip140)" style="stroke:#000000; stroke-linecap:round; stroke-linejoin:round; stroke-width:4; stroke-opacity:1; fill:none" points="244.502,67.0669 263.4,67.0669 "/>
<path clip-path="url(#clip140)" d="M125.485 1127.4 Q121.873 1127.4 120.045 1130.96 Q118.239 1134.5 118.239 1141.63 Q118.239 1148.74 120.045 1152.3 Q121.873 1155.84 125.485 1155.84 Q129.119 1155.84 130.924 1152.3 Q132.753 1148.74 132.753 1141.63 Q132.753 1134.5 130.924 1130.96 Q129.119 1127.4 125.485 1127.4 M125.485 1123.69 Q131.295 1123.69 134.35 1128.3 Q137.429 1132.88 137.429 1141.63 Q137.429 1150.36 134.35 1154.96 Q131.295 1159.55 125.485 1159.55 Q119.674 1159.55 116.596 1154.96 Q113.54 1150.36 113.54 1141.63 Q113.54 1132.88 116.596 1128.3 Q119.674 1123.69 125.485 1123.69 Z" fill="#000000" fill-rule="nonzero" fill-opacity="1" /><path clip-path="url(#clip140)" d="M145.646 1153 L150.531 1153 L150.531 1158.88 L145.646 1158.88 L145.646 1153 Z" fill="#000000" fill-rule="nonzero" fill-opacity="1" /><path clip-path="url(#clip140)" d="M170.716 1127.4 Q167.105 1127.4 165.276 1130.96 Q163.47 1134.5 163.47 1141.63 Q163.47 1148.74 165.276 1152.3 Q167.105 1155.84 170.716 1155.84 Q174.35 1155.84 176.156 1152.3 Q177.984 1148.74 177.984 1141.63 Q177.984 1134.5 176.156 1130.96 Q174.35 1127.4 170.716 1127.4 M170.716 1123.69 Q176.526 1123.69 179.581 1128.3 Q182.66 1132.88 182.66 1141.63 Q182.66 1150.36 179.581 1154.96 Q176.526 1159.55 170.716 1159.55 Q164.906 1159.55 161.827 1154.96 Q158.771 1150.36 158.771 1141.63 Q158.771 1132.88 161.827 1128.3 Q164.906 1123.69 170.716 1123.69 Z" fill="#000000" fill-rule="nonzero" fill-opacity="1" /><path clip-path="url(#clip140)" d="M200.878 1127.4 Q197.267 1127.4 195.438 1130.96 Q193.632 1134.5 193.632 1141.63 Q193.632 1148.74 195.438 1152.3 Q197.267 1155.84 200.878 1155.84 Q204.512 1155.84 206.317 1152.3 Q208.146 1148.74 208.146 1141.63 Q208.146 1134.5 206.317 1130.96 Q204.512 1127.4 200.878 1127.4 M200.878 1123.69 Q206.688 1123.69 209.743 1128.3 Q212.822 1132.88 212.822 1141.63 Q212.822 1150.36 209.743 1154.96 Q206.688 1159.55 200.878 1159.55 Q195.067 1159.55 191.989 1154.96 Q188.933 1150.36 188.933 1141.63 Q188.933 1132.88 191.989 1128.3 Q195.067 1123.69 200.878 1123.69 Z" fill="#000000" fill-rule="nonzero" fill-opacity="1" /><path clip-path="url(#clip140)" d="M126.48 858.763 Q122.869 858.763 121.04 862.328 Q119.235 865.869 119.235 872.999 Q119.235 880.105 121.04 883.67 Q122.869 887.212 126.48 887.212 Q130.114 887.212 131.92 883.67 Q133.748 880.105 133.748 872.999 Q133.748 865.869 131.92 862.328 Q130.114 858.763 126.48 858.763 M126.48 855.059 Q132.29 855.059 135.346 859.665 Q138.424 864.249 138.424 872.999 Q138.424 881.726 135.346 886.332 Q132.29 890.915 126.48 890.915 Q120.67 890.915 117.591 886.332 Q114.536 881.726 114.536 872.999 Q114.536 864.249 117.591 859.665 Q120.67 855.059 126.48 855.059 Z" fill="#000000" fill-rule="nonzero" fill-opacity="1" /><path clip-path="url(#clip140)" d="M146.642 884.364 L151.526 884.364 L151.526 890.244 L146.642 890.244 L146.642 884.364 Z" fill="#000000" fill-rule="nonzero" fill-opacity="1" /><path clip-path="url(#clip140)" d="M165.739 886.309 L182.058 886.309 L182.058 890.244 L160.114 890.244 L160.114 886.309 Q162.776 883.554 167.359 878.925 Q171.966 874.272 173.146 872.929 Q175.392 870.406 176.271 868.67 Q177.174 866.911 177.174 865.221 Q177.174 862.466 175.23 860.73 Q173.308 858.994 170.207 858.994 Q168.007 858.994 165.554 859.758 Q163.123 860.522 160.345 862.073 L160.345 857.351 Q163.17 856.216 165.623 855.638 Q168.077 855.059 170.114 855.059 Q175.484 855.059 178.679 857.744 Q181.873 860.429 181.873 864.92 Q181.873 867.05 181.063 868.971 Q180.276 870.869 178.169 873.462 Q177.591 874.133 174.489 877.351 Q171.387 880.545 165.739 886.309 Z" fill="#000000" fill-rule="nonzero" fill-opacity="1" /><path clip-path="url(#clip140)" d="M191.919 855.684 L210.276 855.684 L210.276 859.619 L196.202 859.619 L196.202 868.091 Q197.22 867.744 198.239 867.582 Q199.257 867.397 200.276 867.397 Q206.063 867.397 209.442 870.568 Q212.822 873.739 212.822 879.156 Q212.822 884.735 209.35 887.837 Q205.878 890.915 199.558 890.915 Q197.382 890.915 195.114 890.545 Q192.868 890.175 190.461 889.434 L190.461 884.735 Q192.544 885.869 194.767 886.425 Q196.989 886.98 199.466 886.98 Q203.47 886.98 205.808 884.874 Q208.146 882.767 208.146 879.156 Q208.146 875.545 205.808 873.439 Q203.47 871.332 199.466 871.332 Q197.591 871.332 195.716 871.749 Q193.864 872.165 191.919 873.045 L191.919 855.684 Z" fill="#000000" fill-rule="nonzero" fill-opacity="1" /><path clip-path="url(#clip140)" d="M125.485 590.13 Q121.873 590.13 120.045 593.695 Q118.239 597.237 118.239 604.366 Q118.239 611.473 120.045 615.038 Q121.873 618.579 125.485 618.579 Q129.119 618.579 130.924 615.038 Q132.753 611.473 132.753 604.366 Q132.753 597.237 130.924 593.695 Q129.119 590.13 125.485 590.13 M125.485 586.427 Q131.295 586.427 134.35 591.033 Q137.429 595.616 137.429 604.366 Q137.429 613.093 134.35 617.7 Q131.295 622.283 125.485 622.283 Q119.674 622.283 116.596 617.7 Q113.54 613.093 113.54 604.366 Q113.54 595.616 116.596 591.033 Q119.674 586.427 125.485 586.427 Z" fill="#000000" fill-rule="nonzero" fill-opacity="1" /><path clip-path="url(#clip140)" d="M145.646 615.732 L150.531 615.732 L150.531 621.612 L145.646 621.612 L145.646 615.732 Z" fill="#000000" fill-rule="nonzero" fill-opacity="1" /><path clip-path="url(#clip140)" d="M160.762 587.052 L179.119 587.052 L179.119 590.987 L165.045 590.987 L165.045 599.459 Q166.063 599.112 167.082 598.95 Q168.1 598.765 169.119 598.765 Q174.906 598.765 178.285 601.936 Q181.665 605.107 181.665 610.524 Q181.665 616.102 178.193 619.204 Q174.72 622.283 168.401 622.283 Q166.225 622.283 163.957 621.913 Q161.711 621.542 159.304 620.801 L159.304 616.102 Q161.387 617.237 163.609 617.792 Q165.832 618.348 168.308 618.348 Q172.313 618.348 174.651 616.241 Q176.989 614.135 176.989 610.524 Q176.989 606.913 174.651 604.806 Q172.313 602.7 168.308 602.7 Q166.433 602.7 164.558 603.116 Q162.707 603.533 160.762 604.413 L160.762 587.052 Z" fill="#000000" fill-rule="nonzero" fill-opacity="1" /><path clip-path="url(#clip140)" d="M200.878 590.13 Q197.267 590.13 195.438 593.695 Q193.632 597.237 193.632 604.366 Q193.632 611.473 195.438 615.038 Q197.267 618.579 200.878 618.579 Q204.512 618.579 206.317 615.038 Q208.146 611.473 208.146 604.366 Q208.146 597.237 206.317 593.695 Q204.512 590.13 200.878 590.13 M200.878 586.427 Q206.688 586.427 209.743 591.033 Q212.822 595.616 212.822 604.366 Q212.822 613.093 209.743 617.7 Q206.688 622.283 200.878 622.283 Q195.067 622.283 191.989 617.7 Q188.933 613.093 188.933 604.366 Q188.933 595.616 191.989 591.033 Q195.067 586.427 200.878 586.427 Z" fill="#000000" fill-rule="nonzero" fill-opacity="1" /><path clip-path="url(#clip140)" d="M126.48 321.498 Q122.869 321.498 121.04 325.063 Q119.235 328.604 119.235 335.734 Q119.235 342.84 121.04 346.405 Q122.869 349.947 126.48 349.947 Q130.114 349.947 131.92 346.405 Q133.748 342.84 133.748 335.734 Q133.748 328.604 131.92 325.063 Q130.114 321.498 126.48 321.498 M126.48 317.794 Q132.29 317.794 135.346 322.401 Q138.424 326.984 138.424 335.734 Q138.424 344.461 135.346 349.067 Q132.29 353.651 126.48 353.651 Q120.67 353.651 117.591 349.067 Q114.536 344.461 114.536 335.734 Q114.536 326.984 117.591 322.401 Q120.67 317.794 126.48 317.794 Z" fill="#000000" fill-rule="nonzero" fill-opacity="1" /><path clip-path="url(#clip140)" d="M146.642 347.1 L151.526 347.1 L151.526 352.979 L146.642 352.979 L146.642 347.1 Z" fill="#000000" fill-rule="nonzero" fill-opacity="1" /><path clip-path="url(#clip140)" d="M160.531 318.419 L182.753 318.419 L182.753 320.41 L170.207 352.979 L165.322 352.979 L177.128 322.354 L160.531 322.354 L160.531 318.419 Z" fill="#000000" fill-rule="nonzero" fill-opacity="1" /><path clip-path="url(#clip140)" d="M191.919 318.419 L210.276 318.419 L210.276 322.354 L196.202 322.354 L196.202 330.827 Q197.22 330.479 198.239 330.317 Q199.257 330.132 200.276 330.132 Q206.063 330.132 209.442 333.303 Q212.822 336.475 212.822 341.891 Q212.822 347.47 209.35 350.572 Q205.878 353.651 199.558 353.651 Q197.382 353.651 195.114 353.28 Q192.868 352.91 190.461 352.169 L190.461 347.47 Q192.544 348.604 194.767 349.16 Q196.989 349.715 199.466 349.715 Q203.47 349.715 205.808 347.609 Q208.146 345.502 208.146 341.891 Q208.146 338.28 205.808 336.174 Q203.47 334.067 199.466 334.067 Q197.591 334.067 195.716 334.484 Q193.864 334.901 191.919 335.78 L191.919 318.419 Z" fill="#000000" fill-rule="nonzero" fill-opacity="1" /><path clip-path="url(#clip140)" d="M116.295 80.4117 L123.934 80.4117 L123.934 54.0461 L115.623 55.7128 L115.623 51.4536 L123.887 49.7869 L128.563 49.7869 L128.563 80.4117 L136.202 80.4117 L136.202 84.3469 L116.295 84.3469 L116.295 80.4117 Z" fill="#000000" fill-rule="nonzero" fill-opacity="1" /><path clip-path="url(#clip140)" d="M145.646 78.4673 L150.531 78.4673 L150.531 84.3469 L145.646 84.3469 L145.646 78.4673 Z" fill="#000000" fill-rule="nonzero" fill-opacity="1" /><path clip-path="url(#clip140)" d="M170.716 52.8656 Q167.105 52.8656 165.276 56.4304 Q163.47 59.972 163.47 67.1016 Q163.47 74.2081 165.276 77.7729 Q167.105 81.3145 170.716 81.3145 Q174.35 81.3145 176.156 77.7729 Q177.984 74.2081 177.984 67.1016 Q177.984 59.972 176.156 56.4304 Q174.35 52.8656 170.716 52.8656 M170.716 49.1619 Q176.526 49.1619 179.581 53.7684 Q182.66 58.3517 182.66 67.1016 Q182.66 75.8284 179.581 80.4349 Q176.526 85.0182 170.716 85.0182 Q164.906 85.0182 161.827 80.4349 Q158.771 75.8284 158.771 67.1016 Q158.771 58.3517 161.827 53.7684 Q164.906 49.1619 170.716 49.1619 Z" fill="#000000" fill-rule="nonzero" fill-opacity="1" /><path clip-path="url(#clip140)" d="M200.878 52.8656 Q197.267 52.8656 195.438 56.4304 Q193.632 59.972 193.632 67.1016 Q193.632 74.2081 195.438 77.7729 Q197.267 81.3145 200.878 81.3145 Q204.512 81.3145 206.317 77.7729 Q208.146 74.2081 208.146 67.1016 Q208.146 59.972 206.317 56.4304 Q204.512 52.8656 200.878 52.8656 M200.878 49.1619 Q206.688 49.1619 209.743 53.7684 Q212.822 58.3517 212.822 67.1016 Q212.822 75.8284 209.743 80.4349 Q206.688 85.0182 200.878 85.0182 Q195.067 85.0182 191.989 80.4349 Q188.933 75.8284 188.933 67.1016 Q188.933 58.3517 191.989 53.7684 Q195.067 49.1619 200.878 49.1619 Z" fill="#000000" fill-rule="nonzero" fill-opacity="1" /><path clip-path="url(#clip140)" d="M23.7444 822.765 L30.5239 822.765 Q27.5002 826.012 26.0043 829.704 Q24.5083 833.364 24.5083 837.502 Q24.5083 845.65 29.5054 849.979 Q34.4707 854.307 43.8919 854.307 Q53.2813 854.307 58.2784 849.979 Q63.2436 845.65 63.2436 837.502 Q63.2436 833.364 61.7477 829.704 Q60.2518 826.012 57.2281 822.765 L63.9439 822.765 Q66.2355 826.139 67.3814 829.927 Q68.5272 833.682 68.5272 837.884 Q68.5272 848.674 61.9387 854.88 Q55.3183 861.087 43.8919 861.087 Q32.4336 861.087 25.8451 854.88 Q19.2248 848.674 19.2248 837.884 Q19.2248 833.619 20.3706 829.863 Q21.4846 826.075 23.7444 822.765 Z" fill="#000000" fill-rule="nonzero" fill-opacity="1" /><path clip-path="url(#clip140)" d="M49.6847 796.889 Q49.6847 803.986 51.3079 806.724 Q52.9312 809.461 56.8461 809.461 Q59.9653 809.461 61.8114 807.424 Q63.6256 805.355 63.6256 801.822 Q63.6256 796.952 60.1881 794.024 Q56.7188 791.064 50.9897 791.064 L49.6847 791.064 L49.6847 796.889 M47.2657 785.207 L67.6042 785.207 L67.6042 791.064 L62.1933 791.064 Q65.4398 793.069 66.9994 796.061 Q68.5272 799.053 68.5272 803.382 Q68.5272 808.856 65.4716 812.103 Q62.3843 815.317 57.2281 815.317 Q51.2125 815.317 48.1569 811.307 Q45.1014 807.265 45.1014 799.276 L45.1014 791.064 L44.5285 791.064 Q40.4862 791.064 38.2901 793.738 Q36.0621 796.379 36.0621 801.185 Q36.0621 804.241 36.7941 807.137 Q37.5262 810.034 38.9903 812.707 L33.5795 812.707 Q32.3381 809.493 31.7334 806.469 Q31.0968 803.445 31.0968 800.581 Q31.0968 792.846 35.1072 789.027 Q39.1176 785.207 47.2657 785.207 Z" fill="#000000" fill-rule="nonzero" fill-opacity="1" /><path clip-path="url(#clip140)" d="M62.257 767.479 L81.1631 767.479 L81.1631 773.367 L31.9562 773.367 L31.9562 767.479 L37.3671 767.479 Q34.1842 765.633 32.6564 762.832 Q31.0968 759.999 31.0968 756.084 Q31.0968 749.591 36.2531 745.549 Q41.4093 741.475 49.812 741.475 Q58.2147 741.475 63.371 745.549 Q68.5272 749.591 68.5272 756.084 Q68.5272 759.999 66.9994 762.832 Q65.4398 765.633 62.257 767.479 M49.812 747.554 Q43.3508 747.554 39.6905 750.228 Q35.9984 752.87 35.9984 757.517 Q35.9984 762.164 39.6905 764.837 Q43.3508 767.479 49.812 767.479 Q56.2732 767.479 59.9653 764.837 Q63.6256 762.164 63.6256 757.517 Q63.6256 752.87 59.9653 750.228 Q56.2732 747.554 49.812 747.554 Z" fill="#000000" fill-rule="nonzero" fill-opacity="1" /><path clip-path="url(#clip140)" d="M49.6847 715.567 Q49.6847 722.664 51.3079 725.402 Q52.9312 728.139 56.8461 728.139 Q59.9653 728.139 61.8114 726.102 Q63.6256 724.033 63.6256 720.5 Q63.6256 715.63 60.1881 712.702 Q56.7188 709.742 50.9897 709.742 L49.6847 709.742 L49.6847 715.567 M47.2657 703.886 L67.6042 703.886 L67.6042 709.742 L62.1933 709.742 Q65.4398 711.747 66.9994 714.739 Q68.5272 717.731 68.5272 722.06 Q68.5272 727.534 65.4716 730.781 Q62.3843 733.995 57.2281 733.995 Q51.2125 733.995 48.1569 729.985 Q45.1014 725.943 45.1014 717.954 L45.1014 709.742 L44.5285 709.742 Q40.4862 709.742 38.2901 712.416 Q36.0621 715.057 36.0621 719.863 Q36.0621 722.919 36.7941 725.815 Q37.5262 728.712 38.9903 731.385 L33.5795 731.385 Q32.3381 728.171 31.7334 725.147 Q31.0968 722.123 31.0968 719.259 Q31.0968 711.524 35.1072 707.705 Q39.1176 703.886 47.2657 703.886 Z" fill="#000000" fill-rule="nonzero" fill-opacity="1" /><path clip-path="url(#clip140)" d="M33.3248 666.169 L38.7993 666.169 Q37.4307 668.651 36.7623 671.166 Q36.0621 673.648 36.0621 676.195 Q36.0621 681.892 39.6905 685.043 Q43.2872 688.194 49.812 688.194 Q56.3369 688.194 59.9653 685.043 Q63.5619 681.892 63.5619 676.195 Q63.5619 673.648 62.8935 671.166 Q62.1933 668.651 60.8247 666.169 L66.2355 666.169 Q67.3814 668.62 67.9543 671.261 Q68.5272 673.871 68.5272 676.831 Q68.5272 684.884 63.4664 689.626 Q58.4057 694.369 49.812 694.369 Q41.091 694.369 36.0939 689.595 Q31.0968 684.788 31.0968 676.449 Q31.0968 673.744 31.6697 671.166 Q32.2108 668.588 33.3248 666.169 Z" fill="#000000" fill-rule="nonzero" fill-opacity="1" /><path clip-path="url(#clip140)" d="M31.9562 655.984 L31.9562 650.127 L67.6042 650.127 L67.6042 655.984 L31.9562 655.984 M18.079 655.984 L18.079 650.127 L25.495 650.127 L25.495 655.984 L18.079 655.984 Z" fill="#000000" fill-rule="nonzero" fill-opacity="1" /><path clip-path="url(#clip140)" d="M21.8347 632.08 L31.9562 632.08 L31.9562 620.017 L36.5077 620.017 L36.5077 632.08 L55.8594 632.08 Q60.2199 632.08 61.4613 630.903 Q62.7026 629.693 62.7026 626.033 L62.7026 620.017 L67.6042 620.017 L67.6042 626.033 Q67.6042 632.812 65.0897 635.391 Q62.5434 637.969 55.8594 637.969 L36.5077 637.969 L36.5077 642.266 L31.9562 642.266 L31.9562 637.969 L21.8347 637.969 L21.8347 632.08 Z" fill="#000000" fill-rule="nonzero" fill-opacity="1" /><path clip-path="url(#clip140)" d="M70.9143 597.483 Q77.28 599.965 79.2216 602.321 Q81.1631 604.676 81.1631 608.623 L81.1631 613.302 L76.2615 613.302 L76.2615 609.864 Q76.2615 607.445 75.1157 606.108 Q73.9699 604.772 69.7048 603.148 L67.0312 602.098 L31.9562 616.516 L31.9562 610.31 L59.838 599.17 L31.9562 588.03 L31.9562 581.823 L70.9143 597.483 Z" fill="#000000" fill-rule="nonzero" fill-opacity="1" /><path clip-path="url(#clip140)" d="M20.0842 552.764 L20.0842 525.455 L25.495 525.455 L25.495 546.334 L39.4996 546.334 L39.4996 527.492 L44.9104 527.492 L44.9104 546.334 L67.6042 546.334 L67.6042 552.764 L20.0842 552.764 Z" fill="#000000" fill-rule="nonzero" fill-opacity="1" /><path clip-path="url(#clip140)" d="M49.6847 505.307 Q49.6847 512.405 51.3079 515.142 Q52.9312 517.88 56.8461 517.88 Q59.9653 517.88 61.8114 515.843 Q63.6256 513.774 63.6256 510.241 Q63.6256 505.371 60.1881 502.443 Q56.7188 499.483 50.9897 499.483 L49.6847 499.483 L49.6847 505.307 M47.2657 493.626 L67.6042 493.626 L67.6042 499.483 L62.1933 499.483 Q65.4398 501.488 66.9994 504.48 Q68.5272 507.472 68.5272 511.8 Q68.5272 517.275 65.4716 520.521 Q62.3843 523.736 57.2281 523.736 Q51.2125 523.736 48.1569 519.726 Q45.1014 515.683 45.1014 507.694 L45.1014 499.483 L44.5285 499.483 Q40.4862 499.483 38.2901 502.156 Q36.0621 504.798 36.0621 509.604 Q36.0621 512.66 36.7941 515.556 Q37.5262 518.453 38.9903 521.126 L33.5795 521.126 Q32.3381 517.911 31.7334 514.888 Q31.0968 511.864 31.0968 508.999 Q31.0968 501.265 35.1072 497.446 Q39.1176 493.626 47.2657 493.626 Z" fill="#000000" fill-rule="nonzero" fill-opacity="1" /><path clip-path="url(#clip140)" d="M33.3248 455.909 L38.7993 455.909 Q37.4307 458.392 36.7623 460.907 Q36.0621 463.389 36.0621 465.935 Q36.0621 471.633 39.6905 474.784 Q43.2872 477.935 49.812 477.935 Q56.3369 477.935 59.9653 474.784 Q63.5619 471.633 63.5619 465.935 Q63.5619 463.389 62.8935 460.907 Q62.1933 458.392 60.8247 455.909 L66.2355 455.909 Q67.3814 458.36 67.9543 461.002 Q68.5272 463.612 68.5272 466.572 Q68.5272 474.625 63.4664 479.367 Q58.4057 484.11 49.812 484.11 Q41.091 484.11 36.0939 479.335 Q31.0968 474.529 31.0968 466.19 Q31.0968 463.485 31.6697 460.907 Q32.2108 458.328 33.3248 455.909 Z" fill="#000000" fill-rule="nonzero" fill-opacity="1" /><path clip-path="url(#clip140)" d="M21.8347 439.932 L31.9562 439.932 L31.9562 427.869 L36.5077 427.869 L36.5077 439.932 L55.8594 439.932 Q60.2199 439.932 61.4613 438.754 Q62.7026 437.544 62.7026 433.884 L62.7026 427.869 L67.6042 427.869 L67.6042 433.884 Q67.6042 440.664 65.0897 443.242 Q62.5434 445.82 55.8594 445.82 L36.5077 445.82 L36.5077 450.117 L31.9562 450.117 L31.9562 445.82 L21.8347 445.82 L21.8347 439.932 Z" fill="#000000" fill-rule="nonzero" fill-opacity="1" /><path clip-path="url(#clip140)" d="M36.0621 406.352 Q36.0621 411.063 39.7542 413.8 Q43.4145 416.538 49.812 416.538 Q56.2095 416.538 59.9017 413.832 Q63.5619 411.095 63.5619 406.352 Q63.5619 401.674 59.8698 398.936 Q56.1777 396.199 49.812 396.199 Q43.4781 396.199 39.786 398.936 Q36.0621 401.674 36.0621 406.352 M31.0968 406.352 Q31.0968 398.714 36.0621 394.353 Q41.0273 389.993 49.812 389.993 Q58.5649 389.993 63.5619 394.353 Q68.5272 398.714 68.5272 406.352 Q68.5272 414.023 63.5619 418.384 Q58.5649 422.712 49.812 422.712 Q41.0273 422.712 36.0621 418.384 Q31.0968 414.023 31.0968 406.352 Z" fill="#000000" fill-rule="nonzero" fill-opacity="1" /><path clip-path="url(#clip140)" d="M37.4307 359.628 Q36.8578 360.615 36.6032 361.792 Q36.3167 362.938 36.3167 364.339 Q36.3167 369.304 39.5632 371.978 Q42.7779 374.619 48.8253 374.619 L67.6042 374.619 L67.6042 380.508 L31.9562 380.508 L31.9562 374.619 L37.4944 374.619 Q34.2479 372.773 32.6883 369.813 Q31.0968 366.853 31.0968 362.62 Q31.0968 362.015 31.1923 361.283 Q31.256 360.551 31.4151 359.66 L37.4307 359.628 Z" fill="#000000" fill-rule="nonzero" fill-opacity="1" /><polyline clip-path="url(#clip142)" style="stroke:#009af9; stroke-linecap:round; stroke-linejoin:round; stroke-width:4; stroke-opacity:1; fill:none" points="296.019,258.79 298.327,223.643 300.635,216.571 302.943,215.162 305.251,219.756 307.559,217.991 309.867,231.168 312.175,249.411 314.483,371.178 316.791,959.064 319.1,1062.74 321.408,1021.75 323.716,1011.14 326.024,964.434 328.332,946.143 330.64,878.571 332.948,538.854 335.256,573.269 337.564,487.978 339.872,557.464 342.18,589.742 344.489,303.141 346.797,300.254 349.105,247.934 351.413,231.655 353.721,212.592 356.029,212.893 358.337,222.686 360.645,230.057 362.953,215.939 365.261,213.309 367.57,212.46 369.878,262.268 372.186,402.755 374.494,790.778 376.802,956.439 379.11,901.059 381.418,894.507 383.726,819.272 386.034,686.668 388.342,535.538 390.65,507.633 392.959,563.384 395.267,567.998 397.575,338.387 399.883,392.461 402.191,330.075 404.499,272.715 406.807,257.619 409.115,242.359 411.423,224.385 413.731,222.394 416.039,228.913 418.348,232.751 420.656,245.368 422.964,231.498 425.272,463.625 427.58,888.033 429.888,1140.38 432.196,1137.84 434.504,1126.41 436.812,1024.13 439.12,1028.09 441.428,968.896 443.737,822.165 446.045,746.034 448.353,727.641 450.661,787.843 452.969,846.23 455.277,622.155 457.585,588.549 459.893,547.551 462.201,436.491 464.509,405.831 466.817,444.366 469.126,506.854 471.434,489.659 473.742,648.458 476.05,763.801 478.358,861.256 480.666,837.857 482.974,1096.05 485.282,1137.31 487.59,1126.36 489.898,1089.91 492.206,1104.48 494.515,977.275 496.823,951.462 499.131,1038.89 501.439,1008.18 503.747,1029.56 506.055,1027.76 508.363,1110.47 510.671,1121.76 512.979,1119.16 515.287,1126.59 517.596,1098.64 519.904,906.103 522.212,939.552 524.52,909.214 526.828,795.663 529.136,709.433 531.444,754.83 533.752,788.01 536.06,920.033 538.368,1067.78 540.676,1126.2 542.985,1033.17 545.293,798.256 547.601,631.26 549.909,783.029 552.217,788.954 554.525,888.019 556.833,1060.78 559.141,1092.48 561.449,1072.64 563.757,1065.37 566.065,1137.98 568.374,1137.23 570.682,1098.72 572.99,1007.6 575.298,990.365 577.606,984.009 579.914,889.802 582.222,761.973 584.53,714.294 586.838,695.22 589.146,926.273 591.454,956.765 593.763,1124.03 596.071,1138.93 598.379,1045.73 600.687,1025.3 602.995,859.987 605.303,822.354 607.611,852.159 609.919,895.495 612.227,1054.62 614.535,1101.76 616.843,1101.38 619.152,1101.28 621.46,1079.19 623.768,1081.63 626.076,954.16 628.384,980.543 630.692,798.83 633,741.695 635.308,674.434 637.616,736.467 639.924,667.787 642.232,564.708 644.541,559.05 646.849,634.981 649.157,1033.3 651.465,1112.27 653.773,1129.49 656.081,1060.53 658.389,898.06 660.697,880.318 663.005,911.599 665.313,1016.4 667.622,956.565 669.93,790.129 672.238,939.463 674.546,887.587 676.854,618.371 679.162,625.162 681.47,652.343 683.778,697.017 686.086,719.629 688.394,787.888 690.702,798.349 693.011,808.62 695.319,678.511 697.627,636.891 699.935,402.47 702.243,375.286 704.551,860.975 706.859,1023.05 709.167,985.854 711.475,919.494 713.783,873.363 716.091,732.807 718.4,845.731 720.708,509.235 723.016,537.287 725.324,520.071 727.632,662.212 729.94,580.87 732.248,478.743 734.556,501.201 736.864,433.925 739.172,379.974 741.48,438.305 743.789,444.828 746.097,460.96 748.405,579.249 750.713,510.268 753.021,486.01 755.329,426.84 757.637,524.813 759.945,734.676 762.253,1001.33 764.561,1053.69 766.869,997.464 769.178,971.522 771.486,1051.68 773.794,897.597 776.102,891.405 778.41,874.568 780.718,797.545 783.026,963.162 785.334,973.218 787.642,658.154 789.95,588.546 792.258,508.457 794.567,406.56 796.875,470.152 799.183,411.523 801.491,336.846 803.799,357.961 806.107,377.74 808.415,510.858 810.723,448.114 813.031,456.488 815.339,947.35 817.648,1105.38 819.956,1134.05 822.264,1129.44 824.572,1083.6 826.88,977.983 829.188,900.506 831.496,897.351 833.804,930.179 836.112,985.889 838.42,909.718 840.728,785.855 843.037,651.244 845.345,555.802 847.653,568.894 849.961,544.384 852.269,465.162 854.577,391.956 856.885,318.794 859.193,262.672 861.501,323.138 863.809,304.228 866.117,294.162 868.426,380.137 870.734,779.352 873.042,1079.23 875.35,1136.42 877.658,1124.79 879.966,1078.93 882.274,982.103 884.582,894.988 886.89,871.311 889.198,909.218 891.506,740.283 893.815,713.003 896.123,519.585 898.431,551.667 900.739,473.478 903.047,409.372 905.355,310.741 907.663,310.393 909.971,259.94 912.279,351.035 914.587,389.732 916.895,484.371 919.204,452.644 921.512,438.238 923.82,484.886 926.128,871.188 928.436,1035.06 930.744,1076.19 933.052,1030.55 935.36,872.813 937.668,833.25 939.976,618.861 942.284,767.289 944.593,788.898 946.901,782.896 949.209,821.744 951.517,1020.29 953.825,940.252 956.133,840.895 958.441,748.787 960.749,665.95 963.057,667.341 965.365,675.072 967.673,763.567 969.982,951.092 972.29,1033.04 974.598,1074.48 976.906,1030.13 979.214,958.164 981.522,999.426 983.83,1012.32 986.138,978.349 988.446,873.154 990.754,949.165 993.063,1020.82 995.371,949.83 997.679,1054.37 999.987,888.159 1002.29,1020.24 1004.6,1050.11 1006.91,1132.77 1009.22,1126.87 1011.53,1126.49 1013.84,1129.26 1016.14,1079.57 1018.45,981.656 1020.76,736.317 1023.07,823.894 1025.38,1021.77 1027.68,1093.77 1029.99,982.016 1032.3,986.593 1034.61,1005.81 1036.92,1108.9 1039.22,1126.56 1041.53,1107.77 1043.84,1074.7 1046.15,1095.9 1048.46,1030.44 1050.76,1097.59 1053.07,1023.94 1055.38,898.147 1057.69,1050.62 1060,1096.17 1062.31,983.049 1064.61,1078.9 1066.92,1139.98 1069.23,1136.9 1071.54,1133.37 1073.85,1131.94 1076.15,1133.81 1078.46,1127.18 1080.77,1131.46 1083.08,1128.7 1085.39,1136.82 1087.69,1115.73 1090,1129.01 1092.31,1127.98 1094.62,1141.6 1096.93,1139.5 1099.23,1122.63 1101.54,1088.25 1103.85,1094.99 1106.16,1058.86 1108.47,1102.7 1110.78,1128.88 1113.08,1113.83 1115.39,1061.59 1117.7,1106.33 1120.01,997.802 1122.32,793.902 1124.62,793.04 1126.93,475.728 1129.24,763.305 1131.55,776.088 1133.86,1029.7 1136.16,1111.24 1138.47,1082.12 1140.78,1006.74 1143.09,932.101 1145.4,1026.02 1147.7,1088.91 1150.01,1139.12 1152.32,1115.66 1154.63,1023.48 1156.94,1089.93 1159.25,1095.54 1161.55,953.428 1163.86,840.791 1166.17,953.534 1168.48,944.619 1170.79,951.056 1173.09,832.114 1175.4,473.021 1177.71,487.161 1180.02,458.667 1182.33,387.708 1184.63,406.067 1186.94,357.106 1189.25,324.962 1191.56,250.103 1193.87,229.351 1196.17,223.781 1198.48,214.108 1200.79,285.911 1203.1,650.609 1205.41,1012.07 1207.72,1088.8 1210.02,1095.44 1212.33,1067.72 1214.64,974.118 1216.95,739.884 1219.26,830.876 1221.56,873.498 1223.87,631.232 1226.18,359.997 1228.49,440.264 1230.8,356.219 1233.1,356.273 1235.41,296.774 1237.72,261.667 1240.03,277.092 1242.34,262.647 1244.64,291.339 1246.95,263.937 1249.26,234.449 1251.57,233.79 1253.88,236.303 1256.19,253.074 1258.49,425.747 1260.8,680.743 1263.11,833.908 1265.42,923.494 1267.73,921.674 1270.03,878.708 1272.34,878.598 1274.65,650.618 1276.96,494.497 1279.27,396.545 1281.57,472.835 1283.88,414.967 1286.19,402.788 1288.5,380.62 1290.81,403.712 1293.11,371.049 1295.42,336.426 1297.73,350.231 1300.04,274.799 1302.35,273.277 1304.65,301.059 1306.96,326.109 1309.27,277.518 1311.58,390.144 1313.89,668.881 1316.2,892.769 1318.5,1049.5 1320.81,1090.09 1323.12,1049.38 1325.43,936.513 1327.74,712.264 1330.04,527.104 1332.35,371.686 1334.66,588.148 1336.97,849.909 1339.28,790.195 1341.58,810.129 1343.89,538.68 1346.2,536.834 1348.51,797.822 1350.82,876.837 1353.12,996.402 1355.43,885.454 1357.74,616.698 1360.05,483.774 1362.36,359.605 1364.67,372.753 1366.97,546.886 1369.28,1022.02 1371.59,1127.49 1373.9,1135.48 1376.21,1103.31 1378.51,1112.66 1380.82,988.945 1383.13,984.943 1385.44,917.597 1387.75,889.941 1390.05,941.057 1392.36,939.392 1394.67,932.48 1396.98,651.378 1399.29,610.633 1401.59,495.543 1403.9,579.623 1406.21,456.139 1408.52,423.756 1410.83,327.07 1413.14,385.399 1415.44,372.604 1417.75,414.008 1420.06,455.556 1422.37,631.725 1424.68,1045.08 1426.98,1088.26 1429.29,1128.25 1431.6,1131.01 1433.91,1079.76 1436.22,1054.39 1438.52,986.127 1440.83,845.407 1443.14,912.07 1445.45,827.988 1447.76,955.107 1450.06,903.534 1452.37,781.226 1454.68,598.978 1456.99,557.296 1459.3,522.326 1461.61,545.249 1463.91,558.28 1466.22,599.252 1468.53,440.181 1470.84,327.551 1473.15,364.585 1475.45,477.702 1477.76,602.537 1480.07,1057.08 1482.38,1042.84 1484.69,1098.59 1486.99,1100.67 1489.3,1044.43 1491.61,959.553 1493.92,973.287 1496.23,1062.16 1498.53,1049.9 1500.84,991.994 1503.15,932.441 1505.46,929.374 1507.77,765.576 1510.08,626.111 1512.38,528.872 1514.69,477.617 1517,1034.35 1519.31,1072.43 1521.62,1094.71 1523.92,1116.19 1526.23,1083.53 1528.54,1073.37 1530.85,1094.53 1533.16,1127.72 1535.46,1118.1 1537.77,1124.19 1540.08,1093.53 1542.39,1049.41 1544.7,1030.63 1547,1024.35 1549.31,918.9 1551.62,973.649 1553.93,906.818 1556.24,1059.02 1558.55,1054.19 1560.85,1100.36 1563.16,1031.75 1565.47,877.454 1567.78,464.066 1570.09,401.841 1572.39,531.128 1574.7,693.546 1577.01,907.015 1579.32,986.64 1581.63,1007.62 1583.93,1029.51 1586.24,1036.08 1588.55,978.494 1590.86,1127.71 1593.17,1140.18 1595.47,1131.82 1597.78,973.309 1600.09,800.889 1602.4,906.769 1604.71,991.079 1607.02,929.117 1609.32,789.391 1611.63,638.765 1613.94,647.887 1616.25,470.774 1618.56,420.42 1620.86,400.963 1623.17,296.478 1625.48,338.561 1627.79,252.178 1630.1,247.875 1632.4,241.616 1634.71,299.634 1637.02,322.826 1639.33,330.624 1641.64,334.165 1643.94,441.142 1646.25,632.534 1648.56,978.36 1650.87,1053.47 1653.18,1006.11 1655.48,948.61 1657.79,848.069 1660.1,822.102 1662.41,749.679 1664.72,571.219 1667.03,561.459 1669.33,746.479 1671.64,544.198 1673.95,472.314 1676.26,407.728 1678.57,373.219 1680.87,274.312 1683.18,234.714 1685.49,246.242 1687.8,252.79 1690.11,240.284 1692.41,234.364 1694.72,262.661 1697.03,307.279 1699.34,351.153 1701.65,514.005 1703.95,871.402 1706.26,1024.41 1708.57,1033.39 1710.88,959.075 1713.19,994.26 1715.5,844.847 1717.8,681.327 1720.11,827.677 1722.42,711.825 1724.73,781.14 1727.04,476.251 1729.34,418.577 1731.65,478.133 1733.96,355.947 1736.27,345.694 1738.58,327.07 1740.88,312.443 1743.19,320.347 1745.5,368.624 1747.81,265.299 1750.12,256.918 1752.42,254.184 1754.73,308.893 1757.04,750.108 1759.35,792.545 1761.66,890.662 1763.97,1010.84 1766.27,1078.33 1768.58,1009.97 1770.89,892.795 1773.2,699.063 1775.51,595.485 1777.81,741.573 1780.12,846.322 1782.43,651.475 1784.74,488.065 1787.05,448.648 1789.35,373.204 1791.66,322.667 1793.97,367.945 1796.28,298.579 1798.59,295.642 1800.89,248.879 1803.2,235.396 1805.51,214.999 1807.82,243.095 1810.13,270.708 1812.44,389.571 1814.74,705.5 1817.05,863.139 1819.36,1026.75 1821.67,821.056 1823.98,667.456 1826.28,691.662 1828.59,869.174 1830.9,942.264 1833.21,850.936 1835.52,897.169 1837.82,562.663 1840.13,401.451 1842.44,420.3 1844.75,429.378 1847.06,301.527 1849.36,256.641 1851.67,242.658 1853.98,231.469 1856.29,227.609 1858.6,238.049 1860.91,264.435 1863.21,344.442 1865.52,407.827 1867.83,949.392 1870.14,1082.21 1872.45,1124.49 1874.75,1135.16 1877.06,1069.2 1879.37,1000.07 1881.68,847.245 1883.99,857.708 1886.29,963.379 1888.6,953.794 1890.91,1010.11 1893.22,989.084 1895.53,821.317 1897.83,779.909 1900.14,731.333 1902.45,655.603 1904.76,668.992 1907.07,775.851 1909.38,683.761 1911.68,736.753 1913.99,886.455 1916.3,882.853 1918.61,944.96 1920.92,1055.12 1923.22,1122.19 1925.53,1139.02 1927.84,1118.27 1930.15,1034.11 1932.46,784.677 1934.76,507.484 1937.07,471.672 1939.38,565.658 1941.69,763.703 1944,790.333 1946.3,808.339 1948.61,945.854 1950.92,915.971 1953.23,947.599 1955.54,1041.5 1957.85,1061.71 1960.15,1067.32 1962.46,1110.33 1964.77,1134.54 1967.08,1136.72 1969.39,1126.1 1971.69,1122.16 1974,1085.62 1976.31,1055.56 1978.62,1078.92 1980.93,1099.75 1983.23,613.085 1985.54,986.777 1987.85,916.175 1990.16,915.627 1992.47,1114.46 1994.77,1080.94 1997.08,1134.32 1999.39,1027.22 2001.7,1123.89 2004.01,1123.96 2006.32,1137.54 2008.62,1131.91 2010.93,1110.91 2013.24,1122.59 "/>
<polyline clip-path="url(#clip142)" style="stroke:#e26f46; stroke-linecap:round; stroke-linejoin:round; stroke-width:4; stroke-opacity:1; fill:none" points="296.019,1141.6 298.327,1141.6 300.635,1141.6 302.943,1141.6 305.251,1141.6 307.559,1141.6 309.867,1141.6 312.175,874.992 314.483,532.432 316.791,301.321 319.1,179.729 321.408,154.143 323.716,137.952 326.024,118.146 328.332,126.328 330.64,92.099 332.948,124.55 335.256,139.628 337.564,192.197 339.872,368.919 342.18,641.501 344.489,1141.6 346.797,1141.6 349.105,1141.6 351.413,1141.6 353.721,1141.6 356.029,1141.6 358.337,1141.6 360.645,1141.6 362.953,1141.6 365.261,1141.6 367.57,912.723 369.878,542.111 372.186,320.007 374.494,184.961 376.802,163.758 379.11,139.262 381.418,121.936 383.726,127.575 386.034,119.43 388.342,122.778 390.65,141.629 392.959,189.262 395.267,358.711 397.575,620.537 399.883,1141.6 402.191,1141.6 404.499,1141.6 406.807,1141.6 409.115,1141.6 411.423,1141.6 413.731,1141.6 416.039,1141.6 418.348,1141.6 420.656,1141.6 422.964,951.08 425.272,604.497 427.58,328.101 429.888,187.865 432.196,165.923 434.504,144.967 436.812,137.724 439.12,139.991 441.428,99.8081 443.737,117.369 446.045,130.768 448.353,188.102 450.661,370.441 452.969,644.917 455.277,1141.6 457.585,1141.6 459.893,1141.6 462.201,1141.6 464.509,1141.6 466.817,1141.6 469.126,1141.6 471.434,1141.6 473.742,1141.6 476.05,1141.6 478.358,946.738 480.666,552.975 482.974,339.423 485.282,186.7 487.59,169.908 489.898,163.348 492.206,151.928 494.515,161.826 496.823,143.427 499.131,169.283 501.439,182.048 503.747,235.332 506.055,410.659 508.363,695.04 510.671,1141.6 512.979,1141.6 515.287,1141.6 517.596,1141.6 519.904,1141.6 522.212,1141.6 524.52,1141.6 526.828,1141.6 529.136,1141.6 531.444,1141.6 533.752,1141.6 536.06,775.727 538.368,508.268 540.676,298.991 542.985,229.443 545.293,186.969 547.601,156.614 549.909,156.67 552.217,165.186 554.525,195.15 556.833,219.247 559.141,267.077 561.449,436.26 563.757,688.152 566.065,1141.6 568.374,1141.6 570.682,1141.6 572.99,1141.6 575.298,1141.6 577.606,1141.6 579.914,1141.6 582.222,1141.6 584.53,1141.6 586.838,1141.6 589.146,1059.88 591.454,584.65 593.763,379.448 596.071,295.252 598.379,213.736 600.687,176.66 602.995,147.777 605.303,150.489 607.611,138.11 609.919,141.515 612.227,153.797 614.535,214.064 616.843,394.019 619.152,674.427 621.46,1141.6 623.768,1141.6 626.076,1141.6 628.384,1141.6 630.692,1141.6 633,1141.6 635.308,1141.6 637.616,1141.6 639.924,1141.6 642.232,1141.6 644.541,932.235 646.849,588.451 649.157,321.854 651.465,189.417 653.773,165.539 656.081,159.288 658.389,137.747 660.697,136.169 663.005,122.103 665.313,128.035 667.622,134.507 669.93,178.967 672.238,360.589 674.546,645.087 676.854,1141.6 679.162,1141.6 681.47,1141.6 683.778,1141.6 686.086,1141.6 688.394,1141.6 690.702,1141.6 693.011,1141.6 695.319,1141.6 697.627,1141.6 699.935,898.332 702.243,545.364 704.551,322.198 706.859,189.389 709.167,162.728 711.475,148.489 713.783,138.332 716.091,141.494 718.4,140.847 720.708,123.904 723.016,142.452 725.324,203.111 727.632,367.417 729.94,637.894 732.248,1141.6 734.556,1141.6 736.864,1141.6 739.172,1141.6 741.48,1141.6 743.789,1141.6 746.097,1141.6 748.405,1141.6 750.713,1141.6 753.021,1141.6 755.329,905.141 757.637,546.753 759.945,338.047 762.253,212.39 764.561,187.947 766.869,160.826 769.178,150.536 771.486,157.933 773.794,123.309 776.102,159.852 778.41,186.74 780.718,249.157 783.026,436.769 785.334,717.213 787.642,1141.6 789.95,1141.6 792.258,1141.6 794.567,1141.6 796.875,1141.6 799.183,1141.6 801.491,1141.6 803.799,1141.6 806.107,1141.6 808.415,1141.6 810.723,980.18 813.031,616.025 815.339,374.117 817.648,243.475 819.956,213.801 822.264,185.015 824.572,175.719 826.88,165.976 829.188,148.569 831.496,177.513 833.804,194.313 836.112,269.195 838.42,444.002 840.728,720.908 843.037,1141.6 845.345,1141.6 847.653,1141.6 849.961,1141.6 852.269,1141.6 854.577,1141.6 856.885,1141.6 859.193,1141.6 861.501,1141.6 863.809,1141.6 866.117,1075.1 868.426,752.322 870.734,582.561 873.042,311.071 875.35,245.642 877.658,230.762 879.966,205.785 882.274,180.868 884.582,173.438 886.89,197.448 889.198,332.124 891.506,411.992 893.815,653.013 896.123,888.432 898.431,1141.6 900.739,1141.6 903.047,1141.6 905.355,1141.6 907.663,1141.6 909.971,1141.6 912.279,1141.6 914.587,1141.6 916.895,1141.6 919.204,1141.6 921.512,1114.12 923.82,717.483 926.128,575.261 928.436,300.169 930.744,223.888 933.052,232.032 935.36,402.051 937.668,435.596 939.976,303.042 942.284,519.559 944.593,690.564 946.901,763.366 949.209,740.23 951.517,1060.19 953.825,1141.6 956.133,1141.6 958.441,1141.6 960.749,1141.6 963.057,1141.6 965.365,1141.6 967.673,1141.6 969.982,1141.6 972.29,1141.6 974.598,1141.6 976.906,1141.6 979.214,1074.78 981.522,932.301 983.83,777.905 986.138,705.866 988.446,583.996 990.754,501.629 993.063,471 995.371,482.551 997.679,578.416 999.987,666.911 1002.29,724.595 1004.6,892.41 1006.91,1112.98 1009.22,1141.6 1011.53,1141.6 1013.84,1141.6 1016.14,1141.6 1018.45,1141.6 1020.76,1141.6 1023.07,1141.6 1025.38,1141.6 1027.68,1141.6 1029.99,1141.6 1032.3,1141.6 1034.61,1037.2 1036.92,874.205 1039.22,695.393 1041.53,516.988 1043.84,352.345 1046.15,356.958 1048.46,445.826 1050.76,495.484 1053.07,559.944 1055.38,474.77 1057.69,593.176 1060,728.027 1062.31,948.246 1064.61,1141.6 1066.92,1141.6 1069.23,1141.6 1071.54,1141.6 1073.85,1141.6 1076.15,1141.6 1078.46,1141.6 1080.77,1141.6 1083.08,1141.6 1085.39,1141.6 1087.69,1141.6 1090,705.184 1092.31,452.66 1094.62,297.006 1096.93,254.251 1099.23,231.412 1101.54,214.361 1103.85,241.432 1106.16,198.688 1108.47,233.058 1110.78,256.865 1113.08,303.118 1115.39,464.862 1117.7,763.171 1120.01,1141.6 1122.32,1141.6 1124.62,1141.6 1126.93,1141.6 1129.24,1141.6 1131.55,1141.6 1133.86,1141.6 1136.16,1141.6 1138.47,1141.6 1140.78,1141.6 1143.09,1059.82 1145.4,611.946 1147.7,375.101 1150.01,206.815 1152.32,177.255 1154.63,158.227 1156.94,138.834 1159.25,135.282 1161.55,104.92 1163.86,137.615 1166.17,151.764 1168.48,196.579 1170.79,370.585 1173.09,649.727 1175.4,1141.6 1177.71,1141.6 1180.02,1141.6 1182.33,1141.6 1184.63,1141.6 1186.94,1141.6 1189.25,1141.6 1191.56,1141.6 1193.87,1141.6 1196.17,1141.6 1198.48,1024.31 1200.79,568.504 1203.1,337.777 1205.41,171.482 1207.72,137.652 1210.02,138.429 1212.33,131.143 1214.64,117.655 1216.95,79.1184 1219.26,114.684 1221.56,130.176 1223.87,187.524 1226.18,354.547 1228.49,645.668 1230.8,1141.6 1233.1,1141.6 1235.41,1141.6 1237.72,1141.6 1240.03,1141.6 1242.34,1141.6 1244.64,1141.6 1246.95,1141.6 1249.26,1141.6 1251.57,1141.6 1253.88,1120.87 1256.19,623.465 1258.49,313.921 1260.8,163.629 1263.11,135.515 1265.42,118.907 1267.73,114.177 1270.03,112.593 1272.34,98.5888 1274.65,114.742 1276.96,150.509 1279.27,204.183 1281.57,372.969 1283.88,662.713 1286.19,1141.6 1288.5,1141.6 1290.81,1141.6 1293.11,1141.6 1295.42,1141.6 1297.73,1141.6 1300.04,1141.6 1302.35,1141.6 1304.65,1141.6 1306.96,1141.6 1309.27,1113.64 1311.58,750.714 1313.89,559.04 1316.2,387.425 1318.5,326.749 1320.81,315.812 1323.12,265.759 1325.43,319.826 1327.74,307.127 1330.04,270.355 1332.35,208.155 1334.66,264.477 1336.97,471.87 1339.28,755.459 1341.58,1141.6 1343.89,1141.6 1346.2,1141.6 1348.51,1141.6 1350.82,1141.6 1353.12,1141.6 1355.43,1141.6 1357.74,1141.6 1360.05,1141.6 1362.36,1141.6 1364.67,1141.6 1366.97,652.211 1369.28,392.116 1371.59,238.852 1373.9,204.801 1376.21,281.835 1378.51,276.704 1380.82,163.755 1383.13,159.563 1385.44,183.524 1387.75,258.723 1390.05,324.93 1392.36,495.274 1394.67,785.337 1396.98,1141.6 1399.29,1141.6 1401.59,1141.6 1403.9,1141.6 1406.21,1141.6 1408.52,1141.6 1410.83,1141.6 1413.14,1141.6 1415.44,1141.6 1417.75,1141.6 1420.06,1141.6 1422.37,673.177 1424.68,417.899 1426.98,253.204 1429.29,223.029 1431.6,211.572 1433.91,181.533 1436.22,171.883 1438.52,135.433 1440.83,186.186 1443.14,308.079 1445.45,265.36 1447.76,455.861 1450.06,750.458 1452.37,1141.6 1454.68,1141.6 1456.99,1141.6 1459.3,1141.6 1461.61,1141.6 1463.91,1141.6 1466.22,1141.6 1468.53,1141.6 1470.84,1141.6 1473.15,1141.6 1475.45,1141.6 1477.76,724.852 1480.07,441.411 1482.38,272.393 1484.69,256.798 1486.99,206.009 1489.3,217.451 1491.61,207.726 1493.92,204.286 1496.23,221.23 1498.53,245.228 1500.84,320.111 1503.15,495.882 1505.46,785.826 1507.77,1141.6 1510.08,1141.6 1512.38,1141.6 1514.69,1141.6 1517,1141.6 1519.31,1141.6 1521.62,1141.6 1523.92,1141.6 1526.23,1141.6 1528.54,1141.6 1530.85,1141.6 1533.16,715.15 1535.46,477.087 1537.77,311.137 1540.08,271.184 1542.39,245.744 1544.7,243.651 1547,233.939 1549.31,228.499 1551.62,251.007 1553.93,293.721 1556.24,389.541 1558.55,582.818 1560.85,833.432 1563.16,1141.6 1565.47,1141.6 1567.78,1141.6 1570.09,1141.6 1572.39,1141.6 1574.7,1141.6 1577.01,1141.6 1579.32,1141.6 1581.63,1141.6 1583.93,1141.6 1586.24,1141.6 1588.55,714.383 1590.86,451.225 1593.17,290.358 1595.47,251.623 1597.78,245.831 1600.09,219.827 1602.4,199.304 1604.71,208.274 1607.02,222.1 1609.32,229.096 1611.63,291.249 1613.94,487.05 1616.25,772.261 1618.56,1141.6 1620.86,1141.6 1623.17,1141.6 1625.48,1141.6 1627.79,1141.6 1630.1,1141.6 1632.4,1141.6 1634.71,1141.6 1637.02,1141.6 1639.33,1141.6 1641.64,1141.6 1643.94,680.31 1646.25,439.072 1648.56,247.349 1650.87,196.482 1653.18,167.42 1655.48,145.335 1657.79,137.666 1660.1,129.803 1662.41,152.096 1664.72,170.642 1667.03,229.788 1669.33,420.659 1671.64,712.607 1673.95,1141.6 1676.26,1141.6 1678.57,1141.6 1680.87,1141.6 1683.18,1141.6 1685.49,1141.6 1687.8,1141.6 1690.11,1141.6 1692.41,1141.6 1694.72,1141.6 1697.03,1141.6 1699.34,637.916 1701.65,392.176 1703.95,205.496 1706.26,168.109 1708.57,274.262 1710.88,126.707 1713.19,127.637 1715.5,116.848 1717.8,122.177 1720.11,145.222 1722.42,208.341 1724.73,413.708 1727.04,719.736 1729.34,1141.6 1731.65,1141.6 1733.96,1141.6 1736.27,1141.6 1738.58,1141.6 1740.88,1141.6 1743.19,1141.6 1745.5,1141.6 1747.81,1141.6 1750.12,1141.6 1752.42,1141.6 1754.73,618.845 1757.04,379.472 1759.35,183.258 1761.66,142.921 1763.97,135.119 1766.27,122.681 1768.58,114.827 1770.89,82.8848 1773.2,113.911 1775.51,139.809 1777.81,199.397 1780.12,390.001 1782.43,688.095 1784.74,1141.6 1787.05,1141.6 1789.35,1141.6 1791.66,1141.6 1793.97,1141.6 1796.28,1141.6 1798.59,1141.6 1800.89,1141.6 1803.2,1141.6 1805.51,1141.6 1807.82,1141.6 1810.13,628.473 1812.44,349.787 1814.74,177.421 1817.05,139.831 1819.36,265.465 1821.67,113.683 1823.98,105.924 1826.28,84.9135 1828.59,124.273 1830.9,140.537 1833.21,188.659 1835.52,373.429 1837.82,668.299 1840.13,1141.6 1842.44,1141.6 1844.75,1141.6 1847.06,1141.6 1849.36,1141.6 1851.67,1141.6 1853.98,1141.6 1856.29,1141.6 1858.6,1141.6 1860.91,1141.6 1863.21,1141.6 1865.52,578.661 1867.83,319.657 1870.14,184.003 1872.45,149.859 1874.75,145.995 1877.06,118.408 1879.37,111.536 1881.68,102.7 1883.99,113.139 1886.29,133.861 1888.6,200.182 1890.91,394.177 1893.22,694.262 1895.53,1141.6 1897.83,1141.6 1900.14,1141.6 1902.45,1141.6 1904.76,1141.6 1907.07,1141.6 1909.38,1141.6 1911.68,1141.6 1913.99,1141.6 1916.3,1141.6 1918.61,1141.6 1920.92,613.449 1923.22,364.102 1925.53,214.42 1927.84,184.296 1930.15,175.075 1932.46,155.676 1934.76,145.741 1937.07,143.82 1939.38,183.9 1941.69,225.037 1944,314.871 1946.3,532.769 1948.61,863.495 1950.92,1141.6 1953.23,1141.6 1955.54,1141.6 1957.85,1141.6 1960.15,1141.6 1962.46,1141.6 1964.77,1141.6 1967.08,1141.6 1969.39,1141.6 1971.69,1141.6 1974,1141.6 1976.31,851.416 1978.62,550.987 1980.93,361.815 1983.23,290.868 1985.54,263.832 1987.85,292.328 1990.16,424.498 1992.47,481.927 1994.77,672.207 1997.08,848.905 1999.39,941.901 2001.7,1054.05 2004.01,1141.6 2006.32,1141.6 2008.62,1141.6 2010.93,1141.6 2013.24,1141.6 "/>
<path clip-path="url(#clip140)" d="M1704.37 240.305 L2004.08 240.305 L2004.08 84.785 L1704.37 84.785  Z" fill="#ffffff" fill-rule="evenodd" fill-opacity="1"/>
<polyline clip-path="url(#clip140)" style="stroke:#000000; stroke-linecap:round; stroke-linejoin:round; stroke-width:4; stroke-opacity:1; fill:none" points="1704.37,240.305 2004.08,240.305 2004.08,84.785 1704.37,84.785 1704.37,240.305 "/>
<polyline clip-path="url(#clip140)" style="stroke:#009af9; stroke-linecap:round; stroke-linejoin:round; stroke-width:4; stroke-opacity:1; fill:none" points="1724.6,136.625 1845.95,136.625 "/>
<path clip-path="url(#clip140)" d="M1866.17 119.345 L1870.89 119.345 L1878.16 148.558 L1885.41 119.345 L1890.66 119.345 L1897.93 148.558 L1905.18 119.345 L1909.92 119.345 L1901.24 153.905 L1895.36 153.905 L1888.07 123.905 L1880.71 153.905 L1874.83 153.905 L1866.17 119.345 Z" fill="#000000" fill-rule="nonzero" fill-opacity="1" /><path clip-path="url(#clip140)" d="M1914.9 127.979 L1919.16 127.979 L1919.16 153.905 L1914.9 153.905 L1914.9 127.979 M1914.9 117.887 L1919.16 117.887 L1919.16 123.28 L1914.9 123.28 L1914.9 117.887 Z" fill="#000000" fill-rule="nonzero" fill-opacity="1" /><path clip-path="url(#clip140)" d="M1949.62 138.257 L1949.62 153.905 L1945.36 153.905 L1945.36 138.396 Q1945.36 134.715 1943.93 132.887 Q1942.49 131.058 1939.62 131.058 Q1936.17 131.058 1934.18 133.257 Q1932.19 135.456 1932.19 139.252 L1932.19 153.905 L1927.91 153.905 L1927.91 127.979 L1932.19 127.979 L1932.19 132.007 Q1933.72 129.669 1935.78 128.512 Q1937.86 127.354 1940.57 127.354 Q1945.04 127.354 1947.33 130.132 Q1949.62 132.887 1949.62 138.257 Z" fill="#000000" fill-rule="nonzero" fill-opacity="1" /><path clip-path="url(#clip140)" d="M1975.18 131.914 L1975.18 117.887 L1979.43 117.887 L1979.43 153.905 L1975.18 153.905 L1975.18 150.016 Q1973.83 152.331 1971.77 153.465 Q1969.74 154.576 1966.87 154.576 Q1962.17 154.576 1959.2 150.826 Q1956.26 147.076 1956.26 140.965 Q1956.26 134.854 1959.2 131.104 Q1962.17 127.354 1966.87 127.354 Q1969.74 127.354 1971.77 128.488 Q1973.83 129.6 1975.18 131.914 M1960.66 140.965 Q1960.66 145.664 1962.58 148.349 Q1964.53 151.011 1967.91 151.011 Q1971.29 151.011 1973.23 148.349 Q1975.18 145.664 1975.18 140.965 Q1975.18 136.266 1973.23 133.604 Q1971.29 130.919 1967.91 130.919 Q1964.53 130.919 1962.58 133.604 Q1960.66 136.266 1960.66 140.965 Z" fill="#000000" fill-rule="nonzero" fill-opacity="1" /><polyline clip-path="url(#clip140)" style="stroke:#e26f46; stroke-linecap:round; stroke-linejoin:round; stroke-width:4; stroke-opacity:1; fill:none" points="1724.6,188.465 1845.95,188.465 "/>
<path clip-path="url(#clip140)" d="M1888.42 172.319 L1888.42 176.879 Q1885.75 175.606 1883.39 174.981 Q1881.03 174.356 1878.83 174.356 Q1875.01 174.356 1872.93 175.838 Q1870.87 177.319 1870.87 180.051 Q1870.87 182.342 1872.24 183.523 Q1873.62 184.68 1877.47 185.398 L1880.29 185.977 Q1885.52 186.972 1888 189.495 Q1890.5 191.995 1890.5 196.208 Q1890.5 201.231 1887.12 203.824 Q1883.76 206.416 1877.26 206.416 Q1874.81 206.416 1872.03 205.861 Q1869.27 205.305 1866.31 204.217 L1866.31 199.402 Q1869.16 201 1871.89 201.81 Q1874.62 202.62 1877.26 202.62 Q1881.26 202.62 1883.44 201.046 Q1885.62 199.472 1885.62 196.555 Q1885.62 194.009 1884.04 192.574 Q1882.49 191.139 1878.93 190.421 L1876.08 189.865 Q1870.85 188.824 1868.51 186.602 Q1866.17 184.379 1866.17 180.421 Q1866.17 175.838 1869.39 173.199 Q1872.63 170.56 1878.3 170.56 Q1880.73 170.56 1883.25 171 Q1885.78 171.44 1888.42 172.319 Z" fill="#000000" fill-rule="nonzero" fill-opacity="1" /><path clip-path="url(#clip140)" d="M1907.65 182.805 Q1904.23 182.805 1902.24 185.49 Q1900.25 188.152 1900.25 192.805 Q1900.25 197.458 1902.21 200.143 Q1904.2 202.805 1907.65 202.805 Q1911.06 202.805 1913.05 200.12 Q1915.04 197.435 1915.04 192.805 Q1915.04 188.199 1913.05 185.514 Q1911.06 182.805 1907.65 182.805 M1907.65 179.194 Q1913.21 179.194 1916.38 182.805 Q1919.55 186.416 1919.55 192.805 Q1919.55 199.171 1916.38 202.805 Q1913.21 206.416 1907.65 206.416 Q1902.07 206.416 1898.9 202.805 Q1895.75 199.171 1895.75 192.805 Q1895.75 186.416 1898.9 182.805 Q1902.07 179.194 1907.65 179.194 Z" fill="#000000" fill-rule="nonzero" fill-opacity="1" /><path clip-path="url(#clip140)" d="M1926.61 169.727 L1930.87 169.727 L1930.87 205.745 L1926.61 205.745 L1926.61 169.727 Z" fill="#000000" fill-rule="nonzero" fill-opacity="1" /><path clip-path="url(#clip140)" d="M1951.56 192.713 Q1946.4 192.713 1944.41 193.893 Q1942.42 195.074 1942.42 197.921 Q1942.42 200.189 1943.9 201.532 Q1945.41 202.851 1947.98 202.851 Q1951.52 202.851 1953.65 200.351 Q1955.8 197.828 1955.8 193.662 L1955.8 192.713 L1951.56 192.713 M1960.06 190.953 L1960.06 205.745 L1955.8 205.745 L1955.8 201.81 Q1954.34 204.171 1952.17 205.305 Q1949.99 206.416 1946.84 206.416 Q1942.86 206.416 1940.5 204.194 Q1938.16 201.949 1938.16 198.199 Q1938.16 193.824 1941.08 191.602 Q1944.02 189.379 1949.83 189.379 L1955.8 189.379 L1955.8 188.963 Q1955.8 186.023 1953.86 184.426 Q1951.93 182.805 1948.44 182.805 Q1946.22 182.805 1944.11 183.338 Q1942 183.87 1940.06 184.935 L1940.06 181 Q1942.4 180.097 1944.6 179.657 Q1946.8 179.194 1948.88 179.194 Q1954.5 179.194 1957.28 182.111 Q1960.06 185.028 1960.06 190.953 Z" fill="#000000" fill-rule="nonzero" fill-opacity="1" /><path clip-path="url(#clip140)" d="M1983.86 183.801 Q1983.14 183.384 1982.28 183.199 Q1981.45 182.99 1980.43 182.99 Q1976.82 182.99 1974.87 185.352 Q1972.95 187.69 1972.95 192.088 L1972.95 205.745 L1968.67 205.745 L1968.67 179.819 L1972.95 179.819 L1972.95 183.847 Q1974.3 181.486 1976.45 180.352 Q1978.6 179.194 1981.68 179.194 Q1982.12 179.194 1982.65 179.264 Q1983.18 179.31 1983.83 179.426 L1983.86 183.801 Z" fill="#000000" fill-rule="nonzero" fill-opacity="1" /></svg>
