<?xml version="1.0" encoding="utf-8"?>
<svg xmlns="http://www.w3.org/2000/svg" xmlns:xlink="http://www.w3.org/1999/xlink" width="700" height="700" viewBox="0 0 2800 2800">
<defs>
  <clipPath id="clip790">
    <rect x="0" y="0" width="2800" height="2800"/>
  </clipPath>
</defs>
<path clip-path="url(#clip790)" d="
M0 2800 L2800 2800 L2800 0 L0 0  Z
  " fill="#ffffff" fill-rule="evenodd" fill-opacity="1"/>
<defs>
  <clipPath id="clip791">
    <rect x="560" y="280" width="1961" height="1961"/>
  </clipPath>
</defs>
<path clip-path="url(#clip790)" d="
M1304.09 1845.43 L2731.5 1845.43 L2731.5 68.5039 L1304.09 68.5039  Z
  " fill="#ffffff" fill-rule="evenodd" fill-opacity="1"/>
<defs>
  <clipPath id="clip792">
    <rect x="1304" y="68" width="1428" height="1778"/>
  </clipPath>
</defs>
<polyline clip-path="url(#clip792)" style="stroke:#000000; stroke-linecap:round; stroke-linejoin:round; stroke-width:2.9; stroke-opacity:0.1; fill:none" points="
  1578.68,1845.43 1578.68,68.5039 
  "/>
<polyline clip-path="url(#clip792)" style="stroke:#000000; stroke-linecap:round; stroke-linejoin:round; stroke-width:2.9; stroke-opacity:0.1; fill:none" points="
  1871.42,1845.43 1871.42,68.5039 
  "/>
<polyline clip-path="url(#clip792)" style="stroke:#000000; stroke-linecap:round; stroke-linejoin:round; stroke-width:2.9; stroke-opacity:0.1; fill:none" points="
  2164.16,1845.43 2164.16,68.5039 
  "/>
<polyline clip-path="url(#clip792)" style="stroke:#000000; stroke-linecap:round; stroke-linejoin:round; stroke-width:2.9; stroke-opacity:0.1; fill:none" points="
  2456.9,1845.43 2456.9,68.5039 
  "/>
<polyline clip-path="url(#clip790)" style="stroke:#000000; stroke-linecap:round; stroke-linejoin:round; stroke-width:5.8; stroke-opacity:1; fill:none" points="
  1304.09,1845.43 2731.5,1845.43 
  "/>
<polyline clip-path="url(#clip790)" style="stroke:#000000; stroke-linecap:round; stroke-linejoin:round; stroke-width:5.8; stroke-opacity:1; fill:none" points="
  1578.68,1845.43 1578.68,1826.53 
  "/>
<polyline clip-path="url(#clip790)" style="stroke:#000000; stroke-linecap:round; stroke-linejoin:round; stroke-width:5.8; stroke-opacity:1; fill:none" points="
  1871.42,1845.43 1871.42,1826.53 
  "/>
<polyline clip-path="url(#clip790)" style="stroke:#000000; stroke-linecap:round; stroke-linejoin:round; stroke-width:5.8; stroke-opacity:1; fill:none" points="
  2164.16,1845.43 2164.16,1826.53 
  "/>
<polyline clip-path="url(#clip790)" style="stroke:#000000; stroke-linecap:round; stroke-linejoin:round; stroke-width:5.8; stroke-opacity:1; fill:none" points="
  2456.9,1845.43 2456.9,1826.53 
  "/>
<path clip-path="url(#clip790)" d="M1539.91 1902.28 L1613.11 1902.28 L1613.11 1917.97 L1556.99 1917.97 L1556.99 1951.76 Q1561.05 1950.37 1565.11 1949.73 Q1569.17 1948.99 1573.24 1948.99 Q1596.31 1948.99 1609.79 1961.63 Q1623.26 1974.28 1623.26 1995.88 Q1623.26 2018.12 1609.42 2030.49 Q1595.57 2042.77 1570.37 2042.77 Q1561.7 2042.77 1552.65 2041.29 Q1543.7 2039.81 1534.1 2036.86 L1534.1 2018.12 Q1542.41 2022.64 1551.27 2024.86 Q1560.13 2027.08 1570.01 2027.08 Q1585.97 2027.08 1595.3 2018.68 Q1604.62 2010.28 1604.62 1995.88 Q1604.62 1981.48 1595.3 1973.08 Q1585.97 1964.68 1570.01 1964.68 Q1562.53 1964.68 1555.05 1966.34 Q1547.67 1968 1539.91 1971.51 L1539.91 1902.28 Z" fill="#000000" fill-rule="evenodd" fill-opacity="1" /><path clip-path="url(#clip790)" d="M1770.49 2024.4 L1800.95 2024.4 L1800.95 1919.27 L1767.81 1925.91 L1767.81 1908.93 L1800.77 1902.28 L1819.41 1902.28 L1819.41 2024.4 L1849.87 2024.4 L1849.87 2040.09 L1770.49 2040.09 L1770.49 2024.4 Z" fill="#000000" fill-rule="evenodd" fill-opacity="1" /><path clip-path="url(#clip790)" d="M1927.4 1914.56 Q1913.01 1914.56 1905.71 1928.77 Q1898.51 1942.89 1898.51 1971.32 Q1898.51 1999.66 1905.71 2013.88 Q1913.01 2028 1927.4 2028 Q1941.9 2028 1949.1 2013.88 Q1956.39 1999.66 1956.39 1971.32 Q1956.39 1942.89 1949.1 1928.77 Q1941.9 1914.56 1927.4 1914.56 M1927.4 1899.79 Q1950.57 1899.79 1962.76 1918.16 Q1975.03 1936.43 1975.03 1971.32 Q1975.03 2006.12 1962.76 2024.49 Q1950.57 2042.77 1927.4 2042.77 Q1904.24 2042.77 1891.96 2024.49 Q1879.78 2006.12 1879.78 1971.32 Q1879.78 1936.43 1891.96 1918.16 Q1904.24 1899.79 1927.4 1899.79 Z" fill="#000000" fill-rule="evenodd" fill-opacity="1" /><path clip-path="url(#clip790)" d="M2065.22 2024.4 L2095.68 2024.4 L2095.68 1919.27 L2062.54 1925.91 L2062.54 1908.93 L2095.49 1902.28 L2114.14 1902.28 L2114.14 2024.4 L2144.6 2024.4 L2144.6 2040.09 L2065.22 2040.09 L2065.22 2024.4 Z" fill="#000000" fill-rule="evenodd" fill-opacity="1" /><path clip-path="url(#clip790)" d="M2182.44 1902.28 L2255.64 1902.28 L2255.64 1917.97 L2199.52 1917.97 L2199.52 1951.76 Q2203.58 1950.37 2207.64 1949.73 Q2211.7 1948.99 2215.76 1948.99 Q2238.84 1948.99 2252.31 1961.63 Q2265.79 1974.28 2265.79 1995.88 Q2265.79 2018.12 2251.94 2030.49 Q2238.1 2042.77 2212.9 2042.77 Q2204.22 2042.77 2195.18 2041.29 Q2186.22 2039.81 2176.62 2036.86 L2176.62 2018.12 Q2184.93 2022.64 2193.79 2024.86 Q2202.65 2027.08 2212.53 2027.08 Q2228.5 2027.08 2237.82 2018.68 Q2247.14 2010.28 2247.14 1995.88 Q2247.14 1981.48 2237.82 1973.08 Q2228.5 1964.68 2212.53 1964.68 Q2205.05 1964.68 2197.58 1966.34 Q2190.19 1968 2182.44 1971.51 L2182.44 1902.28 Z" fill="#000000" fill-rule="evenodd" fill-opacity="1" /><path clip-path="url(#clip790)" d="M2372.26 2024.4 L2437.34 2024.4 L2437.34 2040.09 L2349.83 2040.09 L2349.83 2024.4 Q2360.45 2013.41 2378.72 1994.95 Q2397.09 1976.4 2401.8 1971.05 Q2410.75 1960.99 2414.26 1954.06 Q2417.86 1947.05 2417.86 1940.31 Q2417.86 1929.33 2410.11 1922.4 Q2402.45 1915.48 2390.08 1915.48 Q2381.31 1915.48 2371.52 1918.53 Q2361.83 1921.57 2350.76 1927.76 L2350.76 1908.93 Q2362.02 1904.4 2371.8 1902.1 Q2381.59 1899.79 2389.71 1899.79 Q2411.12 1899.79 2423.86 1910.5 Q2436.6 1921.2 2436.6 1939.11 Q2436.6 1947.6 2433.37 1955.26 Q2430.23 1962.83 2421.83 1973.17 Q2419.52 1975.85 2407.15 1988.68 Q2394.79 2001.41 2372.26 2024.4 Z" fill="#000000" fill-rule="evenodd" fill-opacity="1" /><path clip-path="url(#clip790)" d="M2516.35 1914.56 Q2501.95 1914.56 2494.66 1928.77 Q2487.46 1942.89 2487.46 1971.32 Q2487.46 1999.66 2494.66 2013.88 Q2501.95 2028 2516.35 2028 Q2530.84 2028 2538.04 2013.88 Q2545.33 1999.66 2545.33 1971.32 Q2545.33 1942.89 2538.04 1928.77 Q2530.84 1914.56 2516.35 1914.56 M2516.35 1899.79 Q2539.52 1899.79 2551.7 1918.16 Q2563.98 1936.43 2563.98 1971.32 Q2563.98 2006.12 2551.7 2024.49 Q2539.52 2042.77 2516.35 2042.77 Q2493.18 2042.77 2480.9 2024.49 Q2468.72 2006.12 2468.72 1971.32 Q2468.72 1936.43 2480.9 1918.16 Q2493.18 1899.79 2516.35 1899.79 Z" fill="#000000" fill-rule="evenodd" fill-opacity="1" /><path clip-path="url(#clip790)" d="M1719.99 2131.73 L1745.42 2131.73 L1745.42 2208.76 L1837.8 2208.76 L1837.8 2131.73 L1863.23 2131.73 L1863.23 2319.65 L1837.8 2319.65 L1837.8 2230.15 L1745.42 2230.15 L1745.42 2319.65 L1719.99 2319.65 L1719.99 2131.73 Z" fill="#000000" fill-rule="evenodd" fill-opacity="1" /><path clip-path="url(#clip790)" d="M1967.45 2194.91 Q1948.82 2194.91 1937.99 2209.51 Q1927.17 2223.99 1927.17 2249.29 Q1927.17 2274.59 1937.87 2289.19 Q1948.69 2303.66 1967.45 2303.66 Q1985.95 2303.66 1996.77 2289.06 Q2007.6 2274.46 2007.6 2249.29 Q2007.6 2224.24 1996.77 2209.64 Q1985.95 2194.91 1967.45 2194.91 M1967.45 2175.28 Q1997.65 2175.28 2014.9 2194.91 Q2032.14 2214.55 2032.14 2249.29 Q2032.14 2283.9 2014.9 2303.66 Q1997.65 2323.3 1967.45 2323.3 Q1937.11 2323.3 1919.87 2303.66 Q1902.75 2283.9 1902.75 2249.29 Q1902.75 2214.55 1919.87 2194.91 Q1937.11 2175.28 1967.45 2175.28 Z" fill="#000000" fill-rule="evenodd" fill-opacity="1" /><path clip-path="url(#clip790)" d="M2068.14 2264.01 L2068.14 2178.67 L2091.3 2178.67 L2091.3 2263.13 Q2091.3 2283.14 2099.1 2293.21 Q2106.91 2303.16 2122.52 2303.16 Q2141.27 2303.16 2152.09 2291.2 Q2163.04 2279.24 2163.04 2258.6 L2163.04 2178.67 L2186.2 2178.67 L2186.2 2319.65 L2163.04 2319.65 L2163.04 2298 Q2154.61 2310.84 2143.41 2317.13 Q2132.33 2323.3 2117.61 2323.3 Q2093.31 2323.3 2080.73 2308.19 Q2068.14 2293.09 2068.14 2264.01 M2126.42 2175.28 L2126.42 2175.28 Z" fill="#000000" fill-rule="evenodd" fill-opacity="1" /><path clip-path="url(#clip790)" d="M2315.6 2200.32 Q2311.69 2198.06 2307.04 2197.05 Q2302.51 2195.92 2296.97 2195.92 Q2277.33 2195.92 2266.76 2208.76 Q2256.31 2221.47 2256.31 2245.38 L2256.31 2319.65 L2233.03 2319.65 L2233.03 2178.67 L2256.31 2178.67 L2256.31 2200.58 Q2263.61 2187.74 2275.32 2181.57 Q2287.02 2175.28 2303.76 2175.28 Q2306.16 2175.28 2309.05 2175.65 Q2311.95 2175.91 2315.47 2176.53 L2315.6 2200.32 Z" fill="#000000" fill-rule="evenodd" fill-opacity="1" /><polyline clip-path="url(#clip792)" style="stroke:#000000; stroke-linecap:round; stroke-linejoin:round; stroke-width:2.9; stroke-opacity:0.1; fill:none" points="
  1304.09,1515.75 2731.5,1515.75 
  "/>
<polyline clip-path="url(#clip792)" style="stroke:#000000; stroke-linecap:round; stroke-linejoin:round; stroke-width:2.9; stroke-opacity:0.1; fill:none" points="
  1304.09,1166.51 2731.5,1166.51 
  "/>
<polyline clip-path="url(#clip792)" style="stroke:#000000; stroke-linecap:round; stroke-linejoin:round; stroke-width:2.9; stroke-opacity:0.1; fill:none" points="
  1304.09,817.271 2731.5,817.271 
  "/>
<polyline clip-path="url(#clip792)" style="stroke:#000000; stroke-linecap:round; stroke-linejoin:round; stroke-width:2.9; stroke-opacity:0.1; fill:none" points="
  1304.09,468.033 2731.5,468.033 
  "/>
<polyline clip-path="url(#clip792)" style="stroke:#000000; stroke-linecap:round; stroke-linejoin:round; stroke-width:2.9; stroke-opacity:0.1; fill:none" points="
  1304.09,118.794 2731.5,118.794 
  "/>
<polyline clip-path="url(#clip790)" style="stroke:#000000; stroke-linecap:round; stroke-linejoin:round; stroke-width:5.8; stroke-opacity:1; fill:none" points="
  1304.09,1845.43 1304.09,68.5039 
  "/>
<polyline clip-path="url(#clip790)" style="stroke:#000000; stroke-linecap:round; stroke-linejoin:round; stroke-width:5.8; stroke-opacity:1; fill:none" points="
  1304.09,1515.75 1322.99,1515.75 
  "/>
<polyline clip-path="url(#clip790)" style="stroke:#000000; stroke-linecap:round; stroke-linejoin:round; stroke-width:5.8; stroke-opacity:1; fill:none" points="
  1304.09,1166.51 1322.99,1166.51 
  "/>
<polyline clip-path="url(#clip790)" style="stroke:#000000; stroke-linecap:round; stroke-linejoin:round; stroke-width:5.8; stroke-opacity:1; fill:none" points="
  1304.09,817.271 1322.99,817.271 
  "/>
<polyline clip-path="url(#clip790)" style="stroke:#000000; stroke-linecap:round; stroke-linejoin:round; stroke-width:5.8; stroke-opacity:1; fill:none" points="
  1304.09,468.033 1322.99,468.033 
  "/>
<polyline clip-path="url(#clip790)" style="stroke:#000000; stroke-linecap:round; stroke-linejoin:round; stroke-width:5.8; stroke-opacity:1; fill:none" points="
  1304.09,118.794 1322.99,118.794 
  "/>
<path clip-path="url(#clip790)" d="M950.107 1568.96 L1015.18 1568.96 L1015.18 1584.65 L927.678 1584.65 L927.678 1568.96 Q938.293 1557.98 956.569 1539.52 Q974.937 1520.96 979.644 1515.61 Q988.598 1505.55 992.105 1498.63 Q995.705 1491.61 995.705 1484.87 Q995.705 1473.89 987.952 1466.97 Q980.29 1460.04 967.922 1460.04 Q959.153 1460.04 949.369 1463.09 Q939.677 1466.14 928.601 1472.32 L928.601 1453.49 Q939.862 1448.97 949.646 1446.66 Q959.43 1444.35 967.553 1444.35 Q988.967 1444.35 1001.7 1455.06 Q1014.44 1465.77 1014.44 1483.67 Q1014.44 1492.17 1011.21 1499.83 Q1008.07 1507.4 999.674 1517.73 Q997.366 1520.41 984.998 1533.24 Q972.629 1545.98 950.107 1568.96 Z" fill="#000000" fill-rule="evenodd" fill-opacity="1" /><path clip-path="url(#clip790)" d="M1094.19 1459.12 Q1079.79 1459.12 1072.5 1473.34 Q1065.3 1487.46 1065.3 1515.89 Q1065.3 1544.22 1072.5 1558.44 Q1079.79 1572.56 1094.19 1572.56 Q1108.68 1572.56 1115.88 1558.44 Q1123.18 1544.22 1123.18 1515.89 Q1123.18 1487.46 1115.88 1473.34 Q1108.68 1459.12 1094.19 1459.12 M1094.19 1444.35 Q1117.36 1444.35 1129.54 1462.72 Q1141.82 1481 1141.82 1515.89 Q1141.82 1550.69 1129.54 1569.05 Q1117.36 1587.33 1094.19 1587.33 Q1071.02 1587.33 1058.75 1569.05 Q1046.56 1550.69 1046.56 1515.89 Q1046.56 1481 1058.75 1462.72 Q1071.02 1444.35 1094.19 1444.35 Z" fill="#000000" fill-rule="evenodd" fill-opacity="1" /><path clip-path="url(#clip790)" d="M1214.46 1459.12 Q1200.06 1459.12 1192.77 1473.34 Q1185.57 1487.46 1185.57 1515.89 Q1185.57 1544.22 1192.77 1558.44 Q1200.06 1572.56 1214.46 1572.56 Q1228.95 1572.56 1236.15 1558.44 Q1243.45 1544.22 1243.45 1515.89 Q1243.45 1487.46 1236.15 1473.34 Q1228.95 1459.12 1214.46 1459.12 M1214.46 1444.35 Q1237.63 1444.35 1249.81 1462.72 Q1262.09 1481 1262.09 1515.89 Q1262.09 1550.69 1249.81 1569.05 Q1237.63 1587.33 1214.46 1587.33 Q1191.29 1587.33 1179.02 1569.05 Q1166.83 1550.69 1166.83 1515.89 Q1166.83 1481 1179.02 1462.72 Q1191.29 1444.35 1214.46 1444.35 Z" fill="#000000" fill-rule="evenodd" fill-opacity="1" /><path clip-path="url(#clip790)" d="M985.275 1113.85 L938.2 1187.42 L985.275 1187.42 L985.275 1113.85 M980.383 1097.61 L1003.83 1097.61 L1003.83 1187.42 L1023.49 1187.42 L1023.49 1202.92 L1003.83 1202.92 L1003.83 1235.41 L985.275 1235.41 L985.275 1202.92 L923.063 1202.92 L923.063 1184.92 L980.383 1097.61 Z" fill="#000000" fill-rule="evenodd" fill-opacity="1" /><path clip-path="url(#clip790)" d="M1094.19 1109.88 Q1079.79 1109.88 1072.5 1124.1 Q1065.3 1138.22 1065.3 1166.65 Q1065.3 1194.99 1072.5 1209.2 Q1079.79 1223.32 1094.19 1223.32 Q1108.68 1223.32 1115.88 1209.2 Q1123.18 1194.99 1123.18 1166.65 Q1123.18 1138.22 1115.88 1124.1 Q1108.68 1109.88 1094.19 1109.88 M1094.19 1095.11 Q1117.36 1095.11 1129.54 1113.48 Q1141.82 1131.76 1141.82 1166.65 Q1141.82 1201.45 1129.54 1219.81 Q1117.36 1238.09 1094.19 1238.09 Q1071.02 1238.09 1058.75 1219.81 Q1046.56 1201.45 1046.56 1166.65 Q1046.56 1131.76 1058.75 1113.48 Q1071.02 1095.11 1094.19 1095.11 Z" fill="#000000" fill-rule="evenodd" fill-opacity="1" /><path clip-path="url(#clip790)" d="M1214.46 1109.88 Q1200.06 1109.88 1192.77 1124.1 Q1185.57 1138.22 1185.57 1166.65 Q1185.57 1194.99 1192.77 1209.2 Q1200.06 1223.32 1214.46 1223.32 Q1228.95 1223.32 1236.15 1209.2 Q1243.45 1194.99 1243.45 1166.65 Q1243.45 1138.22 1236.15 1124.1 Q1228.95 1109.88 1214.46 1109.88 M1214.46 1095.11 Q1237.63 1095.11 1249.81 1113.48 Q1262.09 1131.76 1262.09 1166.65 Q1262.09 1201.45 1249.81 1219.81 Q1237.63 1238.09 1214.46 1238.09 Q1191.29 1238.09 1179.02 1219.81 Q1166.83 1201.45 1166.83 1166.65 Q1166.83 1131.76 1179.02 1113.48 Q1191.29 1095.11 1214.46 1095.11 Z" fill="#000000" fill-rule="evenodd" fill-opacity="1" /><path clip-path="url(#clip790)" d="M976.229 809.841 Q963.676 809.841 956.292 818.425 Q949 827.009 949 841.962 Q949 856.823 956.292 865.5 Q963.676 874.084 976.229 874.084 Q988.782 874.084 996.074 865.5 Q1003.46 856.823 1003.46 841.962 Q1003.46 827.009 996.074 818.425 Q988.782 809.841 976.229 809.841 M1013.24 751.413 L1013.24 768.397 Q1006.23 765.074 999.028 763.32 Q991.921 761.567 984.906 761.567 Q966.445 761.567 956.661 774.028 Q946.969 786.488 945.585 811.687 Q951.03 803.657 959.245 799.411 Q967.46 795.073 977.337 795.073 Q998.105 795.073 1010.1 807.718 Q1022.2 820.271 1022.2 841.962 Q1022.2 863.192 1009.64 876.022 Q997.09 888.852 976.229 888.852 Q952.323 888.852 939.677 870.576 Q927.032 852.208 927.032 817.41 Q927.032 784.735 942.539 765.351 Q958.045 745.875 984.167 745.875 Q991.182 745.875 998.289 747.26 Q1005.49 748.644 1013.24 751.413 Z" fill="#000000" fill-rule="evenodd" fill-opacity="1" /><path clip-path="url(#clip790)" d="M1094.19 760.644 Q1079.79 760.644 1072.5 774.858 Q1065.3 788.981 1065.3 817.41 Q1065.3 845.747 1072.5 859.961 Q1079.79 874.084 1094.19 874.084 Q1108.68 874.084 1115.88 859.961 Q1123.18 845.747 1123.18 817.41 Q1123.18 788.981 1115.88 774.858 Q1108.68 760.644 1094.19 760.644 M1094.19 745.875 Q1117.36 745.875 1129.54 764.244 Q1141.82 782.519 1141.82 817.41 Q1141.82 852.208 1129.54 870.576 Q1117.36 888.852 1094.19 888.852 Q1071.02 888.852 1058.75 870.576 Q1046.56 852.208 1046.56 817.41 Q1046.56 782.519 1058.75 764.244 Q1071.02 745.875 1094.19 745.875 Z" fill="#000000" fill-rule="evenodd" fill-opacity="1" /><path clip-path="url(#clip790)" d="M1214.46 760.644 Q1200.06 760.644 1192.77 774.858 Q1185.57 788.981 1185.57 817.41 Q1185.57 845.747 1192.77 859.961 Q1200.06 874.084 1214.46 874.084 Q1228.95 874.084 1236.15 859.961 Q1243.45 845.747 1243.45 817.41 Q1243.45 788.981 1236.15 774.858 Q1228.95 760.644 1214.46 760.644 M1214.46 745.875 Q1237.63 745.875 1249.81 764.244 Q1262.09 782.519 1262.09 817.41 Q1262.09 852.208 1249.81 870.576 Q1237.63 888.852 1214.46 888.852 Q1191.29 888.852 1179.02 870.576 Q1166.83 852.208 1166.83 817.41 Q1166.83 782.519 1179.02 764.244 Q1191.29 745.875 1214.46 745.875 Z" fill="#000000" fill-rule="evenodd" fill-opacity="1" /><path clip-path="url(#clip790)" d="M973.922 471.494 Q960.63 471.494 952.969 478.602 Q945.4 485.709 945.4 498.17 Q945.4 510.631 952.969 517.738 Q960.63 524.845 973.922 524.845 Q987.213 524.845 994.874 517.738 Q1002.54 510.538 1002.54 498.17 Q1002.54 485.709 994.874 478.602 Q987.305 471.494 973.922 471.494 M955.276 463.556 Q943.277 460.602 936.539 452.388 Q929.893 444.173 929.893 432.358 Q929.893 415.836 941.616 406.236 Q953.43 396.637 973.922 396.637 Q994.505 396.637 1006.23 406.236 Q1017.95 415.836 1017.95 432.358 Q1017.95 444.173 1011.21 452.388 Q1004.57 460.602 992.659 463.556 Q1006.14 466.694 1013.61 475.832 Q1021.18 484.97 1021.18 498.17 Q1021.18 518.199 1008.9 528.907 Q996.72 539.614 973.922 539.614 Q951.123 539.614 938.846 528.907 Q926.663 518.199 926.663 498.17 Q926.663 484.97 934.231 475.832 Q941.8 466.694 955.276 463.556 M948.446 434.112 Q948.446 444.819 955.092 450.818 Q961.83 456.818 973.922 456.818 Q985.921 456.818 992.659 450.818 Q999.489 444.819 999.489 434.112 Q999.489 423.404 992.659 417.405 Q985.921 411.405 973.922 411.405 Q961.83 411.405 955.092 417.405 Q948.446 423.404 948.446 434.112 Z" fill="#000000" fill-rule="evenodd" fill-opacity="1" /><path clip-path="url(#clip790)" d="M1094.19 411.405 Q1079.79 411.405 1072.5 425.62 Q1065.3 439.742 1065.3 468.171 Q1065.3 496.508 1072.5 510.723 Q1079.79 524.845 1094.19 524.845 Q1108.68 524.845 1115.88 510.723 Q1123.18 496.508 1123.18 468.171 Q1123.18 439.742 1115.88 425.62 Q1108.68 411.405 1094.19 411.405 M1094.19 396.637 Q1117.36 396.637 1129.54 415.005 Q1141.82 433.281 1141.82 468.171 Q1141.82 502.969 1129.54 521.338 Q1117.36 539.614 1094.19 539.614 Q1071.02 539.614 1058.75 521.338 Q1046.56 502.969 1046.56 468.171 Q1046.56 433.281 1058.75 415.005 Q1071.02 396.637 1094.19 396.637 Z" fill="#000000" fill-rule="evenodd" fill-opacity="1" /><path clip-path="url(#clip790)" d="M1214.46 411.405 Q1200.06 411.405 1192.77 425.62 Q1185.57 439.742 1185.57 468.171 Q1185.57 496.508 1192.77 510.723 Q1200.06 524.845 1214.46 524.845 Q1228.95 524.845 1236.15 510.723 Q1243.45 496.508 1243.45 468.171 Q1243.45 439.742 1236.15 425.62 Q1228.95 411.405 1214.46 411.405 M1214.46 396.637 Q1237.63 396.637 1249.81 415.005 Q1262.09 433.281 1262.09 468.171 Q1262.09 502.969 1249.81 521.338 Q1237.63 539.614 1214.46 539.614 Q1191.29 539.614 1179.02 521.338 Q1166.83 502.969 1166.83 468.171 Q1166.83 433.281 1179.02 415.005 Q1191.29 396.637 1214.46 396.637 Z" fill="#000000" fill-rule="evenodd" fill-opacity="1" /><path clip-path="url(#clip790)" d="M817.007 172.007 L847.467 172.007 L847.467 66.874 L814.33 73.5198 L814.33 56.5361 L847.282 49.8903 L865.927 49.8903 L865.927 172.007 L896.387 172.007 L896.387 187.698 L817.007 187.698 L817.007 172.007 Z" fill="#000000" fill-rule="evenodd" fill-opacity="1" /><path clip-path="url(#clip790)" d="M973.922 62.1666 Q959.522 62.1666 952.23 76.3812 Q945.031 90.5035 945.031 118.933 Q945.031 147.27 952.23 161.484 Q959.522 175.607 973.922 175.607 Q988.413 175.607 995.613 161.484 Q1002.9 147.27 1002.9 118.933 Q1002.9 90.5035 995.613 76.3812 Q988.413 62.1666 973.922 62.1666 M973.922 47.3981 Q997.09 47.3981 1009.27 65.7664 Q1021.55 84.0423 1021.55 118.933 Q1021.55 153.731 1009.27 172.099 Q997.09 190.375 973.922 190.375 Q950.754 190.375 938.477 172.099 Q926.293 153.731 926.293 118.933 Q926.293 84.0423 938.477 65.7664 Q950.754 47.3981 973.922 47.3981 Z" fill="#000000" fill-rule="evenodd" fill-opacity="1" /><path clip-path="url(#clip790)" d="M1094.19 62.1666 Q1079.79 62.1666 1072.5 76.3812 Q1065.3 90.5035 1065.3 118.933 Q1065.3 147.27 1072.5 161.484 Q1079.79 175.607 1094.19 175.607 Q1108.68 175.607 1115.88 161.484 Q1123.18 147.27 1123.18 118.933 Q1123.18 90.5035 1115.88 76.3812 Q1108.68 62.1666 1094.19 62.1666 M1094.19 47.3981 Q1117.36 47.3981 1129.54 65.7664 Q1141.82 84.0423 1141.82 118.933 Q1141.82 153.731 1129.54 172.099 Q1117.36 190.375 1094.19 190.375 Q1071.02 190.375 1058.75 172.099 Q1046.56 153.731 1046.56 118.933 Q1046.56 84.0423 1058.75 65.7664 Q1071.02 47.3981 1094.19 47.3981 Z" fill="#000000" fill-rule="evenodd" fill-opacity="1" /><path clip-path="url(#clip790)" d="M1214.46 62.1666 Q1200.06 62.1666 1192.77 76.3812 Q1185.57 90.5035 1185.57 118.933 Q1185.57 147.27 1192.77 161.484 Q1200.06 175.607 1214.46 175.607 Q1228.95 175.607 1236.15 161.484 Q1243.45 147.27 1243.45 118.933 Q1243.45 90.5035 1236.15 76.3812 Q1228.95 62.1666 1214.46 62.1666 M1214.46 47.3981 Q1237.63 47.3981 1249.81 65.7664 Q1262.09 84.0423 1262.09 118.933 Q1262.09 153.731 1249.81 172.099 Q1237.63 190.375 1214.46 190.375 Q1191.29 190.375 1179.02 172.099 Q1166.83 153.731 1166.83 118.933 Q1166.83 84.0423 1179.02 65.7664 Q1191.29 47.3981 1214.46 47.3981 Z" fill="#000000" fill-rule="evenodd" fill-opacity="1" /><path clip-path="url(#clip790)" d="M689.144 2544.85 L638.672 2544.85 L638.672 2586.38 L617.778 2586.38 L617.778 2519.67 L698.459 2519.67 Q708.906 2534.4 714.318 2552.15 Q719.604 2569.89 719.604 2590.03 Q719.604 2634.09 693.927 2659.01 Q668.124 2683.8 622.183 2683.8 Q576.115 2683.8 550.438 2659.01 Q524.636 2634.09 524.636 2590.03 Q524.636 2571.66 529.167 2555.17 Q533.698 2538.55 542.509 2524.58 L569.57 2524.58 Q557.613 2538.68 551.571 2554.54 Q545.53 2570.4 545.53 2587.89 Q545.53 2622.38 564.787 2639.75 Q584.045 2656.99 622.183 2656.99 Q660.195 2656.99 679.453 2639.75 Q698.71 2622.38 698.71 2587.89 Q698.71 2574.43 696.445 2563.85 Q694.053 2553.28 689.144 2544.85 Z" fill="#000000" fill-rule="evenodd" fill-opacity="1" /><path clip-path="url(#clip790)" d="M639.678 2353.65 L651.007 2353.65 L651.007 2460.14 Q674.921 2458.63 687.508 2445.79 Q699.969 2432.82 699.969 2409.79 Q699.969 2396.45 696.696 2383.99 Q693.424 2371.4 686.879 2359.07 L708.78 2359.07 Q714.066 2371.53 716.835 2384.62 Q719.604 2397.71 719.604 2411.18 Q719.604 2444.91 699.969 2464.67 Q680.334 2484.3 646.853 2484.3 Q612.239 2484.3 591.975 2465.68 Q571.584 2446.92 571.584 2415.2 Q571.584 2386.76 589.961 2370.27 Q608.212 2353.65 639.678 2353.65 M632.882 2376.81 Q613.876 2377.07 602.548 2387.51 Q591.22 2397.83 591.22 2414.95 Q591.22 2434.34 602.17 2446.04 Q613.12 2457.62 633.007 2459.38 L632.882 2376.81 Z" fill="#000000" fill-rule="evenodd" fill-opacity="1" /><path clip-path="url(#clip790)" d="M630.868 2198.46 L715.954 2198.46 L715.954 2221.62 L631.623 2221.62 Q611.61 2221.62 601.667 2229.42 Q591.723 2237.23 591.723 2252.83 Q591.723 2271.59 603.68 2282.41 Q615.638 2293.24 636.28 2293.24 L715.954 2293.24 L715.954 2316.52 L574.983 2316.52 L574.983 2293.24 L596.884 2293.24 Q584.171 2284.93 577.878 2273.73 Q571.584 2262.4 571.584 2247.67 Q571.584 2223.38 586.688 2210.92 Q601.667 2198.46 630.868 2198.46 Z" fill="#000000" fill-rule="evenodd" fill-opacity="1" /><path clip-path="url(#clip790)" d="M639.678 2031.69 L651.007 2031.69 L651.007 2138.17 Q674.921 2136.66 687.508 2123.82 Q699.969 2110.86 699.969 2087.82 Q699.969 2074.48 696.696 2062.02 Q693.424 2049.43 686.879 2037.1 L708.78 2037.1 Q714.066 2049.56 716.835 2062.65 Q719.604 2075.74 719.604 2089.21 Q719.604 2122.94 699.969 2142.7 Q680.334 2162.34 646.853 2162.34 Q612.239 2162.34 591.975 2143.71 Q571.584 2124.95 571.584 2093.23 Q571.584 2064.79 589.961 2048.3 Q608.212 2031.69 639.678 2031.69 M632.882 2054.85 Q613.876 2055.1 602.548 2065.54 Q591.22 2075.86 591.22 2092.98 Q591.22 2112.37 602.17 2124.07 Q613.12 2135.65 633.007 2137.41 L632.882 2054.85 Z" fill="#000000" fill-rule="evenodd" fill-opacity="1" /><path clip-path="url(#clip790)" d="M596.632 1911.99 Q594.366 1915.89 593.359 1920.54 Q592.226 1925.08 592.226 1930.61 Q592.226 1950.25 605.065 1960.82 Q617.778 1971.27 641.692 1971.27 L715.954 1971.27 L715.954 1994.55 L574.983 1994.55 L574.983 1971.27 L596.884 1971.27 Q584.045 1963.97 577.878 1952.26 Q571.584 1940.56 571.584 1923.82 Q571.584 1921.43 571.962 1918.53 Q572.214 1915.64 572.843 1912.11 L596.632 1911.99 Z" fill="#000000" fill-rule="evenodd" fill-opacity="1" /><path clip-path="url(#clip790)" d="M645.091 1823.63 Q645.091 1851.7 651.51 1862.52 Q657.929 1873.34 673.411 1873.34 Q685.746 1873.34 693.046 1865.29 Q700.221 1857.11 700.221 1843.14 Q700.221 1823.88 686.627 1812.3 Q672.907 1800.59 650.251 1800.59 L645.091 1800.59 L645.091 1823.63 M635.525 1777.43 L715.954 1777.43 L715.954 1800.59 L694.557 1800.59 Q707.395 1808.52 713.563 1820.35 Q719.604 1832.19 719.604 1849.3 Q719.604 1870.95 707.521 1883.79 Q695.312 1896.5 674.921 1896.5 Q651.132 1896.5 639.049 1880.64 Q626.966 1864.66 626.966 1833.07 L626.966 1800.59 L624.7 1800.59 Q608.715 1800.59 600.03 1811.17 Q591.22 1821.61 591.22 1840.62 Q591.22 1852.7 594.114 1864.16 Q597.009 1875.61 602.799 1886.18 L581.402 1886.18 Q576.493 1873.47 574.102 1861.51 Q571.584 1849.56 571.584 1838.23 Q571.584 1807.64 587.443 1792.54 Q603.303 1777.43 635.525 1777.43 Z" fill="#000000" fill-rule="evenodd" fill-opacity="1" /><path clip-path="url(#clip790)" d="M534.957 1706.82 L574.983 1706.82 L574.983 1659.12 L592.982 1659.12 L592.982 1706.82 L669.509 1706.82 Q686.753 1706.82 691.662 1702.16 Q696.571 1697.38 696.571 1682.91 L696.571 1659.12 L715.954 1659.12 L715.954 1682.91 Q715.954 1709.72 706.011 1719.91 Q695.941 1730.11 669.509 1730.11 L592.982 1730.11 L592.982 1747.1 L574.983 1747.1 L574.983 1730.11 L534.957 1730.11 L534.957 1706.82 Z" fill="#000000" fill-rule="evenodd" fill-opacity="1" /><path clip-path="url(#clip790)" d="M639.678 1508.08 L651.007 1508.08 L651.007 1614.56 Q674.921 1613.05 687.508 1600.21 Q699.969 1587.25 699.969 1564.21 Q699.969 1550.87 696.696 1538.41 Q693.424 1525.82 686.879 1513.49 L708.78 1513.49 Q714.066 1525.95 716.835 1539.04 Q719.604 1552.13 719.604 1565.6 Q719.604 1599.33 699.969 1619.09 Q680.334 1638.73 646.853 1638.73 Q612.239 1638.73 591.975 1620.1 Q571.584 1601.34 571.584 1569.63 Q571.584 1541.18 589.961 1524.69 Q608.212 1508.08 639.678 1508.08 M632.882 1531.24 Q613.876 1531.49 602.548 1541.94 Q591.22 1552.26 591.22 1569.37 Q591.22 1588.76 602.17 1600.46 Q613.12 1612.04 633.007 1613.81 L632.882 1531.24 Z" fill="#000000" fill-rule="evenodd" fill-opacity="1" /><path clip-path="url(#clip790)" d="M596.38 1377.3 L520.104 1377.3 L520.104 1354.14 L715.954 1354.14 L715.954 1377.3 L694.808 1377.3 Q707.395 1384.6 713.563 1395.8 Q719.604 1406.88 719.604 1422.49 Q719.604 1448.04 699.214 1464.15 Q678.823 1480.13 645.594 1480.13 Q612.365 1480.13 591.975 1464.15 Q571.584 1448.04 571.584 1422.49 Q571.584 1406.88 577.752 1395.8 Q583.793 1384.6 596.38 1377.3 M645.594 1456.22 Q671.145 1456.22 685.746 1445.77 Q700.221 1435.2 700.221 1416.82 Q700.221 1398.45 685.746 1387.87 Q671.145 1377.3 645.594 1377.3 Q620.043 1377.3 605.568 1387.87 Q590.968 1398.45 590.968 1416.82 Q590.968 1435.2 605.568 1445.77 Q620.043 1456.22 645.594 1456.22 Z" fill="#000000" fill-rule="evenodd" fill-opacity="1" /><path clip-path="url(#clip790)" d="M528.034 1223.49 L528.034 1104.67 L549.432 1104.67 L549.432 1198.07 L605.065 1198.07 L605.065 1108.57 L626.462 1108.57 L626.462 1198.07 L694.557 1198.07 L694.557 1102.41 L715.954 1102.41 L715.954 1223.49 L528.034 1223.49 Z" fill="#000000" fill-rule="evenodd" fill-opacity="1" /><path clip-path="url(#clip790)" d="M520.104 1061.63 L520.104 1038.47 L715.954 1038.47 L715.954 1061.63 L520.104 1061.63 Z" fill="#000000" fill-rule="evenodd" fill-opacity="1" /><path clip-path="url(#clip790)" d="M639.678 869.426 L651.007 869.426 L651.007 975.91 Q674.921 974.399 687.508 961.561 Q699.969 948.597 699.969 925.563 Q699.969 912.221 696.696 899.76 Q693.424 887.173 686.879 874.838 L708.78 874.838 Q714.066 887.299 716.835 900.389 Q719.604 913.48 719.604 926.947 Q719.604 960.68 699.969 980.441 Q680.334 1000.08 646.853 1000.08 Q612.239 1000.08 591.975 981.448 Q571.584 962.694 571.584 930.975 Q571.584 902.529 589.961 886.041 Q608.212 869.426 639.678 869.426 M632.882 892.586 Q613.876 892.837 602.548 903.284 Q591.22 913.606 591.22 930.724 Q591.22 950.107 602.17 961.813 Q613.12 973.393 633.007 975.155 L632.882 892.586 Z" fill="#000000" fill-rule="evenodd" fill-opacity="1" /><path clip-path="url(#clip790)" d="M580.395 729.965 L602.044 729.965 Q596.632 739.783 593.989 749.726 Q591.22 759.544 591.22 769.613 Q591.22 792.144 605.568 804.604 Q619.791 817.065 645.594 817.065 Q671.397 817.065 685.746 804.604 Q699.969 792.144 699.969 769.613 Q699.969 759.544 697.326 749.726 Q694.557 739.783 689.144 729.965 L710.542 729.965 Q715.073 739.657 717.339 750.104 Q719.604 760.425 719.604 772.131 Q719.604 803.975 699.591 822.729 Q679.578 841.484 645.594 841.484 Q611.107 841.484 591.345 822.603 Q571.584 803.597 571.584 770.62 Q571.584 759.921 573.85 749.726 Q575.99 739.531 580.395 729.965 Z" fill="#000000" fill-rule="evenodd" fill-opacity="1" /><path clip-path="url(#clip790)" d="M534.957 666.78 L574.983 666.78 L574.983 619.076 L592.982 619.076 L592.982 666.78 L669.509 666.78 Q686.753 666.78 691.662 662.123 Q696.571 657.34 696.571 642.865 L696.571 619.076 L715.954 619.076 L715.954 642.865 Q715.954 669.675 706.011 679.87 Q695.941 690.065 669.509 690.065 L592.982 690.065 L592.982 707.057 L574.983 707.057 L574.983 690.065 L534.957 690.065 L534.957 666.78 Z" fill="#000000" fill-rule="evenodd" fill-opacity="1" /><path clip-path="url(#clip790)" d="M596.632 506.928 Q594.366 510.83 593.359 515.487 Q592.226 520.018 592.226 525.556 Q592.226 545.192 605.065 555.765 Q617.778 566.212 641.692 566.212 L715.954 566.212 L715.954 589.497 L574.983 589.497 L574.983 566.212 L596.884 566.212 Q584.045 558.911 577.878 547.206 Q571.584 535.5 571.584 518.76 Q571.584 516.368 571.962 513.473 Q572.214 510.578 572.843 507.054 L596.632 506.928 Z" fill="#000000" fill-rule="evenodd" fill-opacity="1" /><path clip-path="url(#clip790)" d="M574.983 482.636 L574.983 459.476 L715.954 459.476 L715.954 482.636 L574.983 482.636 M520.104 482.636 L520.104 459.476 L549.432 459.476 L549.432 482.636 L520.104 482.636 Z" fill="#000000" fill-rule="evenodd" fill-opacity="1" /><path clip-path="url(#clip790)" d="M580.395 309.568 L602.044 309.568 Q596.632 319.386 593.989 329.329 Q591.22 339.147 591.22 349.216 Q591.22 371.746 605.568 384.207 Q619.791 396.668 645.594 396.668 Q671.397 396.668 685.746 384.207 Q699.969 371.746 699.969 349.216 Q699.969 339.147 697.326 329.329 Q694.557 319.386 689.144 309.568 L710.542 309.568 Q715.073 319.26 717.339 329.707 Q719.604 340.028 719.604 351.734 Q719.604 383.578 699.591 402.332 Q679.578 421.086 645.594 421.086 Q611.107 421.086 591.345 402.206 Q571.584 383.2 571.584 350.223 Q571.584 339.524 573.85 329.329 Q575.99 319.134 580.395 309.568 Z" fill="#000000" fill-rule="evenodd" fill-opacity="1" /><path clip-path="url(#clip790)" d="M574.983 269.29 L574.983 246.131 L715.954 246.131 L715.954 269.29 L574.983 269.29 M520.104 269.29 L520.104 246.131 L549.432 246.131 L549.432 269.29 L520.104 269.29 Z" fill="#000000" fill-rule="evenodd" fill-opacity="1" /><path clip-path="url(#clip790)" d="M534.957 174.764 L574.983 174.764 L574.983 127.06 L592.982 127.06 L592.982 174.764 L669.509 174.764 Q686.753 174.764 691.662 170.107 Q696.571 165.324 696.571 150.849 L696.571 127.06 L715.954 127.06 L715.954 150.849 Q715.954 177.659 706.011 187.854 Q695.941 198.049 669.509 198.049 L592.982 198.049 L592.982 215.042 L574.983 215.042 L574.983 198.049 L534.957 198.049 L534.957 174.764 Z" fill="#000000" fill-rule="evenodd" fill-opacity="1" /><path clip-path="url(#clip790)" d="M729.044 37.9462 Q754.218 47.7638 761.896 57.078 Q769.574 66.3922 769.574 81.9998 L769.574 100.502 L750.19 100.502 L750.19 86.9086 Q750.19 77.3427 745.659 72.0562 Q741.128 66.7698 724.261 60.3506 L713.688 56.197 L574.983 113.215 L574.983 88.6707 L685.242 44.6172 L574.983 0.563568 L574.983 -23.9806 L729.044 37.9462 Z" fill="#000000" fill-rule="evenodd" fill-opacity="1" /><path clip-path="url(#clip790)" d="M520.356 -193.524 Q549.306 -176.658 577.626 -168.476 Q605.946 -160.295 635.021 -160.295 Q664.097 -160.295 692.669 -168.476 Q721.115 -176.784 749.938 -193.524 L749.938 -173.385 Q720.359 -154.505 691.788 -145.065 Q663.216 -135.751 635.021 -135.751 Q606.953 -135.751 578.507 -145.065 Q550.061 -154.379 520.356 -173.385 L520.356 -193.524 Z" fill="#000000" fill-rule="evenodd" fill-opacity="1" /><path clip-path="url(#clip790)" d="M528.034 -239.466 L528.034 -277.352 L655.915 -325.307 L528.034 -373.514 L528.034 -411.4 L715.954 -411.4 L715.954 -386.604 L550.942 -386.604 L679.83 -338.146 L679.83 -312.594 L550.942 -264.136 L715.954 -264.136 L715.954 -239.466 L528.034 -239.466 Z" fill="#000000" fill-rule="evenodd" fill-opacity="1" /><path clip-path="url(#clip790)" d="M528.034 -445.133 L528.034 -470.81 L686.879 -510.332 L528.034 -549.729 L528.034 -578.301 L686.879 -617.823 L528.034 -657.219 L528.034 -683.022 L715.954 -635.822 L715.954 -603.852 L552.83 -564.203 L715.954 -524.178 L715.954 -492.207 L528.034 -445.133 Z" fill="#000000" fill-rule="evenodd" fill-opacity="1" /><path clip-path="url(#clip790)" d="M520.356 -712.098 L520.356 -732.236 Q550.061 -751.116 578.507 -760.431 Q606.953 -769.871 635.021 -769.871 Q663.216 -769.871 691.788 -760.431 Q720.359 -751.116 749.938 -732.236 L749.938 -712.098 Q721.115 -728.838 692.669 -737.019 Q664.097 -745.327 635.021 -745.327 Q605.946 -745.327 577.626 -737.019 Q549.306 -728.838 520.356 -712.098 Z" fill="#000000" fill-rule="evenodd" fill-opacity="1" /><polyline clip-path="url(#clip792)" style="stroke:#88ccee; stroke-linecap:round; stroke-linejoin:round; stroke-width:29; stroke-opacity:1; fill:none" points="
  1344.49,1603.06 1403.04,1603.06 1461.59,1603.06 1520.13,1641.47 1578.68,1603.06 1637.23,1603.06 1695.78,1603.06 1754.33,1603.06 1812.87,1603.06 1871.42,1603.06 
  1929.97,1603.06 1988.52,1603.06 2047.07,1603.06 2105.62,1603.06 2164.16,1603.06 2222.71,1603.06 2281.26,1603.06 2339.81,1603.06 2398.36,1603.06 2456.9,1603.06 
  2515.45,1603.06 2574,1603.06 2632.55,1603.06 2691.1,1603.06 
  "/>
<polyline clip-path="url(#clip792)" style="stroke:#44aa99; stroke-linecap:round; stroke-linejoin:round; stroke-width:29; stroke-opacity:1; fill:none" points="
  1344.49,1515.75 1403.04,1515.75 1461.59,1515.75 1520.13,1515.75 1578.68,1515.75 1637.23,1515.75 1695.78,1515.75 1754.33,1515.75 1812.87,1515.75 1871.42,1515.75 
  1929.97,1515.75 1988.52,1515.75 2047.07,1515.75 2105.62,1515.75 2164.16,1515.75 2222.71,1515.75 2281.26,1515.75 2339.81,1515.75 2398.36,1515.75 2456.9,1515.75 
  2515.45,1515.75 2574,1515.75 2632.55,1515.75 2691.1,1515.75 
  "/>
<polyline clip-path="url(#clip792)" style="stroke:#117733; stroke-linecap:round; stroke-linejoin:round; stroke-width:29; stroke-opacity:1; fill:none" points="
  1344.49,118.794 1403.04,118.794 1461.59,248.013 1520.13,328.337 1578.68,153.718 1637.23,118.794 1695.78,118.794 1754.33,118.794 1812.87,118.794 1871.42,118.794 
  1929.97,118.794 1988.52,118.794 2047.07,118.794 2105.62,118.794 2164.16,118.794 2222.71,118.794 2281.26,118.794 2339.81,118.794 2398.36,118.794 2456.9,118.794 
  2515.45,118.794 2574,118.794 2632.55,118.794 2691.1,118.794 
  "/>
<polyline clip-path="url(#clip792)" style="stroke:#332288; stroke-linecap:round; stroke-linejoin:round; stroke-width:29; stroke-opacity:1; fill:none" points="
  1344.49,1280.01 1403.04,1505.27 1461.59,1585.6 1520.13,1585.6 1578.68,1585.6 1637.23,1299.22 1695.78,1114.12 1754.33,846.957 1812.87,658.368 1871.42,642.652 
  1929.97,642.652 1988.52,686.307 2047.07,721.231 2105.62,642.652 2164.16,642.652 2222.71,642.652 2281.26,642.652 2339.81,642.652 2398.36,887.119 2456.9,789.332 
  2515.45,876.642 2574,970.936 2632.55,1035.55 2691.1,1114.12 
  "/>
<polyline clip-path="url(#clip792)" style="stroke:#ddcc77; stroke-linecap:round; stroke-linejoin:round; stroke-width:29; stroke-opacity:1; fill:none" points="
  1344.49,1795.14 1403.04,1795.14 1461.59,1795.14 1520.13,1795.14 1578.68,1795.14 1637.23,1795.14 1695.78,1795.14 1754.33,1795.14 1812.87,1795.14 1871.42,1599.57 
  1929.97,1768.95 1988.52,1795.14 2047.07,1795.14 2105.62,1611.79 2164.16,1412.72 2222.71,1271.28 2281.26,1103.65 2339.81,1053.01 2398.36,1576.87 2456.9,1795.14 
  2515.45,1795.14 2574,1795.14 2632.55,1795.14 2691.1,1795.14 
  "/>
<path clip-path="url(#clip790)" d="
M1836.55 1368.01 L2683.92 1368.01 L2683.92 127.735 L1836.55 127.735  Z
  " fill="#ffffff" fill-rule="evenodd" fill-opacity="1"/>
<polyline clip-path="url(#clip790)" style="stroke:#000000; stroke-linecap:round; stroke-linejoin:round; stroke-width:5.8; stroke-opacity:1; fill:none" points="
  1836.55,1368.01 2683.92,1368.01 2683.92,127.735 1836.55,127.735 1836.55,1368.01 
  "/>
<polyline clip-path="url(#clip790)" style="stroke:#88ccee; stroke-linecap:round; stroke-linejoin:round; stroke-width:15.95; stroke-opacity:1; fill:none" points="
  1852.41,334.447 1947.57,334.447 
  "/>
<path clip-path="url(#clip790)" d="M2050.01 340.954 L2050.01 403.351 L2033.03 403.351 L2033.03 341.508 Q2033.03 326.832 2027.31 319.54 Q2021.58 312.248 2010.14 312.248 Q1996.38 312.248 1988.45 321.017 Q1980.51 329.786 1980.51 344.923 L1980.51 403.351 L1963.43 403.351 L1963.43 259.728 L1980.51 259.728 L1980.51 316.032 Q1986.6 306.71 1994.82 302.095 Q2003.12 297.48 2013.92 297.48 Q2031.74 297.48 2040.87 308.556 Q2050.01 319.54 2050.01 340.954 Z" fill="#000000" fill-rule="evenodd" fill-opacity="1" /><path clip-path="url(#clip790)" d="M2126.9 412.95 Q2119.7 431.411 2112.87 437.041 Q2106.04 442.672 2094.59 442.672 L2081.03 442.672 L2081.03 428.457 L2091 428.457 Q2098.01 428.457 2101.89 425.134 Q2105.76 421.811 2110.47 409.443 L2113.52 401.689 L2071.7 299.972 L2089.7 299.972 L2122.01 380.829 L2154.31 299.972 L2172.31 299.972 L2126.9 412.95 Z" fill="#000000" fill-rule="evenodd" fill-opacity="1" /><path clip-path="url(#clip790)" d="M2263.79 315.663 L2263.79 259.728 L2280.77 259.728 L2280.77 403.351 L2263.79 403.351 L2263.79 387.844 Q2258.43 397.074 2250.22 401.597 Q2242.09 406.028 2230.65 406.028 Q2211.91 406.028 2200.1 391.075 Q2188.37 376.121 2188.37 351.754 Q2188.37 327.386 2200.1 312.433 Q2211.91 297.48 2230.65 297.48 Q2242.09 297.48 2250.22 302.002 Q2258.43 306.433 2263.79 315.663 M2205.91 351.754 Q2205.91 370.491 2213.57 381.198 Q2221.33 391.813 2234.8 391.813 Q2248.28 391.813 2256.03 381.198 Q2263.79 370.491 2263.79 351.754 Q2263.79 333.016 2256.03 322.401 Q2248.28 311.694 2234.8 311.694 Q2221.33 311.694 2213.57 322.401 Q2205.91 333.016 2205.91 351.754 Z" fill="#000000" fill-rule="evenodd" fill-opacity="1" /><path clip-path="url(#clip790)" d="M2375.66 315.848 Q2372.8 314.186 2369.38 313.448 Q2366.06 312.617 2362 312.617 Q2347.6 312.617 2339.84 322.032 Q2332.18 331.355 2332.18 348.892 L2332.18 403.351 L2315.11 403.351 L2315.11 299.972 L2332.18 299.972 L2332.18 316.032 Q2337.54 306.618 2346.12 302.095 Q2354.7 297.48 2366.98 297.48 Q2368.73 297.48 2370.86 297.756 Q2372.98 297.941 2375.56 298.403 L2375.66 315.848 Z" fill="#000000" fill-rule="evenodd" fill-opacity="1" /><path clip-path="url(#clip790)" d="M2429.38 311.879 Q2415.72 311.879 2407.78 322.586 Q2399.84 333.201 2399.84 351.754 Q2399.84 370.306 2407.69 381.014 Q2415.62 391.628 2429.38 391.628 Q2442.95 391.628 2450.88 380.921 Q2458.82 370.214 2458.82 351.754 Q2458.82 333.385 2450.88 322.678 Q2442.95 311.879 2429.38 311.879 M2429.38 297.48 Q2451.53 297.48 2464.18 311.879 Q2476.82 326.278 2476.82 351.754 Q2476.82 377.137 2464.18 391.628 Q2451.53 406.028 2429.38 406.028 Q2407.13 406.028 2394.49 391.628 Q2381.93 377.137 2381.93 351.754 Q2381.93 326.278 2394.49 311.879 Q2407.13 297.48 2429.38 297.48 Z" fill="#000000" fill-rule="evenodd" fill-opacity="1" /><polyline clip-path="url(#clip790)" style="stroke:#44aa99; stroke-linecap:round; stroke-linejoin:round; stroke-width:15.95; stroke-opacity:1; fill:none" points="
  1852.41,541.159 1947.57,541.159 
  "/>
<path clip-path="url(#clip790)" d="M1963.43 506.684 L1980.42 506.684 L2001.65 587.356 L2022.78 506.684 L2042.81 506.684 L2064.04 587.356 L2085.18 506.684 L2102.16 506.684 L2075.12 610.063 L2055.09 610.063 L2032.84 525.329 L2010.51 610.063 L1990.48 610.063 L1963.43 506.684 Z" fill="#000000" fill-rule="evenodd" fill-opacity="1" /><path clip-path="url(#clip790)" d="M2127.92 506.684 L2144.9 506.684 L2144.9 610.063 L2127.92 610.063 L2127.92 506.684 M2127.92 466.44 L2144.9 466.44 L2144.9 487.946 L2127.92 487.946 L2127.92 466.44 Z" fill="#000000" fill-rule="evenodd" fill-opacity="1" /><path clip-path="url(#clip790)" d="M2266.37 547.666 L2266.37 610.063 L2249.39 610.063 L2249.39 548.22 Q2249.39 533.544 2243.66 526.252 Q2237.94 518.96 2226.5 518.96 Q2212.74 518.96 2204.8 527.729 Q2196.87 536.498 2196.87 551.635 L2196.87 610.063 L2179.79 610.063 L2179.79 506.684 L2196.87 506.684 L2196.87 522.744 Q2202.96 513.422 2211.17 508.807 Q2219.48 504.192 2230.28 504.192 Q2248.09 504.192 2257.23 515.268 Q2266.37 526.252 2266.37 547.666 Z" fill="#000000" fill-rule="evenodd" fill-opacity="1" /><path clip-path="url(#clip790)" d="M2368.27 522.375 L2368.27 466.44 L2385.26 466.44 L2385.26 610.063 L2368.27 610.063 L2368.27 594.556 Q2362.92 603.786 2354.7 608.309 Q2346.58 612.74 2335.14 612.74 Q2316.4 612.74 2304.58 597.787 Q2292.86 582.833 2292.86 558.466 Q2292.86 534.098 2304.58 519.145 Q2316.4 504.192 2335.14 504.192 Q2346.58 504.192 2354.7 508.714 Q2362.92 513.145 2368.27 522.375 M2310.4 558.466 Q2310.4 577.203 2318.06 587.91 Q2325.81 598.525 2339.29 598.525 Q2352.77 598.525 2360.52 587.91 Q2368.27 577.203 2368.27 558.466 Q2368.27 539.728 2360.52 529.113 Q2352.77 518.406 2339.29 518.406 Q2325.81 518.406 2318.06 529.113 Q2310.4 539.728 2310.4 558.466 Z" fill="#000000" fill-rule="evenodd" fill-opacity="1" /><polyline clip-path="url(#clip790)" style="stroke:#117733; stroke-linecap:round; stroke-linejoin:round; stroke-width:15.95; stroke-opacity:1; fill:none" points="
  1852.41,747.871 1947.57,747.871 
  "/>
<path clip-path="url(#clip790)" d="M2050.01 754.378 L2050.01 816.775 L2033.03 816.775 L2033.03 754.932 Q2033.03 740.256 2027.31 732.964 Q2021.58 725.672 2010.14 725.672 Q1996.38 725.672 1988.45 734.441 Q1980.51 743.21 1980.51 758.347 L1980.51 816.775 L1963.43 816.775 L1963.43 713.396 L1980.51 713.396 L1980.51 729.456 Q1986.6 720.134 1994.82 715.519 Q2003.12 710.904 2013.92 710.904 Q2031.74 710.904 2040.87 721.98 Q2050.01 732.964 2050.01 754.378 Z" fill="#000000" fill-rule="evenodd" fill-opacity="1" /><path clip-path="url(#clip790)" d="M2082.13 775.977 L2082.13 713.396 L2099.12 713.396 L2099.12 775.331 Q2099.12 790.007 2104.84 797.391 Q2110.56 804.683 2122.01 804.683 Q2135.76 804.683 2143.7 795.914 Q2151.73 787.146 2151.73 772.008 L2151.73 713.396 L2168.71 713.396 L2168.71 816.775 L2151.73 816.775 L2151.73 800.899 Q2145.55 810.314 2137.33 814.929 Q2129.21 819.452 2118.41 819.452 Q2100.59 819.452 2091.36 808.375 Q2082.13 797.299 2082.13 775.977 M2124.87 710.904 L2124.87 710.904 Z" fill="#000000" fill-rule="evenodd" fill-opacity="1" /><path clip-path="url(#clip790)" d="M2278.09 717.365 L2278.09 733.241 Q2270.89 729.272 2263.6 727.333 Q2256.4 725.303 2249.02 725.303 Q2232.5 725.303 2223.36 735.825 Q2214.22 746.256 2214.22 765.178 Q2214.22 784.1 2223.36 794.622 Q2232.5 805.052 2249.02 805.052 Q2256.4 805.052 2263.6 803.114 Q2270.89 801.083 2278.09 797.114 L2278.09 812.806 Q2270.99 816.129 2263.32 817.79 Q2255.76 819.452 2247.17 819.452 Q2223.82 819.452 2210.07 804.775 Q2196.31 790.099 2196.31 765.178 Q2196.31 739.887 2210.16 725.395 Q2224.1 710.904 2248.28 710.904 Q2256.12 710.904 2263.6 712.565 Q2271.08 714.134 2278.09 717.365 Z" fill="#000000" fill-rule="evenodd" fill-opacity="1" /><path clip-path="url(#clip790)" d="M2307.63 673.152 L2324.61 673.152 L2324.61 816.775 L2307.63 816.775 L2307.63 673.152 Z" fill="#000000" fill-rule="evenodd" fill-opacity="1" /><path clip-path="url(#clip790)" d="M2448.58 760.839 L2448.58 769.147 L2370.49 769.147 Q2371.6 786.684 2381.01 795.914 Q2390.52 805.052 2407.41 805.052 Q2417.19 805.052 2426.33 802.652 Q2435.56 800.253 2444.61 795.453 L2444.61 811.514 Q2435.47 815.39 2425.87 817.421 Q2416.27 819.452 2406.39 819.452 Q2381.66 819.452 2367.16 805.052 Q2352.77 790.653 2352.77 766.101 Q2352.77 740.717 2366.43 725.857 Q2380.18 710.904 2403.44 710.904 Q2424.3 710.904 2436.39 724.38 Q2448.58 737.764 2448.58 760.839 M2431.59 755.855 Q2431.41 741.917 2423.75 733.61 Q2416.18 725.303 2403.62 725.303 Q2389.41 725.303 2380.83 733.333 Q2372.33 741.363 2371.04 755.947 L2431.59 755.855 Z" fill="#000000" fill-rule="evenodd" fill-opacity="1" /><path clip-path="url(#clip790)" d="M2523.43 764.808 Q2502.85 764.808 2494.91 769.516 Q2486.97 774.223 2486.97 785.576 Q2486.97 794.622 2492.88 799.976 Q2498.88 805.237 2509.13 805.237 Q2523.25 805.237 2531.74 795.268 Q2540.32 785.207 2540.32 768.593 L2540.32 764.808 L2523.43 764.808 M2557.31 757.793 L2557.31 816.775 L2540.32 816.775 L2540.32 801.083 Q2534.51 810.498 2525.83 815.021 Q2517.16 819.452 2504.6 819.452 Q2488.73 819.452 2479.31 810.591 Q2469.99 801.637 2469.99 786.684 Q2469.99 769.239 2481.62 760.378 Q2493.34 751.517 2516.51 751.517 L2540.32 751.517 L2540.32 749.855 Q2540.32 738.133 2532.57 731.764 Q2524.91 725.303 2510.97 725.303 Q2502.11 725.303 2493.71 727.426 Q2485.31 729.549 2477.56 733.795 L2477.56 718.103 Q2486.88 714.503 2495.65 712.75 Q2504.42 710.904 2512.73 710.904 Q2535.16 710.904 2546.23 722.534 Q2557.31 734.164 2557.31 757.793 Z" fill="#000000" fill-rule="evenodd" fill-opacity="1" /><path clip-path="url(#clip790)" d="M2652.2 729.272 Q2649.33 727.61 2645.92 726.872 Q2642.6 726.041 2638.53 726.041 Q2624.14 726.041 2616.38 735.456 Q2608.72 744.779 2608.72 762.316 L2608.72 816.775 L2591.65 816.775 L2591.65 713.396 L2608.72 713.396 L2608.72 729.456 Q2614.07 720.042 2622.66 715.519 Q2631.24 710.904 2643.52 710.904 Q2645.27 710.904 2647.4 711.18 Q2649.52 711.365 2652.1 711.827 L2652.2 729.272 Z" fill="#000000" fill-rule="evenodd" fill-opacity="1" /><polyline clip-path="url(#clip790)" style="stroke:#332288; stroke-linecap:round; stroke-linejoin:round; stroke-width:15.95; stroke-opacity:1; fill:none" points="
  1852.41,954.583 1947.57,954.583 
  "/>
<path clip-path="url(#clip790)" d="M2045.21 924.077 L2045.21 939.953 Q2038.01 935.984 2030.72 934.045 Q2023.52 932.015 2016.14 932.015 Q1999.62 932.015 1990.48 942.537 Q1981.34 952.968 1981.34 971.89 Q1981.34 990.812 1990.48 1001.33 Q1999.62 1011.76 2016.14 1011.76 Q2023.52 1011.76 2030.72 1009.83 Q2038.01 1007.8 2045.21 1003.83 L2045.21 1019.52 Q2038.11 1022.84 2030.44 1024.5 Q2022.88 1026.16 2014.29 1026.16 Q1990.94 1026.16 1977.19 1011.49 Q1963.43 996.811 1963.43 971.89 Q1963.43 946.599 1977.28 932.107 Q1991.22 917.616 2015.4 917.616 Q2023.24 917.616 2030.72 919.277 Q2038.2 920.846 2045.21 924.077 Z" fill="#000000" fill-rule="evenodd" fill-opacity="1" /><path clip-path="url(#clip790)" d="M2114.81 932.015 Q2101.15 932.015 2093.21 942.722 Q2085.27 953.337 2085.27 971.89 Q2085.27 990.442 2093.12 1001.15 Q2101.06 1011.76 2114.81 1011.76 Q2128.38 1011.76 2136.32 1001.06 Q2144.25 990.35 2144.25 971.89 Q2144.25 953.521 2136.32 942.814 Q2128.38 932.015 2114.81 932.015 M2114.81 917.616 Q2136.96 917.616 2149.61 932.015 Q2162.25 946.414 2162.25 971.89 Q2162.25 997.273 2149.61 1011.76 Q2136.96 1026.16 2114.81 1026.16 Q2092.56 1026.16 2079.92 1011.76 Q2067.37 997.273 2067.37 971.89 Q2067.37 946.414 2079.92 932.015 Q2092.56 917.616 2114.81 917.616 Z" fill="#000000" fill-rule="evenodd" fill-opacity="1" /><path clip-path="url(#clip790)" d="M2237.39 971.52 Q2216.8 971.52 2208.87 976.228 Q2200.93 980.935 2200.93 992.288 Q2200.93 1001.33 2206.84 1006.69 Q2212.83 1011.95 2223.08 1011.95 Q2237.2 1011.95 2245.69 1001.98 Q2254.28 991.919 2254.28 975.305 L2254.28 971.52 L2237.39 971.52 M2271.26 964.505 L2271.26 1023.49 L2254.28 1023.49 L2254.28 1007.8 Q2248.46 1017.21 2239.79 1021.73 Q2231.11 1026.16 2218.56 1026.16 Q2202.68 1026.16 2193.27 1017.3 Q2183.94 1008.35 2183.94 993.396 Q2183.94 975.951 2195.57 967.09 Q2207.3 958.229 2230.46 958.229 L2254.28 958.229 L2254.28 956.567 Q2254.28 944.845 2246.53 938.476 Q2238.86 932.015 2224.93 932.015 Q2216.07 932.015 2207.67 934.138 Q2199.27 936.261 2191.51 940.507 L2191.51 924.815 Q2200.84 921.215 2209.6 919.462 Q2218.37 917.616 2226.68 917.616 Q2249.11 917.616 2260.19 929.246 Q2271.26 940.876 2271.26 964.505 Z" fill="#000000" fill-rule="evenodd" fill-opacity="1" /><path clip-path="url(#clip790)" d="M2306.25 879.864 L2323.23 879.864 L2323.23 1023.49 L2306.25 1023.49 L2306.25 879.864 Z" fill="#000000" fill-rule="evenodd" fill-opacity="1" /><polyline clip-path="url(#clip790)" style="stroke:#ddcc77; stroke-linecap:round; stroke-linejoin:round; stroke-width:15.95; stroke-opacity:1; fill:none" points="
  1852.41,1161.29 1947.57,1161.29 
  "/>
<path clip-path="url(#clip790)" d="M2050.01 1167.8 L2050.01 1230.2 L2033.03 1230.2 L2033.03 1168.36 Q2033.03 1153.68 2027.31 1146.39 Q2021.58 1139.1 2010.14 1139.1 Q1996.38 1139.1 1988.45 1147.86 Q1980.51 1156.63 1980.51 1171.77 L1980.51 1230.2 L1963.43 1230.2 L1963.43 1126.82 L1980.51 1126.82 L1980.51 1142.88 Q1986.6 1133.56 1994.82 1128.94 Q2003.12 1124.33 2013.92 1124.33 Q2031.74 1124.33 2040.87 1135.4 Q2050.01 1146.39 2050.01 1167.8 Z" fill="#000000" fill-rule="evenodd" fill-opacity="1" /><path clip-path="url(#clip790)" d="M2130.87 1178.23 Q2110.29 1178.23 2102.35 1182.94 Q2094.41 1187.65 2094.41 1199 Q2094.41 1208.05 2100.32 1213.4 Q2106.32 1218.66 2116.56 1218.66 Q2130.69 1218.66 2139.18 1208.69 Q2147.76 1198.63 2147.76 1182.02 L2147.76 1178.23 L2130.87 1178.23 M2164.74 1171.22 L2164.74 1230.2 L2147.76 1230.2 L2147.76 1214.51 Q2141.95 1223.92 2133.27 1228.45 Q2124.59 1232.88 2112.04 1232.88 Q2096.16 1232.88 2086.75 1224.01 Q2077.43 1215.06 2077.43 1200.11 Q2077.43 1182.66 2089.06 1173.8 Q2100.78 1164.94 2123.95 1164.94 L2147.76 1164.94 L2147.76 1163.28 Q2147.76 1151.56 2140.01 1145.19 Q2132.35 1138.73 2118.41 1138.73 Q2109.55 1138.73 2101.15 1140.85 Q2092.75 1142.97 2085 1147.22 L2085 1131.53 Q2094.32 1127.93 2103.09 1126.17 Q2111.86 1124.33 2120.16 1124.33 Q2142.59 1124.33 2153.67 1135.96 Q2164.74 1147.59 2164.74 1171.22 Z" fill="#000000" fill-rule="evenodd" fill-opacity="1" /><path clip-path="url(#clip790)" d="M2216.53 1097.47 L2216.53 1126.82 L2251.51 1126.82 L2251.51 1140.02 L2216.53 1140.02 L2216.53 1196.14 Q2216.53 1208.78 2219.94 1212.38 Q2223.45 1215.98 2234.06 1215.98 L2251.51 1215.98 L2251.51 1230.2 L2234.06 1230.2 Q2214.4 1230.2 2206.93 1222.91 Q2199.45 1215.52 2199.45 1196.14 L2199.45 1140.02 L2186.99 1140.02 L2186.99 1126.82 L2199.45 1126.82 L2199.45 1097.47 L2216.53 1097.47 Z" fill="#000000" fill-rule="evenodd" fill-opacity="1" /><path clip-path="url(#clip790)" d="M2341.87 1177.31 Q2341.87 1158.85 2334.21 1148.7 Q2326.64 1138.54 2312.89 1138.54 Q2299.23 1138.54 2291.57 1148.7 Q2284 1158.85 2284 1177.31 Q2284 1195.68 2291.57 1205.83 Q2299.23 1215.98 2312.89 1215.98 Q2326.64 1215.98 2334.21 1205.83 Q2341.87 1195.68 2341.87 1177.31 M2358.86 1217.37 Q2358.86 1243.77 2347.14 1256.6 Q2335.41 1269.52 2311.23 1269.52 Q2302.28 1269.52 2294.34 1268.14 Q2286.4 1266.84 2278.92 1264.07 L2278.92 1247.55 Q2286.4 1251.61 2293.69 1253.55 Q2300.98 1255.49 2308.55 1255.49 Q2325.26 1255.49 2333.57 1246.72 Q2341.87 1238.04 2341.87 1220.41 L2341.87 1212.02 Q2336.61 1221.15 2328.4 1225.68 Q2320.18 1230.2 2308.74 1230.2 Q2289.72 1230.2 2278.09 1215.71 Q2266.46 1201.22 2266.46 1177.31 Q2266.46 1153.31 2278.09 1138.82 Q2289.72 1124.33 2308.74 1124.33 Q2320.18 1124.33 2328.4 1128.85 Q2336.61 1133.37 2341.87 1142.51 L2341.87 1126.82 L2358.86 1126.82 L2358.86 1217.37 Z" fill="#000000" fill-rule="evenodd" fill-opacity="1" /><path clip-path="url(#clip790)" d="M2440.82 1178.23 Q2420.24 1178.23 2412.3 1182.94 Q2404.36 1187.65 2404.36 1199 Q2404.36 1208.05 2410.27 1213.4 Q2416.27 1218.66 2426.52 1218.66 Q2440.64 1218.66 2449.13 1208.69 Q2457.71 1198.63 2457.71 1182.02 L2457.71 1178.23 L2440.82 1178.23 M2474.7 1171.22 L2474.7 1230.2 L2457.71 1230.2 L2457.71 1214.51 Q2451.9 1223.92 2443.22 1228.45 Q2434.55 1232.88 2421.99 1232.88 Q2406.12 1232.88 2396.7 1224.01 Q2387.38 1215.06 2387.38 1200.11 Q2387.38 1182.66 2399.01 1173.8 Q2410.73 1164.94 2433.9 1164.94 L2457.71 1164.94 L2457.71 1163.28 Q2457.71 1151.56 2449.96 1145.19 Q2442.3 1138.73 2428.36 1138.73 Q2419.5 1138.73 2411.1 1140.85 Q2402.7 1142.97 2394.95 1147.22 L2394.95 1131.53 Q2404.27 1127.93 2413.04 1126.17 Q2421.81 1124.33 2430.12 1124.33 Q2452.54 1124.33 2463.62 1135.96 Q2474.7 1147.59 2474.7 1171.22 Z" fill="#000000" fill-rule="evenodd" fill-opacity="1" /><path clip-path="url(#clip790)" d="M2575.58 1129.87 L2575.58 1145.93 Q2568.38 1142.23 2560.63 1140.39 Q2552.88 1138.54 2544.57 1138.54 Q2531.93 1138.54 2525.56 1142.42 Q2519.28 1146.3 2519.28 1154.05 Q2519.28 1159.96 2523.8 1163.37 Q2528.33 1166.69 2541.99 1169.74 L2547.8 1171.03 Q2565.89 1174.91 2573.46 1182.02 Q2581.12 1189.03 2581.12 1201.68 Q2581.12 1216.08 2569.68 1224.48 Q2558.32 1232.88 2538.39 1232.88 Q2530.08 1232.88 2521.03 1231.21 Q2512.08 1229.64 2502.11 1226.41 L2502.11 1208.88 Q2511.53 1213.77 2520.66 1216.26 Q2529.8 1218.66 2538.76 1218.66 Q2550.76 1218.66 2557.22 1214.6 Q2563.68 1210.45 2563.68 1202.97 Q2563.68 1196.05 2558.97 1192.35 Q2554.35 1188.66 2538.57 1185.25 L2532.66 1183.86 Q2516.88 1180.54 2509.86 1173.71 Q2502.85 1166.79 2502.85 1154.79 Q2502.85 1140.2 2513.19 1132.27 Q2523.53 1124.33 2542.54 1124.33 Q2551.95 1124.33 2560.26 1125.71 Q2568.57 1127.1 2575.58 1129.87 Z" fill="#000000" fill-rule="evenodd" fill-opacity="1" /></svg>
