<?xml version="1.0" encoding="utf-8"?>
<svg xmlns="http://www.w3.org/2000/svg" xmlns:xlink="http://www.w3.org/1999/xlink" width="700" height="400" viewBox="0 0 2800 1600">
<defs>
  <clipPath id="clip310">
    <rect x="0" y="0" width="2800" height="1600"/>
  </clipPath>
</defs>
<path clip-path="url(#clip310)" d="
M0 1600 L2800 1600 L2800 0 L0 0  Z
  " fill="#ffffff" fill-rule="evenodd" fill-opacity="1"/>
<defs>
  <clipPath id="clip311">
    <rect x="560" y="0" width="1961" height="1600"/>
  </clipPath>
</defs>
<path clip-path="url(#clip310)" d="
M421.145 1245.04 L2752.76 1245.04 L2752.76 174.078 L421.145 174.078  Z
  " fill="#ffffff" fill-rule="evenodd" fill-opacity="1"/>
<defs>
  <clipPath id="clip312">
    <rect x="421" y="174" width="2333" height="1072"/>
  </clipPath>
</defs>
<polyline clip-path="url(#clip310)" style="stroke:#000000; stroke-linecap:round; stroke-linejoin:round; stroke-width:4; stroke-opacity:1; fill:none" points="
  421.145,1245.04 2752.76,1245.04 
  "/>
<polyline clip-path="url(#clip310)" style="stroke:#000000; stroke-linecap:round; stroke-linejoin:round; stroke-width:4; stroke-opacity:1; fill:none" points="
  487.134,1245.04 487.134,1226.14 
  "/>
<polyline clip-path="url(#clip310)" style="stroke:#000000; stroke-linecap:round; stroke-linejoin:round; stroke-width:4; stroke-opacity:1; fill:none" points="
  918.435,1245.04 918.435,1226.14 
  "/>
<polyline clip-path="url(#clip310)" style="stroke:#000000; stroke-linecap:round; stroke-linejoin:round; stroke-width:4; stroke-opacity:1; fill:none" points="
  1349.74,1245.04 1349.74,1226.14 
  "/>
<polyline clip-path="url(#clip310)" style="stroke:#000000; stroke-linecap:round; stroke-linejoin:round; stroke-width:4; stroke-opacity:1; fill:none" points="
  1781.04,1245.04 1781.04,1226.14 
  "/>
<polyline clip-path="url(#clip310)" style="stroke:#000000; stroke-linecap:round; stroke-linejoin:round; stroke-width:4; stroke-opacity:1; fill:none" points="
  2212.34,1245.04 2212.34,1226.14 
  "/>
<polyline clip-path="url(#clip310)" style="stroke:#000000; stroke-linecap:round; stroke-linejoin:round; stroke-width:4; stroke-opacity:1; fill:none" points="
  2643.64,1245.04 2643.64,1226.14 
  "/>
<path clip-path="url(#clip310)" d="M487.134 1293.8 Q479.009 1293.8 474.895 1301.82 Q470.832 1309.79 470.832 1325.83 Q470.832 1341.82 474.895 1349.84 Q479.009 1357.81 487.134 1357.81 Q495.311 1357.81 499.374 1349.84 Q503.488 1341.82 503.488 1325.83 Q503.488 1309.79 499.374 1301.82 Q495.311 1293.8 487.134 1293.8 M487.134 1285.47 Q500.207 1285.47 507.082 1295.83 Q514.009 1306.15 514.009 1325.83 Q514.009 1345.47 507.082 1355.83 Q500.207 1366.15 487.134 1366.15 Q474.061 1366.15 467.134 1355.83 Q460.259 1345.47 460.259 1325.83 Q460.259 1306.15 467.134 1295.83 Q474.061 1285.47 487.134 1285.47 Z" fill="#000000" fill-rule="evenodd" fill-opacity="1" /><path clip-path="url(#clip310)" d="M827.576 1286.88 L868.878 1286.88 L868.878 1295.73 L837.211 1295.73 L837.211 1314.79 Q839.503 1314.01 841.794 1313.65 Q844.086 1313.23 846.378 1313.23 Q859.399 1313.23 867.003 1320.37 Q874.607 1327.5 874.607 1339.69 Q874.607 1352.24 866.794 1359.22 Q858.982 1366.15 844.763 1366.15 Q839.867 1366.15 834.763 1365.31 Q829.711 1364.48 824.295 1362.81 L824.295 1352.24 Q828.982 1354.79 833.982 1356.04 Q838.982 1357.29 844.555 1357.29 Q853.565 1357.29 858.826 1352.55 Q864.086 1347.81 864.086 1339.69 Q864.086 1331.56 858.826 1326.82 Q853.565 1322.08 844.555 1322.08 Q840.336 1322.08 836.117 1323.02 Q831.951 1323.96 827.576 1325.94 L827.576 1286.88 Z" fill="#000000" fill-rule="evenodd" fill-opacity="1" /><path clip-path="url(#clip310)" d="M917.836 1293.8 Q909.711 1293.8 905.596 1301.82 Q901.534 1309.79 901.534 1325.83 Q901.534 1341.82 905.596 1349.84 Q909.711 1357.81 917.836 1357.81 Q926.013 1357.81 930.075 1349.84 Q934.19 1341.82 934.19 1325.83 Q934.19 1309.79 930.075 1301.82 Q926.013 1293.8 917.836 1293.8 M917.836 1285.47 Q930.909 1285.47 937.784 1295.83 Q944.711 1306.15 944.711 1325.83 Q944.711 1345.47 937.784 1355.83 Q930.909 1366.15 917.836 1366.15 Q904.763 1366.15 897.836 1355.83 Q890.961 1345.47 890.961 1325.83 Q890.961 1306.15 897.836 1295.83 Q904.763 1285.47 917.836 1285.47 Z" fill="#000000" fill-rule="evenodd" fill-opacity="1" /><path clip-path="url(#clip310)" d="M985.7 1293.8 Q977.575 1293.8 973.46 1301.82 Q969.398 1309.79 969.398 1325.83 Q969.398 1341.82 973.46 1349.84 Q977.575 1357.81 985.7 1357.81 Q993.877 1357.81 997.939 1349.84 Q1002.05 1341.82 1002.05 1325.83 Q1002.05 1309.79 997.939 1301.82 Q993.877 1293.8 985.7 1293.8 M985.7 1285.47 Q998.773 1285.47 1005.65 1295.83 Q1012.57 1306.15 1012.57 1325.83 Q1012.57 1345.47 1005.65 1355.83 Q998.773 1366.15 985.7 1366.15 Q972.627 1366.15 965.7 1355.83 Q958.825 1345.47 958.825 1325.83 Q958.825 1306.15 965.7 1295.83 Q972.627 1285.47 985.7 1285.47 Z" fill="#000000" fill-rule="evenodd" fill-opacity="1" /><path clip-path="url(#clip310)" d="M1224.92 1355.78 L1242.11 1355.78 L1242.11 1296.46 L1223.41 1300.21 L1223.41 1290.63 L1242 1286.88 L1252.52 1286.88 L1252.52 1355.78 L1269.71 1355.78 L1269.71 1364.64 L1224.92 1364.64 L1224.92 1355.78 Z" fill="#000000" fill-rule="evenodd" fill-opacity="1" /><path clip-path="url(#clip310)" d="M1313.46 1293.8 Q1305.33 1293.8 1301.22 1301.82 Q1297.16 1309.79 1297.16 1325.83 Q1297.16 1341.82 1301.22 1349.84 Q1305.33 1357.81 1313.46 1357.81 Q1321.64 1357.81 1325.7 1349.84 Q1329.81 1341.82 1329.81 1325.83 Q1329.81 1309.79 1325.7 1301.82 Q1321.64 1293.8 1313.46 1293.8 M1313.46 1285.47 Q1326.53 1285.47 1333.41 1295.83 Q1340.33 1306.15 1340.33 1325.83 Q1340.33 1345.47 1333.41 1355.83 Q1326.53 1366.15 1313.46 1366.15 Q1300.39 1366.15 1293.46 1355.83 Q1286.58 1345.47 1286.58 1325.83 Q1286.58 1306.15 1293.46 1295.83 Q1300.39 1285.47 1313.46 1285.47 Z" fill="#000000" fill-rule="evenodd" fill-opacity="1" /><path clip-path="url(#clip310)" d="M1381.32 1293.8 Q1373.2 1293.8 1369.08 1301.82 Q1365.02 1309.79 1365.02 1325.83 Q1365.02 1341.82 1369.08 1349.84 Q1373.2 1357.81 1381.32 1357.81 Q1389.5 1357.81 1393.56 1349.84 Q1397.68 1341.82 1397.68 1325.83 Q1397.68 1309.79 1393.56 1301.82 Q1389.5 1293.8 1381.32 1293.8 M1381.32 1285.47 Q1394.4 1285.47 1401.27 1295.83 Q1408.2 1306.15 1408.2 1325.83 Q1408.2 1345.47 1401.27 1355.83 Q1394.4 1366.15 1381.32 1366.15 Q1368.25 1366.15 1361.32 1355.83 Q1354.45 1345.47 1354.45 1325.83 Q1354.45 1306.15 1361.32 1295.83 Q1368.25 1285.47 1381.32 1285.47 Z" fill="#000000" fill-rule="evenodd" fill-opacity="1" /><path clip-path="url(#clip310)" d="M1449.19 1293.8 Q1441.06 1293.8 1436.95 1301.82 Q1432.89 1309.79 1432.89 1325.83 Q1432.89 1341.82 1436.95 1349.84 Q1441.06 1357.81 1449.19 1357.81 Q1457.36 1357.81 1461.43 1349.84 Q1465.54 1341.82 1465.54 1325.83 Q1465.54 1309.79 1461.43 1301.82 Q1457.36 1293.8 1449.19 1293.8 M1449.19 1285.47 Q1462.26 1285.47 1469.14 1295.83 Q1476.06 1306.15 1476.06 1325.83 Q1476.06 1345.47 1469.14 1355.83 Q1462.26 1366.15 1449.19 1366.15 Q1436.11 1366.15 1429.19 1355.83 Q1422.31 1345.47 1422.31 1325.83 Q1422.31 1306.15 1429.19 1295.83 Q1436.11 1285.47 1449.19 1285.47 Z" fill="#000000" fill-rule="evenodd" fill-opacity="1" /><path clip-path="url(#clip310)" d="M1656.22 1355.78 L1673.41 1355.78 L1673.41 1296.46 L1654.71 1300.21 L1654.71 1290.63 L1673.3 1286.88 L1683.82 1286.88 L1683.82 1355.78 L1701.01 1355.78 L1701.01 1364.64 L1656.22 1364.64 L1656.22 1355.78 Z" fill="#000000" fill-rule="evenodd" fill-opacity="1" /><path clip-path="url(#clip310)" d="M1722.36 1286.88 L1763.67 1286.88 L1763.67 1295.73 L1732 1295.73 L1732 1314.79 Q1734.29 1314.01 1736.58 1313.65 Q1738.87 1313.23 1741.17 1313.23 Q1754.19 1313.23 1761.79 1320.37 Q1769.4 1327.5 1769.4 1339.69 Q1769.4 1352.24 1761.58 1359.22 Q1753.77 1366.15 1739.55 1366.15 Q1734.66 1366.15 1729.55 1365.31 Q1724.5 1364.48 1719.08 1362.81 L1719.08 1352.24 Q1723.77 1354.79 1728.77 1356.04 Q1733.77 1357.29 1739.34 1357.29 Q1748.35 1357.29 1753.61 1352.55 Q1758.87 1347.81 1758.87 1339.69 Q1758.87 1331.56 1753.61 1326.82 Q1748.35 1322.08 1739.34 1322.08 Q1735.12 1322.08 1730.91 1323.02 Q1726.74 1323.96 1722.36 1325.94 L1722.36 1286.88 Z" fill="#000000" fill-rule="evenodd" fill-opacity="1" /><path clip-path="url(#clip310)" d="M1812.62 1293.8 Q1804.5 1293.8 1800.38 1301.82 Q1796.32 1309.79 1796.32 1325.83 Q1796.32 1341.82 1800.38 1349.84 Q1804.5 1357.81 1812.62 1357.81 Q1820.8 1357.81 1824.86 1349.84 Q1828.98 1341.82 1828.98 1325.83 Q1828.98 1309.79 1824.86 1301.82 Q1820.8 1293.8 1812.62 1293.8 M1812.62 1285.47 Q1825.7 1285.47 1832.57 1295.83 Q1839.5 1306.15 1839.5 1325.83 Q1839.5 1345.47 1832.57 1355.83 Q1825.7 1366.15 1812.62 1366.15 Q1799.55 1366.15 1792.62 1355.83 Q1785.75 1345.47 1785.75 1325.83 Q1785.75 1306.15 1792.62 1295.83 Q1799.55 1285.47 1812.62 1285.47 Z" fill="#000000" fill-rule="evenodd" fill-opacity="1" /><path clip-path="url(#clip310)" d="M1880.49 1293.8 Q1872.36 1293.8 1868.25 1301.82 Q1864.19 1309.79 1864.19 1325.83 Q1864.19 1341.82 1868.25 1349.84 Q1872.36 1357.81 1880.49 1357.81 Q1888.67 1357.81 1892.73 1349.84 Q1896.84 1341.82 1896.84 1325.83 Q1896.84 1309.79 1892.73 1301.82 Q1888.67 1293.8 1880.49 1293.8 M1880.49 1285.47 Q1893.56 1285.47 1900.44 1295.83 Q1907.36 1306.15 1907.36 1325.83 Q1907.36 1345.47 1900.44 1355.83 Q1893.56 1366.15 1880.49 1366.15 Q1867.42 1366.15 1860.49 1355.83 Q1853.61 1345.47 1853.61 1325.83 Q1853.61 1306.15 1860.49 1295.83 Q1867.42 1285.47 1880.49 1285.47 Z" fill="#000000" fill-rule="evenodd" fill-opacity="1" /><path clip-path="url(#clip310)" d="M2096.71 1355.78 L2133.43 1355.78 L2133.43 1364.64 L2084.06 1364.64 L2084.06 1355.78 Q2090.05 1349.58 2100.36 1339.17 Q2110.72 1328.7 2113.38 1325.68 Q2118.43 1320 2120.41 1316.09 Q2122.44 1312.14 2122.44 1308.33 Q2122.44 1302.14 2118.07 1298.23 Q2113.74 1294.32 2106.76 1294.32 Q2101.82 1294.32 2096.3 1296.04 Q2090.83 1297.76 2084.58 1301.25 L2084.58 1290.63 Q2090.93 1288.07 2096.45 1286.77 Q2101.97 1285.47 2106.56 1285.47 Q2118.64 1285.47 2125.83 1291.51 Q2133.01 1297.55 2133.01 1307.66 Q2133.01 1312.45 2131.19 1316.77 Q2129.42 1321.04 2124.68 1326.88 Q2123.38 1328.39 2116.4 1335.63 Q2109.42 1342.81 2096.71 1355.78 Z" fill="#000000" fill-rule="evenodd" fill-opacity="1" /><path clip-path="url(#clip310)" d="M2178.01 1293.8 Q2169.89 1293.8 2165.77 1301.82 Q2161.71 1309.79 2161.71 1325.83 Q2161.71 1341.82 2165.77 1349.84 Q2169.89 1357.81 2178.01 1357.81 Q2186.19 1357.81 2190.25 1349.84 Q2194.37 1341.82 2194.37 1325.83 Q2194.37 1309.79 2190.25 1301.82 Q2186.19 1293.8 2178.01 1293.8 M2178.01 1285.47 Q2191.09 1285.47 2197.96 1295.83 Q2204.89 1306.15 2204.89 1325.83 Q2204.89 1345.47 2197.96 1355.83 Q2191.09 1366.15 2178.01 1366.15 Q2164.94 1366.15 2158.01 1355.83 Q2151.14 1345.47 2151.14 1325.83 Q2151.14 1306.15 2158.01 1295.83 Q2164.94 1285.47 2178.01 1285.47 Z" fill="#000000" fill-rule="evenodd" fill-opacity="1" /><path clip-path="url(#clip310)" d="M2245.88 1293.8 Q2237.75 1293.8 2233.64 1301.82 Q2229.58 1309.79 2229.58 1325.83 Q2229.58 1341.82 2233.64 1349.84 Q2237.75 1357.81 2245.88 1357.81 Q2254.05 1357.81 2258.12 1349.84 Q2262.23 1341.82 2262.23 1325.83 Q2262.23 1309.79 2258.12 1301.82 Q2254.05 1293.8 2245.88 1293.8 M2245.88 1285.47 Q2258.95 1285.47 2265.83 1295.83 Q2272.75 1306.15 2272.75 1325.83 Q2272.75 1345.47 2265.83 1355.83 Q2258.95 1366.15 2245.88 1366.15 Q2232.8 1366.15 2225.88 1355.83 Q2219 1345.47 2219 1325.83 Q2219 1306.15 2225.88 1295.83 Q2232.8 1285.47 2245.88 1285.47 Z" fill="#000000" fill-rule="evenodd" fill-opacity="1" /><path clip-path="url(#clip310)" d="M2313.74 1293.8 Q2305.62 1293.8 2301.5 1301.82 Q2297.44 1309.79 2297.44 1325.83 Q2297.44 1341.82 2301.5 1349.84 Q2305.62 1357.81 2313.74 1357.81 Q2321.92 1357.81 2325.98 1349.84 Q2330.1 1341.82 2330.1 1325.83 Q2330.1 1309.79 2325.98 1301.82 Q2321.92 1293.8 2313.74 1293.8 M2313.74 1285.47 Q2326.81 1285.47 2333.69 1295.83 Q2340.62 1306.15 2340.62 1325.83 Q2340.62 1345.47 2333.69 1355.83 Q2326.81 1366.15 2313.74 1366.15 Q2300.67 1366.15 2293.74 1355.83 Q2286.87 1345.47 2286.87 1325.83 Q2286.87 1306.15 2293.74 1295.83 Q2300.67 1285.47 2313.74 1285.47 Z" fill="#000000" fill-rule="evenodd" fill-opacity="1" /><path clip-path="url(#clip310)" d="M2528.01 1355.78 L2564.73 1355.78 L2564.73 1364.64 L2515.36 1364.64 L2515.36 1355.78 Q2521.35 1349.58 2531.66 1339.17 Q2542.02 1328.7 2544.68 1325.68 Q2549.73 1320 2551.71 1316.09 Q2553.74 1312.14 2553.74 1308.33 Q2553.74 1302.14 2549.37 1298.23 Q2545.04 1294.32 2538.06 1294.32 Q2533.12 1294.32 2527.6 1296.04 Q2522.13 1297.76 2515.88 1301.25 L2515.88 1290.63 Q2522.23 1288.07 2527.75 1286.77 Q2533.27 1285.47 2537.86 1285.47 Q2549.94 1285.47 2557.13 1291.51 Q2564.31 1297.55 2564.31 1307.66 Q2564.31 1312.45 2562.49 1316.77 Q2560.72 1321.04 2555.98 1326.88 Q2554.68 1328.39 2547.7 1335.63 Q2540.72 1342.81 2528.01 1355.78 Z" fill="#000000" fill-rule="evenodd" fill-opacity="1" /><path clip-path="url(#clip310)" d="M2586.92 1286.88 L2628.22 1286.88 L2628.22 1295.73 L2596.55 1295.73 L2596.55 1314.79 Q2598.85 1314.01 2601.14 1313.65 Q2603.43 1313.23 2605.72 1313.23 Q2618.74 1313.23 2626.35 1320.37 Q2633.95 1327.5 2633.95 1339.69 Q2633.95 1352.24 2626.14 1359.22 Q2618.32 1366.15 2604.11 1366.15 Q2599.21 1366.15 2594.11 1365.31 Q2589.05 1364.48 2583.64 1362.81 L2583.64 1352.24 Q2588.32 1354.79 2593.32 1356.04 Q2598.32 1357.29 2603.9 1357.29 Q2612.91 1357.29 2618.17 1352.55 Q2623.43 1347.81 2623.43 1339.69 Q2623.43 1331.56 2618.17 1326.82 Q2612.91 1322.08 2603.9 1322.08 Q2599.68 1322.08 2595.46 1323.02 Q2591.29 1323.96 2586.92 1325.94 L2586.92 1286.88 Z" fill="#000000" fill-rule="evenodd" fill-opacity="1" /><path clip-path="url(#clip310)" d="M2677.18 1293.8 Q2669.05 1293.8 2664.94 1301.82 Q2660.88 1309.79 2660.88 1325.83 Q2660.88 1341.82 2664.94 1349.84 Q2669.05 1357.81 2677.18 1357.81 Q2685.36 1357.81 2689.42 1349.84 Q2693.53 1341.82 2693.53 1325.83 Q2693.53 1309.79 2689.42 1301.82 Q2685.36 1293.8 2677.18 1293.8 M2677.18 1285.47 Q2690.25 1285.47 2697.13 1295.83 Q2704.05 1306.15 2704.05 1325.83 Q2704.05 1345.47 2697.13 1355.83 Q2690.25 1366.15 2677.18 1366.15 Q2664.11 1366.15 2657.18 1355.83 Q2650.3 1345.47 2650.3 1325.83 Q2650.3 1306.15 2657.18 1295.83 Q2664.11 1285.47 2677.18 1285.47 Z" fill="#000000" fill-rule="evenodd" fill-opacity="1" /><path clip-path="url(#clip310)" d="M2745.04 1293.8 Q2736.92 1293.8 2732.8 1301.82 Q2728.74 1309.79 2728.74 1325.83 Q2728.74 1341.82 2732.8 1349.84 Q2736.92 1357.81 2745.04 1357.81 Q2753.22 1357.81 2757.28 1349.84 Q2761.4 1341.82 2761.4 1325.83 Q2761.4 1309.79 2757.28 1301.82 Q2753.22 1293.8 2745.04 1293.8 M2745.04 1285.47 Q2758.12 1285.47 2764.99 1295.83 Q2771.92 1306.15 2771.92 1325.83 Q2771.92 1345.47 2764.99 1355.83 Q2758.12 1366.15 2745.04 1366.15 Q2731.97 1366.15 2725.04 1355.83 Q2718.17 1345.47 2718.17 1325.83 Q2718.17 1306.15 2725.04 1295.83 Q2731.97 1285.47 2745.04 1285.47 Z" fill="#000000" fill-rule="evenodd" fill-opacity="1" /><path clip-path="url(#clip310)" d="M1337.98 1420.43 L1337.98 1429.06 Q1333.85 1425.21 1329.15 1423.31 Q1324.49 1421.4 1319.23 1421.4 Q1308.86 1421.4 1303.35 1427.76 Q1297.84 1434.08 1297.84 1446.07 Q1297.84 1458.02 1303.35 1464.38 Q1308.86 1470.7 1319.23 1470.7 Q1324.49 1470.7 1329.15 1468.8 Q1333.85 1466.89 1337.98 1463.05 L1337.98 1471.59 Q1333.69 1474.51 1328.87 1475.97 Q1324.09 1477.43 1318.74 1477.43 Q1305.01 1477.43 1297.11 1469.04 Q1289.21 1460.62 1289.21 1446.07 Q1289.21 1431.49 1297.11 1423.1 Q1305.01 1414.68 1318.74 1414.68 Q1324.17 1414.68 1328.95 1416.14 Q1333.77 1417.55 1337.98 1420.43 Z" fill="#000000" fill-rule="evenodd" fill-opacity="1" /><path clip-path="url(#clip310)" d="M1370.92 1453.45 Q1361.88 1453.45 1358.4 1455.51 Q1354.91 1457.58 1354.91 1462.56 Q1354.91 1466.53 1357.51 1468.88 Q1360.14 1471.19 1364.64 1471.19 Q1370.83 1471.19 1374.56 1466.81 Q1378.33 1462.4 1378.33 1455.11 L1378.33 1453.45 L1370.92 1453.45 M1385.78 1450.37 L1385.78 1476.25 L1378.33 1476.25 L1378.33 1469.37 Q1375.78 1473.5 1371.97 1475.48 Q1368.16 1477.43 1362.65 1477.43 Q1355.68 1477.43 1351.55 1473.54 Q1347.46 1469.61 1347.46 1463.05 Q1347.46 1455.39 1352.57 1451.5 Q1357.71 1447.61 1367.88 1447.61 L1378.33 1447.61 L1378.33 1446.88 Q1378.33 1441.74 1374.93 1438.94 Q1371.56 1436.11 1365.45 1436.11 Q1361.56 1436.11 1357.87 1437.04 Q1354.19 1437.97 1350.78 1439.83 L1350.78 1432.95 Q1354.87 1431.37 1358.72 1430.6 Q1362.57 1429.79 1366.22 1429.79 Q1376.06 1429.79 1380.92 1434.89 Q1385.78 1440 1385.78 1450.37 Z" fill="#000000" fill-rule="evenodd" fill-opacity="1" /><path clip-path="url(#clip310)" d="M1408.35 1469.45 L1408.35 1493.51 L1400.85 1493.51 L1400.85 1430.88 L1408.35 1430.88 L1408.35 1437.77 Q1410.7 1433.72 1414.26 1431.77 Q1417.87 1429.79 1422.85 1429.79 Q1431.11 1429.79 1436.26 1436.35 Q1441.44 1442.91 1441.44 1453.61 Q1441.44 1464.3 1436.26 1470.86 Q1431.11 1477.43 1422.85 1477.43 Q1417.87 1477.43 1414.26 1475.48 Q1410.7 1473.5 1408.35 1469.45 M1433.7 1453.61 Q1433.7 1445.38 1430.3 1440.73 Q1426.94 1436.03 1421.03 1436.03 Q1415.11 1436.03 1411.71 1440.73 Q1408.35 1445.38 1408.35 1453.61 Q1408.35 1461.83 1411.71 1466.53 Q1415.11 1471.19 1421.03 1471.19 Q1426.94 1471.19 1430.3 1466.53 Q1433.7 1461.83 1433.7 1453.61 Z" fill="#000000" fill-rule="evenodd" fill-opacity="1" /><path clip-path="url(#clip310)" d="M1474.42 1453.45 Q1465.38 1453.45 1461.9 1455.51 Q1458.42 1457.58 1458.42 1462.56 Q1458.42 1466.53 1461.01 1468.88 Q1463.64 1471.19 1468.14 1471.19 Q1474.34 1471.19 1478.06 1466.81 Q1481.83 1462.4 1481.83 1455.11 L1481.83 1453.45 L1474.42 1453.45 M1489.28 1450.37 L1489.28 1476.25 L1481.83 1476.25 L1481.83 1469.37 Q1479.28 1473.5 1475.47 1475.48 Q1471.66 1477.43 1466.15 1477.43 Q1459.18 1477.43 1455.05 1473.54 Q1450.96 1469.61 1450.96 1463.05 Q1450.96 1455.39 1456.07 1451.5 Q1461.21 1447.61 1471.38 1447.61 L1481.83 1447.61 L1481.83 1446.88 Q1481.83 1441.74 1478.43 1438.94 Q1475.06 1436.11 1468.95 1436.11 Q1465.06 1436.11 1461.37 1437.04 Q1457.69 1437.97 1454.28 1439.83 L1454.28 1432.95 Q1458.37 1431.37 1462.22 1430.6 Q1466.07 1429.79 1469.72 1429.79 Q1479.56 1429.79 1484.42 1434.89 Q1489.28 1440 1489.28 1450.37 Z" fill="#000000" fill-rule="evenodd" fill-opacity="1" /><path clip-path="url(#clip310)" d="M1537.29 1432.62 L1537.29 1439.59 Q1534.13 1437.85 1530.93 1437 Q1527.77 1436.11 1524.53 1436.11 Q1517.27 1436.11 1513.26 1440.73 Q1509.25 1445.3 1509.25 1453.61 Q1509.25 1461.91 1513.26 1466.53 Q1517.27 1471.11 1524.53 1471.11 Q1527.77 1471.11 1530.93 1470.26 Q1534.13 1469.37 1537.29 1467.62 L1537.29 1474.51 Q1534.17 1475.97 1530.8 1476.7 Q1527.48 1477.43 1523.72 1477.43 Q1513.47 1477.43 1507.43 1470.99 Q1501.4 1464.55 1501.4 1453.61 Q1501.4 1442.51 1507.47 1436.15 Q1513.59 1429.79 1524.2 1429.79 Q1527.65 1429.79 1530.93 1430.52 Q1534.21 1431.21 1537.29 1432.62 Z" fill="#000000" fill-rule="evenodd" fill-opacity="1" /><path clip-path="url(#clip310)" d="M1550.25 1430.88 L1557.7 1430.88 L1557.7 1476.25 L1550.25 1476.25 L1550.25 1430.88 M1550.25 1413.22 L1557.7 1413.22 L1557.7 1422.66 L1550.25 1422.66 L1550.25 1413.22 Z" fill="#000000" fill-rule="evenodd" fill-opacity="1" /><path clip-path="url(#clip310)" d="M1580.67 1418 L1580.67 1430.88 L1596.02 1430.88 L1596.02 1436.67 L1580.67 1436.67 L1580.67 1461.3 Q1580.67 1466.85 1582.17 1468.43 Q1583.71 1470.01 1588.37 1470.01 L1596.02 1470.01 L1596.02 1476.25 L1588.37 1476.25 Q1579.74 1476.25 1576.46 1473.05 Q1573.18 1469.81 1573.18 1461.3 L1573.18 1436.67 L1567.71 1436.67 L1567.71 1430.88 L1573.18 1430.88 L1573.18 1418 L1580.67 1418 Z" fill="#000000" fill-rule="evenodd" fill-opacity="1" /><path clip-path="url(#clip310)" d="M1624.7 1480.47 Q1621.55 1488.57 1618.55 1491.04 Q1615.55 1493.51 1610.53 1493.51 L1604.57 1493.51 L1604.57 1487.27 L1608.95 1487.27 Q1612.03 1487.27 1613.73 1485.81 Q1615.43 1484.35 1617.49 1478.93 L1618.83 1475.52 L1600.48 1430.88 L1608.38 1430.88 L1622.56 1466.37 L1636.74 1430.88 L1644.64 1430.88 L1624.7 1480.47 Z" fill="#000000" fill-rule="evenodd" fill-opacity="1" /><path clip-path="url(#clip310)" d="M1699.2 1413.3 Q1693.77 1422.62 1691.14 1431.73 Q1688.51 1440.85 1688.51 1450.2 Q1688.51 1459.56 1691.14 1468.76 Q1693.81 1477.91 1699.2 1487.19 L1692.72 1487.19 Q1686.64 1477.67 1683.61 1468.47 Q1680.61 1459.28 1680.61 1450.2 Q1680.61 1441.17 1683.61 1432.02 Q1686.6 1422.86 1692.72 1413.3 L1699.2 1413.3 Z" fill="#000000" fill-rule="evenodd" fill-opacity="1" /><path clip-path="url(#clip310)" d="M1713.99 1415.77 L1726.18 1415.77 L1741.61 1456.93 L1757.13 1415.77 L1769.32 1415.77 L1769.32 1476.25 L1761.34 1476.25 L1761.34 1423.14 L1745.75 1464.63 L1737.52 1464.63 L1721.93 1423.14 L1721.93 1476.25 L1713.99 1476.25 L1713.99 1415.77 Z" fill="#000000" fill-rule="evenodd" fill-opacity="1" /><path clip-path="url(#clip310)" d="M1780.18 1415.77 L1788.44 1415.77 L1801.16 1466.89 L1813.84 1415.77 L1823.04 1415.77 L1835.76 1466.89 L1848.44 1415.77 L1856.74 1415.77 L1841.55 1476.25 L1831.26 1476.25 L1818.5 1423.75 L1805.62 1476.25 L1795.33 1476.25 L1780.18 1415.77 Z" fill="#000000" fill-rule="evenodd" fill-opacity="1" /><path clip-path="url(#clip310)" d="M1866.1 1413.3 L1872.58 1413.3 Q1878.66 1422.86 1881.65 1432.02 Q1884.69 1441.17 1884.69 1450.2 Q1884.69 1459.28 1881.65 1468.47 Q1878.66 1477.67 1872.58 1487.19 L1866.1 1487.19 Q1871.49 1477.91 1874.12 1468.76 Q1876.79 1459.56 1876.79 1450.2 Q1876.79 1440.85 1874.12 1431.73 Q1871.49 1422.62 1866.1 1413.3 Z" fill="#000000" fill-rule="evenodd" fill-opacity="1" /><polyline clip-path="url(#clip310)" style="stroke:#000000; stroke-linecap:round; stroke-linejoin:round; stroke-width:4; stroke-opacity:1; fill:none" points="
  421.145,1245.04 421.145,174.078 
  "/>
<polyline clip-path="url(#clip310)" style="stroke:#000000; stroke-linecap:round; stroke-linejoin:round; stroke-width:4; stroke-opacity:1; fill:none" points="
  421.145,1214.73 440.043,1214.73 
  "/>
<polyline clip-path="url(#clip310)" style="stroke:#000000; stroke-linecap:round; stroke-linejoin:round; stroke-width:4; stroke-opacity:1; fill:none" points="
  421.145,995.087 440.043,995.087 
  "/>
<polyline clip-path="url(#clip310)" style="stroke:#000000; stroke-linecap:round; stroke-linejoin:round; stroke-width:4; stroke-opacity:1; fill:none" points="
  421.145,775.449 440.043,775.449 
  "/>
<polyline clip-path="url(#clip310)" style="stroke:#000000; stroke-linecap:round; stroke-linejoin:round; stroke-width:4; stroke-opacity:1; fill:none" points="
  421.145,555.81 440.043,555.81 
  "/>
<polyline clip-path="url(#clip310)" style="stroke:#000000; stroke-linecap:round; stroke-linejoin:round; stroke-width:4; stroke-opacity:1; fill:none" points="
  421.145,336.171 440.043,336.171 
  "/>
<path clip-path="url(#clip310)" d="M352.27 1182.77 Q344.145 1182.77 340.031 1190.79 Q335.968 1198.76 335.968 1214.8 Q335.968 1230.79 340.031 1238.81 Q344.145 1246.78 352.27 1246.78 Q360.447 1246.78 364.51 1238.81 Q368.624 1230.79 368.624 1214.8 Q368.624 1198.76 364.51 1190.79 Q360.447 1182.77 352.27 1182.77 M352.27 1174.44 Q365.343 1174.44 372.218 1184.8 Q379.145 1195.12 379.145 1214.8 Q379.145 1234.44 372.218 1244.8 Q365.343 1255.12 352.27 1255.12 Q339.197 1255.12 332.27 1244.8 Q325.395 1234.44 325.395 1214.8 Q325.395 1195.12 332.27 1184.8 Q339.197 1174.44 352.27 1174.44 Z" fill="#000000" fill-rule="evenodd" fill-opacity="1" /><path clip-path="url(#clip310)" d="M332.114 956.207 L373.416 956.207 L373.416 965.061 L341.749 965.061 L341.749 984.124 Q344.041 983.343 346.333 982.978 Q348.624 982.561 350.916 982.561 Q363.937 982.561 371.541 989.697 Q379.145 996.832 379.145 1009.02 Q379.145 1021.57 371.333 1028.55 Q363.52 1035.48 349.302 1035.48 Q344.406 1035.48 339.302 1034.64 Q334.25 1033.81 328.833 1032.14 L328.833 1021.57 Q333.52 1024.12 338.52 1025.37 Q343.52 1026.62 349.093 1026.62 Q358.104 1026.62 363.364 1021.88 Q368.624 1017.14 368.624 1009.02 Q368.624 1000.89 363.364 996.155 Q358.104 991.415 349.093 991.415 Q344.874 991.415 340.656 992.353 Q336.489 993.29 332.114 995.27 L332.114 956.207 Z" fill="#000000" fill-rule="evenodd" fill-opacity="1" /><path clip-path="url(#clip310)" d="M263.729 805.474 L280.916 805.474 L280.916 746.152 L262.219 749.902 L262.219 740.319 L280.812 736.569 L291.333 736.569 L291.333 805.474 L308.521 805.474 L308.521 814.329 L263.729 814.329 L263.729 805.474 Z" fill="#000000" fill-rule="evenodd" fill-opacity="1" /><path clip-path="url(#clip310)" d="M352.27 743.496 Q344.145 743.496 340.031 751.516 Q335.968 759.485 335.968 775.527 Q335.968 791.516 340.031 799.537 Q344.145 807.506 352.27 807.506 Q360.447 807.506 364.51 799.537 Q368.624 791.516 368.624 775.527 Q368.624 759.485 364.51 751.516 Q360.447 743.496 352.27 743.496 M352.27 735.162 Q365.343 735.162 372.218 745.527 Q379.145 755.839 379.145 775.527 Q379.145 795.162 372.218 805.527 Q365.343 815.839 352.27 815.839 Q339.197 815.839 332.27 805.527 Q325.395 795.162 325.395 775.527 Q325.395 755.839 332.27 745.527 Q339.197 735.162 352.27 735.162 Z" fill="#000000" fill-rule="evenodd" fill-opacity="1" /><path clip-path="url(#clip310)" d="M265.969 585.836 L283.156 585.836 L283.156 526.513 L264.458 530.263 L264.458 520.68 L283.052 516.93 L293.573 516.93 L293.573 585.836 L310.76 585.836 L310.76 594.69 L265.969 594.69 L265.969 585.836 Z" fill="#000000" fill-rule="evenodd" fill-opacity="1" /><path clip-path="url(#clip310)" d="M332.114 516.93 L373.416 516.93 L373.416 525.784 L341.749 525.784 L341.749 544.846 Q344.041 544.065 346.333 543.701 Q348.624 543.284 350.916 543.284 Q363.937 543.284 371.541 550.419 Q379.145 557.555 379.145 569.742 Q379.145 582.294 371.333 589.273 Q363.52 596.2 349.302 596.2 Q344.406 596.2 339.302 595.367 Q334.25 594.534 328.833 592.867 L328.833 582.294 Q333.52 584.846 338.52 586.096 Q343.52 587.346 349.093 587.346 Q358.104 587.346 363.364 582.607 Q368.624 577.867 368.624 569.742 Q368.624 561.617 363.364 556.878 Q358.104 552.138 349.093 552.138 Q344.874 552.138 340.656 553.076 Q336.489 554.013 332.114 555.992 L332.114 516.93 Z" fill="#000000" fill-rule="evenodd" fill-opacity="1" /><path clip-path="url(#clip310)" d="M270.969 366.197 L307.687 366.197 L307.687 375.051 L258.312 375.051 L258.312 366.197 Q264.302 359.999 274.614 349.583 Q284.979 339.114 287.635 336.093 Q292.687 330.416 294.666 326.51 Q296.698 322.551 296.698 318.749 Q296.698 312.552 292.323 308.645 Q288 304.739 281.021 304.739 Q276.073 304.739 270.552 306.458 Q265.083 308.177 258.833 311.666 L258.833 301.041 Q265.187 298.489 270.708 297.187 Q276.229 295.885 280.812 295.885 Q292.896 295.885 300.083 301.927 Q307.271 307.968 307.271 318.072 Q307.271 322.864 305.448 327.187 Q303.677 331.458 298.937 337.291 Q297.635 338.801 290.656 346.041 Q283.677 353.228 270.969 366.197 Z" fill="#000000" fill-rule="evenodd" fill-opacity="1" /><path clip-path="url(#clip310)" d="M352.27 304.218 Q344.145 304.218 340.031 312.239 Q335.968 320.208 335.968 336.249 Q335.968 352.239 340.031 360.26 Q344.145 368.228 352.27 368.228 Q360.447 368.228 364.51 360.26 Q368.624 352.239 368.624 336.249 Q368.624 320.208 364.51 312.239 Q360.447 304.218 352.27 304.218 M352.27 295.885 Q365.343 295.885 372.218 306.249 Q379.145 316.562 379.145 336.249 Q379.145 355.885 372.218 366.249 Q365.343 376.562 352.27 376.562 Q339.197 376.562 332.27 366.249 Q325.395 355.885 325.395 336.249 Q325.395 316.562 332.27 306.249 Q339.197 295.885 352.27 295.885 Z" fill="#000000" fill-rule="evenodd" fill-opacity="1" /><path clip-path="url(#clip310)" d="M149.784 1148.68 L149.784 1136.48 L190.942 1121.05 L149.784 1105.53 L149.784 1093.34 L210.264 1093.34 L210.264 1101.32 L157.157 1101.32 L198.638 1116.92 L198.638 1125.14 L157.157 1140.74 L210.264 1140.74 L210.264 1148.68 L149.784 1148.68 Z" fill="#000000" fill-rule="evenodd" fill-opacity="1" /><path clip-path="url(#clip310)" d="M187.458 1056.8 Q187.458 1065.83 189.524 1069.32 Q191.59 1072.8 196.572 1072.8 Q200.542 1072.8 202.892 1070.21 Q205.201 1067.58 205.201 1063.08 Q205.201 1056.88 200.826 1053.15 Q196.41 1049.39 189.119 1049.39 L187.458 1049.39 L187.458 1056.8 M184.379 1041.93 L210.264 1041.93 L210.264 1049.39 L203.378 1049.39 Q207.51 1051.94 209.495 1055.75 Q211.439 1059.56 211.439 1065.06 Q211.439 1072.03 207.55 1076.16 Q203.621 1080.26 197.058 1080.26 Q189.402 1080.26 185.513 1075.15 Q181.625 1070.01 181.625 1059.84 L181.625 1049.39 L180.895 1049.39 Q175.751 1049.39 172.956 1052.79 Q170.12 1056.15 170.12 1062.27 Q170.12 1066.16 171.052 1069.84 Q171.983 1073.53 173.847 1076.93 L166.96 1076.93 Q165.38 1072.84 164.611 1068.99 Q163.801 1065.15 163.801 1061.5 Q163.801 1051.66 168.905 1046.79 Q174.009 1041.93 184.379 1041.93 Z" fill="#000000" fill-rule="evenodd" fill-opacity="1" /><path clip-path="url(#clip310)" d="M171.862 1000.29 Q171.133 1001.55 170.809 1003.04 Q170.444 1004.5 170.444 1006.29 Q170.444 1012.61 174.576 1016.01 Q178.667 1019.37 186.364 1019.37 L210.264 1019.37 L210.264 1026.86 L164.894 1026.86 L164.894 1019.37 L171.943 1019.37 Q167.811 1017.02 165.826 1013.25 Q163.801 1009.49 163.801 1004.1 Q163.801 1003.33 163.922 1002.4 Q164.003 1001.47 164.206 1000.33 L171.862 1000.29 Z" fill="#000000" fill-rule="evenodd" fill-opacity="1" /><path clip-path="url(#clip310)" d="M187.053 964.075 Q178.951 964.075 174.495 967.438 Q170.039 970.759 170.039 976.795 Q170.039 982.79 174.495 986.153 Q178.951 989.474 187.053 989.474 Q195.114 989.474 199.57 986.153 Q204.026 982.79 204.026 976.795 Q204.026 970.759 199.57 967.438 Q195.114 964.075 187.053 964.075 M204.634 956.622 Q216.219 956.622 221.85 961.766 Q227.521 966.911 227.521 977.524 Q227.521 981.454 226.914 984.937 Q226.347 988.421 225.131 991.702 L217.88 991.702 Q219.663 988.421 220.513 985.221 Q221.364 982.021 221.364 978.699 Q221.364 971.367 217.516 967.721 Q213.708 964.075 205.97 964.075 L202.284 964.075 Q206.295 966.384 208.279 969.99 Q210.264 973.595 210.264 978.618 Q210.264 986.963 203.905 992.067 Q197.545 997.171 187.053 997.171 Q176.52 997.171 170.16 992.067 Q163.801 986.963 163.801 978.618 Q163.801 973.595 165.786 969.99 Q167.77 966.384 171.781 964.075 L164.894 964.075 L164.894 956.622 L204.634 956.622 Z" fill="#000000" fill-rule="evenodd" fill-opacity="1" /><path clip-path="url(#clip310)" d="M164.894 941.269 L164.894 933.815 L210.264 933.815 L210.264 941.269 L164.894 941.269 M147.232 941.269 L147.232 933.815 L156.671 933.815 L156.671 941.269 L147.232 941.269 Z" fill="#000000" fill-rule="evenodd" fill-opacity="1" /><path clip-path="url(#clip310)" d="M182.88 880.505 L210.264 880.505 L210.264 887.959 L183.123 887.959 Q176.682 887.959 173.482 890.47 Q170.282 892.982 170.282 898.005 Q170.282 904.041 174.13 907.525 Q177.979 911.008 184.622 911.008 L210.264 911.008 L210.264 918.503 L164.894 918.503 L164.894 911.008 L171.943 911.008 Q167.851 908.335 165.826 904.73 Q163.801 901.084 163.801 896.344 Q163.801 888.526 168.662 884.516 Q173.482 880.505 182.88 880.505 Z" fill="#000000" fill-rule="evenodd" fill-opacity="1" /><path clip-path="url(#clip310)" d="M187.458 845.019 Q187.458 854.053 189.524 857.537 Q191.59 861.02 196.572 861.02 Q200.542 861.02 202.892 858.428 Q205.201 855.795 205.201 851.298 Q205.201 845.1 200.826 841.373 Q196.41 837.606 189.119 837.606 L187.458 837.606 L187.458 845.019 M184.379 830.152 L210.264 830.152 L210.264 837.606 L203.378 837.606 Q207.51 840.158 209.495 843.966 Q211.439 847.774 211.439 853.283 Q211.439 860.251 207.55 864.383 Q203.621 868.474 197.058 868.474 Q189.402 868.474 185.513 863.37 Q181.625 858.225 181.625 848.057 L181.625 837.606 L180.895 837.606 Q175.751 837.606 172.956 841.009 Q170.12 844.371 170.12 850.488 Q170.12 854.377 171.052 858.063 Q171.983 861.749 173.847 865.152 L166.96 865.152 Q165.38 861.061 164.611 857.212 Q163.801 853.364 163.801 849.718 Q163.801 839.875 168.905 835.013 Q174.009 830.152 184.379 830.152 Z" fill="#000000" fill-rule="evenodd" fill-opacity="1" /><path clip-path="url(#clip310)" d="M147.232 814.799 L147.232 807.346 L210.264 807.346 L210.264 814.799 L147.232 814.799 Z" fill="#000000" fill-rule="evenodd" fill-opacity="1" /><path clip-path="url(#clip310)" d="M154.443 719.765 L163.071 719.765 Q159.223 723.897 157.319 728.596 Q155.415 733.255 155.415 738.521 Q155.415 748.891 161.775 754.4 Q168.095 759.91 180.085 759.91 Q192.035 759.91 198.395 754.4 Q204.715 748.891 204.715 738.521 Q204.715 733.255 202.811 728.596 Q200.907 723.897 197.058 719.765 L205.606 719.765 Q208.523 724.059 209.981 728.88 Q211.439 733.66 211.439 739.007 Q211.439 752.74 203.054 760.639 Q194.628 768.538 180.085 768.538 Q165.502 768.538 157.117 760.639 Q148.691 752.74 148.691 739.007 Q148.691 733.579 150.149 728.799 Q151.567 723.978 154.443 719.765 Z" fill="#000000" fill-rule="evenodd" fill-opacity="1" /><path clip-path="url(#clip310)" d="M170.12 689.87 Q170.12 695.865 174.819 699.349 Q179.478 702.832 187.62 702.832 Q195.762 702.832 200.461 699.389 Q205.12 695.905 205.12 689.87 Q205.12 683.915 200.421 680.431 Q195.722 676.947 187.62 676.947 Q179.559 676.947 174.86 680.431 Q170.12 683.915 170.12 689.87 M163.801 689.87 Q163.801 680.147 170.12 674.598 Q176.439 669.048 187.62 669.048 Q198.76 669.048 205.12 674.598 Q211.439 680.147 211.439 689.87 Q211.439 699.632 205.12 705.182 Q198.76 710.691 187.62 710.691 Q176.439 710.691 170.12 705.182 Q163.801 699.632 163.801 689.87 Z" fill="#000000" fill-rule="evenodd" fill-opacity="1" /><path clip-path="url(#clip310)" d="M166.231 627.769 L173.28 627.769 Q171.659 630.929 170.849 634.332 Q170.039 637.734 170.039 641.38 Q170.039 646.93 171.74 649.725 Q173.442 652.48 176.844 652.48 Q179.437 652.48 180.936 650.495 Q182.394 648.51 183.731 642.515 L184.298 639.962 Q186 632.023 189.119 628.701 Q192.197 625.339 197.747 625.339 Q204.067 625.339 207.753 630.362 Q211.439 635.344 211.439 644.094 Q211.439 647.74 210.71 651.71 Q210.021 655.639 208.604 660.014 L200.907 660.014 Q203.054 655.883 204.148 651.872 Q205.201 647.862 205.201 643.932 Q205.201 638.666 203.418 635.831 Q201.596 632.995 198.314 632.995 Q195.276 632.995 193.656 635.061 Q192.035 637.086 190.537 644.013 L189.929 646.606 Q188.471 653.533 185.473 656.612 Q182.435 659.69 177.169 659.69 Q170.768 659.69 167.284 655.153 Q163.801 650.616 163.801 642.271 Q163.801 638.14 164.408 634.494 Q165.016 630.848 166.231 627.769 Z" fill="#000000" fill-rule="evenodd" fill-opacity="1" /><path clip-path="url(#clip310)" d="M152.012 606.097 L164.894 606.097 L164.894 590.744 L170.687 590.744 L170.687 606.097 L195.317 606.097 Q200.866 606.097 202.446 604.598 Q204.026 603.059 204.026 598.4 L204.026 590.744 L210.264 590.744 L210.264 598.4 Q210.264 607.029 207.064 610.31 Q203.824 613.591 195.317 613.591 L170.687 613.591 L170.687 619.06 L164.894 619.06 L164.894 613.591 L152.012 613.591 L152.012 606.097 Z" fill="#000000" fill-rule="evenodd" fill-opacity="1" /><path clip-path="url(#clip310)" d="M147.313 536.664 Q156.63 542.093 165.745 544.726 Q174.86 547.359 184.217 547.359 Q193.575 547.359 202.77 544.726 Q211.925 542.052 221.202 536.664 L221.202 543.146 Q211.682 549.222 202.487 552.26 Q193.291 555.258 184.217 555.258 Q175.184 555.258 166.029 552.26 Q156.874 549.263 147.313 543.146 L147.313 536.664 Z" fill="#000000" fill-rule="evenodd" fill-opacity="1" /><path clip-path="url(#clip310)" d="M222.458 501.989 L222.458 506.04 L210.264 506.08 Q210.183 510.334 209.292 514.587 Q208.361 518.84 206.538 523.134 L199.246 523.134 Q201.839 519.002 203.175 514.79 Q204.472 510.536 204.512 506.04 L186.04 506.04 Q184.582 514.992 181.098 519.083 Q177.614 523.134 171.538 523.134 Q164.935 523.134 161.127 518.719 Q157.319 514.303 156.752 506.04 L147.232 506.04 L147.232 501.989 L156.63 501.989 Q156.793 498.221 157.441 494.697 Q158.048 491.173 159.142 487.81 L166.231 487.81 Q164.53 491.173 163.598 494.738 Q162.666 498.262 162.504 501.989 L179.802 501.989 Q181.219 492.793 184.865 488.459 Q188.511 484.124 194.83 484.124 Q201.677 484.124 205.646 488.742 Q209.576 493.32 210.183 501.989 L222.458 501.989 M179.072 506.04 L162.464 506.04 Q162.99 510.739 165.137 513.21 Q167.284 515.681 170.849 515.681 Q174.333 515.681 176.277 513.412 Q178.222 511.103 179.072 506.04 M186.85 501.989 L204.391 501.989 Q203.702 496.844 201.474 494.251 Q199.246 491.618 195.6 491.618 Q192.035 491.618 189.929 494.13 Q187.822 496.601 186.85 501.989 Z" fill="#000000" fill-rule="evenodd" fill-opacity="1" /><path clip-path="url(#clip310)" d="M149.784 456.173 L149.784 449.286 L217.961 470.351 L217.961 477.238 L149.784 456.173 Z" fill="#000000" fill-rule="evenodd" fill-opacity="1" /><path clip-path="url(#clip310)" d="M149.784 441.144 L149.784 428.951 L190.942 413.517 L149.784 398.002 L149.784 385.809 L210.264 385.809 L210.264 393.789 L157.157 393.789 L198.638 409.385 L198.638 417.608 L157.157 433.204 L210.264 433.204 L210.264 441.144 L149.784 441.144 Z" fill="#000000" fill-rule="evenodd" fill-opacity="1" /><path clip-path="url(#clip310)" d="M149.784 374.952 L149.784 366.688 L200.907 353.969 L149.784 341.289 L149.784 332.094 L200.907 319.374 L149.784 306.695 L149.784 298.39 L210.264 313.581 L210.264 323.87 L157.765 336.631 L210.264 349.513 L210.264 359.802 L149.784 374.952 Z" fill="#000000" fill-rule="evenodd" fill-opacity="1" /><path clip-path="url(#clip310)" d="M147.313 289.033 L147.313 282.551 Q156.874 276.475 166.029 273.477 Q175.184 270.439 184.217 270.439 Q193.291 270.439 202.487 273.477 Q211.682 276.475 221.202 282.551 L221.202 289.033 Q211.925 283.645 202.77 281.012 Q193.575 278.338 184.217 278.338 Q174.86 278.338 165.745 281.012 Q156.63 283.645 147.313 289.033 Z" fill="#000000" fill-rule="evenodd" fill-opacity="1" /><path clip-path="url(#clip310)" d="M331.532 40.3296 L331.532 141.11 L352.712 141.11 Q379.535 141.11 391.948 128.958 Q404.448 116.805 404.448 90.5898 Q404.448 64.5483 391.948 52.4824 Q379.535 40.3296 352.712 40.3296 L331.532 40.3296 M313.997 25.92 L350.021 25.92 Q387.695 25.92 405.316 41.6317 Q422.938 57.2566 422.938 90.5898 Q422.938 124.097 405.229 139.808 Q387.521 155.52 350.021 155.52 L313.997 155.52 L313.997 25.92 Z" fill="#000000" fill-rule="evenodd" fill-opacity="1" /><path clip-path="url(#clip310)" d="M450.194 58.2983 L466.167 58.2983 L466.167 155.52 L450.194 155.52 L450.194 58.2983 M450.194 20.4513 L466.167 20.4513 L466.167 40.6769 L450.194 40.6769 L450.194 20.4513 Z" fill="#000000" fill-rule="evenodd" fill-opacity="1" /><path clip-path="url(#clip310)" d="M561.565 61.1629 L561.565 76.267 Q554.795 72.7947 547.503 71.0586 Q540.211 69.3225 532.399 69.3225 Q520.507 69.3225 514.517 72.9684 Q508.614 76.6142 508.614 83.9058 Q508.614 89.4613 512.868 92.6731 Q517.121 95.7981 529.968 98.6627 L535.437 99.8779 Q552.451 103.524 559.569 110.208 Q566.774 116.805 566.774 128.697 Q566.774 142.239 556.01 150.138 Q545.333 158.037 526.583 158.037 Q518.77 158.037 510.264 156.475 Q501.843 154.999 492.469 151.961 L492.469 135.468 Q501.323 140.069 509.916 142.412 Q518.51 144.669 526.93 144.669 Q538.215 144.669 544.291 140.85 Q550.368 136.944 550.368 129.912 Q550.368 123.402 545.94 119.93 Q541.6 116.458 526.757 113.246 L521.201 111.944 Q506.357 108.819 499.76 102.395 Q493.163 95.8849 493.163 84.6002 Q493.163 70.885 502.885 63.4198 Q512.607 55.9546 530.489 55.9546 Q539.343 55.9546 547.156 57.2566 Q554.968 58.5587 561.565 61.1629 Z" fill="#000000" fill-rule="evenodd" fill-opacity="1" /><path clip-path="url(#clip310)" d="M607.659 140.937 L607.659 192.499 L591.6 192.499 L591.6 58.2983 L607.659 58.2983 L607.659 73.0552 Q612.694 64.3747 620.332 60.208 Q628.058 55.9546 638.735 55.9546 Q656.443 55.9546 667.468 70.017 Q678.579 84.0794 678.579 106.996 Q678.579 129.912 667.468 143.975 Q656.443 158.037 638.735 158.037 Q628.058 158.037 620.332 153.871 Q612.694 149.617 607.659 140.937 M661.999 106.996 Q661.999 89.3745 654.707 79.3919 Q647.502 69.3225 634.829 69.3225 Q622.155 69.3225 614.864 79.3919 Q607.659 89.3745 607.659 106.996 Q607.659 124.617 614.864 134.687 Q622.155 144.669 634.829 144.669 Q647.502 144.669 654.707 134.687 Q661.999 124.617 661.999 106.996 Z" fill="#000000" fill-rule="evenodd" fill-opacity="1" /><path clip-path="url(#clip310)" d="M749.238 106.649 Q729.88 106.649 722.415 111.076 Q714.95 115.503 714.95 126.18 Q714.95 134.687 720.506 139.721 Q726.148 144.669 735.783 144.669 Q749.064 144.669 757.05 135.294 Q765.123 125.833 765.123 110.208 L765.123 106.649 L749.238 106.649 M781.095 100.052 L781.095 155.52 L765.123 155.52 L765.123 140.763 Q759.655 149.617 751.495 153.871 Q743.335 158.037 731.53 158.037 Q716.599 158.037 707.745 149.704 Q698.978 141.284 698.978 127.222 Q698.978 110.815 709.915 102.482 Q720.94 94.1488 742.728 94.1488 L765.123 94.1488 L765.123 92.5863 Q765.123 81.5621 757.832 75.5725 Q750.627 69.4962 737.519 69.4962 Q729.186 69.4962 721.287 71.4927 Q713.387 73.4892 706.096 77.4822 L706.096 62.7254 Q714.863 59.34 723.11 57.6907 Q731.356 55.9546 739.169 55.9546 Q760.262 55.9546 770.679 66.892 Q781.095 77.8294 781.095 100.052 Z" fill="#000000" fill-rule="evenodd" fill-opacity="1" /><path clip-path="url(#clip310)" d="M829.793 30.6943 L829.793 58.2983 L862.692 58.2983 L862.692 70.7114 L829.793 70.7114 L829.793 123.489 Q829.793 135.381 833.005 138.767 Q836.303 142.152 846.286 142.152 L862.692 142.152 L862.692 155.52 L846.286 155.52 Q827.797 155.52 820.765 148.662 Q813.734 141.718 813.734 123.489 L813.734 70.7114 L802.015 70.7114 L802.015 58.2983 L813.734 58.2983 L813.734 30.6943 L829.793 30.6943 Z" fill="#000000" fill-rule="evenodd" fill-opacity="1" /><path clip-path="url(#clip310)" d="M953.664 62.0309 L953.664 76.9614 Q946.893 73.2288 940.036 71.4059 Q933.265 69.4962 926.32 69.4962 Q910.782 69.4962 902.189 79.3919 Q893.595 89.2009 893.595 106.996 Q893.595 124.791 902.189 134.687 Q910.782 144.496 926.32 144.496 Q933.265 144.496 940.036 142.673 Q946.893 140.763 953.664 137.031 L953.664 151.787 Q946.98 154.912 939.775 156.475 Q932.657 158.037 924.584 158.037 Q902.623 158.037 889.689 144.235 Q876.755 130.433 876.755 106.996 Q876.755 83.2114 889.775 69.583 Q902.883 55.9546 925.626 55.9546 Q933.004 55.9546 940.036 57.5171 Q947.067 58.9927 953.664 62.0309 Z" fill="#000000" fill-rule="evenodd" fill-opacity="1" /><path clip-path="url(#clip310)" d="M1062.26 96.8398 L1062.26 155.52 L1046.29 155.52 L1046.29 97.3606 Q1046.29 83.5586 1040.9 76.701 Q1035.52 69.8434 1024.76 69.8434 Q1011.82 69.8434 1004.36 78.0899 Q996.893 86.3363 996.893 100.572 L996.893 155.52 L980.834 155.52 L980.834 20.4513 L996.893 20.4513 L996.893 73.4024 Q1002.62 64.6351 1010.35 60.2948 Q1018.16 55.9546 1028.32 55.9546 Q1045.07 55.9546 1053.66 66.3712 Q1062.26 76.701 1062.26 96.8398 Z" fill="#000000" fill-rule="evenodd" fill-opacity="1" /><path clip-path="url(#clip310)" d="M1229.01 30.1734 L1229.01 47.2741 Q1219.03 42.4998 1210.17 40.156 Q1201.32 37.8123 1193.07 37.8123 Q1178.75 37.8123 1170.94 43.3678 Q1163.21 48.9233 1163.21 59.1663 Q1163.21 67.7601 1168.33 72.1871 Q1173.54 76.5274 1187.95 79.2183 L1198.54 81.3885 Q1218.16 85.1211 1227.45 94.5828 Q1236.82 103.958 1236.82 119.756 Q1236.82 138.593 1224.15 148.315 Q1211.56 158.037 1187.17 158.037 Q1177.97 158.037 1167.55 155.954 Q1157.22 153.871 1146.11 149.791 L1146.11 131.735 Q1156.79 137.725 1167.03 140.763 Q1177.27 143.801 1187.17 143.801 Q1202.19 143.801 1210.35 137.899 Q1218.51 131.996 1218.51 121.058 Q1218.51 111.51 1212.6 106.128 Q1206.79 100.746 1193.42 98.055 L1182.74 95.9717 Q1163.12 92.0655 1154.36 83.7322 Q1145.59 75.3989 1145.59 60.5552 Q1145.59 43.3678 1157.66 33.472 Q1169.81 23.5763 1191.08 23.5763 Q1200.19 23.5763 1209.65 25.2256 Q1219.11 26.8749 1229.01 30.1734 Z" fill="#000000" fill-rule="evenodd" fill-opacity="1" /><path clip-path="url(#clip310)" d="M1279.27 30.6943 L1279.27 58.2983 L1312.17 58.2983 L1312.17 70.7114 L1279.27 70.7114 L1279.27 123.489 Q1279.27 135.381 1282.48 138.767 Q1285.78 142.152 1295.76 142.152 L1312.17 142.152 L1312.17 155.52 L1295.76 155.52 Q1277.27 155.52 1270.24 148.662 Q1263.21 141.718 1263.21 123.489 L1263.21 70.7114 L1251.49 70.7114 L1251.49 58.2983 L1263.21 58.2983 L1263.21 30.6943 L1279.27 30.6943 Z" fill="#000000" fill-rule="evenodd" fill-opacity="1" /><path clip-path="url(#clip310)" d="M1377.36 106.649 Q1358 106.649 1350.54 111.076 Q1343.07 115.503 1343.07 126.18 Q1343.07 134.687 1348.63 139.721 Q1354.27 144.669 1363.9 144.669 Q1377.19 144.669 1385.17 135.294 Q1393.24 125.833 1393.24 110.208 L1393.24 106.649 L1377.36 106.649 M1409.22 100.052 L1409.22 155.52 L1393.24 155.52 L1393.24 140.763 Q1387.78 149.617 1379.62 153.871 Q1371.46 158.037 1359.65 158.037 Q1344.72 158.037 1335.87 149.704 Q1327.1 141.284 1327.1 127.222 Q1327.1 110.815 1338.04 102.482 Q1349.06 94.1488 1370.85 94.1488 L1393.24 94.1488 L1393.24 92.5863 Q1393.24 81.5621 1385.95 75.5725 Q1378.75 69.4962 1365.64 69.4962 Q1357.31 69.4962 1349.41 71.4927 Q1341.51 73.4892 1334.22 77.4822 L1334.22 62.7254 Q1342.98 59.34 1351.23 57.6907 Q1359.48 55.9546 1367.29 55.9546 Q1388.38 55.9546 1398.8 66.892 Q1409.22 77.8294 1409.22 100.052 Z" fill="#000000" fill-rule="evenodd" fill-opacity="1" /><path clip-path="url(#clip310)" d="M1512.08 62.0309 L1512.08 76.9614 Q1505.31 73.2288 1498.45 71.4059 Q1491.68 69.4962 1484.74 69.4962 Q1469.2 69.4962 1460.61 79.3919 Q1452.01 89.2009 1452.01 106.996 Q1452.01 124.791 1460.61 134.687 Q1469.2 144.496 1484.74 144.496 Q1491.68 144.496 1498.45 142.673 Q1505.31 140.763 1512.08 137.031 L1512.08 151.787 Q1505.4 154.912 1498.19 156.475 Q1491.07 158.037 1483 158.037 Q1461.04 158.037 1448.11 144.235 Q1435.17 130.433 1435.17 106.996 Q1435.17 83.2114 1448.19 69.583 Q1461.3 55.9546 1484.04 55.9546 Q1491.42 55.9546 1498.45 57.5171 Q1505.48 58.9927 1512.08 62.0309 Z" fill="#000000" fill-rule="evenodd" fill-opacity="1" /><path clip-path="url(#clip310)" d="M1539.25 20.4513 L1555.31 20.4513 L1555.31 100.225 L1602.97 58.2983 L1623.37 58.2983 L1571.8 103.784 L1625.54 155.52 L1604.7 155.52 L1555.31 108.038 L1555.31 155.52 L1539.25 155.52 L1539.25 20.4513 Z" fill="#000000" fill-rule="evenodd" fill-opacity="1" /><path clip-path="url(#clip310)" d="M1777.7 30.1734 L1777.7 47.2741 Q1767.72 42.4998 1758.87 40.156 Q1750.01 37.8123 1741.77 37.8123 Q1727.44 37.8123 1719.63 43.3678 Q1711.91 48.9233 1711.91 59.1663 Q1711.91 67.7601 1717.03 72.1871 Q1722.24 76.5274 1736.65 79.2183 L1747.24 81.3885 Q1766.85 85.1211 1776.14 94.5828 Q1785.52 103.958 1785.52 119.756 Q1785.52 138.593 1772.84 148.315 Q1760.26 158.037 1735.86 158.037 Q1726.66 158.037 1716.25 155.954 Q1705.92 153.871 1694.81 149.791 L1694.81 131.735 Q1705.48 137.725 1715.73 140.763 Q1725.97 143.801 1735.86 143.801 Q1750.88 143.801 1759.04 137.899 Q1767.2 131.996 1767.2 121.058 Q1767.2 111.51 1761.3 106.128 Q1755.48 100.746 1742.11 98.055 L1731.44 95.9717 Q1711.82 92.0655 1703.05 83.7322 Q1694.29 75.3989 1694.29 60.5552 Q1694.29 43.3678 1706.35 33.472 Q1718.5 23.5763 1739.77 23.5763 Q1748.89 23.5763 1758.35 25.2256 Q1767.81 26.8749 1777.7 30.1734 Z" fill="#000000" fill-rule="evenodd" fill-opacity="1" /><path clip-path="url(#clip310)" d="M1810.52 117.152 L1810.52 58.2983 L1826.49 58.2983 L1826.49 116.545 Q1826.49 130.347 1831.87 137.291 Q1837.25 144.149 1848.02 144.149 Q1860.95 144.149 1868.42 135.902 Q1875.97 127.656 1875.97 113.42 L1875.97 58.2983 L1891.94 58.2983 L1891.94 155.52 L1875.97 155.52 L1875.97 140.59 Q1870.15 149.444 1862.43 153.784 Q1854.79 158.037 1844.63 158.037 Q1827.88 158.037 1819.2 147.621 Q1810.52 137.204 1810.52 117.152 M1850.71 55.9546 L1850.71 55.9546 Z" fill="#000000" fill-rule="evenodd" fill-opacity="1" /><path clip-path="url(#clip310)" d="M1940.29 140.937 L1940.29 192.499 L1924.23 192.499 L1924.23 58.2983 L1940.29 58.2983 L1940.29 73.0552 Q1945.33 64.3747 1952.96 60.208 Q1960.69 55.9546 1971.37 55.9546 Q1989.08 55.9546 2000.1 70.017 Q2011.21 84.0794 2011.21 106.996 Q2011.21 129.912 2000.1 143.975 Q1989.08 158.037 1971.37 158.037 Q1960.69 158.037 1952.96 153.871 Q1945.33 149.617 1940.29 140.937 M1994.63 106.996 Q1994.63 89.3745 1987.34 79.3919 Q1980.13 69.3225 1967.46 69.3225 Q1954.79 69.3225 1947.5 79.3919 Q1940.29 89.3745 1940.29 106.996 Q1940.29 124.617 1947.5 134.687 Q1954.79 144.669 1967.46 144.669 Q1980.13 144.669 1987.34 134.687 Q1994.63 124.617 1994.63 106.996 Z" fill="#000000" fill-rule="evenodd" fill-opacity="1" /><path clip-path="url(#clip310)" d="M2053.14 140.937 L2053.14 192.499 L2037.08 192.499 L2037.08 58.2983 L2053.14 58.2983 L2053.14 73.0552 Q2058.17 64.3747 2065.81 60.208 Q2073.54 55.9546 2084.21 55.9546 Q2101.92 55.9546 2112.95 70.017 Q2124.06 84.0794 2124.06 106.996 Q2124.06 129.912 2112.95 143.975 Q2101.92 158.037 2084.21 158.037 Q2073.54 158.037 2065.81 153.871 Q2058.17 149.617 2053.14 140.937 M2107.48 106.996 Q2107.48 89.3745 2100.19 79.3919 Q2092.98 69.3225 2080.31 69.3225 Q2067.63 69.3225 2060.34 79.3919 Q2053.14 89.3745 2053.14 106.996 Q2053.14 124.617 2060.34 134.687 Q2067.63 144.669 2080.31 144.669 Q2092.98 144.669 2100.19 134.687 Q2107.48 124.617 2107.48 106.996 Z" fill="#000000" fill-rule="evenodd" fill-opacity="1" /><path clip-path="url(#clip310)" d="M2150.53 20.4513 L2166.5 20.4513 L2166.5 155.52 L2150.53 155.52 L2150.53 20.4513 Z" fill="#000000" fill-rule="evenodd" fill-opacity="1" /><path clip-path="url(#clip310)" d="M2240.38 164.548 Q2233.61 181.909 2227.18 187.204 Q2220.76 192.499 2209.99 192.499 L2197.23 192.499 L2197.23 179.131 L2206.61 179.131 Q2213.21 179.131 2216.85 176.006 Q2220.5 172.881 2224.92 161.249 L2227.79 153.958 L2188.47 58.2983 L2205.39 58.2983 L2235.78 134.34 L2266.16 58.2983 L2283.08 58.2983 L2240.38 164.548 Z" fill="#000000" fill-rule="evenodd" fill-opacity="1" /><path clip-path="url(#clip310)" d="M2459.39 35.9026 L2459.39 54.3921 Q2450.53 46.1456 2440.46 42.0657 Q2430.48 37.9859 2419.19 37.9859 Q2396.97 37.9859 2385.17 51.6143 Q2373.36 65.1559 2373.36 90.8502 Q2373.36 116.458 2385.17 130.086 Q2396.97 143.628 2419.19 143.628 Q2430.48 143.628 2440.46 139.548 Q2450.53 135.468 2459.39 127.222 L2459.39 145.537 Q2450.18 151.787 2439.85 154.912 Q2429.61 158.037 2418.15 158.037 Q2388.73 158.037 2371.8 140.069 Q2354.87 122.013 2354.87 90.8502 Q2354.87 59.6004 2371.8 41.6317 Q2388.73 23.5763 2418.15 23.5763 Q2429.78 23.5763 2440.03 26.7012 Q2450.36 29.7394 2459.39 35.9026 Z" fill="#000000" fill-rule="evenodd" fill-opacity="1" /><path clip-path="url(#clip310)" d="M2484.12 117.152 L2484.12 58.2983 L2500.1 58.2983 L2500.1 116.545 Q2500.1 130.347 2505.48 137.291 Q2510.86 144.149 2521.62 144.149 Q2534.56 144.149 2542.02 135.902 Q2549.58 127.656 2549.58 113.42 L2549.58 58.2983 L2565.55 58.2983 L2565.55 155.52 L2549.58 155.52 L2549.58 140.59 Q2543.76 149.444 2536.03 153.784 Q2528.4 158.037 2518.24 158.037 Q2501.49 158.037 2492.81 147.621 Q2484.12 137.204 2484.12 117.152 M2524.32 55.9546 L2524.32 55.9546 Z" fill="#000000" fill-rule="evenodd" fill-opacity="1" /><path clip-path="url(#clip310)" d="M2654.78 73.2288 Q2652.09 71.6663 2648.88 70.9718 Q2645.76 70.1906 2641.94 70.1906 Q2628.39 70.1906 2621.1 79.0447 Q2613.9 87.812 2613.9 104.305 L2613.9 155.52 L2597.84 155.52 L2597.84 58.2983 L2613.9 58.2983 L2613.9 73.4024 Q2618.93 64.5483 2627.01 60.2948 Q2635.08 55.9546 2646.62 55.9546 Q2648.27 55.9546 2650.27 56.215 Q2652.27 56.3886 2654.7 56.8226 L2654.78 73.2288 Z" fill="#000000" fill-rule="evenodd" fill-opacity="1" /><path clip-path="url(#clip310)" d="M2660.08 58.2983 L2677.01 58.2983 L2707.39 139.895 L2737.77 58.2983 L2754.7 58.2983 L2718.24 155.52 L2696.54 155.52 L2660.08 58.2983 Z" fill="#000000" fill-rule="evenodd" fill-opacity="1" /><path clip-path="url(#clip310)" d="M2859.9 102.916 L2859.9 110.729 L2786.47 110.729 Q2787.51 127.222 2796.36 135.902 Q2805.3 144.496 2821.19 144.496 Q2830.39 144.496 2838.98 142.239 Q2847.66 139.982 2856.17 135.468 L2856.17 150.572 Q2847.58 154.218 2838.55 156.128 Q2829.52 158.037 2820.23 158.037 Q2796.97 158.037 2783.34 144.496 Q2769.8 130.954 2769.8 107.864 Q2769.8 83.9926 2782.65 70.017 Q2795.58 55.9546 2817.46 55.9546 Q2837.07 55.9546 2848.45 68.6281 Q2859.9 81.2148 2859.9 102.916 M2843.93 98.2286 Q2843.76 85.1211 2836.55 77.3086 Q2829.44 69.4962 2817.63 69.4962 Q2804.26 69.4962 2796.19 77.0482 Q2788.2 84.6002 2786.99 98.3154 L2843.93 98.2286 Z" fill="#000000" fill-rule="evenodd" fill-opacity="1" /><path clip-path="url(#clip312)" d="
M487.134 1214.73 L832.175 1214.73 L832.175 1192.76 L487.134 1192.76 L487.134 1214.73  Z
  " fill="#000000" fill-rule="evenodd" fill-opacity="0.5"/>
<polyline clip-path="url(#clip312)" style="stroke:#000000; stroke-linecap:round; stroke-linejoin:round; stroke-width:4; stroke-opacity:0.5; fill:none" points="
  487.134,1214.73 832.175,1214.73 832.175,1192.76 487.134,1192.76 487.134,1214.73 
  "/>
<path clip-path="url(#clip312)" d="
M832.175 1214.73 L1004.69 1214.73 L1004.69 1192.76 L832.175 1192.76 L832.175 1214.73  Z
  " fill="#44aa99" fill-rule="evenodd" fill-opacity="0.5"/>
<polyline clip-path="url(#clip312)" style="stroke:#000000; stroke-linecap:round; stroke-linejoin:round; stroke-width:4; stroke-opacity:0.5; fill:none" points="
  832.175,1214.73 1004.69,1214.73 1004.69,1192.76 832.175,1192.76 832.175,1214.73 
  "/>
<path clip-path="url(#clip312)" d="
M1004.69 1214.73 L1134.08 1214.73 L1134.08 1192.76 L1004.69 1192.76 L1004.69 1214.73  Z
  " fill="#117733" fill-rule="evenodd" fill-opacity="0.5"/>
<polyline clip-path="url(#clip312)" style="stroke:#000000; stroke-linecap:round; stroke-linejoin:round; stroke-width:4; stroke-opacity:0.5; fill:none" points="
  1004.69,1214.73 1134.08,1214.73 1134.08,1192.76 1004.69,1192.76 1004.69,1214.73 
  "/>
<path clip-path="url(#clip312)" d="
M1134.08 1214.73 L1824.17 1214.73 L1824.17 1126.87 L1134.08 1126.87 L1134.08 1214.73  Z
  " fill="#332288" fill-rule="evenodd" fill-opacity="0.5"/>
<polyline clip-path="url(#clip312)" style="stroke:#000000; stroke-linecap:round; stroke-linejoin:round; stroke-width:4; stroke-opacity:0.5; fill:none" points="
  1134.08,1214.73 1824.17,1214.73 1824.17,1126.87 1134.08,1126.87 1134.08,1214.73 
  "/>
<path clip-path="url(#clip312)" d="
M1824.17 1214.73 L2289.97 1214.73 L2289.97 270.28 L1824.17 270.28 L1824.17 1214.73  Z
  " fill="#ddcc77" fill-rule="evenodd" fill-opacity="0.5"/>
<polyline clip-path="url(#clip312)" style="stroke:#000000; stroke-linecap:round; stroke-linejoin:round; stroke-width:4; stroke-opacity:0.5; fill:none" points="
  1824.17,1214.73 2289.97,1214.73 2289.97,270.28 1824.17,270.28 1824.17,1214.73 
  "/>
<path clip-path="url(#clip312)" d="
M2289.97 1214.73 L2686.77 1214.73 L2686.77 204.388 L2289.97 204.388 L2289.97 1214.73  Z
  " fill="#999933" fill-rule="evenodd" fill-opacity="0.5"/>
<polyline clip-path="url(#clip312)" style="stroke:#000000; stroke-linecap:round; stroke-linejoin:round; stroke-width:4; stroke-opacity:0.5; fill:none" points="
  2289.97,1214.73 2686.77,1214.73 2686.77,204.388 2289.97,204.388 2289.97,1214.73 
  "/>
<polyline clip-path="url(#clip312)" style="stroke:#000000; stroke-linecap:round; stroke-linejoin:round; stroke-width:12; stroke-opacity:1; fill:none" stroke-dasharray="48, 30" points="
  2039.82,2315.99 2039.82,-896.88 
  "/>
<polyline clip-path="url(#clip312)" style="stroke:#0000ff; stroke-linecap:round; stroke-linejoin:round; stroke-width:12; stroke-opacity:1; fill:none" stroke-dasharray="6, 12" points="
  -1910.47,270.28 5084.37,270.28 
  "/>
<path clip-path="url(#clip310)" d="
M498.865 1058.1 L1475.99 1058.1 L1475.99 124.976 L498.865 124.976  Z
  " fill="#ffffff" fill-rule="evenodd" fill-opacity="1"/>
<polyline clip-path="url(#clip310)" style="stroke:#000000; stroke-linecap:round; stroke-linejoin:round; stroke-width:4; stroke-opacity:1; fill:none" points="
  498.865,1058.1 1475.99,1058.1 1475.99,124.976 498.865,124.976 498.865,1058.1 
  "/>
<path clip-path="url(#clip310)" d="
M680.213 270.128 L524.772 270.128 L524.772 187.184 L680.213 187.184 L680.213 270.128  Z
  " fill="#000000" fill-rule="evenodd" fill-opacity="0.5"/>
<polyline clip-path="url(#clip310)" style="stroke:#000000; stroke-linecap:round; stroke-linejoin:round; stroke-width:4; stroke-opacity:1; fill:none" points="
  680.213,270.128 524.772,270.128 524.772,187.184 680.213,187.184 680.213,270.128 
  "/>
<path clip-path="url(#clip310)" d="M746.814 221.318 Q750.008 215.577 754.453 212.846 Q758.897 210.114 764.916 210.114 Q773.018 210.114 777.416 215.809 Q781.814 221.457 781.814 231.92 L781.814 263.216 L773.249 263.216 L773.249 232.197 Q773.249 224.744 770.61 221.133 Q767.971 217.522 762.555 217.522 Q755.934 217.522 752.092 221.92 Q748.249 226.318 748.249 233.91 L748.249 263.216 L739.684 263.216 L739.684 232.197 Q739.684 224.697 737.046 221.133 Q734.407 217.522 728.897 217.522 Q722.37 217.522 718.527 221.966 Q714.685 226.364 714.685 233.91 L714.685 263.216 L706.12 263.216 L706.12 211.364 L714.685 211.364 L714.685 219.42 Q717.601 214.651 721.675 212.383 Q725.749 210.114 731.351 210.114 Q736.999 210.114 740.934 212.985 Q744.916 215.855 746.814 221.318 Z" fill="#000000" fill-rule="evenodd" fill-opacity="1" /><path clip-path="url(#clip310)" d="M798.804 211.364 L807.323 211.364 L807.323 263.216 L798.804 263.216 L798.804 211.364 M798.804 191.179 L807.323 191.179 L807.323 201.966 L798.804 201.966 L798.804 191.179 Z" fill="#000000" fill-rule="evenodd" fill-opacity="1" /><path clip-path="url(#clip310)" d="M868.249 231.92 L868.249 263.216 L859.73 263.216 L859.73 232.197 Q859.73 224.836 856.86 221.179 Q853.989 217.522 848.249 217.522 Q841.351 217.522 837.369 221.92 Q833.388 226.318 833.388 233.91 L833.388 263.216 L824.823 263.216 L824.823 211.364 L833.388 211.364 L833.388 219.42 Q836.443 214.744 840.564 212.429 Q844.73 210.114 850.147 210.114 Q859.082 210.114 863.665 215.67 Q868.249 221.179 868.249 231.92 Z" fill="#000000" fill-rule="evenodd" fill-opacity="1" /><path clip-path="url(#clip310)" d="M885.239 211.364 L893.758 211.364 L893.758 263.216 L885.239 263.216 L885.239 211.364 M885.239 191.179 L893.758 191.179 L893.758 201.966 L885.239 201.966 L885.239 191.179 Z" fill="#000000" fill-rule="evenodd" fill-opacity="1" /><path clip-path="url(#clip310)" d="M951.952 221.318 Q955.146 215.577 959.591 212.846 Q964.035 210.114 970.054 210.114 Q978.155 210.114 982.553 215.809 Q986.952 221.457 986.952 231.92 L986.952 263.216 L978.387 263.216 L978.387 232.197 Q978.387 224.744 975.748 221.133 Q973.109 217.522 967.692 217.522 Q961.072 217.522 957.23 221.92 Q953.387 226.318 953.387 233.91 L953.387 263.216 L944.822 263.216 L944.822 232.197 Q944.822 224.697 942.183 221.133 Q939.544 217.522 934.035 217.522 Q927.507 217.522 923.665 221.966 Q919.822 226.364 919.822 233.91 L919.822 263.216 L911.258 263.216 L911.258 211.364 L919.822 211.364 L919.822 219.42 Q922.739 214.651 926.813 212.383 Q930.887 210.114 936.489 210.114 Q942.137 210.114 946.072 212.985 Q950.054 215.855 951.952 221.318 Z" fill="#000000" fill-rule="evenodd" fill-opacity="1" /><path clip-path="url(#clip310)" d="M1003.06 242.753 L1003.06 211.364 L1011.58 211.364 L1011.58 242.429 Q1011.58 249.79 1014.45 253.494 Q1017.32 257.151 1023.06 257.151 Q1029.96 257.151 1033.94 252.753 Q1037.97 248.355 1037.97 240.762 L1037.97 211.364 L1046.49 211.364 L1046.49 263.216 L1037.97 263.216 L1037.97 255.253 Q1034.87 259.975 1030.75 262.29 Q1026.67 264.558 1021.26 264.558 Q1012.32 264.558 1007.69 259.003 Q1003.06 253.447 1003.06 242.753 M1024.5 210.114 L1024.5 210.114 Z" fill="#000000" fill-rule="evenodd" fill-opacity="1" /><path clip-path="url(#clip310)" d="M1104.4 221.318 Q1107.6 215.577 1112.04 212.846 Q1116.49 210.114 1122.51 210.114 Q1130.61 210.114 1135.01 215.809 Q1139.4 221.457 1139.4 231.92 L1139.4 263.216 L1130.84 263.216 L1130.84 232.197 Q1130.84 224.744 1128.2 221.133 Q1125.56 217.522 1120.15 217.522 Q1113.53 217.522 1109.68 221.92 Q1105.84 226.318 1105.84 233.91 L1105.84 263.216 L1097.28 263.216 L1097.28 232.197 Q1097.28 224.697 1094.64 221.133 Q1092 217.522 1086.49 217.522 Q1079.96 217.522 1076.12 221.966 Q1072.28 226.364 1072.28 233.91 L1072.28 263.216 L1063.71 263.216 L1063.71 211.364 L1072.28 211.364 L1072.28 219.42 Q1075.19 214.651 1079.27 212.383 Q1083.34 210.114 1088.94 210.114 Q1094.59 210.114 1098.53 212.985 Q1102.51 215.855 1104.4 221.318 Z" fill="#000000" fill-rule="evenodd" fill-opacity="1" /><path clip-path="url(#clip310)" d="
M680.213 373.808 L524.772 373.808 L524.772 290.864 L680.213 290.864 L680.213 373.808  Z
  " fill="#44aa99" fill-rule="evenodd" fill-opacity="0.5"/>
<polyline clip-path="url(#clip310)" style="stroke:#000000; stroke-linecap:round; stroke-linejoin:round; stroke-width:4; stroke-opacity:1; fill:none" points="
  680.213,373.808 524.772,373.808 524.772,290.864 680.213,290.864 680.213,373.808 
  "/>
<path clip-path="url(#clip310)" d="M706.12 315.044 L714.638 315.044 L725.286 355.507 L735.888 315.044 L745.934 315.044 L756.582 355.507 L767.184 315.044 L775.703 315.044 L762.138 366.896 L752.092 366.896 L740.934 324.396 L729.731 366.896 L719.685 366.896 L706.12 315.044 Z" fill="#000000" fill-rule="evenodd" fill-opacity="1" /><path clip-path="url(#clip310)" d="M788.619 315.044 L797.138 315.044 L797.138 366.896 L788.619 366.896 L788.619 315.044 M788.619 294.859 L797.138 294.859 L797.138 305.646 L788.619 305.646 L788.619 294.859 Z" fill="#000000" fill-rule="evenodd" fill-opacity="1" /><path clip-path="url(#clip310)" d="M858.063 335.6 L858.063 366.896 L849.545 366.896 L849.545 335.877 Q849.545 328.516 846.675 324.859 Q843.804 321.202 838.064 321.202 Q831.165 321.202 827.184 325.6 Q823.202 329.998 823.202 337.59 L823.202 366.896 L814.638 366.896 L814.638 315.044 L823.202 315.044 L823.202 323.1 Q826.258 318.424 830.378 316.109 Q834.545 313.794 839.962 313.794 Q848.897 313.794 853.48 319.35 Q858.063 324.859 858.063 335.6 Z" fill="#000000" fill-rule="evenodd" fill-opacity="1" /><path clip-path="url(#clip310)" d="M909.174 322.914 L909.174 294.859 L917.693 294.859 L917.693 366.896 L909.174 366.896 L909.174 359.118 Q906.489 363.748 902.369 366.016 Q898.295 368.238 892.554 368.238 Q883.156 368.238 877.23 360.738 Q871.35 353.238 871.35 341.016 Q871.35 328.794 877.23 321.294 Q883.156 313.794 892.554 313.794 Q898.295 313.794 902.369 316.063 Q906.489 318.285 909.174 322.914 M880.147 341.016 Q880.147 350.414 883.989 355.785 Q887.878 361.109 894.637 361.109 Q901.397 361.109 905.285 355.785 Q909.174 350.414 909.174 341.016 Q909.174 331.618 905.285 326.294 Q901.397 320.924 894.637 320.924 Q887.878 320.924 883.989 326.294 Q880.147 331.618 880.147 341.016 Z" fill="#000000" fill-rule="evenodd" fill-opacity="1" /><path clip-path="url(#clip310)" d="
M680.213 477.488 L524.772 477.488 L524.772 394.544 L680.213 394.544 L680.213 477.488  Z
  " fill="#117733" fill-rule="evenodd" fill-opacity="0.5"/>
<polyline clip-path="url(#clip310)" style="stroke:#000000; stroke-linecap:round; stroke-linejoin:round; stroke-width:4; stroke-opacity:1; fill:none" points="
  680.213,477.488 524.772,477.488 524.772,394.544 680.213,394.544 680.213,477.488 
  "/>
<path clip-path="url(#clip310)" d="M749.545 439.28 L749.545 470.576 L741.027 470.576 L741.027 439.557 Q741.027 432.196 738.157 428.539 Q735.286 424.882 729.546 424.882 Q722.647 424.882 718.666 429.28 Q714.685 433.678 714.685 441.27 L714.685 470.576 L706.12 470.576 L706.12 398.539 L714.685 398.539 L714.685 426.78 Q717.74 422.104 721.86 419.789 Q726.027 417.474 731.444 417.474 Q740.379 417.474 744.962 423.03 Q749.545 428.539 749.545 439.28 Z" fill="#000000" fill-rule="evenodd" fill-opacity="1" /><path clip-path="url(#clip310)" d="M788.11 475.391 Q784.499 484.65 781.073 487.474 Q777.647 490.298 771.906 490.298 L765.101 490.298 L765.101 483.168 L770.101 483.168 Q773.619 483.168 775.564 481.502 Q777.508 479.835 779.869 473.631 L781.397 469.742 L760.425 418.724 L769.453 418.724 L785.656 459.279 L801.86 418.724 L810.888 418.724 L788.11 475.391 Z" fill="#000000" fill-rule="evenodd" fill-opacity="1" /><path clip-path="url(#clip310)" d="M856.767 426.594 L856.767 398.539 L865.286 398.539 L865.286 470.576 L856.767 470.576 L856.767 462.798 Q854.082 467.428 849.962 469.696 Q845.888 471.918 840.147 471.918 Q830.749 471.918 824.823 464.418 Q818.943 456.918 818.943 444.696 Q818.943 432.474 824.823 424.974 Q830.749 417.474 840.147 417.474 Q845.888 417.474 849.962 419.743 Q854.082 421.965 856.767 426.594 M827.739 444.696 Q827.739 454.094 831.582 459.465 Q835.471 464.789 842.23 464.789 Q848.989 464.789 852.878 459.465 Q856.767 454.094 856.767 444.696 Q856.767 435.298 852.878 429.974 Q848.989 424.604 842.23 424.604 Q835.471 424.604 831.582 429.974 Q827.739 435.298 827.739 444.696 Z" fill="#000000" fill-rule="evenodd" fill-opacity="1" /><path clip-path="url(#clip310)" d="M912.878 426.687 Q911.443 425.854 909.73 425.483 Q908.063 425.067 906.026 425.067 Q898.804 425.067 894.915 429.789 Q891.072 434.465 891.072 443.261 L891.072 470.576 L882.508 470.576 L882.508 418.724 L891.072 418.724 L891.072 426.78 Q893.758 422.057 898.063 419.789 Q902.369 417.474 908.526 417.474 Q909.406 417.474 910.471 417.613 Q911.535 417.706 912.832 417.937 L912.878 426.687 Z" fill="#000000" fill-rule="evenodd" fill-opacity="1" /><path clip-path="url(#clip310)" d="M939.822 424.696 Q932.97 424.696 928.989 430.067 Q925.007 435.391 925.007 444.696 Q925.007 454.002 928.943 459.372 Q932.924 464.696 939.822 464.696 Q946.628 464.696 950.609 459.326 Q954.591 453.955 954.591 444.696 Q954.591 435.483 950.609 430.113 Q946.628 424.696 939.822 424.696 M939.822 417.474 Q950.933 417.474 957.276 424.696 Q963.618 431.919 963.618 444.696 Q963.618 457.428 957.276 464.696 Q950.933 471.918 939.822 471.918 Q928.665 471.918 922.322 464.696 Q916.026 457.428 916.026 444.696 Q916.026 431.919 922.322 424.696 Q928.665 417.474 939.822 417.474 Z" fill="#000000" fill-rule="evenodd" fill-opacity="1" /><path clip-path="url(#clip310)" d="
M680.213 581.168 L524.772 581.168 L524.772 498.224 L680.213 498.224 L680.213 581.168  Z
  " fill="#332288" fill-rule="evenodd" fill-opacity="0.5"/>
<polyline clip-path="url(#clip310)" style="stroke:#000000; stroke-linecap:round; stroke-linejoin:round; stroke-width:4; stroke-opacity:1; fill:none" points="
  680.213,581.168 524.772,581.168 524.772,498.224 680.213,498.224 680.213,581.168 
  "/>
<path clip-path="url(#clip310)" d="M749.545 542.96 L749.545 574.256 L741.027 574.256 L741.027 543.237 Q741.027 535.876 738.157 532.219 Q735.286 528.562 729.546 528.562 Q722.647 528.562 718.666 532.96 Q714.685 537.358 714.685 544.95 L714.685 574.256 L706.12 574.256 L706.12 522.404 L714.685 522.404 L714.685 530.46 Q717.74 525.784 721.86 523.469 Q726.027 521.154 731.444 521.154 Q740.379 521.154 744.962 526.71 Q749.545 532.219 749.545 542.96 Z" fill="#000000" fill-rule="evenodd" fill-opacity="1" /><path clip-path="url(#clip310)" d="M765.656 553.793 L765.656 522.404 L774.175 522.404 L774.175 553.469 Q774.175 560.83 777.045 564.534 Q779.916 568.191 785.656 568.191 Q792.554 568.191 796.536 563.793 Q800.564 559.395 800.564 551.802 L800.564 522.404 L809.082 522.404 L809.082 574.256 L800.564 574.256 L800.564 566.293 Q797.462 571.015 793.342 573.33 Q789.267 575.598 783.851 575.598 Q774.916 575.598 770.286 570.043 Q765.656 564.487 765.656 553.793 M787.092 521.154 L787.092 521.154 Z" fill="#000000" fill-rule="evenodd" fill-opacity="1" /><path clip-path="url(#clip310)" d="M863.943 524.395 L863.943 532.358 Q860.332 530.367 856.675 529.395 Q853.063 528.376 849.36 528.376 Q841.073 528.376 836.489 533.654 Q831.906 538.886 831.906 548.376 Q831.906 557.867 836.489 563.145 Q841.073 568.376 849.36 568.376 Q853.063 568.376 856.675 567.404 Q860.332 566.385 863.943 564.395 L863.943 572.265 Q860.378 573.932 856.536 574.765 Q852.739 575.598 848.434 575.598 Q836.721 575.598 829.823 568.237 Q822.925 560.876 822.925 548.376 Q822.925 535.691 829.869 528.423 Q836.86 521.154 848.989 521.154 Q852.925 521.154 856.675 521.987 Q860.425 522.775 863.943 524.395 Z" fill="#000000" fill-rule="evenodd" fill-opacity="1" /><path clip-path="url(#clip310)" d="M878.758 502.219 L887.276 502.219 L887.276 574.256 L878.758 574.256 L878.758 502.219 Z" fill="#000000" fill-rule="evenodd" fill-opacity="1" /><path clip-path="url(#clip310)" d="M949.452 546.2 L949.452 550.367 L910.285 550.367 Q910.841 559.163 915.563 563.793 Q920.332 568.376 928.804 568.376 Q933.711 568.376 938.294 567.172 Q942.924 565.969 947.461 563.561 L947.461 571.617 Q942.878 573.561 938.063 574.58 Q933.248 575.598 928.295 575.598 Q915.887 575.598 908.619 568.376 Q901.397 561.154 901.397 548.839 Q901.397 536.108 908.248 528.654 Q915.146 521.154 926.813 521.154 Q937.276 521.154 943.341 527.913 Q949.452 534.626 949.452 546.2 M940.933 543.7 Q940.841 536.71 936.998 532.543 Q933.202 528.376 926.906 528.376 Q919.776 528.376 915.471 532.404 Q911.211 536.432 910.563 543.747 L940.933 543.7 Z" fill="#000000" fill-rule="evenodd" fill-opacity="1" /><path clip-path="url(#clip310)" d="M986.998 548.191 Q976.674 548.191 972.692 550.552 Q968.711 552.913 968.711 558.608 Q968.711 563.145 971.674 565.83 Q974.683 568.469 979.822 568.469 Q986.905 568.469 991.165 563.469 Q995.47 558.422 995.47 550.089 L995.47 548.191 L986.998 548.191 M1003.99 544.673 L1003.99 574.256 L995.47 574.256 L995.47 566.385 Q992.553 571.108 988.202 573.376 Q983.85 575.598 977.554 575.598 Q969.591 575.598 964.868 571.154 Q960.192 566.663 960.192 559.163 Q960.192 550.413 966.026 545.969 Q971.905 541.524 983.526 541.524 L995.47 541.524 L995.47 540.691 Q995.47 534.811 991.581 531.617 Q987.739 528.376 980.748 528.376 Q976.304 528.376 972.091 529.441 Q967.878 530.506 963.989 532.636 L963.989 524.765 Q968.665 522.96 973.063 522.08 Q977.461 521.154 981.628 521.154 Q992.878 521.154 998.433 526.987 Q1003.99 532.821 1003.99 544.673 Z" fill="#000000" fill-rule="evenodd" fill-opacity="1" /><path clip-path="url(#clip310)" d="M1051.58 530.367 Q1050.15 529.534 1048.43 529.163 Q1046.77 528.747 1044.73 528.747 Q1037.51 528.747 1033.62 533.469 Q1029.78 538.145 1029.78 546.941 L1029.78 574.256 L1021.21 574.256 L1021.21 522.404 L1029.78 522.404 L1029.78 530.46 Q1032.46 525.737 1036.77 523.469 Q1041.07 521.154 1047.23 521.154 Q1048.11 521.154 1049.17 521.293 Q1050.24 521.386 1051.53 521.617 L1051.58 530.367 Z" fill="#000000" fill-rule="evenodd" fill-opacity="1" /><path clip-path="url(#clip310)" d="
M680.213 684.848 L524.772 684.848 L524.772 601.904 L680.213 601.904 L680.213 684.848  Z
  " fill="#ddcc77" fill-rule="evenodd" fill-opacity="0.5"/>
<polyline clip-path="url(#clip310)" style="stroke:#000000; stroke-linecap:round; stroke-linejoin:round; stroke-width:4; stroke-opacity:1; fill:none" points="
  680.213,684.848 524.772,684.848 524.772,601.904 680.213,601.904 680.213,684.848 
  "/>
<path clip-path="url(#clip310)" d="M747.138 628.075 L747.138 636.038 Q743.527 634.047 739.87 633.075 Q736.259 632.056 732.555 632.056 Q724.268 632.056 719.685 637.334 Q715.101 642.566 715.101 652.056 Q715.101 661.547 719.685 666.825 Q724.268 672.056 732.555 672.056 Q736.259 672.056 739.87 671.084 Q743.527 670.065 747.138 668.075 L747.138 675.945 Q743.573 677.612 739.731 678.445 Q735.934 679.278 731.629 679.278 Q719.916 679.278 713.018 671.917 Q706.12 664.556 706.12 652.056 Q706.12 639.371 713.064 632.103 Q720.055 624.834 732.184 624.834 Q736.12 624.834 739.87 625.667 Q743.62 626.455 747.138 628.075 Z" fill="#000000" fill-rule="evenodd" fill-opacity="1" /><path clip-path="url(#clip310)" d="M782.045 632.056 Q775.193 632.056 771.212 637.427 Q767.231 642.751 767.231 652.056 Q767.231 661.362 771.166 666.732 Q775.147 672.056 782.045 672.056 Q788.851 672.056 792.832 666.686 Q796.814 661.315 796.814 652.056 Q796.814 642.843 792.832 637.473 Q788.851 632.056 782.045 632.056 M782.045 624.834 Q793.156 624.834 799.499 632.056 Q805.841 639.279 805.841 652.056 Q805.841 664.788 799.499 672.056 Q793.156 679.278 782.045 679.278 Q770.888 679.278 764.545 672.056 Q758.249 664.788 758.249 652.056 Q758.249 639.279 764.545 632.056 Q770.888 624.834 782.045 624.834 Z" fill="#000000" fill-rule="evenodd" fill-opacity="1" /><path clip-path="url(#clip310)" d="M843.526 651.871 Q833.202 651.871 829.221 654.232 Q825.24 656.593 825.24 662.288 Q825.24 666.825 828.202 669.51 Q831.212 672.149 836.351 672.149 Q843.434 672.149 847.693 667.149 Q851.999 662.102 851.999 653.769 L851.999 651.871 L843.526 651.871 M860.517 648.353 L860.517 677.936 L851.999 677.936 L851.999 670.065 Q849.082 674.788 844.73 677.056 Q840.378 679.278 834.082 679.278 Q826.119 679.278 821.397 674.834 Q816.721 670.343 816.721 662.843 Q816.721 654.093 822.554 649.649 Q828.434 645.204 840.054 645.204 L851.999 645.204 L851.999 644.371 Q851.999 638.491 848.11 635.297 Q844.267 632.056 837.276 632.056 Q832.832 632.056 828.619 633.121 Q824.406 634.186 820.517 636.316 L820.517 628.445 Q825.193 626.64 829.591 625.76 Q833.989 624.834 838.156 624.834 Q849.406 624.834 854.962 630.667 Q860.517 636.501 860.517 648.353 Z" fill="#000000" fill-rule="evenodd" fill-opacity="1" /><path clip-path="url(#clip310)" d="M878.063 605.899 L886.582 605.899 L886.582 677.936 L878.063 677.936 L878.063 605.899 Z" fill="#000000" fill-rule="evenodd" fill-opacity="1" /><path clip-path="url(#clip310)" d="
M680.213 788.528 L524.772 788.528 L524.772 705.584 L680.213 705.584 L680.213 788.528  Z
  " fill="#999933" fill-rule="evenodd" fill-opacity="0.5"/>
<polyline clip-path="url(#clip310)" style="stroke:#000000; stroke-linecap:round; stroke-linejoin:round; stroke-width:4; stroke-opacity:1; fill:none" points="
  680.213,788.528 524.772,788.528 524.772,705.584 680.213,705.584 680.213,788.528 
  "/>
<path clip-path="url(#clip310)" d="M749.545 750.32 L749.545 781.616 L741.027 781.616 L741.027 750.597 Q741.027 743.236 738.157 739.579 Q735.286 735.922 729.546 735.922 Q722.647 735.922 718.666 740.32 Q714.685 744.718 714.685 752.31 L714.685 781.616 L706.12 781.616 L706.12 729.764 L714.685 729.764 L714.685 737.82 Q717.74 733.144 721.86 730.829 Q726.027 728.514 731.444 728.514 Q740.379 728.514 744.962 734.07 Q749.545 739.579 749.545 750.32 Z" fill="#000000" fill-rule="evenodd" fill-opacity="1" /><path clip-path="url(#clip310)" d="M790.101 755.551 Q779.777 755.551 775.795 757.912 Q771.814 760.273 771.814 765.968 Q771.814 770.505 774.777 773.19 Q777.786 775.829 782.925 775.829 Q790.008 775.829 794.267 770.829 Q798.573 765.782 798.573 757.449 L798.573 755.551 L790.101 755.551 M807.091 752.033 L807.091 781.616 L798.573 781.616 L798.573 773.745 Q795.656 778.468 791.305 780.736 Q786.953 782.958 780.656 782.958 Q772.693 782.958 767.971 778.514 Q763.295 774.023 763.295 766.523 Q763.295 757.773 769.129 753.329 Q775.008 748.884 786.629 748.884 L798.573 748.884 L798.573 748.051 Q798.573 742.171 794.684 738.977 Q790.842 735.736 783.851 735.736 Q779.406 735.736 775.193 736.801 Q770.981 737.866 767.092 739.996 L767.092 732.125 Q771.768 730.32 776.166 729.44 Q780.564 728.514 784.73 728.514 Q795.98 728.514 801.536 734.347 Q807.091 740.181 807.091 752.033 Z" fill="#000000" fill-rule="evenodd" fill-opacity="1" /><path clip-path="url(#clip310)" d="M833.064 715.042 L833.064 729.764 L850.61 729.764 L850.61 736.384 L833.064 736.384 L833.064 764.532 Q833.064 770.875 834.776 772.681 Q836.536 774.486 841.86 774.486 L850.61 774.486 L850.61 781.616 L841.86 781.616 Q831.999 781.616 828.249 777.958 Q824.499 774.255 824.499 764.532 L824.499 736.384 L818.249 736.384 L818.249 729.764 L824.499 729.764 L824.499 715.042 L833.064 715.042 Z" fill="#000000" fill-rule="evenodd" fill-opacity="1" /><path clip-path="url(#clip310)" d="M895.934 755.088 Q895.934 745.829 892.091 740.736 Q888.295 735.644 881.397 735.644 Q874.545 735.644 870.702 740.736 Q866.906 745.829 866.906 755.088 Q866.906 764.301 870.702 769.394 Q874.545 774.486 881.397 774.486 Q888.295 774.486 892.091 769.394 Q895.934 764.301 895.934 755.088 M904.452 775.181 Q904.452 788.421 898.572 794.856 Q892.693 801.338 880.563 801.338 Q876.073 801.338 872.091 800.643 Q868.11 799.995 864.36 798.606 L864.36 790.319 Q868.11 792.356 871.767 793.329 Q875.424 794.301 879.221 794.301 Q887.6 794.301 891.767 789.903 Q895.934 785.551 895.934 776.708 L895.934 772.495 Q893.295 777.079 889.174 779.347 Q885.054 781.616 879.313 781.616 Q869.776 781.616 863.943 774.347 Q858.11 767.079 858.11 755.088 Q858.11 743.051 863.943 735.783 Q869.776 728.514 879.313 728.514 Q885.054 728.514 889.174 730.783 Q893.295 733.051 895.934 737.634 L895.934 729.764 L904.452 729.764 L904.452 775.181 Z" fill="#000000" fill-rule="evenodd" fill-opacity="1" /><path clip-path="url(#clip310)" d="M945.563 755.551 Q935.239 755.551 931.257 757.912 Q927.276 760.273 927.276 765.968 Q927.276 770.505 930.239 773.19 Q933.248 775.829 938.387 775.829 Q945.47 775.829 949.73 770.829 Q954.035 765.782 954.035 757.449 L954.035 755.551 L945.563 755.551 M962.554 752.033 L962.554 781.616 L954.035 781.616 L954.035 773.745 Q951.118 778.468 946.767 780.736 Q942.415 782.958 936.119 782.958 Q928.156 782.958 923.433 778.514 Q918.758 774.023 918.758 766.523 Q918.758 757.773 924.591 753.329 Q930.47 748.884 942.091 748.884 L954.035 748.884 L954.035 748.051 Q954.035 742.171 950.146 738.977 Q946.304 735.736 939.313 735.736 Q934.869 735.736 930.656 736.801 Q926.443 737.866 922.554 739.996 L922.554 732.125 Q927.23 730.32 931.628 729.44 Q936.026 728.514 940.193 728.514 Q951.443 728.514 956.998 734.347 Q962.554 740.181 962.554 752.033 Z" fill="#000000" fill-rule="evenodd" fill-opacity="1" /><path clip-path="url(#clip310)" d="M1013.16 731.292 L1013.16 739.347 Q1009.54 737.496 1005.66 736.57 Q1001.77 735.644 997.6 735.644 Q991.257 735.644 988.063 737.588 Q984.915 739.533 984.915 743.421 Q984.915 746.384 987.183 748.097 Q989.452 749.764 996.303 751.292 L999.22 751.94 Q1008.29 753.884 1012.09 757.449 Q1015.93 760.968 1015.93 767.31 Q1015.93 774.532 1010.19 778.745 Q1004.5 782.958 994.498 782.958 Q990.331 782.958 985.794 782.125 Q981.303 781.338 976.304 779.718 L976.304 770.921 Q981.026 773.375 985.609 774.625 Q990.192 775.829 994.683 775.829 Q1000.7 775.829 1003.94 773.792 Q1007.18 771.708 1007.18 767.958 Q1007.18 764.486 1004.82 762.634 Q1002.51 760.783 994.59 759.07 L991.628 758.375 Q983.711 756.708 980.192 753.283 Q976.674 749.81 976.674 743.792 Q976.674 736.477 981.859 732.496 Q987.044 728.514 996.581 728.514 Q1001.3 728.514 1005.47 729.209 Q1009.64 729.903 1013.16 731.292 Z" fill="#000000" fill-rule="evenodd" fill-opacity="1" /><polyline clip-path="url(#clip310)" style="stroke:#000000; stroke-linecap:round; stroke-linejoin:round; stroke-width:8; stroke-opacity:1; fill:none" stroke-dasharray="32, 20" points="
  524.772,850.736 680.213,850.736 
  "/>
<path clip-path="url(#clip310)" d="M743.944 841.314 L743.944 813.259 L752.462 813.259 L752.462 885.296 L743.944 885.296 L743.944 877.518 Q741.258 882.148 737.138 884.416 Q733.064 886.638 727.323 886.638 Q717.925 886.638 711.999 879.138 Q706.12 871.638 706.12 859.416 Q706.12 847.194 711.999 839.694 Q717.925 832.194 727.323 832.194 Q733.064 832.194 737.138 834.463 Q741.258 836.685 743.944 841.314 M714.916 859.416 Q714.916 868.814 718.759 874.185 Q722.647 879.509 729.407 879.509 Q736.166 879.509 740.055 874.185 Q743.944 868.814 743.944 859.416 Q743.944 850.018 740.055 844.694 Q736.166 839.324 729.407 839.324 Q722.647 839.324 718.759 844.694 Q714.916 850.018 714.916 859.416 Z" fill="#000000" fill-rule="evenodd" fill-opacity="1" /><path clip-path="url(#clip310)" d="M814.36 857.24 L814.36 861.407 L775.193 861.407 Q775.749 870.203 780.471 874.833 Q785.24 879.416 793.712 879.416 Q798.619 879.416 803.203 878.212 Q807.832 877.009 812.369 874.601 L812.369 882.657 Q807.786 884.601 802.971 885.62 Q798.156 886.638 793.203 886.638 Q780.795 886.638 773.527 879.416 Q766.305 872.194 766.305 859.879 Q766.305 847.148 773.156 839.694 Q780.055 832.194 791.721 832.194 Q802.184 832.194 808.249 838.953 Q814.36 845.666 814.36 857.24 M805.841 854.74 Q805.749 847.75 801.906 843.583 Q798.11 839.416 791.814 839.416 Q784.684 839.416 780.379 843.444 Q776.119 847.472 775.471 854.787 L805.841 854.74 Z" fill="#000000" fill-rule="evenodd" fill-opacity="1" /><path clip-path="url(#clip310)" d="M868.711 843.398 Q871.906 837.657 876.35 834.926 Q880.795 832.194 886.813 832.194 Q894.915 832.194 899.313 837.889 Q903.711 843.537 903.711 854 L903.711 885.296 L895.147 885.296 L895.147 854.277 Q895.147 846.824 892.508 843.213 Q889.869 839.602 884.452 839.602 Q877.832 839.602 873.989 844 Q870.147 848.398 870.147 855.99 L870.147 885.296 L861.582 885.296 L861.582 854.277 Q861.582 846.777 858.943 843.213 Q856.304 839.602 850.795 839.602 Q844.267 839.602 840.425 844.046 Q836.582 848.444 836.582 855.99 L836.582 885.296 L828.017 885.296 L828.017 833.444 L836.582 833.444 L836.582 841.5 Q839.499 836.731 843.573 834.463 Q847.647 832.194 853.249 832.194 Q858.897 832.194 862.832 835.065 Q866.813 837.935 868.711 843.398 Z" fill="#000000" fill-rule="evenodd" fill-opacity="1" /><path clip-path="url(#clip310)" d="M944.267 859.231 Q933.943 859.231 929.961 861.592 Q925.98 863.953 925.98 869.648 Q925.98 874.185 928.943 876.87 Q931.952 879.509 937.091 879.509 Q944.174 879.509 948.433 874.509 Q952.739 869.462 952.739 861.129 L952.739 859.231 L944.267 859.231 M961.257 855.713 L961.257 885.296 L952.739 885.296 L952.739 877.425 Q949.822 882.148 945.47 884.416 Q941.119 886.638 934.822 886.638 Q926.859 886.638 922.137 882.194 Q917.461 877.703 917.461 870.203 Q917.461 861.453 923.295 857.009 Q929.174 852.564 940.794 852.564 L952.739 852.564 L952.739 851.731 Q952.739 845.851 948.85 842.657 Q945.007 839.416 938.017 839.416 Q933.572 839.416 929.359 840.481 Q925.146 841.546 921.258 843.676 L921.258 835.805 Q925.933 834 930.332 833.12 Q934.73 832.194 938.896 832.194 Q950.146 832.194 955.702 838.027 Q961.257 843.861 961.257 855.713 Z" fill="#000000" fill-rule="evenodd" fill-opacity="1" /><path clip-path="url(#clip310)" d="M1021.91 854 L1021.91 885.296 L1013.39 885.296 L1013.39 854.277 Q1013.39 846.916 1010.52 843.259 Q1007.65 839.602 1001.91 839.602 Q995.007 839.602 991.026 844 Q987.044 848.398 987.044 855.99 L987.044 885.296 L978.479 885.296 L978.479 833.444 L987.044 833.444 L987.044 841.5 Q990.1 836.824 994.22 834.509 Q998.387 832.194 1003.8 832.194 Q1012.74 832.194 1017.32 837.75 Q1021.91 843.259 1021.91 854 Z" fill="#000000" fill-rule="evenodd" fill-opacity="1" /><path clip-path="url(#clip310)" d="M1073.02 841.314 L1073.02 813.259 L1081.53 813.259 L1081.53 885.296 L1073.02 885.296 L1073.02 877.518 Q1070.33 882.148 1066.21 884.416 Q1062.14 886.638 1056.4 886.638 Q1047 886.638 1041.07 879.138 Q1035.19 871.638 1035.19 859.416 Q1035.19 847.194 1041.07 839.694 Q1047 832.194 1056.4 832.194 Q1062.14 832.194 1066.21 834.463 Q1070.33 836.685 1073.02 841.314 M1043.99 859.416 Q1043.99 868.814 1047.83 874.185 Q1051.72 879.509 1058.48 879.509 Q1065.24 879.509 1069.13 874.185 Q1073.02 868.814 1073.02 859.416 Q1073.02 850.018 1069.13 844.694 Q1065.24 839.324 1058.48 839.324 Q1051.72 839.324 1047.83 844.694 Q1043.99 850.018 1043.99 859.416 Z" fill="#000000" fill-rule="evenodd" fill-opacity="1" /><polyline clip-path="url(#clip310)" style="stroke:#0000ff; stroke-linecap:round; stroke-linejoin:round; stroke-width:8; stroke-opacity:1; fill:none" stroke-dasharray="4, 8" points="
  524.772,954.416 680.213,954.416 
  "/>
<path clip-path="url(#clip310)" d="M706.12 919.856 L749.823 919.856 L749.823 927.726 L715.472 927.726 L715.472 948.189 L748.388 948.189 L748.388 956.059 L715.472 956.059 L715.472 981.105 L750.657 981.105 L750.657 988.976 L706.12 988.976 L706.12 919.856 Z" fill="#000000" fill-rule="evenodd" fill-opacity="1" /><path clip-path="url(#clip310)" d="M765.656 916.939 L774.175 916.939 L774.175 988.976 L765.656 988.976 L765.656 916.939 Z" fill="#000000" fill-rule="evenodd" fill-opacity="1" /><path clip-path="url(#clip310)" d="M836.351 960.92 L836.351 965.087 L797.184 965.087 Q797.74 973.883 802.462 978.513 Q807.23 983.096 815.703 983.096 Q820.61 983.096 825.193 981.892 Q829.823 980.689 834.36 978.281 L834.36 986.337 Q829.777 988.281 824.962 989.3 Q820.147 990.318 815.193 990.318 Q802.786 990.318 795.517 983.096 Q788.295 975.874 788.295 963.559 Q788.295 950.828 795.147 943.374 Q802.045 935.874 813.712 935.874 Q824.175 935.874 830.239 942.633 Q836.351 949.346 836.351 960.92 M827.832 958.42 Q827.739 951.43 823.897 947.263 Q820.101 943.096 813.804 943.096 Q806.675 943.096 802.369 947.124 Q798.11 951.152 797.462 958.467 L827.832 958.42 Z" fill="#000000" fill-rule="evenodd" fill-opacity="1" /><path clip-path="url(#clip310)" d="M887.647 939.115 L887.647 947.078 Q884.035 945.087 880.378 944.115 Q876.767 943.096 873.063 943.096 Q864.776 943.096 860.193 948.374 Q855.61 953.606 855.61 963.096 Q855.61 972.587 860.193 977.865 Q864.776 983.096 873.063 983.096 Q876.767 983.096 880.378 982.124 Q884.035 981.105 887.647 979.115 L887.647 986.985 Q884.082 988.652 880.239 989.485 Q876.443 990.318 872.137 990.318 Q860.425 990.318 853.526 982.957 Q846.628 975.596 846.628 963.096 Q846.628 950.411 853.573 943.143 Q860.563 935.874 872.693 935.874 Q876.628 935.874 880.378 936.707 Q884.128 937.495 887.647 939.115 Z" fill="#000000" fill-rule="evenodd" fill-opacity="1" /><path clip-path="url(#clip310)" d="M910.887 922.402 L910.887 937.124 L928.433 937.124 L928.433 943.744 L910.887 943.744 L910.887 971.892 Q910.887 978.235 912.6 980.041 Q914.359 981.846 919.683 981.846 L928.433 981.846 L928.433 988.976 L919.683 988.976 Q909.822 988.976 906.072 985.318 Q902.322 981.615 902.322 971.892 L902.322 943.744 L896.072 943.744 L896.072 937.124 L902.322 937.124 L902.322 922.402 L910.887 922.402 Z" fill="#000000" fill-rule="evenodd" fill-opacity="1" /><path clip-path="url(#clip310)" d="M969.683 945.087 Q968.248 944.254 966.535 943.883 Q964.868 943.467 962.831 943.467 Q955.609 943.467 951.72 948.189 Q947.878 952.865 947.878 961.661 L947.878 988.976 L939.313 988.976 L939.313 937.124 L947.878 937.124 L947.878 945.18 Q950.563 940.457 954.868 938.189 Q959.174 935.874 965.331 935.874 Q966.211 935.874 967.276 936.013 Q968.341 936.106 969.637 936.337 L969.683 945.087 Z" fill="#000000" fill-rule="evenodd" fill-opacity="1" /><path clip-path="url(#clip310)" d="M978.618 937.124 L987.137 937.124 L987.137 988.976 L978.618 988.976 L978.618 937.124 M978.618 916.939 L987.137 916.939 L987.137 927.726 L978.618 927.726 L978.618 916.939 Z" fill="#000000" fill-rule="evenodd" fill-opacity="1" /><path clip-path="url(#clip310)" d="M1042.28 939.115 L1042.28 947.078 Q1038.66 945.087 1035.01 944.115 Q1031.4 943.096 1027.69 943.096 Q1019.41 943.096 1014.82 948.374 Q1010.24 953.606 1010.24 963.096 Q1010.24 972.587 1014.82 977.865 Q1019.41 983.096 1027.69 983.096 Q1031.4 983.096 1035.01 982.124 Q1038.66 981.105 1042.28 979.115 L1042.28 986.985 Q1038.71 988.652 1034.87 989.485 Q1031.07 990.318 1026.77 990.318 Q1015.05 990.318 1008.16 982.957 Q1001.26 975.596 1001.26 963.096 Q1001.26 950.411 1008.2 943.143 Q1015.19 935.874 1027.32 935.874 Q1031.26 935.874 1035.01 936.707 Q1038.76 937.495 1042.28 939.115 Z" fill="#000000" fill-rule="evenodd" fill-opacity="1" /><path clip-path="url(#clip310)" d="M1057.09 937.124 L1065.61 937.124 L1065.61 988.976 L1057.09 988.976 L1057.09 937.124 M1057.09 916.939 L1065.61 916.939 L1065.61 927.726 L1057.09 927.726 L1057.09 916.939 Z" fill="#000000" fill-rule="evenodd" fill-opacity="1" /><path clip-path="url(#clip310)" d="M1091.86 922.402 L1091.86 937.124 L1109.4 937.124 L1109.4 943.744 L1091.86 943.744 L1091.86 971.892 Q1091.86 978.235 1093.57 980.041 Q1095.33 981.846 1100.65 981.846 L1109.4 981.846 L1109.4 988.976 L1100.65 988.976 Q1090.79 988.976 1087.04 985.318 Q1083.29 981.615 1083.29 971.892 L1083.29 943.744 L1077.04 943.744 L1077.04 937.124 L1083.29 937.124 L1083.29 922.402 L1091.86 922.402 Z" fill="#000000" fill-rule="evenodd" fill-opacity="1" /><path clip-path="url(#clip310)" d="M1142.18 993.791 Q1138.57 1003.05 1135.15 1005.87 Q1131.72 1008.7 1125.98 1008.7 L1119.17 1008.7 L1119.17 1001.57 L1124.17 1001.57 Q1127.69 1001.57 1129.64 999.902 Q1131.58 998.235 1133.94 992.031 L1135.47 988.142 L1114.5 937.124 L1123.52 937.124 L1139.73 977.679 L1155.93 937.124 L1164.96 937.124 L1142.18 993.791 Z" fill="#000000" fill-rule="evenodd" fill-opacity="1" /><path clip-path="url(#clip310)" d="M1216.58 927.541 L1216.58 953.513 L1228.34 953.513 Q1234.87 953.513 1238.43 950.133 Q1242 946.754 1242 940.504 Q1242 934.3 1238.43 930.92 Q1234.87 927.541 1228.34 927.541 L1216.58 927.541 M1207.23 919.856 L1228.34 919.856 Q1239.96 919.856 1245.89 925.133 Q1251.86 930.365 1251.86 940.504 Q1251.86 950.735 1245.89 955.967 Q1239.96 961.198 1228.34 961.198 L1216.58 961.198 L1216.58 988.976 L1207.23 988.976 L1207.23 919.856 Z" fill="#000000" fill-rule="evenodd" fill-opacity="1" /><path clip-path="url(#clip310)" d="M1292.41 945.087 Q1290.98 944.254 1289.26 943.883 Q1287.6 943.467 1285.56 943.467 Q1278.34 943.467 1274.45 948.189 Q1270.61 952.865 1270.61 961.661 L1270.61 988.976 L1262.04 988.976 L1262.04 937.124 L1270.61 937.124 L1270.61 945.18 Q1273.29 940.457 1277.6 938.189 Q1281.9 935.874 1288.06 935.874 Q1288.94 935.874 1290.01 936.013 Q1291.07 936.106 1292.37 936.337 L1292.41 945.087 Z" fill="#000000" fill-rule="evenodd" fill-opacity="1" /><path clip-path="url(#clip310)" d="M1301.35 937.124 L1309.87 937.124 L1309.87 988.976 L1301.35 988.976 L1301.35 937.124 M1301.35 916.939 L1309.87 916.939 L1309.87 927.726 L1301.35 927.726 L1301.35 916.939 Z" fill="#000000" fill-rule="evenodd" fill-opacity="1" /><path clip-path="url(#clip310)" d="M1365.01 939.115 L1365.01 947.078 Q1361.39 945.087 1357.74 944.115 Q1354.13 943.096 1350.42 943.096 Q1342.13 943.096 1337.55 948.374 Q1332.97 953.606 1332.97 963.096 Q1332.97 972.587 1337.55 977.865 Q1342.13 983.096 1350.42 983.096 Q1354.13 983.096 1357.74 982.124 Q1361.39 981.105 1365.01 979.115 L1365.01 986.985 Q1361.44 988.652 1357.6 989.485 Q1353.8 990.318 1349.5 990.318 Q1337.78 990.318 1330.88 982.957 Q1323.99 975.596 1323.99 963.096 Q1323.99 950.411 1330.93 943.143 Q1337.92 935.874 1350.05 935.874 Q1353.99 935.874 1357.74 936.707 Q1361.49 937.495 1365.01 939.115 Z" fill="#000000" fill-rule="evenodd" fill-opacity="1" /><path clip-path="url(#clip310)" d="M1424.17 960.92 L1424.17 965.087 L1385.01 965.087 Q1385.56 973.883 1390.28 978.513 Q1395.05 983.096 1403.52 983.096 Q1408.43 983.096 1413.01 981.892 Q1417.64 980.689 1422.18 978.281 L1422.18 986.337 Q1417.6 988.281 1412.78 989.3 Q1407.97 990.318 1403.01 990.318 Q1390.61 990.318 1383.34 983.096 Q1376.12 975.874 1376.12 963.559 Q1376.12 950.828 1382.97 943.374 Q1389.87 935.874 1401.53 935.874 Q1412 935.874 1418.06 942.633 Q1424.17 949.346 1424.17 960.92 M1415.65 958.42 Q1415.56 951.43 1411.72 947.263 Q1407.92 943.096 1401.63 943.096 Q1394.5 943.096 1390.19 947.124 Q1385.93 951.152 1385.28 958.467 L1415.65 958.42 Z" fill="#000000" fill-rule="evenodd" fill-opacity="1" /></svg>
