<?xml version="1.0" encoding="utf-8"?>
<svg xmlns="http://www.w3.org/2000/svg" xmlns:xlink="http://www.w3.org/1999/xlink" width="700" height="400" viewBox="0 0 2800 1600">
<defs>
  <clipPath id="clip090">
    <rect x="0" y="0" width="2800" height="1600"/>
  </clipPath>
</defs>
<path clip-path="url(#clip090)" d="
M0 1600 L2800 1600 L2800 0 L0 0  Z
  " fill="#ffffff" fill-rule="evenodd" fill-opacity="1"/>
<defs>
  <clipPath id="clip091">
    <rect x="560" y="0" width="1961" height="1600"/>
  </clipPath>
</defs>
<path clip-path="url(#clip090)" d="
M507.243 1170.98 L2752.76 1170.98 L2752.76 203.701 L507.243 203.701  Z
  " fill="#ffffff" fill-rule="evenodd" fill-opacity="1"/>
<defs>
  <clipPath id="clip092">
    <rect x="507" y="203" width="2247" height="968"/>
  </clipPath>
</defs>
<polyline clip-path="url(#clip090)" style="stroke:#000000; stroke-linecap:round; stroke-linejoin:round; stroke-width:4; stroke-opacity:1; fill:none" points="
  507.243,1170.98 2752.76,1170.98 
  "/>
<polyline clip-path="url(#clip090)" style="stroke:#000000; stroke-linecap:round; stroke-linejoin:round; stroke-width:4; stroke-opacity:1; fill:none" points="
  570.795,1170.98 570.795,1152.08 
  "/>
<polyline clip-path="url(#clip090)" style="stroke:#000000; stroke-linecap:round; stroke-linejoin:round; stroke-width:4; stroke-opacity:1; fill:none" points="
  986.169,1170.98 986.169,1152.08 
  "/>
<polyline clip-path="url(#clip090)" style="stroke:#000000; stroke-linecap:round; stroke-linejoin:round; stroke-width:4; stroke-opacity:1; fill:none" points="
  1401.54,1170.98 1401.54,1152.08 
  "/>
<polyline clip-path="url(#clip090)" style="stroke:#000000; stroke-linecap:round; stroke-linejoin:round; stroke-width:4; stroke-opacity:1; fill:none" points="
  1816.92,1170.98 1816.92,1152.08 
  "/>
<polyline clip-path="url(#clip090)" style="stroke:#000000; stroke-linecap:round; stroke-linejoin:round; stroke-width:4; stroke-opacity:1; fill:none" points="
  2232.29,1170.98 2232.29,1152.08 
  "/>
<polyline clip-path="url(#clip090)" style="stroke:#000000; stroke-linecap:round; stroke-linejoin:round; stroke-width:4; stroke-opacity:1; fill:none" points="
  2647.67,1170.98 2647.67,1152.08 
  "/>
<path clip-path="url(#clip090)" d="M570.795 1225.61 Q560.864 1225.61 555.835 1235.41 Q550.87 1245.15 550.87 1264.75 Q550.87 1284.3 555.835 1294.1 Q560.864 1303.84 570.795 1303.84 Q580.789 1303.84 585.754 1294.1 Q590.783 1284.3 590.783 1264.75 Q590.783 1245.15 585.754 1235.41 Q580.789 1225.61 570.795 1225.61 M570.795 1215.42 Q586.773 1215.42 595.175 1228.09 Q603.642 1240.69 603.642 1264.75 Q603.642 1288.75 595.175 1301.42 Q586.773 1314.03 570.795 1314.03 Q554.817 1314.03 546.351 1301.42 Q537.948 1288.75 537.948 1264.75 Q537.948 1240.69 546.351 1228.09 Q554.817 1215.42 570.795 1215.42 Z" fill="#000000" fill-rule="evenodd" fill-opacity="1" /><path clip-path="url(#clip090)" d="M875.119 1217.14 L925.599 1217.14 L925.599 1227.96 L886.896 1227.96 L886.896 1251.26 Q889.697 1250.3 892.498 1249.86 Q895.299 1249.35 898.1 1249.35 Q914.014 1249.35 923.308 1258.07 Q932.602 1266.79 932.602 1281.69 Q932.602 1297.03 923.053 1305.56 Q913.505 1314.03 896.126 1314.03 Q890.142 1314.03 883.904 1313.01 Q877.729 1311.99 871.109 1309.95 L871.109 1297.03 Q876.838 1300.15 882.949 1301.68 Q889.06 1303.2 895.872 1303.2 Q906.884 1303.2 913.314 1297.41 Q919.743 1291.62 919.743 1281.69 Q919.743 1271.76 913.314 1265.96 Q906.884 1260.17 895.872 1260.17 Q890.715 1260.17 885.559 1261.32 Q880.467 1262.46 875.119 1264.88 L875.119 1217.14 Z" fill="#000000" fill-rule="evenodd" fill-opacity="1" /><path clip-path="url(#clip090)" d="M985.437 1225.61 Q975.507 1225.61 970.478 1235.41 Q965.512 1245.15 965.512 1264.75 Q965.512 1284.3 970.478 1294.1 Q975.507 1303.84 985.437 1303.84 Q995.431 1303.84 1000.4 1294.1 Q1005.43 1284.3 1005.43 1264.75 Q1005.43 1245.15 1000.4 1235.41 Q995.431 1225.61 985.437 1225.61 M985.437 1215.42 Q1001.41 1215.42 1009.82 1228.09 Q1018.28 1240.69 1018.28 1264.75 Q1018.28 1288.75 1009.82 1301.42 Q1001.41 1314.03 985.437 1314.03 Q969.459 1314.03 960.993 1301.42 Q952.59 1288.75 952.59 1264.75 Q952.59 1240.69 960.993 1228.09 Q969.459 1215.42 985.437 1215.42 Z" fill="#000000" fill-rule="evenodd" fill-opacity="1" /><path clip-path="url(#clip090)" d="M1068.38 1225.61 Q1058.45 1225.61 1053.42 1235.41 Q1048.46 1245.15 1048.46 1264.75 Q1048.46 1284.3 1053.42 1294.1 Q1058.45 1303.84 1068.38 1303.84 Q1078.38 1303.84 1083.34 1294.1 Q1088.37 1284.3 1088.37 1264.75 Q1088.37 1245.15 1083.34 1235.41 Q1078.38 1225.61 1068.38 1225.61 M1068.38 1215.42 Q1084.36 1215.42 1092.76 1228.09 Q1101.23 1240.69 1101.23 1264.75 Q1101.23 1288.75 1092.76 1301.42 Q1084.36 1314.03 1068.38 1314.03 Q1052.4 1314.03 1043.94 1301.42 Q1035.54 1288.75 1035.54 1264.75 Q1035.54 1240.69 1043.94 1228.09 Q1052.4 1215.42 1068.38 1215.42 Z" fill="#000000" fill-rule="evenodd" fill-opacity="1" /><path clip-path="url(#clip090)" d="M1248.99 1301.36 L1270 1301.36 L1270 1228.85 L1247.14 1233.44 L1247.14 1221.72 L1269.87 1217.14 L1282.73 1217.14 L1282.73 1301.36 L1303.73 1301.36 L1303.73 1312.18 L1248.99 1312.18 L1248.99 1301.36 Z" fill="#000000" fill-rule="evenodd" fill-opacity="1" /><path clip-path="url(#clip090)" d="M1357.21 1225.61 Q1347.28 1225.61 1342.25 1235.41 Q1337.28 1245.15 1337.28 1264.75 Q1337.28 1284.3 1342.25 1294.1 Q1347.28 1303.84 1357.21 1303.84 Q1367.2 1303.84 1372.17 1294.1 Q1377.19 1284.3 1377.19 1264.75 Q1377.19 1245.15 1372.17 1235.41 Q1367.2 1225.61 1357.21 1225.61 M1357.21 1215.42 Q1373.18 1215.42 1381.59 1228.09 Q1390.05 1240.69 1390.05 1264.75 Q1390.05 1288.75 1381.59 1301.42 Q1373.18 1314.03 1357.21 1314.03 Q1341.23 1314.03 1332.76 1301.42 Q1324.36 1288.75 1324.36 1264.75 Q1324.36 1240.69 1332.76 1228.09 Q1341.23 1215.42 1357.21 1215.42 Z" fill="#000000" fill-rule="evenodd" fill-opacity="1" /><path clip-path="url(#clip090)" d="M1440.15 1225.61 Q1430.22 1225.61 1425.19 1235.41 Q1420.23 1245.15 1420.23 1264.75 Q1420.23 1284.3 1425.19 1294.1 Q1430.22 1303.84 1440.15 1303.84 Q1450.15 1303.84 1455.11 1294.1 Q1460.14 1284.3 1460.14 1264.75 Q1460.14 1245.15 1455.11 1235.41 Q1450.15 1225.61 1440.15 1225.61 M1440.15 1215.42 Q1456.13 1215.42 1464.53 1228.09 Q1473 1240.69 1473 1264.75 Q1473 1288.75 1464.53 1301.42 Q1456.13 1314.03 1440.15 1314.03 Q1424.17 1314.03 1415.71 1301.42 Q1407.3 1288.75 1407.3 1264.75 Q1407.3 1240.69 1415.71 1228.09 Q1424.17 1215.42 1440.15 1215.42 Z" fill="#000000" fill-rule="evenodd" fill-opacity="1" /><path clip-path="url(#clip090)" d="M1523.1 1225.61 Q1513.17 1225.61 1508.14 1235.41 Q1503.17 1245.15 1503.17 1264.75 Q1503.17 1284.3 1508.14 1294.1 Q1513.17 1303.84 1523.1 1303.84 Q1533.09 1303.84 1538.06 1294.1 Q1543.08 1284.3 1543.08 1264.75 Q1543.08 1245.15 1538.06 1235.41 Q1533.09 1225.61 1523.1 1225.61 M1523.1 1215.42 Q1539.07 1215.42 1547.48 1228.09 Q1555.94 1240.69 1555.94 1264.75 Q1555.94 1288.75 1547.48 1301.42 Q1539.07 1314.03 1523.1 1314.03 Q1507.12 1314.03 1498.65 1301.42 Q1490.25 1288.75 1490.25 1264.75 Q1490.25 1240.69 1498.65 1228.09 Q1507.12 1215.42 1523.1 1215.42 Z" fill="#000000" fill-rule="evenodd" fill-opacity="1" /><path clip-path="url(#clip090)" d="M1664.36 1301.36 L1685.37 1301.36 L1685.37 1228.85 L1662.52 1233.44 L1662.52 1221.72 L1685.24 1217.14 L1698.1 1217.14 L1698.1 1301.36 L1719.11 1301.36 L1719.11 1312.18 L1664.36 1312.18 L1664.36 1301.36 Z" fill="#000000" fill-rule="evenodd" fill-opacity="1" /><path clip-path="url(#clip090)" d="M1745.21 1217.14 L1795.69 1217.14 L1795.69 1227.96 L1756.98 1227.96 L1756.98 1251.26 Q1759.79 1250.3 1762.59 1249.86 Q1765.39 1249.35 1768.19 1249.35 Q1784.1 1249.35 1793.4 1258.07 Q1802.69 1266.79 1802.69 1281.69 Q1802.69 1297.03 1793.14 1305.56 Q1783.59 1314.03 1766.21 1314.03 Q1760.23 1314.03 1753.99 1313.01 Q1747.82 1311.99 1741.2 1309.95 L1741.2 1297.03 Q1746.93 1300.15 1753.04 1301.68 Q1759.15 1303.2 1765.96 1303.2 Q1776.97 1303.2 1783.4 1297.41 Q1789.83 1291.62 1789.83 1281.69 Q1789.83 1271.76 1783.4 1265.96 Q1776.97 1260.17 1765.96 1260.17 Q1760.8 1260.17 1755.65 1261.32 Q1750.56 1262.46 1745.21 1264.88 L1745.21 1217.14 Z" fill="#000000" fill-rule="evenodd" fill-opacity="1" /><path clip-path="url(#clip090)" d="M1855.53 1225.61 Q1845.6 1225.61 1840.57 1235.41 Q1835.6 1245.15 1835.6 1264.75 Q1835.6 1284.3 1840.57 1294.1 Q1845.6 1303.84 1855.53 1303.84 Q1865.52 1303.84 1870.49 1294.1 Q1875.51 1284.3 1875.51 1264.75 Q1875.51 1245.15 1870.49 1235.41 Q1865.52 1225.61 1855.53 1225.61 M1855.53 1215.42 Q1871.5 1215.42 1879.91 1228.09 Q1888.37 1240.69 1888.37 1264.75 Q1888.37 1288.75 1879.91 1301.42 Q1871.5 1314.03 1855.53 1314.03 Q1839.55 1314.03 1831.08 1301.42 Q1822.68 1288.75 1822.68 1264.75 Q1822.68 1240.69 1831.08 1228.09 Q1839.55 1215.42 1855.53 1215.42 Z" fill="#000000" fill-rule="evenodd" fill-opacity="1" /><path clip-path="url(#clip090)" d="M1938.47 1225.61 Q1928.54 1225.61 1923.51 1235.41 Q1918.55 1245.15 1918.55 1264.75 Q1918.55 1284.3 1923.51 1294.1 Q1928.54 1303.84 1938.47 1303.84 Q1948.46 1303.84 1953.43 1294.1 Q1958.46 1284.3 1958.46 1264.75 Q1958.46 1245.15 1953.43 1235.41 Q1948.46 1225.61 1938.47 1225.61 M1938.47 1215.42 Q1954.45 1215.42 1962.85 1228.09 Q1971.32 1240.69 1971.32 1264.75 Q1971.32 1288.75 1962.85 1301.42 Q1954.45 1314.03 1938.47 1314.03 Q1922.49 1314.03 1914.03 1301.42 Q1905.62 1288.75 1905.62 1264.75 Q1905.62 1240.69 1914.03 1228.09 Q1922.49 1215.42 1938.47 1215.42 Z" fill="#000000" fill-rule="evenodd" fill-opacity="1" /><path clip-path="url(#clip090)" d="M2090.97 1301.36 L2135.85 1301.36 L2135.85 1312.18 L2075.5 1312.18 L2075.5 1301.36 Q2082.83 1293.78 2095.43 1281.05 Q2108.1 1268.26 2111.34 1264.56 Q2117.52 1257.62 2119.94 1252.85 Q2122.42 1248.01 2122.42 1243.37 Q2122.42 1235.79 2117.07 1231.02 Q2111.79 1226.24 2103.26 1226.24 Q2097.21 1226.24 2090.46 1228.34 Q2083.78 1230.44 2076.14 1234.71 L2076.14 1221.72 Q2083.91 1218.6 2090.65 1217.01 Q2097.4 1215.42 2103 1215.42 Q2117.77 1215.42 2126.56 1222.8 Q2135.34 1230.19 2135.34 1242.54 Q2135.34 1248.39 2133.11 1253.68 Q2130.95 1258.9 2125.16 1266.03 Q2123.57 1267.87 2115.04 1276.72 Q2106.51 1285.51 2090.97 1301.36 Z" fill="#000000" fill-rule="evenodd" fill-opacity="1" /><path clip-path="url(#clip090)" d="M2190.34 1225.61 Q2180.41 1225.61 2175.38 1235.41 Q2170.42 1245.15 2170.42 1264.75 Q2170.42 1284.3 2175.38 1294.1 Q2180.41 1303.84 2190.34 1303.84 Q2200.34 1303.84 2205.3 1294.1 Q2210.33 1284.3 2210.33 1264.75 Q2210.33 1245.15 2205.3 1235.41 Q2200.34 1225.61 2190.34 1225.61 M2190.34 1215.42 Q2206.32 1215.42 2214.72 1228.09 Q2223.19 1240.69 2223.19 1264.75 Q2223.19 1288.75 2214.72 1301.42 Q2206.32 1314.03 2190.34 1314.03 Q2174.36 1314.03 2165.9 1301.42 Q2157.49 1288.75 2157.49 1264.75 Q2157.49 1240.69 2165.9 1228.09 Q2174.36 1215.42 2190.34 1215.42 Z" fill="#000000" fill-rule="evenodd" fill-opacity="1" /><path clip-path="url(#clip090)" d="M2273.29 1225.61 Q2263.36 1225.61 2258.33 1235.41 Q2253.36 1245.15 2253.36 1264.75 Q2253.36 1284.3 2258.33 1294.1 Q2263.36 1303.84 2273.29 1303.84 Q2283.28 1303.84 2288.25 1294.1 Q2293.28 1284.3 2293.28 1264.75 Q2293.28 1245.15 2288.25 1235.41 Q2283.28 1225.61 2273.29 1225.61 M2273.29 1215.42 Q2289.27 1215.42 2297.67 1228.09 Q2306.13 1240.69 2306.13 1264.75 Q2306.13 1288.75 2297.67 1301.42 Q2289.27 1314.03 2273.29 1314.03 Q2257.31 1314.03 2248.84 1301.42 Q2240.44 1288.75 2240.44 1264.75 Q2240.44 1240.69 2248.84 1228.09 Q2257.31 1215.42 2273.29 1215.42 Z" fill="#000000" fill-rule="evenodd" fill-opacity="1" /><path clip-path="url(#clip090)" d="M2356.23 1225.61 Q2346.3 1225.61 2341.27 1235.41 Q2336.31 1245.15 2336.31 1264.75 Q2336.31 1284.3 2341.27 1294.1 Q2346.3 1303.84 2356.23 1303.84 Q2366.23 1303.84 2371.19 1294.1 Q2376.22 1284.3 2376.22 1264.75 Q2376.22 1245.15 2371.19 1235.41 Q2366.23 1225.61 2356.23 1225.61 M2356.23 1215.42 Q2372.21 1215.42 2380.61 1228.09 Q2389.08 1240.69 2389.08 1264.75 Q2389.08 1288.75 2380.61 1301.42 Q2372.21 1314.03 2356.23 1314.03 Q2340.25 1314.03 2331.79 1301.42 Q2323.39 1288.75 2323.39 1264.75 Q2323.39 1240.69 2331.79 1228.09 Q2340.25 1215.42 2356.23 1215.42 Z" fill="#000000" fill-rule="evenodd" fill-opacity="1" /><path clip-path="url(#clip090)" d="M2506.35 1301.36 L2551.23 1301.36 L2551.23 1312.18 L2490.88 1312.18 L2490.88 1301.36 Q2498.2 1293.78 2510.8 1281.05 Q2523.47 1268.26 2526.72 1264.56 Q2532.89 1257.62 2535.31 1252.85 Q2537.79 1248.01 2537.79 1243.37 Q2537.79 1235.79 2532.45 1231.02 Q2527.16 1226.24 2518.63 1226.24 Q2512.59 1226.24 2505.84 1228.34 Q2499.15 1230.44 2491.52 1234.71 L2491.52 1221.72 Q2499.28 1218.6 2506.03 1217.01 Q2512.78 1215.42 2518.38 1215.42 Q2533.15 1215.42 2541.93 1222.8 Q2550.72 1230.19 2550.72 1242.54 Q2550.72 1248.39 2548.49 1253.68 Q2546.32 1258.9 2540.53 1266.03 Q2538.94 1267.87 2530.41 1276.72 Q2521.88 1285.51 2506.35 1301.36 Z" fill="#000000" fill-rule="evenodd" fill-opacity="1" /><path clip-path="url(#clip090)" d="M2578.34 1217.14 L2628.82 1217.14 L2628.82 1227.96 L2590.12 1227.96 L2590.12 1251.26 Q2592.92 1250.3 2595.72 1249.86 Q2598.52 1249.35 2601.32 1249.35 Q2617.24 1249.35 2626.53 1258.07 Q2635.83 1266.79 2635.83 1281.69 Q2635.83 1297.03 2626.28 1305.56 Q2616.73 1314.03 2599.35 1314.03 Q2593.37 1314.03 2587.13 1313.01 Q2580.95 1311.99 2574.33 1309.95 L2574.33 1297.03 Q2580.06 1300.15 2586.17 1301.68 Q2592.28 1303.2 2599.1 1303.2 Q2610.11 1303.2 2616.54 1297.41 Q2622.97 1291.62 2622.97 1281.69 Q2622.97 1271.76 2616.54 1265.96 Q2610.11 1260.17 2599.1 1260.17 Q2593.94 1260.17 2588.78 1261.32 Q2583.69 1262.46 2578.34 1264.88 L2578.34 1217.14 Z" fill="#000000" fill-rule="evenodd" fill-opacity="1" /><path clip-path="url(#clip090)" d="M2688.66 1225.61 Q2678.73 1225.61 2673.7 1235.41 Q2668.74 1245.15 2668.74 1264.75 Q2668.74 1284.3 2673.7 1294.1 Q2678.73 1303.84 2688.66 1303.84 Q2698.66 1303.84 2703.62 1294.1 Q2708.65 1284.3 2708.65 1264.75 Q2708.65 1245.15 2703.62 1235.41 Q2698.66 1225.61 2688.66 1225.61 M2688.66 1215.42 Q2704.64 1215.42 2713.04 1228.09 Q2721.51 1240.69 2721.51 1264.75 Q2721.51 1288.75 2713.04 1301.42 Q2704.64 1314.03 2688.66 1314.03 Q2672.68 1314.03 2664.22 1301.42 Q2655.81 1288.75 2655.81 1264.75 Q2655.81 1240.69 2664.22 1228.09 Q2672.68 1215.42 2688.66 1215.42 Z" fill="#000000" fill-rule="evenodd" fill-opacity="1" /><path clip-path="url(#clip090)" d="M2771.61 1225.61 Q2761.68 1225.61 2756.65 1235.41 Q2751.68 1245.15 2751.68 1264.75 Q2751.68 1284.3 2756.65 1294.1 Q2761.68 1303.84 2771.61 1303.84 Q2781.6 1303.84 2786.57 1294.1 Q2791.59 1284.3 2791.59 1264.75 Q2791.59 1245.15 2786.57 1235.41 Q2781.6 1225.61 2771.61 1225.61 M2771.61 1215.42 Q2787.58 1215.42 2795.99 1228.09 Q2804.45 1240.69 2804.45 1264.75 Q2804.45 1288.75 2795.99 1301.42 Q2787.58 1314.03 2771.61 1314.03 Q2755.63 1314.03 2747.16 1301.42 Q2738.76 1288.75 2738.76 1264.75 Q2738.76 1240.69 2747.16 1228.09 Q2755.63 1215.42 2771.61 1215.42 Z" fill="#000000" fill-rule="evenodd" fill-opacity="1" /><path clip-path="url(#clip090)" d="M1096.5 1391.44 L1096.5 1409.93 Q1087.64 1401.68 1077.57 1397.6 Q1067.59 1393.52 1056.3 1393.52 Q1034.08 1393.52 1022.28 1407.15 Q1010.47 1420.69 1010.47 1446.39 Q1010.47 1472 1022.28 1485.63 Q1034.08 1499.17 1056.3 1499.17 Q1067.59 1499.17 1077.57 1495.09 Q1087.64 1491.01 1096.5 1482.76 L1096.5 1501.08 Q1087.29 1507.33 1076.96 1510.45 Q1066.72 1513.58 1055.26 1513.58 Q1025.84 1513.58 1008.91 1495.61 Q991.982 1477.55 991.982 1446.39 Q991.982 1415.14 1008.91 1397.17 Q1025.84 1379.12 1055.26 1379.12 Q1066.89 1379.12 1077.14 1382.24 Q1087.47 1385.28 1096.5 1391.44 Z" fill="#000000" fill-rule="evenodd" fill-opacity="1" /><path clip-path="url(#clip090)" d="M1167.07 1462.19 Q1147.71 1462.19 1140.24 1466.61 Q1132.78 1471.04 1132.78 1481.72 Q1132.78 1490.23 1138.34 1495.26 Q1143.98 1500.21 1153.61 1500.21 Q1166.89 1500.21 1174.88 1490.83 Q1182.95 1481.37 1182.95 1465.75 L1182.95 1462.19 L1167.07 1462.19 M1198.93 1455.59 L1198.93 1511.06 L1182.95 1511.06 L1182.95 1496.3 Q1177.48 1505.16 1169.32 1509.41 Q1161.16 1513.58 1149.36 1513.58 Q1134.43 1513.58 1125.57 1505.24 Q1116.81 1496.82 1116.81 1482.76 Q1116.81 1466.35 1127.74 1458.02 Q1138.77 1449.69 1160.56 1449.69 L1182.95 1449.69 L1182.95 1448.13 Q1182.95 1437.1 1175.66 1431.11 Q1168.46 1425.04 1155.35 1425.04 Q1147.02 1425.04 1139.12 1427.03 Q1131.22 1429.03 1123.93 1433.02 L1123.93 1418.26 Q1132.69 1414.88 1140.94 1413.23 Q1149.19 1411.49 1157 1411.49 Q1178.09 1411.49 1188.51 1422.43 Q1198.93 1433.37 1198.93 1455.59 Z" fill="#000000" fill-rule="evenodd" fill-opacity="1" /><path clip-path="url(#clip090)" d="M1247.28 1496.48 L1247.28 1548.04 L1231.22 1548.04 L1231.22 1413.84 L1247.28 1413.84 L1247.28 1428.59 Q1252.31 1419.91 1259.95 1415.75 Q1267.67 1411.49 1278.35 1411.49 Q1296.06 1411.49 1307.08 1425.56 Q1318.2 1439.62 1318.2 1462.53 Q1318.2 1485.45 1307.08 1499.51 Q1296.06 1513.58 1278.35 1513.58 Q1267.67 1513.58 1259.95 1509.41 Q1252.31 1505.16 1247.28 1496.48 M1301.62 1462.53 Q1301.62 1444.91 1294.32 1434.93 Q1287.12 1424.86 1274.45 1424.86 Q1261.77 1424.86 1254.48 1434.93 Q1247.28 1444.91 1247.28 1462.53 Q1247.28 1480.16 1254.48 1490.23 Q1261.77 1500.21 1274.45 1500.21 Q1287.12 1500.21 1294.32 1490.23 Q1301.62 1480.16 1301.62 1462.53 Z" fill="#000000" fill-rule="evenodd" fill-opacity="1" /><path clip-path="url(#clip090)" d="M1388.85 1462.19 Q1369.5 1462.19 1362.03 1466.61 Q1354.57 1471.04 1354.57 1481.72 Q1354.57 1490.23 1360.12 1495.26 Q1365.76 1500.21 1375.4 1500.21 Q1388.68 1500.21 1396.67 1490.83 Q1404.74 1481.37 1404.74 1465.75 L1404.74 1462.19 L1388.85 1462.19 M1420.71 1455.59 L1420.71 1511.06 L1404.74 1511.06 L1404.74 1496.3 Q1399.27 1505.16 1391.11 1509.41 Q1382.95 1513.58 1371.15 1513.58 Q1356.22 1513.58 1347.36 1505.24 Q1338.59 1496.82 1338.59 1482.76 Q1338.59 1466.35 1349.53 1458.02 Q1360.56 1449.69 1382.34 1449.69 L1404.74 1449.69 L1404.74 1448.13 Q1404.74 1437.1 1397.45 1431.11 Q1390.24 1425.04 1377.14 1425.04 Q1368.8 1425.04 1360.9 1427.03 Q1353 1429.03 1345.71 1433.02 L1345.71 1418.26 Q1354.48 1414.88 1362.73 1413.23 Q1370.97 1411.49 1378.79 1411.49 Q1399.88 1411.49 1410.3 1422.43 Q1420.71 1433.37 1420.71 1455.59 Z" fill="#000000" fill-rule="evenodd" fill-opacity="1" /><path clip-path="url(#clip090)" d="M1523.58 1417.57 L1523.58 1432.5 Q1516.81 1428.77 1509.95 1426.94 Q1503.18 1425.04 1496.23 1425.04 Q1480.69 1425.04 1472.1 1434.93 Q1463.51 1444.74 1463.51 1462.53 Q1463.51 1480.33 1472.1 1490.23 Q1480.69 1500.03 1496.23 1500.03 Q1503.18 1500.03 1509.95 1498.21 Q1516.81 1496.3 1523.58 1492.57 L1523.58 1507.33 Q1516.89 1510.45 1509.69 1512.01 Q1502.57 1513.58 1494.5 1513.58 Q1472.53 1513.58 1459.6 1499.77 Q1446.67 1485.97 1446.67 1462.53 Q1446.67 1438.75 1459.69 1425.12 Q1472.8 1411.49 1495.54 1411.49 Q1502.92 1411.49 1509.95 1413.06 Q1516.98 1414.53 1523.58 1417.57 Z" fill="#000000" fill-rule="evenodd" fill-opacity="1" /><path clip-path="url(#clip090)" d="M1551.35 1413.84 L1567.33 1413.84 L1567.33 1511.06 L1551.35 1511.06 L1551.35 1413.84 M1551.35 1375.99 L1567.33 1375.99 L1567.33 1396.22 L1551.35 1396.22 L1551.35 1375.99 Z" fill="#000000" fill-rule="evenodd" fill-opacity="1" /><path clip-path="url(#clip090)" d="M1616.54 1386.23 L1616.54 1413.84 L1649.44 1413.84 L1649.44 1426.25 L1616.54 1426.25 L1616.54 1479.03 Q1616.54 1490.92 1619.76 1494.31 Q1623.05 1497.69 1633.04 1497.69 L1649.44 1497.69 L1649.44 1511.06 L1633.04 1511.06 Q1614.55 1511.06 1607.52 1504.2 Q1600.49 1497.26 1600.49 1479.03 L1600.49 1426.25 L1588.77 1426.25 L1588.77 1413.84 L1600.49 1413.84 L1600.49 1386.23 L1616.54 1386.23 Z" fill="#000000" fill-rule="evenodd" fill-opacity="1" /><path clip-path="url(#clip090)" d="M1710.9 1520.09 Q1704.13 1537.45 1697.71 1542.74 Q1691.28 1548.04 1680.52 1548.04 L1667.76 1548.04 L1667.76 1534.67 L1677.13 1534.67 Q1683.73 1534.67 1687.38 1531.54 Q1691.02 1528.42 1695.45 1516.79 L1698.31 1509.5 L1658.99 1413.84 L1675.92 1413.84 L1706.3 1489.88 L1736.68 1413.84 L1753.61 1413.84 L1710.9 1520.09 Z" fill="#000000" fill-rule="evenodd" fill-opacity="1" /><path clip-path="url(#clip090)" d="M1870.54 1376.16 Q1858.9 1396.13 1853.26 1415.66 Q1847.62 1435.19 1847.62 1455.24 Q1847.62 1475.3 1853.26 1495 Q1858.99 1514.62 1870.54 1534.5 L1856.65 1534.5 Q1843.63 1514.1 1837.12 1494.39 Q1830.69 1474.69 1830.69 1455.24 Q1830.69 1435.89 1837.12 1416.27 Q1843.54 1396.65 1856.65 1376.16 L1870.54 1376.16 Z" fill="#000000" fill-rule="evenodd" fill-opacity="1" /><path clip-path="url(#clip090)" d="M1902.22 1381.46 L1928.35 1381.46 L1961.42 1469.65 L1994.67 1381.46 L2020.8 1381.46 L2020.8 1511.06 L2003.7 1511.06 L2003.7 1397.26 L1970.28 1486.15 L1952.65 1486.15 L1919.23 1397.26 L1919.23 1511.06 L1902.22 1511.06 L1902.22 1381.46 Z" fill="#000000" fill-rule="evenodd" fill-opacity="1" /><path clip-path="url(#clip090)" d="M2044.06 1381.46 L2061.77 1381.46 L2089.02 1491.01 L2116.19 1381.46 L2135.9 1381.46 L2163.16 1491.01 L2190.33 1381.46 L2208.12 1381.46 L2175.57 1511.06 L2153.52 1511.06 L2126.18 1398.56 L2098.57 1511.06 L2076.52 1511.06 L2044.06 1381.46 Z" fill="#000000" fill-rule="evenodd" fill-opacity="1" /><path clip-path="url(#clip090)" d="M2228.17 1376.16 L2242.06 1376.16 Q2255.08 1396.65 2261.51 1416.27 Q2268.02 1435.89 2268.02 1455.24 Q2268.02 1474.69 2261.51 1494.39 Q2255.08 1514.1 2242.06 1534.5 L2228.17 1534.5 Q2239.72 1514.62 2245.36 1495 Q2251.09 1475.3 2251.09 1455.24 Q2251.09 1435.19 2245.36 1415.66 Q2239.72 1396.13 2228.17 1376.16 Z" fill="#000000" fill-rule="evenodd" fill-opacity="1" /><polyline clip-path="url(#clip090)" style="stroke:#000000; stroke-linecap:round; stroke-linejoin:round; stroke-width:4; stroke-opacity:1; fill:none" points="
  507.243,1170.98 507.243,203.701 
  "/>
<polyline clip-path="url(#clip090)" style="stroke:#000000; stroke-linecap:round; stroke-linejoin:round; stroke-width:4; stroke-opacity:1; fill:none" points="
  507.243,1143.6 526.14,1143.6 
  "/>
<polyline clip-path="url(#clip090)" style="stroke:#000000; stroke-linecap:round; stroke-linejoin:round; stroke-width:4; stroke-opacity:1; fill:none" points="
  507.243,945.228 526.14,945.228 
  "/>
<polyline clip-path="url(#clip090)" style="stroke:#000000; stroke-linecap:round; stroke-linejoin:round; stroke-width:4; stroke-opacity:1; fill:none" points="
  507.243,746.852 526.14,746.852 
  "/>
<polyline clip-path="url(#clip090)" style="stroke:#000000; stroke-linecap:round; stroke-linejoin:round; stroke-width:4; stroke-opacity:1; fill:none" points="
  507.243,548.477 526.14,548.477 
  "/>
<polyline clip-path="url(#clip090)" style="stroke:#000000; stroke-linecap:round; stroke-linejoin:round; stroke-width:4; stroke-opacity:1; fill:none" points="
  507.243,350.102 526.14,350.102 
  "/>
<path clip-path="url(#clip090)" d="M432.396 1104.55 Q422.465 1104.55 417.436 1114.35 Q412.471 1124.09 412.471 1143.7 Q412.471 1163.24 417.436 1173.04 Q422.465 1182.78 432.396 1182.78 Q442.39 1182.78 447.355 1173.04 Q452.384 1163.24 452.384 1143.7 Q452.384 1124.09 447.355 1114.35 Q442.39 1104.55 432.396 1104.55 M432.396 1094.36 Q448.373 1094.36 456.776 1107.03 Q465.243 1119.64 465.243 1143.7 Q465.243 1167.7 456.776 1180.37 Q448.373 1192.97 432.396 1192.97 Q416.418 1192.97 407.951 1180.37 Q399.548 1167.7 399.548 1143.7 Q399.548 1119.64 407.951 1107.03 Q416.418 1094.36 432.396 1094.36 Z" fill="#000000" fill-rule="evenodd" fill-opacity="1" /><path clip-path="url(#clip090)" d="M407.76 897.708 L458.24 897.708 L458.24 908.53 L419.537 908.53 L419.537 931.828 Q422.338 930.873 425.139 930.428 Q427.94 929.918 430.74 929.918 Q446.655 929.918 455.949 938.639 Q465.243 947.36 465.243 962.256 Q465.243 977.597 455.694 986.127 Q446.145 994.594 428.767 994.594 Q422.783 994.594 416.545 993.575 Q410.37 992.557 403.75 990.52 L403.75 977.597 Q409.479 980.717 415.59 982.244 Q421.701 983.772 428.512 983.772 Q439.525 983.772 445.954 977.979 Q452.384 972.187 452.384 962.256 Q452.384 952.326 445.954 946.533 Q439.525 940.74 428.512 940.74 Q423.356 940.74 418.2 941.886 Q413.107 943.032 407.76 945.451 L407.76 897.708 Z" fill="#000000" fill-rule="evenodd" fill-opacity="1" /><path clip-path="url(#clip090)" d="M324.178 783.551 L345.185 783.551 L345.185 711.045 L322.332 715.629 L322.332 703.916 L345.058 699.332 L357.917 699.332 L357.917 783.551 L378.924 783.551 L378.924 794.372 L324.178 794.372 L324.178 783.551 Z" fill="#000000" fill-rule="evenodd" fill-opacity="1" /><path clip-path="url(#clip090)" d="M432.396 707.799 Q422.465 707.799 417.436 717.602 Q412.471 727.342 412.471 746.948 Q412.471 766.491 417.436 776.294 Q422.465 786.033 432.396 786.033 Q442.39 786.033 447.355 776.294 Q452.384 766.491 452.384 746.948 Q452.384 727.342 447.355 717.602 Q442.39 707.799 432.396 707.799 M432.396 697.614 Q448.373 697.614 456.776 710.281 Q465.243 722.886 465.243 746.948 Q465.243 770.947 456.776 783.614 Q448.373 796.219 432.396 796.219 Q416.418 796.219 407.951 783.614 Q399.548 770.947 399.548 746.948 Q399.548 722.886 407.951 710.281 Q416.418 697.614 432.396 697.614 Z" fill="#000000" fill-rule="evenodd" fill-opacity="1" /><path clip-path="url(#clip090)" d="M326.916 585.175 L347.923 585.175 L347.923 512.67 L325.07 517.253 L325.07 505.54 L347.795 500.957 L360.654 500.957 L360.654 585.175 L381.661 585.175 L381.661 595.997 L326.916 595.997 L326.916 585.175 Z" fill="#000000" fill-rule="evenodd" fill-opacity="1" /><path clip-path="url(#clip090)" d="M407.76 500.957 L458.24 500.957 L458.24 511.779 L419.537 511.779 L419.537 535.077 Q422.338 534.122 425.139 533.677 Q427.94 533.168 430.74 533.168 Q446.655 533.168 455.949 541.889 Q465.243 550.61 465.243 565.505 Q465.243 580.847 455.694 589.377 Q446.145 597.843 428.767 597.843 Q422.783 597.843 416.545 596.825 Q410.37 595.806 403.75 593.769 L403.75 580.847 Q409.479 583.966 415.59 585.494 Q421.701 587.021 428.512 587.021 Q439.525 587.021 445.954 581.229 Q452.384 575.436 452.384 565.505 Q452.384 555.575 445.954 549.782 Q439.525 543.989 428.512 543.989 Q423.356 543.989 418.2 545.135 Q413.107 546.281 407.76 548.7 L407.76 500.957 Z" fill="#000000" fill-rule="evenodd" fill-opacity="1" /><path clip-path="url(#clip090)" d="M333.027 386.8 L377.905 386.8 L377.905 397.622 L317.558 397.622 L317.558 386.8 Q324.879 379.225 337.483 366.493 Q350.151 353.698 353.397 350.006 Q359.572 343.068 361.991 338.293 Q364.473 333.455 364.473 328.808 Q364.473 321.233 359.126 316.459 Q353.843 311.685 345.313 311.685 Q339.265 311.685 332.518 313.785 Q325.834 315.886 318.195 320.151 L318.195 307.165 Q325.961 304.046 332.709 302.454 Q339.456 300.863 345.058 300.863 Q359.826 300.863 368.611 308.247 Q377.396 315.631 377.396 327.981 Q377.396 333.837 375.168 339.121 Q373.003 344.341 367.211 351.47 Q365.619 353.316 357.089 362.165 Q348.559 370.949 333.027 386.8 Z" fill="#000000" fill-rule="evenodd" fill-opacity="1" /><path clip-path="url(#clip090)" d="M432.396 311.048 Q422.465 311.048 417.436 320.851 Q412.471 330.591 412.471 350.197 Q412.471 369.74 417.436 379.543 Q422.465 389.283 432.396 389.283 Q442.39 389.283 447.355 379.543 Q452.384 369.74 452.384 350.197 Q452.384 330.591 447.355 320.851 Q442.39 311.048 432.396 311.048 M432.396 300.863 Q448.373 300.863 456.776 313.531 Q465.243 326.135 465.243 350.197 Q465.243 374.196 456.776 386.864 Q448.373 399.468 432.396 399.468 Q416.418 399.468 407.951 386.864 Q399.548 374.196 399.548 350.197 Q399.548 326.135 407.951 313.531 Q416.418 300.863 432.396 300.863 Z" fill="#000000" fill-rule="evenodd" fill-opacity="1" /><path clip-path="url(#clip090)" d="M132.998 1628.31 L132.998 1602.18 L221.192 1569.11 L132.998 1535.86 L132.998 1509.73 L262.598 1509.73 L262.598 1526.83 L148.797 1526.83 L237.685 1560.25 L237.685 1577.87 L148.797 1611.29 L262.598 1611.29 L262.598 1628.31 L132.998 1628.31 Z" fill="#000000" fill-rule="evenodd" fill-opacity="1" /><path clip-path="url(#clip090)" d="M213.727 1431.43 Q213.727 1450.79 218.154 1458.26 Q222.581 1465.72 233.258 1465.72 Q241.765 1465.72 246.8 1460.17 Q251.748 1454.52 251.748 1444.89 Q251.748 1431.61 242.373 1423.62 Q232.911 1415.55 217.286 1415.55 L213.727 1415.55 L213.727 1431.43 M207.13 1399.58 L262.598 1399.58 L262.598 1415.55 L247.841 1415.55 Q256.695 1421.02 260.949 1429.18 Q265.116 1437.34 265.116 1449.14 Q265.116 1464.07 256.782 1472.93 Q248.362 1481.69 234.3 1481.69 Q217.894 1481.69 209.56 1470.76 Q201.227 1459.73 201.227 1437.94 L201.227 1415.55 L199.664 1415.55 Q188.64 1415.55 182.651 1422.84 Q176.574 1430.04 176.574 1443.15 Q176.574 1451.49 178.571 1459.38 Q180.567 1467.28 184.56 1474.58 L169.804 1474.58 Q166.418 1465.81 164.769 1457.56 Q163.033 1449.31 163.033 1441.5 Q163.033 1420.41 173.97 1409.99 Q184.908 1399.58 207.13 1399.58 Z" fill="#000000" fill-rule="evenodd" fill-opacity="1" /><path clip-path="url(#clip090)" d="M180.307 1310.34 Q178.744 1313.03 178.05 1316.24 Q177.269 1319.37 177.269 1323.19 Q177.269 1336.73 186.123 1344.02 Q194.89 1351.23 211.383 1351.23 L262.598 1351.23 L262.598 1367.28 L165.376 1367.28 L165.376 1351.23 L180.481 1351.23 Q171.626 1346.19 167.373 1338.12 Q163.033 1330.04 163.033 1318.5 Q163.033 1316.85 163.293 1314.85 Q163.467 1312.86 163.901 1310.43 L180.307 1310.34 Z" fill="#000000" fill-rule="evenodd" fill-opacity="1" /><path clip-path="url(#clip090)" d="M212.859 1232.74 Q195.498 1232.74 185.949 1239.94 Q176.401 1247.06 176.401 1259.99 Q176.401 1272.84 185.949 1280.04 Q195.498 1287.16 212.859 1287.16 Q230.133 1287.16 239.682 1280.04 Q249.23 1272.84 249.23 1259.99 Q249.23 1247.06 239.682 1239.94 Q230.133 1232.74 212.859 1232.74 M250.532 1216.76 Q275.359 1216.76 287.424 1227.79 Q299.577 1238.81 299.577 1261.56 Q299.577 1269.98 298.275 1277.44 Q297.06 1284.91 294.456 1291.94 L278.918 1291.94 Q282.737 1284.91 284.56 1278.05 Q286.383 1271.19 286.383 1264.07 Q286.383 1248.36 278.136 1240.55 Q269.977 1232.74 253.397 1232.74 L245.498 1232.74 Q254.091 1237.68 258.345 1245.41 Q262.598 1253.14 262.598 1263.9 Q262.598 1281.78 248.97 1292.72 Q235.341 1303.66 212.859 1303.66 Q190.29 1303.66 176.661 1292.72 Q163.033 1281.78 163.033 1263.9 Q163.033 1253.14 167.286 1245.41 Q171.54 1237.68 180.133 1232.74 L165.376 1232.74 L165.376 1216.76 L250.532 1216.76 Z" fill="#000000" fill-rule="evenodd" fill-opacity="1" /><path clip-path="url(#clip090)" d="M165.376 1183.86 L165.376 1167.89 L262.598 1167.89 L262.598 1183.86 L165.376 1183.86 M127.529 1183.86 L127.529 1167.89 L147.755 1167.89 L147.755 1183.86 L127.529 1183.86 Z" fill="#000000" fill-rule="evenodd" fill-opacity="1" /><path clip-path="url(#clip090)" d="M203.918 1053.66 L262.598 1053.66 L262.598 1069.63 L204.439 1069.63 Q190.637 1069.63 183.779 1075.01 Q176.922 1080.39 176.922 1091.16 Q176.922 1104.09 185.168 1111.56 Q193.414 1119.02 207.651 1119.02 L262.598 1119.02 L262.598 1135.08 L165.376 1135.08 L165.376 1119.02 L180.481 1119.02 Q171.713 1113.29 167.373 1105.57 Q163.033 1097.75 163.033 1087.6 Q163.033 1070.84 173.449 1062.25 Q183.779 1053.66 203.918 1053.66 Z" fill="#000000" fill-rule="evenodd" fill-opacity="1" /><path clip-path="url(#clip090)" d="M213.727 977.616 Q213.727 996.974 218.154 1004.44 Q222.581 1011.9 233.258 1011.9 Q241.765 1011.9 246.8 1006.35 Q251.748 1000.71 251.748 991.071 Q251.748 977.79 242.373 969.804 Q232.911 961.731 217.286 961.731 L213.727 961.731 L213.727 977.616 M207.13 945.759 L262.598 945.759 L262.598 961.731 L247.841 961.731 Q256.695 967.199 260.949 975.359 Q265.116 983.519 265.116 995.324 Q265.116 1010.25 256.782 1019.11 Q248.362 1027.88 234.3 1027.88 Q217.894 1027.88 209.56 1016.94 Q201.227 1005.91 201.227 984.126 L201.227 961.731 L199.664 961.731 Q188.64 961.731 182.651 969.022 Q176.574 976.227 176.574 989.335 Q176.574 997.668 178.571 1005.57 Q180.567 1013.47 184.56 1020.76 L169.804 1020.76 Q166.418 1011.99 164.769 1003.74 Q163.033 995.498 163.033 987.685 Q163.033 966.592 173.97 956.175 Q184.908 945.759 207.13 945.759 Z" fill="#000000" fill-rule="evenodd" fill-opacity="1" /><path clip-path="url(#clip090)" d="M127.529 912.859 L127.529 896.887 L262.598 896.887 L262.598 912.859 L127.529 912.859 Z" fill="#000000" fill-rule="evenodd" fill-opacity="1" /><path clip-path="url(#clip090)" d="M142.981 709.215 L161.47 709.215 Q153.224 718.069 149.144 728.138 Q145.064 738.121 145.064 749.405 Q145.064 771.628 158.692 783.433 Q172.234 795.239 197.928 795.239 Q223.536 795.239 237.164 783.433 Q250.706 771.628 250.706 749.405 Q250.706 738.121 246.626 728.138 Q242.546 718.069 234.3 709.215 L252.616 709.215 Q258.866 718.416 261.991 728.746 Q265.116 738.989 265.116 750.447 Q265.116 779.874 247.147 796.801 Q229.091 813.728 197.928 813.728 Q166.679 813.728 148.71 796.801 Q130.654 779.874 130.654 750.447 Q130.654 738.815 133.779 728.572 Q136.818 718.242 142.981 709.215 Z" fill="#000000" fill-rule="evenodd" fill-opacity="1" /><path clip-path="url(#clip090)" d="M176.574 645.153 Q176.574 658 186.644 665.465 Q196.626 672.93 214.074 672.93 Q231.522 672.93 241.591 665.552 Q251.574 658.087 251.574 645.153 Q251.574 632.392 241.505 624.927 Q231.435 617.462 214.074 617.462 Q196.8 617.462 186.731 624.927 Q176.574 632.392 176.574 645.153 M163.033 645.153 Q163.033 624.319 176.574 612.427 Q190.116 600.535 214.074 600.535 Q237.946 600.535 251.574 612.427 Q265.116 624.319 265.116 645.153 Q265.116 666.073 251.574 677.965 Q237.946 689.77 214.074 689.77 Q190.116 689.77 176.574 677.965 Q163.033 666.073 163.033 645.153 Z" fill="#000000" fill-rule="evenodd" fill-opacity="1" /><path clip-path="url(#clip090)" d="M168.241 512.08 L183.345 512.08 Q179.873 518.851 178.137 526.143 Q176.401 533.434 176.401 541.247 Q176.401 553.139 180.047 559.129 Q183.692 565.031 190.984 565.031 Q196.539 565.031 199.751 560.778 Q202.876 556.525 205.741 543.677 L206.956 538.209 Q210.602 521.195 217.286 514.077 Q223.883 506.872 235.775 506.872 Q249.317 506.872 257.216 517.636 Q265.116 528.313 265.116 547.063 Q265.116 554.875 263.553 563.382 Q262.077 571.802 259.039 581.177 L242.546 581.177 Q247.147 572.323 249.491 563.729 Q251.748 555.136 251.748 546.716 Q251.748 535.431 247.928 529.355 Q244.022 523.278 236.991 523.278 Q230.48 523.278 227.008 527.705 Q223.536 532.046 220.324 546.889 L219.022 552.445 Q215.897 567.288 209.473 573.886 Q202.963 580.483 191.678 580.483 Q177.963 580.483 170.498 570.761 Q163.033 561.038 163.033 543.157 Q163.033 534.302 164.335 526.49 Q165.637 518.678 168.241 512.08 Z" fill="#000000" fill-rule="evenodd" fill-opacity="1" /><path clip-path="url(#clip090)" d="M137.772 465.64 L165.376 465.64 L165.376 432.741 L177.79 432.741 L177.79 465.64 L230.567 465.64 Q242.459 465.64 245.845 462.428 Q249.23 459.129 249.23 449.147 L249.23 432.741 L262.598 432.741 L262.598 449.147 Q262.598 467.636 255.741 474.667 Q248.796 481.699 230.567 481.699 L177.79 481.699 L177.79 493.417 L165.376 493.417 L165.376 481.699 L137.772 481.699 L137.772 465.64 Z" fill="#000000" fill-rule="evenodd" fill-opacity="1" /><path clip-path="url(#clip090)" d="M127.703 316.856 Q147.668 328.488 167.199 334.13 Q186.731 339.772 206.782 339.772 Q226.834 339.772 246.539 334.13 Q266.157 328.401 286.036 316.856 L286.036 330.745 Q265.636 343.765 245.932 350.276 Q226.227 356.699 206.782 356.699 Q187.425 356.699 167.807 350.276 Q148.189 343.852 127.703 330.745 L127.703 316.856 Z" fill="#000000" fill-rule="evenodd" fill-opacity="1" /><path clip-path="url(#clip090)" d="M288.726 242.551 L288.726 251.231 L262.598 251.318 Q262.425 260.432 260.515 269.547 Q258.518 278.661 254.612 287.863 L238.987 287.863 Q244.543 279.009 247.407 269.981 Q250.185 260.866 250.272 251.231 L210.689 251.231 Q207.564 270.415 200.098 279.182 Q192.633 287.863 179.612 287.863 Q165.463 287.863 157.304 278.401 Q149.144 268.939 147.929 251.231 L127.529 251.231 L127.529 242.551 L147.668 242.551 Q148.015 234.478 149.404 226.926 Q150.706 219.374 153.05 212.169 L168.241 212.169 Q164.595 219.374 162.599 227.012 Q160.602 234.564 160.255 242.551 L197.321 242.551 Q200.359 222.846 208.171 213.558 Q215.984 204.27 229.525 204.27 Q244.195 204.27 252.702 214.165 Q261.122 223.974 262.425 242.551 L288.726 242.551 M195.758 251.231 L160.168 251.231 Q161.297 261.3 165.897 266.596 Q170.498 271.891 178.137 271.891 Q185.602 271.891 189.769 267.03 Q193.935 262.082 195.758 251.231 M212.425 242.551 L250.011 242.551 Q248.536 231.526 243.761 225.971 Q238.987 220.328 231.175 220.328 Q223.536 220.328 219.022 225.71 Q214.508 231.005 212.425 242.551 Z" fill="#000000" fill-rule="evenodd" fill-opacity="1" /><path clip-path="url(#clip090)" d="M132.998 144.374 L132.998 129.617 L279.091 174.756 L279.091 189.513 L132.998 144.374 Z" fill="#000000" fill-rule="evenodd" fill-opacity="1" /><path clip-path="url(#clip090)" d="M132.998 112.169 L132.998 86.041 L221.192 52.9682 L132.998 19.7219 L132.998 -6.40644 L262.598 -6.40644 L262.598 10.6942 L148.797 10.6942 L237.685 44.1141 L237.685 61.7356 L148.797 95.1555 L262.598 95.1555 L262.598 112.169 L132.998 112.169 Z" fill="#000000" fill-rule="evenodd" fill-opacity="1" /><path clip-path="url(#clip090)" d="M132.998 -29.6702 L132.998 -47.3784 L242.546 -74.6352 L132.998 -101.805 L132.998 -121.51 L242.546 -148.767 L132.998 -175.937 L132.998 -193.732 L262.598 -161.18 L262.598 -139.131 L150.099 -111.788 L262.598 -84.1838 L262.598 -62.1353 L132.998 -29.6702 Z" fill="#000000" fill-rule="evenodd" fill-opacity="1" /><path clip-path="url(#clip090)" d="M127.703 -213.784 L127.703 -227.673 Q148.189 -240.693 167.807 -247.117 Q187.425 -253.627 206.782 -253.627 Q226.227 -253.627 245.932 -247.117 Q265.636 -240.693 286.036 -227.673 L286.036 -213.784 Q266.157 -225.329 246.539 -230.971 Q226.834 -236.7 206.782 -236.7 Q186.731 -236.7 167.199 -230.971 Q147.668 -225.329 127.703 -213.784 Z" fill="#000000" fill-rule="evenodd" fill-opacity="1" /><path clip-path="url(#clip090)" d="M39.8023 51.0842 L39.8023 178.74 L66.6309 178.74 Q100.606 178.74 116.33 163.346 Q132.163 147.953 132.163 114.747 Q132.163 81.7611 116.33 66.4777 Q100.606 51.0842 66.6309 51.0842 L39.8023 51.0842 M17.5918 32.832 L63.2223 32.832 Q110.942 32.832 133.262 52.7335 Q155.583 72.5251 155.583 114.747 Q155.583 157.189 133.153 177.09 Q110.722 196.992 63.2223 196.992 L17.5918 196.992 L17.5918 32.832 Z" fill="#000000" fill-rule="evenodd" fill-opacity="1" /><path clip-path="url(#clip090)" d="M190.108 73.8445 L210.34 73.8445 L210.34 196.992 L190.108 196.992 L190.108 73.8445 M190.108 25.905 L210.34 25.905 L210.34 51.524 L190.108 51.524 L190.108 25.905 Z" fill="#000000" fill-rule="evenodd" fill-opacity="1" /><path clip-path="url(#clip090)" d="M331.178 77.473 L331.178 96.6048 Q322.602 92.2067 313.366 90.0076 Q304.13 87.8086 294.234 87.8086 Q279.17 87.8086 271.583 92.4266 Q264.107 97.0446 264.107 106.281 Q264.107 113.318 269.494 117.386 Q274.882 121.344 291.155 124.973 L298.082 126.512 Q319.633 131.13 328.649 139.596 Q337.775 147.953 337.775 163.016 Q337.775 180.169 324.141 190.175 Q310.617 200.181 286.867 200.181 Q276.971 200.181 266.196 198.201 Q255.53 196.332 243.655 192.484 L243.655 171.593 Q254.871 177.42 265.756 180.389 Q276.641 183.248 287.307 183.248 Q301.601 183.248 309.297 178.41 Q316.994 173.462 316.994 164.556 Q316.994 156.309 311.387 151.911 Q305.889 147.513 287.087 143.445 L280.05 141.796 Q261.248 137.837 252.891 129.701 Q244.535 121.454 244.535 107.16 Q244.535 89.7877 256.85 80.3317 Q269.165 70.8758 291.815 70.8758 Q303.03 70.8758 312.926 72.5251 Q322.822 74.1744 331.178 77.473 Z" fill="#000000" fill-rule="evenodd" fill-opacity="1" /><path clip-path="url(#clip090)" d="M389.563 178.52 L389.563 243.832 L369.222 243.832 L369.222 73.8445 L389.563 73.8445 L389.563 92.5365 Q395.94 81.5412 405.616 76.2635 Q415.402 70.8758 428.926 70.8758 Q451.357 70.8758 465.321 88.6882 Q479.395 106.501 479.395 135.528 Q479.395 164.556 465.321 182.368 Q451.357 200.181 428.926 200.181 Q415.402 200.181 405.616 194.903 Q395.94 189.515 389.563 178.52 M458.394 135.528 Q458.394 113.208 449.158 100.563 Q440.032 87.8086 423.978 87.8086 Q407.925 87.8086 398.689 100.563 Q389.563 113.208 389.563 135.528 Q389.563 157.849 398.689 170.603 Q407.925 183.248 423.978 183.248 Q440.032 183.248 449.158 170.603 Q458.394 157.849 458.394 135.528 Z" fill="#000000" fill-rule="evenodd" fill-opacity="1" /><path clip-path="url(#clip090)" d="M568.897 135.088 Q544.377 135.088 534.921 140.696 Q525.465 146.304 525.465 159.828 Q525.465 170.603 532.502 176.981 Q539.649 183.248 551.854 183.248 Q568.677 183.248 578.792 171.373 Q589.018 159.388 589.018 139.596 L589.018 135.088 L568.897 135.088 M609.249 126.732 L609.249 196.992 L589.018 196.992 L589.018 178.3 Q582.091 189.515 571.755 194.903 Q561.42 200.181 546.466 200.181 Q527.554 200.181 516.339 189.625 Q505.234 178.96 505.234 161.147 Q505.234 140.366 519.088 129.811 Q533.052 119.255 560.65 119.255 L589.018 119.255 L589.018 117.276 Q589.018 103.312 579.782 95.7252 Q570.656 88.0285 554.053 88.0285 Q543.498 88.0285 533.492 90.5574 Q523.486 93.0863 514.25 98.1442 L514.25 79.4521 Q525.355 75.1639 535.801 73.0748 Q546.246 70.8758 556.142 70.8758 Q582.861 70.8758 596.055 84.7299 Q609.249 98.584 609.249 126.732 Z" fill="#000000" fill-rule="evenodd" fill-opacity="1" /><path clip-path="url(#clip090)" d="M670.933 38.8794 L670.933 73.8445 L712.605 73.8445 L712.605 89.5678 L670.933 89.5678 L670.933 156.419 Q670.933 171.483 675.001 175.771 Q679.18 180.059 691.824 180.059 L712.605 180.059 L712.605 196.992 L691.824 196.992 Q668.404 196.992 659.498 188.306 Q650.592 179.509 650.592 156.419 L650.592 89.5678 L635.748 89.5678 L635.748 73.8445 L650.592 73.8445 L650.592 38.8794 L670.933 38.8794 Z" fill="#000000" fill-rule="evenodd" fill-opacity="1" /><path clip-path="url(#clip090)" d="M827.836 78.5725 L827.836 97.4844 Q819.26 92.7564 810.574 90.4474 Q801.997 88.0285 793.201 88.0285 Q773.519 88.0285 762.634 100.563 Q751.749 112.988 751.749 135.528 Q751.749 158.069 762.634 170.603 Q773.519 183.028 793.201 183.028 Q801.997 183.028 810.574 180.719 Q819.26 178.3 827.836 173.572 L827.836 192.264 Q819.37 196.222 810.244 198.201 Q801.228 200.181 791.002 200.181 Q763.184 200.181 746.801 182.698 Q730.418 165.216 730.418 135.528 Q730.418 105.401 746.911 88.1384 Q763.514 70.8758 792.321 70.8758 Q801.667 70.8758 810.574 72.8549 Q819.48 74.7241 827.836 78.5725 Z" fill="#000000" fill-rule="evenodd" fill-opacity="1" /><path clip-path="url(#clip090)" d="M965.388 122.664 L965.388 196.992 L945.156 196.992 L945.156 123.323 Q945.156 105.841 938.339 97.1546 Q931.522 88.4683 917.888 88.4683 Q901.505 88.4683 892.049 98.9138 Q882.593 109.359 882.593 127.392 L882.593 196.992 L862.252 196.992 L862.252 25.905 L882.593 25.905 L882.593 92.9764 Q889.85 81.8711 899.636 76.3734 Q909.531 70.8758 922.396 70.8758 Q943.617 70.8758 954.502 84.0702 Q965.388 97.1546 965.388 122.664 Z" fill="#000000" fill-rule="evenodd" fill-opacity="1" /><path clip-path="url(#clip090)" d="M1176.61 38.2197 L1176.61 59.8805 Q1163.96 53.833 1152.75 50.8643 Q1141.53 47.8956 1131.09 47.8956 Q1112.94 47.8956 1103.05 54.9326 Q1093.26 61.9696 1093.26 74.944 Q1093.26 85.8294 1099.75 91.437 Q1106.35 96.9347 1124.6 100.343 L1138.01 103.092 Q1162.86 107.82 1174.63 119.805 Q1186.5 131.68 1186.5 151.691 Q1186.5 175.551 1170.45 187.866 Q1154.51 200.181 1123.61 200.181 Q1111.96 200.181 1098.76 197.542 Q1085.68 194.903 1071.6 189.735 L1071.6 166.865 Q1085.13 174.452 1098.1 178.3 Q1111.08 182.148 1123.61 182.148 Q1142.63 182.148 1152.97 174.672 Q1163.3 167.195 1163.3 153.341 Q1163.3 141.246 1155.83 134.429 Q1148.46 127.612 1131.53 124.203 L1118 121.564 Q1093.15 116.616 1082.05 106.061 Q1070.94 95.5053 1070.94 76.7033 Q1070.94 54.9326 1086.23 42.3979 Q1101.62 29.8633 1128.56 29.8633 Q1140.1 29.8633 1152.09 31.9524 Q1164.07 34.0415 1176.61 38.2197 Z" fill="#000000" fill-rule="evenodd" fill-opacity="1" /><path clip-path="url(#clip090)" d="M1240.27 38.8794 L1240.27 73.8445 L1281.94 73.8445 L1281.94 89.5678 L1240.27 89.5678 L1240.27 156.419 Q1240.27 171.483 1244.34 175.771 Q1248.52 180.059 1261.16 180.059 L1281.94 180.059 L1281.94 196.992 L1261.16 196.992 Q1237.74 196.992 1228.84 188.306 Q1219.93 179.509 1219.93 156.419 L1219.93 89.5678 L1205.09 89.5678 L1205.09 73.8445 L1219.93 73.8445 L1219.93 38.8794 L1240.27 38.8794 Z" fill="#000000" fill-rule="evenodd" fill-opacity="1" /><path clip-path="url(#clip090)" d="M1364.52 135.088 Q1340 135.088 1330.54 140.696 Q1321.09 146.304 1321.09 159.828 Q1321.09 170.603 1328.12 176.981 Q1335.27 183.248 1347.47 183.248 Q1364.3 183.248 1374.41 171.373 Q1384.64 159.388 1384.64 139.596 L1384.64 135.088 L1364.52 135.088 M1404.87 126.732 L1404.87 196.992 L1384.64 196.992 L1384.64 178.3 Q1377.71 189.515 1367.38 194.903 Q1357.04 200.181 1342.09 200.181 Q1323.18 200.181 1311.96 189.625 Q1300.85 178.96 1300.85 161.147 Q1300.85 140.366 1314.71 129.811 Q1328.67 119.255 1356.27 119.255 L1384.64 119.255 L1384.64 117.276 Q1384.64 103.312 1375.4 95.7252 Q1366.28 88.0285 1349.67 88.0285 Q1339.12 88.0285 1329.11 90.5574 Q1319.11 93.0863 1309.87 98.1442 L1309.87 79.4521 Q1320.98 75.1639 1331.42 73.0748 Q1341.87 70.8758 1351.76 70.8758 Q1378.48 70.8758 1391.68 84.7299 Q1404.87 98.584 1404.87 126.732 Z" fill="#000000" fill-rule="evenodd" fill-opacity="1" /><path clip-path="url(#clip090)" d="M1535.16 78.5725 L1535.16 97.4844 Q1526.59 92.7564 1517.9 90.4474 Q1509.33 88.0285 1500.53 88.0285 Q1480.85 88.0285 1469.96 100.563 Q1459.08 112.988 1459.08 135.528 Q1459.08 158.069 1469.96 170.603 Q1480.85 183.028 1500.53 183.028 Q1509.33 183.028 1517.9 180.719 Q1526.59 178.3 1535.16 173.572 L1535.16 192.264 Q1526.7 196.222 1517.57 198.201 Q1508.56 200.181 1498.33 200.181 Q1470.51 200.181 1454.13 182.698 Q1437.75 165.216 1437.75 135.528 Q1437.75 105.401 1454.24 88.1384 Q1470.84 70.8758 1499.65 70.8758 Q1509 70.8758 1517.9 72.8549 Q1526.81 74.7241 1535.16 78.5725 Z" fill="#000000" fill-rule="evenodd" fill-opacity="1" /><path clip-path="url(#clip090)" d="M1569.58 25.905 L1589.92 25.905 L1589.92 126.952 L1650.29 73.8445 L1676.12 73.8445 L1610.81 131.46 L1678.87 196.992 L1652.48 196.992 L1589.92 136.848 L1589.92 196.992 L1569.58 196.992 L1569.58 25.905 Z" fill="#000000" fill-rule="evenodd" fill-opacity="1" /><path clip-path="url(#clip090)" d="M1871.62 38.2197 L1871.62 59.8805 Q1858.98 53.833 1847.76 50.8643 Q1836.55 47.8956 1826.1 47.8956 Q1807.96 47.8956 1798.06 54.9326 Q1788.28 61.9696 1788.28 74.944 Q1788.28 85.8294 1794.76 91.437 Q1801.36 96.9347 1819.61 100.343 L1833.03 103.092 Q1857.88 107.82 1869.64 119.805 Q1881.52 131.68 1881.52 151.691 Q1881.52 175.551 1865.46 187.866 Q1849.52 200.181 1818.62 200.181 Q1806.97 200.181 1793.77 197.542 Q1780.69 194.903 1766.62 189.735 L1766.62 166.865 Q1780.14 174.452 1793.11 178.3 Q1806.09 182.148 1818.62 182.148 Q1837.65 182.148 1847.98 174.672 Q1858.32 167.195 1858.32 153.341 Q1858.32 141.246 1850.84 134.429 Q1843.47 127.612 1826.54 124.203 L1813.02 121.564 Q1788.17 116.616 1777.06 106.061 Q1765.96 95.5053 1765.96 76.7033 Q1765.96 54.9326 1781.24 42.3979 Q1796.63 29.8633 1823.57 29.8633 Q1835.12 29.8633 1847.1 31.9524 Q1859.09 34.0415 1871.62 38.2197 Z" fill="#000000" fill-rule="evenodd" fill-opacity="1" /><path clip-path="url(#clip090)" d="M1913.18 148.393 L1913.18 73.8445 L1933.41 73.8445 L1933.41 147.623 Q1933.41 165.106 1940.23 173.902 Q1947.05 182.588 1960.68 182.588 Q1977.07 182.588 1986.52 172.143 Q1996.09 161.697 1996.09 143.665 L1996.09 73.8445 L2016.32 73.8445 L2016.32 196.992 L1996.09 196.992 L1996.09 178.08 Q1988.72 189.295 1978.94 194.793 Q1969.26 200.181 1956.4 200.181 Q1935.17 200.181 1924.18 186.986 Q1913.18 173.792 1913.18 148.393 M1964.09 70.8758 L1964.09 70.8758 Z" fill="#000000" fill-rule="evenodd" fill-opacity="1" /><path clip-path="url(#clip090)" d="M2077.56 178.52 L2077.56 243.832 L2057.22 243.832 L2057.22 73.8445 L2077.56 73.8445 L2077.56 92.5365 Q2083.94 81.5412 2093.62 76.2635 Q2103.4 70.8758 2116.93 70.8758 Q2139.36 70.8758 2153.32 88.6882 Q2167.4 106.501 2167.4 135.528 Q2167.4 164.556 2153.32 182.368 Q2139.36 200.181 2116.93 200.181 Q2103.4 200.181 2093.62 194.903 Q2083.94 189.515 2077.56 178.52 M2146.39 135.528 Q2146.39 113.208 2137.16 100.563 Q2128.03 87.8086 2111.98 87.8086 Q2095.93 87.8086 2086.69 100.563 Q2077.56 113.208 2077.56 135.528 Q2077.56 157.849 2086.69 170.603 Q2095.93 183.248 2111.98 183.248 Q2128.03 183.248 2137.16 170.603 Q2146.39 157.849 2146.39 135.528 Z" fill="#000000" fill-rule="evenodd" fill-opacity="1" /><path clip-path="url(#clip090)" d="M2220.5 178.52 L2220.5 243.832 L2200.16 243.832 L2200.16 73.8445 L2220.5 73.8445 L2220.5 92.5365 Q2226.88 81.5412 2236.56 76.2635 Q2246.34 70.8758 2259.87 70.8758 Q2282.3 70.8758 2296.26 88.6882 Q2310.33 106.501 2310.33 135.528 Q2310.33 164.556 2296.26 182.368 Q2282.3 200.181 2259.87 200.181 Q2246.34 200.181 2236.56 194.903 Q2226.88 189.515 2220.5 178.52 M2289.33 135.528 Q2289.33 113.208 2280.1 100.563 Q2270.97 87.8086 2254.92 87.8086 Q2238.86 87.8086 2229.63 100.563 Q2220.5 113.208 2220.5 135.528 Q2220.5 157.849 2229.63 170.603 Q2238.86 183.248 2254.92 183.248 Q2270.97 183.248 2280.1 170.603 Q2289.33 157.849 2289.33 135.528 Z" fill="#000000" fill-rule="evenodd" fill-opacity="1" /><path clip-path="url(#clip090)" d="M2343.87 25.905 L2364.1 25.905 L2364.1 196.992 L2343.87 196.992 L2343.87 25.905 Z" fill="#000000" fill-rule="evenodd" fill-opacity="1" /><path clip-path="url(#clip090)" d="M2457.67 208.427 Q2449.09 230.418 2440.96 237.125 Q2432.82 243.832 2419.19 243.832 L2403.02 243.832 L2403.02 226.899 L2414.9 226.899 Q2423.26 226.899 2427.87 222.941 Q2432.49 218.983 2438.1 204.249 L2441.73 195.013 L2391.92 73.8445 L2413.36 73.8445 L2451.84 170.163 L2490.33 73.8445 L2511.77 73.8445 L2457.67 208.427 Z" fill="#000000" fill-rule="evenodd" fill-opacity="1" /><path clip-path="url(#clip090)" d="M2735.08 45.4766 L2735.08 68.8966 Q2723.87 58.4511 2711.11 53.2833 Q2698.47 48.1155 2684.17 48.1155 Q2656.03 48.1155 2641.07 65.3781 Q2626.12 82.5308 2626.12 115.077 Q2626.12 147.513 2641.07 164.776 Q2656.03 181.928 2684.17 181.928 Q2698.47 181.928 2711.11 176.761 Q2723.87 171.593 2735.08 161.147 L2735.08 184.347 Q2723.43 192.264 2710.34 196.222 Q2697.37 200.181 2682.86 200.181 Q2645.58 200.181 2624.14 177.42 Q2602.7 154.55 2602.7 115.077 Q2602.7 75.4938 2624.14 52.7335 Q2645.58 29.8633 2682.86 29.8633 Q2697.59 29.8633 2710.56 33.8216 Q2723.65 37.6699 2735.08 45.4766 Z" fill="#000000" fill-rule="evenodd" fill-opacity="1" /><path clip-path="url(#clip090)" d="M2766.42 148.393 L2766.42 73.8445 L2786.65 73.8445 L2786.65 147.623 Q2786.65 165.106 2793.47 173.902 Q2800.29 182.588 2813.92 182.588 Q2830.3 182.588 2839.76 172.143 Q2849.32 161.697 2849.32 143.665 L2849.32 73.8445 L2869.56 73.8445 L2869.56 196.992 L2849.32 196.992 L2849.32 178.08 Q2841.96 189.295 2832.17 194.793 Q2822.5 200.181 2809.63 200.181 Q2788.41 200.181 2777.41 186.986 Q2766.42 173.792 2766.42 148.393 M2817.33 70.8758 L2817.33 70.8758 Z" fill="#000000" fill-rule="evenodd" fill-opacity="1" /><path clip-path="url(#clip090)" d="M2982.59 92.7564 Q2979.18 90.7773 2975.11 89.8977 Q2971.15 88.9081 2966.31 88.9081 Q2949.16 88.9081 2939.93 100.123 Q2930.8 111.229 2930.8 132.12 L2930.8 196.992 L2910.46 196.992 L2910.46 73.8445 L2930.8 73.8445 L2930.8 92.9764 Q2937.18 81.7611 2947.4 76.3734 Q2957.63 70.8758 2972.25 70.8758 Q2974.34 70.8758 2976.87 71.2056 Q2979.4 71.4255 2982.48 71.9753 L2982.59 92.7564 Z" fill="#000000" fill-rule="evenodd" fill-opacity="1" /><path clip-path="url(#clip090)" d="M2989.29 73.8445 L3010.74 73.8445 L3049.22 177.2 L3087.7 73.8445 L3109.14 73.8445 L3062.96 196.992 L3035.47 196.992 L2989.29 73.8445 Z" fill="#000000" fill-rule="evenodd" fill-opacity="1" /><path clip-path="url(#clip090)" d="M3242.41 130.36 L3242.41 140.256 L3149.39 140.256 Q3150.71 161.147 3161.92 172.143 Q3173.25 183.028 3193.37 183.028 Q3205.02 183.028 3215.91 180.169 Q3226.9 177.31 3237.68 171.593 L3237.68 190.725 Q3226.79 195.343 3215.36 197.762 Q3203.92 200.181 3192.16 200.181 Q3162.69 200.181 3145.43 183.028 Q3128.28 165.875 3128.28 136.628 Q3128.28 106.391 3144.55 88.6882 Q3160.93 70.8758 3188.64 70.8758 Q3213.49 70.8758 3227.89 86.9289 Q3242.41 102.872 3242.41 130.36 M3222.18 124.423 Q3221.96 107.82 3212.83 97.9242 Q3203.81 88.0285 3188.86 88.0285 Q3171.93 88.0285 3161.7 97.5944 Q3151.59 107.16 3150.05 124.533 L3222.18 124.423 Z" fill="#000000" fill-rule="evenodd" fill-opacity="1" /><path clip-path="url(#clip092)" d="
M570.795 1143.6 L903.094 1143.6 L903.094 1123.77 L570.795 1123.77 L570.795 1143.6  Z
  " fill="#000000" fill-rule="evenodd" fill-opacity="0.5"/>
<polyline clip-path="url(#clip092)" style="stroke:#000000; stroke-linecap:round; stroke-linejoin:round; stroke-width:4; stroke-opacity:0.5; fill:none" points="
  570.795,1143.6 903.094,1143.6 903.094,1123.77 570.795,1123.77 570.795,1143.6 
  "/>
<path clip-path="url(#clip092)" d="
M903.094 1143.6 L1069.24 1143.6 L1069.24 1123.77 L903.094 1123.77 L903.094 1143.6  Z
  " fill="#44aa99" fill-rule="evenodd" fill-opacity="0.5"/>
<polyline clip-path="url(#clip092)" style="stroke:#000000; stroke-linecap:round; stroke-linejoin:round; stroke-width:4; stroke-opacity:0.5; fill:none" points="
  903.094,1143.6 1069.24,1143.6 1069.24,1123.77 903.094,1123.77 903.094,1143.6 
  "/>
<path clip-path="url(#clip092)" d="
M1069.24 1143.6 L1193.86 1143.6 L1193.86 1123.77 L1069.24 1123.77 L1069.24 1143.6  Z
  " fill="#117733" fill-rule="evenodd" fill-opacity="0.5"/>
<polyline clip-path="url(#clip092)" style="stroke:#000000; stroke-linecap:round; stroke-linejoin:round; stroke-width:4; stroke-opacity:0.5; fill:none" points="
  1069.24,1143.6 1193.86,1143.6 1193.86,1123.77 1069.24,1123.77 1069.24,1143.6 
  "/>
<path clip-path="url(#clip092)" d="
M1193.86 1143.6 L1858.46 1143.6 L1858.46 1064.25 L1193.86 1064.25 L1193.86 1143.6  Z
  " fill="#332288" fill-rule="evenodd" fill-opacity="0.5"/>
<polyline clip-path="url(#clip092)" style="stroke:#000000; stroke-linecap:round; stroke-linejoin:round; stroke-width:4; stroke-opacity:0.5; fill:none" points="
  1193.86,1143.6 1858.46,1143.6 1858.46,1064.25 1193.86,1064.25 1193.86,1143.6 
  "/>
<path clip-path="url(#clip092)" d="
M1858.46 1143.6 L2307.06 1143.6 L2307.06 290.589 L1858.46 290.589 L1858.46 1143.6  Z
  " fill="#ddcc77" fill-rule="evenodd" fill-opacity="0.5"/>
<polyline clip-path="url(#clip092)" style="stroke:#000000; stroke-linecap:round; stroke-linejoin:round; stroke-width:4; stroke-opacity:0.5; fill:none" points="
  1858.46,1143.6 2307.06,1143.6 2307.06,290.589 1858.46,290.589 1858.46,1143.6 
  "/>
<path clip-path="url(#clip092)" d="
M2307.06 1143.6 L2689.2 1143.6 L2689.2 231.076 L2307.06 231.076 L2307.06 1143.6  Z
  " fill="#999933" fill-rule="evenodd" fill-opacity="0.5"/>
<polyline clip-path="url(#clip092)" style="stroke:#000000; stroke-linecap:round; stroke-linejoin:round; stroke-width:4; stroke-opacity:0.5; fill:none" points="
  2307.06,1143.6 2689.2,1143.6 2689.2,231.076 2307.06,231.076 2307.06,1143.6 
  "/>
<polyline clip-path="url(#clip092)" style="stroke:#000000; stroke-linecap:round; stroke-linejoin:round; stroke-width:12; stroke-opacity:1; fill:none" stroke-dasharray="48, 30" points="
  2066.14,2138.26 2066.14,-763.578 
  "/>
<polyline clip-path="url(#clip092)" style="stroke:#0000ff; stroke-linecap:round; stroke-linejoin:round; stroke-width:12; stroke-opacity:1; fill:none" stroke-dasharray="6, 12" points="
  -1738.27,290.589 4998.27,290.589 
  "/>
<path clip-path="url(#clip090)" d="
M582.093 1257.58 L1818.92 1257.58 L1818.92 -25.4602 L582.093 -25.4602  Z
  " fill="#ffffff" fill-rule="evenodd" fill-opacity="1"/>
<polyline clip-path="url(#clip090)" style="stroke:#000000; stroke-linecap:round; stroke-linejoin:round; stroke-width:4; stroke-opacity:1; fill:none" points="
  582.093,1257.58 1818.92,1257.58 1818.92,-25.4602 582.093,-25.4602 582.093,1257.58 
  "/>
<path clip-path="url(#clip090)" d="
M607.043 174.124 L756.744 174.124 L756.744 60.0758 L607.043 60.0758 L607.043 174.124  Z
  " fill="#000000" fill-rule="evenodd" fill-opacity="0.5"/>
<polyline clip-path="url(#clip090)" style="stroke:#000000; stroke-linecap:round; stroke-linejoin:round; stroke-width:4; stroke-opacity:1; fill:none" points="
  607.043,174.124 756.744,174.124 756.744,60.0758 607.043,60.0758 607.043,174.124 
  "/>
<path clip-path="url(#clip090)" d="M837.649 107.01 Q842.041 99.1167 848.152 95.361 Q854.263 91.6052 862.539 91.6052 Q873.679 91.6052 879.726 99.435 Q885.773 107.201 885.773 121.588 L885.773 164.62 L873.997 164.62 L873.997 121.97 Q873.997 111.721 870.368 106.756 Q866.74 101.79 859.292 101.79 Q850.189 101.79 844.906 107.838 Q839.622 113.885 839.622 124.325 L839.622 164.62 L827.846 164.62 L827.846 121.97 Q827.846 111.657 824.217 106.756 Q820.589 101.79 813.013 101.79 Q804.038 101.79 798.754 107.901 Q793.471 113.949 793.471 124.325 L793.471 164.62 L781.694 164.62 L781.694 93.3239 L793.471 93.3239 L793.471 104.4 Q797.481 97.8436 803.083 94.7244 Q808.685 91.6052 816.387 91.6052 Q824.153 91.6052 829.564 95.5519 Q835.039 99.4987 837.649 107.01 Z" fill="#000000" fill-rule="evenodd" fill-opacity="1" /><path clip-path="url(#clip090)" d="M909.136 93.3239 L920.849 93.3239 L920.849 164.62 L909.136 164.62 L909.136 93.3239 M909.136 65.5694 L920.849 65.5694 L920.849 80.4015 L909.136 80.4015 L909.136 65.5694 Z" fill="#000000" fill-rule="evenodd" fill-opacity="1" /><path clip-path="url(#clip090)" d="M1004.62 121.588 L1004.62 164.62 L992.908 164.62 L992.908 121.97 Q992.908 111.848 988.962 106.819 Q985.015 101.79 977.121 101.79 Q967.636 101.79 962.162 107.838 Q956.687 113.885 956.687 124.325 L956.687 164.62 L944.911 164.62 L944.911 93.3239 L956.687 93.3239 L956.687 104.4 Q960.889 97.9709 966.554 94.788 Q972.283 91.6052 979.731 91.6052 Q992.017 91.6052 998.319 99.244 Q1004.62 106.819 1004.62 121.588 Z" fill="#000000" fill-rule="evenodd" fill-opacity="1" /><path clip-path="url(#clip090)" d="M1027.98 93.3239 L1039.7 93.3239 L1039.7 164.62 L1027.98 164.62 L1027.98 93.3239 M1027.98 65.5694 L1039.7 65.5694 L1039.7 80.4015 L1027.98 80.4015 L1027.98 65.5694 Z" fill="#000000" fill-rule="evenodd" fill-opacity="1" /><path clip-path="url(#clip090)" d="M1119.71 107.01 Q1124.11 99.1167 1130.22 95.361 Q1136.33 91.6052 1144.6 91.6052 Q1155.74 91.6052 1161.79 99.435 Q1167.84 107.201 1167.84 121.588 L1167.84 164.62 L1156.06 164.62 L1156.06 121.97 Q1156.06 111.721 1152.43 106.756 Q1148.8 101.79 1141.36 101.79 Q1132.25 101.79 1126.97 107.838 Q1121.69 113.885 1121.69 124.325 L1121.69 164.62 L1109.91 164.62 L1109.91 121.97 Q1109.91 111.657 1106.28 106.756 Q1102.65 101.79 1095.08 101.79 Q1086.1 101.79 1080.82 107.901 Q1075.54 113.949 1075.54 124.325 L1075.54 164.62 L1063.76 164.62 L1063.76 93.3239 L1075.54 93.3239 L1075.54 104.4 Q1079.55 97.8436 1085.15 94.7244 Q1090.75 91.6052 1098.45 91.6052 Q1106.22 91.6052 1111.63 95.5519 Q1117.1 99.4987 1119.71 107.01 Z" fill="#000000" fill-rule="evenodd" fill-opacity="1" /><path clip-path="url(#clip090)" d="M1189.99 136.483 L1189.99 93.3239 L1201.7 93.3239 L1201.7 136.038 Q1201.7 146.159 1205.65 151.252 Q1209.6 156.281 1217.49 156.281 Q1226.98 156.281 1232.45 150.233 Q1237.99 144.186 1237.99 133.746 L1237.99 93.3239 L1249.7 93.3239 L1249.7 164.62 L1237.99 164.62 L1237.99 153.671 Q1233.72 160.164 1228.06 163.347 Q1222.46 166.466 1215.01 166.466 Q1202.72 166.466 1196.36 158.827 Q1189.99 151.188 1189.99 136.483 M1219.46 91.6052 L1219.46 91.6052 Z" fill="#000000" fill-rule="evenodd" fill-opacity="1" /><path clip-path="url(#clip090)" d="M1329.34 107.01 Q1333.73 99.1167 1339.84 95.361 Q1345.95 91.6052 1354.23 91.6052 Q1365.37 91.6052 1371.41 99.435 Q1377.46 107.201 1377.46 121.588 L1377.46 164.62 L1365.68 164.62 L1365.68 121.97 Q1365.68 111.721 1362.06 106.756 Q1358.43 101.79 1350.98 101.79 Q1341.88 101.79 1336.59 107.838 Q1331.31 113.885 1331.31 124.325 L1331.31 164.62 L1319.53 164.62 L1319.53 121.97 Q1319.53 111.657 1315.9 106.756 Q1312.28 101.79 1304.7 101.79 Q1295.72 101.79 1290.44 107.901 Q1285.16 113.949 1285.16 124.325 L1285.16 164.62 L1273.38 164.62 L1273.38 93.3239 L1285.16 93.3239 L1285.16 104.4 Q1289.17 97.8436 1294.77 94.7244 Q1300.37 91.6052 1308.07 91.6052 Q1315.84 91.6052 1321.25 95.5519 Q1326.73 99.4987 1329.34 107.01 Z" fill="#000000" fill-rule="evenodd" fill-opacity="1" /><path clip-path="url(#clip090)" d="
M607.043 316.684 L756.744 316.684 L756.744 202.636 L607.043 202.636 L607.043 316.684  Z
  " fill="#44aa99" fill-rule="evenodd" fill-opacity="0.5"/>
<polyline clip-path="url(#clip090)" style="stroke:#000000; stroke-linecap:round; stroke-linejoin:round; stroke-width:4; stroke-opacity:1; fill:none" points="
  607.043,316.684 756.744,316.684 756.744,202.636 607.043,202.636 607.043,316.684 
  "/>
<path clip-path="url(#clip090)" d="M781.694 235.884 L793.407 235.884 L808.048 291.52 L822.626 235.884 L836.439 235.884 L851.08 291.52 L865.658 235.884 L877.371 235.884 L858.719 307.18 L844.906 307.18 L829.564 248.743 L814.159 307.18 L800.346 307.18 L781.694 235.884 Z" fill="#000000" fill-rule="evenodd" fill-opacity="1" /><path clip-path="url(#clip090)" d="M895.131 235.884 L906.844 235.884 L906.844 307.18 L895.131 307.18 L895.131 235.884 M895.131 208.129 L906.844 208.129 L906.844 222.962 L895.131 222.962 L895.131 208.129 Z" fill="#000000" fill-rule="evenodd" fill-opacity="1" /><path clip-path="url(#clip090)" d="M990.617 264.148 L990.617 307.18 L978.904 307.18 L978.904 264.53 Q978.904 254.408 974.957 249.379 Q971.01 244.35 963.117 244.35 Q953.632 244.35 948.157 250.398 Q942.683 256.445 942.683 266.885 L942.683 307.18 L930.906 307.18 L930.906 235.884 L942.683 235.884 L942.683 246.96 Q946.884 240.531 952.55 237.348 Q958.279 234.165 965.727 234.165 Q978.013 234.165 984.315 241.804 Q990.617 249.379 990.617 264.148 Z" fill="#000000" fill-rule="evenodd" fill-opacity="1" /><path clip-path="url(#clip090)" d="M1060.89 246.706 L1060.89 208.129 L1072.61 208.129 L1072.61 307.18 L1060.89 307.18 L1060.89 296.485 Q1057.2 302.851 1051.54 305.97 Q1045.93 309.026 1038.04 309.026 Q1025.12 309.026 1016.97 298.713 Q1008.89 288.401 1008.89 271.596 Q1008.89 254.79 1016.97 244.478 Q1025.12 234.165 1038.04 234.165 Q1045.93 234.165 1051.54 237.284 Q1057.2 240.34 1060.89 246.706 M1020.98 271.596 Q1020.98 284.518 1026.26 291.902 Q1031.61 299.223 1040.91 299.223 Q1050.2 299.223 1055.55 291.902 Q1060.89 284.518 1060.89 271.596 Q1060.89 258.673 1055.55 251.353 Q1050.2 243.968 1040.91 243.968 Q1031.61 243.968 1026.26 251.353 Q1020.98 258.673 1020.98 271.596 Z" fill="#000000" fill-rule="evenodd" fill-opacity="1" /><path clip-path="url(#clip090)" d="
M607.043 459.244 L756.744 459.244 L756.744 345.196 L607.043 345.196 L607.043 459.244  Z
  " fill="#117733" fill-rule="evenodd" fill-opacity="0.5"/>
<polyline clip-path="url(#clip090)" style="stroke:#000000; stroke-linecap:round; stroke-linejoin:round; stroke-width:4; stroke-opacity:1; fill:none" points="
  607.043,459.244 756.744,459.244 756.744,345.196 607.043,345.196 607.043,459.244 
  "/>
<path clip-path="url(#clip090)" d="M841.405 406.708 L841.405 449.74 L829.692 449.74 L829.692 407.09 Q829.692 396.968 825.745 391.939 Q821.798 386.91 813.905 386.91 Q804.42 386.91 798.945 392.958 Q793.471 399.005 793.471 409.445 L793.471 449.74 L781.694 449.74 L781.694 350.689 L793.471 350.689 L793.471 389.52 Q797.672 383.091 803.338 379.908 Q809.067 376.725 816.515 376.725 Q828.8 376.725 835.102 384.364 Q841.405 391.939 841.405 406.708 Z" fill="#000000" fill-rule="evenodd" fill-opacity="1" /><path clip-path="url(#clip090)" d="M894.431 456.36 Q889.466 469.092 884.755 472.975 Q880.044 476.858 872.151 476.858 L862.793 476.858 L862.793 467.055 L869.668 467.055 Q874.506 467.055 877.18 464.763 Q879.853 462.471 883.1 453.941 L885.201 448.594 L856.364 378.444 L868.777 378.444 L891.057 434.208 L913.337 378.444 L925.75 378.444 L894.431 456.36 Z" fill="#000000" fill-rule="evenodd" fill-opacity="1" /><path clip-path="url(#clip090)" d="M988.834 389.266 L988.834 350.689 L1000.55 350.689 L1000.55 449.74 L988.834 449.74 L988.834 439.045 Q985.142 445.411 979.477 448.53 Q973.875 451.586 965.981 451.586 Q953.059 451.586 944.911 441.273 Q936.826 430.961 936.826 414.156 Q936.826 397.35 944.911 387.038 Q953.059 376.725 965.981 376.725 Q973.875 376.725 979.477 379.844 Q985.142 382.9 988.834 389.266 M948.921 414.156 Q948.921 427.078 954.205 434.462 Q959.552 441.783 968.846 441.783 Q978.14 441.783 983.487 434.462 Q988.834 427.078 988.834 414.156 Q988.834 401.233 983.487 393.913 Q978.14 386.528 968.846 386.528 Q959.552 386.528 954.205 393.913 Q948.921 401.233 948.921 414.156 Z" fill="#000000" fill-rule="evenodd" fill-opacity="1" /><path clip-path="url(#clip090)" d="M1065.99 389.393 Q1064.01 388.247 1061.66 387.738 Q1059.37 387.165 1056.57 387.165 Q1046.63 387.165 1041.29 393.658 Q1036 400.087 1036 412.182 L1036 449.74 L1024.23 449.74 L1024.23 378.444 L1036 378.444 L1036 389.52 Q1039.7 383.027 1045.62 379.908 Q1051.54 376.725 1060 376.725 Q1061.21 376.725 1062.68 376.916 Q1064.14 377.043 1065.92 377.362 L1065.99 389.393 Z" fill="#000000" fill-rule="evenodd" fill-opacity="1" /><path clip-path="url(#clip090)" d="M1103.04 386.656 Q1093.61 386.656 1088.14 394.04 Q1082.66 401.36 1082.66 414.156 Q1082.66 426.951 1088.08 434.335 Q1093.55 441.655 1103.04 441.655 Q1112.39 441.655 1117.87 434.271 Q1123.34 426.887 1123.34 414.156 Q1123.34 401.488 1117.87 394.104 Q1112.39 386.656 1103.04 386.656 M1103.04 376.725 Q1118.31 376.725 1127.03 386.656 Q1135.75 396.586 1135.75 414.156 Q1135.75 431.661 1127.03 441.655 Q1118.31 451.586 1103.04 451.586 Q1087.69 451.586 1078.97 441.655 Q1070.32 431.661 1070.32 414.156 Q1070.32 396.586 1078.97 386.656 Q1087.69 376.725 1103.04 376.725 Z" fill="#000000" fill-rule="evenodd" fill-opacity="1" /><path clip-path="url(#clip090)" d="
M607.043 601.804 L756.744 601.804 L756.744 487.756 L607.043 487.756 L607.043 601.804  Z
  " fill="#332288" fill-rule="evenodd" fill-opacity="0.5"/>
<polyline clip-path="url(#clip090)" style="stroke:#000000; stroke-linecap:round; stroke-linejoin:round; stroke-width:4; stroke-opacity:1; fill:none" points="
  607.043,601.804 756.744,601.804 756.744,487.756 607.043,487.756 607.043,601.804 
  "/>
<path clip-path="url(#clip090)" d="M841.405 549.268 L841.405 592.3 L829.692 592.3 L829.692 549.65 Q829.692 539.528 825.745 534.499 Q821.798 529.47 813.905 529.47 Q804.42 529.47 798.945 535.518 Q793.471 541.565 793.471 552.005 L793.471 592.3 L781.694 592.3 L781.694 521.004 L793.471 521.004 L793.471 532.08 Q797.672 525.651 803.338 522.468 Q809.067 519.285 816.515 519.285 Q828.8 519.285 835.102 526.924 Q841.405 534.499 841.405 549.268 Z" fill="#000000" fill-rule="evenodd" fill-opacity="1" /><path clip-path="url(#clip090)" d="M863.557 564.163 L863.557 521.004 L875.27 521.004 L875.27 563.718 Q875.27 573.839 879.217 578.932 Q883.164 583.961 891.057 583.961 Q900.542 583.961 906.016 577.913 Q911.555 571.866 911.555 561.426 L911.555 521.004 L923.267 521.004 L923.267 592.3 L911.555 592.3 L911.555 581.351 Q907.29 587.844 901.624 591.027 Q896.022 594.146 888.574 594.146 Q876.289 594.146 869.923 586.507 Q863.557 578.868 863.557 564.163 M893.03 519.285 L893.03 519.285 Z" fill="#000000" fill-rule="evenodd" fill-opacity="1" /><path clip-path="url(#clip090)" d="M998.701 523.741 L998.701 534.69 Q993.736 531.953 988.707 530.616 Q983.742 529.216 978.649 529.216 Q967.255 529.216 960.952 536.473 Q954.65 543.666 954.65 556.716 Q954.65 569.765 960.952 577.022 Q967.255 584.215 978.649 584.215 Q983.742 584.215 988.707 582.879 Q993.736 581.478 998.701 578.741 L998.701 589.563 Q993.8 591.854 988.516 593 Q983.296 594.146 977.376 594.146 Q961.271 594.146 951.786 584.024 Q942.301 573.903 942.301 556.716 Q942.301 539.274 951.85 529.279 Q961.462 519.285 978.14 519.285 Q983.551 519.285 988.707 520.431 Q993.863 521.513 998.701 523.741 Z" fill="#000000" fill-rule="evenodd" fill-opacity="1" /><path clip-path="url(#clip090)" d="M1019.07 493.249 L1030.78 493.249 L1030.78 592.3 L1019.07 592.3 L1019.07 493.249 Z" fill="#000000" fill-rule="evenodd" fill-opacity="1" /><path clip-path="url(#clip090)" d="M1116.28 553.724 L1116.28 559.453 L1062.42 559.453 Q1063.19 571.548 1069.68 577.913 Q1076.24 584.215 1087.88 584.215 Q1094.63 584.215 1100.93 582.56 Q1107.3 580.905 1113.54 577.595 L1113.54 588.671 Q1107.24 591.345 1100.62 592.745 Q1094 594.146 1087.18 594.146 Q1070.12 594.146 1060.13 584.215 Q1050.2 574.285 1050.2 557.352 Q1050.2 539.846 1059.62 529.598 Q1069.11 519.285 1085.15 519.285 Q1099.53 519.285 1107.87 528.579 Q1116.28 537.809 1116.28 553.724 M1104.56 550.286 Q1104.44 540.674 1099.15 534.945 Q1093.93 529.216 1085.27 529.216 Q1075.47 529.216 1069.55 534.754 Q1063.69 540.292 1062.8 550.35 L1104.56 550.286 Z" fill="#000000" fill-rule="evenodd" fill-opacity="1" /><path clip-path="url(#clip090)" d="M1167.9 556.461 Q1153.71 556.461 1148.23 559.707 Q1142.76 562.954 1142.76 570.784 Q1142.76 577.022 1146.83 580.714 Q1150.97 584.343 1158.03 584.343 Q1167.77 584.343 1173.63 577.468 Q1179.55 570.529 1179.55 559.071 L1179.55 556.461 L1167.9 556.461 M1191.26 551.623 L1191.26 592.3 L1179.55 592.3 L1179.55 581.478 Q1175.54 587.971 1169.56 591.09 Q1163.57 594.146 1154.92 594.146 Q1143.97 594.146 1137.47 588.035 Q1131.04 581.86 1131.04 571.548 Q1131.04 559.516 1139.06 553.405 Q1147.15 547.294 1163.13 547.294 L1179.55 547.294 L1179.55 546.148 Q1179.55 538.064 1174.2 533.672 Q1168.92 529.216 1159.31 529.216 Q1153.2 529.216 1147.4 530.68 Q1141.61 532.144 1136.26 535.072 L1136.26 524.25 Q1142.69 521.768 1148.74 520.558 Q1154.79 519.285 1160.52 519.285 Q1175.99 519.285 1183.62 527.306 Q1191.26 535.327 1191.26 551.623 Z" fill="#000000" fill-rule="evenodd" fill-opacity="1" /><path clip-path="url(#clip090)" d="M1256.7 531.953 Q1254.73 530.807 1252.37 530.298 Q1250.08 529.725 1247.28 529.725 Q1237.35 529.725 1232 536.218 Q1226.72 542.647 1226.72 554.742 L1226.72 592.3 L1214.94 592.3 L1214.94 521.004 L1226.72 521.004 L1226.72 532.08 Q1230.41 525.587 1236.33 522.468 Q1242.25 519.285 1250.72 519.285 Q1251.93 519.285 1253.39 519.476 Q1254.86 519.603 1256.64 519.922 L1256.7 531.953 Z" fill="#000000" fill-rule="evenodd" fill-opacity="1" /><path clip-path="url(#clip090)" d="
M607.043 744.364 L756.744 744.364 L756.744 630.316 L607.043 630.316 L607.043 744.364  Z
  " fill="#ddcc77" fill-rule="evenodd" fill-opacity="0.5"/>
<polyline clip-path="url(#clip090)" style="stroke:#000000; stroke-linecap:round; stroke-linejoin:round; stroke-width:4; stroke-opacity:1; fill:none" points="
  607.043,744.364 756.744,744.364 756.744,630.316 607.043,630.316 607.043,744.364 
  "/>
<path clip-path="url(#clip090)" d="M838.094 666.301 L838.094 677.25 Q833.129 674.513 828.1 673.176 Q823.135 671.776 818.042 671.776 Q806.648 671.776 800.346 679.033 Q794.044 686.226 794.044 699.276 Q794.044 712.325 800.346 719.582 Q806.648 726.775 818.042 726.775 Q823.135 726.775 828.1 725.439 Q833.129 724.038 838.094 721.301 L838.094 732.123 Q833.193 734.414 827.909 735.56 Q822.689 736.706 816.769 736.706 Q800.664 736.706 791.179 726.584 Q781.694 716.463 781.694 699.276 Q781.694 681.834 791.243 671.839 Q800.855 661.845 817.533 661.845 Q822.944 661.845 828.1 662.991 Q833.256 664.073 838.094 666.301 Z" fill="#000000" fill-rule="evenodd" fill-opacity="1" /><path clip-path="url(#clip090)" d="M886.092 671.776 Q876.671 671.776 871.196 679.16 Q865.722 686.48 865.722 699.276 Q865.722 712.071 871.132 719.455 Q876.607 726.775 886.092 726.775 Q895.449 726.775 900.924 719.391 Q906.398 712.007 906.398 699.276 Q906.398 686.608 900.924 679.224 Q895.449 671.776 886.092 671.776 M886.092 661.845 Q901.369 661.845 910.09 671.776 Q918.812 681.706 918.812 699.276 Q918.812 716.781 910.09 726.775 Q901.369 736.706 886.092 736.706 Q870.75 736.706 862.029 726.775 Q853.372 716.781 853.372 699.276 Q853.372 681.706 862.029 671.776 Q870.75 661.845 886.092 661.845 Z" fill="#000000" fill-rule="evenodd" fill-opacity="1" /><path clip-path="url(#clip090)" d="M970.628 699.021 Q956.433 699.021 950.958 702.267 Q945.484 705.514 945.484 713.344 Q945.484 719.582 949.558 723.274 Q953.696 726.903 960.762 726.903 Q970.501 726.903 976.357 720.028 Q982.278 713.089 982.278 701.631 L982.278 699.021 L970.628 699.021 M993.99 694.183 L993.99 734.86 L982.278 734.86 L982.278 724.038 Q978.267 730.531 972.283 733.65 Q966.3 736.706 957.642 736.706 Q946.693 736.706 940.2 730.595 Q933.771 724.42 933.771 714.108 Q933.771 702.076 941.792 695.965 Q949.876 689.854 965.854 689.854 L982.278 689.854 L982.278 688.708 Q982.278 680.624 976.93 676.232 Q971.647 671.776 962.035 671.776 Q955.924 671.776 950.131 673.24 Q944.338 674.704 938.991 677.632 L938.991 666.81 Q945.42 664.328 951.468 663.118 Q957.515 661.845 963.244 661.845 Q978.713 661.845 986.352 669.866 Q993.99 677.887 993.99 694.183 Z" fill="#000000" fill-rule="evenodd" fill-opacity="1" /><path clip-path="url(#clip090)" d="M1018.12 635.809 L1029.83 635.809 L1029.83 734.86 L1018.12 734.86 L1018.12 635.809 Z" fill="#000000" fill-rule="evenodd" fill-opacity="1" /><path clip-path="url(#clip090)" d="
M607.043 886.924 L756.744 886.924 L756.744 772.876 L607.043 772.876 L607.043 886.924  Z
  " fill="#999933" fill-rule="evenodd" fill-opacity="0.5"/>
<polyline clip-path="url(#clip090)" style="stroke:#000000; stroke-linecap:round; stroke-linejoin:round; stroke-width:4; stroke-opacity:1; fill:none" points="
  607.043,886.924 756.744,886.924 756.744,772.876 607.043,772.876 607.043,886.924 
  "/>
<path clip-path="url(#clip090)" d="M841.405 834.388 L841.405 877.42 L829.692 877.42 L829.692 834.77 Q829.692 824.648 825.745 819.619 Q821.798 814.59 813.905 814.59 Q804.42 814.59 798.945 820.638 Q793.471 826.685 793.471 837.125 L793.471 877.42 L781.694 877.42 L781.694 806.124 L793.471 806.124 L793.471 817.2 Q797.672 810.771 803.338 807.588 Q809.067 804.405 816.515 804.405 Q828.8 804.405 835.102 812.044 Q841.405 819.619 841.405 834.388 Z" fill="#000000" fill-rule="evenodd" fill-opacity="1" /><path clip-path="url(#clip090)" d="M897.168 841.581 Q882.973 841.581 877.498 844.827 Q872.024 848.074 872.024 855.904 Q872.024 862.142 876.098 865.834 Q880.235 869.463 887.301 869.463 Q897.041 869.463 902.897 862.588 Q908.817 855.649 908.817 844.191 L908.817 841.581 L897.168 841.581 M920.53 836.743 L920.53 877.42 L908.817 877.42 L908.817 866.598 Q904.807 873.091 898.823 876.21 Q892.839 879.266 884.182 879.266 Q873.233 879.266 866.74 873.155 Q860.311 866.98 860.311 856.668 Q860.311 844.636 868.331 838.525 Q876.416 832.414 892.394 832.414 L908.817 832.414 L908.817 831.268 Q908.817 823.184 903.47 818.792 Q898.187 814.336 888.574 814.336 Q882.463 814.336 876.671 815.8 Q870.878 817.264 865.531 820.192 L865.531 809.37 Q871.96 806.888 878.007 805.678 Q884.055 804.405 889.784 804.405 Q905.253 804.405 912.891 812.426 Q920.53 820.447 920.53 836.743 Z" fill="#000000" fill-rule="evenodd" fill-opacity="1" /><path clip-path="url(#clip090)" d="M956.242 785.881 L956.242 806.124 L980.368 806.124 L980.368 815.227 L956.242 815.227 L956.242 853.93 Q956.242 862.651 958.597 865.134 Q961.016 867.617 968.337 867.617 L980.368 867.617 L980.368 877.42 L968.337 877.42 Q954.778 877.42 949.622 872.391 Q944.465 867.298 944.465 853.93 L944.465 815.227 L935.872 815.227 L935.872 806.124 L944.465 806.124 L944.465 785.881 L956.242 785.881 Z" fill="#000000" fill-rule="evenodd" fill-opacity="1" /><path clip-path="url(#clip090)" d="M1042.69 840.944 Q1042.69 828.213 1037.4 821.211 Q1032.18 814.208 1022.7 814.208 Q1013.28 814.208 1008 821.211 Q1002.78 828.213 1002.78 840.944 Q1002.78 853.612 1008 860.614 Q1013.28 867.617 1022.7 867.617 Q1032.18 867.617 1037.4 860.614 Q1042.69 853.612 1042.69 840.944 M1054.4 868.572 Q1054.4 886.777 1046.32 895.626 Q1038.23 904.538 1021.55 904.538 Q1015.38 904.538 1009.9 903.583 Q1004.43 902.692 999.274 900.782 L999.274 889.387 Q1004.43 892.188 1009.46 893.525 Q1014.49 894.862 1019.71 894.862 Q1031.23 894.862 1036.96 888.814 Q1042.69 882.831 1042.69 870.672 L1042.69 864.879 Q1039.06 871.181 1033.39 874.301 Q1027.73 877.42 1019.84 877.42 Q1006.72 877.42 998.701 867.426 Q990.68 857.432 990.68 840.944 Q990.68 824.394 998.701 814.399 Q1006.72 804.405 1019.84 804.405 Q1027.73 804.405 1033.39 807.524 Q1039.06 810.644 1042.69 816.946 L1042.69 806.124 L1054.4 806.124 L1054.4 868.572 Z" fill="#000000" fill-rule="evenodd" fill-opacity="1" /><path clip-path="url(#clip090)" d="M1110.93 841.581 Q1096.73 841.581 1091.26 844.827 Q1085.78 848.074 1085.78 855.904 Q1085.78 862.142 1089.86 865.834 Q1094 869.463 1101.06 869.463 Q1110.8 869.463 1116.66 862.588 Q1122.58 855.649 1122.58 844.191 L1122.58 841.581 L1110.93 841.581 M1134.29 836.743 L1134.29 877.42 L1122.58 877.42 L1122.58 866.598 Q1118.57 873.091 1112.58 876.21 Q1106.6 879.266 1097.94 879.266 Q1086.99 879.266 1080.5 873.155 Q1074.07 866.98 1074.07 856.668 Q1074.07 844.636 1082.09 838.525 Q1090.18 832.414 1106.15 832.414 L1122.58 832.414 L1122.58 831.268 Q1122.58 823.184 1117.23 818.792 Q1111.95 814.336 1102.33 814.336 Q1096.22 814.336 1090.43 815.8 Q1084.64 817.264 1079.29 820.192 L1079.29 809.37 Q1085.72 806.888 1091.77 805.678 Q1097.82 804.405 1103.54 804.405 Q1119.01 804.405 1126.65 812.426 Q1134.29 820.447 1134.29 836.743 Z" fill="#000000" fill-rule="evenodd" fill-opacity="1" /><path clip-path="url(#clip090)" d="M1203.87 808.225 L1203.87 819.301 Q1198.9 816.755 1193.56 815.482 Q1188.21 814.208 1182.48 814.208 Q1173.76 814.208 1169.37 816.882 Q1165.04 819.556 1165.04 824.903 Q1165.04 828.977 1168.16 831.332 Q1171.28 833.624 1180.7 835.724 L1184.71 836.616 Q1197.18 839.289 1202.4 844.191 Q1207.69 849.029 1207.69 857.75 Q1207.69 867.68 1199.79 873.473 Q1191.96 879.266 1178.21 879.266 Q1172.48 879.266 1166.25 878.12 Q1160.07 877.038 1153.2 874.81 L1153.2 862.715 Q1159.69 866.089 1165.99 867.808 Q1172.29 869.463 1178.47 869.463 Q1186.74 869.463 1191.2 866.662 Q1195.66 863.797 1195.66 858.641 Q1195.66 853.867 1192.41 851.32 Q1189.23 848.774 1178.34 846.419 L1174.27 845.464 Q1163.38 843.172 1158.54 838.462 Q1153.71 833.687 1153.71 825.412 Q1153.71 815.354 1160.84 809.88 Q1167.97 804.405 1181.08 804.405 Q1187.57 804.405 1193.3 805.36 Q1199.03 806.315 1203.87 808.225 Z" fill="#000000" fill-rule="evenodd" fill-opacity="1" /><polyline clip-path="url(#clip090)" style="stroke:#000000; stroke-linecap:round; stroke-linejoin:round; stroke-width:11; stroke-opacity:1; fill:none" stroke-dasharray="44, 28" points="
  607.043,972.46 756.744,972.46 
  "/>
<path clip-path="url(#clip090)" d="M833.702 959.506 L833.702 920.929 L845.415 920.929 L845.415 1019.98 L833.702 1019.98 L833.702 1009.29 Q830.01 1015.65 824.344 1018.77 Q818.743 1021.83 810.849 1021.83 Q797.927 1021.83 789.779 1011.51 Q781.694 1001.2 781.694 984.396 Q781.694 967.59 789.779 957.278 Q797.927 946.965 810.849 946.965 Q818.743 946.965 824.344 950.084 Q830.01 953.14 833.702 959.506 M793.789 984.396 Q793.789 997.318 799.073 1004.7 Q804.42 1012.02 813.714 1012.02 Q823.008 1012.02 828.355 1004.7 Q833.702 997.318 833.702 984.396 Q833.702 971.473 828.355 964.153 Q823.008 956.768 813.714 956.768 Q804.42 956.768 799.073 964.153 Q793.789 971.473 793.789 984.396 Z" fill="#000000" fill-rule="evenodd" fill-opacity="1" /><path clip-path="url(#clip090)" d="M930.524 981.404 L930.524 987.133 L876.671 987.133 Q877.434 999.228 883.927 1005.59 Q890.484 1011.9 902.133 1011.9 Q908.881 1011.9 915.183 1010.24 Q921.549 1008.59 927.787 1005.28 L927.787 1016.35 Q921.485 1019.02 914.865 1020.43 Q908.244 1021.83 901.433 1021.83 Q884.373 1021.83 874.379 1011.9 Q864.448 1001.96 864.448 985.032 Q864.448 967.526 873.87 957.278 Q883.355 946.965 899.396 946.965 Q913.783 946.965 922.122 956.259 Q930.524 965.489 930.524 981.404 M918.812 977.966 Q918.684 968.354 913.401 962.625 Q908.181 956.896 899.523 956.896 Q889.72 956.896 883.8 962.434 Q877.944 967.972 877.052 978.03 L918.812 977.966 Z" fill="#000000" fill-rule="evenodd" fill-opacity="1" /><path clip-path="url(#clip090)" d="M1005.26 962.37 Q1009.65 954.477 1015.76 950.721 Q1021.87 946.965 1030.15 946.965 Q1041.29 946.965 1047.34 954.795 Q1053.38 962.561 1053.38 976.948 L1053.38 1019.98 L1041.61 1019.98 L1041.61 977.33 Q1041.61 967.081 1037.98 962.116 Q1034.35 957.15 1026.9 957.15 Q1017.8 957.15 1012.51 963.198 Q1007.23 969.245 1007.23 979.685 L1007.23 1019.98 L995.455 1019.98 L995.455 977.33 Q995.455 967.017 991.826 962.116 Q988.198 957.15 980.623 957.15 Q971.647 957.15 966.363 963.261 Q961.08 969.309 961.08 979.685 L961.08 1019.98 L949.303 1019.98 L949.303 948.684 L961.08 948.684 L961.08 959.76 Q965.09 953.204 970.692 950.084 Q976.294 946.965 983.996 946.965 Q991.763 946.965 997.173 950.912 Q1002.65 954.859 1005.26 962.37 Z" fill="#000000" fill-rule="evenodd" fill-opacity="1" /><path clip-path="url(#clip090)" d="M1109.15 984.141 Q1094.95 984.141 1089.48 987.387 Q1084 990.634 1084 998.464 Q1084 1004.7 1088.08 1008.39 Q1092.21 1012.02 1099.28 1012.02 Q1109.02 1012.02 1114.88 1005.15 Q1120.8 998.209 1120.8 986.751 L1120.8 984.141 L1109.15 984.141 M1132.51 979.303 L1132.51 1019.98 L1120.8 1019.98 L1120.8 1009.16 Q1116.78 1015.65 1110.8 1018.77 Q1104.82 1021.83 1096.16 1021.83 Q1085.21 1021.83 1078.72 1015.71 Q1072.29 1009.54 1072.29 999.228 Q1072.29 987.196 1080.31 981.085 Q1088.39 974.974 1104.37 974.974 L1120.8 974.974 L1120.8 973.828 Q1120.8 965.744 1115.45 961.352 Q1110.16 956.896 1100.55 956.896 Q1094.44 956.896 1088.65 958.36 Q1082.86 959.824 1077.51 962.752 L1077.51 951.93 Q1083.94 949.448 1089.99 948.238 Q1096.03 946.965 1101.76 946.965 Q1117.23 946.965 1124.87 954.986 Q1132.51 963.007 1132.51 979.303 Z" fill="#000000" fill-rule="evenodd" fill-opacity="1" /><path clip-path="url(#clip090)" d="M1215.9 976.948 L1215.9 1019.98 L1204.19 1019.98 L1204.19 977.33 Q1204.19 967.208 1200.24 962.179 Q1196.29 957.15 1188.4 957.15 Q1178.91 957.15 1173.44 963.198 Q1167.97 969.245 1167.97 979.685 L1167.97 1019.98 L1156.19 1019.98 L1156.19 948.684 L1167.97 948.684 L1167.97 959.76 Q1172.17 953.331 1177.83 950.148 Q1183.56 946.965 1191.01 946.965 Q1203.29 946.965 1209.6 954.604 Q1215.9 962.179 1215.9 976.948 Z" fill="#000000" fill-rule="evenodd" fill-opacity="1" /><path clip-path="url(#clip090)" d="M1286.18 959.506 L1286.18 920.929 L1297.89 920.929 L1297.89 1019.98 L1286.18 1019.98 L1286.18 1009.29 Q1282.48 1015.65 1276.82 1018.77 Q1271.22 1021.83 1263.32 1021.83 Q1250.4 1021.83 1242.25 1011.51 Q1234.17 1001.2 1234.17 984.396 Q1234.17 967.59 1242.25 957.278 Q1250.4 946.965 1263.32 946.965 Q1271.22 946.965 1276.82 950.084 Q1282.48 953.14 1286.18 959.506 M1246.26 984.396 Q1246.26 997.318 1251.55 1004.7 Q1256.89 1012.02 1266.19 1012.02 Q1275.48 1012.02 1280.83 1004.7 Q1286.18 997.318 1286.18 984.396 Q1286.18 971.473 1280.83 964.153 Q1275.48 956.768 1266.19 956.768 Q1256.89 956.768 1251.55 964.153 Q1246.26 971.473 1246.26 984.396 Z" fill="#000000" fill-rule="evenodd" fill-opacity="1" /><polyline clip-path="url(#clip090)" style="stroke:#0000ff; stroke-linecap:round; stroke-linejoin:round; stroke-width:11; stroke-opacity:1; fill:none" stroke-dasharray="6, 11" points="
  607.043,1115.02 756.744,1115.02 
  "/>
<path clip-path="url(#clip090)" d="M781.694 1067.5 L841.786 1067.5 L841.786 1078.32 L794.553 1078.32 L794.553 1106.46 L839.813 1106.46 L839.813 1117.28 L794.553 1117.28 L794.553 1151.72 L842.932 1151.72 L842.932 1162.54 L781.694 1162.54 L781.694 1067.5 Z" fill="#000000" fill-rule="evenodd" fill-opacity="1" /><path clip-path="url(#clip090)" d="M863.557 1063.49 L875.27 1063.49 L875.27 1162.54 L863.557 1162.54 L863.557 1063.49 Z" fill="#000000" fill-rule="evenodd" fill-opacity="1" /><path clip-path="url(#clip090)" d="M960.762 1123.96 L960.762 1129.69 L906.908 1129.69 Q907.672 1141.79 914.165 1148.15 Q920.721 1154.46 932.37 1154.46 Q939.118 1154.46 945.42 1152.8 Q951.786 1151.15 958.024 1147.84 L958.024 1158.91 Q951.722 1161.58 945.102 1162.99 Q938.482 1164.39 931.67 1164.39 Q914.61 1164.39 904.616 1154.46 Q894.685 1144.52 894.685 1127.59 Q894.685 1110.09 904.107 1099.84 Q913.592 1089.53 929.633 1089.53 Q944.02 1089.53 952.359 1098.82 Q960.762 1108.05 960.762 1123.96 M949.049 1120.53 Q948.921 1110.91 943.638 1105.18 Q938.418 1099.46 929.761 1099.46 Q919.957 1099.46 914.037 1104.99 Q908.181 1110.53 907.29 1120.59 L949.049 1120.53 Z" fill="#000000" fill-rule="evenodd" fill-opacity="1" /><path clip-path="url(#clip090)" d="M1031.29 1093.98 L1031.29 1104.93 Q1026.33 1102.19 1021.3 1100.86 Q1016.33 1099.46 1011.24 1099.46 Q999.847 1099.46 993.545 1106.71 Q987.243 1113.91 987.243 1126.96 Q987.243 1140.01 993.545 1147.26 Q999.847 1154.46 1011.24 1154.46 Q1016.33 1154.46 1021.3 1153.12 Q1026.33 1151.72 1031.29 1148.98 L1031.29 1159.8 Q1026.39 1162.09 1021.11 1163.24 Q1015.89 1164.39 1009.97 1164.39 Q993.863 1164.39 984.378 1154.26 Q974.893 1144.14 974.893 1126.96 Q974.893 1109.51 984.442 1099.52 Q994.054 1089.53 1010.73 1089.53 Q1016.14 1089.53 1021.3 1090.67 Q1026.46 1091.75 1031.29 1093.98 Z" fill="#000000" fill-rule="evenodd" fill-opacity="1" /><path clip-path="url(#clip090)" d="M1063.25 1071 L1063.25 1091.24 L1087.38 1091.24 L1087.38 1100.35 L1063.25 1100.35 L1063.25 1139.05 Q1063.25 1147.77 1065.6 1150.25 Q1068.02 1152.74 1075.34 1152.74 L1087.38 1152.74 L1087.38 1162.54 L1075.34 1162.54 Q1061.79 1162.54 1056.63 1157.51 Q1051.47 1152.42 1051.47 1139.05 L1051.47 1100.35 L1042.88 1100.35 L1042.88 1091.24 L1051.47 1091.24 L1051.47 1071 L1063.25 1071 Z" fill="#000000" fill-rule="evenodd" fill-opacity="1" /><path clip-path="url(#clip090)" d="M1144.09 1102.19 Q1142.12 1101.05 1139.77 1100.54 Q1137.47 1099.96 1134.67 1099.96 Q1124.74 1099.96 1119.39 1106.46 Q1114.11 1112.89 1114.11 1124.98 L1114.11 1162.54 L1102.33 1162.54 L1102.33 1091.24 L1114.11 1091.24 L1114.11 1102.32 Q1117.8 1095.83 1123.72 1092.71 Q1129.64 1089.53 1138.11 1089.53 Q1139.32 1089.53 1140.78 1089.72 Q1142.25 1089.84 1144.03 1090.16 L1144.09 1102.19 Z" fill="#000000" fill-rule="evenodd" fill-opacity="1" /><path clip-path="url(#clip090)" d="M1156.38 1091.24 L1168.09 1091.24 L1168.09 1162.54 L1156.38 1162.54 L1156.38 1091.24 M1156.38 1063.49 L1168.09 1063.49 L1168.09 1078.32 L1156.38 1078.32 L1156.38 1063.49 Z" fill="#000000" fill-rule="evenodd" fill-opacity="1" /><path clip-path="url(#clip090)" d="M1243.91 1093.98 L1243.91 1104.93 Q1238.94 1102.19 1233.91 1100.86 Q1228.95 1099.46 1223.86 1099.46 Q1212.46 1099.46 1206.16 1106.71 Q1199.86 1113.91 1199.86 1126.96 Q1199.86 1140.01 1206.16 1147.26 Q1212.46 1154.46 1223.86 1154.46 Q1228.95 1154.46 1233.91 1153.12 Q1238.94 1151.72 1243.91 1148.98 L1243.91 1159.8 Q1239.01 1162.09 1233.72 1163.24 Q1228.5 1164.39 1222.58 1164.39 Q1206.48 1164.39 1196.99 1154.26 Q1187.51 1144.14 1187.51 1126.96 Q1187.51 1109.51 1197.06 1099.52 Q1206.67 1089.53 1223.35 1089.53 Q1228.76 1089.53 1233.91 1090.67 Q1239.07 1091.75 1243.91 1093.98 Z" fill="#000000" fill-rule="evenodd" fill-opacity="1" /><path clip-path="url(#clip090)" d="M1264.28 1091.24 L1275.99 1091.24 L1275.99 1162.54 L1264.28 1162.54 L1264.28 1091.24 M1264.28 1063.49 L1275.99 1063.49 L1275.99 1078.32 L1264.28 1078.32 L1264.28 1063.49 Z" fill="#000000" fill-rule="evenodd" fill-opacity="1" /><path clip-path="url(#clip090)" d="M1312.08 1071 L1312.08 1091.24 L1336.21 1091.24 L1336.21 1100.35 L1312.08 1100.35 L1312.08 1139.05 Q1312.08 1147.77 1314.44 1150.25 Q1316.86 1152.74 1324.18 1152.74 L1336.21 1152.74 L1336.21 1162.54 L1324.18 1162.54 Q1310.62 1162.54 1305.46 1157.51 Q1300.31 1152.42 1300.31 1139.05 L1300.31 1100.35 L1291.71 1100.35 L1291.71 1091.24 L1300.31 1091.24 L1300.31 1071 L1312.08 1071 Z" fill="#000000" fill-rule="evenodd" fill-opacity="1" /><path clip-path="url(#clip090)" d="M1381.28 1169.16 Q1376.31 1181.89 1371.6 1185.77 Q1366.89 1189.66 1359 1189.66 L1349.64 1189.66 L1349.64 1179.85 L1356.52 1179.85 Q1361.36 1179.85 1364.03 1177.56 Q1366.7 1175.27 1369.95 1166.74 L1372.05 1161.39 L1343.21 1091.24 L1355.63 1091.24 L1377.91 1147.01 L1400.19 1091.24 L1412.6 1091.24 L1381.28 1169.16 Z" fill="#000000" fill-rule="evenodd" fill-opacity="1" /><path clip-path="url(#clip090)" d="M1483.58 1078.07 L1483.58 1113.78 L1499.75 1113.78 Q1508.72 1113.78 1513.62 1109.13 Q1518.52 1104.48 1518.52 1095.89 Q1518.52 1087.36 1513.62 1082.71 Q1508.72 1078.07 1499.75 1078.07 L1483.58 1078.07 M1470.72 1067.5 L1499.75 1067.5 Q1515.72 1067.5 1523.87 1074.76 Q1532.08 1081.95 1532.08 1095.89 Q1532.08 1109.96 1523.87 1117.15 Q1515.72 1124.35 1499.75 1124.35 L1483.58 1124.35 L1483.58 1162.54 L1470.72 1162.54 L1470.72 1067.5 Z" fill="#000000" fill-rule="evenodd" fill-opacity="1" /><path clip-path="url(#clip090)" d="M1587.85 1102.19 Q1585.87 1101.05 1583.52 1100.54 Q1581.23 1099.96 1578.43 1099.96 Q1568.5 1099.96 1563.15 1106.46 Q1557.86 1112.89 1557.86 1124.98 L1557.86 1162.54 L1546.09 1162.54 L1546.09 1091.24 L1557.86 1091.24 L1557.86 1102.32 Q1561.56 1095.83 1567.48 1092.71 Q1573.4 1089.53 1581.86 1089.53 Q1583.07 1089.53 1584.54 1089.72 Q1586 1089.84 1587.78 1090.16 L1587.85 1102.19 Z" fill="#000000" fill-rule="evenodd" fill-opacity="1" /><path clip-path="url(#clip090)" d="M1600.13 1091.24 L1611.85 1091.24 L1611.85 1162.54 L1600.13 1162.54 L1600.13 1091.24 M1600.13 1063.49 L1611.85 1063.49 L1611.85 1078.32 L1600.13 1078.32 L1600.13 1063.49 Z" fill="#000000" fill-rule="evenodd" fill-opacity="1" /><path clip-path="url(#clip090)" d="M1687.66 1093.98 L1687.66 1104.93 Q1682.7 1102.19 1677.67 1100.86 Q1672.7 1099.46 1667.61 1099.46 Q1656.21 1099.46 1649.91 1106.71 Q1643.61 1113.91 1643.61 1126.96 Q1643.61 1140.01 1649.91 1147.26 Q1656.21 1154.46 1667.61 1154.46 Q1672.7 1154.46 1677.67 1153.12 Q1682.7 1151.72 1687.66 1148.98 L1687.66 1159.8 Q1682.76 1162.09 1677.48 1163.24 Q1672.26 1164.39 1666.34 1164.39 Q1650.23 1164.39 1640.75 1154.26 Q1631.26 1144.14 1631.26 1126.96 Q1631.26 1109.51 1640.81 1099.52 Q1650.42 1089.53 1667.1 1089.53 Q1672.51 1089.53 1677.67 1090.67 Q1682.82 1091.75 1687.66 1093.98 Z" fill="#000000" fill-rule="evenodd" fill-opacity="1" /><path clip-path="url(#clip090)" d="M1769.02 1123.96 L1769.02 1129.69 L1715.16 1129.69 Q1715.93 1141.79 1722.42 1148.15 Q1728.97 1154.46 1740.62 1154.46 Q1747.37 1154.46 1753.67 1152.8 Q1760.04 1151.15 1766.28 1147.84 L1766.28 1158.91 Q1759.98 1161.58 1753.36 1162.99 Q1746.74 1164.39 1739.92 1164.39 Q1722.86 1164.39 1712.87 1154.46 Q1702.94 1144.52 1702.94 1127.59 Q1702.94 1110.09 1712.36 1099.84 Q1721.85 1089.53 1737.89 1089.53 Q1752.27 1089.53 1760.61 1098.82 Q1769.02 1108.05 1769.02 1123.96 M1757.3 1120.53 Q1757.18 1110.91 1751.89 1105.18 Q1746.67 1099.46 1738.01 1099.46 Q1728.21 1099.46 1722.29 1104.99 Q1716.43 1110.53 1715.54 1120.59 L1757.3 1120.53 Z" fill="#000000" fill-rule="evenodd" fill-opacity="1" /></svg>
