<?xml version="1.0" encoding="utf-8"?>
<svg xmlns="http://www.w3.org/2000/svg" xmlns:xlink="http://www.w3.org/1999/xlink" width="700" height="400" viewBox="0 0 2800 1600">
<defs>
  <clipPath id="clip050">
    <rect x="0" y="0" width="2800" height="1600"/>
  </clipPath>
</defs>
<path clip-path="url(#clip050)" d="
M0 1600 L2800 1600 L2800 0 L0 0  Z
  " fill="#ffffff" fill-rule="evenodd" fill-opacity="1"/>
<defs>
  <clipPath id="clip051">
    <rect x="560" y="0" width="1961" height="1600"/>
  </clipPath>
</defs>
<path clip-path="url(#clip050)" d="
M458.174 1208.01 L2752.76 1208.01 L2752.76 174.078 L458.174 174.078  Z
  " fill="#ffffff" fill-rule="evenodd" fill-opacity="1"/>
<defs>
  <clipPath id="clip052">
    <rect x="458" y="174" width="2296" height="1035"/>
  </clipPath>
</defs>
<polyline clip-path="url(#clip050)" style="stroke:#000000; stroke-linecap:round; stroke-linejoin:round; stroke-width:4; stroke-opacity:1; fill:none" points="
  458.174,1208.01 2752.76,1208.01 
  "/>
<polyline clip-path="url(#clip050)" style="stroke:#000000; stroke-linecap:round; stroke-linejoin:round; stroke-width:4; stroke-opacity:1; fill:none" points="
  523.115,1208.01 523.115,1189.11 
  "/>
<polyline clip-path="url(#clip050)" style="stroke:#000000; stroke-linecap:round; stroke-linejoin:round; stroke-width:4; stroke-opacity:1; fill:none" points="
  947.566,1208.01 947.566,1189.11 
  "/>
<polyline clip-path="url(#clip050)" style="stroke:#000000; stroke-linecap:round; stroke-linejoin:round; stroke-width:4; stroke-opacity:1; fill:none" points="
  1372.02,1208.01 1372.02,1189.11 
  "/>
<polyline clip-path="url(#clip050)" style="stroke:#000000; stroke-linecap:round; stroke-linejoin:round; stroke-width:4; stroke-opacity:1; fill:none" points="
  1796.47,1208.01 1796.47,1189.11 
  "/>
<polyline clip-path="url(#clip050)" style="stroke:#000000; stroke-linecap:round; stroke-linejoin:round; stroke-width:4; stroke-opacity:1; fill:none" points="
  2220.92,1208.01 2220.92,1189.11 
  "/>
<polyline clip-path="url(#clip050)" style="stroke:#000000; stroke-linecap:round; stroke-linejoin:round; stroke-width:4; stroke-opacity:1; fill:none" points="
  2645.37,1208.01 2645.37,1189.11 
  "/>
<path clip-path="url(#clip050)" d="M523.115 1256.77 Q514.99 1256.77 510.875 1264.8 Q506.813 1272.76 506.813 1288.81 Q506.813 1304.8 510.875 1312.82 Q514.99 1320.78 523.115 1320.78 Q531.292 1320.78 535.354 1312.82 Q539.469 1304.8 539.469 1288.81 Q539.469 1272.76 535.354 1264.8 Q531.292 1256.77 523.115 1256.77 M523.115 1248.44 Q536.188 1248.44 543.063 1258.81 Q549.99 1269.12 549.99 1288.81 Q549.99 1308.44 543.063 1318.81 Q536.188 1329.12 523.115 1329.12 Q510.042 1329.12 503.115 1318.81 Q496.24 1308.44 496.24 1288.81 Q496.24 1269.12 503.115 1258.81 Q510.042 1248.44 523.115 1248.44 Z" fill="#000000" fill-rule="evenodd" fill-opacity="1" /><path clip-path="url(#clip050)" d="M856.707 1249.85 L898.009 1249.85 L898.009 1258.7 L866.342 1258.7 L866.342 1277.76 Q868.634 1276.98 870.926 1276.62 Q873.217 1276.2 875.509 1276.2 Q888.53 1276.2 896.134 1283.34 Q903.738 1290.47 903.738 1302.66 Q903.738 1315.21 895.925 1322.19 Q888.113 1329.12 873.894 1329.12 Q868.998 1329.12 863.894 1328.28 Q858.842 1327.45 853.426 1325.78 L853.426 1315.21 Q858.113 1317.76 863.113 1319.01 Q868.113 1320.26 873.686 1320.26 Q882.696 1320.26 887.957 1315.52 Q893.217 1310.78 893.217 1302.66 Q893.217 1294.53 887.957 1289.8 Q882.696 1285.06 873.686 1285.06 Q869.467 1285.06 865.248 1285.99 Q861.082 1286.93 856.707 1288.91 L856.707 1249.85 Z" fill="#000000" fill-rule="evenodd" fill-opacity="1" /><path clip-path="url(#clip050)" d="M946.967 1256.77 Q938.842 1256.77 934.727 1264.8 Q930.665 1272.76 930.665 1288.81 Q930.665 1304.8 934.727 1312.82 Q938.842 1320.78 946.967 1320.78 Q955.144 1320.78 959.206 1312.82 Q963.321 1304.8 963.321 1288.81 Q963.321 1272.76 959.206 1264.8 Q955.144 1256.77 946.967 1256.77 M946.967 1248.44 Q960.04 1248.44 966.915 1258.81 Q973.842 1269.12 973.842 1288.81 Q973.842 1308.44 966.915 1318.81 Q960.04 1329.12 946.967 1329.12 Q933.894 1329.12 926.967 1318.81 Q920.092 1308.44 920.092 1288.81 Q920.092 1269.12 926.967 1258.81 Q933.894 1248.44 946.967 1248.44 Z" fill="#000000" fill-rule="evenodd" fill-opacity="1" /><path clip-path="url(#clip050)" d="M1014.83 1256.77 Q1006.71 1256.77 1002.59 1264.8 Q998.529 1272.76 998.529 1288.81 Q998.529 1304.8 1002.59 1312.82 Q1006.71 1320.78 1014.83 1320.78 Q1023.01 1320.78 1027.07 1312.82 Q1031.19 1304.8 1031.19 1288.81 Q1031.19 1272.76 1027.07 1264.8 Q1023.01 1256.77 1014.83 1256.77 M1014.83 1248.44 Q1027.9 1248.44 1034.78 1258.81 Q1041.71 1269.12 1041.71 1288.81 Q1041.71 1308.44 1034.78 1318.81 Q1027.9 1329.12 1014.83 1329.12 Q1001.76 1329.12 994.831 1318.81 Q987.956 1308.44 987.956 1288.81 Q987.956 1269.12 994.831 1258.81 Q1001.76 1248.44 1014.83 1248.44 Z" fill="#000000" fill-rule="evenodd" fill-opacity="1" /><path clip-path="url(#clip050)" d="M1247.2 1318.75 L1264.39 1318.75 L1264.39 1259.43 L1245.69 1263.18 L1245.69 1253.6 L1264.28 1249.85 L1274.8 1249.85 L1274.8 1318.75 L1291.99 1318.75 L1291.99 1327.61 L1247.2 1327.61 L1247.2 1318.75 Z" fill="#000000" fill-rule="evenodd" fill-opacity="1" /><path clip-path="url(#clip050)" d="M1335.74 1256.77 Q1327.62 1256.77 1323.5 1264.8 Q1319.44 1272.76 1319.44 1288.81 Q1319.44 1304.8 1323.5 1312.82 Q1327.62 1320.78 1335.74 1320.78 Q1343.92 1320.78 1347.98 1312.82 Q1352.09 1304.8 1352.09 1288.81 Q1352.09 1272.76 1347.98 1264.8 Q1343.92 1256.77 1335.74 1256.77 M1335.74 1248.44 Q1348.81 1248.44 1355.69 1258.81 Q1362.62 1269.12 1362.62 1288.81 Q1362.62 1308.44 1355.69 1318.81 Q1348.81 1329.12 1335.74 1329.12 Q1322.67 1329.12 1315.74 1318.81 Q1308.87 1308.44 1308.87 1288.81 Q1308.87 1269.12 1315.74 1258.81 Q1322.67 1248.44 1335.74 1248.44 Z" fill="#000000" fill-rule="evenodd" fill-opacity="1" /><path clip-path="url(#clip050)" d="M1403.61 1256.77 Q1395.48 1256.77 1391.37 1264.8 Q1387.3 1272.76 1387.3 1288.81 Q1387.3 1304.8 1391.37 1312.82 Q1395.48 1320.78 1403.61 1320.78 Q1411.78 1320.78 1415.84 1312.82 Q1419.96 1304.8 1419.96 1288.81 Q1419.96 1272.76 1415.84 1264.8 Q1411.78 1256.77 1403.61 1256.77 M1403.61 1248.44 Q1416.68 1248.44 1423.55 1258.81 Q1430.48 1269.12 1430.48 1288.81 Q1430.48 1308.44 1423.55 1318.81 Q1416.68 1329.12 1403.61 1329.12 Q1390.53 1329.12 1383.61 1318.81 Q1376.73 1308.44 1376.73 1288.81 Q1376.73 1269.12 1383.61 1258.81 Q1390.53 1248.44 1403.61 1248.44 Z" fill="#000000" fill-rule="evenodd" fill-opacity="1" /><path clip-path="url(#clip050)" d="M1471.47 1256.77 Q1463.34 1256.77 1459.23 1264.8 Q1455.17 1272.76 1455.17 1288.81 Q1455.17 1304.8 1459.23 1312.82 Q1463.34 1320.78 1471.47 1320.78 Q1479.65 1320.78 1483.71 1312.82 Q1487.82 1304.8 1487.82 1288.81 Q1487.82 1272.76 1483.71 1264.8 Q1479.65 1256.77 1471.47 1256.77 M1471.47 1248.44 Q1484.54 1248.44 1491.42 1258.81 Q1498.34 1269.12 1498.34 1288.81 Q1498.34 1308.44 1491.42 1318.81 Q1484.54 1329.12 1471.47 1329.12 Q1458.4 1329.12 1451.47 1318.81 Q1444.59 1308.44 1444.59 1288.81 Q1444.59 1269.12 1451.47 1258.81 Q1458.4 1248.44 1471.47 1248.44 Z" fill="#000000" fill-rule="evenodd" fill-opacity="1" /><path clip-path="url(#clip050)" d="M1671.65 1318.75 L1688.84 1318.75 L1688.84 1259.43 L1670.14 1263.18 L1670.14 1253.6 L1688.73 1249.85 L1699.25 1249.85 L1699.25 1318.75 L1716.44 1318.75 L1716.44 1327.61 L1671.65 1327.61 L1671.65 1318.75 Z" fill="#000000" fill-rule="evenodd" fill-opacity="1" /><path clip-path="url(#clip050)" d="M1737.8 1249.85 L1779.1 1249.85 L1779.1 1258.7 L1747.43 1258.7 L1747.43 1277.76 Q1749.72 1276.98 1752.01 1276.62 Q1754.31 1276.2 1756.6 1276.2 Q1769.62 1276.2 1777.22 1283.34 Q1784.83 1290.47 1784.83 1302.66 Q1784.83 1315.21 1777.01 1322.19 Q1769.2 1329.12 1754.98 1329.12 Q1750.09 1329.12 1744.98 1328.28 Q1739.93 1327.45 1734.51 1325.78 L1734.51 1315.21 Q1739.2 1317.76 1744.2 1319.01 Q1749.2 1320.26 1754.78 1320.26 Q1763.79 1320.26 1769.05 1315.52 Q1774.31 1310.78 1774.31 1302.66 Q1774.31 1294.53 1769.05 1289.8 Q1763.79 1285.06 1754.78 1285.06 Q1750.56 1285.06 1746.34 1285.99 Q1742.17 1286.93 1737.8 1288.91 L1737.8 1249.85 Z" fill="#000000" fill-rule="evenodd" fill-opacity="1" /><path clip-path="url(#clip050)" d="M1828.06 1256.77 Q1819.93 1256.77 1815.82 1264.8 Q1811.75 1272.76 1811.75 1288.81 Q1811.75 1304.8 1815.82 1312.82 Q1819.93 1320.78 1828.06 1320.78 Q1836.23 1320.78 1840.3 1312.82 Q1844.41 1304.8 1844.41 1288.81 Q1844.41 1272.76 1840.3 1264.8 Q1836.23 1256.77 1828.06 1256.77 M1828.06 1248.44 Q1841.13 1248.44 1848 1258.81 Q1854.93 1269.12 1854.93 1288.81 Q1854.93 1308.44 1848 1318.81 Q1841.13 1329.12 1828.06 1329.12 Q1814.98 1329.12 1808.06 1318.81 Q1801.18 1308.44 1801.18 1288.81 Q1801.18 1269.12 1808.06 1258.81 Q1814.98 1248.44 1828.06 1248.44 Z" fill="#000000" fill-rule="evenodd" fill-opacity="1" /><path clip-path="url(#clip050)" d="M1895.92 1256.77 Q1887.8 1256.77 1883.68 1264.8 Q1879.62 1272.76 1879.62 1288.81 Q1879.62 1304.8 1883.68 1312.82 Q1887.8 1320.78 1895.92 1320.78 Q1904.1 1320.78 1908.16 1312.82 Q1912.27 1304.8 1912.27 1288.81 Q1912.27 1272.76 1908.16 1264.8 Q1904.1 1256.77 1895.92 1256.77 M1895.92 1248.44 Q1908.99 1248.44 1915.87 1258.81 Q1922.8 1269.12 1922.8 1288.81 Q1922.8 1308.44 1915.87 1318.81 Q1908.99 1329.12 1895.92 1329.12 Q1882.85 1329.12 1875.92 1318.81 Q1869.05 1308.44 1869.05 1288.81 Q1869.05 1269.12 1875.92 1258.81 Q1882.85 1248.44 1895.92 1248.44 Z" fill="#000000" fill-rule="evenodd" fill-opacity="1" /><path clip-path="url(#clip050)" d="M2105.29 1318.75 L2142.01 1318.75 L2142.01 1327.61 L2092.64 1327.61 L2092.64 1318.75 Q2098.63 1312.56 2108.94 1302.14 Q2119.3 1291.67 2121.96 1288.65 Q2127.01 1282.97 2128.99 1279.07 Q2131.02 1275.11 2131.02 1271.31 Q2131.02 1265.11 2126.65 1261.2 Q2122.33 1257.3 2115.35 1257.3 Q2110.4 1257.3 2104.88 1259.01 Q2099.41 1260.73 2093.16 1264.22 L2093.16 1253.6 Q2099.51 1251.05 2105.03 1249.74 Q2110.55 1248.44 2115.14 1248.44 Q2127.22 1248.44 2134.41 1254.48 Q2141.6 1260.52 2141.6 1270.63 Q2141.6 1275.42 2139.77 1279.74 Q2138 1284.01 2133.26 1289.85 Q2131.96 1291.36 2124.98 1298.6 Q2118 1305.78 2105.29 1318.75 Z" fill="#000000" fill-rule="evenodd" fill-opacity="1" /><path clip-path="url(#clip050)" d="M2186.6 1256.77 Q2178.47 1256.77 2174.36 1264.8 Q2170.29 1272.76 2170.29 1288.81 Q2170.29 1304.8 2174.36 1312.82 Q2178.47 1320.78 2186.6 1320.78 Q2194.77 1320.78 2198.84 1312.82 Q2202.95 1304.8 2202.95 1288.81 Q2202.95 1272.76 2198.84 1264.8 Q2194.77 1256.77 2186.6 1256.77 M2186.6 1248.44 Q2199.67 1248.44 2206.54 1258.81 Q2213.47 1269.12 2213.47 1288.81 Q2213.47 1308.44 2206.54 1318.81 Q2199.67 1329.12 2186.6 1329.12 Q2173.52 1329.12 2166.6 1318.81 Q2159.72 1308.44 2159.72 1288.81 Q2159.72 1269.12 2166.6 1258.81 Q2173.52 1248.44 2186.6 1248.44 Z" fill="#000000" fill-rule="evenodd" fill-opacity="1" /><path clip-path="url(#clip050)" d="M2254.46 1256.77 Q2246.34 1256.77 2242.22 1264.8 Q2238.16 1272.76 2238.16 1288.81 Q2238.16 1304.8 2242.22 1312.82 Q2246.34 1320.78 2254.46 1320.78 Q2262.64 1320.78 2266.7 1312.82 Q2270.81 1304.8 2270.81 1288.81 Q2270.81 1272.76 2266.7 1264.8 Q2262.64 1256.77 2254.46 1256.77 M2254.46 1248.44 Q2267.53 1248.44 2274.41 1258.81 Q2281.34 1269.12 2281.34 1288.81 Q2281.34 1308.44 2274.41 1318.81 Q2267.53 1329.12 2254.46 1329.12 Q2241.39 1329.12 2234.46 1318.81 Q2227.59 1308.44 2227.59 1288.81 Q2227.59 1269.12 2234.46 1258.81 Q2241.39 1248.44 2254.46 1248.44 Z" fill="#000000" fill-rule="evenodd" fill-opacity="1" /><path clip-path="url(#clip050)" d="M2322.32 1256.77 Q2314.2 1256.77 2310.08 1264.8 Q2306.02 1272.76 2306.02 1288.81 Q2306.02 1304.8 2310.08 1312.82 Q2314.2 1320.78 2322.32 1320.78 Q2330.5 1320.78 2334.56 1312.82 Q2338.68 1304.8 2338.68 1288.81 Q2338.68 1272.76 2334.56 1264.8 Q2330.5 1256.77 2322.32 1256.77 M2322.32 1248.44 Q2335.4 1248.44 2342.27 1258.81 Q2349.2 1269.12 2349.2 1288.81 Q2349.2 1308.44 2342.27 1318.81 Q2335.4 1329.12 2322.32 1329.12 Q2309.25 1329.12 2302.32 1318.81 Q2295.45 1308.44 2295.45 1288.81 Q2295.45 1269.12 2302.32 1258.81 Q2309.25 1248.44 2322.32 1248.44 Z" fill="#000000" fill-rule="evenodd" fill-opacity="1" /><path clip-path="url(#clip050)" d="M2529.75 1318.75 L2566.46 1318.75 L2566.46 1327.61 L2517.09 1327.61 L2517.09 1318.75 Q2523.08 1312.56 2533.39 1302.14 Q2543.76 1291.67 2546.41 1288.65 Q2551.46 1282.97 2553.44 1279.07 Q2555.47 1275.11 2555.47 1271.31 Q2555.47 1265.11 2551.1 1261.2 Q2546.78 1257.3 2539.8 1257.3 Q2534.85 1257.3 2529.33 1259.01 Q2523.86 1260.73 2517.61 1264.22 L2517.61 1253.6 Q2523.96 1251.05 2529.49 1249.74 Q2535.01 1248.44 2539.59 1248.44 Q2551.67 1248.44 2558.86 1254.48 Q2566.05 1260.52 2566.05 1270.63 Q2566.05 1275.42 2564.22 1279.74 Q2562.45 1284.01 2557.71 1289.85 Q2556.41 1291.36 2549.43 1298.6 Q2542.45 1305.78 2529.75 1318.75 Z" fill="#000000" fill-rule="evenodd" fill-opacity="1" /><path clip-path="url(#clip050)" d="M2588.65 1249.85 L2629.95 1249.85 L2629.95 1258.7 L2598.29 1258.7 L2598.29 1277.76 Q2600.58 1276.98 2602.87 1276.62 Q2605.16 1276.2 2607.45 1276.2 Q2620.47 1276.2 2628.08 1283.34 Q2635.68 1290.47 2635.68 1302.66 Q2635.68 1315.21 2627.87 1322.19 Q2620.06 1329.12 2605.84 1329.12 Q2600.94 1329.12 2595.84 1328.28 Q2590.79 1327.45 2585.37 1325.78 L2585.37 1315.21 Q2590.06 1317.76 2595.06 1319.01 Q2600.06 1320.26 2605.63 1320.26 Q2614.64 1320.26 2619.9 1315.52 Q2625.16 1310.78 2625.16 1302.66 Q2625.16 1294.53 2619.9 1289.8 Q2614.64 1285.06 2605.63 1285.06 Q2601.41 1285.06 2597.19 1285.99 Q2593.03 1286.93 2588.65 1288.91 L2588.65 1249.85 Z" fill="#000000" fill-rule="evenodd" fill-opacity="1" /><path clip-path="url(#clip050)" d="M2678.91 1256.77 Q2670.79 1256.77 2666.67 1264.8 Q2662.61 1272.76 2662.61 1288.81 Q2662.61 1304.8 2666.67 1312.82 Q2670.79 1320.78 2678.91 1320.78 Q2687.09 1320.78 2691.15 1312.82 Q2695.27 1304.8 2695.27 1288.81 Q2695.27 1272.76 2691.15 1264.8 Q2687.09 1256.77 2678.91 1256.77 M2678.91 1248.44 Q2691.98 1248.44 2698.86 1258.81 Q2705.79 1269.12 2705.79 1288.81 Q2705.79 1308.44 2698.86 1318.81 Q2691.98 1329.12 2678.91 1329.12 Q2665.84 1329.12 2658.91 1318.81 Q2652.04 1308.44 2652.04 1288.81 Q2652.04 1269.12 2658.91 1258.81 Q2665.84 1248.44 2678.91 1248.44 Z" fill="#000000" fill-rule="evenodd" fill-opacity="1" /><path clip-path="url(#clip050)" d="M2746.78 1256.77 Q2738.65 1256.77 2734.54 1264.8 Q2730.47 1272.76 2730.47 1288.81 Q2730.47 1304.8 2734.54 1312.82 Q2738.65 1320.78 2746.78 1320.78 Q2754.95 1320.78 2759.02 1312.82 Q2763.13 1304.8 2763.13 1288.81 Q2763.13 1272.76 2759.02 1264.8 Q2754.95 1256.77 2746.78 1256.77 M2746.78 1248.44 Q2759.85 1248.44 2766.72 1258.81 Q2773.65 1269.12 2773.65 1288.81 Q2773.65 1308.44 2766.72 1318.81 Q2759.85 1329.12 2746.78 1329.12 Q2733.7 1329.12 2726.78 1318.81 Q2719.9 1308.44 2719.9 1288.81 Q2719.9 1269.12 2726.78 1258.81 Q2733.7 1248.44 2746.78 1248.44 Z" fill="#000000" fill-rule="evenodd" fill-opacity="1" /><path clip-path="url(#clip050)" d="M1178.66 1395.37 L1178.66 1410.16 Q1171.58 1403.56 1163.52 1400.3 Q1155.54 1397.04 1146.51 1397.04 Q1128.73 1397.04 1119.29 1407.94 Q1109.84 1418.77 1109.84 1439.33 Q1109.84 1459.81 1119.29 1470.72 Q1128.73 1481.55 1146.51 1481.55 Q1155.54 1481.55 1163.52 1478.29 Q1171.58 1475.02 1178.66 1468.42 L1178.66 1483.08 Q1171.3 1488.08 1163.04 1490.58 Q1154.84 1493.08 1145.68 1493.08 Q1122.13 1493.08 1108.59 1478.7 Q1095.05 1464.26 1095.05 1439.33 Q1095.05 1414.33 1108.59 1399.95 Q1122.13 1385.51 1145.68 1385.51 Q1154.98 1385.51 1163.18 1388.01 Q1171.44 1390.44 1178.66 1395.37 Z" fill="#000000" fill-rule="evenodd" fill-opacity="1" /><path clip-path="url(#clip050)" d="M1235.12 1451.97 Q1219.63 1451.97 1213.66 1455.51 Q1207.69 1459.05 1207.69 1467.59 Q1207.69 1474.4 1212.13 1478.42 Q1216.65 1482.38 1224.36 1482.38 Q1234.98 1482.38 1241.37 1474.88 Q1247.83 1467.31 1247.83 1454.81 L1247.83 1451.97 L1235.12 1451.97 M1260.61 1446.69 L1260.61 1491.06 L1247.83 1491.06 L1247.83 1479.26 Q1243.45 1486.34 1236.93 1489.74 Q1230.4 1493.08 1220.95 1493.08 Q1209.01 1493.08 1201.93 1486.41 Q1194.91 1479.67 1194.91 1468.42 Q1194.91 1455.3 1203.66 1448.63 Q1212.48 1441.97 1229.91 1441.97 L1247.83 1441.97 L1247.83 1440.72 Q1247.83 1431.9 1241.99 1427.11 Q1236.23 1422.24 1225.74 1422.24 Q1219.08 1422.24 1212.76 1423.84 Q1206.44 1425.44 1200.61 1428.63 L1200.61 1416.83 Q1207.62 1414.12 1214.22 1412.8 Q1220.81 1411.41 1227.06 1411.41 Q1243.94 1411.41 1252.27 1420.16 Q1260.61 1428.91 1260.61 1446.69 Z" fill="#000000" fill-rule="evenodd" fill-opacity="1" /><path clip-path="url(#clip050)" d="M1299.29 1479.4 L1299.29 1520.65 L1286.44 1520.65 L1286.44 1413.29 L1299.29 1413.29 L1299.29 1425.09 Q1303.31 1418.15 1309.42 1414.81 Q1315.61 1411.41 1324.15 1411.41 Q1338.31 1411.41 1347.13 1422.66 Q1356.02 1433.91 1356.02 1452.24 Q1356.02 1470.58 1347.13 1481.83 Q1338.31 1493.08 1324.15 1493.08 Q1315.61 1493.08 1309.42 1489.74 Q1303.31 1486.34 1299.29 1479.4 M1342.76 1452.24 Q1342.76 1438.15 1336.92 1430.16 Q1331.16 1422.11 1321.02 1422.11 Q1310.88 1422.11 1305.05 1430.16 Q1299.29 1438.15 1299.29 1452.24 Q1299.29 1466.34 1305.05 1474.4 Q1310.88 1482.38 1321.02 1482.38 Q1331.16 1482.38 1336.92 1474.4 Q1342.76 1466.34 1342.76 1452.24 Z" fill="#000000" fill-rule="evenodd" fill-opacity="1" /><path clip-path="url(#clip050)" d="M1412.55 1451.97 Q1397.06 1451.97 1391.09 1455.51 Q1385.12 1459.05 1385.12 1467.59 Q1385.12 1474.4 1389.56 1478.42 Q1394.08 1482.38 1401.79 1482.38 Q1412.41 1482.38 1418.8 1474.88 Q1425.26 1467.31 1425.26 1454.81 L1425.26 1451.97 L1412.55 1451.97 M1438.04 1446.69 L1438.04 1491.06 L1425.26 1491.06 L1425.26 1479.26 Q1420.88 1486.34 1414.35 1489.74 Q1407.83 1493.08 1398.38 1493.08 Q1386.44 1493.08 1379.35 1486.41 Q1372.34 1479.67 1372.34 1468.42 Q1372.34 1455.3 1381.09 1448.63 Q1389.91 1441.97 1407.34 1441.97 L1425.26 1441.97 L1425.26 1440.72 Q1425.26 1431.9 1419.42 1427.11 Q1413.66 1422.24 1403.17 1422.24 Q1396.51 1422.24 1390.19 1423.84 Q1383.87 1425.44 1378.04 1428.63 L1378.04 1416.83 Q1385.05 1414.12 1391.65 1412.8 Q1398.24 1411.41 1404.49 1411.41 Q1421.37 1411.41 1429.7 1420.16 Q1438.04 1428.91 1438.04 1446.69 Z" fill="#000000" fill-rule="evenodd" fill-opacity="1" /><path clip-path="url(#clip050)" d="M1520.33 1416.27 L1520.33 1428.22 Q1514.91 1425.23 1509.42 1423.77 Q1504.01 1422.24 1498.45 1422.24 Q1486.02 1422.24 1479.15 1430.16 Q1472.27 1438.01 1472.27 1452.24 Q1472.27 1466.48 1479.15 1474.4 Q1486.02 1482.24 1498.45 1482.24 Q1504.01 1482.24 1509.42 1480.79 Q1514.91 1479.26 1520.33 1476.27 L1520.33 1488.08 Q1514.98 1490.58 1509.22 1491.83 Q1503.52 1493.08 1497.06 1493.08 Q1479.49 1493.08 1469.15 1482.04 Q1458.8 1470.99 1458.8 1452.24 Q1458.8 1433.22 1469.22 1422.31 Q1479.7 1411.41 1497.9 1411.41 Q1503.8 1411.41 1509.42 1412.66 Q1515.05 1413.84 1520.33 1416.27 Z" fill="#000000" fill-rule="evenodd" fill-opacity="1" /><path clip-path="url(#clip050)" d="M1542.55 1413.29 L1555.33 1413.29 L1555.33 1491.06 L1542.55 1491.06 L1542.55 1413.29 M1542.55 1383.01 L1555.33 1383.01 L1555.33 1399.19 L1542.55 1399.19 L1542.55 1383.01 Z" fill="#000000" fill-rule="evenodd" fill-opacity="1" /><path clip-path="url(#clip050)" d="M1594.7 1391.2 L1594.7 1413.29 L1621.02 1413.29 L1621.02 1423.22 L1594.7 1423.22 L1594.7 1465.44 Q1594.7 1474.95 1597.27 1477.66 Q1599.91 1480.37 1607.9 1480.37 L1621.02 1480.37 L1621.02 1491.06 L1607.9 1491.06 Q1593.1 1491.06 1587.48 1485.58 Q1581.85 1480.02 1581.85 1465.44 L1581.85 1423.22 L1572.48 1423.22 L1572.48 1413.29 L1581.85 1413.29 L1581.85 1391.2 L1594.7 1391.2 Z" fill="#000000" fill-rule="evenodd" fill-opacity="1" /><path clip-path="url(#clip050)" d="M1670.19 1498.29 Q1664.77 1512.17 1659.63 1516.41 Q1654.49 1520.65 1645.88 1520.65 L1635.67 1520.65 L1635.67 1509.95 L1643.17 1509.95 Q1648.45 1509.95 1651.37 1507.45 Q1654.28 1504.95 1657.83 1495.65 L1660.12 1489.81 L1628.66 1413.29 L1642.2 1413.29 L1666.51 1474.12 L1690.81 1413.29 L1704.35 1413.29 L1670.19 1498.29 Z" fill="#000000" fill-rule="evenodd" fill-opacity="1" /><path clip-path="url(#clip050)" d="M1797.89 1383.15 Q1788.59 1399.12 1784.07 1414.74 Q1779.56 1430.37 1779.56 1446.41 Q1779.56 1462.45 1784.07 1478.22 Q1788.66 1493.91 1797.89 1509.81 L1786.78 1509.81 Q1776.37 1493.49 1771.16 1477.73 Q1766.02 1461.97 1766.02 1446.41 Q1766.02 1430.92 1771.16 1415.23 Q1776.3 1399.54 1786.78 1383.15 L1797.89 1383.15 Z" fill="#000000" fill-rule="evenodd" fill-opacity="1" /><path clip-path="url(#clip050)" d="M1823.24 1387.38 L1844.14 1387.38 L1870.6 1457.94 L1897.2 1387.38 L1918.1 1387.38 L1918.1 1491.06 L1904.42 1491.06 L1904.42 1400.02 L1877.69 1471.13 L1863.59 1471.13 L1836.85 1400.02 L1836.85 1491.06 L1823.24 1491.06 L1823.24 1387.38 Z" fill="#000000" fill-rule="evenodd" fill-opacity="1" /><path clip-path="url(#clip050)" d="M1936.71 1387.38 L1950.88 1387.38 L1972.69 1475.02 L1994.42 1387.38 L2010.18 1387.38 L2031.99 1475.02 L2053.73 1387.38 L2067.96 1387.38 L2041.92 1491.06 L2024.28 1491.06 L2002.41 1401.06 L1980.32 1491.06 L1962.69 1491.06 L1936.71 1387.38 Z" fill="#000000" fill-rule="evenodd" fill-opacity="1" /><path clip-path="url(#clip050)" d="M2084 1383.15 L2095.11 1383.15 Q2105.53 1399.54 2110.67 1415.23 Q2115.88 1430.92 2115.88 1446.41 Q2115.88 1461.97 2110.67 1477.73 Q2105.53 1493.49 2095.11 1509.81 L2084 1509.81 Q2093.24 1493.91 2097.75 1478.22 Q2102.34 1462.45 2102.34 1446.41 Q2102.34 1430.37 2097.75 1414.74 Q2093.24 1399.12 2084 1383.15 Z" fill="#000000" fill-rule="evenodd" fill-opacity="1" /><polyline clip-path="url(#clip050)" style="stroke:#000000; stroke-linecap:round; stroke-linejoin:round; stroke-width:4; stroke-opacity:1; fill:none" points="
  458.174,1208.01 458.174,174.078 
  "/>
<polyline clip-path="url(#clip050)" style="stroke:#000000; stroke-linecap:round; stroke-linejoin:round; stroke-width:4; stroke-opacity:1; fill:none" points="
  458.174,1178.75 477.071,1178.75 
  "/>
<polyline clip-path="url(#clip050)" style="stroke:#000000; stroke-linecap:round; stroke-linejoin:round; stroke-width:4; stroke-opacity:1; fill:none" points="
  458.174,966.701 477.071,966.701 
  "/>
<polyline clip-path="url(#clip050)" style="stroke:#000000; stroke-linecap:round; stroke-linejoin:round; stroke-width:4; stroke-opacity:1; fill:none" points="
  458.174,754.656 477.071,754.656 
  "/>
<polyline clip-path="url(#clip050)" style="stroke:#000000; stroke-linecap:round; stroke-linejoin:round; stroke-width:4; stroke-opacity:1; fill:none" points="
  458.174,542.611 477.071,542.611 
  "/>
<polyline clip-path="url(#clip050)" style="stroke:#000000; stroke-linecap:round; stroke-linejoin:round; stroke-width:4; stroke-opacity:1; fill:none" points="
  458.174,330.567 477.071,330.567 
  "/>
<path clip-path="url(#clip050)" d="M389.299 1146.79 Q381.174 1146.79 377.059 1154.81 Q372.997 1162.78 372.997 1178.82 Q372.997 1194.81 377.059 1202.83 Q381.174 1210.8 389.299 1210.8 Q397.476 1210.8 401.538 1202.83 Q405.653 1194.81 405.653 1178.82 Q405.653 1162.78 401.538 1154.81 Q397.476 1146.79 389.299 1146.79 M389.299 1138.46 Q402.372 1138.46 409.247 1148.82 Q416.174 1159.14 416.174 1178.82 Q416.174 1198.46 409.247 1208.82 Q402.372 1219.14 389.299 1219.14 Q376.226 1219.14 369.299 1208.82 Q362.424 1198.46 362.424 1178.82 Q362.424 1159.14 369.299 1148.82 Q376.226 1138.46 389.299 1138.46 Z" fill="#000000" fill-rule="evenodd" fill-opacity="1" /><path clip-path="url(#clip050)" d="M369.143 927.821 L410.445 927.821 L410.445 936.675 L378.778 936.675 L378.778 955.737 Q381.07 954.956 383.361 954.591 Q385.653 954.175 387.945 954.175 Q400.965 954.175 408.57 961.31 Q416.174 968.446 416.174 980.633 Q416.174 993.185 408.361 1000.16 Q400.549 1007.09 386.33 1007.09 Q381.434 1007.09 376.33 1006.26 Q371.278 1005.42 365.861 1003.76 L365.861 993.185 Q370.549 995.737 375.549 996.987 Q380.549 998.237 386.122 998.237 Q395.132 998.237 400.393 993.497 Q405.653 988.758 405.653 980.633 Q405.653 972.508 400.393 967.768 Q395.132 963.029 386.122 963.029 Q381.903 963.029 377.684 963.966 Q373.518 964.904 369.143 966.883 L369.143 927.821 Z" fill="#000000" fill-rule="evenodd" fill-opacity="1" /><path clip-path="url(#clip050)" d="M300.758 784.682 L317.945 784.682 L317.945 725.359 L299.247 729.109 L299.247 719.526 L317.841 715.776 L328.362 715.776 L328.362 784.682 L345.549 784.682 L345.549 793.536 L300.758 793.536 L300.758 784.682 Z" fill="#000000" fill-rule="evenodd" fill-opacity="1" /><path clip-path="url(#clip050)" d="M389.299 722.703 Q381.174 722.703 377.059 730.724 Q372.997 738.693 372.997 754.734 Q372.997 770.724 377.059 778.745 Q381.174 786.713 389.299 786.713 Q397.476 786.713 401.538 778.745 Q405.653 770.724 405.653 754.734 Q405.653 738.693 401.538 730.724 Q397.476 722.703 389.299 722.703 M389.299 714.37 Q402.372 714.37 409.247 724.734 Q416.174 735.047 416.174 754.734 Q416.174 774.37 409.247 784.734 Q402.372 795.047 389.299 795.047 Q376.226 795.047 369.299 784.734 Q362.424 774.37 362.424 754.734 Q362.424 735.047 369.299 724.734 Q376.226 714.37 389.299 714.37 Z" fill="#000000" fill-rule="evenodd" fill-opacity="1" /><path clip-path="url(#clip050)" d="M302.997 572.637 L320.185 572.637 L320.185 513.315 L301.487 517.065 L301.487 507.481 L320.08 503.731 L330.601 503.731 L330.601 572.637 L347.789 572.637 L347.789 581.491 L302.997 581.491 L302.997 572.637 Z" fill="#000000" fill-rule="evenodd" fill-opacity="1" /><path clip-path="url(#clip050)" d="M369.143 503.731 L410.445 503.731 L410.445 512.586 L378.778 512.586 L378.778 531.648 Q381.07 530.867 383.361 530.502 Q385.653 530.085 387.945 530.085 Q400.965 530.085 408.57 537.221 Q416.174 544.356 416.174 556.544 Q416.174 569.096 408.361 576.075 Q400.549 583.002 386.33 583.002 Q381.434 583.002 376.33 582.169 Q371.278 581.335 365.861 579.669 L365.861 569.096 Q370.549 571.648 375.549 572.898 Q380.549 574.148 386.122 574.148 Q395.132 574.148 400.393 569.408 Q405.653 564.669 405.653 556.544 Q405.653 548.419 400.393 543.679 Q395.132 538.94 386.122 538.94 Q381.903 538.94 377.684 539.877 Q373.518 540.815 369.143 542.794 L369.143 503.731 Z" fill="#000000" fill-rule="evenodd" fill-opacity="1" /><path clip-path="url(#clip050)" d="M307.997 360.593 L344.716 360.593 L344.716 369.447 L295.341 369.447 L295.341 360.593 Q301.331 354.395 311.643 343.978 Q322.008 333.509 324.664 330.489 Q329.716 324.812 331.695 320.905 Q333.726 316.947 333.726 313.145 Q333.726 306.947 329.351 303.041 Q325.028 299.135 318.049 299.135 Q313.101 299.135 307.581 300.853 Q302.112 302.572 295.862 306.062 L295.862 295.437 Q302.216 292.885 307.737 291.583 Q313.258 290.281 317.841 290.281 Q329.924 290.281 337.112 296.322 Q344.299 302.364 344.299 312.468 Q344.299 317.26 342.476 321.582 Q340.705 325.853 335.966 331.687 Q334.664 333.197 327.685 340.437 Q320.705 347.624 307.997 360.593 Z" fill="#000000" fill-rule="evenodd" fill-opacity="1" /><path clip-path="url(#clip050)" d="M389.299 298.614 Q381.174 298.614 377.059 306.635 Q372.997 314.603 372.997 330.645 Q372.997 346.634 377.059 354.655 Q381.174 362.624 389.299 362.624 Q397.476 362.624 401.538 354.655 Q405.653 346.634 405.653 330.645 Q405.653 314.603 401.538 306.635 Q397.476 298.614 389.299 298.614 M389.299 290.281 Q402.372 290.281 409.247 300.645 Q416.174 310.958 416.174 330.645 Q416.174 350.28 409.247 360.645 Q402.372 370.957 389.299 370.957 Q376.226 370.957 369.299 360.645 Q362.424 350.28 362.424 330.645 Q362.424 310.958 369.299 300.645 Q376.226 290.281 389.299 290.281 Z" fill="#000000" fill-rule="evenodd" fill-opacity="1" /><path clip-path="url(#clip050)" d="M139.293 1443.82 L139.293 1422.91 L209.848 1396.46 L139.293 1369.86 L139.293 1348.96 L242.973 1348.96 L242.973 1362.64 L151.932 1362.64 L223.043 1389.37 L223.043 1403.47 L151.932 1430.21 L242.973 1430.21 L242.973 1443.82 L139.293 1443.82 Z" fill="#000000" fill-rule="evenodd" fill-opacity="1" /><path clip-path="url(#clip050)" d="M203.876 1286.32 Q203.876 1301.8 207.418 1307.78 Q210.959 1313.75 219.501 1313.75 Q226.306 1313.75 230.334 1309.3 Q234.293 1304.79 234.293 1297.08 Q234.293 1286.46 226.793 1280.07 Q219.223 1273.61 206.723 1273.61 L203.876 1273.61 L203.876 1286.32 M198.598 1260.83 L242.973 1260.83 L242.973 1273.61 L231.168 1273.61 Q238.251 1277.98 241.654 1284.51 Q244.987 1291.04 244.987 1300.48 Q244.987 1312.43 238.32 1319.51 Q231.584 1326.53 220.334 1326.53 Q207.209 1326.53 200.543 1317.78 Q193.876 1308.96 193.876 1291.53 L193.876 1273.61 L192.626 1273.61 Q183.807 1273.61 179.015 1279.44 Q174.154 1285.21 174.154 1295.69 Q174.154 1302.36 175.751 1308.68 Q177.348 1315 180.543 1320.83 L168.737 1320.83 Q166.029 1313.82 164.71 1307.22 Q163.321 1300.62 163.321 1294.37 Q163.321 1277.5 172.071 1269.16 Q180.821 1260.83 198.598 1260.83 Z" fill="#000000" fill-rule="evenodd" fill-opacity="1" /><path clip-path="url(#clip050)" d="M177.14 1189.44 Q175.89 1191.6 175.334 1194.17 Q174.709 1196.66 174.709 1199.72 Q174.709 1210.55 181.793 1216.39 Q188.807 1222.15 202.001 1222.15 L242.973 1222.15 L242.973 1235 L165.196 1235 L165.196 1222.15 L177.279 1222.15 Q170.196 1218.12 166.793 1211.66 Q163.321 1205.21 163.321 1195.97 Q163.321 1194.65 163.529 1193.05 Q163.668 1191.46 164.015 1189.51 L177.14 1189.44 Z" fill="#000000" fill-rule="evenodd" fill-opacity="1" /><path clip-path="url(#clip050)" d="M203.182 1127.36 Q189.293 1127.36 181.654 1133.12 Q174.015 1138.82 174.015 1149.17 Q174.015 1159.44 181.654 1165.21 Q189.293 1170.9 203.182 1170.9 Q217.001 1170.9 224.64 1165.21 Q232.279 1159.44 232.279 1149.17 Q232.279 1138.82 224.64 1133.12 Q217.001 1127.36 203.182 1127.36 M233.32 1114.58 Q253.181 1114.58 262.834 1123.4 Q272.556 1132.22 272.556 1150.42 Q272.556 1157.15 271.515 1163.12 Q270.542 1169.1 268.459 1174.72 L256.028 1174.72 Q259.084 1169.1 260.542 1163.61 Q262.001 1158.12 262.001 1152.43 Q262.001 1139.86 255.404 1133.61 Q248.876 1127.36 235.612 1127.36 L229.293 1127.36 Q236.167 1131.32 239.57 1137.5 Q242.973 1143.68 242.973 1152.29 Q242.973 1166.6 232.07 1175.35 Q221.168 1184.1 203.182 1184.1 Q185.126 1184.1 174.223 1175.35 Q163.321 1166.6 163.321 1152.29 Q163.321 1143.68 166.723 1137.5 Q170.126 1131.32 177.001 1127.36 L165.196 1127.36 L165.196 1114.58 L233.32 1114.58 Z" fill="#000000" fill-rule="evenodd" fill-opacity="1" /><path clip-path="url(#clip050)" d="M165.196 1088.26 L165.196 1075.49 L242.973 1075.49 L242.973 1088.26 L165.196 1088.26 M134.918 1088.26 L134.918 1075.49 L151.099 1075.49 L151.099 1088.26 L134.918 1088.26 Z" fill="#000000" fill-rule="evenodd" fill-opacity="1" /><path clip-path="url(#clip050)" d="M196.029 984.097 L242.973 984.097 L242.973 996.874 L196.445 996.874 Q185.404 996.874 179.918 1001.18 Q174.432 1005.49 174.432 1014.1 Q174.432 1024.44 181.029 1030.42 Q187.626 1036.39 199.015 1036.39 L242.973 1036.39 L242.973 1049.24 L165.196 1049.24 L165.196 1036.39 L177.279 1036.39 Q170.265 1031.8 166.793 1025.62 Q163.321 1019.37 163.321 1011.25 Q163.321 997.847 171.654 990.972 Q179.918 984.097 196.029 984.097 Z" fill="#000000" fill-rule="evenodd" fill-opacity="1" /><path clip-path="url(#clip050)" d="M203.876 923.264 Q203.876 938.75 207.418 944.722 Q210.959 950.694 219.501 950.694 Q226.306 950.694 230.334 946.25 Q234.293 941.736 234.293 934.028 Q234.293 923.403 226.793 917.014 Q219.223 910.555 206.723 910.555 L203.876 910.555 L203.876 923.264 M198.598 897.778 L242.973 897.778 L242.973 910.555 L231.168 910.555 Q238.251 914.93 241.654 921.458 Q244.987 927.986 244.987 937.43 Q244.987 949.375 238.32 956.458 Q231.584 963.472 220.334 963.472 Q207.209 963.472 200.543 954.722 Q193.876 945.902 193.876 928.472 L193.876 910.555 L192.626 910.555 Q183.807 910.555 179.015 916.389 Q174.154 922.153 174.154 932.639 Q174.154 939.305 175.751 945.625 Q177.348 951.944 180.543 957.777 L168.737 957.777 Q166.029 950.764 164.71 944.166 Q163.321 937.569 163.321 931.319 Q163.321 914.444 172.071 906.111 Q180.821 897.778 198.598 897.778 Z" fill="#000000" fill-rule="evenodd" fill-opacity="1" /><path clip-path="url(#clip050)" d="M134.918 871.458 L134.918 858.681 L242.973 858.681 L242.973 871.458 L134.918 871.458 Z" fill="#000000" fill-rule="evenodd" fill-opacity="1" /><path clip-path="url(#clip050)" d="M147.279 708.543 L162.071 708.543 Q155.473 715.626 152.21 723.681 Q148.946 731.667 148.946 740.695 Q148.946 758.473 159.848 767.917 Q170.682 777.362 191.237 777.362 Q211.723 777.362 222.626 767.917 Q233.459 758.473 233.459 740.695 Q233.459 731.667 230.195 723.681 Q226.931 715.626 220.334 708.543 L234.987 708.543 Q239.987 715.904 242.487 724.168 Q244.987 732.362 244.987 741.529 Q244.987 765.07 230.612 778.612 Q216.168 792.153 191.237 792.153 Q166.237 792.153 151.862 778.612 Q137.418 765.07 137.418 741.529 Q137.418 732.223 139.918 724.029 Q142.349 715.765 147.279 708.543 Z" fill="#000000" fill-rule="evenodd" fill-opacity="1" /><path clip-path="url(#clip050)" d="M174.154 657.293 Q174.154 667.571 182.209 673.543 Q190.196 679.515 204.154 679.515 Q218.112 679.515 226.168 673.612 Q234.154 667.64 234.154 657.293 Q234.154 647.085 226.098 641.112 Q218.043 635.14 204.154 635.14 Q190.334 635.14 182.279 641.112 Q174.154 647.085 174.154 657.293 M163.321 657.293 Q163.321 640.626 174.154 631.112 Q184.987 621.599 204.154 621.599 Q223.251 621.599 234.154 631.112 Q244.987 640.626 244.987 657.293 Q244.987 674.029 234.154 683.543 Q223.251 692.987 204.154 692.987 Q184.987 692.987 174.154 683.543 Q163.321 674.029 163.321 657.293 Z" fill="#000000" fill-rule="evenodd" fill-opacity="1" /><path clip-path="url(#clip050)" d="M167.487 550.835 L179.571 550.835 Q176.793 556.252 175.404 562.085 Q174.015 567.918 174.015 574.168 Q174.015 583.682 176.932 588.474 Q179.848 593.196 185.682 593.196 Q190.126 593.196 192.696 589.793 Q195.195 586.39 197.487 576.113 L198.459 571.738 Q201.376 558.127 206.723 552.432 Q212.001 546.668 221.515 546.668 Q232.348 546.668 238.667 555.28 Q244.987 563.821 244.987 578.821 Q244.987 585.071 243.737 591.877 Q242.556 598.613 240.126 606.113 L226.931 606.113 Q230.612 599.029 232.487 592.154 Q234.293 585.279 234.293 578.543 Q234.293 569.516 231.237 564.654 Q228.112 559.793 222.487 559.793 Q217.279 559.793 214.501 563.335 Q211.723 566.807 209.154 578.682 L208.112 583.127 Q205.612 595.002 200.473 600.279 Q195.265 605.557 186.237 605.557 Q175.265 605.557 169.293 597.779 Q163.321 590.002 163.321 575.696 Q163.321 568.613 164.362 562.363 Q165.404 556.113 167.487 550.835 Z" fill="#000000" fill-rule="evenodd" fill-opacity="1" /><path clip-path="url(#clip050)" d="M143.112 513.683 L165.196 513.683 L165.196 487.363 L175.126 487.363 L175.126 513.683 L217.348 513.683 Q226.862 513.683 229.57 511.113 Q232.279 508.474 232.279 500.488 L232.279 487.363 L242.973 487.363 L242.973 500.488 Q242.973 515.28 237.487 520.905 Q231.931 526.53 217.348 526.53 L175.126 526.53 L175.126 535.905 L165.196 535.905 L165.196 526.53 L143.112 526.53 L143.112 513.683 Z" fill="#000000" fill-rule="evenodd" fill-opacity="1" /><path clip-path="url(#clip050)" d="M135.057 394.655 Q151.029 403.961 166.654 408.475 Q182.279 412.989 198.32 412.989 Q214.362 412.989 230.126 408.475 Q245.82 403.891 261.723 394.655 L261.723 405.766 Q245.404 416.183 229.64 421.391 Q213.876 426.53 198.32 426.53 Q182.834 426.53 167.14 421.391 Q151.446 416.253 135.057 405.766 L135.057 394.655 Z" fill="#000000" fill-rule="evenodd" fill-opacity="1" /><path clip-path="url(#clip050)" d="M263.876 335.211 L263.876 342.156 L242.973 342.225 Q242.834 349.517 241.306 356.808 Q239.709 364.1 236.584 371.461 L224.084 371.461 Q228.529 364.378 230.82 357.156 Q233.043 349.864 233.112 342.156 L201.445 342.156 Q198.945 357.503 192.973 364.517 Q187.001 371.461 176.584 371.461 Q165.265 371.461 158.737 363.892 Q152.21 356.322 151.237 342.156 L134.918 342.156 L134.918 335.211 L151.029 335.211 Q151.307 328.753 152.418 322.711 Q153.46 316.67 155.335 310.906 L167.487 310.906 Q164.571 316.67 162.973 322.781 Q161.376 328.822 161.098 335.211 L190.751 335.211 Q193.182 319.447 199.432 312.017 Q205.682 304.586 216.515 304.586 Q228.251 304.586 235.056 312.503 Q241.792 320.35 242.834 335.211 L263.876 335.211 M189.501 342.156 L161.029 342.156 Q161.932 350.211 165.612 354.447 Q169.293 358.683 175.404 358.683 Q181.376 358.683 184.709 354.795 Q188.043 350.836 189.501 342.156 M202.834 335.211 L232.904 335.211 Q231.723 326.392 227.904 321.947 Q224.084 317.434 217.834 317.434 Q211.723 317.434 208.112 321.739 Q204.501 325.975 202.834 335.211 Z" fill="#000000" fill-rule="evenodd" fill-opacity="1" /><path clip-path="url(#clip050)" d="M139.293 256.67 L139.293 244.865 L256.167 280.975 L256.167 292.781 L139.293 256.67 Z" fill="#000000" fill-rule="evenodd" fill-opacity="1" /><path clip-path="url(#clip050)" d="M139.293 230.906 L139.293 210.004 L209.848 183.545 L139.293 156.948 L139.293 136.046 L242.973 136.046 L242.973 149.726 L151.932 149.726 L223.043 176.462 L223.043 190.559 L151.932 217.295 L242.973 217.295 L242.973 230.906 L139.293 230.906 Z" fill="#000000" fill-rule="evenodd" fill-opacity="1" /><path clip-path="url(#clip050)" d="M139.293 117.435 L139.293 103.268 L226.931 81.4626 L139.293 59.7266 L139.293 43.9628 L226.931 22.1574 L139.293 0.4214 L139.293 -13.8146 L242.973 12.2269 L242.973 29.8657 L152.973 51.7406 L242.973 73.8238 L242.973 91.4626 L139.293 117.435 Z" fill="#000000" fill-rule="evenodd" fill-opacity="1" /><path clip-path="url(#clip050)" d="M135.057 -29.8562 L135.057 -40.9673 Q151.446 -51.3839 167.14 -56.5227 Q182.834 -61.731 198.32 -61.731 Q213.876 -61.731 229.64 -56.5227 Q245.404 -51.3839 261.723 -40.9673 L261.723 -29.8562 Q245.82 -39.0923 230.126 -43.6061 Q214.362 -48.1895 198.32 -48.1895 Q182.279 -48.1895 166.654 -43.6061 Q151.029 -39.0923 135.057 -29.8562 Z" fill="#000000" fill-rule="evenodd" fill-opacity="1" /><path clip-path="url(#clip050)" d="M350.046 40.3296 L350.046 141.11 L371.227 141.11 Q398.049 141.11 410.463 128.958 Q422.962 116.805 422.962 90.5898 Q422.962 64.5483 410.463 52.4824 Q398.049 40.3296 371.227 40.3296 L350.046 40.3296 M332.512 25.92 L368.536 25.92 Q406.209 25.92 423.831 41.6317 Q441.452 57.2566 441.452 90.5898 Q441.452 124.097 423.744 139.808 Q406.035 155.52 368.536 155.52 L332.512 155.52 L332.512 25.92 Z" fill="#000000" fill-rule="evenodd" fill-opacity="1" /><path clip-path="url(#clip050)" d="M468.709 58.2983 L484.681 58.2983 L484.681 155.52 L468.709 155.52 L468.709 58.2983 M468.709 20.4513 L484.681 20.4513 L484.681 40.6769 L468.709 40.6769 L468.709 20.4513 Z" fill="#000000" fill-rule="evenodd" fill-opacity="1" /><path clip-path="url(#clip050)" d="M580.08 61.1629 L580.08 76.267 Q573.309 72.7947 566.017 71.0586 Q558.726 69.3225 550.913 69.3225 Q539.021 69.3225 533.031 72.9684 Q527.129 76.6142 527.129 83.9058 Q527.129 89.4613 531.382 92.6731 Q535.635 95.7981 548.483 98.6627 L553.951 99.8779 Q570.965 103.524 578.083 110.208 Q585.288 116.805 585.288 128.697 Q585.288 142.239 574.524 150.138 Q563.847 158.037 545.097 158.037 Q537.285 158.037 528.778 156.475 Q520.358 154.999 510.983 151.961 L510.983 135.468 Q519.837 140.069 528.431 142.412 Q537.024 144.669 545.444 144.669 Q556.729 144.669 562.805 140.85 Q568.882 136.944 568.882 129.912 Q568.882 123.402 564.455 119.93 Q560.115 116.458 545.271 113.246 L539.715 111.944 Q524.872 108.819 518.274 102.395 Q511.677 95.8849 511.677 84.6002 Q511.677 70.885 521.399 63.4198 Q531.122 55.9546 549.003 55.9546 Q557.858 55.9546 565.67 57.2566 Q573.482 58.5587 580.08 61.1629 Z" fill="#000000" fill-rule="evenodd" fill-opacity="1" /><path clip-path="url(#clip050)" d="M626.173 140.937 L626.173 192.499 L610.114 192.499 L610.114 58.2983 L626.173 58.2983 L626.173 73.0552 Q631.208 64.3747 638.847 60.208 Q646.572 55.9546 657.249 55.9546 Q674.958 55.9546 685.982 70.017 Q697.093 84.0794 697.093 106.996 Q697.093 129.912 685.982 143.975 Q674.958 158.037 657.249 158.037 Q646.572 158.037 638.847 153.871 Q631.208 149.617 626.173 140.937 M680.513 106.996 Q680.513 89.3745 673.222 79.3919 Q666.017 69.3225 653.343 69.3225 Q640.67 69.3225 633.378 79.3919 Q626.173 89.3745 626.173 106.996 Q626.173 124.617 633.378 134.687 Q640.67 144.669 653.343 144.669 Q666.017 144.669 673.222 134.687 Q680.513 124.617 680.513 106.996 Z" fill="#000000" fill-rule="evenodd" fill-opacity="1" /><path clip-path="url(#clip050)" d="M767.752 106.649 Q748.395 106.649 740.93 111.076 Q733.464 115.503 733.464 126.18 Q733.464 134.687 739.02 139.721 Q744.662 144.669 754.297 144.669 Q767.579 144.669 775.565 135.294 Q783.638 125.833 783.638 110.208 L783.638 106.649 L767.752 106.649 M799.61 100.052 L799.61 155.52 L783.638 155.52 L783.638 140.763 Q778.169 149.617 770.009 153.871 Q761.85 158.037 750.044 158.037 Q735.114 158.037 726.259 149.704 Q717.492 141.284 717.492 127.222 Q717.492 110.815 728.43 102.482 Q739.454 94.1488 761.242 94.1488 L783.638 94.1488 L783.638 92.5863 Q783.638 81.5621 776.346 75.5725 Q769.141 69.4962 756.034 69.4962 Q747.7 69.4962 739.801 71.4927 Q731.902 73.4892 724.61 77.4822 L724.61 62.7254 Q733.377 59.34 741.624 57.6907 Q749.87 55.9546 757.683 55.9546 Q778.777 55.9546 789.193 66.892 Q799.61 77.8294 799.61 100.052 Z" fill="#000000" fill-rule="evenodd" fill-opacity="1" /><path clip-path="url(#clip050)" d="M848.307 30.6943 L848.307 58.2983 L881.207 58.2983 L881.207 70.7114 L848.307 70.7114 L848.307 123.489 Q848.307 135.381 851.519 138.767 Q854.818 142.152 864.8 142.152 L881.207 142.152 L881.207 155.52 L864.8 155.52 Q846.311 155.52 839.28 148.662 Q832.248 141.718 832.248 123.489 L832.248 70.7114 L820.53 70.7114 L820.53 58.2983 L832.248 58.2983 L832.248 30.6943 L848.307 30.6943 Z" fill="#000000" fill-rule="evenodd" fill-opacity="1" /><path clip-path="url(#clip050)" d="M972.178 62.0309 L972.178 76.9614 Q965.407 73.2288 958.55 71.4059 Q951.779 69.4962 944.835 69.4962 Q929.297 69.4962 920.703 79.3919 Q912.109 89.2009 912.109 106.996 Q912.109 124.791 920.703 134.687 Q929.297 144.496 944.835 144.496 Q951.779 144.496 958.55 142.673 Q965.407 140.763 972.178 137.031 L972.178 151.787 Q965.494 154.912 958.289 156.475 Q951.171 158.037 943.099 158.037 Q921.137 158.037 908.203 144.235 Q895.269 130.433 895.269 106.996 Q895.269 83.2114 908.29 69.583 Q921.397 55.9546 944.14 55.9546 Q951.519 55.9546 958.55 57.5171 Q965.581 58.9927 972.178 62.0309 Z" fill="#000000" fill-rule="evenodd" fill-opacity="1" /><path clip-path="url(#clip050)" d="M1080.77 96.8398 L1080.77 155.52 L1064.8 155.52 L1064.8 97.3606 Q1064.8 83.5586 1059.42 76.701 Q1054.04 69.8434 1043.27 69.8434 Q1030.34 69.8434 1022.87 78.0899 Q1015.41 86.3363 1015.41 100.572 L1015.41 155.52 L999.348 155.52 L999.348 20.4513 L1015.41 20.4513 L1015.41 73.4024 Q1021.14 64.6351 1028.86 60.2948 Q1036.67 55.9546 1046.83 55.9546 Q1063.58 55.9546 1072.18 66.3712 Q1080.77 76.701 1080.77 96.8398 Z" fill="#000000" fill-rule="evenodd" fill-opacity="1" /><path clip-path="url(#clip050)" d="M1247.52 30.1734 L1247.52 47.2741 Q1237.54 42.4998 1228.69 40.156 Q1219.83 37.8123 1211.59 37.8123 Q1197.26 37.8123 1189.45 43.3678 Q1181.73 48.9233 1181.73 59.1663 Q1181.73 67.7601 1186.85 72.1871 Q1192.06 76.5274 1206.47 79.2183 L1217.06 81.3885 Q1236.67 85.1211 1245.96 94.5828 Q1255.34 103.958 1255.34 119.756 Q1255.34 138.593 1242.66 148.315 Q1230.08 158.037 1205.68 158.037 Q1196.48 158.037 1186.07 155.954 Q1175.74 153.871 1164.63 149.791 L1164.63 131.735 Q1175.3 137.725 1185.55 140.763 Q1195.79 143.801 1205.68 143.801 Q1220.7 143.801 1228.86 137.899 Q1237.02 131.996 1237.02 121.058 Q1237.02 111.51 1231.12 106.128 Q1225.3 100.746 1211.93 98.055 L1201.26 95.9717 Q1181.64 92.0655 1172.87 83.7322 Q1164.1 75.3989 1164.1 60.5552 Q1164.1 43.3678 1176.17 33.472 Q1188.32 23.5763 1209.59 23.5763 Q1218.7 23.5763 1228.17 25.2256 Q1237.63 26.8749 1247.52 30.1734 Z" fill="#000000" fill-rule="evenodd" fill-opacity="1" /><path clip-path="url(#clip050)" d="M1297.78 30.6943 L1297.78 58.2983 L1330.68 58.2983 L1330.68 70.7114 L1297.78 70.7114 L1297.78 123.489 Q1297.78 135.381 1301 138.767 Q1304.29 142.152 1314.28 142.152 L1330.68 142.152 L1330.68 155.52 L1314.28 155.52 Q1295.79 155.52 1288.76 148.662 Q1281.73 141.718 1281.73 123.489 L1281.73 70.7114 L1270.01 70.7114 L1270.01 58.2983 L1281.73 58.2983 L1281.73 30.6943 L1297.78 30.6943 Z" fill="#000000" fill-rule="evenodd" fill-opacity="1" /><path clip-path="url(#clip050)" d="M1395.87 106.649 Q1376.52 106.649 1369.05 111.076 Q1361.59 115.503 1361.59 126.18 Q1361.59 134.687 1367.14 139.721 Q1372.78 144.669 1382.42 144.669 Q1395.7 144.669 1403.69 135.294 Q1411.76 125.833 1411.76 110.208 L1411.76 106.649 L1395.87 106.649 M1427.73 100.052 L1427.73 155.52 L1411.76 155.52 L1411.76 140.763 Q1406.29 149.617 1398.13 153.871 Q1389.97 158.037 1378.17 158.037 Q1363.24 158.037 1354.38 149.704 Q1345.61 141.284 1345.61 127.222 Q1345.61 110.815 1356.55 102.482 Q1367.58 94.1488 1389.36 94.1488 L1411.76 94.1488 L1411.76 92.5863 Q1411.76 81.5621 1404.47 75.5725 Q1397.26 69.4962 1384.16 69.4962 Q1375.82 69.4962 1367.92 71.4927 Q1360.02 73.4892 1352.73 77.4822 L1352.73 62.7254 Q1361.5 59.34 1369.75 57.6907 Q1377.99 55.9546 1385.8 55.9546 Q1406.9 55.9546 1417.31 66.892 Q1427.73 77.8294 1427.73 100.052 Z" fill="#000000" fill-rule="evenodd" fill-opacity="1" /><path clip-path="url(#clip050)" d="M1530.6 62.0309 L1530.6 76.9614 Q1523.82 73.2288 1516.97 71.4059 Q1510.2 69.4962 1503.25 69.4962 Q1487.71 69.4962 1479.12 79.3919 Q1470.53 89.2009 1470.53 106.996 Q1470.53 124.791 1479.12 134.687 Q1487.71 144.496 1503.25 144.496 Q1510.2 144.496 1516.97 142.673 Q1523.82 140.763 1530.6 137.031 L1530.6 151.787 Q1523.91 154.912 1516.71 156.475 Q1509.59 158.037 1501.52 158.037 Q1479.55 158.037 1466.62 144.235 Q1453.69 130.433 1453.69 106.996 Q1453.69 83.2114 1466.71 69.583 Q1479.81 55.9546 1502.56 55.9546 Q1509.94 55.9546 1516.97 57.5171 Q1524 58.9927 1530.6 62.0309 Z" fill="#000000" fill-rule="evenodd" fill-opacity="1" /><path clip-path="url(#clip050)" d="M1557.77 20.4513 L1573.82 20.4513 L1573.82 100.225 L1621.48 58.2983 L1641.88 58.2983 L1590.32 103.784 L1644.05 155.52 L1623.22 155.52 L1573.82 108.038 L1573.82 155.52 L1557.77 155.52 L1557.77 20.4513 Z" fill="#000000" fill-rule="evenodd" fill-opacity="1" /><path clip-path="url(#clip050)" d="M1796.22 30.1734 L1796.22 47.2741 Q1786.24 42.4998 1777.38 40.156 Q1768.53 37.8123 1760.28 37.8123 Q1745.96 37.8123 1738.15 43.3678 Q1730.42 48.9233 1730.42 59.1663 Q1730.42 67.7601 1735.54 72.1871 Q1740.75 76.5274 1755.16 79.2183 L1765.75 81.3885 Q1785.37 85.1211 1794.66 94.5828 Q1804.03 103.958 1804.03 119.756 Q1804.03 138.593 1791.36 148.315 Q1778.77 158.037 1754.38 158.037 Q1745.18 158.037 1734.76 155.954 Q1724.43 153.871 1713.32 149.791 L1713.32 131.735 Q1724 137.725 1734.24 140.763 Q1744.48 143.801 1754.38 143.801 Q1769.4 143.801 1777.56 137.899 Q1785.72 131.996 1785.72 121.058 Q1785.72 111.51 1779.81 106.128 Q1774 100.746 1760.63 98.055 L1749.95 95.9717 Q1730.33 92.0655 1721.57 83.7322 Q1712.8 75.3989 1712.8 60.5552 Q1712.8 43.3678 1724.87 33.472 Q1737.02 23.5763 1758.29 23.5763 Q1767.4 23.5763 1776.86 25.2256 Q1786.32 26.8749 1796.22 30.1734 Z" fill="#000000" fill-rule="evenodd" fill-opacity="1" /><path clip-path="url(#clip050)" d="M1829.03 117.152 L1829.03 58.2983 L1845 58.2983 L1845 116.545 Q1845 130.347 1850.39 137.291 Q1855.77 144.149 1866.53 144.149 Q1879.47 144.149 1886.93 135.902 Q1894.48 127.656 1894.48 113.42 L1894.48 58.2983 L1910.45 58.2983 L1910.45 155.52 L1894.48 155.52 L1894.48 140.59 Q1888.67 149.444 1880.94 153.784 Q1873.3 158.037 1863.15 158.037 Q1846.39 158.037 1837.71 147.621 Q1829.03 137.204 1829.03 117.152 M1869.22 55.9546 L1869.22 55.9546 Z" fill="#000000" fill-rule="evenodd" fill-opacity="1" /><path clip-path="url(#clip050)" d="M1958.8 140.937 L1958.8 192.499 L1942.75 192.499 L1942.75 58.2983 L1958.8 58.2983 L1958.8 73.0552 Q1963.84 64.3747 1971.48 60.208 Q1979.2 55.9546 1989.88 55.9546 Q2007.59 55.9546 2018.61 70.017 Q2029.72 84.0794 2029.72 106.996 Q2029.72 129.912 2018.61 143.975 Q2007.59 158.037 1989.88 158.037 Q1979.2 158.037 1971.48 153.871 Q1963.84 149.617 1958.8 140.937 M2013.14 106.996 Q2013.14 89.3745 2005.85 79.3919 Q1998.65 69.3225 1985.97 69.3225 Q1973.3 69.3225 1966.01 79.3919 Q1958.8 89.3745 1958.8 106.996 Q1958.8 124.617 1966.01 134.687 Q1973.3 144.669 1985.97 144.669 Q1998.65 144.669 2005.85 134.687 Q2013.14 124.617 2013.14 106.996 Z" fill="#000000" fill-rule="evenodd" fill-opacity="1" /><path clip-path="url(#clip050)" d="M2071.65 140.937 L2071.65 192.499 L2055.59 192.499 L2055.59 58.2983 L2071.65 58.2983 L2071.65 73.0552 Q2076.69 64.3747 2084.33 60.208 Q2092.05 55.9546 2102.73 55.9546 Q2120.44 55.9546 2131.46 70.017 Q2142.57 84.0794 2142.57 106.996 Q2142.57 129.912 2131.46 143.975 Q2120.44 158.037 2102.73 158.037 Q2092.05 158.037 2084.33 153.871 Q2076.69 149.617 2071.65 140.937 M2125.99 106.996 Q2125.99 89.3745 2118.7 79.3919 Q2111.5 69.3225 2098.82 69.3225 Q2086.15 69.3225 2078.86 79.3919 Q2071.65 89.3745 2071.65 106.996 Q2071.65 124.617 2078.86 134.687 Q2086.15 144.669 2098.82 144.669 Q2111.5 144.669 2118.7 134.687 Q2125.99 124.617 2125.99 106.996 Z" fill="#000000" fill-rule="evenodd" fill-opacity="1" /><path clip-path="url(#clip050)" d="M2169.05 20.4513 L2185.02 20.4513 L2185.02 155.52 L2169.05 155.52 L2169.05 20.4513 Z" fill="#000000" fill-rule="evenodd" fill-opacity="1" /><path clip-path="url(#clip050)" d="M2258.89 164.548 Q2252.12 181.909 2245.7 187.204 Q2239.27 192.499 2228.51 192.499 L2215.75 192.499 L2215.75 179.131 L2225.12 179.131 Q2231.72 179.131 2235.37 176.006 Q2239.01 172.881 2243.44 161.249 L2246.3 153.958 L2206.98 58.2983 L2223.91 58.2983 L2254.29 134.34 L2284.67 58.2983 L2301.6 58.2983 L2258.89 164.548 Z" fill="#000000" fill-rule="evenodd" fill-opacity="1" /><path clip-path="url(#clip050)" d="M2477.9 35.9026 L2477.9 54.3921 Q2469.05 46.1456 2458.98 42.0657 Q2448.99 37.9859 2437.71 37.9859 Q2415.49 37.9859 2403.68 51.6143 Q2391.88 65.1559 2391.88 90.8502 Q2391.88 116.458 2403.68 130.086 Q2415.49 143.628 2437.71 143.628 Q2448.99 143.628 2458.98 139.548 Q2469.05 135.468 2477.9 127.222 L2477.9 145.537 Q2468.7 151.787 2458.37 154.912 Q2448.13 158.037 2436.67 158.037 Q2407.24 158.037 2390.31 140.069 Q2373.39 122.013 2373.39 90.8502 Q2373.39 59.6004 2390.31 41.6317 Q2407.24 23.5763 2436.67 23.5763 Q2448.3 23.5763 2458.54 26.7012 Q2468.87 29.7394 2477.9 35.9026 Z" fill="#000000" fill-rule="evenodd" fill-opacity="1" /><path clip-path="url(#clip050)" d="M2502.64 117.152 L2502.64 58.2983 L2518.61 58.2983 L2518.61 116.545 Q2518.61 130.347 2523.99 137.291 Q2529.37 144.149 2540.14 144.149 Q2553.07 144.149 2560.54 135.902 Q2568.09 127.656 2568.09 113.42 L2568.09 58.2983 L2584.06 58.2983 L2584.06 155.52 L2568.09 155.52 L2568.09 140.59 Q2562.27 149.444 2554.55 153.784 Q2546.91 158.037 2536.75 158.037 Q2520 158.037 2511.32 147.621 Q2502.64 137.204 2502.64 117.152 M2542.83 55.9546 L2542.83 55.9546 Z" fill="#000000" fill-rule="evenodd" fill-opacity="1" /><path clip-path="url(#clip050)" d="M2673.3 73.2288 Q2670.61 71.6663 2667.39 70.9718 Q2664.27 70.1906 2660.45 70.1906 Q2646.91 70.1906 2639.62 79.0447 Q2632.41 87.812 2632.41 104.305 L2632.41 155.52 L2616.35 155.52 L2616.35 58.2983 L2632.41 58.2983 L2632.41 73.4024 Q2637.45 64.5483 2645.52 60.2948 Q2653.59 55.9546 2665.14 55.9546 Q2666.79 55.9546 2668.78 56.215 Q2670.78 56.3886 2673.21 56.8226 L2673.3 73.2288 Z" fill="#000000" fill-rule="evenodd" fill-opacity="1" /><path clip-path="url(#clip050)" d="M2678.59 58.2983 L2695.52 58.2983 L2725.9 139.895 L2756.28 58.2983 L2773.21 58.2983 L2736.75 155.52 L2715.05 155.52 L2678.59 58.2983 Z" fill="#000000" fill-rule="evenodd" fill-opacity="1" /><path clip-path="url(#clip050)" d="M2878.42 102.916 L2878.42 110.729 L2804.98 110.729 Q2806.02 127.222 2814.88 135.902 Q2823.82 144.496 2839.7 144.496 Q2848.9 144.496 2857.5 142.239 Q2866.18 139.982 2874.69 135.468 L2874.69 150.572 Q2866.09 154.218 2857.06 156.128 Q2848.04 158.037 2838.75 158.037 Q2815.48 158.037 2801.86 144.496 Q2788.31 130.954 2788.31 107.864 Q2788.31 83.9926 2801.16 70.017 Q2814.1 55.9546 2835.97 55.9546 Q2855.59 55.9546 2866.96 68.6281 Q2878.42 81.2148 2878.42 102.916 M2862.45 98.2286 Q2862.27 85.1211 2855.07 77.3086 Q2847.95 69.4962 2836.14 69.4962 Q2822.78 69.4962 2814.7 77.0482 Q2806.72 84.6002 2805.5 98.3154 L2862.45 98.2286 Z" fill="#000000" fill-rule="evenodd" fill-opacity="1" /><path clip-path="url(#clip052)" d="
M523.115 1178.75 L862.676 1178.75 L862.676 1157.54 L523.115 1157.54 L523.115 1178.75  Z
  " fill="#000000" fill-rule="evenodd" fill-opacity="0.5"/>
<polyline clip-path="url(#clip052)" style="stroke:#000000; stroke-linecap:round; stroke-linejoin:round; stroke-width:4; stroke-opacity:0.5; fill:none" points="
  523.115,1178.75 862.676,1178.75 862.676,1157.54 523.115,1157.54 523.115,1178.75 
  "/>
<path clip-path="url(#clip052)" d="
M862.676 1178.75 L1032.46 1178.75 L1032.46 1157.54 L862.676 1157.54 L862.676 1178.75  Z
  " fill="#44aa99" fill-rule="evenodd" fill-opacity="0.5"/>
<polyline clip-path="url(#clip052)" style="stroke:#000000; stroke-linecap:round; stroke-linejoin:round; stroke-width:4; stroke-opacity:0.5; fill:none" points="
  862.676,1178.75 1032.46,1178.75 1032.46,1157.54 862.676,1157.54 862.676,1178.75 
  "/>
<path clip-path="url(#clip052)" d="
M1032.46 1178.75 L1159.79 1178.75 L1159.79 1157.54 L1032.46 1157.54 L1032.46 1178.75  Z
  " fill="#117733" fill-rule="evenodd" fill-opacity="0.5"/>
<polyline clip-path="url(#clip052)" style="stroke:#000000; stroke-linecap:round; stroke-linejoin:round; stroke-width:4; stroke-opacity:0.5; fill:none" points="
  1032.46,1178.75 1159.79,1178.75 1159.79,1157.54 1032.46,1157.54 1032.46,1178.75 
  "/>
<path clip-path="url(#clip052)" d="
M1159.79 1178.75 L1838.91 1178.75 L1838.91 1093.93 L1159.79 1093.93 L1159.79 1178.75  Z
  " fill="#332288" fill-rule="evenodd" fill-opacity="0.5"/>
<polyline clip-path="url(#clip052)" style="stroke:#000000; stroke-linecap:round; stroke-linejoin:round; stroke-width:4; stroke-opacity:0.5; fill:none" points="
  1159.79,1178.75 1838.91,1178.75 1838.91,1093.93 1159.79,1093.93 1159.79,1178.75 
  "/>
<path clip-path="url(#clip052)" d="
M1838.91 1178.75 L2297.32 1178.75 L2297.32 266.953 L1838.91 266.953 L1838.91 1178.75  Z
  " fill="#ddcc77" fill-rule="evenodd" fill-opacity="0.5"/>
<polyline clip-path="url(#clip052)" style="stroke:#000000; stroke-linecap:round; stroke-linejoin:round; stroke-width:4; stroke-opacity:0.5; fill:none" points="
  1838.91,1178.75 2297.32,1178.75 2297.32,266.953 1838.91,266.953 1838.91,1178.75 
  "/>
<path clip-path="url(#clip052)" d="
M2297.32 1178.75 L2687.81 1178.75 L2687.81 203.34 L2297.32 203.34 L2297.32 1178.75  Z
  " fill="#999933" fill-rule="evenodd" fill-opacity="0.5"/>
<polyline clip-path="url(#clip052)" style="stroke:#000000; stroke-linecap:round; stroke-linejoin:round; stroke-width:4; stroke-opacity:0.5; fill:none" points="
  2297.32,1178.75 2687.81,1178.75 2687.81,203.34 2297.32,203.34 2297.32,1178.75 
  "/>
<polyline clip-path="url(#clip052)" style="stroke:#000000; stroke-linecap:round; stroke-linejoin:round; stroke-width:12; stroke-opacity:1; fill:none" stroke-dasharray="48, 30" points="
  2051.14,2241.94 2051.14,-859.852 
  "/>
<polyline clip-path="url(#clip052)" style="stroke:#0000ff; stroke-linecap:round; stroke-linejoin:round; stroke-width:12; stroke-opacity:1; fill:none" stroke-dasharray="6, 12" points="
  -1836.41,266.953 5047.34,266.953 
  "/>
<path clip-path="url(#clip050)" d="
M534.66 1157.6 L1597.42 1157.6 L1597.42 107.843 L534.66 107.843  Z
  " fill="#ffffff" fill-rule="evenodd" fill-opacity="1"/>
<polyline clip-path="url(#clip050)" style="stroke:#000000; stroke-linecap:round; stroke-linejoin:round; stroke-width:4; stroke-opacity:1; fill:none" points="
  534.66,1157.6 1597.42,1157.6 1597.42,107.843 534.66,107.843 534.66,1157.6 
  "/>
<path clip-path="url(#clip050)" d="
M560.155 271.139 L713.127 271.139 L713.127 177.827 L560.155 177.827 L560.155 271.139  Z
  " fill="#000000" fill-rule="evenodd" fill-opacity="0.5"/>
<polyline clip-path="url(#clip050)" style="stroke:#000000; stroke-linecap:round; stroke-linejoin:round; stroke-width:4; stroke-opacity:1; fill:none" points="
  560.155,271.139 713.127,271.139 713.127,177.827 560.155,177.827 560.155,271.139 
  "/>
<path clip-path="url(#clip050)" d="M784.404 216.228 Q787.997 209.769 792.997 206.696 Q797.997 203.623 804.768 203.623 Q813.883 203.623 818.831 210.03 Q823.778 216.384 823.778 228.155 L823.778 263.363 L814.143 263.363 L814.143 228.467 Q814.143 220.082 811.174 216.019 Q808.206 211.957 802.112 211.957 Q794.664 211.957 790.341 216.905 Q786.018 221.853 786.018 230.394 L786.018 263.363 L776.383 263.363 L776.383 228.467 Q776.383 220.03 773.414 216.019 Q770.445 211.957 764.247 211.957 Q756.904 211.957 752.581 216.957 Q748.258 221.905 748.258 230.394 L748.258 263.363 L738.623 263.363 L738.623 205.03 L748.258 205.03 L748.258 214.092 Q751.539 208.728 756.123 206.176 Q760.706 203.623 767.008 203.623 Q773.362 203.623 777.789 206.853 Q782.268 210.082 784.404 216.228 Z" fill="#000000" fill-rule="evenodd" fill-opacity="1" /><path clip-path="url(#clip050)" d="M842.893 205.03 L852.476 205.03 L852.476 263.363 L842.893 263.363 L842.893 205.03 M842.893 182.321 L852.476 182.321 L852.476 194.457 L842.893 194.457 L842.893 182.321 Z" fill="#000000" fill-rule="evenodd" fill-opacity="1" /><path clip-path="url(#clip050)" d="M921.017 228.155 L921.017 263.363 L911.434 263.363 L911.434 228.467 Q911.434 220.186 908.205 216.071 Q904.976 211.957 898.518 211.957 Q890.757 211.957 886.278 216.905 Q881.799 221.853 881.799 230.394 L881.799 263.363 L872.164 263.363 L872.164 205.03 L881.799 205.03 L881.799 214.092 Q885.236 208.832 889.872 206.228 Q894.559 203.623 900.653 203.623 Q910.705 203.623 915.861 209.873 Q921.017 216.071 921.017 228.155 Z" fill="#000000" fill-rule="evenodd" fill-opacity="1" /><path clip-path="url(#clip050)" d="M940.132 205.03 L949.715 205.03 L949.715 263.363 L940.132 263.363 L940.132 205.03 M940.132 182.321 L949.715 182.321 L949.715 194.457 L940.132 194.457 L940.132 182.321 Z" fill="#000000" fill-rule="evenodd" fill-opacity="1" /><path clip-path="url(#clip050)" d="M1015.18 216.228 Q1018.78 209.769 1023.78 206.696 Q1028.78 203.623 1035.55 203.623 Q1044.66 203.623 1049.61 210.03 Q1054.56 216.384 1054.56 228.155 L1054.56 263.363 L1044.92 263.363 L1044.92 228.467 Q1044.92 220.082 1041.95 216.019 Q1038.99 211.957 1032.89 211.957 Q1025.44 211.957 1021.12 216.905 Q1016.8 221.853 1016.8 230.394 L1016.8 263.363 L1007.16 263.363 L1007.16 228.467 Q1007.16 220.03 1004.19 216.019 Q1001.23 211.957 995.028 211.957 Q987.684 211.957 983.361 216.957 Q979.038 221.905 979.038 230.394 L979.038 263.363 L969.403 263.363 L969.403 205.03 L979.038 205.03 L979.038 214.092 Q982.319 208.728 986.903 206.176 Q991.486 203.623 997.788 203.623 Q1004.14 203.623 1008.57 206.853 Q1013.05 210.082 1015.18 216.228 Z" fill="#000000" fill-rule="evenodd" fill-opacity="1" /><path clip-path="url(#clip050)" d="M1072.68 240.342 L1072.68 205.03 L1082.27 205.03 L1082.27 239.977 Q1082.27 248.259 1085.5 252.425 Q1088.72 256.54 1095.18 256.54 Q1102.94 256.54 1107.42 251.592 Q1111.95 246.644 1111.95 238.102 L1111.95 205.03 L1121.54 205.03 L1121.54 263.363 L1111.95 263.363 L1111.95 254.404 Q1108.46 259.717 1103.83 262.321 Q1099.25 264.873 1093.15 264.873 Q1083.1 264.873 1077.89 258.623 Q1072.68 252.373 1072.68 240.342 M1096.8 203.623 L1096.8 203.623 Z" fill="#000000" fill-rule="evenodd" fill-opacity="1" /><path clip-path="url(#clip050)" d="M1186.69 216.228 Q1190.29 209.769 1195.29 206.696 Q1200.29 203.623 1207.06 203.623 Q1216.17 203.623 1221.12 210.03 Q1226.07 216.384 1226.07 228.155 L1226.07 263.363 L1216.43 263.363 L1216.43 228.467 Q1216.43 220.082 1213.46 216.019 Q1210.5 211.957 1204.4 211.957 Q1196.95 211.957 1192.63 216.905 Q1188.31 221.853 1188.31 230.394 L1188.31 263.363 L1178.67 263.363 L1178.67 228.467 Q1178.67 220.03 1175.7 216.019 Q1172.73 211.957 1166.54 211.957 Q1159.19 211.957 1154.87 216.957 Q1150.55 221.905 1150.55 230.394 L1150.55 263.363 L1140.91 263.363 L1140.91 205.03 L1150.55 205.03 L1150.55 214.092 Q1153.83 208.728 1158.41 206.176 Q1163 203.623 1169.3 203.623 Q1175.65 203.623 1180.08 206.853 Q1184.56 210.082 1186.69 216.228 Z" fill="#000000" fill-rule="evenodd" fill-opacity="1" /><path clip-path="url(#clip050)" d="
M560.155 387.779 L713.127 387.779 L713.127 294.467 L560.155 294.467 L560.155 387.779  Z
  " fill="#44aa99" fill-rule="evenodd" fill-opacity="0.5"/>
<polyline clip-path="url(#clip050)" style="stroke:#000000; stroke-linecap:round; stroke-linejoin:round; stroke-width:4; stroke-opacity:1; fill:none" points="
  560.155,387.779 713.127,387.779 713.127,294.467 560.155,294.467 560.155,387.779 
  "/>
<path clip-path="url(#clip050)" d="M738.623 321.67 L748.206 321.67 L760.185 367.19 L772.112 321.67 L783.414 321.67 L795.393 367.19 L807.32 321.67 L816.903 321.67 L801.643 380.003 L790.341 380.003 L777.789 332.19 L765.185 380.003 L753.883 380.003 L738.623 321.67 Z" fill="#000000" fill-rule="evenodd" fill-opacity="1" /><path clip-path="url(#clip050)" d="M831.435 321.67 L841.018 321.67 L841.018 380.003 L831.435 380.003 L831.435 321.67 M831.435 298.961 L841.018 298.961 L841.018 311.097 L831.435 311.097 L831.435 298.961 Z" fill="#000000" fill-rule="evenodd" fill-opacity="1" /><path clip-path="url(#clip050)" d="M909.559 344.795 L909.559 380.003 L899.976 380.003 L899.976 345.107 Q899.976 336.826 896.747 332.711 Q893.518 328.597 887.059 328.597 Q879.299 328.597 874.82 333.545 Q870.341 338.493 870.341 347.034 L870.341 380.003 L860.705 380.003 L860.705 321.67 L870.341 321.67 L870.341 330.732 Q873.778 325.472 878.414 322.868 Q883.101 320.263 889.195 320.263 Q899.247 320.263 904.403 326.513 Q909.559 332.711 909.559 344.795 Z" fill="#000000" fill-rule="evenodd" fill-opacity="1" /><path clip-path="url(#clip050)" d="M967.059 330.524 L967.059 298.961 L976.642 298.961 L976.642 380.003 L967.059 380.003 L967.059 371.253 Q964.038 376.461 959.403 379.013 Q954.819 381.513 948.361 381.513 Q937.788 381.513 931.122 373.076 Q924.507 364.638 924.507 350.888 Q924.507 337.138 931.122 328.701 Q937.788 320.263 948.361 320.263 Q954.819 320.263 959.403 322.816 Q964.038 325.315 967.059 330.524 M934.403 350.888 Q934.403 361.461 938.726 367.503 Q943.101 373.492 950.705 373.492 Q958.309 373.492 962.684 367.503 Q967.059 361.461 967.059 350.888 Q967.059 340.315 962.684 334.326 Q958.309 328.284 950.705 328.284 Q943.101 328.284 938.726 334.326 Q934.403 340.315 934.403 350.888 Z" fill="#000000" fill-rule="evenodd" fill-opacity="1" /><path clip-path="url(#clip050)" d="
M560.155 504.419 L713.127 504.419 L713.127 411.107 L560.155 411.107 L560.155 504.419  Z
  " fill="#117733" fill-rule="evenodd" fill-opacity="0.5"/>
<polyline clip-path="url(#clip050)" style="stroke:#000000; stroke-linecap:round; stroke-linejoin:round; stroke-width:4; stroke-opacity:1; fill:none" points="
  560.155,504.419 713.127,504.419 713.127,411.107 560.155,411.107 560.155,504.419 
  "/>
<path clip-path="url(#clip050)" d="M787.477 461.435 L787.477 496.643 L777.893 496.643 L777.893 461.747 Q777.893 453.466 774.664 449.351 Q771.435 445.237 764.977 445.237 Q757.216 445.237 752.737 450.185 Q748.258 455.133 748.258 463.674 L748.258 496.643 L738.623 496.643 L738.623 415.601 L748.258 415.601 L748.258 447.372 Q751.695 442.112 756.331 439.508 Q761.018 436.903 767.112 436.903 Q777.164 436.903 782.32 443.153 Q787.477 449.351 787.477 461.435 Z" fill="#000000" fill-rule="evenodd" fill-opacity="1" /><path clip-path="url(#clip050)" d="M830.862 502.059 Q826.799 512.476 822.945 515.653 Q819.091 518.83 812.633 518.83 L804.976 518.83 L804.976 510.809 L810.601 510.809 Q814.56 510.809 816.747 508.934 Q818.935 507.059 821.591 500.08 L823.31 495.705 L799.716 438.31 L809.872 438.31 L828.101 483.934 L846.33 438.31 L856.487 438.31 L830.862 502.059 Z" fill="#000000" fill-rule="evenodd" fill-opacity="1" /><path clip-path="url(#clip050)" d="M908.101 447.164 L908.101 415.601 L917.684 415.601 L917.684 496.643 L908.101 496.643 L908.101 487.893 Q905.08 493.101 900.445 495.653 Q895.861 498.153 889.403 498.153 Q878.83 498.153 872.164 489.716 Q865.549 481.278 865.549 467.528 Q865.549 453.778 872.164 445.341 Q878.83 436.903 889.403 436.903 Q895.861 436.903 900.445 439.456 Q905.08 441.955 908.101 447.164 M875.445 467.528 Q875.445 478.101 879.768 484.143 Q884.143 490.132 891.747 490.132 Q899.351 490.132 903.726 484.143 Q908.101 478.101 908.101 467.528 Q908.101 456.955 903.726 450.966 Q899.351 444.924 891.747 444.924 Q884.143 444.924 879.768 450.966 Q875.445 456.955 875.445 467.528 Z" fill="#000000" fill-rule="evenodd" fill-opacity="1" /><path clip-path="url(#clip050)" d="M971.226 447.268 Q969.611 446.33 967.684 445.914 Q965.809 445.445 963.517 445.445 Q955.392 445.445 951.017 450.758 Q946.694 456.018 946.694 465.914 L946.694 496.643 L937.059 496.643 L937.059 438.31 L946.694 438.31 L946.694 447.372 Q949.715 442.06 954.559 439.508 Q959.403 436.903 966.33 436.903 Q967.319 436.903 968.517 437.06 Q969.715 437.164 971.173 437.424 L971.226 447.268 Z" fill="#000000" fill-rule="evenodd" fill-opacity="1" /><path clip-path="url(#clip050)" d="M1001.54 445.028 Q993.83 445.028 989.35 451.07 Q984.871 457.06 984.871 467.528 Q984.871 477.997 989.298 484.039 Q993.778 490.028 1001.54 490.028 Q1009.19 490.028 1013.67 483.987 Q1018.15 477.945 1018.15 467.528 Q1018.15 457.164 1013.67 451.122 Q1009.19 445.028 1001.54 445.028 M1001.54 436.903 Q1014.04 436.903 1021.17 445.028 Q1028.31 453.153 1028.31 467.528 Q1028.31 481.851 1021.17 490.028 Q1014.04 498.153 1001.54 498.153 Q988.986 498.153 981.85 490.028 Q974.767 481.851 974.767 467.528 Q974.767 453.153 981.85 445.028 Q988.986 436.903 1001.54 436.903 Z" fill="#000000" fill-rule="evenodd" fill-opacity="1" /><path clip-path="url(#clip050)" d="
M560.155 621.059 L713.127 621.059 L713.127 527.747 L560.155 527.747 L560.155 621.059  Z
  " fill="#332288" fill-rule="evenodd" fill-opacity="0.5"/>
<polyline clip-path="url(#clip050)" style="stroke:#000000; stroke-linecap:round; stroke-linejoin:round; stroke-width:4; stroke-opacity:1; fill:none" points="
  560.155,621.059 713.127,621.059 713.127,527.747 560.155,527.747 560.155,621.059 
  "/>
<path clip-path="url(#clip050)" d="M787.477 578.075 L787.477 613.283 L777.893 613.283 L777.893 578.387 Q777.893 570.106 774.664 565.991 Q771.435 561.877 764.977 561.877 Q757.216 561.877 752.737 566.825 Q748.258 571.773 748.258 580.314 L748.258 613.283 L738.623 613.283 L738.623 554.95 L748.258 554.95 L748.258 564.012 Q751.695 558.752 756.331 556.148 Q761.018 553.543 767.112 553.543 Q777.164 553.543 782.32 559.793 Q787.477 565.991 787.477 578.075 Z" fill="#000000" fill-rule="evenodd" fill-opacity="1" /><path clip-path="url(#clip050)" d="M805.601 590.262 L805.601 554.95 L815.185 554.95 L815.185 589.897 Q815.185 598.179 818.414 602.345 Q821.643 606.46 828.101 606.46 Q835.862 606.46 840.341 601.512 Q844.872 596.564 844.872 588.022 L844.872 554.95 L854.455 554.95 L854.455 613.283 L844.872 613.283 L844.872 604.324 Q841.383 609.637 836.747 612.241 Q832.164 614.793 826.07 614.793 Q816.018 614.793 810.81 608.543 Q805.601 602.293 805.601 590.262 M829.716 553.543 L829.716 553.543 Z" fill="#000000" fill-rule="evenodd" fill-opacity="1" /><path clip-path="url(#clip050)" d="M916.174 557.189 L916.174 566.148 Q912.111 563.908 907.997 562.814 Q903.934 561.668 899.768 561.668 Q890.445 561.668 885.289 567.606 Q880.132 573.491 880.132 584.168 Q880.132 594.845 885.289 600.783 Q890.445 606.668 899.768 606.668 Q903.934 606.668 907.997 605.574 Q912.111 604.429 916.174 602.189 L916.174 611.043 Q912.163 612.918 907.84 613.856 Q903.57 614.793 898.726 614.793 Q885.549 614.793 877.789 606.512 Q870.028 598.231 870.028 584.168 Q870.028 569.898 877.841 561.72 Q885.705 553.543 899.351 553.543 Q903.778 553.543 907.997 554.481 Q912.215 555.366 916.174 557.189 Z" fill="#000000" fill-rule="evenodd" fill-opacity="1" /><path clip-path="url(#clip050)" d="M932.84 532.241 L942.424 532.241 L942.424 613.283 L932.84 613.283 L932.84 532.241 Z" fill="#000000" fill-rule="evenodd" fill-opacity="1" /><path clip-path="url(#clip050)" d="M1012.37 581.72 L1012.37 586.408 L968.309 586.408 Q968.934 596.304 974.246 601.512 Q979.611 606.668 989.142 606.668 Q994.663 606.668 999.819 605.314 Q1005.03 603.96 1010.13 601.252 L1010.13 610.314 Q1004.98 612.501 999.559 613.647 Q994.142 614.793 988.569 614.793 Q974.611 614.793 966.434 606.668 Q958.309 598.543 958.309 584.689 Q958.309 570.366 966.017 561.981 Q973.778 553.543 986.903 553.543 Q998.673 553.543 1005.5 561.148 Q1012.37 568.7 1012.37 581.72 M1002.79 578.908 Q1002.68 571.043 998.361 566.356 Q994.09 561.668 987.007 561.668 Q978.986 561.668 974.142 566.2 Q969.351 570.731 968.621 578.96 L1002.79 578.908 Z" fill="#000000" fill-rule="evenodd" fill-opacity="1" /><path clip-path="url(#clip050)" d="M1054.61 583.96 Q1043 583.96 1038.52 586.616 Q1034.04 589.272 1034.04 595.679 Q1034.04 600.783 1037.37 603.804 Q1040.76 606.772 1046.54 606.772 Q1054.51 606.772 1059.3 601.147 Q1064.14 595.47 1064.14 586.095 L1064.14 583.96 L1054.61 583.96 M1073.73 580.002 L1073.73 613.283 L1064.14 613.283 L1064.14 604.429 Q1060.86 609.741 1055.96 612.293 Q1051.07 614.793 1043.99 614.793 Q1035.03 614.793 1029.71 609.793 Q1024.45 604.741 1024.45 596.304 Q1024.45 586.46 1031.02 581.46 Q1037.63 576.46 1050.7 576.46 L1064.14 576.46 L1064.14 575.522 Q1064.14 568.908 1059.77 565.314 Q1055.44 561.668 1047.58 561.668 Q1042.58 561.668 1037.84 562.866 Q1033.1 564.064 1028.73 566.46 L1028.73 557.606 Q1033.99 555.575 1038.93 554.585 Q1043.88 553.543 1048.57 553.543 Q1061.23 553.543 1067.48 560.106 Q1073.73 566.668 1073.73 580.002 Z" fill="#000000" fill-rule="evenodd" fill-opacity="1" /><path clip-path="url(#clip050)" d="M1127.27 563.908 Q1125.65 562.97 1123.72 562.554 Q1121.85 562.085 1119.56 562.085 Q1111.43 562.085 1107.06 567.398 Q1102.74 572.658 1102.74 582.554 L1102.74 613.283 L1093.1 613.283 L1093.1 554.95 L1102.74 554.95 L1102.74 564.012 Q1105.76 558.7 1110.6 556.148 Q1115.44 553.543 1122.37 553.543 Q1123.36 553.543 1124.56 553.7 Q1125.76 553.804 1127.21 554.064 L1127.27 563.908 Z" fill="#000000" fill-rule="evenodd" fill-opacity="1" /><path clip-path="url(#clip050)" d="
M560.155 737.699 L713.127 737.699 L713.127 644.387 L560.155 644.387 L560.155 737.699  Z
  " fill="#ddcc77" fill-rule="evenodd" fill-opacity="0.5"/>
<polyline clip-path="url(#clip050)" style="stroke:#000000; stroke-linecap:round; stroke-linejoin:round; stroke-width:4; stroke-opacity:1; fill:none" points="
  560.155,737.699 713.127,737.699 713.127,644.387 560.155,644.387 560.155,737.699 
  "/>
<path clip-path="url(#clip050)" d="M784.768 673.829 L784.768 682.788 Q780.706 680.548 776.591 679.454 Q772.529 678.308 768.362 678.308 Q759.039 678.308 753.883 684.246 Q748.727 690.131 748.727 700.808 Q748.727 711.485 753.883 717.423 Q759.039 723.308 768.362 723.308 Q772.529 723.308 776.591 722.214 Q780.706 721.069 784.768 718.829 L784.768 727.683 Q780.758 729.558 776.435 730.496 Q772.164 731.433 767.32 731.433 Q754.143 731.433 746.383 723.152 Q738.623 714.871 738.623 700.808 Q738.623 686.538 746.435 678.36 Q754.3 670.183 767.945 670.183 Q772.372 670.183 776.591 671.121 Q780.81 672.006 784.768 673.829 Z" fill="#000000" fill-rule="evenodd" fill-opacity="1" /><path clip-path="url(#clip050)" d="M824.039 678.308 Q816.331 678.308 811.851 684.35 Q807.372 690.34 807.372 700.808 Q807.372 711.277 811.799 717.319 Q816.278 723.308 824.039 723.308 Q831.695 723.308 836.174 717.267 Q840.653 711.225 840.653 700.808 Q840.653 690.444 836.174 684.402 Q831.695 678.308 824.039 678.308 M824.039 670.183 Q836.539 670.183 843.674 678.308 Q850.81 686.433 850.81 700.808 Q850.81 715.131 843.674 723.308 Q836.539 731.433 824.039 731.433 Q811.487 731.433 804.351 723.308 Q797.268 715.131 797.268 700.808 Q797.268 686.433 804.351 678.308 Q811.487 670.183 824.039 670.183 Z" fill="#000000" fill-rule="evenodd" fill-opacity="1" /><path clip-path="url(#clip050)" d="M893.205 700.6 Q881.591 700.6 877.111 703.256 Q872.632 705.912 872.632 712.319 Q872.632 717.423 875.966 720.444 Q879.351 723.412 885.132 723.412 Q893.101 723.412 897.893 717.787 Q902.736 712.11 902.736 702.735 L902.736 700.6 L893.205 700.6 M912.32 696.642 L912.32 729.923 L902.736 729.923 L902.736 721.069 Q899.455 726.381 894.559 728.933 Q889.663 731.433 882.58 731.433 Q873.622 731.433 868.309 726.433 Q863.049 721.381 863.049 712.944 Q863.049 703.1 869.612 698.1 Q876.226 693.1 889.299 693.1 L902.736 693.1 L902.736 692.162 Q902.736 685.548 898.361 681.954 Q894.038 678.308 886.174 678.308 Q881.174 678.308 876.434 679.506 Q871.695 680.704 867.32 683.1 L867.32 674.246 Q872.58 672.215 877.528 671.225 Q882.476 670.183 887.164 670.183 Q899.82 670.183 906.07 676.746 Q912.32 683.308 912.32 696.642 Z" fill="#000000" fill-rule="evenodd" fill-opacity="1" /><path clip-path="url(#clip050)" d="M932.059 648.881 L941.642 648.881 L941.642 729.923 L932.059 729.923 L932.059 648.881 Z" fill="#000000" fill-rule="evenodd" fill-opacity="1" /><path clip-path="url(#clip050)" d="
M560.155 854.339 L713.127 854.339 L713.127 761.027 L560.155 761.027 L560.155 854.339  Z
  " fill="#999933" fill-rule="evenodd" fill-opacity="0.5"/>
<polyline clip-path="url(#clip050)" style="stroke:#000000; stroke-linecap:round; stroke-linejoin:round; stroke-width:4; stroke-opacity:1; fill:none" points="
  560.155,854.339 713.127,854.339 713.127,761.027 560.155,761.027 560.155,854.339 
  "/>
<path clip-path="url(#clip050)" d="M787.477 811.355 L787.477 846.563 L777.893 846.563 L777.893 811.667 Q777.893 803.386 774.664 799.271 Q771.435 795.157 764.977 795.157 Q757.216 795.157 752.737 800.105 Q748.258 805.053 748.258 813.594 L748.258 846.563 L738.623 846.563 L738.623 788.23 L748.258 788.23 L748.258 797.292 Q751.695 792.032 756.331 789.428 Q761.018 786.823 767.112 786.823 Q777.164 786.823 782.32 793.073 Q787.477 799.271 787.477 811.355 Z" fill="#000000" fill-rule="evenodd" fill-opacity="1" /><path clip-path="url(#clip050)" d="M833.101 817.24 Q821.487 817.24 817.008 819.896 Q812.528 822.552 812.528 828.959 Q812.528 834.063 815.862 837.084 Q819.247 840.052 825.028 840.052 Q832.997 840.052 837.789 834.427 Q842.632 828.75 842.632 819.375 L842.632 817.24 L833.101 817.24 M852.216 813.282 L852.216 846.563 L842.632 846.563 L842.632 837.709 Q839.351 843.021 834.455 845.573 Q829.56 848.073 822.476 848.073 Q813.518 848.073 808.206 843.073 Q802.945 838.021 802.945 829.584 Q802.945 819.74 809.508 814.74 Q816.122 809.74 829.195 809.74 L842.632 809.74 L842.632 808.802 Q842.632 802.188 838.258 798.594 Q833.935 794.948 826.07 794.948 Q821.07 794.948 816.331 796.146 Q811.591 797.344 807.216 799.74 L807.216 790.886 Q812.476 788.855 817.424 787.865 Q822.372 786.823 827.06 786.823 Q839.716 786.823 845.966 793.386 Q852.216 799.948 852.216 813.282 Z" fill="#000000" fill-rule="evenodd" fill-opacity="1" /><path clip-path="url(#clip050)" d="M881.434 771.667 L881.434 788.23 L901.174 788.23 L901.174 795.678 L881.434 795.678 L881.434 827.344 Q881.434 834.479 883.361 836.511 Q885.341 838.542 891.33 838.542 L901.174 838.542 L901.174 846.563 L891.33 846.563 Q880.236 846.563 876.018 842.448 Q871.799 838.281 871.799 827.344 L871.799 795.678 L864.768 795.678 L864.768 788.23 L871.799 788.23 L871.799 771.667 L881.434 771.667 Z" fill="#000000" fill-rule="evenodd" fill-opacity="1" /><path clip-path="url(#clip050)" d="M952.163 816.719 Q952.163 806.302 947.84 800.573 Q943.569 794.844 935.809 794.844 Q928.101 794.844 923.778 800.573 Q919.507 806.302 919.507 816.719 Q919.507 827.084 923.778 832.813 Q928.101 838.542 935.809 838.542 Q943.569 838.542 947.84 832.813 Q952.163 827.084 952.163 816.719 M961.746 839.323 Q961.746 854.219 955.132 861.458 Q948.517 868.75 934.872 868.75 Q929.82 868.75 925.34 867.969 Q920.861 867.24 916.643 865.677 L916.643 856.354 Q920.861 858.646 924.976 859.74 Q929.09 860.833 933.361 860.833 Q942.788 860.833 947.476 855.886 Q952.163 850.99 952.163 841.042 L952.163 836.302 Q949.194 841.459 944.559 844.011 Q939.924 846.563 933.465 846.563 Q922.736 846.563 916.174 838.386 Q909.611 830.209 909.611 816.719 Q909.611 803.178 916.174 795 Q922.736 786.823 933.465 786.823 Q939.924 786.823 944.559 789.376 Q949.194 791.928 952.163 797.084 L952.163 788.23 L961.746 788.23 L961.746 839.323 Z" fill="#000000" fill-rule="evenodd" fill-opacity="1" /><path clip-path="url(#clip050)" d="M1008 817.24 Q996.382 817.24 991.903 819.896 Q987.423 822.552 987.423 828.959 Q987.423 834.063 990.757 837.084 Q994.142 840.052 999.923 840.052 Q1007.89 840.052 1012.68 834.427 Q1017.53 828.75 1017.53 819.375 L1017.53 817.24 L1008 817.24 M1027.11 813.282 L1027.11 846.563 L1017.53 846.563 L1017.53 837.709 Q1014.25 843.021 1009.35 845.573 Q1004.45 848.073 997.371 848.073 Q988.413 848.073 983.1 843.073 Q977.84 838.021 977.84 829.584 Q977.84 819.74 984.403 814.74 Q991.017 809.74 1004.09 809.74 L1017.53 809.74 L1017.53 808.802 Q1017.53 802.188 1013.15 798.594 Q1008.83 794.948 1000.96 794.948 Q995.965 794.948 991.225 796.146 Q986.486 797.344 982.111 799.74 L982.111 790.886 Q987.371 788.855 992.319 787.865 Q997.267 786.823 1001.95 786.823 Q1014.61 786.823 1020.86 793.386 Q1027.11 799.948 1027.11 813.282 Z" fill="#000000" fill-rule="evenodd" fill-opacity="1" /><path clip-path="url(#clip050)" d="M1084.04 789.948 L1084.04 799.011 Q1079.97 796.928 1075.6 795.886 Q1071.23 794.844 1066.54 794.844 Q1059.4 794.844 1055.81 797.032 Q1052.27 799.219 1052.27 803.594 Q1052.27 806.927 1054.82 808.855 Q1057.37 810.73 1065.08 812.448 L1068.36 813.177 Q1078.57 815.365 1082.84 819.375 Q1087.16 823.334 1087.16 830.469 Q1087.16 838.594 1080.7 843.334 Q1074.3 848.073 1063.05 848.073 Q1058.36 848.073 1053.26 847.136 Q1048.2 846.25 1042.58 844.427 L1042.58 834.532 Q1047.89 837.292 1053.05 838.698 Q1058.2 840.052 1063.26 840.052 Q1070.03 840.052 1073.67 837.761 Q1077.32 835.417 1077.32 831.198 Q1077.32 827.292 1074.66 825.209 Q1072.06 823.125 1063.15 821.198 L1059.82 820.417 Q1050.91 818.542 1046.95 814.688 Q1043 810.782 1043 804.011 Q1043 795.782 1048.83 791.303 Q1054.66 786.823 1065.39 786.823 Q1070.7 786.823 1075.39 787.605 Q1080.08 788.386 1084.04 789.948 Z" fill="#000000" fill-rule="evenodd" fill-opacity="1" /><polyline clip-path="url(#clip050)" style="stroke:#000000; stroke-linecap:round; stroke-linejoin:round; stroke-width:9; stroke-opacity:1; fill:none" stroke-dasharray="36, 23" points="
  560.155,924.323 713.127,924.323 
  "/>
<path clip-path="url(#clip050)" d="M781.174 913.724 L781.174 882.161 L790.758 882.161 L790.758 963.203 L781.174 963.203 L781.174 954.453 Q778.154 959.661 773.518 962.213 Q768.935 964.713 762.477 964.713 Q751.904 964.713 745.237 956.276 Q738.623 947.838 738.623 934.088 Q738.623 920.338 745.237 911.901 Q751.904 903.463 762.477 903.463 Q768.935 903.463 773.518 906.016 Q778.154 908.515 781.174 913.724 M748.518 934.088 Q748.518 944.661 752.841 950.703 Q757.216 956.692 764.82 956.692 Q772.425 956.692 776.8 950.703 Q781.174 944.661 781.174 934.088 Q781.174 923.515 776.8 917.526 Q772.425 911.484 764.82 911.484 Q757.216 911.484 752.841 917.526 Q748.518 923.515 748.518 934.088 Z" fill="#000000" fill-rule="evenodd" fill-opacity="1" /><path clip-path="url(#clip050)" d="M860.393 931.64 L860.393 936.328 L816.331 936.328 Q816.956 946.224 822.268 951.432 Q827.633 956.588 837.164 956.588 Q842.685 956.588 847.841 955.234 Q853.049 953.88 858.153 951.172 L858.153 960.234 Q852.997 962.421 847.58 963.567 Q842.164 964.713 836.591 964.713 Q822.633 964.713 814.456 956.588 Q806.331 948.463 806.331 934.609 Q806.331 920.286 814.039 911.901 Q821.799 903.463 834.924 903.463 Q846.695 903.463 853.518 911.068 Q860.393 918.62 860.393 931.64 M850.81 928.828 Q850.705 920.963 846.382 916.276 Q842.112 911.588 835.028 911.588 Q827.008 911.588 822.164 916.12 Q817.372 920.651 816.643 928.88 L850.81 928.828 Z" fill="#000000" fill-rule="evenodd" fill-opacity="1" /><path clip-path="url(#clip050)" d="M921.538 916.068 Q925.132 909.609 930.132 906.536 Q935.132 903.463 941.903 903.463 Q951.017 903.463 955.965 909.87 Q960.913 916.224 960.913 927.995 L960.913 963.203 L951.278 963.203 L951.278 928.307 Q951.278 919.922 948.309 915.859 Q945.34 911.797 939.247 911.797 Q931.799 911.797 927.476 916.745 Q923.153 921.693 923.153 930.234 L923.153 963.203 L913.518 963.203 L913.518 928.307 Q913.518 919.87 910.549 915.859 Q907.58 911.797 901.382 911.797 Q894.038 911.797 889.716 916.797 Q885.393 921.745 885.393 930.234 L885.393 963.203 L875.757 963.203 L875.757 904.87 L885.393 904.87 L885.393 913.932 Q888.674 908.568 893.257 906.016 Q897.841 903.463 904.143 903.463 Q910.497 903.463 914.924 906.693 Q919.403 909.922 921.538 916.068 Z" fill="#000000" fill-rule="evenodd" fill-opacity="1" /><path clip-path="url(#clip050)" d="M1006.54 933.88 Q994.923 933.88 990.444 936.536 Q985.965 939.192 985.965 945.599 Q985.965 950.703 989.298 953.724 Q992.684 956.692 998.465 956.692 Q1006.43 956.692 1011.23 951.067 Q1016.07 945.39 1016.07 936.015 L1016.07 933.88 L1006.54 933.88 M1025.65 929.922 L1025.65 963.203 L1016.07 963.203 L1016.07 954.349 Q1012.79 959.661 1007.89 962.213 Q1003 964.713 995.913 964.713 Q986.955 964.713 981.642 959.713 Q976.382 954.661 976.382 946.224 Q976.382 936.38 982.944 931.38 Q989.559 926.38 1002.63 926.38 L1016.07 926.38 L1016.07 925.442 Q1016.07 918.828 1011.69 915.234 Q1007.37 911.588 999.507 911.588 Q994.507 911.588 989.767 912.786 Q985.028 913.984 980.653 916.38 L980.653 907.526 Q985.913 905.495 990.861 904.505 Q995.809 903.463 1000.5 903.463 Q1013.15 903.463 1019.4 910.026 Q1025.65 916.588 1025.65 929.922 Z" fill="#000000" fill-rule="evenodd" fill-opacity="1" /><path clip-path="url(#clip050)" d="M1093.88 927.995 L1093.88 963.203 L1084.3 963.203 L1084.3 928.307 Q1084.3 920.026 1081.07 915.911 Q1077.84 911.797 1071.38 911.797 Q1063.62 911.797 1059.14 916.745 Q1054.66 921.693 1054.66 930.234 L1054.66 963.203 L1045.03 963.203 L1045.03 904.87 L1054.66 904.87 L1054.66 913.932 Q1058.1 908.672 1062.74 906.068 Q1067.42 903.463 1073.52 903.463 Q1083.57 903.463 1088.72 909.713 Q1093.88 915.911 1093.88 927.995 Z" fill="#000000" fill-rule="evenodd" fill-opacity="1" /><path clip-path="url(#clip050)" d="M1151.38 913.724 L1151.38 882.161 L1160.96 882.161 L1160.96 963.203 L1151.38 963.203 L1151.38 954.453 Q1148.36 959.661 1143.72 962.213 Q1139.14 964.713 1132.68 964.713 Q1122.11 964.713 1115.44 956.276 Q1108.83 947.838 1108.83 934.088 Q1108.83 920.338 1115.44 911.901 Q1122.11 903.463 1132.68 903.463 Q1139.14 903.463 1143.72 906.016 Q1148.36 908.515 1151.38 913.724 M1118.72 934.088 Q1118.72 944.661 1123.05 950.703 Q1127.42 956.692 1135.03 956.692 Q1142.63 956.692 1147.01 950.703 Q1151.38 944.661 1151.38 934.088 Q1151.38 923.515 1147.01 917.526 Q1142.63 911.484 1135.03 911.484 Q1127.42 911.484 1123.05 917.526 Q1118.72 923.515 1118.72 934.088 Z" fill="#000000" fill-rule="evenodd" fill-opacity="1" /><polyline clip-path="url(#clip050)" style="stroke:#0000ff; stroke-linecap:round; stroke-linejoin:round; stroke-width:9; stroke-opacity:1; fill:none" stroke-dasharray="5, 9" points="
  560.155,1040.96 713.127,1040.96 
  "/>
<path clip-path="url(#clip050)" d="M738.623 1002.08 L787.789 1002.08 L787.789 1010.94 L749.143 1010.94 L749.143 1033.96 L786.174 1033.96 L786.174 1042.81 L749.143 1042.81 L749.143 1070.99 L788.727 1070.99 L788.727 1079.84 L738.623 1079.84 L738.623 1002.08 Z" fill="#000000" fill-rule="evenodd" fill-opacity="1" /><path clip-path="url(#clip050)" d="M805.601 998.801 L815.185 998.801 L815.185 1079.84 L805.601 1079.84 L805.601 998.801 Z" fill="#000000" fill-rule="evenodd" fill-opacity="1" /><path clip-path="url(#clip050)" d="M885.132 1048.28 L885.132 1052.97 L841.07 1052.97 Q841.695 1062.86 847.007 1068.07 Q852.372 1073.23 861.903 1073.23 Q867.424 1073.23 872.58 1071.87 Q877.789 1070.52 882.893 1067.81 L882.893 1076.87 Q877.736 1079.06 872.32 1080.21 Q866.903 1081.35 861.33 1081.35 Q847.372 1081.35 839.195 1073.23 Q831.07 1065.1 831.07 1051.25 Q831.07 1036.93 838.778 1028.54 Q846.539 1020.1 859.664 1020.1 Q871.434 1020.1 878.257 1027.71 Q885.132 1035.26 885.132 1048.28 M875.549 1045.47 Q875.445 1037.6 871.122 1032.92 Q866.851 1028.23 859.768 1028.23 Q851.747 1028.23 846.903 1032.76 Q842.112 1037.29 841.383 1045.52 L875.549 1045.47 Z" fill="#000000" fill-rule="evenodd" fill-opacity="1" /><path clip-path="url(#clip050)" d="M942.84 1023.75 L942.84 1032.71 Q938.778 1030.47 934.663 1029.37 Q930.601 1028.23 926.434 1028.23 Q917.111 1028.23 911.955 1034.17 Q906.799 1040.05 906.799 1050.73 Q906.799 1061.41 911.955 1067.34 Q917.111 1073.23 926.434 1073.23 Q930.601 1073.23 934.663 1072.13 Q938.778 1070.99 942.84 1068.75 L942.84 1077.6 Q938.83 1079.48 934.507 1080.42 Q930.236 1081.35 925.392 1081.35 Q912.215 1081.35 904.455 1073.07 Q896.695 1064.79 896.695 1050.73 Q896.695 1036.46 904.507 1028.28 Q912.372 1020.1 926.017 1020.1 Q930.445 1020.1 934.663 1021.04 Q938.882 1021.93 942.84 1023.75 Z" fill="#000000" fill-rule="evenodd" fill-opacity="1" /><path clip-path="url(#clip050)" d="M968.986 1004.95 L968.986 1021.51 L988.725 1021.51 L988.725 1028.96 L968.986 1028.96 L968.986 1060.62 Q968.986 1067.76 970.913 1069.79 Q972.892 1071.82 978.882 1071.82 L988.725 1071.82 L988.725 1079.84 L978.882 1079.84 Q967.788 1079.84 963.569 1075.73 Q959.351 1071.56 959.351 1060.62 L959.351 1028.96 L952.319 1028.96 L952.319 1021.51 L959.351 1021.51 L959.351 1004.95 L968.986 1004.95 Z" fill="#000000" fill-rule="evenodd" fill-opacity="1" /><path clip-path="url(#clip050)" d="M1035.13 1030.47 Q1033.52 1029.53 1031.59 1029.11 Q1029.71 1028.65 1027.42 1028.65 Q1019.3 1028.65 1014.92 1033.96 Q1010.6 1039.22 1010.6 1049.11 L1010.6 1079.84 L1000.96 1079.84 L1000.96 1021.51 L1010.6 1021.51 L1010.6 1030.57 Q1013.62 1025.26 1018.46 1022.71 Q1023.31 1020.1 1030.24 1020.1 Q1031.23 1020.1 1032.42 1020.26 Q1033.62 1020.36 1035.08 1020.62 L1035.13 1030.47 Z" fill="#000000" fill-rule="evenodd" fill-opacity="1" /><path clip-path="url(#clip050)" d="M1045.18 1021.51 L1054.77 1021.51 L1054.77 1079.84 L1045.18 1079.84 L1045.18 1021.51 M1045.18 998.801 L1054.77 998.801 L1054.77 1010.94 L1045.18 1010.94 L1045.18 998.801 Z" fill="#000000" fill-rule="evenodd" fill-opacity="1" /><path clip-path="url(#clip050)" d="M1116.8 1023.75 L1116.8 1032.71 Q1112.74 1030.47 1108.62 1029.37 Q1104.56 1028.23 1100.39 1028.23 Q1091.07 1028.23 1085.91 1034.17 Q1080.76 1040.05 1080.76 1050.73 Q1080.76 1061.41 1085.91 1067.34 Q1091.07 1073.23 1100.39 1073.23 Q1104.56 1073.23 1108.62 1072.13 Q1112.74 1070.99 1116.8 1068.75 L1116.8 1077.6 Q1112.79 1079.48 1108.46 1080.42 Q1104.19 1081.35 1099.35 1081.35 Q1086.17 1081.35 1078.41 1073.07 Q1070.65 1064.79 1070.65 1050.73 Q1070.65 1036.46 1078.46 1028.28 Q1086.33 1020.1 1099.97 1020.1 Q1104.4 1020.1 1108.62 1021.04 Q1112.84 1021.93 1116.8 1023.75 Z" fill="#000000" fill-rule="evenodd" fill-opacity="1" /><path clip-path="url(#clip050)" d="M1133.46 1021.51 L1143.05 1021.51 L1143.05 1079.84 L1133.46 1079.84 L1133.46 1021.51 M1133.46 998.801 L1143.05 998.801 L1143.05 1010.94 L1133.46 1010.94 L1133.46 998.801 Z" fill="#000000" fill-rule="evenodd" fill-opacity="1" /><path clip-path="url(#clip050)" d="M1172.58 1004.95 L1172.58 1021.51 L1192.32 1021.51 L1192.32 1028.96 L1172.58 1028.96 L1172.58 1060.62 Q1172.58 1067.76 1174.51 1069.79 Q1176.48 1071.82 1182.47 1071.82 L1192.32 1071.82 L1192.32 1079.84 L1182.47 1079.84 Q1171.38 1079.84 1167.16 1075.73 Q1162.94 1071.56 1162.94 1060.62 L1162.94 1028.96 L1155.91 1028.96 L1155.91 1021.51 L1162.94 1021.51 L1162.94 1004.95 L1172.58 1004.95 Z" fill="#000000" fill-rule="evenodd" fill-opacity="1" /><path clip-path="url(#clip050)" d="M1229.19 1085.26 Q1225.13 1095.68 1221.28 1098.85 Q1217.42 1102.03 1210.96 1102.03 L1203.31 1102.03 L1203.31 1094.01 L1208.93 1094.01 Q1212.89 1094.01 1215.08 1092.13 Q1217.27 1090.26 1219.92 1083.28 L1221.64 1078.91 L1198.05 1021.51 L1208.2 1021.51 L1226.43 1067.13 L1244.66 1021.51 L1254.82 1021.51 L1229.19 1085.26 Z" fill="#000000" fill-rule="evenodd" fill-opacity="1" /><path clip-path="url(#clip050)" d="M1312.89 1010.73 L1312.89 1039.95 L1326.12 1039.95 Q1333.46 1039.95 1337.47 1036.15 Q1341.48 1032.34 1341.48 1025.31 Q1341.48 1018.33 1337.47 1014.53 Q1333.46 1010.73 1326.12 1010.73 L1312.89 1010.73 M1302.37 1002.08 L1326.12 1002.08 Q1339.19 1002.08 1345.86 1008.02 Q1352.58 1013.91 1352.58 1025.31 Q1352.58 1036.82 1345.86 1042.71 Q1339.19 1048.59 1326.12 1048.59 L1312.89 1048.59 L1312.89 1079.84 L1302.37 1079.84 L1302.37 1002.08 Z" fill="#000000" fill-rule="evenodd" fill-opacity="1" /><path clip-path="url(#clip050)" d="M1398.2 1030.47 Q1396.59 1029.53 1394.66 1029.11 Q1392.79 1028.65 1390.49 1028.65 Q1382.37 1028.65 1377.99 1033.96 Q1373.67 1039.22 1373.67 1049.11 L1373.67 1079.84 L1364.04 1079.84 L1364.04 1021.51 L1373.67 1021.51 L1373.67 1030.57 Q1376.69 1025.26 1381.54 1022.71 Q1386.38 1020.1 1393.31 1020.1 Q1394.3 1020.1 1395.49 1020.26 Q1396.69 1020.36 1398.15 1020.62 L1398.2 1030.47 Z" fill="#000000" fill-rule="evenodd" fill-opacity="1" /><path clip-path="url(#clip050)" d="M1408.25 1021.51 L1417.84 1021.51 L1417.84 1079.84 L1408.25 1079.84 L1408.25 1021.51 M1408.25 998.801 L1417.84 998.801 L1417.84 1010.94 L1408.25 1010.94 L1408.25 998.801 Z" fill="#000000" fill-rule="evenodd" fill-opacity="1" /><path clip-path="url(#clip050)" d="M1479.87 1023.75 L1479.87 1032.71 Q1475.81 1030.47 1471.69 1029.37 Q1467.63 1028.23 1463.46 1028.23 Q1454.14 1028.23 1448.98 1034.17 Q1443.83 1040.05 1443.83 1050.73 Q1443.83 1061.41 1448.98 1067.34 Q1454.14 1073.23 1463.46 1073.23 Q1467.63 1073.23 1471.69 1072.13 Q1475.81 1070.99 1479.87 1068.75 L1479.87 1077.6 Q1475.86 1079.48 1471.54 1080.42 Q1467.26 1081.35 1462.42 1081.35 Q1449.24 1081.35 1441.48 1073.07 Q1433.72 1064.79 1433.72 1050.73 Q1433.72 1036.46 1441.54 1028.28 Q1449.4 1020.1 1463.05 1020.1 Q1467.47 1020.1 1471.69 1021.04 Q1475.91 1021.93 1479.87 1023.75 Z" fill="#000000" fill-rule="evenodd" fill-opacity="1" /><path clip-path="url(#clip050)" d="M1546.43 1048.28 L1546.43 1052.97 L1502.37 1052.97 Q1502.99 1062.86 1508.31 1068.07 Q1513.67 1073.23 1523.2 1073.23 Q1528.72 1073.23 1533.88 1071.87 Q1539.09 1070.52 1544.19 1067.81 L1544.19 1076.87 Q1539.04 1079.06 1533.62 1080.21 Q1528.2 1081.35 1522.63 1081.35 Q1508.67 1081.35 1500.49 1073.23 Q1492.37 1065.1 1492.37 1051.25 Q1492.37 1036.93 1500.08 1028.54 Q1507.84 1020.1 1520.96 1020.1 Q1532.73 1020.1 1539.56 1027.71 Q1546.43 1035.26 1546.43 1048.28 M1536.85 1045.47 Q1536.74 1037.6 1532.42 1032.92 Q1528.15 1028.23 1521.07 1028.23 Q1513.05 1028.23 1508.2 1032.76 Q1503.41 1037.29 1502.68 1045.52 L1536.85 1045.47 Z" fill="#000000" fill-rule="evenodd" fill-opacity="1" /></svg>
