<?xml version="1.0" encoding="utf-8"?>
<svg xmlns="http://www.w3.org/2000/svg" xmlns:xlink="http://www.w3.org/1999/xlink" width="700" height="400" viewBox="0 0 2800 1600">
<defs>
  <clipPath id="clip360">
    <rect x="0" y="0" width="2800" height="1600"/>
  </clipPath>
</defs>
<path clip-path="url(#clip360)" d="
M0 1600 L2800 1600 L2800 0 L0 0  Z
  " fill="#ffffff" fill-rule="evenodd" fill-opacity="1"/>
<defs>
  <clipPath id="clip361">
    <rect x="560" y="0" width="1961" height="1600"/>
  </clipPath>
</defs>
<path clip-path="url(#clip360)" d="
M421.145 1245.04 L2752.76 1245.04 L2752.76 174.078 L421.145 174.078  Z
  " fill="#ffffff" fill-rule="evenodd" fill-opacity="1"/>
<defs>
  <clipPath id="clip362">
    <rect x="421" y="174" width="2333" height="1072"/>
  </clipPath>
</defs>
<polyline clip-path="url(#clip360)" style="stroke:#000000; stroke-linecap:round; stroke-linejoin:round; stroke-width:4; stroke-opacity:1; fill:none" points="
  421.145,1245.04 2752.76,1245.04 
  "/>
<polyline clip-path="url(#clip360)" style="stroke:#000000; stroke-linecap:round; stroke-linejoin:round; stroke-width:4; stroke-opacity:1; fill:none" points="
  487.134,1245.04 487.134,1226.14 
  "/>
<polyline clip-path="url(#clip360)" style="stroke:#000000; stroke-linecap:round; stroke-linejoin:round; stroke-width:4; stroke-opacity:1; fill:none" points="
  918.435,1245.04 918.435,1226.14 
  "/>
<polyline clip-path="url(#clip360)" style="stroke:#000000; stroke-linecap:round; stroke-linejoin:round; stroke-width:4; stroke-opacity:1; fill:none" points="
  1349.74,1245.04 1349.74,1226.14 
  "/>
<polyline clip-path="url(#clip360)" style="stroke:#000000; stroke-linecap:round; stroke-linejoin:round; stroke-width:4; stroke-opacity:1; fill:none" points="
  1781.04,1245.04 1781.04,1226.14 
  "/>
<polyline clip-path="url(#clip360)" style="stroke:#000000; stroke-linecap:round; stroke-linejoin:round; stroke-width:4; stroke-opacity:1; fill:none" points="
  2212.34,1245.04 2212.34,1226.14 
  "/>
<polyline clip-path="url(#clip360)" style="stroke:#000000; stroke-linecap:round; stroke-linejoin:round; stroke-width:4; stroke-opacity:1; fill:none" points="
  2643.64,1245.04 2643.64,1226.14 
  "/>
<path clip-path="url(#clip360)" d="M487.134 1293.8 Q479.009 1293.8 474.895 1301.82 Q470.832 1309.79 470.832 1325.83 Q470.832 1341.82 474.895 1349.84 Q479.009 1357.81 487.134 1357.81 Q495.311 1357.81 499.374 1349.84 Q503.488 1341.82 503.488 1325.83 Q503.488 1309.79 499.374 1301.82 Q495.311 1293.8 487.134 1293.8 M487.134 1285.47 Q500.207 1285.47 507.082 1295.83 Q514.009 1306.15 514.009 1325.83 Q514.009 1345.47 507.082 1355.83 Q500.207 1366.15 487.134 1366.15 Q474.061 1366.15 467.134 1355.83 Q460.259 1345.47 460.259 1325.83 Q460.259 1306.15 467.134 1295.83 Q474.061 1285.47 487.134 1285.47 Z" fill="#000000" fill-rule="evenodd" fill-opacity="1" /><path clip-path="url(#clip360)" d="M827.576 1286.88 L868.878 1286.88 L868.878 1295.73 L837.211 1295.73 L837.211 1314.79 Q839.503 1314.01 841.794 1313.65 Q844.086 1313.23 846.378 1313.23 Q859.399 1313.23 867.003 1320.37 Q874.607 1327.5 874.607 1339.69 Q874.607 1352.24 866.794 1359.22 Q858.982 1366.15 844.763 1366.15 Q839.867 1366.15 834.763 1365.31 Q829.711 1364.48 824.295 1362.81 L824.295 1352.24 Q828.982 1354.79 833.982 1356.04 Q838.982 1357.29 844.555 1357.29 Q853.565 1357.29 858.826 1352.55 Q864.086 1347.81 864.086 1339.69 Q864.086 1331.56 858.826 1326.82 Q853.565 1322.08 844.555 1322.08 Q840.336 1322.08 836.117 1323.02 Q831.951 1323.96 827.576 1325.94 L827.576 1286.88 Z" fill="#000000" fill-rule="evenodd" fill-opacity="1" /><path clip-path="url(#clip360)" d="M917.836 1293.8 Q909.711 1293.8 905.596 1301.82 Q901.534 1309.79 901.534 1325.83 Q901.534 1341.82 905.596 1349.84 Q909.711 1357.81 917.836 1357.81 Q926.013 1357.81 930.075 1349.84 Q934.19 1341.82 934.19 1325.83 Q934.19 1309.79 930.075 1301.82 Q926.013 1293.8 917.836 1293.8 M917.836 1285.47 Q930.909 1285.47 937.784 1295.83 Q944.711 1306.15 944.711 1325.83 Q944.711 1345.47 937.784 1355.83 Q930.909 1366.15 917.836 1366.15 Q904.763 1366.15 897.836 1355.83 Q890.961 1345.47 890.961 1325.83 Q890.961 1306.15 897.836 1295.83 Q904.763 1285.47 917.836 1285.47 Z" fill="#000000" fill-rule="evenodd" fill-opacity="1" /><path clip-path="url(#clip360)" d="M985.7 1293.8 Q977.575 1293.8 973.46 1301.82 Q969.398 1309.79 969.398 1325.83 Q969.398 1341.82 973.46 1349.84 Q977.575 1357.81 985.7 1357.81 Q993.877 1357.81 997.939 1349.84 Q1002.05 1341.82 1002.05 1325.83 Q1002.05 1309.79 997.939 1301.82 Q993.877 1293.8 985.7 1293.8 M985.7 1285.47 Q998.773 1285.47 1005.65 1295.83 Q1012.57 1306.15 1012.57 1325.83 Q1012.57 1345.47 1005.65 1355.83 Q998.773 1366.15 985.7 1366.15 Q972.627 1366.15 965.7 1355.83 Q958.825 1345.47 958.825 1325.83 Q958.825 1306.15 965.7 1295.83 Q972.627 1285.47 985.7 1285.47 Z" fill="#000000" fill-rule="evenodd" fill-opacity="1" /><path clip-path="url(#clip360)" d="M1224.92 1355.78 L1242.11 1355.78 L1242.11 1296.46 L1223.41 1300.21 L1223.41 1290.63 L1242 1286.88 L1252.52 1286.88 L1252.52 1355.78 L1269.71 1355.78 L1269.71 1364.64 L1224.92 1364.64 L1224.92 1355.78 Z" fill="#000000" fill-rule="evenodd" fill-opacity="1" /><path clip-path="url(#clip360)" d="M1313.46 1293.8 Q1305.33 1293.8 1301.22 1301.82 Q1297.16 1309.79 1297.16 1325.83 Q1297.16 1341.82 1301.22 1349.84 Q1305.33 1357.81 1313.46 1357.81 Q1321.64 1357.81 1325.7 1349.84 Q1329.81 1341.82 1329.81 1325.83 Q1329.81 1309.79 1325.7 1301.82 Q1321.64 1293.8 1313.46 1293.8 M1313.46 1285.47 Q1326.53 1285.47 1333.41 1295.83 Q1340.33 1306.15 1340.33 1325.83 Q1340.33 1345.47 1333.41 1355.83 Q1326.53 1366.15 1313.46 1366.15 Q1300.39 1366.15 1293.46 1355.83 Q1286.58 1345.47 1286.58 1325.83 Q1286.58 1306.15 1293.46 1295.83 Q1300.39 1285.47 1313.46 1285.47 Z" fill="#000000" fill-rule="evenodd" fill-opacity="1" /><path clip-path="url(#clip360)" d="M1381.32 1293.8 Q1373.2 1293.8 1369.08 1301.82 Q1365.02 1309.79 1365.02 1325.83 Q1365.02 1341.82 1369.08 1349.84 Q1373.2 1357.81 1381.32 1357.81 Q1389.5 1357.81 1393.56 1349.84 Q1397.68 1341.82 1397.68 1325.83 Q1397.68 1309.79 1393.56 1301.82 Q1389.5 1293.8 1381.32 1293.8 M1381.32 1285.47 Q1394.4 1285.47 1401.27 1295.83 Q1408.2 1306.15 1408.2 1325.83 Q1408.2 1345.47 1401.27 1355.83 Q1394.4 1366.15 1381.32 1366.15 Q1368.25 1366.15 1361.32 1355.83 Q1354.45 1345.47 1354.45 1325.83 Q1354.45 1306.15 1361.32 1295.83 Q1368.25 1285.47 1381.32 1285.47 Z" fill="#000000" fill-rule="evenodd" fill-opacity="1" /><path clip-path="url(#clip360)" d="M1449.19 1293.8 Q1441.06 1293.8 1436.95 1301.82 Q1432.89 1309.79 1432.89 1325.83 Q1432.89 1341.82 1436.95 1349.84 Q1441.06 1357.81 1449.19 1357.81 Q1457.36 1357.81 1461.43 1349.84 Q1465.54 1341.82 1465.54 1325.83 Q1465.54 1309.79 1461.43 1301.82 Q1457.36 1293.8 1449.19 1293.8 M1449.19 1285.47 Q1462.26 1285.47 1469.14 1295.83 Q1476.06 1306.15 1476.06 1325.83 Q1476.06 1345.47 1469.14 1355.83 Q1462.26 1366.15 1449.19 1366.15 Q1436.11 1366.15 1429.19 1355.83 Q1422.31 1345.47 1422.31 1325.83 Q1422.31 1306.15 1429.19 1295.83 Q1436.11 1285.47 1449.19 1285.47 Z" fill="#000000" fill-rule="evenodd" fill-opacity="1" /><path clip-path="url(#clip360)" d="M1656.22 1355.78 L1673.41 1355.78 L1673.41 1296.46 L1654.71 1300.21 L1654.71 1290.63 L1673.3 1286.88 L1683.82 1286.88 L1683.82 1355.78 L1701.01 1355.78 L1701.01 1364.64 L1656.22 1364.64 L1656.22 1355.78 Z" fill="#000000" fill-rule="evenodd" fill-opacity="1" /><path clip-path="url(#clip360)" d="M1722.36 1286.88 L1763.67 1286.88 L1763.67 1295.73 L1732 1295.73 L1732 1314.79 Q1734.29 1314.01 1736.58 1313.65 Q1738.87 1313.23 1741.17 1313.23 Q1754.19 1313.23 1761.79 1320.37 Q1769.4 1327.5 1769.4 1339.69 Q1769.4 1352.24 1761.58 1359.22 Q1753.77 1366.15 1739.55 1366.15 Q1734.66 1366.15 1729.55 1365.31 Q1724.5 1364.48 1719.08 1362.81 L1719.08 1352.24 Q1723.77 1354.79 1728.77 1356.04 Q1733.77 1357.29 1739.34 1357.29 Q1748.35 1357.29 1753.61 1352.55 Q1758.87 1347.81 1758.87 1339.69 Q1758.87 1331.56 1753.61 1326.82 Q1748.35 1322.08 1739.34 1322.08 Q1735.12 1322.08 1730.91 1323.02 Q1726.74 1323.96 1722.36 1325.94 L1722.36 1286.88 Z" fill="#000000" fill-rule="evenodd" fill-opacity="1" /><path clip-path="url(#clip360)" d="M1812.62 1293.8 Q1804.5 1293.8 1800.38 1301.82 Q1796.32 1309.79 1796.32 1325.83 Q1796.32 1341.82 1800.38 1349.84 Q1804.5 1357.81 1812.62 1357.81 Q1820.8 1357.81 1824.86 1349.84 Q1828.98 1341.82 1828.98 1325.83 Q1828.98 1309.79 1824.86 1301.82 Q1820.8 1293.8 1812.62 1293.8 M1812.62 1285.47 Q1825.7 1285.47 1832.57 1295.83 Q1839.5 1306.15 1839.5 1325.83 Q1839.5 1345.47 1832.57 1355.83 Q1825.7 1366.15 1812.62 1366.15 Q1799.55 1366.15 1792.62 1355.83 Q1785.75 1345.47 1785.75 1325.83 Q1785.75 1306.15 1792.62 1295.83 Q1799.55 1285.47 1812.62 1285.47 Z" fill="#000000" fill-rule="evenodd" fill-opacity="1" /><path clip-path="url(#clip360)" d="M1880.49 1293.8 Q1872.36 1293.8 1868.25 1301.82 Q1864.19 1309.79 1864.19 1325.83 Q1864.19 1341.82 1868.25 1349.84 Q1872.36 1357.81 1880.49 1357.81 Q1888.67 1357.81 1892.73 1349.84 Q1896.84 1341.82 1896.84 1325.83 Q1896.84 1309.79 1892.73 1301.82 Q1888.67 1293.8 1880.49 1293.8 M1880.49 1285.47 Q1893.56 1285.47 1900.44 1295.83 Q1907.36 1306.15 1907.36 1325.83 Q1907.36 1345.47 1900.44 1355.83 Q1893.56 1366.15 1880.49 1366.15 Q1867.42 1366.15 1860.49 1355.83 Q1853.61 1345.47 1853.61 1325.83 Q1853.61 1306.15 1860.49 1295.83 Q1867.42 1285.47 1880.49 1285.47 Z" fill="#000000" fill-rule="evenodd" fill-opacity="1" /><path clip-path="url(#clip360)" d="M2096.71 1355.78 L2133.43 1355.78 L2133.43 1364.64 L2084.06 1364.64 L2084.06 1355.78 Q2090.05 1349.58 2100.36 1339.17 Q2110.72 1328.7 2113.38 1325.68 Q2118.43 1320 2120.41 1316.09 Q2122.44 1312.14 2122.44 1308.33 Q2122.44 1302.14 2118.07 1298.23 Q2113.74 1294.32 2106.76 1294.32 Q2101.82 1294.32 2096.3 1296.04 Q2090.83 1297.76 2084.58 1301.25 L2084.58 1290.63 Q2090.93 1288.07 2096.45 1286.77 Q2101.97 1285.47 2106.56 1285.47 Q2118.64 1285.47 2125.83 1291.51 Q2133.01 1297.55 2133.01 1307.66 Q2133.01 1312.45 2131.19 1316.77 Q2129.42 1321.04 2124.68 1326.88 Q2123.38 1328.39 2116.4 1335.63 Q2109.42 1342.81 2096.71 1355.78 Z" fill="#000000" fill-rule="evenodd" fill-opacity="1" /><path clip-path="url(#clip360)" d="M2178.01 1293.8 Q2169.89 1293.8 2165.77 1301.82 Q2161.71 1309.79 2161.71 1325.83 Q2161.71 1341.82 2165.77 1349.84 Q2169.89 1357.81 2178.01 1357.81 Q2186.19 1357.81 2190.25 1349.84 Q2194.37 1341.82 2194.37 1325.83 Q2194.37 1309.79 2190.25 1301.82 Q2186.19 1293.8 2178.01 1293.8 M2178.01 1285.47 Q2191.09 1285.47 2197.96 1295.83 Q2204.89 1306.15 2204.89 1325.83 Q2204.89 1345.47 2197.96 1355.83 Q2191.09 1366.15 2178.01 1366.15 Q2164.94 1366.15 2158.01 1355.83 Q2151.14 1345.47 2151.14 1325.83 Q2151.14 1306.15 2158.01 1295.83 Q2164.94 1285.47 2178.01 1285.47 Z" fill="#000000" fill-rule="evenodd" fill-opacity="1" /><path clip-path="url(#clip360)" d="M2245.88 1293.8 Q2237.75 1293.8 2233.64 1301.82 Q2229.58 1309.79 2229.58 1325.83 Q2229.58 1341.82 2233.64 1349.84 Q2237.75 1357.81 2245.88 1357.81 Q2254.05 1357.81 2258.12 1349.84 Q2262.23 1341.82 2262.23 1325.83 Q2262.23 1309.79 2258.12 1301.82 Q2254.05 1293.8 2245.88 1293.8 M2245.88 1285.47 Q2258.95 1285.47 2265.83 1295.83 Q2272.75 1306.15 2272.75 1325.83 Q2272.75 1345.47 2265.83 1355.83 Q2258.95 1366.15 2245.88 1366.15 Q2232.8 1366.15 2225.88 1355.83 Q2219 1345.47 2219 1325.83 Q2219 1306.15 2225.88 1295.83 Q2232.8 1285.47 2245.88 1285.47 Z" fill="#000000" fill-rule="evenodd" fill-opacity="1" /><path clip-path="url(#clip360)" d="M2313.74 1293.8 Q2305.62 1293.8 2301.5 1301.82 Q2297.44 1309.79 2297.44 1325.83 Q2297.44 1341.82 2301.5 1349.84 Q2305.62 1357.81 2313.74 1357.81 Q2321.92 1357.81 2325.98 1349.84 Q2330.1 1341.82 2330.1 1325.83 Q2330.1 1309.79 2325.98 1301.82 Q2321.92 1293.8 2313.74 1293.8 M2313.74 1285.47 Q2326.81 1285.47 2333.69 1295.83 Q2340.62 1306.15 2340.62 1325.83 Q2340.62 1345.47 2333.69 1355.83 Q2326.81 1366.15 2313.74 1366.15 Q2300.67 1366.15 2293.74 1355.83 Q2286.87 1345.47 2286.87 1325.83 Q2286.87 1306.15 2293.74 1295.83 Q2300.67 1285.47 2313.74 1285.47 Z" fill="#000000" fill-rule="evenodd" fill-opacity="1" /><path clip-path="url(#clip360)" d="M2528.01 1355.78 L2564.73 1355.78 L2564.73 1364.64 L2515.36 1364.64 L2515.36 1355.78 Q2521.35 1349.58 2531.66 1339.17 Q2542.02 1328.7 2544.68 1325.68 Q2549.73 1320 2551.71 1316.09 Q2553.74 1312.14 2553.74 1308.33 Q2553.74 1302.14 2549.37 1298.23 Q2545.04 1294.32 2538.06 1294.32 Q2533.12 1294.32 2527.6 1296.04 Q2522.13 1297.76 2515.88 1301.25 L2515.88 1290.63 Q2522.23 1288.07 2527.75 1286.77 Q2533.27 1285.47 2537.86 1285.47 Q2549.94 1285.47 2557.13 1291.51 Q2564.31 1297.55 2564.31 1307.66 Q2564.31 1312.45 2562.49 1316.77 Q2560.72 1321.04 2555.98 1326.88 Q2554.68 1328.39 2547.7 1335.63 Q2540.72 1342.81 2528.01 1355.78 Z" fill="#000000" fill-rule="evenodd" fill-opacity="1" /><path clip-path="url(#clip360)" d="M2586.92 1286.88 L2628.22 1286.88 L2628.22 1295.73 L2596.55 1295.73 L2596.55 1314.79 Q2598.85 1314.01 2601.14 1313.65 Q2603.43 1313.23 2605.72 1313.23 Q2618.74 1313.23 2626.35 1320.37 Q2633.95 1327.5 2633.95 1339.69 Q2633.95 1352.24 2626.14 1359.22 Q2618.32 1366.15 2604.11 1366.15 Q2599.21 1366.15 2594.11 1365.31 Q2589.05 1364.48 2583.64 1362.81 L2583.64 1352.24 Q2588.32 1354.79 2593.32 1356.04 Q2598.32 1357.29 2603.9 1357.29 Q2612.91 1357.29 2618.17 1352.55 Q2623.43 1347.81 2623.43 1339.69 Q2623.43 1331.56 2618.17 1326.82 Q2612.91 1322.08 2603.9 1322.08 Q2599.68 1322.08 2595.46 1323.02 Q2591.29 1323.96 2586.92 1325.94 L2586.92 1286.88 Z" fill="#000000" fill-rule="evenodd" fill-opacity="1" /><path clip-path="url(#clip360)" d="M2677.18 1293.8 Q2669.05 1293.8 2664.94 1301.82 Q2660.88 1309.79 2660.88 1325.83 Q2660.88 1341.82 2664.94 1349.84 Q2669.05 1357.81 2677.18 1357.81 Q2685.36 1357.81 2689.42 1349.84 Q2693.53 1341.82 2693.53 1325.83 Q2693.53 1309.79 2689.42 1301.82 Q2685.36 1293.8 2677.18 1293.8 M2677.18 1285.47 Q2690.25 1285.47 2697.13 1295.83 Q2704.05 1306.15 2704.05 1325.83 Q2704.05 1345.47 2697.13 1355.83 Q2690.25 1366.15 2677.18 1366.15 Q2664.11 1366.15 2657.18 1355.83 Q2650.3 1345.47 2650.3 1325.83 Q2650.3 1306.15 2657.18 1295.83 Q2664.11 1285.47 2677.18 1285.47 Z" fill="#000000" fill-rule="evenodd" fill-opacity="1" /><path clip-path="url(#clip360)" d="M2745.04 1293.8 Q2736.92 1293.8 2732.8 1301.82 Q2728.74 1309.79 2728.74 1325.83 Q2728.74 1341.82 2732.8 1349.84 Q2736.92 1357.81 2745.04 1357.81 Q2753.22 1357.81 2757.28 1349.84 Q2761.4 1341.82 2761.4 1325.83 Q2761.4 1309.79 2757.28 1301.82 Q2753.22 1293.8 2745.04 1293.8 M2745.04 1285.47 Q2758.12 1285.47 2764.99 1295.83 Q2771.92 1306.15 2771.92 1325.83 Q2771.92 1345.47 2764.99 1355.83 Q2758.12 1366.15 2745.04 1366.15 Q2731.97 1366.15 2725.04 1355.83 Q2718.17 1345.47 2718.17 1325.83 Q2718.17 1306.15 2725.04 1295.83 Q2731.97 1285.47 2745.04 1285.47 Z" fill="#000000" fill-rule="evenodd" fill-opacity="1" /><path clip-path="url(#clip360)" d="M1337.98 1420.43 L1337.98 1429.06 Q1333.85 1425.21 1329.15 1423.31 Q1324.49 1421.4 1319.23 1421.4 Q1308.86 1421.4 1303.35 1427.76 Q1297.84 1434.08 1297.84 1446.07 Q1297.84 1458.02 1303.35 1464.38 Q1308.86 1470.7 1319.23 1470.7 Q1324.49 1470.7 1329.15 1468.8 Q1333.85 1466.89 1337.98 1463.05 L1337.98 1471.59 Q1333.69 1474.51 1328.87 1475.97 Q1324.09 1477.43 1318.74 1477.43 Q1305.01 1477.43 1297.11 1469.04 Q1289.21 1460.62 1289.21 1446.07 Q1289.21 1431.49 1297.11 1423.1 Q1305.01 1414.68 1318.74 1414.68 Q1324.17 1414.68 1328.95 1416.14 Q1333.77 1417.55 1337.98 1420.43 Z" fill="#000000" fill-rule="evenodd" fill-opacity="1" /><path clip-path="url(#clip360)" d="M1370.92 1453.45 Q1361.88 1453.45 1358.4 1455.51 Q1354.91 1457.58 1354.91 1462.56 Q1354.91 1466.53 1357.51 1468.88 Q1360.14 1471.19 1364.64 1471.19 Q1370.83 1471.19 1374.56 1466.81 Q1378.33 1462.4 1378.33 1455.11 L1378.33 1453.45 L1370.92 1453.45 M1385.78 1450.37 L1385.78 1476.25 L1378.33 1476.25 L1378.33 1469.37 Q1375.78 1473.5 1371.97 1475.48 Q1368.16 1477.43 1362.65 1477.43 Q1355.68 1477.43 1351.55 1473.54 Q1347.46 1469.61 1347.46 1463.05 Q1347.46 1455.39 1352.57 1451.5 Q1357.71 1447.61 1367.88 1447.61 L1378.33 1447.61 L1378.33 1446.88 Q1378.33 1441.74 1374.93 1438.94 Q1371.56 1436.11 1365.45 1436.11 Q1361.56 1436.11 1357.87 1437.04 Q1354.19 1437.97 1350.78 1439.83 L1350.78 1432.95 Q1354.87 1431.37 1358.72 1430.6 Q1362.57 1429.79 1366.22 1429.79 Q1376.06 1429.79 1380.92 1434.89 Q1385.78 1440 1385.78 1450.37 Z" fill="#000000" fill-rule="evenodd" fill-opacity="1" /><path clip-path="url(#clip360)" d="M1408.35 1469.45 L1408.35 1493.51 L1400.85 1493.51 L1400.85 1430.88 L1408.35 1430.88 L1408.35 1437.77 Q1410.7 1433.72 1414.26 1431.77 Q1417.87 1429.79 1422.85 1429.79 Q1431.11 1429.79 1436.26 1436.35 Q1441.44 1442.91 1441.44 1453.61 Q1441.44 1464.3 1436.26 1470.86 Q1431.11 1477.43 1422.85 1477.43 Q1417.87 1477.43 1414.26 1475.48 Q1410.7 1473.5 1408.35 1469.45 M1433.7 1453.61 Q1433.7 1445.38 1430.3 1440.73 Q1426.94 1436.03 1421.03 1436.03 Q1415.11 1436.03 1411.71 1440.73 Q1408.35 1445.38 1408.35 1453.61 Q1408.35 1461.83 1411.71 1466.53 Q1415.11 1471.19 1421.03 1471.19 Q1426.94 1471.19 1430.3 1466.53 Q1433.7 1461.83 1433.7 1453.61 Z" fill="#000000" fill-rule="evenodd" fill-opacity="1" /><path clip-path="url(#clip360)" d="M1474.42 1453.45 Q1465.38 1453.45 1461.9 1455.51 Q1458.42 1457.58 1458.42 1462.56 Q1458.42 1466.53 1461.01 1468.88 Q1463.64 1471.19 1468.14 1471.19 Q1474.34 1471.19 1478.06 1466.81 Q1481.83 1462.4 1481.83 1455.11 L1481.83 1453.45 L1474.42 1453.45 M1489.28 1450.37 L1489.28 1476.25 L1481.83 1476.25 L1481.83 1469.37 Q1479.28 1473.5 1475.47 1475.48 Q1471.66 1477.43 1466.15 1477.43 Q1459.18 1477.43 1455.05 1473.54 Q1450.96 1469.61 1450.96 1463.05 Q1450.96 1455.39 1456.07 1451.5 Q1461.21 1447.61 1471.38 1447.61 L1481.83 1447.61 L1481.83 1446.88 Q1481.83 1441.74 1478.43 1438.94 Q1475.06 1436.11 1468.95 1436.11 Q1465.06 1436.11 1461.37 1437.04 Q1457.69 1437.97 1454.28 1439.83 L1454.28 1432.95 Q1458.37 1431.37 1462.22 1430.6 Q1466.07 1429.79 1469.72 1429.79 Q1479.56 1429.79 1484.42 1434.89 Q1489.28 1440 1489.28 1450.37 Z" fill="#000000" fill-rule="evenodd" fill-opacity="1" /><path clip-path="url(#clip360)" d="M1537.29 1432.62 L1537.29 1439.59 Q1534.13 1437.85 1530.93 1437 Q1527.77 1436.11 1524.53 1436.11 Q1517.27 1436.11 1513.26 1440.73 Q1509.25 1445.3 1509.25 1453.61 Q1509.25 1461.91 1513.26 1466.53 Q1517.27 1471.11 1524.53 1471.11 Q1527.77 1471.11 1530.93 1470.26 Q1534.13 1469.37 1537.29 1467.62 L1537.29 1474.51 Q1534.17 1475.97 1530.8 1476.7 Q1527.48 1477.43 1523.72 1477.43 Q1513.47 1477.43 1507.43 1470.99 Q1501.4 1464.55 1501.4 1453.61 Q1501.4 1442.51 1507.47 1436.15 Q1513.59 1429.79 1524.2 1429.79 Q1527.65 1429.79 1530.93 1430.52 Q1534.21 1431.21 1537.29 1432.62 Z" fill="#000000" fill-rule="evenodd" fill-opacity="1" /><path clip-path="url(#clip360)" d="M1550.25 1430.88 L1557.7 1430.88 L1557.7 1476.25 L1550.25 1476.25 L1550.25 1430.88 M1550.25 1413.22 L1557.7 1413.22 L1557.7 1422.66 L1550.25 1422.66 L1550.25 1413.22 Z" fill="#000000" fill-rule="evenodd" fill-opacity="1" /><path clip-path="url(#clip360)" d="M1580.67 1418 L1580.67 1430.88 L1596.02 1430.88 L1596.02 1436.67 L1580.67 1436.67 L1580.67 1461.3 Q1580.67 1466.85 1582.17 1468.43 Q1583.71 1470.01 1588.37 1470.01 L1596.02 1470.01 L1596.02 1476.25 L1588.37 1476.25 Q1579.74 1476.25 1576.46 1473.05 Q1573.18 1469.81 1573.18 1461.3 L1573.18 1436.67 L1567.71 1436.67 L1567.71 1430.88 L1573.18 1430.88 L1573.18 1418 L1580.67 1418 Z" fill="#000000" fill-rule="evenodd" fill-opacity="1" /><path clip-path="url(#clip360)" d="M1624.7 1480.47 Q1621.55 1488.57 1618.55 1491.04 Q1615.55 1493.51 1610.53 1493.51 L1604.57 1493.51 L1604.57 1487.27 L1608.95 1487.27 Q1612.03 1487.27 1613.73 1485.81 Q1615.43 1484.35 1617.49 1478.93 L1618.83 1475.52 L1600.48 1430.88 L1608.38 1430.88 L1622.56 1466.37 L1636.74 1430.88 L1644.64 1430.88 L1624.7 1480.47 Z" fill="#000000" fill-rule="evenodd" fill-opacity="1" /><path clip-path="url(#clip360)" d="M1699.2 1413.3 Q1693.77 1422.62 1691.14 1431.73 Q1688.51 1440.85 1688.51 1450.2 Q1688.51 1459.56 1691.14 1468.76 Q1693.81 1477.91 1699.2 1487.19 L1692.72 1487.19 Q1686.64 1477.67 1683.61 1468.47 Q1680.61 1459.28 1680.61 1450.2 Q1680.61 1441.17 1683.61 1432.02 Q1686.6 1422.86 1692.72 1413.3 L1699.2 1413.3 Z" fill="#000000" fill-rule="evenodd" fill-opacity="1" /><path clip-path="url(#clip360)" d="M1713.99 1415.77 L1726.18 1415.77 L1741.61 1456.93 L1757.13 1415.77 L1769.32 1415.77 L1769.32 1476.25 L1761.34 1476.25 L1761.34 1423.14 L1745.75 1464.63 L1737.52 1464.63 L1721.93 1423.14 L1721.93 1476.25 L1713.99 1476.25 L1713.99 1415.77 Z" fill="#000000" fill-rule="evenodd" fill-opacity="1" /><path clip-path="url(#clip360)" d="M1780.18 1415.77 L1788.44 1415.77 L1801.16 1466.89 L1813.84 1415.77 L1823.04 1415.77 L1835.76 1466.89 L1848.44 1415.77 L1856.74 1415.77 L1841.55 1476.25 L1831.26 1476.25 L1818.5 1423.75 L1805.62 1476.25 L1795.33 1476.25 L1780.18 1415.77 Z" fill="#000000" fill-rule="evenodd" fill-opacity="1" /><path clip-path="url(#clip360)" d="M1866.1 1413.3 L1872.58 1413.3 Q1878.66 1422.86 1881.65 1432.02 Q1884.69 1441.17 1884.69 1450.2 Q1884.69 1459.28 1881.65 1468.47 Q1878.66 1477.67 1872.58 1487.19 L1866.1 1487.19 Q1871.49 1477.91 1874.12 1468.76 Q1876.79 1459.56 1876.79 1450.2 Q1876.79 1440.85 1874.12 1431.73 Q1871.49 1422.62 1866.1 1413.3 Z" fill="#000000" fill-rule="evenodd" fill-opacity="1" /><polyline clip-path="url(#clip360)" style="stroke:#000000; stroke-linecap:round; stroke-linejoin:round; stroke-width:4; stroke-opacity:1; fill:none" points="
  421.145,1245.04 421.145,174.078 
  "/>
<polyline clip-path="url(#clip360)" style="stroke:#000000; stroke-linecap:round; stroke-linejoin:round; stroke-width:4; stroke-opacity:1; fill:none" points="
  421.145,1214.73 440.043,1214.73 
  "/>
<polyline clip-path="url(#clip360)" style="stroke:#000000; stroke-linecap:round; stroke-linejoin:round; stroke-width:4; stroke-opacity:1; fill:none" points="
  421.145,995.087 440.043,995.087 
  "/>
<polyline clip-path="url(#clip360)" style="stroke:#000000; stroke-linecap:round; stroke-linejoin:round; stroke-width:4; stroke-opacity:1; fill:none" points="
  421.145,775.449 440.043,775.449 
  "/>
<polyline clip-path="url(#clip360)" style="stroke:#000000; stroke-linecap:round; stroke-linejoin:round; stroke-width:4; stroke-opacity:1; fill:none" points="
  421.145,555.81 440.043,555.81 
  "/>
<polyline clip-path="url(#clip360)" style="stroke:#000000; stroke-linecap:round; stroke-linejoin:round; stroke-width:4; stroke-opacity:1; fill:none" points="
  421.145,336.171 440.043,336.171 
  "/>
<path clip-path="url(#clip360)" d="M352.27 1182.77 Q344.145 1182.77 340.031 1190.79 Q335.968 1198.76 335.968 1214.8 Q335.968 1230.79 340.031 1238.81 Q344.145 1246.78 352.27 1246.78 Q360.447 1246.78 364.51 1238.81 Q368.624 1230.79 368.624 1214.8 Q368.624 1198.76 364.51 1190.79 Q360.447 1182.77 352.27 1182.77 M352.27 1174.44 Q365.343 1174.44 372.218 1184.8 Q379.145 1195.12 379.145 1214.8 Q379.145 1234.44 372.218 1244.8 Q365.343 1255.12 352.27 1255.12 Q339.197 1255.12 332.27 1244.8 Q325.395 1234.44 325.395 1214.8 Q325.395 1195.12 332.27 1184.8 Q339.197 1174.44 352.27 1174.44 Z" fill="#000000" fill-rule="evenodd" fill-opacity="1" /><path clip-path="url(#clip360)" d="M332.114 956.207 L373.416 956.207 L373.416 965.061 L341.749 965.061 L341.749 984.124 Q344.041 983.343 346.333 982.978 Q348.624 982.561 350.916 982.561 Q363.937 982.561 371.541 989.697 Q379.145 996.832 379.145 1009.02 Q379.145 1021.57 371.333 1028.55 Q363.52 1035.48 349.302 1035.48 Q344.406 1035.48 339.302 1034.64 Q334.25 1033.81 328.833 1032.14 L328.833 1021.57 Q333.52 1024.12 338.52 1025.37 Q343.52 1026.62 349.093 1026.62 Q358.104 1026.62 363.364 1021.88 Q368.624 1017.14 368.624 1009.02 Q368.624 1000.89 363.364 996.155 Q358.104 991.415 349.093 991.415 Q344.874 991.415 340.656 992.353 Q336.489 993.29 332.114 995.27 L332.114 956.207 Z" fill="#000000" fill-rule="evenodd" fill-opacity="1" /><path clip-path="url(#clip360)" d="M263.729 805.474 L280.916 805.474 L280.916 746.152 L262.219 749.902 L262.219 740.319 L280.812 736.569 L291.333 736.569 L291.333 805.474 L308.521 805.474 L308.521 814.329 L263.729 814.329 L263.729 805.474 Z" fill="#000000" fill-rule="evenodd" fill-opacity="1" /><path clip-path="url(#clip360)" d="M352.27 743.496 Q344.145 743.496 340.031 751.516 Q335.968 759.485 335.968 775.527 Q335.968 791.516 340.031 799.537 Q344.145 807.506 352.27 807.506 Q360.447 807.506 364.51 799.537 Q368.624 791.516 368.624 775.527 Q368.624 759.485 364.51 751.516 Q360.447 743.496 352.27 743.496 M352.27 735.162 Q365.343 735.162 372.218 745.527 Q379.145 755.839 379.145 775.527 Q379.145 795.162 372.218 805.527 Q365.343 815.839 352.27 815.839 Q339.197 815.839 332.27 805.527 Q325.395 795.162 325.395 775.527 Q325.395 755.839 332.27 745.527 Q339.197 735.162 352.27 735.162 Z" fill="#000000" fill-rule="evenodd" fill-opacity="1" /><path clip-path="url(#clip360)" d="M265.969 585.836 L283.156 585.836 L283.156 526.513 L264.458 530.263 L264.458 520.68 L283.052 516.93 L293.573 516.93 L293.573 585.836 L310.76 585.836 L310.76 594.69 L265.969 594.69 L265.969 585.836 Z" fill="#000000" fill-rule="evenodd" fill-opacity="1" /><path clip-path="url(#clip360)" d="M332.114 516.93 L373.416 516.93 L373.416 525.784 L341.749 525.784 L341.749 544.846 Q344.041 544.065 346.333 543.701 Q348.624 543.284 350.916 543.284 Q363.937 543.284 371.541 550.419 Q379.145 557.555 379.145 569.742 Q379.145 582.294 371.333 589.273 Q363.52 596.2 349.302 596.2 Q344.406 596.2 339.302 595.367 Q334.25 594.534 328.833 592.867 L328.833 582.294 Q333.52 584.846 338.52 586.096 Q343.52 587.346 349.093 587.346 Q358.104 587.346 363.364 582.607 Q368.624 577.867 368.624 569.742 Q368.624 561.617 363.364 556.878 Q358.104 552.138 349.093 552.138 Q344.874 552.138 340.656 553.076 Q336.489 554.013 332.114 555.992 L332.114 516.93 Z" fill="#000000" fill-rule="evenodd" fill-opacity="1" /><path clip-path="url(#clip360)" d="M270.969 366.197 L307.687 366.197 L307.687 375.051 L258.312 375.051 L258.312 366.197 Q264.302 359.999 274.614 349.583 Q284.979 339.114 287.635 336.093 Q292.687 330.416 294.666 326.51 Q296.698 322.551 296.698 318.749 Q296.698 312.552 292.323 308.645 Q288 304.739 281.021 304.739 Q276.073 304.739 270.552 306.458 Q265.083 308.177 258.833 311.666 L258.833 301.041 Q265.187 298.489 270.708 297.187 Q276.229 295.885 280.812 295.885 Q292.896 295.885 300.083 301.927 Q307.271 307.968 307.271 318.072 Q307.271 322.864 305.448 327.187 Q303.677 331.458 298.937 337.291 Q297.635 338.801 290.656 346.041 Q283.677 353.228 270.969 366.197 Z" fill="#000000" fill-rule="evenodd" fill-opacity="1" /><path clip-path="url(#clip360)" d="M352.27 304.218 Q344.145 304.218 340.031 312.239 Q335.968 320.208 335.968 336.249 Q335.968 352.239 340.031 360.26 Q344.145 368.228 352.27 368.228 Q360.447 368.228 364.51 360.26 Q368.624 352.239 368.624 336.249 Q368.624 320.208 364.51 312.239 Q360.447 304.218 352.27 304.218 M352.27 295.885 Q365.343 295.885 372.218 306.249 Q379.145 316.562 379.145 336.249 Q379.145 355.885 372.218 366.249 Q365.343 376.562 352.27 376.562 Q339.197 376.562 332.27 366.249 Q325.395 355.885 325.395 336.249 Q325.395 316.562 332.27 306.249 Q339.197 295.885 352.27 295.885 Z" fill="#000000" fill-rule="evenodd" fill-opacity="1" /><path clip-path="url(#clip360)" d="M149.784 1148.68 L149.784 1136.48 L190.942 1121.05 L149.784 1105.53 L149.784 1093.34 L210.264 1093.34 L210.264 1101.32 L157.157 1101.32 L198.638 1116.92 L198.638 1125.14 L157.157 1140.74 L210.264 1140.74 L210.264 1148.68 L149.784 1148.68 Z" fill="#000000" fill-rule="evenodd" fill-opacity="1" /><path clip-path="url(#clip360)" d="M187.458 1056.8 Q187.458 1065.83 189.524 1069.32 Q191.59 1072.8 196.572 1072.8 Q200.542 1072.8 202.892 1070.21 Q205.201 1067.58 205.201 1063.08 Q205.201 1056.88 200.826 1053.15 Q196.41 1049.39 189.119 1049.39 L187.458 1049.39 L187.458 1056.8 M184.379 1041.93 L210.264 1041.93 L210.264 1049.39 L203.378 1049.39 Q207.51 1051.94 209.495 1055.75 Q211.439 1059.56 211.439 1065.06 Q211.439 1072.03 207.55 1076.16 Q203.621 1080.26 197.058 1080.26 Q189.402 1080.26 185.513 1075.15 Q181.625 1070.01 181.625 1059.84 L181.625 1049.39 L180.895 1049.39 Q175.751 1049.39 172.956 1052.79 Q170.12 1056.15 170.12 1062.27 Q170.12 1066.16 171.052 1069.84 Q171.983 1073.53 173.847 1076.93 L166.96 1076.93 Q165.38 1072.84 164.611 1068.99 Q163.801 1065.15 163.801 1061.5 Q163.801 1051.66 168.905 1046.79 Q174.009 1041.93 184.379 1041.93 Z" fill="#000000" fill-rule="evenodd" fill-opacity="1" /><path clip-path="url(#clip360)" d="M171.862 1000.29 Q171.133 1001.55 170.809 1003.04 Q170.444 1004.5 170.444 1006.29 Q170.444 1012.61 174.576 1016.01 Q178.667 1019.37 186.364 1019.37 L210.264 1019.37 L210.264 1026.86 L164.894 1026.86 L164.894 1019.37 L171.943 1019.37 Q167.811 1017.02 165.826 1013.25 Q163.801 1009.49 163.801 1004.1 Q163.801 1003.33 163.922 1002.4 Q164.003 1001.47 164.206 1000.33 L171.862 1000.29 Z" fill="#000000" fill-rule="evenodd" fill-opacity="1" /><path clip-path="url(#clip360)" d="M187.053 964.075 Q178.951 964.075 174.495 967.438 Q170.039 970.759 170.039 976.795 Q170.039 982.79 174.495 986.153 Q178.951 989.474 187.053 989.474 Q195.114 989.474 199.57 986.153 Q204.026 982.79 204.026 976.795 Q204.026 970.759 199.57 967.438 Q195.114 964.075 187.053 964.075 M204.634 956.622 Q216.219 956.622 221.85 961.766 Q227.521 966.911 227.521 977.524 Q227.521 981.454 226.914 984.937 Q226.347 988.421 225.131 991.702 L217.88 991.702 Q219.663 988.421 220.513 985.221 Q221.364 982.021 221.364 978.699 Q221.364 971.367 217.516 967.721 Q213.708 964.075 205.97 964.075 L202.284 964.075 Q206.295 966.384 208.279 969.99 Q210.264 973.595 210.264 978.618 Q210.264 986.963 203.905 992.067 Q197.545 997.171 187.053 997.171 Q176.52 997.171 170.16 992.067 Q163.801 986.963 163.801 978.618 Q163.801 973.595 165.786 969.99 Q167.77 966.384 171.781 964.075 L164.894 964.075 L164.894 956.622 L204.634 956.622 Z" fill="#000000" fill-rule="evenodd" fill-opacity="1" /><path clip-path="url(#clip360)" d="M164.894 941.269 L164.894 933.815 L210.264 933.815 L210.264 941.269 L164.894 941.269 M147.232 941.269 L147.232 933.815 L156.671 933.815 L156.671 941.269 L147.232 941.269 Z" fill="#000000" fill-rule="evenodd" fill-opacity="1" /><path clip-path="url(#clip360)" d="M182.88 880.505 L210.264 880.505 L210.264 887.959 L183.123 887.959 Q176.682 887.959 173.482 890.47 Q170.282 892.982 170.282 898.005 Q170.282 904.041 174.13 907.525 Q177.979 911.008 184.622 911.008 L210.264 911.008 L210.264 918.503 L164.894 918.503 L164.894 911.008 L171.943 911.008 Q167.851 908.335 165.826 904.73 Q163.801 901.084 163.801 896.344 Q163.801 888.526 168.662 884.516 Q173.482 880.505 182.88 880.505 Z" fill="#000000" fill-rule="evenodd" fill-opacity="1" /><path clip-path="url(#clip360)" d="M187.458 845.019 Q187.458 854.053 189.524 857.537 Q191.59 861.02 196.572 861.02 Q200.542 861.02 202.892 858.428 Q205.201 855.795 205.201 851.298 Q205.201 845.1 200.826 841.373 Q196.41 837.606 189.119 837.606 L187.458 837.606 L187.458 845.019 M184.379 830.152 L210.264 830.152 L210.264 837.606 L203.378 837.606 Q207.51 840.158 209.495 843.966 Q211.439 847.774 211.439 853.283 Q211.439 860.251 207.55 864.383 Q203.621 868.474 197.058 868.474 Q189.402 868.474 185.513 863.37 Q181.625 858.225 181.625 848.057 L181.625 837.606 L180.895 837.606 Q175.751 837.606 172.956 841.009 Q170.12 844.371 170.12 850.488 Q170.12 854.377 171.052 858.063 Q171.983 861.749 173.847 865.152 L166.96 865.152 Q165.38 861.061 164.611 857.212 Q163.801 853.364 163.801 849.718 Q163.801 839.875 168.905 835.013 Q174.009 830.152 184.379 830.152 Z" fill="#000000" fill-rule="evenodd" fill-opacity="1" /><path clip-path="url(#clip360)" d="M147.232 814.799 L147.232 807.346 L210.264 807.346 L210.264 814.799 L147.232 814.799 Z" fill="#000000" fill-rule="evenodd" fill-opacity="1" /><path clip-path="url(#clip360)" d="M154.443 719.765 L163.071 719.765 Q159.223 723.897 157.319 728.596 Q155.415 733.255 155.415 738.521 Q155.415 748.891 161.775 754.4 Q168.095 759.91 180.085 759.91 Q192.035 759.91 198.395 754.4 Q204.715 748.891 204.715 738.521 Q204.715 733.255 202.811 728.596 Q200.907 723.897 197.058 719.765 L205.606 719.765 Q208.523 724.059 209.981 728.88 Q211.439 733.66 211.439 739.007 Q211.439 752.74 203.054 760.639 Q194.628 768.538 180.085 768.538 Q165.502 768.538 157.117 760.639 Q148.691 752.74 148.691 739.007 Q148.691 733.579 150.149 728.799 Q151.567 723.978 154.443 719.765 Z" fill="#000000" fill-rule="evenodd" fill-opacity="1" /><path clip-path="url(#clip360)" d="M170.12 689.87 Q170.12 695.865 174.819 699.349 Q179.478 702.832 187.62 702.832 Q195.762 702.832 200.461 699.389 Q205.12 695.905 205.12 689.87 Q205.12 683.915 200.421 680.431 Q195.722 676.947 187.62 676.947 Q179.559 676.947 174.86 680.431 Q170.12 683.915 170.12 689.87 M163.801 689.87 Q163.801 680.147 170.12 674.598 Q176.439 669.048 187.62 669.048 Q198.76 669.048 205.12 674.598 Q211.439 680.147 211.439 689.87 Q211.439 699.632 205.12 705.182 Q198.76 710.691 187.62 710.691 Q176.439 710.691 170.12 705.182 Q163.801 699.632 163.801 689.87 Z" fill="#000000" fill-rule="evenodd" fill-opacity="1" /><path clip-path="url(#clip360)" d="M166.231 627.769 L173.28 627.769 Q171.659 630.929 170.849 634.332 Q170.039 637.734 170.039 641.38 Q170.039 646.93 171.74 649.725 Q173.442 652.48 176.844 652.48 Q179.437 652.48 180.936 650.495 Q182.394 648.51 183.731 642.515 L184.298 639.962 Q186 632.023 189.119 628.701 Q192.197 625.339 197.747 625.339 Q204.067 625.339 207.753 630.362 Q211.439 635.344 211.439 644.094 Q211.439 647.74 210.71 651.71 Q210.021 655.639 208.604 660.014 L200.907 660.014 Q203.054 655.883 204.148 651.872 Q205.201 647.862 205.201 643.932 Q205.201 638.666 203.418 635.831 Q201.596 632.995 198.314 632.995 Q195.276 632.995 193.656 635.061 Q192.035 637.086 190.537 644.013 L189.929 646.606 Q188.471 653.533 185.473 656.612 Q182.435 659.69 177.169 659.69 Q170.768 659.69 167.284 655.153 Q163.801 650.616 163.801 642.271 Q163.801 638.14 164.408 634.494 Q165.016 630.848 166.231 627.769 Z" fill="#000000" fill-rule="evenodd" fill-opacity="1" /><path clip-path="url(#clip360)" d="M152.012 606.097 L164.894 606.097 L164.894 590.744 L170.687 590.744 L170.687 606.097 L195.317 606.097 Q200.866 606.097 202.446 604.598 Q204.026 603.059 204.026 598.4 L204.026 590.744 L210.264 590.744 L210.264 598.4 Q210.264 607.029 207.064 610.31 Q203.824 613.591 195.317 613.591 L170.687 613.591 L170.687 619.06 L164.894 619.06 L164.894 613.591 L152.012 613.591 L152.012 606.097 Z" fill="#000000" fill-rule="evenodd" fill-opacity="1" /><path clip-path="url(#clip360)" d="M147.313 536.664 Q156.63 542.093 165.745 544.726 Q174.86 547.359 184.217 547.359 Q193.575 547.359 202.77 544.726 Q211.925 542.052 221.202 536.664 L221.202 543.146 Q211.682 549.222 202.487 552.26 Q193.291 555.258 184.217 555.258 Q175.184 555.258 166.029 552.26 Q156.874 549.263 147.313 543.146 L147.313 536.664 Z" fill="#000000" fill-rule="evenodd" fill-opacity="1" /><path clip-path="url(#clip360)" d="M222.458 501.989 L222.458 506.04 L210.264 506.08 Q210.183 510.334 209.292 514.587 Q208.361 518.84 206.538 523.134 L199.246 523.134 Q201.839 519.002 203.175 514.79 Q204.472 510.536 204.512 506.04 L186.04 506.04 Q184.582 514.992 181.098 519.083 Q177.614 523.134 171.538 523.134 Q164.935 523.134 161.127 518.719 Q157.319 514.303 156.752 506.04 L147.232 506.04 L147.232 501.989 L156.63 501.989 Q156.793 498.221 157.441 494.697 Q158.048 491.173 159.142 487.81 L166.231 487.81 Q164.53 491.173 163.598 494.738 Q162.666 498.262 162.504 501.989 L179.802 501.989 Q181.219 492.793 184.865 488.459 Q188.511 484.124 194.83 484.124 Q201.677 484.124 205.646 488.742 Q209.576 493.32 210.183 501.989 L222.458 501.989 M179.072 506.04 L162.464 506.04 Q162.99 510.739 165.137 513.21 Q167.284 515.681 170.849 515.681 Q174.333 515.681 176.277 513.412 Q178.222 511.103 179.072 506.04 M186.85 501.989 L204.391 501.989 Q203.702 496.844 201.474 494.251 Q199.246 491.618 195.6 491.618 Q192.035 491.618 189.929 494.13 Q187.822 496.601 186.85 501.989 Z" fill="#000000" fill-rule="evenodd" fill-opacity="1" /><path clip-path="url(#clip360)" d="M149.784 456.173 L149.784 449.286 L217.961 470.351 L217.961 477.238 L149.784 456.173 Z" fill="#000000" fill-rule="evenodd" fill-opacity="1" /><path clip-path="url(#clip360)" d="M149.784 441.144 L149.784 428.951 L190.942 413.517 L149.784 398.002 L149.784 385.809 L210.264 385.809 L210.264 393.789 L157.157 393.789 L198.638 409.385 L198.638 417.608 L157.157 433.204 L210.264 433.204 L210.264 441.144 L149.784 441.144 Z" fill="#000000" fill-rule="evenodd" fill-opacity="1" /><path clip-path="url(#clip360)" d="M149.784 374.952 L149.784 366.688 L200.907 353.969 L149.784 341.289 L149.784 332.094 L200.907 319.374 L149.784 306.695 L149.784 298.39 L210.264 313.581 L210.264 323.87 L157.765 336.631 L210.264 349.513 L210.264 359.802 L149.784 374.952 Z" fill="#000000" fill-rule="evenodd" fill-opacity="1" /><path clip-path="url(#clip360)" d="M147.313 289.033 L147.313 282.551 Q156.874 276.475 166.029 273.477 Q175.184 270.439 184.217 270.439 Q193.291 270.439 202.487 273.477 Q211.682 276.475 221.202 282.551 L221.202 289.033 Q211.925 283.645 202.77 281.012 Q193.575 278.338 184.217 278.338 Q174.86 278.338 165.745 281.012 Q156.63 283.645 147.313 289.033 Z" fill="#000000" fill-rule="evenodd" fill-opacity="1" /><path clip-path="url(#clip360)" d="M331.532 40.3296 L331.532 141.11 L352.712 141.11 Q379.535 141.11 391.948 128.958 Q404.448 116.805 404.448 90.5898 Q404.448 64.5483 391.948 52.4824 Q379.535 40.3296 352.712 40.3296 L331.532 40.3296 M313.997 25.92 L350.021 25.92 Q387.695 25.92 405.316 41.6317 Q422.938 57.2566 422.938 90.5898 Q422.938 124.097 405.229 139.808 Q387.521 155.52 350.021 155.52 L313.997 155.52 L313.997 25.92 Z" fill="#000000" fill-rule="evenodd" fill-opacity="1" /><path clip-path="url(#clip360)" d="M450.194 58.2983 L466.167 58.2983 L466.167 155.52 L450.194 155.52 L450.194 58.2983 M450.194 20.4513 L466.167 20.4513 L466.167 40.6769 L450.194 40.6769 L450.194 20.4513 Z" fill="#000000" fill-rule="evenodd" fill-opacity="1" /><path clip-path="url(#clip360)" d="M561.565 61.1629 L561.565 76.267 Q554.795 72.7947 547.503 71.0586 Q540.211 69.3225 532.399 69.3225 Q520.507 69.3225 514.517 72.9684 Q508.614 76.6142 508.614 83.9058 Q508.614 89.4613 512.868 92.6731 Q517.121 95.7981 529.968 98.6627 L535.437 99.8779 Q552.451 103.524 559.569 110.208 Q566.774 116.805 566.774 128.697 Q566.774 142.239 556.01 150.138 Q545.333 158.037 526.583 158.037 Q518.77 158.037 510.264 156.475 Q501.843 154.999 492.469 151.961 L492.469 135.468 Q501.323 140.069 509.916 142.412 Q518.51 144.669 526.93 144.669 Q538.215 144.669 544.291 140.85 Q550.368 136.944 550.368 129.912 Q550.368 123.402 545.94 119.93 Q541.6 116.458 526.757 113.246 L521.201 111.944 Q506.357 108.819 499.76 102.395 Q493.163 95.8849 493.163 84.6002 Q493.163 70.885 502.885 63.4198 Q512.607 55.9546 530.489 55.9546 Q539.343 55.9546 547.156 57.2566 Q554.968 58.5587 561.565 61.1629 Z" fill="#000000" fill-rule="evenodd" fill-opacity="1" /><path clip-path="url(#clip360)" d="M607.659 140.937 L607.659 192.499 L591.6 192.499 L591.6 58.2983 L607.659 58.2983 L607.659 73.0552 Q612.694 64.3747 620.332 60.208 Q628.058 55.9546 638.735 55.9546 Q656.443 55.9546 667.468 70.017 Q678.579 84.0794 678.579 106.996 Q678.579 129.912 667.468 143.975 Q656.443 158.037 638.735 158.037 Q628.058 158.037 620.332 153.871 Q612.694 149.617 607.659 140.937 M661.999 106.996 Q661.999 89.3745 654.707 79.3919 Q647.502 69.3225 634.829 69.3225 Q622.155 69.3225 614.864 79.3919 Q607.659 89.3745 607.659 106.996 Q607.659 124.617 614.864 134.687 Q622.155 144.669 634.829 144.669 Q647.502 144.669 654.707 134.687 Q661.999 124.617 661.999 106.996 Z" fill="#000000" fill-rule="evenodd" fill-opacity="1" /><path clip-path="url(#clip360)" d="M749.238 106.649 Q729.88 106.649 722.415 111.076 Q714.95 115.503 714.95 126.18 Q714.95 134.687 720.506 139.721 Q726.148 144.669 735.783 144.669 Q749.064 144.669 757.05 135.294 Q765.123 125.833 765.123 110.208 L765.123 106.649 L749.238 106.649 M781.095 100.052 L781.095 155.52 L765.123 155.52 L765.123 140.763 Q759.655 149.617 751.495 153.871 Q743.335 158.037 731.53 158.037 Q716.599 158.037 707.745 149.704 Q698.978 141.284 698.978 127.222 Q698.978 110.815 709.915 102.482 Q720.94 94.1488 742.728 94.1488 L765.123 94.1488 L765.123 92.5863 Q765.123 81.5621 757.832 75.5725 Q750.627 69.4962 737.519 69.4962 Q729.186 69.4962 721.287 71.4927 Q713.387 73.4892 706.096 77.4822 L706.096 62.7254 Q714.863 59.34 723.11 57.6907 Q731.356 55.9546 739.169 55.9546 Q760.262 55.9546 770.679 66.892 Q781.095 77.8294 781.095 100.052 Z" fill="#000000" fill-rule="evenodd" fill-opacity="1" /><path clip-path="url(#clip360)" d="M829.793 30.6943 L829.793 58.2983 L862.692 58.2983 L862.692 70.7114 L829.793 70.7114 L829.793 123.489 Q829.793 135.381 833.005 138.767 Q836.303 142.152 846.286 142.152 L862.692 142.152 L862.692 155.52 L846.286 155.52 Q827.797 155.52 820.765 148.662 Q813.734 141.718 813.734 123.489 L813.734 70.7114 L802.015 70.7114 L802.015 58.2983 L813.734 58.2983 L813.734 30.6943 L829.793 30.6943 Z" fill="#000000" fill-rule="evenodd" fill-opacity="1" /><path clip-path="url(#clip360)" d="M953.664 62.0309 L953.664 76.9614 Q946.893 73.2288 940.036 71.4059 Q933.265 69.4962 926.32 69.4962 Q910.782 69.4962 902.189 79.3919 Q893.595 89.2009 893.595 106.996 Q893.595 124.791 902.189 134.687 Q910.782 144.496 926.32 144.496 Q933.265 144.496 940.036 142.673 Q946.893 140.763 953.664 137.031 L953.664 151.787 Q946.98 154.912 939.775 156.475 Q932.657 158.037 924.584 158.037 Q902.623 158.037 889.689 144.235 Q876.755 130.433 876.755 106.996 Q876.755 83.2114 889.775 69.583 Q902.883 55.9546 925.626 55.9546 Q933.004 55.9546 940.036 57.5171 Q947.067 58.9927 953.664 62.0309 Z" fill="#000000" fill-rule="evenodd" fill-opacity="1" /><path clip-path="url(#clip360)" d="M1062.26 96.8398 L1062.26 155.52 L1046.29 155.52 L1046.29 97.3606 Q1046.29 83.5586 1040.9 76.701 Q1035.52 69.8434 1024.76 69.8434 Q1011.82 69.8434 1004.36 78.0899 Q996.893 86.3363 996.893 100.572 L996.893 155.52 L980.834 155.52 L980.834 20.4513 L996.893 20.4513 L996.893 73.4024 Q1002.62 64.6351 1010.35 60.2948 Q1018.16 55.9546 1028.32 55.9546 Q1045.07 55.9546 1053.66 66.3712 Q1062.26 76.701 1062.26 96.8398 Z" fill="#000000" fill-rule="evenodd" fill-opacity="1" /><path clip-path="url(#clip360)" d="M1229.01 30.1734 L1229.01 47.2741 Q1219.03 42.4998 1210.17 40.156 Q1201.32 37.8123 1193.07 37.8123 Q1178.75 37.8123 1170.94 43.3678 Q1163.21 48.9233 1163.21 59.1663 Q1163.21 67.7601 1168.33 72.1871 Q1173.54 76.5274 1187.95 79.2183 L1198.54 81.3885 Q1218.16 85.1211 1227.45 94.5828 Q1236.82 103.958 1236.82 119.756 Q1236.82 138.593 1224.15 148.315 Q1211.56 158.037 1187.17 158.037 Q1177.97 158.037 1167.55 155.954 Q1157.22 153.871 1146.11 149.791 L1146.11 131.735 Q1156.79 137.725 1167.03 140.763 Q1177.27 143.801 1187.17 143.801 Q1202.19 143.801 1210.35 137.899 Q1218.51 131.996 1218.51 121.058 Q1218.51 111.51 1212.6 106.128 Q1206.79 100.746 1193.42 98.055 L1182.74 95.9717 Q1163.12 92.0655 1154.36 83.7322 Q1145.59 75.3989 1145.59 60.5552 Q1145.59 43.3678 1157.66 33.472 Q1169.81 23.5763 1191.08 23.5763 Q1200.19 23.5763 1209.65 25.2256 Q1219.11 26.8749 1229.01 30.1734 Z" fill="#000000" fill-rule="evenodd" fill-opacity="1" /><path clip-path="url(#clip360)" d="M1279.27 30.6943 L1279.27 58.2983 L1312.17 58.2983 L1312.17 70.7114 L1279.27 70.7114 L1279.27 123.489 Q1279.27 135.381 1282.48 138.767 Q1285.78 142.152 1295.76 142.152 L1312.17 142.152 L1312.17 155.52 L1295.76 155.52 Q1277.27 155.52 1270.24 148.662 Q1263.21 141.718 1263.21 123.489 L1263.21 70.7114 L1251.49 70.7114 L1251.49 58.2983 L1263.21 58.2983 L1263.21 30.6943 L1279.27 30.6943 Z" fill="#000000" fill-rule="evenodd" fill-opacity="1" /><path clip-path="url(#clip360)" d="M1377.36 106.649 Q1358 106.649 1350.54 111.076 Q1343.07 115.503 1343.07 126.18 Q1343.07 134.687 1348.63 139.721 Q1354.27 144.669 1363.9 144.669 Q1377.19 144.669 1385.17 135.294 Q1393.24 125.833 1393.24 110.208 L1393.24 106.649 L1377.36 106.649 M1409.22 100.052 L1409.22 155.52 L1393.24 155.52 L1393.24 140.763 Q1387.78 149.617 1379.62 153.871 Q1371.46 158.037 1359.65 158.037 Q1344.72 158.037 1335.87 149.704 Q1327.1 141.284 1327.1 127.222 Q1327.1 110.815 1338.04 102.482 Q1349.06 94.1488 1370.85 94.1488 L1393.24 94.1488 L1393.24 92.5863 Q1393.24 81.5621 1385.95 75.5725 Q1378.75 69.4962 1365.64 69.4962 Q1357.31 69.4962 1349.41 71.4927 Q1341.51 73.4892 1334.22 77.4822 L1334.22 62.7254 Q1342.98 59.34 1351.23 57.6907 Q1359.48 55.9546 1367.29 55.9546 Q1388.38 55.9546 1398.8 66.892 Q1409.22 77.8294 1409.22 100.052 Z" fill="#000000" fill-rule="evenodd" fill-opacity="1" /><path clip-path="url(#clip360)" d="M1512.08 62.0309 L1512.08 76.9614 Q1505.31 73.2288 1498.45 71.4059 Q1491.68 69.4962 1484.74 69.4962 Q1469.2 69.4962 1460.61 79.3919 Q1452.01 89.2009 1452.01 106.996 Q1452.01 124.791 1460.61 134.687 Q1469.2 144.496 1484.74 144.496 Q1491.68 144.496 1498.45 142.673 Q1505.31 140.763 1512.08 137.031 L1512.08 151.787 Q1505.4 154.912 1498.19 156.475 Q1491.07 158.037 1483 158.037 Q1461.04 158.037 1448.11 144.235 Q1435.17 130.433 1435.17 106.996 Q1435.17 83.2114 1448.19 69.583 Q1461.3 55.9546 1484.04 55.9546 Q1491.42 55.9546 1498.45 57.5171 Q1505.48 58.9927 1512.08 62.0309 Z" fill="#000000" fill-rule="evenodd" fill-opacity="1" /><path clip-path="url(#clip360)" d="M1539.25 20.4513 L1555.31 20.4513 L1555.31 100.225 L1602.97 58.2983 L1623.37 58.2983 L1571.8 103.784 L1625.54 155.52 L1604.7 155.52 L1555.31 108.038 L1555.31 155.52 L1539.25 155.52 L1539.25 20.4513 Z" fill="#000000" fill-rule="evenodd" fill-opacity="1" /><path clip-path="url(#clip360)" d="M1777.7 30.1734 L1777.7 47.2741 Q1767.72 42.4998 1758.87 40.156 Q1750.01 37.8123 1741.77 37.8123 Q1727.44 37.8123 1719.63 43.3678 Q1711.91 48.9233 1711.91 59.1663 Q1711.91 67.7601 1717.03 72.1871 Q1722.24 76.5274 1736.65 79.2183 L1747.24 81.3885 Q1766.85 85.1211 1776.14 94.5828 Q1785.52 103.958 1785.52 119.756 Q1785.52 138.593 1772.84 148.315 Q1760.26 158.037 1735.86 158.037 Q1726.66 158.037 1716.25 155.954 Q1705.92 153.871 1694.81 149.791 L1694.81 131.735 Q1705.48 137.725 1715.73 140.763 Q1725.97 143.801 1735.86 143.801 Q1750.88 143.801 1759.04 137.899 Q1767.2 131.996 1767.2 121.058 Q1767.2 111.51 1761.3 106.128 Q1755.48 100.746 1742.11 98.055 L1731.44 95.9717 Q1711.82 92.0655 1703.05 83.7322 Q1694.29 75.3989 1694.29 60.5552 Q1694.29 43.3678 1706.35 33.472 Q1718.5 23.5763 1739.77 23.5763 Q1748.89 23.5763 1758.35 25.2256 Q1767.81 26.8749 1777.7 30.1734 Z" fill="#000000" fill-rule="evenodd" fill-opacity="1" /><path clip-path="url(#clip360)" d="M1810.52 117.152 L1810.52 58.2983 L1826.49 58.2983 L1826.49 116.545 Q1826.49 130.347 1831.87 137.291 Q1837.25 144.149 1848.02 144.149 Q1860.95 144.149 1868.42 135.902 Q1875.97 127.656 1875.97 113.42 L1875.97 58.2983 L1891.94 58.2983 L1891.94 155.52 L1875.97 155.52 L1875.97 140.59 Q1870.15 149.444 1862.43 153.784 Q1854.79 158.037 1844.63 158.037 Q1827.88 158.037 1819.2 147.621 Q1810.52 137.204 1810.52 117.152 M1850.71 55.9546 L1850.71 55.9546 Z" fill="#000000" fill-rule="evenodd" fill-opacity="1" /><path clip-path="url(#clip360)" d="M1940.29 140.937 L1940.29 192.499 L1924.23 192.499 L1924.23 58.2983 L1940.29 58.2983 L1940.29 73.0552 Q1945.33 64.3747 1952.96 60.208 Q1960.69 55.9546 1971.37 55.9546 Q1989.08 55.9546 2000.1 70.017 Q2011.21 84.0794 2011.21 106.996 Q2011.21 129.912 2000.1 143.975 Q1989.08 158.037 1971.37 158.037 Q1960.69 158.037 1952.96 153.871 Q1945.33 149.617 1940.29 140.937 M1994.63 106.996 Q1994.63 89.3745 1987.34 79.3919 Q1980.13 69.3225 1967.46 69.3225 Q1954.79 69.3225 1947.5 79.3919 Q1940.29 89.3745 1940.29 106.996 Q1940.29 124.617 1947.5 134.687 Q1954.79 144.669 1967.46 144.669 Q1980.13 144.669 1987.34 134.687 Q1994.63 124.617 1994.63 106.996 Z" fill="#000000" fill-rule="evenodd" fill-opacity="1" /><path clip-path="url(#clip360)" d="M2053.14 140.937 L2053.14 192.499 L2037.08 192.499 L2037.08 58.2983 L2053.14 58.2983 L2053.14 73.0552 Q2058.17 64.3747 2065.81 60.208 Q2073.54 55.9546 2084.21 55.9546 Q2101.92 55.9546 2112.95 70.017 Q2124.06 84.0794 2124.06 106.996 Q2124.06 129.912 2112.95 143.975 Q2101.92 158.037 2084.21 158.037 Q2073.54 158.037 2065.81 153.871 Q2058.17 149.617 2053.14 140.937 M2107.48 106.996 Q2107.48 89.3745 2100.19 79.3919 Q2092.98 69.3225 2080.31 69.3225 Q2067.63 69.3225 2060.34 79.3919 Q2053.14 89.3745 2053.14 106.996 Q2053.14 124.617 2060.34 134.687 Q2067.63 144.669 2080.31 144.669 Q2092.98 144.669 2100.19 134.687 Q2107.48 124.617 2107.48 106.996 Z" fill="#000000" fill-rule="evenodd" fill-opacity="1" /><path clip-path="url(#clip360)" d="M2150.53 20.4513 L2166.5 20.4513 L2166.5 155.52 L2150.53 155.52 L2150.53 20.4513 Z" fill="#000000" fill-rule="evenodd" fill-opacity="1" /><path clip-path="url(#clip360)" d="M2240.38 164.548 Q2233.61 181.909 2227.18 187.204 Q2220.76 192.499 2209.99 192.499 L2197.23 192.499 L2197.23 179.131 L2206.61 179.131 Q2213.21 179.131 2216.85 176.006 Q2220.5 172.881 2224.92 161.249 L2227.79 153.958 L2188.47 58.2983 L2205.39 58.2983 L2235.78 134.34 L2266.16 58.2983 L2283.08 58.2983 L2240.38 164.548 Z" fill="#000000" fill-rule="evenodd" fill-opacity="1" /><path clip-path="url(#clip360)" d="M2459.39 35.9026 L2459.39 54.3921 Q2450.53 46.1456 2440.46 42.0657 Q2430.48 37.9859 2419.19 37.9859 Q2396.97 37.9859 2385.17 51.6143 Q2373.36 65.1559 2373.36 90.8502 Q2373.36 116.458 2385.17 130.086 Q2396.97 143.628 2419.19 143.628 Q2430.48 143.628 2440.46 139.548 Q2450.53 135.468 2459.39 127.222 L2459.39 145.537 Q2450.18 151.787 2439.85 154.912 Q2429.61 158.037 2418.15 158.037 Q2388.73 158.037 2371.8 140.069 Q2354.87 122.013 2354.87 90.8502 Q2354.87 59.6004 2371.8 41.6317 Q2388.73 23.5763 2418.15 23.5763 Q2429.78 23.5763 2440.03 26.7012 Q2450.36 29.7394 2459.39 35.9026 Z" fill="#000000" fill-rule="evenodd" fill-opacity="1" /><path clip-path="url(#clip360)" d="M2484.12 117.152 L2484.12 58.2983 L2500.1 58.2983 L2500.1 116.545 Q2500.1 130.347 2505.48 137.291 Q2510.86 144.149 2521.62 144.149 Q2534.56 144.149 2542.02 135.902 Q2549.58 127.656 2549.58 113.42 L2549.58 58.2983 L2565.55 58.2983 L2565.55 155.52 L2549.58 155.52 L2549.58 140.59 Q2543.76 149.444 2536.03 153.784 Q2528.4 158.037 2518.24 158.037 Q2501.49 158.037 2492.81 147.621 Q2484.12 137.204 2484.12 117.152 M2524.32 55.9546 L2524.32 55.9546 Z" fill="#000000" fill-rule="evenodd" fill-opacity="1" /><path clip-path="url(#clip360)" d="M2654.78 73.2288 Q2652.09 71.6663 2648.88 70.9718 Q2645.76 70.1906 2641.94 70.1906 Q2628.39 70.1906 2621.1 79.0447 Q2613.9 87.812 2613.9 104.305 L2613.9 155.52 L2597.84 155.52 L2597.84 58.2983 L2613.9 58.2983 L2613.9 73.4024 Q2618.93 64.5483 2627.01 60.2948 Q2635.08 55.9546 2646.62 55.9546 Q2648.27 55.9546 2650.27 56.215 Q2652.27 56.3886 2654.7 56.8226 L2654.78 73.2288 Z" fill="#000000" fill-rule="evenodd" fill-opacity="1" /><path clip-path="url(#clip360)" d="M2660.08 58.2983 L2677.01 58.2983 L2707.39 139.895 L2737.77 58.2983 L2754.7 58.2983 L2718.24 155.52 L2696.54 155.52 L2660.08 58.2983 Z" fill="#000000" fill-rule="evenodd" fill-opacity="1" /><path clip-path="url(#clip360)" d="M2859.9 102.916 L2859.9 110.729 L2786.47 110.729 Q2787.51 127.222 2796.36 135.902 Q2805.3 144.496 2821.19 144.496 Q2830.39 144.496 2838.98 142.239 Q2847.66 139.982 2856.17 135.468 L2856.17 150.572 Q2847.58 154.218 2838.55 156.128 Q2829.52 158.037 2820.23 158.037 Q2796.97 158.037 2783.34 144.496 Q2769.8 130.954 2769.8 107.864 Q2769.8 83.9926 2782.65 70.017 Q2795.58 55.9546 2817.46 55.9546 Q2837.07 55.9546 2848.45 68.6281 Q2859.9 81.2148 2859.9 102.916 M2843.93 98.2286 Q2843.76 85.1211 2836.55 77.3086 Q2829.44 69.4962 2817.63 69.4962 Q2804.26 69.4962 2796.19 77.0482 Q2788.2 84.6002 2786.99 98.3154 L2843.93 98.2286 Z" fill="#000000" fill-rule="evenodd" fill-opacity="1" /><path clip-path="url(#clip362)" d="
M487.134 1214.73 L832.175 1214.73 L832.175 1192.76 L487.134 1192.76 L487.134 1214.73  Z
  " fill="#000000" fill-rule="evenodd" fill-opacity="0.5"/>
<polyline clip-path="url(#clip362)" style="stroke:#000000; stroke-linecap:round; stroke-linejoin:round; stroke-width:4; stroke-opacity:0.5; fill:none" points="
  487.134,1214.73 832.175,1214.73 832.175,1192.76 487.134,1192.76 487.134,1214.73 
  "/>
<path clip-path="url(#clip362)" d="
M832.175 1214.73 L1004.69 1214.73 L1004.69 1192.76 L832.175 1192.76 L832.175 1214.73  Z
  " fill="#44aa99" fill-rule="evenodd" fill-opacity="0.5"/>
<polyline clip-path="url(#clip362)" style="stroke:#000000; stroke-linecap:round; stroke-linejoin:round; stroke-width:4; stroke-opacity:0.5; fill:none" points="
  832.175,1214.73 1004.69,1214.73 1004.69,1192.76 832.175,1192.76 832.175,1214.73 
  "/>
<path clip-path="url(#clip362)" d="
M1004.69 1214.73 L1134.08 1214.73 L1134.08 1192.76 L1004.69 1192.76 L1004.69 1214.73  Z
  " fill="#117733" fill-rule="evenodd" fill-opacity="0.5"/>
<polyline clip-path="url(#clip362)" style="stroke:#000000; stroke-linecap:round; stroke-linejoin:round; stroke-width:4; stroke-opacity:0.5; fill:none" points="
  1004.69,1214.73 1134.08,1214.73 1134.08,1192.76 1004.69,1192.76 1004.69,1214.73 
  "/>
<path clip-path="url(#clip362)" d="
M1134.08 1214.73 L1824.17 1214.73 L1824.17 1126.87 L1134.08 1126.87 L1134.08 1214.73  Z
  " fill="#332288" fill-rule="evenodd" fill-opacity="0.5"/>
<polyline clip-path="url(#clip362)" style="stroke:#000000; stroke-linecap:round; stroke-linejoin:round; stroke-width:4; stroke-opacity:0.5; fill:none" points="
  1134.08,1214.73 1824.17,1214.73 1824.17,1126.87 1134.08,1126.87 1134.08,1214.73 
  "/>
<path clip-path="url(#clip362)" d="
M1824.17 1214.73 L2289.97 1214.73 L2289.97 270.28 L1824.17 270.28 L1824.17 1214.73  Z
  " fill="#ddcc77" fill-rule="evenodd" fill-opacity="0.5"/>
<polyline clip-path="url(#clip362)" style="stroke:#000000; stroke-linecap:round; stroke-linejoin:round; stroke-width:4; stroke-opacity:0.5; fill:none" points="
  1824.17,1214.73 2289.97,1214.73 2289.97,270.28 1824.17,270.28 1824.17,1214.73 
  "/>
<path clip-path="url(#clip362)" d="
M2289.97 1214.73 L2686.77 1214.73 L2686.77 204.388 L2289.97 204.388 L2289.97 1214.73  Z
  " fill="#999933" fill-rule="evenodd" fill-opacity="0.5"/>
<polyline clip-path="url(#clip362)" style="stroke:#000000; stroke-linecap:round; stroke-linejoin:round; stroke-width:4; stroke-opacity:0.5; fill:none" points="
  2289.97,1214.73 2686.77,1214.73 2686.77,204.388 2289.97,204.388 2289.97,1214.73 
  "/>
<polyline clip-path="url(#clip362)" style="stroke:#000000; stroke-linecap:round; stroke-linejoin:round; stroke-width:12; stroke-opacity:1; fill:none" stroke-dasharray="48, 30" points="
  2039.82,2315.99 2039.82,-896.88 
  "/>
<polyline clip-path="url(#clip362)" style="stroke:#0000ff; stroke-linecap:round; stroke-linejoin:round; stroke-width:12; stroke-opacity:1; fill:none" stroke-dasharray="6, 12" points="
  -1910.47,270.28 5084.37,270.28 
  "/>
<path clip-path="url(#clip360)" d="
M498.865 1159.98 L1450.08 1159.98 L1450.08 226.856 L498.865 226.856  Z
  " fill="#ffffff" fill-rule="evenodd" fill-opacity="1"/>
<polyline clip-path="url(#clip360)" style="stroke:#000000; stroke-linecap:round; stroke-linejoin:round; stroke-width:4; stroke-opacity:1; fill:none" points="
  498.865,1159.98 1450.08,1159.98 1450.08,226.856 498.865,226.856 498.865,1159.98 
  "/>
<path clip-path="url(#clip360)" d="
M524.772 372.008 L680.213 372.008 L680.213 289.064 L524.772 289.064 L524.772 372.008  Z
  " fill="#000000" fill-rule="evenodd" fill-opacity="0.5"/>
<polyline clip-path="url(#clip360)" style="stroke:#000000; stroke-linecap:round; stroke-linejoin:round; stroke-width:4; stroke-opacity:1; fill:none" points="
  524.772,372.008 680.213,372.008 680.213,289.064 524.772,289.064 524.772,372.008 
  "/>
<path clip-path="url(#clip360)" d="M746.814 323.198 Q750.008 317.457 754.453 314.725 Q758.897 311.994 764.916 311.994 Q773.018 311.994 777.416 317.688 Q781.814 323.337 781.814 333.799 L781.814 365.096 L773.249 365.096 L773.249 334.077 Q773.249 326.624 770.61 323.012 Q767.971 319.401 762.555 319.401 Q755.934 319.401 752.092 323.8 Q748.249 328.198 748.249 335.79 L748.249 365.096 L739.684 365.096 L739.684 334.077 Q739.684 326.577 737.046 323.012 Q734.407 319.401 728.897 319.401 Q722.37 319.401 718.527 323.846 Q714.685 328.244 714.685 335.79 L714.685 365.096 L706.12 365.096 L706.12 313.244 L714.685 313.244 L714.685 321.3 Q717.601 316.531 721.675 314.263 Q725.749 311.994 731.351 311.994 Q736.999 311.994 740.934 314.864 Q744.916 317.735 746.814 323.198 Z" fill="#000000" fill-rule="evenodd" fill-opacity="1" /><path clip-path="url(#clip360)" d="M798.804 313.244 L807.323 313.244 L807.323 365.096 L798.804 365.096 L798.804 313.244 M798.804 293.059 L807.323 293.059 L807.323 303.846 L798.804 303.846 L798.804 293.059 Z" fill="#000000" fill-rule="evenodd" fill-opacity="1" /><path clip-path="url(#clip360)" d="M868.249 333.799 L868.249 365.096 L859.73 365.096 L859.73 334.077 Q859.73 326.716 856.86 323.059 Q853.989 319.401 848.249 319.401 Q841.351 319.401 837.369 323.8 Q833.388 328.198 833.388 335.79 L833.388 365.096 L824.823 365.096 L824.823 313.244 L833.388 313.244 L833.388 321.3 Q836.443 316.624 840.564 314.309 Q844.73 311.994 850.147 311.994 Q859.082 311.994 863.665 317.55 Q868.249 323.059 868.249 333.799 Z" fill="#000000" fill-rule="evenodd" fill-opacity="1" /><path clip-path="url(#clip360)" d="M885.239 313.244 L893.758 313.244 L893.758 365.096 L885.239 365.096 L885.239 313.244 M885.239 293.059 L893.758 293.059 L893.758 303.846 L885.239 303.846 L885.239 293.059 Z" fill="#000000" fill-rule="evenodd" fill-opacity="1" /><path clip-path="url(#clip360)" d="M951.952 323.198 Q955.146 317.457 959.591 314.725 Q964.035 311.994 970.054 311.994 Q978.155 311.994 982.553 317.688 Q986.952 323.337 986.952 333.799 L986.952 365.096 L978.387 365.096 L978.387 334.077 Q978.387 326.624 975.748 323.012 Q973.109 319.401 967.692 319.401 Q961.072 319.401 957.23 323.8 Q953.387 328.198 953.387 335.79 L953.387 365.096 L944.822 365.096 L944.822 334.077 Q944.822 326.577 942.183 323.012 Q939.544 319.401 934.035 319.401 Q927.507 319.401 923.665 323.846 Q919.822 328.244 919.822 335.79 L919.822 365.096 L911.258 365.096 L911.258 313.244 L919.822 313.244 L919.822 321.3 Q922.739 316.531 926.813 314.263 Q930.887 311.994 936.489 311.994 Q942.137 311.994 946.072 314.864 Q950.054 317.735 951.952 323.198 Z" fill="#000000" fill-rule="evenodd" fill-opacity="1" /><path clip-path="url(#clip360)" d="M1003.06 344.633 L1003.06 313.244 L1011.58 313.244 L1011.58 344.309 Q1011.58 351.67 1014.45 355.373 Q1017.32 359.031 1023.06 359.031 Q1029.96 359.031 1033.94 354.633 Q1037.97 350.235 1037.97 342.642 L1037.97 313.244 L1046.49 313.244 L1046.49 365.096 L1037.97 365.096 L1037.97 357.133 Q1034.87 361.855 1030.75 364.17 Q1026.67 366.438 1021.26 366.438 Q1012.32 366.438 1007.69 360.883 Q1003.06 355.327 1003.06 344.633 M1024.5 311.994 L1024.5 311.994 Z" fill="#000000" fill-rule="evenodd" fill-opacity="1" /><path clip-path="url(#clip360)" d="M1104.4 323.198 Q1107.6 317.457 1112.04 314.725 Q1116.49 311.994 1122.51 311.994 Q1130.61 311.994 1135.01 317.688 Q1139.4 323.337 1139.4 333.799 L1139.4 365.096 L1130.84 365.096 L1130.84 334.077 Q1130.84 326.624 1128.2 323.012 Q1125.56 319.401 1120.15 319.401 Q1113.53 319.401 1109.68 323.8 Q1105.84 328.198 1105.84 335.79 L1105.84 365.096 L1097.28 365.096 L1097.28 334.077 Q1097.28 326.577 1094.64 323.012 Q1092 319.401 1086.49 319.401 Q1079.96 319.401 1076.12 323.846 Q1072.28 328.244 1072.28 335.79 L1072.28 365.096 L1063.71 365.096 L1063.71 313.244 L1072.28 313.244 L1072.28 321.3 Q1075.19 316.531 1079.27 314.263 Q1083.34 311.994 1088.94 311.994 Q1094.59 311.994 1098.53 314.864 Q1102.51 317.735 1104.4 323.198 Z" fill="#000000" fill-rule="evenodd" fill-opacity="1" /><path clip-path="url(#clip360)" d="
M524.772 475.688 L680.213 475.688 L680.213 392.744 L524.772 392.744 L524.772 475.688  Z
  " fill="#44aa99" fill-rule="evenodd" fill-opacity="0.5"/>
<polyline clip-path="url(#clip360)" style="stroke:#000000; stroke-linecap:round; stroke-linejoin:round; stroke-width:4; stroke-opacity:1; fill:none" points="
  524.772,475.688 680.213,475.688 680.213,392.744 524.772,392.744 524.772,475.688 
  "/>
<path clip-path="url(#clip360)" d="M706.12 416.924 L714.638 416.924 L725.286 457.387 L735.888 416.924 L745.934 416.924 L756.582 457.387 L767.184 416.924 L775.703 416.924 L762.138 468.776 L752.092 468.776 L740.934 426.276 L729.731 468.776 L719.685 468.776 L706.12 416.924 Z" fill="#000000" fill-rule="evenodd" fill-opacity="1" /><path clip-path="url(#clip360)" d="M788.619 416.924 L797.138 416.924 L797.138 468.776 L788.619 468.776 L788.619 416.924 M788.619 396.739 L797.138 396.739 L797.138 407.526 L788.619 407.526 L788.619 396.739 Z" fill="#000000" fill-rule="evenodd" fill-opacity="1" /><path clip-path="url(#clip360)" d="M858.063 437.479 L858.063 468.776 L849.545 468.776 L849.545 437.757 Q849.545 430.396 846.675 426.739 Q843.804 423.081 838.064 423.081 Q831.165 423.081 827.184 427.48 Q823.202 431.878 823.202 439.47 L823.202 468.776 L814.638 468.776 L814.638 416.924 L823.202 416.924 L823.202 424.98 Q826.258 420.304 830.378 417.989 Q834.545 415.674 839.962 415.674 Q848.897 415.674 853.48 421.23 Q858.063 426.739 858.063 437.479 Z" fill="#000000" fill-rule="evenodd" fill-opacity="1" /><path clip-path="url(#clip360)" d="M909.174 424.794 L909.174 396.739 L917.693 396.739 L917.693 468.776 L909.174 468.776 L909.174 460.998 Q906.489 465.627 902.369 467.896 Q898.295 470.118 892.554 470.118 Q883.156 470.118 877.23 462.618 Q871.35 455.118 871.35 442.896 Q871.35 430.674 877.23 423.174 Q883.156 415.674 892.554 415.674 Q898.295 415.674 902.369 417.943 Q906.489 420.165 909.174 424.794 M880.147 442.896 Q880.147 452.294 883.989 457.665 Q887.878 462.989 894.637 462.989 Q901.397 462.989 905.285 457.665 Q909.174 452.294 909.174 442.896 Q909.174 433.498 905.285 428.174 Q901.397 422.804 894.637 422.804 Q887.878 422.804 883.989 428.174 Q880.147 433.498 880.147 442.896 Z" fill="#000000" fill-rule="evenodd" fill-opacity="1" /><path clip-path="url(#clip360)" d="
M524.772 579.368 L680.213 579.368 L680.213 496.424 L524.772 496.424 L524.772 579.368  Z
  " fill="#117733" fill-rule="evenodd" fill-opacity="0.5"/>
<polyline clip-path="url(#clip360)" style="stroke:#000000; stroke-linecap:round; stroke-linejoin:round; stroke-width:4; stroke-opacity:1; fill:none" points="
  524.772,579.368 680.213,579.368 680.213,496.424 524.772,496.424 524.772,579.368 
  "/>
<path clip-path="url(#clip360)" d="M749.545 541.159 L749.545 572.456 L741.027 572.456 L741.027 541.437 Q741.027 534.076 738.157 530.419 Q735.286 526.761 729.546 526.761 Q722.647 526.761 718.666 531.16 Q714.685 535.558 714.685 543.15 L714.685 572.456 L706.12 572.456 L706.12 500.419 L714.685 500.419 L714.685 528.66 Q717.74 523.984 721.86 521.669 Q726.027 519.354 731.444 519.354 Q740.379 519.354 744.962 524.91 Q749.545 530.419 749.545 541.159 Z" fill="#000000" fill-rule="evenodd" fill-opacity="1" /><path clip-path="url(#clip360)" d="M788.11 577.27 Q784.499 586.53 781.073 589.354 Q777.647 592.178 771.906 592.178 L765.101 592.178 L765.101 585.048 L770.101 585.048 Q773.619 585.048 775.564 583.381 Q777.508 581.715 779.869 575.511 L781.397 571.622 L760.425 520.604 L769.453 520.604 L785.656 561.159 L801.86 520.604 L810.888 520.604 L788.11 577.27 Z" fill="#000000" fill-rule="evenodd" fill-opacity="1" /><path clip-path="url(#clip360)" d="M856.767 528.474 L856.767 500.419 L865.286 500.419 L865.286 572.456 L856.767 572.456 L856.767 564.678 Q854.082 569.307 849.962 571.576 Q845.888 573.798 840.147 573.798 Q830.749 573.798 824.823 566.298 Q818.943 558.798 818.943 546.576 Q818.943 534.354 824.823 526.854 Q830.749 519.354 840.147 519.354 Q845.888 519.354 849.962 521.623 Q854.082 523.845 856.767 528.474 M827.739 546.576 Q827.739 555.974 831.582 561.345 Q835.471 566.669 842.23 566.669 Q848.989 566.669 852.878 561.345 Q856.767 555.974 856.767 546.576 Q856.767 537.178 852.878 531.854 Q848.989 526.484 842.23 526.484 Q835.471 526.484 831.582 531.854 Q827.739 537.178 827.739 546.576 Z" fill="#000000" fill-rule="evenodd" fill-opacity="1" /><path clip-path="url(#clip360)" d="M912.878 528.567 Q911.443 527.734 909.73 527.363 Q908.063 526.947 906.026 526.947 Q898.804 526.947 894.915 531.669 Q891.072 536.345 891.072 545.141 L891.072 572.456 L882.508 572.456 L882.508 520.604 L891.072 520.604 L891.072 528.66 Q893.758 523.937 898.063 521.669 Q902.369 519.354 908.526 519.354 Q909.406 519.354 910.471 519.493 Q911.535 519.586 912.832 519.817 L912.878 528.567 Z" fill="#000000" fill-rule="evenodd" fill-opacity="1" /><path clip-path="url(#clip360)" d="M939.822 526.576 Q932.97 526.576 928.989 531.947 Q925.007 537.271 925.007 546.576 Q925.007 555.882 928.943 561.252 Q932.924 566.576 939.822 566.576 Q946.628 566.576 950.609 561.206 Q954.591 555.835 954.591 546.576 Q954.591 537.363 950.609 531.993 Q946.628 526.576 939.822 526.576 M939.822 519.354 Q950.933 519.354 957.276 526.576 Q963.618 533.798 963.618 546.576 Q963.618 559.308 957.276 566.576 Q950.933 573.798 939.822 573.798 Q928.665 573.798 922.322 566.576 Q916.026 559.308 916.026 546.576 Q916.026 533.798 922.322 526.576 Q928.665 519.354 939.822 519.354 Z" fill="#000000" fill-rule="evenodd" fill-opacity="1" /><path clip-path="url(#clip360)" d="
M524.772 683.048 L680.213 683.048 L680.213 600.104 L524.772 600.104 L524.772 683.048  Z
  " fill="#332288" fill-rule="evenodd" fill-opacity="0.5"/>
<polyline clip-path="url(#clip360)" style="stroke:#000000; stroke-linecap:round; stroke-linejoin:round; stroke-width:4; stroke-opacity:1; fill:none" points="
  524.772,683.048 680.213,683.048 680.213,600.104 524.772,600.104 524.772,683.048 
  "/>
<path clip-path="url(#clip360)" d="M749.545 644.839 L749.545 676.136 L741.027 676.136 L741.027 645.117 Q741.027 637.756 738.157 634.099 Q735.286 630.441 729.546 630.441 Q722.647 630.441 718.666 634.84 Q714.685 639.238 714.685 646.83 L714.685 676.136 L706.12 676.136 L706.12 624.284 L714.685 624.284 L714.685 632.34 Q717.74 627.664 721.86 625.349 Q726.027 623.034 731.444 623.034 Q740.379 623.034 744.962 628.59 Q749.545 634.099 749.545 644.839 Z" fill="#000000" fill-rule="evenodd" fill-opacity="1" /><path clip-path="url(#clip360)" d="M765.656 655.673 L765.656 624.284 L774.175 624.284 L774.175 655.349 Q774.175 662.71 777.045 666.413 Q779.916 670.071 785.656 670.071 Q792.554 670.071 796.536 665.673 Q800.564 661.275 800.564 653.682 L800.564 624.284 L809.082 624.284 L809.082 676.136 L800.564 676.136 L800.564 668.173 Q797.462 672.895 793.342 675.21 Q789.267 677.478 783.851 677.478 Q774.916 677.478 770.286 671.923 Q765.656 666.367 765.656 655.673 M787.092 623.034 L787.092 623.034 Z" fill="#000000" fill-rule="evenodd" fill-opacity="1" /><path clip-path="url(#clip360)" d="M863.943 626.275 L863.943 634.238 Q860.332 632.247 856.675 631.275 Q853.063 630.256 849.36 630.256 Q841.073 630.256 836.489 635.534 Q831.906 640.765 831.906 650.256 Q831.906 659.747 836.489 665.025 Q841.073 670.256 849.36 670.256 Q853.063 670.256 856.675 669.284 Q860.332 668.265 863.943 666.275 L863.943 674.145 Q860.378 675.812 856.536 676.645 Q852.739 677.478 848.434 677.478 Q836.721 677.478 829.823 670.117 Q822.925 662.756 822.925 650.256 Q822.925 637.571 829.869 630.303 Q836.86 623.034 848.989 623.034 Q852.925 623.034 856.675 623.867 Q860.425 624.654 863.943 626.275 Z" fill="#000000" fill-rule="evenodd" fill-opacity="1" /><path clip-path="url(#clip360)" d="M878.758 604.099 L887.276 604.099 L887.276 676.136 L878.758 676.136 L878.758 604.099 Z" fill="#000000" fill-rule="evenodd" fill-opacity="1" /><path clip-path="url(#clip360)" d="M949.452 648.08 L949.452 652.247 L910.285 652.247 Q910.841 661.043 915.563 665.673 Q920.332 670.256 928.804 670.256 Q933.711 670.256 938.294 669.052 Q942.924 667.849 947.461 665.441 L947.461 673.497 Q942.878 675.441 938.063 676.46 Q933.248 677.478 928.295 677.478 Q915.887 677.478 908.619 670.256 Q901.397 663.034 901.397 650.719 Q901.397 637.988 908.248 630.534 Q915.146 623.034 926.813 623.034 Q937.276 623.034 943.341 629.793 Q949.452 636.506 949.452 648.08 M940.933 645.58 Q940.841 638.589 936.998 634.423 Q933.202 630.256 926.906 630.256 Q919.776 630.256 915.471 634.284 Q911.211 638.312 910.563 645.626 L940.933 645.58 Z" fill="#000000" fill-rule="evenodd" fill-opacity="1" /><path clip-path="url(#clip360)" d="M986.998 650.071 Q976.674 650.071 972.692 652.432 Q968.711 654.793 968.711 660.488 Q968.711 665.025 971.674 667.71 Q974.683 670.349 979.822 670.349 Q986.905 670.349 991.165 665.349 Q995.47 660.302 995.47 651.969 L995.47 650.071 L986.998 650.071 M1003.99 646.552 L1003.99 676.136 L995.47 676.136 L995.47 668.265 Q992.553 672.987 988.202 675.256 Q983.85 677.478 977.554 677.478 Q969.591 677.478 964.868 673.034 Q960.192 668.543 960.192 661.043 Q960.192 652.293 966.026 647.849 Q971.905 643.404 983.526 643.404 L995.47 643.404 L995.47 642.571 Q995.47 636.691 991.581 633.497 Q987.739 630.256 980.748 630.256 Q976.304 630.256 972.091 631.321 Q967.878 632.386 963.989 634.515 L963.989 626.645 Q968.665 624.84 973.063 623.96 Q977.461 623.034 981.628 623.034 Q992.878 623.034 998.433 628.867 Q1003.99 634.701 1003.99 646.552 Z" fill="#000000" fill-rule="evenodd" fill-opacity="1" /><path clip-path="url(#clip360)" d="M1051.58 632.247 Q1050.15 631.414 1048.43 631.043 Q1046.77 630.627 1044.73 630.627 Q1037.51 630.627 1033.62 635.349 Q1029.78 640.025 1029.78 648.821 L1029.78 676.136 L1021.21 676.136 L1021.21 624.284 L1029.78 624.284 L1029.78 632.34 Q1032.46 627.617 1036.77 625.349 Q1041.07 623.034 1047.23 623.034 Q1048.11 623.034 1049.17 623.173 Q1050.24 623.266 1051.53 623.497 L1051.58 632.247 Z" fill="#000000" fill-rule="evenodd" fill-opacity="1" /><path clip-path="url(#clip360)" d="
M524.772 786.728 L680.213 786.728 L680.213 703.784 L524.772 703.784 L524.772 786.728  Z
  " fill="#ddcc77" fill-rule="evenodd" fill-opacity="0.5"/>
<polyline clip-path="url(#clip360)" style="stroke:#000000; stroke-linecap:round; stroke-linejoin:round; stroke-width:4; stroke-opacity:1; fill:none" points="
  524.772,786.728 680.213,786.728 680.213,703.784 524.772,703.784 524.772,786.728 
  "/>
<path clip-path="url(#clip360)" d="M747.138 729.955 L747.138 737.918 Q743.527 735.927 739.87 734.955 Q736.259 733.936 732.555 733.936 Q724.268 733.936 719.685 739.214 Q715.101 744.445 715.101 753.936 Q715.101 763.427 719.685 768.705 Q724.268 773.936 732.555 773.936 Q736.259 773.936 739.87 772.964 Q743.527 771.945 747.138 769.955 L747.138 777.825 Q743.573 779.492 739.731 780.325 Q735.934 781.158 731.629 781.158 Q719.916 781.158 713.018 773.797 Q706.12 766.436 706.12 753.936 Q706.12 741.251 713.064 733.983 Q720.055 726.714 732.184 726.714 Q736.12 726.714 739.87 727.547 Q743.62 728.334 747.138 729.955 Z" fill="#000000" fill-rule="evenodd" fill-opacity="1" /><path clip-path="url(#clip360)" d="M782.045 733.936 Q775.193 733.936 771.212 739.307 Q767.231 744.631 767.231 753.936 Q767.231 763.242 771.166 768.612 Q775.147 773.936 782.045 773.936 Q788.851 773.936 792.832 768.566 Q796.814 763.195 796.814 753.936 Q796.814 744.723 792.832 739.353 Q788.851 733.936 782.045 733.936 M782.045 726.714 Q793.156 726.714 799.499 733.936 Q805.841 741.158 805.841 753.936 Q805.841 766.668 799.499 773.936 Q793.156 781.158 782.045 781.158 Q770.888 781.158 764.545 773.936 Q758.249 766.668 758.249 753.936 Q758.249 741.158 764.545 733.936 Q770.888 726.714 782.045 726.714 Z" fill="#000000" fill-rule="evenodd" fill-opacity="1" /><path clip-path="url(#clip360)" d="M843.526 753.751 Q833.202 753.751 829.221 756.112 Q825.24 758.473 825.24 764.168 Q825.24 768.705 828.202 771.39 Q831.212 774.029 836.351 774.029 Q843.434 774.029 847.693 769.029 Q851.999 763.982 851.999 755.649 L851.999 753.751 L843.526 753.751 M860.517 750.232 L860.517 779.816 L851.999 779.816 L851.999 771.945 Q849.082 776.667 844.73 778.936 Q840.378 781.158 834.082 781.158 Q826.119 781.158 821.397 776.714 Q816.721 772.223 816.721 764.723 Q816.721 755.973 822.554 751.529 Q828.434 747.084 840.054 747.084 L851.999 747.084 L851.999 746.251 Q851.999 740.371 848.11 737.177 Q844.267 733.936 837.276 733.936 Q832.832 733.936 828.619 735.001 Q824.406 736.066 820.517 738.195 L820.517 730.325 Q825.193 728.52 829.591 727.64 Q833.989 726.714 838.156 726.714 Q849.406 726.714 854.962 732.547 Q860.517 738.381 860.517 750.232 Z" fill="#000000" fill-rule="evenodd" fill-opacity="1" /><path clip-path="url(#clip360)" d="M878.063 707.779 L886.582 707.779 L886.582 779.816 L878.063 779.816 L878.063 707.779 Z" fill="#000000" fill-rule="evenodd" fill-opacity="1" /><path clip-path="url(#clip360)" d="
M524.772 890.408 L680.213 890.408 L680.213 807.464 L524.772 807.464 L524.772 890.408  Z
  " fill="#999933" fill-rule="evenodd" fill-opacity="0.5"/>
<polyline clip-path="url(#clip360)" style="stroke:#000000; stroke-linecap:round; stroke-linejoin:round; stroke-width:4; stroke-opacity:1; fill:none" points="
  524.772,890.408 680.213,890.408 680.213,807.464 524.772,807.464 524.772,890.408 
  "/>
<path clip-path="url(#clip360)" d="M749.545 852.199 L749.545 883.496 L741.027 883.496 L741.027 852.477 Q741.027 845.116 738.157 841.459 Q735.286 837.801 729.546 837.801 Q722.647 837.801 718.666 842.2 Q714.685 846.598 714.685 854.19 L714.685 883.496 L706.12 883.496 L706.12 831.644 L714.685 831.644 L714.685 839.7 Q717.74 835.024 721.86 832.709 Q726.027 830.394 731.444 830.394 Q740.379 830.394 744.962 835.95 Q749.545 841.459 749.545 852.199 Z" fill="#000000" fill-rule="evenodd" fill-opacity="1" /><path clip-path="url(#clip360)" d="M790.101 857.431 Q779.777 857.431 775.795 859.792 Q771.814 862.153 771.814 867.848 Q771.814 872.385 774.777 875.07 Q777.786 877.709 782.925 877.709 Q790.008 877.709 794.267 872.709 Q798.573 867.662 798.573 859.329 L798.573 857.431 L790.101 857.431 M807.091 853.912 L807.091 883.496 L798.573 883.496 L798.573 875.625 Q795.656 880.347 791.305 882.616 Q786.953 884.838 780.656 884.838 Q772.693 884.838 767.971 880.394 Q763.295 875.903 763.295 868.403 Q763.295 859.653 769.129 855.209 Q775.008 850.764 786.629 850.764 L798.573 850.764 L798.573 849.931 Q798.573 844.051 794.684 840.857 Q790.842 837.616 783.851 837.616 Q779.406 837.616 775.193 838.681 Q770.981 839.746 767.092 841.875 L767.092 834.005 Q771.768 832.2 776.166 831.32 Q780.564 830.394 784.73 830.394 Q795.98 830.394 801.536 836.227 Q807.091 842.061 807.091 853.912 Z" fill="#000000" fill-rule="evenodd" fill-opacity="1" /><path clip-path="url(#clip360)" d="M833.064 816.922 L833.064 831.644 L850.61 831.644 L850.61 838.264 L833.064 838.264 L833.064 866.412 Q833.064 872.755 834.776 874.56 Q836.536 876.366 841.86 876.366 L850.61 876.366 L850.61 883.496 L841.86 883.496 Q831.999 883.496 828.249 879.838 Q824.499 876.135 824.499 866.412 L824.499 838.264 L818.249 838.264 L818.249 831.644 L824.499 831.644 L824.499 816.922 L833.064 816.922 Z" fill="#000000" fill-rule="evenodd" fill-opacity="1" /><path clip-path="url(#clip360)" d="M895.934 856.968 Q895.934 847.709 892.091 842.616 Q888.295 837.524 881.397 837.524 Q874.545 837.524 870.702 842.616 Q866.906 847.709 866.906 856.968 Q866.906 866.181 870.702 871.273 Q874.545 876.366 881.397 876.366 Q888.295 876.366 892.091 871.273 Q895.934 866.181 895.934 856.968 M904.452 877.06 Q904.452 890.301 898.572 896.736 Q892.693 903.218 880.563 903.218 Q876.073 903.218 872.091 902.523 Q868.11 901.875 864.36 900.486 L864.36 892.199 Q868.11 894.236 871.767 895.208 Q875.424 896.181 879.221 896.181 Q887.6 896.181 891.767 891.783 Q895.934 887.431 895.934 878.588 L895.934 874.375 Q893.295 878.959 889.174 881.227 Q885.054 883.496 879.313 883.496 Q869.776 883.496 863.943 876.227 Q858.11 868.959 858.11 856.968 Q858.11 844.931 863.943 837.663 Q869.776 830.394 879.313 830.394 Q885.054 830.394 889.174 832.663 Q893.295 834.931 895.934 839.514 L895.934 831.644 L904.452 831.644 L904.452 877.06 Z" fill="#000000" fill-rule="evenodd" fill-opacity="1" /><path clip-path="url(#clip360)" d="M945.563 857.431 Q935.239 857.431 931.257 859.792 Q927.276 862.153 927.276 867.848 Q927.276 872.385 930.239 875.07 Q933.248 877.709 938.387 877.709 Q945.47 877.709 949.73 872.709 Q954.035 867.662 954.035 859.329 L954.035 857.431 L945.563 857.431 M962.554 853.912 L962.554 883.496 L954.035 883.496 L954.035 875.625 Q951.118 880.347 946.767 882.616 Q942.415 884.838 936.119 884.838 Q928.156 884.838 923.433 880.394 Q918.758 875.903 918.758 868.403 Q918.758 859.653 924.591 855.209 Q930.47 850.764 942.091 850.764 L954.035 850.764 L954.035 849.931 Q954.035 844.051 950.146 840.857 Q946.304 837.616 939.313 837.616 Q934.869 837.616 930.656 838.681 Q926.443 839.746 922.554 841.875 L922.554 834.005 Q927.23 832.2 931.628 831.32 Q936.026 830.394 940.193 830.394 Q951.443 830.394 956.998 836.227 Q962.554 842.061 962.554 853.912 Z" fill="#000000" fill-rule="evenodd" fill-opacity="1" /><path clip-path="url(#clip360)" d="M1013.16 833.172 L1013.16 841.227 Q1009.54 839.375 1005.66 838.45 Q1001.77 837.524 997.6 837.524 Q991.257 837.524 988.063 839.468 Q984.915 841.412 984.915 845.301 Q984.915 848.264 987.183 849.977 Q989.452 851.644 996.303 853.172 L999.22 853.82 Q1008.29 855.764 1012.09 859.329 Q1015.93 862.848 1015.93 869.19 Q1015.93 876.412 1010.19 880.625 Q1004.5 884.838 994.498 884.838 Q990.331 884.838 985.794 884.005 Q981.303 883.218 976.304 881.597 L976.304 872.801 Q981.026 875.255 985.609 876.505 Q990.192 877.709 994.683 877.709 Q1000.7 877.709 1003.94 875.672 Q1007.18 873.588 1007.18 869.838 Q1007.18 866.366 1004.82 864.514 Q1002.51 862.662 994.59 860.949 L991.628 860.255 Q983.711 858.588 980.192 855.162 Q976.674 851.69 976.674 845.672 Q976.674 838.357 981.859 834.375 Q987.044 830.394 996.581 830.394 Q1001.3 830.394 1005.47 831.088 Q1009.64 831.783 1013.16 833.172 Z" fill="#000000" fill-rule="evenodd" fill-opacity="1" /><polyline clip-path="url(#clip360)" style="stroke:#000000; stroke-linecap:round; stroke-linejoin:round; stroke-width:8; stroke-opacity:1; fill:none" stroke-dasharray="32, 20" points="
  524.772,952.616 680.213,952.616 
  "/>
<path clip-path="url(#clip360)" d="M743.944 943.194 L743.944 915.139 L752.462 915.139 L752.462 987.176 L743.944 987.176 L743.944 979.398 Q741.258 984.027 737.138 986.296 Q733.064 988.518 727.323 988.518 Q717.925 988.518 711.999 981.018 Q706.12 973.518 706.12 961.296 Q706.12 949.074 711.999 941.574 Q717.925 934.074 727.323 934.074 Q733.064 934.074 737.138 936.343 Q741.258 938.565 743.944 943.194 M714.916 961.296 Q714.916 970.694 718.759 976.065 Q722.647 981.389 729.407 981.389 Q736.166 981.389 740.055 976.065 Q743.944 970.694 743.944 961.296 Q743.944 951.898 740.055 946.574 Q736.166 941.204 729.407 941.204 Q722.647 941.204 718.759 946.574 Q714.916 951.898 714.916 961.296 Z" fill="#000000" fill-rule="evenodd" fill-opacity="1" /><path clip-path="url(#clip360)" d="M814.36 959.12 L814.36 963.287 L775.193 963.287 Q775.749 972.083 780.471 976.713 Q785.24 981.296 793.712 981.296 Q798.619 981.296 803.203 980.092 Q807.832 978.889 812.369 976.481 L812.369 984.537 Q807.786 986.481 802.971 987.5 Q798.156 988.518 793.203 988.518 Q780.795 988.518 773.527 981.296 Q766.305 974.074 766.305 961.759 Q766.305 949.028 773.156 941.574 Q780.055 934.074 791.721 934.074 Q802.184 934.074 808.249 940.833 Q814.36 947.546 814.36 959.12 M805.841 956.62 Q805.749 949.629 801.906 945.463 Q798.11 941.296 791.814 941.296 Q784.684 941.296 780.379 945.324 Q776.119 949.352 775.471 956.666 L805.841 956.62 Z" fill="#000000" fill-rule="evenodd" fill-opacity="1" /><path clip-path="url(#clip360)" d="M868.711 945.278 Q871.906 939.537 876.35 936.805 Q880.795 934.074 886.813 934.074 Q894.915 934.074 899.313 939.768 Q903.711 945.417 903.711 955.879 L903.711 987.176 L895.147 987.176 L895.147 956.157 Q895.147 948.704 892.508 945.092 Q889.869 941.481 884.452 941.481 Q877.832 941.481 873.989 945.88 Q870.147 950.278 870.147 957.87 L870.147 987.176 L861.582 987.176 L861.582 956.157 Q861.582 948.657 858.943 945.092 Q856.304 941.481 850.795 941.481 Q844.267 941.481 840.425 945.926 Q836.582 950.324 836.582 957.87 L836.582 987.176 L828.017 987.176 L828.017 935.324 L836.582 935.324 L836.582 943.38 Q839.499 938.611 843.573 936.343 Q847.647 934.074 853.249 934.074 Q858.897 934.074 862.832 936.944 Q866.813 939.815 868.711 945.278 Z" fill="#000000" fill-rule="evenodd" fill-opacity="1" /><path clip-path="url(#clip360)" d="M944.267 961.111 Q933.943 961.111 929.961 963.472 Q925.98 965.833 925.98 971.528 Q925.98 976.065 928.943 978.75 Q931.952 981.389 937.091 981.389 Q944.174 981.389 948.433 976.389 Q952.739 971.342 952.739 963.009 L952.739 961.111 L944.267 961.111 M961.257 957.592 L961.257 987.176 L952.739 987.176 L952.739 979.305 Q949.822 984.027 945.47 986.296 Q941.119 988.518 934.822 988.518 Q926.859 988.518 922.137 984.074 Q917.461 979.583 917.461 972.083 Q917.461 963.333 923.295 958.889 Q929.174 954.444 940.794 954.444 L952.739 954.444 L952.739 953.611 Q952.739 947.731 948.85 944.537 Q945.007 941.296 938.017 941.296 Q933.572 941.296 929.359 942.361 Q925.146 943.426 921.258 945.555 L921.258 937.685 Q925.933 935.88 930.332 935 Q934.73 934.074 938.896 934.074 Q950.146 934.074 955.702 939.907 Q961.257 945.741 961.257 957.592 Z" fill="#000000" fill-rule="evenodd" fill-opacity="1" /><path clip-path="url(#clip360)" d="M1021.91 955.879 L1021.91 987.176 L1013.39 987.176 L1013.39 956.157 Q1013.39 948.796 1010.52 945.139 Q1007.65 941.481 1001.91 941.481 Q995.007 941.481 991.026 945.88 Q987.044 950.278 987.044 957.87 L987.044 987.176 L978.479 987.176 L978.479 935.324 L987.044 935.324 L987.044 943.38 Q990.1 938.704 994.22 936.389 Q998.387 934.074 1003.8 934.074 Q1012.74 934.074 1017.32 939.63 Q1021.91 945.139 1021.91 955.879 Z" fill="#000000" fill-rule="evenodd" fill-opacity="1" /><path clip-path="url(#clip360)" d="M1073.02 943.194 L1073.02 915.139 L1081.53 915.139 L1081.53 987.176 L1073.02 987.176 L1073.02 979.398 Q1070.33 984.027 1066.21 986.296 Q1062.14 988.518 1056.4 988.518 Q1047 988.518 1041.07 981.018 Q1035.19 973.518 1035.19 961.296 Q1035.19 949.074 1041.07 941.574 Q1047 934.074 1056.4 934.074 Q1062.14 934.074 1066.21 936.343 Q1070.33 938.565 1073.02 943.194 M1043.99 961.296 Q1043.99 970.694 1047.83 976.065 Q1051.72 981.389 1058.48 981.389 Q1065.24 981.389 1069.13 976.065 Q1073.02 970.694 1073.02 961.296 Q1073.02 951.898 1069.13 946.574 Q1065.24 941.204 1058.48 941.204 Q1051.72 941.204 1047.83 946.574 Q1043.99 951.898 1043.99 961.296 Z" fill="#000000" fill-rule="evenodd" fill-opacity="1" /><polyline clip-path="url(#clip360)" style="stroke:#0000ff; stroke-linecap:round; stroke-linejoin:round; stroke-width:8; stroke-opacity:1; fill:none" stroke-dasharray="4, 8" points="
  524.772,1056.3 680.213,1056.3 
  "/>
<path clip-path="url(#clip360)" d="M706.12 1021.74 L749.823 1021.74 L749.823 1029.61 L715.472 1029.61 L715.472 1050.07 L748.388 1050.07 L748.388 1057.94 L715.472 1057.94 L715.472 1082.99 L750.657 1082.99 L750.657 1090.86 L706.12 1090.86 L706.12 1021.74 Z" fill="#000000" fill-rule="evenodd" fill-opacity="1" /><path clip-path="url(#clip360)" d="M765.656 1018.82 L774.175 1018.82 L774.175 1090.86 L765.656 1090.86 L765.656 1018.82 Z" fill="#000000" fill-rule="evenodd" fill-opacity="1" /><path clip-path="url(#clip360)" d="M836.351 1062.8 L836.351 1066.97 L797.184 1066.97 Q797.74 1075.76 802.462 1080.39 Q807.23 1084.98 815.703 1084.98 Q820.61 1084.98 825.193 1083.77 Q829.823 1082.57 834.36 1080.16 L834.36 1088.22 Q829.777 1090.16 824.962 1091.18 Q820.147 1092.2 815.193 1092.2 Q802.786 1092.2 795.517 1084.98 Q788.295 1077.75 788.295 1065.44 Q788.295 1052.71 795.147 1045.25 Q802.045 1037.75 813.712 1037.75 Q824.175 1037.75 830.239 1044.51 Q836.351 1051.23 836.351 1062.8 M827.832 1060.3 Q827.739 1053.31 823.897 1049.14 Q820.101 1044.98 813.804 1044.98 Q806.675 1044.98 802.369 1049 Q798.11 1053.03 797.462 1060.35 L827.832 1060.3 Z" fill="#000000" fill-rule="evenodd" fill-opacity="1" /><path clip-path="url(#clip360)" d="M887.647 1040.99 L887.647 1048.96 Q884.035 1046.97 880.378 1045.99 Q876.767 1044.98 873.063 1044.98 Q864.776 1044.98 860.193 1050.25 Q855.61 1055.49 855.61 1064.98 Q855.61 1074.47 860.193 1079.74 Q864.776 1084.98 873.063 1084.98 Q876.767 1084.98 880.378 1084 Q884.035 1082.99 887.647 1080.99 L887.647 1088.86 Q884.082 1090.53 880.239 1091.36 Q876.443 1092.2 872.137 1092.2 Q860.425 1092.2 853.526 1084.84 Q846.628 1077.48 846.628 1064.98 Q846.628 1052.29 853.573 1045.02 Q860.563 1037.75 872.693 1037.75 Q876.628 1037.75 880.378 1038.59 Q884.128 1039.37 887.647 1040.99 Z" fill="#000000" fill-rule="evenodd" fill-opacity="1" /><path clip-path="url(#clip360)" d="M910.887 1024.28 L910.887 1039 L928.433 1039 L928.433 1045.62 L910.887 1045.62 L910.887 1073.77 Q910.887 1080.11 912.6 1081.92 Q914.359 1083.73 919.683 1083.73 L928.433 1083.73 L928.433 1090.86 L919.683 1090.86 Q909.822 1090.86 906.072 1087.2 Q902.322 1083.49 902.322 1073.77 L902.322 1045.62 L896.072 1045.62 L896.072 1039 L902.322 1039 L902.322 1024.28 L910.887 1024.28 Z" fill="#000000" fill-rule="evenodd" fill-opacity="1" /><path clip-path="url(#clip360)" d="M969.683 1046.97 Q968.248 1046.13 966.535 1045.76 Q964.868 1045.35 962.831 1045.35 Q955.609 1045.35 951.72 1050.07 Q947.878 1054.74 947.878 1063.54 L947.878 1090.86 L939.313 1090.86 L939.313 1039 L947.878 1039 L947.878 1047.06 Q950.563 1042.34 954.868 1040.07 Q959.174 1037.75 965.331 1037.75 Q966.211 1037.75 967.276 1037.89 Q968.341 1037.99 969.637 1038.22 L969.683 1046.97 Z" fill="#000000" fill-rule="evenodd" fill-opacity="1" /><path clip-path="url(#clip360)" d="M978.618 1039 L987.137 1039 L987.137 1090.86 L978.618 1090.86 L978.618 1039 M978.618 1018.82 L987.137 1018.82 L987.137 1029.61 L978.618 1029.61 L978.618 1018.82 Z" fill="#000000" fill-rule="evenodd" fill-opacity="1" /><path clip-path="url(#clip360)" d="M1042.28 1040.99 L1042.28 1048.96 Q1038.66 1046.97 1035.01 1045.99 Q1031.4 1044.98 1027.69 1044.98 Q1019.41 1044.98 1014.82 1050.25 Q1010.24 1055.49 1010.24 1064.98 Q1010.24 1074.47 1014.82 1079.74 Q1019.41 1084.98 1027.69 1084.98 Q1031.4 1084.98 1035.01 1084 Q1038.66 1082.99 1042.28 1080.99 L1042.28 1088.86 Q1038.71 1090.53 1034.87 1091.36 Q1031.07 1092.2 1026.77 1092.2 Q1015.05 1092.2 1008.16 1084.84 Q1001.26 1077.48 1001.26 1064.98 Q1001.26 1052.29 1008.2 1045.02 Q1015.19 1037.75 1027.32 1037.75 Q1031.26 1037.75 1035.01 1038.59 Q1038.76 1039.37 1042.28 1040.99 Z" fill="#000000" fill-rule="evenodd" fill-opacity="1" /><path clip-path="url(#clip360)" d="M1057.09 1039 L1065.61 1039 L1065.61 1090.86 L1057.09 1090.86 L1057.09 1039 M1057.09 1018.82 L1065.61 1018.82 L1065.61 1029.61 L1057.09 1029.61 L1057.09 1018.82 Z" fill="#000000" fill-rule="evenodd" fill-opacity="1" /><path clip-path="url(#clip360)" d="M1091.86 1024.28 L1091.86 1039 L1109.4 1039 L1109.4 1045.62 L1091.86 1045.62 L1091.86 1073.77 Q1091.86 1080.11 1093.57 1081.92 Q1095.33 1083.73 1100.65 1083.73 L1109.4 1083.73 L1109.4 1090.86 L1100.65 1090.86 Q1090.79 1090.86 1087.04 1087.2 Q1083.29 1083.49 1083.29 1073.77 L1083.29 1045.62 L1077.04 1045.62 L1077.04 1039 L1083.29 1039 L1083.29 1024.28 L1091.86 1024.28 Z" fill="#000000" fill-rule="evenodd" fill-opacity="1" /><path clip-path="url(#clip360)" d="M1142.18 1095.67 Q1138.57 1104.93 1135.15 1107.75 Q1131.72 1110.58 1125.98 1110.58 L1119.17 1110.58 L1119.17 1103.45 L1124.17 1103.45 Q1127.69 1103.45 1129.64 1101.78 Q1131.58 1100.11 1133.94 1093.91 L1135.47 1090.02 L1114.5 1039 L1123.52 1039 L1139.73 1079.56 L1155.93 1039 L1164.96 1039 L1142.18 1095.67 Z" fill="#000000" fill-rule="evenodd" fill-opacity="1" /><path clip-path="url(#clip360)" d="M1216.58 1029.42 L1216.58 1055.39 L1228.34 1055.39 Q1234.87 1055.39 1238.43 1052.01 Q1242 1048.63 1242 1042.38 Q1242 1036.18 1238.43 1032.8 Q1234.87 1029.42 1228.34 1029.42 L1216.58 1029.42 M1207.23 1021.74 L1228.34 1021.74 Q1239.96 1021.74 1245.89 1027.01 Q1251.86 1032.24 1251.86 1042.38 Q1251.86 1052.62 1245.89 1057.85 Q1239.96 1063.08 1228.34 1063.08 L1216.58 1063.08 L1216.58 1090.86 L1207.23 1090.86 L1207.23 1021.74 Z" fill="#000000" fill-rule="evenodd" fill-opacity="1" /><path clip-path="url(#clip360)" d="M1292.41 1046.97 Q1290.98 1046.13 1289.26 1045.76 Q1287.6 1045.35 1285.56 1045.35 Q1278.34 1045.35 1274.45 1050.07 Q1270.61 1054.74 1270.61 1063.54 L1270.61 1090.86 L1262.04 1090.86 L1262.04 1039 L1270.61 1039 L1270.61 1047.06 Q1273.29 1042.34 1277.6 1040.07 Q1281.9 1037.75 1288.06 1037.75 Q1288.94 1037.75 1290.01 1037.89 Q1291.07 1037.99 1292.37 1038.22 L1292.41 1046.97 Z" fill="#000000" fill-rule="evenodd" fill-opacity="1" /><path clip-path="url(#clip360)" d="M1301.35 1039 L1309.87 1039 L1309.87 1090.86 L1301.35 1090.86 L1301.35 1039 M1301.35 1018.82 L1309.87 1018.82 L1309.87 1029.61 L1301.35 1029.61 L1301.35 1018.82 Z" fill="#000000" fill-rule="evenodd" fill-opacity="1" /><path clip-path="url(#clip360)" d="M1365.01 1040.99 L1365.01 1048.96 Q1361.39 1046.97 1357.74 1045.99 Q1354.13 1044.98 1350.42 1044.98 Q1342.13 1044.98 1337.55 1050.25 Q1332.97 1055.49 1332.97 1064.98 Q1332.97 1074.47 1337.55 1079.74 Q1342.13 1084.98 1350.42 1084.98 Q1354.13 1084.98 1357.74 1084 Q1361.39 1082.99 1365.01 1080.99 L1365.01 1088.86 Q1361.44 1090.53 1357.6 1091.36 Q1353.8 1092.2 1349.5 1092.2 Q1337.78 1092.2 1330.88 1084.84 Q1323.99 1077.48 1323.99 1064.98 Q1323.99 1052.29 1330.93 1045.02 Q1337.92 1037.75 1350.05 1037.75 Q1353.99 1037.75 1357.74 1038.59 Q1361.49 1039.37 1365.01 1040.99 Z" fill="#000000" fill-rule="evenodd" fill-opacity="1" /><path clip-path="url(#clip360)" d="M1424.17 1062.8 L1424.17 1066.97 L1385.01 1066.97 Q1385.56 1075.76 1390.28 1080.39 Q1395.05 1084.98 1403.52 1084.98 Q1408.43 1084.98 1413.01 1083.77 Q1417.64 1082.57 1422.18 1080.16 L1422.18 1088.22 Q1417.6 1090.16 1412.78 1091.18 Q1407.97 1092.2 1403.01 1092.2 Q1390.61 1092.2 1383.34 1084.98 Q1376.12 1077.75 1376.12 1065.44 Q1376.12 1052.71 1382.97 1045.25 Q1389.87 1037.75 1401.53 1037.75 Q1412 1037.75 1418.06 1044.51 Q1424.17 1051.23 1424.17 1062.8 M1415.65 1060.3 Q1415.56 1053.31 1411.72 1049.14 Q1407.92 1044.98 1401.63 1044.98 Q1394.5 1044.98 1390.19 1049 Q1385.93 1053.03 1385.28 1060.35 L1415.65 1060.3 Z" fill="#000000" fill-rule="evenodd" fill-opacity="1" /></svg>
