<?xml version="1.0" encoding="utf-8"?>
<svg xmlns="http://www.w3.org/2000/svg" xmlns:xlink="http://www.w3.org/1999/xlink" width="500" height="400" viewBox="0 0 2000 1600">
<defs>
  <clipPath id="clip820">
    <rect x="0" y="0" width="2000" height="1600"/>
  </clipPath>
</defs>
<path clip-path="url(#clip820)" d="
M0 1600 L2000 1600 L2000 0 L0 0  Z
  " fill="#ffffff" fill-rule="evenodd" fill-opacity="1"/>
<defs>
  <clipPath id="clip821">
    <rect x="400" y="0" width="1401" height="1401"/>
  </clipPath>
</defs>
<path clip-path="url(#clip820)" d="
M47.2441 1334.19 L1952.76 1334.19 L1952.76 47.2441 L47.2441 47.2441  Z
  " fill="#ffffff" fill-rule="evenodd" fill-opacity="1"/>
<defs>
  <clipPath id="clip822">
    <rect x="47" y="47" width="1907" height="1288"/>
  </clipPath>
</defs>
<polyline clip-path="url(#clip820)" style="stroke:#000000; stroke-linecap:butt; stroke-linejoin:round; stroke-width:4; stroke-opacity:1; fill:none" points="
  47.2441,1334.19 1952.76,1334.19 
  "/>
<polyline clip-path="url(#clip820)" style="stroke:#000000; stroke-linecap:butt; stroke-linejoin:round; stroke-width:4; stroke-opacity:1; fill:none" points="
  340.861,1334.19 340.861,1315.29 
  "/>
<polyline clip-path="url(#clip820)" style="stroke:#000000; stroke-linecap:butt; stroke-linejoin:round; stroke-width:4; stroke-opacity:1; fill:none" points="
  700.391,1334.19 700.391,1315.29 
  "/>
<polyline clip-path="url(#clip820)" style="stroke:#000000; stroke-linecap:butt; stroke-linejoin:round; stroke-width:4; stroke-opacity:1; fill:none" points="
  1059.92,1334.19 1059.92,1315.29 
  "/>
<polyline clip-path="url(#clip820)" style="stroke:#000000; stroke-linecap:butt; stroke-linejoin:round; stroke-width:4; stroke-opacity:1; fill:none" points="
  1419.45,1334.19 1419.45,1315.29 
  "/>
<polyline clip-path="url(#clip820)" style="stroke:#000000; stroke-linecap:butt; stroke-linejoin:round; stroke-width:4; stroke-opacity:1; fill:none" points="
  1778.98,1334.19 1778.98,1315.29 
  "/>
<path clip-path="url(#clip820)" d="M287.429 1396.34 L339.362 1396.34 L339.362 1403.22 L287.429 1403.22 L287.429 1396.34 Z" fill="#000000" fill-rule="evenodd" fill-opacity="1" /><path clip-path="url(#clip820)" d="M381.815 1393.18 Q387.689 1394.43 390.97 1398.4 Q394.292 1402.37 394.292 1408.21 Q394.292 1417.16 388.135 1422.06 Q381.977 1426.96 370.635 1426.96 Q366.827 1426.96 362.776 1426.19 Q358.766 1425.46 354.472 1423.96 L354.472 1416.07 Q357.874 1418.05 361.925 1419.06 Q365.976 1420.08 370.392 1420.08 Q378.089 1420.08 382.099 1417.04 Q386.15 1414 386.15 1408.21 Q386.15 1402.86 382.382 1399.86 Q378.656 1396.82 371.972 1396.82 L364.923 1396.82 L364.923 1390.1 L372.296 1390.1 Q378.332 1390.1 381.532 1387.71 Q384.732 1385.28 384.732 1380.74 Q384.732 1376.08 381.41 1373.61 Q378.129 1371.1 371.972 1371.1 Q368.609 1371.1 364.761 1371.83 Q360.913 1372.56 356.295 1374.1 L356.295 1366.81 Q360.953 1365.51 365.004 1364.86 Q369.095 1364.21 372.701 1364.21 Q382.018 1364.21 387.446 1368.47 Q392.874 1372.68 392.874 1379.89 Q392.874 1384.91 389.998 1388.4 Q387.122 1391.84 381.815 1393.18 Z" fill="#000000" fill-rule="evenodd" fill-opacity="1" /><path clip-path="url(#clip820)" d="M700.391 1370.7 Q694.072 1370.7 690.872 1376.93 Q687.712 1383.13 687.712 1395.61 Q687.712 1408.04 690.872 1414.28 Q694.072 1420.48 700.391 1420.48 Q706.751 1420.48 709.911 1414.28 Q713.111 1408.04 713.111 1395.61 Q713.111 1383.13 709.911 1376.93 Q706.751 1370.7 700.391 1370.7 M700.391 1364.21 Q710.559 1364.21 715.906 1372.28 Q721.294 1380.3 721.294 1395.61 Q721.294 1410.88 715.906 1418.94 Q710.559 1426.96 700.391 1426.96 Q690.223 1426.96 684.836 1418.94 Q679.489 1410.88 679.489 1395.61 Q679.489 1380.3 684.836 1372.28 Q690.223 1364.21 700.391 1364.21 Z" fill="#000000" fill-rule="evenodd" fill-opacity="1" /><path clip-path="url(#clip820)" d="M1067.36 1393.18 Q1073.23 1394.43 1076.51 1398.4 Q1079.83 1402.37 1079.83 1408.21 Q1079.83 1417.16 1073.67 1422.06 Q1067.52 1426.96 1056.17 1426.96 Q1052.37 1426.96 1048.32 1426.19 Q1044.31 1425.46 1040.01 1423.96 L1040.01 1416.07 Q1043.41 1418.05 1047.47 1419.06 Q1051.52 1420.08 1055.93 1420.08 Q1063.63 1420.08 1067.64 1417.04 Q1071.69 1414 1071.69 1408.21 Q1071.69 1402.86 1067.92 1399.86 Q1064.2 1396.82 1057.51 1396.82 L1050.46 1396.82 L1050.46 1390.1 L1057.84 1390.1 Q1063.87 1390.1 1067.07 1387.71 Q1070.27 1385.28 1070.27 1380.74 Q1070.27 1376.08 1066.95 1373.61 Q1063.67 1371.1 1057.51 1371.1 Q1054.15 1371.1 1050.3 1371.83 Q1046.45 1372.56 1041.83 1374.1 L1041.83 1366.81 Q1046.49 1365.51 1050.54 1364.86 Q1054.64 1364.21 1058.24 1364.21 Q1067.56 1364.21 1072.99 1368.47 Q1078.41 1372.68 1078.41 1379.89 Q1078.41 1384.91 1075.54 1388.4 Q1072.66 1391.84 1067.36 1393.18 Z" fill="#000000" fill-rule="evenodd" fill-opacity="1" /><path clip-path="url(#clip820)" d="M1420.16 1392.29 Q1414.65 1392.29 1411.41 1396.05 Q1408.21 1399.82 1408.21 1406.38 Q1408.21 1412.91 1411.41 1416.71 Q1414.65 1420.48 1420.16 1420.48 Q1425.67 1420.48 1428.87 1416.71 Q1432.11 1412.91 1432.11 1406.38 Q1432.11 1399.82 1428.87 1396.05 Q1425.67 1392.29 1420.16 1392.29 M1436.41 1366.64 L1436.41 1374.1 Q1433.33 1372.64 1430.17 1371.87 Q1427.05 1371.1 1423.97 1371.1 Q1415.87 1371.1 1411.57 1376.57 Q1407.32 1382.04 1406.71 1393.1 Q1409.1 1389.57 1412.71 1387.71 Q1416.31 1385.81 1420.65 1385.81 Q1429.76 1385.81 1435.03 1391.36 Q1440.33 1396.86 1440.33 1406.38 Q1440.33 1415.7 1434.83 1421.33 Q1429.32 1426.96 1420.16 1426.96 Q1409.67 1426.96 1404.12 1418.94 Q1398.57 1410.88 1398.57 1395.61 Q1398.57 1381.27 1405.38 1372.76 Q1412.18 1364.21 1423.64 1364.21 Q1426.72 1364.21 1429.84 1364.82 Q1433 1365.43 1436.41 1366.64 Z" fill="#000000" fill-rule="evenodd" fill-opacity="1" /><path clip-path="url(#clip820)" d="M1762.01 1424.53 L1762.01 1417.08 Q1765.09 1418.54 1768.25 1419.31 Q1771.41 1420.08 1774.45 1420.08 Q1782.55 1420.08 1786.8 1414.65 Q1791.1 1409.18 1791.7 1398.08 Q1789.35 1401.56 1785.75 1403.43 Q1782.14 1405.29 1777.77 1405.29 Q1768.69 1405.29 1763.39 1399.82 Q1758.12 1394.31 1758.12 1384.79 Q1758.12 1375.48 1763.63 1369.84 Q1769.14 1364.21 1778.29 1364.21 Q1788.79 1364.21 1794.3 1372.28 Q1799.84 1380.3 1799.84 1395.61 Q1799.84 1409.91 1793.04 1418.46 Q1786.27 1426.96 1774.81 1426.96 Q1771.73 1426.96 1768.57 1426.35 Q1765.41 1425.75 1762.01 1424.53 M1778.29 1398.89 Q1783.8 1398.89 1787 1395.12 Q1790.24 1391.36 1790.24 1384.79 Q1790.24 1378.27 1787 1374.5 Q1783.8 1370.7 1778.29 1370.7 Q1772.78 1370.7 1769.54 1374.5 Q1766.34 1378.27 1766.34 1384.79 Q1766.34 1391.36 1769.54 1395.12 Q1772.78 1398.89 1778.29 1398.89 Z" fill="#000000" fill-rule="evenodd" fill-opacity="1" /><path clip-path="url(#clip820)" d="M880.179 1553.4 L848.842 1471.32 L860.442 1471.32 L886.446 1540.43 L912.505 1471.32 L924.05 1471.32 L892.768 1553.4 L880.179 1553.4 Z" fill="#000000" fill-rule="evenodd" fill-opacity="1" /><path clip-path="url(#clip820)" d="M954.837 1522.45 Q942.577 1522.45 937.849 1525.26 Q933.121 1528.06 933.121 1534.82 Q933.121 1540.21 936.64 1543.4 Q940.213 1546.53 946.315 1546.53 Q954.727 1546.53 959.785 1540.59 Q964.897 1534.6 964.897 1524.71 L964.897 1522.45 L954.837 1522.45 M975.013 1518.27 L975.013 1553.4 L964.897 1553.4 L964.897 1544.06 Q961.434 1549.67 956.266 1552.36 Q951.098 1555 943.622 1555 Q934.166 1555 928.558 1549.72 Q923.005 1544.39 923.005 1535.48 Q923.005 1525.09 929.932 1519.81 Q936.914 1514.54 950.714 1514.54 L964.897 1514.54 L964.897 1513.55 Q964.897 1506.56 960.279 1502.77 Q955.716 1498.92 947.415 1498.92 Q942.137 1498.92 937.134 1500.19 Q932.131 1501.45 927.513 1503.98 L927.513 1494.63 Q933.066 1492.49 938.289 1491.45 Q943.512 1490.35 948.459 1490.35 Q961.819 1490.35 968.416 1497.27 Q975.013 1504.2 975.013 1518.27 Z" fill="#000000" fill-rule="evenodd" fill-opacity="1" /><path clip-path="url(#clip820)" d="M995.849 1467.86 L1005.96 1467.86 L1005.96 1553.4 L995.849 1553.4 L995.849 1467.86 Z" fill="#000000" fill-rule="evenodd" fill-opacity="1" /><path clip-path="url(#clip820)" d="M1026.09 1529.1 L1026.09 1491.83 L1036.2 1491.83 L1036.2 1528.72 Q1036.2 1537.46 1039.61 1541.86 Q1043.02 1546.2 1049.84 1546.2 Q1058.03 1546.2 1062.76 1540.98 Q1067.54 1535.76 1067.54 1526.74 L1067.54 1491.83 L1077.65 1491.83 L1077.65 1553.4 L1067.54 1553.4 L1067.54 1543.95 Q1063.86 1549.56 1058.96 1552.3 Q1054.12 1555 1047.69 1555 Q1037.08 1555 1031.58 1548.4 Q1026.09 1541.8 1026.09 1529.1 M1051.54 1490.35 L1051.54 1490.35 Z" fill="#000000" fill-rule="evenodd" fill-opacity="1" /><path clip-path="url(#clip820)" d="M1151.16 1520.09 L1151.16 1525.04 L1104.65 1525.04 Q1105.31 1535.48 1110.92 1540.98 Q1116.58 1546.42 1126.64 1546.42 Q1132.47 1546.42 1137.91 1544.99 Q1143.41 1543.56 1148.79 1540.7 L1148.79 1550.27 Q1143.35 1552.58 1137.63 1553.79 Q1131.92 1555 1126.03 1555 Q1111.3 1555 1102.67 1546.42 Q1094.09 1537.85 1094.09 1523.22 Q1094.09 1508.1 1102.23 1499.25 Q1110.42 1490.35 1124.27 1490.35 Q1136.7 1490.35 1143.9 1498.37 Q1151.16 1506.34 1151.16 1520.09 M1141.04 1517.12 Q1140.93 1508.82 1136.37 1503.87 Q1131.86 1498.92 1124.38 1498.92 Q1115.92 1498.92 1110.81 1503.71 Q1105.75 1508.49 1104.98 1517.17 L1141.04 1517.12 Z" fill="#000000" fill-rule="evenodd" fill-opacity="1" /><polyline clip-path="url(#clip822)" style="stroke:#ff0000; stroke-linecap:butt; stroke-linejoin:round; stroke-width:4; stroke-opacity:1; fill:none" stroke-dasharray="16, 10" points="
  101.174,1260.51 119.332,1258.24 137.49,1255.76 155.648,1253.04 173.806,1250.06 191.964,1246.78 210.122,1243.15 228.28,1239.12 246.439,1234.65 264.597,1229.66 
  282.755,1224.07 300.913,1217.78 319.071,1210.68 337.229,1202.63 355.387,1193.46 373.545,1182.96 391.703,1170.88 409.862,1156.9 428.02,1140.64 446.178,1121.62 
  464.336,1099.25 482.494,1072.79 500.652,1041.34 518.81,1003.83 536.968,958.996 555.126,905.454 573.284,841.877 591.443,767.385 609.601,682.289 627.759,589.286 
  645.917,494.93 664.075,410.528 682.233,350.794 700.391,329.055 718.549,350.794 736.707,410.528 754.866,494.93 773.024,589.286 791.182,682.289 809.34,767.385 
  827.498,841.877 845.656,905.454 863.814,958.996 881.972,1003.83 900.13,1041.34 918.289,1072.79 936.447,1099.25 954.605,1121.62 972.763,1140.64 990.921,1156.9 
  1009.08,1170.88 1027.24,1182.96 1045.4,1193.46 1063.55,1202.63 1081.71,1210.68 1099.87,1217.78 1118.03,1224.07 1136.19,1229.66 1154.34,1234.65 1172.5,1239.12 
  1190.66,1243.15 1208.82,1246.78 1226.98,1250.06 1245.13,1253.04 1263.29,1255.76 1281.45,1258.24 1299.61,1260.51 1317.77,1262.59 1335.92,1264.5 1354.08,1266.26 
  1372.24,1267.89 1390.4,1269.4 1408.56,1270.79 1426.72,1272.09 1444.87,1273.3 1463.03,1274.42 1481.19,1275.47 1499.35,1276.45 1517.51,1277.37 1535.66,1278.23 
  1553.82,1279.03 1571.98,1279.79 1590.14,1280.5 1608.3,1281.18 1626.45,1281.81 1644.61,1282.41 1662.77,1282.97 1680.93,1283.51 1699.09,1284.01 1717.25,1284.49 
  1735.4,1284.95 1753.56,1285.38 1771.72,1285.79 1789.88,1286.18 1808.04,1286.56 1826.19,1286.91 1844.35,1287.25 1862.51,1287.57 1880.67,1287.88 1898.83,1288.17 
  
  "/>
<polyline clip-path="url(#clip822)" style="stroke:#0000ff; stroke-linecap:butt; stroke-linejoin:round; stroke-width:4; stroke-opacity:1; fill:none" points="
  101.174,1297.76 119.332,1297.76 137.49,1297.75 155.648,1297.73 173.806,1297.69 191.964,1297.61 210.122,1297.48 228.28,1297.25 246.439,1296.83 264.597,1296.13 
  282.755,1294.96 300.913,1293.07 319.071,1290.08 337.229,1285.46 355.387,1278.5 373.545,1268.31 391.703,1253.75 409.862,1233.48 428.02,1206.01 446.178,1169.77 
  464.336,1123.27 482.494,1065.27 500.652,995.027 518.81,912.506 536.968,818.619 555.126,715.376 573.284,605.953 591.443,494.621 609.601,386.534 627.759,287.365 
  645.917,202.829 664.075,138.15 682.233,97.5233 700.391,83.667 718.549,97.5233 736.707,138.15 754.866,202.829 773.024,287.365 791.182,386.534 809.34,494.621 
  827.498,605.953 845.656,715.376 863.814,818.619 881.972,912.506 900.13,995.027 918.289,1065.27 936.447,1123.27 954.605,1169.77 972.763,1206.01 990.921,1233.48 
  1009.08,1253.75 1027.24,1268.31 1045.4,1278.5 1063.55,1285.46 1081.71,1290.08 1099.87,1293.07 1118.03,1294.96 1136.19,1296.13 1154.34,1296.83 1172.5,1297.25 
  1190.66,1297.48 1208.82,1297.61 1226.98,1297.69 1245.13,1297.73 1263.29,1297.75 1281.45,1297.76 1299.61,1297.76 1317.77,1297.76 1335.92,1297.76 1354.08,1297.76 
  1372.24,1297.76 1390.4,1297.76 1408.56,1297.76 1426.72,1297.76 1444.87,1297.76 1463.03,1297.76 1481.19,1297.76 1499.35,1297.76 1517.51,1297.76 1535.66,1297.76 
  1553.82,1297.76 1571.98,1297.76 1590.14,1297.76 1608.3,1297.76 1626.45,1297.76 1644.61,1297.76 1662.77,1297.76 1680.93,1297.76 1699.09,1297.76 1717.25,1297.76 
  1735.4,1297.76 1753.56,1297.76 1771.72,1297.76 1789.88,1297.76 1808.04,1297.76 1826.19,1297.76 1844.35,1297.76 1862.51,1297.76 1880.67,1297.76 1898.83,1297.76 
  
  "/>
<path clip-path="url(#clip822)" d="
M918.289 1072.79 L936.447 1099.25 L954.605 1121.62 L972.763 1140.64 L990.921 1156.9 L1009.08 1170.88 L1027.24 1182.96 L1045.4 1193.46 L1063.55 1202.63 L1081.71 1210.68 
  L1099.87 1217.78 L1118.03 1224.07 L1136.19 1229.66 L1154.34 1234.65 L1172.5 1239.12 L1190.66 1243.15 L1208.82 1246.78 L1226.98 1250.06 L1245.13 1253.04 L1263.29 1255.76 
  L1281.45 1258.24 L1299.61 1260.51 L1317.77 1262.59 L1335.92 1264.5 L1354.08 1266.26 L1372.24 1267.89 L1390.4 1269.4 L1408.56 1270.79 L1426.72 1272.09 L1444.87 1273.3 
  L1463.03 1274.42 L1481.19 1275.47 L1499.35 1276.45 L1517.51 1277.37 L1535.66 1278.23 L1553.82 1279.03 L1571.98 1279.79 L1590.14 1280.5 L1608.3 1281.18 L1626.45 1281.81 
  L1644.61 1282.41 L1662.77 1282.97 L1680.93 1283.51 L1699.09 1284.01 L1717.25 1284.49 L1735.4 1284.95 L1753.56 1285.38 L1771.72 1285.79 L1789.88 1286.18 L1808.04 1286.56 
  L1826.19 1286.91 L1844.35 1287.25 L1862.51 1287.57 L1880.67 1287.88 L1898.83 1288.17 L1898.83 1297.76 L1880.67 1297.76 L1862.51 1297.76 L1844.35 1297.76 L1826.19 1297.76 
  L1808.04 1297.76 L1789.88 1297.76 L1771.72 1297.76 L1753.56 1297.76 L1735.4 1297.76 L1717.25 1297.76 L1699.09 1297.76 L1680.93 1297.76 L1662.77 1297.76 L1644.61 1297.76 
  L1626.45 1297.76 L1608.3 1297.76 L1590.14 1297.76 L1571.98 1297.76 L1553.82 1297.76 L1535.66 1297.76 L1517.51 1297.76 L1499.35 1297.76 L1481.19 1297.76 L1463.03 1297.76 
  L1444.87 1297.76 L1426.72 1297.76 L1408.56 1297.76 L1390.4 1297.76 L1372.24 1297.76 L1354.08 1297.76 L1335.92 1297.76 L1317.77 1297.76 L1299.61 1297.76 L1281.45 1297.76 
  L1263.29 1297.75 L1245.13 1297.73 L1226.98 1297.69 L1208.82 1297.61 L1190.66 1297.48 L1172.5 1297.25 L1154.34 1296.83 L1136.19 1296.13 L1118.03 1294.96 L1099.87 1293.07 
  L1081.71 1290.08 L1063.55 1285.46 L1045.4 1278.5 L1027.24 1268.31 L1009.08 1253.75 L990.921 1233.48 L972.763 1206.01 L954.605 1169.77 L936.447 1123.27 L918.289 1065.27 
   Z
  " fill="#ff0000" fill-rule="evenodd" fill-opacity="0.2"/>
<polyline clip-path="url(#clip822)" style="stroke:#000000; stroke-linecap:butt; stroke-linejoin:round; stroke-width:4; stroke-opacity:0; fill:none" points="
  918.289,1072.79 936.447,1099.25 954.605,1121.62 972.763,1140.64 990.921,1156.9 1009.08,1170.88 1027.24,1182.96 1045.4,1193.46 1063.55,1202.63 1081.71,1210.68 
  1099.87,1217.78 1118.03,1224.07 1136.19,1229.66 1154.34,1234.65 1172.5,1239.12 1190.66,1243.15 1208.82,1246.78 1226.98,1250.06 1245.13,1253.04 1263.29,1255.76 
  1281.45,1258.24 1299.61,1260.51 1317.77,1262.59 1335.92,1264.5 1354.08,1266.26 1372.24,1267.89 1390.4,1269.4 1408.56,1270.79 1426.72,1272.09 1444.87,1273.3 
  1463.03,1274.42 1481.19,1275.47 1499.35,1276.45 1517.51,1277.37 1535.66,1278.23 1553.82,1279.03 1571.98,1279.79 1590.14,1280.5 1608.3,1281.18 1626.45,1281.81 
  1644.61,1282.41 1662.77,1282.97 1680.93,1283.51 1699.09,1284.01 1717.25,1284.49 1735.4,1284.95 1753.56,1285.38 1771.72,1285.79 1789.88,1286.18 1808.04,1286.56 
  1826.19,1286.91 1844.35,1287.25 1862.51,1287.57 1880.67,1287.88 1898.83,1288.17 
  "/>
<path clip-path="url(#clip820)" d="
M870.211 362.302 L1889.24 362.302 L1889.24 90.1422 L870.211 90.1422  Z
  " fill="#ffffff" fill-rule="evenodd" fill-opacity="1"/>
<polyline clip-path="url(#clip820)" style="stroke:#000000; stroke-linecap:butt; stroke-linejoin:round; stroke-width:4; stroke-opacity:1; fill:none" points="
  870.211,362.302 1889.24,362.302 1889.24,90.1422 870.211,90.1422 870.211,362.302 
  "/>
<polyline clip-path="url(#clip820)" style="stroke:#ff0000; stroke-linecap:butt; stroke-linejoin:round; stroke-width:7; stroke-opacity:1; fill:none" stroke-dasharray="28, 18" points="
  891.383,180.862 1018.42,180.862 
  "/>
<path clip-path="url(#clip820)" d="M1088.36 155.281 L1088.36 163.909 Q1084.23 160.061 1079.53 158.157 Q1074.87 156.253 1069.61 156.253 Q1059.24 156.253 1053.73 162.613 Q1048.22 168.932 1048.22 180.923 Q1048.22 192.873 1053.73 199.233 Q1059.24 205.552 1069.61 205.552 Q1074.87 205.552 1079.53 203.649 Q1084.23 201.745 1088.36 197.896 L1088.36 206.444 Q1084.07 209.36 1079.25 210.819 Q1074.47 212.277 1069.12 212.277 Q1055.39 212.277 1047.49 203.892 Q1039.59 195.466 1039.59 180.923 Q1039.59 166.34 1047.49 157.954 Q1055.39 149.528 1069.12 149.528 Q1074.55 149.528 1079.33 150.987 Q1084.15 152.405 1088.36 155.281 Z" fill="#000000" fill-rule="evenodd" fill-opacity="1" /><path clip-path="url(#clip820)" d="M1121.3 188.296 Q1112.26 188.296 1108.78 190.362 Q1105.3 192.428 1105.3 197.41 Q1105.3 201.38 1107.89 203.73 Q1110.52 206.039 1115.02 206.039 Q1121.22 206.039 1124.94 201.664 Q1128.71 197.248 1128.71 189.956 L1128.71 188.296 L1121.3 188.296 M1136.16 185.217 L1136.16 211.102 L1128.71 211.102 L1128.71 204.216 Q1126.16 208.348 1122.35 210.333 Q1118.54 212.277 1113.03 212.277 Q1106.06 212.277 1101.93 208.388 Q1097.84 204.459 1097.84 197.896 Q1097.84 190.24 1102.95 186.351 Q1108.09 182.462 1118.26 182.462 L1128.71 182.462 L1128.71 181.733 Q1128.71 176.589 1125.31 173.793 Q1121.94 170.958 1115.83 170.958 Q1111.94 170.958 1108.25 171.889 Q1104.57 172.821 1101.16 174.685 L1101.16 167.798 Q1105.25 166.218 1109.1 165.449 Q1112.95 164.638 1116.6 164.638 Q1126.44 164.638 1131.3 169.742 Q1136.16 174.847 1136.16 185.217 Z" fill="#000000" fill-rule="evenodd" fill-opacity="1" /><path clip-path="url(#clip820)" d="M1150.75 193.197 L1150.75 165.732 L1158.2 165.732 L1158.2 192.914 Q1158.2 199.355 1160.71 202.595 Q1163.22 205.796 1168.25 205.796 Q1174.28 205.796 1177.77 201.947 Q1181.29 198.099 1181.29 191.455 L1181.29 165.732 L1188.74 165.732 L1188.74 211.102 L1181.29 211.102 L1181.29 204.135 Q1178.58 208.267 1174.97 210.292 Q1171.41 212.277 1166.67 212.277 Q1158.85 212.277 1154.8 207.416 Q1150.75 202.555 1150.75 193.197 M1169.5 164.638 L1169.5 164.638 Z" fill="#000000" fill-rule="evenodd" fill-opacity="1" /><path clip-path="url(#clip820)" d="M1236.75 167.474 L1236.75 174.442 Q1233.59 172.7 1230.39 171.849 Q1227.23 170.958 1223.99 170.958 Q1216.74 170.958 1212.73 175.576 Q1208.71 180.153 1208.71 188.458 Q1208.71 196.762 1212.73 201.38 Q1216.74 205.958 1223.99 205.958 Q1227.23 205.958 1230.39 205.107 Q1233.59 204.216 1236.75 202.474 L1236.75 209.36 Q1233.63 210.819 1230.27 211.548 Q1226.94 212.277 1223.18 212.277 Q1212.93 212.277 1206.89 205.836 Q1200.86 199.395 1200.86 188.458 Q1200.86 177.358 1206.93 170.998 Q1213.05 164.638 1223.66 164.638 Q1227.11 164.638 1230.39 165.368 Q1233.67 166.056 1236.75 167.474 Z" fill="#000000" fill-rule="evenodd" fill-opacity="1" /><path clip-path="url(#clip820)" d="M1287.42 183.718 L1287.42 211.102 L1279.97 211.102 L1279.97 183.961 Q1279.97 177.52 1277.46 174.32 Q1274.95 171.12 1269.92 171.12 Q1263.89 171.12 1260.4 174.968 Q1256.92 178.817 1256.92 185.46 L1256.92 211.102 L1249.43 211.102 L1249.43 148.07 L1256.92 148.07 L1256.92 172.781 Q1259.59 168.689 1263.2 166.664 Q1266.85 164.638 1271.58 164.638 Q1279.4 164.638 1283.41 169.499 Q1287.42 174.32 1287.42 183.718 Z" fill="#000000" fill-rule="evenodd" fill-opacity="1" /><path clip-path="url(#clip820)" d="M1321.17 215.315 Q1318.01 223.417 1315.01 225.888 Q1312.01 228.359 1306.99 228.359 L1301.03 228.359 L1301.03 222.121 L1305.41 222.121 Q1308.49 222.121 1310.19 220.662 Q1311.89 219.204 1313.96 213.776 L1315.29 210.373 L1296.94 165.732 L1304.84 165.732 L1319.02 201.218 L1333.2 165.732 L1341.1 165.732 L1321.17 215.315 Z" fill="#000000" fill-rule="evenodd" fill-opacity="1" /><path clip-path="url(#clip820)" d="M1386.27 157.347 L1386.27 204.378 L1396.15 204.378 Q1408.67 204.378 1414.46 198.706 Q1420.29 193.035 1420.29 180.801 Q1420.29 168.649 1414.46 163.018 Q1408.67 157.347 1396.15 157.347 L1386.27 157.347 M1378.08 150.622 L1394.89 150.622 Q1412.48 150.622 1420.7 157.954 Q1428.92 165.246 1428.92 180.801 Q1428.92 196.438 1420.66 203.77 Q1412.39 211.102 1394.89 211.102 L1378.08 211.102 L1378.08 150.622 Z" fill="#000000" fill-rule="evenodd" fill-opacity="1" /><path clip-path="url(#clip820)" d="M1441.64 165.732 L1449.1 165.732 L1449.1 211.102 L1441.64 211.102 L1441.64 165.732 M1441.64 148.07 L1449.1 148.07 L1449.1 157.509 L1441.64 157.509 L1441.64 148.07 Z" fill="#000000" fill-rule="evenodd" fill-opacity="1" /><path clip-path="url(#clip820)" d="M1493.61 167.069 L1493.61 174.117 Q1490.46 172.497 1487.05 171.687 Q1483.65 170.877 1480 170.877 Q1474.45 170.877 1471.66 172.578 Q1468.9 174.28 1468.9 177.682 Q1468.9 180.275 1470.89 181.774 Q1472.87 183.232 1478.87 184.569 L1481.42 185.136 Q1489.36 186.837 1492.68 189.956 Q1496.05 193.035 1496.05 198.585 Q1496.05 204.904 1491.02 208.591 Q1486.04 212.277 1477.29 212.277 Q1473.64 212.277 1469.67 211.548 Q1465.74 210.859 1461.37 209.441 L1461.37 201.745 Q1465.5 203.892 1469.51 204.985 Q1473.52 206.039 1477.45 206.039 Q1482.72 206.039 1485.55 204.256 Q1488.39 202.433 1488.39 199.152 Q1488.39 196.114 1486.32 194.494 Q1484.3 192.873 1477.37 191.374 L1474.78 190.767 Q1467.85 189.308 1464.77 186.311 Q1461.69 183.273 1461.69 178.006 Q1461.69 171.606 1466.23 168.122 Q1470.77 164.638 1479.11 164.638 Q1483.24 164.638 1486.89 165.246 Q1490.54 165.854 1493.61 167.069 Z" fill="#000000" fill-rule="evenodd" fill-opacity="1" /><path clip-path="url(#clip820)" d="M1515.29 152.85 L1515.29 165.732 L1530.64 165.732 L1530.64 171.525 L1515.29 171.525 L1515.29 196.154 Q1515.29 201.704 1516.79 203.284 Q1518.33 204.864 1522.98 204.864 L1530.64 204.864 L1530.64 211.102 L1522.98 211.102 Q1514.36 211.102 1511.07 207.902 Q1507.79 204.661 1507.79 196.154 L1507.79 171.525 L1502.32 171.525 L1502.32 165.732 L1507.79 165.732 L1507.79 152.85 L1515.29 152.85 Z" fill="#000000" fill-rule="evenodd" fill-opacity="1" /><path clip-path="url(#clip820)" d="M1566.73 172.7 Q1565.48 171.97 1563.98 171.646 Q1562.52 171.282 1560.74 171.282 Q1554.42 171.282 1551.02 175.414 Q1547.65 179.505 1547.65 187.202 L1547.65 211.102 L1540.16 211.102 L1540.16 165.732 L1547.65 165.732 L1547.65 172.781 Q1550 168.649 1553.77 166.664 Q1557.54 164.638 1562.93 164.638 Q1563.7 164.638 1564.63 164.76 Q1565.56 164.841 1566.69 165.043 L1566.73 172.7 Z" fill="#000000" fill-rule="evenodd" fill-opacity="1" /><path clip-path="url(#clip820)" d="M1574.55 165.732 L1582.01 165.732 L1582.01 211.102 L1574.55 211.102 L1574.55 165.732 M1574.55 148.07 L1582.01 148.07 L1582.01 157.509 L1574.55 157.509 L1574.55 148.07 Z" fill="#000000" fill-rule="evenodd" fill-opacity="1" /><path clip-path="url(#clip820)" d="M1630.17 188.458 Q1630.17 180.234 1626.77 175.576 Q1623.41 170.877 1617.49 170.877 Q1611.58 170.877 1608.17 175.576 Q1604.81 180.234 1604.81 188.458 Q1604.81 196.681 1608.17 201.38 Q1611.58 206.039 1617.49 206.039 Q1623.41 206.039 1626.77 201.38 Q1630.17 196.681 1630.17 188.458 M1604.81 172.619 Q1607.16 168.568 1610.73 166.623 Q1614.33 164.638 1619.31 164.638 Q1627.58 164.638 1632.72 171.201 Q1637.91 177.763 1637.91 188.458 Q1637.91 199.152 1632.72 205.715 Q1627.58 212.277 1619.31 212.277 Q1614.33 212.277 1610.73 210.333 Q1607.16 208.348 1604.81 204.297 L1604.81 211.102 L1597.32 211.102 L1597.32 148.07 L1604.81 148.07 L1604.81 172.619 Z" fill="#000000" fill-rule="evenodd" fill-opacity="1" /><path clip-path="url(#clip820)" d="M1649.49 193.197 L1649.49 165.732 L1656.95 165.732 L1656.95 192.914 Q1656.95 199.355 1659.46 202.595 Q1661.97 205.796 1666.99 205.796 Q1673.03 205.796 1676.51 201.947 Q1680.04 198.099 1680.04 191.455 L1680.04 165.732 L1687.49 165.732 L1687.49 211.102 L1680.04 211.102 L1680.04 204.135 Q1677.32 208.267 1673.72 210.292 Q1670.15 212.277 1665.41 212.277 Q1657.6 212.277 1653.54 207.416 Q1649.49 202.555 1649.49 193.197 M1668.25 164.638 L1668.25 164.638 Z" fill="#000000" fill-rule="evenodd" fill-opacity="1" /><path clip-path="url(#clip820)" d="M1710.22 152.85 L1710.22 165.732 L1725.57 165.732 L1725.57 171.525 L1710.22 171.525 L1710.22 196.154 Q1710.22 201.704 1711.72 203.284 Q1713.25 204.864 1717.91 204.864 L1725.57 204.864 L1725.57 211.102 L1717.91 211.102 Q1709.28 211.102 1706 207.902 Q1702.72 204.661 1702.72 196.154 L1702.72 171.525 L1697.25 171.525 L1697.25 165.732 L1702.72 165.732 L1702.72 152.85 L1710.22 152.85 Z" fill="#000000" fill-rule="evenodd" fill-opacity="1" /><path clip-path="url(#clip820)" d="M1735.37 165.732 L1742.83 165.732 L1742.83 211.102 L1735.37 211.102 L1735.37 165.732 M1735.37 148.07 L1742.83 148.07 L1742.83 157.509 L1735.37 157.509 L1735.37 148.07 Z" fill="#000000" fill-rule="evenodd" fill-opacity="1" /><path clip-path="url(#clip820)" d="M1776 170.958 Q1770.01 170.958 1766.52 175.657 Q1763.04 180.315 1763.04 188.458 Q1763.04 196.6 1766.48 201.299 Q1769.97 205.958 1776 205.958 Q1781.96 205.958 1785.44 201.259 Q1788.93 196.559 1788.93 188.458 Q1788.93 180.396 1785.44 175.697 Q1781.96 170.958 1776 170.958 M1776 164.638 Q1785.73 164.638 1791.28 170.958 Q1796.82 177.277 1796.82 188.458 Q1796.82 199.598 1791.28 205.958 Q1785.73 212.277 1776 212.277 Q1766.24 212.277 1760.69 205.958 Q1755.18 199.598 1755.18 188.458 Q1755.18 177.277 1760.69 170.958 Q1766.24 164.638 1776 164.638 Z" fill="#000000" fill-rule="evenodd" fill-opacity="1" /><path clip-path="url(#clip820)" d="M1846.89 183.718 L1846.89 211.102 L1839.44 211.102 L1839.44 183.961 Q1839.44 177.52 1836.93 174.32 Q1834.42 171.12 1829.39 171.12 Q1823.36 171.12 1819.87 174.968 Q1816.39 178.817 1816.39 185.46 L1816.39 211.102 L1808.9 211.102 L1808.9 165.732 L1816.39 165.732 L1816.39 172.781 Q1819.06 168.689 1822.67 166.664 Q1826.32 164.638 1831.06 164.638 Q1838.87 164.638 1842.88 169.499 Q1846.89 174.32 1846.89 183.718 Z" fill="#000000" fill-rule="evenodd" fill-opacity="1" /><polyline clip-path="url(#clip820)" style="stroke:#0000ff; stroke-linecap:butt; stroke-linejoin:round; stroke-width:7; stroke-opacity:1; fill:none" points="
  891.383,271.582 1018.42,271.582 
  "/>
<path clip-path="url(#clip820)" d="M1039.59 241.342 L1050.61 241.342 L1077.42 291.938 L1077.42 241.342 L1085.36 241.342 L1085.36 301.822 L1074.35 301.822 L1047.53 251.226 L1047.53 301.822 L1039.59 301.822 L1039.59 241.342 Z" fill="#000000" fill-rule="evenodd" fill-opacity="1" /><path clip-path="url(#clip820)" d="M1118.91 261.678 Q1112.91 261.678 1109.43 266.377 Q1105.94 271.035 1105.94 279.178 Q1105.94 287.32 1109.39 292.019 Q1112.87 296.678 1118.91 296.678 Q1124.86 296.678 1128.34 291.979 Q1131.83 287.279 1131.83 279.178 Q1131.83 271.116 1128.34 266.417 Q1124.86 261.678 1118.91 261.678 M1118.91 255.358 Q1128.63 255.358 1134.18 261.678 Q1139.73 267.997 1139.73 279.178 Q1139.73 290.318 1134.18 296.678 Q1128.63 302.997 1118.91 302.997 Q1109.14 302.997 1103.59 296.678 Q1098.08 290.318 1098.08 279.178 Q1098.08 267.997 1103.59 261.678 Q1109.14 255.358 1118.91 255.358 Z" fill="#000000" fill-rule="evenodd" fill-opacity="1" /><path clip-path="url(#clip820)" d="M1178.37 263.42 Q1177.12 262.69 1175.62 262.366 Q1174.16 262.002 1172.38 262.002 Q1166.06 262.002 1162.66 266.134 Q1159.29 270.225 1159.29 277.922 L1159.29 301.822 L1151.8 301.822 L1151.8 256.452 L1159.29 256.452 L1159.29 263.501 Q1161.64 259.369 1165.41 257.384 Q1169.18 255.358 1174.57 255.358 Q1175.34 255.358 1176.27 255.48 Q1177.2 255.561 1178.33 255.763 L1178.37 263.42 Z" fill="#000000" fill-rule="evenodd" fill-opacity="1" /><path clip-path="url(#clip820)" d="M1220.06 265.162 Q1222.85 260.138 1226.74 257.748 Q1230.63 255.358 1235.9 255.358 Q1242.99 255.358 1246.83 260.341 Q1250.68 265.283 1250.68 274.438 L1250.68 301.822 L1243.19 301.822 L1243.19 274.681 Q1243.19 268.159 1240.88 265 Q1238.57 261.84 1233.83 261.84 Q1228.04 261.84 1224.68 265.688 Q1221.31 269.537 1221.31 276.18 L1221.31 301.822 L1213.82 301.822 L1213.82 274.681 Q1213.82 268.119 1211.51 265 Q1209.2 261.84 1204.38 261.84 Q1198.67 261.84 1195.31 265.729 Q1191.94 269.577 1191.94 276.18 L1191.94 301.822 L1184.45 301.822 L1184.45 256.452 L1191.94 256.452 L1191.94 263.501 Q1194.5 259.328 1198.06 257.343 Q1201.63 255.358 1206.53 255.358 Q1211.47 255.358 1214.91 257.87 Q1218.4 260.381 1220.06 265.162 Z" fill="#000000" fill-rule="evenodd" fill-opacity="1" /><path clip-path="url(#clip820)" d="M1286.17 279.016 Q1277.13 279.016 1273.65 281.082 Q1270.17 283.148 1270.17 288.13 Q1270.17 292.1 1272.76 294.45 Q1275.39 296.759 1279.89 296.759 Q1286.09 296.759 1289.81 292.384 Q1293.58 287.968 1293.58 280.676 L1293.58 279.016 L1286.17 279.016 M1301.03 275.937 L1301.03 301.822 L1293.58 301.822 L1293.58 294.936 Q1291.03 299.068 1287.22 301.053 Q1283.41 302.997 1277.9 302.997 Q1270.94 302.997 1266.8 299.108 Q1262.71 295.179 1262.71 288.616 Q1262.71 280.96 1267.82 277.071 Q1272.96 273.182 1283.13 273.182 L1293.58 273.182 L1293.58 272.453 Q1293.58 267.309 1290.18 264.513 Q1286.82 261.678 1280.7 261.678 Q1276.81 261.678 1273.12 262.609 Q1269.44 263.541 1266.03 265.405 L1266.03 258.518 Q1270.13 256.938 1273.97 256.169 Q1277.82 255.358 1281.47 255.358 Q1291.31 255.358 1296.17 260.462 Q1301.03 265.567 1301.03 275.937 Z" fill="#000000" fill-rule="evenodd" fill-opacity="1" /><path clip-path="url(#clip820)" d="M1316.39 238.79 L1323.84 238.79 L1323.84 301.822 L1316.39 301.822 L1316.39 238.79 Z" fill="#000000" fill-rule="evenodd" fill-opacity="1" /><path clip-path="url(#clip820)" d="M1374.32 248.067 L1374.32 295.098 L1384.2 295.098 Q1396.72 295.098 1402.51 289.426 Q1408.34 283.755 1408.34 271.521 Q1408.34 259.369 1402.51 253.738 Q1396.72 248.067 1384.2 248.067 L1374.32 248.067 M1366.13 241.342 L1382.94 241.342 Q1400.53 241.342 1408.75 248.674 Q1416.97 255.966 1416.97 271.521 Q1416.97 287.158 1408.71 294.49 Q1400.44 301.822 1382.94 301.822 L1366.13 301.822 L1366.13 241.342 Z" fill="#000000" fill-rule="evenodd" fill-opacity="1" /><path clip-path="url(#clip820)" d="M1429.69 256.452 L1437.15 256.452 L1437.15 301.822 L1429.69 301.822 L1429.69 256.452 M1429.69 238.79 L1437.15 238.79 L1437.15 248.229 L1429.69 248.229 L1429.69 238.79 Z" fill="#000000" fill-rule="evenodd" fill-opacity="1" /><path clip-path="url(#clip820)" d="M1481.66 257.789 L1481.66 264.837 Q1478.5 263.217 1475.1 262.407 Q1471.7 261.597 1468.05 261.597 Q1462.5 261.597 1459.71 263.298 Q1456.95 265 1456.95 268.402 Q1456.95 270.995 1458.94 272.494 Q1460.92 273.952 1466.92 275.289 L1469.47 275.856 Q1477.41 277.557 1480.73 280.676 Q1484.1 283.755 1484.1 289.305 Q1484.1 295.624 1479.07 299.311 Q1474.09 302.997 1465.34 302.997 Q1461.69 302.997 1457.72 302.268 Q1453.79 301.579 1449.42 300.161 L1449.42 292.465 Q1453.55 294.612 1457.56 295.705 Q1461.57 296.759 1465.5 296.759 Q1470.77 296.759 1473.6 294.976 Q1476.44 293.153 1476.44 289.872 Q1476.44 286.834 1474.37 285.214 Q1472.35 283.593 1465.42 282.094 L1462.83 281.487 Q1455.9 280.028 1452.82 277.031 Q1449.74 273.993 1449.74 268.726 Q1449.74 262.326 1454.28 258.842 Q1458.82 255.358 1467.16 255.358 Q1471.29 255.358 1474.94 255.966 Q1478.59 256.574 1481.66 257.789 Z" fill="#000000" fill-rule="evenodd" fill-opacity="1" /><path clip-path="url(#clip820)" d="M1503.34 243.57 L1503.34 256.452 L1518.69 256.452 L1518.69 262.245 L1503.34 262.245 L1503.34 286.874 Q1503.34 292.424 1504.84 294.004 Q1506.38 295.584 1511.03 295.584 L1518.69 295.584 L1518.69 301.822 L1511.03 301.822 Q1502.41 301.822 1499.12 298.622 Q1495.84 295.381 1495.84 286.874 L1495.84 262.245 L1490.37 262.245 L1490.37 256.452 L1495.84 256.452 L1495.84 243.57 L1503.34 243.57 Z" fill="#000000" fill-rule="evenodd" fill-opacity="1" /><path clip-path="url(#clip820)" d="M1554.78 263.42 Q1553.53 262.69 1552.03 262.366 Q1550.57 262.002 1548.79 262.002 Q1542.47 262.002 1539.07 266.134 Q1535.7 270.225 1535.7 277.922 L1535.7 301.822 L1528.21 301.822 L1528.21 256.452 L1535.7 256.452 L1535.7 263.501 Q1538.05 259.369 1541.82 257.384 Q1545.59 255.358 1550.98 255.358 Q1551.75 255.358 1552.68 255.48 Q1553.61 255.561 1554.74 255.763 L1554.78 263.42 Z" fill="#000000" fill-rule="evenodd" fill-opacity="1" /><path clip-path="url(#clip820)" d="M1562.6 256.452 L1570.06 256.452 L1570.06 301.822 L1562.6 301.822 L1562.6 256.452 M1562.6 238.79 L1570.06 238.79 L1570.06 248.229 L1562.6 248.229 L1562.6 238.79 Z" fill="#000000" fill-rule="evenodd" fill-opacity="1" /><path clip-path="url(#clip820)" d="M1618.22 279.178 Q1618.22 270.954 1614.82 266.296 Q1611.46 261.597 1605.54 261.597 Q1599.63 261.597 1596.22 266.296 Q1592.86 270.954 1592.86 279.178 Q1592.86 287.401 1596.22 292.1 Q1599.63 296.759 1605.54 296.759 Q1611.46 296.759 1614.82 292.1 Q1618.22 287.401 1618.22 279.178 M1592.86 263.339 Q1595.21 259.288 1598.78 257.343 Q1602.38 255.358 1607.36 255.358 Q1615.63 255.358 1620.77 261.921 Q1625.96 268.483 1625.96 279.178 Q1625.96 289.872 1620.77 296.435 Q1615.63 302.997 1607.36 302.997 Q1602.38 302.997 1598.78 301.053 Q1595.21 299.068 1592.86 295.017 L1592.86 301.822 L1585.37 301.822 L1585.37 238.79 L1592.86 238.79 L1592.86 263.339 Z" fill="#000000" fill-rule="evenodd" fill-opacity="1" /><path clip-path="url(#clip820)" d="M1637.54 283.917 L1637.54 256.452 L1645 256.452 L1645 283.634 Q1645 290.075 1647.51 293.315 Q1650.02 296.516 1655.04 296.516 Q1661.08 296.516 1664.56 292.667 Q1668.09 288.819 1668.09 282.175 L1668.09 256.452 L1675.54 256.452 L1675.54 301.822 L1668.09 301.822 L1668.09 294.855 Q1665.37 298.987 1661.77 301.012 Q1658.2 302.997 1653.46 302.997 Q1645.65 302.997 1641.59 298.136 Q1637.54 293.275 1637.54 283.917 M1656.3 255.358 L1656.3 255.358 Z" fill="#000000" fill-rule="evenodd" fill-opacity="1" /><path clip-path="url(#clip820)" d="M1698.27 243.57 L1698.27 256.452 L1713.62 256.452 L1713.62 262.245 L1698.27 262.245 L1698.27 286.874 Q1698.27 292.424 1699.77 294.004 Q1701.3 295.584 1705.96 295.584 L1713.62 295.584 L1713.62 301.822 L1705.96 301.822 Q1697.33 301.822 1694.05 298.622 Q1690.77 295.381 1690.77 286.874 L1690.77 262.245 L1685.3 262.245 L1685.3 256.452 L1690.77 256.452 L1690.77 243.57 L1698.27 243.57 Z" fill="#000000" fill-rule="evenodd" fill-opacity="1" /><path clip-path="url(#clip820)" d="M1723.42 256.452 L1730.88 256.452 L1730.88 301.822 L1723.42 301.822 L1723.42 256.452 M1723.42 238.79 L1730.88 238.79 L1730.88 248.229 L1723.42 248.229 L1723.42 238.79 Z" fill="#000000" fill-rule="evenodd" fill-opacity="1" /><path clip-path="url(#clip820)" d="M1764.05 261.678 Q1758.06 261.678 1754.57 266.377 Q1751.09 271.035 1751.09 279.178 Q1751.09 287.32 1754.53 292.019 Q1758.02 296.678 1764.05 296.678 Q1770.01 296.678 1773.49 291.979 Q1776.98 287.279 1776.98 279.178 Q1776.98 271.116 1773.49 266.417 Q1770.01 261.678 1764.05 261.678 M1764.05 255.358 Q1773.78 255.358 1779.33 261.678 Q1784.87 267.997 1784.87 279.178 Q1784.87 290.318 1779.33 296.678 Q1773.78 302.997 1764.05 302.997 Q1754.29 302.997 1748.74 296.678 Q1743.23 290.318 1743.23 279.178 Q1743.23 267.997 1748.74 261.678 Q1754.29 255.358 1764.05 255.358 Z" fill="#000000" fill-rule="evenodd" fill-opacity="1" /><path clip-path="url(#clip820)" d="M1834.94 274.438 L1834.94 301.822 L1827.49 301.822 L1827.49 274.681 Q1827.49 268.24 1824.98 265.04 Q1822.47 261.84 1817.44 261.84 Q1811.41 261.84 1807.92 265.688 Q1804.44 269.537 1804.44 276.18 L1804.44 301.822 L1796.95 301.822 L1796.95 256.452 L1804.44 256.452 L1804.44 263.501 Q1807.11 259.409 1810.72 257.384 Q1814.37 255.358 1819.1 255.358 Q1826.92 255.358 1830.93 260.219 Q1834.94 265.04 1834.94 274.438 Z" fill="#000000" fill-rule="evenodd" fill-opacity="1" /></svg>
