<?xml version="1.0" encoding="utf-8"?>
<svg xmlns="http://www.w3.org/2000/svg" xmlns:xlink="http://www.w3.org/1999/xlink" width="500" height="400" viewBox="0 0 2000 1600">
<defs>
  <clipPath id="clip940">
    <rect x="0" y="0" width="2000" height="1600"/>
  </clipPath>
</defs>
<path clip-path="url(#clip940)" d="
M0 1600 L2000 1600 L2000 0 L0 0  Z
  " fill="#ffffff" fill-rule="evenodd" fill-opacity="1"/>
<defs>
  <clipPath id="clip941">
    <rect x="400" y="0" width="1401" height="1401"/>
  </clipPath>
</defs>
<path clip-path="url(#clip940)" d="
M47.2441 1334.19 L1952.76 1334.19 L1952.76 47.2441 L47.2441 47.2441  Z
  " fill="#ffffff" fill-rule="evenodd" fill-opacity="1"/>
<defs>
  <clipPath id="clip942">
    <rect x="47" y="47" width="1907" height="1288"/>
  </clipPath>
</defs>
<polyline clip-path="url(#clip940)" style="stroke:#000000; stroke-linecap:round; stroke-linejoin:round; stroke-width:4; stroke-opacity:1; fill:none" points="
  47.2441,1334.19 1952.76,1334.19 
  "/>
<polyline clip-path="url(#clip940)" style="stroke:#000000; stroke-linecap:round; stroke-linejoin:round; stroke-width:4; stroke-opacity:1; fill:none" points="
  340.861,1334.19 340.861,1315.29 
  "/>
<polyline clip-path="url(#clip940)" style="stroke:#000000; stroke-linecap:round; stroke-linejoin:round; stroke-width:4; stroke-opacity:1; fill:none" points="
  700.391,1334.19 700.391,1315.29 
  "/>
<polyline clip-path="url(#clip940)" style="stroke:#000000; stroke-linecap:round; stroke-linejoin:round; stroke-width:4; stroke-opacity:1; fill:none" points="
  1059.92,1334.19 1059.92,1315.29 
  "/>
<polyline clip-path="url(#clip940)" style="stroke:#000000; stroke-linecap:round; stroke-linejoin:round; stroke-width:4; stroke-opacity:1; fill:none" points="
  1419.45,1334.19 1419.45,1315.29 
  "/>
<polyline clip-path="url(#clip940)" style="stroke:#000000; stroke-linecap:round; stroke-linejoin:round; stroke-width:4; stroke-opacity:1; fill:none" points="
  1778.98,1334.19 1778.98,1315.29 
  "/>
<path clip-path="url(#clip940)" d="M287.429 1396.34 L339.362 1396.34 L339.362 1403.22 L287.429 1403.22 L287.429 1396.34 Z" fill="#000000" fill-rule="evenodd" fill-opacity="1" /><path clip-path="url(#clip940)" d="M381.815 1393.18 Q387.689 1394.43 390.97 1398.4 Q394.292 1402.37 394.292 1408.21 Q394.292 1417.16 388.135 1422.06 Q381.977 1426.96 370.635 1426.96 Q366.827 1426.96 362.776 1426.19 Q358.766 1425.46 354.472 1423.96 L354.472 1416.07 Q357.874 1418.05 361.925 1419.06 Q365.976 1420.08 370.392 1420.08 Q378.089 1420.08 382.099 1417.04 Q386.15 1414 386.15 1408.21 Q386.15 1402.86 382.382 1399.86 Q378.656 1396.82 371.972 1396.82 L364.923 1396.82 L364.923 1390.1 L372.296 1390.1 Q378.332 1390.1 381.532 1387.71 Q384.732 1385.28 384.732 1380.74 Q384.732 1376.08 381.41 1373.61 Q378.129 1371.1 371.972 1371.1 Q368.609 1371.1 364.761 1371.83 Q360.913 1372.56 356.295 1374.1 L356.295 1366.81 Q360.953 1365.51 365.004 1364.86 Q369.095 1364.21 372.701 1364.21 Q382.018 1364.21 387.446 1368.47 Q392.874 1372.68 392.874 1379.89 Q392.874 1384.91 389.998 1388.4 Q387.122 1391.84 381.815 1393.18 Z" fill="#000000" fill-rule="evenodd" fill-opacity="1" /><path clip-path="url(#clip940)" d="M700.391 1370.7 Q694.072 1370.7 690.872 1376.93 Q687.712 1383.13 687.712 1395.61 Q687.712 1408.04 690.872 1414.28 Q694.072 1420.48 700.391 1420.48 Q706.751 1420.48 709.911 1414.28 Q713.111 1408.04 713.111 1395.61 Q713.111 1383.13 709.911 1376.93 Q706.751 1370.7 700.391 1370.7 M700.391 1364.21 Q710.559 1364.21 715.906 1372.28 Q721.294 1380.3 721.294 1395.61 Q721.294 1410.88 715.906 1418.94 Q710.559 1426.96 700.391 1426.96 Q690.223 1426.96 684.836 1418.94 Q679.489 1410.88 679.489 1395.61 Q679.489 1380.3 684.836 1372.28 Q690.223 1364.21 700.391 1364.21 Z" fill="#000000" fill-rule="evenodd" fill-opacity="1" /><path clip-path="url(#clip940)" d="M1067.36 1393.18 Q1073.23 1394.43 1076.51 1398.4 Q1079.83 1402.37 1079.83 1408.21 Q1079.83 1417.16 1073.67 1422.06 Q1067.52 1426.96 1056.17 1426.96 Q1052.37 1426.96 1048.32 1426.19 Q1044.31 1425.46 1040.01 1423.96 L1040.01 1416.07 Q1043.41 1418.05 1047.47 1419.06 Q1051.52 1420.08 1055.93 1420.08 Q1063.63 1420.08 1067.64 1417.04 Q1071.69 1414 1071.69 1408.21 Q1071.69 1402.86 1067.92 1399.86 Q1064.2 1396.82 1057.51 1396.82 L1050.46 1396.82 L1050.46 1390.1 L1057.84 1390.1 Q1063.87 1390.1 1067.07 1387.71 Q1070.27 1385.28 1070.27 1380.74 Q1070.27 1376.08 1066.95 1373.61 Q1063.67 1371.1 1057.51 1371.1 Q1054.15 1371.1 1050.3 1371.83 Q1046.45 1372.56 1041.83 1374.1 L1041.83 1366.81 Q1046.49 1365.51 1050.54 1364.86 Q1054.64 1364.21 1058.24 1364.21 Q1067.56 1364.21 1072.99 1368.47 Q1078.41 1372.68 1078.41 1379.89 Q1078.41 1384.91 1075.54 1388.4 Q1072.66 1391.84 1067.36 1393.18 Z" fill="#000000" fill-rule="evenodd" fill-opacity="1" /><path clip-path="url(#clip940)" d="M1420.16 1392.29 Q1414.65 1392.29 1411.41 1396.05 Q1408.21 1399.82 1408.21 1406.38 Q1408.21 1412.91 1411.41 1416.71 Q1414.65 1420.48 1420.16 1420.48 Q1425.67 1420.48 1428.87 1416.71 Q1432.11 1412.91 1432.11 1406.38 Q1432.11 1399.82 1428.87 1396.05 Q1425.67 1392.29 1420.16 1392.29 M1436.41 1366.64 L1436.41 1374.1 Q1433.33 1372.64 1430.17 1371.87 Q1427.05 1371.1 1423.97 1371.1 Q1415.87 1371.1 1411.57 1376.57 Q1407.32 1382.04 1406.71 1393.1 Q1409.1 1389.57 1412.71 1387.71 Q1416.31 1385.81 1420.65 1385.81 Q1429.76 1385.81 1435.03 1391.36 Q1440.33 1396.86 1440.33 1406.38 Q1440.33 1415.7 1434.83 1421.33 Q1429.32 1426.96 1420.16 1426.96 Q1409.67 1426.96 1404.12 1418.94 Q1398.57 1410.88 1398.57 1395.61 Q1398.57 1381.27 1405.38 1372.76 Q1412.18 1364.21 1423.64 1364.21 Q1426.72 1364.21 1429.84 1364.82 Q1433 1365.43 1436.41 1366.64 Z" fill="#000000" fill-rule="evenodd" fill-opacity="1" /><path clip-path="url(#clip940)" d="M1762.01 1424.53 L1762.01 1417.08 Q1765.09 1418.54 1768.25 1419.31 Q1771.41 1420.08 1774.45 1420.08 Q1782.55 1420.08 1786.8 1414.65 Q1791.1 1409.18 1791.7 1398.08 Q1789.35 1401.56 1785.75 1403.43 Q1782.14 1405.29 1777.77 1405.29 Q1768.69 1405.29 1763.39 1399.82 Q1758.12 1394.31 1758.12 1384.79 Q1758.12 1375.48 1763.63 1369.84 Q1769.14 1364.21 1778.29 1364.21 Q1788.79 1364.21 1794.3 1372.28 Q1799.84 1380.3 1799.84 1395.61 Q1799.84 1409.91 1793.04 1418.46 Q1786.27 1426.96 1774.81 1426.96 Q1771.73 1426.96 1768.57 1426.35 Q1765.41 1425.75 1762.01 1424.53 M1778.29 1398.89 Q1783.8 1398.89 1787 1395.12 Q1790.24 1391.36 1790.24 1384.79 Q1790.24 1378.27 1787 1374.5 Q1783.8 1370.7 1778.29 1370.7 Q1772.78 1370.7 1769.54 1374.5 Q1766.34 1378.27 1766.34 1384.79 Q1766.34 1391.36 1769.54 1395.12 Q1772.78 1398.89 1778.29 1398.89 Z" fill="#000000" fill-rule="evenodd" fill-opacity="1" /><path clip-path="url(#clip940)" d="M880.179 1553.4 L848.842 1471.32 L860.442 1471.32 L886.446 1540.43 L912.505 1471.32 L924.05 1471.32 L892.768 1553.4 L880.179 1553.4 Z" fill="#000000" fill-rule="evenodd" fill-opacity="1" /><path clip-path="url(#clip940)" d="M954.837 1522.45 Q942.577 1522.45 937.849 1525.26 Q933.121 1528.06 933.121 1534.82 Q933.121 1540.21 936.64 1543.4 Q940.213 1546.53 946.315 1546.53 Q954.727 1546.53 959.785 1540.59 Q964.897 1534.6 964.897 1524.71 L964.897 1522.45 L954.837 1522.45 M975.013 1518.27 L975.013 1553.4 L964.897 1553.4 L964.897 1544.06 Q961.434 1549.67 956.266 1552.36 Q951.098 1555 943.622 1555 Q934.166 1555 928.558 1549.72 Q923.005 1544.39 923.005 1535.48 Q923.005 1525.09 929.932 1519.81 Q936.914 1514.54 950.714 1514.54 L964.897 1514.54 L964.897 1513.55 Q964.897 1506.56 960.279 1502.77 Q955.716 1498.92 947.415 1498.92 Q942.137 1498.92 937.134 1500.19 Q932.131 1501.45 927.513 1503.98 L927.513 1494.63 Q933.066 1492.49 938.289 1491.45 Q943.512 1490.35 948.459 1490.35 Q961.819 1490.35 968.416 1497.27 Q975.013 1504.2 975.013 1518.27 Z" fill="#000000" fill-rule="evenodd" fill-opacity="1" /><path clip-path="url(#clip940)" d="M995.849 1467.86 L1005.96 1467.86 L1005.96 1553.4 L995.849 1553.4 L995.849 1467.86 Z" fill="#000000" fill-rule="evenodd" fill-opacity="1" /><path clip-path="url(#clip940)" d="M1026.09 1529.1 L1026.09 1491.83 L1036.2 1491.83 L1036.2 1528.72 Q1036.2 1537.46 1039.61 1541.86 Q1043.02 1546.2 1049.84 1546.2 Q1058.03 1546.2 1062.76 1540.98 Q1067.54 1535.76 1067.54 1526.74 L1067.54 1491.83 L1077.65 1491.83 L1077.65 1553.4 L1067.54 1553.4 L1067.54 1543.95 Q1063.86 1549.56 1058.96 1552.3 Q1054.12 1555 1047.69 1555 Q1037.08 1555 1031.58 1548.4 Q1026.09 1541.8 1026.09 1529.1 M1051.54 1490.35 L1051.54 1490.35 Z" fill="#000000" fill-rule="evenodd" fill-opacity="1" /><path clip-path="url(#clip940)" d="M1151.16 1520.09 L1151.16 1525.04 L1104.65 1525.04 Q1105.31 1535.48 1110.92 1540.98 Q1116.58 1546.42 1126.64 1546.42 Q1132.47 1546.42 1137.91 1544.99 Q1143.41 1543.56 1148.79 1540.7 L1148.79 1550.27 Q1143.35 1552.58 1137.63 1553.79 Q1131.92 1555 1126.03 1555 Q1111.3 1555 1102.67 1546.42 Q1094.09 1537.85 1094.09 1523.22 Q1094.09 1508.1 1102.23 1499.25 Q1110.42 1490.35 1124.27 1490.35 Q1136.7 1490.35 1143.9 1498.37 Q1151.16 1506.34 1151.16 1520.09 M1141.04 1517.12 Q1140.93 1508.82 1136.37 1503.87 Q1131.86 1498.92 1124.38 1498.92 Q1115.92 1498.92 1110.81 1503.71 Q1105.75 1508.49 1104.98 1517.17 L1141.04 1517.12 Z" fill="#000000" fill-rule="evenodd" fill-opacity="1" /><polyline clip-path="url(#clip942)" style="stroke:#ff0000; stroke-linecap:round; stroke-linejoin:round; stroke-width:4; stroke-opacity:1; fill:none" stroke-dasharray="16, 10" points="
  101.174,1260.51 119.332,1258.24 137.49,1255.76 155.648,1253.04 173.806,1250.06 191.964,1246.78 210.122,1243.15 228.28,1239.12 246.439,1234.65 264.597,1229.66 
  282.755,1224.07 300.913,1217.78 319.071,1210.68 337.229,1202.63 355.387,1193.46 373.545,1182.96 391.703,1170.88 409.862,1156.9 428.02,1140.64 446.178,1121.62 
  464.336,1099.25 482.494,1072.79 500.652,1041.34 518.81,1003.83 536.968,958.996 555.126,905.454 573.284,841.877 591.443,767.385 609.601,682.289 627.759,589.286 
  645.917,494.93 664.075,410.528 682.233,350.794 700.391,329.055 718.549,350.794 736.707,410.528 754.866,494.93 773.024,589.286 791.182,682.289 809.34,767.385 
  827.498,841.877 845.656,905.454 863.814,958.996 881.972,1003.83 900.13,1041.34 918.289,1072.79 936.447,1099.25 954.605,1121.62 972.763,1140.64 990.921,1156.9 
  1009.08,1170.88 1027.24,1182.96 1045.4,1193.46 1063.55,1202.63 1081.71,1210.68 1099.87,1217.78 1118.03,1224.07 1136.19,1229.66 1154.34,1234.65 1172.5,1239.12 
  1190.66,1243.15 1208.82,1246.78 1226.98,1250.06 1245.13,1253.04 1263.29,1255.76 1281.45,1258.24 1299.61,1260.51 1317.77,1262.59 1335.92,1264.5 1354.08,1266.26 
  1372.24,1267.89 1390.4,1269.4 1408.56,1270.79 1426.72,1272.09 1444.87,1273.3 1463.03,1274.42 1481.19,1275.47 1499.35,1276.45 1517.51,1277.37 1535.66,1278.23 
  1553.82,1279.03 1571.98,1279.79 1590.14,1280.5 1608.3,1281.18 1626.45,1281.81 1644.61,1282.41 1662.77,1282.97 1680.93,1283.51 1699.09,1284.01 1717.25,1284.49 
  1735.4,1284.95 1753.56,1285.38 1771.72,1285.79 1789.88,1286.18 1808.04,1286.56 1826.19,1286.91 1844.35,1287.25 1862.51,1287.57 1880.67,1287.88 1898.83,1288.17 
  
  "/>
<polyline clip-path="url(#clip942)" style="stroke:#0000ff; stroke-linecap:round; stroke-linejoin:round; stroke-width:4; stroke-opacity:1; fill:none" points="
  101.174,1297.76 119.332,1297.76 137.49,1297.75 155.648,1297.73 173.806,1297.69 191.964,1297.61 210.122,1297.48 228.28,1297.25 246.439,1296.83 264.597,1296.13 
  282.755,1294.96 300.913,1293.07 319.071,1290.08 337.229,1285.46 355.387,1278.5 373.545,1268.31 391.703,1253.75 409.862,1233.48 428.02,1206.01 446.178,1169.77 
  464.336,1123.27 482.494,1065.27 500.652,995.027 518.81,912.506 536.968,818.619 555.126,715.376 573.284,605.953 591.443,494.621 609.601,386.534 627.759,287.365 
  645.917,202.829 664.075,138.15 682.233,97.5233 700.391,83.667 718.549,97.5233 736.707,138.15 754.866,202.829 773.024,287.365 791.182,386.534 809.34,494.621 
  827.498,605.953 845.656,715.376 863.814,818.619 881.972,912.506 900.13,995.027 918.289,1065.27 936.447,1123.27 954.605,1169.77 972.763,1206.01 990.921,1233.48 
  1009.08,1253.75 1027.24,1268.31 1045.4,1278.5 1063.55,1285.46 1081.71,1290.08 1099.87,1293.07 1118.03,1294.96 1136.19,1296.13 1154.34,1296.83 1172.5,1297.25 
  1190.66,1297.48 1208.82,1297.61 1226.98,1297.69 1245.13,1297.73 1263.29,1297.75 1281.45,1297.76 1299.61,1297.76 1317.77,1297.76 1335.92,1297.76 1354.08,1297.76 
  1372.24,1297.76 1390.4,1297.76 1408.56,1297.76 1426.72,1297.76 1444.87,1297.76 1463.03,1297.76 1481.19,1297.76 1499.35,1297.76 1517.51,1297.76 1535.66,1297.76 
  1553.82,1297.76 1571.98,1297.76 1590.14,1297.76 1608.3,1297.76 1626.45,1297.76 1644.61,1297.76 1662.77,1297.76 1680.93,1297.76 1699.09,1297.76 1717.25,1297.76 
  1735.4,1297.76 1753.56,1297.76 1771.72,1297.76 1789.88,1297.76 1808.04,1297.76 1826.19,1297.76 1844.35,1297.76 1862.51,1297.76 1880.67,1297.76 1898.83,1297.76 
  
  "/>
<path clip-path="url(#clip942)" d="
M918.289 1072.79 L936.447 1099.25 L954.605 1121.62 L972.763 1140.64 L990.921 1156.9 L1009.08 1170.88 L1027.24 1182.96 L1045.4 1193.46 L1063.55 1202.63 L1081.71 1210.68 
  L1099.87 1217.78 L1118.03 1224.07 L1136.19 1229.66 L1154.34 1234.65 L1172.5 1239.12 L1190.66 1243.15 L1208.82 1246.78 L1226.98 1250.06 L1245.13 1253.04 L1263.29 1255.76 
  L1281.45 1258.24 L1299.61 1260.51 L1317.77 1262.59 L1335.92 1264.5 L1354.08 1266.26 L1372.24 1267.89 L1390.4 1269.4 L1408.56 1270.79 L1426.72 1272.09 L1444.87 1273.3 
  L1463.03 1274.42 L1481.19 1275.47 L1499.35 1276.45 L1517.51 1277.37 L1535.66 1278.23 L1553.82 1279.03 L1571.98 1279.79 L1590.14 1280.5 L1608.3 1281.18 L1626.45 1281.81 
  L1644.61 1282.41 L1662.77 1282.97 L1680.93 1283.51 L1699.09 1284.01 L1717.25 1284.49 L1735.4 1284.95 L1753.56 1285.38 L1771.72 1285.79 L1789.88 1286.18 L1808.04 1286.56 
  L1826.19 1286.91 L1844.35 1287.25 L1862.51 1287.57 L1880.67 1287.88 L1898.83 1288.17 L1898.83 1297.76 L1880.67 1297.76 L1862.51 1297.76 L1844.35 1297.76 L1826.19 1297.76 
  L1808.04 1297.76 L1789.88 1297.76 L1771.72 1297.76 L1753.56 1297.76 L1735.4 1297.76 L1717.25 1297.76 L1699.09 1297.76 L1680.93 1297.76 L1662.77 1297.76 L1644.61 1297.76 
  L1626.45 1297.76 L1608.3 1297.76 L1590.14 1297.76 L1571.98 1297.76 L1553.82 1297.76 L1535.66 1297.76 L1517.51 1297.76 L1499.35 1297.76 L1481.19 1297.76 L1463.03 1297.76 
  L1444.87 1297.76 L1426.72 1297.76 L1408.56 1297.76 L1390.4 1297.76 L1372.24 1297.76 L1354.08 1297.76 L1335.92 1297.76 L1317.77 1297.76 L1299.61 1297.76 L1281.45 1297.76 
  L1263.29 1297.75 L1245.13 1297.73 L1226.98 1297.69 L1208.82 1297.61 L1190.66 1297.48 L1172.5 1297.25 L1154.34 1296.83 L1136.19 1296.13 L1118.03 1294.96 L1099.87 1293.07 
  L1081.71 1290.08 L1063.55 1285.46 L1045.4 1278.5 L1027.24 1268.31 L1009.08 1253.75 L990.921 1233.48 L972.763 1206.01 L954.605 1169.77 L936.447 1123.27 L918.289 1065.27 
   Z
  " fill="#ff0000" fill-rule="evenodd" fill-opacity="0.2"/>
<polyline clip-path="url(#clip942)" style="stroke:#000000; stroke-linecap:round; stroke-linejoin:round; stroke-width:4; stroke-opacity:0; fill:none" points="
  918.289,1072.79 936.447,1099.25 954.605,1121.62 972.763,1140.64 990.921,1156.9 1009.08,1170.88 1027.24,1182.96 1045.4,1193.46 1063.55,1202.63 1081.71,1210.68 
  1099.87,1217.78 1118.03,1224.07 1136.19,1229.66 1154.34,1234.65 1172.5,1239.12 1190.66,1243.15 1208.82,1246.78 1226.98,1250.06 1245.13,1253.04 1263.29,1255.76 
  1281.45,1258.24 1299.61,1260.51 1317.77,1262.59 1335.92,1264.5 1354.08,1266.26 1372.24,1267.89 1390.4,1269.4 1408.56,1270.79 1426.72,1272.09 1444.87,1273.3 
  1463.03,1274.42 1481.19,1275.47 1499.35,1276.45 1517.51,1277.37 1535.66,1278.23 1553.82,1279.03 1571.98,1279.79 1590.14,1280.5 1608.3,1281.18 1626.45,1281.81 
  1644.61,1282.41 1662.77,1282.97 1680.93,1283.51 1699.09,1284.01 1717.25,1284.49 1735.4,1284.95 1753.56,1285.38 1771.72,1285.79 1789.88,1286.18 1808.04,1286.56 
  1826.19,1286.91 1844.35,1287.25 1862.51,1287.57 1880.67,1287.88 1898.83,1288.17 
  "/>
<path clip-path="url(#clip940)" d="
M891.383 362.302 L1889.24 362.302 L1889.24 90.1422 L891.383 90.1422  Z
  " fill="#ffffff" fill-rule="evenodd" fill-opacity="1"/>
<polyline clip-path="url(#clip940)" style="stroke:#000000; stroke-linecap:round; stroke-linejoin:round; stroke-width:4; stroke-opacity:1; fill:none" points="
  891.383,362.302 1889.24,362.302 1889.24,90.1422 891.383,90.1422 891.383,362.302 
  "/>
<polyline clip-path="url(#clip940)" style="stroke:#ff0000; stroke-linecap:round; stroke-linejoin:round; stroke-width:7; stroke-opacity:1; fill:none" stroke-dasharray="28, 18" points="
  912.555,180.862 1039.59,180.862 
  "/>
<path clip-path="url(#clip940)" d="M1109.53 155.281 L1109.53 163.909 Q1105.4 160.061 1100.7 158.157 Q1096.05 156.253 1090.78 156.253 Q1080.41 156.253 1074.9 162.613 Q1069.39 168.932 1069.39 180.923 Q1069.39 192.873 1074.9 199.233 Q1080.41 205.552 1090.78 205.552 Q1096.05 205.552 1100.7 203.649 Q1105.4 201.745 1109.53 197.896 L1109.53 206.444 Q1105.24 209.36 1100.42 210.819 Q1095.64 212.277 1090.29 212.277 Q1076.56 212.277 1068.66 203.892 Q1060.76 195.466 1060.76 180.923 Q1060.76 166.34 1068.66 157.954 Q1076.56 149.528 1090.29 149.528 Q1095.72 149.528 1100.5 150.987 Q1105.32 152.405 1109.53 155.281 Z" fill="#000000" fill-rule="evenodd" fill-opacity="1" /><path clip-path="url(#clip940)" d="M1142.47 188.296 Q1133.44 188.296 1129.95 190.362 Q1126.47 192.428 1126.47 197.41 Q1126.47 201.38 1129.06 203.73 Q1131.69 206.039 1136.19 206.039 Q1142.39 206.039 1146.11 201.664 Q1149.88 197.248 1149.88 189.956 L1149.88 188.296 L1142.47 188.296 M1157.34 185.217 L1157.34 211.102 L1149.88 211.102 L1149.88 204.216 Q1147.33 208.348 1143.52 210.333 Q1139.71 212.277 1134.2 212.277 Q1127.24 212.277 1123.11 208.388 Q1119.01 204.459 1119.01 197.896 Q1119.01 190.24 1124.12 186.351 Q1129.26 182.462 1139.43 182.462 L1149.88 182.462 L1149.88 181.733 Q1149.88 176.589 1146.48 173.793 Q1143.12 170.958 1137 170.958 Q1133.11 170.958 1129.42 171.889 Q1125.74 172.821 1122.34 174.685 L1122.34 167.798 Q1126.43 166.218 1130.28 165.449 Q1134.12 164.638 1137.77 164.638 Q1147.61 164.638 1152.47 169.742 Q1157.34 174.847 1157.34 185.217 Z" fill="#000000" fill-rule="evenodd" fill-opacity="1" /><path clip-path="url(#clip940)" d="M1171.92 193.197 L1171.92 165.732 L1179.37 165.732 L1179.37 192.914 Q1179.37 199.355 1181.88 202.595 Q1184.4 205.796 1189.42 205.796 Q1195.45 205.796 1198.94 201.947 Q1202.46 198.099 1202.46 191.455 L1202.46 165.732 L1209.92 165.732 L1209.92 211.102 L1202.46 211.102 L1202.46 204.135 Q1199.75 208.267 1196.14 210.292 Q1192.58 212.277 1187.84 212.277 Q1180.02 212.277 1175.97 207.416 Q1171.92 202.555 1171.92 193.197 M1190.67 164.638 L1190.67 164.638 Z" fill="#000000" fill-rule="evenodd" fill-opacity="1" /><path clip-path="url(#clip940)" d="M1257.92 167.474 L1257.92 174.442 Q1254.76 172.7 1251.56 171.849 Q1248.4 170.958 1245.16 170.958 Q1237.91 170.958 1233.9 175.576 Q1229.89 180.153 1229.89 188.458 Q1229.89 196.762 1233.9 201.38 Q1237.91 205.958 1245.16 205.958 Q1248.4 205.958 1251.56 205.107 Q1254.76 204.216 1257.92 202.474 L1257.92 209.36 Q1254.8 210.819 1251.44 211.548 Q1248.12 212.277 1244.35 212.277 Q1234.1 212.277 1228.06 205.836 Q1222.03 199.395 1222.03 188.458 Q1222.03 177.358 1228.1 170.998 Q1234.22 164.638 1244.83 164.638 Q1248.28 164.638 1251.56 165.368 Q1254.84 166.056 1257.92 167.474 Z" fill="#000000" fill-rule="evenodd" fill-opacity="1" /><path clip-path="url(#clip940)" d="M1308.6 183.718 L1308.6 211.102 L1301.14 211.102 L1301.14 183.961 Q1301.14 177.52 1298.63 174.32 Q1296.12 171.12 1291.1 171.12 Q1285.06 171.12 1281.58 174.968 Q1278.09 178.817 1278.09 185.46 L1278.09 211.102 L1270.6 211.102 L1270.6 148.07 L1278.09 148.07 L1278.09 172.781 Q1280.77 168.689 1284.37 166.664 Q1288.02 164.638 1292.76 164.638 Q1300.58 164.638 1304.59 169.499 Q1308.6 174.32 1308.6 183.718 Z" fill="#000000" fill-rule="evenodd" fill-opacity="1" /><path clip-path="url(#clip940)" d="M1342.34 215.315 Q1339.18 223.417 1336.18 225.888 Q1333.19 228.359 1328.16 228.359 L1322.21 228.359 L1322.21 222.121 L1326.58 222.121 Q1329.66 222.121 1331.36 220.662 Q1333.06 219.204 1335.13 213.776 L1336.47 210.373 L1318.12 165.732 L1326.01 165.732 L1340.19 201.218 L1354.37 165.732 L1362.27 165.732 L1342.34 215.315 Z" fill="#000000" fill-rule="evenodd" fill-opacity="1" /><path clip-path="url(#clip940)" d="M1407.44 157.347 L1407.44 204.378 L1417.32 204.378 Q1429.84 204.378 1435.63 198.706 Q1441.47 193.035 1441.47 180.801 Q1441.47 168.649 1435.63 163.018 Q1429.84 157.347 1417.32 157.347 L1407.44 157.347 M1399.26 150.622 L1416.07 150.622 Q1433.65 150.622 1441.87 157.954 Q1450.09 165.246 1450.09 180.801 Q1450.09 196.438 1441.83 203.77 Q1433.57 211.102 1416.07 211.102 L1399.26 211.102 L1399.26 150.622 Z" fill="#000000" fill-rule="evenodd" fill-opacity="1" /><path clip-path="url(#clip940)" d="M1462.81 165.732 L1470.27 165.732 L1470.27 211.102 L1462.81 211.102 L1462.81 165.732 M1462.81 148.07 L1470.27 148.07 L1470.27 157.509 L1462.81 157.509 L1462.81 148.07 Z" fill="#000000" fill-rule="evenodd" fill-opacity="1" /><path clip-path="url(#clip940)" d="M1514.79 167.069 L1514.79 174.117 Q1511.63 172.497 1508.22 171.687 Q1504.82 170.877 1501.18 170.877 Q1495.63 170.877 1492.83 172.578 Q1490.08 174.28 1490.08 177.682 Q1490.08 180.275 1492.06 181.774 Q1494.05 183.232 1500.04 184.569 L1502.59 185.136 Q1510.53 186.837 1513.86 189.956 Q1517.22 193.035 1517.22 198.585 Q1517.22 204.904 1512.19 208.591 Q1507.21 212.277 1498.46 212.277 Q1494.82 212.277 1490.85 211.548 Q1486.92 210.859 1482.54 209.441 L1482.54 201.745 Q1486.67 203.892 1490.68 204.985 Q1494.69 206.039 1498.62 206.039 Q1503.89 206.039 1506.73 204.256 Q1509.56 202.433 1509.56 199.152 Q1509.56 196.114 1507.5 194.494 Q1505.47 192.873 1498.54 191.374 L1495.95 190.767 Q1489.02 189.308 1485.94 186.311 Q1482.87 183.273 1482.87 178.006 Q1482.87 171.606 1487.4 168.122 Q1491.94 164.638 1500.28 164.638 Q1504.42 164.638 1508.06 165.246 Q1511.71 165.854 1514.79 167.069 Z" fill="#000000" fill-rule="evenodd" fill-opacity="1" /><path clip-path="url(#clip940)" d="M1536.46 152.85 L1536.46 165.732 L1551.81 165.732 L1551.81 171.525 L1536.46 171.525 L1536.46 196.154 Q1536.46 201.704 1537.96 203.284 Q1539.5 204.864 1544.16 204.864 L1551.81 204.864 L1551.81 211.102 L1544.16 211.102 Q1535.53 211.102 1532.25 207.902 Q1528.97 204.661 1528.97 196.154 L1528.97 171.525 L1523.5 171.525 L1523.5 165.732 L1528.97 165.732 L1528.97 152.85 L1536.46 152.85 Z" fill="#000000" fill-rule="evenodd" fill-opacity="1" /><path clip-path="url(#clip940)" d="M1587.91 172.7 Q1586.65 171.97 1585.15 171.646 Q1583.69 171.282 1581.91 171.282 Q1575.59 171.282 1572.19 175.414 Q1568.83 179.505 1568.83 187.202 L1568.83 211.102 L1561.33 211.102 L1561.33 165.732 L1568.83 165.732 L1568.83 172.781 Q1571.18 168.649 1574.94 166.664 Q1578.71 164.638 1584.1 164.638 Q1584.87 164.638 1585.8 164.76 Q1586.73 164.841 1587.87 165.043 L1587.91 172.7 Z" fill="#000000" fill-rule="evenodd" fill-opacity="1" /><path clip-path="url(#clip940)" d="M1595.72 165.732 L1603.18 165.732 L1603.18 211.102 L1595.72 211.102 L1595.72 165.732 M1595.72 148.07 L1603.18 148.07 L1603.18 157.509 L1595.72 157.509 L1595.72 148.07 Z" fill="#000000" fill-rule="evenodd" fill-opacity="1" /><path clip-path="url(#clip940)" d="M1651.34 188.458 Q1651.34 180.234 1647.94 175.576 Q1644.58 170.877 1638.66 170.877 Q1632.75 170.877 1629.35 175.576 Q1625.98 180.234 1625.98 188.458 Q1625.98 196.681 1629.35 201.38 Q1632.75 206.039 1638.66 206.039 Q1644.58 206.039 1647.94 201.38 Q1651.34 196.681 1651.34 188.458 M1625.98 172.619 Q1628.33 168.568 1631.9 166.623 Q1635.5 164.638 1640.49 164.638 Q1648.75 164.638 1653.9 171.201 Q1659.08 177.763 1659.08 188.458 Q1659.08 199.152 1653.9 205.715 Q1648.75 212.277 1640.49 212.277 Q1635.5 212.277 1631.9 210.333 Q1628.33 208.348 1625.98 204.297 L1625.98 211.102 L1618.49 211.102 L1618.49 148.07 L1625.98 148.07 L1625.98 172.619 Z" fill="#000000" fill-rule="evenodd" fill-opacity="1" /><path clip-path="url(#clip940)" d="M1670.67 193.197 L1670.67 165.732 L1678.12 165.732 L1678.12 192.914 Q1678.12 199.355 1680.63 202.595 Q1683.14 205.796 1688.17 205.796 Q1694.2 205.796 1697.69 201.947 Q1701.21 198.099 1701.21 191.455 L1701.21 165.732 L1708.66 165.732 L1708.66 211.102 L1701.21 211.102 L1701.21 204.135 Q1698.5 208.267 1694.89 210.292 Q1691.33 212.277 1686.59 212.277 Q1678.77 212.277 1674.72 207.416 Q1670.67 202.555 1670.67 193.197 M1689.42 164.638 L1689.42 164.638 Z" fill="#000000" fill-rule="evenodd" fill-opacity="1" /><path clip-path="url(#clip940)" d="M1731.39 152.85 L1731.39 165.732 L1746.74 165.732 L1746.74 171.525 L1731.39 171.525 L1731.39 196.154 Q1731.39 201.704 1732.89 203.284 Q1734.43 204.864 1739.09 204.864 L1746.74 204.864 L1746.74 211.102 L1739.09 211.102 Q1730.46 211.102 1727.18 207.902 Q1723.89 204.661 1723.89 196.154 L1723.89 171.525 L1718.43 171.525 L1718.43 165.732 L1723.89 165.732 L1723.89 152.85 L1731.39 152.85 Z" fill="#000000" fill-rule="evenodd" fill-opacity="1" /><path clip-path="url(#clip940)" d="M1756.55 165.732 L1764 165.732 L1764 211.102 L1756.55 211.102 L1756.55 165.732 M1756.55 148.07 L1764 148.07 L1764 157.509 L1756.55 157.509 L1756.55 148.07 Z" fill="#000000" fill-rule="evenodd" fill-opacity="1" /><path clip-path="url(#clip940)" d="M1797.18 170.958 Q1791.18 170.958 1787.7 175.657 Q1784.21 180.315 1784.21 188.458 Q1784.21 196.6 1787.66 201.299 Q1791.14 205.958 1797.18 205.958 Q1803.13 205.958 1806.61 201.259 Q1810.1 196.559 1810.1 188.458 Q1810.1 180.396 1806.61 175.697 Q1803.13 170.958 1797.18 170.958 M1797.18 164.638 Q1806.9 164.638 1812.45 170.958 Q1818 177.277 1818 188.458 Q1818 199.598 1812.45 205.958 Q1806.9 212.277 1797.18 212.277 Q1787.41 212.277 1781.86 205.958 Q1776.35 199.598 1776.35 188.458 Q1776.35 177.277 1781.86 170.958 Q1787.41 164.638 1797.18 164.638 Z" fill="#000000" fill-rule="evenodd" fill-opacity="1" /><path clip-path="url(#clip940)" d="M1868.07 183.718 L1868.07 211.102 L1860.61 211.102 L1860.61 183.961 Q1860.61 177.52 1858.1 174.32 Q1855.59 171.12 1850.57 171.12 Q1844.53 171.12 1841.05 174.968 Q1837.56 178.817 1837.56 185.46 L1837.56 211.102 L1830.07 211.102 L1830.07 165.732 L1837.56 165.732 L1837.56 172.781 Q1840.24 168.689 1843.84 166.664 Q1847.49 164.638 1852.23 164.638 Q1860.05 164.638 1864.06 169.499 Q1868.07 174.32 1868.07 183.718 Z" fill="#000000" fill-rule="evenodd" fill-opacity="1" /><polyline clip-path="url(#clip940)" style="stroke:#0000ff; stroke-linecap:round; stroke-linejoin:round; stroke-width:7; stroke-opacity:1; fill:none" points="
  912.555,271.582 1039.59,271.582 
  "/>
<path clip-path="url(#clip940)" d="M1060.76 241.342 L1071.78 241.342 L1098.6 291.938 L1098.6 241.342 L1106.54 241.342 L1106.54 301.822 L1095.52 301.822 L1068.7 251.226 L1068.7 301.822 L1060.76 301.822 L1060.76 241.342 Z" fill="#000000" fill-rule="evenodd" fill-opacity="1" /><path clip-path="url(#clip940)" d="M1140.08 261.678 Q1134.08 261.678 1130.6 266.377 Q1127.12 271.035 1127.12 279.178 Q1127.12 287.32 1130.56 292.019 Q1134.04 296.678 1140.08 296.678 Q1146.03 296.678 1149.52 291.979 Q1153 287.279 1153 279.178 Q1153 271.116 1149.52 266.417 Q1146.03 261.678 1140.08 261.678 M1140.08 255.358 Q1149.8 255.358 1155.35 261.678 Q1160.9 267.997 1160.9 279.178 Q1160.9 290.318 1155.35 296.678 Q1149.8 302.997 1140.08 302.997 Q1130.32 302.997 1124.77 296.678 Q1119.26 290.318 1119.26 279.178 Q1119.26 267.997 1124.77 261.678 Q1130.32 255.358 1140.08 255.358 Z" fill="#000000" fill-rule="evenodd" fill-opacity="1" /><path clip-path="url(#clip940)" d="M1199.55 263.42 Q1198.29 262.69 1196.79 262.366 Q1195.33 262.002 1193.55 262.002 Q1187.23 262.002 1183.83 266.134 Q1180.47 270.225 1180.47 277.922 L1180.47 301.822 L1172.97 301.822 L1172.97 256.452 L1180.47 256.452 L1180.47 263.501 Q1182.82 259.369 1186.58 257.384 Q1190.35 255.358 1195.74 255.358 Q1196.51 255.358 1197.44 255.48 Q1198.37 255.561 1199.51 255.763 L1199.55 263.42 Z" fill="#000000" fill-rule="evenodd" fill-opacity="1" /><path clip-path="url(#clip940)" d="M1241.23 265.162 Q1244.02 260.138 1247.91 257.748 Q1251.8 255.358 1257.07 255.358 Q1264.16 255.358 1268.01 260.341 Q1271.85 265.283 1271.85 274.438 L1271.85 301.822 L1264.36 301.822 L1264.36 274.681 Q1264.36 268.159 1262.05 265 Q1259.74 261.84 1255 261.84 Q1249.21 261.84 1245.85 265.688 Q1242.49 269.537 1242.49 276.18 L1242.49 301.822 L1234.99 301.822 L1234.99 274.681 Q1234.99 268.119 1232.68 265 Q1230.37 261.84 1225.55 261.84 Q1219.84 261.84 1216.48 265.729 Q1213.12 269.577 1213.12 276.18 L1213.12 301.822 L1205.62 301.822 L1205.62 256.452 L1213.12 256.452 L1213.12 263.501 Q1215.67 259.328 1219.23 257.343 Q1222.8 255.358 1227.7 255.358 Q1232.64 255.358 1236.08 257.87 Q1239.57 260.381 1241.23 265.162 Z" fill="#000000" fill-rule="evenodd" fill-opacity="1" /><path clip-path="url(#clip940)" d="M1307.34 279.016 Q1298.31 279.016 1294.82 281.082 Q1291.34 283.148 1291.34 288.13 Q1291.34 292.1 1293.93 294.45 Q1296.56 296.759 1301.06 296.759 Q1307.26 296.759 1310.99 292.384 Q1314.75 287.968 1314.75 280.676 L1314.75 279.016 L1307.34 279.016 M1322.21 275.937 L1322.21 301.822 L1314.75 301.822 L1314.75 294.936 Q1312.2 299.068 1308.39 301.053 Q1304.59 302.997 1299.08 302.997 Q1292.11 302.997 1287.98 299.108 Q1283.89 295.179 1283.89 288.616 Q1283.89 280.96 1288.99 277.071 Q1294.13 273.182 1304.3 273.182 L1314.75 273.182 L1314.75 272.453 Q1314.75 267.309 1311.35 264.513 Q1307.99 261.678 1301.87 261.678 Q1297.98 261.678 1294.3 262.609 Q1290.61 263.541 1287.21 265.405 L1287.21 258.518 Q1291.3 256.938 1295.15 256.169 Q1299 255.358 1302.64 255.358 Q1312.48 255.358 1317.35 260.462 Q1322.21 265.567 1322.21 275.937 Z" fill="#000000" fill-rule="evenodd" fill-opacity="1" /><path clip-path="url(#clip940)" d="M1337.56 238.79 L1345.01 238.79 L1345.01 301.822 L1337.56 301.822 L1337.56 238.79 Z" fill="#000000" fill-rule="evenodd" fill-opacity="1" /><path clip-path="url(#clip940)" d="M1395.49 248.067 L1395.49 295.098 L1405.37 295.098 Q1417.89 295.098 1423.68 289.426 Q1429.52 283.755 1429.52 271.521 Q1429.52 259.369 1423.68 253.738 Q1417.89 248.067 1405.37 248.067 L1395.49 248.067 M1387.31 241.342 L1404.12 241.342 Q1421.7 241.342 1429.92 248.674 Q1438.14 255.966 1438.14 271.521 Q1438.14 287.158 1429.88 294.49 Q1421.62 301.822 1404.12 301.822 L1387.31 301.822 L1387.31 241.342 Z" fill="#000000" fill-rule="evenodd" fill-opacity="1" /><path clip-path="url(#clip940)" d="M1450.86 256.452 L1458.32 256.452 L1458.32 301.822 L1450.86 301.822 L1450.86 256.452 M1450.86 238.79 L1458.32 238.79 L1458.32 248.229 L1450.86 248.229 L1450.86 238.79 Z" fill="#000000" fill-rule="evenodd" fill-opacity="1" /><path clip-path="url(#clip940)" d="M1502.84 257.789 L1502.84 264.837 Q1499.68 263.217 1496.27 262.407 Q1492.87 261.597 1489.23 261.597 Q1483.68 261.597 1480.88 263.298 Q1478.13 265 1478.13 268.402 Q1478.13 270.995 1480.11 272.494 Q1482.1 273.952 1488.09 275.289 L1490.64 275.856 Q1498.58 277.557 1501.91 280.676 Q1505.27 283.755 1505.27 289.305 Q1505.27 295.624 1500.24 299.311 Q1495.26 302.997 1486.51 302.997 Q1482.87 302.997 1478.9 302.268 Q1474.97 301.579 1470.59 300.161 L1470.59 292.465 Q1474.72 294.612 1478.73 295.705 Q1482.74 296.759 1486.67 296.759 Q1491.94 296.759 1494.78 294.976 Q1497.61 293.153 1497.61 289.872 Q1497.61 286.834 1495.55 285.214 Q1493.52 283.593 1486.59 282.094 L1484 281.487 Q1477.07 280.028 1473.99 277.031 Q1470.92 273.993 1470.92 268.726 Q1470.92 262.326 1475.45 258.842 Q1479.99 255.358 1488.33 255.358 Q1492.47 255.358 1496.11 255.966 Q1499.76 256.574 1502.84 257.789 Z" fill="#000000" fill-rule="evenodd" fill-opacity="1" /><path clip-path="url(#clip940)" d="M1524.51 243.57 L1524.51 256.452 L1539.86 256.452 L1539.86 262.245 L1524.51 262.245 L1524.51 286.874 Q1524.51 292.424 1526.01 294.004 Q1527.55 295.584 1532.21 295.584 L1539.86 295.584 L1539.86 301.822 L1532.21 301.822 Q1523.58 301.822 1520.3 298.622 Q1517.02 295.381 1517.02 286.874 L1517.02 262.245 L1511.55 262.245 L1511.55 256.452 L1517.02 256.452 L1517.02 243.57 L1524.51 243.57 Z" fill="#000000" fill-rule="evenodd" fill-opacity="1" /><path clip-path="url(#clip940)" d="M1575.96 263.42 Q1574.7 262.69 1573.2 262.366 Q1571.74 262.002 1569.96 262.002 Q1563.64 262.002 1560.24 266.134 Q1556.88 270.225 1556.88 277.922 L1556.88 301.822 L1549.38 301.822 L1549.38 256.452 L1556.88 256.452 L1556.88 263.501 Q1559.23 259.369 1562.99 257.384 Q1566.76 255.358 1572.15 255.358 Q1572.92 255.358 1573.85 255.48 Q1574.78 255.561 1575.92 255.763 L1575.96 263.42 Z" fill="#000000" fill-rule="evenodd" fill-opacity="1" /><path clip-path="url(#clip940)" d="M1583.77 256.452 L1591.23 256.452 L1591.23 301.822 L1583.77 301.822 L1583.77 256.452 M1583.77 238.79 L1591.23 238.79 L1591.23 248.229 L1583.77 248.229 L1583.77 238.79 Z" fill="#000000" fill-rule="evenodd" fill-opacity="1" /><path clip-path="url(#clip940)" d="M1639.39 279.178 Q1639.39 270.954 1635.99 266.296 Q1632.63 261.597 1626.71 261.597 Q1620.8 261.597 1617.4 266.296 Q1614.03 270.954 1614.03 279.178 Q1614.03 287.401 1617.4 292.1 Q1620.8 296.759 1626.71 296.759 Q1632.63 296.759 1635.99 292.1 Q1639.39 287.401 1639.39 279.178 M1614.03 263.339 Q1616.38 259.288 1619.95 257.343 Q1623.55 255.358 1628.54 255.358 Q1636.8 255.358 1641.95 261.921 Q1647.13 268.483 1647.13 279.178 Q1647.13 289.872 1641.95 296.435 Q1636.8 302.997 1628.54 302.997 Q1623.55 302.997 1619.95 301.053 Q1616.38 299.068 1614.03 295.017 L1614.03 301.822 L1606.54 301.822 L1606.54 238.79 L1614.03 238.79 L1614.03 263.339 Z" fill="#000000" fill-rule="evenodd" fill-opacity="1" /><path clip-path="url(#clip940)" d="M1658.72 283.917 L1658.72 256.452 L1666.17 256.452 L1666.17 283.634 Q1666.17 290.075 1668.68 293.315 Q1671.19 296.516 1676.22 296.516 Q1682.25 296.516 1685.74 292.667 Q1689.26 288.819 1689.26 282.175 L1689.26 256.452 L1696.71 256.452 L1696.71 301.822 L1689.26 301.822 L1689.26 294.855 Q1686.55 298.987 1682.94 301.012 Q1679.38 302.997 1674.64 302.997 Q1666.82 302.997 1662.77 298.136 Q1658.72 293.275 1658.72 283.917 M1677.47 255.358 L1677.47 255.358 Z" fill="#000000" fill-rule="evenodd" fill-opacity="1" /><path clip-path="url(#clip940)" d="M1719.44 243.57 L1719.44 256.452 L1734.79 256.452 L1734.79 262.245 L1719.44 262.245 L1719.44 286.874 Q1719.44 292.424 1720.94 294.004 Q1722.48 295.584 1727.14 295.584 L1734.79 295.584 L1734.79 301.822 L1727.14 301.822 Q1718.51 301.822 1715.23 298.622 Q1711.94 295.381 1711.94 286.874 L1711.94 262.245 L1706.48 262.245 L1706.48 256.452 L1711.94 256.452 L1711.94 243.57 L1719.44 243.57 Z" fill="#000000" fill-rule="evenodd" fill-opacity="1" /><path clip-path="url(#clip940)" d="M1744.59 256.452 L1752.05 256.452 L1752.05 301.822 L1744.59 301.822 L1744.59 256.452 M1744.59 238.79 L1752.05 238.79 L1752.05 248.229 L1744.59 248.229 L1744.59 238.79 Z" fill="#000000" fill-rule="evenodd" fill-opacity="1" /><path clip-path="url(#clip940)" d="M1785.23 261.678 Q1779.23 261.678 1775.75 266.377 Q1772.26 271.035 1772.26 279.178 Q1772.26 287.32 1775.71 292.019 Q1779.19 296.678 1785.23 296.678 Q1791.18 296.678 1794.66 291.979 Q1798.15 287.279 1798.15 279.178 Q1798.15 271.116 1794.66 266.417 Q1791.18 261.678 1785.23 261.678 M1785.23 255.358 Q1794.95 255.358 1800.5 261.678 Q1806.05 267.997 1806.05 279.178 Q1806.05 290.318 1800.5 296.678 Q1794.95 302.997 1785.23 302.997 Q1775.46 302.997 1769.91 296.678 Q1764.4 290.318 1764.4 279.178 Q1764.4 267.997 1769.91 261.678 Q1775.46 255.358 1785.23 255.358 Z" fill="#000000" fill-rule="evenodd" fill-opacity="1" /><path clip-path="url(#clip940)" d="M1856.12 274.438 L1856.12 301.822 L1848.66 301.822 L1848.66 274.681 Q1848.66 268.24 1846.15 265.04 Q1843.64 261.84 1838.62 261.84 Q1832.58 261.84 1829.1 265.688 Q1825.61 269.537 1825.61 276.18 L1825.61 301.822 L1818.12 301.822 L1818.12 256.452 L1825.61 256.452 L1825.61 263.501 Q1828.29 259.409 1831.89 257.384 Q1835.54 255.358 1840.28 255.358 Q1848.1 255.358 1852.11 260.219 Q1856.12 265.04 1856.12 274.438 Z" fill="#000000" fill-rule="evenodd" fill-opacity="1" /></svg>
