<?xml version="1.0" encoding="utf-8"?>
<svg xmlns="http://www.w3.org/2000/svg" xmlns:xlink="http://www.w3.org/1999/xlink" width="528" height="336" viewBox="0 0 2112 1344">
<defs>
  <clipPath id="clip250">
    <rect x="0" y="0" width="2112" height="1344"/>
  </clipPath>
</defs>
<path clip-path="url(#clip250)" d="M0 1344 L2112 1344 L2112 0 L0 0  Z" fill="#ffffff" fill-rule="evenodd" fill-opacity="1"/>
<defs>
  <clipPath id="clip251">
    <rect x="422" y="0" width="1479" height="1344"/>
  </clipPath>
</defs>
<path clip-path="url(#clip250)" d="M364.663 1161.75 L2064.76 1161.75 L2064.76 47.2441 L364.663 47.2441  Z" fill="#ffffff" fill-rule="evenodd" fill-opacity="1"/>
<defs>
  <clipPath id="clip252">
    <rect x="364" y="47" width="1701" height="1116"/>
  </clipPath>
</defs>
<polyline clip-path="url(#clip252)" style="stroke:#000000; stroke-linecap:round; stroke-linejoin:round; stroke-width:2; stroke-opacity:0.1; fill:none" points="412.779,1161.75 412.779,47.2441 "/>
<polyline clip-path="url(#clip252)" style="stroke:#000000; stroke-linecap:round; stroke-linejoin:round; stroke-width:2; stroke-opacity:0.1; fill:none" points="794.651,1161.75 794.651,47.2441 "/>
<polyline clip-path="url(#clip252)" style="stroke:#000000; stroke-linecap:round; stroke-linejoin:round; stroke-width:2; stroke-opacity:0.1; fill:none" points="1176.52,1161.75 1176.52,47.2441 "/>
<polyline clip-path="url(#clip252)" style="stroke:#000000; stroke-linecap:round; stroke-linejoin:round; stroke-width:2; stroke-opacity:0.1; fill:none" points="1558.39,1161.75 1558.39,47.2441 "/>
<polyline clip-path="url(#clip252)" style="stroke:#000000; stroke-linecap:round; stroke-linejoin:round; stroke-width:2; stroke-opacity:0.1; fill:none" points="1940.27,1161.75 1940.27,47.2441 "/>
<polyline clip-path="url(#clip250)" style="stroke:#000000; stroke-linecap:round; stroke-linejoin:round; stroke-width:4; stroke-opacity:1; fill:none" points="364.663,1161.75 2064.76,1161.75 "/>
<polyline clip-path="url(#clip250)" style="stroke:#000000; stroke-linecap:round; stroke-linejoin:round; stroke-width:4; stroke-opacity:1; fill:none" points="412.779,1161.75 412.779,1142.85 "/>
<polyline clip-path="url(#clip250)" style="stroke:#000000; stroke-linecap:round; stroke-linejoin:round; stroke-width:4; stroke-opacity:1; fill:none" points="794.651,1161.75 794.651,1142.85 "/>
<polyline clip-path="url(#clip250)" style="stroke:#000000; stroke-linecap:round; stroke-linejoin:round; stroke-width:4; stroke-opacity:1; fill:none" points="1176.52,1161.75 1176.52,1142.85 "/>
<polyline clip-path="url(#clip250)" style="stroke:#000000; stroke-linecap:round; stroke-linejoin:round; stroke-width:4; stroke-opacity:1; fill:none" points="1558.39,1161.75 1558.39,1142.85 "/>
<polyline clip-path="url(#clip250)" style="stroke:#000000; stroke-linecap:round; stroke-linejoin:round; stroke-width:4; stroke-opacity:1; fill:none" points="1940.27,1161.75 1940.27,1142.85 "/>
<path clip-path="url(#clip250)" d="M412.779 1190.36 Q409.168 1190.36 407.339 1193.93 Q405.534 1197.47 405.534 1204.6 Q405.534 1211.7 407.339 1215.27 Q409.168 1218.81 412.779 1218.81 Q416.413 1218.81 418.219 1215.27 Q420.048 1211.7 420.048 1204.6 Q420.048 1197.47 418.219 1193.93 Q416.413 1190.36 412.779 1190.36 M412.779 1186.66 Q418.589 1186.66 421.645 1191.26 Q424.724 1195.85 424.724 1204.6 Q424.724 1213.32 421.645 1217.93 Q418.589 1222.51 412.779 1222.51 Q406.969 1222.51 403.89 1217.93 Q400.835 1213.32 400.835 1204.6 Q400.835 1195.85 403.89 1191.26 Q406.969 1186.66 412.779 1186.66 Z" fill="#000000" fill-rule="nonzero" fill-opacity="1" /><path clip-path="url(#clip250)" d="M701.55 1233.57 L709.188 1233.57 L709.188 1207.2 L700.878 1208.87 L700.878 1204.61 L709.142 1202.94 L713.818 1202.94 L713.818 1233.57 L721.457 1233.57 L721.457 1237.5 L701.55 1237.5 L701.55 1233.57 Z" fill="#000000" fill-rule="nonzero" fill-opacity="1" /><path clip-path="url(#clip250)" d="M730.901 1231.62 L735.785 1231.62 L735.785 1237.5 L730.901 1237.5 L730.901 1231.62 Z" fill="#000000" fill-rule="nonzero" fill-opacity="1" /><path clip-path="url(#clip250)" d="M755.971 1206.02 Q752.359 1206.02 750.531 1209.59 Q748.725 1213.13 748.725 1220.26 Q748.725 1227.36 750.531 1230.93 Q752.359 1234.47 755.971 1234.47 Q759.605 1234.47 761.41 1230.93 Q763.239 1227.36 763.239 1220.26 Q763.239 1213.13 761.41 1209.59 Q759.605 1206.02 755.971 1206.02 M755.971 1202.32 Q761.781 1202.32 764.836 1206.92 Q767.915 1211.51 767.915 1220.26 Q767.915 1228.98 764.836 1233.59 Q761.781 1238.17 755.971 1238.17 Q750.16 1238.17 747.082 1233.59 Q744.026 1228.98 744.026 1220.26 Q744.026 1211.51 747.082 1206.92 Q750.16 1202.32 755.971 1202.32 Z" fill="#000000" fill-rule="nonzero" fill-opacity="1" /><path clip-path="url(#clip250)" d="M804.304 1212.04 L793.725 1222.66 L804.304 1233.24 L801.549 1236.04 L790.924 1225.42 L780.299 1236.04 L777.568 1233.24 L788.123 1222.66 L777.568 1212.04 L780.299 1209.24 L790.924 1219.86 L801.549 1209.24 L804.304 1212.04 Z" fill="#000000" fill-rule="nonzero" fill-opacity="1" /><path clip-path="url(#clip250)" d="M816.665 1233.57 L824.303 1233.57 L824.303 1207.2 L815.993 1208.87 L815.993 1204.61 L824.257 1202.94 L828.933 1202.94 L828.933 1233.57 L836.572 1233.57 L836.572 1237.5 L816.665 1237.5 L816.665 1233.57 Z" fill="#000000" fill-rule="nonzero" fill-opacity="1" /><path clip-path="url(#clip250)" d="M856.016 1206.02 Q852.405 1206.02 850.577 1209.59 Q848.771 1213.13 848.771 1220.26 Q848.771 1227.36 850.577 1230.93 Q852.405 1234.47 856.016 1234.47 Q859.651 1234.47 861.456 1230.93 Q863.285 1227.36 863.285 1220.26 Q863.285 1213.13 861.456 1209.59 Q859.651 1206.02 856.016 1206.02 M856.016 1202.32 Q861.826 1202.32 864.882 1206.92 Q867.961 1211.51 867.961 1220.26 Q867.961 1228.98 864.882 1233.59 Q861.826 1238.17 856.016 1238.17 Q850.206 1238.17 847.127 1233.59 Q844.072 1228.98 844.072 1220.26 Q844.072 1211.51 847.127 1206.92 Q850.206 1202.32 856.016 1202.32 Z" fill="#000000" fill-rule="nonzero" fill-opacity="1" /><path clip-path="url(#clip250)" d="M880.637 1185.32 L871.045 1200.31 L880.637 1200.31 L880.637 1185.32 M879.64 1182.01 L884.417 1182.01 L884.417 1200.31 L888.424 1200.31 L888.424 1203.47 L884.417 1203.47 L884.417 1210.09 L880.637 1210.09 L880.637 1203.47 L867.961 1203.47 L867.961 1199.8 L879.64 1182.01 Z" fill="#000000" fill-rule="nonzero" fill-opacity="1" /><path clip-path="url(#clip250)" d="M1087.51 1233.57 L1103.83 1233.57 L1103.83 1237.5 L1081.88 1237.5 L1081.88 1233.57 Q1084.54 1230.81 1089.13 1226.18 Q1093.73 1221.53 1094.91 1220.19 Q1097.16 1217.66 1098.04 1215.93 Q1098.94 1214.17 1098.94 1212.48 Q1098.94 1209.72 1097 1207.99 Q1095.08 1206.25 1091.97 1206.25 Q1089.78 1206.25 1087.32 1207.02 Q1084.89 1207.78 1082.11 1209.33 L1082.11 1204.61 Q1084.94 1203.47 1087.39 1202.9 Q1089.84 1202.32 1091.88 1202.32 Q1097.25 1202.32 1100.45 1205 Q1103.64 1207.69 1103.64 1212.18 Q1103.64 1214.31 1102.83 1216.23 Q1102.04 1218.13 1099.94 1220.72 Q1099.36 1221.39 1096.26 1224.61 Q1093.15 1227.8 1087.51 1233.57 Z" fill="#000000" fill-rule="nonzero" fill-opacity="1" /><path clip-path="url(#clip250)" d="M1113.64 1231.62 L1118.53 1231.62 L1118.53 1237.5 L1113.64 1237.5 L1113.64 1231.62 Z" fill="#000000" fill-rule="nonzero" fill-opacity="1" /><path clip-path="url(#clip250)" d="M1138.71 1206.02 Q1135.1 1206.02 1133.27 1209.59 Q1131.46 1213.13 1131.46 1220.26 Q1131.46 1227.36 1133.27 1230.93 Q1135.1 1234.47 1138.71 1234.47 Q1142.34 1234.47 1144.15 1230.93 Q1145.98 1227.36 1145.98 1220.26 Q1145.98 1213.13 1144.15 1209.59 Q1142.34 1206.02 1138.71 1206.02 M1138.71 1202.32 Q1144.52 1202.32 1147.58 1206.92 Q1150.65 1211.51 1150.65 1220.26 Q1150.65 1228.98 1147.58 1233.59 Q1144.52 1238.17 1138.71 1238.17 Q1132.9 1238.17 1129.82 1233.59 Q1126.77 1228.98 1126.77 1220.26 Q1126.77 1211.51 1129.82 1206.92 Q1132.9 1202.32 1138.71 1202.32 Z" fill="#000000" fill-rule="nonzero" fill-opacity="1" /><path clip-path="url(#clip250)" d="M1187.04 1212.04 L1176.46 1222.66 L1187.04 1233.24 L1184.29 1236.04 L1173.66 1225.42 L1163.04 1236.04 L1160.31 1233.24 L1170.86 1222.66 L1160.31 1212.04 L1163.04 1209.24 L1173.66 1219.86 L1184.29 1209.24 L1187.04 1212.04 Z" fill="#000000" fill-rule="nonzero" fill-opacity="1" /><path clip-path="url(#clip250)" d="M1199.4 1233.57 L1207.04 1233.57 L1207.04 1207.2 L1198.73 1208.87 L1198.73 1204.61 L1207 1202.94 L1211.67 1202.94 L1211.67 1233.57 L1219.31 1233.57 L1219.31 1237.5 L1199.4 1237.5 L1199.4 1233.57 Z" fill="#000000" fill-rule="nonzero" fill-opacity="1" /><path clip-path="url(#clip250)" d="M1238.76 1206.02 Q1235.14 1206.02 1233.32 1209.59 Q1231.51 1213.13 1231.51 1220.26 Q1231.51 1227.36 1233.32 1230.93 Q1235.14 1234.47 1238.76 1234.47 Q1242.39 1234.47 1244.2 1230.93 Q1246.02 1227.36 1246.02 1220.26 Q1246.02 1213.13 1244.2 1209.59 Q1242.39 1206.02 1238.76 1206.02 M1238.76 1202.32 Q1244.57 1202.32 1247.62 1206.92 Q1250.7 1211.51 1250.7 1220.26 Q1250.7 1228.98 1247.62 1233.59 Q1244.57 1238.17 1238.76 1238.17 Q1232.95 1238.17 1229.87 1233.59 Q1226.81 1228.98 1226.81 1220.26 Q1226.81 1211.51 1229.87 1206.92 Q1232.95 1202.32 1238.76 1202.32 Z" fill="#000000" fill-rule="nonzero" fill-opacity="1" /><path clip-path="url(#clip250)" d="M1263.38 1185.32 L1253.78 1200.31 L1263.38 1200.31 L1263.38 1185.32 M1262.38 1182.01 L1267.16 1182.01 L1267.16 1200.31 L1271.16 1200.31 L1271.16 1203.47 L1267.16 1203.47 L1267.16 1210.09 L1263.38 1210.09 L1263.38 1203.47 L1250.7 1203.47 L1250.7 1199.8 L1262.38 1182.01 Z" fill="#000000" fill-rule="nonzero" fill-opacity="1" /><path clip-path="url(#clip250)" d="M1479.45 1218.87 Q1482.8 1219.59 1484.68 1221.85 Q1486.58 1224.12 1486.58 1227.46 Q1486.58 1232.57 1483.06 1235.37 Q1479.54 1238.17 1473.06 1238.17 Q1470.88 1238.17 1468.57 1237.73 Q1466.28 1237.32 1463.82 1236.46 L1463.82 1231.95 Q1465.77 1233.08 1468.08 1233.66 Q1470.4 1234.24 1472.92 1234.24 Q1477.32 1234.24 1479.61 1232.5 Q1481.92 1230.77 1481.92 1227.46 Q1481.92 1224.4 1479.77 1222.69 Q1477.64 1220.95 1473.82 1220.95 L1469.8 1220.95 L1469.8 1217.11 L1474.01 1217.11 Q1477.46 1217.11 1479.29 1215.74 Q1481.11 1214.35 1481.11 1211.76 Q1481.11 1209.1 1479.22 1207.69 Q1477.34 1206.25 1473.82 1206.25 Q1471.9 1206.25 1469.7 1206.67 Q1467.5 1207.09 1464.86 1207.97 L1464.86 1203.8 Q1467.53 1203.06 1469.84 1202.69 Q1472.18 1202.32 1474.24 1202.32 Q1479.56 1202.32 1482.67 1204.75 Q1485.77 1207.15 1485.77 1211.28 Q1485.77 1214.15 1484.12 1216.14 Q1482.48 1218.1 1479.45 1218.87 Z" fill="#000000" fill-rule="nonzero" fill-opacity="1" /><path clip-path="url(#clip250)" d="M1495.44 1231.62 L1500.33 1231.62 L1500.33 1237.5 L1495.44 1237.5 L1495.44 1231.62 Z" fill="#000000" fill-rule="nonzero" fill-opacity="1" /><path clip-path="url(#clip250)" d="M1520.51 1206.02 Q1516.9 1206.02 1515.07 1209.59 Q1513.27 1213.13 1513.27 1220.26 Q1513.27 1227.36 1515.07 1230.93 Q1516.9 1234.47 1520.51 1234.47 Q1524.15 1234.47 1525.95 1230.93 Q1527.78 1227.36 1527.78 1220.26 Q1527.78 1213.13 1525.95 1209.59 Q1524.15 1206.02 1520.51 1206.02 M1520.51 1202.32 Q1526.32 1202.32 1529.38 1206.92 Q1532.46 1211.51 1532.46 1220.26 Q1532.46 1228.98 1529.38 1233.59 Q1526.32 1238.17 1520.51 1238.17 Q1514.7 1238.17 1511.62 1233.59 Q1508.57 1228.98 1508.57 1220.26 Q1508.57 1211.51 1511.62 1206.92 Q1514.7 1202.32 1520.51 1202.32 Z" fill="#000000" fill-rule="nonzero" fill-opacity="1" /><path clip-path="url(#clip250)" d="M1568.85 1212.04 L1558.27 1222.66 L1568.85 1233.24 L1566.09 1236.04 L1555.47 1225.42 L1544.84 1236.04 L1542.11 1233.24 L1552.66 1222.66 L1542.11 1212.04 L1544.84 1209.24 L1555.47 1219.86 L1566.09 1209.24 L1568.85 1212.04 Z" fill="#000000" fill-rule="nonzero" fill-opacity="1" /><path clip-path="url(#clip250)" d="M1581.21 1233.57 L1588.85 1233.57 L1588.85 1207.2 L1580.54 1208.87 L1580.54 1204.61 L1588.8 1202.94 L1593.47 1202.94 L1593.47 1233.57 L1601.11 1233.57 L1601.11 1237.5 L1581.21 1237.5 L1581.21 1233.57 Z" fill="#000000" fill-rule="nonzero" fill-opacity="1" /><path clip-path="url(#clip250)" d="M1620.56 1206.02 Q1616.95 1206.02 1615.12 1209.59 Q1613.31 1213.13 1613.31 1220.26 Q1613.31 1227.36 1615.12 1230.93 Q1616.95 1234.47 1620.56 1234.47 Q1624.19 1234.47 1626 1230.93 Q1627.83 1227.36 1627.83 1220.26 Q1627.83 1213.13 1626 1209.59 Q1624.19 1206.02 1620.56 1206.02 M1620.56 1202.32 Q1626.37 1202.32 1629.42 1206.92 Q1632.5 1211.51 1632.5 1220.26 Q1632.5 1228.98 1629.42 1233.59 Q1626.37 1238.17 1620.56 1238.17 Q1614.75 1238.17 1611.67 1233.59 Q1608.61 1228.98 1608.61 1220.26 Q1608.61 1211.51 1611.67 1206.92 Q1614.75 1202.32 1620.56 1202.32 Z" fill="#000000" fill-rule="nonzero" fill-opacity="1" /><path clip-path="url(#clip250)" d="M1645.18 1185.32 L1635.59 1200.31 L1645.18 1200.31 L1645.18 1185.32 M1644.18 1182.01 L1648.96 1182.01 L1648.96 1200.31 L1652.97 1200.31 L1652.97 1203.47 L1648.96 1203.47 L1648.96 1210.09 L1645.18 1210.09 L1645.18 1203.47 L1632.5 1203.47 L1632.5 1199.8 L1644.18 1182.01 Z" fill="#000000" fill-rule="nonzero" fill-opacity="1" /><path clip-path="url(#clip250)" d="M1860.65 1207.02 L1848.84 1225.46 L1860.65 1225.46 L1860.65 1207.02 M1859.42 1202.94 L1865.3 1202.94 L1865.3 1225.46 L1870.23 1225.46 L1870.23 1229.35 L1865.3 1229.35 L1865.3 1237.5 L1860.65 1237.5 L1860.65 1229.35 L1845.05 1229.35 L1845.05 1224.84 L1859.42 1202.94 Z" fill="#000000" fill-rule="nonzero" fill-opacity="1" /><path clip-path="url(#clip250)" d="M1877.96 1231.62 L1882.85 1231.62 L1882.85 1237.5 L1877.96 1237.5 L1877.96 1231.62 Z" fill="#000000" fill-rule="nonzero" fill-opacity="1" /><path clip-path="url(#clip250)" d="M1903.03 1206.02 Q1899.42 1206.02 1897.59 1209.59 Q1895.79 1213.13 1895.79 1220.26 Q1895.79 1227.36 1897.59 1230.93 Q1899.42 1234.47 1903.03 1234.47 Q1906.67 1234.47 1908.47 1230.93 Q1910.3 1227.36 1910.3 1220.26 Q1910.3 1213.13 1908.47 1209.59 Q1906.67 1206.02 1903.03 1206.02 M1903.03 1202.32 Q1908.84 1202.32 1911.9 1206.92 Q1914.98 1211.51 1914.98 1220.26 Q1914.98 1228.98 1911.9 1233.59 Q1908.84 1238.17 1903.03 1238.17 Q1897.22 1238.17 1894.14 1233.59 Q1891.09 1228.98 1891.09 1220.26 Q1891.09 1211.51 1894.14 1206.92 Q1897.22 1202.32 1903.03 1202.32 Z" fill="#000000" fill-rule="nonzero" fill-opacity="1" /><path clip-path="url(#clip250)" d="M1951.37 1212.04 L1940.79 1222.66 L1951.37 1233.24 L1948.61 1236.04 L1937.99 1225.42 L1927.36 1236.04 L1924.63 1233.24 L1935.18 1222.66 L1924.63 1212.04 L1927.36 1209.24 L1937.99 1219.86 L1948.61 1209.24 L1951.37 1212.04 Z" fill="#000000" fill-rule="nonzero" fill-opacity="1" /><path clip-path="url(#clip250)" d="M1963.73 1233.57 L1971.37 1233.57 L1971.37 1207.2 L1963.05 1208.87 L1963.05 1204.61 L1971.32 1202.94 L1975.99 1202.94 L1975.99 1233.57 L1983.63 1233.57 L1983.63 1237.5 L1963.73 1237.5 L1963.73 1233.57 Z" fill="#000000" fill-rule="nonzero" fill-opacity="1" /><path clip-path="url(#clip250)" d="M2003.08 1206.02 Q1999.47 1206.02 1997.64 1209.59 Q1995.83 1213.13 1995.83 1220.26 Q1995.83 1227.36 1997.64 1230.93 Q1999.47 1234.47 2003.08 1234.47 Q2006.71 1234.47 2008.52 1230.93 Q2010.35 1227.36 2010.35 1220.26 Q2010.35 1213.13 2008.52 1209.59 Q2006.71 1206.02 2003.08 1206.02 M2003.08 1202.32 Q2008.89 1202.32 2011.94 1206.92 Q2015.02 1211.51 2015.02 1220.26 Q2015.02 1228.98 2011.94 1233.59 Q2008.89 1238.17 2003.08 1238.17 Q1997.27 1238.17 1994.19 1233.59 Q1991.13 1228.98 1991.13 1220.26 Q1991.13 1211.51 1994.19 1206.92 Q1997.27 1202.32 2003.08 1202.32 Z" fill="#000000" fill-rule="nonzero" fill-opacity="1" /><path clip-path="url(#clip250)" d="M2027.7 1185.32 L2018.11 1200.31 L2027.7 1200.31 L2027.7 1185.32 M2026.7 1182.01 L2031.48 1182.01 L2031.48 1200.31 L2035.49 1200.31 L2035.49 1203.47 L2031.48 1203.47 L2031.48 1210.09 L2027.7 1210.09 L2027.7 1203.47 L2015.02 1203.47 L2015.02 1199.8 L2026.7 1182.01 Z" fill="#000000" fill-rule="nonzero" fill-opacity="1" /><path clip-path="url(#clip250)" d="M968.389 1274.75 L968.389 1281.02 Q964.728 1279.27 961.482 1278.41 Q958.235 1277.56 955.212 1277.56 Q949.96 1277.56 947.095 1279.59 Q944.263 1281.63 944.263 1285.39 Q944.263 1288.54 946.141 1290.16 Q948.05 1291.75 953.334 1292.74 L957.217 1293.53 Q964.41 1294.9 967.816 1298.37 Q971.253 1301.81 971.253 1307.6 Q971.253 1314.51 966.606 1318.07 Q961.991 1321.64 953.047 1321.64 Q949.673 1321.64 945.854 1320.87 Q942.066 1320.11 937.992 1318.61 L937.992 1311.99 Q941.907 1314.19 945.663 1315.3 Q949.419 1316.42 953.047 1316.42 Q958.554 1316.42 961.546 1314.25 Q964.537 1312.09 964.537 1308.08 Q964.537 1304.58 962.373 1302.6 Q960.241 1300.63 955.339 1299.64 L951.424 1298.88 Q944.231 1297.45 941.016 1294.39 Q937.801 1291.34 937.801 1285.89 Q937.801 1279.59 942.226 1275.96 Q946.682 1272.34 954.48 1272.34 Q957.822 1272.34 961.291 1272.94 Q964.76 1273.54 968.389 1274.75 Z" fill="#000000" fill-rule="nonzero" fill-opacity="1" /><path clip-path="url(#clip250)" d="M1010.66 1299.2 L1010.66 1320.71 L1004.8 1320.71 L1004.8 1299.39 Q1004.8 1294.33 1002.83 1291.81 Q1000.85 1289.3 996.907 1289.3 Q992.165 1289.3 989.427 1292.32 Q986.69 1295.35 986.69 1300.57 L986.69 1320.71 L980.802 1320.71 L980.802 1271.19 L986.69 1271.19 L986.69 1290.6 Q988.791 1287.39 991.623 1285.8 Q994.488 1284.21 998.212 1284.21 Q1004.35 1284.21 1007.51 1288.03 Q1010.66 1291.81 1010.66 1299.2 Z" fill="#000000" fill-rule="nonzero" fill-opacity="1" /><path clip-path="url(#clip250)" d="M1036.15 1289.17 Q1031.44 1289.17 1028.7 1292.86 Q1025.97 1296.52 1025.97 1302.92 Q1025.97 1309.32 1028.67 1313.01 Q1031.41 1316.67 1036.15 1316.67 Q1040.83 1316.67 1043.57 1312.98 Q1046.3 1309.29 1046.3 1302.92 Q1046.3 1296.59 1043.57 1292.9 Q1040.83 1289.17 1036.15 1289.17 M1036.15 1284.21 Q1043.79 1284.21 1048.15 1289.17 Q1052.51 1294.14 1052.51 1302.92 Q1052.51 1311.68 1048.15 1316.67 Q1043.79 1321.64 1036.15 1321.64 Q1028.48 1321.64 1024.12 1316.67 Q1019.79 1311.68 1019.79 1302.92 Q1019.79 1294.14 1024.12 1289.17 Q1028.48 1284.21 1036.15 1284.21 Z" fill="#000000" fill-rule="nonzero" fill-opacity="1" /><path clip-path="url(#clip250)" d="M1058.81 1285.07 L1064.67 1285.07 L1071.99 1312.88 L1079.28 1285.07 L1086.19 1285.07 L1093.51 1312.88 L1100.8 1285.07 L1106.65 1285.07 L1097.33 1320.71 L1090.42 1320.71 L1082.75 1291.5 L1075.05 1320.71 L1068.14 1320.71 L1058.81 1285.07 Z" fill="#000000" fill-rule="nonzero" fill-opacity="1" /><path clip-path="url(#clip250)" d="M1141.19 1286.44 L1141.19 1291.91 Q1138.7 1290.54 1136.19 1289.87 Q1133.71 1289.17 1131.16 1289.17 Q1125.46 1289.17 1122.31 1292.8 Q1119.16 1296.4 1119.16 1302.92 Q1119.16 1309.45 1122.31 1313.08 Q1125.46 1316.67 1131.16 1316.67 Q1133.71 1316.67 1136.19 1316 Q1138.7 1315.3 1141.19 1313.94 L1141.19 1319.35 Q1138.73 1320.49 1136.09 1321.06 Q1133.48 1321.64 1130.52 1321.64 Q1122.47 1321.64 1117.73 1316.58 Q1112.99 1311.52 1112.99 1302.92 Q1112.99 1294.2 1117.76 1289.2 Q1122.57 1284.21 1130.91 1284.21 Q1133.61 1284.21 1136.19 1284.78 Q1138.77 1285.32 1141.19 1286.44 Z" fill="#000000" fill-rule="nonzero" fill-opacity="1" /><path clip-path="url(#clip250)" d="M1167.57 1302.8 Q1160.47 1302.8 1157.74 1304.42 Q1155 1306.04 1155 1309.96 Q1155 1313.08 1157.04 1314.92 Q1159.11 1316.74 1162.64 1316.74 Q1167.51 1316.74 1170.44 1313.3 Q1173.4 1309.83 1173.4 1304.1 L1173.4 1302.8 L1167.57 1302.8 M1179.25 1300.38 L1179.25 1320.71 L1173.4 1320.71 L1173.4 1315.3 Q1171.39 1318.55 1168.4 1320.11 Q1165.41 1321.64 1161.08 1321.64 Q1155.6 1321.64 1152.36 1318.58 Q1149.14 1315.49 1149.14 1310.34 Q1149.14 1304.32 1153.15 1301.27 Q1157.2 1298.21 1165.18 1298.21 L1173.4 1298.21 L1173.4 1297.64 Q1173.4 1293.6 1170.72 1291.4 Q1168.08 1289.17 1163.27 1289.17 Q1160.22 1289.17 1157.32 1289.9 Q1154.43 1290.64 1151.75 1292.1 L1151.75 1286.69 Q1154.97 1285.45 1157.99 1284.84 Q1161.01 1284.21 1163.88 1284.21 Q1171.61 1284.21 1175.43 1288.22 Q1179.25 1292.23 1179.25 1300.38 Z" fill="#000000" fill-rule="nonzero" fill-opacity="1" /><path clip-path="url(#clip250)" d="M1214.04 1286.12 L1214.04 1291.66 Q1211.56 1290.38 1208.89 1289.75 Q1206.21 1289.11 1203.35 1289.11 Q1198.99 1289.11 1196.79 1290.45 Q1194.63 1291.78 1194.63 1294.46 Q1194.63 1296.49 1196.19 1297.67 Q1197.75 1298.82 1202.46 1299.87 L1204.46 1300.31 Q1210.7 1301.65 1213.31 1304.1 Q1215.95 1306.52 1215.95 1310.88 Q1215.95 1315.84 1212 1318.74 Q1208.09 1321.64 1201.21 1321.64 Q1198.35 1321.64 1195.23 1321.06 Q1192.14 1320.52 1188.71 1319.41 L1188.71 1313.36 Q1191.95 1315.05 1195.1 1315.91 Q1198.25 1316.74 1201.34 1316.74 Q1205.48 1316.74 1207.71 1315.34 Q1209.94 1313.9 1209.94 1311.33 Q1209.94 1308.94 1208.31 1307.66 Q1206.72 1306.39 1201.28 1305.21 L1199.24 1304.74 Q1193.8 1303.59 1191.38 1301.24 Q1188.96 1298.85 1188.96 1294.71 Q1188.96 1289.68 1192.53 1286.94 Q1196.09 1284.21 1202.65 1284.21 Q1205.89 1284.21 1208.76 1284.68 Q1211.62 1285.16 1214.04 1286.12 Z" fill="#000000" fill-rule="nonzero" fill-opacity="1" /><path clip-path="url(#clip250)" d="M1255.77 1301.43 L1255.77 1304.29 L1228.84 1304.29 Q1229.22 1310.34 1232.47 1313.52 Q1235.75 1316.67 1241.57 1316.67 Q1244.95 1316.67 1248.1 1315.84 Q1251.28 1315.02 1254.4 1313.36 L1254.4 1318.9 Q1251.25 1320.24 1247.94 1320.94 Q1244.63 1321.64 1241.22 1321.64 Q1232.69 1321.64 1227.7 1316.67 Q1222.73 1311.71 1222.73 1303.24 Q1222.73 1294.49 1227.44 1289.36 Q1232.18 1284.21 1240.2 1284.21 Q1247.4 1284.21 1251.57 1288.85 Q1255.77 1293.47 1255.77 1301.43 M1249.91 1299.71 Q1249.85 1294.9 1247.21 1292.04 Q1244.6 1289.17 1240.27 1289.17 Q1235.37 1289.17 1232.41 1291.94 Q1229.48 1294.71 1229.03 1299.74 L1249.91 1299.71 Z" fill="#000000" fill-rule="nonzero" fill-opacity="1" /><path clip-path="url(#clip250)" d="M1292.79 1298.02 L1292.79 1315.43 L1303.1 1315.43 Q1308.29 1315.43 1310.77 1313.3 Q1313.28 1311.13 1313.28 1306.71 Q1313.28 1302.25 1310.77 1300.15 Q1308.29 1298.02 1303.1 1298.02 L1292.79 1298.02 M1292.79 1278.48 L1292.79 1292.8 L1302.3 1292.8 Q1307.01 1292.8 1309.3 1291.05 Q1311.63 1289.27 1311.63 1285.64 Q1311.63 1282.04 1309.3 1280.26 Q1307.01 1278.48 1302.3 1278.48 L1292.79 1278.48 M1286.36 1273.19 L1302.78 1273.19 Q1310.13 1273.19 1314.11 1276.25 Q1318.09 1279.31 1318.09 1284.94 Q1318.09 1289.3 1316.05 1291.88 Q1314.01 1294.46 1310.07 1295.09 Q1314.81 1296.11 1317.42 1299.36 Q1320.06 1302.57 1320.06 1307.41 Q1320.06 1313.78 1315.73 1317.25 Q1311.4 1320.71 1303.42 1320.71 L1286.36 1320.71 L1286.36 1273.19 Z" fill="#000000" fill-rule="nonzero" fill-opacity="1" /><path clip-path="url(#clip250)" d="M1330.82 1285.07 L1336.68 1285.07 L1336.68 1320.71 L1330.82 1320.71 L1330.82 1285.07 M1330.82 1271.19 L1336.68 1271.19 L1336.68 1278.61 L1330.82 1278.61 L1330.82 1271.19 Z" fill="#000000" fill-rule="nonzero" fill-opacity="1" /><path clip-path="url(#clip250)" d="M1372.39 1290.48 L1372.39 1271.19 L1378.24 1271.19 L1378.24 1320.71 L1372.39 1320.71 L1372.39 1315.37 Q1370.54 1318.55 1367.71 1320.11 Q1364.91 1321.64 1360.96 1321.64 Q1354.5 1321.64 1350.43 1316.48 Q1346.38 1311.33 1346.38 1302.92 Q1346.38 1294.52 1350.43 1289.36 Q1354.5 1284.21 1360.96 1284.21 Q1364.91 1284.21 1367.71 1285.77 Q1370.54 1287.29 1372.39 1290.48 M1352.43 1302.92 Q1352.43 1309.38 1355.07 1313.08 Q1357.75 1316.74 1362.39 1316.74 Q1367.04 1316.74 1369.71 1313.08 Q1372.39 1309.38 1372.39 1302.92 Q1372.39 1296.46 1369.71 1292.8 Q1367.04 1289.11 1362.39 1289.11 Q1357.75 1289.11 1355.07 1292.8 Q1352.43 1296.46 1352.43 1302.92 Z" fill="#000000" fill-rule="nonzero" fill-opacity="1" /><path clip-path="url(#clip250)" d="M1425.1 1271.25 Q1420.83 1278.57 1418.76 1285.74 Q1416.69 1292.9 1416.69 1300.25 Q1416.69 1307.6 1418.76 1314.83 Q1420.86 1322.02 1425.1 1329.31 L1420 1329.31 Q1415.23 1321.83 1412.84 1314.6 Q1410.49 1307.38 1410.49 1300.25 Q1410.49 1293.15 1412.84 1285.96 Q1415.2 1278.76 1420 1271.25 L1425.1 1271.25 Z" fill="#000000" fill-rule="nonzero" fill-opacity="1" /><path clip-path="url(#clip250)" d="M1452.34 1330.3 L1449.16 1330.3 L1449.13 1320.71 Q1445.78 1320.65 1442.44 1319.95 Q1439.1 1319.22 1435.73 1317.79 L1435.73 1312.06 Q1438.97 1314.09 1442.28 1315.14 Q1445.63 1316.16 1449.16 1316.2 L1449.16 1301.68 Q1442.12 1300.54 1438.91 1297.8 Q1435.73 1295.06 1435.73 1290.29 Q1435.73 1285.1 1439.2 1282.11 Q1442.67 1279.11 1449.16 1278.67 L1449.16 1271.19 L1452.34 1271.19 L1452.34 1278.57 Q1455.3 1278.7 1458.07 1279.21 Q1460.84 1279.69 1463.48 1280.55 L1463.48 1286.12 Q1460.84 1284.78 1458.04 1284.05 Q1455.27 1283.32 1452.34 1283.19 L1452.34 1296.78 Q1459.57 1297.89 1462.97 1300.76 Q1466.38 1303.62 1466.38 1308.59 Q1466.38 1313.97 1462.75 1317.09 Q1459.15 1320.17 1452.34 1320.65 L1452.34 1330.3 M1449.16 1296.21 L1449.16 1283.16 Q1445.47 1283.57 1443.52 1285.26 Q1441.58 1286.94 1441.58 1289.75 Q1441.58 1292.48 1443.37 1294.01 Q1445.18 1295.54 1449.16 1296.21 M1452.34 1302.32 L1452.34 1316.1 Q1456.38 1315.56 1458.42 1313.81 Q1460.49 1312.06 1460.49 1309.19 Q1460.49 1306.39 1458.52 1304.74 Q1456.57 1303.08 1452.34 1302.32 Z" fill="#000000" fill-rule="nonzero" fill-opacity="1" /><path clip-path="url(#clip250)" d="M1477.01 1271.25 L1482.1 1271.25 Q1486.88 1278.76 1489.23 1285.96 Q1491.62 1293.15 1491.62 1300.25 Q1491.62 1307.38 1489.23 1314.6 Q1486.88 1321.83 1482.1 1329.31 L1477.01 1329.31 Q1481.24 1322.02 1483.31 1314.83 Q1485.41 1307.6 1485.41 1300.25 Q1485.41 1292.9 1483.31 1285.74 Q1481.24 1278.57 1477.01 1271.25 Z" fill="#000000" fill-rule="nonzero" fill-opacity="1" /><polyline clip-path="url(#clip252)" style="stroke:#000000; stroke-linecap:round; stroke-linejoin:round; stroke-width:2; stroke-opacity:0.1; fill:none" points="364.663,1130.2 2064.76,1130.2 "/>
<polyline clip-path="url(#clip252)" style="stroke:#000000; stroke-linecap:round; stroke-linejoin:round; stroke-width:2; stroke-opacity:0.1; fill:none" points="364.663,901.17 2064.76,901.17 "/>
<polyline clip-path="url(#clip252)" style="stroke:#000000; stroke-linecap:round; stroke-linejoin:round; stroke-width:2; stroke-opacity:0.1; fill:none" points="364.663,672.137 2064.76,672.137 "/>
<polyline clip-path="url(#clip252)" style="stroke:#000000; stroke-linecap:round; stroke-linejoin:round; stroke-width:2; stroke-opacity:0.1; fill:none" points="364.663,443.104 2064.76,443.104 "/>
<polyline clip-path="url(#clip252)" style="stroke:#000000; stroke-linecap:round; stroke-linejoin:round; stroke-width:2; stroke-opacity:0.1; fill:none" points="364.663,214.071 2064.76,214.071 "/>
<polyline clip-path="url(#clip250)" style="stroke:#000000; stroke-linecap:round; stroke-linejoin:round; stroke-width:4; stroke-opacity:1; fill:none" points="364.663,1161.75 364.663,47.2441 "/>
<polyline clip-path="url(#clip250)" style="stroke:#000000; stroke-linecap:round; stroke-linejoin:round; stroke-width:4; stroke-opacity:1; fill:none" points="364.663,1130.2 383.561,1130.2 "/>
<polyline clip-path="url(#clip250)" style="stroke:#000000; stroke-linecap:round; stroke-linejoin:round; stroke-width:4; stroke-opacity:1; fill:none" points="364.663,901.17 383.561,901.17 "/>
<polyline clip-path="url(#clip250)" style="stroke:#000000; stroke-linecap:round; stroke-linejoin:round; stroke-width:4; stroke-opacity:1; fill:none" points="364.663,672.137 383.561,672.137 "/>
<polyline clip-path="url(#clip250)" style="stroke:#000000; stroke-linecap:round; stroke-linejoin:round; stroke-width:4; stroke-opacity:1; fill:none" points="364.663,443.104 383.561,443.104 "/>
<polyline clip-path="url(#clip250)" style="stroke:#000000; stroke-linecap:round; stroke-linejoin:round; stroke-width:4; stroke-opacity:1; fill:none" points="364.663,214.071 383.561,214.071 "/>
<path clip-path="url(#clip250)" d="M321.039 1116 Q317.428 1116 315.599 1119.57 Q313.794 1123.11 313.794 1130.24 Q313.794 1137.34 315.599 1140.91 Q317.428 1144.45 321.039 1144.45 Q324.673 1144.45 326.479 1140.91 Q328.308 1137.34 328.308 1130.24 Q328.308 1123.11 326.479 1119.57 Q324.673 1116 321.039 1116 M321.039 1112.3 Q326.849 1112.3 329.905 1116.9 Q332.983 1121.49 332.983 1130.24 Q332.983 1138.96 329.905 1143.57 Q326.849 1148.15 321.039 1148.15 Q315.229 1148.15 312.15 1143.57 Q309.095 1138.96 309.095 1130.24 Q309.095 1121.49 312.15 1116.9 Q315.229 1112.3 321.039 1112.3 Z" fill="#000000" fill-rule="nonzero" fill-opacity="1" /><path clip-path="url(#clip250)" d="M117.158 890.338 L135.515 890.338 L135.515 894.273 L121.441 894.273 L121.441 902.745 Q122.459 902.398 123.478 902.236 Q124.496 902.051 125.515 902.051 Q131.302 902.051 134.682 905.222 Q138.061 908.393 138.061 913.81 Q138.061 919.389 134.589 922.491 Q131.117 925.569 124.797 925.569 Q122.621 925.569 120.353 925.199 Q118.108 924.828 115.7 924.088 L115.7 919.389 Q117.783 920.523 120.006 921.078 Q122.228 921.634 124.705 921.634 Q128.709 921.634 131.047 919.528 Q133.385 917.421 133.385 913.81 Q133.385 910.199 131.047 908.092 Q128.709 905.986 124.705 905.986 Q122.83 905.986 120.955 906.403 Q119.103 906.819 117.158 907.699 L117.158 890.338 Z" fill="#000000" fill-rule="nonzero" fill-opacity="1" /><path clip-path="url(#clip250)" d="M147.274 919.018 L152.158 919.018 L152.158 924.898 L147.274 924.898 L147.274 919.018 Z" fill="#000000" fill-rule="nonzero" fill-opacity="1" /><path clip-path="url(#clip250)" d="M172.343 893.417 Q168.732 893.417 166.904 896.981 Q165.098 900.523 165.098 907.653 Q165.098 914.759 166.904 918.324 Q168.732 921.866 172.343 921.866 Q175.978 921.866 177.783 918.324 Q179.612 914.759 179.612 907.653 Q179.612 900.523 177.783 896.981 Q175.978 893.417 172.343 893.417 M172.343 889.713 Q178.154 889.713 181.209 894.319 Q184.288 898.903 184.288 907.653 Q184.288 916.379 181.209 920.986 Q178.154 925.569 172.343 925.569 Q166.533 925.569 163.455 920.986 Q160.399 916.379 160.399 907.653 Q160.399 898.903 163.455 894.319 Q166.533 889.713 172.343 889.713 Z" fill="#000000" fill-rule="nonzero" fill-opacity="1" /><path clip-path="url(#clip250)" d="M202.505 893.417 Q198.894 893.417 197.065 896.981 Q195.26 900.523 195.26 907.653 Q195.26 914.759 197.065 918.324 Q198.894 921.866 202.505 921.866 Q206.139 921.866 207.945 918.324 Q209.774 914.759 209.774 907.653 Q209.774 900.523 207.945 896.981 Q206.139 893.417 202.505 893.417 M202.505 889.713 Q208.315 889.713 211.371 894.319 Q214.45 898.903 214.45 907.653 Q214.45 916.379 211.371 920.986 Q208.315 925.569 202.505 925.569 Q196.695 925.569 193.616 920.986 Q190.561 916.379 190.561 907.653 Q190.561 898.903 193.616 894.319 Q196.695 889.713 202.505 889.713 Z" fill="#000000" fill-rule="nonzero" fill-opacity="1" /><path clip-path="url(#clip250)" d="M250.838 899.435 L240.26 910.06 L250.838 920.639 L248.084 923.44 L237.459 912.815 L226.834 923.44 L224.102 920.639 L234.658 910.06 L224.102 899.435 L226.834 896.634 L237.459 907.259 L248.084 896.634 L250.838 899.435 Z" fill="#000000" fill-rule="nonzero" fill-opacity="1" /><path clip-path="url(#clip250)" d="M263.199 920.963 L270.838 920.963 L270.838 894.597 L262.528 896.264 L262.528 892.005 L270.792 890.338 L275.468 890.338 L275.468 920.963 L283.107 920.963 L283.107 924.898 L263.199 924.898 L263.199 920.963 Z" fill="#000000" fill-rule="nonzero" fill-opacity="1" /><path clip-path="url(#clip250)" d="M302.551 893.417 Q298.94 893.417 297.111 896.981 Q295.306 900.523 295.306 907.653 Q295.306 914.759 297.111 918.324 Q298.94 921.866 302.551 921.866 Q306.185 921.866 307.991 918.324 Q309.819 914.759 309.819 907.653 Q309.819 900.523 307.991 896.981 Q306.185 893.417 302.551 893.417 M302.551 889.713 Q308.361 889.713 311.417 894.319 Q314.495 898.903 314.495 907.653 Q314.495 916.379 311.417 920.986 Q308.361 925.569 302.551 925.569 Q296.741 925.569 293.662 920.986 Q290.607 916.379 290.607 907.653 Q290.607 898.903 293.662 894.319 Q296.741 889.713 302.551 889.713 Z" fill="#000000" fill-rule="nonzero" fill-opacity="1" /><path clip-path="url(#clip250)" d="M327.191 882.347 Q329.918 882.93 331.441 884.773 Q332.983 886.617 332.983 889.325 Q332.983 893.481 330.125 895.757 Q327.266 898.033 322 898.033 Q320.232 898.033 318.351 897.676 Q316.489 897.337 314.495 896.641 L314.495 892.974 Q316.075 893.895 317.956 894.365 Q319.837 894.836 321.887 894.836 Q325.46 894.836 327.322 893.425 Q329.203 892.014 329.203 889.325 Q329.203 886.842 327.454 885.451 Q325.724 884.04 322.62 884.04 L319.348 884.04 L319.348 880.918 L322.771 880.918 Q325.573 880.918 327.059 879.808 Q328.545 878.68 328.545 876.573 Q328.545 874.41 327.003 873.263 Q325.479 872.097 322.62 872.097 Q321.059 872.097 319.273 872.436 Q317.486 872.774 315.342 873.489 L315.342 870.103 Q317.505 869.502 319.385 869.201 Q321.285 868.9 322.959 868.9 Q327.285 868.9 329.805 870.875 Q332.325 872.831 332.325 876.178 Q332.325 878.51 330.99 880.128 Q329.654 881.727 327.191 882.347 Z" fill="#000000" fill-rule="nonzero" fill-opacity="1" /><path clip-path="url(#clip250)" d="M115.948 691.93 L123.586 691.93 L123.586 665.564 L115.276 667.231 L115.276 662.971 L123.54 661.305 L128.216 661.305 L128.216 691.93 L135.855 691.93 L135.855 695.865 L115.948 695.865 L115.948 691.93 Z" fill="#000000" fill-rule="nonzero" fill-opacity="1" /><path clip-path="url(#clip250)" d="M145.299 689.985 L150.183 689.985 L150.183 695.865 L145.299 695.865 L145.299 689.985 Z" fill="#000000" fill-rule="nonzero" fill-opacity="1" /><path clip-path="url(#clip250)" d="M170.369 664.384 Q166.757 664.384 164.929 667.948 Q163.123 671.49 163.123 678.62 Q163.123 685.726 164.929 689.291 Q166.757 692.832 170.369 692.832 Q174.003 692.832 175.808 689.291 Q177.637 685.726 177.637 678.62 Q177.637 671.49 175.808 667.948 Q174.003 664.384 170.369 664.384 M170.369 660.68 Q176.179 660.68 179.234 665.286 Q182.313 669.87 182.313 678.62 Q182.313 687.346 179.234 691.953 Q176.179 696.536 170.369 696.536 Q164.558 696.536 161.48 691.953 Q158.424 687.346 158.424 678.62 Q158.424 669.87 161.48 665.286 Q164.558 660.68 170.369 660.68 Z" fill="#000000" fill-rule="nonzero" fill-opacity="1" /><path clip-path="url(#clip250)" d="M200.53 664.384 Q196.919 664.384 195.091 667.948 Q193.285 671.49 193.285 678.62 Q193.285 685.726 195.091 689.291 Q196.919 692.832 200.53 692.832 Q204.165 692.832 205.97 689.291 Q207.799 685.726 207.799 678.62 Q207.799 671.49 205.97 667.948 Q204.165 664.384 200.53 664.384 M200.53 660.68 Q206.341 660.68 209.396 665.286 Q212.475 669.87 212.475 678.62 Q212.475 687.346 209.396 691.953 Q206.341 696.536 200.53 696.536 Q194.72 696.536 191.642 691.953 Q188.586 687.346 188.586 678.62 Q188.586 669.87 191.642 665.286 Q194.72 660.68 200.53 660.68 Z" fill="#000000" fill-rule="nonzero" fill-opacity="1" /><path clip-path="url(#clip250)" d="M248.864 670.402 L238.285 681.027 L248.864 691.606 L246.109 694.406 L235.484 683.782 L224.859 694.406 L222.128 691.606 L232.683 681.027 L222.128 670.402 L224.859 667.601 L235.484 678.226 L246.109 667.601 L248.864 670.402 Z" fill="#000000" fill-rule="nonzero" fill-opacity="1" /><path clip-path="url(#clip250)" d="M261.225 691.93 L268.863 691.93 L268.863 665.564 L260.553 667.231 L260.553 662.971 L268.817 661.305 L273.493 661.305 L273.493 691.93 L281.132 691.93 L281.132 695.865 L261.225 695.865 L261.225 691.93 Z" fill="#000000" fill-rule="nonzero" fill-opacity="1" /><path clip-path="url(#clip250)" d="M300.576 664.384 Q296.965 664.384 295.136 667.948 Q293.331 671.49 293.331 678.62 Q293.331 685.726 295.136 689.291 Q296.965 692.832 300.576 692.832 Q304.21 692.832 306.016 689.291 Q307.845 685.726 307.845 678.62 Q307.845 671.49 306.016 667.948 Q304.21 664.384 300.576 664.384 M300.576 660.68 Q306.386 660.68 309.442 665.286 Q312.521 669.87 312.521 678.62 Q312.521 687.346 309.442 691.953 Q306.386 696.536 300.576 696.536 Q294.766 696.536 291.687 691.953 Q288.632 687.346 288.632 678.62 Q288.632 669.87 291.687 665.286 Q294.766 660.68 300.576 660.68 Z" fill="#000000" fill-rule="nonzero" fill-opacity="1" /><path clip-path="url(#clip250)" d="M325.197 643.685 L315.605 658.674 L325.197 658.674 L325.197 643.685 M324.2 640.374 L328.977 640.374 L328.977 658.674 L332.983 658.674 L332.983 661.834 L328.977 661.834 L328.977 668.454 L325.197 668.454 L325.197 661.834 L312.521 661.834 L312.521 658.167 L324.2 640.374 Z" fill="#000000" fill-rule="nonzero" fill-opacity="1" /><path clip-path="url(#clip250)" d="M115.948 462.897 L123.586 462.897 L123.586 436.531 L115.276 438.198 L115.276 433.938 L123.54 432.272 L128.216 432.272 L128.216 462.897 L135.855 462.897 L135.855 466.832 L115.948 466.832 L115.948 462.897 Z" fill="#000000" fill-rule="nonzero" fill-opacity="1" /><path clip-path="url(#clip250)" d="M145.299 460.952 L150.183 460.952 L150.183 466.832 L145.299 466.832 L145.299 460.952 Z" fill="#000000" fill-rule="nonzero" fill-opacity="1" /><path clip-path="url(#clip250)" d="M160.415 432.272 L178.771 432.272 L178.771 436.207 L164.697 436.207 L164.697 444.679 Q165.716 444.332 166.734 444.17 Q167.753 443.985 168.771 443.985 Q174.558 443.985 177.938 447.156 Q181.318 450.327 181.318 455.744 Q181.318 461.323 177.845 464.424 Q174.373 467.503 168.054 467.503 Q165.878 467.503 163.609 467.133 Q161.364 466.762 158.957 466.022 L158.957 461.323 Q161.04 462.457 163.262 463.012 Q165.484 463.568 167.961 463.568 Q171.966 463.568 174.304 461.461 Q176.642 459.355 176.642 455.744 Q176.642 452.133 174.304 450.026 Q171.966 447.92 167.961 447.92 Q166.086 447.92 164.211 448.336 Q162.359 448.753 160.415 449.633 L160.415 432.272 Z" fill="#000000" fill-rule="nonzero" fill-opacity="1" /><path clip-path="url(#clip250)" d="M200.53 435.35 Q196.919 435.35 195.091 438.915 Q193.285 442.457 193.285 449.586 Q193.285 456.693 195.091 460.258 Q196.919 463.799 200.53 463.799 Q204.165 463.799 205.97 460.258 Q207.799 456.693 207.799 449.586 Q207.799 442.457 205.97 438.915 Q204.165 435.35 200.53 435.35 M200.53 431.647 Q206.341 431.647 209.396 436.253 Q212.475 440.837 212.475 449.586 Q212.475 458.313 209.396 462.92 Q206.341 467.503 200.53 467.503 Q194.72 467.503 191.642 462.92 Q188.586 458.313 188.586 449.586 Q188.586 440.837 191.642 436.253 Q194.72 431.647 200.53 431.647 Z" fill="#000000" fill-rule="nonzero" fill-opacity="1" /><path clip-path="url(#clip250)" d="M248.864 441.369 L238.285 451.994 L248.864 462.573 L246.109 465.373 L235.484 454.748 L224.859 465.373 L222.128 462.573 L232.683 451.994 L222.128 441.369 L224.859 438.568 L235.484 449.193 L246.109 438.568 L248.864 441.369 Z" fill="#000000" fill-rule="nonzero" fill-opacity="1" /><path clip-path="url(#clip250)" d="M261.225 462.897 L268.863 462.897 L268.863 436.531 L260.553 438.198 L260.553 433.938 L268.817 432.272 L273.493 432.272 L273.493 462.897 L281.132 462.897 L281.132 466.832 L261.225 466.832 L261.225 462.897 Z" fill="#000000" fill-rule="nonzero" fill-opacity="1" /><path clip-path="url(#clip250)" d="M300.576 435.35 Q296.965 435.35 295.136 438.915 Q293.331 442.457 293.331 449.586 Q293.331 456.693 295.136 460.258 Q296.965 463.799 300.576 463.799 Q304.21 463.799 306.016 460.258 Q307.845 456.693 307.845 449.586 Q307.845 442.457 306.016 438.915 Q304.21 435.35 300.576 435.35 M300.576 431.647 Q306.386 431.647 309.442 436.253 Q312.521 440.837 312.521 449.586 Q312.521 458.313 309.442 462.92 Q306.386 467.503 300.576 467.503 Q294.766 467.503 291.687 462.92 Q288.632 458.313 288.632 449.586 Q288.632 440.837 291.687 436.253 Q294.766 431.647 300.576 431.647 Z" fill="#000000" fill-rule="nonzero" fill-opacity="1" /><path clip-path="url(#clip250)" d="M325.197 414.652 L315.605 429.641 L325.197 429.641 L325.197 414.652 M324.2 411.341 L328.977 411.341 L328.977 429.641 L332.983 429.641 L332.983 432.801 L328.977 432.801 L328.977 439.421 L325.197 439.421 L325.197 432.801 L312.521 432.801 L312.521 429.133 L324.2 411.341 Z" fill="#000000" fill-rule="nonzero" fill-opacity="1" /><path clip-path="url(#clip250)" d="M119.165 233.863 L135.484 233.863 L135.484 237.799 L113.54 237.799 L113.54 233.863 Q116.202 231.109 120.785 226.479 Q125.392 221.827 126.572 220.484 Q128.818 217.961 129.697 216.225 Q130.6 214.465 130.6 212.776 Q130.6 210.021 128.656 208.285 Q126.735 206.549 123.633 206.549 Q121.434 206.549 118.98 207.313 Q116.549 208.077 113.772 209.628 L113.772 204.905 Q116.596 203.771 119.049 203.192 Q121.503 202.614 123.54 202.614 Q128.91 202.614 132.105 205.299 Q135.299 207.984 135.299 212.475 Q135.299 214.604 134.489 216.526 Q133.702 218.424 131.596 221.016 Q131.017 221.688 127.915 224.905 Q124.813 228.1 119.165 233.863 Z" fill="#000000" fill-rule="nonzero" fill-opacity="1" /><path clip-path="url(#clip250)" d="M145.299 231.919 L150.183 231.919 L150.183 237.799 L145.299 237.799 L145.299 231.919 Z" fill="#000000" fill-rule="nonzero" fill-opacity="1" /><path clip-path="url(#clip250)" d="M170.369 206.317 Q166.757 206.317 164.929 209.882 Q163.123 213.424 163.123 220.553 Q163.123 227.66 164.929 231.225 Q166.757 234.766 170.369 234.766 Q174.003 234.766 175.808 231.225 Q177.637 227.66 177.637 220.553 Q177.637 213.424 175.808 209.882 Q174.003 206.317 170.369 206.317 M170.369 202.614 Q176.179 202.614 179.234 207.22 Q182.313 211.803 182.313 220.553 Q182.313 229.28 179.234 233.887 Q176.179 238.47 170.369 238.47 Q164.558 238.47 161.48 233.887 Q158.424 229.28 158.424 220.553 Q158.424 211.803 161.48 207.22 Q164.558 202.614 170.369 202.614 Z" fill="#000000" fill-rule="nonzero" fill-opacity="1" /><path clip-path="url(#clip250)" d="M200.53 206.317 Q196.919 206.317 195.091 209.882 Q193.285 213.424 193.285 220.553 Q193.285 227.66 195.091 231.225 Q196.919 234.766 200.53 234.766 Q204.165 234.766 205.97 231.225 Q207.799 227.66 207.799 220.553 Q207.799 213.424 205.97 209.882 Q204.165 206.317 200.53 206.317 M200.53 202.614 Q206.341 202.614 209.396 207.22 Q212.475 211.803 212.475 220.553 Q212.475 229.28 209.396 233.887 Q206.341 238.47 200.53 238.47 Q194.72 238.47 191.642 233.887 Q188.586 229.28 188.586 220.553 Q188.586 211.803 191.642 207.22 Q194.72 202.614 200.53 202.614 Z" fill="#000000" fill-rule="nonzero" fill-opacity="1" /><path clip-path="url(#clip250)" d="M248.864 212.336 L238.285 222.961 L248.864 233.539 L246.109 236.34 L235.484 225.715 L224.859 236.34 L222.128 233.539 L232.683 222.961 L222.128 212.336 L224.859 209.535 L235.484 220.16 L246.109 209.535 L248.864 212.336 Z" fill="#000000" fill-rule="nonzero" fill-opacity="1" /><path clip-path="url(#clip250)" d="M261.225 233.863 L268.863 233.863 L268.863 207.498 L260.553 209.165 L260.553 204.905 L268.817 203.239 L273.493 203.239 L273.493 233.863 L281.132 233.863 L281.132 237.799 L261.225 237.799 L261.225 233.863 Z" fill="#000000" fill-rule="nonzero" fill-opacity="1" /><path clip-path="url(#clip250)" d="M300.576 206.317 Q296.965 206.317 295.136 209.882 Q293.331 213.424 293.331 220.553 Q293.331 227.66 295.136 231.225 Q296.965 234.766 300.576 234.766 Q304.21 234.766 306.016 231.225 Q307.845 227.66 307.845 220.553 Q307.845 213.424 306.016 209.882 Q304.21 206.317 300.576 206.317 M300.576 202.614 Q306.386 202.614 309.442 207.22 Q312.521 211.803 312.521 220.553 Q312.521 229.28 309.442 233.887 Q306.386 238.47 300.576 238.47 Q294.766 238.47 291.687 233.887 Q288.632 229.28 288.632 220.553 Q288.632 211.803 291.687 207.22 Q294.766 202.614 300.576 202.614 Z" fill="#000000" fill-rule="nonzero" fill-opacity="1" /><path clip-path="url(#clip250)" d="M325.197 185.618 L315.605 200.608 L325.197 200.608 L325.197 185.618 M324.2 182.308 L328.977 182.308 L328.977 200.608 L332.983 200.608 L332.983 203.768 L328.977 203.768 L328.977 210.388 L325.197 210.388 L325.197 203.768 L312.521 203.768 L312.521 200.1 L324.2 182.308 Z" fill="#000000" fill-rule="nonzero" fill-opacity="1" /><path clip-path="url(#clip250)" d="M20.0842 966.704 L20.0842 936.658 L25.495 936.658 L25.495 960.274 L39.5632 960.274 L39.5632 937.644 L44.9741 937.644 L44.9741 960.274 L62.1933 960.274 L62.1933 936.085 L67.6042 936.085 L67.6042 966.704 L20.0842 966.704 Z" fill="#000000" fill-rule="nonzero" fill-opacity="1" /><path clip-path="url(#clip250)" d="M31.9562 896.14 L49.3028 909.03 L67.6042 895.471 L67.6042 902.378 L53.5996 912.754 L67.6042 923.13 L67.6042 930.037 L48.9526 916.192 L31.9562 928.86 L31.9562 921.953 L44.6558 912.5 L31.9562 903.047 L31.9562 896.14 Z" fill="#000000" fill-rule="nonzero" fill-opacity="1" /><path clip-path="url(#clip250)" d="M62.257 881.531 L81.1631 881.531 L81.1631 887.419 L31.9562 887.419 L31.9562 881.531 L37.3671 881.531 Q34.1842 879.684 32.6564 876.884 Q31.0968 874.051 31.0968 870.136 Q31.0968 863.643 36.2531 859.601 Q41.4093 855.527 49.812 855.527 Q58.2147 855.527 63.371 859.601 Q68.5272 863.643 68.5272 870.136 Q68.5272 874.051 66.9994 876.884 Q65.4398 879.684 62.257 881.531 M49.812 861.606 Q43.3508 861.606 39.6905 864.279 Q35.9984 866.921 35.9984 871.568 Q35.9984 876.215 39.6905 878.889 Q43.3508 881.531 49.812 881.531 Q56.2732 881.531 59.9653 878.889 Q63.6256 876.215 63.6256 871.568 Q63.6256 866.921 59.9653 864.279 Q56.2732 861.606 49.812 861.606 Z" fill="#000000" fill-rule="nonzero" fill-opacity="1" /><path clip-path="url(#clip250)" d="M48.3161 815.327 L51.1806 815.327 L51.1806 842.254 Q57.2281 841.872 60.4109 838.626 Q63.5619 835.347 63.5619 829.523 Q63.5619 826.149 62.7344 822.998 Q61.9069 819.815 60.2518 816.696 L65.7899 816.696 Q67.1267 819.847 67.827 823.157 Q68.5272 826.467 68.5272 829.873 Q68.5272 838.403 63.5619 843.4 Q58.5967 848.365 50.1303 848.365 Q41.3774 848.365 36.2531 843.655 Q31.0968 838.912 31.0968 830.891 Q31.0968 823.698 35.7438 819.529 Q40.3589 815.327 48.3161 815.327 M46.5973 821.184 Q41.7912 821.247 38.9266 823.889 Q36.0621 826.499 36.0621 830.828 Q36.0621 835.729 38.8312 838.689 Q41.6002 841.618 46.6292 842.063 L46.5973 821.184 Z" fill="#000000" fill-rule="nonzero" fill-opacity="1" /><path clip-path="url(#clip250)" d="M33.3248 780.061 L38.7993 780.061 Q37.4307 782.544 36.7623 785.058 Q36.0621 787.541 36.0621 790.087 Q36.0621 795.784 39.6905 798.935 Q43.2872 802.087 49.812 802.087 Q56.3369 802.087 59.9653 798.935 Q63.5619 795.784 63.5619 790.087 Q63.5619 787.541 62.8935 785.058 Q62.1933 782.544 60.8247 780.061 L66.2355 780.061 Q67.3814 782.512 67.9543 785.154 Q68.5272 787.764 68.5272 790.724 Q68.5272 798.776 63.4664 803.519 Q58.4057 808.261 49.812 808.261 Q41.091 808.261 36.0939 803.487 Q31.0968 798.681 31.0968 790.342 Q31.0968 787.636 31.6697 785.058 Q32.2108 782.48 33.3248 780.061 Z" fill="#000000" fill-rule="nonzero" fill-opacity="1" /><path clip-path="url(#clip250)" d="M21.8347 764.083 L31.9562 764.083 L31.9562 752.02 L36.5077 752.02 L36.5077 764.083 L55.8594 764.083 Q60.2199 764.083 61.4613 762.906 Q62.7026 761.696 62.7026 758.036 L62.7026 752.02 L67.6042 752.02 L67.6042 758.036 Q67.6042 764.815 65.0897 767.393 Q62.5434 769.972 55.8594 769.972 L36.5077 769.972 L36.5077 774.268 L31.9562 774.268 L31.9562 769.972 L21.8347 769.972 L21.8347 764.083 Z" fill="#000000" fill-rule="nonzero" fill-opacity="1" /><path clip-path="url(#clip250)" d="M48.3161 713.826 L51.1806 713.826 L51.1806 740.753 Q57.2281 740.371 60.4109 737.124 Q63.5619 733.846 63.5619 728.022 Q63.5619 724.648 62.7344 721.497 Q61.9069 718.314 60.2518 715.195 L65.7899 715.195 Q67.1267 718.346 67.827 721.656 Q68.5272 724.966 68.5272 728.372 Q68.5272 736.902 63.5619 741.899 Q58.5967 746.864 50.1303 746.864 Q41.3774 746.864 36.2531 742.153 Q31.0968 737.411 31.0968 729.39 Q31.0968 722.197 35.7438 718.027 Q40.3589 713.826 48.3161 713.826 M46.5973 719.682 Q41.7912 719.746 38.9266 722.388 Q36.0621 724.998 36.0621 729.326 Q36.0621 734.228 38.8312 737.188 Q41.6002 740.116 46.6292 740.562 L46.5973 719.682 Z" fill="#000000" fill-rule="nonzero" fill-opacity="1" /><path clip-path="url(#clip250)" d="M37.3671 680.756 L18.079 680.756 L18.079 674.9 L67.6042 674.9 L67.6042 680.756 L62.257 680.756 Q65.4398 682.602 66.9994 685.435 Q68.5272 688.236 68.5272 692.183 Q68.5272 698.644 63.371 702.718 Q58.2147 706.76 49.812 706.76 Q41.4093 706.76 36.2531 702.718 Q31.0968 698.644 31.0968 692.183 Q31.0968 688.236 32.6564 685.435 Q34.1842 682.602 37.3671 680.756 M49.812 700.713 Q56.2732 700.713 59.9653 698.071 Q63.6256 695.397 63.6256 690.75 Q63.6256 686.103 59.9653 683.43 Q56.2732 680.756 49.812 680.756 Q43.3508 680.756 39.6905 683.43 Q35.9984 686.103 35.9984 690.75 Q35.9984 695.397 39.6905 698.071 Q43.3508 700.713 49.812 700.713 Z" fill="#000000" fill-rule="nonzero" fill-opacity="1" /><path clip-path="url(#clip250)" d="M20.0842 646.095 L20.0842 639.602 L60.2518 629.608 L20.0842 619.645 L20.0842 612.42 L60.2518 602.426 L20.0842 592.464 L20.0842 585.939 L67.6042 597.875 L67.6042 605.959 L26.3544 615.985 L67.6042 626.107 L67.6042 634.191 L20.0842 646.095 Z" fill="#000000" fill-rule="nonzero" fill-opacity="1" /><path clip-path="url(#clip250)" d="M31.9562 579.096 L31.9562 573.239 L67.6042 573.239 L67.6042 579.096 L31.9562 579.096 M18.079 579.096 L18.079 573.239 L25.495 573.239 L25.495 579.096 L18.079 579.096 Z" fill="#000000" fill-rule="nonzero" fill-opacity="1" /><path clip-path="url(#clip250)" d="M46.0881 531.353 L67.6042 531.353 L67.6042 537.209 L46.279 537.209 Q41.2183 537.209 38.7038 539.183 Q36.1894 541.156 36.1894 545.103 Q36.1894 549.845 39.2131 552.583 Q42.2368 555.32 47.4567 555.32 L67.6042 555.32 L67.6042 561.208 L31.9562 561.208 L31.9562 555.32 L37.4944 555.32 Q34.2797 553.219 32.6883 550.386 Q31.0968 547.522 31.0968 543.798 Q31.0968 537.655 34.9163 534.504 Q38.7038 531.353 46.0881 531.353 Z" fill="#000000" fill-rule="nonzero" fill-opacity="1" /><path clip-path="url(#clip250)" d="M46.0881 490.04 L67.6042 490.04 L67.6042 495.896 L46.279 495.896 Q41.2183 495.896 38.7038 497.869 Q36.1894 499.843 36.1894 503.79 Q36.1894 508.532 39.2131 511.269 Q42.2368 514.006 47.4567 514.006 L67.6042 514.006 L67.6042 519.895 L31.9562 519.895 L31.9562 514.006 L37.4944 514.006 Q34.2797 511.906 32.6883 509.073 Q31.0968 506.208 31.0968 502.485 Q31.0968 496.342 34.9163 493.191 Q38.7038 490.04 46.0881 490.04 Z" fill="#000000" fill-rule="nonzero" fill-opacity="1" /><path clip-path="url(#clip250)" d="M31.9562 478.359 L31.9562 472.502 L67.6042 472.502 L67.6042 478.359 L31.9562 478.359 M18.079 478.359 L18.079 472.502 L25.495 472.502 L25.495 478.359 L18.079 478.359 Z" fill="#000000" fill-rule="nonzero" fill-opacity="1" /><path clip-path="url(#clip250)" d="M46.0881 430.616 L67.6042 430.616 L67.6042 436.472 L46.279 436.472 Q41.2183 436.472 38.7038 438.446 Q36.1894 440.419 36.1894 444.366 Q36.1894 449.108 39.2131 451.845 Q42.2368 454.583 47.4567 454.583 L67.6042 454.583 L67.6042 460.471 L31.9562 460.471 L31.9562 454.583 L37.4944 454.583 Q34.2797 452.482 32.6883 449.649 Q31.0968 446.785 31.0968 443.061 Q31.0968 436.918 34.9163 433.767 Q38.7038 430.616 46.0881 430.616 Z" fill="#000000" fill-rule="nonzero" fill-opacity="1" /><path clip-path="url(#clip250)" d="M49.3664 395.477 Q43.0007 395.477 39.4996 398.119 Q35.9984 400.729 35.9984 405.471 Q35.9984 410.182 39.4996 412.824 Q43.0007 415.433 49.3664 415.433 Q55.7003 415.433 59.2014 412.824 Q62.7026 410.182 62.7026 405.471 Q62.7026 400.729 59.2014 398.119 Q55.7003 395.477 49.3664 395.477 M63.18 389.621 Q72.283 389.621 76.7071 393.663 Q81.1631 397.705 81.1631 406.044 Q81.1631 409.131 80.6857 411.869 Q80.2401 414.606 79.2852 417.184 L73.5879 417.184 Q74.9884 414.606 75.6568 412.092 Q76.3252 409.577 76.3252 406.967 Q76.3252 401.206 73.3015 398.342 Q70.3096 395.477 64.2303 395.477 L61.3339 395.477 Q64.485 397.291 66.0446 400.124 Q67.6042 402.957 67.6042 406.903 Q67.6042 413.46 62.6071 417.471 Q57.61 421.481 49.3664 421.481 Q41.091 421.481 36.0939 417.471 Q31.0968 413.46 31.0968 406.903 Q31.0968 402.957 32.6564 400.124 Q34.216 397.291 37.3671 395.477 L31.9562 395.477 L31.9562 389.621 L63.18 389.621 Z" fill="#000000" fill-rule="nonzero" fill-opacity="1" /><path clip-path="url(#clip250)" d="M33.0065 354.832 L38.5447 354.832 Q37.2716 357.315 36.635 359.988 Q35.9984 362.662 35.9984 365.526 Q35.9984 369.887 37.3352 372.083 Q38.672 374.247 41.3456 374.247 Q43.3826 374.247 44.5603 372.688 Q45.7061 371.128 46.7565 366.418 L47.2021 364.412 Q48.5389 358.174 50.9897 355.564 Q53.4086 352.922 57.7691 352.922 Q62.7344 352.922 65.6308 356.869 Q68.5272 360.784 68.5272 367.659 Q68.5272 370.523 67.9543 373.643 Q67.4132 376.73 66.2992 380.167 L60.2518 380.167 Q61.9387 376.921 62.798 373.77 Q63.6256 370.619 63.6256 367.532 Q63.6256 363.394 62.2251 361.166 Q60.7929 358.938 58.2147 358.938 Q55.8276 358.938 54.5545 360.561 Q53.2813 362.153 52.1037 367.595 L51.6262 369.632 Q50.4804 375.075 48.1251 377.494 Q45.738 379.913 41.6002 379.913 Q36.5713 379.913 33.8341 376.348 Q31.0968 372.783 31.0968 366.227 Q31.0968 362.98 31.5743 360.116 Q32.0517 357.251 33.0065 354.832 Z" fill="#000000" fill-rule="nonzero" fill-opacity="1" /><path clip-path="url(#clip250)" d="M18.1426 308.808 Q25.4632 313.073 32.6246 315.142 Q39.786 317.211 47.1384 317.211 Q54.4908 317.211 61.7159 315.142 Q68.9091 313.041 76.1979 308.808 L76.1979 313.9 Q68.7182 318.675 61.4931 321.062 Q54.268 323.417 47.1384 323.417 Q40.0406 323.417 32.8474 321.062 Q25.6542 318.707 18.1426 313.9 L18.1426 308.808 Z" fill="#000000" fill-rule="nonzero" fill-opacity="1" /><path clip-path="url(#clip250)" d="M77.1845 281.563 L77.1845 284.746 L67.6042 284.777 Q67.5405 288.119 66.8403 291.461 Q66.1082 294.803 64.6759 298.177 L58.9468 298.177 Q60.9838 294.931 62.0342 291.621 Q63.0527 288.279 63.0845 284.746 L48.5707 284.746 Q47.4249 291.78 44.6876 294.994 Q41.9504 298.177 37.1761 298.177 Q31.988 298.177 28.9961 294.708 Q26.0043 291.239 25.5587 284.746 L18.079 284.746 L18.079 281.563 L25.4632 281.563 Q25.5905 278.603 26.0998 275.834 Q26.5772 273.064 27.4365 270.423 L33.0065 270.423 Q31.6697 273.064 30.9377 275.865 Q30.2056 278.634 30.0783 281.563 L43.6691 281.563 Q44.7831 274.338 47.6477 270.932 Q50.5122 267.526 55.4775 267.526 Q60.8565 267.526 63.9757 271.155 Q67.0631 274.751 67.5405 281.563 L77.1845 281.563 M43.0962 284.746 L30.0465 284.746 Q30.4603 288.438 32.1472 290.379 Q33.8341 292.321 36.635 292.321 Q39.3722 292.321 40.9 290.538 Q42.4278 288.724 43.0962 284.746 M49.2073 281.563 L62.989 281.563 Q62.4479 277.52 60.6974 275.483 Q58.9468 273.415 56.0822 273.415 Q53.2813 273.415 51.6262 275.388 Q49.9712 277.329 49.2073 281.563 Z" fill="#000000" fill-rule="nonzero" fill-opacity="1" /><path clip-path="url(#clip250)" d="M18.1426 256.896 L18.1426 251.803 Q25.6542 247.029 32.8474 244.673 Q40.0406 242.286 47.1384 242.286 Q54.268 242.286 61.4931 244.673 Q68.7182 247.029 76.1979 251.803 L76.1979 256.896 Q68.9091 252.662 61.7159 250.594 Q54.4908 248.493 47.1384 248.493 Q39.786 248.493 32.6246 250.594 Q25.4632 252.662 18.1426 256.896 Z" fill="#000000" fill-rule="nonzero" fill-opacity="1" /><polyline clip-path="url(#clip252)" style="stroke:#009af9; stroke-linecap:round; stroke-linejoin:round; stroke-width:4; stroke-opacity:1; fill:none" points="412.779,1130.2 431.873,1107.3 450.966,1084.4 470.06,1061.49 489.154,1038.59 508.247,1015.69 527.341,992.784 546.434,969.88 565.528,946.977 584.621,924.074 603.715,901.17 622.809,878.267 641.902,855.364 660.996,832.46 680.089,809.557 699.183,786.654 718.277,763.75 737.37,740.847 756.464,717.944 775.557,695.041 794.651,672.137 813.744,649.236 832.838,626.331 851.932,603.43 871.025,580.526 890.119,557.637 909.212,534.741 928.306,511.836 947.4,488.923 966.493,466.071 985.587,443.205 1004.68,420.378 1023.77,397.549 1042.87,374.76 1061.96,352.114 1081.05,329.438 1100.15,306.997 1119.24,284.751 1138.34,262.738 1157.43,240.954 1176.52,219.725 1195.62,198.907 1214.71,179.228 1233.8,160.276 1252.9,142.408 1271.99,125.952 1291.08,111.345 1310.18,99.8752 1329.27,89.3207 1348.36,82.6919 1367.46,78.7866 1386.55,79.4564 1405.65,84.5727 1424.74,93.3049 1443.83,106.61 1462.93,125.53 1482.02,150.183 1501.11,178.418 1520.21,213.386 1539.3,251.816 1558.39,296.117 1577.49,344.387 1596.58,392.651 1615.67,446.443 1634.77,500.575 1653.86,554.308 1672.96,611.445 1692.05,665.339 1711.14,718.085 1730.24,768.767 1749.33,815.886 1768.42,860.622 1787.52,902.059 1806.61,938.133 1825.7,972.011 1844.8,1001.79 1863.89,1026.44 1882.99,1048.8 1902.08,1067.34 1921.17,1083.72 1940.27,1096.92 1959.36,1107.19 1978.45,1115.57 1997.55,1122.27 2016.64,1130.2 "/>
</svg>
