<?xml version="1.0" encoding="utf-8"?>
<svg xmlns="http://www.w3.org/2000/svg" xmlns:xlink="http://www.w3.org/1999/xlink" width="528" height="336" viewBox="0 0 2112 1344">
<defs>
  <clipPath id="clip360">
    <rect x="0" y="0" width="2112" height="1344"/>
  </clipPath>
</defs>
<path clip-path="url(#clip360)" d="M0 1344 L2112 1344 L2112 0 L0 0  Z" fill="#ffffff" fill-rule="evenodd" fill-opacity="1"/>
<defs>
  <clipPath id="clip361">
    <rect x="422" y="0" width="1479" height="1344"/>
  </clipPath>
</defs>
<path clip-path="url(#clip360)" d="M198.924 1173.47 L2064.76 1173.47 L2064.76 47.2441 L198.924 47.2441  Z" fill="#ffffff" fill-rule="evenodd" fill-opacity="1"/>
<defs>
  <clipPath id="clip362">
    <rect x="198" y="47" width="1867" height="1127"/>
  </clipPath>
</defs>
<polyline clip-path="url(#clip362)" style="stroke:#000000; stroke-linecap:round; stroke-linejoin:round; stroke-width:2; stroke-opacity:0.1; fill:none" points="427.752,1173.47 427.752,47.2441 "/>
<polyline clip-path="url(#clip362)" style="stroke:#000000; stroke-linecap:round; stroke-linejoin:round; stroke-width:2; stroke-opacity:0.1; fill:none" points="779.796,1173.47 779.796,47.2441 "/>
<polyline clip-path="url(#clip362)" style="stroke:#000000; stroke-linecap:round; stroke-linejoin:round; stroke-width:2; stroke-opacity:0.1; fill:none" points="1131.84,1173.47 1131.84,47.2441 "/>
<polyline clip-path="url(#clip362)" style="stroke:#000000; stroke-linecap:round; stroke-linejoin:round; stroke-width:2; stroke-opacity:0.1; fill:none" points="1483.88,1173.47 1483.88,47.2441 "/>
<polyline clip-path="url(#clip362)" style="stroke:#000000; stroke-linecap:round; stroke-linejoin:round; stroke-width:2; stroke-opacity:0.1; fill:none" points="1835.93,1173.47 1835.93,47.2441 "/>
<polyline clip-path="url(#clip360)" style="stroke:#000000; stroke-linecap:round; stroke-linejoin:round; stroke-width:4; stroke-opacity:1; fill:none" points="198.924,1173.47 2064.76,1173.47 "/>
<polyline clip-path="url(#clip360)" style="stroke:#000000; stroke-linecap:round; stroke-linejoin:round; stroke-width:4; stroke-opacity:1; fill:none" points="427.752,1173.47 427.752,1154.57 "/>
<polyline clip-path="url(#clip360)" style="stroke:#000000; stroke-linecap:round; stroke-linejoin:round; stroke-width:4; stroke-opacity:1; fill:none" points="779.796,1173.47 779.796,1154.57 "/>
<polyline clip-path="url(#clip360)" style="stroke:#000000; stroke-linecap:round; stroke-linejoin:round; stroke-width:4; stroke-opacity:1; fill:none" points="1131.84,1173.47 1131.84,1154.57 "/>
<polyline clip-path="url(#clip360)" style="stroke:#000000; stroke-linecap:round; stroke-linejoin:round; stroke-width:4; stroke-opacity:1; fill:none" points="1483.88,1173.47 1483.88,1154.57 "/>
<polyline clip-path="url(#clip360)" style="stroke:#000000; stroke-linecap:round; stroke-linejoin:round; stroke-width:4; stroke-opacity:1; fill:none" points="1835.93,1173.47 1835.93,1154.57 "/>
<path clip-path="url(#clip360)" d="M396.653 1216.74 L426.328 1216.74 L426.328 1220.67 L396.653 1220.67 L396.653 1216.74 Z" fill="#000000" fill-rule="nonzero" fill-opacity="1" /><path clip-path="url(#clip360)" d="M449.268 1203.08 L437.463 1221.53 L449.268 1221.53 L449.268 1203.08 M448.041 1199.01 L453.921 1199.01 L453.921 1221.53 L458.851 1221.53 L458.851 1225.42 L453.921 1225.42 L453.921 1233.57 L449.268 1233.57 L449.268 1225.42 L433.666 1225.42 L433.666 1220.9 L448.041 1199.01 Z" fill="#000000" fill-rule="nonzero" fill-opacity="1" /><path clip-path="url(#clip360)" d="M749.738 1216.74 L779.414 1216.74 L779.414 1220.67 L749.738 1220.67 L749.738 1216.74 Z" fill="#000000" fill-rule="nonzero" fill-opacity="1" /><path clip-path="url(#clip360)" d="M793.534 1229.63 L809.854 1229.63 L809.854 1233.57 L787.909 1233.57 L787.909 1229.63 Q790.571 1226.88 795.155 1222.25 Q799.761 1217.59 800.942 1216.25 Q803.187 1213.73 804.067 1211.99 Q804.969 1210.23 804.969 1208.54 Q804.969 1205.79 803.025 1204.05 Q801.104 1202.32 798.002 1202.32 Q795.803 1202.32 793.349 1203.08 Q790.919 1203.84 788.141 1205.4 L788.141 1200.67 Q790.965 1199.54 793.419 1198.96 Q795.872 1198.38 797.909 1198.38 Q803.28 1198.38 806.474 1201.07 Q809.668 1203.75 809.668 1208.24 Q809.668 1210.37 808.858 1212.29 Q808.071 1214.19 805.965 1216.78 Q805.386 1217.46 802.284 1220.67 Q799.182 1223.87 793.534 1229.63 Z" fill="#000000" fill-rule="nonzero" fill-opacity="1" /><path clip-path="url(#clip360)" d="M1131.84 1202.09 Q1128.23 1202.09 1126.4 1205.65 Q1124.59 1209.19 1124.59 1216.32 Q1124.59 1223.43 1126.4 1226.99 Q1128.23 1230.53 1131.84 1230.53 Q1135.47 1230.53 1137.28 1226.99 Q1139.11 1223.43 1139.11 1216.32 Q1139.11 1209.19 1137.28 1205.65 Q1135.47 1202.09 1131.84 1202.09 M1131.84 1198.38 Q1137.65 1198.38 1140.71 1202.99 Q1143.78 1207.57 1143.78 1216.32 Q1143.78 1225.05 1140.71 1229.65 Q1137.65 1234.24 1131.84 1234.24 Q1126.03 1234.24 1122.95 1229.65 Q1119.9 1225.05 1119.9 1216.32 Q1119.9 1207.57 1122.95 1202.99 Q1126.03 1198.38 1131.84 1198.38 Z" fill="#000000" fill-rule="nonzero" fill-opacity="1" /><path clip-path="url(#clip360)" d="M1478.54 1229.63 L1494.86 1229.63 L1494.86 1233.57 L1472.91 1233.57 L1472.91 1229.63 Q1475.57 1226.88 1480.16 1222.25 Q1484.76 1217.59 1485.94 1216.25 Q1488.19 1213.73 1489.07 1211.99 Q1489.97 1210.23 1489.97 1208.54 Q1489.97 1205.79 1488.03 1204.05 Q1486.11 1202.32 1483 1202.32 Q1480.8 1202.32 1478.35 1203.08 Q1475.92 1203.84 1473.14 1205.4 L1473.14 1200.67 Q1475.97 1199.54 1478.42 1198.96 Q1480.87 1198.38 1482.91 1198.38 Q1488.28 1198.38 1491.48 1201.07 Q1494.67 1203.75 1494.67 1208.24 Q1494.67 1210.37 1493.86 1212.29 Q1493.07 1214.19 1490.97 1216.78 Q1490.39 1217.46 1487.29 1220.67 Q1484.18 1223.87 1478.54 1229.63 Z" fill="#000000" fill-rule="nonzero" fill-opacity="1" /><path clip-path="url(#clip360)" d="M1838.94 1203.08 L1827.13 1221.53 L1838.94 1221.53 L1838.94 1203.08 M1837.71 1199.01 L1843.59 1199.01 L1843.59 1221.53 L1848.52 1221.53 L1848.52 1225.42 L1843.59 1225.42 L1843.59 1233.57 L1838.94 1233.57 L1838.94 1225.42 L1823.33 1225.42 L1823.33 1220.9 L1837.71 1199.01 Z" fill="#000000" fill-rule="nonzero" fill-opacity="1" /><path clip-path="url(#clip360)" d="M1062.47 1314.01 L1044.33 1266.49 L1051.04 1266.49 L1066.1 1306.5 L1081.18 1266.49 L1087.87 1266.49 L1069.76 1314.01 L1062.47 1314.01 Z" fill="#000000" fill-rule="nonzero" fill-opacity="1" /><path clip-path="url(#clip360)" d="M1105.69 1296.1 Q1098.59 1296.1 1095.86 1297.72 Q1093.12 1299.34 1093.12 1303.26 Q1093.12 1306.38 1095.16 1308.22 Q1097.23 1310.04 1100.76 1310.04 Q1105.63 1310.04 1108.56 1306.6 Q1111.52 1303.13 1111.52 1297.4 L1111.52 1296.1 L1105.69 1296.1 M1117.37 1293.68 L1117.37 1314.01 L1111.52 1314.01 L1111.52 1308.6 Q1109.51 1311.85 1106.52 1313.41 Q1103.53 1314.94 1099.2 1314.94 Q1093.73 1314.94 1090.48 1311.88 Q1087.26 1308.79 1087.26 1303.64 Q1087.26 1297.62 1091.27 1294.57 Q1095.32 1291.51 1103.31 1291.51 L1111.52 1291.51 L1111.52 1290.94 Q1111.52 1286.9 1108.84 1284.7 Q1106.2 1282.47 1101.4 1282.47 Q1098.34 1282.47 1095.44 1283.2 Q1092.55 1283.94 1089.87 1285.4 L1089.87 1279.99 Q1093.09 1278.75 1096.11 1278.14 Q1099.14 1277.51 1102 1277.51 Q1109.73 1277.51 1113.55 1281.52 Q1117.37 1285.53 1117.37 1293.68 Z" fill="#000000" fill-rule="nonzero" fill-opacity="1" /><path clip-path="url(#clip360)" d="M1129.44 1264.49 L1135.29 1264.49 L1135.29 1314.01 L1129.44 1314.01 L1129.44 1264.49 Z" fill="#000000" fill-rule="nonzero" fill-opacity="1" /><path clip-path="url(#clip360)" d="M1146.94 1299.95 L1146.94 1278.37 L1152.8 1278.37 L1152.8 1299.72 Q1152.8 1304.78 1154.77 1307.33 Q1156.75 1309.85 1160.69 1309.85 Q1165.43 1309.85 1168.17 1306.82 Q1170.94 1303.8 1170.94 1298.58 L1170.94 1278.37 L1176.8 1278.37 L1176.8 1314.01 L1170.94 1314.01 L1170.94 1308.54 Q1168.81 1311.79 1165.98 1313.38 Q1163.17 1314.94 1159.45 1314.94 Q1153.31 1314.94 1150.13 1311.12 Q1146.94 1307.3 1146.94 1299.95 M1161.68 1277.51 L1161.68 1277.51 Z" fill="#000000" fill-rule="nonzero" fill-opacity="1" /><path clip-path="url(#clip360)" d="M1219.35 1294.73 L1219.35 1297.59 L1192.43 1297.59 Q1192.81 1303.64 1196.05 1306.82 Q1199.33 1309.97 1205.16 1309.97 Q1208.53 1309.97 1211.68 1309.14 Q1214.86 1308.32 1217.98 1306.66 L1217.98 1312.2 Q1214.83 1313.54 1211.52 1314.24 Q1208.21 1314.94 1204.81 1314.94 Q1196.28 1314.94 1191.28 1309.97 Q1186.31 1305.01 1186.31 1296.54 Q1186.31 1287.79 1191.02 1282.66 Q1195.77 1277.51 1203.79 1277.51 Q1210.98 1277.51 1215.15 1282.15 Q1219.35 1286.77 1219.35 1294.73 M1213.5 1293.01 Q1213.43 1288.2 1210.79 1285.34 Q1208.18 1282.47 1203.85 1282.47 Q1198.95 1282.47 1195.99 1285.24 Q1193.06 1288.01 1192.62 1293.04 L1213.5 1293.01 Z" fill="#000000" fill-rule="nonzero" fill-opacity="1" /><polyline clip-path="url(#clip362)" style="stroke:#000000; stroke-linecap:round; stroke-linejoin:round; stroke-width:2; stroke-opacity:0.1; fill:none" points="198.924,1141.6 2064.76,1141.6 "/>
<polyline clip-path="url(#clip362)" style="stroke:#000000; stroke-linecap:round; stroke-linejoin:round; stroke-width:2; stroke-opacity:0.1; fill:none" points="198.924,929.101 2064.76,929.101 "/>
<polyline clip-path="url(#clip362)" style="stroke:#000000; stroke-linecap:round; stroke-linejoin:round; stroke-width:2; stroke-opacity:0.1; fill:none" points="198.924,716.605 2064.76,716.605 "/>
<polyline clip-path="url(#clip362)" style="stroke:#000000; stroke-linecap:round; stroke-linejoin:round; stroke-width:2; stroke-opacity:0.1; fill:none" points="198.924,504.11 2064.76,504.11 "/>
<polyline clip-path="url(#clip362)" style="stroke:#000000; stroke-linecap:round; stroke-linejoin:round; stroke-width:2; stroke-opacity:0.1; fill:none" points="198.924,291.614 2064.76,291.614 "/>
<polyline clip-path="url(#clip362)" style="stroke:#000000; stroke-linecap:round; stroke-linejoin:round; stroke-width:2; stroke-opacity:0.1; fill:none" points="198.924,79.1184 2064.76,79.1184 "/>
<polyline clip-path="url(#clip360)" style="stroke:#000000; stroke-linecap:round; stroke-linejoin:round; stroke-width:4; stroke-opacity:1; fill:none" points="198.924,1173.47 198.924,47.2441 "/>
<polyline clip-path="url(#clip360)" style="stroke:#000000; stroke-linecap:round; stroke-linejoin:round; stroke-width:4; stroke-opacity:1; fill:none" points="198.924,1141.6 217.821,1141.6 "/>
<polyline clip-path="url(#clip360)" style="stroke:#000000; stroke-linecap:round; stroke-linejoin:round; stroke-width:4; stroke-opacity:1; fill:none" points="198.924,929.101 217.821,929.101 "/>
<polyline clip-path="url(#clip360)" style="stroke:#000000; stroke-linecap:round; stroke-linejoin:round; stroke-width:4; stroke-opacity:1; fill:none" points="198.924,716.605 217.821,716.605 "/>
<polyline clip-path="url(#clip360)" style="stroke:#000000; stroke-linecap:round; stroke-linejoin:round; stroke-width:4; stroke-opacity:1; fill:none" points="198.924,504.11 217.821,504.11 "/>
<polyline clip-path="url(#clip360)" style="stroke:#000000; stroke-linecap:round; stroke-linejoin:round; stroke-width:4; stroke-opacity:1; fill:none" points="198.924,291.614 217.821,291.614 "/>
<polyline clip-path="url(#clip360)" style="stroke:#000000; stroke-linecap:round; stroke-linejoin:round; stroke-width:4; stroke-opacity:1; fill:none" points="198.924,79.1184 217.821,79.1184 "/>
<path clip-path="url(#clip360)" d="M155.299 1127.4 Q151.688 1127.4 149.859 1130.96 Q148.054 1134.5 148.054 1141.63 Q148.054 1148.74 149.859 1152.3 Q151.688 1155.84 155.299 1155.84 Q158.933 1155.84 160.739 1152.3 Q162.568 1148.74 162.568 1141.63 Q162.568 1134.5 160.739 1130.96 Q158.933 1127.4 155.299 1127.4 M155.299 1123.69 Q161.109 1123.69 164.165 1128.3 Q167.244 1132.88 167.244 1141.63 Q167.244 1150.36 164.165 1154.96 Q161.109 1159.55 155.299 1159.55 Q149.489 1159.55 146.41 1154.96 Q143.355 1150.36 143.355 1141.63 Q143.355 1132.88 146.41 1128.3 Q149.489 1123.69 155.299 1123.69 Z" fill="#000000" fill-rule="nonzero" fill-opacity="1" /><path clip-path="url(#clip360)" d="M146.341 911.821 L164.697 911.821 L164.697 915.756 L150.623 915.756 L150.623 924.228 Q151.642 923.881 152.66 923.719 Q153.679 923.534 154.697 923.534 Q160.484 923.534 163.864 926.705 Q167.244 929.876 167.244 935.293 Q167.244 940.872 163.771 943.973 Q160.299 947.052 153.98 947.052 Q151.804 947.052 149.535 946.682 Q147.29 946.311 144.883 945.571 L144.883 940.872 Q146.966 942.006 149.188 942.561 Q151.41 943.117 153.887 943.117 Q157.892 943.117 160.23 941.01 Q162.568 938.904 162.568 935.293 Q162.568 931.682 160.23 929.575 Q157.892 927.469 153.887 927.469 Q152.012 927.469 150.137 927.886 Q148.285 928.302 146.341 929.182 L146.341 911.821 Z" fill="#000000" fill-rule="nonzero" fill-opacity="1" /><path clip-path="url(#clip360)" d="M115.948 729.95 L123.586 729.95 L123.586 703.584 L115.276 705.251 L115.276 700.992 L123.54 699.325 L128.216 699.325 L128.216 729.95 L135.855 729.95 L135.855 733.885 L115.948 733.885 L115.948 729.95 Z" fill="#000000" fill-rule="nonzero" fill-opacity="1" /><path clip-path="url(#clip360)" d="M155.299 702.404 Q151.688 702.404 149.859 705.969 Q148.054 709.51 148.054 716.64 Q148.054 723.746 149.859 727.311 Q151.688 730.853 155.299 730.853 Q158.933 730.853 160.739 727.311 Q162.568 723.746 162.568 716.64 Q162.568 709.51 160.739 705.969 Q158.933 702.404 155.299 702.404 M155.299 698.7 Q161.109 698.7 164.165 703.307 Q167.244 707.89 167.244 716.64 Q167.244 725.367 164.165 729.973 Q161.109 734.557 155.299 734.557 Q149.489 734.557 146.41 729.973 Q143.355 725.367 143.355 716.64 Q143.355 707.89 146.41 703.307 Q149.489 698.7 155.299 698.7 Z" fill="#000000" fill-rule="nonzero" fill-opacity="1" /><path clip-path="url(#clip360)" d="M116.943 517.454 L124.582 517.454 L124.582 491.089 L116.272 492.756 L116.272 488.496 L124.535 486.83 L129.211 486.83 L129.211 517.454 L136.85 517.454 L136.85 521.39 L116.943 521.39 L116.943 517.454 Z" fill="#000000" fill-rule="nonzero" fill-opacity="1" /><path clip-path="url(#clip360)" d="M146.341 486.83 L164.697 486.83 L164.697 490.765 L150.623 490.765 L150.623 499.237 Q151.642 498.89 152.66 498.728 Q153.679 498.543 154.697 498.543 Q160.484 498.543 163.864 501.714 Q167.244 504.885 167.244 510.302 Q167.244 515.88 163.771 518.982 Q160.299 522.061 153.98 522.061 Q151.804 522.061 149.535 521.691 Q147.29 521.32 144.883 520.579 L144.883 515.88 Q146.966 517.015 149.188 517.57 Q151.41 518.126 153.887 518.126 Q157.892 518.126 160.23 516.019 Q162.568 513.913 162.568 510.302 Q162.568 506.691 160.23 504.584 Q157.892 502.478 153.887 502.478 Q152.012 502.478 150.137 502.894 Q148.285 503.311 146.341 504.191 L146.341 486.83 Z" fill="#000000" fill-rule="nonzero" fill-opacity="1" /><path clip-path="url(#clip360)" d="M119.165 304.959 L135.484 304.959 L135.484 308.894 L113.54 308.894 L113.54 304.959 Q116.202 302.204 120.785 297.575 Q125.392 292.922 126.572 291.579 Q128.818 289.056 129.697 287.32 Q130.6 285.561 130.6 283.871 Q130.6 281.116 128.656 279.38 Q126.735 277.644 123.633 277.644 Q121.434 277.644 118.98 278.408 Q116.549 279.172 113.772 280.723 L113.772 276.001 Q116.596 274.866 119.049 274.288 Q121.503 273.709 123.54 273.709 Q128.91 273.709 132.105 276.394 Q135.299 279.079 135.299 283.57 Q135.299 285.7 134.489 287.621 Q133.702 289.519 131.596 292.112 Q131.017 292.783 127.915 296.001 Q124.813 299.195 119.165 304.959 Z" fill="#000000" fill-rule="nonzero" fill-opacity="1" /><path clip-path="url(#clip360)" d="M155.299 277.413 Q151.688 277.413 149.859 280.978 Q148.054 284.519 148.054 291.649 Q148.054 298.755 149.859 302.32 Q151.688 305.862 155.299 305.862 Q158.933 305.862 160.739 302.32 Q162.568 298.755 162.568 291.649 Q162.568 284.519 160.739 280.978 Q158.933 277.413 155.299 277.413 M155.299 273.709 Q161.109 273.709 164.165 278.315 Q167.244 282.899 167.244 291.649 Q167.244 300.376 164.165 304.982 Q161.109 309.565 155.299 309.565 Q149.489 309.565 146.41 304.982 Q143.355 300.376 143.355 291.649 Q143.355 282.899 146.41 278.315 Q149.489 273.709 155.299 273.709 Z" fill="#000000" fill-rule="nonzero" fill-opacity="1" /><path clip-path="url(#clip360)" d="M120.16 92.4633 L136.48 92.4633 L136.48 96.3984 L114.536 96.3984 L114.536 92.4633 Q117.198 89.7087 121.781 85.0791 Q126.387 80.4263 127.568 79.0837 Q129.813 76.5606 130.693 74.8245 Q131.596 73.0652 131.596 71.3754 Q131.596 68.6208 129.651 66.8847 Q127.73 65.1486 124.628 65.1486 Q122.429 65.1486 119.975 65.9125 Q117.545 66.6764 114.767 68.2273 L114.767 63.5051 Q117.591 62.3708 120.045 61.7921 Q122.498 61.2134 124.535 61.2134 Q129.906 61.2134 133.1 63.8986 Q136.295 66.5838 136.295 71.0745 Q136.295 73.2041 135.484 75.1254 Q134.697 77.0235 132.591 79.6161 Q132.012 80.2874 128.91 83.505 Q125.809 86.6994 120.16 92.4633 Z" fill="#000000" fill-rule="nonzero" fill-opacity="1" /><path clip-path="url(#clip360)" d="M146.341 61.8384 L164.697 61.8384 L164.697 65.7736 L150.623 65.7736 L150.623 74.2458 Q151.642 73.8986 152.66 73.7365 Q153.679 73.5513 154.697 73.5513 Q160.484 73.5513 163.864 76.7226 Q167.244 79.8939 167.244 85.3105 Q167.244 90.8892 163.771 93.991 Q160.299 97.0697 153.98 97.0697 Q151.804 97.0697 149.535 96.6994 Q147.29 96.329 144.883 95.5883 L144.883 90.8892 Q146.966 92.0235 149.188 92.579 Q151.41 93.1346 153.887 93.1346 Q157.892 93.1346 160.23 91.0281 Q162.568 88.9216 162.568 85.3105 Q162.568 81.6994 160.23 79.593 Q157.892 77.4865 153.887 77.4865 Q152.012 77.4865 150.137 77.9032 Q148.285 78.3198 146.341 79.1995 L146.341 61.8384 Z" fill="#000000" fill-rule="nonzero" fill-opacity="1" /><path clip-path="url(#clip360)" d="M21.6438 811.18 L27.914 811.18 Q26.1634 814.84 25.304 818.086 Q24.4447 821.333 24.4447 824.357 Q24.4447 829.608 26.4817 832.473 Q28.5187 835.306 32.2745 835.306 Q35.4255 835.306 37.0488 833.428 Q38.6402 831.518 39.6269 826.234 L40.4226 822.351 Q41.7912 815.158 45.2605 811.752 Q48.698 808.315 54.4908 808.315 Q61.3976 808.315 64.9624 812.962 Q68.5272 817.577 68.5272 826.521 Q68.5272 829.895 67.7633 833.714 Q66.9994 837.502 65.5035 841.576 L58.8831 841.576 Q61.0793 837.661 62.1933 833.905 Q63.3073 830.149 63.3073 826.521 Q63.3073 821.015 61.143 818.023 Q58.9786 815.031 54.9682 815.031 Q51.4671 815.031 49.4937 817.195 Q47.5204 819.328 46.5337 824.229 L45.7698 828.144 Q44.3375 835.337 41.282 838.552 Q38.2264 841.767 32.7837 841.767 Q26.4817 841.767 22.8532 837.343 Q19.2248 832.887 19.2248 825.089 Q19.2248 821.747 19.8295 818.277 Q20.4343 814.808 21.6438 811.18 Z" fill="#000000" fill-rule="nonzero" fill-opacity="1" /><path clip-path="url(#clip360)" d="M49.812 795.042 Q56.2732 795.042 59.9653 792.401 Q63.6256 789.727 63.6256 785.08 Q63.6256 780.433 59.9653 777.76 Q56.2732 775.086 49.812 775.086 Q43.3508 775.086 39.6905 777.76 Q35.9984 780.433 35.9984 785.08 Q35.9984 789.727 39.6905 792.401 Q43.3508 795.042 49.812 795.042 M62.257 775.086 Q65.4398 776.932 66.9994 779.765 Q68.5272 782.566 68.5272 786.512 Q68.5272 792.974 63.371 797.048 Q58.2147 801.09 49.812 801.09 Q41.4093 801.09 36.2531 797.048 Q31.0968 792.974 31.0968 786.512 Q31.0968 782.566 32.6564 779.765 Q34.1842 776.932 37.3671 775.086 L31.9562 775.086 L31.9562 769.23 L81.1631 769.23 L81.1631 775.086 L62.257 775.086 Z" fill="#000000" fill-rule="nonzero" fill-opacity="1" /><path clip-path="url(#clip360)" d="M53.5359 757.771 L31.9562 757.771 L31.9562 751.915 L53.3131 751.915 Q58.3739 751.915 60.9202 749.941 Q63.4346 747.968 63.4346 744.021 Q63.4346 739.279 60.4109 736.542 Q57.3872 733.773 52.1673 733.773 L31.9562 733.773 L31.9562 727.916 L67.6042 727.916 L67.6042 733.773 L62.1296 733.773 Q65.3762 735.905 66.9676 738.738 Q68.5272 741.539 68.5272 745.263 Q68.5272 751.406 64.7078 754.588 Q60.8883 757.771 53.5359 757.771 M31.0968 743.035 L31.0968 743.035 Z" fill="#000000" fill-rule="nonzero" fill-opacity="1" /><path clip-path="url(#clip360)" d="M49.6847 699.652 Q49.6847 706.75 51.3079 709.487 Q52.9312 712.225 56.8461 712.225 Q59.9653 712.225 61.8114 710.188 Q63.6256 708.119 63.6256 704.586 Q63.6256 699.716 60.1881 696.788 Q56.7188 693.828 50.9897 693.828 L49.6847 693.828 L49.6847 699.652 M47.2657 687.971 L67.6042 687.971 L67.6042 693.828 L62.1933 693.828 Q65.4398 695.833 66.9994 698.825 Q68.5272 701.817 68.5272 706.145 Q68.5272 711.62 65.4716 714.866 Q62.3843 718.081 57.2281 718.081 Q51.2125 718.081 48.1569 714.071 Q45.1014 710.028 45.1014 702.04 L45.1014 693.828 L44.5285 693.828 Q40.4862 693.828 38.2901 696.501 Q36.0621 699.143 36.0621 703.949 Q36.0621 707.005 36.7941 709.901 Q37.5262 712.798 38.9903 715.471 L33.5795 715.471 Q32.3381 712.256 31.7334 709.233 Q31.0968 706.209 31.0968 703.344 Q31.0968 695.61 35.1072 691.791 Q39.1176 687.971 47.2657 687.971 Z" fill="#000000" fill-rule="nonzero" fill-opacity="1" /><path clip-path="url(#clip360)" d="M37.4307 655.252 Q36.8578 656.238 36.6032 657.416 Q36.3167 658.562 36.3167 659.962 Q36.3167 664.927 39.5632 667.601 Q42.7779 670.243 48.8253 670.243 L67.6042 670.243 L67.6042 676.131 L31.9562 676.131 L31.9562 670.243 L37.4944 670.243 Q34.2479 668.397 32.6883 665.437 Q31.0968 662.477 31.0968 658.243 Q31.0968 657.639 31.1923 656.907 Q31.256 656.175 31.4151 655.283 L37.4307 655.252 Z" fill="#000000" fill-rule="nonzero" fill-opacity="1" /><path clip-path="url(#clip360)" d="M48.3161 620.049 L51.1806 620.049 L51.1806 646.976 Q57.2281 646.594 60.4109 643.348 Q63.5619 640.069 63.5619 634.245 Q63.5619 630.871 62.7344 627.72 Q61.9069 624.537 60.2518 621.418 L65.7899 621.418 Q67.1267 624.569 67.827 627.879 Q68.5272 631.189 68.5272 634.595 Q68.5272 643.125 63.5619 648.122 Q58.5967 653.087 50.1303 653.087 Q41.3774 653.087 36.2531 648.377 Q31.0968 643.634 31.0968 635.613 Q31.0968 628.42 35.7438 624.251 Q40.3589 620.049 48.3161 620.049 M46.5973 625.906 Q41.7912 625.969 38.9266 628.611 Q36.0621 631.221 36.0621 635.55 Q36.0621 640.451 38.8312 643.411 Q41.6002 646.34 46.6292 646.785 L46.5973 625.906 Z" fill="#000000" fill-rule="nonzero" fill-opacity="1" /><path clip-path="url(#clip360)" d="M37.3671 586.979 L18.079 586.979 L18.079 581.123 L67.6042 581.123 L67.6042 586.979 L62.257 586.979 Q65.4398 588.825 66.9994 591.658 Q68.5272 594.459 68.5272 598.406 Q68.5272 604.867 63.371 608.941 Q58.2147 612.983 49.812 612.983 Q41.4093 612.983 36.2531 608.941 Q31.0968 604.867 31.0968 598.406 Q31.0968 594.459 32.6564 591.658 Q34.1842 588.825 37.3671 586.979 M49.812 606.936 Q56.2732 606.936 59.9653 604.294 Q63.6256 601.62 63.6256 596.974 Q63.6256 592.327 59.9653 589.653 Q56.2732 586.979 49.812 586.979 Q43.3508 586.979 39.6905 589.653 Q35.9984 592.327 35.9984 596.974 Q35.9984 601.62 39.6905 604.294 Q43.3508 606.936 49.812 606.936 Z" fill="#000000" fill-rule="nonzero" fill-opacity="1" /><path clip-path="url(#clip360)" d="M67.6042 535.831 L20.0842 553.973 L20.0842 547.257 L60.0926 532.202 L20.0842 517.116 L20.0842 510.432 L67.6042 528.542 L67.6042 535.831 Z" fill="#000000" fill-rule="nonzero" fill-opacity="1" /><path clip-path="url(#clip360)" d="M49.6847 492.608 Q49.6847 499.706 51.3079 502.443 Q52.9312 505.18 56.8461 505.18 Q59.9653 505.18 61.8114 503.143 Q63.6256 501.074 63.6256 497.541 Q63.6256 492.671 60.1881 489.743 Q56.7188 486.783 50.9897 486.783 L49.6847 486.783 L49.6847 492.608 M47.2657 480.927 L67.6042 480.927 L67.6042 486.783 L62.1933 486.783 Q65.4398 488.788 66.9994 491.78 Q68.5272 494.772 68.5272 499.101 Q68.5272 504.575 65.4716 507.822 Q62.3843 511.036 57.2281 511.036 Q51.2125 511.036 48.1569 507.026 Q45.1014 502.984 45.1014 494.995 L45.1014 486.783 L44.5285 486.783 Q40.4862 486.783 38.2901 489.457 Q36.0621 492.099 36.0621 496.905 Q36.0621 499.96 36.7941 502.857 Q37.5262 505.753 38.9903 508.427 L33.5795 508.427 Q32.3381 505.212 31.7334 502.188 Q31.0968 499.164 31.0968 496.3 Q31.0968 488.566 35.1072 484.746 Q39.1176 480.927 47.2657 480.927 Z" fill="#000000" fill-rule="nonzero" fill-opacity="1" /><path clip-path="url(#clip360)" d="M18.079 468.864 L18.079 463.007 L67.6042 463.007 L67.6042 468.864 L18.079 468.864 Z" fill="#000000" fill-rule="nonzero" fill-opacity="1" /><path clip-path="url(#clip360)" d="M53.5359 451.358 L31.9562 451.358 L31.9562 445.502 L53.3131 445.502 Q58.3739 445.502 60.9202 443.528 Q63.4346 441.555 63.4346 437.608 Q63.4346 432.866 60.4109 430.128 Q57.3872 427.359 52.1673 427.359 L31.9562 427.359 L31.9562 421.503 L67.6042 421.503 L67.6042 427.359 L62.1296 427.359 Q65.3762 429.492 66.9676 432.325 Q68.5272 435.125 68.5272 438.849 Q68.5272 444.992 64.7078 448.175 Q60.8883 451.358 53.5359 451.358 M31.0968 436.621 L31.0968 436.621 Z" fill="#000000" fill-rule="nonzero" fill-opacity="1" /><path clip-path="url(#clip360)" d="M48.3161 378.948 L51.1806 378.948 L51.1806 405.875 Q57.2281 405.493 60.4109 402.247 Q63.5619 398.968 63.5619 393.144 Q63.5619 389.77 62.7344 386.619 Q61.9069 383.436 60.2518 380.317 L65.7899 380.317 Q67.1267 383.468 67.827 386.778 Q68.5272 390.088 68.5272 393.494 Q68.5272 402.024 63.5619 407.021 Q58.5967 411.986 50.1303 411.986 Q41.3774 411.986 36.2531 407.275 Q31.0968 402.533 31.0968 394.512 Q31.0968 387.319 35.7438 383.149 Q40.3589 378.948 48.3161 378.948 M46.5973 384.805 Q41.7912 384.868 38.9266 387.51 Q36.0621 390.12 36.0621 394.449 Q36.0621 399.35 38.8312 402.31 Q41.6002 405.238 46.6292 405.684 L46.5973 384.805 Z" fill="#000000" fill-rule="nonzero" fill-opacity="1" /><polyline clip-path="url(#clip362)" style="stroke:#009af9; stroke-linecap:round; stroke-linejoin:round; stroke-width:4; stroke-opacity:1; fill:none" points="251.73,79.1184 427.752,461.611 603.774,759.104 779.796,971.6 955.818,1099.1 1131.84,1141.6 1307.86,1099.1 1483.88,971.6 1659.91,759.104 1835.93,461.611 2011.95,79.1184 "/>
</svg>
