<?xml version="1.0" encoding="utf-8"?>
<svg xmlns="http://www.w3.org/2000/svg" xmlns:xlink="http://www.w3.org/1999/xlink" width="600" height="400" viewBox="0 0 2400 1600">
<defs>
  <clipPath id="clip220">
    <rect x="0" y="0" width="2400" height="1600"/>
  </clipPath>
</defs>
<path clip-path="url(#clip220)" d="
M0 1600 L2400 1600 L2400 0 L0 0  Z
  " fill="#ffffff" fill-rule="evenodd" fill-opacity="1"/>
<defs>
  <clipPath id="clip221">
    <rect x="480" y="0" width="1681" height="1600"/>
  </clipPath>
</defs>
<path clip-path="url(#clip220)" d="
M233.708 1476.53 L2352.76 1476.53 L2352.76 47.2441 L233.708 47.2441  Z
  " fill="#ffffff" fill-rule="evenodd" fill-opacity="1"/>
<defs>
  <clipPath id="clip222">
    <rect x="233" y="47" width="2120" height="1430"/>
  </clipPath>
</defs>
<polyline clip-path="url(#clip220)" style="stroke:#000000; stroke-linecap:round; stroke-linejoin:round; stroke-width:4; stroke-opacity:1; fill:none" points="
  233.708,1476.53 2352.76,1476.53 
  "/>
<path clip-path="url(#clip220)" d="M949.959 1531.35 L949.959 1578.38 L959.843 1578.38 Q972.36 1578.38 978.153 1572.71 Q983.986 1567.04 983.986 1554.8 Q983.986 1542.65 978.153 1537.02 Q972.36 1531.35 959.843 1531.35 L949.959 1531.35 M941.776 1524.62 L958.587 1524.62 Q976.168 1524.62 984.391 1531.96 Q992.615 1539.25 992.615 1554.8 Q992.615 1570.44 984.351 1577.77 Q976.087 1585.1 958.587 1585.1 L941.776 1585.1 L941.776 1524.62 Z" fill="#000000" fill-rule="evenodd" fill-opacity="1" /><path clip-path="url(#clip220)" d="M1044.14 1560.56 L1044.14 1564.2 L1009.87 1564.2 Q1010.36 1571.9 1014.49 1575.95 Q1018.66 1579.96 1026.07 1579.96 Q1030.37 1579.96 1034.38 1578.91 Q1038.43 1577.85 1042.4 1575.75 L1042.4 1582.79 Q1038.39 1584.5 1034.18 1585.39 Q1029.96 1586.28 1025.63 1586.28 Q1014.77 1586.28 1008.41 1579.96 Q1002.09 1573.64 1002.09 1562.86 Q1002.09 1551.72 1008.09 1545.2 Q1014.12 1538.64 1024.33 1538.64 Q1033.49 1538.64 1038.79 1544.55 Q1044.14 1550.43 1044.14 1560.56 M1036.69 1558.37 Q1036.61 1552.25 1033.25 1548.61 Q1029.92 1544.96 1024.41 1544.96 Q1018.18 1544.96 1014.41 1548.48 Q1010.68 1552.01 1010.11 1558.41 L1036.69 1558.37 Z" fill="#000000" fill-rule="evenodd" fill-opacity="1" /><path clip-path="url(#clip220)" d="M1089.03 1541.48 L1089.03 1548.44 Q1085.87 1546.7 1082.67 1545.85 Q1079.51 1544.96 1076.27 1544.96 Q1069.01 1544.96 1065 1549.58 Q1060.99 1554.15 1060.99 1562.46 Q1060.99 1570.76 1065 1575.38 Q1069.01 1579.96 1076.27 1579.96 Q1079.51 1579.96 1082.67 1579.11 Q1085.87 1578.22 1089.03 1576.48 L1089.03 1583.36 Q1085.91 1584.82 1082.54 1585.55 Q1079.22 1586.28 1075.46 1586.28 Q1065.21 1586.28 1059.17 1579.84 Q1053.14 1573.4 1053.14 1562.46 Q1053.14 1551.36 1059.21 1545 Q1065.33 1538.64 1075.94 1538.64 Q1079.38 1538.64 1082.67 1539.37 Q1085.95 1540.06 1089.03 1541.48 Z" fill="#000000" fill-rule="evenodd" fill-opacity="1" /><path clip-path="url(#clip220)" d="M1101.99 1539.73 L1109.44 1539.73 L1109.44 1585.1 L1101.99 1585.1 L1101.99 1539.73 M1101.99 1522.07 L1109.44 1522.07 L1109.44 1531.51 L1101.99 1531.51 L1101.99 1522.07 Z" fill="#000000" fill-rule="evenodd" fill-opacity="1" /><path clip-path="url(#clip220)" d="M1153.96 1541.07 L1153.96 1548.12 Q1150.8 1546.5 1147.4 1545.69 Q1144 1544.88 1140.35 1544.88 Q1134.8 1544.88 1132.01 1546.58 Q1129.25 1548.28 1129.25 1551.68 Q1129.25 1554.28 1131.24 1555.78 Q1133.22 1557.23 1139.22 1558.57 L1141.77 1559.14 Q1149.71 1560.84 1153.03 1563.96 Q1156.39 1567.04 1156.39 1572.59 Q1156.39 1578.91 1151.37 1582.59 Q1146.39 1586.28 1137.64 1586.28 Q1133.99 1586.28 1130.02 1585.55 Q1126.09 1584.86 1121.72 1583.44 L1121.72 1575.75 Q1125.85 1577.89 1129.86 1578.99 Q1133.87 1580.04 1137.8 1580.04 Q1143.07 1580.04 1145.9 1578.26 Q1148.74 1576.43 1148.74 1573.15 Q1148.74 1570.12 1146.67 1568.5 Q1144.64 1566.87 1137.72 1565.38 L1135.13 1564.77 Q1128.2 1563.31 1125.12 1560.31 Q1122.04 1557.27 1122.04 1552.01 Q1122.04 1545.61 1126.58 1542.12 Q1131.11 1538.64 1139.46 1538.64 Q1143.59 1538.64 1147.24 1539.25 Q1150.88 1539.86 1153.96 1541.07 Z" fill="#000000" fill-rule="evenodd" fill-opacity="1" /><path clip-path="url(#clip220)" d="M1168.26 1539.73 L1175.72 1539.73 L1175.72 1585.1 L1168.26 1585.1 L1168.26 1539.73 M1168.26 1522.07 L1175.72 1522.07 L1175.72 1531.51 L1168.26 1531.51 L1168.26 1522.07 Z" fill="#000000" fill-rule="evenodd" fill-opacity="1" /><path clip-path="url(#clip220)" d="M1208.89 1544.96 Q1202.9 1544.96 1199.41 1549.66 Q1195.93 1554.32 1195.93 1562.46 Q1195.93 1570.6 1199.37 1575.3 Q1202.86 1579.96 1208.89 1579.96 Q1214.85 1579.96 1218.33 1575.26 Q1221.81 1570.56 1221.81 1562.46 Q1221.81 1554.4 1218.33 1549.7 Q1214.85 1544.96 1208.89 1544.96 M1208.89 1538.64 Q1218.61 1538.64 1224.16 1544.96 Q1229.71 1551.28 1229.71 1562.46 Q1229.71 1573.6 1224.16 1579.96 Q1218.61 1586.28 1208.89 1586.28 Q1199.13 1586.28 1193.58 1579.96 Q1188.07 1573.6 1188.07 1562.46 Q1188.07 1551.28 1193.58 1544.96 Q1199.13 1538.64 1208.89 1538.64 Z" fill="#000000" fill-rule="evenodd" fill-opacity="1" /><path clip-path="url(#clip220)" d="M1279.78 1557.72 L1279.78 1585.1 L1272.33 1585.1 L1272.33 1557.96 Q1272.33 1551.52 1269.82 1548.32 Q1267.31 1545.12 1262.28 1545.12 Q1256.25 1545.12 1252.76 1548.97 Q1249.28 1552.82 1249.28 1559.46 L1249.28 1585.1 L1241.79 1585.1 L1241.79 1539.73 L1249.28 1539.73 L1249.28 1546.78 Q1251.95 1542.69 1255.56 1540.67 Q1259.2 1538.64 1263.94 1538.64 Q1271.76 1538.64 1275.77 1543.5 Q1279.78 1548.32 1279.78 1557.72 Z" fill="#000000" fill-rule="evenodd" fill-opacity="1" /><path clip-path="url(#clip220)" d="M1336.94 1585.1 L1313.85 1524.62 L1322.4 1524.62 L1341.56 1575.54 L1360.76 1524.62 L1369.27 1524.62 L1346.22 1585.1 L1336.94 1585.1 Z" fill="#000000" fill-rule="evenodd" fill-opacity="1" /><path clip-path="url(#clip220)" d="M1391.95 1562.3 Q1382.92 1562.3 1379.44 1564.36 Q1375.95 1566.43 1375.95 1571.41 Q1375.95 1575.38 1378.54 1577.73 Q1381.18 1580.04 1385.67 1580.04 Q1391.87 1580.04 1395.6 1575.67 Q1399.37 1571.25 1399.37 1563.96 L1399.37 1562.3 L1391.95 1562.3 M1406.82 1559.22 L1406.82 1585.1 L1399.37 1585.1 L1399.37 1578.22 Q1396.81 1582.35 1393.01 1584.33 Q1389.2 1586.28 1383.69 1586.28 Q1376.72 1586.28 1372.59 1582.39 Q1368.5 1578.46 1368.5 1571.9 Q1368.5 1564.24 1373.6 1560.35 Q1378.75 1556.46 1388.91 1556.46 L1399.37 1556.46 L1399.37 1555.73 Q1399.37 1550.59 1395.96 1547.8 Q1392.6 1544.96 1386.48 1544.96 Q1382.6 1544.96 1378.91 1545.89 Q1375.22 1546.82 1371.82 1548.69 L1371.82 1541.8 Q1375.91 1540.22 1379.76 1539.45 Q1383.61 1538.64 1387.25 1538.64 Q1397.1 1538.64 1401.96 1543.74 Q1406.82 1548.85 1406.82 1559.22 Z" fill="#000000" fill-rule="evenodd" fill-opacity="1" /><path clip-path="url(#clip220)" d="M1448.46 1546.7 Q1447.21 1545.97 1445.71 1545.65 Q1444.25 1545.28 1442.47 1545.28 Q1436.15 1545.28 1432.75 1549.42 Q1429.38 1553.51 1429.38 1561.2 L1429.38 1585.1 L1421.89 1585.1 L1421.89 1539.73 L1429.38 1539.73 L1429.38 1546.78 Q1431.73 1542.65 1435.5 1540.67 Q1439.27 1538.64 1444.65 1538.64 Q1445.42 1538.64 1446.36 1538.76 Q1447.29 1538.84 1448.42 1539.05 L1448.46 1546.7 Z" fill="#000000" fill-rule="evenodd" fill-opacity="1" /><path clip-path="url(#clip220)" d="M1456.28 1539.73 L1463.73 1539.73 L1463.73 1585.1 L1456.28 1585.1 L1456.28 1539.73 M1456.28 1522.07 L1463.73 1522.07 L1463.73 1531.51 L1456.28 1531.51 L1456.28 1522.07 Z" fill="#000000" fill-rule="evenodd" fill-opacity="1" /><path clip-path="url(#clip220)" d="M1499.95 1562.3 Q1490.92 1562.3 1487.43 1564.36 Q1483.95 1566.43 1483.95 1571.41 Q1483.95 1575.38 1486.54 1577.73 Q1489.17 1580.04 1493.67 1580.04 Q1499.87 1580.04 1503.6 1575.67 Q1507.36 1571.25 1507.36 1563.96 L1507.36 1562.3 L1499.95 1562.3 M1514.82 1559.22 L1514.82 1585.1 L1507.36 1585.1 L1507.36 1578.22 Q1504.81 1582.35 1501 1584.33 Q1497.2 1586.28 1491.69 1586.28 Q1484.72 1586.28 1480.59 1582.39 Q1476.5 1578.46 1476.5 1571.9 Q1476.5 1564.24 1481.6 1560.35 Q1486.74 1556.46 1496.91 1556.46 L1507.36 1556.46 L1507.36 1555.73 Q1507.36 1550.59 1503.96 1547.8 Q1500.6 1544.96 1494.48 1544.96 Q1490.59 1544.96 1486.91 1545.89 Q1483.22 1546.82 1479.82 1548.69 L1479.82 1541.8 Q1483.91 1540.22 1487.76 1539.45 Q1491.6 1538.64 1495.25 1538.64 Q1505.09 1538.64 1509.96 1543.74 Q1514.82 1548.85 1514.82 1559.22 Z" fill="#000000" fill-rule="evenodd" fill-opacity="1" /><path clip-path="url(#clip220)" d="M1562.74 1562.46 Q1562.74 1554.24 1559.34 1549.58 Q1555.97 1544.88 1550.06 1544.88 Q1544.15 1544.88 1540.74 1549.58 Q1537.38 1554.24 1537.38 1562.46 Q1537.38 1570.68 1540.74 1575.38 Q1544.15 1580.04 1550.06 1580.04 Q1555.97 1580.04 1559.34 1575.38 Q1562.74 1570.68 1562.74 1562.46 M1537.38 1546.62 Q1539.73 1542.57 1543.29 1540.62 Q1546.9 1538.64 1551.88 1538.64 Q1560.15 1538.64 1565.29 1545.2 Q1570.48 1551.76 1570.48 1562.46 Q1570.48 1573.15 1565.29 1579.72 Q1560.15 1586.28 1551.88 1586.28 Q1546.9 1586.28 1543.29 1584.33 Q1539.73 1582.35 1537.38 1578.3 L1537.38 1585.1 L1529.89 1585.1 L1529.89 1522.07 L1537.38 1522.07 L1537.38 1546.62 Z" fill="#000000" fill-rule="evenodd" fill-opacity="1" /><path clip-path="url(#clip220)" d="M1582.83 1522.07 L1590.28 1522.07 L1590.28 1585.1 L1582.83 1585.1 L1582.83 1522.07 Z" fill="#000000" fill-rule="evenodd" fill-opacity="1" /><path clip-path="url(#clip220)" d="M1644.69 1560.56 L1644.69 1564.2 L1610.42 1564.2 Q1610.9 1571.9 1615.04 1575.95 Q1619.21 1579.96 1626.62 1579.96 Q1630.92 1579.96 1634.93 1578.91 Q1638.98 1577.85 1642.95 1575.75 L1642.95 1582.79 Q1638.94 1584.5 1634.72 1585.39 Q1630.51 1586.28 1626.18 1586.28 Q1615.32 1586.28 1608.96 1579.96 Q1602.64 1573.64 1602.64 1562.86 Q1602.64 1551.72 1608.64 1545.2 Q1614.67 1538.64 1624.88 1538.64 Q1634.03 1538.64 1639.34 1544.55 Q1644.69 1550.43 1644.69 1560.56 M1637.23 1558.37 Q1637.15 1552.25 1633.79 1548.61 Q1630.47 1544.96 1624.96 1544.96 Q1618.72 1544.96 1614.95 1548.48 Q1611.23 1552.01 1610.66 1558.41 L1637.23 1558.37 Z" fill="#000000" fill-rule="evenodd" fill-opacity="1" /><polyline clip-path="url(#clip220)" style="stroke:#000000; stroke-linecap:round; stroke-linejoin:round; stroke-width:4; stroke-opacity:1; fill:none" points="
  233.708,1476.53 233.708,47.2441 
  "/>
<path clip-path="url(#clip220)" d="M88.6341 926.008 Q88.6341 934.92 95.2776 940.187 Q101.921 945.412 113.385 945.412 Q124.809 945.412 131.452 940.187 Q138.096 934.92 138.096 926.008 Q138.096 917.096 131.452 911.911 Q124.809 906.686 113.385 906.686 Q101.921 906.686 95.2776 911.911 Q88.6341 917.096 88.6341 926.008 M81.9906 926.008 Q81.9906 913.289 90.538 905.673 Q99.0449 898.057 113.385 898.057 Q127.685 898.057 136.232 905.673 Q144.739 913.289 144.739 926.008 Q144.739 938.769 136.232 946.425 Q127.725 954.041 113.385 954.041 Q99.0449 954.041 90.538 946.425 Q81.9906 938.769 81.9906 926.008 Z" fill="#000000" fill-rule="evenodd" fill-opacity="1" /><path clip-path="url(#clip220)" d="M120.92 853.011 Q112.696 853.011 108.038 856.414 Q103.339 859.776 103.339 865.69 Q103.339 871.605 108.038 875.007 Q112.696 878.37 120.92 878.37 Q129.143 878.37 133.842 875.007 Q138.501 871.605 138.501 865.69 Q138.501 859.776 133.842 856.414 Q129.143 853.011 120.92 853.011 M105.081 878.37 Q101.03 876.02 99.0854 872.455 Q97.1005 868.85 97.1005 863.867 Q97.1005 855.604 103.663 850.459 Q110.225 845.274 120.92 845.274 Q131.614 845.274 138.177 850.459 Q144.739 855.604 144.739 863.867 Q144.739 868.85 142.795 872.455 Q140.81 876.02 136.759 878.37 L143.564 878.37 L143.564 885.864 L80.5323 885.864 L80.5323 878.37 L105.081 878.37 Z" fill="#000000" fill-rule="evenodd" fill-opacity="1" /><path clip-path="url(#clip220)" d="M98.1942 832.919 L98.1942 825.465 L144.375 825.465 Q153.043 825.465 156.932 828.787 Q160.821 832.068 160.821 839.4 L160.821 842.236 L154.502 842.236 L154.502 840.251 Q154.502 835.997 152.517 834.458 Q150.572 832.919 144.375 832.919 L98.1942 832.919 M80.5323 832.919 L80.5323 825.465 L89.9709 825.465 L89.9709 832.919 L80.5323 832.919 Z" fill="#000000" fill-rule="evenodd" fill-opacity="1" /><path clip-path="url(#clip220)" d="M119.016 771.061 L122.662 771.061 L122.662 805.332 Q130.358 804.846 134.409 800.714 Q138.42 796.541 138.42 789.128 Q138.42 784.834 137.366 780.824 Q136.313 776.773 134.207 772.803 L141.255 772.803 Q142.957 776.814 143.848 781.027 Q144.739 785.239 144.739 789.574 Q144.739 800.43 138.42 806.79 Q132.1 813.11 121.325 813.11 Q110.185 813.11 103.663 807.114 Q97.1005 801.078 97.1005 790.87 Q97.1005 781.715 103.015 776.408 Q108.889 771.061 119.016 771.061 M116.828 778.515 Q110.712 778.596 107.066 781.958 Q103.42 785.28 103.42 790.789 Q103.42 797.028 106.944 800.795 Q110.468 804.522 116.869 805.089 L116.828 778.515 Z" fill="#000000" fill-rule="evenodd" fill-opacity="1" /><path clip-path="url(#clip220)" d="M99.9361 726.177 L106.904 726.177 Q105.162 729.337 104.311 732.537 Q103.42 735.697 103.42 738.938 Q103.42 746.189 108.038 750.199 Q112.615 754.21 120.92 754.21 Q129.224 754.21 133.842 750.199 Q138.42 746.189 138.42 738.938 Q138.42 735.697 137.569 732.537 Q136.678 729.337 134.936 726.177 L141.822 726.177 Q143.281 729.296 144.01 732.659 Q144.739 735.98 144.739 739.748 Q144.739 749.997 138.298 756.032 Q131.857 762.068 120.92 762.068 Q109.82 762.068 103.46 755.992 Q97.1005 749.875 97.1005 739.262 Q97.1005 735.818 97.8296 732.537 Q98.5183 729.256 99.9361 726.177 Z" fill="#000000" fill-rule="evenodd" fill-opacity="1" /><path clip-path="url(#clip220)" d="M85.3123 705.842 L98.1942 705.842 L98.1942 690.489 L103.987 690.489 L103.987 705.842 L128.617 705.842 Q134.166 705.842 135.746 704.343 Q137.326 702.804 137.326 698.145 L137.326 690.489 L143.564 690.489 L143.564 698.145 Q143.564 706.773 140.364 710.055 Q137.123 713.336 128.617 713.336 L103.987 713.336 L103.987 718.805 L98.1942 718.805 L98.1942 713.336 L85.3123 713.336 L85.3123 705.842 Z" fill="#000000" fill-rule="evenodd" fill-opacity="1" /><path clip-path="url(#clip220)" d="M98.1942 680.686 L98.1942 673.232 L143.564 673.232 L143.564 680.686 L98.1942 680.686 M80.5323 680.686 L80.5323 673.232 L89.9709 673.232 L89.9709 680.686 L80.5323 680.686 Z" fill="#000000" fill-rule="evenodd" fill-opacity="1" /><path clip-path="url(#clip220)" d="M98.1942 662.983 L98.1942 655.084 L136.273 640.906 L98.1942 626.728 L98.1942 618.828 L143.564 635.842 L143.564 645.969 L98.1942 662.983 Z" fill="#000000" fill-rule="evenodd" fill-opacity="1" /><path clip-path="url(#clip220)" d="M119.016 569.731 L122.662 569.731 L122.662 604.002 Q130.358 603.516 134.409 599.384 Q138.42 595.212 138.42 587.798 Q138.42 583.504 137.366 579.494 Q136.313 575.443 134.207 571.473 L141.255 571.473 Q142.957 575.484 143.848 579.697 Q144.739 583.91 144.739 588.244 Q144.739 599.1 138.42 605.46 Q132.1 611.78 121.325 611.78 Q110.185 611.78 103.663 605.784 Q97.1005 599.749 97.1005 589.54 Q97.1005 580.385 103.015 575.079 Q108.889 569.731 119.016 569.731 M116.828 577.185 Q110.712 577.266 107.066 580.628 Q103.42 583.95 103.42 589.459 Q103.42 595.698 106.944 599.465 Q110.468 603.192 116.869 603.759 L116.828 577.185 Z" fill="#000000" fill-rule="evenodd" fill-opacity="1" /><polyline clip-path="url(#clip222)" style="stroke:#009af9; stroke-linecap:round; stroke-linejoin:round; stroke-width:12; stroke-opacity:1; fill:none" points="
  233.708,-30.3456 236.063,-11.7321 238.417,6.70265 240.772,24.9595 243.126,43.0394 245.481,60.9432 247.835,78.6719 250.19,96.2262 252.544,113.607 254.899,130.816 
  257.253,147.853 259.608,164.719 261.962,181.415 264.317,197.943 266.671,214.302 269.026,230.494 271.38,246.52 273.735,262.38 276.089,278.076 278.444,293.608 
  280.798,308.978 283.153,324.185 285.507,339.232 287.862,354.118 290.216,368.845 292.571,383.413 294.925,397.824 297.28,412.078 299.634,426.176 301.989,440.118 
  304.343,453.907 306.698,467.543 309.052,481.025 311.407,494.357 313.761,507.537 316.116,520.567 318.47,533.448 320.825,546.181 323.179,558.767 325.534,571.205 
  327.888,583.498 330.243,595.646 332.597,607.65 334.952,619.51 337.306,631.228 339.661,642.805 342.015,654.24 344.37,665.535 346.724,676.691 349.079,687.709 
  351.433,698.589 353.788,709.332 356.142,719.94 358.497,730.412 360.851,740.749 363.206,750.953 365.56,761.025 367.915,770.964 370.269,780.772 372.624,790.45 
  374.978,799.998 377.333,809.417 379.687,818.709 382.042,827.873 384.396,836.91 386.751,845.822 389.105,854.609 391.46,863.272 393.814,871.812 396.169,880.229 
  398.523,888.524 400.878,896.698 403.232,904.752 405.587,912.686 407.941,920.502 410.296,928.2 412.65,935.78 415.005,943.244 417.359,950.593 419.714,957.826 
  422.068,964.946 424.423,971.951 426.777,978.845 429.132,985.626 431.486,992.296 433.841,998.856 436.195,1005.31 438.55,1011.65 440.904,1017.88 443.259,1024 
  445.613,1030.02 447.968,1035.94 450.322,1041.74 452.677,1047.45 455.031,1053.04 457.386,1058.54 459.74,1063.93 462.095,1069.22 464.449,1074.41 466.804,1079.5 
  469.158,1084.5 471.513,1089.39 473.867,1094.18 476.222,1098.88 478.576,1103.48 480.931,1107.98 483.285,1112.39 485.64,1116.7 487.994,1120.92 490.349,1125.05 
  492.703,1129.08 495.058,1133.03 497.412,1136.88 499.767,1140.64 502.121,1144.31 504.476,1147.89 506.83,1151.39 509.185,1154.79 511.539,1158.11 513.894,1161.34 
  516.248,1164.49 518.603,1167.55 520.957,1170.53 523.312,1173.42 525.666,1176.23 528.021,1178.96 530.375,1181.61 532.73,1184.18 535.084,1186.66 537.438,1189.07 
  539.793,1191.39 542.147,1193.64 544.502,1195.81 546.856,1197.91 549.211,1199.92 551.565,1201.86 553.92,1203.73 556.274,1205.52 558.629,1207.24 560.983,1208.88 
  563.338,1210.46 565.692,1211.96 568.047,1213.38 570.401,1214.74 572.756,1216.03 575.11,1217.25 577.465,1218.4 579.819,1219.48 582.174,1220.49 584.528,1221.44 
  586.883,1222.32 589.237,1223.13 591.592,1223.88 593.946,1224.57 596.301,1225.19 598.655,1225.75 601.01,1226.24 603.364,1226.68 605.719,1227.05 608.073,1227.36 
  610.428,1227.61 612.782,1227.8 615.137,1227.93 617.491,1228 619.846,1228.02 622.2,1227.97 624.555,1227.87 626.909,1227.72 629.264,1227.51 631.618,1227.24 
  633.973,1226.92 636.327,1226.55 638.682,1226.12 641.036,1225.64 643.391,1225.11 645.745,1224.52 648.1,1223.89 650.454,1223.2 652.809,1222.46 655.163,1221.68 
  657.518,1220.84 659.872,1219.96 662.227,1219.03 664.581,1218.06 666.936,1217.03 669.29,1215.96 671.645,1214.85 673.999,1213.69 676.354,1212.48 678.708,1211.23 
  681.063,1209.94 683.417,1208.61 685.772,1207.23 688.126,1205.81 690.481,1204.35 692.835,1202.85 695.19,1201.31 697.544,1199.73 699.899,1198.11 702.253,1196.45 
  704.608,1194.75 706.962,1193.02 709.317,1191.25 711.671,1189.44 714.026,1187.6 716.38,1185.72 718.735,1183.81 721.089,1181.86 723.444,1179.88 725.798,1177.86 
  728.153,1175.81 730.507,1173.73 732.862,1171.61 735.216,1169.47 737.571,1167.29 739.925,1165.09 742.28,1162.85 744.634,1160.58 746.989,1158.29 749.343,1155.96 
  751.698,1153.61 754.052,1151.23 756.407,1148.82 758.761,1146.39 761.116,1143.93 763.47,1141.44 765.825,1138.93 768.179,1136.4 770.534,1133.84 772.888,1131.25 
  775.243,1128.64 777.597,1126.01 779.952,1123.36 782.306,1120.68 784.661,1117.99 787.015,1115.27 789.37,1112.53 791.724,1109.77 794.079,1106.99 796.433,1104.19 
  798.788,1101.37 801.142,1098.54 803.497,1095.68 805.851,1092.81 808.206,1089.92 810.56,1087.01 812.915,1084.09 815.269,1081.15 817.624,1078.2 819.978,1075.23 
  822.333,1072.24 824.687,1069.25 827.042,1066.23 829.396,1063.21 831.751,1060.17 834.105,1057.12 836.46,1054.05 838.814,1050.98 841.169,1047.89 843.523,1044.79 
  845.878,1041.69 848.232,1038.57 850.587,1035.44 852.941,1032.3 855.296,1029.15 857.65,1026 860.005,1022.83 862.359,1019.66 864.714,1016.48 867.068,1013.3 
  869.423,1010.1 871.777,1006.9 874.132,1003.7 876.486,1000.49 878.841,997.27 881.195,994.049 883.55,990.823 885.904,987.593 888.259,984.36 890.613,981.123 
  892.968,977.883 895.322,974.64 897.677,971.395 900.031,968.148 902.386,964.899 904.74,961.649 907.095,958.398 909.449,955.147 911.804,951.895 914.158,948.644 
  916.513,945.393 918.867,942.143 921.222,938.894 923.576,935.646 925.931,932.4 928.285,929.157 930.64,925.915 932.994,922.677 935.349,919.442 937.703,916.21 
  940.058,912.982 942.412,909.758 944.767,906.538 947.121,903.323 949.476,900.113 951.83,896.909 954.185,893.71 956.539,890.517 958.894,887.33 961.248,884.15 
  963.603,880.977 965.957,877.811 968.312,874.653 970.666,871.502 973.02,868.359 975.375,865.225 977.729,862.099 980.084,858.982 982.438,855.875 984.793,852.776 
  987.147,849.688 989.502,846.61 991.856,843.542 994.211,840.485 996.565,837.438 998.92,834.403 1001.27,831.379 1003.63,828.367 1005.98,825.367 1008.34,822.379 
  1010.69,819.404 1013.05,816.441 1015.4,813.491 1017.76,810.555 1020.11,807.632 1022.46,804.723 1024.82,801.828 1027.17,798.947 1029.53,796.081 1031.88,793.23 
  1034.24,790.393 1036.59,787.572 1038.95,784.766 1041.3,781.976 1043.66,779.202 1046.01,776.445 1048.36,773.703 1050.72,770.979 1053.07,768.271 1055.43,765.58 
  1057.78,762.907 1060.14,760.251 1062.49,757.613 1064.85,754.993 1067.2,752.391 1069.55,749.808 1071.91,747.243 1074.26,744.697 1076.62,742.171 1078.97,739.663 
  1081.33,737.175 1083.68,734.706 1086.04,732.258 1088.39,729.829 1090.75,727.421 1093.1,725.033 1095.45,722.666 1097.81,720.32 1100.16,717.995 1102.52,715.691 
  1104.87,713.408 1107.23,711.147 1109.58,708.908 1111.94,706.69 1114.29,704.495 1116.64,702.322 1119,700.171 1121.35,698.043 1123.71,695.938 1126.06,693.856 
  1128.42,691.797 1130.77,689.761 1133.13,687.749 1135.48,685.761 1137.84,683.796 1140.19,681.855 1142.54,679.938 1144.9,678.045 1147.25,676.177 1149.61,674.333 
  1151.96,672.514 1154.32,670.72 1156.67,668.951 1159.03,667.206 1161.38,665.487 1163.73,663.794 1166.09,662.126 1168.44,660.483 1170.8,658.866 1173.15,657.275 
  1175.51,655.711 1177.86,654.172 1180.22,652.659 1182.57,651.173 1184.93,649.714 1187.28,648.281 1189.63,646.875 1191.99,645.495 1194.34,644.143 1196.7,642.817 
  1199.05,641.519 1201.41,640.248 1203.76,639.004 1206.12,637.788 1208.47,636.6 1210.82,635.439 1213.18,634.306 1215.53,633.2 1217.89,632.123 1220.24,631.073 
  1222.6,630.052 1224.95,629.059 1227.31,628.094 1229.66,627.158 1232.02,626.25 1234.37,625.37 1236.72,624.519 1239.08,623.697 1241.43,622.904 1243.79,622.139 
  1246.14,621.403 1248.5,620.696 1250.85,620.018 1253.21,619.369 1255.56,618.749 1257.91,618.159 1260.27,617.597 1262.62,617.065 1264.98,616.562 1267.33,616.089 
  1269.69,615.645 1272.04,615.23 1274.4,614.845 1276.75,614.49 1279.11,614.164 1281.46,613.868 1283.81,613.601 1286.17,613.364 1288.52,613.157 1290.88,612.98 
  1293.23,612.832 1295.59,612.714 1297.94,612.626 1300.3,612.568 1302.65,612.54 1305,612.542 1307.36,612.573 1309.71,612.635 1312.07,612.726 1314.42,612.847 
  1316.78,612.999 1319.13,613.18 1321.49,613.391 1323.84,613.632 1326.2,613.904 1328.55,614.205 1330.9,614.536 1333.26,614.897 1335.61,615.288 1337.97,615.709 
  1340.32,616.159 1342.68,616.64 1345.03,617.151 1347.39,617.691 1349.74,618.262 1352.09,618.862 1354.45,619.492 1356.8,620.152 1359.16,620.841 1361.51,621.561 
  1363.87,622.309 1366.22,623.088 1368.58,623.896 1370.93,624.734 1373.29,625.602 1375.64,626.499 1377.99,627.425 1380.35,628.381 1382.7,629.366 1385.06,630.38 
  1387.41,631.424 1389.77,632.497 1392.12,633.599 1394.48,634.731 1396.83,635.891 1399.18,637.08 1401.54,638.299 1403.89,639.546 1406.25,640.822 1408.6,642.126 
  1410.96,643.46 1413.31,644.822 1415.67,646.212 1418.02,647.631 1420.37,649.078 1422.73,650.553 1425.08,652.057 1427.44,653.589 1429.79,655.149 1432.15,656.736 
  1434.5,658.352 1436.86,659.995 1439.21,661.666 1441.57,663.365 1443.92,665.091 1446.27,666.844 1448.63,668.625 1450.98,670.433 1453.34,672.267 1455.69,674.129 
  1458.05,676.018 1460.4,677.933 1462.76,679.875 1465.11,681.844 1467.46,683.838 1469.82,685.86 1472.17,687.907 1474.53,689.98 1476.88,692.079 1479.24,694.204 
  1481.59,696.355 1483.95,698.531 1486.3,700.732 1488.66,702.959 1491.01,705.21 1493.36,707.487 1495.72,709.788 1498.07,712.114 1500.43,714.465 1502.78,716.84 
  1505.14,719.239 1507.49,721.663 1509.85,724.11 1512.2,726.581 1514.55,729.076 1516.91,731.594 1519.26,734.135 1521.62,736.7 1523.97,739.287 1526.33,741.897 
  1528.68,744.53 1531.04,747.186 1533.39,749.863 1535.75,752.563 1538.1,755.285 1540.45,758.028 1542.81,760.793 1545.16,763.58 1547.52,766.388 1549.87,769.216 
  1552.23,772.066 1554.58,774.936 1556.94,777.827 1559.29,780.737 1561.64,783.668 1564,786.619 1566.35,789.59 1568.71,792.58 1571.06,795.589 1573.42,798.617 
  1575.77,801.664 1578.13,804.73 1580.48,807.814 1582.84,810.916 1585.19,814.037 1587.54,817.175 1589.9,820.331 1592.25,823.504 1594.61,826.694 1596.96,829.901 
  1599.32,833.125 1601.67,836.365 1604.03,839.621 1606.38,842.894 1608.73,846.182 1611.09,849.485 1613.44,852.804 1615.8,856.138 1618.15,859.486 1620.51,862.85 
  1622.86,866.227 1625.22,869.618 1627.57,873.024 1629.93,876.442 1632.28,879.874 1634.63,883.319 1636.99,886.777 1639.34,890.247 1641.7,893.73 1644.05,897.225 
  1646.41,900.731 1648.76,904.248 1651.12,907.777 1653.47,911.317 1655.82,914.867 1658.18,918.428 1660.53,921.998 1662.89,925.579 1665.24,929.169 1667.6,932.768 
  1669.95,936.376 1672.31,939.993 1674.66,943.618 1677.02,947.251 1679.37,950.892 1681.72,954.541 1684.08,958.196 1686.43,961.859 1688.79,965.528 1691.14,969.203 
  1693.5,972.884 1695.85,976.571 1698.21,980.263 1700.56,983.961 1702.91,987.663 1705.27,991.369 1707.62,995.079 1709.98,998.794 1712.33,1002.51 1714.69,1006.23 
  1717.04,1009.96 1719.4,1013.68 1721.75,1017.41 1724.11,1021.14 1726.46,1024.87 1728.81,1028.6 1731.17,1032.34 1733.52,1036.07 1735.88,1039.81 1738.23,1043.54 
  1740.59,1047.27 1742.94,1051 1745.3,1054.74 1747.65,1058.47 1750,1062.19 1752.36,1065.92 1754.71,1069.64 1757.07,1073.36 1759.42,1077.08 1761.78,1080.79 
  1764.13,1084.5 1766.49,1088.2 1768.84,1091.9 1771.2,1095.59 1773.55,1099.28 1775.9,1102.96 1778.26,1106.64 1780.61,1110.31 1782.97,1113.97 1785.32,1117.62 
  1787.68,1121.27 1790.03,1124.91 1792.39,1128.54 1794.74,1132.16 1797.09,1135.77 1799.45,1139.37 1801.8,1142.96 1804.16,1146.54 1806.51,1150.11 1808.87,1153.67 
  1811.22,1157.21 1813.58,1160.75 1815.93,1164.27 1818.29,1167.78 1820.64,1171.27 1822.99,1174.75 1825.35,1178.22 1827.7,1181.67 1830.06,1185.11 1832.41,1188.53 
  1834.77,1191.93 1837.12,1195.32 1839.48,1198.69 1841.83,1202.05 1844.18,1205.38 1846.54,1208.7 1848.89,1212 1851.25,1215.28 1853.6,1218.55 1855.96,1221.79 
  1858.31,1225.01 1860.67,1228.21 1863.02,1231.39 1865.37,1234.55 1867.73,1237.68 1870.08,1240.8 1872.44,1243.89 1874.79,1246.95 1877.15,1250 1879.5,1253.02 
  1881.86,1256.01 1884.21,1258.98 1886.57,1261.92 1888.92,1264.84 1891.27,1267.73 1893.63,1270.59 1895.98,1273.42 1898.34,1276.23 1900.69,1279.01 1903.05,1281.76 
  1905.4,1284.48 1907.76,1287.17 1910.11,1289.82 1912.46,1292.45 1914.82,1295.05 1917.17,1297.61 1919.53,1300.14 1921.88,1302.64 1924.24,1305.11 1926.59,1307.54 
  1928.95,1309.93 1931.3,1312.3 1933.66,1314.62 1936.01,1316.91 1938.36,1319.16 1940.72,1321.38 1943.07,1323.56 1945.43,1325.7 1947.78,1327.8 1950.14,1329.86 
  1952.49,1331.89 1954.85,1333.87 1957.2,1335.81 1959.55,1337.71 1961.91,1339.57 1964.26,1341.39 1966.62,1343.16 1968.97,1344.9 1971.33,1346.58 1973.68,1348.23 
  1976.04,1349.82 1978.39,1351.38 1980.75,1352.88 1983.1,1354.34 1985.45,1355.75 1987.81,1357.12 1990.16,1358.43 1992.52,1359.7 1994.87,1360.92 1997.23,1362.09 
  1999.58,1363.21 2001.94,1364.27 2004.29,1365.29 2006.64,1366.25 2009,1367.16 2011.35,1368.02 2013.71,1368.82 2016.06,1369.57 2018.42,1370.26 2020.77,1370.9 
  2023.13,1371.48 2025.48,1372.01 2027.84,1372.48 2030.19,1372.88 2032.54,1373.24 2034.9,1373.53 2037.25,1373.76 2039.61,1373.93 2041.96,1374.04 2044.32,1374.09 
  2046.67,1374.08 2049.03,1374 2051.38,1373.87 2053.73,1373.66 2056.09,1373.4 2058.44,1373.06 2060.8,1372.67 2063.15,1372.2 2065.51,1371.67 2067.86,1371.07 
  2070.22,1370.4 2072.57,1369.67 2074.93,1368.86 2077.28,1367.99 2079.63,1367.04 2081.99,1366.02 2084.34,1364.93 2086.7,1363.77 2089.05,1362.54 2091.41,1361.23 
  2093.76,1359.84 2096.12,1358.39 2098.47,1356.85 2100.82,1355.24 2103.18,1353.55 2105.53,1351.79 2107.89,1349.94 2110.24,1348.02 2112.6,1346.01 2114.95,1343.93 
  2117.31,1341.77 2119.66,1339.52 2122.02,1337.19 2124.37,1334.78 2126.72,1332.29 2129.08,1329.71 2131.43,1327.04 2133.79,1324.29 2136.14,1321.46 2138.5,1318.53 
  2140.85,1315.52 2143.21,1312.42 2145.56,1309.23 2147.91,1305.95 2150.27,1302.58 2152.62,1299.12 2154.98,1295.57 2157.33,1291.93 2159.69,1288.19 2162.04,1284.36 
  2164.4,1280.43 2166.75,1276.41 2169.11,1272.29 2171.46,1268.08 2173.81,1263.77 2176.17,1259.36 2178.52,1254.85 2180.88,1250.24 2183.23,1245.54 2185.59,1240.73 
  2187.94,1235.82 2190.3,1230.8 2192.65,1225.69 2195,1220.47 2197.36,1215.14 2199.71,1209.71 2202.07,1204.17 2204.42,1198.53 2206.78,1192.78 2209.13,1186.92 
  2211.49,1180.96 2213.84,1174.88 2216.2,1168.69 2218.55,1162.39 2220.9,1155.98 2223.26,1149.46 2225.61,1142.82 2227.97,1136.07 2230.32,1129.2 2232.68,1122.22 
  2235.03,1115.12 2237.39,1107.91 2239.74,1100.57 2242.09,1093.12 2244.45,1085.55 2246.8,1077.86 2249.16,1070.05 2251.51,1062.11 2253.87,1054.05 2256.22,1045.87 
  2258.58,1037.57 2260.93,1029.14 2263.29,1020.58 2265.64,1011.9 2267.99,1003.09 2270.35,994.157 2272.7,985.092 2275.06,975.896 2277.41,966.57 2279.77,957.114 
  2282.12,947.525 2284.48,937.803 2286.83,927.948 2289.18,917.958 2291.54,907.833 2293.89,897.572 2296.25,887.175 2298.6,876.639 2300.96,865.966 2303.31,855.153 
  2305.67,844.2 2308.02,833.106 2310.37,821.87 2312.73,810.492 2315.08,798.971 2317.44,787.305 2319.79,775.495 2322.15,763.538 2324.5,751.435 2326.86,739.185 
  2329.21,726.786 2331.57,714.238 2333.92,701.54 2336.27,688.691 2338.63,675.691 2340.98,662.538 2343.34,649.232 2345.69,635.771 2348.05,622.155 2350.4,608.384 
  2352.76,594.456 
  "/>
<circle clip-path="url(#clip222)" cx="619.846" cy="1228.02" r="28.8" fill="#0000ff" fill-rule="evenodd" fill-opacity="1" stroke="#000000" stroke-opacity="1" stroke-width="3.2"/>
<circle clip-path="url(#clip222)" cx="2044.32" cy="1374.09" r="43.2" fill="#ff0000" fill-rule="evenodd" fill-opacity="1" stroke="#000000" stroke-opacity="1" stroke-width="3.2"/>
<circle clip-path="url(#clip222)" cx="1175.51" cy="655.711" r="21.6" fill="#000000" fill-rule="evenodd" fill-opacity="1" stroke="none"/>
<polyline clip-path="url(#clip222)" style="stroke:#808080; stroke-linecap:round; stroke-linejoin:round; stroke-width:4; stroke-opacity:1; fill:none" stroke-dasharray="2, 4" points="
  1175.51,1476.53 1175.51,655.711 
  "/>
<polyline clip-path="url(#clip222)" style="stroke:#808080; stroke-linecap:round; stroke-linejoin:round; stroke-width:4; stroke-opacity:1; fill:none" stroke-dasharray="2, 4" points="
  940.058,1476.53 940.058,912.982 
  "/>
<polyline clip-path="url(#clip222)" style="stroke:#808080; stroke-linecap:round; stroke-linejoin:round; stroke-width:4; stroke-opacity:1; fill:none" stroke-dasharray="2, 4" points="
  763.47,1476.53 763.47,1141.44 
  "/>
<polyline clip-path="url(#clip222)" style="stroke:#ff0000; stroke-linecap:round; stroke-linejoin:round; stroke-width:4; stroke-opacity:1; fill:none" points="
  1175.51,1425.48 940.058,1425.48 
  "/>
<polyline clip-path="url(#clip222)" style="stroke:#ff0000; stroke-linecap:round; stroke-linejoin:round; stroke-width:4; stroke-opacity:1; fill:none" points="
  976.058,1443.48 940.058,1425.48 976.058,1407.48 
  "/>
<polyline clip-path="url(#clip222)" style="stroke:#ff0000; stroke-linecap:round; stroke-linejoin:round; stroke-width:4; stroke-opacity:1; fill:none" points="
  940.058,1425.48 1175.51,1425.48 
  "/>
<polyline clip-path="url(#clip222)" style="stroke:#ff0000; stroke-linecap:round; stroke-linejoin:round; stroke-width:4; stroke-opacity:1; fill:none" points="
  940.058,1425.48 763.47,1425.48 
  "/>
<polyline clip-path="url(#clip222)" style="stroke:#ff0000; stroke-linecap:round; stroke-linejoin:round; stroke-width:4; stroke-opacity:1; fill:none" points="
  799.47,1443.48 763.47,1425.48 799.47,1407.48 
  "/>
<polyline clip-path="url(#clip222)" style="stroke:#ff0000; stroke-linecap:round; stroke-linejoin:round; stroke-width:4; stroke-opacity:1; fill:none" points="
  763.47,1425.48 940.058,1425.48 
  "/>
<path clip-path="url(#clip220)" d="
M1474.9 405.927 L2282.12 405.927 L2282.12 94.8869 L1474.9 94.8869  Z
  " fill="#ffffff" fill-rule="evenodd" fill-opacity="1"/>
<polyline clip-path="url(#clip220)" style="stroke:#000000; stroke-linecap:round; stroke-linejoin:round; stroke-width:4; stroke-opacity:1; fill:none" points="
  1474.9,405.927 2282.12,405.927 2282.12,94.8869 1474.9,94.8869 1474.9,405.927 
  "/>
<circle clip-path="url(#clip220)" cx="1569.08" cy="172.647" r="34.56" fill="#0000ff" fill-rule="evenodd" fill-opacity="1" stroke="#000000" stroke-opacity="1" stroke-width="3.84"/>
<path clip-path="url(#clip220)" d="M1663.26 146.727 L1670.28 146.727 L1670.28 192.664 L1695.52 192.664 L1695.52 198.567 L1663.26 198.567 L1663.26 146.727 Z" fill="#000000" fill-rule="evenodd" fill-opacity="1" /><path clip-path="url(#clip220)" d="M1716.42 164.157 Q1711.28 164.157 1708.3 168.185 Q1705.31 172.178 1705.31 179.157 Q1705.31 186.136 1708.26 190.164 Q1711.25 194.157 1716.42 194.157 Q1721.53 194.157 1724.51 190.129 Q1727.5 186.102 1727.5 179.157 Q1727.5 172.248 1724.51 168.22 Q1721.53 164.157 1716.42 164.157 M1716.42 158.741 Q1724.76 158.741 1729.51 164.157 Q1734.27 169.574 1734.27 179.157 Q1734.27 188.706 1729.51 194.157 Q1724.76 199.574 1716.42 199.574 Q1708.05 199.574 1703.3 194.157 Q1698.58 188.706 1698.58 179.157 Q1698.58 169.574 1703.3 164.157 Q1708.05 158.741 1716.42 158.741 Z" fill="#000000" fill-rule="evenodd" fill-opacity="1" /><path clip-path="url(#clip220)" d="M1772.85 161.171 L1772.85 167.143 Q1770.14 165.65 1767.39 164.921 Q1764.69 164.157 1761.91 164.157 Q1755.69 164.157 1752.26 168.116 Q1748.82 172.039 1748.82 179.157 Q1748.82 186.275 1752.26 190.234 Q1755.69 194.157 1761.91 194.157 Q1764.69 194.157 1767.39 193.428 Q1770.14 192.664 1772.85 191.171 L1772.85 197.074 Q1770.17 198.324 1767.29 198.949 Q1764.44 199.574 1761.21 199.574 Q1752.43 199.574 1747.26 194.053 Q1742.08 188.532 1742.08 179.157 Q1742.08 169.643 1747.29 164.192 Q1752.53 158.741 1761.63 158.741 Q1764.58 158.741 1767.39 159.366 Q1770.21 159.956 1772.85 161.171 Z" fill="#000000" fill-rule="evenodd" fill-opacity="1" /><path clip-path="url(#clip220)" d="M1801.63 179.018 Q1793.89 179.018 1790.9 180.789 Q1787.92 182.56 1787.92 186.831 Q1787.92 190.234 1790.14 192.247 Q1792.39 194.227 1796.25 194.227 Q1801.56 194.227 1804.76 190.477 Q1807.98 186.692 1807.98 180.442 L1807.98 179.018 L1801.63 179.018 M1814.37 176.38 L1814.37 198.567 L1807.98 198.567 L1807.98 192.664 Q1805.8 196.206 1802.53 197.907 Q1799.27 199.574 1794.55 199.574 Q1788.58 199.574 1785.03 196.241 Q1781.53 192.872 1781.53 187.248 Q1781.53 180.685 1785.9 177.352 Q1790.31 174.018 1799.03 174.018 L1807.98 174.018 L1807.98 173.393 Q1807.98 168.984 1805.07 166.588 Q1802.19 164.157 1796.94 164.157 Q1793.61 164.157 1790.45 164.956 Q1787.29 165.755 1784.37 167.352 L1784.37 161.449 Q1787.88 160.095 1791.18 159.435 Q1794.48 158.741 1797.6 158.741 Q1806.04 158.741 1810.21 163.116 Q1814.37 167.491 1814.37 176.38 Z" fill="#000000" fill-rule="evenodd" fill-opacity="1" /><path clip-path="url(#clip220)" d="M1827.53 144.539 L1833.92 144.539 L1833.92 198.567 L1827.53 198.567 L1827.53 144.539 Z" fill="#000000" fill-rule="evenodd" fill-opacity="1" /><path clip-path="url(#clip220)" d="M1891.21 151.484 Q1883.57 151.484 1879.06 157.178 Q1874.58 162.873 1874.58 172.699 Q1874.58 182.491 1879.06 188.185 Q1883.57 193.879 1891.21 193.879 Q1898.85 193.879 1903.3 188.185 Q1907.78 182.491 1907.78 172.699 Q1907.78 162.873 1903.3 157.178 Q1898.85 151.484 1891.21 151.484 M1891.21 145.789 Q1902.12 145.789 1908.64 153.116 Q1915.17 160.407 1915.17 172.699 Q1915.17 184.956 1908.64 192.282 Q1902.12 199.574 1891.21 199.574 Q1880.28 199.574 1873.71 192.282 Q1867.19 184.991 1867.19 172.699 Q1867.19 160.407 1873.71 153.116 Q1880.28 145.789 1891.21 145.789 Z" fill="#000000" fill-rule="evenodd" fill-opacity="1" /><path clip-path="url(#clip220)" d="M1932.05 192.734 L1932.05 213.358 L1925.62 213.358 L1925.62 159.678 L1932.05 159.678 L1932.05 165.581 Q1934.06 162.109 1937.12 160.442 Q1940.21 158.741 1944.48 158.741 Q1951.56 158.741 1955.97 164.366 Q1960.41 169.991 1960.41 179.157 Q1960.41 188.324 1955.97 193.949 Q1951.56 199.574 1944.48 199.574 Q1940.21 199.574 1937.12 197.907 Q1934.06 196.206 1932.05 192.734 M1953.78 179.157 Q1953.78 172.109 1950.87 168.116 Q1947.98 164.088 1942.91 164.088 Q1937.85 164.088 1934.93 168.116 Q1932.05 172.109 1932.05 179.157 Q1932.05 186.206 1934.93 190.234 Q1937.85 194.227 1942.91 194.227 Q1947.98 194.227 1950.87 190.234 Q1953.78 186.206 1953.78 179.157 Z" fill="#000000" fill-rule="evenodd" fill-opacity="1" /><path clip-path="url(#clip220)" d="M1977.32 148.637 L1977.32 159.678 L1990.48 159.678 L1990.48 164.643 L1977.32 164.643 L1977.32 185.754 Q1977.32 190.511 1978.61 191.866 Q1979.93 193.22 1983.92 193.22 L1990.48 193.22 L1990.48 198.567 L1983.92 198.567 Q1976.53 198.567 1973.71 195.824 Q1970.9 193.046 1970.9 185.754 L1970.9 164.643 L1966.21 164.643 L1966.21 159.678 L1970.9 159.678 L1970.9 148.637 L1977.32 148.637 Z" fill="#000000" fill-rule="evenodd" fill-opacity="1" /><path clip-path="url(#clip220)" d="M1998.89 159.678 L2005.28 159.678 L2005.28 198.567 L1998.89 198.567 L1998.89 159.678 M1998.89 144.539 L2005.28 144.539 L2005.28 152.63 L1998.89 152.63 L1998.89 144.539 Z" fill="#000000" fill-rule="evenodd" fill-opacity="1" /><path clip-path="url(#clip220)" d="M2048.92 167.143 Q2051.32 162.838 2054.65 160.789 Q2057.98 158.741 2062.5 158.741 Q2068.57 158.741 2071.87 163.012 Q2075.17 167.248 2075.17 175.095 L2075.17 198.567 L2068.75 198.567 L2068.75 175.303 Q2068.75 169.713 2066.77 167.005 Q2064.79 164.296 2060.73 164.296 Q2055.76 164.296 2052.88 167.595 Q2050 170.893 2050 176.588 L2050 198.567 L2043.57 198.567 L2043.57 175.303 Q2043.57 169.678 2041.59 167.005 Q2039.62 164.296 2035.48 164.296 Q2030.59 164.296 2027.71 167.63 Q2024.82 170.928 2024.82 176.588 L2024.82 198.567 L2018.4 198.567 L2018.4 159.678 L2024.82 159.678 L2024.82 165.72 Q2027.01 162.143 2030.07 160.442 Q2033.12 158.741 2037.32 158.741 Q2041.56 158.741 2044.51 160.893 Q2047.5 163.046 2048.92 167.143 Z" fill="#000000" fill-rule="evenodd" fill-opacity="1" /><path clip-path="url(#clip220)" d="M2087.25 183.22 L2087.25 159.678 L2093.64 159.678 L2093.64 182.977 Q2093.64 188.497 2095.8 191.275 Q2097.95 194.018 2102.25 194.018 Q2107.43 194.018 2110.41 190.72 Q2113.43 187.421 2113.43 181.727 L2113.43 159.678 L2119.82 159.678 L2119.82 198.567 L2113.43 198.567 L2113.43 192.595 Q2111.11 196.136 2108.02 197.872 Q2104.96 199.574 2100.9 199.574 Q2094.2 199.574 2090.73 195.407 Q2087.25 191.241 2087.25 183.22 M2103.33 158.741 L2103.33 158.741 Z" fill="#000000" fill-rule="evenodd" fill-opacity="1" /><path clip-path="url(#clip220)" d="M2163.26 167.143 Q2165.66 162.838 2168.99 160.789 Q2172.32 158.741 2176.84 158.741 Q2182.91 158.741 2186.21 163.012 Q2189.51 167.248 2189.51 175.095 L2189.51 198.567 L2183.09 198.567 L2183.09 175.303 Q2183.09 169.713 2181.11 167.005 Q2179.13 164.296 2175.07 164.296 Q2170.1 164.296 2167.22 167.595 Q2164.34 170.893 2164.34 176.588 L2164.34 198.567 L2157.91 198.567 L2157.91 175.303 Q2157.91 169.678 2155.93 167.005 Q2153.96 164.296 2149.82 164.296 Q2144.93 164.296 2142.05 167.63 Q2139.16 170.928 2139.16 176.588 L2139.16 198.567 L2132.74 198.567 L2132.74 159.678 L2139.16 159.678 L2139.16 165.72 Q2141.35 162.143 2144.41 160.442 Q2147.46 158.741 2151.66 158.741 Q2155.9 158.741 2158.85 160.893 Q2161.84 163.046 2163.26 167.143 Z" fill="#000000" fill-rule="evenodd" fill-opacity="1" /><circle clip-path="url(#clip220)" cx="1569.08" cy="250.407" r="34.56" fill="#ff0000" fill-rule="evenodd" fill-opacity="1" stroke="#000000" stroke-opacity="1" stroke-width="2.56"/>
<path clip-path="url(#clip220)" d="M1701.6 268.931 L1701.6 255.008 L1690.14 255.008 L1690.14 249.244 L1708.54 249.244 L1708.54 271.501 Q1704.48 274.382 1699.58 275.876 Q1694.69 277.334 1689.13 277.334 Q1676.98 277.334 1670.1 270.251 Q1663.26 263.133 1663.26 250.459 Q1663.26 237.751 1670.1 230.667 Q1676.98 223.549 1689.13 223.549 Q1694.2 223.549 1698.75 224.799 Q1703.33 226.049 1707.19 228.48 L1707.19 235.945 Q1703.3 232.647 1698.92 230.98 Q1694.55 229.313 1689.72 229.313 Q1680.21 229.313 1675.42 234.626 Q1670.66 239.938 1670.66 250.459 Q1670.66 260.945 1675.42 266.257 Q1680.21 271.57 1689.72 271.57 Q1693.44 271.57 1696.35 270.945 Q1699.27 270.285 1701.6 268.931 Z" fill="#000000" fill-rule="evenodd" fill-opacity="1" /><path clip-path="url(#clip220)" d="M1721.08 222.299 L1727.46 222.299 L1727.46 276.327 L1721.08 276.327 L1721.08 222.299 Z" fill="#000000" fill-rule="evenodd" fill-opacity="1" /><path clip-path="url(#clip220)" d="M1755.9 241.917 Q1750.76 241.917 1747.78 245.945 Q1744.79 249.938 1744.79 256.917 Q1744.79 263.896 1747.74 267.924 Q1750.73 271.917 1755.9 271.917 Q1761.01 271.917 1763.99 267.889 Q1766.98 263.862 1766.98 256.917 Q1766.98 250.008 1763.99 245.98 Q1761.01 241.917 1755.9 241.917 M1755.9 236.501 Q1764.23 236.501 1768.99 241.917 Q1773.75 247.334 1773.75 256.917 Q1773.75 266.466 1768.99 271.917 Q1764.23 277.334 1755.9 277.334 Q1747.53 277.334 1742.78 271.917 Q1738.05 266.466 1738.05 256.917 Q1738.05 247.334 1742.78 241.917 Q1747.53 236.501 1755.9 236.501 Z" fill="#000000" fill-rule="evenodd" fill-opacity="1" /><path clip-path="url(#clip220)" d="M1812.26 256.917 Q1812.26 249.869 1809.34 245.876 Q1806.46 241.848 1801.39 241.848 Q1796.32 241.848 1793.4 245.876 Q1790.52 249.869 1790.52 256.917 Q1790.52 263.966 1793.4 267.994 Q1796.32 271.987 1801.39 271.987 Q1806.46 271.987 1809.34 267.994 Q1812.26 263.966 1812.26 256.917 M1790.52 243.341 Q1792.53 239.869 1795.59 238.202 Q1798.68 236.501 1802.95 236.501 Q1810.03 236.501 1814.44 242.126 Q1818.89 247.751 1818.89 256.917 Q1818.89 266.084 1814.44 271.709 Q1810.03 277.334 1802.95 277.334 Q1798.68 277.334 1795.59 275.667 Q1792.53 273.966 1790.52 270.494 L1790.52 276.327 L1784.1 276.327 L1784.1 222.299 L1790.52 222.299 L1790.52 243.341 Z" fill="#000000" fill-rule="evenodd" fill-opacity="1" /><path clip-path="url(#clip220)" d="M1847.15 256.778 Q1839.41 256.778 1836.42 258.549 Q1833.44 260.32 1833.44 264.591 Q1833.44 267.994 1835.66 270.007 Q1837.92 271.987 1841.77 271.987 Q1847.08 271.987 1850.28 268.237 Q1853.51 264.452 1853.51 258.202 L1853.51 256.778 L1847.15 256.778 M1859.89 254.14 L1859.89 276.327 L1853.51 276.327 L1853.51 270.424 Q1851.32 273.966 1848.05 275.667 Q1844.79 277.334 1840.07 277.334 Q1834.1 277.334 1830.55 274.001 Q1827.05 270.632 1827.05 265.008 Q1827.05 258.445 1831.42 255.112 Q1835.83 251.778 1844.55 251.778 L1853.51 251.778 L1853.51 251.153 Q1853.51 246.744 1850.59 244.348 Q1847.71 241.917 1842.46 241.917 Q1839.13 241.917 1835.97 242.716 Q1832.81 243.515 1829.89 245.112 L1829.89 239.209 Q1833.4 237.855 1836.7 237.195 Q1840 236.501 1843.12 236.501 Q1851.56 236.501 1855.73 240.876 Q1859.89 245.251 1859.89 254.14 Z" fill="#000000" fill-rule="evenodd" fill-opacity="1" /><path clip-path="url(#clip220)" d="M1873.05 222.299 L1879.44 222.299 L1879.44 276.327 L1873.05 276.327 L1873.05 222.299 Z" fill="#000000" fill-rule="evenodd" fill-opacity="1" /><path clip-path="url(#clip220)" d="M1936.73 229.244 Q1929.1 229.244 1924.58 234.938 Q1920.1 240.633 1920.1 250.459 Q1920.1 260.251 1924.58 265.945 Q1929.1 271.639 1936.73 271.639 Q1944.37 271.639 1948.82 265.945 Q1953.3 260.251 1953.3 250.459 Q1953.3 240.633 1948.82 234.938 Q1944.37 229.244 1936.73 229.244 M1936.73 223.549 Q1947.64 223.549 1954.16 230.876 Q1960.69 238.167 1960.69 250.459 Q1960.69 262.716 1954.16 270.042 Q1947.64 277.334 1936.73 277.334 Q1925.8 277.334 1919.23 270.042 Q1912.71 262.751 1912.71 250.459 Q1912.71 238.167 1919.23 230.876 Q1925.8 223.549 1936.73 223.549 Z" fill="#000000" fill-rule="evenodd" fill-opacity="1" /><path clip-path="url(#clip220)" d="M1977.57 270.494 L1977.57 291.118 L1971.14 291.118 L1971.14 237.438 L1977.57 237.438 L1977.57 243.341 Q1979.58 239.869 1982.64 238.202 Q1985.73 236.501 1990 236.501 Q1997.08 236.501 2001.49 242.126 Q2005.94 247.751 2005.94 256.917 Q2005.94 266.084 2001.49 271.709 Q1997.08 277.334 1990 277.334 Q1985.73 277.334 1982.64 275.667 Q1979.58 273.966 1977.57 270.494 M1999.3 256.917 Q1999.3 249.869 1996.39 245.876 Q1993.5 241.848 1988.44 241.848 Q1983.37 241.848 1980.45 245.876 Q1977.57 249.869 1977.57 256.917 Q1977.57 263.966 1980.45 267.994 Q1983.37 271.987 1988.44 271.987 Q1993.5 271.987 1996.39 267.994 Q1999.3 263.966 1999.3 256.917 Z" fill="#000000" fill-rule="evenodd" fill-opacity="1" /><path clip-path="url(#clip220)" d="M2022.84 226.397 L2022.84 237.438 L2036 237.438 L2036 242.403 L2022.84 242.403 L2022.84 263.514 Q2022.84 268.271 2024.13 269.626 Q2025.45 270.98 2029.44 270.98 L2036 270.98 L2036 276.327 L2029.44 276.327 Q2022.05 276.327 2019.23 273.584 Q2016.42 270.806 2016.42 263.514 L2016.42 242.403 L2011.73 242.403 L2011.73 237.438 L2016.42 237.438 L2016.42 226.397 L2022.84 226.397 Z" fill="#000000" fill-rule="evenodd" fill-opacity="1" /><path clip-path="url(#clip220)" d="M2044.41 237.438 L2050.8 237.438 L2050.8 276.327 L2044.41 276.327 L2044.41 237.438 M2044.41 222.299 L2050.8 222.299 L2050.8 230.39 L2044.41 230.39 L2044.41 222.299 Z" fill="#000000" fill-rule="evenodd" fill-opacity="1" /><path clip-path="url(#clip220)" d="M2094.44 244.903 Q2096.84 240.598 2100.17 238.549 Q2103.5 236.501 2108.02 236.501 Q2114.09 236.501 2117.39 240.772 Q2120.69 245.008 2120.69 252.855 L2120.69 276.327 L2114.27 276.327 L2114.27 253.063 Q2114.27 247.473 2112.29 244.765 Q2110.31 242.056 2106.25 242.056 Q2101.28 242.056 2098.4 245.355 Q2095.52 248.653 2095.52 254.348 L2095.52 276.327 L2089.09 276.327 L2089.09 253.063 Q2089.09 247.438 2087.12 244.765 Q2085.14 242.056 2081 242.056 Q2076.11 242.056 2073.23 245.39 Q2070.34 248.688 2070.34 254.348 L2070.34 276.327 L2063.92 276.327 L2063.92 237.438 L2070.34 237.438 L2070.34 243.48 Q2072.53 239.903 2075.59 238.202 Q2078.64 236.501 2082.84 236.501 Q2087.08 236.501 2090.03 238.653 Q2093.02 240.806 2094.44 244.903 Z" fill="#000000" fill-rule="evenodd" fill-opacity="1" /><path clip-path="url(#clip220)" d="M2132.77 260.98 L2132.77 237.438 L2139.16 237.438 L2139.16 260.737 Q2139.16 266.257 2141.32 269.035 Q2143.47 271.778 2147.77 271.778 Q2152.95 271.778 2155.93 268.48 Q2158.96 265.181 2158.96 259.487 L2158.96 237.438 L2165.34 237.438 L2165.34 276.327 L2158.96 276.327 L2158.96 270.355 Q2156.63 273.896 2153.54 275.632 Q2150.48 277.334 2146.42 277.334 Q2139.72 277.334 2136.25 273.167 Q2132.77 269.001 2132.77 260.98 M2148.85 236.501 L2148.85 236.501 Z" fill="#000000" fill-rule="evenodd" fill-opacity="1" /><path clip-path="url(#clip220)" d="M2208.78 244.903 Q2211.18 240.598 2214.51 238.549 Q2217.84 236.501 2222.36 236.501 Q2228.43 236.501 2231.73 240.772 Q2235.03 245.008 2235.03 252.855 L2235.03 276.327 L2228.61 276.327 L2228.61 253.063 Q2228.61 247.473 2226.63 244.765 Q2224.65 242.056 2220.59 242.056 Q2215.62 242.056 2212.74 245.355 Q2209.86 248.653 2209.86 254.348 L2209.86 276.327 L2203.43 276.327 L2203.43 253.063 Q2203.43 247.438 2201.45 244.765 Q2199.48 242.056 2195.34 242.056 Q2190.45 242.056 2187.57 245.39 Q2184.68 248.688 2184.68 254.348 L2184.68 276.327 L2178.26 276.327 L2178.26 237.438 L2184.68 237.438 L2184.68 243.48 Q2186.87 239.903 2189.93 238.202 Q2192.98 236.501 2197.18 236.501 Q2201.42 236.501 2204.37 238.653 Q2207.36 240.806 2208.78 244.903 Z" fill="#000000" fill-rule="evenodd" fill-opacity="1" /><circle clip-path="url(#clip220)" cx="1569.08" cy="328.167" r="34.56" fill="#000000" fill-rule="evenodd" fill-opacity="1" stroke="none"/>
<path clip-path="url(#clip220)" d="M1696.63 303.948 L1696.63 310.789 Q1692.64 308.879 1689.1 307.941 Q1685.55 307.004 1682.26 307.004 Q1676.53 307.004 1673.4 309.226 Q1670.31 311.448 1670.31 315.545 Q1670.31 318.983 1672.36 320.754 Q1674.44 322.49 1680.21 323.566 L1684.44 324.434 Q1692.29 325.927 1696.01 329.712 Q1699.76 333.462 1699.76 339.781 Q1699.76 347.316 1694.69 351.205 Q1689.65 355.094 1679.9 355.094 Q1676.21 355.094 1672.05 354.26 Q1667.92 353.427 1663.47 351.795 L1663.47 344.573 Q1667.74 346.969 1671.84 348.184 Q1675.94 349.399 1679.9 349.399 Q1685.9 349.399 1689.17 347.038 Q1692.43 344.677 1692.43 340.302 Q1692.43 336.483 1690.07 334.33 Q1687.74 332.177 1682.4 331.101 L1678.12 330.268 Q1670.28 328.705 1666.77 325.372 Q1663.26 322.038 1663.26 316.101 Q1663.26 309.226 1668.09 305.268 Q1672.95 301.309 1681.46 301.309 Q1685.1 301.309 1688.89 301.969 Q1692.67 302.629 1696.63 303.948 Z" fill="#000000" fill-rule="evenodd" fill-opacity="1" /><path clip-path="url(#clip220)" d="M1716.74 304.157 L1716.74 315.198 L1729.89 315.198 L1729.89 320.163 L1716.74 320.163 L1716.74 341.274 Q1716.74 346.031 1718.02 347.386 Q1719.34 348.74 1723.33 348.74 L1729.89 348.74 L1729.89 354.087 L1723.33 354.087 Q1715.94 354.087 1713.12 351.344 Q1710.31 348.566 1710.31 341.274 L1710.31 320.163 L1705.62 320.163 L1705.62 315.198 L1710.31 315.198 L1710.31 304.157 L1716.74 304.157 Z" fill="#000000" fill-rule="evenodd" fill-opacity="1" /><path clip-path="url(#clip220)" d="M1755.97 334.538 Q1748.23 334.538 1745.24 336.309 Q1742.26 338.08 1742.26 342.351 Q1742.26 345.754 1744.48 347.767 Q1746.74 349.747 1750.59 349.747 Q1755.9 349.747 1759.1 345.997 Q1762.33 342.212 1762.33 335.962 L1762.33 334.538 L1755.97 334.538 M1768.71 331.9 L1768.71 354.087 L1762.33 354.087 L1762.33 348.184 Q1760.14 351.726 1756.87 353.427 Q1753.61 355.094 1748.89 355.094 Q1742.92 355.094 1739.37 351.761 Q1735.87 348.392 1735.87 342.768 Q1735.87 336.205 1740.24 332.872 Q1744.65 329.538 1753.37 329.538 L1762.33 329.538 L1762.33 328.913 Q1762.33 324.504 1759.41 322.108 Q1756.53 319.677 1751.28 319.677 Q1747.95 319.677 1744.79 320.476 Q1741.63 321.275 1738.71 322.872 L1738.71 316.969 Q1742.22 315.615 1745.52 314.955 Q1748.82 314.261 1751.94 314.261 Q1760.38 314.261 1764.55 318.636 Q1768.71 323.011 1768.71 331.9 Z" fill="#000000" fill-rule="evenodd" fill-opacity="1" /><path clip-path="url(#clip220)" d="M1804.41 321.17 Q1803.33 320.545 1802.05 320.268 Q1800.8 319.955 1799.27 319.955 Q1793.85 319.955 1790.94 323.497 Q1788.05 327.004 1788.05 333.601 L1788.05 354.087 L1781.63 354.087 L1781.63 315.198 L1788.05 315.198 L1788.05 321.24 Q1790.07 317.698 1793.3 315.997 Q1796.53 314.261 1801.14 314.261 Q1801.8 314.261 1802.6 314.365 Q1803.4 314.434 1804.37 314.608 L1804.41 321.17 Z" fill="#000000" fill-rule="evenodd" fill-opacity="1" /><path clip-path="url(#clip220)" d="M1817.43 304.157 L1817.43 315.198 L1830.59 315.198 L1830.59 320.163 L1817.43 320.163 L1817.43 341.274 Q1817.43 346.031 1818.71 347.386 Q1820.03 348.74 1824.03 348.74 L1830.59 348.74 L1830.59 354.087 L1824.03 354.087 Q1816.63 354.087 1813.82 351.344 Q1811.01 348.566 1811.01 341.274 L1811.01 320.163 L1806.32 320.163 L1806.32 315.198 L1811.01 315.198 L1811.01 304.157 L1817.43 304.157 Z" fill="#000000" fill-rule="evenodd" fill-opacity="1" /><path clip-path="url(#clip220)" d="M1868.89 308.011 L1868.89 327.49 L1877.71 327.49 Q1882.6 327.49 1885.28 324.955 Q1887.95 322.42 1887.95 317.733 Q1887.95 313.08 1885.28 310.545 Q1882.6 308.011 1877.71 308.011 L1868.89 308.011 M1861.87 302.247 L1877.71 302.247 Q1886.42 302.247 1890.87 306.205 Q1895.35 310.129 1895.35 317.733 Q1895.35 325.406 1890.87 329.33 Q1886.42 333.254 1877.71 333.254 L1868.89 333.254 L1868.89 354.087 L1861.87 354.087 L1861.87 302.247 Z" fill="#000000" fill-rule="evenodd" fill-opacity="1" /><path clip-path="url(#clip220)" d="M1917.01 319.677 Q1911.87 319.677 1908.89 323.705 Q1905.9 327.698 1905.9 334.677 Q1905.9 341.656 1908.85 345.684 Q1911.84 349.677 1917.01 349.677 Q1922.12 349.677 1925.1 345.649 Q1928.09 341.622 1928.09 334.677 Q1928.09 327.768 1925.1 323.74 Q1922.12 319.677 1917.01 319.677 M1917.01 314.261 Q1925.35 314.261 1930.1 319.677 Q1934.86 325.094 1934.86 334.677 Q1934.86 344.226 1930.1 349.677 Q1925.35 355.094 1917.01 355.094 Q1908.64 355.094 1903.89 349.677 Q1899.16 344.226 1899.16 334.677 Q1899.16 325.094 1903.89 319.677 Q1908.64 314.261 1917.01 314.261 Z" fill="#000000" fill-rule="evenodd" fill-opacity="1" /><path clip-path="url(#clip220)" d="M1945.45 315.198 L1951.84 315.198 L1951.84 354.087 L1945.45 354.087 L1945.45 315.198 M1945.45 300.059 L1951.84 300.059 L1951.84 308.15 L1945.45 308.15 L1945.45 300.059 Z" fill="#000000" fill-rule="evenodd" fill-opacity="1" /><path clip-path="url(#clip220)" d="M1997.53 330.615 L1997.53 354.087 L1991.14 354.087 L1991.14 330.823 Q1991.14 325.302 1988.99 322.559 Q1986.84 319.816 1982.53 319.816 Q1977.36 319.816 1974.37 323.115 Q1971.39 326.413 1971.39 332.108 L1971.39 354.087 L1964.96 354.087 L1964.96 315.198 L1971.39 315.198 L1971.39 321.24 Q1973.68 317.733 1976.77 315.997 Q1979.89 314.261 1983.96 314.261 Q1990.66 314.261 1994.09 318.427 Q1997.53 322.559 1997.53 330.615 Z" fill="#000000" fill-rule="evenodd" fill-opacity="1" /><path clip-path="url(#clip220)" d="M2016.59 304.157 L2016.59 315.198 L2029.75 315.198 L2029.75 320.163 L2016.59 320.163 L2016.59 341.274 Q2016.59 346.031 2017.88 347.386 Q2019.2 348.74 2023.19 348.74 L2029.75 348.74 L2029.75 354.087 L2023.19 354.087 Q2015.8 354.087 2012.98 351.344 Q2010.17 348.566 2010.17 341.274 L2010.17 320.163 L2005.48 320.163 L2005.48 315.198 L2010.17 315.198 L2010.17 304.157 L2016.59 304.157 Z" fill="#000000" fill-rule="evenodd" fill-opacity="1" /><path clip-path="url(#clip220)" d="M1236.91 1349.14 Q1236.91 1351.44 1235.48 1352.75 Q1234.04 1354.02 1232.4 1354.02 Q1230.85 1354.02 1230.03 1353.12 Q1229.21 1352.22 1229.21 1351.07 Q1229.21 1349.51 1230.35 1348.16 Q1231.5 1346.81 1233.22 1346.52 Q1231.54 1345.46 1229.04 1345.46 Q1227.4 1345.46 1225.97 1346.32 Q1224.57 1347.18 1223.71 1348.28 Q1222.89 1349.39 1222.16 1350.99 Q1221.46 1352.55 1221.17 1353.49 Q1220.93 1354.39 1220.72 1355.37 L1217.85 1366.85 Q1216.46 1372.3 1216.46 1374.23 Q1216.46 1376.61 1217.61 1378.21 Q1218.75 1379.76 1221.05 1379.76 Q1221.95 1379.76 1222.98 1379.52 Q1224 1379.23 1225.31 1378.49 Q1226.67 1377.71 1227.85 1376.57 Q1229.08 1375.38 1230.27 1373.37 Q1231.46 1371.36 1232.24 1368.78 Q1232.49 1367.88 1233.31 1367.88 Q1234.33 1367.88 1234.33 1368.7 Q1234.33 1369.39 1233.76 1370.87 Q1233.22 1372.3 1232.03 1374.19 Q1230.89 1376.03 1229.37 1377.71 Q1227.85 1379.35 1225.6 1380.5 Q1223.35 1381.65 1220.89 1381.65 Q1217.36 1381.65 1215.02 1379.76 Q1212.69 1377.88 1211.83 1375.25 Q1211.62 1375.62 1211.34 1376.12 Q1211.05 1376.61 1210.19 1377.71 Q1209.37 1378.78 1208.42 1379.6 Q1207.48 1380.38 1206.01 1380.99 Q1204.57 1381.65 1203.01 1381.65 Q1201.05 1381.65 1199.28 1381.07 Q1197.56 1380.5 1196.33 1379.19 Q1195.1 1377.88 1195.1 1376.07 Q1195.1 1374.07 1196.46 1372.67 Q1197.85 1371.24 1199.74 1371.24 Q1200.92 1371.24 1201.87 1371.93 Q1202.85 1372.63 1202.85 1374.15 Q1202.85 1375.83 1201.7 1377.1 Q1200.56 1378.37 1198.92 1378.7 Q1200.6 1379.76 1203.1 1379.76 Q1205.8 1379.76 1207.93 1377.39 Q1210.06 1375.01 1211.09 1371.03 Q1213.63 1361.48 1214.61 1357.22 Q1215.6 1352.92 1215.6 1351.07 Q1215.6 1349.35 1215.15 1348.16 Q1214.7 1346.97 1213.92 1346.44 Q1213.18 1345.86 1212.48 1345.66 Q1211.83 1345.46 1211.09 1345.46 Q1209.86 1345.46 1208.47 1345.95 Q1207.11 1346.44 1205.47 1347.59 Q1203.88 1348.69 1202.36 1350.99 Q1200.84 1353.28 1199.82 1356.44 Q1199.61 1357.38 1198.71 1357.38 Q1197.73 1357.34 1197.73 1356.52 Q1197.73 1355.83 1198.26 1354.39 Q1198.83 1352.92 1199.98 1351.07 Q1201.17 1349.23 1202.69 1347.59 Q1204.24 1345.91 1206.5 1344.76 Q1208.79 1343.61 1211.25 1343.61 Q1212.36 1343.61 1213.43 1343.86 Q1214.53 1344.06 1215.84 1344.68 Q1217.2 1345.29 1218.39 1346.64 Q1219.57 1348 1220.31 1349.96 Q1220.8 1349.02 1221.46 1348.12 Q1222.16 1347.22 1223.22 1346.11 Q1224.33 1344.96 1225.85 1344.31 Q1227.4 1343.61 1229.12 1343.61 Q1230.81 1343.61 1232.44 1344.06 Q1234.08 1344.47 1235.48 1345.82 Q1236.91 1347.14 1236.91 1349.14 Z" fill="#ff0000" fill-rule="evenodd" fill-opacity="1" /><path clip-path="url(#clip220)" d="M1245.47 1371.36 L1245.47 1369.52 Q1252.53 1369.52 1256.17 1365.76 Q1257.18 1365.76 1257.35 1365.99 Q1257.52 1366.22 1257.52 1367.29 L1257.52 1400.25 Q1257.52 1402 1258.38 1402.55 Q1259.24 1403.09 1263 1403.09 L1264.87 1403.09 L1264.87 1404.9 Q1262.8 1404.73 1255.34 1404.73 Q1247.88 1404.73 1245.84 1404.9 L1245.84 1403.09 L1247.71 1403.09 Q1251.41 1403.09 1252.3 1402.58 Q1253.19 1402.03 1253.19 1400.25 L1253.19 1369.81 Q1250.12 1371.36 1245.47 1371.36 Z" fill="#ff0000" fill-rule="evenodd" fill-opacity="1" /><path clip-path="url(#clip220)" d="M999.445 1349.14 Q999.445 1351.44 998.01 1352.75 Q996.576 1354.02 994.936 1354.02 Q993.378 1354.02 992.559 1353.12 Q991.739 1352.22 991.739 1351.07 Q991.739 1349.51 992.887 1348.16 Q994.034 1346.81 995.756 1346.52 Q994.075 1345.46 991.575 1345.46 Q989.935 1345.46 988.501 1346.32 Q987.107 1347.18 986.246 1348.28 Q985.426 1349.39 984.689 1350.99 Q983.992 1352.55 983.705 1353.49 Q983.459 1354.39 983.254 1355.37 L980.385 1366.85 Q978.991 1372.3 978.991 1374.23 Q978.991 1376.61 980.139 1378.21 Q981.287 1379.76 983.582 1379.76 Q984.484 1379.76 985.508 1379.52 Q986.533 1379.23 987.845 1378.49 Q989.197 1377.71 990.386 1376.57 Q991.616 1375.38 992.805 1373.37 Q993.993 1371.36 994.772 1368.78 Q995.018 1367.88 995.838 1367.88 Q996.862 1367.88 996.862 1368.7 Q996.862 1369.39 996.289 1370.87 Q995.756 1372.3 994.567 1374.19 Q993.419 1376.03 991.903 1377.71 Q990.386 1379.35 988.132 1380.5 Q985.877 1381.65 983.418 1381.65 Q979.893 1381.65 977.557 1379.76 Q975.22 1377.88 974.359 1375.25 Q974.154 1375.62 973.868 1376.12 Q973.581 1376.61 972.72 1377.71 Q971.9 1378.78 970.957 1379.6 Q970.015 1380.38 968.539 1380.99 Q967.104 1381.65 965.547 1381.65 Q963.579 1381.65 961.817 1381.07 Q960.095 1380.5 958.865 1379.19 Q957.636 1377.88 957.636 1376.07 Q957.636 1374.07 958.988 1372.67 Q960.382 1371.24 962.268 1371.24 Q963.456 1371.24 964.399 1371.93 Q965.383 1372.63 965.383 1374.15 Q965.383 1375.83 964.235 1377.1 Q963.087 1378.37 961.448 1378.7 Q963.128 1379.76 965.629 1379.76 Q968.334 1379.76 970.465 1377.39 Q972.597 1375.01 973.622 1371.03 Q976.163 1361.48 977.147 1357.22 Q978.13 1352.92 978.13 1351.07 Q978.13 1349.35 977.68 1348.16 Q977.229 1346.97 976.45 1346.44 Q975.712 1345.86 975.015 1345.66 Q974.359 1345.46 973.622 1345.46 Q972.392 1345.46 970.998 1345.95 Q969.646 1346.44 968.006 1347.59 Q966.407 1348.69 964.891 1350.99 Q963.374 1353.28 962.35 1356.44 Q962.145 1357.38 961.243 1357.38 Q960.259 1357.34 960.259 1356.52 Q960.259 1355.83 960.792 1354.39 Q961.366 1352.92 962.513 1351.07 Q963.702 1349.23 965.219 1347.59 Q966.776 1345.91 969.031 1344.76 Q971.326 1343.61 973.786 1343.61 Q974.892 1343.61 975.958 1343.86 Q977.065 1344.06 978.376 1344.68 Q979.729 1345.29 980.918 1346.64 Q982.106 1348 982.844 1349.96 Q983.336 1349.02 983.992 1348.12 Q984.689 1347.22 985.754 1346.11 Q986.861 1344.96 988.378 1344.31 Q989.935 1343.61 991.657 1343.61 Q993.337 1343.61 994.977 1344.06 Q996.617 1344.47 998.01 1345.82 Q999.445 1347.14 999.445 1349.14 Z" fill="#ff0000" fill-rule="evenodd" fill-opacity="1" /><path clip-path="url(#clip220)" d="M1008 1404.9 Q1008 1403.84 1008.09 1403.52 Q1008.2 1403.21 1008.66 1402.72 L1019.94 1390.15 Q1026.11 1383.21 1026.11 1377.16 Q1026.11 1373.22 1024.04 1370.41 Q1022 1367.6 1018.25 1367.6 Q1015.66 1367.6 1013.48 1369.18 Q1011.3 1370.76 1010.3 1373.57 Q1010.47 1373.51 1011.07 1373.51 Q1012.54 1373.51 1013.34 1374.43 Q1014.17 1375.35 1014.17 1376.58 Q1014.17 1378.16 1013.14 1378.93 Q1012.13 1379.68 1011.13 1379.68 Q1010.73 1379.68 1010.18 1379.59 Q1009.67 1379.51 1008.83 1378.7 Q1008 1377.87 1008 1376.41 Q1008 1372.31 1011.1 1369.04 Q1014.23 1365.76 1018.99 1365.76 Q1024.39 1365.76 1027.91 1368.98 Q1031.47 1372.16 1031.47 1377.16 Q1031.47 1378.91 1030.93 1380.51 Q1030.41 1382.09 1029.69 1383.32 Q1029 1384.56 1027.11 1386.54 Q1025.22 1388.52 1023.7 1389.92 Q1022.18 1391.33 1018.76 1394.31 L1012.54 1400.37 L1023.12 1400.37 Q1028.29 1400.37 1028.69 1399.91 Q1029.26 1399.08 1029.98 1394.69 L1031.47 1394.69 L1029.81 1404.9 L1008 1404.9 Z" fill="#ff0000" fill-rule="evenodd" fill-opacity="1" /><path clip-path="url(#clip220)" d="M822.404 1348.5 Q822.404 1350.8 820.969 1352.11 Q819.534 1353.38 817.895 1353.38 Q816.337 1353.38 815.517 1352.48 Q814.698 1351.58 814.698 1350.43 Q814.698 1348.87 815.845 1347.52 Q816.993 1346.17 818.715 1345.88 Q817.034 1344.82 814.534 1344.82 Q812.894 1344.82 811.459 1345.68 Q810.066 1346.54 809.205 1347.64 Q808.385 1348.75 807.647 1350.35 Q806.951 1351.91 806.664 1352.85 Q806.418 1353.75 806.213 1354.73 L803.344 1366.21 Q801.95 1371.66 801.95 1373.59 Q801.95 1375.97 803.098 1377.57 Q804.245 1379.12 806.541 1379.12 Q807.443 1379.12 808.467 1378.88 Q809.492 1378.59 810.804 1377.85 Q812.156 1377.07 813.345 1375.93 Q814.575 1374.74 815.763 1372.73 Q816.952 1370.72 817.731 1368.14 Q817.977 1367.24 818.797 1367.24 Q819.821 1367.24 819.821 1368.06 Q819.821 1368.75 819.247 1370.23 Q818.715 1371.66 817.526 1373.55 Q816.378 1375.39 814.862 1377.07 Q813.345 1378.71 811.091 1379.86 Q808.836 1381.01 806.377 1381.01 Q802.852 1381.01 800.515 1379.12 Q798.179 1377.24 797.318 1374.61 Q797.113 1374.98 796.826 1375.48 Q796.539 1375.97 795.679 1377.07 Q794.859 1378.14 793.916 1378.96 Q792.973 1379.74 791.498 1380.35 Q790.063 1381.01 788.505 1381.01 Q786.538 1381.01 784.775 1380.43 Q783.054 1379.86 781.824 1378.55 Q780.595 1377.24 780.595 1375.43 Q780.595 1373.43 781.947 1372.03 Q783.341 1370.6 785.226 1370.6 Q786.415 1370.6 787.358 1371.29 Q788.342 1371.99 788.342 1373.51 Q788.342 1375.19 787.194 1376.46 Q786.046 1377.73 784.407 1378.06 Q786.087 1379.12 788.587 1379.12 Q791.293 1379.12 793.424 1376.75 Q795.556 1374.37 796.58 1370.39 Q799.122 1360.84 800.105 1356.58 Q801.089 1352.28 801.089 1350.43 Q801.089 1348.71 800.638 1347.52 Q800.187 1346.33 799.409 1345.8 Q798.671 1345.23 797.974 1345.02 Q797.318 1344.82 796.58 1344.82 Q795.351 1344.82 793.957 1345.31 Q792.604 1345.8 790.965 1346.95 Q789.366 1348.05 787.85 1350.35 Q786.333 1352.64 785.308 1355.8 Q785.103 1356.74 784.202 1356.74 Q783.218 1356.7 783.218 1355.88 Q783.218 1355.19 783.751 1353.75 Q784.325 1352.28 785.472 1350.43 Q786.661 1348.59 788.178 1346.95 Q789.735 1345.27 791.99 1344.12 Q794.285 1342.97 796.744 1342.97 Q797.851 1342.97 798.917 1343.22 Q800.023 1343.42 801.335 1344.04 Q802.688 1344.65 803.876 1346 Q805.065 1347.36 805.803 1349.32 Q806.295 1348.38 806.951 1347.48 Q807.647 1346.58 808.713 1345.47 Q809.82 1344.32 811.337 1343.67 Q812.894 1342.97 814.616 1342.97 Q816.296 1342.97 817.936 1343.42 Q819.575 1343.83 820.969 1345.18 Q822.404 1346.5 822.404 1348.5 Z" fill="#ff0000" fill-rule="evenodd" fill-opacity="1" /><path clip-path="url(#clip220)" d="M830.961 1396.34 Q830.961 1394.59 831.965 1393.76 Q832.969 1392.93 834.26 1392.93 Q835.609 1392.93 836.556 1393.82 Q837.531 1394.68 837.531 1396.2 Q837.531 1397.83 836.384 1398.75 Q835.265 1399.67 833.658 1399.44 Q835.064 1401.79 837.646 1402.86 Q840.257 1403.92 842.667 1403.92 Q845.192 1403.92 847.229 1401.74 Q849.295 1399.56 849.295 1394.22 Q849.295 1389.69 847.516 1387.07 Q845.766 1384.46 842.294 1384.46 L839.712 1384.46 Q838.823 1384.46 838.564 1384.38 Q838.306 1384.29 838.306 1383.8 Q838.306 1383.23 839.196 1383.11 Q840.085 1383.11 841.491 1382.94 Q844.905 1382.83 846.713 1379.87 Q848.348 1377.12 848.348 1373.19 Q848.348 1369.6 846.627 1368.11 Q844.934 1366.59 842.725 1366.59 Q840.659 1366.59 838.392 1367.45 Q836.125 1368.31 834.892 1370.23 Q838.536 1370.23 838.536 1373.19 Q838.536 1374.48 837.704 1375.34 Q836.9 1376.17 835.552 1376.17 Q834.26 1376.17 833.4 1375.37 Q832.539 1374.54 832.539 1373.13 Q832.539 1369.77 835.523 1367.45 Q838.536 1365.12 842.954 1365.12 Q847.316 1365.12 850.529 1367.42 Q853.771 1369.72 853.771 1373.24 Q853.771 1376.72 851.476 1379.56 Q849.181 1382.4 845.537 1383.57 Q850.013 1384.46 852.681 1387.5 Q855.349 1390.52 855.349 1394.22 Q855.349 1398.81 851.734 1402.2 Q848.119 1405.55 842.839 1405.55 Q837.962 1405.55 834.461 1402.91 Q830.961 1400.27 830.961 1396.34 Z" fill="#ff0000" fill-rule="evenodd" fill-opacity="1" /></svg>
