<?xml version="1.0" encoding="utf-8"?>
<svg xmlns="http://www.w3.org/2000/svg" xmlns:xlink="http://www.w3.org/1999/xlink" width="400" height="400" viewBox="0 0 1600 1600">
<defs>
  <clipPath id="clip200">
    <rect x="0" y="0" width="1600" height="1600"/>
  </clipPath>
</defs>
<path clip-path="url(#clip200)" d="
M0 1600 L1600 1600 L1600 0 L0 0  Z
  " fill="#ffffff" fill-rule="evenodd" fill-opacity="1"/>
<defs>
  <clipPath id="clip201">
    <rect x="320" y="160" width="1121" height="1121"/>
  </clipPath>
</defs>
<path clip-path="url(#clip200)" d="
M308.654 1336.78 L1552.76 1336.78 L1552.76 47.2441 L308.654 47.2441  Z
  " fill="#ffffff" fill-rule="evenodd" fill-opacity="1"/>
<defs>
  <clipPath id="clip202">
    <rect x="308" y="47" width="1245" height="1291"/>
  </clipPath>
</defs>
<polyline clip-path="url(#clip202)" style="stroke:#000000; stroke-linecap:round; stroke-linejoin:round; stroke-width:2; stroke-opacity:0.1; fill:none" points="
  394.464,1336.78 394.464,47.2441 
  "/>
<polyline clip-path="url(#clip202)" style="stroke:#000000; stroke-linecap:round; stroke-linejoin:round; stroke-width:2; stroke-opacity:0.1; fill:none" points="
  634.501,1336.78 634.501,47.2441 
  "/>
<polyline clip-path="url(#clip202)" style="stroke:#000000; stroke-linecap:round; stroke-linejoin:round; stroke-width:2; stroke-opacity:0.1; fill:none" points="
  874.539,1336.78 874.539,47.2441 
  "/>
<polyline clip-path="url(#clip202)" style="stroke:#000000; stroke-linecap:round; stroke-linejoin:round; stroke-width:2; stroke-opacity:0.1; fill:none" points="
  1114.58,1336.78 1114.58,47.2441 
  "/>
<polyline clip-path="url(#clip202)" style="stroke:#000000; stroke-linecap:round; stroke-linejoin:round; stroke-width:2; stroke-opacity:0.1; fill:none" points="
  1354.61,1336.78 1354.61,47.2441 
  "/>
<polyline clip-path="url(#clip200)" style="stroke:#000000; stroke-linecap:round; stroke-linejoin:round; stroke-width:4; stroke-opacity:1; fill:none" points="
  308.654,1336.78 1552.76,1336.78 
  "/>
<polyline clip-path="url(#clip200)" style="stroke:#000000; stroke-linecap:round; stroke-linejoin:round; stroke-width:4; stroke-opacity:1; fill:none" points="
  394.464,1336.78 394.464,1317.88 
  "/>
<polyline clip-path="url(#clip200)" style="stroke:#000000; stroke-linecap:round; stroke-linejoin:round; stroke-width:4; stroke-opacity:1; fill:none" points="
  634.501,1336.78 634.501,1317.88 
  "/>
<polyline clip-path="url(#clip200)" style="stroke:#000000; stroke-linecap:round; stroke-linejoin:round; stroke-width:4; stroke-opacity:1; fill:none" points="
  874.539,1336.78 874.539,1317.88 
  "/>
<polyline clip-path="url(#clip200)" style="stroke:#000000; stroke-linecap:round; stroke-linejoin:round; stroke-width:4; stroke-opacity:1; fill:none" points="
  1114.58,1336.78 1114.58,1317.88 
  "/>
<polyline clip-path="url(#clip200)" style="stroke:#000000; stroke-linecap:round; stroke-linejoin:round; stroke-width:4; stroke-opacity:1; fill:none" points="
  1354.61,1336.78 1354.61,1317.88 
  "/>
<path clip-path="url(#clip200)" d="M361.739 1367.16 Q356.322 1367.16 353.579 1372.51 Q350.871 1377.82 350.871 1388.51 Q350.871 1399.17 353.579 1404.52 Q356.322 1409.83 361.739 1409.83 Q367.19 1409.83 369.898 1404.52 Q372.641 1399.17 372.641 1388.51 Q372.641 1377.82 369.898 1372.51 Q367.19 1367.16 361.739 1367.16 M361.739 1361.6 Q370.454 1361.6 375.037 1368.51 Q379.655 1375.39 379.655 1388.51 Q379.655 1401.6 375.037 1408.51 Q370.454 1415.39 361.739 1415.39 Q353.023 1415.39 348.405 1408.51 Q343.822 1401.6 343.822 1388.51 Q343.822 1375.39 348.405 1368.51 Q353.023 1361.6 361.739 1361.6 Z" fill="#000000" fill-rule="evenodd" fill-opacity="1" /><path clip-path="url(#clip200)" d="M391.982 1405.56 L399.308 1405.56 L399.308 1414.38 L391.982 1414.38 L391.982 1405.56 Z" fill="#000000" fill-rule="evenodd" fill-opacity="1" /><path clip-path="url(#clip200)" d="M420.627 1408.48 L445.106 1408.48 L445.106 1414.38 L412.19 1414.38 L412.19 1408.48 Q416.183 1404.35 423.058 1397.4 Q429.968 1390.42 431.738 1388.41 Q435.106 1384.62 436.426 1382.02 Q437.78 1379.38 437.78 1376.85 Q437.78 1372.71 434.863 1370.11 Q431.981 1367.51 427.329 1367.51 Q424.03 1367.51 420.35 1368.65 Q416.704 1369.8 412.537 1372.12 L412.537 1365.04 Q416.773 1363.34 420.454 1362.47 Q424.134 1361.6 427.19 1361.6 Q435.245 1361.6 440.037 1365.63 Q444.829 1369.66 444.829 1376.39 Q444.829 1379.59 443.613 1382.47 Q442.433 1385.32 439.273 1389.21 Q438.405 1390.21 433.752 1395.04 Q429.099 1399.83 420.627 1408.48 Z" fill="#000000" fill-rule="evenodd" fill-opacity="1" /><path clip-path="url(#clip200)" d="M601.064 1367.16 Q595.648 1367.16 592.904 1372.51 Q590.196 1377.82 590.196 1388.51 Q590.196 1399.17 592.904 1404.52 Q595.648 1409.83 601.064 1409.83 Q606.516 1409.83 609.224 1404.52 Q611.967 1399.17 611.967 1388.51 Q611.967 1377.82 609.224 1372.51 Q606.516 1367.16 601.064 1367.16 M601.064 1361.6 Q609.779 1361.6 614.363 1368.51 Q618.981 1375.39 618.981 1388.51 Q618.981 1401.6 614.363 1408.51 Q609.779 1415.39 601.064 1415.39 Q592.349 1415.39 587.731 1408.51 Q583.148 1401.6 583.148 1388.51 Q583.148 1375.39 587.731 1368.51 Q592.349 1361.6 601.064 1361.6 Z" fill="#000000" fill-rule="evenodd" fill-opacity="1" /><path clip-path="url(#clip200)" d="M631.307 1405.56 L638.633 1405.56 L638.633 1414.38 L631.307 1414.38 L631.307 1405.56 Z" fill="#000000" fill-rule="evenodd" fill-opacity="1" /><path clip-path="url(#clip200)" d="M675.161 1386.43 Q680.196 1387.5 683.008 1390.91 Q685.855 1394.31 685.855 1399.31 Q685.855 1406.98 680.578 1411.19 Q675.3 1415.39 665.578 1415.39 Q662.314 1415.39 658.842 1414.73 Q655.404 1414.1 651.724 1412.82 L651.724 1406.05 Q654.64 1407.75 658.112 1408.62 Q661.585 1409.48 665.369 1409.48 Q671.967 1409.48 675.404 1406.88 Q678.876 1404.28 678.876 1399.31 Q678.876 1394.73 675.647 1392.16 Q672.453 1389.55 666.724 1389.55 L660.682 1389.55 L660.682 1383.79 L667.001 1383.79 Q672.175 1383.79 674.918 1381.74 Q677.661 1379.66 677.661 1375.77 Q677.661 1371.78 674.814 1369.66 Q672.001 1367.51 666.724 1367.51 Q663.842 1367.51 660.543 1368.13 Q657.244 1368.76 653.286 1370.07 L653.286 1363.82 Q657.279 1362.71 660.751 1362.16 Q664.258 1361.6 667.349 1361.6 Q675.335 1361.6 679.987 1365.25 Q684.64 1368.86 684.64 1375.04 Q684.64 1379.35 682.175 1382.33 Q679.71 1385.28 675.161 1386.43 Z" fill="#000000" fill-rule="evenodd" fill-opacity="1" /><path clip-path="url(#clip200)" d="M840.251 1367.16 Q834.834 1367.16 832.091 1372.51 Q829.383 1377.82 829.383 1388.51 Q829.383 1399.17 832.091 1404.52 Q834.834 1409.83 840.251 1409.83 Q845.702 1409.83 848.41 1404.52 Q851.153 1399.17 851.153 1388.51 Q851.153 1377.82 848.41 1372.51 Q845.702 1367.16 840.251 1367.16 M840.251 1361.6 Q848.966 1361.6 853.549 1368.51 Q858.167 1375.39 858.167 1388.51 Q858.167 1401.6 853.549 1408.51 Q848.966 1415.39 840.251 1415.39 Q831.536 1415.39 826.917 1408.51 Q822.334 1401.6 822.334 1388.51 Q822.334 1375.39 826.917 1368.51 Q831.536 1361.6 840.251 1361.6 Z" fill="#000000" fill-rule="evenodd" fill-opacity="1" /><path clip-path="url(#clip200)" d="M870.494 1405.56 L877.82 1405.56 L877.82 1414.38 L870.494 1414.38 L870.494 1405.56 Z" fill="#000000" fill-rule="evenodd" fill-opacity="1" /><path clip-path="url(#clip200)" d="M912.368 1368.65 L894.66 1396.32 L912.368 1396.32 L912.368 1368.65 M910.528 1362.54 L919.348 1362.54 L919.348 1396.32 L926.743 1396.32 L926.743 1402.16 L919.348 1402.16 L919.348 1414.38 L912.368 1414.38 L912.368 1402.16 L888.966 1402.16 L888.966 1395.39 L910.528 1362.54 Z" fill="#000000" fill-rule="evenodd" fill-opacity="1" /><path clip-path="url(#clip200)" d="M1081.4 1367.16 Q1075.98 1367.16 1073.24 1372.51 Q1070.53 1377.82 1070.53 1388.51 Q1070.53 1399.17 1073.24 1404.52 Q1075.98 1409.83 1081.4 1409.83 Q1086.85 1409.83 1089.56 1404.52 Q1092.3 1399.17 1092.3 1388.51 Q1092.3 1377.82 1089.56 1372.51 Q1086.85 1367.16 1081.4 1367.16 M1081.4 1361.6 Q1090.11 1361.6 1094.7 1368.51 Q1099.32 1375.39 1099.32 1388.51 Q1099.32 1401.6 1094.7 1408.51 Q1090.11 1415.39 1081.4 1415.39 Q1072.68 1415.39 1068.07 1408.51 Q1063.48 1401.6 1063.48 1388.51 Q1063.48 1375.39 1068.07 1368.51 Q1072.68 1361.6 1081.4 1361.6 Z" fill="#000000" fill-rule="evenodd" fill-opacity="1" /><path clip-path="url(#clip200)" d="M1111.64 1405.56 L1118.97 1405.56 L1118.97 1414.38 L1111.64 1414.38 L1111.64 1405.56 Z" fill="#000000" fill-rule="evenodd" fill-opacity="1" /><path clip-path="url(#clip200)" d="M1134.32 1362.54 L1161.85 1362.54 L1161.85 1368.44 L1140.74 1368.44 L1140.74 1381.15 Q1142.27 1380.63 1143.79 1380.39 Q1145.32 1380.11 1146.85 1380.11 Q1155.53 1380.11 1160.6 1384.87 Q1165.67 1389.62 1165.67 1397.75 Q1165.67 1406.12 1160.46 1410.77 Q1155.25 1415.39 1145.77 1415.39 Q1142.51 1415.39 1139.11 1414.83 Q1135.74 1414.28 1132.13 1413.16 L1132.13 1406.12 Q1135.25 1407.82 1138.59 1408.65 Q1141.92 1409.48 1145.63 1409.48 Q1151.64 1409.48 1155.15 1406.32 Q1158.66 1403.16 1158.66 1397.75 Q1158.66 1392.33 1155.15 1389.17 Q1151.64 1386.01 1145.63 1386.01 Q1142.82 1386.01 1140.01 1386.64 Q1137.23 1387.26 1134.32 1388.58 L1134.32 1362.54 Z" fill="#000000" fill-rule="evenodd" fill-opacity="1" /><path clip-path="url(#clip200)" d="M1320.57 1367.16 Q1315.15 1367.16 1312.41 1372.51 Q1309.7 1377.82 1309.7 1388.51 Q1309.7 1399.17 1312.41 1404.52 Q1315.15 1409.83 1320.57 1409.83 Q1326.02 1409.83 1328.73 1404.52 Q1331.47 1399.17 1331.47 1388.51 Q1331.47 1377.82 1328.73 1372.51 Q1326.02 1367.16 1320.57 1367.16 M1320.57 1361.6 Q1329.28 1361.6 1333.87 1368.51 Q1338.48 1375.39 1338.48 1388.51 Q1338.48 1401.6 1333.87 1408.51 Q1329.28 1415.39 1320.57 1415.39 Q1311.85 1415.39 1307.24 1408.51 Q1302.65 1401.6 1302.65 1388.51 Q1302.65 1375.39 1307.24 1368.51 Q1311.85 1361.6 1320.57 1361.6 Z" fill="#000000" fill-rule="evenodd" fill-opacity="1" /><path clip-path="url(#clip200)" d="M1350.81 1405.56 L1358.14 1405.56 L1358.14 1414.38 L1350.81 1414.38 L1350.81 1405.56 Z" fill="#000000" fill-rule="evenodd" fill-opacity="1" /><path clip-path="url(#clip200)" d="M1389.28 1385.66 Q1384.56 1385.66 1381.78 1388.89 Q1379.04 1392.12 1379.04 1397.75 Q1379.04 1403.34 1381.78 1406.6 Q1384.56 1409.83 1389.28 1409.83 Q1394.01 1409.83 1396.75 1406.6 Q1399.53 1403.34 1399.53 1397.75 Q1399.53 1392.12 1396.75 1388.89 Q1394.01 1385.66 1389.28 1385.66 M1403.21 1363.69 L1403.21 1370.07 Q1400.57 1368.82 1397.86 1368.16 Q1395.19 1367.51 1392.55 1367.51 Q1385.6 1367.51 1381.92 1372.19 Q1378.28 1376.88 1377.76 1386.36 Q1379.8 1383.34 1382.89 1381.74 Q1385.98 1380.11 1389.7 1380.11 Q1397.51 1380.11 1402.03 1384.87 Q1406.57 1389.59 1406.57 1397.75 Q1406.57 1405.73 1401.85 1410.56 Q1397.13 1415.39 1389.28 1415.39 Q1380.29 1415.39 1375.53 1408.51 Q1370.78 1401.6 1370.78 1388.51 Q1370.78 1376.22 1376.61 1368.93 Q1382.44 1361.6 1392.27 1361.6 Q1394.91 1361.6 1397.58 1362.12 Q1400.29 1362.64 1403.21 1363.69 Z" fill="#000000" fill-rule="evenodd" fill-opacity="1" /><path clip-path="url(#clip200)" d="M514.637 1450.64 L552.877 1450.64 L552.877 1457.52 L522.819 1457.52 L522.819 1475.43 L551.621 1475.43 L551.621 1482.31 L522.819 1482.31 L522.819 1504.23 L553.606 1504.23 L553.606 1511.12 L514.637 1511.12 L514.637 1450.64 Z" fill="#000000" fill-rule="evenodd" fill-opacity="1" /><path clip-path="url(#clip200)" d="M604.445 1483.73 L604.445 1511.12 L596.991 1511.12 L596.991 1483.97 Q596.991 1477.53 594.48 1474.33 Q591.968 1471.13 586.945 1471.13 Q580.909 1471.13 577.426 1474.98 Q573.942 1478.83 573.942 1485.47 L573.942 1511.12 L566.448 1511.12 L566.448 1465.75 L573.942 1465.75 L573.942 1472.79 Q576.615 1468.7 580.221 1466.68 Q583.867 1464.65 588.606 1464.65 Q596.424 1464.65 600.435 1469.51 Q604.445 1474.33 604.445 1483.73 Z" fill="#000000" fill-rule="evenodd" fill-opacity="1" /><path clip-path="url(#clip200)" d="M649.167 1472.63 L649.167 1448.08 L656.621 1448.08 L656.621 1511.12 L649.167 1511.12 L649.167 1504.31 Q646.818 1508.36 643.212 1510.35 Q639.647 1512.29 634.624 1512.29 Q626.401 1512.29 621.216 1505.73 Q616.071 1499.17 616.071 1488.47 Q616.071 1477.78 621.216 1471.21 Q626.401 1464.65 634.624 1464.65 Q639.647 1464.65 643.212 1466.64 Q646.818 1468.58 649.167 1472.63 M623.768 1488.47 Q623.768 1496.69 627.13 1501.39 Q630.533 1506.05 636.447 1506.05 Q642.362 1506.05 645.764 1501.39 Q649.167 1496.69 649.167 1488.47 Q649.167 1480.25 645.764 1475.59 Q642.362 1470.89 636.447 1470.89 Q630.533 1470.89 627.13 1475.59 Q623.768 1480.25 623.768 1488.47 Z" fill="#000000" fill-rule="evenodd" fill-opacity="1" /><path clip-path="url(#clip200)" d="M706.852 1457.36 L706.852 1480.09 L717.141 1480.09 Q722.853 1480.09 725.972 1477.13 Q729.091 1474.17 729.091 1468.7 Q729.091 1463.27 725.972 1460.32 Q722.853 1457.36 717.141 1457.36 L706.852 1457.36 M698.669 1450.64 L717.141 1450.64 Q727.309 1450.64 732.494 1455.25 Q737.72 1459.83 737.72 1468.7 Q737.72 1477.66 732.494 1482.23 Q727.309 1486.81 717.141 1486.81 L706.852 1486.81 L706.852 1511.12 L698.669 1511.12 L698.669 1450.64 Z" fill="#000000" fill-rule="evenodd" fill-opacity="1" /><path clip-path="url(#clip200)" d="M820.358 1455.29 L820.358 1463.92 Q816.226 1460.07 811.527 1458.17 Q806.869 1456.27 801.603 1456.27 Q791.232 1456.27 785.723 1462.63 Q780.214 1468.95 780.214 1480.94 Q780.214 1492.89 785.723 1499.25 Q791.232 1505.57 801.603 1505.57 Q806.869 1505.57 811.527 1503.66 Q816.226 1501.76 820.358 1497.91 L820.358 1506.46 Q816.064 1509.37 811.244 1510.83 Q806.464 1512.29 801.116 1512.29 Q787.384 1512.29 779.485 1503.91 Q771.585 1495.48 771.585 1480.94 Q771.585 1466.35 779.485 1457.97 Q787.384 1449.54 801.116 1449.54 Q806.545 1449.54 811.325 1451 Q816.145 1452.42 820.358 1455.29 Z" fill="#000000" fill-rule="evenodd" fill-opacity="1" /><path clip-path="url(#clip200)" d="M850.254 1470.97 Q844.259 1470.97 840.775 1475.67 Q837.291 1480.33 837.291 1488.47 Q837.291 1496.61 840.734 1501.31 Q844.218 1505.97 850.254 1505.97 Q856.209 1505.97 859.693 1501.27 Q863.176 1496.57 863.176 1488.47 Q863.176 1480.41 859.693 1475.71 Q856.209 1470.97 850.254 1470.97 M850.254 1464.65 Q859.976 1464.65 865.526 1470.97 Q871.076 1477.29 871.076 1488.47 Q871.076 1499.61 865.526 1505.97 Q859.976 1512.29 850.254 1512.29 Q840.491 1512.29 834.942 1505.97 Q829.432 1499.61 829.432 1488.47 Q829.432 1477.29 834.942 1470.97 Q840.491 1464.65 850.254 1464.65 Z" fill="#000000" fill-rule="evenodd" fill-opacity="1" /><path clip-path="url(#clip200)" d="M921.145 1483.73 L921.145 1511.12 L913.691 1511.12 L913.691 1483.97 Q913.691 1477.53 911.18 1474.33 Q908.668 1471.13 903.645 1471.13 Q897.609 1471.13 894.125 1474.98 Q890.641 1478.83 890.641 1485.47 L890.641 1511.12 L883.147 1511.12 L883.147 1465.75 L890.641 1465.75 L890.641 1472.79 Q893.315 1468.7 896.92 1466.68 Q900.566 1464.65 905.306 1464.65 Q913.124 1464.65 917.134 1469.51 Q921.145 1474.33 921.145 1483.73 Z" fill="#000000" fill-rule="evenodd" fill-opacity="1" /><path clip-path="url(#clip200)" d="M968.662 1467.49 L968.662 1474.46 Q965.502 1472.71 962.302 1471.86 Q959.142 1470.97 955.902 1470.97 Q948.65 1470.97 944.64 1475.59 Q940.63 1480.17 940.63 1488.47 Q940.63 1496.78 944.64 1501.39 Q948.65 1505.97 955.902 1505.97 Q959.142 1505.97 962.302 1505.12 Q965.502 1504.23 968.662 1502.49 L968.662 1509.37 Q965.543 1510.83 962.18 1511.56 Q958.859 1512.29 955.091 1512.29 Q944.843 1512.29 938.807 1505.85 Q932.771 1499.41 932.771 1488.47 Q932.771 1477.37 938.847 1471.01 Q944.964 1464.65 955.577 1464.65 Q959.021 1464.65 962.302 1465.38 Q965.583 1466.07 968.662 1467.49 Z" fill="#000000" fill-rule="evenodd" fill-opacity="1" /><path clip-path="url(#clip200)" d="M1020.43 1486.57 L1020.43 1490.21 L986.162 1490.21 Q986.648 1497.91 990.78 1501.96 Q994.952 1505.97 1002.37 1505.97 Q1006.66 1505.97 1010.67 1504.92 Q1014.72 1503.86 1018.69 1501.76 L1018.69 1508.81 Q1014.68 1510.51 1010.47 1511.4 Q1006.25 1512.29 1001.92 1512.29 Q991.063 1512.29 984.703 1505.97 Q978.384 1499.65 978.384 1488.88 Q978.384 1477.74 984.379 1471.21 Q990.415 1464.65 1000.62 1464.65 Q1009.78 1464.65 1015.09 1470.57 Q1020.43 1476.44 1020.43 1486.57 M1012.98 1484.38 Q1012.9 1478.26 1009.54 1474.62 Q1006.21 1470.97 1000.7 1470.97 Q994.466 1470.97 990.699 1474.5 Q986.972 1478.02 986.405 1484.42 L1012.98 1484.38 Z" fill="#000000" fill-rule="evenodd" fill-opacity="1" /><path clip-path="url(#clip200)" d="M1070.38 1483.73 L1070.38 1511.12 L1062.93 1511.12 L1062.93 1483.97 Q1062.93 1477.53 1060.41 1474.33 Q1057.9 1471.13 1052.88 1471.13 Q1046.84 1471.13 1043.36 1474.98 Q1039.88 1478.83 1039.88 1485.47 L1039.88 1511.12 L1032.38 1511.12 L1032.38 1465.75 L1039.88 1465.75 L1039.88 1472.79 Q1042.55 1468.7 1046.16 1466.68 Q1049.8 1464.65 1054.54 1464.65 Q1062.36 1464.65 1066.37 1469.51 Q1070.38 1474.33 1070.38 1483.73 Z" fill="#000000" fill-rule="evenodd" fill-opacity="1" /><path clip-path="url(#clip200)" d="M1092.62 1452.86 L1092.62 1465.75 L1107.97 1465.75 L1107.97 1471.54 L1092.62 1471.54 L1092.62 1496.17 Q1092.62 1501.72 1094.12 1503.3 Q1095.66 1504.88 1100.32 1504.88 L1107.97 1504.88 L1107.97 1511.12 L1100.32 1511.12 Q1091.69 1511.12 1088.41 1507.92 Q1085.13 1504.67 1085.13 1496.17 L1085.13 1471.54 L1079.66 1471.54 L1079.66 1465.75 L1085.13 1465.75 L1085.13 1452.86 L1092.62 1452.86 Z" fill="#000000" fill-rule="evenodd" fill-opacity="1" /><path clip-path="url(#clip200)" d="M1144.07 1472.71 Q1142.81 1471.98 1141.31 1471.66 Q1139.85 1471.3 1138.07 1471.3 Q1131.75 1471.3 1128.35 1475.43 Q1124.99 1479.52 1124.99 1487.22 L1124.99 1511.12 L1117.49 1511.12 L1117.49 1465.75 L1124.99 1465.75 L1124.99 1472.79 Q1127.34 1468.66 1131.1 1466.68 Q1134.87 1464.65 1140.26 1464.65 Q1141.03 1464.65 1141.96 1464.77 Q1142.89 1464.85 1144.03 1465.06 L1144.07 1472.71 Z" fill="#000000" fill-rule="evenodd" fill-opacity="1" /><path clip-path="url(#clip200)" d="M1172.5 1488.31 Q1163.47 1488.31 1159.99 1490.38 Q1156.5 1492.44 1156.5 1497.42 Q1156.5 1501.39 1159.09 1503.74 Q1161.73 1506.05 1166.22 1506.05 Q1172.42 1506.05 1176.15 1501.68 Q1179.92 1497.26 1179.92 1489.97 L1179.92 1488.31 L1172.5 1488.31 M1187.37 1485.23 L1187.37 1511.12 L1179.92 1511.12 L1179.92 1504.23 Q1177.36 1508.36 1173.56 1510.35 Q1169.75 1512.29 1164.24 1512.29 Q1157.27 1512.29 1153.14 1508.4 Q1149.05 1504.47 1149.05 1497.91 Q1149.05 1490.25 1154.15 1486.36 Q1159.3 1482.48 1169.47 1482.48 L1179.92 1482.48 L1179.92 1481.75 Q1179.92 1476.6 1176.51 1473.81 Q1173.15 1470.97 1167.03 1470.97 Q1163.15 1470.97 1159.46 1471.9 Q1155.77 1472.83 1152.37 1474.7 L1152.37 1467.81 Q1156.46 1466.23 1160.31 1465.46 Q1164.16 1464.65 1167.8 1464.65 Q1177.65 1464.65 1182.51 1469.76 Q1187.37 1474.86 1187.37 1485.23 Z" fill="#000000" fill-rule="evenodd" fill-opacity="1" /><path clip-path="url(#clip200)" d="M1210.1 1452.86 L1210.1 1465.75 L1225.45 1465.75 L1225.45 1471.54 L1210.1 1471.54 L1210.1 1496.17 Q1210.1 1501.72 1211.59 1503.3 Q1213.13 1504.88 1217.79 1504.88 L1225.45 1504.88 L1225.45 1511.12 L1217.79 1511.12 Q1209.16 1511.12 1205.88 1507.92 Q1202.6 1504.67 1202.6 1496.17 L1202.6 1471.54 L1197.13 1471.54 L1197.13 1465.75 L1202.6 1465.75 L1202.6 1452.86 L1210.1 1452.86 Z" fill="#000000" fill-rule="evenodd" fill-opacity="1" /><path clip-path="url(#clip200)" d="M1235.25 1465.75 L1242.71 1465.75 L1242.71 1511.12 L1235.25 1511.12 L1235.25 1465.75 M1235.25 1448.08 L1242.71 1448.08 L1242.71 1457.52 L1235.25 1457.52 L1235.25 1448.08 Z" fill="#000000" fill-rule="evenodd" fill-opacity="1" /><path clip-path="url(#clip200)" d="M1275.88 1470.97 Q1269.89 1470.97 1266.4 1475.67 Q1262.92 1480.33 1262.92 1488.47 Q1262.92 1496.61 1266.36 1501.31 Q1269.85 1505.97 1275.88 1505.97 Q1281.84 1505.97 1285.32 1501.27 Q1288.8 1496.57 1288.8 1488.47 Q1288.8 1480.41 1285.32 1475.71 Q1281.84 1470.97 1275.88 1470.97 M1275.88 1464.65 Q1285.6 1464.65 1291.15 1470.97 Q1296.7 1477.29 1296.7 1488.47 Q1296.7 1499.61 1291.15 1505.97 Q1285.6 1512.29 1275.88 1512.29 Q1266.12 1512.29 1260.57 1505.97 Q1255.06 1499.61 1255.06 1488.47 Q1255.06 1477.29 1260.57 1470.97 Q1266.12 1464.65 1275.88 1464.65 Z" fill="#000000" fill-rule="evenodd" fill-opacity="1" /><path clip-path="url(#clip200)" d="M1346.77 1483.73 L1346.77 1511.12 L1339.32 1511.12 L1339.32 1483.97 Q1339.32 1477.53 1336.81 1474.33 Q1334.3 1471.13 1329.27 1471.13 Q1323.24 1471.13 1319.75 1474.98 Q1316.27 1478.83 1316.27 1485.47 L1316.27 1511.12 L1308.78 1511.12 L1308.78 1465.75 L1316.27 1465.75 L1316.27 1472.79 Q1318.94 1468.7 1322.55 1466.68 Q1326.19 1464.65 1330.93 1464.65 Q1338.75 1464.65 1342.76 1469.51 Q1346.77 1474.33 1346.77 1483.73 Z" fill="#000000" fill-rule="evenodd" fill-opacity="1" /><polyline clip-path="url(#clip202)" style="stroke:#000000; stroke-linecap:round; stroke-linejoin:round; stroke-width:2; stroke-opacity:0.1; fill:none" points="
  308.654,1300.28 1552.76,1300.28 
  "/>
<polyline clip-path="url(#clip202)" style="stroke:#000000; stroke-linecap:round; stroke-linejoin:round; stroke-width:2; stroke-opacity:0.1; fill:none" points="
  308.654,917.723 1552.76,917.723 
  "/>
<polyline clip-path="url(#clip202)" style="stroke:#000000; stroke-linecap:round; stroke-linejoin:round; stroke-width:2; stroke-opacity:0.1; fill:none" points="
  308.654,535.162 1552.76,535.162 
  "/>
<polyline clip-path="url(#clip202)" style="stroke:#000000; stroke-linecap:round; stroke-linejoin:round; stroke-width:2; stroke-opacity:0.1; fill:none" points="
  308.654,152.601 1552.76,152.601 
  "/>
<polyline clip-path="url(#clip200)" style="stroke:#000000; stroke-linecap:round; stroke-linejoin:round; stroke-width:4; stroke-opacity:1; fill:none" points="
  308.654,1336.78 308.654,47.2441 
  "/>
<polyline clip-path="url(#clip200)" style="stroke:#000000; stroke-linecap:round; stroke-linejoin:round; stroke-width:4; stroke-opacity:1; fill:none" points="
  308.654,1300.28 327.552,1300.28 
  "/>
<polyline clip-path="url(#clip200)" style="stroke:#000000; stroke-linecap:round; stroke-linejoin:round; stroke-width:4; stroke-opacity:1; fill:none" points="
  308.654,917.723 327.552,917.723 
  "/>
<polyline clip-path="url(#clip200)" style="stroke:#000000; stroke-linecap:round; stroke-linejoin:round; stroke-width:4; stroke-opacity:1; fill:none" points="
  308.654,535.162 327.552,535.162 
  "/>
<polyline clip-path="url(#clip200)" style="stroke:#000000; stroke-linecap:round; stroke-linejoin:round; stroke-width:4; stroke-opacity:1; fill:none" points="
  308.654,152.601 327.552,152.601 
  "/>
<path clip-path="url(#clip200)" d="M266.737 1278.98 Q261.321 1278.98 258.578 1284.33 Q255.869 1289.64 255.869 1300.34 Q255.869 1311 258.578 1316.34 Q261.321 1321.65 266.737 1321.65 Q272.189 1321.65 274.897 1316.34 Q277.64 1311 277.64 1300.34 Q277.64 1289.64 274.897 1284.33 Q272.189 1278.98 266.737 1278.98 M266.737 1273.43 Q275.453 1273.43 280.036 1280.34 Q284.654 1287.21 284.654 1300.34 Q284.654 1313.43 280.036 1320.34 Q275.453 1327.21 266.737 1327.21 Q258.022 1327.21 253.404 1320.34 Q248.821 1313.43 248.821 1300.34 Q248.821 1287.21 253.404 1280.34 Q258.022 1273.43 266.737 1273.43 Z" fill="#000000" fill-rule="evenodd" fill-opacity="1" /><path clip-path="url(#clip200)" d="M206.564 891.803 L234.099 891.803 L234.099 897.706 L212.988 897.706 L212.988 910.414 Q214.515 909.893 216.043 909.65 Q217.571 909.372 219.099 909.372 Q227.779 909.372 232.849 914.129 Q237.918 918.886 237.918 927.011 Q237.918 935.379 232.71 940.032 Q227.501 944.65 218.022 944.65 Q214.758 944.65 211.356 944.094 Q207.988 943.539 204.377 942.428 L204.377 935.379 Q207.502 937.08 210.835 937.914 Q214.168 938.747 217.883 938.747 Q223.89 938.747 227.397 935.587 Q230.904 932.428 230.904 927.011 Q230.904 921.594 227.397 918.435 Q223.89 915.275 217.883 915.275 Q215.071 915.275 212.258 915.9 Q209.481 916.525 206.564 917.844 L206.564 891.803 Z" fill="#000000" fill-rule="evenodd" fill-opacity="1" /><path clip-path="url(#clip200)" d="M266.737 896.421 Q261.321 896.421 258.578 901.768 Q255.869 907.081 255.869 917.775 Q255.869 928.435 258.578 933.782 Q261.321 939.094 266.737 939.094 Q272.189 939.094 274.897 933.782 Q277.64 928.435 277.64 917.775 Q277.64 907.081 274.897 901.768 Q272.189 896.421 266.737 896.421 M266.737 890.865 Q275.453 890.865 280.036 897.775 Q284.654 904.65 284.654 917.775 Q284.654 930.865 280.036 937.775 Q275.453 944.65 266.737 944.65 Q258.022 944.65 253.404 937.775 Q248.821 930.865 248.821 917.775 Q248.821 904.65 253.404 897.775 Q258.022 890.865 266.737 890.865 Z" fill="#000000" fill-rule="evenodd" fill-opacity="1" /><path clip-path="url(#clip200)" d="M162.467 555.179 L173.925 555.179 L173.925 515.631 L161.46 518.131 L161.46 511.742 L173.856 509.242 L180.87 509.242 L180.87 555.179 L192.328 555.179 L192.328 561.082 L162.467 561.082 L162.467 555.179 Z" fill="#000000" fill-rule="evenodd" fill-opacity="1" /><path clip-path="url(#clip200)" d="M221.495 513.86 Q216.078 513.86 213.335 519.207 Q210.627 524.52 210.627 535.214 Q210.627 545.874 213.335 551.221 Q216.078 556.533 221.495 556.533 Q226.946 556.533 229.654 551.221 Q232.397 545.874 232.397 535.214 Q232.397 524.52 229.654 519.207 Q226.946 513.86 221.495 513.86 M221.495 508.305 Q230.21 508.305 234.793 515.214 Q239.411 522.089 239.411 535.214 Q239.411 548.304 234.793 555.214 Q230.21 562.089 221.495 562.089 Q212.779 562.089 208.161 555.214 Q203.578 548.304 203.578 535.214 Q203.578 522.089 208.161 515.214 Q212.779 508.305 221.495 508.305 Z" fill="#000000" fill-rule="evenodd" fill-opacity="1" /><path clip-path="url(#clip200)" d="M266.737 513.86 Q261.321 513.86 258.578 519.207 Q255.869 524.52 255.869 535.214 Q255.869 545.874 258.578 551.221 Q261.321 556.533 266.737 556.533 Q272.189 556.533 274.897 551.221 Q277.64 545.874 277.64 535.214 Q277.64 524.52 274.897 519.207 Q272.189 513.86 266.737 513.86 M266.737 508.305 Q275.453 508.305 280.036 515.214 Q284.654 522.089 284.654 535.214 Q284.654 548.304 280.036 555.214 Q275.453 562.089 266.737 562.089 Q258.022 562.089 253.404 555.214 Q248.821 548.304 248.821 535.214 Q248.821 522.089 253.404 515.214 Q258.022 508.305 266.737 508.305 Z" fill="#000000" fill-rule="evenodd" fill-opacity="1" /><path clip-path="url(#clip200)" d="M162.467 172.619 L173.925 172.619 L173.925 133.07 L161.46 135.57 L161.46 129.181 L173.856 126.681 L180.87 126.681 L180.87 172.619 L192.328 172.619 L192.328 178.521 L162.467 178.521 L162.467 172.619 Z" fill="#000000" fill-rule="evenodd" fill-opacity="1" /><path clip-path="url(#clip200)" d="M206.564 126.681 L234.099 126.681 L234.099 132.584 L212.988 132.584 L212.988 145.292 Q214.515 144.772 216.043 144.528 Q217.571 144.251 219.099 144.251 Q227.779 144.251 232.849 149.008 Q237.918 153.765 237.918 161.889 Q237.918 170.257 232.71 174.91 Q227.501 179.528 218.022 179.528 Q214.758 179.528 211.356 178.973 Q207.988 178.417 204.377 177.306 L204.377 170.257 Q207.502 171.959 210.835 172.792 Q214.168 173.626 217.883 173.626 Q223.89 173.626 227.397 170.466 Q230.904 167.306 230.904 161.889 Q230.904 156.473 227.397 153.313 Q223.89 150.153 217.883 150.153 Q215.071 150.153 212.258 150.778 Q209.481 151.403 206.564 152.723 L206.564 126.681 Z" fill="#000000" fill-rule="evenodd" fill-opacity="1" /><path clip-path="url(#clip200)" d="M266.737 131.299 Q261.321 131.299 258.578 136.647 Q255.869 141.959 255.869 152.653 Q255.869 163.313 258.578 168.66 Q261.321 173.973 266.737 173.973 Q272.189 173.973 274.897 168.66 Q277.64 163.313 277.64 152.653 Q277.64 141.959 274.897 136.647 Q272.189 131.299 266.737 131.299 M266.737 125.744 Q275.453 125.744 280.036 132.654 Q284.654 139.528 284.654 152.653 Q284.654 165.744 280.036 172.653 Q275.453 179.528 266.737 179.528 Q258.022 179.528 253.404 172.653 Q248.821 165.744 248.821 152.653 Q248.821 139.528 253.404 132.654 Q258.022 125.744 266.737 125.744 Z" fill="#000000" fill-rule="evenodd" fill-opacity="1" /><path clip-path="url(#clip200)" d="M63.4947 763.105 L72.1231 763.105 Q68.2748 767.237 66.3708 771.936 Q64.4669 776.595 64.4669 781.861 Q64.4669 792.231 70.8268 797.741 Q77.1462 803.25 89.1369 803.25 Q101.087 803.25 107.447 797.741 Q113.766 792.231 113.766 781.861 Q113.766 776.595 111.862 771.936 Q109.959 767.237 106.11 763.105 L114.658 763.105 Q117.574 767.399 119.033 772.22 Q120.491 777 120.491 782.347 Q120.491 796.08 112.106 803.979 Q103.68 811.878 89.1369 811.878 Q74.5537 811.878 66.1683 803.979 Q57.7424 796.08 57.7424 782.347 Q57.7424 776.919 59.2007 772.139 Q60.6186 767.318 63.4947 763.105 Z" fill="#000000" fill-rule="evenodd" fill-opacity="1" /><path clip-path="url(#clip200)" d="M79.1717 733.21 Q79.1717 739.205 83.8707 742.689 Q88.5293 746.173 96.6716 746.173 Q104.814 746.173 109.513 742.729 Q114.172 739.246 114.172 733.21 Q114.172 727.255 109.472 723.771 Q104.773 720.287 96.6716 720.287 Q88.6103 720.287 83.9113 723.771 Q79.1717 727.255 79.1717 733.21 M72.8523 733.21 Q72.8523 723.487 79.1717 717.938 Q85.4911 712.388 96.6716 712.388 Q107.812 712.388 114.172 717.938 Q120.491 723.487 120.491 733.21 Q120.491 742.972 114.172 748.522 Q107.812 754.031 96.6716 754.031 Q85.4911 754.031 79.1717 748.522 Q72.8523 742.972 72.8523 733.21 Z" fill="#000000" fill-rule="evenodd" fill-opacity="1" /><path clip-path="url(#clip200)" d="M101.411 700.802 L73.946 700.802 L73.946 693.349 L101.128 693.349 Q107.569 693.349 110.809 690.837 Q114.009 688.326 114.009 683.303 Q114.009 677.267 110.161 673.783 Q106.313 670.259 99.6693 670.259 L73.946 670.259 L73.946 662.805 L119.316 662.805 L119.316 670.259 L112.349 670.259 Q116.481 672.973 118.506 676.578 Q120.491 680.143 120.491 684.882 Q120.491 692.701 115.63 696.752 Q110.769 700.802 101.411 700.802 M72.8523 682.047 L72.8523 682.047 Z" fill="#000000" fill-rule="evenodd" fill-opacity="1" /><path clip-path="url(#clip200)" d="M91.932 609.738 L119.316 609.738 L119.316 617.192 L92.1751 617.192 Q85.7342 617.192 82.5339 619.703 Q79.3337 622.215 79.3337 627.238 Q79.3337 633.274 83.1821 636.758 Q87.0305 640.241 93.6739 640.241 L119.316 640.241 L119.316 647.736 L73.946 647.736 L73.946 640.241 L80.9946 640.241 Q76.9032 637.568 74.8777 633.963 Q72.8523 630.317 72.8523 625.577 Q72.8523 617.759 77.7134 613.748 Q82.5339 609.738 91.932 609.738 Z" fill="#000000" fill-rule="evenodd" fill-opacity="1" /><path clip-path="url(#clip200)" d="M61.0642 587.499 L73.946 587.499 L73.946 572.146 L79.7388 572.146 L79.7388 587.499 L104.368 587.499 Q109.918 587.499 111.498 586 Q113.078 584.46 113.078 579.802 L113.078 572.146 L119.316 572.146 L119.316 579.802 Q119.316 588.43 116.116 591.712 Q112.875 594.993 104.368 594.993 L79.7388 594.993 L79.7388 600.462 L73.946 600.462 L73.946 594.993 L61.0642 594.993 L61.0642 587.499 Z" fill="#000000" fill-rule="evenodd" fill-opacity="1" /><path clip-path="url(#clip202)" d="
M346.457 1292.63 L346.457 1300.28 L351.258 1300.28 L351.258 1292.63 L346.457 1292.63 L346.457 1292.63  Z
  " fill="#009af9" fill-rule="evenodd" fill-opacity="1"/>
<polyline clip-path="url(#clip202)" style="stroke:#000000; stroke-linecap:round; stroke-linejoin:round; stroke-width:4; stroke-opacity:1; fill:none" points="
  346.457,1292.63 346.457,1300.28 351.258,1300.28 351.258,1292.63 346.457,1292.63 
  "/>
<path clip-path="url(#clip202)" d="
M351.258 1292.63 L351.258 1300.28 L356.058 1300.28 L356.058 1292.63 L351.258 1292.63 L351.258 1292.63  Z
  " fill="#009af9" fill-rule="evenodd" fill-opacity="1"/>
<polyline clip-path="url(#clip202)" style="stroke:#000000; stroke-linecap:round; stroke-linejoin:round; stroke-width:4; stroke-opacity:1; fill:none" points="
  351.258,1292.63 351.258,1300.28 356.058,1300.28 356.058,1292.63 351.258,1292.63 
  "/>
<path clip-path="url(#clip202)" d="
M356.058 1223.77 L356.058 1300.28 L360.859 1300.28 L360.859 1223.77 L356.058 1223.77 L356.058 1223.77  Z
  " fill="#009af9" fill-rule="evenodd" fill-opacity="1"/>
<polyline clip-path="url(#clip202)" style="stroke:#000000; stroke-linecap:round; stroke-linejoin:round; stroke-width:4; stroke-opacity:1; fill:none" points="
  356.058,1223.77 356.058,1300.28 360.859,1300.28 360.859,1223.77 356.058,1223.77 
  "/>
<path clip-path="url(#clip202)" d="
M360.859 1086.05 L360.859 1300.28 L365.66 1300.28 L365.66 1086.05 L360.859 1086.05 L360.859 1086.05  Z
  " fill="#009af9" fill-rule="evenodd" fill-opacity="1"/>
<polyline clip-path="url(#clip202)" style="stroke:#000000; stroke-linecap:round; stroke-linejoin:round; stroke-width:4; stroke-opacity:1; fill:none" points="
  360.859,1086.05 360.859,1300.28 365.66,1300.28 365.66,1086.05 360.859,1086.05 
  "/>
<path clip-path="url(#clip202)" d="
M365.66 894.769 L365.66 1300.28 L370.461 1300.28 L370.461 894.769 L365.66 894.769 L365.66 894.769  Z
  " fill="#009af9" fill-rule="evenodd" fill-opacity="1"/>
<polyline clip-path="url(#clip202)" style="stroke:#000000; stroke-linecap:round; stroke-linejoin:round; stroke-width:4; stroke-opacity:1; fill:none" points="
  365.66,894.769 365.66,1300.28 370.461,1300.28 370.461,894.769 365.66,894.769 
  "/>
<path clip-path="url(#clip202)" d="
M370.461 726.442 L370.461 1300.28 L375.261 1300.28 L375.261 726.442 L370.461 726.442 L370.461 726.442  Z
  " fill="#009af9" fill-rule="evenodd" fill-opacity="1"/>
<polyline clip-path="url(#clip202)" style="stroke:#000000; stroke-linecap:round; stroke-linejoin:round; stroke-width:4; stroke-opacity:1; fill:none" points="
  370.461,726.442 370.461,1300.28 375.261,1300.28 375.261,726.442 370.461,726.442 
  "/>
<path clip-path="url(#clip202)" d="
M375.261 343.882 L375.261 1300.28 L380.062 1300.28 L380.062 343.882 L375.261 343.882 L375.261 343.882  Z
  " fill="#009af9" fill-rule="evenodd" fill-opacity="1"/>
<polyline clip-path="url(#clip202)" style="stroke:#000000; stroke-linecap:round; stroke-linejoin:round; stroke-width:4; stroke-opacity:1; fill:none" points="
  375.261,343.882 375.261,1300.28 380.062,1300.28 380.062,343.882 375.261,343.882 
  "/>
<path clip-path="url(#clip202)" d="
M380.062 114.345 L380.062 1300.28 L384.863 1300.28 L384.863 114.345 L380.062 114.345 L380.062 114.345  Z
  " fill="#009af9" fill-rule="evenodd" fill-opacity="1"/>
<polyline clip-path="url(#clip202)" style="stroke:#000000; stroke-linecap:round; stroke-linejoin:round; stroke-width:4; stroke-opacity:1; fill:none" points="
  380.062,114.345 380.062,1300.28 384.863,1300.28 384.863,114.345 380.062,114.345 
  "/>
<path clip-path="url(#clip202)" d="
M384.863 83.7404 L384.863 1300.28 L389.663 1300.28 L389.663 83.7404 L384.863 83.7404 L384.863 83.7404  Z
  " fill="#009af9" fill-rule="evenodd" fill-opacity="1"/>
<polyline clip-path="url(#clip202)" style="stroke:#000000; stroke-linecap:round; stroke-linejoin:round; stroke-width:4; stroke-opacity:1; fill:none" points="
  384.863,83.7404 384.863,1300.28 389.663,1300.28 389.663,83.7404 384.863,83.7404 
  "/>
<path clip-path="url(#clip202)" d="
M389.663 206.16 L389.663 1300.28 L394.464 1300.28 L394.464 206.16 L389.663 206.16 L389.663 206.16  Z
  " fill="#009af9" fill-rule="evenodd" fill-opacity="1"/>
<polyline clip-path="url(#clip202)" style="stroke:#000000; stroke-linecap:round; stroke-linejoin:round; stroke-width:4; stroke-opacity:1; fill:none" points="
  389.663,206.16 389.663,1300.28 394.464,1300.28 394.464,206.16 389.663,206.16 
  "/>
<path clip-path="url(#clip202)" d="
M394.464 588.721 L394.464 1300.28 L399.265 1300.28 L399.265 588.721 L394.464 588.721 L394.464 588.721  Z
  " fill="#009af9" fill-rule="evenodd" fill-opacity="1"/>
<polyline clip-path="url(#clip202)" style="stroke:#000000; stroke-linecap:round; stroke-linejoin:round; stroke-width:4; stroke-opacity:1; fill:none" points="
  394.464,588.721 394.464,1300.28 399.265,1300.28 399.265,588.721 394.464,588.721 
  "/>
<path clip-path="url(#clip202)" d="
M399.265 695.838 L399.265 1300.28 L404.066 1300.28 L404.066 695.838 L399.265 695.838 L399.265 695.838  Z
  " fill="#009af9" fill-rule="evenodd" fill-opacity="1"/>
<polyline clip-path="url(#clip202)" style="stroke:#000000; stroke-linecap:round; stroke-linejoin:round; stroke-width:4; stroke-opacity:1; fill:none" points="
  399.265,695.838 399.265,1300.28 404.066,1300.28 404.066,695.838 399.265,695.838 
  "/>
<path clip-path="url(#clip202)" d="
M404.066 933.025 L404.066 1300.28 L408.866 1300.28 L408.866 933.025 L404.066 933.025 L404.066 933.025  Z
  " fill="#009af9" fill-rule="evenodd" fill-opacity="1"/>
<polyline clip-path="url(#clip202)" style="stroke:#000000; stroke-linecap:round; stroke-linejoin:round; stroke-width:4; stroke-opacity:1; fill:none" points="
  404.066,933.025 404.066,1300.28 408.866,1300.28 408.866,933.025 404.066,933.025 
  "/>
<path clip-path="url(#clip202)" d="
M408.866 1185.52 L408.866 1300.28 L413.667 1300.28 L413.667 1185.52 L408.866 1185.52 L408.866 1185.52  Z
  " fill="#009af9" fill-rule="evenodd" fill-opacity="1"/>
<polyline clip-path="url(#clip202)" style="stroke:#000000; stroke-linecap:round; stroke-linejoin:round; stroke-width:4; stroke-opacity:1; fill:none" points="
  408.866,1185.52 408.866,1300.28 413.667,1300.28 413.667,1185.52 408.866,1185.52 
  "/>
<path clip-path="url(#clip202)" d="
M413.667 1231.42 L413.667 1300.28 L418.468 1300.28 L418.468 1231.42 L413.667 1231.42 L413.667 1231.42  Z
  " fill="#009af9" fill-rule="evenodd" fill-opacity="1"/>
<polyline clip-path="url(#clip202)" style="stroke:#000000; stroke-linecap:round; stroke-linejoin:round; stroke-width:4; stroke-opacity:1; fill:none" points="
  413.667,1231.42 413.667,1300.28 418.468,1300.28 418.468,1231.42 413.667,1231.42 
  "/>
<path clip-path="url(#clip202)" d="
M418.468 1277.33 L418.468 1300.28 L423.269 1300.28 L423.269 1277.33 L418.468 1277.33 L418.468 1277.33  Z
  " fill="#009af9" fill-rule="evenodd" fill-opacity="1"/>
<polyline clip-path="url(#clip202)" style="stroke:#000000; stroke-linecap:round; stroke-linejoin:round; stroke-width:4; stroke-opacity:1; fill:none" points="
  418.468,1277.33 418.468,1300.28 423.269,1300.28 423.269,1277.33 418.468,1277.33 
  "/>
<path clip-path="url(#clip202)" d="
M423.269 1284.98 L423.269 1300.28 L428.069 1300.28 L428.069 1284.98 L423.269 1284.98 L423.269 1284.98  Z
  " fill="#009af9" fill-rule="evenodd" fill-opacity="1"/>
<polyline clip-path="url(#clip202)" style="stroke:#000000; stroke-linecap:round; stroke-linejoin:round; stroke-width:4; stroke-opacity:1; fill:none" points="
  423.269,1284.98 423.269,1300.28 428.069,1300.28 428.069,1284.98 423.269,1284.98 
  "/>
<path clip-path="url(#clip202)" d="
M428.069 1292.63 L428.069 1300.28 L432.87 1300.28 L432.87 1292.63 L428.069 1292.63 L428.069 1292.63  Z
  " fill="#009af9" fill-rule="evenodd" fill-opacity="1"/>
<polyline clip-path="url(#clip202)" style="stroke:#000000; stroke-linecap:round; stroke-linejoin:round; stroke-width:4; stroke-opacity:1; fill:none" points="
  428.069,1292.63 428.069,1300.28 432.87,1300.28 432.87,1292.63 428.069,1292.63 
  "/>
<circle clip-path="url(#clip202)" style="fill:#009af9; stroke:none; fill-opacity:0" cx="348.857" cy="1292.63" r="2"/>
<circle clip-path="url(#clip202)" style="fill:#009af9; stroke:none; fill-opacity:0" cx="353.658" cy="1292.63" r="2"/>
<circle clip-path="url(#clip202)" style="fill:#009af9; stroke:none; fill-opacity:0" cx="358.459" cy="1223.77" r="2"/>
<circle clip-path="url(#clip202)" style="fill:#009af9; stroke:none; fill-opacity:0" cx="363.259" cy="1086.05" r="2"/>
<circle clip-path="url(#clip202)" style="fill:#009af9; stroke:none; fill-opacity:0" cx="368.06" cy="894.769" r="2"/>
<circle clip-path="url(#clip202)" style="fill:#009af9; stroke:none; fill-opacity:0" cx="372.861" cy="726.442" r="2"/>
<circle clip-path="url(#clip202)" style="fill:#009af9; stroke:none; fill-opacity:0" cx="377.662" cy="343.882" r="2"/>
<circle clip-path="url(#clip202)" style="fill:#009af9; stroke:none; fill-opacity:0" cx="382.462" cy="114.345" r="2"/>
<circle clip-path="url(#clip202)" style="fill:#009af9; stroke:none; fill-opacity:0" cx="387.263" cy="83.7404" r="2"/>
<circle clip-path="url(#clip202)" style="fill:#009af9; stroke:none; fill-opacity:0" cx="392.064" cy="206.16" r="2"/>
<circle clip-path="url(#clip202)" style="fill:#009af9; stroke:none; fill-opacity:0" cx="396.865" cy="588.721" r="2"/>
<circle clip-path="url(#clip202)" style="fill:#009af9; stroke:none; fill-opacity:0" cx="401.665" cy="695.838" r="2"/>
<circle clip-path="url(#clip202)" style="fill:#009af9; stroke:none; fill-opacity:0" cx="406.466" cy="933.025" r="2"/>
<circle clip-path="url(#clip202)" style="fill:#009af9; stroke:none; fill-opacity:0" cx="411.267" cy="1185.52" r="2"/>
<circle clip-path="url(#clip202)" style="fill:#009af9; stroke:none; fill-opacity:0" cx="416.068" cy="1231.42" r="2"/>
<circle clip-path="url(#clip202)" style="fill:#009af9; stroke:none; fill-opacity:0" cx="420.868" cy="1277.33" r="2"/>
<circle clip-path="url(#clip202)" style="fill:#009af9; stroke:none; fill-opacity:0" cx="425.669" cy="1284.98" r="2"/>
<circle clip-path="url(#clip202)" style="fill:#009af9; stroke:none; fill-opacity:0" cx="430.47" cy="1292.63" r="2"/>
<polyline clip-path="url(#clip202)" style="stroke:#ff0000; stroke-linecap:round; stroke-linejoin:round; stroke-width:4; stroke-opacity:1; fill:none" stroke-dasharray="2, 4" points="
  1517.55,2626.32 1517.55,-1242.29 
  "/>
<path clip-path="url(#clip200)" d="
M914.235 245.749 L1511.29 245.749 L1511.29 90.2286 L914.235 90.2286  Z
  " fill="#ffffff" fill-rule="evenodd" fill-opacity="1"/>
<polyline clip-path="url(#clip200)" style="stroke:#000000; stroke-linecap:round; stroke-linejoin:round; stroke-width:4; stroke-opacity:1; fill:none" points="
  914.235,245.749 1511.29,245.749 1511.29,90.2286 914.235,90.2286 914.235,245.749 
  "/>
<polyline clip-path="url(#clip200)" style="stroke:#ff0000; stroke-linecap:round; stroke-linejoin:round; stroke-width:6; stroke-opacity:1; fill:none" stroke-dasharray="3, 6" points="
  928.059,167.989 1011,167.989 
  "/>
<path clip-path="url(#clip200)" d="M1066.63 146.062 L1066.63 153.457 Q1063.09 150.159 1059.06 148.527 Q1055.07 146.895 1050.55 146.895 Q1041.66 146.895 1036.94 152.346 Q1032.22 157.763 1032.22 168.041 Q1032.22 178.284 1036.94 183.735 Q1041.66 189.152 1050.55 189.152 Q1055.07 189.152 1059.06 187.52 Q1063.09 185.888 1066.63 182.589 L1066.63 189.916 Q1062.95 192.416 1058.82 193.666 Q1054.72 194.916 1050.13 194.916 Q1038.36 194.916 1031.59 187.728 Q1024.82 180.506 1024.82 168.041 Q1024.82 155.541 1031.59 148.353 Q1038.36 141.131 1050.13 141.131 Q1054.79 141.131 1058.88 142.381 Q1063.02 143.596 1066.63 146.062 Z" fill="#000000" fill-rule="evenodd" fill-opacity="1" /><path clip-path="url(#clip200)" d="M1099.72 160.992 Q1098.64 160.367 1097.36 160.089 Q1096.11 159.777 1094.58 159.777 Q1089.16 159.777 1086.25 163.319 Q1083.36 166.825 1083.36 173.423 L1083.36 193.909 L1076.94 193.909 L1076.94 155.02 L1083.36 155.02 L1083.36 161.062 Q1085.38 157.52 1088.61 155.819 Q1091.84 154.082 1096.45 154.082 Q1097.11 154.082 1097.91 154.187 Q1098.71 154.256 1099.68 154.43 L1099.72 160.992 Z" fill="#000000" fill-rule="evenodd" fill-opacity="1" /><path clip-path="url(#clip200)" d="M1106.42 155.02 L1112.81 155.02 L1112.81 193.909 L1106.42 193.909 L1106.42 155.02 M1106.42 139.881 L1112.81 139.881 L1112.81 147.971 L1106.42 147.971 L1106.42 139.881 Z" fill="#000000" fill-rule="evenodd" fill-opacity="1" /><path clip-path="url(#clip200)" d="M1132.5 143.978 L1132.5 155.02 L1145.65 155.02 L1145.65 159.985 L1132.5 159.985 L1132.5 181.096 Q1132.5 185.853 1133.78 187.207 Q1135.1 188.561 1139.09 188.561 L1145.65 188.561 L1145.65 193.909 L1139.09 193.909 Q1131.7 193.909 1128.88 191.166 Q1126.07 188.388 1126.07 181.096 L1126.07 159.985 L1121.38 159.985 L1121.38 155.02 L1126.07 155.02 L1126.07 143.978 L1132.5 143.978 Z" fill="#000000" fill-rule="evenodd" fill-opacity="1" /><path clip-path="url(#clip200)" d="M1154.06 155.02 L1160.45 155.02 L1160.45 193.909 L1154.06 193.909 L1154.06 155.02 M1154.06 139.881 L1160.45 139.881 L1160.45 147.971 L1154.06 147.971 L1154.06 139.881 Z" fill="#000000" fill-rule="evenodd" fill-opacity="1" /><path clip-path="url(#clip200)" d="M1201.8 156.513 L1201.8 162.485 Q1199.09 160.992 1196.35 160.263 Q1193.64 159.499 1190.86 159.499 Q1184.65 159.499 1181.21 163.457 Q1177.77 167.381 1177.77 174.499 Q1177.77 181.617 1181.21 185.575 Q1184.65 189.499 1190.86 189.499 Q1193.64 189.499 1196.35 188.77 Q1199.09 188.006 1201.8 186.513 L1201.8 192.416 Q1199.13 193.666 1196.24 194.291 Q1193.4 194.916 1190.17 194.916 Q1181.38 194.916 1176.21 189.395 Q1171.04 183.874 1171.04 174.499 Q1171.04 164.985 1176.24 159.534 Q1181.49 154.082 1190.59 154.082 Q1193.54 154.082 1196.35 154.707 Q1199.16 155.298 1201.8 156.513 Z" fill="#000000" fill-rule="evenodd" fill-opacity="1" /><path clip-path="url(#clip200)" d="M1230.58 174.36 Q1222.84 174.36 1219.86 176.131 Q1216.87 177.902 1216.87 182.173 Q1216.87 185.575 1219.09 187.589 Q1221.35 189.568 1225.2 189.568 Q1230.52 189.568 1233.71 185.818 Q1236.94 182.034 1236.94 175.784 L1236.94 174.36 L1230.58 174.36 M1243.33 171.721 L1243.33 193.909 L1236.94 193.909 L1236.94 188.006 Q1234.75 191.548 1231.49 193.249 Q1228.22 194.916 1223.5 194.916 Q1217.53 194.916 1213.99 191.582 Q1210.48 188.214 1210.48 182.589 Q1210.48 176.027 1214.86 172.693 Q1219.27 169.36 1227.98 169.36 L1236.94 169.36 L1236.94 168.735 Q1236.94 164.325 1234.02 161.93 Q1231.14 159.499 1225.9 159.499 Q1222.56 159.499 1219.4 160.298 Q1216.24 161.096 1213.33 162.694 L1213.33 156.791 Q1216.84 155.437 1220.13 154.777 Q1223.43 154.082 1226.56 154.082 Q1234.99 154.082 1239.16 158.457 Q1243.33 162.832 1243.33 171.721 Z" fill="#000000" fill-rule="evenodd" fill-opacity="1" /><path clip-path="url(#clip200)" d="M1256.49 139.881 L1262.88 139.881 L1262.88 193.909 L1256.49 193.909 L1256.49 139.881 Z" fill="#000000" fill-rule="evenodd" fill-opacity="1" /><path clip-path="url(#clip200)" d="M1312.49 193.909 L1292.7 142.069 L1300.03 142.069 L1316.45 185.714 L1332.91 142.069 L1340.2 142.069 L1320.45 193.909 L1312.49 193.909 Z" fill="#000000" fill-rule="evenodd" fill-opacity="1" /><path clip-path="url(#clip200)" d="M1359.65 174.36 Q1351.9 174.36 1348.92 176.131 Q1345.93 177.902 1345.93 182.173 Q1345.93 185.575 1348.15 187.589 Q1350.41 189.568 1354.26 189.568 Q1359.58 189.568 1362.77 185.818 Q1366 182.034 1366 175.784 L1366 174.36 L1359.65 174.36 M1372.39 171.721 L1372.39 193.909 L1366 193.909 L1366 188.006 Q1363.81 191.548 1360.55 193.249 Q1357.29 194.916 1352.56 194.916 Q1346.59 194.916 1343.05 191.582 Q1339.54 188.214 1339.54 182.589 Q1339.54 176.027 1343.92 172.693 Q1348.33 169.36 1357.04 169.36 L1366 169.36 L1366 168.735 Q1366 164.325 1363.08 161.93 Q1360.2 159.499 1354.96 159.499 Q1351.63 159.499 1348.47 160.298 Q1345.31 161.096 1342.39 162.694 L1342.39 156.791 Q1345.9 155.437 1349.2 154.777 Q1352.49 154.082 1355.62 154.082 Q1364.06 154.082 1368.22 158.457 Q1372.39 162.832 1372.39 171.721 Z" fill="#000000" fill-rule="evenodd" fill-opacity="1" /><path clip-path="url(#clip200)" d="M1385.55 139.881 L1391.94 139.881 L1391.94 193.909 L1385.55 193.909 L1385.55 139.881 Z" fill="#000000" fill-rule="evenodd" fill-opacity="1" /><path clip-path="url(#clip200)" d="M1404.65 178.561 L1404.65 155.02 L1411.04 155.02 L1411.04 178.318 Q1411.04 183.839 1413.19 186.617 Q1415.34 189.36 1419.65 189.36 Q1424.82 189.36 1427.81 186.061 Q1430.83 182.763 1430.83 177.068 L1430.83 155.02 L1437.22 155.02 L1437.22 193.909 L1430.83 193.909 L1430.83 187.936 Q1428.5 191.478 1425.41 193.214 Q1422.35 194.916 1418.29 194.916 Q1411.59 194.916 1408.12 190.749 Q1404.65 186.582 1404.65 178.561 M1420.72 154.082 L1420.72 154.082 Z" fill="#000000" fill-rule="evenodd" fill-opacity="1" /><path clip-path="url(#clip200)" d="M1483.64 172.867 L1483.64 175.992 L1454.26 175.992 Q1454.68 182.589 1458.22 186.061 Q1461.8 189.499 1468.15 189.499 Q1471.83 189.499 1475.27 188.596 Q1478.74 187.693 1482.15 185.888 L1482.15 191.929 Q1478.71 193.388 1475.1 194.152 Q1471.49 194.916 1467.77 194.916 Q1458.47 194.916 1453.01 189.499 Q1447.6 184.082 1447.6 174.846 Q1447.6 165.298 1452.74 159.707 Q1457.91 154.082 1466.66 154.082 Q1474.51 154.082 1479.06 159.152 Q1483.64 164.187 1483.64 172.867 M1477.25 170.992 Q1477.18 165.749 1474.3 162.624 Q1471.45 159.499 1466.73 159.499 Q1461.38 159.499 1458.15 162.52 Q1454.96 165.541 1454.47 171.027 L1477.25 170.992 Z" fill="#000000" fill-rule="evenodd" fill-opacity="1" /></svg>
