<?xml version="1.0" encoding="utf-8"?>
<svg xmlns="http://www.w3.org/2000/svg" xmlns:xlink="http://www.w3.org/1999/xlink" width="400" height="400" viewBox="0 0 1600 1600">
<defs>
  <clipPath id="clip990">
    <rect x="0" y="0" width="1600" height="1600"/>
  </clipPath>
</defs>
<path clip-path="url(#clip990)" d="
M0 1600 L1600 1600 L1600 0 L0 0  Z
  " fill="#ffffff" fill-rule="evenodd" fill-opacity="1"/>
<defs>
  <clipPath id="clip991">
    <rect x="320" y="160" width="1121" height="1121"/>
  </clipPath>
</defs>
<defs>
  <clipPath id="clip992">
    <rect x="289" y="47" width="1265" height="1291"/>
  </clipPath>
</defs>
<path clip-path="url(#clip990)" d="
M289.14 1336.78 L1552.76 1336.78 L1552.76 47.2441 L289.14 47.2441  Z
  " fill="#ffffff" fill-rule="evenodd" fill-opacity="1"/>
<polyline clip-path="url(#clip992)" style="stroke:#000000; stroke-linecap:round; stroke-linejoin:round; stroke-width:2; stroke-opacity:0.1; fill:none" points="
  324.903,1336.78 324.903,47.2441 
  "/>
<polyline clip-path="url(#clip992)" style="stroke:#000000; stroke-linecap:round; stroke-linejoin:round; stroke-width:2; stroke-opacity:0.1; fill:none" points="
  563.321,1336.78 563.321,47.2441 
  "/>
<polyline clip-path="url(#clip992)" style="stroke:#000000; stroke-linecap:round; stroke-linejoin:round; stroke-width:2; stroke-opacity:0.1; fill:none" points="
  801.739,1336.78 801.739,47.2441 
  "/>
<polyline clip-path="url(#clip992)" style="stroke:#000000; stroke-linecap:round; stroke-linejoin:round; stroke-width:2; stroke-opacity:0.1; fill:none" points="
  1040.16,1336.78 1040.16,47.2441 
  "/>
<polyline clip-path="url(#clip992)" style="stroke:#000000; stroke-linecap:round; stroke-linejoin:round; stroke-width:2; stroke-opacity:0.1; fill:none" points="
  1278.58,1336.78 1278.58,47.2441 
  "/>
<polyline clip-path="url(#clip992)" style="stroke:#000000; stroke-linecap:round; stroke-linejoin:round; stroke-width:2; stroke-opacity:0.1; fill:none" points="
  1516.99,1336.78 1516.99,47.2441 
  "/>
<polyline clip-path="url(#clip990)" style="stroke:#000000; stroke-linecap:round; stroke-linejoin:round; stroke-width:4; stroke-opacity:1; fill:none" points="
  289.14,1336.78 1552.76,1336.78 
  "/>
<polyline clip-path="url(#clip990)" style="stroke:#000000; stroke-linecap:round; stroke-linejoin:round; stroke-width:4; stroke-opacity:1; fill:none" points="
  324.903,1336.78 324.903,1317.88 
  "/>
<polyline clip-path="url(#clip990)" style="stroke:#000000; stroke-linecap:round; stroke-linejoin:round; stroke-width:4; stroke-opacity:1; fill:none" points="
  563.321,1336.78 563.321,1317.88 
  "/>
<polyline clip-path="url(#clip990)" style="stroke:#000000; stroke-linecap:round; stroke-linejoin:round; stroke-width:4; stroke-opacity:1; fill:none" points="
  801.739,1336.78 801.739,1317.88 
  "/>
<polyline clip-path="url(#clip990)" style="stroke:#000000; stroke-linecap:round; stroke-linejoin:round; stroke-width:4; stroke-opacity:1; fill:none" points="
  1040.16,1336.78 1040.16,1317.88 
  "/>
<polyline clip-path="url(#clip990)" style="stroke:#000000; stroke-linecap:round; stroke-linejoin:round; stroke-width:4; stroke-opacity:1; fill:none" points="
  1278.58,1336.78 1278.58,1317.88 
  "/>
<polyline clip-path="url(#clip990)" style="stroke:#000000; stroke-linecap:round; stroke-linejoin:round; stroke-width:4; stroke-opacity:1; fill:none" points="
  1516.99,1336.78 1516.99,1317.88 
  "/>
<path clip-path="url(#clip990)" d="M290.979 1367.16 Q285.563 1367.16 282.82 1372.51 Q280.111 1377.82 280.111 1388.51 Q280.111 1399.17 282.82 1404.52 Q285.563 1409.83 290.979 1409.83 Q296.431 1409.83 299.139 1404.52 Q301.882 1399.17 301.882 1388.51 Q301.882 1377.82 299.139 1372.51 Q296.431 1367.16 290.979 1367.16 M290.979 1361.6 Q299.695 1361.6 304.278 1368.51 Q308.896 1375.39 308.896 1388.51 Q308.896 1401.6 304.278 1408.51 Q299.695 1415.39 290.979 1415.39 Q282.264 1415.39 277.646 1408.51 Q273.063 1401.6 273.063 1388.51 Q273.063 1375.39 277.646 1368.51 Q282.264 1361.6 290.979 1361.6 Z" fill="#000000" fill-rule="evenodd" fill-opacity="1" /><path clip-path="url(#clip990)" d="M321.222 1405.56 L328.549 1405.56 L328.549 1414.38 L321.222 1414.38 L321.222 1405.56 Z" fill="#000000" fill-rule="evenodd" fill-opacity="1" /><path clip-path="url(#clip990)" d="M358.826 1367.16 Q353.41 1367.16 350.667 1372.51 Q347.958 1377.82 347.958 1388.51 Q347.958 1399.17 350.667 1404.52 Q353.41 1409.83 358.826 1409.83 Q364.278 1409.83 366.986 1404.52 Q369.729 1399.17 369.729 1388.51 Q369.729 1377.82 366.986 1372.51 Q364.278 1367.16 358.826 1367.16 M358.826 1361.6 Q367.542 1361.6 372.125 1368.51 Q376.743 1375.39 376.743 1388.51 Q376.743 1401.6 372.125 1408.51 Q367.542 1415.39 358.826 1415.39 Q350.111 1415.39 345.493 1408.51 Q340.91 1401.6 340.91 1388.51 Q340.91 1375.39 345.493 1368.51 Q350.111 1361.6 358.826 1361.6 Z" fill="#000000" fill-rule="evenodd" fill-opacity="1" /><path clip-path="url(#clip990)" d="M530.144 1367.16 Q524.727 1367.16 521.984 1372.51 Q519.276 1377.82 519.276 1388.51 Q519.276 1399.17 521.984 1404.52 Q524.727 1409.83 530.144 1409.83 Q535.595 1409.83 538.304 1404.52 Q541.047 1399.17 541.047 1388.51 Q541.047 1377.82 538.304 1372.51 Q535.595 1367.16 530.144 1367.16 M530.144 1361.6 Q538.859 1361.6 543.443 1368.51 Q548.061 1375.39 548.061 1388.51 Q548.061 1401.6 543.443 1408.51 Q538.859 1415.39 530.144 1415.39 Q521.429 1415.39 516.811 1408.51 Q512.227 1401.6 512.227 1388.51 Q512.227 1375.39 516.811 1368.51 Q521.429 1361.6 530.144 1361.6 Z" fill="#000000" fill-rule="evenodd" fill-opacity="1" /><path clip-path="url(#clip990)" d="M560.387 1405.56 L567.713 1405.56 L567.713 1414.38 L560.387 1414.38 L560.387 1405.56 Z" fill="#000000" fill-rule="evenodd" fill-opacity="1" /><path clip-path="url(#clip990)" d="M583.06 1362.54 L610.595 1362.54 L610.595 1368.44 L589.484 1368.44 L589.484 1381.15 Q591.012 1380.63 592.54 1380.39 Q594.067 1380.11 595.595 1380.11 Q604.276 1380.11 609.345 1384.87 Q614.414 1389.62 614.414 1397.75 Q614.414 1406.12 609.206 1410.77 Q603.998 1415.39 594.519 1415.39 Q591.255 1415.39 587.852 1414.83 Q584.484 1414.28 580.873 1413.16 L580.873 1406.12 Q583.998 1407.82 587.331 1408.65 Q590.665 1409.48 594.38 1409.48 Q600.387 1409.48 603.894 1406.32 Q607.401 1403.16 607.401 1397.75 Q607.401 1392.33 603.894 1389.17 Q600.387 1386.01 594.38 1386.01 Q591.567 1386.01 588.755 1386.64 Q585.977 1387.26 583.06 1388.58 L583.06 1362.54 Z" fill="#000000" fill-rule="evenodd" fill-opacity="1" /><path clip-path="url(#clip990)" d="M752.468 1408.48 L763.927 1408.48 L763.927 1368.93 L751.461 1371.43 L751.461 1365.04 L763.857 1362.54 L770.871 1362.54 L770.871 1408.48 L782.329 1408.48 L782.329 1414.38 L752.468 1414.38 L752.468 1408.48 Z" fill="#000000" fill-rule="evenodd" fill-opacity="1" /><path clip-path="url(#clip990)" d="M796.496 1405.56 L803.822 1405.56 L803.822 1414.38 L796.496 1414.38 L796.496 1405.56 Z" fill="#000000" fill-rule="evenodd" fill-opacity="1" /><path clip-path="url(#clip990)" d="M834.1 1367.16 Q828.683 1367.16 825.94 1372.51 Q823.232 1377.82 823.232 1388.51 Q823.232 1399.17 825.94 1404.52 Q828.683 1409.83 834.1 1409.83 Q839.551 1409.83 842.26 1404.52 Q845.003 1399.17 845.003 1388.51 Q845.003 1377.82 842.26 1372.51 Q839.551 1367.16 834.1 1367.16 M834.1 1361.6 Q842.815 1361.6 847.398 1368.51 Q852.017 1375.39 852.017 1388.51 Q852.017 1401.6 847.398 1408.51 Q842.815 1415.39 834.1 1415.39 Q825.385 1415.39 820.767 1408.51 Q816.183 1401.6 816.183 1388.51 Q816.183 1375.39 820.767 1368.51 Q825.385 1361.6 834.1 1361.6 Z" fill="#000000" fill-rule="evenodd" fill-opacity="1" /><path clip-path="url(#clip990)" d="M991.633 1408.48 L1003.09 1408.48 L1003.09 1368.93 L990.626 1371.43 L990.626 1365.04 L1003.02 1362.54 L1010.04 1362.54 L1010.04 1408.48 L1021.49 1408.48 L1021.49 1414.38 L991.633 1414.38 L991.633 1408.48 Z" fill="#000000" fill-rule="evenodd" fill-opacity="1" /><path clip-path="url(#clip990)" d="M1035.66 1405.56 L1042.99 1405.56 L1042.99 1414.38 L1035.66 1414.38 L1035.66 1405.56 Z" fill="#000000" fill-rule="evenodd" fill-opacity="1" /><path clip-path="url(#clip990)" d="M1058.33 1362.54 L1085.87 1362.54 L1085.87 1368.44 L1064.76 1368.44 L1064.76 1381.15 Q1066.29 1380.63 1067.81 1380.39 Q1069.34 1380.11 1070.87 1380.11 Q1079.55 1380.11 1084.62 1384.87 Q1089.69 1389.62 1089.69 1397.75 Q1089.69 1406.12 1084.48 1410.77 Q1079.27 1415.39 1069.79 1415.39 Q1066.53 1415.39 1063.13 1414.83 Q1059.76 1414.28 1056.15 1413.16 L1056.15 1406.12 Q1059.27 1407.82 1062.6 1408.65 Q1065.94 1409.48 1069.65 1409.48 Q1075.66 1409.48 1079.17 1406.32 Q1082.67 1403.16 1082.67 1397.75 Q1082.67 1392.33 1079.17 1389.17 Q1075.66 1386.01 1069.65 1386.01 Q1066.84 1386.01 1064.03 1386.64 Q1061.25 1387.26 1058.33 1388.58 L1058.33 1362.54 Z" fill="#000000" fill-rule="evenodd" fill-opacity="1" /><path clip-path="url(#clip990)" d="M1235.43 1408.48 L1259.91 1408.48 L1259.91 1414.38 L1227 1414.38 L1227 1408.48 Q1230.99 1404.35 1237.86 1397.4 Q1244.77 1390.42 1246.54 1388.41 Q1249.91 1384.62 1251.23 1382.02 Q1252.59 1379.38 1252.59 1376.85 Q1252.59 1372.71 1249.67 1370.11 Q1246.79 1367.51 1242.13 1367.51 Q1238.84 1367.51 1235.16 1368.65 Q1231.51 1369.8 1227.34 1372.12 L1227.34 1365.04 Q1231.58 1363.34 1235.26 1362.47 Q1238.94 1361.6 1242 1361.6 Q1250.05 1361.6 1254.84 1365.63 Q1259.63 1369.66 1259.63 1376.39 Q1259.63 1379.59 1258.42 1382.47 Q1257.24 1385.32 1254.08 1389.21 Q1253.21 1390.21 1248.56 1395.04 Q1243.91 1399.83 1235.43 1408.48 Z" fill="#000000" fill-rule="evenodd" fill-opacity="1" /><path clip-path="url(#clip990)" d="M1274.63 1405.56 L1281.96 1405.56 L1281.96 1414.38 L1274.63 1414.38 L1274.63 1405.56 Z" fill="#000000" fill-rule="evenodd" fill-opacity="1" /><path clip-path="url(#clip990)" d="M1312.24 1367.16 Q1306.82 1367.16 1304.08 1372.51 Q1301.37 1377.82 1301.37 1388.51 Q1301.37 1399.17 1304.08 1404.52 Q1306.82 1409.83 1312.24 1409.83 Q1317.69 1409.83 1320.4 1404.52 Q1323.14 1399.17 1323.14 1388.51 Q1323.14 1377.82 1320.4 1372.51 Q1317.69 1367.16 1312.24 1367.16 M1312.24 1361.6 Q1320.95 1361.6 1325.54 1368.51 Q1330.15 1375.39 1330.15 1388.51 Q1330.15 1401.6 1325.54 1408.51 Q1320.95 1415.39 1312.24 1415.39 Q1303.52 1415.39 1298.9 1408.51 Q1294.32 1401.6 1294.32 1388.51 Q1294.32 1375.39 1298.9 1368.51 Q1303.52 1361.6 1312.24 1361.6 Z" fill="#000000" fill-rule="evenodd" fill-opacity="1" /><path clip-path="url(#clip990)" d="M1474.6 1408.48 L1499.08 1408.48 L1499.08 1414.38 L1466.16 1414.38 L1466.16 1408.48 Q1470.15 1404.35 1477.03 1397.4 Q1483.94 1390.42 1485.71 1388.41 Q1489.08 1384.62 1490.4 1382.02 Q1491.75 1379.38 1491.75 1376.85 Q1491.75 1372.71 1488.83 1370.11 Q1485.95 1367.51 1481.3 1367.51 Q1478 1367.51 1474.32 1368.65 Q1470.67 1369.8 1466.51 1372.12 L1466.51 1365.04 Q1470.74 1363.34 1474.42 1362.47 Q1478.1 1361.6 1481.16 1361.6 Q1489.22 1361.6 1494.01 1365.63 Q1498.8 1369.66 1498.8 1376.39 Q1498.8 1379.59 1497.58 1382.47 Q1496.4 1385.32 1493.24 1389.21 Q1492.38 1390.21 1487.72 1395.04 Q1483.07 1399.83 1474.6 1408.48 Z" fill="#000000" fill-rule="evenodd" fill-opacity="1" /><path clip-path="url(#clip990)" d="M1513.8 1405.56 L1521.13 1405.56 L1521.13 1414.38 L1513.8 1414.38 L1513.8 1405.56 Z" fill="#000000" fill-rule="evenodd" fill-opacity="1" /><path clip-path="url(#clip990)" d="M1536.47 1362.54 L1564.01 1362.54 L1564.01 1368.44 L1542.9 1368.44 L1542.9 1381.15 Q1544.42 1380.63 1545.95 1380.39 Q1547.48 1380.11 1549.01 1380.11 Q1557.69 1380.11 1562.76 1384.87 Q1567.83 1389.62 1567.83 1397.75 Q1567.83 1406.12 1562.62 1410.77 Q1557.41 1415.39 1547.93 1415.39 Q1544.67 1415.39 1541.26 1414.83 Q1537.9 1414.28 1534.28 1413.16 L1534.28 1406.12 Q1537.41 1407.82 1540.74 1408.65 Q1544.08 1409.48 1547.79 1409.48 Q1553.8 1409.48 1557.31 1406.32 Q1560.81 1403.16 1560.81 1397.75 Q1560.81 1392.33 1557.31 1389.17 Q1553.8 1386.01 1547.79 1386.01 Q1544.98 1386.01 1542.17 1386.64 Q1539.39 1387.26 1536.47 1388.58 L1536.47 1362.54 Z" fill="#000000" fill-rule="evenodd" fill-opacity="1" /><path clip-path="url(#clip990)" d="M937.982 1435.57 Q937.982 1436.31 937.695 1436.72 Q937.449 1437.09 937.162 1437.17 Q936.875 1437.21 936.137 1437.25 Q930.276 1437.54 925.48 1441.51 Q924.291 1442.54 921.299 1445.73 Q918.348 1448.93 914.413 1453.19 Q910.519 1457.46 908.264 1459.75 L919.086 1485.66 Q919.536 1486.68 919.7 1487.13 Q919.905 1487.54 920.315 1488.08 Q920.766 1488.61 921.094 1488.77 Q921.463 1488.94 922.242 1489.14 Q923.061 1489.31 923.881 1489.35 Q924.742 1489.35 926.3 1489.39 Q926.792 1489.39 926.996 1489.43 Q927.242 1489.43 927.529 1489.67 Q927.816 1489.88 927.816 1490.37 Q927.816 1491.11 927.488 1491.52 Q927.201 1491.89 926.914 1491.93 Q926.669 1491.97 926.218 1491.97 Q925.152 1491.97 921.545 1491.85 Q917.938 1491.72 916.913 1491.72 L906.338 1491.97 Q905.067 1491.97 905.067 1490.95 Q905.067 1490.41 905.149 1490.13 Q905.272 1489.8 905.559 1489.67 Q905.846 1489.51 906.051 1489.47 Q906.256 1489.43 906.748 1489.39 Q908.264 1489.22 909.412 1488.77 Q910.601 1488.28 911.093 1487.79 Q911.625 1487.3 911.625 1486.93 L911.216 1485.74 L902.731 1465.7 L895.148 1473.93 L886.581 1482.99 Q884.327 1485.41 884.327 1486.76 Q884.327 1489.02 887.688 1489.39 Q888.712 1489.47 888.712 1490.29 Q888.712 1491.07 888.385 1491.48 Q888.098 1491.85 887.811 1491.93 Q887.565 1491.97 887.196 1491.97 Q885.679 1491.97 882.482 1491.85 Q879.326 1491.72 877.768 1491.72 Q876.457 1491.72 873.792 1491.85 Q871.128 1491.97 869.898 1491.97 Q869.407 1491.97 869.12 1491.72 Q868.833 1491.48 868.833 1491.23 L868.792 1491.03 Q868.792 1490.45 868.874 1490.13 Q868.997 1489.8 869.325 1489.63 Q869.693 1489.47 869.857 1489.47 Q870.021 1489.43 870.636 1489.39 Q874.12 1489.18 877.072 1487.83 Q880.064 1486.48 882.974 1483.32 Q883.22 1483.12 883.507 1482.87 Q883.835 1482.62 884.081 1482.42 L901.788 1463.36 L891.869 1439.91 Q891.418 1438.85 891.008 1438.4 Q890.598 1437.9 889.327 1437.58 Q888.057 1437.25 885.597 1437.25 Q884.9 1437.25 884.573 1437.21 Q884.245 1437.17 883.958 1436.96 Q883.671 1436.76 883.671 1436.31 Q883.671 1435.53 883.958 1435.16 Q884.286 1434.75 884.532 1434.71 Q884.818 1434.63 885.187 1434.63 Q886.212 1434.63 889.86 1434.75 Q893.508 1434.87 894.574 1434.87 Q896.336 1434.87 899.862 1434.75 Q903.428 1434.63 905.149 1434.63 Q906.42 1434.63 906.42 1435.65 Q906.42 1436.31 906.133 1436.68 Q905.846 1437.04 905.559 1437.13 Q905.272 1437.21 904.739 1437.25 Q903.141 1437.41 901.911 1437.95 Q900.722 1438.44 900.23 1438.93 Q899.78 1439.38 899.78 1439.67 L900.189 1440.77 L907.24 1457.46 L920.848 1442.86 Q922.447 1441.06 922.447 1439.83 Q922.447 1437.62 919.086 1437.25 Q918.061 1437.09 918.061 1436.31 Q918.061 1435.53 918.389 1435.16 Q918.717 1434.75 918.963 1434.71 Q919.249 1434.63 919.659 1434.63 Q921.176 1434.63 924.291 1434.75 Q927.447 1434.87 929.005 1434.87 Q930.317 1434.87 932.981 1434.75 Q935.645 1434.63 936.875 1434.63 Q937.367 1434.63 937.654 1434.87 Q937.941 1435.08 937.941 1435.32 L937.982 1435.57 Z" fill="#000000" fill-rule="evenodd" fill-opacity="1" /><path clip-path="url(#clip990)" d="M964.32 1489.16 Q964.32 1489.96 963.947 1490.16 Q963.574 1490.33 962.541 1490.33 L957.032 1490.33 L952.671 1507.66 Q952.327 1509.18 952.327 1510.47 Q952.327 1511.91 952.757 1512.54 Q953.216 1513.17 954.163 1513.17 Q956.028 1513.17 958.036 1511.48 Q960.074 1509.79 961.795 1505.65 Q962.025 1505.11 962.139 1504.99 Q962.283 1504.85 962.656 1504.85 Q963.373 1504.85 963.373 1505.42 Q963.373 1505.63 962.972 1506.54 Q962.599 1507.46 961.766 1508.81 Q960.963 1510.16 959.901 1511.42 Q958.869 1512.68 957.29 1513.6 Q955.712 1514.49 954.019 1514.49 Q951.638 1514.49 950.117 1512.97 Q948.625 1511.45 948.625 1509.07 Q948.625 1508.29 949.228 1505.83 Q949.83 1503.33 953.101 1490.33 L947.908 1490.33 Q947.191 1490.33 946.904 1490.3 Q946.646 1490.28 946.445 1490.13 Q946.273 1489.96 946.273 1489.62 Q946.273 1489.07 946.502 1488.84 Q946.732 1488.58 947.019 1488.55 Q947.334 1488.5 948.051 1488.5 L953.56 1488.5 L955.856 1479.17 Q956.085 1478.25 956.659 1477.74 Q957.262 1477.19 957.606 1477.13 Q957.95 1477.05 958.209 1477.05 Q958.983 1477.05 959.442 1477.48 Q959.901 1477.88 959.901 1478.63 Q959.901 1479.03 957.491 1488.5 L962.656 1488.5 Q963.316 1488.5 963.574 1488.52 Q963.861 1488.55 964.091 1488.7 Q964.32 1488.84 964.32 1489.16 Z" fill="#000000" fill-rule="evenodd" fill-opacity="1" /><polyline clip-path="url(#clip992)" style="stroke:#000000; stroke-linecap:round; stroke-linejoin:round; stroke-width:2; stroke-opacity:0.1; fill:none" points="
  289.14,1336.78 1552.76,1336.78 
  "/>
<polyline clip-path="url(#clip992)" style="stroke:#000000; stroke-linecap:round; stroke-linejoin:round; stroke-width:2; stroke-opacity:0.1; fill:none" points="
  289.14,1014.4 1552.76,1014.4 
  "/>
<polyline clip-path="url(#clip992)" style="stroke:#000000; stroke-linecap:round; stroke-linejoin:round; stroke-width:2; stroke-opacity:0.1; fill:none" points="
  289.14,692.012 1552.76,692.012 
  "/>
<polyline clip-path="url(#clip992)" style="stroke:#000000; stroke-linecap:round; stroke-linejoin:round; stroke-width:2; stroke-opacity:0.1; fill:none" points="
  289.14,369.628 1552.76,369.628 
  "/>
<polyline clip-path="url(#clip992)" style="stroke:#000000; stroke-linecap:round; stroke-linejoin:round; stroke-width:2; stroke-opacity:0.1; fill:none" points="
  289.14,47.2441 1552.76,47.2441 
  "/>
<polyline clip-path="url(#clip990)" style="stroke:#000000; stroke-linecap:round; stroke-linejoin:round; stroke-width:4; stroke-opacity:1; fill:none" points="
  289.14,1336.78 289.14,47.2441 
  "/>
<polyline clip-path="url(#clip990)" style="stroke:#000000; stroke-linecap:round; stroke-linejoin:round; stroke-width:4; stroke-opacity:1; fill:none" points="
  289.14,1336.78 308.038,1336.78 
  "/>
<polyline clip-path="url(#clip990)" style="stroke:#000000; stroke-linecap:round; stroke-linejoin:round; stroke-width:4; stroke-opacity:1; fill:none" points="
  289.14,1014.4 308.038,1014.4 
  "/>
<polyline clip-path="url(#clip990)" style="stroke:#000000; stroke-linecap:round; stroke-linejoin:round; stroke-width:4; stroke-opacity:1; fill:none" points="
  289.14,692.012 308.038,692.012 
  "/>
<polyline clip-path="url(#clip990)" style="stroke:#000000; stroke-linecap:round; stroke-linejoin:round; stroke-width:4; stroke-opacity:1; fill:none" points="
  289.14,369.628 308.038,369.628 
  "/>
<polyline clip-path="url(#clip990)" style="stroke:#000000; stroke-linecap:round; stroke-linejoin:round; stroke-width:4; stroke-opacity:1; fill:none" points="
  289.14,47.2441 308.038,47.2441 
  "/>
<path clip-path="url(#clip990)" d="M179.377 1315.48 Q173.96 1315.48 171.217 1320.83 Q168.509 1326.14 168.509 1336.83 Q168.509 1347.49 171.217 1352.84 Q173.96 1358.15 179.377 1358.15 Q184.828 1358.15 187.536 1352.84 Q190.279 1347.49 190.279 1336.83 Q190.279 1326.14 187.536 1320.83 Q184.828 1315.48 179.377 1315.48 M179.377 1309.92 Q188.092 1309.92 192.675 1316.83 Q197.293 1323.71 197.293 1336.83 Q197.293 1349.92 192.675 1356.83 Q188.092 1363.71 179.377 1363.71 Q170.661 1363.71 166.043 1356.83 Q161.46 1349.92 161.46 1336.83 Q161.46 1323.71 166.043 1316.83 Q170.661 1309.92 179.377 1309.92 Z" fill="#000000" fill-rule="evenodd" fill-opacity="1" /><path clip-path="url(#clip990)" d="M209.62 1353.88 L216.946 1353.88 L216.946 1362.7 L209.62 1362.7 L209.62 1353.88 Z" fill="#000000" fill-rule="evenodd" fill-opacity="1" /><path clip-path="url(#clip990)" d="M247.224 1315.48 Q241.807 1315.48 239.064 1320.83 Q236.356 1326.14 236.356 1336.83 Q236.356 1347.49 239.064 1352.84 Q241.807 1358.15 247.224 1358.15 Q252.675 1358.15 255.383 1352.84 Q258.126 1347.49 258.126 1336.83 Q258.126 1326.14 255.383 1320.83 Q252.675 1315.48 247.224 1315.48 M247.224 1309.92 Q255.939 1309.92 260.522 1316.83 Q265.14 1323.71 265.14 1336.83 Q265.14 1349.92 260.522 1356.83 Q255.939 1363.71 247.224 1363.71 Q238.508 1363.71 233.89 1356.83 Q229.307 1349.92 229.307 1336.83 Q229.307 1323.71 233.89 1316.83 Q238.508 1309.92 247.224 1309.92 Z" fill="#000000" fill-rule="evenodd" fill-opacity="1" /><path clip-path="url(#clip990)" d="M180.87 993.094 Q175.453 993.094 172.71 998.441 Q170.002 1003.75 170.002 1014.45 Q170.002 1025.11 172.71 1030.45 Q175.453 1035.77 180.87 1035.77 Q186.321 1035.77 189.029 1030.45 Q191.772 1025.11 191.772 1014.45 Q191.772 1003.75 189.029 998.441 Q186.321 993.094 180.87 993.094 M180.87 987.538 Q189.585 987.538 194.168 994.448 Q198.786 1001.32 198.786 1014.45 Q198.786 1027.54 194.168 1034.45 Q189.585 1041.32 180.87 1041.32 Q172.155 1041.32 167.537 1034.45 Q162.953 1027.54 162.953 1014.45 Q162.953 1001.32 167.537 994.448 Q172.155 987.538 180.87 987.538 Z" fill="#000000" fill-rule="evenodd" fill-opacity="1" /><path clip-path="url(#clip990)" d="M211.113 1031.5 L218.439 1031.5 L218.439 1040.32 L211.113 1040.32 L211.113 1031.5 Z" fill="#000000" fill-rule="evenodd" fill-opacity="1" /><path clip-path="url(#clip990)" d="M233.786 988.476 L261.321 988.476 L261.321 994.379 L240.21 994.379 L240.21 1007.09 Q241.738 1006.57 243.265 1006.32 Q244.793 1006.05 246.321 1006.05 Q255.001 1006.05 260.071 1010.8 Q265.14 1015.56 265.14 1023.68 Q265.14 1032.05 259.932 1036.7 Q254.724 1041.32 245.244 1041.32 Q241.981 1041.32 238.578 1040.77 Q235.21 1040.21 231.599 1039.1 L231.599 1032.05 Q234.724 1033.75 238.057 1034.59 Q241.39 1035.42 245.106 1035.42 Q251.112 1035.42 254.619 1032.26 Q258.126 1029.1 258.126 1023.68 Q258.126 1018.27 254.619 1015.11 Q251.112 1011.95 245.106 1011.95 Q242.293 1011.95 239.481 1012.57 Q236.703 1013.2 233.786 1014.52 L233.786 988.476 Z" fill="#000000" fill-rule="evenodd" fill-opacity="1" /><path clip-path="url(#clip990)" d="M165.592 712.029 L177.05 712.029 L177.05 672.481 L164.585 674.981 L164.585 668.592 L176.981 666.092 L183.995 666.092 L183.995 712.029 L195.453 712.029 L195.453 717.932 L165.592 717.932 L165.592 712.029 Z" fill="#000000" fill-rule="evenodd" fill-opacity="1" /><path clip-path="url(#clip990)" d="M209.62 709.113 L216.946 709.113 L216.946 717.932 L209.62 717.932 L209.62 709.113 Z" fill="#000000" fill-rule="evenodd" fill-opacity="1" /><path clip-path="url(#clip990)" d="M247.224 670.71 Q241.807 670.71 239.064 676.057 Q236.356 681.37 236.356 692.064 Q236.356 702.724 239.064 708.071 Q241.807 713.383 247.224 713.383 Q252.675 713.383 255.383 708.071 Q258.126 702.724 258.126 692.064 Q258.126 681.37 255.383 676.057 Q252.675 670.71 247.224 670.71 M247.224 665.154 Q255.939 665.154 260.522 672.064 Q265.14 678.939 265.14 692.064 Q265.14 705.154 260.522 712.064 Q255.939 718.939 247.224 718.939 Q238.508 718.939 233.89 712.064 Q229.307 705.154 229.307 692.064 Q229.307 678.939 233.89 672.064 Q238.508 665.154 247.224 665.154 Z" fill="#000000" fill-rule="evenodd" fill-opacity="1" /><path clip-path="url(#clip990)" d="M167.085 389.645 L178.543 389.645 L178.543 350.097 L166.078 352.597 L166.078 346.208 L178.474 343.708 L185.488 343.708 L185.488 389.645 L196.946 389.645 L196.946 395.548 L167.085 395.548 L167.085 389.645 Z" fill="#000000" fill-rule="evenodd" fill-opacity="1" /><path clip-path="url(#clip990)" d="M211.113 386.729 L218.439 386.729 L218.439 395.548 L211.113 395.548 L211.113 386.729 Z" fill="#000000" fill-rule="evenodd" fill-opacity="1" /><path clip-path="url(#clip990)" d="M233.786 343.708 L261.321 343.708 L261.321 349.611 L240.21 349.611 L240.21 362.319 Q241.738 361.798 243.265 361.555 Q244.793 361.277 246.321 361.277 Q255.001 361.277 260.071 366.034 Q265.14 370.791 265.14 378.916 Q265.14 387.284 259.932 391.937 Q254.724 396.555 245.244 396.555 Q241.981 396.555 238.578 395.999 Q235.21 395.444 231.599 394.333 L231.599 387.284 Q234.724 388.986 238.057 389.819 Q241.39 390.652 245.106 390.652 Q251.112 390.652 254.619 387.493 Q258.126 384.333 258.126 378.916 Q258.126 373.5 254.619 370.34 Q251.112 367.18 245.106 367.18 Q242.293 367.18 239.481 367.805 Q236.703 368.43 233.786 369.75 L233.786 343.708 Z" fill="#000000" fill-rule="evenodd" fill-opacity="1" /><path clip-path="url(#clip990)" d="M170.418 67.2613 L194.897 67.2613 L194.897 73.1641 L161.981 73.1641 L161.981 67.2613 Q165.974 63.1294 172.849 56.185 Q179.759 49.2059 181.529 47.192 Q184.898 43.4073 186.217 40.8032 Q187.571 38.1643 187.571 35.6296 Q187.571 31.4977 184.654 28.8935 Q181.773 26.2893 177.12 26.2893 Q173.821 26.2893 170.141 27.4352 Q166.495 28.581 162.328 30.9074 L162.328 23.8241 Q166.564 22.1227 170.245 21.2547 Q173.925 20.3866 176.981 20.3866 Q185.036 20.3866 189.828 24.4144 Q194.62 28.4421 194.62 35.1782 Q194.62 38.3726 193.404 41.2545 Q192.224 44.1018 189.064 47.9906 Q188.196 48.9976 183.543 53.8239 Q178.891 58.6156 170.418 67.2613 Z" fill="#000000" fill-rule="evenodd" fill-opacity="1" /><path clip-path="url(#clip990)" d="M209.62 64.3447 L216.946 64.3447 L216.946 73.1641 L209.62 73.1641 L209.62 64.3447 Z" fill="#000000" fill-rule="evenodd" fill-opacity="1" /><path clip-path="url(#clip990)" d="M247.224 25.9421 Q241.807 25.9421 239.064 31.2893 Q236.356 36.6018 236.356 47.2962 Q236.356 57.9558 239.064 63.303 Q241.807 68.6155 247.224 68.6155 Q252.675 68.6155 255.383 63.303 Q258.126 57.9558 258.126 47.2962 Q258.126 36.6018 255.383 31.2893 Q252.675 25.9421 247.224 25.9421 M247.224 20.3866 Q255.939 20.3866 260.522 27.2963 Q265.14 34.1712 265.14 47.2962 Q265.14 60.3864 260.522 67.2961 Q255.939 74.171 247.224 74.171 Q238.508 74.171 233.89 67.2961 Q229.307 60.3864 229.307 47.2962 Q229.307 34.1712 233.89 27.2963 Q238.508 20.3866 247.224 20.3866 Z" fill="#000000" fill-rule="evenodd" fill-opacity="1" /><path clip-path="url(#clip990)" d="M65.5607 802.824 L88.2862 802.824 L88.2862 792.535 Q88.2862 786.823 85.3291 783.704 Q82.3719 780.585 76.9032 780.585 Q71.475 780.585 68.5178 783.704 Q65.5607 786.823 65.5607 792.535 L65.5607 802.824 M58.8362 811.007 L58.8362 792.535 Q58.8362 782.367 63.4542 777.182 Q68.0317 771.957 76.9032 771.957 Q85.8557 771.957 90.4332 777.182 Q95.0107 782.367 95.0107 792.535 L95.0107 802.824 L119.316 802.824 L119.316 811.007 L58.8362 811.007 Z" fill="#000000" fill-rule="evenodd" fill-opacity="1" /><path clip-path="url(#clip990)" d="M58.8362 734.607 L58.8362 699.85 L65.7227 699.85 L65.7227 726.424 L83.5467 726.424 L83.5467 702.443 L90.4332 702.443 L90.4332 726.424 L119.316 726.424 L119.316 734.607 L58.8362 734.607 Z" fill="#000000" fill-rule="evenodd" fill-opacity="1" /><path clip-path="url(#clip990)" d="M56.2841 687.212 L56.2841 679.758 L119.316 679.758 L119.316 687.212 L56.2841 687.212 Z" fill="#000000" fill-rule="evenodd" fill-opacity="1" /><path clip-path="url(#clip990)" d="M101.411 664.932 L73.946 664.932 L73.946 657.478 L101.128 657.478 Q107.569 657.478 110.809 654.966 Q114.009 652.455 114.009 647.432 Q114.009 641.396 110.161 637.912 Q106.313 634.388 99.6693 634.388 L73.946 634.388 L73.946 626.934 L119.316 626.934 L119.316 634.388 L112.349 634.388 Q116.481 637.102 118.506 640.707 Q120.491 644.272 120.491 649.012 Q120.491 656.83 115.63 660.881 Q110.769 664.932 101.411 664.932 M72.8523 646.176 L72.8523 646.176 Z" fill="#000000" fill-rule="evenodd" fill-opacity="1" /><path clip-path="url(#clip990)" d="M73.946 573.867 L96.0235 590.274 L119.316 573.017 L119.316 581.807 L101.492 595.013 L119.316 608.219 L119.316 617.009 L95.5779 599.388 L73.946 615.511 L73.946 606.72 L90.1091 594.689 L73.946 582.658 L73.946 573.867 Z" fill="#000000" fill-rule="evenodd" fill-opacity="1" /><polyline clip-path="url(#clip992)" style="stroke:#000000; stroke-linecap:round; stroke-linejoin:round; stroke-width:20; stroke-opacity:1; fill:none" points="
  324.903,1014.4 348.745,1014.4 372.586,1014.4 396.428,1014.4 420.27,1014.39 444.112,1014.39 467.954,1014.35 491.796,1014.25 515.637,1013.97 539.479,1013.31 
  563.321,1011.89 587.163,1009.04 611.005,1003.75 634.846,994.485 658.688,979.252 682.53,955.72 706.372,921.763 730.214,876.326 754.055,820.367 777.897,757.244 
  801.739,692.012 825.581,629.882 849.423,574.734 873.264,528.476 897.106,491.287 920.948,462.261 944.79,440.038 968.632,423.214 992.473,410.545 1016.32,401.018 
  1040.16,393.841 1064,388.417 1087.84,384.299 1111.68,381.155 1135.52,378.74 1159.37,376.876 1183.21,375.426 1207.05,374.293 1230.89,373.402 1254.73,372.697 
  1278.58,372.137 1302.42,371.689 1326.26,371.328 1350.1,371.037 1373.94,370.801 1397.78,370.608 1421.63,370.45 1445.47,370.32 1469.31,370.213 1493.15,370.124 
  1516.99,370.05 
  "/>
<polyline clip-path="url(#clip992)" style="stroke:#44aa99; stroke-linecap:round; stroke-linejoin:round; stroke-width:12; stroke-opacity:1; fill:none" stroke-dasharray="48, 30" points="
  324.903,1336.78 348.745,1304.54 372.586,1272.3 396.428,1240.06 420.27,1207.83 444.112,1175.59 467.954,1143.35 491.796,1111.11 515.637,1078.87 539.479,1046.63 
  563.321,1014.4 587.163,982.158 611.005,949.919 634.846,917.681 658.688,885.442 682.53,853.204 706.372,820.966 730.214,788.727 754.055,756.489 777.897,724.25 
  801.739,692.012 825.581,659.774 849.423,627.535 873.264,595.297 897.106,563.058 920.948,530.82 944.79,498.582 968.632,466.343 992.473,434.105 1016.32,401.866 
  1040.16,369.628 1064,337.39 1087.84,305.151 1111.68,272.913 1135.52,240.674 1159.37,208.436 1183.21,176.198 1207.05,143.959 1230.89,111.721 1254.73,79.4825 
  1278.58,47.2441 1302.42,15.0057 1326.26,-17.2327 1350.1,-49.4711 1373.94,-81.7095 1397.78,-113.948 1421.63,-146.186 1445.47,-178.425 1469.31,-210.663 1493.15,-242.901 
  1516.99,-275.14 
  "/>
<polyline clip-path="url(#clip992)" style="stroke:#117733; stroke-linecap:round; stroke-linejoin:round; stroke-width:12; stroke-opacity:1; fill:none" stroke-dasharray="48, 30" points="
  324.903,1336.78 348.745,1317.44 372.586,1298.09 396.428,1278.75 420.27,1259.41 444.112,1240.06 467.954,1220.72 491.796,1201.38 515.637,1182.04 539.479,1162.69 
  563.321,1143.35 587.163,1124.01 611.005,1104.66 634.846,1085.32 658.688,1065.98 682.53,1046.63 706.372,1027.29 730.214,1007.95 754.055,988.605 777.897,969.262 
  801.739,949.919 825.581,930.576 849.423,911.233 873.264,891.89 897.106,872.547 920.948,853.204 944.79,833.861 968.632,814.518 992.473,795.175 1016.32,775.832 
  1040.16,756.489 1064,737.146 1087.84,717.803 1111.68,698.46 1135.52,679.117 1159.37,659.774 1183.21,640.431 1207.05,621.088 1230.89,601.744 1254.73,582.401 
  1278.58,563.058 1302.42,543.715 1326.26,524.372 1350.1,505.029 1373.94,485.686 1397.78,466.343 1421.63,447 1445.47,427.657 1469.31,408.314 1493.15,388.971 
  1516.99,369.628 
  "/>
<polyline clip-path="url(#clip992)" style="stroke:#ff0000; stroke-linecap:round; stroke-linejoin:round; stroke-width:8; stroke-opacity:1; fill:none" points="
  801.739,1111.11 1278.58,853.204 
  "/>
<polyline clip-path="url(#clip992)" style="stroke:#ff0000; stroke-linecap:round; stroke-linejoin:round; stroke-width:8; stroke-opacity:1; fill:none" points="
  1251.76,854.067 1278.58,853.204 1263.17,875.177 
  "/>
<polyline clip-path="url(#clip992)" style="stroke:#ff0000; stroke-linecap:round; stroke-linejoin:round; stroke-width:8; stroke-opacity:1; fill:none" points="
  1278.58,853.204 801.739,1111.11 
  "/>
<polyline clip-path="url(#clip992)" style="stroke:#ff0000; stroke-linecap:round; stroke-linejoin:round; stroke-width:8; stroke-opacity:1; fill:none" points="
  515.637,1214.27 456.033,1246.51 
  "/>
<polyline clip-path="url(#clip992)" style="stroke:#ff0000; stroke-linecap:round; stroke-linejoin:round; stroke-width:8; stroke-opacity:1; fill:none" points="
  482.852,1245.65 456.033,1246.51 471.434,1224.54 
  "/>
<polyline clip-path="url(#clip992)" style="stroke:#ff0000; stroke-linecap:round; stroke-linejoin:round; stroke-width:8; stroke-opacity:1; fill:none" points="
  456.033,1246.51 515.637,1214.27 
  "/>
<polyline clip-path="url(#clip992)" style="stroke:#ff0000; stroke-linecap:round; stroke-linejoin:round; stroke-width:8; stroke-opacity:1; fill:none" points="
  1516.99,711.355 1457.39,743.593 
  "/>
<polyline clip-path="url(#clip992)" style="stroke:#ff0000; stroke-linecap:round; stroke-linejoin:round; stroke-width:8; stroke-opacity:1; fill:none" points="
  1484.21,742.731 1457.39,743.593 1472.79,721.621 
  "/>
<polyline clip-path="url(#clip992)" style="stroke:#ff0000; stroke-linecap:round; stroke-linejoin:round; stroke-width:8; stroke-opacity:1; fill:none" points="
  1457.39,743.593 1516.99,711.355 
  "/>
<path clip-path="url(#clip990)" d="
M331.261 323.509 L688.624 323.509 L688.624 90.2286 L331.261 90.2286  Z
  " fill="#ffffff" fill-rule="evenodd" fill-opacity="1"/>
<polyline clip-path="url(#clip990)" style="stroke:#000000; stroke-linecap:round; stroke-linejoin:round; stroke-width:4; stroke-opacity:1; fill:none" points="
  331.261,323.509 688.624,323.509 688.624,90.2286 331.261,90.2286 331.261,323.509 
  "/>
<polyline clip-path="url(#clip990)" style="stroke:#44aa99; stroke-linecap:round; stroke-linejoin:round; stroke-width:6; stroke-opacity:1; fill:none" stroke-dasharray="24, 15" points="
  345.301,167.989 429.542,167.989 
  "/>
<path clip-path="url(#clip990)" d="M470.073 171.624 Q470.073 176.683 467.508 181.637 Q464.978 186.556 460.903 189.648 Q456.863 192.739 452.717 192.739 Q448.676 192.739 446.112 189.648 Q443.582 186.521 443.582 181.426 Q443.582 179.635 443.793 178.37 Q444.004 177.105 444.741 174.154 L450.644 150.684 Q451.663 146.293 451.663 146.258 Q451.663 145.836 451.487 145.625 Q451.347 145.379 450.503 145.204 Q449.66 145.028 448.044 145.028 Q447.377 145.028 447.06 144.993 Q446.779 144.958 446.533 144.782 Q446.323 144.571 446.323 144.15 Q446.323 143.552 446.568 143.236 Q446.85 142.885 447.06 142.814 Q447.271 142.744 447.693 142.709 Q448.29 142.674 450.293 142.498 Q452.295 142.287 454.017 142.147 Q455.738 142.006 456.476 142.006 Q456.898 142.006 457.109 142.217 Q457.354 142.393 457.354 142.604 L457.39 142.779 L452.084 164.457 Q456.265 160.135 460.517 160.135 Q464.768 160.135 467.403 163.403 Q470.073 166.67 470.073 171.624 M464.873 168.462 Q464.873 165.124 463.608 163.438 Q462.379 161.716 460.341 161.716 Q458.619 161.716 456.371 163.016 Q454.122 164.316 451.733 167.478 Q451.276 168.076 451.101 168.427 Q450.96 168.778 450.644 169.973 L449.063 176.613 Q447.904 181.145 447.904 183.886 Q447.904 187.61 449.274 189.367 Q450.644 191.123 452.717 191.123 Q454.895 191.123 457.179 189.191 Q459.462 187.259 461.219 183.745 Q462.308 181.426 463.573 176.437 Q464.873 171.413 464.873 168.462 Z" fill="#000000" fill-rule="evenodd" fill-opacity="1" /><path clip-path="url(#clip990)" d="M494.094 181.005 Q494.164 180.126 495.535 180.126 L539.627 180.126 Q541.7 180.126 541.735 180.934 Q541.735 181.813 539.768 181.778 L496.026 181.778 Q494.094 181.813 494.094 181.005 M494.094 166.951 Q494.094 166.073 495.605 166.108 L539.557 166.108 Q541.7 166.108 541.735 166.951 Q541.735 167.759 539.908 167.759 L495.535 167.759 Q494.094 167.759 494.094 166.951 Z" fill="#000000" fill-rule="evenodd" fill-opacity="1" /><path clip-path="url(#clip990)" d="M569.485 150.86 L569.485 148.612 Q578.128 148.612 582.59 144.009 Q583.819 144.009 584.03 144.29 Q584.241 144.571 584.241 145.871 L584.241 186.24 Q584.241 188.383 585.295 189.05 Q586.349 189.718 590.951 189.718 L593.235 189.718 L593.235 191.931 Q590.705 191.721 581.571 191.721 Q572.436 191.721 569.941 191.931 L569.941 189.718 L572.225 189.718 Q576.757 189.718 577.846 189.086 Q578.936 188.418 578.936 186.24 L578.936 148.963 Q575.176 150.86 569.485 150.86 Z" fill="#000000" fill-rule="evenodd" fill-opacity="1" /><path clip-path="url(#clip990)" d="M598.871 190.772 Q597.782 189.613 597.782 188.102 Q597.782 186.591 598.871 185.502 Q599.96 184.378 601.611 184.378 Q603.192 184.378 604.246 185.432 Q605.335 186.45 605.335 188.137 Q605.335 189.788 604.176 190.877 Q603.052 191.931 601.611 191.931 Q599.96 191.931 598.871 190.772 Z" fill="#000000" fill-rule="evenodd" fill-opacity="1" /><path clip-path="url(#clip990)" d="M617.58 168.919 Q617.58 158.344 620.25 152.582 Q623.974 144.009 632.758 144.009 Q634.62 144.009 636.552 144.536 Q638.52 145.028 640.979 146.96 Q643.473 148.893 644.984 152.055 Q647.865 158.168 647.865 168.919 Q647.865 179.424 645.195 185.151 Q641.295 193.512 632.687 193.512 Q629.455 193.512 626.153 191.861 Q622.885 190.21 620.812 186.24 Q617.58 180.302 617.58 168.919 M623.553 168.04 Q623.553 178.897 624.326 183.218 Q625.204 187.891 627.593 189.929 Q630.017 191.931 632.687 191.931 Q635.568 191.931 637.957 189.788 Q640.382 187.61 641.119 182.937 Q641.928 178.335 641.892 168.04 Q641.892 158.027 641.19 154.022 Q640.241 149.349 637.712 147.487 Q635.217 145.59 632.687 145.59 Q631.739 145.59 630.72 145.871 Q629.736 146.152 628.296 146.96 Q626.855 147.768 625.731 149.771 Q624.642 151.774 624.115 154.795 Q623.553 158.695 623.553 168.04 Z" fill="#000000" fill-rule="evenodd" fill-opacity="1" /><polyline clip-path="url(#clip990)" style="stroke:#117733; stroke-linecap:round; stroke-linejoin:round; stroke-width:6; stroke-opacity:1; fill:none" stroke-dasharray="24, 15" points="
  345.301,245.749 429.542,245.749 
  "/>
<path clip-path="url(#clip990)" d="M470.073 249.384 Q470.073 254.443 467.508 259.397 Q464.978 264.316 460.903 267.408 Q456.863 270.499 452.717 270.499 Q448.676 270.499 446.112 267.408 Q443.582 264.281 443.582 259.186 Q443.582 257.395 443.793 256.13 Q444.004 254.865 444.741 251.914 L450.644 228.444 Q451.663 224.053 451.663 224.018 Q451.663 223.596 451.487 223.385 Q451.347 223.139 450.503 222.964 Q449.66 222.788 448.044 222.788 Q447.377 222.788 447.06 222.753 Q446.779 222.718 446.533 222.542 Q446.323 222.331 446.323 221.91 Q446.323 221.312 446.568 220.996 Q446.85 220.645 447.06 220.574 Q447.271 220.504 447.693 220.469 Q448.29 220.434 450.293 220.258 Q452.295 220.047 454.017 219.907 Q455.738 219.766 456.476 219.766 Q456.898 219.766 457.109 219.977 Q457.354 220.153 457.354 220.364 L457.39 220.539 L452.084 242.217 Q456.265 237.895 460.517 237.895 Q464.768 237.895 467.403 241.163 Q470.073 244.43 470.073 249.384 M464.873 246.222 Q464.873 242.884 463.608 241.198 Q462.379 239.476 460.341 239.476 Q458.619 239.476 456.371 240.776 Q454.122 242.076 451.733 245.238 Q451.276 245.836 451.101 246.187 Q450.96 246.538 450.644 247.733 L449.063 254.373 Q447.904 258.905 447.904 261.646 Q447.904 265.37 449.274 267.127 Q450.644 268.883 452.717 268.883 Q454.895 268.883 457.179 266.951 Q459.462 265.019 461.219 261.505 Q462.308 259.186 463.573 254.197 Q464.873 249.173 464.873 246.222 Z" fill="#000000" fill-rule="evenodd" fill-opacity="1" /><path clip-path="url(#clip990)" d="M494.094 258.765 Q494.164 257.886 495.535 257.886 L539.627 257.886 Q541.7 257.886 541.735 258.694 Q541.735 259.573 539.768 259.538 L496.026 259.538 Q494.094 259.573 494.094 258.765 M494.094 244.711 Q494.094 243.833 495.605 243.868 L539.557 243.868 Q541.7 243.868 541.735 244.711 Q541.735 245.519 539.908 245.519 L495.535 245.519 Q494.094 245.519 494.094 244.711 Z" fill="#000000" fill-rule="evenodd" fill-opacity="1" /><path clip-path="url(#clip990)" d="M569.485 246.679 Q569.485 236.104 572.155 230.342 Q575.879 221.769 584.662 221.769 Q586.524 221.769 588.457 222.296 Q590.424 222.788 592.884 224.72 Q595.378 226.653 596.889 229.815 Q599.77 235.928 599.77 246.679 Q599.77 257.184 597.1 262.911 Q593.2 271.272 584.592 271.272 Q581.36 271.272 578.057 269.621 Q574.79 267.97 572.717 264 Q569.485 258.062 569.485 246.679 M575.457 245.8 Q575.457 256.657 576.23 260.978 Q577.109 265.651 579.498 267.689 Q581.922 269.691 584.592 269.691 Q587.473 269.691 589.862 267.548 Q592.286 265.37 593.024 260.697 Q593.832 256.095 593.797 245.8 Q593.797 235.787 593.094 231.782 Q592.146 227.109 589.616 225.247 Q587.122 223.35 584.592 223.35 Q583.644 223.35 582.625 223.631 Q581.641 223.912 580.2 224.72 Q578.76 225.528 577.636 227.531 Q576.547 229.534 576.02 232.555 Q575.457 236.455 575.457 245.8 Z" fill="#000000" fill-rule="evenodd" fill-opacity="1" /><path clip-path="url(#clip990)" d="M606.204 268.532 Q605.115 267.373 605.115 265.862 Q605.115 264.351 606.204 263.262 Q607.293 262.138 608.944 262.138 Q610.525 262.138 611.579 263.192 Q612.669 264.21 612.669 265.897 Q612.669 267.548 611.509 268.637 Q610.385 269.691 608.944 269.691 Q607.293 269.691 606.204 268.532 Z" fill="#000000" fill-rule="evenodd" fill-opacity="1" /><path clip-path="url(#clip990)" d="M624.913 246.96 Q624.913 235.647 630.675 228.725 Q636.437 221.769 643.85 221.769 Q648.172 221.769 650.561 223.982 Q652.985 226.161 652.985 229.534 Q652.985 231.396 651.896 232.204 Q650.807 233.012 649.683 233.012 Q648.383 233.012 647.364 232.133 Q646.345 231.255 646.345 229.674 Q646.345 226.442 650.315 226.442 Q648.453 223.561 643.991 223.561 Q642.621 223.561 641.215 223.982 Q639.81 224.369 637.983 225.704 Q636.156 227.039 634.751 229.147 Q633.345 231.255 632.362 235.225 Q631.378 239.195 631.378 244.36 L631.378 246.082 Q634.329 238.949 640.372 238.985 Q646.415 238.985 650.596 243.587 Q654.777 248.19 654.777 255.005 Q654.777 261.997 650.42 266.635 Q646.064 271.272 639.95 271.272 Q637.21 271.272 634.716 270.113 Q632.256 268.989 629.937 266.389 Q627.654 263.789 626.283 258.8 Q624.913 253.811 624.913 246.96 M631.518 253.424 Q631.518 260.486 632.818 263.859 Q633.029 264.421 633.486 265.194 Q633.978 265.967 634.786 266.986 Q635.629 267.97 636.999 268.637 Q638.369 269.27 639.95 269.27 Q644.764 269.27 647.083 264.597 Q648.312 261.997 648.312 254.935 Q648.312 247.733 647.012 245.098 Q644.799 240.636 640.302 240.636 Q637.28 240.636 635.172 242.709 Q633.099 244.782 632.291 247.557 Q631.518 250.333 631.518 253.424 Z" fill="#000000" fill-rule="evenodd" fill-opacity="1" /></svg>
