<?xml version="1.0" encoding="utf-8"?>
<svg xmlns="http://www.w3.org/2000/svg" xmlns:xlink="http://www.w3.org/1999/xlink" width="600" height="400" viewBox="0 0 2400 1600">
<defs>
  <clipPath id="clip050">
    <rect x="0" y="0" width="2400" height="1600"/>
  </clipPath>
</defs>
<path clip-path="url(#clip050)" d="
M0 1600 L2400 1600 L2400 0 L0 0  Z
  " fill="#ffffff" fill-rule="evenodd" fill-opacity="1"/>
<defs>
  <clipPath id="clip051">
    <rect x="480" y="0" width="1681" height="1600"/>
  </clipPath>
</defs>
<path clip-path="url(#clip050)" d="
M278.293 1443.25 L2352.76 1443.25 L2352.76 47.2441 L278.293 47.2441  Z
  " fill="#ffffff" fill-rule="evenodd" fill-opacity="1"/>
<defs>
  <clipPath id="clip052">
    <rect x="278" y="47" width="2075" height="1397"/>
  </clipPath>
</defs>
<polyline clip-path="url(#clip050)" style="stroke:#000000; stroke-linecap:round; stroke-linejoin:round; stroke-width:4; stroke-opacity:1; fill:none" points="
  278.293,1443.25 2352.76,1443.25 
  "/>
<polyline clip-path="url(#clip050)" style="stroke:#000000; stroke-linecap:round; stroke-linejoin:round; stroke-width:4; stroke-opacity:1; fill:none" points="
  352.256,1443.25 352.256,1424.35 
  "/>
<polyline clip-path="url(#clip050)" style="stroke:#000000; stroke-linecap:round; stroke-linejoin:round; stroke-width:4; stroke-opacity:1; fill:none" points="
  753.618,1443.25 753.618,1424.35 
  "/>
<polyline clip-path="url(#clip050)" style="stroke:#000000; stroke-linecap:round; stroke-linejoin:round; stroke-width:4; stroke-opacity:1; fill:none" points="
  1154.98,1443.25 1154.98,1424.35 
  "/>
<polyline clip-path="url(#clip050)" style="stroke:#000000; stroke-linecap:round; stroke-linejoin:round; stroke-width:4; stroke-opacity:1; fill:none" points="
  1556.34,1443.25 1556.34,1424.35 
  "/>
<polyline clip-path="url(#clip050)" style="stroke:#000000; stroke-linecap:round; stroke-linejoin:round; stroke-width:4; stroke-opacity:1; fill:none" points="
  1957.7,1443.25 1957.7,1424.35 
  "/>
<path clip-path="url(#clip050)" d="M233.507 1488.81 Q225.382 1488.81 221.267 1496.84 Q217.205 1504.8 217.205 1520.85 Q217.205 1536.84 221.267 1544.86 Q225.382 1552.82 233.507 1552.82 Q241.684 1552.82 245.746 1544.86 Q249.861 1536.84 249.861 1520.85 Q249.861 1504.8 245.746 1496.84 Q241.684 1488.81 233.507 1488.81 M233.507 1480.48 Q246.58 1480.48 253.455 1490.85 Q260.382 1501.16 260.382 1520.85 Q260.382 1540.48 253.455 1550.85 Q246.58 1561.16 233.507 1561.16 Q220.434 1561.16 213.507 1550.85 Q206.632 1540.48 206.632 1520.85 Q206.632 1501.16 213.507 1490.85 Q220.434 1480.48 233.507 1480.48 Z" fill="#000000" fill-rule="evenodd" fill-opacity="1" /><path clip-path="url(#clip050)" d="M278.871 1546.42 L289.861 1546.42 L289.861 1559.65 L278.871 1559.65 L278.871 1546.42 Z" fill="#000000" fill-rule="evenodd" fill-opacity="1" /><path clip-path="url(#clip050)" d="M335.277 1488.81 Q327.152 1488.81 323.038 1496.84 Q318.975 1504.8 318.975 1520.85 Q318.975 1536.84 323.038 1544.86 Q327.152 1552.82 335.277 1552.82 Q343.454 1552.82 347.517 1544.86 Q351.631 1536.84 351.631 1520.85 Q351.631 1504.8 347.517 1496.84 Q343.454 1488.81 335.277 1488.81 M335.277 1480.48 Q348.35 1480.48 355.225 1490.85 Q362.152 1501.16 362.152 1520.85 Q362.152 1540.48 355.225 1550.85 Q348.35 1561.16 335.277 1561.16 Q322.204 1561.16 315.277 1550.85 Q308.402 1540.48 308.402 1520.85 Q308.402 1501.16 315.277 1490.85 Q322.204 1480.48 335.277 1480.48 Z" fill="#000000" fill-rule="evenodd" fill-opacity="1" /><path clip-path="url(#clip050)" d="M389.704 1550.79 L426.422 1550.79 L426.422 1559.65 L377.048 1559.65 L377.048 1550.79 Q383.037 1544.6 393.35 1534.18 Q403.714 1523.71 406.37 1520.69 Q411.422 1515.01 413.402 1511.11 Q415.433 1507.15 415.433 1503.35 Q415.433 1497.15 411.058 1493.24 Q406.735 1489.34 399.756 1489.34 Q394.808 1489.34 389.287 1491.05 Q383.818 1492.77 377.569 1496.26 L377.569 1485.64 Q383.923 1483.09 389.443 1481.78 Q394.964 1480.48 399.548 1480.48 Q411.631 1480.48 418.818 1486.52 Q426.006 1492.56 426.006 1502.67 Q426.006 1507.46 424.183 1511.78 Q422.412 1516.05 417.672 1521.89 Q416.37 1523.4 409.391 1530.64 Q402.412 1537.83 389.704 1550.79 Z" fill="#000000" fill-rule="evenodd" fill-opacity="1" /><path clip-path="url(#clip050)" d="M471.006 1488.81 Q462.881 1488.81 458.766 1496.84 Q454.704 1504.8 454.704 1520.85 Q454.704 1536.84 458.766 1544.86 Q462.881 1552.82 471.006 1552.82 Q479.183 1552.82 483.245 1544.86 Q487.36 1536.84 487.36 1520.85 Q487.36 1504.8 483.245 1496.84 Q479.183 1488.81 471.006 1488.81 M471.006 1480.48 Q484.078 1480.48 490.953 1490.85 Q497.88 1501.16 497.88 1520.85 Q497.88 1540.48 490.953 1550.85 Q484.078 1561.16 471.006 1561.16 Q457.933 1561.16 451.006 1550.85 Q444.131 1540.48 444.131 1520.85 Q444.131 1501.16 451.006 1490.85 Q457.933 1480.48 471.006 1480.48 Z" fill="#000000" fill-rule="evenodd" fill-opacity="1" /><path clip-path="url(#clip050)" d="M635.988 1488.81 Q627.863 1488.81 623.749 1496.84 Q619.686 1504.8 619.686 1520.85 Q619.686 1536.84 623.749 1544.86 Q627.863 1552.82 635.988 1552.82 Q644.165 1552.82 648.228 1544.86 Q652.342 1536.84 652.342 1520.85 Q652.342 1504.8 648.228 1496.84 Q644.165 1488.81 635.988 1488.81 M635.988 1480.48 Q649.061 1480.48 655.936 1490.85 Q662.863 1501.16 662.863 1520.85 Q662.863 1540.48 655.936 1550.85 Q649.061 1561.16 635.988 1561.16 Q622.916 1561.16 615.989 1550.85 Q609.114 1540.48 609.114 1520.85 Q609.114 1501.16 615.989 1490.85 Q622.916 1480.48 635.988 1480.48 Z" fill="#000000" fill-rule="evenodd" fill-opacity="1" /><path clip-path="url(#clip050)" d="M681.353 1546.42 L692.342 1546.42 L692.342 1559.65 L681.353 1559.65 L681.353 1546.42 Z" fill="#000000" fill-rule="evenodd" fill-opacity="1" /><path clip-path="url(#clip050)" d="M737.759 1488.81 Q729.634 1488.81 725.519 1496.84 Q721.457 1504.8 721.457 1520.85 Q721.457 1536.84 725.519 1544.86 Q729.634 1552.82 737.759 1552.82 Q745.936 1552.82 749.998 1544.86 Q754.113 1536.84 754.113 1520.85 Q754.113 1504.8 749.998 1496.84 Q745.936 1488.81 737.759 1488.81 M737.759 1480.48 Q750.832 1480.48 757.706 1490.85 Q764.634 1501.16 764.634 1520.85 Q764.634 1540.48 757.706 1550.85 Q750.832 1561.16 737.759 1561.16 Q724.686 1561.16 717.759 1550.85 Q710.884 1540.48 710.884 1520.85 Q710.884 1501.16 717.759 1490.85 Q724.686 1480.48 737.759 1480.48 Z" fill="#000000" fill-rule="evenodd" fill-opacity="1" /><path clip-path="url(#clip050)" d="M792.185 1550.79 L828.904 1550.79 L828.904 1559.65 L779.529 1559.65 L779.529 1550.79 Q785.519 1544.6 795.831 1534.18 Q806.196 1523.71 808.852 1520.69 Q813.904 1515.01 815.883 1511.11 Q817.915 1507.15 817.915 1503.35 Q817.915 1497.15 813.54 1493.24 Q809.217 1489.34 802.238 1489.34 Q797.29 1489.34 791.769 1491.05 Q786.3 1492.77 780.05 1496.26 L780.05 1485.64 Q786.404 1483.09 791.925 1481.78 Q797.446 1480.48 802.029 1480.48 Q814.112 1480.48 821.3 1486.52 Q828.487 1492.56 828.487 1502.67 Q828.487 1507.46 826.664 1511.78 Q824.894 1516.05 820.154 1521.89 Q818.852 1523.4 811.873 1530.64 Q804.894 1537.83 792.185 1550.79 Z" fill="#000000" fill-rule="evenodd" fill-opacity="1" /><path clip-path="url(#clip050)" d="M851.091 1481.89 L892.393 1481.89 L892.393 1490.74 L860.727 1490.74 L860.727 1509.8 Q863.018 1509.02 865.31 1508.66 Q867.602 1508.24 869.893 1508.24 Q882.914 1508.24 890.518 1515.38 Q898.122 1522.51 898.122 1534.7 Q898.122 1547.25 890.31 1554.23 Q882.497 1561.16 868.279 1561.16 Q863.383 1561.16 858.279 1560.32 Q853.227 1559.49 847.81 1557.82 L847.81 1547.25 Q852.498 1549.8 857.498 1551.05 Q862.498 1552.3 868.07 1552.3 Q877.081 1552.3 882.341 1547.56 Q887.602 1542.83 887.602 1534.7 Q887.602 1526.58 882.341 1521.84 Q877.081 1517.1 868.07 1517.1 Q863.852 1517.1 859.633 1518.03 Q855.466 1518.97 851.091 1520.95 L851.091 1481.89 Z" fill="#000000" fill-rule="evenodd" fill-opacity="1" /><path clip-path="url(#clip050)" d="M1036.23 1488.81 Q1028.11 1488.81 1023.99 1496.84 Q1019.93 1504.8 1019.93 1520.85 Q1019.93 1536.84 1023.99 1544.86 Q1028.11 1552.82 1036.23 1552.82 Q1044.41 1552.82 1048.47 1544.86 Q1052.58 1536.84 1052.58 1520.85 Q1052.58 1504.8 1048.47 1496.84 Q1044.41 1488.81 1036.23 1488.81 M1036.23 1480.48 Q1049.3 1480.48 1056.18 1490.85 Q1063.11 1501.16 1063.11 1520.85 Q1063.11 1540.48 1056.18 1550.85 Q1049.3 1561.16 1036.23 1561.16 Q1023.16 1561.16 1016.23 1550.85 Q1009.36 1540.48 1009.36 1520.85 Q1009.36 1501.16 1016.23 1490.85 Q1023.16 1480.48 1036.23 1480.48 Z" fill="#000000" fill-rule="evenodd" fill-opacity="1" /><path clip-path="url(#clip050)" d="M1081.59 1546.42 L1092.58 1546.42 L1092.58 1559.65 L1081.59 1559.65 L1081.59 1546.42 Z" fill="#000000" fill-rule="evenodd" fill-opacity="1" /><path clip-path="url(#clip050)" d="M1138 1488.81 Q1129.88 1488.81 1125.76 1496.84 Q1121.7 1504.8 1121.7 1520.85 Q1121.7 1536.84 1125.76 1544.86 Q1129.88 1552.82 1138 1552.82 Q1146.18 1552.82 1150.24 1544.86 Q1154.35 1536.84 1154.35 1520.85 Q1154.35 1504.8 1150.24 1496.84 Q1146.18 1488.81 1138 1488.81 M1138 1480.48 Q1151.07 1480.48 1157.95 1490.85 Q1164.88 1501.16 1164.88 1520.85 Q1164.88 1540.48 1157.95 1550.85 Q1151.07 1561.16 1138 1561.16 Q1124.93 1561.16 1118 1550.85 Q1111.13 1540.48 1111.13 1520.85 Q1111.13 1501.16 1118 1490.85 Q1124.93 1480.48 1138 1480.48 Z" fill="#000000" fill-rule="evenodd" fill-opacity="1" /><path clip-path="url(#clip050)" d="M1215.24 1517.72 Q1222.79 1519.34 1227.01 1524.44 Q1231.28 1529.54 1231.28 1537.04 Q1231.28 1548.55 1223.36 1554.86 Q1215.45 1561.16 1200.86 1561.16 Q1195.97 1561.16 1190.76 1560.17 Q1185.6 1559.23 1180.08 1557.3 L1180.08 1547.15 Q1184.46 1549.7 1189.67 1551 Q1194.88 1552.3 1200.55 1552.3 Q1210.45 1552.3 1215.6 1548.4 Q1220.81 1544.49 1220.81 1537.04 Q1220.81 1530.17 1215.97 1526.31 Q1211.18 1522.41 1202.58 1522.41 L1193.52 1522.41 L1193.52 1513.76 L1203 1513.76 Q1210.76 1513.76 1214.88 1510.69 Q1218.99 1507.56 1218.99 1501.73 Q1218.99 1495.74 1214.72 1492.56 Q1210.5 1489.34 1202.58 1489.34 Q1198.26 1489.34 1193.31 1490.27 Q1188.37 1491.21 1182.43 1493.19 L1182.43 1483.81 Q1188.42 1482.15 1193.63 1481.31 Q1198.89 1480.48 1203.52 1480.48 Q1215.5 1480.48 1222.48 1485.95 Q1229.46 1491.37 1229.46 1500.64 Q1229.46 1507.1 1225.76 1511.58 Q1222.06 1516 1215.24 1517.72 Z" fill="#000000" fill-rule="evenodd" fill-opacity="1" /><path clip-path="url(#clip050)" d="M1273.73 1488.81 Q1265.6 1488.81 1261.49 1496.84 Q1257.43 1504.8 1257.43 1520.85 Q1257.43 1536.84 1261.49 1544.86 Q1265.6 1552.82 1273.73 1552.82 Q1281.91 1552.82 1285.97 1544.86 Q1290.08 1536.84 1290.08 1520.85 Q1290.08 1504.8 1285.97 1496.84 Q1281.91 1488.81 1273.73 1488.81 M1273.73 1480.48 Q1286.8 1480.48 1293.68 1490.85 Q1300.6 1501.16 1300.6 1520.85 Q1300.6 1540.48 1293.68 1550.85 Q1286.8 1561.16 1273.73 1561.16 Q1260.66 1561.16 1253.73 1550.85 Q1246.85 1540.48 1246.85 1520.85 Q1246.85 1501.16 1253.73 1490.85 Q1260.66 1480.48 1273.73 1480.48 Z" fill="#000000" fill-rule="evenodd" fill-opacity="1" /><path clip-path="url(#clip050)" d="M1438.71 1488.81 Q1430.59 1488.81 1426.47 1496.84 Q1422.41 1504.8 1422.41 1520.85 Q1422.41 1536.84 1426.47 1544.86 Q1430.59 1552.82 1438.71 1552.82 Q1446.89 1552.82 1450.95 1544.86 Q1455.07 1536.84 1455.07 1520.85 Q1455.07 1504.8 1450.95 1496.84 Q1446.89 1488.81 1438.71 1488.81 M1438.71 1480.48 Q1451.78 1480.48 1458.66 1490.85 Q1465.59 1501.16 1465.59 1520.85 Q1465.59 1540.48 1458.66 1550.85 Q1451.78 1561.16 1438.71 1561.16 Q1425.64 1561.16 1418.71 1550.85 Q1411.84 1540.48 1411.84 1520.85 Q1411.84 1501.16 1418.71 1490.85 Q1425.64 1480.48 1438.71 1480.48 Z" fill="#000000" fill-rule="evenodd" fill-opacity="1" /><path clip-path="url(#clip050)" d="M1484.08 1546.42 L1495.07 1546.42 L1495.07 1559.65 L1484.08 1559.65 L1484.08 1546.42 Z" fill="#000000" fill-rule="evenodd" fill-opacity="1" /><path clip-path="url(#clip050)" d="M1540.48 1488.81 Q1532.36 1488.81 1528.24 1496.84 Q1524.18 1504.8 1524.18 1520.85 Q1524.18 1536.84 1528.24 1544.86 Q1532.36 1552.82 1540.48 1552.82 Q1548.66 1552.82 1552.72 1544.86 Q1556.84 1536.84 1556.84 1520.85 Q1556.84 1504.8 1552.72 1496.84 Q1548.66 1488.81 1540.48 1488.81 M1540.48 1480.48 Q1553.56 1480.48 1560.43 1490.85 Q1567.36 1501.16 1567.36 1520.85 Q1567.36 1540.48 1560.43 1550.85 Q1553.56 1561.16 1540.48 1561.16 Q1527.41 1561.16 1520.48 1550.85 Q1513.61 1540.48 1513.61 1520.85 Q1513.61 1501.16 1520.48 1490.85 Q1527.41 1480.48 1540.48 1480.48 Z" fill="#000000" fill-rule="evenodd" fill-opacity="1" /><path clip-path="url(#clip050)" d="M1617.72 1517.72 Q1625.27 1519.34 1629.49 1524.44 Q1633.76 1529.54 1633.76 1537.04 Q1633.76 1548.55 1625.85 1554.86 Q1617.93 1561.16 1603.35 1561.16 Q1598.45 1561.16 1593.24 1560.17 Q1588.09 1559.23 1582.57 1557.3 L1582.57 1547.15 Q1586.94 1549.7 1592.15 1551 Q1597.36 1552.3 1603.03 1552.3 Q1612.93 1552.3 1618.09 1548.4 Q1623.29 1544.49 1623.29 1537.04 Q1623.29 1530.17 1618.45 1526.31 Q1613.66 1522.41 1605.07 1522.41 L1596 1522.41 L1596 1513.76 L1605.48 1513.76 Q1613.24 1513.76 1617.36 1510.69 Q1621.47 1507.56 1621.47 1501.73 Q1621.47 1495.74 1617.2 1492.56 Q1612.98 1489.34 1605.07 1489.34 Q1600.74 1489.34 1595.79 1490.27 Q1590.85 1491.21 1584.91 1493.19 L1584.91 1483.81 Q1590.9 1482.15 1596.11 1481.31 Q1601.37 1480.48 1606 1480.48 Q1617.98 1480.48 1624.96 1485.95 Q1631.94 1491.37 1631.94 1500.64 Q1631.94 1507.1 1628.24 1511.58 Q1624.54 1516 1617.72 1517.72 Z" fill="#000000" fill-rule="evenodd" fill-opacity="1" /><path clip-path="url(#clip050)" d="M1653.82 1481.89 L1695.12 1481.89 L1695.12 1490.74 L1663.45 1490.74 L1663.45 1509.8 Q1665.74 1509.02 1668.03 1508.66 Q1670.33 1508.24 1672.62 1508.24 Q1685.64 1508.24 1693.24 1515.38 Q1700.85 1522.51 1700.85 1534.7 Q1700.85 1547.25 1693.03 1554.23 Q1685.22 1561.16 1671 1561.16 Q1666.11 1561.16 1661 1560.32 Q1655.95 1559.49 1650.53 1557.82 L1650.53 1547.25 Q1655.22 1549.8 1660.22 1551.05 Q1665.22 1552.3 1670.79 1552.3 Q1679.8 1552.3 1685.06 1547.56 Q1690.33 1542.83 1690.33 1534.7 Q1690.33 1526.58 1685.06 1521.84 Q1679.8 1517.1 1670.79 1517.1 Q1666.58 1517.1 1662.36 1518.03 Q1658.19 1518.97 1653.82 1520.95 L1653.82 1481.89 Z" fill="#000000" fill-rule="evenodd" fill-opacity="1" /><path clip-path="url(#clip050)" d="M1838.95 1488.81 Q1830.83 1488.81 1826.71 1496.84 Q1822.65 1504.8 1822.65 1520.85 Q1822.65 1536.84 1826.71 1544.86 Q1830.83 1552.82 1838.95 1552.82 Q1847.13 1552.82 1851.19 1544.86 Q1855.31 1536.84 1855.31 1520.85 Q1855.31 1504.8 1851.19 1496.84 Q1847.13 1488.81 1838.95 1488.81 M1838.95 1480.48 Q1852.03 1480.48 1858.9 1490.85 Q1865.83 1501.16 1865.83 1520.85 Q1865.83 1540.48 1858.9 1550.85 Q1852.03 1561.16 1838.95 1561.16 Q1825.88 1561.16 1818.95 1550.85 Q1812.08 1540.48 1812.08 1520.85 Q1812.08 1501.16 1818.95 1490.85 Q1825.88 1480.48 1838.95 1480.48 Z" fill="#000000" fill-rule="evenodd" fill-opacity="1" /><path clip-path="url(#clip050)" d="M1884.32 1546.42 L1895.31 1546.42 L1895.31 1559.65 L1884.32 1559.65 L1884.32 1546.42 Z" fill="#000000" fill-rule="evenodd" fill-opacity="1" /><path clip-path="url(#clip050)" d="M1940.72 1488.81 Q1932.6 1488.81 1928.48 1496.84 Q1924.42 1504.8 1924.42 1520.85 Q1924.42 1536.84 1928.48 1544.86 Q1932.6 1552.82 1940.72 1552.82 Q1948.9 1552.82 1952.96 1544.86 Q1957.08 1536.84 1957.08 1520.85 Q1957.08 1504.8 1952.96 1496.84 Q1948.9 1488.81 1940.72 1488.81 M1940.72 1480.48 Q1953.8 1480.48 1960.67 1490.85 Q1967.6 1501.16 1967.6 1520.85 Q1967.6 1540.48 1960.67 1550.85 Q1953.8 1561.16 1940.72 1561.16 Q1927.65 1561.16 1920.72 1550.85 Q1913.85 1540.48 1913.85 1520.85 Q1913.85 1501.16 1920.72 1490.85 Q1927.65 1480.48 1940.72 1480.48 Z" fill="#000000" fill-rule="evenodd" fill-opacity="1" /><path clip-path="url(#clip050)" d="M2014.99 1491.05 L1988.43 1532.56 L2014.99 1532.56 L2014.99 1491.05 M2012.23 1481.89 L2025.46 1481.89 L2025.46 1532.56 L2036.56 1532.56 L2036.56 1541.31 L2025.46 1541.31 L2025.46 1559.65 L2014.99 1559.65 L2014.99 1541.31 L1979.89 1541.31 L1979.89 1531.16 L2012.23 1481.89 Z" fill="#000000" fill-rule="evenodd" fill-opacity="1" /><path clip-path="url(#clip050)" d="M2076.45 1488.81 Q2068.33 1488.81 2064.21 1496.84 Q2060.15 1504.8 2060.15 1520.85 Q2060.15 1536.84 2064.21 1544.86 Q2068.33 1552.82 2076.45 1552.82 Q2084.63 1552.82 2088.69 1544.86 Q2092.81 1536.84 2092.81 1520.85 Q2092.81 1504.8 2088.69 1496.84 Q2084.63 1488.81 2076.45 1488.81 M2076.45 1480.48 Q2089.53 1480.48 2096.4 1490.85 Q2103.33 1501.16 2103.33 1520.85 Q2103.33 1540.48 2096.4 1550.85 Q2089.53 1561.16 2076.45 1561.16 Q2063.38 1561.16 2056.45 1550.85 Q2049.58 1540.48 2049.58 1520.85 Q2049.58 1501.16 2056.45 1490.85 Q2063.38 1480.48 2076.45 1480.48 Z" fill="#000000" fill-rule="evenodd" fill-opacity="1" /><polyline clip-path="url(#clip050)" style="stroke:#000000; stroke-linecap:round; stroke-linejoin:round; stroke-width:4; stroke-opacity:1; fill:none" points="
  278.293,1443.25 278.293,47.2441 
  "/>
<polyline clip-path="url(#clip050)" style="stroke:#000000; stroke-linecap:round; stroke-linejoin:round; stroke-width:4; stroke-opacity:1; fill:none" points="
  278.293,1403.74 297.191,1403.74 
  "/>
<polyline clip-path="url(#clip050)" style="stroke:#000000; stroke-linecap:round; stroke-linejoin:round; stroke-width:4; stroke-opacity:1; fill:none" points="
  278.293,1016.39 297.191,1016.39 
  "/>
<polyline clip-path="url(#clip050)" style="stroke:#000000; stroke-linecap:round; stroke-linejoin:round; stroke-width:4; stroke-opacity:1; fill:none" points="
  278.293,629.041 297.191,629.041 
  "/>
<polyline clip-path="url(#clip050)" style="stroke:#000000; stroke-linecap:round; stroke-linejoin:round; stroke-width:4; stroke-opacity:1; fill:none" points="
  278.293,241.693 297.191,241.693 
  "/>
<path clip-path="url(#clip050)" d="M215.418 1371.79 Q207.293 1371.79 203.179 1379.81 Q199.116 1387.77 199.116 1403.82 Q199.116 1419.81 203.179 1427.83 Q207.293 1435.8 215.418 1435.8 Q223.595 1435.8 227.658 1427.83 Q231.772 1419.81 231.772 1403.82 Q231.772 1387.77 227.658 1379.81 Q223.595 1371.79 215.418 1371.79 M215.418 1363.45 Q228.491 1363.45 235.366 1373.82 Q242.293 1384.13 242.293 1403.82 Q242.293 1423.45 235.366 1433.82 Q228.491 1444.13 215.418 1444.13 Q202.345 1444.13 195.418 1433.82 Q188.543 1423.45 188.543 1403.82 Q188.543 1384.13 195.418 1373.82 Q202.345 1363.45 215.418 1363.45 Z" fill="#000000" fill-rule="evenodd" fill-opacity="1" /><path clip-path="url(#clip050)" d="M66.2525 1046.42 L102.971 1046.42 L102.971 1055.27 L53.5963 1055.27 L53.5963 1046.42 Q59.5858 1040.22 69.8983 1029.8 Q80.2628 1019.33 82.919 1016.31 Q87.9711 1010.63 89.9503 1006.73 Q91.9815 1002.77 91.9815 998.968 Q91.9815 992.77 87.6065 988.864 Q83.2836 984.958 76.3045 984.958 Q71.3566 984.958 65.8358 986.677 Q60.3671 988.395 54.1171 991.885 L54.1171 981.26 Q60.4712 978.708 65.992 977.406 Q71.5128 976.104 76.0962 976.104 Q88.1794 976.104 95.3669 982.145 Q102.554 988.187 102.554 998.291 Q102.554 1003.08 100.731 1007.41 Q98.9606 1011.68 94.2211 1017.51 Q92.919 1019.02 85.9399 1026.26 Q78.9607 1033.45 66.2525 1046.42 Z" fill="#000000" fill-rule="evenodd" fill-opacity="1" /><path clip-path="url(#clip050)" d="M147.554 984.437 Q139.429 984.437 135.315 992.458 Q131.252 1000.43 131.252 1016.47 Q131.252 1032.46 135.315 1040.48 Q139.429 1048.45 147.554 1048.45 Q155.731 1048.45 159.794 1040.48 Q163.908 1032.46 163.908 1016.47 Q163.908 1000.43 159.794 992.458 Q155.731 984.437 147.554 984.437 M147.554 976.104 Q160.627 976.104 167.502 986.468 Q174.429 996.781 174.429 1016.47 Q174.429 1036.1 167.502 1046.47 Q160.627 1056.78 147.554 1056.78 Q134.481 1056.78 127.554 1046.47 Q120.679 1036.1 120.679 1016.47 Q120.679 996.781 127.554 986.468 Q134.481 976.104 147.554 976.104 Z" fill="#000000" fill-rule="evenodd" fill-opacity="1" /><path clip-path="url(#clip050)" d="M215.418 984.437 Q207.293 984.437 203.179 992.458 Q199.116 1000.43 199.116 1016.47 Q199.116 1032.46 203.179 1040.48 Q207.293 1048.45 215.418 1048.45 Q223.595 1048.45 227.658 1040.48 Q231.772 1032.46 231.772 1016.47 Q231.772 1000.43 227.658 992.458 Q223.595 984.437 215.418 984.437 M215.418 976.104 Q228.491 976.104 235.366 986.468 Q242.293 996.781 242.293 1016.47 Q242.293 1036.1 235.366 1046.47 Q228.491 1056.78 215.418 1056.78 Q202.345 1056.78 195.418 1046.47 Q188.543 1036.1 188.543 1016.47 Q188.543 996.781 195.418 986.468 Q202.345 976.104 215.418 976.104 Z" fill="#000000" fill-rule="evenodd" fill-opacity="1" /><path clip-path="url(#clip050)" d="M86.0961 599.328 L59.5337 640.838 L86.0961 640.838 L86.0961 599.328 M83.3357 590.161 L96.5648 590.161 L96.5648 640.838 L107.658 640.838 L107.658 649.588 L96.5648 649.588 L96.5648 667.921 L86.0961 667.921 L86.0961 649.588 L50.9921 649.588 L50.9921 639.432 L83.3357 590.161 Z" fill="#000000" fill-rule="evenodd" fill-opacity="1" /><path clip-path="url(#clip050)" d="M147.554 597.088 Q139.429 597.088 135.315 605.109 Q131.252 613.078 131.252 629.12 Q131.252 645.109 135.315 653.13 Q139.429 661.099 147.554 661.099 Q155.731 661.099 159.794 653.13 Q163.908 645.109 163.908 629.12 Q163.908 613.078 159.794 605.109 Q155.731 597.088 147.554 597.088 M147.554 588.755 Q160.627 588.755 167.502 599.12 Q174.429 609.432 174.429 629.12 Q174.429 648.755 167.502 659.119 Q160.627 669.432 147.554 669.432 Q134.481 669.432 127.554 659.119 Q120.679 648.755 120.679 629.12 Q120.679 609.432 127.554 599.12 Q134.481 588.755 147.554 588.755 Z" fill="#000000" fill-rule="evenodd" fill-opacity="1" /><path clip-path="url(#clip050)" d="M215.418 597.088 Q207.293 597.088 203.179 605.109 Q199.116 613.078 199.116 629.12 Q199.116 645.109 203.179 653.13 Q207.293 661.099 215.418 661.099 Q223.595 661.099 227.658 653.13 Q231.772 645.109 231.772 629.12 Q231.772 613.078 227.658 605.109 Q223.595 597.088 215.418 597.088 M215.418 588.755 Q228.491 588.755 235.366 599.12 Q242.293 609.432 242.293 629.12 Q242.293 648.755 235.366 659.119 Q228.491 669.432 215.418 669.432 Q202.345 669.432 195.418 659.119 Q188.543 648.755 188.543 629.12 Q188.543 609.432 195.418 599.12 Q202.345 588.755 215.418 588.755 Z" fill="#000000" fill-rule="evenodd" fill-opacity="1" /><path clip-path="url(#clip050)" d="M80.992 237.5 Q73.9087 237.5 69.742 242.344 Q65.6275 247.188 65.6275 255.625 Q65.6275 264.011 69.742 268.906 Q73.9087 273.75 80.992 273.75 Q88.0753 273.75 92.1898 268.906 Q96.3565 264.011 96.3565 255.625 Q96.3565 247.188 92.1898 242.344 Q88.0753 237.5 80.992 237.5 M101.877 204.532 L101.877 214.115 Q97.919 212.24 93.8565 211.25 Q89.8461 210.261 85.8878 210.261 Q75.4712 210.261 69.9504 217.292 Q64.4816 224.323 63.7004 238.542 Q66.7733 234.011 71.4087 231.615 Q76.0441 229.167 81.617 229.167 Q93.3356 229.167 100.106 236.302 Q106.929 243.386 106.929 255.625 Q106.929 267.604 99.846 274.844 Q92.7627 282.083 80.992 282.083 Q67.5025 282.083 60.3671 271.771 Q53.2317 261.406 53.2317 241.771 Q53.2317 223.334 61.9817 212.396 Q70.7316 201.407 85.4711 201.407 Q89.4294 201.407 93.4398 202.188 Q97.5023 202.969 101.877 204.532 Z" fill="#000000" fill-rule="evenodd" fill-opacity="1" /><path clip-path="url(#clip050)" d="M147.554 209.74 Q139.429 209.74 135.315 217.761 Q131.252 225.73 131.252 241.771 Q131.252 257.761 135.315 265.781 Q139.429 273.75 147.554 273.75 Q155.731 273.75 159.794 265.781 Q163.908 257.761 163.908 241.771 Q163.908 225.73 159.794 217.761 Q155.731 209.74 147.554 209.74 M147.554 201.407 Q160.627 201.407 167.502 211.771 Q174.429 222.084 174.429 241.771 Q174.429 261.406 167.502 271.771 Q160.627 282.083 147.554 282.083 Q134.481 282.083 127.554 271.771 Q120.679 261.406 120.679 241.771 Q120.679 222.084 127.554 211.771 Q134.481 201.407 147.554 201.407 Z" fill="#000000" fill-rule="evenodd" fill-opacity="1" /><path clip-path="url(#clip050)" d="M215.418 209.74 Q207.293 209.74 203.179 217.761 Q199.116 225.73 199.116 241.771 Q199.116 257.761 203.179 265.781 Q207.293 273.75 215.418 273.75 Q223.595 273.75 227.658 265.781 Q231.772 257.761 231.772 241.771 Q231.772 225.73 227.658 217.761 Q223.595 209.74 215.418 209.74 M215.418 201.407 Q228.491 201.407 235.366 211.771 Q242.293 222.084 242.293 241.771 Q242.293 261.406 235.366 271.771 Q228.491 282.083 215.418 282.083 Q202.345 282.083 195.418 271.771 Q188.543 261.406 188.543 241.771 Q188.543 222.084 195.418 211.771 Q202.345 201.407 215.418 201.407 Z" fill="#000000" fill-rule="evenodd" fill-opacity="1" /><path clip-path="url(#clip052)" d="
M392.392 1397.93 L392.392 1403.74 L432.529 1403.74 L432.529 1397.93 L392.392 1397.93 L392.392 1397.93  Z
  " fill="#009af9" fill-rule="evenodd" fill-opacity="1"/>
<polyline clip-path="url(#clip052)" style="stroke:#000000; stroke-linecap:round; stroke-linejoin:round; stroke-width:4; stroke-opacity:1; fill:none" points="
  392.392,1397.93 392.392,1403.74 432.529,1403.74 432.529,1397.93 392.392,1397.93 
  "/>
<path clip-path="url(#clip052)" d="
M432.529 1397.93 L432.529 1403.74 L472.665 1403.74 L472.665 1397.93 L432.529 1397.93 L432.529 1397.93  Z
  " fill="#009af9" fill-rule="evenodd" fill-opacity="1"/>
<polyline clip-path="url(#clip052)" style="stroke:#000000; stroke-linecap:round; stroke-linejoin:round; stroke-width:4; stroke-opacity:1; fill:none" points="
  432.529,1397.93 432.529,1403.74 472.665,1403.74 472.665,1397.93 432.529,1397.93 
  "/>
<path clip-path="url(#clip052)" d="
M472.665 1388.24 L472.665 1403.74 L512.801 1403.74 L512.801 1388.24 L472.665 1388.24 L472.665 1388.24  Z
  " fill="#009af9" fill-rule="evenodd" fill-opacity="1"/>
<polyline clip-path="url(#clip052)" style="stroke:#000000; stroke-linecap:round; stroke-linejoin:round; stroke-width:4; stroke-opacity:1; fill:none" points="
  472.665,1388.24 472.665,1403.74 512.801,1403.74 512.801,1388.24 472.665,1388.24 
  "/>
<path clip-path="url(#clip052)" d="
M512.801 1394.05 L512.801 1403.74 L552.937 1403.74 L552.937 1394.05 L512.801 1394.05 L512.801 1394.05  Z
  " fill="#009af9" fill-rule="evenodd" fill-opacity="1"/>
<polyline clip-path="url(#clip052)" style="stroke:#000000; stroke-linecap:round; stroke-linejoin:round; stroke-width:4; stroke-opacity:1; fill:none" points="
  512.801,1394.05 512.801,1403.74 552.937,1403.74 552.937,1394.05 512.801,1394.05 
  "/>
<path clip-path="url(#clip052)" d="
M552.937 1378.56 L552.937 1403.74 L593.073 1403.74 L593.073 1378.56 L552.937 1378.56 L552.937 1378.56  Z
  " fill="#009af9" fill-rule="evenodd" fill-opacity="1"/>
<polyline clip-path="url(#clip052)" style="stroke:#000000; stroke-linecap:round; stroke-linejoin:round; stroke-width:4; stroke-opacity:1; fill:none" points="
  552.937,1378.56 552.937,1403.74 593.073,1403.74 593.073,1378.56 552.937,1378.56 
  "/>
<path clip-path="url(#clip052)" d="
M593.073 1341.76 L593.073 1403.74 L633.209 1403.74 L633.209 1341.76 L593.073 1341.76 L593.073 1341.76  Z
  " fill="#009af9" fill-rule="evenodd" fill-opacity="1"/>
<polyline clip-path="url(#clip052)" style="stroke:#000000; stroke-linecap:round; stroke-linejoin:round; stroke-width:4; stroke-opacity:1; fill:none" points="
  593.073,1341.76 593.073,1403.74 633.209,1403.74 633.209,1341.76 593.073,1341.76 
  "/>
<path clip-path="url(#clip052)" d="
M633.209 1289.47 L633.209 1403.74 L673.346 1403.74 L673.346 1289.47 L633.209 1289.47 L633.209 1289.47  Z
  " fill="#009af9" fill-rule="evenodd" fill-opacity="1"/>
<polyline clip-path="url(#clip052)" style="stroke:#000000; stroke-linecap:round; stroke-linejoin:round; stroke-width:4; stroke-opacity:1; fill:none" points="
  633.209,1289.47 633.209,1403.74 673.346,1403.74 673.346,1289.47 633.209,1289.47 
  "/>
<path clip-path="url(#clip052)" d="
M673.346 1223.62 L673.346 1403.74 L713.482 1403.74 L713.482 1223.62 L673.346 1223.62 L673.346 1223.62  Z
  " fill="#009af9" fill-rule="evenodd" fill-opacity="1"/>
<polyline clip-path="url(#clip052)" style="stroke:#000000; stroke-linecap:round; stroke-linejoin:round; stroke-width:4; stroke-opacity:1; fill:none" points="
  673.346,1223.62 673.346,1403.74 713.482,1403.74 713.482,1223.62 673.346,1223.62 
  "/>
<path clip-path="url(#clip052)" d="
M713.482 1181.01 L713.482 1403.74 L753.618 1403.74 L753.618 1181.01 L713.482 1181.01 L713.482 1181.01  Z
  " fill="#009af9" fill-rule="evenodd" fill-opacity="1"/>
<polyline clip-path="url(#clip052)" style="stroke:#000000; stroke-linecap:round; stroke-linejoin:round; stroke-width:4; stroke-opacity:1; fill:none" points="
  713.482,1181.01 713.482,1403.74 753.618,1403.74 753.618,1181.01 713.482,1181.01 
  "/>
<path clip-path="url(#clip052)" d="
M753.618 1072.56 L753.618 1403.74 L793.754 1403.74 L793.754 1072.56 L753.618 1072.56 L753.618 1072.56  Z
  " fill="#009af9" fill-rule="evenodd" fill-opacity="1"/>
<polyline clip-path="url(#clip052)" style="stroke:#000000; stroke-linecap:round; stroke-linejoin:round; stroke-width:4; stroke-opacity:1; fill:none" points="
  753.618,1072.56 753.618,1403.74 793.754,1403.74 793.754,1072.56 753.618,1072.56 
  "/>
<path clip-path="url(#clip052)" d="
M793.754 966.035 L793.754 1403.74 L833.89 1403.74 L833.89 966.035 L793.754 966.035 L793.754 966.035  Z
  " fill="#009af9" fill-rule="evenodd" fill-opacity="1"/>
<polyline clip-path="url(#clip052)" style="stroke:#000000; stroke-linecap:round; stroke-linejoin:round; stroke-width:4; stroke-opacity:1; fill:none" points="
  793.754,966.035 793.754,1403.74 833.89,1403.74 833.89,966.035 793.754,966.035 
  "/>
<path clip-path="url(#clip052)" d="
M833.89 859.514 L833.89 1403.74 L874.027 1403.74 L874.027 859.514 L833.89 859.514 L833.89 859.514  Z
  " fill="#009af9" fill-rule="evenodd" fill-opacity="1"/>
<polyline clip-path="url(#clip052)" style="stroke:#000000; stroke-linecap:round; stroke-linejoin:round; stroke-width:4; stroke-opacity:1; fill:none" points="
  833.89,859.514 833.89,1403.74 874.027,1403.74 874.027,859.514 833.89,859.514 
  "/>
<path clip-path="url(#clip052)" d="
M874.027 644.535 L874.027 1403.74 L914.163 1403.74 L914.163 644.535 L874.027 644.535 L874.027 644.535  Z
  " fill="#009af9" fill-rule="evenodd" fill-opacity="1"/>
<polyline clip-path="url(#clip052)" style="stroke:#000000; stroke-linecap:round; stroke-linejoin:round; stroke-width:4; stroke-opacity:1; fill:none" points="
  874.027,644.535 874.027,1403.74 914.163,1403.74 914.163,644.535 874.027,644.535 
  "/>
<path clip-path="url(#clip052)" d="
M914.163 443.114 L914.163 1403.74 L954.299 1403.74 L954.299 443.114 L914.163 443.114 L914.163 443.114  Z
  " fill="#009af9" fill-rule="evenodd" fill-opacity="1"/>
<polyline clip-path="url(#clip052)" style="stroke:#000000; stroke-linecap:round; stroke-linejoin:round; stroke-width:4; stroke-opacity:1; fill:none" points="
  914.163,443.114 914.163,1403.74 954.299,1403.74 954.299,443.114 914.163,443.114 
  "/>
<path clip-path="url(#clip052)" d="
M954.299 348.214 L954.299 1403.74 L994.435 1403.74 L994.435 348.214 L954.299 348.214 L954.299 348.214  Z
  " fill="#009af9" fill-rule="evenodd" fill-opacity="1"/>
<polyline clip-path="url(#clip052)" style="stroke:#000000; stroke-linecap:round; stroke-linejoin:round; stroke-width:4; stroke-opacity:1; fill:none" points="
  954.299,348.214 954.299,1403.74 994.435,1403.74 994.435,348.214 954.299,348.214 
  "/>
<path clip-path="url(#clip052)" d="
M994.435 309.479 L994.435 1403.74 L1034.57 1403.74 L1034.57 309.479 L994.435 309.479 L994.435 309.479  Z
  " fill="#009af9" fill-rule="evenodd" fill-opacity="1"/>
<polyline clip-path="url(#clip052)" style="stroke:#000000; stroke-linecap:round; stroke-linejoin:round; stroke-width:4; stroke-opacity:1; fill:none" points="
  994.435,309.479 994.435,1403.74 1034.57,1403.74 1034.57,309.479 994.435,309.479 
  "/>
<path clip-path="url(#clip052)" d="
M1034.57 171.97 L1034.57 1403.74 L1074.71 1403.74 L1074.71 171.97 L1034.57 171.97 L1034.57 171.97  Z
  " fill="#009af9" fill-rule="evenodd" fill-opacity="1"/>
<polyline clip-path="url(#clip052)" style="stroke:#000000; stroke-linecap:round; stroke-linejoin:round; stroke-width:4; stroke-opacity:1; fill:none" points="
  1034.57,171.97 1034.57,1403.74 1074.71,1403.74 1074.71,171.97 1034.57,171.97 
  "/>
<path clip-path="url(#clip052)" d="
M1074.71 109.995 L1074.71 1403.74 L1114.84 1403.74 L1114.84 109.995 L1074.71 109.995 L1074.71 109.995  Z
  " fill="#009af9" fill-rule="evenodd" fill-opacity="1"/>
<polyline clip-path="url(#clip052)" style="stroke:#000000; stroke-linecap:round; stroke-linejoin:round; stroke-width:4; stroke-opacity:1; fill:none" points="
  1074.71,109.995 1074.71,1403.74 1114.84,1403.74 1114.84,109.995 1074.71,109.995 
  "/>
<path clip-path="url(#clip052)" d="
M1114.84 86.7536 L1114.84 1403.74 L1154.98 1403.74 L1154.98 86.7536 L1114.84 86.7536 L1114.84 86.7536  Z
  " fill="#009af9" fill-rule="evenodd" fill-opacity="1"/>
<polyline clip-path="url(#clip052)" style="stroke:#000000; stroke-linecap:round; stroke-linejoin:round; stroke-width:4; stroke-opacity:1; fill:none" points="
  1114.84,86.7536 1114.84,1403.74 1154.98,1403.74 1154.98,86.7536 1114.84,86.7536 
  "/>
<path clip-path="url(#clip052)" d="
M1154.98 195.211 L1154.98 1403.74 L1195.12 1403.74 L1195.12 195.211 L1154.98 195.211 L1154.98 195.211  Z
  " fill="#009af9" fill-rule="evenodd" fill-opacity="1"/>
<polyline clip-path="url(#clip052)" style="stroke:#000000; stroke-linecap:round; stroke-linejoin:round; stroke-width:4; stroke-opacity:1; fill:none" points="
  1154.98,195.211 1154.98,1403.74 1195.12,1403.74 1195.12,195.211 1154.98,195.211 
  "/>
<path clip-path="url(#clip052)" d="
M1195.12 160.35 L1195.12 1403.74 L1235.25 1403.74 L1235.25 160.35 L1195.12 160.35 L1195.12 160.35  Z
  " fill="#009af9" fill-rule="evenodd" fill-opacity="1"/>
<polyline clip-path="url(#clip052)" style="stroke:#000000; stroke-linecap:round; stroke-linejoin:round; stroke-width:4; stroke-opacity:1; fill:none" points="
  1195.12,160.35 1195.12,1403.74 1235.25,1403.74 1235.25,160.35 1195.12,160.35 
  "/>
<path clip-path="url(#clip052)" d="
M1235.25 295.922 L1235.25 1403.74 L1275.39 1403.74 L1275.39 295.922 L1235.25 295.922 L1235.25 295.922  Z
  " fill="#009af9" fill-rule="evenodd" fill-opacity="1"/>
<polyline clip-path="url(#clip052)" style="stroke:#000000; stroke-linecap:round; stroke-linejoin:round; stroke-width:4; stroke-opacity:1; fill:none" points="
  1235.25,295.922 1235.25,1403.74 1275.39,1403.74 1275.39,295.922 1235.25,295.922 
  "/>
<path clip-path="url(#clip052)" d="
M1275.39 386.949 L1275.39 1403.74 L1315.52 1403.74 L1315.52 386.949 L1275.39 386.949 L1275.39 386.949  Z
  " fill="#009af9" fill-rule="evenodd" fill-opacity="1"/>
<polyline clip-path="url(#clip052)" style="stroke:#000000; stroke-linecap:round; stroke-linejoin:round; stroke-width:4; stroke-opacity:1; fill:none" points="
  1275.39,386.949 1275.39,1403.74 1315.52,1403.74 1315.52,386.949 1275.39,386.949 
  "/>
<path clip-path="url(#clip052)" d="
M1315.52 452.798 L1315.52 1403.74 L1355.66 1403.74 L1355.66 452.798 L1315.52 452.798 L1315.52 452.798  Z
  " fill="#009af9" fill-rule="evenodd" fill-opacity="1"/>
<polyline clip-path="url(#clip052)" style="stroke:#000000; stroke-linecap:round; stroke-linejoin:round; stroke-width:4; stroke-opacity:1; fill:none" points="
  1315.52,452.798 1315.52,1403.74 1355.66,1403.74 1355.66,452.798 1315.52,452.798 
  "/>
<path clip-path="url(#clip052)" d="
M1355.66 578.686 L1355.66 1403.74 L1395.8 1403.74 L1395.8 578.686 L1355.66 578.686 L1355.66 578.686  Z
  " fill="#009af9" fill-rule="evenodd" fill-opacity="1"/>
<polyline clip-path="url(#clip052)" style="stroke:#000000; stroke-linecap:round; stroke-linejoin:round; stroke-width:4; stroke-opacity:1; fill:none" points="
  1355.66,578.686 1355.66,1403.74 1395.8,1403.74 1395.8,578.686 1355.66,578.686 
  "/>
<path clip-path="url(#clip052)" d="
M1395.8 663.903 L1395.8 1403.74 L1435.93 1403.74 L1435.93 663.903 L1395.8 663.903 L1395.8 663.903  Z
  " fill="#009af9" fill-rule="evenodd" fill-opacity="1"/>
<polyline clip-path="url(#clip052)" style="stroke:#000000; stroke-linecap:round; stroke-linejoin:round; stroke-width:4; stroke-opacity:1; fill:none" points="
  1395.8,663.903 1395.8,1403.74 1435.93,1403.74 1435.93,663.903 1395.8,663.903 
  "/>
<path clip-path="url(#clip052)" d="
M1435.93 873.071 L1435.93 1403.74 L1476.07 1403.74 L1476.07 873.071 L1435.93 873.071 L1435.93 873.071  Z
  " fill="#009af9" fill-rule="evenodd" fill-opacity="1"/>
<polyline clip-path="url(#clip052)" style="stroke:#000000; stroke-linecap:round; stroke-linejoin:round; stroke-width:4; stroke-opacity:1; fill:none" points="
  1435.93,873.071 1435.93,1403.74 1476.07,1403.74 1476.07,873.071 1435.93,873.071 
  "/>
<path clip-path="url(#clip052)" d="
M1476.07 905.996 L1476.07 1403.74 L1516.21 1403.74 L1516.21 905.996 L1476.07 905.996 L1476.07 905.996  Z
  " fill="#009af9" fill-rule="evenodd" fill-opacity="1"/>
<polyline clip-path="url(#clip052)" style="stroke:#000000; stroke-linecap:round; stroke-linejoin:round; stroke-width:4; stroke-opacity:1; fill:none" points="
  1476.07,905.996 1476.07,1403.74 1516.21,1403.74 1516.21,905.996 1476.07,905.996 
  "/>
<path clip-path="url(#clip052)" d="
M1516.21 1035.76 L1516.21 1403.74 L1556.34 1403.74 L1556.34 1035.76 L1516.21 1035.76 L1516.21 1035.76  Z
  " fill="#009af9" fill-rule="evenodd" fill-opacity="1"/>
<polyline clip-path="url(#clip052)" style="stroke:#000000; stroke-linecap:round; stroke-linejoin:round; stroke-width:4; stroke-opacity:1; fill:none" points="
  1516.21,1035.76 1516.21,1403.74 1556.34,1403.74 1556.34,1035.76 1516.21,1035.76 
  "/>
<path clip-path="url(#clip052)" d="
M1556.34 1124.85 L1556.34 1403.74 L1596.48 1403.74 L1596.48 1124.85 L1556.34 1124.85 L1556.34 1124.85  Z
  " fill="#009af9" fill-rule="evenodd" fill-opacity="1"/>
<polyline clip-path="url(#clip052)" style="stroke:#000000; stroke-linecap:round; stroke-linejoin:round; stroke-width:4; stroke-opacity:1; fill:none" points="
  1556.34,1124.85 1556.34,1403.74 1596.48,1403.74 1596.48,1124.85 1556.34,1124.85 
  "/>
<path clip-path="url(#clip052)" d="
M1596.48 1163.58 L1596.48 1403.74 L1636.61 1403.74 L1636.61 1163.58 L1596.48 1163.58 L1596.48 1163.58  Z
  " fill="#009af9" fill-rule="evenodd" fill-opacity="1"/>
<polyline clip-path="url(#clip052)" style="stroke:#000000; stroke-linecap:round; stroke-linejoin:round; stroke-width:4; stroke-opacity:1; fill:none" points="
  1596.48,1163.58 1596.48,1403.74 1636.61,1403.74 1636.61,1163.58 1596.48,1163.58 
  "/>
<path clip-path="url(#clip052)" d="
M1636.61 1215.87 L1636.61 1403.74 L1676.75 1403.74 L1676.75 1215.87 L1636.61 1215.87 L1636.61 1215.87  Z
  " fill="#009af9" fill-rule="evenodd" fill-opacity="1"/>
<polyline clip-path="url(#clip052)" style="stroke:#000000; stroke-linecap:round; stroke-linejoin:round; stroke-width:4; stroke-opacity:1; fill:none" points="
  1636.61,1215.87 1636.61,1403.74 1676.75,1403.74 1676.75,1215.87 1636.61,1215.87 
  "/>
<path clip-path="url(#clip052)" d="
M1676.75 1270.1 L1676.75 1403.74 L1716.89 1403.74 L1716.89 1270.1 L1676.75 1270.1 L1676.75 1270.1  Z
  " fill="#009af9" fill-rule="evenodd" fill-opacity="1"/>
<polyline clip-path="url(#clip052)" style="stroke:#000000; stroke-linecap:round; stroke-linejoin:round; stroke-width:4; stroke-opacity:1; fill:none" points="
  1676.75,1270.1 1676.75,1403.74 1716.89,1403.74 1716.89,1270.1 1676.75,1270.1 
  "/>
<path clip-path="url(#clip052)" d="
M1716.89 1308.84 L1716.89 1403.74 L1757.02 1403.74 L1757.02 1308.84 L1716.89 1308.84 L1716.89 1308.84  Z
  " fill="#009af9" fill-rule="evenodd" fill-opacity="1"/>
<polyline clip-path="url(#clip052)" style="stroke:#000000; stroke-linecap:round; stroke-linejoin:round; stroke-width:4; stroke-opacity:1; fill:none" points="
  1716.89,1308.84 1716.89,1403.74 1757.02,1403.74 1757.02,1308.84 1716.89,1308.84 
  "/>
<path clip-path="url(#clip052)" d="
M1757.02 1334.02 L1757.02 1403.74 L1797.16 1403.74 L1797.16 1334.02 L1757.02 1334.02 L1757.02 1334.02  Z
  " fill="#009af9" fill-rule="evenodd" fill-opacity="1"/>
<polyline clip-path="url(#clip052)" style="stroke:#000000; stroke-linecap:round; stroke-linejoin:round; stroke-width:4; stroke-opacity:1; fill:none" points="
  1757.02,1334.02 1757.02,1403.74 1797.16,1403.74 1797.16,1334.02 1757.02,1334.02 
  "/>
<path clip-path="url(#clip052)" d="
M1797.16 1339.83 L1797.16 1403.74 L1837.29 1403.74 L1837.29 1339.83 L1797.16 1339.83 L1797.16 1339.83  Z
  " fill="#009af9" fill-rule="evenodd" fill-opacity="1"/>
<polyline clip-path="url(#clip052)" style="stroke:#000000; stroke-linecap:round; stroke-linejoin:round; stroke-width:4; stroke-opacity:1; fill:none" points="
  1797.16,1339.83 1797.16,1403.74 1837.29,1403.74 1837.29,1339.83 1797.16,1339.83 
  "/>
<path clip-path="url(#clip052)" d="
M1837.29 1349.51 L1837.29 1403.74 L1877.43 1403.74 L1877.43 1349.51 L1837.29 1349.51 L1837.29 1349.51  Z
  " fill="#009af9" fill-rule="evenodd" fill-opacity="1"/>
<polyline clip-path="url(#clip052)" style="stroke:#000000; stroke-linecap:round; stroke-linejoin:round; stroke-width:4; stroke-opacity:1; fill:none" points="
  1837.29,1349.51 1837.29,1403.74 1877.43,1403.74 1877.43,1349.51 1837.29,1349.51 
  "/>
<path clip-path="url(#clip052)" d="
M1877.43 1370.81 L1877.43 1403.74 L1917.57 1403.74 L1917.57 1370.81 L1877.43 1370.81 L1877.43 1370.81  Z
  " fill="#009af9" fill-rule="evenodd" fill-opacity="1"/>
<polyline clip-path="url(#clip052)" style="stroke:#000000; stroke-linecap:round; stroke-linejoin:round; stroke-width:4; stroke-opacity:1; fill:none" points="
  1877.43,1370.81 1877.43,1403.74 1917.57,1403.74 1917.57,1370.81 1877.43,1370.81 
  "/>
<path clip-path="url(#clip052)" d="
M1917.57 1384.37 L1917.57 1403.74 L1957.7 1403.74 L1957.7 1384.37 L1917.57 1384.37 L1917.57 1384.37  Z
  " fill="#009af9" fill-rule="evenodd" fill-opacity="1"/>
<polyline clip-path="url(#clip052)" style="stroke:#000000; stroke-linecap:round; stroke-linejoin:round; stroke-width:4; stroke-opacity:1; fill:none" points="
  1917.57,1384.37 1917.57,1403.74 1957.7,1403.74 1957.7,1384.37 1917.57,1384.37 
  "/>
<path clip-path="url(#clip052)" d="
M1957.7 1394.05 L1957.7 1403.74 L1997.84 1403.74 L1997.84 1394.05 L1957.7 1394.05 L1957.7 1394.05  Z
  " fill="#009af9" fill-rule="evenodd" fill-opacity="1"/>
<polyline clip-path="url(#clip052)" style="stroke:#000000; stroke-linecap:round; stroke-linejoin:round; stroke-width:4; stroke-opacity:1; fill:none" points="
  1957.7,1394.05 1957.7,1403.74 1997.84,1403.74 1997.84,1394.05 1957.7,1394.05 
  "/>
<path clip-path="url(#clip052)" d="
M1997.84 1394.05 L1997.84 1403.74 L2037.98 1403.74 L2037.98 1394.05 L1997.84 1394.05 L1997.84 1394.05  Z
  " fill="#009af9" fill-rule="evenodd" fill-opacity="1"/>
<polyline clip-path="url(#clip052)" style="stroke:#000000; stroke-linecap:round; stroke-linejoin:round; stroke-width:4; stroke-opacity:1; fill:none" points="
  1997.84,1394.05 1997.84,1403.74 2037.98,1403.74 2037.98,1394.05 1997.84,1394.05 
  "/>
<path clip-path="url(#clip052)" d="
M2037.98 1403.74 L2037.98 1403.74 L2078.11 1403.74 L2078.11 1403.74 L2037.98 1403.74 L2037.98 1403.74  Z
  " fill="#009af9" fill-rule="evenodd" fill-opacity="1"/>
<polyline clip-path="url(#clip052)" style="stroke:#000000; stroke-linecap:round; stroke-linejoin:round; stroke-width:4; stroke-opacity:1; fill:none" points="
  2037.98,1403.74 2037.98,1403.74 2078.11,1403.74 2037.98,1403.74 
  "/>
<path clip-path="url(#clip052)" d="
M2078.11 1392.12 L2078.11 1403.74 L2118.25 1403.74 L2118.25 1392.12 L2078.11 1392.12 L2078.11 1392.12  Z
  " fill="#009af9" fill-rule="evenodd" fill-opacity="1"/>
<polyline clip-path="url(#clip052)" style="stroke:#000000; stroke-linecap:round; stroke-linejoin:round; stroke-width:4; stroke-opacity:1; fill:none" points="
  2078.11,1392.12 2078.11,1403.74 2118.25,1403.74 2118.25,1392.12 2078.11,1392.12 
  "/>
<path clip-path="url(#clip052)" d="
M2118.25 1401.8 L2118.25 1403.74 L2158.38 1403.74 L2158.38 1401.8 L2118.25 1401.8 L2118.25 1401.8  Z
  " fill="#009af9" fill-rule="evenodd" fill-opacity="1"/>
<polyline clip-path="url(#clip052)" style="stroke:#000000; stroke-linecap:round; stroke-linejoin:round; stroke-width:4; stroke-opacity:1; fill:none" points="
  2118.25,1401.8 2118.25,1403.74 2158.38,1403.74 2158.38,1401.8 2118.25,1401.8 
  "/>
<path clip-path="url(#clip052)" d="
M2158.38 1401.8 L2158.38 1403.74 L2198.52 1403.74 L2198.52 1401.8 L2158.38 1401.8 L2158.38 1401.8  Z
  " fill="#009af9" fill-rule="evenodd" fill-opacity="1"/>
<polyline clip-path="url(#clip052)" style="stroke:#000000; stroke-linecap:round; stroke-linejoin:round; stroke-width:4; stroke-opacity:1; fill:none" points="
  2158.38,1401.8 2158.38,1403.74 2198.52,1403.74 2198.52,1401.8 2158.38,1401.8 
  "/>
<path clip-path="url(#clip052)" d="
M2198.52 1401.8 L2198.52 1403.74 L2238.66 1403.74 L2238.66 1401.8 L2198.52 1401.8 L2198.52 1401.8  Z
  " fill="#009af9" fill-rule="evenodd" fill-opacity="1"/>
<polyline clip-path="url(#clip052)" style="stroke:#000000; stroke-linecap:round; stroke-linejoin:round; stroke-width:4; stroke-opacity:1; fill:none" points="
  2198.52,1401.8 2198.52,1403.74 2238.66,1403.74 2238.66,1401.8 2198.52,1401.8 
  "/>
<circle clip-path="url(#clip052)" style="fill:#009af9; stroke:none; fill-opacity:0" cx="412.46" cy="1397.93" r="2"/>
<circle clip-path="url(#clip052)" style="fill:#009af9; stroke:none; fill-opacity:0" cx="452.597" cy="1397.93" r="2"/>
<circle clip-path="url(#clip052)" style="fill:#009af9; stroke:none; fill-opacity:0" cx="492.733" cy="1388.24" r="2"/>
<circle clip-path="url(#clip052)" style="fill:#009af9; stroke:none; fill-opacity:0" cx="532.869" cy="1394.05" r="2"/>
<circle clip-path="url(#clip052)" style="fill:#009af9; stroke:none; fill-opacity:0" cx="573.005" cy="1378.56" r="2"/>
<circle clip-path="url(#clip052)" style="fill:#009af9; stroke:none; fill-opacity:0" cx="613.141" cy="1341.76" r="2"/>
<circle clip-path="url(#clip052)" style="fill:#009af9; stroke:none; fill-opacity:0" cx="653.278" cy="1289.47" r="2"/>
<circle clip-path="url(#clip052)" style="fill:#009af9; stroke:none; fill-opacity:0" cx="693.414" cy="1223.62" r="2"/>
<circle clip-path="url(#clip052)" style="fill:#009af9; stroke:none; fill-opacity:0" cx="733.55" cy="1181.01" r="2"/>
<circle clip-path="url(#clip052)" style="fill:#009af9; stroke:none; fill-opacity:0" cx="773.686" cy="1072.56" r="2"/>
<circle clip-path="url(#clip052)" style="fill:#009af9; stroke:none; fill-opacity:0" cx="813.822" cy="966.035" r="2"/>
<circle clip-path="url(#clip052)" style="fill:#009af9; stroke:none; fill-opacity:0" cx="853.958" cy="859.514" r="2"/>
<circle clip-path="url(#clip052)" style="fill:#009af9; stroke:none; fill-opacity:0" cx="894.095" cy="644.535" r="2"/>
<circle clip-path="url(#clip052)" style="fill:#009af9; stroke:none; fill-opacity:0" cx="934.231" cy="443.114" r="2"/>
<circle clip-path="url(#clip052)" style="fill:#009af9; stroke:none; fill-opacity:0" cx="974.367" cy="348.214" r="2"/>
<circle clip-path="url(#clip052)" style="fill:#009af9; stroke:none; fill-opacity:0" cx="1014.5" cy="309.479" r="2"/>
<circle clip-path="url(#clip052)" style="fill:#009af9; stroke:none; fill-opacity:0" cx="1054.64" cy="171.97" r="2"/>
<circle clip-path="url(#clip052)" style="fill:#009af9; stroke:none; fill-opacity:0" cx="1094.78" cy="109.995" r="2"/>
<circle clip-path="url(#clip052)" style="fill:#009af9; stroke:none; fill-opacity:0" cx="1134.91" cy="86.7536" r="2"/>
<circle clip-path="url(#clip052)" style="fill:#009af9; stroke:none; fill-opacity:0" cx="1175.05" cy="195.211" r="2"/>
<circle clip-path="url(#clip052)" style="fill:#009af9; stroke:none; fill-opacity:0" cx="1215.18" cy="160.35" r="2"/>
<circle clip-path="url(#clip052)" style="fill:#009af9; stroke:none; fill-opacity:0" cx="1255.32" cy="295.922" r="2"/>
<circle clip-path="url(#clip052)" style="fill:#009af9; stroke:none; fill-opacity:0" cx="1295.46" cy="386.949" r="2"/>
<circle clip-path="url(#clip052)" style="fill:#009af9; stroke:none; fill-opacity:0" cx="1335.59" cy="452.798" r="2"/>
<circle clip-path="url(#clip052)" style="fill:#009af9; stroke:none; fill-opacity:0" cx="1375.73" cy="578.686" r="2"/>
<circle clip-path="url(#clip052)" style="fill:#009af9; stroke:none; fill-opacity:0" cx="1415.87" cy="663.903" r="2"/>
<circle clip-path="url(#clip052)" style="fill:#009af9; stroke:none; fill-opacity:0" cx="1456" cy="873.071" r="2"/>
<circle clip-path="url(#clip052)" style="fill:#009af9; stroke:none; fill-opacity:0" cx="1496.14" cy="905.996" r="2"/>
<circle clip-path="url(#clip052)" style="fill:#009af9; stroke:none; fill-opacity:0" cx="1536.27" cy="1035.76" r="2"/>
<circle clip-path="url(#clip052)" style="fill:#009af9; stroke:none; fill-opacity:0" cx="1576.41" cy="1124.85" r="2"/>
<circle clip-path="url(#clip052)" style="fill:#009af9; stroke:none; fill-opacity:0" cx="1616.55" cy="1163.58" r="2"/>
<circle clip-path="url(#clip052)" style="fill:#009af9; stroke:none; fill-opacity:0" cx="1656.68" cy="1215.87" r="2"/>
<circle clip-path="url(#clip052)" style="fill:#009af9; stroke:none; fill-opacity:0" cx="1696.82" cy="1270.1" r="2"/>
<circle clip-path="url(#clip052)" style="fill:#009af9; stroke:none; fill-opacity:0" cx="1736.95" cy="1308.84" r="2"/>
<circle clip-path="url(#clip052)" style="fill:#009af9; stroke:none; fill-opacity:0" cx="1777.09" cy="1334.02" r="2"/>
<circle clip-path="url(#clip052)" style="fill:#009af9; stroke:none; fill-opacity:0" cx="1817.23" cy="1339.83" r="2"/>
<circle clip-path="url(#clip052)" style="fill:#009af9; stroke:none; fill-opacity:0" cx="1857.36" cy="1349.51" r="2"/>
<circle clip-path="url(#clip052)" style="fill:#009af9; stroke:none; fill-opacity:0" cx="1897.5" cy="1370.81" r="2"/>
<circle clip-path="url(#clip052)" style="fill:#009af9; stroke:none; fill-opacity:0" cx="1937.64" cy="1384.37" r="2"/>
<circle clip-path="url(#clip052)" style="fill:#009af9; stroke:none; fill-opacity:0" cx="1977.77" cy="1394.05" r="2"/>
<circle clip-path="url(#clip052)" style="fill:#009af9; stroke:none; fill-opacity:0" cx="2017.91" cy="1394.05" r="2"/>
<circle clip-path="url(#clip052)" style="fill:#009af9; stroke:none; fill-opacity:0" cx="2058.04" cy="1403.74" r="2"/>
<circle clip-path="url(#clip052)" style="fill:#009af9; stroke:none; fill-opacity:0" cx="2098.18" cy="1392.12" r="2"/>
<circle clip-path="url(#clip052)" style="fill:#009af9; stroke:none; fill-opacity:0" cx="2138.32" cy="1401.8" r="2"/>
<circle clip-path="url(#clip052)" style="fill:#009af9; stroke:none; fill-opacity:0" cx="2178.45" cy="1401.8" r="2"/>
<circle clip-path="url(#clip052)" style="fill:#009af9; stroke:none; fill-opacity:0" cx="2218.59" cy="1401.8" r="2"/>
</svg>
