<?xml version="1.0" encoding="utf-8"?>
<svg xmlns="http://www.w3.org/2000/svg" xmlns:xlink="http://www.w3.org/1999/xlink" width="600" height="400" viewBox="0 0 2400 1600">
<defs>
  <clipPath id="clip990">
    <rect x="0" y="0" width="2400" height="1600"/>
  </clipPath>
</defs>
<path clip-path="url(#clip990)" d="
M0 1600 L2400 1600 L2400 0 L0 0  Z
  " fill="#ffffff" fill-rule="evenodd" fill-opacity="1"/>
<defs>
  <clipPath id="clip991">
    <rect x="480" y="0" width="1681" height="1600"/>
  </clipPath>
</defs>
<path clip-path="url(#clip990)" d="
M233.708 1476.53 L2352.76 1476.53 L2352.76 47.2441 L233.708 47.2441  Z
  " fill="#ffffff" fill-rule="evenodd" fill-opacity="1"/>
<defs>
  <clipPath id="clip992">
    <rect x="233" y="47" width="2120" height="1430"/>
  </clipPath>
</defs>
<polyline clip-path="url(#clip990)" style="stroke:#000000; stroke-linecap:round; stroke-linejoin:round; stroke-width:4; stroke-opacity:1; fill:none" points="
  233.708,1476.53 2352.76,1476.53 
  "/>
<path clip-path="url(#clip990)" d="M949.959 1531.35 L949.959 1578.38 L959.843 1578.38 Q972.36 1578.38 978.153 1572.71 Q983.986 1567.04 983.986 1554.8 Q983.986 1542.65 978.153 1537.02 Q972.36 1531.35 959.843 1531.35 L949.959 1531.35 M941.776 1524.62 L958.587 1524.62 Q976.168 1524.62 984.391 1531.96 Q992.615 1539.25 992.615 1554.8 Q992.615 1570.44 984.351 1577.77 Q976.087 1585.1 958.587 1585.1 L941.776 1585.1 L941.776 1524.62 Z" fill="#000000" fill-rule="evenodd" fill-opacity="1" /><path clip-path="url(#clip990)" d="M1044.14 1560.56 L1044.14 1564.2 L1009.87 1564.2 Q1010.36 1571.9 1014.49 1575.95 Q1018.66 1579.96 1026.07 1579.96 Q1030.37 1579.96 1034.38 1578.91 Q1038.43 1577.85 1042.4 1575.75 L1042.4 1582.79 Q1038.39 1584.5 1034.18 1585.39 Q1029.96 1586.28 1025.63 1586.28 Q1014.77 1586.28 1008.41 1579.96 Q1002.09 1573.64 1002.09 1562.86 Q1002.09 1551.72 1008.09 1545.2 Q1014.12 1538.64 1024.33 1538.64 Q1033.49 1538.64 1038.79 1544.55 Q1044.14 1550.43 1044.14 1560.56 M1036.69 1558.37 Q1036.61 1552.25 1033.25 1548.61 Q1029.92 1544.96 1024.41 1544.96 Q1018.18 1544.96 1014.41 1548.48 Q1010.68 1552.01 1010.11 1558.41 L1036.69 1558.37 Z" fill="#000000" fill-rule="evenodd" fill-opacity="1" /><path clip-path="url(#clip990)" d="M1089.03 1541.48 L1089.03 1548.44 Q1085.87 1546.7 1082.67 1545.85 Q1079.51 1544.96 1076.27 1544.96 Q1069.01 1544.96 1065 1549.58 Q1060.99 1554.15 1060.99 1562.46 Q1060.99 1570.76 1065 1575.38 Q1069.01 1579.96 1076.27 1579.96 Q1079.51 1579.96 1082.67 1579.11 Q1085.87 1578.22 1089.03 1576.48 L1089.03 1583.36 Q1085.91 1584.82 1082.54 1585.55 Q1079.22 1586.28 1075.46 1586.28 Q1065.21 1586.28 1059.17 1579.84 Q1053.14 1573.4 1053.14 1562.46 Q1053.14 1551.36 1059.21 1545 Q1065.33 1538.64 1075.94 1538.64 Q1079.38 1538.64 1082.67 1539.37 Q1085.95 1540.06 1089.03 1541.48 Z" fill="#000000" fill-rule="evenodd" fill-opacity="1" /><path clip-path="url(#clip990)" d="M1101.99 1539.73 L1109.44 1539.73 L1109.44 1585.1 L1101.99 1585.1 L1101.99 1539.73 M1101.99 1522.07 L1109.44 1522.07 L1109.44 1531.51 L1101.99 1531.51 L1101.99 1522.07 Z" fill="#000000" fill-rule="evenodd" fill-opacity="1" /><path clip-path="url(#clip990)" d="M1153.96 1541.07 L1153.96 1548.12 Q1150.8 1546.5 1147.4 1545.69 Q1144 1544.88 1140.35 1544.88 Q1134.8 1544.88 1132.01 1546.58 Q1129.25 1548.28 1129.25 1551.68 Q1129.25 1554.28 1131.24 1555.78 Q1133.22 1557.23 1139.22 1558.57 L1141.77 1559.14 Q1149.71 1560.84 1153.03 1563.96 Q1156.39 1567.04 1156.39 1572.59 Q1156.39 1578.91 1151.37 1582.59 Q1146.39 1586.28 1137.64 1586.28 Q1133.99 1586.28 1130.02 1585.55 Q1126.09 1584.86 1121.72 1583.44 L1121.72 1575.75 Q1125.85 1577.89 1129.86 1578.99 Q1133.87 1580.04 1137.8 1580.04 Q1143.07 1580.04 1145.9 1578.26 Q1148.74 1576.43 1148.74 1573.15 Q1148.74 1570.12 1146.67 1568.5 Q1144.64 1566.87 1137.72 1565.38 L1135.13 1564.77 Q1128.2 1563.31 1125.12 1560.31 Q1122.04 1557.27 1122.04 1552.01 Q1122.04 1545.61 1126.58 1542.12 Q1131.11 1538.64 1139.46 1538.64 Q1143.59 1538.64 1147.24 1539.25 Q1150.88 1539.86 1153.96 1541.07 Z" fill="#000000" fill-rule="evenodd" fill-opacity="1" /><path clip-path="url(#clip990)" d="M1168.26 1539.73 L1175.72 1539.73 L1175.72 1585.1 L1168.26 1585.1 L1168.26 1539.73 M1168.26 1522.07 L1175.72 1522.07 L1175.72 1531.51 L1168.26 1531.51 L1168.26 1522.07 Z" fill="#000000" fill-rule="evenodd" fill-opacity="1" /><path clip-path="url(#clip990)" d="M1208.89 1544.96 Q1202.9 1544.96 1199.41 1549.66 Q1195.93 1554.32 1195.93 1562.46 Q1195.93 1570.6 1199.37 1575.3 Q1202.86 1579.96 1208.89 1579.96 Q1214.85 1579.96 1218.33 1575.26 Q1221.81 1570.56 1221.81 1562.46 Q1221.81 1554.4 1218.33 1549.7 Q1214.85 1544.96 1208.89 1544.96 M1208.89 1538.64 Q1218.61 1538.64 1224.16 1544.96 Q1229.71 1551.28 1229.71 1562.46 Q1229.71 1573.6 1224.16 1579.96 Q1218.61 1586.28 1208.89 1586.28 Q1199.13 1586.28 1193.58 1579.96 Q1188.07 1573.6 1188.07 1562.46 Q1188.07 1551.28 1193.58 1544.96 Q1199.13 1538.64 1208.89 1538.64 Z" fill="#000000" fill-rule="evenodd" fill-opacity="1" /><path clip-path="url(#clip990)" d="M1279.78 1557.72 L1279.78 1585.1 L1272.33 1585.1 L1272.33 1557.96 Q1272.33 1551.52 1269.82 1548.32 Q1267.31 1545.12 1262.28 1545.12 Q1256.25 1545.12 1252.76 1548.97 Q1249.28 1552.82 1249.28 1559.46 L1249.28 1585.1 L1241.79 1585.1 L1241.79 1539.73 L1249.28 1539.73 L1249.28 1546.78 Q1251.95 1542.69 1255.56 1540.67 Q1259.2 1538.64 1263.94 1538.64 Q1271.76 1538.64 1275.77 1543.5 Q1279.78 1548.32 1279.78 1557.72 Z" fill="#000000" fill-rule="evenodd" fill-opacity="1" /><path clip-path="url(#clip990)" d="M1336.94 1585.1 L1313.85 1524.62 L1322.4 1524.62 L1341.56 1575.54 L1360.76 1524.62 L1369.27 1524.62 L1346.22 1585.1 L1336.94 1585.1 Z" fill="#000000" fill-rule="evenodd" fill-opacity="1" /><path clip-path="url(#clip990)" d="M1391.95 1562.3 Q1382.92 1562.3 1379.44 1564.36 Q1375.95 1566.43 1375.95 1571.41 Q1375.95 1575.38 1378.54 1577.73 Q1381.18 1580.04 1385.67 1580.04 Q1391.87 1580.04 1395.6 1575.67 Q1399.37 1571.25 1399.37 1563.96 L1399.37 1562.3 L1391.95 1562.3 M1406.82 1559.22 L1406.82 1585.1 L1399.37 1585.1 L1399.37 1578.22 Q1396.81 1582.35 1393.01 1584.33 Q1389.2 1586.28 1383.69 1586.28 Q1376.72 1586.28 1372.59 1582.39 Q1368.5 1578.46 1368.5 1571.9 Q1368.5 1564.24 1373.6 1560.35 Q1378.75 1556.46 1388.91 1556.46 L1399.37 1556.46 L1399.37 1555.73 Q1399.37 1550.59 1395.96 1547.8 Q1392.6 1544.96 1386.48 1544.96 Q1382.6 1544.96 1378.91 1545.89 Q1375.22 1546.82 1371.82 1548.69 L1371.82 1541.8 Q1375.91 1540.22 1379.76 1539.45 Q1383.61 1538.64 1387.25 1538.64 Q1397.1 1538.64 1401.96 1543.74 Q1406.82 1548.85 1406.82 1559.22 Z" fill="#000000" fill-rule="evenodd" fill-opacity="1" /><path clip-path="url(#clip990)" d="M1448.46 1546.7 Q1447.21 1545.97 1445.71 1545.65 Q1444.25 1545.28 1442.47 1545.28 Q1436.15 1545.28 1432.75 1549.42 Q1429.38 1553.51 1429.38 1561.2 L1429.38 1585.1 L1421.89 1585.1 L1421.89 1539.73 L1429.38 1539.73 L1429.38 1546.78 Q1431.73 1542.65 1435.5 1540.67 Q1439.27 1538.64 1444.65 1538.64 Q1445.42 1538.64 1446.36 1538.76 Q1447.29 1538.84 1448.42 1539.05 L1448.46 1546.7 Z" fill="#000000" fill-rule="evenodd" fill-opacity="1" /><path clip-path="url(#clip990)" d="M1456.28 1539.73 L1463.73 1539.73 L1463.73 1585.1 L1456.28 1585.1 L1456.28 1539.73 M1456.28 1522.07 L1463.73 1522.07 L1463.73 1531.51 L1456.28 1531.51 L1456.28 1522.07 Z" fill="#000000" fill-rule="evenodd" fill-opacity="1" /><path clip-path="url(#clip990)" d="M1499.95 1562.3 Q1490.92 1562.3 1487.43 1564.36 Q1483.95 1566.43 1483.95 1571.41 Q1483.95 1575.38 1486.54 1577.73 Q1489.17 1580.04 1493.67 1580.04 Q1499.87 1580.04 1503.6 1575.67 Q1507.36 1571.25 1507.36 1563.96 L1507.36 1562.3 L1499.95 1562.3 M1514.82 1559.22 L1514.82 1585.1 L1507.36 1585.1 L1507.36 1578.22 Q1504.81 1582.35 1501 1584.33 Q1497.2 1586.28 1491.69 1586.28 Q1484.72 1586.28 1480.59 1582.39 Q1476.5 1578.46 1476.5 1571.9 Q1476.5 1564.24 1481.6 1560.35 Q1486.74 1556.46 1496.91 1556.46 L1507.36 1556.46 L1507.36 1555.73 Q1507.36 1550.59 1503.96 1547.8 Q1500.6 1544.96 1494.48 1544.96 Q1490.59 1544.96 1486.91 1545.89 Q1483.22 1546.82 1479.82 1548.69 L1479.82 1541.8 Q1483.91 1540.22 1487.76 1539.45 Q1491.6 1538.64 1495.25 1538.64 Q1505.09 1538.64 1509.96 1543.74 Q1514.82 1548.85 1514.82 1559.22 Z" fill="#000000" fill-rule="evenodd" fill-opacity="1" /><path clip-path="url(#clip990)" d="M1562.74 1562.46 Q1562.74 1554.24 1559.34 1549.58 Q1555.97 1544.88 1550.06 1544.88 Q1544.15 1544.88 1540.74 1549.58 Q1537.38 1554.24 1537.38 1562.46 Q1537.38 1570.68 1540.74 1575.38 Q1544.15 1580.04 1550.06 1580.04 Q1555.97 1580.04 1559.34 1575.38 Q1562.74 1570.68 1562.74 1562.46 M1537.38 1546.62 Q1539.73 1542.57 1543.29 1540.62 Q1546.9 1538.64 1551.88 1538.64 Q1560.15 1538.64 1565.29 1545.2 Q1570.48 1551.76 1570.48 1562.46 Q1570.48 1573.15 1565.29 1579.72 Q1560.15 1586.28 1551.88 1586.28 Q1546.9 1586.28 1543.29 1584.33 Q1539.73 1582.35 1537.38 1578.3 L1537.38 1585.1 L1529.89 1585.1 L1529.89 1522.07 L1537.38 1522.07 L1537.38 1546.62 Z" fill="#000000" fill-rule="evenodd" fill-opacity="1" /><path clip-path="url(#clip990)" d="M1582.83 1522.07 L1590.28 1522.07 L1590.28 1585.1 L1582.83 1585.1 L1582.83 1522.07 Z" fill="#000000" fill-rule="evenodd" fill-opacity="1" /><path clip-path="url(#clip990)" d="M1644.69 1560.56 L1644.69 1564.2 L1610.42 1564.2 Q1610.9 1571.9 1615.04 1575.95 Q1619.21 1579.96 1626.62 1579.96 Q1630.92 1579.96 1634.93 1578.91 Q1638.98 1577.85 1642.95 1575.75 L1642.95 1582.79 Q1638.94 1584.5 1634.72 1585.39 Q1630.51 1586.28 1626.18 1586.28 Q1615.32 1586.28 1608.96 1579.96 Q1602.64 1573.64 1602.64 1562.86 Q1602.64 1551.72 1608.64 1545.2 Q1614.67 1538.64 1624.88 1538.64 Q1634.03 1538.64 1639.34 1544.55 Q1644.69 1550.43 1644.69 1560.56 M1637.23 1558.37 Q1637.15 1552.25 1633.79 1548.61 Q1630.47 1544.96 1624.96 1544.96 Q1618.72 1544.96 1614.95 1548.48 Q1611.23 1552.01 1610.66 1558.41 L1637.23 1558.37 Z" fill="#000000" fill-rule="evenodd" fill-opacity="1" /><polyline clip-path="url(#clip990)" style="stroke:#000000; stroke-linecap:round; stroke-linejoin:round; stroke-width:4; stroke-opacity:1; fill:none" points="
  233.708,1476.53 233.708,47.2441 
  "/>
<path clip-path="url(#clip990)" d="M88.6341 926.008 Q88.6341 934.92 95.2776 940.187 Q101.921 945.412 113.385 945.412 Q124.809 945.412 131.452 940.187 Q138.096 934.92 138.096 926.008 Q138.096 917.096 131.452 911.911 Q124.809 906.686 113.385 906.686 Q101.921 906.686 95.2776 911.911 Q88.6341 917.096 88.6341 926.008 M81.9906 926.008 Q81.9906 913.289 90.538 905.673 Q99.0449 898.057 113.385 898.057 Q127.685 898.057 136.232 905.673 Q144.739 913.289 144.739 926.008 Q144.739 938.769 136.232 946.425 Q127.725 954.041 113.385 954.041 Q99.0449 954.041 90.538 946.425 Q81.9906 938.769 81.9906 926.008 Z" fill="#000000" fill-rule="evenodd" fill-opacity="1" /><path clip-path="url(#clip990)" d="M120.92 853.011 Q112.696 853.011 108.038 856.414 Q103.339 859.776 103.339 865.69 Q103.339 871.605 108.038 875.007 Q112.696 878.37 120.92 878.37 Q129.143 878.37 133.842 875.007 Q138.501 871.605 138.501 865.69 Q138.501 859.776 133.842 856.414 Q129.143 853.011 120.92 853.011 M105.081 878.37 Q101.03 876.02 99.0854 872.455 Q97.1005 868.85 97.1005 863.867 Q97.1005 855.604 103.663 850.459 Q110.225 845.274 120.92 845.274 Q131.614 845.274 138.177 850.459 Q144.739 855.604 144.739 863.867 Q144.739 868.85 142.795 872.455 Q140.81 876.02 136.759 878.37 L143.564 878.37 L143.564 885.864 L80.5323 885.864 L80.5323 878.37 L105.081 878.37 Z" fill="#000000" fill-rule="evenodd" fill-opacity="1" /><path clip-path="url(#clip990)" d="M98.1942 832.919 L98.1942 825.465 L144.375 825.465 Q153.043 825.465 156.932 828.787 Q160.821 832.068 160.821 839.4 L160.821 842.236 L154.502 842.236 L154.502 840.251 Q154.502 835.997 152.517 834.458 Q150.572 832.919 144.375 832.919 L98.1942 832.919 M80.5323 832.919 L80.5323 825.465 L89.9709 825.465 L89.9709 832.919 L80.5323 832.919 Z" fill="#000000" fill-rule="evenodd" fill-opacity="1" /><path clip-path="url(#clip990)" d="M119.016 771.061 L122.662 771.061 L122.662 805.332 Q130.358 804.846 134.409 800.714 Q138.42 796.541 138.42 789.128 Q138.42 784.834 137.366 780.824 Q136.313 776.773 134.207 772.803 L141.255 772.803 Q142.957 776.814 143.848 781.027 Q144.739 785.239 144.739 789.574 Q144.739 800.43 138.42 806.79 Q132.1 813.11 121.325 813.11 Q110.185 813.11 103.663 807.114 Q97.1005 801.078 97.1005 790.87 Q97.1005 781.715 103.015 776.408 Q108.889 771.061 119.016 771.061 M116.828 778.515 Q110.712 778.596 107.066 781.958 Q103.42 785.28 103.42 790.789 Q103.42 797.028 106.944 800.795 Q110.468 804.522 116.869 805.089 L116.828 778.515 Z" fill="#000000" fill-rule="evenodd" fill-opacity="1" /><path clip-path="url(#clip990)" d="M99.9361 726.177 L106.904 726.177 Q105.162 729.337 104.311 732.537 Q103.42 735.697 103.42 738.938 Q103.42 746.189 108.038 750.199 Q112.615 754.21 120.92 754.21 Q129.224 754.21 133.842 750.199 Q138.42 746.189 138.42 738.938 Q138.42 735.697 137.569 732.537 Q136.678 729.337 134.936 726.177 L141.822 726.177 Q143.281 729.296 144.01 732.659 Q144.739 735.98 144.739 739.748 Q144.739 749.997 138.298 756.032 Q131.857 762.068 120.92 762.068 Q109.82 762.068 103.46 755.992 Q97.1005 749.875 97.1005 739.262 Q97.1005 735.818 97.8296 732.537 Q98.5183 729.256 99.9361 726.177 Z" fill="#000000" fill-rule="evenodd" fill-opacity="1" /><path clip-path="url(#clip990)" d="M85.3123 705.842 L98.1942 705.842 L98.1942 690.489 L103.987 690.489 L103.987 705.842 L128.617 705.842 Q134.166 705.842 135.746 704.343 Q137.326 702.804 137.326 698.145 L137.326 690.489 L143.564 690.489 L143.564 698.145 Q143.564 706.773 140.364 710.055 Q137.123 713.336 128.617 713.336 L103.987 713.336 L103.987 718.805 L98.1942 718.805 L98.1942 713.336 L85.3123 713.336 L85.3123 705.842 Z" fill="#000000" fill-rule="evenodd" fill-opacity="1" /><path clip-path="url(#clip990)" d="M98.1942 680.686 L98.1942 673.232 L143.564 673.232 L143.564 680.686 L98.1942 680.686 M80.5323 680.686 L80.5323 673.232 L89.9709 673.232 L89.9709 680.686 L80.5323 680.686 Z" fill="#000000" fill-rule="evenodd" fill-opacity="1" /><path clip-path="url(#clip990)" d="M98.1942 662.983 L98.1942 655.084 L136.273 640.906 L98.1942 626.728 L98.1942 618.828 L143.564 635.842 L143.564 645.969 L98.1942 662.983 Z" fill="#000000" fill-rule="evenodd" fill-opacity="1" /><path clip-path="url(#clip990)" d="M119.016 569.731 L122.662 569.731 L122.662 604.002 Q130.358 603.516 134.409 599.384 Q138.42 595.212 138.42 587.798 Q138.42 583.504 137.366 579.494 Q136.313 575.443 134.207 571.473 L141.255 571.473 Q142.957 575.484 143.848 579.697 Q144.739 583.91 144.739 588.244 Q144.739 599.1 138.42 605.46 Q132.1 611.78 121.325 611.78 Q110.185 611.78 103.663 605.784 Q97.1005 599.749 97.1005 589.54 Q97.1005 580.385 103.015 575.079 Q108.889 569.731 119.016 569.731 M116.828 577.185 Q110.712 577.266 107.066 580.628 Q103.42 583.95 103.42 589.459 Q103.42 595.698 106.944 599.465 Q110.468 603.192 116.869 603.759 L116.828 577.185 Z" fill="#000000" fill-rule="evenodd" fill-opacity="1" /><polyline clip-path="url(#clip992)" style="stroke:#009af9; stroke-linecap:round; stroke-linejoin:round; stroke-width:12; stroke-opacity:1; fill:none" points="
  233.708,-30.3456 236.063,-11.7321 238.417,6.70265 240.772,24.9595 243.126,43.0394 245.481,60.9432 247.835,78.6719 250.19,96.2262 252.544,113.607 254.899,130.816 
  257.253,147.853 259.608,164.719 261.962,181.415 264.317,197.943 266.671,214.302 269.026,230.494 271.38,246.52 273.735,262.38 276.089,278.076 278.444,293.608 
  280.798,308.978 283.153,324.185 285.507,339.232 287.862,354.118 290.216,368.845 292.571,383.413 294.925,397.824 297.28,412.078 299.634,426.176 301.989,440.118 
  304.343,453.907 306.698,467.543 309.052,481.025 311.407,494.357 313.761,507.537 316.116,520.567 318.47,533.448 320.825,546.181 323.179,558.767 325.534,571.205 
  327.888,583.498 330.243,595.646 332.597,607.65 334.952,619.51 337.306,631.228 339.661,642.805 342.015,654.24 344.37,665.535 346.724,676.691 349.079,687.709 
  351.433,698.589 353.788,709.332 356.142,719.94 358.497,730.412 360.851,740.749 363.206,750.953 365.56,761.025 367.915,770.964 370.269,780.772 372.624,790.45 
  374.978,799.998 377.333,809.417 379.687,818.709 382.042,827.873 384.396,836.91 386.751,845.822 389.105,854.609 391.46,863.272 393.814,871.812 396.169,880.229 
  398.523,888.524 400.878,896.698 403.232,904.752 405.587,912.686 407.941,920.502 410.296,928.2 412.65,935.78 415.005,943.244 417.359,950.593 419.714,957.826 
  422.068,964.946 424.423,971.951 426.777,978.845 429.132,985.626 431.486,992.296 433.841,998.856 436.195,1005.31 438.55,1011.65 440.904,1017.88 443.259,1024 
  445.613,1030.02 447.968,1035.94 450.322,1041.74 452.677,1047.45 455.031,1053.04 457.386,1058.54 459.74,1063.93 462.095,1069.22 464.449,1074.41 466.804,1079.5 
  469.158,1084.5 471.513,1089.39 473.867,1094.18 476.222,1098.88 478.576,1103.48 480.931,1107.98 483.285,1112.39 485.64,1116.7 487.994,1120.92 490.349,1125.05 
  492.703,1129.08 495.058,1133.03 497.412,1136.88 499.767,1140.64 502.121,1144.31 504.476,1147.89 506.83,1151.39 509.185,1154.79 511.539,1158.11 513.894,1161.34 
  516.248,1164.49 518.603,1167.55 520.957,1170.53 523.312,1173.42 525.666,1176.23 528.021,1178.96 530.375,1181.61 532.73,1184.18 535.084,1186.66 537.438,1189.07 
  539.793,1191.39 542.147,1193.64 544.502,1195.81 546.856,1197.91 549.211,1199.92 551.565,1201.86 553.92,1203.73 556.274,1205.52 558.629,1207.24 560.983,1208.88 
  563.338,1210.46 565.692,1211.96 568.047,1213.38 570.401,1214.74 572.756,1216.03 575.11,1217.25 577.465,1218.4 579.819,1219.48 582.174,1220.49 584.528,1221.44 
  586.883,1222.32 589.237,1223.13 591.592,1223.88 593.946,1224.57 596.301,1225.19 598.655,1225.75 601.01,1226.24 603.364,1226.68 605.719,1227.05 608.073,1227.36 
  610.428,1227.61 612.782,1227.8 615.137,1227.93 617.491,1228 619.846,1228.02 622.2,1227.97 624.555,1227.87 626.909,1227.72 629.264,1227.51 631.618,1227.24 
  633.973,1226.92 636.327,1226.55 638.682,1226.12 641.036,1225.64 643.391,1225.11 645.745,1224.52 648.1,1223.89 650.454,1223.2 652.809,1222.46 655.163,1221.68 
  657.518,1220.84 659.872,1219.96 662.227,1219.03 664.581,1218.06 666.936,1217.03 669.29,1215.96 671.645,1214.85 673.999,1213.69 676.354,1212.48 678.708,1211.23 
  681.063,1209.94 683.417,1208.61 685.772,1207.23 688.126,1205.81 690.481,1204.35 692.835,1202.85 695.19,1201.31 697.544,1199.73 699.899,1198.11 702.253,1196.45 
  704.608,1194.75 706.962,1193.02 709.317,1191.25 711.671,1189.44 714.026,1187.6 716.38,1185.72 718.735,1183.81 721.089,1181.86 723.444,1179.88 725.798,1177.86 
  728.153,1175.81 730.507,1173.73 732.862,1171.61 735.216,1169.47 737.571,1167.29 739.925,1165.09 742.28,1162.85 744.634,1160.58 746.989,1158.29 749.343,1155.96 
  751.698,1153.61 754.052,1151.23 756.407,1148.82 758.761,1146.39 761.116,1143.93 763.47,1141.44 765.825,1138.93 768.179,1136.4 770.534,1133.84 772.888,1131.25 
  775.243,1128.64 777.597,1126.01 779.952,1123.36 782.306,1120.68 784.661,1117.99 787.015,1115.27 789.37,1112.53 791.724,1109.77 794.079,1106.99 796.433,1104.19 
  798.788,1101.37 801.142,1098.54 803.497,1095.68 805.851,1092.81 808.206,1089.92 810.56,1087.01 812.915,1084.09 815.269,1081.15 817.624,1078.2 819.978,1075.23 
  822.333,1072.24 824.687,1069.25 827.042,1066.23 829.396,1063.21 831.751,1060.17 834.105,1057.12 836.46,1054.05 838.814,1050.98 841.169,1047.89 843.523,1044.79 
  845.878,1041.69 848.232,1038.57 850.587,1035.44 852.941,1032.3 855.296,1029.15 857.65,1026 860.005,1022.83 862.359,1019.66 864.714,1016.48 867.068,1013.3 
  869.423,1010.1 871.777,1006.9 874.132,1003.7 876.486,1000.49 878.841,997.27 881.195,994.049 883.55,990.823 885.904,987.593 888.259,984.36 890.613,981.123 
  892.968,977.883 895.322,974.64 897.677,971.395 900.031,968.148 902.386,964.899 904.74,961.649 907.095,958.398 909.449,955.147 911.804,951.895 914.158,948.644 
  916.513,945.393 918.867,942.143 921.222,938.894 923.576,935.646 925.931,932.4 928.285,929.157 930.64,925.915 932.994,922.677 935.349,919.442 937.703,916.21 
  940.058,912.982 942.412,909.758 944.767,906.538 947.121,903.323 949.476,900.113 951.83,896.909 954.185,893.71 956.539,890.517 958.894,887.33 961.248,884.15 
  963.603,880.977 965.957,877.811 968.312,874.653 970.666,871.502 973.02,868.359 975.375,865.225 977.729,862.099 980.084,858.982 982.438,855.875 984.793,852.776 
  987.147,849.688 989.502,846.61 991.856,843.542 994.211,840.485 996.565,837.438 998.92,834.403 1001.27,831.379 1003.63,828.367 1005.98,825.367 1008.34,822.379 
  1010.69,819.404 1013.05,816.441 1015.4,813.491 1017.76,810.555 1020.11,807.632 1022.46,804.723 1024.82,801.828 1027.17,798.947 1029.53,796.081 1031.88,793.23 
  1034.24,790.393 1036.59,787.572 1038.95,784.766 1041.3,781.976 1043.66,779.202 1046.01,776.445 1048.36,773.703 1050.72,770.979 1053.07,768.271 1055.43,765.58 
  1057.78,762.907 1060.14,760.251 1062.49,757.613 1064.85,754.993 1067.2,752.391 1069.55,749.808 1071.91,747.243 1074.26,744.697 1076.62,742.171 1078.97,739.663 
  1081.33,737.175 1083.68,734.706 1086.04,732.258 1088.39,729.829 1090.75,727.421 1093.1,725.033 1095.45,722.666 1097.81,720.32 1100.16,717.995 1102.52,715.691 
  1104.87,713.408 1107.23,711.147 1109.58,708.908 1111.94,706.69 1114.29,704.495 1116.64,702.322 1119,700.171 1121.35,698.043 1123.71,695.938 1126.06,693.856 
  1128.42,691.797 1130.77,689.761 1133.13,687.749 1135.48,685.761 1137.84,683.796 1140.19,681.855 1142.54,679.938 1144.9,678.045 1147.25,676.177 1149.61,674.333 
  1151.96,672.514 1154.32,670.72 1156.67,668.951 1159.03,667.206 1161.38,665.487 1163.73,663.794 1166.09,662.126 1168.44,660.483 1170.8,658.866 1173.15,657.275 
  1175.51,655.711 1177.86,654.172 1180.22,652.659 1182.57,651.173 1184.93,649.714 1187.28,648.281 1189.63,646.875 1191.99,645.495 1194.34,644.143 1196.7,642.817 
  1199.05,641.519 1201.41,640.248 1203.76,639.004 1206.12,637.788 1208.47,636.6 1210.82,635.439 1213.18,634.306 1215.53,633.2 1217.89,632.123 1220.24,631.073 
  1222.6,630.052 1224.95,629.059 1227.31,628.094 1229.66,627.158 1232.02,626.25 1234.37,625.37 1236.72,624.519 1239.08,623.697 1241.43,622.904 1243.79,622.139 
  1246.14,621.403 1248.5,620.696 1250.85,620.018 1253.21,619.369 1255.56,618.749 1257.91,618.159 1260.27,617.597 1262.62,617.065 1264.98,616.562 1267.33,616.089 
  1269.69,615.645 1272.04,615.23 1274.4,614.845 1276.75,614.49 1279.11,614.164 1281.46,613.868 1283.81,613.601 1286.17,613.364 1288.52,613.157 1290.88,612.98 
  1293.23,612.832 1295.59,612.714 1297.94,612.626 1300.3,612.568 1302.65,612.54 1305,612.542 1307.36,612.573 1309.71,612.635 1312.07,612.726 1314.42,612.847 
  1316.78,612.999 1319.13,613.18 1321.49,613.391 1323.84,613.632 1326.2,613.904 1328.55,614.205 1330.9,614.536 1333.26,614.897 1335.61,615.288 1337.97,615.709 
  1340.32,616.159 1342.68,616.64 1345.03,617.151 1347.39,617.691 1349.74,618.262 1352.09,618.862 1354.45,619.492 1356.8,620.152 1359.16,620.841 1361.51,621.561 
  1363.87,622.309 1366.22,623.088 1368.58,623.896 1370.93,624.734 1373.29,625.602 1375.64,626.499 1377.99,627.425 1380.35,628.381 1382.7,629.366 1385.06,630.38 
  1387.41,631.424 1389.77,632.497 1392.12,633.599 1394.48,634.731 1396.83,635.891 1399.18,637.08 1401.54,638.299 1403.89,639.546 1406.25,640.822 1408.6,642.126 
  1410.96,643.46 1413.31,644.822 1415.67,646.212 1418.02,647.631 1420.37,649.078 1422.73,650.553 1425.08,652.057 1427.44,653.589 1429.79,655.149 1432.15,656.736 
  1434.5,658.352 1436.86,659.995 1439.21,661.666 1441.57,663.365 1443.92,665.091 1446.27,666.844 1448.63,668.625 1450.98,670.433 1453.34,672.267 1455.69,674.129 
  1458.05,676.018 1460.4,677.933 1462.76,679.875 1465.11,681.844 1467.46,683.838 1469.82,685.86 1472.17,687.907 1474.53,689.98 1476.88,692.079 1479.24,694.204 
  1481.59,696.355 1483.95,698.531 1486.3,700.732 1488.66,702.959 1491.01,705.21 1493.36,707.487 1495.72,709.788 1498.07,712.114 1500.43,714.465 1502.78,716.84 
  1505.14,719.239 1507.49,721.663 1509.85,724.11 1512.2,726.581 1514.55,729.076 1516.91,731.594 1519.26,734.135 1521.62,736.7 1523.97,739.287 1526.33,741.897 
  1528.68,744.53 1531.04,747.186 1533.39,749.863 1535.75,752.563 1538.1,755.285 1540.45,758.028 1542.81,760.793 1545.16,763.58 1547.52,766.388 1549.87,769.216 
  1552.23,772.066 1554.58,774.936 1556.94,777.827 1559.29,780.737 1561.64,783.668 1564,786.619 1566.35,789.59 1568.71,792.58 1571.06,795.589 1573.42,798.617 
  1575.77,801.664 1578.13,804.73 1580.48,807.814 1582.84,810.916 1585.19,814.037 1587.54,817.175 1589.9,820.331 1592.25,823.504 1594.61,826.694 1596.96,829.901 
  1599.32,833.125 1601.67,836.365 1604.03,839.621 1606.38,842.894 1608.73,846.182 1611.09,849.485 1613.44,852.804 1615.8,856.138 1618.15,859.486 1620.51,862.85 
  1622.86,866.227 1625.22,869.618 1627.57,873.024 1629.93,876.442 1632.28,879.874 1634.63,883.319 1636.99,886.777 1639.34,890.247 1641.7,893.73 1644.05,897.225 
  1646.41,900.731 1648.76,904.248 1651.12,907.777 1653.47,911.317 1655.82,914.867 1658.18,918.428 1660.53,921.998 1662.89,925.579 1665.24,929.169 1667.6,932.768 
  1669.95,936.376 1672.31,939.993 1674.66,943.618 1677.02,947.251 1679.37,950.892 1681.72,954.541 1684.08,958.196 1686.43,961.859 1688.79,965.528 1691.14,969.203 
  1693.5,972.884 1695.85,976.571 1698.21,980.263 1700.56,983.961 1702.91,987.663 1705.27,991.369 1707.62,995.079 1709.98,998.794 1712.33,1002.51 1714.69,1006.23 
  1717.04,1009.96 1719.4,1013.68 1721.75,1017.41 1724.11,1021.14 1726.46,1024.87 1728.81,1028.6 1731.17,1032.34 1733.52,1036.07 1735.88,1039.81 1738.23,1043.54 
  1740.59,1047.27 1742.94,1051 1745.3,1054.74 1747.65,1058.47 1750,1062.19 1752.36,1065.92 1754.71,1069.64 1757.07,1073.36 1759.42,1077.08 1761.78,1080.79 
  1764.13,1084.5 1766.49,1088.2 1768.84,1091.9 1771.2,1095.59 1773.55,1099.28 1775.9,1102.96 1778.26,1106.64 1780.61,1110.31 1782.97,1113.97 1785.32,1117.62 
  1787.68,1121.27 1790.03,1124.91 1792.39,1128.54 1794.74,1132.16 1797.09,1135.77 1799.45,1139.37 1801.8,1142.96 1804.16,1146.54 1806.51,1150.11 1808.87,1153.67 
  1811.22,1157.21 1813.58,1160.75 1815.93,1164.27 1818.29,1167.78 1820.64,1171.27 1822.99,1174.75 1825.35,1178.22 1827.7,1181.67 1830.06,1185.11 1832.41,1188.53 
  1834.77,1191.93 1837.12,1195.32 1839.48,1198.69 1841.83,1202.05 1844.18,1205.38 1846.54,1208.7 1848.89,1212 1851.25,1215.28 1853.6,1218.55 1855.96,1221.79 
  1858.31,1225.01 1860.67,1228.21 1863.02,1231.39 1865.37,1234.55 1867.73,1237.68 1870.08,1240.8 1872.44,1243.89 1874.79,1246.95 1877.15,1250 1879.5,1253.02 
  1881.86,1256.01 1884.21,1258.98 1886.57,1261.92 1888.92,1264.84 1891.27,1267.73 1893.63,1270.59 1895.98,1273.42 1898.34,1276.23 1900.69,1279.01 1903.05,1281.76 
  1905.4,1284.48 1907.76,1287.17 1910.11,1289.82 1912.46,1292.45 1914.82,1295.05 1917.17,1297.61 1919.53,1300.14 1921.88,1302.64 1924.24,1305.11 1926.59,1307.54 
  1928.95,1309.93 1931.3,1312.3 1933.66,1314.62 1936.01,1316.91 1938.36,1319.16 1940.72,1321.38 1943.07,1323.56 1945.43,1325.7 1947.78,1327.8 1950.14,1329.86 
  1952.49,1331.89 1954.85,1333.87 1957.2,1335.81 1959.55,1337.71 1961.91,1339.57 1964.26,1341.39 1966.62,1343.16 1968.97,1344.9 1971.33,1346.58 1973.68,1348.23 
  1976.04,1349.82 1978.39,1351.38 1980.75,1352.88 1983.1,1354.34 1985.45,1355.75 1987.81,1357.12 1990.16,1358.43 1992.52,1359.7 1994.87,1360.92 1997.23,1362.09 
  1999.58,1363.21 2001.94,1364.27 2004.29,1365.29 2006.64,1366.25 2009,1367.16 2011.35,1368.02 2013.71,1368.82 2016.06,1369.57 2018.42,1370.26 2020.77,1370.9 
  2023.13,1371.48 2025.48,1372.01 2027.84,1372.48 2030.19,1372.88 2032.54,1373.24 2034.9,1373.53 2037.25,1373.76 2039.61,1373.93 2041.96,1374.04 2044.32,1374.09 
  2046.67,1374.08 2049.03,1374 2051.38,1373.87 2053.73,1373.66 2056.09,1373.4 2058.44,1373.06 2060.8,1372.67 2063.15,1372.2 2065.51,1371.67 2067.86,1371.07 
  2070.22,1370.4 2072.57,1369.67 2074.93,1368.86 2077.28,1367.99 2079.63,1367.04 2081.99,1366.02 2084.34,1364.93 2086.7,1363.77 2089.05,1362.54 2091.41,1361.23 
  2093.76,1359.84 2096.12,1358.39 2098.47,1356.85 2100.82,1355.24 2103.18,1353.55 2105.53,1351.79 2107.89,1349.94 2110.24,1348.02 2112.6,1346.01 2114.95,1343.93 
  2117.31,1341.77 2119.66,1339.52 2122.02,1337.19 2124.37,1334.78 2126.72,1332.29 2129.08,1329.71 2131.43,1327.04 2133.79,1324.29 2136.14,1321.46 2138.5,1318.53 
  2140.85,1315.52 2143.21,1312.42 2145.56,1309.23 2147.91,1305.95 2150.27,1302.58 2152.62,1299.12 2154.98,1295.57 2157.33,1291.93 2159.69,1288.19 2162.04,1284.36 
  2164.4,1280.43 2166.75,1276.41 2169.11,1272.29 2171.46,1268.08 2173.81,1263.77 2176.17,1259.36 2178.52,1254.85 2180.88,1250.24 2183.23,1245.54 2185.59,1240.73 
  2187.94,1235.82 2190.3,1230.8 2192.65,1225.69 2195,1220.47 2197.36,1215.14 2199.71,1209.71 2202.07,1204.17 2204.42,1198.53 2206.78,1192.78 2209.13,1186.92 
  2211.49,1180.96 2213.84,1174.88 2216.2,1168.69 2218.55,1162.39 2220.9,1155.98 2223.26,1149.46 2225.61,1142.82 2227.97,1136.07 2230.32,1129.2 2232.68,1122.22 
  2235.03,1115.12 2237.39,1107.91 2239.74,1100.57 2242.09,1093.12 2244.45,1085.55 2246.8,1077.86 2249.16,1070.05 2251.51,1062.11 2253.87,1054.05 2256.22,1045.87 
  2258.58,1037.57 2260.93,1029.14 2263.29,1020.58 2265.64,1011.9 2267.99,1003.09 2270.35,994.157 2272.7,985.092 2275.06,975.896 2277.41,966.57 2279.77,957.114 
  2282.12,947.525 2284.48,937.803 2286.83,927.948 2289.18,917.958 2291.54,907.833 2293.89,897.572 2296.25,887.175 2298.6,876.639 2300.96,865.966 2303.31,855.153 
  2305.67,844.2 2308.02,833.106 2310.37,821.87 2312.73,810.492 2315.08,798.971 2317.44,787.305 2319.79,775.495 2322.15,763.538 2324.5,751.435 2326.86,739.185 
  2329.21,726.786 2331.57,714.238 2333.92,701.54 2336.27,688.691 2338.63,675.691 2340.98,662.538 2343.34,649.232 2345.69,635.771 2348.05,622.155 2350.4,608.384 
  2352.76,594.456 
  "/>
<circle clip-path="url(#clip992)" cx="619.846" cy="1228.02" r="28.8" fill="#0000ff" fill-rule="evenodd" fill-opacity="1" stroke="#000000" stroke-opacity="1" stroke-width="3.2"/>
<circle clip-path="url(#clip992)" cx="2044.32" cy="1374.09" r="43.2" fill="#ff0000" fill-rule="evenodd" fill-opacity="1" stroke="#000000" stroke-opacity="1" stroke-width="3.2"/>
<circle clip-path="url(#clip992)" cx="389.175" cy="854.868" r="21.6" fill="#000000" fill-rule="evenodd" fill-opacity="1" stroke="none"/>
<circle clip-path="url(#clip992)" cx="973.768" cy="867.363" r="21.6" fill="#000000" fill-rule="evenodd" fill-opacity="1" stroke="none"/>
<circle clip-path="url(#clip992)" cx="1714.56" cy="1006.02" r="21.6" fill="#000000" fill-rule="evenodd" fill-opacity="1" stroke="none"/>
<circle clip-path="url(#clip992)" cx="1565.03" cy="787.919" r="21.6" fill="#000000" fill-rule="evenodd" fill-opacity="1" stroke="none"/>
<circle clip-path="url(#clip992)" cx="2172.49" cy="1266.21" r="21.6" fill="#000000" fill-rule="evenodd" fill-opacity="1" stroke="none"/>
<path clip-path="url(#clip990)" d="
M1498.45 328.167 L2282.12 328.167 L2282.12 94.8869 L1498.45 94.8869  Z
  " fill="#ffffff" fill-rule="evenodd" fill-opacity="1"/>
<polyline clip-path="url(#clip990)" style="stroke:#000000; stroke-linecap:round; stroke-linejoin:round; stroke-width:4; stroke-opacity:1; fill:none" points="
  1498.45,328.167 2282.12,328.167 2282.12,94.8869 1498.45,94.8869 1498.45,328.167 
  "/>
<circle clip-path="url(#clip990)" cx="1592.63" cy="172.647" r="34.56" fill="#0000ff" fill-rule="evenodd" fill-opacity="1" stroke="#000000" stroke-opacity="1" stroke-width="3.84"/>
<path clip-path="url(#clip990)" d="M1686.81 146.727 L1693.82 146.727 L1693.82 192.664 L1719.07 192.664 L1719.07 198.567 L1686.81 198.567 L1686.81 146.727 Z" fill="#000000" fill-rule="evenodd" fill-opacity="1" /><path clip-path="url(#clip990)" d="M1739.97 164.157 Q1734.83 164.157 1731.84 168.185 Q1728.86 172.178 1728.86 179.157 Q1728.86 186.136 1731.81 190.164 Q1734.79 194.157 1739.97 194.157 Q1745.07 194.157 1748.06 190.129 Q1751.04 186.102 1751.04 179.157 Q1751.04 172.248 1748.06 168.22 Q1745.07 164.157 1739.97 164.157 M1739.97 158.741 Q1748.3 158.741 1753.06 164.157 Q1757.81 169.574 1757.81 179.157 Q1757.81 188.706 1753.06 194.157 Q1748.3 199.574 1739.97 199.574 Q1731.6 199.574 1726.84 194.157 Q1722.12 188.706 1722.12 179.157 Q1722.12 169.574 1726.84 164.157 Q1731.6 158.741 1739.97 158.741 Z" fill="#000000" fill-rule="evenodd" fill-opacity="1" /><path clip-path="url(#clip990)" d="M1796.39 161.171 L1796.39 167.143 Q1793.68 165.65 1790.94 164.921 Q1788.23 164.157 1785.45 164.157 Q1779.24 164.157 1775.8 168.116 Q1772.36 172.039 1772.36 179.157 Q1772.36 186.275 1775.8 190.234 Q1779.24 194.157 1785.45 194.157 Q1788.23 194.157 1790.94 193.428 Q1793.68 192.664 1796.39 191.171 L1796.39 197.074 Q1793.72 198.324 1790.84 198.949 Q1787.99 199.574 1784.76 199.574 Q1775.97 199.574 1770.8 194.053 Q1765.63 188.532 1765.63 179.157 Q1765.63 169.643 1770.84 164.192 Q1776.08 158.741 1785.18 158.741 Q1788.13 158.741 1790.94 159.366 Q1793.75 159.956 1796.39 161.171 Z" fill="#000000" fill-rule="evenodd" fill-opacity="1" /><path clip-path="url(#clip990)" d="M1825.18 179.018 Q1817.43 179.018 1814.45 180.789 Q1811.46 182.56 1811.46 186.831 Q1811.46 190.234 1813.68 192.247 Q1815.94 194.227 1819.79 194.227 Q1825.11 194.227 1828.3 190.477 Q1831.53 186.692 1831.53 180.442 L1831.53 179.018 L1825.18 179.018 M1837.92 176.38 L1837.92 198.567 L1831.53 198.567 L1831.53 192.664 Q1829.34 196.206 1826.08 197.907 Q1822.81 199.574 1818.09 199.574 Q1812.12 199.574 1808.58 196.241 Q1805.07 192.872 1805.07 187.248 Q1805.07 180.685 1809.45 177.352 Q1813.86 174.018 1822.57 174.018 L1831.53 174.018 L1831.53 173.393 Q1831.53 168.984 1828.61 166.588 Q1825.73 164.157 1820.49 164.157 Q1817.15 164.157 1814 164.956 Q1810.84 165.755 1807.92 167.352 L1807.92 161.449 Q1811.43 160.095 1814.72 159.435 Q1818.02 158.741 1821.15 158.741 Q1829.59 158.741 1833.75 163.116 Q1837.92 167.491 1837.92 176.38 Z" fill="#000000" fill-rule="evenodd" fill-opacity="1" /><path clip-path="url(#clip990)" d="M1851.08 144.539 L1857.47 144.539 L1857.47 198.567 L1851.08 198.567 L1851.08 144.539 Z" fill="#000000" fill-rule="evenodd" fill-opacity="1" /><path clip-path="url(#clip990)" d="M1914.76 151.484 Q1907.12 151.484 1902.61 157.178 Q1898.13 162.873 1898.13 172.699 Q1898.13 182.491 1902.61 188.185 Q1907.12 193.879 1914.76 193.879 Q1922.4 193.879 1926.84 188.185 Q1931.32 182.491 1931.32 172.699 Q1931.32 162.873 1926.84 157.178 Q1922.4 151.484 1914.76 151.484 M1914.76 145.789 Q1925.66 145.789 1932.19 153.116 Q1938.72 160.407 1938.72 172.699 Q1938.72 184.956 1932.19 192.282 Q1925.66 199.574 1914.76 199.574 Q1903.82 199.574 1897.26 192.282 Q1890.73 184.991 1890.73 172.699 Q1890.73 160.407 1897.26 153.116 Q1903.82 145.789 1914.76 145.789 Z" fill="#000000" fill-rule="evenodd" fill-opacity="1" /><path clip-path="url(#clip990)" d="M1955.59 192.734 L1955.59 213.358 L1949.17 213.358 L1949.17 159.678 L1955.59 159.678 L1955.59 165.581 Q1957.61 162.109 1960.66 160.442 Q1963.75 158.741 1968.02 158.741 Q1975.11 158.741 1979.52 164.366 Q1983.96 169.991 1983.96 179.157 Q1983.96 188.324 1979.52 193.949 Q1975.11 199.574 1968.02 199.574 Q1963.75 199.574 1960.66 197.907 Q1957.61 196.206 1955.59 192.734 M1977.33 179.157 Q1977.33 172.109 1974.41 168.116 Q1971.53 164.088 1966.46 164.088 Q1961.39 164.088 1958.47 168.116 Q1955.59 172.109 1955.59 179.157 Q1955.59 186.206 1958.47 190.234 Q1961.39 194.227 1966.46 194.227 Q1971.53 194.227 1974.41 190.234 Q1977.33 186.206 1977.33 179.157 Z" fill="#000000" fill-rule="evenodd" fill-opacity="1" /><path clip-path="url(#clip990)" d="M2000.87 148.637 L2000.87 159.678 L2014.03 159.678 L2014.03 164.643 L2000.87 164.643 L2000.87 185.754 Q2000.87 190.511 2002.15 191.866 Q2003.47 193.22 2007.47 193.22 L2014.03 193.22 L2014.03 198.567 L2007.47 198.567 Q2000.07 198.567 1997.26 195.824 Q1994.45 193.046 1994.45 185.754 L1994.45 164.643 L1989.76 164.643 L1989.76 159.678 L1994.45 159.678 L1994.45 148.637 L2000.87 148.637 Z" fill="#000000" fill-rule="evenodd" fill-opacity="1" /><path clip-path="url(#clip990)" d="M2022.43 159.678 L2028.82 159.678 L2028.82 198.567 L2022.43 198.567 L2022.43 159.678 M2022.43 144.539 L2028.82 144.539 L2028.82 152.63 L2022.43 152.63 L2022.43 144.539 Z" fill="#000000" fill-rule="evenodd" fill-opacity="1" /><path clip-path="url(#clip990)" d="M2072.47 167.143 Q2074.86 162.838 2078.2 160.789 Q2081.53 158.741 2086.04 158.741 Q2092.12 158.741 2095.42 163.012 Q2098.72 167.248 2098.72 175.095 L2098.72 198.567 L2092.29 198.567 L2092.29 175.303 Q2092.29 169.713 2090.31 167.005 Q2088.33 164.296 2084.27 164.296 Q2079.31 164.296 2076.42 167.595 Q2073.54 170.893 2073.54 176.588 L2073.54 198.567 L2067.12 198.567 L2067.12 175.303 Q2067.12 169.678 2065.14 167.005 Q2063.16 164.296 2059.03 164.296 Q2054.13 164.296 2051.25 167.63 Q2048.37 170.928 2048.37 176.588 L2048.37 198.567 L2041.95 198.567 L2041.95 159.678 L2048.37 159.678 L2048.37 165.72 Q2050.56 162.143 2053.61 160.442 Q2056.67 158.741 2060.87 158.741 Q2065.1 158.741 2068.06 160.893 Q2071.04 163.046 2072.47 167.143 Z" fill="#000000" fill-rule="evenodd" fill-opacity="1" /><path clip-path="url(#clip990)" d="M2110.8 183.22 L2110.8 159.678 L2117.19 159.678 L2117.19 182.977 Q2117.19 188.497 2119.34 191.275 Q2121.49 194.018 2125.8 194.018 Q2130.97 194.018 2133.96 190.72 Q2136.98 187.421 2136.98 181.727 L2136.98 159.678 L2143.37 159.678 L2143.37 198.567 L2136.98 198.567 L2136.98 192.595 Q2134.65 196.136 2131.56 197.872 Q2128.51 199.574 2124.44 199.574 Q2117.74 199.574 2114.27 195.407 Q2110.8 191.241 2110.8 183.22 M2126.88 158.741 L2126.88 158.741 Z" fill="#000000" fill-rule="evenodd" fill-opacity="1" /><path clip-path="url(#clip990)" d="M2186.81 167.143 Q2189.2 162.838 2192.53 160.789 Q2195.87 158.741 2200.38 158.741 Q2206.46 158.741 2209.76 163.012 Q2213.06 167.248 2213.06 175.095 L2213.06 198.567 L2206.63 198.567 L2206.63 175.303 Q2206.63 169.713 2204.65 167.005 Q2202.67 164.296 2198.61 164.296 Q2193.65 164.296 2190.76 167.595 Q2187.88 170.893 2187.88 176.588 L2187.88 198.567 L2181.46 198.567 L2181.46 175.303 Q2181.46 169.678 2179.48 167.005 Q2177.5 164.296 2173.37 164.296 Q2168.47 164.296 2165.59 167.63 Q2162.71 170.928 2162.71 176.588 L2162.71 198.567 L2156.28 198.567 L2156.28 159.678 L2162.71 159.678 L2162.71 165.72 Q2164.9 162.143 2167.95 160.442 Q2171.01 158.741 2175.21 158.741 Q2179.44 158.741 2182.4 160.893 Q2185.38 163.046 2186.81 167.143 Z" fill="#000000" fill-rule="evenodd" fill-opacity="1" /><circle clip-path="url(#clip990)" cx="1592.63" cy="250.407" r="34.56" fill="#ff0000" fill-rule="evenodd" fill-opacity="1" stroke="#000000" stroke-opacity="1" stroke-width="2.56"/>
<path clip-path="url(#clip990)" d="M1725.14 268.931 L1725.14 255.008 L1713.68 255.008 L1713.68 249.244 L1732.09 249.244 L1732.09 271.501 Q1728.02 274.382 1723.13 275.876 Q1718.23 277.334 1712.68 277.334 Q1700.52 277.334 1693.65 270.251 Q1686.81 263.133 1686.81 250.459 Q1686.81 237.751 1693.65 230.667 Q1700.52 223.549 1712.68 223.549 Q1717.75 223.549 1722.29 224.799 Q1726.88 226.049 1730.73 228.48 L1730.73 235.945 Q1726.84 232.647 1722.47 230.98 Q1718.09 229.313 1713.27 229.313 Q1703.75 229.313 1698.96 234.626 Q1694.2 239.938 1694.2 250.459 Q1694.2 260.945 1698.96 266.257 Q1703.75 271.57 1713.27 271.57 Q1716.98 271.57 1719.9 270.945 Q1722.81 270.285 1725.14 268.931 Z" fill="#000000" fill-rule="evenodd" fill-opacity="1" /><path clip-path="url(#clip990)" d="M1744.62 222.299 L1751.01 222.299 L1751.01 276.327 L1744.62 276.327 L1744.62 222.299 Z" fill="#000000" fill-rule="evenodd" fill-opacity="1" /><path clip-path="url(#clip990)" d="M1779.45 241.917 Q1774.31 241.917 1771.32 245.945 Q1768.34 249.938 1768.34 256.917 Q1768.34 263.896 1771.29 267.924 Q1774.27 271.917 1779.45 271.917 Q1784.55 271.917 1787.54 267.889 Q1790.52 263.862 1790.52 256.917 Q1790.52 250.008 1787.54 245.98 Q1784.55 241.917 1779.45 241.917 M1779.45 236.501 Q1787.78 236.501 1792.54 241.917 Q1797.29 247.334 1797.29 256.917 Q1797.29 266.466 1792.54 271.917 Q1787.78 277.334 1779.45 277.334 Q1771.08 277.334 1766.32 271.917 Q1761.6 266.466 1761.6 256.917 Q1761.6 247.334 1766.32 241.917 Q1771.08 236.501 1779.45 236.501 Z" fill="#000000" fill-rule="evenodd" fill-opacity="1" /><path clip-path="url(#clip990)" d="M1835.8 256.917 Q1835.8 249.869 1832.88 245.876 Q1830 241.848 1824.93 241.848 Q1819.86 241.848 1816.95 245.876 Q1814.06 249.869 1814.06 256.917 Q1814.06 263.966 1816.95 267.994 Q1819.86 271.987 1824.93 271.987 Q1830 271.987 1832.88 267.994 Q1835.8 263.966 1835.8 256.917 M1814.06 243.341 Q1816.08 239.869 1819.13 238.202 Q1822.22 236.501 1826.49 236.501 Q1833.58 236.501 1837.99 242.126 Q1842.43 247.751 1842.43 256.917 Q1842.43 266.084 1837.99 271.709 Q1833.58 277.334 1826.49 277.334 Q1822.22 277.334 1819.13 275.667 Q1816.08 273.966 1814.06 270.494 L1814.06 276.327 L1807.64 276.327 L1807.64 222.299 L1814.06 222.299 L1814.06 243.341 Z" fill="#000000" fill-rule="evenodd" fill-opacity="1" /><path clip-path="url(#clip990)" d="M1870.7 256.778 Q1862.95 256.778 1859.97 258.549 Q1856.98 260.32 1856.98 264.591 Q1856.98 267.994 1859.2 270.007 Q1861.46 271.987 1865.31 271.987 Q1870.63 271.987 1873.82 268.237 Q1877.05 264.452 1877.05 258.202 L1877.05 256.778 L1870.7 256.778 M1883.44 254.14 L1883.44 276.327 L1877.05 276.327 L1877.05 270.424 Q1874.86 273.966 1871.6 275.667 Q1868.34 277.334 1863.61 277.334 Q1857.64 277.334 1854.1 274.001 Q1850.59 270.632 1850.59 265.008 Q1850.59 258.445 1854.97 255.112 Q1859.38 251.778 1868.09 251.778 L1877.05 251.778 L1877.05 251.153 Q1877.05 246.744 1874.13 244.348 Q1871.25 241.917 1866.01 241.917 Q1862.68 241.917 1859.52 242.716 Q1856.36 243.515 1853.44 245.112 L1853.44 239.209 Q1856.95 237.855 1860.24 237.195 Q1863.54 236.501 1866.67 236.501 Q1875.11 236.501 1879.27 240.876 Q1883.44 245.251 1883.44 254.14 Z" fill="#000000" fill-rule="evenodd" fill-opacity="1" /><path clip-path="url(#clip990)" d="M1896.6 222.299 L1902.99 222.299 L1902.99 276.327 L1896.6 276.327 L1896.6 222.299 Z" fill="#000000" fill-rule="evenodd" fill-opacity="1" /><path clip-path="url(#clip990)" d="M1960.28 229.244 Q1952.64 229.244 1948.13 234.938 Q1943.65 240.633 1943.65 250.459 Q1943.65 260.251 1948.13 265.945 Q1952.64 271.639 1960.28 271.639 Q1967.92 271.639 1972.36 265.945 Q1976.84 260.251 1976.84 250.459 Q1976.84 240.633 1972.36 234.938 Q1967.92 229.244 1960.28 229.244 M1960.28 223.549 Q1971.18 223.549 1977.71 230.876 Q1984.24 238.167 1984.24 250.459 Q1984.24 262.716 1977.71 270.042 Q1971.18 277.334 1960.28 277.334 Q1949.34 277.334 1942.78 270.042 Q1936.25 262.751 1936.25 250.459 Q1936.25 238.167 1942.78 230.876 Q1949.34 223.549 1960.28 223.549 Z" fill="#000000" fill-rule="evenodd" fill-opacity="1" /><path clip-path="url(#clip990)" d="M2001.11 270.494 L2001.11 291.118 L1994.69 291.118 L1994.69 237.438 L2001.11 237.438 L2001.11 243.341 Q2003.13 239.869 2006.18 238.202 Q2009.27 236.501 2013.54 236.501 Q2020.63 236.501 2025.04 242.126 Q2029.48 247.751 2029.48 256.917 Q2029.48 266.084 2025.04 271.709 Q2020.63 277.334 2013.54 277.334 Q2009.27 277.334 2006.18 275.667 Q2003.13 273.966 2001.11 270.494 M2022.85 256.917 Q2022.85 249.869 2019.93 245.876 Q2017.05 241.848 2011.98 241.848 Q2006.91 241.848 2003.99 245.876 Q2001.11 249.869 2001.11 256.917 Q2001.11 263.966 2003.99 267.994 Q2006.91 271.987 2011.98 271.987 Q2017.05 271.987 2019.93 267.994 Q2022.85 263.966 2022.85 256.917 Z" fill="#000000" fill-rule="evenodd" fill-opacity="1" /><path clip-path="url(#clip990)" d="M2046.39 226.397 L2046.39 237.438 L2059.55 237.438 L2059.55 242.403 L2046.39 242.403 L2046.39 263.514 Q2046.39 268.271 2047.67 269.626 Q2048.99 270.98 2052.99 270.98 L2059.55 270.98 L2059.55 276.327 L2052.99 276.327 Q2045.59 276.327 2042.78 273.584 Q2039.97 270.806 2039.97 263.514 L2039.97 242.403 L2035.28 242.403 L2035.28 237.438 L2039.97 237.438 L2039.97 226.397 L2046.39 226.397 Z" fill="#000000" fill-rule="evenodd" fill-opacity="1" /><path clip-path="url(#clip990)" d="M2067.95 237.438 L2074.34 237.438 L2074.34 276.327 L2067.95 276.327 L2067.95 237.438 M2067.95 222.299 L2074.34 222.299 L2074.34 230.39 L2067.95 230.39 L2067.95 222.299 Z" fill="#000000" fill-rule="evenodd" fill-opacity="1" /><path clip-path="url(#clip990)" d="M2117.99 244.903 Q2120.38 240.598 2123.72 238.549 Q2127.05 236.501 2131.56 236.501 Q2137.64 236.501 2140.94 240.772 Q2144.24 245.008 2144.24 252.855 L2144.24 276.327 L2137.81 276.327 L2137.81 253.063 Q2137.81 247.473 2135.83 244.765 Q2133.85 242.056 2129.79 242.056 Q2124.83 242.056 2121.94 245.355 Q2119.06 248.653 2119.06 254.348 L2119.06 276.327 L2112.64 276.327 L2112.64 253.063 Q2112.64 247.438 2110.66 244.765 Q2108.68 242.056 2104.55 242.056 Q2099.65 242.056 2096.77 245.39 Q2093.89 248.688 2093.89 254.348 L2093.89 276.327 L2087.47 276.327 L2087.47 237.438 L2093.89 237.438 L2093.89 243.48 Q2096.08 239.903 2099.13 238.202 Q2102.19 236.501 2106.39 236.501 Q2110.63 236.501 2113.58 238.653 Q2116.56 240.806 2117.99 244.903 Z" fill="#000000" fill-rule="evenodd" fill-opacity="1" /><path clip-path="url(#clip990)" d="M2156.32 260.98 L2156.32 237.438 L2162.71 237.438 L2162.71 260.737 Q2162.71 266.257 2164.86 269.035 Q2167.01 271.778 2171.32 271.778 Q2176.49 271.778 2179.48 268.48 Q2182.5 265.181 2182.5 259.487 L2182.5 237.438 L2188.89 237.438 L2188.89 276.327 L2182.5 276.327 L2182.5 270.355 Q2180.17 273.896 2177.08 275.632 Q2174.03 277.334 2169.97 277.334 Q2163.26 277.334 2159.79 273.167 Q2156.32 269.001 2156.32 260.98 M2172.4 236.501 L2172.4 236.501 Z" fill="#000000" fill-rule="evenodd" fill-opacity="1" /><path clip-path="url(#clip990)" d="M2232.33 244.903 Q2234.72 240.598 2238.06 238.549 Q2241.39 236.501 2245.9 236.501 Q2251.98 236.501 2255.28 240.772 Q2258.58 245.008 2258.58 252.855 L2258.58 276.327 L2252.15 276.327 L2252.15 253.063 Q2252.15 247.473 2250.17 244.765 Q2248.19 242.056 2244.13 242.056 Q2239.17 242.056 2236.28 245.355 Q2233.4 248.653 2233.4 254.348 L2233.4 276.327 L2226.98 276.327 L2226.98 253.063 Q2226.98 247.438 2225 244.765 Q2223.02 242.056 2218.89 242.056 Q2213.99 242.056 2211.11 245.39 Q2208.23 248.688 2208.23 254.348 L2208.23 276.327 L2201.81 276.327 L2201.81 237.438 L2208.23 237.438 L2208.23 243.48 Q2210.42 239.903 2213.47 238.202 Q2216.53 236.501 2220.73 236.501 Q2224.97 236.501 2227.92 238.653 Q2230.9 240.806 2232.33 244.903 Z" fill="#000000" fill-rule="evenodd" fill-opacity="1" /><path clip-path="url(#clip990)" d="M509.443 829.576 Q509.443 831.872 508.008 833.183 Q506.574 834.454 504.934 834.454 Q503.376 834.454 502.557 833.552 Q501.737 832.651 501.737 831.503 Q501.737 829.945 502.885 828.593 Q504.032 827.24 505.754 826.953 Q504.073 825.887 501.573 825.887 Q499.933 825.887 498.499 826.748 Q497.105 827.609 496.244 828.716 Q495.424 829.822 494.687 831.421 Q493.99 832.978 493.703 833.921 Q493.457 834.823 493.252 835.807 L490.383 847.284 Q488.989 852.735 488.989 854.662 Q488.989 857.039 490.137 858.638 Q491.285 860.195 493.58 860.195 Q494.482 860.195 495.506 859.949 Q496.531 859.662 497.843 858.925 Q499.195 858.146 500.384 856.998 Q501.614 855.809 502.803 853.801 Q503.991 851.793 504.77 849.21 Q505.016 848.308 505.836 848.308 Q506.86 848.308 506.86 849.128 Q506.86 849.825 506.287 851.301 Q505.754 852.735 504.565 854.621 Q503.417 856.465 501.901 858.146 Q500.384 859.785 498.13 860.933 Q495.875 862.081 493.416 862.081 Q489.891 862.081 487.555 860.195 Q485.218 858.31 484.357 855.687 Q484.152 856.055 483.866 856.547 Q483.579 857.039 482.718 858.146 Q481.898 859.212 480.955 860.031 Q480.013 860.81 478.537 861.425 Q477.102 862.081 475.545 862.081 Q473.577 862.081 471.815 861.507 Q470.093 860.933 468.863 859.621 Q467.634 858.31 467.634 856.506 Q467.634 854.498 468.986 853.104 Q470.38 851.67 472.266 851.67 Q473.454 851.67 474.397 852.366 Q475.381 853.063 475.381 854.58 Q475.381 856.26 474.233 857.531 Q473.085 858.802 471.446 859.13 Q473.126 860.195 475.627 860.195 Q478.332 860.195 480.463 857.818 Q482.595 855.441 483.62 851.465 Q486.161 841.914 487.145 837.651 Q488.128 833.347 488.128 831.503 Q488.128 829.781 487.678 828.593 Q487.227 827.404 486.448 826.871 Q485.71 826.297 485.013 826.092 Q484.357 825.887 483.62 825.887 Q482.39 825.887 480.996 826.379 Q479.644 826.871 478.004 828.019 Q476.405 829.125 474.889 831.421 Q473.372 833.716 472.348 836.872 Q472.143 837.815 471.241 837.815 Q470.257 837.774 470.257 836.954 Q470.257 836.258 470.79 834.823 Q471.364 833.347 472.511 831.503 Q473.7 829.658 475.217 828.019 Q476.774 826.338 479.029 825.19 Q481.324 824.043 483.784 824.043 Q484.89 824.043 485.956 824.289 Q487.063 824.494 488.374 825.109 Q489.727 825.723 490.916 827.076 Q492.104 828.429 492.842 830.396 Q493.334 829.453 493.99 828.552 Q494.687 827.65 495.752 826.543 Q496.859 825.395 498.376 824.74 Q499.933 824.043 501.655 824.043 Q503.335 824.043 504.975 824.494 Q506.615 824.904 508.008 826.256 Q509.443 827.568 509.443 829.576 Z" fill="#000000" fill-rule="evenodd" fill-opacity="1" /><path clip-path="url(#clip990)" d="M518 851.792 L518 849.955 Q525.058 849.955 528.702 846.197 Q529.707 846.197 529.879 846.426 Q530.051 846.656 530.051 847.717 L530.051 880.685 Q530.051 882.435 530.912 882.98 Q531.772 883.525 535.531 883.525 L537.396 883.525 L537.396 885.333 Q535.33 885.161 527.87 885.161 Q520.41 885.161 518.373 885.333 L518.373 883.525 L520.238 883.525 Q523.939 883.525 524.829 883.009 Q525.718 882.464 525.718 880.685 L525.718 850.242 Q522.648 851.792 518 851.792 Z" fill="#000000" fill-rule="evenodd" fill-opacity="1" /><path clip-path="url(#clip990)" d="M1092.02 842.071 Q1092.02 844.367 1090.58 845.678 Q1089.15 846.949 1087.51 846.949 Q1085.95 846.949 1085.13 846.047 Q1084.31 845.146 1084.31 843.998 Q1084.31 842.44 1085.46 841.088 Q1086.61 839.735 1088.33 839.448 Q1086.65 838.382 1084.15 838.382 Q1082.51 838.382 1081.07 839.243 Q1079.68 840.104 1078.82 841.211 Q1078 842.317 1077.26 843.916 Q1076.56 845.474 1076.28 846.416 Q1076.03 847.318 1075.83 848.302 L1072.96 859.779 Q1071.56 865.23 1071.56 867.157 Q1071.56 869.534 1072.71 871.133 Q1073.86 872.69 1076.15 872.69 Q1077.06 872.69 1078.08 872.444 Q1079.11 872.158 1080.42 871.42 Q1081.77 870.641 1082.96 869.493 Q1084.19 868.305 1085.38 866.296 Q1086.57 864.288 1087.34 861.705 Q1087.59 860.804 1088.41 860.804 Q1089.44 860.804 1089.44 861.623 Q1089.44 862.32 1088.86 863.796 Q1088.33 865.23 1087.14 867.116 Q1085.99 868.96 1084.48 870.641 Q1082.96 872.281 1080.7 873.428 Q1078.45 874.576 1075.99 874.576 Q1072.47 874.576 1070.13 872.69 Q1067.79 870.805 1066.93 868.182 Q1066.73 868.55 1066.44 869.042 Q1066.15 869.534 1065.29 870.641 Q1064.47 871.707 1063.53 872.526 Q1062.59 873.305 1061.11 873.92 Q1059.68 874.576 1058.12 874.576 Q1056.15 874.576 1054.39 874.002 Q1052.67 873.428 1051.44 872.117 Q1050.21 870.805 1050.21 869.001 Q1050.21 866.993 1051.56 865.599 Q1052.95 864.165 1054.84 864.165 Q1056.03 864.165 1056.97 864.861 Q1057.96 865.558 1057.96 867.075 Q1057.96 868.755 1056.81 870.026 Q1055.66 871.297 1054.02 871.625 Q1055.7 872.69 1058.2 872.69 Q1060.91 872.69 1063.04 870.313 Q1065.17 867.936 1066.19 863.96 Q1068.74 854.409 1069.72 850.146 Q1070.7 845.842 1070.7 843.998 Q1070.7 842.276 1070.25 841.088 Q1069.8 839.899 1069.02 839.366 Q1068.28 838.792 1067.59 838.587 Q1066.93 838.382 1066.19 838.382 Q1064.96 838.382 1063.57 838.874 Q1062.22 839.366 1060.58 840.514 Q1058.98 841.621 1057.46 843.916 Q1055.95 846.211 1054.92 849.368 Q1054.72 850.31 1053.82 850.31 Q1052.83 850.269 1052.83 849.449 Q1052.83 848.753 1053.36 847.318 Q1053.94 845.842 1055.09 843.998 Q1056.27 842.153 1057.79 840.514 Q1059.35 838.833 1061.6 837.686 Q1063.9 836.538 1066.36 836.538 Q1067.46 836.538 1068.53 836.784 Q1069.64 836.989 1070.95 837.604 Q1072.3 838.218 1073.49 839.571 Q1074.68 840.924 1075.42 842.891 Q1075.91 841.948 1076.56 841.047 Q1077.26 840.145 1078.33 839.038 Q1079.43 837.891 1080.95 837.235 Q1082.51 836.538 1084.23 836.538 Q1085.91 836.538 1087.55 836.989 Q1089.19 837.399 1090.58 838.751 Q1092.02 840.063 1092.02 842.071 Z" fill="#000000" fill-rule="evenodd" fill-opacity="1" /><path clip-path="url(#clip990)" d="M1100.57 897.828 Q1100.57 896.767 1100.66 896.451 Q1100.78 896.135 1101.23 895.648 L1112.51 883.08 Q1118.68 876.137 1118.68 870.083 Q1118.68 866.152 1116.61 863.34 Q1114.58 860.528 1110.82 860.528 Q1108.24 860.528 1106.05 862.106 Q1103.87 863.684 1102.87 866.496 Q1103.04 866.439 1103.64 866.439 Q1105.11 866.439 1105.91 867.357 Q1106.74 868.275 1106.74 869.509 Q1106.74 871.087 1105.71 871.861 Q1104.71 872.607 1103.7 872.607 Q1103.3 872.607 1102.76 872.521 Q1102.24 872.435 1101.41 871.632 Q1100.57 870.8 1100.57 869.337 Q1100.57 865.233 1103.67 861.963 Q1106.8 858.692 1111.56 858.692 Q1116.96 858.692 1120.49 861.905 Q1124.05 865.09 1124.05 870.083 Q1124.05 871.833 1123.5 873.44 Q1122.98 875.018 1122.27 876.251 Q1121.58 877.485 1119.68 879.465 Q1117.79 881.445 1116.27 882.851 Q1114.75 884.257 1111.33 887.241 L1105.11 893.295 L1115.7 893.295 Q1120.86 893.295 1121.26 892.836 Q1121.84 892.004 1122.55 887.614 L1124.05 887.614 L1122.38 897.828 L1100.57 897.828 Z" fill="#000000" fill-rule="evenodd" fill-opacity="1" /><path clip-path="url(#clip990)" d="M1832.35 980.092 Q1832.35 982.387 1830.92 983.699 Q1829.48 984.97 1827.84 984.97 Q1826.28 984.97 1825.46 984.068 Q1824.65 983.166 1824.65 982.018 Q1824.65 980.461 1825.79 979.108 Q1826.94 977.755 1828.66 977.469 Q1826.98 976.403 1824.48 976.403 Q1822.84 976.403 1821.41 977.264 Q1820.01 978.124 1819.15 979.231 Q1818.33 980.338 1817.59 981.936 Q1816.9 983.494 1816.61 984.437 Q1816.37 985.338 1816.16 986.322 L1813.29 997.799 Q1811.9 1003.25 1811.9 1005.18 Q1811.9 1007.55 1813.05 1009.15 Q1814.19 1010.71 1816.49 1010.71 Q1817.39 1010.71 1818.41 1010.46 Q1819.44 1010.18 1820.75 1009.44 Q1822.1 1008.66 1823.29 1007.51 Q1824.52 1006.33 1825.71 1004.32 Q1826.9 1002.31 1827.68 999.726 Q1827.92 998.824 1828.74 998.824 Q1829.77 998.824 1829.77 999.644 Q1829.77 1000.34 1829.19 1001.82 Q1828.66 1003.25 1827.47 1005.14 Q1826.33 1006.98 1824.81 1008.66 Q1823.29 1010.3 1821.04 1011.45 Q1818.78 1012.6 1816.32 1012.6 Q1812.8 1012.6 1810.46 1010.71 Q1808.13 1008.83 1807.27 1006.2 Q1807.06 1006.57 1806.77 1007.06 Q1806.49 1007.55 1805.63 1008.66 Q1804.81 1009.73 1803.86 1010.55 Q1802.92 1011.33 1801.45 1011.94 Q1800.01 1012.6 1798.45 1012.6 Q1796.49 1012.6 1794.72 1012.02 Q1793 1011.45 1791.77 1010.14 Q1790.54 1008.83 1790.54 1007.02 Q1790.54 1005.01 1791.89 1003.62 Q1793.29 1002.19 1795.17 1002.19 Q1796.36 1002.19 1797.31 1002.88 Q1798.29 1003.58 1798.29 1005.1 Q1798.29 1006.78 1797.14 1008.05 Q1795.99 1009.32 1794.35 1009.65 Q1796.03 1010.71 1798.53 1010.71 Q1801.24 1010.71 1803.37 1008.33 Q1805.5 1005.96 1806.53 1001.98 Q1809.07 992.43 1810.05 988.167 Q1811.04 983.863 1811.04 982.018 Q1811.04 980.297 1810.59 979.108 Q1810.13 977.919 1809.36 977.387 Q1808.62 976.813 1807.92 976.608 Q1807.27 976.403 1806.53 976.403 Q1805.3 976.403 1803.9 976.895 Q1802.55 977.387 1800.91 978.534 Q1799.31 979.641 1797.8 981.936 Q1796.28 984.232 1795.26 987.388 Q1795.05 988.331 1794.15 988.331 Q1793.17 988.29 1793.17 987.47 Q1793.17 986.773 1793.7 985.338 Q1794.27 983.863 1795.42 982.018 Q1796.61 980.174 1798.13 978.534 Q1799.68 976.854 1801.94 975.706 Q1804.23 974.558 1806.69 974.558 Q1807.8 974.558 1808.86 974.804 Q1809.97 975.009 1811.28 975.624 Q1812.64 976.239 1813.82 977.592 Q1815.01 978.944 1815.75 980.912 Q1816.24 979.969 1816.9 979.067 Q1817.59 978.165 1818.66 977.059 Q1819.77 975.911 1821.28 975.255 Q1822.84 974.558 1824.56 974.558 Q1826.24 974.558 1827.88 975.009 Q1829.52 975.419 1830.92 976.772 Q1832.35 978.083 1832.35 980.092 Z" fill="#000000" fill-rule="evenodd" fill-opacity="1" /><path clip-path="url(#clip990)" d="M1840.91 1027.93 Q1840.91 1026.18 1841.91 1025.35 Q1842.92 1024.52 1844.21 1024.52 Q1845.56 1024.52 1846.5 1025.4 Q1847.48 1026.27 1847.48 1027.79 Q1847.48 1029.42 1846.33 1030.34 Q1845.21 1031.26 1843.61 1031.03 Q1845.01 1033.38 1847.59 1034.44 Q1850.2 1035.5 1852.61 1035.5 Q1855.14 1035.5 1857.18 1033.32 Q1859.24 1031.14 1859.24 1025.81 Q1859.24 1021.27 1857.46 1018.66 Q1855.71 1016.05 1852.24 1016.05 L1849.66 1016.05 Q1848.77 1016.05 1848.51 1015.96 Q1848.25 1015.88 1848.25 1015.39 Q1848.25 1014.82 1849.14 1014.7 Q1850.03 1014.7 1851.44 1014.53 Q1854.85 1014.42 1856.66 1011.46 Q1858.3 1008.71 1858.3 1004.77 Q1858.3 1001.19 1856.57 999.696 Q1854.88 998.175 1852.67 998.175 Q1850.61 998.175 1848.34 999.036 Q1846.07 999.897 1844.84 1001.82 Q1848.48 1001.82 1848.48 1004.77 Q1848.48 1006.07 1847.65 1006.93 Q1846.85 1007.76 1845.5 1007.76 Q1844.21 1007.76 1843.35 1006.96 Q1842.49 1006.12 1842.49 1004.72 Q1842.49 1001.36 1845.47 999.036 Q1848.48 996.712 1852.9 996.712 Q1857.26 996.712 1860.48 999.007 Q1863.72 1001.3 1863.72 1004.83 Q1863.72 1008.3 1861.42 1011.14 Q1859.13 1013.98 1855.48 1015.16 Q1859.96 1016.05 1862.63 1019.09 Q1865.3 1022.1 1865.3 1025.81 Q1865.3 1030.4 1861.68 1033.78 Q1858.07 1037.14 1852.79 1037.14 Q1847.91 1037.14 1844.41 1034.5 Q1840.91 1031.86 1840.91 1027.93 Z" fill="#000000" fill-rule="evenodd" fill-opacity="1" /><path clip-path="url(#clip990)" d="M1682 762.43 Q1682 764.725 1680.57 766.037 Q1679.13 767.307 1677.49 767.307 Q1675.93 767.307 1675.12 766.406 Q1674.3 765.504 1674.3 764.356 Q1674.3 762.799 1675.44 761.446 Q1676.59 760.093 1678.31 759.806 Q1676.63 758.741 1674.13 758.741 Q1672.49 758.741 1671.06 759.601 Q1669.66 760.462 1668.8 761.569 Q1667.98 762.676 1667.25 764.274 Q1666.55 765.832 1666.26 766.775 Q1666.02 767.676 1665.81 768.66 L1662.94 780.137 Q1661.55 785.589 1661.55 787.515 Q1661.55 789.893 1662.7 791.491 Q1663.84 793.049 1666.14 793.049 Q1667.04 793.049 1668.06 792.803 Q1669.09 792.516 1670.4 791.778 Q1671.75 790.999 1672.94 789.852 Q1674.17 788.663 1675.36 786.654 Q1676.55 784.646 1677.33 782.064 Q1677.57 781.162 1678.39 781.162 Q1679.42 781.162 1679.42 781.982 Q1679.42 782.678 1678.85 784.154 Q1678.31 785.589 1677.12 787.474 Q1675.98 789.319 1674.46 790.999 Q1672.94 792.639 1670.69 793.786 Q1668.43 794.934 1665.97 794.934 Q1662.45 794.934 1660.11 793.049 Q1657.78 791.163 1656.92 788.54 Q1656.71 788.909 1656.42 789.401 Q1656.14 789.893 1655.28 790.999 Q1654.46 792.065 1653.51 792.885 Q1652.57 793.664 1651.1 794.278 Q1649.66 794.934 1648.1 794.934 Q1646.14 794.934 1644.37 794.36 Q1642.65 793.786 1641.42 792.475 Q1640.19 791.163 1640.19 789.36 Q1640.19 787.351 1641.54 785.958 Q1642.94 784.523 1644.82 784.523 Q1646.01 784.523 1646.96 785.22 Q1647.94 785.917 1647.94 787.433 Q1647.94 789.114 1646.79 790.384 Q1645.64 791.655 1644 791.983 Q1645.68 793.049 1648.19 793.049 Q1650.89 793.049 1653.02 790.671 Q1655.15 788.294 1656.18 784.318 Q1658.72 774.767 1659.7 770.505 Q1660.69 766.201 1660.69 764.356 Q1660.69 762.635 1660.24 761.446 Q1659.79 760.257 1659.01 759.724 Q1658.27 759.151 1657.57 758.946 Q1656.92 758.741 1656.18 758.741 Q1654.95 758.741 1653.55 759.233 Q1652.2 759.724 1650.56 760.872 Q1648.96 761.979 1647.45 764.274 Q1645.93 766.57 1644.91 769.726 Q1644.7 770.669 1643.8 770.669 Q1642.82 770.628 1642.82 769.808 Q1642.82 769.111 1643.35 767.676 Q1643.92 766.201 1645.07 764.356 Q1646.26 762.512 1647.78 760.872 Q1649.33 759.192 1651.59 758.044 Q1653.88 756.896 1656.34 756.896 Q1657.45 756.896 1658.51 757.142 Q1659.62 757.347 1660.93 757.962 Q1662.29 758.577 1663.47 759.929 Q1664.66 761.282 1665.4 763.249 Q1665.89 762.307 1666.55 761.405 Q1667.25 760.503 1668.31 759.396 Q1669.42 758.249 1670.93 757.593 Q1672.49 756.896 1674.21 756.896 Q1675.89 756.896 1677.53 757.347 Q1679.17 757.757 1680.57 759.11 Q1682 760.421 1682 762.43 Z" fill="#000000" fill-rule="evenodd" fill-opacity="1" /><path clip-path="url(#clip990)" d="M1690.56 808.882 L1690.56 807.075 L1708.61 779.501 Q1709.07 778.784 1709.78 778.812 Q1710.44 778.812 1710.59 779.071 Q1710.73 779.329 1710.73 780.333 L1710.73 807.075 L1716.61 807.075 L1716.61 808.882 L1710.73 808.882 L1710.73 813.989 Q1710.73 815.682 1711.42 816.227 Q1712.14 816.773 1715.18 816.773 L1716.41 816.773 L1716.41 818.58 Q1714 818.408 1708.43 818.408 Q1702.9 818.408 1700.49 818.58 L1700.49 816.773 L1701.72 816.773 Q1704.76 816.773 1705.48 816.256 Q1706.2 815.711 1706.2 813.989 L1706.2 808.882 L1690.56 808.882 M1692.22 807.075 L1706.54 807.075 L1706.54 785.153 L1692.22 807.075 Z" fill="#000000" fill-rule="evenodd" fill-opacity="1" /><path clip-path="url(#clip990)" d="M2290.74 1240.28 Q2290.74 1242.58 2289.3 1243.89 Q2287.87 1245.16 2286.23 1245.16 Q2284.67 1245.16 2283.85 1244.26 Q2283.03 1243.35 2283.03 1242.21 Q2283.03 1240.65 2284.18 1239.3 Q2285.33 1237.94 2287.05 1237.66 Q2285.37 1236.59 2282.87 1236.59 Q2281.23 1236.59 2279.79 1237.45 Q2278.4 1238.31 2277.54 1239.42 Q2276.72 1240.53 2275.98 1242.13 Q2275.28 1243.68 2275 1244.63 Q2274.75 1245.53 2274.55 1246.51 L2271.68 1257.99 Q2270.28 1263.44 2270.28 1265.37 Q2270.28 1267.74 2271.43 1269.34 Q2272.58 1270.9 2274.87 1270.9 Q2275.78 1270.9 2276.8 1270.65 Q2277.82 1270.37 2279.14 1269.63 Q2280.49 1268.85 2281.68 1267.7 Q2282.91 1266.51 2284.1 1264.51 Q2285.28 1262.5 2286.06 1259.91 Q2286.31 1259.01 2287.13 1259.01 Q2288.15 1259.01 2288.15 1259.83 Q2288.15 1260.53 2287.58 1262 Q2287.05 1263.44 2285.86 1265.33 Q2284.71 1267.17 2283.19 1268.85 Q2281.68 1270.49 2279.42 1271.64 Q2277.17 1272.79 2274.71 1272.79 Q2271.18 1272.79 2268.85 1270.9 Q2266.51 1269.01 2265.65 1266.39 Q2265.45 1266.76 2265.16 1267.25 Q2264.87 1267.74 2264.01 1268.85 Q2263.19 1269.92 2262.25 1270.74 Q2261.31 1271.51 2259.83 1272.13 Q2258.4 1272.79 2256.84 1272.79 Q2254.87 1272.79 2253.11 1272.21 Q2251.39 1271.64 2250.16 1270.33 Q2248.93 1269.01 2248.93 1267.21 Q2248.93 1265.2 2250.28 1263.81 Q2251.67 1262.37 2253.56 1262.37 Q2254.75 1262.37 2255.69 1263.07 Q2256.67 1263.77 2256.67 1265.28 Q2256.67 1266.96 2255.53 1268.24 Q2254.38 1269.51 2252.74 1269.83 Q2254.42 1270.9 2256.92 1270.9 Q2259.63 1270.9 2261.76 1268.52 Q2263.89 1266.14 2264.91 1262.17 Q2267.45 1252.62 2268.44 1248.36 Q2269.42 1244.05 2269.42 1242.21 Q2269.42 1240.49 2268.97 1239.3 Q2268.52 1238.11 2267.74 1237.58 Q2267 1237 2266.31 1236.8 Q2265.65 1236.59 2264.91 1236.59 Q2263.68 1236.59 2262.29 1237.08 Q2260.94 1237.58 2259.3 1238.72 Q2257.7 1239.83 2256.18 1242.13 Q2254.67 1244.42 2253.64 1247.58 Q2253.44 1248.52 2252.53 1248.52 Q2251.55 1248.48 2251.55 1247.66 Q2251.55 1246.96 2252.08 1245.53 Q2252.66 1244.05 2253.8 1242.21 Q2254.99 1240.36 2256.51 1238.72 Q2258.07 1237.04 2260.32 1235.89 Q2262.62 1234.75 2265.08 1234.75 Q2266.18 1234.75 2267.25 1234.99 Q2268.36 1235.2 2269.67 1235.81 Q2271.02 1236.43 2272.21 1237.78 Q2273.4 1239.13 2274.14 1241.1 Q2274.63 1240.16 2275.28 1239.26 Q2275.98 1238.35 2277.05 1237.25 Q2278.15 1236.1 2279.67 1235.44 Q2281.23 1234.75 2282.95 1234.75 Q2284.63 1234.75 2286.27 1235.2 Q2287.91 1235.61 2289.3 1236.96 Q2290.74 1238.27 2290.74 1240.28 Z" fill="#000000" fill-rule="evenodd" fill-opacity="1" /><path clip-path="url(#clip990)" d="M2299.29 1286.57 Q2299.29 1284.82 2300.24 1284.16 Q2301.19 1283.47 2302.19 1283.47 Q2303.54 1283.47 2304.31 1284.33 Q2305.12 1285.16 2305.12 1286.34 Q2305.12 1287.52 2304.31 1288.38 Q2303.54 1289.21 2302.19 1289.21 Q2301.53 1289.21 2301.19 1289.09 Q2301.96 1291.79 2304.31 1293.74 Q2306.7 1295.69 2309.82 1295.69 Q2313.75 1295.69 2316.11 1291.88 Q2317.51 1289.41 2317.51 1283.81 Q2317.51 1278.88 2316.45 1276.41 Q2314.82 1272.65 2311.46 1272.65 Q2306.7 1272.65 2303.88 1276.76 Q2303.54 1277.27 2303.14 1277.3 Q2302.56 1277.3 2302.42 1276.99 Q2302.31 1276.64 2302.31 1275.75 L2302.31 1258.36 Q2302.31 1256.96 2302.88 1256.96 Q2303.11 1256.96 2303.6 1257.13 Q2307.3 1258.77 2311.4 1258.79 Q2315.62 1258.79 2319.41 1257.07 Q2319.69 1256.9 2319.87 1256.9 Q2320.44 1256.9 2320.47 1257.56 Q2320.47 1257.79 2319.98 1258.48 Q2319.52 1259.14 2318.52 1260.03 Q2317.51 1260.89 2316.22 1261.72 Q2314.93 1262.55 2313.04 1263.13 Q2311.17 1263.67 2309.11 1263.67 Q2306.64 1263.67 2304.11 1262.9 L2304.11 1274.35 Q2307.16 1271.36 2311.57 1271.36 Q2316.28 1271.36 2319.52 1275.15 Q2322.76 1278.94 2322.76 1284.22 Q2322.76 1289.75 2318.92 1293.54 Q2315.1 1297.33 2309.94 1297.33 Q2305.23 1297.33 2302.25 1293.97 Q2299.29 1290.61 2299.29 1286.57 Z" fill="#000000" fill-rule="evenodd" fill-opacity="1" /></svg>
