<?xml version="1.0" encoding="utf-8"?>
<svg xmlns="http://www.w3.org/2000/svg" xmlns:xlink="http://www.w3.org/1999/xlink" width="600" height="400" viewBox="0 0 2400 1600">
<defs>
  <clipPath id="clip640">
    <rect x="0" y="0" width="2400" height="1600"/>
  </clipPath>
</defs>
<path clip-path="url(#clip640)" d="
M0 1600 L2400 1600 L2400 0 L0 0  Z
  " fill="#ffffff" fill-rule="evenodd" fill-opacity="1"/>
<defs>
  <clipPath id="clip641">
    <rect x="480" y="0" width="1681" height="1600"/>
  </clipPath>
</defs>
<path clip-path="url(#clip640)" d="
M232.765 1418.31 L909.406 1418.31 L909.406 47.2441 L232.765 47.2441  Z
  " fill="#ffffff" fill-rule="evenodd" fill-opacity="1"/>
<defs>
  <clipPath id="clip642">
    <rect x="232" y="47" width="678" height="1372"/>
  </clipPath>
</defs>
<polyline clip-path="url(#clip640)" style="stroke:#000000; stroke-linecap:round; stroke-linejoin:round; stroke-width:4; stroke-opacity:1; fill:none" points="
  232.765,1390.33 909.406,1390.33 
  "/>
<polyline clip-path="url(#clip640)" style="stroke:#000000; stroke-linecap:round; stroke-linejoin:round; stroke-width:4; stroke-opacity:1; fill:none" points="
  329.428,1409.22 329.428,1371.43 
  "/>
<polyline clip-path="url(#clip640)" style="stroke:#000000; stroke-linecap:round; stroke-linejoin:round; stroke-width:4; stroke-opacity:1; fill:none" points="
  393.87,1409.22 393.87,1371.43 
  "/>
<polyline clip-path="url(#clip640)" style="stroke:#000000; stroke-linecap:round; stroke-linejoin:round; stroke-width:4; stroke-opacity:1; fill:none" points="
  458.312,1409.22 458.312,1371.43 
  "/>
<polyline clip-path="url(#clip640)" style="stroke:#000000; stroke-linecap:round; stroke-linejoin:round; stroke-width:4; stroke-opacity:1; fill:none" points="
  522.754,1409.22 522.754,1371.43 
  "/>
<polyline clip-path="url(#clip640)" style="stroke:#000000; stroke-linecap:round; stroke-linejoin:round; stroke-width:4; stroke-opacity:1; fill:none" points="
  587.196,1409.22 587.196,1371.43 
  "/>
<polyline clip-path="url(#clip640)" style="stroke:#000000; stroke-linecap:round; stroke-linejoin:round; stroke-width:4; stroke-opacity:1; fill:none" points="
  651.638,1409.22 651.638,1371.43 
  "/>
<polyline clip-path="url(#clip640)" style="stroke:#000000; stroke-linecap:round; stroke-linejoin:round; stroke-width:4; stroke-opacity:1; fill:none" points="
  716.08,1409.22 716.08,1371.43 
  "/>
<polyline clip-path="url(#clip640)" style="stroke:#000000; stroke-linecap:round; stroke-linejoin:round; stroke-width:4; stroke-opacity:1; fill:none" points="
  780.522,1409.22 780.522,1371.43 
  "/>
<polyline clip-path="url(#clip640)" style="stroke:#000000; stroke-linecap:round; stroke-linejoin:round; stroke-width:4; stroke-opacity:1; fill:none" points="
  844.964,1409.22 844.964,1371.43 
  "/>
<polyline clip-path="url(#clip640)" style="stroke:#000000; stroke-linecap:round; stroke-linejoin:round; stroke-width:4; stroke-opacity:1; fill:none" points="
  909.406,1409.22 909.406,1371.43 
  "/>
<path clip-path="url(#clip640)" d="M307.787 1497.87 L324.975 1497.87 L324.975 1438.55 L306.277 1442.3 L306.277 1432.72 L324.87 1428.97 L335.391 1428.97 L335.391 1497.87 L352.579 1497.87 L352.579 1506.73 L307.787 1506.73 L307.787 1497.87 Z" fill="#000000" fill-rule="evenodd" fill-opacity="1" /><path clip-path="url(#clip640)" d="M381.838 1497.87 L418.557 1497.87 L418.557 1506.73 L369.182 1506.73 L369.182 1497.87 Q375.172 1491.68 385.484 1481.26 Q395.849 1470.79 398.505 1467.77 Q403.557 1462.09 405.536 1458.19 Q407.567 1454.23 407.567 1450.43 Q407.567 1444.23 403.193 1440.32 Q398.87 1436.42 391.89 1436.42 Q386.943 1436.42 381.422 1438.13 Q375.953 1439.85 369.703 1443.34 L369.703 1432.72 Q376.057 1430.17 381.578 1428.86 Q387.099 1427.56 391.682 1427.56 Q403.765 1427.56 410.953 1433.6 Q418.14 1439.64 418.14 1449.75 Q418.14 1454.54 416.317 1458.86 Q414.547 1463.13 409.807 1468.97 Q408.505 1470.48 401.526 1477.72 Q394.547 1484.9 381.838 1497.87 Z" fill="#000000" fill-rule="evenodd" fill-opacity="1" /><path clip-path="url(#clip640)" d="M467.869 1464.8 Q475.421 1466.41 479.64 1471.52 Q483.91 1476.62 483.91 1484.12 Q483.91 1495.63 475.994 1501.94 Q468.077 1508.24 453.494 1508.24 Q448.598 1508.24 443.39 1507.25 Q438.234 1506.31 432.713 1504.38 L432.713 1494.23 Q437.088 1496.78 442.296 1498.08 Q447.504 1499.38 453.181 1499.38 Q463.077 1499.38 468.233 1495.48 Q473.442 1491.57 473.442 1484.12 Q473.442 1477.25 468.598 1473.39 Q463.806 1469.49 455.213 1469.49 L446.15 1469.49 L446.15 1460.84 L455.629 1460.84 Q463.39 1460.84 467.504 1457.77 Q471.619 1454.64 471.619 1448.81 Q471.619 1442.82 467.348 1439.64 Q463.129 1436.42 455.213 1436.42 Q450.89 1436.42 445.942 1437.35 Q440.994 1438.29 435.057 1440.27 L435.057 1430.89 Q441.046 1429.23 446.254 1428.39 Q451.515 1427.56 456.15 1427.56 Q468.129 1427.56 475.108 1433.03 Q482.088 1438.45 482.088 1447.72 Q482.088 1454.18 478.39 1458.65 Q474.692 1463.08 467.869 1464.8 Z" fill="#000000" fill-rule="evenodd" fill-opacity="1" /><path clip-path="url(#clip640)" d="M529.524 1438.13 L502.962 1479.64 L529.524 1479.64 L529.524 1438.13 M526.764 1428.97 L539.993 1428.97 L539.993 1479.64 L551.087 1479.64 L551.087 1488.39 L539.993 1488.39 L539.993 1506.73 L529.524 1506.73 L529.524 1488.39 L494.42 1488.39 L494.42 1478.24 L526.764 1428.97 Z" fill="#000000" fill-rule="evenodd" fill-opacity="1" /><path clip-path="url(#clip640)" d="M565.321 1428.97 L606.623 1428.97 L606.623 1437.82 L574.956 1437.82 L574.956 1456.88 Q577.248 1456.1 579.539 1455.74 Q581.831 1455.32 584.123 1455.32 Q597.144 1455.32 604.748 1462.46 Q612.352 1469.59 612.352 1481.78 Q612.352 1494.33 604.539 1501.31 Q596.727 1508.24 582.508 1508.24 Q577.612 1508.24 572.508 1507.4 Q567.456 1506.57 562.04 1504.9 L562.04 1494.33 Q566.727 1496.88 571.727 1498.13 Q576.727 1499.38 582.3 1499.38 Q591.31 1499.38 596.571 1494.64 Q601.831 1489.9 601.831 1481.78 Q601.831 1473.65 596.571 1468.91 Q591.31 1464.18 582.3 1464.18 Q578.081 1464.18 573.862 1465.11 Q569.696 1466.05 565.321 1468.03 L565.321 1428.97 Z" fill="#000000" fill-rule="evenodd" fill-opacity="1" /><path clip-path="url(#clip640)" d="M652.549 1463.65 Q645.466 1463.65 641.299 1468.5 Q637.185 1473.34 637.185 1481.78 Q637.185 1490.16 641.299 1495.06 Q645.466 1499.9 652.549 1499.9 Q659.632 1499.9 663.747 1495.06 Q667.914 1490.16 667.914 1481.78 Q667.914 1473.34 663.747 1468.5 Q659.632 1463.65 652.549 1463.65 M673.434 1430.69 L673.434 1440.27 Q669.476 1438.39 665.414 1437.4 Q661.403 1436.42 657.445 1436.42 Q647.028 1436.42 641.507 1443.45 Q636.039 1450.48 635.258 1464.7 Q638.33 1460.16 642.966 1457.77 Q647.601 1455.32 653.174 1455.32 Q664.893 1455.32 671.664 1462.46 Q678.486 1469.54 678.486 1481.78 Q678.486 1493.76 671.403 1501 Q664.32 1508.24 652.549 1508.24 Q639.06 1508.24 631.924 1497.93 Q624.789 1487.56 624.789 1467.93 Q624.789 1449.49 633.539 1438.55 Q642.289 1427.56 657.028 1427.56 Q660.987 1427.56 664.997 1428.34 Q669.059 1429.12 673.434 1430.69 Z" fill="#000000" fill-rule="evenodd" fill-opacity="1" /><path clip-path="url(#clip640)" d="M691.08 1428.97 L741.079 1428.97 L741.079 1433.45 L712.85 1506.73 L701.861 1506.73 L728.423 1437.82 L691.08 1437.82 L691.08 1428.97 Z" fill="#000000" fill-rule="evenodd" fill-opacity="1" /><path clip-path="url(#clip640)" d="M780.522 1469.8 Q773.022 1469.8 768.699 1473.81 Q764.428 1477.82 764.428 1484.85 Q764.428 1491.88 768.699 1495.89 Q773.022 1499.9 780.522 1499.9 Q788.022 1499.9 792.344 1495.89 Q796.667 1491.83 796.667 1484.85 Q796.667 1477.82 792.344 1473.81 Q788.074 1469.8 780.522 1469.8 M770.001 1465.32 Q763.23 1463.65 759.428 1459.02 Q755.678 1454.38 755.678 1447.72 Q755.678 1438.39 762.293 1432.98 Q768.959 1427.56 780.522 1427.56 Q792.136 1427.56 798.751 1432.98 Q805.365 1438.39 805.365 1447.72 Q805.365 1454.38 801.563 1459.02 Q797.813 1463.65 791.094 1465.32 Q798.699 1467.09 802.917 1472.25 Q807.188 1477.4 807.188 1484.85 Q807.188 1496.15 800.261 1502.2 Q793.386 1508.24 780.522 1508.24 Q767.657 1508.24 760.73 1502.2 Q753.855 1496.15 753.855 1484.85 Q753.855 1477.4 758.126 1472.25 Q762.397 1467.09 770.001 1465.32 M766.147 1448.71 Q766.147 1454.75 769.897 1458.13 Q773.699 1461.52 780.522 1461.52 Q787.292 1461.52 791.094 1458.13 Q794.949 1454.75 794.949 1448.71 Q794.949 1442.66 791.094 1439.28 Q787.292 1435.89 780.522 1435.89 Q773.699 1435.89 769.897 1439.28 Q766.147 1442.66 766.147 1448.71 Z" fill="#000000" fill-rule="evenodd" fill-opacity="1" /><path clip-path="url(#clip640)" d="M823.141 1505.11 L823.141 1495.53 Q827.099 1497.4 831.162 1498.39 Q835.224 1499.38 839.13 1499.38 Q849.547 1499.38 855.016 1492.4 Q860.536 1485.37 861.318 1471.1 Q858.297 1475.58 853.661 1477.98 Q849.026 1480.37 843.401 1480.37 Q831.735 1480.37 824.912 1473.34 Q818.141 1466.26 818.141 1454.02 Q818.141 1442.04 825.224 1434.8 Q832.307 1427.56 844.078 1427.56 Q857.568 1427.56 864.651 1437.93 Q871.786 1448.24 871.786 1467.93 Q871.786 1486.31 863.036 1497.3 Q854.339 1508.24 839.599 1508.24 Q835.641 1508.24 831.578 1507.46 Q827.516 1506.68 823.141 1505.11 M844.078 1472.14 Q851.162 1472.14 855.276 1467.3 Q859.443 1462.46 859.443 1454.02 Q859.443 1445.63 855.276 1440.79 Q851.162 1435.89 844.078 1435.89 Q836.995 1435.89 832.828 1440.79 Q828.714 1445.63 828.714 1454.02 Q828.714 1462.46 832.828 1467.3 Q836.995 1472.14 844.078 1472.14 Z" fill="#000000" fill-rule="evenodd" fill-opacity="1" /><path clip-path="url(#clip640)" d="M852.453 1497.87 L869.64 1497.87 L869.64 1438.55 L850.942 1442.3 L850.942 1432.72 L869.536 1428.97 L880.057 1428.97 L880.057 1497.87 L897.244 1497.87 L897.244 1506.73 L852.453 1506.73 L852.453 1497.87 Z" fill="#000000" fill-rule="evenodd" fill-opacity="1" /><path clip-path="url(#clip640)" d="M940.994 1435.89 Q932.869 1435.89 928.754 1443.91 Q924.692 1451.88 924.692 1467.93 Q924.692 1483.91 928.754 1491.94 Q932.869 1499.9 940.994 1499.9 Q949.171 1499.9 953.234 1491.94 Q957.348 1483.91 957.348 1467.93 Q957.348 1451.88 953.234 1443.91 Q949.171 1435.89 940.994 1435.89 M940.994 1427.56 Q954.067 1427.56 960.942 1437.93 Q967.869 1448.24 967.869 1467.93 Q967.869 1487.56 960.942 1497.93 Q954.067 1508.24 940.994 1508.24 Q927.921 1508.24 920.994 1497.93 Q914.119 1487.56 914.119 1467.93 Q914.119 1448.24 920.994 1437.93 Q927.921 1427.56 940.994 1427.56 Z" fill="#000000" fill-rule="evenodd" fill-opacity="1" /><path clip-path="url(#clip640)" d="M-66.1337 1591.68 L-52.0365 1591.68 L-52.0365 1654.67 Q-52.0365 1671.34 -45.9949 1678.7 Q-39.9533 1685.99 -26.4117 1685.99 Q-12.9395 1685.99 -6.89788 1678.7 Q-0.856241 1671.34 -0.856241 1654.67 L-0.856241 1591.68 L13.2409 1591.68 L13.2409 1656.41 Q13.2409 1676.68 3.17152 1687.03 Q-6.82843 1697.38 -26.4117 1697.38 Q-46.0643 1697.38 -56.1337 1687.03 Q-66.1337 1676.68 -66.1337 1656.41 L-66.1337 1591.68 Z" fill="#000000" fill-rule="evenodd" fill-opacity="1" /><path clip-path="url(#clip640)" d="M103.657 1648.42 L103.657 1695.36 L90.8794 1695.36 L90.8794 1648.84 Q90.8794 1637.79 86.5738 1632.31 Q82.2683 1626.82 73.6572 1626.82 Q63.3101 1626.82 57.3379 1633.42 Q51.3657 1640.02 51.3657 1651.41 L51.3657 1695.36 L38.5185 1695.36 L38.5185 1617.59 L51.3657 1617.59 L51.3657 1629.67 Q55.949 1622.66 62.1295 1619.18 Q68.3795 1615.71 76.5045 1615.71 Q89.9072 1615.71 96.7821 1624.04 Q103.657 1632.31 103.657 1648.42 Z" fill="#000000" fill-rule="evenodd" fill-opacity="1" /><path clip-path="url(#clip640)" d="M129.143 1617.59 L141.921 1617.59 L141.921 1695.36 L129.143 1695.36 L129.143 1617.59 M129.143 1587.31 L141.921 1587.31 L141.921 1603.49 L129.143 1603.49 L129.143 1587.31 Z" fill="#000000" fill-rule="evenodd" fill-opacity="1" /><path clip-path="url(#clip640)" d="M181.296 1595.5 L181.296 1617.59 L207.615 1617.59 L207.615 1627.52 L181.296 1627.52 L181.296 1669.74 Q181.296 1679.25 183.865 1681.96 Q186.504 1684.67 194.49 1684.67 L207.615 1684.67 L207.615 1695.36 L194.49 1695.36 Q179.698 1695.36 174.073 1689.88 Q168.448 1684.32 168.448 1669.74 L168.448 1627.52 L159.073 1627.52 L159.073 1617.59 L168.448 1617.59 L168.448 1595.5 L181.296 1595.5 Z" fill="#000000" fill-rule="evenodd" fill-opacity="1" /><path clip-path="url(#clip640)" d="M274.003 1619.88 L274.003 1631.96 Q268.587 1629.18 262.753 1627.79 Q256.92 1626.41 250.67 1626.41 Q241.156 1626.41 236.365 1629.32 Q231.643 1632.24 231.643 1638.07 Q231.643 1642.52 235.045 1645.09 Q238.448 1647.59 248.726 1649.88 L253.101 1650.85 Q266.712 1653.77 272.406 1659.11 Q278.17 1664.39 278.17 1673.91 Q278.17 1684.74 269.559 1691.06 Q261.017 1697.38 246.017 1697.38 Q239.767 1697.38 232.962 1696.13 Q226.226 1694.95 218.726 1692.52 L218.726 1679.32 Q225.809 1683 232.684 1684.88 Q239.559 1686.68 246.295 1686.68 Q255.323 1686.68 260.184 1683.63 Q265.045 1680.5 265.045 1674.88 Q265.045 1669.67 261.503 1666.89 Q258.031 1664.11 246.156 1661.54 L241.712 1660.5 Q229.837 1658 224.559 1652.86 Q219.281 1647.66 219.281 1638.63 Q219.281 1627.66 227.059 1621.68 Q234.837 1615.71 249.142 1615.71 Q256.226 1615.71 262.476 1616.75 Q268.726 1617.8 274.003 1619.88 Z" fill="#000000" fill-rule="evenodd" fill-opacity="1" /><path clip-path="url(#clip640)" d="M373.864 1626.54 Q363.586 1626.54 357.614 1634.6 Q351.642 1642.59 351.642 1656.54 Q351.642 1670.5 357.545 1678.56 Q363.517 1686.54 373.864 1686.54 Q384.072 1686.54 390.044 1678.49 Q396.017 1670.43 396.017 1656.54 Q396.017 1642.73 390.044 1634.67 Q384.072 1626.54 373.864 1626.54 M373.864 1615.71 Q390.531 1615.71 400.044 1626.54 Q409.558 1637.38 409.558 1656.54 Q409.558 1675.64 400.044 1686.54 Q390.531 1697.38 373.864 1697.38 Q357.128 1697.38 347.614 1686.54 Q338.17 1675.64 338.17 1656.54 Q338.17 1637.38 347.614 1626.54 Q357.128 1615.71 373.864 1615.71 Z" fill="#000000" fill-rule="evenodd" fill-opacity="1" /><path clip-path="url(#clip640)" d="M470.113 1587.31 L470.113 1597.93 L457.891 1597.93 Q451.016 1597.93 448.308 1600.71 Q445.669 1603.49 445.669 1610.71 L445.669 1617.59 L466.711 1617.59 L466.711 1627.52 L445.669 1627.52 L445.669 1695.36 L432.822 1695.36 L432.822 1627.52 L420.6 1627.52 L420.6 1617.59 L432.822 1617.59 L432.822 1612.17 Q432.822 1599.18 438.864 1593.28 Q444.905 1587.31 458.03 1587.31 L470.113 1587.31 Z" fill="#000000" fill-rule="evenodd" fill-opacity="1" /><path clip-path="url(#clip640)" d="M568.655 1601.2 Q553.377 1601.2 544.349 1612.59 Q535.391 1623.98 535.391 1643.63 Q535.391 1663.21 544.349 1674.6 Q553.377 1685.99 568.655 1685.99 Q583.932 1685.99 592.821 1674.6 Q601.779 1663.21 601.779 1643.63 Q601.779 1623.98 592.821 1612.59 Q583.932 1601.2 568.655 1601.2 M568.655 1589.81 Q590.46 1589.81 603.516 1604.46 Q616.571 1619.04 616.571 1643.63 Q616.571 1668.14 603.516 1682.79 Q590.46 1697.38 568.655 1697.38 Q546.78 1697.38 533.655 1682.79 Q520.599 1668.21 520.599 1643.63 Q520.599 1619.04 533.655 1604.46 Q546.78 1589.81 568.655 1589.81 Z" fill="#000000" fill-rule="evenodd" fill-opacity="1" /><path clip-path="url(#clip640)" d="M650.321 1683.7 L650.321 1724.95 L637.474 1724.95 L637.474 1617.59 L650.321 1617.59 L650.321 1629.39 Q654.349 1622.45 660.46 1619.11 Q666.64 1615.71 675.182 1615.71 Q689.348 1615.71 698.168 1626.96 Q707.057 1638.21 707.057 1656.54 Q707.057 1674.88 698.168 1686.13 Q689.348 1697.38 675.182 1697.38 Q666.64 1697.38 660.46 1694.04 Q654.349 1690.64 650.321 1683.7 M693.793 1656.54 Q693.793 1642.45 687.96 1634.46 Q682.196 1626.41 672.057 1626.41 Q661.918 1626.41 656.085 1634.46 Q650.321 1642.45 650.321 1656.54 Q650.321 1670.64 656.085 1678.7 Q661.918 1686.68 672.057 1686.68 Q682.196 1686.68 687.96 1678.7 Q693.793 1670.64 693.793 1656.54 Z" fill="#000000" fill-rule="evenodd" fill-opacity="1" /><path clip-path="url(#clip640)" d="M794.764 1653.28 L794.764 1659.53 L736.015 1659.53 Q736.848 1672.73 743.931 1679.67 Q751.084 1686.54 763.792 1686.54 Q771.154 1686.54 778.028 1684.74 Q784.973 1682.93 791.778 1679.32 L791.778 1691.41 Q784.903 1694.32 777.681 1695.85 Q770.459 1697.38 763.029 1697.38 Q744.418 1697.38 733.515 1686.54 Q722.682 1675.71 722.682 1657.24 Q722.682 1638.14 732.959 1626.96 Q743.306 1615.71 760.806 1615.71 Q776.501 1615.71 785.598 1625.85 Q794.764 1635.92 794.764 1653.28 M781.987 1649.53 Q781.848 1639.04 776.084 1632.79 Q770.39 1626.54 760.945 1626.54 Q750.251 1626.54 743.793 1632.59 Q737.404 1638.63 736.431 1649.6 L781.987 1649.53 Z" fill="#000000" fill-rule="evenodd" fill-opacity="1" /><path clip-path="url(#clip640)" d="M860.806 1629.53 Q858.653 1628.28 856.084 1627.73 Q853.584 1627.1 850.528 1627.1 Q839.695 1627.1 833.862 1634.18 Q828.098 1641.2 828.098 1654.39 L828.098 1695.36 L815.25 1695.36 L815.25 1617.59 L828.098 1617.59 L828.098 1629.67 Q832.125 1622.59 838.584 1619.18 Q845.042 1615.71 854.278 1615.71 Q855.598 1615.71 857.195 1615.92 Q858.792 1616.06 860.736 1616.41 L860.806 1629.53 Z" fill="#000000" fill-rule="evenodd" fill-opacity="1" /><path clip-path="url(#clip640)" d="M909.556 1656.27 Q894.07 1656.27 888.097 1659.81 Q882.125 1663.35 882.125 1671.89 Q882.125 1678.7 886.57 1682.73 Q891.083 1686.68 898.792 1686.68 Q909.417 1686.68 915.806 1679.18 Q922.264 1671.61 922.264 1659.11 L922.264 1656.27 L909.556 1656.27 M935.042 1650.99 L935.042 1695.36 L922.264 1695.36 L922.264 1683.56 Q917.889 1690.64 911.361 1694.04 Q904.833 1697.38 895.389 1697.38 Q883.445 1697.38 876.361 1690.71 Q869.347 1683.98 869.347 1672.73 Q869.347 1659.6 878.097 1652.93 Q886.917 1646.27 904.347 1646.27 L922.264 1646.27 L922.264 1645.02 Q922.264 1636.2 916.431 1631.41 Q910.667 1626.54 900.181 1626.54 Q893.514 1626.54 887.195 1628.14 Q880.875 1629.74 875.042 1632.93 L875.042 1621.13 Q882.056 1618.42 888.653 1617.1 Q895.25 1615.71 901.5 1615.71 Q918.375 1615.71 926.708 1624.46 Q935.042 1633.21 935.042 1650.99 Z" fill="#000000" fill-rule="evenodd" fill-opacity="1" /><path clip-path="url(#clip640)" d="M974 1595.5 L974 1617.59 L1000.32 1617.59 L1000.32 1627.52 L974 1627.52 L974 1669.74 Q974 1679.25 976.569 1681.96 Q979.208 1684.67 987.194 1684.67 L1000.32 1684.67 L1000.32 1695.36 L987.194 1695.36 Q972.402 1695.36 966.777 1689.88 Q961.152 1684.32 961.152 1669.74 L961.152 1627.52 L951.778 1627.52 L951.778 1617.59 L961.152 1617.59 L961.152 1595.5 L974 1595.5 Z" fill="#000000" fill-rule="evenodd" fill-opacity="1" /><path clip-path="url(#clip640)" d="M1017.12 1617.59 L1029.9 1617.59 L1029.9 1695.36 L1017.12 1695.36 L1017.12 1617.59 M1017.12 1587.31 L1029.9 1587.31 L1029.9 1603.49 L1017.12 1603.49 L1017.12 1587.31 Z" fill="#000000" fill-rule="evenodd" fill-opacity="1" /><path clip-path="url(#clip640)" d="M1086.78 1626.54 Q1076.5 1626.54 1070.53 1634.6 Q1064.55 1642.59 1064.55 1656.54 Q1064.55 1670.5 1070.46 1678.56 Q1076.43 1686.54 1086.78 1686.54 Q1096.99 1686.54 1102.96 1678.49 Q1108.93 1670.43 1108.93 1656.54 Q1108.93 1642.73 1102.96 1634.67 Q1096.99 1626.54 1086.78 1626.54 M1086.78 1615.71 Q1103.44 1615.71 1112.96 1626.54 Q1122.47 1637.38 1122.47 1656.54 Q1122.47 1675.64 1112.96 1686.54 Q1103.44 1697.38 1086.78 1697.38 Q1070.04 1697.38 1060.53 1686.54 Q1051.08 1675.64 1051.08 1656.54 Q1051.08 1637.38 1060.53 1626.54 Q1070.04 1615.71 1086.78 1615.71 Z" fill="#000000" fill-rule="evenodd" fill-opacity="1" /><path clip-path="url(#clip640)" d="M1208.3 1648.42 L1208.3 1695.36 L1195.53 1695.36 L1195.53 1648.84 Q1195.53 1637.79 1191.22 1632.31 Q1186.92 1626.82 1178.3 1626.82 Q1167.96 1626.82 1161.98 1633.42 Q1156.01 1640.02 1156.01 1651.41 L1156.01 1695.36 L1143.17 1695.36 L1143.17 1617.59 L1156.01 1617.59 L1156.01 1629.67 Q1160.6 1622.66 1166.78 1619.18 Q1173.03 1615.71 1181.15 1615.71 Q1194.55 1615.71 1201.43 1624.04 Q1208.3 1632.31 1208.3 1648.42 Z" fill="#000000" fill-rule="evenodd" fill-opacity="1" /><polyline clip-path="url(#clip640)" style="stroke:#000000; stroke-linecap:round; stroke-linejoin:round; stroke-width:4; stroke-opacity:1; fill:none" points="
  264.986,1418.31 264.986,47.2441 
  "/>
<polyline clip-path="url(#clip640)" style="stroke:#000000; stroke-linecap:round; stroke-linejoin:round; stroke-width:4; stroke-opacity:1; fill:none" points="
  258.954,1110.52 271.017,1110.52 
  "/>
<polyline clip-path="url(#clip640)" style="stroke:#000000; stroke-linecap:round; stroke-linejoin:round; stroke-width:4; stroke-opacity:1; fill:none" points="
  258.954,830.709 271.017,830.709 
  "/>
<polyline clip-path="url(#clip640)" style="stroke:#000000; stroke-linecap:round; stroke-linejoin:round; stroke-width:4; stroke-opacity:1; fill:none" points="
  258.954,550.9 271.017,550.9 
  "/>
<polyline clip-path="url(#clip640)" style="stroke:#000000; stroke-linecap:round; stroke-linejoin:round; stroke-width:4; stroke-opacity:1; fill:none" points="
  258.954,271.091 271.017,271.091 
  "/>
<path clip-path="url(#clip640)" d="M181.955 1071.64 L223.257 1071.64 L223.257 1080.49 L191.59 1080.49 L191.59 1099.55 Q193.882 1098.77 196.173 1098.41 Q198.465 1097.99 200.757 1097.99 Q213.777 1097.99 221.382 1105.13 Q228.986 1112.26 228.986 1124.45 Q228.986 1137 221.173 1143.98 Q213.361 1150.91 199.142 1150.91 Q194.246 1150.91 189.142 1150.08 Q184.09 1149.24 178.673 1147.58 L178.673 1137 Q183.361 1139.55 188.361 1140.8 Q193.361 1142.05 198.934 1142.05 Q207.944 1142.05 213.204 1137.31 Q218.465 1132.58 218.465 1124.45 Q218.465 1116.33 213.204 1111.59 Q207.944 1106.85 198.934 1106.85 Q194.715 1106.85 190.496 1107.78 Q186.33 1108.72 181.955 1110.7 L181.955 1071.64 Z" fill="#000000" fill-rule="evenodd" fill-opacity="1" /><path clip-path="url(#clip640)" d="M113.57 860.735 L130.757 860.735 L130.757 801.412 L112.059 805.162 L112.059 795.579 L130.653 791.829 L141.174 791.829 L141.174 860.735 L158.361 860.735 L158.361 869.589 L113.57 869.589 L113.57 860.735 Z" fill="#000000" fill-rule="evenodd" fill-opacity="1" /><path clip-path="url(#clip640)" d="M202.111 798.756 Q193.986 798.756 189.871 806.777 Q185.809 814.746 185.809 830.787 Q185.809 846.777 189.871 854.798 Q193.986 862.766 202.111 862.766 Q210.288 862.766 214.35 854.798 Q218.465 846.777 218.465 830.787 Q218.465 814.746 214.35 806.777 Q210.288 798.756 202.111 798.756 M202.111 790.423 Q215.184 790.423 222.059 800.787 Q228.986 811.1 228.986 830.787 Q228.986 850.423 222.059 860.787 Q215.184 871.1 202.111 871.1 Q189.038 871.1 182.111 860.787 Q175.236 850.423 175.236 830.787 Q175.236 811.1 182.111 800.787 Q189.038 790.423 202.111 790.423 Z" fill="#000000" fill-rule="evenodd" fill-opacity="1" /><path clip-path="url(#clip640)" d="M115.809 580.926 L132.997 580.926 L132.997 521.604 L114.299 525.353 L114.299 515.77 L132.892 512.02 L143.413 512.02 L143.413 580.926 L160.601 580.926 L160.601 589.78 L115.809 589.78 L115.809 580.926 Z" fill="#000000" fill-rule="evenodd" fill-opacity="1" /><path clip-path="url(#clip640)" d="M181.955 512.02 L223.257 512.02 L223.257 520.874 L191.59 520.874 L191.59 539.937 Q193.882 539.156 196.173 538.791 Q198.465 538.374 200.757 538.374 Q213.777 538.374 221.382 545.51 Q228.986 552.645 228.986 564.832 Q228.986 577.384 221.173 584.364 Q213.361 591.291 199.142 591.291 Q194.246 591.291 189.142 590.457 Q184.09 589.624 178.673 587.957 L178.673 577.384 Q183.361 579.937 188.361 581.187 Q193.361 582.437 198.934 582.437 Q207.944 582.437 213.204 577.697 Q218.465 572.957 218.465 564.832 Q218.465 556.707 213.204 551.968 Q207.944 547.228 198.934 547.228 Q194.715 547.228 190.496 548.166 Q186.33 549.103 181.955 551.083 L181.955 512.02 Z" fill="#000000" fill-rule="evenodd" fill-opacity="1" /><path clip-path="url(#clip640)" d="M120.809 301.117 L157.528 301.117 L157.528 309.971 L108.153 309.971 L108.153 301.117 Q114.143 294.919 124.455 284.503 Q134.819 274.034 137.476 271.013 Q142.528 265.336 144.507 261.43 Q146.538 257.472 146.538 253.669 Q146.538 247.472 142.163 243.565 Q137.84 239.659 130.861 239.659 Q125.913 239.659 120.392 241.378 Q114.924 243.097 108.674 246.586 L108.674 235.961 Q115.028 233.409 120.549 232.107 Q126.07 230.805 130.653 230.805 Q142.736 230.805 149.924 236.847 Q157.111 242.888 157.111 252.992 Q157.111 257.784 155.288 262.107 Q153.517 266.378 148.778 272.211 Q147.476 273.721 140.497 280.961 Q133.517 288.148 120.809 301.117 Z" fill="#000000" fill-rule="evenodd" fill-opacity="1" /><path clip-path="url(#clip640)" d="M202.111 239.138 Q193.986 239.138 189.871 247.159 Q185.809 255.128 185.809 271.169 Q185.809 287.159 189.871 295.18 Q193.986 303.148 202.111 303.148 Q210.288 303.148 214.35 295.18 Q218.465 287.159 218.465 271.169 Q218.465 255.128 214.35 247.159 Q210.288 239.138 202.111 239.138 M202.111 230.805 Q215.184 230.805 222.059 241.17 Q228.986 251.482 228.986 271.169 Q228.986 290.805 222.059 301.169 Q215.184 311.482 202.111 311.482 Q189.038 311.482 182.111 301.169 Q175.236 290.805 175.236 271.169 Q175.236 251.482 182.111 241.17 Q189.038 230.805 202.111 230.805 Z" fill="#000000" fill-rule="evenodd" fill-opacity="1" /><path clip-path="url(#clip640)" d="M-86.866 836.838 L-72.0744 836.838 Q-78.6716 843.921 -81.9354 851.977 Q-85.1993 859.963 -85.1993 868.991 Q-85.1993 886.768 -74.2966 896.213 Q-63.4633 905.657 -42.9079 905.657 Q-22.4219 905.657 -11.5191 896.213 Q-0.685869 886.768 -0.685869 868.991 Q-0.685869 859.963 -3.94974 851.977 Q-7.21361 843.921 -13.8108 836.838 L0.8419 836.838 Q5.84187 844.199 8.34186 852.463 Q10.8418 860.657 10.8418 869.824 Q10.8418 893.365 -3.53308 906.907 Q-17.9774 920.449 -42.9079 920.449 Q-67.9077 920.449 -82.2827 906.907 Q-96.727 893.365 -96.727 869.824 Q-96.727 860.518 -94.227 852.324 Q-91.7965 844.06 -86.866 836.838 Z" fill="#000000" fill-rule="evenodd" fill-opacity="1" /><path clip-path="url(#clip640)" d="M-59.9911 785.588 Q-59.9911 795.866 -51.9356 801.838 Q-43.9495 807.81 -29.9913 807.81 Q-16.033 807.81 -7.9775 801.908 Q0.00857132 795.935 0.00857132 785.588 Q0.00857132 775.38 -8.04694 769.408 Q-16.1025 763.436 -29.9913 763.436 Q-43.8106 763.436 -51.8662 769.408 Q-59.9911 775.38 -59.9911 785.588 M-70.8244 785.588 Q-70.8244 768.922 -59.9911 759.408 Q-49.1578 749.894 -29.9913 749.894 Q-10.8941 749.894 0.00857132 759.408 Q10.8418 768.922 10.8418 785.588 Q10.8418 802.324 0.00857132 811.838 Q-10.8941 821.283 -29.9913 821.283 Q-49.1578 821.283 -59.9911 811.838 Q-70.8244 802.324 -70.8244 785.588 Z" fill="#000000" fill-rule="evenodd" fill-opacity="1" /><path clip-path="url(#clip640)" d="M-66.6577 679.131 L-54.5745 679.131 Q-57.3522 684.547 -58.7411 690.38 Q-60.13 696.214 -60.13 702.464 Q-60.13 711.978 -57.2133 716.769 Q-54.2967 721.491 -48.4634 721.491 Q-44.019 721.491 -41.4495 718.089 Q-38.9496 714.686 -36.6579 704.408 L-35.6857 700.033 Q-32.769 686.422 -27.4218 680.728 Q-22.1441 674.964 -12.6302 674.964 Q-1.79697 674.964 4.52244 683.575 Q10.8418 692.117 10.8418 707.116 Q10.8418 713.366 9.59185 720.172 Q8.4113 726.908 5.98076 734.408 L-7.21361 734.408 Q-3.53308 727.325 -1.65809 720.45 Q0.147459 713.575 0.147459 706.839 Q0.147459 697.811 -2.90808 692.95 Q-6.03306 688.089 -11.658 688.089 Q-16.8663 688.089 -19.6441 691.63 Q-22.4219 695.103 -24.9913 706.978 L-26.033 711.422 Q-28.5329 723.297 -33.6718 728.575 Q-38.8801 733.852 -47.9078 733.852 Q-58.88 733.852 -64.8522 726.075 Q-70.8244 718.297 -70.8244 703.991 Q-70.8244 696.908 -69.7827 690.658 Q-68.7411 684.408 -66.6577 679.131 Z" fill="#000000" fill-rule="evenodd" fill-opacity="1" /><path clip-path="url(#clip640)" d="M-91.0326 641.978 L-68.9494 641.978 L-68.9494 615.659 L-59.0189 615.659 L-59.0189 641.978 L-16.7969 641.978 Q-7.28306 641.978 -4.57474 639.409 Q-1.86642 636.77 -1.86642 628.784 L-1.86642 615.659 L8.82797 615.659 L8.82797 628.784 Q8.82797 643.575 3.34189 649.2 Q-2.21364 654.825 -16.7969 654.825 L-59.0189 654.825 L-59.0189 664.2 L-68.9494 664.2 L-68.9494 654.825 L-91.0326 654.825 L-91.0326 641.978 Z" fill="#000000" fill-rule="evenodd" fill-opacity="1" /><path clip-path="url(#clip640)" d="M-66.6577 549.27 L-54.5745 549.27 Q-57.3522 554.687 -58.7411 560.52 Q-60.13 566.353 -60.13 572.603 Q-60.13 582.117 -57.2133 586.909 Q-54.2967 591.631 -48.4634 591.631 Q-44.019 591.631 -41.4495 588.228 Q-38.9496 584.825 -36.6579 574.548 L-35.6857 570.173 Q-32.769 556.562 -27.4218 550.867 Q-22.1441 545.103 -12.6302 545.103 Q-1.79697 545.103 4.52244 553.715 Q10.8418 562.256 10.8418 577.256 Q10.8418 583.506 9.59185 590.312 Q8.4113 597.048 5.98076 604.548 L-7.21361 604.548 Q-3.53308 597.464 -1.65809 590.589 Q0.147459 583.714 0.147459 576.978 Q0.147459 567.951 -2.90808 563.089 Q-6.03306 558.228 -11.658 558.228 Q-16.8663 558.228 -19.6441 561.77 Q-22.4219 565.242 -24.9913 577.117 L-26.033 581.562 Q-28.5329 593.437 -33.6718 598.714 Q-38.8801 603.992 -47.9078 603.992 Q-58.88 603.992 -64.8522 596.214 Q-70.8244 588.437 -70.8244 574.131 Q-70.8244 567.048 -69.7827 560.798 Q-68.7411 554.548 -66.6577 549.27 Z" fill="#000000" fill-rule="evenodd" fill-opacity="1" /><polyline clip-path="url(#clip642)" style="stroke:#000000; stroke-linecap:round; stroke-linejoin:round; stroke-width:4; stroke-opacity:1; fill:none" points="
  329.428,1110.52 393.87,998.595 458.312,886.671 522.754,774.747 587.196,662.824 651.638,550.9 716.08,438.977 780.522,327.053 844.964,215.129 909.406,103.206 
  
  "/>
<polyline clip-path="url(#clip642)" style="stroke:#ff0000; stroke-linecap:round; stroke-linejoin:round; stroke-width:4; stroke-opacity:1; fill:none" stroke-dasharray="2, 4" points="
  329.428,1110.52 393.87,1054.56 458.312,998.595 522.754,942.633 587.196,886.671 651.638,830.709 716.08,774.747 780.522,718.786 844.964,662.824 909.406,606.862 
  
  "/>
<circle clip-path="url(#clip642)" cx="264.986" cy="1390.33" r="10.8" fill="#000000" fill-rule="evenodd" fill-opacity="1" stroke="none"/>
<circle clip-path="url(#clip642)" cx="329.428" cy="1110.52" r="10.8" fill="#000000" fill-rule="evenodd" fill-opacity="1" stroke="none"/>
<polyline clip-path="url(#clip642)" style="stroke:#000000; stroke-linecap:round; stroke-linejoin:round; stroke-width:4; stroke-opacity:1; fill:none" stroke-dasharray="16, 10" points="
  264.986,1222.44 271.43,1211.25 277.874,1200.06 284.318,1188.86 290.762,1177.67 297.207,1166.48 303.651,1155.29 310.095,1144.1 316.539,1132.9 322.983,1121.71 
  329.428,1110.52 
  "/>
<path clip-path="url(#clip640)" d="
M980.072 442.866 L2352.76 442.866 L2352.76 92.9462 L980.072 92.9462  Z
  " fill="#ffffff" fill-rule="evenodd" fill-opacity="1"/>
<polyline clip-path="url(#clip640)" style="stroke:#000000; stroke-linecap:round; stroke-linejoin:round; stroke-width:4; stroke-opacity:1; fill:none" points="
  980.072,442.866 2352.76,442.866 2352.76,92.9462 980.072,92.9462 980.072,442.866 
  "/>
<polyline clip-path="url(#clip640)" style="stroke:#000000; stroke-linecap:round; stroke-linejoin:round; stroke-width:9; stroke-opacity:1; fill:none" points="
  1003.63,209.586 1144.96,209.586 
  "/>
<path clip-path="url(#clip640)" d="M1231.22 176.696 L1231.22 187.789 Q1225.91 182.842 1219.87 180.394 Q1213.88 177.946 1207.11 177.946 Q1193.78 177.946 1186.69 186.123 Q1179.61 194.248 1179.61 209.664 Q1179.61 225.029 1186.69 233.206 Q1193.78 241.331 1207.11 241.331 Q1213.88 241.331 1219.87 238.883 Q1225.91 236.435 1231.22 231.487 L1231.22 242.477 Q1225.7 246.227 1219.5 248.102 Q1213.36 249.977 1206.48 249.977 Q1188.83 249.977 1178.67 239.195 Q1168.52 228.362 1168.52 209.664 Q1168.52 190.914 1178.67 180.133 Q1188.83 169.3 1206.48 169.3 Q1213.46 169.3 1219.61 171.175 Q1225.81 172.998 1231.22 176.696 Z" fill="#000000" fill-rule="evenodd" fill-opacity="1" /><path clip-path="url(#clip640)" d="M1269.66 196.852 Q1261.95 196.852 1257.47 202.894 Q1252.99 208.883 1252.99 219.352 Q1252.99 229.82 1257.42 235.862 Q1261.9 241.852 1269.66 241.852 Q1277.32 241.852 1281.8 235.81 Q1286.28 229.768 1286.28 219.352 Q1286.28 208.987 1281.8 202.946 Q1277.32 196.852 1269.66 196.852 M1269.66 188.727 Q1282.16 188.727 1289.3 196.852 Q1296.43 204.977 1296.43 219.352 Q1296.43 233.675 1289.3 241.852 Q1282.16 249.977 1269.66 249.977 Q1257.11 249.977 1249.97 241.852 Q1242.89 233.675 1242.89 219.352 Q1242.89 204.977 1249.97 196.852 Q1257.11 188.727 1269.66 188.727 Z" fill="#000000" fill-rule="evenodd" fill-opacity="1" /><path clip-path="url(#clip640)" d="M1349.5 191.852 L1349.5 200.914 Q1345.44 198.831 1341.07 197.789 Q1336.69 196.748 1332 196.748 Q1324.87 196.748 1321.28 198.935 Q1317.73 201.123 1317.73 205.498 Q1317.73 208.831 1320.29 210.758 Q1322.84 212.633 1330.55 214.352 L1333.83 215.081 Q1344.04 217.268 1348.31 221.279 Q1352.63 225.237 1352.63 232.373 Q1352.63 240.498 1346.17 245.237 Q1339.76 249.977 1328.51 249.977 Q1323.83 249.977 1318.72 249.039 Q1313.67 248.154 1308.05 246.331 L1308.05 236.435 Q1313.36 239.195 1318.51 240.602 Q1323.67 241.956 1328.72 241.956 Q1335.49 241.956 1339.14 239.664 Q1342.79 237.32 1342.79 233.102 Q1342.79 229.195 1340.13 227.112 Q1337.53 225.029 1328.62 223.102 L1325.29 222.321 Q1316.38 220.446 1312.42 216.591 Q1308.46 212.685 1308.46 205.914 Q1308.46 197.685 1314.3 193.206 Q1320.13 188.727 1330.86 188.727 Q1336.17 188.727 1340.86 189.508 Q1345.55 190.289 1349.5 191.852 Z" fill="#000000" fill-rule="evenodd" fill-opacity="1" /><path clip-path="url(#clip640)" d="M1377.37 173.571 L1377.37 190.133 L1397.11 190.133 L1397.11 197.581 L1377.37 197.581 L1377.37 229.248 Q1377.37 236.383 1379.3 238.414 Q1381.27 240.445 1387.26 240.445 L1397.11 240.445 L1397.11 248.466 L1387.26 248.466 Q1376.17 248.466 1371.95 244.352 Q1367.73 240.185 1367.73 229.248 L1367.73 197.581 L1360.7 197.581 L1360.7 190.133 L1367.73 190.133 L1367.73 173.571 L1377.37 173.571 Z" fill="#000000" fill-rule="evenodd" fill-opacity="1" /><path clip-path="url(#clip640)" d="M1466.64 167.529 Q1459.66 179.508 1456.27 191.227 Q1452.89 202.946 1452.89 214.977 Q1452.89 227.008 1456.27 238.831 Q1459.71 250.602 1466.64 262.529 L1458.31 262.529 Q1450.49 250.289 1446.59 238.466 Q1442.73 226.643 1442.73 214.977 Q1442.73 203.362 1446.59 191.592 Q1450.44 179.821 1458.31 167.529 L1466.64 167.529 Z" fill="#000000" fill-rule="evenodd" fill-opacity="1" /><path clip-path="url(#clip640)" d="M1511.22 264.143 L1506.01 264.143 L1505.96 248.466 Q1500.49 248.362 1495.02 247.216 Q1489.56 246.018 1484.03 243.675 L1484.03 234.3 Q1489.35 237.633 1494.76 239.352 Q1500.23 241.018 1506.01 241.07 L1506.01 217.321 Q1494.5 215.446 1489.24 210.966 Q1484.03 206.487 1484.03 198.675 Q1484.03 190.185 1489.71 185.289 Q1495.39 180.394 1506.01 179.665 L1506.01 167.425 L1511.22 167.425 L1511.22 179.508 Q1516.07 179.717 1520.6 180.55 Q1525.13 181.331 1529.45 182.737 L1529.45 191.852 Q1525.13 189.664 1520.55 188.467 Q1516.01 187.269 1511.22 187.06 L1511.22 209.3 Q1523.05 211.123 1528.62 215.81 Q1534.19 220.498 1534.19 228.623 Q1534.19 237.425 1528.25 242.529 Q1522.37 247.581 1511.22 248.362 L1511.22 264.143 M1506.01 208.362 L1506.01 187.008 Q1499.97 187.685 1496.8 190.446 Q1493.62 193.206 1493.62 197.789 Q1493.62 202.269 1496.53 204.769 Q1499.5 207.269 1506.01 208.362 M1511.22 218.362 L1511.22 240.914 Q1517.84 240.029 1521.17 237.164 Q1524.56 234.3 1524.56 229.612 Q1524.56 225.029 1521.33 222.321 Q1518.15 219.612 1511.22 218.362 Z" fill="#000000" fill-rule="evenodd" fill-opacity="1" /><path clip-path="url(#clip640)" d="M1551.59 167.529 L1559.92 167.529 Q1567.73 179.821 1571.59 191.592 Q1575.49 203.362 1575.49 214.977 Q1575.49 226.643 1571.59 238.466 Q1567.73 250.289 1559.92 262.529 L1551.59 262.529 Q1558.51 250.602 1561.9 238.831 Q1565.34 227.008 1565.34 214.977 Q1565.34 202.946 1561.9 191.227 Q1558.51 179.508 1551.59 167.529 Z" fill="#000000" fill-rule="evenodd" fill-opacity="1" /><polyline clip-path="url(#clip640)" style="stroke:#ff0000; stroke-linecap:round; stroke-linejoin:round; stroke-width:9; stroke-opacity:1; fill:none" stroke-dasharray="5, 9" points="
  1003.63,326.226 1144.96,326.226 
  "/>
<path clip-path="url(#clip640)" d="M1204.14 297.711 L1189.87 336.408 L1218.46 336.408 L1204.14 297.711 M1198.2 287.346 L1210.13 287.346 L1239.77 365.106 L1228.83 365.106 L1221.74 345.158 L1186.69 345.158 L1179.61 365.106 L1168.52 365.106 L1198.2 287.346 Z" fill="#000000" fill-rule="evenodd" fill-opacity="1" /><path clip-path="url(#clip640)" d="M1237.58 306.773 L1247.73 306.773 L1265.96 355.731 L1284.19 306.773 L1294.35 306.773 L1272.47 365.106 L1259.45 365.106 L1237.58 306.773 Z" fill="#000000" fill-rule="evenodd" fill-opacity="1" /><path clip-path="url(#clip640)" d="M1357.47 333.544 L1357.47 338.231 L1313.41 338.231 Q1314.04 348.127 1319.35 353.335 Q1324.71 358.492 1334.24 358.492 Q1339.76 358.492 1344.92 357.138 Q1350.13 355.783 1355.23 353.075 L1355.23 362.137 Q1350.08 364.325 1344.66 365.471 Q1339.24 366.617 1333.67 366.617 Q1319.71 366.617 1311.54 358.492 Q1303.41 350.367 1303.41 336.513 Q1303.41 322.19 1311.12 313.804 Q1318.88 305.367 1332 305.367 Q1343.78 305.367 1350.6 312.971 Q1357.47 320.523 1357.47 333.544 M1347.89 330.731 Q1347.79 322.867 1343.46 318.179 Q1339.19 313.492 1332.11 313.492 Q1324.09 313.492 1319.24 318.023 Q1314.45 322.554 1313.72 330.783 L1347.89 330.731 Z" fill="#000000" fill-rule="evenodd" fill-opacity="1" /><path clip-path="url(#clip640)" d="M1407 315.731 Q1405.39 314.794 1403.46 314.377 Q1401.59 313.909 1399.3 313.909 Q1391.17 313.909 1386.8 319.221 Q1382.47 324.481 1382.47 334.377 L1382.47 365.106 L1372.84 365.106 L1372.84 306.773 L1382.47 306.773 L1382.47 315.836 Q1385.49 310.523 1390.34 307.971 Q1395.18 305.367 1402.11 305.367 Q1403.1 305.367 1404.3 305.523 Q1405.49 305.627 1406.95 305.888 L1407 315.731 Z" fill="#000000" fill-rule="evenodd" fill-opacity="1" /><path clip-path="url(#clip640)" d="M1443.57 335.783 Q1431.95 335.783 1427.47 338.44 Q1422.99 341.096 1422.99 347.502 Q1422.99 352.606 1426.33 355.627 Q1429.71 358.596 1435.49 358.596 Q1443.46 358.596 1448.25 352.971 Q1453.1 347.294 1453.1 337.919 L1453.1 335.783 L1443.57 335.783 M1462.68 331.825 L1462.68 365.106 L1453.1 365.106 L1453.1 356.252 Q1449.82 361.565 1444.92 364.117 Q1440.02 366.617 1432.94 366.617 Q1423.98 366.617 1418.67 361.617 Q1413.41 356.565 1413.41 348.127 Q1413.41 338.283 1419.97 333.283 Q1426.59 328.284 1439.66 328.284 L1453.1 328.284 L1453.1 327.346 Q1453.1 320.731 1448.72 317.138 Q1444.4 313.492 1436.54 313.492 Q1431.54 313.492 1426.8 314.69 Q1422.06 315.888 1417.68 318.284 L1417.68 309.429 Q1422.94 307.398 1427.89 306.409 Q1432.84 305.367 1437.52 305.367 Q1450.18 305.367 1456.43 311.929 Q1462.68 318.492 1462.68 331.825 Z" fill="#000000" fill-rule="evenodd" fill-opacity="1" /><path clip-path="url(#clip640)" d="M1520.81 335.263 Q1520.81 324.846 1516.48 319.117 Q1512.21 313.388 1504.45 313.388 Q1496.74 313.388 1492.42 319.117 Q1488.15 324.846 1488.15 335.263 Q1488.15 345.627 1492.42 351.356 Q1496.74 357.085 1504.45 357.085 Q1512.21 357.085 1516.48 351.356 Q1520.81 345.627 1520.81 335.263 M1530.39 357.867 Q1530.39 372.762 1523.77 380.002 Q1517.16 387.294 1503.51 387.294 Q1498.46 387.294 1493.98 386.512 Q1489.5 385.783 1485.28 384.221 L1485.28 374.898 Q1489.5 377.189 1493.62 378.283 Q1497.73 379.377 1502 379.377 Q1511.43 379.377 1516.12 374.429 Q1520.81 369.533 1520.81 359.585 L1520.81 354.846 Q1517.84 360.002 1513.2 362.554 Q1508.57 365.106 1502.11 365.106 Q1491.38 365.106 1484.82 356.929 Q1478.25 348.752 1478.25 335.263 Q1478.25 321.721 1484.82 313.544 Q1491.38 305.367 1502.11 305.367 Q1508.57 305.367 1513.2 307.919 Q1517.84 310.471 1520.81 315.627 L1520.81 306.773 L1530.39 306.773 L1530.39 357.867 Z" fill="#000000" fill-rule="evenodd" fill-opacity="1" /><path clip-path="url(#clip640)" d="M1600.02 333.544 L1600.02 338.231 L1555.96 338.231 Q1556.59 348.127 1561.9 353.335 Q1567.26 358.492 1576.79 358.492 Q1582.32 358.492 1587.47 357.138 Q1592.68 355.783 1597.78 353.075 L1597.78 362.137 Q1592.63 364.325 1587.21 365.471 Q1581.79 366.617 1576.22 366.617 Q1562.26 366.617 1554.09 358.492 Q1545.96 350.367 1545.96 336.513 Q1545.96 322.19 1553.67 313.804 Q1561.43 305.367 1574.56 305.367 Q1586.33 305.367 1593.15 312.971 Q1600.02 320.523 1600.02 333.544 M1590.44 330.731 Q1590.34 322.867 1586.01 318.179 Q1581.74 313.492 1574.66 313.492 Q1566.64 313.492 1561.79 318.023 Q1557 322.554 1556.27 330.783 L1590.44 330.731 Z" fill="#000000" fill-rule="evenodd" fill-opacity="1" /><path clip-path="url(#clip640)" d="M1708.3 293.336 L1708.3 304.429 Q1702.99 299.482 1696.95 297.034 Q1690.96 294.586 1684.19 294.586 Q1670.86 294.586 1663.77 302.763 Q1656.69 310.888 1656.69 326.304 Q1656.69 341.669 1663.77 349.846 Q1670.86 357.971 1684.19 357.971 Q1690.96 357.971 1696.95 355.523 Q1702.99 353.075 1708.3 348.127 L1708.3 359.117 Q1702.78 362.867 1696.59 364.742 Q1690.44 366.617 1683.56 366.617 Q1665.91 366.617 1655.75 355.835 Q1645.6 345.002 1645.6 326.304 Q1645.6 307.554 1655.75 296.773 Q1665.91 285.94 1683.56 285.94 Q1690.54 285.94 1696.69 287.815 Q1702.89 289.638 1708.3 293.336 Z" fill="#000000" fill-rule="evenodd" fill-opacity="1" /><path clip-path="url(#clip640)" d="M1746.74 313.492 Q1739.03 313.492 1734.55 319.534 Q1730.08 325.523 1730.08 335.992 Q1730.08 346.46 1734.5 352.502 Q1738.98 358.492 1746.74 358.492 Q1754.4 358.492 1758.88 352.45 Q1763.36 346.408 1763.36 335.992 Q1763.36 325.627 1758.88 319.586 Q1754.4 313.492 1746.74 313.492 M1746.74 305.367 Q1759.24 305.367 1766.38 313.492 Q1773.51 321.617 1773.51 335.992 Q1773.51 350.315 1766.38 358.492 Q1759.24 366.617 1746.74 366.617 Q1734.19 366.617 1727.05 358.492 Q1719.97 350.315 1719.97 335.992 Q1719.97 321.617 1727.05 313.492 Q1734.19 305.367 1746.74 305.367 Z" fill="#000000" fill-rule="evenodd" fill-opacity="1" /><path clip-path="url(#clip640)" d="M1826.59 308.492 L1826.59 317.554 Q1822.52 315.471 1818.15 314.429 Q1813.77 313.388 1809.09 313.388 Q1801.95 313.388 1798.36 315.575 Q1794.81 317.763 1794.81 322.138 Q1794.81 325.471 1797.37 327.398 Q1799.92 329.273 1807.63 330.992 L1810.91 331.721 Q1821.12 333.908 1825.39 337.919 Q1829.71 341.877 1829.71 349.013 Q1829.71 357.138 1823.25 361.877 Q1816.85 366.617 1805.6 366.617 Q1800.91 366.617 1795.8 365.679 Q1790.75 364.794 1785.13 362.971 L1785.13 353.075 Q1790.44 355.835 1795.6 357.242 Q1800.75 358.596 1805.8 358.596 Q1812.57 358.596 1816.22 356.304 Q1819.87 353.96 1819.87 349.742 Q1819.87 345.835 1817.21 343.752 Q1814.61 341.669 1805.7 339.742 L1802.37 338.961 Q1793.46 337.086 1789.5 333.231 Q1785.54 329.325 1785.54 322.554 Q1785.54 314.325 1791.38 309.846 Q1797.21 305.367 1807.94 305.367 Q1813.25 305.367 1817.94 306.148 Q1822.63 306.929 1826.59 308.492 Z" fill="#000000" fill-rule="evenodd" fill-opacity="1" /><path clip-path="url(#clip640)" d="M1854.45 290.211 L1854.45 306.773 L1874.19 306.773 L1874.19 314.221 L1854.45 314.221 L1854.45 345.888 Q1854.45 353.023 1856.38 355.054 Q1858.36 357.085 1864.35 357.085 L1874.19 357.085 L1874.19 365.106 L1864.35 365.106 Q1853.25 365.106 1849.03 360.992 Q1844.81 356.825 1844.81 345.888 L1844.81 314.221 L1837.78 314.221 L1837.78 306.773 L1844.81 306.773 L1844.81 290.211 L1854.45 290.211 Z" fill="#000000" fill-rule="evenodd" fill-opacity="1" /><path clip-path="url(#clip640)" d="M1943.72 284.169 Q1936.74 296.148 1933.36 307.867 Q1929.97 319.586 1929.97 331.617 Q1929.97 343.648 1933.36 355.471 Q1936.79 367.242 1943.72 379.169 L1935.39 379.169 Q1927.57 366.929 1923.67 355.106 Q1919.81 343.283 1919.81 331.617 Q1919.81 320.002 1923.67 308.232 Q1927.52 296.461 1935.39 284.169 L1943.72 284.169 Z" fill="#000000" fill-rule="evenodd" fill-opacity="1" /><path clip-path="url(#clip640)" d="M1988.3 380.783 L1983.09 380.783 L1983.04 365.106 Q1977.57 365.002 1972.11 363.856 Q1966.64 362.658 1961.12 360.315 L1961.12 350.94 Q1966.43 354.273 1971.84 355.992 Q1977.31 357.658 1983.09 357.71 L1983.09 333.961 Q1971.58 332.086 1966.32 327.606 Q1961.12 323.127 1961.12 315.315 Q1961.12 306.825 1966.79 301.929 Q1972.47 297.034 1983.09 296.305 L1983.09 284.065 L1988.3 284.065 L1988.3 296.148 Q1993.15 296.357 1997.68 297.19 Q2002.21 297.971 2006.53 299.377 L2006.53 308.492 Q2002.21 306.304 1997.63 305.107 Q1993.09 303.909 1988.3 303.7 L1988.3 325.94 Q2000.13 327.763 2005.7 332.45 Q2011.27 337.138 2011.27 345.263 Q2011.27 354.065 2005.33 359.169 Q1999.45 364.221 1988.3 365.002 L1988.3 380.783 M1983.09 325.002 L1983.09 303.648 Q1977.05 304.325 1973.88 307.086 Q1970.7 309.846 1970.7 314.429 Q1970.7 318.909 1973.62 321.409 Q1976.58 323.909 1983.09 325.002 M1988.3 335.002 L1988.3 357.554 Q1994.92 356.669 1998.25 353.804 Q2001.64 350.94 2001.64 346.252 Q2001.64 341.669 1998.41 338.961 Q1995.23 336.252 1988.3 335.002 Z" fill="#000000" fill-rule="evenodd" fill-opacity="1" /><path clip-path="url(#clip640)" d="M2047.21 287.346 L2056.06 287.346 L2028.98 375.002 L2020.13 375.002 L2047.21 287.346 Z" fill="#000000" fill-rule="evenodd" fill-opacity="1" /><path clip-path="url(#clip640)" d="M2065.33 287.346 L2075.91 287.346 L2075.91 334.586 Q2075.91 347.085 2080.44 352.606 Q2084.97 358.075 2095.13 358.075 Q2105.23 358.075 2109.76 352.606 Q2114.29 347.085 2114.29 334.586 L2114.29 287.346 L2124.86 287.346 L2124.86 335.888 Q2124.86 351.096 2117.31 358.856 Q2109.81 366.617 2095.13 366.617 Q2080.39 366.617 2072.83 358.856 Q2065.33 351.096 2065.33 335.888 L2065.33 287.346 Z" fill="#000000" fill-rule="evenodd" fill-opacity="1" /><path clip-path="url(#clip640)" d="M2192.68 329.898 L2192.68 365.106 L2183.09 365.106 L2183.09 330.211 Q2183.09 321.929 2179.86 317.815 Q2176.64 313.7 2170.18 313.7 Q2162.42 313.7 2157.94 318.648 Q2153.46 323.596 2153.46 332.138 L2153.46 365.106 L2143.82 365.106 L2143.82 306.773 L2153.46 306.773 L2153.46 315.836 Q2156.9 310.575 2161.53 307.971 Q2166.22 305.367 2172.31 305.367 Q2182.36 305.367 2187.52 311.617 Q2192.68 317.815 2192.68 329.898 Z" fill="#000000" fill-rule="evenodd" fill-opacity="1" /><path clip-path="url(#clip640)" d="M2211.79 306.773 L2221.37 306.773 L2221.37 365.106 L2211.79 365.106 L2211.79 306.773 M2211.79 284.065 L2221.37 284.065 L2221.37 296.2 L2211.79 296.2 L2211.79 284.065 Z" fill="#000000" fill-rule="evenodd" fill-opacity="1" /><path clip-path="url(#clip640)" d="M2250.91 290.211 L2250.91 306.773 L2270.65 306.773 L2270.65 314.221 L2250.91 314.221 L2250.91 345.888 Q2250.91 353.023 2252.83 355.054 Q2254.81 357.085 2260.8 357.085 L2270.65 357.085 L2270.65 365.106 L2260.8 365.106 Q2249.71 365.106 2245.49 360.992 Q2241.27 356.825 2241.27 345.888 L2241.27 314.221 L2234.24 314.221 L2234.24 306.773 L2241.27 306.773 L2241.27 290.211 L2250.91 290.211 Z" fill="#000000" fill-rule="evenodd" fill-opacity="1" /><path clip-path="url(#clip640)" d="M2281.74 284.169 L2290.07 284.169 Q2297.88 296.461 2301.74 308.232 Q2305.64 320.002 2305.64 331.617 Q2305.64 343.283 2301.74 355.106 Q2297.88 366.929 2290.07 379.169 L2281.74 379.169 Q2288.67 367.242 2292.05 355.471 Q2295.49 343.648 2295.49 331.617 Q2295.49 319.586 2292.05 307.867 Q2288.67 296.148 2281.74 284.169 Z" fill="#000000" fill-rule="evenodd" fill-opacity="1" /></svg>
