<?xml version="1.0" encoding="utf-8"?>
<svg xmlns="http://www.w3.org/2000/svg" xmlns:xlink="http://www.w3.org/1999/xlink" width="600" height="400" viewBox="0 0 2400 1600">
<defs>
  <clipPath id="clip330">
    <rect x="0" y="0" width="2400" height="1600"/>
  </clipPath>
</defs>
<path clip-path="url(#clip330)" d="
M0 1600 L2400 1600 L2400 0 L0 0  Z
  " fill="#ffffff" fill-rule="evenodd" fill-opacity="1"/>
<defs>
  <clipPath id="clip331">
    <rect x="480" y="0" width="1681" height="1600"/>
  </clipPath>
</defs>
<path clip-path="url(#clip330)" d="
M702.011 1043.9 L2317.32 1043.9 L2317.32 82.6772 L702.011 82.6772  Z
  " fill="#ffffff" fill-rule="evenodd" fill-opacity="1"/>
<defs>
  <clipPath id="clip332">
    <rect x="702" y="82" width="1616" height="962"/>
  </clipPath>
</defs>
<polyline clip-path="url(#clip330)" style="stroke:#000000; stroke-linecap:round; stroke-linejoin:round; stroke-width:7; stroke-opacity:1; fill:none" points="
  702.011,1024.28 2317.32,1024.28 
  "/>
<polyline clip-path="url(#clip330)" style="stroke:#000000; stroke-linecap:round; stroke-linejoin:round; stroke-width:7; stroke-opacity:1; fill:none" points="
  932.77,1043.18 932.77,1005.38 
  "/>
<polyline clip-path="url(#clip330)" style="stroke:#000000; stroke-linecap:round; stroke-linejoin:round; stroke-width:7; stroke-opacity:1; fill:none" points="
  1086.61,1043.18 1086.61,1005.38 
  "/>
<polyline clip-path="url(#clip330)" style="stroke:#000000; stroke-linecap:round; stroke-linejoin:round; stroke-width:7; stroke-opacity:1; fill:none" points="
  1240.45,1043.18 1240.45,1005.38 
  "/>
<polyline clip-path="url(#clip330)" style="stroke:#000000; stroke-linecap:round; stroke-linejoin:round; stroke-width:7; stroke-opacity:1; fill:none" points="
  1394.29,1043.18 1394.29,1005.38 
  "/>
<polyline clip-path="url(#clip330)" style="stroke:#000000; stroke-linecap:round; stroke-linejoin:round; stroke-width:7; stroke-opacity:1; fill:none" points="
  1548.13,1043.18 1548.13,1005.38 
  "/>
<polyline clip-path="url(#clip330)" style="stroke:#000000; stroke-linecap:round; stroke-linejoin:round; stroke-width:7; stroke-opacity:1; fill:none" points="
  1701.97,1043.18 1701.97,1005.38 
  "/>
<polyline clip-path="url(#clip330)" style="stroke:#000000; stroke-linecap:round; stroke-linejoin:round; stroke-width:7; stroke-opacity:1; fill:none" points="
  1855.81,1043.18 1855.81,1005.38 
  "/>
<polyline clip-path="url(#clip330)" style="stroke:#000000; stroke-linecap:round; stroke-linejoin:round; stroke-width:7; stroke-opacity:1; fill:none" points="
  2009.64,1043.18 2009.64,1005.38 
  "/>
<polyline clip-path="url(#clip330)" style="stroke:#000000; stroke-linecap:round; stroke-linejoin:round; stroke-width:7; stroke-opacity:1; fill:none" points="
  2163.48,1043.18 2163.48,1005.38 
  "/>
<polyline clip-path="url(#clip330)" style="stroke:#000000; stroke-linecap:round; stroke-linejoin:round; stroke-width:7; stroke-opacity:1; fill:none" points="
  2317.32,1043.18 2317.32,1005.38 
  "/>
<path clip-path="url(#clip330)" d="M894.899 1198.09 L924.977 1198.09 L924.977 1094.27 L892.256 1100.84 L892.256 1084.06 L924.795 1077.5 L943.206 1077.5 L943.206 1198.09 L973.284 1198.09 L973.284 1213.58 L894.899 1213.58 L894.899 1198.09 Z" fill="#000000" fill-rule="evenodd" fill-opacity="1" /><path clip-path="url(#clip330)" d="M1065.55 1198.09 L1129.81 1198.09 L1129.81 1213.58 L1043.41 1213.58 L1043.41 1198.09 Q1053.89 1187.24 1071.93 1169.01 Q1090.07 1150.69 1094.72 1145.41 Q1103.56 1135.47 1107.03 1128.63 Q1110.58 1121.71 1110.58 1115.05 Q1110.58 1104.21 1102.92 1097.37 Q1095.36 1090.54 1083.15 1090.54 Q1074.49 1090.54 1064.83 1093.54 Q1055.26 1096.55 1044.32 1102.66 L1044.32 1084.06 Q1055.44 1079.6 1065.1 1077.32 Q1074.76 1075.04 1082.78 1075.04 Q1103.93 1075.04 1116.5 1085.61 Q1129.08 1096.19 1129.08 1113.87 Q1129.08 1122.25 1125.89 1129.82 Q1122.79 1137.29 1114.5 1147.5 Q1112.22 1150.15 1100.01 1162.81 Q1087.79 1175.39 1065.55 1198.09 Z" fill="#000000" fill-rule="evenodd" fill-opacity="1" /><path clip-path="url(#clip330)" d="M1257.17 1140.21 Q1270.39 1143.04 1277.77 1151.97 Q1285.25 1160.9 1285.25 1174.03 Q1285.25 1194.17 1271.39 1205.2 Q1257.54 1216.23 1232.02 1216.23 Q1223.45 1216.23 1214.34 1214.49 Q1205.31 1212.85 1195.65 1209.48 L1195.65 1191.71 Q1203.31 1196.17 1212.42 1198.45 Q1221.54 1200.73 1231.47 1200.73 Q1248.79 1200.73 1257.81 1193.89 Q1266.93 1187.06 1266.93 1174.03 Q1266.93 1161.99 1258.45 1155.25 Q1250.06 1148.41 1235.03 1148.41 L1219.17 1148.41 L1219.17 1133.28 L1235.75 1133.28 Q1249.33 1133.28 1256.54 1127.91 Q1263.74 1122.44 1263.74 1112.23 Q1263.74 1101.75 1256.26 1096.19 Q1248.88 1090.54 1235.03 1090.54 Q1227.46 1090.54 1218.8 1092.18 Q1210.14 1093.82 1199.75 1097.28 L1199.75 1080.87 Q1210.23 1077.96 1219.35 1076.5 Q1228.55 1075.04 1236.67 1075.04 Q1257.63 1075.04 1269.84 1084.61 Q1282.06 1094.09 1282.06 1110.31 Q1282.06 1121.62 1275.58 1129.46 Q1269.11 1137.2 1257.17 1140.21 Z" fill="#000000" fill-rule="evenodd" fill-opacity="1" /><path clip-path="url(#clip330)" d="M1406.14 1093.54 L1359.65 1166.19 L1406.14 1166.19 L1406.14 1093.54 M1401.31 1077.5 L1424.46 1077.5 L1424.46 1166.19 L1443.87 1166.19 L1443.87 1181.5 L1424.46 1181.5 L1424.46 1213.58 L1406.14 1213.58 L1406.14 1181.5 L1344.7 1181.5 L1344.7 1163.73 L1401.31 1077.5 Z" fill="#000000" fill-rule="evenodd" fill-opacity="1" /><path clip-path="url(#clip330)" d="M1509.85 1077.5 L1582.12 1077.5 L1582.12 1093 L1526.71 1093 L1526.71 1126.36 Q1530.72 1124.99 1534.73 1124.35 Q1538.74 1123.62 1542.75 1123.62 Q1565.54 1123.62 1578.84 1136.11 Q1592.15 1148.6 1592.15 1169.92 Q1592.15 1191.89 1578.48 1204.1 Q1564.81 1216.23 1539.92 1216.23 Q1531.36 1216.23 1522.42 1214.77 Q1513.58 1213.31 1504.1 1210.39 L1504.1 1191.89 Q1512.31 1196.36 1521.06 1198.54 Q1529.81 1200.73 1539.56 1200.73 Q1555.33 1200.73 1564.53 1192.44 Q1573.74 1184.14 1573.74 1169.92 Q1573.74 1155.7 1564.53 1147.41 Q1555.33 1139.12 1539.56 1139.12 Q1532.18 1139.12 1524.79 1140.76 Q1517.5 1142.4 1509.85 1145.86 L1509.85 1077.5 Z" fill="#000000" fill-rule="evenodd" fill-opacity="1" /><path clip-path="url(#clip330)" d="M1703.56 1138.21 Q1691.17 1138.21 1683.87 1146.68 Q1676.67 1155.16 1676.67 1169.92 Q1676.67 1184.6 1683.87 1193.17 Q1691.17 1201.64 1703.56 1201.64 Q1715.96 1201.64 1723.16 1193.17 Q1730.45 1184.6 1730.45 1169.92 Q1730.45 1155.16 1723.16 1146.68 Q1715.96 1138.21 1703.56 1138.21 M1740.11 1080.51 L1740.11 1097.28 Q1733.18 1094 1726.07 1092.27 Q1719.06 1090.54 1712.13 1090.54 Q1693.9 1090.54 1684.24 1102.84 Q1674.67 1115.15 1673.3 1140.03 Q1678.68 1132.1 1686.79 1127.91 Q1694.9 1123.62 1704.65 1123.62 Q1725.16 1123.62 1737.01 1136.11 Q1748.95 1148.5 1748.95 1169.92 Q1748.95 1190.89 1736.56 1203.56 Q1724.16 1216.23 1703.56 1216.23 Q1679.95 1216.23 1667.47 1198.18 Q1654.98 1180.04 1654.98 1145.68 Q1654.98 1113.41 1670.29 1094.27 Q1685.61 1075.04 1711.4 1075.04 Q1718.33 1075.04 1725.34 1076.41 Q1732.45 1077.78 1740.11 1080.51 Z" fill="#000000" fill-rule="evenodd" fill-opacity="1" /><path clip-path="url(#clip330)" d="M1812.06 1077.5 L1899.55 1077.5 L1899.55 1085.34 L1850.15 1213.58 L1830.92 1213.58 L1877.41 1093 L1812.06 1093 L1812.06 1077.5 Z" fill="#000000" fill-rule="evenodd" fill-opacity="1" /><path clip-path="url(#clip330)" d="M2009.64 1148.96 Q1996.52 1148.96 1988.95 1155.98 Q1981.48 1163 1981.48 1175.3 Q1981.48 1187.61 1988.95 1194.62 Q1996.52 1201.64 2009.64 1201.64 Q2022.77 1201.64 2030.33 1194.62 Q2037.9 1187.51 2037.9 1175.3 Q2037.9 1163 2030.33 1155.98 Q2022.86 1148.96 2009.64 1148.96 M1991.23 1141.12 Q1979.38 1138.21 1972.73 1130.09 Q1966.17 1121.98 1966.17 1110.31 Q1966.17 1094 1977.74 1084.52 Q1989.41 1075.04 2009.64 1075.04 Q2029.97 1075.04 2041.55 1084.52 Q2053.12 1094 2053.12 1110.31 Q2053.12 1121.98 2046.47 1130.09 Q2039.9 1138.21 2028.15 1141.12 Q2041.45 1144.22 2048.84 1153.24 Q2056.31 1162.27 2056.31 1175.3 Q2056.31 1195.08 2044.19 1205.65 Q2032.16 1216.23 2009.64 1216.23 Q1987.13 1216.23 1975.01 1205.65 Q1962.98 1195.08 1962.98 1175.3 Q1962.98 1162.27 1970.45 1153.24 Q1977.93 1144.22 1991.23 1141.12 M1984.49 1112.05 Q1984.49 1122.62 1991.05 1128.54 Q1997.7 1134.47 2009.64 1134.47 Q2021.49 1134.47 2028.15 1128.54 Q2034.89 1122.62 2034.89 1112.05 Q2034.89 1101.47 2028.15 1095.55 Q2021.49 1089.62 2009.64 1089.62 Q1997.7 1089.62 1991.05 1095.55 Q1984.49 1101.47 1984.49 1112.05 Z" fill="#000000" fill-rule="evenodd" fill-opacity="1" /><path clip-path="url(#clip330)" d="M2125.29 1210.76 L2125.29 1193.99 Q2132.22 1197.27 2139.33 1199 Q2146.44 1200.73 2153.28 1200.73 Q2171.5 1200.73 2181.07 1188.52 Q2190.74 1176.21 2192.1 1151.24 Q2186.82 1159.08 2178.7 1163.27 Q2170.59 1167.46 2160.75 1167.46 Q2140.33 1167.46 2128.39 1155.16 Q2116.54 1142.76 2116.54 1121.34 Q2116.54 1100.38 2128.94 1087.71 Q2141.34 1075.04 2161.93 1075.04 Q2185.54 1075.04 2197.94 1093.18 Q2210.42 1111.23 2210.42 1145.68 Q2210.42 1177.85 2195.11 1197.08 Q2179.89 1216.23 2154.1 1216.23 Q2147.17 1216.23 2140.06 1214.86 Q2132.95 1213.49 2125.29 1210.76 M2161.93 1153.06 Q2174.33 1153.06 2181.53 1144.59 Q2188.82 1136.11 2188.82 1121.34 Q2188.82 1106.67 2181.53 1098.19 Q2174.33 1089.62 2161.93 1089.62 Q2149.54 1089.62 2142.25 1098.19 Q2135.05 1106.67 2135.05 1121.34 Q2135.05 1136.11 2142.25 1144.59 Q2149.54 1153.06 2161.93 1153.06 Z" fill="#000000" fill-rule="evenodd" fill-opacity="1" /><path clip-path="url(#clip330)" d="M2217.66 1198.09 L2247.73 1198.09 L2247.73 1094.27 L2215.01 1100.84 L2215.01 1084.06 L2247.55 1077.5 L2265.96 1077.5 L2265.96 1198.09 L2296.04 1198.09 L2296.04 1213.58 L2217.66 1213.58 L2217.66 1198.09 Z" fill="#000000" fill-rule="evenodd" fill-opacity="1" /><path clip-path="url(#clip330)" d="M2372.6 1089.62 Q2358.38 1089.62 2351.18 1103.66 Q2344.07 1117.61 2344.07 1145.68 Q2344.07 1173.66 2351.18 1187.7 Q2358.38 1201.64 2372.6 1201.64 Q2386.91 1201.64 2394.02 1187.7 Q2401.22 1173.66 2401.22 1145.68 Q2401.22 1117.61 2394.02 1103.66 Q2386.91 1089.62 2372.6 1089.62 M2372.6 1075.04 Q2395.48 1075.04 2407.51 1093.18 Q2419.63 1111.23 2419.63 1145.68 Q2419.63 1180.04 2407.51 1198.18 Q2395.48 1216.23 2372.6 1216.23 Q2349.73 1216.23 2337.6 1198.18 Q2325.57 1180.04 2325.57 1145.68 Q2325.57 1111.23 2337.6 1093.18 Q2349.73 1075.04 2372.6 1075.04 Z" fill="#000000" fill-rule="evenodd" fill-opacity="1" /><path clip-path="url(#clip330)" d="M394.534 1320.31 L419.204 1320.31 L419.204 1430.53 Q419.204 1459.7 429.777 1472.58 Q440.35 1485.34 464.048 1485.34 Q487.624 1485.34 498.197 1472.58 Q508.77 1459.7 508.77 1430.53 L508.77 1320.31 L533.44 1320.31 L533.44 1433.57 Q533.44 1469.06 515.818 1487.16 Q498.318 1505.27 464.048 1505.27 Q429.655 1505.27 412.034 1487.16 Q394.534 1469.06 394.534 1433.57 L394.534 1320.31 Z" fill="#000000" fill-rule="evenodd" fill-opacity="1" /><path clip-path="url(#clip330)" d="M691.668 1419.59 L691.668 1501.75 L669.307 1501.75 L669.307 1420.32 Q669.307 1401 661.772 1391.4 Q654.237 1381.8 639.168 1381.8 Q621.061 1381.8 610.609 1393.34 Q600.158 1404.89 600.158 1424.82 L600.158 1501.75 L577.675 1501.75 L577.675 1365.64 L600.158 1365.64 L600.158 1386.78 Q608.179 1374.51 618.995 1368.43 Q629.932 1362.36 644.151 1362.36 Q667.605 1362.36 679.637 1376.94 Q691.668 1391.4 691.668 1419.59 Z" fill="#000000" fill-rule="evenodd" fill-opacity="1" /><path clip-path="url(#clip330)" d="M736.268 1365.64 L758.629 1365.64 L758.629 1501.75 L736.268 1501.75 L736.268 1365.64 M736.268 1312.65 L758.629 1312.65 L758.629 1340.97 L736.268 1340.97 L736.268 1312.65 Z" fill="#000000" fill-rule="evenodd" fill-opacity="1" /><path clip-path="url(#clip330)" d="M827.535 1326.99 L827.535 1365.64 L873.594 1365.64 L873.594 1383.02 L827.535 1383.02 L827.535 1456.9 Q827.535 1473.55 832.032 1478.29 Q836.65 1483.03 850.625 1483.03 L873.594 1483.03 L873.594 1501.75 L850.625 1501.75 Q824.74 1501.75 814.896 1492.15 Q805.053 1482.42 805.053 1456.9 L805.053 1383.02 L788.646 1383.02 L788.646 1365.64 L805.053 1365.64 L805.053 1326.99 L827.535 1326.99 Z" fill="#000000" fill-rule="evenodd" fill-opacity="1" /><path clip-path="url(#clip330)" d="M989.774 1369.65 L989.774 1390.79 Q980.295 1385.93 970.086 1383.5 Q959.878 1381.07 948.941 1381.07 Q932.292 1381.07 923.906 1386.17 Q915.642 1391.28 915.642 1401.49 Q915.642 1409.26 921.597 1413.76 Q927.552 1418.14 945.538 1422.15 L953.194 1423.85 Q977.014 1428.95 986.979 1438.31 Q997.066 1447.55 997.066 1464.2 Q997.066 1483.15 981.996 1494.21 Q967.048 1505.27 940.798 1505.27 Q929.861 1505.27 917.951 1503.08 Q906.163 1501.02 893.038 1496.76 L893.038 1473.67 Q905.434 1480.12 917.465 1483.4 Q929.496 1486.56 941.285 1486.56 Q957.083 1486.56 965.59 1481.21 Q974.097 1475.74 974.097 1465.9 Q974.097 1456.78 967.899 1451.92 Q961.823 1447.06 941.042 1442.56 L933.264 1440.74 Q912.483 1436.37 903.247 1427.37 Q894.011 1418.26 894.011 1402.46 Q894.011 1383.26 907.622 1372.81 Q921.233 1362.36 946.267 1362.36 Q958.663 1362.36 969.6 1364.18 Q980.538 1366 989.774 1369.65 Z" fill="#000000" fill-rule="evenodd" fill-opacity="1" /><path clip-path="url(#clip330)" d="M1164.53 1381.31 Q1146.54 1381.31 1136.09 1395.41 Q1125.64 1409.39 1125.64 1433.81 Q1125.64 1458.24 1135.97 1472.34 Q1146.42 1486.31 1164.53 1486.31 Q1182.39 1486.31 1192.85 1472.22 Q1203.3 1458.12 1203.3 1433.81 Q1203.3 1409.63 1192.85 1395.53 Q1182.39 1381.31 1164.53 1381.31 M1164.53 1362.36 Q1193.7 1362.36 1210.35 1381.31 Q1226.99 1400.27 1226.99 1433.81 Q1226.99 1467.23 1210.35 1486.31 Q1193.7 1505.27 1164.53 1505.27 Q1135.24 1505.27 1118.59 1486.31 Q1102.06 1467.23 1102.06 1433.81 Q1102.06 1400.27 1118.59 1381.31 Q1135.24 1362.36 1164.53 1362.36 Z" fill="#000000" fill-rule="evenodd" fill-opacity="1" /><path clip-path="url(#clip330)" d="M1332.97 1312.65 L1332.97 1331.24 L1311.58 1331.24 Q1299.55 1331.24 1294.81 1336.11 Q1290.19 1340.97 1290.19 1353.61 L1290.19 1365.64 L1327.01 1365.64 L1327.01 1383.02 L1290.19 1383.02 L1290.19 1501.75 L1267.71 1501.75 L1267.71 1383.02 L1246.32 1383.02 L1246.32 1365.64 L1267.71 1365.64 L1267.71 1356.16 Q1267.71 1333.43 1278.28 1323.1 Q1288.85 1312.65 1311.82 1312.65 L1332.97 1312.65 Z" fill="#000000" fill-rule="evenodd" fill-opacity="1" /><path clip-path="url(#clip330)" d="M1505.41 1336.96 Q1478.68 1336.96 1462.88 1356.89 Q1447.2 1376.82 1447.2 1411.21 Q1447.2 1445.48 1462.88 1465.41 Q1478.68 1485.34 1505.41 1485.34 Q1532.15 1485.34 1547.7 1465.41 Q1563.38 1445.48 1563.38 1411.21 Q1563.38 1376.82 1547.7 1356.89 Q1532.15 1336.96 1505.41 1336.96 M1505.41 1317.03 Q1543.57 1317.03 1566.42 1342.67 Q1589.27 1368.19 1589.27 1411.21 Q1589.27 1454.11 1566.42 1479.75 Q1543.57 1505.27 1505.41 1505.27 Q1467.13 1505.27 1444.16 1479.75 Q1421.32 1454.23 1421.32 1411.21 Q1421.32 1368.19 1444.16 1342.67 Q1467.13 1317.03 1505.41 1317.03 Z" fill="#000000" fill-rule="evenodd" fill-opacity="1" /><path clip-path="url(#clip330)" d="M1648.33 1481.33 L1648.33 1553.52 L1625.85 1553.52 L1625.85 1365.64 L1648.33 1365.64 L1648.33 1386.3 Q1655.38 1374.14 1666.07 1368.31 Q1676.89 1362.36 1691.84 1362.36 Q1716.63 1362.36 1732.06 1382.04 Q1747.62 1401.73 1747.62 1433.81 Q1747.62 1465.9 1732.06 1485.58 Q1716.63 1505.27 1691.84 1505.27 Q1676.89 1505.27 1666.07 1499.44 Q1655.38 1493.48 1648.33 1481.33 M1724.41 1433.81 Q1724.41 1409.14 1714.2 1395.17 Q1704.11 1381.07 1686.37 1381.07 Q1668.62 1381.07 1658.42 1395.17 Q1648.33 1409.14 1648.33 1433.81 Q1648.33 1458.48 1658.42 1472.58 Q1668.62 1486.56 1686.37 1486.56 Q1704.11 1486.56 1714.2 1472.58 Q1724.41 1458.48 1724.41 1433.81 Z" fill="#000000" fill-rule="evenodd" fill-opacity="1" /><path clip-path="url(#clip330)" d="M1901.11 1428.1 L1901.11 1439.04 L1798.29 1439.04 Q1799.75 1462.13 1812.15 1474.28 Q1824.67 1486.31 1846.9 1486.31 Q1859.79 1486.31 1871.82 1483.15 Q1883.97 1479.99 1895.88 1473.67 L1895.88 1494.82 Q1883.85 1499.92 1871.21 1502.6 Q1858.57 1505.27 1845.57 1505.27 Q1813 1505.27 1793.92 1486.31 Q1774.96 1467.35 1774.96 1435.03 Q1774.96 1401.61 1792.95 1382.04 Q1811.05 1362.36 1841.68 1362.36 Q1869.14 1362.36 1885.06 1380.1 Q1901.11 1397.72 1901.11 1428.1 M1878.74 1421.54 Q1878.5 1403.19 1868.42 1392.25 Q1858.45 1381.31 1841.92 1381.31 Q1823.21 1381.31 1811.9 1391.89 Q1800.72 1402.46 1799.02 1421.66 L1878.74 1421.54 Z" fill="#000000" fill-rule="evenodd" fill-opacity="1" /><path clip-path="url(#clip330)" d="M2016.68 1386.54 Q2012.91 1384.35 2008.41 1383.38 Q2004.04 1382.29 1998.69 1382.29 Q1979.73 1382.29 1969.53 1394.68 Q1959.44 1406.96 1959.44 1430.05 L1959.44 1501.75 L1936.96 1501.75 L1936.96 1365.64 L1959.44 1365.64 L1959.44 1386.78 Q1966.49 1374.39 1977.79 1368.43 Q1989.09 1362.36 2005.25 1362.36 Q2007.56 1362.36 2010.36 1362.72 Q2013.15 1362.96 2016.56 1363.57 L2016.68 1386.54 Z" fill="#000000" fill-rule="evenodd" fill-opacity="1" /><path clip-path="url(#clip330)" d="M2101.99 1433.33 Q2074.89 1433.33 2064.44 1439.53 Q2053.99 1445.72 2053.99 1460.67 Q2053.99 1472.58 2061.76 1479.63 Q2069.66 1486.56 2083.15 1486.56 Q2101.75 1486.56 2112.93 1473.43 Q2124.23 1460.18 2124.23 1438.31 L2124.23 1433.33 L2101.99 1433.33 M2146.59 1424.09 L2146.59 1501.75 L2124.23 1501.75 L2124.23 1481.09 Q2116.57 1493.48 2105.15 1499.44 Q2093.73 1505.27 2077.2 1505.27 Q2056.3 1505.27 2043.9 1493.6 Q2031.63 1481.82 2031.63 1462.13 Q2031.63 1439.16 2046.94 1427.49 Q2062.37 1415.83 2092.88 1415.83 L2124.23 1415.83 L2124.23 1413.64 Q2124.23 1398.21 2114.02 1389.82 Q2103.93 1381.31 2085.58 1381.31 Q2073.92 1381.31 2062.86 1384.11 Q2051.8 1386.9 2041.59 1392.49 L2041.59 1371.83 Q2053.87 1367.09 2065.41 1364.79 Q2076.96 1362.36 2087.89 1362.36 Q2117.42 1362.36 2132.01 1377.67 Q2146.59 1392.98 2146.59 1424.09 Z" fill="#000000" fill-rule="evenodd" fill-opacity="1" /><path clip-path="url(#clip330)" d="M2214.77 1326.99 L2214.77 1365.64 L2260.83 1365.64 L2260.83 1383.02 L2214.77 1383.02 L2214.77 1456.9 Q2214.77 1473.55 2219.26 1478.29 Q2223.88 1483.03 2237.86 1483.03 L2260.83 1483.03 L2260.83 1501.75 L2237.86 1501.75 Q2211.97 1501.75 2202.13 1492.15 Q2192.28 1482.42 2192.28 1456.9 L2192.28 1383.02 L2175.88 1383.02 L2175.88 1365.64 L2192.28 1365.64 L2192.28 1326.99 L2214.77 1326.99 Z" fill="#000000" fill-rule="evenodd" fill-opacity="1" /><path clip-path="url(#clip330)" d="M2290.24 1365.64 L2312.6 1365.64 L2312.6 1501.75 L2290.24 1501.75 L2290.24 1365.64 M2290.24 1312.65 L2312.6 1312.65 L2312.6 1340.97 L2290.24 1340.97 L2290.24 1312.65 Z" fill="#000000" fill-rule="evenodd" fill-opacity="1" /><path clip-path="url(#clip330)" d="M2412.13 1381.31 Q2394.14 1381.31 2383.69 1395.41 Q2373.24 1409.39 2373.24 1433.81 Q2373.24 1458.24 2383.57 1472.34 Q2394.02 1486.31 2412.13 1486.31 Q2429.99 1486.31 2440.44 1472.22 Q2450.89 1458.12 2450.89 1433.81 Q2450.89 1409.63 2440.44 1395.53 Q2429.99 1381.31 2412.13 1381.31 M2412.13 1362.36 Q2441.29 1362.36 2457.94 1381.31 Q2474.59 1400.27 2474.59 1433.81 Q2474.59 1467.23 2457.94 1486.31 Q2441.29 1505.27 2412.13 1505.27 Q2382.84 1505.27 2366.19 1486.31 Q2349.66 1467.23 2349.66 1433.81 Q2349.66 1400.27 2366.19 1381.31 Q2382.84 1362.36 2412.13 1362.36 Z" fill="#000000" fill-rule="evenodd" fill-opacity="1" /><path clip-path="url(#clip330)" d="M2624.8 1419.59 L2624.8 1501.75 L2602.44 1501.75 L2602.44 1420.32 Q2602.44 1401 2594.9 1391.4 Q2587.37 1381.8 2572.3 1381.8 Q2554.19 1381.8 2543.74 1393.34 Q2533.29 1404.89 2533.29 1424.82 L2533.29 1501.75 L2510.81 1501.75 L2510.81 1365.64 L2533.29 1365.64 L2533.29 1386.78 Q2541.31 1374.51 2552.13 1368.43 Q2563.06 1362.36 2577.28 1362.36 Q2600.74 1362.36 2612.77 1376.94 Q2624.8 1391.4 2624.8 1419.59 Z" fill="#000000" fill-rule="evenodd" fill-opacity="1" /><polyline clip-path="url(#clip330)" style="stroke:#000000; stroke-linecap:round; stroke-linejoin:round; stroke-width:7; stroke-opacity:1; fill:none" points="
  778.931,1043.9 778.931,82.6772 
  "/>
<polyline clip-path="url(#clip330)" style="stroke:#000000; stroke-linecap:round; stroke-linejoin:round; stroke-width:7; stroke-opacity:1; fill:none" points="
  760.033,828.115 797.828,828.115 
  "/>
<polyline clip-path="url(#clip330)" style="stroke:#000000; stroke-linecap:round; stroke-linejoin:round; stroke-width:7; stroke-opacity:1; fill:none" points="
  760.033,631.947 797.828,631.947 
  "/>
<polyline clip-path="url(#clip330)" style="stroke:#000000; stroke-linecap:round; stroke-linejoin:round; stroke-width:7; stroke-opacity:1; fill:none" points="
  760.033,435.779 797.828,435.779 
  "/>
<polyline clip-path="url(#clip330)" style="stroke:#000000; stroke-linecap:round; stroke-linejoin:round; stroke-width:7; stroke-opacity:1; fill:none" points="
  760.033,239.611 797.828,239.611 
  "/>
<path clip-path="url(#clip330)" d="M660.626 760.075 L732.905 760.075 L732.905 775.569 L677.488 775.569 L677.488 808.928 Q681.499 807.561 685.509 806.923 Q689.519 806.194 693.53 806.194 Q716.316 806.194 729.623 818.681 Q742.931 831.168 742.931 852.496 Q742.931 874.462 729.259 886.675 Q715.587 898.798 690.704 898.798 Q682.137 898.798 673.204 897.339 Q664.363 895.881 654.884 892.964 L654.884 874.462 Q663.087 878.928 671.837 881.116 Q680.587 883.303 690.34 883.303 Q706.108 883.303 715.314 875.009 Q724.519 866.715 724.519 852.496 Q724.519 838.277 715.314 829.983 Q706.108 821.689 690.34 821.689 Q682.957 821.689 675.574 823.329 Q668.283 824.97 660.626 828.434 L660.626 760.075 Z" fill="#000000" fill-rule="evenodd" fill-opacity="1" /><path clip-path="url(#clip330)" d="M540.953 684.492 L571.031 684.492 L571.031 580.678 L538.309 587.24 L538.309 570.469 L570.848 563.907 L589.26 563.907 L589.26 684.492 L619.338 684.492 L619.338 699.987 L540.953 699.987 L540.953 684.492 Z" fill="#000000" fill-rule="evenodd" fill-opacity="1" /><path clip-path="url(#clip330)" d="M695.9 576.029 Q681.681 576.029 674.481 590.066 Q667.371 604.011 667.371 632.084 Q667.371 660.065 674.481 674.102 Q681.681 688.047 695.9 688.047 Q710.209 688.047 717.319 674.102 Q724.519 660.065 724.519 632.084 Q724.519 604.011 717.319 590.066 Q710.209 576.029 695.9 576.029 M695.9 561.446 Q718.777 561.446 730.808 579.584 Q742.931 597.631 742.931 632.084 Q742.931 666.445 730.808 684.583 Q718.777 702.63 695.9 702.63 Q673.022 702.63 660.9 684.583 Q648.869 666.445 648.869 632.084 Q648.869 597.631 660.9 579.584 Q673.022 561.446 695.9 561.446 Z" fill="#000000" fill-rule="evenodd" fill-opacity="1" /><path clip-path="url(#clip330)" d="M544.872 488.324 L574.95 488.324 L574.95 384.51 L542.229 391.072 L542.229 374.302 L574.767 367.739 L593.179 367.739 L593.179 488.324 L623.257 488.324 L623.257 503.819 L544.872 503.819 L544.872 488.324 Z" fill="#000000" fill-rule="evenodd" fill-opacity="1" /><path clip-path="url(#clip330)" d="M660.626 367.739 L732.905 367.739 L732.905 383.234 L677.488 383.234 L677.488 416.593 Q681.499 415.226 685.509 414.588 Q689.519 413.859 693.53 413.859 Q716.316 413.859 729.623 426.346 Q742.931 438.832 742.931 460.16 Q742.931 482.126 729.259 494.34 Q715.587 506.462 690.704 506.462 Q682.137 506.462 673.204 505.004 Q664.363 503.546 654.884 500.629 L654.884 482.126 Q663.087 486.593 671.837 488.78 Q680.587 490.968 690.34 490.968 Q706.108 490.968 715.314 482.673 Q724.519 474.379 724.519 460.16 Q724.519 445.942 715.314 437.648 Q706.108 429.353 690.34 429.353 Q682.957 429.353 675.574 430.994 Q668.283 432.635 660.626 436.098 L660.626 367.739 Z" fill="#000000" fill-rule="evenodd" fill-opacity="1" /><path clip-path="url(#clip330)" d="M553.622 292.157 L617.879 292.157 L617.879 307.651 L531.473 307.651 L531.473 292.157 Q541.955 281.31 560.002 263.081 Q578.14 244.761 582.788 239.475 Q591.629 229.54 595.093 222.704 Q598.648 215.777 598.648 209.123 Q598.648 198.277 590.991 191.441 Q583.426 184.605 571.213 184.605 Q562.554 184.605 552.893 187.613 Q543.322 190.621 532.385 196.727 L532.385 178.134 Q543.505 173.668 553.166 171.389 Q562.827 169.11 570.848 169.11 Q591.994 169.11 604.572 179.683 Q617.15 190.256 617.15 207.938 Q617.15 216.324 613.96 223.889 Q610.861 231.363 602.567 241.571 Q600.288 244.214 588.075 256.883 Q575.861 269.461 553.622 292.157 Z" fill="#000000" fill-rule="evenodd" fill-opacity="1" /><path clip-path="url(#clip330)" d="M695.9 183.694 Q681.681 183.694 674.481 197.73 Q667.371 211.675 667.371 239.748 Q667.371 267.73 674.481 281.766 Q681.681 295.711 695.9 295.711 Q710.209 295.711 717.319 281.766 Q724.519 267.73 724.519 239.748 Q724.519 211.675 717.319 197.73 Q710.209 183.694 695.9 183.694 M695.9 169.11 Q718.777 169.11 730.808 187.248 Q742.931 205.295 742.931 239.748 Q742.931 274.11 730.808 292.248 Q718.777 310.295 695.9 310.295 Q673.022 310.295 660.9 292.248 Q648.869 274.11 648.869 239.748 Q648.869 205.295 660.9 187.248 Q673.022 169.11 695.9 169.11 Z" fill="#000000" fill-rule="evenodd" fill-opacity="1" /><path clip-path="url(#clip330)" d="M196.657 745.397 L222.543 745.397 Q210.998 757.792 205.286 771.889 Q199.574 785.865 199.574 801.664 Q199.574 832.775 218.654 849.302 Q237.612 865.83 273.584 865.83 Q309.435 865.83 328.514 849.302 Q347.473 832.775 347.473 801.664 Q347.473 785.865 341.761 771.889 Q336.049 757.792 324.504 745.397 L350.146 745.397 Q358.896 758.278 363.271 772.74 Q367.646 787.08 367.646 803.122 Q367.646 844.32 342.49 868.017 Q317.212 891.715 273.584 891.715 Q229.834 891.715 204.678 868.017 Q179.401 844.32 179.401 803.122 Q179.401 786.837 183.776 772.497 Q188.029 758.035 196.657 745.397 Z" fill="#000000" fill-rule="evenodd" fill-opacity="1" /><path clip-path="url(#clip330)" d="M243.688 655.709 Q243.688 673.696 257.786 684.147 Q271.761 694.598 296.188 694.598 Q320.615 694.598 334.712 684.268 Q348.688 673.817 348.688 655.709 Q348.688 637.845 334.591 627.394 Q320.494 616.942 296.188 616.942 Q272.004 616.942 257.907 627.394 Q243.688 637.845 243.688 655.709 M224.73 655.709 Q224.73 626.543 243.688 609.894 Q262.647 593.245 296.188 593.245 Q329.608 593.245 348.688 609.894 Q367.646 626.543 367.646 655.709 Q367.646 684.998 348.688 701.647 Q329.608 718.174 296.188 718.174 Q262.647 718.174 243.688 701.647 Q224.73 684.998 224.73 655.709 Z" fill="#000000" fill-rule="evenodd" fill-opacity="1" /><path clip-path="url(#clip330)" d="M232.022 469.408 L253.168 469.408 Q248.306 478.888 245.876 489.096 Q243.445 499.304 243.445 510.242 Q243.445 526.891 248.55 535.276 Q253.654 543.54 263.862 543.54 Q271.64 543.54 276.136 537.585 Q280.511 531.63 284.522 513.644 L286.223 505.988 Q291.327 482.169 300.685 472.204 Q309.921 462.117 326.57 462.117 Q345.528 462.117 356.587 477.186 Q367.646 492.134 367.646 518.384 Q367.646 529.321 365.459 541.231 Q363.393 553.019 359.139 566.144 L336.049 566.144 Q342.49 553.748 345.771 541.717 Q348.931 529.686 348.931 517.898 Q348.931 502.099 343.584 493.592 Q338.115 485.085 328.271 485.085 Q319.157 485.085 314.296 491.283 Q309.435 497.36 304.938 518.141 L303.115 525.919 Q298.74 546.7 289.747 555.936 Q280.633 565.172 264.834 565.172 Q245.633 565.172 235.182 551.561 Q224.73 537.95 224.73 512.915 Q224.73 500.519 226.553 489.582 Q228.376 478.644 232.022 469.408 Z" fill="#000000" fill-rule="evenodd" fill-opacity="1" /><path clip-path="url(#clip330)" d="M189.366 404.391 L228.011 404.391 L228.011 358.333 L245.39 358.333 L245.39 404.391 L319.278 404.391 Q335.928 404.391 340.667 399.895 Q345.407 395.277 345.407 381.301 L345.407 358.333 L364.122 358.333 L364.122 381.301 Q364.122 407.187 354.521 417.03 Q344.799 426.874 319.278 426.874 L245.39 426.874 L245.39 443.28 L228.011 443.28 L228.011 426.874 L189.366 426.874 L189.366 404.391 Z" fill="#000000" fill-rule="evenodd" fill-opacity="1" /><path clip-path="url(#clip330)" d="M232.022 242.153 L253.168 242.153 Q248.306 251.632 245.876 261.84 Q243.445 272.048 243.445 282.986 Q243.445 299.635 248.55 308.02 Q253.654 316.284 263.862 316.284 Q271.64 316.284 276.136 310.329 Q280.511 304.375 284.522 286.389 L286.223 278.732 Q291.327 254.913 300.685 244.948 Q309.921 234.861 326.57 234.861 Q345.528 234.861 356.587 249.93 Q367.646 264.878 367.646 291.128 Q367.646 302.066 365.459 313.975 Q363.393 325.763 359.139 338.888 L336.049 338.888 Q342.49 326.493 345.771 314.461 Q348.931 302.43 348.931 290.642 Q348.931 274.843 343.584 266.337 Q338.115 257.83 328.271 257.83 Q319.157 257.83 314.296 264.028 Q309.435 270.104 304.938 290.885 L303.115 298.663 Q298.74 319.444 289.747 328.68 Q280.633 337.916 264.834 337.916 Q245.633 337.916 235.182 324.305 Q224.73 310.694 224.73 285.659 Q224.73 273.264 226.553 262.326 Q228.376 251.389 232.022 242.153 Z" fill="#000000" fill-rule="evenodd" fill-opacity="1" /><polyline clip-path="url(#clip332)" style="stroke:#000000; stroke-linecap:round; stroke-linejoin:round; stroke-width:7; stroke-opacity:1; fill:none" points="
  932.77,828.115 1086.61,749.647 1240.45,671.18 1394.29,592.713 1548.13,514.246 1701.97,435.779 1855.81,357.312 2009.64,278.845 2163.48,200.378 2317.32,121.911 
  
  "/>
<polyline clip-path="url(#clip332)" style="stroke:#ff0000; stroke-linecap:round; stroke-linejoin:round; stroke-width:7; stroke-opacity:1; fill:none" stroke-dasharray="4, 7" points="
  932.77,828.115 1086.61,788.881 1240.45,749.647 1394.29,710.414 1548.13,671.18 1701.97,631.947 1855.81,592.713 2009.64,553.48 2163.48,514.246 2317.32,475.013 
  
  "/>
<circle clip-path="url(#clip332)" cx="778.931" cy="1024.28" r="18.9" fill="#000000" fill-rule="evenodd" fill-opacity="1" stroke="none"/>
<circle clip-path="url(#clip332)" cx="932.77" cy="828.115" r="18.9" fill="#000000" fill-rule="evenodd" fill-opacity="1" stroke="none"/>
<polyline clip-path="url(#clip332)" style="stroke:#000000; stroke-linecap:round; stroke-linejoin:round; stroke-width:7; stroke-opacity:1; fill:none" stroke-dasharray="28, 18" points="
  778.931,906.582 794.315,898.735 809.698,890.888 825.082,883.042 840.466,875.195 855.85,867.348 871.234,859.501 886.618,851.655 902.002,843.808 917.386,835.961 
  932.77,828.115 
  "/>
<path clip-path="url(#clip330)" d="
M94.0237 1011.86 L2263.48 1011.86 L2263.48 399.498 L94.0237 399.498  Z
  " fill="#ffffff" fill-rule="evenodd" fill-opacity="1"/>
<polyline clip-path="url(#clip330)" style="stroke:#000000; stroke-linecap:round; stroke-linejoin:round; stroke-width:7; stroke-opacity:1; fill:none" points="
  94.0237,1011.86 2263.48,1011.86 2263.48,399.498 94.0237,399.498 94.0237,1011.86 
  "/>
<polyline clip-path="url(#clip330)" style="stroke:#000000; stroke-linecap:round; stroke-linejoin:round; stroke-width:15.75; stroke-opacity:1; fill:none" points="
  111.972,603.618 219.659,603.618 
  "/>
<path clip-path="url(#clip330)" d="M347.346 546.06 L347.346 565.474 Q338.049 556.815 327.476 552.531 Q316.995 548.248 305.146 548.248 Q281.812 548.248 269.417 562.557 Q257.021 576.776 257.021 603.755 Q257.021 630.643 269.417 644.953 Q281.812 659.171 305.146 659.171 Q316.995 659.171 327.476 654.888 Q338.049 650.604 347.346 641.945 L347.346 661.177 Q337.685 667.739 326.838 671.02 Q316.083 674.302 304.052 674.302 Q273.154 674.302 255.38 655.434 Q237.607 636.476 237.607 603.755 Q237.607 570.943 255.38 552.076 Q273.154 533.117 304.052 533.117 Q316.265 533.117 327.021 536.399 Q337.867 539.589 347.346 546.06 Z" fill="#000000" fill-rule="evenodd" fill-opacity="1" /><path clip-path="url(#clip330)" d="M414.611 581.333 Q401.122 581.333 393.283 591.906 Q385.445 602.388 385.445 620.708 Q385.445 639.028 393.192 649.601 Q401.031 660.083 414.611 660.083 Q428.01 660.083 435.848 649.51 Q443.687 638.937 443.687 620.708 Q443.687 602.57 435.848 591.997 Q428.01 581.333 414.611 581.333 M414.611 567.115 Q436.486 567.115 448.973 581.333 Q461.46 595.552 461.46 620.708 Q461.46 645.773 448.973 660.083 Q436.486 674.302 414.611 674.302 Q392.645 674.302 380.158 660.083 Q367.763 645.773 367.763 620.708 Q367.763 595.552 380.158 581.333 Q392.645 567.115 414.611 567.115 Z" fill="#000000" fill-rule="evenodd" fill-opacity="1" /><path clip-path="url(#clip330)" d="M554.337 572.583 L554.337 588.443 Q547.228 584.797 539.572 582.974 Q531.915 581.151 523.712 581.151 Q511.225 581.151 504.936 584.979 Q498.738 588.807 498.738 596.463 Q498.738 602.297 503.205 605.669 Q507.671 608.95 521.16 611.958 L526.902 613.234 Q544.767 617.062 552.241 624.08 Q559.806 631.008 559.806 643.494 Q559.806 657.713 548.504 666.007 Q537.293 674.302 517.605 674.302 Q509.402 674.302 500.47 672.661 Q491.629 671.111 481.785 667.921 L481.785 650.604 Q491.082 655.434 500.106 657.895 Q509.129 660.265 517.97 660.265 Q529.819 660.265 536.199 656.255 Q542.579 652.153 542.579 644.77 Q542.579 637.935 537.931 634.289 Q533.374 630.643 517.788 627.271 L511.954 625.903 Q496.369 622.622 489.442 615.877 Q482.515 609.041 482.515 597.193 Q482.515 582.792 492.723 574.953 Q502.931 567.115 521.707 567.115 Q531.004 567.115 539.207 568.482 Q547.41 569.849 554.337 572.583 Z" fill="#000000" fill-rule="evenodd" fill-opacity="1" /><path clip-path="url(#clip330)" d="M603.1 540.591 L603.1 569.576 L637.644 569.576 L637.644 582.609 L603.1 582.609 L603.1 638.026 Q603.1 650.513 606.472 654.067 Q609.936 657.622 620.417 657.622 L637.644 657.622 L637.644 671.658 L620.417 671.658 Q601.003 671.658 593.621 664.458 Q586.238 657.166 586.238 638.026 L586.238 582.609 L573.933 582.609 L573.933 569.576 L586.238 569.576 L586.238 540.591 L603.1 540.591 Z" fill="#000000" fill-rule="evenodd" fill-opacity="1" /><path clip-path="url(#clip330)" d="M759.323 530.018 Q747.109 550.982 741.185 571.49 Q735.261 591.997 735.261 613.052 Q735.261 634.106 741.185 654.796 Q747.201 675.395 759.323 696.268 L744.74 696.268 Q731.068 674.848 724.232 654.158 Q717.487 633.468 717.487 613.052 Q717.487 592.726 724.232 572.128 Q730.977 551.529 744.74 530.018 L759.323 530.018 Z" fill="#000000" fill-rule="evenodd" fill-opacity="1" /><path clip-path="url(#clip330)" d="M837.343 699.093 L828.229 699.093 L828.138 671.658 Q818.567 671.476 808.997 669.471 Q799.427 667.374 789.765 663.273 L789.765 646.867 Q799.062 652.7 808.541 655.708 Q818.112 658.625 828.229 658.716 L828.229 617.153 Q808.086 613.872 798.88 606.034 Q789.765 598.195 789.765 584.523 Q789.765 569.667 799.7 561.099 Q809.635 552.531 828.229 551.255 L828.229 529.836 L837.343 529.836 L837.343 550.982 Q845.82 551.346 853.75 552.805 Q861.679 554.172 869.244 556.633 L869.244 572.583 Q861.679 568.755 853.658 566.659 Q845.729 564.563 837.343 564.198 L837.343 603.117 Q858.033 606.307 867.786 614.51 Q877.538 622.713 877.538 636.932 Q877.538 652.336 867.148 661.268 Q856.848 670.109 837.343 671.476 L837.343 699.093 M828.229 601.476 L828.229 564.107 Q817.656 565.292 812.096 570.122 Q806.536 574.953 806.536 582.974 Q806.536 590.812 811.64 595.187 Q816.836 599.562 828.229 601.476 M837.343 618.976 L837.343 658.442 Q848.919 656.893 854.752 651.88 Q860.677 646.867 860.677 638.664 Q860.677 630.643 855.026 625.903 Q849.466 621.164 837.343 618.976 Z" fill="#000000" fill-rule="evenodd" fill-opacity="1" /><path clip-path="url(#clip330)" d="M907.981 530.018 L922.564 530.018 Q936.236 551.529 942.981 572.128 Q949.817 592.726 949.817 613.052 Q949.817 633.468 942.981 654.158 Q936.236 674.848 922.564 696.268 L907.981 696.268 Q920.103 675.395 926.028 654.796 Q932.043 634.106 932.043 613.052 Q932.043 591.997 926.028 571.49 Q920.103 550.982 907.981 530.018 Z" fill="#000000" fill-rule="evenodd" fill-opacity="1" /><polyline clip-path="url(#clip330)" style="stroke:#ff0000; stroke-linecap:round; stroke-linejoin:round; stroke-width:15.75; stroke-opacity:1; fill:none" stroke-dasharray="8, 16" points="
  111.972,807.738 219.659,807.738 
  "/>
<path clip-path="url(#clip330)" d="M299.95 757.836 L274.977 825.557 L325.015 825.557 L299.95 757.836 M289.56 739.698 L310.432 739.698 L362.294 875.778 L343.153 875.778 L330.758 840.87 L269.417 840.87 L257.021 875.778 L237.607 875.778 L289.56 739.698 Z" fill="#000000" fill-rule="evenodd" fill-opacity="1" /><path clip-path="url(#clip330)" d="M358.466 773.696 L376.239 773.696 L408.14 859.372 L440.041 773.696 L457.814 773.696 L419.533 875.778 L396.747 875.778 L358.466 773.696 Z" fill="#000000" fill-rule="evenodd" fill-opacity="1" /><path clip-path="url(#clip330)" d="M568.282 820.544 L568.282 828.747 L491.173 828.747 Q492.267 846.065 501.564 855.179 Q510.952 864.203 527.631 864.203 Q537.293 864.203 546.316 861.833 Q555.431 859.463 564.363 854.724 L564.363 870.583 Q555.34 874.411 545.861 876.416 Q536.381 878.422 526.629 878.422 Q502.202 878.422 487.892 864.203 Q473.673 849.984 473.673 825.74 Q473.673 800.675 487.163 786 Q500.744 771.235 523.712 771.235 Q544.311 771.235 556.251 784.542 Q568.282 797.758 568.282 820.544 M551.512 815.622 Q551.329 801.859 543.764 793.656 Q536.29 785.453 523.895 785.453 Q509.858 785.453 501.382 793.383 Q492.996 801.313 491.72 815.714 L551.512 815.622 Z" fill="#000000" fill-rule="evenodd" fill-opacity="1" /><path clip-path="url(#clip330)" d="M654.962 789.373 Q652.136 787.732 648.764 787.003 Q645.482 786.182 641.472 786.182 Q627.253 786.182 619.597 795.479 Q612.032 804.685 612.032 822.003 L612.032 875.778 L595.17 875.778 L595.17 773.696 L612.032 773.696 L612.032 789.555 Q617.318 780.258 625.795 775.792 Q634.272 771.235 646.394 771.235 Q648.126 771.235 650.222 771.508 Q652.318 771.69 654.87 772.146 L654.962 789.373 Z" fill="#000000" fill-rule="evenodd" fill-opacity="1" /><path clip-path="url(#clip330)" d="M718.946 824.463 Q698.62 824.463 690.782 829.112 Q682.943 833.76 682.943 844.971 Q682.943 853.903 688.776 859.19 Q694.701 864.385 704.818 864.385 Q718.763 864.385 727.149 854.541 Q735.625 844.607 735.625 828.2 L735.625 824.463 L718.946 824.463 M752.396 817.536 L752.396 875.778 L735.625 875.778 L735.625 860.284 Q729.883 869.58 721.315 874.047 Q712.748 878.422 700.352 878.422 Q684.675 878.422 675.378 869.672 Q666.172 860.83 666.172 846.065 Q666.172 828.838 677.657 820.089 Q689.232 811.339 712.11 811.339 L735.625 811.339 L735.625 809.698 Q735.625 798.122 727.969 791.833 Q720.404 785.453 706.641 785.453 Q697.891 785.453 689.597 787.55 Q681.303 789.646 673.646 793.839 L673.646 778.344 Q682.852 774.789 691.511 773.058 Q700.17 771.235 708.373 771.235 Q730.521 771.235 741.458 782.719 Q752.396 794.203 752.396 817.536 Z" fill="#000000" fill-rule="evenodd" fill-opacity="1" /><path clip-path="url(#clip330)" d="M854.114 823.552 Q854.114 805.323 846.549 795.297 Q839.075 785.271 825.494 785.271 Q812.005 785.271 804.44 795.297 Q796.966 805.323 796.966 823.552 Q796.966 841.69 804.44 851.716 Q812.005 861.742 825.494 861.742 Q839.075 861.742 846.549 851.716 Q854.114 841.69 854.114 823.552 M870.885 863.109 Q870.885 889.177 859.309 901.846 Q847.734 914.606 823.854 914.606 Q815.013 914.606 807.174 913.239 Q799.336 911.963 791.953 909.229 L791.953 892.914 Q799.336 896.924 806.536 898.838 Q813.737 900.752 821.211 900.752 Q837.708 900.752 845.911 892.093 Q854.114 883.526 854.114 866.117 L854.114 857.823 Q848.919 866.846 840.807 871.312 Q832.695 875.778 821.393 875.778 Q802.617 875.778 791.133 861.469 Q779.648 847.159 779.648 823.552 Q779.648 799.854 791.133 785.544 Q802.617 771.235 821.393 771.235 Q832.695 771.235 840.807 775.701 Q848.919 780.167 854.114 789.19 L854.114 773.696 L870.885 773.696 L870.885 863.109 Z" fill="#000000" fill-rule="evenodd" fill-opacity="1" /><path clip-path="url(#clip330)" d="M992.746 820.544 L992.746 828.747 L915.637 828.747 Q916.731 846.065 926.028 855.179 Q935.416 864.203 952.095 864.203 Q961.757 864.203 970.78 861.833 Q979.895 859.463 988.827 854.724 L988.827 870.583 Q979.804 874.411 970.324 876.416 Q960.845 878.422 951.093 878.422 Q926.666 878.422 912.356 864.203 Q898.137 849.984 898.137 825.74 Q898.137 800.675 911.627 786 Q925.207 771.235 948.176 771.235 Q968.775 771.235 980.715 784.542 Q992.746 797.758 992.746 820.544 M975.975 815.622 Q975.793 801.859 968.228 793.656 Q960.754 785.453 948.358 785.453 Q934.322 785.453 925.845 793.383 Q917.46 801.313 916.184 815.714 L975.975 815.622 Z" fill="#000000" fill-rule="evenodd" fill-opacity="1" /><path clip-path="url(#clip330)" d="M1182.24 750.18 L1182.24 769.594 Q1172.94 760.935 1162.37 756.651 Q1151.89 752.368 1140.04 752.368 Q1116.7 752.368 1104.31 766.677 Q1091.91 780.896 1091.91 807.875 Q1091.91 834.763 1104.31 849.073 Q1116.7 863.291 1140.04 863.291 Q1151.89 863.291 1162.37 859.008 Q1172.94 854.724 1182.24 846.065 L1182.24 865.297 Q1172.58 871.859 1161.73 875.14 Q1150.97 878.422 1138.94 878.422 Q1108.05 878.422 1090.27 859.554 Q1072.5 840.596 1072.5 807.875 Q1072.5 775.063 1090.27 756.196 Q1108.05 737.237 1138.94 737.237 Q1151.16 737.237 1161.91 740.519 Q1172.76 743.709 1182.24 750.18 Z" fill="#000000" fill-rule="evenodd" fill-opacity="1" /><path clip-path="url(#clip330)" d="M1249.5 785.453 Q1236.01 785.453 1228.17 796.026 Q1220.34 806.508 1220.34 824.828 Q1220.34 843.148 1228.08 853.721 Q1235.92 864.203 1249.5 864.203 Q1262.9 864.203 1270.74 853.63 Q1278.58 843.057 1278.58 824.828 Q1278.58 806.69 1270.74 796.117 Q1262.9 785.453 1249.5 785.453 M1249.5 771.235 Q1271.38 771.235 1283.86 785.453 Q1296.35 799.672 1296.35 824.828 Q1296.35 849.893 1283.86 864.203 Q1271.38 878.422 1249.5 878.422 Q1227.54 878.422 1215.05 864.203 Q1202.65 849.893 1202.65 824.828 Q1202.65 799.672 1215.05 785.453 Q1227.54 771.235 1249.5 771.235 Z" fill="#000000" fill-rule="evenodd" fill-opacity="1" /><path clip-path="url(#clip330)" d="M1389.23 776.703 L1389.23 792.563 Q1382.12 788.917 1374.46 787.094 Q1366.81 785.271 1358.6 785.271 Q1346.12 785.271 1339.83 789.099 Q1333.63 792.927 1333.63 800.583 Q1333.63 806.417 1338.1 809.789 Q1342.56 813.07 1356.05 816.078 L1361.79 817.354 Q1379.66 821.182 1387.13 828.2 Q1394.7 835.128 1394.7 847.614 Q1394.7 861.833 1383.4 870.127 Q1372.18 878.422 1352.5 878.422 Q1344.29 878.422 1335.36 876.781 Q1326.52 875.231 1316.68 872.041 L1316.68 854.724 Q1325.97 859.554 1335 862.015 Q1344.02 864.385 1352.86 864.385 Q1364.71 864.385 1371.09 860.375 Q1377.47 856.273 1377.47 848.89 Q1377.47 842.055 1372.82 838.409 Q1368.26 834.763 1352.68 831.391 L1346.85 830.023 Q1331.26 826.742 1324.33 819.997 Q1317.41 813.161 1317.41 801.313 Q1317.41 786.912 1327.61 779.073 Q1337.82 771.235 1356.6 771.235 Q1365.9 771.235 1374.1 772.602 Q1382.3 773.969 1389.23 776.703 Z" fill="#000000" fill-rule="evenodd" fill-opacity="1" /><path clip-path="url(#clip330)" d="M1437.99 744.711 L1437.99 773.696 L1472.54 773.696 L1472.54 786.729 L1437.99 786.729 L1437.99 842.146 Q1437.99 854.633 1441.36 858.187 Q1444.83 861.742 1455.31 861.742 L1472.54 861.742 L1472.54 875.778 L1455.31 875.778 Q1435.89 875.778 1428.51 868.578 Q1421.13 861.286 1421.13 842.146 L1421.13 786.729 L1408.82 786.729 L1408.82 773.696 L1421.13 773.696 L1421.13 744.711 L1437.99 744.711 Z" fill="#000000" fill-rule="evenodd" fill-opacity="1" /><path clip-path="url(#clip330)" d="M1594.21 734.138 Q1582 755.102 1576.08 775.61 Q1570.15 796.117 1570.15 817.172 Q1570.15 838.226 1576.08 858.916 Q1582.09 879.515 1594.21 900.388 L1579.63 900.388 Q1565.96 878.968 1559.12 858.278 Q1552.38 837.588 1552.38 817.172 Q1552.38 796.846 1559.12 776.248 Q1565.87 755.649 1579.63 734.138 L1594.21 734.138 Z" fill="#000000" fill-rule="evenodd" fill-opacity="1" /><path clip-path="url(#clip330)" d="M1672.23 903.213 L1663.12 903.213 L1663.03 875.778 Q1653.46 875.596 1643.89 873.591 Q1634.32 871.494 1624.66 867.393 L1624.66 850.987 Q1633.95 856.82 1643.43 859.828 Q1653 862.745 1663.12 862.836 L1663.12 821.273 Q1642.98 817.992 1633.77 810.154 Q1624.66 802.315 1624.66 788.643 Q1624.66 773.787 1634.59 765.219 Q1644.53 756.651 1663.12 755.375 L1663.12 733.956 L1672.23 733.956 L1672.23 755.102 Q1680.71 755.466 1688.64 756.925 Q1696.57 758.292 1704.14 760.753 L1704.14 776.703 Q1696.57 772.875 1688.55 770.779 Q1680.62 768.683 1672.23 768.318 L1672.23 807.237 Q1692.92 810.427 1702.68 818.63 Q1712.43 826.833 1712.43 841.052 Q1712.43 856.456 1702.04 865.388 Q1691.74 874.229 1672.23 875.596 L1672.23 903.213 M1663.12 805.596 L1663.12 768.227 Q1652.55 769.412 1646.99 774.242 Q1641.43 779.073 1641.43 787.094 Q1641.43 794.932 1646.53 799.307 Q1651.73 803.682 1663.12 805.596 M1672.23 823.096 L1672.23 862.562 Q1683.81 861.013 1689.64 856 Q1695.57 850.987 1695.57 842.784 Q1695.57 834.763 1689.92 830.023 Q1684.36 825.284 1672.23 823.096 Z" fill="#000000" fill-rule="evenodd" fill-opacity="1" /><path clip-path="url(#clip330)" d="M1775.32 739.698 L1790.81 739.698 L1743.42 893.096 L1727.92 893.096 L1775.32 739.698 Z" fill="#000000" fill-rule="evenodd" fill-opacity="1" /><path clip-path="url(#clip330)" d="M1807.04 739.698 L1825.54 739.698 L1825.54 822.367 Q1825.54 844.242 1833.47 853.903 Q1841.4 863.474 1859.17 863.474 Q1876.86 863.474 1884.79 853.903 Q1892.72 844.242 1892.72 822.367 L1892.72 739.698 L1911.22 739.698 L1911.22 824.646 Q1911.22 851.26 1898 864.841 Q1884.88 878.422 1859.17 878.422 Q1833.38 878.422 1820.16 864.841 Q1807.04 851.26 1807.04 824.646 L1807.04 739.698 Z" fill="#000000" fill-rule="evenodd" fill-opacity="1" /><path clip-path="url(#clip330)" d="M2029.89 814.164 L2029.89 875.778 L2013.12 875.778 L2013.12 814.711 Q2013.12 800.219 2007.47 793.018 Q2001.82 785.818 1990.51 785.818 Q1976.93 785.818 1969.1 794.477 Q1961.26 803.135 1961.26 818.083 L1961.26 875.778 L1944.39 875.778 L1944.39 773.696 L1961.26 773.696 L1961.26 789.555 Q1967.27 780.349 1975.38 775.792 Q1983.59 771.235 1994.25 771.235 Q2011.84 771.235 2020.87 782.172 Q2029.89 793.018 2029.89 814.164 Z" fill="#000000" fill-rule="evenodd" fill-opacity="1" /><path clip-path="url(#clip330)" d="M2063.34 773.696 L2080.11 773.696 L2080.11 875.778 L2063.34 875.778 L2063.34 773.696 M2063.34 733.956 L2080.11 733.956 L2080.11 755.193 L2063.34 755.193 L2063.34 733.956 Z" fill="#000000" fill-rule="evenodd" fill-opacity="1" /><path clip-path="url(#clip330)" d="M2131.79 744.711 L2131.79 773.696 L2166.33 773.696 L2166.33 786.729 L2131.79 786.729 L2131.79 842.146 Q2131.79 854.633 2135.16 858.187 Q2138.63 861.742 2149.11 861.742 L2166.33 861.742 L2166.33 875.778 L2149.11 875.778 Q2129.69 875.778 2122.31 868.578 Q2114.93 861.286 2114.93 842.146 L2114.93 786.729 L2102.62 786.729 L2102.62 773.696 L2114.93 773.696 L2114.93 744.711 L2131.79 744.711 Z" fill="#000000" fill-rule="evenodd" fill-opacity="1" /><path clip-path="url(#clip330)" d="M2185.75 734.138 L2200.33 734.138 Q2214 755.649 2220.75 776.248 Q2227.58 796.846 2227.58 817.172 Q2227.58 837.588 2220.75 858.278 Q2214 878.968 2200.33 900.388 L2185.75 900.388 Q2197.87 879.515 2203.79 858.916 Q2209.81 838.226 2209.81 817.172 Q2209.81 796.117 2203.79 775.61 Q2197.87 755.102 2185.75 734.138 Z" fill="#000000" fill-rule="evenodd" fill-opacity="1" /></svg>
