<?xml version="1.0" encoding="utf-8"?>
<svg xmlns="http://www.w3.org/2000/svg" xmlns:xlink="http://www.w3.org/1999/xlink" width="800" height="800" viewBox="0 0 3200 3200">
<defs>
  <clipPath id="clip490">
    <rect x="0" y="0" width="3200" height="3200"/>
  </clipPath>
</defs>
<path clip-path="url(#clip490)" d="
M0 3200 L3200 3200 L3200 0 L0 0  Z
  " fill="#ffffff" fill-rule="evenodd" fill-opacity="1"/>
<defs>
  <clipPath id="clip491">
    <rect x="640" y="320" width="2241" height="2241"/>
  </clipPath>
</defs>
<path clip-path="url(#clip490)" d="
M718.064 2299.33 L2481.94 2299.33 L2481.94 94.4882 L718.064 94.4882  Z
  " fill="#ffffff" fill-rule="evenodd" fill-opacity="1"/>
<defs>
  <clipPath id="clip492">
    <rect x="718" y="94" width="1765" height="2206"/>
  </clipPath>
</defs>
<polyline clip-path="url(#clip492)" style="stroke:#000000; stroke-linecap:round; stroke-linejoin:round; stroke-width:8; stroke-opacity:0.75; fill:none" points="
  865.053,2299.33 865.053,94.4882 
  "/>
<polyline clip-path="url(#clip492)" style="stroke:#000000; stroke-linecap:round; stroke-linejoin:round; stroke-width:8; stroke-opacity:0.75; fill:none" points="
  1012.04,2299.33 1012.04,94.4882 
  "/>
<polyline clip-path="url(#clip492)" style="stroke:#000000; stroke-linecap:round; stroke-linejoin:round; stroke-width:8; stroke-opacity:0.75; fill:none" points="
  1159.03,2299.33 1159.03,94.4882 
  "/>
<polyline clip-path="url(#clip492)" style="stroke:#000000; stroke-linecap:round; stroke-linejoin:round; stroke-width:8; stroke-opacity:0.75; fill:none" points="
  1306.02,2299.33 1306.02,94.4882 
  "/>
<polyline clip-path="url(#clip492)" style="stroke:#000000; stroke-linecap:round; stroke-linejoin:round; stroke-width:8; stroke-opacity:0.75; fill:none" points="
  1453.01,2299.33 1453.01,94.4882 
  "/>
<polyline clip-path="url(#clip492)" style="stroke:#000000; stroke-linecap:round; stroke-linejoin:round; stroke-width:8; stroke-opacity:0.75; fill:none" points="
  1600,2299.33 1600,94.4882 
  "/>
<polyline clip-path="url(#clip492)" style="stroke:#000000; stroke-linecap:round; stroke-linejoin:round; stroke-width:8; stroke-opacity:0.75; fill:none" points="
  1746.99,2299.33 1746.99,94.4882 
  "/>
<polyline clip-path="url(#clip492)" style="stroke:#000000; stroke-linecap:round; stroke-linejoin:round; stroke-width:8; stroke-opacity:0.75; fill:none" points="
  1893.98,2299.33 1893.98,94.4882 
  "/>
<polyline clip-path="url(#clip492)" style="stroke:#000000; stroke-linecap:round; stroke-linejoin:round; stroke-width:8; stroke-opacity:0.75; fill:none" points="
  2040.97,2299.33 2040.97,94.4882 
  "/>
<polyline clip-path="url(#clip492)" style="stroke:#000000; stroke-linecap:round; stroke-linejoin:round; stroke-width:8; stroke-opacity:0.75; fill:none" points="
  2187.96,2299.33 2187.96,94.4882 
  "/>
<polyline clip-path="url(#clip492)" style="stroke:#000000; stroke-linecap:round; stroke-linejoin:round; stroke-width:8; stroke-opacity:0.75; fill:none" points="
  2334.95,2299.33 2334.95,94.4882 
  "/>
<polyline clip-path="url(#clip492)" style="stroke:#000000; stroke-linecap:round; stroke-linejoin:round; stroke-width:8; stroke-opacity:0.75; fill:none" points="
  2481.94,2299.33 2481.94,94.4882 
  "/>
<polyline clip-path="url(#clip490)" style="stroke:#000000; stroke-linecap:round; stroke-linejoin:round; stroke-width:8; stroke-opacity:1; fill:none" points="
  718.064,2299.33 2481.94,2299.33 
  "/>
<polyline clip-path="url(#clip490)" style="stroke:#000000; stroke-linecap:round; stroke-linejoin:round; stroke-width:8; stroke-opacity:1; fill:none" points="
  865.053,2318.23 865.053,2280.43 
  "/>
<polyline clip-path="url(#clip490)" style="stroke:#000000; stroke-linecap:round; stroke-linejoin:round; stroke-width:8; stroke-opacity:1; fill:none" points="
  1012.04,2318.23 1012.04,2280.43 
  "/>
<polyline clip-path="url(#clip490)" style="stroke:#000000; stroke-linecap:round; stroke-linejoin:round; stroke-width:8; stroke-opacity:1; fill:none" points="
  1159.03,2318.23 1159.03,2280.43 
  "/>
<polyline clip-path="url(#clip490)" style="stroke:#000000; stroke-linecap:round; stroke-linejoin:round; stroke-width:8; stroke-opacity:1; fill:none" points="
  1306.02,2318.23 1306.02,2280.43 
  "/>
<polyline clip-path="url(#clip490)" style="stroke:#000000; stroke-linecap:round; stroke-linejoin:round; stroke-width:8; stroke-opacity:1; fill:none" points="
  1453.01,2318.23 1453.01,2280.43 
  "/>
<polyline clip-path="url(#clip490)" style="stroke:#000000; stroke-linecap:round; stroke-linejoin:round; stroke-width:8; stroke-opacity:1; fill:none" points="
  1600,2318.23 1600,2280.43 
  "/>
<polyline clip-path="url(#clip490)" style="stroke:#000000; stroke-linecap:round; stroke-linejoin:round; stroke-width:8; stroke-opacity:1; fill:none" points="
  1746.99,2318.23 1746.99,2280.43 
  "/>
<polyline clip-path="url(#clip490)" style="stroke:#000000; stroke-linecap:round; stroke-linejoin:round; stroke-width:8; stroke-opacity:1; fill:none" points="
  1893.98,2318.23 1893.98,2280.43 
  "/>
<polyline clip-path="url(#clip490)" style="stroke:#000000; stroke-linecap:round; stroke-linejoin:round; stroke-width:8; stroke-opacity:1; fill:none" points="
  2040.97,2318.23 2040.97,2280.43 
  "/>
<polyline clip-path="url(#clip490)" style="stroke:#000000; stroke-linecap:round; stroke-linejoin:round; stroke-width:8; stroke-opacity:1; fill:none" points="
  2187.96,2318.23 2187.96,2280.43 
  "/>
<polyline clip-path="url(#clip490)" style="stroke:#000000; stroke-linecap:round; stroke-linejoin:round; stroke-width:8; stroke-opacity:1; fill:none" points="
  2334.95,2318.23 2334.95,2280.43 
  "/>
<polyline clip-path="url(#clip490)" style="stroke:#000000; stroke-linecap:round; stroke-linejoin:round; stroke-width:8; stroke-opacity:1; fill:none" points="
  2481.94,2318.23 2481.94,2280.43 
  "/>
<polyline clip-path="url(#clip490)" style="stroke:#000000; stroke-linecap:round; stroke-linejoin:round; stroke-width:8; stroke-opacity:1; fill:none" points="
  791.559,2308.78 791.559,2289.88 
  "/>
<polyline clip-path="url(#clip490)" style="stroke:#000000; stroke-linecap:round; stroke-linejoin:round; stroke-width:8; stroke-opacity:1; fill:none" points="
  938.548,2308.78 938.548,2289.88 
  "/>
<polyline clip-path="url(#clip490)" style="stroke:#000000; stroke-linecap:round; stroke-linejoin:round; stroke-width:8; stroke-opacity:1; fill:none" points="
  1085.54,2308.78 1085.54,2289.88 
  "/>
<polyline clip-path="url(#clip490)" style="stroke:#000000; stroke-linecap:round; stroke-linejoin:round; stroke-width:8; stroke-opacity:1; fill:none" points="
  1232.53,2308.78 1232.53,2289.88 
  "/>
<polyline clip-path="url(#clip490)" style="stroke:#000000; stroke-linecap:round; stroke-linejoin:round; stroke-width:8; stroke-opacity:1; fill:none" points="
  1379.52,2308.78 1379.52,2289.88 
  "/>
<polyline clip-path="url(#clip490)" style="stroke:#000000; stroke-linecap:round; stroke-linejoin:round; stroke-width:8; stroke-opacity:1; fill:none" points="
  1526.51,2308.78 1526.51,2289.88 
  "/>
<polyline clip-path="url(#clip490)" style="stroke:#000000; stroke-linecap:round; stroke-linejoin:round; stroke-width:8; stroke-opacity:1; fill:none" points="
  1673.49,2308.78 1673.49,2289.88 
  "/>
<polyline clip-path="url(#clip490)" style="stroke:#000000; stroke-linecap:round; stroke-linejoin:round; stroke-width:8; stroke-opacity:1; fill:none" points="
  1820.48,2308.78 1820.48,2289.88 
  "/>
<polyline clip-path="url(#clip490)" style="stroke:#000000; stroke-linecap:round; stroke-linejoin:round; stroke-width:8; stroke-opacity:1; fill:none" points="
  1967.47,2308.78 1967.47,2289.88 
  "/>
<polyline clip-path="url(#clip490)" style="stroke:#000000; stroke-linecap:round; stroke-linejoin:round; stroke-width:8; stroke-opacity:1; fill:none" points="
  2114.46,2308.78 2114.46,2289.88 
  "/>
<polyline clip-path="url(#clip490)" style="stroke:#000000; stroke-linecap:round; stroke-linejoin:round; stroke-width:8; stroke-opacity:1; fill:none" points="
  2261.45,2308.78 2261.45,2289.88 
  "/>
<polyline clip-path="url(#clip490)" style="stroke:#000000; stroke-linecap:round; stroke-linejoin:round; stroke-width:8; stroke-opacity:1; fill:none" points="
  2408.44,2308.78 2408.44,2289.88 
  "/>
<path clip-path="url(#clip490)" d="M821.772 2501.62 L856.147 2501.62 L856.147 2382.98 L818.751 2390.48 L818.751 2371.31 L855.939 2363.81 L876.98 2363.81 L876.98 2501.62 L911.355 2501.62 L911.355 2519.33 L821.772 2519.33 L821.772 2501.62 Z" fill="#000000" fill-rule="evenodd" fill-opacity="1" /><path clip-path="url(#clip490)" d="M987.98 2501.62 L1061.42 2501.62 L1061.42 2519.33 L962.668 2519.33 L962.668 2501.62 Q974.647 2489.22 995.272 2468.39 Q1016 2447.45 1021.31 2441.41 Q1031.42 2430.06 1035.38 2422.25 Q1039.44 2414.33 1039.44 2406.72 Q1039.44 2394.33 1030.69 2386.52 Q1022.04 2378.7 1008.08 2378.7 Q998.188 2378.7 987.147 2382.14 Q976.209 2385.58 963.71 2392.56 L963.71 2371.31 Q976.418 2366.2 987.459 2363.6 Q998.501 2361 1007.67 2361 Q1031.83 2361 1046.21 2373.08 Q1060.58 2385.16 1060.58 2405.37 Q1060.58 2414.95 1056.94 2423.6 Q1053.4 2432.14 1043.92 2443.81 Q1041.31 2446.83 1027.36 2461.31 Q1013.4 2475.68 987.98 2501.62 Z" fill="#000000" fill-rule="evenodd" fill-opacity="1" /><path clip-path="url(#clip490)" d="M1178.15 2435.47 Q1193.25 2438.7 1201.69 2448.91 Q1210.23 2459.12 1210.23 2474.12 Q1210.23 2497.14 1194.4 2509.75 Q1178.56 2522.35 1149.4 2522.35 Q1139.6 2522.35 1129.19 2520.37 Q1118.88 2518.5 1107.83 2514.64 L1107.83 2494.33 Q1116.58 2499.43 1127 2502.04 Q1137.42 2504.64 1148.77 2504.64 Q1168.56 2504.64 1178.88 2496.83 Q1189.29 2489.02 1189.29 2474.12 Q1189.29 2460.37 1179.6 2452.66 Q1170.02 2444.85 1152.83 2444.85 L1134.71 2444.85 L1134.71 2427.56 L1153.67 2427.56 Q1169.19 2427.56 1177.42 2421.41 Q1185.65 2415.16 1185.65 2403.5 Q1185.65 2391.52 1177.1 2385.16 Q1168.67 2378.7 1152.83 2378.7 Q1144.19 2378.7 1134.29 2380.58 Q1124.4 2382.45 1112.52 2386.41 L1112.52 2367.66 Q1124.5 2364.33 1134.92 2362.66 Q1145.44 2361 1154.71 2361 Q1178.67 2361 1192.63 2371.93 Q1206.58 2382.77 1206.58 2401.31 Q1206.58 2414.22 1199.19 2423.18 Q1191.79 2432.04 1178.15 2435.47 Z" fill="#000000" fill-rule="evenodd" fill-opacity="1" /><path clip-path="url(#clip490)" d="M1319.56 2382.14 L1266.44 2465.16 L1319.56 2465.16 L1319.56 2382.14 M1314.04 2363.81 L1340.5 2363.81 L1340.5 2465.16 L1362.69 2465.16 L1362.69 2482.66 L1340.5 2482.66 L1340.5 2519.33 L1319.56 2519.33 L1319.56 2482.66 L1249.35 2482.66 L1249.35 2462.35 L1314.04 2363.81 Z" fill="#000000" fill-rule="evenodd" fill-opacity="1" /><path clip-path="url(#clip490)" d="M1409.26 2363.81 L1491.86 2363.81 L1491.86 2381.52 L1428.53 2381.52 L1428.53 2419.64 Q1433.11 2418.08 1437.7 2417.35 Q1442.28 2416.52 1446.86 2416.52 Q1472.91 2416.52 1488.11 2430.79 Q1503.32 2445.06 1503.32 2469.43 Q1503.32 2494.54 1487.7 2508.5 Q1472.07 2522.35 1443.64 2522.35 Q1433.84 2522.35 1423.64 2520.68 Q1413.53 2519.02 1402.7 2515.68 L1402.7 2494.54 Q1412.07 2499.64 1422.07 2502.14 Q1432.07 2504.64 1443.22 2504.64 Q1461.24 2504.64 1471.76 2495.16 Q1482.28 2485.68 1482.28 2469.43 Q1482.28 2453.18 1471.76 2443.7 Q1461.24 2434.22 1443.22 2434.22 Q1434.78 2434.22 1426.34 2436.1 Q1418.01 2437.97 1409.26 2441.93 L1409.26 2363.81 Z" fill="#000000" fill-rule="evenodd" fill-opacity="1" /><path clip-path="url(#clip490)" d="M1601.82 2433.18 Q1587.66 2433.18 1579.32 2442.87 Q1571.09 2452.56 1571.09 2469.43 Q1571.09 2486.2 1579.32 2496 Q1587.66 2505.68 1601.82 2505.68 Q1615.99 2505.68 1624.22 2496 Q1632.55 2486.2 1632.55 2469.43 Q1632.55 2452.56 1624.22 2442.87 Q1615.99 2433.18 1601.82 2433.18 M1643.59 2367.25 L1643.59 2386.41 Q1635.68 2382.66 1627.55 2380.68 Q1619.53 2378.7 1611.61 2378.7 Q1590.78 2378.7 1579.74 2392.77 Q1568.8 2406.83 1567.24 2435.27 Q1573.39 2426.2 1582.66 2421.41 Q1591.93 2416.52 1603.07 2416.52 Q1626.51 2416.52 1640.05 2430.79 Q1653.7 2444.95 1653.7 2469.43 Q1653.7 2493.39 1639.53 2507.87 Q1625.36 2522.35 1601.82 2522.35 Q1574.84 2522.35 1560.57 2501.72 Q1546.3 2481 1546.3 2441.72 Q1546.3 2404.85 1563.8 2382.98 Q1581.3 2361 1610.78 2361 Q1618.7 2361 1626.72 2362.56 Q1634.84 2364.12 1643.59 2367.25 Z" fill="#000000" fill-rule="evenodd" fill-opacity="1" /><path clip-path="url(#clip490)" d="M1696.99 2363.81 L1796.99 2363.81 L1796.99 2372.77 L1740.53 2519.33 L1718.55 2519.33 L1771.68 2381.52 L1696.99 2381.52 L1696.99 2363.81 Z" fill="#000000" fill-rule="evenodd" fill-opacity="1" /><path clip-path="url(#clip490)" d="M1893.98 2445.47 Q1878.98 2445.47 1870.33 2453.5 Q1861.79 2461.52 1861.79 2475.58 Q1861.79 2489.64 1870.33 2497.66 Q1878.98 2505.68 1893.98 2505.68 Q1908.98 2505.68 1917.62 2497.66 Q1926.27 2489.54 1926.27 2475.58 Q1926.27 2461.52 1917.62 2453.5 Q1909.08 2445.47 1893.98 2445.47 M1872.94 2436.52 Q1859.4 2433.18 1851.79 2423.91 Q1844.29 2414.64 1844.29 2401.31 Q1844.29 2382.66 1857.52 2371.83 Q1870.85 2361 1893.98 2361 Q1917.21 2361 1930.44 2371.83 Q1943.67 2382.66 1943.67 2401.31 Q1943.67 2414.64 1936.06 2423.91 Q1928.56 2433.18 1915.12 2436.52 Q1930.33 2440.06 1938.77 2450.37 Q1947.31 2460.68 1947.31 2475.58 Q1947.31 2498.18 1933.46 2510.27 Q1919.71 2522.35 1893.98 2522.35 Q1868.25 2522.35 1854.4 2510.27 Q1840.65 2498.18 1840.65 2475.58 Q1840.65 2460.68 1849.19 2450.37 Q1857.73 2440.06 1872.94 2436.52 M1865.23 2403.29 Q1865.23 2415.37 1872.73 2422.14 Q1880.33 2428.91 1893.98 2428.91 Q1907.52 2428.91 1915.12 2422.14 Q1922.83 2415.37 1922.83 2403.29 Q1922.83 2391.2 1915.12 2384.43 Q1907.52 2377.66 1893.98 2377.66 Q1880.33 2377.66 1872.73 2384.43 Q1865.23 2391.2 1865.23 2403.29 Z" fill="#000000" fill-rule="evenodd" fill-opacity="1" /><path clip-path="url(#clip490)" d="M1997.32 2516.1 L1997.32 2496.93 Q2005.24 2500.68 2013.36 2502.66 Q2021.49 2504.64 2029.3 2504.64 Q2050.13 2504.64 2061.07 2490.68 Q2072.11 2476.62 2073.68 2448.08 Q2067.63 2457.04 2058.36 2461.83 Q2049.09 2466.62 2037.84 2466.62 Q2014.51 2466.62 2000.86 2452.56 Q1987.32 2438.39 1987.32 2413.91 Q1987.32 2389.95 2001.49 2375.48 Q2015.66 2361 2039.2 2361 Q2066.18 2361 2080.34 2381.73 Q2094.61 2402.35 2094.61 2441.72 Q2094.61 2478.5 2077.11 2500.47 Q2059.72 2522.35 2030.24 2522.35 Q2022.32 2522.35 2014.2 2520.79 Q2006.07 2519.22 1997.32 2516.1 M2039.2 2450.16 Q2053.36 2450.16 2061.59 2440.47 Q2069.93 2430.79 2069.93 2413.91 Q2069.93 2397.14 2061.59 2387.45 Q2053.36 2377.66 2039.2 2377.66 Q2025.03 2377.66 2016.7 2387.45 Q2008.47 2397.14 2008.47 2413.91 Q2008.47 2430.79 2016.7 2440.47 Q2025.03 2450.16 2039.2 2450.16 Z" fill="#000000" fill-rule="evenodd" fill-opacity="1" /><path clip-path="url(#clip490)" d="M2074.05 2501.62 L2108.43 2501.62 L2108.43 2382.98 L2071.03 2390.48 L2071.03 2371.31 L2108.22 2363.81 L2129.26 2363.81 L2129.26 2501.62 L2163.63 2501.62 L2163.63 2519.33 L2074.05 2519.33 L2074.05 2501.62 Z" fill="#000000" fill-rule="evenodd" fill-opacity="1" /><path clip-path="url(#clip490)" d="M2251.13 2377.66 Q2234.88 2377.66 2226.66 2393.7 Q2218.53 2409.64 2218.53 2441.72 Q2218.53 2473.7 2226.66 2489.75 Q2234.88 2505.68 2251.13 2505.68 Q2267.49 2505.68 2275.61 2489.75 Q2283.84 2473.7 2283.84 2441.72 Q2283.84 2409.64 2275.61 2393.7 Q2267.49 2377.66 2251.13 2377.66 M2251.13 2361 Q2277.28 2361 2291.03 2381.73 Q2304.88 2402.35 2304.88 2441.72 Q2304.88 2481 2291.03 2501.72 Q2277.28 2522.35 2251.13 2522.35 Q2224.99 2522.35 2211.13 2501.72 Q2197.38 2481 2197.38 2441.72 Q2197.38 2402.35 2211.13 2381.73 Q2224.99 2361 2251.13 2361 Z" fill="#000000" fill-rule="evenodd" fill-opacity="1" /><path clip-path="url(#clip490)" d="M2223.8 2501.62 L2258.18 2501.62 L2258.18 2382.98 L2220.78 2390.48 L2220.78 2371.31 L2257.97 2363.81 L2279.01 2363.81 L2279.01 2501.62 L2313.38 2501.62 L2313.38 2519.33 L2223.8 2519.33 L2223.8 2501.62 Z" fill="#000000" fill-rule="evenodd" fill-opacity="1" /><path clip-path="url(#clip490)" d="M2359.53 2501.62 L2393.9 2501.62 L2393.9 2382.98 L2356.51 2390.48 L2356.51 2371.31 L2393.7 2363.81 L2414.74 2363.81 L2414.74 2501.62 L2449.11 2501.62 L2449.11 2519.33 L2359.53 2519.33 L2359.53 2501.62 Z" fill="#000000" fill-rule="evenodd" fill-opacity="1" /><path clip-path="url(#clip490)" d="M2371.62 2501.62 L2406 2501.62 L2406 2382.98 L2368.6 2390.48 L2368.6 2371.31 L2405.79 2363.81 L2426.83 2363.81 L2426.83 2501.62 L2461.21 2501.62 L2461.21 2519.33 L2371.62 2519.33 L2371.62 2501.62 Z" fill="#000000" fill-rule="evenodd" fill-opacity="1" /><path clip-path="url(#clip490)" d="M2521.83 2501.62 L2595.27 2501.62 L2595.27 2519.33 L2496.52 2519.33 L2496.52 2501.62 Q2508.5 2489.22 2529.12 2468.39 Q2549.85 2447.45 2555.16 2441.41 Q2565.27 2430.06 2569.23 2422.25 Q2573.29 2414.33 2573.29 2406.72 Q2573.29 2394.33 2564.54 2386.52 Q2555.89 2378.7 2541.94 2378.7 Q2532.04 2378.7 2521 2382.14 Q2510.06 2385.58 2497.56 2392.56 L2497.56 2371.31 Q2510.27 2366.2 2521.31 2363.6 Q2532.35 2361 2541.52 2361 Q2565.69 2361 2580.06 2373.08 Q2594.44 2385.16 2594.44 2405.37 Q2594.44 2414.95 2590.79 2423.6 Q2587.25 2432.14 2577.77 2443.81 Q2575.16 2446.83 2561.21 2461.31 Q2547.25 2475.68 2521.83 2501.62 Z" fill="#000000" fill-rule="evenodd" fill-opacity="1" /><path clip-path="url(#clip490)" d="M1661.85 2658.19 Q1661.85 2666.06 1656.93 2670.55 Q1652.01 2674.91 1646.39 2674.91 Q1641.05 2674.91 1638.24 2671.82 Q1635.43 2668.73 1635.43 2664.79 Q1635.43 2659.45 1639.36 2654.81 Q1643.3 2650.18 1649.2 2649.19 Q1643.44 2645.54 1634.87 2645.54 Q1629.25 2645.54 1624.33 2648.49 Q1619.55 2651.44 1616.6 2655.24 Q1613.79 2659.03 1611.26 2664.51 Q1608.87 2669.85 1607.88 2673.08 Q1607.04 2676.18 1606.34 2679.55 L1596.5 2718.9 Q1591.72 2737.59 1591.72 2744.2 Q1591.72 2752.35 1595.66 2757.83 Q1599.59 2763.17 1607.46 2763.17 Q1610.55 2763.17 1614.07 2762.32 Q1617.58 2761.34 1622.08 2758.81 Q1626.72 2756.14 1630.79 2752.21 Q1635.01 2748.13 1639.08 2741.24 Q1643.16 2734.36 1645.83 2725.5 Q1646.67 2722.41 1649.48 2722.41 Q1653 2722.41 1653 2725.22 Q1653 2727.61 1651.03 2732.67 Q1649.2 2737.59 1645.13 2744.05 Q1641.19 2750.38 1635.99 2756.14 Q1630.79 2761.76 1623.06 2765.7 Q1615.33 2769.63 1606.9 2769.63 Q1594.81 2769.63 1586.8 2763.17 Q1578.79 2756.7 1575.84 2747.71 Q1575.14 2748.97 1574.16 2750.66 Q1573.17 2752.35 1570.22 2756.14 Q1567.41 2759.79 1564.18 2762.61 Q1560.95 2765.28 1555.89 2767.38 Q1550.97 2769.63 1545.63 2769.63 Q1538.88 2769.63 1532.84 2767.66 Q1526.94 2765.7 1522.72 2761.2 Q1518.5 2756.7 1518.5 2750.52 Q1518.5 2743.63 1523.14 2738.85 Q1527.92 2733.94 1534.38 2733.94 Q1538.46 2733.94 1541.69 2736.33 Q1545.06 2738.71 1545.06 2743.91 Q1545.06 2749.68 1541.13 2754.03 Q1537.19 2758.39 1531.57 2759.51 Q1537.34 2763.17 1545.91 2763.17 Q1555.18 2763.17 1562.49 2755.02 Q1569.8 2746.87 1573.31 2733.23 Q1582.03 2700.49 1585.4 2685.87 Q1588.77 2671.12 1588.77 2664.79 Q1588.77 2658.89 1587.23 2654.81 Q1585.68 2650.74 1583.01 2648.91 Q1580.48 2646.95 1578.09 2646.24 Q1575.84 2645.54 1573.31 2645.54 Q1569.1 2645.54 1564.32 2647.23 Q1559.68 2648.91 1554.06 2652.85 Q1548.58 2656.64 1543.38 2664.51 Q1538.18 2672.38 1534.67 2683.2 Q1533.96 2686.44 1530.87 2686.44 Q1527.5 2686.29 1527.5 2683.48 Q1527.5 2681.09 1529.33 2676.18 Q1531.29 2671.12 1535.23 2664.79 Q1539.3 2658.47 1544.5 2652.85 Q1549.84 2647.09 1557.57 2643.15 Q1565.44 2639.22 1573.87 2639.22 Q1577.67 2639.22 1581.32 2640.06 Q1585.12 2640.76 1589.61 2642.87 Q1594.25 2644.98 1598.33 2649.62 Q1602.4 2654.25 1604.93 2661 Q1606.62 2657.77 1608.87 2654.67 Q1611.26 2651.58 1614.91 2647.79 Q1618.71 2643.85 1623.9 2641.6 Q1629.25 2639.22 1635.15 2639.22 Q1640.91 2639.22 1646.53 2640.76 Q1652.15 2642.17 1656.93 2646.8 Q1661.85 2651.3 1661.85 2658.19 Z" fill="#000000" fill-rule="evenodd" fill-opacity="1" /><polyline clip-path="url(#clip492)" style="stroke:#000000; stroke-linecap:round; stroke-linejoin:round; stroke-width:8; stroke-opacity:0.75; fill:none" points="
  718.064,2152.34 2481.94,2152.34 
  "/>
<polyline clip-path="url(#clip492)" style="stroke:#000000; stroke-linecap:round; stroke-linejoin:round; stroke-width:8; stroke-opacity:0.75; fill:none" points="
  718.064,2005.35 2481.94,2005.35 
  "/>
<polyline clip-path="url(#clip492)" style="stroke:#000000; stroke-linecap:round; stroke-linejoin:round; stroke-width:8; stroke-opacity:0.75; fill:none" points="
  718.064,1858.36 2481.94,1858.36 
  "/>
<polyline clip-path="url(#clip492)" style="stroke:#000000; stroke-linecap:round; stroke-linejoin:round; stroke-width:8; stroke-opacity:0.75; fill:none" points="
  718.064,1711.37 2481.94,1711.37 
  "/>
<polyline clip-path="url(#clip492)" style="stroke:#000000; stroke-linecap:round; stroke-linejoin:round; stroke-width:8; stroke-opacity:0.75; fill:none" points="
  718.064,1564.38 2481.94,1564.38 
  "/>
<polyline clip-path="url(#clip492)" style="stroke:#000000; stroke-linecap:round; stroke-linejoin:round; stroke-width:8; stroke-opacity:0.75; fill:none" points="
  718.064,1417.39 2481.94,1417.39 
  "/>
<polyline clip-path="url(#clip492)" style="stroke:#000000; stroke-linecap:round; stroke-linejoin:round; stroke-width:8; stroke-opacity:0.75; fill:none" points="
  718.064,1270.4 2481.94,1270.4 
  "/>
<polyline clip-path="url(#clip492)" style="stroke:#000000; stroke-linecap:round; stroke-linejoin:round; stroke-width:8; stroke-opacity:0.75; fill:none" points="
  718.064,1123.41 2481.94,1123.41 
  "/>
<polyline clip-path="url(#clip492)" style="stroke:#000000; stroke-linecap:round; stroke-linejoin:round; stroke-width:8; stroke-opacity:0.75; fill:none" points="
  718.064,976.424 2481.94,976.424 
  "/>
<polyline clip-path="url(#clip492)" style="stroke:#000000; stroke-linecap:round; stroke-linejoin:round; stroke-width:8; stroke-opacity:0.75; fill:none" points="
  718.064,829.435 2481.94,829.435 
  "/>
<polyline clip-path="url(#clip492)" style="stroke:#000000; stroke-linecap:round; stroke-linejoin:round; stroke-width:8; stroke-opacity:0.75; fill:none" points="
  718.064,682.446 2481.94,682.446 
  "/>
<polyline clip-path="url(#clip492)" style="stroke:#000000; stroke-linecap:round; stroke-linejoin:round; stroke-width:8; stroke-opacity:0.75; fill:none" points="
  718.064,535.456 2481.94,535.456 
  "/>
<polyline clip-path="url(#clip492)" style="stroke:#000000; stroke-linecap:round; stroke-linejoin:round; stroke-width:8; stroke-opacity:0.75; fill:none" points="
  718.064,388.467 2481.94,388.467 
  "/>
<polyline clip-path="url(#clip492)" style="stroke:#000000; stroke-linecap:round; stroke-linejoin:round; stroke-width:8; stroke-opacity:0.75; fill:none" points="
  718.064,241.478 2481.94,241.478 
  "/>
<polyline clip-path="url(#clip492)" style="stroke:#000000; stroke-linecap:round; stroke-linejoin:round; stroke-width:8; stroke-opacity:0.75; fill:none" points="
  718.064,94.4882 2481.94,94.4882 
  "/>
<polyline clip-path="url(#clip490)" style="stroke:#000000; stroke-linecap:round; stroke-linejoin:round; stroke-width:8; stroke-opacity:1; fill:none" points="
  718.064,2299.33 718.064,94.4882 
  "/>
<polyline clip-path="url(#clip490)" style="stroke:#000000; stroke-linecap:round; stroke-linejoin:round; stroke-width:8; stroke-opacity:1; fill:none" points="
  707.647,2152.34 728.48,2152.34 
  "/>
<polyline clip-path="url(#clip490)" style="stroke:#000000; stroke-linecap:round; stroke-linejoin:round; stroke-width:8; stroke-opacity:1; fill:none" points="
  707.647,2005.35 728.48,2005.35 
  "/>
<polyline clip-path="url(#clip490)" style="stroke:#000000; stroke-linecap:round; stroke-linejoin:round; stroke-width:8; stroke-opacity:1; fill:none" points="
  707.647,1858.36 728.48,1858.36 
  "/>
<polyline clip-path="url(#clip490)" style="stroke:#000000; stroke-linecap:round; stroke-linejoin:round; stroke-width:8; stroke-opacity:1; fill:none" points="
  707.647,1711.37 728.48,1711.37 
  "/>
<polyline clip-path="url(#clip490)" style="stroke:#000000; stroke-linecap:round; stroke-linejoin:round; stroke-width:8; stroke-opacity:1; fill:none" points="
  707.647,1564.38 728.48,1564.38 
  "/>
<polyline clip-path="url(#clip490)" style="stroke:#000000; stroke-linecap:round; stroke-linejoin:round; stroke-width:8; stroke-opacity:1; fill:none" points="
  707.647,1417.39 728.48,1417.39 
  "/>
<polyline clip-path="url(#clip490)" style="stroke:#000000; stroke-linecap:round; stroke-linejoin:round; stroke-width:8; stroke-opacity:1; fill:none" points="
  707.647,1270.4 728.48,1270.4 
  "/>
<polyline clip-path="url(#clip490)" style="stroke:#000000; stroke-linecap:round; stroke-linejoin:round; stroke-width:8; stroke-opacity:1; fill:none" points="
  707.647,1123.41 728.48,1123.41 
  "/>
<polyline clip-path="url(#clip490)" style="stroke:#000000; stroke-linecap:round; stroke-linejoin:round; stroke-width:8; stroke-opacity:1; fill:none" points="
  707.647,976.424 728.48,976.424 
  "/>
<polyline clip-path="url(#clip490)" style="stroke:#000000; stroke-linecap:round; stroke-linejoin:round; stroke-width:8; stroke-opacity:1; fill:none" points="
  707.647,829.435 728.48,829.435 
  "/>
<polyline clip-path="url(#clip490)" style="stroke:#000000; stroke-linecap:round; stroke-linejoin:round; stroke-width:8; stroke-opacity:1; fill:none" points="
  707.647,682.446 728.48,682.446 
  "/>
<polyline clip-path="url(#clip490)" style="stroke:#000000; stroke-linecap:round; stroke-linejoin:round; stroke-width:8; stroke-opacity:1; fill:none" points="
  707.647,535.456 728.48,535.456 
  "/>
<polyline clip-path="url(#clip490)" style="stroke:#000000; stroke-linecap:round; stroke-linejoin:round; stroke-width:8; stroke-opacity:1; fill:none" points="
  707.647,388.467 728.48,388.467 
  "/>
<polyline clip-path="url(#clip490)" style="stroke:#000000; stroke-linecap:round; stroke-linejoin:round; stroke-width:8; stroke-opacity:1; fill:none" points="
  707.647,241.478 728.48,241.478 
  "/>
<polyline clip-path="url(#clip490)" style="stroke:#000000; stroke-linecap:round; stroke-linejoin:round; stroke-width:8; stroke-opacity:1; fill:none" points="
  707.647,94.4882 728.48,94.4882 
  "/>
<polyline clip-path="url(#clip490)" style="stroke:#000000; stroke-linecap:round; stroke-linejoin:round; stroke-width:8; stroke-opacity:1; fill:none" points="
  712.856,2225.83 723.272,2225.83 
  "/>
<polyline clip-path="url(#clip490)" style="stroke:#000000; stroke-linecap:round; stroke-linejoin:round; stroke-width:8; stroke-opacity:1; fill:none" points="
  712.856,2078.84 723.272,2078.84 
  "/>
<polyline clip-path="url(#clip490)" style="stroke:#000000; stroke-linecap:round; stroke-linejoin:round; stroke-width:8; stroke-opacity:1; fill:none" points="
  712.856,1931.86 723.272,1931.86 
  "/>
<polyline clip-path="url(#clip490)" style="stroke:#000000; stroke-linecap:round; stroke-linejoin:round; stroke-width:8; stroke-opacity:1; fill:none" points="
  712.856,1784.87 723.272,1784.87 
  "/>
<polyline clip-path="url(#clip490)" style="stroke:#000000; stroke-linecap:round; stroke-linejoin:round; stroke-width:8; stroke-opacity:1; fill:none" points="
  712.856,1637.88 723.272,1637.88 
  "/>
<polyline clip-path="url(#clip490)" style="stroke:#000000; stroke-linecap:round; stroke-linejoin:round; stroke-width:8; stroke-opacity:1; fill:none" points="
  712.856,1490.89 723.272,1490.89 
  "/>
<polyline clip-path="url(#clip490)" style="stroke:#000000; stroke-linecap:round; stroke-linejoin:round; stroke-width:8; stroke-opacity:1; fill:none" points="
  712.856,1343.9 723.272,1343.9 
  "/>
<polyline clip-path="url(#clip490)" style="stroke:#000000; stroke-linecap:round; stroke-linejoin:round; stroke-width:8; stroke-opacity:1; fill:none" points="
  712.856,1196.91 723.272,1196.91 
  "/>
<polyline clip-path="url(#clip490)" style="stroke:#000000; stroke-linecap:round; stroke-linejoin:round; stroke-width:8; stroke-opacity:1; fill:none" points="
  712.856,1049.92 723.272,1049.92 
  "/>
<polyline clip-path="url(#clip490)" style="stroke:#000000; stroke-linecap:round; stroke-linejoin:round; stroke-width:8; stroke-opacity:1; fill:none" points="
  712.856,902.93 723.272,902.93 
  "/>
<polyline clip-path="url(#clip490)" style="stroke:#000000; stroke-linecap:round; stroke-linejoin:round; stroke-width:8; stroke-opacity:1; fill:none" points="
  712.856,755.94 723.272,755.94 
  "/>
<polyline clip-path="url(#clip490)" style="stroke:#000000; stroke-linecap:round; stroke-linejoin:round; stroke-width:8; stroke-opacity:1; fill:none" points="
  712.856,608.951 723.272,608.951 
  "/>
<polyline clip-path="url(#clip490)" style="stroke:#000000; stroke-linecap:round; stroke-linejoin:round; stroke-width:8; stroke-opacity:1; fill:none" points="
  712.856,461.962 723.272,461.962 
  "/>
<polyline clip-path="url(#clip490)" style="stroke:#000000; stroke-linecap:round; stroke-linejoin:round; stroke-width:8; stroke-opacity:1; fill:none" points="
  712.856,314.972 723.272,314.972 
  "/>
<polyline clip-path="url(#clip490)" style="stroke:#000000; stroke-linecap:round; stroke-linejoin:round; stroke-width:8; stroke-opacity:1; fill:none" points="
  712.856,167.983 723.272,167.983 
  "/>
<path clip-path="url(#clip490)" d="M580.481 2212.39 L614.856 2212.39 L614.856 2093.75 L577.46 2101.25 L577.46 2082.08 L614.648 2074.58 L635.689 2074.58 L635.689 2212.39 L670.064 2212.39 L670.064 2230.1 L580.481 2230.1 L580.481 2212.39 Z" fill="#000000" fill-rule="evenodd" fill-opacity="1" /><path clip-path="url(#clip490)" d="M596.627 2065.4 L670.064 2065.4 L670.064 2083.11 L571.314 2083.11 L571.314 2065.4 Q583.294 2053.01 603.918 2032.17 Q624.647 2011.24 629.96 2005.19 Q640.064 1993.84 644.022 1986.03 Q648.085 1978.11 648.085 1970.51 Q648.085 1958.11 639.335 1950.3 Q630.689 1942.49 616.731 1942.49 Q606.835 1942.49 595.793 1945.92 Q584.856 1949.36 572.356 1956.34 L572.356 1935.09 Q585.064 1929.99 596.106 1927.38 Q607.148 1924.78 616.314 1924.78 Q640.481 1924.78 654.856 1936.86 Q669.231 1948.94 669.231 1969.15 Q669.231 1978.74 665.585 1987.38 Q662.043 1995.92 652.564 2007.59 Q649.96 2010.61 636.002 2025.09 Q622.043 2039.46 596.627 2065.4 Z" fill="#000000" fill-rule="evenodd" fill-opacity="1" /><path clip-path="url(#clip490)" d="M637.981 1852.27 Q653.085 1855.5 661.522 1865.7 Q670.064 1875.91 670.064 1890.91 Q670.064 1913.93 654.231 1926.54 Q638.397 1939.14 609.231 1939.14 Q599.439 1939.14 589.023 1937.16 Q578.71 1935.29 567.669 1931.43 L567.669 1911.12 Q576.419 1916.22 586.835 1918.83 Q597.252 1921.43 608.606 1921.43 Q628.397 1921.43 638.71 1913.62 Q649.126 1905.81 649.126 1890.91 Q649.126 1877.16 639.439 1869.45 Q629.856 1861.64 612.668 1861.64 L594.543 1861.64 L594.543 1844.35 L613.502 1844.35 Q629.022 1844.35 637.252 1838.2 Q645.481 1831.95 645.481 1820.29 Q645.481 1808.31 636.939 1801.95 Q628.502 1795.5 612.668 1795.5 Q604.023 1795.5 594.127 1797.37 Q584.231 1799.25 572.356 1803.2 L572.356 1784.45 Q584.335 1781.12 594.752 1779.45 Q605.273 1777.79 614.543 1777.79 Q638.502 1777.79 652.46 1788.73 Q666.418 1799.56 666.418 1818.1 Q666.418 1831.02 659.022 1839.98 Q651.626 1848.83 637.981 1852.27 Z" fill="#000000" fill-rule="evenodd" fill-opacity="1" /><path clip-path="url(#clip490)" d="M626.939 1651.94 L573.814 1734.96 L626.939 1734.96 L626.939 1651.94 M621.418 1633.61 L647.876 1633.61 L647.876 1734.96 L670.064 1734.96 L670.064 1752.46 L647.876 1752.46 L647.876 1789.13 L626.939 1789.13 L626.939 1752.46 L556.731 1752.46 L556.731 1732.15 L621.418 1633.61 Z" fill="#000000" fill-rule="evenodd" fill-opacity="1" /><path clip-path="url(#clip490)" d="M576.002 1486.62 L658.606 1486.62 L658.606 1504.33 L595.273 1504.33 L595.273 1542.45 Q599.856 1540.89 604.439 1540.16 Q609.023 1539.33 613.606 1539.33 Q639.647 1539.33 654.856 1553.6 Q670.064 1567.87 670.064 1592.25 Q670.064 1617.35 654.439 1631.31 Q638.814 1645.16 610.377 1645.16 Q600.585 1645.16 590.377 1643.5 Q580.273 1641.83 569.439 1638.5 L569.439 1617.35 Q578.814 1622.45 588.814 1624.95 Q598.814 1627.45 609.96 1627.45 Q627.981 1627.45 638.502 1617.98 Q649.022 1608.5 649.022 1592.25 Q649.022 1576 638.502 1566.52 Q627.981 1557.04 609.96 1557.04 Q601.523 1557.04 593.085 1558.91 Q584.752 1560.79 576.002 1564.75 L576.002 1486.62 Z" fill="#000000" fill-rule="evenodd" fill-opacity="1" /><path clip-path="url(#clip490)" d="M618.189 1409.01 Q604.023 1409.01 595.689 1418.69 Q587.46 1428.38 587.46 1445.26 Q587.46 1462.03 595.689 1471.82 Q604.023 1481.51 618.189 1481.51 Q632.356 1481.51 640.585 1471.82 Q648.918 1462.03 648.918 1445.26 Q648.918 1428.38 640.585 1418.69 Q632.356 1409.01 618.189 1409.01 M659.96 1343.07 L659.96 1362.24 Q652.043 1358.49 643.918 1356.51 Q635.897 1354.53 627.981 1354.53 Q607.148 1354.53 596.106 1368.59 Q585.168 1382.65 583.606 1411.09 Q589.752 1402.03 599.023 1397.24 Q608.293 1392.34 619.439 1392.34 Q642.877 1392.34 656.418 1406.61 Q670.064 1420.78 670.064 1445.26 Q670.064 1469.22 655.897 1483.69 Q641.731 1498.17 618.189 1498.17 Q591.21 1498.17 576.939 1477.55 Q562.669 1456.82 562.669 1417.55 Q562.669 1380.67 580.169 1358.8 Q597.668 1336.82 627.147 1336.82 Q635.064 1336.82 643.085 1338.38 Q651.21 1339.94 659.96 1343.07 Z" fill="#000000" fill-rule="evenodd" fill-opacity="1" /><path clip-path="url(#clip490)" d="M570.064 1192.64 L670.064 1192.64 L670.064 1201.6 L613.606 1348.16 L591.627 1348.16 L644.752 1210.35 L570.064 1210.35 L570.064 1192.64 Z" fill="#000000" fill-rule="evenodd" fill-opacity="1" /><path clip-path="url(#clip490)" d="M616.731 1127.32 Q601.731 1127.32 593.085 1135.34 Q584.543 1143.36 584.543 1157.42 Q584.543 1171.49 593.085 1179.51 Q601.731 1187.53 616.731 1187.53 Q631.731 1187.53 640.377 1179.51 Q649.022 1171.38 649.022 1157.42 Q649.022 1143.36 640.377 1135.34 Q631.835 1127.32 616.731 1127.32 M595.689 1118.36 Q582.148 1115.03 574.544 1105.76 Q567.044 1096.49 567.044 1083.15 Q567.044 1064.51 580.273 1053.67 Q593.606 1042.84 616.731 1042.84 Q639.96 1042.84 653.189 1053.67 Q666.418 1064.51 666.418 1083.15 Q666.418 1096.49 658.814 1105.76 Q651.314 1115.03 637.877 1118.36 Q653.085 1121.9 661.522 1132.22 Q670.064 1142.53 670.064 1157.42 Q670.064 1180.03 656.21 1192.11 Q642.46 1204.19 616.731 1204.19 Q591.002 1204.19 577.148 1192.11 Q563.398 1180.03 563.398 1157.42 Q563.398 1142.53 571.939 1132.22 Q580.481 1121.9 595.689 1118.36 M587.981 1085.13 Q587.981 1097.22 595.481 1103.99 Q603.085 1110.76 616.731 1110.76 Q630.272 1110.76 637.877 1103.99 Q645.585 1097.22 645.585 1085.13 Q645.585 1073.05 637.877 1066.28 Q630.272 1059.51 616.731 1059.51 Q603.085 1059.51 595.481 1066.28 Q587.981 1073.05 587.981 1085.13 Z" fill="#000000" fill-rule="evenodd" fill-opacity="1" /><path clip-path="url(#clip490)" d="M572.773 1050.96 L572.773 1031.79 Q580.689 1035.54 588.814 1037.52 Q596.939 1039.5 604.752 1039.5 Q625.585 1039.5 636.522 1025.54 Q647.564 1011.48 649.126 982.935 Q643.085 991.893 633.814 996.685 Q624.543 1001.48 613.293 1001.48 Q589.96 1001.48 576.314 987.414 Q562.773 973.247 562.773 948.768 Q562.773 924.81 576.939 910.331 Q591.106 895.852 614.648 895.852 Q641.627 895.852 655.793 916.581 Q670.064 937.206 670.064 976.581 Q670.064 1013.35 652.564 1035.33 Q635.168 1057.21 605.689 1057.21 Q597.773 1057.21 589.648 1055.64 Q581.523 1054.08 572.773 1050.96 M614.648 985.018 Q628.814 985.018 637.043 975.331 Q645.377 965.643 645.377 948.768 Q645.377 931.997 637.043 922.31 Q628.814 912.518 614.648 912.518 Q600.481 912.518 592.148 922.31 Q583.919 931.997 583.919 948.768 Q583.919 965.643 592.148 975.331 Q600.481 985.018 614.648 985.018 Z" fill="#000000" fill-rule="evenodd" fill-opacity="1" /><path clip-path="url(#clip490)" d="M439.232 889.487 L473.607 889.487 L473.607 770.842 L436.211 778.341 L436.211 759.175 L473.398 751.675 L494.44 751.675 L494.44 889.487 L528.815 889.487 L528.815 907.195 L439.232 907.195 L439.232 889.487 Z" fill="#000000" fill-rule="evenodd" fill-opacity="1" /><path clip-path="url(#clip490)" d="M616.314 765.529 Q600.064 765.529 591.835 781.571 Q583.71 797.508 583.71 829.591 Q583.71 861.57 591.835 877.612 Q600.064 893.549 616.314 893.549 Q632.668 893.549 640.793 877.612 Q649.022 861.57 649.022 829.591 Q649.022 797.508 640.793 781.571 Q632.668 765.529 616.314 765.529 M616.314 748.862 Q642.46 748.862 656.21 769.592 Q670.064 790.216 670.064 829.591 Q670.064 868.862 656.21 889.591 Q642.46 910.216 616.314 910.216 Q590.168 910.216 576.314 889.591 Q562.564 868.862 562.564 829.591 Q562.564 790.216 576.314 769.592 Q590.168 748.862 616.314 748.862 Z" fill="#000000" fill-rule="evenodd" fill-opacity="1" /><path clip-path="url(#clip490)" d="M444.753 742.497 L479.127 742.497 L479.127 623.852 L441.732 631.352 L441.732 612.186 L478.919 604.686 L499.961 604.686 L499.961 742.497 L534.335 742.497 L534.335 760.206 L444.753 760.206 L444.753 742.497 Z" fill="#000000" fill-rule="evenodd" fill-opacity="1" /><path clip-path="url(#clip490)" d="M580.481 742.497 L614.856 742.497 L614.856 623.852 L577.46 631.352 L577.46 612.186 L614.648 604.686 L635.689 604.686 L635.689 742.497 L670.064 742.497 L670.064 760.206 L580.481 760.206 L580.481 742.497 Z" fill="#000000" fill-rule="evenodd" fill-opacity="1" /><path clip-path="url(#clip490)" d="M446.419 595.508 L480.794 595.508 L480.794 476.863 L443.398 484.363 L443.398 465.196 L480.586 457.696 L501.627 457.696 L501.627 595.508 L536.002 595.508 L536.002 613.216 L446.419 613.216 L446.419 595.508 Z" fill="#000000" fill-rule="evenodd" fill-opacity="1" /><path clip-path="url(#clip490)" d="M596.627 595.508 L670.064 595.508 L670.064 613.216 L571.314 613.216 L571.314 595.508 Q583.294 583.112 603.918 562.279 Q624.647 541.342 629.96 535.3 Q640.064 523.946 644.022 516.133 Q648.085 508.217 648.085 500.613 Q648.085 488.217 639.335 480.404 Q630.689 472.592 616.731 472.592 Q606.835 472.592 595.793 476.029 Q584.856 479.467 572.356 486.446 L572.356 465.196 Q585.064 460.092 596.106 457.488 Q607.148 454.884 616.314 454.884 Q640.481 454.884 654.856 466.967 Q669.231 479.05 669.231 499.259 Q669.231 508.842 665.585 517.488 Q662.043 526.029 652.564 537.696 Q649.96 540.717 636.002 555.196 Q622.043 569.571 596.627 595.508 Z" fill="#000000" fill-rule="evenodd" fill-opacity="1" /><path clip-path="url(#clip490)" d="M442.148 448.519 L476.523 448.519 L476.523 329.873 L439.128 337.373 L439.128 318.207 L476.315 310.707 L497.356 310.707 L497.356 448.519 L531.731 448.519 L531.731 466.227 L442.148 466.227 L442.148 448.519 Z" fill="#000000" fill-rule="evenodd" fill-opacity="1" /><path clip-path="url(#clip490)" d="M637.981 382.373 Q653.085 385.602 661.522 395.811 Q670.064 406.019 670.064 421.019 Q670.064 444.04 654.231 456.644 Q638.397 469.248 609.231 469.248 Q599.439 469.248 589.023 467.269 Q578.71 465.394 567.669 461.539 L567.669 441.227 Q576.419 446.331 586.835 448.935 Q597.252 451.539 608.606 451.539 Q628.397 451.539 638.71 443.727 Q649.126 435.915 649.126 421.019 Q649.126 407.269 639.439 399.561 Q629.856 391.748 612.668 391.748 L594.543 391.748 L594.543 374.457 L613.502 374.457 Q629.022 374.457 637.252 368.311 Q645.481 362.061 645.481 350.394 Q645.481 338.415 636.939 332.061 Q628.502 325.603 612.668 325.603 Q604.023 325.603 594.127 327.478 Q584.231 329.353 572.356 333.311 L572.356 314.561 Q584.335 311.228 594.752 309.561 Q605.273 307.894 614.543 307.894 Q638.502 307.894 652.46 318.832 Q666.418 329.665 666.418 348.207 Q666.418 361.123 659.022 370.082 Q651.626 378.936 637.981 382.373 Z" fill="#000000" fill-rule="evenodd" fill-opacity="1" /><path clip-path="url(#clip490)" d="M437.044 301.529 L471.419 301.529 L471.419 182.884 L434.023 190.384 L434.023 171.218 L471.211 163.718 L492.252 163.718 L492.252 301.529 L526.627 301.529 L526.627 319.238 L437.044 319.238 L437.044 301.529 Z" fill="#000000" fill-rule="evenodd" fill-opacity="1" /><path clip-path="url(#clip490)" d="M626.939 182.051 L573.814 265.071 L626.939 265.071 L626.939 182.051 M621.418 163.718 L647.876 163.718 L647.876 265.071 L670.064 265.071 L670.064 282.571 L647.876 282.571 L647.876 319.238 L626.939 319.238 L626.939 282.571 L556.731 282.571 L556.731 262.259 L621.418 163.718 Z" fill="#000000" fill-rule="evenodd" fill-opacity="1" /><path clip-path="url(#clip490)" d="M443.711 154.54 L478.086 154.54 L478.086 35.8948 L440.69 43.3947 L440.69 24.2281 L477.877 16.7282 L498.919 16.7282 L498.919 154.54 L533.294 154.54 L533.294 172.248 L443.711 172.248 L443.711 154.54 Z" fill="#000000" fill-rule="evenodd" fill-opacity="1" /><path clip-path="url(#clip490)" d="M576.002 16.7282 L658.606 16.7282 L658.606 34.4364 L595.273 34.4364 L595.273 72.5612 Q599.856 70.9987 604.439 70.2696 Q609.023 69.4362 613.606 69.4362 Q639.647 69.4362 654.856 83.707 Q670.064 97.9778 670.064 122.353 Q670.064 147.457 654.439 161.415 Q638.814 175.269 610.377 175.269 Q600.585 175.269 590.377 173.602 Q580.273 171.936 569.439 168.602 L569.439 147.457 Q578.814 152.561 588.814 155.061 Q598.814 157.561 609.96 157.561 Q627.981 157.561 638.502 148.082 Q649.022 138.603 649.022 122.353 Q649.022 106.103 638.502 96.6236 Q627.981 87.1445 609.96 87.1445 Q601.523 87.1445 593.085 89.0195 Q584.752 90.8945 576.002 94.8528 L576.002 16.7282 Z" fill="#000000" fill-rule="evenodd" fill-opacity="1" /><path clip-path="url(#clip490)" d="M179.135 1133.91 Q181.103 1133.91 185.74 1135.17 L295.639 1162.72 Q320.092 1168.76 337.237 1188.43 Q354.382 1207.97 354.382 1230.17 Q354.382 1243.52 347.215 1252.1 Q340.188 1260.67 329.367 1260.67 Q319.811 1260.67 315.173 1255.61 Q310.676 1250.55 310.676 1244.51 Q310.676 1242.54 311.238 1240.43 Q311.8 1238.32 314.189 1236.08 Q316.578 1233.83 320.654 1233.83 Q327.259 1233.83 332.459 1239.59 Q334.848 1242.4 335.41 1245.07 Q335.972 1247.6 335.972 1251.96 Q339.907 1250.27 342.577 1247.18 Q345.247 1244.09 346.231 1240.57 Q347.355 1237.06 347.636 1234.81 Q348.058 1232.42 348.058 1230.17 Q348.058 1212.19 329.929 1198.41 Q324.448 1194.34 318.967 1191.39 Q313.627 1188.29 307.022 1186.05 Q300.557 1183.8 297.044 1182.81 Q293.531 1181.69 285.52 1179.72 Q298.59 1192.79 298.59 1208.81 Q298.59 1215.56 296.763 1221.6 Q294.936 1227.5 291.141 1232.7 Q287.206 1237.9 280.32 1240.99 Q273.434 1243.95 264.299 1243.95 Q254.602 1243.95 241.392 1240.15 Q228.182 1236.36 203.869 1227.22 Q190.238 1222.3 183.632 1222.3 Q180.4 1222.3 178.433 1223.01 Q176.325 1223.71 175.622 1225.11 Q174.779 1226.52 174.638 1227.36 Q174.498 1228.07 174.498 1229.47 Q174.498 1237.76 182.93 1245.49 Q191.362 1253.22 210.193 1258.56 Q213.707 1259.69 214.55 1260.39 Q215.393 1261.09 215.393 1263.2 Q215.253 1266.71 212.442 1266.71 Q211.318 1266.71 206.961 1265.45 Q202.464 1264.18 195.859 1261.23 Q189.113 1258.14 183.07 1253.92 Q176.887 1249.71 172.53 1243.1 Q168.174 1236.36 168.174 1228.63 Q168.174 1218.09 175.06 1211.62 Q181.805 1205.02 191.783 1205.02 Q195.859 1205.02 199.513 1206.14 Q203.026 1207.13 212.442 1210.78 Q250.386 1225.54 268.937 1225.54 Q273.434 1225.54 277.229 1224.83 Q280.882 1223.99 284.536 1222.16 Q288.05 1220.34 290.158 1216.68 Q292.125 1212.89 292.125 1207.69 Q292.125 1201.08 289.033 1194.9 Q285.801 1188.58 281.445 1184.64 Q277.088 1180.56 273.434 1178.18 Q269.64 1175.65 267.672 1175.08 L215.955 1162.15 L192.908 1156.39 Q180.4 1153.72 177.308 1152.46 Q174.357 1150.77 172.811 1147.82 Q171.265 1144.87 171.265 1142.34 Q171.265 1138.83 173.373 1136.44 Q175.481 1133.91 179.135 1133.91 Z" fill="#000000" fill-rule="evenodd" fill-opacity="1" /><path clip-path="url(#clip492)" d="
M1012.04 976.424 L1026.74 998.473 L1041.44 1020.52 L1056.14 1042.57 L1070.84 1064.62 L1085.54 1086.67 L1100.24 1108.71 L1114.94 1130.76 L1129.63 1152.81 L1144.33 1174.86 
  L1159.03 1196.91 L1173.73 1218.96 L1188.43 1241.01 L1203.13 1263.05 L1217.83 1285.1 L1232.53 1307.15 L1247.23 1329.2 L1261.92 1351.25 L1276.62 1373.3 L1291.32 1395.34 
  L1306.02 1417.39 L1320.72 1439.44 L1335.42 1461.49 L1350.12 1483.54 L1364.82 1505.59 L1379.52 1527.63 L1394.21 1549.68 L1408.91 1571.73 L1423.61 1593.78 L1438.31 1615.83 
  L1453.01 1637.88 L1467.71 1659.92 L1482.41 1681.97 L1497.11 1704.02 L1511.81 1726.07 L1526.51 1748.12 L1541.2 1770.17 L1555.9 1792.22 L1570.6 1814.26 L1585.3 1836.31 
  L1600 1858.36 L1614.7 1851.01 L1629.4 1843.66 L1644.1 1836.31 L1658.8 1828.96 L1673.49 1821.61 L1688.19 1814.26 L1702.89 1806.91 L1717.59 1799.56 L1732.29 1792.22 
  L1746.99 1784.87 L1761.69 1777.52 L1776.39 1770.17 L1791.09 1762.82 L1805.79 1755.47 L1820.48 1748.12 L1835.18 1740.77 L1849.88 1733.42 L1864.58 1726.07 L1879.28 1718.72 
  L1893.98 1711.37 L1908.68 1704.02 L1923.38 1696.67 L1938.08 1689.32 L1952.77 1681.97 L1967.47 1674.62 L1982.17 1667.27 L1996.87 1659.92 L2011.57 1652.58 L2026.27 1645.23 
  L2040.97 1637.88 L2055.67 1630.53 L2070.37 1623.18 L2085.06 1615.83 L2099.76 1608.48 L2114.46 1601.13 L2129.16 1593.78 L2143.86 1586.43 L2158.56 1579.08 L2173.26 1571.73 
  L2187.96 1564.38 L2202.66 1557.03 L2217.36 1549.68 L2232.05 1542.33 L2246.75 1534.98 L2261.45 1527.63 L2276.15 1520.28 L2290.85 1512.94 L2290.85 1520.28 L2276.15 1505.59 
  L2261.45 1490.89 L2246.75 1476.19 L2232.05 1461.49 L2217.36 1446.79 L2202.66 1432.09 L2187.96 1417.39 L2173.26 1402.69 L2158.56 1387.99 L2143.86 1373.3 L2129.16 1358.6 
  L2114.46 1343.9 L2099.76 1329.2 L2085.06 1314.5 L2070.37 1299.8 L2055.67 1285.1 L2040.97 1270.4 L2026.27 1255.7 L2011.57 1241.01 L1996.87 1226.31 L1982.17 1211.61 
  L1967.47 1196.91 L1952.77 1182.21 L1938.08 1167.51 L1923.38 1152.81 L1908.68 1138.11 L1893.98 1123.41 L1879.28 1108.71 L1864.58 1094.02 L1849.88 1079.32 L1835.18 1064.62 
  L1820.48 1049.92 L1805.79 1035.22 L1791.09 1020.52 L1776.39 1005.82 L1761.69 991.123 L1746.99 976.424 L1732.29 961.725 L1717.59 947.026 L1702.89 932.328 L1688.19 917.629 
  L1673.49 902.93 L1658.8 888.231 L1644.1 873.532 L1629.4 858.833 L1614.7 844.134 L1600 829.435 L1585.3 814.736 L1570.6 800.037 L1555.9 785.338 L1541.2 770.639 
  L1526.51 755.94 L1511.81 741.241 L1497.11 726.542 L1482.41 711.843 L1467.71 697.145 L1453.01 682.446 L1438.31 667.747 L1423.61 653.048 L1408.91 638.349 L1394.21 623.65 
  L1379.52 608.951 L1364.82 594.252 L1350.12 579.553 L1335.42 564.854 L1320.72 550.155 L1306.02 535.456 L1291.32 520.757 L1276.62 506.058 L1261.92 491.359 L1247.23 476.661 
  L1232.53 461.962 L1217.83 447.263 L1203.13 432.564 L1188.43 417.865 L1173.73 403.166 L1159.03 388.467 L1144.33 381.117 L1129.63 447.263 L1114.94 513.408 L1100.24 579.553 
  L1085.54 645.698 L1070.84 711.843 L1056.14 777.989 L1041.44 844.134 L1026.74 910.279 L1012.04 976.424  Z
  " fill="#add8e6" fill-rule="evenodd" fill-opacity="1"/>
<polyline clip-path="url(#clip492)" style="stroke:#add8e6; stroke-linecap:round; stroke-linejoin:round; stroke-width:8; stroke-opacity:1; fill:none" points="
  1012.04,976.424 1026.74,998.473 1041.44,1020.52 1056.14,1042.57 1070.84,1064.62 1085.54,1086.67 1100.24,1108.71 1114.94,1130.76 1129.63,1152.81 1144.33,1174.86 
  1159.03,1196.91 1173.73,1218.96 1188.43,1241.01 1203.13,1263.05 1217.83,1285.1 1232.53,1307.15 1247.23,1329.2 1261.92,1351.25 1276.62,1373.3 1291.32,1395.34 
  1306.02,1417.39 1320.72,1439.44 1335.42,1461.49 1350.12,1483.54 1364.82,1505.59 1379.52,1527.63 1394.21,1549.68 1408.91,1571.73 1423.61,1593.78 1438.31,1615.83 
  1453.01,1637.88 1467.71,1659.92 1482.41,1681.97 1497.11,1704.02 1511.81,1726.07 1526.51,1748.12 1541.2,1770.17 1555.9,1792.22 1570.6,1814.26 1585.3,1836.31 
  1600,1858.36 1614.7,1851.01 1629.4,1843.66 1644.1,1836.31 1658.8,1828.96 1673.49,1821.61 1688.19,1814.26 1702.89,1806.91 1717.59,1799.56 1732.29,1792.22 
  1746.99,1784.87 1761.69,1777.52 1776.39,1770.17 1791.09,1762.82 1805.79,1755.47 1820.48,1748.12 1835.18,1740.77 1849.88,1733.42 1864.58,1726.07 1879.28,1718.72 
  1893.98,1711.37 1908.68,1704.02 1923.38,1696.67 1938.08,1689.32 1952.77,1681.97 1967.47,1674.62 1982.17,1667.27 1996.87,1659.92 2011.57,1652.58 2026.27,1645.23 
  2040.97,1637.88 2055.67,1630.53 2070.37,1623.18 2085.06,1615.83 2099.76,1608.48 2114.46,1601.13 2129.16,1593.78 2143.86,1586.43 2158.56,1579.08 2173.26,1571.73 
  2187.96,1564.38 2202.66,1557.03 2217.36,1549.68 2232.05,1542.33 2246.75,1534.98 2261.45,1527.63 2276.15,1520.28 2290.85,1512.94 
  "/>
<polyline clip-path="url(#clip492)" style="stroke:#008000; stroke-linecap:round; stroke-linejoin:round; stroke-width:24; stroke-opacity:1; fill:none" points="
  424.085,3622.23 438.784,3556.09 453.483,3489.94 468.182,3423.8 482.881,3357.65 497.58,3291.51 512.279,3225.36 526.978,3159.22 541.677,3093.07 556.376,3026.93 
  571.075,2960.78 585.773,2894.64 600.472,2828.49 615.171,2762.34 629.87,2696.2 644.569,2630.05 659.268,2563.91 673.967,2497.76 688.666,2431.62 703.365,2365.47 
  718.064,2299.33 732.763,2233.18 747.462,2167.04 762.161,2100.89 776.86,2034.75 791.559,1968.6 806.257,1902.46 820.956,1836.31 835.655,1770.17 850.354,1704.02 
  865.053,1637.88 879.752,1571.73 894.451,1505.59 909.15,1439.44 923.849,1373.3 938.548,1307.15 953.247,1241.01 967.946,1174.86 982.645,1108.71 997.344,1042.57 
  1012.04,976.424 1026.74,910.279 1041.44,844.134 1056.14,777.989 1070.84,711.843 1085.54,645.698 1100.24,579.553 1114.94,513.408 1129.63,447.263 1144.33,381.117 
  1159.03,314.972 1173.73,248.827 1188.43,182.682 1203.13,116.537 1217.83,50.3914 1232.53,-15.7538 1247.23,-81.899 1261.92,-148.044 1276.62,-214.189 1291.32,-280.335 
  1306.02,-346.48 1320.72,-412.625 1335.42,-478.77 1350.12,-544.916 1364.82,-611.061 1379.52,-677.206 1394.21,-743.351 1408.91,-809.496 1423.61,-875.642 1438.31,-941.787 
  1453.01,-1007.93 1467.71,-1074.08 1482.41,-1140.22 1497.11,-1206.37 1511.81,-1272.51 1526.51,-1338.66 1541.2,-1404.8 1555.9,-1470.95 1570.6,-1537.09 1585.3,-1603.24 
  1600,-1669.38 1614.7,-1735.53 1629.4,-1801.67 1644.1,-1867.82 1658.8,-1933.96 1673.49,-2000.11 1688.19,-2066.26 1702.89,-2132.4 1717.59,-2198.55 1732.29,-2264.69 
  1746.99,-2330.84 1761.69,-2396.98 1776.39,-2463.13 1791.09,-2529.27 1805.79,-2595.42 1820.48,-2661.56 1835.18,-2727.71 1849.88,-2793.85 1864.58,-2860 1879.28,-2926.14 
  1893.98,-2992.29 1908.68,-3058.43 1923.38,-3124.58 1938.08,-3190.72 1952.77,-3256.87 1967.47,-3323.01 1982.17,-3389.16 1996.87,-3455.3 2011.57,-3521.45 2026.27,-3587.6 
  2040.97,-3653.74 2055.67,-3719.89 2070.37,-3786.03 2085.06,-3852.18 2099.76,-3918.32 2114.46,-3984.47 2129.16,-4050.61 2143.86,-4116.76 2158.56,-4182.9 2173.26,-4249.05 
  2187.96,-4315.19 2202.66,-4381.34 2217.36,-4447.48 2232.05,-4513.63 2246.75,-4579.77 2261.45,-4645.92 2276.15,-4712.06 2290.85,-4778.21 2305.55,-4844.35 2320.25,-4910.5 
  2334.95,-4976.64 2349.65,-5042.79 2364.34,-5108.93 2379.04,-5175.08 2393.74,-5241.23 2408.44,-5307.37 2423.14,-5373.52 2437.84,-5439.66 2452.54,-5505.81 2467.24,-5571.95 
  2481.94,-5638.1 2496.64,-5704.24 2511.33,-5770.39 2526.03,-5836.53 2540.73,-5902.68 2555.43,-5968.82 2570.13,-6034.97 2584.83,-6101.11 2599.53,-6167.26 2614.23,-6233.4 
  2628.93,-6299.55 2643.62,-6365.69 2658.32,-6431.84 2673.02,-6497.98 2687.72,-6564.13 2702.42,-6630.27 2717.12,-6696.42 2731.82,-6762.57 2746.52,-6828.71 2761.22,-6894.86 
  2775.91,-6961 2790.61,-7027.15 2805.31,-7093.29 2820.01,-7159.44 2834.71,-7225.58 2849.41,-7291.73 2864.11,-7357.87 2878.81,-7424.02 2893.51,-7490.16 2908.21,-7556.31 
  2922.9,-7622.45 2937.6,-7688.6 2952.3,-7754.74 2967,-7820.89 2981.7,-7887.03 2996.4,-7953.18 3011.1,-8019.32 3025.8,-8085.47 3040.5,-8151.61 3055.19,-8217.76 
  3069.89,-8283.91 3084.59,-8350.05 3099.29,-8416.2 3113.99,-8482.34 3128.69,-8548.49 3143.39,-8614.63 3158.09,-8680.78 3172.79,-8746.92 3187.49,-8813.07 3202.18,-8879.21 
  3216.88,-8945.36 3231.58,-9011.5 3246.28,-9077.65 3260.98,-9143.79 3275.68,-9209.94 3290.38,-9276.08 3305.08,-9342.23 3319.78,-9408.37 3334.47,-9474.52 3349.17,-9540.66 
  3363.87,-9606.81 3378.57,-9672.95 3393.27,-9739.1 3407.97,-9805.24 3422.67,-9871.39 3437.37,-9937.54 3452.07,-10003.7 3466.76,-10069.8 3481.46,-10136 3496.16,-10202.1 
  3510.86,-10268.3 3525.56,-10334.4 3540.26,-10400.6 3554.96,-10466.7 3569.66,-10532.8 3584.36,-10599 3599.06,-10665.1 3613.75,-10731.3 3628.45,-10797.4 3643.15,-10863.6 
  3657.85,-10929.7 
  "/>
<polyline clip-path="url(#clip492)" style="stroke:#ff0000; stroke-linecap:round; stroke-linejoin:round; stroke-width:24; stroke-opacity:1; fill:none" points="
  424.085,-346.48 438.784,-331.781 453.483,-317.082 468.182,-302.383 482.881,-287.684 497.58,-272.985 512.279,-258.286 526.978,-243.587 541.677,-228.888 556.376,-214.189 
  571.075,-199.491 585.773,-184.792 600.472,-170.093 615.171,-155.394 629.87,-140.695 644.569,-125.996 659.268,-111.297 673.967,-96.598 688.666,-81.899 703.365,-67.2001 
  718.064,-52.5012 732.763,-37.8022 747.462,-23.1033 762.161,-8.40436 776.86,6.29458 791.559,20.9935 806.257,35.6924 820.956,50.3914 835.655,65.0903 850.354,79.7893 
  865.053,94.4882 879.752,109.187 894.451,123.886 909.15,138.585 923.849,153.284 938.548,167.983 953.247,182.682 967.946,197.381 982.645,212.08 997.344,226.779 
  1012.04,241.478 1026.74,256.176 1041.44,270.875 1056.14,285.574 1070.84,300.273 1085.54,314.972 1100.24,329.671 1114.94,344.37 1129.63,359.069 1144.33,373.768 
  1159.03,388.467 1173.73,403.166 1188.43,417.865 1203.13,432.564 1217.83,447.263 1232.53,461.962 1247.23,476.661 1261.92,491.359 1276.62,506.058 1291.32,520.757 
  1306.02,535.456 1320.72,550.155 1335.42,564.854 1350.12,579.553 1364.82,594.252 1379.52,608.951 1394.21,623.65 1408.91,638.349 1423.61,653.048 1438.31,667.747 
  1453.01,682.446 1467.71,697.145 1482.41,711.843 1497.11,726.542 1511.81,741.241 1526.51,755.94 1541.2,770.639 1555.9,785.338 1570.6,800.037 1585.3,814.736 
  1600,829.435 1614.7,844.134 1629.4,858.833 1644.1,873.532 1658.8,888.231 1673.49,902.93 1688.19,917.629 1702.89,932.328 1717.59,947.026 1732.29,961.725 
  1746.99,976.424 1761.69,991.123 1776.39,1005.82 1791.09,1020.52 1805.79,1035.22 1820.48,1049.92 1835.18,1064.62 1849.88,1079.32 1864.58,1094.02 1879.28,1108.71 
  1893.98,1123.41 1908.68,1138.11 1923.38,1152.81 1938.08,1167.51 1952.77,1182.21 1967.47,1196.91 1982.17,1211.61 1996.87,1226.31 2011.57,1241.01 2026.27,1255.7 
  2040.97,1270.4 2055.67,1285.1 2070.37,1299.8 2085.06,1314.5 2099.76,1329.2 2114.46,1343.9 2129.16,1358.6 2143.86,1373.3 2158.56,1387.99 2173.26,1402.69 
  2187.96,1417.39 2202.66,1432.09 2217.36,1446.79 2232.05,1461.49 2246.75,1476.19 2261.45,1490.89 2276.15,1505.59 2290.85,1520.28 2305.55,1534.98 2320.25,1549.68 
  2334.95,1564.38 2349.65,1579.08 2364.34,1593.78 2379.04,1608.48 2393.74,1623.18 2408.44,1637.88 2423.14,1652.58 2437.84,1667.27 2452.54,1681.97 2467.24,1696.67 
  2481.94,1711.37 2496.64,1726.07 2511.33,1740.77 2526.03,1755.47 2540.73,1770.17 2555.43,1784.87 2570.13,1799.56 2584.83,1814.26 2599.53,1828.96 2614.23,1843.66 
  2628.93,1858.36 2643.62,1873.06 2658.32,1887.76 2673.02,1902.46 2687.72,1917.16 2702.42,1931.86 2717.12,1946.55 2731.82,1961.25 2746.52,1975.95 2761.22,1990.65 
  2775.91,2005.35 2790.61,2020.05 2805.31,2034.75 2820.01,2049.45 2834.71,2064.15 2849.41,2078.84 2864.11,2093.54 2878.81,2108.24 2893.51,2122.94 2908.21,2137.64 
  2922.9,2152.34 2937.6,2167.04 2952.3,2181.74 2967,2196.44 2981.7,2211.13 2996.4,2225.83 3011.1,2240.53 3025.8,2255.23 3040.5,2269.93 3055.19,2284.63 
  3069.89,2299.33 3084.59,2314.03 3099.29,2328.73 3113.99,2343.43 3128.69,2358.12 3143.39,2372.82 3158.09,2387.52 3172.79,2402.22 3187.49,2416.92 3202.18,2431.62 
  3216.88,2446.32 3231.58,2461.02 3246.28,2475.72 3260.98,2490.41 3275.68,2505.11 3290.38,2519.81 3305.08,2534.51 3319.78,2549.21 3334.47,2563.91 3349.17,2578.61 
  3363.87,2593.31 3378.57,2608.01 3393.27,2622.71 3407.97,2637.4 3422.67,2652.1 3437.37,2666.8 3452.07,2681.5 3466.76,2696.2 3481.46,2710.9 3496.16,2725.6 
  3510.86,2740.3 3525.56,2755 3540.26,2769.69 3554.96,2784.39 3569.66,2799.09 3584.36,2813.79 3599.06,2828.49 3613.75,2843.19 3628.45,2857.89 3643.15,2872.59 
  3657.85,2887.29 
  "/>
<polyline clip-path="url(#clip492)" style="stroke:#a52a2a; stroke-linecap:round; stroke-linejoin:round; stroke-width:24; stroke-opacity:1; fill:none" points="
  424.085,94.4882 438.784,116.537 453.483,138.585 468.182,160.633 482.881,182.682 497.58,204.73 512.279,226.779 526.978,248.827 541.677,270.875 556.376,292.924 
  571.075,314.972 585.773,337.021 600.472,359.069 615.171,381.117 629.87,403.166 644.569,425.214 659.268,447.263 673.967,469.311 688.666,491.359 703.365,513.408 
  718.064,535.456 732.763,557.505 747.462,579.553 762.161,601.601 776.86,623.65 791.559,645.698 806.257,667.747 820.956,689.795 835.655,711.843 850.354,733.892 
  865.053,755.94 879.752,777.989 894.451,800.037 909.15,822.085 923.849,844.134 938.548,866.182 953.247,888.231 967.946,910.279 982.645,932.328 997.344,954.376 
  1012.04,976.424 1026.74,998.473 1041.44,1020.52 1056.14,1042.57 1070.84,1064.62 1085.54,1086.67 1100.24,1108.71 1114.94,1130.76 1129.63,1152.81 1144.33,1174.86 
  1159.03,1196.91 1173.73,1218.96 1188.43,1241.01 1203.13,1263.05 1217.83,1285.1 1232.53,1307.15 1247.23,1329.2 1261.92,1351.25 1276.62,1373.3 1291.32,1395.34 
  1306.02,1417.39 1320.72,1439.44 1335.42,1461.49 1350.12,1483.54 1364.82,1505.59 1379.52,1527.63 1394.21,1549.68 1408.91,1571.73 1423.61,1593.78 1438.31,1615.83 
  1453.01,1637.88 1467.71,1659.92 1482.41,1681.97 1497.11,1704.02 1511.81,1726.07 1526.51,1748.12 1541.2,1770.17 1555.9,1792.22 1570.6,1814.26 1585.3,1836.31 
  1600,1858.36 1614.7,1880.41 1629.4,1902.46 1644.1,1924.51 1658.8,1946.55 1673.49,1968.6 1688.19,1990.65 1702.89,2012.7 1717.59,2034.75 1732.29,2056.8 
  1746.99,2078.84 1761.69,2100.89 1776.39,2122.94 1791.09,2144.99 1805.79,2167.04 1820.48,2189.09 1835.18,2211.13 1849.88,2233.18 1864.58,2255.23 1879.28,2277.28 
  1893.98,2299.33 1908.68,2321.38 1923.38,2343.43 1938.08,2365.47 1952.77,2387.52 1967.47,2409.57 1982.17,2431.62 1996.87,2453.67 2011.57,2475.72 2026.27,2497.76 
  2040.97,2519.81 2055.67,2541.86 2070.37,2563.91 2085.06,2585.96 2099.76,2608.01 2114.46,2630.05 2129.16,2652.1 2143.86,2674.15 2158.56,2696.2 2173.26,2718.25 
  2187.96,2740.3 2202.66,2762.34 2217.36,2784.39 2232.05,2806.44 2246.75,2828.49 2261.45,2850.54 2276.15,2872.59 2290.85,2894.64 2305.55,2916.68 2320.25,2938.73 
  2334.95,2960.78 2349.65,2982.83 2364.34,3004.88 2379.04,3026.93 2393.74,3048.97 2408.44,3071.02 2423.14,3093.07 2437.84,3115.12 2452.54,3137.17 2467.24,3159.22 
  2481.94,3181.26 2496.64,3203.31 2511.33,3225.36 2526.03,3247.41 2540.73,3269.46 2555.43,3291.51 2570.13,3313.56 2584.83,3335.6 2599.53,3357.65 2614.23,3379.7 
  2628.93,3401.75 2643.62,3423.8 2658.32,3445.85 2673.02,3467.89 2687.72,3489.94 2702.42,3511.99 2717.12,3534.04 2731.82,3556.09 2746.52,3578.14 2761.22,3600.18 
  2775.91,3622.23 2790.61,3644.28 2805.31,3666.33 2820.01,3688.38 2834.71,3710.43 2849.41,3732.47 2864.11,3754.52 2878.81,3776.57 2893.51,3798.62 2908.21,3820.67 
  2922.9,3842.72 2937.6,3864.77 2952.3,3886.81 2967,3908.86 2981.7,3930.91 2996.4,3952.96 3011.1,3975.01 3025.8,3997.06 3040.5,4019.1 3055.19,4041.15 
  3069.89,4063.2 3084.59,4085.25 3099.29,4107.3 3113.99,4129.35 3128.69,4151.39 3143.39,4173.44 3158.09,4195.49 3172.79,4217.54 3187.49,4239.59 3202.18,4261.64 
  3216.88,4283.68 3231.58,4305.73 3246.28,4327.78 3260.98,4349.83 3275.68,4371.88 3290.38,4393.93 3305.08,4415.98 3319.78,4438.02 3334.47,4460.07 3349.17,4482.12 
  3363.87,4504.17 3378.57,4526.22 3393.27,4548.27 3407.97,4570.31 3422.67,4592.36 3437.37,4614.41 3452.07,4636.46 3466.76,4658.51 3481.46,4680.56 3496.16,4702.6 
  3510.86,4724.65 3525.56,4746.7 3540.26,4768.75 3554.96,4790.8 3569.66,4812.85 3584.36,4834.89 3599.06,4856.94 3613.75,4878.99 3628.45,4901.04 3643.15,4923.09 
  3657.85,4945.14 
  "/>
<polyline clip-path="url(#clip492)" style="stroke:#800080; stroke-linecap:round; stroke-linejoin:round; stroke-width:24; stroke-opacity:1; fill:none" points="
  424.085,2446.32 438.784,2438.97 453.483,2431.62 468.182,2424.27 482.881,2416.92 497.58,2409.57 512.279,2402.22 526.978,2394.87 541.677,2387.52 556.376,2380.17 
  571.075,2372.82 585.773,2365.47 600.472,2358.12 615.171,2350.77 629.87,2343.43 644.569,2336.08 659.268,2328.73 673.967,2321.38 688.666,2314.03 703.365,2306.68 
  718.064,2299.33 732.763,2291.98 747.462,2284.63 762.161,2277.28 776.86,2269.93 791.559,2262.58 806.257,2255.23 820.956,2247.88 835.655,2240.53 850.354,2233.18 
  865.053,2225.83 879.752,2218.48 894.451,2211.13 909.15,2203.79 923.849,2196.44 938.548,2189.09 953.247,2181.74 967.946,2174.39 982.645,2167.04 997.344,2159.69 
  1012.04,2152.34 1026.74,2144.99 1041.44,2137.64 1056.14,2130.29 1070.84,2122.94 1085.54,2115.59 1100.24,2108.24 1114.94,2100.89 1129.63,2093.54 1144.33,2086.19 
  1159.03,2078.84 1173.73,2071.5 1188.43,2064.15 1203.13,2056.8 1217.83,2049.45 1232.53,2042.1 1247.23,2034.75 1261.92,2027.4 1276.62,2020.05 1291.32,2012.7 
  1306.02,2005.35 1320.72,1998 1335.42,1990.65 1350.12,1983.3 1364.82,1975.95 1379.52,1968.6 1394.21,1961.25 1408.91,1953.9 1423.61,1946.55 1438.31,1939.2 
  1453.01,1931.86 1467.71,1924.51 1482.41,1917.16 1497.11,1909.81 1511.81,1902.46 1526.51,1895.11 1541.2,1887.76 1555.9,1880.41 1570.6,1873.06 1585.3,1865.71 
  1600,1858.36 1614.7,1851.01 1629.4,1843.66 1644.1,1836.31 1658.8,1828.96 1673.49,1821.61 1688.19,1814.26 1702.89,1806.91 1717.59,1799.56 1732.29,1792.22 
  1746.99,1784.87 1761.69,1777.52 1776.39,1770.17 1791.09,1762.82 1805.79,1755.47 1820.48,1748.12 1835.18,1740.77 1849.88,1733.42 1864.58,1726.07 1879.28,1718.72 
  1893.98,1711.37 1908.68,1704.02 1923.38,1696.67 1938.08,1689.32 1952.77,1681.97 1967.47,1674.62 1982.17,1667.27 1996.87,1659.92 2011.57,1652.58 2026.27,1645.23 
  2040.97,1637.88 2055.67,1630.53 2070.37,1623.18 2085.06,1615.83 2099.76,1608.48 2114.46,1601.13 2129.16,1593.78 2143.86,1586.43 2158.56,1579.08 2173.26,1571.73 
  2187.96,1564.38 2202.66,1557.03 2217.36,1549.68 2232.05,1542.33 2246.75,1534.98 2261.45,1527.63 2276.15,1520.28 2290.85,1512.94 2305.55,1505.59 2320.25,1498.24 
  2334.95,1490.89 2349.65,1483.54 2364.34,1476.19 2379.04,1468.84 2393.74,1461.49 2408.44,1454.14 2423.14,1446.79 2437.84,1439.44 2452.54,1432.09 2467.24,1424.74 
  2481.94,1417.39 2496.64,1410.04 2511.33,1402.69 2526.03,1395.34 2540.73,1387.99 2555.43,1380.65 2570.13,1373.3 2584.83,1365.95 2599.53,1358.6 2614.23,1351.25 
  2628.93,1343.9 2643.62,1336.55 2658.32,1329.2 2673.02,1321.85 2687.72,1314.5 2702.42,1307.15 2717.12,1299.8 2731.82,1292.45 2746.52,1285.1 2761.22,1277.75 
  2775.91,1270.4 2790.61,1263.05 2805.31,1255.7 2820.01,1248.35 2834.71,1241.01 2849.41,1233.66 2864.11,1226.31 2878.81,1218.96 2893.51,1211.61 2908.21,1204.26 
  2922.9,1196.91 2937.6,1189.56 2952.3,1182.21 2967,1174.86 2981.7,1167.51 2996.4,1160.16 3011.1,1152.81 3025.8,1145.46 3040.5,1138.11 3055.19,1130.76 
  3069.89,1123.41 3084.59,1116.06 3099.29,1108.71 3113.99,1101.37 3128.69,1094.02 3143.39,1086.67 3158.09,1079.32 3172.79,1071.97 3187.49,1064.62 3202.18,1057.27 
  3216.88,1049.92 3231.58,1042.57 3246.28,1035.22 3260.98,1027.87 3275.68,1020.52 3290.38,1013.17 3305.08,1005.82 3319.78,998.473 3334.47,991.123 3349.17,983.774 
  3363.87,976.424 3378.57,969.075 3393.27,961.725 3407.97,954.376 3422.67,947.026 3437.37,939.677 3452.07,932.328 3466.76,924.978 3481.46,917.629 3496.16,910.279 
  3510.86,902.93 3525.56,895.58 3540.26,888.231 3554.96,880.881 3569.66,873.532 3584.36,866.182 3599.06,858.833 3613.75,851.483 3628.45,844.134 3643.15,836.784 
  3657.85,829.435 
  "/>
</svg>
