<?xml version="1.0" encoding="utf-8"?>
<svg xmlns="http://www.w3.org/2000/svg" xmlns:xlink="http://www.w3.org/1999/xlink" width="500" height="450" viewBox="0 0 2000 1800">
<defs>
  <clipPath id="clip640">
    <rect x="0" y="0" width="2000" height="1800"/>
  </clipPath>
</defs>
<path clip-path="url(#clip640)" d="
M0 1800 L2000 1800 L2000 0 L0 0  Z
  " fill="#ffffff" fill-rule="evenodd" fill-opacity="1"/>
<defs>
  <clipPath id="clip641">
    <rect x="400" y="0" width="1401" height="1401"/>
  </clipPath>
</defs>
<defs>
  <clipPath id="clip642">
    <rect x="96" y="47" width="1808" height="1507"/>
  </clipPath>
</defs>
<path clip-path="url(#clip640)" d="
M96.664 1552.8 L1903.34 1552.8 L1903.34 47.2441 L96.664 47.2441  Z
  " fill="#ffffff" fill-rule="evenodd" fill-opacity="1"/>
<polyline clip-path="url(#clip642)" style="stroke:#000000; stroke-linecap:round; stroke-linejoin:round; stroke-width:3; stroke-opacity:0.3; fill:none" points="
  397.776,1552.8 397.776,47.2441 
  "/>
<polyline clip-path="url(#clip642)" style="stroke:#000000; stroke-linecap:round; stroke-linejoin:round; stroke-width:3; stroke-opacity:0.3; fill:none" points="
  698.888,1552.8 698.888,47.2441 
  "/>
<polyline clip-path="url(#clip642)" style="stroke:#000000; stroke-linecap:round; stroke-linejoin:round; stroke-width:3; stroke-opacity:0.3; fill:none" points="
  1000,1552.8 1000,47.2441 
  "/>
<polyline clip-path="url(#clip642)" style="stroke:#000000; stroke-linecap:round; stroke-linejoin:round; stroke-width:3; stroke-opacity:0.3; fill:none" points="
  1301.11,1552.8 1301.11,47.2441 
  "/>
<polyline clip-path="url(#clip642)" style="stroke:#000000; stroke-linecap:round; stroke-linejoin:round; stroke-width:3; stroke-opacity:0.3; fill:none" points="
  1602.22,1552.8 1602.22,47.2441 
  "/>
<polyline clip-path="url(#clip642)" style="stroke:#000000; stroke-linecap:round; stroke-linejoin:round; stroke-width:3; stroke-opacity:0.3; fill:none" points="
  1903.34,1552.8 1903.34,47.2441 
  "/>
<polyline clip-path="url(#clip640)" style="stroke:#000000; stroke-linecap:round; stroke-linejoin:round; stroke-width:4; stroke-opacity:1; fill:none" points="
  96.664,1552.8 1903.34,1552.8 
  "/>
<polyline clip-path="url(#clip640)" style="stroke:#000000; stroke-linecap:round; stroke-linejoin:round; stroke-width:4; stroke-opacity:1; fill:none" points="
  397.776,1571.7 397.776,1533.91 
  "/>
<polyline clip-path="url(#clip640)" style="stroke:#000000; stroke-linecap:round; stroke-linejoin:round; stroke-width:4; stroke-opacity:1; fill:none" points="
  698.888,1571.7 698.888,1533.91 
  "/>
<polyline clip-path="url(#clip640)" style="stroke:#000000; stroke-linecap:round; stroke-linejoin:round; stroke-width:4; stroke-opacity:1; fill:none" points="
  1000,1571.7 1000,1533.91 
  "/>
<polyline clip-path="url(#clip640)" style="stroke:#000000; stroke-linecap:round; stroke-linejoin:round; stroke-width:4; stroke-opacity:1; fill:none" points="
  1301.11,1571.7 1301.11,1533.91 
  "/>
<polyline clip-path="url(#clip640)" style="stroke:#000000; stroke-linecap:round; stroke-linejoin:round; stroke-width:4; stroke-opacity:1; fill:none" points="
  1602.22,1571.7 1602.22,1533.91 
  "/>
<polyline clip-path="url(#clip640)" style="stroke:#000000; stroke-linecap:round; stroke-linejoin:round; stroke-width:4; stroke-opacity:1; fill:none" points="
  1903.34,1571.7 1903.34,1533.91 
  "/>
<polyline clip-path="url(#clip640)" style="stroke:#000000; stroke-linecap:round; stroke-linejoin:round; stroke-width:4; stroke-opacity:1; fill:none" points="
  247.22,1562.25 247.22,1543.36 
  "/>
<polyline clip-path="url(#clip640)" style="stroke:#000000; stroke-linecap:round; stroke-linejoin:round; stroke-width:4; stroke-opacity:1; fill:none" points="
  548.332,1562.25 548.332,1543.36 
  "/>
<polyline clip-path="url(#clip640)" style="stroke:#000000; stroke-linecap:round; stroke-linejoin:round; stroke-width:4; stroke-opacity:1; fill:none" points="
  849.444,1562.25 849.444,1543.36 
  "/>
<polyline clip-path="url(#clip640)" style="stroke:#000000; stroke-linecap:round; stroke-linejoin:round; stroke-width:4; stroke-opacity:1; fill:none" points="
  1150.56,1562.25 1150.56,1543.36 
  "/>
<polyline clip-path="url(#clip640)" style="stroke:#000000; stroke-linecap:round; stroke-linejoin:round; stroke-width:4; stroke-opacity:1; fill:none" points="
  1451.67,1562.25 1451.67,1543.36 
  "/>
<polyline clip-path="url(#clip640)" style="stroke:#000000; stroke-linecap:round; stroke-linejoin:round; stroke-width:4; stroke-opacity:1; fill:none" points="
  1752.78,1562.25 1752.78,1543.36 
  "/>
<path clip-path="url(#clip640)" d="M376.136 1657.15 L393.323 1657.15 L393.323 1597.83 L374.625 1601.58 L374.625 1591.99 L393.219 1588.24 L403.74 1588.24 L403.74 1657.15 L420.927 1657.15 L420.927 1666 L376.136 1666 L376.136 1657.15 Z" fill="#000000" fill-rule="evenodd" fill-opacity="1" /><path clip-path="url(#clip640)" d="M686.857 1657.15 L723.575 1657.15 L723.575 1666 L674.201 1666 L674.201 1657.15 Q680.19 1650.95 690.503 1640.54 Q700.867 1630.07 703.523 1627.05 Q708.575 1621.37 710.555 1617.46 Q712.586 1613.5 712.586 1609.7 Q712.586 1603.5 708.211 1599.6 Q703.888 1595.69 696.909 1595.69 Q691.961 1595.69 686.44 1597.41 Q680.971 1599.13 674.721 1602.62 L674.721 1591.99 Q681.076 1589.44 686.596 1588.14 Q692.117 1586.84 696.701 1586.84 Q708.784 1586.84 715.971 1592.88 Q723.159 1598.92 723.159 1609.03 Q723.159 1613.82 721.336 1618.14 Q719.565 1622.41 714.825 1628.24 Q713.523 1629.75 706.544 1636.99 Q699.565 1644.18 686.857 1657.15 Z" fill="#000000" fill-rule="evenodd" fill-opacity="1" /><path clip-path="url(#clip640)" d="M1009.56 1624.08 Q1017.11 1625.69 1021.33 1630.8 Q1025.6 1635.9 1025.6 1643.4 Q1025.6 1654.91 1017.68 1661.21 Q1009.77 1667.51 995.182 1667.51 Q990.287 1667.51 985.078 1666.52 Q979.922 1665.59 974.401 1663.66 L974.401 1653.5 Q978.776 1656.06 983.984 1657.36 Q989.193 1658.66 994.87 1658.66 Q1004.77 1658.66 1009.92 1654.75 Q1015.13 1650.85 1015.13 1643.4 Q1015.13 1636.53 1010.29 1632.67 Q1005.49 1628.76 996.901 1628.76 L987.839 1628.76 L987.839 1620.12 L997.318 1620.12 Q1005.08 1620.12 1009.19 1617.05 Q1013.31 1613.92 1013.31 1608.09 Q1013.31 1602.1 1009.04 1598.92 Q1004.82 1595.69 996.901 1595.69 Q992.578 1595.69 987.63 1596.63 Q982.682 1597.57 976.745 1599.55 L976.745 1590.17 Q982.734 1588.5 987.943 1587.67 Q993.203 1586.84 997.839 1586.84 Q1009.82 1586.84 1016.8 1592.31 Q1023.78 1597.72 1023.78 1606.99 Q1023.78 1613.45 1020.08 1617.93 Q1016.38 1622.36 1009.56 1624.08 Z" fill="#000000" fill-rule="evenodd" fill-opacity="1" /><path clip-path="url(#clip640)" d="M1307.88 1597.41 L1281.32 1638.92 L1307.88 1638.92 L1307.88 1597.41 M1305.12 1588.24 L1318.35 1588.24 L1318.35 1638.92 L1329.45 1638.92 L1329.45 1647.67 L1318.35 1647.67 L1318.35 1666 L1307.88 1666 L1307.88 1647.67 L1272.78 1647.67 L1272.78 1637.51 L1305.12 1588.24 Z" fill="#000000" fill-rule="evenodd" fill-opacity="1" /><path clip-path="url(#clip640)" d="M1580.35 1588.24 L1621.65 1588.24 L1621.65 1597.1 L1589.98 1597.1 L1589.98 1616.16 Q1592.28 1615.38 1594.57 1615.01 Q1596.86 1614.6 1599.15 1614.6 Q1612.17 1614.6 1619.78 1621.73 Q1627.38 1628.87 1627.38 1641.06 Q1627.38 1653.61 1619.57 1660.59 Q1611.76 1667.51 1597.54 1667.51 Q1592.64 1667.51 1587.54 1666.68 Q1582.48 1665.85 1577.07 1664.18 L1577.07 1653.61 Q1581.76 1656.16 1586.76 1657.41 Q1591.76 1658.66 1597.33 1658.66 Q1606.34 1658.66 1611.6 1653.92 Q1616.86 1649.18 1616.86 1641.06 Q1616.86 1632.93 1611.6 1628.19 Q1606.34 1623.45 1597.33 1623.45 Q1593.11 1623.45 1588.89 1624.39 Q1584.72 1625.33 1580.35 1627.31 L1580.35 1588.24 Z" fill="#000000" fill-rule="evenodd" fill-opacity="1" /><path clip-path="url(#clip640)" d="M1904.25 1622.93 Q1897.16 1622.93 1893 1627.78 Q1888.88 1632.62 1888.88 1641.06 Q1888.88 1649.44 1893 1654.34 Q1897.16 1659.18 1904.25 1659.18 Q1911.33 1659.18 1915.45 1654.34 Q1919.61 1649.44 1919.61 1641.06 Q1919.61 1632.62 1915.45 1627.78 Q1911.33 1622.93 1904.25 1622.93 M1925.13 1589.96 L1925.13 1599.55 Q1921.17 1597.67 1917.11 1596.68 Q1913.1 1595.69 1909.14 1595.69 Q1898.73 1595.69 1893.21 1602.72 Q1887.74 1609.75 1886.96 1623.97 Q1890.03 1619.44 1894.66 1617.05 Q1899.3 1614.6 1904.87 1614.6 Q1916.59 1614.6 1923.36 1621.73 Q1930.18 1628.82 1930.18 1641.06 Q1930.18 1653.04 1923.1 1660.27 Q1916.02 1667.51 1904.25 1667.51 Q1890.76 1667.51 1883.62 1657.2 Q1876.49 1646.84 1876.49 1627.2 Q1876.49 1608.76 1885.24 1597.83 Q1893.99 1586.84 1908.73 1586.84 Q1912.68 1586.84 1916.7 1587.62 Q1920.76 1588.4 1925.13 1589.96 Z" fill="#000000" fill-rule="evenodd" fill-opacity="1" /><path clip-path="url(#clip640)" d="M1004.35 1718.3 Q1004.35 1722.23 1001.89 1724.48 Q999.434 1726.66 996.623 1726.66 Q993.953 1726.66 992.547 1725.12 Q991.142 1723.57 991.142 1721.6 Q991.142 1718.93 993.11 1716.61 Q995.077 1714.29 998.028 1713.8 Q995.147 1711.98 990.861 1711.98 Q988.05 1711.98 985.591 1713.45 Q983.202 1714.93 981.726 1716.82 Q980.321 1718.72 979.056 1721.46 Q977.862 1724.13 977.37 1725.75 Q976.948 1727.29 976.597 1728.98 L971.678 1748.66 Q969.289 1758 969.289 1761.3 Q969.289 1765.38 971.256 1768.12 Q973.224 1770.79 977.159 1770.79 Q978.705 1770.79 980.462 1770.37 Q982.218 1769.88 984.467 1768.61 Q986.786 1767.28 988.823 1765.31 Q990.931 1763.27 992.969 1759.83 Q995.007 1756.38 996.342 1751.96 Q996.764 1750.41 998.169 1750.41 Q999.926 1750.41 999.926 1751.82 Q999.926 1753.01 998.942 1755.54 Q998.028 1758 995.991 1761.23 Q994.023 1764.4 991.423 1767.28 Q988.823 1770.09 984.959 1772.05 Q981.094 1774.02 976.878 1774.02 Q970.835 1774.02 966.83 1770.79 Q962.824 1767.56 961.349 1763.06 Q960.997 1763.69 960.506 1764.54 Q960.014 1765.38 958.538 1767.28 Q957.133 1769.1 955.517 1770.51 Q953.9 1771.84 951.371 1772.9 Q948.911 1774.02 946.241 1774.02 Q942.868 1774.02 939.847 1773.04 Q936.896 1772.05 934.788 1769.81 Q932.68 1767.56 932.68 1764.47 Q932.68 1761.02 934.999 1758.63 Q937.388 1756.17 940.62 1756.17 Q942.658 1756.17 944.274 1757.37 Q945.96 1758.56 945.96 1761.16 Q945.96 1764.04 943.993 1766.22 Q942.025 1768.4 939.215 1768.96 Q942.096 1770.79 946.382 1770.79 Q951.019 1770.79 954.673 1766.71 Q958.327 1762.64 960.084 1755.82 Q964.441 1739.45 966.127 1732.14 Q967.813 1724.76 967.813 1721.6 Q967.813 1718.65 967.04 1716.61 Q966.267 1714.58 964.932 1713.66 Q963.668 1712.68 962.473 1712.33 Q961.349 1711.98 960.084 1711.98 Q957.976 1711.98 955.587 1712.82 Q953.268 1713.66 950.457 1715.63 Q947.717 1717.53 945.117 1721.46 Q942.517 1725.4 940.76 1730.81 Q940.409 1732.42 938.863 1732.42 Q937.177 1732.35 937.177 1730.95 Q937.177 1729.75 938.09 1727.29 Q939.074 1724.76 941.042 1721.6 Q943.079 1718.44 945.679 1715.63 Q948.349 1712.75 952.214 1710.78 Q956.149 1708.81 960.365 1708.81 Q962.262 1708.81 964.089 1709.24 Q965.986 1709.59 968.235 1710.64 Q970.554 1711.69 972.592 1714.01 Q974.629 1716.33 975.894 1719.71 Q976.737 1718.09 977.862 1716.54 Q979.056 1715 980.883 1713.1 Q982.78 1711.13 985.38 1710.01 Q988.05 1708.81 991.002 1708.81 Q993.883 1708.81 996.693 1709.59 Q999.504 1710.29 1001.89 1712.61 Q1004.35 1714.86 1004.35 1718.3 Z" fill="#000000" fill-rule="evenodd" fill-opacity="1" /><path clip-path="url(#clip640)" d="M1019.03 1756.38 L1019.03 1753.23 Q1031.13 1753.23 1037.38 1746.79 Q1039.1 1746.79 1039.39 1747.18 Q1039.69 1747.58 1039.69 1749.4 L1039.69 1805.91 Q1039.69 1808.91 1041.16 1809.85 Q1042.64 1810.78 1049.08 1810.78 L1052.28 1810.78 L1052.28 1813.88 Q1048.74 1813.58 1035.95 1813.58 Q1023.16 1813.58 1019.67 1813.88 L1019.67 1810.78 L1022.87 1810.78 Q1029.21 1810.78 1030.74 1809.9 Q1032.26 1808.96 1032.26 1805.91 L1032.26 1753.72 Q1027 1756.38 1019.03 1756.38 Z" fill="#000000" fill-rule="evenodd" fill-opacity="1" /><polyline clip-path="url(#clip642)" style="stroke:#000000; stroke-linecap:round; stroke-linejoin:round; stroke-width:3; stroke-opacity:0.3; fill:none" points="
  96.664,1251.69 1903.34,1251.69 
  "/>
<polyline clip-path="url(#clip642)" style="stroke:#000000; stroke-linecap:round; stroke-linejoin:round; stroke-width:3; stroke-opacity:0.3; fill:none" points="
  96.664,950.58 1903.34,950.58 
  "/>
<polyline clip-path="url(#clip642)" style="stroke:#000000; stroke-linecap:round; stroke-linejoin:round; stroke-width:3; stroke-opacity:0.3; fill:none" points="
  96.664,649.468 1903.34,649.468 
  "/>
<polyline clip-path="url(#clip642)" style="stroke:#000000; stroke-linecap:round; stroke-linejoin:round; stroke-width:3; stroke-opacity:0.3; fill:none" points="
  96.664,348.356 1903.34,348.356 
  "/>
<polyline clip-path="url(#clip642)" style="stroke:#000000; stroke-linecap:round; stroke-linejoin:round; stroke-width:3; stroke-opacity:0.3; fill:none" points="
  96.664,47.2441 1903.34,47.2441 
  "/>
<polyline clip-path="url(#clip640)" style="stroke:#000000; stroke-linecap:round; stroke-linejoin:round; stroke-width:4; stroke-opacity:1; fill:none" points="
  96.664,1552.8 96.664,47.2441 
  "/>
<polyline clip-path="url(#clip640)" style="stroke:#000000; stroke-linecap:round; stroke-linejoin:round; stroke-width:4; stroke-opacity:1; fill:none" points="
  79.5931,1251.69 113.735,1251.69 
  "/>
<polyline clip-path="url(#clip640)" style="stroke:#000000; stroke-linecap:round; stroke-linejoin:round; stroke-width:4; stroke-opacity:1; fill:none" points="
  79.5931,950.58 113.735,950.58 
  "/>
<polyline clip-path="url(#clip640)" style="stroke:#000000; stroke-linecap:round; stroke-linejoin:round; stroke-width:4; stroke-opacity:1; fill:none" points="
  79.5931,649.468 113.735,649.468 
  "/>
<polyline clip-path="url(#clip640)" style="stroke:#000000; stroke-linecap:round; stroke-linejoin:round; stroke-width:4; stroke-opacity:1; fill:none" points="
  79.5931,348.356 113.735,348.356 
  "/>
<polyline clip-path="url(#clip640)" style="stroke:#000000; stroke-linecap:round; stroke-linejoin:round; stroke-width:4; stroke-opacity:1; fill:none" points="
  79.5931,47.2441 113.735,47.2441 
  "/>
<polyline clip-path="url(#clip640)" style="stroke:#000000; stroke-linecap:round; stroke-linejoin:round; stroke-width:4; stroke-opacity:1; fill:none" points="
  88.1286,1402.25 105.199,1402.25 
  "/>
<polyline clip-path="url(#clip640)" style="stroke:#000000; stroke-linecap:round; stroke-linejoin:round; stroke-width:4; stroke-opacity:1; fill:none" points="
  88.1286,1101.14 105.199,1101.14 
  "/>
<polyline clip-path="url(#clip640)" style="stroke:#000000; stroke-linecap:round; stroke-linejoin:round; stroke-width:4; stroke-opacity:1; fill:none" points="
  88.1286,800.024 105.199,800.024 
  "/>
<polyline clip-path="url(#clip640)" style="stroke:#000000; stroke-linecap:round; stroke-linejoin:round; stroke-width:4; stroke-opacity:1; fill:none" points="
  88.1286,498.912 105.199,498.912 
  "/>
<polyline clip-path="url(#clip640)" style="stroke:#000000; stroke-linecap:round; stroke-linejoin:round; stroke-width:4; stroke-opacity:1; fill:none" points="
  88.1286,197.8 105.199,197.8 
  "/>
<path clip-path="url(#clip640)" d="M21.8726 1281.72 L39.06 1281.72 L39.06 1222.4 L20.3622 1226.15 L20.3622 1216.56 L38.9559 1212.81 L49.4766 1212.81 L49.4766 1281.72 L66.664 1281.72 L66.664 1290.57 L21.8726 1290.57 L21.8726 1281.72 Z" fill="#000000" fill-rule="evenodd" fill-opacity="1" /><path clip-path="url(#clip640)" d="M29.9455 980.606 L66.664 980.606 L66.664 989.46 L17.2893 989.46 L17.2893 980.606 Q23.2789 974.408 33.5913 963.991 Q43.9558 953.523 46.6121 950.502 Q51.6641 944.825 53.6433 940.919 Q55.6745 936.96 55.6745 933.158 Q55.6745 926.96 51.2995 923.054 Q46.9766 919.148 39.9975 919.148 Q35.0496 919.148 29.5288 920.867 Q24.0601 922.585 17.8101 926.075 L17.8101 915.45 Q24.1643 912.898 29.6851 911.596 Q35.2059 910.294 39.7892 910.294 Q51.8725 910.294 59.0599 916.335 Q66.2474 922.377 66.2474 932.481 Q66.2474 937.273 64.4245 941.596 Q62.6536 945.867 57.9141 951.7 Q56.612 953.21 49.6329 960.45 Q42.6537 967.637 29.9455 980.606 Z" fill="#000000" fill-rule="evenodd" fill-opacity="1" /><path clip-path="url(#clip640)" d="M50.6225 646.421 Q58.1745 648.036 62.3932 653.14 Q66.664 658.244 66.664 665.744 Q66.664 677.254 58.7474 683.556 Q50.8308 689.858 36.2475 689.858 Q31.3517 689.858 26.1434 688.869 Q20.9872 687.931 15.4664 686.004 L15.4664 675.848 Q19.8414 678.4 25.0497 679.702 Q30.258 681.004 35.935 681.004 Q45.8308 681.004 50.987 677.098 Q56.1953 673.192 56.1953 665.744 Q56.1953 658.869 51.3516 655.015 Q46.56 651.109 37.9663 651.109 L28.9038 651.109 L28.9038 642.463 L38.3829 642.463 Q46.1433 642.463 50.2579 639.39 Q54.3724 636.265 54.3724 630.432 Q54.3724 624.442 50.1016 621.265 Q45.8829 618.036 37.9663 618.036 Q33.6434 618.036 28.6955 618.973 Q23.7476 619.911 17.8101 621.89 L17.8101 612.515 Q23.7997 610.848 29.008 610.015 Q34.2684 609.182 38.9038 609.182 Q50.8829 609.182 57.862 614.651 Q64.8411 620.067 64.8411 629.338 Q64.8411 635.796 61.1432 640.275 Q57.4453 644.702 50.6225 646.421 Z" fill="#000000" fill-rule="evenodd" fill-opacity="1" /><path clip-path="url(#clip640)" d="M45.1017 318.643 L18.5393 360.153 L45.1017 360.153 L45.1017 318.643 M42.3413 309.476 L55.5703 309.476 L55.5703 360.153 L66.664 360.153 L66.664 368.903 L55.5703 368.903 L55.5703 387.236 L45.1017 387.236 L45.1017 368.903 L9.99767 368.903 L9.99767 358.747 L42.3413 309.476 Z" fill="#000000" fill-rule="evenodd" fill-opacity="1" /><path clip-path="url(#clip640)" d="M19.633 8.36409 L60.9349 8.36409 L60.9349 17.2182 L29.2684 17.2182 L29.2684 36.2806 Q31.5601 35.4994 33.8517 35.1348 Q36.1434 34.7181 38.435 34.7181 Q51.4558 34.7181 59.0599 41.8535 Q66.664 48.9889 66.664 61.1763 Q66.664 73.7283 58.8516 80.7075 Q51.0391 87.6345 36.8204 87.6345 Q31.9246 87.6345 26.8205 86.8012 Q21.7684 85.9678 16.3518 84.3012 L16.3518 73.7283 Q21.0393 76.2804 26.0393 77.5304 Q31.0392 78.7804 36.6121 78.7804 Q45.6225 78.7804 50.8829 74.0408 Q56.1433 69.3013 56.1433 61.1763 Q56.1433 53.0514 50.8829 48.3118 Q45.6225 43.5722 36.6121 43.5722 Q32.3934 43.5722 28.1747 44.5097 Q24.008 45.4472 19.633 47.4264 L19.633 8.36409 Z" fill="#000000" fill-rule="evenodd" fill-opacity="1" /><path clip-path="url(#clip640)" d="M-125.562 799.131 Q-121.627 799.131 -119.379 801.59 Q-117.201 804.049 -117.201 806.86 Q-117.201 809.53 -118.746 810.936 Q-120.292 812.341 -122.26 812.341 Q-124.93 812.341 -127.249 810.373 Q-129.568 808.406 -130.06 805.455 Q-131.886 808.336 -131.886 812.622 Q-131.886 815.433 -130.411 817.892 Q-128.935 820.281 -127.038 821.757 Q-125.141 823.162 -122.4 824.427 Q-119.73 825.621 -118.114 826.113 Q-116.568 826.535 -114.882 826.886 L-95.2069 831.805 Q-85.8614 834.194 -82.5588 834.194 Q-78.4833 834.194 -75.7429 832.227 Q-73.0727 830.259 -73.0727 826.324 Q-73.0727 824.778 -73.4943 823.022 Q-73.9862 821.265 -75.251 819.016 Q-76.5861 816.697 -78.5535 814.66 Q-80.5913 812.552 -84.0344 810.514 Q-87.4775 808.476 -91.9043 807.141 Q-93.4502 806.72 -93.4502 805.314 Q-93.4502 803.557 -92.0449 803.557 Q-90.8503 803.557 -88.3207 804.541 Q-85.8614 805.455 -82.6291 807.492 Q-79.467 809.46 -76.5861 812.06 Q-73.7754 814.66 -71.8079 818.524 Q-69.8404 822.389 -69.8404 826.605 Q-69.8404 832.648 -73.0727 836.653 Q-76.305 840.659 -80.8021 842.134 Q-80.1697 842.486 -79.3265 842.977 Q-78.4833 843.469 -76.5861 844.945 Q-74.7591 846.35 -73.3538 847.966 Q-72.0187 849.583 -70.9647 852.112 Q-69.8404 854.572 -69.8404 857.242 Q-69.8404 860.615 -70.8241 863.636 Q-71.8079 866.587 -74.0564 868.695 Q-76.305 870.803 -79.3968 870.803 Q-82.8399 870.803 -85.2289 868.485 Q-87.6883 866.095 -87.6883 862.863 Q-87.6883 860.825 -86.4938 859.209 Q-85.2992 857.523 -82.6993 857.523 Q-79.8184 857.523 -77.6401 859.49 Q-75.4618 861.458 -74.8996 864.268 Q-73.0727 861.388 -73.0727 857.101 Q-73.0727 852.464 -77.1482 848.81 Q-81.2237 845.156 -88.0396 843.399 Q-104.412 839.042 -111.72 837.356 Q-119.098 835.67 -122.26 835.67 Q-125.211 835.67 -127.249 836.443 Q-129.287 837.216 -130.2 838.551 Q-131.184 839.815 -131.535 841.01 Q-131.886 842.134 -131.886 843.399 Q-131.886 845.507 -131.043 847.896 Q-130.2 850.215 -128.233 853.026 Q-126.335 855.766 -122.4 858.366 Q-118.465 860.966 -113.055 862.723 Q-111.439 863.074 -111.439 864.62 Q-111.509 866.306 -112.914 866.306 Q-114.109 866.306 -116.568 865.393 Q-119.098 864.409 -122.26 862.442 Q-125.422 860.404 -128.233 857.804 Q-131.114 855.134 -133.081 851.269 Q-135.048 847.334 -135.048 843.118 Q-135.048 841.221 -134.627 839.394 Q-134.276 837.497 -133.222 835.248 Q-132.168 832.929 -129.849 830.891 Q-127.53 828.854 -124.157 827.589 Q-125.773 826.746 -127.319 825.621 Q-128.865 824.427 -130.762 822.6 Q-132.73 820.703 -133.854 818.103 Q-135.048 815.433 -135.048 812.481 Q-135.048 809.6 -134.276 806.79 Q-133.573 803.979 -131.254 801.59 Q-129.005 799.131 -125.562 799.131 Z" fill="#000000" fill-rule="evenodd" fill-opacity="1" /><path clip-path="url(#clip640)" d="M-29.9823 784.454 Q-31.8023 784.454 -32.3433 784.306 Q-32.8844 784.109 -33.7206 783.322 L-55.2645 763.992 Q-67.1678 753.417 -77.5463 753.417 Q-84.2849 753.417 -89.1053 756.958 Q-93.9256 760.45 -93.9256 766.894 Q-93.9256 771.321 -91.2203 775.059 Q-88.515 778.797 -83.6947 780.519 Q-83.7931 780.224 -83.7931 779.191 Q-83.7931 776.682 -82.2191 775.305 Q-80.6451 773.879 -78.53 773.879 Q-75.8247 773.879 -74.4967 775.649 Q-73.2178 777.371 -73.2178 779.092 Q-73.2178 779.781 -73.3654 780.716 Q-73.5129 781.601 -74.8902 783.027 Q-76.3166 784.454 -78.8252 784.454 Q-85.8589 784.454 -91.4662 779.142 Q-97.0736 773.78 -97.0736 765.615 Q-97.0736 756.368 -91.5646 750.318 Q-86.1048 744.219 -77.5463 744.219 Q-74.5459 744.219 -71.7914 745.153 Q-69.0861 746.039 -66.9711 747.268 Q-64.856 748.449 -61.4621 751.695 Q-58.0682 754.941 -55.658 757.548 Q-53.2478 760.155 -48.1324 766.009 L-37.7539 776.682 L-37.7539 758.532 Q-37.7539 749.678 -38.5409 748.99 Q-39.9673 748.006 -47.493 746.776 L-47.493 744.219 L-29.9823 747.072 L-29.9823 784.454 Z" fill="#000000" fill-rule="evenodd" fill-opacity="1" /><path clip-path="url(#clip642)" d="
M96.664 348.356 L126.775 348.356 L156.886 348.356 L186.998 348.356 L217.109 348.356 L247.22 348.356 L277.331 348.356 L307.442 348.356 L337.554 348.356 L367.665 348.356 
  L397.776 348.356 L427.887 348.356 L457.998 348.356 L488.11 348.356 L518.221 348.356 L548.332 348.356 L548.332 348.356 L518.221 338.319 L488.11 328.282 L457.998 318.245 
  L427.887 308.208 L397.776 298.171 L367.665 288.134 L337.554 278.097 L307.442 268.06 L277.331 258.022 L247.22 247.985 L217.109 237.948 L186.998 227.911 L156.886 217.874 
  L126.775 207.837 L96.664 197.8  Z
  " fill="#add8e6" fill-rule="evenodd" fill-opacity="1"/>
<polyline clip-path="url(#clip642)" style="stroke:#add8e6; stroke-linecap:round; stroke-linejoin:round; stroke-width:4; stroke-opacity:1; fill:none" points="
  96.664,348.356 126.775,348.356 156.886,348.356 186.998,348.356 217.109,348.356 247.22,348.356 277.331,348.356 307.442,348.356 337.554,348.356 367.665,348.356 
  397.776,348.356 427.887,348.356 457.998,348.356 488.11,348.356 518.221,348.356 548.332,348.356 
  "/>
<polyline clip-path="url(#clip642)" style="stroke:#ff0000; stroke-linecap:round; stroke-linejoin:round; stroke-width:12; stroke-opacity:1; fill:none" points="
  -1710.01,950.58 3710.01,950.58 
  "/>
<polyline clip-path="url(#clip642)" style="stroke:#800080; stroke-linecap:round; stroke-linejoin:round; stroke-width:12; stroke-opacity:1; fill:none" points="
  -505.56,-2.94124 -475.449,7.09583 -445.338,17.1329 -415.226,27.17 -385.115,37.207 -355.004,47.2441 -324.893,57.2812 -294.782,67.3182 -264.67,77.3553 -234.559,87.3924 
  -204.448,97.4294 -174.337,107.466 -144.226,117.504 -114.114,127.541 -84.0032,137.578 -53.892,147.615 -23.7808,157.652 6.33044,167.689 36.4416,177.726 66.5528,187.763 
  96.664,197.8 126.775,207.837 156.886,217.874 186.998,227.911 217.109,237.948 247.22,247.985 277.331,258.022 307.442,268.06 337.554,278.097 367.665,288.134 
  397.776,298.171 427.887,308.208 457.998,318.245 488.11,328.282 518.221,338.319 548.332,348.356 578.443,358.393 608.554,368.43 638.666,378.467 668.777,388.504 
  698.888,398.541 728.999,408.578 759.11,418.616 789.222,428.653 819.333,438.69 849.444,448.727 879.555,458.764 909.666,468.801 939.778,478.838 969.889,488.875 
  1000,498.912 1030.11,508.949 1060.22,518.986 1090.33,529.023 1120.44,539.06 1150.56,549.097 1180.67,559.134 1210.78,569.172 1240.89,579.209 1271,589.246 
  1301.11,599.283 1331.22,609.32 1361.33,619.357 1391.45,629.394 1421.56,639.431 1451.67,649.468 1481.78,659.505 1511.89,669.542 1542,679.579 1572.11,689.616 
  1602.22,699.653 1632.34,709.69 1662.45,719.728 1692.56,729.765 1722.67,739.802 1752.78,749.839 1782.89,759.876 1813,769.913 1843.11,779.95 1873.22,789.987 
  1903.34,800.024 
  "/>
<polyline clip-path="url(#clip642)" style="stroke:#000000; stroke-linecap:round; stroke-linejoin:round; stroke-width:12; stroke-opacity:1; fill:none" points="
  96.664,3058.36 96.664,-1458.32 
  "/>
<polyline clip-path="url(#clip642)" style="stroke:#0000ff; stroke-linecap:round; stroke-linejoin:round; stroke-width:12; stroke-opacity:1; fill:none" points="
  -505.56,-5975 -475.449,-5884.66 -445.338,-5794.33 -415.226,-5703.99 -385.115,-5613.66 -355.004,-5523.33 -324.893,-5432.99 -294.782,-5342.66 -264.67,-5252.33 -234.559,-5161.99 
  -204.448,-5071.66 -174.337,-4981.33 -144.226,-4890.99 -114.114,-4800.66 -84.0032,-4710.33 -53.892,-4619.99 -23.7808,-4529.66 6.33044,-4439.32 36.4416,-4348.99 66.5528,-4258.66 
  96.664,-4168.32 126.775,-4077.99 156.886,-3987.66 186.998,-3897.32 217.109,-3806.99 247.22,-3716.66 277.331,-3626.32 307.442,-3535.99 337.554,-3445.65 367.665,-3355.32 
  397.776,-3264.99 427.887,-3174.65 457.998,-3084.32 488.11,-2993.99 518.221,-2903.65 548.332,-2813.32 578.443,-2722.99 608.554,-2632.65 638.666,-2542.32 668.777,-2451.99 
  698.888,-2361.65 728.999,-2271.32 759.11,-2180.98 789.222,-2090.65 819.333,-2000.32 849.444,-1909.98 879.555,-1819.65 909.666,-1729.32 939.778,-1638.98 969.889,-1548.65 
  1000,-1458.32 1030.11,-1367.98 1060.22,-1277.65 1090.33,-1187.32 1120.44,-1096.98 1150.56,-1006.65 1180.67,-916.314 1210.78,-825.981 1240.89,-735.647 1271,-645.313 
  1301.11,-554.98 1331.22,-464.646 1361.33,-374.313 1391.45,-283.979 1421.56,-193.645 1451.67,-103.312 1481.78,-12.9783 1511.89,77.3553 1542,167.689 1572.11,258.022 
  1602.22,348.356 1632.34,438.69 1662.45,529.023 1692.56,619.357 1722.67,709.69 1752.78,800.024 1782.89,890.358 1813,980.691 1843.11,1071.02 1873.22,1161.36 
  1903.34,1251.69 
  "/>
<polyline clip-path="url(#clip642)" style="stroke:#ffa500; stroke-linecap:round; stroke-linejoin:round; stroke-width:8; stroke-opacity:1; fill:none" stroke-dasharray="32, 20" points="
  1301.11,3058.36 1301.11,-1458.32 
  "/>
<polyline clip-path="url(#clip642)" style="stroke:#ffa500; stroke-linecap:round; stroke-linejoin:round; stroke-width:8; stroke-opacity:1; fill:none" stroke-dasharray="32, 20" points="
  -1710.01,649.468 3710.01,649.468 
  "/>
<polyline clip-path="url(#clip642)" style="stroke:#ffa500; stroke-linecap:round; stroke-linejoin:round; stroke-width:8; stroke-opacity:1; fill:none" stroke-dasharray="32, 20" points="
  -1710.01,348.356 3710.01,348.356 
  "/>
<polyline clip-path="url(#clip642)" style="stroke:#000000; stroke-linecap:round; stroke-linejoin:round; stroke-width:8; stroke-opacity:1; fill:none" points="
  1301.11,197.8 1301.11,468.801 
  "/>
<polyline clip-path="url(#clip642)" style="stroke:#000000; stroke-linecap:round; stroke-linejoin:round; stroke-width:8; stroke-opacity:1; fill:none" points="
  1316.11,438.801 1301.11,468.801 1286.11,438.801 
  "/>
<polyline clip-path="url(#clip642)" style="stroke:#000000; stroke-linecap:round; stroke-linejoin:round; stroke-width:8; stroke-opacity:1; fill:none" points="
  1301.11,468.801 1301.11,197.8 
  "/>
<circle clip-path="url(#clip642)" cx="1301.11" cy="649.468" r="10.8" fill="#a52a2a" fill-rule="evenodd" fill-opacity="1" stroke="#000000" stroke-opacity="1" stroke-width="3.6"/>
<circle clip-path="url(#clip642)" cx="1000" cy="649.468" r="10.8" fill="#a52a2a" fill-rule="evenodd" fill-opacity="1" stroke="#000000" stroke-opacity="1" stroke-width="3.6"/>
<circle clip-path="url(#clip642)" cx="698.888" cy="649.468" r="10.8" fill="#a52a2a" fill-rule="evenodd" fill-opacity="1" stroke="#000000" stroke-opacity="1" stroke-width="3.6"/>
<circle clip-path="url(#clip642)" cx="397.776" cy="649.468" r="10.8" fill="#a52a2a" fill-rule="evenodd" fill-opacity="1" stroke="#000000" stroke-opacity="1" stroke-width="3.6"/>
<circle clip-path="url(#clip642)" cx="397.776" cy="348.356" r="10.8" fill="#a52a2a" fill-rule="evenodd" fill-opacity="1" stroke="#000000" stroke-opacity="1" stroke-width="3.6"/>
<circle clip-path="url(#clip642)" cx="96.664" cy="649.468" r="10.8" fill="#a52a2a" fill-rule="evenodd" fill-opacity="1" stroke="#000000" stroke-opacity="1" stroke-width="3.6"/>
<circle clip-path="url(#clip642)" cx="96.664" cy="348.356" r="10.8" fill="#a52a2a" fill-rule="evenodd" fill-opacity="1" stroke="#000000" stroke-opacity="1" stroke-width="3.6"/>
<circle clip-path="url(#clip642)" cx="1301.11" cy="649.468" r="18" fill="#ff0000" fill-rule="evenodd" fill-opacity="1" stroke="#000000" stroke-opacity="1" stroke-width="3.6"/>
<path clip-path="url(#clip640)" d="M702.978 123.868 Q704.859 124.504 706.624 126.587 Q708.418 128.671 710.212 132.317 L716.144 144.122 L709.865 144.122 L704.338 133.04 Q702.197 128.7 700.172 127.282 Q698.175 125.864 694.703 125.864 L688.337 125.864 L688.337 144.122 L682.492 144.122 L682.492 100.922 L695.687 100.922 Q703.094 100.922 706.74 104.018 Q710.386 107.114 710.386 113.364 Q710.386 117.444 708.476 120.135 Q706.595 122.826 702.978 123.868 M688.337 105.725 L688.337 121.061 L695.687 121.061 Q699.911 121.061 702.052 119.122 Q704.223 117.155 704.223 113.364 Q704.223 109.574 702.052 107.664 Q699.911 105.725 695.687 105.725 L688.337 105.725 Z" fill="#000000" fill-rule="evenodd" fill-opacity="1" /><path clip-path="url(#clip640)" d="M748.493 126.587 L748.493 129.192 L724.014 129.192 Q724.361 134.689 727.313 137.583 Q730.293 140.447 735.588 140.447 Q738.655 140.447 741.52 139.695 Q744.413 138.943 747.249 137.438 L747.249 142.473 Q744.384 143.688 741.375 144.325 Q738.366 144.961 735.27 144.961 Q727.515 144.961 722.973 140.447 Q718.459 135.933 718.459 128.237 Q718.459 120.28 722.741 115.621 Q727.052 110.934 734.344 110.934 Q740.883 110.934 744.674 115.158 Q748.493 119.354 748.493 126.587 M743.169 125.025 Q743.111 120.656 740.71 118.052 Q738.337 115.447 734.402 115.447 Q729.946 115.447 727.255 117.965 Q724.593 120.482 724.188 125.054 L743.169 125.025 Z" fill="#000000" fill-rule="evenodd" fill-opacity="1" /><path clip-path="url(#clip640)" d="M757.232 99.0992 L762.556 99.0992 L762.556 144.122 L757.232 144.122 L757.232 99.0992 Z" fill="#000000" fill-rule="evenodd" fill-opacity="1" /><path clip-path="url(#clip640)" d="M788.424 127.832 Q781.971 127.832 779.483 129.307 Q776.994 130.783 776.994 134.342 Q776.994 137.178 778.846 138.856 Q780.727 140.505 783.939 140.505 Q788.366 140.505 791.028 137.38 Q793.719 134.226 793.719 129.018 L793.719 127.832 L788.424 127.832 M799.043 125.633 L799.043 144.122 L793.719 144.122 L793.719 139.203 Q791.896 142.155 789.176 143.572 Q786.456 144.961 782.521 144.961 Q777.544 144.961 774.593 142.183 Q771.67 139.377 771.67 134.689 Q771.67 129.221 775.316 126.443 Q778.991 123.665 786.253 123.665 L793.719 123.665 L793.719 123.144 Q793.719 119.469 791.288 117.473 Q788.887 115.447 784.517 115.447 Q781.74 115.447 779.106 116.113 Q776.473 116.778 774.043 118.109 L774.043 113.191 Q776.965 112.062 779.714 111.512 Q782.463 110.934 785.067 110.934 Q792.098 110.934 795.57 114.579 Q799.043 118.225 799.043 125.633 Z" fill="#000000" fill-rule="evenodd" fill-opacity="1" /><path clip-path="url(#clip640)" d="M836.948 111.715 L825.229 127.484 L837.555 144.122 L831.276 144.122 L821.844 131.391 L812.411 144.122 L806.132 144.122 L818.719 127.166 L807.202 111.715 L813.481 111.715 L822.075 123.26 L830.669 111.715 L836.948 111.715 Z" fill="#000000" fill-rule="evenodd" fill-opacity="1" /><path clip-path="url(#clip640)" d="M870.975 126.587 L870.975 129.192 L846.496 129.192 Q846.843 134.689 849.795 137.583 Q852.775 140.447 858.07 140.447 Q861.137 140.447 864.002 139.695 Q866.895 138.943 869.731 137.438 L869.731 142.473 Q866.866 143.688 863.857 144.325 Q860.848 144.961 857.752 144.961 Q849.997 144.961 845.454 140.447 Q840.941 135.933 840.941 128.237 Q840.941 120.28 845.223 115.621 Q849.534 110.934 856.826 110.934 Q863.365 110.934 867.156 115.158 Q870.975 119.354 870.975 126.587 M865.651 125.025 Q865.593 120.656 863.192 118.052 Q860.819 115.447 856.884 115.447 Q852.428 115.447 849.737 117.965 Q847.075 120.482 846.67 125.054 L865.651 125.025 Z" fill="#000000" fill-rule="evenodd" fill-opacity="1" /><path clip-path="url(#clip640)" d="M901.039 116.634 L901.039 99.0992 L906.363 99.0992 L906.363 144.122 L901.039 144.122 L901.039 139.261 Q899.36 142.155 896.785 143.572 Q894.239 144.961 890.651 144.961 Q884.777 144.961 881.074 140.274 Q877.399 135.586 877.399 127.947 Q877.399 120.309 881.074 115.621 Q884.777 110.934 890.651 110.934 Q894.239 110.934 896.785 112.351 Q899.36 113.74 901.039 116.634 M882.896 127.947 Q882.896 133.821 885.298 137.178 Q887.729 140.505 891.953 140.505 Q896.178 140.505 898.608 137.178 Q901.039 133.821 901.039 127.947 Q901.039 122.074 898.608 118.746 Q896.178 115.39 891.953 115.39 Q887.729 115.39 885.298 118.746 Q882.896 122.074 882.896 127.947 Z" fill="#000000" fill-rule="evenodd" fill-opacity="1" /><path clip-path="url(#clip640)" d="M962.294 102.34 L962.294 108.04 Q958.967 106.449 956.015 105.667 Q953.064 104.886 950.315 104.886 Q945.541 104.886 942.937 106.738 Q940.361 108.59 940.361 112.004 Q940.361 114.869 942.069 116.344 Q943.805 117.791 948.608 118.688 L952.138 119.412 Q958.677 120.656 961.773 123.81 Q964.898 126.935 964.898 132.201 Q964.898 138.48 960.674 141.72 Q956.478 144.961 948.347 144.961 Q945.28 144.961 941.808 144.267 Q938.365 143.572 934.661 142.212 L934.661 136.194 Q938.22 138.19 941.635 139.203 Q945.049 140.216 948.347 140.216 Q953.353 140.216 956.073 138.248 Q958.793 136.281 958.793 132.635 Q958.793 129.452 956.825 127.658 Q954.887 125.864 950.431 124.967 L946.872 124.273 Q940.332 122.971 937.41 120.193 Q934.488 117.415 934.488 112.467 Q934.488 106.738 938.51 103.439 Q942.56 100.141 949.65 100.141 Q952.688 100.141 955.842 100.691 Q958.996 101.24 962.294 102.34 Z" fill="#000000" fill-rule="evenodd" fill-opacity="1" /><path clip-path="url(#clip640)" d="M986.339 115.447 Q982.057 115.447 979.568 118.804 Q977.08 122.131 977.08 127.947 Q977.08 133.763 979.539 137.12 Q982.028 140.447 986.339 140.447 Q990.593 140.447 993.081 137.091 Q995.569 133.734 995.569 127.947 Q995.569 122.189 993.081 118.833 Q990.593 115.447 986.339 115.447 M986.339 110.934 Q993.284 110.934 997.248 115.447 Q1001.21 119.961 1001.21 127.947 Q1001.21 135.905 997.248 140.447 Q993.284 144.961 986.339 144.961 Q979.366 144.961 975.402 140.447 Q971.467 135.905 971.467 127.947 Q971.467 119.961 975.402 115.447 Q979.366 110.934 986.339 110.934 Z" fill="#000000" fill-rule="evenodd" fill-opacity="1" /><path clip-path="url(#clip640)" d="M1010.04 99.0992 L1015.36 99.0992 L1015.36 144.122 L1010.04 144.122 L1010.04 99.0992 Z" fill="#000000" fill-rule="evenodd" fill-opacity="1" /><path clip-path="url(#clip640)" d="M1025.95 131.333 L1025.95 111.715 L1031.28 111.715 L1031.28 131.13 Q1031.28 135.731 1033.07 138.046 Q1034.86 140.332 1038.45 140.332 Q1042.76 140.332 1045.25 137.583 Q1047.77 134.834 1047.77 130.089 L1047.77 111.715 L1053.09 111.715 L1053.09 144.122 L1047.77 144.122 L1047.77 139.145 Q1045.83 142.097 1043.25 143.543 Q1040.71 144.961 1037.32 144.961 Q1031.74 144.961 1028.84 141.489 Q1025.95 138.017 1025.95 131.333 M1039.35 110.934 L1039.35 110.934 Z" fill="#000000" fill-rule="evenodd" fill-opacity="1" /><path clip-path="url(#clip640)" d="M1069.32 102.514 L1069.32 111.715 L1080.29 111.715 L1080.29 115.853 L1069.32 115.853 L1069.32 133.445 Q1069.32 137.409 1070.4 138.538 Q1071.49 139.666 1074.82 139.666 L1080.29 139.666 L1080.29 144.122 L1074.82 144.122 Q1068.66 144.122 1066.32 141.836 Q1063.97 139.521 1063.97 133.445 L1063.97 115.853 L1060.07 115.853 L1060.07 111.715 L1063.97 111.715 L1063.97 102.514 L1069.32 102.514 Z" fill="#000000" fill-rule="evenodd" fill-opacity="1" /><path clip-path="url(#clip640)" d="M1087.29 111.715 L1092.62 111.715 L1092.62 144.122 L1087.29 144.122 L1087.29 111.715 M1087.29 99.0992 L1092.62 99.0992 L1092.62 105.841 L1087.29 105.841 L1087.29 99.0992 Z" fill="#000000" fill-rule="evenodd" fill-opacity="1" /><path clip-path="url(#clip640)" d="M1116.32 115.447 Q1112.03 115.447 1109.54 118.804 Q1107.06 122.131 1107.06 127.947 Q1107.06 133.763 1109.52 137.12 Q1112 140.447 1116.32 140.447 Q1120.57 140.447 1123.06 137.091 Q1125.55 133.734 1125.55 127.947 Q1125.55 122.189 1123.06 118.833 Q1120.57 115.447 1116.32 115.447 M1116.32 110.934 Q1123.26 110.934 1127.22 115.447 Q1131.19 119.961 1131.19 127.947 Q1131.19 135.905 1127.22 140.447 Q1123.26 144.961 1116.32 144.961 Q1109.34 144.961 1105.38 140.447 Q1101.44 135.905 1101.44 127.947 Q1101.44 119.961 1105.38 115.447 Q1109.34 110.934 1116.32 110.934 Z" fill="#000000" fill-rule="evenodd" fill-opacity="1" /><path clip-path="url(#clip640)" d="M1166.95 124.562 L1166.95 144.122 L1161.63 144.122 L1161.63 124.736 Q1161.63 120.135 1159.83 117.849 Q1158.04 115.563 1154.45 115.563 Q1150.14 115.563 1147.65 118.312 Q1145.16 121.061 1145.16 125.806 L1145.16 144.122 L1139.81 144.122 L1139.81 111.715 L1145.16 111.715 L1145.16 116.75 Q1147.07 113.827 1149.65 112.38 Q1152.25 110.934 1155.64 110.934 Q1161.22 110.934 1164.09 114.406 Q1166.95 117.849 1166.95 124.562 Z" fill="#000000" fill-rule="evenodd" fill-opacity="1" /></svg>
