<?xml version="1.0" encoding="utf-8"?>
<svg xmlns="http://www.w3.org/2000/svg" xmlns:xlink="http://www.w3.org/1999/xlink" width="800" height="800" viewBox="0 0 3200 3200">
<defs>
  <clipPath id="clip510">
    <rect x="0" y="0" width="3200" height="3200"/>
  </clipPath>
</defs>
<path clip-path="url(#clip510)" d="
M0 3200 L3200 3200 L3200 0 L0 0  Z
  " fill="#ffffff" fill-rule="evenodd" fill-opacity="1"/>
<defs>
  <clipPath id="clip511">
    <rect x="640" y="320" width="2241" height="2241"/>
  </clipPath>
</defs>
<defs>
  <clipPath id="clip512">
    <rect x="410" y="47" width="2381" height="2976"/>
  </clipPath>
</defs>
<path clip-path="url(#clip510)" d="
M410.168 3021.82 L2789.83 3021.82 L2789.83 47.2441 L410.168 47.2441  Z
  " fill="#ffffff" fill-rule="evenodd" fill-opacity="1"/>
<polyline clip-path="url(#clip512)" style="stroke:#000000; stroke-linecap:round; stroke-linejoin:round; stroke-width:4; stroke-opacity:0.75; fill:none" points="
  608.473,3021.82 608.473,47.2441 
  "/>
<polyline clip-path="url(#clip512)" style="stroke:#000000; stroke-linecap:round; stroke-linejoin:round; stroke-width:4; stroke-opacity:0.75; fill:none" points="
  806.779,3021.82 806.779,47.2441 
  "/>
<polyline clip-path="url(#clip512)" style="stroke:#000000; stroke-linecap:round; stroke-linejoin:round; stroke-width:4; stroke-opacity:0.75; fill:none" points="
  1005.08,3021.82 1005.08,47.2441 
  "/>
<polyline clip-path="url(#clip512)" style="stroke:#000000; stroke-linecap:round; stroke-linejoin:round; stroke-width:4; stroke-opacity:0.75; fill:none" points="
  1203.39,3021.82 1203.39,47.2441 
  "/>
<polyline clip-path="url(#clip512)" style="stroke:#000000; stroke-linecap:round; stroke-linejoin:round; stroke-width:4; stroke-opacity:0.75; fill:none" points="
  1401.69,3021.82 1401.69,47.2441 
  "/>
<polyline clip-path="url(#clip512)" style="stroke:#000000; stroke-linecap:round; stroke-linejoin:round; stroke-width:4; stroke-opacity:0.75; fill:none" points="
  1600,3021.82 1600,47.2441 
  "/>
<polyline clip-path="url(#clip512)" style="stroke:#000000; stroke-linecap:round; stroke-linejoin:round; stroke-width:4; stroke-opacity:0.75; fill:none" points="
  1798.31,3021.82 1798.31,47.2441 
  "/>
<polyline clip-path="url(#clip512)" style="stroke:#000000; stroke-linecap:round; stroke-linejoin:round; stroke-width:4; stroke-opacity:0.75; fill:none" points="
  1996.61,3021.82 1996.61,47.2441 
  "/>
<polyline clip-path="url(#clip512)" style="stroke:#000000; stroke-linecap:round; stroke-linejoin:round; stroke-width:4; stroke-opacity:0.75; fill:none" points="
  2194.92,3021.82 2194.92,47.2441 
  "/>
<polyline clip-path="url(#clip512)" style="stroke:#000000; stroke-linecap:round; stroke-linejoin:round; stroke-width:4; stroke-opacity:0.75; fill:none" points="
  2393.22,3021.82 2393.22,47.2441 
  "/>
<polyline clip-path="url(#clip512)" style="stroke:#000000; stroke-linecap:round; stroke-linejoin:round; stroke-width:4; stroke-opacity:0.75; fill:none" points="
  2591.53,3021.82 2591.53,47.2441 
  "/>
<polyline clip-path="url(#clip512)" style="stroke:#000000; stroke-linecap:round; stroke-linejoin:round; stroke-width:4; stroke-opacity:0.75; fill:none" points="
  2789.83,3021.82 2789.83,47.2441 
  "/>
<polyline clip-path="url(#clip510)" style="stroke:#000000; stroke-linecap:round; stroke-linejoin:round; stroke-width:4; stroke-opacity:1; fill:none" points="
  410.168,3021.82 2789.83,3021.82 
  "/>
<polyline clip-path="url(#clip510)" style="stroke:#000000; stroke-linecap:round; stroke-linejoin:round; stroke-width:4; stroke-opacity:1; fill:none" points="
  608.473,3040.72 608.473,3002.93 
  "/>
<polyline clip-path="url(#clip510)" style="stroke:#000000; stroke-linecap:round; stroke-linejoin:round; stroke-width:4; stroke-opacity:1; fill:none" points="
  806.779,3040.72 806.779,3002.93 
  "/>
<polyline clip-path="url(#clip510)" style="stroke:#000000; stroke-linecap:round; stroke-linejoin:round; stroke-width:4; stroke-opacity:1; fill:none" points="
  1005.08,3040.72 1005.08,3002.93 
  "/>
<polyline clip-path="url(#clip510)" style="stroke:#000000; stroke-linecap:round; stroke-linejoin:round; stroke-width:4; stroke-opacity:1; fill:none" points="
  1203.39,3040.72 1203.39,3002.93 
  "/>
<polyline clip-path="url(#clip510)" style="stroke:#000000; stroke-linecap:round; stroke-linejoin:round; stroke-width:4; stroke-opacity:1; fill:none" points="
  1401.69,3040.72 1401.69,3002.93 
  "/>
<polyline clip-path="url(#clip510)" style="stroke:#000000; stroke-linecap:round; stroke-linejoin:round; stroke-width:4; stroke-opacity:1; fill:none" points="
  1600,3040.72 1600,3002.93 
  "/>
<polyline clip-path="url(#clip510)" style="stroke:#000000; stroke-linecap:round; stroke-linejoin:round; stroke-width:4; stroke-opacity:1; fill:none" points="
  1798.31,3040.72 1798.31,3002.93 
  "/>
<polyline clip-path="url(#clip510)" style="stroke:#000000; stroke-linecap:round; stroke-linejoin:round; stroke-width:4; stroke-opacity:1; fill:none" points="
  1996.61,3040.72 1996.61,3002.93 
  "/>
<polyline clip-path="url(#clip510)" style="stroke:#000000; stroke-linecap:round; stroke-linejoin:round; stroke-width:4; stroke-opacity:1; fill:none" points="
  2194.92,3040.72 2194.92,3002.93 
  "/>
<polyline clip-path="url(#clip510)" style="stroke:#000000; stroke-linecap:round; stroke-linejoin:round; stroke-width:4; stroke-opacity:1; fill:none" points="
  2393.22,3040.72 2393.22,3002.93 
  "/>
<polyline clip-path="url(#clip510)" style="stroke:#000000; stroke-linecap:round; stroke-linejoin:round; stroke-width:4; stroke-opacity:1; fill:none" points="
  2591.53,3040.72 2591.53,3002.93 
  "/>
<polyline clip-path="url(#clip510)" style="stroke:#000000; stroke-linecap:round; stroke-linejoin:round; stroke-width:4; stroke-opacity:1; fill:none" points="
  2789.83,3040.72 2789.83,3002.93 
  "/>
<polyline clip-path="url(#clip510)" style="stroke:#000000; stroke-linecap:round; stroke-linejoin:round; stroke-width:4; stroke-opacity:1; fill:none" points="
  509.321,3031.27 509.321,3012.38 
  "/>
<polyline clip-path="url(#clip510)" style="stroke:#000000; stroke-linecap:round; stroke-linejoin:round; stroke-width:4; stroke-opacity:1; fill:none" points="
  707.626,3031.27 707.626,3012.38 
  "/>
<polyline clip-path="url(#clip510)" style="stroke:#000000; stroke-linecap:round; stroke-linejoin:round; stroke-width:4; stroke-opacity:1; fill:none" points="
  905.931,3031.27 905.931,3012.38 
  "/>
<polyline clip-path="url(#clip510)" style="stroke:#000000; stroke-linecap:round; stroke-linejoin:round; stroke-width:4; stroke-opacity:1; fill:none" points="
  1104.24,3031.27 1104.24,3012.38 
  "/>
<polyline clip-path="url(#clip510)" style="stroke:#000000; stroke-linecap:round; stroke-linejoin:round; stroke-width:4; stroke-opacity:1; fill:none" points="
  1302.54,3031.27 1302.54,3012.38 
  "/>
<polyline clip-path="url(#clip510)" style="stroke:#000000; stroke-linecap:round; stroke-linejoin:round; stroke-width:4; stroke-opacity:1; fill:none" points="
  1500.85,3031.27 1500.85,3012.38 
  "/>
<polyline clip-path="url(#clip510)" style="stroke:#000000; stroke-linecap:round; stroke-linejoin:round; stroke-width:4; stroke-opacity:1; fill:none" points="
  1699.15,3031.27 1699.15,3012.38 
  "/>
<polyline clip-path="url(#clip510)" style="stroke:#000000; stroke-linecap:round; stroke-linejoin:round; stroke-width:4; stroke-opacity:1; fill:none" points="
  1897.46,3031.27 1897.46,3012.38 
  "/>
<polyline clip-path="url(#clip510)" style="stroke:#000000; stroke-linecap:round; stroke-linejoin:round; stroke-width:4; stroke-opacity:1; fill:none" points="
  2095.76,3031.27 2095.76,3012.38 
  "/>
<polyline clip-path="url(#clip510)" style="stroke:#000000; stroke-linecap:round; stroke-linejoin:round; stroke-width:4; stroke-opacity:1; fill:none" points="
  2294.07,3031.27 2294.07,3012.38 
  "/>
<polyline clip-path="url(#clip510)" style="stroke:#000000; stroke-linecap:round; stroke-linejoin:round; stroke-width:4; stroke-opacity:1; fill:none" points="
  2492.37,3031.27 2492.37,3012.38 
  "/>
<polyline clip-path="url(#clip510)" style="stroke:#000000; stroke-linecap:round; stroke-linejoin:round; stroke-width:4; stroke-opacity:1; fill:none" points="
  2690.68,3031.27 2690.68,3012.38 
  "/>
<path clip-path="url(#clip510)" d="M586.833 3135.77 L604.02 3135.77 L604.02 3076.45 L585.322 3080.2 L585.322 3070.61 L603.916 3066.86 L614.437 3066.86 L614.437 3135.77 L631.624 3135.77 L631.624 3144.62 L586.833 3144.62 L586.833 3135.77 Z" fill="#000000" fill-rule="evenodd" fill-opacity="1" /><path clip-path="url(#clip510)" d="M794.747 3135.77 L831.466 3135.77 L831.466 3144.62 L782.091 3144.62 L782.091 3135.77 Q788.081 3129.57 798.393 3119.16 Q808.758 3108.69 811.414 3105.67 Q816.466 3099.99 818.445 3096.08 Q820.476 3092.12 820.476 3088.32 Q820.476 3082.12 816.101 3078.22 Q811.779 3074.31 804.799 3074.31 Q799.852 3074.31 794.331 3076.03 Q788.862 3077.75 782.612 3081.24 L782.612 3070.61 Q788.966 3068.06 794.487 3066.76 Q800.008 3065.46 804.591 3065.46 Q816.674 3065.46 823.862 3071.5 Q831.049 3077.54 831.049 3087.65 Q831.049 3092.44 829.226 3096.76 Q827.456 3101.03 822.716 3106.86 Q821.414 3108.37 814.435 3115.61 Q807.456 3122.8 794.747 3135.77 Z" fill="#000000" fill-rule="evenodd" fill-opacity="1" /><path clip-path="url(#clip510)" d="M1014.64 3102.7 Q1022.19 3104.31 1026.41 3109.42 Q1030.68 3114.52 1030.68 3122.02 Q1030.68 3133.53 1022.77 3139.83 Q1014.85 3146.13 1000.27 3146.13 Q995.37 3146.13 990.162 3145.15 Q985.006 3144.21 979.485 3142.28 L979.485 3132.12 Q983.86 3134.68 989.068 3135.98 Q994.277 3137.28 999.954 3137.28 Q1009.85 3137.28 1015.01 3133.37 Q1020.21 3129.47 1020.21 3122.02 Q1020.21 3115.15 1015.37 3111.29 Q1010.58 3107.38 1001.99 3107.38 L992.923 3107.38 L992.923 3098.74 L1002.4 3098.74 Q1010.16 3098.74 1014.28 3095.67 Q1018.39 3092.54 1018.39 3086.71 Q1018.39 3080.72 1014.12 3077.54 Q1009.9 3074.31 1001.99 3074.31 Q997.662 3074.31 992.714 3075.25 Q987.766 3076.19 981.829 3078.17 L981.829 3068.79 Q987.818 3067.12 993.027 3066.29 Q998.287 3065.46 1002.92 3065.46 Q1014.9 3065.46 1021.88 3070.93 Q1028.86 3076.34 1028.86 3085.61 Q1028.86 3092.07 1025.16 3096.55 Q1021.46 3100.98 1014.64 3102.7 Z" fill="#000000" fill-rule="evenodd" fill-opacity="1" /><path clip-path="url(#clip510)" d="M1210.16 3076.03 L1183.6 3117.54 L1210.16 3117.54 L1210.16 3076.03 M1207.4 3066.86 L1220.63 3066.86 L1220.63 3117.54 L1231.72 3117.54 L1231.72 3126.29 L1220.63 3126.29 L1220.63 3144.62 L1210.16 3144.62 L1210.16 3126.29 L1175.06 3126.29 L1175.06 3116.13 L1207.4 3066.86 Z" fill="#000000" fill-rule="evenodd" fill-opacity="1" /><path clip-path="url(#clip510)" d="M1379.82 3066.86 L1421.12 3066.86 L1421.12 3075.72 L1389.46 3075.72 L1389.46 3094.78 Q1391.75 3094 1394.04 3093.63 Q1396.33 3093.22 1398.62 3093.22 Q1411.64 3093.22 1419.25 3100.35 Q1426.85 3107.49 1426.85 3119.68 Q1426.85 3132.23 1419.04 3139.21 Q1411.23 3146.13 1397.01 3146.13 Q1392.11 3146.13 1387.01 3145.3 Q1381.96 3144.47 1376.54 3142.8 L1376.54 3132.23 Q1381.23 3134.78 1386.23 3136.03 Q1391.23 3137.28 1396.8 3137.28 Q1405.81 3137.28 1411.07 3132.54 Q1416.33 3127.8 1416.33 3119.68 Q1416.33 3111.55 1411.07 3106.81 Q1405.81 3102.07 1396.8 3102.07 Q1392.58 3102.07 1388.36 3103.01 Q1384.19 3103.95 1379.82 3105.93 L1379.82 3066.86 Z" fill="#000000" fill-rule="evenodd" fill-opacity="1" /><path clip-path="url(#clip510)" d="M1600.91 3101.55 Q1593.83 3101.55 1589.66 3106.4 Q1585.55 3111.24 1585.55 3119.68 Q1585.55 3128.06 1589.66 3132.96 Q1593.83 3137.8 1600.91 3137.8 Q1607.99 3137.8 1612.11 3132.96 Q1616.28 3128.06 1616.28 3119.68 Q1616.28 3111.24 1612.11 3106.4 Q1607.99 3101.55 1600.91 3101.55 M1621.8 3068.58 L1621.8 3078.17 Q1617.84 3076.29 1613.78 3075.3 Q1609.77 3074.31 1605.81 3074.31 Q1595.39 3074.31 1589.87 3081.34 Q1584.4 3088.37 1583.62 3102.59 Q1586.69 3098.06 1591.33 3095.67 Q1595.96 3093.22 1601.54 3093.22 Q1613.26 3093.22 1620.03 3100.35 Q1626.85 3107.44 1626.85 3119.68 Q1626.85 3131.66 1619.77 3138.9 Q1612.68 3146.13 1600.91 3146.13 Q1587.42 3146.13 1580.29 3135.82 Q1573.15 3125.46 1573.15 3105.82 Q1573.15 3087.38 1581.9 3076.45 Q1590.65 3065.46 1605.39 3065.46 Q1609.35 3065.46 1613.36 3066.24 Q1617.42 3067.02 1621.8 3068.58 Z" fill="#000000" fill-rule="evenodd" fill-opacity="1" /><path clip-path="url(#clip510)" d="M1773.31 3066.86 L1823.31 3066.86 L1823.31 3071.34 L1795.08 3144.62 L1784.09 3144.62 L1810.65 3075.72 L1773.31 3075.72 L1773.31 3066.86 Z" fill="#000000" fill-rule="evenodd" fill-opacity="1" /><path clip-path="url(#clip510)" d="M1996.61 3107.7 Q1989.11 3107.7 1984.79 3111.71 Q1980.52 3115.72 1980.52 3122.75 Q1980.52 3129.78 1984.79 3133.79 Q1989.11 3137.8 1996.61 3137.8 Q2004.11 3137.8 2008.43 3133.79 Q2012.76 3129.73 2012.76 3122.75 Q2012.76 3115.72 2008.43 3111.71 Q2004.16 3107.7 1996.61 3107.7 M1986.09 3103.22 Q1979.32 3101.55 1975.52 3096.92 Q1971.77 3092.28 1971.77 3085.61 Q1971.77 3076.29 1978.38 3070.87 Q1985.05 3065.46 1996.61 3065.46 Q2008.23 3065.46 2014.84 3070.87 Q2021.45 3076.29 2021.45 3085.61 Q2021.45 3092.28 2017.65 3096.92 Q2013.9 3101.55 2007.18 3103.22 Q2014.79 3104.99 2019.01 3110.15 Q2023.28 3115.3 2023.28 3122.75 Q2023.28 3134.05 2016.35 3140.09 Q2009.48 3146.13 1996.61 3146.13 Q1983.75 3146.13 1976.82 3140.09 Q1969.94 3134.05 1969.94 3122.75 Q1969.94 3115.3 1974.21 3110.15 Q1978.49 3104.99 1986.09 3103.22 M1982.24 3086.6 Q1982.24 3092.65 1985.99 3096.03 Q1989.79 3099.42 1996.61 3099.42 Q2003.38 3099.42 2007.18 3096.03 Q2011.04 3092.65 2011.04 3086.6 Q2011.04 3080.56 2007.18 3077.18 Q2003.38 3073.79 1996.61 3073.79 Q1989.79 3073.79 1985.99 3077.18 Q1982.24 3080.56 1982.24 3086.6 Z" fill="#000000" fill-rule="evenodd" fill-opacity="1" /><path clip-path="url(#clip510)" d="M2173.09 3143.01 L2173.09 3133.43 Q2177.05 3135.3 2181.11 3136.29 Q2185.18 3137.28 2189.08 3137.28 Q2199.5 3137.28 2204.97 3130.3 Q2210.49 3123.27 2211.27 3109 Q2208.25 3113.48 2203.61 3115.87 Q2198.98 3118.27 2193.35 3118.27 Q2181.69 3118.27 2174.86 3111.24 Q2168.09 3104.16 2168.09 3091.92 Q2168.09 3079.94 2175.18 3072.7 Q2182.26 3065.46 2194.03 3065.46 Q2207.52 3065.46 2214.6 3075.82 Q2221.74 3086.13 2221.74 3105.82 Q2221.74 3124.21 2212.99 3135.2 Q2204.29 3146.13 2189.55 3146.13 Q2185.59 3146.13 2181.53 3145.35 Q2177.47 3144.57 2173.09 3143.01 M2194.03 3110.04 Q2201.11 3110.04 2205.23 3105.2 Q2209.4 3100.35 2209.4 3091.92 Q2209.4 3083.53 2205.23 3078.69 Q2201.11 3073.79 2194.03 3073.79 Q2186.95 3073.79 2182.78 3078.69 Q2178.67 3083.53 2178.67 3091.92 Q2178.67 3100.35 2182.78 3105.2 Q2186.95 3110.04 2194.03 3110.04 Z" fill="#000000" fill-rule="evenodd" fill-opacity="1" /><path clip-path="url(#clip510)" d="M2336.27 3135.77 L2353.46 3135.77 L2353.46 3076.45 L2334.76 3080.2 L2334.76 3070.61 L2353.35 3066.86 L2363.87 3066.86 L2363.87 3135.77 L2381.06 3135.77 L2381.06 3144.62 L2336.27 3144.62 L2336.27 3135.77 Z" fill="#000000" fill-rule="evenodd" fill-opacity="1" /><path clip-path="url(#clip510)" d="M2424.81 3073.79 Q2416.68 3073.79 2412.57 3081.81 Q2408.51 3089.78 2408.51 3105.82 Q2408.51 3121.81 2412.57 3129.83 Q2416.68 3137.8 2424.81 3137.8 Q2432.99 3137.8 2437.05 3129.83 Q2441.16 3121.81 2441.16 3105.82 Q2441.16 3089.78 2437.05 3081.81 Q2432.99 3073.79 2424.81 3073.79 M2424.81 3065.46 Q2437.88 3065.46 2444.76 3075.82 Q2451.68 3086.13 2451.68 3105.82 Q2451.68 3125.46 2444.76 3135.82 Q2437.88 3146.13 2424.81 3146.13 Q2411.74 3146.13 2404.81 3135.82 Q2397.93 3125.46 2397.93 3105.82 Q2397.93 3086.13 2404.81 3075.82 Q2411.74 3065.46 2424.81 3065.46 Z" fill="#000000" fill-rule="evenodd" fill-opacity="1" /><path clip-path="url(#clip510)" d="M2535.95 3135.77 L2553.14 3135.77 L2553.14 3076.45 L2534.44 3080.2 L2534.44 3070.61 L2553.04 3066.86 L2563.56 3066.86 L2563.56 3135.77 L2580.75 3135.77 L2580.75 3144.62 L2535.95 3144.62 L2535.95 3135.77 Z" fill="#000000" fill-rule="evenodd" fill-opacity="1" /><path clip-path="url(#clip510)" d="M2603.82 3135.77 L2621.01 3135.77 L2621.01 3076.45 L2602.31 3080.2 L2602.31 3070.61 L2620.9 3066.86 L2631.42 3066.86 L2631.42 3135.77 L2648.61 3135.77 L2648.61 3144.62 L2603.82 3144.62 L2603.82 3135.77 Z" fill="#000000" fill-rule="evenodd" fill-opacity="1" /><path clip-path="url(#clip510)" d="M2734.68 3135.77 L2751.86 3135.77 L2751.86 3076.45 L2733.17 3080.2 L2733.17 3070.61 L2751.76 3066.86 L2762.28 3066.86 L2762.28 3135.77 L2779.47 3135.77 L2779.47 3144.62 L2734.68 3144.62 L2734.68 3135.77 Z" fill="#000000" fill-rule="evenodd" fill-opacity="1" /><path clip-path="url(#clip510)" d="M2809.78 3135.77 L2846.5 3135.77 L2846.5 3144.62 L2797.12 3144.62 L2797.12 3135.77 Q2803.11 3129.57 2813.43 3119.16 Q2823.79 3108.69 2826.45 3105.67 Q2831.5 3099.99 2833.48 3096.08 Q2835.51 3092.12 2835.51 3088.32 Q2835.51 3082.12 2831.13 3078.22 Q2826.81 3074.31 2819.83 3074.31 Q2814.88 3074.31 2809.36 3076.03 Q2803.89 3077.75 2797.64 3081.24 L2797.64 3070.61 Q2804 3068.06 2809.52 3066.76 Q2815.04 3065.46 2819.62 3065.46 Q2831.71 3065.46 2838.89 3071.5 Q2846.08 3077.54 2846.08 3087.65 Q2846.08 3092.44 2844.26 3096.76 Q2842.49 3101.03 2837.75 3106.86 Q2836.45 3108.37 2829.47 3115.61 Q2822.49 3122.8 2809.78 3135.77 Z" fill="#000000" fill-rule="evenodd" fill-opacity="1" /><path clip-path="url(#clip510)" d="M1630.93 3225.25 Q1630.93 3229.19 1628.47 3231.44 Q1626.01 3233.62 1623.2 3233.62 Q1620.53 3233.62 1619.12 3232.07 Q1617.72 3230.52 1617.72 3228.56 Q1617.72 3225.89 1619.68 3223.57 Q1621.65 3221.25 1624.6 3220.76 Q1621.72 3218.93 1617.44 3218.93 Q1614.63 3218.93 1612.17 3220.41 Q1609.78 3221.88 1608.3 3223.78 Q1606.9 3225.68 1605.63 3228.42 Q1604.44 3231.09 1603.94 3232.7 Q1603.52 3234.25 1603.17 3235.93 L1598.25 3255.61 Q1595.86 3264.95 1595.86 3268.26 Q1595.86 3272.33 1597.83 3275.07 Q1599.8 3277.74 1603.73 3277.74 Q1605.28 3277.74 1607.04 3277.32 Q1608.79 3276.83 1611.04 3275.57 Q1613.36 3274.23 1615.4 3272.26 Q1617.51 3270.22 1619.54 3266.78 Q1621.58 3263.34 1622.92 3258.91 Q1623.34 3257.37 1624.74 3257.37 Q1626.5 3257.37 1626.5 3258.77 Q1626.5 3259.97 1625.52 3262.5 Q1624.6 3264.95 1622.57 3268.19 Q1620.6 3271.35 1618 3274.23 Q1615.4 3277.04 1611.53 3279.01 Q1607.67 3280.98 1603.45 3280.98 Q1597.41 3280.98 1593.4 3277.74 Q1589.4 3274.51 1587.92 3270.01 Q1587.57 3270.65 1587.08 3271.49 Q1586.59 3272.33 1585.11 3274.23 Q1583.71 3276.06 1582.09 3277.46 Q1580.48 3278.8 1577.95 3279.85 Q1575.49 3280.98 1572.82 3280.98 Q1569.44 3280.98 1566.42 3279.99 Q1563.47 3279.01 1561.36 3276.76 Q1559.25 3274.51 1559.25 3271.42 Q1559.25 3267.98 1561.57 3265.59 Q1563.96 3263.13 1567.2 3263.13 Q1569.23 3263.13 1570.85 3264.32 Q1572.54 3265.52 1572.54 3268.12 Q1572.54 3271 1570.57 3273.18 Q1568.6 3275.35 1565.79 3275.92 Q1568.67 3277.74 1572.96 3277.74 Q1577.59 3277.74 1581.25 3273.67 Q1584.9 3269.59 1586.66 3262.78 Q1591.02 3246.4 1592.7 3239.1 Q1594.39 3231.72 1594.39 3228.56 Q1594.39 3225.61 1593.62 3223.57 Q1592.84 3221.53 1591.51 3220.62 Q1590.24 3219.63 1589.05 3219.28 Q1587.92 3218.93 1586.66 3218.93 Q1584.55 3218.93 1582.16 3219.77 Q1579.84 3220.62 1577.03 3222.58 Q1574.29 3224.48 1571.69 3228.42 Q1569.09 3232.35 1567.34 3237.76 Q1566.98 3239.38 1565.44 3239.38 Q1563.75 3239.31 1563.75 3237.9 Q1563.75 3236.71 1564.67 3234.25 Q1565.65 3231.72 1567.62 3228.56 Q1569.65 3225.39 1572.25 3222.58 Q1574.92 3219.7 1578.79 3217.74 Q1582.72 3215.77 1586.94 3215.77 Q1588.84 3215.77 1590.66 3216.19 Q1592.56 3216.54 1594.81 3217.59 Q1597.13 3218.65 1599.17 3220.97 Q1601.2 3223.29 1602.47 3226.66 Q1603.31 3225.04 1604.44 3223.5 Q1605.63 3221.95 1607.46 3220.05 Q1609.36 3218.09 1611.96 3216.96 Q1614.63 3215.77 1617.58 3215.77 Q1620.46 3215.77 1623.27 3216.54 Q1626.08 3217.24 1628.47 3219.56 Q1630.93 3221.81 1630.93 3225.25 Z" fill="#000000" fill-rule="evenodd" fill-opacity="1" /><polyline clip-path="url(#clip512)" style="stroke:#000000; stroke-linecap:round; stroke-linejoin:round; stroke-width:4; stroke-opacity:0.75; fill:none" points="
  410.168,2823.52 2789.83,2823.52 
  "/>
<polyline clip-path="url(#clip512)" style="stroke:#000000; stroke-linecap:round; stroke-linejoin:round; stroke-width:4; stroke-opacity:0.75; fill:none" points="
  410.168,2625.21 2789.83,2625.21 
  "/>
<polyline clip-path="url(#clip512)" style="stroke:#000000; stroke-linecap:round; stroke-linejoin:round; stroke-width:4; stroke-opacity:0.75; fill:none" points="
  410.168,2426.91 2789.83,2426.91 
  "/>
<polyline clip-path="url(#clip512)" style="stroke:#000000; stroke-linecap:round; stroke-linejoin:round; stroke-width:4; stroke-opacity:0.75; fill:none" points="
  410.168,2228.6 2789.83,2228.6 
  "/>
<polyline clip-path="url(#clip512)" style="stroke:#000000; stroke-linecap:round; stroke-linejoin:round; stroke-width:4; stroke-opacity:0.75; fill:none" points="
  410.168,2030.3 2789.83,2030.3 
  "/>
<polyline clip-path="url(#clip512)" style="stroke:#000000; stroke-linecap:round; stroke-linejoin:round; stroke-width:4; stroke-opacity:0.75; fill:none" points="
  410.168,1831.99 2789.83,1831.99 
  "/>
<polyline clip-path="url(#clip512)" style="stroke:#000000; stroke-linecap:round; stroke-linejoin:round; stroke-width:4; stroke-opacity:0.75; fill:none" points="
  410.168,1633.69 2789.83,1633.69 
  "/>
<polyline clip-path="url(#clip512)" style="stroke:#000000; stroke-linecap:round; stroke-linejoin:round; stroke-width:4; stroke-opacity:0.75; fill:none" points="
  410.168,1435.38 2789.83,1435.38 
  "/>
<polyline clip-path="url(#clip512)" style="stroke:#000000; stroke-linecap:round; stroke-linejoin:round; stroke-width:4; stroke-opacity:0.75; fill:none" points="
  410.168,1237.08 2789.83,1237.08 
  "/>
<polyline clip-path="url(#clip512)" style="stroke:#000000; stroke-linecap:round; stroke-linejoin:round; stroke-width:4; stroke-opacity:0.75; fill:none" points="
  410.168,1038.77 2789.83,1038.77 
  "/>
<polyline clip-path="url(#clip512)" style="stroke:#000000; stroke-linecap:round; stroke-linejoin:round; stroke-width:4; stroke-opacity:0.75; fill:none" points="
  410.168,840.465 2789.83,840.465 
  "/>
<polyline clip-path="url(#clip512)" style="stroke:#000000; stroke-linecap:round; stroke-linejoin:round; stroke-width:4; stroke-opacity:0.75; fill:none" points="
  410.168,642.16 2789.83,642.16 
  "/>
<polyline clip-path="url(#clip512)" style="stroke:#000000; stroke-linecap:round; stroke-linejoin:round; stroke-width:4; stroke-opacity:0.75; fill:none" points="
  410.168,443.855 2789.83,443.855 
  "/>
<polyline clip-path="url(#clip512)" style="stroke:#000000; stroke-linecap:round; stroke-linejoin:round; stroke-width:4; stroke-opacity:0.75; fill:none" points="
  410.168,245.549 2789.83,245.549 
  "/>
<polyline clip-path="url(#clip512)" style="stroke:#000000; stroke-linecap:round; stroke-linejoin:round; stroke-width:4; stroke-opacity:0.75; fill:none" points="
  410.168,47.2441 2789.83,47.2441 
  "/>
<polyline clip-path="url(#clip510)" style="stroke:#000000; stroke-linecap:round; stroke-linejoin:round; stroke-width:4; stroke-opacity:1; fill:none" points="
  410.168,3021.82 410.168,47.2441 
  "/>
<polyline clip-path="url(#clip510)" style="stroke:#000000; stroke-linecap:round; stroke-linejoin:round; stroke-width:4; stroke-opacity:1; fill:none" points="
  396.115,2823.52 424.221,2823.52 
  "/>
<polyline clip-path="url(#clip510)" style="stroke:#000000; stroke-linecap:round; stroke-linejoin:round; stroke-width:4; stroke-opacity:1; fill:none" points="
  396.115,2625.21 424.221,2625.21 
  "/>
<polyline clip-path="url(#clip510)" style="stroke:#000000; stroke-linecap:round; stroke-linejoin:round; stroke-width:4; stroke-opacity:1; fill:none" points="
  396.115,2426.91 424.221,2426.91 
  "/>
<polyline clip-path="url(#clip510)" style="stroke:#000000; stroke-linecap:round; stroke-linejoin:round; stroke-width:4; stroke-opacity:1; fill:none" points="
  396.115,2228.6 424.221,2228.6 
  "/>
<polyline clip-path="url(#clip510)" style="stroke:#000000; stroke-linecap:round; stroke-linejoin:round; stroke-width:4; stroke-opacity:1; fill:none" points="
  396.115,2030.3 424.221,2030.3 
  "/>
<polyline clip-path="url(#clip510)" style="stroke:#000000; stroke-linecap:round; stroke-linejoin:round; stroke-width:4; stroke-opacity:1; fill:none" points="
  396.115,1831.99 424.221,1831.99 
  "/>
<polyline clip-path="url(#clip510)" style="stroke:#000000; stroke-linecap:round; stroke-linejoin:round; stroke-width:4; stroke-opacity:1; fill:none" points="
  396.115,1633.69 424.221,1633.69 
  "/>
<polyline clip-path="url(#clip510)" style="stroke:#000000; stroke-linecap:round; stroke-linejoin:round; stroke-width:4; stroke-opacity:1; fill:none" points="
  396.115,1435.38 424.221,1435.38 
  "/>
<polyline clip-path="url(#clip510)" style="stroke:#000000; stroke-linecap:round; stroke-linejoin:round; stroke-width:4; stroke-opacity:1; fill:none" points="
  396.115,1237.08 424.221,1237.08 
  "/>
<polyline clip-path="url(#clip510)" style="stroke:#000000; stroke-linecap:round; stroke-linejoin:round; stroke-width:4; stroke-opacity:1; fill:none" points="
  396.115,1038.77 424.221,1038.77 
  "/>
<polyline clip-path="url(#clip510)" style="stroke:#000000; stroke-linecap:round; stroke-linejoin:round; stroke-width:4; stroke-opacity:1; fill:none" points="
  396.115,840.465 424.221,840.465 
  "/>
<polyline clip-path="url(#clip510)" style="stroke:#000000; stroke-linecap:round; stroke-linejoin:round; stroke-width:4; stroke-opacity:1; fill:none" points="
  396.115,642.16 424.221,642.16 
  "/>
<polyline clip-path="url(#clip510)" style="stroke:#000000; stroke-linecap:round; stroke-linejoin:round; stroke-width:4; stroke-opacity:1; fill:none" points="
  396.115,443.855 424.221,443.855 
  "/>
<polyline clip-path="url(#clip510)" style="stroke:#000000; stroke-linecap:round; stroke-linejoin:round; stroke-width:4; stroke-opacity:1; fill:none" points="
  396.115,245.549 424.221,245.549 
  "/>
<polyline clip-path="url(#clip510)" style="stroke:#000000; stroke-linecap:round; stroke-linejoin:round; stroke-width:4; stroke-opacity:1; fill:none" points="
  396.115,47.2441 424.221,47.2441 
  "/>
<polyline clip-path="url(#clip510)" style="stroke:#000000; stroke-linecap:round; stroke-linejoin:round; stroke-width:4; stroke-opacity:1; fill:none" points="
  403.141,2922.67 417.195,2922.67 
  "/>
<polyline clip-path="url(#clip510)" style="stroke:#000000; stroke-linecap:round; stroke-linejoin:round; stroke-width:4; stroke-opacity:1; fill:none" points="
  403.141,2724.37 417.195,2724.37 
  "/>
<polyline clip-path="url(#clip510)" style="stroke:#000000; stroke-linecap:round; stroke-linejoin:round; stroke-width:4; stroke-opacity:1; fill:none" points="
  403.141,2526.06 417.195,2526.06 
  "/>
<polyline clip-path="url(#clip510)" style="stroke:#000000; stroke-linecap:round; stroke-linejoin:round; stroke-width:4; stroke-opacity:1; fill:none" points="
  403.141,2327.76 417.195,2327.76 
  "/>
<polyline clip-path="url(#clip510)" style="stroke:#000000; stroke-linecap:round; stroke-linejoin:round; stroke-width:4; stroke-opacity:1; fill:none" points="
  403.141,2129.45 417.195,2129.45 
  "/>
<polyline clip-path="url(#clip510)" style="stroke:#000000; stroke-linecap:round; stroke-linejoin:round; stroke-width:4; stroke-opacity:1; fill:none" points="
  403.141,1931.14 417.195,1931.14 
  "/>
<polyline clip-path="url(#clip510)" style="stroke:#000000; stroke-linecap:round; stroke-linejoin:round; stroke-width:4; stroke-opacity:1; fill:none" points="
  403.141,1732.84 417.195,1732.84 
  "/>
<polyline clip-path="url(#clip510)" style="stroke:#000000; stroke-linecap:round; stroke-linejoin:round; stroke-width:4; stroke-opacity:1; fill:none" points="
  403.141,1534.53 417.195,1534.53 
  "/>
<polyline clip-path="url(#clip510)" style="stroke:#000000; stroke-linecap:round; stroke-linejoin:round; stroke-width:4; stroke-opacity:1; fill:none" points="
  403.141,1336.23 417.195,1336.23 
  "/>
<polyline clip-path="url(#clip510)" style="stroke:#000000; stroke-linecap:round; stroke-linejoin:round; stroke-width:4; stroke-opacity:1; fill:none" points="
  403.141,1137.92 417.195,1137.92 
  "/>
<polyline clip-path="url(#clip510)" style="stroke:#000000; stroke-linecap:round; stroke-linejoin:round; stroke-width:4; stroke-opacity:1; fill:none" points="
  403.141,939.618 417.195,939.618 
  "/>
<polyline clip-path="url(#clip510)" style="stroke:#000000; stroke-linecap:round; stroke-linejoin:round; stroke-width:4; stroke-opacity:1; fill:none" points="
  403.141,741.313 417.195,741.313 
  "/>
<polyline clip-path="url(#clip510)" style="stroke:#000000; stroke-linecap:round; stroke-linejoin:round; stroke-width:4; stroke-opacity:1; fill:none" points="
  403.141,543.007 417.195,543.007 
  "/>
<polyline clip-path="url(#clip510)" style="stroke:#000000; stroke-linecap:round; stroke-linejoin:round; stroke-width:4; stroke-opacity:1; fill:none" points="
  403.141,344.702 417.195,344.702 
  "/>
<polyline clip-path="url(#clip510)" style="stroke:#000000; stroke-linecap:round; stroke-linejoin:round; stroke-width:4; stroke-opacity:1; fill:none" points="
  403.141,146.397 417.195,146.397 
  "/>
<path clip-path="url(#clip510)" d="M317.377 2853.54 L334.564 2853.54 L334.564 2794.22 L315.866 2797.97 L315.866 2788.39 L334.46 2784.64 L344.981 2784.64 L344.981 2853.54 L362.168 2853.54 L362.168 2862.4 L317.377 2862.4 L317.377 2853.54 Z" fill="#000000" fill-rule="evenodd" fill-opacity="1" /><path clip-path="url(#clip510)" d="M325.449 2655.24 L362.168 2655.24 L362.168 2664.09 L312.793 2664.09 L312.793 2655.24 Q318.783 2649.04 329.095 2638.62 Q339.46 2628.16 342.116 2625.14 Q347.168 2619.46 349.147 2615.55 Q351.178 2611.59 351.178 2607.79 Q351.178 2601.59 346.803 2597.69 Q342.481 2593.78 335.501 2593.78 Q330.554 2593.78 325.033 2595.5 Q319.564 2597.22 313.314 2600.71 L313.314 2590.08 Q319.668 2587.53 325.189 2586.23 Q330.71 2584.93 335.293 2584.93 Q347.376 2584.93 354.564 2590.97 Q361.751 2597.01 361.751 2607.11 Q361.751 2611.91 359.928 2616.23 Q358.158 2620.5 353.418 2626.33 Q352.116 2627.84 345.137 2635.08 Q338.158 2642.27 325.449 2655.24 Z" fill="#000000" fill-rule="evenodd" fill-opacity="1" /><path clip-path="url(#clip510)" d="M346.126 2423.86 Q353.678 2425.48 357.897 2430.58 Q362.168 2435.68 362.168 2443.18 Q362.168 2454.69 354.251 2461 Q346.335 2467.3 331.751 2467.3 Q326.856 2467.3 321.647 2466.31 Q316.491 2465.37 310.97 2463.44 L310.97 2453.29 Q315.345 2455.84 320.554 2457.14 Q325.762 2458.44 331.439 2458.44 Q341.335 2458.44 346.491 2454.54 Q351.699 2450.63 351.699 2443.18 Q351.699 2436.31 346.856 2432.46 Q342.064 2428.55 333.47 2428.55 L324.408 2428.55 L324.408 2419.9 L333.887 2419.9 Q341.647 2419.9 345.762 2416.83 Q349.876 2413.71 349.876 2407.87 Q349.876 2401.88 345.606 2398.71 Q341.387 2395.48 333.47 2395.48 Q329.147 2395.48 324.199 2396.41 Q319.252 2397.35 313.314 2399.33 L313.314 2389.96 Q319.304 2388.29 324.512 2387.46 Q329.772 2386.62 334.408 2386.62 Q346.387 2386.62 353.366 2392.09 Q360.345 2397.51 360.345 2406.78 Q360.345 2413.24 356.647 2417.72 Q352.949 2422.14 346.126 2423.86 Z" fill="#000000" fill-rule="evenodd" fill-opacity="1" /><path clip-path="url(#clip510)" d="M340.606 2198.89 L314.043 2240.4 L340.606 2240.4 L340.606 2198.89 M337.845 2189.72 L351.074 2189.72 L351.074 2240.4 L362.168 2240.4 L362.168 2249.15 L351.074 2249.15 L351.074 2267.48 L340.606 2267.48 L340.606 2249.15 L305.502 2249.15 L305.502 2238.99 L337.845 2189.72 Z" fill="#000000" fill-rule="evenodd" fill-opacity="1" /><path clip-path="url(#clip510)" d="M315.137 1991.42 L356.439 1991.42 L356.439 2000.27 L324.772 2000.27 L324.772 2019.33 Q327.064 2018.55 329.356 2018.19 Q331.647 2017.77 333.939 2017.77 Q346.96 2017.77 354.564 2024.91 Q362.168 2032.04 362.168 2044.23 Q362.168 2056.78 354.355 2063.76 Q346.543 2070.69 332.324 2070.69 Q327.429 2070.69 322.324 2069.85 Q317.272 2069.02 311.856 2067.35 L311.856 2056.78 Q316.543 2059.33 321.543 2060.58 Q326.543 2061.83 332.116 2061.83 Q341.126 2061.83 346.387 2057.09 Q351.647 2052.35 351.647 2044.23 Q351.647 2036.1 346.387 2031.37 Q341.126 2026.63 332.116 2026.63 Q327.897 2026.63 323.679 2027.56 Q319.512 2028.5 315.137 2030.48 L315.137 1991.42 Z" fill="#000000" fill-rule="evenodd" fill-opacity="1" /><path clip-path="url(#clip510)" d="M336.231 1827.8 Q329.147 1827.8 324.981 1832.64 Q320.866 1837.49 320.866 1845.92 Q320.866 1854.31 324.981 1859.21 Q329.147 1864.05 336.231 1864.05 Q343.314 1864.05 347.428 1859.21 Q351.595 1854.31 351.595 1845.92 Q351.595 1837.49 347.428 1832.64 Q343.314 1827.8 336.231 1827.8 M357.116 1794.83 L357.116 1804.41 Q353.158 1802.54 349.095 1801.55 Q345.085 1800.56 341.126 1800.56 Q330.71 1800.56 325.189 1807.59 Q319.72 1814.62 318.939 1828.84 Q322.012 1824.31 326.647 1821.91 Q331.283 1819.47 336.856 1819.47 Q348.574 1819.47 355.345 1826.6 Q362.168 1833.68 362.168 1845.92 Q362.168 1857.9 355.085 1865.14 Q348.001 1872.38 336.231 1872.38 Q322.741 1872.38 315.606 1862.07 Q308.47 1851.71 308.47 1832.07 Q308.47 1813.63 317.22 1802.7 Q325.97 1791.71 340.71 1791.71 Q344.668 1791.71 348.678 1792.49 Q352.741 1793.27 357.116 1794.83 Z" fill="#000000" fill-rule="evenodd" fill-opacity="1" /><path clip-path="url(#clip510)" d="M312.168 1594.81 L362.168 1594.81 L362.168 1599.29 L333.939 1672.57 L322.949 1672.57 L349.512 1603.66 L312.168 1603.66 L312.168 1594.81 Z" fill="#000000" fill-rule="evenodd" fill-opacity="1" /><path clip-path="url(#clip510)" d="M335.501 1437.33 Q328.001 1437.33 323.679 1441.35 Q319.408 1445.36 319.408 1452.39 Q319.408 1459.42 323.679 1463.43 Q328.001 1467.44 335.501 1467.44 Q343.001 1467.44 347.324 1463.43 Q351.647 1459.37 351.647 1452.39 Q351.647 1445.36 347.324 1441.35 Q343.053 1437.33 335.501 1437.33 M324.981 1432.86 Q318.21 1431.19 314.408 1426.55 Q310.658 1421.92 310.658 1415.25 Q310.658 1405.93 317.272 1400.51 Q323.939 1395.1 335.501 1395.1 Q347.116 1395.1 353.73 1400.51 Q360.345 1405.93 360.345 1415.25 Q360.345 1421.92 356.543 1426.55 Q352.793 1431.19 346.074 1432.86 Q353.678 1434.63 357.897 1439.78 Q362.168 1444.94 362.168 1452.39 Q362.168 1463.69 355.241 1469.73 Q348.366 1475.77 335.501 1475.77 Q322.637 1475.77 315.71 1469.73 Q308.835 1463.69 308.835 1452.39 Q308.835 1444.94 313.106 1439.78 Q317.377 1434.63 324.981 1432.86 M321.126 1416.24 Q321.126 1422.28 324.876 1425.67 Q328.679 1429.05 335.501 1429.05 Q342.272 1429.05 346.074 1425.67 Q349.928 1422.28 349.928 1416.24 Q349.928 1410.2 346.074 1406.81 Q342.272 1403.43 335.501 1403.43 Q328.679 1403.43 324.876 1406.81 Q321.126 1410.2 321.126 1416.24 Z" fill="#000000" fill-rule="evenodd" fill-opacity="1" /><path clip-path="url(#clip510)" d="M313.522 1274.34 L313.522 1264.76 Q317.481 1266.63 321.543 1267.62 Q325.606 1268.61 329.512 1268.61 Q339.928 1268.61 345.397 1261.63 Q350.918 1254.6 351.699 1240.33 Q348.678 1244.81 344.043 1247.21 Q339.408 1249.6 333.783 1249.6 Q322.116 1249.6 315.293 1242.57 Q308.522 1235.49 308.522 1223.25 Q308.522 1211.27 315.606 1204.03 Q322.689 1196.79 334.46 1196.79 Q347.949 1196.79 355.033 1207.15 Q362.168 1217.47 362.168 1237.15 Q362.168 1255.54 353.418 1266.53 Q344.72 1277.47 329.981 1277.47 Q326.022 1277.47 321.96 1276.69 Q317.897 1275.9 313.522 1274.34 M334.46 1241.37 Q341.543 1241.37 345.658 1236.53 Q349.824 1231.69 349.824 1223.25 Q349.824 1214.86 345.658 1210.02 Q341.543 1205.12 334.46 1205.12 Q327.376 1205.12 323.21 1210.02 Q319.095 1214.86 319.095 1223.25 Q319.095 1231.69 323.21 1236.53 Q327.376 1241.37 334.46 1241.37 Z" fill="#000000" fill-rule="evenodd" fill-opacity="1" /><path clip-path="url(#clip510)" d="M246.752 1068.8 L263.939 1068.8 L263.939 1009.47 L245.241 1013.22 L245.241 1003.64 L263.835 999.891 L274.356 999.891 L274.356 1068.8 L291.543 1068.8 L291.543 1077.65 L246.752 1077.65 L246.752 1068.8 Z" fill="#000000" fill-rule="evenodd" fill-opacity="1" /><path clip-path="url(#clip510)" d="M335.293 1006.82 Q327.168 1006.82 323.054 1014.84 Q318.991 1022.81 318.991 1038.85 Q318.991 1054.84 323.054 1062.86 Q327.168 1070.83 335.293 1070.83 Q343.47 1070.83 347.533 1062.86 Q351.647 1054.84 351.647 1038.85 Q351.647 1022.81 347.533 1014.84 Q343.47 1006.82 335.293 1006.82 M335.293 998.485 Q348.366 998.485 355.241 1008.85 Q362.168 1019.16 362.168 1038.85 Q362.168 1058.48 355.241 1068.85 Q348.366 1079.16 335.293 1079.16 Q322.22 1079.16 315.293 1068.85 Q308.418 1058.48 308.418 1038.85 Q308.418 1019.16 315.293 1008.85 Q322.22 998.485 335.293 998.485 Z" fill="#000000" fill-rule="evenodd" fill-opacity="1" /><path clip-path="url(#clip510)" d="M249.512 870.491 L266.7 870.491 L266.7 811.169 L248.002 814.919 L248.002 805.335 L266.596 801.585 L277.116 801.585 L277.116 870.491 L294.304 870.491 L294.304 879.345 L249.512 879.345 L249.512 870.491 Z" fill="#000000" fill-rule="evenodd" fill-opacity="1" /><path clip-path="url(#clip510)" d="M317.377 870.491 L334.564 870.491 L334.564 811.169 L315.866 814.919 L315.866 805.335 L334.46 801.585 L344.981 801.585 L344.981 870.491 L362.168 870.491 L362.168 879.345 L317.377 879.345 L317.377 870.491 Z" fill="#000000" fill-rule="evenodd" fill-opacity="1" /><path clip-path="url(#clip510)" d="M250.346 672.186 L267.533 672.186 L267.533 612.863 L248.835 616.613 L248.835 607.03 L267.429 603.28 L277.95 603.28 L277.95 672.186 L295.137 672.186 L295.137 681.04 L250.346 681.04 L250.346 672.186 Z" fill="#000000" fill-rule="evenodd" fill-opacity="1" /><path clip-path="url(#clip510)" d="M325.449 672.186 L362.168 672.186 L362.168 681.04 L312.793 681.04 L312.793 672.186 Q318.783 665.988 329.095 655.572 Q339.46 645.103 342.116 642.082 Q347.168 636.405 349.147 632.499 Q351.178 628.54 351.178 624.738 Q351.178 618.54 346.803 614.634 Q342.481 610.728 335.501 610.728 Q330.554 610.728 325.033 612.447 Q319.564 614.165 313.314 617.655 L313.314 607.03 Q319.668 604.478 325.189 603.176 Q330.71 601.874 335.293 601.874 Q347.376 601.874 354.564 607.916 Q361.751 613.957 361.751 624.061 Q361.751 628.853 359.928 633.176 Q358.158 637.447 353.418 643.28 Q352.116 644.79 345.137 652.03 Q338.158 659.217 325.449 672.186 Z" fill="#000000" fill-rule="evenodd" fill-opacity="1" /><path clip-path="url(#clip510)" d="M248.21 473.881 L265.398 473.881 L265.398 414.558 L246.7 418.308 L246.7 408.725 L265.293 404.975 L275.814 404.975 L275.814 473.881 L293.002 473.881 L293.002 482.735 L248.21 482.735 L248.21 473.881 Z" fill="#000000" fill-rule="evenodd" fill-opacity="1" /><path clip-path="url(#clip510)" d="M346.126 440.808 Q353.678 442.422 357.897 447.527 Q362.168 452.631 362.168 460.131 Q362.168 471.641 354.251 477.943 Q346.335 484.245 331.751 484.245 Q326.856 484.245 321.647 483.256 Q316.491 482.318 310.97 480.391 L310.97 470.235 Q315.345 472.787 320.554 474.089 Q325.762 475.391 331.439 475.391 Q341.335 475.391 346.491 471.485 Q351.699 467.579 351.699 460.131 Q351.699 453.256 346.856 449.402 Q342.064 445.495 333.47 445.495 L324.408 445.495 L324.408 436.85 L333.887 436.85 Q341.647 436.85 345.762 433.777 Q349.876 430.652 349.876 424.818 Q349.876 418.829 345.606 415.652 Q341.387 412.423 333.47 412.423 Q329.147 412.423 324.199 413.36 Q319.252 414.298 313.314 416.277 L313.314 406.902 Q319.304 405.235 324.512 404.402 Q329.772 403.569 334.408 403.569 Q346.387 403.569 353.366 409.037 Q360.345 414.454 360.345 423.725 Q360.345 430.183 356.647 434.662 Q352.949 439.089 346.126 440.808 Z" fill="#000000" fill-rule="evenodd" fill-opacity="1" /><path clip-path="url(#clip510)" d="M245.658 275.575 L262.846 275.575 L262.846 216.253 L244.148 220.003 L244.148 210.419 L262.741 206.669 L273.262 206.669 L273.262 275.575 L290.45 275.575 L290.45 284.429 L245.658 284.429 L245.658 275.575 Z" fill="#000000" fill-rule="evenodd" fill-opacity="1" /><path clip-path="url(#clip510)" d="M340.606 215.836 L314.043 257.346 L340.606 257.346 L340.606 215.836 M337.845 206.669 L351.074 206.669 L351.074 257.346 L362.168 257.346 L362.168 266.096 L351.074 266.096 L351.074 284.429 L340.606 284.429 L340.606 266.096 L305.502 266.096 L305.502 255.94 L337.845 206.669 Z" fill="#000000" fill-rule="evenodd" fill-opacity="1" /><path clip-path="url(#clip510)" d="M248.991 77.27 L266.179 77.27 L266.179 17.9474 L247.481 21.6974 L247.481 12.1141 L266.075 8.36409 L276.595 8.36409 L276.595 77.27 L293.783 77.27 L293.783 86.1241 L248.991 86.1241 L248.991 77.27 Z" fill="#000000" fill-rule="evenodd" fill-opacity="1" /><path clip-path="url(#clip510)" d="M315.137 8.36409 L356.439 8.36409 L356.439 17.2182 L324.772 17.2182 L324.772 36.2806 Q327.064 35.4994 329.356 35.1348 Q331.647 34.7181 333.939 34.7181 Q346.96 34.7181 354.564 41.8535 Q362.168 48.9889 362.168 61.1763 Q362.168 73.7283 354.355 80.7075 Q346.543 87.6345 332.324 87.6345 Q327.429 87.6345 322.324 86.8012 Q317.272 85.9678 311.856 84.3012 L311.856 73.7283 Q316.543 76.2804 321.543 77.5304 Q326.543 78.7804 332.116 78.7804 Q341.126 78.7804 346.387 74.0408 Q351.647 69.3013 351.647 61.1763 Q351.647 53.0514 346.387 48.3118 Q341.126 43.5722 332.116 43.5722 Q327.897 43.5722 323.679 44.5097 Q319.512 45.4472 315.137 47.4264 L315.137 8.36409 Z" fill="#000000" fill-rule="evenodd" fill-opacity="1" /><path clip-path="url(#clip510)" d="M92.7037 1503.03 Q93.6874 1503.03 96.0062 1503.66 L150.955 1517.44 Q163.182 1520.46 171.754 1530.29 Q180.327 1540.06 180.327 1551.16 Q180.327 1557.84 176.743 1562.13 Q173.23 1566.41 167.819 1566.41 Q163.041 1566.41 160.722 1563.88 Q158.474 1561.35 158.474 1558.33 Q158.474 1557.35 158.755 1556.29 Q159.036 1555.24 160.231 1554.12 Q161.425 1552.99 163.463 1552.99 Q166.765 1552.99 169.365 1555.87 Q170.56 1557.28 170.841 1558.61 Q171.122 1559.88 171.122 1562.06 Q173.089 1561.21 174.425 1559.67 Q175.76 1558.12 176.252 1556.36 Q176.814 1554.61 176.954 1553.48 Q177.165 1552.29 177.165 1551.16 Q177.165 1542.17 168.101 1535.28 Q165.36 1533.25 162.62 1531.77 Q159.949 1530.22 156.647 1529.1 Q153.415 1527.98 151.658 1527.48 Q149.901 1526.92 145.896 1525.94 Q152.431 1532.47 152.431 1540.48 Q152.431 1543.86 151.517 1546.88 Q150.604 1549.83 148.707 1552.43 Q146.739 1555.03 143.296 1556.57 Q139.853 1558.05 135.286 1558.05 Q130.437 1558.05 123.832 1556.15 Q117.227 1554.26 105.071 1549.69 Q98.2548 1547.23 94.9522 1547.23 Q93.3361 1547.23 92.3523 1547.58 Q91.2983 1547.93 90.947 1548.63 Q90.5254 1549.34 90.4551 1549.76 Q90.3848 1550.11 90.3848 1550.81 Q90.3848 1554.96 94.6009 1558.82 Q98.8169 1562.69 108.233 1565.36 Q109.989 1565.92 110.411 1566.27 Q110.833 1566.62 110.833 1567.68 Q110.762 1569.43 109.357 1569.43 Q108.795 1569.43 106.617 1568.8 Q104.368 1568.17 101.065 1566.69 Q97.6926 1565.15 94.6711 1563.04 Q91.5794 1560.93 89.4011 1557.63 Q87.2228 1554.26 87.2228 1550.39 Q87.2228 1545.12 90.6659 1541.89 Q94.0387 1538.59 99.0277 1538.59 Q101.065 1538.59 102.892 1539.15 Q104.649 1539.64 109.357 1541.47 Q128.329 1548.85 137.604 1548.85 Q139.853 1548.85 141.75 1548.49 Q143.577 1548.07 145.404 1547.16 Q147.161 1546.25 148.215 1544.42 Q149.199 1542.52 149.199 1539.92 Q149.199 1536.62 147.653 1533.53 Q146.037 1530.37 143.858 1528.4 Q141.68 1526.36 139.853 1525.17 Q137.956 1523.9 136.972 1523.62 L111.114 1517.15 L99.5898 1514.27 Q93.3361 1512.94 91.7902 1512.31 Q90.3146 1511.46 89.5416 1509.99 Q88.7687 1508.51 88.7687 1507.25 Q88.7687 1505.49 89.8227 1504.3 Q90.8767 1503.03 92.7037 1503.03 Z" fill="#000000" fill-rule="evenodd" fill-opacity="1" /><path clip-path="url(#clip512)" d="
M806.779 1237.08 L826.609 1266.82 L846.44 1296.57 L866.27 1326.31 L886.101 1356.06 L905.931 1385.81 L925.762 1415.55 L945.592 1445.3 L965.423 1475.04 L985.253 1504.79 
  L1005.08 1534.53 L1024.91 1564.28 L1044.75 1594.03 L1064.58 1623.77 L1084.41 1653.52 L1104.24 1683.26 L1124.07 1713.01 L1143.9 1742.75 L1163.73 1772.5 L1183.56 1802.25 
  L1203.39 1831.99 L1223.22 1861.74 L1243.05 1891.48 L1262.88 1921.23 L1282.71 1950.98 L1302.54 1980.72 L1322.37 2010.47 L1342.2 2040.21 L1362.03 2069.96 L1381.86 2099.7 
  L1401.69 2129.45 L1421.53 2159.2 L1441.36 2188.94 L1461.19 2218.69 L1481.02 2248.43 L1500.85 2278.18 L1520.68 2307.93 L1540.51 2337.67 L1560.34 2367.42 L1580.17 2397.16 
  L1600 2426.91 L1619.83 2416.99 L1639.66 2407.08 L1659.49 2397.16 L1679.32 2387.25 L1699.15 2377.33 L1718.98 2367.42 L1738.81 2357.5 L1758.64 2347.59 L1778.47 2337.67 
  L1798.31 2327.76 L1818.14 2317.84 L1837.97 2307.93 L1857.8 2298.01 L1877.63 2288.09 L1897.46 2278.18 L1917.29 2268.26 L1937.12 2258.35 L1956.95 2248.43 L1976.78 2238.52 
  L1996.61 2228.6 L2016.44 2218.69 L2036.27 2208.77 L2056.1 2198.86 L2075.93 2188.94 L2095.76 2179.03 L2115.59 2169.11 L2135.42 2159.2 L2155.25 2149.28 L2175.09 2139.37 
  L2194.92 2129.45 L2214.75 2119.53 L2234.58 2109.62 L2254.41 2099.7 L2274.24 2089.79 L2294.07 2079.87 L2313.9 2069.96 L2333.73 2060.04 L2353.56 2050.13 L2373.39 2040.21 
  L2393.22 2030.3 L2413.05 2020.38 L2432.88 2010.47 L2452.71 2000.55 L2472.54 1990.64 L2492.37 1980.72 L2512.2 1970.81 L2532.04 1960.89 L2532.04 1970.81 L2512.2 1950.98 
  L2492.37 1931.14 L2472.54 1911.31 L2452.71 1891.48 L2432.88 1871.65 L2413.05 1851.82 L2393.22 1831.99 L2373.39 1812.16 L2353.56 1792.33 L2333.73 1772.5 L2313.9 1752.67 
  L2294.07 1732.84 L2274.24 1713.01 L2254.41 1693.18 L2234.58 1673.35 L2214.75 1653.52 L2194.92 1633.69 L2175.09 1613.86 L2155.25 1594.03 L2135.42 1574.2 L2115.59 1554.36 
  L2095.76 1534.53 L2075.93 1514.7 L2056.1 1494.87 L2036.27 1475.04 L2016.44 1455.21 L1996.61 1435.38 L1976.78 1415.55 L1956.95 1395.72 L1937.12 1375.89 L1917.29 1356.06 
  L1897.46 1336.23 L1877.63 1316.4 L1857.8 1296.57 L1837.97 1276.74 L1818.14 1256.91 L1798.31 1237.08 L1778.47 1217.25 L1758.64 1197.42 L1738.81 1177.58 L1718.98 1157.75 
  L1699.15 1137.92 L1679.32 1118.09 L1659.49 1098.26 L1639.66 1078.43 L1619.83 1058.6 L1600 1038.77 L1580.17 1018.94 L1560.34 999.11 L1540.51 979.279 L1520.68 959.449 
  L1500.85 939.618 L1481.02 919.788 L1461.19 899.957 L1441.36 880.127 L1421.53 860.296 L1401.69 840.465 L1381.86 820.635 L1362.03 800.804 L1342.2 780.974 L1322.37 761.143 
  L1302.54 741.313 L1282.71 721.482 L1262.88 701.652 L1243.05 681.821 L1223.22 661.991 L1203.39 642.16 L1183.56 622.33 L1163.73 602.499 L1143.9 582.669 L1124.07 562.838 
  L1104.24 543.007 L1084.41 523.177 L1064.58 503.346 L1044.75 483.516 L1024.91 463.685 L1005.08 443.855 L985.253 433.94 L965.423 523.177 L945.592 612.414 L925.762 701.652 
  L905.931 790.889 L886.101 880.127 L866.27 969.364 L846.44 1058.6 L826.609 1147.84 L806.779 1237.08  Z
  " fill="#add8e6" fill-rule="evenodd" fill-opacity="1"/>
<polyline clip-path="url(#clip512)" style="stroke:#add8e6; stroke-linecap:round; stroke-linejoin:round; stroke-width:4; stroke-opacity:1; fill:none" points="
  806.779,1237.08 826.609,1266.82 846.44,1296.57 866.27,1326.31 886.101,1356.06 905.931,1385.81 925.762,1415.55 945.592,1445.3 965.423,1475.04 985.253,1504.79 
  1005.08,1534.53 1024.91,1564.28 1044.75,1594.03 1064.58,1623.77 1084.41,1653.52 1104.24,1683.26 1124.07,1713.01 1143.9,1742.75 1163.73,1772.5 1183.56,1802.25 
  1203.39,1831.99 1223.22,1861.74 1243.05,1891.48 1262.88,1921.23 1282.71,1950.98 1302.54,1980.72 1322.37,2010.47 1342.2,2040.21 1362.03,2069.96 1381.86,2099.7 
  1401.69,2129.45 1421.53,2159.2 1441.36,2188.94 1461.19,2218.69 1481.02,2248.43 1500.85,2278.18 1520.68,2307.93 1540.51,2337.67 1560.34,2367.42 1580.17,2397.16 
  1600,2426.91 1619.83,2416.99 1639.66,2407.08 1659.49,2397.16 1679.32,2387.25 1699.15,2377.33 1718.98,2367.42 1738.81,2357.5 1758.64,2347.59 1778.47,2337.67 
  1798.31,2327.76 1818.14,2317.84 1837.97,2307.93 1857.8,2298.01 1877.63,2288.09 1897.46,2278.18 1917.29,2268.26 1937.12,2258.35 1956.95,2248.43 1976.78,2238.52 
  1996.61,2228.6 2016.44,2218.69 2036.27,2208.77 2056.1,2198.86 2075.93,2188.94 2095.76,2179.03 2115.59,2169.11 2135.42,2159.2 2155.25,2149.28 2175.09,2139.37 
  2194.92,2129.45 2214.75,2119.53 2234.58,2109.62 2254.41,2099.7 2274.24,2089.79 2294.07,2079.87 2313.9,2069.96 2333.73,2060.04 2353.56,2050.13 2373.39,2040.21 
  2393.22,2030.3 2413.05,2020.38 2432.88,2010.47 2452.71,2000.55 2472.54,1990.64 2492.37,1980.72 2512.2,1970.81 2532.04,1960.89 
  "/>
<polyline clip-path="url(#clip512)" style="stroke:#008000; stroke-linecap:round; stroke-linejoin:round; stroke-width:12; stroke-opacity:1; fill:none" points="
  13.5572,4806.57 33.3878,4717.33 53.2183,4628.1 73.0489,4538.86 92.8794,4449.62 112.71,4360.39 132.54,4271.15 152.371,4181.91 172.202,4092.67 192.032,4003.44 
  211.863,3914.2 231.693,3824.96 251.524,3735.72 271.354,3646.49 291.185,3557.25 311.015,3468.01 330.846,3378.77 350.676,3289.54 370.507,3200.3 390.337,3111.06 
  410.168,3021.82 429.998,2932.59 449.829,2843.35 469.66,2754.11 489.49,2664.87 509.321,2575.64 529.151,2486.4 548.982,2397.16 568.812,2307.93 588.643,2218.69 
  608.473,2129.45 628.304,2040.21 648.134,1950.98 667.965,1861.74 687.795,1772.5 707.626,1683.26 727.456,1594.03 747.287,1504.79 767.118,1415.55 786.948,1326.31 
  806.779,1237.08 826.609,1147.84 846.44,1058.6 866.27,969.364 886.101,880.127 905.931,790.889 925.762,701.652 945.592,612.414 965.423,523.177 985.253,433.94 
  1005.08,344.702 1024.91,255.465 1044.75,166.227 1064.58,76.9899 1084.41,-12.2475 1104.24,-101.485 1124.07,-190.722 1143.9,-279.96 1163.73,-369.197 1183.56,-458.435 
  1203.39,-547.672 1223.22,-636.909 1243.05,-726.147 1262.88,-815.384 1282.71,-904.622 1302.54,-993.859 1322.37,-1083.1 1342.2,-1172.33 1362.03,-1261.57 1381.86,-1350.81 
  1401.69,-1440.05 1421.53,-1529.28 1441.36,-1618.52 1461.19,-1707.76 1481.02,-1797 1500.85,-1886.23 1520.68,-1975.47 1540.51,-2064.71 1560.34,-2153.95 1580.17,-2243.18 
  1600,-2332.42 1619.83,-2421.66 1639.66,-2510.89 1659.49,-2600.13 1679.32,-2689.37 1699.15,-2778.61 1718.98,-2867.84 1738.81,-2957.08 1758.64,-3046.32 1778.47,-3135.56 
  1798.31,-3224.79 1818.14,-3314.03 1837.97,-3403.27 1857.8,-3492.51 1877.63,-3581.74 1897.46,-3670.98 1917.29,-3760.22 1937.12,-3849.46 1956.95,-3938.69 1976.78,-4027.93 
  1996.61,-4117.17 2016.44,-4206.41 2036.27,-4295.64 2056.1,-4384.88 2075.93,-4474.12 2095.76,-4563.36 2115.59,-4652.59 2135.42,-4741.83 2155.25,-4831.07 2175.09,-4920.3 
  2194.92,-5009.54 2214.75,-5098.78 2234.58,-5188.02 2254.41,-5277.25 2274.24,-5366.49 2294.07,-5455.73 2313.9,-5544.97 2333.73,-5634.2 2353.56,-5723.44 2373.39,-5812.68 
  2393.22,-5901.92 2413.05,-5991.15 2432.88,-6080.39 2452.71,-6169.63 2472.54,-6258.87 2492.37,-6348.1 2512.2,-6437.34 2532.04,-6526.58 2551.87,-6615.82 2571.7,-6705.05 
  2591.53,-6794.29 2611.36,-6883.53 2631.19,-6972.77 2651.02,-7062 2670.85,-7151.24 2690.68,-7240.48 2710.51,-7329.71 2730.34,-7418.95 2750.17,-7508.19 2770,-7597.43 
  2789.83,-7686.66 2809.66,-7775.9 2829.49,-7865.14 2849.32,-7954.38 2869.15,-8043.61 2888.98,-8132.85 2908.82,-8222.09 2928.65,-8311.33 2948.48,-8400.56 2968.31,-8489.8 
  2988.14,-8579.04 3007.97,-8668.28 3027.8,-8757.51 3047.63,-8846.75 3067.46,-8935.99 3087.29,-9025.23 3107.12,-9114.46 3126.95,-9203.7 3146.78,-9292.94 3166.61,-9382.18 
  3186.44,-9471.41 3206.27,-9560.65 3226.1,-9649.89 3245.93,-9739.12 3265.76,-9828.36 3285.6,-9917.6 3305.43,-10006.8 3325.26,-10096.1 3345.09,-10185.3 3364.92,-10274.5 
  3384.75,-10363.8 3404.58,-10453 3424.41,-10542.3 3444.24,-10631.5 3464.07,-10720.7 3483.9,-10810 3503.73,-10899.2 3523.56,-10988.4 3543.39,-11077.7 3563.22,-11166.9 
  3583.05,-11256.2 3602.88,-11345.4 3622.71,-11434.6 3642.55,-11523.9 3662.38,-11613.1 3682.21,-11702.3 3702.04,-11791.6 3721.87,-11880.8 3741.7,-11970.1 3761.53,-12059.3 
  3781.36,-12148.5 3801.19,-12237.8 3821.02,-12327 3840.85,-12416.2 3860.68,-12505.5 3880.51,-12594.7 3900.34,-12684 3920.17,-12773.2 3940,-12862.4 3959.83,-12951.7 
  3979.66,-13040.9 3999.49,-13130.1 4019.33,-13219.4 4039.16,-13308.6 4058.99,-13397.9 4078.82,-13487.1 4098.65,-13576.3 4118.48,-13665.6 4138.31,-13754.8 4158.14,-13844 
  4177.97,-13933.3 4197.8,-14022.5 4217.63,-14111.8 4237.46,-14201 4257.29,-14290.2 4277.12,-14379.5 4296.95,-14468.7 4316.78,-14557.9 4336.61,-14647.2 4356.44,-14736.4 
  4376.27,-14825.7 
  "/>
<polyline clip-path="url(#clip512)" style="stroke:#ff0000; stroke-linecap:round; stroke-linejoin:round; stroke-width:12; stroke-opacity:1; fill:none" points="
  13.5572,-547.672 33.3878,-527.841 53.2183,-508.011 73.0489,-488.18 92.8794,-468.35 112.71,-448.519 132.54,-428.689 152.371,-408.858 172.202,-389.028 192.032,-369.197 
  211.863,-349.367 231.693,-329.536 251.524,-309.706 271.354,-289.875 291.185,-270.044 311.015,-250.214 330.846,-230.383 350.676,-210.553 370.507,-190.722 390.337,-170.892 
  410.168,-151.061 429.998,-131.231 449.829,-111.4 469.66,-91.5696 489.49,-71.7391 509.321,-51.9086 529.151,-32.078 548.982,-12.2475 568.812,7.58303 588.643,27.4136 
  608.473,47.2441 628.304,67.0746 648.134,86.9052 667.965,106.736 687.795,126.566 707.626,146.397 727.456,166.227 747.287,186.058 767.118,205.888 786.948,225.719 
  806.779,245.549 826.609,265.38 846.44,285.211 866.27,305.041 886.101,324.872 905.931,344.702 925.762,364.533 945.592,384.363 965.423,404.194 985.253,424.024 
  1005.08,443.855 1024.91,463.685 1044.75,483.516 1064.58,503.346 1084.41,523.177 1104.24,543.007 1124.07,562.838 1143.9,582.669 1163.73,602.499 1183.56,622.33 
  1203.39,642.16 1223.22,661.991 1243.05,681.821 1262.88,701.652 1282.71,721.482 1302.54,741.313 1322.37,761.143 1342.2,780.974 1362.03,800.804 1381.86,820.635 
  1401.69,840.465 1421.53,860.296 1441.36,880.127 1461.19,899.957 1481.02,919.788 1500.85,939.618 1520.68,959.449 1540.51,979.279 1560.34,999.11 1580.17,1018.94 
  1600,1038.77 1619.83,1058.6 1639.66,1078.43 1659.49,1098.26 1679.32,1118.09 1699.15,1137.92 1718.98,1157.75 1738.81,1177.58 1758.64,1197.42 1778.47,1217.25 
  1798.31,1237.08 1818.14,1256.91 1837.97,1276.74 1857.8,1296.57 1877.63,1316.4 1897.46,1336.23 1917.29,1356.06 1937.12,1375.89 1956.95,1395.72 1976.78,1415.55 
  1996.61,1435.38 2016.44,1455.21 2036.27,1475.04 2056.1,1494.87 2075.93,1514.7 2095.76,1534.53 2115.59,1554.36 2135.42,1574.2 2155.25,1594.03 2175.09,1613.86 
  2194.92,1633.69 2214.75,1653.52 2234.58,1673.35 2254.41,1693.18 2274.24,1713.01 2294.07,1732.84 2313.9,1752.67 2333.73,1772.5 2353.56,1792.33 2373.39,1812.16 
  2393.22,1831.99 2413.05,1851.82 2432.88,1871.65 2452.71,1891.48 2472.54,1911.31 2492.37,1931.14 2512.2,1950.98 2532.04,1970.81 2551.87,1990.64 2571.7,2010.47 
  2591.53,2030.3 2611.36,2050.13 2631.19,2069.96 2651.02,2089.79 2670.85,2109.62 2690.68,2129.45 2710.51,2149.28 2730.34,2169.11 2750.17,2188.94 2770,2208.77 
  2789.83,2228.6 2809.66,2248.43 2829.49,2268.26 2849.32,2288.09 2869.15,2307.93 2888.98,2327.76 2908.82,2347.59 2928.65,2367.42 2948.48,2387.25 2968.31,2407.08 
  2988.14,2426.91 3007.97,2446.74 3027.8,2466.57 3047.63,2486.4 3067.46,2506.23 3087.29,2526.06 3107.12,2545.89 3126.95,2565.72 3146.78,2585.55 3166.61,2605.38 
  3186.44,2625.21 3206.27,2645.04 3226.1,2664.87 3245.93,2684.71 3265.76,2704.54 3285.6,2724.37 3305.43,2744.2 3325.26,2764.03 3345.09,2783.86 3364.92,2803.69 
  3384.75,2823.52 3404.58,2843.35 3424.41,2863.18 3444.24,2883.01 3464.07,2902.84 3483.9,2922.67 3503.73,2942.5 3523.56,2962.33 3543.39,2982.16 3563.22,3001.99 
  3583.05,3021.82 3602.88,3041.65 3622.71,3061.49 3642.55,3081.32 3662.38,3101.15 3682.21,3120.98 3702.04,3140.81 3721.87,3160.64 3741.7,3180.47 3761.53,3200.3 
  3781.36,3220.13 3801.19,3239.96 3821.02,3259.79 3840.85,3279.62 3860.68,3299.45 3880.51,3319.28 3900.34,3339.11 3920.17,3358.94 3940,3378.77 3959.83,3398.6 
  3979.66,3418.43 3999.49,3438.27 4019.33,3458.1 4039.16,3477.93 4058.99,3497.76 4078.82,3517.59 4098.65,3537.42 4118.48,3557.25 4138.31,3577.08 4158.14,3596.91 
  4177.97,3616.74 4197.8,3636.57 4217.63,3656.4 4237.46,3676.23 4257.29,3696.06 4277.12,3715.89 4296.95,3735.72 4316.78,3755.55 4336.61,3775.38 4356.44,3795.22 
  4376.27,3815.05 
  "/>
<polyline clip-path="url(#clip512)" style="stroke:#a52a2a; stroke-linecap:round; stroke-linejoin:round; stroke-width:12; stroke-opacity:1; fill:none" points="
  13.5572,47.2441 33.3878,76.9899 53.2183,106.736 73.0489,136.481 92.8794,166.227 112.71,195.973 132.54,225.719 152.371,255.465 172.202,285.211 192.032,314.956 
  211.863,344.702 231.693,374.448 251.524,404.194 271.354,433.94 291.185,463.685 311.015,493.431 330.846,523.177 350.676,552.923 370.507,582.669 390.337,612.414 
  410.168,642.16 429.998,671.906 449.829,701.652 469.66,731.398 489.49,761.143 509.321,790.889 529.151,820.635 548.982,850.381 568.812,880.127 588.643,909.872 
  608.473,939.618 628.304,969.364 648.134,999.11 667.965,1028.86 687.795,1058.6 707.626,1088.35 727.456,1118.09 747.287,1147.84 767.118,1177.58 786.948,1207.33 
  806.779,1237.08 826.609,1266.82 846.44,1296.57 866.27,1326.31 886.101,1356.06 905.931,1385.81 925.762,1415.55 945.592,1445.3 965.423,1475.04 985.253,1504.79 
  1005.08,1534.53 1024.91,1564.28 1044.75,1594.03 1064.58,1623.77 1084.41,1653.52 1104.24,1683.26 1124.07,1713.01 1143.9,1742.75 1163.73,1772.5 1183.56,1802.25 
  1203.39,1831.99 1223.22,1861.74 1243.05,1891.48 1262.88,1921.23 1282.71,1950.98 1302.54,1980.72 1322.37,2010.47 1342.2,2040.21 1362.03,2069.96 1381.86,2099.7 
  1401.69,2129.45 1421.53,2159.2 1441.36,2188.94 1461.19,2218.69 1481.02,2248.43 1500.85,2278.18 1520.68,2307.93 1540.51,2337.67 1560.34,2367.42 1580.17,2397.16 
  1600,2426.91 1619.83,2456.65 1639.66,2486.4 1659.49,2516.15 1679.32,2545.89 1699.15,2575.64 1718.98,2605.38 1738.81,2635.13 1758.64,2664.87 1778.47,2694.62 
  1798.31,2724.37 1818.14,2754.11 1837.97,2783.86 1857.8,2813.6 1877.63,2843.35 1897.46,2873.1 1917.29,2902.84 1937.12,2932.59 1956.95,2962.33 1976.78,2992.08 
  1996.61,3021.82 2016.44,3051.57 2036.27,3081.32 2056.1,3111.06 2075.93,3140.81 2095.76,3170.55 2115.59,3200.3 2135.42,3230.04 2155.25,3259.79 2175.09,3289.54 
  2194.92,3319.28 2214.75,3349.03 2234.58,3378.77 2254.41,3408.52 2274.24,3438.27 2294.07,3468.01 2313.9,3497.76 2333.73,3527.5 2353.56,3557.25 2373.39,3586.99 
  2393.22,3616.74 2413.05,3646.49 2432.88,3676.23 2452.71,3705.98 2472.54,3735.72 2492.37,3765.47 2512.2,3795.22 2532.04,3824.96 2551.87,3854.71 2571.7,3884.45 
  2591.53,3914.2 2611.36,3943.94 2631.19,3973.69 2651.02,4003.44 2670.85,4033.18 2690.68,4062.93 2710.51,4092.67 2730.34,4122.42 2750.17,4152.16 2770,4181.91 
  2789.83,4211.66 2809.66,4241.4 2829.49,4271.15 2849.32,4300.89 2869.15,4330.64 2888.98,4360.39 2908.82,4390.13 2928.65,4419.88 2948.48,4449.62 2968.31,4479.37 
  2988.14,4509.11 3007.97,4538.86 3027.8,4568.61 3047.63,4598.35 3067.46,4628.1 3087.29,4657.84 3107.12,4687.59 3126.95,4717.33 3146.78,4747.08 3166.61,4776.83 
  3186.44,4806.57 3206.27,4836.32 3226.1,4866.06 3245.93,4895.81 3265.76,4925.56 3285.6,4955.3 3305.43,4985.05 3325.26,5014.79 3345.09,5044.54 3364.92,5074.28 
  3384.75,5104.03 3404.58,5133.78 3424.41,5163.52 3444.24,5193.27 3464.07,5223.01 3483.9,5252.76 3503.73,5282.51 3523.56,5312.25 3543.39,5342 3563.22,5371.74 
  3583.05,5401.49 3602.88,5431.23 3622.71,5460.98 3642.55,5490.73 3662.38,5520.47 3682.21,5550.22 3702.04,5579.96 3721.87,5609.71 3741.7,5639.45 3761.53,5669.2 
  3781.36,5698.95 3801.19,5728.69 3821.02,5758.44 3840.85,5788.18 3860.68,5817.93 3880.51,5847.68 3900.34,5877.42 3920.17,5907.17 3940,5936.91 3959.83,5966.66 
  3979.66,5996.4 3999.49,6026.15 4019.33,6055.9 4039.16,6085.64 4058.99,6115.39 4078.82,6145.13 4098.65,6174.88 4118.48,6204.63 4138.31,6234.37 4158.14,6264.12 
  4177.97,6293.86 4197.8,6323.61 4217.63,6353.35 4237.46,6383.1 4257.29,6412.85 4277.12,6442.59 4296.95,6472.34 4316.78,6502.08 4336.61,6531.83 4356.44,6561.57 
  4376.27,6591.32 
  "/>
<polyline clip-path="url(#clip512)" style="stroke:#800080; stroke-linecap:round; stroke-linejoin:round; stroke-width:12; stroke-opacity:1; fill:none" points="
  13.5572,3220.13 33.3878,3210.21 53.2183,3200.3 73.0489,3190.38 92.8794,3180.47 112.71,3170.55 132.54,3160.64 152.371,3150.72 172.202,3140.81 192.032,3130.89 
  211.863,3120.98 231.693,3111.06 251.524,3101.15 271.354,3091.23 291.185,3081.32 311.015,3071.4 330.846,3061.49 350.676,3051.57 370.507,3041.65 390.337,3031.74 
  410.168,3021.82 429.998,3011.91 449.829,3001.99 469.66,2992.08 489.49,2982.16 509.321,2972.25 529.151,2962.33 548.982,2952.42 568.812,2942.5 588.643,2932.59 
  608.473,2922.67 628.304,2912.76 648.134,2902.84 667.965,2892.93 687.795,2883.01 707.626,2873.1 727.456,2863.18 747.287,2853.26 767.118,2843.35 786.948,2833.43 
  806.779,2823.52 826.609,2813.6 846.44,2803.69 866.27,2793.77 886.101,2783.86 905.931,2773.94 925.762,2764.03 945.592,2754.11 965.423,2744.2 985.253,2734.28 
  1005.08,2724.37 1024.91,2714.45 1044.75,2704.54 1064.58,2694.62 1084.41,2684.71 1104.24,2674.79 1124.07,2664.87 1143.9,2654.96 1163.73,2645.04 1183.56,2635.13 
  1203.39,2625.21 1223.22,2615.3 1243.05,2605.38 1262.88,2595.47 1282.71,2585.55 1302.54,2575.64 1322.37,2565.72 1342.2,2555.81 1362.03,2545.89 1381.86,2535.98 
  1401.69,2526.06 1421.53,2516.15 1441.36,2506.23 1461.19,2496.32 1481.02,2486.4 1500.85,2476.48 1520.68,2466.57 1540.51,2456.65 1560.34,2446.74 1580.17,2436.82 
  1600,2426.91 1619.83,2416.99 1639.66,2407.08 1659.49,2397.16 1679.32,2387.25 1699.15,2377.33 1718.98,2367.42 1738.81,2357.5 1758.64,2347.59 1778.47,2337.67 
  1798.31,2327.76 1818.14,2317.84 1837.97,2307.93 1857.8,2298.01 1877.63,2288.09 1897.46,2278.18 1917.29,2268.26 1937.12,2258.35 1956.95,2248.43 1976.78,2238.52 
  1996.61,2228.6 2016.44,2218.69 2036.27,2208.77 2056.1,2198.86 2075.93,2188.94 2095.76,2179.03 2115.59,2169.11 2135.42,2159.2 2155.25,2149.28 2175.09,2139.37 
  2194.92,2129.45 2214.75,2119.53 2234.58,2109.62 2254.41,2099.7 2274.24,2089.79 2294.07,2079.87 2313.9,2069.96 2333.73,2060.04 2353.56,2050.13 2373.39,2040.21 
  2393.22,2030.3 2413.05,2020.38 2432.88,2010.47 2452.71,2000.55 2472.54,1990.64 2492.37,1980.72 2512.2,1970.81 2532.04,1960.89 2551.87,1950.98 2571.7,1941.06 
  2591.53,1931.14 2611.36,1921.23 2631.19,1911.31 2651.02,1901.4 2670.85,1891.48 2690.68,1881.57 2710.51,1871.65 2730.34,1861.74 2750.17,1851.82 2770,1841.91 
  2789.83,1831.99 2809.66,1822.08 2829.49,1812.16 2849.32,1802.25 2869.15,1792.33 2888.98,1782.42 2908.82,1772.5 2928.65,1762.59 2948.48,1752.67 2968.31,1742.75 
  2988.14,1732.84 3007.97,1722.92 3027.8,1713.01 3047.63,1703.09 3067.46,1693.18 3087.29,1683.26 3107.12,1673.35 3126.95,1663.43 3146.78,1653.52 3166.61,1643.6 
  3186.44,1633.69 3206.27,1623.77 3226.1,1613.86 3245.93,1603.94 3265.76,1594.03 3285.6,1584.11 3305.43,1574.2 3325.26,1564.28 3345.09,1554.36 3364.92,1544.45 
  3384.75,1534.53 3404.58,1524.62 3424.41,1514.7 3444.24,1504.79 3464.07,1494.87 3483.9,1484.96 3503.73,1475.04 3523.56,1465.13 3543.39,1455.21 3563.22,1445.3 
  3583.05,1435.38 3602.88,1425.47 3622.71,1415.55 3642.55,1405.64 3662.38,1395.72 3682.21,1385.81 3702.04,1375.89 3721.87,1365.97 3741.7,1356.06 3761.53,1346.14 
  3781.36,1336.23 3801.19,1326.31 3821.02,1316.4 3840.85,1306.48 3860.68,1296.57 3880.51,1286.65 3900.34,1276.74 3920.17,1266.82 3940,1256.91 3959.83,1246.99 
  3979.66,1237.08 3999.49,1227.16 4019.33,1217.25 4039.16,1207.33 4058.99,1197.42 4078.82,1187.5 4098.65,1177.58 4118.48,1167.67 4138.31,1157.75 4158.14,1147.84 
  4177.97,1137.92 4197.8,1128.01 4217.63,1118.09 4237.46,1108.18 4257.29,1098.26 4277.12,1088.35 4296.95,1078.43 4316.78,1068.52 4336.61,1058.6 4356.44,1048.69 
  4376.27,1038.77 
  "/>
<circle clip-path="url(#clip512)" cx="806.779" cy="2426.91" r="10.8" fill="#000000" fill-rule="evenodd" fill-opacity="1" stroke="none"/>
<circle clip-path="url(#clip512)" cx="1005.08" cy="2426.91" r="10.8" fill="#000000" fill-rule="evenodd" fill-opacity="1" stroke="none"/>
<circle clip-path="url(#clip512)" cx="1203.39" cy="2426.91" r="10.8" fill="#000000" fill-rule="evenodd" fill-opacity="1" stroke="none"/>
<circle clip-path="url(#clip512)" cx="1401.69" cy="2426.91" r="10.8" fill="#000000" fill-rule="evenodd" fill-opacity="1" stroke="none"/>
<circle clip-path="url(#clip512)" cx="1600" cy="2426.91" r="10.8" fill="#000000" fill-rule="evenodd" fill-opacity="1" stroke="none"/>
<circle clip-path="url(#clip512)" cx="1798.31" cy="2426.91" r="10.8" fill="#000000" fill-rule="evenodd" fill-opacity="1" stroke="none"/>
<circle clip-path="url(#clip512)" cx="1996.61" cy="2426.91" r="10.8" fill="#000000" fill-rule="evenodd" fill-opacity="1" stroke="none"/>
<circle clip-path="url(#clip512)" cx="2194.92" cy="2426.91" r="10.8" fill="#000000" fill-rule="evenodd" fill-opacity="1" stroke="none"/>
<circle clip-path="url(#clip512)" cx="2393.22" cy="2426.91" r="10.8" fill="#000000" fill-rule="evenodd" fill-opacity="1" stroke="none"/>
<circle clip-path="url(#clip512)" cx="806.779" cy="2228.6" r="10.8" fill="#000000" fill-rule="evenodd" fill-opacity="1" stroke="none"/>
<circle clip-path="url(#clip512)" cx="1005.08" cy="2228.6" r="10.8" fill="#000000" fill-rule="evenodd" fill-opacity="1" stroke="none"/>
<circle clip-path="url(#clip512)" cx="1203.39" cy="2228.6" r="10.8" fill="#000000" fill-rule="evenodd" fill-opacity="1" stroke="none"/>
<circle clip-path="url(#clip512)" cx="1401.69" cy="2228.6" r="10.8" fill="#000000" fill-rule="evenodd" fill-opacity="1" stroke="none"/>
<circle clip-path="url(#clip512)" cx="1600" cy="2228.6" r="10.8" fill="#000000" fill-rule="evenodd" fill-opacity="1" stroke="none"/>
<circle clip-path="url(#clip512)" cx="1798.31" cy="2228.6" r="10.8" fill="#000000" fill-rule="evenodd" fill-opacity="1" stroke="none"/>
<circle clip-path="url(#clip512)" cx="1996.61" cy="2228.6" r="10.8" fill="#000000" fill-rule="evenodd" fill-opacity="1" stroke="none"/>
<circle clip-path="url(#clip512)" cx="2194.92" cy="2228.6" r="10.8" fill="#000000" fill-rule="evenodd" fill-opacity="1" stroke="none"/>
<circle clip-path="url(#clip512)" cx="2393.22" cy="2228.6" r="10.8" fill="#000000" fill-rule="evenodd" fill-opacity="1" stroke="none"/>
<circle clip-path="url(#clip512)" cx="806.779" cy="2030.3" r="10.8" fill="#000000" fill-rule="evenodd" fill-opacity="1" stroke="none"/>
<circle clip-path="url(#clip512)" cx="1005.08" cy="2030.3" r="10.8" fill="#000000" fill-rule="evenodd" fill-opacity="1" stroke="none"/>
<circle clip-path="url(#clip512)" cx="1203.39" cy="2030.3" r="10.8" fill="#000000" fill-rule="evenodd" fill-opacity="1" stroke="none"/>
<circle clip-path="url(#clip512)" cx="1401.69" cy="2030.3" r="10.8" fill="#000000" fill-rule="evenodd" fill-opacity="1" stroke="none"/>
<circle clip-path="url(#clip512)" cx="1600" cy="2030.3" r="10.8" fill="#000000" fill-rule="evenodd" fill-opacity="1" stroke="none"/>
<circle clip-path="url(#clip512)" cx="1798.31" cy="2030.3" r="10.8" fill="#000000" fill-rule="evenodd" fill-opacity="1" stroke="none"/>
<circle clip-path="url(#clip512)" cx="1996.61" cy="2030.3" r="10.8" fill="#000000" fill-rule="evenodd" fill-opacity="1" stroke="none"/>
<circle clip-path="url(#clip512)" cx="2194.92" cy="2030.3" r="10.8" fill="#000000" fill-rule="evenodd" fill-opacity="1" stroke="none"/>
<circle clip-path="url(#clip512)" cx="2393.22" cy="2030.3" r="10.8" fill="#000000" fill-rule="evenodd" fill-opacity="1" stroke="none"/>
<circle clip-path="url(#clip512)" cx="806.779" cy="1831.99" r="10.8" fill="#000000" fill-rule="evenodd" fill-opacity="1" stroke="none"/>
<circle clip-path="url(#clip512)" cx="1005.08" cy="1831.99" r="10.8" fill="#000000" fill-rule="evenodd" fill-opacity="1" stroke="none"/>
<circle clip-path="url(#clip512)" cx="1203.39" cy="1831.99" r="10.8" fill="#000000" fill-rule="evenodd" fill-opacity="1" stroke="none"/>
<circle clip-path="url(#clip512)" cx="1401.69" cy="1831.99" r="10.8" fill="#000000" fill-rule="evenodd" fill-opacity="1" stroke="none"/>
<circle clip-path="url(#clip512)" cx="1600" cy="1831.99" r="10.8" fill="#000000" fill-rule="evenodd" fill-opacity="1" stroke="none"/>
<circle clip-path="url(#clip512)" cx="1798.31" cy="1831.99" r="10.8" fill="#000000" fill-rule="evenodd" fill-opacity="1" stroke="none"/>
<circle clip-path="url(#clip512)" cx="1996.61" cy="1831.99" r="10.8" fill="#000000" fill-rule="evenodd" fill-opacity="1" stroke="none"/>
<circle clip-path="url(#clip512)" cx="2194.92" cy="1831.99" r="10.8" fill="#000000" fill-rule="evenodd" fill-opacity="1" stroke="none"/>
<circle clip-path="url(#clip512)" cx="2393.22" cy="1831.99" r="10.8" fill="#000000" fill-rule="evenodd" fill-opacity="1" stroke="none"/>
<circle clip-path="url(#clip512)" cx="806.779" cy="1633.69" r="10.8" fill="#000000" fill-rule="evenodd" fill-opacity="1" stroke="none"/>
<circle clip-path="url(#clip512)" cx="1005.08" cy="1633.69" r="10.8" fill="#000000" fill-rule="evenodd" fill-opacity="1" stroke="none"/>
<circle clip-path="url(#clip512)" cx="1203.39" cy="1633.69" r="10.8" fill="#000000" fill-rule="evenodd" fill-opacity="1" stroke="none"/>
<circle clip-path="url(#clip512)" cx="1401.69" cy="1633.69" r="10.8" fill="#000000" fill-rule="evenodd" fill-opacity="1" stroke="none"/>
<circle clip-path="url(#clip512)" cx="1600" cy="1633.69" r="10.8" fill="#000000" fill-rule="evenodd" fill-opacity="1" stroke="none"/>
<circle clip-path="url(#clip512)" cx="1798.31" cy="1633.69" r="10.8" fill="#000000" fill-rule="evenodd" fill-opacity="1" stroke="none"/>
<circle clip-path="url(#clip512)" cx="1996.61" cy="1633.69" r="10.8" fill="#000000" fill-rule="evenodd" fill-opacity="1" stroke="none"/>
<circle clip-path="url(#clip512)" cx="2194.92" cy="1633.69" r="10.8" fill="#000000" fill-rule="evenodd" fill-opacity="1" stroke="none"/>
<circle clip-path="url(#clip512)" cx="2393.22" cy="1633.69" r="10.8" fill="#000000" fill-rule="evenodd" fill-opacity="1" stroke="none"/>
<circle clip-path="url(#clip512)" cx="806.779" cy="1435.38" r="10.8" fill="#000000" fill-rule="evenodd" fill-opacity="1" stroke="none"/>
<circle clip-path="url(#clip512)" cx="1005.08" cy="1435.38" r="10.8" fill="#000000" fill-rule="evenodd" fill-opacity="1" stroke="none"/>
<circle clip-path="url(#clip512)" cx="1203.39" cy="1435.38" r="10.8" fill="#000000" fill-rule="evenodd" fill-opacity="1" stroke="none"/>
<circle clip-path="url(#clip512)" cx="1401.69" cy="1435.38" r="10.8" fill="#000000" fill-rule="evenodd" fill-opacity="1" stroke="none"/>
<circle clip-path="url(#clip512)" cx="1600" cy="1435.38" r="10.8" fill="#000000" fill-rule="evenodd" fill-opacity="1" stroke="none"/>
<circle clip-path="url(#clip512)" cx="1798.31" cy="1435.38" r="10.8" fill="#000000" fill-rule="evenodd" fill-opacity="1" stroke="none"/>
<circle clip-path="url(#clip512)" cx="1996.61" cy="1435.38" r="10.8" fill="#000000" fill-rule="evenodd" fill-opacity="1" stroke="none"/>
<circle clip-path="url(#clip512)" cx="2194.92" cy="1435.38" r="10.8" fill="#000000" fill-rule="evenodd" fill-opacity="1" stroke="none"/>
<circle clip-path="url(#clip512)" cx="2393.22" cy="1435.38" r="10.8" fill="#000000" fill-rule="evenodd" fill-opacity="1" stroke="none"/>
<circle clip-path="url(#clip512)" cx="806.779" cy="1237.08" r="10.8" fill="#000000" fill-rule="evenodd" fill-opacity="1" stroke="none"/>
<circle clip-path="url(#clip512)" cx="1005.08" cy="1237.08" r="10.8" fill="#000000" fill-rule="evenodd" fill-opacity="1" stroke="none"/>
<circle clip-path="url(#clip512)" cx="1203.39" cy="1237.08" r="10.8" fill="#000000" fill-rule="evenodd" fill-opacity="1" stroke="none"/>
<circle clip-path="url(#clip512)" cx="1401.69" cy="1237.08" r="10.8" fill="#000000" fill-rule="evenodd" fill-opacity="1" stroke="none"/>
<circle clip-path="url(#clip512)" cx="1600" cy="1237.08" r="10.8" fill="#000000" fill-rule="evenodd" fill-opacity="1" stroke="none"/>
<circle clip-path="url(#clip512)" cx="1798.31" cy="1237.08" r="10.8" fill="#000000" fill-rule="evenodd" fill-opacity="1" stroke="none"/>
<circle clip-path="url(#clip512)" cx="1996.61" cy="1237.08" r="10.8" fill="#000000" fill-rule="evenodd" fill-opacity="1" stroke="none"/>
<circle clip-path="url(#clip512)" cx="2194.92" cy="1237.08" r="10.8" fill="#000000" fill-rule="evenodd" fill-opacity="1" stroke="none"/>
<circle clip-path="url(#clip512)" cx="2393.22" cy="1237.08" r="10.8" fill="#000000" fill-rule="evenodd" fill-opacity="1" stroke="none"/>
<circle clip-path="url(#clip512)" cx="806.779" cy="1038.77" r="10.8" fill="#000000" fill-rule="evenodd" fill-opacity="1" stroke="none"/>
<circle clip-path="url(#clip512)" cx="1005.08" cy="1038.77" r="10.8" fill="#000000" fill-rule="evenodd" fill-opacity="1" stroke="none"/>
<circle clip-path="url(#clip512)" cx="1203.39" cy="1038.77" r="10.8" fill="#000000" fill-rule="evenodd" fill-opacity="1" stroke="none"/>
<circle clip-path="url(#clip512)" cx="1401.69" cy="1038.77" r="10.8" fill="#000000" fill-rule="evenodd" fill-opacity="1" stroke="none"/>
<circle clip-path="url(#clip512)" cx="1600" cy="1038.77" r="10.8" fill="#000000" fill-rule="evenodd" fill-opacity="1" stroke="none"/>
<circle clip-path="url(#clip512)" cx="1798.31" cy="1038.77" r="10.8" fill="#000000" fill-rule="evenodd" fill-opacity="1" stroke="none"/>
<circle clip-path="url(#clip512)" cx="1996.61" cy="1038.77" r="10.8" fill="#000000" fill-rule="evenodd" fill-opacity="1" stroke="none"/>
<circle clip-path="url(#clip512)" cx="2194.92" cy="1038.77" r="10.8" fill="#000000" fill-rule="evenodd" fill-opacity="1" stroke="none"/>
<circle clip-path="url(#clip512)" cx="2393.22" cy="1038.77" r="10.8" fill="#000000" fill-rule="evenodd" fill-opacity="1" stroke="none"/>
<circle clip-path="url(#clip512)" cx="806.779" cy="840.465" r="10.8" fill="#000000" fill-rule="evenodd" fill-opacity="1" stroke="none"/>
<circle clip-path="url(#clip512)" cx="1005.08" cy="840.465" r="10.8" fill="#000000" fill-rule="evenodd" fill-opacity="1" stroke="none"/>
<circle clip-path="url(#clip512)" cx="1203.39" cy="840.465" r="10.8" fill="#000000" fill-rule="evenodd" fill-opacity="1" stroke="none"/>
<circle clip-path="url(#clip512)" cx="1401.69" cy="840.465" r="10.8" fill="#000000" fill-rule="evenodd" fill-opacity="1" stroke="none"/>
<circle clip-path="url(#clip512)" cx="1600" cy="840.465" r="10.8" fill="#000000" fill-rule="evenodd" fill-opacity="1" stroke="none"/>
<circle clip-path="url(#clip512)" cx="1798.31" cy="840.465" r="10.8" fill="#000000" fill-rule="evenodd" fill-opacity="1" stroke="none"/>
<circle clip-path="url(#clip512)" cx="1996.61" cy="840.465" r="10.8" fill="#000000" fill-rule="evenodd" fill-opacity="1" stroke="none"/>
<circle clip-path="url(#clip512)" cx="2194.92" cy="840.465" r="10.8" fill="#000000" fill-rule="evenodd" fill-opacity="1" stroke="none"/>
<circle clip-path="url(#clip512)" cx="2393.22" cy="840.465" r="10.8" fill="#000000" fill-rule="evenodd" fill-opacity="1" stroke="none"/>
<circle clip-path="url(#clip512)" cx="806.779" cy="642.16" r="10.8" fill="#000000" fill-rule="evenodd" fill-opacity="1" stroke="none"/>
<circle clip-path="url(#clip512)" cx="1005.08" cy="642.16" r="10.8" fill="#000000" fill-rule="evenodd" fill-opacity="1" stroke="none"/>
<circle clip-path="url(#clip512)" cx="1203.39" cy="642.16" r="10.8" fill="#000000" fill-rule="evenodd" fill-opacity="1" stroke="none"/>
<circle clip-path="url(#clip512)" cx="1401.69" cy="642.16" r="10.8" fill="#000000" fill-rule="evenodd" fill-opacity="1" stroke="none"/>
<circle clip-path="url(#clip512)" cx="1600" cy="642.16" r="10.8" fill="#000000" fill-rule="evenodd" fill-opacity="1" stroke="none"/>
<circle clip-path="url(#clip512)" cx="1798.31" cy="642.16" r="10.8" fill="#000000" fill-rule="evenodd" fill-opacity="1" stroke="none"/>
<circle clip-path="url(#clip512)" cx="1996.61" cy="642.16" r="10.8" fill="#000000" fill-rule="evenodd" fill-opacity="1" stroke="none"/>
<circle clip-path="url(#clip512)" cx="2194.92" cy="642.16" r="10.8" fill="#000000" fill-rule="evenodd" fill-opacity="1" stroke="none"/>
<circle clip-path="url(#clip512)" cx="2393.22" cy="642.16" r="10.8" fill="#000000" fill-rule="evenodd" fill-opacity="1" stroke="none"/>
<circle clip-path="url(#clip512)" cx="806.779" cy="443.855" r="10.8" fill="#000000" fill-rule="evenodd" fill-opacity="1" stroke="none"/>
<circle clip-path="url(#clip512)" cx="1005.08" cy="443.855" r="10.8" fill="#000000" fill-rule="evenodd" fill-opacity="1" stroke="none"/>
<circle clip-path="url(#clip512)" cx="1203.39" cy="443.855" r="10.8" fill="#000000" fill-rule="evenodd" fill-opacity="1" stroke="none"/>
<circle clip-path="url(#clip512)" cx="1401.69" cy="443.855" r="10.8" fill="#000000" fill-rule="evenodd" fill-opacity="1" stroke="none"/>
<circle clip-path="url(#clip512)" cx="1600" cy="443.855" r="10.8" fill="#000000" fill-rule="evenodd" fill-opacity="1" stroke="none"/>
<circle clip-path="url(#clip512)" cx="1798.31" cy="443.855" r="10.8" fill="#000000" fill-rule="evenodd" fill-opacity="1" stroke="none"/>
<circle clip-path="url(#clip512)" cx="1996.61" cy="443.855" r="10.8" fill="#000000" fill-rule="evenodd" fill-opacity="1" stroke="none"/>
<circle clip-path="url(#clip512)" cx="2194.92" cy="443.855" r="10.8" fill="#000000" fill-rule="evenodd" fill-opacity="1" stroke="none"/>
<circle clip-path="url(#clip512)" cx="2393.22" cy="443.855" r="10.8" fill="#000000" fill-rule="evenodd" fill-opacity="1" stroke="none"/>
</svg>
