<?xml version="1.0" encoding="utf-8"?>
<svg xmlns="http://www.w3.org/2000/svg" xmlns:xlink="http://www.w3.org/1999/xlink" width="600" height="450" viewBox="0 0 2400 1800">
<defs>
  <clipPath id="clip580">
    <rect x="0" y="0" width="2400" height="1800"/>
  </clipPath>
</defs>
<path clip-path="url(#clip580)" d="
M0 1800 L2400 1800 L2400 0 L0 0  Z
  " fill="#ffffff" fill-rule="evenodd" fill-opacity="1"/>
<defs>
  <clipPath id="clip581">
    <rect x="480" y="0" width="1681" height="1681"/>
  </clipPath>
</defs>
<defs>
  <clipPath id="clip582">
    <rect x="547" y="82" width="1307" height="1089"/>
  </clipPath>
</defs>
<path clip-path="url(#clip580)" d="
M547.041 1170.94 L1852.96 1170.94 L1852.96 82.6772 L547.041 82.6772  Z
  " fill="#ffffff" fill-rule="evenodd" fill-opacity="1"/>
<polyline clip-path="url(#clip582)" style="stroke:#000000; stroke-linecap:round; stroke-linejoin:round; stroke-width:5.25; stroke-opacity:0.3; fill:none" points="
  764.694,1170.94 764.694,82.6772 
  "/>
<polyline clip-path="url(#clip582)" style="stroke:#000000; stroke-linecap:round; stroke-linejoin:round; stroke-width:5.25; stroke-opacity:0.3; fill:none" points="
  982.347,1170.94 982.347,82.6772 
  "/>
<polyline clip-path="url(#clip582)" style="stroke:#000000; stroke-linecap:round; stroke-linejoin:round; stroke-width:5.25; stroke-opacity:0.3; fill:none" points="
  1200,1170.94 1200,82.6772 
  "/>
<polyline clip-path="url(#clip582)" style="stroke:#000000; stroke-linecap:round; stroke-linejoin:round; stroke-width:5.25; stroke-opacity:0.3; fill:none" points="
  1417.65,1170.94 1417.65,82.6772 
  "/>
<polyline clip-path="url(#clip582)" style="stroke:#000000; stroke-linecap:round; stroke-linejoin:round; stroke-width:5.25; stroke-opacity:0.3; fill:none" points="
  1635.31,1170.94 1635.31,82.6772 
  "/>
<polyline clip-path="url(#clip582)" style="stroke:#000000; stroke-linecap:round; stroke-linejoin:round; stroke-width:5.25; stroke-opacity:0.3; fill:none" points="
  1852.96,1170.94 1852.96,82.6772 
  "/>
<polyline clip-path="url(#clip580)" style="stroke:#000000; stroke-linecap:round; stroke-linejoin:round; stroke-width:7; stroke-opacity:1; fill:none" points="
  547.041,1170.94 1852.96,1170.94 
  "/>
<polyline clip-path="url(#clip580)" style="stroke:#000000; stroke-linecap:round; stroke-linejoin:round; stroke-width:7; stroke-opacity:1; fill:none" points="
  764.694,1189.84 764.694,1152.04 
  "/>
<polyline clip-path="url(#clip580)" style="stroke:#000000; stroke-linecap:round; stroke-linejoin:round; stroke-width:7; stroke-opacity:1; fill:none" points="
  982.347,1189.84 982.347,1152.04 
  "/>
<polyline clip-path="url(#clip580)" style="stroke:#000000; stroke-linecap:round; stroke-linejoin:round; stroke-width:7; stroke-opacity:1; fill:none" points="
  1200,1189.84 1200,1152.04 
  "/>
<polyline clip-path="url(#clip580)" style="stroke:#000000; stroke-linecap:round; stroke-linejoin:round; stroke-width:7; stroke-opacity:1; fill:none" points="
  1417.65,1189.84 1417.65,1152.04 
  "/>
<polyline clip-path="url(#clip580)" style="stroke:#000000; stroke-linecap:round; stroke-linejoin:round; stroke-width:7; stroke-opacity:1; fill:none" points="
  1635.31,1189.84 1635.31,1152.04 
  "/>
<polyline clip-path="url(#clip580)" style="stroke:#000000; stroke-linecap:round; stroke-linejoin:round; stroke-width:7; stroke-opacity:1; fill:none" points="
  1852.96,1189.84 1852.96,1152.04 
  "/>
<polyline clip-path="url(#clip580)" style="stroke:#000000; stroke-linecap:round; stroke-linejoin:round; stroke-width:7; stroke-opacity:1; fill:none" points="
  655.868,1180.39 655.868,1161.49 
  "/>
<polyline clip-path="url(#clip580)" style="stroke:#000000; stroke-linecap:round; stroke-linejoin:round; stroke-width:7; stroke-opacity:1; fill:none" points="
  873.521,1180.39 873.521,1161.49 
  "/>
<polyline clip-path="url(#clip580)" style="stroke:#000000; stroke-linecap:round; stroke-linejoin:round; stroke-width:7; stroke-opacity:1; fill:none" points="
  1091.17,1180.39 1091.17,1161.49 
  "/>
<polyline clip-path="url(#clip580)" style="stroke:#000000; stroke-linecap:round; stroke-linejoin:round; stroke-width:7; stroke-opacity:1; fill:none" points="
  1308.83,1180.39 1308.83,1161.49 
  "/>
<polyline clip-path="url(#clip580)" style="stroke:#000000; stroke-linecap:round; stroke-linejoin:round; stroke-width:7; stroke-opacity:1; fill:none" points="
  1526.48,1180.39 1526.48,1161.49 
  "/>
<polyline clip-path="url(#clip580)" style="stroke:#000000; stroke-linecap:round; stroke-linejoin:round; stroke-width:7; stroke-opacity:1; fill:none" points="
  1744.13,1180.39 1744.13,1161.49 
  "/>
<path clip-path="url(#clip580)" d="M726.823 1344.75 L756.901 1344.75 L756.901 1240.93 L724.18 1247.49 L724.18 1230.72 L756.719 1224.16 L775.13 1224.16 L775.13 1344.75 L805.208 1344.75 L805.208 1360.24 L726.823 1360.24 L726.823 1344.75 Z" fill="#000000" fill-rule="evenodd" fill-opacity="1" /><path clip-path="url(#clip580)" d="M961.293 1344.75 L1025.55 1344.75 L1025.55 1360.24 L939.144 1360.24 L939.144 1344.75 Q949.626 1333.9 967.673 1315.67 Q985.811 1297.35 990.459 1292.06 Q999.3 1282.13 1002.76 1275.29 Q1006.32 1268.37 1006.32 1261.71 Q1006.32 1250.87 998.662 1244.03 Q991.097 1237.2 978.884 1237.2 Q970.225 1237.2 960.563 1240.2 Q950.993 1243.21 940.056 1249.32 L940.056 1230.72 Q951.175 1226.26 960.837 1223.98 Q970.498 1221.7 978.519 1221.7 Q999.665 1221.7 1012.24 1232.27 Q1024.82 1242.85 1024.82 1260.53 Q1024.82 1268.91 1021.63 1276.48 Q1018.53 1283.95 1010.24 1294.16 Q1007.96 1296.8 995.745 1309.47 Q983.532 1322.05 961.293 1344.75 Z" fill="#000000" fill-rule="evenodd" fill-opacity="1" /><path clip-path="url(#clip580)" d="M1216.73 1286.87 Q1229.94 1289.7 1237.32 1298.63 Q1244.8 1307.56 1244.8 1320.68 Q1244.8 1340.83 1230.94 1351.86 Q1217.09 1362.88 1191.57 1362.88 Q1183 1362.88 1173.89 1361.15 Q1164.86 1359.51 1155.2 1356.14 L1155.2 1338.37 Q1162.86 1342.83 1171.97 1345.11 Q1181.09 1347.39 1191.02 1347.39 Q1208.34 1347.39 1217.36 1340.55 Q1226.48 1333.72 1226.48 1320.68 Q1226.48 1308.65 1218 1301.91 Q1209.62 1295.07 1194.58 1295.07 L1178.72 1295.07 L1178.72 1279.94 L1195.31 1279.94 Q1208.89 1279.94 1216.09 1274.56 Q1223.29 1269.1 1223.29 1258.89 Q1223.29 1248.41 1215.81 1242.85 Q1208.43 1237.2 1194.58 1237.2 Q1187.01 1237.2 1178.35 1238.84 Q1169.69 1240.48 1159.3 1243.94 L1159.3 1227.53 Q1169.79 1224.62 1178.9 1223.16 Q1188.11 1221.7 1196.22 1221.7 Q1217.18 1221.7 1229.39 1231.27 Q1241.61 1240.75 1241.61 1256.97 Q1241.61 1268.28 1235.14 1276.11 Q1228.67 1283.86 1216.73 1286.87 Z" fill="#000000" fill-rule="evenodd" fill-opacity="1" /><path clip-path="url(#clip580)" d="M1429.5 1240.2 L1383.02 1312.85 L1429.5 1312.85 L1429.5 1240.2 M1424.67 1224.16 L1447.82 1224.16 L1447.82 1312.85 L1467.24 1312.85 L1467.24 1328.16 L1447.82 1328.16 L1447.82 1360.24 L1429.5 1360.24 L1429.5 1328.16 L1368.07 1328.16 L1368.07 1310.39 L1424.67 1224.16 Z" fill="#000000" fill-rule="evenodd" fill-opacity="1" /><path clip-path="url(#clip580)" d="M1597.02 1224.16 L1669.3 1224.16 L1669.3 1239.66 L1613.89 1239.66 L1613.89 1273.02 Q1617.9 1271.65 1621.91 1271.01 Q1625.92 1270.28 1629.93 1270.28 Q1652.71 1270.28 1666.02 1282.77 Q1679.33 1295.25 1679.33 1316.58 Q1679.33 1338.55 1665.66 1350.76 Q1651.99 1362.88 1627.1 1362.88 Q1618.54 1362.88 1609.6 1361.43 Q1600.76 1359.97 1591.28 1357.05 L1591.28 1338.55 Q1599.49 1343.02 1608.24 1345.2 Q1616.99 1347.39 1626.74 1347.39 Q1642.51 1347.39 1651.71 1339.1 Q1660.92 1330.8 1660.92 1316.58 Q1660.92 1302.36 1651.71 1294.07 Q1642.51 1285.78 1626.74 1285.78 Q1619.36 1285.78 1611.97 1287.42 Q1604.68 1289.06 1597.02 1292.52 L1597.02 1224.16 Z" fill="#000000" fill-rule="evenodd" fill-opacity="1" /><path clip-path="url(#clip580)" d="M1854.55 1284.86 Q1842.16 1284.86 1834.87 1293.34 Q1827.67 1301.82 1827.67 1316.58 Q1827.67 1331.26 1834.87 1339.82 Q1842.16 1348.3 1854.55 1348.3 Q1866.95 1348.3 1874.15 1339.82 Q1881.44 1331.26 1881.44 1316.58 Q1881.44 1301.82 1874.15 1293.34 Q1866.95 1284.86 1854.55 1284.86 M1891.1 1227.17 L1891.1 1243.94 Q1884.18 1240.66 1877.07 1238.93 Q1870.05 1237.2 1863.12 1237.2 Q1844.89 1237.2 1835.23 1249.5 Q1825.66 1261.8 1824.29 1286.69 Q1829.67 1278.76 1837.78 1274.56 Q1845.89 1270.28 1855.65 1270.28 Q1876.16 1270.28 1888 1282.77 Q1899.94 1295.16 1899.94 1316.58 Q1899.94 1337.55 1887.55 1350.22 Q1875.15 1362.88 1854.55 1362.88 Q1830.95 1362.88 1818.46 1344.84 Q1805.97 1326.7 1805.97 1292.34 Q1805.97 1260.07 1821.29 1240.93 Q1836.6 1221.7 1862.39 1221.7 Q1869.32 1221.7 1876.34 1223.07 Q1883.45 1224.43 1891.1 1227.17 Z" fill="#000000" fill-rule="evenodd" fill-opacity="1" /><path clip-path="url(#clip580)" d="M1207.62 1444.07 Q1207.62 1450.95 1203.32 1454.89 Q1199.02 1458.7 1194.1 1458.7 Q1189.42 1458.7 1186.96 1455.99 Q1184.51 1453.29 1184.51 1449.84 Q1184.51 1445.17 1187.95 1441.11 Q1191.39 1437.06 1196.56 1436.2 Q1191.51 1433 1184.01 1433 Q1179.09 1433 1174.79 1435.58 Q1170.61 1438.16 1168.03 1441.48 Q1165.57 1444.8 1163.35 1449.6 Q1161.26 1454.27 1160.4 1457.1 Q1159.67 1459.8 1159.05 1462.76 L1150.44 1497.19 Q1146.26 1513.54 1146.26 1519.32 Q1146.26 1526.45 1149.71 1531.25 Q1153.15 1535.92 1160.03 1535.92 Q1162.74 1535.92 1165.81 1535.18 Q1168.89 1534.32 1172.82 1532.11 Q1176.88 1529.77 1180.45 1526.33 Q1184.14 1522.76 1187.7 1516.74 Q1191.27 1510.71 1193.6 1502.97 Q1194.34 1500.26 1196.8 1500.26 Q1199.88 1500.26 1199.88 1502.72 Q1199.88 1504.81 1198.15 1509.24 Q1196.56 1513.54 1192.99 1519.2 Q1189.55 1524.73 1185 1529.77 Q1180.45 1534.69 1173.68 1538.14 Q1166.92 1541.58 1159.54 1541.58 Q1148.97 1541.58 1141.96 1535.92 Q1134.95 1530.27 1132.37 1522.4 Q1131.75 1523.5 1130.89 1524.98 Q1130.03 1526.45 1127.45 1529.77 Q1124.99 1532.97 1122.16 1535.43 Q1119.33 1537.77 1114.91 1539.61 Q1110.6 1541.58 1105.93 1541.58 Q1100.03 1541.58 1094.74 1539.86 Q1089.57 1538.14 1085.88 1534.2 Q1082.2 1530.27 1082.2 1524.85 Q1082.2 1518.83 1086.25 1514.65 Q1090.43 1510.34 1096.09 1510.34 Q1099.66 1510.34 1102.49 1512.44 Q1105.44 1514.53 1105.44 1519.08 Q1105.44 1524.12 1101.99 1527.93 Q1098.55 1531.74 1093.63 1532.72 Q1098.67 1535.92 1106.17 1535.92 Q1114.29 1535.92 1120.68 1528.79 Q1127.08 1521.66 1130.15 1509.73 Q1137.78 1481.08 1140.73 1468.29 Q1143.68 1455.38 1143.68 1449.84 Q1143.68 1444.68 1142.33 1441.11 Q1140.97 1437.55 1138.64 1435.95 Q1136.42 1434.23 1134.33 1433.61 Q1132.37 1433 1130.15 1433 Q1126.46 1433 1122.28 1434.47 Q1118.23 1435.95 1113.31 1439.39 Q1108.51 1442.71 1103.96 1449.6 Q1099.41 1456.48 1096.34 1465.95 Q1095.72 1468.78 1093.02 1468.78 Q1090.07 1468.66 1090.07 1466.2 Q1090.07 1464.11 1091.66 1459.8 Q1093.39 1455.38 1096.83 1449.84 Q1100.4 1444.31 1104.94 1439.39 Q1109.62 1434.35 1116.38 1430.91 Q1123.27 1427.46 1130.65 1427.46 Q1133.97 1427.46 1137.16 1428.2 Q1140.48 1428.82 1144.42 1430.66 Q1148.48 1432.51 1152.04 1436.56 Q1155.61 1440.62 1157.82 1446.52 Q1159.3 1443.7 1161.26 1440.99 Q1163.35 1438.29 1166.55 1434.97 Q1169.87 1431.52 1174.42 1429.55 Q1179.09 1427.46 1184.26 1427.46 Q1189.3 1427.46 1194.22 1428.82 Q1199.14 1430.05 1203.32 1434.1 Q1207.62 1438.04 1207.62 1444.07 Z" fill="#000000" fill-rule="evenodd" fill-opacity="1" /><path clip-path="url(#clip580)" d="M1233.29 1510.7 L1233.29 1505.19 Q1254.47 1505.19 1265.4 1493.91 Q1268.41 1493.91 1268.93 1494.6 Q1269.45 1495.29 1269.45 1498.47 L1269.45 1597.38 Q1269.45 1602.63 1272.03 1604.26 Q1274.61 1605.9 1285.89 1605.9 L1291.48 1605.9 L1291.48 1611.32 Q1285.29 1610.8 1262.91 1610.8 Q1240.53 1610.8 1234.41 1611.32 L1234.41 1605.9 L1240.01 1605.9 Q1251.11 1605.9 1253.78 1604.35 Q1256.45 1602.71 1256.45 1597.38 L1256.45 1506.05 Q1247.24 1510.7 1233.29 1510.7 Z" fill="#000000" fill-rule="evenodd" fill-opacity="1" /><polyline clip-path="url(#clip582)" style="stroke:#000000; stroke-linecap:round; stroke-linejoin:round; stroke-width:5.25; stroke-opacity:0.3; fill:none" points="
  547.041,953.289 1852.96,953.289 
  "/>
<polyline clip-path="url(#clip582)" style="stroke:#000000; stroke-linecap:round; stroke-linejoin:round; stroke-width:5.25; stroke-opacity:0.3; fill:none" points="
  547.041,735.636 1852.96,735.636 
  "/>
<polyline clip-path="url(#clip582)" style="stroke:#000000; stroke-linecap:round; stroke-linejoin:round; stroke-width:5.25; stroke-opacity:0.3; fill:none" points="
  547.041,517.983 1852.96,517.983 
  "/>
<polyline clip-path="url(#clip582)" style="stroke:#000000; stroke-linecap:round; stroke-linejoin:round; stroke-width:5.25; stroke-opacity:0.3; fill:none" points="
  547.041,300.33 1852.96,300.33 
  "/>
<polyline clip-path="url(#clip582)" style="stroke:#000000; stroke-linecap:round; stroke-linejoin:round; stroke-width:5.25; stroke-opacity:0.3; fill:none" points="
  547.041,82.6772 1852.96,82.6772 
  "/>
<polyline clip-path="url(#clip580)" style="stroke:#000000; stroke-linecap:round; stroke-linejoin:round; stroke-width:7; stroke-opacity:1; fill:none" points="
  547.041,1170.94 547.041,82.6772 
  "/>
<polyline clip-path="url(#clip580)" style="stroke:#000000; stroke-linecap:round; stroke-linejoin:round; stroke-width:7; stroke-opacity:1; fill:none" points="
  536.759,953.289 557.324,953.289 
  "/>
<polyline clip-path="url(#clip580)" style="stroke:#000000; stroke-linecap:round; stroke-linejoin:round; stroke-width:7; stroke-opacity:1; fill:none" points="
  536.759,735.636 557.324,735.636 
  "/>
<polyline clip-path="url(#clip580)" style="stroke:#000000; stroke-linecap:round; stroke-linejoin:round; stroke-width:7; stroke-opacity:1; fill:none" points="
  536.759,517.983 557.324,517.983 
  "/>
<polyline clip-path="url(#clip580)" style="stroke:#000000; stroke-linecap:round; stroke-linejoin:round; stroke-width:7; stroke-opacity:1; fill:none" points="
  536.759,300.33 557.324,300.33 
  "/>
<polyline clip-path="url(#clip580)" style="stroke:#000000; stroke-linecap:round; stroke-linejoin:round; stroke-width:7; stroke-opacity:1; fill:none" points="
  536.759,82.6772 557.324,82.6772 
  "/>
<polyline clip-path="url(#clip580)" style="stroke:#000000; stroke-linecap:round; stroke-linejoin:round; stroke-width:7; stroke-opacity:1; fill:none" points="
  541.9,1062.12 552.183,1062.12 
  "/>
<polyline clip-path="url(#clip580)" style="stroke:#000000; stroke-linecap:round; stroke-linejoin:round; stroke-width:7; stroke-opacity:1; fill:none" points="
  541.9,844.462 552.183,844.462 
  "/>
<polyline clip-path="url(#clip580)" style="stroke:#000000; stroke-linecap:round; stroke-linejoin:round; stroke-width:7; stroke-opacity:1; fill:none" points="
  541.9,626.809 552.183,626.809 
  "/>
<polyline clip-path="url(#clip580)" style="stroke:#000000; stroke-linecap:round; stroke-linejoin:round; stroke-width:7; stroke-opacity:1; fill:none" points="
  541.9,409.156 552.183,409.156 
  "/>
<polyline clip-path="url(#clip580)" style="stroke:#000000; stroke-linecap:round; stroke-linejoin:round; stroke-width:7; stroke-opacity:1; fill:none" points="
  541.9,191.504 552.183,191.504 
  "/>
<path clip-path="url(#clip580)" d="M432.656 1005.83 L462.734 1005.83 L462.734 902.019 L430.013 908.582 L430.013 891.811 L462.552 885.249 L480.963 885.249 L480.963 1005.83 L511.041 1005.83 L511.041 1021.33 L432.656 1021.33 L432.656 1005.83 Z" fill="#000000" fill-rule="evenodd" fill-opacity="1" /><path clip-path="url(#clip580)" d="M446.784 788.181 L511.041 788.181 L511.041 803.676 L424.636 803.676 L424.636 788.181 Q435.117 777.335 453.164 759.106 Q471.302 740.786 475.95 735.499 Q484.792 725.564 488.255 718.728 Q491.81 711.801 491.81 705.148 Q491.81 694.301 484.153 687.465 Q476.588 680.63 464.375 680.63 Q455.716 680.63 446.055 683.637 Q436.484 686.645 425.547 692.752 L425.547 674.158 Q436.667 669.692 446.328 667.414 Q455.99 665.135 464.01 665.135 Q485.156 665.135 497.734 675.708 Q510.312 686.281 510.312 703.963 Q510.312 712.348 507.122 719.913 Q504.023 727.387 495.729 737.595 Q493.45 740.239 481.237 752.908 Q469.023 765.486 446.784 788.181 Z" fill="#000000" fill-rule="evenodd" fill-opacity="1" /><path clip-path="url(#clip580)" d="M482.969 512.651 Q496.185 515.476 503.567 524.409 Q511.041 533.341 511.041 546.466 Q511.041 566.609 497.187 577.638 Q483.333 588.666 457.812 588.666 Q449.245 588.666 440.13 586.934 Q431.107 585.294 421.445 581.921 L421.445 564.148 Q429.102 568.614 438.216 570.893 Q447.331 573.171 457.266 573.171 Q474.583 573.171 483.607 566.336 Q492.721 559.5 492.721 546.466 Q492.721 534.435 484.245 527.69 Q475.859 520.854 460.82 520.854 L444.961 520.854 L444.961 505.724 L461.549 505.724 Q475.13 505.724 482.331 500.346 Q489.531 494.878 489.531 484.669 Q489.531 474.188 482.057 468.628 Q474.674 462.977 460.82 462.977 Q453.255 462.977 444.596 464.617 Q435.938 466.258 425.547 469.721 L425.547 453.315 Q436.029 450.399 445.143 448.94 Q454.349 447.482 462.461 447.482 Q483.424 447.482 495.638 457.052 Q507.851 466.531 507.851 482.755 Q507.851 494.057 501.38 501.896 Q494.909 509.643 482.969 512.651 Z" fill="#000000" fill-rule="evenodd" fill-opacity="1" /><path clip-path="url(#clip580)" d="M473.307 248.332 L426.823 320.974 L473.307 320.974 L473.307 248.332 M468.476 232.29 L491.627 232.29 L491.627 320.974 L511.041 320.974 L511.041 336.287 L491.627 336.287 L491.627 368.37 L473.307 368.37 L473.307 336.287 L411.875 336.287 L411.875 318.514 L468.476 232.29 Z" fill="#000000" fill-rule="evenodd" fill-opacity="1" /><path clip-path="url(#clip580)" d="M428.737 14.6372 L501.015 14.6372 L501.015 30.1319 L445.599 30.1319 L445.599 63.4911 Q449.609 62.1239 453.62 61.4859 Q457.63 60.7567 461.641 60.7567 Q484.427 60.7567 497.734 73.2436 Q511.041 85.7305 511.041 107.059 Q511.041 129.025 497.37 141.238 Q483.698 153.36 458.815 153.36 Q450.247 153.36 441.315 151.902 Q432.474 150.444 422.995 147.527 L422.995 129.025 Q431.198 133.491 439.948 135.678 Q448.698 137.866 458.451 137.866 Q474.219 137.866 483.424 129.571 Q492.63 121.277 492.63 107.059 Q492.63 92.8399 483.424 84.5456 Q474.219 76.2514 458.451 76.2514 Q451.068 76.2514 443.685 77.892 Q436.393 79.5327 428.737 82.9962 L428.737 14.6372 Z" fill="#000000" fill-rule="evenodd" fill-opacity="1" /><path clip-path="url(#clip580)" d="M191.151 625.24 Q198.037 625.24 201.972 629.544 Q205.784 633.848 205.784 638.767 Q205.784 643.44 203.079 645.899 Q200.373 648.358 196.93 648.358 Q192.257 648.358 188.199 644.915 Q184.142 641.472 183.281 636.307 Q180.084 641.349 180.084 648.85 Q180.084 653.769 182.666 658.073 Q185.248 662.254 188.568 664.836 Q191.888 667.295 196.684 669.509 Q201.357 671.599 204.185 672.46 Q206.891 673.198 209.842 673.813 L244.273 682.42 Q260.628 686.601 266.407 686.601 Q273.539 686.601 278.335 683.158 Q283.008 679.715 283.008 672.829 Q283.008 670.124 282.27 667.049 Q281.409 663.975 279.196 660.04 Q276.859 655.982 273.416 652.416 Q269.85 648.727 263.825 645.161 Q257.799 641.595 250.052 639.259 Q247.347 638.521 247.347 636.061 Q247.347 632.987 249.806 632.987 Q251.897 632.987 256.324 634.709 Q260.628 636.307 266.284 639.873 Q271.818 643.317 276.859 647.866 Q281.778 652.416 285.221 659.179 Q288.664 665.943 288.664 673.321 Q288.664 683.896 283.008 690.905 Q277.351 697.914 269.481 700.497 Q270.588 701.111 272.064 701.972 Q273.539 702.833 276.859 705.415 Q280.056 707.875 282.516 710.703 Q284.852 713.531 286.697 717.958 Q288.664 722.262 288.664 726.935 Q288.664 732.837 286.943 738.125 Q285.221 743.289 281.286 746.978 Q277.351 750.667 271.941 750.667 Q265.915 750.667 261.734 746.61 Q257.43 742.429 257.43 736.772 Q257.43 733.206 259.521 730.378 Q261.611 727.427 266.161 727.427 Q271.203 727.427 275.015 730.87 Q278.827 734.313 279.81 739.231 Q283.008 734.19 283.008 726.689 Q283.008 718.573 275.876 712.179 Q268.743 705.784 256.816 702.71 Q228.164 695.086 215.375 692.135 Q202.464 689.184 196.93 689.184 Q191.766 689.184 188.199 690.536 Q184.633 691.889 183.035 694.225 Q181.313 696.439 180.698 698.529 Q180.084 700.497 180.084 702.71 Q180.084 706.399 181.559 710.58 Q183.035 714.638 186.478 719.557 Q189.798 724.352 196.684 728.902 Q203.57 733.452 213.039 736.526 Q215.867 737.141 215.867 739.846 Q215.744 742.798 213.285 742.798 Q211.194 742.798 206.891 741.199 Q202.464 739.477 196.93 736.034 Q191.397 732.468 186.478 727.918 Q181.436 723.246 177.993 716.482 Q174.55 709.596 174.55 702.218 Q174.55 698.898 175.288 695.701 Q175.903 692.381 177.747 688.446 Q179.592 684.388 183.65 680.822 Q187.708 677.256 193.61 675.042 Q190.782 673.567 188.076 671.599 Q185.371 669.509 182.051 666.312 Q178.608 662.991 176.64 658.442 Q174.55 653.769 174.55 648.604 Q174.55 643.563 175.903 638.644 Q177.132 633.725 181.19 629.544 Q185.125 625.24 191.151 625.24 Z" fill="#000000" fill-rule="evenodd" fill-opacity="1" /><path clip-path="url(#clip580)" d="M358.405 599.569 Q355.22 599.569 354.274 599.311 Q353.327 598.966 351.863 597.589 L314.161 563.761 Q293.331 545.254 275.168 545.254 Q263.376 545.254 254.94 551.451 Q246.505 557.563 246.505 568.839 Q246.505 576.586 251.239 583.128 Q255.973 589.67 264.409 592.683 Q264.237 592.166 264.237 590.358 Q264.237 585.968 266.991 583.558 Q269.745 581.062 273.447 581.062 Q278.181 581.062 280.505 584.161 Q282.743 587.174 282.743 590.186 Q282.743 591.391 282.485 593.027 Q282.227 594.576 279.817 597.072 Q277.32 599.569 272.93 599.569 Q260.621 599.569 250.808 590.272 Q240.996 580.89 240.996 566.601 Q240.996 550.418 250.636 539.831 Q260.191 529.157 275.168 529.157 Q280.419 529.157 285.239 530.793 Q289.974 532.342 293.675 534.494 Q297.376 536.56 303.316 542.241 Q309.255 547.922 313.473 552.484 Q317.691 557.046 326.643 567.29 L344.805 585.968 L344.805 554.206 Q344.805 538.712 343.428 537.507 Q340.932 535.785 327.762 533.633 L327.762 529.157 L358.405 534.15 L358.405 599.569 Z" fill="#000000" fill-rule="evenodd" fill-opacity="1" /><path clip-path="url(#clip582)" d="
M547.041 735.636 L568.807 735.636 L590.572 735.636 L612.337 735.636 L634.103 735.636 L655.868 735.636 L677.633 735.636 L699.398 735.636 L721.164 735.636 L742.929 735.636 
  L764.694 735.636 L786.46 735.636 L808.225 735.636 L829.99 735.636 L851.755 735.636 L873.521 735.636 L895.286 735.636 L917.051 735.636 L938.817 735.636 L960.582 735.636 
  L982.347 735.636 L1004.11 735.636 L1025.88 735.636 L1047.64 735.636 L1069.41 735.636 L1091.17 735.636 L1112.94 735.636 L1134.7 735.636 L1156.47 735.636 L1178.23 735.636 
  L1200 735.636 L1221.77 735.636 L1243.53 735.636 L1265.3 735.636 L1287.06 735.636 L1308.83 735.636 L1330.59 735.636 L1352.36 735.636 L1374.12 735.636 L1395.89 735.636 
  L1417.65 735.636 L1439.42 735.636 L1461.18 735.636 L1482.95 735.636 L1504.71 735.636 L1526.48 735.636 L1548.24 735.636 L1570.01 735.636 L1591.78 735.636 L1613.54 735.636 
  L1635.31 735.636 L1657.07 735.636 L1678.84 735.636 L1700.6 735.636 L1722.37 735.636 L1744.13 735.636 L1765.9 735.636 L1787.66 735.636 L1787.66 757.401 L1765.9 692.105 
  L1744.13 626.809 L1722.37 583.279 L1700.6 576.024 L1678.84 568.769 L1657.07 561.513 L1635.31 554.258 L1613.54 547.003 L1591.78 539.748 L1570.01 532.493 L1548.24 525.238 
  L1526.48 517.983 L1504.71 510.728 L1482.95 503.473 L1461.18 496.218 L1439.42 488.963 L1417.65 481.707 L1395.89 474.452 L1374.12 467.197 L1352.36 459.942 L1330.59 452.687 
  L1308.83 445.432 L1287.06 438.177 L1265.3 430.922 L1243.53 423.667 L1221.77 416.412 L1200 409.156 L1178.23 401.901 L1156.47 394.646 L1134.7 387.391 L1112.94 380.136 
  L1091.17 372.881 L1069.41 365.626 L1047.64 358.371 L1025.88 351.116 L1004.11 343.861 L982.347 336.606 L960.582 329.35 L938.817 322.095 L917.051 314.84 L895.286 307.585 
  L873.521 300.33 L851.755 293.075 L829.99 285.82 L808.225 278.565 L786.46 271.31 L764.694 264.055 L742.929 256.799 L721.164 249.544 L699.398 242.289 L677.633 235.034 
  L655.868 227.779 L634.103 220.524 L612.337 213.269 L590.572 206.014 L568.807 198.759 L547.041 191.504  Z
  " fill="#add8e6" fill-rule="evenodd" fill-opacity="1"/>
<polyline clip-path="url(#clip582)" style="stroke:#add8e6; stroke-linecap:round; stroke-linejoin:round; stroke-width:7; stroke-opacity:1; fill:none" points="
  547.041,735.636 568.807,735.636 590.572,735.636 612.337,735.636 634.103,735.636 655.868,735.636 677.633,735.636 699.398,735.636 721.164,735.636 742.929,735.636 
  764.694,735.636 786.46,735.636 808.225,735.636 829.99,735.636 851.755,735.636 873.521,735.636 895.286,735.636 917.051,735.636 938.817,735.636 960.582,735.636 
  982.347,735.636 1004.11,735.636 1025.88,735.636 1047.64,735.636 1069.41,735.636 1091.17,735.636 1112.94,735.636 1134.7,735.636 1156.47,735.636 1178.23,735.636 
  1200,735.636 1221.77,735.636 1243.53,735.636 1265.3,735.636 1287.06,735.636 1308.83,735.636 1330.59,735.636 1352.36,735.636 1374.12,735.636 1395.89,735.636 
  1417.65,735.636 1439.42,735.636 1461.18,735.636 1482.95,735.636 1504.71,735.636 1526.48,735.636 1548.24,735.636 1570.01,735.636 1591.78,735.636 1613.54,735.636 
  1635.31,735.636 1657.07,735.636 1678.84,735.636 1700.6,735.636 1722.37,735.636 1744.13,735.636 1765.9,735.636 1787.66,735.636 
  "/>
<polyline clip-path="url(#clip582)" style="stroke:#ff0000; stroke-linecap:round; stroke-linejoin:round; stroke-width:21; stroke-opacity:1; fill:none" points="
  -758.876,735.636 3158.88,735.636 
  "/>
<polyline clip-path="url(#clip582)" style="stroke:#800080; stroke-linecap:round; stroke-linejoin:round; stroke-width:21; stroke-opacity:1; fill:none" points="
  111.736,46.4017 133.501,53.6568 155.266,60.9119 177.031,68.167 198.797,75.4221 220.562,82.6772 242.327,89.9323 264.093,97.1874 285.858,104.442 307.623,111.698 
  329.388,118.953 351.154,126.208 372.919,133.463 394.684,140.718 416.45,147.973 438.215,155.228 459.98,162.483 481.746,169.738 503.511,176.993 525.276,184.249 
  547.041,191.504 568.807,198.759 590.572,206.014 612.337,213.269 634.103,220.524 655.868,227.779 677.633,235.034 699.398,242.289 721.164,249.544 742.929,256.799 
  764.694,264.055 786.46,271.31 808.225,278.565 829.99,285.82 851.755,293.075 873.521,300.33 895.286,307.585 917.051,314.84 938.817,322.095 960.582,329.35 
  982.347,336.606 1004.11,343.861 1025.88,351.116 1047.64,358.371 1069.41,365.626 1091.17,372.881 1112.94,380.136 1134.7,387.391 1156.47,394.646 1178.23,401.901 
  1200,409.156 1221.77,416.412 1243.53,423.667 1265.3,430.922 1287.06,438.177 1308.83,445.432 1330.59,452.687 1352.36,459.942 1374.12,467.197 1395.89,474.452 
  1417.65,481.707 1439.42,488.963 1461.18,496.218 1482.95,503.473 1504.71,510.728 1526.48,517.983 1548.24,525.238 1570.01,532.493 1591.78,539.748 1613.54,547.003 
  1635.31,554.258 1657.07,561.513 1678.84,568.769 1700.6,576.024 1722.37,583.279 1744.13,590.534 1765.9,597.789 1787.66,605.044 1809.43,612.299 1831.19,619.554 
  1852.96,626.809 
  "/>
<polyline clip-path="url(#clip582)" style="stroke:#000000; stroke-linecap:round; stroke-linejoin:round; stroke-width:21; stroke-opacity:1; fill:none" points="
  547.041,2259.21 547.041,-1005.59 
  "/>
<polyline clip-path="url(#clip582)" style="stroke:#0000ff; stroke-linecap:round; stroke-linejoin:round; stroke-width:21; stroke-opacity:1; fill:none" points="
  111.736,-4270.38 133.501,-4205.08 155.266,-4139.79 177.031,-4074.49 198.797,-4009.2 220.562,-3943.9 242.327,-3878.61 264.093,-3813.31 285.858,-3748.01 307.623,-3682.72 
  329.388,-3617.42 351.154,-3552.13 372.919,-3486.83 394.684,-3421.53 416.45,-3356.24 438.215,-3290.94 459.98,-3225.65 481.746,-3160.35 503.511,-3095.05 525.276,-3029.76 
  547.041,-2964.46 568.807,-2899.17 590.572,-2833.87 612.337,-2768.58 634.103,-2703.28 655.868,-2637.98 677.633,-2572.69 699.398,-2507.39 721.164,-2442.1 742.929,-2376.8 
  764.694,-2311.5 786.46,-2246.21 808.225,-2180.91 829.99,-2115.62 851.755,-2050.32 873.521,-1985.03 895.286,-1919.73 917.051,-1854.43 938.817,-1789.14 960.582,-1723.84 
  982.347,-1658.55 1004.11,-1593.25 1025.88,-1527.95 1047.64,-1462.66 1069.41,-1397.36 1091.17,-1332.07 1112.94,-1266.77 1134.7,-1201.47 1156.47,-1136.18 1178.23,-1070.88 
  1200,-1005.59 1221.77,-940.291 1243.53,-874.995 1265.3,-809.7 1287.06,-744.404 1308.83,-679.108 1330.59,-613.812 1352.36,-548.516 1374.12,-483.22 1395.89,-417.924 
  1417.65,-352.629 1439.42,-287.333 1461.18,-222.037 1482.95,-156.741 1504.71,-91.4451 1526.48,-26.1493 1548.24,39.1466 1570.01,104.442 1591.78,169.738 1613.54,235.034 
  1635.31,300.33 1657.07,365.626 1678.84,430.922 1700.6,496.218 1722.37,561.513 1744.13,626.809 1765.9,692.105 1787.66,757.401 1809.43,822.697 1831.19,887.993 
  1852.96,953.289 
  "/>
<polyline clip-path="url(#clip582)" style="stroke:#000000; stroke-linecap:round; stroke-linejoin:round; stroke-width:14; stroke-opacity:1; fill:none" points="
  1417.65,245.917 1700.6,550.631 
  "/>
<polyline clip-path="url(#clip582)" style="stroke:#000000; stroke-linecap:round; stroke-linejoin:round; stroke-width:14; stroke-opacity:1; fill:none" points="
  1689.3,512.002 1700.6,550.631 1662.92,536.498 
  "/>
<polyline clip-path="url(#clip582)" style="stroke:#000000; stroke-linecap:round; stroke-linejoin:round; stroke-width:14; stroke-opacity:1; fill:none" points="
  1700.6,550.631 1417.65,245.917 
  "/>
<circle clip-path="url(#clip582)" cx="1731.07" cy="585.455" r="31.5" fill="#ffff00" fill-rule="evenodd" fill-opacity="1" stroke="#000000" stroke-opacity="1" stroke-width="6.3"/>
<circle clip-path="url(#clip582)" cx="1635.31" cy="735.636" r="18.9" fill="#a52a2a" fill-rule="evenodd" fill-opacity="1" stroke="#000000" stroke-opacity="1" stroke-width="6.3"/>
<circle clip-path="url(#clip582)" cx="1417.65" cy="735.636" r="18.9" fill="#a52a2a" fill-rule="evenodd" fill-opacity="1" stroke="#000000" stroke-opacity="1" stroke-width="6.3"/>
<circle clip-path="url(#clip582)" cx="1417.65" cy="517.983" r="18.9" fill="#a52a2a" fill-rule="evenodd" fill-opacity="1" stroke="#000000" stroke-opacity="1" stroke-width="6.3"/>
<circle clip-path="url(#clip582)" cx="1200" cy="735.636" r="18.9" fill="#a52a2a" fill-rule="evenodd" fill-opacity="1" stroke="#000000" stroke-opacity="1" stroke-width="6.3"/>
<circle clip-path="url(#clip582)" cx="1200" cy="517.983" r="18.9" fill="#a52a2a" fill-rule="evenodd" fill-opacity="1" stroke="#000000" stroke-opacity="1" stroke-width="6.3"/>
<circle clip-path="url(#clip582)" cx="982.347" cy="735.636" r="18.9" fill="#a52a2a" fill-rule="evenodd" fill-opacity="1" stroke="#000000" stroke-opacity="1" stroke-width="6.3"/>
<circle clip-path="url(#clip582)" cx="982.347" cy="517.983" r="18.9" fill="#a52a2a" fill-rule="evenodd" fill-opacity="1" stroke="#000000" stroke-opacity="1" stroke-width="6.3"/>
<circle clip-path="url(#clip582)" cx="764.694" cy="735.636" r="18.9" fill="#a52a2a" fill-rule="evenodd" fill-opacity="1" stroke="#000000" stroke-opacity="1" stroke-width="6.3"/>
<circle clip-path="url(#clip582)" cx="764.694" cy="517.983" r="18.9" fill="#a52a2a" fill-rule="evenodd" fill-opacity="1" stroke="#000000" stroke-opacity="1" stroke-width="6.3"/>
<circle clip-path="url(#clip582)" cx="764.694" cy="300.33" r="18.9" fill="#a52a2a" fill-rule="evenodd" fill-opacity="1" stroke="#000000" stroke-opacity="1" stroke-width="6.3"/>
<circle clip-path="url(#clip582)" cx="547.041" cy="735.636" r="18.9" fill="#a52a2a" fill-rule="evenodd" fill-opacity="1" stroke="#000000" stroke-opacity="1" stroke-width="6.3"/>
<circle clip-path="url(#clip582)" cx="547.041" cy="517.983" r="18.9" fill="#a52a2a" fill-rule="evenodd" fill-opacity="1" stroke="#000000" stroke-opacity="1" stroke-width="6.3"/>
<circle clip-path="url(#clip582)" cx="547.041" cy="300.33" r="18.9" fill="#a52a2a" fill-rule="evenodd" fill-opacity="1" stroke="#000000" stroke-opacity="1" stroke-width="6.3"/>
<circle clip-path="url(#clip582)" cx="1417.65" cy="517.983" r="18.9" fill="#ff0000" fill-rule="evenodd" fill-opacity="1" stroke="#000000" stroke-opacity="1" stroke-width="6.3"/>
<path clip-path="url(#clip580)" d="M965.158 153.704 L975.386 153.704 L975.386 220.695 L1012.2 220.695 L1012.2 229.304 L965.158 229.304 L965.158 153.704 Z" fill="#000000" fill-rule="evenodd" fill-opacity="1" /><path clip-path="url(#clip580)" d="M1033.16 162.109 L1033.16 190.516 L1046.02 190.516 Q1053.16 190.516 1057.06 186.82 Q1060.96 183.123 1060.96 176.287 Q1060.96 169.502 1057.06 165.806 Q1053.16 162.109 1046.02 162.109 L1033.16 162.109 M1022.93 153.704 L1046.02 153.704 Q1058.73 153.704 1065.21 159.476 Q1071.75 165.198 1071.75 176.287 Q1071.75 187.478 1065.21 193.2 Q1058.73 198.922 1046.02 198.922 L1033.16 198.922 L1033.16 229.304 L1022.93 229.304 L1022.93 153.704 Z" fill="#000000" fill-rule="evenodd" fill-opacity="1" /><path clip-path="url(#clip580)" d="M1163.75 156.185 L1163.75 166.16 Q1157.93 163.375 1152.77 162.008 Q1147.6 160.641 1142.79 160.641 Q1134.43 160.641 1129.88 163.882 Q1125.37 167.122 1125.37 173.097 Q1125.37 178.11 1128.36 180.693 Q1131.4 183.225 1139.8 184.794 L1145.98 186.06 Q1157.42 188.238 1162.84 193.757 Q1168.31 199.226 1168.31 208.441 Q1168.31 219.43 1160.92 225.101 Q1153.58 230.772 1139.35 230.772 Q1133.98 230.772 1127.9 229.557 Q1121.88 228.342 1115.4 225.962 L1115.4 215.429 Q1121.62 218.923 1127.6 220.695 Q1133.57 222.468 1139.35 222.468 Q1148.11 222.468 1152.87 219.024 Q1157.63 215.581 1157.63 209.201 Q1157.63 203.631 1154.18 200.492 Q1150.79 197.352 1142.99 195.782 L1136.76 194.567 Q1125.32 192.288 1120.21 187.427 Q1115.09 182.566 1115.09 173.907 Q1115.09 163.882 1122.13 158.109 Q1129.22 152.336 1141.63 152.336 Q1146.94 152.336 1152.46 153.299 Q1157.98 154.261 1163.75 156.185 Z" fill="#000000" fill-rule="evenodd" fill-opacity="1" /><path clip-path="url(#clip580)" d="M1205.83 179.123 Q1198.34 179.123 1193.98 184.997 Q1189.63 190.82 1189.63 200.998 Q1189.63 211.176 1193.93 217.05 Q1198.29 222.873 1205.83 222.873 Q1213.28 222.873 1217.63 216.999 Q1221.98 211.125 1221.98 200.998 Q1221.98 190.921 1217.63 185.047 Q1213.28 179.123 1205.83 179.123 M1205.83 171.224 Q1217.98 171.224 1224.92 179.123 Q1231.86 187.022 1231.86 200.998 Q1231.86 214.923 1224.92 222.873 Q1217.98 230.772 1205.83 230.772 Q1193.63 230.772 1186.69 222.873 Q1179.8 214.923 1179.8 200.998 Q1179.8 187.022 1186.69 179.123 Q1193.63 171.224 1205.83 171.224 Z" fill="#000000" fill-rule="evenodd" fill-opacity="1" /><path clip-path="url(#clip580)" d="M1247.3 150.514 L1256.62 150.514 L1256.62 229.304 L1247.3 229.304 L1247.3 150.514 Z" fill="#000000" fill-rule="evenodd" fill-opacity="1" /><path clip-path="url(#clip580)" d="M1275.15 206.922 L1275.15 172.591 L1284.47 172.591 L1284.47 206.568 Q1284.47 214.619 1287.61 218.67 Q1290.75 222.67 1297.03 222.67 Q1304.57 222.67 1308.93 217.86 Q1313.33 213.049 1313.33 204.745 L1313.33 172.591 L1322.65 172.591 L1322.65 229.304 L1313.33 229.304 L1313.33 220.594 Q1309.94 225.759 1305.43 228.291 Q1300.98 230.772 1295.05 230.772 Q1285.28 230.772 1280.22 224.696 Q1275.15 218.619 1275.15 206.922 M1298.6 171.224 L1298.6 171.224 Z" fill="#000000" fill-rule="evenodd" fill-opacity="1" /><path clip-path="url(#clip580)" d="M1351.06 156.489 L1351.06 172.591 L1370.25 172.591 L1370.25 179.832 L1351.06 179.832 L1351.06 210.619 Q1351.06 217.556 1352.93 219.531 Q1354.85 221.506 1360.68 221.506 L1370.25 221.506 L1370.25 229.304 L1360.68 229.304 Q1349.89 229.304 1345.79 225.303 Q1341.69 221.252 1341.69 210.619 L1341.69 179.832 L1334.85 179.832 L1334.85 172.591 L1341.69 172.591 L1341.69 156.489 L1351.06 156.489 Z" fill="#000000" fill-rule="evenodd" fill-opacity="1" /><path clip-path="url(#clip580)" d="M1382.5 172.591 L1391.82 172.591 L1391.82 229.304 L1382.5 229.304 L1382.5 172.591 M1382.5 150.514 L1391.82 150.514 L1391.82 162.312 L1382.5 162.312 L1382.5 150.514 Z" fill="#000000" fill-rule="evenodd" fill-opacity="1" /><path clip-path="url(#clip580)" d="M1433.29 179.123 Q1425.8 179.123 1421.44 184.997 Q1417.09 190.82 1417.09 200.998 Q1417.09 211.176 1421.39 217.05 Q1425.75 222.873 1433.29 222.873 Q1440.73 222.873 1445.09 216.999 Q1449.44 211.125 1449.44 200.998 Q1449.44 190.921 1445.09 185.047 Q1440.73 179.123 1433.29 179.123 M1433.29 171.224 Q1445.44 171.224 1452.38 179.123 Q1459.32 187.022 1459.32 200.998 Q1459.32 214.923 1452.38 222.873 Q1445.44 230.772 1433.29 230.772 Q1421.09 230.772 1414.15 222.873 Q1407.26 214.923 1407.26 200.998 Q1407.26 187.022 1414.15 179.123 Q1421.09 171.224 1433.29 171.224 Z" fill="#000000" fill-rule="evenodd" fill-opacity="1" /><path clip-path="url(#clip580)" d="M1521.9 195.073 L1521.9 229.304 L1512.59 229.304 L1512.59 195.377 Q1512.59 187.326 1509.45 183.326 Q1506.31 179.326 1500.03 179.326 Q1492.48 179.326 1488.13 184.136 Q1483.77 188.946 1483.77 197.251 L1483.77 229.304 L1474.41 229.304 L1474.41 172.591 L1483.77 172.591 L1483.77 181.402 Q1487.12 176.287 1491.62 173.756 Q1496.18 171.224 1502.1 171.224 Q1511.88 171.224 1516.89 177.3 Q1521.9 183.326 1521.9 195.073 Z" fill="#000000" fill-rule="evenodd" fill-opacity="1" /></svg>
