<?xml version="1.0" encoding="utf-8"?>
<svg xmlns="http://www.w3.org/2000/svg" xmlns:xlink="http://www.w3.org/1999/xlink" width="350" height="350" viewBox="0 0 1400 1400">
<defs>
  <clipPath id="clip550">
    <rect x="0" y="0" width="1400" height="1400"/>
  </clipPath>
</defs>
<path clip-path="url(#clip550)" d="
M0 1400 L1400 1400 L1400 0 L0 0  Z
  " fill="#ffffff" fill-rule="evenodd" fill-opacity="1"/>
<defs>
  <clipPath id="clip551">
    <rect x="280" y="140" width="981" height="981"/>
  </clipPath>
</defs>
<path clip-path="url(#clip550)" d="
M834.188 166.78 L1352.76 166.78 L1352.76 47.2441 L834.188 47.2441  Z
  " fill="#ffffff" fill-rule="evenodd" fill-opacity="1"/>
<defs>
  <clipPath id="clip552">
    <rect x="834" y="47" width="520" height="121"/>
  </clipPath>
</defs>
<polyline clip-path="url(#clip550)" style="stroke:#000000; stroke-linecap:butt; stroke-linejoin:round; stroke-width:4; stroke-opacity:1; fill:none" points="
  834.188,166.78 1352.76,166.78 
  "/>
<polyline clip-path="url(#clip550)" style="stroke:#000000; stroke-linecap:butt; stroke-linejoin:round; stroke-width:4; stroke-opacity:1; fill:none" points="
  1171.26,166.78 1171.26,147.882 
  "/>
<polyline clip-path="url(#clip550)" style="stroke:#000000; stroke-linecap:butt; stroke-linejoin:round; stroke-width:4; stroke-opacity:1; fill:none" points="
  1326.83,166.78 1326.83,147.882 
  "/>
<path clip-path="url(#clip550)" d="M827.168 286.378 Q793.765 286.378 776.85 319.352 Q760.148 352.112 760.148 418.061 Q760.148 483.796 776.85 516.77 Q793.765 549.53 827.168 549.53 Q860.784 549.53 877.486 516.77 Q894.401 483.796 894.401 418.061 Q894.401 352.112 877.486 319.352 Q860.784 286.378 827.168 286.378 M827.168 252.119 Q880.912 252.119 909.175 294.728 Q937.653 337.124 937.653 418.061 Q937.653 498.784 909.175 541.394 Q880.912 583.789 827.168 583.789 Q773.424 583.789 744.946 541.394 Q716.682 498.784 716.682 418.061 Q716.682 337.124 744.946 294.728 Q773.424 252.119 827.168 252.119 Z" fill="#000000" fill-rule="evenodd" fill-opacity="1" /><path clip-path="url(#clip550)" d="M1013.67 523.194 L1058.84 523.194 L1058.84 577.58 L1013.67 577.58 L1013.67 523.194 Z" fill="#000000" fill-rule="evenodd" fill-opacity="1" /><path clip-path="url(#clip550)" d="M1250.91 400.503 Q1221.79 400.503 1204.66 420.416 Q1187.74 440.329 1187.74 475.017 Q1187.74 509.49 1204.66 529.617 Q1221.79 549.53 1250.91 549.53 Q1280.03 549.53 1296.95 529.617 Q1314.07 509.49 1314.07 475.017 Q1314.07 440.329 1296.95 420.416 Q1280.03 400.503 1250.91 400.503 M1336.77 264.966 L1336.77 304.364 Q1320.5 296.655 1303.8 292.587 Q1287.31 288.519 1271.04 288.519 Q1228.21 288.519 1205.52 317.425 Q1183.03 346.331 1179.82 404.786 Q1192.46 386.157 1211.51 376.308 Q1230.57 366.244 1253.48 366.244 Q1301.66 366.244 1329.49 395.579 Q1357.54 424.699 1357.54 475.017 Q1357.54 524.264 1328.42 554.027 Q1299.3 583.789 1250.91 583.789 Q1195.45 583.789 1166.12 541.394 Q1136.78 498.784 1136.78 418.061 Q1136.78 342.263 1172.76 297.298 Q1208.73 252.119 1269.32 252.119 Q1285.6 252.119 1302.08 255.33 Q1318.79 258.542 1336.77 264.966 Z" fill="#000000" fill-rule="evenodd" fill-opacity="1" /><path clip-path="url(#clip550)" d="M1432.48 257.9 L1602.28 257.9 L1602.28 294.3 L1472.09 294.3 L1472.09 372.668 Q1481.52 369.456 1490.94 367.957 Q1500.36 366.244 1509.78 366.244 Q1563.31 366.244 1594.57 395.579 Q1625.83 424.913 1625.83 475.017 Q1625.83 526.619 1593.71 555.311 Q1561.6 583.789 1503.14 583.789 Q1483.01 583.789 1462.03 580.363 Q1441.26 576.937 1418.99 570.086 L1418.99 526.619 Q1438.26 537.111 1458.82 542.25 Q1479.37 547.389 1502.29 547.389 Q1539.33 547.389 1560.95 527.904 Q1582.58 508.419 1582.58 475.017 Q1582.58 441.614 1560.95 422.129 Q1539.33 402.644 1502.29 402.644 Q1484.94 402.644 1467.6 406.499 Q1450.47 410.353 1432.48 418.489 L1432.48 257.9 Z" fill="#000000" fill-rule="evenodd" fill-opacity="1" /><path clip-path="url(#clip550)" d="M982.738 286.378 Q949.335 286.378 932.42 319.352 Q915.719 352.112 915.719 418.061 Q915.719 483.796 932.42 516.77 Q949.335 549.53 982.738 549.53 Q1016.35 549.53 1033.06 516.77 Q1049.97 483.796 1049.97 418.061 Q1049.97 352.112 1033.06 319.352 Q1016.35 286.378 982.738 286.378 M982.738 252.119 Q1036.48 252.119 1064.75 294.728 Q1093.22 337.124 1093.22 418.061 Q1093.22 498.784 1064.75 541.394 Q1036.48 583.789 982.738 583.789 Q928.994 583.789 900.516 541.394 Q872.252 498.784 872.252 418.061 Q872.252 337.124 900.516 294.728 Q928.994 252.119 982.738 252.119 Z" fill="#000000" fill-rule="evenodd" fill-opacity="1" /><path clip-path="url(#clip550)" d="M1169.24 523.194 L1214.41 523.194 L1214.41 577.58 L1169.24 577.58 L1169.24 523.194 Z" fill="#000000" fill-rule="evenodd" fill-opacity="1" /><path clip-path="url(#clip550)" d="M1309.91 570.942 L1309.91 531.544 Q1326.19 539.253 1342.89 543.321 Q1359.59 547.389 1375.65 547.389 Q1418.47 547.389 1440.95 518.697 Q1463.65 489.791 1466.86 431.122 Q1454.44 449.537 1435.39 459.386 Q1416.33 469.236 1393.2 469.236 Q1345.24 469.236 1317.19 440.329 Q1289.36 411.209 1289.36 360.891 Q1289.36 311.644 1318.48 281.881 Q1347.6 252.119 1395.99 252.119 Q1451.44 252.119 1480.57 294.728 Q1509.9 337.124 1509.9 418.061 Q1509.9 493.645 1473.93 538.824 Q1438.17 583.789 1377.57 583.789 Q1361.3 583.789 1344.6 580.578 Q1327.9 577.366 1309.91 570.942 M1395.99 435.405 Q1425.11 435.405 1442.02 415.492 Q1459.15 395.579 1459.15 360.891 Q1459.15 326.418 1442.02 306.505 Q1425.11 286.378 1395.99 286.378 Q1366.87 286.378 1349.74 306.505 Q1332.82 326.418 1332.82 360.891 Q1332.82 395.579 1349.74 415.492 Q1366.87 435.405 1395.99 435.405 Z" fill="#000000" fill-rule="evenodd" fill-opacity="1" /><path clip-path="url(#clip550)" d="M1588.05 257.9 L1757.85 257.9 L1757.85 294.3 L1627.67 294.3 L1627.67 372.668 Q1637.09 369.456 1646.51 367.957 Q1655.93 366.244 1665.35 366.244 Q1718.88 366.244 1750.14 395.579 Q1781.4 424.913 1781.4 475.017 Q1781.4 526.619 1749.28 555.311 Q1717.17 583.789 1658.71 583.789 Q1638.59 583.789 1617.6 580.363 Q1596.83 576.937 1574.56 570.086 L1574.56 526.619 Q1593.83 537.111 1614.39 542.25 Q1634.95 547.389 1657.86 547.389 Q1694.9 547.389 1716.52 527.904 Q1738.15 508.419 1738.15 475.017 Q1738.15 441.614 1716.52 422.129 Q1694.9 402.644 1657.86 402.644 Q1640.51 402.644 1623.17 406.499 Q1606.04 410.353 1588.05 418.489 L1588.05 257.9 Z" fill="#000000" fill-rule="evenodd" fill-opacity="1" /><path clip-path="url(#clip550)" d="M-328.204 755.428 L-49.5947 755.428 L-49.5947 805.601 L-268.587 805.601 L-268.587 936.052 L-58.7439 936.052 L-58.7439 986.225 L-268.587 986.225 L-268.587 1145.89 L-44.2822 1145.89 L-44.2822 1196.07 L-328.204 1196.07 L-328.204 755.428 Z" fill="#000000" fill-rule="evenodd" fill-opacity="1" /><path clip-path="url(#clip550)" d="M218.685 736.834 L218.685 781.99 L166.741 781.99 Q137.522 781.99 126.012 793.796 Q114.797 805.601 114.797 836.295 L114.797 865.514 L204.223 865.514 L204.223 907.719 L114.797 907.719 L114.797 1196.07 L60.1964 1196.07 L60.1964 907.719 L8.25225 907.719 L8.25225 865.514 L60.1964 865.514 L60.1964 842.493 Q60.1964 787.303 85.8734 762.216 Q111.55 736.834 167.331 736.834 L218.685 736.834 Z" fill="#000000" fill-rule="evenodd" fill-opacity="1" /><path clip-path="url(#clip550)" d="M431.479 736.834 L431.479 781.99 L379.535 781.99 Q350.316 781.99 338.806 793.796 Q327.591 805.601 327.591 836.295 L327.591 865.514 L417.017 865.514 L417.017 907.719 L327.591 907.719 L327.591 1196.07 L272.99 1196.07 L272.99 907.719 L221.046 907.719 L221.046 865.514 L272.99 865.514 L272.99 842.493 Q272.99 787.303 298.667 762.216 Q324.344 736.834 380.125 736.834 L431.479 736.834 Z" fill="#000000" fill-rule="evenodd" fill-opacity="1" /><path clip-path="url(#clip550)" d="M476.93 865.514 L531.236 865.514 L531.236 1196.07 L476.93 1196.07 L476.93 865.514 M476.93 736.834 L531.236 736.834 L531.236 805.601 L476.93 805.601 L476.93 736.834 Z" fill="#000000" fill-rule="evenodd" fill-opacity="1" /><path clip-path="url(#clip550)" d="M882.744 878.205 L882.744 928.969 Q859.723 916.278 836.408 910.08 Q813.387 903.587 789.776 903.587 Q736.946 903.587 707.728 937.232 Q678.509 970.583 678.509 1031.09 Q678.509 1091.59 707.728 1125.23 Q736.946 1158.59 789.776 1158.59 Q813.387 1158.59 836.408 1152.39 Q859.723 1145.89 882.744 1133.2 L882.744 1183.38 Q860.019 1194 835.522 1199.31 Q811.321 1204.63 783.873 1204.63 Q709.203 1204.63 665.228 1157.7 Q621.252 1110.77 621.252 1031.09 Q621.252 950.218 665.523 903.882 Q710.089 857.545 787.415 857.545 Q812.501 857.545 836.408 862.858 Q860.314 867.875 882.744 878.205 Z" fill="#000000" fill-rule="evenodd" fill-opacity="1" /><path clip-path="url(#clip550)" d="M977.188 865.514 L1031.49 865.514 L1031.49 1196.07 L977.188 1196.07 L977.188 865.514 M977.188 736.834 L1031.49 736.834 L1031.49 805.601 L977.188 805.601 L977.188 736.834 Z" fill="#000000" fill-rule="evenodd" fill-opacity="1" /><path clip-path="url(#clip550)" d="M1427.86 1017.21 L1427.86 1043.78 L1178.18 1043.78 Q1181.72 1099.85 1211.82 1129.37 Q1242.22 1158.59 1296.23 1158.59 Q1327.52 1158.59 1356.73 1150.91 Q1386.25 1143.24 1415.17 1127.89 L1415.17 1179.25 Q1385.95 1191.64 1355.26 1198.13 Q1324.56 1204.63 1292.98 1204.63 Q1213.89 1204.63 1167.55 1158.59 Q1121.51 1112.54 1121.51 1034.04 Q1121.51 952.875 1165.19 905.358 Q1209.17 857.545 1283.54 857.545 Q1350.24 857.545 1388.9 900.635 Q1427.86 943.43 1427.86 1017.21 M1373.56 1001.28 Q1372.97 956.711 1348.47 930.149 Q1324.27 903.587 1284.13 903.587 Q1238.68 903.587 1211.23 929.264 Q1184.08 954.941 1179.95 1001.57 L1373.56 1001.28 Z" fill="#000000" fill-rule="evenodd" fill-opacity="1" /><path clip-path="url(#clip550)" d="M1791.77 996.555 L1791.77 1196.07 L1737.46 1196.07 L1737.46 998.326 Q1737.46 951.399 1719.16 928.083 Q1700.86 904.767 1664.27 904.767 Q1620.29 904.767 1594.91 932.805 Q1569.53 960.843 1569.53 1009.25 L1569.53 1196.07 L1514.93 1196.07 L1514.93 865.514 L1569.53 865.514 L1569.53 916.868 Q1589.01 887.059 1615.27 872.302 Q1641.84 857.545 1676.37 857.545 Q1733.33 857.545 1762.55 892.962 Q1791.77 928.083 1791.77 996.555 Z" fill="#000000" fill-rule="evenodd" fill-opacity="1" /><path clip-path="url(#clip550)" d="M2137.96 878.205 L2137.96 928.969 Q2114.94 916.278 2091.63 910.08 Q2068.61 903.587 2044.99 903.587 Q1992.17 903.587 1962.95 937.232 Q1933.73 970.583 1933.73 1031.09 Q1933.73 1091.59 1962.95 1125.23 Q1992.17 1158.59 2044.99 1158.59 Q2068.61 1158.59 2091.63 1152.39 Q2114.94 1145.89 2137.96 1133.2 L2137.96 1183.38 Q2115.24 1194 2090.74 1199.31 Q2066.54 1204.63 2039.09 1204.63 Q1964.42 1204.63 1920.45 1157.7 Q1876.47 1110.77 1876.47 1031.09 Q1876.47 950.218 1920.74 903.882 Q1965.31 857.545 2042.63 857.545 Q2067.72 857.545 2091.63 862.858 Q2115.53 867.875 2137.96 878.205 Z" fill="#000000" fill-rule="evenodd" fill-opacity="1" /><path clip-path="url(#clip550)" d="M2369.94 1226.76 Q2346.92 1285.79 2325.08 1303.79 Q2303.24 1321.8 2266.64 1321.8 L2223.26 1321.8 L2223.26 1276.35 L2255.13 1276.35 Q2277.56 1276.35 2289.96 1265.72 Q2302.35 1255.1 2317.41 1215.55 L2327.15 1190.76 L2193.45 865.514 L2251 865.514 L2354.3 1124.05 L2457.6 865.514 L2515.15 865.514 L2369.94 1226.76 Z" fill="#000000" fill-rule="evenodd" fill-opacity="1" /><polyline clip-path="url(#clip550)" style="stroke:#000000; stroke-linecap:butt; stroke-linejoin:round; stroke-width:4; stroke-opacity:1; fill:none" points="
  834.188,166.78 834.188,47.2441 
  "/>
<path clip-path="url(#clip550)" d="M253.297 399.345 L316.161 399.345 Q288.123 429.449 274.252 463.685 Q260.38 497.626 260.38 535.994 Q260.38 611.549 306.717 651.688 Q352.758 691.827 440.119 691.827 Q527.185 691.827 573.521 651.688 Q619.563 611.549 619.563 535.994 Q619.563 497.626 605.691 463.685 Q591.82 429.449 563.782 399.345 L626.056 399.345 Q647.305 430.63 657.93 465.751 Q668.555 500.578 668.555 539.536 Q668.555 639.587 607.462 697.139 Q546.073 754.691 440.119 754.691 Q333.87 754.691 272.776 697.139 Q211.388 639.587 211.388 539.536 Q211.388 499.987 222.013 465.161 Q232.342 430.04 253.297 399.345 Z" fill="#000000" fill-rule="evenodd" fill-opacity="1" /><path clip-path="url(#clip550)" d="M367.515 181.534 Q367.515 225.214 401.751 250.596 Q435.692 275.978 495.015 275.978 Q554.337 275.978 588.573 250.891 Q622.514 225.51 622.514 181.534 Q622.514 138.149 588.278 112.767 Q554.042 87.3853 495.015 87.3853 Q436.282 87.3853 402.046 112.767 Q367.515 138.149 367.515 181.534 M321.474 181.534 Q321.474 110.701 367.515 70.2674 Q413.557 29.8336 495.015 29.8336 Q576.177 29.8336 622.514 70.2674 Q668.555 110.701 668.555 181.534 Q668.555 252.662 622.514 293.096 Q576.177 333.235 495.015 333.235 Q413.557 333.235 367.515 293.096 Q321.474 252.662 321.474 181.534 Z" fill="#000000" fill-rule="evenodd" fill-opacity="1" /><path clip-path="url(#clip550)" d="M339.182 -270.911 L390.536 -270.911 Q378.73 -247.891 372.828 -223.099 Q366.925 -198.308 366.925 -171.745 Q366.925 -131.311 379.321 -110.947 Q391.717 -90.8776 416.508 -90.8776 Q435.397 -90.8776 446.317 -105.339 Q456.942 -119.801 466.681 -163.481 L470.813 -182.075 Q483.209 -239.922 505.935 -264.123 Q528.365 -288.62 568.799 -288.62 Q614.84 -288.62 641.698 -252.023 Q668.555 -215.721 668.555 -151.971 Q668.555 -125.409 663.243 -96.4852 Q658.226 -67.8569 647.896 -35.9821 L591.82 -35.9821 Q607.462 -66.0861 615.431 -95.3047 Q623.104 -124.523 623.104 -153.152 Q623.104 -191.519 610.118 -212.179 Q596.837 -232.839 572.931 -232.839 Q550.796 -232.839 538.99 -217.787 Q527.185 -203.03 516.264 -152.561 L511.837 -133.673 Q501.212 -83.204 479.372 -60.7736 Q457.237 -38.3432 418.869 -38.3432 Q372.237 -38.3432 346.856 -71.3985 Q321.474 -104.454 321.474 -165.252 Q321.474 -195.356 325.901 -221.919 Q330.328 -248.481 339.182 -270.911 Z" fill="#000000" fill-rule="evenodd" fill-opacity="1" /><path clip-path="url(#clip550)" d="M235.589 -428.81 L329.443 -428.81 L329.443 -540.667 L371.647 -540.667 L371.647 -428.81 L551.091 -428.81 Q591.524 -428.81 603.035 -439.73 Q614.545 -450.945 614.545 -484.886 L614.545 -540.667 L659.996 -540.667 L659.996 -484.886 Q659.996 -422.022 636.68 -398.116 Q613.07 -374.209 551.091 -374.209 L371.647 -374.209 L371.647 -334.366 L329.443 -334.366 L329.443 -374.209 L235.589 -374.209 L235.589 -428.81 Z" fill="#000000" fill-rule="evenodd" fill-opacity="1" /><polyline clip-path="url(#clip552)" style="stroke:#000000; stroke-linecap:butt; stroke-linejoin:round; stroke-width:12; stroke-opacity:1; fill:none" points="
  834.188,166.78 886.045,165.584 937.902,161.998 989.759,156.022 1041.62,147.654 1093.47,136.896 1145.33,123.747 1197.19,108.207 1249.04,90.277 1300.9,69.9559 
  1352.76,47.2441 
  "/>
<circle clip-path="url(#clip552)" cx="1171.26" cy="116.276" r="36" fill="#ff0000" fill-rule="evenodd" fill-opacity="1" stroke="#000000" stroke-opacity="1" stroke-width="2.8"/>
<circle clip-path="url(#clip552)" cx="1326.83" cy="58.8988" r="36" fill="#ff0000" fill-rule="evenodd" fill-opacity="1" stroke="#000000" stroke-opacity="1" stroke-width="2.8"/>
<polyline clip-path="url(#clip552)" style="stroke:#0000ff; stroke-linecap:butt; stroke-linejoin:round; stroke-width:12; stroke-opacity:1; fill:none" stroke-dasharray="48, 30" points="
  834.188,240.593 886.045,221.467 937.902,202.342 989.759,183.216 1041.62,164.09 1093.47,144.965 1145.33,125.839 1197.19,106.713 1249.04,87.5874 1300.9,68.4617 
  1352.76,49.336 
  "/>
<polyline clip-path="url(#clip552)" style="stroke:#ff0000; stroke-linecap:butt; stroke-linejoin:round; stroke-width:12; stroke-opacity:1; fill:none" stroke-dasharray="6, 12" points="
  834.188,203.836 886.045,188.296 937.902,172.757 989.759,157.217 1041.62,141.677 1093.47,126.138 1145.33,110.598 1197.19,95.0584 1249.04,79.5187 1300.9,63.9791 
  1352.76,48.4395 
  "/>
</svg>
