<?xml version="1.0" encoding="utf-8"?>
<svg xmlns="http://www.w3.org/2000/svg" xmlns:xlink="http://www.w3.org/1999/xlink" width="350" height="350" viewBox="0 0 1400 1400">
<defs>
  <clipPath id="clip180">
    <rect x="0" y="0" width="1400" height="1400"/>
  </clipPath>
</defs>
<path clip-path="url(#clip180)" d="
M0 1400 L1400 1400 L1400 0 L0 0  Z
  " fill="#ffffff" fill-rule="evenodd" fill-opacity="1"/>
<defs>
  <clipPath id="clip181">
    <rect x="280" y="140" width="981" height="981"/>
  </clipPath>
</defs>
<path clip-path="url(#clip180)" d="
M445.388 827.74 L1352.76 827.74 L1352.76 47.2441 L445.388 47.2441  Z
  " fill="#ffffff" fill-rule="evenodd" fill-opacity="1"/>
<defs>
  <clipPath id="clip182">
    <rect x="445" y="47" width="908" height="781"/>
  </clipPath>
</defs>
<polyline clip-path="url(#clip180)" style="stroke:#000000; stroke-linecap:butt; stroke-linejoin:round; stroke-width:4; stroke-opacity:1; fill:none" points="
  445.388,827.74 1352.76,827.74 
  "/>
<polyline clip-path="url(#clip180)" style="stroke:#000000; stroke-linecap:butt; stroke-linejoin:round; stroke-width:4; stroke-opacity:1; fill:none" points="
  1035.18,827.74 1035.18,808.842 
  "/>
<polyline clip-path="url(#clip180)" style="stroke:#000000; stroke-linecap:butt; stroke-linejoin:round; stroke-width:4; stroke-opacity:1; fill:none" points="
  1307.39,827.74 1307.39,808.842 
  "/>
<path clip-path="url(#clip180)" d="M886.382 885.815 Q871.937 885.815 864.623 900.074 Q857.4 914.24 857.4 942.759 Q857.4 971.185 864.623 985.444 Q871.937 999.61 886.382 999.61 Q900.919 999.61 908.141 985.444 Q915.456 971.185 915.456 942.759 Q915.456 914.24 908.141 900.074 Q900.919 885.815 886.382 885.815 M886.382 871 Q909.622 871 921.845 889.426 Q934.159 907.759 934.159 942.759 Q934.159 977.666 921.845 996.092 Q909.622 1014.43 886.382 1014.43 Q863.141 1014.43 850.826 996.092 Q838.604 977.666 838.604 942.759 Q838.604 907.759 850.826 889.426 Q863.141 871 886.382 871 Z" fill="#000000" fill-rule="evenodd" fill-opacity="1" /><path clip-path="url(#clip180)" d="M967.029 988.221 L986.566 988.221 L986.566 1011.74 L967.029 1011.74 L967.029 988.221 Z" fill="#000000" fill-rule="evenodd" fill-opacity="1" /><path clip-path="url(#clip180)" d="M1069.62 935.166 Q1057.03 935.166 1049.62 943.777 Q1042.31 952.388 1042.31 967.388 Q1042.31 982.296 1049.62 990.999 Q1057.03 999.61 1069.62 999.61 Q1082.21 999.61 1089.53 990.999 Q1096.94 982.296 1096.94 967.388 Q1096.94 952.388 1089.53 943.777 Q1082.21 935.166 1069.62 935.166 M1106.75 876.555 L1106.75 893.592 Q1099.71 890.259 1092.49 888.5 Q1085.36 886.741 1078.33 886.741 Q1059.81 886.741 1049.99 899.24 Q1040.27 911.74 1038.88 937.018 Q1044.34 928.963 1052.58 924.703 Q1060.83 920.351 1070.73 920.351 Q1091.57 920.351 1103.6 933.037 Q1115.73 945.629 1115.73 967.388 Q1115.73 988.684 1103.14 1001.55 Q1090.55 1014.43 1069.62 1014.43 Q1045.64 1014.43 1032.96 996.092 Q1020.27 977.666 1020.27 942.759 Q1020.27 909.981 1035.83 890.537 Q1051.38 871 1077.58 871 Q1084.62 871 1091.75 872.389 Q1098.97 873.778 1106.75 876.555 Z" fill="#000000" fill-rule="evenodd" fill-opacity="1" /><path clip-path="url(#clip180)" d="M1148.14 873.5 L1221.57 873.5 L1221.57 889.24 L1165.27 889.24 L1165.27 923.129 Q1169.34 921.74 1173.42 921.092 Q1177.49 920.351 1181.57 920.351 Q1204.71 920.351 1218.23 933.037 Q1231.75 945.722 1231.75 967.388 Q1231.75 989.703 1217.86 1002.11 Q1203.97 1014.43 1178.7 1014.43 Q1169.99 1014.43 1160.92 1012.94 Q1151.94 1011.46 1142.31 1008.5 L1142.31 989.703 Q1150.64 994.24 1159.53 996.462 Q1168.42 998.684 1178.32 998.684 Q1194.34 998.684 1203.69 990.258 Q1213.05 981.833 1213.05 967.388 Q1213.05 952.944 1203.69 944.518 Q1194.34 936.092 1178.32 936.092 Q1170.82 936.092 1163.32 937.759 Q1155.92 939.425 1148.14 942.944 L1148.14 873.5 Z" fill="#000000" fill-rule="evenodd" fill-opacity="1" /><path clip-path="url(#clip180)" d="M1158.59 885.815 Q1144.15 885.815 1136.83 900.074 Q1129.61 914.24 1129.61 942.759 Q1129.61 971.185 1136.83 985.444 Q1144.15 999.61 1158.59 999.61 Q1173.13 999.61 1180.35 985.444 Q1187.67 971.185 1187.67 942.759 Q1187.67 914.24 1180.35 900.074 Q1173.13 885.815 1158.59 885.815 M1158.59 871 Q1181.83 871 1194.05 889.426 Q1206.37 907.759 1206.37 942.759 Q1206.37 977.666 1194.05 996.092 Q1181.83 1014.43 1158.59 1014.43 Q1135.35 1014.43 1123.04 996.092 Q1110.81 977.666 1110.81 942.759 Q1110.81 907.759 1123.04 889.426 Q1135.35 871 1158.59 871 Z" fill="#000000" fill-rule="evenodd" fill-opacity="1" /><path clip-path="url(#clip180)" d="M1239.24 988.221 L1258.78 988.221 L1258.78 1011.74 L1239.24 1011.74 L1239.24 988.221 Z" fill="#000000" fill-rule="evenodd" fill-opacity="1" /><path clip-path="url(#clip180)" d="M1300.07 1008.87 L1300.07 991.833 Q1307.11 995.166 1314.33 996.925 Q1321.55 998.684 1328.5 998.684 Q1347.02 998.684 1356.74 986.277 Q1366.55 973.777 1367.94 948.407 Q1362.57 956.37 1354.33 960.629 Q1346.09 964.888 1336.09 964.888 Q1315.35 964.888 1303.22 952.388 Q1291.18 939.796 1291.18 918.037 Q1291.18 896.74 1303.78 883.87 Q1316.37 871 1337.29 871 Q1361.28 871 1373.87 889.426 Q1386.55 907.759 1386.55 942.759 Q1386.55 975.444 1371 994.981 Q1355.54 1014.43 1329.33 1014.43 Q1322.29 1014.43 1315.07 1013.04 Q1307.85 1011.65 1300.07 1008.87 M1337.29 950.259 Q1349.89 950.259 1357.2 941.648 Q1364.61 933.037 1364.61 918.037 Q1364.61 903.129 1357.2 894.518 Q1349.89 885.815 1337.29 885.815 Q1324.7 885.815 1317.29 894.518 Q1309.98 903.129 1309.98 918.037 Q1309.98 933.037 1317.29 941.648 Q1324.7 950.259 1337.29 950.259 Z" fill="#000000" fill-rule="evenodd" fill-opacity="1" /><path clip-path="url(#clip180)" d="M1420.35 873.5 L1493.78 873.5 L1493.78 889.24 L1437.48 889.24 L1437.48 923.129 Q1441.55 921.74 1445.63 921.092 Q1449.7 920.351 1453.78 920.351 Q1476.92 920.351 1490.44 933.037 Q1503.96 945.722 1503.96 967.388 Q1503.96 989.703 1490.07 1002.11 Q1476.18 1014.43 1450.91 1014.43 Q1442.2 1014.43 1433.13 1012.94 Q1424.15 1011.46 1414.52 1008.5 L1414.52 989.703 Q1422.85 994.24 1431.74 996.462 Q1440.63 998.684 1450.53 998.684 Q1466.55 998.684 1475.91 990.258 Q1485.26 981.833 1485.26 967.388 Q1485.26 952.944 1475.91 944.518 Q1466.55 936.092 1450.53 936.092 Q1443.03 936.092 1435.53 937.759 Q1428.13 939.425 1420.35 942.944 L1420.35 873.5 Z" fill="#000000" fill-rule="evenodd" fill-opacity="1" /><path clip-path="url(#clip180)" d="M313.676 1092.39 L428.398 1092.39 L428.398 1113.05 L338.224 1113.05 L338.224 1166.76 L424.63 1166.76 L424.63 1187.42 L338.224 1187.42 L338.224 1253.17 L430.585 1253.17 L430.585 1273.83 L313.676 1273.83 L313.676 1092.39 Z" fill="#000000" fill-rule="evenodd" fill-opacity="1" /><path clip-path="url(#clip180)" d="M538.866 1084.73 L538.866 1103.33 L517.477 1103.33 Q505.446 1103.33 500.706 1108.19 Q496.088 1113.05 496.088 1125.69 L496.088 1137.72 L532.911 1137.72 L532.911 1155.1 L496.088 1155.1 L496.088 1273.83 L473.606 1273.83 L473.606 1155.1 L452.217 1155.1 L452.217 1137.72 L473.606 1137.72 L473.606 1128.24 Q473.606 1105.51 484.179 1095.18 Q494.751 1084.73 517.72 1084.73 L538.866 1084.73 Z" fill="#000000" fill-rule="evenodd" fill-opacity="1" /><path clip-path="url(#clip180)" d="M626.487 1084.73 L626.487 1103.33 L605.098 1103.33 Q593.067 1103.33 588.327 1108.19 Q583.709 1113.05 583.709 1125.69 L583.709 1137.72 L620.532 1137.72 L620.532 1155.1 L583.709 1155.1 L583.709 1273.83 L561.227 1273.83 L561.227 1155.1 L539.838 1155.1 L539.838 1137.72 L561.227 1137.72 L561.227 1128.24 Q561.227 1105.51 571.8 1095.18 Q582.372 1084.73 605.341 1084.73 L626.487 1084.73 Z" fill="#000000" fill-rule="evenodd" fill-opacity="1" /><path clip-path="url(#clip180)" d="M645.202 1137.72 L667.563 1137.72 L667.563 1273.83 L645.202 1273.83 L645.202 1137.72 M645.202 1084.73 L667.563 1084.73 L667.563 1113.05 L645.202 1113.05 L645.202 1084.73 Z" fill="#000000" fill-rule="evenodd" fill-opacity="1" /><path clip-path="url(#clip180)" d="M812.302 1142.94 L812.302 1163.85 Q802.823 1158.62 793.222 1156.07 Q783.743 1153.39 774.021 1153.39 Q752.267 1153.39 740.236 1167.25 Q728.205 1180.98 728.205 1205.89 Q728.205 1230.81 740.236 1244.66 Q752.267 1258.39 774.021 1258.39 Q783.743 1258.39 793.222 1255.84 Q802.823 1253.17 812.302 1247.94 L812.302 1268.6 Q802.944 1272.98 792.857 1275.16 Q782.892 1277.35 771.59 1277.35 Q740.844 1277.35 722.736 1258.03 Q704.629 1238.71 704.629 1205.89 Q704.629 1172.6 722.858 1153.52 Q741.208 1134.44 773.048 1134.44 Q783.378 1134.44 793.222 1136.62 Q803.066 1138.69 812.302 1142.94 Z" fill="#000000" fill-rule="evenodd" fill-opacity="1" /><path clip-path="url(#clip180)" d="M851.19 1137.72 L873.551 1137.72 L873.551 1273.83 L851.19 1273.83 L851.19 1137.72 M851.19 1084.73 L873.551 1084.73 L873.551 1113.05 L851.19 1113.05 L851.19 1084.73 Z" fill="#000000" fill-rule="evenodd" fill-opacity="1" /><path clip-path="url(#clip180)" d="M1036.76 1200.18 L1036.76 1211.12 L933.95 1211.12 Q935.409 1234.21 947.805 1246.36 Q960.322 1258.39 982.561 1258.39 Q995.443 1258.39 1007.47 1255.23 Q1019.63 1252.07 1031.54 1245.76 L1031.54 1266.9 Q1019.51 1272 1006.87 1274.68 Q994.228 1277.35 981.224 1277.35 Q948.655 1277.35 929.575 1258.39 Q910.617 1239.44 910.617 1207.11 Q910.617 1173.69 928.603 1154.12 Q946.711 1134.44 977.336 1134.44 Q1004.8 1134.44 1020.72 1152.18 Q1036.76 1169.8 1036.76 1200.18 M1014.4 1193.62 Q1014.16 1175.27 1004.07 1164.33 Q994.106 1153.39 977.579 1153.39 Q958.863 1153.39 947.561 1163.97 Q936.381 1174.54 934.68 1193.74 L1014.4 1193.62 Z" fill="#000000" fill-rule="evenodd" fill-opacity="1" /><path clip-path="url(#clip180)" d="M1186.61 1191.68 L1186.61 1273.83 L1164.24 1273.83 L1164.24 1192.4 Q1164.24 1173.08 1156.71 1163.48 Q1149.17 1153.88 1134.11 1153.88 Q1116 1153.88 1105.55 1165.43 Q1095.1 1176.97 1095.1 1196.9 L1095.1 1273.83 L1072.61 1273.83 L1072.61 1137.72 L1095.1 1137.72 L1095.1 1158.86 Q1103.12 1146.59 1113.93 1140.51 Q1124.87 1134.44 1139.09 1134.44 Q1162.54 1134.44 1174.57 1149.02 Q1186.61 1163.48 1186.61 1191.68 Z" fill="#000000" fill-rule="evenodd" fill-opacity="1" /><path clip-path="url(#clip180)" d="M1329.16 1142.94 L1329.16 1163.85 Q1319.68 1158.62 1310.08 1156.07 Q1300.6 1153.39 1290.88 1153.39 Q1269.12 1153.39 1257.09 1167.25 Q1245.06 1180.98 1245.06 1205.89 Q1245.06 1230.81 1257.09 1244.66 Q1269.12 1258.39 1290.88 1258.39 Q1300.6 1258.39 1310.08 1255.84 Q1319.68 1253.17 1329.16 1247.94 L1329.16 1268.6 Q1319.8 1272.98 1309.71 1275.16 Q1299.75 1277.35 1288.45 1277.35 Q1257.7 1277.35 1239.59 1258.03 Q1221.48 1238.71 1221.48 1205.89 Q1221.48 1172.6 1239.71 1153.52 Q1258.06 1134.44 1289.9 1134.44 Q1300.23 1134.44 1310.08 1136.62 Q1319.92 1138.69 1329.16 1142.94 Z" fill="#000000" fill-rule="evenodd" fill-opacity="1" /><path clip-path="url(#clip180)" d="M1424.68 1286.47 Q1415.2 1310.77 1406.2 1318.19 Q1397.21 1325.6 1382.14 1325.6 L1364.28 1325.6 L1364.28 1306.88 L1377.4 1306.88 Q1386.64 1306.88 1391.74 1302.51 Q1396.85 1298.13 1403.05 1281.85 L1407.06 1271.64 L1352 1137.72 L1375.7 1137.72 L1418.24 1244.18 L1460.77 1137.72 L1484.47 1137.72 L1424.68 1286.47 Z" fill="#000000" fill-rule="evenodd" fill-opacity="1" /><polyline clip-path="url(#clip180)" style="stroke:#000000; stroke-linecap:butt; stroke-linejoin:round; stroke-width:4; stroke-opacity:1; fill:none" points="
  445.388,827.74 445.388,47.2441 
  "/>
<path clip-path="url(#clip180)" d="M181.492 557.865 L207.377 557.865 Q195.832 570.26 190.12 584.358 Q184.409 598.333 184.409 614.132 Q184.409 645.243 203.488 661.77 Q222.447 678.298 258.419 678.298 Q294.269 678.298 313.349 661.77 Q332.307 645.243 332.307 614.132 Q332.307 598.333 326.595 584.358 Q320.884 570.26 309.339 557.865 L334.981 557.865 Q343.731 570.746 348.106 585.208 Q352.481 599.548 352.481 615.59 Q352.481 656.788 327.325 680.485 Q302.047 704.183 258.419 704.183 Q214.669 704.183 189.513 680.485 Q164.235 656.788 164.235 615.59 Q164.235 599.305 168.61 584.965 Q172.864 570.503 181.492 557.865 Z" fill="#000000" fill-rule="evenodd" fill-opacity="1" /><path clip-path="url(#clip180)" d="M228.523 468.178 Q228.523 486.164 242.62 496.615 Q256.596 507.066 281.023 507.066 Q305.45 507.066 319.547 496.736 Q333.522 486.285 333.522 468.178 Q333.522 450.313 319.425 439.862 Q305.328 429.41 281.023 429.41 Q256.839 429.41 242.742 439.862 Q228.523 450.313 228.523 468.178 M209.565 468.178 Q209.565 439.011 228.523 422.362 Q247.481 405.713 281.023 405.713 Q314.443 405.713 333.522 422.362 Q352.481 439.011 352.481 468.178 Q352.481 497.466 333.522 514.115 Q314.443 530.643 281.023 530.643 Q247.481 530.643 228.523 514.115 Q209.565 497.466 209.565 468.178 Z" fill="#000000" fill-rule="evenodd" fill-opacity="1" /><path clip-path="url(#clip180)" d="M216.856 281.876 L238.002 281.876 Q233.141 291.356 230.71 301.564 Q228.28 311.772 228.28 322.71 Q228.28 339.359 233.384 347.744 Q238.488 356.008 248.696 356.008 Q256.474 356.008 260.971 350.053 Q265.346 344.098 269.356 326.112 L271.057 318.456 Q276.162 294.637 285.519 284.672 Q294.755 274.585 311.404 274.585 Q330.363 274.585 341.422 289.654 Q352.481 304.602 352.481 330.852 Q352.481 341.789 350.293 353.699 Q348.227 365.487 343.974 378.612 L320.884 378.612 Q327.325 366.216 330.606 354.185 Q333.765 342.154 333.765 330.366 Q333.765 314.567 328.418 306.06 Q322.95 297.553 313.106 297.553 Q303.991 297.553 299.13 303.751 Q294.269 309.828 289.773 330.609 L287.95 338.387 Q283.575 359.168 274.582 368.404 Q265.467 377.64 249.669 377.64 Q230.467 377.64 220.016 364.029 Q209.565 350.418 209.565 325.383 Q209.565 312.987 211.388 302.05 Q213.211 291.113 216.856 281.876 Z" fill="#000000" fill-rule="evenodd" fill-opacity="1" /><path clip-path="url(#clip180)" d="M174.2 216.859 L212.846 216.859 L212.846 170.801 L230.224 170.801 L230.224 216.859 L304.113 216.859 Q320.762 216.859 325.502 212.363 Q330.241 207.745 330.241 193.769 L330.241 170.801 L348.956 170.801 L348.956 193.769 Q348.956 219.655 339.356 229.498 Q329.634 239.342 304.113 239.342 L230.224 239.342 L230.224 255.748 L212.846 255.748 L212.846 239.342 L174.2 239.342 L174.2 216.859 Z" fill="#000000" fill-rule="evenodd" fill-opacity="1" /><polyline clip-path="url(#clip182)" style="stroke:#000000; stroke-linecap:butt; stroke-linejoin:round; stroke-width:12; stroke-opacity:1; fill:none" points="
  445.388,827.74 536.125,819.935 626.862,796.52 717.599,757.495 808.335,702.861 899.072,632.616 989.809,546.761 1080.55,445.297 1171.28,328.223 1262.02,195.538 
  1352.76,47.2441 
  "/>
<circle clip-path="url(#clip182)" cx="1035.18" cy="497.98" r="36" fill="#ff0000" fill-rule="evenodd" fill-opacity="1" stroke="#000000" stroke-opacity="1" stroke-width="2.8"/>
<circle clip-path="url(#clip182)" cx="1307.39" cy="123.342" r="36" fill="#ff0000" fill-rule="evenodd" fill-opacity="1" stroke="#000000" stroke-opacity="1" stroke-width="2.8"/>
<polyline clip-path="url(#clip182)" style="stroke:#0000ff; stroke-linecap:butt; stroke-linejoin:round; stroke-width:12; stroke-opacity:1; fill:none" stroke-dasharray="48, 30" points="
  445.388,1309.7 536.125,1184.82 626.862,1059.94 717.599,935.058 808.335,810.179 899.072,685.299 989.809,560.42 1080.55,435.541 1171.28,310.661 1262.02,185.782 
  1352.76,60.9028 
  "/>
<polyline clip-path="url(#clip182)" style="stroke:#ff0000; stroke-linecap:butt; stroke-linejoin:round; stroke-width:12; stroke-opacity:1; fill:none" stroke-dasharray="6, 12" points="
  445.388,1069.69 536.125,968.229 626.862,866.765 717.599,765.3 808.335,663.836 899.072,562.371 989.809,460.907 1080.55,359.442 1171.28,257.978 1262.02,156.513 
  1352.76,55.0491 
  "/>
</svg>
