<?xml version="1.0" encoding="utf-8"?>
<svg xmlns="http://www.w3.org/2000/svg" xmlns:xlink="http://www.w3.org/1999/xlink" width="800" height="800" viewBox="0 0 3200 3200">
<defs>
  <clipPath id="clip240">
    <rect x="0" y="0" width="3200" height="3200"/>
  </clipPath>
</defs>
<path clip-path="url(#clip240)" d="
M0 3200 L3200 3200 L3200 0 L0 0  Z
  " fill="#ffffff" fill-rule="evenodd" fill-opacity="1"/>
<defs>
  <clipPath id="clip241">
    <rect x="640" y="320" width="2241" height="2241"/>
  </clipPath>
</defs>
<defs>
  <clipPath id="clip242">
    <rect x="751" y="107" width="2342" height="2259"/>
  </clipPath>
</defs>
<path clip-path="url(#clip240)" d="
M387.093 2815 L3152.76 2815 L3152.76 49.3404 L387.093 49.3404  Z
  " fill="#ffffff" fill-rule="evenodd" fill-opacity="1"/>
<defs>
  <clipPath id="clip243">
    <rect x="387" y="49" width="2767" height="2767"/>
  </clipPath>
</defs>
<polyline clip-path="url(#clip243)" style="stroke:#000000; stroke-linecap:round; stroke-linejoin:round; stroke-width:2; stroke-opacity:0.1; fill:none" points="
  1267.08,2815 1267.08,49.3404 
  "/>
<polyline clip-path="url(#clip243)" style="stroke:#000000; stroke-linecap:round; stroke-linejoin:round; stroke-width:2; stroke-opacity:0.1; fill:none" points="
  1895.64,2815 1895.64,49.3404 
  "/>
<polyline clip-path="url(#clip243)" style="stroke:#000000; stroke-linecap:round; stroke-linejoin:round; stroke-width:2; stroke-opacity:0.1; fill:none" points="
  2524.2,2815 2524.2,49.3404 
  "/>
<polyline clip-path="url(#clip243)" style="stroke:#000000; stroke-linecap:round; stroke-linejoin:round; stroke-width:2; stroke-opacity:0.1; fill:none" points="
  3152.76,2815 3152.76,49.3404 
  "/>
<polyline clip-path="url(#clip240)" style="stroke:#000000; stroke-linecap:round; stroke-linejoin:round; stroke-width:4; stroke-opacity:1; fill:none" points="
  387.093,2563.58 3152.76,2563.58 
  "/>
<polyline clip-path="url(#clip240)" style="stroke:#000000; stroke-linecap:round; stroke-linejoin:round; stroke-width:4; stroke-opacity:1; fill:none" points="
  1267.08,2582.45 1267.08,2544.71 
  "/>
<polyline clip-path="url(#clip240)" style="stroke:#000000; stroke-linecap:round; stroke-linejoin:round; stroke-width:4; stroke-opacity:1; fill:none" points="
  1895.64,2582.45 1895.64,2544.71 
  "/>
<polyline clip-path="url(#clip240)" style="stroke:#000000; stroke-linecap:round; stroke-linejoin:round; stroke-width:4; stroke-opacity:1; fill:none" points="
  2524.2,2582.45 2524.2,2544.71 
  "/>
<polyline clip-path="url(#clip240)" style="stroke:#000000; stroke-linecap:round; stroke-linejoin:round; stroke-width:4; stroke-opacity:1; fill:none" points="
  3152.76,2582.45 3152.76,2544.71 
  "/>
<polyline clip-path="url(#clip240)" style="stroke:#000000; stroke-linecap:round; stroke-linejoin:round; stroke-width:4; stroke-opacity:1; fill:none" points="
  387.093,2573.01 387.093,2554.15 
  "/>
<polyline clip-path="url(#clip240)" style="stroke:#000000; stroke-linecap:round; stroke-linejoin:round; stroke-width:4; stroke-opacity:1; fill:none" points="
  512.805,2573.01 512.805,2554.15 
  "/>
<polyline clip-path="url(#clip240)" style="stroke:#000000; stroke-linecap:round; stroke-linejoin:round; stroke-width:4; stroke-opacity:1; fill:none" points="
  764.229,2573.01 764.229,2554.15 
  "/>
<polyline clip-path="url(#clip240)" style="stroke:#000000; stroke-linecap:round; stroke-linejoin:round; stroke-width:4; stroke-opacity:1; fill:none" points="
  889.941,2573.01 889.941,2554.15 
  "/>
<polyline clip-path="url(#clip240)" style="stroke:#000000; stroke-linecap:round; stroke-linejoin:round; stroke-width:4; stroke-opacity:1; fill:none" points="
  1015.65,2573.01 1015.65,2554.15 
  "/>
<polyline clip-path="url(#clip240)" style="stroke:#000000; stroke-linecap:round; stroke-linejoin:round; stroke-width:4; stroke-opacity:1; fill:none" points="
  1141.36,2573.01 1141.36,2554.15 
  "/>
<polyline clip-path="url(#clip240)" style="stroke:#000000; stroke-linecap:round; stroke-linejoin:round; stroke-width:4; stroke-opacity:1; fill:none" points="
  1392.79,2573.01 1392.79,2554.15 
  "/>
<polyline clip-path="url(#clip240)" style="stroke:#000000; stroke-linecap:round; stroke-linejoin:round; stroke-width:4; stroke-opacity:1; fill:none" points="
  1518.5,2573.01 1518.5,2554.15 
  "/>
<polyline clip-path="url(#clip240)" style="stroke:#000000; stroke-linecap:round; stroke-linejoin:round; stroke-width:4; stroke-opacity:1; fill:none" points="
  1644.21,2573.01 1644.21,2554.15 
  "/>
<polyline clip-path="url(#clip240)" style="stroke:#000000; stroke-linecap:round; stroke-linejoin:round; stroke-width:4; stroke-opacity:1; fill:none" points="
  1769.92,2573.01 1769.92,2554.15 
  "/>
<polyline clip-path="url(#clip240)" style="stroke:#000000; stroke-linecap:round; stroke-linejoin:round; stroke-width:4; stroke-opacity:1; fill:none" points="
  2021.35,2573.01 2021.35,2554.15 
  "/>
<polyline clip-path="url(#clip240)" style="stroke:#000000; stroke-linecap:round; stroke-linejoin:round; stroke-width:4; stroke-opacity:1; fill:none" points="
  2147.06,2573.01 2147.06,2554.15 
  "/>
<polyline clip-path="url(#clip240)" style="stroke:#000000; stroke-linecap:round; stroke-linejoin:round; stroke-width:4; stroke-opacity:1; fill:none" points="
  2272.77,2573.01 2272.77,2554.15 
  "/>
<polyline clip-path="url(#clip240)" style="stroke:#000000; stroke-linecap:round; stroke-linejoin:round; stroke-width:4; stroke-opacity:1; fill:none" points="
  2398.48,2573.01 2398.48,2554.15 
  "/>
<polyline clip-path="url(#clip240)" style="stroke:#000000; stroke-linecap:round; stroke-linejoin:round; stroke-width:4; stroke-opacity:1; fill:none" points="
  2649.91,2573.01 2649.91,2554.15 
  "/>
<polyline clip-path="url(#clip240)" style="stroke:#000000; stroke-linecap:round; stroke-linejoin:round; stroke-width:4; stroke-opacity:1; fill:none" points="
  2775.62,2573.01 2775.62,2554.15 
  "/>
<polyline clip-path="url(#clip240)" style="stroke:#000000; stroke-linecap:round; stroke-linejoin:round; stroke-width:4; stroke-opacity:1; fill:none" points="
  2901.33,2573.01 2901.33,2554.15 
  "/>
<polyline clip-path="url(#clip240)" style="stroke:#000000; stroke-linecap:round; stroke-linejoin:round; stroke-width:4; stroke-opacity:1; fill:none" points="
  3027.04,2573.01 3027.04,2554.15 
  "/>
<path clip-path="url(#clip240)" d="M1245.2 2608.62 L1286.5 2608.62 L1286.5 2617.47 L1254.84 2617.47 L1254.84 2636.54 Q1257.13 2635.75 1259.42 2635.39 Q1261.71 2634.97 1264 2634.97 Q1277.02 2634.97 1284.63 2642.11 Q1292.23 2649.24 1292.23 2661.43 Q1292.23 2673.98 1284.42 2680.96 Q1276.61 2687.89 1262.39 2687.89 Q1257.49 2687.89 1252.39 2687.06 Q1247.34 2686.22 1241.92 2684.56 L1241.92 2673.98 Q1246.61 2676.54 1251.61 2677.79 Q1256.61 2679.04 1262.18 2679.04 Q1271.19 2679.04 1276.45 2674.3 Q1281.71 2669.56 1281.71 2661.43 Q1281.71 2653.31 1276.45 2648.57 Q1271.19 2643.83 1262.18 2643.83 Q1257.96 2643.83 1253.74 2644.77 Q1249.58 2645.7 1245.2 2647.68 L1245.2 2608.62 Z" fill="#000000" fill-rule="evenodd" fill-opacity="1" /><path clip-path="url(#clip240)" d="M1838.68 2677.53 L1855.87 2677.53 L1855.87 2618.2 L1837.17 2621.95 L1837.17 2612.37 L1855.77 2608.62 L1866.29 2608.62 L1866.29 2677.53 L1883.47 2677.53 L1883.47 2686.38 L1838.68 2686.38 L1838.68 2677.53 Z" fill="#000000" fill-rule="evenodd" fill-opacity="1" /><path clip-path="url(#clip240)" d="M1927.22 2615.55 Q1919.1 2615.55 1914.99 2623.57 Q1910.92 2631.54 1910.92 2647.58 Q1910.92 2663.57 1914.99 2671.59 Q1919.1 2679.56 1927.22 2679.56 Q1935.4 2679.56 1939.46 2671.59 Q1943.58 2663.57 1943.58 2647.58 Q1943.58 2631.54 1939.46 2623.57 Q1935.4 2615.55 1927.22 2615.55 M1927.22 2607.21 Q1940.3 2607.21 1947.17 2617.58 Q1954.1 2627.89 1954.1 2647.58 Q1954.1 2667.21 1947.17 2677.58 Q1940.3 2687.89 1927.22 2687.89 Q1914.15 2687.89 1907.22 2677.58 Q1900.35 2667.21 1900.35 2647.58 Q1900.35 2627.89 1907.22 2617.58 Q1914.15 2607.21 1927.22 2607.21 Z" fill="#000000" fill-rule="evenodd" fill-opacity="1" /><path clip-path="url(#clip240)" d="M2468.36 2677.53 L2485.55 2677.53 L2485.55 2618.2 L2466.85 2621.95 L2466.85 2612.37 L2485.45 2608.62 L2495.97 2608.62 L2495.97 2677.53 L2513.15 2677.53 L2513.15 2686.38 L2468.36 2686.38 L2468.36 2677.53 Z" fill="#000000" fill-rule="evenodd" fill-opacity="1" /><path clip-path="url(#clip240)" d="M2534.51 2608.62 L2575.81 2608.62 L2575.81 2617.47 L2544.14 2617.47 L2544.14 2636.54 Q2546.44 2635.75 2548.73 2635.39 Q2551.02 2634.97 2553.31 2634.97 Q2566.33 2634.97 2573.94 2642.11 Q2581.54 2649.24 2581.54 2661.43 Q2581.54 2673.98 2573.73 2680.96 Q2565.91 2687.89 2551.7 2687.89 Q2546.8 2687.89 2541.7 2687.06 Q2536.64 2686.22 2531.23 2684.56 L2531.23 2673.98 Q2535.91 2676.54 2540.91 2677.79 Q2545.91 2679.04 2551.49 2679.04 Q2560.5 2679.04 2565.76 2674.3 Q2571.02 2669.56 2571.02 2661.43 Q2571.02 2653.31 2565.76 2648.57 Q2560.5 2643.83 2551.49 2643.83 Q2547.27 2643.83 2543.05 2644.77 Q2538.88 2645.7 2534.51 2647.68 L2534.51 2608.62 Z" fill="#000000" fill-rule="evenodd" fill-opacity="1" /><path clip-path="url(#clip240)" d="M3105 2677.53 L3141.71 2677.53 L3141.71 2686.38 L3092.34 2686.38 L3092.34 2677.53 Q3098.33 2671.33 3108.64 2660.91 Q3119.01 2650.44 3121.66 2647.42 Q3126.71 2641.74 3128.69 2637.84 Q3130.72 2633.88 3130.72 2630.08 Q3130.72 2623.88 3126.35 2619.97 Q3122.03 2616.07 3115.05 2616.07 Q3110.1 2616.07 3104.58 2617.79 Q3099.11 2619.5 3092.86 2622.99 L3092.86 2612.37 Q3099.21 2609.82 3104.74 2608.52 Q3110.26 2607.21 3114.84 2607.21 Q3126.92 2607.21 3134.11 2613.25 Q3141.3 2619.3 3141.3 2629.4 Q3141.3 2634.19 3139.47 2638.52 Q3137.7 2642.79 3132.96 2648.62 Q3131.66 2650.13 3124.68 2657.37 Q3117.7 2664.56 3105 2677.53 Z" fill="#000000" fill-rule="evenodd" fill-opacity="1" /><path clip-path="url(#clip240)" d="M3186.3 2615.55 Q3178.17 2615.55 3174.06 2623.57 Q3170 2631.54 3170 2647.58 Q3170 2663.57 3174.06 2671.59 Q3178.17 2679.56 3186.3 2679.56 Q3194.47 2679.56 3198.54 2671.59 Q3202.65 2663.57 3202.65 2647.58 Q3202.65 2631.54 3198.54 2623.57 Q3194.47 2615.55 3186.3 2615.55 M3186.3 2607.21 Q3199.37 2607.21 3206.25 2617.58 Q3213.17 2627.89 3213.17 2647.58 Q3213.17 2667.21 3206.25 2677.58 Q3199.37 2687.89 3186.3 2687.89 Q3173.22 2687.89 3166.3 2677.58 Q3159.42 2667.21 3159.42 2647.58 Q3159.42 2627.89 3166.3 2617.58 Q3173.22 2607.21 3186.3 2607.21 Z" fill="#000000" fill-rule="evenodd" fill-opacity="1" /><path clip-path="url(#clip240)" d="M1800.85 3018.43 Q1800.85 3022.37 1798.39 3024.62 Q1795.93 3026.79 1793.12 3026.79 Q1790.45 3026.79 1789.05 3025.25 Q1787.64 3023.7 1787.64 3021.74 Q1787.64 3019.07 1789.61 3016.75 Q1791.58 3014.43 1794.53 3013.94 Q1791.65 3012.11 1787.36 3012.11 Q1784.55 3012.11 1782.09 3013.58 Q1779.7 3015.06 1778.23 3016.96 Q1776.82 3018.85 1775.56 3021.6 Q1774.36 3024.27 1773.87 3025.88 Q1773.45 3027.43 1773.1 3029.11 L1768.18 3048.79 Q1765.79 3058.13 1765.79 3061.44 Q1765.79 3065.51 1767.76 3068.25 Q1769.72 3070.92 1773.66 3070.92 Q1775.2 3070.92 1776.96 3070.5 Q1778.72 3070.01 1780.97 3068.74 Q1783.29 3067.41 1785.32 3065.44 Q1787.43 3063.4 1789.47 3059.96 Q1791.51 3056.52 1792.84 3052.09 Q1793.26 3050.55 1794.67 3050.55 Q1796.43 3050.55 1796.43 3051.95 Q1796.43 3053.15 1795.44 3055.67 Q1794.53 3058.13 1792.49 3061.37 Q1790.52 3064.53 1787.92 3067.41 Q1785.32 3070.22 1781.46 3072.19 Q1777.59 3074.16 1773.38 3074.16 Q1767.33 3074.16 1763.33 3070.92 Q1759.32 3067.69 1757.85 3063.19 Q1757.5 3063.83 1757.01 3064.67 Q1756.51 3065.51 1755.04 3067.41 Q1753.63 3069.24 1752.02 3070.64 Q1750.4 3071.98 1747.87 3073.03 Q1745.41 3074.16 1742.74 3074.16 Q1739.37 3074.16 1736.35 3073.17 Q1733.4 3072.19 1731.29 3069.94 Q1729.18 3067.69 1729.18 3064.6 Q1729.18 3061.16 1731.5 3058.77 Q1733.89 3056.31 1737.12 3056.31 Q1739.16 3056.31 1740.77 3057.5 Q1742.46 3058.7 1742.46 3061.3 Q1742.46 3064.18 1740.49 3066.36 Q1738.52 3068.53 1735.71 3069.1 Q1738.6 3070.92 1742.88 3070.92 Q1747.52 3070.92 1751.17 3066.85 Q1754.83 3062.77 1756.58 3055.96 Q1760.94 3039.58 1762.63 3032.28 Q1764.31 3024.9 1764.31 3021.74 Q1764.31 3018.78 1763.54 3016.75 Q1762.77 3014.71 1761.43 3013.8 Q1760.17 3012.81 1758.97 3012.46 Q1757.85 3012.11 1756.58 3012.11 Q1754.48 3012.11 1752.09 3012.95 Q1749.77 3013.8 1746.96 3015.76 Q1744.22 3017.66 1741.62 3021.6 Q1739.02 3025.53 1737.26 3030.94 Q1736.91 3032.56 1735.36 3032.56 Q1733.68 3032.49 1733.68 3031.08 Q1733.68 3029.89 1734.59 3027.43 Q1735.57 3024.9 1737.54 3021.74 Q1739.58 3018.57 1742.18 3015.76 Q1744.85 3012.88 1748.71 3010.91 Q1752.65 3008.95 1756.86 3008.95 Q1758.76 3008.95 1760.59 3009.37 Q1762.49 3009.72 1764.73 3010.77 Q1767.05 3011.83 1769.09 3014.15 Q1771.13 3016.47 1772.39 3019.84 Q1773.24 3018.22 1774.36 3016.68 Q1775.56 3015.13 1777.38 3013.23 Q1779.28 3011.27 1781.88 3010.14 Q1784.55 3008.95 1787.5 3008.95 Q1790.38 3008.95 1793.19 3009.72 Q1796 3010.42 1798.39 3012.74 Q1800.85 3014.99 1800.85 3018.43 Z" fill="#000000" fill-rule="evenodd" fill-opacity="1" /><polyline clip-path="url(#clip243)" style="stroke:#000000; stroke-linecap:round; stroke-linejoin:round; stroke-width:2; stroke-opacity:0.1; fill:none" points="
  387.093,1935.02 3152.76,1935.02 
  "/>
<polyline clip-path="url(#clip243)" style="stroke:#000000; stroke-linecap:round; stroke-linejoin:round; stroke-width:2; stroke-opacity:0.1; fill:none" points="
  387.093,1306.46 3152.76,1306.46 
  "/>
<polyline clip-path="url(#clip243)" style="stroke:#000000; stroke-linecap:round; stroke-linejoin:round; stroke-width:2; stroke-opacity:0.1; fill:none" points="
  387.093,677.9 3152.76,677.9 
  "/>
<polyline clip-path="url(#clip243)" style="stroke:#000000; stroke-linecap:round; stroke-linejoin:round; stroke-width:2; stroke-opacity:0.1; fill:none" points="
  387.093,49.3404 3152.76,49.3404 
  "/>
<polyline clip-path="url(#clip240)" style="stroke:#000000; stroke-linecap:round; stroke-linejoin:round; stroke-width:4; stroke-opacity:1; fill:none" points="
  638.517,2815 638.517,49.3404 
  "/>
<polyline clip-path="url(#clip240)" style="stroke:#000000; stroke-linecap:round; stroke-linejoin:round; stroke-width:4; stroke-opacity:1; fill:none" points="
  619.619,1935.02 657.414,1935.02 
  "/>
<polyline clip-path="url(#clip240)" style="stroke:#000000; stroke-linecap:round; stroke-linejoin:round; stroke-width:4; stroke-opacity:1; fill:none" points="
  619.619,1306.46 657.414,1306.46 
  "/>
<polyline clip-path="url(#clip240)" style="stroke:#000000; stroke-linecap:round; stroke-linejoin:round; stroke-width:4; stroke-opacity:1; fill:none" points="
  619.619,677.9 657.414,677.9 
  "/>
<polyline clip-path="url(#clip240)" style="stroke:#000000; stroke-linecap:round; stroke-linejoin:round; stroke-width:4; stroke-opacity:1; fill:none" points="
  619.619,49.3404 657.414,49.3404 
  "/>
<polyline clip-path="url(#clip240)" style="stroke:#000000; stroke-linecap:round; stroke-linejoin:round; stroke-width:4; stroke-opacity:1; fill:none" points="
  629.068,2815 647.966,2815 
  "/>
<polyline clip-path="url(#clip240)" style="stroke:#000000; stroke-linecap:round; stroke-linejoin:round; stroke-width:4; stroke-opacity:1; fill:none" points="
  629.068,2689.29 647.966,2689.29 
  "/>
<polyline clip-path="url(#clip240)" style="stroke:#000000; stroke-linecap:round; stroke-linejoin:round; stroke-width:4; stroke-opacity:1; fill:none" points="
  629.068,2437.87 647.966,2437.87 
  "/>
<polyline clip-path="url(#clip240)" style="stroke:#000000; stroke-linecap:round; stroke-linejoin:round; stroke-width:4; stroke-opacity:1; fill:none" points="
  629.068,2312.16 647.966,2312.16 
  "/>
<polyline clip-path="url(#clip240)" style="stroke:#000000; stroke-linecap:round; stroke-linejoin:round; stroke-width:4; stroke-opacity:1; fill:none" points="
  629.068,2186.44 647.966,2186.44 
  "/>
<polyline clip-path="url(#clip240)" style="stroke:#000000; stroke-linecap:round; stroke-linejoin:round; stroke-width:4; stroke-opacity:1; fill:none" points="
  629.068,2060.73 647.966,2060.73 
  "/>
<polyline clip-path="url(#clip240)" style="stroke:#000000; stroke-linecap:round; stroke-linejoin:round; stroke-width:4; stroke-opacity:1; fill:none" points="
  629.068,1809.31 647.966,1809.31 
  "/>
<polyline clip-path="url(#clip240)" style="stroke:#000000; stroke-linecap:round; stroke-linejoin:round; stroke-width:4; stroke-opacity:1; fill:none" points="
  629.068,1683.6 647.966,1683.6 
  "/>
<polyline clip-path="url(#clip240)" style="stroke:#000000; stroke-linecap:round; stroke-linejoin:round; stroke-width:4; stroke-opacity:1; fill:none" points="
  629.068,1557.88 647.966,1557.88 
  "/>
<polyline clip-path="url(#clip240)" style="stroke:#000000; stroke-linecap:round; stroke-linejoin:round; stroke-width:4; stroke-opacity:1; fill:none" points="
  629.068,1432.17 647.966,1432.17 
  "/>
<polyline clip-path="url(#clip240)" style="stroke:#000000; stroke-linecap:round; stroke-linejoin:round; stroke-width:4; stroke-opacity:1; fill:none" points="
  629.068,1180.75 647.966,1180.75 
  "/>
<polyline clip-path="url(#clip240)" style="stroke:#000000; stroke-linecap:round; stroke-linejoin:round; stroke-width:4; stroke-opacity:1; fill:none" points="
  629.068,1055.04 647.966,1055.04 
  "/>
<polyline clip-path="url(#clip240)" style="stroke:#000000; stroke-linecap:round; stroke-linejoin:round; stroke-width:4; stroke-opacity:1; fill:none" points="
  629.068,929.324 647.966,929.324 
  "/>
<polyline clip-path="url(#clip240)" style="stroke:#000000; stroke-linecap:round; stroke-linejoin:round; stroke-width:4; stroke-opacity:1; fill:none" points="
  629.068,803.612 647.966,803.612 
  "/>
<polyline clip-path="url(#clip240)" style="stroke:#000000; stroke-linecap:round; stroke-linejoin:round; stroke-width:4; stroke-opacity:1; fill:none" points="
  629.068,552.188 647.966,552.188 
  "/>
<polyline clip-path="url(#clip240)" style="stroke:#000000; stroke-linecap:round; stroke-linejoin:round; stroke-width:4; stroke-opacity:1; fill:none" points="
  629.068,426.476 647.966,426.476 
  "/>
<polyline clip-path="url(#clip240)" style="stroke:#000000; stroke-linecap:round; stroke-linejoin:round; stroke-width:4; stroke-opacity:1; fill:none" points="
  629.068,300.764 647.966,300.764 
  "/>
<polyline clip-path="url(#clip240)" style="stroke:#000000; stroke-linecap:round; stroke-linejoin:round; stroke-width:4; stroke-opacity:1; fill:none" points="
  629.068,175.052 647.966,175.052 
  "/>
<path clip-path="url(#clip240)" d="M543.486 1896.14 L584.788 1896.14 L584.788 1904.99 L553.121 1904.99 L553.121 1924.06 Q555.413 1923.28 557.704 1922.91 Q559.996 1922.49 562.288 1922.49 Q575.309 1922.49 582.913 1929.63 Q590.517 1936.76 590.517 1948.95 Q590.517 1961.5 582.704 1968.48 Q574.892 1975.41 560.673 1975.41 Q555.777 1975.41 550.673 1974.58 Q545.621 1973.74 540.205 1972.08 L540.205 1961.5 Q544.892 1964.06 549.892 1965.31 Q554.892 1966.56 560.465 1966.56 Q569.475 1966.56 574.736 1961.82 Q579.996 1957.08 579.996 1948.95 Q579.996 1940.83 574.736 1936.09 Q569.475 1931.35 560.465 1931.35 Q556.246 1931.35 552.027 1932.29 Q547.861 1933.22 543.486 1935.2 L543.486 1896.14 Z" fill="#000000" fill-rule="evenodd" fill-opacity="1" /><path clip-path="url(#clip240)" d="M475.101 1336.49 L492.288 1336.49 L492.288 1277.16 L473.59 1280.91 L473.59 1271.33 L492.184 1267.58 L502.705 1267.58 L502.705 1336.49 L519.892 1336.49 L519.892 1345.34 L475.101 1345.34 L475.101 1336.49 Z" fill="#000000" fill-rule="evenodd" fill-opacity="1" /><path clip-path="url(#clip240)" d="M563.642 1274.51 Q555.517 1274.51 551.402 1282.53 Q547.34 1290.5 547.34 1306.54 Q547.34 1322.53 551.402 1330.55 Q555.517 1338.52 563.642 1338.52 Q571.819 1338.52 575.881 1330.55 Q579.996 1322.53 579.996 1306.54 Q579.996 1290.5 575.881 1282.53 Q571.819 1274.51 563.642 1274.51 M563.642 1266.17 Q576.715 1266.17 583.59 1276.54 Q590.517 1286.85 590.517 1306.54 Q590.517 1326.17 583.59 1336.54 Q576.715 1346.85 563.642 1346.85 Q550.569 1346.85 543.642 1336.54 Q536.767 1326.17 536.767 1306.54 Q536.767 1286.85 543.642 1276.54 Q550.569 1266.17 563.642 1266.17 Z" fill="#000000" fill-rule="evenodd" fill-opacity="1" /><path clip-path="url(#clip240)" d="M477.34 707.926 L494.528 707.926 L494.528 648.604 L475.83 652.353 L475.83 642.77 L494.424 639.02 L504.944 639.02 L504.944 707.926 L522.132 707.926 L522.132 716.78 L477.34 716.78 L477.34 707.926 Z" fill="#000000" fill-rule="evenodd" fill-opacity="1" /><path clip-path="url(#clip240)" d="M543.486 639.02 L584.788 639.02 L584.788 647.874 L553.121 647.874 L553.121 666.937 Q555.413 666.155 557.704 665.791 Q559.996 665.374 562.288 665.374 Q575.309 665.374 582.913 672.51 Q590.517 679.645 590.517 691.832 Q590.517 704.384 582.704 711.364 Q574.892 718.291 560.673 718.291 Q555.777 718.291 550.673 717.457 Q545.621 716.624 540.205 714.957 L540.205 704.384 Q544.892 706.937 549.892 708.187 Q554.892 709.437 560.465 709.437 Q569.475 709.437 574.736 704.697 Q579.996 699.957 579.996 691.832 Q579.996 683.707 574.736 678.968 Q569.475 674.228 560.465 674.228 Q556.246 674.228 552.027 675.166 Q547.861 676.103 543.486 678.083 L543.486 639.02 Z" fill="#000000" fill-rule="evenodd" fill-opacity="1" /><path clip-path="url(#clip240)" d="M482.34 79.3663 L519.059 79.3663 L519.059 88.2204 L469.684 88.2204 L469.684 79.3663 Q475.674 73.1684 485.986 62.7518 Q496.351 52.2831 499.007 49.2623 Q504.059 43.5853 506.038 39.679 Q508.069 35.7207 508.069 31.9187 Q508.069 25.7208 503.694 21.8145 Q499.371 17.9083 492.392 17.9083 Q487.444 17.9083 481.924 19.6271 Q476.455 21.3458 470.205 24.8354 L470.205 14.2104 Q476.559 11.6583 482.08 10.3563 Q487.601 9.05419 492.184 9.05419 Q504.267 9.05419 511.455 15.0958 Q518.642 21.1375 518.642 31.2416 Q518.642 36.0332 516.819 40.3561 Q515.048 44.6269 510.309 50.4602 Q509.007 51.9706 502.028 59.2102 Q495.049 66.3976 482.34 79.3663 Z" fill="#000000" fill-rule="evenodd" fill-opacity="1" /><path clip-path="url(#clip240)" d="M563.642 17.3875 Q555.517 17.3875 551.402 25.4083 Q547.34 33.377 547.34 49.4186 Q547.34 65.4081 551.402 73.4289 Q555.517 81.3976 563.642 81.3976 Q571.819 81.3976 575.881 73.4289 Q579.996 65.4081 579.996 49.4186 Q579.996 33.377 575.881 25.4083 Q571.819 17.3875 563.642 17.3875 M563.642 9.05419 Q576.715 9.05419 583.59 19.4187 Q590.517 29.7312 590.517 49.4186 Q590.517 69.0539 583.59 79.4184 Q576.715 89.7308 563.642 89.7308 Q550.569 89.7308 543.642 79.4184 Q536.767 69.0539 536.767 49.4186 Q536.767 29.7312 543.642 19.4187 Q550.569 9.05419 563.642 9.05419 Z" fill="#000000" fill-rule="evenodd" fill-opacity="1" /><path clip-path="url(#clip240)" d="M66.8161 1400.67 Q67.7998 1400.67 70.1186 1401.3 L125.068 1415.07 Q137.294 1418.1 145.867 1427.93 Q154.439 1437.7 154.439 1448.8 Q154.439 1455.48 150.856 1459.76 Q147.342 1464.05 141.932 1464.05 Q137.154 1464.05 134.835 1461.52 Q132.586 1458.99 132.586 1455.97 Q132.586 1454.99 132.867 1453.93 Q133.148 1452.88 134.343 1451.75 Q135.538 1450.63 137.575 1450.63 Q140.878 1450.63 143.478 1453.51 Q144.672 1454.92 144.953 1456.25 Q145.234 1457.52 145.234 1459.69 Q147.202 1458.85 148.537 1457.3 Q149.872 1455.76 150.364 1454 Q150.926 1452.25 151.067 1451.12 Q151.277 1449.93 151.277 1448.8 Q151.277 1439.81 142.213 1432.92 Q139.472 1430.88 136.732 1429.41 Q134.062 1427.86 130.759 1426.74 Q127.527 1425.61 125.77 1425.12 Q124.014 1424.56 120.008 1423.58 Q126.543 1430.11 126.543 1438.12 Q126.543 1441.49 125.63 1444.52 Q124.716 1447.47 122.819 1450.07 Q120.852 1452.67 117.409 1454.21 Q113.965 1455.69 109.398 1455.69 Q104.55 1455.69 97.9445 1453.79 Q91.3394 1451.89 79.1831 1447.33 Q72.3672 1444.87 69.0646 1444.87 Q67.4485 1444.87 66.4647 1445.22 Q65.4107 1445.57 65.0594 1446.27 Q64.6378 1446.98 64.5675 1447.4 Q64.4973 1447.75 64.4973 1448.45 Q64.4973 1452.6 68.7133 1456.46 Q72.9293 1460.33 82.3452 1463 Q84.1018 1463.56 84.5234 1463.91 Q84.945 1464.26 84.945 1465.31 Q84.8748 1467.07 83.4694 1467.07 Q82.9073 1467.07 80.729 1466.44 Q78.4804 1465.81 75.1779 1464.33 Q71.8051 1462.79 68.7836 1460.68 Q65.6918 1458.57 63.5135 1455.27 Q61.3352 1451.89 61.3352 1448.03 Q61.3352 1442.76 64.7783 1439.53 Q68.1512 1436.22 73.1401 1436.22 Q75.1779 1436.22 77.0048 1436.79 Q78.7615 1437.28 83.4694 1439.11 Q102.442 1446.48 111.717 1446.48 Q113.965 1446.48 115.863 1446.13 Q117.69 1445.71 119.517 1444.8 Q121.273 1443.88 122.327 1442.06 Q123.311 1440.16 123.311 1437.56 Q123.311 1434.26 121.765 1431.16 Q120.149 1428 117.971 1426.04 Q115.792 1424 113.965 1422.8 Q112.068 1421.54 111.084 1421.26 L85.2261 1414.79 L73.7023 1411.91 Q67.4485 1410.58 65.9026 1409.94 Q64.427 1409.1 63.654 1407.63 Q62.8811 1406.15 62.8811 1404.88 Q62.8811 1403.13 63.9351 1401.93 Q64.9891 1400.67 66.8161 1400.67 Z" fill="#000000" fill-rule="evenodd" fill-opacity="1" /><path clip-path="url(#clip243)" d="
M889.941 1432.17 L902.512 1451.03 L915.083 1469.89 L927.654 1488.74 L940.225 1507.6 L952.797 1526.46 L965.368 1545.31 L977.939 1564.17 L990.51 1583.03 L1003.08 1601.88 
  L1015.65 1620.74 L1028.22 1639.6 L1040.8 1658.45 L1053.37 1677.31 L1065.94 1696.17 L1078.51 1715.02 L1091.08 1733.88 L1103.65 1752.74 L1116.22 1771.59 L1128.79 1790.45 
  L1141.36 1809.31 L1153.94 1828.16 L1166.51 1847.02 L1179.08 1865.88 L1191.65 1884.74 L1204.22 1903.59 L1216.79 1922.45 L1229.36 1941.31 L1241.93 1960.16 L1254.51 1979.02 
  L1267.08 1997.88 L1279.65 2016.73 L1292.22 2035.59 L1304.79 2054.45 L1317.36 2073.3 L1329.93 2092.16 L1342.5 2111.02 L1355.07 2129.87 L1367.65 2148.73 L1380.22 2167.59 
  L1392.79 2186.44 L1405.36 2180.16 L1417.93 2173.87 L1430.5 2167.59 L1443.07 2161.3 L1455.64 2155.02 L1468.22 2148.73 L1480.79 2142.44 L1493.36 2136.16 L1505.93 2129.87 
  L1518.5 2123.59 L1531.07 2117.3 L1543.64 2111.02 L1556.21 2104.73 L1568.79 2098.45 L1581.36 2092.16 L1593.93 2085.87 L1606.5 2079.59 L1619.07 2073.3 L1631.64 2067.02 
  L1644.21 2060.73 L1656.78 2054.45 L1669.35 2048.16 L1681.93 2041.87 L1694.5 2035.59 L1707.07 2029.3 L1719.64 2023.02 L1732.21 2016.73 L1744.78 2010.45 L1757.35 2004.16 
  L1769.92 1997.88 L1782.5 1991.59 L1795.07 1985.3 L1807.64 1979.02 L1820.21 1972.73 L1832.78 1966.45 L1845.35 1960.16 L1857.92 1953.88 L1870.49 1947.59 L1883.07 1941.31 
  L1895.64 1935.02 L1908.21 1928.73 L1920.78 1922.45 L1933.35 1916.16 L1945.92 1909.88 L1958.49 1903.59 L1971.06 1897.31 L1983.63 1891.02 L1996.21 1884.74 L2008.78 1878.45 
  L2021.35 1872.16 L2021.35 1935.02 L2008.78 1922.45 L1996.21 1909.88 L1983.63 1897.31 L1971.06 1884.74 L1958.49 1872.16 L1945.92 1859.59 L1933.35 1847.02 L1920.78 1834.45 
  L1908.21 1821.88 L1895.64 1809.31 L1883.07 1796.74 L1870.49 1784.17 L1857.92 1771.59 L1845.35 1759.02 L1832.78 1746.45 L1820.21 1733.88 L1807.64 1721.31 L1795.07 1708.74 
  L1782.5 1696.17 L1769.92 1683.6 L1757.35 1671.02 L1744.78 1658.45 L1732.21 1645.88 L1719.64 1633.31 L1707.07 1620.74 L1694.5 1608.17 L1681.93 1595.6 L1669.35 1583.03 
  L1656.78 1570.46 L1644.21 1557.88 L1631.64 1545.31 L1619.07 1532.74 L1606.5 1520.17 L1593.93 1507.6 L1581.36 1495.03 L1568.79 1482.46 L1556.21 1469.89 L1543.64 1457.31 
  L1531.07 1444.74 L1518.5 1432.17 L1505.93 1419.6 L1493.36 1407.03 L1480.79 1394.46 L1468.22 1381.89 L1455.64 1369.32 L1443.07 1356.74 L1430.5 1344.17 L1417.93 1331.6 
  L1405.36 1319.03 L1392.79 1306.46 L1380.22 1293.89 L1367.65 1281.32 L1355.07 1268.75 L1342.5 1256.18 L1329.93 1243.6 L1317.36 1231.03 L1304.79 1218.46 L1292.22 1205.89 
  L1279.65 1193.32 L1267.08 1180.75 L1254.51 1168.18 L1241.93 1155.61 L1229.36 1143.03 L1216.79 1130.46 L1204.22 1117.89 L1191.65 1105.32 L1179.08 1092.75 L1166.51 1080.18 
  L1153.94 1067.61 L1141.36 1055.04 L1128.79 1042.46 L1116.22 1029.89 L1103.65 1017.32 L1091.08 1004.75 L1078.51 992.18 L1065.94 979.609 L1053.37 967.038 L1040.8 954.467 
  L1028.22 941.895 L1015.65 929.324 L1003.08 923.039 L990.51 979.609 L977.939 1036.18 L965.368 1092.75 L952.797 1149.32 L940.225 1205.89 L927.654 1262.46 L915.083 1319.03 
  L902.512 1375.6 L889.941 1432.17  Z
  " fill="#add8e6" fill-rule="evenodd" fill-opacity="1"/>
<polyline clip-path="url(#clip243)" style="stroke:#add8e6; stroke-linecap:round; stroke-linejoin:round; stroke-width:4; stroke-opacity:1; fill:none" points="
  889.941,1432.17 902.512,1451.03 915.083,1469.89 927.654,1488.74 940.225,1507.6 952.797,1526.46 965.368,1545.31 977.939,1564.17 990.51,1583.03 1003.08,1601.88 
  1015.65,1620.74 1028.22,1639.6 1040.8,1658.45 1053.37,1677.31 1065.94,1696.17 1078.51,1715.02 1091.08,1733.88 1103.65,1752.74 1116.22,1771.59 1128.79,1790.45 
  1141.36,1809.31 1153.94,1828.16 1166.51,1847.02 1179.08,1865.88 1191.65,1884.74 1204.22,1903.59 1216.79,1922.45 1229.36,1941.31 1241.93,1960.16 1254.51,1979.02 
  1267.08,1997.88 1279.65,2016.73 1292.22,2035.59 1304.79,2054.45 1317.36,2073.3 1329.93,2092.16 1342.5,2111.02 1355.07,2129.87 1367.65,2148.73 1380.22,2167.59 
  1392.79,2186.44 1405.36,2180.16 1417.93,2173.87 1430.5,2167.59 1443.07,2161.3 1455.64,2155.02 1468.22,2148.73 1480.79,2142.44 1493.36,2136.16 1505.93,2129.87 
  1518.5,2123.59 1531.07,2117.3 1543.64,2111.02 1556.21,2104.73 1568.79,2098.45 1581.36,2092.16 1593.93,2085.87 1606.5,2079.59 1619.07,2073.3 1631.64,2067.02 
  1644.21,2060.73 1656.78,2054.45 1669.35,2048.16 1681.93,2041.87 1694.5,2035.59 1707.07,2029.3 1719.64,2023.02 1732.21,2016.73 1744.78,2010.45 1757.35,2004.16 
  1769.92,1997.88 1782.5,1991.59 1795.07,1985.3 1807.64,1979.02 1820.21,1972.73 1832.78,1966.45 1845.35,1960.16 1857.92,1953.88 1870.49,1947.59 1883.07,1941.31 
  1895.64,1935.02 1908.21,1928.73 1920.78,1922.45 1933.35,1916.16 1945.92,1909.88 1958.49,1903.59 1971.06,1897.31 1983.63,1891.02 1996.21,1884.74 2008.78,1878.45 
  2021.35,1872.16 
  "/>
<polyline clip-path="url(#clip243)" style="stroke:#008000; stroke-linecap:round; stroke-linejoin:round; stroke-width:12; stroke-opacity:1; fill:none" points="
  387.093,3694.99 399.664,3638.42 412.235,3581.85 424.806,3525.28 437.378,3468.71 449.949,3412.14 462.52,3355.56 475.091,3298.99 487.662,3242.42 500.234,3185.85 
  512.805,3129.28 525.376,3072.71 537.947,3016.14 550.518,2959.57 563.09,2903 575.661,2846.43 588.232,2789.86 600.803,2733.29 613.374,2676.72 625.946,2620.15 
  638.517,2563.58 651.088,2507.01 663.659,2450.44 676.23,2393.87 688.802,2337.3 701.373,2280.73 713.944,2224.16 726.515,2167.59 739.086,2111.02 751.658,2054.45 
  764.229,1997.88 776.8,1941.31 789.371,1884.74 801.942,1828.16 814.513,1771.59 827.085,1715.02 839.656,1658.45 852.227,1601.88 864.798,1545.31 877.369,1488.74 
  889.941,1432.17 902.512,1375.6 915.083,1319.03 927.654,1262.46 940.225,1205.89 952.797,1149.32 965.368,1092.75 977.939,1036.18 990.51,979.609 1003.08,923.039 
  1015.65,866.468 1028.22,809.898 1040.8,753.327 1053.37,696.757 1065.94,640.187 1078.51,583.616 1091.08,527.046 1103.65,470.475 1116.22,413.905 1128.79,357.335 
  1141.36,300.764 1153.94,244.194 1166.51,187.624 1179.08,131.053 1191.65,74.4828 1204.22,17.9124 1216.79,-38.6579 1229.36,-95.2283 1241.93,-151.799 1254.51,-208.369 
  1267.08,-264.939 1279.65,-321.51 1292.22,-378.08 1304.79,-434.651 1317.36,-491.221 1329.93,-547.791 1342.5,-604.362 1355.07,-660.932 1367.65,-717.503 1380.22,-774.073 
  1392.79,-830.643 1405.36,-887.214 1417.93,-943.784 1430.5,-1000.35 1443.07,-1056.92 1455.64,-1113.5 1468.22,-1170.07 1480.79,-1226.64 1493.36,-1283.21 1505.93,-1339.78 
  1518.5,-1396.35 1531.07,-1452.92 1543.64,-1509.49 1556.21,-1566.06 1568.79,-1622.63 1581.36,-1679.2 1593.93,-1735.77 1606.5,-1792.34 1619.07,-1848.91 1631.64,-1905.48 
  1644.21,-1962.05 1656.78,-2018.62 1669.35,-2075.19 1681.93,-2131.76 1694.5,-2188.33 1707.07,-2244.9 1719.64,-2301.47 1732.21,-2358.04 1744.78,-2414.61 1757.35,-2471.18 
  1769.92,-2527.75 1782.5,-2584.33 1795.07,-2640.9 1807.64,-2697.47 1820.21,-2754.04 1832.78,-2810.61 1845.35,-2867.18 1857.92,-2923.75 1870.49,-2980.32 1883.07,-3036.89 
  1895.64,-3093.46 1908.21,-3150.03 1920.78,-3206.6 1933.35,-3263.17 1945.92,-3319.74 1958.49,-3376.31 1971.06,-3432.88 1983.63,-3489.45 1996.21,-3546.02 2008.78,-3602.59 
  2021.35,-3659.16 2033.92,-3715.73 2046.49,-3772.3 2059.06,-3828.87 2071.63,-3885.44 2084.2,-3942.01 2096.78,-3998.58 2109.35,-4055.15 2121.92,-4111.73 2134.49,-4168.3 
  2147.06,-4224.87 2159.63,-4281.44 2172.2,-4338.01 2184.77,-4394.58 2197.35,-4451.15 2209.92,-4507.72 2222.49,-4564.29 2235.06,-4620.86 2247.63,-4677.43 2260.2,-4734 
  2272.77,-4790.57 2285.34,-4847.14 2297.91,-4903.71 2310.49,-4960.28 2323.06,-5016.85 2335.63,-5073.42 2348.2,-5129.99 2360.77,-5186.56 2373.34,-5243.13 2385.91,-5299.7 
  2398.48,-5356.27 2411.06,-5412.84 2423.63,-5469.41 2436.2,-5525.98 2448.77,-5582.56 2461.34,-5639.13 2473.91,-5695.7 2486.48,-5752.27 2499.05,-5808.84 2511.62,-5865.41 
  2524.2,-5921.98 2536.77,-5978.55 2549.34,-6035.12 2561.91,-6091.69 2574.48,-6148.26 2587.05,-6204.83 2599.62,-6261.4 2612.19,-6317.97 2624.77,-6374.54 2637.34,-6431.11 
  2649.91,-6487.68 2662.48,-6544.25 2675.05,-6600.82 2687.62,-6657.39 2700.19,-6713.96 2712.76,-6770.53 2725.34,-6827.1 2737.91,-6883.67 2750.48,-6940.24 2763.05,-6996.81 
  2775.62,-7053.39 2788.19,-7109.96 2800.76,-7166.53 2813.33,-7223.1 2825.9,-7279.67 2838.48,-7336.24 2851.05,-7392.81 2863.62,-7449.38 2876.19,-7505.95 2888.76,-7562.52 
  2901.33,-7619.09 2913.9,-7675.66 2926.47,-7732.23 2939.05,-7788.8 2951.62,-7845.37 2964.19,-7901.94 2976.76,-7958.51 2989.33,-8015.08 3001.9,-8071.65 3014.47,-8128.22 
  3027.04,-8184.79 3039.62,-8241.36 3052.19,-8297.93 3064.76,-8354.5 3077.33,-8411.07 3089.9,-8467.64 3102.47,-8524.22 3115.04,-8580.79 3127.61,-8637.36 3140.18,-8693.93 
  3152.76,-8750.5 
  "/>
<polyline clip-path="url(#clip243)" style="stroke:#ff0000; stroke-linecap:round; stroke-linejoin:round; stroke-width:12; stroke-opacity:1; fill:none" points="
  387.093,300.764 399.664,313.336 412.235,325.907 424.806,338.478 437.378,351.049 449.949,363.62 462.52,376.192 475.091,388.763 487.662,401.334 500.234,413.905 
  512.805,426.476 525.376,439.048 537.947,451.619 550.518,464.19 563.09,476.761 575.661,489.332 588.232,501.903 600.803,514.475 613.374,527.046 625.946,539.617 
  638.517,552.188 651.088,564.759 663.659,577.331 676.23,589.902 688.802,602.473 701.373,615.044 713.944,627.615 726.515,640.187 739.086,652.758 751.658,665.329 
  764.229,677.9 776.8,690.471 789.371,703.043 801.942,715.614 814.513,728.185 827.085,740.756 839.656,753.327 852.227,765.899 864.798,778.47 877.369,791.041 
  889.941,803.612 902.512,816.183 915.083,828.755 927.654,841.326 940.225,853.897 952.797,866.468 965.368,879.039 977.939,891.611 990.51,904.182 1003.08,916.753 
  1015.65,929.324 1028.22,941.895 1040.8,954.467 1053.37,967.038 1065.94,979.609 1078.51,992.18 1091.08,1004.75 1103.65,1017.32 1116.22,1029.89 1128.79,1042.46 
  1141.36,1055.04 1153.94,1067.61 1166.51,1080.18 1179.08,1092.75 1191.65,1105.32 1204.22,1117.89 1216.79,1130.46 1229.36,1143.03 1241.93,1155.61 1254.51,1168.18 
  1267.08,1180.75 1279.65,1193.32 1292.22,1205.89 1304.79,1218.46 1317.36,1231.03 1329.93,1243.6 1342.5,1256.18 1355.07,1268.75 1367.65,1281.32 1380.22,1293.89 
  1392.79,1306.46 1405.36,1319.03 1417.93,1331.6 1430.5,1344.17 1443.07,1356.74 1455.64,1369.32 1468.22,1381.89 1480.79,1394.46 1493.36,1407.03 1505.93,1419.6 
  1518.5,1432.17 1531.07,1444.74 1543.64,1457.31 1556.21,1469.89 1568.79,1482.46 1581.36,1495.03 1593.93,1507.6 1606.5,1520.17 1619.07,1532.74 1631.64,1545.31 
  1644.21,1557.88 1656.78,1570.46 1669.35,1583.03 1681.93,1595.6 1694.5,1608.17 1707.07,1620.74 1719.64,1633.31 1732.21,1645.88 1744.78,1658.45 1757.35,1671.02 
  1769.92,1683.6 1782.5,1696.17 1795.07,1708.74 1807.64,1721.31 1820.21,1733.88 1832.78,1746.45 1845.35,1759.02 1857.92,1771.59 1870.49,1784.17 1883.07,1796.74 
  1895.64,1809.31 1908.21,1821.88 1920.78,1834.45 1933.35,1847.02 1945.92,1859.59 1958.49,1872.16 1971.06,1884.74 1983.63,1897.31 1996.21,1909.88 2008.78,1922.45 
  2021.35,1935.02 2033.92,1947.59 2046.49,1960.16 2059.06,1972.73 2071.63,1985.3 2084.2,1997.88 2096.78,2010.45 2109.35,2023.02 2121.92,2035.59 2134.49,2048.16 
  2147.06,2060.73 2159.63,2073.3 2172.2,2085.87 2184.77,2098.45 2197.35,2111.02 2209.92,2123.59 2222.49,2136.16 2235.06,2148.73 2247.63,2161.3 2260.2,2173.87 
  2272.77,2186.44 2285.34,2199.01 2297.91,2211.59 2310.49,2224.16 2323.06,2236.73 2335.63,2249.3 2348.2,2261.87 2360.77,2274.44 2373.34,2287.01 2385.91,2299.58 
  2398.48,2312.16 2411.06,2324.73 2423.63,2337.3 2436.2,2349.87 2448.77,2362.44 2461.34,2375.01 2473.91,2387.58 2486.48,2400.15 2499.05,2412.73 2511.62,2425.3 
  2524.2,2437.87 2536.77,2450.44 2549.34,2463.01 2561.91,2475.58 2574.48,2488.15 2587.05,2500.72 2599.62,2513.29 2612.19,2525.87 2624.77,2538.44 2637.34,2551.01 
  2649.91,2563.58 2662.48,2576.15 2675.05,2588.72 2687.62,2601.29 2700.19,2613.86 2712.76,2626.44 2725.34,2639.01 2737.91,2651.58 2750.48,2664.15 2763.05,2676.72 
  2775.62,2689.29 2788.19,2701.86 2800.76,2714.43 2813.33,2727.01 2825.9,2739.58 2838.48,2752.15 2851.05,2764.72 2863.62,2777.29 2876.19,2789.86 2888.76,2802.43 
  2901.33,2815 2913.9,2827.57 2926.47,2840.15 2939.05,2852.72 2951.62,2865.29 2964.19,2877.86 2976.76,2890.43 2989.33,2903 3001.9,2915.57 3014.47,2928.14 
  3027.04,2940.72 3039.62,2953.29 3052.19,2965.86 3064.76,2978.43 3077.33,2991 3089.9,3003.57 3102.47,3016.14 3115.04,3028.71 3127.61,3041.29 3140.18,3053.86 
  3152.76,3066.43 
  "/>
<polyline clip-path="url(#clip243)" style="stroke:#a52a2a; stroke-linecap:round; stroke-linejoin:round; stroke-width:12; stroke-opacity:1; fill:none" points="
  387.093,677.9 399.664,696.757 412.235,715.614 424.806,734.471 437.378,753.327 449.949,772.184 462.52,791.041 475.091,809.898 487.662,828.755 500.234,847.611 
  512.805,866.468 525.376,885.325 537.947,904.182 550.518,923.039 563.09,941.895 575.661,960.752 588.232,979.609 600.803,998.466 613.374,1017.32 625.946,1036.18 
  638.517,1055.04 651.088,1073.89 663.659,1092.75 676.23,1111.61 688.802,1130.46 701.373,1149.32 713.944,1168.18 726.515,1187.03 739.086,1205.89 751.658,1224.75 
  764.229,1243.6 776.8,1262.46 789.371,1281.32 801.942,1300.17 814.513,1319.03 827.085,1337.89 839.656,1356.74 852.227,1375.6 864.798,1394.46 877.369,1413.32 
  889.941,1432.17 902.512,1451.03 915.083,1469.89 927.654,1488.74 940.225,1507.6 952.797,1526.46 965.368,1545.31 977.939,1564.17 990.51,1583.03 1003.08,1601.88 
  1015.65,1620.74 1028.22,1639.6 1040.8,1658.45 1053.37,1677.31 1065.94,1696.17 1078.51,1715.02 1091.08,1733.88 1103.65,1752.74 1116.22,1771.59 1128.79,1790.45 
  1141.36,1809.31 1153.94,1828.16 1166.51,1847.02 1179.08,1865.88 1191.65,1884.74 1204.22,1903.59 1216.79,1922.45 1229.36,1941.31 1241.93,1960.16 1254.51,1979.02 
  1267.08,1997.88 1279.65,2016.73 1292.22,2035.59 1304.79,2054.45 1317.36,2073.3 1329.93,2092.16 1342.5,2111.02 1355.07,2129.87 1367.65,2148.73 1380.22,2167.59 
  1392.79,2186.44 1405.36,2205.3 1417.93,2224.16 1430.5,2243.01 1443.07,2261.87 1455.64,2280.73 1468.22,2299.58 1480.79,2318.44 1493.36,2337.3 1505.93,2356.15 
  1518.5,2375.01 1531.07,2393.87 1543.64,2412.73 1556.21,2431.58 1568.79,2450.44 1581.36,2469.3 1593.93,2488.15 1606.5,2507.01 1619.07,2525.87 1631.64,2544.72 
  1644.21,2563.58 1656.78,2582.44 1669.35,2601.29 1681.93,2620.15 1694.5,2639.01 1707.07,2657.86 1719.64,2676.72 1732.21,2695.58 1744.78,2714.43 1757.35,2733.29 
  1769.92,2752.15 1782.5,2771 1795.07,2789.86 1807.64,2808.72 1820.21,2827.57 1832.78,2846.43 1845.35,2865.29 1857.92,2884.15 1870.49,2903 1883.07,2921.86 
  1895.64,2940.72 1908.21,2959.57 1920.78,2978.43 1933.35,2997.29 1945.92,3016.14 1958.49,3035 1971.06,3053.86 1983.63,3072.71 1996.21,3091.57 2008.78,3110.43 
  2021.35,3129.28 2033.92,3148.14 2046.49,3167 2059.06,3185.85 2071.63,3204.71 2084.2,3223.57 2096.78,3242.42 2109.35,3261.28 2121.92,3280.14 2134.49,3298.99 
  2147.06,3317.85 2159.63,3336.71 2172.2,3355.56 2184.77,3374.42 2197.35,3393.28 2209.92,3412.14 2222.49,3430.99 2235.06,3449.85 2247.63,3468.71 2260.2,3487.56 
  2272.77,3506.42 2285.34,3525.28 2297.91,3544.13 2310.49,3562.99 2323.06,3581.85 2335.63,3600.7 2348.2,3619.56 2360.77,3638.42 2373.34,3657.27 2385.91,3676.13 
  2398.48,3694.99 2411.06,3713.84 2423.63,3732.7 2436.2,3751.56 2448.77,3770.41 2461.34,3789.27 2473.91,3808.13 2486.48,3826.98 2499.05,3845.84 2511.62,3864.7 
  2524.2,3883.56 2536.77,3902.41 2549.34,3921.27 2561.91,3940.13 2574.48,3958.98 2587.05,3977.84 2599.62,3996.7 2612.19,4015.55 2624.77,4034.41 2637.34,4053.27 
  2649.91,4072.12 2662.48,4090.98 2675.05,4109.84 2687.62,4128.69 2700.19,4147.55 2712.76,4166.41 2725.34,4185.26 2737.91,4204.12 2750.48,4222.98 2763.05,4241.83 
  2775.62,4260.69 2788.19,4279.55 2800.76,4298.4 2813.33,4317.26 2825.9,4336.12 2838.48,4354.97 2851.05,4373.83 2863.62,4392.69 2876.19,4411.55 2888.76,4430.4 
  2901.33,4449.26 2913.9,4468.12 2926.47,4486.97 2939.05,4505.83 2951.62,4524.69 2964.19,4543.54 2976.76,4562.4 2989.33,4581.26 3001.9,4600.11 3014.47,4618.97 
  3027.04,4637.83 3039.62,4656.68 3052.19,4675.54 3064.76,4694.4 3077.33,4713.25 3089.9,4732.11 3102.47,4750.97 3115.04,4769.82 3127.61,4788.68 3140.18,4807.54 
  3152.76,4826.39 
  "/>
<polyline clip-path="url(#clip243)" style="stroke:#800080; stroke-linecap:round; stroke-linejoin:round; stroke-width:12; stroke-opacity:1; fill:none" points="
  387.093,2689.29 399.664,2683.01 412.235,2676.72 424.806,2670.43 437.378,2664.15 449.949,2657.86 462.52,2651.58 475.091,2645.29 487.662,2639.01 500.234,2632.72 
  512.805,2626.44 525.376,2620.15 537.947,2613.86 550.518,2607.58 563.09,2601.29 575.661,2595.01 588.232,2588.72 600.803,2582.44 613.374,2576.15 625.946,2569.87 
  638.517,2563.58 651.088,2557.29 663.659,2551.01 676.23,2544.72 688.802,2538.44 701.373,2532.15 713.944,2525.87 726.515,2519.58 739.086,2513.29 751.658,2507.01 
  764.229,2500.72 776.8,2494.44 789.371,2488.15 801.942,2481.87 814.513,2475.58 827.085,2469.3 839.656,2463.01 852.227,2456.72 864.798,2450.44 877.369,2444.15 
  889.941,2437.87 902.512,2431.58 915.083,2425.3 927.654,2419.01 940.225,2412.73 952.797,2406.44 965.368,2400.15 977.939,2393.87 990.51,2387.58 1003.08,2381.3 
  1015.65,2375.01 1028.22,2368.73 1040.8,2362.44 1053.37,2356.15 1065.94,2349.87 1078.51,2343.58 1091.08,2337.3 1103.65,2331.01 1116.22,2324.73 1128.79,2318.44 
  1141.36,2312.16 1153.94,2305.87 1166.51,2299.58 1179.08,2293.3 1191.65,2287.01 1204.22,2280.73 1216.79,2274.44 1229.36,2268.16 1241.93,2261.87 1254.51,2255.59 
  1267.08,2249.3 1279.65,2243.01 1292.22,2236.73 1304.79,2230.44 1317.36,2224.16 1329.93,2217.87 1342.5,2211.59 1355.07,2205.3 1367.65,2199.01 1380.22,2192.73 
  1392.79,2186.44 1405.36,2180.16 1417.93,2173.87 1430.5,2167.59 1443.07,2161.3 1455.64,2155.02 1468.22,2148.73 1480.79,2142.44 1493.36,2136.16 1505.93,2129.87 
  1518.5,2123.59 1531.07,2117.3 1543.64,2111.02 1556.21,2104.73 1568.79,2098.45 1581.36,2092.16 1593.93,2085.87 1606.5,2079.59 1619.07,2073.3 1631.64,2067.02 
  1644.21,2060.73 1656.78,2054.45 1669.35,2048.16 1681.93,2041.87 1694.5,2035.59 1707.07,2029.3 1719.64,2023.02 1732.21,2016.73 1744.78,2010.45 1757.35,2004.16 
  1769.92,1997.88 1782.5,1991.59 1795.07,1985.3 1807.64,1979.02 1820.21,1972.73 1832.78,1966.45 1845.35,1960.16 1857.92,1953.88 1870.49,1947.59 1883.07,1941.31 
  1895.64,1935.02 1908.21,1928.73 1920.78,1922.45 1933.35,1916.16 1945.92,1909.88 1958.49,1903.59 1971.06,1897.31 1983.63,1891.02 1996.21,1884.74 2008.78,1878.45 
  2021.35,1872.16 2033.92,1865.88 2046.49,1859.59 2059.06,1853.31 2071.63,1847.02 2084.2,1840.74 2096.78,1834.45 2109.35,1828.16 2121.92,1821.88 2134.49,1815.59 
  2147.06,1809.31 2159.63,1803.02 2172.2,1796.74 2184.77,1790.45 2197.35,1784.17 2209.92,1777.88 2222.49,1771.59 2235.06,1765.31 2247.63,1759.02 2260.2,1752.74 
  2272.77,1746.45 2285.34,1740.17 2297.91,1733.88 2310.49,1727.6 2323.06,1721.31 2335.63,1715.02 2348.2,1708.74 2360.77,1702.45 2373.34,1696.17 2385.91,1689.88 
  2398.48,1683.6 2411.06,1677.31 2423.63,1671.02 2436.2,1664.74 2448.77,1658.45 2461.34,1652.17 2473.91,1645.88 2486.48,1639.6 2499.05,1633.31 2511.62,1627.03 
  2524.2,1620.74 2536.77,1614.45 2549.34,1608.17 2561.91,1601.88 2574.48,1595.6 2587.05,1589.31 2599.62,1583.03 2612.19,1576.74 2624.77,1570.46 2637.34,1564.17 
  2649.91,1557.88 2662.48,1551.6 2675.05,1545.31 2687.62,1539.03 2700.19,1532.74 2712.76,1526.46 2725.34,1520.17 2737.91,1513.88 2750.48,1507.6 2763.05,1501.31 
  2775.62,1495.03 2788.19,1488.74 2800.76,1482.46 2813.33,1476.17 2825.9,1469.89 2838.48,1463.6 2851.05,1457.31 2863.62,1451.03 2876.19,1444.74 2888.76,1438.46 
  2901.33,1432.17 2913.9,1425.89 2926.47,1419.6 2939.05,1413.32 2951.62,1407.03 2964.19,1400.74 2976.76,1394.46 2989.33,1388.17 3001.9,1381.89 3014.47,1375.6 
  3027.04,1369.32 3039.62,1363.03 3052.19,1356.74 3064.76,1350.46 3077.33,1344.17 3089.9,1337.89 3102.47,1331.6 3115.04,1325.32 3127.61,1319.03 3140.18,1312.75 
  3152.76,1306.46 
  "/>
</svg>
