<?xml version="1.0" encoding="utf-8"?>
<svg xmlns="http://www.w3.org/2000/svg" xmlns:xlink="http://www.w3.org/1999/xlink" width="800" height="800" viewBox="0 0 3200 3200">
<defs>
  <clipPath id="clip210">
    <rect x="0" y="0" width="3200" height="3200"/>
  </clipPath>
</defs>
<path clip-path="url(#clip210)" d="
M0 3200 L3200 3200 L3200 0 L0 0  Z
  " fill="#ffffff" fill-rule="evenodd" fill-opacity="1"/>
<defs>
  <clipPath id="clip211">
    <rect x="640" y="320" width="2241" height="2241"/>
  </clipPath>
</defs>
<defs>
  <clipPath id="clip212">
    <rect x="1018" y="107" width="2075" height="1785"/>
  </clipPath>
</defs>
<path clip-path="url(#clip210)" d="
M597.714 2606.01 L3152.76 2606.01 L3152.76 50.9709 L597.714 50.9709  Z
  " fill="#ffffff" fill-rule="evenodd" fill-opacity="1"/>
<defs>
  <clipPath id="clip213">
    <rect x="597" y="50" width="2556" height="2556"/>
  </clipPath>
</defs>
<polyline clip-path="url(#clip213)" style="stroke:#000000; stroke-linecap:butt; stroke-linejoin:round; stroke-width:2; stroke-opacity:0.1; fill:none" points="
  1410.68,2606.01 1410.68,50.9709 
  "/>
<polyline clip-path="url(#clip213)" style="stroke:#000000; stroke-linecap:butt; stroke-linejoin:round; stroke-width:2; stroke-opacity:0.1; fill:none" points="
  1991.37,2606.01 1991.37,50.9709 
  "/>
<polyline clip-path="url(#clip213)" style="stroke:#000000; stroke-linecap:butt; stroke-linejoin:round; stroke-width:2; stroke-opacity:0.1; fill:none" points="
  2572.06,2606.01 2572.06,50.9709 
  "/>
<polyline clip-path="url(#clip213)" style="stroke:#000000; stroke-linecap:butt; stroke-linejoin:round; stroke-width:2; stroke-opacity:0.1; fill:none" points="
  3152.76,2606.01 3152.76,50.9709 
  "/>
<polyline clip-path="url(#clip210)" style="stroke:#000000; stroke-linecap:butt; stroke-linejoin:round; stroke-width:4; stroke-opacity:1; fill:none" points="
  597.714,2373.74 3152.76,2373.74 
  "/>
<polyline clip-path="url(#clip210)" style="stroke:#000000; stroke-linecap:butt; stroke-linejoin:round; stroke-width:4; stroke-opacity:1; fill:none" points="
  1410.68,2392.58 1410.68,2354.89 
  "/>
<polyline clip-path="url(#clip210)" style="stroke:#000000; stroke-linecap:butt; stroke-linejoin:round; stroke-width:4; stroke-opacity:1; fill:none" points="
  1991.37,2392.58 1991.37,2354.89 
  "/>
<polyline clip-path="url(#clip210)" style="stroke:#000000; stroke-linecap:butt; stroke-linejoin:round; stroke-width:4; stroke-opacity:1; fill:none" points="
  2572.06,2392.58 2572.06,2354.89 
  "/>
<polyline clip-path="url(#clip210)" style="stroke:#000000; stroke-linecap:butt; stroke-linejoin:round; stroke-width:4; stroke-opacity:1; fill:none" points="
  3152.76,2392.58 3152.76,2354.89 
  "/>
<polyline clip-path="url(#clip210)" style="stroke:#000000; stroke-linecap:butt; stroke-linejoin:round; stroke-width:4; stroke-opacity:1; fill:none" points="
  597.714,2383.16 597.714,2364.32 
  "/>
<polyline clip-path="url(#clip210)" style="stroke:#000000; stroke-linecap:butt; stroke-linejoin:round; stroke-width:4; stroke-opacity:1; fill:none" points="
  713.852,2383.16 713.852,2364.32 
  "/>
<polyline clip-path="url(#clip210)" style="stroke:#000000; stroke-linecap:butt; stroke-linejoin:round; stroke-width:4; stroke-opacity:1; fill:none" points="
  946.129,2383.16 946.129,2364.32 
  "/>
<polyline clip-path="url(#clip210)" style="stroke:#000000; stroke-linecap:butt; stroke-linejoin:round; stroke-width:4; stroke-opacity:1; fill:none" points="
  1062.27,2383.16 1062.27,2364.32 
  "/>
<polyline clip-path="url(#clip210)" style="stroke:#000000; stroke-linecap:butt; stroke-linejoin:round; stroke-width:4; stroke-opacity:1; fill:none" points="
  1178.41,2383.16 1178.41,2364.32 
  "/>
<polyline clip-path="url(#clip210)" style="stroke:#000000; stroke-linecap:butt; stroke-linejoin:round; stroke-width:4; stroke-opacity:1; fill:none" points="
  1294.54,2383.16 1294.54,2364.32 
  "/>
<polyline clip-path="url(#clip210)" style="stroke:#000000; stroke-linecap:butt; stroke-linejoin:round; stroke-width:4; stroke-opacity:1; fill:none" points="
  1526.82,2383.16 1526.82,2364.32 
  "/>
<polyline clip-path="url(#clip210)" style="stroke:#000000; stroke-linecap:butt; stroke-linejoin:round; stroke-width:4; stroke-opacity:1; fill:none" points="
  1642.96,2383.16 1642.96,2364.32 
  "/>
<polyline clip-path="url(#clip210)" style="stroke:#000000; stroke-linecap:butt; stroke-linejoin:round; stroke-width:4; stroke-opacity:1; fill:none" points="
  1759.1,2383.16 1759.1,2364.32 
  "/>
<polyline clip-path="url(#clip210)" style="stroke:#000000; stroke-linecap:butt; stroke-linejoin:round; stroke-width:4; stroke-opacity:1; fill:none" points="
  1875.23,2383.16 1875.23,2364.32 
  "/>
<polyline clip-path="url(#clip210)" style="stroke:#000000; stroke-linecap:butt; stroke-linejoin:round; stroke-width:4; stroke-opacity:1; fill:none" points="
  2107.51,2383.16 2107.51,2364.32 
  "/>
<polyline clip-path="url(#clip210)" style="stroke:#000000; stroke-linecap:butt; stroke-linejoin:round; stroke-width:4; stroke-opacity:1; fill:none" points="
  2223.65,2383.16 2223.65,2364.32 
  "/>
<polyline clip-path="url(#clip210)" style="stroke:#000000; stroke-linecap:butt; stroke-linejoin:round; stroke-width:4; stroke-opacity:1; fill:none" points="
  2339.79,2383.16 2339.79,2364.32 
  "/>
<polyline clip-path="url(#clip210)" style="stroke:#000000; stroke-linecap:butt; stroke-linejoin:round; stroke-width:4; stroke-opacity:1; fill:none" points="
  2455.93,2383.16 2455.93,2364.32 
  "/>
<polyline clip-path="url(#clip210)" style="stroke:#000000; stroke-linecap:butt; stroke-linejoin:round; stroke-width:4; stroke-opacity:1; fill:none" points="
  2688.2,2383.16 2688.2,2364.32 
  "/>
<polyline clip-path="url(#clip210)" style="stroke:#000000; stroke-linecap:butt; stroke-linejoin:round; stroke-width:4; stroke-opacity:1; fill:none" points="
  2804.34,2383.16 2804.34,2364.32 
  "/>
<polyline clip-path="url(#clip210)" style="stroke:#000000; stroke-linecap:butt; stroke-linejoin:round; stroke-width:4; stroke-opacity:1; fill:none" points="
  2920.48,2383.16 2920.48,2364.32 
  "/>
<polyline clip-path="url(#clip210)" style="stroke:#000000; stroke-linecap:butt; stroke-linejoin:round; stroke-width:4; stroke-opacity:1; fill:none" points="
  3036.62,2383.16 3036.62,2364.32 
  "/>
<path clip-path="url(#clip210)" d="M1371.79 2433.9 L1445.22 2433.9 L1445.22 2449.64 L1388.92 2449.64 L1388.92 2483.53 Q1393 2482.14 1397.07 2481.49 Q1401.14 2480.75 1405.22 2480.75 Q1428.37 2480.75 1441.89 2493.43 Q1455.4 2506.12 1455.4 2527.78 Q1455.4 2550.1 1441.51 2562.51 Q1427.63 2574.82 1402.35 2574.82 Q1393.64 2574.82 1384.57 2573.34 Q1375.59 2571.86 1365.96 2568.9 L1365.96 2550.1 Q1374.29 2554.64 1383.18 2556.86 Q1392.07 2559.08 1401.98 2559.08 Q1418 2559.08 1427.35 2550.66 Q1436.7 2542.23 1436.7 2527.78 Q1436.7 2513.34 1427.35 2504.91 Q1418 2496.49 1401.98 2496.49 Q1394.48 2496.49 1386.98 2498.16 Q1379.57 2499.82 1371.79 2503.34 L1371.79 2433.9 Z" fill="#000000" fill-rule="evenodd" fill-opacity="1" /><path clip-path="url(#clip210)" d="M1890.12 2556.4 L1920.68 2556.4 L1920.68 2450.93 L1887.44 2457.6 L1887.44 2440.56 L1920.49 2433.9 L1939.2 2433.9 L1939.2 2556.4 L1969.75 2556.4 L1969.75 2572.14 L1890.12 2572.14 L1890.12 2556.4 Z" fill="#000000" fill-rule="evenodd" fill-opacity="1" /><path clip-path="url(#clip210)" d="M2047.53 2446.21 Q2033.09 2446.21 2025.77 2460.47 Q2018.55 2474.64 2018.55 2503.16 Q2018.55 2531.58 2025.77 2545.84 Q2033.09 2560.01 2047.53 2560.01 Q2062.07 2560.01 2069.29 2545.84 Q2076.6 2531.58 2076.6 2503.16 Q2076.6 2474.64 2069.29 2460.47 Q2062.07 2446.21 2047.53 2446.21 M2047.53 2431.4 Q2070.77 2431.4 2082.99 2449.82 Q2095.31 2468.16 2095.31 2503.16 Q2095.31 2538.06 2082.99 2556.49 Q2070.77 2574.82 2047.53 2574.82 Q2024.29 2574.82 2011.97 2556.49 Q1999.75 2538.06 1999.75 2503.16 Q1999.75 2468.16 2011.97 2449.82 Q2024.29 2431.4 2047.53 2431.4 Z" fill="#000000" fill-rule="evenodd" fill-opacity="1" /><path clip-path="url(#clip210)" d="M2472.81 2556.4 L2503.36 2556.4 L2503.36 2450.93 L2470.12 2457.6 L2470.12 2440.56 L2503.18 2433.9 L2521.88 2433.9 L2521.88 2556.4 L2552.43 2556.4 L2552.43 2572.14 L2472.81 2572.14 L2472.81 2556.4 Z" fill="#000000" fill-rule="evenodd" fill-opacity="1" /><path clip-path="url(#clip210)" d="M2590.4 2433.9 L2663.82 2433.9 L2663.82 2449.64 L2607.53 2449.64 L2607.53 2483.53 Q2611.6 2482.14 2615.68 2481.49 Q2619.75 2480.75 2623.82 2480.75 Q2646.97 2480.75 2660.49 2493.43 Q2674.01 2506.12 2674.01 2527.78 Q2674.01 2550.1 2660.12 2562.51 Q2646.23 2574.82 2620.95 2574.82 Q2612.25 2574.82 2603.18 2573.34 Q2594.19 2571.86 2584.56 2568.9 L2584.56 2550.1 Q2592.9 2554.64 2601.79 2556.86 Q2610.68 2559.08 2620.58 2559.08 Q2636.6 2559.08 2645.95 2550.66 Q2655.3 2542.23 2655.3 2527.78 Q2655.3 2513.34 2645.95 2504.91 Q2636.6 2496.49 2620.58 2496.49 Q2613.08 2496.49 2605.58 2498.16 Q2598.18 2499.82 2590.4 2503.34 L2590.4 2433.9 Z" fill="#000000" fill-rule="evenodd" fill-opacity="1" /><path clip-path="url(#clip210)" d="M3067.85 2556.4 L3133.13 2556.4 L3133.13 2572.14 L3045.35 2572.14 L3045.35 2556.4 Q3056 2545.38 3074.33 2526.86 Q3092.76 2508.25 3097.48 2502.88 Q3106.46 2492.79 3109.98 2485.84 Q3113.59 2478.8 3113.59 2472.04 Q3113.59 2461.03 3105.81 2454.08 Q3098.13 2447.14 3085.72 2447.14 Q3076.92 2447.14 3067.11 2450.19 Q3057.39 2453.25 3046.27 2459.45 L3046.27 2440.56 Q3057.57 2436.03 3067.39 2433.71 Q3077.2 2431.4 3085.35 2431.4 Q3106.83 2431.4 3119.61 2442.14 Q3132.39 2452.88 3132.39 2470.84 Q3132.39 2479.36 3129.14 2487.04 Q3126 2494.64 3117.57 2505.01 Q3115.26 2507.69 3102.85 2520.56 Q3090.44 2533.34 3067.85 2556.4 Z" fill="#000000" fill-rule="evenodd" fill-opacity="1" /><path clip-path="url(#clip210)" d="M3212.39 2446.21 Q3197.94 2446.21 3190.63 2460.47 Q3183.4 2474.64 3183.4 2503.16 Q3183.4 2531.58 3190.63 2545.84 Q3197.94 2560.01 3212.39 2560.01 Q3226.92 2560.01 3234.14 2545.84 Q3241.46 2531.58 3241.46 2503.16 Q3241.46 2474.64 3234.14 2460.47 Q3226.92 2446.21 3212.39 2446.21 M3212.39 2431.4 Q3235.63 2431.4 3247.85 2449.82 Q3260.16 2468.16 3260.16 2503.16 Q3260.16 2538.06 3247.85 2556.49 Q3235.63 2574.82 3212.39 2574.82 Q3189.14 2574.82 3176.83 2556.49 Q3164.61 2538.06 3164.61 2503.16 Q3164.61 2468.16 3176.83 2449.82 Q3189.14 2431.4 3212.39 2431.4 Z" fill="#000000" fill-rule="evenodd" fill-opacity="1" /><path clip-path="url(#clip210)" d="M1929.35 2929.27 Q1929.35 2936.16 1925.05 2940.09 Q1920.74 2943.9 1915.82 2943.9 Q1911.15 2943.9 1908.69 2941.2 Q1906.23 2938.49 1906.23 2935.05 Q1906.23 2930.38 1909.68 2926.32 Q1913.12 2922.26 1918.28 2921.4 Q1913.24 2918.2 1905.74 2918.2 Q1900.82 2918.2 1896.52 2920.79 Q1892.34 2923.37 1889.76 2926.69 Q1887.3 2930.01 1885.08 2934.8 Q1882.99 2939.48 1882.13 2942.31 Q1881.39 2945.01 1880.78 2947.96 L1872.17 2982.39 Q1867.99 2998.75 1867.99 3004.53 Q1867.99 3011.66 1871.43 3016.45 Q1874.88 3021.13 1881.76 3021.13 Q1884.47 3021.13 1887.54 3020.39 Q1890.62 3019.53 1894.55 3017.32 Q1898.61 3014.98 1902.17 3011.54 Q1905.86 3007.97 1909.43 3001.94 Q1913 2995.92 1915.33 2988.17 Q1916.07 2985.47 1918.53 2985.47 Q1921.6 2985.47 1921.6 2987.93 Q1921.6 2990.02 1919.88 2994.44 Q1918.28 2998.75 1914.72 3004.4 Q1911.27 3009.94 1906.72 3014.98 Q1902.17 3019.9 1895.41 3023.34 Q1888.65 3026.78 1881.27 3026.78 Q1870.7 3026.78 1863.69 3021.13 Q1856.68 3015.47 1854.09 3007.6 Q1853.48 3008.71 1852.62 3010.18 Q1851.76 3011.66 1849.18 3014.98 Q1846.72 3018.18 1843.89 3020.64 Q1841.06 3022.97 1836.63 3024.82 Q1832.33 3026.78 1827.66 3026.78 Q1821.75 3026.78 1816.47 3025.06 Q1811.3 3023.34 1807.61 3019.41 Q1803.92 3015.47 1803.92 3010.06 Q1803.92 3004.03 1807.98 2999.85 Q1812.16 2995.55 1817.82 2995.55 Q1821.38 2995.55 1824.21 2997.64 Q1827.16 2999.73 1827.16 3004.28 Q1827.16 3009.32 1823.72 3013.13 Q1820.28 3016.95 1815.36 3017.93 Q1820.4 3021.13 1827.9 3021.13 Q1836.02 3021.13 1842.41 3014 Q1848.81 3006.86 1851.88 2994.94 Q1859.5 2966.28 1862.46 2953.5 Q1865.41 2940.58 1865.41 2935.05 Q1865.41 2929.89 1864.05 2926.32 Q1862.7 2922.75 1860.37 2921.15 Q1858.15 2919.43 1856.06 2918.82 Q1854.09 2918.2 1851.88 2918.2 Q1848.19 2918.2 1844.01 2919.68 Q1839.95 2921.15 1835.03 2924.6 Q1830.24 2927.92 1825.69 2934.8 Q1821.14 2941.69 1818.06 2951.16 Q1817.45 2953.99 1814.74 2953.99 Q1811.79 2953.86 1811.79 2951.4 Q1811.79 2949.31 1813.39 2945.01 Q1815.11 2940.58 1818.56 2935.05 Q1822.12 2929.52 1826.67 2924.6 Q1831.35 2919.56 1838.11 2916.11 Q1844.99 2912.67 1852.37 2912.67 Q1855.69 2912.67 1858.89 2913.41 Q1862.21 2914.02 1866.15 2915.87 Q1870.2 2917.71 1873.77 2921.77 Q1877.34 2925.83 1879.55 2931.73 Q1881.02 2928.9 1882.99 2926.2 Q1885.08 2923.49 1888.28 2920.17 Q1891.6 2916.73 1896.15 2914.76 Q1900.82 2912.67 1905.99 2912.67 Q1911.03 2912.67 1915.95 2914.02 Q1920.87 2915.25 1925.05 2919.31 Q1929.35 2923.25 1929.35 2929.27 Z" fill="#000000" fill-rule="evenodd" fill-opacity="1" /><polyline clip-path="url(#clip213)" style="stroke:#000000; stroke-linecap:butt; stroke-linejoin:round; stroke-width:2; stroke-opacity:0.1; fill:none" points="
  597.714,1793.05 3152.76,1793.05 
  "/>
<polyline clip-path="url(#clip213)" style="stroke:#000000; stroke-linecap:butt; stroke-linejoin:round; stroke-width:2; stroke-opacity:0.1; fill:none" points="
  597.714,1212.35 3152.76,1212.35 
  "/>
<polyline clip-path="url(#clip213)" style="stroke:#000000; stroke-linecap:butt; stroke-linejoin:round; stroke-width:2; stroke-opacity:0.1; fill:none" points="
  597.714,631.662 3152.76,631.662 
  "/>
<polyline clip-path="url(#clip213)" style="stroke:#000000; stroke-linecap:butt; stroke-linejoin:round; stroke-width:2; stroke-opacity:0.1; fill:none" points="
  597.714,50.9709 3152.76,50.9709 
  "/>
<polyline clip-path="url(#clip210)" style="stroke:#000000; stroke-linecap:butt; stroke-linejoin:round; stroke-width:4; stroke-opacity:1; fill:none" points="
  829.99,2606.01 829.99,50.9709 
  "/>
<polyline clip-path="url(#clip210)" style="stroke:#000000; stroke-linecap:butt; stroke-linejoin:round; stroke-width:4; stroke-opacity:1; fill:none" points="
  811.093,1793.05 848.888,1793.05 
  "/>
<polyline clip-path="url(#clip210)" style="stroke:#000000; stroke-linecap:butt; stroke-linejoin:round; stroke-width:4; stroke-opacity:1; fill:none" points="
  811.093,1212.35 848.888,1212.35 
  "/>
<polyline clip-path="url(#clip210)" style="stroke:#000000; stroke-linecap:butt; stroke-linejoin:round; stroke-width:4; stroke-opacity:1; fill:none" points="
  811.093,631.662 848.888,631.662 
  "/>
<polyline clip-path="url(#clip210)" style="stroke:#000000; stroke-linecap:butt; stroke-linejoin:round; stroke-width:4; stroke-opacity:1; fill:none" points="
  811.093,50.9709 848.888,50.9709 
  "/>
<polyline clip-path="url(#clip210)" style="stroke:#000000; stroke-linecap:butt; stroke-linejoin:round; stroke-width:4; stroke-opacity:1; fill:none" points="
  820.542,2606.01 839.439,2606.01 
  "/>
<polyline clip-path="url(#clip210)" style="stroke:#000000; stroke-linecap:butt; stroke-linejoin:round; stroke-width:4; stroke-opacity:1; fill:none" points="
  820.542,2489.87 839.439,2489.87 
  "/>
<polyline clip-path="url(#clip210)" style="stroke:#000000; stroke-linecap:butt; stroke-linejoin:round; stroke-width:4; stroke-opacity:1; fill:none" points="
  820.542,2257.6 839.439,2257.6 
  "/>
<polyline clip-path="url(#clip210)" style="stroke:#000000; stroke-linecap:butt; stroke-linejoin:round; stroke-width:4; stroke-opacity:1; fill:none" points="
  820.542,2141.46 839.439,2141.46 
  "/>
<polyline clip-path="url(#clip210)" style="stroke:#000000; stroke-linecap:butt; stroke-linejoin:round; stroke-width:4; stroke-opacity:1; fill:none" points="
  820.542,2025.32 839.439,2025.32 
  "/>
<polyline clip-path="url(#clip210)" style="stroke:#000000; stroke-linecap:butt; stroke-linejoin:round; stroke-width:4; stroke-opacity:1; fill:none" points="
  820.542,1909.18 839.439,1909.18 
  "/>
<polyline clip-path="url(#clip210)" style="stroke:#000000; stroke-linecap:butt; stroke-linejoin:round; stroke-width:4; stroke-opacity:1; fill:none" points="
  820.542,1676.91 839.439,1676.91 
  "/>
<polyline clip-path="url(#clip210)" style="stroke:#000000; stroke-linecap:butt; stroke-linejoin:round; stroke-width:4; stroke-opacity:1; fill:none" points="
  820.542,1560.77 839.439,1560.77 
  "/>
<polyline clip-path="url(#clip210)" style="stroke:#000000; stroke-linecap:butt; stroke-linejoin:round; stroke-width:4; stroke-opacity:1; fill:none" points="
  820.542,1444.63 839.439,1444.63 
  "/>
<polyline clip-path="url(#clip210)" style="stroke:#000000; stroke-linecap:butt; stroke-linejoin:round; stroke-width:4; stroke-opacity:1; fill:none" points="
  820.542,1328.49 839.439,1328.49 
  "/>
<polyline clip-path="url(#clip210)" style="stroke:#000000; stroke-linecap:butt; stroke-linejoin:round; stroke-width:4; stroke-opacity:1; fill:none" points="
  820.542,1096.22 839.439,1096.22 
  "/>
<polyline clip-path="url(#clip210)" style="stroke:#000000; stroke-linecap:butt; stroke-linejoin:round; stroke-width:4; stroke-opacity:1; fill:none" points="
  820.542,980.077 839.439,980.077 
  "/>
<polyline clip-path="url(#clip210)" style="stroke:#000000; stroke-linecap:butt; stroke-linejoin:round; stroke-width:4; stroke-opacity:1; fill:none" points="
  820.542,863.939 839.439,863.939 
  "/>
<polyline clip-path="url(#clip210)" style="stroke:#000000; stroke-linecap:butt; stroke-linejoin:round; stroke-width:4; stroke-opacity:1; fill:none" points="
  820.542,747.801 839.439,747.801 
  "/>
<polyline clip-path="url(#clip210)" style="stroke:#000000; stroke-linecap:butt; stroke-linejoin:round; stroke-width:4; stroke-opacity:1; fill:none" points="
  820.542,515.524 839.439,515.524 
  "/>
<polyline clip-path="url(#clip210)" style="stroke:#000000; stroke-linecap:butt; stroke-linejoin:round; stroke-width:4; stroke-opacity:1; fill:none" points="
  820.542,399.386 839.439,399.386 
  "/>
<polyline clip-path="url(#clip210)" style="stroke:#000000; stroke-linecap:butt; stroke-linejoin:round; stroke-width:4; stroke-opacity:1; fill:none" points="
  820.542,283.247 839.439,283.247 
  "/>
<polyline clip-path="url(#clip210)" style="stroke:#000000; stroke-linecap:butt; stroke-linejoin:round; stroke-width:4; stroke-opacity:1; fill:none" points="
  820.542,167.109 839.439,167.109 
  "/>
<path clip-path="url(#clip210)" d="M698.38 1723.93 L771.805 1723.93 L771.805 1739.67 L715.509 1739.67 L715.509 1773.55 Q719.583 1772.17 723.657 1771.52 Q727.731 1770.78 731.805 1770.78 Q754.953 1770.78 768.472 1783.46 Q781.99 1796.15 781.99 1817.81 Q781.99 1840.13 768.102 1852.54 Q754.213 1864.85 728.935 1864.85 Q720.231 1864.85 711.157 1863.37 Q702.176 1861.89 692.546 1858.92 L692.546 1840.13 Q700.88 1844.67 709.769 1846.89 Q718.657 1849.11 728.565 1849.11 Q744.583 1849.11 753.935 1840.68 Q763.287 1832.26 763.287 1817.81 Q763.287 1803.37 753.935 1794.94 Q744.583 1786.52 728.565 1786.52 Q721.065 1786.52 713.565 1788.18 Q706.157 1789.85 698.38 1793.37 L698.38 1723.93 Z" fill="#000000" fill-rule="evenodd" fill-opacity="1" /><path clip-path="url(#clip210)" d="M576.806 1265.73 L607.362 1265.73 L607.362 1160.27 L574.121 1166.94 L574.121 1149.9 L607.176 1143.23 L625.88 1143.23 L625.88 1265.73 L656.435 1265.73 L656.435 1281.47 L576.806 1281.47 L576.806 1265.73 Z" fill="#000000" fill-rule="evenodd" fill-opacity="1" /><path clip-path="url(#clip210)" d="M734.213 1155.55 Q719.768 1155.55 712.454 1169.81 Q705.232 1183.97 705.232 1212.49 Q705.232 1240.92 712.454 1255.18 Q719.768 1269.34 734.213 1269.34 Q748.75 1269.34 755.972 1255.18 Q763.287 1240.92 763.287 1212.49 Q763.287 1183.97 755.972 1169.81 Q748.75 1155.55 734.213 1155.55 M734.213 1140.73 Q757.453 1140.73 769.676 1159.16 Q781.99 1177.49 781.99 1212.49 Q781.99 1247.4 769.676 1265.83 Q757.453 1284.16 734.213 1284.16 Q710.972 1284.16 698.657 1265.83 Q686.435 1247.4 686.435 1212.49 Q686.435 1177.49 698.657 1159.16 Q710.972 1140.73 734.213 1140.73 Z" fill="#000000" fill-rule="evenodd" fill-opacity="1" /><path clip-path="url(#clip210)" d="M580.788 685.042 L611.343 685.042 L611.343 579.579 L578.103 586.246 L578.103 569.209 L611.158 562.542 L629.862 562.542 L629.862 685.042 L660.417 685.042 L660.417 700.782 L580.788 700.782 L580.788 685.042 Z" fill="#000000" fill-rule="evenodd" fill-opacity="1" /><path clip-path="url(#clip210)" d="M698.38 562.542 L771.805 562.542 L771.805 578.283 L715.509 578.283 L715.509 612.172 Q719.583 610.783 723.657 610.135 Q727.731 609.394 731.805 609.394 Q754.953 609.394 768.472 622.079 Q781.99 634.764 781.99 656.431 Q781.99 678.745 768.102 691.153 Q754.213 703.467 728.935 703.467 Q720.231 703.467 711.157 701.986 Q702.176 700.505 692.546 697.542 L692.546 678.745 Q700.88 683.282 709.769 685.505 Q718.657 687.727 728.565 687.727 Q744.583 687.727 753.935 679.301 Q763.287 670.875 763.287 656.431 Q763.287 641.986 753.935 633.56 Q744.583 625.135 728.565 625.135 Q721.065 625.135 713.565 626.801 Q706.157 628.468 698.38 631.986 L698.38 562.542 Z" fill="#000000" fill-rule="evenodd" fill-opacity="1" /><path clip-path="url(#clip210)" d="M589.677 104.35 L654.954 104.35 L654.954 120.091 L567.177 120.091 L567.177 104.35 Q577.825 93.3318 596.158 74.8134 Q614.584 56.2024 619.306 50.832 Q628.287 40.7395 631.806 33.7951 Q635.417 26.7581 635.417 19.9989 Q635.417 8.98041 627.639 2.036 Q619.954 -4.9084 607.547 -4.9084 Q598.751 -4.9084 588.936 -1.85286 Q579.214 1.20267 568.103 7.40634 L568.103 -11.4824 Q579.399 -16.0195 589.214 -18.3343 Q599.028 -20.6491 607.176 -20.6491 Q628.658 -20.6491 641.436 -9.90838 Q654.213 0.832306 654.213 18.7952 Q654.213 27.3136 650.973 34.9988 Q647.824 42.5913 639.399 52.9617 Q637.084 55.6468 624.676 68.5171 Q612.269 81.2948 589.677 104.35 Z" fill="#000000" fill-rule="evenodd" fill-opacity="1" /><path clip-path="url(#clip210)" d="M734.213 -5.83432 Q719.768 -5.83432 712.454 8.42486 Q705.232 22.5914 705.232 51.1098 Q705.232 79.5356 712.454 93.7948 Q719.768 107.961 734.213 107.961 Q748.75 107.961 755.972 93.7948 Q763.287 79.5356 763.287 51.1098 Q763.287 22.5914 755.972 8.42486 Q748.75 -5.83432 734.213 -5.83432 M734.213 -20.6491 Q757.453 -20.6491 769.676 -2.22323 Q781.99 16.11 781.99 51.1098 Q781.99 86.017 769.676 104.443 Q757.453 122.776 734.213 122.776 Q710.972 122.776 698.657 104.443 Q686.435 86.017 686.435 51.1098 Q686.435 16.11 698.657 -2.22323 Q710.972 -20.6491 734.213 -20.6491 Z" fill="#000000" fill-rule="evenodd" fill-opacity="1" /><path clip-path="url(#clip210)" d="M105.883 1273.37 Q107.605 1273.37 111.663 1274.47 L207.824 1298.58 Q229.22 1303.86 244.222 1321.08 Q259.224 1338.17 259.224 1357.6 Q259.224 1369.28 252.953 1376.78 Q246.805 1384.28 237.336 1384.28 Q228.974 1384.28 224.916 1379.86 Q220.981 1375.43 220.981 1370.14 Q220.981 1368.42 221.473 1366.58 Q221.965 1364.73 224.056 1362.77 Q226.146 1360.8 229.712 1360.8 Q235.492 1360.8 240.041 1365.84 Q242.132 1368.3 242.624 1370.64 Q243.116 1372.85 243.116 1376.66 Q246.559 1375.19 248.895 1372.48 Q251.231 1369.77 252.092 1366.7 Q253.076 1363.63 253.322 1361.66 Q253.691 1359.57 253.691 1357.6 Q253.691 1341.86 237.828 1329.81 Q233.032 1326.24 228.236 1323.66 Q223.564 1320.96 217.784 1318.99 Q212.128 1317.02 209.053 1316.16 Q205.979 1315.18 198.97 1313.46 Q210.406 1324.89 210.406 1338.91 Q210.406 1344.81 208.808 1350.1 Q207.209 1355.26 203.889 1359.81 Q200.446 1364.36 194.42 1367.07 Q188.395 1369.65 180.402 1369.65 Q171.917 1369.65 160.358 1366.33 Q148.799 1363.01 127.526 1355.02 Q115.598 1350.71 109.818 1350.71 Q106.99 1350.71 105.269 1351.33 Q103.424 1351.94 102.809 1353.17 Q102.071 1354.4 101.948 1355.14 Q101.825 1355.76 101.825 1356.99 Q101.825 1364.24 109.204 1371 Q116.582 1377.77 133.059 1382.44 Q136.134 1383.42 136.871 1384.04 Q137.609 1384.65 137.609 1386.5 Q137.486 1389.57 135.027 1389.57 Q134.043 1389.57 130.231 1388.47 Q126.296 1387.36 120.517 1384.78 Q114.614 1382.07 109.327 1378.38 Q103.916 1374.69 100.104 1368.91 Q96.2919 1363.01 96.2919 1356.25 Q96.2919 1347.03 102.317 1341.37 Q108.22 1335.59 116.951 1335.59 Q120.517 1335.59 123.714 1336.57 Q126.788 1337.43 135.027 1340.63 Q168.228 1353.54 184.46 1353.54 Q188.395 1353.54 191.715 1352.93 Q194.912 1352.19 198.109 1350.59 Q201.183 1348.99 203.028 1345.8 Q204.75 1342.48 204.75 1337.93 Q204.75 1332.15 202.044 1326.74 Q199.216 1321.2 195.404 1317.76 Q191.592 1314.19 188.395 1312.1 Q185.075 1309.89 183.353 1309.4 L138.101 1298.08 L117.934 1293.04 Q106.99 1290.71 104.285 1289.6 Q101.703 1288.12 100.35 1285.54 Q98.9972 1282.96 98.9972 1280.75 Q98.9972 1277.67 100.842 1275.58 Q102.686 1273.37 105.883 1273.37 Z" fill="#000000" fill-rule="evenodd" fill-opacity="1" /><path clip-path="url(#clip213)" d="
M1062.27 1328.49 L1073.88 1345.91 L1085.49 1363.33 L1097.11 1380.75 L1108.72 1398.17 L1120.34 1415.6 L1131.95 1433.02 L1143.56 1450.44 L1155.18 1467.86 L1166.79 1485.28 
  L1178.41 1502.7 L1190.02 1520.12 L1201.63 1537.54 L1213.25 1554.96 L1224.86 1572.38 L1236.47 1589.8 L1248.09 1607.22 L1259.7 1624.64 L1271.32 1642.07 L1282.93 1659.49 
  L1294.54 1676.91 L1306.16 1694.33 L1317.77 1711.75 L1329.38 1729.17 L1341 1746.59 L1352.61 1764.01 L1364.23 1781.43 L1375.84 1798.85 L1387.45 1816.27 L1399.07 1833.69 
  L1410.68 1851.11 L1422.3 1868.53 L1433.91 1885.96 L1445.52 1903.38 L1457.14 1920.8 L1468.75 1938.22 L1480.36 1955.64 L1491.98 1973.06 L1503.59 1990.48 L1515.21 2007.9 
  L1526.82 2025.32 L1538.43 2019.51 L1550.05 2013.71 L1561.66 2007.9 L1573.28 2002.09 L1584.89 1996.29 L1596.5 1990.48 L1608.12 1984.67 L1619.73 1978.87 L1631.34 1973.06 
  L1642.96 1967.25 L1654.57 1961.45 L1666.19 1955.64 L1677.8 1949.83 L1689.41 1944.02 L1701.03 1938.22 L1712.64 1932.41 L1724.26 1926.6 L1735.87 1920.8 L1747.48 1914.99 
  L1759.1 1909.18 L1770.71 1903.38 L1782.32 1897.57 L1793.94 1891.76 L1805.55 1885.96 L1817.17 1880.15 L1828.78 1874.34 L1840.39 1868.53 L1852.01 1862.73 L1863.62 1856.92 
  L1875.23 1851.11 L1886.85 1845.31 L1898.46 1839.5 L1910.08 1833.69 L1921.69 1827.89 L1933.3 1822.08 L1944.92 1816.27 L1956.53 1810.47 L1968.15 1804.66 L1979.76 1798.85 
  L1991.37 1793.05 L2002.99 1787.24 L2014.6 1781.43 L2026.21 1775.62 L2037.83 1769.82 L2049.44 1764.01 L2061.06 1758.2 L2072.67 1752.4 L2084.28 1746.59 L2095.9 1740.78 
  L2107.51 1734.98 L2107.51 1793.05 L2095.9 1781.43 L2084.28 1769.82 L2072.67 1758.2 L2061.06 1746.59 L2049.44 1734.98 L2037.83 1723.36 L2026.21 1711.75 L2014.6 1700.13 
  L2002.99 1688.52 L1991.37 1676.91 L1979.76 1665.29 L1968.15 1653.68 L1956.53 1642.07 L1944.92 1630.45 L1933.3 1618.84 L1921.69 1607.22 L1910.08 1595.61 L1898.46 1584 
  L1886.85 1572.38 L1875.23 1560.77 L1863.62 1549.15 L1852.01 1537.54 L1840.39 1525.93 L1828.78 1514.31 L1817.17 1502.7 L1805.55 1491.09 L1793.94 1479.47 L1782.32 1467.86 
  L1770.71 1456.24 L1759.1 1444.63 L1747.48 1433.02 L1735.87 1421.4 L1724.26 1409.79 L1712.64 1398.17 L1701.03 1386.56 L1689.41 1374.95 L1677.8 1363.33 L1666.19 1351.72 
  L1654.57 1340.11 L1642.96 1328.49 L1631.34 1316.88 L1619.73 1305.26 L1608.12 1293.65 L1596.5 1282.04 L1584.89 1270.42 L1573.28 1258.81 L1561.66 1247.2 L1550.05 1235.58 
  L1538.43 1223.97 L1526.82 1212.35 L1515.21 1200.74 L1503.59 1189.13 L1491.98 1177.51 L1480.36 1165.9 L1468.75 1154.28 L1457.14 1142.67 L1445.52 1131.06 L1433.91 1119.44 
  L1422.3 1107.83 L1410.68 1096.22 L1399.07 1084.6 L1387.45 1072.99 L1375.84 1061.37 L1364.23 1049.76 L1352.61 1038.15 L1341 1026.53 L1329.38 1014.92 L1317.77 1003.3 
  L1306.16 991.691 L1294.54 980.077 L1282.93 968.463 L1271.32 956.849 L1259.7 945.236 L1248.09 933.622 L1236.47 922.008 L1224.86 910.394 L1213.25 898.78 L1201.63 887.167 
  L1190.02 875.553 L1178.41 863.939 L1166.79 858.132 L1155.18 910.394 L1143.56 962.656 L1131.95 1014.92 L1120.34 1067.18 L1108.72 1119.44 L1097.11 1171.71 L1085.49 1223.97 
  L1073.88 1276.23 L1062.27 1328.49  Z
  " fill="#add8e6" fill-rule="evenodd" fill-opacity="1"/>
<polyline clip-path="url(#clip213)" style="stroke:#add8e6; stroke-linecap:butt; stroke-linejoin:round; stroke-width:4; stroke-opacity:1; fill:none" points="
  1062.27,1328.49 1073.88,1345.91 1085.49,1363.33 1097.11,1380.75 1108.72,1398.17 1120.34,1415.6 1131.95,1433.02 1143.56,1450.44 1155.18,1467.86 1166.79,1485.28 
  1178.41,1502.7 1190.02,1520.12 1201.63,1537.54 1213.25,1554.96 1224.86,1572.38 1236.47,1589.8 1248.09,1607.22 1259.7,1624.64 1271.32,1642.07 1282.93,1659.49 
  1294.54,1676.91 1306.16,1694.33 1317.77,1711.75 1329.38,1729.17 1341,1746.59 1352.61,1764.01 1364.23,1781.43 1375.84,1798.85 1387.45,1816.27 1399.07,1833.69 
  1410.68,1851.11 1422.3,1868.53 1433.91,1885.96 1445.52,1903.38 1457.14,1920.8 1468.75,1938.22 1480.36,1955.64 1491.98,1973.06 1503.59,1990.48 1515.21,2007.9 
  1526.82,2025.32 1538.43,2019.51 1550.05,2013.71 1561.66,2007.9 1573.28,2002.09 1584.89,1996.29 1596.5,1990.48 1608.12,1984.67 1619.73,1978.87 1631.34,1973.06 
  1642.96,1967.25 1654.57,1961.45 1666.19,1955.64 1677.8,1949.83 1689.41,1944.02 1701.03,1938.22 1712.64,1932.41 1724.26,1926.6 1735.87,1920.8 1747.48,1914.99 
  1759.1,1909.18 1770.71,1903.38 1782.32,1897.57 1793.94,1891.76 1805.55,1885.96 1817.17,1880.15 1828.78,1874.34 1840.39,1868.53 1852.01,1862.73 1863.62,1856.92 
  1875.23,1851.11 1886.85,1845.31 1898.46,1839.5 1910.08,1833.69 1921.69,1827.89 1933.3,1822.08 1944.92,1816.27 1956.53,1810.47 1968.15,1804.66 1979.76,1798.85 
  1991.37,1793.05 2002.99,1787.24 2014.6,1781.43 2026.21,1775.62 2037.83,1769.82 2049.44,1764.01 2061.06,1758.2 2072.67,1752.4 2084.28,1746.59 2095.9,1740.78 
  2107.51,1734.98 
  "/>
<polyline clip-path="url(#clip213)" style="stroke:#008000; stroke-linecap:butt; stroke-linejoin:round; stroke-width:12; stroke-opacity:1; fill:none" points="
  597.714,3418.98 609.328,3366.72 620.941,3314.46 632.555,3262.19 644.169,3209.93 655.783,3157.67 667.397,3105.41 679.011,3053.15 690.624,3000.88 702.238,2948.62 
  713.852,2896.36 725.466,2844.1 737.08,2791.83 748.694,2739.57 760.307,2687.31 771.921,2635.05 783.535,2582.79 795.149,2530.52 806.763,2478.26 818.377,2426 
  829.99,2373.74 841.604,2321.47 853.218,2269.21 864.832,2216.95 876.446,2164.69 888.06,2112.43 899.673,2060.16 911.287,2007.9 922.901,1955.64 934.515,1903.38 
  946.129,1851.11 957.742,1798.85 969.356,1746.59 980.97,1694.33 992.584,1642.07 1004.2,1589.8 1015.81,1537.54 1027.43,1485.28 1039.04,1433.02 1050.65,1380.75 
  1062.27,1328.49 1073.88,1276.23 1085.49,1223.97 1097.11,1171.71 1108.72,1119.44 1120.34,1067.18 1131.95,1014.92 1143.56,962.656 1155.18,910.394 1166.79,858.132 
  1178.41,805.87 1190.02,753.607 1201.63,701.345 1213.25,649.083 1224.86,596.821 1236.47,544.559 1248.09,492.296 1259.7,440.034 1271.32,387.772 1282.93,335.51 
  1294.54,283.247 1306.16,230.985 1317.77,178.723 1329.38,126.461 1341,74.1986 1352.61,21.9364 1364.23,-30.3259 1375.84,-82.5881 1387.45,-134.85 1399.07,-187.113 
  1410.68,-239.375 1422.3,-291.637 1433.91,-343.899 1445.52,-396.161 1457.14,-448.424 1468.75,-500.686 1480.36,-552.948 1491.98,-605.21 1503.59,-657.473 1515.21,-709.735 
  1526.82,-761.997 1538.43,-814.259 1550.05,-866.521 1561.66,-918.784 1573.28,-971.046 1584.89,-1023.31 1596.5,-1075.57 1608.12,-1127.83 1619.73,-1180.09 1631.34,-1232.36 
  1642.96,-1284.62 1654.57,-1336.88 1666.19,-1389.14 1677.8,-1441.41 1689.41,-1493.67 1701.03,-1545.93 1712.64,-1598.19 1724.26,-1650.45 1735.87,-1702.72 1747.48,-1754.98 
  1759.1,-1807.24 1770.71,-1859.5 1782.32,-1911.77 1793.94,-1964.03 1805.55,-2016.29 1817.17,-2068.55 1828.78,-2120.81 1840.39,-2173.08 1852.01,-2225.34 1863.62,-2277.6 
  1875.23,-2329.86 1886.85,-2382.13 1898.46,-2434.39 1910.08,-2486.65 1921.69,-2538.91 1933.3,-2591.17 1944.92,-2643.44 1956.53,-2695.7 1968.15,-2747.96 1979.76,-2800.22 
  1991.37,-2852.49 2002.99,-2904.75 2014.6,-2957.01 2026.21,-3009.27 2037.83,-3061.53 2049.44,-3113.8 2061.06,-3166.06 2072.67,-3218.32 2084.28,-3270.58 2095.9,-3322.85 
  2107.51,-3375.11 2119.13,-3427.37 2130.74,-3479.63 2142.35,-3531.89 2153.97,-3584.16 2165.58,-3636.42 2177.19,-3688.68 2188.81,-3740.94 2200.42,-3793.21 2212.04,-3845.47 
  2223.65,-3897.73 2235.26,-3949.99 2246.88,-4002.25 2258.49,-4054.52 2270.11,-4106.78 2281.72,-4159.04 2293.33,-4211.3 2304.95,-4263.57 2316.56,-4315.83 2328.17,-4368.09 
  2339.79,-4420.35 2351.4,-4472.61 2363.02,-4524.88 2374.63,-4577.14 2386.24,-4629.4 2397.86,-4681.66 2409.47,-4733.93 2421.08,-4786.19 2432.7,-4838.45 2444.31,-4890.71 
  2455.93,-4942.97 2467.54,-4995.24 2479.15,-5047.5 2490.77,-5099.76 2502.38,-5152.02 2514,-5204.29 2525.61,-5256.55 2537.22,-5308.81 2548.84,-5361.07 2560.45,-5413.33 
  2572.06,-5465.6 2583.68,-5517.86 2595.29,-5570.12 2606.91,-5622.38 2618.52,-5674.65 2630.13,-5726.91 2641.75,-5779.17 2653.36,-5831.43 2664.98,-5883.7 2676.59,-5935.96 
  2688.2,-5988.22 2699.82,-6040.48 2711.43,-6092.74 2723.04,-6145.01 2734.66,-6197.27 2746.27,-6249.53 2757.89,-6301.79 2769.5,-6354.06 2781.11,-6406.32 2792.73,-6458.58 
  2804.34,-6510.84 2815.95,-6563.1 2827.57,-6615.37 2839.18,-6667.63 2850.8,-6719.89 2862.41,-6772.15 2874.02,-6824.42 2885.64,-6876.68 2897.25,-6928.94 2908.87,-6981.2 
  2920.48,-7033.46 2932.09,-7085.73 2943.71,-7137.99 2955.32,-7190.25 2966.93,-7242.51 2978.55,-7294.78 2990.16,-7347.04 3001.78,-7399.3 3013.39,-7451.56 3025,-7503.82 
  3036.62,-7556.09 3048.23,-7608.35 3059.85,-7660.61 3071.46,-7712.87 3083.07,-7765.14 3094.69,-7817.4 3106.3,-7869.66 3117.91,-7921.92 3129.53,-7974.18 3141.14,-8026.45 
  3152.76,-8078.71 
  "/>
<polyline clip-path="url(#clip213)" style="stroke:#ff0000; stroke-linecap:butt; stroke-linejoin:round; stroke-width:12; stroke-opacity:1; fill:none" points="
  597.714,283.247 609.328,294.861 620.941,306.475 632.555,318.089 644.169,329.703 655.783,341.317 667.397,352.93 679.011,364.544 690.624,376.158 702.238,387.772 
  713.852,399.386 725.466,411 737.08,422.613 748.694,434.227 760.307,445.841 771.921,457.455 783.535,469.069 795.149,480.683 806.763,492.296 818.377,503.91 
  829.99,515.524 841.604,527.138 853.218,538.752 864.832,550.366 876.446,561.979 888.06,573.593 899.673,585.207 911.287,596.821 922.901,608.435 934.515,620.048 
  946.129,631.662 957.742,643.276 969.356,654.89 980.97,666.504 992.584,678.118 1004.2,689.731 1015.81,701.345 1027.43,712.959 1039.04,724.573 1050.65,736.187 
  1062.27,747.801 1073.88,759.414 1085.49,771.028 1097.11,782.642 1108.72,794.256 1120.34,805.87 1131.95,817.484 1143.56,829.097 1155.18,840.711 1166.79,852.325 
  1178.41,863.939 1190.02,875.553 1201.63,887.167 1213.25,898.78 1224.86,910.394 1236.47,922.008 1248.09,933.622 1259.7,945.236 1271.32,956.849 1282.93,968.463 
  1294.54,980.077 1306.16,991.691 1317.77,1003.3 1329.38,1014.92 1341,1026.53 1352.61,1038.15 1364.23,1049.76 1375.84,1061.37 1387.45,1072.99 1399.07,1084.6 
  1410.68,1096.22 1422.3,1107.83 1433.91,1119.44 1445.52,1131.06 1457.14,1142.67 1468.75,1154.28 1480.36,1165.9 1491.98,1177.51 1503.59,1189.13 1515.21,1200.74 
  1526.82,1212.35 1538.43,1223.97 1550.05,1235.58 1561.66,1247.2 1573.28,1258.81 1584.89,1270.42 1596.5,1282.04 1608.12,1293.65 1619.73,1305.26 1631.34,1316.88 
  1642.96,1328.49 1654.57,1340.11 1666.19,1351.72 1677.8,1363.33 1689.41,1374.95 1701.03,1386.56 1712.64,1398.17 1724.26,1409.79 1735.87,1421.4 1747.48,1433.02 
  1759.1,1444.63 1770.71,1456.24 1782.32,1467.86 1793.94,1479.47 1805.55,1491.09 1817.17,1502.7 1828.78,1514.31 1840.39,1525.93 1852.01,1537.54 1863.62,1549.15 
  1875.23,1560.77 1886.85,1572.38 1898.46,1584 1910.08,1595.61 1921.69,1607.22 1933.3,1618.84 1944.92,1630.45 1956.53,1642.07 1968.15,1653.68 1979.76,1665.29 
  1991.37,1676.91 2002.99,1688.52 2014.6,1700.13 2026.21,1711.75 2037.83,1723.36 2049.44,1734.98 2061.06,1746.59 2072.67,1758.2 2084.28,1769.82 2095.9,1781.43 
  2107.51,1793.05 2119.13,1804.66 2130.74,1816.27 2142.35,1827.89 2153.97,1839.5 2165.58,1851.11 2177.19,1862.73 2188.81,1874.34 2200.42,1885.96 2212.04,1897.57 
  2223.65,1909.18 2235.26,1920.8 2246.88,1932.41 2258.49,1944.02 2270.11,1955.64 2281.72,1967.25 2293.33,1978.87 2304.95,1990.48 2316.56,2002.09 2328.17,2013.71 
  2339.79,2025.32 2351.4,2036.94 2363.02,2048.55 2374.63,2060.16 2386.24,2071.78 2397.86,2083.39 2409.47,2095 2421.08,2106.62 2432.7,2118.23 2444.31,2129.85 
  2455.93,2141.46 2467.54,2153.07 2479.15,2164.69 2490.77,2176.3 2502.38,2187.92 2514,2199.53 2525.61,2211.14 2537.22,2222.76 2548.84,2234.37 2560.45,2245.98 
  2572.06,2257.6 2583.68,2269.21 2595.29,2280.83 2606.91,2292.44 2618.52,2304.05 2630.13,2315.67 2641.75,2327.28 2653.36,2338.89 2664.98,2350.51 2676.59,2362.12 
  2688.2,2373.74 2699.82,2385.35 2711.43,2396.96 2723.04,2408.58 2734.66,2420.19 2746.27,2431.81 2757.89,2443.42 2769.5,2455.03 2781.11,2466.65 2792.73,2478.26 
  2804.34,2489.87 2815.95,2501.49 2827.57,2513.1 2839.18,2524.72 2850.8,2536.33 2862.41,2547.94 2874.02,2559.56 2885.64,2571.17 2897.25,2582.79 2908.87,2594.4 
  2920.48,2606.01 2932.09,2617.63 2943.71,2629.24 2955.32,2640.85 2966.93,2652.47 2978.55,2664.08 2990.16,2675.7 3001.78,2687.31 3013.39,2698.92 3025,2710.54 
  3036.62,2722.15 3048.23,2733.77 3059.85,2745.38 3071.46,2756.99 3083.07,2768.61 3094.69,2780.22 3106.3,2791.83 3117.91,2803.45 3129.53,2815.06 3141.14,2826.68 
  3152.76,2838.29 
  "/>
<polyline clip-path="url(#clip213)" style="stroke:#a52a2a; stroke-linecap:butt; stroke-linejoin:round; stroke-width:12; stroke-opacity:1; fill:none" points="
  597.714,631.662 609.328,649.083 620.941,666.504 632.555,683.925 644.169,701.345 655.783,718.766 667.397,736.187 679.011,753.607 690.624,771.028 702.238,788.449 
  713.852,805.87 725.466,823.29 737.08,840.711 748.694,858.132 760.307,875.553 771.921,892.973 783.535,910.394 795.149,927.815 806.763,945.236 818.377,962.656 
  829.99,980.077 841.604,997.498 853.218,1014.92 864.832,1032.34 876.446,1049.76 888.06,1067.18 899.673,1084.6 911.287,1102.02 922.901,1119.44 934.515,1136.86 
  946.129,1154.28 957.742,1171.71 969.356,1189.13 980.97,1206.55 992.584,1223.97 1004.2,1241.39 1015.81,1258.81 1027.43,1276.23 1039.04,1293.65 1050.65,1311.07 
  1062.27,1328.49 1073.88,1345.91 1085.49,1363.33 1097.11,1380.75 1108.72,1398.17 1120.34,1415.6 1131.95,1433.02 1143.56,1450.44 1155.18,1467.86 1166.79,1485.28 
  1178.41,1502.7 1190.02,1520.12 1201.63,1537.54 1213.25,1554.96 1224.86,1572.38 1236.47,1589.8 1248.09,1607.22 1259.7,1624.64 1271.32,1642.07 1282.93,1659.49 
  1294.54,1676.91 1306.16,1694.33 1317.77,1711.75 1329.38,1729.17 1341,1746.59 1352.61,1764.01 1364.23,1781.43 1375.84,1798.85 1387.45,1816.27 1399.07,1833.69 
  1410.68,1851.11 1422.3,1868.53 1433.91,1885.96 1445.52,1903.38 1457.14,1920.8 1468.75,1938.22 1480.36,1955.64 1491.98,1973.06 1503.59,1990.48 1515.21,2007.9 
  1526.82,2025.32 1538.43,2042.74 1550.05,2060.16 1561.66,2077.58 1573.28,2095 1584.89,2112.43 1596.5,2129.85 1608.12,2147.27 1619.73,2164.69 1631.34,2182.11 
  1642.96,2199.53 1654.57,2216.95 1666.19,2234.37 1677.8,2251.79 1689.41,2269.21 1701.03,2286.63 1712.64,2304.05 1724.26,2321.47 1735.87,2338.89 1747.48,2356.32 
  1759.1,2373.74 1770.71,2391.16 1782.32,2408.58 1793.94,2426 1805.55,2443.42 1817.17,2460.84 1828.78,2478.26 1840.39,2495.68 1852.01,2513.1 1863.62,2530.52 
  1875.23,2547.94 1886.85,2565.36 1898.46,2582.79 1910.08,2600.21 1921.69,2617.63 1933.3,2635.05 1944.92,2652.47 1956.53,2669.89 1968.15,2687.31 1979.76,2704.73 
  1991.37,2722.15 2002.99,2739.57 2014.6,2756.99 2026.21,2774.41 2037.83,2791.83 2049.44,2809.25 2061.06,2826.68 2072.67,2844.1 2084.28,2861.52 2095.9,2878.94 
  2107.51,2896.36 2119.13,2913.78 2130.74,2931.2 2142.35,2948.62 2153.97,2966.04 2165.58,2983.46 2177.19,3000.88 2188.81,3018.3 2200.42,3035.72 2212.04,3053.15 
  2223.65,3070.57 2235.26,3087.99 2246.88,3105.41 2258.49,3122.83 2270.11,3140.25 2281.72,3157.67 2293.33,3175.09 2304.95,3192.51 2316.56,3209.93 2328.17,3227.35 
  2339.79,3244.77 2351.4,3262.19 2363.02,3279.62 2374.63,3297.04 2386.24,3314.46 2397.86,3331.88 2409.47,3349.3 2421.08,3366.72 2432.7,3384.14 2444.31,3401.56 
  2455.93,3418.98 2467.54,3436.4 2479.15,3453.82 2490.77,3471.24 2502.38,3488.66 2514,3506.08 2525.61,3523.51 2537.22,3540.93 2548.84,3558.35 2560.45,3575.77 
  2572.06,3593.19 2583.68,3610.61 2595.29,3628.03 2606.91,3645.45 2618.52,3662.87 2630.13,3680.29 2641.75,3697.71 2653.36,3715.13 2664.98,3732.55 2676.59,3749.98 
  2688.2,3767.4 2699.82,3784.82 2711.43,3802.24 2723.04,3819.66 2734.66,3837.08 2746.27,3854.5 2757.89,3871.92 2769.5,3889.34 2781.11,3906.76 2792.73,3924.18 
  2804.34,3941.6 2815.95,3959.02 2827.57,3976.44 2839.18,3993.87 2850.8,4011.29 2862.41,4028.71 2874.02,4046.13 2885.64,4063.55 2897.25,4080.97 2908.87,4098.39 
  2920.48,4115.81 2932.09,4133.23 2943.71,4150.65 2955.32,4168.07 2966.93,4185.49 2978.55,4202.91 2990.16,4220.34 3001.78,4237.76 3013.39,4255.18 3025,4272.6 
  3036.62,4290.02 3048.23,4307.44 3059.85,4324.86 3071.46,4342.28 3083.07,4359.7 3094.69,4377.12 3106.3,4394.54 3117.91,4411.96 3129.53,4429.38 3141.14,4446.8 
  3152.76,4464.23 
  "/>
<polyline clip-path="url(#clip213)" style="stroke:#800080; stroke-linecap:butt; stroke-linejoin:round; stroke-width:12; stroke-opacity:1; fill:none" points="
  597.714,2489.87 609.328,2484.07 620.941,2478.26 632.555,2472.45 644.169,2466.65 655.783,2460.84 667.397,2455.03 679.011,2449.23 690.624,2443.42 702.238,2437.61 
  713.852,2431.81 725.466,2426 737.08,2420.19 748.694,2414.38 760.307,2408.58 771.921,2402.77 783.535,2396.96 795.149,2391.16 806.763,2385.35 818.377,2379.54 
  829.99,2373.74 841.604,2367.93 853.218,2362.12 864.832,2356.32 876.446,2350.51 888.06,2344.7 899.673,2338.89 911.287,2333.09 922.901,2327.28 934.515,2321.47 
  946.129,2315.67 957.742,2309.86 969.356,2304.05 980.97,2298.25 992.584,2292.44 1004.2,2286.63 1015.81,2280.83 1027.43,2275.02 1039.04,2269.21 1050.65,2263.41 
  1062.27,2257.6 1073.88,2251.79 1085.49,2245.98 1097.11,2240.18 1108.72,2234.37 1120.34,2228.56 1131.95,2222.76 1143.56,2216.95 1155.18,2211.14 1166.79,2205.34 
  1178.41,2199.53 1190.02,2193.72 1201.63,2187.92 1213.25,2182.11 1224.86,2176.3 1236.47,2170.49 1248.09,2164.69 1259.7,2158.88 1271.32,2153.07 1282.93,2147.27 
  1294.54,2141.46 1306.16,2135.65 1317.77,2129.85 1329.38,2124.04 1341,2118.23 1352.61,2112.43 1364.23,2106.62 1375.84,2100.81 1387.45,2095 1399.07,2089.2 
  1410.68,2083.39 1422.3,2077.58 1433.91,2071.78 1445.52,2065.97 1457.14,2060.16 1468.75,2054.36 1480.36,2048.55 1491.98,2042.74 1503.59,2036.94 1515.21,2031.13 
  1526.82,2025.32 1538.43,2019.51 1550.05,2013.71 1561.66,2007.9 1573.28,2002.09 1584.89,1996.29 1596.5,1990.48 1608.12,1984.67 1619.73,1978.87 1631.34,1973.06 
  1642.96,1967.25 1654.57,1961.45 1666.19,1955.64 1677.8,1949.83 1689.41,1944.02 1701.03,1938.22 1712.64,1932.41 1724.26,1926.6 1735.87,1920.8 1747.48,1914.99 
  1759.1,1909.18 1770.71,1903.38 1782.32,1897.57 1793.94,1891.76 1805.55,1885.96 1817.17,1880.15 1828.78,1874.34 1840.39,1868.53 1852.01,1862.73 1863.62,1856.92 
  1875.23,1851.11 1886.85,1845.31 1898.46,1839.5 1910.08,1833.69 1921.69,1827.89 1933.3,1822.08 1944.92,1816.27 1956.53,1810.47 1968.15,1804.66 1979.76,1798.85 
  1991.37,1793.05 2002.99,1787.24 2014.6,1781.43 2026.21,1775.62 2037.83,1769.82 2049.44,1764.01 2061.06,1758.2 2072.67,1752.4 2084.28,1746.59 2095.9,1740.78 
  2107.51,1734.98 2119.13,1729.17 2130.74,1723.36 2142.35,1717.56 2153.97,1711.75 2165.58,1705.94 2177.19,1700.13 2188.81,1694.33 2200.42,1688.52 2212.04,1682.71 
  2223.65,1676.91 2235.26,1671.1 2246.88,1665.29 2258.49,1659.49 2270.11,1653.68 2281.72,1647.87 2293.33,1642.07 2304.95,1636.26 2316.56,1630.45 2328.17,1624.64 
  2339.79,1618.84 2351.4,1613.03 2363.02,1607.22 2374.63,1601.42 2386.24,1595.61 2397.86,1589.8 2409.47,1584 2421.08,1578.19 2432.7,1572.38 2444.31,1566.58 
  2455.93,1560.77 2467.54,1554.96 2479.15,1549.15 2490.77,1543.35 2502.38,1537.54 2514,1531.73 2525.61,1525.93 2537.22,1520.12 2548.84,1514.31 2560.45,1508.51 
  2572.06,1502.7 2583.68,1496.89 2595.29,1491.09 2606.91,1485.28 2618.52,1479.47 2630.13,1473.66 2641.75,1467.86 2653.36,1462.05 2664.98,1456.24 2676.59,1450.44 
  2688.2,1444.63 2699.82,1438.82 2711.43,1433.02 2723.04,1427.21 2734.66,1421.4 2746.27,1415.6 2757.89,1409.79 2769.5,1403.98 2781.11,1398.17 2792.73,1392.37 
  2804.34,1386.56 2815.95,1380.75 2827.57,1374.95 2839.18,1369.14 2850.8,1363.33 2862.41,1357.53 2874.02,1351.72 2885.64,1345.91 2897.25,1340.11 2908.87,1334.3 
  2920.48,1328.49 2932.09,1322.69 2943.71,1316.88 2955.32,1311.07 2966.93,1305.26 2978.55,1299.46 2990.16,1293.65 3001.78,1287.84 3013.39,1282.04 3025,1276.23 
  3036.62,1270.42 3048.23,1264.62 3059.85,1258.81 3071.46,1253 3083.07,1247.2 3094.69,1241.39 3106.3,1235.58 3117.91,1229.77 3129.53,1223.97 3141.14,1218.16 
  3152.76,1212.35 
  "/>
</svg>
