<?xml version="1.0" encoding="utf-8"?>
<svg xmlns="http://www.w3.org/2000/svg" xmlns:xlink="http://www.w3.org/1999/xlink" width="800" height="800" viewBox="0 0 3200 3200">
<defs>
  <clipPath id="clip850">
    <rect x="0" y="0" width="3200" height="3200"/>
  </clipPath>
</defs>
<path clip-path="url(#clip850)" d="
M0 3200 L3200 3200 L3200 0 L0 0  Z
  " fill="#ffffff" fill-rule="evenodd" fill-opacity="1"/>
<defs>
  <clipPath id="clip851">
    <rect x="640" y="320" width="2241" height="2241"/>
  </clipPath>
</defs>
<defs>
  <clipPath id="clip852">
    <rect x="1491" y="107" width="1601" height="956"/>
  </clipPath>
</defs>
<path clip-path="url(#clip850)" d="
M966.184 2240.34 L3152.76 2240.34 L3152.76 53.7661 L966.184 53.7661  Z
  " fill="#ffffff" fill-rule="evenodd" fill-opacity="1"/>
<defs>
  <clipPath id="clip853">
    <rect x="966" y="53" width="2188" height="2188"/>
  </clipPath>
</defs>
<polyline clip-path="url(#clip853)" style="stroke:#000000; stroke-linecap:butt; stroke-linejoin:round; stroke-width:2; stroke-opacity:0.1; fill:none" points="
  1661.91,2240.34 1661.91,53.7661 
  "/>
<polyline clip-path="url(#clip853)" style="stroke:#000000; stroke-linecap:butt; stroke-linejoin:round; stroke-width:2; stroke-opacity:0.1; fill:none" points="
  2158.86,2240.34 2158.86,53.7661 
  "/>
<polyline clip-path="url(#clip853)" style="stroke:#000000; stroke-linecap:butt; stroke-linejoin:round; stroke-width:2; stroke-opacity:0.1; fill:none" points="
  2655.81,2240.34 2655.81,53.7661 
  "/>
<polyline clip-path="url(#clip853)" style="stroke:#000000; stroke-linecap:butt; stroke-linejoin:round; stroke-width:2; stroke-opacity:0.1; fill:none" points="
  3152.76,2240.34 3152.76,53.7661 
  "/>
<polyline clip-path="url(#clip850)" style="stroke:#000000; stroke-linecap:butt; stroke-linejoin:round; stroke-width:4; stroke-opacity:1; fill:none" points="
  966.184,2041.56 3152.76,2041.56 
  "/>
<polyline clip-path="url(#clip850)" style="stroke:#000000; stroke-linecap:butt; stroke-linejoin:round; stroke-width:4; stroke-opacity:1; fill:none" points="
  1661.91,2060.34 1661.91,2022.77 
  "/>
<polyline clip-path="url(#clip850)" style="stroke:#000000; stroke-linecap:butt; stroke-linejoin:round; stroke-width:4; stroke-opacity:1; fill:none" points="
  2158.86,2060.34 2158.86,2022.77 
  "/>
<polyline clip-path="url(#clip850)" style="stroke:#000000; stroke-linecap:butt; stroke-linejoin:round; stroke-width:4; stroke-opacity:1; fill:none" points="
  2655.81,2060.34 2655.81,2022.77 
  "/>
<polyline clip-path="url(#clip850)" style="stroke:#000000; stroke-linecap:butt; stroke-linejoin:round; stroke-width:4; stroke-opacity:1; fill:none" points="
  3152.76,2060.34 3152.76,2022.77 
  "/>
<polyline clip-path="url(#clip850)" style="stroke:#000000; stroke-linecap:butt; stroke-linejoin:round; stroke-width:4; stroke-opacity:1; fill:none" points="
  966.184,2050.95 966.184,2032.17 
  "/>
<polyline clip-path="url(#clip850)" style="stroke:#000000; stroke-linecap:butt; stroke-linejoin:round; stroke-width:4; stroke-opacity:1; fill:none" points="
  1065.57,2050.95 1065.57,2032.17 
  "/>
<polyline clip-path="url(#clip850)" style="stroke:#000000; stroke-linecap:butt; stroke-linejoin:round; stroke-width:4; stroke-opacity:1; fill:none" points="
  1264.35,2050.95 1264.35,2032.17 
  "/>
<polyline clip-path="url(#clip850)" style="stroke:#000000; stroke-linecap:butt; stroke-linejoin:round; stroke-width:4; stroke-opacity:1; fill:none" points="
  1363.74,2050.95 1363.74,2032.17 
  "/>
<polyline clip-path="url(#clip850)" style="stroke:#000000; stroke-linecap:butt; stroke-linejoin:round; stroke-width:4; stroke-opacity:1; fill:none" points="
  1463.13,2050.95 1463.13,2032.17 
  "/>
<polyline clip-path="url(#clip850)" style="stroke:#000000; stroke-linecap:butt; stroke-linejoin:round; stroke-width:4; stroke-opacity:1; fill:none" points="
  1562.52,2050.95 1562.52,2032.17 
  "/>
<polyline clip-path="url(#clip850)" style="stroke:#000000; stroke-linecap:butt; stroke-linejoin:round; stroke-width:4; stroke-opacity:1; fill:none" points="
  1761.3,2050.95 1761.3,2032.17 
  "/>
<polyline clip-path="url(#clip850)" style="stroke:#000000; stroke-linecap:butt; stroke-linejoin:round; stroke-width:4; stroke-opacity:1; fill:none" points="
  1860.69,2050.95 1860.69,2032.17 
  "/>
<polyline clip-path="url(#clip850)" style="stroke:#000000; stroke-linecap:butt; stroke-linejoin:round; stroke-width:4; stroke-opacity:1; fill:none" points="
  1960.08,2050.95 1960.08,2032.17 
  "/>
<polyline clip-path="url(#clip850)" style="stroke:#000000; stroke-linecap:butt; stroke-linejoin:round; stroke-width:4; stroke-opacity:1; fill:none" points="
  2059.47,2050.95 2059.47,2032.17 
  "/>
<polyline clip-path="url(#clip850)" style="stroke:#000000; stroke-linecap:butt; stroke-linejoin:round; stroke-width:4; stroke-opacity:1; fill:none" points="
  2258.25,2050.95 2258.25,2032.17 
  "/>
<polyline clip-path="url(#clip850)" style="stroke:#000000; stroke-linecap:butt; stroke-linejoin:round; stroke-width:4; stroke-opacity:1; fill:none" points="
  2357.64,2050.95 2357.64,2032.17 
  "/>
<polyline clip-path="url(#clip850)" style="stroke:#000000; stroke-linecap:butt; stroke-linejoin:round; stroke-width:4; stroke-opacity:1; fill:none" points="
  2457.03,2050.95 2457.03,2032.17 
  "/>
<polyline clip-path="url(#clip850)" style="stroke:#000000; stroke-linecap:butt; stroke-linejoin:round; stroke-width:4; stroke-opacity:1; fill:none" points="
  2556.42,2050.95 2556.42,2032.17 
  "/>
<polyline clip-path="url(#clip850)" style="stroke:#000000; stroke-linecap:butt; stroke-linejoin:round; stroke-width:4; stroke-opacity:1; fill:none" points="
  2755.2,2050.95 2755.2,2032.17 
  "/>
<polyline clip-path="url(#clip850)" style="stroke:#000000; stroke-linecap:butt; stroke-linejoin:round; stroke-width:4; stroke-opacity:1; fill:none" points="
  2854.59,2050.95 2854.59,2032.17 
  "/>
<polyline clip-path="url(#clip850)" style="stroke:#000000; stroke-linecap:butt; stroke-linejoin:round; stroke-width:4; stroke-opacity:1; fill:none" points="
  2953.98,2050.95 2953.98,2032.17 
  "/>
<polyline clip-path="url(#clip850)" style="stroke:#000000; stroke-linecap:butt; stroke-linejoin:round; stroke-width:4; stroke-opacity:1; fill:none" points="
  3053.37,2050.95 3053.37,2032.17 
  "/>
<path clip-path="url(#clip850)" d="M1593.86 2127.64 L1722.35 2127.64 L1722.35 2155.18 L1623.83 2155.18 L1623.83 2214.49 Q1630.96 2212.06 1638.09 2210.93 Q1645.22 2209.63 1652.35 2209.63 Q1692.86 2209.63 1716.52 2231.83 Q1740.17 2254.03 1740.17 2291.94 Q1740.17 2330.99 1715.87 2352.71 Q1691.56 2374.26 1647.33 2374.26 Q1632.1 2374.26 1616.22 2371.67 Q1600.5 2369.07 1583.65 2363.89 L1583.65 2330.99 Q1598.23 2338.93 1613.79 2342.82 Q1629.34 2346.71 1646.68 2346.71 Q1674.71 2346.71 1691.08 2331.97 Q1707.44 2317.22 1707.44 2291.94 Q1707.44 2266.67 1691.08 2251.92 Q1674.71 2237.18 1646.68 2237.18 Q1633.56 2237.18 1620.43 2240.09 Q1607.47 2243.01 1593.86 2249.17 L1593.86 2127.64 Z" fill="#000000" fill-rule="evenodd" fill-opacity="1" /><path clip-path="url(#clip850)" d="M1981.67 2342.01 L2035.15 2342.01 L2035.15 2157.45 L1976.97 2169.12 L1976.97 2139.31 L2034.82 2127.64 L2067.55 2127.64 L2067.55 2342.01 L2121.02 2342.01 L2121.02 2369.56 L1981.67 2369.56 L1981.67 2342.01 Z" fill="#000000" fill-rule="evenodd" fill-opacity="1" /><path clip-path="url(#clip850)" d="M2257.13 2149.19 Q2231.86 2149.19 2219.06 2174.14 Q2206.42 2198.93 2206.42 2248.84 Q2206.42 2298.59 2219.06 2323.54 Q2231.86 2348.33 2257.13 2348.33 Q2282.57 2348.33 2295.21 2323.54 Q2308.01 2298.59 2308.01 2248.84 Q2308.01 2198.93 2295.21 2174.14 Q2282.57 2149.19 2257.13 2149.19 M2257.13 2123.26 Q2297.81 2123.26 2319.19 2155.51 Q2340.75 2187.59 2340.75 2248.84 Q2340.75 2309.93 2319.19 2342.17 Q2297.81 2374.26 2257.13 2374.26 Q2216.46 2374.26 2194.91 2342.17 Q2173.52 2309.93 2173.52 2248.84 Q2173.52 2187.59 2194.91 2155.51 Q2216.46 2123.26 2257.13 2123.26 Z" fill="#000000" fill-rule="evenodd" fill-opacity="1" /><path clip-path="url(#clip850)" d="M2482.1 2342.01 L2535.58 2342.01 L2535.58 2157.45 L2477.41 2169.12 L2477.41 2139.31 L2535.25 2127.64 L2567.98 2127.64 L2567.98 2342.01 L2621.46 2342.01 L2621.46 2369.56 L2482.1 2369.56 L2482.1 2342.01 Z" fill="#000000" fill-rule="evenodd" fill-opacity="1" /><path clip-path="url(#clip850)" d="M2687.89 2127.64 L2816.39 2127.64 L2816.39 2155.18 L2717.87 2155.18 L2717.87 2214.49 Q2725 2212.06 2732.13 2210.93 Q2739.26 2209.63 2746.39 2209.63 Q2786.9 2209.63 2810.55 2231.83 Q2834.21 2254.03 2834.21 2291.94 Q2834.21 2330.99 2809.9 2352.71 Q2785.6 2374.26 2741.36 2374.26 Q2726.13 2374.26 2710.25 2371.67 Q2694.53 2369.07 2677.68 2363.89 L2677.68 2330.99 Q2692.27 2338.93 2707.82 2342.82 Q2723.38 2346.71 2740.71 2346.71 Q2768.75 2346.71 2785.11 2331.97 Q2801.48 2317.22 2801.48 2291.94 Q2801.48 2266.67 2785.11 2251.92 Q2768.75 2237.18 2740.71 2237.18 Q2727.59 2237.18 2714.46 2240.09 Q2701.5 2243.01 2687.89 2249.17 L2687.89 2127.64 Z" fill="#000000" fill-rule="evenodd" fill-opacity="1" /><path clip-path="url(#clip850)" d="M3004.17 2342.01 L3118.4 2342.01 L3118.4 2369.56 L2964.79 2369.56 L2964.79 2342.01 Q2983.43 2322.73 3015.51 2290.32 Q3047.76 2257.75 3056.02 2248.36 Q3071.74 2230.69 3077.9 2218.54 Q3084.21 2206.23 3084.21 2194.4 Q3084.21 2175.12 3070.6 2162.96 Q3057.15 2150.81 3035.44 2150.81 Q3020.05 2150.81 3002.87 2156.16 Q2985.86 2161.5 2966.41 2172.36 L2966.41 2139.31 Q2986.18 2131.37 3003.36 2127.31 Q3020.53 2123.26 3034.79 2123.26 Q3072.39 2123.26 3094.75 2142.06 Q3117.11 2160.86 3117.11 2192.29 Q3117.11 2207.2 3111.44 2220.65 Q3105.93 2233.93 3091.18 2252.08 Q3087.13 2256.78 3065.42 2279.3 Q3043.71 2301.67 3004.17 2342.01 Z" fill="#000000" fill-rule="evenodd" fill-opacity="1" /><path clip-path="url(#clip850)" d="M3257.11 2149.19 Q3231.83 2149.19 3219.03 2174.14 Q3206.39 2198.93 3206.39 2248.84 Q3206.39 2298.59 3219.03 2323.54 Q3231.83 2348.33 3257.11 2348.33 Q3282.55 2348.33 3295.19 2323.54 Q3307.99 2298.59 3307.99 2248.84 Q3307.99 2198.93 3295.19 2174.14 Q3282.55 2149.19 3257.11 2149.19 M3257.11 2123.26 Q3297.78 2123.26 3319.17 2155.51 Q3340.72 2187.59 3340.72 2248.84 Q3340.72 2309.93 3319.17 2342.17 Q3297.78 2374.26 3257.11 2374.26 Q3216.44 2374.26 3194.89 2342.17 Q3173.5 2309.93 3173.5 2248.84 Q3173.5 2187.59 3194.89 2155.51 Q3216.44 2123.26 3257.11 2123.26 Z" fill="#000000" fill-rule="evenodd" fill-opacity="1" /><path clip-path="url(#clip850)" d="M2154.81 2770.83 Q2154.81 2782.97 2147.23 2789.9 Q2139.65 2796.62 2130.98 2796.62 Q2122.75 2796.62 2118.41 2791.85 Q2114.08 2787.08 2114.08 2781.02 Q2114.08 2772.78 2120.15 2765.64 Q2126.21 2758.49 2135.31 2756.97 Q2126.43 2751.34 2113.21 2751.34 Q2104.55 2751.34 2096.97 2755.89 Q2089.6 2760.44 2085.05 2766.29 Q2080.72 2772.13 2076.82 2780.58 Q2073.13 2788.82 2071.62 2793.8 Q2070.32 2798.57 2069.23 2803.77 L2054.07 2864.43 Q2046.7 2893.25 2046.7 2903.43 Q2046.7 2916 2052.77 2924.45 Q2058.83 2932.68 2070.97 2932.68 Q2075.73 2932.68 2081.15 2931.38 Q2086.57 2929.86 2093.5 2925.96 Q2100.65 2921.85 2106.93 2915.78 Q2113.43 2909.5 2119.71 2898.88 Q2126 2888.26 2130.11 2874.61 Q2131.41 2869.85 2135.75 2869.85 Q2141.16 2869.85 2141.16 2874.18 Q2141.16 2877.86 2138.13 2885.66 Q2135.31 2893.25 2129.03 2903.21 Q2122.96 2912.96 2114.95 2921.85 Q2106.93 2930.51 2095.02 2936.58 Q2083.1 2942.64 2070.1 2942.64 Q2051.47 2942.64 2039.12 2932.68 Q2026.77 2922.71 2022.22 2908.85 Q2021.13 2910.8 2019.62 2913.4 Q2018.1 2916 2013.55 2921.85 Q2009.22 2927.48 2004.24 2931.81 Q1999.25 2935.93 1991.45 2939.18 Q1983.87 2942.64 1975.64 2942.64 Q1965.24 2942.64 1955.92 2939.61 Q1946.82 2936.58 1940.32 2929.64 Q1933.82 2922.71 1933.82 2913.18 Q1933.82 2902.56 1940.97 2895.2 Q1948.34 2887.61 1958.3 2887.61 Q1964.59 2887.61 1969.57 2891.3 Q1974.77 2894.98 1974.77 2903 Q1974.77 2911.88 1968.7 2918.6 Q1962.64 2925.31 1953.97 2927.05 Q1962.85 2932.68 1976.07 2932.68 Q1990.37 2932.68 2001.64 2920.11 Q2012.9 2907.55 2018.32 2886.53 Q2031.75 2836.05 2036.95 2813.52 Q2042.15 2790.77 2042.15 2781.02 Q2042.15 2771.92 2039.77 2765.64 Q2037.38 2759.35 2033.27 2756.54 Q2029.37 2753.5 2025.68 2752.42 Q2022.22 2751.34 2018.32 2751.34 Q2011.82 2751.34 2004.45 2753.94 Q1997.3 2756.54 1988.64 2762.6 Q1980.19 2768.45 1972.17 2780.58 Q1964.15 2792.72 1958.74 2809.4 Q1957.65 2814.38 1952.89 2814.38 Q1947.69 2814.17 1947.69 2809.83 Q1947.69 2806.15 1950.5 2798.57 Q1953.54 2790.77 1959.6 2781.02 Q1965.89 2771.27 1973.9 2762.6 Q1982.14 2753.72 1994.05 2747.65 Q2006.19 2741.59 2019.19 2741.59 Q2025.03 2741.59 2030.67 2742.89 Q2036.52 2743.97 2043.45 2747.22 Q2050.6 2750.47 2056.88 2757.62 Q2063.17 2764.77 2067.07 2775.17 Q2069.67 2770.18 2073.13 2765.42 Q2076.82 2760.65 2082.45 2754.8 Q2088.3 2748.74 2096.32 2745.27 Q2104.55 2741.59 2113.65 2741.59 Q2122.53 2741.59 2131.2 2743.97 Q2139.86 2746.14 2147.23 2753.29 Q2154.81 2760.22 2154.81 2770.83 Z" fill="#000000" fill-rule="evenodd" fill-opacity="1" /><polyline clip-path="url(#clip853)" style="stroke:#000000; stroke-linecap:butt; stroke-linejoin:round; stroke-width:2; stroke-opacity:0.1; fill:none" points="
  966.184,1544.61 3152.76,1544.61 
  "/>
<polyline clip-path="url(#clip853)" style="stroke:#000000; stroke-linecap:butt; stroke-linejoin:round; stroke-width:2; stroke-opacity:0.1; fill:none" points="
  966.184,1047.66 3152.76,1047.66 
  "/>
<polyline clip-path="url(#clip853)" style="stroke:#000000; stroke-linecap:butt; stroke-linejoin:round; stroke-width:2; stroke-opacity:0.1; fill:none" points="
  966.184,550.714 3152.76,550.714 
  "/>
<polyline clip-path="url(#clip853)" style="stroke:#000000; stroke-linecap:butt; stroke-linejoin:round; stroke-width:2; stroke-opacity:0.1; fill:none" points="
  966.184,53.7661 3152.76,53.7661 
  "/>
<polyline clip-path="url(#clip850)" style="stroke:#000000; stroke-linecap:butt; stroke-linejoin:round; stroke-width:4; stroke-opacity:1; fill:none" points="
  1164.96,2240.34 1164.96,53.7661 
  "/>
<polyline clip-path="url(#clip850)" style="stroke:#000000; stroke-linecap:butt; stroke-linejoin:round; stroke-width:4; stroke-opacity:1; fill:none" points="
  1146.07,1544.61 1183.86,1544.61 
  "/>
<polyline clip-path="url(#clip850)" style="stroke:#000000; stroke-linecap:butt; stroke-linejoin:round; stroke-width:4; stroke-opacity:1; fill:none" points="
  1146.07,1047.66 1183.86,1047.66 
  "/>
<polyline clip-path="url(#clip850)" style="stroke:#000000; stroke-linecap:butt; stroke-linejoin:round; stroke-width:4; stroke-opacity:1; fill:none" points="
  1146.07,550.714 1183.86,550.714 
  "/>
<polyline clip-path="url(#clip850)" style="stroke:#000000; stroke-linecap:butt; stroke-linejoin:round; stroke-width:4; stroke-opacity:1; fill:none" points="
  1146.07,53.7661 1183.86,53.7661 
  "/>
<polyline clip-path="url(#clip850)" style="stroke:#000000; stroke-linecap:butt; stroke-linejoin:round; stroke-width:4; stroke-opacity:1; fill:none" points="
  1155.51,2240.34 1174.41,2240.34 
  "/>
<polyline clip-path="url(#clip850)" style="stroke:#000000; stroke-linecap:butt; stroke-linejoin:round; stroke-width:4; stroke-opacity:1; fill:none" points="
  1155.51,2140.95 1174.41,2140.95 
  "/>
<polyline clip-path="url(#clip850)" style="stroke:#000000; stroke-linecap:butt; stroke-linejoin:round; stroke-width:4; stroke-opacity:1; fill:none" points="
  1155.51,1942.17 1174.41,1942.17 
  "/>
<polyline clip-path="url(#clip850)" style="stroke:#000000; stroke-linecap:butt; stroke-linejoin:round; stroke-width:4; stroke-opacity:1; fill:none" points="
  1155.51,1842.78 1174.41,1842.78 
  "/>
<polyline clip-path="url(#clip850)" style="stroke:#000000; stroke-linecap:butt; stroke-linejoin:round; stroke-width:4; stroke-opacity:1; fill:none" points="
  1155.51,1743.39 1174.41,1743.39 
  "/>
<polyline clip-path="url(#clip850)" style="stroke:#000000; stroke-linecap:butt; stroke-linejoin:round; stroke-width:4; stroke-opacity:1; fill:none" points="
  1155.51,1644 1174.41,1644 
  "/>
<polyline clip-path="url(#clip850)" style="stroke:#000000; stroke-linecap:butt; stroke-linejoin:round; stroke-width:4; stroke-opacity:1; fill:none" points="
  1155.51,1445.22 1174.41,1445.22 
  "/>
<polyline clip-path="url(#clip850)" style="stroke:#000000; stroke-linecap:butt; stroke-linejoin:round; stroke-width:4; stroke-opacity:1; fill:none" points="
  1155.51,1345.83 1174.41,1345.83 
  "/>
<polyline clip-path="url(#clip850)" style="stroke:#000000; stroke-linecap:butt; stroke-linejoin:round; stroke-width:4; stroke-opacity:1; fill:none" points="
  1155.51,1246.44 1174.41,1246.44 
  "/>
<polyline clip-path="url(#clip850)" style="stroke:#000000; stroke-linecap:butt; stroke-linejoin:round; stroke-width:4; stroke-opacity:1; fill:none" points="
  1155.51,1147.05 1174.41,1147.05 
  "/>
<polyline clip-path="url(#clip850)" style="stroke:#000000; stroke-linecap:butt; stroke-linejoin:round; stroke-width:4; stroke-opacity:1; fill:none" points="
  1155.51,948.273 1174.41,948.273 
  "/>
<polyline clip-path="url(#clip850)" style="stroke:#000000; stroke-linecap:butt; stroke-linejoin:round; stroke-width:4; stroke-opacity:1; fill:none" points="
  1155.51,848.883 1174.41,848.883 
  "/>
<polyline clip-path="url(#clip850)" style="stroke:#000000; stroke-linecap:butt; stroke-linejoin:round; stroke-width:4; stroke-opacity:1; fill:none" points="
  1155.51,749.493 1174.41,749.493 
  "/>
<polyline clip-path="url(#clip850)" style="stroke:#000000; stroke-linecap:butt; stroke-linejoin:round; stroke-width:4; stroke-opacity:1; fill:none" points="
  1155.51,650.104 1174.41,650.104 
  "/>
<polyline clip-path="url(#clip850)" style="stroke:#000000; stroke-linecap:butt; stroke-linejoin:round; stroke-width:4; stroke-opacity:1; fill:none" points="
  1155.51,451.325 1174.41,451.325 
  "/>
<polyline clip-path="url(#clip850)" style="stroke:#000000; stroke-linecap:butt; stroke-linejoin:round; stroke-width:4; stroke-opacity:1; fill:none" points="
  1155.51,351.935 1174.41,351.935 
  "/>
<polyline clip-path="url(#clip850)" style="stroke:#000000; stroke-linecap:butt; stroke-linejoin:round; stroke-width:4; stroke-opacity:1; fill:none" points="
  1155.51,252.545 1174.41,252.545 
  "/>
<polyline clip-path="url(#clip850)" style="stroke:#000000; stroke-linecap:butt; stroke-linejoin:round; stroke-width:4; stroke-opacity:1; fill:none" points="
  1155.51,153.156 1174.41,153.156 
  "/>
<path clip-path="url(#clip850)" d="M970.645 1423.65 L1099.14 1423.65 L1099.14 1451.2 L1000.62 1451.2 L1000.62 1510.5 Q1007.75 1508.07 1014.88 1506.94 Q1022.01 1505.64 1029.14 1505.64 Q1069.65 1505.64 1093.31 1527.84 Q1116.96 1550.04 1116.96 1587.96 Q1116.96 1627.01 1092.66 1648.72 Q1068.35 1670.27 1024.12 1670.27 Q1008.89 1670.27 993.006 1667.68 Q977.288 1665.08 960.436 1659.9 L960.436 1627.01 Q975.02 1634.95 990.575 1638.83 Q1006.13 1642.72 1023.47 1642.72 Q1051.5 1642.72 1067.87 1627.98 Q1084.23 1613.23 1084.23 1587.96 Q1084.23 1562.68 1067.87 1547.93 Q1051.5 1533.19 1023.47 1533.19 Q1010.34 1533.19 997.219 1536.1 Q984.256 1539.02 970.645 1545.18 L970.645 1423.65 Z" fill="#000000" fill-rule="evenodd" fill-opacity="1" /><path clip-path="url(#clip850)" d="M757.891 1141.08 L811.363 1141.08 L811.363 956.517 L753.192 968.184 L753.192 938.369 L811.039 926.702 L843.77 926.702 L843.77 1141.08 L897.242 1141.08 L897.242 1168.62 L757.891 1168.62 L757.891 1141.08 Z" fill="#000000" fill-rule="evenodd" fill-opacity="1" /><path clip-path="url(#clip850)" d="M1033.35 948.253 Q1008.08 948.253 995.274 973.207 Q982.635 997.998 982.635 1047.91 Q982.635 1097.65 995.274 1122.6 Q1008.08 1147.4 1033.35 1147.4 Q1058.79 1147.4 1071.43 1122.6 Q1084.23 1097.65 1084.23 1047.91 Q1084.23 997.998 1071.43 973.207 Q1058.79 948.253 1033.35 948.253 M1033.35 922.327 Q1074.02 922.327 1095.41 954.573 Q1116.96 986.656 1116.96 1047.91 Q1116.96 1108.99 1095.41 1141.24 Q1074.02 1173.32 1033.35 1173.32 Q992.682 1173.32 971.131 1141.24 Q949.742 1108.99 949.742 1047.91 Q949.742 986.656 971.131 954.573 Q992.682 922.327 1033.35 922.327 Z" fill="#000000" fill-rule="evenodd" fill-opacity="1" /><path clip-path="url(#clip850)" d="M764.859 644.128 L818.331 644.128 L818.331 459.569 L760.16 471.235 L760.16 441.421 L818.007 429.754 L850.738 429.754 L850.738 644.128 L904.21 644.128 L904.21 671.674 L764.859 671.674 L764.859 644.128 Z" fill="#000000" fill-rule="evenodd" fill-opacity="1" /><path clip-path="url(#clip850)" d="M970.645 429.754 L1099.14 429.754 L1099.14 457.3 L1000.62 457.3 L1000.62 516.606 Q1007.75 514.175 1014.88 513.041 Q1022.01 511.744 1029.14 511.744 Q1069.65 511.744 1093.31 533.943 Q1116.96 556.142 1116.96 594.059 Q1116.96 633.11 1092.66 654.822 Q1068.35 676.373 1024.12 676.373 Q1008.89 676.373 993.006 673.781 Q977.288 671.188 960.436 666.003 L960.436 633.11 Q975.02 641.049 990.575 644.938 Q1006.13 648.827 1023.47 648.827 Q1051.5 648.827 1067.87 634.082 Q1084.23 619.337 1084.23 594.059 Q1084.23 568.781 1067.87 554.036 Q1051.5 539.291 1023.47 539.291 Q1010.34 539.291 997.219 542.207 Q984.256 545.124 970.645 551.281 L970.645 429.754 Z" fill="#000000" fill-rule="evenodd" fill-opacity="1" /><path clip-path="url(#clip850)" d="M780.414 147.18 L894.65 147.18 L894.65 174.726 L741.039 174.726 L741.039 147.18 Q759.674 127.898 791.757 95.4904 Q824.002 62.9211 832.266 53.523 Q847.983 35.8611 854.141 23.7083 Q860.46 11.3936 860.46 -0.435048 Q860.46 -19.7174 846.849 -31.8701 Q833.4 -44.0228 811.687 -44.0228 Q796.294 -44.0228 779.118 -38.6756 Q762.104 -33.3284 742.66 -22.472 L742.66 -55.5273 Q762.428 -63.4671 779.604 -67.518 Q796.78 -71.5689 811.039 -71.5689 Q848.631 -71.5689 870.992 -52.7727 Q893.353 -33.9765 893.353 -2.54152 Q893.353 12.3658 887.682 25.8148 Q882.173 39.1018 867.428 57.2498 Q863.377 61.9489 841.664 84.4719 Q819.951 106.833 780.414 147.18 Z" fill="#000000" fill-rule="evenodd" fill-opacity="1" /><path clip-path="url(#clip850)" d="M1033.35 -45.6431 Q1008.08 -45.6431 995.274 -20.6896 Q982.635 4.10196 982.635 54.0091 Q982.635 103.754 995.274 128.708 Q1008.08 153.499 1033.35 153.499 Q1058.79 153.499 1071.43 128.708 Q1084.23 103.754 1084.23 54.0091 Q1084.23 4.10196 1071.43 -20.6896 Q1058.79 -45.6431 1033.35 -45.6431 M1033.35 -71.5689 Q1074.02 -71.5689 1095.41 -39.3237 Q1116.96 -7.24057 1116.96 54.0091 Q1116.96 115.097 1095.41 147.342 Q1074.02 179.425 1033.35 179.425 Q992.682 179.425 971.131 147.342 Q949.742 115.097 949.742 54.0091 Q949.742 -7.24057 971.131 -39.3237 Q992.682 -71.5689 1033.35 -71.5689 Z" fill="#000000" fill-rule="evenodd" fill-opacity="1" /><path clip-path="url(#clip850)" d="M175.318 1049.93 Q178.351 1049.93 185.501 1051.88 L354.927 1094.35 Q392.626 1103.66 419.058 1134 Q445.49 1164.11 445.49 1198.34 Q445.49 1218.93 434.44 1232.14 Q423.608 1245.36 406.925 1245.36 Q392.192 1245.36 385.043 1237.56 Q378.11 1229.76 378.11 1220.44 Q378.11 1217.41 378.976 1214.16 Q379.843 1210.91 383.526 1207.44 Q387.209 1203.98 393.492 1203.98 Q403.675 1203.98 411.691 1212.86 Q415.375 1217.19 416.241 1221.31 Q417.108 1225.21 417.108 1231.92 Q423.174 1229.32 427.291 1224.56 Q431.407 1219.79 432.924 1214.38 Q434.657 1208.96 435.09 1205.49 Q435.74 1201.81 435.74 1198.34 Q435.74 1170.61 407.792 1149.38 Q399.342 1143.1 390.892 1138.55 Q382.659 1133.78 372.476 1130.31 Q362.51 1126.85 357.094 1125.33 Q351.677 1123.6 339.328 1120.56 Q359.477 1140.71 359.477 1165.41 Q359.477 1175.81 356.66 1185.13 Q353.844 1194.23 347.994 1202.24 Q341.928 1210.26 331.311 1215.03 Q320.695 1219.58 306.612 1219.58 Q291.663 1219.58 271.297 1213.73 Q250.931 1207.88 213.45 1193.79 Q192.434 1186.21 182.251 1186.21 Q177.268 1186.21 174.235 1187.29 Q170.985 1188.38 169.902 1190.54 Q168.602 1192.71 168.385 1194.01 Q168.168 1195.09 168.168 1197.26 Q168.168 1210.04 181.168 1221.96 Q194.167 1233.87 223.199 1242.11 Q228.616 1243.84 229.916 1244.92 Q231.216 1246.01 231.216 1249.26 Q230.999 1254.67 226.666 1254.67 Q224.933 1254.67 218.216 1252.72 Q211.283 1250.77 201.1 1246.22 Q190.701 1241.46 181.384 1234.96 Q171.851 1228.46 165.135 1218.28 Q158.419 1207.88 158.419 1195.96 Q158.419 1179.71 169.035 1169.74 Q179.434 1159.56 194.817 1159.56 Q201.1 1159.56 206.733 1161.29 Q212.15 1162.81 226.666 1168.44 Q285.163 1191.19 313.762 1191.19 Q320.695 1191.19 326.545 1190.11 Q332.178 1188.81 337.811 1185.99 Q343.228 1183.18 346.477 1177.54 Q349.511 1171.69 349.511 1163.68 Q349.511 1153.49 344.744 1143.96 Q339.761 1134.21 333.045 1128.15 Q326.328 1121.86 320.695 1118.18 Q314.845 1114.28 311.812 1113.41 L232.082 1093.48 L196.55 1084.6 Q177.268 1080.48 172.501 1078.53 Q167.952 1075.93 165.568 1071.38 Q163.185 1066.83 163.185 1062.93 Q163.185 1057.52 166.435 1053.83 Q169.685 1049.93 175.318 1049.93 Z" fill="#000000" fill-rule="evenodd" fill-opacity="1" /><path clip-path="url(#clip853)" d="
M1363.74 1147.05 L1373.68 1161.96 L1383.62 1176.87 L1393.56 1191.78 L1403.5 1206.69 L1413.44 1221.59 L1423.38 1236.5 L1433.32 1251.41 L1443.25 1266.32 L1453.19 1281.23 
  L1463.13 1296.14 L1473.07 1311.04 L1483.01 1325.95 L1492.95 1340.86 L1502.89 1355.77 L1512.83 1370.68 L1522.77 1385.59 L1532.7 1400.5 L1542.64 1415.4 L1552.58 1430.31 
  L1562.52 1445.22 L1572.46 1460.13 L1582.4 1475.04 L1592.34 1489.95 L1602.28 1504.85 L1612.22 1519.76 L1622.16 1534.67 L1632.09 1549.58 L1642.03 1564.49 L1651.97 1579.4 
  L1661.91 1594.31 L1671.85 1609.21 L1681.79 1624.12 L1691.73 1639.03 L1701.67 1653.94 L1711.61 1668.85 L1721.55 1683.76 L1731.48 1698.66 L1741.42 1713.57 L1751.36 1728.48 
  L1761.3 1743.39 L1771.24 1738.42 L1781.18 1733.45 L1791.12 1728.48 L1801.06 1723.51 L1811 1718.54 L1820.93 1713.57 L1830.87 1708.6 L1840.81 1703.63 L1850.75 1698.66 
  L1860.69 1693.69 L1870.63 1688.73 L1880.57 1683.76 L1890.51 1678.79 L1900.45 1673.82 L1910.39 1668.85 L1920.32 1663.88 L1930.26 1658.91 L1940.2 1653.94 L1950.14 1648.97 
  L1960.08 1644 L1970.02 1639.03 L1979.96 1634.06 L1989.9 1629.09 L1999.84 1624.12 L2009.78 1619.15 L2019.71 1614.18 L2029.65 1609.21 L2039.59 1604.24 L2049.53 1599.27 
  L2059.47 1594.31 L2069.41 1589.34 L2079.35 1584.37 L2089.29 1579.4 L2099.23 1574.43 L2109.16 1569.46 L2119.1 1564.49 L2129.04 1559.52 L2138.98 1554.55 L2148.92 1549.58 
  L2158.86 1544.61 L2168.8 1539.64 L2178.74 1534.67 L2188.68 1529.7 L2198.62 1524.73 L2208.55 1519.76 L2218.49 1514.79 L2228.43 1509.82 L2238.37 1504.85 L2248.31 1499.89 
  L2258.25 1494.92 L2258.25 1544.61 L2248.31 1534.67 L2238.37 1524.73 L2228.43 1514.79 L2218.49 1504.85 L2208.55 1494.92 L2198.62 1484.98 L2188.68 1475.04 L2178.74 1465.1 
  L2168.8 1455.16 L2158.86 1445.22 L2148.92 1435.28 L2138.98 1425.34 L2129.04 1415.4 L2119.1 1405.47 L2109.16 1395.53 L2099.23 1385.59 L2089.29 1375.65 L2079.35 1365.71 
  L2069.41 1355.77 L2059.47 1345.83 L2049.53 1335.89 L2039.59 1325.95 L2029.65 1316.01 L2019.71 1306.08 L2009.78 1296.14 L1999.84 1286.2 L1989.9 1276.26 L1979.96 1266.32 
  L1970.02 1256.38 L1960.08 1246.44 L1950.14 1236.5 L1940.2 1226.56 L1930.26 1216.62 L1920.32 1206.69 L1910.39 1196.75 L1900.45 1186.81 L1890.51 1176.87 L1880.57 1166.93 
  L1870.63 1156.99 L1860.69 1147.05 L1850.75 1137.11 L1840.81 1127.17 L1830.87 1117.24 L1820.93 1107.3 L1811 1097.36 L1801.06 1087.42 L1791.12 1077.48 L1781.18 1067.54 
  L1771.24 1057.6 L1761.3 1047.66 L1751.36 1037.72 L1741.42 1027.78 L1731.48 1017.85 L1721.55 1007.91 L1711.61 997.968 L1701.67 988.029 L1691.73 978.09 L1681.79 968.151 
  L1671.85 958.212 L1661.91 948.273 L1651.97 938.334 L1642.03 928.395 L1632.09 918.456 L1622.16 908.517 L1612.22 898.578 L1602.28 888.639 L1592.34 878.7 L1582.4 868.761 
  L1572.46 858.822 L1562.52 848.883 L1552.58 838.944 L1542.64 829.005 L1532.7 819.066 L1522.77 809.127 L1512.83 799.188 L1502.89 789.249 L1492.95 779.31 L1483.01 769.371 
  L1473.07 759.432 L1463.13 749.493 L1453.19 744.524 L1443.25 789.249 L1433.32 833.975 L1423.38 878.7 L1413.44 923.425 L1403.5 968.151 L1393.56 1012.88 L1383.62 1057.6 
  L1373.68 1102.33 L1363.74 1147.05  Z
  " fill="#add8e6" fill-rule="evenodd" fill-opacity="1"/>
<polyline clip-path="url(#clip853)" style="stroke:#add8e6; stroke-linecap:butt; stroke-linejoin:round; stroke-width:4; stroke-opacity:1; fill:none" points="
  1363.74,1147.05 1373.68,1161.96 1383.62,1176.87 1393.56,1191.78 1403.5,1206.69 1413.44,1221.59 1423.38,1236.5 1433.32,1251.41 1443.25,1266.32 1453.19,1281.23 
  1463.13,1296.14 1473.07,1311.04 1483.01,1325.95 1492.95,1340.86 1502.89,1355.77 1512.83,1370.68 1522.77,1385.59 1532.7,1400.5 1542.64,1415.4 1552.58,1430.31 
  1562.52,1445.22 1572.46,1460.13 1582.4,1475.04 1592.34,1489.95 1602.28,1504.85 1612.22,1519.76 1622.16,1534.67 1632.09,1549.58 1642.03,1564.49 1651.97,1579.4 
  1661.91,1594.31 1671.85,1609.21 1681.79,1624.12 1691.73,1639.03 1701.67,1653.94 1711.61,1668.85 1721.55,1683.76 1731.48,1698.66 1741.42,1713.57 1751.36,1728.48 
  1761.3,1743.39 1771.24,1738.42 1781.18,1733.45 1791.12,1728.48 1801.06,1723.51 1811,1718.54 1820.93,1713.57 1830.87,1708.6 1840.81,1703.63 1850.75,1698.66 
  1860.69,1693.69 1870.63,1688.73 1880.57,1683.76 1890.51,1678.79 1900.45,1673.82 1910.39,1668.85 1920.32,1663.88 1930.26,1658.91 1940.2,1653.94 1950.14,1648.97 
  1960.08,1644 1970.02,1639.03 1979.96,1634.06 1989.9,1629.09 1999.84,1624.12 2009.78,1619.15 2019.71,1614.18 2029.65,1609.21 2039.59,1604.24 2049.53,1599.27 
  2059.47,1594.31 2069.41,1589.34 2079.35,1584.37 2089.29,1579.4 2099.23,1574.43 2109.16,1569.46 2119.1,1564.49 2129.04,1559.52 2138.98,1554.55 2148.92,1549.58 
  2158.86,1544.61 2168.8,1539.64 2178.74,1534.67 2188.68,1529.7 2198.62,1524.73 2208.55,1519.76 2218.49,1514.79 2228.43,1509.82 2238.37,1504.85 2248.31,1499.89 
  2258.25,1494.92 
  "/>
<polyline clip-path="url(#clip853)" style="stroke:#008000; stroke-linecap:butt; stroke-linejoin:round; stroke-width:12; stroke-opacity:1; fill:none" points="
  966.184,2936.07 976.123,2891.34 986.062,2846.61 996.001,2801.89 1005.94,2757.16 1015.88,2712.44 1025.82,2667.71 1035.76,2622.99 1045.7,2578.26 1055.63,2533.54 
  1065.57,2488.81 1075.51,2444.09 1085.45,2399.36 1095.39,2354.64 1105.33,2309.91 1115.27,2265.19 1125.21,2220.46 1135.15,2175.73 1145.09,2131.01 1155.02,2086.28 
  1164.96,2041.56 1174.9,1996.83 1184.84,1952.11 1194.78,1907.38 1204.72,1862.66 1214.66,1817.93 1224.6,1773.21 1234.54,1728.48 1244.48,1683.76 1254.41,1639.03 
  1264.35,1594.31 1274.29,1549.58 1284.23,1504.85 1294.17,1460.13 1304.11,1415.4 1314.05,1370.68 1323.99,1325.95 1333.93,1281.23 1343.86,1236.5 1353.8,1191.78 
  1363.74,1147.05 1373.68,1102.33 1383.62,1057.6 1393.56,1012.88 1403.5,968.151 1413.44,923.425 1423.38,878.7 1433.32,833.975 1443.25,789.249 1453.19,744.524 
  1463.13,699.799 1473.07,655.073 1483.01,610.348 1492.95,565.623 1502.89,520.897 1512.83,476.172 1522.77,431.447 1532.7,386.721 1542.64,341.996 1552.58,297.271 
  1562.52,252.545 1572.46,207.82 1582.4,163.095 1592.34,118.369 1602.28,73.644 1612.22,28.9186 1622.16,-15.8067 1632.09,-60.532 1642.03,-105.257 1651.97,-149.983 
  1661.91,-194.708 1671.85,-239.433 1681.79,-284.159 1691.73,-328.884 1701.67,-373.609 1711.61,-418.335 1721.55,-463.06 1731.48,-507.785 1741.42,-552.511 1751.36,-597.236 
  1761.3,-641.961 1771.24,-686.687 1781.18,-731.412 1791.12,-776.137 1801.06,-820.863 1811,-865.588 1820.93,-910.313 1830.87,-955.039 1840.81,-999.764 1850.75,-1044.49 
  1860.69,-1089.21 1870.63,-1133.94 1880.57,-1178.67 1890.51,-1223.39 1900.45,-1268.12 1910.39,-1312.84 1920.32,-1357.57 1930.26,-1402.29 1940.2,-1447.02 1950.14,-1491.74 
  1960.08,-1536.47 1970.02,-1581.19 1979.96,-1625.92 1989.9,-1670.64 1999.84,-1715.37 2009.78,-1760.09 2019.71,-1804.82 2029.65,-1849.55 2039.59,-1894.27 2049.53,-1939 
  2059.47,-1983.72 2069.41,-2028.45 2079.35,-2073.17 2089.29,-2117.9 2099.23,-2162.62 2109.16,-2207.35 2119.1,-2252.07 2129.04,-2296.8 2138.98,-2341.52 2148.92,-2386.25 
  2158.86,-2430.97 2168.8,-2475.7 2178.74,-2520.43 2188.68,-2565.15 2198.62,-2609.88 2208.55,-2654.6 2218.49,-2699.33 2228.43,-2744.05 2238.37,-2788.78 2248.31,-2833.5 
  2258.25,-2878.23 2268.19,-2922.95 2278.13,-2967.68 2288.07,-3012.4 2298.01,-3057.13 2307.94,-3101.85 2317.88,-3146.58 2327.82,-3191.31 2337.76,-3236.03 2347.7,-3280.76 
  2357.64,-3325.48 2367.58,-3370.21 2377.52,-3414.93 2387.46,-3459.66 2397.39,-3504.38 2407.33,-3549.11 2417.27,-3593.83 2427.21,-3638.56 2437.15,-3683.28 2447.09,-3728.01 
  2457.03,-3772.73 2466.97,-3817.46 2476.91,-3862.19 2486.85,-3906.91 2496.78,-3951.64 2506.72,-3996.36 2516.66,-4041.09 2526.6,-4085.81 2536.54,-4130.54 2546.48,-4175.26 
  2556.42,-4219.99 2566.36,-4264.71 2576.3,-4309.44 2586.24,-4354.16 2596.17,-4398.89 2606.11,-4443.61 2616.05,-4488.34 2625.99,-4533.07 2635.93,-4577.79 2645.87,-4622.52 
  2655.81,-4667.24 2665.75,-4711.97 2675.69,-4756.69 2685.62,-4801.42 2695.56,-4846.14 2705.5,-4890.87 2715.44,-4935.59 2725.38,-4980.32 2735.32,-5025.04 2745.26,-5069.77 
  2755.2,-5114.49 2765.14,-5159.22 2775.08,-5203.95 2785.01,-5248.67 2794.95,-5293.4 2804.89,-5338.12 2814.83,-5382.85 2824.77,-5427.57 2834.71,-5472.3 2844.65,-5517.02 
  2854.59,-5561.75 2864.53,-5606.47 2874.46,-5651.2 2884.4,-5695.92 2894.34,-5740.65 2904.28,-5785.37 2914.22,-5830.1 2924.16,-5874.83 2934.1,-5919.55 2944.04,-5964.28 
  2953.98,-6009 2963.92,-6053.73 2973.85,-6098.45 2983.79,-6143.18 2993.73,-6187.9 3003.67,-6232.63 3013.61,-6277.35 3023.55,-6322.08 3033.49,-6366.8 3043.43,-6411.53 
  3053.37,-6456.25 3063.31,-6500.98 3073.24,-6545.71 3083.18,-6590.43 3093.12,-6635.16 3103.06,-6679.88 3113,-6724.61 3122.94,-6769.33 3132.88,-6814.06 3142.82,-6858.78 
  3152.76,-6903.51 
  "/>
<polyline clip-path="url(#clip853)" style="stroke:#ff0000; stroke-linecap:butt; stroke-linejoin:round; stroke-width:12; stroke-opacity:1; fill:none" points="
  966.184,252.545 976.123,262.484 986.062,272.423 996.001,282.362 1005.94,292.301 1015.88,302.24 1025.82,312.179 1035.76,322.118 1045.7,332.057 1055.63,341.996 
  1065.57,351.935 1075.51,361.874 1085.45,371.813 1095.39,381.752 1105.33,391.691 1115.27,401.63 1125.21,411.569 1135.15,421.508 1145.09,431.447 1155.02,441.386 
  1164.96,451.325 1174.9,461.264 1184.84,471.202 1194.78,481.141 1204.72,491.08 1214.66,501.019 1224.6,510.958 1234.54,520.897 1244.48,530.836 1254.41,540.775 
  1264.35,550.714 1274.29,560.653 1284.23,570.592 1294.17,580.531 1304.11,590.47 1314.05,600.409 1323.99,610.348 1333.93,620.287 1343.86,630.226 1353.8,640.165 
  1363.74,650.104 1373.68,660.043 1383.62,669.982 1393.56,679.921 1403.5,689.86 1413.44,699.799 1423.38,709.738 1433.32,719.677 1443.25,729.616 1453.19,739.554 
  1463.13,749.493 1473.07,759.432 1483.01,769.371 1492.95,779.31 1502.89,789.249 1512.83,799.188 1522.77,809.127 1532.7,819.066 1542.64,829.005 1552.58,838.944 
  1562.52,848.883 1572.46,858.822 1582.4,868.761 1592.34,878.7 1602.28,888.639 1612.22,898.578 1622.16,908.517 1632.09,918.456 1642.03,928.395 1651.97,938.334 
  1661.91,948.273 1671.85,958.212 1681.79,968.151 1691.73,978.09 1701.67,988.029 1711.61,997.968 1721.55,1007.91 1731.48,1017.85 1741.42,1027.78 1751.36,1037.72 
  1761.3,1047.66 1771.24,1057.6 1781.18,1067.54 1791.12,1077.48 1801.06,1087.42 1811,1097.36 1820.93,1107.3 1830.87,1117.24 1840.81,1127.17 1850.75,1137.11 
  1860.69,1147.05 1870.63,1156.99 1880.57,1166.93 1890.51,1176.87 1900.45,1186.81 1910.39,1196.75 1920.32,1206.69 1930.26,1216.62 1940.2,1226.56 1950.14,1236.5 
  1960.08,1246.44 1970.02,1256.38 1979.96,1266.32 1989.9,1276.26 1999.84,1286.2 2009.78,1296.14 2019.71,1306.08 2029.65,1316.01 2039.59,1325.95 2049.53,1335.89 
  2059.47,1345.83 2069.41,1355.77 2079.35,1365.71 2089.29,1375.65 2099.23,1385.59 2109.16,1395.53 2119.1,1405.47 2129.04,1415.4 2138.98,1425.34 2148.92,1435.28 
  2158.86,1445.22 2168.8,1455.16 2178.74,1465.1 2188.68,1475.04 2198.62,1484.98 2208.55,1494.92 2218.49,1504.85 2228.43,1514.79 2238.37,1524.73 2248.31,1534.67 
  2258.25,1544.61 2268.19,1554.55 2278.13,1564.49 2288.07,1574.43 2298.01,1584.37 2307.94,1594.31 2317.88,1604.24 2327.82,1614.18 2337.76,1624.12 2347.7,1634.06 
  2357.64,1644 2367.58,1653.94 2377.52,1663.88 2387.46,1673.82 2397.39,1683.76 2407.33,1693.69 2417.27,1703.63 2427.21,1713.57 2437.15,1723.51 2447.09,1733.45 
  2457.03,1743.39 2466.97,1753.33 2476.91,1763.27 2486.85,1773.21 2496.78,1783.15 2506.72,1793.08 2516.66,1803.02 2526.6,1812.96 2536.54,1822.9 2546.48,1832.84 
  2556.42,1842.78 2566.36,1852.72 2576.3,1862.66 2586.24,1872.6 2596.17,1882.54 2606.11,1892.47 2616.05,1902.41 2625.99,1912.35 2635.93,1922.29 2645.87,1932.23 
  2655.81,1942.17 2665.75,1952.11 2675.69,1962.05 2685.62,1971.99 2695.56,1981.92 2705.5,1991.86 2715.44,2001.8 2725.38,2011.74 2735.32,2021.68 2745.26,2031.62 
  2755.2,2041.56 2765.14,2051.5 2775.08,2061.44 2785.01,2071.38 2794.95,2081.31 2804.89,2091.25 2814.83,2101.19 2824.77,2111.13 2834.71,2121.07 2844.65,2131.01 
  2854.59,2140.95 2864.53,2150.89 2874.46,2160.83 2884.4,2170.77 2894.34,2180.7 2904.28,2190.64 2914.22,2200.58 2924.16,2210.52 2934.1,2220.46 2944.04,2230.4 
  2953.98,2240.34 2963.92,2250.28 2973.85,2260.22 2983.79,2270.15 2993.73,2280.09 3003.67,2290.03 3013.61,2299.97 3023.55,2309.91 3033.49,2319.85 3043.43,2329.79 
  3053.37,2339.73 3063.31,2349.67 3073.24,2359.61 3083.18,2369.54 3093.12,2379.48 3103.06,2389.42 3113,2399.36 3122.94,2409.3 3132.88,2419.24 3142.82,2429.18 
  3152.76,2439.12 
  "/>
<polyline clip-path="url(#clip853)" style="stroke:#a52a2a; stroke-linecap:butt; stroke-linejoin:round; stroke-width:12; stroke-opacity:1; fill:none" points="
  966.184,550.714 976.123,565.623 986.062,580.531 996.001,595.44 1005.94,610.348 1015.88,625.256 1025.82,640.165 1035.76,655.073 1045.7,669.982 1055.63,684.89 
  1065.57,699.799 1075.51,714.707 1085.45,729.616 1095.39,744.524 1105.33,759.432 1115.27,774.341 1125.21,789.249 1135.15,804.158 1145.09,819.066 1155.02,833.975 
  1164.96,848.883 1174.9,863.792 1184.84,878.7 1194.78,893.608 1204.72,908.517 1214.66,923.425 1224.6,938.334 1234.54,953.242 1244.48,968.151 1254.41,983.059 
  1264.35,997.968 1274.29,1012.88 1284.23,1027.78 1294.17,1042.69 1304.11,1057.6 1314.05,1072.51 1323.99,1087.42 1333.93,1102.33 1343.86,1117.24 1353.8,1132.14 
  1363.74,1147.05 1373.68,1161.96 1383.62,1176.87 1393.56,1191.78 1403.5,1206.69 1413.44,1221.59 1423.38,1236.5 1433.32,1251.41 1443.25,1266.32 1453.19,1281.23 
  1463.13,1296.14 1473.07,1311.04 1483.01,1325.95 1492.95,1340.86 1502.89,1355.77 1512.83,1370.68 1522.77,1385.59 1532.7,1400.5 1542.64,1415.4 1552.58,1430.31 
  1562.52,1445.22 1572.46,1460.13 1582.4,1475.04 1592.34,1489.95 1602.28,1504.85 1612.22,1519.76 1622.16,1534.67 1632.09,1549.58 1642.03,1564.49 1651.97,1579.4 
  1661.91,1594.31 1671.85,1609.21 1681.79,1624.12 1691.73,1639.03 1701.67,1653.94 1711.61,1668.85 1721.55,1683.76 1731.48,1698.66 1741.42,1713.57 1751.36,1728.48 
  1761.3,1743.39 1771.24,1758.3 1781.18,1773.21 1791.12,1788.12 1801.06,1803.02 1811,1817.93 1820.93,1832.84 1830.87,1847.75 1840.81,1862.66 1850.75,1877.57 
  1860.69,1892.47 1870.63,1907.38 1880.57,1922.29 1890.51,1937.2 1900.45,1952.11 1910.39,1967.02 1920.32,1981.92 1930.26,1996.83 1940.2,2011.74 1950.14,2026.65 
  1960.08,2041.56 1970.02,2056.47 1979.96,2071.38 1989.9,2086.28 1999.84,2101.19 2009.78,2116.1 2019.71,2131.01 2029.65,2145.92 2039.59,2160.83 2049.53,2175.73 
  2059.47,2190.64 2069.41,2205.55 2079.35,2220.46 2089.29,2235.37 2099.23,2250.28 2109.16,2265.19 2119.1,2280.09 2129.04,2295 2138.98,2309.91 2148.92,2324.82 
  2158.86,2339.73 2168.8,2354.64 2178.74,2369.54 2188.68,2384.45 2198.62,2399.36 2208.55,2414.27 2218.49,2429.18 2228.43,2444.09 2238.37,2459 2248.31,2473.9 
  2258.25,2488.81 2268.19,2503.72 2278.13,2518.63 2288.07,2533.54 2298.01,2548.45 2307.94,2563.35 2317.88,2578.26 2327.82,2593.17 2337.76,2608.08 2347.7,2622.99 
  2357.64,2637.9 2367.58,2652.8 2377.52,2667.71 2387.46,2682.62 2397.39,2697.53 2407.33,2712.44 2417.27,2727.35 2427.21,2742.26 2437.15,2757.16 2447.09,2772.07 
  2457.03,2786.98 2466.97,2801.89 2476.91,2816.8 2486.85,2831.71 2496.78,2846.61 2506.72,2861.52 2516.66,2876.43 2526.6,2891.34 2536.54,2906.25 2546.48,2921.16 
  2556.42,2936.07 2566.36,2950.97 2576.3,2965.88 2586.24,2980.79 2596.17,2995.7 2606.11,3010.61 2616.05,3025.52 2625.99,3040.42 2635.93,3055.33 2645.87,3070.24 
  2655.81,3085.15 2665.75,3100.06 2675.69,3114.97 2685.62,3129.88 2695.56,3144.78 2705.5,3159.69 2715.44,3174.6 2725.38,3189.51 2735.32,3204.42 2745.26,3219.33 
  2755.2,3234.23 2765.14,3249.14 2775.08,3264.05 2785.01,3278.96 2794.95,3293.87 2804.89,3308.78 2814.83,3323.68 2824.77,3338.59 2834.71,3353.5 2844.65,3368.41 
  2854.59,3383.32 2864.53,3398.23 2874.46,3413.14 2884.4,3428.04 2894.34,3442.95 2904.28,3457.86 2914.22,3472.77 2924.16,3487.68 2934.1,3502.59 2944.04,3517.49 
  2953.98,3532.4 2963.92,3547.31 2973.85,3562.22 2983.79,3577.13 2993.73,3592.04 3003.67,3606.95 3013.61,3621.85 3023.55,3636.76 3033.49,3651.67 3043.43,3666.58 
  3053.37,3681.49 3063.31,3696.4 3073.24,3711.3 3083.18,3726.21 3093.12,3741.12 3103.06,3756.03 3113,3770.94 3122.94,3785.85 3132.88,3800.76 3142.82,3815.66 
  3152.76,3830.57 
  "/>
<polyline clip-path="url(#clip853)" style="stroke:#800080; stroke-linecap:butt; stroke-linejoin:round; stroke-width:12; stroke-opacity:1; fill:none" points="
  966.184,2140.95 976.123,2135.98 986.062,2131.01 996.001,2126.04 1005.94,2121.07 1015.88,2116.1 1025.82,2111.13 1035.76,2106.16 1045.7,2101.19 1055.63,2096.22 
  1065.57,2091.25 1075.51,2086.28 1085.45,2081.31 1095.39,2076.34 1105.33,2071.38 1115.27,2066.41 1125.21,2061.44 1135.15,2056.47 1145.09,2051.5 1155.02,2046.53 
  1164.96,2041.56 1174.9,2036.59 1184.84,2031.62 1194.78,2026.65 1204.72,2021.68 1214.66,2016.71 1224.6,2011.74 1234.54,2006.77 1244.48,2001.8 1254.41,1996.83 
  1264.35,1991.86 1274.29,1986.89 1284.23,1981.92 1294.17,1976.96 1304.11,1971.99 1314.05,1967.02 1323.99,1962.05 1333.93,1957.08 1343.86,1952.11 1353.8,1947.14 
  1363.74,1942.17 1373.68,1937.2 1383.62,1932.23 1393.56,1927.26 1403.5,1922.29 1413.44,1917.32 1423.38,1912.35 1433.32,1907.38 1443.25,1902.41 1453.19,1897.44 
  1463.13,1892.47 1473.07,1887.5 1483.01,1882.54 1492.95,1877.57 1502.89,1872.6 1512.83,1867.63 1522.77,1862.66 1532.7,1857.69 1542.64,1852.72 1552.58,1847.75 
  1562.52,1842.78 1572.46,1837.81 1582.4,1832.84 1592.34,1827.87 1602.28,1822.9 1612.22,1817.93 1622.16,1812.96 1632.09,1807.99 1642.03,1803.02 1651.97,1798.05 
  1661.91,1793.08 1671.85,1788.12 1681.79,1783.15 1691.73,1778.18 1701.67,1773.21 1711.61,1768.24 1721.55,1763.27 1731.48,1758.3 1741.42,1753.33 1751.36,1748.36 
  1761.3,1743.39 1771.24,1738.42 1781.18,1733.45 1791.12,1728.48 1801.06,1723.51 1811,1718.54 1820.93,1713.57 1830.87,1708.6 1840.81,1703.63 1850.75,1698.66 
  1860.69,1693.69 1870.63,1688.73 1880.57,1683.76 1890.51,1678.79 1900.45,1673.82 1910.39,1668.85 1920.32,1663.88 1930.26,1658.91 1940.2,1653.94 1950.14,1648.97 
  1960.08,1644 1970.02,1639.03 1979.96,1634.06 1989.9,1629.09 1999.84,1624.12 2009.78,1619.15 2019.71,1614.18 2029.65,1609.21 2039.59,1604.24 2049.53,1599.27 
  2059.47,1594.31 2069.41,1589.34 2079.35,1584.37 2089.29,1579.4 2099.23,1574.43 2109.16,1569.46 2119.1,1564.49 2129.04,1559.52 2138.98,1554.55 2148.92,1549.58 
  2158.86,1544.61 2168.8,1539.64 2178.74,1534.67 2188.68,1529.7 2198.62,1524.73 2208.55,1519.76 2218.49,1514.79 2228.43,1509.82 2238.37,1504.85 2248.31,1499.89 
  2258.25,1494.92 2268.19,1489.95 2278.13,1484.98 2288.07,1480.01 2298.01,1475.04 2307.94,1470.07 2317.88,1465.1 2327.82,1460.13 2337.76,1455.16 2347.7,1450.19 
  2357.64,1445.22 2367.58,1440.25 2377.52,1435.28 2387.46,1430.31 2397.39,1425.34 2407.33,1420.37 2417.27,1415.4 2427.21,1410.43 2437.15,1405.47 2447.09,1400.5 
  2457.03,1395.53 2466.97,1390.56 2476.91,1385.59 2486.85,1380.62 2496.78,1375.65 2506.72,1370.68 2516.66,1365.71 2526.6,1360.74 2536.54,1355.77 2546.48,1350.8 
  2556.42,1345.83 2566.36,1340.86 2576.3,1335.89 2586.24,1330.92 2596.17,1325.95 2606.11,1320.98 2616.05,1316.01 2625.99,1311.04 2635.93,1306.08 2645.87,1301.11 
  2655.81,1296.14 2665.75,1291.17 2675.69,1286.2 2685.62,1281.23 2695.56,1276.26 2705.5,1271.29 2715.44,1266.32 2725.38,1261.35 2735.32,1256.38 2745.26,1251.41 
  2755.2,1246.44 2765.14,1241.47 2775.08,1236.5 2785.01,1231.53 2794.95,1226.56 2804.89,1221.59 2814.83,1216.62 2824.77,1211.66 2834.71,1206.69 2844.65,1201.72 
  2854.59,1196.75 2864.53,1191.78 2874.46,1186.81 2884.4,1181.84 2894.34,1176.87 2904.28,1171.9 2914.22,1166.93 2924.16,1161.96 2934.1,1156.99 2944.04,1152.02 
  2953.98,1147.05 2963.92,1142.08 2973.85,1137.11 2983.79,1132.14 2993.73,1127.17 3003.67,1122.2 3013.61,1117.24 3023.55,1112.27 3033.49,1107.3 3043.43,1102.33 
  3053.37,1097.36 3063.31,1092.39 3073.24,1087.42 3083.18,1082.45 3093.12,1077.48 3103.06,1072.51 3113,1067.54 3122.94,1062.57 3132.88,1057.6 3142.82,1052.63 
  3152.76,1047.66 
  "/>
</svg>
