<?xml version="1.0" encoding="utf-8"?>
<svg xmlns="http://www.w3.org/2000/svg" xmlns:xlink="http://www.w3.org/1999/xlink" width="600" height="400" viewBox="0 0 2400 1600">
<defs>
  <clipPath id="clip790">
    <rect x="0" y="0" width="2400" height="1600"/>
  </clipPath>
</defs>
<path clip-path="url(#clip790)" d="
M0 1600 L2400 1600 L2400 0 L0 0  Z
  " fill="#ffffff" fill-rule="evenodd" fill-opacity="1"/>
<defs>
  <clipPath id="clip791">
    <rect x="480" y="0" width="1681" height="1600"/>
  </clipPath>
</defs>
<path clip-path="url(#clip790)" d="
M492.908 1217.33 L2352.76 1217.33 L2352.76 47.2441 L492.908 47.2441  Z
  " fill="#ffffff" fill-rule="evenodd" fill-opacity="1"/>
<defs>
  <clipPath id="clip792">
    <rect x="492" y="47" width="1861" height="1171"/>
  </clipPath>
</defs>
<polyline clip-path="url(#clip790)" style="stroke:#000000; stroke-linecap:butt; stroke-linejoin:round; stroke-width:4; stroke-opacity:1; fill:none" points="
  492.908,1217.33 2352.76,1217.33 
  "/>
<path clip-path="url(#clip790)" d="M-391.614 1352.81 L-391.614 1601.4 L-339.369 1601.4 Q-273.206 1601.4 -242.587 1571.42 Q-211.754 1541.45 -211.754 1476.78 Q-211.754 1412.55 -242.587 1382.78 Q-273.206 1352.81 -339.369 1352.81 L-391.614 1352.81 M-434.866 1317.26 L-346.007 1317.26 Q-253.079 1317.26 -209.613 1356.02 Q-166.147 1394.56 -166.147 1476.78 Q-166.147 1559.43 -209.827 1598.19 Q-253.507 1636.94 -346.007 1636.94 L-434.866 1636.94 L-434.866 1317.26 Z" fill="#000000" fill-rule="evenodd" fill-opacity="1" /><path clip-path="url(#clip790)" d="M106.213 1507.19 L106.213 1526.46 L-74.9318 1526.46 Q-72.3624 1567.14 -50.5222 1588.55 Q-28.468 1609.75 10.7159 1609.75 Q33.4125 1609.75 54.6103 1604.18 Q76.0222 1598.62 97.0059 1587.48 L97.0059 1624.74 Q75.8081 1633.73 53.5397 1638.44 Q31.2713 1643.15 8.36054 1643.15 Q-49.0234 1643.15 -82.6401 1609.75 Q-116.043 1576.35 -116.043 1519.39 Q-116.043 1460.51 -84.3531 1426.04 Q-52.4493 1391.35 1.50872 1391.35 Q49.8997 1391.35 77.9493 1422.61 Q106.213 1453.66 106.213 1507.19 M66.8151 1495.63 Q66.3868 1463.29 48.615 1444.02 Q31.0572 1424.75 1.93696 1424.75 Q-31.0374 1424.75 -50.9505 1443.38 Q-70.6495 1462.01 -73.6471 1495.84 L66.8151 1495.63 Z" fill="#000000" fill-rule="evenodd" fill-opacity="1" /><path clip-path="url(#clip790)" d="M343.457 1406.34 L343.457 1443.17 Q326.756 1433.96 309.84 1429.46 Q293.139 1424.75 276.01 1424.75 Q237.682 1424.75 216.484 1449.16 Q195.287 1473.36 195.287 1517.25 Q195.287 1561.15 216.484 1585.56 Q237.682 1609.75 276.01 1609.75 Q293.139 1609.75 309.84 1605.25 Q326.756 1600.54 343.457 1591.34 L343.457 1627.74 Q326.97 1635.45 309.198 1639.3 Q291.64 1643.15 271.727 1643.15 Q217.555 1643.15 185.651 1609.11 Q153.747 1575.06 153.747 1517.25 Q153.747 1458.58 185.865 1424.97 Q218.197 1391.35 274.297 1391.35 Q292.497 1391.35 309.84 1395.2 Q327.184 1398.84 343.457 1406.34 Z" fill="#000000" fill-rule="evenodd" fill-opacity="1" /><path clip-path="url(#clip790)" d="M411.975 1397.13 L451.373 1397.13 L451.373 1636.94 L411.975 1636.94 L411.975 1397.13 M411.975 1303.77 L451.373 1303.77 L451.373 1353.66 L411.975 1353.66 L411.975 1303.77 Z" fill="#000000" fill-rule="evenodd" fill-opacity="1" /><path clip-path="url(#clip790)" d="M686.69 1404.2 L686.69 1441.45 Q669.989 1432.89 652.003 1428.61 Q634.017 1424.32 614.746 1424.32 Q585.412 1424.32 570.638 1433.32 Q556.078 1442.31 556.078 1460.3 Q556.078 1474 566.569 1481.92 Q577.061 1489.63 608.751 1496.7 L622.24 1499.69 Q664.208 1508.69 681.765 1525.17 Q699.537 1541.45 699.537 1570.78 Q699.537 1604.18 672.987 1623.67 Q646.65 1643.15 600.4 1643.15 Q581.129 1643.15 560.146 1639.3 Q539.376 1635.66 516.251 1628.16 L516.251 1587.48 Q538.091 1598.83 559.289 1604.61 Q580.487 1610.18 601.257 1610.18 Q629.092 1610.18 644.081 1600.76 Q659.069 1591.12 659.069 1573.78 Q659.069 1557.72 648.149 1549.15 Q637.443 1540.59 600.828 1532.67 L587.125 1529.46 Q550.51 1521.75 534.237 1505.9 Q517.964 1489.84 517.964 1462.01 Q517.964 1428.18 541.946 1409.76 Q565.927 1391.35 610.036 1391.35 Q631.876 1391.35 651.146 1394.56 Q670.417 1397.77 686.69 1404.2 Z" fill="#000000" fill-rule="evenodd" fill-opacity="1" /><path clip-path="url(#clip790)" d="M762.274 1397.13 L801.672 1397.13 L801.672 1636.94 L762.274 1636.94 L762.274 1397.13 M762.274 1303.77 L801.672 1303.77 L801.672 1353.66 L762.274 1353.66 L762.274 1303.77 Z" fill="#000000" fill-rule="evenodd" fill-opacity="1" /><path clip-path="url(#clip790)" d="M977.036 1424.75 Q945.346 1424.75 926.932 1449.59 Q908.518 1474.21 908.518 1517.25 Q908.518 1560.29 926.718 1585.13 Q945.132 1609.75 977.036 1609.75 Q1008.51 1609.75 1026.93 1584.91 Q1045.34 1560.08 1045.34 1517.25 Q1045.34 1474.64 1026.93 1449.8 Q1008.51 1424.75 977.036 1424.75 M977.036 1391.35 Q1028.42 1391.35 1057.76 1424.75 Q1087.09 1458.15 1087.09 1517.25 Q1087.09 1576.13 1057.76 1609.75 Q1028.42 1643.15 977.036 1643.15 Q925.433 1643.15 896.099 1609.75 Q866.979 1576.13 866.979 1517.25 Q866.979 1458.15 896.099 1424.75 Q925.433 1391.35 977.036 1391.35 Z" fill="#000000" fill-rule="evenodd" fill-opacity="1" /><path clip-path="url(#clip790)" d="M1351.74 1492.2 L1351.74 1636.94 L1312.35 1636.94 L1312.35 1493.48 Q1312.35 1459.44 1299.07 1442.52 Q1285.8 1425.61 1259.25 1425.61 Q1227.34 1425.61 1208.93 1445.95 Q1190.51 1466.29 1190.51 1501.41 L1190.51 1636.94 L1150.9 1636.94 L1150.9 1397.13 L1190.51 1397.13 L1190.51 1434.39 Q1204.64 1412.76 1223.7 1402.06 Q1242.97 1391.35 1268.02 1391.35 Q1309.35 1391.35 1330.55 1417.04 Q1351.74 1442.52 1351.74 1492.2 Z" fill="#000000" fill-rule="evenodd" fill-opacity="1" /><path clip-path="url(#clip790)" d="M1653.87 1636.94 L1531.82 1317.26 L1577 1317.26 L1678.28 1586.41 L1779.77 1317.26 L1824.73 1317.26 L1702.9 1636.94 L1653.87 1636.94 Z" fill="#000000" fill-rule="evenodd" fill-opacity="1" /><path clip-path="url(#clip790)" d="M1944.64 1516.39 Q1896.89 1516.39 1878.48 1527.31 Q1860.06 1538.23 1860.06 1564.57 Q1860.06 1585.56 1873.77 1597.97 Q1887.68 1610.18 1911.45 1610.18 Q1944.21 1610.18 1963.91 1587.05 Q1983.82 1563.72 1983.82 1525.17 L1983.82 1516.39 L1944.64 1516.39 M2023.22 1500.12 L2023.22 1636.94 L1983.82 1636.94 L1983.82 1600.54 Q1970.33 1622.38 1950.21 1632.88 Q1930.08 1643.15 1900.96 1643.15 Q1864.13 1643.15 1842.29 1622.6 Q1820.67 1601.83 1820.67 1567.14 Q1820.67 1526.67 1847.64 1506.12 Q1874.84 1485.56 1928.58 1485.56 L1983.82 1485.56 L1983.82 1481.71 Q1983.82 1454.51 1965.84 1439.74 Q1948.07 1424.75 1915.73 1424.75 Q1895.18 1424.75 1875.69 1429.68 Q1856.21 1434.6 1838.22 1444.45 L1838.22 1408.05 Q1859.85 1399.7 1880.19 1395.63 Q1900.53 1391.35 1919.8 1391.35 Q1971.83 1391.35 1997.53 1418.33 Q2023.22 1445.31 2023.22 1500.12 Z" fill="#000000" fill-rule="evenodd" fill-opacity="1" /><path clip-path="url(#clip790)" d="M2243.34 1433.96 Q2236.7 1430.1 2228.78 1428.39 Q2221.07 1426.46 2211.65 1426.46 Q2178.24 1426.46 2160.26 1448.3 Q2142.49 1469.93 2142.49 1510.61 L2142.49 1636.94 L2102.87 1636.94 L2102.87 1397.13 L2142.49 1397.13 L2142.49 1434.39 Q2154.91 1412.55 2174.82 1402.06 Q2194.73 1391.35 2223.21 1391.35 Q2227.28 1391.35 2232.2 1391.99 Q2237.13 1392.42 2243.12 1393.49 L2243.34 1433.96 Z" fill="#000000" fill-rule="evenodd" fill-opacity="1" /><path clip-path="url(#clip790)" d="M2284.66 1397.13 L2324.06 1397.13 L2324.06 1636.94 L2284.66 1636.94 L2284.66 1397.13 M2284.66 1303.77 L2324.06 1303.77 L2324.06 1353.66 L2284.66 1353.66 L2284.66 1303.77 Z" fill="#000000" fill-rule="evenodd" fill-opacity="1" /><path clip-path="url(#clip790)" d="M2515.48 1516.39 Q2467.73 1516.39 2449.32 1527.31 Q2430.91 1538.23 2430.91 1564.57 Q2430.91 1585.56 2444.61 1597.97 Q2458.53 1610.18 2482.29 1610.18 Q2515.05 1610.18 2534.75 1587.05 Q2554.67 1563.72 2554.67 1525.17 L2554.67 1516.39 L2515.48 1516.39 M2594.06 1500.12 L2594.06 1636.94 L2554.67 1636.94 L2554.67 1600.54 Q2541.18 1622.38 2521.05 1632.88 Q2500.92 1643.15 2471.8 1643.15 Q2434.97 1643.15 2413.13 1622.6 Q2391.51 1601.83 2391.51 1567.14 Q2391.51 1526.67 2418.49 1506.12 Q2445.68 1485.56 2499.42 1485.56 L2554.67 1485.56 L2554.67 1481.71 Q2554.67 1454.51 2536.68 1439.74 Q2518.91 1424.75 2486.58 1424.75 Q2466.02 1424.75 2446.54 1429.68 Q2427.05 1434.6 2409.07 1444.45 L2409.07 1408.05 Q2430.69 1399.7 2451.03 1395.63 Q2471.37 1391.35 2490.64 1391.35 Q2542.68 1391.35 2568.37 1418.33 Q2594.06 1445.31 2594.06 1500.12 Z" fill="#000000" fill-rule="evenodd" fill-opacity="1" /><path clip-path="url(#clip790)" d="M2847.37 1517.25 Q2847.37 1473.79 2829.38 1449.16 Q2811.61 1424.32 2780.35 1424.32 Q2749.09 1424.32 2731.1 1449.16 Q2713.33 1473.79 2713.33 1517.25 Q2713.33 1560.72 2731.1 1585.56 Q2749.09 1610.18 2780.35 1610.18 Q2811.61 1610.18 2829.38 1585.56 Q2847.37 1560.72 2847.37 1517.25 M2713.33 1433.53 Q2725.75 1412.12 2744.59 1401.84 Q2763.65 1391.35 2789.98 1391.35 Q2833.66 1391.35 2860.86 1426.04 Q2888.26 1460.72 2888.26 1517.25 Q2888.26 1573.78 2860.86 1608.47 Q2833.66 1643.15 2789.98 1643.15 Q2763.65 1643.15 2744.59 1632.88 Q2725.75 1622.38 2713.33 1600.97 L2713.33 1636.94 L2673.72 1636.94 L2673.72 1303.77 L2713.33 1303.77 L2713.33 1433.53 Z" fill="#000000" fill-rule="evenodd" fill-opacity="1" /><path clip-path="url(#clip790)" d="M2953.57 1303.77 L2992.97 1303.77 L2992.97 1636.94 L2953.57 1636.94 L2953.57 1303.77 Z" fill="#000000" fill-rule="evenodd" fill-opacity="1" /><path clip-path="url(#clip790)" d="M3280.53 1507.19 L3280.53 1526.46 L3099.39 1526.46 Q3101.96 1567.14 3123.8 1588.55 Q3145.85 1609.75 3185.03 1609.75 Q3207.73 1609.75 3228.93 1604.18 Q3250.34 1598.62 3271.32 1587.48 L3271.32 1624.74 Q3250.13 1633.73 3227.86 1638.44 Q3205.59 1643.15 3182.68 1643.15 Q3125.29 1643.15 3091.68 1609.75 Q3058.27 1576.35 3058.27 1519.39 Q3058.27 1460.51 3089.96 1426.04 Q3121.87 1391.35 3175.83 1391.35 Q3224.22 1391.35 3252.27 1422.61 Q3280.53 1453.66 3280.53 1507.19 M3241.13 1495.63 Q3240.7 1463.29 3222.93 1444.02 Q3205.37 1424.75 3176.25 1424.75 Q3143.28 1424.75 3123.37 1443.38 Q3103.67 1462.01 3100.67 1495.84 L3241.13 1495.63 Z" fill="#000000" fill-rule="evenodd" fill-opacity="1" /><polyline clip-path="url(#clip790)" style="stroke:#000000; stroke-linecap:butt; stroke-linejoin:round; stroke-width:4; stroke-opacity:1; fill:none" points="
  492.908,1217.33 492.908,47.2441 
  "/>
<path clip-path="url(#clip790)" d="M34.6587 1499.79 Q34.6587 1546.9 69.7742 1574.73 Q104.89 1602.35 165.486 1602.35 Q225.867 1602.35 260.983 1574.73 Q296.098 1546.9 296.098 1499.79 Q296.098 1452.68 260.983 1425.28 Q225.867 1397.66 165.486 1397.66 Q104.89 1397.66 69.7742 1425.28 Q34.6587 1452.68 34.6587 1499.79 M-0.456873 1499.79 Q-0.456873 1432.56 44.7223 1392.3 Q89.6873 1352.05 165.486 1352.05 Q241.07 1352.05 286.249 1392.3 Q331.214 1432.56 331.214 1499.79 Q331.214 1567.24 286.249 1607.71 Q241.284 1647.96 165.486 1647.96 Q89.6873 1647.96 44.7223 1607.71 Q-0.456873 1567.24 -0.456873 1499.79 Z" fill="#000000" fill-rule="evenodd" fill-opacity="1" /><path clip-path="url(#clip790)" d="M205.312 1113.95 Q161.845 1113.95 137.222 1131.93 Q112.384 1149.71 112.384 1180.97 Q112.384 1212.23 137.222 1230.21 Q161.845 1247.99 205.312 1247.99 Q248.778 1247.99 273.616 1230.21 Q298.239 1212.23 298.239 1180.97 Q298.239 1149.71 273.616 1131.93 Q248.778 1113.95 205.312 1113.95 M121.591 1247.99 Q100.179 1235.57 89.9014 1216.72 Q79.4096 1197.67 79.4096 1171.33 Q79.4096 1127.65 114.097 1100.46 Q148.784 1073.05 205.312 1073.05 Q261.839 1073.05 296.526 1100.46 Q331.214 1127.65 331.214 1171.33 Q331.214 1197.67 320.936 1216.72 Q310.444 1235.57 289.032 1247.99 L325.004 1247.99 L325.004 1287.6 L-8.16516 1287.6 L-8.16516 1247.99 L121.591 1247.99 Z" fill="#000000" fill-rule="evenodd" fill-opacity="1" /><path clip-path="url(#clip790)" d="M85.1908 1007.74 L85.1908 968.346 L329.287 968.346 Q375.108 968.346 395.664 985.904 Q416.219 1003.25 416.219 1042 L416.219 1056.99 L382.817 1056.99 L382.817 1046.5 Q382.817 1024.02 372.325 1015.88 Q362.047 1007.74 329.287 1007.74 L85.1908 1007.74 M-8.16516 1007.74 L-8.16516 968.346 L41.7246 968.346 L41.7246 1007.74 L-8.16516 1007.74 Z" fill="#000000" fill-rule="evenodd" fill-opacity="1" /><path clip-path="url(#clip790)" d="M195.248 680.784 L214.519 680.784 L214.519 861.929 Q255.201 859.359 276.613 837.519 Q297.811 815.465 297.811 776.281 Q297.811 753.585 292.244 732.387 Q286.677 710.975 275.543 689.991 L312.8 689.991 Q321.793 711.189 326.503 733.457 Q331.214 755.726 331.214 778.636 Q331.214 836.02 297.811 869.637 Q264.409 903.04 207.453 903.04 Q148.57 903.04 114.097 871.35 Q79.4096 839.446 79.4096 785.488 Q79.4096 737.097 110.671 709.048 Q141.718 680.784 195.248 680.784 M183.686 720.182 Q151.354 720.61 132.083 738.382 Q112.812 755.94 112.812 785.06 Q112.812 818.034 131.441 837.947 Q150.069 857.646 183.9 860.644 L183.686 720.182 Z" fill="#000000" fill-rule="evenodd" fill-opacity="1" /><path clip-path="url(#clip790)" d="M94.3979 443.54 L131.226 443.54 Q122.019 460.241 117.523 477.157 Q112.812 493.858 112.812 510.987 Q112.812 549.315 137.222 570.513 Q161.417 591.71 205.312 591.71 Q249.206 591.71 273.616 570.513 Q297.811 549.315 297.811 510.987 Q297.811 493.858 293.315 477.157 Q288.604 460.241 279.397 443.54 L315.797 443.54 Q323.506 460.027 327.36 477.799 Q331.214 495.357 331.214 515.27 Q331.214 569.442 297.169 601.346 Q263.124 633.25 205.312 633.25 Q146.643 633.25 113.026 601.132 Q79.4096 568.8 79.4096 512.7 Q79.4096 494.5 83.2637 477.157 Q86.9038 459.813 94.3979 443.54 Z" fill="#000000" fill-rule="evenodd" fill-opacity="1" /><path clip-path="url(#clip790)" d="M17.1009 336.052 L85.1908 336.052 L85.1908 254.901 L115.81 254.901 L115.81 336.052 L245.994 336.052 Q275.329 336.052 283.679 328.13 Q292.03 319.993 292.03 295.369 L292.03 254.901 L325.004 254.901 L325.004 295.369 Q325.004 340.977 308.089 358.32 Q290.959 375.664 245.994 375.664 L115.81 375.664 L115.81 404.57 L85.1908 404.57 L85.1908 375.664 L17.1009 375.664 L17.1009 336.052 Z" fill="#000000" fill-rule="evenodd" fill-opacity="1" /><path clip-path="url(#clip790)" d="M85.1908 203.084 L85.1908 163.686 L325.004 163.686 L325.004 203.084 L85.1908 203.084 M-8.16516 203.084 L-8.16516 163.686 L41.7246 163.686 L41.7246 203.084 L-8.16516 203.084 Z" fill="#000000" fill-rule="evenodd" fill-opacity="1" /><path clip-path="url(#clip790)" d="M85.1908 109.514 L85.1908 67.7607 L286.463 -7.18108 L85.1908 -82.1228 L85.1908 -123.876 L325.004 -33.946 L325.004 19.5838 L85.1908 109.514 Z" fill="#000000" fill-rule="evenodd" fill-opacity="1" /><path clip-path="url(#clip790)" d="M195.248 -383.389 L214.519 -383.389 L214.519 -202.244 Q255.201 -204.813 276.613 -226.653 Q297.811 -248.708 297.811 -287.891 Q297.811 -310.588 292.244 -331.786 Q286.677 -353.198 275.543 -374.181 L312.8 -374.181 Q321.793 -352.984 326.503 -330.715 Q331.214 -308.447 331.214 -285.536 Q331.214 -228.152 297.811 -194.535 Q264.409 -161.133 207.453 -161.133 Q148.57 -161.133 114.097 -192.822 Q79.4096 -224.726 79.4096 -278.684 Q79.4096 -327.075 110.671 -355.125 Q141.718 -383.389 195.248 -383.389 M183.686 -343.991 Q151.354 -343.562 132.083 -325.79 Q112.812 -308.233 112.812 -279.112 Q112.812 -246.138 131.441 -226.225 Q150.069 -206.526 183.9 -203.528 L183.686 -343.991 Z" fill="#000000" fill-rule="evenodd" fill-opacity="1" /><polyline clip-path="url(#clip792)" style="stroke:#009af9; stroke-linecap:butt; stroke-linejoin:round; stroke-width:12; stroke-opacity:1; fill:none" points="
  492.908,-16.2747 494.975,-1.03678 497.041,14.0548 499.108,29.0008 501.174,43.8019 503.241,58.4589 505.307,72.9725 507.374,87.3433 509.44,101.572 511.507,115.66 
  513.573,129.607 515.64,143.415 517.706,157.083 519.773,170.613 521.839,184.006 523.906,197.262 525.972,210.381 528.039,223.365 530.105,236.215 532.172,248.93 
  534.238,261.513 536.305,273.962 538.371,286.28 540.438,298.466 542.504,310.522 544.571,322.449 546.637,334.246 548.704,345.915 550.77,357.456 552.837,368.871 
  554.903,380.159 556.97,391.322 559.036,402.359 561.103,413.273 563.169,424.063 565.236,434.73 567.302,445.275 569.369,455.699 571.435,466.002 573.502,476.185 
  575.568,486.249 577.635,496.194 579.701,506.021 581.768,515.73 583.834,525.323 585.901,534.8 587.967,544.162 590.034,553.408 592.1,562.541 594.167,571.561 
  596.233,580.468 598.3,589.263 600.366,597.947 602.433,606.52 604.499,614.982 606.566,623.336 608.632,631.581 610.699,639.718 612.765,647.747 614.832,655.67 
  616.898,663.486 618.965,671.198 621.031,678.804 623.098,686.306 625.164,693.705 627.231,701 629.297,708.194 631.364,715.286 633.43,722.277 635.497,729.167 
  637.563,735.958 639.63,742.65 641.696,749.243 643.763,755.739 645.829,762.137 647.896,768.439 649.962,774.645 652.029,780.755 654.095,786.771 656.162,792.693 
  658.228,798.521 660.295,804.256 662.361,809.899 664.428,815.451 666.494,820.911 668.561,826.281 670.627,831.561 672.694,836.752 674.76,841.855 676.827,846.869 
  678.893,851.796 680.96,856.637 683.026,861.391 685.093,866.059 687.159,870.642 689.226,875.141 691.292,879.557 693.359,883.888 695.425,888.138 697.492,892.305 
  699.558,896.391 701.625,900.395 703.691,904.32 705.758,908.165 707.824,911.93 709.891,915.617 711.957,919.226 714.024,922.758 716.09,926.212 718.157,929.591 
  720.223,932.893 722.29,936.121 724.356,939.274 726.423,942.352 728.489,945.358 730.556,948.29 732.622,951.15 734.689,953.938 736.755,956.655 738.822,959.302 
  740.888,961.878 742.955,964.384 745.021,966.822 747.088,969.191 749.154,971.492 751.221,973.726 753.287,975.893 755.354,977.993 757.42,980.028 759.486,981.997 
  761.553,983.902 763.619,985.743 765.686,987.52 767.752,989.234 769.819,990.885 771.885,992.474 773.952,994.002 776.018,995.468 778.085,996.875 780.151,998.221 
  782.218,999.508 784.284,1000.74 786.351,1001.91 788.417,1003.02 790.484,1004.07 792.55,1005.07 794.617,1006.01 796.683,1006.89 798.75,1007.72 800.816,1008.5 
  802.883,1009.22 804.949,1009.89 807.016,1010.5 809.082,1011.06 811.149,1011.57 813.215,1012.03 815.282,1012.43 817.348,1012.79 819.415,1013.09 821.481,1013.34 
  823.548,1013.55 825.614,1013.7 827.681,1013.81 829.747,1013.87 831.814,1013.88 833.88,1013.85 835.947,1013.77 838.013,1013.64 840.08,1013.47 842.146,1013.25 
  844.213,1012.99 846.279,1012.68 848.346,1012.33 850.412,1011.94 852.479,1011.5 854.545,1011.02 856.612,1010.5 858.678,1009.94 860.745,1009.34 862.811,1008.7 
  864.878,1008.01 866.944,1007.29 869.011,1006.53 871.077,1005.73 873.144,1004.89 875.21,1004.02 877.277,1003.1 879.343,1002.15 881.41,1001.17 883.476,1000.14 
  885.543,999.087 887.609,997.994 889.676,996.867 891.742,995.705 893.809,994.51 895.875,993.281 897.942,992.02 900.008,990.726 902.075,989.4 904.141,988.043 
  906.208,986.654 908.274,985.235 910.341,983.785 912.407,982.305 914.474,980.796 916.54,979.258 918.607,977.691 920.673,976.096 922.74,974.473 924.806,972.822 
  926.873,971.145 928.939,969.441 931.006,967.71 933.072,965.954 935.139,964.173 937.205,962.366 939.272,960.535 941.338,958.68 943.405,956.8 945.471,954.898 
  947.538,952.972 949.604,951.023 951.671,949.053 953.737,947.06 955.804,945.046 957.87,943.011 959.937,940.955 962.003,938.879 964.07,936.783 966.136,934.667 
  968.203,932.532 970.269,930.378 972.336,928.206 974.402,926.016 976.469,923.808 978.535,921.582 980.602,919.34 982.668,917.08 984.735,914.805 986.801,912.514 
  988.868,910.207 990.934,907.885 993.001,905.548 995.067,903.197 997.134,900.831 999.2,898.452 1001.27,896.059 1003.33,893.654 1005.4,891.235 1007.47,888.804 
  1009.53,886.361 1011.6,883.907 1013.67,881.441 1015.73,878.964 1017.8,876.476 1019.87,873.978 1021.93,871.47 1024,868.952 1026.06,866.425 1028.13,863.889 
  1030.2,861.344 1032.26,858.791 1034.33,856.23 1036.4,853.661 1038.46,851.085 1040.53,848.501 1042.6,845.911 1044.66,843.314 1046.73,840.711 1048.8,838.103 
  1050.86,835.489 1052.93,832.869 1055,830.245 1057.06,827.616 1059.13,824.983 1061.2,822.346 1063.26,819.705 1065.33,817.061 1067.39,814.414 1069.46,811.764 
  1071.53,809.112 1073.59,806.457 1075.66,803.8 1077.73,801.142 1079.79,798.483 1081.86,795.822 1083.93,793.161 1085.99,790.499 1088.06,787.837 1090.13,785.175 
  1092.19,782.514 1094.26,779.853 1096.33,777.193 1098.39,774.535 1100.46,771.878 1102.53,769.222 1104.59,766.569 1106.66,763.918 1108.72,761.269 1110.79,758.623 
  1112.86,755.981 1114.92,753.341 1116.99,750.705 1119.06,748.074 1121.12,745.446 1123.19,742.823 1125.26,740.204 1127.32,737.59 1129.39,734.981 1131.46,732.378 
  1133.52,729.78 1135.59,727.188 1137.66,724.602 1139.72,722.023 1141.79,719.45 1143.85,716.884 1145.92,714.325 1147.99,711.774 1150.05,709.23 1152.12,706.693 
  1154.19,704.165 1156.25,701.645 1158.32,699.134 1160.39,696.631 1162.45,694.137 1164.52,691.652 1166.59,689.177 1168.65,686.711 1170.72,684.255 1172.79,681.809 
  1174.85,679.373 1176.92,676.947 1178.99,674.533 1181.05,672.129 1183.12,669.736 1185.18,667.355 1187.25,664.985 1189.32,662.626 1191.38,660.28 1193.45,657.946 
  1195.52,655.623 1197.58,653.314 1199.65,651.017 1201.72,648.733 1203.78,646.462 1205.85,644.204 1207.92,641.96 1209.98,639.73 1212.05,637.513 1214.12,635.31 
  1216.18,633.122 1218.25,630.948 1220.32,628.788 1222.38,626.643 1224.45,624.513 1226.51,622.398 1228.58,620.299 1230.65,618.215 1232.71,616.146 1234.78,614.093 
  1236.85,612.056 1238.91,610.035 1240.98,608.031 1243.05,606.043 1245.11,604.071 1247.18,602.117 1249.25,600.179 1251.31,598.258 1253.38,596.354 1255.45,594.468 
  1257.51,592.599 1259.58,590.748 1261.65,588.915 1263.71,587.1 1265.78,585.303 1267.84,583.524 1269.91,581.763 1271.98,580.021 1274.04,578.298 1276.11,576.593 
  1278.18,574.908 1280.24,573.241 1282.31,571.594 1284.38,569.966 1286.44,568.357 1288.51,566.768 1290.58,565.199 1292.64,563.65 1294.71,562.12 1296.78,560.611 
  1298.84,559.122 1300.91,557.653 1302.98,556.204 1305.04,554.776 1307.11,553.369 1309.17,551.983 1311.24,550.617 1313.31,549.272 1315.37,547.949 1317.44,546.647 
  1319.51,545.365 1321.57,544.106 1323.64,542.868 1325.71,541.651 1327.77,540.456 1329.84,539.283 1331.91,538.132 1333.97,537.003 1336.04,535.895 1338.11,534.81 
  1340.17,533.748 1342.24,532.707 1344.31,531.689 1346.37,530.693 1348.44,529.72 1350.5,528.77 1352.57,527.842 1354.64,526.937 1356.7,526.055 1358.77,525.196 
  1360.84,524.36 1362.9,523.547 1364.97,522.757 1367.04,521.991 1369.1,521.247 1371.17,520.527 1373.24,519.831 1375.3,519.158 1377.37,518.508 1379.44,517.882 
  1381.5,517.279 1383.57,516.701 1385.64,516.146 1387.7,515.614 1389.77,515.107 1391.83,514.624 1393.9,514.164 1395.97,513.728 1398.03,513.317 1400.1,512.929 
  1402.17,512.566 1404.23,512.226 1406.3,511.911 1408.37,511.62 1410.43,511.353 1412.5,511.111 1414.57,510.893 1416.63,510.699 1418.7,510.529 1420.77,510.384 
  1422.83,510.263 1424.9,510.167 1426.97,510.094 1429.03,510.047 1431.1,510.024 1433.16,510.025 1435.23,510.051 1437.3,510.101 1439.36,510.176 1441.43,510.275 
  1443.5,510.399 1445.56,510.548 1447.63,510.721 1449.7,510.918 1451.76,511.14 1453.83,511.387 1455.9,511.658 1457.96,511.953 1460.03,512.273 1462.1,512.618 
  1464.16,512.987 1466.23,513.38 1468.3,513.798 1470.36,514.241 1472.43,514.708 1474.49,515.199 1476.56,515.715 1478.63,516.255 1480.69,516.82 1482.76,517.408 
  1484.83,518.022 1486.89,518.659 1488.96,519.321 1491.03,520.007 1493.09,520.717 1495.16,521.451 1497.23,522.209 1499.29,522.992 1501.36,523.798 1503.43,524.629 
  1505.49,525.483 1507.56,526.362 1509.63,527.264 1511.69,528.19 1513.76,529.14 1515.82,530.114 1517.89,531.111 1519.96,532.132 1522.02,533.177 1524.09,534.245 
  1526.16,535.336 1528.22,536.451 1530.29,537.589 1532.36,538.751 1534.42,539.936 1536.49,541.144 1538.56,542.374 1540.62,543.628 1542.69,544.905 1544.76,546.205 
  1546.82,547.528 1548.89,548.873 1550.95,550.241 1553.02,551.632 1555.09,553.045 1557.15,554.48 1559.22,555.938 1561.29,557.418 1563.35,558.92 1565.42,560.444 
  1567.49,561.99 1569.55,563.558 1571.62,565.148 1573.69,566.759 1575.75,568.392 1577.82,570.047 1579.89,571.723 1581.95,573.42 1584.02,575.139 1586.09,576.878 
  1588.15,578.639 1590.22,580.42 1592.28,582.222 1594.35,584.045 1596.42,585.888 1598.48,587.752 1600.55,589.636 1602.62,591.541 1604.68,593.465 1606.75,595.409 
  1608.82,597.373 1610.88,599.357 1612.95,601.361 1615.02,603.384 1617.08,605.426 1619.15,607.487 1621.22,609.568 1623.28,611.667 1625.35,613.785 1627.42,615.922 
  1629.48,618.078 1631.55,620.252 1633.61,622.444 1635.68,624.654 1637.75,626.882 1639.81,629.128 1641.88,631.392 1643.95,633.673 1646.01,635.971 1648.08,638.287 
  1650.15,640.62 1652.21,642.969 1654.28,645.336 1656.35,647.719 1658.41,650.118 1660.48,652.534 1662.55,654.966 1664.61,657.413 1666.68,659.877 1668.75,662.356 
  1670.81,664.85 1672.88,667.36 1674.94,669.885 1677.01,672.425 1679.08,674.979 1681.14,677.548 1683.21,680.132 1685.28,682.729 1687.34,685.341 1689.41,687.967 
  1691.48,690.606 1693.54,693.258 1695.61,695.924 1697.68,698.603 1699.74,701.295 1701.81,703.999 1703.88,706.716 1705.94,709.445 1708.01,712.187 1710.08,714.94 
  1712.14,717.705 1714.21,720.481 1716.27,723.269 1718.34,726.068 1720.41,728.877 1722.47,731.698 1724.54,734.528 1726.61,737.369 1728.67,740.22 1730.74,743.081 
  1732.81,745.951 1734.87,748.831 1736.94,751.72 1739.01,754.618 1741.07,757.524 1743.14,760.439 1745.21,763.362 1747.27,766.293 1749.34,769.232 1751.41,772.179 
  1753.47,775.132 1755.54,778.093 1757.6,781.061 1759.67,784.035 1761.74,787.016 1763.8,790.003 1765.87,792.995 1767.94,795.994 1770,798.997 1772.07,802.006 
  1774.14,805.02 1776.2,808.038 1778.27,811.061 1780.34,814.087 1782.4,817.118 1784.47,820.152 1786.54,823.19 1788.6,826.231 1790.67,829.274 1792.74,832.32 
  1794.8,835.368 1796.87,838.419 1798.93,841.471 1801,844.524 1803.07,847.579 1805.13,850.635 1807.2,853.691 1809.27,856.748 1811.33,859.805 1813.4,862.861 
  1815.47,865.918 1817.53,868.973 1819.6,872.027 1821.67,875.081 1823.73,878.132 1825.8,881.182 1827.87,884.229 1829.93,887.274 1832,890.316 1834.07,893.355 
  1836.13,896.391 1838.2,899.423 1840.26,902.451 1842.33,905.474 1844.4,908.493 1846.46,911.508 1848.53,914.517 1850.6,917.52 1852.66,920.518 1854.73,923.509 
  1856.8,926.495 1858.86,929.473 1860.93,932.444 1863,935.408 1865.06,938.364 1867.13,941.312 1869.2,944.252 1871.26,947.183 1873.33,950.105 1875.4,953.018 
  1877.46,955.92 1879.53,958.813 1881.59,961.696 1883.66,964.568 1885.73,967.429 1887.79,970.278 1889.86,973.116 1891.93,975.942 1893.99,978.755 1896.06,981.556 
  1898.13,984.343 1900.19,987.118 1902.26,989.878 1904.33,992.624 1906.39,995.356 1908.46,998.073 1910.53,1000.77 1912.59,1003.46 1914.66,1006.13 1916.72,1008.79 
  1918.79,1011.42 1920.86,1014.04 1922.92,1016.65 1924.99,1019.23 1927.06,1021.8 1929.12,1024.35 1931.19,1026.88 1933.26,1029.39 1935.32,1031.88 1937.39,1034.35 
  1939.46,1036.8 1941.52,1039.23 1943.59,1041.64 1945.66,1044.03 1947.72,1046.39 1949.79,1048.74 1951.86,1051.06 1953.92,1053.35 1955.99,1055.63 1958.05,1057.88 
  1960.12,1060.1 
  "/>
<polyline clip-path="url(#clip792)" style="stroke:#800080; stroke-linecap:butt; stroke-linejoin:round; stroke-width:12; stroke-opacity:1; fill:none" stroke-dasharray="48, 30" points="
  1960.12,1060.1 1962.19,1062.31 1964.25,1064.48 1966.32,1066.63 1968.39,1068.76 1970.45,1070.86 1972.52,1072.93 1974.59,1074.98 1976.65,1076.99 1978.72,1078.98 
  1980.79,1080.95 1982.85,1082.88 1984.92,1084.78 1986.99,1086.66 1989.05,1088.5 1991.12,1090.32 1993.19,1092.1 1995.25,1093.85 1997.32,1095.57 1999.38,1097.26 
  2001.45,1098.92 2003.52,1100.54 2005.58,1102.13 2007.65,1103.69 2009.72,1105.21 2011.78,1106.7 2013.85,1108.15 2015.92,1109.57 2017.98,1110.95 2020.05,1112.29 
  2022.12,1113.6 2024.18,1114.87 2026.25,1116.1 2028.32,1117.3 2030.38,1118.46 2032.45,1119.57 2034.52,1120.65 2036.58,1121.69 2038.65,1122.69 2040.71,1123.64 
  2042.78,1124.56 2044.85,1125.43 2046.91,1126.26 2048.98,1127.05 2051.05,1127.79 2053.11,1128.5 2055.18,1129.15 2057.25,1129.77 2059.31,1130.33 2061.38,1130.86 
  2063.45,1131.33 2065.51,1131.76 2067.58,1132.15 2069.65,1132.48 2071.71,1132.77 2073.78,1133.01 2075.85,1133.2 2077.91,1133.34 2079.98,1133.43 2082.04,1133.47 
  2084.11,1133.46 2086.18,1133.4 2088.24,1133.28 2090.31,1133.12 2092.38,1132.9 2094.44,1132.63 2096.51,1132.3 2098.58,1131.92 2100.64,1131.49 2102.71,1131 
  2104.78,1130.45 2106.84,1129.85 2108.91,1129.19 2110.98,1128.47 2113.04,1127.7 2115.11,1126.86 2117.18,1125.97 2119.24,1125.02 2121.31,1124.01 2123.37,1122.94 
  2125.44,1121.8 2127.51,1120.61 2129.57,1119.35 2131.64,1118.04 2133.71,1116.65 2135.77,1115.21 2137.84,1113.7 2139.91,1112.12 2141.97,1110.48 2144.04,1108.78 
  2146.11,1107.01 2148.17,1105.17 2150.24,1103.26 2152.31,1101.29 2154.37,1099.24 2156.44,1097.13 2158.51,1094.95 2160.57,1092.7 2162.64,1090.38 2164.7,1087.98 
  2166.77,1085.52 2168.84,1082.98 2170.9,1080.37 2172.97,1077.69 2175.04,1074.93 2177.1,1072.1 2179.17,1069.19 2181.24,1066.21 2183.3,1063.15 2185.37,1060.01 
  2187.44,1056.8 2189.5,1053.5 2191.57,1050.13 2193.64,1046.68 2195.7,1043.15 2197.77,1039.54 2199.84,1035.85 2201.9,1032.08 2203.97,1028.23 2206.03,1024.29 
  2208.1,1020.27 2210.17,1016.16 2212.23,1011.98 2214.3,1007.7 2216.37,1003.34 2218.43,998.898 2220.5,994.366 2222.57,989.746 2224.63,985.039 2226.7,980.243 
  2228.77,975.357 2230.83,970.382 2232.9,965.317 2234.97,960.16 2237.03,954.912 2239.1,949.571 2241.17,944.138 2243.23,938.611 2245.3,932.99 2247.36,927.275 
  2249.43,921.464 2251.5,915.557 2253.56,909.554 2255.63,903.453 2257.7,897.255 2259.76,890.958 2261.83,884.562 2263.9,878.066 2265.96,871.47 2268.03,864.773 
  2270.1,857.974 2272.16,851.074 2274.23,844.07 2276.3,836.963 2278.36,829.751 2280.43,822.435 2282.49,815.013 2284.56,807.486 2286.63,799.851 2288.69,792.109 
  2290.76,784.259 2292.83,776.3 2294.89,768.232 2296.96,760.054 2299.03,751.766 2301.09,743.366 2303.16,734.854 2305.23,726.229 2307.29,717.491 2309.36,708.639 
  2311.43,699.672 2313.49,690.59 2315.56,681.392 2317.63,672.077 2319.69,662.645 2321.76,653.095 2323.82,643.427 2325.89,633.639 2327.96,623.731 2330.02,613.702 
  2332.09,603.551 2334.16,593.279 2336.22,582.884 2338.29,572.365 2340.36,561.722 2342.42,550.955 2344.49,540.061 2346.56,529.042 2348.62,517.896 2350.69,506.621 
  2352.76,495.219 
  "/>
<polyline clip-path="url(#clip792)" style="stroke:#ffa500; stroke-linecap:butt; stroke-linejoin:round; stroke-width:20; stroke-opacity:1; fill:none" points="
  1960.12,2387.41 1960.12,-1122.84 
  "/>
<circle clip-path="url(#clip792)" cx="831.814" cy="1013.88" r="28.8" fill="#0000ff" fill-rule="evenodd" fill-opacity="1" stroke="#000000" stroke-opacity="1" stroke-width="3.2"/>
<circle clip-path="url(#clip792)" cx="1960.12" cy="1060.1" r="43.2" fill="#ff0000" fill-rule="evenodd" fill-opacity="1" stroke="#000000" stroke-opacity="1" stroke-width="3.2"/>
<path clip-path="url(#clip790)" d="
M-1530.75 1174.89 L2290.76 1174.89 L2290.76 86.2469 L-1530.75 86.2469  Z
  " fill="#ffffff" fill-rule="evenodd" fill-opacity="1"/>
<polyline clip-path="url(#clip790)" style="stroke:#000000; stroke-linecap:butt; stroke-linejoin:round; stroke-width:4; stroke-opacity:1; fill:none" points="
  -1530.75,1174.89 2290.76,1174.89 2290.76,86.2469 -1530.75,86.2469 -1530.75,1174.89 
  "/>
<path clip-path="url(#clip790)" d="M-1365.43 328.167 L-1332.7 328.167 L-1332.7 542.541 L-1214.9 542.541 L-1214.9 570.087 L-1365.43 570.087 L-1365.43 328.167 Z" fill="#000000" fill-rule="evenodd" fill-opacity="1" /><path clip-path="url(#clip790)" d="M-1117.36 409.509 Q-1141.34 409.509 -1155.27 428.305 Q-1169.21 446.939 -1169.21 479.509 Q-1169.21 512.078 -1155.43 530.874 Q-1141.5 549.508 -1117.36 549.508 Q-1093.54 549.508 -1079.6 530.712 Q-1065.67 511.916 -1065.67 479.509 Q-1065.67 447.263 -1079.6 428.467 Q-1093.54 409.509 -1117.36 409.509 M-1117.36 384.231 Q-1078.47 384.231 -1056.27 409.509 Q-1034.07 434.787 -1034.07 479.509 Q-1034.07 524.069 -1056.27 549.508 Q-1078.47 574.786 -1117.36 574.786 Q-1156.41 574.786 -1178.61 549.508 Q-1200.64 524.069 -1200.64 479.509 Q-1200.64 434.787 -1178.61 409.509 Q-1156.41 384.231 -1117.36 384.231 Z" fill="#000000" fill-rule="evenodd" fill-opacity="1" /><path clip-path="url(#clip790)" d="M-854.048 395.574 L-854.048 423.444 Q-866.687 416.477 -879.487 413.074 Q-892.126 409.509 -905.089 409.509 Q-934.094 409.509 -950.135 427.981 Q-966.177 446.291 -966.177 479.509 Q-966.177 512.726 -950.135 531.198 Q-934.094 549.508 -905.089 549.508 Q-892.126 549.508 -879.487 546.106 Q-866.687 542.541 -854.048 535.573 L-854.048 563.119 Q-866.524 568.953 -879.973 571.869 Q-893.26 574.786 -908.33 574.786 Q-949.325 574.786 -973.468 549.022 Q-997.612 523.258 -997.612 479.509 Q-997.612 435.111 -973.306 409.671 Q-948.839 384.231 -906.385 384.231 Q-892.612 384.231 -879.487 387.148 Q-866.362 389.903 -854.048 395.574 Z" fill="#000000" fill-rule="evenodd" fill-opacity="1" /><path clip-path="url(#clip790)" d="M-719.72 478.861 Q-755.854 478.861 -769.789 487.124 Q-783.724 495.388 -783.724 515.319 Q-783.724 531.198 -773.354 540.596 Q-762.821 549.832 -744.835 549.832 Q-720.044 549.832 -705.136 532.332 Q-690.067 514.671 -690.067 485.504 L-690.067 478.861 L-719.72 478.861 M-660.252 466.546 L-660.252 570.087 L-690.067 570.087 L-690.067 542.541 Q-700.275 559.068 -715.507 567.008 Q-730.738 574.786 -752.775 574.786 Q-780.645 574.786 -797.173 559.23 Q-813.539 543.513 -813.539 517.263 Q-813.539 486.638 -793.122 471.083 Q-772.544 455.527 -731.872 455.527 L-690.067 455.527 L-690.067 452.611 Q-690.067 432.032 -703.678 420.852 Q-717.127 409.509 -741.595 409.509 Q-757.15 409.509 -771.895 413.236 Q-786.641 416.963 -800.252 424.416 L-800.252 396.87 Q-783.886 390.551 -768.493 387.472 Q-753.099 384.231 -738.516 384.231 Q-699.141 384.231 -679.697 404.648 Q-660.252 425.065 -660.252 466.546 Z" fill="#000000" fill-rule="evenodd" fill-opacity="1" /><path clip-path="url(#clip790)" d="M-598.841 317.959 L-569.026 317.959 L-569.026 570.087 L-598.841 570.087 L-598.841 317.959 Z" fill="#000000" fill-rule="evenodd" fill-opacity="1" /><path clip-path="url(#clip790)" d="M-301.666 350.366 Q-337.314 350.366 -358.379 376.94 Q-379.282 403.514 -379.282 449.37 Q-379.282 495.064 -358.379 521.638 Q-337.314 548.212 -301.666 548.212 Q-266.018 548.212 -245.278 521.638 Q-224.375 495.064 -224.375 449.37 Q-224.375 403.514 -245.278 376.94 Q-266.018 350.366 -301.666 350.366 M-301.666 323.792 Q-250.787 323.792 -220.324 357.982 Q-189.861 392.009 -189.861 449.37 Q-189.861 506.569 -220.324 540.758 Q-250.787 574.786 -301.666 574.786 Q-352.708 574.786 -383.333 540.758 Q-413.795 506.731 -413.795 449.37 Q-413.795 392.009 -383.333 357.982 Q-352.708 323.792 -301.666 323.792 Z" fill="#000000" fill-rule="evenodd" fill-opacity="1" /><path clip-path="url(#clip790)" d="M-111.112 542.865 L-111.112 639.114 L-141.089 639.114 L-141.089 388.606 L-111.112 388.606 L-111.112 416.153 Q-101.714 399.949 -87.4546 392.171 Q-73.0334 384.231 -53.1029 384.231 Q-20.0475 384.231 0.531055 410.481 Q21.2717 436.731 21.2717 479.509 Q21.2717 522.286 0.531055 548.536 Q-20.0475 574.786 -53.1029 574.786 Q-73.0334 574.786 -87.4546 567.008 Q-101.714 559.068 -111.112 542.865 M-9.67722 479.509 Q-9.67722 446.615 -23.2883 427.981 Q-36.7373 409.185 -60.3945 409.185 Q-84.0518 409.185 -97.6629 427.981 Q-111.112 446.615 -111.112 479.509 Q-111.112 512.402 -97.6629 531.198 Q-84.0518 549.832 -60.3945 549.832 Q-36.7373 549.832 -23.2883 531.198 Q-9.67722 512.402 -9.67722 479.509 Z" fill="#000000" fill-rule="evenodd" fill-opacity="1" /><path clip-path="url(#clip790)" d="M100.183 337.079 L100.183 388.606 L161.595 388.606 L161.595 411.778 L100.183 411.778 L100.183 510.296 Q100.183 532.494 106.179 538.814 Q112.336 545.133 130.97 545.133 L161.595 545.133 L161.595 570.087 L130.97 570.087 Q96.4565 570.087 83.3315 557.286 Q70.2066 544.323 70.2066 510.296 L70.2066 411.778 L48.3317 411.778 L48.3317 388.606 L70.2066 388.606 L70.2066 337.079 L100.183 337.079 Z" fill="#000000" fill-rule="evenodd" fill-opacity="1" /><path clip-path="url(#clip790)" d="M200.808 388.606 L230.622 388.606 L230.622 570.087 L200.808 570.087 L200.808 388.606 M200.808 317.959 L230.622 317.959 L230.622 355.713 L200.808 355.713 L200.808 317.959 Z" fill="#000000" fill-rule="evenodd" fill-opacity="1" /><path clip-path="url(#clip790)" d="M434.302 423.444 Q445.482 403.352 461.038 393.792 Q476.593 384.231 497.658 384.231 Q526.014 384.231 541.408 404.162 Q556.801 423.93 556.801 460.55 L556.801 570.087 L526.825 570.087 L526.825 461.523 Q526.825 435.435 517.588 422.796 Q508.352 410.157 489.394 410.157 Q466.223 410.157 452.774 425.551 Q439.325 440.944 439.325 467.518 L439.325 570.087 L409.348 570.087 L409.348 461.523 Q409.348 435.273 400.112 422.796 Q390.876 410.157 371.594 410.157 Q348.747 410.157 335.298 425.713 Q321.849 441.106 321.849 467.518 L321.849 570.087 L291.872 570.087 L291.872 388.606 L321.849 388.606 L321.849 416.801 Q332.057 400.111 346.316 392.171 Q360.575 384.231 380.182 384.231 Q399.95 384.231 413.723 394.278 Q427.658 404.324 434.302 423.444 Z" fill="#000000" fill-rule="evenodd" fill-opacity="1" /><path clip-path="url(#clip790)" d="M613.19 498.467 L613.19 388.606 L643.004 388.606 L643.004 497.333 Q643.004 523.096 653.051 536.059 Q663.097 548.86 683.189 548.86 Q707.333 548.86 721.268 533.467 Q735.365 518.073 735.365 491.499 L735.365 388.606 L765.18 388.606 L765.18 570.087 L735.365 570.087 L735.365 542.217 Q724.509 558.744 710.087 566.846 Q695.828 574.786 676.87 574.786 Q645.597 574.786 629.393 555.342 Q613.19 535.897 613.19 498.467 M688.213 384.231 L688.213 384.231 Z" fill="#000000" fill-rule="evenodd" fill-opacity="1" /><path clip-path="url(#clip790)" d="M967.887 423.444 Q979.067 403.352 994.623 393.792 Q1010.18 384.231 1031.24 384.231 Q1059.6 384.231 1074.99 404.162 Q1090.39 423.93 1090.39 460.55 L1090.39 570.087 L1060.41 570.087 L1060.41 461.523 Q1060.41 435.435 1051.17 422.796 Q1041.94 410.157 1022.98 410.157 Q999.808 410.157 986.359 425.551 Q972.91 440.944 972.91 467.518 L972.91 570.087 L942.933 570.087 L942.933 461.523 Q942.933 435.273 933.697 422.796 Q924.461 410.157 905.179 410.157 Q882.332 410.157 868.883 425.713 Q855.434 441.106 855.434 467.518 L855.434 570.087 L825.457 570.087 L825.457 388.606 L855.434 388.606 L855.434 416.801 Q865.642 400.111 879.901 392.171 Q894.161 384.231 913.767 384.231 Q933.535 384.231 947.308 394.278 Q961.243 404.324 967.887 423.444 Z" fill="#000000" fill-rule="evenodd" fill-opacity="1" /><path clip-path="url(#clip790)" d="M-1170.34 709.681 L-1170.34 744.195 Q-1186.87 728.801 -1205.67 721.186 Q-1224.3 713.57 -1245.37 713.57 Q-1286.85 713.57 -1308.88 739.01 Q-1330.92 764.287 -1330.92 812.25 Q-1330.92 860.051 -1308.88 885.49 Q-1286.85 910.768 -1245.37 910.768 Q-1224.3 910.768 -1205.67 903.152 Q-1186.87 895.537 -1170.34 880.143 L-1170.34 914.333 Q-1187.52 925.999 -1206.8 931.833 Q-1225.92 937.666 -1247.31 937.666 Q-1302.24 937.666 -1333.84 904.124 Q-1365.43 870.421 -1365.43 812.25 Q-1365.43 753.917 -1333.84 720.375 Q-1302.24 686.672 -1247.31 686.672 Q-1225.6 686.672 -1206.48 692.505 Q-1187.19 698.176 -1170.34 709.681 Z" fill="#000000" fill-rule="evenodd" fill-opacity="1" /><path clip-path="url(#clip790)" d="M-1050.76 772.389 Q-1074.74 772.389 -1088.68 791.185 Q-1102.61 809.819 -1102.61 842.389 Q-1102.61 874.958 -1088.84 893.754 Q-1074.9 912.388 -1050.76 912.388 Q-1026.94 912.388 -1013.01 893.592 Q-999.07 874.796 -999.07 842.389 Q-999.07 810.143 -1013.01 791.347 Q-1026.94 772.389 -1050.76 772.389 M-1050.76 747.111 Q-1011.87 747.111 -989.672 772.389 Q-967.473 797.667 -967.473 842.389 Q-967.473 886.949 -989.672 912.388 Q-1011.87 937.666 -1050.76 937.666 Q-1089.81 937.666 -1112.01 912.388 Q-1134.05 886.949 -1134.05 842.389 Q-1134.05 797.667 -1112.01 772.389 Q-1089.81 747.111 -1050.76 747.111 Z" fill="#000000" fill-rule="evenodd" fill-opacity="1" /><path clip-path="url(#clip790)" d="M-767.196 823.43 L-767.196 932.967 L-797.011 932.967 L-797.011 824.403 Q-797.011 798.639 -807.057 785.838 Q-817.103 773.037 -837.196 773.037 Q-861.339 773.037 -875.274 788.431 Q-889.21 803.824 -889.21 830.398 L-889.21 932.967 L-919.186 932.967 L-919.186 751.486 L-889.21 751.486 L-889.21 779.681 Q-878.515 763.315 -864.094 755.213 Q-849.511 747.111 -830.552 747.111 Q-799.279 747.111 -783.238 766.556 Q-767.196 785.838 -767.196 823.43 Z" fill="#000000" fill-rule="evenodd" fill-opacity="1" /><path clip-path="url(#clip790)" d="M-592.035 756.834 L-592.035 785.028 Q-604.674 778.546 -618.285 775.306 Q-631.896 772.065 -646.479 772.065 Q-668.678 772.065 -679.859 778.87 Q-690.877 785.676 -690.877 799.287 Q-690.877 809.657 -682.938 815.653 Q-674.998 821.486 -651.016 826.833 L-640.808 829.102 Q-609.049 835.907 -595.762 848.384 Q-582.313 860.699 -582.313 882.898 Q-582.313 908.175 -602.406 922.921 Q-622.336 937.666 -657.336 937.666 Q-671.919 937.666 -687.799 934.749 Q-703.516 931.995 -721.016 926.323 L-721.016 895.537 Q-704.488 904.124 -688.447 908.499 Q-672.405 912.712 -656.688 912.712 Q-635.623 912.712 -624.28 905.583 Q-612.938 898.291 -612.938 885.166 Q-612.938 873.014 -621.202 866.532 Q-629.304 860.051 -657.012 854.055 L-667.382 851.625 Q-695.09 845.791 -707.405 833.801 Q-719.72 821.648 -719.72 800.583 Q-719.72 774.982 -701.572 761.047 Q-683.424 747.111 -650.044 747.111 Q-633.516 747.111 -618.933 749.542 Q-604.35 751.972 -592.035 756.834 Z" fill="#000000" fill-rule="evenodd" fill-opacity="1" /><path clip-path="url(#clip790)" d="M-505.346 699.959 L-505.346 751.486 L-443.934 751.486 L-443.934 774.658 L-505.346 774.658 L-505.346 873.176 Q-505.346 895.374 -499.351 901.694 Q-493.193 908.013 -474.559 908.013 L-443.934 908.013 L-443.934 932.967 L-474.559 932.967 Q-509.073 932.967 -522.198 920.166 Q-535.323 907.203 -535.323 873.176 L-535.323 774.658 L-557.197 774.658 L-557.197 751.486 L-535.323 751.486 L-535.323 699.959 L-505.346 699.959 Z" fill="#000000" fill-rule="evenodd" fill-opacity="1" /><path clip-path="url(#clip790)" d="M-299.56 779.357 Q-304.583 776.44 -310.578 775.144 Q-316.412 773.685 -323.541 773.685 Q-348.819 773.685 -362.43 790.213 Q-375.879 806.579 -375.879 837.366 L-375.879 932.967 L-405.856 932.967 L-405.856 751.486 L-375.879 751.486 L-375.879 779.681 Q-366.481 763.153 -351.412 755.213 Q-336.342 747.111 -314.791 747.111 Q-311.713 747.111 -307.986 747.598 Q-304.259 747.922 -299.722 748.732 L-299.56 779.357 Z" fill="#000000" fill-rule="evenodd" fill-opacity="1" /><path clip-path="url(#clip790)" d="M-185.811 841.741 Q-221.945 841.741 -235.88 850.004 Q-249.815 858.268 -249.815 878.199 Q-249.815 894.078 -239.445 903.476 Q-228.912 912.712 -210.926 912.712 Q-186.135 912.712 -171.227 895.212 Q-156.158 877.551 -156.158 848.384 L-156.158 841.741 L-185.811 841.741 M-126.343 829.426 L-126.343 932.967 L-156.158 932.967 L-156.158 905.421 Q-166.366 921.948 -181.598 929.888 Q-196.829 937.666 -218.866 937.666 Q-246.736 937.666 -263.264 922.11 Q-279.629 906.393 -279.629 880.143 Q-279.629 849.518 -259.213 833.963 Q-238.634 818.407 -197.963 818.407 L-156.158 818.407 L-156.158 815.491 Q-156.158 794.912 -169.769 783.732 Q-183.218 772.389 -207.685 772.389 Q-223.241 772.389 -237.986 776.116 Q-252.731 779.843 -266.343 787.296 L-266.343 759.75 Q-249.977 753.431 -234.583 750.352 Q-219.19 747.111 -204.607 747.111 Q-165.232 747.111 -145.788 767.528 Q-126.343 787.945 -126.343 829.426 Z" fill="#000000" fill-rule="evenodd" fill-opacity="1" /><path clip-path="url(#clip790)" d="M-64.9316 751.486 L-35.1169 751.486 L-35.1169 932.967 L-64.9316 932.967 L-64.9316 751.486 M-64.9316 680.839 L-35.1169 680.839 L-35.1169 718.593 L-64.9316 718.593 L-64.9316 680.839 Z" fill="#000000" fill-rule="evenodd" fill-opacity="1" /><path clip-path="url(#clip790)" d="M178.123 823.43 L178.123 932.967 L148.308 932.967 L148.308 824.403 Q148.308 798.639 138.262 785.838 Q128.216 773.037 108.123 773.037 Q83.9797 773.037 70.0446 788.431 Q56.1095 803.824 56.1095 830.398 L56.1095 932.967 L26.1328 932.967 L26.1328 751.486 L56.1095 751.486 L56.1095 779.681 Q66.8038 763.315 81.2251 755.213 Q95.8083 747.111 114.767 747.111 Q146.04 747.111 162.081 766.556 Q178.123 785.838 178.123 823.43 Z" fill="#000000" fill-rule="evenodd" fill-opacity="1" /><path clip-path="url(#clip790)" d="M392.821 834.773 L392.821 849.356 L255.738 849.356 Q257.682 880.143 274.21 896.347 Q290.9 912.388 320.552 912.388 Q337.728 912.388 353.77 908.175 Q369.974 903.962 385.853 895.537 L385.853 923.731 Q369.811 930.536 352.96 934.101 Q336.108 937.666 318.77 937.666 Q275.344 937.666 249.905 912.388 Q224.627 887.111 224.627 844.009 Q224.627 799.449 248.608 773.361 Q272.752 747.111 313.585 747.111 Q350.205 747.111 371.432 770.769 Q392.821 794.264 392.821 834.773 M363.006 826.023 Q362.682 801.556 349.233 786.972 Q335.946 772.389 313.909 772.389 Q288.955 772.389 273.886 786.486 Q258.979 800.583 256.71 826.185 L363.006 826.023 Z" fill="#000000" fill-rule="evenodd" fill-opacity="1" /><path clip-path="url(#clip790)" d="M561.176 779.033 L561.176 680.839 L590.991 680.839 L590.991 932.967 L561.176 932.967 L561.176 905.745 Q551.778 921.948 537.357 929.888 Q523.098 937.666 503.005 937.666 Q470.112 937.666 449.371 911.416 Q428.793 885.166 428.793 842.389 Q428.793 799.611 449.371 773.361 Q470.112 747.111 503.005 747.111 Q523.098 747.111 537.357 755.051 Q551.778 762.829 561.176 779.033 M459.58 842.389 Q459.58 875.282 473.029 894.078 Q486.64 912.712 510.297 912.712 Q533.954 912.712 547.565 894.078 Q561.176 875.282 561.176 842.389 Q561.176 809.495 547.565 790.861 Q533.954 772.065 510.297 772.065 Q486.64 772.065 473.029 790.861 Q459.58 809.495 459.58 842.389 Z" fill="#000000" fill-rule="evenodd" fill-opacity="1" /><path clip-path="url(#clip790)" d="M857.378 713.246 Q821.73 713.246 800.666 739.82 Q779.763 766.394 779.763 812.25 Q779.763 857.944 800.666 884.518 Q821.73 911.092 857.378 911.092 Q893.026 911.092 913.767 884.518 Q934.67 857.944 934.67 812.25 Q934.67 766.394 913.767 739.82 Q893.026 713.246 857.378 713.246 M857.378 686.672 Q908.258 686.672 938.72 720.862 Q969.183 754.889 969.183 812.25 Q969.183 869.449 938.72 903.638 Q908.258 937.666 857.378 937.666 Q806.337 937.666 775.712 903.638 Q745.249 869.611 745.249 812.25 Q745.249 754.889 775.712 720.862 Q806.337 686.672 857.378 686.672 Z" fill="#000000" fill-rule="evenodd" fill-opacity="1" /><path clip-path="url(#clip790)" d="M1047.93 905.745 L1047.93 1001.99 L1017.96 1001.99 L1017.96 751.486 L1047.93 751.486 L1047.93 779.033 Q1057.33 762.829 1071.59 755.051 Q1086.01 747.111 1105.94 747.111 Q1139 747.111 1159.58 773.361 Q1180.32 799.611 1180.32 842.389 Q1180.32 885.166 1159.58 911.416 Q1139 937.666 1105.94 937.666 Q1086.01 937.666 1071.59 929.888 Q1057.33 921.948 1047.93 905.745 M1149.37 842.389 Q1149.37 809.495 1135.76 790.861 Q1122.31 772.065 1098.65 772.065 Q1074.99 772.065 1061.38 790.861 Q1047.93 809.495 1047.93 842.389 Q1047.93 875.282 1061.38 894.078 Q1074.99 912.712 1098.65 912.712 Q1122.31 912.712 1135.76 894.078 Q1149.37 875.282 1149.37 842.389 Z" fill="#000000" fill-rule="evenodd" fill-opacity="1" /><path clip-path="url(#clip790)" d="M1259.23 699.959 L1259.23 751.486 L1320.64 751.486 L1320.64 774.658 L1259.23 774.658 L1259.23 873.176 Q1259.23 895.374 1265.22 901.694 Q1271.38 908.013 1290.01 908.013 L1320.64 908.013 L1320.64 932.967 L1290.01 932.967 Q1255.5 932.967 1242.38 920.166 Q1229.25 907.203 1229.25 873.176 L1229.25 774.658 L1207.38 774.658 L1207.38 751.486 L1229.25 751.486 L1229.25 699.959 L1259.23 699.959 Z" fill="#000000" fill-rule="evenodd" fill-opacity="1" /><path clip-path="url(#clip790)" d="M1359.85 751.486 L1389.67 751.486 L1389.67 932.967 L1359.85 932.967 L1359.85 751.486 M1359.85 680.839 L1389.67 680.839 L1389.67 718.593 L1359.85 718.593 L1359.85 680.839 Z" fill="#000000" fill-rule="evenodd" fill-opacity="1" /><path clip-path="url(#clip790)" d="M1593.35 786.324 Q1604.53 766.232 1620.08 756.672 Q1635.64 747.111 1656.7 747.111 Q1685.06 747.111 1700.45 767.042 Q1715.85 786.81 1715.85 823.43 L1715.85 932.967 L1685.87 932.967 L1685.87 824.403 Q1685.87 798.315 1676.63 785.676 Q1667.4 773.037 1648.44 773.037 Q1625.27 773.037 1611.82 788.431 Q1598.37 803.824 1598.37 830.398 L1598.37 932.967 L1568.39 932.967 L1568.39 824.403 Q1568.39 798.153 1559.16 785.676 Q1549.92 773.037 1530.64 773.037 Q1507.79 773.037 1494.34 788.593 Q1480.89 803.986 1480.89 830.398 L1480.89 932.967 L1450.92 932.967 L1450.92 751.486 L1480.89 751.486 L1480.89 779.681 Q1491.1 762.991 1505.36 755.051 Q1519.62 747.111 1539.23 747.111 Q1558.99 747.111 1572.77 757.158 Q1586.7 767.204 1593.35 786.324 Z" fill="#000000" fill-rule="evenodd" fill-opacity="1" /><path clip-path="url(#clip790)" d="M1772.23 861.347 L1772.23 751.486 L1802.05 751.486 L1802.05 860.213 Q1802.05 885.976 1812.1 898.939 Q1822.14 911.74 1842.23 911.74 Q1866.38 911.74 1880.31 896.347 Q1894.41 880.953 1894.41 854.379 L1894.41 751.486 L1924.22 751.486 L1924.22 932.967 L1894.41 932.967 L1894.41 905.097 Q1883.55 921.624 1869.13 929.726 Q1854.87 937.666 1835.91 937.666 Q1804.64 937.666 1788.44 918.222 Q1772.23 898.777 1772.23 861.347 M1847.26 747.111 L1847.26 747.111 Z" fill="#000000" fill-rule="evenodd" fill-opacity="1" /><path clip-path="url(#clip790)" d="M2126.93 786.324 Q2138.11 766.232 2153.67 756.672 Q2169.22 747.111 2190.29 747.111 Q2218.64 747.111 2234.04 767.042 Q2249.43 786.81 2249.43 823.43 L2249.43 932.967 L2219.45 932.967 L2219.45 824.403 Q2219.45 798.315 2210.22 785.676 Q2200.98 773.037 2182.02 773.037 Q2158.85 773.037 2145.4 788.431 Q2131.95 803.824 2131.95 830.398 L2131.95 932.967 L2101.98 932.967 L2101.98 824.403 Q2101.98 798.153 2092.74 785.676 Q2083.51 773.037 2064.22 773.037 Q2041.38 773.037 2027.93 788.593 Q2014.48 803.986 2014.48 830.398 L2014.48 932.967 L1984.5 932.967 L1984.5 751.486 L2014.48 751.486 L2014.48 779.681 Q2024.69 762.991 2038.95 755.051 Q2053.21 747.111 2072.81 747.111 Q2092.58 747.111 2106.35 757.158 Q2120.29 767.204 2126.93 786.324 Z" fill="#000000" fill-rule="evenodd" fill-opacity="1" /></svg>
