<?xml version="1.0" encoding="utf-8"?>
<svg xmlns="http://www.w3.org/2000/svg" xmlns:xlink="http://www.w3.org/1999/xlink" width="600" height="400" viewBox="0 0 2400 1600">
<defs>
  <clipPath id="clip520">
    <rect x="0" y="0" width="2400" height="1600"/>
  </clipPath>
</defs>
<path clip-path="url(#clip520)" d="
M0 1600 L2400 1600 L2400 0 L0 0  Z
  " fill="#ffffff" fill-rule="evenodd" fill-opacity="1"/>
<defs>
  <clipPath id="clip521">
    <rect x="480" y="0" width="1681" height="1600"/>
  </clipPath>
</defs>
<path clip-path="url(#clip520)" d="
M613.868 1096.37 L2352.76 1096.37 L2352.76 47.2441 L613.868 47.2441  Z
  " fill="#ffffff" fill-rule="evenodd" fill-opacity="1"/>
<defs>
  <clipPath id="clip522">
    <rect x="613" y="47" width="1740" height="1050"/>
  </clipPath>
</defs>
<polyline clip-path="url(#clip520)" style="stroke:#000000; stroke-linecap:butt; stroke-linejoin:round; stroke-width:4; stroke-opacity:1; fill:none" points="
  613.868,1096.37 2352.76,1096.37 
  "/>
<path clip-path="url(#clip520)" d="M-1017.68 1269.49 L-1017.68 1612.14 L-945.668 1612.14 Q-854.47 1612.14 -812.266 1570.82 Q-769.766 1529.5 -769.766 1440.37 Q-769.766 1351.83 -812.266 1310.81 Q-854.47 1269.49 -945.668 1269.49 L-1017.68 1269.49 M-1077.3 1220.5 L-954.817 1220.5 Q-826.728 1220.5 -766.815 1273.92 Q-706.902 1327.04 -706.902 1440.37 Q-706.902 1554.3 -767.11 1607.72 Q-827.318 1661.14 -954.817 1661.14 L-1077.3 1661.14 L-1077.3 1220.5 Z" fill="#000000" fill-rule="evenodd" fill-opacity="1" /><path clip-path="url(#clip520)" d="M-331.487 1482.28 L-331.487 1508.85 L-581.173 1508.85 Q-577.632 1564.92 -547.528 1594.43 Q-517.129 1623.65 -463.118 1623.65 Q-431.834 1623.65 -402.615 1615.98 Q-373.102 1608.31 -344.178 1592.96 L-344.178 1644.31 Q-373.397 1656.71 -404.091 1663.2 Q-434.785 1669.69 -466.365 1669.69 Q-545.462 1669.69 -591.798 1623.65 Q-637.84 1577.61 -637.84 1499.11 Q-637.84 1417.94 -594.159 1370.43 Q-550.184 1322.61 -475.809 1322.61 Q-409.108 1322.61 -370.445 1365.7 Q-331.487 1408.5 -331.487 1482.28 M-385.792 1466.35 Q-386.383 1421.78 -410.879 1395.22 Q-435.08 1368.65 -475.219 1368.65 Q-520.67 1368.65 -548.118 1394.33 Q-575.271 1420.01 -579.403 1466.64 L-385.792 1466.35 Z" fill="#000000" fill-rule="evenodd" fill-opacity="1" /><path clip-path="url(#clip520)" d="M-4.47504 1343.27 L-4.47504 1394.04 Q-27.4958 1381.35 -50.8116 1375.15 Q-73.8323 1368.65 -97.4433 1368.65 Q-150.273 1368.65 -179.491 1402.3 Q-208.71 1435.65 -208.71 1496.15 Q-208.71 1556.66 -179.491 1590.3 Q-150.273 1623.65 -97.4433 1623.65 Q-73.8323 1623.65 -50.8116 1617.46 Q-27.4958 1610.96 -4.47504 1598.27 L-4.47504 1648.44 Q-27.2006 1659.07 -51.697 1664.38 Q-75.8983 1669.69 -103.346 1669.69 Q-178.016 1669.69 -221.991 1622.77 Q-265.967 1575.84 -265.967 1496.15 Q-265.967 1415.29 -221.696 1368.95 Q-177.13 1322.61 -99.8044 1322.61 Q-74.7177 1322.61 -50.8116 1327.93 Q-26.9055 1332.94 -4.47504 1343.27 Z" fill="#000000" fill-rule="evenodd" fill-opacity="1" /><path clip-path="url(#clip520)" d="M89.9689 1330.58 L144.274 1330.58 L144.274 1661.14 L89.9689 1661.14 L89.9689 1330.58 M89.9689 1201.9 L144.274 1201.9 L144.274 1270.67 L89.9689 1270.67 L89.9689 1201.9 Z" fill="#000000" fill-rule="evenodd" fill-opacity="1" /><path clip-path="url(#clip520)" d="M468.63 1340.32 L468.63 1391.68 Q445.609 1379.87 420.818 1373.97 Q396.026 1368.06 369.464 1368.06 Q329.03 1368.06 308.666 1380.46 Q288.596 1392.86 288.596 1417.65 Q288.596 1436.54 303.058 1447.46 Q317.52 1458.08 361.2 1467.82 L379.794 1471.95 Q437.641 1484.35 461.842 1507.07 Q486.338 1529.5 486.338 1569.94 Q486.338 1615.98 449.741 1642.84 Q413.439 1669.69 349.69 1669.69 Q323.127 1669.69 294.204 1664.38 Q265.576 1659.37 233.701 1649.04 L233.701 1592.96 Q263.805 1608.6 293.023 1616.57 Q322.242 1624.24 350.87 1624.24 Q389.238 1624.24 409.898 1611.26 Q430.557 1597.98 430.557 1574.07 Q430.557 1551.94 415.505 1540.13 Q400.748 1528.32 350.28 1517.4 L331.391 1512.98 Q280.923 1502.35 258.492 1480.51 Q236.062 1458.38 236.062 1420.01 Q236.062 1373.38 269.117 1348 Q302.173 1322.61 362.971 1322.61 Q393.075 1322.61 419.637 1327.04 Q446.2 1331.47 468.63 1340.32 Z" fill="#000000" fill-rule="evenodd" fill-opacity="1" /><path clip-path="url(#clip520)" d="M572.814 1330.58 L627.119 1330.58 L627.119 1661.14 L572.814 1661.14 L572.814 1330.58 M572.814 1201.9 L627.119 1201.9 L627.119 1270.67 L572.814 1270.67 L572.814 1201.9 Z" fill="#000000" fill-rule="evenodd" fill-opacity="1" /><path clip-path="url(#clip520)" d="M868.836 1368.65 Q825.156 1368.65 799.774 1402.89 Q774.392 1436.83 774.392 1496.15 Q774.392 1555.48 799.479 1589.71 Q824.861 1623.65 868.836 1623.65 Q912.221 1623.65 937.603 1589.42 Q962.985 1555.18 962.985 1496.15 Q962.985 1437.42 937.603 1403.19 Q912.221 1368.65 868.836 1368.65 M868.836 1322.61 Q939.669 1322.61 980.103 1368.65 Q1020.54 1414.7 1020.54 1496.15 Q1020.54 1577.32 980.103 1623.65 Q939.669 1669.69 868.836 1669.69 Q797.708 1669.69 757.274 1623.65 Q717.136 1577.32 717.136 1496.15 Q717.136 1414.7 757.274 1368.65 Q797.708 1322.61 868.836 1322.61 Z" fill="#000000" fill-rule="evenodd" fill-opacity="1" /><path clip-path="url(#clip520)" d="M1385.33 1461.62 L1385.33 1661.14 L1331.02 1661.14 L1331.02 1463.39 Q1331.02 1416.47 1312.72 1393.15 Q1294.42 1369.84 1257.83 1369.84 Q1213.85 1369.84 1188.47 1397.87 Q1163.09 1425.91 1163.09 1474.31 L1163.09 1661.14 L1108.49 1661.14 L1108.49 1330.58 L1163.09 1330.58 L1163.09 1381.94 Q1182.57 1352.13 1208.83 1337.37 Q1235.4 1322.61 1269.93 1322.61 Q1326.89 1322.61 1356.11 1358.03 Q1385.33 1393.15 1385.33 1461.62 Z" fill="#000000" fill-rule="evenodd" fill-opacity="1" /><path clip-path="url(#clip520)" d="M1801.77 1661.14 L1633.54 1220.5 L1695.81 1220.5 L1835.41 1591.48 L1975.31 1220.5 L2037.28 1220.5 L1869.35 1661.14 L1801.77 1661.14 Z" fill="#000000" fill-rule="evenodd" fill-opacity="1" /><path clip-path="url(#clip520)" d="M2202.56 1494.97 Q2136.75 1494.97 2111.36 1510.03 Q2085.98 1525.08 2085.98 1561.38 Q2085.98 1590.3 2104.87 1607.42 Q2124.06 1624.24 2156.82 1624.24 Q2201.97 1624.24 2229.12 1592.37 Q2256.57 1560.2 2256.57 1507.07 L2256.57 1494.97 L2202.56 1494.97 M2310.88 1472.54 L2310.88 1661.14 L2256.57 1661.14 L2256.57 1610.96 Q2237.98 1641.07 2210.24 1655.53 Q2182.49 1669.69 2142.35 1669.69 Q2091.59 1669.69 2061.49 1641.36 Q2031.68 1612.73 2031.68 1564.92 Q2031.68 1509.14 2068.86 1480.81 Q2106.35 1452.47 2180.43 1452.47 L2256.57 1452.47 L2256.57 1447.16 Q2256.57 1409.68 2231.78 1389.31 Q2207.28 1368.65 2162.72 1368.65 Q2134.39 1368.65 2107.53 1375.44 Q2080.67 1382.23 2055.88 1395.81 L2055.88 1345.63 Q2085.69 1334.12 2113.73 1328.52 Q2141.76 1322.61 2168.33 1322.61 Q2240.04 1322.61 2275.46 1359.8 Q2310.88 1396.99 2310.88 1472.54 Z" fill="#000000" fill-rule="evenodd" fill-opacity="1" /><path clip-path="url(#clip520)" d="M2614.28 1381.35 Q2605.13 1376.03 2594.21 1373.67 Q2583.58 1371.02 2570.6 1371.02 Q2524.56 1371.02 2499.77 1401.12 Q2475.27 1430.93 2475.27 1487 L2475.27 1661.14 L2420.67 1661.14 L2420.67 1330.58 L2475.27 1330.58 L2475.27 1381.94 Q2492.39 1351.83 2519.83 1337.37 Q2547.28 1322.61 2586.54 1322.61 Q2592.14 1322.61 2598.93 1323.5 Q2605.72 1324.09 2613.98 1325.56 L2614.28 1381.35 Z" fill="#000000" fill-rule="evenodd" fill-opacity="1" /><path clip-path="url(#clip520)" d="M2671.24 1330.58 L2725.55 1330.58 L2725.55 1661.14 L2671.24 1661.14 L2671.24 1330.58 M2671.24 1201.9 L2725.55 1201.9 L2725.55 1270.67 L2671.24 1270.67 L2671.24 1201.9 Z" fill="#000000" fill-rule="evenodd" fill-opacity="1" /><path clip-path="url(#clip520)" d="M2989.4 1494.97 Q2923.58 1494.97 2898.2 1510.03 Q2872.82 1525.08 2872.82 1561.38 Q2872.82 1590.3 2891.71 1607.42 Q2910.89 1624.24 2943.65 1624.24 Q2988.81 1624.24 3015.96 1592.37 Q3043.41 1560.2 3043.41 1507.07 L3043.41 1494.97 L2989.4 1494.97 M3097.71 1472.54 L3097.71 1661.14 L3043.41 1661.14 L3043.41 1610.96 Q3024.81 1641.07 2997.07 1655.53 Q2969.33 1669.69 2929.19 1669.69 Q2878.43 1669.69 2848.32 1641.36 Q2818.51 1612.73 2818.51 1564.92 Q2818.51 1509.14 2855.7 1480.81 Q2893.18 1452.47 2967.26 1452.47 L3043.41 1452.47 L3043.41 1447.16 Q3043.41 1409.68 3018.62 1389.31 Q2994.12 1368.65 2949.55 1368.65 Q2921.22 1368.65 2894.36 1375.44 Q2867.51 1382.23 2842.71 1395.81 L2842.71 1345.63 Q2872.52 1334.12 2900.56 1328.52 Q2928.6 1322.61 2955.16 1322.61 Q3026.88 1322.61 3062.3 1359.8 Q3097.71 1396.99 3097.71 1472.54 Z" fill="#000000" fill-rule="evenodd" fill-opacity="1" /><path clip-path="url(#clip520)" d="M3446.86 1496.15 Q3446.86 1436.24 3422.07 1402.3 Q3397.57 1368.06 3354.48 1368.06 Q3311.39 1368.06 3286.6 1402.3 Q3262.1 1436.24 3262.1 1496.15 Q3262.1 1556.07 3286.6 1590.3 Q3311.39 1624.24 3354.48 1624.24 Q3397.57 1624.24 3422.07 1590.3 Q3446.86 1556.07 3446.86 1496.15 M3262.1 1380.76 Q3279.22 1351.24 3305.19 1337.08 Q3331.46 1322.61 3367.76 1322.61 Q3427.97 1322.61 3465.45 1370.43 Q3503.23 1418.24 3503.23 1496.15 Q3503.23 1574.07 3465.45 1621.88 Q3427.97 1669.69 3367.76 1669.69 Q3331.46 1669.69 3305.19 1655.53 Q3279.22 1641.07 3262.1 1611.55 L3262.1 1661.14 L3207.5 1661.14 L3207.5 1201.9 L3262.1 1201.9 L3262.1 1380.76 Z" fill="#000000" fill-rule="evenodd" fill-opacity="1" /><path clip-path="url(#clip520)" d="M3593.25 1201.9 L3647.55 1201.9 L3647.55 1661.14 L3593.25 1661.14 L3593.25 1201.9 Z" fill="#000000" fill-rule="evenodd" fill-opacity="1" /><path clip-path="url(#clip520)" d="M4043.92 1482.28 L4043.92 1508.85 L3794.24 1508.85 Q3797.78 1564.92 3827.88 1594.43 Q3858.28 1623.65 3912.29 1623.65 Q3943.58 1623.65 3972.8 1615.98 Q4002.31 1608.31 4031.23 1592.96 L4031.23 1644.31 Q4002.01 1656.71 3971.32 1663.2 Q3940.63 1669.69 3909.05 1669.69 Q3829.95 1669.69 3783.61 1623.65 Q3737.57 1577.61 3737.57 1499.11 Q3737.57 1417.94 3781.25 1370.43 Q3825.23 1322.61 3899.6 1322.61 Q3966.3 1322.61 4004.97 1365.7 Q4043.92 1408.5 4043.92 1482.28 M3989.62 1466.35 Q3989.03 1421.78 3964.53 1395.22 Q3940.33 1368.65 3900.19 1368.65 Q3854.74 1368.65 3827.29 1394.33 Q3800.14 1420.01 3796.01 1466.64 L3989.62 1466.35 Z" fill="#000000" fill-rule="evenodd" fill-opacity="1" /><polyline clip-path="url(#clip520)" style="stroke:#000000; stroke-linecap:butt; stroke-linejoin:round; stroke-width:4; stroke-opacity:1; fill:none" points="
  613.868,1096.37 613.868,47.2441 
  "/>
<path clip-path="url(#clip520)" d="M9.47016 1767.55 Q9.47016 1832.48 57.8727 1870.85 Q106.275 1908.93 189.799 1908.93 Q273.028 1908.93 321.43 1870.85 Q369.833 1832.48 369.833 1767.55 Q369.833 1702.62 321.43 1664.85 Q273.028 1626.77 189.799 1626.77 Q106.275 1626.77 57.8727 1664.85 Q9.47016 1702.62 9.47016 1767.55 M-38.9324 1767.55 Q-38.9324 1674.88 23.3416 1619.4 Q85.3204 1563.91 189.799 1563.91 Q293.983 1563.91 356.256 1619.4 Q418.235 1674.88 418.235 1767.55 Q418.235 1860.52 356.256 1916.3 Q294.278 1971.79 189.799 1971.79 Q85.3204 1971.79 23.3416 1916.3 Q-38.9324 1860.52 -38.9324 1767.55 Z" fill="#000000" fill-rule="evenodd" fill-opacity="1" /><path clip-path="url(#clip520)" d="M244.695 1235.72 Q184.782 1235.72 150.841 1260.51 Q116.605 1285.01 116.605 1328.1 Q116.605 1371.19 150.841 1395.98 Q184.782 1420.47 244.695 1420.47 Q304.607 1420.47 338.843 1395.98 Q372.784 1371.19 372.784 1328.1 Q372.784 1285.01 338.843 1260.51 Q304.607 1235.72 244.695 1235.72 M129.296 1420.47 Q99.7822 1403.36 85.6156 1377.38 Q71.1539 1351.12 71.1539 1314.81 Q71.1539 1254.61 118.966 1217.12 Q166.778 1179.35 244.695 1179.35 Q322.611 1179.35 370.423 1217.12 Q418.235 1254.61 418.235 1314.81 Q418.235 1351.12 404.069 1377.38 Q389.607 1403.36 360.093 1420.47 L409.676 1420.47 L409.676 1475.07 L-49.5573 1475.07 L-49.5573 1420.47 L129.296 1420.47 Z" fill="#000000" fill-rule="evenodd" fill-opacity="1" /><path clip-path="url(#clip520)" d="M79.1226 1089.33 L79.1226 1035.02 L415.579 1035.02 Q478.738 1035.02 507.072 1059.23 Q535.405 1083.13 535.405 1136.55 L535.405 1157.21 L489.363 1157.21 L489.363 1142.75 Q489.363 1111.76 474.902 1100.54 Q460.735 1089.33 415.579 1089.33 L79.1226 1089.33 M-49.5573 1089.33 L-49.5573 1035.02 L19.2097 1035.02 L19.2097 1089.33 L-49.5573 1089.33 Z" fill="#000000" fill-rule="evenodd" fill-opacity="1" /><path clip-path="url(#clip520)" d="M230.823 638.655 L257.385 638.655 L257.385 888.341 Q313.462 884.799 342.975 854.695 Q372.194 824.296 372.194 770.286 Q372.194 739.001 364.52 709.783 Q356.847 680.269 341.5 651.345 L392.854 651.345 Q405.249 680.564 411.742 711.258 Q418.235 741.953 418.235 773.532 Q418.235 852.629 372.194 898.966 Q326.152 945.007 247.646 945.007 Q166.483 945.007 118.966 901.327 Q71.1539 857.351 71.1539 782.977 Q71.1539 716.276 114.244 677.613 Q157.039 638.655 230.823 638.655 M214.886 692.96 Q170.32 693.55 143.758 718.047 Q117.195 742.248 117.195 782.386 Q117.195 827.838 142.872 855.285 Q168.549 882.438 215.181 886.57 L214.886 692.96 Z" fill="#000000" fill-rule="evenodd" fill-opacity="1" /><path clip-path="url(#clip520)" d="M91.8135 311.642 L142.577 311.642 Q129.886 334.663 123.688 357.979 Q117.195 381 117.195 404.611 Q117.195 457.44 150.841 486.659 Q184.191 515.877 244.695 515.877 Q305.198 515.877 338.843 486.659 Q372.194 457.44 372.194 404.611 Q372.194 381 365.996 357.979 Q359.503 334.663 346.812 311.642 L396.985 311.642 Q407.61 334.368 412.923 358.864 Q418.235 383.066 418.235 410.513 Q418.235 485.183 371.308 529.159 Q324.382 573.134 244.695 573.134 Q163.827 573.134 117.49 528.864 Q71.1539 484.298 71.1539 406.972 Q71.1539 381.885 76.4663 357.979 Q81.4837 334.073 91.8135 311.642 Z" fill="#000000" fill-rule="evenodd" fill-opacity="1" /><path clip-path="url(#clip520)" d="M-14.7311 163.484 L79.1226 163.484 L79.1226 51.6265 L121.327 51.6265 L121.327 163.484 L300.771 163.484 Q341.204 163.484 352.715 152.563 Q364.225 141.348 364.225 107.407 L364.225 51.6265 L409.676 51.6265 L409.676 107.407 Q409.676 170.272 386.36 194.178 Q362.75 218.084 300.771 218.084 L121.327 218.084 L121.327 257.927 L79.1226 257.927 L79.1226 218.084 L-14.7311 218.084 L-14.7311 163.484 Z" fill="#000000" fill-rule="evenodd" fill-opacity="1" /><path clip-path="url(#clip520)" d="M79.1226 -19.7967 L79.1226 -74.102 L409.676 -74.102 L409.676 -19.7967 L79.1226 -19.7967 M-49.5573 -19.7967 L-49.5573 -74.102 L19.2097 -74.102 L19.2097 -19.7967 L-49.5573 -19.7967 Z" fill="#000000" fill-rule="evenodd" fill-opacity="1" /><path clip-path="url(#clip520)" d="M79.1226 -148.772 L79.1226 -206.324 L356.552 -309.622 L79.1226 -412.92 L79.1226 -470.471 L409.676 -346.514 L409.676 -272.729 L79.1226 -148.772 Z" fill="#000000" fill-rule="evenodd" fill-opacity="1" /><path clip-path="url(#clip520)" d="M230.823 -828.178 L257.385 -828.178 L257.385 -578.492 Q313.462 -582.033 342.975 -612.137 Q372.194 -642.536 372.194 -696.547 Q372.194 -727.831 364.52 -757.05 Q356.847 -786.563 341.5 -815.487 L392.854 -815.487 Q405.249 -786.268 411.742 -755.574 Q418.235 -724.88 418.235 -693.3 Q418.235 -614.203 372.194 -567.867 Q326.152 -521.825 247.646 -521.825 Q166.483 -521.825 118.966 -565.506 Q71.1539 -609.481 71.1539 -683.856 Q71.1539 -750.557 114.244 -789.22 Q157.039 -828.178 230.823 -828.178 M214.886 -773.873 Q170.32 -773.282 143.758 -748.786 Q117.195 -724.585 117.195 -684.446 Q117.195 -638.995 142.872 -611.547 Q168.549 -584.394 215.181 -580.262 L214.886 -773.873 Z" fill="#000000" fill-rule="evenodd" fill-opacity="1" /><polyline clip-path="url(#clip522)" style="stroke:#009af9; stroke-linecap:butt; stroke-linejoin:round; stroke-width:12; stroke-opacity:1; fill:none" points="
  613.868,-9.70834 615.8,3.95436 617.733,17.4858 619.665,30.8867 621.597,44.1578 623.529,57.2995 625.461,70.3127 627.393,83.198 629.325,95.956 631.257,108.587 
  633.189,121.093 635.121,133.473 637.054,145.728 638.986,157.86 640.918,169.868 642.85,181.753 644.782,193.517 646.714,205.159 648.646,216.68 650.578,228.081 
  652.51,239.362 654.442,250.525 656.374,261.569 658.307,272.496 660.239,283.305 662.171,293.999 664.103,304.577 666.035,315.039 667.967,325.388 669.899,335.622 
  671.831,345.743 673.763,355.752 675.695,365.648 677.628,375.434 679.56,385.108 681.492,394.673 683.424,404.128 685.356,413.474 687.288,422.712 689.22,431.842 
  691.152,440.866 693.084,449.783 695.016,458.594 696.949,467.299 698.881,475.901 700.813,484.398 702.745,492.792 704.677,501.083 706.609,509.271 708.541,517.359 
  710.473,525.345 712.405,533.231 714.337,541.016 716.27,548.703 718.202,556.291 720.134,563.781 722.066,571.174 723.998,578.469 725.93,585.669 727.862,592.773 
  729.794,599.781 731.726,606.695 733.658,613.515 735.59,620.242 737.523,626.875 739.455,633.417 741.387,639.867 743.319,646.225 745.251,652.494 747.183,658.672 
  749.115,664.761 751.047,670.761 752.979,676.672 754.911,682.497 756.844,688.233 758.776,693.884 760.708,699.448 762.64,704.927 764.572,710.321 766.504,715.63 
  768.436,720.856 770.368,725.998 772.3,731.058 774.232,736.036 776.165,740.932 778.097,745.747 780.029,750.481 781.961,755.135 783.893,759.71 785.825,764.206 
  787.757,768.624 789.689,772.964 791.621,777.226 793.553,781.412 795.485,785.522 797.418,789.556 799.35,793.514 801.282,797.399 803.214,801.208 805.146,804.945 
  807.078,808.608 809.01,812.199 810.942,815.718 812.874,819.165 814.806,822.541 816.739,825.847 818.671,829.083 820.603,832.249 822.535,835.347 824.467,838.376 
  826.399,841.337 828.331,844.231 830.263,847.058 832.195,849.819 834.127,852.513 836.06,855.142 837.992,857.707 839.924,860.207 841.856,862.643 843.788,865.016 
  845.72,867.326 847.652,869.573 849.584,871.759 851.516,873.883 853.448,875.946 855.381,877.949 857.313,879.892 859.245,881.775 861.177,883.599 863.109,885.365 
  865.041,887.073 866.973,888.723 868.905,890.317 870.837,891.853 872.769,893.334 874.701,894.759 876.634,896.129 878.566,897.444 880.498,898.705 882.43,899.912 
  884.362,901.065 886.294,902.166 888.226,903.215 890.158,904.212 892.09,905.157 894.022,906.051 895.955,906.895 897.887,907.689 899.819,908.433 901.751,909.128 
  903.683,909.774 905.615,910.372 907.547,910.922 909.479,911.425 911.411,911.88 913.343,912.29 915.276,912.653 917.208,912.971 919.14,913.243 921.072,913.471 
  923.004,913.655 924.936,913.795 926.868,913.891 928.8,913.944 930.732,913.955 932.664,913.924 934.596,913.851 936.529,913.737 938.461,913.582 940.393,913.387 
  942.325,913.151 944.257,912.876 946.189,912.562 948.121,912.21 950.053,911.819 951.985,911.39 953.917,910.923 955.85,910.42 957.782,909.88 959.714,909.303 
  961.646,908.691 963.578,908.043 965.51,907.361 967.442,906.644 969.374,905.892 971.306,905.107 973.238,904.288 975.171,903.437 977.103,902.552 979.035,901.636 
  980.967,900.688 982.899,899.708 984.831,898.697 986.763,897.656 988.695,896.584 990.627,895.483 992.559,894.352 994.492,893.192 996.424,892.003 998.356,890.786 
  1000.29,889.541 1002.22,888.268 1004.15,886.968 1006.08,885.641 1008.02,884.288 1009.95,882.909 1011.88,881.504 1013.81,880.074 1015.74,878.619 1017.68,877.139 
  1019.61,875.635 1021.54,874.107 1023.47,872.555 1025.41,870.981 1027.34,869.383 1029.27,867.763 1031.2,866.121 1033.13,864.458 1035.07,862.773 1037,861.067 
  1038.93,859.34 1040.86,857.593 1042.79,855.826 1044.73,854.04 1046.66,852.234 1048.59,850.409 1050.52,848.566 1052.45,846.704 1054.39,844.825 1056.32,842.928 
  1058.25,841.014 1060.18,839.082 1062.11,837.135 1064.05,835.171 1065.98,833.191 1067.91,831.195 1069.84,829.185 1071.78,827.159 1073.71,825.119 1075.64,823.065 
  1077.57,820.996 1079.5,818.914 1081.44,816.819 1083.37,814.711 1085.3,812.59 1087.23,810.457 1089.16,808.311 1091.1,806.154 1093.03,803.986 1094.96,801.806 
  1096.89,799.616 1098.82,797.415 1100.76,795.204 1102.69,792.983 1104.62,790.752 1106.55,788.513 1108.49,786.264 1110.42,784.006 1112.35,781.741 1114.28,779.467 
  1116.21,777.185 1118.15,774.896 1120.08,772.599 1122.01,770.296 1123.94,767.986 1125.87,765.669 1127.81,763.347 1129.74,761.019 1131.67,758.685 1133.6,756.346 
  1135.53,754.002 1137.47,751.654 1139.4,749.301 1141.33,746.944 1143.26,744.583 1145.2,742.218 1147.13,739.851 1149.06,737.48 1150.99,735.106 1152.92,732.73 
  1154.86,730.352 1156.79,727.972 1158.72,725.59 1160.65,723.206 1162.58,720.822 1164.52,718.436 1166.45,716.05 1168.38,713.664 1170.31,711.277 1172.24,708.89 
  1174.18,706.504 1176.11,704.118 1178.04,701.733 1179.97,699.349 1181.9,696.967 1183.84,694.586 1185.77,692.207 1187.7,689.83 1189.63,687.455 1191.57,685.083 
  1193.5,682.713 1195.43,680.347 1197.36,677.984 1199.29,675.624 1201.23,673.268 1203.16,670.916 1205.09,668.568 1207.02,666.224 1208.95,663.885 1210.89,661.551 
  1212.82,659.221 1214.75,656.897 1216.68,654.579 1218.61,652.266 1220.55,649.959 1222.48,647.659 1224.41,645.364 1226.34,643.077 1228.28,640.796 1230.21,638.521 
  1232.14,636.255 1234.07,633.995 1236,631.743 1237.94,629.499 1239.87,627.263 1241.8,625.035 1243.73,622.815 1245.66,620.604 1247.6,618.402 1249.53,616.209 
  1251.46,614.025 1253.39,611.85 1255.32,609.685 1257.26,607.53 1259.19,605.385 1261.12,603.249 1263.05,601.124 1264.99,599.01 1266.92,596.906 1268.85,594.813 
  1270.78,592.731 1272.71,590.66 1274.65,588.601 1276.58,586.553 1278.51,584.517 1280.44,582.492 1282.37,580.48 1284.31,578.48 1286.24,576.493 1288.17,574.518 
  1290.1,572.555 1292.03,570.606 1293.97,568.67 1295.9,566.746 1297.83,564.837 1299.76,562.94 1301.69,561.058 1303.63,559.189 1305.56,557.334 1307.49,555.494 
  1309.42,553.668 1311.36,551.856 1313.29,550.058 1315.22,548.276 1317.15,546.508 1319.08,544.755 1321.02,543.018 1322.95,541.296 1324.88,539.589 1326.81,537.898 
  1328.74,536.222 1330.68,534.562 1332.61,532.919 1334.54,531.291 1336.47,529.68 1338.4,528.085 1340.34,526.506 1342.27,524.944 1344.2,523.399 1346.13,521.871 
  1348.07,520.359 1350,518.865 1351.93,517.388 1353.86,515.928 1355.79,514.486 1357.73,513.061 1359.66,511.654 1361.59,510.265 1363.52,508.894 1365.45,507.54 
  1367.39,506.205 1369.32,504.888 1371.25,503.589 1373.18,502.309 1375.11,501.047 1377.05,499.804 1378.98,498.58 1380.91,497.374 1382.84,496.187 1384.78,495.02 
  1386.71,493.871 1388.64,492.742 1390.57,491.631 1392.5,490.541 1394.44,489.469 1396.37,488.417 1398.3,487.385 1400.23,486.373 1402.16,485.38 1404.1,484.407 
  1406.03,483.454 1407.96,482.521 1409.89,481.608 1411.82,480.716 1413.76,479.843 1415.69,478.991 1417.62,478.159 1419.55,477.348 1421.49,476.557 1423.42,475.787 
  1425.35,475.037 1427.28,474.308 1429.21,473.6 1431.15,472.913 1433.08,472.246 1435.01,471.601 1436.94,470.976 1438.87,470.372 1440.81,469.79 1442.74,469.229 
  1444.67,468.689 1446.6,468.17 1448.53,467.672 1450.47,467.196 1452.4,466.741 1454.33,466.307 1456.26,465.895 1458.19,465.505 1460.13,465.135 1462.06,464.788 
  1463.99,464.462 1465.92,464.158 1467.86,463.875 1469.79,463.614 1471.72,463.375 1473.65,463.158 1475.58,462.962 1477.52,462.788 1479.45,462.636 1481.38,462.506 
  1483.31,462.397 1485.24,462.311 1487.18,462.246 1489.11,462.204 1491.04,462.183 1492.97,462.184 1494.9,462.207 1496.84,462.252 1498.77,462.32 1500.7,462.409 
  1502.63,462.52 1504.57,462.653 1506.5,462.808 1508.43,462.985 1510.36,463.184 1512.29,463.405 1514.23,463.648 1516.16,463.913 1518.09,464.2 1520.02,464.509 
  1521.95,464.84 1523.89,465.193 1525.82,465.567 1527.75,465.964 1529.68,466.383 1531.61,466.823 1533.55,467.286 1535.48,467.77 1537.41,468.276 1539.34,468.804 
  1541.28,469.354 1543.21,469.925 1545.14,470.519 1547.07,471.134 1549,471.77 1550.94,472.429 1552.87,473.109 1554.8,473.81 1556.73,474.534 1558.66,475.278 
  1560.6,476.044 1562.53,476.832 1564.46,477.641 1566.39,478.471 1568.32,479.323 1570.26,480.196 1572.19,481.09 1574.12,482.006 1576.05,482.942 1577.98,483.9 
  1579.92,484.879 1581.85,485.878 1583.78,486.899 1585.71,487.94 1587.65,489.003 1589.58,490.086 1591.51,491.189 1593.44,492.314 1595.37,493.459 1597.31,494.624 
  1599.24,495.81 1601.17,497.016 1603.1,498.243 1605.03,499.489 1606.97,500.756 1608.9,502.043 1610.83,503.35 1612.76,504.677 1614.69,506.024 1616.63,507.391 
  1618.56,508.777 1620.49,510.183 1622.42,511.608 1624.36,513.053 1626.29,514.518 1628.22,516.001 1630.15,517.504 1632.08,519.026 1634.02,520.566 1635.95,522.126 
  1637.88,523.705 1639.81,525.302 1641.74,526.918 1643.68,528.552 1645.61,530.205 1647.54,531.876 1649.47,533.565 1651.4,535.273 1653.34,536.998 1655.27,538.741 
  1657.2,540.503 1659.13,542.281 1661.07,544.078 1663,545.891 1664.93,547.723 1666.86,549.571 1668.79,551.436 1670.73,553.319 1672.66,555.218 1674.59,557.134 
  1676.52,559.067 1678.45,561.016 1680.39,562.981 1682.32,564.963 1684.25,566.961 1686.18,568.974 1688.11,571.004 1690.05,573.049 1691.98,575.11 1693.91,577.187 
  1695.84,579.278 1697.77,581.385 1699.71,583.507 1701.64,585.643 1703.57,587.795 1705.5,589.961 1707.44,592.141 1709.37,594.336 1711.3,596.545 1713.23,598.767 
  1715.16,601.004 1717.1,603.254 1719.03,605.518 1720.96,607.795 1722.89,610.086 1724.82,612.389 1726.76,614.706 1728.69,617.035 1730.62,619.376 1732.55,621.73 
  1734.48,624.097 1736.42,626.475 1738.35,628.865 1740.28,631.267 1742.21,633.681 1744.15,636.106 1746.08,638.542 1748.01,640.989 1749.94,643.447 1751.87,645.915 
  1753.81,648.394 1755.74,650.884 1757.67,653.383 1759.6,655.893 1761.53,658.412 1763.47,660.941 1765.4,663.479 1767.33,666.026 1769.26,668.582 1771.19,671.147 
  1773.13,673.721 1775.06,676.303 1776.99,678.893 1778.92,681.491 1780.86,684.097 1782.79,686.711 1784.72,689.332 1786.65,691.96 1788.58,694.595 1790.52,697.237 
  1792.45,699.885 1794.38,702.54 1796.31,705.201 1798.24,707.868 1800.18,710.54 1802.11,713.218 1804.04,715.902 1805.97,718.59 1807.9,721.283 1809.84,723.981 
  1811.77,726.683 1813.7,729.389 1815.63,732.099 1817.56,734.813 1819.5,737.531 1821.43,740.251 1823.36,742.975 1825.29,745.701 1827.23,748.43 1829.16,751.161 
  1831.09,753.894 1833.02,756.629 1834.95,759.366 1836.89,762.104 1838.82,764.843 1840.75,767.583 1842.68,770.323 1844.61,773.064 1846.55,775.805 1848.48,778.545 
  1850.41,781.285 1852.34,784.025 1854.27,786.764 1856.21,789.501 1858.14,792.237 1860.07,794.971 1862,797.704 1863.94,800.434 1865.87,803.162 1867.8,805.886 
  1869.73,808.608 1871.66,811.327 1873.6,814.042 1875.53,816.753 1877.46,819.46 1879.39,822.162 1881.32,824.86 1883.26,827.553 1885.19,830.241 1887.12,832.924 
  1889.05,835.6 1890.98,838.271 1892.92,840.935 1894.85,843.592 1896.78,846.243 1898.71,848.886 1900.65,851.522 1902.58,854.15 1904.51,856.77 1906.44,859.381 
  1908.37,861.984 1910.31,864.578 1912.24,867.162 1914.17,869.737 1916.1,872.303 1918.03,874.858 1919.97,877.402 1921.9,879.936 1923.83,882.458 1925.76,884.969 
  1927.69,887.469 1929.63,889.956 1931.56,892.431 1933.49,894.893 1935.42,897.343 1937.35,899.779 1939.29,902.201 1941.22,904.61 1943.15,907.004 1945.08,909.384 
  1947.02,911.748 1948.95,914.098 1950.88,916.432 1952.81,918.75 1954.74,921.052 1956.68,923.337 1958.61,925.605 1960.54,927.856 1962.47,930.09 1964.4,932.306 
  1966.34,934.503 1968.27,936.682 1970.2,938.842 1972.13,940.982 1974.06,943.103 1976,945.204 1977.93,947.285 1979.86,949.345 1981.79,951.384 1983.73,953.402 
  1985.66,955.398 
  "/>
<polyline clip-path="url(#clip522)" style="stroke:#800080; stroke-linecap:butt; stroke-linejoin:round; stroke-width:12; stroke-opacity:1; fill:none" stroke-dasharray="48, 30" points="
  1985.66,955.398 1987.59,957.372 1989.52,959.323 1991.45,961.252 1993.39,963.158 1995.32,965.04 1997.25,966.898 1999.18,968.732 2001.11,970.541 2003.05,972.325 
  2004.98,974.084 2006.91,975.818 2008.84,977.525 2010.77,979.206 2012.71,980.86 2014.64,982.486 2016.57,984.086 2018.5,985.657 2020.44,987.2 2022.37,988.714 
  2024.3,990.199 2026.23,991.655 2028.16,993.08 2030.1,994.476 2032.03,995.841 2033.96,997.174 2035.89,998.477 2037.82,999.747 2039.76,1000.99 2041.69,1002.19 
  2043.62,1003.36 2045.55,1004.5 2047.48,1005.61 2049.42,1006.68 2051.35,1007.72 2053.28,1008.72 2055.21,1009.68 2057.15,1010.62 2059.08,1011.51 2061.01,1012.37 
  2062.94,1013.19 2064.87,1013.97 2066.81,1014.72 2068.74,1015.42 2070.67,1016.09 2072.6,1016.72 2074.53,1017.31 2076.47,1017.86 2078.4,1018.37 2080.33,1018.84 
  2082.26,1019.26 2084.19,1019.65 2086.13,1019.99 2088.06,1020.29 2089.99,1020.55 2091.92,1020.76 2093.85,1020.93 2095.79,1021.06 2097.72,1021.14 2099.65,1021.18 
  2101.58,1021.17 2103.52,1021.11 2105.45,1021.01 2107.38,1020.86 2109.31,1020.67 2111.24,1020.42 2113.18,1020.13 2115.11,1019.79 2117.04,1019.4 2118.97,1018.96 
  2120.9,1018.47 2122.84,1017.93 2124.77,1017.34 2126.7,1016.7 2128.63,1016 2130.56,1015.26 2132.5,1014.46 2134.43,1013.6 2136.36,1012.7 2138.29,1011.74 
  2140.23,1010.72 2142.16,1009.65 2144.09,1008.52 2146.02,1007.34 2147.95,1006.1 2149.89,1004.8 2151.82,1003.45 2153.75,1002.04 2155.68,1000.57 2157.61,999.039 
  2159.55,997.45 2161.48,995.802 2163.41,994.093 2165.34,992.323 2167.27,990.491 2169.21,988.598 2171.14,986.642 2173.07,984.623 2175,982.541 2176.94,980.395 
  2178.87,978.185 2180.8,975.91 2182.73,973.569 2184.66,971.163 2186.6,968.69 2188.53,966.15 2190.46,963.543 2192.39,960.868 2194.32,958.125 2196.26,955.312 
  2198.19,952.43 2200.12,949.479 2202.05,946.457 2203.98,943.363 2205.92,940.199 2207.85,936.962 2209.78,933.653 2211.71,930.27 2213.64,926.814 2215.58,923.284 
  2217.51,919.68 2219.44,916 2221.37,912.245 2223.31,908.413 2225.24,904.504 2227.17,900.519 2229.1,896.455 2231.03,892.313 2232.97,888.092 2234.9,883.792 
  2236.83,879.411 2238.76,874.951 2240.69,870.409 2242.63,865.785 2244.56,861.08 2246.49,856.291 2248.42,851.42 2250.35,846.464 2252.29,841.424 2254.22,836.3 
  2256.15,831.089 2258.08,825.793 2260.02,820.41 2261.95,814.94 2263.88,809.383 2265.81,803.737 2267.74,798.002 2269.68,792.178 2271.61,786.264 2273.54,780.259 
  2275.47,774.163 2277.4,767.976 2279.34,761.696 2281.27,755.324 2283.2,748.858 2285.13,742.298 2287.06,735.643 2289,728.894 2290.93,722.049 2292.86,715.107 
  2294.79,708.069 2296.73,700.933 2298.66,693.699 2300.59,686.366 2302.52,678.934 2304.45,671.402 2306.39,663.77 2308.32,656.037 2310.25,648.203 2312.18,640.266 
  2314.11,632.226 2316.05,624.083 2317.98,615.836 2319.91,607.484 2321.84,599.027 2323.77,590.464 2325.71,581.795 2327.64,573.019 2329.57,564.135 2331.5,555.143 
  2333.43,546.042 2335.37,536.831 2337.3,527.511 2339.23,518.08 2341.16,508.537 2343.1,498.882 2345.03,489.115 2346.96,479.235 2348.89,469.241 2350.82,459.132 
  2352.76,448.909 
  "/>
<polyline clip-path="url(#clip522)" style="stroke:#ffa500; stroke-linecap:butt; stroke-linejoin:round; stroke-width:20; stroke-opacity:1; fill:none" points="
  1985.66,2145.49 1985.66,-1001.88 
  "/>
<circle clip-path="url(#clip522)" cx="930.732" cy="913.955" r="28.8" fill="#0000ff" fill-rule="evenodd" fill-opacity="1" stroke="#000000" stroke-opacity="1" stroke-width="3.2"/>
<circle clip-path="url(#clip522)" cx="1985.66" cy="955.398" r="43.2" fill="#ff0000" fill-rule="evenodd" fill-opacity="1" stroke="#000000" stroke-opacity="1" stroke-width="3.2"/>
<path clip-path="url(#clip520)" d="
M-2675.2 1520.77 L2294.79 1520.77 L2294.79 82.2149 L-2675.2 82.2149  Z
  " fill="#ffffff" fill-rule="evenodd" fill-opacity="1"/>
<polyline clip-path="url(#clip520)" style="stroke:#000000; stroke-linecap:butt; stroke-linejoin:round; stroke-width:4; stroke-opacity:1; fill:none" points="
  -2675.2,1520.77 2294.79,1520.77 2294.79,82.2149 -2675.2,82.2149 -2675.2,1520.77 
  "/>
<path clip-path="url(#clip520)" d="M-2520.63 401.895 L-2477.38 401.895 L-2477.38 685.175 L-2321.72 685.175 L-2321.72 721.575 L-2520.63 721.575 L-2520.63 401.895 Z" fill="#000000" fill-rule="evenodd" fill-opacity="1" /><path clip-path="url(#clip520)" d="M-2192.82 509.383 Q-2224.51 509.383 -2242.92 534.221 Q-2261.34 558.844 -2261.34 601.882 Q-2261.34 644.92 -2243.14 669.758 Q-2224.72 694.382 -2192.82 694.382 Q-2161.34 694.382 -2142.93 669.544 Q-2124.51 644.706 -2124.51 601.882 Q-2124.51 559.273 -2142.93 534.435 Q-2161.34 509.383 -2192.82 509.383 M-2192.82 475.98 Q-2141.43 475.98 -2112.1 509.383 Q-2082.76 542.785 -2082.76 601.882 Q-2082.76 660.765 -2112.1 694.382 Q-2141.43 727.784 -2192.82 727.784 Q-2244.42 727.784 -2273.76 694.382 Q-2302.88 660.765 -2302.88 601.882 Q-2302.88 542.785 -2273.76 509.383 Q-2244.42 475.98 -2192.82 475.98 Z" fill="#000000" fill-rule="evenodd" fill-opacity="1" /><path clip-path="url(#clip520)" d="M-1844.87 490.968 L-1844.87 527.797 Q-1861.58 518.59 -1878.49 514.093 Q-1895.19 509.383 -1912.32 509.383 Q-1950.65 509.383 -1971.85 533.792 Q-1993.04 557.988 -1993.04 601.882 Q-1993.04 645.777 -1971.85 670.186 Q-1950.65 694.382 -1912.32 694.382 Q-1895.19 694.382 -1878.49 689.885 Q-1861.58 685.175 -1844.87 675.967 L-1844.87 712.368 Q-1861.36 720.076 -1879.13 723.93 Q-1896.69 727.784 -1916.6 727.784 Q-1970.78 727.784 -2002.68 693.739 Q-2034.58 659.694 -2034.58 601.882 Q-2034.58 543.214 -2002.47 509.597 Q-1970.13 475.98 -1914.03 475.98 Q-1895.83 475.98 -1878.49 479.834 Q-1861.15 483.474 -1844.87 490.968 Z" fill="#000000" fill-rule="evenodd" fill-opacity="1" /><path clip-path="url(#clip520)" d="M-1667.37 601.026 Q-1715.12 601.026 -1733.53 611.946 Q-1751.95 622.866 -1751.95 649.203 Q-1751.95 670.186 -1738.24 682.605 Q-1724.33 694.81 -1700.56 694.81 Q-1667.8 694.81 -1648.1 671.685 Q-1628.19 648.346 -1628.19 609.805 L-1628.19 601.026 L-1667.37 601.026 M-1588.79 584.753 L-1588.79 721.575 L-1628.19 721.575 L-1628.19 685.175 Q-1641.68 707.015 -1661.8 717.507 Q-1681.93 727.784 -1711.05 727.784 Q-1747.88 727.784 -1769.72 707.229 Q-1791.34 686.459 -1791.34 651.772 Q-1791.34 611.303 -1764.37 590.748 Q-1737.17 570.193 -1683.43 570.193 L-1628.19 570.193 L-1628.19 566.338 Q-1628.19 539.145 -1646.17 524.371 Q-1663.94 509.383 -1696.28 509.383 Q-1716.83 509.383 -1736.32 514.307 Q-1755.8 519.232 -1773.79 529.082 L-1773.79 492.681 Q-1752.16 484.331 -1731.82 480.263 Q-1711.48 475.98 -1692.21 475.98 Q-1640.18 475.98 -1614.48 502.959 Q-1588.79 529.938 -1588.79 584.753 Z" fill="#000000" fill-rule="evenodd" fill-opacity="1" /><path clip-path="url(#clip520)" d="M-1507.64 388.405 L-1468.24 388.405 L-1468.24 721.575 L-1507.64 721.575 L-1507.64 388.405 Z" fill="#000000" fill-rule="evenodd" fill-opacity="1" /><path clip-path="url(#clip520)" d="M-1114.94 431.229 Q-1162.05 431.229 -1189.88 466.345 Q-1217.51 501.46 -1217.51 562.056 Q-1217.51 622.438 -1189.88 657.553 Q-1162.05 692.669 -1114.94 692.669 Q-1067.84 692.669 -1040.43 657.553 Q-1012.81 622.438 -1012.81 562.056 Q-1012.81 501.46 -1040.43 466.345 Q-1067.84 431.229 -1114.94 431.229 M-1114.94 396.114 Q-1047.71 396.114 -1007.45 441.293 Q-967.2 486.258 -967.2 562.056 Q-967.2 637.64 -1007.45 682.819 Q-1047.71 727.784 -1114.94 727.784 Q-1182.39 727.784 -1222.86 682.819 Q-1263.11 637.854 -1263.11 562.056 Q-1263.11 486.258 -1222.86 441.293 Q-1182.39 396.114 -1114.94 396.114 Z" fill="#000000" fill-rule="evenodd" fill-opacity="1" /><path clip-path="url(#clip520)" d="M-863.138 685.603 L-863.138 812.79 L-902.75 812.79 L-902.75 481.761 L-863.138 481.761 L-863.138 518.162 Q-850.719 496.75 -831.876 486.472 Q-812.82 475.98 -786.483 475.98 Q-742.803 475.98 -715.61 510.667 Q-688.202 545.355 -688.202 601.882 Q-688.202 658.41 -715.61 693.097 Q-742.803 727.784 -786.483 727.784 Q-812.82 727.784 -831.876 717.507 Q-850.719 707.015 -863.138 685.603 M-729.099 601.882 Q-729.099 558.416 -747.085 533.792 Q-764.857 508.954 -796.118 508.954 Q-827.38 508.954 -845.366 533.792 Q-863.138 558.416 -863.138 601.882 Q-863.138 645.348 -845.366 670.186 Q-827.38 694.81 -796.118 694.81 Q-764.857 694.81 -747.085 670.186 Q-729.099 645.348 -729.099 601.882 Z" fill="#000000" fill-rule="evenodd" fill-opacity="1" /><path clip-path="url(#clip520)" d="M-583.926 413.671 L-583.926 481.761 L-502.775 481.761 L-502.775 512.38 L-583.926 512.38 L-583.926 642.565 Q-583.926 671.899 -576.004 680.25 Q-567.867 688.601 -543.244 688.601 L-502.775 688.601 L-502.775 721.575 L-543.244 721.575 Q-588.851 721.575 -606.195 704.659 Q-623.538 687.53 -623.538 642.565 L-623.538 512.38 L-652.444 512.38 L-652.444 481.761 L-623.538 481.761 L-623.538 413.671 L-583.926 413.671 Z" fill="#000000" fill-rule="evenodd" fill-opacity="1" /><path clip-path="url(#clip520)" d="M-450.958 481.761 L-411.56 481.761 L-411.56 721.575 L-450.958 721.575 L-450.958 481.761 M-450.958 388.405 L-411.56 388.405 L-411.56 438.295 L-450.958 438.295 L-450.958 388.405 Z" fill="#000000" fill-rule="evenodd" fill-opacity="1" /><path clip-path="url(#clip520)" d="M-142.412 527.797 Q-127.638 501.246 -107.083 488.613 Q-86.5274 475.98 -58.6919 475.98 Q-21.221 475.98 -0.879689 502.317 Q19.4616 528.439 19.4616 576.83 L19.4616 721.575 L-20.1504 721.575 L-20.1504 578.115 Q-20.1504 543.642 -32.3552 526.941 Q-44.56 510.239 -69.612 510.239 Q-100.231 510.239 -118.003 530.581 Q-135.775 550.922 -135.775 586.037 L-135.775 721.575 L-175.387 721.575 L-175.387 578.115 Q-175.387 543.428 -187.592 526.941 Q-199.796 510.239 -225.277 510.239 Q-255.467 510.239 -273.239 530.795 Q-291.011 551.136 -291.011 586.037 L-291.011 721.575 L-330.623 721.575 L-330.623 481.761 L-291.011 481.761 L-291.011 519.018 Q-277.522 496.964 -258.679 486.472 Q-239.837 475.98 -213.928 475.98 Q-187.806 475.98 -169.606 489.256 Q-151.191 502.531 -142.412 527.797 Z" fill="#000000" fill-rule="evenodd" fill-opacity="1" /><path clip-path="url(#clip520)" d="M93.9751 626.934 L93.9751 481.761 L133.373 481.761 L133.373 625.435 Q133.373 659.48 146.648 676.61 Q159.924 693.525 186.475 693.525 Q218.378 693.525 236.793 673.184 Q255.421 652.843 255.421 617.727 L255.421 481.761 L294.819 481.761 L294.819 721.575 L255.421 721.575 L255.421 684.746 Q241.075 706.587 222.018 717.293 Q203.176 727.784 178.124 727.784 Q136.799 727.784 115.387 702.09 Q93.9751 676.396 93.9751 626.934 M193.112 475.98 L193.112 475.98 Z" fill="#000000" fill-rule="evenodd" fill-opacity="1" /><path clip-path="url(#clip520)" d="M562.682 527.797 Q577.456 501.246 598.012 488.613 Q618.567 475.98 646.403 475.98 Q683.874 475.98 704.215 502.317 Q724.556 528.439 724.556 576.83 L724.556 721.575 L684.944 721.575 L684.944 578.115 Q684.944 543.642 672.739 526.941 Q660.535 510.239 635.483 510.239 Q604.864 510.239 587.092 530.581 Q569.32 550.922 569.32 586.037 L569.32 721.575 L529.708 721.575 L529.708 578.115 Q529.708 543.428 517.503 526.941 Q505.298 510.239 479.818 510.239 Q449.627 510.239 431.855 530.795 Q414.083 551.136 414.083 586.037 L414.083 721.575 L374.471 721.575 L374.471 481.761 L414.083 481.761 L414.083 519.018 Q427.573 496.964 446.415 486.472 Q465.258 475.98 491.166 475.98 Q517.289 475.98 535.489 489.256 Q553.903 502.531 562.682 527.797 Z" fill="#000000" fill-rule="evenodd" fill-opacity="1" /><path clip-path="url(#clip520)" d="M-2262.84 906.039 L-2262.84 951.646 Q-2284.68 931.305 -2309.51 921.241 Q-2334.14 911.177 -2361.97 911.177 Q-2416.79 911.177 -2445.91 944.794 Q-2475.03 978.197 -2475.03 1041.58 Q-2475.03 1104.74 -2445.91 1138.36 Q-2416.79 1171.76 -2361.97 1171.76 Q-2334.14 1171.76 -2309.51 1161.7 Q-2284.68 1151.63 -2262.84 1131.29 L-2262.84 1176.47 Q-2285.53 1191.89 -2311.01 1199.6 Q-2336.28 1207.3 -2364.54 1207.3 Q-2437.13 1207.3 -2478.88 1162.98 Q-2520.63 1118.44 -2520.63 1041.58 Q-2520.63 964.493 -2478.88 920.17 Q-2437.13 875.634 -2364.54 875.634 Q-2335.85 875.634 -2310.58 883.342 Q-2285.1 890.836 -2262.84 906.039 Z" fill="#000000" fill-rule="evenodd" fill-opacity="1" /><path clip-path="url(#clip520)" d="M-2104.82 988.903 Q-2136.5 988.903 -2154.92 1013.74 Q-2173.33 1038.36 -2173.33 1081.4 Q-2173.33 1124.44 -2155.13 1149.28 Q-2136.72 1173.9 -2104.82 1173.9 Q-2073.34 1173.9 -2054.93 1149.06 Q-2036.51 1124.23 -2036.51 1081.4 Q-2036.51 1038.79 -2054.93 1013.95 Q-2073.34 988.903 -2104.82 988.903 M-2104.82 955.5 Q-2053.43 955.5 -2024.09 988.903 Q-1994.76 1022.31 -1994.76 1081.4 Q-1994.76 1140.29 -2024.09 1173.9 Q-2053.43 1207.3 -2104.82 1207.3 Q-2156.42 1207.3 -2185.75 1173.9 Q-2214.87 1140.29 -2214.87 1081.4 Q-2214.87 1022.31 -2185.75 988.903 Q-2156.42 955.5 -2104.82 955.5 Z" fill="#000000" fill-rule="evenodd" fill-opacity="1" /><path clip-path="url(#clip520)" d="M-1730.11 1056.35 L-1730.11 1201.09 L-1769.5 1201.09 L-1769.5 1057.64 Q-1769.5 1023.59 -1782.78 1006.67 Q-1796.06 989.759 -1822.61 989.759 Q-1854.51 989.759 -1872.92 1010.1 Q-1891.34 1030.44 -1891.34 1065.56 L-1891.34 1201.09 L-1930.95 1201.09 L-1930.95 961.281 L-1891.34 961.281 L-1891.34 998.538 Q-1877.21 976.912 -1858.15 966.206 Q-1838.88 955.5 -1813.83 955.5 Q-1772.5 955.5 -1751.3 981.194 Q-1730.11 1006.67 -1730.11 1056.35 Z" fill="#000000" fill-rule="evenodd" fill-opacity="1" /><path clip-path="url(#clip520)" d="M-1498.64 968.347 L-1498.64 1005.6 Q-1515.34 997.039 -1533.33 992.757 Q-1551.32 988.474 -1570.59 988.474 Q-1599.92 988.474 -1614.7 997.468 Q-1629.26 1006.46 -1629.26 1024.45 Q-1629.26 1038.15 -1618.76 1046.07 Q-1608.27 1053.78 -1576.58 1060.85 L-1563.09 1063.84 Q-1521.13 1072.84 -1503.57 1089.32 Q-1485.8 1105.6 -1485.8 1134.93 Q-1485.8 1168.33 -1512.35 1187.82 Q-1538.68 1207.3 -1584.93 1207.3 Q-1604.2 1207.3 -1625.19 1203.45 Q-1645.96 1199.81 -1669.08 1192.32 L-1669.08 1151.63 Q-1647.24 1162.98 -1626.04 1168.76 Q-1604.85 1174.33 -1584.08 1174.33 Q-1556.24 1174.33 -1541.25 1164.91 Q-1526.27 1155.27 -1526.27 1137.93 Q-1526.27 1121.87 -1537.19 1113.31 Q-1547.89 1104.74 -1584.51 1096.82 L-1598.21 1093.61 Q-1634.82 1085.9 -1651.1 1070.05 Q-1667.37 1053.99 -1667.37 1026.16 Q-1667.37 992.329 -1643.39 973.914 Q-1619.41 955.5 -1575.3 955.5 Q-1553.46 955.5 -1534.19 958.712 Q-1514.92 961.924 -1498.64 968.347 Z" fill="#000000" fill-rule="evenodd" fill-opacity="1" /><path clip-path="url(#clip520)" d="M-1384.09 893.191 L-1384.09 961.281 L-1302.94 961.281 L-1302.94 991.9 L-1384.09 991.9 L-1384.09 1122.08 Q-1384.09 1151.42 -1376.17 1159.77 Q-1368.03 1168.12 -1343.41 1168.12 L-1302.94 1168.12 L-1302.94 1201.09 L-1343.41 1201.09 Q-1389.01 1201.09 -1406.36 1184.18 Q-1423.7 1167.05 -1423.7 1122.08 L-1423.7 991.9 L-1452.61 991.9 L-1452.61 961.281 L-1423.7 961.281 L-1423.7 893.191 L-1384.09 893.191 Z" fill="#000000" fill-rule="evenodd" fill-opacity="1" /><path clip-path="url(#clip520)" d="M-1112.16 998.11 Q-1118.8 994.256 -1126.72 992.543 Q-1134.43 990.616 -1143.85 990.616 Q-1177.25 990.616 -1195.24 1012.46 Q-1213.01 1034.08 -1213.01 1074.76 L-1213.01 1201.09 L-1252.62 1201.09 L-1252.62 961.281 L-1213.01 961.281 L-1213.01 998.538 Q-1200.59 976.698 -1180.68 966.206 Q-1160.76 955.5 -1132.29 955.5 Q-1128.22 955.5 -1123.29 956.142 Q-1118.37 956.571 -1112.37 957.641 L-1112.16 998.11 Z" fill="#000000" fill-rule="evenodd" fill-opacity="1" /><path clip-path="url(#clip520)" d="M-961.847 1080.55 Q-1009.6 1080.55 -1028.01 1091.47 Q-1046.42 1102.39 -1046.42 1128.72 Q-1046.42 1149.71 -1032.72 1162.13 Q-1018.8 1174.33 -995.035 1174.33 Q-962.275 1174.33 -942.576 1151.21 Q-922.663 1127.87 -922.663 1089.32 L-922.663 1080.55 L-961.847 1080.55 M-883.265 1064.27 L-883.265 1201.09 L-922.663 1201.09 L-922.663 1164.69 Q-936.152 1186.53 -956.28 1197.03 Q-976.407 1207.3 -1005.53 1207.3 Q-1042.36 1207.3 -1064.2 1186.75 Q-1085.82 1165.98 -1085.82 1131.29 Q-1085.82 1090.82 -1058.84 1070.27 Q-1031.65 1049.71 -977.906 1049.71 L-922.663 1049.71 L-922.663 1045.86 Q-922.663 1018.67 -940.649 1003.89 Q-958.421 988.903 -990.753 988.903 Q-1011.31 988.903 -1030.79 993.827 Q-1050.28 998.752 -1068.26 1008.6 L-1068.26 972.201 Q-1046.64 963.851 -1026.3 959.783 Q-1005.96 955.5 -986.685 955.5 Q-934.654 955.5 -908.959 982.479 Q-883.265 1009.46 -883.265 1064.27 Z" fill="#000000" fill-rule="evenodd" fill-opacity="1" /><path clip-path="url(#clip520)" d="M-802.114 961.281 L-762.716 961.281 L-762.716 1201.09 L-802.114 1201.09 L-802.114 961.281 M-802.114 867.925 L-762.716 867.925 L-762.716 917.815 L-802.114 917.815 L-802.114 867.925 Z" fill="#000000" fill-rule="evenodd" fill-opacity="1" /><path clip-path="url(#clip520)" d="M-480.935 1056.35 L-480.935 1201.09 L-520.333 1201.09 L-520.333 1057.64 Q-520.333 1023.59 -533.608 1006.67 Q-546.884 989.759 -573.434 989.759 Q-605.338 989.759 -623.753 1010.1 Q-642.167 1030.44 -642.167 1065.56 L-642.167 1201.09 L-681.779 1201.09 L-681.779 961.281 L-642.167 961.281 L-642.167 998.538 Q-628.035 976.912 -608.978 966.206 Q-589.708 955.5 -564.656 955.5 Q-523.331 955.5 -502.133 981.194 Q-480.935 1006.67 -480.935 1056.35 Z" fill="#000000" fill-rule="evenodd" fill-opacity="1" /><path clip-path="url(#clip520)" d="M-197.227 1071.34 L-197.227 1090.61 L-378.372 1090.61 Q-375.802 1131.29 -353.962 1152.7 Q-331.908 1173.9 -292.724 1173.9 Q-270.028 1173.9 -248.83 1168.33 Q-227.418 1162.77 -206.434 1151.63 L-206.434 1188.89 Q-227.632 1197.88 -249.9 1202.59 Q-272.169 1207.3 -295.08 1207.3 Q-352.463 1207.3 -386.08 1173.9 Q-419.483 1140.5 -419.483 1083.54 Q-419.483 1024.66 -387.793 990.187 Q-355.889 955.5 -301.931 955.5 Q-253.54 955.5 -225.491 986.762 Q-197.227 1017.81 -197.227 1071.34 M-236.625 1059.78 Q-237.053 1027.44 -254.825 1008.17 Q-272.383 988.903 -301.503 988.903 Q-334.477 988.903 -354.391 1007.53 Q-374.089 1026.16 -377.087 1059.99 L-236.625 1059.78 Z" fill="#000000" fill-rule="evenodd" fill-opacity="1" /><path clip-path="url(#clip520)" d="M25.2429 997.682 L25.2429 867.925 L64.6408 867.925 L64.6408 1201.09 L25.2429 1201.09 L25.2429 1165.12 Q12.8239 1186.53 -6.23267 1197.03 Q-25.0752 1207.3 -51.6259 1207.3 Q-95.0921 1207.3 -122.499 1172.62 Q-149.693 1137.93 -149.693 1081.4 Q-149.693 1024.87 -122.499 990.187 Q-95.0921 955.5 -51.6259 955.5 Q-25.0752 955.5 -6.23267 965.992 Q12.8239 976.27 25.2429 997.682 M-109.01 1081.4 Q-109.01 1124.87 -91.238 1149.71 Q-73.252 1174.33 -41.9906 1174.33 Q-10.7292 1174.33 7.25684 1149.71 Q25.2429 1124.87 25.2429 1081.4 Q25.2429 1037.94 7.25684 1013.31 Q-10.7292 988.474 -41.9906 988.474 Q-73.252 988.474 -91.238 1013.31 Q-109.01 1037.94 -109.01 1081.4 Z" fill="#000000" fill-rule="evenodd" fill-opacity="1" /><path clip-path="url(#clip520)" d="M416.653 910.749 Q369.547 910.749 341.711 945.865 Q314.09 980.98 314.09 1041.58 Q314.09 1101.96 341.711 1137.07 Q369.547 1172.19 416.653 1172.19 Q463.759 1172.19 491.166 1137.07 Q518.788 1101.96 518.788 1041.58 Q518.788 980.98 491.166 945.865 Q463.759 910.749 416.653 910.749 M416.653 875.634 Q483.886 875.634 524.141 920.813 Q564.395 965.778 564.395 1041.58 Q564.395 1117.16 524.141 1162.34 Q483.886 1207.3 416.653 1207.3 Q349.205 1207.3 308.737 1162.34 Q268.482 1117.37 268.482 1041.58 Q268.482 965.778 308.737 920.813 Q349.205 875.634 416.653 875.634 Z" fill="#000000" fill-rule="evenodd" fill-opacity="1" /><path clip-path="url(#clip520)" d="M668.457 1165.12 L668.457 1292.31 L628.845 1292.31 L628.845 961.281 L668.457 961.281 L668.457 997.682 Q680.876 976.27 699.718 965.992 Q718.775 955.5 745.112 955.5 Q788.792 955.5 815.985 990.187 Q843.392 1024.87 843.392 1081.4 Q843.392 1137.93 815.985 1172.62 Q788.792 1207.3 745.112 1207.3 Q718.775 1207.3 699.718 1197.03 Q680.876 1186.53 668.457 1165.12 M802.496 1081.4 Q802.496 1037.94 784.51 1013.31 Q766.738 988.474 735.476 988.474 Q704.215 988.474 686.229 1013.31 Q668.457 1037.94 668.457 1081.4 Q668.457 1124.87 686.229 1149.71 Q704.215 1174.33 735.476 1174.33 Q766.738 1174.33 784.51 1149.71 Q802.496 1124.87 802.496 1081.4 Z" fill="#000000" fill-rule="evenodd" fill-opacity="1" /><path clip-path="url(#clip520)" d="M947.668 893.191 L947.668 961.281 L1028.82 961.281 L1028.82 991.9 L947.668 991.9 L947.668 1122.08 Q947.668 1151.42 955.591 1159.77 Q963.727 1168.12 988.351 1168.12 L1028.82 1168.12 L1028.82 1201.09 L988.351 1201.09 Q942.744 1201.09 925.4 1184.18 Q908.056 1167.05 908.056 1122.08 L908.056 991.9 L879.15 991.9 L879.15 961.281 L908.056 961.281 L908.056 893.191 L947.668 893.191 Z" fill="#000000" fill-rule="evenodd" fill-opacity="1" /><path clip-path="url(#clip520)" d="M1080.64 961.281 L1120.03 961.281 L1120.03 1201.09 L1080.64 1201.09 L1080.64 961.281 M1080.64 867.925 L1120.03 867.925 L1120.03 917.815 L1080.64 917.815 L1080.64 867.925 Z" fill="#000000" fill-rule="evenodd" fill-opacity="1" /><path clip-path="url(#clip520)" d="M1389.18 1007.32 Q1403.96 980.766 1424.51 968.133 Q1445.07 955.5 1472.9 955.5 Q1510.37 955.5 1530.72 981.837 Q1551.06 1007.96 1551.06 1056.35 L1551.06 1201.09 L1511.44 1201.09 L1511.44 1057.64 Q1511.44 1023.16 1499.24 1006.46 Q1487.03 989.759 1461.98 989.759 Q1431.36 989.759 1413.59 1010.1 Q1395.82 1030.44 1395.82 1065.56 L1395.82 1201.09 L1356.21 1201.09 L1356.21 1057.64 Q1356.21 1022.95 1344 1006.46 Q1331.8 989.759 1306.32 989.759 Q1276.13 989.759 1258.36 1010.31 Q1240.58 1030.66 1240.58 1065.56 L1240.58 1201.09 L1200.97 1201.09 L1200.97 961.281 L1240.58 961.281 L1240.58 998.538 Q1254.07 976.484 1272.92 965.992 Q1291.76 955.5 1317.67 955.5 Q1343.79 955.5 1361.99 968.776 Q1380.4 982.051 1389.18 1007.32 Z" fill="#000000" fill-rule="evenodd" fill-opacity="1" /><path clip-path="url(#clip520)" d="M1625.57 1106.45 L1625.57 961.281 L1664.97 961.281 L1664.97 1104.96 Q1664.97 1139 1678.24 1156.13 Q1691.52 1173.05 1718.07 1173.05 Q1749.97 1173.05 1768.39 1152.7 Q1787.02 1132.36 1787.02 1097.25 L1787.02 961.281 L1826.41 961.281 L1826.41 1201.09 L1787.02 1201.09 L1787.02 1164.27 Q1772.67 1186.11 1753.61 1196.81 Q1734.77 1207.3 1709.72 1207.3 Q1668.39 1207.3 1646.98 1181.61 Q1625.57 1155.92 1625.57 1106.45 M1724.71 955.5 L1724.71 955.5 Z" fill="#000000" fill-rule="evenodd" fill-opacity="1" /><path clip-path="url(#clip520)" d="M2094.28 1007.32 Q2109.05 980.766 2129.61 968.133 Q2150.16 955.5 2178 955.5 Q2215.47 955.5 2235.81 981.837 Q2256.15 1007.96 2256.15 1056.35 L2256.15 1201.09 L2216.54 1201.09 L2216.54 1057.64 Q2216.54 1023.16 2204.33 1006.46 Q2192.13 989.759 2167.08 989.759 Q2136.46 989.759 2118.69 1010.1 Q2100.91 1030.44 2100.91 1065.56 L2100.91 1201.09 L2061.3 1201.09 L2061.3 1057.64 Q2061.3 1022.95 2049.1 1006.46 Q2036.89 989.759 2011.41 989.759 Q1981.22 989.759 1963.45 1010.31 Q1945.68 1030.66 1945.68 1065.56 L1945.68 1201.09 L1906.07 1201.09 L1906.07 961.281 L1945.68 961.281 L1945.68 998.538 Q1959.17 976.484 1978.01 965.992 Q1996.85 955.5 2022.76 955.5 Q2048.88 955.5 2067.08 968.776 Q2085.5 982.051 2094.28 1007.32 Z" fill="#000000" fill-rule="evenodd" fill-opacity="1" /></svg>
