<?xml version="1.0" encoding="utf-8"?>
<svg xmlns="http://www.w3.org/2000/svg" xmlns:xlink="http://www.w3.org/1999/xlink" width="600" height="400" viewBox="0 0 2400 1600">
<defs>
  <clipPath id="clip410">
    <rect x="0" y="0" width="2400" height="1600"/>
  </clipPath>
</defs>
<path clip-path="url(#clip410)" d="
M0 1600 L2400 1600 L2400 0 L0 0  Z
  " fill="#ffffff" fill-rule="evenodd" fill-opacity="1"/>
<defs>
  <clipPath id="clip411">
    <rect x="480" y="0" width="1681" height="1600"/>
  </clipPath>
</defs>
<path clip-path="url(#clip410)" d="
M276.908 1433.33 L2352.76 1433.33 L2352.76 47.2441 L276.908 47.2441  Z
  " fill="#ffffff" fill-rule="evenodd" fill-opacity="1"/>
<defs>
  <clipPath id="clip412">
    <rect x="276" y="47" width="2077" height="1387"/>
  </clipPath>
</defs>
<polyline clip-path="url(#clip410)" style="stroke:#000000; stroke-linecap:round; stroke-linejoin:round; stroke-width:4; stroke-opacity:1; fill:none" points="
  276.908,1433.33 2352.76,1433.33 
  "/>
<path clip-path="url(#clip410)" d="M726.363 1501.59 L726.363 1582.22 L743.307 1582.22 Q764.766 1582.22 774.696 1572.49 Q784.696 1562.77 784.696 1541.8 Q784.696 1520.97 774.696 1511.31 Q764.766 1501.59 743.307 1501.59 L726.363 1501.59 M712.335 1490.06 L741.155 1490.06 Q771.293 1490.06 785.391 1502.63 Q799.488 1515.13 799.488 1541.8 Q799.488 1568.61 785.321 1581.17 Q771.154 1593.74 741.155 1593.74 L712.335 1593.74 L712.335 1490.06 Z" fill="#000000" fill-rule="evenodd" fill-opacity="1" /><path clip-path="url(#clip410)" d="M887.821 1551.66 L887.821 1557.91 L829.071 1557.91 Q829.904 1571.11 836.987 1578.05 Q844.14 1584.92 856.848 1584.92 Q864.21 1584.92 871.085 1583.12 Q878.029 1581.31 884.834 1577.7 L884.834 1589.79 Q877.959 1592.7 870.737 1594.23 Q863.515 1595.76 856.085 1595.76 Q837.474 1595.76 826.571 1584.92 Q815.738 1574.09 815.738 1555.62 Q815.738 1536.52 826.015 1525.34 Q836.362 1514.09 853.862 1514.09 Q869.557 1514.09 878.654 1524.23 Q887.821 1534.3 887.821 1551.66 M875.043 1547.91 Q874.904 1537.42 869.14 1531.17 Q863.446 1524.92 854.001 1524.92 Q843.307 1524.92 836.849 1530.97 Q830.46 1537.01 829.488 1547.98 L875.043 1547.91 Z" fill="#000000" fill-rule="evenodd" fill-opacity="1" /><path clip-path="url(#clip410)" d="M964.765 1518.95 L964.765 1530.9 Q959.348 1527.91 953.862 1526.45 Q948.445 1524.92 942.89 1524.92 Q930.459 1524.92 923.584 1532.84 Q916.709 1540.69 916.709 1554.92 Q916.709 1569.16 923.584 1577.08 Q930.459 1584.92 942.89 1584.92 Q948.445 1584.92 953.862 1583.47 Q959.348 1581.94 964.765 1578.95 L964.765 1590.76 Q959.417 1593.26 953.654 1594.51 Q947.959 1595.76 941.501 1595.76 Q923.931 1595.76 913.584 1584.72 Q903.237 1573.67 903.237 1554.92 Q903.237 1535.9 913.654 1524.99 Q924.14 1514.09 942.334 1514.09 Q948.237 1514.09 953.862 1515.34 Q959.487 1516.52 964.765 1518.95 Z" fill="#000000" fill-rule="evenodd" fill-opacity="1" /><path clip-path="url(#clip410)" d="M986.987 1515.97 L999.764 1515.97 L999.764 1593.74 L986.987 1593.74 L986.987 1515.97 M986.987 1485.69 L999.764 1485.69 L999.764 1501.87 L986.987 1501.87 L986.987 1485.69 Z" fill="#000000" fill-rule="evenodd" fill-opacity="1" /><path clip-path="url(#clip410)" d="M1076.08 1518.26 L1076.08 1530.34 Q1070.67 1527.56 1064.83 1526.17 Q1059 1524.79 1052.75 1524.79 Q1043.24 1524.79 1038.44 1527.7 Q1033.72 1530.62 1033.72 1536.45 Q1033.72 1540.9 1037.13 1543.47 Q1040.53 1545.97 1050.81 1548.26 L1055.18 1549.23 Q1068.79 1552.15 1074.49 1557.49 Q1080.25 1562.77 1080.25 1572.29 Q1080.25 1583.12 1071.64 1589.44 Q1063.1 1595.76 1048.1 1595.76 Q1041.85 1595.76 1035.04 1594.51 Q1028.31 1593.33 1020.81 1590.9 L1020.81 1577.7 Q1027.89 1581.38 1034.76 1583.26 Q1041.64 1585.06 1048.38 1585.06 Q1057.4 1585.06 1062.26 1582.01 Q1067.13 1578.88 1067.13 1573.26 Q1067.13 1568.05 1063.58 1565.27 Q1060.11 1562.49 1048.24 1559.92 L1043.79 1558.88 Q1031.92 1556.38 1026.64 1551.24 Q1021.36 1546.04 1021.36 1537.01 Q1021.36 1526.04 1029.14 1520.06 Q1036.92 1514.09 1051.22 1514.09 Q1058.31 1514.09 1064.56 1515.13 Q1070.81 1516.17 1076.08 1518.26 Z" fill="#000000" fill-rule="evenodd" fill-opacity="1" /><path clip-path="url(#clip410)" d="M1100.6 1515.97 L1113.37 1515.97 L1113.37 1593.74 L1100.6 1593.74 L1100.6 1515.97 M1100.6 1485.69 L1113.37 1485.69 L1113.37 1501.87 L1100.6 1501.87 L1100.6 1485.69 Z" fill="#000000" fill-rule="evenodd" fill-opacity="1" /><path clip-path="url(#clip410)" d="M1170.25 1524.92 Q1159.97 1524.92 1154 1532.98 Q1148.03 1540.97 1148.03 1554.92 Q1148.03 1568.88 1153.93 1576.94 Q1159.9 1584.92 1170.25 1584.92 Q1180.46 1584.92 1186.43 1576.87 Q1192.4 1568.81 1192.4 1554.92 Q1192.4 1541.11 1186.43 1533.05 Q1180.46 1524.92 1170.25 1524.92 M1170.25 1514.09 Q1186.92 1514.09 1196.43 1524.92 Q1205.94 1535.76 1205.94 1554.92 Q1205.94 1574.02 1196.43 1584.92 Q1186.92 1595.76 1170.25 1595.76 Q1153.51 1595.76 1144 1584.92 Q1134.56 1574.02 1134.56 1554.92 Q1134.56 1535.76 1144 1524.92 Q1153.51 1514.09 1170.25 1514.09 Z" fill="#000000" fill-rule="evenodd" fill-opacity="1" /><path clip-path="url(#clip410)" d="M1291.78 1546.8 L1291.78 1593.74 L1279 1593.74 L1279 1547.22 Q1279 1536.17 1274.69 1530.69 Q1270.39 1525.2 1261.78 1525.2 Q1251.43 1525.2 1245.46 1531.8 Q1239.49 1538.4 1239.49 1549.79 L1239.49 1593.74 L1226.64 1593.74 L1226.64 1515.97 L1239.49 1515.97 L1239.49 1528.05 Q1244.07 1521.04 1250.25 1517.56 Q1256.5 1514.09 1264.62 1514.09 Q1278.03 1514.09 1284.9 1522.42 Q1291.78 1530.69 1291.78 1546.8 Z" fill="#000000" fill-rule="evenodd" fill-opacity="1" /><path clip-path="url(#clip410)" d="M1389.76 1593.74 L1350.18 1490.06 L1364.83 1490.06 L1397.68 1577.36 L1430.6 1490.06 L1445.18 1490.06 L1405.66 1593.74 L1389.76 1593.74 Z" fill="#000000" fill-rule="evenodd" fill-opacity="1" /><path clip-path="url(#clip410)" d="M1484.07 1554.65 Q1468.58 1554.65 1462.61 1558.19 Q1456.64 1561.73 1456.64 1570.27 Q1456.64 1577.08 1461.08 1581.11 Q1465.6 1585.06 1473.3 1585.06 Q1483.93 1585.06 1490.32 1577.56 Q1496.78 1569.99 1496.78 1557.49 L1496.78 1554.65 L1484.07 1554.65 M1509.55 1549.37 L1509.55 1593.74 L1496.78 1593.74 L1496.78 1581.94 Q1492.4 1589.02 1485.87 1592.42 Q1479.35 1595.76 1469.9 1595.76 Q1457.96 1595.76 1450.87 1589.09 Q1443.86 1582.36 1443.86 1571.11 Q1443.86 1557.98 1452.61 1551.31 Q1461.43 1544.65 1478.86 1544.65 L1496.78 1544.65 L1496.78 1543.4 Q1496.78 1534.58 1490.94 1529.79 Q1485.18 1524.92 1474.69 1524.92 Q1468.03 1524.92 1461.71 1526.52 Q1455.39 1528.12 1449.55 1531.31 L1449.55 1519.51 Q1456.57 1516.8 1463.16 1515.48 Q1469.76 1514.09 1476.01 1514.09 Q1492.89 1514.09 1501.22 1522.84 Q1509.55 1531.59 1509.55 1549.37 Z" fill="#000000" fill-rule="evenodd" fill-opacity="1" /><path clip-path="url(#clip410)" d="M1580.94 1527.91 Q1578.79 1526.66 1576.22 1526.11 Q1573.72 1525.48 1570.66 1525.48 Q1559.83 1525.48 1554 1532.56 Q1548.23 1539.58 1548.23 1552.77 L1548.23 1593.74 L1535.39 1593.74 L1535.39 1515.97 L1548.23 1515.97 L1548.23 1528.05 Q1552.26 1520.97 1558.72 1517.56 Q1565.18 1514.09 1574.41 1514.09 Q1575.73 1514.09 1577.33 1514.3 Q1578.93 1514.44 1580.87 1514.79 L1580.94 1527.91 Z" fill="#000000" fill-rule="evenodd" fill-opacity="1" /><path clip-path="url(#clip410)" d="M1594.34 1515.97 L1607.12 1515.97 L1607.12 1593.74 L1594.34 1593.74 L1594.34 1515.97 M1594.34 1485.69 L1607.12 1485.69 L1607.12 1501.87 L1594.34 1501.87 L1594.34 1485.69 Z" fill="#000000" fill-rule="evenodd" fill-opacity="1" /><path clip-path="url(#clip410)" d="M1669.21 1554.65 Q1653.72 1554.65 1647.75 1558.19 Q1641.77 1561.73 1641.77 1570.27 Q1641.77 1577.08 1646.22 1581.11 Q1650.73 1585.06 1658.44 1585.06 Q1669.07 1585.06 1675.46 1577.56 Q1681.91 1569.99 1681.91 1557.49 L1681.91 1554.65 L1669.21 1554.65 M1694.69 1549.37 L1694.69 1593.74 L1681.91 1593.74 L1681.91 1581.94 Q1677.54 1589.02 1671.01 1592.42 Q1664.48 1595.76 1655.04 1595.76 Q1643.09 1595.76 1636.01 1589.09 Q1629 1582.36 1629 1571.11 Q1629 1557.98 1637.75 1551.31 Q1646.57 1544.65 1664 1544.65 L1681.91 1544.65 L1681.91 1543.4 Q1681.91 1534.58 1676.08 1529.79 Q1670.32 1524.92 1659.83 1524.92 Q1653.16 1524.92 1646.84 1526.52 Q1640.52 1528.12 1634.69 1531.31 L1634.69 1519.51 Q1641.71 1516.8 1648.3 1515.48 Q1654.9 1514.09 1661.15 1514.09 Q1678.02 1514.09 1686.36 1522.84 Q1694.69 1531.59 1694.69 1549.37 Z" fill="#000000" fill-rule="evenodd" fill-opacity="1" /><path clip-path="url(#clip410)" d="M1776.84 1554.92 Q1776.84 1540.83 1771.01 1532.84 Q1765.25 1524.79 1755.11 1524.79 Q1744.97 1524.79 1739.14 1532.84 Q1733.37 1540.83 1733.37 1554.92 Q1733.37 1569.02 1739.14 1577.08 Q1744.97 1585.06 1755.11 1585.06 Q1765.25 1585.06 1771.01 1577.08 Q1776.84 1569.02 1776.84 1554.92 M1733.37 1527.77 Q1737.4 1520.83 1743.51 1517.49 Q1749.69 1514.09 1758.23 1514.09 Q1772.4 1514.09 1781.22 1525.34 Q1790.11 1536.59 1790.11 1554.92 Q1790.11 1573.26 1781.22 1584.51 Q1772.4 1595.76 1758.23 1595.76 Q1749.69 1595.76 1743.51 1592.42 Q1737.4 1589.02 1733.37 1582.08 L1733.37 1593.74 L1720.52 1593.74 L1720.52 1485.69 L1733.37 1485.69 L1733.37 1527.77 Z" fill="#000000" fill-rule="evenodd" fill-opacity="1" /><path clip-path="url(#clip410)" d="M1811.29 1485.69 L1824.07 1485.69 L1824.07 1593.74 L1811.29 1593.74 L1811.29 1485.69 Z" fill="#000000" fill-rule="evenodd" fill-opacity="1" /><path clip-path="url(#clip410)" d="M1917.33 1551.66 L1917.33 1557.91 L1858.58 1557.91 Q1859.41 1571.11 1866.5 1578.05 Q1873.65 1584.92 1886.36 1584.92 Q1893.72 1584.92 1900.59 1583.12 Q1907.54 1581.31 1914.34 1577.7 L1914.34 1589.79 Q1907.47 1592.7 1900.25 1594.23 Q1893.02 1595.76 1885.59 1595.76 Q1866.98 1595.76 1856.08 1584.92 Q1845.25 1574.09 1845.25 1555.62 Q1845.25 1536.52 1855.52 1525.34 Q1865.87 1514.09 1883.37 1514.09 Q1899.07 1514.09 1908.16 1524.23 Q1917.33 1534.3 1917.33 1551.66 M1904.55 1547.91 Q1904.41 1537.42 1898.65 1531.17 Q1892.95 1524.92 1883.51 1524.92 Q1872.82 1524.92 1866.36 1530.97 Q1859.97 1537.01 1859 1547.98 L1904.55 1547.91 Z" fill="#000000" fill-rule="evenodd" fill-opacity="1" /><polyline clip-path="url(#clip410)" style="stroke:#000000; stroke-linecap:round; stroke-linejoin:round; stroke-width:4; stroke-opacity:1; fill:none" points="
  276.908,1433.33 276.908,47.2441 
  "/>
<path clip-path="url(#clip410)" d="M79.6382 1021.64 Q79.6382 1036.92 91.027 1045.94 Q102.416 1054.9 122.069 1054.9 Q141.652 1054.9 153.041 1045.94 Q164.429 1036.92 164.429 1021.64 Q164.429 1006.36 153.041 997.472 Q141.652 988.514 122.069 988.514 Q102.416 988.514 91.027 997.472 Q79.6382 1006.36 79.6382 1021.64 M68.2494 1021.64 Q68.2494 999.833 82.9021 986.778 Q97.4853 973.722 122.069 973.722 Q146.582 973.722 161.235 986.778 Q175.818 999.833 175.818 1021.64 Q175.818 1043.51 161.235 1056.64 Q146.652 1069.69 122.069 1069.69 Q97.4853 1069.69 82.9021 1056.64 Q68.2494 1043.51 68.2494 1021.64 Z" fill="#000000" fill-rule="evenodd" fill-opacity="1" /><path clip-path="url(#clip410)" d="M134.985 896.5 Q120.888 896.5 112.902 902.334 Q104.846 908.098 104.846 918.236 Q104.846 928.375 112.902 934.209 Q120.888 939.972 134.985 939.972 Q149.082 939.972 157.138 934.209 Q165.124 928.375 165.124 918.236 Q165.124 908.098 157.138 902.334 Q149.082 896.5 134.985 896.5 M107.832 939.972 Q100.888 935.945 97.5548 929.834 Q94.152 923.653 94.152 915.111 Q94.152 900.945 105.402 892.125 Q116.652 883.237 134.985 883.237 Q153.318 883.237 164.568 892.125 Q175.818 900.945 175.818 915.111 Q175.818 923.653 172.485 929.834 Q169.082 935.945 162.138 939.972 L173.804 939.972 L173.804 952.82 L65.7494 952.82 L65.7494 939.972 L107.832 939.972 Z" fill="#000000" fill-rule="evenodd" fill-opacity="1" /><path clip-path="url(#clip410)" d="M96.027 862.056 L96.027 849.278 L175.193 849.278 Q190.054 849.278 196.721 854.973 Q203.388 860.598 203.388 873.167 L203.388 878.028 L192.554 878.028 L192.554 874.626 Q192.554 867.334 189.151 864.695 Q185.818 862.056 175.193 862.056 L96.027 862.056 M65.7494 862.056 L65.7494 849.278 L81.9298 849.278 L81.9298 862.056 L65.7494 862.056 Z" fill="#000000" fill-rule="evenodd" fill-opacity="1" /><path clip-path="url(#clip410)" d="M131.721 756.015 L137.971 756.015 L137.971 814.765 Q151.166 813.931 158.11 806.848 Q164.985 799.695 164.985 786.987 Q164.985 779.626 163.179 772.751 Q161.374 765.807 157.763 759.001 L169.846 759.001 Q172.763 765.876 174.29 773.098 Q175.818 780.32 175.818 787.751 Q175.818 806.362 164.985 817.265 Q154.152 828.098 135.68 828.098 Q116.582 828.098 105.402 817.82 Q94.152 807.473 94.152 789.973 Q94.152 774.279 104.291 765.182 Q114.36 756.015 131.721 756.015 M127.971 768.793 Q117.485 768.932 111.235 774.696 Q104.985 780.39 104.985 789.834 Q104.985 800.529 111.027 806.987 Q117.069 813.376 128.041 814.348 L127.971 768.793 Z" fill="#000000" fill-rule="evenodd" fill-opacity="1" /><path clip-path="url(#clip410)" d="M99.0131 679.071 L110.957 679.071 Q107.971 684.488 106.513 689.974 Q104.985 695.39 104.985 700.946 Q104.985 713.376 112.902 720.251 Q120.749 727.126 134.985 727.126 Q149.221 727.126 157.138 720.251 Q164.985 713.376 164.985 700.946 Q164.985 695.39 163.527 689.974 Q161.999 684.488 159.013 679.071 L170.818 679.071 Q173.318 684.418 174.568 690.182 Q175.818 695.876 175.818 702.335 Q175.818 719.904 164.777 730.251 Q153.735 740.598 134.985 740.598 Q115.957 740.598 105.055 730.182 Q94.152 719.696 94.152 701.501 Q94.152 695.599 95.402 689.974 Q96.5825 684.349 99.0131 679.071 Z" fill="#000000" fill-rule="evenodd" fill-opacity="1" /><path clip-path="url(#clip410)" d="M73.9438 644.21 L96.027 644.21 L96.027 617.891 L105.957 617.891 L105.957 644.21 L148.179 644.21 Q157.693 644.21 160.402 641.641 Q163.11 639.002 163.11 631.016 L163.11 617.891 L173.804 617.891 L173.804 631.016 Q173.804 645.807 168.318 651.432 Q162.763 657.057 148.179 657.057 L105.957 657.057 L105.957 666.432 L96.027 666.432 L96.027 657.057 L73.9438 657.057 L73.9438 644.21 Z" fill="#000000" fill-rule="evenodd" fill-opacity="1" /><path clip-path="url(#clip410)" d="M96.027 601.085 L96.027 588.308 L173.804 588.308 L173.804 601.085 L96.027 601.085 M65.7494 601.085 L65.7494 588.308 L81.9298 588.308 L81.9298 601.085 L65.7494 601.085 Z" fill="#000000" fill-rule="evenodd" fill-opacity="1" /><path clip-path="url(#clip410)" d="M96.027 570.738 L96.027 557.197 L161.304 532.891 L96.027 508.586 L96.027 495.044 L173.804 524.211 L173.804 541.572 L96.027 570.738 Z" fill="#000000" fill-rule="evenodd" fill-opacity="1" /><path clip-path="url(#clip410)" d="M131.721 410.878 L137.971 410.878 L137.971 469.628 Q151.166 468.794 158.11 461.711 Q164.985 454.558 164.985 441.85 Q164.985 434.489 163.179 427.614 Q161.374 420.67 157.763 413.864 L169.846 413.864 Q172.763 420.739 174.29 427.961 Q175.818 435.183 175.818 442.614 Q175.818 461.225 164.985 472.128 Q154.152 482.961 135.68 482.961 Q116.582 482.961 105.402 472.683 Q94.152 462.336 94.152 444.836 Q94.152 429.142 104.291 420.045 Q114.36 410.878 131.721 410.878 M127.971 423.656 Q117.485 423.795 111.235 429.558 Q104.985 435.253 104.985 444.697 Q104.985 455.392 111.027 461.85 Q117.069 468.239 128.041 469.211 L127.971 423.656 Z" fill="#000000" fill-rule="evenodd" fill-opacity="1" /><polyline clip-path="url(#clip412)" style="stroke:#009af9; stroke-linecap:round; stroke-linejoin:round; stroke-width:12; stroke-opacity:1; fill:none" points="
  276.908,-28.0005 279.215,-9.94954 281.521,7.92801 283.828,25.6331 286.134,43.1665 288.441,60.5292 290.747,77.722 293.054,94.7458 295.36,111.601 297.667,128.29 
  299.973,144.812 302.28,161.168 304.586,177.36 306.893,193.388 309.199,209.253 311.506,224.955 313.812,240.497 316.119,255.878 318.425,271.099 320.732,286.162 
  323.038,301.067 325.345,315.815 327.651,330.406 329.958,344.843 332.264,359.124 334.571,373.252 336.877,387.227 339.184,401.05 341.49,414.722 343.797,428.244 
  346.103,441.616 348.41,454.839 350.716,467.914 353.023,480.843 355.329,493.625 357.636,506.261 359.942,518.753 362.249,531.101 364.555,543.306 366.862,555.369 
  369.168,567.29 371.475,579.071 373.781,590.712 376.088,602.214 378.394,613.578 380.701,624.804 383.007,635.894 385.314,646.848 387.62,657.666 389.927,668.351 
  392.233,678.902 394.54,689.321 396.846,699.607 399.153,709.763 401.459,719.788 403.766,729.684 406.072,739.451 408.379,749.09 410.685,758.601 412.992,767.987 
  415.298,777.246 417.605,786.381 419.911,795.391 422.218,804.278 424.524,813.043 426.831,821.685 429.137,830.207 431.444,838.608 433.75,846.889 436.057,855.052 
  438.363,863.096 440.67,871.023 442.976,878.834 445.283,886.528 447.589,894.108 449.896,901.573 452.202,908.924 454.509,916.163 456.815,923.289 459.122,930.304 
  461.428,937.208 463.735,944.002 466.041,950.687 468.348,957.263 470.654,963.732 472.961,970.093 475.267,976.348 477.574,982.497 479.88,988.542 482.187,994.482 
  484.493,1000.32 486.8,1006.05 489.106,1011.68 491.413,1017.21 493.719,1022.64 496.026,1027.97 498.332,1033.2 500.639,1038.33 502.945,1043.37 505.252,1048.3 
  507.558,1053.14 509.865,1057.89 512.171,1062.54 514.478,1067.09 516.784,1071.55 519.091,1075.92 521.397,1080.2 523.704,1084.38 526.01,1088.47 528.317,1092.47 
  530.623,1096.39 532.93,1100.21 535.236,1103.94 537.543,1107.59 539.849,1111.15 542.156,1114.63 544.462,1118.01 546.769,1121.32 549.075,1124.53 551.382,1127.67 
  553.688,1130.72 555.995,1133.69 558.301,1136.58 560.608,1139.38 562.914,1142.11 565.221,1144.76 567.527,1147.32 569.834,1149.81 572.14,1152.22 574.446,1154.55 
  576.753,1156.81 579.059,1158.99 581.366,1161.1 583.672,1163.13 585.979,1165.08 588.285,1166.97 590.592,1168.78 592.898,1170.51 595.205,1172.18 597.511,1173.77 
  599.818,1175.3 602.124,1176.75 604.431,1178.14 606.737,1179.45 609.044,1180.7 611.35,1181.88 613.657,1183 615.963,1184.05 618.27,1185.03 620.576,1185.95 
  622.883,1186.8 625.189,1187.59 627.496,1188.32 629.802,1188.98 632.109,1189.59 634.415,1190.13 636.722,1190.61 639.028,1191.03 641.335,1191.39 643.641,1191.69 
  645.948,1191.93 648.254,1192.12 650.561,1192.24 652.867,1192.31 655.174,1192.33 657.48,1192.29 659.787,1192.19 662.093,1192.04 664.4,1191.83 666.706,1191.58 
  669.013,1191.27 671.319,1190.9 673.626,1190.49 675.932,1190.02 678.239,1189.5 680.545,1188.94 682.852,1188.32 685.158,1187.66 687.465,1186.94 689.771,1186.18 
  692.078,1185.37 694.384,1184.52 696.691,1183.62 698.997,1182.67 701.304,1181.67 703.61,1180.64 705.917,1179.56 708.223,1178.43 710.53,1177.26 712.836,1176.05 
  715.143,1174.8 717.449,1173.5 719.756,1172.17 722.062,1170.79 724.369,1169.38 726.675,1167.92 728.982,1166.43 731.288,1164.9 733.595,1163.32 735.901,1161.72 
  738.208,1160.07 740.514,1158.39 742.821,1156.67 745.127,1154.92 747.434,1153.13 749.74,1151.31 752.047,1149.45 754.353,1147.56 756.66,1145.64 758.966,1143.69 
  761.273,1141.7 763.579,1139.68 765.886,1137.63 768.192,1135.55 770.499,1133.44 772.805,1131.3 775.112,1129.13 777.418,1126.93 779.725,1124.71 782.031,1122.45 
  784.338,1120.17 786.644,1117.86 788.951,1115.53 791.257,1113.17 793.564,1110.78 795.87,1108.37 798.177,1105.94 800.483,1103.48 802.79,1100.99 805.096,1098.49 
  807.403,1095.96 809.709,1093.41 812.016,1090.83 814.322,1088.24 816.629,1085.62 818.935,1082.99 821.242,1080.33 823.548,1077.65 825.855,1074.96 828.161,1072.24 
  830.468,1069.51 832.774,1066.76 835.081,1063.99 837.387,1061.21 839.694,1058.41 842,1055.59 844.307,1052.75 846.613,1049.9 848.92,1047.04 851.226,1044.16 
  853.533,1041.26 855.839,1038.36 858.146,1035.44 860.452,1032.5 862.759,1029.55 865.065,1026.59 867.372,1023.62 869.678,1020.64 871.985,1017.65 874.291,1014.64 
  876.598,1011.63 878.904,1008.6 881.211,1005.57 883.517,1002.53 885.824,999.475 888.13,996.415 890.437,993.347 892.743,990.271 895.05,987.187 897.356,984.097 
  899.663,981 901.969,977.898 904.276,974.789 906.582,971.675 908.889,968.556 911.195,965.432 913.502,962.304 915.808,959.171 918.115,956.035 920.421,952.896 
  922.728,949.754 925.034,946.609 927.341,943.462 929.647,940.314 931.954,937.163 934.26,934.011 936.567,930.859 938.873,927.706 941.18,924.552 943.486,921.399 
  945.793,918.246 948.099,915.094 950.406,911.944 952.712,908.794 955.019,905.646 957.325,902.501 959.632,899.358 961.938,896.217 964.245,893.08 966.551,889.945 
  968.858,886.815 971.164,883.688 973.471,880.566 975.777,877.448 978.084,874.335 980.39,871.228 982.697,868.126 985.003,865.029 987.31,861.939 989.616,858.855 
  991.923,855.778 994.229,852.707 996.536,849.644 998.842,846.589 1001.15,843.541 1003.45,840.501 1005.76,837.47 1008.07,834.447 1010.37,831.434 1012.68,828.429 
  1014.99,825.434 1017.29,822.449 1019.6,819.474 1021.91,816.509 1024.21,813.555 1026.52,810.611 1028.83,807.679 1031.13,804.758 1033.44,801.848 1035.75,798.951 
  1038.05,796.065 1040.36,793.192 1042.67,790.332 1044.97,787.484 1047.28,784.649 1049.58,781.828 1051.89,779.021 1054.2,776.227 1056.5,773.448 1058.81,770.682 
  1061.12,767.932 1063.42,765.196 1065.73,762.475 1068.04,759.769 1070.34,757.079 1072.65,754.405 1074.96,751.746 1077.26,749.104 1079.57,746.478 1081.88,743.869 
  1084.18,741.276 1086.49,738.701 1088.8,736.142 1091.1,733.601 1093.41,731.078 1095.71,728.573 1098.02,726.086 1100.33,723.617 1102.63,721.166 1104.94,718.735 
  1107.25,716.322 1109.55,713.928 1111.86,711.553 1114.17,709.198 1116.47,706.863 1118.78,704.547 1121.09,702.252 1123.39,699.976 1125.7,697.721 1128.01,695.487 
  1130.31,693.273 1132.62,691.08 1134.93,688.909 1137.23,686.758 1139.54,684.629 1141.84,682.522 1144.15,680.437 1146.46,678.373 1148.76,676.332 1151.07,674.312 
  1153.38,672.316 1155.68,670.341 1157.99,668.39 1160.3,666.461 1162.6,664.556 1164.91,662.674 1167.22,660.815 1169.52,658.979 1171.83,657.167 1174.14,655.379 
  1176.44,653.615 1178.75,651.875 1181.06,650.159 1183.36,648.468 1185.67,646.801 1187.97,645.159 1190.28,643.541 1192.59,641.948 1194.89,640.38 1197.2,638.837 
  1199.51,637.32 1201.81,635.828 1204.12,634.361 1206.43,632.92 1208.73,631.504 1211.04,630.115 1213.35,628.751 1215.65,627.413 1217.96,626.102 1220.27,624.816 
  1222.57,623.557 1224.88,622.325 1227.19,621.119 1229.49,619.939 1231.8,618.786 1234.1,617.661 1236.41,616.562 1238.72,615.49 1241.02,614.445 1243.33,613.427 
  1245.64,612.437 1247.94,611.474 1250.25,610.538 1252.56,609.63 1254.86,608.749 1257.17,607.896 1259.48,607.071 1261.78,606.274 1264.09,605.504 1266.4,604.763 
  1268.7,604.049 1271.01,603.363 1273.32,602.706 1275.62,602.077 1277.93,601.476 1280.23,600.903 1282.54,600.358 1284.85,599.842 1287.15,599.355 1289.46,598.896 
  1291.77,598.465 1294.07,598.063 1296.38,597.69 1298.69,597.345 1300.99,597.029 1303.3,596.742 1305.61,596.483 1307.91,596.253 1310.22,596.052 1312.53,595.88 
  1314.83,595.737 1317.14,595.623 1319.45,595.538 1321.75,595.481 1324.06,595.454 1326.36,595.456 1328.67,595.486 1330.98,595.546 1333.28,595.634 1335.59,595.752 
  1337.9,595.899 1340.2,596.075 1342.51,596.279 1344.82,596.513 1347.12,596.776 1349.43,597.068 1351.74,597.389 1354.04,597.74 1356.35,598.119 1358.66,598.527 
  1360.96,598.964 1363.27,599.43 1365.58,599.925 1367.88,600.45 1370.19,601.003 1372.49,601.585 1374.8,602.196 1377.11,602.836 1379.41,603.504 1381.72,604.202 
  1384.03,604.928 1386.33,605.683 1388.64,606.467 1390.95,607.28 1393.25,608.121 1395.56,608.991 1397.87,609.889 1400.17,610.816 1402.48,611.771 1404.79,612.755 
  1407.09,613.767 1409.4,614.808 1411.71,615.877 1414.01,616.974 1416.32,618.099 1418.62,619.253 1420.93,620.434 1423.24,621.643 1425.54,622.881 1427.85,624.146 
  1430.16,625.439 1432.46,626.76 1434.77,628.108 1437.08,629.484 1439.38,630.888 1441.69,632.318 1444,633.777 1446.3,635.262 1448.61,636.775 1450.92,638.315 
  1453.22,639.881 1455.53,641.475 1457.83,643.095 1460.14,644.743 1462.45,646.416 1464.75,648.117 1467.06,649.844 1469.37,651.597 1471.67,653.376 1473.98,655.182 
  1476.29,657.013 1478.59,658.871 1480.9,660.754 1483.21,662.663 1485.51,664.597 1487.82,666.557 1490.13,668.543 1492.43,670.553 1494.74,672.589 1497.05,674.65 
  1499.35,676.735 1501.66,678.845 1503.96,680.98 1506.27,683.14 1508.58,685.323 1510.88,687.531 1513.19,689.763 1515.5,692.019 1517.8,694.298 1520.11,696.602 
  1522.42,698.928 1524.72,701.279 1527.03,703.652 1529.34,706.048 1531.64,708.467 1533.95,710.909 1536.26,713.374 1538.56,715.861 1540.87,718.37 1543.18,720.902 
  1545.48,723.455 1547.79,726.03 1550.09,728.627 1552.4,731.245 1554.71,733.884 1557.01,736.545 1559.32,739.226 1561.63,741.929 1563.93,744.651 1566.24,747.395 
  1568.55,750.158 1570.85,752.941 1573.16,755.745 1575.47,758.568 1577.77,761.41 1580.08,764.272 1582.39,767.152 1584.69,770.052 1587,772.97 1589.31,775.907 
  1591.61,778.862 1593.92,781.835 1596.22,784.826 1598.53,787.835 1600.84,790.861 1603.14,793.904 1605.45,796.964 1607.76,800.041 1610.06,803.135 1612.37,806.245 
  1614.68,809.372 1616.98,812.514 1619.29,815.672 1621.6,818.845 1623.9,822.034 1626.21,825.238 1628.52,828.456 1630.82,831.689 1633.13,834.936 1635.44,838.198 
  1637.74,841.473 1640.05,844.762 1642.35,848.064 1644.66,851.38 1646.97,854.708 1649.27,858.049 1651.58,861.402 1653.89,864.768 1656.19,868.145 1658.5,871.534 
  1660.81,874.934 1663.11,878.345 1665.42,881.768 1667.73,885.2 1670.03,888.643 1672.34,892.096 1674.65,895.559 1676.95,899.031 1679.26,902.513 1681.57,906.003 
  1683.87,909.502 1686.18,913.01 1688.48,916.525 1690.79,920.049 1693.1,923.58 1695.4,927.118 1697.71,930.663 1700.02,934.214 1702.32,937.773 1704.63,941.337 
  1706.94,944.907 1709.24,948.482 1711.55,952.063 1713.86,955.648 1716.16,959.239 1718.47,962.833 1720.78,966.431 1723.08,970.033 1725.39,973.638 1727.7,977.247 
  1730,980.858 1732.31,984.471 1734.61,988.087 1736.92,991.704 1739.23,995.323 1741.53,998.943 1743.84,1002.56 1746.15,1006.18 1748.45,1009.81 1750.76,1013.43 
  1753.07,1017.05 1755.37,1020.67 1757.68,1024.28 1759.99,1027.9 1762.29,1031.52 1764.6,1035.13 1766.91,1038.74 1769.21,1042.35 1771.52,1045.95 1773.83,1049.55 
  1776.13,1053.14 1778.44,1056.74 1780.74,1060.32 1783.05,1063.91 1785.36,1067.48 1787.66,1071.05 1789.97,1074.62 1792.28,1078.18 1794.58,1081.73 1796.89,1085.27 
  1799.2,1088.81 1801.5,1092.33 1803.81,1095.85 1806.12,1099.36 1808.42,1102.87 1810.73,1106.36 1813.04,1109.84 1815.34,1113.31 1817.65,1116.77 1819.96,1120.23 
  1822.26,1123.66 1824.57,1127.09 1826.87,1130.51 1829.18,1133.91 1831.49,1137.3 1833.79,1140.67 1836.1,1144.03 1838.41,1147.38 1840.71,1150.71 1843.02,1154.03 
  1845.33,1157.33 1847.63,1160.62 1849.94,1163.89 1852.25,1167.14 1854.55,1170.38 1856.86,1173.6 1859.17,1176.8 1861.47,1179.98 1863.78,1183.14 1866.08,1186.29 
  1868.39,1189.41 1870.7,1192.52 1873,1195.6 1875.31,1198.66 1877.62,1201.7 1879.92,1204.72 1882.23,1207.72 1884.54,1210.69 1886.84,1213.64 1889.15,1216.57 
  1891.46,1219.47 1893.76,1222.35 1896.07,1225.21 1898.38,1228.04 1900.68,1230.84 1902.99,1233.61 1905.3,1236.36 1907.6,1239.08 1909.91,1241.78 1912.21,1244.44 
  1914.52,1247.08 1916.83,1249.69 1919.13,1252.27 1921.44,1254.82 1923.75,1257.33 1926.05,1259.82 1928.36,1262.27 1930.67,1264.7 1932.97,1267.09 1935.28,1269.45 
  1937.59,1271.77 1939.89,1274.06 1942.2,1276.31 1944.51,1278.54 1946.81,1280.72 1949.12,1282.87 1951.43,1284.98 1953.73,1287.06 1956.04,1289.1 1958.34,1291.1 
  1960.65,1293.06 1962.96,1294.98 1965.26,1296.87 1967.57,1298.71 1969.88,1300.51 1972.18,1302.28 1974.49,1304 1976.8,1305.67 1979.1,1307.31 1981.41,1308.9 
  1983.72,1310.45 1986.02,1311.96 1988.33,1313.42 1990.64,1314.83 1992.94,1316.2 1995.25,1317.53 1997.56,1318.8 1999.86,1320.03 2002.17,1321.21 2004.47,1322.35 
  2006.78,1323.43 2009.09,1324.47 2011.39,1325.45 2013.7,1326.38 2016.01,1327.27 2018.31,1328.1 2020.62,1328.88 2022.93,1329.6 2025.23,1330.28 2027.54,1330.89 
  2029.85,1331.46 2032.15,1331.97 2034.46,1332.42 2036.77,1332.82 2039.07,1333.16 2041.38,1333.44 2043.69,1333.67 2045.99,1333.83 2048.3,1333.94 2050.6,1333.99 
  2052.91,1333.98 2055.22,1333.9 2057.52,1333.77 2059.83,1333.57 2062.14,1333.31 2064.44,1332.99 2066.75,1332.61 2069.06,1332.16 2071.36,1331.64 2073.67,1331.06 
  2075.98,1330.41 2078.28,1329.7 2080.59,1328.92 2082.9,1328.07 2085.2,1327.15 2087.51,1326.16 2089.82,1325.11 2092.12,1323.98 2094.43,1322.78 2096.73,1321.51 
  2099.04,1320.17 2101.35,1318.76 2103.65,1317.27 2105.96,1315.71 2108.27,1314.07 2110.57,1312.36 2112.88,1310.57 2115.19,1308.7 2117.49,1306.76 2119.8,1304.74 
  2122.11,1302.64 2124.41,1300.46 2126.72,1298.2 2129.03,1295.87 2131.33,1293.45 2133.64,1290.94 2135.95,1288.36 2138.25,1285.69 2140.56,1282.94 2142.86,1280.11 
  2145.17,1277.19 2147.48,1274.18 2149.78,1271.09 2152.09,1267.91 2154.4,1264.64 2156.7,1261.29 2159.01,1257.84 2161.32,1254.31 2163.62,1250.68 2165.93,1246.97 
  2168.24,1243.16 2170.54,1239.26 2172.85,1235.27 2175.16,1231.18 2177.46,1227 2179.77,1222.72 2182.08,1218.35 2184.38,1213.88 2186.69,1209.32 2188.99,1204.65 
  2191.3,1199.89 2193.61,1195.03 2195.91,1190.07 2198.22,1185 2200.53,1179.84 2202.83,1174.58 2205.14,1169.21 2207.45,1163.73 2209.75,1158.16 2212.06,1152.48 
  2214.37,1146.69 2216.67,1140.8 2218.98,1134.79 2221.29,1128.69 2223.59,1122.47 2225.9,1116.14 2228.21,1109.71 2230.51,1103.16 2232.82,1096.5 2235.12,1089.73 
  2237.43,1082.85 2239.74,1075.85 2242.04,1068.74 2244.35,1061.51 2246.66,1054.17 2248.96,1046.71 2251.27,1039.13 2253.58,1031.44 2255.88,1023.62 2258.19,1015.69 
  2260.5,1007.64 2262.8,999.462 2265.11,991.166 2267.42,982.746 2269.72,974.204 2272.03,965.537 2274.33,956.745 2276.64,947.828 2278.95,938.784 2281.25,929.613 
  2283.56,920.314 2285.87,910.886 2288.17,901.328 2290.48,891.641 2292.79,881.822 2295.09,871.871 2297.4,861.788 2299.71,851.571 2302.01,841.22 2304.32,830.734 
  2306.63,820.112 2308.93,809.353 2311.24,798.457 2313.55,787.423 2315.85,776.25 2318.16,764.937 2320.46,753.483 2322.77,741.888 2325.08,730.151 2327.38,718.271 
  2329.69,706.247 2332,694.078 2334.3,681.764 2336.61,669.304 2338.92,656.696 2341.22,643.941 2343.53,631.037 2345.84,617.983 2348.14,604.779 2350.45,591.423 
  2352.76,577.916 
  "/>
<circle clip-path="url(#clip412)" cx="655.174" cy="1192.33" r="28.8" fill="#0000ff" fill-rule="evenodd" fill-opacity="1" stroke="#000000" stroke-opacity="1" stroke-width="3.2"/>
<circle clip-path="url(#clip412)" cx="2050.6" cy="1333.99" r="43.2" fill="#ff0000" fill-rule="evenodd" fill-opacity="1" stroke="#000000" stroke-opacity="1" stroke-width="3.2"/>
<path clip-path="url(#clip410)" d="
M1195.26 443.367 L2283.56 443.367 L2283.56 93.4469 L1195.26 93.4469  Z
  " fill="#ffffff" fill-rule="evenodd" fill-opacity="1"/>
<polyline clip-path="url(#clip410)" style="stroke:#000000; stroke-linecap:round; stroke-linejoin:round; stroke-width:4; stroke-opacity:1; fill:none" points="
  1195.26,443.367 2283.56,443.367 2283.56,93.4469 1195.26,93.4469 1195.26,443.367 
  "/>
<circle clip-path="url(#clip410)" cx="1287.52" cy="210.087" r="51.84" fill="#0000ff" fill-rule="evenodd" fill-opacity="1" stroke="#000000" stroke-opacity="1" stroke-width="5.76"/>
<path clip-path="url(#clip410)" d="M1379.78 171.207 L1390.3 171.207 L1390.3 240.113 L1428.16 240.113 L1428.16 248.967 L1379.78 248.967 L1379.78 171.207 Z" fill="#000000" fill-rule="evenodd" fill-opacity="1" /><path clip-path="url(#clip410)" d="M1459.52 197.353 Q1451.81 197.353 1447.33 203.394 Q1442.85 209.384 1442.85 219.852 Q1442.85 230.321 1447.28 236.363 Q1451.76 242.352 1459.52 242.352 Q1467.17 242.352 1471.65 236.311 Q1476.13 230.269 1476.13 219.852 Q1476.13 209.488 1471.65 203.446 Q1467.17 197.353 1459.52 197.353 M1459.52 189.228 Q1472.02 189.228 1479.15 197.353 Q1486.29 205.478 1486.29 219.852 Q1486.29 234.175 1479.15 242.352 Q1472.02 250.477 1459.52 250.477 Q1446.97 250.477 1439.83 242.352 Q1432.75 234.175 1432.75 219.852 Q1432.75 205.478 1439.83 197.353 Q1446.97 189.228 1459.52 189.228 Z" fill="#000000" fill-rule="evenodd" fill-opacity="1" /><path clip-path="url(#clip410)" d="M1544.15 192.873 L1544.15 201.832 Q1540.09 199.592 1535.98 198.498 Q1531.91 197.353 1527.75 197.353 Q1518.42 197.353 1513.27 203.29 Q1508.11 209.175 1508.11 219.852 Q1508.11 230.529 1513.27 236.467 Q1518.42 242.352 1527.75 242.352 Q1531.91 242.352 1535.98 241.259 Q1540.09 240.113 1544.15 237.873 L1544.15 246.727 Q1540.14 248.602 1535.82 249.54 Q1531.55 250.477 1526.71 250.477 Q1513.53 250.477 1505.77 242.196 Q1498.01 233.915 1498.01 219.852 Q1498.01 205.582 1505.82 197.405 Q1513.68 189.228 1527.33 189.228 Q1531.76 189.228 1535.98 190.165 Q1540.2 191.051 1544.15 192.873 Z" fill="#000000" fill-rule="evenodd" fill-opacity="1" /><path clip-path="url(#clip410)" d="M1587.33 219.644 Q1575.72 219.644 1571.24 222.3 Q1566.76 224.957 1566.76 231.363 Q1566.76 236.467 1570.09 239.488 Q1573.48 242.457 1579.26 242.457 Q1587.23 242.457 1592.02 236.832 Q1596.86 231.154 1596.86 221.78 L1596.86 219.644 L1587.33 219.644 M1606.44 215.686 L1606.44 248.967 L1596.86 248.967 L1596.86 240.113 Q1593.58 245.425 1588.68 247.977 Q1583.79 250.477 1576.71 250.477 Q1567.75 250.477 1562.43 245.477 Q1557.17 240.425 1557.17 231.988 Q1557.17 222.144 1563.74 217.144 Q1570.35 212.144 1583.42 212.144 L1596.86 212.144 L1596.86 211.207 Q1596.86 204.592 1592.49 200.998 Q1588.16 197.353 1580.3 197.353 Q1575.3 197.353 1570.56 198.55 Q1565.82 199.748 1561.45 202.144 L1561.45 193.29 Q1566.71 191.259 1571.65 190.269 Q1576.6 189.228 1581.29 189.228 Q1593.94 189.228 1600.19 195.79 Q1606.44 202.353 1606.44 215.686 Z" fill="#000000" fill-rule="evenodd" fill-opacity="1" /><path clip-path="url(#clip410)" d="M1626.18 167.926 L1635.77 167.926 L1635.77 248.967 L1626.18 248.967 L1626.18 167.926 Z" fill="#000000" fill-rule="evenodd" fill-opacity="1" /><path clip-path="url(#clip410)" d="M1721.7 178.342 Q1710.25 178.342 1703.48 186.884 Q1696.76 195.426 1696.76 210.165 Q1696.76 224.852 1703.48 233.394 Q1710.25 241.936 1721.7 241.936 Q1733.16 241.936 1739.83 233.394 Q1746.55 224.852 1746.55 210.165 Q1746.55 195.426 1739.83 186.884 Q1733.16 178.342 1721.7 178.342 M1721.7 169.801 Q1738.06 169.801 1747.85 180.79 Q1757.64 191.728 1757.64 210.165 Q1757.64 228.55 1747.85 239.54 Q1738.06 250.477 1721.7 250.477 Q1705.3 250.477 1695.45 239.54 Q1685.66 228.602 1685.66 210.165 Q1685.66 191.728 1695.45 180.79 Q1705.3 169.801 1721.7 169.801 Z" fill="#000000" fill-rule="evenodd" fill-opacity="1" /><path clip-path="url(#clip410)" d="M1782.95 240.217 L1782.95 271.154 L1773.32 271.154 L1773.32 190.634 L1782.95 190.634 L1782.95 199.488 Q1785.98 194.28 1790.56 191.78 Q1795.19 189.228 1801.6 189.228 Q1812.22 189.228 1818.84 197.665 Q1825.51 206.103 1825.51 219.852 Q1825.51 233.602 1818.84 242.04 Q1812.22 250.477 1801.6 250.477 Q1795.19 250.477 1790.56 247.977 Q1785.98 245.425 1782.95 240.217 M1815.56 219.852 Q1815.56 209.28 1811.18 203.29 Q1806.86 197.248 1799.26 197.248 Q1791.65 197.248 1787.28 203.29 Q1782.95 209.28 1782.95 219.852 Q1782.95 230.425 1787.28 236.467 Q1791.65 242.457 1799.26 242.457 Q1806.86 242.457 1811.18 236.467 Q1815.56 230.425 1815.56 219.852 Z" fill="#000000" fill-rule="evenodd" fill-opacity="1" /><path clip-path="url(#clip410)" d="M1850.87 174.071 L1850.87 190.634 L1870.61 190.634 L1870.61 198.082 L1850.87 198.082 L1850.87 229.748 Q1850.87 236.884 1852.8 238.915 Q1854.78 240.946 1860.77 240.946 L1870.61 240.946 L1870.61 248.967 L1860.77 248.967 Q1849.67 248.967 1845.45 244.852 Q1841.24 240.686 1841.24 229.748 L1841.24 198.082 L1834.2 198.082 L1834.2 190.634 L1841.24 190.634 L1841.24 174.071 L1850.87 174.071 Z" fill="#000000" fill-rule="evenodd" fill-opacity="1" /><path clip-path="url(#clip410)" d="M1883.21 190.634 L1892.8 190.634 L1892.8 248.967 L1883.21 248.967 L1883.21 190.634 M1883.21 167.926 L1892.8 167.926 L1892.8 180.061 L1883.21 180.061 L1883.21 167.926 Z" fill="#000000" fill-rule="evenodd" fill-opacity="1" /><path clip-path="url(#clip410)" d="M1958.27 201.832 Q1961.86 195.373 1966.86 192.301 Q1971.86 189.228 1978.63 189.228 Q1987.74 189.228 1992.69 195.634 Q1997.64 201.988 1997.64 213.759 L1997.64 248.967 L1988.01 248.967 L1988.01 214.071 Q1988.01 205.686 1985.04 201.623 Q1982.07 197.561 1975.97 197.561 Q1968.53 197.561 1964.2 202.509 Q1959.88 207.457 1959.88 215.998 L1959.88 248.967 L1950.25 248.967 L1950.25 214.071 Q1950.25 205.634 1947.28 201.623 Q1944.31 197.561 1938.11 197.561 Q1930.77 197.561 1926.44 202.561 Q1922.12 207.509 1922.12 215.998 L1922.12 248.967 L1912.48 248.967 L1912.48 190.634 L1922.12 190.634 L1922.12 199.696 Q1925.4 194.332 1929.98 191.78 Q1934.57 189.228 1940.87 189.228 Q1947.22 189.228 1951.65 192.457 Q1956.13 195.686 1958.27 201.832 Z" fill="#000000" fill-rule="evenodd" fill-opacity="1" /><path clip-path="url(#clip410)" d="M2015.77 225.946 L2015.77 190.634 L2025.35 190.634 L2025.35 225.582 Q2025.35 233.863 2028.58 238.029 Q2031.81 242.144 2038.27 242.144 Q2046.03 242.144 2050.5 237.196 Q2055.04 232.248 2055.04 223.707 L2055.04 190.634 L2064.62 190.634 L2064.62 248.967 L2055.04 248.967 L2055.04 240.009 Q2051.55 245.321 2046.91 247.925 Q2042.33 250.477 2036.23 250.477 Q2026.18 250.477 2020.97 244.227 Q2015.77 237.977 2015.77 225.946 M2039.88 189.228 L2039.88 189.228 Z" fill="#000000" fill-rule="evenodd" fill-opacity="1" /><path clip-path="url(#clip410)" d="M2129.78 201.832 Q2133.37 195.373 2138.37 192.301 Q2143.37 189.228 2150.14 189.228 Q2159.25 189.228 2164.2 195.634 Q2169.15 201.988 2169.15 213.759 L2169.15 248.967 L2159.51 248.967 L2159.51 214.071 Q2159.51 205.686 2156.55 201.623 Q2153.58 197.561 2147.48 197.561 Q2140.04 197.561 2135.71 202.509 Q2131.39 207.457 2131.39 215.998 L2131.39 248.967 L2121.75 248.967 L2121.75 214.071 Q2121.75 205.634 2118.79 201.623 Q2115.82 197.561 2109.62 197.561 Q2102.28 197.561 2097.95 202.561 Q2093.63 207.509 2093.63 215.998 L2093.63 248.967 L2083.99 248.967 L2083.99 190.634 L2093.63 190.634 L2093.63 199.696 Q2096.91 194.332 2101.49 191.78 Q2106.08 189.228 2112.38 189.228 Q2118.73 189.228 2123.16 192.457 Q2127.64 195.686 2129.78 201.832 Z" fill="#000000" fill-rule="evenodd" fill-opacity="1" /><circle clip-path="url(#clip410)" cx="1287.52" cy="326.727" r="51.84" fill="#ff0000" fill-rule="evenodd" fill-opacity="1" stroke="#000000" stroke-opacity="1" stroke-width="3.84"/>
<path clip-path="url(#clip410)" d="M1437.28 354.513 L1437.28 333.628 L1420.09 333.628 L1420.09 324.982 L1447.7 324.982 L1447.7 358.367 Q1441.6 362.69 1434.26 364.93 Q1426.91 367.117 1418.58 367.117 Q1400.35 367.117 1390.04 356.492 Q1379.78 345.815 1379.78 326.805 Q1379.78 307.743 1390.04 297.118 Q1400.35 286.441 1418.58 286.441 Q1426.19 286.441 1433.01 288.316 Q1439.88 290.191 1445.66 293.836 L1445.66 305.034 Q1439.83 300.086 1433.27 297.586 Q1426.71 295.086 1419.47 295.086 Q1405.2 295.086 1398.01 303.055 Q1390.87 311.024 1390.87 326.805 Q1390.87 342.534 1398.01 350.503 Q1405.2 358.472 1419.47 358.472 Q1425.04 358.472 1429.41 357.534 Q1433.79 356.544 1437.28 354.513 Z" fill="#000000" fill-rule="evenodd" fill-opacity="1" /><path clip-path="url(#clip410)" d="M1466.5 284.566 L1476.08 284.566 L1476.08 365.607 L1466.5 365.607 L1466.5 284.566 Z" fill="#000000" fill-rule="evenodd" fill-opacity="1" /><path clip-path="url(#clip410)" d="M1518.74 313.993 Q1511.03 313.993 1506.55 320.034 Q1502.07 326.024 1502.07 336.492 Q1502.07 346.961 1506.5 353.003 Q1510.98 358.992 1518.74 358.992 Q1526.39 358.992 1530.87 352.951 Q1535.35 346.909 1535.35 336.492 Q1535.35 326.128 1530.87 320.086 Q1526.39 313.993 1518.74 313.993 M1518.74 305.868 Q1531.24 305.868 1538.37 313.993 Q1545.51 322.118 1545.51 336.492 Q1545.51 350.815 1538.37 358.992 Q1531.24 367.117 1518.74 367.117 Q1506.18 367.117 1499.05 358.992 Q1491.97 350.815 1491.97 336.492 Q1491.97 322.118 1499.05 313.993 Q1506.18 305.868 1518.74 305.868 Z" fill="#000000" fill-rule="evenodd" fill-opacity="1" /><path clip-path="url(#clip410)" d="M1603.27 336.492 Q1603.27 325.92 1598.89 319.93 Q1594.57 313.888 1586.97 313.888 Q1579.36 313.888 1574.99 319.93 Q1570.66 325.92 1570.66 336.492 Q1570.66 347.065 1574.99 353.107 Q1579.36 359.097 1586.97 359.097 Q1594.57 359.097 1598.89 353.107 Q1603.27 347.065 1603.27 336.492 M1570.66 316.128 Q1573.68 310.92 1578.27 308.42 Q1582.9 305.868 1589.31 305.868 Q1599.93 305.868 1606.55 314.305 Q1613.22 322.743 1613.22 336.492 Q1613.22 350.242 1606.55 358.68 Q1599.93 367.117 1589.31 367.117 Q1582.9 367.117 1578.27 364.617 Q1573.68 362.065 1570.66 356.857 L1570.66 365.607 L1561.03 365.607 L1561.03 284.566 L1570.66 284.566 L1570.66 316.128 Z" fill="#000000" fill-rule="evenodd" fill-opacity="1" /><path clip-path="url(#clip410)" d="M1655.61 336.284 Q1644 336.284 1639.52 338.94 Q1635.04 341.597 1635.04 348.003 Q1635.04 353.107 1638.37 356.128 Q1641.76 359.097 1647.54 359.097 Q1655.51 359.097 1660.3 353.472 Q1665.14 347.794 1665.14 338.42 L1665.14 336.284 L1655.61 336.284 M1674.73 332.326 L1674.73 365.607 L1665.14 365.607 L1665.14 356.753 Q1661.86 362.065 1656.97 364.617 Q1652.07 367.117 1644.99 367.117 Q1636.03 367.117 1630.72 362.117 Q1625.46 357.065 1625.46 348.628 Q1625.46 338.784 1632.02 333.784 Q1638.63 328.784 1651.71 328.784 L1665.14 328.784 L1665.14 327.847 Q1665.14 321.232 1660.77 317.638 Q1656.44 313.993 1648.58 313.993 Q1643.58 313.993 1638.84 315.19 Q1634.1 316.388 1629.73 318.784 L1629.73 309.93 Q1634.99 307.899 1639.93 306.909 Q1644.88 305.868 1649.57 305.868 Q1662.23 305.868 1668.48 312.43 Q1674.73 318.993 1674.73 332.326 Z" fill="#000000" fill-rule="evenodd" fill-opacity="1" /><path clip-path="url(#clip410)" d="M1694.47 284.566 L1704.05 284.566 L1704.05 365.607 L1694.47 365.607 L1694.47 284.566 Z" fill="#000000" fill-rule="evenodd" fill-opacity="1" /><path clip-path="url(#clip410)" d="M1789.99 294.982 Q1778.53 294.982 1771.76 303.524 Q1765.04 312.066 1765.04 326.805 Q1765.04 341.492 1771.76 350.034 Q1778.53 358.576 1789.99 358.576 Q1801.44 358.576 1808.11 350.034 Q1814.83 341.492 1814.83 326.805 Q1814.83 312.066 1808.11 303.524 Q1801.44 294.982 1789.99 294.982 M1789.99 286.441 Q1806.34 286.441 1816.13 297.43 Q1825.92 308.368 1825.92 326.805 Q1825.92 345.19 1816.13 356.18 Q1806.34 367.117 1789.99 367.117 Q1773.58 367.117 1763.74 356.18 Q1753.94 345.242 1753.94 326.805 Q1753.94 308.368 1763.74 297.43 Q1773.58 286.441 1789.99 286.441 Z" fill="#000000" fill-rule="evenodd" fill-opacity="1" /><path clip-path="url(#clip410)" d="M1851.24 356.857 L1851.24 387.794 L1841.6 387.794 L1841.6 307.274 L1851.24 307.274 L1851.24 316.128 Q1854.26 310.92 1858.84 308.42 Q1863.47 305.868 1869.88 305.868 Q1880.51 305.868 1887.12 314.305 Q1893.79 322.743 1893.79 336.492 Q1893.79 350.242 1887.12 358.68 Q1880.51 367.117 1869.88 367.117 Q1863.47 367.117 1858.84 364.617 Q1854.26 362.065 1851.24 356.857 M1883.84 336.492 Q1883.84 325.92 1879.46 319.93 Q1875.14 313.888 1867.54 313.888 Q1859.93 313.888 1855.56 319.93 Q1851.24 325.92 1851.24 336.492 Q1851.24 347.065 1855.56 353.107 Q1859.93 359.097 1867.54 359.097 Q1875.14 359.097 1879.46 353.107 Q1883.84 347.065 1883.84 336.492 Z" fill="#000000" fill-rule="evenodd" fill-opacity="1" /><path clip-path="url(#clip410)" d="M1919.15 290.711 L1919.15 307.274 L1938.89 307.274 L1938.89 314.722 L1919.15 314.722 L1919.15 346.388 Q1919.15 353.524 1921.08 355.555 Q1923.06 357.586 1929.05 357.586 L1938.89 357.586 L1938.89 365.607 L1929.05 365.607 Q1917.95 365.607 1913.73 361.492 Q1909.52 357.326 1909.52 346.388 L1909.52 314.722 L1902.48 314.722 L1902.48 307.274 L1909.52 307.274 L1909.52 290.711 L1919.15 290.711 Z" fill="#000000" fill-rule="evenodd" fill-opacity="1" /><path clip-path="url(#clip410)" d="M1951.5 307.274 L1961.08 307.274 L1961.08 365.607 L1951.5 365.607 L1951.5 307.274 M1951.5 284.566 L1961.08 284.566 L1961.08 296.701 L1951.5 296.701 L1951.5 284.566 Z" fill="#000000" fill-rule="evenodd" fill-opacity="1" /><path clip-path="url(#clip410)" d="M2026.55 318.472 Q2030.14 312.013 2035.14 308.941 Q2040.14 305.868 2046.91 305.868 Q2056.03 305.868 2060.97 312.274 Q2065.92 318.628 2065.92 330.399 L2065.92 365.607 L2056.29 365.607 L2056.29 330.711 Q2056.29 322.326 2053.32 318.263 Q2050.35 314.201 2044.25 314.201 Q2036.81 314.201 2032.48 319.149 Q2028.16 324.097 2028.16 332.638 L2028.16 365.607 L2018.53 365.607 L2018.53 330.711 Q2018.53 322.274 2015.56 318.263 Q2012.59 314.201 2006.39 314.201 Q1999.05 314.201 1994.72 319.201 Q1990.4 324.149 1990.4 332.638 L1990.4 365.607 L1980.77 365.607 L1980.77 307.274 L1990.4 307.274 L1990.4 316.336 Q1993.68 310.972 1998.27 308.42 Q2002.85 305.868 2009.15 305.868 Q2015.51 305.868 2019.93 309.097 Q2024.41 312.326 2026.55 318.472 Z" fill="#000000" fill-rule="evenodd" fill-opacity="1" /><path clip-path="url(#clip410)" d="M2084.05 342.586 L2084.05 307.274 L2093.63 307.274 L2093.63 342.222 Q2093.63 350.503 2096.86 354.669 Q2100.09 358.784 2106.55 358.784 Q2114.31 358.784 2118.79 353.836 Q2123.32 348.888 2123.32 340.347 L2123.32 307.274 L2132.9 307.274 L2132.9 365.607 L2123.32 365.607 L2123.32 356.649 Q2119.83 361.961 2115.19 364.565 Q2110.61 367.117 2104.52 367.117 Q2094.46 367.117 2089.25 360.867 Q2084.05 354.617 2084.05 342.586 M2108.16 305.868 L2108.16 305.868 Z" fill="#000000" fill-rule="evenodd" fill-opacity="1" /><path clip-path="url(#clip410)" d="M2198.06 318.472 Q2201.65 312.013 2206.65 308.941 Q2211.65 305.868 2218.42 305.868 Q2227.54 305.868 2232.48 312.274 Q2237.43 318.628 2237.43 330.399 L2237.43 365.607 L2227.8 365.607 L2227.8 330.711 Q2227.8 322.326 2224.83 318.263 Q2221.86 314.201 2215.76 314.201 Q2208.32 314.201 2203.99 319.149 Q2199.67 324.097 2199.67 332.638 L2199.67 365.607 L2190.04 365.607 L2190.04 330.711 Q2190.04 322.274 2187.07 318.263 Q2184.1 314.201 2177.9 314.201 Q2170.56 314.201 2166.23 319.201 Q2161.91 324.149 2161.91 332.638 L2161.91 365.607 L2152.28 365.607 L2152.28 307.274 L2161.91 307.274 L2161.91 316.336 Q2165.19 310.972 2169.78 308.42 Q2174.36 305.868 2180.66 305.868 Q2187.01 305.868 2191.44 309.097 Q2195.92 312.326 2198.06 318.472 Z" fill="#000000" fill-rule="evenodd" fill-opacity="1" /></svg>
