<?xml version="1.0" encoding="utf-8"?>
<svg xmlns="http://www.w3.org/2000/svg" xmlns:xlink="http://www.w3.org/1999/xlink" width="600" height="600" viewBox="0 0 2400 2400">
<defs>
  <clipPath id="clip700">
    <rect x="0" y="0" width="2400" height="2400"/>
  </clipPath>
</defs>
<path clip-path="url(#clip700)" d="
M0 2400 L2400 2400 L2400 0 L0 0  Z
  " fill="#ffffff" fill-rule="evenodd" fill-opacity="1"/>
<defs>
  <clipPath id="clip701">
    <rect x="480" y="240" width="1681" height="1681"/>
  </clipPath>
</defs>
<defs>
  <clipPath id="clip702">
    <rect x="339" y="988" width="2014" height="1245"/>
  </clipPath>
</defs>
<path clip-path="url(#clip700)" d="
M653.325 1817.74 L2242.52 1817.74 L2242.52 47.2441 L653.325 47.2441  Z
  " fill="#ffffff" fill-rule="evenodd" fill-opacity="1"/>
<defs>
  <clipPath id="clip703">
    <rect x="653" y="47" width="1590" height="1771"/>
  </clipPath>
</defs>
<polyline clip-path="url(#clip700)" style="stroke:#000000; stroke-linecap:butt; stroke-linejoin:round; stroke-width:4; stroke-opacity:1; fill:none" points="
  653.325,1817.74 2242.52,1817.74 
  "/>
<polyline clip-path="url(#clip700)" style="stroke:#000000; stroke-linecap:butt; stroke-linejoin:round; stroke-width:4; stroke-opacity:1; fill:none" points="
  653.325,1817.74 653.325,1798.84 
  "/>
<polyline clip-path="url(#clip700)" style="stroke:#000000; stroke-linecap:butt; stroke-linejoin:round; stroke-width:4; stroke-opacity:1; fill:none" points="
  812.244,1817.74 812.244,1798.84 
  "/>
<polyline clip-path="url(#clip700)" style="stroke:#000000; stroke-linecap:butt; stroke-linejoin:round; stroke-width:4; stroke-opacity:1; fill:none" points="
  971.164,1817.74 971.164,1798.84 
  "/>
<polyline clip-path="url(#clip700)" style="stroke:#000000; stroke-linecap:butt; stroke-linejoin:round; stroke-width:4; stroke-opacity:1; fill:none" points="
  1130.08,1817.74 1130.08,1798.84 
  "/>
<polyline clip-path="url(#clip700)" style="stroke:#000000; stroke-linecap:butt; stroke-linejoin:round; stroke-width:4; stroke-opacity:1; fill:none" points="
  1289,1817.74 1289,1798.84 
  "/>
<polyline clip-path="url(#clip700)" style="stroke:#000000; stroke-linecap:butt; stroke-linejoin:round; stroke-width:4; stroke-opacity:1; fill:none" points="
  1447.92,1817.74 1447.92,1798.84 
  "/>
<polyline clip-path="url(#clip700)" style="stroke:#000000; stroke-linecap:butt; stroke-linejoin:round; stroke-width:4; stroke-opacity:1; fill:none" points="
  1606.84,1817.74 1606.84,1798.84 
  "/>
<polyline clip-path="url(#clip700)" style="stroke:#000000; stroke-linecap:butt; stroke-linejoin:round; stroke-width:4; stroke-opacity:1; fill:none" points="
  1765.76,1817.74 1765.76,1798.84 
  "/>
<polyline clip-path="url(#clip700)" style="stroke:#000000; stroke-linecap:butt; stroke-linejoin:round; stroke-width:4; stroke-opacity:1; fill:none" points="
  1924.68,1817.74 1924.68,1798.84 
  "/>
<polyline clip-path="url(#clip700)" style="stroke:#000000; stroke-linecap:butt; stroke-linejoin:round; stroke-width:4; stroke-opacity:1; fill:none" points="
  2083.6,1817.74 2083.6,1798.84 
  "/>
<polyline clip-path="url(#clip700)" style="stroke:#000000; stroke-linecap:butt; stroke-linejoin:round; stroke-width:4; stroke-opacity:1; fill:none" points="
  2242.52,1817.74 2242.52,1798.84 
  "/>
<path clip-path="url(#clip700)" d="M562.862 1883.81 Q548.418 1883.81 541.103 1898.07 Q533.881 1912.24 533.881 1940.76 Q533.881 1969.18 541.103 1983.44 Q548.418 1997.61 562.862 1997.61 Q577.399 1997.61 584.621 1983.44 Q591.936 1969.18 591.936 1940.76 Q591.936 1912.24 584.621 1898.07 Q577.399 1883.81 562.862 1883.81 M562.862 1869 Q586.103 1869 598.325 1887.43 Q610.64 1905.76 610.64 1940.76 Q610.64 1975.67 598.325 1994.09 Q586.103 2012.43 562.862 2012.43 Q539.621 2012.43 527.307 1994.09 Q515.085 1975.67 515.085 1940.76 Q515.085 1905.76 527.307 1887.43 Q539.621 1869 562.862 1869 Z" fill="#000000" fill-rule="evenodd" fill-opacity="1" /><path clip-path="url(#clip700)" d="M643.51 1986.22 L663.047 1986.22 L663.047 2009.74 L643.51 2009.74 L643.51 1986.22 Z" fill="#000000" fill-rule="evenodd" fill-opacity="1" /><path clip-path="url(#clip700)" d="M743.787 1883.81 Q729.343 1883.81 722.028 1898.07 Q714.806 1912.24 714.806 1940.76 Q714.806 1969.18 722.028 1983.44 Q729.343 1997.61 743.787 1997.61 Q758.324 1997.61 765.546 1983.44 Q772.861 1969.18 772.861 1940.76 Q772.861 1912.24 765.546 1898.07 Q758.324 1883.81 743.787 1883.81 M743.787 1869 Q767.028 1869 779.25 1887.43 Q791.565 1905.76 791.565 1940.76 Q791.565 1975.67 779.25 1994.09 Q767.028 2012.43 743.787 2012.43 Q720.546 2012.43 708.232 1994.09 Q696.01 1975.67 696.01 1940.76 Q696.01 1905.76 708.232 1887.43 Q720.546 1869 743.787 1869 Z" fill="#000000" fill-rule="evenodd" fill-opacity="1" /><path clip-path="url(#clip700)" d="M724.235 1883.81 Q709.791 1883.81 702.476 1898.07 Q695.254 1912.24 695.254 1940.76 Q695.254 1969.18 702.476 1983.44 Q709.791 1997.61 724.235 1997.61 Q738.772 1997.61 745.994 1983.44 Q753.309 1969.18 753.309 1940.76 Q753.309 1912.24 745.994 1898.07 Q738.772 1883.81 724.235 1883.81 M724.235 1869 Q747.476 1869 759.698 1887.43 Q772.013 1905.76 772.013 1940.76 Q772.013 1975.67 759.698 1994.09 Q747.476 2012.43 724.235 2012.43 Q700.995 2012.43 688.68 1994.09 Q676.458 1975.67 676.458 1940.76 Q676.458 1905.76 688.68 1887.43 Q700.995 1869 724.235 1869 Z" fill="#000000" fill-rule="evenodd" fill-opacity="1" /><path clip-path="url(#clip700)" d="M804.883 1986.22 L824.42 1986.22 L824.42 2009.74 L804.883 2009.74 L804.883 1986.22 Z" fill="#000000" fill-rule="evenodd" fill-opacity="1" /><path clip-path="url(#clip700)" d="M868.401 1994 L898.957 1994 L898.957 1888.54 L865.716 1895.2 L865.716 1878.17 L898.771 1871.5 L917.475 1871.5 L917.475 1994 L948.03 1994 L948.03 2009.74 L868.401 2009.74 L868.401 1994 Z" fill="#000000" fill-rule="evenodd" fill-opacity="1" /><path clip-path="url(#clip700)" d="M883.896 1883.81 Q869.451 1883.81 862.136 1898.07 Q854.914 1912.24 854.914 1940.76 Q854.914 1969.18 862.136 1983.44 Q869.451 1997.61 883.896 1997.61 Q898.433 1997.61 905.655 1983.44 Q912.969 1969.18 912.969 1940.76 Q912.969 1912.24 905.655 1898.07 Q898.433 1883.81 883.896 1883.81 M883.896 1869 Q907.136 1869 919.358 1887.43 Q931.673 1905.76 931.673 1940.76 Q931.673 1975.67 919.358 1994.09 Q907.136 2012.43 883.896 2012.43 Q860.655 2012.43 848.34 1994.09 Q836.118 1975.67 836.118 1940.76 Q836.118 1905.76 848.34 1887.43 Q860.655 1869 883.896 1869 Z" fill="#000000" fill-rule="evenodd" fill-opacity="1" /><path clip-path="url(#clip700)" d="M964.543 1986.22 L984.08 1986.22 L984.08 2009.74 L964.543 2009.74 L964.543 1986.22 Z" fill="#000000" fill-rule="evenodd" fill-opacity="1" /><path clip-path="url(#clip700)" d="M1040.93 1994 L1106.21 1994 L1106.21 2009.74 L1018.43 2009.74 L1018.43 1994 Q1029.08 1982.98 1047.41 1964.46 Q1065.84 1945.85 1070.56 1940.48 Q1079.54 1930.39 1083.06 1923.44 Q1086.67 1916.41 1086.67 1909.65 Q1086.67 1898.63 1078.89 1891.68 Q1071.21 1884.74 1058.8 1884.74 Q1050.01 1884.74 1040.19 1887.8 Q1030.47 1890.85 1019.36 1897.06 L1019.36 1878.17 Q1030.65 1873.63 1040.47 1871.31 Q1050.28 1869 1058.43 1869 Q1079.91 1869 1092.69 1879.74 Q1105.47 1890.48 1105.47 1908.44 Q1105.47 1916.96 1102.23 1924.65 Q1099.08 1932.24 1090.65 1942.61 Q1088.34 1945.3 1075.93 1958.17 Q1063.52 1970.94 1040.93 1994 Z" fill="#000000" fill-rule="evenodd" fill-opacity="1" /><path clip-path="url(#clip700)" d="M1040.92 1883.81 Q1026.47 1883.81 1019.16 1898.07 Q1011.94 1912.24 1011.94 1940.76 Q1011.94 1969.18 1019.16 1983.44 Q1026.47 1997.61 1040.92 1997.61 Q1055.45 1997.61 1062.68 1983.44 Q1069.99 1969.18 1069.99 1940.76 Q1069.99 1912.24 1062.68 1898.07 Q1055.45 1883.81 1040.92 1883.81 M1040.92 1869 Q1064.16 1869 1076.38 1887.43 Q1088.69 1905.76 1088.69 1940.76 Q1088.69 1975.67 1076.38 1994.09 Q1064.16 2012.43 1040.92 2012.43 Q1017.68 2012.43 1005.36 1994.09 Q993.139 1975.67 993.139 1940.76 Q993.139 1905.76 1005.36 1887.43 Q1017.68 1869 1040.92 1869 Z" fill="#000000" fill-rule="evenodd" fill-opacity="1" /><path clip-path="url(#clip700)" d="M1121.56 1986.22 L1141.1 1986.22 L1141.1 2009.74 L1121.56 2009.74 L1121.56 1986.22 Z" fill="#000000" fill-rule="evenodd" fill-opacity="1" /><path clip-path="url(#clip700)" d="M1238.51 1935.2 Q1251.93 1938.07 1259.43 1947.15 Q1267.03 1956.22 1267.03 1969.55 Q1267.03 1990.02 1252.95 2001.22 Q1238.88 2012.43 1212.95 2012.43 Q1204.25 2012.43 1194.99 2010.67 Q1185.82 2009 1176.01 2005.57 L1176.01 1987.52 Q1183.79 1992.05 1193.05 1994.37 Q1202.3 1996.68 1212.4 1996.68 Q1229.99 1996.68 1239.16 1989.74 Q1248.42 1982.8 1248.42 1969.55 Q1248.42 1957.33 1239.8 1950.48 Q1231.29 1943.54 1216.01 1943.54 L1199.9 1943.54 L1199.9 1928.17 L1216.75 1928.17 Q1230.55 1928.17 1237.86 1922.7 Q1245.18 1917.15 1245.18 1906.78 Q1245.18 1896.13 1237.58 1890.48 Q1230.08 1884.74 1216.01 1884.74 Q1208.32 1884.74 1199.53 1886.41 Q1190.73 1888.07 1180.18 1891.59 L1180.18 1874.93 Q1190.82 1871.96 1200.08 1870.48 Q1209.43 1869 1217.68 1869 Q1238.97 1869 1251.38 1878.72 Q1263.79 1888.35 1263.79 1904.83 Q1263.79 1916.31 1257.21 1924.28 Q1250.64 1932.15 1238.51 1935.2 Z" fill="#000000" fill-rule="evenodd" fill-opacity="1" /><path clip-path="url(#clip700)" d="M1197.57 1883.81 Q1183.12 1883.81 1175.81 1898.07 Q1168.59 1912.24 1168.59 1940.76 Q1168.59 1969.18 1175.81 1983.44 Q1183.12 1997.61 1197.57 1997.61 Q1212.1 1997.61 1219.33 1983.44 Q1226.64 1969.18 1226.64 1940.76 Q1226.64 1912.24 1219.33 1898.07 Q1212.1 1883.81 1197.57 1883.81 M1197.57 1869 Q1220.81 1869 1233.03 1887.43 Q1245.35 1905.76 1245.35 1940.76 Q1245.35 1975.67 1233.03 1994.09 Q1220.81 2012.43 1197.57 2012.43 Q1174.33 2012.43 1162.01 1994.09 Q1149.79 1975.67 1149.79 1940.76 Q1149.79 1905.76 1162.01 1887.43 Q1174.33 1869 1197.57 1869 Z" fill="#000000" fill-rule="evenodd" fill-opacity="1" /><path clip-path="url(#clip700)" d="M1278.22 1986.22 L1297.75 1986.22 L1297.75 2009.74 L1278.22 2009.74 L1278.22 1986.22 Z" fill="#000000" fill-rule="evenodd" fill-opacity="1" /><path clip-path="url(#clip700)" d="M1389.88 1887.8 L1342.66 1961.59 L1389.88 1961.59 L1389.88 1887.8 M1384.97 1871.5 L1408.49 1871.5 L1408.49 1961.59 L1428.21 1961.59 L1428.21 1977.15 L1408.49 1977.15 L1408.49 2009.74 L1389.88 2009.74 L1389.88 1977.15 L1327.47 1977.15 L1327.47 1959.09 L1384.97 1871.5 Z" fill="#000000" fill-rule="evenodd" fill-opacity="1" /><path clip-path="url(#clip700)" d="M1359.45 1883.81 Q1345.01 1883.81 1337.69 1898.07 Q1330.47 1912.24 1330.47 1940.76 Q1330.47 1969.18 1337.69 1983.44 Q1345.01 1997.61 1359.45 1997.61 Q1373.99 1997.61 1381.21 1983.44 Q1388.52 1969.18 1388.52 1940.76 Q1388.52 1912.24 1381.21 1898.07 Q1373.99 1883.81 1359.45 1883.81 M1359.45 1869 Q1382.69 1869 1394.91 1887.43 Q1407.23 1905.76 1407.23 1940.76 Q1407.23 1975.67 1394.91 1994.09 Q1382.69 2012.43 1359.45 2012.43 Q1336.21 2012.43 1323.9 1994.09 Q1311.67 1975.67 1311.67 1940.76 Q1311.67 1905.76 1323.9 1887.43 Q1336.21 1869 1359.45 1869 Z" fill="#000000" fill-rule="evenodd" fill-opacity="1" /><path clip-path="url(#clip700)" d="M1440.1 1986.22 L1459.64 1986.22 L1459.64 2009.74 L1440.1 2009.74 L1440.1 1986.22 Z" fill="#000000" fill-rule="evenodd" fill-opacity="1" /><path clip-path="url(#clip700)" d="M1500.56 1871.5 L1573.99 1871.5 L1573.99 1887.24 L1517.69 1887.24 L1517.69 1921.13 Q1521.76 1919.74 1525.84 1919.09 Q1529.91 1918.35 1533.99 1918.35 Q1557.13 1918.35 1570.65 1931.04 Q1584.17 1943.72 1584.17 1965.39 Q1584.17 1987.7 1570.28 2000.11 Q1556.39 2012.43 1531.12 2012.43 Q1522.41 2012.43 1513.34 2010.94 Q1504.36 2009.46 1494.73 2006.5 L1494.73 1987.7 Q1503.06 1992.24 1511.95 1994.46 Q1520.84 1996.68 1530.75 1996.68 Q1546.76 1996.68 1556.12 1988.26 Q1565.47 1979.83 1565.47 1965.39 Q1565.47 1950.94 1556.12 1942.52 Q1546.76 1934.09 1530.75 1934.09 Q1523.25 1934.09 1515.75 1935.76 Q1508.34 1937.43 1500.56 1940.94 L1500.56 1871.5 Z" fill="#000000" fill-rule="evenodd" fill-opacity="1" /><path clip-path="url(#clip700)" d="M1516.06 1883.81 Q1501.61 1883.81 1494.3 1898.07 Q1487.07 1912.24 1487.07 1940.76 Q1487.07 1969.18 1494.3 1983.44 Q1501.61 1997.61 1516.06 1997.61 Q1530.59 1997.61 1537.81 1983.44 Q1545.13 1969.18 1545.13 1940.76 Q1545.13 1912.24 1537.81 1898.07 Q1530.59 1883.81 1516.06 1883.81 M1516.06 1869 Q1539.3 1869 1551.52 1887.43 Q1563.83 1905.76 1563.83 1940.76 Q1563.83 1975.67 1551.52 1994.09 Q1539.3 2012.43 1516.06 2012.43 Q1492.81 2012.43 1480.5 1994.09 Q1468.28 1975.67 1468.28 1940.76 Q1468.28 1905.76 1480.5 1887.43 Q1492.81 1869 1516.06 1869 Z" fill="#000000" fill-rule="evenodd" fill-opacity="1" /><path clip-path="url(#clip700)" d="M1596.7 1986.22 L1616.24 1986.22 L1616.24 2009.74 L1596.7 2009.74 L1596.7 1986.22 Z" fill="#000000" fill-rule="evenodd" fill-opacity="1" /><path clip-path="url(#clip700)" d="M1699.29 1933.17 Q1686.7 1933.17 1679.29 1941.78 Q1671.98 1950.39 1671.98 1965.39 Q1671.98 1980.3 1679.29 1989 Q1686.7 1997.61 1699.29 1997.61 Q1711.89 1997.61 1719.2 1989 Q1726.61 1980.3 1726.61 1965.39 Q1726.61 1950.39 1719.2 1941.78 Q1711.89 1933.17 1699.29 1933.17 M1736.42 1874.56 L1736.42 1891.59 Q1729.39 1888.26 1722.17 1886.5 Q1715.04 1884.74 1708 1884.74 Q1689.48 1884.74 1679.67 1897.24 Q1669.94 1909.74 1668.55 1935.02 Q1674.02 1926.96 1682.26 1922.7 Q1690.5 1918.35 1700.41 1918.35 Q1721.24 1918.35 1733.28 1931.04 Q1745.41 1943.63 1745.41 1965.39 Q1745.41 1986.68 1732.81 1999.55 Q1720.22 2012.43 1699.29 2012.43 Q1675.31 2012.43 1662.63 1994.09 Q1649.94 1975.67 1649.94 1940.76 Q1649.94 1907.98 1665.5 1888.54 Q1681.05 1869 1707.26 1869 Q1714.29 1869 1721.42 1870.39 Q1728.65 1871.78 1736.42 1874.56 Z" fill="#000000" fill-rule="evenodd" fill-opacity="1" /><path clip-path="url(#clip700)" d="M1677.1 1883.81 Q1662.66 1883.81 1655.35 1898.07 Q1648.12 1912.24 1648.12 1940.76 Q1648.12 1969.18 1655.35 1983.44 Q1662.66 1997.61 1677.1 1997.61 Q1691.64 1997.61 1698.86 1983.44 Q1706.18 1969.18 1706.18 1940.76 Q1706.18 1912.24 1698.86 1898.07 Q1691.64 1883.81 1677.1 1883.81 M1677.1 1869 Q1700.34 1869 1712.57 1887.43 Q1724.88 1905.76 1724.88 1940.76 Q1724.88 1975.67 1712.57 1994.09 Q1700.34 2012.43 1677.1 2012.43 Q1653.86 2012.43 1641.55 1994.09 Q1629.33 1975.67 1629.33 1940.76 Q1629.33 1905.76 1641.55 1887.43 Q1653.86 1869 1677.1 1869 Z" fill="#000000" fill-rule="evenodd" fill-opacity="1" /><path clip-path="url(#clip700)" d="M1757.75 1986.22 L1777.29 1986.22 L1777.29 2009.74 L1757.75 2009.74 L1757.75 1986.22 Z" fill="#000000" fill-rule="evenodd" fill-opacity="1" /><path clip-path="url(#clip700)" d="M1813.31 1871.5 L1902.2 1871.5 L1902.2 1879.46 L1852.01 2009.74 L1832.47 2009.74 L1879.7 1887.24 L1813.31 1887.24 L1813.31 1871.5 Z" fill="#000000" fill-rule="evenodd" fill-opacity="1" /><path clip-path="url(#clip700)" d="M1834.4 1883.81 Q1819.96 1883.81 1812.64 1898.07 Q1805.42 1912.24 1805.42 1940.76 Q1805.42 1969.18 1812.64 1983.44 Q1819.96 1997.61 1834.4 1997.61 Q1848.94 1997.61 1856.16 1983.44 Q1863.48 1969.18 1863.48 1940.76 Q1863.48 1912.24 1856.16 1898.07 Q1848.94 1883.81 1834.4 1883.81 M1834.4 1869 Q1857.64 1869 1869.87 1887.43 Q1882.18 1905.76 1882.18 1940.76 Q1882.18 1975.67 1869.87 1994.09 Q1857.64 2012.43 1834.4 2012.43 Q1811.16 2012.43 1798.85 1994.09 Q1786.63 1975.67 1786.63 1940.76 Q1786.63 1905.76 1798.85 1887.43 Q1811.16 1869 1834.4 1869 Z" fill="#000000" fill-rule="evenodd" fill-opacity="1" /><path clip-path="url(#clip700)" d="M1915.05 1986.22 L1934.59 1986.22 L1934.59 2009.74 L1915.05 2009.74 L1915.05 1986.22 Z" fill="#000000" fill-rule="evenodd" fill-opacity="1" /><path clip-path="url(#clip700)" d="M2015.33 1944.09 Q2002 1944.09 1994.31 1951.22 Q1986.72 1958.35 1986.72 1970.85 Q1986.72 1983.35 1994.31 1990.48 Q2002 1997.61 2015.33 1997.61 Q2028.66 1997.61 2036.35 1990.48 Q2044.03 1983.26 2044.03 1970.85 Q2044.03 1958.35 2036.35 1951.22 Q2028.75 1944.09 2015.33 1944.09 M1996.62 1936.13 Q1984.59 1933.17 1977.83 1924.93 Q1971.16 1916.68 1971.16 1904.83 Q1971.16 1888.26 1982.92 1878.63 Q1994.77 1869 2015.33 1869 Q2035.98 1869 2047.74 1878.63 Q2059.49 1888.26 2059.49 1904.83 Q2059.49 1916.68 2052.74 1924.93 Q2046.07 1933.17 2034.12 1936.13 Q2047.64 1939.28 2055.14 1948.44 Q2062.74 1957.61 2062.74 1970.85 Q2062.74 1990.94 2050.42 2001.68 Q2038.2 2012.43 2015.33 2012.43 Q1992.46 2012.43 1980.14 2001.68 Q1967.92 1990.94 1967.92 1970.85 Q1967.92 1957.61 1975.51 1948.44 Q1983.11 1939.28 1996.62 1936.13 M1989.77 1906.59 Q1989.77 1917.33 1996.44 1923.35 Q2003.2 1929.37 2015.33 1929.37 Q2027.37 1929.37 2034.12 1923.35 Q2040.98 1917.33 2040.98 1906.59 Q2040.98 1895.85 2034.12 1889.83 Q2027.37 1883.81 2015.33 1883.81 Q2003.2 1883.81 1996.44 1889.83 Q1989.77 1895.85 1989.77 1906.59 Z" fill="#000000" fill-rule="evenodd" fill-opacity="1" /><path clip-path="url(#clip700)" d="M1993.51 1883.81 Q1979.06 1883.81 1971.75 1898.07 Q1964.53 1912.24 1964.53 1940.76 Q1964.53 1969.18 1971.75 1983.44 Q1979.06 1997.61 1993.51 1997.61 Q2008.05 1997.61 2015.27 1983.44 Q2022.58 1969.18 2022.58 1940.76 Q2022.58 1912.24 2015.27 1898.07 Q2008.05 1883.81 1993.51 1883.81 M1993.51 1869 Q2016.75 1869 2028.97 1887.43 Q2041.29 1905.76 2041.29 1940.76 Q2041.29 1975.67 2028.97 1994.09 Q2016.75 2012.43 1993.51 2012.43 Q1970.27 2012.43 1957.95 1994.09 Q1945.73 1975.67 1945.73 1940.76 Q1945.73 1905.76 1957.95 1887.43 Q1970.27 1869 1993.51 1869 Z" fill="#000000" fill-rule="evenodd" fill-opacity="1" /><path clip-path="url(#clip700)" d="M2074.16 1986.22 L2093.69 1986.22 L2093.69 2009.74 L2074.16 2009.74 L2074.16 1986.22 Z" fill="#000000" fill-rule="evenodd" fill-opacity="1" /><path clip-path="url(#clip700)" d="M2134.99 2006.87 L2134.99 1989.83 Q2142.03 1993.17 2149.25 1994.93 Q2156.47 1996.68 2163.41 1996.68 Q2181.93 1996.68 2191.66 1984.28 Q2201.47 1971.78 2202.86 1946.41 Q2197.49 1954.37 2189.25 1958.63 Q2181.01 1962.89 2171.01 1962.89 Q2150.27 1962.89 2138.14 1950.39 Q2126.1 1937.8 2126.1 1916.04 Q2126.1 1894.74 2138.69 1881.87 Q2151.28 1869 2172.21 1869 Q2196.19 1869 2208.78 1887.43 Q2221.47 1905.76 2221.47 1940.76 Q2221.47 1973.44 2205.91 1992.98 Q2190.45 2012.43 2164.25 2012.43 Q2157.21 2012.43 2149.99 2011.04 Q2142.77 2009.65 2134.99 2006.87 M2172.21 1948.26 Q2184.8 1948.26 2192.12 1939.65 Q2199.53 1931.04 2199.53 1916.04 Q2199.53 1901.13 2192.12 1892.52 Q2184.8 1883.81 2172.21 1883.81 Q2159.62 1883.81 2152.21 1892.52 Q2144.9 1901.13 2144.9 1916.04 Q2144.9 1931.04 2152.21 1939.65 Q2159.62 1948.26 2172.21 1948.26 Z" fill="#000000" fill-rule="evenodd" fill-opacity="1" /><path clip-path="url(#clip700)" d="M2111.13 1994 L2141.69 1994 L2141.69 1888.54 L2108.45 1895.2 L2108.45 1878.17 L2141.5 1871.5 L2160.21 1871.5 L2160.21 1994 L2190.76 1994 L2190.76 2009.74 L2111.13 2009.74 L2111.13 1994 Z" fill="#000000" fill-rule="evenodd" fill-opacity="1" /><path clip-path="url(#clip700)" d="M2228.54 1986.22 L2248.08 1986.22 L2248.08 2009.74 L2228.54 2009.74 L2228.54 1986.22 Z" fill="#000000" fill-rule="evenodd" fill-opacity="1" /><path clip-path="url(#clip700)" d="M2328.82 1883.81 Q2314.37 1883.81 2307.06 1898.07 Q2299.83 1912.24 2299.83 1940.76 Q2299.83 1969.18 2307.06 1983.44 Q2314.37 1997.61 2328.82 1997.61 Q2343.35 1997.61 2350.57 1983.44 Q2357.89 1969.18 2357.89 1940.76 Q2357.89 1912.24 2350.57 1898.07 Q2343.35 1883.81 2328.82 1883.81 M2328.82 1869 Q2352.06 1869 2364.28 1887.43 Q2376.59 1905.76 2376.59 1940.76 Q2376.59 1975.67 2364.28 1994.09 Q2352.06 2012.43 2328.82 2012.43 Q2305.57 2012.43 2293.26 1994.09 Q2281.04 1975.67 2281.04 1940.76 Q2281.04 1905.76 2293.26 1887.43 Q2305.57 1869 2328.82 1869 Z" fill="#000000" fill-rule="evenodd" fill-opacity="1" /><path clip-path="url(#clip700)" d="M1484.16 2055.5 L1479.12 2099.03 Q1478.75 2102.96 1478.14 2104.19 Q1477.52 2105.3 1475.55 2105.3 Q1474.08 2105.3 1473.22 2104.44 Q1472.48 2103.46 1472.48 2102.35 Q1472.48 2101.73 1472.6 2100.14 Q1472.73 2098.54 1472.73 2097.8 Q1473.83 2090.17 1473.83 2084.4 Q1473.83 2073.7 1470.64 2067.92 Q1467.44 2062.02 1459.2 2059.31 Q1450.96 2056.48 1435.47 2056.48 L1400.05 2056.48 Q1391.94 2056.48 1389.97 2057.96 Q1388.12 2059.43 1386.4 2066.32 L1371.28 2126.94 L1395.01 2126.94 Q1403.86 2126.94 1409.15 2125.84 Q1414.56 2124.73 1418.13 2121.65 Q1421.82 2118.46 1423.79 2114.15 Q1425.88 2109.85 1427.97 2102.1 Q1428.58 2099.52 1429.2 2098.54 Q1429.93 2097.55 1431.53 2097.55 Q1432.76 2097.55 1433.62 2098.41 Q1434.48 2099.15 1434.48 2100.26 L1420.1 2159.16 Q1419.36 2162.11 1418.62 2163.22 Q1417.88 2164.2 1416.41 2164.2 Q1414.81 2164.2 1413.95 2163.34 Q1413.09 2162.48 1413.09 2161.5 Q1413.09 2160.51 1413.83 2158.67 Q1415.67 2150.67 1415.67 2146.37 Q1415.67 2143.91 1415.42 2142.68 Q1415.3 2141.45 1414.19 2139.73 Q1413.21 2137.89 1411 2137.03 Q1408.78 2136.16 1404.6 2135.55 Q1400.42 2134.81 1394.15 2134.81 L1369.31 2134.81 L1352.1 2203.55 Q1350.87 2208.1 1350.87 2209.33 Q1350.87 2210.68 1351.48 2211.18 Q1352.22 2211.54 1354.19 2211.79 Q1356.4 2212.16 1359.72 2212.16 L1396.49 2212.16 Q1404.6 2212.16 1411.12 2211.42 Q1417.64 2210.68 1423.05 2208.84 Q1428.58 2206.99 1432.76 2204.9 Q1436.94 2202.81 1440.88 2199 Q1444.81 2195.07 1447.52 2191.62 Q1450.35 2188.06 1453.67 2182.03 Q1456.99 2176.01 1459.32 2171.09 Q1461.66 2166.05 1465.23 2157.93 Q1466.21 2154.98 1468.55 2154.98 Q1469.9 2154.98 1470.64 2155.72 Q1471.37 2156.33 1471.5 2156.95 L1471.5 2157.68 Q1470.76 2160.02 1470.27 2161.25 L1447.15 2215.6 Q1445.8 2218.68 1444.69 2219.29 Q1443.58 2219.91 1439.28 2219.91 L1308.56 2219.91 Q1305.61 2219.91 1304.38 2219.78 Q1303.28 2219.66 1302.42 2219.04 Q1301.56 2218.31 1301.56 2216.83 Q1301.56 2214.5 1302.54 2213.51 Q1303.52 2212.4 1304.63 2212.28 Q1305.74 2212.16 1308.56 2212.16 Q1314.71 2212.16 1318.4 2211.79 Q1322.09 2211.42 1324.43 2210.93 Q1326.89 2210.31 1328.12 2208.59 Q1329.47 2206.87 1330.08 2205.4 Q1330.7 2203.8 1331.56 2200.23 L1364.76 2067.06 Q1365.99 2062.51 1365.99 2061.03 Q1365.99 2059.43 1364.88 2058.45 Q1363.9 2057.47 1361.19 2057.1 Q1358.49 2056.6 1356.28 2056.6 Q1354.19 2056.48 1349.64 2056.48 Q1346.68 2056.48 1345.45 2056.36 Q1344.35 2056.24 1343.49 2055.62 Q1342.63 2055.01 1342.63 2053.65 Q1342.63 2050.21 1344.1 2049.47 Q1345.7 2048.61 1350.13 2048.61 L1477.28 2048.61 Q1482.32 2048.61 1483.42 2049.72 Q1484.65 2050.7 1484.16 2055.5 Z" fill="#000000" fill-rule="evenodd" fill-opacity="1" /><path clip-path="url(#clip700)" d="M1509.78 2189.05 L1509.78 2183.54 Q1530.95 2183.54 1541.89 2172.27 Q1544.9 2172.27 1545.42 2172.96 Q1545.93 2173.65 1545.93 2176.83 L1545.93 2275.73 Q1545.93 2280.98 1548.51 2282.62 Q1551.1 2284.26 1562.37 2284.26 L1567.97 2284.26 L1567.97 2289.68 Q1561.77 2289.16 1539.39 2289.16 Q1517.01 2289.16 1510.9 2289.68 L1510.9 2284.26 L1516.49 2284.26 Q1527.6 2284.26 1530.27 2282.71 Q1532.93 2281.07 1532.93 2275.73 L1532.93 2184.41 Q1523.72 2189.05 1509.78 2189.05 Z" fill="#000000" fill-rule="evenodd" fill-opacity="1" /><polyline clip-path="url(#clip700)" style="stroke:#000000; stroke-linecap:butt; stroke-linejoin:round; stroke-width:4; stroke-opacity:1; fill:none" points="
  653.325,1817.74 653.325,47.2441 
  "/>
<polyline clip-path="url(#clip700)" style="stroke:#000000; stroke-linecap:butt; stroke-linejoin:round; stroke-width:4; stroke-opacity:1; fill:none" points="
  653.325,1817.74 672.222,1817.74 
  "/>
<polyline clip-path="url(#clip700)" style="stroke:#000000; stroke-linecap:butt; stroke-linejoin:round; stroke-width:4; stroke-opacity:1; fill:none" points="
  653.325,1640.69 672.222,1640.69 
  "/>
<polyline clip-path="url(#clip700)" style="stroke:#000000; stroke-linecap:butt; stroke-linejoin:round; stroke-width:4; stroke-opacity:1; fill:none" points="
  653.325,1463.64 672.222,1463.64 
  "/>
<polyline clip-path="url(#clip700)" style="stroke:#000000; stroke-linecap:butt; stroke-linejoin:round; stroke-width:4; stroke-opacity:1; fill:none" points="
  653.325,1286.59 672.222,1286.59 
  "/>
<polyline clip-path="url(#clip700)" style="stroke:#000000; stroke-linecap:butt; stroke-linejoin:round; stroke-width:4; stroke-opacity:1; fill:none" points="
  653.325,1109.54 672.222,1109.54 
  "/>
<polyline clip-path="url(#clip700)" style="stroke:#000000; stroke-linecap:butt; stroke-linejoin:round; stroke-width:4; stroke-opacity:1; fill:none" points="
  653.325,932.492 672.222,932.492 
  "/>
<polyline clip-path="url(#clip700)" style="stroke:#000000; stroke-linecap:butt; stroke-linejoin:round; stroke-width:4; stroke-opacity:1; fill:none" points="
  653.325,755.442 672.222,755.442 
  "/>
<polyline clip-path="url(#clip700)" style="stroke:#000000; stroke-linecap:butt; stroke-linejoin:round; stroke-width:4; stroke-opacity:1; fill:none" points="
  653.325,578.393 672.222,578.393 
  "/>
<polyline clip-path="url(#clip700)" style="stroke:#000000; stroke-linecap:butt; stroke-linejoin:round; stroke-width:4; stroke-opacity:1; fill:none" points="
  653.325,401.343 672.222,401.343 
  "/>
<polyline clip-path="url(#clip700)" style="stroke:#000000; stroke-linecap:butt; stroke-linejoin:round; stroke-width:4; stroke-opacity:1; fill:none" points="
  653.325,224.294 672.222,224.294 
  "/>
<polyline clip-path="url(#clip700)" style="stroke:#000000; stroke-linecap:butt; stroke-linejoin:round; stroke-width:4; stroke-opacity:1; fill:none" points="
  653.325,47.2441 672.222,47.2441 
  "/>
<path clip-path="url(#clip700)" d="M388.622 1760.93 Q374.178 1760.93 366.863 1775.19 Q359.641 1789.36 359.641 1817.88 Q359.641 1846.3 366.863 1860.56 Q374.178 1874.73 388.622 1874.73 Q403.159 1874.73 410.381 1860.56 Q417.696 1846.3 417.696 1817.88 Q417.696 1789.36 410.381 1775.19 Q403.159 1760.93 388.622 1760.93 M388.622 1746.12 Q411.863 1746.12 424.085 1764.55 Q436.4 1782.88 436.4 1817.88 Q436.4 1852.79 424.085 1871.21 Q411.863 1889.55 388.622 1889.55 Q365.381 1889.55 353.067 1871.21 Q340.845 1852.79 340.845 1817.88 Q340.845 1782.88 353.067 1764.55 Q365.381 1746.12 388.622 1746.12 Z" fill="#000000" fill-rule="evenodd" fill-opacity="1" /><path clip-path="url(#clip700)" d="M469.27 1863.34 L488.807 1863.34 L488.807 1886.86 L469.27 1886.86 L469.27 1863.34 Z" fill="#000000" fill-rule="evenodd" fill-opacity="1" /><path clip-path="url(#clip700)" d="M569.547 1760.93 Q555.103 1760.93 547.788 1775.19 Q540.566 1789.36 540.566 1817.88 Q540.566 1846.3 547.788 1860.56 Q555.103 1874.73 569.547 1874.73 Q584.084 1874.73 591.306 1860.56 Q598.621 1846.3 598.621 1817.88 Q598.621 1789.36 591.306 1775.19 Q584.084 1760.93 569.547 1760.93 M569.547 1746.12 Q592.788 1746.12 605.01 1764.55 Q617.325 1782.88 617.325 1817.88 Q617.325 1852.79 605.01 1871.21 Q592.788 1889.55 569.547 1889.55 Q546.306 1889.55 533.992 1871.21 Q521.77 1852.79 521.77 1817.88 Q521.77 1782.88 533.992 1764.55 Q546.306 1746.12 569.547 1746.12 Z" fill="#000000" fill-rule="evenodd" fill-opacity="1" /><path clip-path="url(#clip700)" d="M393.529 1583.89 Q379.085 1583.89 371.77 1598.14 Q364.548 1612.31 364.548 1640.83 Q364.548 1669.25 371.77 1683.51 Q379.085 1697.68 393.529 1697.68 Q408.066 1697.68 415.289 1683.51 Q422.603 1669.25 422.603 1640.83 Q422.603 1612.31 415.289 1598.14 Q408.066 1583.89 393.529 1583.89 M393.529 1569.07 Q416.77 1569.07 428.992 1587.5 Q441.307 1605.83 441.307 1640.83 Q441.307 1675.74 428.992 1694.16 Q416.77 1712.5 393.529 1712.5 Q370.289 1712.5 357.974 1694.16 Q345.752 1675.74 345.752 1640.83 Q345.752 1605.83 357.974 1587.5 Q370.289 1569.07 393.529 1569.07 Z" fill="#000000" fill-rule="evenodd" fill-opacity="1" /><path clip-path="url(#clip700)" d="M474.177 1686.29 L493.714 1686.29 L493.714 1709.81 L474.177 1709.81 L474.177 1686.29 Z" fill="#000000" fill-rule="evenodd" fill-opacity="1" /><path clip-path="url(#clip700)" d="M537.695 1694.07 L568.251 1694.07 L568.251 1588.61 L535.01 1595.27 L535.01 1578.24 L568.066 1571.57 L586.769 1571.57 L586.769 1694.07 L617.325 1694.07 L617.325 1709.81 L537.695 1709.81 L537.695 1694.07 Z" fill="#000000" fill-rule="evenodd" fill-opacity="1" /><path clip-path="url(#clip700)" d="M395.011 1406.84 Q380.567 1406.84 373.252 1421.09 Q366.03 1435.26 366.03 1463.78 Q366.03 1492.21 373.252 1506.46 Q380.567 1520.63 395.011 1520.63 Q409.548 1520.63 416.77 1506.46 Q424.085 1492.21 424.085 1463.78 Q424.085 1435.26 416.77 1421.09 Q409.548 1406.84 395.011 1406.84 M395.011 1392.02 Q418.252 1392.02 430.474 1410.45 Q442.788 1428.78 442.788 1463.78 Q442.788 1498.69 430.474 1517.11 Q418.252 1535.45 395.011 1535.45 Q371.77 1535.45 359.456 1517.11 Q347.233 1498.69 347.233 1463.78 Q347.233 1428.78 359.456 1410.45 Q371.77 1392.02 395.011 1392.02 Z" fill="#000000" fill-rule="evenodd" fill-opacity="1" /><path clip-path="url(#clip700)" d="M475.659 1509.24 L495.196 1509.24 L495.196 1532.76 L475.659 1532.76 L475.659 1509.24 Z" fill="#000000" fill-rule="evenodd" fill-opacity="1" /><path clip-path="url(#clip700)" d="M552.047 1517.02 L617.325 1517.02 L617.325 1532.76 L529.547 1532.76 L529.547 1517.02 Q540.195 1506 558.529 1487.48 Q576.954 1468.87 581.677 1463.5 Q590.658 1453.41 594.177 1446.46 Q597.788 1439.43 597.788 1432.67 Q597.788 1421.65 590.01 1414.71 Q582.325 1407.76 569.917 1407.76 Q561.121 1407.76 551.306 1410.82 Q541.584 1413.87 530.473 1420.08 L530.473 1401.19 Q541.769 1396.65 551.584 1394.34 Q561.399 1392.02 569.547 1392.02 Q591.028 1392.02 603.806 1402.76 Q616.584 1413.5 616.584 1431.46 Q616.584 1439.98 613.343 1447.67 Q610.195 1455.26 601.769 1465.63 Q599.454 1468.32 587.047 1481.19 Q574.64 1493.96 552.047 1517.02 Z" fill="#000000" fill-rule="evenodd" fill-opacity="1" /><path clip-path="url(#clip700)" d="M391.215 1229.79 Q376.77 1229.79 369.456 1244.05 Q362.233 1258.21 362.233 1286.73 Q362.233 1315.16 369.456 1329.41 Q376.77 1343.58 391.215 1343.58 Q405.752 1343.58 412.974 1329.41 Q420.289 1315.16 420.289 1286.73 Q420.289 1258.21 412.974 1244.05 Q405.752 1229.79 391.215 1229.79 M391.215 1214.97 Q414.455 1214.97 426.677 1233.4 Q438.992 1251.73 438.992 1286.73 Q438.992 1321.64 426.677 1340.06 Q414.455 1358.4 391.215 1358.4 Q367.974 1358.4 355.659 1340.06 Q343.437 1321.64 343.437 1286.73 Q343.437 1251.73 355.659 1233.4 Q367.974 1214.97 391.215 1214.97 Z" fill="#000000" fill-rule="evenodd" fill-opacity="1" /><path clip-path="url(#clip700)" d="M471.862 1332.19 L491.399 1332.19 L491.399 1355.71 L471.862 1355.71 L471.862 1332.19 Z" fill="#000000" fill-rule="evenodd" fill-opacity="1" /><path clip-path="url(#clip700)" d="M588.806 1281.17 Q602.232 1284.04 609.732 1293.12 Q617.325 1302.19 617.325 1315.53 Q617.325 1335.99 603.251 1347.19 Q589.177 1358.4 563.251 1358.4 Q554.547 1358.4 545.288 1356.64 Q536.121 1354.97 526.307 1351.54 L526.307 1333.49 Q534.084 1338.03 543.344 1340.34 Q552.603 1342.66 562.695 1342.66 Q580.288 1342.66 589.454 1335.71 Q598.714 1328.77 598.714 1315.53 Q598.714 1303.3 590.103 1296.45 Q581.584 1289.51 566.306 1289.51 L550.195 1289.51 L550.195 1274.14 L567.047 1274.14 Q580.843 1274.14 588.158 1268.67 Q595.473 1263.12 595.473 1252.75 Q595.473 1242.1 587.88 1236.45 Q580.38 1230.71 566.306 1230.71 Q558.621 1230.71 549.825 1232.38 Q541.029 1234.05 530.473 1237.56 L530.473 1220.9 Q541.121 1217.93 550.381 1216.45 Q559.732 1214.97 567.973 1214.97 Q589.269 1214.97 601.677 1224.69 Q614.084 1234.32 614.084 1250.8 Q614.084 1262.29 607.51 1270.25 Q600.936 1278.12 588.806 1281.17 Z" fill="#000000" fill-rule="evenodd" fill-opacity="1" /><path clip-path="url(#clip700)" d="M386.678 1052.74 Q372.233 1052.74 364.919 1067 Q357.696 1081.16 357.696 1109.68 Q357.696 1138.11 364.919 1152.37 Q372.233 1166.53 386.678 1166.53 Q401.215 1166.53 408.437 1152.37 Q415.752 1138.11 415.752 1109.68 Q415.752 1081.16 408.437 1067 Q401.215 1052.74 386.678 1052.74 M386.678 1037.92 Q409.918 1037.92 422.14 1056.35 Q434.455 1074.68 434.455 1109.68 Q434.455 1144.59 422.14 1163.01 Q409.918 1181.35 386.678 1181.35 Q363.437 1181.35 351.122 1163.01 Q338.9 1144.59 338.9 1109.68 Q338.9 1074.68 351.122 1056.35 Q363.437 1037.92 386.678 1037.92 Z" fill="#000000" fill-rule="evenodd" fill-opacity="1" /><path clip-path="url(#clip700)" d="M467.325 1155.14 L486.862 1155.14 L486.862 1178.66 L467.325 1178.66 L467.325 1155.14 Z" fill="#000000" fill-rule="evenodd" fill-opacity="1" /><path clip-path="url(#clip700)" d="M578.991 1056.72 L531.769 1130.51 L578.991 1130.51 L578.991 1056.72 M574.084 1040.42 L597.602 1040.42 L597.602 1130.51 L617.325 1130.51 L617.325 1146.07 L597.602 1146.07 L597.602 1178.66 L578.991 1178.66 L578.991 1146.07 L516.584 1146.07 L516.584 1128.01 L574.084 1040.42 Z" fill="#000000" fill-rule="evenodd" fill-opacity="1" /><path clip-path="url(#clip700)" d="M392.604 875.687 Q378.159 875.687 370.844 889.946 Q363.622 904.112 363.622 932.631 Q363.622 961.057 370.844 975.316 Q378.159 989.482 392.604 989.482 Q407.141 989.482 414.363 975.316 Q421.677 961.057 421.677 932.631 Q421.677 904.112 414.363 889.946 Q407.141 875.687 392.604 875.687 M392.604 860.872 Q415.844 860.872 428.066 879.298 Q440.381 897.631 440.381 932.631 Q440.381 967.538 428.066 985.964 Q415.844 1004.3 392.604 1004.3 Q369.363 1004.3 357.048 985.964 Q344.826 967.538 344.826 932.631 Q344.826 897.631 357.048 879.298 Q369.363 860.872 392.604 860.872 Z" fill="#000000" fill-rule="evenodd" fill-opacity="1" /><path clip-path="url(#clip700)" d="M473.251 978.094 L492.788 978.094 L492.788 1001.61 L473.251 1001.61 L473.251 978.094 Z" fill="#000000" fill-rule="evenodd" fill-opacity="1" /><path clip-path="url(#clip700)" d="M533.714 863.372 L607.139 863.372 L607.139 879.113 L550.843 879.113 L550.843 913.001 Q554.918 911.612 558.992 910.964 Q563.066 910.224 567.14 910.224 Q590.288 910.224 603.806 922.909 Q617.325 935.594 617.325 957.26 Q617.325 979.575 603.436 991.982 Q589.547 1004.3 564.269 1004.3 Q555.566 1004.3 546.492 1002.82 Q537.51 1001.33 527.881 998.371 L527.881 979.575 Q536.214 984.112 545.103 986.334 Q553.992 988.556 563.899 988.556 Q579.917 988.556 589.269 980.131 Q598.621 971.705 598.621 957.26 Q598.621 942.816 589.269 934.39 Q579.917 925.964 563.899 925.964 Q556.399 925.964 548.899 927.631 Q541.492 929.298 533.714 932.816 L533.714 863.372 Z" fill="#000000" fill-rule="evenodd" fill-opacity="1" /><path clip-path="url(#clip700)" d="M387.974 698.637 Q373.53 698.637 366.215 712.896 Q358.993 727.063 358.993 755.581 Q358.993 784.007 366.215 798.266 Q373.53 812.433 387.974 812.433 Q402.511 812.433 409.733 798.266 Q417.048 784.007 417.048 755.581 Q417.048 727.063 409.733 712.896 Q402.511 698.637 387.974 698.637 M387.974 683.822 Q411.215 683.822 423.437 702.248 Q435.751 720.581 435.751 755.581 Q435.751 790.489 423.437 808.914 Q411.215 827.248 387.974 827.248 Q364.733 827.248 352.419 808.914 Q340.196 790.489 340.196 755.581 Q340.196 720.581 352.419 702.248 Q364.733 683.822 387.974 683.822 Z" fill="#000000" fill-rule="evenodd" fill-opacity="1" /><path clip-path="url(#clip700)" d="M468.622 801.044 L488.159 801.044 L488.159 824.562 L468.622 824.562 L468.622 801.044 Z" fill="#000000" fill-rule="evenodd" fill-opacity="1" /><path clip-path="url(#clip700)" d="M571.214 747.989 Q558.621 747.989 551.214 756.6 Q543.899 765.211 543.899 780.211 Q543.899 795.118 551.214 803.822 Q558.621 812.433 571.214 812.433 Q583.806 812.433 591.121 803.822 Q598.528 795.118 598.528 780.211 Q598.528 765.211 591.121 756.6 Q583.806 747.989 571.214 747.989 M608.343 689.378 L608.343 706.415 Q601.306 703.082 594.084 701.322 Q586.954 699.563 579.917 699.563 Q561.399 699.563 551.584 712.063 Q541.862 724.563 540.473 749.841 Q545.936 741.785 554.177 737.526 Q562.417 733.174 572.325 733.174 Q593.158 733.174 605.195 745.859 Q617.325 758.452 617.325 780.211 Q617.325 801.507 604.732 814.377 Q592.14 827.248 571.214 827.248 Q547.232 827.248 534.547 808.914 Q521.862 790.489 521.862 755.581 Q521.862 722.804 537.418 703.359 Q552.973 683.822 579.177 683.822 Q586.214 683.822 593.343 685.211 Q600.565 686.6 608.343 689.378 Z" fill="#000000" fill-rule="evenodd" fill-opacity="1" /><path clip-path="url(#clip700)" d="M392.233 521.588 Q377.789 521.588 370.474 535.847 Q363.252 550.013 363.252 578.532 Q363.252 606.957 370.474 621.217 Q377.789 635.383 392.233 635.383 Q406.77 635.383 413.992 621.217 Q421.307 606.957 421.307 578.532 Q421.307 550.013 413.992 535.847 Q406.77 521.588 392.233 521.588 M392.233 506.773 Q415.474 506.773 427.696 525.199 Q440.011 543.532 440.011 578.532 Q440.011 613.439 427.696 631.865 Q415.474 650.198 392.233 650.198 Q368.993 650.198 356.678 631.865 Q344.456 613.439 344.456 578.532 Q344.456 543.532 356.678 525.199 Q368.993 506.773 392.233 506.773 Z" fill="#000000" fill-rule="evenodd" fill-opacity="1" /><path clip-path="url(#clip700)" d="M472.881 623.994 L492.418 623.994 L492.418 647.513 L472.881 647.513 L472.881 623.994 Z" fill="#000000" fill-rule="evenodd" fill-opacity="1" /><path clip-path="url(#clip700)" d="M528.436 509.273 L617.325 509.273 L617.325 517.236 L567.14 647.513 L547.603 647.513 L594.825 525.013 L528.436 525.013 L528.436 509.273 Z" fill="#000000" fill-rule="evenodd" fill-opacity="1" /><path clip-path="url(#clip700)" d="M388.992 344.538 Q374.548 344.538 367.233 358.797 Q360.011 372.964 360.011 401.482 Q360.011 429.908 367.233 444.167 Q374.548 458.334 388.992 458.334 Q403.529 458.334 410.752 444.167 Q418.066 429.908 418.066 401.482 Q418.066 372.964 410.752 358.797 Q403.529 344.538 388.992 344.538 M388.992 329.723 Q412.233 329.723 424.455 348.149 Q436.77 366.482 436.77 401.482 Q436.77 436.389 424.455 454.815 Q412.233 473.148 388.992 473.148 Q365.752 473.148 353.437 454.815 Q341.215 436.389 341.215 401.482 Q341.215 366.482 353.437 348.149 Q365.752 329.723 388.992 329.723 Z" fill="#000000" fill-rule="evenodd" fill-opacity="1" /><path clip-path="url(#clip700)" d="M469.64 446.945 L489.177 446.945 L489.177 470.463 L469.64 470.463 L469.64 446.945 Z" fill="#000000" fill-rule="evenodd" fill-opacity="1" /><path clip-path="url(#clip700)" d="M569.917 404.815 Q556.584 404.815 548.899 411.945 Q541.306 419.075 541.306 431.575 Q541.306 444.074 548.899 451.204 Q556.584 458.334 569.917 458.334 Q583.251 458.334 590.936 451.204 Q598.621 443.982 598.621 431.575 Q598.621 419.075 590.936 411.945 Q583.343 404.815 569.917 404.815 M551.214 396.853 Q539.177 393.89 532.418 385.649 Q525.751 377.408 525.751 365.556 Q525.751 348.982 537.51 339.353 Q549.362 329.723 569.917 329.723 Q590.565 329.723 602.325 339.353 Q614.084 348.982 614.084 365.556 Q614.084 377.408 607.325 385.649 Q600.658 393.89 588.714 396.853 Q602.232 400.001 609.732 409.167 Q617.325 418.334 617.325 431.575 Q617.325 451.667 605.01 462.408 Q592.788 473.148 569.917 473.148 Q547.047 473.148 534.732 462.408 Q522.51 451.667 522.51 431.575 Q522.51 418.334 530.103 409.167 Q537.695 400.001 551.214 396.853 M544.362 367.316 Q544.362 378.056 551.029 384.075 Q557.788 390.093 569.917 390.093 Q581.954 390.093 588.714 384.075 Q595.565 378.056 595.565 367.316 Q595.565 356.575 588.714 350.556 Q581.954 344.538 569.917 344.538 Q557.788 344.538 551.029 350.556 Q544.362 356.575 544.362 367.316 Z" fill="#000000" fill-rule="evenodd" fill-opacity="1" /><path clip-path="url(#clip700)" d="M389.363 167.488 Q374.918 167.488 367.604 181.748 Q360.382 195.914 360.382 224.433 Q360.382 252.858 367.604 267.118 Q374.918 281.284 389.363 281.284 Q403.9 281.284 411.122 267.118 Q418.437 252.858 418.437 224.433 Q418.437 195.914 411.122 181.748 Q403.9 167.488 389.363 167.488 M389.363 152.674 Q412.603 152.674 424.826 171.1 Q437.14 189.433 437.14 224.433 Q437.14 259.34 424.826 277.766 Q412.603 296.099 389.363 296.099 Q366.122 296.099 353.807 277.766 Q341.585 259.34 341.585 224.433 Q341.585 189.433 353.807 171.1 Q366.122 152.674 389.363 152.674 Z" fill="#000000" fill-rule="evenodd" fill-opacity="1" /><path clip-path="url(#clip700)" d="M470.011 269.895 L489.547 269.895 L489.547 293.414 L470.011 293.414 L470.011 269.895 Z" fill="#000000" fill-rule="evenodd" fill-opacity="1" /><path clip-path="url(#clip700)" d="M530.844 290.543 L530.844 273.506 Q537.881 276.84 545.103 278.599 Q552.325 280.358 559.269 280.358 Q577.788 280.358 587.51 267.951 Q597.325 255.451 598.714 230.081 Q593.343 238.044 585.103 242.303 Q576.862 246.562 566.862 246.562 Q546.121 246.562 533.992 234.062 Q521.955 221.47 521.955 199.71 Q521.955 178.414 534.547 165.544 Q547.14 152.674 568.066 152.674 Q592.047 152.674 604.639 171.1 Q617.325 189.433 617.325 224.433 Q617.325 257.118 601.769 276.654 Q586.306 296.099 560.103 296.099 Q553.066 296.099 545.843 294.71 Q538.621 293.321 530.844 290.543 M568.066 231.933 Q580.658 231.933 587.973 223.321 Q595.38 214.71 595.38 199.71 Q595.38 184.803 587.973 176.192 Q580.658 167.488 568.066 167.488 Q555.473 167.488 548.066 176.192 Q540.751 184.803 540.751 199.71 Q540.751 214.71 548.066 223.321 Q555.473 231.933 568.066 231.933 Z" fill="#000000" fill-rule="evenodd" fill-opacity="1" /><path clip-path="url(#clip700)" d="M351.863 100.623 L382.418 100.623 L382.418 -4.83896 L349.178 1.82767 L349.178 -15.2093 L382.233 -21.8759 L400.937 -21.8759 L400.937 100.623 L431.492 100.623 L431.492 116.364 L351.863 116.364 L351.863 100.623 Z" fill="#000000" fill-rule="evenodd" fill-opacity="1" /><path clip-path="url(#clip700)" d="M469.27 92.8457 L488.807 92.8457 L488.807 116.364 L469.27 116.364 L469.27 92.8457 Z" fill="#000000" fill-rule="evenodd" fill-opacity="1" /><path clip-path="url(#clip700)" d="M569.547 -9.56116 Q555.103 -9.56116 547.788 4.69803 Q540.566 18.8646 540.566 47.383 Q540.566 75.8088 547.788 90.0679 Q555.103 104.235 569.547 104.235 Q584.084 104.235 591.306 90.0679 Q598.621 75.8088 598.621 47.383 Q598.621 18.8646 591.306 4.69803 Q584.084 -9.56116 569.547 -9.56116 M569.547 -24.3759 Q592.788 -24.3759 605.01 -5.95006 Q617.325 12.3832 617.325 47.383 Q617.325 82.2902 605.01 100.716 Q592.788 119.049 569.547 119.049 Q546.306 119.049 533.992 100.716 Q521.77 82.2902 521.77 47.383 Q521.77 12.3832 533.992 -5.95006 Q546.306 -24.3759 569.547 -24.3759 Z" fill="#000000" fill-rule="evenodd" fill-opacity="1" /><path clip-path="url(#clip700)" d="M79.57 902.305 L123.101 907.347 Q127.036 907.716 128.265 908.331 Q129.372 908.946 129.372 910.913 Q129.372 912.389 128.511 913.249 Q127.527 913.987 126.421 913.987 Q125.806 913.987 124.207 913.864 Q122.609 913.741 121.871 913.741 Q114.247 912.635 108.467 912.635 Q97.7693 912.635 91.9898 915.832 Q86.0873 919.029 83.382 927.268 Q80.5538 935.507 80.5538 951.001 L80.5538 986.415 Q80.5538 994.531 82.0294 996.499 Q83.505 998.343 90.3912 1000.06 L151.014 1015.19 L151.014 991.457 Q151.014 982.603 149.908 977.316 Q148.801 971.905 145.727 968.339 Q142.53 964.65 138.226 962.683 Q133.922 960.592 126.175 958.502 Q123.593 957.887 122.609 957.272 Q121.625 956.534 121.625 954.936 Q121.625 953.706 122.486 952.845 Q123.224 951.984 124.33 951.984 L183.232 966.372 Q186.183 967.109 187.29 967.847 Q188.274 968.585 188.274 970.061 Q188.274 971.659 187.413 972.52 Q186.552 973.381 185.568 973.381 Q184.585 973.381 182.74 972.643 Q174.747 970.798 170.443 970.798 Q167.984 970.798 166.754 971.044 Q165.525 971.167 163.803 972.274 Q161.958 973.258 161.098 975.471 Q160.237 977.685 159.622 981.866 Q158.884 986.046 158.884 992.318 L158.884 1017.16 L227.623 1034.37 Q232.173 1035.6 233.403 1035.6 Q234.755 1035.6 235.247 1034.99 Q235.616 1034.25 235.862 1032.28 Q236.231 1030.07 236.231 1026.75 L236.231 989.981 Q236.231 981.866 235.493 975.348 Q234.755 968.831 232.911 963.42 Q231.066 957.887 228.976 953.706 Q226.886 949.525 223.074 945.59 Q219.139 941.655 215.695 938.95 Q212.129 936.122 206.104 932.801 Q200.079 929.481 195.16 927.145 Q190.118 924.808 182.002 921.242 Q179.051 920.259 179.051 917.922 Q179.051 916.57 179.789 915.832 Q180.404 915.094 181.019 914.971 L181.756 914.971 Q184.093 915.709 185.322 916.201 L239.674 939.319 Q242.748 940.671 243.363 941.778 Q243.978 942.885 243.978 947.189 L243.978 1077.9 Q243.978 1080.85 243.855 1082.08 Q243.732 1083.19 243.117 1084.05 Q242.379 1084.91 240.904 1084.91 Q238.567 1084.91 237.584 1083.93 Q236.477 1082.95 236.354 1081.84 Q236.231 1080.73 236.231 1077.9 Q236.231 1071.76 235.862 1068.07 Q235.493 1064.38 235.001 1062.04 Q234.387 1059.58 232.665 1058.35 Q230.943 1057 229.468 1056.38 Q227.869 1055.77 224.303 1054.91 L91.129 1021.71 Q86.5792 1020.48 85.1036 1020.48 Q83.505 1020.48 82.5213 1021.58 Q81.5375 1022.57 81.1686 1025.27 Q80.6767 1027.98 80.6767 1030.19 Q80.5538 1032.28 80.5538 1036.83 Q80.5538 1039.78 80.4308 1041.01 Q80.3078 1042.12 79.693 1042.98 Q79.0782 1043.84 77.7255 1043.84 Q74.2824 1043.84 73.5446 1042.37 Q72.6838 1040.77 72.6838 1036.34 L72.6838 909.192 Q72.6838 904.15 73.7905 903.043 Q74.7743 901.813 79.57 902.305 Z" fill="#000000" fill-rule="evenodd" fill-opacity="1" /><path clip-path="url(#clip700)" d="M313.751 876.689 Q310.566 876.689 309.619 876.431 Q308.672 876.086 307.209 874.709 L269.507 840.881 Q248.676 822.374 230.514 822.374 Q218.721 822.374 210.285 828.572 Q201.85 834.683 201.85 845.959 Q201.85 853.706 206.584 860.248 Q211.318 866.79 219.754 869.803 Q219.582 869.286 219.582 867.479 Q219.582 863.089 222.336 860.678 Q225.091 858.182 228.792 858.182 Q233.526 858.182 235.85 861.281 Q238.088 864.294 238.088 867.306 Q238.088 868.511 237.83 870.147 Q237.572 871.696 235.162 874.193 Q232.666 876.689 228.276 876.689 Q215.967 876.689 206.154 867.392 Q196.341 858.01 196.341 843.721 Q196.341 827.539 205.982 816.951 Q215.536 806.277 230.514 806.277 Q235.764 806.277 240.585 807.913 Q245.319 809.462 249.02 811.614 Q252.722 813.68 258.661 819.361 Q264.6 825.042 268.818 829.604 Q273.036 834.167 281.988 844.41 L300.15 863.089 L300.15 831.326 Q300.15 815.832 298.773 814.627 Q296.277 812.905 283.107 810.753 L283.107 806.277 L313.751 811.27 L313.751 876.689 Z" fill="#000000" fill-rule="evenodd" fill-opacity="1" /><path clip-path="url(#clip700)" d="M1160.95 1420.52 L1177.53 1492.04 L1162.19 1495.6 L1149.48 1440.76 L1116.47 1448.41 Q1118.74 1452.06 1120.29 1455.89 Q1121.93 1459.69 1122.85 1463.66 Q1128.08 1486.21 1118.78 1502.24 Q1109.47 1518.27 1088.36 1523.16 Q1066.62 1528.2 1051.4 1517.47 Q1036.27 1506.72 1030.56 1482.1 Q1028.6 1473.62 1027.99 1464.45 Q1027.41 1455.36 1028.12 1445.31 L1046.43 1441.07 Q1043.89 1450.21 1043.73 1459.37 Q1043.58 1468.53 1045.81 1478.18 Q1049.43 1493.79 1059.75 1501 Q1070.07 1508.21 1084.14 1504.94 Q1098.21 1501.68 1104.31 1490.67 Q1110.41 1479.66 1106.79 1464.05 Q1105.1 1456.75 1101.78 1449.82 Q1098.48 1442.98 1093.3 1436.19 L1160.95 1420.52 Z" fill="#000000" fill-rule="evenodd" fill-opacity="1" /><path clip-path="url(#clip700)" d="M1185.18 1579.61 Q1181.92 1565.54 1166.38 1561.64 Q1150.95 1557.8 1123.16 1564.24 Q1095.47 1570.66 1083.21 1580.91 Q1071.06 1591.24 1074.32 1605.31 Q1077.61 1619.47 1093.04 1623.31 Q1108.58 1627.21 1136.27 1620.79 Q1164.05 1614.36 1176.2 1604.03 Q1188.46 1593.78 1185.18 1579.61 M1199.61 1576.27 Q1204.86 1598.91 1189.67 1614.98 Q1174.59 1631.11 1140.49 1639.01 Q1106.49 1646.9 1085.76 1639.06 Q1065.14 1631.29 1059.89 1608.65 Q1054.64 1586.01 1069.72 1569.88 Q1084.91 1553.81 1118.92 1545.93 Q1153.02 1538.03 1173.64 1545.79 Q1194.37 1553.63 1199.61 1576.27 Z" fill="#000000" fill-rule="evenodd" fill-opacity="1" /><path clip-path="url(#clip700)" d="M1212.42 1697.15 Q1209.16 1683.08 1193.62 1679.17 Q1178.19 1675.33 1150.4 1681.77 Q1122.71 1688.19 1110.45 1698.44 Q1098.3 1708.77 1101.56 1722.84 Q1104.85 1737 1120.28 1740.84 Q1135.82 1744.74 1163.51 1738.33 Q1191.29 1731.89 1203.44 1721.56 Q1215.7 1711.31 1212.42 1697.15 M1226.85 1693.8 Q1232.1 1716.44 1216.91 1732.51 Q1201.83 1748.65 1167.73 1756.55 Q1133.73 1764.43 1113 1756.59 Q1092.38 1748.82 1087.13 1726.18 Q1081.88 1703.54 1096.96 1687.41 Q1112.15 1671.34 1146.16 1663.46 Q1180.26 1655.56 1200.88 1663.32 Q1221.61 1671.16 1226.85 1693.8 Z" fill="#000000" fill-rule="evenodd" fill-opacity="1" /><polyline clip-path="url(#clip703)" style="stroke:#fff4c5; stroke-linecap:butt; stroke-linejoin:round; stroke-width:20; stroke-opacity:1; fill:none" points="
  1154.53,1817.74 1153.34,1788.97 
  "/>
<polyline clip-path="url(#clip703)" style="stroke:#fff4c5; stroke-linecap:butt; stroke-linejoin:round; stroke-width:20; stroke-opacity:1; fill:none" points="
  1064.97,1407.68 1050.62,1375.12 992.353,1286.59 971.164,1259.35 909.866,1198.07 891.704,1182.33 812.244,1133.15 748.676,1109.54 732.784,1104.33 
  653.325,1095.66 
  "/>
<path clip-path="url(#clip700)" d="M994.519 957.036 L1011.85 982.204 L1098.71 922.402 L1074.37 898.803 L1088.41 889.142 L1112.64 912.589 L1123.25 927.995 L1022.35 997.457 L1039.67 1022.63 L1026.71 1031.55 L981.554 965.961 L994.519 957.036 Z" fill="#000000" fill-rule="evenodd" fill-opacity="1" /><path clip-path="url(#clip700)" d="M1174.53 1024.21 Q1166.34 1012.31 1150.45 1014.37 Q1134.69 1016.46 1111.2 1032.63 Q1087.78 1048.75 1080.13 1062.78 Q1072.61 1076.84 1080.8 1088.74 Q1089.04 1100.71 1104.81 1098.63 Q1120.7 1096.57 1144.11 1080.45 Q1167.61 1064.28 1175.13 1050.22 Q1182.78 1036.18 1174.53 1024.21 M1186.74 1015.81 Q1199.91 1034.95 1191.67 1055.47 Q1183.55 1076.01 1154.72 1095.85 Q1125.97 1115.65 1103.81 1115.95 Q1081.78 1116.28 1068.6 1097.14 Q1055.42 1077.99 1063.54 1057.46 Q1071.78 1036.94 1100.54 1017.15 Q1129.37 997.3 1151.4 996.972 Q1173.56 996.667 1186.74 1015.81 Z" fill="#000000" fill-rule="evenodd" fill-opacity="1" /><path clip-path="url(#clip700)" d="M1242.95 1123.59 Q1234.75 1111.69 1218.86 1113.75 Q1203.1 1115.83 1179.61 1132 Q1156.19 1148.12 1148.54 1162.16 Q1141.02 1176.22 1149.21 1188.11 Q1157.46 1200.09 1173.22 1198 Q1189.11 1195.94 1212.53 1179.82 Q1236.02 1163.65 1243.54 1149.59 Q1251.19 1135.56 1242.95 1123.59 M1255.15 1115.19 Q1268.33 1134.33 1260.08 1154.84 Q1251.96 1175.38 1223.13 1195.23 Q1194.38 1215.02 1172.22 1215.33 Q1150.19 1215.66 1137.01 1196.51 Q1123.83 1177.37 1131.95 1156.83 Q1140.2 1136.32 1168.95 1116.52 Q1197.78 1096.68 1219.81 1096.35 Q1241.97 1096.04 1255.15 1115.19 Z" fill="#000000" fill-rule="evenodd" fill-opacity="1" /><path clip-path="url(#clip700)" d="M1311.36 1222.96 Q1303.17 1211.07 1287.27 1213.13 Q1271.51 1215.21 1248.02 1231.38 Q1224.61 1247.5 1216.96 1261.53 Q1209.43 1275.59 1217.63 1287.49 Q1225.87 1299.46 1241.63 1297.38 Q1257.53 1295.32 1280.94 1279.2 Q1304.43 1263.03 1311.95 1248.97 Q1319.6 1234.94 1311.36 1222.96 M1323.56 1214.56 Q1336.74 1233.71 1328.49 1254.22 Q1320.37 1274.76 1291.54 1294.61 Q1262.79 1314.4 1240.63 1314.7 Q1218.6 1315.03 1205.42 1295.89 Q1192.24 1276.75 1200.36 1256.21 Q1208.61 1235.69 1237.36 1215.9 Q1266.19 1196.05 1288.22 1195.72 Q1310.38 1195.42 1323.56 1214.56 Z" fill="#000000" fill-rule="evenodd" fill-opacity="1" /><polyline clip-path="url(#clip703)" style="stroke:#ffe9a9; stroke-linecap:butt; stroke-linejoin:round; stroke-width:20; stroke-opacity:1; fill:none" points="
  653.325,796.497 732.784,802.912 812.244,822.157 866.277,843.967 891.704,855.208 971.164,904.389 998.407,926.069 
  "/>
<polyline clip-path="url(#clip703)" style="stroke:#ffe9a9; stroke-linecap:butt; stroke-linejoin:round; stroke-width:20; stroke-opacity:1; fill:none" points="
  1276.48,1330.01 1289,1361.7 1293.68,1375.12 1318.92,1463.64 1338.55,1552.17 1352.57,1640.69 1360.98,1729.22 1363.79,1817.74 
  "/>
<polyline clip-path="url(#clip703)" style="stroke:#ffdd8d; stroke-linecap:butt; stroke-linejoin:round; stroke-width:20; stroke-opacity:1; fill:none" points="
  1523.6,1817.74 1521.33,1729.22 1514.52,1640.69 1503.17,1552.17 1487.27,1463.64 1466.84,1375.12 1447.92,1308.05 1441.23,1286.59 1408.61,1198.07 1370.97,1109.54 
  1368.46,1104.33 1323.59,1021.02 1289,963.553 1267.81,932.492 1209.54,855.208 1199.76,843.967 1130.08,770.838 1112.75,755.442 1050.62,704.688 994.119,666.918 
  971.164,652.71 891.704,614.458 812.244,587.136 769.866,578.393 732.784,571.27 653.325,566.183 
  "/>
<polyline clip-path="url(#clip703)" style="stroke:#ffd271; stroke-linecap:butt; stroke-linejoin:round; stroke-width:20; stroke-opacity:1; fill:none" points="
  653.325,372.729 732.784,377.2 812.244,390.613 850.385,401.343 891.704,413.718 971.164,447.033 1050.62,489.868 1130.08,545.832 1169.2,578.393 
  1209.54,614.458 1260.4,666.918 1289,698.787 1333.87,755.442 1368.46,802.912 1395.23,843.967 1447.92,932.492 1491.06,1021.02 1527.38,1104.33 
  1529.45,1109.54 1560.55,1198.07 1587.49,1286.59 1606.84,1361.7 1610.02,1375.12 1627.18,1463.64 1640.53,1552.17 1650.07,1640.69 1655.79,1729.22 1657.7,1817.74 
  
  "/>
<path clip-path="url(#clip700)" d="M998.412 317.773 L1050.04 357.719 L1040.41 370.169 L970.985 316.454 L980.617 304.005 Q995.782 301.806 1021.61 298.379 Q1047.58 294.935 1054.6 293.577 Q1067.88 291.091 1074.91 287.752 Q1082.07 284.396 1086.21 279.05 Q1092.95 270.336 1091.05 260.084 Q1089.22 249.889 1079.41 242.296 Q1072.45 236.913 1062.82 233.324 Q1053.26 229.791 1040.67 227.898 L1052.23 212.959 Q1063.94 216.283 1073.12 220.459 Q1082.3 224.634 1088.75 229.62 Q1105.74 242.766 1109.27 259.08 Q1112.8 275.394 1101.81 289.6 Q1096.6 296.338 1089.33 300.433 Q1082.19 304.511 1069.18 307.557 Q1065.71 308.264 1048.02 310.851 Q1030.39 313.364 998.412 317.773 Z" fill="#000000" fill-rule="evenodd" fill-opacity="1" /><path clip-path="url(#clip700)" d="M1156.2 284.972 L1214.27 329.904 L1204.64 342.354 L1160.12 307.904 L1139.38 334.706 Q1143.45 336.101 1147.07 338.081 Q1150.74 339.989 1153.97 342.482 Q1172.27 356.647 1175.2 374.952 Q1178.13 393.258 1164.87 410.394 Q1151.22 428.042 1132.64 429.356 Q1114.12 430.597 1094.13 415.128 Q1087.24 409.802 1080.97 403.078 Q1074.78 396.41 1068.97 388.174 L1080.48 373.308 Q1084.29 381.996 1089.96 389.193 Q1095.63 396.39 1103.47 402.452 Q1116.14 412.255 1128.69 411.313 Q1141.24 410.372 1150.08 398.948 Q1158.92 387.524 1156.68 375.137 Q1154.44 362.75 1141.77 352.948 Q1135.84 348.358 1128.89 345.087 Q1122.01 341.872 1113.7 339.896 L1156.2 284.972 Z" fill="#000000" fill-rule="evenodd" fill-opacity="1" /><path clip-path="url(#clip700)" d="M1275.57 392.906 Q1264.15 384.067 1249.64 390.868 Q1235.26 397.653 1217.81 420.208 Q1200.41 442.69 1197.4 458.387 Q1194.51 474.068 1205.94 482.907 Q1217.43 491.803 1231.82 485.018 Q1246.33 478.216 1263.72 455.734 Q1281.17 433.179 1284.06 417.499 Q1287.07 401.801 1275.57 392.906 M1284.64 381.189 Q1303.02 395.411 1301.41 417.463 Q1299.93 439.499 1278.51 467.18 Q1257.15 494.788 1236.14 501.825 Q1215.25 508.846 1196.87 494.624 Q1178.49 480.402 1179.97 458.366 Q1181.58 436.314 1202.94 408.706 Q1224.36 381.024 1245.24 374.004 Q1266.26 366.967 1284.64 381.189 Z" fill="#000000" fill-rule="evenodd" fill-opacity="1" /><path clip-path="url(#clip700)" d="M1370.99 466.735 Q1359.57 457.896 1345.06 464.697 Q1330.68 471.482 1313.23 494.037 Q1295.83 516.519 1292.82 532.217 Q1289.93 547.897 1301.36 556.736 Q1312.85 565.632 1327.24 558.847 Q1341.75 552.046 1359.14 529.564 Q1376.59 507.009 1379.48 491.328 Q1382.49 475.631 1370.99 466.735 M1380.06 455.018 Q1398.44 469.24 1396.83 491.292 Q1395.35 513.328 1373.93 541.009 Q1352.57 568.618 1331.56 575.655 Q1310.67 582.675 1292.29 568.453 Q1273.91 554.231 1275.39 532.196 Q1277 510.143 1298.36 482.535 Q1319.78 454.854 1340.66 447.833 Q1361.68 440.796 1380.06 455.018 Z" fill="#000000" fill-rule="evenodd" fill-opacity="1" /><polyline clip-path="url(#clip703)" style="stroke:#ffc755; stroke-linecap:butt; stroke-linejoin:round; stroke-width:20; stroke-opacity:1; fill:none" points="
  1776.72,1817.74 1775.08,1729.22 1770.15,1640.69 1765.76,1593.48 1761.64,1552.17 1749.28,1463.64 1733.39,1375.12 1713.97,1286.59 1691.01,1198.07 1686.3,1182.33 
  1662.78,1109.54 1630.36,1021.02 1606.84,963.553 1593.02,932.492 1549.49,843.967 1527.38,802.912 1499.38,755.442 1447.92,675.18 1442.07,666.918 1374.32,578.393 
  1372.76,576.497 
  "/>
<polyline clip-path="url(#clip703)" style="stroke:#ffc755; stroke-linecap:butt; stroke-linejoin:round; stroke-width:20; stroke-opacity:1; fill:none" points="
  979.142,271.944 971.164,268.135 891.704,238.626 837.671,224.294 812.244,217.914 732.784,205.951 653.325,201.963 
  "/>
<path clip-path="url(#clip700)" d="M1821.2 1211.5 Q1820.76 1225.23 1813.16 1234.22 Q1805.58 1243.3 1792.46 1245.67 Q1772.32 1249.3 1758.8 1237.44 Q1745.27 1225.58 1740.67 1200.07 Q1739.12 1191.5 1739.21 1182.08 Q1739.22 1172.76 1740.85 1162.5 L1758.62 1159.29 Q1755.53 1167.75 1754.9 1177.27 Q1754.27 1186.8 1756.06 1196.73 Q1759.18 1214.04 1767.64 1221.83 Q1776.12 1229.71 1789.15 1227.36 Q1801.18 1225.18 1806.39 1215.49 Q1811.72 1205.88 1809 1190.84 L1806.14 1174.99 L1821.27 1172.26 L1824.26 1188.84 Q1826.71 1202.42 1833.38 1208.65 Q1840.15 1214.86 1850.36 1213.02 Q1860.84 1211.13 1865.05 1202.65 Q1869.36 1194.25 1866.86 1180.4 Q1865.5 1172.84 1862.3 1164.48 Q1859.09 1156.12 1853.76 1146.35 L1870.16 1143.39 Q1874.97 1153.35 1878.07 1162.2 Q1881.19 1171.14 1882.65 1179.24 Q1886.43 1200.2 1879.07 1214.14 Q1871.79 1228.06 1855.58 1230.99 Q1844.28 1233.03 1835.27 1227.97 Q1826.36 1222.9 1821.2 1211.5 Z" fill="#000000" fill-rule="evenodd" fill-opacity="1" /><path clip-path="url(#clip700)" d="M1890.24 1304.71 Q1887.67 1290.49 1872.34 1285.83 Q1857.12 1281.23 1829.05 1286.3 Q1801.08 1291.35 1788.33 1300.99 Q1775.69 1310.7 1778.25 1324.92 Q1780.83 1339.22 1796.06 1343.81 Q1811.39 1348.48 1839.36 1343.43 Q1867.43 1338.37 1880.07 1328.65 Q1892.82 1319.01 1890.24 1304.71 M1904.82 1302.07 Q1908.94 1324.95 1892.98 1340.25 Q1877.13 1355.62 1842.68 1361.84 Q1808.33 1368.04 1788.01 1359.19 Q1767.8 1350.42 1763.67 1327.55 Q1759.54 1304.68 1775.4 1289.3 Q1791.36 1274 1825.71 1267.8 Q1860.16 1261.59 1880.37 1270.36 Q1900.69 1279.2 1904.82 1302.07 Z" fill="#000000" fill-rule="evenodd" fill-opacity="1" /><path clip-path="url(#clip700)" d="M1911.66 1423.44 Q1909.1 1409.22 1893.77 1404.55 Q1878.54 1399.96 1850.48 1405.03 Q1822.5 1410.08 1809.75 1419.72 Q1797.11 1429.43 1799.68 1443.65 Q1802.26 1457.95 1817.48 1462.54 Q1832.81 1467.21 1860.79 1462.16 Q1888.85 1457.1 1901.5 1447.38 Q1914.25 1437.74 1911.66 1423.44 M1926.24 1420.8 Q1930.37 1443.68 1914.41 1458.98 Q1898.55 1474.35 1864.11 1480.57 Q1829.76 1486.77 1809.44 1477.92 Q1789.23 1469.15 1785.1 1446.28 Q1780.97 1423.41 1796.83 1408.03 Q1812.79 1392.73 1847.14 1386.53 Q1881.58 1380.31 1901.8 1389.09 Q1922.12 1397.93 1926.24 1420.8 Z" fill="#000000" fill-rule="evenodd" fill-opacity="1" /><path clip-path="url(#clip700)" d="M1933.09 1542.17 Q1930.53 1527.95 1915.19 1523.28 Q1899.97 1518.69 1871.9 1523.76 Q1843.93 1528.81 1831.18 1538.45 Q1818.54 1548.16 1821.1 1562.37 Q1823.69 1576.68 1838.91 1581.27 Q1854.24 1585.94 1882.21 1580.89 Q1910.28 1575.83 1922.92 1566.11 Q1935.67 1556.47 1933.09 1542.17 M1947.67 1539.53 Q1951.8 1562.41 1935.83 1577.71 Q1919.98 1593.08 1885.54 1599.3 Q1851.18 1605.5 1830.86 1596.65 Q1810.65 1587.88 1806.52 1565.01 Q1802.4 1542.13 1818.25 1526.76 Q1834.21 1511.46 1868.57 1505.26 Q1903.01 1499.04 1923.22 1507.82 Q1943.54 1516.66 1947.67 1539.53 Z" fill="#000000" fill-rule="evenodd" fill-opacity="1" /><polyline clip-path="url(#clip703)" style="stroke:#ffbb39; stroke-linecap:butt; stroke-linejoin:round; stroke-width:20; stroke-opacity:1; fill:none" points="
  653.325,47.2441 732.784,51.0272 812.244,62.3765 891.704,81.2921 971.164,107.774 1036.5,135.769 1050.62,142.149 1130.08,186.013 1188.76,224.294 1209.54,238.626 
  1289,301.858 1301.16,312.818 1368.46,377.2 1391.05,401.343 1447.92,466.071 1466.84,489.868 1527.38,571.27 1532.22,578.393 1588.19,666.918 1606.84,698.787 
  1637.35,755.442 1681.22,843.967 1686.3,855.208 1718.67,932.492 1752.22,1021.02 1765.76,1060.94 1781.11,1109.54 1787.27,1131.66 
  "/>
<polyline clip-path="url(#clip703)" style="stroke:#ffbb39; stroke-linecap:butt; stroke-linejoin:round; stroke-width:20; stroke-opacity:1; fill:none" points="
  1876.02,1623.48 1877.52,1640.69 1882.13,1729.22 1883.67,1817.74 
  "/>
<polyline clip-path="url(#clip703)" style="stroke:#ffb01c; stroke-linecap:butt; stroke-linejoin:round; stroke-width:20; stroke-opacity:1; fill:none" points="
  1982.47,1817.74 1981.02,1729.22 1976.69,1640.69 1969.47,1552.17 1959.35,1463.64 1946.35,1375.12 1930.46,1286.59 1924.68,1259.35 1910.84,1198.07 1887.77,1109.54 
  1861.63,1021.02 1845.22,971.319 1831.52,932.492 1797,843.967 1765.76,770.838 1758.7,755.442 1714.55,666.918 1686.3,614.458 1665.32,578.393 1610.02,489.868 
  1606.84,485.109 1546.04,401.343 1527.38,377.2 1472.9,312.818 1447.92,284.996 1387.7,224.294 1368.46,205.951 1289,138.161 1285.82,135.769 1209.54,81.2921 
  1154.53,47.2441 
  "/>
<path clip-path="url(#clip700)" d="M1850.22 580.197 L1763.83 565.584 L1782.3 609.048 L1850.22 580.197 M1863.3 569.309 L1872.49 590.955 L1789.57 626.177 L1797.28 644.33 L1782.97 650.411 L1775.25 632.259 L1745.26 645.001 L1737.98 627.871 L1767.98 615.129 L1743.58 557.689 L1760.2 550.63 L1863.3 569.309 Z" fill="#000000" fill-rule="evenodd" fill-opacity="1" /><path clip-path="url(#clip700)" d="M1896.6 679.203 Q1890.95 665.908 1874.97 664.75 Q1859.1 663.641 1832.86 674.791 Q1806.69 685.904 1796.39 698.126 Q1786.21 710.397 1791.86 723.692 Q1797.54 737.072 1813.41 738.181 Q1829.39 739.339 1855.55 728.225 Q1881.8 717.076 1891.98 704.805 Q1902.28 692.583 1896.6 679.203 M1910.23 673.411 Q1919.32 694.802 1907.14 713.255 Q1895.08 731.757 1862.87 745.44 Q1830.74 759.088 1808.96 754.957 Q1787.31 750.875 1778.22 729.484 Q1769.14 708.093 1781.2 689.591 Q1793.38 671.138 1825.51 657.491 Q1857.72 643.807 1879.37 647.889 Q1901.15 652.02 1910.23 673.411 Z" fill="#000000" fill-rule="evenodd" fill-opacity="1" /><path clip-path="url(#clip700)" d="M1943.77 790.248 Q1938.12 776.953 1922.13 775.795 Q1906.27 774.687 1880.02 785.836 Q1853.86 796.949 1843.56 809.171 Q1833.38 821.442 1839.03 834.737 Q1844.71 848.117 1860.57 849.226 Q1876.56 850.384 1902.72 839.271 Q1928.97 828.121 1939.15 815.85 Q1949.45 803.628 1943.77 790.248 M1957.4 784.456 Q1966.49 805.847 1954.31 824.3 Q1942.25 842.802 1910.03 856.486 Q1877.9 870.133 1856.13 866.002 Q1834.48 861.92 1825.39 840.529 Q1816.31 819.138 1828.37 800.636 Q1840.55 782.183 1872.68 768.536 Q1904.89 754.852 1926.54 758.934 Q1948.32 763.065 1957.4 784.456 Z" fill="#000000" fill-rule="evenodd" fill-opacity="1" /><path clip-path="url(#clip700)" d="M1990.93 901.293 Q1985.29 887.998 1969.3 886.841 Q1953.44 885.732 1927.19 896.881 Q1901.03 907.994 1890.73 920.216 Q1880.55 932.487 1886.2 945.782 Q1891.88 959.162 1907.74 960.271 Q1923.73 961.429 1949.89 950.316 Q1976.14 939.166 1986.32 926.895 Q1996.62 914.673 1990.93 901.293 M2004.57 895.501 Q2013.66 916.892 2001.47 935.345 Q1989.41 953.847 1957.2 967.531 Q1925.07 981.178 1903.3 977.047 Q1881.65 972.965 1872.56 951.574 Q1863.47 930.183 1875.53 911.681 Q1887.71 893.228 1919.84 879.581 Q1952.06 865.898 1973.71 869.979 Q1995.48 874.11 2004.57 895.501 Z" fill="#000000" fill-rule="evenodd" fill-opacity="1" /><polyline clip-path="url(#clip703)" style="stroke:#ffa500; stroke-linecap:butt; stroke-linejoin:round; stroke-width:20; stroke-opacity:1; fill:none" points="
  1363.79,47.2441 1368.46,51.0272 1447.92,122.906 1460.79,135.769 1527.38,205.951 1543.27,224.294 1606.84,301.858 1615.11,312.818 1678.04,401.343 1686.3,413.718 
  1733.39,489.868 1755.86,528.71 
  "/>
<polyline clip-path="url(#clip703)" style="stroke:#ffa500; stroke-linecap:butt; stroke-linejoin:round; stroke-width:20; stroke-opacity:1; fill:none" points="
  1953.09,993.043 1961.76,1021.02 1986.32,1109.54 2004.14,1182.33 2007.77,1198.07 2025.48,1286.59 2040.46,1375.12 2052.72,1463.64 2062.26,1552.17 2069.07,1640.69 
  2073.16,1729.22 2074.52,1817.74 
  "/>
<polyline clip-path="url(#clip703)" style="stroke:#f09000; stroke-linecap:butt; stroke-linejoin:round; stroke-width:20; stroke-opacity:1; fill:none" points="
  2160.91,1817.74 2159.62,1729.22 2155.76,1640.69 2149.32,1552.17 2140.3,1463.64 2128.7,1375.12 2114.53,1286.59 2097.77,1198.07 2083.6,1133.15 2078.15,1109.54 
  2054.99,1021.02 2029.11,932.492 2004.14,855.208 2000.29,843.967 1967.06,755.442 1930.94,666.918 1924.68,652.71 1889.82,578.393 1845.22,489.868 
  1794.26,401.343 1765.76,354.845 1738.1,312.818 1686.3,238.626 1675.49,224.294 1606.84,138.161 1604.77,135.769 1527.38,51.0272 1523.6,47.2441 
  "/>
<polyline clip-path="url(#clip703)" style="stroke:#e27c00; stroke-linecap:butt; stroke-linejoin:round; stroke-width:20; stroke-opacity:1; fill:none" points="
  1657.7,47.2441 1686.3,81.2921 1728.68,135.769 1765.76,186.013 1792.07,224.294 1845.22,306.074 1849.32,312.818 1900.07,401.343 1924.68,447.033 1946.35,489.868 
  1988.25,578.393 2004.14,614.458 2025.94,666.918 2059.99,755.442 2083.6,822.157 2090.9,843.967 2117.96,932.492 2142.44,1021.02 2163.06,1104.33 2164.28,1109.54 
  2182.62,1198.07 2198.51,1286.59 2211.96,1375.12 2222.96,1463.64 2231.52,1552.17 2237.63,1640.69 2241.3,1729.22 2242.52,1817.74 
  "/>
<polyline clip-path="url(#clip703)" style="stroke:#d36700; stroke-linecap:butt; stroke-linejoin:round; stroke-width:20; stroke-opacity:1; fill:none" points="
  2242.52,1095.66 2225,1021.02 2201.77,932.492 2176.1,843.967 2163.06,802.912 2147.17,755.442 2114.95,666.918 2083.6,587.136 2079.97,578.393 2040.46,489.868 
  2004.14,413.718 1997.88,401.343 1950.2,312.818 1924.68,268.135 1898.02,224.294 1845.22,142.149 1840.84,135.769 1776.72,47.2441 
  "/>
<polyline clip-path="url(#clip703)" style="stroke:#c55200; stroke-linecap:butt; stroke-linejoin:round; stroke-width:20; stroke-opacity:1; fill:none" points="
  1883.67,47.2441 1924.68,107.774 1942.5,135.769 1995.95,224.294 2004.14,238.626 2044.1,312.818 2083.6,390.613 2088.75,401.343 2128.7,489.868 2163.06,571.27 
  2165.91,578.393 2198.92,666.918 2229.48,755.442 2242.52,796.497 
  "/>
<polyline clip-path="url(#clip703)" style="stroke:#b63e00; stroke-linecap:butt; stroke-linejoin:round; stroke-width:20; stroke-opacity:1; fill:none" points="
  2242.52,566.183 2211.96,489.868 2174.06,401.343 2163.06,377.2 2132.14,312.818 2087.04,224.294 2083.6,217.914 2036.83,135.769 2004.14,81.2921 1982.47,47.2441 
  
  "/>
<polyline clip-path="url(#clip703)" style="stroke:#a82900; stroke-linecap:butt; stroke-linejoin:round; stroke-width:20; stroke-opacity:1; fill:none" points="
  2074.52,47.2441 2083.6,62.3765 2125.26,135.769 2163.06,205.951 2172.43,224.294 2215.22,312.818 2242.52,372.729 
  "/>
<polyline clip-path="url(#clip703)" style="stroke:#991400; stroke-linecap:butt; stroke-linejoin:round; stroke-width:20; stroke-opacity:1; fill:none" points="
  2242.52,201.963 2208.7,135.769 
  "/>
<polyline clip-path="url(#clip703)" style="stroke:#991400; stroke-linecap:butt; stroke-linejoin:round; stroke-width:20; stroke-opacity:1; fill:none" points="
  2163.06,51.0272 2160.91,47.2441 
  "/>
</svg>
