<?xml version="1.0" encoding="utf-8"?>
<svg xmlns="http://www.w3.org/2000/svg" xmlns:xlink="http://www.w3.org/1999/xlink" width="600" height="600" viewBox="0 0 2400 2400">
<defs>
  <clipPath id="clip120">
    <rect x="0" y="0" width="2400" height="2400"/>
  </clipPath>
</defs>
<path clip-path="url(#clip120)" d="
M0 2400 L2400 2400 L2400 0 L0 0  Z
  " fill="#ffffff" fill-rule="evenodd" fill-opacity="1"/>
<defs>
  <clipPath id="clip121">
    <rect x="480" y="240" width="1681" height="1681"/>
  </clipPath>
</defs>
<defs>
  <clipPath id="clip122">
    <rect x="414" y="47" width="1829" height="1979"/>
  </clipPath>
</defs>
<path clip-path="url(#clip120)" d="
M414.874 2025.1 L2242.52 2025.1 L2242.52 47.2441 L414.874 47.2441  Z
  " fill="#ffffff" fill-rule="evenodd" fill-opacity="1"/>
<polyline clip-path="url(#clip120)" style="stroke:#000000; stroke-linecap:round; stroke-linejoin:round; stroke-width:4; stroke-opacity:1; fill:none" points="
  414.874,2025.1 2242.52,2025.1 
  "/>
<polyline clip-path="url(#clip120)" style="stroke:#000000; stroke-linecap:round; stroke-linejoin:round; stroke-width:4; stroke-opacity:1; fill:none" points="
  414.874,2025.1 414.874,2006.2 
  "/>
<polyline clip-path="url(#clip120)" style="stroke:#000000; stroke-linecap:round; stroke-linejoin:round; stroke-width:4; stroke-opacity:1; fill:none" points="
  597.638,2025.1 597.638,2006.2 
  "/>
<polyline clip-path="url(#clip120)" style="stroke:#000000; stroke-linecap:round; stroke-linejoin:round; stroke-width:4; stroke-opacity:1; fill:none" points="
  780.403,2025.1 780.403,2006.2 
  "/>
<polyline clip-path="url(#clip120)" style="stroke:#000000; stroke-linecap:round; stroke-linejoin:round; stroke-width:4; stroke-opacity:1; fill:none" points="
  963.168,2025.1 963.168,2006.2 
  "/>
<polyline clip-path="url(#clip120)" style="stroke:#000000; stroke-linecap:round; stroke-linejoin:round; stroke-width:4; stroke-opacity:1; fill:none" points="
  1145.93,2025.1 1145.93,2006.2 
  "/>
<polyline clip-path="url(#clip120)" style="stroke:#000000; stroke-linecap:round; stroke-linejoin:round; stroke-width:4; stroke-opacity:1; fill:none" points="
  1328.7,2025.1 1328.7,2006.2 
  "/>
<polyline clip-path="url(#clip120)" style="stroke:#000000; stroke-linecap:round; stroke-linejoin:round; stroke-width:4; stroke-opacity:1; fill:none" points="
  1511.46,2025.1 1511.46,2006.2 
  "/>
<polyline clip-path="url(#clip120)" style="stroke:#000000; stroke-linecap:round; stroke-linejoin:round; stroke-width:4; stroke-opacity:1; fill:none" points="
  1694.23,2025.1 1694.23,2006.2 
  "/>
<polyline clip-path="url(#clip120)" style="stroke:#000000; stroke-linecap:round; stroke-linejoin:round; stroke-width:4; stroke-opacity:1; fill:none" points="
  1876.99,2025.1 1876.99,2006.2 
  "/>
<polyline clip-path="url(#clip120)" style="stroke:#000000; stroke-linecap:round; stroke-linejoin:round; stroke-width:4; stroke-opacity:1; fill:none" points="
  2059.76,2025.1 2059.76,2006.2 
  "/>
<polyline clip-path="url(#clip120)" style="stroke:#000000; stroke-linecap:round; stroke-linejoin:round; stroke-width:4; stroke-opacity:1; fill:none" points="
  2242.52,2025.1 2242.52,2006.2 
  "/>
<path clip-path="url(#clip120)" d="M363.989 2070.67 Q355.864 2070.67 351.749 2078.69 Q347.687 2086.66 347.687 2102.7 Q347.687 2118.69 351.749 2126.71 Q355.864 2134.68 363.989 2134.68 Q372.166 2134.68 376.228 2126.71 Q380.343 2118.69 380.343 2102.7 Q380.343 2086.66 376.228 2078.69 Q372.166 2070.67 363.989 2070.67 M363.989 2062.33 Q377.062 2062.33 383.937 2072.7 Q390.864 2083.01 390.864 2102.7 Q390.864 2122.33 383.937 2132.7 Q377.062 2143.01 363.989 2143.01 Q350.916 2143.01 343.989 2132.7 Q337.114 2122.33 337.114 2102.7 Q337.114 2083.01 343.989 2072.7 Q350.916 2062.33 363.989 2062.33 Z" fill="#000000" fill-rule="evenodd" fill-opacity="1" /><path clip-path="url(#clip120)" d="M409.353 2128.27 L420.343 2128.27 L420.343 2141.5 L409.353 2141.5 L409.353 2128.27 Z" fill="#000000" fill-rule="evenodd" fill-opacity="1" /><path clip-path="url(#clip120)" d="M465.759 2070.67 Q457.634 2070.67 453.52 2078.69 Q449.457 2086.66 449.457 2102.7 Q449.457 2118.69 453.52 2126.71 Q457.634 2134.68 465.759 2134.68 Q473.936 2134.68 477.999 2126.71 Q482.113 2118.69 482.113 2102.7 Q482.113 2086.66 477.999 2078.69 Q473.936 2070.67 465.759 2070.67 M465.759 2062.33 Q478.832 2062.33 485.707 2072.7 Q492.634 2083.01 492.634 2102.7 Q492.634 2122.33 485.707 2132.7 Q478.832 2143.01 465.759 2143.01 Q452.686 2143.01 445.759 2132.7 Q438.884 2122.33 438.884 2102.7 Q438.884 2083.01 445.759 2072.7 Q452.686 2062.33 465.759 2062.33 Z" fill="#000000" fill-rule="evenodd" fill-opacity="1" /><path clip-path="url(#clip120)" d="M548.134 2070.67 Q540.009 2070.67 535.894 2078.69 Q531.832 2086.66 531.832 2102.7 Q531.832 2118.69 535.894 2126.71 Q540.009 2134.68 548.134 2134.68 Q556.311 2134.68 560.373 2126.71 Q564.488 2118.69 564.488 2102.7 Q564.488 2086.66 560.373 2078.69 Q556.311 2070.67 548.134 2070.67 M548.134 2062.33 Q561.206 2062.33 568.081 2072.7 Q575.008 2083.01 575.008 2102.7 Q575.008 2122.33 568.081 2132.7 Q561.206 2143.01 548.134 2143.01 Q535.061 2143.01 528.134 2132.7 Q521.259 2122.33 521.259 2102.7 Q521.259 2083.01 528.134 2072.7 Q535.061 2062.33 548.134 2062.33 Z" fill="#000000" fill-rule="evenodd" fill-opacity="1" /><path clip-path="url(#clip120)" d="M593.498 2128.27 L604.487 2128.27 L604.487 2141.5 L593.498 2141.5 L593.498 2128.27 Z" fill="#000000" fill-rule="evenodd" fill-opacity="1" /><path clip-path="url(#clip120)" d="M629.227 2132.65 L646.414 2132.65 L646.414 2073.32 L627.716 2077.07 L627.716 2067.49 L646.31 2063.74 L656.831 2063.74 L656.831 2132.65 L674.018 2132.65 L674.018 2141.5 L629.227 2141.5 L629.227 2132.65 Z" fill="#000000" fill-rule="evenodd" fill-opacity="1" /><path clip-path="url(#clip120)" d="M731.315 2070.67 Q723.19 2070.67 719.075 2078.69 Q715.013 2086.66 715.013 2102.7 Q715.013 2118.69 719.075 2126.71 Q723.19 2134.68 731.315 2134.68 Q739.492 2134.68 743.554 2126.71 Q747.669 2118.69 747.669 2102.7 Q747.669 2086.66 743.554 2078.69 Q739.492 2070.67 731.315 2070.67 M731.315 2062.33 Q744.388 2062.33 751.263 2072.7 Q758.19 2083.01 758.19 2102.7 Q758.19 2122.33 751.263 2132.7 Q744.388 2143.01 731.315 2143.01 Q718.242 2143.01 711.315 2132.7 Q704.44 2122.33 704.44 2102.7 Q704.44 2083.01 711.315 2072.7 Q718.242 2062.33 731.315 2062.33 Z" fill="#000000" fill-rule="evenodd" fill-opacity="1" /><path clip-path="url(#clip120)" d="M776.679 2128.27 L787.669 2128.27 L787.669 2141.5 L776.679 2141.5 L776.679 2128.27 Z" fill="#000000" fill-rule="evenodd" fill-opacity="1" /><path clip-path="url(#clip120)" d="M819.648 2132.65 L856.366 2132.65 L856.366 2141.5 L806.991 2141.5 L806.991 2132.65 Q812.981 2126.45 823.293 2116.03 Q833.658 2105.56 836.314 2102.54 Q841.366 2096.86 843.345 2092.96 Q845.377 2089 845.377 2085.2 Q845.377 2079 841.002 2075.09 Q836.679 2071.19 829.7 2071.19 Q824.752 2071.19 819.231 2072.91 Q813.762 2074.63 807.512 2078.11 L807.512 2067.49 Q813.866 2064.94 819.387 2063.64 Q824.908 2062.33 829.491 2062.33 Q841.575 2062.33 848.762 2068.38 Q855.95 2074.42 855.95 2084.52 Q855.95 2089.31 854.127 2093.64 Q852.356 2097.91 847.616 2103.74 Q846.314 2105.25 839.335 2112.49 Q832.356 2119.68 819.648 2132.65 Z" fill="#000000" fill-rule="evenodd" fill-opacity="1" /><path clip-path="url(#clip120)" d="M913.012 2070.67 Q904.887 2070.67 900.772 2078.69 Q896.71 2086.66 896.71 2102.7 Q896.71 2118.69 900.772 2126.71 Q904.887 2134.68 913.012 2134.68 Q921.189 2134.68 925.251 2126.71 Q929.366 2118.69 929.366 2102.7 Q929.366 2086.66 925.251 2078.69 Q921.189 2070.67 913.012 2070.67 M913.012 2062.33 Q926.085 2062.33 932.959 2072.7 Q939.887 2083.01 939.887 2102.7 Q939.887 2122.33 932.959 2132.7 Q926.085 2143.01 913.012 2143.01 Q899.939 2143.01 893.012 2132.7 Q886.137 2122.33 886.137 2102.7 Q886.137 2083.01 893.012 2072.7 Q899.939 2062.33 913.012 2062.33 Z" fill="#000000" fill-rule="evenodd" fill-opacity="1" /><path clip-path="url(#clip120)" d="M958.376 2128.27 L969.366 2128.27 L969.366 2141.5 L958.376 2141.5 L958.376 2128.27 Z" fill="#000000" fill-rule="evenodd" fill-opacity="1" /><path clip-path="url(#clip120)" d="M1024.16 2099.57 Q1031.71 2101.19 1035.93 2106.29 Q1040.2 2111.4 1040.2 2118.9 Q1040.2 2130.41 1032.28 2136.71 Q1024.37 2143.01 1009.78 2143.01 Q1004.89 2143.01 999.678 2142.02 Q994.522 2141.08 989.001 2139.16 L989.001 2129 Q993.376 2131.55 998.584 2132.85 Q1003.79 2134.16 1009.47 2134.16 Q1019.37 2134.16 1024.52 2130.25 Q1029.73 2126.34 1029.73 2118.9 Q1029.73 2112.02 1024.89 2108.17 Q1020.09 2104.26 1011.5 2104.26 L1002.44 2104.26 L1002.44 2095.61 L1011.92 2095.61 Q1019.68 2095.61 1023.79 2092.54 Q1027.91 2089.42 1027.91 2083.58 Q1027.91 2077.59 1023.64 2074.42 Q1019.42 2071.19 1011.5 2071.19 Q1007.18 2071.19 1002.23 2072.13 Q997.282 2073.06 991.345 2075.04 L991.345 2065.67 Q997.334 2064 1002.54 2063.17 Q1007.8 2062.33 1012.44 2062.33 Q1024.42 2062.33 1031.4 2067.8 Q1038.38 2073.22 1038.38 2082.49 Q1038.38 2088.95 1034.68 2093.43 Q1030.98 2097.85 1024.16 2099.57 Z" fill="#000000" fill-rule="evenodd" fill-opacity="1" /><path clip-path="url(#clip120)" d="M1094.5 2070.67 Q1086.38 2070.67 1082.26 2078.69 Q1078.2 2086.66 1078.2 2102.7 Q1078.2 2118.69 1082.26 2126.71 Q1086.38 2134.68 1094.5 2134.68 Q1102.68 2134.68 1106.74 2126.71 Q1110.85 2118.69 1110.85 2102.7 Q1110.85 2086.66 1106.74 2078.69 Q1102.68 2070.67 1094.5 2070.67 M1094.5 2062.33 Q1107.57 2062.33 1114.45 2072.7 Q1121.38 2083.01 1121.38 2102.7 Q1121.38 2122.33 1114.45 2132.7 Q1107.57 2143.01 1094.5 2143.01 Q1081.43 2143.01 1074.5 2132.7 Q1067.63 2122.33 1067.63 2102.7 Q1067.63 2083.01 1074.5 2072.7 Q1081.43 2062.33 1094.5 2062.33 Z" fill="#000000" fill-rule="evenodd" fill-opacity="1" /><path clip-path="url(#clip120)" d="M1139.86 2128.27 L1150.85 2128.27 L1150.85 2141.5 L1139.86 2141.5 L1139.86 2128.27 Z" fill="#000000" fill-rule="evenodd" fill-opacity="1" /><path clip-path="url(#clip120)" d="M1202.68 2072.91 L1176.11 2114.42 L1202.68 2114.42 L1202.68 2072.91 M1199.92 2063.74 L1213.15 2063.74 L1213.15 2114.42 L1224.24 2114.42 L1224.24 2123.17 L1213.15 2123.17 L1213.15 2141.5 L1202.68 2141.5 L1202.68 2123.17 L1167.57 2123.17 L1167.57 2113.01 L1199.92 2063.74 Z" fill="#000000" fill-rule="evenodd" fill-opacity="1" /><path clip-path="url(#clip120)" d="M1278.93 2070.67 Q1270.81 2070.67 1266.69 2078.69 Q1262.63 2086.66 1262.63 2102.7 Q1262.63 2118.69 1266.69 2126.71 Q1270.81 2134.68 1278.93 2134.68 Q1287.11 2134.68 1291.17 2126.71 Q1295.29 2118.69 1295.29 2102.7 Q1295.29 2086.66 1291.17 2078.69 Q1287.11 2070.67 1278.93 2070.67 M1278.93 2062.33 Q1292 2062.33 1298.88 2072.7 Q1305.81 2083.01 1305.81 2102.7 Q1305.81 2122.33 1298.88 2132.7 Q1292 2143.01 1278.93 2143.01 Q1265.86 2143.01 1258.93 2132.7 Q1252.06 2122.33 1252.06 2102.7 Q1252.06 2083.01 1258.93 2072.7 Q1265.86 2062.33 1278.93 2062.33 Z" fill="#000000" fill-rule="evenodd" fill-opacity="1" /><path clip-path="url(#clip120)" d="M1324.3 2128.27 L1335.29 2128.27 L1335.29 2141.5 L1324.3 2141.5 L1324.3 2128.27 Z" fill="#000000" fill-rule="evenodd" fill-opacity="1" /><path clip-path="url(#clip120)" d="M1358.31 2063.74 L1399.61 2063.74 L1399.61 2072.59 L1367.94 2072.59 L1367.94 2091.66 Q1370.23 2090.88 1372.52 2090.51 Q1374.82 2090.09 1377.11 2090.09 Q1390.13 2090.09 1397.73 2097.23 Q1405.34 2104.36 1405.34 2116.55 Q1405.34 2129.1 1397.52 2136.08 Q1389.71 2143.01 1375.49 2143.01 Q1370.6 2143.01 1365.49 2142.18 Q1360.44 2141.34 1355.02 2139.68 L1355.02 2129.1 Q1359.71 2131.66 1364.71 2132.91 Q1369.71 2134.16 1375.29 2134.16 Q1384.3 2134.16 1389.56 2129.42 Q1394.82 2124.68 1394.82 2116.55 Q1394.82 2108.43 1389.56 2103.69 Q1384.3 2098.95 1375.29 2098.95 Q1371.07 2098.95 1366.85 2099.89 Q1362.68 2100.82 1358.31 2102.8 L1358.31 2063.74 Z" fill="#000000" fill-rule="evenodd" fill-opacity="1" /><path clip-path="url(#clip120)" d="M1460.39 2070.67 Q1452.27 2070.67 1448.15 2078.69 Q1444.09 2086.66 1444.09 2102.7 Q1444.09 2118.69 1448.15 2126.71 Q1452.27 2134.68 1460.39 2134.68 Q1468.57 2134.68 1472.63 2126.71 Q1476.75 2118.69 1476.75 2102.7 Q1476.75 2086.66 1472.63 2078.69 Q1468.57 2070.67 1460.39 2070.67 M1460.39 2062.33 Q1473.47 2062.33 1480.34 2072.7 Q1487.27 2083.01 1487.27 2102.7 Q1487.27 2122.33 1480.34 2132.7 Q1473.47 2143.01 1460.39 2143.01 Q1447.32 2143.01 1440.39 2132.7 Q1433.52 2122.33 1433.52 2102.7 Q1433.52 2083.01 1440.39 2072.7 Q1447.32 2062.33 1460.39 2062.33 Z" fill="#000000" fill-rule="evenodd" fill-opacity="1" /><path clip-path="url(#clip120)" d="M1505.76 2128.27 L1516.75 2128.27 L1516.75 2141.5 L1505.76 2141.5 L1505.76 2128.27 Z" fill="#000000" fill-rule="evenodd" fill-opacity="1" /><path clip-path="url(#clip120)" d="M1563.47 2098.43 Q1556.38 2098.43 1552.22 2103.27 Q1548.1 2108.11 1548.1 2116.55 Q1548.1 2124.94 1552.22 2129.83 Q1556.38 2134.68 1563.47 2134.68 Q1570.55 2134.68 1574.66 2129.83 Q1578.83 2124.94 1578.83 2116.55 Q1578.83 2108.11 1574.66 2103.27 Q1570.55 2098.43 1563.47 2098.43 M1584.35 2065.46 L1584.35 2075.04 Q1580.39 2073.17 1576.33 2072.18 Q1572.32 2071.19 1568.36 2071.19 Q1557.95 2071.19 1552.42 2078.22 Q1546.96 2085.25 1546.17 2099.47 Q1549.25 2094.94 1553.88 2092.54 Q1558.52 2090.09 1564.09 2090.09 Q1575.81 2090.09 1582.58 2097.23 Q1589.4 2104.31 1589.4 2116.55 Q1589.4 2128.53 1582.32 2135.77 Q1575.24 2143.01 1563.47 2143.01 Q1549.98 2143.01 1542.84 2132.7 Q1535.71 2122.33 1535.71 2102.7 Q1535.71 2084.26 1544.46 2073.32 Q1553.21 2062.33 1567.95 2062.33 Q1571.9 2062.33 1575.91 2063.11 Q1579.98 2063.9 1584.35 2065.46 Z" fill="#000000" fill-rule="evenodd" fill-opacity="1" /><path clip-path="url(#clip120)" d="M1644.36 2070.67 Q1636.23 2070.67 1632.12 2078.69 Q1628.05 2086.66 1628.05 2102.7 Q1628.05 2118.69 1632.12 2126.71 Q1636.23 2134.68 1644.36 2134.68 Q1652.53 2134.68 1656.6 2126.71 Q1660.71 2118.69 1660.71 2102.7 Q1660.71 2086.66 1656.6 2078.69 Q1652.53 2070.67 1644.36 2070.67 M1644.36 2062.33 Q1657.43 2062.33 1664.3 2072.7 Q1671.23 2083.01 1671.23 2102.7 Q1671.23 2122.33 1664.3 2132.7 Q1657.43 2143.01 1644.36 2143.01 Q1631.28 2143.01 1624.36 2132.7 Q1617.48 2122.33 1617.48 2102.7 Q1617.48 2083.01 1624.36 2072.7 Q1631.28 2062.33 1644.36 2062.33 Z" fill="#000000" fill-rule="evenodd" fill-opacity="1" /><path clip-path="url(#clip120)" d="M1689.72 2128.27 L1700.71 2128.27 L1700.71 2141.5 L1689.72 2141.5 L1689.72 2128.27 Z" fill="#000000" fill-rule="evenodd" fill-opacity="1" /><path clip-path="url(#clip120)" d="M1720.97 2063.74 L1770.97 2063.74 L1770.97 2068.22 L1742.74 2141.5 L1731.75 2141.5 L1758.31 2072.59 L1720.97 2072.59 L1720.97 2063.74 Z" fill="#000000" fill-rule="evenodd" fill-opacity="1" /><path clip-path="url(#clip120)" d="M1826.21 2070.67 Q1818.08 2070.67 1813.97 2078.69 Q1809.91 2086.66 1809.91 2102.7 Q1809.91 2118.69 1813.97 2126.71 Q1818.08 2134.68 1826.21 2134.68 Q1834.39 2134.68 1838.45 2126.71 Q1842.56 2118.69 1842.56 2102.7 Q1842.56 2086.66 1838.45 2078.69 Q1834.39 2070.67 1826.21 2070.67 M1826.21 2062.33 Q1839.28 2062.33 1846.16 2072.7 Q1853.08 2083.01 1853.08 2102.7 Q1853.08 2122.33 1846.16 2132.7 Q1839.28 2143.01 1826.21 2143.01 Q1813.14 2143.01 1806.21 2132.7 Q1799.33 2122.33 1799.33 2102.7 Q1799.33 2083.01 1806.21 2072.7 Q1813.14 2062.33 1826.21 2062.33 Z" fill="#000000" fill-rule="evenodd" fill-opacity="1" /><path clip-path="url(#clip120)" d="M1871.57 2128.27 L1882.56 2128.27 L1882.56 2141.5 L1871.57 2141.5 L1871.57 2128.27 Z" fill="#000000" fill-rule="evenodd" fill-opacity="1" /><path clip-path="url(#clip120)" d="M1927.98 2104.57 Q1920.48 2104.57 1916.16 2108.58 Q1911.89 2112.59 1911.89 2119.62 Q1911.89 2126.66 1916.16 2130.67 Q1920.48 2134.68 1927.98 2134.68 Q1935.48 2134.68 1939.8 2130.67 Q1944.13 2126.6 1944.13 2119.62 Q1944.13 2112.59 1939.8 2108.58 Q1935.53 2104.57 1927.98 2104.57 M1917.46 2100.09 Q1910.69 2098.43 1906.89 2093.79 Q1903.14 2089.16 1903.14 2082.49 Q1903.14 2073.17 1909.75 2067.75 Q1916.42 2062.33 1927.98 2062.33 Q1939.59 2062.33 1946.21 2067.75 Q1952.82 2073.17 1952.82 2082.49 Q1952.82 2089.16 1949.02 2093.79 Q1945.27 2098.43 1938.55 2100.09 Q1946.16 2101.86 1950.38 2107.02 Q1954.65 2112.18 1954.65 2119.62 Q1954.65 2130.93 1947.72 2136.97 Q1940.84 2143.01 1927.98 2143.01 Q1915.12 2143.01 1908.19 2136.97 Q1901.31 2130.93 1901.31 2119.62 Q1901.31 2112.18 1905.58 2107.02 Q1909.85 2101.86 1917.46 2100.09 M1913.6 2083.48 Q1913.6 2089.52 1917.35 2092.91 Q1921.16 2096.29 1927.98 2096.29 Q1934.75 2096.29 1938.55 2092.91 Q1942.41 2089.52 1942.41 2083.48 Q1942.41 2077.44 1938.55 2074.05 Q1934.75 2070.67 1927.98 2070.67 Q1921.16 2070.67 1917.35 2074.05 Q1913.6 2077.44 1913.6 2083.48 Z" fill="#000000" fill-rule="evenodd" fill-opacity="1" /><path clip-path="url(#clip120)" d="M2009.08 2070.67 Q2000.95 2070.67 1996.84 2078.69 Q1992.78 2086.66 1992.78 2102.7 Q1992.78 2118.69 1996.84 2126.71 Q2000.95 2134.68 2009.08 2134.68 Q2017.26 2134.68 2021.32 2126.71 Q2025.43 2118.69 2025.43 2102.7 Q2025.43 2086.66 2021.32 2078.69 Q2017.26 2070.67 2009.08 2070.67 M2009.08 2062.33 Q2022.15 2062.33 2029.03 2072.7 Q2035.95 2083.01 2035.95 2102.7 Q2035.95 2122.33 2029.03 2132.7 Q2022.15 2143.01 2009.08 2143.01 Q1996.01 2143.01 1989.08 2132.7 Q1982.2 2122.33 1982.2 2102.7 Q1982.2 2083.01 1989.08 2072.7 Q1996.01 2062.33 2009.08 2062.33 Z" fill="#000000" fill-rule="evenodd" fill-opacity="1" /><path clip-path="url(#clip120)" d="M2054.44 2128.27 L2065.43 2128.27 L2065.43 2141.5 L2054.44 2141.5 L2054.44 2128.27 Z" fill="#000000" fill-rule="evenodd" fill-opacity="1" /><path clip-path="url(#clip120)" d="M2088.66 2139.89 L2088.66 2130.3 Q2092.62 2132.18 2096.68 2133.17 Q2100.74 2134.16 2104.65 2134.16 Q2115.07 2134.16 2120.54 2127.18 Q2126.06 2120.15 2126.84 2105.88 Q2123.82 2110.35 2119.18 2112.75 Q2114.55 2115.15 2108.92 2115.15 Q2097.25 2115.15 2090.43 2108.11 Q2083.66 2101.03 2083.66 2088.79 Q2083.66 2076.81 2090.74 2069.57 Q2097.83 2062.33 2109.6 2062.33 Q2123.09 2062.33 2130.17 2072.7 Q2137.31 2083.01 2137.31 2102.7 Q2137.31 2121.08 2128.56 2132.07 Q2119.86 2143.01 2105.12 2143.01 Q2101.16 2143.01 2097.1 2142.23 Q2093.04 2141.45 2088.66 2139.89 M2109.6 2106.92 Q2116.68 2106.92 2120.8 2102.07 Q2124.96 2097.23 2124.96 2088.79 Q2124.96 2080.41 2120.8 2075.56 Q2116.68 2070.67 2109.6 2070.67 Q2102.52 2070.67 2098.35 2075.56 Q2094.23 2080.41 2094.23 2088.79 Q2094.23 2097.23 2098.35 2102.07 Q2102.52 2106.92 2109.6 2106.92 Z" fill="#000000" fill-rule="evenodd" fill-opacity="1" /><path clip-path="url(#clip120)" d="M2168.61 2132.65 L2185.8 2132.65 L2185.8 2073.32 L2167.1 2077.07 L2167.1 2067.49 L2185.7 2063.74 L2196.22 2063.74 L2196.22 2132.65 L2213.41 2132.65 L2213.41 2141.5 L2168.61 2141.5 L2168.61 2132.65 Z" fill="#000000" fill-rule="evenodd" fill-opacity="1" /><path clip-path="url(#clip120)" d="M2234.66 2128.27 L2245.64 2128.27 L2245.64 2141.5 L2234.66 2141.5 L2234.66 2128.27 Z" fill="#000000" fill-rule="evenodd" fill-opacity="1" /><path clip-path="url(#clip120)" d="M2291.06 2070.67 Q2282.94 2070.67 2278.82 2078.69 Q2274.76 2086.66 2274.76 2102.7 Q2274.76 2118.69 2278.82 2126.71 Q2282.94 2134.68 2291.06 2134.68 Q2299.24 2134.68 2303.3 2126.71 Q2307.42 2118.69 2307.42 2102.7 Q2307.42 2086.66 2303.3 2078.69 Q2299.24 2070.67 2291.06 2070.67 M2291.06 2062.33 Q2304.13 2062.33 2311.01 2072.7 Q2317.94 2083.01 2317.94 2102.7 Q2317.94 2122.33 2311.01 2132.7 Q2304.13 2143.01 2291.06 2143.01 Q2277.99 2143.01 2271.06 2132.7 Q2264.19 2122.33 2264.19 2102.7 Q2264.19 2083.01 2271.06 2072.7 Q2277.99 2062.33 2291.06 2062.33 Z" fill="#000000" fill-rule="evenodd" fill-opacity="1" /><path clip-path="url(#clip120)" d="M1349.4 2174.54 L1346.52 2199.42 Q1346.31 2201.67 1345.96 2202.37 Q1345.61 2203 1344.49 2203 Q1343.64 2203 1343.15 2202.51 Q1342.73 2201.95 1342.73 2201.32 Q1342.73 2200.96 1342.8 2200.05 Q1342.87 2199.14 1342.87 2198.72 Q1343.5 2194.36 1343.5 2191.06 Q1343.5 2184.94 1341.68 2181.64 Q1339.85 2178.27 1335.14 2176.72 Q1330.43 2175.11 1321.58 2175.11 L1301.34 2175.11 Q1296.7 2175.11 1295.58 2175.95 Q1294.53 2176.79 1293.54 2180.73 L1284.9 2215.37 L1298.46 2215.37 Q1303.52 2215.37 1306.54 2214.74 Q1309.63 2214.1 1311.67 2212.35 Q1313.78 2210.52 1314.9 2208.06 Q1316.1 2205.6 1317.29 2201.17 Q1317.64 2199.7 1318 2199.14 Q1318.42 2198.57 1319.33 2198.57 Q1320.03 2198.57 1320.53 2199.07 Q1321.02 2199.49 1321.02 2200.12 L1312.8 2233.78 Q1312.37 2235.47 1311.95 2236.1 Q1311.53 2236.66 1310.69 2236.66 Q1309.77 2236.66 1309.28 2236.17 Q1308.79 2235.68 1308.79 2235.11 Q1308.79 2234.55 1309.21 2233.5 Q1310.27 2228.93 1310.27 2226.47 Q1310.27 2225.07 1310.13 2224.36 Q1310.06 2223.66 1309.42 2222.68 Q1308.86 2221.62 1307.6 2221.13 Q1306.33 2220.64 1303.94 2220.29 Q1301.55 2219.87 1297.97 2219.87 L1283.78 2219.87 L1273.94 2259.15 Q1273.24 2261.75 1273.24 2262.45 Q1273.24 2263.22 1273.59 2263.5 Q1274.01 2263.71 1275.13 2263.85 Q1276.4 2264.06 1278.29 2264.06 L1299.3 2264.06 Q1303.94 2264.06 1307.67 2263.64 Q1311.39 2263.22 1314.48 2262.17 Q1317.64 2261.11 1320.03 2259.92 Q1322.42 2258.72 1324.67 2256.55 Q1326.92 2254.3 1328.47 2252.33 Q1330.08 2250.29 1331.98 2246.85 Q1333.88 2243.41 1335.21 2240.59 Q1336.55 2237.71 1338.58 2233.08 Q1339.15 2231.39 1340.48 2231.39 Q1341.25 2231.39 1341.68 2231.81 Q1342.1 2232.16 1342.17 2232.51 L1342.17 2232.94 Q1341.75 2234.27 1341.46 2234.97 L1328.25 2266.03 Q1327.48 2267.79 1326.85 2268.14 Q1326.22 2268.49 1323.76 2268.49 L1249.06 2268.49 Q1247.38 2268.49 1246.67 2268.42 Q1246.04 2268.35 1245.55 2268 Q1245.06 2267.58 1245.06 2266.73 Q1245.06 2265.4 1245.62 2264.84 Q1246.18 2264.2 1246.81 2264.13 Q1247.45 2264.06 1249.06 2264.06 Q1252.58 2264.06 1254.68 2263.85 Q1256.79 2263.64 1258.13 2263.36 Q1259.53 2263.01 1260.24 2262.03 Q1261.01 2261.04 1261.36 2260.2 Q1261.71 2259.29 1262.2 2257.25 L1281.18 2181.15 Q1281.88 2178.55 1281.88 2177.71 Q1281.88 2176.79 1281.25 2176.23 Q1280.68 2175.67 1279.14 2175.46 Q1277.59 2175.18 1276.33 2175.18 Q1275.13 2175.11 1272.53 2175.11 Q1270.85 2175.11 1270.14 2175.04 Q1269.51 2174.96 1269.02 2174.61 Q1268.53 2174.26 1268.53 2173.49 Q1268.53 2171.52 1269.37 2171.1 Q1270.28 2170.61 1272.81 2170.61 L1345.47 2170.61 Q1348.35 2170.61 1348.98 2171.24 Q1349.69 2171.8 1349.4 2174.54 Z" fill="#000000" fill-rule="evenodd" fill-opacity="1" /><path clip-path="url(#clip120)" d="M1364.04 2250.86 L1364.04 2247.71 Q1376.14 2247.71 1382.39 2241.27 Q1384.11 2241.27 1384.41 2241.66 Q1384.7 2242.05 1384.7 2243.87 L1384.7 2300.39 Q1384.7 2303.39 1386.18 2304.32 Q1387.65 2305.26 1394.1 2305.26 L1397.29 2305.26 L1397.29 2308.36 Q1393.75 2308.06 1380.96 2308.06 Q1368.17 2308.06 1364.68 2308.36 L1364.68 2305.26 L1367.88 2305.26 Q1374.22 2305.26 1375.75 2304.37 Q1377.27 2303.44 1377.27 2300.39 L1377.27 2248.2 Q1372.01 2250.86 1364.04 2250.86 Z" fill="#000000" fill-rule="evenodd" fill-opacity="1" /><polyline clip-path="url(#clip120)" style="stroke:#000000; stroke-linecap:round; stroke-linejoin:round; stroke-width:4; stroke-opacity:1; fill:none" points="
  414.874,2025.1 414.874,47.2441 
  "/>
<polyline clip-path="url(#clip120)" style="stroke:#000000; stroke-linecap:round; stroke-linejoin:round; stroke-width:4; stroke-opacity:1; fill:none" points="
  414.874,2025.1 433.772,2025.1 
  "/>
<polyline clip-path="url(#clip120)" style="stroke:#000000; stroke-linecap:round; stroke-linejoin:round; stroke-width:4; stroke-opacity:1; fill:none" points="
  414.874,1827.31 433.772,1827.31 
  "/>
<polyline clip-path="url(#clip120)" style="stroke:#000000; stroke-linecap:round; stroke-linejoin:round; stroke-width:4; stroke-opacity:1; fill:none" points="
  414.874,1629.53 433.772,1629.53 
  "/>
<polyline clip-path="url(#clip120)" style="stroke:#000000; stroke-linecap:round; stroke-linejoin:round; stroke-width:4; stroke-opacity:1; fill:none" points="
  414.874,1431.74 433.772,1431.74 
  "/>
<polyline clip-path="url(#clip120)" style="stroke:#000000; stroke-linecap:round; stroke-linejoin:round; stroke-width:4; stroke-opacity:1; fill:none" points="
  414.874,1233.96 433.772,1233.96 
  "/>
<polyline clip-path="url(#clip120)" style="stroke:#000000; stroke-linecap:round; stroke-linejoin:round; stroke-width:4; stroke-opacity:1; fill:none" points="
  414.874,1036.17 433.772,1036.17 
  "/>
<polyline clip-path="url(#clip120)" style="stroke:#000000; stroke-linecap:round; stroke-linejoin:round; stroke-width:4; stroke-opacity:1; fill:none" points="
  414.874,838.386 433.772,838.386 
  "/>
<polyline clip-path="url(#clip120)" style="stroke:#000000; stroke-linecap:round; stroke-linejoin:round; stroke-width:4; stroke-opacity:1; fill:none" points="
  414.874,640.601 433.772,640.601 
  "/>
<polyline clip-path="url(#clip120)" style="stroke:#000000; stroke-linecap:round; stroke-linejoin:round; stroke-width:4; stroke-opacity:1; fill:none" points="
  414.874,442.815 433.772,442.815 
  "/>
<polyline clip-path="url(#clip120)" style="stroke:#000000; stroke-linecap:round; stroke-linejoin:round; stroke-width:4; stroke-opacity:1; fill:none" points="
  414.874,245.03 433.772,245.03 
  "/>
<polyline clip-path="url(#clip120)" style="stroke:#000000; stroke-linecap:round; stroke-linejoin:round; stroke-width:4; stroke-opacity:1; fill:none" points="
  414.874,47.2441 433.772,47.2441 
  "/>
<path clip-path="url(#clip120)" d="M250.229 1993.15 Q242.104 1993.15 237.989 2001.17 Q233.927 2009.14 233.927 2025.18 Q233.927 2041.17 237.989 2049.19 Q242.104 2057.16 250.229 2057.16 Q258.406 2057.16 262.468 2049.19 Q266.583 2041.17 266.583 2025.18 Q266.583 2009.14 262.468 2001.17 Q258.406 1993.15 250.229 1993.15 M250.229 1984.81 Q263.302 1984.81 270.177 1995.18 Q277.104 2005.49 277.104 2025.18 Q277.104 2044.81 270.177 2055.18 Q263.302 2065.49 250.229 2065.49 Q237.156 2065.49 230.229 2055.18 Q223.354 2044.81 223.354 2025.18 Q223.354 2005.49 230.229 1995.18 Q237.156 1984.81 250.229 1984.81 Z" fill="#000000" fill-rule="evenodd" fill-opacity="1" /><path clip-path="url(#clip120)" d="M295.593 2050.75 L306.583 2050.75 L306.583 2063.98 L295.593 2063.98 L295.593 2050.75 Z" fill="#000000" fill-rule="evenodd" fill-opacity="1" /><path clip-path="url(#clip120)" d="M351.999 1993.15 Q343.874 1993.15 339.76 2001.17 Q335.697 2009.14 335.697 2025.18 Q335.697 2041.17 339.76 2049.19 Q343.874 2057.16 351.999 2057.16 Q360.176 2057.16 364.239 2049.19 Q368.353 2041.17 368.353 2025.18 Q368.353 2009.14 364.239 2001.17 Q360.176 1993.15 351.999 1993.15 M351.999 1984.81 Q365.072 1984.81 371.947 1995.18 Q378.874 2005.49 378.874 2025.18 Q378.874 2044.81 371.947 2055.18 Q365.072 2065.49 351.999 2065.49 Q338.926 2065.49 331.999 2055.18 Q325.124 2044.81 325.124 2025.18 Q325.124 2005.49 331.999 1995.18 Q338.926 1984.81 351.999 1984.81 Z" fill="#000000" fill-rule="evenodd" fill-opacity="1" /><path clip-path="url(#clip120)" d="M252.989 1795.36 Q244.864 1795.36 240.75 1803.38 Q236.687 1811.35 236.687 1827.39 Q236.687 1843.38 240.75 1851.4 Q244.864 1859.37 252.989 1859.37 Q261.166 1859.37 265.229 1851.4 Q269.343 1843.38 269.343 1827.39 Q269.343 1811.35 265.229 1803.38 Q261.166 1795.36 252.989 1795.36 M252.989 1787.03 Q266.062 1787.03 272.937 1797.39 Q279.864 1807.7 279.864 1827.39 Q279.864 1847.03 272.937 1857.39 Q266.062 1867.7 252.989 1867.7 Q239.916 1867.7 232.989 1857.39 Q226.114 1847.03 226.114 1827.39 Q226.114 1807.7 232.989 1797.39 Q239.916 1787.03 252.989 1787.03 Z" fill="#000000" fill-rule="evenodd" fill-opacity="1" /><path clip-path="url(#clip120)" d="M298.353 1852.97 L309.343 1852.97 L309.343 1866.19 L298.353 1866.19 L298.353 1852.97 Z" fill="#000000" fill-rule="evenodd" fill-opacity="1" /><path clip-path="url(#clip120)" d="M334.082 1857.34 L351.27 1857.34 L351.27 1798.02 L332.572 1801.77 L332.572 1792.18 L351.166 1788.43 L361.686 1788.43 L361.686 1857.34 L378.874 1857.34 L378.874 1866.19 L334.082 1866.19 L334.082 1857.34 Z" fill="#000000" fill-rule="evenodd" fill-opacity="1" /><path clip-path="url(#clip120)" d="M253.822 1597.58 Q245.698 1597.58 241.583 1605.6 Q237.52 1613.57 237.52 1629.61 Q237.52 1645.6 241.583 1653.62 Q245.698 1661.59 253.822 1661.59 Q262 1661.59 266.062 1653.62 Q270.177 1645.6 270.177 1629.61 Q270.177 1613.57 266.062 1605.6 Q262 1597.58 253.822 1597.58 M253.822 1589.24 Q266.895 1589.24 273.77 1599.61 Q280.697 1609.92 280.697 1629.61 Q280.697 1649.24 273.77 1659.61 Q266.895 1669.92 253.822 1669.92 Q240.75 1669.92 233.823 1659.61 Q226.948 1649.24 226.948 1629.61 Q226.948 1609.92 233.823 1599.61 Q240.75 1589.24 253.822 1589.24 Z" fill="#000000" fill-rule="evenodd" fill-opacity="1" /><path clip-path="url(#clip120)" d="M299.187 1655.18 L310.176 1655.18 L310.176 1668.41 L299.187 1668.41 L299.187 1655.18 Z" fill="#000000" fill-rule="evenodd" fill-opacity="1" /><path clip-path="url(#clip120)" d="M342.155 1659.55 L378.874 1659.55 L378.874 1668.41 L329.499 1668.41 L329.499 1659.55 Q335.489 1653.36 345.801 1642.94 Q356.166 1632.47 358.822 1629.45 Q363.874 1623.77 365.853 1619.87 Q367.884 1615.91 367.884 1612.11 Q367.884 1605.91 363.509 1602 Q359.187 1598.1 352.207 1598.1 Q347.259 1598.1 341.739 1599.82 Q336.27 1601.53 330.02 1605.02 L330.02 1594.4 Q336.374 1591.85 341.895 1590.54 Q347.416 1589.24 351.999 1589.24 Q364.082 1589.24 371.27 1595.28 Q378.457 1601.33 378.457 1611.43 Q378.457 1616.22 376.634 1620.54 Q374.864 1624.82 370.124 1630.65 Q368.822 1632.16 361.843 1639.4 Q354.864 1646.59 342.155 1659.55 Z" fill="#000000" fill-rule="evenodd" fill-opacity="1" /><path clip-path="url(#clip120)" d="M251.687 1399.79 Q243.562 1399.79 239.448 1407.81 Q235.385 1415.78 235.385 1431.82 Q235.385 1447.81 239.448 1455.83 Q243.562 1463.8 251.687 1463.8 Q259.864 1463.8 263.927 1455.83 Q268.041 1447.81 268.041 1431.82 Q268.041 1415.78 263.927 1407.81 Q259.864 1399.79 251.687 1399.79 M251.687 1391.46 Q264.76 1391.46 271.635 1401.82 Q278.562 1412.13 278.562 1431.82 Q278.562 1451.46 271.635 1461.82 Q264.76 1472.13 251.687 1472.13 Q238.614 1472.13 231.687 1461.82 Q224.812 1451.46 224.812 1431.82 Q224.812 1412.13 231.687 1401.82 Q238.614 1391.46 251.687 1391.46 Z" fill="#000000" fill-rule="evenodd" fill-opacity="1" /><path clip-path="url(#clip120)" d="M297.051 1457.39 L308.041 1457.39 L308.041 1470.62 L297.051 1470.62 L297.051 1457.39 Z" fill="#000000" fill-rule="evenodd" fill-opacity="1" /><path clip-path="url(#clip120)" d="M362.832 1428.7 Q370.384 1430.31 374.603 1435.41 Q378.874 1440.52 378.874 1448.02 Q378.874 1459.53 370.957 1465.83 Q363.041 1472.13 348.457 1472.13 Q343.562 1472.13 338.353 1471.14 Q333.197 1470.21 327.676 1468.28 L327.676 1458.12 Q332.051 1460.68 337.26 1461.98 Q342.468 1463.28 348.145 1463.28 Q358.041 1463.28 363.197 1459.37 Q368.405 1455.47 368.405 1448.02 Q368.405 1441.14 363.561 1437.29 Q358.77 1433.38 350.176 1433.38 L341.114 1433.38 L341.114 1424.74 L350.593 1424.74 Q358.353 1424.74 362.468 1421.67 Q366.582 1418.54 366.582 1412.71 Q366.582 1406.72 362.311 1403.54 Q358.093 1400.31 350.176 1400.31 Q345.853 1400.31 340.905 1401.25 Q335.957 1402.19 330.02 1404.17 L330.02 1394.79 Q336.01 1393.12 341.218 1392.29 Q346.478 1391.46 351.114 1391.46 Q363.093 1391.46 370.072 1396.93 Q377.051 1402.34 377.051 1411.61 Q377.051 1418.07 373.353 1422.55 Q369.655 1426.98 362.832 1428.7 Z" fill="#000000" fill-rule="evenodd" fill-opacity="1" /><path clip-path="url(#clip120)" d="M249.135 1202 Q241.01 1202 236.895 1210.03 Q232.833 1217.99 232.833 1234.04 Q232.833 1250.03 236.895 1258.05 Q241.01 1266.01 249.135 1266.01 Q257.312 1266.01 261.375 1258.05 Q265.489 1250.03 265.489 1234.04 Q265.489 1217.99 261.375 1210.03 Q257.312 1202 249.135 1202 M249.135 1193.67 Q262.208 1193.67 269.083 1204.04 Q276.01 1214.35 276.01 1234.04 Q276.01 1253.67 269.083 1264.04 Q262.208 1274.35 249.135 1274.35 Q236.062 1274.35 229.135 1264.04 Q222.26 1253.67 222.26 1234.04 Q222.26 1214.35 229.135 1204.04 Q236.062 1193.67 249.135 1193.67 Z" fill="#000000" fill-rule="evenodd" fill-opacity="1" /><path clip-path="url(#clip120)" d="M294.499 1259.61 L305.489 1259.61 L305.489 1272.84 L294.499 1272.84 L294.499 1259.61 Z" fill="#000000" fill-rule="evenodd" fill-opacity="1" /><path clip-path="url(#clip120)" d="M357.312 1204.24 L330.749 1245.75 L357.312 1245.75 L357.312 1204.24 M354.551 1195.08 L367.78 1195.08 L367.78 1245.75 L378.874 1245.75 L378.874 1254.5 L367.78 1254.5 L367.78 1272.84 L357.312 1272.84 L357.312 1254.5 L322.208 1254.5 L322.208 1244.35 L354.551 1195.08 Z" fill="#000000" fill-rule="evenodd" fill-opacity="1" /><path clip-path="url(#clip120)" d="M252.468 1004.22 Q244.343 1004.22 240.229 1012.24 Q236.166 1020.21 236.166 1036.25 Q236.166 1052.24 240.229 1060.26 Q244.343 1068.23 252.468 1068.23 Q260.645 1068.23 264.708 1060.26 Q268.822 1052.24 268.822 1036.25 Q268.822 1020.21 264.708 1012.24 Q260.645 1004.22 252.468 1004.22 M252.468 995.886 Q265.541 995.886 272.416 1006.25 Q279.343 1016.56 279.343 1036.25 Q279.343 1055.89 272.416 1066.25 Q265.541 1076.56 252.468 1076.56 Q239.395 1076.56 232.468 1066.25 Q225.593 1055.89 225.593 1036.25 Q225.593 1016.56 232.468 1006.25 Q239.395 995.886 252.468 995.886 Z" fill="#000000" fill-rule="evenodd" fill-opacity="1" /><path clip-path="url(#clip120)" d="M297.833 1061.82 L308.822 1061.82 L308.822 1075.05 L297.833 1075.05 L297.833 1061.82 Z" fill="#000000" fill-rule="evenodd" fill-opacity="1" /><path clip-path="url(#clip120)" d="M331.843 997.292 L373.145 997.292 L373.145 1006.15 L341.478 1006.15 L341.478 1025.21 Q343.77 1024.43 346.062 1024.06 Q348.353 1023.65 350.645 1023.65 Q363.666 1023.65 371.27 1030.78 Q378.874 1037.92 378.874 1050.1 Q378.874 1062.66 371.061 1069.64 Q363.249 1076.56 349.03 1076.56 Q344.135 1076.56 339.03 1075.73 Q333.978 1074.9 328.562 1073.23 L328.562 1062.66 Q333.249 1065.21 338.249 1066.46 Q343.249 1067.71 348.822 1067.71 Q357.832 1067.71 363.093 1062.97 Q368.353 1058.23 368.353 1050.1 Q368.353 1041.98 363.093 1037.24 Q357.832 1032.5 348.822 1032.5 Q344.603 1032.5 340.385 1033.44 Q336.218 1034.38 331.843 1036.35 L331.843 997.292 Z" fill="#000000" fill-rule="evenodd" fill-opacity="1" /><path clip-path="url(#clip120)" d="M249.864 806.433 Q241.739 806.433 237.625 814.454 Q233.562 822.423 233.562 838.465 Q233.562 854.454 237.625 862.475 Q241.739 870.444 249.864 870.444 Q258.041 870.444 262.104 862.475 Q266.218 854.454 266.218 838.465 Q266.218 822.423 262.104 814.454 Q258.041 806.433 249.864 806.433 M249.864 798.1 Q262.937 798.1 269.812 808.465 Q276.739 818.777 276.739 838.465 Q276.739 858.1 269.812 868.464 Q262.937 878.777 249.864 878.777 Q236.791 878.777 229.864 868.464 Q222.989 858.1 222.989 838.465 Q222.989 818.777 229.864 808.465 Q236.791 798.1 249.864 798.1 Z" fill="#000000" fill-rule="evenodd" fill-opacity="1" /><path clip-path="url(#clip120)" d="M295.229 864.037 L306.218 864.037 L306.218 877.266 L295.229 877.266 L295.229 864.037 Z" fill="#000000" fill-rule="evenodd" fill-opacity="1" /><path clip-path="url(#clip120)" d="M352.937 834.194 Q345.853 834.194 341.687 839.037 Q337.572 843.881 337.572 852.319 Q337.572 860.704 341.687 865.6 Q345.853 870.444 352.937 870.444 Q360.02 870.444 364.134 865.6 Q368.301 860.704 368.301 852.319 Q368.301 843.881 364.134 839.037 Q360.02 834.194 352.937 834.194 M373.822 801.225 L373.822 810.808 Q369.864 808.933 365.801 807.944 Q361.791 806.954 357.832 806.954 Q347.416 806.954 341.895 813.985 Q336.426 821.017 335.645 835.235 Q338.718 830.704 343.353 828.308 Q347.989 825.86 353.562 825.86 Q365.28 825.86 372.051 832.996 Q378.874 840.079 378.874 852.319 Q378.874 864.298 371.791 871.537 Q364.707 878.777 352.937 878.777 Q339.447 878.777 332.312 868.464 Q325.176 858.1 325.176 838.465 Q325.176 820.027 333.926 809.09 Q342.676 798.1 357.416 798.1 Q361.374 798.1 365.384 798.881 Q369.447 799.663 373.822 801.225 Z" fill="#000000" fill-rule="evenodd" fill-opacity="1" /><path clip-path="url(#clip120)" d="M252.26 608.648 Q244.135 608.648 240.02 616.669 Q235.958 624.637 235.958 640.679 Q235.958 656.668 240.02 664.689 Q244.135 672.658 252.26 672.658 Q260.437 672.658 264.5 664.689 Q268.614 656.668 268.614 640.679 Q268.614 624.637 264.5 616.669 Q260.437 608.648 252.26 608.648 M252.26 600.315 Q265.333 600.315 272.208 610.679 Q279.135 620.992 279.135 640.679 Q279.135 660.314 272.208 670.679 Q265.333 680.991 252.26 680.991 Q239.187 680.991 232.26 670.679 Q225.385 660.314 225.385 640.679 Q225.385 620.992 232.26 610.679 Q239.187 600.315 252.26 600.315 Z" fill="#000000" fill-rule="evenodd" fill-opacity="1" /><path clip-path="url(#clip120)" d="M297.624 666.252 L308.614 666.252 L308.614 679.481 L297.624 679.481 L297.624 666.252 Z" fill="#000000" fill-rule="evenodd" fill-opacity="1" /><path clip-path="url(#clip120)" d="M328.874 601.721 L378.874 601.721 L378.874 606.2 L350.645 679.481 L339.655 679.481 L366.218 610.575 L328.874 610.575 L328.874 601.721 Z" fill="#000000" fill-rule="evenodd" fill-opacity="1" /><path clip-path="url(#clip120)" d="M250.437 410.862 Q242.312 410.862 238.198 418.883 Q234.135 426.852 234.135 442.893 Q234.135 458.883 238.198 466.904 Q242.312 474.872 250.437 474.872 Q258.614 474.872 262.677 466.904 Q266.791 458.883 266.791 442.893 Q266.791 426.852 262.677 418.883 Q258.614 410.862 250.437 410.862 M250.437 402.529 Q263.51 402.529 270.385 412.894 Q277.312 423.206 277.312 442.893 Q277.312 462.529 270.385 472.893 Q263.51 483.206 250.437 483.206 Q237.364 483.206 230.437 472.893 Q223.562 462.529 223.562 442.893 Q223.562 423.206 230.437 412.894 Q237.364 402.529 250.437 402.529 Z" fill="#000000" fill-rule="evenodd" fill-opacity="1" /><path clip-path="url(#clip120)" d="M295.801 468.466 L306.791 468.466 L306.791 481.695 L295.801 481.695 L295.801 468.466 Z" fill="#000000" fill-rule="evenodd" fill-opacity="1" /><path clip-path="url(#clip120)" d="M352.207 444.768 Q344.707 444.768 340.385 448.779 Q336.114 452.789 336.114 459.82 Q336.114 466.852 340.385 470.862 Q344.707 474.872 352.207 474.872 Q359.707 474.872 364.03 470.862 Q368.353 466.799 368.353 459.82 Q368.353 452.789 364.03 448.779 Q359.759 444.768 352.207 444.768 M341.687 440.289 Q334.916 438.623 331.114 433.987 Q327.364 429.352 327.364 422.685 Q327.364 413.362 333.978 407.946 Q340.645 402.529 352.207 402.529 Q363.822 402.529 370.436 407.946 Q377.051 413.362 377.051 422.685 Q377.051 429.352 373.249 433.987 Q369.499 438.623 362.78 440.289 Q370.384 442.06 374.603 447.216 Q378.874 452.372 378.874 459.82 Q378.874 471.122 371.947 477.164 Q365.072 483.206 352.207 483.206 Q339.343 483.206 332.416 477.164 Q325.541 471.122 325.541 459.82 Q325.541 452.372 329.812 447.216 Q334.082 442.06 341.687 440.289 M337.832 423.675 Q337.832 429.716 341.582 433.102 Q345.384 436.487 352.207 436.487 Q358.978 436.487 362.78 433.102 Q366.634 429.716 366.634 423.675 Q366.634 417.633 362.78 414.248 Q358.978 410.862 352.207 410.862 Q345.384 410.862 341.582 414.248 Q337.832 417.633 337.832 423.675 Z" fill="#000000" fill-rule="evenodd" fill-opacity="1" /><path clip-path="url(#clip120)" d="M250.645 213.077 Q242.52 213.077 238.406 221.098 Q234.343 229.066 234.343 245.108 Q234.343 261.097 238.406 269.118 Q242.52 277.087 250.645 277.087 Q258.822 277.087 262.885 269.118 Q267 261.097 267 245.108 Q267 229.066 262.885 221.098 Q258.822 213.077 250.645 213.077 M250.645 204.743 Q263.718 204.743 270.593 215.108 Q277.52 225.42 277.52 245.108 Q277.52 264.743 270.593 275.108 Q263.718 285.42 250.645 285.42 Q237.573 285.42 230.646 275.108 Q223.771 264.743 223.771 245.108 Q223.771 225.42 230.646 215.108 Q237.573 204.743 250.645 204.743 Z" fill="#000000" fill-rule="evenodd" fill-opacity="1" /><path clip-path="url(#clip120)" d="M296.01 270.681 L306.999 270.681 L306.999 283.91 L296.01 283.91 L296.01 270.681 Z" fill="#000000" fill-rule="evenodd" fill-opacity="1" /><path clip-path="url(#clip120)" d="M330.228 282.295 L330.228 272.712 Q334.187 274.587 338.249 275.576 Q342.312 276.566 346.218 276.566 Q356.634 276.566 362.103 269.587 Q367.624 262.556 368.405 248.285 Q365.384 252.764 360.749 255.16 Q356.114 257.556 350.489 257.556 Q338.822 257.556 331.999 250.524 Q325.228 243.441 325.228 231.202 Q325.228 219.223 332.312 211.983 Q339.395 204.743 351.166 204.743 Q364.655 204.743 371.739 215.108 Q378.874 225.42 378.874 245.108 Q378.874 263.493 370.124 274.483 Q361.426 285.42 346.687 285.42 Q342.728 285.42 338.666 284.639 Q334.603 283.858 330.228 282.295 M351.166 249.327 Q358.249 249.327 362.364 244.483 Q366.53 239.639 366.53 231.202 Q366.53 222.816 362.364 217.973 Q358.249 213.077 351.166 213.077 Q344.082 213.077 339.916 217.973 Q335.801 222.816 335.801 231.202 Q335.801 239.639 339.916 244.483 Q344.082 249.327 351.166 249.327 Z" fill="#000000" fill-rule="evenodd" fill-opacity="1" /><path clip-path="url(#clip120)" d="M229.552 77.27 L246.739 77.27 L246.739 17.9474 L228.041 21.6974 L228.041 12.1141 L246.635 8.36409 L257.156 8.36409 L257.156 77.27 L274.343 77.27 L274.343 86.1241 L229.552 86.1241 L229.552 77.27 Z" fill="#000000" fill-rule="evenodd" fill-opacity="1" /><path clip-path="url(#clip120)" d="M295.593 72.895 L306.583 72.895 L306.583 86.1241 L295.593 86.1241 L295.593 72.895 Z" fill="#000000" fill-rule="evenodd" fill-opacity="1" /><path clip-path="url(#clip120)" d="M351.999 15.2911 Q343.874 15.2911 339.76 23.3119 Q335.697 31.2806 335.697 47.3222 Q335.697 63.3117 339.76 71.3325 Q343.874 79.3012 351.999 79.3012 Q360.176 79.3012 364.239 71.3325 Q368.353 63.3117 368.353 47.3222 Q368.353 31.2806 364.239 23.3119 Q360.176 15.2911 351.999 15.2911 M351.999 6.95785 Q365.072 6.95785 371.947 17.3224 Q378.874 27.6348 378.874 47.3222 Q378.874 66.9575 371.947 77.3221 Q365.072 87.6345 351.999 87.6345 Q338.926 87.6345 331.999 77.3221 Q325.124 66.9575 325.124 47.3222 Q325.124 27.6348 331.999 17.3224 Q338.926 6.95785 351.999 6.95785 Z" fill="#000000" fill-rule="evenodd" fill-opacity="1" /><path clip-path="url(#clip120)" d="M58.6477 1018.92 L83.5223 1021.8 Q85.7709 1022.01 86.4736 1022.36 Q87.106 1022.71 87.106 1023.84 Q87.106 1024.68 86.6141 1025.17 Q86.052 1025.6 85.4196 1025.6 Q85.0682 1025.6 84.1547 1025.53 Q83.2413 1025.45 82.8197 1025.45 Q78.4631 1024.82 75.1605 1024.82 Q69.0473 1024.82 65.7447 1026.65 Q62.3719 1028.48 60.826 1033.18 Q59.2098 1037.89 59.2098 1046.75 L59.2098 1066.98 Q59.2098 1071.62 60.053 1072.74 Q60.8963 1073.8 64.8312 1074.78 L99.473 1083.43 L99.473 1069.86 Q99.473 1064.8 98.8406 1061.78 Q98.2082 1058.69 96.4515 1056.65 Q94.6246 1054.55 92.1652 1053.42 Q89.7059 1052.23 85.279 1051.03 Q83.8034 1050.68 83.2413 1050.33 Q82.6791 1049.91 82.6791 1048.99 Q82.6791 1048.29 83.171 1047.8 Q83.5926 1047.31 84.225 1047.31 L117.883 1055.53 Q119.569 1055.95 120.202 1056.37 Q120.764 1056.79 120.764 1057.64 Q120.764 1058.55 120.272 1059.04 Q119.78 1059.53 119.218 1059.53 Q118.656 1059.53 117.602 1059.11 Q113.035 1058.06 110.575 1058.06 Q109.17 1058.06 108.467 1058.2 Q107.765 1058.27 106.781 1058.9 Q105.727 1059.46 105.235 1060.73 Q104.743 1061.99 104.392 1064.38 Q103.97 1066.77 103.97 1070.36 L103.97 1084.55 L143.25 1094.39 Q145.849 1095.09 146.552 1095.09 Q147.325 1095.09 147.606 1094.74 Q147.817 1094.32 147.957 1093.19 Q148.168 1091.93 148.168 1090.03 L148.168 1069.02 Q148.168 1064.38 147.747 1060.66 Q147.325 1056.93 146.271 1053.84 Q145.217 1050.68 144.023 1048.29 Q142.828 1045.9 140.65 1043.65 Q138.401 1041.41 136.434 1039.86 Q134.396 1038.24 130.953 1036.35 Q127.51 1034.45 124.699 1033.11 Q121.818 1031.78 117.18 1029.74 Q115.494 1029.18 115.494 1027.84 Q115.494 1027.07 115.916 1026.65 Q116.267 1026.23 116.618 1026.16 L117.04 1026.16 Q118.375 1026.58 119.078 1026.86 L150.136 1040.07 Q151.892 1040.84 152.244 1041.48 Q152.595 1042.11 152.595 1044.57 L152.595 1119.26 Q152.595 1120.95 152.525 1121.65 Q152.455 1122.28 152.103 1122.78 Q151.682 1123.27 150.838 1123.27 Q149.503 1123.27 148.941 1122.7 Q148.309 1122.14 148.239 1121.51 Q148.168 1120.88 148.168 1119.26 Q148.168 1115.75 147.957 1113.64 Q147.747 1111.53 147.466 1110.2 Q147.114 1108.79 146.131 1108.09 Q145.147 1107.32 144.304 1106.97 Q143.39 1106.61 141.352 1106.12 L65.2528 1087.15 Q62.6529 1086.45 61.8097 1086.45 Q60.8963 1086.45 60.3341 1087.08 Q59.772 1087.64 59.5612 1089.19 Q59.2801 1090.73 59.2801 1092 Q59.2098 1093.19 59.2098 1095.79 Q59.2098 1097.48 59.1396 1098.18 Q59.0693 1098.81 58.718 1099.31 Q58.3666 1099.8 57.5937 1099.8 Q55.6262 1099.8 55.2046 1098.95 Q54.7127 1098.04 54.7127 1095.51 L54.7127 1022.86 Q54.7127 1019.97 55.3451 1019.34 Q55.9073 1018.64 58.6477 1018.92 Z" fill="#000000" fill-rule="evenodd" fill-opacity="1" /><path clip-path="url(#clip120)" d="M192.462 1004.28 Q190.642 1004.28 190.101 1004.13 Q189.56 1003.94 188.724 1003.15 L167.18 983.82 Q155.277 973.245 144.898 973.245 Q138.16 973.245 133.339 976.787 Q128.519 980.279 128.519 986.722 Q128.519 991.149 131.224 994.887 Q133.93 998.626 138.75 1000.35 Q138.652 1000.05 138.652 999.019 Q138.652 996.511 140.226 995.133 Q141.8 993.707 143.915 993.707 Q146.62 993.707 147.948 995.478 Q149.227 997.199 149.227 998.921 Q149.227 999.609 149.079 1000.54 Q148.932 1001.43 147.554 1002.86 Q146.128 1004.28 143.619 1004.28 Q136.586 1004.28 130.978 998.97 Q125.371 993.609 125.371 985.443 Q125.371 976.196 130.88 970.146 Q136.34 964.047 144.898 964.047 Q147.899 964.047 150.653 964.982 Q153.359 965.867 155.474 967.097 Q157.589 968.277 160.983 971.523 Q164.376 974.77 166.787 977.377 Q169.197 979.984 174.312 985.837 L184.691 996.511 L184.691 978.361 Q184.691 969.507 183.904 968.818 Q182.477 967.834 174.952 966.605 L174.952 964.047 L192.462 966.9 L192.462 1004.28 Z" fill="#000000" fill-rule="evenodd" fill-opacity="1" /><path clip-path="url(#clip120)" d="M750.116 1307.24 L777.22 1338.41 L770.539 1344.22 L749.758 1320.32 L735.374 1332.83 Q737.468 1334.05 739.247 1335.54 Q741.065 1336.99 742.569 1338.72 Q751.113 1348.55 750.719 1358.97 Q750.325 1369.39 741.129 1377.39 Q731.658 1385.62 721.265 1384.31 Q710.911 1382.96 701.581 1372.23 Q698.368 1368.54 695.647 1364.14 Q692.961 1359.78 690.664 1354.6 L698.642 1347.66 Q699.792 1352.87 702.13 1357.46 Q704.468 1362.06 708.125 1366.26 Q714.038 1373.06 721.066 1373.92 Q728.094 1374.78 734.225 1369.45 Q740.356 1364.12 740.48 1357.04 Q740.604 1349.96 734.692 1343.16 Q731.923 1339.97 728.447 1337.41 Q725.006 1334.88 720.641 1332.88 L750.116 1307.24 Z" fill="#000000" fill-rule="evenodd" fill-opacity="1" /><path clip-path="url(#clip120)" d="M804.12 1379.89 Q798.789 1373.76 790.036 1375.92 Q781.358 1378.09 769.253 1388.61 Q757.188 1399.11 753.802 1407.43 Q750.489 1415.77 755.821 1421.9 Q761.187 1428.07 769.866 1425.91 Q778.618 1423.75 790.683 1413.25 Q802.787 1402.73 806.1 1394.39 Q809.486 1386.06 804.12 1379.89 M810.408 1374.43 Q818.987 1384.29 815.678 1396.28 Q812.442 1408.27 797.587 1421.19 Q782.771 1434.08 770.405 1435.65 Q758.112 1437.23 749.533 1427.37 Q740.954 1417.5 744.19 1405.51 Q747.499 1393.52 762.315 1380.64 Q777.17 1367.72 789.463 1366.14 Q801.83 1364.56 810.408 1374.43 Z" fill="#000000" fill-rule="evenodd" fill-opacity="1" /><path clip-path="url(#clip120)" d="M848.655 1431.1 Q843.323 1424.97 834.571 1427.13 Q825.892 1429.29 813.788 1439.82 Q801.723 1450.31 798.336 1458.64 Q795.024 1466.98 800.355 1473.11 Q805.721 1479.28 814.4 1477.11 Q823.153 1474.95 835.218 1464.46 Q847.322 1453.93 850.635 1445.6 Q854.021 1437.27 848.655 1431.1 M854.943 1425.63 Q863.522 1435.5 860.213 1447.49 Q856.977 1459.48 842.122 1472.4 Q827.306 1485.29 814.939 1486.86 Q802.646 1488.44 794.067 1478.58 Q785.489 1468.71 788.724 1456.72 Q792.033 1444.73 806.849 1431.84 Q821.705 1418.92 833.998 1417.34 Q846.364 1415.77 854.943 1425.63 Z" fill="#000000" fill-rule="evenodd" fill-opacity="1" /><polyline clip-path="url(#clip122)" style="stroke:#fff4c5; stroke-linecap:round; stroke-linejoin:round; stroke-width:20; stroke-opacity:1; fill:none" points="
  991.285,2025.1 987.068,1926.21 974.415,1827.31 963.168,1774.57 951.537,1728.42 916.646,1629.53 871.785,1530.64 845.071,1491.21 
  "/>
<polyline clip-path="url(#clip122)" style="stroke:#fff4c5; stroke-linecap:round; stroke-linejoin:round; stroke-width:20; stroke-opacity:1; fill:none" points="
  700.345,1324.8 689.021,1315.27 597.638,1260.33 524.533,1233.96 506.256,1228.14 414.874,1218.44 
  "/>
<path clip-path="url(#clip120)" d="M563.677 922.09 L579.124 929.627 L605.137 876.312 L586.688 871.483 L590.891 862.87 L609.246 867.653 L618.701 872.267 L588.486 934.195 L603.933 941.731 L600.05 949.689 L559.795 930.048 L563.677 922.09 Z" fill="#000000" fill-rule="evenodd" fill-opacity="1" /><path clip-path="url(#clip120)" d="M670.43 905.213 Q663.128 901.65 655.913 907.055 Q648.767 912.435 641.733 926.852 Q634.722 941.222 634.856 950.212 Q635.059 959.178 642.362 962.741 Q649.71 966.327 656.856 960.946 Q664.071 955.542 671.082 941.172 Q678.116 926.754 677.913 917.789 Q677.779 908.799 670.43 905.213 M674.084 897.724 Q685.833 903.456 687.467 915.786 Q689.17 928.091 680.538 945.785 Q671.928 963.432 661.157 969.709 Q650.456 975.963 638.707 970.23 Q626.958 964.498 625.255 952.192 Q623.621 939.863 632.231 922.216 Q640.864 904.522 651.565 898.269 Q662.335 891.991 674.084 897.724 Z" fill="#000000" fill-rule="evenodd" fill-opacity="1" /><path clip-path="url(#clip120)" d="M731.422 934.971 Q724.119 931.408 716.904 936.813 Q709.759 942.193 702.725 956.61 Q695.714 970.981 695.848 979.97 Q696.051 988.936 703.353 992.499 Q710.702 996.085 717.848 990.704 Q725.063 985.3 732.074 970.93 Q739.108 956.513 738.905 947.547 Q738.771 938.557 731.422 934.971 M735.076 927.482 Q746.825 933.214 748.459 945.544 Q750.162 957.849 741.529 975.543 Q732.919 993.19 722.149 999.468 Q711.448 1005.72 699.699 999.989 Q687.95 994.256 686.247 981.951 Q684.613 969.621 693.223 951.974 Q701.856 934.28 712.556 928.027 Q723.327 921.749 735.076 927.482 Z" fill="#000000" fill-rule="evenodd" fill-opacity="1" /><path clip-path="url(#clip120)" d="M792.413 964.73 Q785.111 961.167 777.896 966.571 Q770.751 971.951 763.717 986.369 Q756.705 1000.74 756.839 1009.73 Q757.043 1018.69 764.345 1022.26 Q771.694 1025.84 778.839 1020.46 Q786.054 1015.06 793.066 1000.69 Q800.1 986.271 799.896 977.305 Q799.762 968.315 792.413 964.73 M796.067 957.24 Q807.816 962.973 809.45 975.302 Q811.154 987.608 802.521 1005.3 Q793.911 1022.95 783.141 1029.23 Q772.44 1035.48 760.691 1029.75 Q748.942 1024.01 747.238 1011.71 Q745.604 999.379 754.214 981.732 Q762.847 964.039 773.548 957.785 Q784.318 951.508 796.067 957.24 Z" fill="#000000" fill-rule="evenodd" fill-opacity="1" /><polyline clip-path="url(#clip122)" style="stroke:#ffe9a9; stroke-linecap:round; stroke-linejoin:round; stroke-width:20; stroke-opacity:1; fill:none" points="
  414.874,884.25 506.256,891.416 557.808,903.544 
  "/>
<polyline clip-path="url(#clip122)" style="stroke:#ffe9a9; stroke-linecap:round; stroke-linejoin:round; stroke-width:20; stroke-opacity:1; fill:none" points="
  806.262,1024.77 821.017,1036.17 871.785,1079.55 924.953,1135.06 963.168,1179.66 1002.53,1233.96 1054.55,1315.27 1064.3,1332.85 1111.82,1431.74 1145.93,1515.65 
  1151.31,1530.64 1180.33,1629.53 1202.91,1728.42 1219.04,1827.31 1228.71,1926.21 1231.94,2025.1 
  "/>
<path clip-path="url(#clip120)" d="M1252.72 1323.03 L1258.2 1339.32 L1314.42 1320.39 L1304.9 1303.87 L1313.99 1300.81 L1323.47 1317.23 L1326.83 1327.21 L1261.53 1349.19 L1267.01 1365.48 L1258.62 1368.31 L1244.33 1325.86 L1252.72 1323.03 Z" fill="#000000" fill-rule="evenodd" fill-opacity="1" /><path clip-path="url(#clip120)" d="M1339.13 1363.73 L1352.31 1402.88 L1343.92 1405.7 L1333.81 1375.69 L1315.75 1381.77 Q1317.22 1383.69 1318.29 1385.75 Q1319.42 1387.79 1320.15 1389.96 Q1324.31 1402.3 1319.97 1411.78 Q1315.63 1421.27 1304.08 1425.16 Q1292.19 1429.16 1283.08 1423.98 Q1274.02 1418.79 1269.49 1405.32 Q1267.92 1400.68 1267.08 1395.57 Q1266.26 1390.52 1266.11 1384.85 L1276.13 1381.48 Q1275.21 1386.74 1275.62 1391.87 Q1276.03 1397.01 1277.81 1402.29 Q1280.69 1410.83 1286.86 1414.31 Q1293.03 1417.78 1300.73 1415.19 Q1308.43 1412.59 1311.24 1406.1 Q1314.05 1399.6 1311.18 1391.06 Q1309.83 1387.06 1307.6 1383.36 Q1305.38 1379.71 1302.11 1376.2 L1339.13 1363.73 Z" fill="#000000" fill-rule="evenodd" fill-opacity="1" /><path clip-path="url(#clip120)" d="M1361.36 1451.48 Q1358.77 1443.78 1349.86 1442.44 Q1341.01 1441.14 1325.8 1446.26 Q1310.65 1451.36 1304.35 1457.77 Q1298.11 1464.21 1300.7 1471.91 Q1303.31 1479.66 1312.16 1480.97 Q1321.07 1482.31 1336.22 1477.2 Q1351.43 1472.09 1357.67 1465.64 Q1363.97 1459.23 1361.36 1451.48 M1369.26 1448.83 Q1373.43 1461.22 1365.8 1471.04 Q1358.24 1480.89 1339.58 1487.18 Q1320.97 1493.44 1308.94 1490.18 Q1296.97 1486.96 1292.8 1474.57 Q1288.63 1462.18 1296.19 1452.32 Q1303.82 1442.5 1322.43 1436.24 Q1341.09 1429.95 1353.06 1433.18 Q1365.09 1436.44 1369.26 1448.83 Z" fill="#000000" fill-rule="evenodd" fill-opacity="1" /><path clip-path="url(#clip120)" d="M1383.02 1515.8 Q1380.42 1508.1 1371.51 1506.76 Q1362.66 1505.45 1347.46 1510.57 Q1332.31 1515.67 1326 1522.08 Q1319.76 1528.53 1322.35 1536.23 Q1324.96 1543.98 1333.81 1545.28 Q1342.73 1546.62 1357.88 1541.52 Q1373.08 1536.4 1379.32 1529.96 Q1385.63 1523.55 1383.02 1515.8 M1390.92 1513.14 Q1395.09 1525.53 1387.46 1535.35 Q1379.89 1545.21 1361.24 1551.49 Q1342.63 1557.76 1330.59 1554.5 Q1318.63 1551.27 1314.46 1538.88 Q1310.28 1526.5 1317.85 1516.64 Q1325.48 1506.82 1344.09 1500.55 Q1362.74 1494.27 1374.71 1497.5 Q1386.74 1500.75 1390.92 1513.14 Z" fill="#000000" fill-rule="evenodd" fill-opacity="1" /><polyline clip-path="url(#clip122)" style="stroke:#ffdd8d; stroke-linecap:round; stroke-linejoin:round; stroke-width:20; stroke-opacity:1; fill:none" points="
  1415.73,2025.1 1413.12,1926.21 1405.28,1827.31 1392.23,1728.42 1373.95,1629.53 1358.78,1565.66 
  "/>
<polyline clip-path="url(#clip122)" style="stroke:#ffdd8d; stroke-linecap:round; stroke-linejoin:round; stroke-width:20; stroke-opacity:1; fill:none" points="
  1270.09,1302.25 1240.2,1233.96 1237.31,1228.14 1185.71,1135.06 1145.93,1070.87 1121.56,1036.17 1054.55,949.837 1043.3,937.279 963.168,855.585 943.23,838.386 
  871.785,781.688 806.802,739.494 780.403,723.622 689.021,680.89 597.638,650.368 548.901,640.601 506.256,632.644 414.874,626.96 
  "/>
<path clip-path="url(#clip120)" d="M1246.36 949.622 L1264.17 981.732 L1256.42 986.026 L1232.48 942.848 L1240.22 938.554 Q1248.55 940.785 1262.66 944.751 Q1276.84 948.738 1280.77 949.595 Q1288.18 951.26 1292.56 951.096 Q1297.01 950.953 1300.33 949.108 Q1305.75 946.102 1307.04 940.382 Q1308.36 934.707 1304.98 928.604 Q1302.58 924.277 1298.4 920.282 Q1294.24 916.333 1288.16 912.56 L1297.45 907.407 Q1302.77 911.726 1306.58 915.922 Q1310.4 920.119 1312.62 924.127 Q1318.48 934.694 1316.68 943.909 Q1314.89 953.125 1306.05 958.026 Q1301.86 960.35 1297.2 960.853 Q1292.6 961.375 1285.2 960.06 Q1283.25 959.654 1273.53 957.062 Q1263.86 954.445 1246.36 949.622 Z" fill="#000000" fill-rule="evenodd" fill-opacity="1" /><path clip-path="url(#clip120)" d="M1339.99 990.659 Q1336.05 983.553 1327.04 983.846 Q1318.1 984.158 1304.07 991.938 Q1290.09 999.694 1285.05 1007.14 Q1280.07 1014.6 1284.02 1021.71 Q1287.98 1028.86 1296.92 1028.54 Q1305.93 1028.25 1319.91 1020.5 Q1333.94 1012.72 1338.91 1005.25 Q1343.96 997.81 1339.99 990.659 M1347.28 986.617 Q1353.62 998.049 1347.89 1009.09 Q1342.23 1020.15 1325.02 1029.7 Q1307.84 1039.22 1295.42 1038.19 Q1283.07 1037.18 1276.73 1025.75 Q1270.39 1014.31 1276.05 1003.26 Q1281.78 992.216 1298.95 982.693 Q1316.16 973.144 1328.52 974.154 Q1340.94 975.185 1347.28 986.617 Z" fill="#000000" fill-rule="evenodd" fill-opacity="1" /><path clip-path="url(#clip120)" d="M1372.91 1050.01 Q1368.97 1042.9 1359.96 1043.19 Q1351.02 1043.51 1336.99 1051.29 Q1323.01 1059.04 1317.96 1066.48 Q1312.99 1073.95 1316.93 1081.05 Q1320.9 1088.2 1329.84 1087.89 Q1338.85 1087.6 1352.83 1079.84 Q1366.86 1072.06 1371.83 1064.6 Q1376.87 1057.16 1372.91 1050.01 M1380.2 1045.96 Q1386.54 1057.4 1380.81 1068.44 Q1375.15 1079.5 1357.93 1089.04 Q1340.76 1098.57 1328.34 1097.54 Q1315.98 1096.53 1309.64 1085.09 Q1303.3 1073.66 1308.96 1062.6 Q1314.69 1051.56 1331.86 1042.04 Q1349.08 1032.49 1361.43 1033.5 Q1373.85 1034.53 1380.2 1045.96 Z" fill="#000000" fill-rule="evenodd" fill-opacity="1" /><path clip-path="url(#clip120)" d="M1405.82 1109.35 Q1401.88 1102.25 1392.87 1102.54 Q1383.93 1102.85 1369.91 1110.63 Q1355.92 1118.39 1350.88 1125.83 Q1345.91 1133.29 1349.85 1140.4 Q1353.81 1147.55 1362.75 1147.24 Q1371.76 1146.95 1385.74 1139.19 Q1399.77 1131.41 1404.75 1123.95 Q1409.79 1116.5 1405.82 1109.35 M1413.11 1105.31 Q1419.45 1116.74 1413.72 1127.78 Q1408.06 1138.84 1390.85 1148.39 Q1373.68 1157.91 1361.25 1156.88 Q1348.9 1155.87 1342.56 1144.44 Q1336.22 1133.01 1341.88 1121.95 Q1347.61 1110.91 1364.78 1101.39 Q1381.99 1091.84 1394.35 1092.85 Q1406.77 1093.88 1413.11 1105.31 Z" fill="#000000" fill-rule="evenodd" fill-opacity="1" /><polyline clip-path="url(#clip122)" style="stroke:#ffd271; stroke-linecap:round; stroke-linejoin:round; stroke-width:20; stroke-opacity:1; fill:none" points="
  414.874,410.85 506.256,415.844 597.638,430.828 641.502,442.815 689.021,456.639 780.403,493.857 871.785,541.708 963.168,604.226 1008.16,640.601 
  1054.55,680.89 1113.03,739.494 1145.93,775.095 1197.54,838.386 1237.31,891.416 1254.19,916.563 
  "/>
<polyline clip-path="url(#clip122)" style="stroke:#ffd271; stroke-linecap:round; stroke-linejoin:round; stroke-width:20; stroke-opacity:1; fill:none" points="
  1390.71,1162.71 1420.08,1228.14 1422.46,1233.96 1458.22,1332.85 1489.21,1431.74 1511.46,1515.65 1515.12,1530.64 1534.86,1629.53 1550.21,1728.42 1561.17,1827.31 
  1567.75,1926.21 1569.95,2025.1 
  "/>
<path clip-path="url(#clip120)" d="M1540.15 1213.58 L1550.95 1248.68 L1542.48 1251.28 L1527.97 1204.09 L1536.43 1201.49 Q1544.11 1205.39 1557.1 1212.18 Q1570.15 1219.01 1573.82 1220.66 Q1580.73 1223.82 1585.05 1224.57 Q1589.43 1225.34 1593.06 1224.23 Q1598.99 1222.4 1601.44 1217.07 Q1603.9 1211.79 1601.85 1205.12 Q1600.39 1200.39 1597.13 1195.62 Q1593.87 1190.9 1588.7 1185.95 L1598.86 1182.83 Q1603.16 1188.15 1606.03 1193.04 Q1608.9 1197.94 1610.25 1202.32 Q1613.8 1213.87 1610.14 1222.51 Q1606.48 1231.16 1596.82 1234.13 Q1592.24 1235.54 1587.57 1235.07 Q1582.97 1234.63 1576 1231.82 Q1574.17 1231.02 1565.2 1226.47 Q1556.28 1221.92 1540.15 1213.58 Z" fill="#000000" fill-rule="evenodd" fill-opacity="1" /><path clip-path="url(#clip120)" d="M1623.33 1249.63 L1635.47 1289.1 L1627.01 1291.71 L1617.7 1261.44 L1599.48 1267.04 Q1600.9 1269 1601.92 1271.09 Q1602.99 1273.16 1603.67 1275.35 Q1607.5 1287.79 1602.91 1297.16 Q1598.33 1306.52 1586.68 1310.11 Q1574.68 1313.8 1565.71 1308.38 Q1556.8 1302.95 1552.62 1289.36 Q1551.18 1284.68 1550.47 1279.56 Q1549.78 1274.48 1549.78 1268.82 L1559.89 1265.71 Q1558.83 1270.94 1559.1 1276.09 Q1559.38 1281.23 1561.02 1286.56 Q1563.67 1295.17 1569.74 1298.81 Q1575.82 1302.44 1583.59 1300.05 Q1591.35 1297.66 1594.33 1291.24 Q1597.32 1284.82 1594.67 1276.21 Q1593.43 1272.17 1591.29 1268.42 Q1589.17 1264.71 1585.99 1261.11 L1623.33 1249.63 Z" fill="#000000" fill-rule="evenodd" fill-opacity="1" /><path clip-path="url(#clip120)" d="M1643.25 1337.93 Q1640.86 1330.17 1631.98 1328.59 Q1623.17 1327.05 1607.84 1331.77 Q1592.55 1336.47 1586.08 1342.71 Q1579.68 1348.99 1582.07 1356.75 Q1584.47 1364.57 1593.28 1366.11 Q1602.16 1367.68 1617.44 1362.98 Q1632.77 1358.27 1639.18 1351.99 Q1645.65 1345.75 1643.25 1337.93 M1651.21 1335.48 Q1655.05 1347.98 1647.17 1357.6 Q1639.35 1367.25 1620.53 1373.04 Q1601.77 1378.81 1589.82 1375.24 Q1577.94 1371.7 1574.1 1359.2 Q1570.26 1346.71 1578.08 1337.06 Q1585.96 1327.44 1604.73 1321.66 Q1623.55 1315.88 1635.42 1319.41 Q1647.37 1322.99 1651.21 1335.48 Z" fill="#000000" fill-rule="evenodd" fill-opacity="1" /><path clip-path="url(#clip120)" d="M1663.2 1402.8 Q1660.81 1395.03 1651.93 1393.46 Q1643.12 1391.92 1627.79 1396.63 Q1612.51 1401.34 1606.04 1407.58 Q1599.63 1413.85 1602.02 1421.62 Q1604.42 1429.43 1613.23 1430.97 Q1622.11 1432.55 1637.39 1427.85 Q1652.72 1423.13 1659.13 1416.86 Q1665.6 1410.61 1663.2 1402.8 M1671.16 1400.35 Q1675.01 1412.84 1667.12 1422.46 Q1659.3 1432.11 1640.49 1437.9 Q1621.72 1443.68 1609.78 1440.1 Q1597.9 1436.56 1594.05 1424.07 Q1590.21 1411.57 1598.03 1401.92 Q1605.91 1392.3 1624.68 1386.53 Q1643.5 1380.74 1655.38 1384.28 Q1667.32 1387.85 1671.16 1400.35 Z" fill="#000000" fill-rule="evenodd" fill-opacity="1" /><polyline clip-path="url(#clip122)" style="stroke:#ffc755; stroke-linecap:round; stroke-linejoin:round; stroke-width:20; stroke-opacity:1; fill:none" points="
  1706.83,2025.1 1704.94,1926.21 1699.27,1827.31 1694.23,1774.57 1689.49,1728.42 1675.27,1629.53 1657,1530.64 1639.11,1451.44 
  "/>
<polyline clip-path="url(#clip122)" style="stroke:#ffc755; stroke-linecap:round; stroke-linejoin:round; stroke-width:20; stroke-opacity:1; fill:none" points="
  1556.3,1182.26 1538.51,1135.06 1511.46,1070.87 1495.57,1036.17 1445.51,937.279 1420.08,891.416 1387.88,838.386 1328.7,748.724 1321.96,739.494 1244.05,640.601 
  1237.31,632.644 1151.31,541.708 1145.93,536.391 1054.55,456.639 1036.27,442.815 963.168,390.872 885.077,343.922 871.785,336.388 780.403,294.005 689.021,261.041 
  626.881,245.03 597.638,237.902 506.256,224.538 414.874,220.084 
  "/>
<path clip-path="url(#clip120)" d="M1374.66 562.798 Q1377.68 569.904 1375.93 576.291 Q1374.22 582.72 1368.08 587.034 Q1358.67 593.655 1348.96 590.803 Q1339.25 587.952 1330.86 576.023 Q1328.04 572.018 1325.86 567.188 Q1323.66 562.431 1322.06 556.806 L1330.37 550.965 Q1330.8 556.011 1332.73 561.021 Q1334.66 566.03 1337.92 570.674 Q1343.61 578.769 1349.78 580.74 Q1355.97 582.754 1362.06 578.47 Q1367.68 574.516 1368.05 568.337 Q1368.49 562.17 1363.55 555.141 L1358.33 547.727 L1365.41 542.754 L1370.86 550.509 Q1375.32 556.857 1380.2 558.455 Q1385.13 560.024 1389.9 556.668 Q1394.8 553.223 1394.94 547.902 Q1395.15 542.594 1390.6 536.118 Q1388.11 532.582 1384.5 529.073 Q1380.89 525.565 1375.86 521.846 L1383.52 516.454 Q1388.33 520.395 1392.01 524.176 Q1395.72 528 1398.38 531.792 Q1405.27 541.591 1404.81 550.446 Q1404.4 559.271 1396.81 564.603 Q1391.53 568.318 1385.74 567.869 Q1379.99 567.39 1374.66 562.798 Z" fill="#000000" fill-rule="evenodd" fill-opacity="1" /><path clip-path="url(#clip120)" d="M1431.95 594.017 Q1427.28 587.371 1418.35 588.618 Q1409.49 589.879 1396.37 599.105 Q1383.29 608.302 1379.07 616.239 Q1374.91 624.188 1379.59 630.834 Q1384.29 637.524 1393.14 636.263 Q1402.07 635.016 1415.15 625.819 Q1428.28 616.592 1432.43 608.643 Q1436.65 600.706 1431.95 594.017 M1438.77 589.224 Q1446.28 599.918 1441.76 611.504 Q1437.31 623.102 1421.2 634.425 Q1405.14 645.719 1392.68 646.014 Q1380.29 646.322 1372.77 635.628 Q1365.25 624.934 1369.7 613.336 Q1374.23 601.75 1390.29 590.457 Q1406.39 579.133 1418.78 578.825 Q1431.25 578.53 1438.77 589.224 Z" fill="#000000" fill-rule="evenodd" fill-opacity="1" /><path clip-path="url(#clip120)" d="M1470.98 649.532 Q1466.31 642.886 1457.38 644.133 Q1448.53 645.394 1435.4 654.62 Q1422.32 663.817 1418.1 671.754 Q1413.95 679.703 1418.62 686.349 Q1423.32 693.038 1432.18 691.778 Q1441.11 690.531 1454.19 681.334 Q1467.31 672.107 1471.46 664.158 Q1475.69 656.221 1470.98 649.532 M1477.8 644.739 Q1485.32 655.433 1480.79 667.019 Q1476.34 678.617 1460.24 689.94 Q1444.18 701.234 1431.71 701.529 Q1419.32 701.837 1411.8 691.143 Q1404.28 680.449 1408.74 668.851 Q1413.26 657.265 1429.32 645.971 Q1445.43 634.648 1457.82 634.34 Q1470.28 634.045 1477.8 644.739 Z" fill="#000000" fill-rule="evenodd" fill-opacity="1" /><path clip-path="url(#clip120)" d="M1510.02 705.047 Q1505.34 698.401 1496.42 699.648 Q1487.56 700.909 1474.44 710.135 Q1461.36 719.332 1457.13 727.269 Q1452.98 735.218 1457.65 741.864 Q1462.36 748.553 1471.21 747.293 Q1480.14 746.046 1493.22 736.849 Q1506.34 727.622 1510.49 719.673 Q1514.72 711.736 1510.02 705.047 M1516.83 700.254 Q1524.35 710.948 1519.83 722.533 Q1515.38 734.131 1499.27 745.455 Q1483.21 756.749 1470.75 757.044 Q1458.36 757.351 1450.84 746.657 Q1443.32 735.963 1447.77 724.365 Q1452.29 712.78 1468.36 701.486 Q1484.46 690.163 1496.85 689.855 Q1509.31 689.56 1516.83 700.254 Z" fill="#000000" fill-rule="evenodd" fill-opacity="1" /><polyline clip-path="url(#clip122)" style="stroke:#ffbb39; stroke-linecap:round; stroke-linejoin:round; stroke-width:20; stroke-opacity:1; fill:none" points="
  414.874,47.2441 506.256,51.4703 597.638,64.1488 689.021,85.2798 780.403,114.863 855.54,146.137 871.785,153.264 963.168,202.265 1030.65,245.03 1054.55,261.041 
  1145.93,331.679 1159.91,343.922 1237.31,415.844 1263.29,442.815 1328.7,515.124 1339.97,528.898 
  "/>
<polyline clip-path="url(#clip122)" style="stroke:#ffbb39; stroke-linecap:round; stroke-linejoin:round; stroke-width:20; stroke-opacity:1; fill:none" points="
  1501.77,759.013 1511.46,775.095 1546.55,838.386 1597,937.279 1602.84,949.837 1640.07,1036.17 1678.66,1135.06 1694.23,1179.66 1711.87,1233.96 1740.23,1332.85 
  1764.81,1431.74 1785.61,1530.64 1801.53,1629.53 1813.91,1728.42 1822.75,1827.31 1828.06,1926.21 1829.83,2025.1 
  "/>
<path clip-path="url(#clip120)" d="M1740.14 948.027 Q1741.27 955.666 1737.97 961.406 Q1734.68 967.194 1727.66 969.821 Q1716.88 973.854 1708.2 968.646 Q1699.53 963.439 1694.42 949.78 Q1692.7 945.194 1691.81 939.969 Q1690.88 934.811 1690.75 928.965 L1700.26 925.407 Q1699.4 930.399 1700.01 935.734 Q1700.61 941.068 1702.6 946.385 Q1706.07 955.654 1711.53 959.115 Q1717.02 962.625 1723.99 960.016 Q1730.43 957.608 1732.35 951.721 Q1734.33 945.864 1731.31 937.815 L1728.14 929.327 L1736.24 926.298 L1739.56 935.177 Q1742.28 942.445 1746.6 945.223 Q1750.97 947.982 1756.43 945.938 Q1762.04 943.84 1763.52 938.727 Q1765.07 933.645 1762.29 926.23 Q1760.78 922.181 1758.17 917.875 Q1755.55 913.569 1751.62 908.701 L1760.4 905.417 Q1764.06 910.443 1766.67 915.029 Q1769.29 919.664 1770.91 924.006 Q1775.11 935.226 1772.43 943.679 Q1769.8 952.113 1761.12 955.361 Q1755.07 957.623 1749.58 955.729 Q1744.14 953.816 1740.14 948.027 Z" fill="#000000" fill-rule="evenodd" fill-opacity="1" /><path clip-path="url(#clip120)" d="M1786.35 969.281 L1800.81 1007.97 L1792.52 1011.07 L1781.43 981.408 L1763.57 988.085 Q1765.11 989.958 1766.25 991.977 Q1767.44 993.977 1768.25 996.124 Q1772.81 1008.32 1768.79 1017.94 Q1764.77 1027.56 1753.35 1031.83 Q1741.6 1036.23 1732.32 1031.36 Q1723.1 1026.47 1718.12 1013.15 Q1716.4 1008.56 1715.4 1003.49 Q1714.41 998.467 1714.07 992.809 L1723.97 989.105 Q1723.23 994.39 1723.81 999.511 Q1724.39 1004.63 1726.34 1009.85 Q1729.5 1018.29 1735.78 1021.56 Q1742.06 1024.82 1749.67 1021.98 Q1757.28 1019.13 1759.88 1012.54 Q1762.47 1005.96 1759.32 997.518 Q1757.84 993.567 1755.48 989.944 Q1753.14 986.369 1749.76 982.965 L1786.35 969.281 Z" fill="#000000" fill-rule="evenodd" fill-opacity="1" /><path clip-path="url(#clip120)" d="M1811.48 1056.25 Q1808.63 1048.64 1799.68 1047.59 Q1790.79 1046.58 1775.76 1052.2 Q1760.79 1057.8 1754.7 1064.42 Q1748.68 1071.06 1751.52 1078.67 Q1754.39 1086.33 1763.27 1087.34 Q1772.23 1088.39 1787.2 1082.79 Q1802.23 1077.17 1808.25 1070.52 Q1814.34 1063.91 1811.48 1056.25 M1819.28 1053.33 Q1823.86 1065.57 1816.56 1075.64 Q1809.33 1085.74 1790.89 1092.64 Q1772.5 1099.52 1760.36 1096.66 Q1748.3 1093.84 1743.72 1081.59 Q1739.14 1069.35 1746.37 1059.25 Q1753.67 1049.18 1772.06 1042.3 Q1790.5 1035.4 1802.57 1038.23 Q1814.7 1041.08 1819.28 1053.33 Z" fill="#000000" fill-rule="evenodd" fill-opacity="1" /><path clip-path="url(#clip120)" d="M1835.25 1119.81 Q1832.4 1112.2 1823.45 1111.16 Q1814.56 1110.14 1799.54 1115.76 Q1784.56 1121.37 1778.47 1127.98 Q1772.45 1134.63 1775.3 1142.24 Q1778.16 1149.89 1787.05 1150.91 Q1796 1151.95 1810.98 1146.35 Q1826 1140.73 1832.02 1134.09 Q1838.11 1127.47 1835.25 1119.81 M1843.05 1116.89 Q1847.63 1129.14 1840.33 1139.21 Q1833.1 1149.31 1814.66 1156.2 Q1796.27 1163.08 1784.14 1160.23 Q1772.07 1157.4 1767.49 1145.15 Q1762.91 1132.91 1770.14 1122.81 Q1777.44 1112.74 1795.83 1105.86 Q1814.27 1098.96 1826.34 1101.79 Q1838.48 1104.65 1843.05 1116.89 Z" fill="#000000" fill-rule="evenodd" fill-opacity="1" /><polyline clip-path="url(#clip122)" style="stroke:#ffb01c; stroke-linecap:round; stroke-linejoin:round; stroke-width:20; stroke-opacity:1; fill:none" points="
  1943.45,2025.1 1941.79,1926.21 1936.8,1827.31 1928.5,1728.42 1916.87,1629.53 1901.91,1530.64 1883.64,1431.74 1876.99,1401.31 1861.07,1332.85 1834.54,1233.96 
  1814.95,1169.53 
  "/>
<polyline clip-path="url(#clip122)" style="stroke:#ffb01c; stroke-linecap:round; stroke-linejoin:round; stroke-width:20; stroke-opacity:1; fill:none" points="
  1716.37,905.953 1694.23,855.585 1686.1,838.386 1635.34,739.494 1602.84,680.89 1578.72,640.601 1515.12,541.708 1511.46,536.391 1441.53,442.815 1420.08,415.844 
  1357.42,343.922 1328.7,312.842 1259.44,245.03 1237.31,224.538 1145.93,148.81 1142.28,146.137 1054.55,85.2798 991.285,47.2441 
  "/>
<path clip-path="url(#clip120)" d="M1694.99 543.479 L1645.82 540.162 L1658.6 563.449 L1694.99 543.479 M1701.7 536.649 L1708.06 548.247 L1663.64 572.626 L1668.97 582.352 L1661.3 586.561 L1655.97 576.836 L1639.89 585.655 L1634.86 576.478 L1650.93 567.658 L1634.04 536.883 L1642.94 531.997 L1701.7 536.649 Z" fill="#000000" fill-rule="evenodd" fill-opacity="1" /><path clip-path="url(#clip120)" d="M1726.52 596.281 Q1722.61 589.158 1713.6 589.409 Q1704.66 589.681 1690.6 597.398 Q1676.58 605.09 1671.5 612.511 Q1666.5 619.951 1670.4 627.074 Q1674.34 634.243 1683.28 633.971 Q1692.29 633.719 1706.31 626.027 Q1720.37 618.31 1725.38 610.869 Q1730.45 603.449 1726.52 596.281 M1733.83 592.272 Q1740.11 603.732 1734.34 614.746 Q1728.63 625.779 1711.37 635.251 Q1694.15 644.697 1681.74 643.61 Q1669.39 642.544 1663.1 631.083 Q1656.81 619.622 1662.52 608.589 Q1668.3 597.575 1685.51 588.129 Q1702.77 578.658 1715.12 579.724 Q1727.54 580.811 1733.83 592.272 Z" fill="#000000" fill-rule="evenodd" fill-opacity="1" /><path clip-path="url(#clip120)" d="M1759.17 655.776 Q1755.26 648.653 1746.25 648.904 Q1737.31 649.176 1723.24 656.893 Q1709.23 664.586 1704.15 672.006 Q1699.14 679.446 1703.05 686.569 Q1706.99 693.738 1715.93 693.466 Q1724.94 693.214 1738.95 685.522 Q1753.02 677.805 1758.02 670.364 Q1763.1 662.944 1759.17 655.776 M1766.47 651.767 Q1772.76 663.227 1766.98 674.241 Q1761.28 685.275 1744.02 694.746 Q1726.8 704.192 1714.38 703.105 Q1702.04 702.039 1695.75 690.578 Q1689.46 679.118 1695.17 668.084 Q1700.94 657.07 1718.16 647.624 Q1735.42 638.153 1747.77 639.219 Q1760.18 640.306 1766.47 651.767 Z" fill="#000000" fill-rule="evenodd" fill-opacity="1" /><path clip-path="url(#clip120)" d="M1791.82 715.271 Q1787.91 708.148 1778.9 708.399 Q1769.96 708.671 1755.89 716.389 Q1741.87 724.081 1736.8 731.501 Q1731.79 738.942 1735.7 746.064 Q1739.63 753.233 1748.57 752.961 Q1757.58 752.71 1771.6 745.017 Q1785.67 737.3 1790.67 729.86 Q1795.75 722.439 1791.82 715.271 M1799.12 711.262 Q1805.41 722.723 1799.63 733.736 Q1793.92 744.77 1776.66 754.241 Q1759.45 763.687 1747.03 762.6 Q1734.68 761.534 1728.39 750.073 Q1722.1 738.613 1727.81 727.579 Q1733.59 716.566 1750.81 707.12 Q1768.07 697.648 1780.41 698.714 Q1792.83 699.801 1799.12 711.262 Z" fill="#000000" fill-rule="evenodd" fill-opacity="1" /><polyline clip-path="url(#clip122)" style="stroke:#ffa500; stroke-linecap:round; stroke-linejoin:round; stroke-width:20; stroke-opacity:1; fill:none" points="
  1231.94,47.2441 1237.31,51.4703 1328.7,131.768 1343.49,146.137 1420.08,224.538 1438.36,245.03 1511.46,331.679 1520.97,343.922 1593.34,442.815 1602.84,456.639 
  1642.08,518.275 
  "/>
<polyline clip-path="url(#clip122)" style="stroke:#ffa500; stroke-linecap:round; stroke-linejoin:round; stroke-width:20; stroke-opacity:1; fill:none" points="
  1778.73,767.302 1785.61,781.688 1810.96,838.386 1851.64,937.279 1876.99,1004.78 1888.07,1036.17 1919.64,1135.06 1947.88,1233.96 1968.37,1315.27 1972.55,1332.85 
  1992.92,1431.74 2010.15,1530.64 2024.25,1629.53 2035.21,1728.42 2043.05,1827.31 2047.74,1926.21 2049.31,2025.1 
  "/>
<path clip-path="url(#clip120)" d="M2107.86 1333.5 L2062.31 1314.69 L2067.01 1340.84 L2107.86 1333.5 M2116.4 1329.16 L2118.73 1342.18 L2068.86 1351.14 L2070.82 1362.06 L2062.21 1363.61 L2060.24 1352.69 L2042.2 1355.93 L2040.35 1345.63 L2058.39 1342.39 L2052.19 1307.83 L2062.18 1306.04 L2116.4 1329.16 Z" fill="#000000" fill-rule="evenodd" fill-opacity="1" /><path clip-path="url(#clip120)" d="M2123.79 1370.33 L2131.09 1410.98 L2122.38 1412.54 L2116.78 1381.37 L2098.02 1384.74 Q2099.19 1386.86 2099.95 1389.05 Q2100.77 1391.24 2101.18 1393.49 Q2103.48 1406.31 2097.8 1415.05 Q2092.12 1423.8 2080.12 1425.95 Q2067.77 1428.17 2059.52 1421.72 Q2051.32 1415.25 2048.81 1401.26 Q2047.94 1396.44 2047.86 1391.27 Q2047.79 1386.15 2048.47 1380.52 L2058.88 1378.65 Q2057.19 1383.72 2056.85 1388.86 Q2056.5 1394 2057.48 1399.49 Q2059.08 1408.36 2064.67 1412.69 Q2070.27 1417.03 2078.26 1415.6 Q2086.26 1414.16 2090 1408.15 Q2093.73 1402.13 2092.14 1393.26 Q2091.39 1389.11 2089.72 1385.12 Q2088.06 1381.19 2085.34 1377.23 L2123.79 1370.33 Z" fill="#000000" fill-rule="evenodd" fill-opacity="1" /><path clip-path="url(#clip120)" d="M2132.93 1460.39 Q2131.49 1452.39 2122.87 1449.76 Q2114.31 1447.17 2098.52 1450.01 Q2082.78 1452.83 2075.61 1458.25 Q2068.49 1463.71 2069.93 1471.71 Q2071.37 1479.75 2079.94 1482.34 Q2088.56 1484.97 2104.29 1482.15 Q2120.08 1479.31 2127.2 1473.85 Q2134.38 1468.44 2132.93 1460.39 M2141.13 1458.92 Q2143.44 1471.78 2134.46 1480.38 Q2125.53 1489.02 2106.16 1492.5 Q2086.83 1495.97 2075.4 1490.99 Q2064.04 1486.05 2061.73 1473.18 Q2059.42 1460.31 2068.34 1451.67 Q2077.33 1443.07 2096.65 1439.6 Q2116.03 1436.12 2127.39 1441.06 Q2138.82 1446.05 2141.13 1458.92 Z" fill="#000000" fill-rule="evenodd" fill-opacity="1" /><path clip-path="url(#clip120)" d="M2144.93 1527.18 Q2143.49 1519.19 2134.87 1516.55 Q2126.31 1513.97 2110.52 1516.8 Q2094.78 1519.63 2087.61 1525.05 Q2080.49 1530.5 2081.93 1538.5 Q2083.37 1546.55 2091.93 1549.14 Q2100.56 1551.77 2116.29 1548.94 Q2132.08 1546.11 2139.2 1540.65 Q2146.37 1535.23 2144.93 1527.18 M2153.13 1525.71 Q2155.44 1538.58 2146.46 1547.18 Q2137.53 1555.82 2118.15 1559.3 Q2098.83 1562.77 2087.4 1557.78 Q2076.04 1552.84 2073.72 1539.97 Q2071.41 1527.11 2080.34 1518.47 Q2089.32 1509.87 2108.65 1506.4 Q2128.03 1502.91 2139.39 1507.86 Q2150.82 1512.84 2153.13 1525.71 Z" fill="#000000" fill-rule="evenodd" fill-opacity="1" /><polyline clip-path="url(#clip122)" style="stroke:#f09000; stroke-linecap:round; stroke-linejoin:round; stroke-width:20; stroke-opacity:1; fill:none" points="
  2148.67,2025.1 2147.19,1926.21 2142.74,1827.31 2135.33,1728.42 2124.96,1629.53 2117.22,1572.15 
  "/>
<polyline clip-path="url(#clip122)" style="stroke:#f09000; stroke-linecap:round; stroke-linejoin:round; stroke-width:20; stroke-opacity:1; fill:none" points="
  2066.99,1292.5 2059.76,1260.33 2053.49,1233.96 2026.86,1135.06 1997.09,1036.17 1968.37,949.837 1963.94,937.279 1925.73,838.386 1884.19,739.494 1876.99,723.622 
  1836.9,640.601 1785.61,541.708 1727,442.815 1694.23,390.872 1662.41,343.922 1602.84,261.041 1590.42,245.03 1511.46,148.81 1509.08,146.137 
  1420.08,51.4703 1415.73,47.2441 
  "/>
<path clip-path="url(#clip120)" d="M2065.1 806.607 L2078.3 845.742 L2069.91 848.572 L2059.79 818.568 L2041.73 824.662 Q2043.2 826.584 2044.28 828.638 Q2045.4 830.677 2046.14 832.848 Q2050.3 845.185 2045.97 854.672 Q2041.64 864.158 2030.09 868.054 Q2018.2 872.067 2009.09 866.896 Q2000.03 861.708 1995.48 848.236 Q1993.92 843.597 1993.07 838.494 Q1992.25 833.441 1992.1 827.776 L2002.11 824.395 Q2001.19 829.653 2001.61 834.79 Q2002.02 839.927 2003.8 845.208 Q2006.68 853.745 2012.86 857.214 Q2019.03 860.683 2026.73 858.086 Q2034.43 855.488 2037.24 848.989 Q2040.04 842.489 2037.16 833.951 Q2035.82 829.954 2033.58 826.257 Q2031.36 822.608 2028.08 819.096 L2065.1 806.607 Z" fill="#000000" fill-rule="evenodd" fill-opacity="1" /><path clip-path="url(#clip120)" d="M2087.39 894.345 Q2084.79 886.646 2075.88 885.312 Q2067.03 884.01 2051.83 889.139 Q2036.68 894.251 2030.38 900.664 Q2024.14 907.111 2026.74 914.809 Q2029.35 922.557 2038.2 923.859 Q2047.12 925.193 2062.27 920.081 Q2077.47 914.953 2083.7 908.506 Q2090 902.093 2087.39 894.345 M2095.28 891.681 Q2099.46 904.068 2091.84 913.895 Q2084.28 923.756 2065.63 930.05 Q2047.03 936.327 2034.99 933.077 Q2023.02 929.86 2018.84 917.473 Q2014.66 905.086 2022.22 895.226 Q2029.84 885.398 2048.45 879.121 Q2067.1 872.827 2079.07 876.044 Q2091.11 879.294 2095.28 891.681 Z" fill="#000000" fill-rule="evenodd" fill-opacity="1" /><path clip-path="url(#clip120)" d="M2109.09 958.648 Q2106.49 950.949 2097.57 949.615 Q2088.72 948.313 2073.52 953.441 Q2058.37 958.553 2052.07 964.967 Q2045.84 971.413 2048.43 979.112 Q2051.05 986.86 2059.9 988.161 Q2068.81 989.496 2083.96 984.384 Q2099.16 979.255 2105.4 972.809 Q2111.7 966.395 2109.09 958.648 M2116.98 955.983 Q2121.16 968.37 2113.54 978.198 Q2105.98 988.058 2087.33 994.352 Q2068.72 1000.63 2056.69 997.38 Q2044.72 994.163 2040.54 981.776 Q2036.36 969.389 2043.92 959.529 Q2051.54 949.701 2070.14 943.424 Q2088.8 937.129 2100.77 940.347 Q2112.8 943.597 2116.98 955.983 Z" fill="#000000" fill-rule="evenodd" fill-opacity="1" /><path clip-path="url(#clip120)" d="M2130.78 1022.95 Q2128.18 1015.25 2119.27 1013.92 Q2110.42 1012.62 2095.22 1017.74 Q2080.07 1022.86 2073.77 1029.27 Q2067.53 1035.72 2070.13 1043.41 Q2072.74 1051.16 2081.59 1052.46 Q2090.51 1053.8 2105.66 1048.69 Q2120.86 1043.56 2127.09 1037.11 Q2133.4 1030.7 2130.78 1022.95 M2138.68 1020.29 Q2142.86 1032.67 2135.23 1042.5 Q2127.68 1052.36 2109.02 1058.65 Q2090.42 1064.93 2078.38 1061.68 Q2066.41 1058.47 2062.23 1046.08 Q2058.06 1033.69 2065.61 1023.83 Q2073.23 1014 2091.84 1007.73 Q2110.49 1001.43 2122.46 1004.65 Q2134.5 1007.9 2138.68 1020.29 Z" fill="#000000" fill-rule="evenodd" fill-opacity="1" /><polyline clip-path="url(#clip122)" style="stroke:#e27c00; stroke-linecap:round; stroke-linejoin:round; stroke-width:20; stroke-opacity:1; fill:none" points="
  1569.95,47.2441 1602.84,85.2798 1651.58,146.137 1694.23,202.265 1724.48,245.03 1785.61,336.388 1790.32,343.922 1848.69,442.815 1876.99,493.857 1901.91,541.708 
  1950.1,640.601 1968.37,680.89 1993.44,739.494 2019.47,805.24 
  "/>
<polyline clip-path="url(#clip122)" style="stroke:#e27c00; stroke-linecap:round; stroke-linejoin:round; stroke-width:20; stroke-opacity:1; fill:none" points="
  2109.42,1071.82 2127.43,1135.06 2151.14,1228.14 2152.54,1233.96 2173.63,1332.85 2191.91,1431.74 2207.37,1530.64 2220.03,1629.53 2229.87,1728.42 2236.9,1827.31 
  2241.11,1926.21 2242.52,2025.1 
  "/>
<path clip-path="url(#clip120)" d="M1845.49 167.151 L1866.92 202.46 L1859.35 207.053 L1842.92 179.981 L1826.62 189.871 Q1828.48 191.424 1829.98 193.194 Q1831.52 194.937 1832.71 196.897 Q1839.47 208.028 1837.31 218.231 Q1835.16 228.433 1824.74 234.756 Q1814.01 241.268 1803.99 238.209 Q1794.01 235.124 1786.64 222.969 Q1784.1 218.783 1782.16 213.987 Q1780.25 209.236 1778.87 203.741 L1787.91 198.256 Q1788.16 203.587 1789.68 208.51 Q1791.21 213.433 1794.1 218.197 Q1798.77 225.9 1805.55 227.938 Q1812.33 229.977 1819.28 225.762 Q1826.23 221.546 1827.55 214.591 Q1828.87 207.635 1824.2 199.932 Q1822.01 196.325 1819.02 193.205 Q1816.06 190.129 1812.09 187.416 L1845.49 167.151 Z" fill="#000000" fill-rule="evenodd" fill-opacity="1" /><path clip-path="url(#clip120)" d="M1880.7 225.168 L1902.12 260.477 L1894.55 265.07 L1878.13 237.999 L1861.83 247.888 Q1863.69 249.442 1865.19 251.212 Q1866.73 252.955 1867.92 254.914 Q1874.68 266.045 1872.52 276.248 Q1870.37 286.45 1859.95 292.773 Q1849.22 299.285 1839.2 296.227 Q1829.22 293.142 1821.84 280.986 Q1819.3 276.801 1817.37 272.005 Q1815.46 267.253 1814.08 261.758 L1823.11 256.273 Q1823.36 261.604 1824.89 266.527 Q1826.41 271.45 1829.31 276.214 Q1833.98 283.917 1840.76 285.956 Q1847.54 287.994 1854.49 283.779 Q1861.43 279.564 1862.76 272.608 Q1864.08 265.652 1859.41 257.949 Q1857.22 254.342 1854.23 251.222 Q1851.26 248.146 1847.3 245.433 L1880.7 225.168 Z" fill="#000000" fill-rule="evenodd" fill-opacity="1" /><path clip-path="url(#clip120)" d="M1921.6 305.925 Q1917.38 298.979 1908.39 299.622 Q1899.47 300.283 1885.76 308.606 Q1872.09 316.901 1867.34 324.535 Q1862.66 332.187 1866.88 339.133 Q1871.12 346.123 1880.04 345.462 Q1889.03 344.819 1902.7 336.523 Q1916.41 328.201 1921.09 320.55 Q1925.84 312.915 1921.6 305.925 M1928.72 301.602 Q1935.51 312.778 1930.21 324.032 Q1924.99 335.304 1908.16 345.518 Q1891.37 355.704 1878.92 355.159 Q1866.54 354.632 1859.75 343.456 Q1852.97 332.28 1858.19 321.008 Q1863.49 309.753 1880.27 299.567 Q1897.11 289.353 1909.49 289.881 Q1921.94 290.426 1928.72 301.602 Z" fill="#000000" fill-rule="evenodd" fill-opacity="1" /><path clip-path="url(#clip120)" d="M1956.81 363.942 Q1952.59 356.996 1943.6 357.64 Q1934.68 358.301 1920.97 366.623 Q1907.3 374.918 1902.55 382.552 Q1897.87 390.204 1902.08 397.15 Q1906.33 404.14 1915.25 403.479 Q1924.24 402.836 1937.91 394.541 Q1951.62 386.218 1956.3 378.567 Q1961.05 370.933 1956.81 363.942 M1963.93 359.619 Q1970.71 370.795 1965.42 382.049 Q1960.2 393.321 1943.37 403.535 Q1926.58 413.721 1914.13 413.177 Q1901.74 412.649 1894.96 401.473 Q1888.18 390.297 1893.4 379.025 Q1898.7 367.771 1915.48 357.584 Q1932.31 347.371 1944.7 347.898 Q1957.15 348.443 1963.93 359.619 Z" fill="#000000" fill-rule="evenodd" fill-opacity="1" /><polyline clip-path="url(#clip122)" style="stroke:#d36700; stroke-linecap:round; stroke-linejoin:round; stroke-width:20; stroke-opacity:1; fill:none" points="
  2242.52,1218.44 2222.37,1135.06 2195.66,1036.17 2166.13,937.279 2151.14,891.416 2132.86,838.386 2095.81,739.494 2059.76,650.368 2055.58,640.601 2010.15,541.708 
  1968.37,456.639 1961.17,442.815 1946.51,416.362 
  "/>
<polyline clip-path="url(#clip122)" style="stroke:#d36700; stroke-linecap:round; stroke-linejoin:round; stroke-width:20; stroke-opacity:1; fill:none" points="
  1800.55,175.848 1785.61,153.264 1780.57,146.137 1706.83,47.2441 
  "/>
<polyline clip-path="url(#clip122)" style="stroke:#c55200; stroke-linecap:round; stroke-linejoin:round; stroke-width:20; stroke-opacity:1; fill:none" points="
  1829.83,47.2441 1876.99,114.863 1897.48,146.137 1958.96,245.03 1968.37,261.041 2014.33,343.922 2059.76,430.828 2065.68,442.815 2111.62,541.708 2151.14,632.644 
  2154.42,640.601 2192.38,739.494 2227.52,838.386 2242.52,884.25 
  "/>
<polyline clip-path="url(#clip122)" style="stroke:#b63e00; stroke-linecap:round; stroke-linejoin:round; stroke-width:20; stroke-opacity:1; fill:none" points="
  2242.52,626.96 2207.37,541.708 2163.79,442.815 2151.14,415.844 2115.57,343.922 2063.71,245.03 2059.76,237.902 2005.97,146.137 1968.37,85.2798 1943.45,47.2441 
  
  "/>
<polyline clip-path="url(#clip122)" style="stroke:#a82900; stroke-linecap:round; stroke-linejoin:round; stroke-width:20; stroke-opacity:1; fill:none" points="
  2049.31,47.2441 2059.76,64.1488 2107.67,146.137 2151.14,224.538 2161.92,245.03 2211.12,343.922 2242.52,410.85 
  "/>
<polyline clip-path="url(#clip122)" style="stroke:#991400; stroke-linecap:round; stroke-linejoin:round; stroke-width:20; stroke-opacity:1; fill:none" points="
  2242.52,220.084 2203.62,146.137 
  "/>
<polyline clip-path="url(#clip122)" style="stroke:#991400; stroke-linecap:round; stroke-linejoin:round; stroke-width:20; stroke-opacity:1; fill:none" points="
  2151.14,51.4703 2148.67,47.2441 
  "/>
<polyline clip-path="url(#clip122)" style="stroke:#008000; stroke-linecap:round; stroke-linejoin:round; stroke-width:12; stroke-opacity:1; fill:none" points="
  1328.7,4002.96 1328.7,-1930.61 
  "/>
<polyline clip-path="url(#clip122)" style="stroke:#008000; stroke-linecap:round; stroke-linejoin:round; stroke-width:12; stroke-opacity:1; fill:none" points="
  414.874,-379.643 506.256,-310.83 597.638,-242.017 689.021,-173.204 780.403,-104.392 871.785,-35.5786 963.168,33.2343 1054.55,102.047 1145.93,170.86 1237.31,239.673 
  1328.7,308.486 1420.08,377.299 1511.46,446.112 1602.84,514.925 1694.23,583.737 1785.61,652.55 1876.99,721.363 1968.37,790.176 2059.76,858.989 2151.14,927.802 
  2242.52,996.615 
  "/>
<path clip-path="url(#clip122)" d="
M1328.7 308.486 L1420.08 377.299 L1511.46 446.112 L1602.84 514.925 L1694.23 583.737 L1785.61 652.55 L1876.99 721.363 L1968.37 790.176 L2059.76 858.989 L2151.14 927.802 
  L2242.52 996.615 L2242.52 47.2441 L2151.14 47.2441 L2059.76 47.2441 L1968.37 47.2441 L1876.99 47.2441 L1785.61 47.2441 L1694.23 47.2441 L1602.84 47.2441 L1511.46 47.2441 
  L1420.08 47.2441 L1328.7 47.2441  Z
  " fill="#008000" fill-rule="evenodd" fill-opacity="0.4"/>
<polyline clip-path="url(#clip122)" style="stroke:#008000; stroke-linecap:round; stroke-linejoin:round; stroke-width:4; stroke-opacity:0.4; fill:none" points="
  1328.7,308.486 1420.08,377.299 1511.46,446.112 1602.84,514.925 1694.23,583.737 1785.61,652.55 1876.99,721.363 1968.37,790.176 2059.76,858.989 2151.14,927.802 
  2242.52,996.615 
  "/>
<path clip-path="url(#clip122)" d="M1328.7 228.486 L1309.9 282.566 L1252.62 283.766 L1298.3 318.406 L1281.66 373.206 L1328.7 340.486 L1375.74 373.206 L1359.1 318.406 L1404.78 283.766 L1347.5 282.566 L1328.7 228.486 Z" fill="#ffff00" fill-rule="evenodd" fill-opacity="1" stroke="#000000" stroke-opacity="1" stroke-width="4.8"/>
<path clip-path="url(#clip120)" d="
M475.795 1959.17 L1472.77 1959.17 L1472.77 1609.25 L475.795 1609.25  Z
  " fill="#ffffff" fill-rule="evenodd" fill-opacity="1"/>
<polyline clip-path="url(#clip120)" style="stroke:#000000; stroke-linecap:round; stroke-linejoin:round; stroke-width:4; stroke-opacity:1; fill:none" points="
  475.795,1959.17 1472.77,1959.17 1472.77,1609.25 475.795,1609.25 475.795,1959.17 
  "/>
<path clip-path="url(#clip120)" d="
M496.103 1772.55 L617.946 1772.55 L617.946 1679.24 L496.103 1679.24 L496.103 1772.55  Z
  " fill="#008000" fill-rule="evenodd" fill-opacity="0.4"/>
<polyline clip-path="url(#clip120)" style="stroke:#008000; stroke-linecap:round; stroke-linejoin:round; stroke-width:4; stroke-opacity:0.4; fill:none" points="
  496.103,1679.24 617.946,1679.24 
  "/>
<path clip-path="url(#clip120)" d="M638.253 1687.01 L682.94 1687.01 L682.94 1695.87 L648.774 1695.87 L648.774 1718.78 L679.607 1718.78 L679.607 1727.64 L648.774 1727.64 L648.774 1764.77 L638.253 1764.77 L638.253 1687.01 Z" fill="#000000" fill-rule="evenodd" fill-opacity="1" /><path clip-path="url(#clip120)" d="M743.252 1733.21 L743.252 1737.9 L699.19 1737.9 Q699.815 1747.79 705.127 1753 Q710.492 1758.16 720.023 1758.16 Q725.544 1758.16 730.7 1756.8 Q735.909 1755.45 741.013 1752.74 L741.013 1761.8 Q735.856 1763.99 730.44 1765.14 Q725.023 1766.28 719.45 1766.28 Q705.492 1766.28 697.315 1758.16 Q689.19 1750.03 689.19 1736.18 Q689.19 1721.85 696.898 1713.47 Q704.659 1705.03 717.784 1705.03 Q729.554 1705.03 736.377 1712.64 Q743.252 1720.19 743.252 1733.21 M733.669 1730.4 Q733.565 1722.53 729.242 1717.84 Q724.971 1713.16 717.888 1713.16 Q709.867 1713.16 705.023 1717.69 Q700.232 1722.22 699.503 1730.45 L733.669 1730.4 Z" fill="#000000" fill-rule="evenodd" fill-opacity="1" /><path clip-path="url(#clip120)" d="M785.492 1735.45 Q773.877 1735.45 769.398 1738.1 Q764.919 1740.76 764.919 1747.17 Q764.919 1752.27 768.252 1755.29 Q771.638 1758.26 777.419 1758.26 Q785.387 1758.26 790.179 1752.64 Q795.023 1746.96 795.023 1737.58 L795.023 1735.45 L785.492 1735.45 M804.606 1731.49 L804.606 1764.77 L795.023 1764.77 L795.023 1755.92 Q791.742 1761.23 786.846 1763.78 Q781.95 1766.28 774.867 1766.28 Q765.908 1766.28 760.596 1761.28 Q755.336 1756.23 755.336 1747.79 Q755.336 1737.95 761.898 1732.95 Q768.513 1727.95 781.585 1727.95 L795.023 1727.95 L795.023 1727.01 Q795.023 1720.4 790.648 1716.8 Q786.325 1713.16 778.46 1713.16 Q773.46 1713.16 768.721 1714.35 Q763.981 1715.55 759.606 1717.95 L759.606 1709.09 Q764.867 1707.06 769.815 1706.07 Q774.763 1705.03 779.45 1705.03 Q792.106 1705.03 798.356 1711.59 Q804.606 1718.16 804.606 1731.49 Z" fill="#000000" fill-rule="evenodd" fill-opacity="1" /><path clip-path="url(#clip120)" d="M861.533 1708.16 L861.533 1717.22 Q857.47 1715.14 853.095 1714.09 Q848.72 1713.05 844.033 1713.05 Q836.898 1713.05 833.304 1715.24 Q829.762 1717.43 829.762 1721.8 Q829.762 1725.14 832.314 1727.06 Q834.866 1728.94 842.575 1730.66 L845.856 1731.39 Q856.064 1733.57 860.335 1737.58 Q864.658 1741.54 864.658 1748.68 Q864.658 1756.8 858.2 1761.54 Q851.793 1766.28 840.543 1766.28 Q835.856 1766.28 830.752 1765.34 Q825.7 1764.46 820.075 1762.64 L820.075 1752.74 Q825.387 1755.5 830.543 1756.91 Q835.7 1758.26 840.752 1758.26 Q847.523 1758.26 851.168 1755.97 Q854.814 1753.63 854.814 1749.41 Q854.814 1745.5 852.158 1743.42 Q849.554 1741.33 840.648 1739.41 L837.314 1738.63 Q828.408 1736.75 824.45 1732.9 Q820.491 1728.99 820.491 1722.22 Q820.491 1713.99 826.325 1709.51 Q832.158 1705.03 842.887 1705.03 Q848.2 1705.03 852.887 1705.81 Q857.575 1706.59 861.533 1708.16 Z" fill="#000000" fill-rule="evenodd" fill-opacity="1" /><path clip-path="url(#clip120)" d="M879.918 1706.44 L889.501 1706.44 L889.501 1764.77 L879.918 1764.77 L879.918 1706.44 M879.918 1683.73 L889.501 1683.73 L889.501 1695.87 L879.918 1695.87 L879.918 1683.73 Z" fill="#000000" fill-rule="evenodd" fill-opacity="1" /><path clip-path="url(#clip120)" d="M951.428 1735.66 Q951.428 1725.08 947.053 1719.09 Q942.73 1713.05 935.126 1713.05 Q927.522 1713.05 923.147 1719.09 Q918.824 1725.08 918.824 1735.66 Q918.824 1746.23 923.147 1752.27 Q927.522 1758.26 935.126 1758.26 Q942.73 1758.26 947.053 1752.27 Q951.428 1746.23 951.428 1735.66 M918.824 1715.29 Q921.845 1710.08 926.428 1707.58 Q931.064 1705.03 937.47 1705.03 Q948.095 1705.03 954.709 1713.47 Q961.376 1721.91 961.376 1735.66 Q961.376 1749.41 954.709 1757.84 Q948.095 1766.28 937.47 1766.28 Q931.064 1766.28 926.428 1763.78 Q921.845 1761.23 918.824 1756.02 L918.824 1764.77 L909.189 1764.77 L909.189 1683.73 L918.824 1683.73 L918.824 1715.29 Z" fill="#000000" fill-rule="evenodd" fill-opacity="1" /><path clip-path="url(#clip120)" d="M977.261 1683.73 L986.845 1683.73 L986.845 1764.77 L977.261 1764.77 L977.261 1683.73 Z" fill="#000000" fill-rule="evenodd" fill-opacity="1" /><path clip-path="url(#clip120)" d="M1056.79 1733.21 L1056.79 1737.9 L1012.73 1737.9 Q1013.35 1747.79 1018.67 1753 Q1024.03 1758.16 1033.56 1758.16 Q1039.08 1758.16 1044.24 1756.8 Q1049.45 1755.45 1054.55 1752.74 L1054.55 1761.8 Q1049.4 1763.99 1043.98 1765.14 Q1038.56 1766.28 1032.99 1766.28 Q1019.03 1766.28 1010.86 1758.16 Q1002.73 1750.03 1002.73 1736.18 Q1002.73 1721.85 1010.44 1713.47 Q1018.2 1705.03 1031.32 1705.03 Q1043.09 1705.03 1049.92 1712.64 Q1056.79 1720.19 1056.79 1733.21 M1047.21 1730.4 Q1047.1 1722.53 1042.78 1717.84 Q1038.51 1713.16 1031.43 1713.16 Q1023.41 1713.16 1018.56 1717.69 Q1013.77 1722.22 1013.04 1730.45 L1047.21 1730.4 Z" fill="#000000" fill-rule="evenodd" fill-opacity="1" /><path clip-path="url(#clip120)" d="M1143.72 1728.31 Q1147.1 1729.46 1150.28 1733.21 Q1153.51 1736.96 1156.74 1743.52 L1167.42 1764.77 L1156.11 1764.77 L1146.17 1744.82 Q1142.31 1737.01 1138.67 1734.46 Q1135.07 1731.91 1128.82 1731.91 L1117.36 1731.91 L1117.36 1764.77 L1106.84 1764.77 L1106.84 1687.01 L1130.59 1687.01 Q1143.93 1687.01 1150.49 1692.58 Q1157.05 1698.16 1157.05 1709.41 Q1157.05 1716.75 1153.61 1721.59 Q1150.23 1726.44 1143.72 1728.31 M1117.36 1695.66 L1117.36 1723.26 L1130.59 1723.26 Q1138.2 1723.26 1142.05 1719.77 Q1145.96 1716.23 1145.96 1709.41 Q1145.96 1702.58 1142.05 1699.15 Q1138.2 1695.66 1130.59 1695.66 L1117.36 1695.66 Z" fill="#000000" fill-rule="evenodd" fill-opacity="1" /><path clip-path="url(#clip120)" d="M1225.65 1733.21 L1225.65 1737.9 L1181.58 1737.9 Q1182.21 1747.79 1187.52 1753 Q1192.89 1758.16 1202.42 1758.16 Q1207.94 1758.16 1213.09 1756.8 Q1218.3 1755.45 1223.41 1752.74 L1223.41 1761.8 Q1218.25 1763.99 1212.83 1765.14 Q1207.42 1766.28 1201.84 1766.28 Q1187.89 1766.28 1179.71 1758.16 Q1171.58 1750.03 1171.58 1736.18 Q1171.58 1721.85 1179.29 1713.47 Q1187.05 1705.03 1200.18 1705.03 Q1211.95 1705.03 1218.77 1712.64 Q1225.65 1720.19 1225.65 1733.21 M1216.06 1730.4 Q1215.96 1722.53 1211.64 1717.84 Q1207.36 1713.16 1200.28 1713.16 Q1192.26 1713.16 1187.42 1717.69 Q1182.62 1722.22 1181.9 1730.45 L1216.06 1730.4 Z" fill="#000000" fill-rule="evenodd" fill-opacity="1" /><path clip-path="url(#clip120)" d="M1279.76 1734.93 Q1279.76 1724.51 1275.44 1718.78 Q1271.17 1713.05 1263.41 1713.05 Q1255.7 1713.05 1251.37 1718.78 Q1247.1 1724.51 1247.1 1734.93 Q1247.1 1745.29 1251.37 1751.02 Q1255.7 1756.75 1263.41 1756.75 Q1271.17 1756.75 1275.44 1751.02 Q1279.76 1745.29 1279.76 1734.93 M1289.34 1757.53 Q1289.34 1772.43 1282.73 1779.67 Q1276.11 1786.96 1262.47 1786.96 Q1257.42 1786.96 1252.94 1786.18 Q1248.46 1785.45 1244.24 1783.89 L1244.24 1774.56 Q1248.46 1776.85 1252.57 1777.95 Q1256.69 1779.04 1260.96 1779.04 Q1270.38 1779.04 1275.07 1774.09 Q1279.76 1769.2 1279.76 1759.25 L1279.76 1754.51 Q1276.79 1759.67 1272.16 1762.22 Q1267.52 1764.77 1261.06 1764.77 Q1250.33 1764.77 1243.77 1756.59 Q1237.21 1748.42 1237.21 1734.93 Q1237.21 1721.39 1243.77 1713.21 Q1250.33 1705.03 1261.06 1705.03 Q1267.52 1705.03 1272.16 1707.58 Q1276.79 1710.14 1279.76 1715.29 L1279.76 1706.44 L1289.34 1706.44 L1289.34 1757.53 Z" fill="#000000" fill-rule="evenodd" fill-opacity="1" /><path clip-path="url(#clip120)" d="M1309.08 1706.44 L1318.67 1706.44 L1318.67 1764.77 L1309.08 1764.77 L1309.08 1706.44 M1309.08 1683.73 L1318.67 1683.73 L1318.67 1695.87 L1309.08 1695.87 L1309.08 1683.73 Z" fill="#000000" fill-rule="evenodd" fill-opacity="1" /><path clip-path="url(#clip120)" d="M1361.32 1713.16 Q1353.61 1713.16 1349.13 1719.2 Q1344.66 1725.19 1344.66 1735.66 Q1344.66 1746.13 1349.08 1752.17 Q1353.56 1758.16 1361.32 1758.16 Q1368.98 1758.16 1373.46 1752.12 Q1377.94 1746.07 1377.94 1735.66 Q1377.94 1725.29 1373.46 1719.25 Q1368.98 1713.16 1361.32 1713.16 M1361.32 1705.03 Q1373.82 1705.03 1380.96 1713.16 Q1388.09 1721.28 1388.09 1735.66 Q1388.09 1749.98 1380.96 1758.16 Q1373.82 1766.28 1361.32 1766.28 Q1348.77 1766.28 1341.63 1758.16 Q1334.55 1749.98 1334.55 1735.66 Q1334.55 1721.28 1341.63 1713.16 Q1348.77 1705.03 1361.32 1705.03 Z" fill="#000000" fill-rule="evenodd" fill-opacity="1" /><path clip-path="url(#clip120)" d="M1452.47 1729.56 L1452.47 1764.77 L1442.88 1764.77 L1442.88 1729.88 Q1442.88 1721.59 1439.65 1717.48 Q1436.43 1713.37 1429.97 1713.37 Q1422.21 1713.37 1417.73 1718.31 Q1413.25 1723.26 1413.25 1731.8 L1413.25 1764.77 L1403.61 1764.77 L1403.61 1706.44 L1413.25 1706.44 L1413.25 1715.5 Q1416.69 1710.24 1421.32 1707.64 Q1426.01 1705.03 1432.1 1705.03 Q1442.15 1705.03 1447.31 1711.28 Q1452.47 1717.48 1452.47 1729.56 Z" fill="#000000" fill-rule="evenodd" fill-opacity="1" /><path clip-path="url(#clip120)" d="M557.024 1784.93 L543.488 1823.87 L502.247 1824.73 L535.136 1849.67 L523.155 1889.13 L557.024 1865.57 L590.893 1889.13 L578.912 1849.67 L611.802 1824.73 L570.56 1823.87 L557.024 1784.93 Z" fill="#ffff00" fill-rule="evenodd" fill-opacity="1" stroke="#000000" stroke-opacity="1" stroke-width="3.456"/>
<path clip-path="url(#clip120)" d="M674.294 1810.79 Q662.836 1810.79 656.065 1819.33 Q649.347 1827.87 649.347 1842.61 Q649.347 1857.3 656.065 1865.84 Q662.836 1874.38 674.294 1874.38 Q685.753 1874.38 692.419 1865.84 Q699.138 1857.3 699.138 1842.61 Q699.138 1827.87 692.419 1819.33 Q685.753 1810.79 674.294 1810.79 M674.294 1802.25 Q690.648 1802.25 700.44 1813.23 Q710.232 1824.17 710.232 1842.61 Q710.232 1860.99 700.44 1871.98 Q690.648 1882.92 674.294 1882.92 Q657.888 1882.92 648.044 1871.98 Q638.253 1861.05 638.253 1842.61 Q638.253 1824.17 648.044 1813.23 Q657.888 1802.25 674.294 1802.25 Z" fill="#000000" fill-rule="evenodd" fill-opacity="1" /><path clip-path="url(#clip120)" d="M735.544 1872.66 L735.544 1903.6 L725.909 1903.6 L725.909 1823.08 L735.544 1823.08 L735.544 1831.93 Q738.565 1826.72 743.148 1824.22 Q747.783 1821.67 754.19 1821.67 Q764.815 1821.67 771.429 1830.11 Q778.096 1838.55 778.096 1852.3 Q778.096 1866.05 771.429 1874.48 Q764.815 1882.92 754.19 1882.92 Q747.783 1882.92 743.148 1880.42 Q738.565 1877.87 735.544 1872.66 M768.148 1852.3 Q768.148 1841.72 763.773 1835.73 Q759.45 1829.69 751.846 1829.69 Q744.242 1829.69 739.867 1835.73 Q735.544 1841.72 735.544 1852.3 Q735.544 1862.87 739.867 1868.91 Q744.242 1874.9 751.846 1874.9 Q759.45 1874.9 763.773 1868.91 Q768.148 1862.87 768.148 1852.3 Z" fill="#000000" fill-rule="evenodd" fill-opacity="1" /><path clip-path="url(#clip120)" d="M803.46 1806.52 L803.46 1823.08 L823.2 1823.08 L823.2 1830.53 L803.46 1830.53 L803.46 1862.19 Q803.46 1869.33 805.387 1871.36 Q807.367 1873.39 813.356 1873.39 L823.2 1873.39 L823.2 1881.41 L813.356 1881.41 Q802.262 1881.41 798.044 1877.3 Q793.825 1873.13 793.825 1862.19 L793.825 1830.53 L786.794 1830.53 L786.794 1823.08 L793.825 1823.08 L793.825 1806.52 L803.46 1806.52 Z" fill="#000000" fill-rule="evenodd" fill-opacity="1" /><path clip-path="url(#clip120)" d="M835.804 1823.08 L845.387 1823.08 L845.387 1881.41 L835.804 1881.41 L835.804 1823.08 M835.804 1800.37 L845.387 1800.37 L845.387 1812.51 L835.804 1812.51 L835.804 1800.37 Z" fill="#000000" fill-rule="evenodd" fill-opacity="1" /><path clip-path="url(#clip120)" d="M910.856 1834.28 Q914.449 1827.82 919.449 1824.74 Q924.449 1821.67 931.22 1821.67 Q940.335 1821.67 945.282 1828.08 Q950.23 1834.43 950.23 1846.2 L950.23 1881.41 L940.595 1881.41 L940.595 1846.52 Q940.595 1838.13 937.626 1834.07 Q934.657 1830.01 928.564 1830.01 Q921.116 1830.01 916.793 1834.95 Q912.47 1839.9 912.47 1848.44 L912.47 1881.41 L902.835 1881.41 L902.835 1846.52 Q902.835 1838.08 899.866 1834.07 Q896.897 1830.01 890.699 1830.01 Q883.356 1830.01 879.033 1835.01 Q874.71 1839.95 874.71 1848.44 L874.71 1881.41 L865.075 1881.41 L865.075 1823.08 L874.71 1823.08 L874.71 1832.14 Q877.991 1826.78 882.574 1824.22 Q887.158 1821.67 893.46 1821.67 Q899.814 1821.67 904.241 1824.9 Q908.72 1828.13 910.856 1834.28 Z" fill="#000000" fill-rule="evenodd" fill-opacity="1" /><path clip-path="url(#clip120)" d="M968.355 1858.39 L968.355 1823.08 L977.939 1823.08 L977.939 1858.03 Q977.939 1866.31 981.168 1870.47 Q984.397 1874.59 990.855 1874.59 Q998.615 1874.59 1003.09 1869.64 Q1007.63 1864.69 1007.63 1856.15 L1007.63 1823.08 L1017.21 1823.08 L1017.21 1881.41 L1007.63 1881.41 L1007.63 1872.45 Q1004.14 1877.77 999.501 1880.37 Q994.918 1882.92 988.824 1882.92 Q978.772 1882.92 973.564 1876.67 Q968.355 1870.42 968.355 1858.39 M992.47 1821.67 L992.47 1821.67 Z" fill="#000000" fill-rule="evenodd" fill-opacity="1" /><path clip-path="url(#clip120)" d="M1082.37 1834.28 Q1085.96 1827.82 1090.96 1824.74 Q1095.96 1821.67 1102.73 1821.67 Q1111.84 1821.67 1116.79 1828.08 Q1121.74 1834.43 1121.74 1846.2 L1121.74 1881.41 L1112.1 1881.41 L1112.1 1846.52 Q1112.1 1838.13 1109.14 1834.07 Q1106.17 1830.01 1100.07 1830.01 Q1092.63 1830.01 1088.3 1834.95 Q1083.98 1839.9 1083.98 1848.44 L1083.98 1881.41 L1074.34 1881.41 L1074.34 1846.52 Q1074.34 1838.08 1071.38 1834.07 Q1068.41 1830.01 1062.21 1830.01 Q1054.87 1830.01 1050.54 1835.01 Q1046.22 1839.95 1046.22 1848.44 L1046.22 1881.41 L1036.58 1881.41 L1036.58 1823.08 L1046.22 1823.08 L1046.22 1832.14 Q1049.5 1826.78 1054.08 1824.22 Q1058.67 1821.67 1064.97 1821.67 Q1071.32 1821.67 1075.75 1824.9 Q1080.23 1828.13 1082.37 1834.28 Z" fill="#000000" fill-rule="evenodd" fill-opacity="1" /></svg>
