<?xml version="1.0" encoding="UTF-8" standalone="no"?>
<!-- Created with Inkscape (http://www.inkscape.org/) -->

<svg
   width="5.8364415in"
   height="3.5808475in"
   viewBox="0 0 148.24561 90.953527"
   version="1.1"
   id="svg55554"
   sodipodi:docname="system-environmental.svg"
   inkscape:version="1.2.1 (9c6d41e4, 2022-07-14)"
   xmlns:inkscape="http://www.inkscape.org/namespaces/inkscape"
   xmlns:sodipodi="http://sodipodi.sourceforge.net/DTD/sodipodi-0.dtd"
   xmlns="http://www.w3.org/2000/svg"
   xmlns:svg="http://www.w3.org/2000/svg">
  <sodipodi:namedview
     id="namedview55556"
     pagecolor="#ffffff"
     bordercolor="#000000"
     borderopacity="0.25"
     inkscape:showpageshadow="2"
     inkscape:pageopacity="0.0"
     inkscape:pagecheckerboard="0"
     inkscape:deskcolor="#d1d1d1"
     inkscape:document-units="mm"
     showgrid="false"
     inkscape:zoom="1.2861282"
     inkscape:cx="247.64251"
     inkscape:cy="170.27852"
     inkscape:window-width="1440"
     inkscape:window-height="788"
     inkscape:window-x="0"
     inkscape:window-y="25"
     inkscape:window-maximized="0"
     inkscape:current-layer="layer1" />
  <defs
     id="defs55551">
    <marker
       style="overflow:visible"
       id="Arrow2"
       refX="0"
       refY="0"
       orient="auto-start-reverse"
       inkscape:stockid="Arrow2"
       markerWidth="2.7"
       markerHeight="1.9636365"
       viewBox="0 0 7.7 5.6"
       inkscape:isstock="true"
       inkscape:collect="always"
       preserveAspectRatio="xMidYMid">
      <path
         transform="scale(0.7)"
         d="M -2,-4 9,0 -2,4 c 2,-2.33 2,-5.66 0,-8 z"
         style="fill:context-stroke;fill-rule:evenodd;stroke:none"
         id="arrow2L" />
    </marker>
    <g
       id="id-03bec6d0-fb4f-446d-ae7e-4d125a7abd1e-7">
      <g
         id="id-139c4c3a-4557-4b29-8fd0-cb7c79db015c-2" />
      <g
         id="id-5857fa03-636e-4b29-9c8b-eef63fd43bf5-4">
        <path
           d="M 4.46875,-4 C 4.5625,-4.109375 4.578125,-4.125 4.578125,-4.21875 4.578125,-4.421875 4.4375,-4.421875 4.25,-4.421875 H 0.59375 L 0.484375,-2.6875 h 0.46875 C 1,-3.703125 1.3125,-4.0625 2.34375,-4.0625 H 3.1875 l -2.78125,3.625 C 0.3125,-0.328125 0.3125,-0.3125 0.3125,-0.21875 0.3125,0 0.453125,0 0.640625,0 h 3.78125 l 0.1875,-2.015625 H 4.140625 C 4.046875,-1 3.890625,-0.40625 2.578125,-0.40625 H 1.71875 Z m 0,0"
           id="id-e7b77057-3829-4741-b4ad-b00dd09d8e48-1" />
      </g>
      <g
         id="id-61987d61-18a7-473b-9fba-79c89e96653a-8" />
      <g
         id="id-93a354c7-69ed-4647-952e-23a044db9c0e-2">
        <path
           d="m 3.296875,2.390625 c 0,-0.03125 0,-0.046875 -0.171875,-0.21875 C 1.890625,0.921875 1.5625,-0.96875 1.5625,-2.5 c 0,-1.734375 0.375,-3.46875 1.609375,-4.703125 0.125,-0.125 0.125,-0.140625 0.125,-0.171875 0,-0.078125 -0.03125,-0.109375 -0.09375,-0.109375 -0.109375,0 -1,0.6875 -1.59375,1.953125 -0.5,1.09375 -0.625,2.203125 -0.625,3.03125 0,0.78125 0.109375,1.984375 0.65625,3.125 C 2.25,1.84375 3.09375,2.5 3.203125,2.5 c 0.0625,0 0.09375,-0.03125 0.09375,-0.109375 z m 0,0"
           id="id-9e2276cf-6de1-4180-ba05-fe804227ce67-6" />
      </g>
      <g
         id="id-53e0b2a6-2fdc-4287-89b5-2db403d6e35b-0">
        <path
           d="m 2.875,-2.5 c 0,-0.765625 -0.109375,-1.96875 -0.65625,-3.109375 -0.59375,-1.21875 -1.453125,-1.875 -1.546875,-1.875 -0.0625,0 -0.109375,0.046875 -0.109375,0.109375 0,0.03125 0,0.046875 0.1875,0.234375 0.984375,0.984375 1.546875,2.5625 1.546875,4.640625 0,1.71875 -0.359375,3.46875 -1.59375,4.71875 C 0.5625,2.34375 0.5625,2.359375 0.5625,2.390625 0.5625,2.453125 0.609375,2.5 0.671875,2.5 0.765625,2.5 1.671875,1.8125 2.25,0.546875 2.765625,-0.546875 2.875,-1.65625 2.875,-2.5 Z m 0,0"
           id="id-110c86a5-1b8c-447c-8e83-a4da85f75cc9-3" />
      </g>
      <g
         id="id-40f9791a-092e-4c4b-bcab-82e9aa3b8c01-9" />
      <g
         id="id-83dd83c0-7460-4bb4-b31c-e4a37e6204b1-4">
        <path
           d="m 2.046875,-3.984375 h 0.9375 c 0.203125,0 0.3125,0 0.3125,-0.203125 0,-0.109375 -0.109375,-0.109375 -0.28125,-0.109375 h -0.875 C 2.5,-5.71875 2.546875,-5.90625 2.546875,-5.96875 c 0,-0.171875 -0.125,-0.265625 -0.296875,-0.265625 -0.03125,0 -0.3125,0 -0.390625,0.359375 L 1.46875,-4.296875 h -0.9375 c -0.203125,0 -0.296875,0 -0.296875,0.1875 0,0.125 0.078125,0.125 0.28125,0.125 h 0.875 C 0.671875,-1.15625 0.625,-0.984375 0.625,-0.8125 0.625,-0.265625 1,0.109375 1.546875,0.109375 2.5625,0.109375 3.125,-1.34375 3.125,-1.421875 3.125,-1.53125 3.046875,-1.53125 3.015625,-1.53125 2.921875,-1.53125 2.90625,-1.5 2.859375,-1.390625 2.4375,-0.34375 1.90625,-0.109375 1.5625,-0.109375 c -0.203125,0 -0.3125,-0.125 -0.3125,-0.453125 0,-0.25 0.03125,-0.3125 0.0625,-0.484375 z m 0,0"
           id="id-309a73b1-a6ff-47eb-b397-c01ea1b3257c-9" />
      </g>
    </g>
  </defs>
  <g
     inkscape:label="Layer 1"
     inkscape:groupmode="layer"
     id="layer1"
     transform="translate(-2.7718647,-14.182664)">
    <ellipse
       style="fill:none;stroke:#0000ff;stroke-width:0.831616;stroke-dasharray:4.98972, 4.98972;stroke-dashoffset:0"
       id="path57239"
       cx="76.894531"
       cy="56.059483"
       rx="73.707146"
       ry="41.48259" />
    <path
       style="fill:none;fill-opacity:1;stroke:none;stroke-width:32.6136;stroke-dasharray:195.681, 195.681;stroke-dashoffset:0;stroke-opacity:1"
       d="M 60.68764,84.01612 92.985808,52.95228"
       id="path66504" />
    <path
       style="fill:#0000ff;stroke:none;stroke-width:0.944999;stroke-dasharray:5.66999, 5.66999;stroke-dashoffset:0"
       d="m 85.220781,90.758313 1.08512,14.377877 z"
       id="path66362-3" />
    <rect
       style="fill:none;fill-opacity:1;stroke:#ff0000;stroke-width:0.879018;stroke-dasharray:none;stroke-dashoffset:0;stroke-opacity:1"
       id="rect71441"
       width="51.754791"
       height="55.869202"
       x="58.468136"
       y="34.396416" />
    <text
       xml:space="preserve"
       style="font-weight:500;font-size:7.05556px;font-family:Avenir;-inkscape-font-specification:'Avenir Medium';fill:#ff0000;fill-opacity:1;stroke:none;stroke-width:0.792162;stroke-dasharray:none;stroke-dashoffset:0;stroke-opacity:1"
       x="59.86475"
       y="41.347492"
       id="text72391"><tspan
         sodipodi:role="line"
         style="font-size:7.05556px;fill:#ff0000;stroke:none;stroke-width:0.792162"
         x="59.86475"
         y="41.347492"
         id="tspan72393">Environmental</tspan><tspan
         sodipodi:role="line"
         style="font-size:7.05556px;fill:#ff0000;stroke:none;stroke-width:0.792162"
         x="59.86475"
         y="50.166943"
         id="tspan89858">Medium</tspan></text>
    <path
       style="fill:none;fill-opacity:1;stroke:#0000ff;stroke-width:2.5222;stroke-linecap:butt;stroke-linejoin:round;stroke-dasharray:none;stroke-dashoffset:0;stroke-opacity:1;marker-end:url(#Arrow2)"
       d="M 34.561096,42.254798 V 54.238611"
       id="path80855" />
    <path
       style="fill:none;fill-opacity:1;stroke:#0000ff;stroke-width:2.12081;stroke-linecap:butt;stroke-linejoin:round;stroke-dasharray:none;stroke-dashoffset:0;stroke-opacity:1;marker-end:url(#Arrow2)"
       d="m 45.644019,70.464552 h 8.473078"
       id="path82727" />
    <path
       style="fill:none;fill-opacity:1;stroke:#ff0000;stroke-width:2.12081;stroke-linecap:butt;stroke-linejoin:round;stroke-dasharray:none;stroke-dashoffset:0;stroke-opacity:1;marker-end:url(#Arrow2)"
       d="m 111.06324,55.858374 h 8.47308"
       id="path82761" />
    <text
       xml:space="preserve"
       style="font-weight:500;font-size:4.93889px;font-family:Avenir;-inkscape-font-specification:'Avenir Medium';fill:#0000ff;fill-opacity:1;stroke:none;stroke-width:3.09999;stroke-linecap:butt;stroke-linejoin:round;stroke-dasharray:none;stroke-dashoffset:0;stroke-opacity:1"
       x="125.28397"
       y="56.860962"
       id="text83533"><tspan
         sodipodi:role="line"
         style="font-style:oblique;font-variant:normal;font-weight:500;font-stretch:normal;font-size:4.93889px;font-family:Avenir;-inkscape-font-specification:'Avenir Medium Oblique';fill:#0000ff;stroke:none;stroke-width:3.1"
         x="125.28397"
         y="56.860962"
         id="tspan92086">Impacts</tspan></text>
    <text
       xml:space="preserve"
       style="font-weight:500;font-size:7.05556px;font-family:Avenir;-inkscape-font-specification:'Avenir Medium';fill:#0000ff;fill-opacity:1;stroke:#ff0000;stroke-width:3.09999;stroke-linecap:butt;stroke-linejoin:round;stroke-dasharray:none;stroke-dashoffset:0;stroke-opacity:1"
       x="30.240959"
       y="48.961555"
       id="text86834"><tspan
         sodipodi:role="line"
         id="tspan86832"
         style="stroke-width:3.1"
         x="30.240959"
         y="48.961555"></tspan></text>
    <text
       xml:space="preserve"
       style="font-weight:500;font-size:7.05556px;font-family:Avenir;-inkscape-font-specification:'Avenir Medium';fill:#0000ff;fill-opacity:1;stroke:#ff0000;stroke-width:3.09999;stroke-linecap:butt;stroke-linejoin:round;stroke-dasharray:none;stroke-dashoffset:0;stroke-opacity:1"
       x="23.657894"
       y="32.380184"
       id="text86852"><tspan
         sodipodi:role="line"
         id="tspan86850"
         style="fill:none;stroke:none;stroke-width:3.1"
         x="23.657894"
         y="32.380184">Economic</tspan><tspan
         sodipodi:role="line"
         style="fill:none;stroke:none;stroke-width:3.1"
         x="23.657894"
         y="41.199635"
         id="tspan86854">Activities</tspan></text>
    <text
       xml:space="preserve"
       style="font-weight:500;font-size:4.93889px;font-family:Avenir;-inkscape-font-specification:'Avenir Medium';fill:#0000ff;fill-opacity:1;stroke:none;stroke-width:3.09999;stroke-linecap:butt;stroke-linejoin:round;stroke-dasharray:none;stroke-dashoffset:0;stroke-opacity:1"
       x="25.303659"
       y="31.968742"
       id="text86858"><tspan
         sodipodi:role="line"
         id="tspan86856"
         style="font-style:oblique;font-variant:normal;font-weight:500;font-stretch:normal;font-size:4.93889px;font-family:Avenir;-inkscape-font-specification:'Avenir Medium Oblique';stroke-width:3.1"
         x="25.303659"
         y="31.968742">Economic</tspan><tspan
         sodipodi:role="line"
         style="font-style:oblique;font-variant:normal;font-weight:500;font-stretch:normal;font-size:4.93889px;font-family:Avenir;-inkscape-font-specification:'Avenir Medium Oblique';stroke-width:3.1"
         x="25.303659"
         y="38.142353"
         id="tspan86860">Activities</tspan></text>
    <text
       xml:space="preserve"
       style="font-weight:500;font-size:4.93889px;font-family:Avenir;-inkscape-font-specification:'Avenir Medium';fill:#0000ff;fill-opacity:1;stroke:none;stroke-width:3.09999;stroke-linecap:butt;stroke-linejoin:round;stroke-dasharray:none;stroke-dashoffset:0;stroke-opacity:1"
       x="31.782778"
       y="67.352722"
       id="text86866"><tspan
         sodipodi:role="line"
         style="font-style:oblique;font-variant:normal;font-weight:500;font-stretch:normal;font-size:4.93889px;font-family:Avenir;-inkscape-font-specification:'Avenir Medium Oblique';text-align:center;text-anchor:middle;stroke-width:3.1"
         x="31.782778"
         y="67.352722"
         id="tspan86864">Waste</tspan><tspan
         sodipodi:role="line"
         style="font-style:oblique;font-variant:normal;font-weight:500;font-stretch:normal;font-size:4.93889px;font-family:Avenir;-inkscape-font-specification:'Avenir Medium Oblique';text-align:center;text-anchor:middle;stroke-width:3.1"
         x="31.782778"
         y="73.526337"
         id="tspan87620">Discharges</tspan></text>
    <text
       xml:space="preserve"
       style="font-style:oblique;font-variant:normal;font-weight:500;font-stretch:normal;font-size:4.9389px;font-family:Avenir;-inkscape-font-specification:'Avenir Medium Oblique';fill:#ff0000;fill-opacity:1;stroke:none;stroke-width:3.09999;stroke-linecap:butt;stroke-linejoin:round;stroke-dasharray:none;stroke-dashoffset:0;stroke-opacity:1"
       x="62.744846"
       y="66.324127"
       id="text89862"><tspan
         sodipodi:role="line"
         id="tspan89860"
         style="fill:#ff0000;stroke-width:3.1"
         x="62.744846"
         y="66.324127">Fate and transport,</tspan><tspan
         sodipodi:role="line"
         style="fill:#ff0000;stroke-width:3.1"
         x="62.744846"
         y="72.497749"
         id="tspan90604">Decay, Reaction</tspan></text>
  </g>
</svg>
