<?xml version="1.0" encoding="utf-8"?>
<svg xmlns="http://www.w3.org/2000/svg" xmlns:xlink="http://www.w3.org/1999/xlink" width="600" height="400" viewBox="0 0 2400 1600">
<defs>
  <clipPath id="clip650">
    <rect x="0" y="0" width="2400" height="1600"/>
  </clipPath>
</defs>
<path clip-path="url(#clip650)" d="M0 1600 L2400 1600 L2400 0 L0 0  Z" fill="#ffffff" fill-rule="evenodd" fill-opacity="1"/>
<defs>
  <clipPath id="clip651">
    <rect x="480" y="0" width="1681" height="1600"/>
  </clipPath>
</defs>
<path clip-path="url(#clip650)" d="M267.867 1375.66 L2352.76 1375.66 L2352.76 47.2441 L267.867 47.2441  Z" fill="#ffffff" fill-rule="evenodd" fill-opacity="1"/>
<defs>
  <clipPath id="clip652">
    <rect x="267" y="47" width="2086" height="1329"/>
  </clipPath>
</defs>
<polyline clip-path="url(#clip652)" style="stroke:#000000; stroke-linecap:round; stroke-linejoin:round; stroke-width:2; stroke-opacity:0.1; fill:none" points="269.887,1375.66 269.887,47.2441 "/>
<polyline clip-path="url(#clip652)" style="stroke:#000000; stroke-linecap:round; stroke-linejoin:round; stroke-width:2; stroke-opacity:0.1; fill:none" points="861.164,1375.66 861.164,47.2441 "/>
<polyline clip-path="url(#clip652)" style="stroke:#000000; stroke-linecap:round; stroke-linejoin:round; stroke-width:2; stroke-opacity:0.1; fill:none" points="1452.44,1375.66 1452.44,47.2441 "/>
<polyline clip-path="url(#clip652)" style="stroke:#000000; stroke-linecap:round; stroke-linejoin:round; stroke-width:2; stroke-opacity:0.1; fill:none" points="2043.72,1375.66 2043.72,47.2441 "/>
<polyline clip-path="url(#clip650)" style="stroke:#000000; stroke-linecap:round; stroke-linejoin:round; stroke-width:4; stroke-opacity:1; fill:none" points="267.867,1375.66 2352.76,1375.66 "/>
<polyline clip-path="url(#clip650)" style="stroke:#000000; stroke-linecap:round; stroke-linejoin:round; stroke-width:4; stroke-opacity:1; fill:none" points="269.887,1375.66 269.887,1356.76 "/>
<polyline clip-path="url(#clip650)" style="stroke:#000000; stroke-linecap:round; stroke-linejoin:round; stroke-width:4; stroke-opacity:1; fill:none" points="861.164,1375.66 861.164,1356.76 "/>
<polyline clip-path="url(#clip650)" style="stroke:#000000; stroke-linecap:round; stroke-linejoin:round; stroke-width:4; stroke-opacity:1; fill:none" points="1452.44,1375.66 1452.44,1356.76 "/>
<polyline clip-path="url(#clip650)" style="stroke:#000000; stroke-linecap:round; stroke-linejoin:round; stroke-width:4; stroke-opacity:1; fill:none" points="2043.72,1375.66 2043.72,1356.76 "/>
<path clip-path="url(#clip650)" d="M269.887 1415.37 Q263.568 1415.37 260.368 1421.61 Q257.208 1427.8 257.208 1440.28 Q257.208 1452.72 260.368 1458.96 Q263.568 1465.15 269.887 1465.15 Q276.247 1465.15 279.407 1458.96 Q282.607 1452.72 282.607 1440.28 Q282.607 1427.8 279.407 1421.61 Q276.247 1415.37 269.887 1415.37 M269.887 1408.89 Q280.055 1408.89 285.402 1416.95 Q290.79 1424.97 290.79 1440.28 Q290.79 1455.55 285.402 1463.61 Q280.055 1471.63 269.887 1471.63 Q259.72 1471.63 254.332 1463.61 Q248.985 1455.55 248.985 1440.28 Q248.985 1424.97 254.332 1416.95 Q259.72 1408.89 269.887 1408.89 Z" fill="#000000" fill-rule="evenodd" fill-opacity="1" /><path clip-path="url(#clip650)" d="M844.15 1409.98 L876.273 1409.98 L876.273 1416.87 L851.644 1416.87 L851.644 1431.69 Q853.426 1431.09 855.209 1430.8 Q856.991 1430.48 858.774 1430.48 Q868.901 1430.48 874.815 1436.03 Q880.729 1441.58 880.729 1451.06 Q880.729 1460.82 874.653 1466.25 Q868.577 1471.63 857.518 1471.63 Q853.71 1471.63 849.74 1470.99 Q845.811 1470.34 841.598 1469.04 L841.598 1460.82 Q845.244 1462.8 849.132 1463.78 Q853.021 1464.75 857.356 1464.75 Q864.364 1464.75 868.455 1461.06 Q872.547 1457.38 872.547 1451.06 Q872.547 1444.74 868.455 1441.05 Q864.364 1437.36 857.356 1437.36 Q854.075 1437.36 850.793 1438.09 Q847.553 1438.82 844.15 1440.36 L844.15 1409.98 Z" fill="#000000" fill-rule="evenodd" fill-opacity="1" /><path clip-path="url(#clip650)" d="M1408.14 1463.57 L1421.51 1463.57 L1421.51 1417.43 L1406.97 1420.35 L1406.97 1412.9 L1421.43 1409.98 L1429.61 1409.98 L1429.61 1463.57 L1442.98 1463.57 L1442.98 1470.46 L1408.14 1470.46 L1408.14 1463.57 Z" fill="#000000" fill-rule="evenodd" fill-opacity="1" /><path clip-path="url(#clip650)" d="M1477.01 1415.37 Q1470.69 1415.37 1467.49 1421.61 Q1464.33 1427.8 1464.33 1440.28 Q1464.33 1452.72 1467.49 1458.96 Q1470.69 1465.15 1477.01 1465.15 Q1483.37 1465.15 1486.53 1458.96 Q1489.73 1452.72 1489.73 1440.28 Q1489.73 1427.8 1486.53 1421.61 Q1483.37 1415.37 1477.01 1415.37 M1477.01 1408.89 Q1487.18 1408.89 1492.52 1416.95 Q1497.91 1424.97 1497.91 1440.28 Q1497.91 1455.55 1492.52 1463.61 Q1487.18 1471.63 1477.01 1471.63 Q1466.84 1471.63 1461.45 1463.61 Q1456.11 1455.55 1456.11 1440.28 Q1456.11 1424.97 1461.45 1416.95 Q1466.84 1408.89 1477.01 1408.89 Z" fill="#000000" fill-rule="evenodd" fill-opacity="1" /><path clip-path="url(#clip650)" d="M2000.29 1463.57 L2013.66 1463.57 L2013.66 1417.43 L1999.12 1420.35 L1999.12 1412.9 L2013.58 1409.98 L2021.76 1409.98 L2021.76 1463.57 L2035.13 1463.57 L2035.13 1470.46 L2000.29 1470.46 L2000.29 1463.57 Z" fill="#000000" fill-rule="evenodd" fill-opacity="1" /><path clip-path="url(#clip650)" d="M2051.74 1409.98 L2083.86 1409.98 L2083.86 1416.87 L2059.23 1416.87 L2059.23 1431.69 Q2061.01 1431.09 2062.8 1430.8 Q2064.58 1430.48 2066.36 1430.48 Q2076.49 1430.48 2082.4 1436.03 Q2088.32 1441.58 2088.32 1451.06 Q2088.32 1460.82 2082.24 1466.25 Q2076.16 1471.63 2065.1 1471.63 Q2061.3 1471.63 2057.33 1470.99 Q2053.4 1470.34 2049.18 1469.04 L2049.18 1460.82 Q2052.83 1462.8 2056.72 1463.78 Q2060.61 1464.75 2064.94 1464.75 Q2071.95 1464.75 2076.04 1461.06 Q2080.13 1457.38 2080.13 1451.06 Q2080.13 1444.74 2076.04 1441.05 Q2071.95 1437.36 2064.94 1437.36 Q2061.66 1437.36 2058.38 1438.09 Q2055.14 1438.82 2051.74 1440.36 L2051.74 1409.98 Z" fill="#000000" fill-rule="evenodd" fill-opacity="1" /><path clip-path="url(#clip650)" d="M1330.93 1528.24 Q1330.93 1530.87 1329.29 1532.36 Q1327.65 1533.82 1325.78 1533.82 Q1324 1533.82 1323.06 1532.79 Q1322.12 1531.76 1322.12 1530.44 Q1322.12 1528.66 1323.43 1527.12 Q1324.75 1525.57 1326.71 1525.24 Q1324.79 1524.03 1321.93 1524.03 Q1320.06 1524.03 1318.42 1525.01 Q1316.83 1525.99 1315.85 1527.26 Q1314.91 1528.52 1314.06 1530.35 Q1313.27 1532.13 1312.94 1533.21 Q1312.66 1534.24 1312.43 1535.36 L1309.15 1548.48 Q1307.55 1554.71 1307.55 1556.91 Q1307.55 1559.63 1308.87 1561.46 Q1310.18 1563.24 1312.8 1563.24 Q1313.83 1563.24 1315 1562.95 Q1316.17 1562.63 1317.67 1561.78 Q1319.22 1560.89 1320.58 1559.58 Q1321.98 1558.22 1323.34 1555.93 Q1324.7 1553.63 1325.59 1550.68 Q1325.87 1549.65 1326.81 1549.65 Q1327.98 1549.65 1327.98 1550.59 Q1327.98 1551.38 1327.32 1553.07 Q1326.71 1554.71 1325.35 1556.86 Q1324.04 1558.97 1322.31 1560.89 Q1320.58 1562.77 1318 1564.08 Q1315.42 1565.39 1312.61 1565.39 Q1308.58 1565.39 1305.91 1563.24 Q1303.24 1561.08 1302.26 1558.08 Q1302.03 1558.5 1301.7 1559.07 Q1301.37 1559.63 1300.39 1560.89 Q1299.45 1562.11 1298.37 1563.05 Q1297.29 1563.94 1295.61 1564.64 Q1293.97 1565.39 1292.19 1565.39 Q1289.94 1565.39 1287.93 1564.73 Q1285.96 1564.08 1284.55 1562.58 Q1283.15 1561.08 1283.15 1559.02 Q1283.15 1556.72 1284.69 1555.13 Q1286.29 1553.49 1288.44 1553.49 Q1289.8 1553.49 1290.88 1554.29 Q1292 1555.08 1292 1556.82 Q1292 1558.74 1290.69 1560.19 Q1289.38 1561.64 1287.5 1562.02 Q1289.42 1563.24 1292.28 1563.24 Q1295.37 1563.24 1297.81 1560.52 Q1300.25 1557.8 1301.42 1553.26 Q1304.32 1542.34 1305.45 1537.47 Q1306.57 1532.55 1306.57 1530.44 Q1306.57 1528.48 1306.05 1527.12 Q1305.54 1525.76 1304.65 1525.15 Q1303.81 1524.49 1303.01 1524.26 Q1302.26 1524.03 1301.42 1524.03 Q1300.01 1524.03 1298.42 1524.59 Q1296.87 1525.15 1295 1526.46 Q1293.17 1527.73 1291.44 1530.35 Q1289.71 1532.97 1288.53 1536.58 Q1288.3 1537.66 1287.27 1537.66 Q1286.15 1537.61 1286.15 1536.67 Q1286.15 1535.88 1286.75 1534.24 Q1287.41 1532.55 1288.72 1530.44 Q1290.08 1528.34 1291.81 1526.46 Q1293.59 1524.54 1296.17 1523.23 Q1298.79 1521.92 1301.6 1521.92 Q1302.87 1521.92 1304.09 1522.2 Q1305.35 1522.43 1306.85 1523.14 Q1308.4 1523.84 1309.76 1525.38 Q1311.11 1526.93 1311.96 1529.18 Q1312.52 1528.1 1313.27 1527.07 Q1314.06 1526.04 1315.28 1524.78 Q1316.55 1523.46 1318.28 1522.71 Q1320.06 1521.92 1322.03 1521.92 Q1323.95 1521.92 1325.82 1522.43 Q1327.7 1522.9 1329.29 1524.45 Q1330.93 1525.95 1330.93 1528.24 Z" fill="#000000" fill-rule="evenodd" fill-opacity="1" /><polyline clip-path="url(#clip652)" style="stroke:#000000; stroke-linecap:round; stroke-linejoin:round; stroke-width:2; stroke-opacity:0.1; fill:none" points="267.867,1081.07 2352.76,1081.07 "/>
<polyline clip-path="url(#clip652)" style="stroke:#000000; stroke-linecap:round; stroke-linejoin:round; stroke-width:2; stroke-opacity:0.1; fill:none" points="267.867,777.078 2352.76,777.078 "/>
<polyline clip-path="url(#clip652)" style="stroke:#000000; stroke-linecap:round; stroke-linejoin:round; stroke-width:2; stroke-opacity:0.1; fill:none" points="267.867,473.09 2352.76,473.09 "/>
<polyline clip-path="url(#clip652)" style="stroke:#000000; stroke-linecap:round; stroke-linejoin:round; stroke-width:2; stroke-opacity:0.1; fill:none" points="267.867,169.101 2352.76,169.101 "/>
<polyline clip-path="url(#clip650)" style="stroke:#000000; stroke-linecap:round; stroke-linejoin:round; stroke-width:4; stroke-opacity:1; fill:none" points="267.867,1375.66 267.867,47.2441 "/>
<polyline clip-path="url(#clip650)" style="stroke:#000000; stroke-linecap:round; stroke-linejoin:round; stroke-width:4; stroke-opacity:1; fill:none" points="267.867,1081.07 286.764,1081.07 "/>
<polyline clip-path="url(#clip650)" style="stroke:#000000; stroke-linecap:round; stroke-linejoin:round; stroke-width:4; stroke-opacity:1; fill:none" points="267.867,777.078 286.764,777.078 "/>
<polyline clip-path="url(#clip650)" style="stroke:#000000; stroke-linecap:round; stroke-linejoin:round; stroke-width:4; stroke-opacity:1; fill:none" points="267.867,473.09 286.764,473.09 "/>
<polyline clip-path="url(#clip650)" style="stroke:#000000; stroke-linecap:round; stroke-linejoin:round; stroke-width:4; stroke-opacity:1; fill:none" points="267.867,169.101 286.764,169.101 "/>
<path clip-path="url(#clip650)" d="M147.729 1104.42 L176.288 1104.42 L176.288 1111.31 L137.886 1111.31 L137.886 1104.42 Q142.544 1099.6 150.565 1091.5 Q158.626 1083.36 160.692 1081.01 Q164.622 1076.59 166.161 1073.55 Q167.741 1070.47 167.741 1067.52 Q167.741 1062.7 164.338 1059.66 Q160.976 1056.62 155.548 1056.62 Q151.699 1056.62 147.405 1057.96 Q143.152 1059.29 138.291 1062.01 L138.291 1053.74 Q143.233 1051.76 147.527 1050.75 Q151.821 1049.73 155.386 1049.73 Q164.784 1049.73 170.374 1054.43 Q175.964 1059.13 175.964 1066.99 Q175.964 1070.72 174.546 1074.08 Q173.169 1077.4 169.483 1081.94 Q168.47 1083.11 163.042 1088.74 Q157.614 1094.33 147.729 1104.42 Z" fill="#000000" fill-rule="evenodd" fill-opacity="1" /><path clip-path="url(#clip650)" d="M210.964 1056.22 Q204.645 1056.22 201.444 1062.45 Q198.285 1068.65 198.285 1081.13 Q198.285 1093.56 201.444 1099.8 Q204.645 1106 210.964 1106 Q217.324 1106 220.484 1099.8 Q223.684 1093.56 223.684 1081.13 Q223.684 1068.65 220.484 1062.45 Q217.324 1056.22 210.964 1056.22 M210.964 1049.73 Q221.132 1049.73 226.479 1057.79 Q231.867 1065.82 231.867 1081.13 Q231.867 1096.4 226.479 1104.46 Q221.132 1112.48 210.964 1112.48 Q200.796 1112.48 195.408 1104.46 Q190.061 1096.4 190.061 1081.13 Q190.061 1065.82 195.408 1057.79 Q200.796 1049.73 210.964 1049.73 Z" fill="#000000" fill-rule="evenodd" fill-opacity="1" /><path clip-path="url(#clip650)" d="M163.163 753.968 L142.504 786.254 L163.163 786.254 L163.163 753.968 M161.016 746.838 L171.306 746.838 L171.306 786.254 L179.934 786.254 L179.934 793.059 L171.306 793.059 L171.306 807.318 L163.163 807.318 L163.163 793.059 L135.86 793.059 L135.86 785.16 L161.016 746.838 Z" fill="#000000" fill-rule="evenodd" fill-opacity="1" /><path clip-path="url(#clip650)" d="M210.964 752.226 Q204.645 752.226 201.444 758.465 Q198.285 764.662 198.285 777.139 Q198.285 789.576 201.444 795.814 Q204.645 802.012 210.964 802.012 Q217.324 802.012 220.484 795.814 Q223.684 789.576 223.684 777.139 Q223.684 764.662 220.484 758.465 Q217.324 752.226 210.964 752.226 M210.964 745.745 Q221.132 745.745 226.479 753.806 Q231.867 761.827 231.867 777.139 Q231.867 792.411 226.479 800.472 Q221.132 808.493 210.964 808.493 Q200.796 808.493 195.408 800.472 Q190.061 792.411 190.061 777.139 Q190.061 761.827 195.408 753.806 Q200.796 745.745 210.964 745.745 Z" fill="#000000" fill-rule="evenodd" fill-opacity="1" /><path clip-path="url(#clip650)" d="M159.193 469.829 Q153.684 469.829 150.443 473.596 Q147.243 477.363 147.243 483.926 Q147.243 490.448 150.443 494.256 Q153.684 498.023 159.193 498.023 Q164.703 498.023 167.903 494.256 Q171.144 490.448 171.144 483.926 Q171.144 477.363 167.903 473.596 Q164.703 469.829 159.193 469.829 M175.437 444.186 L175.437 451.64 Q172.359 450.182 169.199 449.412 Q166.08 448.642 163.001 448.642 Q154.899 448.642 150.605 454.111 Q146.352 459.58 145.744 470.639 Q148.134 467.114 151.74 465.251 Q155.345 463.347 159.679 463.347 Q168.794 463.347 174.06 468.897 Q179.367 474.406 179.367 483.926 Q179.367 493.243 173.858 498.874 Q168.348 504.504 159.193 504.504 Q148.702 504.504 143.152 496.484 Q137.602 488.422 137.602 473.15 Q137.602 458.81 144.408 450.303 Q151.213 441.756 162.677 441.756 Q165.756 441.756 168.875 442.363 Q172.035 442.971 175.437 444.186 Z" fill="#000000" fill-rule="evenodd" fill-opacity="1" /><path clip-path="url(#clip650)" d="M210.964 448.237 Q204.645 448.237 201.444 454.476 Q198.285 460.674 198.285 473.15 Q198.285 485.587 201.444 491.825 Q204.645 498.023 210.964 498.023 Q217.324 498.023 220.484 491.825 Q223.684 485.587 223.684 473.15 Q223.684 460.674 220.484 454.476 Q217.324 448.237 210.964 448.237 M210.964 441.756 Q221.132 441.756 226.479 449.817 Q231.867 457.838 231.867 473.15 Q231.867 488.422 226.479 496.484 Q221.132 504.504 210.964 504.504 Q200.796 504.504 195.408 496.484 Q190.061 488.422 190.061 473.15 Q190.061 457.838 195.408 449.817 Q200.796 441.756 210.964 441.756 Z" fill="#000000" fill-rule="evenodd" fill-opacity="1" /><path clip-path="url(#clip650)" d="M158.181 170.62 Q152.347 170.62 148.985 173.739 Q145.663 176.858 145.663 182.327 Q145.663 187.796 148.985 190.915 Q152.347 194.034 158.181 194.034 Q164.014 194.034 167.376 190.915 Q170.738 187.755 170.738 182.327 Q170.738 176.858 167.376 173.739 Q164.054 170.62 158.181 170.62 M149.998 167.136 Q144.732 165.84 141.774 162.234 Q138.858 158.629 138.858 153.444 Q138.858 146.193 144.002 141.98 Q149.188 137.767 158.181 137.767 Q167.214 137.767 172.359 141.98 Q177.503 146.193 177.503 153.444 Q177.503 158.629 174.546 162.234 Q171.63 165.84 166.404 167.136 Q172.318 168.513 175.6 172.524 Q178.921 176.534 178.921 182.327 Q178.921 191.117 173.534 195.816 Q168.186 200.515 158.181 200.515 Q148.175 200.515 142.787 195.816 Q137.44 191.117 137.44 182.327 Q137.44 176.534 140.762 172.524 Q144.083 168.513 149.998 167.136 M147 154.214 Q147 158.913 149.917 161.546 Q152.874 164.179 158.181 164.179 Q163.447 164.179 166.404 161.546 Q169.402 158.913 169.402 154.214 Q169.402 149.515 166.404 146.881 Q163.447 144.248 158.181 144.248 Q152.874 144.248 149.917 146.881 Q147 149.515 147 154.214 Z" fill="#000000" fill-rule="evenodd" fill-opacity="1" /><path clip-path="url(#clip650)" d="M210.964 144.248 Q204.645 144.248 201.444 150.487 Q198.285 156.685 198.285 169.161 Q198.285 181.598 201.444 187.836 Q204.645 194.034 210.964 194.034 Q217.324 194.034 220.484 187.836 Q223.684 181.598 223.684 169.161 Q223.684 156.685 220.484 150.487 Q217.324 144.248 210.964 144.248 M210.964 137.767 Q221.132 137.767 226.479 145.828 Q231.867 153.849 231.867 169.161 Q231.867 184.433 226.479 192.495 Q221.132 200.515 210.964 200.515 Q200.796 200.515 195.408 192.495 Q190.061 184.433 190.061 169.161 Q190.061 153.849 195.408 145.828 Q200.796 137.767 210.964 137.767 Z" fill="#000000" fill-rule="evenodd" fill-opacity="1" /><path clip-path="url(#clip650)" d="M30.8974 690.45 Q31.5533 690.45 33.0991 690.872 L69.7318 700.054 Q77.8829 702.068 83.5979 708.626 Q89.313 715.138 89.313 722.539 Q89.313 726.989 86.9239 729.847 Q84.5817 732.704 80.9746 732.704 Q77.7892 732.704 76.2433 731.018 Q74.7443 729.332 74.7443 727.317 Q74.7443 726.661 74.9316 725.959 Q75.119 725.256 75.9154 724.507 Q76.7117 723.757 78.0702 723.757 Q80.2719 723.757 82.0052 725.678 Q82.8016 726.615 82.989 727.505 Q83.1763 728.348 83.1763 729.8 Q84.488 729.238 85.378 728.207 Q86.2681 727.177 86.596 726.006 Q86.9708 724.834 87.0645 724.085 Q87.205 723.289 87.205 722.539 Q87.205 716.543 81.162 711.952 Q79.335 710.594 77.5081 709.61 Q75.728 708.579 73.5263 707.83 Q71.3714 707.08 70.2003 706.752 Q69.0292 706.378 66.359 705.722 Q70.7156 710.078 70.7156 715.419 Q70.7156 717.667 70.1066 719.682 Q69.4976 721.649 68.2328 723.382 Q66.9212 725.116 64.6258 726.146 Q62.3304 727.13 59.2854 727.13 Q56.0531 727.13 51.6497 725.865 Q47.2463 724.6 39.1421 721.555 Q34.5982 719.916 32.3965 719.916 Q31.319 719.916 30.6632 720.15 Q29.9605 720.384 29.7263 720.853 Q29.4452 721.321 29.3984 721.602 Q29.3516 721.836 29.3516 722.305 Q29.3516 725.069 32.1622 727.645 Q34.9729 730.222 41.2502 732.002 Q42.4213 732.376 42.7023 732.611 Q42.9834 732.845 42.9834 733.548 Q42.9366 734.719 41.9997 734.719 Q41.6249 734.719 40.1727 734.297 Q38.6737 733.876 36.472 732.892 Q34.2234 731.861 32.2091 730.456 Q30.1479 729.05 28.6957 726.849 Q27.2435 724.6 27.2435 722.024 Q27.2435 718.51 29.5389 716.356 Q31.7875 714.154 35.1135 714.154 Q36.472 714.154 37.6899 714.529 Q38.8611 714.856 41.9997 716.074 Q54.6478 720.993 60.8313 720.993 Q62.3304 720.993 63.5952 720.759 Q64.8131 720.478 66.0311 719.869 Q67.2022 719.26 67.9049 718.042 Q68.5607 716.777 68.5607 715.044 Q68.5607 712.842 67.5301 710.781 Q66.4527 708.673 65.0005 707.361 Q63.5483 706.003 62.3304 705.206 Q61.0655 704.363 60.4097 704.176 L43.1708 699.866 L35.4882 697.945 Q31.319 697.055 30.2885 696.634 Q29.3047 696.072 28.7894 695.088 Q28.2741 694.104 28.2741 693.261 Q28.2741 692.09 28.9768 691.294 Q29.6795 690.45 30.8974 690.45 Z" fill="#000000" fill-rule="evenodd" fill-opacity="1" /><circle clip-path="url(#clip652)" cx="386.184" cy="1338.06" r="36" fill="#009af9" fill-rule="evenodd" fill-opacity="1" stroke="#000000" stroke-opacity="1" stroke-width="3.2"/>
<circle clip-path="url(#clip652)" cx="551.521" cy="1093.17" r="36" fill="#009af9" fill-rule="evenodd" fill-opacity="1" stroke="#000000" stroke-opacity="1" stroke-width="3.2"/>
<circle clip-path="url(#clip652)" cx="1200.01" cy="890.368" r="36" fill="#009af9" fill-rule="evenodd" fill-opacity="1" stroke="#000000" stroke-opacity="1" stroke-width="3.2"/>
<circle clip-path="url(#clip652)" cx="326.873" cy="1190.93" r="36" fill="#009af9" fill-rule="evenodd" fill-opacity="1" stroke="#000000" stroke-opacity="1" stroke-width="3.2"/>
<circle clip-path="url(#clip652)" cx="1906.2" cy="472.551" r="36" fill="#009af9" fill-rule="evenodd" fill-opacity="1" stroke="#000000" stroke-opacity="1" stroke-width="3.2"/>
<circle clip-path="url(#clip652)" cx="2085.15" cy="618.753" r="36" fill="#009af9" fill-rule="evenodd" fill-opacity="1" stroke="#000000" stroke-opacity="1" stroke-width="3.2"/>
<circle clip-path="url(#clip652)" cx="476.25" cy="1319.38" r="36" fill="#009af9" fill-rule="evenodd" fill-opacity="1" stroke="#000000" stroke-opacity="1" stroke-width="3.2"/>
<circle clip-path="url(#clip652)" cx="2293.75" cy="84.8408" r="36" fill="#009af9" fill-rule="evenodd" fill-opacity="1" stroke="#000000" stroke-opacity="1" stroke-width="3.2"/>
<circle clip-path="url(#clip652)" cx="2168.03" cy="447.653" r="36" fill="#009af9" fill-rule="evenodd" fill-opacity="1" stroke="#000000" stroke-opacity="1" stroke-width="3.2"/>
<circle clip-path="url(#clip652)" cx="1834.23" cy="595.671" r="36" fill="#009af9" fill-rule="evenodd" fill-opacity="1" stroke="#000000" stroke-opacity="1" stroke-width="3.2"/>
<path clip-path="url(#clip650)" d="M337.363 298.885 L754.323 298.885 L754.323 91.5246 L337.363 91.5246  Z" fill="#ffffff" fill-rule="evenodd" fill-opacity="1"/>
<polyline clip-path="url(#clip650)" style="stroke:#000000; stroke-linecap:round; stroke-linejoin:round; stroke-width:4; stroke-opacity:1; fill:none" points="337.363,298.885 754.323,298.885 754.323,91.5246 337.363,91.5246 337.363,298.885 "/>
<circle clip-path="url(#clip650)" cx="430.025" cy="195.205" r="46.08" fill="#009af9" fill-rule="evenodd" fill-opacity="1" stroke="#000000" stroke-opacity="1" stroke-width="4.096"/>
<path clip-path="url(#clip650)" d="M532.038 168.33 L532.038 222.079 L543.334 222.079 Q557.64 222.079 564.26 215.598 Q570.927 209.117 570.927 195.135 Q570.927 181.246 564.26 174.811 Q557.64 168.33 543.334 168.33 L532.038 168.33 M522.686 160.645 L541.899 160.645 Q561.992 160.645 571.39 169.024 Q580.788 177.357 580.788 195.135 Q580.788 213.005 571.344 221.385 Q561.899 229.765 541.899 229.765 L522.686 229.765 L522.686 160.645 Z" fill="#000000" fill-rule="evenodd" fill-opacity="1" /><path clip-path="url(#clip650)" d="M618.89 203.7 Q608.566 203.7 604.584 206.061 Q600.603 208.422 600.603 214.117 Q600.603 218.654 603.566 221.339 Q606.575 223.978 611.714 223.978 Q618.797 223.978 623.056 218.978 Q627.362 213.931 627.362 205.598 L627.362 203.7 L618.89 203.7 M635.88 200.181 L635.88 229.765 L627.362 229.765 L627.362 221.894 Q624.445 226.616 620.093 228.885 Q615.741 231.107 609.445 231.107 Q601.482 231.107 596.76 226.663 Q592.084 222.172 592.084 214.672 Q592.084 205.922 597.917 201.478 Q603.797 197.033 615.417 197.033 L627.362 197.033 L627.362 196.2 Q627.362 190.32 623.473 187.126 Q619.63 183.885 612.64 183.885 Q608.195 183.885 603.982 184.95 Q599.769 186.015 595.88 188.144 L595.88 180.274 Q600.556 178.469 604.954 177.589 Q609.353 176.663 613.519 176.663 Q624.769 176.663 630.325 182.496 Q635.88 188.33 635.88 200.181 Z" fill="#000000" fill-rule="evenodd" fill-opacity="1" /><path clip-path="url(#clip650)" d="M661.852 163.191 L661.852 177.913 L679.399 177.913 L679.399 184.533 L661.852 184.533 L661.852 212.681 Q661.852 219.024 663.565 220.829 Q665.325 222.635 670.649 222.635 L679.399 222.635 L679.399 229.765 L670.649 229.765 Q660.788 229.765 657.038 226.107 Q653.288 222.404 653.288 212.681 L653.288 184.533 L647.038 184.533 L647.038 177.913 L653.288 177.913 L653.288 163.191 L661.852 163.191 Z" fill="#000000" fill-rule="evenodd" fill-opacity="1" /><path clip-path="url(#clip650)" d="M714.167 203.7 Q703.843 203.7 699.861 206.061 Q695.88 208.422 695.88 214.117 Q695.88 218.654 698.843 221.339 Q701.852 223.978 706.991 223.978 Q714.074 223.978 718.333 218.978 Q722.639 213.931 722.639 205.598 L722.639 203.7 L714.167 203.7 M731.157 200.181 L731.157 229.765 L722.639 229.765 L722.639 221.894 Q719.722 226.616 715.371 228.885 Q711.019 231.107 704.722 231.107 Q696.76 231.107 692.037 226.663 Q687.361 222.172 687.361 214.672 Q687.361 205.922 693.195 201.478 Q699.074 197.033 710.695 197.033 L722.639 197.033 L722.639 196.2 Q722.639 190.32 718.75 187.126 Q714.908 183.885 707.917 183.885 Q703.472 183.885 699.26 184.95 Q695.047 186.015 691.158 188.144 L691.158 180.274 Q695.834 178.469 700.232 177.589 Q704.63 176.663 708.797 176.663 Q720.046 176.663 725.602 182.496 Q731.157 188.33 731.157 200.181 Z" fill="#000000" fill-rule="evenodd" fill-opacity="1" /></svg>
