<?xml version="1.0" encoding="utf-8"?>
<svg xmlns="http://www.w3.org/2000/svg" xmlns:xlink="http://www.w3.org/1999/xlink" width="600" height="400" viewBox="0 0 2400 1600">
<defs>
  <clipPath id="clip770">
    <rect x="0" y="0" width="2400" height="1600"/>
  </clipPath>
</defs>
<path clip-path="url(#clip770)" d="M0 1600 L2400 1600 L2400 0 L0 0  Z" fill="#ffffff" fill-rule="evenodd" fill-opacity="1"/>
<defs>
  <clipPath id="clip771">
    <rect x="480" y="0" width="1681" height="1600"/>
  </clipPath>
</defs>
<path clip-path="url(#clip770)" d="M257.69 1423.18 L2352.76 1423.18 L2352.76 47.2441 L257.69 47.2441  Z" fill="#ffffff" fill-rule="evenodd" fill-opacity="1"/>
<defs>
  <clipPath id="clip772">
    <rect x="257" y="47" width="2096" height="1377"/>
  </clipPath>
</defs>
<polyline clip-path="url(#clip770)" style="stroke:#000000; stroke-linecap:round; stroke-linejoin:round; stroke-width:4; stroke-opacity:1; fill:none" points="257.69,1423.18 2352.76,1423.18 "/>
<polyline clip-path="url(#clip770)" style="stroke:#000000; stroke-linecap:round; stroke-linejoin:round; stroke-width:4; stroke-opacity:1; fill:none" points="316.984,1423.18 316.984,1404.28 "/>
<polyline clip-path="url(#clip770)" style="stroke:#000000; stroke-linecap:round; stroke-linejoin:round; stroke-width:4; stroke-opacity:1; fill:none" points="975.81,1423.18 975.81,1404.28 "/>
<polyline clip-path="url(#clip770)" style="stroke:#000000; stroke-linecap:round; stroke-linejoin:round; stroke-width:4; stroke-opacity:1; fill:none" points="1634.64,1423.18 1634.64,1404.28 "/>
<polyline clip-path="url(#clip770)" style="stroke:#000000; stroke-linecap:round; stroke-linejoin:round; stroke-width:4; stroke-opacity:1; fill:none" points="2293.46,1423.18 2293.46,1404.28 "/>
<path clip-path="url(#clip770)" d="M307.366 1481.64 L315.005 1481.64 L315.005 1455.28 L306.695 1456.95 L306.695 1452.69 L314.959 1451.02 L319.635 1451.02 L319.635 1481.64 L327.274 1481.64 L327.274 1485.58 L307.366 1485.58 L307.366 1481.64 Z" fill="#000000" fill-rule="evenodd" fill-opacity="1" /><path clip-path="url(#clip770)" d="M970.463 1481.64 L986.782 1481.64 L986.782 1485.58 L964.838 1485.58 L964.838 1481.64 Q967.5 1478.89 972.083 1474.26 Q976.69 1469.61 977.87 1468.27 Q980.116 1465.74 980.995 1464.01 Q981.898 1462.25 981.898 1460.56 Q981.898 1457.8 979.954 1456.07 Q978.032 1454.33 974.931 1454.33 Q972.731 1454.33 970.278 1455.09 Q967.847 1455.86 965.069 1457.41 L965.069 1452.69 Q967.894 1451.55 970.347 1450.97 Q972.801 1450.39 974.838 1450.39 Q980.208 1450.39 983.403 1453.08 Q986.597 1455.77 986.597 1460.26 Q986.597 1462.39 985.787 1464.31 Q985 1466.2 982.893 1468.8 Q982.315 1469.47 979.213 1472.69 Q976.111 1475.88 970.463 1481.64 Z" fill="#000000" fill-rule="evenodd" fill-opacity="1" /><path clip-path="url(#clip770)" d="M1638.88 1466.95 Q1642.24 1467.66 1644.11 1469.93 Q1646.01 1472.2 1646.01 1475.53 Q1646.01 1480.65 1642.49 1483.45 Q1638.98 1486.25 1632.49 1486.25 Q1630.32 1486.25 1628 1485.81 Q1625.71 1485.39 1623.26 1484.54 L1623.26 1480.02 Q1625.2 1481.16 1627.52 1481.74 Q1629.83 1482.32 1632.36 1482.32 Q1636.75 1482.32 1639.05 1480.58 Q1641.36 1478.84 1641.36 1475.53 Q1641.36 1472.48 1639.21 1470.77 Q1637.08 1469.03 1633.26 1469.03 L1629.23 1469.03 L1629.23 1465.19 L1633.44 1465.19 Q1636.89 1465.19 1638.72 1463.82 Q1640.55 1462.43 1640.55 1459.84 Q1640.55 1457.18 1638.65 1455.77 Q1636.78 1454.33 1633.26 1454.33 Q1631.34 1454.33 1629.14 1454.75 Q1626.94 1455.16 1624.3 1456.04 L1624.3 1451.88 Q1626.96 1451.14 1629.28 1450.77 Q1631.62 1450.39 1633.68 1450.39 Q1639 1450.39 1642.1 1452.83 Q1645.2 1455.23 1645.2 1459.35 Q1645.2 1462.22 1643.56 1464.21 Q1641.92 1466.18 1638.88 1466.95 Z" fill="#000000" fill-rule="evenodd" fill-opacity="1" /><path clip-path="url(#clip770)" d="M2296.47 1455.09 L2284.67 1473.54 L2296.47 1473.54 L2296.47 1455.09 M2295.24 1451.02 L2301.12 1451.02 L2301.12 1473.54 L2306.05 1473.54 L2306.05 1477.43 L2301.12 1477.43 L2301.12 1485.58 L2296.47 1485.58 L2296.47 1477.43 L2280.87 1477.43 L2280.87 1472.92 L2295.24 1451.02 Z" fill="#000000" fill-rule="evenodd" fill-opacity="1" /><path clip-path="url(#clip770)" d="M1252.56 1520.52 L1258.99 1520.52 L1258.99 1562.63 L1282.13 1562.63 L1282.13 1568.04 L1252.56 1568.04 L1252.56 1520.52 Z" fill="#000000" fill-rule="evenodd" fill-opacity="1" /><path clip-path="url(#clip770)" d="M1304.83 1550.12 Q1297.73 1550.12 1294.99 1551.75 Q1292.25 1553.37 1292.25 1557.29 Q1292.25 1560.4 1294.29 1562.25 Q1296.36 1564.07 1299.89 1564.07 Q1304.76 1564.07 1307.69 1560.63 Q1310.65 1557.16 1310.65 1551.43 L1310.65 1550.12 L1304.83 1550.12 M1316.51 1547.71 L1316.51 1568.04 L1310.65 1568.04 L1310.65 1562.63 Q1308.64 1565.88 1305.65 1567.44 Q1302.66 1568.97 1298.33 1568.97 Q1292.86 1568.97 1289.61 1565.91 Q1286.4 1562.82 1286.4 1557.67 Q1286.4 1551.65 1290.41 1548.6 Q1294.45 1545.54 1302.44 1545.54 L1310.65 1545.54 L1310.65 1544.97 Q1310.65 1540.93 1307.98 1538.73 Q1305.33 1536.5 1300.53 1536.5 Q1297.47 1536.5 1294.58 1537.23 Q1291.68 1537.97 1289.01 1539.43 L1289.01 1534.02 Q1292.22 1532.78 1295.24 1532.17 Q1298.27 1531.54 1301.13 1531.54 Q1308.87 1531.54 1312.69 1535.55 Q1316.51 1539.56 1316.51 1547.71 Z" fill="#000000" fill-rule="evenodd" fill-opacity="1" /><path clip-path="url(#clip770)" d="M1352.03 1549.81 Q1352.03 1543.44 1349.39 1539.94 Q1346.78 1536.44 1342.03 1536.44 Q1337.32 1536.44 1334.68 1539.94 Q1332.07 1543.44 1332.07 1549.81 Q1332.07 1556.14 1334.68 1559.64 Q1337.32 1563.14 1342.03 1563.14 Q1346.78 1563.14 1349.39 1559.64 Q1352.03 1556.14 1352.03 1549.81 M1357.88 1563.62 Q1357.88 1572.72 1353.84 1577.15 Q1349.8 1581.6 1341.46 1581.6 Q1338.37 1581.6 1335.64 1581.13 Q1332.9 1580.68 1330.32 1579.72 L1330.32 1574.03 Q1332.9 1575.43 1335.41 1576.1 Q1337.93 1576.76 1340.54 1576.76 Q1346.3 1576.76 1349.16 1573.74 Q1352.03 1570.75 1352.03 1564.67 L1352.03 1561.77 Q1350.21 1564.92 1347.38 1566.48 Q1344.55 1568.04 1340.6 1568.04 Q1334.04 1568.04 1330.03 1563.05 Q1326.02 1558.05 1326.02 1549.81 Q1326.02 1541.53 1330.03 1536.53 Q1334.04 1531.54 1340.6 1531.54 Q1344.55 1531.54 1347.38 1533.1 Q1350.21 1534.66 1352.03 1537.81 L1352.03 1532.4 L1357.88 1532.4 L1357.88 1563.62 Z" fill="#000000" fill-rule="evenodd" fill-opacity="1" /><polyline clip-path="url(#clip770)" style="stroke:#000000; stroke-linecap:round; stroke-linejoin:round; stroke-width:4; stroke-opacity:1; fill:none" points="257.69,1423.18 257.69,47.2441 "/>
<polyline clip-path="url(#clip770)" style="stroke:#000000; stroke-linecap:round; stroke-linejoin:round; stroke-width:4; stroke-opacity:1; fill:none" points="257.69,1125.07 276.588,1125.07 "/>
<polyline clip-path="url(#clip770)" style="stroke:#000000; stroke-linecap:round; stroke-linejoin:round; stroke-width:4; stroke-opacity:1; fill:none" points="257.69,778.772 276.588,778.772 "/>
<polyline clip-path="url(#clip770)" style="stroke:#000000; stroke-linecap:round; stroke-linejoin:round; stroke-width:4; stroke-opacity:1; fill:none" points="257.69,432.479 276.588,432.479 "/>
<polyline clip-path="url(#clip770)" style="stroke:#000000; stroke-linecap:round; stroke-linejoin:round; stroke-width:4; stroke-opacity:1; fill:none" points="257.69,86.1857 276.588,86.1857 "/>
<path clip-path="url(#clip770)" d="M114.584 1125.52 L144.26 1125.52 L144.26 1129.45 L114.584 1129.45 L114.584 1125.52 Z" fill="#000000" fill-rule="evenodd" fill-opacity="1" /><path clip-path="url(#clip770)" d="M164.352 1110.86 Q160.741 1110.86 158.913 1114.43 Q157.107 1117.97 157.107 1125.1 Q157.107 1132.21 158.913 1135.77 Q160.741 1139.31 164.352 1139.31 Q167.987 1139.31 169.792 1135.77 Q171.621 1132.21 171.621 1125.1 Q171.621 1117.97 169.792 1114.43 Q167.987 1110.86 164.352 1110.86 M164.352 1107.16 Q170.163 1107.16 173.218 1111.77 Q176.297 1116.35 176.297 1125.1 Q176.297 1133.83 173.218 1138.43 Q170.163 1143.02 164.352 1143.02 Q158.542 1143.02 155.464 1138.43 Q152.408 1133.83 152.408 1125.1 Q152.408 1116.35 155.464 1111.77 Q158.542 1107.16 164.352 1107.16 Z" fill="#000000" fill-rule="evenodd" fill-opacity="1" /><path clip-path="url(#clip770)" d="M184.514 1136.47 L189.399 1136.47 L189.399 1142.35 L184.514 1142.35 L184.514 1136.47 Z" fill="#000000" fill-rule="evenodd" fill-opacity="1" /><path clip-path="url(#clip770)" d="M210.162 1123.2 Q207.014 1123.2 205.162 1125.35 Q203.334 1127.51 203.334 1131.26 Q203.334 1134.98 205.162 1137.16 Q207.014 1139.31 210.162 1139.31 Q213.311 1139.31 215.139 1137.16 Q216.991 1134.98 216.991 1131.26 Q216.991 1127.51 215.139 1125.35 Q213.311 1123.2 210.162 1123.2 M219.445 1108.55 L219.445 1112.81 Q217.686 1111.98 215.88 1111.54 Q214.098 1111.1 212.338 1111.1 Q207.709 1111.1 205.255 1114.22 Q202.824 1117.35 202.477 1123.66 Q203.843 1121.65 205.903 1120.59 Q207.963 1119.5 210.44 1119.5 Q215.649 1119.5 218.658 1122.67 Q221.69 1125.82 221.69 1131.26 Q221.69 1136.58 218.542 1139.8 Q215.394 1143.02 210.162 1143.02 Q204.167 1143.02 200.996 1138.43 Q197.825 1133.83 197.825 1125.1 Q197.825 1116.91 201.713 1112.04 Q205.602 1107.16 212.153 1107.16 Q213.912 1107.16 215.695 1107.51 Q217.5 1107.85 219.445 1108.55 Z" fill="#000000" fill-rule="evenodd" fill-opacity="1" /><path clip-path="url(#clip770)" d="M114.26 779.224 L143.936 779.224 L143.936 783.159 L114.26 783.159 L114.26 779.224 Z" fill="#000000" fill-rule="evenodd" fill-opacity="1" /><path clip-path="url(#clip770)" d="M164.028 764.571 Q160.417 764.571 158.589 768.136 Q156.783 771.677 156.783 778.807 Q156.783 785.913 158.589 789.478 Q160.417 793.02 164.028 793.02 Q167.663 793.02 169.468 789.478 Q171.297 785.913 171.297 778.807 Q171.297 771.677 169.468 768.136 Q167.663 764.571 164.028 764.571 M164.028 760.867 Q169.839 760.867 172.894 765.474 Q175.973 770.057 175.973 778.807 Q175.973 787.534 172.894 792.14 Q169.839 796.723 164.028 796.723 Q158.218 796.723 155.14 792.14 Q152.084 787.534 152.084 778.807 Q152.084 770.057 155.14 765.474 Q158.218 760.867 164.028 760.867 Z" fill="#000000" fill-rule="evenodd" fill-opacity="1" /><path clip-path="url(#clip770)" d="M184.19 790.173 L189.075 790.173 L189.075 796.052 L184.19 796.052 L184.19 790.173 Z" fill="#000000" fill-rule="evenodd" fill-opacity="1" /><path clip-path="url(#clip770)" d="M212.107 765.566 L200.301 784.015 L212.107 784.015 L212.107 765.566 M210.88 761.492 L216.76 761.492 L216.76 784.015 L221.69 784.015 L221.69 787.904 L216.76 787.904 L216.76 796.052 L212.107 796.052 L212.107 787.904 L196.505 787.904 L196.505 783.39 L210.88 761.492 Z" fill="#000000" fill-rule="evenodd" fill-opacity="1" /><path clip-path="url(#clip770)" d="M116.343 432.93 L146.019 432.93 L146.019 436.865 L116.343 436.865 L116.343 432.93 Z" fill="#000000" fill-rule="evenodd" fill-opacity="1" /><path clip-path="url(#clip770)" d="M166.112 418.278 Q162.501 418.278 160.672 421.842 Q158.866 425.384 158.866 432.514 Q158.866 439.62 160.672 443.185 Q162.501 446.727 166.112 446.727 Q169.746 446.727 171.552 443.185 Q173.38 439.62 173.38 432.514 Q173.38 425.384 171.552 421.842 Q169.746 418.278 166.112 418.278 M166.112 414.574 Q171.922 414.574 174.977 419.18 Q178.056 423.764 178.056 432.514 Q178.056 441.24 174.977 445.847 Q171.922 450.43 166.112 450.43 Q160.302 450.43 157.223 445.847 Q154.167 441.24 154.167 432.514 Q154.167 423.764 157.223 419.18 Q160.302 414.574 166.112 414.574 Z" fill="#000000" fill-rule="evenodd" fill-opacity="1" /><path clip-path="url(#clip770)" d="M186.274 443.879 L191.158 443.879 L191.158 449.759 L186.274 449.759 L186.274 443.879 Z" fill="#000000" fill-rule="evenodd" fill-opacity="1" /><path clip-path="url(#clip770)" d="M205.371 445.824 L221.69 445.824 L221.69 449.759 L199.746 449.759 L199.746 445.824 Q202.408 443.069 206.991 438.44 Q211.598 433.787 212.778 432.444 Q215.024 429.921 215.903 428.185 Q216.806 426.426 216.806 424.736 Q216.806 421.981 214.861 420.245 Q212.94 418.509 209.838 418.509 Q207.639 418.509 205.186 419.273 Q202.755 420.037 199.977 421.588 L199.977 416.866 Q202.801 415.731 205.255 415.153 Q207.709 414.574 209.746 414.574 Q215.116 414.574 218.311 417.259 Q221.505 419.944 221.505 424.435 Q221.505 426.565 220.695 428.486 Q219.908 430.384 217.801 432.977 Q217.223 433.648 214.121 436.865 Q211.019 440.06 205.371 445.824 Z" fill="#000000" fill-rule="evenodd" fill-opacity="1" /><path clip-path="url(#clip770)" d="M164.515 71.9844 Q160.903 71.9844 159.075 75.5492 Q157.269 79.0908 157.269 86.2204 Q157.269 93.3268 159.075 96.8916 Q160.903 100.433 164.515 100.433 Q168.149 100.433 169.954 96.8916 Q171.783 93.3268 171.783 86.2204 Q171.783 79.0908 169.954 75.5492 Q168.149 71.9844 164.515 71.9844 M164.515 68.2807 Q170.325 68.2807 173.38 72.8871 Q176.459 77.4704 176.459 86.2204 Q176.459 94.9472 173.38 99.5537 Q170.325 104.137 164.515 104.137 Q158.704 104.137 155.626 99.5537 Q152.57 94.9472 152.57 86.2204 Q152.57 77.4704 155.626 72.8871 Q158.704 68.2807 164.515 68.2807 Z" fill="#000000" fill-rule="evenodd" fill-opacity="1" /><path clip-path="url(#clip770)" d="M184.676 97.5861 L189.561 97.5861 L189.561 103.466 L184.676 103.466 L184.676 97.5861 Z" fill="#000000" fill-rule="evenodd" fill-opacity="1" /><path clip-path="url(#clip770)" d="M209.746 71.9844 Q206.135 71.9844 204.306 75.5492 Q202.5 79.0908 202.5 86.2204 Q202.5 93.3268 204.306 96.8916 Q206.135 100.433 209.746 100.433 Q213.38 100.433 215.186 96.8916 Q217.014 93.3268 217.014 86.2204 Q217.014 79.0908 215.186 75.5492 Q213.38 71.9844 209.746 71.9844 M209.746 68.2807 Q215.556 68.2807 218.611 72.8871 Q221.69 77.4704 221.69 86.2204 Q221.69 94.9472 218.611 99.5537 Q215.556 104.137 209.746 104.137 Q203.936 104.137 200.857 99.5537 Q197.801 94.9472 197.801 86.2204 Q197.801 77.4704 200.857 72.8871 Q203.936 68.2807 209.746 68.2807 Z" fill="#000000" fill-rule="evenodd" fill-opacity="1" /><path clip-path="url(#clip770)" d="M21.7677 1086.15 L39.6235 1086.15 L39.6235 1078.07 Q39.6235 1073.58 37.3 1071.13 Q34.9765 1068.68 30.6797 1068.68 Q26.4147 1068.68 24.0912 1071.13 Q21.7677 1073.58 21.7677 1078.07 L21.7677 1086.15 M16.4842 1092.58 L16.4842 1078.07 Q16.4842 1070.08 20.1126 1066.01 Q23.7092 1061.9 30.6797 1061.9 Q37.7138 1061.9 41.3104 1066.01 Q44.907 1070.08 44.907 1078.07 L44.907 1086.15 L64.0042 1086.15 L64.0042 1092.58 L16.4842 1092.58 Z" fill="#000000" fill-rule="evenodd" fill-opacity="1" /><path clip-path="url(#clip770)" d="M46.0847 1040.26 Q46.0847 1047.35 47.7079 1050.09 Q49.3312 1052.83 53.2461 1052.83 Q56.3653 1052.83 58.2114 1050.79 Q60.0256 1048.72 60.0256 1045.19 Q60.0256 1040.32 56.5881 1037.39 Q53.1188 1034.43 47.3897 1034.43 L46.0847 1034.43 L46.0847 1040.26 M43.6657 1028.58 L64.0042 1028.58 L64.0042 1034.43 L58.5933 1034.43 Q61.8398 1036.44 63.3994 1039.43 Q64.9272 1042.42 64.9272 1046.75 Q64.9272 1052.22 61.8716 1055.47 Q58.7843 1058.69 53.6281 1058.69 Q47.6125 1058.69 44.5569 1054.67 Q41.5014 1050.63 41.5014 1042.64 L41.5014 1034.43 L40.9285 1034.43 Q36.8862 1034.43 34.6901 1037.11 Q32.4621 1039.75 32.4621 1044.55 Q32.4621 1047.61 33.1941 1050.51 Q33.9262 1053.4 35.3903 1056.08 L29.9795 1056.08 Q28.7381 1052.86 28.1334 1049.84 Q27.4968 1046.81 27.4968 1043.95 Q27.4968 1036.21 31.5072 1032.39 Q35.5176 1028.58 43.6657 1028.58 Z" fill="#000000" fill-rule="evenodd" fill-opacity="1" /><path clip-path="url(#clip770)" d="M33.8307 995.856 Q33.2578 996.843 33.0032 998.02 Q32.7167 999.166 32.7167 1000.57 Q32.7167 1005.53 35.9632 1008.21 Q39.1779 1010.85 45.2253 1010.85 L64.0042 1010.85 L64.0042 1016.74 L28.3562 1016.74 L28.3562 1010.85 L33.8944 1010.85 Q30.6479 1009 29.0883 1006.04 Q27.4968 1003.08 27.4968 998.848 Q27.4968 998.243 27.5923 997.511 Q27.656 996.779 27.8151 995.888 L33.8307 995.856 Z" fill="#000000" fill-rule="evenodd" fill-opacity="1" /><path clip-path="url(#clip770)" d="M18.2347 983.92 L28.3562 983.92 L28.3562 971.857 L32.9077 971.857 L32.9077 983.92 L52.2594 983.92 Q56.6199 983.92 57.8613 982.742 Q59.1026 981.533 59.1026 977.873 L59.1026 971.857 L64.0042 971.857 L64.0042 977.873 Q64.0042 984.652 61.4897 987.23 Q58.9434 989.808 52.2594 989.808 L32.9077 989.808 L32.9077 994.105 L28.3562 994.105 L28.3562 989.808 L18.2347 989.808 L18.2347 983.92 Z" fill="#000000" fill-rule="evenodd" fill-opacity="1" /><path clip-path="url(#clip770)" d="M28.3562 964.155 L28.3562 958.298 L64.0042 958.298 L64.0042 964.155 L28.3562 964.155 M14.479 964.155 L14.479 958.298 L21.895 958.298 L21.895 964.155 L14.479 964.155 Z" fill="#000000" fill-rule="evenodd" fill-opacity="1" /><path clip-path="url(#clip770)" d="M46.0847 929.843 Q46.0847 936.941 47.7079 939.678 Q49.3312 942.416 53.2461 942.416 Q56.3653 942.416 58.2114 940.379 Q60.0256 938.31 60.0256 934.777 Q60.0256 929.907 56.5881 926.979 Q53.1188 924.019 47.3897 924.019 L46.0847 924.019 L46.0847 929.843 M43.6657 918.162 L64.0042 918.162 L64.0042 924.019 L58.5933 924.019 Q61.8398 926.024 63.3994 929.016 Q64.9272 932.008 64.9272 936.336 Q64.9272 941.811 61.8716 945.057 Q58.7843 948.272 53.6281 948.272 Q47.6125 948.272 44.5569 944.262 Q41.5014 940.22 41.5014 932.231 L41.5014 924.019 L40.9285 924.019 Q36.8862 924.019 34.6901 926.692 Q32.4621 929.334 32.4621 934.14 Q32.4621 937.196 33.1941 940.092 Q33.9262 942.989 35.3903 945.662 L29.9795 945.662 Q28.7381 942.448 28.1334 939.424 Q27.4968 936.4 27.4968 933.536 Q27.4968 925.801 31.5072 921.982 Q35.5176 918.162 43.6657 918.162 Z" fill="#000000" fill-rule="evenodd" fill-opacity="1" /><path clip-path="url(#clip770)" d="M14.479 906.099 L14.479 900.243 L64.0042 900.243 L64.0042 906.099 L14.479 906.099 Z" fill="#000000" fill-rule="evenodd" fill-opacity="1" /><path clip-path="url(#clip770)" d="M22.818 851.131 L46.4666 859.853 L46.4666 842.379 L22.818 851.131 M16.4842 854.76 L16.4842 847.471 L64.0042 829.361 L64.0042 836.045 L51.8138 840.373 L51.8138 861.794 L64.0042 866.123 L64.0042 872.902 L16.4842 854.76 Z" fill="#000000" fill-rule="evenodd" fill-opacity="1" /><path clip-path="url(#clip770)" d="M49.9359 823.282 L28.3562 823.282 L28.3562 817.425 L49.7131 817.425 Q54.7739 817.425 57.3202 815.452 Q59.8346 813.478 59.8346 809.532 Q59.8346 804.789 56.8109 802.052 Q53.7872 799.283 48.5673 799.283 L28.3562 799.283 L28.3562 793.426 L64.0042 793.426 L64.0042 799.283 L58.5296 799.283 Q61.7762 801.415 63.3676 804.248 Q64.9272 807.049 64.9272 810.773 Q64.9272 816.916 61.1078 820.099 Q57.2883 823.282 49.9359 823.282 M27.4968 808.545 L27.4968 808.545 Z" fill="#000000" fill-rule="evenodd" fill-opacity="1" /><path clip-path="url(#clip770)" d="M18.2347 775.571 L28.3562 775.571 L28.3562 763.508 L32.9077 763.508 L32.9077 775.571 L52.2594 775.571 Q56.6199 775.571 57.8613 774.393 Q59.1026 773.183 59.1026 769.523 L59.1026 763.508 L64.0042 763.508 L64.0042 769.523 Q64.0042 776.303 61.4897 778.881 Q58.9434 781.459 52.2594 781.459 L32.9077 781.459 L32.9077 785.756 L28.3562 785.756 L28.3562 781.459 L18.2347 781.459 L18.2347 775.571 Z" fill="#000000" fill-rule="evenodd" fill-opacity="1" /><path clip-path="url(#clip770)" d="M32.4621 741.991 Q32.4621 746.702 36.1542 749.439 Q39.8145 752.177 46.212 752.177 Q52.6095 752.177 56.3017 749.471 Q59.9619 746.734 59.9619 741.991 Q59.9619 737.313 56.2698 734.575 Q52.5777 731.838 46.212 731.838 Q39.8781 731.838 36.186 734.575 Q32.4621 737.313 32.4621 741.991 M27.4968 741.991 Q27.4968 734.353 32.4621 729.992 Q37.4273 725.632 46.212 725.632 Q54.9649 725.632 59.9619 729.992 Q64.9272 734.353 64.9272 741.991 Q64.9272 749.662 59.9619 754.023 Q54.9649 758.351 46.212 758.351 Q37.4273 758.351 32.4621 754.023 Q27.4968 749.662 27.4968 741.991 Z" fill="#000000" fill-rule="evenodd" fill-opacity="1" /><path clip-path="url(#clip770)" d="M29.7248 690.27 L35.1993 690.27 Q33.8307 692.753 33.1623 695.267 Q32.4621 697.75 32.4621 700.296 Q32.4621 705.993 36.0905 709.144 Q39.6872 712.295 46.212 712.295 Q52.7369 712.295 56.3653 709.144 Q59.9619 705.993 59.9619 700.296 Q59.9619 697.75 59.2935 695.267 Q58.5933 692.753 57.2247 690.27 L62.6355 690.27 Q63.7814 692.721 64.3543 695.363 Q64.9272 697.973 64.9272 700.933 Q64.9272 708.985 59.8664 713.728 Q54.8057 718.47 46.212 718.47 Q37.491 718.47 32.4939 713.696 Q27.4968 708.89 27.4968 700.551 Q27.4968 697.845 28.0697 695.267 Q28.6108 692.689 29.7248 690.27 Z" fill="#000000" fill-rule="evenodd" fill-opacity="1" /><path clip-path="url(#clip770)" d="M32.4621 666.271 Q32.4621 670.982 36.1542 673.719 Q39.8145 676.456 46.212 676.456 Q52.6095 676.456 56.3017 673.751 Q59.9619 671.014 59.9619 666.271 Q59.9619 661.593 56.2698 658.855 Q52.5777 656.118 46.212 656.118 Q39.8781 656.118 36.186 658.855 Q32.4621 661.593 32.4621 666.271 M27.4968 666.271 Q27.4968 658.633 32.4621 654.272 Q37.4273 649.911 46.212 649.911 Q54.9649 649.911 59.9619 654.272 Q64.9272 658.633 64.9272 666.271 Q64.9272 673.942 59.9619 678.303 Q54.9649 682.631 46.212 682.631 Q37.4273 682.631 32.4621 678.303 Q27.4968 673.942 27.4968 666.271 Z" fill="#000000" fill-rule="evenodd" fill-opacity="1" /><path clip-path="url(#clip770)" d="M33.8307 619.547 Q33.2578 620.534 33.0032 621.711 Q32.7167 622.857 32.7167 624.258 Q32.7167 629.223 35.9632 631.897 Q39.1779 634.538 45.2253 634.538 L64.0042 634.538 L64.0042 640.427 L28.3562 640.427 L28.3562 634.538 L33.8944 634.538 Q30.6479 632.692 29.0883 629.732 Q27.4968 626.772 27.4968 622.539 Q27.4968 621.934 27.5923 621.202 Q27.656 620.47 27.8151 619.579 L33.8307 619.547 Z" fill="#000000" fill-rule="evenodd" fill-opacity="1" /><path clip-path="url(#clip770)" d="M33.8307 593.893 Q33.2578 594.88 33.0032 596.058 Q32.7167 597.203 32.7167 598.604 Q32.7167 603.569 35.9632 606.243 Q39.1779 608.885 45.2253 608.885 L64.0042 608.885 L64.0042 614.773 L28.3562 614.773 L28.3562 608.885 L33.8944 608.885 Q30.6479 607.038 29.0883 604.078 Q27.4968 601.118 27.4968 596.885 Q27.4968 596.28 27.5923 595.548 Q27.656 594.816 27.8151 593.925 L33.8307 593.893 Z" fill="#000000" fill-rule="evenodd" fill-opacity="1" /><path clip-path="url(#clip770)" d="M44.7161 558.691 L47.5806 558.691 L47.5806 585.618 Q53.6281 585.236 56.8109 581.989 Q59.9619 578.711 59.9619 572.886 Q59.9619 569.513 59.1344 566.362 Q58.3069 563.179 56.6518 560.06 L62.1899 560.06 Q63.5267 563.211 64.227 566.521 Q64.9272 569.831 64.9272 573.237 Q64.9272 581.767 59.9619 586.764 Q54.9967 591.729 46.5303 591.729 Q37.7774 591.729 32.6531 587.018 Q27.4968 582.276 27.4968 574.255 Q27.4968 567.062 32.1438 562.892 Q36.7589 558.691 44.7161 558.691 M42.9973 564.547 Q38.1912 564.611 35.3266 567.253 Q32.4621 569.863 32.4621 574.191 Q32.4621 579.093 35.2312 582.053 Q38.0002 584.981 43.0292 585.427 L42.9973 564.547 Z" fill="#000000" fill-rule="evenodd" fill-opacity="1" /><path clip-path="url(#clip770)" d="M14.479 549.079 L14.479 543.222 L64.0042 543.222 L64.0042 549.079 L14.479 549.079 Z" fill="#000000" fill-rule="evenodd" fill-opacity="1" /><path clip-path="url(#clip770)" d="M46.0847 514.768 Q46.0847 521.865 47.7079 524.603 Q49.3312 527.34 53.2461 527.34 Q56.3653 527.34 58.2114 525.303 Q60.0256 523.234 60.0256 519.701 Q60.0256 514.831 56.5881 511.903 Q53.1188 508.943 47.3897 508.943 L46.0847 508.943 L46.0847 514.768 M43.6657 503.086 L64.0042 503.086 L64.0042 508.943 L58.5933 508.943 Q61.8398 510.948 63.3994 513.94 Q64.9272 516.932 64.9272 521.261 Q64.9272 526.735 61.8716 529.982 Q58.7843 533.196 53.6281 533.196 Q47.6125 533.196 44.5569 529.186 Q41.5014 525.144 41.5014 517.155 L41.5014 508.943 L40.9285 508.943 Q36.8862 508.943 34.6901 511.617 Q32.4621 514.258 32.4621 519.064 Q32.4621 522.12 33.1941 525.016 Q33.9262 527.913 35.3903 530.586 L29.9795 530.586 Q28.7381 527.372 28.1334 524.348 Q27.4968 521.324 27.4968 518.46 Q27.4968 510.725 31.5072 506.906 Q35.5176 503.086 43.6657 503.086 Z" fill="#000000" fill-rule="evenodd" fill-opacity="1" /><path clip-path="url(#clip770)" d="M18.2347 485.231 L28.3562 485.231 L28.3562 473.168 L32.9077 473.168 L32.9077 485.231 L52.2594 485.231 Q56.6199 485.231 57.8613 484.053 Q59.1026 482.844 59.1026 479.183 L59.1026 473.168 L64.0042 473.168 L64.0042 479.183 Q64.0042 485.963 61.4897 488.541 Q58.9434 491.119 52.2594 491.119 L32.9077 491.119 L32.9077 495.416 L28.3562 495.416 L28.3562 491.119 L18.2347 491.119 L18.2347 485.231 Z" fill="#000000" fill-rule="evenodd" fill-opacity="1" /><path clip-path="url(#clip770)" d="M28.3562 465.465 L28.3562 459.609 L64.0042 459.609 L64.0042 465.465 L28.3562 465.465 M14.479 465.465 L14.479 459.609 L21.895 459.609 L21.895 465.465 L14.479 465.465 Z" fill="#000000" fill-rule="evenodd" fill-opacity="1" /><path clip-path="url(#clip770)" d="M32.4621 433.541 Q32.4621 438.252 36.1542 440.989 Q39.8145 443.726 46.212 443.726 Q52.6095 443.726 56.3017 441.021 Q59.9619 438.284 59.9619 433.541 Q59.9619 428.862 56.2698 426.125 Q52.5777 423.388 46.212 423.388 Q39.8781 423.388 36.186 426.125 Q32.4621 428.862 32.4621 433.541 M27.4968 433.541 Q27.4968 425.902 32.4621 421.542 Q37.4273 417.181 46.212 417.181 Q54.9649 417.181 59.9619 421.542 Q64.9272 425.902 64.9272 433.541 Q64.9272 441.212 59.9619 445.572 Q54.9649 449.901 46.212 449.901 Q37.4273 449.901 32.4621 445.572 Q27.4968 441.212 27.4968 433.541 Z" fill="#000000" fill-rule="evenodd" fill-opacity="1" /><path clip-path="url(#clip770)" d="M42.4881 377.841 L64.0042 377.841 L64.0042 383.698 L42.679 383.698 Q37.6183 383.698 35.1038 385.671 Q32.5894 387.644 32.5894 391.591 Q32.5894 396.334 35.6131 399.071 Q38.6368 401.808 43.8567 401.808 L64.0042 401.808 L64.0042 407.696 L28.3562 407.696 L28.3562 401.808 L33.8944 401.808 Q30.6797 399.707 29.0883 396.875 Q27.4968 394.01 27.4968 390.286 Q27.4968 384.143 31.3163 380.992 Q35.1038 377.841 42.4881 377.841 Z" fill="#000000" fill-rule="evenodd" fill-opacity="1" /><circle clip-path="url(#clip772)" cx="316.984" cy="474.059" r="14.4" fill="#009af9" fill-rule="evenodd" fill-opacity="1" stroke="#000000" stroke-opacity="1" stroke-width="3.2"/>
<circle clip-path="url(#clip772)" cx="975.81" cy="1122.37" r="14.4" fill="#009af9" fill-rule="evenodd" fill-opacity="1" stroke="#000000" stroke-opacity="1" stroke-width="3.2"/>
<circle clip-path="url(#clip772)" cx="1634.64" cy="429.964" r="14.4" fill="#009af9" fill-rule="evenodd" fill-opacity="1" stroke="#000000" stroke-opacity="1" stroke-width="3.2"/>
<circle clip-path="url(#clip772)" cx="2293.46" cy="1384.24" r="14.4" fill="#009af9" fill-rule="evenodd" fill-opacity="1" stroke="#000000" stroke-opacity="1" stroke-width="3.2"/>
<polyline clip-path="url(#clip772)" style="stroke:#009af9; stroke-linecap:round; stroke-linejoin:round; stroke-width:8; stroke-opacity:1; fill:none" points="316.984,86.1857 316.984,474.059 "/>
<polyline clip-path="url(#clip772)" style="stroke:#009af9; stroke-linecap:round; stroke-linejoin:round; stroke-width:8; stroke-opacity:1; fill:none" points="975.81,86.1857 975.81,1122.37 "/>
<polyline clip-path="url(#clip772)" style="stroke:#009af9; stroke-linecap:round; stroke-linejoin:round; stroke-width:8; stroke-opacity:1; fill:none" points="1634.64,86.1857 1634.64,429.964 "/>
<polyline clip-path="url(#clip772)" style="stroke:#009af9; stroke-linecap:round; stroke-linejoin:round; stroke-width:8; stroke-opacity:1; fill:none" points="2293.46,86.1857 2293.46,1384.24 "/>
<polyline clip-path="url(#clip772)" style="stroke:#ff0000; stroke-linecap:round; stroke-linejoin:round; stroke-width:4; stroke-opacity:1; fill:none" stroke-dasharray="2, 4" points="-1837.38,86.1857 4447.82,86.1857 "/>
</svg>
