<?xml version="1.0" encoding="utf-8"?>
<svg xmlns="http://www.w3.org/2000/svg" xmlns:xlink="http://www.w3.org/1999/xlink" width="672" height="480" viewBox="0 0 2688 1920">
<defs>
  <clipPath id="clip520">
    <rect x="0" y="0" width="2688" height="1920"/>
  </clipPath>
</defs>
<path clip-path="url(#clip520)" d="M0 1920 L2688 1920 L2688 0 L0 0  Z" fill="#ffffff" fill-rule="evenodd" fill-opacity="1"/>
<defs>
  <clipPath id="clip521">
    <rect x="537" y="0" width="1883" height="1883"/>
  </clipPath>
</defs>
<defs>
  <clipPath id="clip522">
    <rect x="241" y="127" width="2400" height="1607"/>
  </clipPath>
</defs>
<path clip-path="url(#clip520)" d="M241.557 1734.12 L2640.76 1734.12 L2640.76 127.792 L241.557 127.792  Z" fill="#ffffff" fill-rule="evenodd" fill-opacity="1"/>
<polyline clip-path="url(#clip522)" style="stroke:#000000; stroke-linecap:round; stroke-linejoin:round; stroke-width:2; stroke-opacity:0.1; fill:none" points="71.4165,1734.12 71.4165,127.792 "/>
<polyline clip-path="url(#clip522)" style="stroke:#000000; stroke-linecap:round; stroke-linejoin:round; stroke-width:2; stroke-opacity:0.1; fill:none" points="497.829,1734.12 497.829,127.792 "/>
<polyline clip-path="url(#clip522)" style="stroke:#000000; stroke-linecap:round; stroke-linejoin:round; stroke-width:2; stroke-opacity:0.1; fill:none" points="1061.52,1734.12 1061.52,127.792 "/>
<polyline clip-path="url(#clip522)" style="stroke:#000000; stroke-linecap:round; stroke-linejoin:round; stroke-width:2; stroke-opacity:0.1; fill:none" points="1487.93,1734.12 1487.93,127.792 "/>
<polyline clip-path="url(#clip522)" style="stroke:#000000; stroke-linecap:round; stroke-linejoin:round; stroke-width:2; stroke-opacity:0.1; fill:none" points="1914.34,1734.12 1914.34,127.792 "/>
<polyline clip-path="url(#clip522)" style="stroke:#000000; stroke-linecap:round; stroke-linejoin:round; stroke-width:2; stroke-opacity:0.1; fill:none" points="2478.03,1734.12 2478.03,127.792 "/>
<polyline clip-path="url(#clip522)" style="stroke:#000000; stroke-linecap:round; stroke-linejoin:round; stroke-width:2; stroke-opacity:0.1; fill:none" points="2904.44,1734.12 2904.44,127.792 "/>
<polyline clip-path="url(#clip520)" style="stroke:#000000; stroke-linecap:round; stroke-linejoin:round; stroke-width:4; stroke-opacity:1; fill:none" points="241.557,1734.12 2640.76,1734.12 "/>
<polyline clip-path="url(#clip520)" style="stroke:#000000; stroke-linecap:round; stroke-linejoin:round; stroke-width:4; stroke-opacity:1; fill:none" points="71.4165,1734.12 71.4165,1715.22 "/>
<polyline clip-path="url(#clip520)" style="stroke:#000000; stroke-linecap:round; stroke-linejoin:round; stroke-width:4; stroke-opacity:1; fill:none" points="497.829,1734.12 497.829,1715.22 "/>
<polyline clip-path="url(#clip520)" style="stroke:#000000; stroke-linecap:round; stroke-linejoin:round; stroke-width:4; stroke-opacity:1; fill:none" points="1061.52,1734.12 1061.52,1715.22 "/>
<polyline clip-path="url(#clip520)" style="stroke:#000000; stroke-linecap:round; stroke-linejoin:round; stroke-width:4; stroke-opacity:1; fill:none" points="1487.93,1734.12 1487.93,1715.22 "/>
<polyline clip-path="url(#clip520)" style="stroke:#000000; stroke-linecap:round; stroke-linejoin:round; stroke-width:4; stroke-opacity:1; fill:none" points="1914.34,1734.12 1914.34,1715.22 "/>
<polyline clip-path="url(#clip520)" style="stroke:#000000; stroke-linecap:round; stroke-linejoin:round; stroke-width:4; stroke-opacity:1; fill:none" points="2478.03,1734.12 2478.03,1715.22 "/>
<polyline clip-path="url(#clip520)" style="stroke:#000000; stroke-linecap:round; stroke-linejoin:round; stroke-width:4; stroke-opacity:1; fill:none" points="2904.44,1734.12 2904.44,1715.22 "/>
<path clip-path="url(#clip520)" d="M61.7985 1794.89 L69.4373 1794.89 L69.4373 1768.52 L61.1272 1770.19 L61.1272 1765.93 L69.391 1764.26 L74.0669 1764.26 L74.0669 1794.89 L81.7058 1794.89 L81.7058 1798.82 L61.7985 1798.82 L61.7985 1794.89 Z" fill="#000000" fill-rule="evenodd" fill-opacity="1" /><path clip-path="url(#clip520)" d="M492.482 1794.89 L508.802 1794.89 L508.802 1798.82 L486.857 1798.82 L486.857 1794.89 Q489.519 1792.13 494.103 1787.5 Q498.709 1782.85 499.89 1781.51 Q502.135 1778.98 503.015 1777.25 Q503.917 1775.49 503.917 1773.8 Q503.917 1771.04 501.973 1769.31 Q500.052 1767.57 496.95 1767.57 Q494.751 1767.57 492.297 1768.34 Q489.866 1769.1 487.089 1770.65 L487.089 1765.93 Q489.913 1764.79 492.366 1764.21 Q494.82 1763.64 496.857 1763.64 Q502.228 1763.64 505.422 1766.32 Q508.616 1769.01 508.616 1773.5 Q508.616 1775.63 507.806 1777.55 Q507.019 1779.45 504.913 1782.04 Q504.334 1782.71 501.232 1785.93 Q498.13 1789.12 492.482 1794.89 Z" fill="#000000" fill-rule="evenodd" fill-opacity="1" /><path clip-path="url(#clip520)" d="M1051.79 1764.26 L1070.15 1764.26 L1070.15 1768.2 L1056.08 1768.2 L1056.08 1776.67 Q1057.1 1776.32 1058.11 1776.16 Q1059.13 1775.97 1060.15 1775.97 Q1065.94 1775.97 1069.32 1779.15 Q1072.7 1782.32 1072.7 1787.73 Q1072.7 1793.31 1069.22 1796.41 Q1065.75 1799.49 1059.43 1799.49 Q1057.26 1799.49 1054.99 1799.12 Q1052.74 1798.75 1050.34 1798.01 L1050.34 1793.31 Q1052.42 1794.45 1054.64 1795 Q1056.86 1795.56 1059.34 1795.56 Q1063.35 1795.56 1065.68 1793.45 Q1068.02 1791.34 1068.02 1787.73 Q1068.02 1784.12 1065.68 1782.02 Q1063.35 1779.91 1059.34 1779.91 Q1057.47 1779.91 1055.59 1780.33 Q1053.74 1780.74 1051.79 1781.62 L1051.79 1764.26 Z" fill="#000000" fill-rule="evenodd" fill-opacity="1" /><path clip-path="url(#clip520)" d="M1462.62 1794.89 L1470.26 1794.89 L1470.26 1768.52 L1461.95 1770.19 L1461.95 1765.93 L1470.21 1764.26 L1474.89 1764.26 L1474.89 1794.89 L1482.52 1794.89 L1482.52 1798.82 L1462.62 1798.82 L1462.62 1794.89 Z" fill="#000000" fill-rule="evenodd" fill-opacity="1" /><path clip-path="url(#clip520)" d="M1501.97 1767.34 Q1498.36 1767.34 1496.53 1770.9 Q1494.72 1774.45 1494.72 1781.58 Q1494.72 1788.68 1496.53 1792.25 Q1498.36 1795.79 1501.97 1795.79 Q1505.6 1795.79 1507.41 1792.25 Q1509.24 1788.68 1509.24 1781.58 Q1509.24 1774.45 1507.41 1770.9 Q1505.6 1767.34 1501.97 1767.34 M1501.97 1763.64 Q1507.78 1763.64 1510.83 1768.24 Q1513.91 1772.83 1513.91 1781.58 Q1513.91 1790.3 1510.83 1794.91 Q1507.78 1799.49 1501.97 1799.49 Q1496.16 1799.49 1493.08 1794.91 Q1490.02 1790.3 1490.02 1781.58 Q1490.02 1772.83 1493.08 1768.24 Q1496.16 1763.64 1501.97 1763.64 Z" fill="#000000" fill-rule="evenodd" fill-opacity="1" /><path clip-path="url(#clip520)" d="M1893.12 1794.89 L1909.44 1794.89 L1909.44 1798.82 L1887.49 1798.82 L1887.49 1794.89 Q1890.15 1792.13 1894.74 1787.5 Q1899.34 1782.85 1900.52 1781.51 Q1902.77 1778.98 1903.65 1777.25 Q1904.55 1775.49 1904.55 1773.8 Q1904.55 1771.04 1902.61 1769.31 Q1900.69 1767.57 1897.58 1767.57 Q1895.38 1767.57 1892.93 1768.34 Q1890.5 1769.1 1887.72 1770.65 L1887.72 1765.93 Q1890.55 1764.79 1893 1764.21 Q1895.45 1763.64 1897.49 1763.64 Q1902.86 1763.64 1906.06 1766.32 Q1909.25 1769.01 1909.25 1773.5 Q1909.25 1775.63 1908.44 1777.55 Q1907.65 1779.45 1905.55 1782.04 Q1904.97 1782.71 1901.87 1785.93 Q1898.76 1789.12 1893.12 1794.89 Z" fill="#000000" fill-rule="evenodd" fill-opacity="1" /><path clip-path="url(#clip520)" d="M1929.25 1767.34 Q1925.64 1767.34 1923.81 1770.9 Q1922 1774.45 1922 1781.58 Q1922 1788.68 1923.81 1792.25 Q1925.64 1795.79 1929.25 1795.79 Q1932.88 1795.79 1934.69 1792.25 Q1936.52 1788.68 1936.52 1781.58 Q1936.52 1774.45 1934.69 1770.9 Q1932.88 1767.34 1929.25 1767.34 M1929.25 1763.64 Q1935.06 1763.64 1938.12 1768.24 Q1941.19 1772.83 1941.19 1781.58 Q1941.19 1790.3 1938.12 1794.91 Q1935.06 1799.49 1929.25 1799.49 Q1923.44 1799.49 1920.36 1794.91 Q1917.31 1790.3 1917.31 1781.58 Q1917.31 1772.83 1920.36 1768.24 Q1923.44 1763.64 1929.25 1763.64 Z" fill="#000000" fill-rule="evenodd" fill-opacity="1" /><path clip-path="url(#clip520)" d="M2452.73 1764.26 L2471.09 1764.26 L2471.09 1768.2 L2457.01 1768.2 L2457.01 1776.67 Q2458.03 1776.32 2459.05 1776.16 Q2460.07 1775.97 2461.09 1775.97 Q2466.87 1775.97 2470.25 1779.15 Q2473.63 1782.32 2473.63 1787.73 Q2473.63 1793.31 2470.16 1796.41 Q2466.69 1799.49 2460.37 1799.49 Q2458.19 1799.49 2455.92 1799.12 Q2453.68 1798.75 2451.27 1798.01 L2451.27 1793.31 Q2453.35 1794.45 2455.58 1795 Q2457.8 1795.56 2460.28 1795.56 Q2464.28 1795.56 2466.62 1793.45 Q2468.96 1791.34 2468.96 1787.73 Q2468.96 1784.12 2466.62 1782.02 Q2464.28 1779.91 2460.28 1779.91 Q2458.4 1779.91 2456.53 1780.33 Q2454.67 1780.74 2452.73 1781.62 L2452.73 1764.26 Z" fill="#000000" fill-rule="evenodd" fill-opacity="1" /><path clip-path="url(#clip520)" d="M2492.84 1767.34 Q2489.23 1767.34 2487.4 1770.9 Q2485.6 1774.45 2485.6 1781.58 Q2485.6 1788.68 2487.4 1792.25 Q2489.23 1795.79 2492.84 1795.79 Q2496.48 1795.79 2498.28 1792.25 Q2500.11 1788.68 2500.11 1781.58 Q2500.11 1774.45 2498.28 1770.9 Q2496.48 1767.34 2492.84 1767.34 M2492.84 1763.64 Q2498.65 1763.64 2501.71 1768.24 Q2504.79 1772.83 2504.79 1781.58 Q2504.79 1790.3 2501.71 1794.91 Q2498.65 1799.49 2492.84 1799.49 Q2487.03 1799.49 2483.96 1794.91 Q2480.9 1790.3 2480.9 1781.58 Q2480.9 1772.83 2483.96 1768.24 Q2487.03 1763.64 2492.84 1763.64 Z" fill="#000000" fill-rule="evenodd" fill-opacity="1" /><path clip-path="url(#clip520)" d="M2864.05 1794.89 L2871.69 1794.89 L2871.69 1768.52 L2863.38 1770.19 L2863.38 1765.93 L2871.64 1764.26 L2876.32 1764.26 L2876.32 1794.89 L2883.96 1794.89 L2883.96 1798.82 L2864.05 1798.82 L2864.05 1794.89 Z" fill="#000000" fill-rule="evenodd" fill-opacity="1" /><path clip-path="url(#clip520)" d="M2903.4 1767.34 Q2899.79 1767.34 2897.96 1770.9 Q2896.16 1774.45 2896.16 1781.58 Q2896.16 1788.68 2897.96 1792.25 Q2899.79 1795.79 2903.4 1795.79 Q2907.04 1795.79 2908.84 1792.25 Q2910.67 1788.68 2910.67 1781.58 Q2910.67 1774.45 2908.84 1770.9 Q2907.04 1767.34 2903.4 1767.34 M2903.4 1763.64 Q2909.21 1763.64 2912.27 1768.24 Q2915.35 1772.83 2915.35 1781.58 Q2915.35 1790.3 2912.27 1794.91 Q2909.21 1799.49 2903.4 1799.49 Q2897.59 1799.49 2894.51 1794.91 Q2891.46 1790.3 2891.46 1781.58 Q2891.46 1772.83 2894.51 1768.24 Q2897.59 1763.64 2903.4 1763.64 Z" fill="#000000" fill-rule="evenodd" fill-opacity="1" /><path clip-path="url(#clip520)" d="M2933.56 1767.34 Q2929.95 1767.34 2928.12 1770.9 Q2926.32 1774.45 2926.32 1781.58 Q2926.32 1788.68 2928.12 1792.25 Q2929.95 1795.79 2933.56 1795.79 Q2937.2 1795.79 2939 1792.25 Q2940.83 1788.68 2940.83 1781.58 Q2940.83 1774.45 2939 1770.9 Q2937.2 1767.34 2933.56 1767.34 M2933.56 1763.64 Q2939.37 1763.64 2942.43 1768.24 Q2945.51 1772.83 2945.51 1781.58 Q2945.51 1790.3 2942.43 1794.91 Q2939.37 1799.49 2933.56 1799.49 Q2927.75 1799.49 2924.67 1794.91 Q2921.62 1790.3 2921.62 1781.58 Q2921.62 1772.83 2924.67 1768.24 Q2927.75 1763.64 2933.56 1763.64 Z" fill="#000000" fill-rule="evenodd" fill-opacity="1" /><path clip-path="url(#clip520)" d="M1167.89 1830.05 L1167.89 1867 L1175.66 1867 Q1185.49 1867 1190.04 1862.55 Q1194.62 1858.09 1194.62 1848.48 Q1194.62 1838.93 1190.04 1834.5 Q1185.49 1830.05 1175.66 1830.05 L1167.89 1830.05 M1161.46 1824.76 L1174.67 1824.76 Q1188.48 1824.76 1194.94 1830.53 Q1201.4 1836.26 1201.4 1848.48 Q1201.4 1860.76 1194.91 1866.52 Q1188.42 1872.28 1174.67 1872.28 L1161.46 1872.28 L1161.46 1824.76 Z" fill="#000000" fill-rule="evenodd" fill-opacity="1" /><path clip-path="url(#clip520)" d="M1211.4 1836.64 L1217.25 1836.64 L1217.25 1872.28 L1211.4 1872.28 L1211.4 1836.64 M1211.4 1822.76 L1217.25 1822.76 L1217.25 1830.18 L1211.4 1830.18 L1211.4 1822.76 Z" fill="#000000" fill-rule="evenodd" fill-opacity="1" /><path clip-path="url(#clip520)" d="M1252.23 1837.69 L1252.23 1843.23 Q1249.75 1841.95 1247.08 1841.32 Q1244.4 1840.68 1241.54 1840.68 Q1237.18 1840.68 1234.98 1842.02 Q1232.82 1843.35 1232.82 1846.03 Q1232.82 1848.06 1234.38 1849.24 Q1235.94 1850.39 1240.65 1851.44 L1242.65 1851.88 Q1248.89 1853.22 1251.5 1855.67 Q1254.14 1858.09 1254.14 1862.45 Q1254.14 1867.42 1250.2 1870.31 Q1246.28 1873.21 1239.41 1873.21 Q1236.54 1873.21 1233.42 1872.64 Q1230.34 1872.09 1226.9 1870.98 L1226.9 1864.93 Q1230.15 1866.62 1233.3 1867.48 Q1236.45 1868.31 1239.53 1868.31 Q1243.67 1868.31 1245.9 1866.91 Q1248.13 1865.47 1248.13 1862.9 Q1248.13 1860.51 1246.51 1859.24 Q1244.91 1857.96 1239.47 1856.78 L1237.43 1856.31 Q1231.99 1855.16 1229.57 1852.81 Q1227.15 1850.42 1227.15 1846.28 Q1227.15 1841.25 1230.72 1838.51 Q1234.28 1835.78 1240.84 1835.78 Q1244.09 1835.78 1246.95 1836.26 Q1249.82 1836.73 1252.23 1837.69 Z" fill="#000000" fill-rule="evenodd" fill-opacity="1" /><path clip-path="url(#clip520)" d="M1289.12 1838.01 L1289.12 1843.48 Q1286.64 1842.11 1284.13 1841.44 Q1281.64 1840.74 1279.1 1840.74 Q1273.4 1840.74 1270.25 1844.37 Q1267.1 1847.97 1267.1 1854.49 Q1267.1 1861.02 1270.25 1864.65 Q1273.4 1868.24 1279.1 1868.24 Q1281.64 1868.24 1284.13 1867.57 Q1286.64 1866.87 1289.12 1865.51 L1289.12 1870.92 Q1286.67 1872.06 1284.03 1872.64 Q1281.42 1873.21 1278.46 1873.21 Q1270.41 1873.21 1265.67 1868.15 Q1260.92 1863.09 1260.92 1854.49 Q1260.92 1845.77 1265.7 1840.77 Q1270.5 1835.78 1278.84 1835.78 Q1281.55 1835.78 1284.13 1836.35 Q1286.7 1836.89 1289.12 1838.01 Z" fill="#000000" fill-rule="evenodd" fill-opacity="1" /><path clip-path="url(#clip520)" d="M1328.94 1850.77 L1328.94 1872.28 L1323.08 1872.28 L1323.08 1850.96 Q1323.08 1845.9 1321.11 1843.38 Q1319.14 1840.87 1315.19 1840.87 Q1310.45 1840.87 1307.71 1843.89 Q1304.97 1846.92 1304.97 1852.14 L1304.97 1872.28 L1299.09 1872.28 L1299.09 1822.76 L1304.97 1822.76 L1304.97 1842.18 Q1307.08 1838.96 1309.91 1837.37 Q1312.77 1835.78 1316.5 1835.78 Q1322.64 1835.78 1325.79 1839.6 Q1328.94 1843.38 1328.94 1850.77 Z" fill="#000000" fill-rule="evenodd" fill-opacity="1" /><path clip-path="url(#clip520)" d="M1356.82 1854.37 Q1349.73 1854.37 1346.99 1855.99 Q1344.25 1857.61 1344.25 1861.53 Q1344.25 1864.65 1346.29 1866.49 Q1348.36 1868.31 1351.89 1868.31 Q1356.76 1868.31 1359.69 1864.87 Q1362.65 1861.4 1362.65 1855.67 L1362.65 1854.37 L1356.82 1854.37 M1368.5 1851.95 L1368.5 1872.28 L1362.65 1872.28 L1362.65 1866.87 Q1360.64 1870.12 1357.65 1871.68 Q1354.66 1873.21 1350.33 1873.21 Q1344.86 1873.21 1341.61 1870.15 Q1338.39 1867.07 1338.39 1861.91 Q1338.39 1855.89 1342.4 1852.84 Q1346.45 1849.78 1354.44 1849.78 L1362.65 1849.78 L1362.65 1849.21 Q1362.65 1845.17 1359.97 1842.97 Q1357.33 1840.74 1352.53 1840.74 Q1349.47 1840.74 1346.57 1841.47 Q1343.68 1842.21 1341 1843.67 L1341 1838.26 Q1344.22 1837.02 1347.24 1836.41 Q1350.27 1835.78 1353.13 1835.78 Q1360.87 1835.78 1364.68 1839.79 Q1368.5 1843.8 1368.5 1851.95 Z" fill="#000000" fill-rule="evenodd" fill-opacity="1" /><path clip-path="url(#clip520)" d="M1401.22 1842.11 Q1400.24 1841.54 1399.06 1841.28 Q1397.91 1841 1396.51 1841 Q1391.55 1841 1388.87 1844.24 Q1386.23 1847.46 1386.23 1853.51 L1386.23 1872.28 L1380.34 1872.28 L1380.34 1836.64 L1386.23 1836.64 L1386.23 1842.18 Q1388.08 1838.93 1391.04 1837.37 Q1394 1835.78 1398.23 1835.78 Q1398.84 1835.78 1399.57 1835.87 Q1400.3 1835.94 1401.19 1836.1 L1401.22 1842.11 Z" fill="#000000" fill-rule="evenodd" fill-opacity="1" /><path clip-path="url(#clip520)" d="M1429.68 1854.05 Q1429.68 1847.68 1427.04 1844.18 Q1424.43 1840.68 1419.68 1840.68 Q1414.97 1840.68 1412.33 1844.18 Q1409.72 1847.68 1409.72 1854.05 Q1409.72 1860.38 1412.33 1863.88 Q1414.97 1867.38 1419.68 1867.38 Q1424.43 1867.38 1427.04 1863.88 Q1429.68 1860.38 1429.68 1854.05 M1435.54 1867.86 Q1435.54 1876.96 1431.49 1881.39 Q1427.45 1885.84 1419.11 1885.84 Q1416.02 1885.84 1413.29 1885.37 Q1410.55 1884.92 1407.97 1883.97 L1407.97 1878.27 Q1410.55 1879.67 1413.06 1880.34 Q1415.58 1881.01 1418.19 1881.01 Q1423.95 1881.01 1426.81 1877.98 Q1429.68 1874.99 1429.68 1868.91 L1429.68 1866.01 Q1427.86 1869.17 1425.03 1870.73 Q1422.2 1872.28 1418.25 1872.28 Q1411.7 1872.28 1407.69 1867.29 Q1403.67 1862.29 1403.67 1854.05 Q1403.67 1845.77 1407.69 1840.77 Q1411.7 1835.78 1418.25 1835.78 Q1422.2 1835.78 1425.03 1837.34 Q1427.86 1838.9 1429.68 1842.05 L1429.68 1836.64 L1435.54 1836.64 L1435.54 1867.86 Z" fill="#000000" fill-rule="evenodd" fill-opacity="1" /><path clip-path="url(#clip520)" d="M1478.09 1853 L1478.09 1855.86 L1451.16 1855.86 Q1451.54 1861.91 1454.79 1865.09 Q1458.07 1868.24 1463.89 1868.24 Q1467.27 1868.24 1470.42 1867.42 Q1473.6 1866.59 1476.72 1864.93 L1476.72 1870.47 Q1473.57 1871.81 1470.26 1872.51 Q1466.95 1873.21 1463.54 1873.21 Q1455.01 1873.21 1450.02 1868.24 Q1445.05 1863.28 1445.05 1854.81 Q1445.05 1846.06 1449.76 1840.93 Q1454.5 1835.78 1462.53 1835.78 Q1469.72 1835.78 1473.89 1840.42 Q1478.09 1845.04 1478.09 1853 M1472.23 1851.28 Q1472.17 1846.47 1469.53 1843.61 Q1466.92 1840.74 1462.59 1840.74 Q1457.69 1840.74 1454.73 1843.51 Q1451.8 1846.28 1451.35 1851.31 L1472.23 1851.28 Z" fill="#000000" fill-rule="evenodd" fill-opacity="1" /><path clip-path="url(#clip520)" d="M1529.27 1846.28 L1529.27 1851.95 Q1525.93 1854.46 1523.06 1855.54 Q1520.23 1856.63 1517.14 1856.63 Q1513.64 1856.63 1509 1854.75 Q1508.65 1854.62 1508.49 1854.56 Q1508.26 1854.46 1507.79 1854.3 Q1502.85 1852.33 1499.86 1852.33 Q1497.06 1852.33 1494.32 1853.57 Q1491.59 1854.78 1488.47 1857.42 L1488.47 1851.76 Q1491.81 1849.24 1494.64 1848.16 Q1497.51 1847.04 1500.59 1847.04 Q1504.09 1847.04 1508.77 1848.95 Q1509.09 1849.08 1509.25 1849.15 Q1509.5 1849.24 1509.95 1849.4 Q1514.88 1851.37 1517.88 1851.37 Q1520.61 1851.37 1523.29 1850.16 Q1525.99 1848.95 1529.27 1846.28 Z" fill="#000000" fill-rule="evenodd" fill-opacity="1" /><path clip-path="url(#clip520)" d="M1556.39 1822.82 Q1552.12 1830.14 1550.05 1837.31 Q1547.99 1844.47 1547.99 1851.82 Q1547.99 1859.17 1550.05 1866.4 Q1552.15 1873.59 1556.39 1880.88 L1551.3 1880.88 Q1546.52 1873.4 1544.13 1866.17 Q1541.78 1858.95 1541.78 1851.82 Q1541.78 1844.72 1544.13 1837.53 Q1546.49 1830.33 1551.3 1822.82 L1556.39 1822.82 Z" fill="#000000" fill-rule="evenodd" fill-opacity="1" /><path clip-path="url(#clip520)" d="M1610.43 1862.85 Q1610.43 1863.11 1610.14 1864.1 Q1609.85 1865.1 1609.14 1866.65 Q1608.46 1868.19 1607.5 1869.61 Q1606.56 1871 1605.02 1872.03 Q1603.51 1873.03 1601.77 1873.03 Q1599.45 1873.03 1597.9 1871.48 Q1596.36 1869.93 1596.36 1867.62 Q1596.36 1866.36 1597.22 1863.98 Q1601.32 1853.09 1601.32 1849.19 Q1601.32 1844.59 1597.74 1844.59 Q1595.71 1844.59 1593.88 1845.43 Q1592.04 1846.26 1590.85 1847.42 Q1589.66 1848.58 1588.72 1849.9 Q1587.79 1851.22 1587.37 1852.09 Q1586.98 1852.96 1586.89 1853.35 L1582.93 1869.26 Q1582.6 1870.61 1582.38 1871.25 Q1582.15 1871.9 1581.54 1872.45 Q1580.93 1873.03 1579.96 1873.03 Q1579.16 1873.03 1578.58 1872.54 Q1578.03 1872.06 1578.03 1871.22 Q1578.03 1871.09 1578.19 1870.42 Q1578.35 1869.74 1578.58 1868.81 Q1578.8 1867.87 1578.9 1867.33 Q1580.06 1862.95 1580.22 1862.33 L1582.06 1854.67 Q1583.05 1850.87 1583.05 1849.19 Q1583.05 1844.59 1579.48 1844.59 Q1577.71 1844.59 1576.03 1845.26 Q1574.39 1845.91 1573.26 1846.81 Q1572.14 1847.71 1571.11 1848.97 Q1570.11 1850.19 1569.59 1851.03 Q1569.11 1851.83 1568.72 1852.64 L1567.89 1855.92 Q1567.69 1856.83 1566.76 1860.34 L1565.31 1866.29 Q1564.28 1870.74 1564.05 1871.16 Q1563.73 1872.06 1563.02 1872.54 Q1562.31 1873.03 1561.61 1873.03 Q1560.8 1873.03 1560.25 1872.54 Q1559.71 1872.06 1559.71 1871.22 Q1559.71 1871.09 1559.8 1870.61 Q1559.9 1870.13 1560.06 1869.45 Q1560.22 1868.77 1560.28 1868.39 L1564.12 1853.15 Q1564.83 1850.38 1564.99 1849.52 Q1565.18 1848.61 1565.18 1847.62 Q1565.18 1844.59 1563.12 1844.59 Q1561.44 1844.59 1560.35 1846.58 Q1559.25 1848.58 1558.32 1852.45 Q1558.03 1853.51 1557.84 1853.73 Q1557.68 1853.96 1557.19 1853.96 Q1556.39 1853.93 1556.39 1853.28 Q1556.39 1853.12 1556.65 1852.09 Q1556.9 1851.06 1557.39 1849.52 Q1557.9 1847.94 1558.45 1846.91 Q1558.77 1846.23 1559.06 1845.78 Q1559.35 1845.33 1559.93 1844.62 Q1560.51 1843.91 1561.38 1843.53 Q1562.25 1843.14 1563.31 1843.14 Q1565.66 1843.14 1567.4 1844.65 Q1569.17 1846.17 1569.4 1848.87 Q1573.68 1843.14 1579.67 1843.14 Q1583.05 1843.14 1585.08 1844.85 Q1586.98 1846.49 1587.21 1849.52 Q1591.65 1843.14 1597.97 1843.14 Q1601.6 1843.14 1603.57 1845.04 Q1605.53 1846.91 1605.53 1850.19 Q1605.53 1851.9 1604.66 1855.15 Q1603.79 1858.37 1603.22 1859.98 Q1602.64 1861.59 1601.51 1864.68 Q1600.32 1867.65 1600.32 1869.39 Q1600.32 1870.51 1600.7 1871.03 Q1601.09 1871.54 1601.93 1871.54 Q1603.22 1871.54 1604.34 1870.8 Q1605.47 1870.03 1606.27 1868.77 Q1607.11 1867.49 1607.66 1866.2 Q1608.21 1864.88 1608.63 1863.4 Q1608.88 1862.59 1609.01 1862.4 Q1609.17 1862.2 1609.62 1862.2 Q1610.43 1862.2 1610.43 1862.85 Z" fill="#000000" fill-rule="evenodd" fill-opacity="1" /><path clip-path="url(#clip520)" d="M1616.94 1845.32 Q1616.94 1843.94 1617.73 1843.29 Q1618.52 1842.64 1619.54 1842.64 Q1620.6 1842.64 1621.34 1843.34 Q1622.11 1844.01 1622.11 1845.21 Q1622.11 1846.49 1621.2 1847.21 Q1620.32 1847.93 1619.06 1847.75 Q1620.17 1849.6 1622.2 1850.44 Q1624.25 1851.27 1626.14 1851.27 Q1628.12 1851.27 1629.73 1849.56 Q1631.35 1847.84 1631.35 1843.65 Q1631.35 1840.09 1629.95 1838.04 Q1628.58 1835.99 1625.85 1835.99 L1623.82 1835.99 Q1623.12 1835.99 1622.92 1835.92 Q1622.71 1835.85 1622.71 1835.47 Q1622.71 1835.02 1623.41 1834.93 Q1624.11 1834.93 1625.22 1834.79 Q1627.9 1834.7 1629.32 1832.38 Q1630.6 1830.21 1630.6 1827.13 Q1630.6 1824.31 1629.25 1823.14 Q1627.92 1821.94 1626.19 1821.94 Q1624.56 1821.94 1622.78 1822.62 Q1621 1823.29 1620.03 1824.8 Q1622.89 1824.8 1622.89 1827.13 Q1622.89 1828.14 1622.24 1828.82 Q1621.61 1829.47 1620.55 1829.47 Q1619.54 1829.47 1618.86 1828.84 Q1618.18 1828.19 1618.18 1827.08 Q1618.18 1824.44 1620.53 1822.62 Q1622.89 1820.79 1626.37 1820.79 Q1629.79 1820.79 1632.32 1822.59 Q1634.87 1824.4 1634.87 1827.17 Q1634.87 1829.9 1633.06 1832.13 Q1631.26 1834.36 1628.4 1835.29 Q1631.91 1835.99 1634.01 1838.38 Q1636.11 1840.74 1636.11 1843.65 Q1636.11 1847.26 1633.26 1849.92 Q1630.42 1852.56 1626.28 1852.56 Q1622.44 1852.56 1619.69 1850.48 Q1616.94 1848.41 1616.94 1845.32 Z" fill="#000000" fill-rule="evenodd" fill-opacity="1" /><path clip-path="url(#clip520)" d="M1642.96 1887.84 Q1642.96 1887.52 1643.22 1886.81 L1666.5 1824.59 Q1666.5 1824.52 1666.66 1824.17 Q1666.82 1823.82 1666.92 1823.59 Q1667.02 1823.33 1667.21 1823.14 Q1667.43 1822.95 1667.69 1822.95 Q1668.34 1822.95 1668.34 1823.75 Q1668.34 1823.82 1668.14 1824.59 L1644.79 1886.87 Q1644.41 1888 1644.15 1888.32 Q1643.92 1888.65 1643.54 1888.65 Q1642.96 1888.65 1642.96 1887.84 Z" fill="#000000" fill-rule="evenodd" fill-opacity="1" /><path clip-path="url(#clip520)" d="M1699.91 1848.81 Q1699.91 1850.61 1699 1851.58 Q1698.1 1852.51 1696.88 1852.51 Q1695.88 1852.51 1695.33 1851.93 Q1694.82 1851.35 1694.82 1850.58 Q1694.82 1849.45 1695.72 1848.55 Q1696.65 1847.65 1698.01 1847.62 Q1697.55 1846.42 1696.36 1845.72 Q1695.17 1844.97 1694.11 1844.78 Q1693.08 1844.59 1692.05 1844.59 Q1690.02 1844.59 1688.47 1845.23 Q1686.93 1845.88 1686.15 1846.87 Q1685.38 1847.84 1685.03 1848.77 Q1684.67 1849.71 1684.67 1850.51 Q1684.67 1851.22 1684.83 1851.8 Q1685.03 1852.35 1685.48 1852.77 Q1685.93 1853.15 1686.25 1853.41 Q1686.6 1853.67 1687.38 1853.9 Q1688.15 1854.12 1688.47 1854.22 Q1688.79 1854.28 1689.7 1854.48 Q1691.56 1854.86 1692.4 1855.09 Q1693.24 1855.28 1694.33 1855.83 Q1695.46 1856.38 1696.3 1857.24 Q1698.33 1859.27 1698.33 1862.08 Q1698.33 1863.11 1697.97 1864.36 Q1697.65 1865.62 1696.72 1867.2 Q1695.78 1868.77 1694.37 1870.03 Q1692.95 1871.29 1690.5 1872.16 Q1688.09 1873.03 1685.06 1873.03 Q1680.84 1873.03 1678.23 1871.25 Q1675.62 1869.45 1675.62 1866.62 Q1675.62 1864.56 1676.75 1863.43 Q1677.88 1862.27 1679.33 1862.27 Q1680.42 1862.27 1681.1 1862.88 Q1681.77 1863.46 1681.77 1864.56 Q1681.77 1866.04 1680.58 1867.16 Q1679.39 1868.29 1677.62 1868.07 Q1679.13 1871.54 1685.12 1871.54 Q1687.38 1871.54 1689.12 1870.96 Q1690.89 1870.35 1691.85 1869.52 Q1692.85 1868.65 1693.5 1867.58 Q1694.14 1866.52 1694.33 1865.71 Q1694.56 1864.91 1694.56 1864.3 Q1694.56 1863.24 1694.14 1862.43 Q1693.72 1861.62 1693.14 1861.17 Q1692.59 1860.69 1691.53 1860.3 Q1690.5 1859.89 1689.76 1859.72 Q1689.02 1859.56 1687.7 1859.31 Q1687.09 1859.18 1686.7 1859.11 Q1686.31 1859.02 1685.51 1858.76 Q1684.74 1858.47 1684.19 1858.18 Q1683.67 1857.89 1683 1857.37 Q1682.32 1856.86 1681.9 1856.25 Q1681.48 1855.63 1681.19 1854.73 Q1680.9 1853.83 1680.9 1852.77 Q1680.9 1851.8 1681.19 1850.64 Q1681.52 1849.48 1682.32 1848.13 Q1683.16 1846.78 1684.35 1845.68 Q1685.54 1844.59 1687.54 1843.88 Q1689.57 1843.14 1692.05 1843.14 Q1695.65 1843.14 1697.78 1844.81 Q1699.91 1846.46 1699.91 1848.81 Z" fill="#000000" fill-rule="evenodd" fill-opacity="1" /><path clip-path="url(#clip520)" d="M1706.24 1822.82 L1711.34 1822.82 Q1716.11 1830.33 1718.47 1837.53 Q1720.85 1844.72 1720.85 1851.82 Q1720.85 1858.95 1718.47 1866.17 Q1716.11 1873.4 1711.34 1880.88 L1706.24 1880.88 Q1710.48 1873.59 1712.55 1866.4 Q1714.65 1859.17 1714.65 1851.82 Q1714.65 1844.47 1712.55 1837.31 Q1710.48 1830.14 1706.24 1822.82 Z" fill="#000000" fill-rule="evenodd" fill-opacity="1" /><polyline clip-path="url(#clip522)" style="stroke:#000000; stroke-linecap:round; stroke-linejoin:round; stroke-width:2; stroke-opacity:0.1; fill:none" points="241.557,1591.93 2640.76,1591.93 "/>
<polyline clip-path="url(#clip522)" style="stroke:#000000; stroke-linecap:round; stroke-linejoin:round; stroke-width:2; stroke-opacity:0.1; fill:none" points="241.557,1323.24 2640.76,1323.24 "/>
<polyline clip-path="url(#clip522)" style="stroke:#000000; stroke-linecap:round; stroke-linejoin:round; stroke-width:2; stroke-opacity:0.1; fill:none" points="241.557,1054.55 2640.76,1054.55 "/>
<polyline clip-path="url(#clip522)" style="stroke:#000000; stroke-linecap:round; stroke-linejoin:round; stroke-width:2; stroke-opacity:0.1; fill:none" points="241.557,785.863 2640.76,785.863 "/>
<polyline clip-path="url(#clip522)" style="stroke:#000000; stroke-linecap:round; stroke-linejoin:round; stroke-width:2; stroke-opacity:0.1; fill:none" points="241.557,517.175 2640.76,517.175 "/>
<polyline clip-path="url(#clip522)" style="stroke:#000000; stroke-linecap:round; stroke-linejoin:round; stroke-width:2; stroke-opacity:0.1; fill:none" points="241.557,248.487 2640.76,248.487 "/>
<polyline clip-path="url(#clip520)" style="stroke:#000000; stroke-linecap:round; stroke-linejoin:round; stroke-width:4; stroke-opacity:1; fill:none" points="241.557,1734.12 241.557,127.792 "/>
<polyline clip-path="url(#clip520)" style="stroke:#000000; stroke-linecap:round; stroke-linejoin:round; stroke-width:4; stroke-opacity:1; fill:none" points="241.557,1591.93 260.455,1591.93 "/>
<polyline clip-path="url(#clip520)" style="stroke:#000000; stroke-linecap:round; stroke-linejoin:round; stroke-width:4; stroke-opacity:1; fill:none" points="241.557,1323.24 260.455,1323.24 "/>
<polyline clip-path="url(#clip520)" style="stroke:#000000; stroke-linecap:round; stroke-linejoin:round; stroke-width:4; stroke-opacity:1; fill:none" points="241.557,1054.55 260.455,1054.55 "/>
<polyline clip-path="url(#clip520)" style="stroke:#000000; stroke-linecap:round; stroke-linejoin:round; stroke-width:4; stroke-opacity:1; fill:none" points="241.557,785.863 260.455,785.863 "/>
<polyline clip-path="url(#clip520)" style="stroke:#000000; stroke-linecap:round; stroke-linejoin:round; stroke-width:4; stroke-opacity:1; fill:none" points="241.557,517.175 260.455,517.175 "/>
<polyline clip-path="url(#clip520)" style="stroke:#000000; stroke-linecap:round; stroke-linejoin:round; stroke-width:4; stroke-opacity:1; fill:none" points="241.557,248.487 260.455,248.487 "/>
<path clip-path="url(#clip520)" d="M122.997 1605.27 L139.316 1605.27 L139.316 1609.21 L117.372 1609.21 L117.372 1605.27 Q120.034 1602.52 124.617 1597.89 Q129.224 1593.24 130.404 1591.89 Q132.65 1589.37 133.529 1587.63 Q134.432 1585.87 134.432 1584.18 Q134.432 1581.43 132.488 1579.69 Q130.566 1577.96 127.464 1577.96 Q125.265 1577.96 122.812 1578.72 Q120.381 1579.49 117.603 1581.04 L117.603 1576.31 Q120.427 1575.18 122.881 1574.6 Q125.335 1574.02 127.372 1574.02 Q132.742 1574.02 135.937 1576.71 Q139.131 1579.39 139.131 1583.88 Q139.131 1586.01 138.321 1587.93 Q137.534 1589.83 135.427 1592.42 Q134.849 1593.1 131.747 1596.31 Q128.645 1599.51 122.997 1605.27 Z" fill="#000000" fill-rule="evenodd" fill-opacity="1" /><path clip-path="url(#clip520)" d="M159.131 1577.73 Q155.52 1577.73 153.691 1581.29 Q151.886 1584.83 151.886 1591.96 Q151.886 1599.07 153.691 1602.63 Q155.52 1606.17 159.131 1606.17 Q162.765 1606.17 164.571 1602.63 Q166.399 1599.07 166.399 1591.96 Q166.399 1584.83 164.571 1581.29 Q162.765 1577.73 159.131 1577.73 M159.131 1574.02 Q164.941 1574.02 167.997 1578.63 Q171.075 1583.21 171.075 1591.96 Q171.075 1600.69 167.997 1605.3 Q164.941 1609.88 159.131 1609.88 Q153.321 1609.88 150.242 1605.3 Q147.186 1600.69 147.186 1591.96 Q147.186 1583.21 150.242 1578.63 Q153.321 1574.02 159.131 1574.02 Z" fill="#000000" fill-rule="evenodd" fill-opacity="1" /><path clip-path="url(#clip520)" d="M189.293 1577.73 Q185.682 1577.73 183.853 1581.29 Q182.047 1584.83 182.047 1591.96 Q182.047 1599.07 183.853 1602.63 Q185.682 1606.17 189.293 1606.17 Q192.927 1606.17 194.733 1602.63 Q196.561 1599.07 196.561 1591.96 Q196.561 1584.83 194.733 1581.29 Q192.927 1577.73 189.293 1577.73 M189.293 1574.02 Q195.103 1574.02 198.158 1578.63 Q201.237 1583.21 201.237 1591.96 Q201.237 1600.69 198.158 1605.3 Q195.103 1609.88 189.293 1609.88 Q183.483 1609.88 180.404 1605.3 Q177.348 1600.69 177.348 1591.96 Q177.348 1583.21 180.404 1578.63 Q183.483 1574.02 189.293 1574.02 Z" fill="#000000" fill-rule="evenodd" fill-opacity="1" /><path clip-path="url(#clip520)" d="M133.136 1321.89 Q136.492 1322.6 138.367 1324.87 Q140.265 1327.14 140.265 1330.47 Q140.265 1335.59 136.747 1338.39 Q133.228 1341.19 126.747 1341.19 Q124.571 1341.19 122.256 1340.75 Q119.964 1340.33 117.511 1339.48 L117.511 1334.96 Q119.455 1336.1 121.77 1336.68 Q124.085 1337.26 126.608 1337.26 Q131.006 1337.26 133.298 1335.52 Q135.612 1333.78 135.612 1330.47 Q135.612 1327.42 133.46 1325.7 Q131.33 1323.97 127.511 1323.97 L123.483 1323.97 L123.483 1320.13 L127.696 1320.13 Q131.145 1320.13 132.974 1318.76 Q134.802 1317.37 134.802 1314.78 Q134.802 1312.12 132.904 1310.7 Q131.029 1309.27 127.511 1309.27 Q125.589 1309.27 123.39 1309.69 Q121.191 1310.1 118.552 1310.98 L118.552 1306.82 Q121.214 1306.07 123.529 1305.7 Q125.867 1305.33 127.927 1305.33 Q133.251 1305.33 136.353 1307.76 Q139.455 1310.17 139.455 1314.29 Q139.455 1317.16 137.812 1319.15 Q136.168 1321.12 133.136 1321.89 Z" fill="#000000" fill-rule="evenodd" fill-opacity="1" /><path clip-path="url(#clip520)" d="M159.131 1309.04 Q155.52 1309.04 153.691 1312.6 Q151.886 1316.14 151.886 1323.27 Q151.886 1330.38 153.691 1333.95 Q155.52 1337.49 159.131 1337.49 Q162.765 1337.49 164.571 1333.95 Q166.399 1330.38 166.399 1323.27 Q166.399 1316.14 164.571 1312.6 Q162.765 1309.04 159.131 1309.04 M159.131 1305.33 Q164.941 1305.33 167.997 1309.94 Q171.075 1314.52 171.075 1323.27 Q171.075 1332 167.997 1336.61 Q164.941 1341.19 159.131 1341.19 Q153.321 1341.19 150.242 1336.61 Q147.186 1332 147.186 1323.27 Q147.186 1314.52 150.242 1309.94 Q153.321 1305.33 159.131 1305.33 Z" fill="#000000" fill-rule="evenodd" fill-opacity="1" /><path clip-path="url(#clip520)" d="M189.293 1309.04 Q185.682 1309.04 183.853 1312.6 Q182.047 1316.14 182.047 1323.27 Q182.047 1330.38 183.853 1333.95 Q185.682 1337.49 189.293 1337.49 Q192.927 1337.49 194.733 1333.95 Q196.561 1330.38 196.561 1323.27 Q196.561 1316.14 194.733 1312.6 Q192.927 1309.04 189.293 1309.04 M189.293 1305.33 Q195.103 1305.33 198.158 1309.94 Q201.237 1314.52 201.237 1323.27 Q201.237 1332 198.158 1336.61 Q195.103 1341.19 189.293 1341.19 Q183.483 1341.19 180.404 1336.61 Q177.348 1332 177.348 1323.27 Q177.348 1314.52 180.404 1309.94 Q183.483 1305.33 189.293 1305.33 Z" fill="#000000" fill-rule="evenodd" fill-opacity="1" /><path clip-path="url(#clip520)" d="M131.816 1041.35 L120.011 1059.79 L131.816 1059.79 L131.816 1041.35 M130.589 1037.27 L136.469 1037.27 L136.469 1059.79 L141.399 1059.79 L141.399 1063.68 L136.469 1063.68 L136.469 1071.83 L131.816 1071.83 L131.816 1063.68 L116.214 1063.68 L116.214 1059.17 L130.589 1037.27 Z" fill="#000000" fill-rule="evenodd" fill-opacity="1" /><path clip-path="url(#clip520)" d="M159.131 1040.35 Q155.52 1040.35 153.691 1043.91 Q151.886 1047.46 151.886 1054.59 Q151.886 1061.69 153.691 1065.26 Q155.52 1068.8 159.131 1068.8 Q162.765 1068.8 164.571 1065.26 Q166.399 1061.69 166.399 1054.59 Q166.399 1047.46 164.571 1043.91 Q162.765 1040.35 159.131 1040.35 M159.131 1036.65 Q164.941 1036.65 167.997 1041.25 Q171.075 1045.84 171.075 1054.59 Q171.075 1063.31 167.997 1067.92 Q164.941 1072.5 159.131 1072.5 Q153.321 1072.5 150.242 1067.92 Q147.186 1063.31 147.186 1054.59 Q147.186 1045.84 150.242 1041.25 Q153.321 1036.65 159.131 1036.65 Z" fill="#000000" fill-rule="evenodd" fill-opacity="1" /><path clip-path="url(#clip520)" d="M189.293 1040.35 Q185.682 1040.35 183.853 1043.91 Q182.047 1047.46 182.047 1054.59 Q182.047 1061.69 183.853 1065.26 Q185.682 1068.8 189.293 1068.8 Q192.927 1068.8 194.733 1065.26 Q196.561 1061.69 196.561 1054.59 Q196.561 1047.46 194.733 1043.91 Q192.927 1040.35 189.293 1040.35 M189.293 1036.65 Q195.103 1036.65 198.158 1041.25 Q201.237 1045.84 201.237 1054.59 Q201.237 1063.31 198.158 1067.92 Q195.103 1072.5 189.293 1072.5 Q183.483 1072.5 180.404 1067.92 Q177.348 1063.31 177.348 1054.59 Q177.348 1045.84 180.404 1041.25 Q183.483 1036.65 189.293 1036.65 Z" fill="#000000" fill-rule="evenodd" fill-opacity="1" /><path clip-path="url(#clip520)" d="M119.015 768.583 L137.372 768.583 L137.372 772.518 L123.298 772.518 L123.298 780.99 Q124.316 780.643 125.335 780.481 Q126.353 780.296 127.372 780.296 Q133.159 780.296 136.538 783.467 Q139.918 786.638 139.918 792.055 Q139.918 797.634 136.446 800.736 Q132.974 803.814 126.654 803.814 Q124.478 803.814 122.21 803.444 Q119.964 803.074 117.557 802.333 L117.557 797.634 Q119.64 798.768 121.863 799.324 Q124.085 799.879 126.562 799.879 Q130.566 799.879 132.904 797.773 Q135.242 795.666 135.242 792.055 Q135.242 788.444 132.904 786.338 Q130.566 784.231 126.562 784.231 Q124.687 784.231 122.812 784.648 Q120.96 785.064 119.015 785.944 L119.015 768.583 Z" fill="#000000" fill-rule="evenodd" fill-opacity="1" /><path clip-path="url(#clip520)" d="M159.131 771.662 Q155.52 771.662 153.691 775.226 Q151.886 778.768 151.886 785.898 Q151.886 793.004 153.691 796.569 Q155.52 800.111 159.131 800.111 Q162.765 800.111 164.571 796.569 Q166.399 793.004 166.399 785.898 Q166.399 778.768 164.571 775.226 Q162.765 771.662 159.131 771.662 M159.131 767.958 Q164.941 767.958 167.997 772.564 Q171.075 777.148 171.075 785.898 Q171.075 794.625 167.997 799.231 Q164.941 803.814 159.131 803.814 Q153.321 803.814 150.242 799.231 Q147.186 794.625 147.186 785.898 Q147.186 777.148 150.242 772.564 Q153.321 767.958 159.131 767.958 Z" fill="#000000" fill-rule="evenodd" fill-opacity="1" /><path clip-path="url(#clip520)" d="M189.293 771.662 Q185.682 771.662 183.853 775.226 Q182.047 778.768 182.047 785.898 Q182.047 793.004 183.853 796.569 Q185.682 800.111 189.293 800.111 Q192.927 800.111 194.733 796.569 Q196.561 793.004 196.561 785.898 Q196.561 778.768 194.733 775.226 Q192.927 771.662 189.293 771.662 M189.293 767.958 Q195.103 767.958 198.158 772.564 Q201.237 777.148 201.237 785.898 Q201.237 794.625 198.158 799.231 Q195.103 803.814 189.293 803.814 Q183.483 803.814 180.404 799.231 Q177.348 794.625 177.348 785.898 Q177.348 777.148 180.404 772.564 Q183.483 767.958 189.293 767.958 Z" fill="#000000" fill-rule="evenodd" fill-opacity="1" /><path clip-path="url(#clip520)" d="M129.548 515.311 Q126.4 515.311 124.548 517.464 Q122.719 519.617 122.719 523.367 Q122.719 527.094 124.548 529.27 Q126.4 531.423 129.548 531.423 Q132.696 531.423 134.525 529.27 Q136.376 527.094 136.376 523.367 Q136.376 519.617 134.525 517.464 Q132.696 515.311 129.548 515.311 M138.83 500.659 L138.83 504.918 Q137.071 504.085 135.265 503.645 Q133.483 503.205 131.724 503.205 Q127.094 503.205 124.64 506.33 Q122.21 509.455 121.863 515.774 Q123.228 513.761 125.288 512.696 Q127.349 511.608 129.825 511.608 Q135.034 511.608 138.043 514.779 Q141.075 517.927 141.075 523.367 Q141.075 528.691 137.927 531.909 Q134.779 535.126 129.548 535.126 Q123.552 535.126 120.381 530.543 Q117.21 525.936 117.21 517.21 Q117.21 509.015 121.099 504.154 Q124.988 499.27 131.538 499.27 Q133.298 499.27 135.08 499.617 Q136.886 499.964 138.83 500.659 Z" fill="#000000" fill-rule="evenodd" fill-opacity="1" /><path clip-path="url(#clip520)" d="M159.131 502.974 Q155.52 502.974 153.691 506.538 Q151.886 510.08 151.886 517.21 Q151.886 524.316 153.691 527.881 Q155.52 531.423 159.131 531.423 Q162.765 531.423 164.571 527.881 Q166.399 524.316 166.399 517.21 Q166.399 510.08 164.571 506.538 Q162.765 502.974 159.131 502.974 M159.131 499.27 Q164.941 499.27 167.997 503.876 Q171.075 508.46 171.075 517.21 Q171.075 525.936 167.997 530.543 Q164.941 535.126 159.131 535.126 Q153.321 535.126 150.242 530.543 Q147.186 525.936 147.186 517.21 Q147.186 508.46 150.242 503.876 Q153.321 499.27 159.131 499.27 Z" fill="#000000" fill-rule="evenodd" fill-opacity="1" /><path clip-path="url(#clip520)" d="M189.293 502.974 Q185.682 502.974 183.853 506.538 Q182.047 510.08 182.047 517.21 Q182.047 524.316 183.853 527.881 Q185.682 531.423 189.293 531.423 Q192.927 531.423 194.733 527.881 Q196.561 524.316 196.561 517.21 Q196.561 510.08 194.733 506.538 Q192.927 502.974 189.293 502.974 M189.293 499.27 Q195.103 499.27 198.158 503.876 Q201.237 508.46 201.237 517.21 Q201.237 525.936 198.158 530.543 Q195.103 535.126 189.293 535.126 Q183.483 535.126 180.404 530.543 Q177.348 525.936 177.348 517.21 Q177.348 508.46 180.404 503.876 Q183.483 499.27 189.293 499.27 Z" fill="#000000" fill-rule="evenodd" fill-opacity="1" /><path clip-path="url(#clip520)" d="M117.789 231.207 L140.011 231.207 L140.011 233.198 L127.464 265.767 L122.58 265.767 L134.386 235.142 L117.789 235.142 L117.789 231.207 Z" fill="#000000" fill-rule="evenodd" fill-opacity="1" /><path clip-path="url(#clip520)" d="M159.131 234.286 Q155.52 234.286 153.691 237.85 Q151.886 241.392 151.886 248.522 Q151.886 255.628 153.691 259.193 Q155.52 262.734 159.131 262.734 Q162.765 262.734 164.571 259.193 Q166.399 255.628 166.399 248.522 Q166.399 241.392 164.571 237.85 Q162.765 234.286 159.131 234.286 M159.131 230.582 Q164.941 230.582 167.997 235.188 Q171.075 239.772 171.075 248.522 Q171.075 257.248 167.997 261.855 Q164.941 266.438 159.131 266.438 Q153.321 266.438 150.242 261.855 Q147.186 257.248 147.186 248.522 Q147.186 239.772 150.242 235.188 Q153.321 230.582 159.131 230.582 Z" fill="#000000" fill-rule="evenodd" fill-opacity="1" /><path clip-path="url(#clip520)" d="M189.293 234.286 Q185.682 234.286 183.853 237.85 Q182.047 241.392 182.047 248.522 Q182.047 255.628 183.853 259.193 Q185.682 262.734 189.293 262.734 Q192.927 262.734 194.733 259.193 Q196.561 255.628 196.561 248.522 Q196.561 241.392 194.733 237.85 Q192.927 234.286 189.293 234.286 M189.293 230.582 Q195.103 230.582 198.158 235.188 Q201.237 239.772 201.237 248.522 Q201.237 257.248 198.158 261.855 Q195.103 266.438 189.293 266.438 Q183.483 266.438 180.404 261.855 Q177.348 257.248 177.348 248.522 Q177.348 239.772 180.404 235.188 Q183.483 230.582 189.293 230.582 Z" fill="#000000" fill-rule="evenodd" fill-opacity="1" /><path clip-path="url(#clip520)" d="M16.1899 1400.18 L16.1899 1359.99 L21.6008 1359.99 L21.6008 1376.85 L63.7099 1376.85 L63.7099 1383.32 L21.6008 1383.32 L21.6008 1400.18 L16.1899 1400.18 Z" fill="#000000" fill-rule="evenodd" fill-opacity="1" /><path clip-path="url(#clip520)" d="M32.1679 1351.3 Q32.1679 1356.01 35.86 1358.74 Q39.5203 1361.48 45.9178 1361.48 Q52.3153 1361.48 56.0074 1358.78 Q59.6677 1356.04 59.6677 1351.3 Q59.6677 1346.62 55.9756 1343.88 Q52.2835 1341.14 45.9178 1341.14 Q39.5839 1341.14 35.8918 1343.88 Q32.1679 1346.62 32.1679 1351.3 M27.2026 1351.3 Q27.2026 1343.66 32.1679 1339.3 Q37.1331 1334.94 45.9178 1334.94 Q54.6706 1334.94 59.6677 1339.3 Q64.633 1343.66 64.633 1351.3 Q64.633 1358.97 59.6677 1363.33 Q54.6706 1367.66 45.9178 1367.66 Q37.1331 1367.66 32.1679 1363.33 Q27.2026 1358.97 27.2026 1351.3 Z" fill="#000000" fill-rule="evenodd" fill-opacity="1" /><path clip-path="url(#clip520)" d="M17.9405 1319.44 L28.062 1319.44 L28.062 1307.37 L32.6135 1307.37 L32.6135 1319.44 L51.9652 1319.44 Q56.3257 1319.44 57.567 1318.26 Q58.8083 1317.05 58.8083 1313.39 L58.8083 1307.37 L63.7099 1307.37 L63.7099 1313.39 Q63.7099 1320.17 61.1955 1322.75 Q58.6492 1325.32 51.9652 1325.32 L32.6135 1325.32 L32.6135 1329.62 L28.062 1329.62 L28.062 1325.32 L17.9405 1325.32 L17.9405 1319.44 Z" fill="#000000" fill-rule="evenodd" fill-opacity="1" /><path clip-path="url(#clip520)" d="M45.7905 1283.47 Q45.7905 1290.57 47.4137 1293.3 Q49.037 1296.04 52.9519 1296.04 Q56.0711 1296.04 57.9172 1294 Q59.7314 1291.94 59.7314 1288.4 Q59.7314 1283.53 56.2939 1280.61 Q52.8246 1277.65 47.0954 1277.65 L45.7905 1277.65 L45.7905 1283.47 M43.3715 1271.79 L63.7099 1271.79 L63.7099 1277.65 L58.2991 1277.65 Q61.5456 1279.65 63.1052 1282.64 Q64.633 1285.63 64.633 1289.96 Q64.633 1295.44 61.5774 1298.68 Q58.4901 1301.9 53.3338 1301.9 Q47.3182 1301.9 44.2627 1297.89 Q41.2072 1293.85 41.2072 1285.86 L41.2072 1277.65 L40.6343 1277.65 Q36.592 1277.65 34.3959 1280.32 Q32.1679 1282.96 32.1679 1287.77 Q32.1679 1290.82 32.8999 1293.72 Q33.632 1296.61 35.0961 1299.29 L29.6852 1299.29 Q28.4439 1296.07 27.8392 1293.05 Q27.2026 1290.03 27.2026 1287.16 Q27.2026 1279.43 31.213 1275.61 Q35.2234 1271.79 43.3715 1271.79 Z" fill="#000000" fill-rule="evenodd" fill-opacity="1" /><path clip-path="url(#clip520)" d="M14.1847 1259.73 L14.1847 1253.87 L63.7099 1253.87 L63.7099 1259.73 L14.1847 1259.73 Z" fill="#000000" fill-rule="evenodd" fill-opacity="1" /><path clip-path="url(#clip520)" d="M33.4728 1197.44 L14.1847 1197.44 L14.1847 1191.58 L63.7099 1191.58 L63.7099 1197.44 L58.3627 1197.44 Q61.5456 1199.28 63.1052 1202.12 Q64.633 1204.92 64.633 1208.86 Q64.633 1215.32 59.4767 1219.4 Q54.3205 1223.44 45.9178 1223.44 Q37.5151 1223.44 32.3588 1219.4 Q27.2026 1215.32 27.2026 1208.86 Q27.2026 1204.92 28.7622 1202.12 Q30.29 1199.28 33.4728 1197.44 M45.9178 1217.39 Q52.379 1217.39 56.0711 1214.75 Q59.7314 1212.08 59.7314 1207.43 Q59.7314 1202.78 56.0711 1200.11 Q52.379 1197.44 45.9178 1197.44 Q39.4566 1197.44 35.7963 1200.11 Q32.1042 1202.78 32.1042 1207.43 Q32.1042 1212.08 35.7963 1214.75 Q39.4566 1217.39 45.9178 1217.39 Z" fill="#000000" fill-rule="evenodd" fill-opacity="1" /><path clip-path="url(#clip520)" d="M28.062 1179.52 L28.062 1173.66 L63.7099 1173.66 L63.7099 1179.52 L28.062 1179.52 M14.1847 1179.52 L14.1847 1173.66 L21.6008 1173.66 L21.6008 1179.52 L14.1847 1179.52 Z" fill="#000000" fill-rule="evenodd" fill-opacity="1" /><path clip-path="url(#clip520)" d="M29.1123 1138.68 L34.6505 1138.68 Q33.3774 1141.16 32.7408 1143.84 Q32.1042 1146.51 32.1042 1149.38 Q32.1042 1153.74 33.441 1155.93 Q34.7778 1158.1 37.4514 1158.1 Q39.4884 1158.1 40.6661 1156.54 Q41.8119 1154.98 42.8623 1150.27 L43.3079 1148.26 Q44.6447 1142.02 47.0954 1139.41 Q49.5144 1136.77 53.8749 1136.77 Q58.8402 1136.77 61.7366 1140.72 Q64.633 1144.63 64.633 1151.51 Q64.633 1154.37 64.0601 1157.49 Q63.519 1160.58 62.405 1164.02 L56.3576 1164.02 Q58.0445 1160.77 58.9038 1157.62 Q59.7314 1154.47 59.7314 1151.38 Q59.7314 1147.24 58.3309 1145.02 Q56.8986 1142.79 54.3205 1142.79 Q51.9334 1142.79 50.6602 1144.41 Q49.3871 1146 48.2094 1151.44 L47.732 1153.48 Q46.5862 1158.92 44.2309 1161.34 Q41.8437 1163.76 37.706 1163.76 Q32.6771 1163.76 29.9399 1160.2 Q27.2026 1156.63 27.2026 1150.08 Q27.2026 1146.83 27.68 1143.97 Q28.1575 1141.1 29.1123 1138.68 Z" fill="#000000" fill-rule="evenodd" fill-opacity="1" /><path clip-path="url(#clip520)" d="M29.1123 1104.72 L34.6505 1104.72 Q33.3774 1107.2 32.7408 1109.88 Q32.1042 1112.55 32.1042 1115.42 Q32.1042 1119.78 33.441 1121.97 Q34.7778 1124.14 37.4514 1124.14 Q39.4884 1124.14 40.6661 1122.58 Q41.8119 1121.02 42.8623 1116.31 L43.3079 1114.3 Q44.6447 1108.06 47.0954 1105.45 Q49.5144 1102.81 53.8749 1102.81 Q58.8402 1102.81 61.7366 1106.76 Q64.633 1110.67 64.633 1117.55 Q64.633 1120.41 64.0601 1123.53 Q63.519 1126.62 62.405 1130.06 L56.3576 1130.06 Q58.0445 1126.81 58.9038 1123.66 Q59.7314 1120.51 59.7314 1117.42 Q59.7314 1113.28 58.3309 1111.05 Q56.8986 1108.83 54.3205 1108.83 Q51.9334 1108.83 50.6602 1110.45 Q49.3871 1112.04 48.2094 1117.48 L47.732 1119.52 Q46.5862 1124.96 44.2309 1127.38 Q41.8437 1129.8 37.706 1129.8 Q32.6771 1129.8 29.9399 1126.24 Q27.2026 1122.67 27.2026 1116.12 Q27.2026 1112.87 27.68 1110 Q28.1575 1107.14 29.1123 1104.72 Z" fill="#000000" fill-rule="evenodd" fill-opacity="1" /><path clip-path="url(#clip520)" d="M32.1679 1079.67 Q32.1679 1084.38 35.86 1087.12 Q39.5203 1089.86 45.9178 1089.86 Q52.3153 1089.86 56.0074 1087.15 Q59.6677 1084.41 59.6677 1079.67 Q59.6677 1074.99 55.9756 1072.26 Q52.2835 1069.52 45.9178 1069.52 Q39.5839 1069.52 35.8918 1072.26 Q32.1679 1074.99 32.1679 1079.67 M27.2026 1079.67 Q27.2026 1072.03 32.1679 1067.67 Q37.1331 1063.31 45.9178 1063.31 Q54.6706 1063.31 59.6677 1067.67 Q64.633 1072.03 64.633 1079.67 Q64.633 1087.34 59.6677 1091.7 Q54.6706 1096.03 45.9178 1096.03 Q37.1331 1096.03 32.1679 1091.7 Q27.2026 1087.34 27.2026 1079.67 Z" fill="#000000" fill-rule="evenodd" fill-opacity="1" /><path clip-path="url(#clip520)" d="M14.1847 1053.6 L14.1847 1047.75 L63.7099 1047.75 L63.7099 1053.6 L14.1847 1053.6 Z" fill="#000000" fill-rule="evenodd" fill-opacity="1" /><path clip-path="url(#clip520)" d="M28.062 1039.7 L28.062 1033.49 L57.9808 1022.35 L28.062 1011.21 L28.062 1005 L63.7099 1018.37 L63.7099 1026.33 L28.062 1039.7 Z" fill="#000000" fill-rule="evenodd" fill-opacity="1" /><path clip-path="url(#clip520)" d="M44.4219 966.426 L47.2864 966.426 L47.2864 993.353 Q53.3338 992.971 56.5167 989.724 Q59.6677 986.446 59.6677 980.621 Q59.6677 977.247 58.8402 974.096 Q58.0126 970.914 56.3576 967.794 L61.8957 967.794 Q63.2325 970.945 63.9327 974.256 Q64.633 977.566 64.633 980.971 Q64.633 989.501 59.6677 994.498 Q54.7025 999.464 46.2361 999.464 Q37.4832 999.464 32.3588 994.753 Q27.2026 990.011 27.2026 981.99 Q27.2026 974.797 31.8496 970.627 Q36.4647 966.426 44.4219 966.426 M42.7031 972.282 Q37.897 972.346 35.0324 974.988 Q32.1679 977.598 32.1679 981.926 Q32.1679 986.828 34.9369 989.788 Q37.706 992.716 42.7349 993.162 L42.7031 972.282 Z" fill="#000000" fill-rule="evenodd" fill-opacity="1" /><path clip-path="url(#clip520)" d="M33.4728 933.356 L14.1847 933.356 L14.1847 927.499 L63.7099 927.499 L63.7099 933.356 L58.3627 933.356 Q61.5456 935.202 63.1052 938.035 Q64.633 940.836 64.633 944.782 Q64.633 951.244 59.4767 955.318 Q54.3205 959.36 45.9178 959.36 Q37.5151 959.36 32.3588 955.318 Q27.2026 951.244 27.2026 944.782 Q27.2026 940.836 28.7622 938.035 Q30.29 935.202 33.4728 933.356 M45.9178 953.312 Q52.379 953.312 56.0711 950.671 Q59.7314 947.997 59.7314 943.35 Q59.7314 938.703 56.0711 936.029 Q52.379 933.356 45.9178 933.356 Q39.4566 933.356 35.7963 936.029 Q32.1042 938.703 32.1042 943.35 Q32.1042 947.997 35.7963 950.671 Q39.4566 953.312 45.9178 953.312 Z" fill="#000000" fill-rule="evenodd" fill-opacity="1" /><path clip-path="url(#clip520)" d="M29.1123 871.99 L34.6505 871.99 Q33.3774 874.473 32.7408 877.147 Q32.1042 879.82 32.1042 882.685 Q32.1042 887.045 33.441 889.242 Q34.7778 891.406 37.4514 891.406 Q39.4884 891.406 40.6661 889.846 Q41.8119 888.287 42.8623 883.576 L43.3079 881.571 Q44.6447 875.332 47.0954 872.723 Q49.5144 870.081 53.8749 870.081 Q58.8402 870.081 61.7366 874.027 Q64.633 877.942 64.633 884.817 Q64.633 887.682 64.0601 890.801 Q63.519 893.888 62.405 897.326 L56.3576 897.326 Q58.0445 894.079 58.9038 890.928 Q59.7314 887.777 59.7314 884.69 Q59.7314 880.552 58.3309 878.324 Q56.8986 876.096 54.3205 876.096 Q51.9334 876.096 50.6602 877.72 Q49.3871 879.311 48.2094 884.754 L47.732 886.791 Q46.5862 892.233 44.2309 894.652 Q41.8437 897.071 37.706 897.071 Q32.6771 897.071 29.9399 893.507 Q27.2026 889.942 27.2026 883.385 Q27.2026 880.139 27.68 877.274 Q28.1575 874.409 29.1123 871.99 Z" fill="#000000" fill-rule="evenodd" fill-opacity="1" /><path clip-path="url(#clip520)" d="M32.1679 846.941 Q32.1679 851.652 35.86 854.389 Q39.5203 857.127 45.9178 857.127 Q52.3153 857.127 56.0074 854.421 Q59.6677 851.684 59.6677 846.941 Q59.6677 842.263 55.9756 839.525 Q52.2835 836.788 45.9178 836.788 Q39.5839 836.788 35.8918 839.525 Q32.1679 842.263 32.1679 846.941 M27.2026 846.941 Q27.2026 839.303 32.1679 834.942 Q37.1331 830.582 45.9178 830.582 Q54.6706 830.582 59.6677 834.942 Q64.633 839.303 64.633 846.941 Q64.633 854.612 59.6677 858.973 Q54.6706 863.301 45.9178 863.301 Q37.1331 863.301 32.1679 858.973 Q27.2026 854.612 27.2026 846.941 Z" fill="#000000" fill-rule="evenodd" fill-opacity="1" /><path clip-path="url(#clip520)" d="M14.1847 820.874 L14.1847 815.017 L63.7099 815.017 L63.7099 820.874 L14.1847 820.874 Z" fill="#000000" fill-rule="evenodd" fill-opacity="1" /><path clip-path="url(#clip520)" d="M28.062 802.763 L28.062 796.907 L63.7099 796.907 L63.7099 802.763 L28.062 802.763 M14.1847 802.763 L14.1847 796.907 L21.6008 796.907 L21.6008 802.763 L14.1847 802.763 Z" fill="#000000" fill-rule="evenodd" fill-opacity="1" /><path clip-path="url(#clip520)" d="M33.4728 761.195 L14.1847 761.195 L14.1847 755.339 L63.7099 755.339 L63.7099 761.195 L58.3627 761.195 Q61.5456 763.041 63.1052 765.874 Q64.633 768.675 64.633 772.622 Q64.633 779.083 59.4767 783.157 Q54.3205 787.199 45.9178 787.199 Q37.5151 787.199 32.3588 783.157 Q27.2026 779.083 27.2026 772.622 Q27.2026 768.675 28.7622 765.874 Q30.29 763.041 33.4728 761.195 M45.9178 781.152 Q52.379 781.152 56.0711 778.51 Q59.7314 775.836 59.7314 771.189 Q59.7314 766.543 56.0711 763.869 Q52.379 761.195 45.9178 761.195 Q39.4566 761.195 35.7963 763.869 Q32.1042 766.543 32.1042 771.189 Q32.1042 775.836 35.7963 778.51 Q39.4566 781.152 45.9178 781.152 Z" fill="#000000" fill-rule="evenodd" fill-opacity="1" /><path clip-path="url(#clip520)" d="M29.1123 720.55 L34.6505 720.55 Q33.3774 723.033 32.7408 725.707 Q32.1042 728.38 32.1042 731.245 Q32.1042 735.605 33.441 737.801 Q34.7778 739.966 37.4514 739.966 Q39.4884 739.966 40.6661 738.406 Q41.8119 736.847 42.8623 732.136 L43.3079 730.131 Q44.6447 723.892 47.0954 721.282 Q49.5144 718.641 53.8749 718.641 Q58.8402 718.641 61.7366 722.587 Q64.633 726.502 64.633 733.377 Q64.633 736.242 64.0601 739.361 Q63.519 742.448 62.405 745.886 L56.3576 745.886 Q58.0445 742.639 58.9038 739.488 Q59.7314 736.337 59.7314 733.25 Q59.7314 729.112 58.3309 726.884 Q56.8986 724.656 54.3205 724.656 Q51.9334 724.656 50.6602 726.279 Q49.3871 727.871 48.2094 733.314 L47.732 735.351 Q46.5862 740.793 44.2309 743.212 Q41.8437 745.631 37.706 745.631 Q32.6771 745.631 29.9399 742.066 Q27.2026 738.502 27.2026 731.945 Q27.2026 728.698 27.68 725.834 Q28.1575 722.969 29.1123 720.55 Z" fill="#000000" fill-rule="evenodd" fill-opacity="1" /><path clip-path="url(#clip520)" d="M37.706 667.747 L43.3715 667.747 Q45.886 671.089 46.9681 673.953 Q48.0503 676.786 48.0503 679.873 Q48.0503 683.375 46.1724 688.022 Q46.0451 688.372 45.9815 688.531 Q45.886 688.754 45.7268 689.231 Q43.7535 694.164 43.7535 697.156 Q43.7535 699.957 44.9948 702.694 Q46.2042 705.432 48.846 708.551 L43.1805 708.551 Q40.6661 705.209 39.5839 702.376 Q38.4699 699.512 38.4699 696.424 Q38.4699 692.923 40.3796 688.244 Q40.5069 687.926 40.5706 687.767 Q40.6661 687.512 40.8252 687.067 Q42.7986 682.133 42.7986 679.141 Q42.7986 676.404 41.5891 673.731 Q40.3796 671.025 37.706 667.747 Z" fill="#000000" fill-rule="evenodd" fill-opacity="1" /><path clip-path="url(#clip520)" d="M14.2484 640.629 Q21.569 644.894 28.7304 646.963 Q35.8918 649.032 43.2442 649.032 Q50.5966 649.032 57.8217 646.963 Q65.0149 644.862 72.3036 640.629 L72.3036 645.721 Q64.8239 650.496 57.5989 652.883 Q50.3738 655.238 43.2442 655.238 Q36.1464 655.238 28.9532 652.883 Q21.7599 650.528 14.2484 645.721 L14.2484 640.629 Z" fill="#000000" fill-rule="evenodd" fill-opacity="1" /><path clip-path="url(#clip520)" d="M54.2736 586.587 Q54.5313 586.587 55.5297 586.877 Q56.528 587.167 58.0739 587.876 Q59.6198 588.552 61.0369 589.518 Q62.4217 590.452 63.4523 591.998 Q64.4507 593.512 64.4507 595.251 Q64.4507 597.57 62.9048 599.116 Q61.3589 600.661 59.0401 600.661 Q57.7841 600.661 55.4008 599.792 Q44.5152 595.702 40.6183 595.702 Q36.0129 595.702 36.0129 599.277 Q36.0129 601.305 36.8503 603.141 Q37.6876 604.977 38.847 606.169 Q40.0064 607.36 41.3269 608.294 Q42.6473 609.228 43.5169 609.647 Q44.3864 610.033 44.7729 610.13 L60.6826 614.091 Q62.0352 614.413 62.6794 614.639 Q63.3235 614.864 63.871 615.476 Q64.4507 616.088 64.4507 617.054 Q64.4507 617.859 63.9676 618.439 Q63.4845 618.987 62.6471 618.987 Q62.5183 618.987 61.842 618.825 Q61.1657 618.664 60.2317 618.439 Q59.2977 618.214 58.7502 618.117 Q54.3702 616.958 53.7583 616.797 L46.0933 614.961 Q42.293 613.962 40.6183 613.962 Q36.0129 613.962 36.0129 617.537 Q36.0129 619.309 36.6892 620.983 Q37.3333 622.626 38.2351 623.753 Q39.1369 624.88 40.3929 625.911 Q41.6167 626.909 42.4541 627.424 Q43.2592 627.908 44.0644 628.294 L47.3494 629.131 Q48.2511 629.325 51.7616 630.259 L57.7197 631.708 Q62.1641 632.738 62.5827 632.964 Q63.4845 633.286 63.9676 633.994 Q64.4507 634.703 64.4507 635.412 Q64.4507 636.217 63.9676 636.764 Q63.4845 637.312 62.6471 637.312 Q62.5183 637.312 62.0352 637.215 Q61.5522 637.118 60.8758 636.957 Q60.1995 636.796 59.813 636.732 L44.5797 632.899 Q41.81 632.191 40.9404 632.03 Q40.0386 631.837 39.0403 631.837 Q36.0129 631.837 36.0129 633.898 Q36.0129 635.573 38.0097 636.668 Q40.0064 637.763 43.8711 638.697 Q44.9339 638.986 45.1594 639.18 Q45.3848 639.341 45.3848 639.824 Q45.3526 640.629 44.7085 640.629 Q44.5475 640.629 43.5169 640.371 Q42.4863 640.114 40.9404 639.63 Q39.3623 639.115 38.3317 638.568 Q37.6554 638.246 37.2045 637.956 Q36.7536 637.666 36.0451 637.086 Q35.3366 636.507 34.9501 635.637 Q34.5636 634.767 34.5636 633.705 Q34.5636 631.354 36.0773 629.614 Q37.591 627.843 40.2963 627.618 Q34.5636 623.334 34.5636 617.344 Q34.5636 613.962 36.2705 611.933 Q37.913 610.033 40.9404 609.808 Q34.5636 605.363 34.5636 599.051 Q34.5636 595.412 36.4638 593.447 Q38.3317 591.483 41.6167 591.483 Q43.3236 591.483 46.5764 592.352 Q49.797 593.222 51.4073 593.802 Q53.0176 594.381 56.1094 595.508 Q59.0723 596.7 60.8114 596.7 Q61.9386 596.7 62.4539 596.314 Q62.9692 595.927 62.9692 595.09 Q62.9692 593.802 62.2285 592.674 Q61.4555 591.547 60.1995 590.742 Q58.9113 589.905 57.623 589.357 Q56.3026 588.81 54.8211 588.391 Q54.016 588.133 53.8227 588.004 Q53.6295 587.843 53.6295 587.393 Q53.6295 586.587 54.2736 586.587 Z" fill="#000000" fill-rule="evenodd" fill-opacity="1" /><path clip-path="url(#clip520)" d="M37.6554 554.322 Q37.6876 554.322 38.847 554.516 L68.1221 561.859 Q69.668 562.245 71.2139 563.34 Q72.792 564.403 74.1446 566.11 Q75.5295 567.784 76.3668 570.361 Q77.2364 572.905 77.2364 575.836 Q77.2364 580.506 76.238 582.567 Q75.2718 584.596 73.2107 584.596 Q71.4071 584.596 70.3766 583.469 Q69.3782 582.341 69.3782 581.053 Q69.3782 579.829 70.0867 579.185 Q70.7952 578.541 71.697 578.541 Q72.6954 578.541 73.6938 579.218 Q74.7243 579.894 75.1108 581.246 Q75.7871 579.089 75.7871 575.965 Q75.7871 569.363 68.7985 566.528 Q68.7019 566.464 68.6696 566.464 L59.9419 564.274 L59.8774 564.371 Q60.5216 564.918 61.2623 565.788 Q61.9708 566.625 62.8404 568.429 Q63.7099 570.232 63.7099 572.003 Q63.7099 575.707 60.8758 578.251 Q58.0095 580.763 53.2752 580.763 Q49.8292 580.763 46.3832 579.379 Q42.905 577.961 40.3607 575.771 Q37.7842 573.549 36.1739 570.715 Q34.5636 567.849 34.5636 565.079 Q34.5636 563.147 35.723 561.504 Q36.8503 559.862 38.7182 558.96 Q37.1723 558.799 36.5282 557.929 Q35.8841 557.028 35.8841 556.255 Q35.8841 555.385 36.3672 554.87 Q36.818 554.322 37.6554 554.322 M41.6811 559.733 Q41.4879 559.733 40.9726 559.862 Q40.4251 559.991 39.5555 560.377 Q38.686 560.731 37.913 561.279 Q37.1401 561.826 36.5926 562.825 Q36.0129 563.791 36.0129 565.015 Q36.0129 567.012 37.6876 569.008 Q39.3301 571.005 41.8744 572.39 Q44.322 573.678 49.0563 574.902 Q53.7905 576.094 56.206 576.094 Q58.5892 576.094 60.4249 575.063 Q62.2607 574.032 62.2607 571.81 Q62.2607 569.234 59.8774 566.464 Q57.3976 563.598 55.272 563.115 L42.6795 559.926 Q41.9066 559.733 41.6811 559.733 Z" fill="#000000" fill-rule="evenodd" fill-opacity="1" /><path clip-path="url(#clip520)" d="M79.2654 553.463 Q78.9433 553.463 78.2348 553.206 L16.0131 529.921 Q15.9487 529.921 15.5944 529.76 Q15.2401 529.599 15.0147 529.502 Q14.757 529.405 14.5638 529.212 Q14.3706 528.987 14.3706 528.729 Q14.3706 528.085 15.1757 528.085 Q15.2401 528.085 16.0131 528.278 L78.2992 551.628 Q79.4264 552.014 79.7485 552.272 Q80.0705 552.497 80.0705 552.884 Q80.0705 553.463 79.2654 553.463 Z" fill="#000000" fill-rule="evenodd" fill-opacity="1" /><path clip-path="url(#clip520)" d="M47.4138 480.961 Q47.607 480.961 48.3477 481.219 L62.5827 486.436 Q63.4201 486.726 63.5811 487.016 Q63.7099 487.305 63.7099 488.497 L63.7099 519.028 Q63.7099 519.769 63.6777 520.059 Q63.6455 520.349 63.4845 520.574 Q63.3235 520.8 62.9692 520.8 Q62.3251 520.8 62.0352 520.574 Q61.7454 520.316 61.7132 520.027 Q61.681 519.737 61.681 519.028 Q61.681 517.418 61.5844 516.452 Q61.4877 515.486 61.3589 514.874 Q61.1979 514.23 60.747 513.907 Q60.2961 513.553 59.9097 513.392 Q59.491 513.231 58.557 513.006 L23.1306 504.181 Q22.0678 503.924 21.9067 503.924 Q21.2948 503.924 21.1338 504.31 Q20.9406 504.664 20.8439 505.695 L20.7151 508.207 Q20.7151 508.98 20.6829 509.302 Q20.6507 509.592 20.4897 509.817 Q20.3286 510.043 19.9744 510.043 Q19.3625 510.043 19.0726 509.817 Q18.7506 509.56 18.7184 509.366 Q18.6539 509.141 18.6539 508.787 L18.8472 500.027 L18.6539 490.268 Q18.6539 489.206 19.4591 489.206 Q20.3609 489.206 20.5541 489.656 Q20.7151 490.107 20.7151 491.718 Q20.7151 494.809 21.0372 496.226 Q21.3592 497.611 21.9067 497.998 Q22.422 498.352 23.8069 498.706 L59.4266 507.627 Q60.6182 507.949 60.9402 507.949 Q61.2945 507.949 61.4233 507.788 Q61.5199 507.595 61.5844 507.08 Q61.681 506.5 61.681 505.631 L61.681 499.447 Q61.681 497.579 61.3911 495.937 Q61.1013 494.294 60.6826 493.038 Q60.2639 491.75 59.491 490.59 Q58.718 489.431 58.0417 488.626 Q57.3332 487.789 56.2382 486.983 Q55.111 486.146 54.338 485.663 Q53.5329 485.148 52.2447 484.568 Q50.9242 483.988 50.1835 483.698 Q49.4105 483.376 48.0901 482.893 Q47.4138 482.603 47.2205 482.507 Q47.0273 482.41 46.8663 482.249 Q46.7052 482.056 46.7052 481.766 Q46.7052 481.38 46.9307 481.186 Q47.1561 480.961 47.4138 480.961 Z" fill="#000000" fill-rule="evenodd" fill-opacity="1" /><path clip-path="url(#clip520)" d="M14.2484 476.333 L14.2484 471.241 Q21.7599 466.467 28.9532 464.111 Q36.1464 461.724 43.2442 461.724 Q50.3738 461.724 57.5989 464.111 Q64.8239 466.467 72.3036 471.241 L72.3036 476.333 Q65.0149 472.1 57.8217 470.031 Q50.5966 467.931 43.2442 467.931 Q35.8918 467.931 28.7304 470.031 Q21.569 472.1 14.2484 476.333 Z" fill="#000000" fill-rule="evenodd" fill-opacity="1" /><path clip-path="url(#clip520)" d="M785.821 16.7545 L785.821 25.383 Q781.69 21.5346 776.991 19.6307 Q772.332 17.7268 767.066 17.7268 Q756.695 17.7268 751.186 24.0867 Q745.677 30.4061 745.677 42.3968 Q745.677 54.3469 751.186 60.7069 Q756.695 67.0263 767.066 67.0263 Q772.332 67.0263 776.991 65.1223 Q781.69 63.2184 785.821 59.3701 L785.821 67.9175 Q781.528 70.8341 776.707 72.2924 Q771.927 73.7508 766.58 73.7508 Q752.847 73.7508 744.948 65.3654 Q737.049 56.9395 737.049 42.3968 Q737.049 27.8135 744.948 19.4281 Q752.847 11.0023 766.58 11.0023 Q772.008 11.0023 776.788 12.4606 Q781.609 13.8784 785.821 16.7545 Z" fill="#000000" fill-rule="evenodd" fill-opacity="1" /><path clip-path="url(#clip520)" d="M797.367 54.671 L797.367 27.2059 L804.82 27.2059 L804.82 54.3874 Q804.82 60.8284 807.332 64.0691 Q809.843 67.2693 814.866 67.2693 Q820.902 67.2693 824.386 63.421 Q827.91 59.5726 827.91 52.9291 L827.91 27.2059 L835.364 27.2059 L835.364 72.576 L827.91 72.576 L827.91 65.6084 Q825.196 69.7404 821.591 71.7658 Q818.026 73.7508 813.287 73.7508 Q805.468 73.7508 801.417 68.8897 Q797.367 64.0286 797.367 54.671 M816.122 26.1121 L816.122 26.1121 Z" fill="#000000" fill-rule="evenodd" fill-opacity="1" /><path clip-path="url(#clip520)" d="M869.594 76.7889 Q866.434 84.8907 863.437 87.3618 Q860.439 89.8329 855.416 89.8329 L849.461 89.8329 L849.461 83.5945 L853.836 83.5945 Q856.915 83.5945 858.616 82.1361 Q860.318 80.6778 862.384 75.2496 L863.72 71.8468 L845.37 27.2059 L853.269 27.2059 L867.447 62.6918 L881.625 27.2059 L889.525 27.2059 L869.594 76.7889 Z" fill="#000000" fill-rule="evenodd" fill-opacity="1" /><path clip-path="url(#clip520)" d="M920.433 49.7694 Q911.4 49.7694 907.916 51.8354 Q904.432 53.9013 904.432 58.8839 Q904.432 62.8538 907.025 65.2034 Q909.658 67.5124 914.154 67.5124 Q920.352 67.5124 924.079 63.1374 Q927.846 58.7219 927.846 51.4303 L927.846 49.7694 L920.433 49.7694 M935.3 46.6907 L935.3 72.576 L927.846 72.576 L927.846 65.6895 Q925.294 69.8214 921.486 71.8063 Q917.678 73.7508 912.169 73.7508 Q905.202 73.7508 901.07 69.8619 Q896.978 65.9325 896.978 59.3701 Q896.978 51.7138 902.082 47.825 Q907.227 43.9361 917.395 43.9361 L927.846 43.9361 L927.846 43.2069 Q927.846 38.0623 924.443 35.2672 Q921.081 32.4315 914.964 32.4315 Q911.075 32.4315 907.389 33.3632 Q903.703 34.295 900.3 36.1584 L900.3 29.2718 Q904.391 27.692 908.24 26.9223 Q912.088 26.1121 915.734 26.1121 Q925.578 26.1121 930.439 31.2163 Q935.3 36.3204 935.3 46.6907 Z" fill="#000000" fill-rule="evenodd" fill-opacity="1" /><path clip-path="url(#clip520)" d="M988.367 45.1919 L988.367 72.576 L980.913 72.576 L980.913 45.4349 Q980.913 38.994 978.401 35.7938 Q975.89 32.5936 970.867 32.5936 Q964.831 32.5936 961.347 36.4419 Q957.863 40.2903 957.863 46.9338 L957.863 72.576 L950.369 72.576 L950.369 9.54393 L957.863 9.54393 L957.863 34.2544 Q960.537 30.163 964.142 28.1376 Q967.788 26.1121 972.528 26.1121 Q980.346 26.1121 984.356 30.9732 Q988.367 35.7938 988.367 45.1919 Z" fill="#000000" fill-rule="evenodd" fill-opacity="1" /><path clip-path="url(#clip520)" d="M1020.81 32.4315 Q1014.82 32.4315 1011.34 37.1306 Q1007.85 41.7891 1007.85 49.9314 Q1007.85 58.0738 1011.29 62.7728 Q1014.78 67.4314 1020.81 67.4314 Q1026.77 67.4314 1030.25 62.7323 Q1033.74 58.0333 1033.74 49.9314 Q1033.74 41.8701 1030.25 37.1711 Q1026.77 32.4315 1020.81 32.4315 M1020.81 26.1121 Q1030.54 26.1121 1036.09 32.4315 Q1041.64 38.7509 1041.64 49.9314 Q1041.64 61.0714 1036.09 67.4314 Q1030.54 73.7508 1020.81 73.7508 Q1011.05 73.7508 1005.5 67.4314 Q999.993 61.0714 999.993 49.9314 Q999.993 38.7509 1005.5 32.4315 Q1011.05 26.1121 1020.81 26.1121 Z" fill="#000000" fill-rule="evenodd" fill-opacity="1" /><path clip-path="url(#clip520)" d="M1083.85 49.3643 Q1083.85 41.2625 1080.48 36.8065 Q1077.16 32.3505 1071.13 32.3505 Q1065.13 32.3505 1061.77 36.8065 Q1058.45 41.2625 1058.45 49.3643 Q1058.45 57.4256 1061.77 61.8816 Q1065.13 66.3376 1071.13 66.3376 Q1077.16 66.3376 1080.48 61.8816 Q1083.85 57.4256 1083.85 49.3643 M1091.3 66.9452 Q1091.3 78.5308 1086.16 84.1616 Q1081.01 89.8329 1070.4 89.8329 Q1066.47 89.8329 1062.98 89.2252 Q1059.5 88.6581 1056.22 87.4428 L1056.22 80.1917 Q1059.5 81.9741 1062.7 82.8248 Q1065.9 83.6755 1069.22 83.6755 Q1076.55 83.6755 1080.2 79.8271 Q1083.85 76.0193 1083.85 68.282 L1083.85 64.5957 Q1081.54 68.6061 1077.93 70.5911 Q1074.33 72.576 1069.3 72.576 Q1060.96 72.576 1055.85 66.2161 Q1050.75 59.8562 1050.75 49.3643 Q1050.75 38.832 1055.85 32.472 Q1060.96 26.1121 1069.3 26.1121 Q1074.33 26.1121 1077.93 28.0971 Q1081.54 30.082 1083.85 34.0924 L1083.85 27.2059 L1091.3 27.2059 L1091.3 66.9452 Z" fill="#000000" fill-rule="evenodd" fill-opacity="1" /><path clip-path="url(#clip520)" d="M1127.27 49.7694 Q1118.24 49.7694 1114.75 51.8354 Q1111.27 53.9013 1111.27 58.8839 Q1111.27 62.8538 1113.86 65.2034 Q1116.5 67.5124 1120.99 67.5124 Q1127.19 67.5124 1130.92 63.1374 Q1134.69 58.7219 1134.69 51.4303 L1134.69 49.7694 L1127.27 49.7694 M1142.14 46.6907 L1142.14 72.576 L1134.69 72.576 L1134.69 65.6895 Q1132.13 69.8214 1128.33 71.8063 Q1124.52 73.7508 1119.01 73.7508 Q1112.04 73.7508 1107.91 69.8619 Q1103.82 65.9325 1103.82 59.3701 Q1103.82 51.7138 1108.92 47.825 Q1114.07 43.9361 1124.23 43.9361 L1134.69 43.9361 L1134.69 43.2069 Q1134.69 38.0623 1131.28 35.2672 Q1127.92 32.4315 1121.8 32.4315 Q1117.91 32.4315 1114.23 33.3632 Q1110.54 34.295 1107.14 36.1584 L1107.14 29.2718 Q1111.23 27.692 1115.08 26.9223 Q1118.93 26.1121 1122.57 26.1121 Q1132.42 26.1121 1137.28 31.2163 Q1142.14 36.3204 1142.14 46.6907 Z" fill="#000000" fill-rule="evenodd" fill-opacity="1" /><path clip-path="url(#clip520)" d="M1212.87 44.2197 Q1215.5 45.1109 1217.97 48.0275 Q1220.48 50.9442 1223 56.0483 L1231.3 72.576 L1222.51 72.576 L1214.77 57.061 Q1211.77 50.9847 1208.94 48.9997 Q1206.14 47.0148 1201.28 47.0148 L1192.37 47.0148 L1192.37 72.576 L1184.19 72.576 L1184.19 12.096 L1202.66 12.096 Q1213.03 12.096 1218.13 16.4305 Q1223.24 20.7649 1223.24 29.5149 Q1223.24 35.2267 1220.56 38.994 Q1217.93 42.7613 1212.87 44.2197 M1192.37 18.8205 L1192.37 40.2903 L1202.66 40.2903 Q1208.57 40.2903 1211.57 37.5762 Q1214.61 34.8216 1214.61 29.5149 Q1214.61 24.2082 1211.57 21.5346 Q1208.57 18.8205 1202.66 18.8205 L1192.37 18.8205 Z" fill="#000000" fill-rule="evenodd" fill-opacity="1" /><path clip-path="url(#clip520)" d="M1241.51 27.2059 L1248.96 27.2059 L1248.96 72.576 L1241.51 72.576 L1241.51 27.2059 M1241.51 9.54393 L1248.96 9.54393 L1248.96 18.9825 L1241.51 18.9825 L1241.51 9.54393 Z" fill="#000000" fill-rule="evenodd" fill-opacity="1" /><path clip-path="url(#clip520)" d="M1259.21 27.2059 L1267.11 27.2059 L1281.29 65.2844 L1295.47 27.2059 L1303.37 27.2059 L1286.35 72.576 L1276.22 72.576 L1259.21 27.2059 Z" fill="#000000" fill-rule="evenodd" fill-opacity="1" /><path clip-path="url(#clip520)" d="M1352.46 48.0275 L1352.46 51.6733 L1318.19 51.6733 Q1318.68 59.3701 1322.81 63.421 Q1326.98 67.4314 1334.39 67.4314 Q1338.69 67.4314 1342.7 66.3781 Q1346.75 65.3249 1350.72 63.2184 L1350.72 70.267 Q1346.71 71.9684 1342.5 72.8596 Q1338.28 73.7508 1333.95 73.7508 Q1323.09 73.7508 1316.73 67.4314 Q1310.41 61.1119 1310.41 50.3365 Q1310.41 39.1965 1316.41 32.6746 Q1322.44 26.1121 1332.65 26.1121 Q1341.81 26.1121 1347.11 32.0264 Q1352.46 37.9003 1352.46 48.0275 M1345.01 45.84 Q1344.93 39.7232 1341.57 36.0774 Q1338.24 32.4315 1332.73 32.4315 Q1326.5 32.4315 1322.73 35.9558 Q1319 39.4801 1318.43 45.8805 L1345.01 45.84 Z" fill="#000000" fill-rule="evenodd" fill-opacity="1" /><path clip-path="url(#clip520)" d="M1390.99 34.1734 Q1389.73 33.4443 1388.23 33.1202 Q1386.77 32.7556 1384.99 32.7556 Q1378.67 32.7556 1375.27 36.8875 Q1371.91 40.9789 1371.91 48.6757 L1371.91 72.576 L1364.41 72.576 L1364.41 27.2059 L1371.91 27.2059 L1371.91 34.2544 Q1374.26 30.1225 1378.02 28.1376 Q1381.79 26.1121 1387.18 26.1121 Q1387.95 26.1121 1388.88 26.2337 Q1389.81 26.3147 1390.95 26.5172 L1390.99 34.1734 Z" fill="#000000" fill-rule="evenodd" fill-opacity="1" /><path clip-path="url(#clip520)" d="M1400.71 62.2867 L1409.26 62.2867 L1409.26 69.2543 L1402.61 82.2172 L1397.39 82.2172 L1400.71 69.2543 L1400.71 62.2867 Z" fill="#000000" fill-rule="evenodd" fill-opacity="1" /><path clip-path="url(#clip520)" d="M1476.42 17.6457 Q1467.51 17.6457 1462.24 24.2892 Q1457.02 30.9327 1457.02 42.3968 Q1457.02 53.8203 1462.24 60.4638 Q1467.51 67.1073 1476.42 67.1073 Q1485.33 67.1073 1490.52 60.4638 Q1495.74 53.8203 1495.74 42.3968 Q1495.74 30.9327 1490.52 24.2892 Q1485.33 17.6457 1476.42 17.6457 M1476.42 11.0023 Q1489.14 11.0023 1496.76 19.5497 Q1504.37 28.0566 1504.37 42.3968 Q1504.37 56.6965 1496.76 65.2439 Q1489.14 73.7508 1476.42 73.7508 Q1463.66 73.7508 1456 65.2439 Q1448.39 56.737 1448.39 42.3968 Q1448.39 28.0566 1456 19.5497 Q1463.66 11.0023 1476.42 11.0023 Z" fill="#000000" fill-rule="evenodd" fill-opacity="1" /><path clip-path="url(#clip520)" d="M1554.56 45.1919 L1554.56 72.576 L1547.11 72.576 L1547.11 45.4349 Q1547.11 38.994 1544.6 35.7938 Q1542.08 32.5936 1537.06 32.5936 Q1531.03 32.5936 1527.54 36.4419 Q1524.06 40.2903 1524.06 46.9338 L1524.06 72.576 L1516.56 72.576 L1516.56 9.54393 L1524.06 9.54393 L1524.06 34.2544 Q1526.73 30.163 1530.34 28.1376 Q1533.98 26.1121 1538.72 26.1121 Q1546.54 26.1121 1550.55 30.9732 Q1554.56 35.7938 1554.56 45.1919 Z" fill="#000000" fill-rule="evenodd" fill-opacity="1" /><path clip-path="url(#clip520)" d="M1569.43 27.2059 L1576.88 27.2059 L1576.88 72.576 L1569.43 72.576 L1569.43 27.2059 M1569.43 9.54393 L1576.88 9.54393 L1576.88 18.9825 L1569.43 18.9825 L1569.43 9.54393 Z" fill="#000000" fill-rule="evenodd" fill-opacity="1" /><path clip-path="url(#clip520)" d="M1610.06 32.4315 Q1604.06 32.4315 1600.58 37.1306 Q1597.1 41.7891 1597.1 49.9314 Q1597.1 58.0738 1600.54 62.7728 Q1604.02 67.4314 1610.06 67.4314 Q1616.01 67.4314 1619.5 62.7323 Q1622.98 58.0333 1622.98 49.9314 Q1622.98 41.8701 1619.5 37.1711 Q1616.01 32.4315 1610.06 32.4315 M1610.06 26.1121 Q1619.78 26.1121 1625.33 32.4315 Q1630.88 38.7509 1630.88 49.9314 Q1630.88 61.0714 1625.33 67.4314 Q1619.78 73.7508 1610.06 73.7508 Q1600.3 73.7508 1594.75 67.4314 Q1589.24 61.0714 1589.24 49.9314 Q1589.24 38.7509 1594.75 32.4315 Q1600.3 26.1121 1610.06 26.1121 Z" fill="#000000" fill-rule="evenodd" fill-opacity="1" /><path clip-path="url(#clip520)" d="M1645.14 62.2867 L1653.69 62.2867 L1653.69 69.2543 L1647.04 82.2172 L1641.82 82.2172 L1645.14 69.2543 L1645.14 62.2867 Z" fill="#000000" fill-rule="evenodd" fill-opacity="1" /><path clip-path="url(#clip520)" d="M1698.45 65.6895 L1711.82 65.6895 L1711.82 19.5497 L1697.27 22.4663 L1697.27 15.0127 L1711.74 12.096 L1719.92 12.096 L1719.92 65.6895 L1733.29 65.6895 L1733.29 72.576 L1698.45 72.576 L1698.45 65.6895 Z" fill="#000000" fill-rule="evenodd" fill-opacity="1" /><path clip-path="url(#clip520)" d="M1750.06 71.3202 L1750.06 63.8666 Q1753.14 65.3249 1756.3 66.0946 Q1759.46 66.8642 1762.49 66.8642 Q1770.6 66.8642 1774.85 61.436 Q1779.14 55.9673 1779.75 44.8678 Q1777.4 48.3516 1773.8 50.215 Q1770.19 52.0784 1765.82 52.0784 Q1756.74 52.0784 1751.44 46.6097 Q1746.17 41.1005 1746.17 31.5808 Q1746.17 22.2638 1751.68 16.633 Q1757.19 11.0023 1766.34 11.0023 Q1776.83 11.0023 1782.34 19.0636 Q1787.89 27.0843 1787.89 42.3968 Q1787.89 56.6965 1781.09 65.2439 Q1774.32 73.7508 1762.86 73.7508 Q1759.78 73.7508 1756.62 73.1431 Q1753.46 72.5355 1750.06 71.3202 M1766.34 45.678 Q1771.85 45.678 1775.05 41.9107 Q1778.29 38.1433 1778.29 31.5808 Q1778.29 25.0589 1775.05 21.2916 Q1771.85 17.4837 1766.34 17.4837 Q1760.83 17.4837 1757.59 21.2916 Q1754.39 25.0589 1754.39 31.5808 Q1754.39 38.1433 1757.59 41.9107 Q1760.83 45.678 1766.34 45.678 Z" fill="#000000" fill-rule="evenodd" fill-opacity="1" /><path clip-path="url(#clip520)" d="M1821.11 39.075 Q1815.6 39.075 1812.36 42.8424 Q1809.16 46.6097 1809.16 53.1722 Q1809.16 59.6941 1812.36 63.502 Q1815.6 67.2693 1821.11 67.2693 Q1826.62 67.2693 1829.82 63.502 Q1833.06 59.6941 1833.06 53.1722 Q1833.06 46.6097 1829.82 42.8424 Q1826.62 39.075 1821.11 39.075 M1837.36 13.4328 L1837.36 20.8865 Q1834.28 19.4281 1831.12 18.6585 Q1828 17.8888 1824.92 17.8888 Q1816.82 17.8888 1812.52 23.3575 Q1808.27 28.8262 1807.66 39.8852 Q1810.05 36.3609 1813.66 34.4975 Q1817.26 32.5936 1821.6 32.5936 Q1830.71 32.5936 1835.98 38.1433 Q1841.28 43.6525 1841.28 53.1722 Q1841.28 62.4892 1835.78 68.12 Q1830.27 73.7508 1821.11 73.7508 Q1810.62 73.7508 1805.07 65.73 Q1799.52 57.6687 1799.52 42.3968 Q1799.52 28.0566 1806.33 19.5497 Q1813.13 11.0023 1824.59 11.0023 Q1827.67 11.0023 1830.79 11.6099 Q1833.95 12.2175 1837.36 13.4328 Z" fill="#000000" fill-rule="evenodd" fill-opacity="1" /><path clip-path="url(#clip520)" d="M1855.62 71.3202 L1855.62 63.8666 Q1858.7 65.3249 1861.86 66.0946 Q1865.02 66.8642 1868.06 66.8642 Q1876.16 66.8642 1880.42 61.436 Q1884.71 55.9673 1885.32 44.8678 Q1882.97 48.3516 1879.36 50.215 Q1875.76 52.0784 1871.38 52.0784 Q1862.31 52.0784 1857 46.6097 Q1851.74 41.1005 1851.74 31.5808 Q1851.74 22.2638 1857.25 16.633 Q1862.75 11.0023 1871.91 11.0023 Q1882.4 11.0023 1887.91 19.0636 Q1893.46 27.0843 1893.46 42.3968 Q1893.46 56.6965 1886.65 65.2439 Q1879.89 73.7508 1868.43 73.7508 Q1865.35 73.7508 1862.19 73.1431 Q1859.03 72.5355 1855.62 71.3202 M1871.91 45.678 Q1877.42 45.678 1880.62 41.9107 Q1883.86 38.1433 1883.86 31.5808 Q1883.86 25.0589 1880.62 21.2916 Q1877.42 17.4837 1871.91 17.4837 Q1866.4 17.4837 1863.16 21.2916 Q1859.96 25.0589 1859.96 31.5808 Q1859.96 38.1433 1863.16 41.9107 Q1866.4 45.678 1871.91 45.678 Z" fill="#000000" fill-rule="evenodd" fill-opacity="1" /><path clip-path="url(#clip520)" d="M1903.34 46.9338 L1936.72 46.9338 L1936.72 52.7671 L1903.34 52.7671 L1903.34 46.9338 Z" fill="#000000" fill-rule="evenodd" fill-opacity="1" /><path clip-path="url(#clip520)" d="M1951.06 65.6895 L1964.43 65.6895 L1964.43 19.5497 L1949.89 22.4663 L1949.89 15.0127 L1964.35 12.096 L1972.53 12.096 L1972.53 65.6895 L1985.9 65.6895 L1985.9 72.576 L1951.06 72.576 L1951.06 65.6895 Z" fill="#000000" fill-rule="evenodd" fill-opacity="1" /><path clip-path="url(#clip520)" d="M2002.67 71.3202 L2002.67 63.8666 Q2005.75 65.3249 2008.91 66.0946 Q2012.07 66.8642 2015.11 66.8642 Q2023.21 66.8642 2027.46 61.436 Q2031.76 55.9673 2032.37 44.8678 Q2030.02 48.3516 2026.41 50.215 Q2022.81 52.0784 2018.43 52.0784 Q2009.36 52.0784 2004.05 46.6097 Q1998.78 41.1005 1998.78 31.5808 Q1998.78 22.2638 2004.29 16.633 Q2009.8 11.0023 2018.96 11.0023 Q2029.45 11.0023 2034.96 19.0636 Q2040.51 27.0843 2040.51 42.3968 Q2040.51 56.6965 2033.7 65.2439 Q2026.94 73.7508 2015.47 73.7508 Q2012.39 73.7508 2009.24 73.1431 Q2006.08 72.5355 2002.67 71.3202 M2018.96 45.678 Q2024.47 45.678 2027.67 41.9107 Q2030.91 38.1433 2030.91 31.5808 Q2030.91 25.0589 2027.67 21.2916 Q2024.47 17.4837 2018.96 17.4837 Q2013.45 17.4837 2010.21 21.2916 Q2007.01 25.0589 2007.01 31.5808 Q2007.01 38.1433 2010.21 41.9107 Q2013.45 45.678 2018.96 45.678 Z" fill="#000000" fill-rule="evenodd" fill-opacity="1" /><path clip-path="url(#clip520)" d="M2053.15 12.096 L2092.04 12.096 L2092.04 15.5798 L2070.08 72.576 L2061.53 72.576 L2082.19 18.9825 L2053.15 18.9825 L2053.15 12.096 Z" fill="#000000" fill-rule="evenodd" fill-opacity="1" /><path clip-path="url(#clip520)" d="M2132.79 39.9662 Q2138.66 41.222 2141.94 45.1919 Q2145.26 49.1618 2145.26 54.9951 Q2145.26 63.9476 2139.11 68.8492 Q2132.95 73.7508 2121.61 73.7508 Q2117.8 73.7508 2113.75 72.9811 Q2109.74 72.2519 2105.44 70.7531 L2105.44 62.8538 Q2108.85 64.8388 2112.9 65.8515 Q2116.95 66.8642 2121.36 66.8642 Q2129.06 66.8642 2133.07 63.826 Q2137.12 60.7879 2137.12 54.9951 Q2137.12 49.6479 2133.35 46.6502 Q2129.63 43.612 2122.94 43.612 L2115.9 43.612 L2115.9 36.8875 L2123.27 36.8875 Q2129.3 36.8875 2132.5 34.4975 Q2135.7 32.067 2135.7 27.5299 Q2135.7 22.8714 2132.38 20.4004 Q2129.1 17.8888 2122.94 17.8888 Q2119.58 17.8888 2115.73 18.618 Q2111.88 19.3471 2107.27 20.8865 L2107.27 13.5948 Q2111.93 12.2985 2115.98 11.6504 Q2120.07 11.0023 2123.67 11.0023 Q2132.99 11.0023 2138.42 15.2557 Q2143.85 19.4686 2143.85 26.6793 Q2143.85 31.7024 2140.97 35.1862 Q2138.09 38.6294 2132.79 39.9662 Z" fill="#000000" fill-rule="evenodd" fill-opacity="1" /><circle clip-path="url(#clip522)" cx="1477.13" cy="1183.52" r="14.4" fill="#009af9" fill-rule="evenodd" fill-opacity="1" stroke="#000000" stroke-opacity="1" stroke-width="3.84"/>
<circle clip-path="url(#clip522)" cx="1385.54" cy="173.254" r="14.4" fill="#009af9" fill-rule="evenodd" fill-opacity="1" stroke="#000000" stroke-opacity="1" stroke-width="3.84"/>
<circle clip-path="url(#clip522)" cx="1237.37" cy="947.076" r="14.4" fill="#009af9" fill-rule="evenodd" fill-opacity="1" stroke="#000000" stroke-opacity="1" stroke-width="3.84"/>
<circle clip-path="url(#clip522)" cx="1427.3" cy="1280.25" r="14.4" fill="#009af9" fill-rule="evenodd" fill-opacity="1" stroke="#000000" stroke-opacity="1" stroke-width="3.84"/>
<circle clip-path="url(#clip522)" cx="1566.11" cy="1231.89" r="14.4" fill="#009af9" fill-rule="evenodd" fill-opacity="1" stroke="#000000" stroke-opacity="1" stroke-width="3.84"/>
<circle clip-path="url(#clip522)" cx="1730.69" cy="1441.46" r="14.4" fill="#009af9" fill-rule="evenodd" fill-opacity="1" stroke="#000000" stroke-opacity="1" stroke-width="3.84"/>
<circle clip-path="url(#clip522)" cx="2025.38" cy="1516.69" r="14.4" fill="#009af9" fill-rule="evenodd" fill-opacity="1" stroke="#000000" stroke-opacity="1" stroke-width="3.84"/>
<circle clip-path="url(#clip522)" cx="1498.04" cy="1285.62" r="14.4" fill="#009af9" fill-rule="evenodd" fill-opacity="1" stroke="#000000" stroke-opacity="1" stroke-width="3.84"/>
<circle clip-path="url(#clip522)" cx="1482.42" cy="1387.72" r="14.4" fill="#009af9" fill-rule="evenodd" fill-opacity="1" stroke="#000000" stroke-opacity="1" stroke-width="3.84"/>
<circle clip-path="url(#clip522)" cx="1131.97" cy="630.024" r="14.4" fill="#009af9" fill-rule="evenodd" fill-opacity="1" stroke="#000000" stroke-opacity="1" stroke-width="3.84"/>
<circle clip-path="url(#clip522)" cx="961.18" cy="1027.68" r="14.4" fill="#009af9" fill-rule="evenodd" fill-opacity="1" stroke="#000000" stroke-opacity="1" stroke-width="3.84"/>
<circle clip-path="url(#clip522)" cx="2572.85" cy="1634.92" r="14.4" fill="#009af9" fill-rule="evenodd" fill-opacity="1" stroke="#000000" stroke-opacity="1" stroke-width="3.84"/>
<circle clip-path="url(#clip522)" cx="2432.59" cy="1645.66" r="14.4" fill="#009af9" fill-rule="evenodd" fill-opacity="1" stroke="#000000" stroke-opacity="1" stroke-width="3.84"/>
<circle clip-path="url(#clip522)" cx="2112.68" cy="1532.82" r="14.4" fill="#009af9" fill-rule="evenodd" fill-opacity="1" stroke="#000000" stroke-opacity="1" stroke-width="3.84"/>
<circle clip-path="url(#clip522)" cx="1831.19" cy="1522.07" r="14.4" fill="#009af9" fill-rule="evenodd" fill-opacity="1" stroke="#000000" stroke-opacity="1" stroke-width="3.84"/>
<circle clip-path="url(#clip522)" cx="985.307" cy="1065.3" r="14.4" fill="#009af9" fill-rule="evenodd" fill-opacity="1" stroke="#000000" stroke-opacity="1" stroke-width="3.84"/>
<circle clip-path="url(#clip522)" cx="997.026" cy="947.076" r="14.4" fill="#009af9" fill-rule="evenodd" fill-opacity="1" stroke="#000000" stroke-opacity="1" stroke-width="3.84"/>
<circle clip-path="url(#clip522)" cx="1421.5" cy="1269.5" r="14.4" fill="#009af9" fill-rule="evenodd" fill-opacity="1" stroke="#000000" stroke-opacity="1" stroke-width="3.84"/>
<circle clip-path="url(#clip522)" cx="1131.97" cy="1129.78" r="14.4" fill="#009af9" fill-rule="evenodd" fill-opacity="1" stroke="#000000" stroke-opacity="1" stroke-width="3.84"/>
<circle clip-path="url(#clip522)" cx="574.47" cy="769.742" r="14.4" fill="#009af9" fill-rule="evenodd" fill-opacity="1" stroke="#000000" stroke-opacity="1" stroke-width="3.84"/>
<circle clip-path="url(#clip522)" cx="936.067" cy="941.702" r="14.4" fill="#009af9" fill-rule="evenodd" fill-opacity="1" stroke="#000000" stroke-opacity="1" stroke-width="3.84"/>
<circle clip-path="url(#clip522)" cx="729.928" cy="635.398" r="14.4" fill="#009af9" fill-rule="evenodd" fill-opacity="1" stroke="#000000" stroke-opacity="1" stroke-width="3.84"/>
<circle clip-path="url(#clip522)" cx="365.938" cy="527.922" r="14.4" fill="#009af9" fill-rule="evenodd" fill-opacity="1" stroke="#000000" stroke-opacity="1" stroke-width="3.84"/>
<circle clip-path="url(#clip522)" cx="781.462" cy="861.096" r="14.4" fill="#009af9" fill-rule="evenodd" fill-opacity="1" stroke="#000000" stroke-opacity="1" stroke-width="3.84"/>
<circle clip-path="url(#clip522)" cx="309.459" cy="758.994" r="14.4" fill="#009af9" fill-rule="evenodd" fill-opacity="1" stroke="#000000" stroke-opacity="1" stroke-width="3.84"/>
<circle clip-path="url(#clip522)" cx="1083.51" cy="1280.25" r="14.4" fill="#009af9" fill-rule="evenodd" fill-opacity="1" stroke="#000000" stroke-opacity="1" stroke-width="3.84"/>
<circle clip-path="url(#clip522)" cx="923.115" cy="1033.06" r="14.4" fill="#009af9" fill-rule="evenodd" fill-opacity="1" stroke="#000000" stroke-opacity="1" stroke-width="3.84"/>
<circle clip-path="url(#clip522)" cx="526.509" cy="699.883" r="14.4" fill="#009af9" fill-rule="evenodd" fill-opacity="1" stroke="#000000" stroke-opacity="1" stroke-width="3.84"/>
<circle clip-path="url(#clip522)" cx="693.006" cy="243.113" r="14.4" fill="#009af9" fill-rule="evenodd" fill-opacity="1" stroke="#000000" stroke-opacity="1" stroke-width="3.84"/>
<circle clip-path="url(#clip522)" cx="1150.34" cy="990.066" r="14.4" fill="#009af9" fill-rule="evenodd" fill-opacity="1" stroke="#000000" stroke-opacity="1" stroke-width="3.84"/>
<circle clip-path="url(#clip522)" cx="2108.25" cy="1532.82" r="14.4" fill="#009af9" fill-rule="evenodd" fill-opacity="1" stroke="#000000" stroke-opacity="1" stroke-width="3.84"/>
<circle clip-path="url(#clip522)" cx="1588.7" cy="828.853" r="14.4" fill="#009af9" fill-rule="evenodd" fill-opacity="1" stroke="#000000" stroke-opacity="1" stroke-width="3.84"/>
<circle clip-path="url(#clip522)" cx="2128.26" cy="1538.19" r="14.4" fill="#009af9" fill-rule="evenodd" fill-opacity="1" stroke="#000000" stroke-opacity="1" stroke-width="3.84"/>
<circle clip-path="url(#clip522)" cx="1311.28" cy="1183.52" r="14.4" fill="#009af9" fill-rule="evenodd" fill-opacity="1" stroke="#000000" stroke-opacity="1" stroke-width="3.84"/>
<circle clip-path="url(#clip522)" cx="1162.28" cy="1237.26" r="14.4" fill="#009af9" fill-rule="evenodd" fill-opacity="1" stroke="#000000" stroke-opacity="1" stroke-width="3.84"/>
<circle clip-path="url(#clip522)" cx="1528.14" cy="721.378" r="14.4" fill="#009af9" fill-rule="evenodd" fill-opacity="1" stroke="#000000" stroke-opacity="1" stroke-width="3.84"/>
<circle clip-path="url(#clip522)" cx="1947.99" cy="1183.52" r="14.4" fill="#009af9" fill-rule="evenodd" fill-opacity="1" stroke="#000000" stroke-opacity="1" stroke-width="3.84"/>
<circle clip-path="url(#clip522)" cx="2451.06" cy="1570.43" r="14.4" fill="#009af9" fill-rule="evenodd" fill-opacity="1" stroke="#000000" stroke-opacity="1" stroke-width="3.84"/>
<circle clip-path="url(#clip522)" cx="1899.98" cy="1242.63" r="14.4" fill="#009af9" fill-rule="evenodd" fill-opacity="1" stroke="#000000" stroke-opacity="1" stroke-width="3.84"/>
<circle clip-path="url(#clip522)" cx="2377.69" cy="1581.18" r="14.4" fill="#009af9" fill-rule="evenodd" fill-opacity="1" stroke="#000000" stroke-opacity="1" stroke-width="3.84"/>
<circle clip-path="url(#clip522)" cx="2026.83" cy="1398.47" r="14.4" fill="#009af9" fill-rule="evenodd" fill-opacity="1" stroke="#000000" stroke-opacity="1" stroke-width="3.84"/>
<circle clip-path="url(#clip522)" cx="797.723" cy="1000.81" r="14.4" fill="#009af9" fill-rule="evenodd" fill-opacity="1" stroke="#000000" stroke-opacity="1" stroke-width="3.84"/>
<circle clip-path="url(#clip522)" cx="936.067" cy="941.702" r="14.4" fill="#009af9" fill-rule="evenodd" fill-opacity="1" stroke="#000000" stroke-opacity="1" stroke-width="3.84"/>
<circle clip-path="url(#clip522)" cx="1537.85" cy="1237.26" r="14.4" fill="#009af9" fill-rule="evenodd" fill-opacity="1" stroke="#000000" stroke-opacity="1" stroke-width="3.84"/>
<circle clip-path="url(#clip522)" cx="1584.25" cy="1468.33" r="14.4" fill="#009af9" fill-rule="evenodd" fill-opacity="1" stroke="#000000" stroke-opacity="1" stroke-width="3.84"/>
<circle clip-path="url(#clip522)" cx="981.351" cy="1108.29" r="14.4" fill="#009af9" fill-rule="evenodd" fill-opacity="1" stroke="#000000" stroke-opacity="1" stroke-width="3.84"/>
<circle clip-path="url(#clip522)" cx="844.077" cy="1027.68" r="14.4" fill="#009af9" fill-rule="evenodd" fill-opacity="1" stroke="#000000" stroke-opacity="1" stroke-width="3.84"/>
<circle clip-path="url(#clip522)" cx="646.928" cy="775.115" r="14.4" fill="#009af9" fill-rule="evenodd" fill-opacity="1" stroke="#000000" stroke-opacity="1" stroke-width="3.84"/>
<circle clip-path="url(#clip522)" cx="566.731" cy="662.266" r="14.4" fill="#009af9" fill-rule="evenodd" fill-opacity="1" stroke="#000000" stroke-opacity="1" stroke-width="3.84"/>
<circle clip-path="url(#clip522)" cx="1647.87" cy="1479.08" r="14.4" fill="#009af9" fill-rule="evenodd" fill-opacity="1" stroke="#000000" stroke-opacity="1" stroke-width="3.84"/>
<circle clip-path="url(#clip522)" cx="2312.88" cy="1640.29" r="14.4" fill="#009af9" fill-rule="evenodd" fill-opacity="1" stroke="#000000" stroke-opacity="1" stroke-width="3.84"/>
<circle clip-path="url(#clip522)" cx="1171.09" cy="1016.93" r="14.4" fill="#009af9" fill-rule="evenodd" fill-opacity="1" stroke="#000000" stroke-opacity="1" stroke-width="3.84"/>
<circle clip-path="url(#clip522)" cx="1482.42" cy="1205.02" r="14.4" fill="#009af9" fill-rule="evenodd" fill-opacity="1" stroke="#000000" stroke-opacity="1" stroke-width="3.84"/>
<circle clip-path="url(#clip522)" cx="2214.24" cy="1629.54" r="14.4" fill="#009af9" fill-rule="evenodd" fill-opacity="1" stroke="#000000" stroke-opacity="1" stroke-width="3.84"/>
<circle clip-path="url(#clip522)" cx="1984.8" cy="1419.97" r="14.4" fill="#009af9" fill-rule="evenodd" fill-opacity="1" stroke="#000000" stroke-opacity="1" stroke-width="3.84"/>
<circle clip-path="url(#clip522)" cx="2100.58" cy="1559.68" r="14.4" fill="#009af9" fill-rule="evenodd" fill-opacity="1" stroke="#000000" stroke-opacity="1" stroke-width="3.84"/>
<circle clip-path="url(#clip522)" cx="2071.59" cy="1473.7" r="14.4" fill="#009af9" fill-rule="evenodd" fill-opacity="1" stroke="#000000" stroke-opacity="1" stroke-width="3.84"/>
<circle clip-path="url(#clip522)" cx="1741.16" cy="1269.5" r="14.4" fill="#009af9" fill-rule="evenodd" fill-opacity="1" stroke="#000000" stroke-opacity="1" stroke-width="3.84"/>
<circle clip-path="url(#clip522)" cx="2086.91" cy="1446.84" r="14.4" fill="#009af9" fill-rule="evenodd" fill-opacity="1" stroke="#000000" stroke-opacity="1" stroke-width="3.84"/>
<circle clip-path="url(#clip522)" cx="1453.64" cy="1086.79" r="14.4" fill="#009af9" fill-rule="evenodd" fill-opacity="1" stroke="#000000" stroke-opacity="1" stroke-width="3.84"/>
<circle clip-path="url(#clip522)" cx="1501.46" cy="1059.92" r="14.4" fill="#009af9" fill-rule="evenodd" fill-opacity="1" stroke="#000000" stroke-opacity="1" stroke-width="3.84"/>
<circle clip-path="url(#clip522)" cx="2548.49" cy="1586.55" r="14.4" fill="#009af9" fill-rule="evenodd" fill-opacity="1" stroke="#000000" stroke-opacity="1" stroke-width="3.84"/>
<circle clip-path="url(#clip522)" cx="2265.53" cy="1602.67" r="14.4" fill="#009af9" fill-rule="evenodd" fill-opacity="1" stroke="#000000" stroke-opacity="1" stroke-width="3.84"/>
<circle clip-path="url(#clip522)" cx="1611.91" cy="1382.35" r="14.4" fill="#009af9" fill-rule="evenodd" fill-opacity="1" stroke="#000000" stroke-opacity="1" stroke-width="3.84"/>
<circle clip-path="url(#clip522)" cx="1729.51" cy="1317.87" r="14.4" fill="#009af9" fill-rule="evenodd" fill-opacity="1" stroke="#000000" stroke-opacity="1" stroke-width="3.84"/>
<circle clip-path="url(#clip522)" cx="2074.28" cy="1489.83" r="14.4" fill="#009af9" fill-rule="evenodd" fill-opacity="1" stroke="#000000" stroke-opacity="1" stroke-width="3.84"/>
<circle clip-path="url(#clip522)" cx="2175.6" cy="1688.65" r="14.4" fill="#009af9" fill-rule="evenodd" fill-opacity="1" stroke="#000000" stroke-opacity="1" stroke-width="3.84"/>
<circle clip-path="url(#clip522)" cx="1285.2" cy="1178.15" r="14.4" fill="#009af9" fill-rule="evenodd" fill-opacity="1" stroke="#000000" stroke-opacity="1" stroke-width="3.84"/>
<circle clip-path="url(#clip522)" cx="1325.05" cy="1140.53" r="14.4" fill="#009af9" fill-rule="evenodd" fill-opacity="1" stroke="#000000" stroke-opacity="1" stroke-width="3.84"/>
<circle clip-path="url(#clip522)" cx="711.744" cy="877.217" r="14.4" fill="#009af9" fill-rule="evenodd" fill-opacity="1" stroke="#000000" stroke-opacity="1" stroke-width="3.84"/>
<path clip-path="url(#clip520)" d="M2216.63 285.016 L2560.78 285.016 L2560.78 181.336 L2216.63 181.336  Z" fill="#ffffff" fill-rule="evenodd" fill-opacity="1"/>
<polyline clip-path="url(#clip520)" style="stroke:#000000; stroke-linecap:round; stroke-linejoin:round; stroke-width:4; stroke-opacity:1; fill:none" points="2216.63,285.016 2560.78,285.016 2560.78,181.336 2216.63,181.336 2216.63,285.016 "/>
<circle clip-path="url(#clip520)" cx="2323.26" cy="233.176" r="23.04" fill="#009af9" fill-rule="evenodd" fill-opacity="1" stroke="#000000" stroke-opacity="1" stroke-width="6.144"/>
<path clip-path="url(#clip520)" d="M2434.57 219.739 L2434.57 246.614 L2440.21 246.614 Q2447.37 246.614 2450.68 243.373 Q2454.01 240.132 2454.01 233.142 Q2454.01 226.197 2450.68 222.98 Q2447.37 219.739 2440.21 219.739 L2434.57 219.739 M2429.89 215.896 L2439.5 215.896 Q2449.54 215.896 2454.24 220.086 Q2458.94 224.253 2458.94 233.142 Q2458.94 242.077 2454.22 246.266 Q2449.5 250.456 2439.5 250.456 L2429.89 250.456 L2429.89 215.896 Z" fill="#000000" fill-rule="evenodd" fill-opacity="1" /><path clip-path="url(#clip520)" d="M2477.99 237.424 Q2472.83 237.424 2470.84 238.604 Q2468.85 239.785 2468.85 242.632 Q2468.85 244.901 2470.33 246.243 Q2471.83 247.563 2474.4 247.563 Q2477.94 247.563 2480.07 245.063 Q2482.23 242.54 2482.23 238.373 L2482.23 237.424 L2477.99 237.424 M2486.49 235.665 L2486.49 250.456 L2482.23 250.456 L2482.23 246.521 Q2480.77 248.882 2478.59 250.016 Q2476.42 251.128 2473.27 251.128 Q2469.29 251.128 2466.93 248.905 Q2464.59 246.66 2464.59 242.91 Q2464.59 238.535 2467.5 236.313 Q2470.44 234.091 2476.25 234.091 L2482.23 234.091 L2482.23 233.674 Q2482.23 230.734 2480.28 229.137 Q2478.36 227.517 2474.87 227.517 Q2472.64 227.517 2470.54 228.049 Q2468.43 228.581 2466.49 229.646 L2466.49 225.711 Q2468.82 224.808 2471.02 224.368 Q2473.22 223.906 2475.31 223.906 Q2480.93 223.906 2483.71 226.822 Q2486.49 229.739 2486.49 235.665 Z" fill="#000000" fill-rule="evenodd" fill-opacity="1" /><path clip-path="url(#clip520)" d="M2499.47 217.169 L2499.47 224.531 L2508.25 224.531 L2508.25 227.841 L2499.47 227.841 L2499.47 241.915 Q2499.47 245.086 2500.33 245.989 Q2501.21 246.891 2503.87 246.891 L2508.25 246.891 L2508.25 250.456 L2503.87 250.456 Q2498.94 250.456 2497.06 248.628 Q2495.19 246.776 2495.19 241.915 L2495.19 227.841 L2492.06 227.841 L2492.06 224.531 L2495.19 224.531 L2495.19 217.169 L2499.47 217.169 Z" fill="#000000" fill-rule="evenodd" fill-opacity="1" /><path clip-path="url(#clip520)" d="M2525.63 237.424 Q2520.47 237.424 2518.48 238.604 Q2516.49 239.785 2516.49 242.632 Q2516.49 244.901 2517.97 246.243 Q2519.47 247.563 2522.04 247.563 Q2525.58 247.563 2527.71 245.063 Q2529.87 242.54 2529.87 238.373 L2529.87 237.424 L2525.63 237.424 M2534.12 235.665 L2534.12 250.456 L2529.87 250.456 L2529.87 246.521 Q2528.41 248.882 2526.23 250.016 Q2524.06 251.128 2520.91 251.128 Q2516.93 251.128 2514.56 248.905 Q2512.23 246.66 2512.23 242.91 Q2512.23 238.535 2515.14 236.313 Q2518.08 234.091 2523.89 234.091 L2529.87 234.091 L2529.87 233.674 Q2529.87 230.734 2527.92 229.137 Q2526 227.517 2522.5 227.517 Q2520.28 227.517 2518.18 228.049 Q2516.07 228.581 2514.12 229.646 L2514.12 225.711 Q2516.46 224.808 2518.66 224.368 Q2520.86 223.906 2522.94 223.906 Q2528.57 223.906 2531.35 226.822 Q2534.12 229.739 2534.12 235.665 Z" fill="#000000" fill-rule="evenodd" fill-opacity="1" /></svg>
